<svg width="56" height="56" viewBox="0 0 56 56" xmlns="http://www.w3.org/2000/svg"><path fill="#F0F3FA" d="M0 0h56v56H0z"/><path fill="#0F70B7" d="M14 14h28v28H14z"/><path d="M19.92 28.84V28C17.05 28 16 29.8 16 31.4c0 1.62.98 2.6 2.29 2.6 1.3 0 2.29-.9 2.29-2.1 0-1.2-.81-1.92-1.9-1.92-.88 0-1.3.36-1.4.54.37-1.49 1.91-1.74 2.64-1.68Zm-.58 3.14c0 .62-.47 1.13-1.05 1.13-.58 0-1.05-.5-1.05-1.13 0-.63.47-1.14 1.05-1.14.58 0 1.05.51 1.05 1.14ZM21 29.64h1.03c.02-.3.26-.9.96-.9.88 0 .95.86.95.94 0 .09-.06.6-.56.8h-1.1v.8h1.06a1 1 0 0 1 .68.98c0 .79-.81.92-1.06.92s-.8-.03-1-.82H21c-.03.55.33 1.64 2 1.64 1.63 0 2.01-1.19 2-1.78-.02-.35-.2-1.11-.8-1.34.27-.16.8-.67.8-1.4 0-.91-.7-1.48-2.01-1.48-1.31 0-1.95.72-1.99 1.64Z" fill="#F0F3FA"/><path fill-rule="evenodd" d="M16 35h1v.63c.24-.3.64-.63 1.18-.63.65 0 1.01.42 1.18.91.16-.32.64-.91 1.36-.91.94 0 1.28.87 1.28 1.58V40h-1v-3.32c0-.27-.1-.8-.7-.8-.43 0-.7.31-.84.6V40h-.94v-3.32c0-.27-.16-.8-.76-.8-.35 0-.6.22-.76.46V40h-1v-5Zm17 .94c.14-.31.6-.94 1.3-.94.88 0 1.2.87 1.2 1.58V40h-1v-3.32c0-.27-.04-.8-.6-.8-.56 0-.83.6-.9.9V40h-1v-5h1v.94Zm-6 1.56c0 1.38-.6 2.5-2 2.5s-2-1.12-2-2.5.7-2.5 2-2.5 2 1.12 2 2.5Zm-1 0c0 .97-.3 1.76-1 1.76s-1-.79-1-1.76.35-1.76 1-1.76 1 .79 1 1.76Zm3.5 2.5c1.4 0 2-1.12 2-2.5s-.7-2.5-2-2.5-2 1.12-2 2.5.6 2.5 2 2.5Zm0-.74c.7 0 1-.79 1-1.76s-.35-1.76-1-1.76-1 .79-1 1.76.3 1.76 1 1.76Zm6.82-.76h1c.02.23.23.71.86.71.79 0 .83-.62.83-.62.01-.17-.17-.56-1.02-.72-1.07-.21-1.47-.84-1.47-1.54 0-.7.64-1.33 1.66-1.33s1.7.58 1.7 1.52h-.91c-.02-.24-.22-.72-.79-.72-.72 0-.72.6-.72.72s.02.4.86.56c.83.17 1.68.53 1.68 1.5 0 .98-.82 1.42-1.9 1.42-1.07 0-1.78-.76-1.78-1.5Z" fill="#F0F3FA"/></svg>