<svg width="56" height="56" viewBox="0 0 56 56" xmlns="http://www.w3.org/2000/svg"><path fill="#F0F3FA" d="M0 0h56v56H0z"/><path fill-rule="evenodd" d="M17 25h-2v2h2v-2Zm-3-1v4h4v-4h-4Z" fill="#1980A9"/><path d="M13 30h1v8h9v-3.28h1V39H13v-9Z" fill="#1980A9"/><path d="M15 37v-7h1v7h-1ZM17 37v-7h.45v7H17ZM18 30v7h.45v-7H18ZM19 37v-7h.45v7H19ZM20 30v7h1v-7h-1Z" fill="#1980A9"/><path fill-rule="evenodd" d="M30 35.2a2.2 2.2 0 1 0 0-4.4 2.2 2.2 0 0 0 0 4.4Zm0 .8a3 3 0 1 0 0-6 3 3 0 0 0 0 6Z" fill="#1980A9"/><path d="M33 24.5c0 5.3-4.47 9.5-9.8 9.5H23v1h.2C29.04 35 34 30.3 34 24.5S29.26 14 23.42 14c-2.89 0-5.51 1.15-7.42 3.02l.7.58a9.6 9.6 0 0 1 6.72-2.6c5.34 0 9.58 4.2 9.58 9.5ZM13.83 28a8.53 8.53 0 0 1-.83-3.68 8.53 8.53 0 0 1 3-6.65 33.7 33.7 0 0 0-.52-.67 9.48 9.48 0 0 0-2.73 11h1.08Z" fill="#1980A9"/><path d="m25.03 24 2.43-6h2.08L34 29h-2l-1.17-3h-4.66L25 29h-2l2-4.93V24h.03Zm1.91 0h3.12l-1.56-4-1.56 4ZM42.84 27l-6.02 10.39h3.48c.39 0 .72-.04.98-.11.27-.08.5-.2.68-.36.2-.17.35-.39.48-.65.13-.25.26-.6.39-1.03H43L42.68 38H34l6-10.39h-3.34c-.31 0-.6.04-.85.13-.25.08-.49.29-.72.62-.23.33-.4.82-.52 1.49h-.18L34.6 27h8.24Z" fill="#DC0707"/><path d="M34 25v-1.95l4.55-4.23c.78-.78 1.74-1.66 1.74-2.84 0-1.09-.84-1.83-1.9-1.83-1.16 0-1.9.7-1.9 1.83H34c0-2.52 1.97-3.98 4.4-3.98 2.25 0 4.44 1.35 4.44 3.8 0 2.11-1.83 3.73-3.25 5.06l-1.82 2.05V23H43v2h-9Z" fill="#1980A9" fill-opacity=".5"/><path d="M41.74 42.69H40.5V44H39v-4h2.85c.83 0 2.15.18 2.15 1.27 0 1.17-1.36 1.42-2.26 1.42Zm.9-1.42c0-.41-.36-.58-1.01-.58H40.5V42h1.13c.64 0 1.02-.3 1.02-.73ZM36.5 42.4V40H38v2.4c0 1.35-1.38 1.6-2.5 1.6-1.11 0-2.5-.25-2.5-1.6V40h1.5v2.4c0 .71.34.91 1 .91.66 0 1-.2 1-.91ZM29 44c-1.26 0-3-.43-3-2 0-1.58 1.73-2 3-2s3 .42 3 2c0 1.57-1.73 2-3 2Zm1.5-2c0-.94-.67-1.33-1.5-1.33s-1.5.39-1.5 1.33c0 .94.67 1.33 1.5 1.33.84 0 1.5-.39 1.5-1.33ZM22.52 42.43H21.5V44H20v-4h2.94c.7 0 1.97.18 1.97 1.14 0 .52-.47.84-.93.95.28.07.47.18.59.32.11.13.17.34.17.62 0 .2-.03.45.03.64.03.1.11.18.23.23v.1h-1.38a2.1 2.1 0 0 1-.08-.21c-.07-.24-.06-.48-.06-.72 0-.26-.08-.43-.21-.51-.13-.09-.39-.13-.75-.13Zm1.13-1.18c0-.51-.58-.56-.97-.56H21.5v1.08h1.14c.37 0 1.01-.01 1.01-.52ZM15.96 44c-1.2 0-2.96-.47-2.96-1.96 0-1.58 1.88-2.04 3.14-2.04.89 0 2.61.16 2.84 1.28h-1.33c-.21-.54-.98-.63-1.49-.63-.87 0-1.66.4-1.66 1.4 0 .96.84 1.28 1.66 1.28.6 0 1.46-.16 1.64-.84h-1.49V42H19v2h-.9l-.13-.58c-.6.43-1.27.58-2.01.58Z" fill="#1980A9"/></svg>