<svg width="56" height="56" viewBox="0 0 56 56" xmlns="http://www.w3.org/2000/svg"><path fill="#E31E24" d="M0 0h56v56H0z"/><path d="M20.67 38v5H18.5v-5h-1.2l.98-4.5-1.42 2.14L15 34.57 18.7 27h4.6l3.7 7.57-1.85 1.07-1.42-2.13.98 4.49h-1.2v5h-2.18v-5h-.66ZM35.67 37.67V43H33.5v-9.81l-1.64 2.45L30 34.57 33.7 27h4.6l3.7 7.57-1.85 1.07-1.64-2.45V43h-2.18v-5.33h-.66Z" fill="#fff"/><circle cx="21" cy="24" r="2" fill="#fff"/><path d="M33 15.21 28.1 11 14 23.3l1.38 1.7 12.73-11.1 12.52 10.77L42 22.96l-6-5.17V14h-3v1.21Z" fill="#fff"/><circle cx="36" cy="24" r="2" fill="#fff"/><circle cx="28" cy="33" r="1" fill="#fff"/><path d="m25.32 34.73.8-.73 1.13 1h1.47l1.14-1 .8.73-1.66 1.7V43h-.89v-3.51h-.21V43H27v-6.54l-1.68-1.73Z" fill="#fff"/></svg>