<svg width="56" height="56" viewBox="0 0 56 56" xmlns="http://www.w3.org/2000/svg"><path fill="#F0F3FA" d="M0 0h56v56H0z"/><path d="M18.98 27.21 28.2 9 42 37C25.26 26.56 22.09 27 20.8 27a6 6 0 0 0-1.82.21Z" fill="url(#a)"/><path d="M15.72 33.9 12 41c.94-.6 4.44-2 10.88-2 6.45 0 16.77 1.4 21.12 2-10.27-7.62-17.15-9-21.12-9-3.17 0-6.1 1.26-7.16 1.9Z" fill="url(#b)"/><defs><linearGradient id="a" x1="19" y1="26.31" x2="36.74" y2="26.31" gradientUnits="userSpaceOnUse"><stop stop-color="#588BC9"/><stop offset="1" stop-color="#143051"/></linearGradient><linearGradient id="b" x1="12" y1="36.5" x2="44" y2="36.5" gradientUnits="userSpaceOnUse"><stop offset=".29" stop-color="#F57E20"/><stop offset="1" stop-color="#F9BD74"/></linearGradient></defs></svg>