<svg width="56" height="56" viewBox="0 0 56 56" xmlns="http://www.w3.org/2000/svg"><path fill="#F0F3FA" d="M0 0h56v56H0z"/><path d="M25.3 15H38l-4.3 8H21l4.3-8Z" fill="#1C145D"/><path d="M24.3 33H37l-4.3 8H20l4.3-8Z" fill="#018F47"/><path d="M42 23v-1h1v1h-1ZM42 24v9h1v-9h-1ZM36.9 33 34 24h1l2.5 7.5L40 24h1l-2.89 9h-1.2ZM28 33v-9h1v1.53c.45-.78 1.42-1.53 2.4-1.53.52 0 1.06.16 1.6.48l-.54.84a2.3 2.3 0 0 0-1.14-.32C29.85 25 29 26.84 29 28v5h-1ZM17.1 31.74A4.2 4.2 0 0 1 14.23 33c-1.47 0-2.22-.95-2.22-2.46 0-1.8.86-2.32 2.4-2.54 1.04-.14 2.1-.3 2.6-.5v-.54c0-1.46-.84-1.96-2-1.96-1.14 0-1.75.75-2 1.85l-1-.2c.34-1.8 1.27-2.65 3.06-2.65 2.22 0 2.94 1.22 2.94 3.25v1.95c0 1.35.03 2.21.08 2.58.06.35.17.89.33 1.22h-1.04c-.14-.3-.22-.85-.26-1.26ZM17 28.5c-.47.22-1.47.4-2.4.55-.88.14-1.6.4-1.6 1.44 0 .88.49 1.51 1.31 1.51C16.1 32 17 30.6 17 29.02v-.52ZM25.1 31.74A4.2 4.2 0 0 1 22.23 33c-1.47 0-2.22-.95-2.22-2.46 0-1.8.86-2.32 2.4-2.54 1.04-.14 2.1-.3 2.6-.5v-.54c0-1.46-.84-1.96-2-1.96-1.14 0-1.75.75-2 1.85l-1-.2c.34-1.8 1.27-2.65 3.06-2.65 2.22 0 2.94 1.22 2.94 3.25v1.95c0 1.35.03 2.21.08 2.58.06.35.17.89.33 1.22h-1.04c-.14-.3-.22-.85-.26-1.26ZM25 28.5c-.47.22-1.47.4-2.4.55-.88.14-1.6.4-1.6 1.44 0 .88.49 1.51 1.31 1.51C24.1 32 25 30.6 25 29.02v-.52Z" fill="#0B0A08"/></svg>