<svg width="56" height="56" viewBox="0 0 56 56" xmlns="http://www.w3.org/2000/svg"><path fill="#F0F3FA" d="M0 0h56v56H0z"/><path d="M8 39h40v-3H8v3Z" fill="#643585"/><path fill-rule="evenodd" d="M48 34H8V17h40v17Zm-32-2v1h3v-7.07c0-2-1.23-2.93-3.85-2.93-1.84 0-3.92.46-3.88 2.68V26h2.87v-.32c-.05-.78.3-1.18 1.1-1.18.6 0 .76.37.76 1.1v1.17h-.74c-2.23 0-4.26.53-4.26 3.1v.6c0 .79.23 1.4.7 1.86a2.7 2.7 0 0 0 1.95.67c1.02 0 1.63-.29 2.35-1Zm0-2.41c0 1.26 0 1.9-1.12 1.9-.62 0-.88-.35-.88-.94v-.59c0-1.22.36-1.69 1.53-1.69H16v1.32ZM20 33h3v-.95c.58.63 1.2.95 2.29.95 2.2 0 2.71-1.67 2.71-3.6v-3.41c0-2.01-.85-3.02-2.6-3.02-1.02 0-1.71.31-2.4 1.05V19h-3v14Zm3-3.9v-2.38c0-.82-.01-2.02 1.03-2.02.97 0 .97 1.15.97 2v2.4c0 .92 0 2.17-.98 2.17-1.04 0-1.03-.97-1.02-1.82v-.35ZM34 33v-1c-.72.71-1.33 1-2.35 1a2.7 2.7 0 0 1-1.95-.67 2.46 2.46 0 0 1-.7-1.87v-.58c0-2.58 2.03-3.1 4.26-3.1H34v-1.19c0-.72-.16-1.09-.77-1.09-.78 0-1.14.4-1.1 1.18V26h-2.86v-.32C29.23 23.46 31.3 23 33.15 23c2.62 0 3.85.93 3.85 2.93V33h-3Zm-1.12-1.5c1.12 0 1.12-.65 1.12-1.91v-1.32h-.47c-1.17 0-1.53.47-1.53 1.7v.58c0 .6.26.95.88.95ZM38 23h3v1.13A3.03 3.03 0 0 1 43.55 23c1.64 0 2.45.86 2.45 2.58V33h-3v-7.1c0-.8-.16-1.14-.88-1.14-1.2 0-1.16 1.25-1.12 2.19V33h-3V23Z" fill="#643585"/></svg>