<svg width="56" height="56" viewBox="0 0 56 56" xmlns="http://www.w3.org/2000/svg"><path fill="#F0F3FA" d="M0 0h56v56H0z"/><path d="M24 15.82 28 11l4 4.82L29.7 22 28 20.17 26.3 22 24 15.82ZM24 40.18 28 45l4-4.82L29.7 34 28 35.83 26.3 34 24 40.18ZM40.18 24 45 28l-4.82 4L34 29.7l1.83-1.7L34 26.3l6.18-2.3ZM15.82 24 11 28l4.82 4L22 29.7 20.17 28 22 26.3 15.82 24ZM33.5 16.22 40 16l-.22 6.5-6.11 2.5-.06-2.61-2.61-.06 2.5-6.1ZM16.22 33.5 16 40l6.5-.22 2.5-6.11-2.61-.06-.06-2.61-6.1 2.5ZM22.5 16.22 16 16l.22 6.5 6.11 2.5.06-2.61 2.61-.06-2.5-6.1ZM39.78 33.5 40 40l-6.5-.22-2.5-6.11 2.61-.06.06-2.61 6.1 2.5ZM25.3 29.51c.23.52.5.94.8 1.25.53.54 1.2.8 1.98.8.42 0 .8-.1 1.1-.34.31-.24.47-.56.47-.98 0-.38-.16-.71-.47-.99-.2-.18-.63-.44-1.3-.8l-1.13-.62a4.03 4.03 0 0 1-.82-.57 1.66 1.66 0 0 1-.57-1.21c0-.59.22-1.08.67-1.47a2.62 2.62 0 0 1 1.78-.58c.3 0 .67.07 1.1.2.43.13.67.2.73.2.17 0 .28-.04.34-.11a.67.67 0 0 0 .15-.29h.28l.29 2.47h-.32c-.22-.74-.57-1.26-1.05-1.56a2.7 2.7 0 0 0-1.42-.44c-.37 0-.69.1-.96.28a.89.89 0 0 0-.4.78c0 .3.1.55.3.77.22.21.54.44.98.67l1.17.63c.74.4 1.26.75 1.56 1.08.3.34.44.73.44 1.18 0 .61-.27 1.12-.8 1.53-.52.4-1.2.61-2.02.61a4.5 4.5 0 0 1-1.3-.2 5.4 5.4 0 0 0-.76-.2c-.16 0-.27.03-.32.12a.75.75 0 0 0-.1.26h-.3l-.4-2.47h.3Z" fill="#009640"/></svg>