<svg width="56" height="56" xmlns="http://www.w3.org/2000/svg"><path fill="url(#paint0_linear)" d="M0 0h56v56H0z"/><path d="M23 20.164v3.42c-.741-.327-1.988-.584-3.07-.584-2.899 0-4.683 1.638-4.93 4.36v3.118c.247 2.7 2.212 4.522 5.247 4.522a7.57 7.57 0 004.326-1.363c.36-.24.427-.483.427-.878V20.164c0-.657-.326-1.164-1-1.164-.65 0-1 .507-1 1.164zm-6 10.028v-2.567C17.09 26.023 18.404 25 20.11 25c1.172 0 2.42.43 2.89.716v6.494c-.447.331-1.784.79-2.753.79-1.73 0-3.11-1.12-3.247-2.808zm20.474-6.037c-.337.221-.474.441-.474.9v8.714c0 .659.369 1.231 1 1.231.67 0 1-.572 1-1.23v-8.21c.514-.308 1.796-.56 2.898-.56 1.396 0 3.102.935 3.102 2.69v6.08c0 .657.369 1.23 1 1.23.698 0 1-.572 1-1.23v-6.19c0-2.963-1.773-4.58-5.031-4.58-2.361 0-3.844.676-4.495 1.155zm-31.862-.55c-.604.265-.789.704-.789 1.08 0 .68.642.987 1.63.678C7.086 25.144 8 25 8.919 25 10.67 25 12 25.714 12 27.208v.722c-1.035-.24-2.341-.436-3.4-.436-3.035 0-4.506 1.684-4.6 3.512v.41C4.098 33.46 5.624 35 8.6 35c2.341 0 4.3-.77 4.93-1.187.338-.22.47-.46.47-.855v-5.707C14 24.286 11.878 23 9 23c-1.369 0-2.733.3-3.388.606zM6 31.117c0-1.054 1.322-1.65 2.69-1.65 1.012 0 2.322.133 3.31.374v2.438c-.224.174-1.643.722-3.196.722C7.208 33 6 32.3 6 31.116zm42-6.961v9.614c0 .66.373 1.231 1 1.231.675 0 1-.571 1-1.23v-9.615c0-.658-.345-1.155-1-1.155-.675 0-1 .497-1 1.155zm-20.388-.55c-.604.264-.788.703-.788 1.078 0 .68.641.988 1.63.68.631-.22 1.546-.364 2.464-.364C32.67 25 34 25.714 34 27.208v.722c-1.035-.24-2.341-.436-3.4-.436-3.035 0-4.506 1.684-4.6 3.512v.41C26.098 33.46 27.623 35 30.6 35c2.341 0 4.3-.77 4.93-1.187.338-.22.47-.46.47-.855v-5.707C36 24.286 33.878 23 31 23c-1.369 0-2.733.3-3.388.606zm.388 7.51c0-1.054 1.322-1.65 2.69-1.65 1.012 0 2.322.133 3.31.374v2.438c-.224.174-1.643.722-3.196.722C29.208 33 28 32.3 28 31.116zM50 20a1 1 0 11-2 0 1 1 0 012 0z" fill="#fff"/><defs><linearGradient id="paint0_linear" x1="0" y1="28" x2="56" y2="28" gradientUnits="userSpaceOnUse"><stop stop-color="#1192C5"/><stop offset=".474" stop-color="#512EFE"/><stop offset="1" stop-color="#B81676"/></linearGradient></defs></svg>