<svg width="56" height="56" viewBox="0 0 56 56" xmlns="http://www.w3.org/2000/svg"><path fill="#F0F3FA" d="M0 0h56v56H0z"/><path d="M13 24.5 4 23v10l9-1.18V24.5Z" fill="#FDCF84"/><path d="m14 24-9-1.5v11l9-1.18V24Z" fill="#FEC659"/><path d="M15 23.81 6 22v12l9-1.42v-8.77Z" fill="#F5B11E"/><path d="M50.5 28.7v1.6c0 .1.02.17.05.2l.05.06.24.04c.1.03.16.1.16.2 0 .07-.03.13-.09.16a.9.9 0 0 1-.3.04H48.9c-.1 0-.17-.01-.21-.04a.18.18 0 0 1-.09-.16c0-.1.06-.17.16-.2l.15-.04.05-.05c.03-.04.05-.11.05-.2v-1.24l-.94-2.48a.4.4 0 0 0-.15-.2.52.52 0 0 1-.11-.1.2.2 0 0 1-.02-.1c0-.13.08-.19.25-.19h1.62c.08 0 .14.01.18.03.05.04.08.1.08.16 0 .07-.03.14-.1.18l-.1.07c-.03.02-.05.06-.05.12s.01.12.04.18l.8 1.97Zm.13-.34-.19-.48.35-.86a.85.85 0 0 0 .04-.3c0-.26-.22-.25-.36-.4-.02-.02-.03-.06-.03-.11 0-.07.02-.12.06-.16a.2.2 0 0 1 .09-.04l.17-.01h1c.16 0 .24.07.24.2 0 .05-.01.1-.03.12-.17.23-.59.22-.71.51l-.08.19-.55 1.34ZM45.5 31h-1.6a.43.43 0 0 1-.23-.05.16.16 0 0 1-.07-.14c0-.1.05-.17.15-.2l.15-.05c.02 0 .04-.02.05-.04.03-.04.05-.1.05-.19v-3.66c0-.09-.02-.15-.05-.19-.01-.02-.03-.04-.05-.04l-.15-.05c-.1-.03-.15-.1-.15-.2 0-.06.02-.1.07-.14a.4.4 0 0 1 .22-.05h1.75c.12 0 .2.01.25.04.07.04.1.1.1.16 0 .1-.06.17-.19.2l-.18.04a.18.18 0 0 0-.06.05c-.04.04-.06.11-.06.2V31Zm.5 0v-.41c.6-.1.84-.39 1.04-1a.88.88 0 0 1 .12-.26.2.2 0 0 1 .15-.07c.08 0 .13.03.17.09l.02.16V31H46ZM40.5 26v4.3c0 .1.02.17.05.2l.05.06.16.04c.1.03.16.1.16.2 0 .07-.03.12-.09.16-.04.03-.11.04-.21.04H38.9a.33.33 0 0 1-.18-.05.17.17 0 0 1-.07-.14c0-.1.05-.17.14-.2l.13-.05.04-.04c.03-.04.04-.1.04-.19v-3.66c0-.09-.01-.15-.04-.19l-.04-.04-.13-.05c-.09-.03-.14-.1-.14-.2 0-.06.03-.1.07-.14a.3.3 0 0 1 .19-.05h1.59Zm.12 3.08v-.39c.1-.02.17-.05.2-.07a.33.33 0 0 0 .1-.13c.06-.1.08-.22.08-.38v-1.18c0-.11 0-.2-.02-.25a.35.35 0 0 0-.1-.16.45.45 0 0 0-.26-.12V26c.98 0 1.86.39 1.86 1.5 0 1.14-.83 1.58-1.86 1.58ZM36 26v5h-1.59a.32.32 0 0 1-.19-.05.17.17 0 0 1-.06-.14c0-.1.05-.17.13-.2l.13-.05.04-.04c.03-.04.04-.1.04-.19v-3.66a.34.34 0 0 0-.04-.19l-.04-.04-.13-.05c-.08-.03-.13-.1-.13-.2 0-.06.02-.1.06-.14a.3.3 0 0 1 .2-.05h1.58Zm.48 3.95v-2.89c0-.18-.02-.32-.07-.42a.35.35 0 0 0-.1-.15.56.56 0 0 0-.2-.08V26l.3.01c1.16.15 1.59 1.47 1.59 2.47 0 1.16-.59 2.52-1.9 2.52v-.4c.1-.02.17-.05.2-.07a.27.27 0 0 0 .1-.1.5.5 0 0 0 .06-.18c.02-.07.02-.17.02-.3ZM32.5 31h-1.58a.28.28 0 0 1-.18-.05.18.18 0 0 1-.05-.14c0-.1.04-.17.12-.2l.12-.05.03-.04c.03-.04.04-.1.04-.19v-3.66a.36.36 0 0 0-.04-.19c0-.02-.02-.04-.03-.04a.9.9 0 0 0-.12-.05c-.08-.03-.12-.1-.12-.2 0-.06.01-.1.05-.14.04-.03.1-.05.18-.05H32.58c.08 0 .13.02.17.05.04.03.06.08.06.14 0 .1-.04.17-.12.2l-.12.05-.03.04a.36.36 0 0 0-.04.19v3.66c0 .09.01.15.04.19 0 .02.02.04.03.04l.12.05c.08.03.12.1.12.2 0 .06-.02.1-.06.14a.26.26 0 0 1-.17.05h-.08ZM27.35 28.26H28v-1.6c0-.13-.04-.21-.1-.24l-.13-.03c-.1-.03-.14-.1-.14-.2 0-.13.09-.19.27-.19H29.72c.19 0 .28.06.28.2 0 .1-.05.16-.15.19l-.14.05c-.02 0-.03.02-.05.04-.03.04-.04.1-.04.19v3.65c0 .13.04.21.11.24l.12.04c.1.04.15.1.15.2 0 .14-.1.2-.28.2H27.9c-.18 0-.27-.06-.27-.2 0-.1.05-.16.14-.2l.12-.04c.07-.02.11-.1.11-.24v-1.7h-.65v-.36ZM27 31H25.28a.39.39 0 0 1-.2-.05.17.17 0 0 1-.08-.14c0-.1.05-.17.15-.2l.14-.05c.02 0 .03-.02.05-.04.03-.04.04-.1.04-.19v-3.66c0-.09-.01-.15-.04-.19-.02-.02-.03-.04-.05-.04l-.14-.05c-.1-.03-.15-.1-.15-.2 0-.06.02-.1.07-.14a.37.37 0 0 1 .21-.05H27.1c.18 0 .27.06.27.2 0 .1-.05.16-.15.19l-.11.03c-.07.03-.11.11-.11.25v3.66c0 .14.04.22.1.25l.12.03c.1.03.15.1.15.2 0 .13-.1.19-.27.19H27ZM22.17 26v.43a.45.45 0 0 0-.32.18c-.07.1-.1.25-.1.44v3.06a.51.51 0 0 0 .12.32c.04.05.08.08.12.1l.18.04V31c-.47 0-.89-.12-1.24-.36-.3-.2-.54-.49-.7-.84a3.09 3.09 0 0 1-.23-1.25c0-.36.05-.69.15-1a2.28 2.28 0 0 1 1.15-1.35c.27-.13.54-.2.79-.2h.08Zm.3.43v-.42l.28.06.41.13a1 1 0 0 0 .25.06c.07 0 .13-.03.16-.09l.05-.08c.03-.06.09-.09.17-.09.06 0 .11.02.15.06.03.04.05.1.05.17v1.46c0 .1-.02.16-.06.2a.21.21 0 0 1-.15.07.2.2 0 0 1-.15-.06.43.43 0 0 1-.08-.17c-.05-.19-.1-.34-.15-.44-.1-.22-.23-.4-.36-.54-.1-.1-.18-.17-.28-.22a.8.8 0 0 0-.3-.1Zm0 4.57v-.43c.2-.01.4-.08.6-.2a1.25 1.25 0 0 0 .5-.65.39.39 0 0 1 .1-.16.18.18 0 0 1 .12-.05c.06 0 .11.02.15.06.04.04.06.1.06.16 0 .1-.04.23-.13.38a1.74 1.74 0 0 1-.82.76c-.17.08-.36.12-.58.13ZM16 26v4.32c0 .1.02.16.06.2l.05.05.18.04c.12.02.18.1.18.2 0 .06-.03.1-.1.15a.49.49 0 0 1-.24.04h-1.85a.4.4 0 0 1-.2-.05.16.16 0 0 1-.08-.14c0-.1.05-.16.15-.2l.14-.04c.02 0 .04-.02.05-.04.03-.04.05-.1.05-.18v-3.7c0-.08-.02-.14-.05-.18l-.05-.04-.14-.05c-.1-.03-.15-.1-.15-.2 0-.05.02-.1.07-.13a.38.38 0 0 1 .21-.05H16Zm1.22 2.5c.24.03.41.07.54.11.12.04.24.1.34.17.1.07.18.16.24.26s.09.21.09.33v.74c0 .08.02.12.07.12.03 0 .04 0 .05-.02a.44.44 0 0 0 .06-.06c.07-.08.13-.12.2-.12.04 0 .08.02.13.06.04.04.06.09.06.13 0 .07-.04.17-.11.27-.08.1-.17.2-.28.29a.98.98 0 0 1-.34.17 1.5 1.5 0 0 1-.42.05c-.34 0-.6-.09-.78-.27a1.01 1.01 0 0 1-.28-.76v-.83a.47.47 0 0 0-.11-.25.46.46 0 0 0-.31-.15v-.38a.6.6 0 0 0 .29-.1c.05-.05.08-.1.1-.15a.75.75 0 0 0 .03-.25v-.95c0-.15-.03-.26-.1-.34-.06-.07-.17-.13-.33-.17V26h.1c.28 0 .52.01.71.03.3.03.56.12.79.27.33.22.5.54.5.95a1.1 1.1 0 0 1-.67 1.06c-.12.05-.31.12-.57.19ZM9.9 26h1.6l1.09 4.3c.02.08.04.15.07.2.02.05.08.09.16.12.07.03.11.05.14.08.03.03.04.06.04.11 0 .13-.1.19-.3.19h-1.98a.32.32 0 0 1-.18-.05.17.17 0 0 1-.08-.14c0-.05.01-.09.04-.11a.5.5 0 0 1 .14-.1.28.28 0 0 0 .1-.08.18.18 0 0 0 .04-.1l-.01-.12-.13-.53h-1.1l.1-.43h.9l-.73-2.98.1-.36Zm-.27.93.2.76-.7 2.36a.65.65 0 0 0-.03.2c0 .15.08.26.24.33l.13.05c.1.04.13.1.13.19 0 .12-.1.18-.28.18h-1a.43.43 0 0 1-.24-.05.18.18 0 0 1-.08-.16c0-.07.06-.13.17-.18.11-.04.19-.08.24-.12a.7.7 0 0 0 .15-.14c.07-.1.13-.24.18-.4l.9-3.02Z" fill="#29ABE0"/></svg>