<svg width="56" height="56" viewBox="0 0 56 56" xmlns="http://www.w3.org/2000/svg"><path fill="#F0F3FA" d="M0 0h56v56H0z"/><path fill-rule="evenodd" d="M17.56 32 14 36h1.16l.43-.49h1.97V36h.99v-4h-.99Zm0 2.61H16.4l1.17-1.31v1.31Zm3.9-1.76V32h-2.14v4h2.13v-.93h-1.14v-.66h1.14v-.88h-1.14v-.68h1.14ZM22 32v4h.95v-1.34h.07l.8 1.34H25l-1.07-1.37a1.37 1.37 0 0 0 1.08-1.3c0-.74-.65-1.33-1.31-1.33H22Zm1 1h.57c.24 0 .43.16.43.35 0 .2-.2.35-.43.35H23V33Zm6.5 1a2 2 0 1 1-4 0 2 2 0 0 1 4 0Zm-1 0a1 1 0 1 1-2 0 1 1 0 0 1 2 0Zm1.5 2h1v-1.49h1v-1.02h-1V33h1v-1h-2v4Zm3.56-4H32.5v4h2.19v-.93h-1.13V32ZM37 32v1h-1v.49h1v.96h-1V35h1v1h-2v-4h2Zm0 4 1.4-2.13L37.2 32h1.18l.62.94.62-.94h1.18l-1.2 1.87L41 36h-1.24L39 34.81 38.24 36H37Z" fill="#00953E"/><path opacity=".5" d="M30 36H14v2h16v-2Zm11 0H31v2h10v-2Z" fill="#00953E"/><path d="M14 18v15.74L30.44 18H14Z" fill="#00953E"/><path opacity=".3" d="M26.9 25.74 28.71 24H33v-3.18A2.88 2.88 0 0 1 35.93 18H42v2h-6.02c-.47 0-.98.38-.98.84V24h7v2h-7v5.43h-1.99l-6.1-5.7ZM30 26l3 2.98V26h-3Zm1.61-8-11.9 11.78 1.39 1.37L33 19.37 31.6 18Z" fill="#00953E"/><path fill-rule="evenodd" d="M44 16H12v24h32V16Zm-1 1H13v22h30V17Z" fill="#00953E"/></svg>