<svg xmlns="http://www.w3.org/2000/svg" width="56" height="56"><path fill="#1268B3" d="M0 0h56v56H0z"/><path d="M17 23.75V25h-1v1.5h1V34h1.5v-7.5H21V25h-2.5v-.7c.08-1.09.8-1.8 1.83-1.8.83 0 1.42.46 1.61.74L23 22.4c-.62-1.18-2.04-1.42-2.67-1.4-2.7.06-3.34 1.86-3.33 2.75zm32.12 9.46c-.44.35-1.38.82-2.73.79-1.98-.05-3.31-1.22-3.39-3.17V24.3c0-.17.14-.3.3-.3h.74a.3.3 0 01.28.2l.14.4c.25-.2.99-.58 1.93-.6 1.17-.02 3.46.55 3.61 3.24v2.06a.7.7 0 01-.7.7h-4.5a.3.3 0 00-.3.3v.78c.1.48.56 1.42 1.89 1.42.87 0 1.48-.2 1.84-.4.16-.08.38-.06.49.1l.44.65c.08.12.07.27-.04.36zm-.89-4.71c.15 0 .27-.12.27-.27v-.73a2 2 0 00-4 0v.73c0 .15.12.27.28.27h3.45zM6.88 24.79A4.31 4.31 0 019.62 24c1.97.05 3.3 1.22 3.38 3.17v6.53a.3.3 0 01-.3.3h-.74a.3.3 0 01-.28-.2l-.14-.4c-.25.2-.99.58-1.92.6-1.17.02-3.46-.55-3.62-3.24V28.7c0-.39.31-.7.7-.7h4.5a.3.3 0 00.3-.3v-.78a1.91 1.91 0 00-1.88-1.42c-.87 0-1.5.2-1.85.4-.16.08-.38.06-.49-.1l-.44-.65c-.08-.12-.07-.27.04-.36zm.9 4.71a.27.27 0 00-.28.27v.73a2 2 0 004 0v-.73a.27.27 0 00-.27-.27H7.77zM26 25v-1.25c-.01-.89.64-2.69 3.33-2.75.63-.02 2.05.22 2.67 1.4l-1.06.84c-.19-.28-.78-.74-1.61-.74-1.04 0-1.75.71-1.83 1.8v.7H30v1.5h-2.5V34H26v-7.5h-1V25h1zm9-4v10.25c-.01.89.64 2.69 3.33 2.75.63.02 2.05-.22 2.67-1.4l-1.05-.84c-.2.28-.79.74-1.62.74-1.03 0-1.75-.71-1.83-1.8V21H35z" fill="#fff"/><path d="M36.17 15.03c.8-.1 2.05 0 3.15.58a4.4 4.4 0 012.3 3.5.5.5 0 001-.15 5.39 5.39 0 00-2.83-4.23 6.69 6.69 0 00-3.74-.7.5.5 0 00.12 1zm-.27 3.03c.37-.03 1 .05 1.57.36.56.3 1.08.82 1.3 1.71a.5.5 0 10.98-.24 3.56 3.56 0 00-1.8-2.35 4.14 4.14 0 00-2.11-.48.5.5 0 10.06 1z" fill="#F78A3B"/></svg>