<svg width="56" height="56" viewBox="0 0 56 56" xmlns="http://www.w3.org/2000/svg"><path fill="#E4E2D6" d="M0 0h56v56H0z"/><circle cx="28" cy="29" r="13" fill="#415C4D"/><circle cx="27" cy="28" r="11" fill="#327245"/><circle cx="26" cy="27" r="10" fill="#3E8C50"/><ellipse cx="25" cy="26.5" rx="8" ry="8.5" fill="#53AD58"/><ellipse cx="24" cy="25.5" rx="7" ry="7.5" fill="#84BD54"/><circle cx="23" cy="25" r="6" fill="#C0D779"/><circle cx="21" cy="23" r="3" fill="#ECF0DA"/><circle cx="45.5" cy="21.5" r="1.5" fill="#2E2D2E"/><circle cx="23.5" cy="13.5" r="1.5" fill="#2E2D2E"/><circle cx="19.5" cy="34.5" r="1.5" fill="#2E2D2E"/><path d="M30.54 41.64C29.23 43.74 27.6 45 25.81 45 21.5 45 18 37.61 18 28.5S21.5 12 25.81 12c2.08 0 3.96 1.7 5.36 4.5l-.48-.16c-1.24-2.14-2.82-3.42-4.54-3.42-4 0-7.26 6.97-7.26 15.58 0 8.6 3.25 15.58 7.26 15.58 1.4 0 2.7-.84 3.8-2.3l.6-.14Z" fill="#2E2D2E"/><path d="M34 29c-1.67.36-5 1.86-5 4.96 1.17.24 3.8-.41 5-4.96ZM22 29c.36 1.67 1.86 5 4.96 5 .24-1.17-.41-3.8-4.96-5ZM23 26c.29 1.33 1.49 4 3.97 4 .19-.93-.33-3.04-3.97-4ZM33 25c-.29 1.67-1.49 5-3.97 5-.19-1.17.33-3.8 3.97-5Z" fill="#ECF0DA"/><path d="m26.34 40.1-1.37-.68c3.28-5.37 3.04-11.11 2.5-13.31 2.3 4.46.2 11.19-1.13 14ZM32 22c-.29 1.33-1.49 4-3.97 4-.19-.93.33-3.04 3.97-4ZM23 23c.29 1.33 1.49 4 3.97 4 .19-.93-.33-3.04-3.97-4ZM25.1 19c-.22 1.23-.23 3.95 1.58 5 .45-.7.77-2.66-1.57-5Z" fill="#ECF0DA"/><path d="M18.78 38c-2.56-.37-4.47-1.39-5.32-3.05-2.13-4.2 3.33-10.89 12.19-14.96s17.76-3.97 19.89.22c1.39 2.73-.69 6.51-4.58 9.95l.05-.45c3.28-3.08 5.02-6.37 3.8-8.77-1.97-3.89-10.35-3.93-18.72-.08-8.37 3.84-13.55 10.11-11.57 14 .63 1.25 1.91 2.1 3.64 2.55l.62.59Z" fill="#2E2D2E"/></svg>