<svg width="56" height="56" viewBox="0 0 56 56" xmlns="http://www.w3.org/2000/svg"><path fill="#404041" d="M0 0h56v56H0z"/><path d="M19.43 35H17l11-20 11 20H26v-3h8.88L28 19l-8.57 16Z" fill="#EB2026"/><path d="M20.54 35h2.38L28 25l2 4h-3l-.67 2h6.8L28 21l-7.46 14Z" fill="#EB2026"/><path fill-rule="evenodd" d="M28 45a17 17 0 1 0 0-34 17 17 0 0 0 0 34Zm0 1a18 18 0 1 0 0-36 18 18 0 0 0 0 36Z" fill="#EB2026"/><path fill-rule="evenodd" d="M28 42a14 14 0 1 0 0-28 14 14 0 0 0 0 28Zm0 1a15 15 0 1 0 0-30 15 15 0 0 0 0 30Z" fill="#EB2026"/></svg>