<svg width="56" height="56" viewBox="0 0 56 56" xmlns="http://www.w3.org/2000/svg"><path fill="#F0F3FA" d="M0 0h56v56H0z"/><circle cx="28" cy="28" r="16" fill="#F6A03B"/><path d="M34.78 13.5c-2.94 2.63-5.83 6.76-5.83 12.28 0 8.1 6.24 12.7 9.71 14.15a15.96 15.96 0 0 1-22.72-1.41c-2.18-15.73 7.96-23.9 14.12-26.39 1.67.22 3.25.69 4.72 1.37Z" fill="#020002"/><path d="M32.43 13.12c-.35.24-.74.56-1.17.94l-.44-.49c.45-.4.87-.73 1.24-.99l.37.54Zm-3.4 3.31c-.6.75-1.19 1.58-1.74 2.51l-.56-.33a22.8 22.8 0 0 1 1.79-2.58l.5.4Zm-3.19 5.43c-.37.91-.69 1.88-.93 2.9l-.64-.15c.26-1.06.59-2.06.96-3l.61.25Zm-1.44 6.12a20.3 20.3 0 0 0 .03 3.27l-.65.06a18.16 18.16 0 0 1-.03-3.38l.65.05Zm.75 6.95c.33 1.17.74 2.28 1.19 3.3l-.6.26a27.1 27.1 0 0 1-1.22-3.39l.63-.17Zm2.92 6.64c.36.6.7 1.08.97 1.45l-.52.4c-.3-.4-.64-.9-1-1.5l.55-.35Z" fill="#FDF8F5"/></svg>