<svg width="56" height="56" viewBox="0 0 56 56" xmlns="http://www.w3.org/2000/svg"><path fill="#F0F3FA" d="M0 0h56v56H0z"/><path d="M15.7 23.53C12.96 23.1 8.07 20.37 6 19c1.94 3.94 7.82 7.7 14.3 8.12 4.41.28 5.84 1.17 6.11 1.88h-7.3c-.32 0-.8-.35-1-.53L19.83 32h7.12c.52 0 .92.75 1.06 1 .14-.25.54-1 1.06-1h7.12l1.7-3.53c-.2.18-.67.53-1 .53h-7.3c.28-.7 1.71-1.6 6.13-1.88C42.18 26.7 48.06 22.94 50 19c-2.06 1.37-6.95 4.1-9.7 4.53-1.17.18-2.4.32-3.61.47-3.86.44-7.57.87-8.69 2.53-1.12-1.66-4.83-2.09-8.68-2.53-1.22-.15-2.45-.29-3.61-.47ZM28 26l-.67-.46L26 21c.39 0 .61.33.94 1.05.27.58.82.68 1.06.66.24.02.79-.08 1.06-.66.33-.72.55-1.05.94-1.05l-1.33 4.54L28 26Zm-.66 16c-.58 0-1.13-.27-1.45-.73L20 33h1.45c.27 0 .52.12.67.33l1.25 1.53A2.86 2.86 0 0 0 25.68 36h4.64c.92 0 1.79-.43 2.31-1.14l1.25-1.53c.15-.2.4-.33.67-.33H36l-5.89 8.27c-.32.46-.87.73-1.45.73h-1.32Zm.18-1.23c.12.15.3.23.48.23a.6.6 0 0 0 .48-.23l1.55-2.07c.32-.43-.02-1.01-.58-1.01h-2.9c-.56 0-.9.58-.58 1.01l1.55 2.07ZM28 22a1 1 0 1 0 0-2 1 1 0 0 0 0 2Z" fill="url(#a)"/><defs><linearGradient id="a" x1="50" y1="30.5" x2="6" y2="30.5" gradientUnits="userSpaceOnUse"><stop offset=".07" stop-color="#A36837"/><stop offset=".3" stop-color="#F9D773"/><stop offset=".58" stop-color="#A16436"/><stop offset=".76" stop-color="#F2D16E"/><stop offset=".87" stop-color="#C28736"/><stop offset="1" stop-color="#EBBE56"/></linearGradient></defs></svg>