<svg width="56" height="56" viewBox="0 0 56 56" xmlns="http://www.w3.org/2000/svg"><path fill="#F0F3FA" d="M0 0h56v56H0z"/><path fill-rule="evenodd" d="M4 24.22c0-.67.5-1.22 1.12-1.22h45.76c.62 0 1.12.55 1.12 1.22v7.56c0 .67-.5 1.22-1.12 1.22H5.12C4.5 33 4 32.45 4 31.78v-7.56Zm40.35 6.67c.41-.04.65-.16.65-.6v-2.22c0-.2-.03-.35-.09-.41-.06-.07-.15-.1-.29-.1a.9.9 0 0 0-.14 0 .83.83 0 0 0-.11.04v-.15l.32-.1a16.92 16.92 0 0 0 1-.35c.02 0 .03 0 .03.02V27.68c.3-.26.56-.43.77-.53.22-.1.44-.15.67-.15.31 0 .56.1.74.3.1.1.17.25.24.44.22-.21.41-.37.58-.47.28-.18.57-.27.87-.27.96 0 1.15.76 1.15 1.56v1.77c0 .48.35.52.76.56V31h-2.18v-.12c.45-.04.68-.14.68-.62v-1.84c0-.53-.17-.96-.79-.96-.2 0-.39.06-.58.18-.1.07-.24.19-.4.34v2.2c0 .45.19.7.66.7V31h-2.06v-.11c.59-.07.66-.35.66-.91v-1.2c0-.44-.03-.74-.1-.9-.09-.28-.3-.42-.62-.42-.18 0-.36.05-.54.14-.18.1-.33.22-.47.37v2.34c0 .45.21.57.64.58V31h-2.05v-.11ZM43.3 27.4c-.34-.27-.74-.41-1.2-.41A2.02 2.02 0 0 0 40 29.05c0 .51.17.97.5 1.36.33.4.8.59 1.41.59.53 0 .98-.15 1.34-.45.37-.3.62-.62.75-.98l-.17-.05c-.2.28-.41.5-.65.65-.23.15-.52.23-.86.23-.42 0-.79-.15-1.1-.44-.3-.3-.47-.76-.5-1.4h3.09c0-.5-.18-.88-.52-1.15Zm-2.33.31c.2-.28.48-.42.85-.42s.63.13.8.37c.08.14.14.34.18.62h-2.06c.05-.23.12-.42.23-.57ZM32.84 25c.3 0 .6.05.91.14.32.1.5.14.53.14a.4.4 0 0 0 .22-.07.35.35 0 0 0 .15-.21h.17l.08 1.95h-.2c-.24-.86-.8-1.6-1.78-1.6-1.46 0-1.92 1.5-1.92 2.7 0 1.23.58 2.56 2 2.56a2.6 2.6 0 0 0 1.85-.88l.15.16c-.5.68-1.33 1.11-2.18 1.11-1.68 0-2.82-1.32-2.82-2.96S31.15 25 32.84 25Zm-5.71 5.72c-.1.07-.27.12-.54.14V31h2.17v-.14c-.27 0-.47-.04-.58-.13-.12-.1-.18-.27-.18-.51V28.3c0-.17.07-.34.23-.5.14-.16.27-.24.37-.24.07 0 .16.05.27.15.11.1.23.15.34.15.1 0 .2-.04.27-.12a.41.41 0 0 0 .1-.3.41.41 0 0 0-.13-.31.52.52 0 0 0-.37-.14.87.87 0 0 0-.55.22c-.17.14-.35.33-.54.59V27.02l-.04-.02c-.37.16-.75.29-1.12.41l-.22.07v.14a1.7 1.7 0 0 1 .27-.03c.14 0 .24.06.3.18.05.12.08.32.08.6v1.9c0 .24-.05.38-.13.45Zm-1.93-2.08c-.37.1-.67.22-.92.35-.46.24-.69.52-.69.83 0 .4.32.68.7.68.22 0 .42-.05.62-.16.2-.1.29-.23.29-.39v-1.31Zm-2.47 1.47c0-.95 1.3-1.33 2.14-1.58l.33-.1v-.35c0-.29-.03-.48-.1-.6-.1-.18-.33-.27-.68-.27-.24 0-.6.1-.6.41l.02.16c.02.06.03.1.03.16 0 .25-.17.38-.42.38-.3 0-.45-.2-.45-.4 0-.19.14-.39.41-.6.28-.21.6-.32 1.14-.32.91 0 1.45.46 1.45 1.36v1.66c0 .16.01.28.04.34.04.1.13.16.26.16a.5.5 0 0 0 .18-.03l.25-.14v.21c-.1.11-.21.21-.33.28-.18.1-.36.16-.55.16-.22 0-.38-.06-.48-.18a.8.8 0 0 1-.16-.45c-.24.18-.45.32-.62.4-.3.16-.57.23-.84.23-.5 0-1.02-.34-1.02-.89Zm13.49.6c-.07.08-.22.14-.44.17V31h1.78v-.12c-.23-.03-.38-.1-.45-.17-.07-.08-.11-.28-.11-.6v-2.08c0-.28.52-.55.74-.55.52 0 .56.5.56.93v1.7c0 .31-.03.51-.1.6-.07.08-.22.14-.46.17V31h1.97v-.12c-.2-.03-.54-.09-.61-.18-.07-.1-.1-.29-.1-.6v-1.7c0-.68-.17-1.4-.96-1.4-.47 0-.67.25-.92.57l-.12.14V25l-.98.3-.23.08v.15a1.8 1.8 0 0 1 .18-.02c.16 0 .25.04.3.12.03.07.05.19.05.35v4.13c0 .31-.03.51-.1.6Zm-17.44.17c.22-.03.37-.09.44-.17.07-.09.1-.29.1-.6v-4.13a.77.77 0 0 0-.06-.35c-.04-.08-.13-.12-.29-.12l-.09.01-.09.01v-.15l.23-.07L20 25l.01.03v2.68l.12-.14c.25-.32.45-.57.92-.57.8 0 .96.72.96 1.4v1.7c0 .31.03.5.1.6.07.1.4.15.6.18V31h-1.96v-.12c.24-.03.4-.1.46-.18.07-.08.1-.28.1-.6v-1.69c0-.44-.04-.93-.56-.93-.22 0-.74.27-.74.55v2.08c0 .32.04.52.1.6.08.08.23.14.46.17V31h-1.78v-.12Zm-2.67-1.27h-.1v1.34h.08a.23.23 0 0 1 .05-.08c.02-.02.04-.04.07-.04l.3.09c.16.05.3.08.44.08.31 0 .57-.1.76-.31.2-.2.29-.48.29-.8 0-.43-.23-.8-.7-1.12l-.43-.3c-.3-.2-.46-.42-.46-.68 0-.16.05-.3.14-.42.08-.12.2-.17.36-.17.25 0 .45.13.58.41.08.15.14.36.18.63h.1l-.02-1.16h-.08a.17.17 0 0 1-.04.07l-.09.02-.24-.09a1.03 1.03 0 0 0-.38-.08c-.26 0-.48.1-.66.3-.17.2-.26.45-.26.76 0 .25.06.47.2.66.12.18.32.37.58.55l.37.27c.14.1.24.2.3.31.05.1.07.22.07.34 0 .18-.04.33-.14.44a.48.48 0 0 1-.39.18c-.3 0-.52-.16-.67-.47a2.56 2.56 0 0 1-.2-.73Zm-4.73 1.27c.25-.02.42-.07.5-.14.08-.07.12-.23.12-.46v-4.32c0-.2-.03-.33-.1-.39-.06-.05-.15-.08-.27-.08a1.67 1.67 0 0 0-.25.02v-.12l.36-.1a10.43 10.43 0 0 0 .88-.29l.03.01v3.67l1.1-1.09a.98.98 0 0 0 .15-.19.24.24 0 0 0 .05-.12c0-.06-.03-.1-.1-.12a1.59 1.59 0 0 0-.3-.04V27h1.63v.12c-.3.02-.53.09-.7.2-.17.1-.48.4-.94.86l-.1.1-.22.23.72 1.03c.37.53.65.88.84 1.06.2.17.4.27.6.29V31h-1.74v-.12h.13l.13-.04a.09.09 0 0 0 .05-.09c0-.03 0-.06-.02-.08a.64.64 0 0 0-.05-.1l-1.22-1.75v1.59c0 .2.07.33.2.4a1 1 0 0 0 .4.06V31h-1.88v-.12Zm-3.64-4.62 1 2.38H6.76l1-2.38ZM5 30.84V31h1.72v-.16c-.2-.02-.34-.04-.41-.08-.12-.06-.18-.16-.18-.31 0-.08.02-.18.06-.3l.04-.11c.06-.2.19-.57.37-1.04h2.27l.36.93a2.55 2.55 0 0 1 .16.58c0 .13-.03.21-.1.25a2 2 0 0 1-.5.08V31H11v-.16a.83.83 0 0 1-.44-.16c-.08-.08-.2-.3-.34-.63L8.06 25h-.17l-1.81 4.37a7.14 7.14 0 0 1-.58 1.2.69.69 0 0 1-.5.27Z" fill="#F05C36"/></svg>