<svg width="56" height="56" viewBox="0 0 56 56" xmlns="http://www.w3.org/2000/svg"><path fill="#F0F3FA" d="M0 0h56v56H0z"/><path d="M31.68 19c-1.04 0-3.15 1.82-3.74 2.44a20.47 20.47 0 0 0-4.51 7.36c-.42 1.19-.82 2.61-1.2 4.27-.33 1.39-.86 2.65-2.15 3.41-.79.47-1.56.62-2.3.45-.95-.21-1.53-.9-1.76-2.04-.14-.74.37-2 .8-2.8A75.54 75.54 0 0 1 21 25.22c3.32-4.8 7.42-8.14 12.88-10.03a3.3 3.3 0 0 1 1.47-.17c.51.04.66.53.65.98a9.24 9.24 0 0 1-1.1 3.73 58.64 58.64 0 0 0-3.25 7.37 9.32 9.32 0 0 0-.44 2.5c-.05.77.3 1.22 1.03 1.36 1.51.29 3.64-2.26 4.44-3.21a195 195 0 0 1 2.11-2.47 3.99 3.99 0 0 1 1.67-1.24c.09-.03.17-.04.24-.04.17 0 .26.1.3.29 0 .06 0 .12-.02.17-.99 2.3-2.18 4.4-3.56 6.23-1.84 2.43-4.7 5.3-7.92 5.31a5.8 5.8 0 0 1-1.94-.33c-2.1-.72-2-3.07-1.46-4.88a24.53 24.53 0 0 1 1.88-4.54c.94-1.77 2.3-3.82 3.8-6.14.08-.13.22-.47.22-.74 0-.2-.08-.37-.32-.37Z" fill="#FF001B"/><path d="M12.13 30.19c-.1 1.31.7 2.88 1.6 3.78l1.25 1.23c.05.05.08.12.07.2 0 .07-.04.13-.1.17-.49.35-.9.58-1.49.32-3.56-1.6-6.81-4.63-4.89-8.8a10.13 10.13 0 0 1 2.07-2.9 18.87 18.87 0 0 1 9.1-4.87c1.29-.29 2.55-.38 3.79-.28.6.05.63.2.08.47a43.1 43.1 0 0 0-7.18 4.4c-1.08.82-2.06 1.79-2.94 2.9a6.09 6.09 0 0 0-1.36 3.38ZM43.04 30.07c2.07-5.19-2.78-8.62-6.89-10.18-.27-.1-.3-.26-.11-.48.57-.64 2.26-.4 2.92-.15 2 .77 3.86 1.85 5.59 3.25.88.72 1.65 1.6 2.31 2.65a6.93 6.93 0 0 1 1.12 4.32c-.26 3.42-3.16 6.24-6.17 7.8A25.14 25.14 0 0 1 30.23 40c-3.47.03-6.84-.44-10.1-1.41a.2.2 0 0 1-.13-.18c0-.08.06-.33.18-.3 3.71.83 7.4.84 11.08 0 3.2-.71 6.07-2.06 8.63-4.04a10.9 10.9 0 0 0 3.15-4Z" fill="#0006F8"/></svg>