<svg width="56" height="56" xmlns="http://www.w3.org/2000/svg"><path fill="#1634A6" d="M0 0h56v56H0z"/><path fill-rule="evenodd" d="M49 21H7a2 2 0 00-2 2v10a2 2 0 002 2h42a2 2 0 002-2V23a2 2 0 00-2-2zM7 20a3 3 0 00-3 3v10a3 3 0 003 3h42a3 3 0 003-3V23a3 3 0 00-3-3H7z" fill="#fff"/><path d="M7 25a2 2 0 012-2h38a2 2 0 012 2v5.998a2 2 0 01-2 2H9a2 2 0 01-2-2V25z" fill="#fff"/><path d="M9.232 31h.613l2.611-7h.773l2.798 7h.613v1h-3.65v-1h1.092l-.666-1.59H11.63L11.07 31h.88v1H9.232v-1zm3.304-4.04l-.586 1.51h1.12l-.534-1.51z" fill="#1634A6"/><path d="M21 24h-4v1h1v6h-1v1h7v-2.591h-.796c-.212 1.075-.913 1.548-1.237 1.591H20v-6h1v-1zm23 0h-4v1h1v6h-1v1h7v-2.591h-.796c-.212 1.075-.913 1.548-1.237 1.591H43v-6h1v-1zm-15.877 0h-3.65v1h1.013v6h-1.013v1h3.65v-1h-.852v-2.358L29.296 31h-.853v1h3.41v-1h-.426l-2.984-3.672L30.83 25h1.025v-1h-3.41v1h.852l-2.025 2.095V25h.852v-1zm7.601 0h-3.43v1h.567L35 28.557V31h-.958v1H38v-1h-1v-2.676L39.216 25h.59v-1H37.42v1h.733l-1.701 2.625L34.845 25h.88v-1z" fill="#1634A6"/></svg>