<svg xmlns="http://www.w3.org/2000/svg" width="56" height="56"><path fill="url(#azgq1yy5s)" d="M0 0h56v56H0z"/><path fill-rule="evenodd" d="M4.38 26.6c-.01-.88.6-2.63 3.12-2.6 2.53.03 2.59 1.56 2.59 2.6v4.04c0 .25.18.69.91.45v.67c-.46.07-1.4.03-1.54-.67v-.63A3.28 3.28 0 016.63 32c-2.06.04-2.67-1.34-2.63-2.2.04-.84.5-1.94 2.44-2.24l.65-.04c1.4-.08 2.37-.14 2.37-1.35 0-1.26-1.3-1.58-1.96-1.58-.74-.06-2.27.26-2.43 2h-.69zm5.04 1.03v1.62a2.75 2.75 0 01-2.63 2.17c-1.79.1-2.17-1.14-2.14-1.77.02-.46.48-1.41 2.14-1.57l.86-.08c1.12-.1 1.45-.13 1.77-.37zm15.96-1.03c-.01-.88.6-2.63 3.12-2.6 2.53.03 2.59 1.56 2.59 2.6v4.04c0 .25.18.69.91.45v.67c-.46.07-1.4.03-1.54-.67v-.63A3.28 3.28 0 0127.63 32c-2.06.04-2.67-1.34-2.63-2.2.04-.84.5-1.94 2.44-2.24l.65-.04c1.4-.08 2.37-.14 2.37-1.35 0-1.26-1.3-1.58-1.96-1.58-.74-.06-2.27.26-2.43 2h-.69zm5.04 1.03v1.62a2.75 2.75 0 01-2.63 2.17c-1.79.1-2.17-1.14-2.14-1.77.02-.46.48-1.41 2.14-1.57l.86-.08c1.12-.1 1.45-.13 1.77-.37z" fill="#fff"/><path fill="#fff" d="M12 21h.73v11H12zm1.63 0h.73v11h-.73zM17 27.53a3.53 3.53 0 016.92-.97h-.69a2.87 2.87 0 00-5.61.86v1.15a2.87 2.87 0 005.71.43h.68a3.53 3.53 0 01-7.01-.53v-.94zM33.37 24h-.68v8h.68v-4.89c.42-2.13 2.13-2.5 2.93-2.4V24a3.52 3.52 0 00-2.93 1.6V24zm6.82 8a4 4 0 003.9-4.86 10.58 10.58 0 01-.75 2.06 3.37 3.37 0 11-.67-3.48l-.63.65h1.59v-1.62l-.52.52A3.99 3.99 0 0036.2 28a4 4 0 004 4z"/><path d="M48 32a4 4 0 10-3.9-3.14c.13-.38.48-1.41.68-1.88a3.37 3.37 0 11.74 3.31l.61-.62h-1.56v1.6l.51-.53A3.99 3.99 0 0048 32z" fill="#FC1E34"/><path d="M44 32.54V30l-.67.85c.01.44.02 1.4 0 1.7-.02.37-.28 2.73-3.27 2.81-2.4.07-3.25-1.32-3.37-2.02H36c.05.94 1.05 2.66 4.06 2.66S44 33.64 44 32.54z" fill="#fff"/><defs><linearGradient id="azgq1yy5s" x1="10.42" y1="9.71" x2="68.15" y2="76.02" gradientUnits="userSpaceOnUse"><stop stop-color="#1A1E21"/><stop offset="1" stop-color="#06060A"/></linearGradient></defs></svg>