<svg width="56" height="56" viewBox="0 0 56 56" xmlns="http://www.w3.org/2000/svg"><path fill="#F0F3FA" d="M0 0h56v56H0z"/><path d="M26.2 20.3c-.62.89-1.06 1.75-2.43 1.49a.2.2 0 0 1-.08-.36l1.12-.74a.1.1 0 0 1 .05-.02c.41-.03.58-.12.51-.29.28.05.56.02.83-.09ZM34.35 22.57l-.8.07c-.18.01-.21-.37-.25-.47-.01-.11-.23-.33-.26-.11-.04.3-.24.38-.6.26a.23.23 0 0 1-.05-.42c.07-.04.16-.13.27-.26.15-.17 0-.43-.24-.42-.17 0-.36.12-.55.33-.68.23-1.3.62-1.84 1.15a.7.7 0 0 1-.32.14c-.1.02-.11 0-.05-.07s.08-.14.06-.21c-.01-.07-.06-.1-.14-.1-1.03.12-2.75.7.08-.56.06-.03.1-.07.14-.11.19-.24.42-.4.7-.5.34.05.61-.02.83-.21.48-.04 1.3.06 1.71-.19.19-.1.38-.25.59-.43.06-.05.1-.05.15 0l.02.04v.03l-.22.46a.74.74 0 0 0-.1.36c0 .39.15.56.6.59a.3.3 0 0 1 .18.07c.18.16.2.35.09.56Z" fill="#329AD8"/><path d="m31.87 21.55-.3.76c-.12.3.63.33.72.62.02.06.06.1.13.1 1.03.15.71-.36 1.93-.46-.12.5-.33.9-.62 1.2-.26.28-.62.38-1.08.31-.08-.01-.12.02-.13.1l-.01.25c0 .06-.04.11-.09.16-.22.21-.6.37-.83.63-.29.32-.48.53-.6.63-.07.08.27-.53.25-.89 0-.14-.22-.08-.3-.04a.73.73 0 0 1-.25.09c-.1 0-.13-.03-.1-.11.09-.2.24-.37.48-.5.07-.04.12-.03.17.03.24.32.44.08.76-.09.05-.03-.64-.1-.86-.2l-.17-.1a2.33 2.33 0 0 0-1.4.04c-.16.06-.38-.18-.2-.27.65-.32.38-.75-.3-.39-.06.04-.12.02-.15-.04-.14-.27-.29-.38-.44-.32.29-.35.65-.54 1.1-.6.08 0 .13.03.14.1.02.07 0 .14-.06.2-.06.08-.05.1.05.08a.7.7 0 0 0 .32-.14 4.94 4.94 0 0 1 1.84-1.15ZM22.08 24.82c-.02.12-.12.18-.3.19-.21-.02-.35-.07-.43-.16-.06-.07-.06-.2 0-.36.18-.46.22-.94.11-1.44.05-.16.1-.21.13-.16.09.16.25.22.5.16a.26.26 0 0 0 .15-.1c.14-.21.34-.28.59-.21.06.01.11.05.15.1.11.2.44.63.48.8l.25 1c.04.16-.19.18-.3.2-.32.07-.16-.38-.41-.38h-.6a.17.17 0 0 0-.14.08l-.18.28Z" fill="#78C7F2"/><path d="m26.7 24.73.05.04c-.06.39-.32.44-.55.68-.04.04-.05.07-.03.09.04.05.1.1.17.11.06.03.12.03.18 0a4 4 0 0 1 1.45-.19c.12.04.26.17.43.39l-.99.42c-.07.03-.02.11 0 .17-.02 0 0 .01 0 0l1.36-.07-.04.4c-2.05.5-1.78-.35-1.49.5.02.05.06.1.1.13.05.03.11.05.17.05l1.1-.04-.13.54c-.57.15-.97.28-1.18.38-.66.3-.62.42.1.35.21-.02.53-.07.96-.16a.72.72 0 0 0 .02.51c-.18.02-.36.06-.55.14-.39.16-.59.54-.94.78-.25.17-.22.26.1.28l.97.06c.26.01.3.1.1.26a.96.96 0 0 1-.35.16.22.22 0 0 0-.15.12.31.31 0 0 0 0 .27c.02.06.06.1.13.1l.62.04c.03.25.27.35.71.3.05.06.41 1.46.44 1.5 1.88 2.58 3.06 4.27 4.2 6 .12.17.04.4-.17.49-.81.3-1.48.68-1.99 1.15-.17.16-.14.2.09.12.67-.25 1.32-.57 1.93-.96.36-.22.78-.35 1.13-.33.1 0 .18.1.13.2-.1.23-.3.4-.57.53-.74.31-1.37.64-1.88.99-.3.2-.26.31.1.33.11 0 .3-.05.54-.16a23.8 23.8 0 0 1 2.22-.9.28.28 0 0 1 .13-.01c.12.01.22.12.22.24 0 .22-.1.4-.33.53-.7.46-1.25.68-1.8 1.12-.67.52-1.53 1.04-2.25 1.5-3.45 2.17-5.99 5.03-8.45 8.08-.04.05-.09.05-.14.02l-.05-.03a.18.18 0 0 1-.08-.11c0-.05 0-.1.02-.14.91-1.42 2.09-2.66 3.24-3.9 1.95-2.1 4.3-3.8 6.7-5.38.29-.2.26-.3-.09-.32a.98.98 0 0 0-.34.13c-.42.22-.89.4-1.4.53-.38.09-.6.24-.9.42-.26.16-.34.1-.25-.17a90.78 90.78 0 0 0 1-.81c.06-.05.1-.12.12-.2a.32.32 0 0 0-.05-.23c-.02-.03-.1-.01-.23.05l-1.32.64c-.3.15-.39.08-.24-.22.07-.16.22-.37.4-.43.4-.15.87-.36.84-.72 0-.05-.08-.08-.12-.06-.31.19-.54.3-.69.31-.2.03-.35-.18-.23-.34.17-.22.4-.4.68-.57.2-.11.1-.57-.11-.39-.31.27-.67.44-1.09.53-.46.1-.65.25-1.08.55-.1.06-.17.05-.21-.05a.23.23 0 0 1-.02-.06c-.02-.12.02-.22.1-.29.45-.32.79-.79 1.3-1.01.15-.08.4-.3.75-.69.05-.06.04-.1-.04-.14a.24.24 0 0 0-.23.03 7.9 7.9 0 0 1-.91.52c-.3.13-.37.06-.21-.2.16-.28.44-.52.8-.72.1-.05.14-.31 0-.28-.38.1-.7.28-.98.55-.26.25-.48.42-.66.52-.34.18-.71.42-1.12.72-.14.1-.56-.03-.37-.2.16-.14.36-.1.56-.32.25-.27 1-.8 1.08-1.17.06-.22-.01-.27-.22-.14-.62.38-1.19.8-1.7 1.27-.32.3-.94.81-1.36 1-.2.08-.74.26-.9.65-.03.08-.11.02-.11-.04.03-.57.09-.96.17-1.2l1.07-2.99c.15-.42.23-.87.33-1.3.1.1.24.12.44.07a18.7 18.7 0 0 0 1.57-1.17h-.4c-.3 0-.35-.1-.16-.3.48-.53.06-1.09 0-1.6l-.13-1.19c.31-.08.62-.18.93-.3.24-.1.42-.24.54-.43a.1.1 0 0 0 .01-.1.12.12 0 0 0-.1-.07c-.49-.04-1 0-1.52.11.13-.16.14-.27 0-.32.57-.34 1-.73 1.29-1.16.03-.05.01-.08-.05-.07-.35.03-.6.15-.76.34-.2.25-.32.22-.37-.08-.15-.87-.26-1.78-.34-2.75-.01-.23-.16-.41-.17-.62 0-.1.04-.21.12-.29.44-.4.9-.7 1.38-.92Z" fill="#F21463"/><path d="M22.08 24.82c.32.46.13.77-.57.94a.24.24 0 0 1-.18-.02c-.1-.06-.2-.25-.04-.3.3-.08.45-.23.49-.43.18 0 .28-.07.3-.2ZM22.69 25.29c-.02-.1.02-.18.1-.24l.1-.05c.07-.05.11-.03.12.05l.06 1.05c0 .2-.1.35-.33.43-.46.18-.78.4-.97.66-.23.32-.39.3-.47-.05v-.31c-.01-.3.08-.52.26-.66a.35.35 0 0 1 .18-.07c.4-.05 1.11.69.95-.81Z" fill="#329AD8"/><path d="M34.3 26.46c-.22.03-.36-.05-.41-.25a.2.2 0 0 0-.05-.1.23.23 0 0 0-.31-.01l-1.3 1.06c-.3-.3-.34-.57-.14-.83.2-.27.54-.53 1-.8a.23.23 0 0 0 .1-.1l.15-.34a.15.15 0 0 1 .06-.06.17.17 0 0 1 .08-.03h.5c.08 0 .13.04.14.12l.19 1.34Z" fill="#007CEA"/><path d="M34.3 26.46c-.58.33-.62.53.27.74.07.01.11.05.13.12.06.18-.22.39-.24.2a.4.4 0 0 0-.06-.18c-.05-.06-.1-.08-.18-.06-.26.06-.44.18-.54.37-.03.06-.02.1.06.12.15.04.24.05.27.05.36-.08.41 0 .18.26-.2.22-.54.27-1 .16-.07.1-.15.04-.23-.2.16-.33.4-.64.7-.95.03-.04.05-.08.04-.1-.06-.44-.78.65-1 .6a.15.15 0 0 1-.06-.02 1.06 1.06 0 0 1-.42-.41l1.3-1.06c.13-.1.33-.04.37.1.05.21.19.3.42.26Z" fill="#329AD8"/><path d="m23.16 27.72-.55.87a.28.28 0 0 1-.15.12c-.26.1-.5.22-.7.4-.1.07-.28-.13-.14-.2.15-.07.28-.2.38-.36.23-.33-.43-.3-.57-.35-.13-.06-.18-.15-.16-.26l.05-.08c.13-.13.37-.09.51-.23l.52-.5a.41.41 0 0 1 .18-.1c.28-.05.49-.19.63-.4l.03-.02c.2-.11.61.56.7.67.04.04.04.08-.02.1-.24.14-.55.08-.71.34Z" fill="#007CEA"/><path d="M32.96 28.03c.08.25.16.32.24.21l-.53.56a.16.16 0 0 0-.03.17c.1.33.1.65-.03.97-.1.25-.5.44-.5.71 0 .33-.08.64-.23.91-.13.25-.43.44-.66.65-.13.12-.04.26.08.34.09.06.16.04.22-.04.32-.48.62-.8.88-.97l.87-.6a.2.2 0 0 1 .18-.04c.23.07.74-.1.88.05.08.08.16.15.27.19l-.18.03c-.07 0-.12.04-.13.1-.06.26-.26.4-.61.43.02-.14-.02-.23-.13-.28-.08-.03-.17-.03-.28 0-.43.14-.8.38-1.11.75-.21.24-.25.45-.1.63-.02.03-.05.03-.1 0a.14.14 0 0 1-.08-.12c0-.06-.01-.1-.03-.15-.03-.09-.08-.1-.15-.03-.22.22-.24.44-.05.64.05.04.06.1.03.15a.6.6 0 0 1-.31.29l-.02-.27a.18.18 0 0 0-.08-.15c-.5-.33-.5-1.03-.68-1.53a.46.46 0 0 0-.34-.31c-.47-.12.73-.84.76-.86.16-.1.38-.37.2-.53l-.24-.2 1.44-1.51c.2-.03.62.48.55-.19Z" fill="#78C7F2"/><path d="m34.2 28.93-.58.22c-.17-.04-.27-.11-.3-.21a.23.23 0 0 1 0-.13.25.25 0 0 1 .08-.11.29.29 0 0 1 .12-.06h.15c.28.07.5.04.65-.1.3-.25.38-.2.25.16-.02.07-.15.15-.38.23ZM22.93 30.02l-1.1.5c-.26-1 .81-1.3 1.68-1.81l.05-.02c.19-.02.25.05.2.22-.14.43-.42.8-.83 1.11Z" fill="#329AD8"/><path d="M34.2 28.93c.1.45.24.9.43 1.33.06.15 0 .24-.17.26-.06.01-.1 0-.11-.07l-.01-.05c-.02-.08-.07-.12-.16-.12-.12 0-.34.03-.64.12-.2.06-.4.01-.57-.13a.17.17 0 0 1-.03-.23c.2-.27.46-.5.8-.68.06-.04.07-.08.03-.14-.03-.04-.08-.06-.15-.07l.57-.22ZM22.93 30.02c.08.3.03.52-.13.65l-.59.5c-.1.12.02.24.15.23-.18.14-.26.3-.22.48a.85.85 0 0 0-.5-.52c-.08-.02-.1-.07-.06-.13.16-.26.29-.35.25-.7l1.1-.5Z" fill="#78C7F2"/><path d="M22.14 31.88c-.04-.18.04-.34.22-.48.47-.1.77-.32.89-.68.06-.17.13-.18.22-.01.04.07.05.15.02.26-.04.18-.32.39-.44.5-.23.23-.18.32.16.28.27-.03.9-.46 1.12-.6.03-.02.05-.02.05.02v.08l-.02.02c-.29.14-.57.36-.83.65-.15.17-.38.16-.69 0a.1.1 0 0 0-.12 0l-.37.36c-.04.03-.06.02-.08-.02l-.13-.38Z" fill="#329AD8"/><path d="M34.6 31.14c.16.04.23.11.22.2a2.89 2.89 0 0 1-1.1 1.77c-.15.12-1.08.35-.76-.02.84-.96-.26 0-.63.18-.26.11-.55.3-.86.53-.16.12-.19-.13-.1-.22a.6.6 0 0 0 .31-.29c.03-.05.02-.1-.03-.15-.19-.2-.17-.42.05-.64.07-.07.12-.06.15.03.02.04.03.1.03.15 0 .05.02.1.07.12.06.03.09.03.1 0l1.63-1.1c.35-.02.55-.17.6-.42.02-.07.07-.1.14-.11l.18-.03Z" fill="#007CEA"/><path d="M22.66 32.93c-.19.14-.34.23-.44.27-.28.1-.49.13-.62.07-.32-.14-.3-.25.04-.34.25-.06.46-.22.62-.46.04-.05.1-.07.16-.05.48.16.91.17 1.3.03.13-.04.16 0 .1.1-.2.28-.51.39-.96.33-.07 0-.14.01-.2.05Z" fill="#329AD8"/><path fill-rule="evenodd" d="M26.2 20.3c-.27.1-.55.13-.83.08-.65-.1-1.85-.19-2.33.34a.32.32 0 0 0-.08.2l-.04.38-.05.57c-.03.36-.04.46-.08.47-.02.01-.04 0-.07 0-.04 0-.08-.02-.15-.01-.24.02-1.4.45-1.56.63a.28.28 0 0 0-.08.19l-.25 10.14c0 .2-.11.4-.3.52l-1.13.65c-.16.11-.25.07-.25-.12 0-2.92 0-5.36.02-7.29a949.65 949.65 0 0 0 0-9.1c0-.35.06-.81.17-1.37.7-3.69 3.58-5.8 7.32-6.62.16-.04.27-.2.23-.34l-.23-1.48c-.02-.07.05-.14.12-.14h2.43c.04 0 .07.03.07.07l-.3 1.68c-.01.03 0 .07.03.1.02.03.06.05.1.06a9.38 9.38 0 0 1 7.9 6c.07.18.12.55.13 1.1v17.31c0 .1-.04.13-.13.07l-1.21-.78a.65.65 0 0 1-.3-.51c-.09-1.91-.1-3.82-.12-5.73-.01-2.3-.03-4.6-.17-6.89 0-.17-.1-.25-.29-.24h-1.08c-1.27-.04-2.91-.08-3.62.5-.18.15-.38.26-.57.36-.28.16-.55.3-.77.57-.21.26-.28.23-.2-.09.13-.55.46-.9.99-1.06.29-.1.28-.15-.02-.18a17.96 17.96 0 0 0-3.3-.05Zm6.78-6.86c-.68.83-1.34 1.56-1.97 2.18-.24.23-.51.45-.8.36a2.3 2.3 0 0 1-1.14-.74.29.29 0 0 1-.07-.2V11.2c0-.12.1-.21.2-.18a7.72 7.72 0 0 1 3.8 2.38c0 .02 0 .03-.02.05Zm2.24 5-.85-3.14a.38.38 0 0 0-.1-.17.51.51 0 0 0-.64-.04l-2.47 1.83a.4.4 0 0 0-.12.14.35.35 0 0 0-.04.17l.03 1.38c0 .16.11.3.29.36.05.02.11.03.17.03l3.3-.07c.28 0 .5-.25.43-.49Zm-12.2-5c.68.83 1.34 1.56 1.97 2.18.24.23.51.45.8.36a2.3 2.3 0 0 0 1.14-.74.29.29 0 0 0 .07-.2V11.2c0-.03 0-.06-.02-.08-.03-.08-.1-.13-.18-.1a7.72 7.72 0 0 0-3.8 2.38c0 .02 0 .03.02.05Zm-2 5 .8-3.14c.07-.28.45-.4.7-.2l2.33 1.82c.1.07.15.19.15.3l-.02 1.39c0 .22-.2.4-.45.39l-3.1-.07c-.28 0-.48-.25-.42-.49Z" fill="#007CEA"/><path fill-rule="evenodd" d="m32.41 28.22-1.44 1.5a5.6 5.6 0 0 1-1.5 1.14c-.06.03-.1.02-.12-.04-.03-.08-.11-.12-.25-.1-.07 0-.11.04-.13.1-.07.21-.05.45.05.71-.44.06-.68-.04-.7-.3l.06-2.2a.72.72 0 0 1-.02-.51l.12-.57c.13-.56.24-1.01.29-1.58.06-.17-.06-.35-.37-.52a1.23 1.23 0 0 0-.43-.39 9.18 9.18 0 0 0-2.14-1.41c-.35-.13-.57-.3-.8-.48l-.1-.07c-.07-.05-.2 0-.2.08-.07.96-.03 1.89.1 2.77l.18 1.14c.14.83.27 1.66.37 2.5.04.3.11.4.22.3.14.04.13.15 0 .31-.03.24.02.5.14.8l.13 1.19c.02.21-.09.39-.2.56-.08.12-.16.24-.2.38l-.61 2.12c-.2.05-.35.03-.44-.08l.82-2.2a5.13 5.13 0 0 0-.06-3.05c-.2-.76-.3-1.21-.33-1.35a6.24 6.24 0 0 0-.2-.85 5.52 5.52 0 0 1-.2-.96 41.5 41.5 0 0 1-.15-4.18c0-.04.04-.08.08-.08.31-.02.58.04.82.26.53.47 1.25.86 2.01 1.16.05.02.07 0 .07-.04l-.08-1.33c0-.12.03-.24.11-.33.32-.4.44-.82.35-1.28a.37.37 0 0 0-.16-.24.42.42 0 0 0-.3-.06c-.27.04-.45.21-.53.5a.22.22 0 0 0 .02.19l.18.32c.12.22.07.26-.14.11-.34-.23-.41-.6-.23-1.08.13-.32.35-.57.74-.5 1.12.22.82 1.4.32 2a.26.26 0 0 0-.06.17v1.7c0 .05.01.11.05.17.03.05.08.1.13.12.4.22.75.48 1.1.75.3.22.6.45.93.65.78.48 1.34.84 1.69 1.07.35.25.69.58 1.01 1Zm-1.47.13-1.6-1.48c-.05-.05-.05-.1-.02-.16l.04-.06a.13.13 0 0 1 .04-.04.14.14 0 0 1 .16.01c.23.17.5.33.82.48.55.25.9.57 1.35.97l.21.2.03.03a.09.09 0 0 1 0 .07 11.06 11.06 0 0 1-2.15 1.96c-.38.28-.44.23-.18-.15l.27-.45c.2-.37.59-.65.97-.89a.33.33 0 0 0 .1-.1.3.3 0 0 0-.04-.39Zm-.38-.04-.37-.17a1 1 0 0 1-.28-.28c-.14-.17-.3-.3-.5-.4-.14-.07-.23-.07-.3-.02a.52.52 0 0 0-.13.14.3.3 0 0 0-.05.14l-.06 2.02c-.02.73.17.78.57.16.33-.5.72-.9 1.18-1.18a.2.2 0 0 0 .07-.09c.02-.03.03-.07.02-.11a.25.25 0 0 0-.05-.12.3.3 0 0 0-.1-.09Z"/></svg>