<svg xmlns="http://www.w3.org/2000/svg" width="56" height="56" viewBox="0 0 56 56"><path fill="#F0F3FA" d="M0 0h56v56H0z"/><path fill-rule="evenodd" d="M24.15 11.93c1.43-.39 2.4-1.96 2.71-2.7a9.62 9.62 0 0 1-3.32 2.22 25.9 25.9 0 0 0-4.1 1.95c-.3-.02-.64.19-1.08.44l-.43.24c-.52.29-.7.17-.74.07-1-.82-1.5-.03-2.06.87l-.04.06c-.47.75-.37.89-.27.86 1.63-1.52 1.25-.63.85 0l-2.89 3.32a2 2 0 0 0-1.46 1.17c-.23.28-.6.82-.24.76.45-.08.6.31.24 1.3-.3.8-.28 1.6-.24 1.9-.74 1.2-.37 2.24-.09 2.61-.82.6-.43 2.03-.13 2.67-.42 1.05.12 2.26.45 2.73-.29 1.29.47 2.32.88 2.67.05 1.14.95 1.94 1.4 2.2-.03 1.21 1.2 1.95 1.82 2.17.11.9 1.23 1.51 1.77 1.7.58.92 1.81 1.3 2.35 1.37a4 4 0 0 0 2.67 1.42c.9.77 2.18.6 2.7.42 0 .09.25.25.37.32-.36.22-.56.66-.56.8 1.42.57 2.62-.34 3.04-.86.08.24.52.36.73.4.39.42 1.28 1.22 1.73.93.45-.3-.02-.96-.31-1.27l.96-.21c1.28.28 2.1-.24 2.34-.53 1.77.03 2.62-.82 2.82-1.24 1.23-.15 1.86-.81 2.01-1.13a3.06 3.06 0 0 0 2.09-1.8 3.53 3.53 0 0 0 1.86-2.25 3.08 3.08 0 0 0 1.45-2.42 3.21 3.21 0 0 0 1.23-2.63c.72-.98.72-2.32.64-2.87.36-.94.15-2.03 0-2.45.3-1.08-.13-2.3-.38-2.78a4.7 4.7 0 0 0-.58-2.34c-.23-.51-.41-.91-.3-1.11.22-.37.68.05.88.31.01-1.57-1.18-1.98-1.78-2l-1.61-1.96c-.63-.6-1.82-1.82-1.5-1.96.33-.15 1.19.47 1.57.8-.35-.53-1.2-1.71-1.8-2.2-.62-.47-1.15 0-1.34.3-1.8-2.2-5.21-3.04-6.7-3.2a8.1 8.1 0 0 1-3.4-2c.35 1.4 2.45 2.4 3.46 2.72a6.4 6.4 0 0 1-1.27.79c.47.17 1.53.02 2-.07l2.33.87.76.76c.02.14.23.51.84.9.6.39 1.25.45 1.5.43l1.56 1.66.4.74c.38.66 1.12 1.86 1.03 1.42-.1-.43-.04-.7 0-.77.46.49 1.4 1.66 1.5 2.46.1.8.8 1.75 1.15 2.13-.03.5.27 1.39.43 1.77-.23.95.16 1.94.39 2.33-.47.8-.31 1.97-.17 2.45-.51.8-.55 2.13-.5 2.7-.75.7-1 1.99-1.03 2.54a5 5 0 0 0-1.47 2.23c-.73.28-1.44 1.4-1.7 1.93-.54-.01-1.6 1.1-2.07 1.65-.86.06-1.83.92-2.2 1.34-.8-.03-2 .63-2.5.96-.81-.13-1.63.45-1.94.75-.24-.22-.7-.05-.9.06-.36-.37-.9-.13-1.12.04-.56-.4-1.03-.17-1.19 0-.31-.35-.9-.14-1.17 0-.37-.42-1.2-.3-1.57-.18a2.83 2.83 0 0 0-2.24-.71c-.69-.82-2-1.05-2.56-1.07-.73-1-2-1.4-2.53-1.47-.22-.66-1.13-1.28-1.55-1.5a5.03 5.03 0 0 0-1.7-2c-.1-.86-.94-1.83-1.35-2.21.03-.08.03-.44-.28-1.26-.3-.81-.63-1.07-.76-1.1.1 0 .25-.25.17-1.2-.09-.93-.49-1.32-.7-1.41.1.02.3-.17.37-1.12.07-1.03-.17-1.47-.3-1.56.12-.1.38-.48.47-1.16.1-.68-.14-1.13-.27-1.27l1.67-4.14c.28-.6.94-1.87 1.39-2.14.44-.26.18.54 0 .97 1.08-.96 1.07-1.65.93-1.88.4-.27.83-.8 1.31-1.4l.76-.9c.64-.72 1.16-.96 1.35-1 .25.33.1.69 0 .82-.2-.23-.69-.15-.66.18.02.27.2.38.3.4.76-.13 1-.94 1.01-1.33 2.56-1.44 4.44-1.7 5.07-1.64-.42-.47-.6-.58-.66-.58zm-7.99 2.37c.3-.05.92-.05.98.34.07.39-1.58 2.2-2.41 3.06.7-.86 2.01-2.65 1.76-2.9-.26-.25-.33-.44-.33-.5zm23.77.5c-.2-.27-.7-.67-1.08-.06-.38.61 1.07 1.97 1.85 2.57-.75-.84-1.96-2.51-.77-2.51zM11.39 24.94c-.24.2-.65.77-.3 1.47.45.88.76-1.47.3-1.47zm-.17 2.56c-.23.2-.61.8-.23 1.48.48.86.69-1.5.23-1.48zm.05 2.63c-.18.26-.4.93.15 1.5.68.7.29-1.64-.15-1.5zm.48 2.7c-.12.3-.22.99.42 1.45.8.57-.01-1.66-.42-1.45zm1 2.42c-.07.31 0 1.01.71 1.32.9.38-.37-1.62-.72-1.32zm1.48 2.15c-.06.31 0 1.01.72 1.32.9.38-.38-1.61-.72-1.32zm1.73 1.96c0 .32.17 1 .94 1.17.95.23-.64-1.52-.94-1.17zm2.1 1.68c.07.3.41.91 1.2.89.97-.04-1.02-1.31-1.2-.9zm2.52 1.42c.1.3.5.88 1.27.77.97-.12-1.12-1.2-1.27-.77zm2.21.98c.16.27.67.75 1.41.49.92-.33-1.35-.95-1.4-.5zm2.1.56c.2.2.71.52 1.3.16.73-.44-1.32-.56-1.3-.16zm5.48.23c-.21.18-.77.42-1.3-.01-.67-.54 1.38-.38 1.3.01zm2.45-.79c-.17.32-.72.9-1.63.75-1.14-.2 1.5-1.22 1.63-.75zm2.48-.84c-.17.31-.72.9-1.63.75-1.14-.2 1.5-1.23 1.63-.75zm2.37-1.52c-.1.34-.52 1.04-1.44 1.07-1.15.05 1.23-1.51 1.44-1.07zm1.91-1.55c-.02.36-.29 1.12-1.18 1.35-1.12.29.88-1.73 1.18-1.35zm1.89-2.03c.03.35-.12 1.15-.97 1.51-1.06.46.61-1.85.97-1.51zm1.6-2.23c.03.36-.12 1.16-.97 1.52-1.06.45.62-1.85.97-1.52zm1.07-2.46c.1.34.12 1.15-.63 1.69-.95.66.21-1.94.63-1.7zm.58-2.73c.18.31.37 1.1-.25 1.79-.78.85-.2-1.94.25-1.79zm.16-2.7c.23.28.56 1.02.07 1.8-.62.99-.55-1.87-.07-1.8zm-.36-2.48c.28.2.8.84.52 1.73-.34 1.1-1-1.67-.52-1.73zm-.35-1.8c.28.13.76.58.46 1.23-.37.81-.94-1.18-.46-1.24zm-18.67 22c.34.06 1.17-.02 1.83-.76.83-.92-2.03.42-1.83.76zm4.5.36c-.34 0-1.15-.22-1.68-1.07-.65-1.06 1.93.76 1.68 1.07zM11.82 20.68c-.27-.04-.34.14-.34.24.82.09.45 1.84.17 2.7.52-1.14 1.47-3.5 1.03-3.74-.44-.24-.76.43-.86.8zm31.34-.42c.63-.63.9-.12.96.21-.93-.22-.76 1.21-.56 1.96-.4-.47-1.03-1.55-.4-2.17zm-.8 7.74a14.36 14.36 0 1 1-28.72 0 14.36 14.36 0 0 1 28.72 0zm.64 0a15 15 0 1 1-30 0 15 15 0 0 1 30 0zm-6.64 0a8.36 8.36 0 1 1-16.72 0 8.36 8.36 0 0 1 16.72 0zm.64 0a9 9 0 1 1-18 0 9 9 0 0 1 18 0zm-9 7.56c4.12 0 7.47-3.4 7.47-7.59 0-4.19-3.35-7.59-7.47-7.59a7.53 7.53 0 0 0-7.47 7.6c0 4.19 3.35 7.58 7.47 7.58zm-7-7.59c0-3.58 2.6-6.55 6-7.04v14.09c-.28-.04-.56-.1-.83-.18H26V28.5h-4.05a6.2 6.2 0 0 0 1.55 3.61l-.69.64A7.16 7.16 0 0 1 21 27.97zm8-.47V20.93a7.03 7.03 0 0 1 5.47 4.32l-.79.56A6.13 6.13 0 0 0 30 22.15v5.35H34.98l.02.47c0 3.59-2.6 6.55-6 7.05v-2.54l1-.8v2.12a6.16 6.16 0 0 0 4.04-5.3H29v-1zm-3-5.35a6.16 6.16 0 0 0-4.05 5.35H26v-5.35zm-.7-7.47l.07 3.72.56-.09-.03-.73.64-.19.27.68.54-.07-1.54-3.41-.51.09zm1 2.11l-.43.13-.06-1.33.49 1.2zm2.39.49l.4-.13c.07.24.3.74.7.74.52 0 .5-.64.17-.92-.32-.29-1.12-1.1-.64-1.82.47-.72 1.22-.64 1.7.18l-.22.54c-.16-.36-.59-.98-1.08-.54-.1.12-.16.48.36.9.64.54.95 1.28.33 1.88-.62.6-1.35.3-1.72-.83zm2.62.92l1.25-3.02.49.3a24.1 24.1 0 0 0-1.18 2.72c-.15.38.42.49.54.25l1.42-2.56.49.27-1.56 2.71c-.16.16-.6.42-1.04.16-.44-.26-.45-.66-.4-.83zm-13.57.86c.46-.12 1-.02 1.57.45.57.46.8 1 .83 1.48.03.47-.13.88-.3 1.12l-.2.27-2.98-2.4.16-.25c.16-.25.47-.55.92-.67zm-.2.8l1.92 1.55c.04-.11.05-.24.05-.38-.02-.3-.16-.66-.6-1.02-.44-.36-.78-.39-1.01-.33a.92.92 0 0 0-.35.19zm1.27 3.38l-.28-.15-1.42.1 1.4.72-.3.57-2.87-1.5.29-.57.38.2 1.42-.09-1.5-.78.3-.57 2.87 1.5-.3.57zm8.15 14.5l-.06 1.93-.68-1.77v-.13l-.63-.02-.1 3.59.63.02.05-1.79.68 1.77.64.02.1-3.6-.63-.02zm10.5-2.62c.62.39 1.17.41 1.62.23.42-.18.69-.52.81-.79l.13-.26-3.28-1.98-.15.3a1.8 1.8 0 0 0-.15 1.15c.09.47.39.96 1.01 1.35zm-.41-1.87l2.1 1.28a.92.92 0 0 1-.32.22c-.22.1-.56.12-1.04-.18-.49-.3-.67-.64-.73-.93a1.18 1.18 0 0 1-.01-.39zm-9.1 4.58l.55 3.22c.05.17.28.5.79.48.5-.01.74-.46.79-.69l-.13-3.13-.55.04.16 2.93c.02.27-.5.48-.59.07-.13-.66-.4-2.09-.44-2.93l-.57.01zm6.63 1.5l-2.05-2.53.5-.3c.43.72 1.38 1.82 1.82 2.33.26.3.62-.14.47-.36L33.74 36l.46-.3 1.65 2.65c.07.22.09.73-.34 1-.44.27-.8.1-.93-.02zm3.84-13.9l-.26-.35c-.93.74-.96 1.53-.2 1.92.77.38 1.36-.16 1.64-.95.22-.64.57-.7.72-.66.58.33.15.95-.14 1.22l.58.02c.6-.73.42-1.47-.4-1.68-.83-.2-1.32.83-1.48 1.23-.16.4-.74.64-.92.16-.14-.4.25-.77.46-.91zm-2.44-6.88l.48.26c.2-.21.52-.72-.12-1.37-.64-.64-1.54.1-2.02.59-.49.49-1.33 1.5-.57 2.26.75.76 1.74-.23 2.14-.83l-.72-.58-.35.38.35.35c-.2.26-.7.66-1.1.26-.4-.4.31-1.2.71-1.56.3-.31.93-.87 1.2-.58.27.28.11.66 0 .82zm-1 2.7l3.23-1.82.31.41-2.26 2.98-.31-.45.46-.56-.47-.48-.62.37-.34-.46zm1.53-.26l.3.32.84-1-1.14.68zm-18.82 5.86l-3.35-1.57.15-.5 3.71.1-.17.52-.73-.05-.11.67.67.29-.17.54zm-1.1-1.1l.08-.44-1.3-.1 1.22.54zm7.44 11.42l-1.84 3.23.53.21.34-.64.65.17-.11.72.5.22.41-3.72-.48-.2zm-.22 2.33l-.44-.12.63-1.17-.2 1.29zm12.74-16.27l3.15-1.57c.45.37 1.1 1.3.16 2.02-.09.07-.4.2-.98.2l-1.47 1.04-.34-.53 1.32-.7-.3-.61-1.26.6-.28-.45zm2-.38l.98-.52c.26.24.53.76 0 1.03-.46.24-.9-.18-.98-.5zM21.71 16.1l1.68 3.12.44-.3-.65-1.25.31-.17a.32.32 0 0 1 .43.12l.6 1.03.51-.37-1.09-1.44c-.02-.58-.16-.9-.23-.97-.76-.93-1.65-.23-2 .23zm.67.14l.56.97c.32-.08.72-.55.46-1-.29-.52-.8-.23-1.02.03zm-1.55 1.72l-.8-1.05.5-.4 2.26 2.97-.51.39-1.06-1.4-.63.49 1 1.32-.5.39-2.25-2.97.5-.39.86 1.14.63-.49zM15.18 32.3l1.24-.47.27.75-1.32.5.22.6 3.47-1.3-.23-.6-1.54.57-.28-.74 1.64-.62-.23-.6-3.46 1.3.22.6zm1.94 3.11l.24.41-.55.33-.8-1.38.54-.33.25.42 2.63-1.62.34.55-2.65 1.62zm4.52 1.15l.41.23-1.48 2.74.56.3 1.48-2.72.42.23.3-.56-1.38-.78-.3.56zm18.6-4.58l.16-.45.6.2-.5 1.52-.6-.2.15-.46-2.94-.97.2-.6 2.94.96zm.97-2.88l-3.63-.39-.2 1.4.62.1.12-.8 3.02.33.07-.64zm-8.83 7.64l-.64.33-.33 1.14-.37-.85-.58.25 1.39 3.23.58-.26-.44-1.02 1.25.7.78-.3-2.12-1.18.48-2.04zm3.99.45a.45.45 0 1 0 0-.9.45.45 0 1 0 0 .9zm-16.22.11c0 .25-.2.45-.45.45a.45.45 0 0 1-.45-.45c0-.25.2-.45.45-.45.24 0 .45.2.45.45zM14.17 29l.5 1.62 3.48-.74-.23-1.61-.53.14.23 1.08-1.04.3-.33-1.08-.54.15.25 1.02-.96.26-.33-1.22-.5.08z" fill="#155837"/></svg>