<svg width="56" height="56" viewBox="0 0 56 56" xmlns="http://www.w3.org/2000/svg"><path fill="#F0F3FA" d="M0 0h56v56H0z"/><path d="M42.5 35h-1c-.28 0-.43.18-.5.5a5.88 5.88 0 0 1-5.97 5.5 5.42 5.42 0 0 1-4.85-3.05A9.68 9.68 0 0 1 29 40.47 7.84 7.84 0 0 0 35.03 43c4.74 0 7.68-3.16 7.97-7.5 0-.29-.22-.5-.5-.5Z" fill="#8A2336"/><path d="M34.68 13C29.82 13 27 16.47 27 21.44V27h-5.64C16.19 27 13 30.1 13 34.49c0 5.08 3.19 8.47 8.29 8.47 4.85 0 7.67-3.46 7.71-8.4v-5.54h5.64c5.14 0 8.36-3.11 8.36-7.55-.04-5.07-3.22-8.47-8.32-8.47ZM27 34.49c0 3.72-2.24 6.51-5.71 6.51-3.76 0-6.29-2.72-6.29-6.51 0-3.18 2.57-5.49 6.36-5.49H27v5.49ZM34.64 27H29v-5.53c0-3.71 2.24-6.47 5.71-6.47 3.76 0 6.29 2.68 6.29 6.47 0 3.19-2.57 5.53-6.36 5.53Z" fill="#8A2336"/><path d="M20.95 13c-4.73 0-7.66 3.16-7.95 7.5 0 .29.21.5.5.5h1c.29 0 .43-.18.5-.5a5.87 5.87 0 0 1 5.95-5.5 5.4 5.4 0 0 1 4.83 3.05c.29-.94.68-1.79 1.22-2.52A7.82 7.82 0 0 0 20.95 13Z" fill="#8A2336"/></svg>