<svg width="56" height="56" viewBox="0 0 56 56" xmlns="http://www.w3.org/2000/svg"><path fill="#D71722" d="M0 0h56v56H0z"/><path d="M28.8 17.44c-.4.46-.64.73-.73.81-.05.06-.09.09-.1.07l-.86-.99a10.35 10.35 0 0 0-4.21-2.78 9.35 9.35 0 0 0-10.92 3.69 11.02 11.02 0 0 0-1.78 4.36 12.1 12.1 0 0 0 1.53 8.46 35.27 35.27 0 0 0 7.85 8.97 63.25 63.25 0 0 0 8.4 5.97c.03 0 .06 0 .08-.02a59.83 59.83 0 0 0 11.7-9.04c.27-.27.23-.34-.13-.2-.76.3-1.65.4-2.67.31a3.34 3.34 0 0 1-2.53-1.38 11.88 11.88 0 0 1-.52-.79.07.07 0 0 0-.06 0l-.03.01c-1.66 1.67-3.75 2.23-6.15 2.18a5.25 5.25 0 0 1-2.81-.76A3.74 3.74 0 0 1 23.1 33c0-.63.12-1.18.35-1.65.9-1.76 2.99-2.66 4.92-2.99a23.86 23.86 0 0 1 5.04-.32.18.18 0 0 0 .12-.16v-4.25c.03-1.46-1.7-1.55-2.7-1.16a.29.29 0 0 0-.17.2.29.29 0 0 0 .07.26l.3.3c.52.5.67 1.34.57 2.02-.12.77-.58 1.31-1.4 1.62a6 6 0 0 1-2.39.35c-.65-.02-1.09-.06-1.3-.1a2.8 2.8 0 0 1-1.72-.95 1.7 1.7 0 0 1-.35-.68c-.32-1.83.43-3 2.26-3.52.73-.2 1.42-.34 2.1-.4 2.23-.2 4.52-.2 6.85.02 1.9.17 3.77.78 4.35 2.76V34.6c0 .34.17.52.5.54.46.03 1.42-.66 1.68-1 .8-1.06 1.46-2.02 1.96-2.88 2-3.39 2.39-6.9 1.15-10.52-1.56-4.54-6.1-7.58-10.99-6.54a9.94 9.94 0 0 0-5.5 3.23Zm4.76 15.08.01-3.6c0-.02-.01-.04-.05-.04-1.65-.19-2.57.5-2.76 2.07-.13.98-.47 4.52 1.61 4 1-.24 1.2-1.57 1.2-2.43Z" fill="#fff"/></svg>