<svg width="56" height="56" viewBox="0 0 56 56" xmlns="http://www.w3.org/2000/svg"><path fill="#34B350" d="M0 0h56v56H0z"/><path d="m4 30 2.04-6h1.31l2.18 6H7.97l-.3-1H5.82l-.32 1H4Zm2.12-2h1.26l-.6-2.06L6.12 28ZM12.48 26v1.15c-.4-.08-1.22-.02-1.48.74V30h-1v-4h1v.6c.31-.29.83-.6 1.48-.6ZM13.5 25a.5.5 0 1 0 0-1 .5.5 0 0 0 0 1Zm.5 5v-4h-1v4h1ZM16 24h-1v6h1v-2.44c.11-.26.35-.6.77-.6.5 0 .73.51.73.76V30h1v-2.57c0-.57-.12-1.43-1.15-1.43-.57 0-1.04.3-1.35.59V24ZM25 26h-1v4h1v-2.28c.06-.26.31-.75.8-.75.5 0 .7.5.7.75V30h1v-2.57c0-.57-.11-1.43-1.13-1.43-.58 0-1.07.33-1.37.64V26ZM22 26h1v4h-1v-.47c-.32.3-.73.47-1.17.47-1.01 0-1.83-.9-1.83-2s.82-2 1.83-2c.44 0 .85.18 1.17.47V26Zm-1 3a1 1 0 1 0 0-2 1 1 0 0 0 0 2ZM30 25h-1v1h-.5v1h.5v3h1v-3h1v-1h-1v-1ZM36 24.45c-.4-.29-.87-.45-1.38-.45-1.45 0-2.62 1.34-2.62 3s1.17 3 2.62 3c.5 0 .98-.16 1.38-.45v-1.03c-.33.4-.8.66-1.31.66-1.02 0-1.84-.98-1.84-2.18 0-1.2.82-2.18 1.84-2.18.51 0 .98.25 1.31.66v-1.03Z" fill="#fff"/><path fill-rule="evenodd" d="M39.29 29.41c-.35.36-.83.59-1.36.59-1.07 0-1.93-.9-1.93-2s.86-2 1.93-2c.5 0 .94.2 1.29.51l.27-.51H40v4h-.71v-.59Zm.05-1.41c0 .79-.6 1.43-1.36 1.43A1.4 1.4 0 0 1 36.62 28c0-.8.6-1.44 1.36-1.44.75 0 1.36.65 1.36 1.44ZM51.29 29.41c-.35.36-.83.59-1.36.59-1.07 0-1.93-.9-1.93-2s.86-2 1.93-2c.5 0 .94.2 1.29.51l.27-.51H52v4h-.71v-.59Zm.05-1.41c0 .79-.6 1.43-1.36 1.43A1.4 1.4 0 0 1 48.62 28c0-.8.6-1.44 1.36-1.44.75 0 1.36.65 1.36 1.44ZM41.6 29.3c.35.43.88.7 1.46.7 1.07 0 1.94-.9 1.94-2s-.87-2-1.94-2c-.5 0-.94.2-1.29.5l-.27-.5H41v6h.6v-2.7Zm.04-1.3c0 .74.6 1.34 1.32 1.34.73 0 1.32-.6 1.32-1.34 0-.74-.6-1.34-1.32-1.34-.73 0-1.32.6-1.32 1.34Z" fill="#fff"/><path fill="#fff" d="M45.3 26h.7v4h-.7zM47.7 25H47v1h-.48v.56H47V30h.7v-3.44h.6V26h-.6v-1Z"/><path d="m44.4 23.96 1.1-1.14 1.1 1.14.4-.41L45.5 22 44 23.55l.4.4ZM44.9 25l.59-.6.59.6.4-.41-.99-1.01-.98 1.01.4.41Z" fill="#F69517"/></svg>