<svg xmlns="http://www.w3.org/2000/svg" width="56" height="56"><path fill="#F0F3FA" d="M0 0h56v56H0z"/><path d="M24.33 14.8L9 36h4.2l12.3-17.43c.43-.67 1.37-1.57 2.52-1.57 1.2 0 2.09 1.06 2.49 1.57L42.94 36H47L31.57 14.8c-1-1.09-1.94-1.76-3.64-1.8-1.7-.04-2.93 1.05-3.6 1.8z" fill="#2E3192"/><path d="M26.52 19l-11.8 17h3.43l9.84-14.1L37.72 36h3.56l-11.8-17h-2.96z" fill="#2E3192"/><path d="M10.67 32.54c-.07 2.04 1.59 3.15 2.42 3.46a6.75 6.75 0 01-.52-2.08c-.04-3.26 6.25-6.92 18.5-7.68 9.8-.61 17.31 1.95 19.93 3.3-1.75-1.81-9.38-5.21-20.66-4.62-15.57.81-19.58 5.08-19.67 7.62z" fill="#ED1B24"/><path d="M20.13 27.17l-.16-.38c3.95-1.16 9.94-1.29 12.43-1.2-6.63.3-10.94 1.17-12.27 1.58zm-7.31 2.78c.99-1.03 4.2-2.33 5.7-2.81l.16.36c-3.62 1.3-5.27 2.38-5.63 2.77l-.23-.32zm-1.24 3.34a2.63 2.63 0 01.46-2.5l.2.29c-.6.68-.49 1.75-.36 2.2h-.3z" fill="#F0F3FA"/><path fill-rule="evenodd" d="M29.7 33c1.16.01 1.42.55 1.41.81h-.78c0-.2-.17-.28-.63-.3-.46 0-.83.07-.83.37 0 .25.28.32.43.34h.94c.33.02.99.24 1 .86 0 .61-.6.87-.91.92h-1.29c-.7-.03-.92-.7-.93-1h.7c-.02.24.25.46.39.47a5.04 5.04 0 00.58 0c.32-.02.73-.03.73-.4 0-.3-.54-.32-.8-.32-.67 0-1.5-.1-1.54-.87-.04-.76 1-.9 1.53-.88zm-5.08 0h2.17a.92.92 0 01.5 1.7c.25.12.4.35.4.5v.8H27v-.6c0-.23-.14-.37-.23-.4h-1.5v1h-.65v-3zm.65.5h1.36a.51.51 0 010 1.03h-1.36v-1.02zm-3.3-.5l-1.28 3h.82l.24-.6h1.53l.26.6h.76L23 33h-1.03zm.54.52l-.6 1.42h1.2l-.6-1.42zm12.05.3c.02-.27-.25-.8-1.4-.82-.53-.02-1.58.12-1.54.88.04.77.87.87 1.54.87.27 0 .8.01.8.33 0 .36-.41.37-.73.38h-.07c-.26.02-.43.01-.51 0-.13 0-.41-.22-.4-.46h-.7c.03.3.24.97.94 1h1.3c.3-.05.91-.3.9-.92-.01-.62-.67-.84-1-.86h-.94c-.14-.02-.42-.09-.42-.34 0-.3.37-.38.83-.36.46.01.62.1.62.3h.78z"/></svg>