<svg xmlns="http://www.w3.org/2000/svg" width="56" height="56"><path fill="#F0F3FA" d="M0 0h56v56H0z"/><path fill-rule="evenodd" d="M5.84 29.77c.07 0 .2-.03.31-.24.11-.2.9-1.94 1.28-2.78v-.35c0-.06.05-.16.23-.15h.12c.08 0 .26-.02.36-.16.1-.15.28-.09.28 0 0 .14.05.49.18.72.13.23.87 1.82 1.23 2.58.05.1.21.34.48.34.19 0 .18.27 0 .27H8.48c-.11 0-.14-.23.05-.23.22 0 .45-.12.3-.5-.1-.3-.28-.66-.35-.8H7.15l-.35.74c-.06.14-.11.45.2.52h.1c.14 0 .21.27 0 .27H5.8c-.07 0-.1-.06-.11-.1 0-.06.07-.14.15-.13zM7.3 28.1l.53-1.18.47 1.18h-1z" fill="#019240"/><path d="M12.99 27.66v-1.03l-.3.15a2.2 2.2 0 00-.63-.15c-.75 0-1.3.39-1.3 1.03 0 .5.35.8.58.85.34.08 1.04.33 1.06.67.03.33-.38.42-.58.42-.75-.05-.96-.58-.97-.84-.2 0-.18.14-.2.19v1.14l.3-.3c.02.04.39.23.87.2.78-.02 1.37-.32 1.37-1.04 0-.5-.36-.84-.66-.88-.75-.1-.97-.38-1-.52-.06-.16-.06-.5.53-.48.58.03.7.5.7.72.1 0 .2-.09.23-.13z" fill="#019240"/><path d="M26.28 27.21V26l-.36.17a2.74 2.74 0 00-.78-.17c-.9 0-1.58.46-1.58 1.21 0 .6.53.93.8 1 .43.1 1.3.22 1.3.72 0 .4-.52.62-.8.6-.91-.06-1.17-.7-1.19-1-.23 0-.2.16-.23.22v1.36l.36-.36c.02.05.47.27 1.06.25.94-.04 1.67-.4 1.67-1.25 0-.59-.35-1-.8-1.07-.87-.16-1.3-.39-1.36-.58-.06-.19.06-.61.77-.58.72.03.87.58.85.85.14.01.25-.1.29-.16z" fill="#084FA3"/><path fill-rule="evenodd" d="M13.93 27.8l.24-1.14c.07-.01.23 0 .26.14.21-.05.73-.14 1.1-.14.47 0 .93.23.97.92v1.59c0 .12.08.32.45.18-.08.18-.33.65-.76.65a.57.57 0 01-.56-.52c-.13.17-.42.52-.93.52-.6 0-.95-.38-.92-.83.03-.45.34-1.13 1.85-1.2v-.39c.01-.15-.1-.46-.59-.47-.49 0-.78.46-.87.7h-.24zm1.75.43c.03.37-.1 1.2-.72 1.2a.42.42 0 01-.4-.43c0-.53.98-.77 1.12-.77z" fill="#019240"/><path d="M17.68 25.65a.72.72 0 00-.49.22c.3.04.46.23.5.31v3.37l-.34.45h1.57c.14 0 .12-.2 0-.2-.27-.04-.35-.23-.35-.33V27.9c0-.2.13-.57.54-.58a.4.4 0 01.44.4v1.93l-.33.36h1.6c.14 0 .1-.17 0-.17-.4-.03-.48-.27-.47-.39v-1.77c-.02-.57-.13-.88-.7-.9-.44-.02-.9.33-1.08.51v-1.8a.18.18 0 00-.27 0c-.14.14-.29.15-.62.17z" fill="#019240"/><path d="M31.18 26.93a.72.72 0 00-.5.23c.3.04.46.22.5.3v2.1l-.34.44h1.58c.13 0 .11-.2 0-.2-.28-.04-.35-.23-.36-.33V27.9c0-.2.14-.57.55-.58a.4.4 0 01.43.4v1.93l-.33.36h1.6c.14 0 .1-.17 0-.17-.4-.03-.47-.27-.46-.39v-1.77c-.02-.57-.14-.88-.7-.9-.44-.02-.91.33-1.09.51v-.51a.18.18 0 00-.27 0c-.14.13-.29.14-.61.16zm15.97 0a.72.72 0 00-.5.22c.3.05.47.23.5.31v2.1l-.33.44h1.57c.14 0 .12-.21 0-.21-.27-.03-.35-.23-.35-.32V27.9c0-.2.13-.57.54-.58a.4.4 0 01.44.4v1.93l-.33.36h1.6c.14 0 .1-.17 0-.17-.4-.03-.48-.27-.47-.4v-1.76c-.02-.57-.13-.88-.7-.9-.44-.02-.9.33-1.08.51v-.51a.18.18 0 00-.27 0c-.15.13-.3.14-.62.16z" fill="#084FA3"/><path d="M22.52 29.52v-2.68c-.26-.08-.5.1-.58.19h-.59c-.13.02-.12.17-.1.25.25-.01.38.14.4.2v2.1l-.4.42h1.66c.1-.06.04-.16 0-.2-.35-.03-.4-.2-.4-.28z" fill="#019240"/><path fill-rule="evenodd" d="M21.5 24.52c-.02.13.2.41.37.58a.33.33 0 00-.1.09c-.12-.2-.38-.57-.53-.59-.2-.02-.58.18-.64.4-.03.14.2.51.38.6.1.01.36-.02.7-.2 0 .06.02.1.04.15-.23.04-.62.15-.69.27-.1.18-.04.6.15.74.12.08.55 0 .7-.14.04-.08.1-.33.06-.7a.33.33 0 00.13 0c-.03.37.03.62.07.7.15.13.58.22.7.14.18-.13.24-.56.14-.74-.06-.12-.43-.22-.67-.27a.23.23 0 00.04-.14c.35.17.61.2.7.2.18-.1.42-.47.38-.6-.06-.23-.44-.43-.63-.4-.16.01-.41.39-.53.58a.33.33 0 00-.08-.07c.23-.28.33-.52.35-.6-.06-.2-.35-.52-.5-.52-.23 0-.52.32-.54.52zm.52.55c-.1-.08-.22-.27 0-.37.07.03.18.15 0 .37zm.37.17c.06-.1.2-.27.35-.09 0 .09-.09.22-.35.1zm-.74 0c-.06-.1-.2-.27-.36-.09.01.09.1.22.36.1zm.12.43c-.11.01-.32.1-.2.3.07.02.23 0 .2-.3zm.47 0c.12.01.33.1.21.3-.08.02-.24 0-.21-.3zm5.38 4.1c.64.52 1.66.33 2.26-.43.6-.75.58-1.78-.07-2.3-.64-.51-1.65-.32-2.25.44-.61.75-.58 1.78.06 2.3zm1.29-.14c.46-.07.74-.69.63-1.37-.12-.68-.58-1.16-1.04-1.09-.46.08-.74.7-.63 1.37.11.68.58 1.17 1.04 1.1zm14.71.07c.64.53 1.65.33 2.25-.42.6-.75.58-1.78-.06-2.3-.65-.51-1.66-.32-2.26.43-.6.75-.58 1.78.07 2.3zm1.28-.13c.46-.08.74-.69.63-1.37-.11-.68-.58-1.17-1.04-1.09-.46.08-.74.7-.63 1.37.12.68.58 1.17 1.04 1.09z" fill="#084FA3"/><path d="M39.66 26.72H38v.2c.22.04.36.2.4.28l1.06 2.76.67-.49.46-1.45.74 1.98.6-.48c0-.06.49-1.58.67-2.01.15-.35.41-.54.52-.59v-.2h-1.29v.2c.37.06.43.32.41.47l-.52 1.55-.5-1.28a2.2 2.2 0 01-.15-.94h-.25c-.14.13-.52.31-.69.39.26.09.24.4.2.55L39.86 29c-.13-.43-.43-1.32-.5-1.48-.1-.2-.08-.38.1-.51.13-.1.19-.23.2-.28z" fill="#084FA3"/><path fill-rule="evenodd" d="M38 26.72c-.05.06-.3.18-.83.13a1.88 1.88 0 00-1.84.2c-.98.64-.49 1.54.12 1.72 0 .06-.06.24-.36.46-.37.27 0 .77.36.77h.12c.44 0 1.6-.03 1.6.46 0 .44-.55.5-.8.54-.24.03-1.04-.05-1.04-.54.02-.07.08-.2.2-.24-.16-.07-1.01.05-1.01.39 0 .23.36.8 1.64.8 1.28-.01 1.72-.68 1.8-1.07.05-.28-.02-.95-.9-.96-1.1-.01-1.32-.05-1.32-.26 0-.21.17-.3.42-.3.26.02 1.39-.05 1.49-1.06.01-.11 0-.38-.22-.53.15.05.5 0 .62-.31l-.05-.2zm-1.73 1.81c.34-.03.58-.4.54-.8-.04-.41-.35-.71-.69-.68-.34.03-.58.4-.54.8.04.41.35.72.69.68z" fill="#084FA3"/><path d="M43.3 20.1c8.54.65 9.21 4.11 8.48 5.77-.77-3.78-6.38-4.68-9.07-4.76-8.97-.6-21.08 1.6-26.03 2.88 1.64-.72 15.93-4.68 26.61-3.88zM12.7 35.9c-8.54-.65-9.21-4.11-8.48-5.77.77 3.78 6.36 4.72 9.05 4.8 8.97.6 21.1-1.64 26.05-2.92-1.64.72-15.93 4.68-26.61 3.88z" fill="#ED1E24"/></svg>