<svg width="56" height="56" viewBox="0 0 56 56" xmlns="http://www.w3.org/2000/svg"><path fill="#0054B1" d="M0 0h56v56H0z"/><path d="M22.5 21a5.3 5.3 0 0 1 4.84 2.87c.27.52.07 1.17-.46 1.44a1.09 1.09 0 0 1-1.48-.5A3.25 3.25 0 0 0 22.5 23c-1.35 0-2.5.26-2.5 1.84 0 1.35 2.19 1.68 3.19 1.97 1.87.56 4.81 1.4 4.81 3.82 0 3.2-2.16 4.37-5.15 4.37-1.91 0-4.85-1.25-4.85-3.49 0-.58.48-1.06 1.08-1.06.6 0 1.08.48 1.08 1.06.08.98 1.98 1.49 2.69 1.49 1.63 0 3.15-.42 3.15-2.37 0-1.29-2.8-1.59-3.77-1.88-1.9-.57-4.23-1.57-4.23-3.91C18 22 19.96 21 22.5 21ZM43 21c.58 0 1 .49 1 1.1V33h5.95c.58 0 1.05.4 1.05 1s-.47 1-1.05 1h-6.9c-.58 0-1.05-.49-1.05-1.1V22.1c0-.61.42-1.1 1-1.1Z" fill="#fff"/><path fill-rule="evenodd" d="M35.63 21.72A1.1 1.1 0 0 0 34.6 21c-.47 0-.88.28-1.04.7l-4.49 11.83c-.21.56.08 1.19.65 1.4.57.21 1.17-.25 1.38-.81L32.25 31h4.57l1.1 3.12c.15.4.46.84.87.88a1.09 1.09 0 0 0 1.14-1.46l-4.3-11.82Zm.48 7.28-1.53-4.34-1.6 4.34h3.13ZM12.63 21.72A1.1 1.1 0 0 0 11.6 21c-.47 0-.88.28-1.04.7L6.07 33.54c-.21.56.08 1.19.65 1.4.57.21 1.17-.25 1.38-.81L9.25 31h4.57l1.1 3.12c.15.4.46.84.87.88a1.09 1.09 0 0 0 1.14-1.46l-4.3-11.82Zm.48 7.28-1.53-4.34L9.98 29h3.13Z" fill="#fff"/></svg>