<svg width="56" height="56" viewBox="0 0 56 56" xmlns="http://www.w3.org/2000/svg"><path fill="#F0F3FA" d="M0 0h56v56H0z"/><path fill-rule="evenodd" d="M19 21V11h12.5l3.81 10H31.9l-.75-2H23v2h-4Zm4.33-7h5.75a.4.4 0 0 1 .38.28l.35 1.2a.4.4 0 0 1-.38.52h-6.1a.4.4 0 0 1-.4-.4v-1.2c0-.22.18-.4.4-.4ZM19 22h16.58l1.22 3H23.32c-.22 0-.4.1-.4.32v.42c0 .21.18.26.4.26h13.92l2.36 6H19v-2h14.96c.22 0 .4-.09.4-.3v-.4c0-.22-.18-.3-.4-.3H19v-7Zm0 11v11h4v-2.78l4.38-2.3L36.5 44H43l-12.05-6.94L38.72 33h-7.24L23 37.55V33h-4Z" fill="#B3281B"/></svg>