<svg width="56" height="56" viewBox="0 0 56 56" xmlns="http://www.w3.org/2000/svg"><path fill="#F0F3FA" d="M0 0h56v56H0z"/><path d="M20.38 30.6a.06.06 0 0 0 0-.07.07.07 0 0 0-.05-.03c-2.07-.16-3.87-.7-5.31-2.25-.1-.11-.08-.16.07-.14.75.1 1.58.1 2.51-.01a.3.3 0 0 0 .15-.07c.05-.04.1-.1.12-.16l.03-.04a.28.28 0 0 0 0-.25.25.25 0 0 0-.08-.1.24.24 0 0 0-.12-.03l-2.7-.17a9.57 9.57 0 0 1-2.24-.54 6.47 6.47 0 0 1-2.94-1.99c-.13-.15-.1-.2.1-.16a10 10 0 0 0 3.23.26c.1-.01.2-.1.32-.28a.14.14 0 0 0 .02-.07c0-.23-.1-.34-.28-.35-.89-.01-1.54-.04-1.95-.09-3.44-.37-4.86-2.84-5.26-6a.06.06 0 0 1 .07-.06l.03.01a25.6 25.6 0 0 0 11.54 4.77.44.44 0 0 1 .29.18c1.01 1.44 3.6 4.23 5.43 4.08.36-.03.77-.24 1.24-.63.61-.51 1.29-1.1 2.03-1.77a4.45 4.45 0 0 1 3.7-1.15c.19.02.38.06.56.1.44.08.85.16 1.25.06.64-.16 1.88-.35 2.35.3.06.08.04.12-.06.12-.49.03-.78.05-.86.08-.95.33-1.77.86-2.46 1.6-.37.39-.94 1.15-.59 1.65 1.3 1.85 6.49-3.16 7.29-4.1.23-.26.4-.4.52-.42a27.48 27.48 0 0 0 11.56-4.82c.08-.05.12-.03.1.07-.03.34-.13.84-.3 1.48-.63 2.56-2.23 4.06-4.78 4.5-.21.03-.96.06-2.23.1-.17 0-.25.09-.25.26v.13a.27.27 0 0 0 .25.26c1.1.06 2.22 0 3.36-.18.19-.03.22.03.09.17-2.13 2.33-4.8 2.54-7.82 2.59a.31.31 0 0 0-.29.17l-.09.16c.07.2.18.31.35.34.73.11 1.6.13 2.6.04.16-.01.19.04.07.16-1.67 1.76-3.64 2.19-6.09 2.27l-.8.03c-1.46.04-2.57.08-3.94.4a5.71 5.71 0 0 0-2.37 10c.4.33.81.55 1.24.66.42.1.9.16 1.44.15.09 0 .09.01 0 .03a8.08 8.08 0 0 1-3.93-.2 8.98 8.98 0 0 1-6.58-6.88 5.85 5.85 0 0 1 .46-4.18ZM32.63 40.8a.72.72 0 0 1 .32-.01.07.07 0 0 1 .06.07.08.08 0 0 1-.05.08c-1.88.6-3.33.53-4.34-.23a4.96 4.96 0 0 1-1.9-4.1 3.4 3.4 0 0 1 .92-2.38c.2-.2.25-.17.16.1a5.66 5.66 0 0 0-.05 3.58c.66 2 2.44 3.21 4.55 2.97l.33-.08Zm1.7-3.2a5.12 5.12 0 0 1-.1.33 3.6 3.6 0 0 1-4.42 1.08c-.18-.09-.36-.17-.5-.2-.1-.01-.12.02-.07.1.48.61 1.1.95 1.84 1 1.56.12 2.64-.52 3.23-1.93a.62.62 0 0 0 .05-.38v-.01h-.02Z" fill="#DA0B01"/></svg>