<svg width="56" height="56" xmlns="http://www.w3.org/2000/svg"><path fill="#005FAA" d="M0 0h56v56H0z"/><path d="M25.012 13.214c.858-1.139 1.647-1.272 1.934-1.197l16.906 23.306c.67 1.982-1.093 3.194-2.152 3.194l-25.939 1.44c-.694.12-2.316.06-3.247-1.151-.931-1.212-.388-2.706 0-3.301 3.809-6.956 11.64-21.152 12.498-22.291z" fill="url(#paint0_linear)"/><path d="M29.213 13.466c-.758-1.082-1.233-1.416-1.998-1.416-.766 0-1.406.896-1.74 1.416L12.474 36.365c-.337 1.957 1.088 2.307 1.842 2.238 8.176-.52 25.14-1.572 27.582-1.614 2.443-.041 1.93-1.856 1.369-2.758-4.37-6.47-13.297-19.682-14.054-20.765z" fill="#FDFCEF"/><path d="M19.922 32.675l3.25-5.744-.349 4.67-2.9 1.074zm6.238-.957l2.159-11.9 9.066 13.408-11.226-1.508z" fill="#005FAA"/><path d="M27.565 16.069v2.885l-8.196 15.07-2 1.092 10.196-19.047z" fill="url(#paint1_linear)"/><path d="M27.565 16.069v2.885l8.806 13.56 1.996 1.175-10.802-17.62z" fill="url(#paint2_linear)"/><path d="M38.347 33.677l-18.975.344.127-.306 18.374-.464.474.426z" fill="#AB7F6B"/><path d="M22.63 31.608l.536-4.566 1.324-2.439-.923 7.237-.936-.232z" fill="#62453B"/><path d="M28.332 20.121l-.77-1.176-3.077 5.663-.932 7.053 1.383.837 1.37-.933 2.026-11.444z" fill="url(#paint3_linear)"/><path d="M25.055 33.58l12.617-.342-11.363-1.681-1.37.916.116 1.107z" fill="url(#paint4_linear)"/><path d="M20.143 32.555l2.638-1.024c1.106 0 1.92.683 2.219 1.024v1.298h-5.555l.698-1.298z" fill="url(#paint5_linear)"/><defs><linearGradient id="paint0_linear" x1="38.112" y1="20.781" x2="12.772" y2="39.057" gradientUnits="userSpaceOnUse"><stop offset=".937" stop-color="#B9866B"/><stop offset="1" stop-color="#4C3934"/></linearGradient><linearGradient id="paint1_linear" x1="22.467" y1="25.228" x2="23.879" y2="25.962" gradientUnits="userSpaceOnUse"><stop stop-color="#CEAC9F"/><stop offset="1" stop-color="#A6785F"/></linearGradient><linearGradient id="paint2_linear" x1="32.968" y1="24.838" x2="31.671" y2="25.696" gradientUnits="userSpaceOnUse"><stop stop-color="#E4D3CB"/><stop offset="1" stop-color="#644237"/></linearGradient><linearGradient id="paint3_linear" x1="24.267" y1="26.456" x2="27.323" y2="26.959" gradientUnits="userSpaceOnUse"><stop offset=".604" stop-color="#EBDFD2"/><stop offset="1" stop-color="#C2957B"/></linearGradient><linearGradient id="paint4_linear" x1="31.384" y1="31.496" x2="31.384" y2="33.546" gradientUnits="userSpaceOnUse"><stop stop-color="#CC9E88"/><stop offset="1" stop-color="#EBDFD2" stop-opacity="0"/></linearGradient><linearGradient id="paint5_linear" x1="22.28" y1="31.53" x2="23.745" y2="33.868" gradientUnits="userSpaceOnUse"><stop stop-color="#79564C"/><stop offset=".509" stop-color="#AF826B"/><stop offset="1" stop-color="#7C5344"/></linearGradient></defs></svg>