<svg xmlns="http://www.w3.org/2000/svg" width="56" height="56"><path fill="#0065B3" d="M0 0h56v56H0z"/><path fill-rule="evenodd" d="M28 39c12.15 0 22-4.92 22-11s-9.85-11-22-11S6 21.92 6 28s9.85 11 22 11zM16.5 28h-.98l1.21-2h2.98l1.23 2.07.55.93h2.8a.5.5 0 000-1h-.74l-1.2-2h2.88l.27.21V30h-1a.5.5 0 000 1h3a.5.5 0 000-1h-1v-2.88l1.93 2.01L31 26.67V30h-1.09a.5.5 0 000 1H35v2h-.5a.5.5 0 000 1h3a.5.5 0 000-1H37v-2h3.5a1.5 1.5 0 000-3h-6a.5.5 0 000 1h.5v1h-2v-4h1.17a.5.5 0 000-1H31.2l-1.98 2.12L27.38 25h-5.61L20 22h-2.04l-3.6 6h-.86a.5.5 0 000 1h3a.5.5 0 000-1zM40 29.5a.5.5 0 01-.5.5H37v-1h2.5c.28 0 .5.22.5.5zM17.24 25l.96-1.57.9 1.57h-1.86z" fill="#fff"/></svg>