<svg width="56" height="56" viewBox="0 0 56 56" xmlns="http://www.w3.org/2000/svg"><path fill="#F0F3FA" d="M0 0h56v56H0z"/><path d="M33 23.62c0-.18-.07-.2-.18-.06-6.72 8.18-10.9 12.96-11.52 13.72a4.54 4.54 0 0 1-3.53 1.66 92.15 92.15 0 0 1-4.74.03.07.07 0 0 1-.02-.03.07.07 0 0 1 0-.07c6.7-8.16 13.18-16.05 19.45-23.66.24-.3.64-.6 1.2-.9.41-.22.86-.32 1.37-.3.99.04 2.8-.37 2.9 1.44.04.76.06 1.27.06 1.54L38 29.9c0 .05-.02.1-.05.15a.24.24 0 0 1-.14.09c-1.76.4-3 .36-4.73.48a.08.08 0 0 1-.07-.03l-.02-.03.01-.03v-6.92Z" fill="#BF272E"/><path d="M11.45 26.59c-.15.33-.13.75.05 1.24.37.99 1.78 1.78 2.7 2.17a18.68 18.68 0 0 0 3.6 1.13.07.07 0 0 1 .02.07c0 .01 0 .02-.02.03l-2.36 2.85a.21.21 0 0 1-.24.08 19.02 19.02 0 0 1-4.8-2.1 7.05 7.05 0 0 1-1.56-1.35c-1.5-1.7-.85-3.58.77-4.88 1.8-1.44 4.08-2.3 6.27-2.88 3.2-.85 6.5-1.32 9.9-1.42.19 0 .22.06.1.21l-.2.25a.6.6 0 0 1-.46.22c-2.7.12-5.22.46-7.56 1.02-1.53.37-2.77.78-3.73 1.24-.93.45-2.03 1.15-2.48 2.12ZM44.63 27.32c.11-1.35-1.5-2.36-2.56-2.87-.3-.14-1.08-.42-2.35-.85a.3.3 0 0 1-.15-.11.32.32 0 0 1-.06-.18v-.33c0-.03 0-.05.02-.07a.16.16 0 0 1 .1-.09h.08c1.9.51 3.65 1.19 5.24 2.03a6.64 6.64 0 0 1 2.6 2.34c1.41 2.27-.81 4.22-2.52 5.2a25 25 0 0 1-8.45 2.72 55.91 55.91 0 0 1-12.03.6.12.12 0 0 1-.02-.17l2.64-3.17a.38.38 0 0 1 .29-.14c2.4-.02 4.9-.19 7.5-.5 2.47-.3 4.77-.89 6.87-1.76 1.03-.43 2.7-1.43 2.8-2.65Z" fill="#CABBA1"/><path d="M37.9 35.68c.07-.01.1.02.1.1v3.1a.1.1 0 0 1-.02.07.07.07 0 0 1-.06.03c-.85.03-1.74.03-2.68-.02-1.29-.06-2.03-.85-2.24-2.35-.01-.1.02-.14.1-.15 1.56-.14 3.16-.4 4.8-.78Z" fill="#BF272E"/></svg>