<svg width="56" height="56" viewBox="0 0 56 56" xmlns="http://www.w3.org/2000/svg"><path fill="#F0F3FA" d="M0 0h56v56H0z"/><path d="M25 39v-7.2L40 24v18.2a2.83 2.83 0 0 1-4.06 2.52l-10.5-5.02A.78.78 0 0 1 25 39Z" fill="url(#a51hw42n5)"/><path d="M40 17.32v15.8l-.1-1.28a4.07 4.07 0 0 0-5.85-3.27l-12.1 6.07c-.92.46-2 .41-2.87-.12l-4.76-2.9 8.4-4.36A2.5 2.5 0 0 0 27 25.5a2.5 2.5 0 1 0-5 .1l-9.48 4.93-1.93-1.17a3.33 3.33 0 0 1 .38-5.88l22.88-10.11A4.4 4.4 0 0 1 40 17.32Z" fill="url(#b51hw42n5)"/><defs><linearGradient id="a51hw42n5" x1="32.53" y1="27.9" x2="32.5" y2="45" gradientUnits="userSpaceOnUse"><stop offset=".21" stop-color="#22152E"/><stop offset=".86" stop-color="#DE2235"/></linearGradient><linearGradient id="b51hw42n5" x1="39.47" y1="17.91" x2="8.47" y2="26.96" gradientUnits="userSpaceOnUse"><stop stop-color="#06509A"/><stop offset=".49" stop-color="#70487A"/><stop offset="1" stop-color="#DE2235"/></linearGradient></defs></svg>