<svg width="56" height="56" viewBox="0 0 56 56" xmlns="http://www.w3.org/2000/svg"><path fill="#F0F3FA" d="M0 0h56v56H0z"/><path d="M52 22v11h-2V22h2ZM49 30.56c-.5 1.73-2.32 2.44-3.98 2.44-2.37 0-4.02-1.61-4.02-3.99A3.82 3.82 0 0 1 45 25c2.37 0 4 1.61 4 3.99l-.02.51H43c.03 1.1.81 2.07 2.02 2.07.8 0 1.48-.4 1.75-1.18l2.23.17Zm-4-4.14c-1 0-1.92.59-2 1.58h4c-.08-1-1-1.58-2-1.58Z" fill="#05406C"/><path d="M41 31.5V33h-1.69c-1.37 0-2.31-.37-2.31-1.89V26.5h-1V25h1v-2h2v2h2v1.5h-2v4.23c0 .64.43.77 1.01.77H41ZM30 26.23A2.67 2.67 0 0 1 32.35 25C34 25 35 26.25 35 27.85V33h-2v-4.62c0-1.2-.45-1.71-1.4-1.71-1.13 0-1.6 1.1-1.6 2.08V33h-2v-8h2v1.23ZM14.45 33 12 25h1.93l1.57 5.67L17.11 25H19l-2.46 8h-2.1ZM9.22 33c-.22-.26-.2-.92-.2-1.24-.46.87-1.64 1.24-2.58 1.24C5.14 33 4 32.1 4 30.73c0-1.75 1.54-2.3 3.04-2.48.5-.07 1.96-.1 1.96-.87 0-.58-.57-.94-1.42-.94-.7 0-1.27.4-1.5 1.14l-1.8-.28c.34-1.58 1.86-2.3 3.36-2.3 1.57 0 3.36.68 3.36 2.47v3.83c0 .5-.07 1.24.2 1.7H9.21ZM9 29.06c-.22.19-.87.3-1.72.42-.63.1-1.2.44-1.2 1.17 0 .63.36.96.96.96 1.02 0 1.96-.75 1.96-1.76v-.8ZM24.22 33c-.22-.26-.2-.92-.2-1.24-.46.87-1.64 1.24-2.58 1.24-1.3 0-2.44-.9-2.44-2.27 0-1.75 1.54-2.3 3.04-2.48.5-.07 1.96-.1 1.96-.87 0-.58-.57-.94-1.42-.94-.7 0-1.27.4-1.5 1.14l-1.8-.28c.34-1.58 1.86-2.3 3.36-2.3 1.57 0 3.36.68 3.36 2.47v3.83c0 .5-.07 1.24.2 1.7h-1.98ZM24 29.06c-.22.19-.87.3-1.72.42-.63.1-1.2.44-1.2 1.17 0 .63.36.96.96.96 1.02 0 1.96-.75 1.96-1.76v-.8Z" fill="#05406C"/></svg>