<svg xmlns="http://www.w3.org/2000/svg" width="56" height="56"><path fill="#1D5C47" d="M0 0h56v56H0z"/><path d="M21.34 17.09l6.74 15.9c.24.48.64 1.01 1.58 1.01.94 0 1.38-.62 1.56-1l5.28-11.94c-.86-.25-3.2-.56-4.02 1.34l-2.82 6.76-4.34-10.5c-.3-.7-1.56-2.02-3.98-1.57zm-2.12 1.07l6.48 15.76c-2.37.32-3.8-.8-4-1.38l-.8-1.98a7.72 7.72 0 00-6.34-4.77 9.32 9.32 0 014.66 3.86c-.8.43-1.88.56-2.33.57-4.74-.66-7.2-4.82-7.84-6.82.42.45 2.6.58 4.38.7.77.04 1.47.08 1.9.14 3.12.44 5.7 2.69 6.57 3.78-.67-1.43-2.72-3.1-3.33-3.49l-1.36-3.16-1.04 2.4a47.5 47.5 0 00-3.04-.37c.66-1.63 2.03-4.96 2.2-5.24.3-.46 1.04-1.18 2.06-1.16.8.02 1.52.59 1.83 1.16zm-8.06 10.55L9 33.81c2.06.53 3.28-.17 3.58-.82l1.02-2.55a12.7 12.7 0 01-2.45-1.73zM47 17a3 3 0 01-3 3h-2v11a3 3 0 01-3 3V20h-5a3 3 0 013-3h10zM19.5 36a.5.5 0 00-.5.5v2.64l-2.06-2.89a.46.46 0 00-.04-.05.5.5 0 00-.9.3v4a.5.5 0 101 0v-2.63l2.07 2.9.08.08a.5.5 0 00.85-.35v-4a.5.5 0 00-.5-.5zm1.26 2.56c-.11-.1-.09-.42.18-.66.27-.24.58-.47 1.28-.47.7 0 1.56.35 1.58 1.24v2.19c0 .16-.5.22-.74 0-.12-.1-.17-.37-.17-.37-.1.17-.48.5-1.16.5-.84 0-1.18-.56-1.18-.9 0-.51.26-1.06 1.35-1.18h.92c.01-.22-.08-.68-.6-.69-.36 0-.62.07-.83.28-.2.2-.43.26-.63.06zm2.04.85c-.5-.03-1.47.05-1.33.61.16.7 1.33.18 1.33-.3v-.3zm12.7-1.5c-.27.23-.3.54-.18.65.2.2.42.15.63-.06.2-.21.47-.29.83-.28.52 0 .61.47.6.7h-.92c-1.09.1-1.35.66-1.35 1.16 0 .35.33.9 1.18.9.67 0 1.05-.32 1.16-.49 0 0 .05.26.17.37.25.22.74.16.74 0v-2.19c-.02-.9-.87-1.24-1.58-1.24-.7 0-1.02.23-1.28.47zm.52 2.11c-.13-.56.84-.64 1.34-.6v.3c0 .48-1.17 1-1.34.3zM25 37a.5.5 0 111 0v.39h.54a.5.5 0 010 .98H26v.93c0 .84.3.95.5.84.04-.07.16-.2.3-.14.15.05.2.2.2.28.02.24-.15.72-.95.73-.74 0-1.05-.68-1.05-.95v-1.69h-.15a.5.5 0 010-.98H25v-.4zm3.51.42c.24 0 .47.13.49.48v1.74c0 .16.2.49.7.49.5 0 .75-.37.8-.55v-1.69a.5.5 0 01.5-.47c.4 0 .5.3.5.48v2.95c-.27.14-.86.24-1.03-.43-.1.19-.48.57-1.1.59-.75.03-1.38-.57-1.37-1.2V37.9c0-.28.19-.48.51-.48zm3.9 3.2v-3.06c.73-.06.92.3.92.47.23-.47.58-.61.95-.61.2 0 .6.14.6.61 0 .38-.2.46-.35.46-.1 0-.16-.03-.23-.06a.6.6 0 00-.27-.07c-.46 0-.6.48-.61.68v1.58c0 .14-.16.39-.5.39-.32 0-.5-.25-.5-.39zM39 36.05a.78.78 0 011 .42v4.02c0 .22-.15.49-.46.5-.32.03-.54-.2-.54-.5v-4.44z" fill="#fff"/></svg>