<svg width="56" height="56" viewBox="0 0 56 56" xmlns="http://www.w3.org/2000/svg"><path fill="#F0F3FA" d="M0 0h56v56H0z"/><path d="M40.91 18.84c0 .45.33.84.79.84.43 0 .77-.39.77-.84a.78.78 0 1 0-1.56 0Zm.1 2.55v5.87c0 .4.32.74.69.74.4 0 .67-.33.67-.74v-5.87c0-.41-.3-.74-.67-.74-.4 0-.7.33-.7.74Z" fill="url(#a3xps00dk)"/><path d="M34.28 21.26c-.2.14-.28.28-.28.56v5.43c0 .42.34.75.71.75.4 0 .71-.33.71-.75V22.3c.31-.2.94-.4 1.6-.4.83 0 1.56.48 1.56 1.58v3.77c0 .42.33.75.7.75.43 0 .72-.33.72-.75v-3.84c0-1.86-1-2.91-2.94-2.91-1.4 0-2.39.46-2.78.76Z" fill="url(#b3xps00dk)"/><path d="M28 20.9c-.37.17-.49.45-.49.68 0 .42.4.74 1.02.55.39-.14.94-.3 1.51-.3 1.08 0 1.54.4 1.54 1.32v.45a7.1 7.1 0 0 0-1.76-.23c-1.94 0-2.82 1.08-2.82 2.27 0 1.33.94 2.36 2.85 2.36 1.44 0 2.5-.5 2.89-.77.2-.13.26-.28.26-.53v-3.55c0-1.84-1.1-2.65-2.88-2.65a5.7 5.7 0 0 0-2.12.4Zm.44 4.68c0-.65.61-1.02 1.46-1.02.63 0 1.07.08 1.68.23v1.52c-.14.1-.65.42-1.6.42-1 0-1.54-.41-1.54-1.15Z" fill="url(#c3xps00dk)"/><path d="M24.6 18.75v2.07a4.3 4.3 0 0 0-1.74-.4c-1.7 0-2.68 1.06-2.83 2.77-.04.5-.04 1.48 0 1.96.15 1.7 1.23 2.85 3.02 2.85 1.28 0 2.35-.6 2.7-.86.21-.15.25-.3.25-.55v-7.84c0-.42-.3-.75-.7-.75-.39 0-.7.33-.7.75Zm-3.17 6.22c-.04-.42-.02-1.24 0-1.61.06-1 .53-1.54 1.54-1.54.69 0 1.35.25 1.63.43v3.84c-.27.21-.96.5-1.53.5-1.02 0-1.56-.55-1.64-1.62Z" fill="url(#d3xps00dk)"/><path d="M14 20.9c-.38.17-.49.45-.49.68 0 .42.4.74 1.02.55.38-.14.94-.3 1.51-.3 1.08 0 1.54.4 1.54 1.32v.45a7.1 7.1 0 0 0-1.76-.23c-1.88 0-2.76 1-2.82 2.15v.25c.06 1.27 1 2.23 2.84 2.23 1.45 0 2.5-.5 2.9-.77.2-.13.26-.28.26-.53v-3.55c0-1.84-1.1-2.65-2.88-2.65a5.7 5.7 0 0 0-2.12.4Zm.44 4.68c0-.65.61-1.02 1.46-1.02.63 0 1.07.08 1.68.23v1.52c-.14.1-.65.42-1.61.42-.99 0-1.53-.41-1.53-1.15Z" fill="url(#e3xps00dk)"/><path d="M23 29v9h1.5v-9H23Zm-13 3 1.8 6h1.42l1.34-4.07L15.73 38H17l2-6h-1.5l-.94 3.3L15.5 32h-1.74l-1.1 3.3-.86-3.3H10Zm16 6v-6h1.5v1.32c.44-.66 1.09-1.32 1.85-1.32.9 0 1.32.56 1.52 1.03.44-.55 1.02-1.03 1.71-1.03 1.2 0 1.92 1.01 1.92 2.37V38H33v-3.6c0-.73-.46-1.39-1.26-1.39-.32 0-.56.32-.74.7V38h-1.5v-3.6c0-.73-.18-1.39-.94-1.39-.47 0-.85.63-1.06 1.15V38H26Zm19.52-6c-.72.05-1.58.35-2 1.25V32H42v6h1.52v-3.84c.22-.32.83-.55 1.28-.55.33 0 .56.04.72.14V32ZM20.7 30.86a.9.9 0 0 0 .88-.93.9.9 0 0 0-.88-.93.9.9 0 0 0-.87.93c0 .51.39.93.87.93ZM20 32v6h1.5v-6H20Zm15.48 1.07.24 1.04c.35-.33 1.25-.99 2.02-.99.78 0 1.24.47 1.26.7v.34c-.21.14-.8.42-1.95.68-1.33.3-1.59 1.37-1.55 1.87.03.4.4 1.22 1.71 1.22.94 0 1.51-.42 1.81-.81.08.37.39.88.97.88.55 0 1.1-.25 1.32-.38l-.12-.22c-.49.05-.66-.28-.69-.45V33.9c0-1.15-1.04-1.9-2.45-1.9-1.13 0-2.18.71-2.57 1.07Zm2.75 2.03c.37-.12.63-.32.77-.48v2.03c-.23.3-.61.7-.94.7-.5 0-.91-.48-.91-1 0-.5.44-1.05 1.08-1.25Z" fill="#056C6B"/><path fill-rule="evenodd" d="M47 17H9v22h38V17ZM8 16v24h40V16H8Z"/><defs><linearGradient id="a3xps00dk" x1="1.24" y1="25.54" x2="53.46" y2="21.17" gradientUnits="userSpaceOnUse"><stop offset=".65" stop-color="#8E278F"/><stop offset=".9" stop-color="#F04C23"/></linearGradient><linearGradient id="b3xps00dk" x1=".37" y1="25.55" x2="53.8" y2="21.01" gradientUnits="userSpaceOnUse"><stop offset=".35" stop-color="#006DB6"/><stop offset=".65" stop-color="#8E278F"/><stop offset=".9" stop-color="#F04C23"/></linearGradient><linearGradient id="c3xps00dk" x1="-.83" y1="25.49" x2="54.43" y2="20.58" gradientUnits="userSpaceOnUse"><stop offset=".35" stop-color="#006DB6"/><stop offset=".65" stop-color="#8E278F"/></linearGradient><linearGradient id="d3xps00dk" x1=".23" y1="25.47" x2="52.94" y2="21.05" gradientUnits="userSpaceOnUse"><stop offset=".35" stop-color="#006DB6"/><stop offset=".65" stop-color="#8E278F"/></linearGradient><linearGradient id="e3xps00dk" x1="-.91" y1="25.49" x2="54.38" y2="20.57" gradientUnits="userSpaceOnUse"><stop stop-color="#00B16B"/><stop offset=".35" stop-color="#006DB6"/><stop offset=".65" stop-color="#8E278F"/></linearGradient></defs></svg>