<svg xmlns="http://www.w3.org/2000/svg" width="56" height="56"><path fill="#125E2F" d="M0 0h56v56H0z"/><path d="M31 19h-2v21a1 1 0 11-2 0v-1h-2v1a3 3 0 106 0V19zm12 0h-2v21a1 1 0 11-2 0v-1h-2v1a3 3 0 106 0V19z" fill="#fff"/><circle cx="30" cy="16" r="1" fill="#fff"/><path d="M43 16a1 1 0 11-2 0 1 1 0 012 0z" fill="#fff"/><path fill-rule="evenodd" d="M15 14h-2v24h3a3 3 0 003-3V21.5a2.5 2.5 0 00-4-2V14zm0 8v13a1 1 0 102 0V22a1 1 0 10-2 0zm9-3a3 3 0 00-3 3v3h2v-3a1 1 0 112 0v5h-1a3 3 0 00-3 3v5a3 3 0 003 3h3V22a3 3 0 00-3-3zm1 16v-5a1 1 0 10-2 0v5a1 1 0 102 0zm11-16a3 3 0 00-3 3v3h2v-3a1 1 0 112 0v5h-1a3 3 0 00-3 3v5a3 3 0 003 3h3V22a3 3 0 00-3-3zm1 16v-5a1 1 0 10-2 0v5a1 1 0 102 0z" fill="#fff"/></svg>