<svg width="56" height="56" viewBox="0 0 56 56" xmlns="http://www.w3.org/2000/svg"><path fill="#F0F3FA" d="M0 0h56v56H0z"/><path d="M43.66 26.45c.03.13.08.14.14.02.53-1 1.2-2.13 1.98-3.39a.17.17 0 0 1 .15-.08h2.33c.03 0 .04.01.02.04l-3.46 4.8a.22.22 0 0 0-.03.21l1.8 4.87c.02.05 0 .08-.05.08h-2.09c-.05 0-.08-.02-.1-.07l-1.15-3.58a.03.03 0 0 0-.03-.03c-.02 0-.03 0-.04.02l-2.1 3.63a.06.06 0 0 1-.06.03h-2.44c-.04 0-.05-.02-.03-.05l3.6-4.98a.18.18 0 0 0 .02-.17l-1.67-4.72c-.02-.05 0-.08.06-.08h2.05c.05 0 .08.02.1.07.4 1.18.73 2.31 1 3.38Z" fill="#F45302"/><path d="M24.78 31.13h3.69c.04 0 .05.02.04.06l-.33 1.77c0 .03-.02.04-.05.04h-5.8c-.03 0-.05-.02-.04-.06l1.85-9.9c0-.02.02-.03.05-.03L26.2 23c.04 0 .05.02.05.06l-1.51 8.02c0 .04 0 .05.04.05ZM52 23.1l-1.85 9.83c0 .04-.03.07-.08.07h-1.94c-.06 0-.09-.03-.08-.1l1.85-9.83c0-.04.03-.07.08-.07h1.94c.06 0 .09.03.08.1Z" fill="#191397"/><path fill-rule="evenodd" d="M15.57 30.34h2.77c.03 0 .04.02.05.04l.2 2.5c0 .03.01.04.04.04h2.11c.03 0 .05-.01.04-.04l-1.15-9.84c0-.03-.01-.04-.04-.04l-2.63.01c-.02 0-.04.01-.04.03l-4.76 9.82c-.02.04 0 .07.04.07h2.14c.02 0 .03-.01.04-.03l1.15-2.53c0-.02.02-.03.04-.03Zm2.3-5.25-.44 1.07a50.4 50.4 0 0 1-1.26 2.77c-.03.05-.01.07.04.07h2.02c.04 0 .06-.02.05-.05l-.3-3.85c-.01-.13-.05-.13-.1-.01ZM32.8 30.4h2.75c.04 0 .06.01.06.05l.19 2.5c0 .03.02.05.05.05h2.1c.04 0 .05-.02.05-.06l-1.14-9.9c0-.02-.02-.04-.05-.04h-2.62a.05.05 0 0 0-.05.04l-4.75 9.88c-.02.05 0 .08.05.08h2.12c.02 0 .04-.02.05-.04l1.13-2.53a.05.05 0 0 1 .05-.03Zm2.64-1.4c.06 0 .08-.03.08-.08l-.34-3.78c-.02-.18-.06-.19-.12-.02a35.27 35.27 0 0 1-1.67 3.8c-.03.05-.01.08.05.08h2Z" fill="#191397"/><path d="M11.27 28.75c-.26-.46-.65-.8-1.18-.98-.14-.05-.14-.1 0-.14a2.7 2.7 0 0 0 1.42-.94c.37-.47.52-1 .44-1.6a1.91 1.91 0 0 0-.88-1.43 3.94 3.94 0 0 0-1.63-.61c-.33-.05-.9-.06-1.7-.04a12 12 0 0 0-1.86.2.1.1 0 0 0-.09.08L4 32.8c0 .05.01.08.06.09a19.78 19.78 0 0 0 3.36.11 5.7 5.7 0 0 0 2.43-.56c.44-.21.8-.5 1.1-.87.3-.38.48-.8.56-1.28.09-.56 0-1.07-.24-1.53Zm-3.58-4.07a2.7 2.7 0 0 1 1.62.13c.28.11.45.33.5.66.08.64-.2 1.1-.85 1.34-.48.2-1.06.25-1.74.2-.03-.01-.04-.03-.04-.06l.41-2.17a.1.1 0 0 1 .1-.1Zm-.78 3.85c.6-.01 1.07.02 1.39.1.56.13.88.41.97.85.1.49 0 .9-.26 1.23-.25.31-.63.52-1.13.61-.49.1-.98.1-1.48.04-.05 0-.08-.03-.07-.08l.5-2.68c.02-.04.04-.07.08-.07Z" fill="#191397"/></svg>