<svg width="56" height="56" viewBox="0 0 56 56" xmlns="http://www.w3.org/2000/svg"><path fill="#F0F3FA" d="M0 0h56v56H0z"/><path fill-rule="evenodd" d="m35.1 14.54 7.9 4.99-15 9.53-15-9.53L28 10l4.73 3.1-3.63 2.61s-1.83-1.05-3.5-.32a19.3 19.3 0 0 0-3.92 2.57c-.57.44-.53 1.59.25 2.01.77.32 5.95 3.54 6.68 4.02.74.44 1.55.49 2.49-.28.37-.3 1.1-.75 1.9-1.24 1.03-.64 2.18-1.35 2.83-1.9 1.42-1.2-.74-2.85-2-2.17-.52.29-1.17.69-1.8 1.07-1.05.63-2.01 1.22-2.11 1.15l-2.08-1.33 7.25-4.75ZM13 20.6v16.07L27.5 46V29.7L13 20.59ZM17 28c0 1.4.12 1.86 1.33 2.65 1.16.79 3.4 1.99 4.3 2.48l.04.02c1.25.67 1.74-2.2.89-2.95a56.59 56.59 0 0 0-3.62-2.43l-1.2-.78C18.09 26.56 17 26.61 17 28Zm0 5.91c0 1.4 0 2.31 1.17 3.1 1.01.7 2.97 1.73 4.06 2.31l.44.24c1.25.68 1.74-2.19.89-2.94-.4-.35-1.77-1.17-3.04-1.94-.8-.48-1.56-.94-2.03-1.24-.64-.44-1.49-.92-1.49.47ZM28.5 46l3.5-2.46v-4.42c0-.87 1.5-2.15 2.38-2.5l2.42-1.36c.88-.36 2.2.08 2.2 1v3.5l4-2.9V20.58l-14.5 9.1V46Zm5.02-16.5 3.11-1.72c.81-.48 2.33.08 2.37 1v1.47c.04.91-.62 1.38-1.47 1.9l-3.2 1.88c-.8.51-2.33.33-2.33-.59V31.7c.04-.87.71-1.7 1.52-2.18Z" fill="#0C580F"/></svg>