<svg width="56" height="56" viewBox="0 0 56 56" xmlns="http://www.w3.org/2000/svg"><path fill="#F0F3FA" d="M0 0h56v56H0z"/><path d="M52 28.3v.06H37.12a.28.28 0 0 0-.21.08.79.79 0 0 0-.1.19c-.09.2-.22.38-.4.55-1.5 1.54-4.26 2.06-6.24 2.47-.12.02-.17.1-.17.22v2.26c0 .07-.01.11-.05.14a.3.3 0 0 1-.14.04c-.18.02-.56.05-.73.08-.04.01-.06 0-.08-.04V32.03a.24.24 0 0 0-.03-.12.04.04 0 0 0-.02-.02.17.17 0 0 0-.1-.01c-.74.12-1.17.23-1.73.32h-.15c-.02 0-.02 0 0-.01.83-.3 1.32-.55 1.91-.79a.17.17 0 0 0 .1-.1c.02-.03.03-.09.02-.17v-2.68c0-.04-.03-.06-.08-.08a.3.3 0 0 0-.11-.01H22c-.05 0-.06.02-.03.06.24.27.4.51.5.72.13.3.17.6.1.9-.06.28-.2.55-.42.8-1.8 2-5.62 2.64-8.1 3.23-.03 0-.05.03-.04.06 0 .1-.03.16-.1.17l-.87.1-.02-.01a.16.16 0 0 1-.05-.08c0-.03-.02-.03-.04-.02a.6.6 0 0 1-.09.02c-.92.2-1.7.37-2.57.53a37.55 37.55 0 0 1-1.04.16v-.03c1.04-.3 1.83-.57 2.39-.79.2-.07.54-.25 1.26-.52a.15.15 0 0 0 .09-.09c.01-.02.03-.06.03-.11V28.5c-.01-.1-.07-.15-.18-.15a1253.87 1253.87 0 0 1-5.7 0c-.09-.02-.13-.08-.12-.17.02-.14.02-.3 0-.5 0-.1.04-.14.13-.14a668.74 668.74 0 0 1 5.54 0h.1a.4.4 0 0 0 .16-.02c.04-.02.07-.07.07-.14v-4.8c0-.12-.05-.21-.16-.26a41.78 41.78 0 0 0-3.55-1.28c-.09-.05-.09-.06 0-.04l1.34.23c.83.15 1.51.3 2.3.48l.04-.01.02-.03v-.1s0-.02.02-.03a.05.05 0 0 1 .04-.02l.86.1c.04 0 .07.03.09.06v.1c-.02.1.04.16.15.18 2.39.56 5.68 1.21 7.6 2.82.47.38.75.79.83 1.2.05.28.03.55-.08.82-.09.22-.24.45-.45.7v.02a.2.2 0 0 0 .1.02h.04a2538.84 2538.84 0 0 1 6.6 0 .3.3 0 0 0 .15-.03c.04-.02.06-.12.05-.29v-.02a195.25 195.25 0 0 1 0-2.47.2.2 0 0 0-.06-.16.6.6 0 0 0-.16-.08l-.03-.01c-.66-.26-1.1-.53-1.72-.8v-.01c.68.09 1.14.2 1.81.33h.1c.03 0 .05-.01.05-.05l.02-.23v-2.09c0-.06.01-.09.06-.1l.1.01c.17.03.52.05.64.06.13.01.2.07.2.17v2.19c-.01.15.06.24.2.27 2 .44 4.46.92 6.05 2.33.28.25.48.55.62.9.02.05.06.08.13.08a7.74 7.74 0 0 0 .72 0 14479.14 14479.14 0 0 0 5.08-.01c-.1-.08-.19-.13-.24-.16a3.55 3.55 0 0 1-1.23-1.3c-.02-.05 0-.05.03-.03.18.13.37.24.54.34a9.73 9.73 0 0 0 3.3 1.1c1.2.2 2.36.36 3.5.48l3.3.32Zm-37.58-.76h2.14c.03 0 .07 0 .1-.02.51-.26.89-.55 1.13-.87 1.34-1.74-2.63-3.33-3.7-3.82a.12.12 0 0 0-.04-.01h-.04a5097.8 5097.8 0 0 0-.01 4.59c0 .1.04.14.12.14a77.92 77.92 0 0 1 .3 0Zm19.18 0c.03 0 .03-.03.03-.05a1.9 1.9 0 0 0-.42-.71c-.8-.89-2.14-1.35-3.2-1.83V27.47c0 .03 0 .06.04.07H30.2a355.59 355.59 0 0 1 3.4 0Zm-19.58.88a2322.92 2322.92 0 0 0 0 4.78h.04c1.18-.54 3.38-1.3 3.92-2.58.14-.35.14-.67 0-.97-.1-.2-.26-.4-.45-.57a4.15 4.15 0 0 0-.9-.6.97.97 0 0 0-.43-.11 1969.24 1969.24 0 0 1-1.95 0c-.13-.01-.2 0-.23.05Zm15.98.05v2.54h.01c1.13-.5 2.8-1.09 3.47-2.2l.13-.29a.26.26 0 0 0 .01-.11c0-.03-.02-.04-.05-.04h-3.46c-.07 0-.1.03-.1.1Z" fill="#A23533"/></svg>