<svg width="56" height="56" viewBox="0 0 56 56" xmlns="http://www.w3.org/2000/svg"><path fill="#F0F3FA" d="M0 0h56v56H0z"/><path fill-rule="evenodd" d="M43 13H13v30h30V13ZM28 34v-4.35a3.13 3.13 0 0 0 1.28-1.16 3.09 3.09 0 0 0 2.3 1.01c1.17 0 2.42-1.11 2.42-2.19v-6.84C34 19.1 35.1 18 36.47 18H38v13h-7.74c-.68.04-2.1.94-2.26 3ZM18 19.5a1.5 1.5 0 0 1 3 0v8a1.5 1.5 0 0 1-3 0v-8Zm5.5-3.5c-.83 0-1.5.67-1.5 1.5v10a1.5 1.5 0 0 0 3 0v-10c0-.83-.67-1.5-1.5-1.5Zm2.5.5a1.5 1.5 0 0 1 3 0v11a1.5 1.5 0 0 1-3 0v-11Zm5.5-.5c-.83 0-1.5.67-1.5 1.5v10a1.5 1.5 0 0 0 3 0v-10c0-.83-.67-1.5-1.5-1.5ZM29 34.12c0-1.17.9-2.12 2.02-2.12H38v1.4h-5.35c-.36 0-.65.3-.65.67v4.86c0 .37.29.67.65.67h1.7c.36 0 .65-.3.65-.67V37h-2v-1.49h5V41h-6.98A2.07 2.07 0 0 1 29 38.88v-4.77Zm-5.74-4.62c.78 0 1.45-.44 1.8-1.1.39.7 1.16 1.1 1.94 1.24v4.34c-.04.29-.38.86-1.46.86.59 0 1.46.18 1.46.72v4.29c-.04.38-.4 1.15-1.57 1.15H18V28.8c.38.43.92.7 1.53.7.82 0 1.53-.5 1.87-1.23a2.07 2.07 0 0 0 1.86 1.23ZM21 31h2.25c.41 0 .75.27.75.6v1.8c0 .33-.34.6-.75.6H21v-3Zm2.25 5H21v3h2.25c.41 0 .75-.27.75-.6v-1.8c0-.33-.34-.6-.75-.6Z" fill="#E95122"/></svg>