<svg width="56" height="56" viewBox="0 0 56 56" xmlns="http://www.w3.org/2000/svg"><path fill="#F0F3FA" d="M0 0h56v56H0z"/><path fill-rule="evenodd" d="M15 34H9v-7H8v-1h1v-7h6.22c.93.46 2.78 1.94 2.78 4.18 0 1.8-1.5 3.2-2.26 3.68A3.61 3.61 0 0 1 17 29.78c0 1.7-1.29 3.69-2 4.22Zm-5-14v6h5.06l.03-.02c.51-.4 1.91-1.46 1.91-2.76 0-1.32-.75-2.61-2.1-3.22H10Zm0 13v-6h4.65A3.95 3.95 0 0 1 16 29.78c0 1.32-1 2.7-1.5 3.22H10Z"/><path d="m34.76 26.06-.01-.06h1.03A9 9 0 1 1 28 19.05v1.01a8 8 0 1 0 6.95 7.03l-7.41 5.14-.82-.9 8.04-5.27Z" fill="#473E5A"/><path d="M38 26h1v8h-1z"/><path d="m38.08 25.72-.75-1.04 2.03-1.42.89.82-2.17 1.64Z" fill="#706A65"/><path d="M41 34V19h1v14h9v1H41Z"/></svg>