<svg width="56" height="56" viewBox="0 0 56 56" xmlns="http://www.w3.org/2000/svg"><path fill="#F0F3FA" d="M0 0h56v56H0z"/><path d="M29.5 29c0 .78-.08 1.57-.37 2.3A8.77 8.77 0 0 1 21 37c-4.97 0-9-4.12-9-9.1 0-4.53 4.03-8.28 8.39-8.9a8.89 8.89 0 0 0-.3 3.12c-2.55.7-5.09 3.03-5.09 5.79 0 3.31 2.69 6.09 6 6.09 1.83 0 3.44-.91 4.53-2.2.8-.96.97-2.25.97-3.5 0-.45.02-.9.12-1.34C27.47 22.93 30.7 20 35 20c4.97 0 9 3.94 9 8.9a9 9 0 0 1-7.5 8.88 8.94 8.94 0 0 0-.03-3.05A6 6 0 0 0 35 22.9c-2.27 0-4.07 1.58-5.03 3.54A5.77 5.77 0 0 0 29.5 29Z" fill="#96989D"/><path d="M27.91 29.5c-.78 0-1.57-.08-2.3-.37A8.69 8.69 0 0 1 20 21a9 9 0 0 1 9-9c4.53 0 8.5 4.19 9.12 8.55A11.61 11.61 0 0 0 35 20c-.7-2.55-3.24-5-6-5a6 6 0 0 0-6 6c0 1.83.82 3.44 2.11 4.53.96.8 2.25.97 3.5.97.45 0 .9.02 1.34.12C33.98 27.47 37 30.7 37 35a9 9 0 0 1-9 9c-4.46 0-8.16-2.93-8.88-7.19.58.1 1.24.18 1.88.19.41 0 .81-.02 1.18-.08C22.84 39.52 25.2 41 28 41a6 6 0 0 0 6-6c0-2.27-1.58-4.07-3.54-5.03a5.77 5.77 0 0 0-2.55-.47Z" fill="#DE9F27"/></svg>