<svg xmlns="http://www.w3.org/2000/svg" width="56" height="56"><path fill="#009846" d="M0 0h56v56H0z"/><path d="M6.96 25.08c-.02-.43-.43-.55-.64-.55a.9.9 0 00-.4.08c-.14 0-.18-.06-.18-.09 0-.55.58-.84 1.17-.8.47.01 1.01.46 1.09.69v6.84l-.56.75h3.06l-.5-.75v-6.59c0-.14.01-.65 1.08-.66 1.34-.01 2.06.61 2.08 1.3.01.7-.67 1.22-1.24 1.22-.46 0-1.03-.36-1.25-.56-.09.09-.24.34-.17.6.08.31.72.63.96.73.19.08.5.03.63 0 .39-.1.65-.09.78-.1.37-.04 2.07.39 2.13 2.03.06 1.64-1.62 1.98-1.95 2.03-.34.04-.76-.2-.56-.4.2-.18.25-.5.26-.63.02-.13-.08-1-1.15-1-.82 0-1.1.57-1.1.9-.03 1.46 1.4 1.88 3.05 1.88 1.69 0 3.52-.84 3.45-2.92-.06-1.67-1.24-2.26-1.84-2.37-.35-.05-.95-.25-.5-.62.43-.37.51-1.02.5-1.3-.05-1.32-1.21-1.53-1.65-1.54-.52-.01-1.02.22-1.91.22H9.83c-1.06-.02-2.38-.44-2.92-.47-.54-.03-1.98.4-1.9 1.61.05.96.9 1.14 1.31 1.1.22-.03.66-.2.64-.63zM20 27.03V24h-.33c0 1.1-1.03 1.86-1.67 2.09V32h2v-4.44c.1-.17.74-.53 1.21-.53.48 0 .79.53.79.78-.01.78-.02 2.76 0 3.73.03 1.22.68 1.47 1.55 1.46.7-.01 1.16-.24 1.3-.36-.64-.26-.85-1.14-.85-1.54v-3.76c-.03-.38-.64-1.35-1.5-1.34a4.2 4.2 0 00-2.5 1.03zM26.2 26h3.63c.4-.01 1.23.26 1.23 1.45v3.22l.35 1.23c-.54.1-1.8.2-2.6-.22-.22.1-.8.32-1.37.32-.7 0-2.41-.27-2.44-2.37-.03-2.1 1.85-2.43 2.55-2.4.56.03 1.05.23 1.1.33H29c0-.33-.04-.75-.5-.8h-1.2c-.35-.01-1.05-.18-1.1-.76zm1.8 4.91c.55 0 1-.58 1-1.3 0-.72-.45-1.3-1-1.3s-1 .58-1 1.3c0 .72.45 1.3 1 1.3zM39.2 26h3.63c.4-.01 1.23.26 1.23 1.45v3.22l.35 1.23c-.54.1-1.8.2-2.6-.22-.22.1-.8.32-1.37.32-.7 0-2.41-.27-2.44-2.37-.03-2.1 1.85-2.43 2.55-2.4.56.03 1.05.23 1.1.33H42c0-.33-.04-.75-.5-.8h-1.2c-.35-.01-1.05-.18-1.1-.76zm1.8 4.91c.55 0 1-.58 1-1.3 0-.72-.45-1.3-1-1.3s-1 .58-1 1.3c0 .72.45 1.3 1 1.3z" fill="#fff"/><path fill-rule="evenodd" d="M32 32v-5.34l-.54-.7c.7-.2 2.38-.4 3.45.46.17-.01.5-.23 1.13-1 .16-.15.66-.46 1.45-.41a3.5 3.5 0 00-.59 1.04A1.5 1.5 0 1135 27.4a8.6 8.6 0 01-1 .44V32h-2zm5.33-4.5a.83.83 0 11-1.66 0 .83.83 0 011.66 0z" fill="#fff"/><path d="M47 25.56V24h-.42c-.15 1.54-.81 2-1.27 2.01h-.57c-.18 0-.52.1-.52.38 0 .3.4.4.4.4.33 0 .38.15.38.22v3.16c0 .48.6 1.85 2.52 1.84 1.92-.01 2.4-1.22 2.45-1.32.05-.13.03-.23-.04-.28-.08-.06-.25-.03-.35.12-.36.51-1.08.48-1.3.48-.78 0-1.28-.32-1.28-.6v-3.62h1.28c.12 0 .35-.12.35-.4a.36.36 0 00-.35-.38h-.9c-.28-.02-.38-.32-.38-.44z" fill="#fff"/></svg>