<svg width="56" height="56" viewBox="0 0 56 56" xmlns="http://www.w3.org/2000/svg"><path fill="#F0F3FA" d="M0 0h56v56H0z"/><path fill-rule="evenodd" d="M30.83 12.06c.06.06.12.05.17-.01l.52-.66a.11.11 0 0 1 .14-.05l2.41.74c.13.04.21.11.26.23l.28.65c.11.26.26.43.44.5.44.19.8.07 1.07-.34.06-.09.14-.1.23-.06.97.48 1.8 1 2.5 1.59.03.03.05.07.05.12v.76c0 .13.05.23.15.31a15.36 15.36 0 0 1 4.47 5.63A15.35 15.35 0 0 1 45 28.43a15.44 15.44 0 0 1-2.92 8.79 15.62 15.62 0 0 1-7.39 5.67l-1.46.5a.2.2 0 0 0-.12.1l-.11.31c-.09.26-.16.44-.23.53-.04.07-.15.12-.32.15-.83.14-1.5.25-2 .35-.1.02-.16-.02-.2-.11l-.17-.54a.18.18 0 0 0-.1-.12c-.44-.18-.8-.1-1.1.26l-.07.09c-.33.42-.63.62-.88.59l-.3-.04c-.88-.06-1.7-.16-2.48-.32-.07-.01-.11-.06-.12-.13l-.07-.86c0-.06-.04-.1-.1-.12l-.9-.27a.2.2 0 0 0-.18.04l-.88.69c-.1.08-.22.1-.34.04L20.26 43c-.08-.04-.1-.1-.08-.17l.27-.88a.18.18 0 0 0-.07-.22l-.69-.53a.25.25 0 0 0-.28-.03l-1.07.51a.26.26 0 0 1-.31-.04l-2.41-2.23c-.06-.05-.07-.1-.04-.18l.53-1.15c.07-.14.04-.26-.07-.36l-.62-.58a.16.16 0 0 0-.12-.04l-1.4.12a.23.23 0 0 1-.24-.13l-1.4-2.63a.22.22 0 0 1 .02-.25l.75-1.1c.17-.26.24-.48.23-.67-.02-.21-.1-.48-.26-.79a.18.18 0 0 0-.14-.1l-1.2-.19c-.16-.02-.27-.13-.31-.33a11.93 11.93 0 0 1-.3-3.86.54.54 0 0 1 .18-.36c.57-.52.98-.89 1.24-1.1.25-.21.4-.43.46-.64.1-.4.15-.72.17-.97a.2.2 0 0 0-.07-.18l-1.08-1c-.07-.06-.08-.13-.04-.22l1.3-2.85c.06-.1.13-.16.24-.2.58-.16 1.17-.34 1.78-.54.5-.17.63-.43.4-.79-.27-.4-.47-.74-.63-1a.16.16 0 0 1 .02-.2c.69-.82 1.47-1.6 2.36-2.31a.3.3 0 0 1 .2-.07h2.04c.1 0 .18-.05.23-.13a.25.25 0 0 0 0-.27l-.4-.8c-.04-.06-.03-.1.04-.14l3.33-1.58a.34.34 0 0 1 .25-.02l2.16.66c.16.05.28 0 .36-.15l.54-1.01a.17.17 0 0 1 .12-.1c.96-.21 2.06-.26 3.3-.13.27.02.44.08.5.17.26.3.51.58.78.82ZM29 26.34c.03.04.02.06-.03.04-.24-.06-.5-.14-.77-.24-.13-.04-.23-.05-.3-.02-2.96 1.25-5.58 3.4-7.86 6.45a38.61 38.61 0 0 0-3.93 6.53c-.02.04-.01.07.02.1l1.73 1.6c.03.03.07.04.12.03a.12.12 0 0 0 .1-.08 41.51 41.51 0 0 1 3.9-7.72c1.8-2.8 3.8-4.78 6-5.97.14-.07.26-.06.36.05l.82.85c.1.11.1.2-.02.3a20.76 20.76 0 0 0-6.93 9.19 30.84 30.84 0 0 0-1.55 5.15c0 .03 0 .06.04.07l1.74.69c.09.03.13 0 .14-.09a22.34 22.34 0 0 1 4.05-11.25c1-1.43 2.18-2.63 3.53-3.6.42-.31.83-.55 1.24-.73.06-.03.11-.02.16.04l.46.57c.08.1.08.2 0 .3L31 29.66a.15.15 0 0 0-.03.18l.58 1.19c.06.1.06.22 0 .32a17.72 17.72 0 0 0-1.8 6.23c-.21 2.24.05 4.43.8 6.55.02.06.06.09.12.08a6.39 6.39 0 0 0 1.62-.3c.08-.03.1-.08.07-.15-.42-.85-.8-1.81-1.15-2.88-.95-2.93-.75-5.74.6-8.45.17-.35.3-.55.4-.62.09-.06.17-.06.26 0l.65.51c.1.07.17.06.24-.03.43-.6.69-1.25.77-1.98.01-.08.06-.12.14-.1l.25.01c.38.02.64.07.78.13.77.36.88 1.12.33 2.28-.1.23-.04.36.2.41.36.08.73.05 1.11-.08.34-.12 1.2-.53 2.6-1.25.12-.07.26-.22.4-.47.15-.27-.04-.6-.6-.95a5.93 5.93 0 0 0-1.23-.6 1.06 1.06 0 0 0-.49-.05l-.23.04c-.38.07-.62.03-.71-.12a.3.3 0 0 1-.04-.25.3.3 0 0 1 .16-.19c.68-.35 1.18-.62 1.5-.8a2 2 0 0 1 .92-.31c.44-.02.93 0 1.46.04.04 0 .07-.01.09-.04a.08.08 0 0 0 0-.1c-.83-1.6-1.37-2.64-1.63-3.1-.1-.18-.14-.3-.12-.38.16-.58.21-1.16.15-1.74-.02-.12.02-.29.11-.5.08-.2.11-.36.09-.45a1.4 1.4 0 0 0-.2-.45A69.9 69.9 0 0 0 37.39 19a.3.3 0 0 1-.04-.36c.55-1.13.87-2.37.96-3.72 0-.02 0-.05-.03-.07l-1.53-.92c-.02-.01-.03 0-.02.01.23 1.6.19 3.2-.13 4.78-.02.1-.09.16-.2.16h-.99c-.07 0-.11-.04-.11-.11a15.9 15.9 0 0 0-1.35-6.2.2.2 0 0 0-.14-.13l-1.48-.4c-.19-.05-.23 0-.14.18 1.24 2.28 2 4.7 2.28 7.26.02.17-.03.2-.15.06-3.19-3.72-6.94-6.12-11.24-7.18a.75.75 0 0 0-.34 0c-.66.15-1.24.43-1.75.86-.04.03-.05.07-.03.11a.1.1 0 0 0 .1.07c4.42.44 7.82 1.87 10.2 4.3.2.2.16.25-.1.14a33.7 33.7 0 0 0-13.4-2.7.23.23 0 0 0-.18.08l-1.46 1.53c-.06.07-.05.1.05.1.87-.08 1.72-.14 2.56-.19 2.8-.17 5.54-.01 8.2.47.09.02.12.07.1.16l-.45 1.4c-.01.05-.04.07-.09.06A27.4 27.4 0 0 0 13.8 20a.67.67 0 0 0-.4.37l-.7 1.5c-.08.19-.03.24.16.16 2.18-.95 4.45-1.71 6.83-2.28 2.17-.52 4.37-.75 6.62-.69.1 0 .15.05.15.15v.94c0 .1-.06.16-.16.17a20.6 20.6 0 0 0-7.84 2.06 28.27 28.27 0 0 0-6.76 4.61.6.6 0 0 0-.22.45c-.02 1.04.06 2.02.22 2.95 0 .03.03.05.06.06.03 0 .06 0 .08-.03a28.74 28.74 0 0 1 10.94-8.06 50 50 0 0 1 2.91-1.12c.5-.17.99-.25 1.47-.24.07 0 .1-.04.09-.1a2.96 2.96 0 0 1 0-1.13l.4-2.03c.03-.12.1-.19.25-.2a1 1 0 0 1 .33.04c1.18.3 2.27.75 3.26 1.35.1.06.14.14.12.25l-.16.95c-.02.1-.09.16-.2.17l-1.75.15a.15.15 0 0 0-.14.11l-.57 1.85a.35.35 0 0 1-.26.25c-6.02 1.65-11.25 5.5-15.7 11.52a.16.16 0 0 0-.01.18l1 2.04c.01.03.04.05.07.05.04 0 .06-.01.08-.04.37-.58 1-1.46 1.87-2.65a39.4 39.4 0 0 1 4.9-5.46 18.44 18.44 0 0 1 6.83-4.11c.1-.04.18 0 .24.09l1.21 2.07Zm11.4-1.04.95.71c.08.07.15.05.19-.05l.4-1.02c.01-.05 0-.1-.04-.14l-.8-.74c-.09-.08-.15-.07-.2.03l-.53 1.05c-.03.06-.02.11.04.16Zm.05 5.93 1.2-1.5c.03-.06.07-.05.1 0l.75 1.8c0 .02 0 .04-.02.06l-1.35 1.5c-.04.04-.08.04-.1-.03l-.6-1.77c0-.02 0-.04.02-.06Zm-2.57 2.63c-.48.23-1.13.2-1.97-.08-.1-.03-.45.02-1.05.15a.16.16 0 0 0-.12.1l-.3.64c-.06.14-.03.25.1.32.9.54 1.67 1.2 2.3 2.01.04.05.1.07.16.04.8-.3 1.51-.57 2.15-.84.4-.17.62-.44.63-.8.02-.5.11-1.09.29-1.76.01-.05 0-.1-.03-.15a.18.18 0 0 0-.14-.07 4.1 4.1 0 0 0-2.02.44Zm-1.53-11.32a.68.68 0 0 0 .2-.45c0-.04.01-.06.04-.08a.08.08 0 0 1 .1 0c.53.37.78.76.74 1.18a2.91 2.91 0 0 1-.56 1.52.2.2 0 0 1-.08.07l-.38.15a.2.2 0 0 0-.12.12c-.17.42-.5.7-.98.82-.65.18-1.15.23-1.5.16-.55-.11-.93-.4-1.12-.83-.06-.14-.13-.5-.2-1.08-.03-.2 0-.35.07-.46a3.43 3.43 0 0 1 3.62-1.07c.07.02.13 0 .17-.05Zm-2.45 2.82c.55.06 1.03-.18 1.08-.54.04-.37-.37-.71-.92-.77-.56-.07-1.04.17-1.08.53-.05.37.37.71.92.78Z" fill="#008CD0"/></svg>