<svg width="56" height="56" viewBox="0 0 56 56" xmlns="http://www.w3.org/2000/svg"><path fill="#DEDEDE" d="M0 0h56v56H0z"/><path fill-rule="evenodd" d="M15.75 22.5a.75.75 0 1 0 0-1.5.75.75 0 0 0 0 1.5Zm-2.08 3.58v.6a.8.8 0 0 1 .69-.37c.49 0 .64.35.64.62v5.44c0 .63-.5 1.15-1.12 1.15h-.21V34H18v-.48h-.41c-.63 0-1.09-.52-1.09-1.15V25h-.52l-2.31 1.08ZM4 22v.57h.44c.5 0 .91.41.91.91v9.06c0 .5-.4.91-.9.91H4V34h3.4c3.26 0 5.45-1.7 5.45-4.25 0-2.05-1.78-2.63-2.77-2.5.8-.4 2.18-1.34 2.18-3.1 0-1.78-1.45-2.17-2.18-2.15H4Zm3 .93V27h2.2c.48-.05 1.45-.53 1.45-2.08 0-1.94-1.53-2.42-2.17-2.42-.63 0-1.1.1-1.48.43Zm0 4.57v5.2c.25.26 1.01.8 2.05.8 1.3 0 1.98-1.13 1.98-2.91 0-1.78-1.33-3.09-2.76-3.09H7Zm15.91-1.34c-.43.45-1.01 1.27-1.41 1.86V25h-.55l-2.3 1.08v.6a.8.8 0 0 1 .68-.37c.49 0 .67.35.67.62v5.44c0 .63-.52 1.15-1.15 1.15h-.2V34h4.14v-.48h-.23c-.63 0-1.06-.52-1.06-1.15v-2.76c.71-2.48 2.05-3.45 2.76-3.45.56 0 .66.48.72.78l.02.07v6.23c0 .2-.12.35-.31.35h-.12V34h3.33v-.41h-.22c-.63 0-1.18-.52-1.18-1.16v-5.42c0-1.47-.71-2.01-1.47-2.01s-1.42.41-2.12 1.16Zm14.73-.08v.6a.8.8 0 0 1 .69-.37c.48 0 .67.35.67.62v5.44c0 .63-.53 1.15-1.16 1.15h-.2V34h4.15v-.48h-.24c-.62 0-1.05-.52-1.05-1.15v-3.21c.74-2.15 1.95-3 2.61-3 .6 0 .82.57.89.85v6.23c0 .2-.09.35-.27.35h-.13V34h3.16v-.41h-.22c-.63 0-1.04-.52-1.04-1.16v-5.42c0-1.47-.86-2.01-1.62-2.01-.75 0-1.41.41-2.11 1.16-.39.4-.88 1.08-1.27 1.65V25h-.56l-2.3 1.08Zm-8.1.42v2.2h.65c.33-2.05 1.22-3.06 2.34-3.06.89 0 .95.6.97.91v1.28c-1.87.9-5 2.44-5 4.3 0 1.49 1.28 1.87 1.83 1.87 1.2 0 2.55-1.48 3.17-2.21v1.46c-.01.25.3.75.93.75.8 0 2.14-.95 2.57-1.42v-.63c-.32.28-1.32.86-1.6.86-.27 0-.4-.27-.4-.41v-5.76c0-.68 0-1.64-1.58-1.64-1.62 0-3.26 1-3.89 1.5Zm3.96 3.12v-.93c-2.2.43-3.5 1.64-3.5 2.8s1.26 1.16 1.36 1.16c1.66 0 2.04-2.02 2.14-3.03Zm17-7.87a.75.75 0 1 1-1.5 0 .75.75 0 0 1 1.5 0Zm-2.83 4.93v-.6l2.3-1.08h.53v7.37c0 .63.46 1.15 1.09 1.15H52V34h-4.33v-.48h.2c.63 0 1.13-.52 1.13-1.15v-5.44c0-.27-.16-.62-.64-.62a.8.8 0 0 0-.7.37Z" fill="#E60010"/></svg>