<svg width="56" height="56" viewBox="0 0 56 56" xmlns="http://www.w3.org/2000/svg"><path fill="#F0F3FA" d="M0 0h56v56H0z"/><circle cx="17" cy="17" r="5" fill="#57A32F"/><path d="M33 17a5 5 0 1 0-5 5h5v-5Z" fill="#1F9759"/><path d="M28 23a5 5 0 0 1 5 5v5h-5a5 5 0 0 1-5-5v-5h5Z" fill="#008382"/><path d="M22 28a5 5 0 1 0-5 5h5v-5Z" fill="#1F9759"/><path d="M44 17a5 5 0 1 0-10 .11V22h10v-5ZM22 39v-5h-5a5 5 0 1 0 .07 10H22v-5Z" fill="#008382"/><path d="M28 34a5 5 0 0 0-5 5v5h4.93a5.86 5.86 0 0 0 .14 0H33V34h-5ZM39.02 23H39a5 5 0 0 0-5 5v5h10V23h-4.98ZM39 33Z" fill="#0267A0"/><path fill="#044474" d="M34 34h10v10H34z"/></svg>