<svg width="56" height="56" viewBox="0 0 56 56" xmlns="http://www.w3.org/2000/svg"><path fill="#F0F3FA" d="M0 0h56v56H0z"/><path d="M27.1 12h2.1c4.8.51 8.61 2.54 11.44 6.1 5.63 7.1 3.93 17.56-3.18 22.87a16.2 16.2 0 0 1-18.4.32c-8.23-5.73-9.62-17.48-2.29-24.71A16.09 16.09 0 0 1 27.09 12Zm-6.98 16.01c1.5-.07 3.05-.15 3.84 1.35.8 1.49 1.63 2.52 3.43 2.78 2.58.37 4.6-1.57 4.61-4.17v-11.5c-7.51-2.4-14.88 1.87-16.06 9.83a12.05 12.05 0 0 0 5.67 12.08c5.43 3.34 12.87 1.98 16.5-3.5 2.42-3.64 2.78-7.6 1.07-11.84a11.03 11.03 0 0 0-3.04-4.26c-.03-.01-.14.03-.14.04v8.38a9.98 9.98 0 0 1-.34 3.28 8.04 8.04 0 0 1-12.73 3.72 8.14 8.14 0 0 1-2.98-6c0-.12.05-.18.17-.19Z" fill="#0C4CA3"/><path d="M29.36 20.3 28.8 23a.08.08 0 0 1-.08.06l-.87-.06a.08.08 0 0 1-.07-.08l-.19-2.72a.08.08 0 0 1 .09-.09l1.61.1a.08.08 0 0 1 .07.04.08.08 0 0 1 .01.06ZM26.65 20.3l.38 2.67a.1.1 0 0 1-.07.11l-.8.25a.1.1 0 0 1-.11-.06l-1.12-2.47a.1.1 0 0 1 .06-.13l1.54-.46a.1.1 0 0 1 .12.08ZM31.87 21.3l-1.4 2.26a.11.11 0 0 1-.13.04l-.75-.32a.11.11 0 0 1-.07-.13l.74-2.58a.11.11 0 0 1 .06-.07.11.11 0 0 1 .1 0l1.4.63a.11.11 0 0 1 .07.07.11.11 0 0 1-.02.1ZM24.09 21.2l1.29 2.4a.09.09 0 0 1-.03.11l-.7.5a.09.09 0 0 1-.12 0l-1.88-1.97a.09.09 0 0 1-.03-.07.09.09 0 0 1 .04-.06l1.3-.94a.09.09 0 0 1 .07-.02.09.09 0 0 1 .06.05ZM22 22.92l2.02 1.8a.1.1 0 0 1 .01.13l-.47.7a.1.1 0 0 1-.12.03l-2.43-1.18a.1.1 0 0 1-.05-.06.1.1 0 0 1 .01-.08l.89-1.33a.1.1 0 0 1 .1-.03.1.1 0 0 1 .04.02ZM27.92 31.22a3.43 3.43 0 1 0 0-6.85 3.43 3.43 0 0 0 0 6.85ZM20.64 25.25l2.5 1.02a.11.11 0 0 1 .06.13l-.2.78a.11.11 0 0 1-.13.08l-2.65-.28a.11.11 0 0 1-.1-.14l.37-1.51a.11.11 0 0 1 .1-.08h.05Z" fill="#FE4D01"/></svg>