<svg xmlns="http://www.w3.org/2000/svg" width="56" height="56"><path fill="#0055A7" d="M0 0h56v56H0z"/><path d="M22.71 18l-.05.33h.65L22.87 21h.53l.53-3m2.17 1.32c-.13-.05-.24-.12-.27-.22-.1-.32.05-.65.36-.88.23-.13.47-.22.74-.22.31 0 .53.08.69.22.26.2.25.65.05.88a.75.75 0 01-.36.22c.18.08.29.18.38.3.21.42-.04.86-.4 1.11-.25.2-.54.27-.9.27-.54 0-1.03-.33-.98-.92.04-.38.37-.62.7-.76h-.01zm-.17.76c-.04.35.24.51.55.51.34 0 .66-.17.76-.5.03-.36-.23-.54-.56-.54-.36 0-.66.16-.75.53zm.42-1.32c-.04.27.15.4.4.4.22 0 .49-.13.53-.38 0-.25-.12-.4-.39-.4-.23 0-.5.13-.54.38zM29.8 21h-.58l1.89-2.6h-1.63l.1-.4h2.12l-.1.44m-9.11-2.42h.46c-.01.16-.01.27.07.36.05.1.16.16.26.16.13 0 .25-.05.34-.12.11-.06.13-.17.16-.28.02-.1 0-.16-.02-.25-.01-.06-.13-.12-.24-.17l-.16-.07c-.2-.06-.32-.16-.36-.17-.1-.1-.16-.18-.18-.29-.01-.1-.05-.22-.01-.35a.98.98 0 01.35-.58c.2-.17.4-.26.63-.26.24 0 .44.1.55.22.13.13.17.35.13.6h-.49a.3.3 0 00-.06-.25c-.05-.06-.13-.1-.25-.1a.33.33 0 00-.24.1.39.39 0 00-.13.25c-.02.16.11.28.38.4.06 0 .11.04.16.06.2.08.36.2.4.33.06.11.1.29.06.53-.06.24-.16.46-.37.64-.2.16-.45.22-.72.22-.26 0-.46-.06-.6-.24a.97.97 0 01-.11-.73M25.6 14l-.5 3h.5l.54-3m1.04 3h-.53l.51-2.95h.5l-.07.35c.16-.14.26-.23.42-.3.13-.05.29-.1.47-.1.38 0 .64.12.8.32.16.25.2.57.13.98l-.3 1.7h-.53l.3-1.56c.04-.32 0-.55-.07-.7-.07-.14-.25-.24-.47-.24a.78.78 0 00-.62.28c-.16.18-.25.48-.34.87l-.2 1.34m5.86-1c-.18.33-.4.57-.69.77a1.5 1.5 0 01-.89.24c-.6 0-1.03-.32-1.2-.91-.1-.36-.03-.81.17-1.13.31-.54.93-.96 1.56-.96.34 0 .63.08.83.26.22.2.36.44.4.8h-.58c-.18-.67-1-.61-1.47-.26-.38.34-.57.98-.27 1.43.16.2.36.29.65.29.39 0 .69-.22.9-.53h.59m1.16-.29c0 .44.33.8.78.8.37 0 .7-.2.91-.5h.58c-.37.57-.86 1-1.58 1-.38 0-.73-.15-.96-.46-.38-.43-.32-1.13-.04-1.6A1.8 1.8 0 0135.4 14c.27 0 .5.06.7.17.33.18.52.56.55.93 0 .2 0 .41-.03.62l-2.42-.02zm1.94-.46c-.03-.44-.34-.74-.78-.74-.5 0-.88.31-1.07.74h1.84M34.03 21h-.58l1-1c-.07.07-.2.05-.3.05-.3 0-.57-.1-.77-.27-.55-.57-.03-1.41.59-1.66.24-.1.46-.12.69-.12.52 0 1.22.36 1.14.98-.07.42-.45.77-.73 1.06l-1.04.96zm1.22-1.93c.03-.4-.28-.66-.67-.66-.43 0-.8.2-.9.64-.03.4.3.62.68.62.35 0 .83-.2.9-.6z" fill="#fff"/><path d="M37.65 24.6l1.12-5.85c.27-1.26.33-2.1.27-2.52-.07-.42-.38-.9-.9-1.48h2.57c.95.05 1.76-.22 2.29-.75l-4.48 23.48c-.24 1.28-.39 2.64-.32 3.08.06.42.36.89.89 1.44h-4.72l1.84-9.75a20 20 0 00.42-3.2 4.08 4.08 0 00-1.96-3.55 4.18 4.18 0 00-2.34-.64c-1.56 0-3.38.64-4.63 1.87a8.78 8.78 0 00-2.45 4.77c-.44 2.36-.11 4.28 1.03 5.8.95 1.28 2.65 1.9 4.32 1.9 1.11 0 2.29-.36 3.5-1.08l-2.88 3.61c-.67.2-1.3.27-1.94.27-2.11 0-4.2-.46-5.43-1.46a6.76 6.76 0 01-2.34-3.5 10.6 10.6 0 01-.16-4.9c.58-2.83 1.9-5.2 4-7.15 2.01-1.85 4.57-2.78 6.96-2.78 2.11 0 3.9.8 5.34 2.38" fill="#fff"/><path d="M19.17 26.16l2.67-3.4c1-.33 1.9-.48 2.61-.48 1.78 0 4.34.62 5.5 1.9 1.7 1.78 2.27 4.25 1.65 7.43a13.04 13.04 0 01-5.12 7.94c-2.16 1.66-5.6 2.45-8.71 2.45a26.5 26.5 0 01-6.77-.7c.53-.3.91-.65 1.11-1.02.23-.38.43-1 .58-1.85l3.74-19.66c.25-1.26.34-2.12.3-2.52-.07-.41-.36-.9-.92-1.45h2.56c1 0 1.76-.26 2.32-.77l-4.75 24.64c1.12.33 2.14.49 3.08.49 1.93 0 4.47-.62 5.8-1.86a8.5 8.5 0 002.66-4.9c.4-2.11.22-3.81-.56-5.14-.76-1.32-2.85-1.98-4.45-1.98-1 0-2.1.29-3.3.88" fill="#D09B2C"/></svg>