<svg xmlns="http://www.w3.org/2000/svg" width="56" height="56"><path fill="#F0F3FA" d="M0 0h56v56H0z"/><path fill-rule="evenodd" d="M17.37 28c2.28 0 4.13-1.8 4.13-4s-1.85-4-4.13-4a4.07 4.07 0 00-4.14 4c0 2.2 1.85 4 4.14 4zm0-1.75c1.14 0 2.06-1 2.06-2.25 0-1.24-.92-2.25-2.06-2.25-1.15 0-2.07 1-2.07 2.25 0 1.24.92 2.25 2.07 2.25zM12.8 22.1c-.17-2.38-3.96-2.26-5.81-1.91v7.59c4.15.71 5.98-.37 6-2.1.01-1.15-.68-1.88-1.3-1.88 1.1-.4 1.13-1.3 1.11-1.7zm-1.81.23c.02-.87-1.33-.88-2-.76v1.59c.65.08 1.98.05 2-.83zm-2 2.44c.67-.13 2.02-.12 2 .78-.02.9-1.35.93-2 .85v-1.63zM36.27 24c0 2.2-1.85 4-4.14 4A4.07 4.07 0 0128 24c0-2.2 1.85-4 4.13-4 2.29 0 4.14 1.8 4.14 4zm-2.07 0c0 1.24-.93 2.25-2.07 2.25-1.14 0-2.06-1-2.06-2.25 0-1.24.92-2.25 2.06-2.25 1.14 0 2.07 1 2.07 2.25zM22 20.21c2.7-.42 5.77-.49 5.87 2.45 0 .53-.26 1.72-1.35 2.27l1.9 3.07h-2.14l-1.58-2.58H24V28h-2v-7.79zm2 1.59c.67-.17 2.02-.16 2 1.01-.02 1.17-1.35 1.2-2 1.1V21.8zm17.81-1.16a4.27 4.27 0 00-2.34-.64c-1.47 0-2.8.75-2.87 2.28-.07 1.46 1.76 2.2 2.18 2.35l.04.02.14.06c.39.13 1.1.38 1.04.96-.05.52-.47.67-.85.67a4.9 4.9 0 01-2.32-.76l-.83 1.5c.37.3 1.53.92 3.15.92C41.2 28 42 26.48 42 25.67c0-.73-.3-1.72-1.9-2.34-1.56-.6-1.56-.9-1.56-1.12v-.01c0-.3.3-.64.93-.6.63.02 1.14.22 1.83.6l.51-1.56zm.67-.64h2v8h-2v-8zM45 20h2v6h3v2h-5v-8z" fill="#1E3B65"/><path d="M9.84 28.99a1.25 1.25 0 00-.2-.61c-.07.68.12 1.1.23 1.22l-.02-.33v-.28zm.6-.55c.04.07.12.3.09.63 0 .08-.03.18-.04.28-.03.13-.05.25-.05.32-.08-.13-.2-.57 0-1.23zM6.51 32.6c.26-.92 1.33-2.76 3.56-2.74.48-.02 1.65.19 2.5 1.2a3.42 3.42 0 00-2.32-.9c-1.33.06-2.36.85-3.1 2.28l-.64.16zm2.38-4.15c.06.06.2.26.27.58l.05.28.05.33c-.12-.11-.36-.5-.37-1.19zm-.35.7c-.12-.31-.3-.48-.36-.53.12.68.43 1.02.56 1.1a2.43 2.43 0 01-.1-.3l-.1-.27zm-1.03-.3c.07.04.25.2.4.5.04.06.08.16.12.26l.13.3c-.14-.08-.47-.4-.65-1.07zm-.18.88a1.29 1.29 0 00-.45-.45c.24.64.6.92.76.99-.05-.06-.1-.18-.17-.29a3.7 3.7 0 00-.14-.25zm-1.03.06c.08.03.28.15.49.42l.15.24c.07.11.14.22.19.27-.16-.05-.54-.3-.83-.93zm.03.86a1.3 1.3 0 00-.57-.32c.42.55.85.73 1.01.75a2.5 2.5 0 01-.24-.23 3.73 3.73 0 00-.2-.2zm-.9.35c.08 0 .32.03.61.2l.24.16c.1.07.21.15.28.18-.16.01-.62-.08-1.14-.54zm.4.75c-.33-.1-.57-.09-.65-.07.6.34 1.07.34 1.22.3l-.3-.13-.28-.1zM5 32.3c.08-.02.32-.06.65.01l.28.09.32.09c-.15.05-.62.1-1.25-.19z" fill="#FCB63D"/><path d="M34.76 30h1.03v5.23c.5.29 2.16.26 2.16-1.26 0-.62-.38-1.72-1.87-1.22l.4-.72c.72-.12 2.28.1 2.28 1.75 0 1.84-1.5 2.19-2.29 2.22-.35 0-1.18-.05-1.71-.2.08-.07.24-.32.26-.74v-4.33c0-.18-.05-.52-.26-.73zM23.9 32c.21.02.47.03.63 0l1.11 2.92.92-2.32c.04-.12.06-.46-.16-.6h.99c0 .09.02.4.1.6.07.2.6 1.63.87 2.32l.9-2.32c.04-.13.05-.5-.2-.6h1.05l-1.67 4c-.17-.05-.55-.3-.77-.88l-.75-1.97L25.81 36c-.19-.04-.62-.28-.85-.88L24 32.6l-.01-.03c-.07-.15-.22-.48-.36-.57h.28zM7.68 32c.1.09.29.45.28.84v2.54c0 .15-.05.48-.28.62H9a.86.86 0 01-.28-.62v-1.7c-.01-.3.14-.93.86-1 .09-.01.3 0 .43.12v-.72c-.21-.11-.78-.17-1.3.54L8.65 32c-.15.02-.44.01-.68 0h-.28zm4.78 0c1.38.03 1.72 1.37 1.71 2h-2.95c.1 1.26 1.1 1.48 1.69 1.43a3.8 3.8 0 001.26-.39l-.43.72c-.4.18-.88.24-1.19.24a2 2 0 01-2.18-2.03c0-.58.37-2 2.1-1.97zm-1.2 1.43h2.06c-.1-.78-.62-.9-.98-.9-.82 0-1.05.6-1.08.9zm12.08.57c0-.63-.33-1.97-1.71-2-1.73-.03-2.1 1.39-2.1 1.97A2 2 0 0021.72 36c.31 0 .8-.06 1.19-.24l.44-.72a3.8 3.8 0 01-1.27.4c-.59.04-1.6-.18-1.69-1.44h2.96zm-.85-.57h-2.07c.04-.3.27-.9 1.09-.9.35 0 .88.12.98.9zM43.38 32c1.38.03 1.71 1.37 1.7 2h-2.95c.1 1.26 1.1 1.48 1.7 1.43a3.8 3.8 0 001.26-.39l-.44.72c-.4.18-.88.24-1.18.24a2 2 0 01-2.18-2.03c0-.58.36-2 2.09-1.97zm-1.2 1.43h2.06c-.1-.78-.63-.9-.98-.9-.82 0-1.05.6-1.08.9zm-27.07-.61c0-.34-.19-.71-.28-.82h.25c.24.02.55.03.73 0l.06.63c.48-.52.94-.64 1.3-.63 1.13.04 1.42.87 1.42 1.28v2.15c.02.3.2.5.28.57h-1.32c.18-.1.26-.42.27-.57v-1.84a.94.94 0 00-.94-.96c-.86.02-1.04.65-1.01.96v1.84c.02.32.2.51.29.57h-1.33a.83.83 0 00.28-.57v-2.61zm18.54.35c-.07-1.25-1.45-1.26-2.13-1.1l-.52.8c1.48-.61 1.94 0 1.94.24 0 .25-.23.43-1.42.69-.96.2-1.13.7-1.13 1.02 0 1.11 1.28 1.26 1.85 1.15l.47-.58c-.54.14-1.57.04-1.5-.57.07-.5 1.18-.82 1.73-.92v1.2c0 .7.73.85 1.1.83l.33-.5c-.61 0-.73-.41-.72-.61v-1.65zM40.38 30c-.43.07-.84.1-1 .1.19.16.25.46.25.6v4.61c0 .4-.17.62-.24.69h1.26c-.2-.16-.27-.53-.27-.69V30zm8.2 2.18c-.76-.3-2.63-.36-2.63.94 0 .3.17.82 1.3 1.15 1.37.4 1 1.3 0 1.3-.8-.01-1.4-.4-1.6-.6l.3.87c.92.26 3.05.37 3.05-1.05 0-.27-.16-.86-1.23-1.15-1.33-.35-1.25-1.04-.34-1.12.17 0 .63.04 1.15.29v-.63z" fill="#019745"/></svg>