<svg width="56" height="56" xmlns="http://www.w3.org/2000/svg"><path fill="#F0F3FA" d="M0 0h56v56H0z"/><path d="M50.974 22.795a.676.676 0 00-.531-.595c-2.067-.463-10.645-2.2-21.97-2.2h-.94c-11.331 0-19.91 1.738-21.976 2.2a.683.683 0 00-.531.595l-1.024 9.124c0 .02.013.034.026.034 12.847-.655 20.37 2.352 22.961 3.964.622.39 1.413.39 2.034 0 2.573-1.612 10.101-4.619 22.949-3.965.02 0 .026-.014.026-.033l-1.024-9.124z" fill="#EB1923"/><path d="M4.001 31.772l.02-.156c8.85-.875 21.633-.405 28.32 3.367-1.115.457-2.806 1.403-3.318 1.716a1.908 1.908 0 01-2.034 0 23.6 23.6 0 00-2.126-1.148C21.23 33.8 14.406 31.505 4.21 31.986a.194.194 0 01-.21-.213" fill="#FDD700"/><path d="M51.997 31.772l-.019-.156c-8.844-.875-21.646-.399-28.332 3.38 1.107.45 2.799 1.383 3.336 1.703a1.87 1.87 0 002.035 0c.512-.313 1.218-.692 2.125-1.149 3.602-1.82 10.457-4.045 20.648-3.563.123.005.227-.091.208-.215" fill="#7FBD3F"/><path d="M12.267 26.406c.47.195.733.598.733 1.114 0 .882-.598 1.48-1.627 1.48H9v-5h2.174c.932 0 1.607.542 1.607 1.486 0 .359-.193.724-.514.92zM10 25v1h1.174c.373 0 .61-.142.617-.482.006-.366-.238-.518-.617-.518H10zm0 2v1h1.373c.373 0 .627-.145.627-.48 0-.413-.311-.52-.678-.52H10zm8 1.849v.15h-.638c-.51 0-.718-.413-.718-.413l-.71-1.086H15V29h-1v-4.998c.687 0 1.374-.005 2.067 0 1.1 0 1.702.829 1.702 1.714 0 .64-.31 1.193-.863 1.476L18 28.849zM16.055 26.5c.431 0 .783-.35.777-.784 0-.42-.334-.716-.777-.716H15v1.5h1.055zM19 29h1v-5h-1v5zm21 0h1v-5h-1v5zm-19.464-4v-1h4.256l-.298.623c-.084.188-.278.377-.492.377H23v4h-1v-4h-1.464zm5.339 3l-.522 1h-1v-.143L26.612 24h.488l2.253 4.857V29h-1l-.486-1h-1.992zm.327-1h1.329l-.678-1.5M43.522 28L43 29h-1v-.143L44.259 24h.489L47 28.857V29h-1l-.486-1h-1.992zm.327-1h1.329l-.678-1.5m-13.5.718V29h-1v-5h.316L33 26.794V24h1v5h-.304M36 26.218V29h-1v-5h.316L38 26.794V24h1v5h-.304" fill="#fff"/></svg>