<svg width="56" height="56" xmlns="http://www.w3.org/2000/svg"><path fill="#0089D0" d="M0 0h56v56H0z"/><path d="M16.623 23H9.066C8.481 23 8 22.579 8 22s.48-.998 1.066-.998h7.557c2.263 0 4.098 1.805 4.098 4.026a3.955 3.955 0 01-1.35 2.97 3.992 3.992 0 011.35 2.978c0 2.222-1.837 4.022-4.098 4.022H9.066C8.481 34.998 8 34.584 8 34c0-.579.48-1 1.066-1h7.557c1.082 0 1.962-.967 1.962-2.024 0-1.058-.88-1.976-1.962-1.976H9.066C8.481 29 8 28.58 8 27.997c0-.58.48-.997 1.066-.997h7.559c1.081 0 1.961-.91 1.961-1.973-.001-1.062-.881-2.027-1.963-2.027zm22.751 0h7.56c.587 0 1.066-.421 1.066-1s-.478-.998-1.066-.998h-7.56c-2.259 0-4.097 1.805-4.097 4.026 0 1.179.52 2.238 1.351 2.97a3.98 3.98 0 00-1.351 2.978c0 2.222 1.838 4.022 4.097 4.022h7.56c.587 0 1.066-.414 1.066-.998 0-.579-.478-1-1.066-1h-7.56c-1.079 0-1.96-.967-1.96-2.024 0-1.058.88-1.976 1.96-1.976h7.56c.587 0 1.066-.42 1.066-1.003 0-.58-.478-.997-1.066-.997h-7.559c-1.08 0-1.961-.91-1.961-1.973.001-1.062.881-2.027 1.96-2.027zm-13.381 0h6.933c.596 0 1.074-.421 1.074-1 0-.582-.476-1-1.074-1h-7.088C23.586 21 22 22.809 22 25.03c0 2.216 1.586 3.97 3.838 3.97h4.245C31.16 29 32 29.918 32 30.977 32 32.038 31.162 33 30.083 33l-7.015-.002C22.48 32.998 22 33.421 22 34c0 .584.48.998 1.068.998l7.305.002C32.63 35 34 33.2 34 30.976 34 28.754 32.629 27 30.373 27h-4.38C24.913 27 24 26.091 24 25.03c0-1.065.914-2.03 1.993-2.03z" fill="#fff"/></svg>