<svg xmlns="http://www.w3.org/2000/svg" width="56" height="56"><path fill="#F0F3FA" d="M0 0h56v56H0z"/><path d="M44 28c0 .65-.04 1.3-.12 1.93-8.83 0-7.8 2.5-7.8-6.33-2.61-3.93-7.36-8.43 1.48-8.43A15.98 15.98 0 0144 28z" fill="#00A759"/><path d="M43.9 29.8a15.9 15.9 0 01-1.46 5.1c-3.74-2.33-5.08 1.57-11.23.83 0-2.3 4.2-4.68 8.59-6.76l.14-.6h.5l.1.6c1.77.08 3.36.83 3.36.83z" fill="#3B3D3A"/><path d="M42.55 34.67A15.64 15.64 0 0139.62 39h-19.8c.9-2.09 11.4-3.69 15.73-3.69 1.56-.64 3.16-2.87 7-.64z" fill="#719625"/><path d="M30.47 30.53c-.6 4.38 4.36 5.35-2.77 6.24 0 0-5.9 2.77-11.2 2.35A15.95 15.95 0 0112 28c0-4.48 1.84-8.53 4.81-11.44l7.47 4.69 6.19 5.5s-1.05 2.36 0 3.78z" fill="#F79D38"/><path d="M39.62 39a15.95 15.95 0 01-23.23 0h23.23z" fill="#22090C"/><path d="M37.69 15.26s-4.67 6.43-13.5 6.43l-7.58-4.92a15.95 15.95 0 0121.08-1.5z" fill="#00B4B0"/><path d="M23.66 21.34l3.36 2.57 2.5-3.03a4.8 4.8 0 00-2.99-1.16c-1.32 0-2.54 1.12-2.87 1.62z" fill="#FFC019"/><path d="M29.68 20.63l-2.7 3.24 3.3 3c.37-.02 1.11-.3 1.72-1.6.6-1.31 1.83-1.37 2.37-1.16l-.07-2.27c1.02-.68 1.47-2.65.37-3.1-.87-.37-3.7 1.1-4.99 1.89z" fill="#D36C20"/><path d="M31.43 35.02c-.96-1.27-2.31-4.01-.09-4.92-.52.2-1.4.3-1.4-.6 0-1.19-.06-1.9.36-2.68a6.5 6.5 0 001.82-2.07c.46-.94 1.69-.86 2.24-.7l.9.7c.69-.11 2.26-.02 3.1 1.19-.39.49-1.04 1.92-.4 3.9-2.76 1.46-4.77 2.83-6.53 5.18z" fill="#579C20"/><path d="M34.87 26.38c-.42.24-1.18.98-.9 2l.9-2z" fill="#22090C"/><path d="M39.36 18.96c-1.97 1.85-3.98 2.44-4.74 2.5-.55.11-.5 1.81-.4 2.58l1 .8a3.98 3.98 0 013.22.9 2.98 2.98 0 011.5-2.3c1.33.42 1.84-.6 1.93-1.16-.56-2.22-1.9-3.14-2.5-3.32z" fill="#B4A51C"/><path d="M38.35 25.83c-.44-1.22.44-2.75.86-3l-.2 1.5-.66 1.5zm2.02-.54c.51-.59 1.51.08 1.73.45h-.8l-.93-.45z" fill="#22090C"/><path d="M15.05 35.8c.2-.5.6-1.74.7-2.82.11-1.35 1.11-2.73 1.73-2.85.5-.1 1.54-.04 2 0 .18-.24.54-.83.54-1.23-.4 0-1.23-.16-1.23-.81 0-.8.96-1.77 1.58-1.93-.06-.54 0-1.62.73-1.65.93-.04.73 1.65.5 1.65-.07 0 0 .08.12.22.25.29.73.84.65 1.52-.02.4-.14 1.22-.42 1.35-.23.14-.63.51-.35.88h.77c.5-1.48 1.86-4.34 3.43-4.31.27 0 .5.1.62.23.02.03.13.02.24 0 .13-.01.26-.03.28 0 .03.04-.05.12-.12.2-.08.08-.16.16-.14.2.14.29.37.76.43 1.22.07.37.29 1.2.66 1.58l-.66.88-1.15-1.42a4.73 4.73 0 00-.54 2.38c.12.4.38 1.41.38 2.28 0 .86-.59 1.41-.88 1.58.48.42 1.97 1.9 1.4 4.14h-1.11c.6-1.3.02-2.6-.72-2.72l-.96 2.72-1 .27c.42-1 1.24-3.72.5-4.03-.74-.3-1.77.03-2.2.23-.11-.32-.55-.95-1.35-.92-1 .04-1.73 1.04-1.65 1.73.1.54.57 2.13 1.65 2.72h-1.27l-1.08-2.4v2.4h-.61v-3.76a.82.82 0 000-1.11v-2.24c-.2 1.27-.76 3.82-1.47 3.82zm4.69-8.46c-.1.03-.3.15-.27.34.05.2.2.28.27.3v-.64z" fill="#0B0000"/><path d="M30.2 30.11c.15.13.91.02 1.2-.04-.23.09-.81.57-1 .79.07-.27-.1-.6-.2-.75z" fill="#22090C"/></svg>