<svg width="56" height="56" viewBox="0 0 56 56" xmlns="http://www.w3.org/2000/svg"><path fill="#F0F3FA" d="M0 0h56v56H0z"/><path d="M44 25.72 43.76 27H40l.23-1.28H44ZM41.37 24h1.84l-1.05 5.92v.34c.02.09.07.16.14.2a.7.7 0 0 0 .33.1c.09 0 .17 0 .26-.02l.25-.02-.13 1.33a3.17 3.17 0 0 1-1.03.15c-.4 0-.73-.09-.99-.24a1.34 1.34 0 0 1-.57-.65 2.12 2.12 0 0 1-.11-1L41.37 24ZM37.43 32h-1.9l1.23-6.77c.07-.47.22-.87.46-1.2.24-.34.56-.6.94-.77.4-.18.85-.27 1.35-.26a4.17 4.17 0 0 1 .99.13l-.15 1.34a2.7 2.7 0 0 0-.51-.07c-.2 0-.37.03-.54.1a.94.94 0 0 0-.63.73L37.44 32Zm2.44-6.3-.24 1.32H35.5l.24-1.32h4.13ZM29.02 29.1l.01-.12c.05-.41.16-.8.34-1.17a3.24 3.24 0 0 1 1.7-1.6c.4-.15.84-.22 1.32-.2.47 0 .87.08 1.21.24a2.26 2.26 0 0 1 1.3 1.57c.1.35.12.72.08 1.12l-.01.11a3.6 3.6 0 0 1-1.04 2.1 3.15 3.15 0 0 1-2.33.85 3 3 0 0 1-1.2-.25 2.3 2.3 0 0 1-1.3-1.55 3.1 3.1 0 0 1-.08-1.1Zm1.82-.12-.02.11-.01.52c0 .18.03.36.08.52.05.17.15.3.27.41.13.1.31.16.55.17.25 0 .46-.04.64-.14.17-.1.31-.23.42-.4a2.85 2.85 0 0 0 .38-1.12l.02-.11c.02-.16.02-.33.02-.52s-.03-.36-.09-.53a.84.84 0 0 0-.27-.42.86.86 0 0 0-.54-.18c-.26 0-.47.05-.65.15-.17.1-.31.24-.42.41-.12.17-.2.36-.26.56-.06.2-.1.38-.12.57ZM26.76 30.25c.04-.16-.01-.28-.15-.37a1.39 1.39 0 0 0-.48-.2l-.45-.11c-.25-.06-.5-.13-.75-.22s-.47-.2-.67-.33c-.2-.14-.35-.3-.47-.5-.12-.19-.17-.41-.16-.67.02-.32.1-.6.28-.83.17-.23.39-.42.66-.58a3.96 3.96 0 0 1 3.11-.23c.4.14.71.35.95.63.25.27.37.62.37 1.04h-1.86a.84.84 0 0 0-.07-.4.53.53 0 0 0-.25-.25.95.95 0 0 0-.45-.09c-.14 0-.28.02-.43.07-.13.05-.25.12-.36.21a.6.6 0 0 0-.18.35c-.02.1 0 .2.05.27.06.08.14.14.24.19a2.5 2.5 0 0 0 .65.17c.37.08.72.18 1.06.31.35.13.63.31.85.55.22.23.33.54.32.93-.02.33-.12.6-.31.84-.19.23-.43.42-.72.56a4.75 4.75 0 0 1-1.93.4 3.7 3.7 0 0 1-1.27-.23c-.4-.15-.72-.37-.96-.66a1.64 1.64 0 0 1-.38-1.06h1.74c0 .18.04.33.12.45.07.12.18.21.32.27.14.07.31.1.51.1.16 0 .31-.02.46-.06.15-.04.28-.1.4-.2.1-.09.18-.2.2-.35ZM23 23l-1.4 9H20l1.4-9H23ZM17.65 30.5l.45-2.5c.02-.13.01-.27-.02-.4a.5.5 0 0 0-.18-.3c-.1-.08-.24-.12-.44-.13-.16 0-.31.03-.44.09a.78.78 0 0 0-.32.23.96.96 0 0 0-.16.36l-1.88.01c.02-.32.12-.6.3-.85.2-.23.43-.43.72-.58a4.5 4.5 0 0 1 1.96-.43c.47 0 .89.1 1.26.26s.66.39.85.7c.2.29.28.65.24 1.08l-.45 2.42-.1.67c-.02.23.02.45.12.65V32h-1.84a2.65 2.65 0 0 1-.13-.8c0-.23.02-.47.06-.7Zm.66-2.14-.17.92h-.84c-.16 0-.32.02-.48.06-.16.03-.3.09-.43.17-.13.07-.23.17-.32.29a.84.84 0 0 0-.16.4.5.5 0 0 0 .03.3.5.5 0 0 0 .2.2c.1.06.2.08.34.09a1.57 1.57 0 0 0 1.03-.38.96.96 0 0 0 .28-.42l.36.7a2.61 2.61 0 0 1-.85.95 2.34 2.34 0 0 1-1.32.36c-.36 0-.7-.08-1-.22-.31-.15-.55-.35-.73-.6a1.35 1.35 0 0 1-.25-.88c.02-.38.13-.7.33-.95s.46-.45.78-.6c.32-.14.66-.24 1.04-.3.38-.07.75-.1 1.12-.1l1.04.01ZM10.72 30.7c.2 0 .39-.02.55-.1a1.04 1.04 0 0 0 .58-.74h1.8c-.04.45-.2.83-.49 1.16a2.8 2.8 0 0 1-1.09.74c-.43.17-.9.25-1.41.24-.49 0-.9-.09-1.26-.25a2.37 2.37 0 0 1-.85-.64 2.4 2.4 0 0 1-.46-.93 3.1 3.1 0 0 1-.07-1.1l.03-.14c.05-.4.16-.79.33-1.14a3.17 3.17 0 0 1 1.75-1.59c.4-.15.86-.22 1.37-.2.53 0 .99.1 1.36.3A2.06 2.06 0 0 1 14 28.3h-1.8c0-.17-.01-.33-.06-.48a.68.68 0 0 0-.27-.36.9.9 0 0 0-.52-.16c-.26 0-.48.05-.65.15-.17.1-.3.23-.4.4-.11.17-.2.35-.25.55-.05.2-.08.38-.1.55l-.02.14-.04.5c0 .18 0 .36.04.53.05.17.13.3.24.42.12.1.3.17.55.18Z"/><path d="M43.11 42A14.95 14.95 0 1 0 22 20.89 14.95 14.95 0 0 1 43.11 42Z" fill="#D1703B"/><path d="M21 20.97c.64-3.13 2.23-5.9 4.45-7.97a15.07 15.07 0 0 0-3.65 7.97H21Zm3.31 12.95A14.35 14.35 0 0 0 35.24 39c4.26 0 8.1-1.89 10.76-4.89a14.28 14.28 0 0 1-19.78-.19h-1.9Z" fill="#46639F"/></svg>