<svg width="56" height="56" viewBox="0 0 56 56" xmlns="http://www.w3.org/2000/svg"><path fill="#F0F3FA" d="M0 0h56v56H0z"/><path d="m39.19 21.53-1.39 1.82a12.7 12.7 0 0 0-2.2-1.51c-.8-.43-1.61-.75-2.44-.98a9.95 9.95 0 0 0-5.27.06c-1.13.33-2.2.85-3.2 1.57-.94.66-1.8 1.48-2.6 2.45a8.9 8.9 0 0 0-1.9 3.85c-.12.59-.2 1.22-.23 1.9a19.1 19.1 0 0 0 .32 4.1 23.15 23.15 0 0 0 3.15 7.14c.01.03 0 .04-.02.05l-.2.02h-.02a3.3 3.3 0 0 1-.6-.14 23.65 23.65 0 0 1-8-5.44c-.46-.47-.9-.99-1.3-1.55a11.34 11.34 0 0 1-2.09-4.88 12.91 12.91 0 0 1 1.74-9.07 11.17 11.17 0 0 1 3.93-3.7c1.42-.9 3-1.53 4.75-1.89a18.63 18.63 0 0 1 7.52.1c1.42.33 2.8.85 4.16 1.55A19.97 19.97 0 0 1 38.66 21l.53.52Z" fill="url(#azvu2wfi0)"/><path d="M47 28v-.17l-6.27-8.29a.04.04 0 0 0-.03-.02c-.02 0-.03 0-.04.02l-1.47 1.99-1.39 1.82-3.68 4.62c-.04.05.01.03.03.03h3.16c.03 0 .05.04.06.07a6.5 6.5 0 0 1-.01 2.13 11.01 11.01 0 0 1-8.03 8.75c-1 .24-1.98.31-2.93.21a542.59 542.59 0 0 0-2.05-.19c-.02 0-.03 0-.04.02v.04c0 .02.01.02.03.03.48.14.95.27 1.4.37 1.25.28 2.6.53 4.02.75.83.13 1.57.2 2.23.22 1.32.04 2.62-.18 3.88-.66a10.97 10.97 0 0 0 3.37-2.02 12.82 12.82 0 0 0 3-3.82c.9-1.71 1.4-3.99 1.52-5.87 0-.03.02-.03.05-.03H47Z" fill="url(#bzvu2wfi0)"/><defs><linearGradient id="azvu2wfi0" x1="37.34" y1="20.37" x2="25.37" y2="42.15" gradientUnits="userSpaceOnUse"><stop stop-color="#D65200"/><stop offset="1" stop-color="#FEBE64"/></linearGradient><linearGradient id="bzvu2wfi0" x1="40.74" y1="21.06" x2="30.79" y2="41.95" gradientUnits="userSpaceOnUse"><stop offset=".33" stop-color="#35006A"/><stop offset=".83" stop-color="#F38121"/></linearGradient></defs></svg>