<svg width="56" height="56" viewBox="0 0 56 56" xmlns="http://www.w3.org/2000/svg"><path fill="#F0F3FA" d="M0 0h56v56H0z"/><path d="M31.93 22.9c-.9-.57-1.95-.9-3.09-.9A5.93 5.93 0 0 0 23 28c0 3.31 2.62 6 5.85 6 1.14 0 2.2-.33 3.1-.9A7.72 7.72 0 0 1 25.9 36a7.9 7.9 0 0 1-7.8-8c0-4.42 3.5-8 7.8-8a7.72 7.72 0 0 1 6.02 2.9Z" fill="#0001B6"/><path d="M27.87 45c7.82 0 14.37-5.54 16.13-13h-5.96a13.72 13.72 0 0 1-13.1 10 13.65 13.65 0 0 1-12.35-8h-.26c2.37 6.43 8.43 11 15.54 11ZM12 23c2.08-6.95 8.4-12 15.87-12 7.82 0 14.37 5.54 16.13 13h-5.96a13.72 13.72 0 0 0-13.1-10c-5.83 0-10.8 3.74-12.77 9H12Z" fill="#0001B6"/></svg>