<svg width="56" height="56" viewBox="0 0 56 56" xmlns="http://www.w3.org/2000/svg"><path fill="#1F5AAA" d="M0 0h56v56H0z"/><path d="M38 29.5V26h1v3.5c0 .03.02.15.14.26.11.1.35.24.86.24.5 0 .75-.14.86-.24a.4.4 0 0 0 .14-.26V26h1v3.5c0 .3-.13.69-.46 1-.34.3-.85.5-1.54.5-.7 0-1.2-.2-1.54-.5-.33-.31-.46-.7-.46-1ZM45 26v5h1v-4l1.5 4h1l1.5-4v4h1v-5h-1.5L48 30l-1.5-4H45Z" fill="#FFFFFD"/><path d="M13.2 27.75c.45-2.11 2.05-3.87 2.8-4.22V23a5.55 5.55 0 0 0-3.92 4.22c-.45 2.54 1.17 5.08 1.91 5.78v-1.06c-.37-.35-1.24-2.08-.8-4.19Z" fill="#EC1E22"/><path d="m12 27.5-2 1 2 1-.5-.5H15v-1h-3.5l.5-.5ZM22 31h-1l-2-3v3h-1v-5h1l2 3v-3h1v5ZM24 27v-1h5v1h-2v4h-1v-4h-2ZM33.5 26H31v5h1v-2h1.42a.8.8 0 0 1 .1.11c.13.17.32.48.5 1.05l.3.84h1.07l-.42-1.16c-.16-.5-.34-.88-.52-1.15.32-.25.55-.64.55-1.19 0-.56-.25-.96-.58-1.2-.31-.23-.67-.3-.92-.3Zm0 2H32v-1h1.5c.09 0 .23.03.33.1.08.06.17.16.17.4 0 .24-.09.34-.17.4-.1.07-.24.1-.33.1ZM9 26.42v.83c-.17-.14-.7-.42-1.5-.42-1 0-1.5.35-1.5 1.67 0 .83.5 1.67 1.5 1.67.8 0 1.33-.28 1.5-.42v.83c-.4.34-1.17.42-1.5.42-2 0-2.5-1.8-2.5-2.5C5 26 6.5 26 7.5 26c.8 0 1.33.28 1.5.42Z" fill="#FFFFFD"/></svg>