<svg width="56" height="56" viewBox="0 0 56 56" xmlns="http://www.w3.org/2000/svg"><path fill="#F0F3FA" d="M0 0h56v56H0z"/><path d="M40.41 33a13.44 13.44 0 0 1-12.48 8.5A13.47 13.47 0 0 1 14.5 28c0-7.46 6.01-13.5 13.43-13.5 5.66 0 10.5 3.52 12.48 8.5h-1.57a11.99 11.99 0 0 0-22.9 5 11.99 11.99 0 0 0 22.9 5h1.57Z" fill="#95C346"/><path d="M43.2 33a16 16 0 1 1 0-10h-2.12a14 14 0 1 0 0 10h2.12Z" fill="#4E4A98"/><path d="M46 23h-8l3.77 4L46 23ZM46 33h-8l3.77-4L46 33Z" fill="#4E4A98"/><path d="M35.75 30a8 8 0 1 1 0-4h-2.09a6 6 0 1 0 0 4h2.09Z" fill="#95C346"/><path d="M37.43 30c-.91 4.56-4.87 8-9.62 8A9.9 9.9 0 0 1 18 28c0-5.52 4.4-10 9.81-10 4.75 0 8.7 3.44 9.62 8h-1.38a8.5 8.5 0 0 0-8.24-6.63A8.55 8.55 0 0 0 19.34 28c0 4.77 3.8 8.63 8.47 8.63 4 0 7.36-2.83 8.24-6.63h1.38Z" fill="#4E4A98"/><ellipse cx="27.73" cy="14.03" rx=".5" ry=".51" fill="#F0F3FA"/><ellipse cx="27.73" cy="19.72" rx=".71" ry=".72" fill="#F0F3FA"/><ellipse cx="27.73" cy="41.89" rx=".5" ry=".51" fill="#F0F3FA"/><ellipse cx="27.73" cy="36.2" rx=".71" ry=".72" fill="#F0F3FA"/></svg>