<svg width="56" height="56" viewBox="0 0 56 56" xmlns="http://www.w3.org/2000/svg"><path fill="#1F3365" d="M0 0h56v56H0z"/><path fill-rule="evenodd" d="M28 36.23a6.84 6.84 0 0 0 9.2-2.9 6.93 6.93 0 0 0-2.6-9.2A6.88 6.88 0 0 0 27.78 18a6.88 6.88 0 0 0-6.85 6.42l.6-.36c.4-3.1 3.05-5.5 6.25-5.5 3.48 0 6.3 2.84 6.3 6.34a6.33 6.33 0 0 1-6.55 6.35c-.06-.19-.1-.38-.13-.57l.38.02c3.18 0 5.76-2.6 5.76-5.8a5.77 5.77 0 0 0-11.4-1.14A6.9 6.9 0 1 0 28 36.23Zm6.64-11.33c0 .2 0 .39-.02.58a5.82 5.82 0 0 1 1.6 7.32 5.74 5.74 0 0 1-7.78 2.41 5.81 5.81 0 0 1-1.94-8.55 3.75 3.75 0 0 0-.53-.2 6.37 6.37 0 0 0 2.22 9.25 6.29 6.29 0 0 0 8.52-2.65 6.37 6.37 0 0 0-2.07-8.25v.1Zm-9.25 1.43a3.8 3.8 0 1 0 0 7.54 6.94 6.94 0 0 1 0-7.54Zm.47 8.18a4.48 4.48 0 0 1-5.5-4.41 4.5 4.5 0 0 1 8.7-1.61c.18-.07.35-.14.5-.23a5.05 5.05 0 0 0-9.75 1.84 5.06 5.06 0 0 0 6.47 4.87c-.15-.15-.29-.3-.42-.46Zm1.03 1a5.77 5.77 0 0 1-7.79-5.42 5.76 5.76 0 0 1 11.07-2.24c.15-.12.3-.26.43-.4a6.3 6.3 0 0 0-12.05 2.65 6.33 6.33 0 0 0 8.88 5.8 6.86 6.86 0 0 1-.54-.38Zm-3.95-12.04a5.05 5.05 0 0 1 9.89 1.43 5.06 5.06 0 0 1-5.48 5.06c.01-.18.03-.37.06-.55l.37.02a4.5 4.5 0 0 0 4.5-4.53 4.5 4.5 0 0 0-8.7-1.59l-.64.16Zm1.45-.26a3.78 3.78 0 0 1 7.17 1.7 3.8 3.8 0 0 1-.59 2.04 6.86 6.86 0 0 0-6.58-3.74Zm3.98 5.46a3.8 3.8 0 0 0-.37-.7 3.86 3.86 0 0 0-.39.74 3.74 3.74 0 0 0 .76-.04Zm-.84-1.27a3.82 3.82 0 0 0-.42-.37 5.1 5.1 0 0 0 1.67 7.55 5.03 5.03 0 0 0 6.82-2.11 5.1 5.1 0 0 0-1.1-6.17c-.04.21-.1.42-.16.62a4.55 4.55 0 0 1 .77 5.29 4.48 4.48 0 0 1-6.08 1.88 4.54 4.54 0 0 1-1.5-6.7Zm.25 4.4c2.8 0 5.22-1.7 6.28-4.12a3.83 3.83 0 0 1 .42 4.2 3.77 3.77 0 0 1-6.72-.07h.02Z" fill="#fff"/><path fill-rule="evenodd" d="M28 44a16 16 0 1 0 0-32 16 16 0 0 0 0 32Zm0-1a15 15 0 1 0 0-30 15 15 0 0 0 0 30Z" fill="#fff" fill-opacity=".5"/></svg>