<svg width="56" height="56" viewBox="0 0 56 56" xmlns="http://www.w3.org/2000/svg"><path fill="#F0F3FA" d="M0 0h56v56H0z"/><path d="M27.99 30.52V32h-3.87v-1.48H28ZM25 24v8h-2v-8h2Zm2.99 3.18v1.43h-3.87v-1.43H28ZM28 24v1.49h-3.88V24H28ZM22 24v8h-2l-3-4.98V32h-2v-8h2l3 4.98V24h2ZM14 24v8h-2v-8h2ZM8.98 29h2a3.66 3.66 0 0 1-.46 1.7c-.29.4-.69.73-1.2.96-.5.23-1.1.34-1.78.34-.56 0-1.06-.09-1.5-.26a3.05 3.05 0 0 1-1.8-1.95c-.16-.46-.24-.99-.24-1.57v-.43c0-.58.08-1.1.25-1.57a3.08 3.08 0 0 1 1.82-1.96A3.8 3.8 0 0 1 7.51 24c.72 0 1.34.12 1.84.36.5.25.89.58 1.16 1 .28.42.44 1.1.49 1.64H9c-.01-.3-.07-.74-.17-.93a.96.96 0 0 0-.47-.45c-.21-.1-.5-.15-.85-.15-.25 0-.47.04-.65.13-.78.36-.86 1.45-.86 2.18v.44c0 .73.06 1.81.84 2.18.19.09.42.13.7.13.3 0 .56-.04.77-.13.21-.1.37-.23.49-.42.11-.19.17-.69.18-.98Z" fill="#ED1D23"/><path d="M45 24v8h-.99L40 26v6h-1v-8h1l4 6 .01-6H45ZM37 24v8h-1v-8h1ZM35 31v1h-4.38v-1H35Zm-4-7v8h-1v-8h1ZM46 24h1v8h-1z" fill="#231F20"/><path fill="#EE181F" d="M47 24h5v1h-5zM47 27.5h5v1h-5v-1ZM47 31h5v1h-5z"/></svg>