<svg width="56" height="56" xmlns="http://www.w3.org/2000/svg"><path fill="#015CA7" d="M0 0h56v56H0z"/><path d="M18 21h4v2h-4v-2zm.007 3H22v10h-4l.007-10zM35 21h4v13h-4V21z" fill="#fff"/><path fill-rule="evenodd" d="M12.5 29a2.5 2.5 0 110-3h4.537s-.853-4.568-6.184-4.98c0 0-4.812-.242-6.506 4.48 0 0-1.328 3.144 1.213 6.16 0 0 1.655 2.284 5.062 2.34 0 0 2.79.171 4.889-2.208 0 0 1.41-1.468 1.512-2.792H12.5zm15.83-5.792c-.591.22-1.33.901-1.33.901V23h-4v13h4v-4.077C27.942 33.265 29.84 33 29.84 33c2.461 0 4.173-2.422 4.16-5 0-3.003-2-5.63-5.67-4.792zm.17 6.292a1.5 1.5 0 100-3 1.5 1.5 0 000 3zM51 23h-4v.81c-1.678-.883-3.717-.251-3.717-.251-2.341.915-3.263 2.999-3.283 5.155-.026 2.804 2.425 4.976 5.053 4.976 1.296.007 1.947-.458 1.947-.458v.76L51 34V23zm-5.5 7a1.5 1.5 0 100-3 1.5 1.5 0 000 3z" fill="#fff"/></svg>