<svg width="56" height="56" viewBox="0 0 56 56" xmlns="http://www.w3.org/2000/svg"><path fill="#F0F3FA" d="M0 0h56v56H0z"/><path d="M34.6 25.94c-.03-.03-.03-.06 0-.08 3.65-4.1 7.02-8.3 10.12-12.6.28-.38.35-.34.21.1-.7 2.29-1.8 4.41-3.33 6.37-.37.47-.76.9-1.2 1.32-.59.57-1.12 1.16-1.76 1.7a131.33 131.33 0 0 1-4 3.23l-.05-.04ZM15.6 21.8c-.19-.1-.2-.19 0-.29 1.33-.73 3.2-1.15 4.5-.2a5.04 5.04 0 0 1 1.5 1.82c.63 1.25 1.09 2.6 1.36 4.06a.5.5 0 0 1-.01.22.09.09 0 0 1-.07.06.1.1 0 0 1-.1-.03 19 19 0 0 0-7.18-5.65ZM44.4 21.35c-.97 3.25-4.5 5-7.58 6.06-2.1.7-4.26 1.29-6.5 1.73-.1.02-.2 0-.3-.03a.08.08 0 0 1-.05-.07.08.08 0 0 1 .05-.08c1.48-.63 3.04-1.34 4.69-2.1a53.32 53.32 0 0 0 9.47-5.68c.07-.05.14-.04.2.04.02.04.03.09.01.13ZM24.55 21.46a3.32 3.32 0 0 1 1.6 2.15c.36 1.55-1.18 3.5-2.32 4.54-.12.11-.18.08-.16-.08.02-.18.08-.35.19-.5a.37.37 0 0 0 .06-.2c.04-.74.3-1.44.33-2.18.06-1.27.05-2.44-.03-3.53-.02-.28.09-.35.33-.2ZM13.23 29.38a12.78 12.78 0 0 0-2.08 1.12.13.13 0 0 1-.12-.06 4.98 4.98 0 0 1 .55-2.7c.65-1.25 1.97-1.5 3.28-1.67.54-.07 1.1-.07 1.67 0 1.64.18 3.2.47 4.71.88.4.1.4.18-.02.23-.51.06-1.02.1-1.52.25-.35.11-.72.12-1.09.2-1.77.38-3.57.96-5.38 1.75ZM16.36 37.24a20.32 20.32 0 0 0-.74 2.4.17.17 0 0 1-.15.07.18.18 0 0 1-.08-.03c-1.26-.83-1.9-1.9-1.88-3.24.03-3.44 4.8-6.7 7.57-8.35.35-.22.4-.16.16.17a34.97 34.97 0 0 0-4.88 8.98ZM42.6 28.43c-.5 2.6-2.93 3.9-5.4 4.18-1.61.18-3.36.12-4.98-.15a37.15 37.15 0 0 1-7.69-2.15c-.04-.02-.06-.05-.04-.1 0-.01.01-.03.04-.04a58.05 58.05 0 0 0 17.95-1.85c.1-.03.13 0 .11.1ZM21.2 30.81c.16-.45.1-.92.36-1.33.11-.19.2-.18.25.04.2.83.15 1.67.38 2.5.12.44.15.87.24 1.32a36.7 36.7 0 0 0 3.35 9.59.08.08 0 0 1-.04.06l-.04.01c-.67-.01-1.38.04-2.01-.17-1.86-.62-2.77-2.4-3.04-4.25a11.91 11.91 0 0 1-.16-3.08c.14-1.36.33-2.76.57-4.18.03-.18.08-.35.14-.5ZM22.94 29.83a54.2 54.2 0 0 0 14.54 8.39.11.11 0 0 1 .08.07.1.1 0 0 1-.03.11 4.36 4.36 0 0 1-2.81 1.36c-5.05.36-9.51-6.05-11.89-9.7a.3.3 0 0 1-.05-.15.1.1 0 0 1 .05-.1.1.1 0 0 1 .1.02Z" fill="#F15923"/></svg>