<svg width="56" height="56" viewBox="0 0 56 56" xmlns="http://www.w3.org/2000/svg"><path fill="#F0F3FA" d="M0 0h56v56H0z"/><path fill-rule="evenodd" d="M34 21.3c0-.23.12-.29.35-.3h1.7c1.09.06 1.48.43 2.09 1.21.2.27.33.23.37-.1.02-.16 0-.32-.05-.47-.14-.46-.2-.92-.27-1.4-.05-.35-.1-.7-.19-1.07v-.74c.04-.32-.36-.43-.68-.43h-3.81c-.75 0-.86-.69-.32-1.22l.48-.47a4.24 4.24 0 0 0-.4-6.45A4.42 4.42 0 0 0 30.29 9a.25.25 0 0 0-.17.08.25.25 0 0 0-.07.18l-.02 1.68c0 .1.05.16.15.18l.53.13c.45.11.84.35 1.17.7.32.36.5.76.55 1.2.08.76-.1 1.39-.5 1.89-.4.49-.98.78-1.72.88-.12.02-.21.09-.21.2-.02 5.79-.01 11.57 0 17.35V45.8c0 .14.18.21.32.21h.15c.1 0 .15-.06.14-.16l-.04-.5c-.05-.48-.08-.84-.08-1.08 0-.4.05-.72.16-.93.35-.7.81-1.28 1.39-1.74.5-.4 1.17-.76 1.99-1.06 4.3-1.6 7-5.18 8.1-10.04.1-.4.2-.75.32-1.05.14-.37.32-.74.52-1.13a.21.21 0 0 0 0-.21c-.05-.08-.1-.1-.19-.1H37.54a.4.4 0 0 0-.3.11.16.16 0 0 0-.04.14c.01.06.04.1.1.12.3.16.58.38.85.67.2.2.32.48.34.82.03.47 0 .8-.1 1.02v.01c-.87 1.94-1.77 3.98-3.62 5.4-.05.03-.77.42-.77.06V21.3ZM15.13 37.42l-.13.38c-.14.44-.26.77-.37.97-.18.34-.4.58-.67.72-.67.34-1.3.27-1.89-.23a1.6 1.6 0 0 1-.55-.9 1.76 1.76 0 0 1 .64-1.8c.3-.2.63-.3 1.02-.29l.33.03c.58.06 1 .06 1.28 0 .46-.1.72-.35.76-.77a.93.93 0 0 0-.08-.47 13.1 13.1 0 0 1-.27-10.31.7.7 0 0 0 0-.51 1.3 1.3 0 0 0-.64-.76 1.07 1.07 0 0 0-.6-.1c-.12 0-.32.05-.58.12a3 3 0 0 1-.75.14c-.45 0-.82-.14-1.12-.43a1.79 1.79 0 0 1-.3-2.11 1.63 1.63 0 0 1 2.18-.7c.45.21.73.53.82.96.1.46.49.89 1.15 1.27.2.12.4.15.6.1.2-.03.36-.14.48-.32a12.62 12.62 0 0 1 8.88-5.53c.19-.03.35-.1.48-.23.11-.11.2-.26.24-.43a1.15 1.15 0 0 0-.2-1 4 4 0 0 1-.52-.78c-.13-.3-.16-.62-.08-.94.1-.47.36-.83.76-1.1l.4-.26c.4-.26.6-.15.6.32v30.46c0 .03-.02.06-.05.07a.07.07 0 0 1-.08 0 1.2 1.2 0 0 1-.22-.28.94.94 0 0 0-.19-.22.55.55 0 0 0-.31-.11 12.45 12.45 0 0 1-9.42-5.17.41.41 0 0 0-.32-.16c-.38-.03-.74.03-1.09.17-.1.03-.16.1-.2.2Zm9.19-10.5c-.35.04-.83-.11-1.44-.49a6.8 6.8 0 0 1-1.24-.96 2.2 2.2 0 0 1-.61-1.16c-.1-.41.04-.8.4-1.15.6-.6 1.11-1.04 1.53-1.32.61-.4 1.2-.6 1.75-.6.31 0 .59.12.82.37.24.24.37.55.4.92.11 1.22.09 2.29-.06 3.2-.06.36-.27.64-.62.86-.26.16-.57.27-.93.32Zm-1.89.84a2.68 2.68 0 0 1 1.31 1.05c.33.55.35 1.08.04 1.6a4.45 4.45 0 0 1-3.33 2.22c-.7.1-1.26-.08-1.69-.54-.38-.4-.62-.97-.7-1.7a7.6 7.6 0 0 1-.03-1.62c.06-.53.25-1 .56-1.44.41-.57.96-.73 1.64-.48l1.07.44c.5.22.88.37 1.13.47Zm2.14 4.12a.81.81 0 0 0-.55.17c-.93.67-1.81 1.29-2.63 1.84-.28.2-.41.55-.38 1.04 0 .21.05.42.12.62.07.2.16.35.26.48a7.97 7.97 0 0 0 1.8 1.51c.88.54 1.54.64 2 .3.5-.38.77-.9.78-1.58.03-.92.04-1.86.03-2.8 0-.37-.13-.75-.39-1.16a.29.29 0 0 0-.16-.12l-.37-.14c-.22-.1-.4-.15-.5-.16Z" fill="#13196F"/></svg>