<svg width="56" height="56" viewBox="0 0 56 56" xmlns="http://www.w3.org/2000/svg"><path fill="#F0F3FA" d="M0 0h56v56H0z"/><path fill-rule="evenodd" d="M13 43V13h30v30H13Zm28.76-4.14A33 33 0 0 1 42 42H22.02l19.74-3.14Zm-.67-3.5c.23.83.38 1.67.52 2.52l-14.86 2.36 14.34-4.88Zm-1.53-3.9c.47.86.9 1.84 1.25 2.95L27.88 38.8l.45-.4 11.23-6.94Zm-1.53-2.26c.35.42.7.89 1.02 1.4l-8.43 5.2 7.4-6.6ZM36 27.32c.45.33.9.7 1.34 1.15l-6.02 5.37L36 27.32Zm-2.23-1.2c.45.17.92.39 1.39.66L31.7 31.6c.03-.22.04-.44.05-.66l2.03-4.82Zm-2.37-.53c.48.03.95.1 1.41.22l-1.4 3.35v-3.57Zm.19-1.3-.66-.04-4.82-2.03c.17-.45.39-.92.66-1.39l4.82 3.47Zm7.2 3.83-.4-.45-6.94-11.23c.86-.47 1.84-.9 2.95-1.25l4.39 12.93ZM35.37 14.9l4.87 14.34-2.36-14.86c-.85.14-1.69.3-2.52.52Zm3.5-.67L42 33.98V14a33 33 0 0 0-3.14.23Zm-9.67 3.73c.42-.35.89-.7 1.4-1.02l5.2 8.43-6.6-7.4ZM27.32 20c.33-.45.7-.9 1.15-1.34l5.37 6.02L27.32 20Zm-1.73 4.6c.03-.48.1-.95.22-1.41l3.35 1.4h-3.57Zm0 1h4.82v4.82H25.6V25.6Zm-1.3-1.19-.04.66-2.03 4.82a9.55 9.55 0 0 1-1.39-.66l3.47-4.82Zm3.83-7.2s-7.86 4.98-11.68 7.34c-.47-.86-.9-1.84-1.25-2.95l12.93-4.39ZM14 42a33 33 0 0 0 3.14-.23L14 22.02V42Zm6.64-.9-4.88-14.34 2.36 14.86c.85-.14 1.69-.3 2.52-.52Zm.95-.28c1.11-.36 2.1-.78 2.95-1.25-2.43-3.92-7.34-11.68-7.34-11.68l4.4 12.93Zm5.2-2.78-6.6-7.4 5.21 8.42c.51-.32.98-.67 1.4-1.02ZM28.69 36l-6.52-4.68 5.37 6.02c.44-.44.82-.89 1.15-1.34Zm1.2-2.23-4.82-2.03c-.22 0-.44-.02-.66-.05l4.82 3.47c.27-.47.5-.94.66-1.4Zm.53-2.37h-3.57l3.35 1.41c.11-.46.19-.93.22-1.4ZM14 14a33 33 0 0 0 .23 3.14L33.98 14H14Zm.9 6.64 14.34-4.88-14.86 2.36c.14.85.3 1.69.52 2.52Zm3.06 6.16 7.4-6.61-8.42 5.21c.32.51.67.98 1.02 1.4ZM20 28.68l4.68-6.52-6.02 5.37c.44.44.89.82 1.34 1.15Zm4.6 1.73v-3.57l-1.41 3.35c.46.11.93.19 1.4.22Z" fill="#636466"/><path fill="#054E7C" d="M26 26h4v4h-4z"/></svg>