<svg xmlns="http://www.w3.org/2000/svg" width="56" height="56" viewBox="0 0 56 56"><path fill="#F0F3FA" d="M0 0h56v56H0z"/><path d="M18.44 28h-8.02c0-.14.1-.07 0-.4a2.23 2.23 0 0 1-.42-1.07c0-.55.25-.88.31-1 .11-.21 0-.44-.07-.67 0-.25.02-.5.18-.71.24-.32-.02-1.05-.1-1.63.23.42.78 1.14 1 1.44.41.55-.1.88.32 1.15.56.35.53.89.77.89s.59-.24.59-.47c0-.26-.22-.66-.13-1.02.13-.55 1.07-.88 1.2-1.11.18-.32-.07-.9-.07-1.17 0-.6.72-1.23.72-1.23s-.01 1.1.16 1.39c.16.29.34.34.87.92.17.18.25.42.25.65 0 .35-.14.7-.25.9-.11.23-.35.71-.08.88.33.2.55.6.55.6s-.02-.5 0-.8c.03-.35.25-.39.14-.87a2 2 0 0 1 .14-1.19s.08.38.17.61c.11.32.33.35.33.68 0 .16-.03.16.05.5.09.35.4 1.09 1 1.27.35.11.44.44.45.78.01.24 0 .5-.06.68z" fill="#EA3335"/><path d="M50 19v-.75c-3.96 0-10.18.03-15.34 2.06C29.92 22.18 26 25.61 26 30.6V32h-1.16c-.34 0-.83-.35-.84-.89v-.22c.03-.37.3-.89 1-.89h.52v-1h-.94c-.57 0-.99.38-1.16.62-.15.21-.26.45-.33.71-.06.26-.1.52-.09.78.03.59.22 1.05.54 1.38.32.34.76.51 1.32.51H27c-1-6.56 3.22-10.2 8.53-12.13 5.24-1.89 11-1.88 14.01-1.87H50zM6.4 31.14a4.7 4.7 0 0 1-.1-1.04c0-1 .14-2.09 1.38-2.1H9.5v-1l-1.85.01c-.85 0-1.49.22-1.91.67-.6.63-.74 1.43-.74 2.34 0 .9.19 1.88.86 2.46.49.43 1.13.52 1.76.52H9.5v-1H7.67c-.6 0-1.09-.22-1.27-.86zM10 31c0 1.13.9 2 2 2 1.15 0 2-.81 2-2 0-1.18-.8-2-2-2-1.12 0-2 .88-2 2zm3 0c0 .59-.36 1-1 1-.62 0-1-.43-1-1 0-.58.36-1 1-1 .59 0 1 .34 1 1zm3.47-2c.5 0 .88.15 1.15.35.27.2.38.58.38 1.15V33h-1v-2.32c0-.26 0-.44-.08-.53-.09-.1-.26-.15-.53-.15h-.79v3h-1v-4h1.87zm18.51.35c-.27-.2-.66-.35-1.15-.35H32v4h1v-3h.76c.26 0 .44.05.52.15.08.1.11.28.11.55V33h1.01v-2.5c0-.57-.14-.95-.42-1.15zM18.3 30v-1h.7v-.87c0-.64.4-1.13 1.05-1.13H21v1h-.34c-.48-.02-.66-.03-.66.44V29h1v1h-1v3h-1v-3h-.7zm3.3-3v1h1v-1h-1zm0 1.5V33h1v-4.5h-1zm6.47 3.97c.18.21.42.36.68.43.25.07.52.1.78.1H31v-1h-1.34c-.39 0-1.05-.1-1.05-.6H31v-.8h-2.39c0-.47.67-.6 1.05-.6H31v-1h-1.47a3 3 0 0 0-.78.12c-.27.07-.5.22-.68.44-.14.17-.26.37-.33.59-.08.24-.13.5-.13.77 0 .32.03.64.13.95.07.22.18.43.33.6zm12.7.43c-.27-.07-.5-.22-.68-.43a1.64 1.64 0 0 1-.34-.6c-.1-.31-.12-.63-.12-.95 0-.26.05-.53.13-.77.07-.22.18-.42.33-.6.18-.2.41-.36.67-.43a3 3 0 0 1 .79-.12H43v1h-1.33c-.38 0-1.04.13-1.04.6H43v.8h-2.37c0 .5.66.6 1.05.6H43v1h-1.45c-.27 0-.53-.03-.79-.1zM39.2 32h-.97-.25l-.3-.02c-.2-.03-.51-.13-.6-.39a1.78 1.78 0 0 1-.08-.57c0-.2.01-.4.07-.59.1-.27.4-.37.63-.4l.28-.03h1.22v-1h-1.17c-.26 0-.52.04-.78.1-.84.2-1.25 1.12-1.25 1.92 0 .56.2 1.12.57 1.5.2.2.43.33.68.4.25.05.51.08.77.08h1.18v-1z" fill="#1D6A9E"/><path d="M44.67 28.1c.07.17-.03.4 0 .58.06.43.06.76 0 .96-.05.15-.13.1-.2 0-.06-.1-.33-.85-.41-.94-.36-.56-.71-.34-1.21-.56-.53-.25-1.04-.53-1.53-.85-.22-.13-.32-.24-.32-.35 0-.11.1-.22.3-.37.6-.44 1.32-.7 2.07-.76.16 0 .31-.03.45-.05a4.35 4.35 0 0 1 .27-2.57c.14-.37.66-.67.48-.9a4.71 4.71 0 0 1-.93-2.23c-.07-.32.04-.79-.11-1.14-.13-.09-.33-.44-.33-.44l.2-.23s.36-.2.6-.08c.25.13 0 .75 0 .75s.03.68.21 1.19c.2.53.66 1.13.82 1.27 0-.22.08-.67.35-.85.43-.27.68.07.87.27.64-.67.73-.45 1.57-1.4.2-.23.43-.4.43-.4h.94c-.1.16-.16.2-.35.32a7 7 0 0 0-2.79 3.06.96.96 0 0 0-.05.28v.73c0 .42 0 .95-.41 1.49-.25.32-.26.61.05.98.21.24.35.31.35.77 0 .21-.17.47-.12.57.25.6.18 1.09.37 1.55.1.27.3.4.54.63.33.32.46.77.6 1.28.05.21.25.5.47.5.58.07.56.29.26.82-.1.17-.07.41-.15.6-.07.17-.2.42-.28.42-.3 0-.04-.5-.3-1.22-.26-.7-.86-1.5-1.26-1.93-.47-.53-.87-.92-1.24-1.54-.06-.09-.27-.8-.34-1.24-.45-.2-1.7-.02-1.7.15 0 .07.3.24.42.3.25.1.61.48.97.48.29 0 .4.02.44.1zM48.3 18.25h1s-.17-.25-.51-.25c-.34 0-.5.25-.5.25z" fill="#1D1D1B"/></svg>