<svg width="56" height="56" viewBox="0 0 56 56" xmlns="http://www.w3.org/2000/svg"><path fill="#F0F3FA" d="M0 0h56v56H0z"/><path d="M50.63 25.64a2.54 2.54 0 0 0-1.58-.64c-.5 0-1.05.3-1.05.86s.62.78 1.06.9c1.5.43 2.94 1.27 2.94 3.02 0 2.03-1.72 3.22-3.67 3.22A5.7 5.7 0 0 1 45 31.93l1.06-1.9a3.3 3.3 0 0 0 2.16.97c.54 0 1.28-.35 1.28-.99 0-.74-1-.96-1.56-1.16-.32-.1-.63-.2-.94-.32-1.04-.44-1.5-1.29-1.5-2.41A3.03 3.03 0 0 1 48.67 23c1.01 0 2.05.29 2.94.77l-.98 1.87ZM38.5 30.5h.42c1.6 0 2.6-.96 2.6-2.5 0-1.52-1.06-2.5-2.6-2.5h-.42v5ZM36 23h3.51c2.6 0 4.49 2.54 4.49 5 0 2.47-1.87 5-4.49 5H36V23ZM29.5 27.5h.47c.99 0 1.53-.47 1.53-1.26 0-.8-.54-1.24-1.53-1.24h-.47v2.5ZM35 33h-3.11l-2.39-3.85V33H27V23h3.9c1.81 0 3.1 1.24 3.1 3.09 0 1.5-.63 2.47-2.02 2.81L35 33ZM11 26.54a2.5 2.5 0 0 0-2.04-1.04 2.42 2.42 0 0 0-2.46 2.49c0 1.39 1 2.51 2.45 2.51.76 0 1.44-.34 2.05-1v3.02c-.71.26-1.43.48-2.2.48C6.1 33 4 30.63 4 27.97 4 25.32 6.1 23 8.82 23c.73 0 1.41.16 2.18.49v3.05Z" fill="#788FC5"/><path fill-rule="evenodd" d="M19.05 35A6.98 6.98 0 0 0 26 28c0-3.87-3.11-7-6.95-7a6.98 6.98 0 0 0-6.96 7c0 3.87 3.12 7 6.96 7Zm5.5-7.46c0 .76-.15 1.49-.43 2.15a5.2 5.2 0 0 0-5.08-6.23 5.2 5.2 0 0 0-5.07 6.23A5.55 5.55 0 0 1 19.05 22c3.04 0 5.5 2.48 5.5 5.54Zm-2.24 2.7a4 4 0 1 0-6.63 0 3.45 3.45 0 0 1-.4-1.63c0-1.98 1.66-3.61 3.72-3.61a3.68 3.68 0 0 1 3.72 3.6c0 .6-.14 1.15-.4 1.64ZM19 30a2 2 0 1 0 0-4 2 2 0 0 0 0 4Z" fill="#788FC5"/></svg>