<svg width="56" height="56" xmlns="http://www.w3.org/2000/svg"><path fill="#F0F3FA" d="M0 0h56v56H0z"/><path d="M24.637 14C21.87 17.518 16.369 24.684 14 29.113v-4.082c.628-2.527 1.893-6.483 4.352-11.031h6.285z" fill="#FDAF31"/><path d="M14 39.15v-4.411c.79-1.127 2.338-3.155 4.286-4.77l-2.857 9.18H14z" fill="#F37636"/><path d="M28.286 43H14v-5.146c2.99-4.072 8.072-6.108 8.572-6.108l-3.143 4.146c.857-.592 4.571-1.184 6.857-1.184-1.372.71-3.429 2.27-4.286 2.961 2.857 0 6.572 1.185 6.572 1.185-1.143 0-3.715.79-4.858 1.184 1.143.237 4 2.074 4.572 2.962zM42 39.847V43h-3.976c-5.418-2.68-9.388-4.128-9.388-4.128s5.988-1.232 13.364.975z" fill="#FDAF31"/><path d="M42 31v5.035c-8.736-1.365-15.715-1.327-15.715-1.327S32.835 30.737 42 31zm0-10.014v5.417c-10.67 1.871-19.429 5.343-19.429 5.343S29.538 22.653 42 20.986z" fill="#FDAF31"/><path d="M32 13.68c-9.433 5.55-13.714 16.29-13.714 16.29s3.058-2.88 5.22-4.443c5.091-3.68 3.923-2.666 11.352-7.404C42.286 13.384 42.572 7.46 32 13.68z" fill="#F17639"/></svg>