<svg xmlns="http://www.w3.org/2000/svg" width="56" height="56"><path fill="#E61C39" d="M0 0h56v56H0z"/><path d="M18 17h11.5l-.94 3H21.1a4.44 4.44 0 00-3.89 2.91l-3.39 11.57c-.58 2.7 1.7 3.56 2.81 3.52h6.88l-.9 3h-7.87c-4.7-.28-5.02-3.6-4.6-5.22L15 19.29c.83-1.97 2.35-2.34 3-2.28zm3.23 4h7.04l-.95 3h-4.66c-.95-.1-1.41.67-1.53 1.05l-1.9 6.93c-.37 1.72.58 2.06 1.1 2.02h4.4l-.86 3h-7.02c-2.07-.16-2.08-1.56-1.83-2.23l3.4-11.57c.66-1.86 2.15-2.24 2.81-2.2zm3.92 15.96l4.88-17.05c.28-1 1.38-2.97 3.58-2.9H48L47.01 20H35.8c-.76-.01-2.47.57-3.23 2.9l-3.2 11.4c-.27 1.2-1 2.98-4.2 2.66zM36.6 21h10.07l-.87 3h-7.94c-1.27-.01-1.67.97-1.8 1.46l-2.7 10.87c-.85 4-4.18 4.67-6.04 4.67h-3.16l.87-3h1.82c1.92-.13 3.03-1.67 3.47-3.08l2.96-10.87c.79-2.47 2.2-3.05 3.32-3.05zm.75 4h8.1l-.95 3h-8.03l.88-3z" fill="#fff"/></svg>