<svg width="56" height="56" fill="none" xmlns="http://www.w3.org/2000/svg"><path fill="#F0F3FA" d="M0 0h56v56H0z"/><path d="M34 34h6.74c1.863 0 2.95.495 2.972 1.85.02 1.3-.339 1.928-1.029 2.112 1.02.16 1.306.835 1.306 1.933 0 1.908-1.202 2.107-3.231 2.105H34v-8zm-19.756 0h5.442C20.919 34 22 35.001 22 36.223V37h-2v-.217c0-.404-.348-.783-.756-.783h-4.52c-.408 0-.724.38-.724.783v2.539c0 .404.316.678.724.678h4.52c.408 0 .756-.274.756-.678V39h2v.777C22 41 20.92 42 19.686 42h-5.442C13.01 42 12 41 12 39.777v-3.554C12 35 13.01 34 14.244 34zM33 34v5.707A2.29 2.29 0 0130.71 42h-5.614C23.824 42 23 40.968 23 39.707V34h2v5.237c0 .417.323.759.743.759h4.48a.774.774 0 00.777-.759V34h2zm3 2v1h5.216c.66 0 .605-1 0-1H36zm0 3v1l5.381-.004c.856 0 .783-1 0-1L36 39z" fill="#EC0677"/><circle cx="28" cy="21" r="10.5" stroke="#2E3192"/><rect x="24.685" y="16.067" width="2.094" height="4.592" rx="1.047" stroke="#2E3192" stroke-width=".5"/><rect x="26.961" y="15.639" width="2.094" height="4.592" rx="1.047" stroke="#2E3192" stroke-width=".5"/><rect x="29.083" y="14.254" width="2.094" height="3.084" rx="1.047" stroke="#2E3192" stroke-width=".5"/><path d="M33.75 19.984c0 1.933-1.545 3.494-3.444 3.494-1.9 0-3.445-1.561-3.445-3.494 0-1.933 1.545-3.494 3.445-3.494s3.445 1.562 3.445 3.494z" fill="#F0F3FA" stroke="#2E3192" stroke-width=".5"/><rect x="22.398" y="16.939" width="2.094" height="4.592" rx="1.047" stroke="#2E3192" stroke-width=".5"/><path d="M23.46 21.722v2.667c-.017.224.074.685.564.743h4.616c.13-.003.386-.134.37-.63a41.123 41.123 0 010-1.614c-.015-.31.184-.938 1.103-.976.919-.037 1.18.635 1.195.976v4.42m-1.075-6.309v.848" stroke="#2E3192" stroke-width=".5"/><path d="M24.529 25.854v.576h-.772v-.387h-.94v1.475h.94V27h.772v.54c0 .395-.306.474-.459.459a89.2 89.2 0 01-1.636 0c-.364-.007-.437-.313-.428-.46a146.31 146.31 0 010-1.497c.003-.4.287-.487.428-.481h1.738c.275 0 .357.189.357.292zm.634 1.717v-2.018h.797v1.95h.983v-1.95h.788c.002.532.004 1.681 0 2.018-.003.337-.244.429-.364.429-.406.001-1.318.003-1.725 0-.407-.003-.489-.29-.479-.429z" fill="#2E3192"/><path fill-rule="evenodd" d="M28.456 28v-2.45h1.964c.436 0 .536.305.532.413v.425c0 .182-.186.289-.278.32.202.013.27.26.278.374.003.038.007.18 0 .514-.007.333-.357.408-.532.404h-1.964zm1.568-1.062h-.778v.582h.778c.144 0 .19-.085.196-.142v-.277c0-.127-.133-.157-.196-.163zm-.778-.998h.778c.063.005.196.035.196.163v.276c-.005.057-.052.143-.196.143h-.778v-.582zm.227-6.686l.783-1.227.783 1.227-.783 1.227-.783-1.227zm1.561.283h1.375l-.653 1.19-1.375-.001.653-1.189zm-1.557 0h-1.375l.653 1.19 1.375-.001-.653-1.189z" fill="#2E3192"/></svg>