<svg xmlns="http://www.w3.org/2000/svg" width="56" height="56"><path fill="#0153A8" d="M0 0h56v56H0z"/><path d="M24.32 18.45c-1.41 1.48.37 6.36 1.55 7.8.06.12.24.33.38.27.15-.06.2-.31.22-.43.48-4.66 3.83-4.9 5.45-4.43-4.54-3.87-7.07-3.78-7.6-3.21z" fill="#F05922"/><path d="M36.52 28.03c-.58-1.96-5.7-2.86-7.55-2.57-.13 0-.4.05-.42.2-.02.16.17.33.27.4 3.8 2.75 2.32 5.77 1.1 6.93 5.64-1.98 6.82-4.22 6.6-4.96z" fill="#3F3F41"/><path d="M21.96 34c2 .47 5.36-3.5 6.03-5.25.06-.11.15-.37.03-.47-.13-.1-.37-.02-.48.03-4.28 1.92-6.16-.86-6.57-2.5-1.09 5.86.24 8 1 8.18z" fill="#076739"/><path d="M38.52 12.53c-10.3-.13-13.92 4.1-14.44 6.23 2.97-2.57 10.38 4.91 13.74 8.98.2.26.68.73.94.67.23-.07.28-.43.3-.67a32.1 32.1 0 00-.82-10.69c-.23-1.04.33-1.46.64-1.54l4.8-1.78c.12-.05.35-.2.32-.39-.04-.19-.23-.27-.33-.3a37 37 0 00-5.15-.51z" fill="url(#accvwrt2e)"/><path d="M34.55 43.27c5.27-8.84 3.4-14.08 1.81-15.6.75 3.84-9.45 6.5-14.65 7.38-.34.04-.98.22-1.05.47-.07.24.23.46.43.6a32.24 32.24 0 009.68 4.64c1.01.32 1.1 1.02 1.01 1.32l-.85 5.04c-.02.13-.01.4.17.47.19.06.36-.06.42-.13a36.86 36.86 0 003.03-4.2z" fill="url(#bccvwrt2e)"/><path d="M9.75 24.68c5.03 8.97 10.51 9.98 12.63 9.36-3.71-1.28-.93-11.42.91-16.36.13-.31.3-.96.11-1.15-.17-.17-.5-.03-.73.07a32.22 32.22 0 00-8.86 6.06c-.79.72-1.43.45-1.66.22l-3.94-3.25c-.1-.09-.35-.22-.5-.1-.14.14-.12.35-.09.44.7 1.94 1.7 3.95 2.13 4.7z" fill="url(#cccvwrt2e)"/><defs><linearGradient id="accvwrt2e" x1="26.03" y1="15.92" x2="39.14" y2="23.93" gradientUnits="userSpaceOnUse"><stop stop-color="#F9D04F"/><stop offset="1" stop-color="#F67D15"/></linearGradient><linearGradient id="bccvwrt2e" x1="38" y1="31.24" x2="29.43" y2="36.36" gradientUnits="userSpaceOnUse"><stop stop-color="#E8E9EB"/><stop offset="1" stop-color="#949599"/></linearGradient><linearGradient id="cccvwrt2e" x1="18.88" y1="33.79" x2="17.54" y2="19.05" gradientUnits="userSpaceOnUse"><stop stop-color="#93CA49"/><stop offset="1" stop-color="#0B8D43"/></linearGradient></defs></svg>