<svg width="56" height="56" viewBox="0 0 56 56" xmlns="http://www.w3.org/2000/svg"><path fill="url(#a1abwz0qx)" d="M0 0h56v56H0z"/><path d="M8 29.5V21h3.88c1.43 0 2.8.7 3.23 1.11.26-.4 1.15-1.11 3.27-1.11s3.28.55 3.62.83V21h3.38l.62 1.06V21h4v.83c.21-.28.85-.83 2.62-.83 1.78 0 2.2.55 2.38.83V21h13v8.37h-6.4c.92.58 1.15 2.34 1.16 3.15h-.57c.19.26.57.96.57 1.63 0 2.08-1.58 2.85-3.6 2.85-1.62 0-2.39-.39-2.58-.58V37H22.65a3.02 3.02 0 0 1-2.34-1.28A3.19 3.19 0 0 1 18.04 37H13v-7.78c-.3.2-.47.25-.69.28H8Z"/><path fill-rule="evenodd" d="M9 22h3.49A2.54 2.54 0 0 1 15 24.58v1.34a2.54 2.54 0 0 1-2.51 2.58H9V22Zm2 1.5h.88c.62 0 1.12.52 1.12 1.17v1.16c0 .65-.5 1.17-1.12 1.17H11v-3.5Zm3 6h3.49A2.54 2.54 0 0 1 20 32.08v1.34A2.54 2.54 0 0 1 17.49 36H14v-6.5Zm2 1.5h.88c.62 0 1.12.52 1.12 1.17v1.16c0 .65-.5 1.17-1.12 1.17H16V31Zm-.34-7h2.42c.01-.2.18-.5.8-.5.76 0 1.24.76 0 .99l-.63.09c-1.23.16-2.75.36-2.75 2.13.01.6.46 1.79 2.17 1.79.99 0 2.05-.6 2.33-.9v.9h2.5l-.5-.9v-4.1c-.07-.5-.88-1.5-3.13-1.5-2.8 0-3.2 1.49-3.2 2ZM20 25.5c.01.5-.25 1.5-1.39 1.5-.37-.02-1.11-.17-1.11-.6 0-.43 1.67-.78 2.5-.9Zm3-3.5v6.5h2v-3.63l1.94 3.63H29V22h-2v3.45L24.96 22H23Zm11.5 3h-1.56v1.5h.64c-.22.3-.52.5-.85.5-.86 0-1.22-.78-1.22-1.75s.4-1.75 1.22-1.75c.4 0 .7.19.9.5h2c-.4-1.17-1.38-2-2.97-2-2.11 0-3.16 1.46-3.16 3.25 0 1.8.92 3.25 3.16 3.25.69 0 1.32-.22 1.84-.6v.6H36V25h-1.5Zm7-3h-5v6.5h5V27h-3v-1H41v-1.5h-2.5v-1h3V22Zm.5 0h5v1.5h-3v1h2.5V26H44v1h3v1.5h-5V22ZM21 34.12V29.5h2v3.32c0 .91.74 1.18 1.03 1.2.71 0 .93-.9.95-1.34l.02.06V29.5h2V36h-2v-.95c-.38.48-1 .95-1.85.95A2.1 2.1 0 0 1 21 34.12Zm7-4.62V36h2v-3.44l.83 3.44h1.27l.9-3.44V36h2v-6.5h-2.39l-1.16 3.63-1.1-3.63H28Zm7.5 4.5c.07.67.86 2 3.4 2 2.55 0 3.13-1.44 3.1-2.17-.03-.47-.44-1.46-1.83-1.69-.14 0-2.15-.36-2.15-.84s1.42-.66 1.6.2h2.24c-.04-.67-.74-2-3.2-2-2.47 0-2.97 1.39-2.92 2.08.12.44.67 1.4 1.96 1.68 1.6.36 2.04.48 2.04.84s-.36.44-.92.44c-.55 0-1-.14-1.12-.54h-2.2Z" fill="#FFB90E"/><defs><linearGradient id="a1abwz0qx" x1="28" y1="0" x2="28" y2="56" gradientUnits="userSpaceOnUse"><stop stop-color="#F5B941"/><stop offset=".49" stop-color="#F9C56E"/><stop offset="1" stop-color="#F3B53E"/></linearGradient></defs></svg>