<svg width="56" height="56" viewBox="0 0 56 56" xmlns="http://www.w3.org/2000/svg"><path fill="#F0F3FA" d="M0 0h56v56H0z"/><path d="M11 35.93V20h.2v15.93H11ZM27.2 36V20h.2v16h-.2ZM29.2 36V20h.2v16h-.2ZM19.2 36V20h.2v16h-.2ZM36.8 36V20h.2v16h-.2ZM34.8 36V20h.2v16h-.2ZM15.2 36V20h.2v16h-.2ZM17.2 36V20h.2v16h-.2ZM32.8 36V20h.2v16h-.2ZM25.2 36V20h.2v16h-.2ZM40.8 36V20h.2v16h-.2ZM13.2 36V20h.2v16h-.2ZM30.9 36V20h.2v16h-.2ZM21 36V20h.2v16H21ZM23.2 36V20h.2v16h-.2ZM38.8 36V20h.2v16h-.2Z"/><path d="M45 21.1H11v-.2h34v.2ZM45 33.1H11v-.2h34v.2ZM45 23.1H11v-.2h34v.2ZM45 35.1H11v-.2h34v.2Z"/><path d="M42.8 35.93V20h.2v15.93h-.2ZM44.8 36V20h.2v16h-.2Z"/><path fill="#B22923" d="M4 24h48v8H4z"/><path fill-rule="evenodd" d="M9 25.98v4h1.9c.85 0 1.54-.75 1.54-1.69v-.61c0-.94-.69-1.7-1.54-1.7H9Zm.82.53v3.19h.8c.41 0 .87-.6.87-1.35v-.49c0-.74-.46-1.35-.87-1.35h-.8ZM13.6 30H13l1.54-4h.47l1.49 4h-1l-.32-1h-1.23l-.36 1Zm1-2.8.46 1.4h-.96l.5-1.4ZM19 30h.6l.35-1h1.23l.33 1h.99L21 26h-.46L19 30Zm2.05-1.4-.46-1.4-.5 1.4h.96Zm6.3 1.4h-.58l1.53-4h.46l1.48 4h-.98l-.33-1H27.7l-.35 1Zm1-2.8.45 1.4h-.95l.5-1.4ZM16.28 26v.53c.37-.11.82-.13 1-.12V30H18v-3.6c.56 0 .88.09.97.13V26H16.3Zm14.06.53V26H33v.53c-.1-.04-.44-.12-1-.12V30h-.65v-3.6c-.18 0-.63.02-1 .13Zm3-.53v.53c.37-.11.82-.13 1-.12V30H35v-3.6c.56 0 .8.09.9.13V26h-2.55Zm-9 0v4H25v-1.75h.79c.57 0 1.02-.5 1.02-1.12 0-.63-.45-1.13-1.02-1.13h-1.44Zm1.88 1.16c0 .71-.82.86-1.23.84v-1.7c.4 0 1.23.15 1.23.86ZM39 26v4h.7v-1.75h.22L40.9 30h.87l-1.1-1.75c.55-.06.98-.54.98-1.12 0-.63-.5-1.13-1.1-1.13H39Zm2 1.1c0 .7-.87.84-1.3.83v-1.67c.43 0 1.3.15 1.3.84ZM36 30v-4h2.25v.53c-.16-.04-.88-.11-1.55-.11v1.3h1.26c.05 0 .17-.05.29-.14v.67c-.04-.05-.14-.15-.24-.15H36.7v1.58c.34.01 1.32-.02 1.55-.22V30H36Zm6-4v4h.4v-2.82L44.9 30h.5v-4H45v2.75L42.57 26H42Zm6.07.9.25-.57a1.9 1.9 0 0 0-1-.33c-.55 0-1.3.4-1.3 1.16 0 .68.58.98.85 1.12l.08.05.13.06c.26.13.7.35.7.73 0 .46-.52.56-.72.56-.2 0-.55-.13-.71-.56-.02-.03-.15-.04-.21-.05l-.14.71c.13.08.54.22 1.06.22.66 0 1.44-.52 1.44-1.33 0-.71-.91-1.08-1.24-1.21l-.1-.04h-.01c-.16-.09-.39-.2-.39-.58 0-.38.4-.48.62-.48.22 0 .53.16.52.48l.17.07Z" fill="#F0F3FA"/></svg>