<svg width="56" height="56" viewBox="0 0 56 56" xmlns="http://www.w3.org/2000/svg"><path fill="#1B1613" d="M0 0h56v56H0z"/><path fill-rule="evenodd" d="M19 21H5v14h14V21Zm16 0H21v14h14V21Zm2 0h14v14H37V21ZM7 33V23h5.62c2.42 0 4.38 1.9 4.38 4.25v1.5A4.32 4.32 0 0 1 12.62 33H7Zm3-2v-6h2.25c.97 0 1.75 1.14 1.75 2.55v.9c0 1.4-.78 2.55-1.75 2.55H10Zm18.12 2c2.73 0 5-1.72 5.52-4h-3.75c-.28 1.17-1.02 2-1.89 2-1.1 0-2-1.34-2-3s.9-3 2-3c.87 0 1.61.83 1.89 2h3.75c-.52-2.28-2.8-4-5.52-4-3.1 0-5.62 2.24-5.62 5s2.52 5 5.62 5ZM38 33h3v-5.62L42.87 33h2.14L47 27.38V33h3V23h-4.37l-1.76 5.65-2-5.65H38v10Z" fill="#AF9E8B"/></svg>