<svg xmlns="http://www.w3.org/2000/svg" width="56" height="56"><path fill="#F0F3FA" d="M0 0h56v56H0z"/><path fill-rule="evenodd" d="M6 30H4.2a.2.2 0 00-.2.2v3.6c0 .11.09.2.2.2H6a2 2 0 100-4zm0 1H5v2h1a1 1 0 100-2z" fill="#4D5351"/><path d="M9 31.62c0-.95.82-1.72 1.84-1.72h.41c.79 0 1.46.46 1.72 1.11.11.27-.14.51-.44.51-.27 0-.48-.2-.65-.4a.84.84 0 00-.63-.27h-.4c-.46 0-.83.35-.83.77v.76c0 .42.37.77.82.77h.41c.25 0 .48-.11.63-.28.17-.19.38-.4.65-.4.3 0 .55.25.44.52a1.84 1.84 0 01-1.72 1.11h-.4C9.81 34.1 9 33.33 9 32.38v-.76zM14.3 30a.3.3 0 00-.3.3v3.4c0 .17.13.3.3.3h.4a.3.3 0 00.3-.3v-2.1l1 2.2c.04.12.16.2.28.2h.43a.3.3 0 00.29-.2l1-2.2v2.1c0 .17.13.3.3.3h.4a.3.3 0 00.3-.3v-3.4a.3.3 0 00-.3-.3h-.94a.3.3 0 00-.29.2l-.95 2.5-.95-2.5a.3.3 0 00-.28-.2h-.99zm33 0a.3.3 0 00-.3.3v3.4c0 .17.13.3.3.3h.4a.3.3 0 00.3-.3v-2.1l1 2.2c.04.12.16.2.28.2h.44a.3.3 0 00.28-.2l1-2.2v2.1c0 .17.13.3.3.3h.4a.3.3 0 00.3-.3v-3.4a.3.3 0 00-.3-.3h-.94a.3.3 0 00-.29.2l-.95 2.5-.95-2.5a.3.3 0 00-.28-.2h-.99zm-22.33-.09c.35.12.75.32.96.67a.5.5 0 01-.86.52c-.03-.05-.14-.15-.4-.24a2.66 2.66 0 00-.87-.1c-.31 0-.57.06-.73.15-.22.12-.17.3.03.38.21.1.52.14.93.2h.02c.36.05.81.11 1.18.28a1.23 1.23 0 01.77 1.17c0 .48-.33.8-.64.99a3.55 3.55 0 01-2.32.21c-.37-.1-.77-.3-1.02-.63a.5.5 0 11.8-.6c.06.08.22.19.48.26s.56.1.86.07c.3-.02.55-.1.7-.18.22-.13.13-.3-.05-.38-.2-.1-.51-.15-.92-.2l-.05-.01c-.35-.05-.8-.1-1.14-.26a1.17 1.17 0 01-.1-2.18 2.7 2.7 0 011.16-.28c.41-.01.84.04 1.21.16zm2.03.29c0-.11.09-.2.2-.2h.6c.11 0 .2.09.2.2v1.3h2v-1.3c0-.11.09-.2.2-.2h.6c.11 0 .2.09.2.2v3.6a.2.2 0 01-.2.2h-.6a.2.2 0 01-.2-.2v-1.3h-2v1.3a.2.2 0 01-.2.2h-.6a.2.2 0 01-.2-.2v-3.6zm5 3.6v-3.6c0-.11.09-.2.2-.2h2.05a1.25 1.25 0 010 2.5c.46 0 1.04 1.02 1.25 1.35a.1.1 0 01-.08.15h-.73a.42.42 0 01-.36-.2c-.33-.57-.95-1.3-1.33-1.3v1.3a.2.2 0 01-.2.2h-.6a.2.2 0 01-.2-.2zm1-2.05h1a.5.5 0 000-1h-1v1zm5 2.05v-3.6c0-.11.09-.2.2-.2h2.05a1.25 1.25 0 010 2.5c.46 0 1.04 1.02 1.25 1.35a.1.1 0 01-.08.15h-.73a.42.42 0 01-.36-.2c-.33-.57-.95-1.3-1.33-1.3v1.3a.2.2 0 01-.2.2h-.6a.2.2 0 01-.2-.2zm1-2.05h1a.5.5 0 000-1h-1v1zm-3-1.55c0-.11.09-.2.2-.2h.6c.11 0 .2.09.2.2v3.6a.2.2 0 01-.2.2h-.6a.2.2 0 01-.2-.2v-3.6z" fill="#4D5351"/><path fill-rule="evenodd" d="M42.1 34a.2.2 0 01-.18-.28l1.46-3.47a.4.4 0 01.37-.25h.92c.16 0 .3.1.37.25l1.46 3.47a.2.2 0 01-.18.28h-.65a.2.2 0 01-.19-.12l-.37-.88h-1.78l-.39.88a.2.2 0 01-.18.12h-.66zm2.17-3l.42 1h-.96l.42-1h.12z" fill="#4D5351"/><path d="M4 35h48v.5H4V35z" fill="#458DC7"/><path d="M30.35 27.34L31 28h-6l.65-.66h4.7zm-1.1-1.12l.64.66h-3.78l.64-.66h2.5zm-.37-.38h-1.76L28 25l.88.84z" fill="#4786B4"/><path fill-rule="evenodd" d="M28 17.89l-2.29 2.3a.35.35 0 000 .5l2.3 2.3 2.3-2.3a.35.35 0 000-.5l-2.3-2.3zm-3.28 2.3a.35.35 0 000 .5l3.29 3.28 3.29-3.29a.35.35 0 000-.5L28 16.9l-3.28 3.29zm-.44 1.92a.35.35 0 00-.5 0l-2.29 2.3 2.3 2.3c.13.13.36.13.5 0l2.3-2.3-2.3-2.3zm-3.78 2.3l3.29 3.29c.13.13.36.13.5 0l3.28-3.3-3.29-3.28a.35.35 0 00-.5 0l-3.28 3.29zm11.73-2.31a.35.35 0 00-.5 0l-2.3 2.3 2.3 2.3c.14.14.36.14.5 0l2.3-2.3-2.3-2.3zm-3.79 2.3l3.3 3.3c.13.13.35.13.49 0l3.28-3.3-3.28-3.28a.35.35 0 00-.5 0l-3.29 3.29z" fill="#428DC4"/></svg>