<svg width="56" height="56" viewBox="0 0 56 56" xmlns="http://www.w3.org/2000/svg"><path fill="#F0F3FA" d="M0 0h56v56H0z"/><ellipse cx="15.09" cy="28" rx="8.09" ry="8" fill="#FEF200"/><ellipse cx="28" cy="28" rx="8.09" ry="8" fill="#EE1C25"/><ellipse cx="40.91" cy="28" rx="8.09" ry="8" fill="#31409B"/><path d="M21.55 32.83a7.9 7.9 0 0 0 0-9.66 7.9 7.9 0 0 0 0 9.66ZM34.45 32.83a7.9 7.9 0 0 0 0-9.66 7.9 7.9 0 0 0 0 9.66ZM43.52 23h2.32l-3.18 4.88L46 33h-2.32l-2.18-3.34L39.32 33H37l3.34-5.12L37.16 23h2.32l2.02 3.1 2.02-3.1Z" fill="#F0F3FA"/><path fill-rule="evenodd" d="M14.62 23H10v10h4.62c2.42 0 4.38-1.82 4.38-4.05v-1.9c0-2.23-1.96-4.05-4.38-4.05Zm-.4 2H12v6h2.22c1.54 0 2.78-1.06 2.78-2.36v-1.28c0-1.3-1.24-2.36-2.78-2.36Z" fill="#F0F3FA"/><path d="M32.45 30.26A4.76 4.76 0 0 1 28.18 33a4.9 4.9 0 0 1-4.79-5c0-2.76 2.15-5 4.79-5 1.85 0 3.46 1.1 4.26 2.73l-1.83.71c-.45-1.16-1.37-1.95-2.43-1.95-1.5 0-2.71 1.57-2.71 3.51 0 1.94 1.21 3.51 2.7 3.51 1.08 0 2-.8 2.44-1.97l1.84.72Z" fill="#F0F3FA"/></svg>