<svg width="56" height="56" xmlns="http://www.w3.org/2000/svg"><path fill="#EB891A" d="M0 0h56v56H0z"/><path fill-rule="evenodd" d="M28 45c8.284 0 15-6.716 15-15 0-6.811-4.54-12.565-10.762-14.393a.855.855 0 00-.234.134c-.265.192-.56.502-.94.917l-.088.096c-.33.362-.72.79-1.125 1.127-.428.356-1.04.759-1.79.759-.743 0-1.36-.398-1.796-.75-.412-.333-.814-.756-1.157-1.117a63.858 63.858 0 00-.096-.1c-.395-.414-.706-.728-.984-.924a.879.879 0 00-.263-.143C17.542 17.434 13 23.188 13 30c0 8.284 6.716 15 15 15zm-4.25-29.396h.006-.006zm8.505 0h-.008.008zM28 46c8.837 0 16-7.163 16-16 0-7.278-4.86-13.422-11.511-15.362-.738-.215-1.482.599-2.244 1.433-.708.776-1.432 1.569-2.183 1.569-.75 0-1.5-.79-2.237-1.563-.796-.837-1.574-1.655-2.314-1.439C16.86 16.578 12 22.722 12 30c0 8.837 7.163 16 16 16z" fill="#00933F"/><path d="M24.515 28.5H14.5c0 12.455 9.245 15.184 13.867 14.99 10.47 0 13.505-10.008 13.098-14.99H31.72c-1.233 0-2.93 1.512-3.7 2.269-1.342-1.708-2.947-2.224-3.506-2.269z" fill="#fff"/><path d="M14 28h10.535l.02.002c.646.051 2.16.552 3.506 2.039.371-.342.843-.745 1.35-1.1.682-.477 1.526-.941 2.31-.941h10.204l.038.46c.212 2.592-.468 6.45-2.548 9.675-2.096 3.248-5.619 5.852-11.037 5.856-2.403.098-5.986-.56-8.982-2.856C16.372 38.817 14 34.868 14 28.5V28zm1.005 1c.12 5.788 2.322 9.289 5 11.342 2.777 2.13 6.122 2.742 8.342 2.65l.01-.001h.01c5.045 0 8.272-2.398 10.208-5.398 1.83-2.838 2.503-6.213 2.418-8.593h-9.272c-.449 0-1.07.293-1.737.76a13.44 13.44 0 00-1.613 1.365l-.399.392-.345-.44c-1.241-1.58-2.696-2.033-3.134-2.077h-9.488z" fill="#00933F"/><path d="M31.463 26.976c-1.945.877-3.114 1.764-3.463 2.097-1.735-1.452-2.151-1.106-3.83-2.097-1.677-.991-1.874-3.114-1.763-4.051 3.012-.305 4.973 1.906 5.577 3.05 1.449-2.86 4.162-3.225 5.338-3.05.19.985.086 3.174-1.859 4.051z" fill="#00933F"/><path d="M30.651 21.957c-1.503.678-2.38 1.363-2.651 1.621-1.341-1.123-1.69-.854-2.987-1.621-1.297-.767-1.449-2.408-1.363-3.132 2.329-.236 3.845 1.474 4.311 2.358 1.12-2.21 3.219-2.493 4.127-2.358.148.761.067 2.454-1.437 3.132z" fill="#00933F"/><path d="M30.651 17.764c-1.503.678-2.38 1.363-2.651 1.62-1.341-1.122-1.69-.854-2.987-1.62-1.297-.767-1.449-2.408-1.363-3.133 2.329-.236 3.845 1.474 4.311 2.359 1.12-2.211 3.219-2.494 4.127-2.359.148.762.067 2.454-1.437 3.133z" fill="#00933F"/><path d="M29.97 14.31c-1.133.51-1.766 1.024-1.97 1.219-1.01-.847-1.301-.642-2.279-1.22-.977-.577-1.092-1.814-1.027-2.36 1.755-.177 2.897 1.111 3.249 1.777.844-1.666 2.424-1.879 3.11-1.777.11.574.05 1.85-1.084 2.36zm-4.521-4.82c-.499.875 1.694 2.024 2.551 2.377 1.077-.618 2.966-1.62 2.48-2.378-.343-.535-1.334-.176-1.69 0C28.78 8.927 28.632 8 27.874 8c-.727 0-.808 1.059-.772 1.49-1.216-.388-1.541-.196-1.652 0z" fill="#00933F"/></svg>