<svg width="56" height="56" viewBox="0 0 56 56" xmlns="http://www.w3.org/2000/svg"><path fill="#F0F3FA" d="M0 0h56v56H0z"/><path d="M20.59 32.91 20.06 36h13.99l1.5-9.31 3.7 9.31h5.56l2.69-16.5h-4.45l-1.68 9.96-3.32-8.93H22.69l-.52 3.06c-1.2-2.01-3.42-3.09-4.86-3.09H9.72L7 36h7.51c1.06 0 3.88-.37 6.08-3.09Zm5.86-9.28h6.4l-1.67 9.28h-6.36l.54-3.1h4.25l.74-3.1H25.9l.55-3.09ZM12.53 32.5l1.52-9h3.33c2.23 0 2.57 2.4 2.46 3.59-.52 4.05-2.89 5.3-4 5.41h-3.31Z" fill="#6A2016"/><path d="M21.52 31.99 21 35h13.76l1.49-9.03L39.88 35h5.48L48 19h-4.38l-1.65 9.65L38.7 20H23.59l-.52 2.99c-1.19-1.95-3.4-2.99-4.82-2.99H10.7L8 35h7.47c1.05 0 3.86-.36 6.05-3.01ZM26.95 23h6.4l-1.67 9h-6.36l.54-3h4.25l.74-3H26.4l.55-3Zm-13.92 9 1.52-9h3.33c2.23 0 2.57 2.4 2.46 3.59-.52 4.05-2.89 5.3-4 5.41h-3.31Z" fill="url(#aa2saoksk)"/><ellipse cx="46.28" cy="22.43" rx="1.18" ry="1.27" fill="url(#ba2saoksk)"/><ellipse cx="26.65" cy="27.8" rx="1.18" ry="1.27" fill="#FDDED3"/><path d="M8.55 31.93c1.1-.63 2.77-1.4 4.84-2.05l.17-1a36.32 36.32 0 0 0-4.82 2.02l-.19 1.03Zm.26-1.43a31.13 31.13 0 0 1 4.83-2.12l.15-.89c-1.97.81-3.71 1.7-4.86 2.33l-.12.68Zm32.11-4.61a16.57 16.57 0 0 1-4.14 1.4l.65 1.62c1.47-.25 2.88-.69 4.17-1.24l-.68-1.78Zm.9 2.36.15.4.09-.5c1.95-.8 3.62-1.8 4.88-2.72l-.48 2.87c-2 1.29-4.75 2.61-7.97 3.24l-.85-2.1c1.48-.25 2.89-.67 4.18-1.19Zm-6.09.86.28-1.71c-.38.04-.77.06-1.15.06-.87 0-1.63-.03-2.32-.08l-.3 1.64a27.52 27.52 0 0 0 3.5.09Zm-3.6.44a26.82 26.82 0 0 0 3.51.1l-.37 2.26h-.61a23.1 23.1 0 0 1-2.94-.15l.42-2.2Zm-1.94-.87.38-1.53c-1.19-.2-2.1-.46-3-.72-1.57-.46-3.07-.9-5.83-.9-.46 0-.93.04-1.41.1a4.9 4.9 0 0 1-.03 1.27c.6-.05 1.22-.08 1.83-.08 3.59 0 4.82.56 6.08 1.12.58.26 1.16.53 1.98.74Zm-9.97-1.33c.64-.07 1.28-.1 1.91-.1 3.29 0 4.53.56 5.81 1.14.46.21.92.42 1.48.61h-3.56l-.04.23c-.95-.36-2.27-.6-4.44-.6-.52 0-1.04.01-1.54.04.15-.4.28-.83.38-1.32ZM42.6 25a32.07 32.07 0 0 0 5-3.62l-.49 3c-1.25 1-2.94 2.13-4.93 3.04L42.6 25Z" fill="url(#ca2saoksk)"/><defs><linearGradient id="aa2saoksk" x1="28" y1="19" x2="28" y2="35" gradientUnits="userSpaceOnUse"><stop offset=".01" stop-color="#E6C664"/><stop offset=".13" stop-color="#C92026"/><stop offset=".55" stop-color="#EC1C24"/><stop offset="1" stop-color="#B01D21"/></linearGradient><linearGradient id="ba2saoksk" x1="46.6" y1="22.43" x2="45.1" y2="21.16" gradientUnits="userSpaceOnUse"><stop stop-color="#FDDED3"/><stop offset="1" stop-color="#FDDED3" stop-opacity="0"/></linearGradient><linearGradient id="ca2saoksk" x1="6.95" y1="30.91" x2="48.75" y2="26.66" gradientUnits="userSpaceOnUse"><stop stop-color="#A27C2C"/><stop offset=".48" stop-color="#E6C64F"/><stop offset="1" stop-color="#E6C78A"/></linearGradient></defs></svg>