<svg width="56" height="56" xmlns="http://www.w3.org/2000/svg"><path fill="#00A937" d="M0 0h56v56H0z"/><path d="M26.261 12.921c.756-1.397 2.762-1.397 3.518 0l13.064 24.138c.721 1.332-.244 2.952-1.759 2.952H14.956c-1.516 0-2.48-1.62-1.76-2.952L26.262 12.92z" fill="#fff"/><path fill-rule="evenodd" d="M33.307 23H21.915l-1.111 2h3.885c1.018 0 1.296.724 1.307 1.062-.011.979-.028 2.476 0 3.706.029 1.23-.86 1.267-1.307 1.232h-6.304c-.735 0-1.225.761-1.378 1.04l-2.95 5.629c-.566.95.07 1.296.459 1.33l26.665.018c.99 0 .884-.69.707-1.017l-1.166-1.983h-1.484c.933 1.566.248 2.07-.212 2-3.086.011-9.511.011-10.19-.017-.678-.028-.848-.658-.836-.96v-5.353c0-.531.565-.687.836-.687h7.685c1.611 0 1.338-.915 1.044-1.498-.4-.738-1.059-1.914-1.676-3.017-.729-1.3-1.4-2.499-1.522-2.756-.226-.476-.647-.729-1.06-.729zm-9.31 12a3 3 0 11-5.999.002A3 3 0 0123.997 35zm8.005-5a3 3 0 10.001-6.002A3 3 0 0032.002 30z" fill="#00A937"/><ellipse cx="27.899" cy="15.909" rx=".624" ry="2.081" fill="#00A937"/><ellipse rx=".652" ry="1.997" transform="matrix(.6635 .74817 -.69065 .7232 29.711 18.368)" fill="#00A937"/><ellipse rx=".652" ry="1.997" transform="matrix(.6635 .74817 -.69065 .7232 29.711 20.982)" fill="#00A937"/><ellipse rx=".652" ry="1.997" transform="matrix(-.6635 .74817 .69065 .7232 26.329 18.368)" fill="#00A937"/><ellipse rx=".652" ry="1.997" transform="matrix(-.6635 .74817 .69065 .7232 26.329 20.982)" fill="#00A937"/></svg>