<svg width="56" height="56" viewBox="0 0 56 56" xmlns="http://www.w3.org/2000/svg"><path fill="#F0F3FA" d="M0 0h56v56H0z"/><path d="m44.47 23.81-26.1-9.45a.43.43 0 0 1-.23-.2 16.7 16.7 0 0 1 8.4-3.1c4-.33 7.7.65 11.08 2.93 3.4 2.3 5.69 5.58 6.85 9.82ZM17.83 14.38c.11.01.17.08.17.21.02 8.96.02 17.92.01 26.88 0 .05 0 .09-.03.12a.58.58 0 0 1-.09.1.82.82 0 0 1-.29-.15 17.1 17.1 0 0 1 .23-27.16ZM34.34 27.37l-.37-.13c.06.01.03-.08-.08-.29-.14-.26-.33-.5-.58-.73l-.5-.49a3 3 0 0 0-.76-.56 6.07 6.07 0 0 1-.95-.78 1.43 1.43 0 0 0-.6-.3 2.34 2.34 0 0 1-.62-.27 7.1 7.1 0 0 0-3.4-1.14c-1.58-.41-3.13-.63-4.65-.65v-2.4c0-.13.07-.18.2-.13l12.2 4.4c.07.02.1.07.1.14v3.33Z" fill="#9C3320"/><path d="M21.83 22.02c1.52.03 3.07.25 4.64.66l-4.7.04c-.05-.32-.03-.55.06-.7Z" fill="#fff"/><path d="m33.9 26.95-.54-.44a.29.29 0 0 0-.19-.06H28.4c-.12 0-.14.04-.05.13l.55.55c.07.08.16.11.26.11h4.81l.37.13v.26h-4.88c-.08 0-.1.03-.05.1l.3.45c.04.07.1.1.19.1h4.94c.14.08.23.21.27.39h-4.98c-.1 0-.13.04-.1.13l.2.44c.03.1.1.14.2.14h5.16c.08.08.14.22.18.4l-5.4.01a8.46 8.46 0 0 0-1.41-2.4 8.98 8.98 0 0 0-3.73-2.55c-.33-.12-.66-.26-1-.42.44.07.86.19 1.24.35.3.13.59.2.84.2h5.12c.12 0 .13-.03.03-.1l-.68-.46c-.17-.11-.46-.17-.86-.17-1.91.03-3.83.03-5.75 0l-.12.07a.27.27 0 0 1-.2.03l-1.65-.3a.34.34 0 0 0-.07-.18h7.33c.18 0 .19-.04.03-.12a8.84 8.84 0 0 0-1.03-.45 3.05 3.05 0 0 0-1.1-.17c-1.85.02-3.7.02-5.57 0l-.02-.4 4.7-.04a7.1 7.1 0 0 1 3.4 1.14c.2.12.4.2.63.27.26.07.46.17.6.3.47.44.79.7.95.78a3 3 0 0 1 .76.56l.5.5c.25.21.44.46.58.72Z" fill="#4B4B4C"/><path d="M22.13 23.86c-.36.16-.47-.09-.34-.74 1.86.02 3.72.02 5.58 0 .4 0 .77.05 1.1.17.36.13.7.29 1.02.45.16.08.15.13-.03.13l-7.33-.01Z" fill="#fff"/><path d="m22.2 24.03 1.66.31c.06.01.13 0 .19-.03l.12-.07c.11.11.13.17.06.18.34.16.67.3 1 .42a8.98 8.98 0 0 1 3.73 2.54 8.46 8.46 0 0 1 1.45 2.47l.47 2.16c.01.06 0 .13-.02.2-.06.18-.1.2-.13.08a7.4 7.4 0 0 0-4.25-2.74c-1.5-.36-3.05-.41-4.64-.16l-.05-5.22c0-.07.03-.11.1-.13.1-.03.2-.03.31 0Z" fill="#B0B0B0"/><path d="M26.88 25.36h5.22l.04.02.69.57c.02.01.03.04.02.07-.01.03-.03.04-.06.04l-5.06-.02-.04-.01-.84-.55c-.03-.02-.04-.04-.03-.07.01-.03.03-.05.06-.05Z" fill="#fff"/><path d="M45 27.78a17.08 17.08 0 0 1-7.1 14.06c0-.17.04-.33.12-.5.02-.05-.02-.11-.02-.18V25.53c0-.16.14-.22.29-.16L45 27.78ZM30.73 32.29c-.1.19-.08.3.02.36a6.75 6.75 0 0 1-3.62 3.77 14.24 14.24 0 0 1-5.07 1.28c-.14 0-.06-.06-.06-.2V29.4c1.6-.25 2.98-.2 4.48.16a7.4 7.4 0 0 1 4.25 2.74Z" fill="#9C3320"/><path d="m30.41 29.85.3.52c.03.06.08.1.15.1h5.27c.16.01.23.16.22.42h-5.4c-.13 0-.18.06-.16.18l.07.38c.02.12.09.18.2.18h5.59c.1.14.15.27.13.4h-5.7c-.07 0-.1.03-.1.11v.43c0 .1.04.15.15.15h5.91a.8.8 0 0 1 .13.4h-6.2l-.22-.47c-.1-.05-.11-.17-.02-.36.02.13.07.1.13-.08a.38.38 0 0 0 .02-.2l-.47-2.16Z" fill="#4B4B4C"/><path d="M36.36 30.89c.15.25.25.5.29.74h-5.59c-.11 0-.18-.06-.2-.18l-.07-.38c-.02-.12.03-.18.16-.18h5.4ZM37.17 33.13l.2.73h-6.42a2 2 0 0 1 .02-.73h6.2Z" fill="#fff"/><path d="m37.38 33.86.03.4h-6.48a.67.67 0 0 0 .02-.4h6.43ZM37.6 34.98l.02.38h-6.94l.07-.38h6.84Z" fill="#4B4B4C"/><path d="m37.62 35.36.16.67c.02.07-.01.11-.09.1l-.97-.01h-6.26c.04-.32.11-.57.22-.76h6.94Z" fill="#fff"/><path d="M36.72 36.12c-.08.06-.12.12-.12.18 0 .05.05.1.15.17l-6.36.02c-.06-.18-.04-.3.07-.38h6.26Z" fill="#4B4B4C"/><path d="m30.4 36.49 6.35-.02h.97c.1 0 .16.04.16.15v.52c0 .1-.05.13-.14.13h-.7l-7.05-.03c.12-.4.25-.65.4-.75Z" fill="#fff"/><path d="m30 37.24 7.03.02c-.13.15-.16.22-.08.23.26.02.54.06.85.11l-7.93.02c-.04-.13 0-.26.12-.38Z" fill="#4B4B4C"/><path d="M37.8 37.6c.16.04.2.3.1.79l-8.49-.04c.1-.34.26-.58.46-.73l7.93-.02Z" fill="#fff"/><path d="M37.9 38.39c-.2.06-.38.08-.56.05-.1-.02-.17 0-.21.04-.05.05-.04.1.01.13.04.02.07.06.1.1l-8.07.02c.04-.17.12-.3.24-.38l8.5.04ZM28.6 39.43l7.22.03c-.77.19-.55.29.65.3l-8.06.04c-.03-.2.04-.31.2-.37ZM27.46 40.6l6.81.02-.13.14c-.04.07-.03.1.05.12.06.01.1.03.15.06l-7.23.02c.07-.21.19-.33.35-.36Z" fill="#4B4B4C"/><path d="M37.67 41.74c-.32-.08-.57-.06-.74.03l-5.37-.01-5.55-.03c-.02 0-.04 0-.06-.02-.02-.03-.02-.05.01-.07l1.15-.68 7.23-.02 3.34-.02c.07 0 .11.03.13.1.04.24 0 .48-.14.72Z" fill="#fff"/><path d="M31.56 41.76c1.8.16 3.58.16 5.37.01.17-.1.42-.1.74-.03-.02.13.02.2.1.18a18.17 18.17 0 0 1-13.34 2.76A15.44 15.44 0 0 1 18.26 42h7.7c.04 0 .06-.19.07-.22 0-.02 0-.04-.02-.05l5.55.03Z" fill="#9C3320"/><path d="M18.14 14.15c.06.1.13.17.22.2 8.66 3.15 17.36 6.3 26.11 9.46.3 1.22.48 2.54.53 3.97l-6.71-2.41c-.15-.06-.29 0-.29.16v15.63c0 .07.04.13.02.19-.08.16-.12.32-.12.5l-.13.07c-.08.01-.12-.05-.1-.18.14-.24.18-.48.14-.72-.02-.07-.06-.1-.13-.1l-3.34.02a.4.4 0 0 0-.15-.06c-.08-.01-.1-.05-.05-.12a.62.62 0 0 1 .13-.14l3.5.01c.08 0 .12-.04.12-.13v-.64c0-.06-.03-.1-.1-.1h-1.32c-1.2-.01-1.42-.11-.65-.3l2 .03c.08 0 .12-.04.12-.12v-.56c0-.07-.04-.1-.1-.1h-.6a.22.22 0 0 0-.1-.1c-.05-.04-.06-.08-.01-.13.04-.04.11-.06.21-.04.18.03.36.01.56-.05.1-.5.06-.75-.1-.79-.3-.05-.59-.09-.85-.1-.08-.02-.05-.1.08-.24l.71.01c.09 0 .14-.04.14-.13v-.52c0-.1-.06-.16-.16-.16h-.97c-.1-.05-.15-.1-.15-.16s.04-.12.12-.18l.97.02c.08 0 .1-.04.09-.11l-.16-.67-.03-.38c0-.31-.06-.55-.18-.71l-.03-.4-.2-.74a.8.8 0 0 0-.14-.4c-.02-.27-.1-.5-.26-.7.02-.13-.02-.27-.13-.4a1.98 1.98 0 0 0-.3-.74c.01-.26-.06-.4-.22-.43-.1-.4-.21-.63-.36-.68a.86.86 0 0 0-.18-.4 2.22 2.22 0 0 0-.48-.71.54.54 0 0 0-.27-.38c-.1-.33-.26-.55-.5-.66v-.26l-.01-3.33c0-.07-.03-.12-.1-.14l-12.2-4.4c-.13-.05-.03 0-.03.14V37.5c0 .14-.08.2.06.2 1.75-.1 3.44-.53 5.07-1.28a6.75 6.75 0 0 0 3.62-3.77l.22.48a2 2 0 0 0-.02.73c.03.12.03.25-.02.4-.1.18-.16.42-.18.72l-.07.38c-.1.19-.18.44-.22.75-.11.07-.13.2-.07.38-.15.1-.28.35-.4.75-.12.12-.16.25-.12.38-.2.15-.35.4-.46.73-.12.08-.2.21-.24.38l-.57.7c-.15.06-.22.18-.19.37-.3.12-.6.4-.95.8-.16.03-.28.15-.35.36l-1.15.68c-.03.02-.03.04 0 .07l.05.02c.02.01.02.03.02.05-.01.03-.03.22-.07.22H18.3c-.04 0-.28-.18-.4-.3a.58.58 0 0 0 .1-.1.22.22 0 0 0 .02-.13V14.6c0-.13-.07-.2-.18-.21l.31-.23Z" fill="#171717"/></svg>