<svg width="56" height="56" viewBox="0 0 56 56" xmlns="http://www.w3.org/2000/svg"><path fill="#F0F3FA" d="M0 0h56v56H0z"/><path d="M27 23H9.5L7 35h24c2.4 0 3-1.33 3-2h-6.5l1-2H21c-2 0-2.33-1.83-2-3 .4-2 2.17-2 3-2h4.5l.5-3Z" fill="#88C657"/><path d="m26.5 27-.5 3h-4.5c-.4 0-.5-.33-.5-.5l.5-2c0-.4.67-.5 1-.5h4Z" fill="#88C657"/><path d="M33 21c-2.4 0-3.33 1.33-3.5 2H36c-.5 2.17-1 4.5-1 4.5s1-1.5 3-1.5h6l-.5 1H39c-1 0-1 0-1.5 1.5-.4 1.2.5 1.5 1 1.5h5l-.5 1h-6.5c-1.2 0-1.83-.5-2-1l-.5 3h12.5L49 21H33Z" fill="#00BFE6"/><path fill-rule="evenodd" d="M29.5 23H36l-2 10h-6.5l2-10Zm1.5 2.5h2.5l-1 4H30l1-4Zm-1 5h2.5L32 32h-2.5l.5-1.5Z" fill="#00AB78"/></svg>