<svg width="56" height="56" viewBox="0 0 56 56" xmlns="http://www.w3.org/2000/svg"><path fill="#F0F3FA" d="M0 0h56v56H0z"/><path d="m35.93 16.05-17.51 2.83c.9-1.05 1.76-1.84 2.59-2.39a15.63 15.63 0 0 1 5.64-2.22 13.7 13.7 0 0 1 9.04 1.26c.24.13.32.3.24.52ZM39.92 36.35l-1.54.03a.08.08 0 0 1-.08-.05.08.08 0 0 1 .01-.09 3.8 3.8 0 0 0 .72-2.58c.02.09.06.14.12.16.07.03.12 0 .14-.08.2-.92-.01-1.73-.64-2.44-.6-.67-1.24-.94-1.92-.8a4.66 4.66 0 0 0-2.36-.14c-1.5.26-4.85.82-10.05 1.67-.48.08-.92-.05-1.3-.38l-.36-.32c-.45-.4-.38-.64.2-.73 6.97-1.14 11.2-1.84 12.67-2.1a2 2 0 0 0 1.37-.91c.23-.36.36-.92.38-1.69.27.02.42-.21.47-.7l.03-.42c.15-1.1.38-3.01.68-5.71.05-.47.13-.89.24-1.24.03-.1.09-.16.18-.18.1-.02.18 0 .25.06a14.9 14.9 0 0 1 4.3 7.46c.15.66.24 1.3.25 1.92a12.37 12.37 0 0 1-3.76 9.26ZM20.06 20.54c-.03.4 0 .7.08.94l-2.43.35c-.1.01-.19-.03-.24-.12l-.63-1.13c.2.06.31.02.3-.1.23.33.59.46 1.1.38.6-.1 1.2-.2 1.82-.32ZM21.66 39.43c-.28-.18-.57-.34-.85-.49a11.39 11.39 0 0 1-4.4-4.14 11.84 11.84 0 0 1-1.81-5.76c-.07-1.34.02-2.6.28-3.77.18-.78.5-1.62.98-2.52l5 9.22c.33.6.78 1.1 1.35 1.46.06.04.07.09.03.15-.56.79-.75 1.67-.6 2.65a3.69 3.69 0 0 0 1.62 2.54c.03.02.04.05.04.08 0 .04-.02.06-.06.07l-1.58.51ZM20.37 22.76c.44.76.69 1.54.76 2.34l-1.53.21a.2.2 0 0 1-.23-.1l-1.1-1.92a.14.14 0 0 1 0-.14.14.14 0 0 1 .1-.08l2-.31ZM21.54 26.35l.63 2.4c-.2.1-.44.15-.7.14a.2.2 0 0 1-.17-.1l-1.16-2.03a.14.14 0 0 1 0-.14.14.14 0 0 1 .1-.08l1.3-.2Z" fill="#F4E439"/><path d="M35.32 34.74a.72.72 0 1 0 0-1.45.72.72 0 0 0 0 1.45Z" fill="#595858"/><path d="M36.9 27.59c.23-.36.36-.92.38-1.69.3-2.72.6-5.41.93-8.06.12-1-.33-1.63-1.35-1.89a2.2 2.2 0 0 0-.93.1l-17.51 2.83c-.3.03-.6.1-.9.23-.54.22-.66.68-.37 1.36.22.34.58.47 1.08.39.6-.1 1.21-.2 1.83-.32L36.1 17.9c.13-.03.19.03.17.16l-.95 8.26c-.02.2-.13.3-.32.34l-12.83 2.1c-.2.1-.44.14-.7.13a.2.2 0 0 1-.17-.1l-1.16-2.03a.14.14 0 0 1 0-.13.14.14 0 0 1 .1-.09l1.3-.2 11.82-1.97c.42-.06.6-.3.56-.68v-.02c-.12-.43-.36-.61-.74-.55L21.13 25.1l-1.53.21a.2.2 0 0 1-.23-.1l-1.1-1.92a.14.14 0 0 1 0-.14.14.14 0 0 1 .1-.08l2-.31 13.85-2.3c.34-.07.54-.28.58-.66v-.03c-.1-.45-.36-.64-.77-.57l-13.9 2.28-2.42.35c-.1.01-.19-.03-.24-.12l-.63-1.13-.89-1.63a3.53 3.53 0 0 0-3.65-2.03c-.86.06-2.05.25-3.57.56-.55.11-.79.44-.72 1l.01.04c.1.55.41.8.96.75.95-.1 1.9-.24 2.86-.42.53-.1.92-.12 1.16-.06.52.14.88.35 1.05.6.29.43.9 1.55 1.81 3.36l5 9.22c.33.6.78 1.1 1.35 1.46.06.04.07.09.03.15-.56.79-.75 1.67-.6 2.65a3.69 3.69 0 0 0 1.62 2.54c.03.02.04.05.04.08 0 .04-.02.06-.06.07l-1.58.51-3.31 1.33c-.4.16-.51.43-.37.82l.01.02c.14.37.4.48.76.35l4.9-1.81a48.63 48.63 0 0 1 15.4-2.48c.48-.02.84-.02 1.09 0l3.49.21c.18.01.3-.07.34-.25.07-.35.03-.62-.13-.82a.29.29 0 0 0-.21-.12l-3.7-.33-1.55.03a.08.08 0 0 1-.08-.05.08.08 0 0 1 .01-.09 3.8 3.8 0 0 0 .72-2.58c-.12-1.35-.89-2.4-2.3-3.17a4.66 4.66 0 0 0-2.36-.13c-1.5.26-4.85.82-10.05 1.67-.48.08-.92-.05-1.3-.38l-.36-.32c-.45-.4-.38-.64.2-.73 6.97-1.14 11.2-1.84 12.67-2.1a2 2 0 0 0 1.37-.91Zm-.33 7.8c-.37.33-.81.47-1.32.43A1.8 1.8 0 0 1 34 35.2a1.8 1.8 0 0 1-.46-1.33c.02-.5.23-.93.6-1.26.38-.33.82-.47 1.32-.43.5.03.92.25 1.26.63.33.38.49.83.46 1.33-.03.5-.23.93-.6 1.26ZM26.2 37.28c-.44.23-.9.27-1.39.1a1.8 1.8 0 0 1-1.07-.9 1.8 1.8 0 0 1-.13-1.41c.15-.49.45-.84.9-1.07.44-.24.9-.27 1.38-.11.48.15.84.46 1.07.91.23.45.28.92.13 1.4-.15.49-.45.85-.89 1.08Z" fill="#585854"/><path d="M25.32 36.4a.73.73 0 1 0 0-1.46.73.73 0 0 0 0 1.45Z" fill="#595858"/><path d="M37.96 37.68c-.11.39-.4.72-.86 1a16.72 16.72 0 0 1-9.12 2.36 11.44 11.44 0 0 1-4.33-.9 48.63 48.63 0 0 1 14.3-2.46Z" fill="#F4E439"/></svg>