<svg width="56" height="56" viewBox="0 0 56 56" xmlns="http://www.w3.org/2000/svg"><path fill="#2A166E" d="M0 0h56v56H0z"/><path fill-rule="evenodd" d="M9.1 23H5v9h4.1c2.15 0 3.9-1.8 3.9-4.03v-.94A3.96 3.96 0 0 0 9.1 23Zm-.72 1H7v7h1.38C9.83 31 11 29.8 11 28.32v-1.64A2.65 2.65 0 0 0 8.38 24ZM16 23h-2v9h2v-9Zm9.34 2.24.37-1.46a7.63 7.63 0 0 0-3.23-.78C20.11 23 17 24.19 17 27.58S19.99 32 22.45 32c1.98 0 3.19-.42 3.55-.63V28h-2v3.06c-2.6.4-5-.52-5-3.3S21 24 22.66 24c1.33 0 2.34.79 2.68 1.24ZM28 23v9.11c0 .38-.12 1.13-1.07 1.09l.4.8c.96-.12 2.67-.86 2.67-2.83V23h-2Zm3 9h1.36l1.16-3h2.6l1.1 3h2.37l-3.74-9h-.99L31 32Zm4.77-4-.91-2.48L33.9 28h1.87Zm6.64-5L41 32h1.28l.57-5.7 2.92 5.7h.55l2.98-5.7.57 5.7H52l-1.16-9h-1.09l-3.22 6.16L43.49 23H42.4Z" fill="#FBFBF9"/></svg>