<svg xmlns="http://www.w3.org/2000/svg" width="56" height="56"><path fill="#DC6134" d="M0 0h56v56H0z"/><path d="M25.5 24a.5.5 0 00-.5.5v8a.5.5 0 00.5.5h1a.5.5 0 00.5-.5v-4.75c1-.75 2 .03 2 .95v3.8a.5.5 0 00.5.5h1a.5.5 0 00.5-.5v-3.8c0-2.46-2.32-3.33-4-2.46V24.5a.5.5 0 00-.5-.5h-1z" fill="#fff"/><path fill-rule="evenodd" d="M11.5 23a.5.5 0 00-.5.5v2.92a3.33 3.33 0 00-2-.67c-1.93 0-3.5 1.68-3.5 3.75 0 2.07 1.57 3.75 3.5 3.75.75 0 1.44-.25 2-.68a.5.5 0 00.5.43h1a.5.5 0 00.5-.5v-9a.5.5 0 00-.5-.5h-1zm-.5 8v-3l-1.1-.31a1.89 1.89 0 100 3.62L11 31z" fill="#fff"/><rect x="14" y="26" width="2" height="7" rx=".5" fill="#fff"/><rect x="14" y="23" width="2" height="2" rx=".5" fill="#fff"/><path d="M41 29.85l9-10.49S42.05 33 40.55 33H39.5a.5.5 0 01-.5-.5v-6a.5.5 0 01.5-.5h1a.5.5 0 01.5.5v3.35zm-8-5.35a.5.5 0 01.5-.5h1a.5.5 0 01.5.5V26h1.5a.5.5 0 01.5.5v1a.5.5 0 01-.5.5H35v1.75c0 .83.67 1.25 1.5 1.25h1a.5.5 0 01.5.5v1a.5.5 0 01-.5.5h-2a2.5 2.5 0 01-2.5-2.5V28h-.5a.5.5 0 01-.5-.5v-1a.5.5 0 01.5-.5h.5v-1.5zM22.4 28h1.37c.28 0 .24-.36.23-.42-.01-.05-.06-.55-.58-1.11-.36-.4-.88-.59-1.28-.67a9.25 9.25 0 00-3.37 0c-.8.2-1.77 1-1.77 1.99 0 1.15.68 1.55 1.06 1.8s1.78.59 2.08.66c.3.07 1.82.32 1.82.93s-1.03.66-1.43.66c-.92 0-1.37-.38-1.62-.8-.2-.34-.45-.34-.56-.34H17.3c-.35 0-.3.43-.3.63 0 1.08 1.06 1.73 2.1 1.87.79.12 1.59.1 2.38.05 1.24-.07 2.52-.75 2.52-2.07 0-.86-.43-1.47-1.08-1.84a16.4 16.4 0 00-2.89-.86c-.15-.03-.88-.2-.88-.7 0-.49.54-.63 1.43-.63.65 0 1.1.28 1.28.57.15.23.42.28.54.28z" fill="#fff"/><path d="M49.16 19.9C43.03 16.3 28.26 17.53 17 23c7.43-3.55 24.31-5.52 31.11-1.83l1.05-1.26zm.63.42l-.9 1.33C51.92 23.76 52.13 27.37 47 33c6.1-6.1 6.12-10.28 2.79-12.68z" fill="#fff"/></svg>