<svg width="56" height="56" viewBox="0 0 56 56" xmlns="http://www.w3.org/2000/svg"><path fill="#F0F3FA" d="M0 0h56v56H0z"/><path d="M28 39c12.15 0 22-4.92 22-11s-9.85-11-22-11S6 21.92 6 28s9.85 11 22 11Zm-.23-1.19c11.4 0 20.64-4.45 20.64-9.94 0-5.5-9.24-9.94-20.64-9.94S7.13 22.38 7.13 27.87c0 5.5 9.24 9.94 20.64 9.94Z" fill="url(#ac2j0b1jc)"/><path d="M48 28c0 5.52-9.18 10-20.5 10S7 33.52 7 28s9.18-10 20.5-10S48 22.48 48 28Z" fill="#181F3E"/><path d="M49 28c0 5.52-9.18 10-20.5 10S8 33.52 8 28s9.18-10 20.5-10S49 22.48 49 28Z" fill="url(#bc2j0b1jc)"/><path d="M28 19.44 36 27H20l8-7.56Z" fill="#181F3E"/><path d="m28 19 8 7.55H20L28 19Z" fill="#fff"/><path d="m19 36 8-8.5H11l8 8.5Z" fill="#181F3E"/><path d="m19 35.5 8-8.5H11l8 8.5Z" fill="#fff"/><path d="m38 36 8-8.5H30l8 8.5Z" fill="#181F3E"/><path d="m38 35.5 8-8.5H30l8 8.5Z" fill="#fff"/><defs><linearGradient id="ac2j0b1jc" x1="45.36" y1="34.88" x2="12.24" y2="20.98" gradientUnits="userSpaceOnUse"><stop stop-color="#A59D9B"/><stop offset="1" stop-color="#fff"/></linearGradient><linearGradient id="bc2j0b1jc" x1="46.5" y1="36.32" x2="9.39" y2="18.5" gradientUnits="userSpaceOnUse"><stop offset=".15" stop-color="#1A345A"/><stop offset=".76" stop-color="#D6D9EB"/><stop offset="1" stop-color="#B5B8CF"/></linearGradient></defs></svg>