<svg width="56" height="56" xmlns="http://www.w3.org/2000/svg"><path fill="#231F5C" d="M0 0h56v56H0z"/><path fill-rule="evenodd" d="M13 25H6v7h7a3.5 3.5 0 100-7zm-1.5 1.5H9v4h2.5a2 2 0 100-4z" fill="#fff"/><path d="M18 27h3v5h-3v-5z" fill="#fff"/><path d="M18 25h3v1h-3v-1z" fill="#D92026"/><path d="M22.124 27l3.23 2.5-3.231 2.5h3.627l1.5-1.334L28.75 32h3.627l-3.23-2.5 3.23-2.5H28.75l-1.5 1.333L25.75 27h-3.626zM52 29c0-1.137-1.874-2-3-2h-.5C47 27 46 28 46 28v-1h-3v5h3v-2a1.5 1.5 0 013 0v2h3v-3z" fill="#fff"/><path d="M42 29.51c0 1.656-2.239 3-5 3s-5-1.343-5-3 2.239-3 5-3 5 1.343 5 3zM37 31c1.105 0 2-.672 2-1.5s-.895-1.5-2-1.5-2 .672-2 1.5.895 1.5 2 1.5z" fill="#fff"/></svg>