<svg width="56" height="56" viewBox="0 0 56 56" xmlns="http://www.w3.org/2000/svg"><path fill="#F0F3FA" d="M0 0h56v56H0z"/><path d="M11.26 25.13a7.27 7.27 0 0 0-2.64 5.82c0 3.76 2.46 6.8 5.5 6.8.83 0 1.62-.22 2.33-.63l-.37-.85c-.4.13-.83.2-1.27.2-2.65 0-4.8-2.57-4.8-5.74a6.2 6.2 0 0 1 1.75-4.44l-.5-1.16Z" fill="url(#a0fturljg)"/><ellipse cx="10.26" cy="32.42" rx="3.26" ry="3.49" fill="url(#b0fturljg)"/><path d="m10.86 26.03-.39-1.23a2.7 2.7 0 0 1 1.23-3.15l.47-.27a2.92 2.92 0 0 1 3.91.98l.39.6a2.72 2.72 0 0 1-.5 3.5l-.9.8a2.61 2.61 0 0 1-4.21-1.23Z" fill="url(#c0fturljg)"/><path d="m17.6 32.53 1.26-.02a2.64 2.64 0 0 1 2.62 2.1c.18.8.02 1.36-.2 2.15-.3.98-.77 1.63-1.72 1.92l-.67.2a2.62 2.62 0 0 1-3.16-1.47l-.49-1.1a2.68 2.68 0 0 1 2.36-3.78Z" fill="url(#d0fturljg)"/><ellipse cx="15.62" cy="30.23" rx="1.28" ry="1.3" fill="url(#e0fturljg)"/><path fill-rule="evenodd" d="M19 29.8v-8.49c.24-.1 1.06-.31 2.47-.31 1.75 0 3.53.4 3.53 4.2 0 4.18-2.03 4.8-3.53 4.8-1.2 0-2.15-.13-2.47-.2Zm2-7.3h.56c.8 0 1.44.93 1.44 2.07v1.86c0 1.14-.64 2.07-1.44 2.07H21v-6Zm5 7.5v-9h1.7l2.3 3.86L32.23 21H34v9h-2v-5.45L30.73 27h-1.4L28 24.55V30h-2Zm12.35-7.5H40V22c0-.55-.42-1-.95-1h-.91C36.29 21 35 22.31 35 24.23v2.54c0 1.92 1.29 3.23 3.14 3.23h.91c.53 0 .95-.45.95-1v-.5h-1.65c-.8 0-1.35-.85-1.35-1.67V24.1c0-.83.56-1.61 1.35-1.61Zm7.65 0h-1.65c-.8 0-1.35.78-1.35 1.6v2.73c0 .82.56 1.67 1.35 1.67H46v.5c0 .55-.42 1-.95 1h-.91C42.29 30 41 28.69 41 26.77v-2.54c0-1.92 1.29-3.23 3.14-3.23h.91c.53 0 .95.45.95 1v.5Z" fill="#1AC4C4"/><defs><linearGradient id="a0fturljg" x1="9.44" y1="28.13" x2="12.64" y2="37.72" gradientUnits="userSpaceOnUse"><stop stop-color="#75C3B5"/><stop offset="1" stop-color="#E7E538"/></linearGradient><linearGradient id="b0fturljg" x1="10.26" y1="28.93" x2="10.26" y2="35.9" gradientUnits="userSpaceOnUse"><stop stop-color="#8FCFAA"/><stop offset="1" stop-color="#AACC2D"/></linearGradient><linearGradient id="c0fturljg" x1="16.08" y1="22.52" x2="11.46" y2="26.76" gradientUnits="userSpaceOnUse"><stop stop-color="#07BBC9"/><stop offset="1" stop-color="#A7D29D"/></linearGradient><linearGradient id="d0fturljg" x1="15.54" y1="37.14" x2="20.39" y2="33.62" gradientUnits="userSpaceOnUse"><stop stop-color="#BACF32"/><stop offset="1" stop-color="#F6DD81"/></linearGradient><linearGradient id="e0fturljg" x1="15.62" y1="28.93" x2="15.62" y2="31.53" gradientUnits="userSpaceOnUse"><stop stop-color="#78C4BA"/><stop offset="1" stop-color="#A3CF9A"/></linearGradient></defs></svg>