<svg xmlns="http://www.w3.org/2000/svg" width="56" height="56" viewBox="0 0 56 56"><path fill="#F0F3FA" d="M0 0h56v56H0z"/><path fill-rule="evenodd" d="M25.99 23h3.74v.58c-.45 0-.73.38-.73.84V32h1.5c1.08 0 1.5-.88 1.5-2h.5v3h-6.51l.01-.5c.42 0 1-.4 1-.85v-7.28c0-.44-.59-.8-1.01-.8V23ZM7 31.81v-7.59c0-.4-.6-.72-1-.72V23h4.26A4.79 4.79 0 0 1 15 27.83v.34A4.79 4.79 0 0 1 10.26 33H6v-.46c.4 0 1-.33 1-.73ZM9 24v8h1.42c1.42 0 2.58-1.05 2.58-2.35v-3.3c0-1.3-1.16-2.35-2.58-2.35H9Zm11.26-1A4.25 4.25 0 0 0 16 27.23v1.54c0 2.34 1.9 4.23 4.26 4.23h.48c2.35 0 4.26-1.9 4.26-4.23v-1.54c0-2.34-1.9-4.23-4.26-4.23h-.48Zm.24 9c2.04 0 2.5-1.8 2.5-4s-.74-4-2.5-4c-1.97 0-2.5 1.8-2.5 4s.58 4 2.5 4ZM33 33v-.5c.43 0 .81-.24.96-.67l3-8.83h1.8l2.4 8.87c.1.4.45.63.84.63v.5h-3.83v-.5c.5 0 .87-.46.73-.99L38.52 30h-2.89l-.45 1.46c-.17.54.2 1.04.73 1.04v.5H33Zm2.94-4h2.32l-1.05-4.09L35.94 29Zm6.56-3.5V23h7v2.5H49c0-1-.6-1.5-1.53-1.5H47v7.59c0 .48.56.91 1 .91v.5h-4v-.5c.5 0 1-.48 1-1.01V24h-.29c-.92 0-1.71.5-1.71 1.5h-.5Z"/></svg>