<svg width="56" height="56" viewBox="0 0 56 56" xmlns="http://www.w3.org/2000/svg"><path fill="#0247B9" d="M0 0h56v56H0z"/><path d="M11 23H6v2h5a3 3 0 1 1 0 6H6v2h5a5 5 0 0 0 0-10Z" fill="#fff"/><path fill-rule="evenodd" d="M22 33a5 5 0 1 0 0-10 5 5 0 0 0 0 10Zm0-2a3 3 0 1 0 0-6 3 3 0 0 0 0 6Z" fill="#fff"/><path d="M31 33h-2V23l5 5h-3v5Zm3-5 5-5v10h-2v-5h-3ZM50 25v-2h-4a4.5 4.5 0 0 0-4.5 4.5v.5h2.08c0-1.58 1.29-3 2.87-3H50ZM40 31v2h3.53A4.49 4.49 0 0 0 48 28.5V28h-2.08c0 1.58-1.27 3-2.84 3H40Z" fill="#fff"/></svg>