<svg xmlns="http://www.w3.org/2000/svg" width="56" height="56"><path fill="url(#asrilf5jq)" d="M0 0h56v56H0z"/><path d="M35.6 15.72l-1.7-1.44-3 8.49v5.09l4.7-3.14v-9z" fill="url(#bsrilf5jq)"/><path d="M45.46 28.63l-4.96-.3v8.8l4.96.2v-8.7z" fill="url(#csrilf5jq)"/><path d="M26.47 28.67l-4.96-.29v8.79l4.96.2v-8.7z" fill="url(#dsrilf5jq)"/><path d="M45.5 37.26l-3.88-1.3-10.46.87-.46.5 6.4 5.05.83.66 7.57-5.78z" fill="url(#esrilf5jq)"/><path d="M26.5 37.3L22.63 36l-10.46.88-.46.5 6.4 5.04.83.66 7.56-5.77z" fill="url(#fsrilf5jq)"/><path d="M33.82 31.81l-2.7-.43-8 1.2H23l4.95 4.2 5.87-4.97z" fill="url(#gsrilf5jq)"/><path d="M12.13 36.9l6.4-4.66 6.36 4.67-6.35 4.87-6.41-4.87zm18.99-.02l6.41-4.67 6.35 4.67-6.35 4.87-6.41-4.87zM22 22.24l6.03-4.67L34 22.24l-5.97 4.87L22 22.24z" fill="#fff"/><path fill-rule="evenodd" d="M22 22.4l5.99 4.71 6.01-4.7-6.01-4.34L22 22.4zm.26-.18L28 26.66l5.75-4.44L28 18.07l-5.73 4.15zM12 37l6.49 5L25 36.98l-6.51-5.29L12 37zm.25-.2l6.24 4.75 6.28-4.76-6.28-4.67-6.24 4.67zM31 37l6.49 5L44 36.98l-6.51-5.29L31 37zm.25-.2l6.24 4.75 6.28-4.76-6.28-4.67-6.24 4.67z"/><path d="M12 27.35l6.5-4.62v9.63L12 36.98v-9.63zm19 0l6.5-4.62v9.63L31 36.98v-9.63zm-9-13.32L28 10v8.4l-6 4.02v-8.4z" fill="#EDE1AC"/><path d="M25 27.35l-6.5-4.62v9.63l6.5 4.62v-9.63zm19 0l-6.5-4.62v9.63l6.5 4.62v-9.63zM34 14.03L28 10v8.4l6 4.02v-8.4z" fill="#B9BEB8"/><path d="M24 31.77l4-3.18 4 3.18-4 3.68-4-3.68z"/><path d="M24 25.46l4-3.06v6.37l-4 3.05v-6.36z" fill="#EDE1AC"/><path d="M32 25.46l-4-3.06v6.37l4 3.05v-6.36z" fill="#B9BEB8"/><defs><linearGradient id="asrilf5jq" x1="46.23" y1="7.45" x2="7.66" y2="47.81" gradientUnits="userSpaceOnUse"><stop stop-color="#ADBB6C"/><stop offset="1" stop-color="#CCD59E"/></linearGradient><linearGradient id="bsrilf5jq" x1="36.05" y1="21.07" x2="30.53" y2="21.07" gradientUnits="userSpaceOnUse"><stop stop-color="#B5C279"/><stop offset="1" stop-color="#465D2B"/></linearGradient><linearGradient id="csrilf5jq" x1="45.9" y1="32.46" x2="39.4" y2="32.73" gradientUnits="userSpaceOnUse"><stop stop-color="#B5C279"/><stop offset="1" stop-color="#465D2B"/></linearGradient><linearGradient id="dsrilf5jq" x1="26.91" y1="32.51" x2="20.4" y2="32.77" gradientUnits="userSpaceOnUse"><stop stop-color="#B5C279"/><stop offset="1" stop-color="#465D2B"/></linearGradient><linearGradient id="esrilf5jq" x1="42.88" y1="42.27" x2="38.07" y2="29.42" gradientUnits="userSpaceOnUse"><stop stop-color="#B5C279"/><stop offset="1" stop-color="#465D2B"/></linearGradient><linearGradient id="fsrilf5jq" x1="23.89" y1="42.32" x2="19.07" y2="29.47" gradientUnits="userSpaceOnUse"><stop stop-color="#B5C279"/><stop offset="1" stop-color="#465D2B"/></linearGradient><linearGradient id="gsrilf5jq" x1="31.75" y1="35.97" x2="28.01" y2="27.07" gradientUnits="userSpaceOnUse"><stop stop-color="#B5C279"/><stop offset="1" stop-color="#465D2B"/></linearGradient></defs></svg>