<svg width="56" height="56" viewBox="0 0 56 56" xmlns="http://www.w3.org/2000/svg"><path fill="#F0F3FA" d="M0 0h56v56H0z"/><path d="M44 30c-.99 7.9-7.8 14-16 14a16.1 16.1 0 0 1-16-14h3.15a13 13 0 0 0 25.7 0H44ZM44 26c-.99-7.9-7.8-14-16-14a16.1 16.1 0 0 0-16 14h3.15a13 13 0 0 1 25.7 0H44Z" fill="#F61426"/><path d="M34.51 24h-.06C31.44 24 29 26.24 29 29s2.44 5 5.45 5H36.1a2.88 2.88 0 0 0 1.96-5 2.87 2.87 0 0 0-1.95-5h-1.6ZM36 32h-1.5c-1.93 0-3.5-1.34-3.5-3s1.57-3 3.5-3H36a1 1 0 1 1 0 2h-1.68c-.6 0-1.09.45-1.09 1s.49 1 1.1 1H36a1 1 0 1 1 0 2Z" fill="#201C1D"/><path fill-rule="evenodd" d="M28 28.5v-5.33a3.17 3.17 0 0 0-6.34-.1A5.5 5.5 0 1 0 28 28.5ZM22.5 32a3.5 3.5 0 0 0 3.5-3.5v-5.17c0-.73-.45-1.33-1-1.33s-1 .6-1 1.33V29a1 1 0 1 1-2 0v-3.96a3.5 3.5 0 0 0 .5 6.96Z" fill="#201C1D"/></svg>