<svg width="56" height="56" viewBox="0 0 56 56" xmlns="http://www.w3.org/2000/svg"><path fill="#F0F3FA" d="M0 0h56v56H0z"/><path d="M15.05 40.9 13 43h28v-8.44C39.64 38.4 37.01 41 34 41c-4.42 0-8-5.6-8-12.5S29.58 16 34 16c3.01 0 5.64 2.6 7 6.44V13H13l2.05 2.1v25.8ZM28 27.5c1.45-.2 4.67-1.37 6-4.5v11c-.68-1.47-2.84-4.52-6-4.99V27.5Z" fill="#077CBF"/><path d="M36.3 21.8c-.57-1.26-3.14-3.8-8.84-3.8-6.1 0-7.96 4.94-8.36 8.89-.9-.08-1.82-.2-2.36-.37l2.27 2.6c.2 3.97 3.62 8.88 9.4 8.88 4.75 0 7.64-1.97 8.5-2.95.13-.53.23-1.8-.48-2.62-.45 1.35-2.68 4.06-8.03 4.06-5.48 0-6.97-3.94-7.34-6.93.67-.3 1.54-.56 2.49-.56h5.68c.85.05 2.8.37 3.83.9a6.38 6.38 0 0 0-5.27-2.9h-6.78c.38-2.94 2.72-7.37 6.78-7.37 4.44 0 6.37.68 8.51 2.18Z" fill="#BEC8D1"/></svg>