<svg xmlns="http://www.w3.org/2000/svg" width="56" height="56" viewBox="0 0 56 56"><path fill="#F0F3FA" d="M0 0h56v56H0z"/><path d="M47 18v2H14.3C11.07 20 9 22.16 9 25.22v5.32C9 33.82 11.26 36 14.71 36H47v2H14.09C10.17 38 7 34.99 7 31.27v-6.54C7 21 10.17 18 14.09 18H47z" fill="#373435"/><path d="M21 24v-3h-6.74C11.91 21 10 22.74 10 24.89v6.22c0 2.15 1.9 3.89 4.26 3.89H21v-3h-3.87C15.95 32 15 30.85 15 29.78v-.2h4v-3h-4v-.2c0-1.08.95-2.38 2.13-2.38H21zm26-3v3h-3.52C42.4 24 42 25.3 42 26.37v3.41c0 1.07.4 2.22 1.48 2.22H47v3h-6.13A3.88 3.88 0 0 1 37 31.11V24.9A3.88 3.88 0 0 1 40.87 21H47zm-20 0h-5v14h5v-6c2.49.17 5 2.46 5 4.73V35h4v-2.91c0-2.8-2.18-5.15-5.08-5.7A3.82 3.82 0 0 1 34.54 24H36v-3h-5.5c-1.63 0-2.74.89-3.5 2.12V21z" fill="#05865E"/></svg>