<svg width="56" height="56" viewBox="0 0 56 56" xmlns="http://www.w3.org/2000/svg"><path fill="#F0F3FA" d="M0 0h56v56H0z"/><path d="M10.07 25.98c.97.24 2.16.33 3.56.28.08 0 .12.03.13.11a.1.1 0 0 1-.02.06.23.23 0 0 1-.14.09l-.96.21a12.05 12.05 0 0 0-3.68 1.52c-1.4.93-2.05 1.98-1.95 3.15.07.77.5 1.33 1.3 1.66a4.7 4.7 0 0 0 2.3.26c1.63-.16 3.1-.58 4.4-1.25 1.42-.74 2.1-1.83 2.02-3.3a.06.06 0 0 0-.04-.06.07.07 0 0 0-.07.01c-1.08.95-2.2 1.65-3.36 2.1-1.3.52-2.58.7-3.86.55-.48-.06-.82-.27-1.02-.64a.4.4 0 0 1-.03-.32c.12-.38.32-.7.61-.96a10.49 10.49 0 0 1 5.9-2.49c.34-.04.63-.18.87-.43.24-.24.38-.52.42-.84.02-.1-.02-.18-.12-.22-.26-.1-.53-.16-.82-.16-1.18 0-2.33 0-3.45-.04-.6-.01-1.18-.1-1.74-.26a.38.38 0 0 1-.24-.2.36.36 0 0 1-.03-.3c.07-.2.19-.36.36-.5a9.53 9.53 0 0 1 2.82-1.45 6.16 6.16 0 0 1 3.13-.3c.24.05.26.13.05.26-.38.23-.7.5-.94.83-.16.2-.13.22.09.1.71-.45 1.54-.87 2.48-1.26a.4.4 0 0 0 .27-.4v-1.08c-.01-.37-.2-.58-.6-.63a12.6 12.6 0 0 0-4.71.35c-1.8.48-3.08 1.3-3.86 2.46a2.42 2.42 0 0 0-.37 1.8 1.67 1.67 0 0 0 1.3 1.29Zm11.99 4.27v-.01a18.3 18.3 0 0 0 2.04-2.92c.09-.16.13-.33.14-.5a.83.83 0 0 0-.1-.46.53.53 0 0 0-.33-.26.8.8 0 0 0-.54.08c-.4.19-.76.42-1.08.71-.94.86-1.87 1.74-2.77 2.65a.46.46 0 0 1-.32.14.2.2 0 0 1-.18-.09.19.19 0 0 1-.01-.2c.12-.24.28-.49.48-.74.12-.15.31-.36.58-.64.37-.39.63-.7.79-.92.07-.1.08-.21.04-.33a.34.34 0 0 0-.24-.22 1.23 1.23 0 0 0-.5-.05c-.33.04-.72.34-1.17.9-.3.37-.59.8-.88 1.31a2.63 2.63 0 0 0-.24 2.1c.05.16.1.32.18.48.31.69.69.72 1.12.1.68-.94 1.54-1.93 2.59-2.94a.7.7 0 0 1 .42-.2c.07 0 .13.02.17.08.04.06.05.12 0 .19l-.19.3c-.37.6-.64 1.06-.8 1.4-.3.58-.43 1.03-.39 1.35.02.13.08.24.2.31.11.08.24.1.37.06.31-.08.57-.25.78-.5a24.7 24.7 0 0 1 3.11-3.1c.35-.28.4-.24.15.13l-.08.1c-.41.62-.72 1.12-.92 1.5-.36.67-.5 1.18-.43 1.52.13.67.62.77 1.46.3a11.5 11.5 0 0 0 2.11-1.65c.11-.1.16-.07.13.07-.07.45-.04.9.09 1.32.04.13.12.2.25.23a.3.3 0 0 0 .32-.12l1.22-1.57c.08-.1.15-.1.2.02.37.76.7 1.3 1.03 1.62.56.56 1.14.6 1.74.14.65-.5 1.26-1.1 1.83-1.8.02-.02.05-.03.08-.02.03 0 .05.03.05.06.12.72.45 1.32 1 1.8.08.07.17.1.27.06.34-.1.72-.35 1.16-.75a16.46 16.46 0 0 0 1.38-1.46c.35-.39.42-.35.2.13-.27.59-.37 1.2-.31 1.83.01.16.09.3.22.4.12.1.27.14.43.12.74-.1 1.74-.84 2.99-2.22.01-.02.03-.03.06-.02.02 0 .03.02.04.04.05.35.15.69.3 1 .19.4.4.67.66.82.08.04.16.05.24 0 .36-.17.75-.42 1.18-.76a24.15 24.15 0 0 0 1.48-1.27c.28-.24.32-.21.12.1a55.03 55.03 0 0 0-2.63 4.4c-.2.38-.22.77-.05 1.16l.07.14c.16.38.37.4.6.07a56.93 56.93 0 0 1 4.81-5.69c.1-.1.17-.24.19-.39l.02-.2c.03-.17-.03-.2-.16-.1a41.14 41.14 0 0 0-2.98 2.7c-.4.4-.46.36-.17-.14.8-1.36 1.76-2.83 2.87-4.4.23-.34.3-.7.22-1.1a.51.51 0 0 0-.05-.12c-.2-.36-.42-.38-.7-.07-.82.94-1.51 1.67-2.07 2.17-.78.71-1.6 1.3-2.43 1.76-.27.14-.41.07-.44-.23l.01-.15c.09-.32.25-.58.5-.77.85-.67 1.56-1.43 2.15-2.29.07-.1.1-.22.07-.34a.86.86 0 0 0-.42-.61.5.5 0 0 0-.3-.08.5.5 0 0 0-.28.1A8.62 8.62 0 0 0 42 29.27c-.1.23-.27.43-.52.6-.36.24-.72.43-1.07.58a.6.6 0 0 1-.52-.03.57.57 0 0 1-.32-.4c-.05-.26.02-.56.2-.9.11-.2.31-.5.6-.88l.32-.43c.1-.16.12-.33.04-.5l-.3-.63c-.04-.1-.01-.15.1-.16.13 0 .26-.05.36-.15.1-.08.12-.18.08-.3-.08-.22-.2-.4-.34-.53a.68.68 0 0 0-.6-.16c-.96.2-1.89.58-2.81 1.17-.85.54-1.63 1.2-2.32 1.98-.2.21-.3.46-.34.75a.37.37 0 0 1-.1.23c-.43.41-.93.82-1.5 1.21a.82.82 0 0 1-1 0l-.28-.18c-.33-.22-.33-.43.02-.62.37-.2.83-.52 1.38-.95.58-.45.97-.88 1.17-1.27.26-.5.26-1.03.03-1.6a.46.46 0 0 0-.2-.23.48.48 0 0 0-.32-.05c-.55.08-1.32.55-2.3 1.4-.64.57-1.51 1.44-2.61 2.61-.16.17-.22.14-.2-.08.01-.08 0-.15-.03-.22a.26.26 0 0 1 .05-.3c1.97-2.2 3.75-4.33 5.33-6.38.3-.4.58-.8.84-1.25.06-.1.06-.2.02-.31a.34.34 0 0 0-.25-.21c-.8-.2-2.5 1.48-5.11 5.01l-.1.14a8.6 8.6 0 0 0-1.43 2.74c-.09.32-.26.58-.5.78-.32.25-.64.47-.95.65a.55.55 0 0 1-.43.06.52.52 0 0 1-.33-.26c-.15-.28-.04-.67.33-1.19.2-.28.52-.64.96-1.07l.07-.07a.74.74 0 0 0 .17-.9l-.16-.36c-.15-.34-.36-.38-.64-.13l-4.33 3.82h-.05l-.05-.04Zm14.7-1.8c.86-.55 1.86-1.09 3-1.62.04-.02.06 0 .06.05s-.01.1-.05.14a30.92 30.92 0 0 1-1.65 2.06 8.3 8.3 0 0 1-1.89 1.54.37.37 0 0 1-.35.02.35.35 0 0 1-.22-.27c-.08-.38 0-.76.24-1.12.2-.3.48-.57.86-.8Zm-3.9-1.23c.35-.1.44.02.3.34a5.73 5.73 0 0 1-1.89 2.1.23.23 0 0 1-.24.02l-.58-.25c-.1-.04-.1-.1-.04-.18 1.06-1.2 1.87-1.87 2.45-2.03Z" fill="#F79633"/></svg>