<svg width="56" height="56" viewBox="0 0 56 56" xmlns="http://www.w3.org/2000/svg"><path fill="#F0F3FA" d="M0 0h56v56H0z"/><path d="M19.5 24h-8L9 34h7.5l.5-2h-5l.5-2H17l.5-2H13l.5-2H19l.5-2ZM20.5 34H18l3-10h3.5l.5 6.5 3-6.5h4l-2.5 12c-1.6-.4-1.67-2.5-1.5-3.5l1-6-4 7.5h-2l-.5-7.5-2 7.5ZM40 24.5l-1 2a5.1 5.1 0 0 0-2-.5c-1 0-1.5.5-1.5 1 0 .4.67.83 1 1 2.5 1 3 2 3 3S38 34 35 34c-2.4 0-3.33-.33-3.5-.5l1-2c.67.33 2.1.5 2.5.5.5 0 1.5 0 1.5-1 0-.8-1-.83-1.5-1-.83-.17-2.5-1-2.5-3 0-2.5 2.5-3 4.5-3 1.6 0 2.67.33 3 .5Z" fill="#1E3554"/><path d="M40.5 21c-2 0-3.17 1.33-3.5 2 .5-.17 1.7-.5 2.5-.5 1 0 5 2.5 6.5 2.5 1.2 0 1.83-.33 2-.5-1.67-1.17-5.5-3.5-7.5-3.5Z" fill="#61AE46"/><path d="M42.5 19.5c-1.2 0-2.5.67-3 1 2.5-.5 6 2 7.5 2 1.2 0 1.5-.33 1.5-.5-1.5-.83-4.8-2.5-6-2.5Z" fill="#0F5BA7"/><path d="M45 18c-1.2 0-2.5.67-3 1 3.5-.5 4 1 5.5 1 1.2 0 1.5-.33 1.5-.5-.83-.5-2.8-1.5-4-1.5Z" fill="#9EA6B3"/></svg>