<svg width="56" height="56" viewBox="0 0 56 56" xmlns="http://www.w3.org/2000/svg"><path fill="#F0F3FA" d="M0 0h56v56H0z"/><path d="M41.86 19.86c1.28 4.08-3.66 9.69-11.05 12.52-7.39 2.84-14.41 1.83-15.7-2.25-1.28-4.08 3.66-9.68 11.05-12.52 7.39-2.84 14.41-1.83 15.7 2.25Z" fill="#D8D9D9"/><path d="M26 21v5h-4v3h4v5h3v-5c8.73 0 14-5 14.03-9 .02-2-.97-6-9.7-6C24.61 14 12 20 12 31c0 8.79 6.46 10.99 9.7 10.99 13.57.4 20.52-10.5 22.3-16-3.88 4.5-13.58 11.5-22.3 12-6.98.4-8.08-4.5-7.76-7C13.94 23.5 26.24 16 34 16c6.2 0 7 2.5 7 4 0 4.54-7.47 5.66-12 6v-5h-3Z" fill="#2D84C5"/></svg>