<svg width="56" height="56" viewBox="0 0 56 56" xmlns="http://www.w3.org/2000/svg"><path fill="url(#a)" d="M0 0h56v56H0z"/><circle cx="28" cy="28" r="16" fill="url(#b)"/><path d="M30.96 12.27a16.03 16.03 0 0 1 11.95 9.9c-.45.57-.91 1.29-.91 1.83 0 .5-.13.75-.25 1-.13.25-.25.5-.25 1 0 1 0 1.5-.5 2s-1 .5-1-.5-.5-1.5-1-2-1.5-.5-1.5 0 0 1.5-.5 1.5c-.2 0-.31 0-.38.06-.12.09-.12.33-.12.94 0 .47 0 .6-.05.72-.02.06-.05.1-.1.17-.07.11-.18.28-.35.61-.5 1-1 1.5-1 1s0-1.5.5-2 .5-1.5 0-1c-.2.2-.3.38-.41.55-.16.26-.28.45-.59.45-.13 0-.27.04-.4.07-.33.09-.6.16-.6-.57 0-.59.17-.83.31-1.03.1-.14.19-.26.19-.47 0-.5-.5-.5-1-.5h-2c-1 0-1.5-.5-2-1-.15-.15-.3-.25-.41-.34-.3-.2-.44-.3-.09-.66.25-.5.25-.88.25-1.13 0-.25 0-.37.25-.37.5 0 0-.5-.5-.5s-1 0-1 .5 0 1.5-.5 1.5-1 0-1-.5c0-.2.07-.3.14-.41.1-.16.17-.28-.14-.59-.25-.25-.38-.25-.56-.25-.19 0-.44 0-.94-.25-.45-.22-.8-.64-1.08-1-.37-.44-.64-.78-.92-.5-.33.33-.22.67-.11 1 .05.17.11.33.11.5 0 .5.5 1 1 1.5s1 .5 1.5.5 1.5.5 1 1c-.25.25-.38.13-.56-.06-.19-.19-.44-.44-.94-.44-.38 0-.7.15-.95.27-.43.2-.74.35-1.05-.27-.25-.5-.25-.75-.25-.94 0-.18 0-.31-.25-.56-.2-.2-.45-.38-.68-.55-.37-.26-.63-.45-.32-.45.25 0 .25-.38.25-.75 0-.38 0-.75.25-.75.5 0 1.5-.5 1.5-1 0-.13.04-.27.07-.4.09-.33.16-.6-.57-.6-.59 0-1 .17-1.34.31-.25.1-.45.19-.66.19H19c-.15 0-.2 0-.22.02 0 .02 0 .05.03.1.07.13.19.38.19.88 0 .57 0 .82-.1 1.02-.07.15-.19.27-.4.48-.17 0-.5-.1-.5-.5 0-.17.11-.39.22-.61.22-.45.45-.89-.22-.89-1 0-3 0-3-.5s1-2 2.5-2c.81 0 1.04 0 1.23-.08a7.03 7.03 0 0 1 .77-.42c.44-.22.88-.34 1.27-.45.51-.15.95-.27 1.23-.55.25-.25.5-.25.81-.25.32 0 .69 0 1.19-.25.45-.22.5-.25.54-.25h.02c.07 0 .19 0 .94-.25.5-.17.78-.28.96-.35.14-.06.23-.1.32-.11.15-.04.3-.04.72-.04.4 0 .48 0 .5-.03v-.03c0-.06 0-.19.5-.44l2.46-1.23ZM29 27.5c.17.17.4.6 0 1-.5.5-.5 1.5 0 1 .25-.25.25-.38.25-.5 0-.13 0-.25.25-.5.5-.5 0-1.5-.5-1Zm-1 3c0-.5 1.5-.5 2-.5s-.5.5-1 .5h-1Zm3 0c0 .17.2.5 1 .5s1.33-.33 1.5-.5L32 30c-.33-.17-1-.3-1 .5Zm1 3.5c0-.4 1.33-1.5 2-2 .17 0 .4-.1 0-.5-.3-.3-.97.3-1.67.95A7.1 7.1 0 0 1 31 33.5c-.25.13-.53.25-.81.38-.85.37-1.69.74-1.69 1.12 0 .5 3.5-.5 3.5-1Zm-3-.5 1-1c-.17.17-.7.4-1.5 0-1-.5-1.5-.5-2 0-.2.2-.45.3-.68.41-.37.16-.63.28-.32.59.23.23.15.45.08.63-.08.22-.13.37.42.37.5 0 .63-.13.75-.25.13-.13.25-.25.75-.25.57 0 .82 0 1.02-.1.15-.07.27-.19.48-.4Zm-7 3c-.34.17-.45.13-.6.07-.1-.03-.2-.07-.4-.07-.25 0-.25.13-.25.25 0 .13 0 .25-.25.25s-.25-.13-.25-.25c0-.13 0-.25-.25-.25s-.38 0-.44-.06-.06-.19-.06-.44c0-.16 0-.22.02-.22l.04.03c.07.06.19.19.44.19.4 0 .5-.33.5-.5.5-.17 1.5-.6 1.5-1 0-.5.5 0 1 .5.28.28.4.09.55-.13.1-.18.23-.37.45-.37l.2.01c0 .01-.02.03-.07.05-.13.06-.38.19-.63.44-.4.4-.5.83-.5 1l-1 .5Zm2.5 5.5c-.17 0-.6-.1-1-.5-.25-.25-.63-.5-1-.75-.38-.25-.75-.5-1-.75-.18-.18-.23-.23-.22-.27l.03-.04c.07-.06.19-.19.19-.69 0-.42-.09-.76-.15-1-.1-.33-.14-.5.15-.5.25 0 .25-.25.25-.44s0-.31.25-.06c.29.29.41.41.56.46.1.04.23.04.44.04.25 0 .38 0 .44-.06s.06-.19.06-.44 0-.38.06-.44c.07-.06.19-.06.44-.06.4 0 1.17.33 1.5.5.17-.33.6-.9 1-.5.25.25.38.25.5.25.13 0 .25 0 .5.25.5.5 1 .5 1.5.5.2 0 .38-.07.55-.14.26-.1.45-.17.45.14 0 .17.06.33.11.5.11.33.22.67-.11 1-.23.23-.15.45-.08.63.08.22.13.37-.42.37h-2a2.2 2.2 0 0 1-.85-.15c-.24-.1-.36-.14-.65.15-.25.25-.25.38-.25.44v.04c-.02.02-.07.02-.25.02-.5 0-1 0-1 .5 0 .2.07.3.14.41.1.16.17.28-.14.59Z" fill="url(#c)"/><defs><linearGradient id="a" x1="10.42" y1="9.71" x2="68.15" y2="76.02" gradientUnits="userSpaceOnUse"><stop stop-color="#1A1E21"/><stop offset="1" stop-color="#06060A"/></linearGradient><linearGradient id="b" x1="37" y1="15.5" x2="17" y2="39.5" gradientUnits="userSpaceOnUse"><stop stop-color="#8DC44D"/><stop offset="1" stop-color="#6BADC6"/></linearGradient><linearGradient id="c" x1="28.95" y1="12.27" x2="28.95" y2="42" gradientUnits="userSpaceOnUse"><stop stop-color="#DAEEC4"/><stop offset="1" stop-color="#CDE7DC"/></linearGradient></defs></svg>