<svg width="56" height="56" viewBox="0 0 56 56" xmlns="http://www.w3.org/2000/svg"><path fill="#F0F3FA" d="M0 0h56v56H0z"/><path fill-rule="evenodd" d="M5 23h2v9H5v-9Zm3 2v7h2v-6h2c.8 0 1 1 1 1.5V32h2v-5c0-1.6-2-2-3-2H8Zm9-2h2v2h2v1h-2v4c0 .33.2 1 1 1h1v1h-1.5c-.83 0-2.5-.4-2.5-2v-7Zm12 8v1h-4c-1-.17-3-1.1-3-3.5 0-3 2.5-3.5 3.5-3.5s3.5.5 3.5 4h-4.96c.14.86.64 2 1.96 2h3Zm-4.97-3h2.89c-.16-.96-.55-2-1.42-2-.99 0-1.37 1.14-1.47 2ZM32 25h5v6c0 .67-.4 2-2 2h-4v-1h3c.33 0 1-.2 1-1v-1h-3c-.5 0-2-.5-2-2.5 0-1.6 1.5-2.5 2-2.5Zm1.5 1H35v3h-1.5c-.5 0-1.5-.3-1.5-1.5s1-1.5 1.5-1.5Zm7.5 6h-2v-5c0-1.6 1.33-2 2-2h3v1h-2c-.8 0-1 .67-1 1v5Zm4-6v-1h4c1.6 0 2 1.33 2 2v5h-5c-.67 0-2-.4-2-2s1.33-2 2-2h3v-1c0-.8-.67-1-1-1h-3Zm1 4c0-.8.67-1 1-1h2v2h-2c-.33 0-1-.2-1-1Z" fill="#1E356B"/></svg>