<svg width="56" height="56" viewBox="0 0 56 56" xmlns="http://www.w3.org/2000/svg"><path fill="#F0F3FA" d="M0 0h56v56H0z"/><path fill="#2B2A29" d="M5 24h46v8H5z"/><path fill-rule="evenodd" d="M51.5 23.5h-47v9h47v-9ZM4 23v10h48V23H4Z" fill="#2B2A29"/><path d="M45 31v-.23c.23 0 .68-.04.78-.1.15-.1.22-.27.22-.52v-4.3c0-.26-.08-.43-.23-.52a3.35 3.35 0 0 0-.77-.1V25h5v1.79h-.2c-.19-1.1-.64-1.5-1.73-1.5-.25 0-.4.04-.47.1-.07.05-.1.16-.1.33v2.05c.46.01.76-.08.93-.27.16-.19.28-.54.37-1.04h.2v3h-.2c-.06-.5-.18-.86-.35-1.07-.18-.2-.5-.3-.95-.3v2.14c0 .2.04.32.13.39.09.06.27.1.54.1 1.08 0 1.6-.6 2-1.57h.22L50.07 31H45ZM24 30.86l3.15-5.55c-.62 0-1 0-1.11.02l-.33.05a1.3 1.3 0 0 0-.82.54c-.12.17-.25.64-.4 1.08h-.23l.17-2h4.32v.14l-3.13 5.55c1.12 0 1.88-.09 2.26-.28.4-.18.7-.56.9-1.41H29l-.22 2H24v-.14ZM17.3 28.95l-.84-2.02h-.07l-.8 2.02h1.72ZM14 30.78c.21-.02.38-.11.51-.29.09-.1.2-.35.36-.73L16.83 25h.24l1.97 4.57c.22.52.39.85.5 1 .1.14.26.21.46.2V31h-2.85v-.22a2 2 0 0 0 .56-.07c.1-.04.14-.13.14-.28 0-.07-.03-.18-.07-.31a5.32 5.32 0 0 0-.12-.3l-.22-.53h-1.98l-.25.68c-.08.22-.12.38-.12.49 0 .12.09.21.26.27.1.03.25.05.45.05V31H14v-.22ZM6 30.77c.25 0 .65-.04.75-.1.17-.1.25-.27.25-.52v-4.3c0-.25-.08-.43-.24-.52-.1-.05-.5-.09-.76-.1V25h5v1.8h-.22c-.22-1.14-.57-1.5-1.68-1.5-.26 0-.42.03-.5.09-.07.06-.1.17-.1.33v2.05c.86.02 1.13-.47 1.28-1.27H10v3h-.22c-.1-.77-.42-1.42-1.28-1.42v2.07c0 .27.08.45.24.52.16.08.4.11.73.1V31H6v-.23Z" fill="#fff"/><path d="M40.41 23.6c0 2.35-4.77 5.53-7.26 6.86a.29.29 0 0 0-.15.25c0 .07.02.14.07.2a.3.3 0 0 0 .38.06c1.15-.68 3.42-1.98 3.9-1.98.65 0 .89.28 1 .85 0 .68-.7 1.76-2 3.57C33.82 36.92 32.3 37 31.47 37c-.82 0-1.7-.36-1.7-.87S31 35.05 31 33.98c0-.63-.24-.98-1.06-.98-.82 0-2.94.8-2.94 2.4 0 1.58 1.59 2.6 4.47 2.6C38.06 38 42 33.07 42 30.92c0-2.16-2.53-2.55-3.65-2.55C42.88 26.38 44 24.8 44 23.1c0-1.7-1.94-2.1-2.59-2.1-6.47 0-9.94 4.42-9.94 5.78 0 1.36.88 1.7 1.59 1.7 1.73 0 3.53-1.54 4.39-2.5.12-.12.18-.27.13-.44-.05-.21-.35-.27-.5-.11-.5.49-1.5 1.35-1.96 1.35-.6 0-.7-.45-.7-.68 0-1.7 3.7-4.1 4.82-4.1 1.11 0 1.17.87 1.17 1.6Z" fill="#DD2034"/></svg>