<svg width="56" height="56" viewBox="0 0 56 56" xmlns="http://www.w3.org/2000/svg"><path fill="#127AC9" d="M0 0h56v56H0z"/><path d="M6.37 26.82h3a.03.03 0 0 1 .02 0 .04.04 0 0 1 0 .04L9.16 28l-.01.02-.02-.02H6.1l-.02.03-.01.02-.64 2.92a.03.03 0 0 1-.03.03H4.04a.03.03 0 0 1-.03-.01.04.04 0 0 1 0-.03l1.49-6.93a.04.04 0 0 1 .03-.03h4.87a.03.03 0 0 1 .03.01.04.04 0 0 1 0 .03l-.24 1.15-.01.02H6.7a.03.03 0 0 0-.03.03l-.33 1.53a.04.04 0 0 0 .03.05ZM12.56 25.24l-.32 1.53a.04.04 0 0 0 .03.04H15.59a.04.04 0 0 1 .03.03v.02l-.24 1.12-.01.02H12l-.03.02-.01.02-.36 1.62a.04.04 0 0 0 0 .04.04.04 0 0 0 .04.01h3.78a.04.04 0 0 1 .04.05l-.26 1.21-.01.02-.03.01H9.94a.04.04 0 0 1-.04-.05l1.5-6.92v-.02h5.09a.04.04 0 0 1 .04.04l-.25 1.14a.04.04 0 0 1-.04.03H12.6a.04.04 0 0 0-.04.02ZM42.06 28.75a5730.21 5730.21 0 0 1 1.03-4.7c0-.03.02-.05.05-.05h1.37v.01a.03.03 0 0 1 .01.03l-1.49 6.9-.02.04a.07.07 0 0 1-.05.02h-1.4a.08.08 0 0 1-.06-.05l-1.8-4.66c0-.02-.02-.03-.05-.03l-.02.02-1 4.67-.02.03a.06.06 0 0 1-.04.02h-1.33a.05.05 0 0 1-.04-.02.05.05 0 0 1 0-.04l1.5-6.92.01-.02h1.47a.06.06 0 0 1 .05.04l1.79 4.7a.03.03 0 0 0 .02.01.02.02 0 0 0 .02 0ZM46.89 26.83l3.32-2.82h.02l1.74-.01H52a.03.03 0 0 1 0 .04v.01l-3.38 2.76v.04l2.15 4.1v.02a.03.03 0 0 1-.01.02h-1.73a.03.03 0 0 1-.03-.01l-1.59-3.16a.03.03 0 0 0-.02-.02.03.03 0 0 0-.02 0l-.88.72v.02l-.53 2.43a.03.03 0 0 1-.03.03H44.5a.03.03 0 0 1-.02-.02v-.02l1.5-6.93a.03.03 0 0 1 .03-.03h1.4a.03.03 0 0 1 .03.01.03.03 0 0 1 0 .02l-.61 2.77a.03.03 0 0 0 .05.03Z" fill="#fff"/><path fill-rule="evenodd" d="M19.34 31c2.4-.04 3.65-2.11 3.86-4.31.19-1.94-.88-2.7-2.69-2.69h-2.65a.04.04 0 0 0-.03.03l-1.5 6.92a.04.04 0 0 0 .04.05h2.97Zm-.35-5.75-.96 4.43a.05.05 0 0 0 0 .05.05.05 0 0 0 .05.01l.25.01a5.1 5.1 0 0 0 1.87-.18c1.09-.4 1.45-1.86 1.51-2.9.04-.75-.27-1.37-1.11-1.42a24.35 24.35 0 0 0-1.61 0ZM32.02 29.55l2.7.01h.02l.01.03.16 1.38a.03.03 0 0 0 .03.03h1.47a.03.03 0 0 0 .03-.03l-1.03-6.94a.03.03 0 0 0-.03-.03h-1.64a.03.03 0 0 0-.02.02l-4 6.93a.03.03 0 0 0 0 .03.03.03 0 0 0 .02.02h1.48l.01-.02.76-1.41a.03.03 0 0 1 .03-.02Zm2.2-4.08-1.56 2.86a.03.03 0 0 0 .02.05h1.92a.04.04 0 0 0 0-.03l-.32-2.87a.04.04 0 0 0-.03-.03h-.02l-.01.02ZM29.1 27.25c.48.27.76.67.7 1.26-.16 1.63-1.4 2.48-2.95 2.49h-3.33c-.03 0-.04-.01-.03-.04l1.5-6.9c0-.04.03-.05.06-.06h3.48c.85.01 1.78.4 1.7 1.42-.08.85-.46 1.43-1.14 1.75-.05.03-.05.05 0 .08Zm-1.5-.54a99.5 99.5 0 0 1-1.78-.01l-.01-.02v-.01l.3-1.4a.08.08 0 0 1 .08-.06h1.69c.52 0 .96.17.78.8-.13.46-.48.69-1.06.7Zm.67 1.82c-.01-.41-.51-.52-.84-.53a115.39 115.39 0 0 0-1.88.01l-.02.03-.38 1.67v.02a.03.03 0 0 0 .02.02h1.81c.8-.02 1.3-.4 1.29-1.22Z" fill="#fff"/></svg>