<svg width="56" height="56" viewBox="0 0 56 56" xmlns="http://www.w3.org/2000/svg"><path fill="#F0F3FA" d="M0 0h56v56H0z"/><path d="M44.97 17.85a4.73 4.73 0 0 0 1.62-.54 1.05 1.05 0 0 1 .74-.07l.47.13c.24.07.26.16.06.29a8.67 8.67 0 0 0-2.18 1.9c-.53.65-1.89 1.12-4.05 1.42-.4.06-.47 0-.19-.2l.9-.6c.22-.14.28-.32.19-.54l-1.43-3.11c-.24-.52-.04-.66.57-.41.7.27 1.6.8 2.7 1.58.07.06.17.1.28.13.1.03.21.03.32.02Z" fill="#F37920"/><path d="M19 21H8v15h3v-6h5l1-3h-6v-3h7l1-3ZM33 21H22v15h11l-2.2-3H25v-3h5v-3h-5v-3h6.9l1.1-3ZM39 21h-3v15h9.9l1.1-3h-8V21Z" fill="#00918F"/></svg>