<svg width="56" height="56" xmlns="http://www.w3.org/2000/svg"><path fill="#073080" d="M0 0h56v56H0z"/><path fill-rule="evenodd" d="M25.85 14.18l-11.178 6.531c-.556.308-1.67 1.352-1.67 3.063v13.043c-.035.692.25 2.283 1.67 3.102 1.422.82 2.895 1.627 3.454 1.928.63.271 1.85.373 1.874-1.386.024-1.759.01-3.564 0-4.247.05-.763.416-2.06 2.172-1.144a87.687 87.687 0 014.422 2.5c.468.331 1.403.644 1.403-.753v-5.543c.01-.442-.256-1.156-1.403-.482-1.146.675-3.06 1.747-3.873 2.2-.66.3-1.672.463-1.721-1.296-.049-1.76-.02-2.882 0-3.223.01-.633.334-1.747 1.945-1.145l3.65 2.162c.467.301 1.402.597 1.402-.632V24.49c0-.944 1.328-2.644 3.304-1.56a132.319 132.319 0 013.476 1.959c.407.27 1.22.536 1.22-.573v-5.422c.03-.441-.17-1.174-1.22-.572a367.73 367.73 0 01-3.476 1.958c-1.098.431-3.304.48-3.304-1.784v-3.193c-.039-.638-.523-1.755-2.148-1.122zm-4.295 8.622a.5.5 0 00.752.428l1.984-1.132a.495.495 0 00.004-.862l-1.985-1.132a.505.505 0 00-.755.434v2.264z" fill="#fff"/><path d="M35 31.794a.5.5 0 01-.75.433l-2.51-1.445a.5.5 0 010-.867l2.51-1.445a.5.5 0 01.75.433v2.891zm8.001-4.326a.5.5 0 01-.75.433l-2.501-1.444a.5.5 0 010-.866l2.501-1.445a.5.5 0 01.75.433v2.889zm-.997 8.392a.2.2 0 01-.3.173l-1.576-.91a.2.2 0 010-.346l1.576-.91a.2.2 0 01.3.174v1.819zM34 39.918a.2.2 0 01-.3.173l-1.587-.91a.2.2 0 010-.347l1.587-.911a.2.2 0 01.3.173v1.822z" fill="#fff"/></svg>