<svg width="56" height="56" viewBox="0 0 56 56" xmlns="http://www.w3.org/2000/svg"><path fill="#F0F3FA" d="M0 0h56v56H0z"/><path d="M50.36 27v-4.67H49V22h3v.33h-1.36V27h-.28ZM46 24.3h2.13v.32H46v-.32Zm-.18 2.37h2.68V27h-3v-5h2.9v.33h-2.58v4.34ZM42.47 25.5l-.01-.46 2.1-3.04h.33l-1.64 2.3-.15.23-.63.97ZM42 27v-5h.27v5H42Zm2.67 0-1.65-2.57.18-.27L45 27h-.33ZM33.5 27l1.85-5h.3l1.85 5h-.32l-1.75-4.77h.13L33.82 27h-.32Z" fill="#31BDD4"/><path fill-rule="evenodd" d="M38 22v5h.28l.04-1.68c.6 0 1.19.07 1.75-.1.57-.23.87-.76.87-1.53a2 2 0 0 0-.19-.91c-.12-.25-.3-.45-.53-.58-.23-.13-.51-.2-.84-.2H38Zm.32 3h1.1c.84 0 1.23-.46 1.23-1.31 0-.44-.1-.77-.32-1-.22-.24-.53-.36-.95-.36h-1.1l.04 2.67Z" fill="#31BDD4"/><path d="M40.22 25.5h-.32l.78 1.5H41l-.78-1.5Z" fill="#31BDD4"/><path fill-rule="evenodd" d="M19 22v5h.28l.04-1.68c.6 0 1.19.07 1.75-.1.57-.23.87-.76.87-1.53a2 2 0 0 0-.19-.91c-.12-.25-.3-.45-.53-.58-.23-.13-.51-.2-.84-.2H19Zm.32 3h1.1c.84 0 1.23-.46 1.23-1.31 0-.44-.1-.77-.32-1-.22-.24-.53-.36-.95-.36h-1.1l.04 2.67Z" fill="#31BDD4"/><path d="M21.22 25.5h-.32l.78 1.5H22l-.78-1.5Z" fill="#31BDD4"/><path fill-rule="evenodd" d="M26 28v5h.28l.04-1.68c.6 0 1.19.07 1.75-.1.57-.23.87-.76.87-1.53a2 2 0 0 0-.19-.91c-.12-.25-.3-.45-.53-.58-.23-.13-.51-.2-.84-.2H26Zm.32 3h1.1c.84 0 1.23-.46 1.23-1.31 0-.44-.1-.77-.32-1-.22-.24-.53-.36-.95-.36h-1.1l.04 2.67Z" fill="#31BDD4"/><path d="M28.22 31.5h-.32l.78 1.5H29l-.78-1.5ZM29 27v-5h.24l1.83 4h-.13l1.82-4h.23l.01 5h-.28v-4.45h.07l-1.72 3.79h-.14l-1.73-3.79h.08V27H29ZM23.5 24.3h2.13v.32H23.5v-.32Zm-.18 2.37H26V27h-3v-5h2.9v.33h-2.58v4.34ZM8.5 30.3h2.13v.32H8.5v-.32Zm-.18 2.37H11V33H8v-5h2.9v.33H8.33v4.34ZM16.5 27a1.3 1.3 0 0 1-1.1-.54c-.27-.36-.4-.9-.4-1.6V22h.27v2.84c0 .62.11 1.08.32 1.38.22.3.52.45.91.45.4 0 .7-.15.9-.45.22-.3.33-.76.33-1.38V22H18v2.86c0 .7-.13 1.24-.4 1.6a1.3 1.3 0 0 1-1.1.54ZM12.72 27v-4.67h-1.36V22h3v.33H13V27h-.28ZM9.5 27a1.3 1.3 0 0 1-1.1-.54c-.27-.36-.4-.9-.4-1.6V22h.27v2.84c0 .62.11 1.08.32 1.38.22.3.52.45.91.45.4 0 .7-.15.9-.45.22-.3.33-.76.33-1.38V22H11v2.86c0 .7-.13 1.24-.4 1.6a1.3 1.3 0 0 1-1.1.54ZM4.5 24.46h2.22v.33H4.5v-.33ZM4.33 27H4v-5h3v.33H4.33V27ZM35.5 33c-.3 0-.6-.06-.87-.18a1.65 1.65 0 0 1-.63-.49l.14-.27c.14.18.33.32.58.45.24.11.5.17.78.17s.5-.04.68-.12a.9.9 0 0 0 .52-.84.83.83 0 0 0-.14-.5 1 1 0 0 0-.38-.31 3.04 3.04 0 0 0-.5-.2l-.55-.15a2.43 2.43 0 0 1-.5-.24c-.16-.09-.29-.22-.38-.38a1.3 1.3 0 0 1-.14-.63c0-.23.05-.45.16-.65.1-.2.26-.35.48-.48.21-.12.5-.18.83-.18a1.97 1.97 0 0 1 1.25.44l-.11.3a1.75 1.75 0 0 0-.57-.32 1.7 1.7 0 0 0-1.23.03c-.17.09-.3.21-.38.36a.98.98 0 0 0-.13.5c0 .2.05.37.14.5a1 1 0 0 0 .37.3c.16.08.33.14.51.2.19.04.37.1.55.16.18.06.35.13.5.23.16.1.28.22.38.38.1.16.14.36.14.62 0 .23-.05.44-.16.65-.1.2-.27.35-.5.47-.2.12-.49.18-.83.18ZM30.47 31.5l-.01-.46 2.1-3.04h.33l-1.64 2.3-.15.23-.63.97ZM30 33v-5h.27v5H30Zm2.67 0-1.65-2.57.18-.27L33 33h-.33ZM23 33a1.76 1.76 0 0 1-1.43-.71 2.6 2.6 0 0 1-.42-.8 3.2 3.2 0 0 1 0-1.98c.1-.3.24-.57.42-.8.18-.22.4-.4.63-.52.25-.13.51-.19.8-.19a1.88 1.88 0 0 1 1.43.71A3.06 3.06 0 0 1 25 30.5c0 .36-.05.7-.15 1-.1.3-.24.56-.42.79-.18.22-.4.4-.64.53-.24.12-.5.18-.79.18Zm0-.33c.25 0 .47-.05.68-.16.21-.11.4-.26.55-.46a2.7 2.7 0 0 0 .49-1.55 2.65 2.65 0 0 0-.5-1.55c-.15-.2-.33-.35-.54-.46-.2-.1-.43-.16-.68-.16-.25 0-.47.06-.68.16-.21.11-.4.26-.55.46-.15.2-.28.43-.36.7a2.8 2.8 0 0 0 0 1.72c.08.25.2.48.36.68.16.2.34.35.55.46.2.1.43.16.68.16ZM16.4 33 15 28h.32l1.33 4.78h-.16L17.86 28h.3l1.35 4.78h-.15L20.71 28H21l-1.4 5h-.32l-1.32-4.62h.08L16.72 33h-.32ZM12.86 33v-4.67H11.5V28h3v.33h-1.36V33h-.28ZM4 28v5h.27v-4.34L6.77 33H7v-.27L4.23 28H4ZM6.73 32.05l.27.47V28h-.27v4.05Z" fill="#31BDD4"/><circle cx="35.5" cy="25.5" r=".5" fill="#3D3E42"/><path d="M23.5 30.5a.5.5 0 1 1-1 0 .5.5 0 0 1 1 0Z" fill="#3D3E42"/><circle cx="16.5" cy="24.5" r=".5" fill="#3D3E42"/><path d="M10 24.5a.5.5 0 1 1-1 0 .5.5 0 0 1 1 0Z" fill="#3D3E42"/></svg>