<svg width="56" height="56" viewBox="0 0 56 56" xmlns="http://www.w3.org/2000/svg"><path fill="url(#auihif4wk)" d="M0 0h56v56H0z"/><path d="M49.86 30.59a1 1 0 0 0-.1-.42.82.82 0 0 0-.3-.35c-.14-.11-.35-.22-.61-.32-.27-.1-.62-.21-1.04-.33a14.7 14.7 0 0 1-1.34-.43c-.42-.16-.8-.35-1.12-.56a2.7 2.7 0 0 1-.76-.75 1.8 1.8 0 0 1-.27-1c0-1.88 2.38-2.43 3.86-2.43 1.62 0 3.81.74 3.81 2.7h-2.13c0-.95-.9-1.31-1.72-1.31-.65 0-1.67.22-1.67 1.05 0 .15.04.29.13.4.09.13.22.24.4.34.17.1.39.2.65.3.25.09.55.18.89.27.57.14 1.06.3 1.5.49.43.18.79.38 1.08.6a2.07 2.07 0 0 1 .88 1.73c0 .39-.09.73-.26 1.03-.18.3-.44.55-.77.76-.33.21-.73.37-1.2.48a6.82 6.82 0 0 1-4.43-.53c-.4-.23-.73-.53-.98-.9A2.7 2.7 0 0 1 44 30h2.15c0 .27.05.64.15.83.1.19.24.34.42.46.19.11.4.2.66.25.26.05.54.08.85.08.37 0 .67-.05.91-.14.24-.08.42-.2.54-.36a.85.85 0 0 0 .18-.53ZM39 24h2v5.87c0 2.01-1.59 3.13-3.5 3.13-1.9 0-3.5-1.1-3.5-3.13V24h2v5.87c0 1.02.45 1.7 1.5 1.7 1.06 0 1.5-.68 1.5-1.7V24ZM28.97 30H31c-.15 2.07-2.07 3-3.95 3-2.46 0-4.04-1.77-4.04-4.19v-.6c0-2.4 1.61-4.21 4.06-4.21 1.94 0 3.72.93 3.94 3h-2.02c-.07-1.13-.83-1.57-1.92-1.57-1.58 0-2.06 1.41-2.06 2.76v.62c0 1.36.45 2.77 2.04 2.77 1.05 0 1.85-.48 1.93-1.58ZM6 24v9H4v-9h2Zm4 4v1.5H5.38V28H10Zm0-4v1.5H5.38V24H10Z" fill="#fff"/><path fill-rule="evenodd" d="M19 28.5a2.5 2.5 0 1 1-5 0 2.5 2.5 0 0 1 5 0Zm2 0a4.5 4.5 0 1 1-9 0 4.5 4.5 0 0 1 9 0Zm-3.5-.5a.5.5 0 1 0 0-1 .5.5 0 0 0 0 1Z" fill="#fff"/><defs><linearGradient id="auihif4wk" x1="10.42" y1="9.71" x2="68.15" y2="76.02" gradientUnits="userSpaceOnUse"><stop stop-color="#1A1E21"/><stop offset="1" stop-color="#06060A"/></linearGradient></defs></svg>