<svg xmlns="http://www.w3.org/2000/svg" width="56" height="56"><path fill="#00B0F2" d="M0 0h56v56H0z"/><path d="M9.21 24.69c2.73-.02 3.5 1.58 3.56 2.31h-2.02c-.25-.7-1.13-.97-1.54-.95-2.18 0-2.86 1.66-2.9 2.33-.04.53.32 1.33 1.7 1.25 1.26-.08 2.02-.35 2.17-.63H8.55l.52-1h3.7l-1.49 3h-1.25l.15-.82a6.4 6.4 0 01-2.92.82C6 31.04 4 30.18 4 28.38c0-1.73 1.8-3.67 5.21-3.7zM12 31l5.54-6h1.99l.47 6h-2l-.12-1h-2.86L14 31h-2zm5.77-2l-.12-1.93-1.7 1.93h1.82z" fill="#fff"/><path fill-rule="evenodd" d="M27.54 25h-4.81l-2.49 6h5.59c1.71 0 2.37-1.33 2.37-2 0-.53-.37-.96-.55-1.11.39-.08 1.16-.5 1.15-1.52-.01-1.03-.75-1.37-1.26-1.37zm-1.4 1.15h-1.85l-.58 1.2h1.84c.39 0 1.03-.18 1.06-.67a.48.48 0 00-.48-.53zm-2.78 2.26h2.05c.24 0 .53.18.5.53-.03.5-.71.68-1.13.68h-1.97l.55-1.21z" fill="#fff"/><path d="M40.2 25h-1.93l-2.54 6h2.03l2.43-6z" fill="#fff"/><path fill-rule="evenodd" d="M28.15 31l2.56-6h4.64c.43 0 1.38.44 1.38 1.47 0 1.44-1.8 2.2-2.28 2.26L35.2 31h-1.97l-.67-2h-1.5l-.9 2h-2.01zm4.08-4.6h1.84c.23 0 .5.18.48.53-.03.5-.67.7-1.06.7h-1.84l.58-1.23z" fill="#fff"/><path d="M50.07 25h-1.93l-2.53 6h5.77l.62-1h-4.13l2.2-5zm-8.93 0h6.33l-.58 1h-4.24l-.66 1.5h4l-.55 1h-3.82l-.68 1.5h4.5l-.57 1H38.6l2.53-6z" fill="#fff"/></svg>