<svg width="56" height="56" viewBox="0 0 56 56" xmlns="http://www.w3.org/2000/svg"><path fill="#4E1D21" d="M0 0h56v56H0z"/><path d="M43.51 25h-2.46l-.03-.01-.02-.03v-.92s0-.02.02-.03l.03-.01h10.91l.03.01.01.03v.91l-.01.03-.03.02h-6.92l-.03.02-.01.03v7.92s0 .02-.02.03H43.56v-7.95l-.01-.01a.04.04 0 0 0-.02-.03L43.5 25Z" fill="#fff"/><path d="M19.95 32.8c.03.02.05.02.05 0a2638.83 2638.83 0 0 1 .02-6.8h1.34c.02 0 .03.01.03.03v5.92c0 .01 0 .03.02.04l.03.01h5.3c.02 0 .03.01.03.04v.62h.02l.03-.03 3.89-6.76.01-.02a.04.04 0 0 1 .05.02l3.98 6.89c.04.07.06.06.06-.02v-6.72a.02.02 0 0 1 .01-.02h1.51c.13 0 .19.05.26.14l4.36 4.98c.03.03.05.03.05-.02v-5.07c0-.02.01-.03.04-.03h1.13c.02 0 .04.01.04.04v6.91l-.02.03-.03.02h-1.18a.12.12 0 0 1-.1-.04l-4.82-5.38c-.04-.04-.06-.03-.06.03v5.32c0 .05-.02.07-.07.07h-2.37a.1.1 0 0 1-.09-.05l-2.74-4.64a.04.04 0 0 0-.03-.02.03.03 0 0 0-.03.02l-2.57 4.64a.09.09 0 0 1-.07.05h-9.35l-.02-.03L16 28.3v-.01h-.02a.03.03 0 0 0-.03 0l-2.55 4.66a.1.1 0 0 1-.09.05h-8c-.24 0-.48-.04-.71-.12-.55-.18-.6-.83-.6-1.33v-6.17c0-.45.07-1.06.56-1.24.24-.09.47-.13.68-.13l5.34-.01c.31 0 .6.04.84.12.42.14.56.56.58.96V27h-1.33c-.05 0-.07-.02-.07-.06v-1.93c0-.03-.08-.01-.1-.01H5.38v7c-.02 0 0 .02 0 0h5.21v-2.42a.04.04 0 0 0-.01-.03h-.01l-.02-.01H8.01L8 29.51v-1c0-.03 0-.04.03-.04H12v4.17c0 .1.03.12.08.03l3.9-6.82.01-.01h.05c1.31 2.32 2.58 4.62 3.9 6.94Z" fill="#fff"/><path d="m24.47 29.98.15.02h2.37l.01.02v.95l-.01.02h-.03l-3.9.01c-.04 0-.06-.02-.06-.05v-4.9l.01-.04h.03l1.37-.01.03.01v3.94l.01.02.02.01ZM46 26.96v-.92a.04.04 0 0 1 .04-.04h5.92a.04.04 0 0 1 .04.04v.92a.04.04 0 0 1-.04.04h-2.92a.04.04 0 0 0-.04.05v5.9l-.01.04h-.03l-1.37.01-.02-.01-.02-.03V27h-1.51a.04.04 0 0 1-.04-.05Z" fill="#fff"/><path d="m14.2 32.96 1.8-3.18a.02.02 0 0 1 .02-.01.02.02 0 0 1 .02.01l1.78 3.18v.01a.02.02 0 0 1-.02.03h-3.57a.02.02 0 0 1-.02-.02v-.02ZM28.94 32.95l1.77-3.16a.03.03 0 0 1 .03-.01.03.03 0 0 1 .03.01l1.77 3.16a.03.03 0 0 1-.01.04h-3.57a.03.03 0 0 1-.02-.02v-.02Z" fill="#E77C21"/></svg>