<svg width="56" height="56" viewBox="0 0 56 56" xmlns="http://www.w3.org/2000/svg"><path fill="#F0F3FA" d="M0 0h56v56H0z"/><path d="M52 28.06c0 .48-.27.97-.8.97-.4 0-.6-.5-.9-.5-.68 0-.8 1.85-.8 2.28v.98c0 .42 0 .58.22.64.19.05.28.17.28.35V33h-2.61v-.22c0-.15.05-.25.16-.3.38-.16.45-.24.45-.68v-3.64c0-.36-.24-.52-.55-.65-.09-.04-.13-.13-.13-.27V27h1.96l.1 1.9c.16-.43.3-.74.42-.95.37-.63.79-.95 1.25-.95.56 0 .95.5.95 1.06ZM39 33h-2.5v-.26c0-.13.05-.22.15-.27.34-.12.35-.23.35-.58v-2.8c0-.44-.2-.89-.7-.89-.26 0-.6.09-.77.3v3.42c0 .38.05.41.4.55.11.05.17.13.17.26V33h-2.7v-.26c0-.34.6-.35.6-.9v-5.72c0-.3-.02-.57-.35-.65-.17-.03-.26-.12-.26-.26V25L35.5 25v2.9c.44-.31.95-.53 1.5-.53 1.02 0 1.5.69 1.5 1.7V32c0 .35.11.34.38.46.08.04.12.12.12.26V33ZM31.63 33H29.5v-.35c-.3.22-1.01.35-1.38.35-1.45 0-2.12-1.5-2.12-3s.38-3 2.1-3c.4 0 1.04.12 1.4.28v-1.47c-.06-.34-.5-.3-.5-.54V25h2v6.87c0 .54.21.37.53.63.07.05.1.13.1.27V33Zm-2.13-1.06v-3.93a1.7 1.7 0 0 0-.96-.34c-.87 0-.94 1.47-.94 2.16v.36c0 .7.07 2.09.95 2.09.26 0 .76-.16.95-.34ZM25 33h-2.45v-.2c0-.35.4-.28.43-.55.03-.1.02-.2.02-.31v-3.16c0-.66-.25-.99-.73-.99-.27 0-.62.14-.77.37v3.8c0 .1 0 .18.02.25.1.3.7.12.7.53V33h-2.81v-.24c0-.37.54-.2.57-.48l.02-.23V28.1c0-.5-.6-.4-.6-.8V27h2v.6c.45-.34.98-.6 1.55-.6 1.15 0 1.55.56 1.55 1.8v3.1c0 .1 0 .2.02.27 0 .06.04.12.08.16.16.15.4.12.4.4V33ZM18 32.38c-.22.4-.7.61-1.14.61-.5 0-1.05-.23-1.23-.74-.36.47-.99.75-1.58.75-.98 0-2.05-.54-2.05-1.64 0-1.01.86-1.7 2.68-2.09l.7-.14c-.03-.58-.13-1.56-.9-1.56-.46 0-.51.27-.46.69 0 .47-.32.74-.82.74a.76.76 0 0 1-.78-.76c0-.96 1.23-1.24 1.99-1.24 1.48 0 2.59.74 2.59 2.32v2.07c0 .26-.04.79.34.79.13 0 .33-.05.42-.12l.24.32Zm-2.62-2.12v-.52a2.7 2.7 0 0 0-.75.23c-.5.27-.63.68-.63 1.24 0 .6.1.96.5.96.6 0 .88-.62.88-1.91ZM46 32.38c-.22.4-.7.61-1.14.61-.5 0-1.05-.23-1.23-.74-.36.47-.99.75-1.58.75-.98 0-2.05-.54-2.05-1.64 0-1.01.86-1.7 2.68-2.09l.7-.14c-.03-.58-.13-1.56-.9-1.56-.46 0-.51.27-.46.69 0 .47-.32.74-.82.74a.76.76 0 0 1-.78-.76c0-.96 1.23-1.24 1.99-1.24 1.48 0 2.59.74 2.59 2.32v2.07c0 .26-.04.79.34.79.13 0 .33-.05.42-.12l.24.32Zm-2.62-2.12v-.52a2.7 2.7 0 0 0-.75.23c-.5.27-.63.68-.63 1.24 0 .6.1.96.5.96.6 0 .88-.62.88-1.91ZM11 26.8c0 .34-.23.68-.6.68-.22 0-.35-.26-.54-.26-.06 0-.15.36-.15.46.4.52.68.86.68 1.52 0 1.47-1.15 2.34-2.55 2.34-.3 0-.57-.02-.86-.09-.8 1.25.01.55 1.14.55 1.15 0 2.88.54 2.88 1.95C11 35.46 8.91 36 7.69 36c-.8 0-2.38-.22-2.38-1.3 0-.46.44-.7.87-.7.38 0 .78.14.78.56 0 .23-.11.37-.11.5 0 .3.7.3.88.3.56 0 1.27-.18 1.27-.9 0-.7-.7-.88-1.25-.88-.73 0-1.44.19-2.17.19-.3 0-.58-.07-.58-.42 0-.16.06-.29.16-.45l1.09-1.67a2.48 2.48 0 0 1-1.03-2.13c0-1.45 1.19-2.1 2.56-2.1.51 0 .93.1 1.39.37l.02-.32c0-.51.47-1.05.95-1.05.44 0 .86.34.86.8Zm-2.33 2.3c0-.51-.14-1.5-.9-1.5-.8 0-.77 1.05-.77 1.56 0 .54.03 1.84.83 1.84.78 0 .84-1.37.84-1.9Z" fill="#222680"/><path d="M25.4 22.73c-.14-.24-.44-.13-.58-.37a8.69 8.69 0 0 0-3.03-3.26.68.68 0 0 1-.33-.6c0-.2.08-.34.24-.43.3-.16.73-.02.99.17A9.89 9.89 0 0 1 27 26.82c0 .04-.02.08-.04.11a.18.18 0 0 1-.1.07h-.04c-.13-.02-.2-.09-.19-.22 0-.4-.03-.93-.12-1.57-.03-.25-.12-.43-.28-.54-.2-.13-.29-.43-.34-.65-.12-.47-.28-.9-.5-1.3Z" fill="#CB2D28"/><path d="M24.62 23.54c.16.42.27.92.37 1.35.02.06.01.12 0 .18a.26.26 0 0 1-.11.13l-.04.02c-.1.07-.17.03-.19-.1-.06-.41-.16-.82-.3-1.24-.1-.3-.26-.48-.48-.57a.4.4 0 0 1-.21-.2c-.17-.33-.35-.66-.55-.98-.1-.19-.26-.32-.45-.34a.58.58 0 0 1-.39-.19c-.39-.41-.79-.9-1.24-1.2-.27-.18-.53-.39-.82-.53a8.82 8.82 0 0 0-.86-.37c-.46-.18-.48-1.14.04-1.23.34-.06.74.14 1.06.31a7.84 7.84 0 0 1 3 2.6c.43.64.83 1.42 1.17 2.36Z" fill="#EB8A39"/><path d="M22.22 22.72c-.06-.16-.18-.28-.34-.32-.39-.1-.68-.4-.97-.67a.52.52 0 0 0-.17-.1.19.19 0 0 0-.08-.01c-.31.03-.6-.05-.87-.22a3.6 3.6 0 0 0-.9-.44l-.67-.19a2.57 2.57 0 0 0-.49-.07c-.2 0-.42 0-.56-.18-.29-.4-.24-1 .34-1.02.34 0 .79.05 1.35.17.3.06.57.16.83.3.6.32 1.18.63 1.7 1.1.32.28.62.6.92.95.13.15.14.34.25.5.18.24.41.51.44.84v.05l-.04.05a.12.12 0 0 1-.04.03h-.06c-.3-.04-.52-.48-.64-.77Z" fill="#F9D23F"/><path d="M21.05 22.8a.13.13 0 0 1-.04.13.12.12 0 0 1-.05.02c-.43.12-.58-.48-.97-.54-.03 0-.06 0-.08.02-.13.06-.27.07-.4 0a3.7 3.7 0 0 0-.65-.28.12.12 0 0 0-.14.06c-.04.08-.1.1-.18.1a4.52 4.52 0 0 1-.77-.1 4.74 4.74 0 0 0-1.73.03c-.26.04-.55-.07-.56-.37-.03-.5.18-.78.65-.82.52-.05.96-.06 1.33-.04 1.27.09 2.38.56 3.31 1.42.13.12.23.19.28.37Z" fill="#54AD40"/><path d="M16.95 23c.64 0 1.28.1 1.92.32.1.04.15.1.12.18l-.03.08c-.02.08-.09.1-.19.06l-.31-.13a.3.3 0 0 0-.25.02c-.14.08-.3.1-.49.05a.34.34 0 0 0-.22.02c-.1.05-.2.1-.31.12-.34.06-.69.08-1.02.15l-.5.11c-.26.06-.62-.01-.66-.23-.04-.2.05-.36.26-.45.48-.22 1.1-.3 1.68-.3Z" fill="#0194C6"/></svg>