<svg width="56" height="56" viewBox="0 0 56 56" xmlns="http://www.w3.org/2000/svg"><path fill="#F0F3FA" d="M0 0h56v56H0z"/><path d="M23.19 11H33.2c.8 0 1.41.02 2.16.23.95.26 1.7.78 1.83 1.72a.04.04 0 0 1 0 .03l-.03.01h-.02L24.01 13h-4.97c-.08 0-.11-.04-.1-.1a1.9 1.9 0 0 1 1.18-1.47c.96-.4 2.04-.43 3.07-.43Zm1.89 3h12.46c1.18 0 2.18.35 2.8 1.7.32.69.53 1.46.65 2.3H15.35c-.03 0-.04-.02-.05-.06a4.01 4.01 0 0 1 2.21-3.82c.2-.08.49-.12.85-.12h6.72Zm2.05 20.68a5.63 5.63 0 0 0 .15 3.96 4.46 4.46 0 0 0 4.16 2.8 4.26 4.26 0 0 0 3.8-2.32c.6-1.25.34-2.82-.18-4.12H41v1.38c-.07 3.9-1.9 7.38-5.48 9.23-.79.4-1.6.71-2.42.93-.99.25-1.94.4-2.86.44-3.56.16-6.82-.68-9.79-2.52a12.4 12.4 0 0 1-3.53-3.27 9.65 9.65 0 0 1-1.86-4.96c-.04-.44-.06-.95-.06-1.53V19.08c0-.05.03-.08.08-.08h25.86l.04.02.02.04v6.42c0 .9-.17 1.71-.51 2.43-.64 1.35-2.22 1.83-3.68 2-1 .11-2.06.22-3.18.31-.5.04-.93.1-1.3.18-2.22.5-4.5 2.05-5.2 4.28Zm-5.63-8.36c.76 0 1.38-.6 1.38-1.36 0-.75-.62-1.36-1.38-1.36-.77 0-1.39.6-1.39 1.36 0 .75.62 1.36 1.39 1.36Z" fill="#ED1C24"/></svg>