<svg xmlns="http://www.w3.org/2000/svg" width="56" height="56"><path fill="#F0F3FA" d="M0 0h56v56H0z"/><path fill-rule="evenodd" d="M28.04 12H28c-.6 0-1.2.03-1.8.1.06.05.09.13.08.2l-1.1 7.54L28.05 12zm-2.23.15c-.5.07-1.01.16-1.5.28.1.03.17.12.18.23l.18 6.5.02.59 1.09-7.51.03-.1zm-1.75.34c-.5.12-.98.27-1.45.44l1.56 6.37v-.13l-.18-6.5c0-.07.02-.13.07-.18zm-1.92.62c-.41.16-.8.34-1.2.53l2.82 6.09-1.62-6.62zm-1.65.76a16 16 0 00-1.2.7l4.06 5.46-2.86-6.16zm-1.61.98c-.34.24-.67.49-.99.74l5 4.65-4.01-5.39zm-1.37 1.07c-.38.32-.73.67-1.08 1.03l6.26 3.79-5.18-4.82zm-1.42 1.4c-.33.36-.63.73-.92 1.12l6.9 2.51-5.98-3.63zm-1.23 1.54a16 16 0 00-.9 1.47l8.3 1.22-7.4-2.69zm-1.15 1.94c-.25.5-.48 1-.68 1.53L21.9 22l-8.2-1.2zm-.86 2.03c-.23.68-.42 1.38-.55 2.1l9.92-2.44-9.37.34zm-.65 2.63a16.1 16.1 0 00-.2 2.3l3.26-1.53a.25.25 0 01.21.45L12 28.3c.02.93.12 1.84.28 2.72l10.33-7.68-6 2.8a.25.25 0 01-.2-.45l5.66-2.64-9.87 2.41zm.2 6.1c.2.87.47 1.72.8 2.54l4.5-4.83a.25.25 0 11.36.34l-4.64 5a16 16 0 0024.56 5.9l-.97-1.3a.25.25 0 11.4-.3l.96 1.28a15.96 15.96 0 005.39-14.98l-9.18-1.35a.25.25 0 01.08-.49l9 1.32a15.99 15.99 0 00-5.18-8.78.25.25 0 01-.08.05l-11.54 5.4 10.92-2.68a.25.25 0 11.12.49l-10.81 2.65 13.75-.5a.25.25 0 01.01.5l-13.46.48 6.22.92a.25.25 0 01-.07.5l-6.5-.96 8.7 3.16a.25.25 0 11-.18.47l-8.88-3.23 6.79 4.12a.25.25 0 11-.26.43l-6.6-4.01 4.12 3.84a.25.25 0 11-.34.37l-3.81-3.55 5.6 7.51a.25.25 0 11-.4.3l-5.94-7.97 2.29 4.94a.25.25 0 11-.46.21l-2.2-4.73 1.74 7.06a.25.25 0 11-.48.12l-1.85-7.54.35 8.68a.25.25 0 01-.5.02l-.32-7.8-.76 5.27a.25.25 0 01-.5-.08l.85-5.79-4.74 13a.25.25 0 11-.47-.17l4.74-13.01-3.86 6.41a.25.25 0 01-.43-.26l3.82-6.33-4.31 4.67a.25.25 0 01-.37-.33l4.16-4.52-10.14 7.54zm25.67-16c-.68-.55-1.41-1.05-2.18-1.48a.25.25 0 01-.06.06l-8.95 6.66 11.19-5.24zm-2.65-1.74a15.9 15.9 0 00-2-.88l-6.9 7.5 8.9-6.62zm-2.51-1.05c-1.38-.45-2.84-.7-4.36-.76l-.01.08-2.77 7.6 3.69-6.12a.25.25 0 11.43.26l-3.86 6.4 6.88-7.46zm3.66 13.46a.25.25 0 00-.18.47l3.84 1.4a.25.25 0 00.18-.48l-3.84-1.4zm-2.39 1.48a.25.25 0 00-.26.43l3.37 2.04a.25.25 0 10.26-.43l-3.37-2.04zm7.15.25a.25.25 0 00-.17.47l1.4.51a.25.25 0 00.17-.47l-1.4-.51zm-10 .14a.25.25 0 00-.33.37l5.86 5.46a.25.25 0 10.34-.37l-5.86-5.46zm-2.87 1.77a.25.25 0 00-.45.2l3.26 7.05a.25.25 0 00.46-.21l-3.27-7.04zm-4.9 1.16a.25.25 0 10-.5-.07l-.67 4.69a.25.25 0 10.5.07l.67-4.69zm-4.19.25a.25.25 0 00-.43-.26l-1.53 2.54a.25.25 0 10.43.26l1.53-2.54zm8.01 1.09a.25.25 0 00-.48.12l.98 3.98a.25.25 0 10.48-.12l-.98-3.98zm5.44.37a.25.25 0 00-.4.3l.54.72a.25.25 0 10.4-.3l-.54-.72zm-7.55 1.05a.25.25 0 10-.5.02l.21 5.28a.25.25 0 10.5-.02l-.21-5.28zm8.48.2a.25.25 0 10-.4.3l3.28 4.4a.25.25 0 00.4-.3L33.75 34zm4.17.24a.25.25 0 10-.34.37l1.12 1.04a.25.25 0 10.34-.37l-1.12-1.04zm-15.14 2.21a.25.25 0 00-.5-.07l-.78 5.44a.25.25 0 10.5.07l.78-5.44zm5.73.51a.25.25 0 10-.49.12l.21.85a.25.25 0 10.49-.12l-.21-.85zm3.64.88a.25.25 0 10-.45.2l.5 1.1a.25.25 0 00.46-.22l-.5-1.08zm-13.23.67a.25.25 0 00-.47-.17l-.42 1.16a.25.25 0 10.47.17l.42-1.16zm6.6 1.5a.25.25 0 10-.5.01l.06 1.6a.25.25 0 00.5-.02l-.06-1.6z" fill="#ED1C24"/></svg>