<svg width="56" height="56" viewBox="0 0 56 56" xmlns="http://www.w3.org/2000/svg"><path fill="#F0F3FA" d="M0 0h56v56H0z"/><path d="M33.08 22.77c-.84.72-2.11 1.76-3.8 3.12-.36.29-.72.72-1.06 1.29a3.3 3.3 0 0 0-.4 2.7l-.02.04a.07.07 0 0 1-.08 0 5.01 5.01 0 0 1-2.27-2.59c-.76-1.96.44-3.77 1.86-5a28.74 28.74 0 0 0 3.15-3.13 5.74 5.74 0 0 0 1.41-3.22.11.11 0 0 1 .1-.05l.06.02a51.76 51.76 0 0 1 3.43 2.86c2.53 2.44 3.8 6.1 3.04 9.54a10.44 10.44 0 0 1-8.96 8.38 10.86 10.86 0 0 1-8.7-2.57 10.34 10.34 0 0 1-3.29-10.05c.53-2.3 1.72-4.26 3.6-5.87 2.9-2.52 4.6-4 5.07-4.44a29.34 29.34 0 0 0 1.77-1.8h.04a.08.08 0 0 1 .06.05c1.02 2.82.44 5.22-1.72 7.2-1.3 1.2-2.2 2.05-2.69 2.53-2.34 2.34-2.72 5.77-.65 8.4A6.32 6.32 0 0 0 26 32.22c1.47.51 2.95.45 4.43-.17a6.19 6.19 0 0 0 3.49-3.58c.73-1.92.31-3.93-.7-5.69-.03-.07-.09-.08-.15-.02Zm-14.72 12.6a11.07 11.07 0 0 0 8.31 2.8.06.06 0 0 1 .03.04v.03c-.02.04-.07.1-.16.14-1.38.82-2.8 1.32-4.26 1.5-1.57.2-3.05.15-4.44-.12-4.18-.82-6.9-4.04-7.93-8.01-.41-1.6-.68-3.3-.8-5.06-.12-1.55-.3-2.55-1.1-3.7a.07.07 0 0 1 0-.08.07.07 0 0 1 .06-.03c3.08.1 5.08 1.59 6 4.47.13.4.34 1.12.63 2.16a12.04 12.04 0 0 0 3.66 5.86Zm23.1-6.44a12.04 12.04 0 0 1-2.67 5.27 11.14 11.14 0 0 1-9.07 3.99c-.53-.01-.56.1-.09.33 1.13.55 2.35 1.13 3.68 1.3 2.16.27 3.95.21 5.4-.18a9.52 9.52 0 0 0 4.28-2.36c2.81-2.78 3.63-6.69 3.9-10.6A6.84 6.84 0 0 1 48 22.96a.05.05 0 0 0-.03-.04h-.02c-2.56 0-4.39 1.07-5.5 3.2-.4.8-.73 1.73-.98 2.82Z" fill="#DA3732"/></svg>