<svg width="56" height="56" viewBox="0 0 56 56" xmlns="http://www.w3.org/2000/svg"><path fill="#F0F3FA" d="M0 0h56v56H0z"/><circle cx="27.5" cy="30.5" r="13.5"/><circle cx="27.5" cy="30.5" r="12.5" fill="#2C3795"/><circle cx="23.5" cy="32.5" r="5.5" fill="#0566B3"/><circle cx="23.5" cy="32.5" r="3.5" fill="#0083CB"/><circle cx="35" cy="11" r="3" fill="#FFC40D"/><circle cx="38" cy="19" r="2" fill="#FFC40D"/><circle cx="40.5" cy="25.5" r="1.5" fill="#FFC40D"/><path d="M25.4 35.8c.05.1.07.17.07.2a2.07 2.07 0 0 1-.07-.2c-.4-.95-2.4-4.9-2.4-9.7 0-5.35 3.07-13.1 6.46-13.1A2.4 2.4 0 0 1 32 15.37c0 .9-.67 2.11-2.98 4.6-2.31 2.48-4.09 7.35-4.09 11.06 0 2.61.28 4.15.47 4.77Z" fill="#FFC40D"/><path d="M28 29.77c0 2.54.73 4.55 1.1 5.23-.32-2.65.78-7.64 2.98-9.57 2.83-2.48 3.92-3.26 3.92-4.06 0-.8-.73-1.37-1.71-1.37-3.31 0-6.29 6.6-6.29 9.77ZM34 31.86c0 1.53.46 2.73.69 3.14-.2-1.6.48-4.58 1.86-5.74C38.32 27.77 39 27.3 39 26.82s-.46-.82-1.07-.82C35.86 26 34 29.96 34 31.86Z" fill="#FFC40D"/><path d="M12 35.56c0-1.44 1.38-2.97 2.07-3.56v1.38c0 2.3 6.19 4.65 12.85 4.65 6.66 0 10.62-1.97 12.08-2.97C37.62 37.49 33.14 40 23.64 40S12 37.36 12 35.56Z" fill="#FFC40D"/></svg>