<svg width="56" height="56" viewBox="0 0 56 56" xmlns="http://www.w3.org/2000/svg"><path fill="#F0F3FA" d="M0 0h56v56H0z"/><path d="M50 31.5c0-.65-1.52-.92-1.8-1-1.23-.4-2.76-1.05-2.76-2.81 0-2.04 1.77-2.69 3.26-2.69 1.12 0 2.56.45 3.23 1.57l-1.48 1.33c-.52-.6-1.25-.9-2.18-.9-.45 0-.65.15-.65.5 0 .54 1.28.81 1.53.89 1.27.36 2.85 1.09 2.85 2.87 0 2.02-1.78 2.74-3.28 2.74-1.44 0-2.98-.6-3.72-2.1l1.76-1.05A2.75 2.75 0 0 0 49 32c.54 0 1-.1 1-.5ZM27 34v-9h2v.8c.42-.53 1.55-.8 2.67-.8 2.4 0 3.33 1.85 3.33 4.04V34h-2v-5.1c0-1.11-.83-1.9-2.02-1.9-.78 0-1.68.4-1.98 1.17V34h-2ZM44 25v9h-2v-.8c-.42.53-1.55.8-2.67.8-2.4 0-3.33-1.85-3.33-4.04V25h2v5.1c0 1.11.83 1.9 2.02 1.9.78 0 1.68-.4 1.98-1.17V25h2ZM10 29v-2h5v5c-1.2 1.3-2.94 2-4.7 2C6.83 34 4 31.58 4 28c0-3.39 2.64-6 6.02-6 1.7 0 3.74.6 4.71 2.09l-1.78 1.1A3.6 3.6 0 0 0 10.12 24 3.94 3.94 0 0 0 6 28c0 2.13 1.5 4 4.32 4 .86 0 2.07-.22 2.68-.66V29h-3ZM23.26 31.05l1.51 1.21A4.8 4.8 0 0 1 20.88 34a4.7 4.7 0 0 1-4.8-4c1.92-.9 1.62 0 2.26 0 .36 1 1.3 2 2.58 2a3.1 3.1 0 0 0 2.34-.95Z" fill="#0066B5"/><path fill-rule="evenodd" d="M18.64 30h-2.57c-.05-.28-.07-.18-.07-.5 0-2.72 2.03-4.5 4.7-4.5 2.32 0 4.3 1.57 4.3 4 0 .35-.05.41-.14 1h-6.22Zm.05-2c.32-.76.95-1 1.91-1 .99 0 1.59.24 1.8 1h-3.7Z" fill="#F67B20"/><path d="M17.9 22.52c-.1-.17-.04-.38.15-.47.2-.1.44-.04.55.12l.51.77c.12.16.05.37-.14.46-.2.1-.44.04-.55-.12l-.52-.76ZM22.84 22.52c.11-.17.04-.38-.15-.47-.19-.1-.44-.04-.55.12l-.51.77c-.11.16-.05.37.15.46.19.1.43.04.54-.12l.52-.76ZM25.85 24.37c.17-.12.2-.34.06-.48a.45.45 0 0 0-.56-.06l-.8.56c-.18.12-.2.33-.07.48.14.15.4.17.57.05l.8-.55ZM15.15 24.37c-.17-.12-.2-.34-.06-.48.14-.15.4-.17.56-.06l.8.56c.18.12.2.33.07.48a.45.45 0 0 1-.57.05l-.8-.55Z" fill="#F67B20"/></svg>