<svg xmlns="http://www.w3.org/2000/svg" width="56" height="56"><path d="M0 28a28 28 0 1156 0 28 28 0 01-56 0z" fill="#F0F3FA"/><path d="M12.6 17c0-.4-.1-.74-.4-.7-.28.04.12.25-.2.5-.4.32 0 .2 0 .7 0 .4.23.6.4.7.17.1.15-.2.2-.3.08-.2.37.2.4-.1.03-.3-.4-.4-.4-.8zm1.4-1.3v-.2l1 1v.5c0 .17-.06.44-.32.2-.25-.24-.24 0-.38 0-.15 0-.23-.16-.3 0-.07.16-.2.07-.3 0-.2-.2.06-.25.1-.46 0-.15-.24-.1-.3-.24a.2.2 0 00-.01-.03l-.01-.2c0-.08-.08-.16-.08-.27 0-.4.43-.47.6-.3zm8.93 20.97a60.96 60.96 0 00-1.07-4.63l.28-.08c.33 1.16.77 2.97 1.09 4.66.15.84.28 1.65.35 2.33.07.68.07 1.25-.02 1.59l-.29-.08c.08-.28.08-.8.01-1.48-.07-.67-.2-1.47-.35-2.3z"/><path d="M21.85 32.2c.45.4 2.25.84 6.14-.13 1.2-.22 2.6.14 3.77.44.72.18 1.35.35 1.8.35 1.06 0 2.16-.16 3.25-.32 1.63-.24 3.26-.48 4.76-.18 2.5.5 4.43 2.14 4.43 2.14-.17-2.38-1.73-8.67-6.65-14.79-2.18.73-4.34 2.62-6.3 4.34l-.19.16 3 1.43-4.65 2.86-2.54-1.3c-2.51 1.36-4.7 3.15-5.92 4.14-.55.45-.9.86-.9.86z" fill="#5DAA3B"/><path d="M15.2 18.64c-.02.1-.03.37.14.72.07.14.32.45.65.87.7.86 1.75 2.19 2.43 3.48.8 1.55 2.86 5.56 3.44 8.49 1-.83 2.91-2.3 4.82-3.57l2.07-1.4-2.4-1.09 4.57-2.85 1.95.93c.78-.62 1.4-1.13 1.92-1.57a15.51 15.51 0 014.56-2.94c-2.47-.66-8.09-1.82-10.72-1.14-1.57.41-3.14-.43-3.14-.43-1.57-.5-4.82.05-6.65.5-.47.2-1.87.46-3.64 0z" fill="#E27426"/><path fill-rule="evenodd" d="M13.14 18.5c.94 0 1.65-.7 1.65-1.5s-.7-1.5-1.65-1.5c-.94 0-1.64.7-1.64 1.5s.7 1.5 1.64 1.5zm0 .5c1.19 0 2.15-.9 2.15-2s-.96-2-2.15-2c-1.18 0-2.14.9-2.14 2s.96 2 2.14 2z"/><path d="M22.32 44.09l-9.5-25.2.47-.18 9.5 25.2-.47.18zm.79-.29l-9.43-24.9.47-.18 9.43 24.92-.47.17zm1.15-.28l-10-25.43.47-.18 10 25.43-.47.18z"/><path d="M29.52 26.62l-.17-.45h-.61l-.16.45h-.28l.6-1.62h.3l.6 1.62h-.28zm-.23-.67l-.16-.44a2.92 2.92 0 01-.08-.28l-.09.3-.15.42h.48zm2.21.67h-.27v-.73h-.74v.73h-.26v-1.61h.26v.66h.74V25h.27v1.61zm.64-1.62h.48a.9.9 0 01.48.1c.1.07.15.17.15.31 0 .1-.02.17-.07.24a.33.33 0 01-.21.12c.11.03.2.07.25.13.05.07.08.15.08.26 0 .14-.05.26-.15.34a.65.65 0 01-.43.12h-.58v-1.61zm.27.67h.25c.11 0 .2-.01.24-.05.05-.03.08-.1.08-.18 0-.07-.03-.13-.08-.16a.51.51 0 00-.27-.05h-.22v.44zm0 .22v.51h.28c.1 0 .19-.02.25-.06.05-.04.08-.11.08-.2 0-.09-.03-.15-.09-.19a.46.46 0 00-.26-.06h-.26z" fill="#3B2374"/></svg>