<svg width="56" height="56" viewBox="0 0 56 56" xmlns="http://www.w3.org/2000/svg"><path fill="#F0F3FA" d="M0 0h56v56H0z"/><path d="m24.67 21.76-.14 1.67a3.33 3.33 0 0 0-2.26-.96c-1.37 0-2.27.97-2.27 2.53 0 1.56 1.32 2.45 2.18 2.45.69 0 1.2-.14 1.32-.21V26H22v-1.5h3v3.76a6 6 0 0 1-2.93.74C20.32 29 18 27.48 18 24.98c0-2.5 2.13-3.98 4.07-3.98 1.33 0 2.29.5 2.6.76ZM29 21h-2v8h2v-3.5h3V29h2v-8h-2v3h-3v-3Zm12.56 7.2c-.69.5-1.54.8-2.46.8-2.26 0-4.1-1.8-4.1-4s1.84-4 4.1-4c.92 0 1.77.3 2.46.8v2.04a2.4 2.4 0 0 0-2.14-1.34A2.46 2.46 0 0 0 37 25c0 1.38 1.08 2.5 2.42 2.5a2.4 2.4 0 0 0 2.14-1.34v2.04ZM45 21h-2v8h5v-1.5h-3V21Z" fill="#00746C"/><path fill-rule="evenodd" d="M49 30H12v5h37v-5Zm-16.5 1.5V34h.49v-2.5H34V31h-2.5v.5h1Zm-12.5 0V34h.5v-2.5h1V31H19v.5h1Zm5.5 0V31h-2v3h2v-.5H24v-.75h1.5v-.5H24v-.75h1.5ZM44 31v.5h-1.5v.75H44v.5h-1.5v.75H44v.5h-2v-3h2Zm-14.7 0h.7l-1.16 1.5L30 34h-.66l-.83-1.06-.82 1.06H27l1.16-1.51L27 31h.68l.81 1.06.81-1.06Zm6.7 0h.5v3H36v-3Zm2.5 0v3h2v-.5H39V31h-.5Zm7 2.73.04-.6c.55.62 1.46.6 1.46.12 0-.22-.31-.4-.66-.6-.4-.23-.84-.48-.84-.84 0-.58.48-.81 1.01-.81.43 0 .68.25.75.34v.42a.98.98 0 0 0-.75-.36c-.17 0-.51.03-.51.3 0 .28.31.44.65.6.4.21.85.44.85.9 0 .39-.3.8-1 .8-.55 0-.9-.18-1-.27Z" fill="#D1924C"/><path d="M7.36 27.6a3.13 3.13 0 0 1-1.59-2.74 3.09 3.09 0 0 1 3.89-3.01 3 3 0 0 0-1.59-.45A3.1 3.1 0 0 0 5 24.54c0 1.48 1 2.73 2.36 3.06ZM12.34 21.85a3.09 3.09 0 0 1 3.88 3c0 1.19-.63 2.22-1.58 2.75A3.13 3.13 0 0 0 17 24.54a3.1 3.1 0 0 0-3.07-3.14 3 3 0 0 0-1.59.45Z" fill="#D1924C"/><path d="M14.01 24.87a3.13 3.13 0 0 0-1.68-2.69 3.02 3.02 0 0 0-4.1 1.4c-.13.25-.22.53-.27.8-.04-.55.06-1.12.32-1.65a3.04 3.04 0 0 1 4.12-1.4 3.17 3.17 0 0 1 1.61 3.54Z" fill="#D1924C"/><path d="M7.4 27.08c-1.22 0-1.63.56-1.68.84.85-.56 1.44-.2 2.17.1.58.24 1.53.27 1.93.26-.05.52.43.86.67.97V35H12v-5.75c.55-.14.64-.7.64-.97 1.8.04 2.71-.76 3.18-.76.38 0 .72.27.84.4-.08-.77-1.07-.92-1.77-.92-.56 0-1.25.26-1.53.4.8-.82.68-1.64.72-2.09.04-.35.38-.84.55-1.05-.57.09-.92.63-1.09 1.05-.17.43-.6 2.21-2.27 2.21s-2.16-1.75-2.53-2.45c-.3-.56-.7-.66-.87-.64.56.43.45 1.34.57 1.97.1.5.5.96.67 1.12-.27-.14-1-.44-1.7-.44Z" fill="#00746C"/></svg>