<svg xmlns="http://www.w3.org/2000/svg" width="56" height="56"><path fill="#1B4263" d="M0 0h56v56H0z"/><path d="M9.54 27l-.58 2h1.97c-.27 1.98-3.68 2.3-3.2-.9.4-2.57 3.1-3.3 3.95-2.01l3.39-.87c-.5-2.15-2.18-3.22-4.4-3.22-3.75 0-6.23 2.8-6.64 6.71-.35 3.34 2.1 5.34 4.93 5.3a7.92 7.92 0 004.39-1.53L14.79 27H9.54zm5.84 0l-1.65 7h3.51l1.65-7h-3.51zm5.17-5l-2.67 12h3.51l2.68-12h-3.52zm-.74 1h-3.53l-.61 2.6 3.64-.8.5-1.8zm28.66 3c-1.43 0-2.62.39-3.45 1.42.13-.55.28-1.42.28-1.42h-1.46l.62-3h-3.51l-.63 3h-.8l.63-3h-3.51l-.61 3H34.9l-.52 2.2c-.44-1.37-1.98-2.2-3.45-2.2a4.35 4.35 0 00-4.33 3l1.62-7H24.7l-2.67 12h3.52l.76-3.72c-.13 1.32.36 3.72 3.52 3.72 1.59 0 3.62-1.07 4.1-2.54l-2.74-.49c-.3.41-.77.65-1.22.65-.75 0-.96-.63-.81-1.22h5.1c.06-.18.17-.4.2-1.05.02-.2.01-.17 0-.35h.98l-1.11 5h3.51l1.12-5h.78l-1.1 5h3.5l1.12-5h.96c-.18.43-.3.7-.37 1.17-.17 1.3.25 3.83 3.51 3.83 1.59 0 3.63-1.06 4.11-2.52l-2.75-.5c-.3.42-.77.66-1.22.66-.75 0-.97-.65-.81-1.24h5.1c.05-.18.16-.4.2-1.03 0-2.37-1.75-3.37-3.52-3.37zm-16.98 2.9l-1.94-.01c.3-1.03 2.1-1.27 1.94.01zm17.53.01h-1.94c.3-1.03 2.1-1.27 1.94 0z" fill="#fff"/></svg>