<svg xmlns="http://www.w3.org/2000/svg" width="56" height="56"><path fill="#F0F3FA" d="M0 0h56v56H0z"/><path d="M41.17 15.7L35.97 26h1.11l4.1-6.86V15.7zm-7.81 10.39L38 12.59h2.17l-5.66 13.38-1.16.12zm-2.56-.43l2.21-12.98h2.68l-3.46 13.08-1.43-.1zm-2.5.69l.29-13.7h2.17l-1.38 13.3-1.09.4zm-1.84 1.21L25 12.65h1.46l.66 14.7-.66.21zm-2.15.66L20.26 12.6h2.5l2.69 15.27-1.14.34zm-1.71.61l-6.57-16.17h2.13l5.33 15.84-.89.33zm-.85.34l-7.13-14.3v3.62l6.33 11.01.8-.33zm-1.69.78l-5.32-8.01v2.46l4.51 5.9.81-.35zm-1.76.83l-3.6-4.1v1.73l2.8 2.86.8-.49zm-2.27.55l-1.38-1.12v1.12h1.38z" fill="#D9BB88"/><path d="M19.68 30.16l-.7.2.43-5.94.27 5.74z"/><circle cx="19.4" cy="24.39" r=".23"/><circle cx="24.01" cy="19.39" r=".42"/><path d="M16.82 25.7l2.42-1.35-.25.64-2.17.71zm2.68-1.4l.51-2.59-.86 1.91.35.68zm2.08 2.08l-2.08-1.9h.64l1.44 1.9zm2.9 1.74l-1.1.39.5-9h.26l.34 8.6zm-.68-8.84l-4.15 2.47 3.66-1.3.5-1.17zm3.96 3.52l-3.59-3.2h1.13l2.46 3.2zm-3.6-3.59l.97-4.48-1.4 3.42.43 1.06zm-4.44-2.67c-1.7-.67-2.27.36-2.34.95a1.8 1.8 0 012.34-.6 1.7 1.7 0 012.22.36c-.57-1.3-1.72-1.01-2.22-.7z"/><path d="M20.81 18.02c-1.12-.96-2.14-.69-2.31-.09.93-.72 1.93.15 2.31.43.51-.55 1.51-.7 2-.34-.94-.93-1.66-.27-2 0z"/><path d="M17.43 32.67c2.52-1.4 8.67-4.33 13.16-4.83 5.27-.6 6.8-.43 9.99-.08l.73.08v7.6l-23.88-.33v-2.44zm16.5-3.94l-8.66 2.25 3.11.6-4.24 1.95 7.56-2.27-3-.42 5.23-2.1z" fill="#68B92E"/><path fill-rule="evenodd" d="M17.25 31.02a5.25 5.25 0 01-2.8 0V43.4h27V31.5c-1.49 0-2.55-.32-2.9-.49-.33 1.18-.86 1.68-1.08 1.78L36.2 31.5l-1.98-.49-.48 1.29-.71.68v.87c-.54 0-1.47-.38-1.87-.57l-1 .87h-1.9l-.38.42h-4.03l-.63-.72H21.4l-1.11-.87c-.54.36-1.55.55-1.98.6l.22-.79a4.28 4.28 0 01-1.27-1.78zM21 36.9V38h-2v-1h-1v4h1v-1h-.5v-1H21v2.13l-1.34.87H17.4l-1.4-.87V36.9l1.4-.9h2.26l1.34.9zM40 38v-1.1l-1.34-.9H36.4l-1.4.9v4.23l1.4.87h2.26l1.34-.87V39.5h-2V41h-1v-4h1v1h2zm-18-2v6h2v-3.86l.63 3.86h.75l.62-3.86V42h2v-6h-2.26l-.62 2.92h-.17L24.24 36H22zm7 6v-6h3.7l1.3.9v4.22l-1.3.88H29zm2-5h1v4h-1v-4z"/><path d="M34.2 15.75l7.39 7.46v5.93L32.95 18.8l-4.6 6.73v.34l.96-.13.11-.45h.4l.53-.83.27.4.56-.15.44.58c.31-.03.74-.3.9-.43l-.47 2.96-.61.88-2.74-.22-.81-.53-.43-1.07v-.5l-.86-.5c.7-.44 3.03-5.88 4.1-8.54l-.56-.62 1.48-.97h2.59z"/><path fill-rule="evenodd" d="M41 13H15v30h26V13zm-27-1v32h28V12H14z"/></svg>