<svg xmlns="http://www.w3.org/2000/svg" width="56" height="56"><path fill="url(#atluqh2z5)" d="M0 0h56v56H0z"/><path fill-rule="evenodd" d="M38.81 19.54c-.1-.1 1.3-.99 1.5-.5-.6.1-.9.6-1.5.5zm.8-.89c-.3-.69.3-.44.5.05.1.2-.5.25-.5-.05zm1.1-.2c-.3-.39-.4.7-.1.7.4.2.2-.5.1-.7zm.3.3c0-.5.59.3.29.4-.3.2-.3-.2-.3-.4zm.69.5c-.8.29 1.3.49.6.68-.2 0-.4 0-.2.2.2.3 1.3.1 1.5.1.2-.1-.2-.3-.7-.3-.3 0-.1-.1 0-.1.7-.3-.8-.78-1.2-.59zm1.7 1.18c-1.3-.3.99 1.97.89 1.18-.4-.3-.5-1.09-.9-1.18zm.5.1c.09-.4.59.1.59.68-.1.4-.6-.2-.6-.69zm.69 1.18c.2-.2.6.3.5.98 0 .1-.1.1-.1 0-.1-.2-.5-.3-.4-.98zm-.3.3c-.1 0 .8 1.17.5 1.47 0 .1-.1.1-.2 0-.2-.4-.8-1.08-.3-1.48zm-.1 1.57c.3-.3.7.5.2 1.18-.1.1-.1.2-.2.1-.1-.3-.4-.79 0-1.28zm2.69.98s-.3.2.1 1.09c0 .1 0 .1-.1 0-.2 0-.5-.8 0-1.09zm.3-.1c.1.2-.1.99 0 1.19-.3-.4-.1-.89 0-1.18zm.5 1.78c0-.1.4.3.2.3-.1-.1-.1-.3-.2-.3zm-.8-2.17c.8.3-.1-.89-1-.5-1.3.6-1.2 2.47.1 4.74.1.2.5 1.47-.7 1.87-.8.4.4 1.08 1.1.1 1-1.19-.6-2.76-1-4.63-.4-.89.3-2.66 1.5-1.58zm-9.07-2.56c-.5 0 .4-.6.6-.69.3-.2.5-.79 1.2-1.18 0-.3 2.09-.5 2.19.59 0 .1.3.1.3.2.1.1.3 0 .3.1h.2c.1.1.2.29.4.29 0 .1 0 .2.1.2.5.2.5.98.6 1.08 0 0 .1.1 0 .1-.1.1-.3.2-.1.2.69 0-.7.39 0 .39.2 0 .39-.1.39.1-.1.2-.4.1-.6.3-.3.2.7 0 .5.1-1.4.58.4.39-.8.68-.2.2.5.2.2.3l-.2.2c0 .2-.2-.2-.4-.2-.3-.1-.2-.4-.7-.4-.4 0-.1-.39-.69-.39-.2 0-.2-.4-.6-.3-.6-.2.6-.59.7-1.47 0-.2.3-.5 0-.4-.1 0-.2.3-.3.1 0-.1 0-.1-.1 0 0 0-.3.3-.3.1 0-.3-.3.2-.4.2-.2 0-.1-.2-.3 0-.1-.1-1.99 1.38-1.89.69.1-.1.7-.4.3-.4-.2.1-.9.5-.9 0 0-.1.1-.3.4-.2.5.1.1-.49-.1-.29zm2-1.38c.2-.2 1.3.2.9.5h-.1c0 .19-.8.29-1 .19-.4-.1.2-1.38.4-.89-.1 0-.4.2-.2.2zm-.1.4c.1.2.6.2.6-.2 0-.1.1-.1.1 0 .2.1 0 .4-.4.49-.3-.1-.6-.1-.3-.3zm1.2 1.28c-.6.1-1.6-.1-1.8.78 0 .2 0 .4-.2.5-.1.1-.4.3-.1.3.3-.2.5.09.8-.1.2-.2.4-.4.7-.4.1.1 1.29-1.08.6-1.08zm-2.2.78c.3 0 .1.6-.1.4-.1-.1-.1-.4.1-.4zm-.6.6c0-.1.1-.2.2-.1.5.1-.3.69-.2.1zm-.2.1c0 .1.1.19 0 .29-.3.3-.3-.5 0-.3zm.3.39c-.1 0 .1-.1.2-.1.4-.1 0 .4-.2.1zm.6 0c0-.1 0-.2.1-.2.3-.1.8.5.2.6-.2 0-.3.09-.4 0-.2-.1.1-.3.1-.4zm-.9.49c.1-.3.8-.2.5.2-.3.1-.7 0-.5-.2zm-.7.5c.3-.4.6-.1.2.19-.2.4-.4 0-.2-.2zm-.6.29c.4-.1.3.2 0 .3-.1.1 0-.3 0-.3zm.2.59c.3-.7.5.59 0 .4v-.4zm1.1-.99c.1.1.4-.1.2.1-.3.2-.8 1.18-.8 1.87 0 .1-.1.1-.1 0-.7-.59.2 0 .1-1.08 0-.3.5-.4.6-.89zm2.2-1.47c.4-.2.5.49 0 .39-.3 0-.2-.3 0-.4zm.4.49c.1-.3.5-.3.5 0 .1.4-.5.4-.5 0zm.7.3c.19-.5.79.2.29.39-.1-.1-.4-.1-.3-.4zm.59.29c.2-.4.8.2.3.4-.2.1-.4-.1-.3-.4zm.6.59c-.1-.2.2-.3.3-.3.4.3-.2.8-.3.3zm.5.4c0-.2.2-.3.3-.1.2.2-.2.59-.3.1zm.8-.9c-.1.5 1.29 1.68 0 2.47.29-.5-.6-1.67 0-2.46zm-.3 1.49c-.7-.9-.4 1.67.2.69 0-.4-.2-.4-.2-.7zM40 23.68c.2.3 2.7 1.28 2.7 1.97-.4.69-1.8-.89-2.3-.99-.4-.4-.9-.3-.8-.69.2-.3.1-.4.4-.3zm.2.4c.1 0 .1.19 0 .19s-.1-.2 0-.2zm.2.19c.1 0 .1.1 0 .1s-.1-.1 0-.1zm1.6.98c.1 0 0 .2-.1.2-.1-.1 0-.3.1-.2zm.2.1c.1.1 0 .2-.1.2s0-.2.1-.2zm.3.2c.1.1 0 .3-.1.2-.1-.1 0-.3.1-.2zm-.4 1.87c0 .4.2.5.2.5-.2-.3.4-1.39.5-1.58-.2-.5-.7.3-.7 1.08zm.7-.69c.3.3-.3.79 0 1.38 0 .1-.1.1-.1 0-.2-.1-.3-1.08.1-1.38zm.5.2c.1 0 .1-.1 0 0-.1.4.1.98-.1 1.28-.2 0-.3-1.18.1-1.28zm.4.1c.29-.5.1 1.08-.1.69 0-.1 0-.5.1-.7zm-1.5-.89c-.1 0-.5 1.18-.6 1.28-.1-.4-.1-.79.4-1.28.2 0 .3-.1.2 0zm-.5-.3v.4c.2-.1.2-.2.2-.2.1-.1-.1-.2-.2-.2zm-3.99.5c-.1-.5.5-1.48 1.1-1.88.6-.59 1.8.7 2.3.9.29.09.59.29.49.68 0 .3 0 .99-.3.99-.1-.1-.1 0-.1.1 0 .59-.2.1-.3.39-.1.69-.4-.2-.5.3.1.2-.3.29-.3.1 0-.1-.1-.1-.1 0-.1.1-.1.29-.2.29s-.2 0-.2-.1c-.1-.2-.1.3-.4.4-.2.1.2-.4-.1-.2-1.09 1.67-3.48-2.17-3.38 1.67.1.3-.1.3-.2.3-.7.1-.1-1.38-.1-1.87.1-.8.6-.9 1.3-.9.2-.09.5-.19 1.2-.09.69.2.4-.6.99-1.08.1-.1.2-.5 0-.3-.1.1-.8.99-.6.6.1-.2.4-.6.2-.5-.2.1-.6.98-.4.4.4-.7-.2-.1-.2.2-.2.19.2-.8-.1-.4-.1-.1-.1 0-.1 0zm-.8.2c.2 0 .3.39.1.39-.2.1-.3-.4-.1-.4zm10.47-2.07c.2 0 .1 1.37.2 1.37-.3 0-.2-.98-.2-1.38zm-11.86 6.1c-.2-.79-.6.1-.4.6 0 .49.5-.2.4-.6zm.2-.2c.1-.39.4.3.2.5-.4.4-.2-.3-.2-.5zm1.8-1.47c0 .1.6.5.3.59-.3 0-.2-.4-.3-.6zm.5.1c-.2-.7.89.88.99.88-.2.4-.8-.4-1-.88zm.2.78c-.2-.1 0 .3.1.3.2.1 0-.3-.1-.3zm.99-1.18c.3-.1-.2.5-.4.3-.1-.1-.1-.2 0-.2.2 0 .3 0 .4-.1zm-.2.6c-.1 0-.1.1 0 .1.3.09.7-.8 1-1.1-.4.2-.4.9-1 1zm.4.2c-.1.09-.1.09 0 0 .4 0 .8-.8 1.2-1.29.1-.1 0-.1-.1 0-.5.4-.6.98-1.1 1.28zm.2.29c-.4.2-.1.3 0 .39.3-.5 1.2-1.58 1.69-2.27-.6.4-1.2 1.48-1.7 1.88zm.5.2c-.2.88 1.49-1.58 1.49-1.88-.6.6-.9 1.38-1.5 1.87zm.2.19c.5-.4.9-1.18 1.39-1.77-.1.2-.5 1.08-.2.69.1-.2.2-.5.4-.6-.2.2-.4 1-.1.6 0-.1 0-.3.3-.5-.4.89.2 0 .4 0s-.2.2-.1.3c0 .2.7-.4.5-.1-.1.1-.2.3 0 .2.2-.1.3-.2.4 0 0 .1.1 0 .2.1.2.2.4.3.4.49.09.1.39 0 .29.3 0 .29.3 0 .2.39 0 .2.2.2.1.4-.1.1 0 .1.1.19.2.2-.2.4-.1.6.1.09 0 .19-.1.29-.2.2 0 .3-.1.59-.1.2-.1.2-.1.3.1.19-.2.19 0 .39.1.2 0 .4.2.49.2.1.1.1.2.2 0 .1 0 .1.1.1.2 0 .1.3.3.1.3-.1-.1.39.1.39s-.1.2 0 .3c.1.1-.2.19-.1.29.2.1-.3.3-.1.3.3.1-.2.29 0 .39.1 0 .1.2 0 .3-.1.1-.1.2 0 .29.1.1 0 .2 0 .3-.1.1.1.29-.1.39-.1.1-.1.2 0 .3.3.29-.5.2-.5.1-.2-.5.3-.8.2-1.78.1-.79-.3-.5-.5-1.28 0-.2-.3-.1-.3-.4 0-.1-.1-.1-.1 0-.1.1-.2-.39-.2-.39 0-.1-.1-.1-.1 0-.2.4-.3-.5-.4-.3-.1.1-.3-.29-.3-.39 0-.1-.1-.1-.1 0-.1.1-.2-.2-.2-.4 0-.1-.1-.1-.1 0-.1.1-.3-.49-.3-.49-.1-.2-.2.2-.3-.2-.09-.1-.09-.39-.19-.29 0 .1-.1 0-.1-.1-.1-.1 0-.39-.2-.2-.1 0-.2-.29-.2-.29 0-.1-.1-.1-.1 0-.1.1-.1-.2-.2-.2-.1-.2-.1.2-.2-.1 0-.1 0-.2-.1-.1.2.4-.2 0 0-.19zm-.1.6c.1-.1 1.39 1.07 1.59 1.37.1.1.1.2-.1.2-.6-.1-1.2-1.18-1.5-1.58zm-1.1-.3c.2-.2 1.5 1.18 1.8 1.67-.7-.3-.9-1.28-1.8-1.67zm-.6-.1c.4 0 1.4 1.18 1.7 1.57-.7-.2-1.2-1.18-1.7-1.57zm.7 1.28c0-.4-1-.99-1.4-1.09-.1.6 1 .8 1.4 1.09zm.4.3c-.5-.2 0 .58 1 .39 0 0-.7-.2-1-.4zm-.6 0c.6.68-1.2.19-1.6-.6-.1-.1 0-.1.1-.1s.9.3 1.5.7zm.6.58c-.3-.1.2.5.3.5-.2-.3.1-.3-.1-.5h-.2zm0 .5c-.1-.4-1.7-.89-1.1-.3.3.1 1.2.5 1.1.3zm1-.3c-.2-.4.5 0 .4.2-.1.1-.2.1-.4-.2zm.69.99c0-.4.4-.1.4.2.1.29-.3 0-.4-.2zm0-.89c0-.2-.1-.3-.1-.3.7-.3 1.1.4 1.6.99.2.3 2.39 1.58 1.69 1.97-.2 0-.9.1-1.3.2-.2-.1 0-.7-.8-.7.1-.19.2-.49 0-.78-.3-.3-.5-.1-.4-.4 0-.2-.3-.68-.59-.68-.2.1-.1-.1-.1-.3zm-1-.1c-.7-.1 1 1.09.2 1.38-1 .1-2.29.6-3.38 1.18-.7.99 4.68 1.18 4.88.7 0-.1-.1-.4 0-.7 0-.1.1 0-.1-.1-.3-.1-.4-.69-.3-.88-.3-.2-.6-.4-.5-.8 0-.09 0-.19-.1-.19-.4 0-.6-.4-.7-.59zm1.6 1.97c-.1-.98 1 .5.2.3-.1-.1-.2-.2-.2-.3zm.3.99c0-.4.5-.4.7-.1.1.4-.5.79-.7.1zm-2.1-2.27c.3 0-.5.2-.1.3.5-.1.5.2-.1.2-.2 0-.1.2-.3.2-.3-.1-.5.19-.79.09-.2 0 0 .2-.3.2-.2 0-.3 0-.3.1 0 .2-.5 0-.5.2 0 .09-.1.09-.3.09-.3 0-.1.4-.5.1-.99-.5 1.7-.5 2-1.58.3-.3.9.2 1.2.1zm-3.88 1.28c.7-.1 0 .3-.1.3-.1.2-.5 0-.3-.1.1 0 .2-.1.4-.2zm.3.4c.8-.4.3.49-.1.39-.4-.2-.1-.4.1-.4zm9.56.98c-.8-.4-.3 1.38-.6 1.58-.2.1-.4 0-.5.2-.1.49-1.29.59-1.69.49-.1 0-.2-.1 0-.2.2 0 .3-.4 0-.3-.5-.2.3-.2.4-.3.3-.29-.5-.09-.6-.19-.8-.3 1.8-.3 1.1-.59-.2 0-2.1.4-1.4 0 .1 0 2.2-.3 1.4-.5-.2 0-2.6.6-2 .2.3-.1 1.3-.3 1.6-.39.3-.1.4-.1.6-.1.5 0 0-.3-.3-.2-.2 0-1.7.4-2.3.5-.59.1-2.38.2-3.48 0-.4.1.6.4 1.5.4h.7c.1 0 .2.19-.1.19H39c-.1.2 1.9.2 1.2.4-.1 0-1-.1-.6.1.2.09.8 0 .5.19-.1 0-.3 0-.2.1.7.69.1-.89 1.39-.89.7-.3 2.3.89 1.4 2.07-.1.1-.1.1.2.2 1.19.2 2.19-1.19 4.18 0 .4.2.1-.4-.3-.5-.3-.2.5 0 .4 0 .1-.1-.9-.78-.3-.59.7.2-.1-.3-.3-.3-.5-.39.7.2.4-.1-.2-.19-.2-.19-.4-.29-.5-.4.6.1.4-.1.1-.2-.8-.59-.4-.49.5 0-.3-.5-.5-.59zm-1.89 3.05c.8-.3 2.2-.68 2.79.3.1.1 0 .2-.2.2-.2.1-.1-.5-.3-.2-.3.6-.1-.5-.3-.2-.1.4-.2.5-.3.1 0-.79-.3.7-.5 0-.1-.59-.2.1-.3.1-.1 0-.1 0-.1-.2 0-.59-.2.3-.4.2-.1-.1-.1-.4-.2-.1-.1.4-.19-.3-.29 0 .1.5-.1-.1.1-.2zm-.4-1.28c.2-.39.4-.39.4-.2 0 .1-.4.7-.5.4l.1-.2zm.6.1c.1-.3.5-.4.4 0-.1.1-.6.2-.4 0zM33.93 35.3c-.2.1-.3.2 0 .2 1.5-.2 1.99.1 4.18 1.38.2.1 1.5 1.08 2.4 1.57.4.5 2.19-.1 1.29-.88-.3-.1-.3.2-.1.3.1 0 .2.29.1.39-.6.69-1.5 0-2.5-.7-1.19-.88-3.08-2.75-5.37-2.26zm7.67 2.66c-.7-.1-.2-.89.4-.69.7.2.7 1.58-.7 1.58-1.2.1-3.69-2.47-5.58-2.96.5.3.8.4 1 .7.1.39-.6-.6-1.8-.6-.2 0-.3.1-.1.1.9.2 2.2.4 2.5 2.17 0 .2.4.1.4.1.2.1-.9.59-.4.59.5-.1.7-.2 1.29-.8.6 0 2.4 2.08 3.79.6.7-.6.3-2.07-1.1-1.77-.5 0-1 1.28.1 1.18.2-.1.3-.2.2-.2zm-8.67-2.07c.7-.49-.1-.4-.6.1-.4.5.5.3.6-.1zm.3.1c.1-.1.8-.5 1.9-.3h-.1c-.1 0-.9-.1-1.8.3-.1.1-.2.1 0 0zm.3.1c-.3.2.5.1.5 0 .4-.2-.4-.1-.5 0zm3.49 2.36c-.3.2-1.6-.59-1.9-.88-.2-.3.3 0 .1-.2-.8-.6-1.6-.4-1.99-.89.2-.1.7.1.9.2.2 0-.2-.2.1-.2.3 0 1.2.7.7 0-.4-.4.4.1.7.2.49.3-.1-.3.29-.1 1.1.79 1.1 1.58 1.1 1.87zm-2.5-1.08c.5 0 .5.69 0 .69-.5.1-.5-.69 0-.69zm-3.48-.5c-.2.1-.2.3.1.2 2.29-1.57 3.78 2.37 1.1 1.58-.2-.1-.3-.5-.3-.59-.3-.2-.2.89.7 1.08 2.58.1.99-4.04-1.6-2.26zm2.99.1c-.3-.1.1.3 0 .3 0 .1.2-.1.3-.1.4.1-.2-.1-.3-.2zm-.4 2.17c.4-.4.5-.2.3.2-.2.2-.5-.1-.3-.2zm.5-.78c.3-.7.3 1.57 0 .78v-.78zm.4.2c.2-.6.2.58.2.68-.3.6-.3-.5-.2-.69zm.4-.1c.2-.4.2.78.2.88-.2.5-.2-.79-.2-.89zm.3-.1c-.1-.5.2-.2.2 0v1.18c-.2.69-.1-.99-.2-1.18zm-2.1.98c-.7.4-1.7-.89-2.39-.5-.3.3.9.3 1.2.5.4.2 1.79.2 1.2 0zm-2.3.1c-.39-.2-.99.3-.39.4.3 0 1.3.29 2 .39.5.2 2.68.1 1.69-.5-.8.1-2.4.1-3.3-.3zm3.8.79c.4-.7 1 0 .4.4-.8.78-3.7 0-5.09-.2-.2 0-.3-.1 0-.2 1-.4 3.39 1.08 4.69 0zm-2.1-2.17c.2-.3-.3-.3-.3 0 0 .69 1.4.6 1.1-.2-.4-1.38-2.3-.98-2.69.4-.6.3-.8 1.18-1 1.57 0 .1 0 .1.1 0 .3-.59 2.1-3.25 3.3-1.87.2.4-.7.6-.5.1zm-4.18-1.08s.2.59.2 1.08c.2-.3.1-.99-.2-1.08zm1 1.38c.5-.6-.2.78-.2.88-.1 0 .1-.59.2-.88zm.3.39c.5-.7-.1.89-.3.98-.1.1-.2.2-.1 0s.3-.69.4-.98zm1.39-.4c-.2.1.4.1.5.2.2 0-.1-.3 0-.4 0-.19-.4.2-.5.2zm8.77.8c.2 0-.4-.2-1-.7-.1-.1-.1 0 0 .1.2.3-.2.1-.1.3 0 .1-.1.1-.2.1-.7 0 1.2.3 1.3.2zM17.49 19.53c.1-.1-1.3-.99-1.5-.5.6.1.9.6 1.5.5zm-.8-.89c.3-.69-.4-.49-.6 0-.1.2.6.3.6 0zm-1.1-.2c.3-.39.4.7.1.7-.4.2-.2-.5-.1-.7zm-.3.3c0-.5-.59.3-.3.4.3.2.3-.2.3-.4zm-.69.5c.8.29-1.3.49-.6.68.2 0 .4 0 .2.2-.2.3-1.3.1-1.5.1-.2-.1.2-.3.7-.3.3 0 .1-.1 0-.1-.7-.3.8-.78 1.2-.59zm-1.7 1.18c1.3-.3-.99 1.97-.89 1.18.4-.3.5-1.09.9-1.18zm-.5.1c-.1-.4-.59.1-.59.68.1.4.6-.2.6-.69zm-.69 1.18c-.2-.2-.6.3-.5.98 0 .1.1.1.1 0 .1-.2.5-.3.4-.98zm.3.3c.1 0-.8 1.17-.5 1.47 0 .1.1.1.2 0 .2-.4.8-1.08.3-1.48zm.1 1.57c-.3-.3-.7.5-.2 1.18.3.4.6-.69.2-1.18zm-2.7.98s.3.2-.09 1.09c0 .1 0 .1.1 0 .2 0 .5-.8 0-1.09zm-.29-.1c-.1.2.1.99 0 1.19.3-.4.1-.89 0-1.18zm-.5 1.78c0-.1-.4.3-.2.3.1-.1.1-.3.2-.3zm.8-2.17c-.8.3-.11-.89.78-.5 1.3.6 1.2 2.47-.1 4.74-.1.2-.28 1.47.91 1.87.8.4-.4 1.08-1.1.1-.99-1.19.6-2.76 1-4.63.2-.92-.3-2.66-1.5-1.58zm9.07-2.56c.5 0-.4-.6-.6-.69-.8-.79-1.3-2.07-3.1-1.08-.29.2-.19.59-.49.59-.1 0-.1.2-.3.2-.2 0-.1.1-.3.1-.1.1-.2.29-.4.29 0 .1 0 .2-.1.2-.5.2-.5.98-.6 1.08 0 0-.1.1 0 .1.1.1.3.2.1.2-.1 0-.3 0-.1.1.2.1.6.29.2.29-.2 0-.4-.1-.4.1.1.2.4.1.6.3.3.19-.7 0-.5.1 1.4.58-.4.39.8.68.2.2-.5.2-.2.3.3.39.3 0 .6-.1s.2-.4.7-.4c.2 0 .2 0 .2-.1s.1-.29.5-.29c.2 0 .2-.4.6-.3.6-.2-.6-.59-.7-1.47 0-.2-.3-.5 0-.4.1 0 .2.3.3.1 0-.1 0-.1.1 0 0 0 .3.3.3.1 0-.3.3.2.4.2.2 0 .1-.2.3 0 .1-.1 1.99 1.38 1.89.69-.1-.1-.7-.4-.3-.4.2.1.9.5.9 0 0-.1-.1-.3-.4-.2-.6.1-.2-.49 0-.29zm-2-1.38c-.2-.2-1.3.2-.9.5h.1c0 .19.8.29 1 .19.4-.1-.2-1.38-.4-.89.1 0 .4.2.2.2zm.1.4c-.1.2-.6.2-.6-.2 0-.1-.1-.1-.1 0-.2.1 0 .4.4.49.3-.1.6-.1.3-.3zm-1.2 1.28c.6.1 1.6-.1 1.8.78 0 .2 0 .4.2.5.1.1.4.3.1.3-.3-.2-.5.09-.8-.1-.2-.2-.4-.4-.7-.4-.1.1-1.29-1.08-.6-1.08zm2.2.78c-.3 0-.1.6.1.4.1-.1.1-.4-.1-.4zm.6.6c0-.1-.1-.2-.2-.1-.5.1.3.69.2.1zm.2.1c-.2.19.1.49.2.29.1-.1-.1-.5-.2-.3zm-.3.39c.1 0-.1-.1-.2-.1-.4-.1 0 .4.2.1zm-.6 0c.1-.4-.5-.2-.6.1-.1.2.6.39.7.3.2-.1-.1-.3-.1-.4zm.9.49c-.1-.1-.2-.2-.4-.2-.6.2.6.7.4.2zm.7.5c-.3-.4-.6-.1-.2.19.2.4.4 0 .2-.2zm.6.29c-.4-.1-.3.2 0 .3.1.1 0-.3 0-.3zm-.2.59c-.3-.7-.5.59 0 .4v-.4zm-1.1-.99c-.1.1-.4-.1-.2.1.4.2.8 1.18.8 1.87 0 .1.1.1.1 0 .7-.59-.2 0-.1-1.08 0-.3-.5-.4-.6-.89zm-2.2-1.47c-.4-.2-.5.49 0 .39.3 0 .2-.3 0-.4zm-.4.49c-.1-.3-.5-.3-.5 0-.1.4.5.4.5 0zm-.7.3c-.2-.5-.79.2-.3.39.1-.1.4-.1.3-.4zm-.59.29c-.2-.4-.8.2-.3.4.2.1.4-.1.3-.4zm-.6.59c.1-.2-.2-.3-.3-.3-.4.3.2.8.3.3zm-.5.4c0-.2-.2-.3-.3-.1-.2.2.2.59.3.1zm-.8-.9c.1.5-1.29 1.68 0 2.47-.3-.5.6-1.67 0-2.46zm.3 1.49c.7-.9.4 1.67-.2.69 0-.4.2-.4.2-.7zm3.4-2.07c-.2.3-2.7 1.28-2.7 1.97.4.69 1.8-.89 2.3-.99.4-.4.9-.3.8-.69-.2-.3-.1-.4-.4-.3zm-.2.4c-.1 0-.1.19 0 .19s.1-.2 0-.2zm-.2.19c-.1 0-.1.1 0 .1s.1-.1 0-.1zm-1.6.98c-.1 0 0 .2.1.2.1-.1 0-.3-.1-.2zm-.2.1c-.1.1 0 .2.1.2s0-.2-.1-.2zm-.3.2c-.1.1 0 .3.1.2.1-.1 0-.3-.1-.2zm.4 1.87c0 .4-.2.5-.2.5.2-.3-.4-1.39-.5-1.58.2-.5.7.3.7 1.08zm-.7-.69c-.3.3.2.79 0 1.38 0 .1.1.1.1 0 .2-.1.3-1.08-.1-1.38zm-.5.2c-.1 0-.1-.1 0 0 .1.4-.1.98.1 1.28.2 0 .3-1.18-.1-1.28zm-.4.1c-.3-.5-.1 1.08.1.69 0-.1 0-.5-.1-.7zm1.5-.89c.1 0 .5 1.18.6 1.28.1-.4.1-.79-.4-1.28-.2 0-.3-.1-.2 0zm.5-.3v.4c-.2-.1-.2-.2-.2-.2-.1-.1.1-.2.2-.2zm3.99.5c.1-.5-.5-1.48-1.1-1.88-.6-.59-1.8.7-2.3.9-.3.09-.59.29-.49.68 0 .3 0 .99.3.99.1-.1.1 0 .1.1 0 .59.2.1.3.39 0 .2 0 .3.2.3s.2-.4.3 0c-.1.2.3.29.3.1 0-.1.1-.1.1 0 0 .19.4.39.4.1 0-.1.1 0 .2.09-.1.1.39.5.2.2-.1-.1 0-.2.09-.1 1.1 1.18 2.04-1.97 2.74.4.1.48.14.68.04 1.17-.1.3.41.3.4 0-.02-.3-.2-1.08-.2-1.08s0-1.28-.69-1.28c-.2-.1-.5-.2-1.2-.1-.3.1-.4.1-.4-.2.1-.1-.99-1.37-.59-1.18.1.1.8.99.6.6-.1-.2-.4-.6-.2-.5.1.1.4.6.4.6.2 0-.4-.8 0-.5.1.1.4.79.3.3-.1-.6.1-.4.2-.1zm.8.2c-.2 0-.3.39-.1.39.2.1.3-.4.1-.4zM8.91 24.46c-.2 0-.1 1.37-.2 1.37.3 0 .2-.98.2-1.38zm11.26 6.2c.2-.79.6.1.4.6 0 .48-.5-.2-.4-.6zm-.13-.3c-.1-.39-.4.3-.2.5.4.4.2-.3.2-.5zm-1.27-1.47c0 .1-.6.5-.3.59.3 0 .2-.4.3-.6zm-.5.1c.2-.7-.89.88-.99.88.2.4.8-.4 1-.88zm-.2.78c.2-.1 0 .3-.1.3-.2.1 0-.3.1-.3zm-.99-1.18c-.3-.1.2.5.4.3.3-.3-.3-.2-.4-.3zm.2.6c.1 0 .1.1 0 .1-.3.09-.7-.8-1-1.1.4.2.4.9 1 1zm-.4.2c.1.09.1.09 0 0-.4 0-.8-.8-1.2-1.29-.1-.1 0-.1.1 0 .5.4.6.98 1.1 1.28zm-.2.29c.4.2.1.3 0 .39-.3-.5-1.2-1.58-1.7-2.27.6.4 1.2 1.48 1.7 1.88zm-.5.2c.2.88-1.49-1.58-1.49-1.88.6.6.9 1.38 1.5 1.87zm-.2.19c-.5-.4-.9-1.18-1.39-1.77.1.2.5 1.08.2.69-.1-.2-.2-.5-.4-.6.2.2.4 1 .1.6 0-.1 0-.3-.3-.5.4.89-.2 0-.4 0s.2.2.1.3c0 .2-.7-.4-.5-.1.1.1.2.3 0 .2-.2-.1-.3-.2-.4 0 0 .1-.1 0-.2.1-.2.2-.4.3-.4.49-.1.1-.39 0-.3.3 0 .29-.29 0-.19.39 0 .2-.2.2-.1.4.1.1 0 .1-.1.19-.2.2.2.4.1.6-.1.09 0 .19.1.29.2.2 0 .3.1.59.1.2.1.2.1.3-.1.19.2.19 0 .39-.1.2 0 .4-.2.49-.2.1-.1.1-.2.2 0 .1 0 .1-.1.1-.2 0-.1.3-.3.1-.3-.1.1.39-.1.39s.1.2 0 .3c-.1.1.2.19.1.29-.2.1.3.3.1.3-.3.1.2.29 0 .39-.1 0-.1.2 0 .3.1.1.1.2 0 .29-.1.1 0 .2 0 .3.1.1-.1.29.1.39.1.1.1.2 0 .3-.3.29.5.2.5.1.2-.5-.3-.8-.2-1.78-.1-.79.3-.5.5-1.28 0-.2.3-.1.3-.4 0-.1.1-.1.1 0 .1.1.2-.39.2-.39 0-.1.1-.1.1 0 .2.4.3-.5.4-.3.1.1.3-.29.3-.39 0-.1.1-.1.1 0 .1.1.2-.2.2-.4 0-.1.1-.1.1 0 .1.1.3-.49.3-.49.09-.2.19.2.29-.2.1-.1.1-.39.2-.29 0 .1.1 0 .1-.1.1-.1 0-.39.2-.2.1 0 .2-.29.2-.29 0-.1.1-.1.1 0 .1.1.1-.2.2-.2.1-.2.1.2.2-.1 0-.1 0-.2.1-.1-.2.4.2 0 0-.19zm.1.6c-.1-.1-1.39 1.07-1.59 1.37-.1.1-.1.2.1.2.6-.1 1.2-1.18 1.5-1.58zm1.1-.3c-.2-.2-1.5 1.18-1.8 1.67.7-.3.9-1.28 1.8-1.67zm.6-.1c-.4 0-1.4 1.18-1.7 1.57.7-.2 1.2-1.18 1.7-1.57zm-.7 1.28c0-.4 1-.99 1.4-1.09.1.6-1 .8-1.4 1.09zm-.4.3c.5-.2 0 .58-1 .39 0 0 .7-.2 1-.4zm.6 0c-.6.68 1.2.19 1.6-.6.1-.1 0-.1-.1-.1s-.9.3-1.5.7zm-.6.58c.3-.1-.2.5-.3.5.2-.3-.1-.3.1-.5h.2zm0 .5c.3-.4.7-.6 1.2-.5.3.1-1.4.7-1.2.5zm-1-.3c.2-.2-.3-.1-.3 0-.2.2 0 .5.3 0zm-.7.99c-.1-.8-.79.69-.2.2l.2-.2zm0-.89c0-.2.1-.3.1-.3-.69-.3-1.09.4-1.59.99-.2.3-2.39 1.58-1.69 1.97.2 0 .9.1 1.3.2.2-.1 0-.7.8-.7-.1-.19-.2-.49 0-.78.3-.3.5-.1.4-.4 0-.2.29-.68.59-.68.2.1.1-.1.1-.3zm1-.1c.7-.1-1 1.09-.2 1.38 1 .1 2.3.6 3.4 1.18.69.99-4.69 1.18-4.89.7 0-.1.1-.4 0-.7 0-.1-.1 0 .1-.1.3-.1.4-.69.3-.88.3-.2.6-.4.5-.8 0-.09 0-.19.1-.19.4 0 .6-.4.7-.59zm-1.59 1.97c.1-.69-.7-.1-.5.2.2.2.5 0 .5-.2zm-.3.99c0-.4-.5-.4-.7-.1-.1.4.5.79.7.1zm2.1-2.27c-.3 0 .5.2.1.3-.5-.1-.5.2.1.2.2 0 .1.2.3.2.3-.1.49.19.79.09.2 0 0 .2.3.2.4-.1.2.3.5.2.1 0 .2 0 .3.1 0 .09.1.09.3.09.3 0 .1.4.5.1.99-.5-1.7-.5-2-1.58-.3-.3-.9.2-1.2.1zm3.88 1.28c-.7-.1 0 .3.1.3.1.2.5 0 .3-.1-.1 0-.2-.1-.4-.2zm-.3.4c-.8-.4-.3.49.1.39.4-.2.1-.4-.1-.4zm-9.56.98c.8-.4.3 1.38.6 1.58.7 0 .3.49.99.59.2.1 1.6.3 1.2-.1-.2 0-.3-.4 0-.3.1 0 .3-.2.1-.2-.2 0-.4 0-.5-.1-.3-.29.5-.09.6-.19.6-.3-.9-.3-1-.4-.8-.58 1.3.1 1.4 0 .2-.29-1.1-.29-1.5-.49-1.2-.68 2.89.4 2-.1-.6-.1-1.7-.39-2.2-.39-.1 0-.2 0-.2-.1 1.7-.2 3.29.89 5.48.5 1.5-.3.8.3-.7.3h-.7c-.5.29 1.4.19 1.5.19.1.2-1.9.2-1.2.4.1 0 1-.1.6.1-.2.09-.8 0-.5.19.1 0 .3 0 .2.1-.7.69-.1-.89-1.4-.89-.69-.3-2.28.89-1.39 2.07.1.1.1.1-.2.2-1.2.2-2.19-1.19-4.18 0-.4.2-.1-.4.3-.5.3-.2-.5 0-.4 0-.1-.1.9-.78.3-.59-.1 0-.4.1-.2 0 .1-.1 1-.49.5-.4-.3.1-.5.1-.3 0 .2-.19.2-.19.4-.29.5-.4-.6.1-.4-.1-.1-.2.8-.59.4-.49-.6 0 .2-.5.4-.59zm1.89 3.05c-.8-.3-2.2-.68-2.79.3-.1.1 0 .2.2.2.2.1.1-.5.3-.2.3.6.1-.5.3-.2.1.4.2.5.3.1 0-.79.3.7.5 0 .1-.59.2.1.3.1.1 0 .1 0 .1-.2 0-.59.2.3.4.2.09-.1.09-.4.19-.1.1.4.2-.3.3 0-.1.5.1-.1-.1-.2zm.4-1.28c-.2-.39-.4-.39-.4-.2.1.1.4.7.5.4l-.1-.2zm-.6.1c-.1-.3-.5-.4-.4 0 .1.1.6.2.4 0zm10.46-2.56c.2.1.3.2 0 .2-1.5-.2-2 .1-4.18 1.38-.2.1-1.5 1.08-2.4 1.57-.4.5-2.19-.1-1.29-.88.3-.1.3.2.1.3-.1 0-.2.29-.1.39.6.69 1.5 0 2.5-.7 1.19-.88 3.08-2.75 5.37-2.26zm-7.67 2.66c1.2-.59-1-1.28-.8.1 1.4 2.07 3.39-.89 5.68-1.87.2-.1 1.1-.5 1-.4-.4.2-1.3.89-.9.7.1-.1.6-.6 1.7-.6.2 0 .3.1.1.1-.9.2-2.2.4-2.5 2.17.1.3-.7-.1-.4.3 1.2.78-.4.39-.9-.4-.39-.2-.79.69-1.98 1.08-1.6.7-3.5-2.26-.7-2.26.5 0 1 1.28-.1 1.18-.2 0-.3-.1-.2-.1zm8.67-2.07c-.7-.49.1-.4.6.1.4.5-.5.3-.6-.1zm-.3.1c-.1-.1-.8-.5-1.9-.3h.1c.1 0 .9-.1 1.8.3.1.1.2.1 0 0zm-.3.1c.3.2-.5.1-.6 0-.3-.2.5-.1.6 0zm-3.49 2.36c.3.2 1.6-.59 1.9-.88.2-.3-.3 0-.1-.2.8-.6 1.59-.4 1.99-.89-.2-.1-.7.1-.9.2-.2 0 .2-.2-.1-.2-.3 0-1.2.7-.7 0 .4-.4-.4.1-.7.2-.5.3.1-.3-.3-.1-1.09.79-1.09 1.58-1.09 1.87zm2.5-1.08c-.5 0-.5.69 0 .69.5.1.5-.69 0-.69zm3.48-.5c.2.1.2.3-.1.2-2.3-1.57-3.79 2.37-1.1 1.58.2-.1.3-.5.3-.59.3-.2.2.89-.7 1.08-2.58.1-.99-4.04 1.6-2.26zm-2.99.1c.3-.1-.1.3 0 .3 0 .1-.2-.1-.3-.1-.4.1.2-.1.3-.2zm.4 2.17c-.4-.4-.5-.2-.3.2.2.2.5-.1.3-.2zm-.5-.78c-.3-.7-.3 1.57 0 .78v-.78zm-.4.2c-.2-.6-.2.58-.2.68.3.6.3-.5.2-.69zm-.4-.1c-.2-.5-.2.78-.2.88.2.5.2-.79.2-.89zm-.3-.1c.1-.5-.2-.2-.2 0s-.2 1.67.2 1.28c-.1-.1-.1-.99 0-1.28zm2.1.98c.7.4 1.7-.89 2.39-.5.3.3-.9.3-1.2.5-.4.2-1.79.2-1.2 0zm2.29.1c.4-.2 1 .3.4.4-.3 0-1.3.29-2 .39-.5.2-2.68.1-1.69-.5.8.1 2.4.1 3.29-.3zm-3.79.79c-.4-.7-1 0-.4.4.8.78 3.7 0 5.09-.2.2 0 .3-.1 0-.2-1-.4-3.4 1.08-4.69 0zm2.1-2.17c-.1-.1-.1-.1 0-.2.9.4-1.1 1.28-.9 0 .4-1.38 2.3-.98 2.69.4.6.3.9 1.18 1 1.57.1.1 0 .1-.1 0-.3-.59-2.1-3.25-3.3-1.87-.1.4.8.6.6.1zm4.18-1.08s-.2.59-.2 1.08c-.2-.3-.1-.99.2-1.08zm-1 1.38c-.5-.6.2.78.2.88.1 0-.1-.59-.2-.88zm-.3.39c-.5-.7.1.89.3.98.4.5-.3-.78-.3-.98zm-1.39-.4c.2.1-.4.1-.5.2-.2 0 .1-.3 0-.4 0-.19.4.2.5.2zm-8.77.8c-.2 0 .4-.2 1-.7.1-.1.1 0 0 .1-.2.3.2.1.1.3 0 .1.1.1.2.1.7 0-1.2.3-1.3.2zm3.3-21.88c-.2-.1-.5 0-.6.4-.2 0-.4.1-.5.3-.2-.1-.4 0-.5.29-.3 0-.4 0-.5.3-.2 0-.4 0-.5.29-.2 0-.3 0-.5.1 0-.7.3-1.38-.8-.6-.2.1-.2-.19-.3-.29-.1-.3-.99.79-.99.99-.3.2-1.2-.1-1.7.59 0 .1-.7.5-.7.59-.29.3-.79.4-.89 1.18 0 .1 0 .2-.1.3-1 .69.2 2.66.4 3.74 0 .1-.3.79.3 1.28.1.1.2.1.1.4-.2.39.3.88.7 1.37 0 .3-.9.5-1.4 1.19-.1.1-.2.3-.6.1-1.39-.8.1-1.98.5-3.75.1-.2.3-1.67-.4-2.36-.1-.4-1.89-.8-2.19.3-.3.39-.5.48-.3 1.27.1.6-.6.7-.2 1.58.3.2.3-.4.8-.69.2-.2.8-.4.8-1.08 0-.6-.5-.7-.1-1.09 1.6-.2.9 2.17.1 3.45-.1.2-.2.1-.3 0-.2-.1.1.4-.1.2-.1-.1-.2-.4-.3-.1-.1.1.4.5.1.4-.1-.1-.3-.2-.4-.6-.3-.2-.2.5.3.79.1 0 .2.3 0 .2-.1-.1-.2-.2-.2 0 0 .1.5.49.2.49l-.2-.2c-.3-.1 0 .4.2.5.2.29-.1.68.6 1.37.1.2.9.3 1.1.8 1.49 3.05-.7 1.57-.7 2.85.6 1.87-.1.98-1.2 2.17-.2.88-.3 1.38-.6 2.46-.1 1.77 2.6.3 3.59.98.5.2.1-.78.4-.69.6.1 2.2.2 3.19.3.1 0 1.3 0 2.49-.3.2-.2 1 .2 1.2.2.4-.1-.4-.4.1-.5.4-.09.99-.68 1.09-.19-.4 2.37 1 3.15 4.08 2.46.2 0 2.5-.88 3.2 0-.3.1-.3.99.3.99h.09c.6 0 .5-.89.3-.99.7-.88 2.99 0 3.19 0 2.99.7 4.48-.1 4.08-2.46.1-.4.7.1 1.1.2.4.2-.3.5.1.5 1-.4 3.48.39 3.78.19 1-.1 2.6-.2 3.2-.3.29 0-.1.89.39.7 1-.7 3.69.78 3.59-1-.3-1.08-.5-1.57-.6-2.46-.7-.88-1.6-.39-1.3-1.57.8-1.68-1.5-.79-1-2.27.3-.79.3-1.18.7-1.47 1.2-.4 1.3-1.29 1.5-1.88.2-.1.2-.3.3-.4.1-.48-.5.6-.3-.09.2-.1.4-.59 0-.3-.2.1-.1-.2 0-.2.5-.29.6-.98.3-.78-.1.4-.5.69-.5.5.3-.3.2-.7-.1-.2-.2.1.1-.4-.1-.2-.1.1-.2.1-.3 0-.4-.7-.6-1.08-.6-1.28-.5-1.18-.2-2.37.7-2.17.4.4-.1.5-.1 1.08 0 .7.6.9.8 1.09.5.2.5.88.8.69.4-.89-.3-.99-.2-1.58.1-.79-.1-.89-.3-1.28-.3-1.08-2.1-.59-2.2-.3-.6.7-.4 2.07-.4 2.37.4 1.77 1.8 2.95.5 3.74-.3.2-.5 0-.6-.1-.49-.69-1.39-.88-1.39-1.18.4-.4.9-.98.7-1.38 0-.3 0-.3.1-.4.6-.48.3-1.17.3-1.27.2-1.09 1.5-3.29.5-4.07-.2-.4-.3-1.29-.7-1.29-.5-.2-.2-.3-.6-.49-.3-.2-.3-.2-.4-.3-.5-.68-1.4-.29-1.69-.58-.1-.2-1-.86-1.1-.66-.1.1-.1.5-.3.3-1-.8-.9-.3-.8.59-.2-.1-.3-.1-.49-.1-.1-.3-.2-.3-.5-.3-.1-.3-.2-.3-.5-.3 0-.29-.3-.29-.5-.29-.1-.2-.2-.3-.5-.3 0-.39-.3-.39-.6-.39-.39-.59-.99-.1-.19.3 0 .2.2.3.4.3 0 .29.2.29.4.39.1.3.3.3.4.3 0 .29.2.29.5.29 0 .3.2.3.5.3 0 .1.1.29.1.29.1.1-.5.1-.1.3.99.2-.4 1.18-.8 1.47-.5.3-.3.8-.2 1.18l.6.3c.1 0 .4.1.2.2-.3.1-.8.3-.8.59-.2.5.5.3.3.5-.2.09-.1.29-.2.39-.2-.1-.6.39-.6.39-.8-.3-1.4-1.18-2.1-1.28v.2c.2 0 .3.49.5.2.2-.1 0 .48.3.19.1-.1.1.1.1.2.1.2.4-.2.3.3 0 .19.2-.1.2.09 0 0-.1.3 0 .3s.2-.2.2-.1c-.1.69.1.79.2 1.18.1.3-.4-.2-.4-.3-.2-.39-1-1.28-1.4-1.28v.2c.9.3.8.79 1.2 1.18.3.1.9 1.28.5 1.28-1.6-.1-1.2 1.78-1.5 2.66-.2 1.38-.5 2.47 1.1 1.09.2-.1.1-.2 0-.5-.3-.98-.4-1.97.3-2.16 1.1 0 .7 1.08 1.2 1.47.2.2.1.3 0 .3-1.9.79.5 2.66.9 2.86.29.88-2 1.28-2.1 1.28-1.3.4-.9.49-1.4.69-.6-.1-1.2.1-1.39.2-.6.2-1.8.59-1.8.88-.2.3-1.02.41-1.02.41s-.02.07 0 .08c-1-.69-1.7.1-1.8.2-.2.3-.5-.4-.7-.4-.2.1-.5.7-.7.4-.1-.1-.79-.89-1.79-.2-.1.1-.36.2-.46.1-.1-.2-1.2-.2-1.5-.59 0-.4-1.19-.69-1.79-.89-.2-.1-.7-.3-1.4-.2-.39-.19-.1-.39-1.39-.68-.1 0-2.39-.4-2.09-1.28.4-.2 2.8-2.17.9-2.86-.1-.1-.2-.1 0-.3.6-.39.2-1.57 1.3-1.57.69.2.6 1.28.3 2.26-.1.2-.1.4 0 .5 1.59 1.38 1.39.1 1.19-1.28-.3-.9 1-2.57-.6-2.47-.1 0-.1 0-.1-.2 0-.39-.8-.88-.4-1.18.4-.39.87-.98 1.77-1.18v-.2c-.4 0-1.44.7-1.64.99 0 .1-.23.06-.27-.1.1-.4-.16.1-.26-.5 0-.09.1.1.2.1s0-.19 0-.29c0-.1.3.2.2-.1-.1-.4.2 0 .3-.3 0-.1 0-.29.1-.19.4.3.1-.4.3-.2.2.2.87-.2 1.07-.2v-.78c-.7.1-.77.59-1.67.89 0 0-.4.49-.6.59-.1 0 0-.3-.2-.4-.2-.2.5 0 .3-.49 0-.3-.6-.5-.8-.6-.2-.09.7-.39.8-.48.2-.3.3-.89-.2-1.19-.4-.3-1.4-.98-1.79-1.57.4-.2-.2-.1-.1-.2.1 0 .1-.2.1-.3.2 0 .5 0 .5-.29.3 0 .5 0 .5-.3.1 0 .4 0 .4-.3.3-.09.4-.09.4-.39.2 0 .4-.1.4-.3 1.39-.38.79-.88.4-.29zm6.37 20.5c-.1-.3.5-.2.5.1-.6 1.08-1.7-1.1-.3-1.19 1.1-.1 1 1.38 1.3 1.97 1.19 1.87.79-2.27 2.28-1.97 1.4.1.4 2.27-.3 1.18 0-.3.6-.49.5-.1-.1.1-.1.2.1.2.5-.2 0-1.18-.7-.5-.8.4-.8 4.44-1.79 2.57-.2-.6-.8-3.84-1.8-2.46-.1.4.4.59.2.2zm1.99 3.74c0 .49-.5.49-.5 0 0-.5.5-.5.5 0zm0-4.04c-.1.2-.2.69 0 1.08.2 0 .1-1.18 0-1.08z" fill="#fff"/><path fill-rule="evenodd" d="M32.3 16.3c.1 0 .1 0 .1-.1.09-.49-.48 0-.1.1zm-.2.29c.1-.1-.09-.3-.09-.1 0 .1.1.1.1.1zm-.18.38c.1-.48-.76.49-.29.4.1-.1.2-.3.29-.4zm-.1-.48c-.1-.2-.1.29 0 .2v-.2zm-.57.68c.1.1.2-.1.2-.2.09-.29-.2 0-.2.2zm.1-.78c0-.1-.1-.1-.1 0-.1.3.1.2.1 0zm.1 1.36c0 .29.37.29.37 0 0-.2-.38-.2-.38 0zm.09-1.16v-.2c0-.1-.1-.1-.1 0 0 .2.1.2.1.2zm-.29 1.84c.2.58.29.19.57.1.29-.1-.1-.4-.19-.5 0-.09-.28 0-.28 0-.1.2-.2.2-.1.4zm0-.97c0-.3-.38-.3-.38 0 0 .29.38.29.38 0zm-.28-.49c0 .2.1 0 .19-.1 0-.19-.2 0-.2.1zm0-.67c0 .29-.2.1 0 0 0-.1.1-.1 0 0zm-.2 2.13c.1.38.2-.2.3-.4-.1-.38-.3.2-.3.4zm0-1.55c.1 0 .1-.2 0-.2-.09-.1-.18.39 0 .2zm0-.78c-.18 0-.09.3 0 .1.1-.1.1-.2 0-.1zm-.18 2.23c0-.1.19-.68-.1-.39 0 .1-.1.68.1.39zm-.1-.78c.2 0 .2-.38 0-.38-.19 0-.19.38 0 .38zm-.28-.77c0 .29.38-.2.28-.3-.1-.18-.19-.09-.1.1-.18 0-.18.1-.18.2zm0 1.45c0-.1 0-.2.1-.39 0-.19-.1-.19-.1-.1-.1.2-.1.78 0 .5zm-.1-1.06c0-.2-.28-.2-.28 0 0 .29.38.29.28 0zm0 .48c0-.2-.28-.2-.28 0s.28.2.28 0zm-.28.58c.1 0 .1-.2 0-.2s-.1.2 0 .2zm0-1.45c.1 0 .19-.2.19-.3.1-.09 0-.18-.1-.18s-.1 0-.19.19c-.1.29 0 .29.1.29zm-.38 1.36c.19.29.19-1.07 0-.4v.4zm0-.88c.19 0 .19-.38 0-.38-.2 0-.2.38 0 .38zm-.76-.19c0 .2.38.2.38 0s-.38-.2-.38 0zm1.52-2.61c-.38 0-.38.58 0 .58s.38-.58 0-.58zm.66-.59c-.38 0-.38.59 0 .59s.38-.59 0-.59zm.2.88c-.39 0-.39.58 0 .58.28 0 .28-.58 0-.58zm-.1.77c-.38.1.57.87.66.48 0-.1-.1-.58-.66-.48zm1.7-.48c-.28.29-.28-.2-.56 0-.1.29-.29-.1-.38.1 0 .09 0 .09-.1.09-.19.1.29.3.2.48.18.3.85-.19.85-.29.1-.1.47-.58 0-.38zm.2.48c0 .1-.1.1-.2.3 0 .18.1.09.2.09.1-.1.19-.58 0-.39zm-3.52-4.07c-.1-.1-.28-.1-.28-.1-.2.1 0 .68-.1.78 0 .1.1.3.2.2.18-.1.09-.2.18-.2.29 0 .48-.29.2-.39 0-.1-.1-.19-.2-.29zm4.09 3.88c.19-.39.47.58.1.77-.3.2-.48 0-.48-.2.1-.48.28-.28.38-.57zm-8.74.97c-.1 0-.1 0-.1-.1 0-.49.48 0 .1.1zm.19.29c-.1-.1.1-.3.1-.1 0 .1 0 .1-.1.1zm.19.38c-.1-.48.76.49.28.4-.1-.1-.19-.3-.28-.4zm.1-.48c.09-.2.09.29 0 .2v-.2zm.56.68c-.1.1-.19-.1-.19-.2-.1-.29.29 0 .2.2zm0-.78c0-.1.1-.1.1 0 .1.3-.2.2-.1 0zm-.1 1.36c0 .29-.37.29-.37 0-.1-.2.38-.2.38 0zm-.18-1.16v-.2c0-.1.1-.1.1 0 0 .2 0 .2-.1.2zm.28 1.84c-.19.58-.28.19-.57.1-.28-.1.1-.4.2-.5 0-.09.28 0 .28 0 .1.2.28.2.1.4zm0-.97c0-.3.38-.3.38 0 0 .29-.38.29-.38 0zm.29-.49c0 .2-.1-.1-.2-.1 0-.19.2 0 .2.1zm0-.67c0 .29.19.1 0 0 0-.1-.1-.1 0 0zm.19 2.13c-.1.38-.2-.2-.29-.4.2-.38.38.2.29.4zm0-1.55c-.1 0-.1-.2 0-.2.1-.1.19.39 0 .2zm0-.78c.19 0 .1.3 0 .1 0-.1-.1-.2 0-.1zm.19 2.23c0-.1-.2-.68.1-.39.09.1.09.68-.1.39zm.1-.78c-.2 0-.2-.38 0-.38.18 0 .18.38 0 .38zm.28-.77c0 .29-.38-.2-.29-.3.1-.18.2-.09.1.1.19 0 .19.1.19.2zm0 1.45c0-.1 0-.2-.1-.39 0-.19.1-.19.1-.1.1.2.19.78 0 .5zm.1-1.06c0-.2.28-.2.28 0 0 .29-.29.29-.29 0zm0 .48c0-.2.28-.2.28 0s-.29.2-.29 0zm.28.58c-.1 0-.1-.2 0-.2s.1.2 0 .2zm0-1.45c-.1 0-.2-.2-.2-.3-.09-.09 0-.18.1-.18s.1 0 .2.19c.09.29 0 .29-.1.29zm.38 1.36c-.2.29-.2-1.07 0-.4v.4zm0-.88c-.2 0-.2-.38 0-.38.19 0 .28.38 0 .38zm.76-.19c0 .2-.38.2-.38 0 .1-.2.38-.2.38 0zm-1.52-2.61c.38 0 .38.58 0 .58-.29 0-.29-.58 0-.58zm-.67-.59c.38 0 .38.59 0 .59-.28 0-.28-.59 0-.59zm-.1.88c.39 0 .39.58 0 .58-.37 0-.37-.58 0-.58zm0 .77c.39.1-.56.87-.66.48 0-.1.1-.58.67-.48zm-1.6-.48c.28.29.28-.2.56 0 .1.29.29-.1.38.1 0 .09 0 .09.1.09.19.1-.29.3-.2.48-.18.3-.85-.19-.85-.29-.19-.1-.57-.58 0-.38zm-.3.48c.1 0 .39.58 0 .39-.09-.1-.18-.58 0-.39zm3.52-4.07c.2-.2.48-.1.38.2-.1.19 0 .29 0 .38 0 .1-.1.3-.19.2-.19-.1-.1-.2-.19-.2-.28 0-.47-.29-.19-.38.1 0 .1-.1.2-.2zm-4.08 3.88c-.2-.39-.48.58-.1.77.29.2.48 0 .48-.2-.1-.48-.29-.28-.38-.57zm10.26.87c-.1.1-.29.39-.76.2-.2-.2-.38-.3-.57 0-.1.09-.38.57-.48.77-.1.1-.19.1 0 .29.1.2.1.29.1.48 0 0-.1.1 0 .1.1.1.19.2.19.29 0 .29-.48.29-.57.58-.76 1.45-5.6 1.45-6.37 0-.19-.39-.85-.39-.38-.87.1-.1 0-.1 0-.1-.1-.2-.1-.29.1-.48.1-.2 0-.2 0-.3-.29-.38-.48-.96-.86-.96-.1 0-.19.2-.28.2-.38.19-.67-.1-.76-.2-.48-.68.1-1.55.57-.97 0 .1 0 .1.1.1.09 0 .09-.1.09-.1-.2-.39.28-.58.57-.39.19.1.38-.24.57-.04.1 0 0 .04.1.04.18-.1.28.39.37.2 0-.3.29-.3.29-.4-.2-.28-.2-.38-.2-.48 0-.38.3-.48.48-.58.57-.1.48.58.67.58.66-.1.66.88.28.97-.1 0-.1.1-.1.1.3.3.77.3.96.2.76-.59-.1-1.75-.29-2.04-.28-.3.38-.58.48-.87-.57.1-.38-.2-.76-.3-.57-.09-.48-.77-.1-.86.29 0 .1-.1.2-.2.09-.1.09-.1 0-.2-.1-.48.28-.57.37-.57.1 0 .1 0 .2-.1a.53.53 0 01.94 0c.2.2.67 0 .48.68 0 .1-.1.1 0 .2.1.09 0 .19.19.19.38.1.47.77-.1.87-.38.1-.1.38-.76.29.1.39.76.68.48.87-.67.48-1.14 2.9.66 1.84.1-.1-.47-.2-.28-.68 0-.2.19-.48.57-.39.1 0 .1 0 .1-.1 0-.48 1.04-.77 1.04.1 0 .1 0 .2-.1.3 0 .19.29.19.29.38.1.2.1-.2.38 0 .1 0 .19-.29.57-.1h.19c.19-.1.66 0 .57.4 0 .09 0 .09.1.09.09 0 .09 0 .09-.1.28-.58.85.3.38 1.07zm-5.6-5.81c0 .29-.58.1-.48.48.19.3.57.58.57.1.28-.49.19.68.66.2.29-.1.38-.5-.1-.5-.18 0-.09-.09-.18-.19 0-.29-.29-.29-.48-.1zm.09 1.26c0 .29.38.29.38 0 0-.3-.38-.3-.38 0zm-.38 1.84c-.1-.1-.1-.1 0-.2.38-.29.47-.87.57-.67 0 .1.19.38.47.67.1.1 0 .1 0 .2-.1.1-.47.58-.47.97 0 .1 0 .1 0 0-.1-.49-.48-.97-.57-.97zm.57-.49c.38 0 .38.68 0 .68s-.38-.68 0-.68zm.1.2c.09.1 0 .29-.1.19-.2 0 0-.3.1-.2zm-2.1 2.03c.38.68 1.8.68 1.9 0 0-.1.1-.1.1 0 .19.68 1.52.68 1.9 0 .1-.1.1-.1.19 0 0 .2.19.77-.2.58-.09-.1-.09-.2-.28 0-.1.1-.76.49-1.52 0-.1 0-.1 0-.19.1-.76.39-1.33.1-1.52 0-.19-.1-.19-.1-.28 0-.38.2-.2-.49-.2-.58 0-.2.1-.2.1-.1zm1.05 1.36c0-.1 0-.2.28-.2.48 0 .57-.29.86-.2.19.2 1.42.1.66.59-.1 0-.1.1-.19.1-.38-.3-.47.1-.85-.1-.1 0-.29.1-.38.1-.1 0-.1 0-.2-.1 0-.1-.18-.1-.18-.2zm.95 1.55c-.57 0-.86.19-.67-.59 0-.1.1-.1.29-.1.28.1.38-.09.57 0 .1.1.57-.09.66.1 0 .78-.28.59-.85.59zm-2.66.77c-.2.1-.2.3.1.2 1.99-.68 3.13-.68 5.12 0 .29.1.29-.1.1-.2a8.33 8.33 0 00-5.32 0zm2 .1c-.2-.1-.2 0 0 0 .47-.1.85-.1 1.42-.1.19 0 .19.1 0 .1-.67.1-.86.1-1.43 0zm2.37.2c.38-.2-.86 0-1.05 0-.85.09-1.42 0-2.28-.1-.19 0-.28 0-.1.1.96.38 2.48.38 3.43 0zm-3.9.28c-.38-.29 1.14.2 2.19.2 1.14 0 2-.3 2.18-.3.2 0 .2 0 0 .1a6.75 6.75 0 01-4.37 0z" fill="#fff"/><path d="M21 33h14V21H21v12zm1-1V22h12v10H22z" fill="#fff"/><path d="M21.5 32.5h13v-11h-13v11z"/><path fill-rule="evenodd" d="M31.52 23H33v8h-1.48v-8zm-4.28 0h2.52c.91-.01 1.25.12 1.27.9v3.8c-.02.72-.37.83-1.28.84h-.91V31h-1.6v-8zm1.62 1.43c.47 0 .55.09.57.45v1.87c0 .38-.07.47-.57.45v-2.77zm-4.38.45v4.43c0 .13.08.27.18.29h.4c.11 0 .2-.15.2-.3v-1.9c0-.05-.05-.12-.15-.15-.1-.04-.34-.09-.34-.23v-.86c0-.1.03-.16.16-.16h1.81v5h-2.7c-.92 0-1.04-.37-1.04-1.05v-6.3c0-.27.15-.65.72-.65h3.02v1.4h-1.72c-.36 0-.54.07-.54.48z" fill="#fff"/><defs><linearGradient id="atluqh2z5" x1="10.42" y1="9.71" x2="68.15" y2="76.02" gradientUnits="userSpaceOnUse"><stop stop-color="#1A1E21"/><stop offset="1" stop-color="#06060A"/></linearGradient></defs></svg>