<svg width="56" height="56" viewBox="0 0 56 56" xmlns="http://www.w3.org/2000/svg"><path fill="#F0F3FA" d="M0 0h56v56H0z"/><path fill-rule="evenodd" d="m22.2 15.11.1.08c.02.02.01.04-.02.05-.07.04-.18.07-.35.1-.34.05-.58.14-.92.29-.13.06-.22.02-.27-.11-.16-.4-.5-1.03-1.02-.67-.2.14-.35.3-.47.48-.26.4-.16.61-.03.89.05.1.1.23.14.37v.12c-.33 1.22-.62 2.45.14 3.4.4.48.94.86 1.62 1.14.43.17.83.3 1.19.37.73.15 1.43.1 2.11-.14l1.93-.74a.25.25 0 0 1 .27.05c.18.2.34.33.47.42.32.22.5.09.75-.1l.08-.05a.19.19 0 0 1 .11-.04c.04 0 .08.02.11.05.24.2.47.38.74.17l.5-.42a.33.33 0 0 1 .33-.05c.7.27 1.4.52 2.1.76 1.41.47 3.15-.08 4.27-1a2.45 2.45 0 0 0 .87-2.45 9.87 9.87 0 0 0-.25-1.13c-.08-.3-.02-.43.1-.7l.05-.13c.2-.47-.1-.91-.53-1.24-.41-.31-.6-.13-.83.24a13.46 13.46 0 0 0-.3.5.2.2 0 0 1-.22.02c-.4-.22-.8-.32-1.23-.31-.1 0-.11-.03-.03-.09.53-.4.72-1.01.92-1.73.08-.3.1-.56.03-.76-.07-.27-.32-.41-.57-.56-.2-.11-.4-.23-.52-.4a1.11 1.11 0 0 1-.2-.6.27.27 0 0 0-.07-.2.28.28 0 0 0-.2-.07h-.77a.16.16 0 0 1-.1-.05.15.15 0 0 1-.05-.11c.04-.87-.15-1.77-.81-2.4-.47-.44-1.4-.39-2-.3l-.08.01c-.15.03-.27.04-.3.25a1.9 1.9 0 0 0 0 .77c.08.41.8.17 1 .03a.1.1 0 0 1 .12 0c.3.18.55.4.72.65.1.17.07.21-.12.14a2.39 2.39 0 0 1-.22-.11c-.19-.1-.37-.2-.62-.16-.25.04-.38.25-.21.47l.55.7c.09.11.1.22 0 .33a.1.1 0 0 1-.14.02l-.11-.1c-.25-.2-.49-.4-.7-.46a.2.2 0 0 0-.22.09 9.74 9.74 0 0 0-.8 3.94.16.16 0 0 1-.14.13c-.19.02-.3-.04-.35-.2l-.1-.46c-.03-.19-.07-.38-.12-.55l-.12-.4c-.17-.54-.31-.99-.36-1.48a67.02 67.02 0 0 0-.14-1.02.18.18 0 0 0-.26-.04l-.72.54c-.09.07-.15.05-.17-.06a.92.92 0 0 1 .06-.32.41.41 0 0 1 .1-.18l.5-.5a.2.2 0 0 0-.02-.29c-.35-.3-.65-.13-1.01.06l-.1.05c-.16.08-.2.04-.12-.12.11-.23.33-.44.67-.64a.14.14 0 0 1 .12-.01c.27.1.52.16.72.2.23.02.34-.07.34-.3v-.58c0-.2-.1-.33-.3-.37-.42-.08-.79-.1-1.11-.07-.39.03-.68.13-.86.27-.47.38-.76.9-.86 1.6-.03.17-.04.47-.05.92a.1.1 0 0 1-.1.1h-.82a.27.27 0 0 0-.18.07.26.26 0 0 0-.09.16c-.02.21-.07.4-.15.57-.04.09-.18.2-.4.36l-.12.06c-.3.2-.65.41-.65.72-.01.71.18 1.37.56 1.96.07.12.19.21.3.3Zm4.54-.36.15.23c.11.18.17.16.16-.05a2.3 2.3 0 0 0-1-1.93 4.43 4.43 0 0 0-1.94-.55 1.89 1.89 0 0 0-1.52.49c-.1.17-.04.25.18.21a4.2 4.2 0 0 1 3.28.77c.33.24.48.49.7.83Zm3.13-.77c-.23.18-.46.5-.68.98a.1.1 0 0 1-.09.06c-.11 0-.17-.05-.17-.17 0-.71.52-1.68 1.25-2 .74-.3 1.49-.43 2.25-.37.37.02.87.16 1.03.51a.09.09 0 0 1-.01.09.09.09 0 0 1-.08.04 9.57 9.57 0 0 0-1.33.01 4.1 4.1 0 0 0-2.17.85Zm-5.99.33-.04.8c0 .12-.07.19-.2.2a6.6 6.6 0 0 1-.91.02c-.06 0-.07.02-.02.06l.17.14c.54.43 1.11.9.92 1.55-.14.46-.65 1-1.17 1.04-.21.02-.44-.1-.69-.35-.32-.34-.43-.69-.2-1.1a8.28 8.28 0 0 0 .18-.34.1.1 0 0 0-.06-.08.1.1 0 0 0-.05 0c-.57.1-1.01.36-1.33.76-.33.43-.49.94-.45 1.52 0 .15.08.25.23.28.28.07.57-.07.83-.2l.14-.07a.18.18 0 0 1 .12-.01c.3.07.47.25.53.53l.08.87c.03.29.12.5.28.62.63.47 1.21.51 1.76.13.42-.29.72-.82.78-1.28l.09-.96a.27.27 0 0 1 .25-.25c.41-.02.64.13.69.47.03.21.1.23.24.06l.21-.27a.64.64 0 0 0 .12-.55c-.18-.7-.65-1.19-1.22-1.78l-.06-.05c-.18-.2-.29-.36-.31-.51-.05-.33.08-.5.4-.51a14.92 14.92 0 0 0 .59-.04l.02-.03a.06.06 0 0 0 0-.06c-.4-.58-.93-.88-1.6-.88-.2 0-.3.09-.32.27Zm8.28.87a.17.17 0 0 0 .17.16h.8a.09.09 0 0 1 .08.07.08.08 0 0 1-.03.1 5.3 5.3 0 0 0-.7.57c-.27.27-.4.62-.28 1 .17.47.48.8.96 1 .58.24 1.08-.4 1.2-.88.07-.28-.08-.53-.2-.72l-.06-.1c-.06-.1-.03-.15.09-.12 1.17.26 1.78.98 1.82 2.17.02.29-.11.43-.38.42a1.8 1.8 0 0 1-.63-.2.84.84 0 0 0-.37-.11c-.33.02-.52.44-.54.73v.3c0 .36 0 .64-.21.86-.49.5-1.03.63-1.63.38-.62-.26-.91-.8-1.03-1.41-.02-.12-.04-.44-.07-.97a.24.24 0 0 0-.2-.23c-.45-.07-.72.11-.79.54a.1.1 0 0 1-.06.07.1.1 0 0 1-.09-.02c-.39-.32-.49-.71-.3-1.18.15-.35.33-.64.55-.86l.77-.81c.2-.23.25-.49.13-.76a.25.25 0 0 0-.23-.15h-.64a.07.07 0 0 1-.07-.08l.01-.03c.4-.6.95-.97 1.69-.83.16.03.24.12.24.29v.8Zm-4.65 4.9a38.25 38.25 0 0 0 .71.64v-.01c.09-.55.41-.9.98-1.05h.01l.01-.02a.03.03 0 0 0 0-.03 3.18 3.18 0 0 1-.96-2.11c-.03-.22-.14-.32-.36-.28-.1.01-.15.07-.15.17-.01.55-.19 1.09-.53 1.62l-.39.61c-.03.04-.02.07.03.08.27.1.43.17.65.37Z" fill="#735F35"/><path d="M30.38 23.65c.13.08.2.04.19-.12-.02-.27.09-.4.31-.4.35 0 .32.29.33.57 0 .77-.01 1.48-.04 2.13 0 .06-.03.11-.07.15a.22.22 0 0 1-.15.07c-.66.01-.63-.93-.93-1.34a2.15 2.15 0 0 0-1.83-.96c-2.12.02-2.8 2.1-3.07 3.83-.34 2.14 1.19 5.07 3.66 4.55.45-.1 1.2-.44 1.22-1v-2.47c0-.12-.13-.3-.26-.32l-.83-.06c-.24-.02-.32-.14-.23-.36.04-.12.1-.22.15-.3.13-.2.31-.27.54-.2.85.3 1.72.28 2.6-.03a.56.56 0 0 1 .42.02c.04.02.06.05.07.1.08.5-.45.75-.84.87a.1.1 0 0 0-.05.03 355.02 355.02 0 0 1-.05 2.66c0 .24-.04.46-.13.68-.27.68-1.16 1.08-1.84 1.17-2.48.35-5.47-.41-5.98-3.3a7.2 7.2 0 0 1-.12-1.72c.11-1.66.72-3.59 2.32-4.33a5.9 5.9 0 0 1 2.37-.57c.8 0 1.55.22 2.24.65Z" fill="#AB8B5D"/><path fill-rule="evenodd" d="M34.66 43.23c.01-1-.3-1.83-.95-2.5-.03-.02-.02-.04.02-.04a3.38 3.38 0 0 0 1.41-.37.14.14 0 0 1 .14.1c.1.3.38 1 .78.84.16-.06.31-.16.43-.3.36-.38.56-.63.33-1.13-.1-.22-.16-.38-.18-.5v-.11c.11-.38.21-.82.3-1.31.18-1-.1-1.79-.82-2.38a5.4 5.4 0 0 0-2.85-1.23 2.72 2.72 0 0 0-.73 0c-.23.04-.47.1-.71.17-.81.25-1.57.53-2.28.82a.07.07 0 0 1-.07-.01c-.16-.13-.3-.26-.44-.4-.33-.34-.55-.2-.8-.05l-.19.1a.11.11 0 0 1-.1 0 7.9 7.9 0 0 0-.36-.2c-.17-.08-.41-.06-.53.06l-.49.46a.19.19 0 0 1-.21.04c-.72-.35-1.51-.64-2.36-.87a3.14 3.14 0 0 0-1.02-.15c-.35.03-.77.12-1.28.26-.98.28-2.14 1-2.51 1.93-.21.53-.25 1.08-.1 1.67l.11.47c.11.4.2.73.11.93l-.05.11c-.15.32-.26.56-.1.85.13.24.3.45.49.62.41.38.8.13 1.15-.73.02-.03.04-.04.07-.03.42.15.88.27 1.37.37.02 0 .03.02 0 .04a3.45 3.45 0 0 0-.91 2.15c-.05.52.33.75.74 1l.1.06c.4.24.46.48.45.89a.2.2 0 0 0 .12.19.2.2 0 0 0 .08.02h.85c.04 0 .08.01.11.04s.05.07.05.11c.05.9.08 1.47.56 2.15.46.65 1.38.75 2.1.51.38-.12.56-.4.53-.83a.5.5 0 0 0-.15-.35.18.18 0 0 0-.1-.05c-.27-.02-.54.06-.81.25-.04.03-.07.02-.1 0l-.5-.45a.65.65 0 0 1-.22-.33.08.08 0 0 1 .07-.1l.05.01.35.23c.26.18.57.16.77-.08a.17.17 0 0 0 0-.22l-.51-.68a.39.39 0 0 1-.07-.36l.02-.06c.04-.14.1-.15.2-.04.2.28.47.48.79.6a.13.13 0 0 0 .1-.02.12.12 0 0 0 .06-.1l.07-1c.03-.47.17-.86.34-1.36l.13-.35c.11-.35.17-.65.24-1.01l.03-.18a.2.2 0 0 1 .2-.16.2.2 0 0 1 .08.02c.1.05.18.15.2.3.07.5.2.99.39 1.48.12.33.2.61.23.84.07.53.11.81.1.85-.02.23.01.44.1.64a.14.14 0 0 0 .14.08c.02 0 .04 0 .06-.02.24-.16.48-.36.73-.6.08-.08.15-.07.2.05l.01.04c.04.1.02.2-.05.28l-.52.66a.3.3 0 0 0 .05.4c.26.2.6.13 1.03-.24a.08.08 0 0 1 .09 0l.03.02V46.21l-.02.03-.68.67c-.03.03-.07.04-.12.01l-.12-.07c-.21-.14-.39-.25-.69-.19a.28.28 0 0 0-.22.2c-.06.21-.17.93.14 1.01.58.15 1.74.23 2.24-.26.67-.65.77-1.46.8-2.37a.17.17 0 0 1 .18-.17h.87a.2.2 0 0 0 .2-.2v-.47a.2.2 0 0 1 .04-.12c.09-.13.16-.2.21-.23.45-.25.72-.41.8-.5.12-.14.18-.24.18-.32Zm-9.75-5.48a13.17 13.17 0 0 1-.07-.96c0-.14-.07-.37-.2-.68-.12-.25-.24-.45-.39-.58-.56-.54-1.17-.6-1.82-.21-.47.28-.49.66-.51 1.12l-.02.23c-.03.38-.13.78-.55.77-.08 0-.22-.05-.43-.12a2.25 2.25 0 0 0-.6-.16.27.27 0 0 0-.29.2c-.04.15-.04.36.01.62.15.87.66 1.43 1.51 1.7.11.03.23.04.36.04a.06.06 0 0 0 .05-.03.06.06 0 0 0 0-.06l-.1-.15c-.12-.18-.3-.44-.24-.65.1-.42.6-1.15 1.18-.93.43.16.74.46.94.9.2.44.12.8-.22 1.12l-.12.11-.51.46c-.1.08-.08.12.04.12.33 0 .58.12.76.36.13.16.15.43.17.65l.02.13a.2.2 0 0 0 .16.16c.76.12 1.33-.17 1.72-.85a.05.05 0 0 0 0-.04.05.05 0 0 0-.04-.03l-.73-.11a.24.24 0 0 1-.14-.08.24.24 0 0 1-.06-.15c-.01-.2.06-.4.23-.6.08-.11.35-.42.79-.9.19-.22.37-.5.53-.86.1-.21.11-.4.03-.55a2.27 2.27 0 0 0-.45-.61h-.03a.06.06 0 0 0-.04.04l-.05.15c-.05.18-.1.34-.24.42a.68.68 0 0 1-.6.04.11.11 0 0 1-.05-.03Zm7.48 2.9a.19.19 0 0 0-.18.15l-.07.67c-.03.35-.14.51-.5.48a1.74 1.74 0 0 1-1.43-.9.07.07 0 0 1 .06-.08c.15-.02.33-.04.55-.04.67-.01.36-.74.12-.99l-.16-.16c-.66-.66-1.74-1.77-.8-2.58.05-.03.08-.03.1.02l.04.06c.19.34.34.61.8.53a.23.23 0 0 0 .2-.21c.01-.39.05-.75.13-1.1.11-.56.43-.98.97-1.28.53-.3 1.08-.15 1.52.2.35.28.36.72.38 1.17l.01.2c.03.52.32.8.84.55.28-.13.54-.2.77-.17a.27.27 0 0 1 .24.22c.06.4-.03.75-.2 1.16-.14.36-.38.64-.72.84l-.01.01c-.34.2-.58.34-.94.34a.06.06 0 0 1-.05-.02.06.06 0 0 1 0-.06l.12-.2c.07-.12.15-.24.16-.34a.97.97 0 0 0-.26-.85c-.26-.29-.54-.53-.94-.35-.45.2-.77.54-.94 1a.7.7 0 0 0-.04.45c.14.45.54.77.92 1.09l.04.04c.12.1.1.14-.05.14h-.68Zm-4.62-5.25c-.12.44-.48.77-.92.88a.06.06 0 0 0-.05.07l.02.02c.51.6.82 1.3.93 2.1.03.24.18.34.4.31.02 0 .04-.01.05-.03a4.96 4.96 0 0 1 .69-2.09.3.3 0 0 0-.03-.35 9.03 9.03 0 0 0-.94-.96c-.08-.07-.13-.05-.15.05Zm1.43 5.64c.33.9 1.23 1.45 2.1 1.7.46.12.98.12 1.57.12a36.11 36.11 0 0 1 .53.02.13.13 0 0 1 .02.19c-.22.25-.51.4-.86.44-.45.06-1.02.01-1.71-.14-.53-.12-.92-.31-1.18-.58a2.8 2.8 0 0 1-.74-1.73.1.1 0 0 1 .06-.1c.1-.05.17-.02.2.08Zm-2.4.06c-.18.33-.4.68-.64.87a4.4 4.4 0 0 1-1.32.73c-.28.1-.65.16-1.1.16a642.42 642.42 0 0 0-1.18.03.11.11 0 0 0-.05.12c0 .02.02.04.03.05.32.3.73.45 1.23.45a6 6 0 0 0 1.5-.17 2.5 2.5 0 0 0 1.17-.65c.24-.24.7-1.2.61-1.56-.05-.22-.13-.23-.24-.03Z" fill="#6C582F"/></svg>