<svg width="56" height="56" viewBox="0 0 56 56" xmlns="http://www.w3.org/2000/svg"><path fill="#FEED1E" d="M0 0h56v56H0z"/><path d="M28 8a7.29 7.29 0 0 1 4.96 1.92 7.4 7.4 0 0 1 1.83 8.43l.01.01c1.16.18 2.36.44 3.62.77 1.42.37 2.8.85 4.11 1.42 1.07.46 2.07 1 3 1.6.8.52 1.56 1.12 2.24 1.81.6.6 1.11 1.28 1.5 2.02a5.7 5.7 0 0 1 .46 4.54 8.59 8.59 0 0 1-3.16 4.2c-.74.58-1.54 1.1-2.4 1.55a24.08 24.08 0 0 1-3.76 1.63L38.88 43h-.01a.01.01 0 0 1-.01 0 26.32 26.32 0 0 0-2.43-.71 36.88 36.88 0 0 0-16.86 0 26.34 26.34 0 0 0-2.45.7l-1.53-5.1a.03.03 0 0 0-.02-.01 24.1 24.1 0 0 1-3.75-1.61 16.86 16.86 0 0 1-2.73-1.83 8.59 8.59 0 0 1-2.83-3.92 5.7 5.7 0 0 1 .47-4.54c.39-.74.9-1.42 1.5-2.02.68-.69 1.45-1.3 2.24-1.81.93-.6 1.93-1.14 3-1.6a28.7 28.7 0 0 1 4.11-1.42 35.75 35.75 0 0 1 3.63-.78l-.13-.35a7.35 7.35 0 0 1 .27-5.8A7.4 7.4 0 0 1 28 8Z" fill="#00A859"/><path d="M32.7 20.27a7.86 7.86 0 0 0-2.3-.45h-.05l-.04-.25.01-.02a4.76 4.76 0 0 0 2.31-3.15c.34-.06.52-.25.56-.57.04-.38-.11-.65-.47-.8h-.01l-.03-.28v-.02a2.64 2.64 0 0 0-1.18-3.6 3.03 3.03 0 0 0-1.33-.25c-.12-.1-.22-.16-.28-.2a4.42 4.42 0 0 0-6.6 5.17l.01.1v.01a.52.52 0 0 0-.26.36c-.04.2 0 .46.1.65.07.16.2.26.38.3a2.32 2.32 0 0 0 .14.02 4.75 4.75 0 0 0 .93 1.42l-.06.19h-.02l-.19.05c-.59.12-1.05.44-1.38.94a6.72 6.72 0 0 1-1.68-4.47 6.74 6.74 0 1 1 11.44 4.85Z" fill="#FEFEFE"/><path d="m32.7 20.27-.3.27a7.55 7.55 0 0 0-2.01-.34 5.32 5.32 0 0 1-4.25.24.72.72 0 0 1-.27.27v.02c.09.16.11.31.08.47-.05.2-.2.4-.36.54h-.02a6.22 6.22 0 0 1-.34-.15c.1-.08.2-.17.28-.27.1-.12.16-.3.02-.41a.35.35 0 0 0-.21-.04l-.68.1c-.09.02-.15-.01-.19-.08a.18.18 0 0 1 .13-.27l.91-.14a.53.53 0 0 0 .29-.14c.12-.11.09-.28-.06-.35a.34.34 0 0 0-.2-.03c-.32.05-.65.12-1 .2-.07.02-.12.02-.17-.03a.18.18 0 0 1-.01-.27 15.5 15.5 0 0 1 1.6-.33c.13-.03.3-.1.37-.22.05-.1-.02-.19-.11-.22a.5.5 0 0 0-.18-.02l-.64.06a24.7 24.7 0 0 0-1.2.21c-.42.14-.75.41-1 .82l-.24-.27c.33-.5.8-.82 1.38-.94a36.64 36.64 0 0 1 .2-.05l.07-.19v-.01a4.75 4.75 0 0 1-.95-1.42l-.12-.02a.52.52 0 0 1-.39-.3 1.1 1.1 0 0 1-.1-.64.52.52 0 0 1 .26-.36l.01-.01v-.1a4.46 4.46 0 0 1 3.52-5.84 4.36 4.36 0 0 1 3.38.88c.44 0 .9.06 1.3.25a2.64 2.64 0 0 1 1.18 3.61l.03.27v.02c.37.14.52.4.48.8-.04.31-.22.5-.56.56h-.01a4.76 4.76 0 0 1-2.3 3.17l.03.25h.05c.79.03 1.55.18 2.3.45Z" fill="#3E4095"/><path d="M23.61 15.42h-.07a4.15 4.15 0 0 1 .25-2.74 4.07 4.07 0 0 1 5.75-1.8 6.93 6.93 0 0 0-4.97 1.84c0 .02.03.03.06.03a.5.5 0 0 0 .17-.07l.32-.2a8.8 8.8 0 0 1 1.97-.9 7.06 7.06 0 0 1 2.33-.33c-.48.5-1.02.92-1.61 1.26a8.55 8.55 0 0 1-3.22 1.04c-.05.01-.21.05-.18.12l.02.01H25a6.84 6.84 0 0 0 4.71-2.22 4.63 4.63 0 0 1-.87 1.17c-.47.45-1 .81-1.6 1.1a7.59 7.59 0 0 1-2.67.7.26.26 0 0 0-.1.03.03.03 0 0 0 0 .04v.02l.08.04.18.02a6.04 6.04 0 0 0 4.17-1.52 5.83 5.83 0 0 1-5.28 2.38v-.01h-.02ZM32.61 13.68a4.73 4.73 0 0 1-1.31-1.42 6.16 6.16 0 0 1-.47-.97c.5.1.91.35 1.24.73a2.22 2.22 0 0 1 .54 1.66ZM29.7 12.49l-.02-.01.14-.3-.12.3ZM30.9 12.23a4.81 4.81 0 0 0 1.7 1.68 2.3 2.3 0 0 1-.17.53.7.7 0 0 1-.1.17c-.07.08-.14.11-.22.1a5.69 5.69 0 0 1-.97-.88 4.53 4.53 0 0 1-.63-1.26.62.62 0 0 1-.02-.19c0-.04.02-.07.05-.08h.02a5.07 5.07 0 0 0 1.63 2.05c.06.04.1.04.16.01a.05.05 0 0 0 .02-.06 4.81 4.81 0 0 1-1.47-2.06Z" fill="#B1ADD6"/><path d="M29.68 12.48h.02a7.34 7.34 0 0 1-1.34 1.92 8.48 8.48 0 0 1-2.1 1.63.65.65 0 0 0-.13.11c-.02.02-.03.04-.02.07 0 .01.02.02.04.01a7.03 7.03 0 0 0 1-.45c-.02.2.1.43.3.48.2.05.37-.1.4-.28a.47.47 0 0 0-.22-.5 6.9 6.9 0 0 0 2.4-2.87h.01c-.4.93-.95 1.76-1.64 2.5-.13.14-.22.22-.3.34a.14.14 0 0 0-.02.07v.02a.03.03 0 0 0 .04.01h.01a6.98 6.98 0 0 0 .41-.32c.05 0 .09 0 .12-.02l.1-.05a.57.57 0 0 1 .43.03c.07.03.13.02.19-.02a.18.18 0 0 0 .06-.16c0-.07-.05-.12-.13-.16a.92.92 0 0 0-.29-.07v-.01a6.87 6.87 0 0 0 1.21-1.7 4.97 4.97 0 0 0 2.24 2.27l.2.08c.1.05.16.14.17.26.02.22-.1.37-.3.41-.08.02-.14.02-.19.07a.26.26 0 0 0-.06.12 4.4 4.4 0 0 1-5.59 3.33.95.95 0 0 0 .37-.74.94.94 0 0 0-1.43-.83.32.32 0 0 1-.1.04 1.57 1.57 0 0 0-.74.34 4.42 4.42 0 0 1-.88-1.41c-.04-.1-.15-.06-.24-.07a.31.31 0 0 1-.26-.2.52.52 0 0 1-.03-.33.28.28 0 0 1 .11-.17.35.35 0 0 0 .08-.07.44.44 0 0 0 .07-.35.02.02 0 0 1 .01 0 6.2 6.2 0 0 0 4.25-1.22 6.12 6.12 0 0 0 1.77-2.11Z" fill="#FCC79D"/><path d="M29.27 17.23a.95.95 0 0 1 .09-.78c.2-.35.58-.52.98-.47h.01c.05-.12.09-.24.12-.39 0-.02.02-.05.05-.08.05-.08.13-.1.22-.05.04.03.07.08.07.13l-.01.14a2.87 2.87 0 0 1-5.22.87c-.06-.09-.07-.17 0-.24.13-.1.25-.02.32.1a2.52 2.52 0 0 0 3.37.77Z" fill="#3E4095"/><path d="M28.5 15.77c-.05.23.06.45.25.49.19.04.38-.11.43-.34.05-.22-.07-.44-.26-.48-.19-.04-.38.11-.43.33Z" fill="#3E4095"/><path d="M29.92 16.7a2.25 2.25 0 0 1-.49.42l-.01-.02a.44.44 0 0 1-.03-.13.78.78 0 0 1 .85-.82.03.03 0 0 1 .02.03c-.1.2-.2.36-.34.52Z" fill="#ED3237"/><path d="M28.26 16.53c-.17 0-.26.22-.3.35-.01.04-.03.07-.07.06a.04.04 0 0 1-.03-.04c0-.09.02-.18.05-.27.04-.12.1-.21.18-.27.19-.12.37.03.48.18a1.41 1.41 0 0 1 .14.24.03.03 0 0 1-.02.03h-.04l-.02-.01c-.08-.11-.23-.26-.37-.27Z" fill="#3E4095"/><path d="M26.66 19.1c-.1-.26-.34-.39-.6-.39a4.15 4.15 0 0 0-.52.03c.06-.3.3-.5.61-.49a.6.6 0 0 1 .51.84Z" fill="#ED3237"/><path d="M24.93 18.83c.06-.1.17-.21.28-.27v.01l-.03.22-.01.01-.23.04c-.02 0-.02 0-.01-.01Z" fill="#FCC79D"/><path d="M28.39 19.06a.9.9 0 0 1-.08.09c-.18.18-.43.16-.56-.06a.68.68 0 0 1-.08-.24l.01-.03c.01-.02.02-.03.04-.03l.02.02c.05.09.12.16.2.22.15.12.32-.06.36-.2.02-.06.08-.09.12-.03l.06.09c.06.06.13.11.22.13.16.04.2-.17.24-.3l.03-.03a.04.04 0 0 1 .04 0 .04.04 0 0 1 .02.04v.2c-.03.13-.09.2-.18.25-.16.08-.32 0-.44-.12h-.02Z" fill="#3E4095"/><path d="M28 22.84a7.26 7.26 0 0 0 4.69-1.69 7.42 7.42 0 0 0 1.8-2.18 35.43 35.43 0 0 1 6.37 1.6c.6.22 1.24.49 1.9.79 1 .46 1.92.98 2.77 1.57a10.7 10.7 0 0 1 2.74 2.65c.41.6.74 1.25.92 1.95.26 1 .21 2.01-.14 3-.25.72-.65 1.38-1.12 1.96-.27.34-.56.65-.86.94a13.4 13.4 0 0 1-2.09 1.62 24.13 24.13 0 0 1-4.84 2.23 35.61 35.61 0 0 0-12.8-2.17 35.61 35.61 0 0 0-11.51 2.17 24.13 24.13 0 0 1-4.81-2.23 13.4 13.4 0 0 1-2.1-1.62c-.3-.29-.58-.6-.85-.94a6.75 6.75 0 0 1-1.12-1.95c-.35-1-.4-2-.14-3.01.18-.7.5-1.36.92-1.95a10.7 10.7 0 0 1 2.74-2.65c.85-.59 1.77-1.1 2.78-1.57.65-.3 1.29-.57 1.9-.79a31.84 31.84 0 0 1 6.37-1.6A7.42 7.42 0 0 0 28 22.85Z" fill="#3E4095"/><path d="M25.22 21.58h-.01a6.75 6.75 0 0 1-2.02-1.42c.24-.4.57-.68 1-.82l.43-.1a24.7 24.7 0 0 1 1.4-.17.5.5 0 0 1 .18.02c.1.03.16.11.1.22-.05.12-.23.2-.36.22l-.44.08a15.49 15.49 0 0 0-1.16.25.18.18 0 0 0 0 .27c.06.05.11.05.19.03.34-.08.67-.15.98-.2.08 0 .14 0 .2.03.16.07.19.24.07.35a.53.53 0 0 1-.29.14l-.91.14a.18.18 0 0 0-.13.27c.04.07.1.1.19.08l.68-.1c.05-.01.16 0 .2.04.15.1.09.29 0 .4-.09.11-.19.2-.3.27ZM30.02 19.98a4.98 4.98 0 0 1-3.3.25l.05-.22h.01a4.74 4.74 0 0 0 3.2-.27 2.28 2.28 0 0 0 .04.24Z" fill="#FCC79D"/><path d="m26.43 19.9-.03.23h-.01l-.18-.06-.02-.01a.52.52 0 0 0-.08-.2l.1-.04.22.07v.01Z" fill="#FEFEFE"/><path d="M32.4 20.54a6.7 6.7 0 0 1-6.8 1.2c.16-.15.3-.33.35-.54.03-.16 0-.31-.08-.47v-.02c.12-.07.2-.16.27-.27h.02a5.32 5.32 0 0 0 4.31-.25c.66.02 1.3.14 1.93.35ZM16.06 25.67l.42-.26.45.68v.01l-2.31 1.55h-.02l-.41-.59v-.02c.1-.12.15-.24.15-.38a.65.65 0 0 0-.39-.6.75.75 0 0 0-.33-.06c-.42 0-.75.22-.98.57-.25.4-.36.88-.38 1.35-.03.6.04 1.2.2 1.76.18.55.49 1.1.93 1.47a1.64 1.64 0 0 0 1.61.33V29h-1.35c-.01 0 0 0 0 0v-.98l.01-.02h2.5c.29 0 .55-.04.8-.13H17l.3.49v.02a1 1 0 0 0-.27.53c-.01.05-.02.2-.02.46v3.46h-.61l-.48-.8h-.02a6.28 6.28 0 0 0-.32.26c-.94.65-1.96.85-3.08.61a2.93 2.93 0 0 1-1.51-.88 3.3 3.3 0 0 1-.74-1.31 5.33 5.33 0 0 1-.1-2.3c.11-.57.33-1.1.64-1.58A4.03 4.03 0 0 1 13.8 25a3.13 3.13 0 0 1 2.26.66ZM43 26v6h.75c.29 0 .57 0 .81-.16.32-.2.44-.66.49-1.05l.01-.01h.68l-.2 2.58-.02.01h-.7v-.33L44.8 33h-4.34c-.01 0 0 0 0 0v-1H41v-6h-.53c-.01 0 0 0 0 0v-1h3.21v1H43Z" fill="#FEED1E"/><path fill-rule="evenodd" d="M22.12 25.02a4.53 4.53 0 0 0-.88 0 3.77 3.77 0 0 0-3.4 3.2 4.97 4.97 0 0 0 0 1.6A3.77 3.77 0 0 0 21.73 33c.16 0 .3 0 .44-.02a3.77 3.77 0 0 0 3.4-3.2 4.97 4.97 0 0 0-.01-1.6 3.77 3.77 0 0 0-3.43-3.16ZM20.23 29a35.46 35.46 0 0 0 .12.56c.1.43.25.84.42 1.22.27.58.73 1.28 1.46 1.22a.88.88 0 0 0 .6-.29c.13-.14.22-.3.28-.49.09-.26.14-.54.15-.84a6.22 6.22 0 0 0-.2-1.95 7.29 7.29 0 0 0-.43-1.22c-.26-.58-.73-1.28-1.45-1.22a.88.88 0 0 0-.6.29c-.13.14-.22.3-.29.49-.08.26-.13.55-.15.84-.02.47.01.93.09 1.39ZM26.5 26h.5v6h-.51v1h3.27v-1h-.74c-.01 0-.02 0-.02-.02v-1.41c0-.01 0-.02.02-.01.49.23 1.26.26 1.8.18a2.7 2.7 0 0 0 2.34-2.6c.02-.3 0-.59-.05-.86a2.46 2.46 0 0 0-.75-1.4 3.16 3.16 0 0 0-1.44-.74c-.4-.1-.8-.14-1.22-.14h-3.21V26Zm2.86-.04a3.2 3.2 0 0 0-.36-.01v3.06c0 .12.01.24.04.37.07.3.26.46.6.5.4.05.76-.06 1-.36.28-.34.34-.82.36-1.24 0-.29-.02-.57-.07-.84-.16-.72-.66-1.4-1.57-1.48ZM34.71 33V32h-.62V32l.34-1h2.5l.3 1h-.62v1h3.28V32h-.38V32l-2.25-7H35.3l-2.24 7h-.47v1h2.11Zm.97-6.02-.93 2.73v.01h1.84v-.01l-.9-2.73Z" fill="#FEED1E"/><path d="M28 35.76h.71a34.96 34.96 0 0 1 11.04 2.08l-1.3 4.32a38.07 38.07 0 0 0-11.6-1.5 38.04 38.04 0 0 0-9.3 1.5l-1.3-4.32v-.01A34.95 34.95 0 0 1 28 35.76Z" fill="#FFFAC2"/><path d="m27.98 38.13 1.06-.97.73.01v.01l-1.13.97v.01l1.16 1.45v.01h-.74l-.83-1.09-.28.23-.01.83h-.58v-.01l.04-2.44h.58v.01l-.02.97v.01h.01ZM24.41 37.72a373.25 373.25 0 0 0 .19 2.04l-.52.04-.25-2.43v-.01h.01l.82-.07h.01l.69 1.87c0 .02 0 .02.01 0l.3-1.94.82-.07.02.01.24 2.43h-.01l-.52.04h-.01L26 37.6H26a19567.8 19567.8 0 0 1-.32 2.08l-.55.04-.01-.01-.7-1.99ZM30.87 38.22l1.33.14-.05.43-1.34-.14-.09.62 1.52.17v.01l-.05.42h-.01l-2.08-.22v-.01l.33-2.42h.01l2.01.21-.05.43-1.45-.15h-.01l-.07.5ZM33.56 38.53l1.3.22h.01v.01l-.09.41-1.32-.22-.14.62 1.5.26v.01l-.09.41-2.05-.34-.01-.01.53-2.4 1.99.34-.09.42-1.43-.24h-.01l-.1.5ZM21.85 39.66l-.08.52-.59.1.43-2.56v-.01l.66-.11 1.48 2.23v.01l-.6.1h-.01l-.28-.45-1 .16ZM18.66 39.04v.01l.5 1.67v.01l-.5.12h-.02l-.7-2.35v-.02l.56-.13h.02l1.55 1.38h.01l-.49-1.63v-.01l.5-.12h.02l.71 2.36-.54.14a.02.02 0 0 1-.02 0l-1.6-1.43ZM36.2 38.8l-.5 1.68h-.01l-.51-.12.7-2.36h.01l.58.13h.01l.56 1.9h.01l.5-1.64.51.12-.7 2.36h-.01l-.55-.12-.58-1.95h-.01Z" fill="#3E4095"/><path d="m21.91 39.2.14-1h.01l.54.88v.01l-.68.12Z" fill="#FFFAC2"/></svg>