<svg xmlns="http://www.w3.org/2000/svg" width="56" height="56" viewBox="0 0 56 56"><path fill="#F0F3FA" d="M0 0h56v56H0z"/><path fill-rule="evenodd" d="M10 27l17-17v17H10zm-1 1l.1-.1v.2L9 28zm18 18L10 29h17v17zm19-17L29 46V35.42L35.42 29h10.59zM29 10v10.78L35.22 27H46L29 10zm-9 26v-5.98h.17l5.84 5.83V36H20zm9.85 0H36v-6.15L29.85 36zM36 26.35V20h-6.35L36 26.35zm-9.88-6.11V20H20v6.36-.38h.37l5.75-5.74zm-4.31 5.74h4.31v-4.31l-4.31 4.31zm-.2 4.04H26v4.4l-4.4-4.4zM32 30.5a2.5 2.5 0 1 0 0-5 2.5 2.5 0 0 0 0 5z" fill="#7D7D7D"/></svg>