<svg xmlns="http://www.w3.org/2000/svg" width="56" height="56"><path fill="#F8EA0F" d="M0 0h56v56H0z"/><path d="M21.62 23.58l-1.03.82.66.42.8-.42c1.5.99 3.87 1.1 4.86 1.03-.36-.4.04-.57.28-.61.8-.13 2.44-.53 3.15-.7v-.54l1.31-.42c.23-.34.74-.53.96-.59v-.4l.7-.3c0-.24.78-.82 1.17-1.08-.3-.07-.73-.35 0-.84a9.44 9.44 0 001.74-1.59c-.34-.28-.27-.57-.2-.68l1.18-2c-.5-.14-.35-.45-.21-.6l.84-1.04c-.4-.14-1.13.13-1.45.28l-.16-.28c-.98.56-2.34.65-2.9.63l-.22-.47c-.4.13-1.31.41-1.73.47-.4.05-1.37.49-1.8.7l-.14-.45c-.61.17-2.1 1.1-2.76 1.55l-.32-.3c-.07.23-.34.79-.92 1.16a8.03 8.03 0 00-1.59 1.62l-.44-.24a3.2 3.2 0 01-.73 1.4c-1.03 1.07-1.13 2.76-1.05 3.47z" fill="#14542E"/><path d="M24.9 19.76c-.16.06-.47.26-.43.65.06.5.35.73.73.76.04.33.21.98.6.99.37 0 .7-.4.81-.6v1.38c-.06.29-.35.78-1.05.47.02.2.13.49.6.49.46 0 .97-.33 1-1.07l-.07-2.56c0-.07-.05-.24-.19-.24s-.25.2-.25.35c0 .15-.08.83-.56.84-.1 0-.3-.09-.3-.24.34-.18 1.01-.75 1.01-1.64 0-.89-.55-.9-.82-.79-.23.13-.7.63-.72 1.6 0 .14-.06.43-.29.43-.29-.01-.21-.53-.07-.82zm.9.7c-.05-.47-.02-1.45.37-1.55.4-.1.4.38.34.63-.02.17-.2.6-.72.93zm2.19-1.06c-.33 0-.55.31-.61.46l.16.14v1.65c0 .16.04.49.29.49.25 0 .27-.35.29-.49V19.8c.1.2.25.33.43.33.41-.2.25-1.12 0-1.12-.2 0-.46.26-.56.38z" fill="#fff"/><path fill-rule="evenodd" d="M29.86 18.17c.27 0 .57.27.54.8-.04.65-.41 1.04-.91.96-.02.11.02.33.25.33s.32-.16.33-.23c.05-.08.17-.2.27 0 .13.23-.33.85-.72.85-.44 0-.7-.41-.67-.85v-.87c0-.28.23-1 .91-1zm-.35 1.28c0-.25.04-.77.31-.82.34-.05.28.54-.31.82zm1.95-2.3c.27 0 .57.28.54.8-.04.66-.41 1.04-.91.97-.02.1.02.33.25.33s.32-.16.33-.24c.05-.08.17-.19.27 0 .13.24-.33.85-.72.85-.45 0-.7-.4-.67-.85v-.87c0-.27.22-.99.9-.99zm-.35 1.18c0-.25.04-.67.31-.71.34-.06.19.57-.3.71z" fill="#fff"/><path d="M32.58 16.37c-.46-.1-.6.19-.6.34 0 .23.17.33.25.36v1.37c0 .4.16.57.3.55a.7.7 0 00.48-.34c.14-.24-.06-.31-.18-.32v-1.5l.18-.21c.21-.23.26-.1.26 0v1.34c0 .13.06.44.3.37.23-.07.56-.42.59-.65.01-.2-.18-.22-.28-.21v-1.18c-.03-.37-.13-.6-.48-.6-.24 0-.57.43-.82.68z" fill="#fff"/><path fill-rule="evenodd" d="M6 25.63c.03-.37.25-1.12.9-1.12.12-.02.45.05.83.52.38.48.6.2.66 0 .75-1.27 3.1-3.86 6.5-4.03.81-.04 1.9.35 1.88 2.25-.01 2.38-2.59 4.37-5.71 4.92-.34.06-1.17.14-1.77 0-.2.76-.15 2.27 1.77 2.29.5.04 1.82-.32 3.07-2.1 1.42-2.04 1.72-1.78 1.88-1.64l.05.04c.16.11.3.74 0 1.6l-.77 2.26c.28-.04 1.13-.54 2.22-2.11-.23-.26-.66-.88-.59-1.27.1-.48.52-1.28 1.12-1.26.61.02 1.14.69 1.05 1.26.2.24.78.73 1.55.82.95.11.99.15 1.1.45.09.23-.5 1-.81 1.35-.48.48-1.42 1.56-1.3 2.05.14.6.77.26 1.12-.19.38-1.54 1.81-4.62 4.5-4.62.33 0 .64.18.74.66.13.6-.95 3.25-3.53 4.15-.08.3-.13.94.34.96.46.03 1.29-.58 1.64-.89.15-.1.37-.4.53-1.02.47-1.28 1.98-3.87 4.23-4.02.28 0 .84.14.82.82-.03.85-.82 3.09-3.55 3.96-.01.28.11.84.7.86.71.03 2.74-1.48 3.24-3.48s1.28-2.33 1.49-2.35c.2-.01.65 0 .49 1.31-.02.18.03.42.42 0 .49-.52 1.24-1.05 1.88-1.05.64 0 .76.45.74.75-.03.3-.33 1.3-.74 2.5-.41 1.18-.16 1.53.11 1.54.28.01 1.53-1.66 1.67-2.7.15-1.03.73-2.93 1.76-2.94.24.02.66.24.5.98.04.03.18.04.4-.2.27-.3 1.65-1.02 1.99 1.46 0 .3-.06 1.07-.36 1.85-.07.28-.07.64.55-.16.06-.08.22-.5.4-1.51.46-1.49 1.7-4.57 2.98-5.05.24-.05.67.08.54 1.04A9.7 9.7 0 0144 27.52c-.72 1.52-1.9 4.54-.86 4.5.18.02.63-.16 1.04-1 .22-1.46.96-4.38 2.09-4.46.32-.03.89.1.66.83l-.27.78c-.43 1.22-1.1 3.07-.57 3.18.53.1 1.24-1.33 1.53-2.06.3-.75 1.12-2.21 1.98-2.02.25-.01.65.3.2 1.63-.58 1.67-1.97 6.96-2.25 8.1-.23.91-.74.89-.96.76-.27-.04-.7-.5-.32-2 .37-1.51.75-2.61.89-2.97.03-.13.01-.35-.3-.2-.2.27-.72.8-1.25.8-.53.02-.97-.52-1.12-.8-.31.4-1.13 1.2-1.86 1.2-.91 0-1.32-.94-1.32-1.64 0-.56-.66-.03-.93.3-.28.32-.94.95-1.81.95-.88 0-1.16-.4-1.2-.6-.08-.1-.28-.19-.32.13l-.03.38c-.04 1.04-.14 3.66-1.33 3.5-1.12-.16-.7-2.46-.34-3.6.06-.19.08-.51-.36-.28-.34.29-1.12.86-1.63.86-.63 0-.73-1.36 0-3.7.13-.35.26-1.05-.21-.99-.6.08-1.4 1.46-1.75 2.88-.1.4-.15.76-.2 1.1-.12.84-.2 1.4-.92 1.47-.9.08-.78-1.21-.74-1.7v-.14a3.81 3.81 0 01-2.38 1.33 2.02 2.02 0 01-1.9-.93c-.1-.08-.3-.18-.45 0-.17.22-.98 1.1-2.35 1.17-.31.03-1.06-.1-1.53-.84-.05-.07-.19-.18-.4 0-.26.23-1.1.84-1.93.84-.83 0-1.24-.98-.85-1.93.4-.95.9-1.9 1.62-3.1l-.6-.29c-.82.97-2.75 3.12-3.9 3.91-.17.1-.55.41-.74.94-.24.65-2.6 6.19-5.63 6.19-2.42 0-2.32-2.3-1.97-3.45.22-.65 1.24-2.16 3.55-2.96.97-.24 2.88-.97 2.81-2a6.3 6.3 0 01-2.8.87c-1.37 0-3.64-.52-3.72-3.5a3.7 3.7 0 01.67-1.86c-.3-.12-.93-.58-1.04-1.47zm16.77 4.88c-.14-.24.4-1 1.68-2.18.2-.17.6-.09.36.34-.29.53-1.82 2.22-2.04 1.84zm5.5-2.06c-1.1.97-1.57 1.6-1.45 1.8.2.32 1.51-1.08 1.76-1.52.2-.35-.14-.41-.31-.28zm10.64 0c.3.03.75.42.2 1.69s-1.06 1.2-1.24 1a.96.96 0 01-.23-1c.23-.57.76-1.8 1.27-1.7zm-25.17-5.67c-1.86.26-3.26 2.37-3.81 3.45 1.66.5 3.88-.5 4.51-2.14.5-1.32-.31-1.38-.7-1.3zM8.42 37.34c0-.32.5-.99 1.64-1.62l.4-.24c.44-.3 1.04-.69 1.18-.57.24.21-1.27 3.06-2.4 3.2-.28.05-.82-.02-.82-.77z" fill="#14542E"/></svg>