<svg width="56" height="56" viewBox="0 0 56 56" xmlns="http://www.w3.org/2000/svg"><path fill="#F0F3FA" d="M0 0h56v56H0z"/><path d="M27.97 14c-8.19 0-16.35 6.5-16.92 14.5a13.06 13.06 0 0 0 3.62 10.24A13.98 13.98 0 0 0 24.87 43h9.77l5.86-16H29.71l-2.26 6h-1.92c-.58 0-1.15-.22-1.68-.44a4.14 4.14 0 0 1-2.29-2.4 3.95 3.95 0 0 1-.2-1.66c.17-2.41 3.35-4.5 5.83-4.5h14.2l1.34-4H27.46c-4.6 0-9.64 4.01-9.97 8.5-.09 1.05.05 2.1.4 3.1.98 2.78 4.3 5.44 7.37 5.4h4.85l2.18-6h2.85l-3.17 8h-6.83c-2.94.04-5.48-.75-7.55-2.92a9.85 9.85 0 0 1-2.68-7.58c.42-5.92 6.73-10.5 12.8-10.5h15.94L45 14H27.97Z" fill="#E50019"/></svg>