<svg width="56" height="56" viewBox="0 0 56 56" xmlns="http://www.w3.org/2000/svg"><path fill="#F0F3FA" d="M0 0h56v56H0z"/><path d="M27.11 18.1c.2-.03.34-.1.33-.15-.01-.05-.18-.07-.37-.03-.19.04-.33.1-.32.16 0 .05.17.06.36.03ZM29.26 28.38v1.9l-.36.42a.22.22 0 0 1-.1.06c-.08.03-.12.1-.11.18a.06.06 0 0 1-.02.05.07.07 0 0 1-.04.03.1.1 0 0 1-.08-.03.12.12 0 0 0-.09-.03h-.04c-.05 0-.05.02-.01.06.02.02.03.05.02.07 0 .02 0 .04-.03.05a.9.9 0 0 1-.24.15c-.04-.07-.05-.14 0-.2a.04.04 0 0 0 0-.05l-.03-.02c-.03-.01-.05 0-.06.02-.06.15-.03.23.09.25l-.01.33c-.19 0-.3-.09-.35-.26 0-.02-.02-.03-.04-.02h-.02c-.03.01-.04.03-.03.05.07.2.22.3.44.3l.07.22a.11.11 0 0 1 0 .08.8.8 0 0 0-.1.28l-.17-.1c-.04-.02-.06 0-.07.03 0 .02-.01.05 0 .07 0 .04.02.07.06.08a.3.3 0 0 0 .2 0c.07.1.06.18-.03.24-.19.14-.08.33-.36.42a.26.26 0 0 0-.12-.03.04.04 0 0 0-.04.03.04.04 0 0 0 0 .04c.03.03.06.04.09.03.02.02.03.05.03.07-.01.04-.04.05-.07.05-.16-.03-.25-.14-.27-.32l.18-.05a.1.1 0 0 1 .09.01c.07.06.14.04.2-.03a.1.1 0 0 0 .01-.12.9.9 0 0 1-.16-.4c0-.08-.05-.12-.13-.11h-.02a.04.04 0 0 0-.02.05v.02c.06.06.1.12.11.18.02.07 0 .1-.08.07l-.08-.02c-.03 0-.05-.03-.05-.07l-.01-.15c0-.02 0-.04.02-.05.06-.06.06-.12-.02-.2h-.03l-.02.01a.05.05 0 0 0-.03.03v.04c.05.07.03.12-.05.14a.06.06 0 0 0-.04.03.06.06 0 0 0 0 .05c0 .05.04.08.09.1.04 0 .05.03.04.07a.42.42 0 0 1-.1.14.42.42 0 0 1-.16-.23c.04-.05.06-.1.04-.16l.01-.1.02-.04a.1.1 0 0 0 0-.1c-.05-.07-.12-.1-.22-.08-.03 0-.04.02-.02.05.08.08.12.19.12.32v.02h-.04a.82.82 0 0 1-.18-.3c-.05-.14-.1-.24-.15-.32a2.14 2.14 0 0 1-.3-.72c0-.03.01-.05.03-.07v-.03a.06.06 0 0 0-.03-.03c-.12-.07-.16-.16-.12-.29v-.08a2.11 2.11 0 0 1-.05-.54c0-.04 0-.06-.03-.09a.31.31 0 0 0-.15-.1H26l-.03.01-.01.03v.02l.03.11v.09c-.2.32-.53.07-.69-.11-.02-.03-.02-.05.02-.07a.12.12 0 0 1 .07-.02c.03 0 .05 0 .08-.02l.15-.12a.07.07 0 0 0 .02-.08.07.07 0 0 0-.02-.03.08.08 0 0 0-.04-.02c-.13-.02-.22 0-.27.04a.1.1 0 0 1-.07.02.11.11 0 0 1-.07-.03l-.07-.06c-.05-.04-.04-.08 0-.1.11-.07.24-.1.38-.07a.21.21 0 0 0 .16-.04.2.2 0 0 0 .08-.15c.02-.23-.23-.3-.2-.5 0-.04 0-.06-.03-.08h-.03c-.07.03-.1 0-.08-.07.02-.06.05-.1.1-.11.03-.02.06 0 .08.02a.2.2 0 0 0 .06.06c.03.02.05.02.07-.01a.26.26 0 0 1 .12-.1 5.08 5.08 0 0 0 .6-.7c.11-.17.1-.4.26-.52.1-.07.08-.12-.04-.16-.19-.05-.3-.13-.34-.25a.3.3 0 0 1 .08-.35.08.08 0 0 0 .02-.09.3.3 0 0 0-.22-.19c-.14-.03-.14-.08 0-.13l.28-.1a.12.12 0 0 1 .12.02l.38.27c.3.2.43-.15.67-.06.02 0 .03.02.04.03v.05c-.03.18-.22.23-.26.39-.03.08 0 .15.06.2.04.03.04.06 0 .09h-.02c-.05 0-.07.02-.07.06-.02.12 0 .23.06.34l.07.07.33.2c.02 0 .03.02.03.03v.06l-.06.24v.08l.07.07c.23.11.47.2.72.26a.2.2 0 0 0 .1 0c.3-.09.34.13.56.13ZM37.1 33.84l.04.44c-.39.41-.75.83-1.08 1.26-.16.2-.42.44-.78.72a.24.24 0 0 1-.12-.12c-.02-.03-.04-.05-.08-.04l-.04.01a.05.05 0 0 0-.03.03v.04c.04.06.1.11.2.16l-.46.36-.07-.07a.1.1 0 0 1-.03-.1c.03-.14.1-.21.23-.22.04 0 .06-.02.08-.05 0-.03 0-.06-.02-.08a.12.12 0 0 0-.04-.03h-.06a.12.12 0 0 0-.08.05c-.04.06-.08.1-.12.12a.22.22 0 0 0-.14.27l.06.1.1.1c-.48.36-.99.67-1.52.94l-.66.27h-.06c-.04-.01-.07-.04-.07-.08.45-.17.82-.41 1.12-.72.07-.08.1-.14.07-.2l.24-.23a.26.26 0 0 0 .05-.07c.07-.15.16-.28.27-.4.03-.01.05 0 .08.03l.07.01c.03.01.05.03.06.05v.04c0 .04-.02.05-.05.06-.07 0-.12 0-.17-.04-.04-.02-.06-.01-.06.03-.02.09.02.14.1.17h.08c.2-.04.26-.13.22-.26a.09.09 0 0 0-.08-.05c-.05 0-.07-.03-.06-.06a1 1 0 0 1 .29-.22c.47-.23.85-.54 1.15-.93.06-.08.17-.1.24-.2a9.59 9.59 0 0 1 .55-.54.06.06 0 0 1 .05.02l.03.07.03.03h.04c.03 0 .04-.01.04-.03v-.12c.1-.2.23-.37.4-.52Z" fill="#CD9624"/><path fill-rule="evenodd" d="M39 27.05a.3.3 0 0 1-.16-.01c-.04-.29-.07-.57-.12-.85-.04-.31-.13-.62-.2-.93l-.04-.12a20.87 20.87 0 0 1-.12-.41 4.9 4.9 0 0 0-.23-.63c-.07-.14-.1-.28-.1-.43a.08.08 0 0 0-.05-.07c-.06-.03-.08-.04-.1-.1a5.87 5.87 0 0 0-.27-.57c0-.06-.04-.11-.08-.16l-.04-.07c-.22-.4-.48-.77-.76-1.13a43 43 0 0 1-.62-.8 3.9 3.9 0 0 0-.5-.5c-.03-.05-.08-.09-.12-.13-.09-.08-.12-.06-.09.05.04.16.02.35-.05.56-.07.23-.18.43-.46.42h-.01v-.01a.02.02 0 0 1 0-.02c.22-.2.35-.44.39-.74a.5.5 0 0 0 0-.1c0-.06-.01-.11.01-.16a.1.1 0 0 0 0-.08.9.9 0 0 0-.32-.39.95.95 0 0 1-.27-.25.16.16 0 0 0-.06-.05c-.26-.13-.5-.28-.71-.47a1.13 1.13 0 0 0-.24-.13l-.19-.1a11.9 11.9 0 0 0-2.1-.99c-.05-.01-.08 0-.11.03v.05c.02.02 0 .03-.02.02a.79.79 0 0 1-.24-.15.18.18 0 0 0-.1-.05 7.6 7.6 0 0 1-.81-.23.23.23 0 0 0-.1 0h-.1c-.16-.06-.31-.07-.47-.05a.2.2 0 0 1-.1 0 1 1 0 0 0-.2-.06c-.9-.07-1.79-.05-2.67.04-.2.02-.48.1-.86.21-.08.03-.16.04-.25.06-.22.04-.45.09-.65.32-.1.13-.2.22-.28.26-.1.07-.22.13-.34.19a.14.14 0 0 1-.1 0 .4.4 0 0 0-.2.02l-.57.14c-.26.05-.38.2-.37.44 0 .03 0 .06-.02.09-.09.18.17.5.28.63a.05.05 0 0 0 .07 0l.53-.38a6.27 6.27 0 0 1 1.35-.7l-.01.02c-.36.19-.7.4-1.03.6a3.6 3.6 0 0 0-.36.28l-.33.25c-.05.03-.04.05.01.06a.2.2 0 0 0 .13-.02c.04-.01.05 0 .03.03-.02.07.02.12.11.16.07.03.12.01.17-.03a5.43 5.43 0 0 1 .98-.74l-.89.76c-.06.05-.05.09.02.11.26.1.54.16.86.2h.1l.03-.02c.04-.02.06-.01.08.03l.05.07v.11a.1.1 0 0 1-.03.08.12.12 0 0 1-.1.04c-.02 0-.03 0-.03-.03a.06.06 0 0 1 .01-.03c.02-.04.02-.05-.03-.04a.1.1 0 0 0-.02 0l-.02.02c-.02.02-.02.04 0 .06l.09.13c.02.03.04.04.07.01.1-.08.15-.19.16-.32l.08-.14v-.01h.01c.2-.34.4-.7.67-.98h.04v.03l-.6.95c-.1.15-.06.19.1.1a.48.48 0 0 1 .18-.06c.03 0 .07-.02.09-.04.1-.1.16-.16.2-.18.23-.05.44-.12.66-.2.09-.02.18 0 .28.08-.01.1.02.17.08.2.11.03.14 0 .08-.1l-.02-.02-.05-.05c.06-.03.12-.03.19.02s.08.1.04.17a.19.19 0 0 0-.08.04c-.03.02-.04.05-.02.09.02.05 0 .09-.03.12a.1.1 0 0 0-.03.1l.04.07a.06.06 0 0 0 .05.01.1.1 0 0 0 .04 0l.01-.01a.04.04 0 0 1 .03.01l.01.01a.2.2 0 0 1 .02.1c0 .03.01.05.05.05.05.01.09 0 .12-.03.02-.02.02-.05 0-.07a.38.38 0 0 0-.18-.11c-.03-.01-.04-.04-.04-.07l.04-.25c.08 0 .17.01.25.06a.06.06 0 0 0 .06-.01l.01-.02.01-.02a8.46 8.46 0 0 0-.24-1.54h.03c.13.41.2.84.24 1.27.01.12.05.22.12.3a.1.1 0 0 0 .08.04c.1 0 .2-.04.26-.1a.08.08 0 0 1 .08-.01l.34.1c.1.1.2.12.3.14.06.01.13.02.21.06a.03.03 0 0 0 .03 0v-.01l.02-.03v-.01a.04.04 0 0 0 0-.02l-.03-.02-.48-.15 1.38-.37a.04.04 0 0 0 .01-.01.04.04 0 0 0 .02-.04.04.04 0 0 0 0-.01h-.01c-.07-.1-.15-.2-.25-.27A12.2 12.2 0 0 1 29 19l.02-.03h.02l.88.76c.02.02.05.03.08.03a.27.27 0 0 0 .2-.08.05.05 0 0 1 .02 0l.03-.01h.06c.02 0 .04 0 .06-.02l.86-.54.02-.02v-.04a.06.06 0 0 0-.01-.03h-.01V19a4 4 0 0 1-.36-.19c-.1-.06-.08-.07.02-.04.15.04.28.1.4.18.02.02.05.02.08 0a.74.74 0 0 0 .22-.67.6.6 0 0 0-.23-.42v-.02l.01-.02h.02c.06.03.1.07.12.14a.11.11 0 0 0 .07.07c.07.02.11.06.14.12.12.33.07.6-.17.82l-.11.06c-.04.02-.04.05-.02.08.03.05.07.1.11.13.03.02.05.02.05-.02l-.01-.2c.16.08.31.15.45.24.19.12.33.11.52.04a.13.13 0 0 1 .1 0c.09.03.17.05.25.05h.02a.04.04 0 0 1 .02.03v.03l-.03.03h-.03c-.12-.04-.21-.02-.28.06a.04.04 0 0 0 0 .06c.1.11.24.15.42.12.08 0 .12.02.11.1v.08c0 .03 0 .06.03.08.5.3 1 .61 1.47.94.08.05.14.13.18.24.05.1.13.15.24.14.01 0 .03 0 .04.02l.02.03c0 .03 0 .04-.04.04h-.05c-.03.01-.03.02 0 .04.04.04.09.05.14.03a.1.1 0 0 1 .08.02c.28.2.53.42.74.68l-.05.36-.9-.98c-.06-.07-.12-.07-.18 0l-.2.23a.11.11 0 0 1-.1.04c-.06 0-.1.02-.13.07a.27.27 0 0 1-.08.08l-.59.38c-.24.02-.39-.09-.6-.25a.1.1 0 0 0-.07-.03h-.08v.01a.04.04 0 0 0-.02.01v.01a.03.03 0 0 0 0 .04.4.4 0 0 0 .26.12.1.1 0 0 1 .09.07c.02.06.06.08.13.05a.05.05 0 0 1 .04 0 .05.05 0 0 1 .03.03c0 .03 0 .05-.02.07-.15.12-.26.1-.33-.07h-.01a.02.02 0 0 0-.03 0v.04c0 .05.02.1.06.14.14.12.24.17.3.15.02-.01.04-.03.03-.07v-.07c0-.04.03-.05.07-.05.14.01.26-.02.34-.1l.39.52-.16-.07c-.03-.01-.05 0-.05.03-.02.11.05.17.22.18.18.09.27.25.26.48 0 .09-.07.17-.15.2a.13.13 0 0 0-.1.1v.07l.04.06c.12.14.15.28.08.42a.08.08 0 0 0 .02.1l.03.02c.22.07.43.16.65.25.1.05.15.1.15.19-.15 0-.27-.03-.35-.1-.05-.06-.08-.05-.06.02 0 .03 0 .06.02.09v.01a.1.1 0 0 0 .07.04l.33.06c0 .1-.08.18-.2.25-.04.02-.06.01-.08-.01l-.24-.3a.12.12 0 0 1-.02-.09c0-.04 0-.08-.02-.11a.04.04 0 0 0-.02-.02.04.04 0 0 0-.02 0h-.02a.39.39 0 0 1-.28.07.12.12 0 0 1-.08-.04l-.16-.2a.14.14 0 0 0-.14-.06.14.14 0 0 0-.06.03.14.14 0 0 0-.05.06l-.08.23a.04.04 0 0 1-.02.02.04.04 0 0 1-.02 0 .04.04 0 0 1-.02 0l-.01-.01-.18-.28a.06.06 0 0 0-.03-.02.06.06 0 0 0-.04 0l-.03.02c-.12.12-.12.24 0 .34a.2.2 0 0 1 .06.08c.04.08.1.15.19.2l.03.01a.06.06 0 0 0 .05-.02v-.03c0-.06.03-.1.09-.11.03 0 .05 0 .08.03l.04.03c.03 0 .06 0 .08-.03l.04-.06c.02-.03.04-.03.07 0 .01.02 0 .05-.01.08a.4.4 0 0 1-.11.1.08.08 0 0 0-.04.08v.32c0 .03.02.04.04.05l.42.16c.03.01.06.04.07.06.1.19.25.24.46.16l.03-.01c.15-.06.31-.13.45-.21l.19-.1a.9.9 0 0 0 .26-.14c.17-.15.35-.27.56-.37a.18.18 0 0 0 .07-.06c.05-.06.1-.11.17-.15.1-.05.17-.12.24-.2.07-.06.14-.13.24-.19a.12.12 0 0 0 .05-.07l-.01-.09-.47-.72h.04a.3.3 0 0 1 .03 0c.04.01.07.03.09.05.04.04.08.05.13.05a.08.08 0 0 0 .05-.04.07.07 0 0 0 0-.06c-.01-.06-.06-.09-.13-.09a.09.09 0 0 1-.07-.04.18.18 0 0 1-.04-.08.08.08 0 0 0-.04-.06c-.03-.01-.05 0-.06.03l-.07.14-.55-.76.08-.07a.08.08 0 0 0 .03-.08c0-.05-.02-.1-.05-.14a4.63 4.63 0 0 1-.28-.37c0-.04 0-.06.03-.06l.56.68v.11c0 .04-.02.05-.05.05l-.1-.02c-.02 0-.03 0-.03.04v.03c0 .03.02.05.05.05l.34.04.59.85c.02.03.02.06.02.09 0 .08.03.12.1.14.04.01.07 0 .09-.02.13-.16.22-.34.27-.53 0-.02.01-.03.03-.02h.02l.03.03v.02c-.03.26-.13.49-.3.68a.1.1 0 0 0-.02.12c.25.51.46 1.07.62 1.66.01.03 0 .05-.02.07a.09.09 0 0 1-.06 0 .05.05 0 0 0-.02.01h-.01a.05.05 0 0 0-.02.04.1.1 0 0 0 0 .03c0 .04.03.05.06.04h.1c.03.01.04.04.05.07l.08.6-.17.01-.37-1.34v-.02h-.01a.03.03 0 0 0-.01-.01 3.02 3.02 0 0 1-.4-.89.1.1 0 0 0-.1-.02.09.09 0 0 0-.04.03.92.92 0 0 1-.22.21.11.11 0 0 1-.1.01h-.04a.06.06 0 0 0-.04.02v.04c0 .09-.04.16-.14.21-.1.06-.35.21-.73.47a4.64 4.64 0 0 1-1.1.54.04.04 0 0 0 0 .03h.01a.04.04 0 0 0 0 .01h.01l.02.01.12.02c.05 0 .09.03.1.08.08.19.1.39.05.6h-.37l.01-.03c0-.02 0-.03-.02-.04a.34.34 0 0 1-.2-.18c-.02-.04 0-.06.04-.06h.12c.04 0 .07-.02.08-.06a.4.4 0 0 0 0-.18c0-.03-.02-.04-.05-.03h-.03c-.03.01-.04.03-.04.06v.06a.1.1 0 0 1-.06.05.98.98 0 0 1-.25.06.1.1 0 0 1-.05 0 .1.1 0 0 1-.04-.04.31.31 0 0 0-.2-.13.13.13 0 0 1-.1-.06.07.07 0 0 0-.06-.04c-.15 0-.16.04-.03.12a8.29 8.29 0 0 1 .5.29h.04c.03 0 .05.01.05.04l.05.16h-.9c-.07-.08-.2-.12-.4-.12a.15.15 0 0 1-.08-.03.58.58 0 0 0-.25-.1c-.04-.02-.05 0-.04.04.02.07.06.1.14.11l.06.02.12.08-.46.02c.04-.08 0-.14-.12-.2-.04-.02-.06 0-.06.03-.02.06 0 .12.06.16h-1.62a.38.38 0 0 0-.13-.32.1.1 0 0 0-.08-.03c-.2.01-.3-.09-.3-.3a.07.07 0 0 0-.03-.06c-.03-.02-.04-.02-.04.02.01.05 0 .09-.02.11-.03.03-.05.03-.08 0a.34.34 0 0 1-.12-.24.08.08 0 0 0-.05-.08.41.41 0 0 1-.18-.14.83.83 0 0 0-.17-.16c-.02-.02-.04-.02-.06 0l-.02.03c-.02.02-.01.04.01.06l.15.08c.03.02.04.05.02.08l-.02.04-.01.01a.03.03 0 0 1-.02.01h-.02a.38.38 0 0 0-.14-.08.09.09 0 0 1-.07-.07.29.29 0 0 0-.07-.14c-.01-.02-.03-.01-.04.01l-.02.02c-.02.03-.05.03-.08.02a.84.84 0 0 1-.23-.15l-.06-.08c-.02-.04-.05-.05-.1-.04-.04 0-.05.02-.02.05.02.04.06.06.1.07.04 0 .06.02.08.05.05.1.12.15.22.18l.07.04a1 1 0 0 1 .07.08.1.1 0 0 0 .08.04c.1 0 .2.02.3.06.03 0 .05 0 .07-.02l.03-.02c.02 0 .05 0 .07.02.05.04.07.1.04.16-.01.03 0 .06.02.08.09.1.2.17.31.22.03.02.03.03.01.05l-.03.02c-.04.01-.05.04-.04.07 0 .02.01.04.03.05.03.02.05.01.07-.02l.03-.04c.01-.03.03-.03.05-.01l.05.05c.02.01.02.03 0 .05-.05.05-.07.1-.05.17h-.57c.05-.07.04-.13-.03-.19a.07.07 0 0 0-.04 0 .06.06 0 0 0-.03 0 .07.07 0 0 0-.04.05c0 .07 0 .12.03.13a.7.7 0 0 1-.3 0c-.01-.06.02-.1.1-.14.03 0 .04-.03.03-.06a.14.14 0 0 0-.07-.07c-.04-.03-.06-.02-.06.03 0 .1-.06.15-.16.18a.1.1 0 0 1-.1-.03c-.04-.04-.05-.09-.02-.12a.11.11 0 0 1 .08-.04c.08-.01.12-.05.12-.13 0-.04-.01-.05-.04-.02a.38.38 0 0 1-.24.09c-.03 0-.05.01-.06.05a.5.5 0 0 0-.01.27l-.01 1.1c-.45-.02-.85-.1-1.18-.28a.12.12 0 0 1-.06-.07.2.2 0 0 1 .06-.21.13.13 0 0 0 .03-.06.12.12 0 0 0-.03-.12.13.13 0 0 0-.05-.03c-.13-.04-.24-.1-.35-.16a.15.15 0 0 1-.07-.12.15.15 0 0 1 .07-.13l.07-.05c.06-.04.06-.08 0-.12a.41.41 0 0 1-.1-.12c-.02-.03-.02-.06 0-.08.11-.09.18-.22.2-.4.02-.1-.01-.16-.1-.21-.17-.11-.33-.1-.46.02a.15.15 0 0 1-.19.02l-.5-.33a.08.08 0 0 0-.05-.01c-.31.06-.52.1-.66.34-.02.04-.02.08.03.1l.16.11a.1.1 0 0 1 .04.1c-.02.14 0 .3.04.46.02.08.08.13.14.17.05.04.1.08.12.15.09.28-.4.84-.57 1a.15.15 0 0 1-.13.04c-.22-.03-.38.07-.48.32a.24.24 0 0 0 .04.25l.28.3a.04.04 0 0 1 0 .05.04.04 0 0 1 0 .01l-.02.01-.06.02h-.02c-.07.02-.13.04-.22.04a.44.44 0 0 0-.32.17c-.02.02-.05.03-.08 0a.33.33 0 0 1-.1-.1.08.08 0 0 0-.07-.05 3.83 3.83 0 0 1-1.52-.23l-.13-.04-.3.01c.03-.08.04-.14.03-.18 0-.05-.04-.07-.1-.06-.34.1-.45 0-.65-.22-.1-.1-.17-.26-.25-.41a3.06 3.06 0 0 0-.14-.26.16.16 0 0 0-.13-.03.16.16 0 0 0-.06.02.2.2 0 0 0-.04.03l-.01.01a.31.31 0 0 0-.04.36l.27.55c0 .02.02.04.04.05a.1.1 0 0 0 .07 0c.08-.01.12.02.12.11 0 .03 0 .04-.04.04-.02 0-.04.01-.04.04a.06.06 0 0 0 .01.05h.01a.3.3 0 0 1 .08.09v.04c0 .03-.03.04-.05.02a.31.31 0 0 0-.12-.02c-.05 0-.06.01-.03.05l.01.03c.02.02.04.03.08.03.1 0 .21.03.3.08.04.01.07 0 .08-.02l.1-.16a.25.25 0 0 1 .1-.06c0 .16.09.26.28.3l.15.03c.05.02.08 0 .07-.05l-.01-.1a.04.04 0 0 0-.02-.04.04.04 0 0 0-.04 0l-.02.01a.04.04 0 0 1-.05 0l-.27-.18-.01-.02-.01-.02c.06-.07.15-.1.26-.09.07.07.19.07.35 0v.35c0 .03 0 .06.04.07a1 1 0 0 1 .34.3.1.1 0 0 1 .02.07c0 .07-.02.1-.05.07a.3.3 0 0 1-.11-.04c-.03-.02-.05-.02-.07 0-.05.05-.1.04-.16-.01a.39.39 0 0 1-.1-.14.08.08 0 0 0-.03-.04.09.09 0 0 0-.06 0c-.04 0-.06.01-.08.03-.03.03-.02.05.02.06l.11.01c.04 0 .06.03.07.06a.2.2 0 0 0 .1.15.1.1 0 0 0 .1 0 .65.65 0 0 1 .2-.04c-.08.1-.12.17-.13.22 0 .14-.05.16-.13.04a.14.14 0 0 0-.1-.05c-.06 0-.06 0-.02.04l.1.11v.09a.72.72 0 0 0-.09.45.18.18 0 0 0-.08-.01c-.03 0-.05.02-.06.05 0 .03 0 .05.03.06h.06c.03.01.04.02.04.05v.22h-.06l-.01.01-.02.02a.06.06 0 0 0-.02.05.06.06 0 0 0 .03.04c.03.02.06.02.1 0l.03.62c0 .04.02.07.04.09.03.02.06.03.1.03.18 0 .34.03.48.07h.23c.85.04 1.74.06 2.67.06a.4.4 0 0 1 .19.04c.02 0 .04.02.05.04.03.05.01.07-.04.07l-.87.03c-.03 0-.06 0-.08-.02l-.04-.02a.07.07 0 0 0-.08 0 .56.56 0 0 1-.24.03 17.67 17.67 0 0 1-1.45-.06.19.19 0 0 1-.06-.07h-.02l-.03.03a.07.07 0 0 1-.05.02l-.7-.06a.08.08 0 0 0-.1.06v.04l.21 1.13c-.07 0-.11-.03-.13-.06-.06-.13-.1-.12-.1.02 0 .13.07.18.23.14.03.06.03.1 0 .12-.03.01-.04.03-.03.06 0 .01.02.03.04.03.03.02.04.04.05.07a95.27 95.27 0 0 1 .23 1V34.8c.1.1.14.2.14.33h-.09a.05.05 0 0 0-.01.06l.01.02c.05.04.08.04.12.01l.1.27c.01.03.04.05.07.05l.68.05.14.02c.06.02.13.03.2.03h.12l.03-.01h.02a20.13 20.13 0 0 0 3.94-.07c.05.02.1.01.13 0 .04-.02.06-.05.05-.1l-.02-.43.01-.08c.02-.06 0-.1 0-.15l-.03-.06c-.04-.4-.05-.8-.05-1.2l-.03-.09a.32.32 0 0 1-.05-.13 15.8 15.8 0 0 1-.08-1.15c0-.04-.03-.06-.07-.05l-.37.03a.04.04 0 0 1-.05-.04v-.03c.01-.06.04-.09.1-.1.12 0 .24-.03.38-.06.1-.03.1-.05 0-.07h-.01l-.01-.02a.1.1 0 0 1-.02-.05l-.04-.59v-.01a.19.19 0 0 1 0-.04l.02-.04.07-.17c.05-.12.08-.12.1.02l.05.86c0 .06.04.09.1.08.84-.06 1.71-.18 2.6-.35.2-.04.38-.09.57-.15.03 0 .04-.03.03-.06l-.22-.5c.14.07.27.03.4-.12.02-.03.04-.03.07-.02h.08c.04-.01.05-.03 0-.05a.14.14 0 0 1-.05-.04c-.02-.03-.02-.05.02-.07.04-.02.05-.05.04-.08-.02-.05 0-.07.05-.07l.12-.01c.03 0 .06 0 .09.02l.17.13c.1.09.23.1.35.1h.02c.04 0 .05-.01.02-.04a.38.38 0 0 0-.35-.1h-.01l-.02-.02v-.03c.03-.06.03-.1-.01-.14h.13l.27.18c.04.02.06.02.07-.02.03-.06.01-.11-.04-.15l.87-.03.1.43c0 .03.03.05.06.04l.26-.07c.04 0 .06-.03.06-.07l-.03-.33h.16l.03.27a.06.06 0 0 0 .03.04.07.07 0 0 0 .01 0h.03a.06.06 0 0 0 .03 0 .5.5 0 0 1 .27-.1l.09-.03.33-.17.34.01-1.05.46c-.03.01-.05.04-.04.07l.04 1.55c.06.17.16.3.28.38.06.03.12.03.19 0 .04-.02.04-.03 0-.05l-.08-.03c-.03-.01-.04-.03-.02-.05a.16.16 0 0 0 .03-.08c0-.04-.02-.05-.05-.05-.11.02-.21-.02-.3-.13a.15.15 0 0 1 .08-.06l.06.01.03.02c.05.04.07.03.06-.04l-.02-.08c-.01-.03 0-.06.01-.1.11-.15.23-.3.36-.43.1-.09.14-.2.18-.32l.05-.15c.01-.01.02-.02.04 0l.27.19c.01 0 .02.02.01.04l-.24.6c-.11-.04-.16 0-.15.07l.02.04.04.01c.05.01.08 0 .09-.04l.15.15c.03.02.02.05 0 .07l-.1.06a.12.12 0 0 0-.05.09.71.71 0 0 1-.2.44.16.16 0 0 0-.04.08l-.02.08c-.03.19-.06.36-.34.39l-.38.05c-.05.01-.07.04-.08.08l-.07.4c0 .02 0 .04.04.04l.15-.03c.03-.01.05 0 .05.04v.03c0 .05.02.06.06.05a5.48 5.48 0 0 0 1.12-.51.2.2 0 0 0 .14-.07.22.22 0 0 1 .08-.06 1.67 1.67 0 0 0 .42-.25l.03.02v.05l-.52.58c-.02.02-.03.02-.02-.02a.2.2 0 0 1 .07-.11c.05-.04.05-.07-.02-.07-.06 0-.1.02-.13.07a.26.26 0 0 1-.21.12.17.17 0 0 0-.11.05.75.75 0 0 1-.46.2.11.11 0 0 0-.08.05c-.1.11-.33.16-.5.2H35a.28.28 0 0 0-.14.09.27.27 0 0 0-.08.14 4.5 4.5 0 0 1-.66 1.66.04.04 0 0 1-.02-.01l-.02-.02.25-.54c.18-.38.29-.75.39-1.15.02-.1 0-.12-.1-.06a.72.72 0 0 1-.26.09l-.15.03a28.75 28.75 0 0 1-3.85.87v-.04a.08.08 0 0 1 .07-.07 33.26 33.26 0 0 0 3.67-.86l.02-.03c.02-.03.05-.04.09-.01l.03.03h.02c.04 0 .03-.03-.03-.08a.1.1 0 0 0-.05-.01h-.02l-.25.06c-.08.02-.09 0-.04-.06.14-.15.3-.18.48-.1.03.02.06.02.1.01.24-.07.38-.25.4-.55 0-.03 0-.06-.03-.09-.05-.06-.08-.12-.07-.17l.08.07c.04.01.06 0 .08-.02.02-.03.01-.07-.01-.11-.02-.03-.07-.03-.15.02.02-.11 0-.2-.08-.27a.12.12 0 0 1-.03-.09c0-.11.03-.22.1-.32a.08.08 0 0 1 .07-.04c.05 0 .1-.01.13-.05a.12.12 0 0 0 .04-.09l-.04-1.71c0-.04-.02-.05-.05-.05a.6.6 0 0 0-.27.05c-.2.1-.4.2-.52.4-.09.14-.18.26-.28.35-.06.05-.09.04-.1-.04 0-.04 0-.09.03-.13.02-.03 0-.06-.04-.06a.89.89 0 0 1-.28-.08.15.15 0 0 0-.1-.01l-.6.13c-.04.01-.06.04-.05.08l.16.54c.01.04.03.06.06.07l.05.01.03.01c.11.03.2.06.28.15.17.17.55.65.47.86-.01.03-.04.04-.07.02l-.59-.32a.13.13 0 0 1-.07-.1.37.37 0 0 1 0-.13.11.11 0 0 0-.03-.09 31.8 31.8 0 0 0-.23-.26.28.28 0 0 0-.28-.1c-.04.01-.06 0-.06-.04-.04-.15-.04-.3-.01-.45a.1.1 0 0 0-.07-.11.1.1 0 0 0-.05 0l-1.82.3h-.1a.16.16 0 0 0-.13.02.22.22 0 0 1-.12.05l-1 .11c-.11.01-.13.06-.04.13.03.03.04.07.04.12 0 .21.02.44.05.69l.06.68a49.14 49.14 0 0 0 .12 1.86.05.05 0 0 0 .04.02h.01l.02-.02c.05-.04.1-.07.16-.08.23-.03.46-.06.67-.07.02 0 .03 0 .04.02v.03c0 .04-.02.07-.06.07l-.8.1c-.03 0-.05.02-.05.05-.04.27-.04.54-.01.8a8.38 8.38 0 0 1 .05 1.35c0 .03.02.04.05.04l.76-.08a22.12 22.12 0 0 0 3.32-.8c.02.06 0 .12-.07.2v-.05a.05.05 0 0 0-.03-.03.05.05 0 0 0-.03 0h-.01c-.24.1-.48.18-.72.24l-.47.11a24.42 24.42 0 0 1-2.81.53.1.1 0 0 0-.02.15l.02.03c.02.03.02.06.01.1a.65.65 0 0 0-.05.4c0 .04.03.06.06.05.22 0 .4-.03.55-.06a14.3 14.3 0 0 0 2.2-.67l.18-.08c0 .04.03.07.07.08h.06l.66-.27-1.48.66a.85.85 0 0 0-.58.19c-.7.2-1.42.33-2.15.38-2.52.2-4.83-.38-6.91-1.74-.05-.08-.05-.15 0-.2.2.14.4.26.62.37.19.1.42.17.68.22a54.06 54.06 0 0 1 1.11.24.5.5 0 0 1 .33.05c.04.02.06.01.07-.02v-.08a.13.13 0 0 0-.07-.09c-.07-.02-.1-.07-.08-.13a.13.13 0 0 0-.07-.13.96.96 0 0 1-.33-.32c-.26-.42-.5-.89-.69-1.4a.15.15 0 0 0-.13-.1c-.5-.06-1-.16-1.53-.28-.02-.01-.03-.02-.03-.05l.01-.04a.04.04 0 0 1 .03-.02h.01l1.53.26c.05.07.11.11.18.11h.03l.02-.04-.01-.02-.02-.02a.34.34 0 0 1-.18-.1l-.32-.9c-.02-.04 0-.06.02-.08.03-.02.05-.01.08 0h.03l.02-.02c0-.02 0-.04-.02-.05l-.11-.04a.09.09 0 0 1-.06-.07 101.22 101.22 0 0 1-.25-1.26v-.17a2 2 0 0 1-.08-.62.15.15 0 0 0-.04-.1.16.16 0 0 0-.1-.05L22.1 32a.16.16 0 0 1-.1-.04l-.06-.07c-.03-.03-.05-.02-.06.02 0 .03 0 .06.03.08.02.02.03.04.03.07l-.05.34c0 .03-.02.06-.05.08a.1.1 0 0 0-.03.1l-.01.1c-.09.2-.19.39-.3.57-.06.1-.17.2-.33.34-.28.24-.46.52-.51.85-.01.04-.03.05-.07.05-.05 0-.09.01-.11.06-.03.04-.02.06.03.04.1-.04.17-.01.2.08.02.1.05.17.09.24.01.03.04.05.08.06l.97.25c.02 0 .03.02.02.04l-.01.05c0 .02-.02.02-.03.02l-.75-.18c-.1-.03-.12 0-.06.09.12.18.28.37.46.57.02.02.02.05.02.07-.01.04-.03.04-.05 0-.02-.03-.05-.04-.07-.02-.06.04-.05.07.02.08.19.05.28.14.27.28a.08.08 0 0 1-.02.05l-.03.02-.22.1h-.03a.06.06 0 0 0 0 .06l.01.03.61.52a.04.04 0 0 1 .02.02c-.09-.05-.19-.05-.3 0l-.8-.62c.22-.18.12-.27-.29-.26a5.66 5.66 0 0 1-.99-1c.14.02.23 0 .3-.04a.12.12 0 0 1 .07-.03.64.64 0 0 0 .04 0l.02-.01.02-.02V35l-.02-.03c-.06-.04-.11-.04-.16 0-.02.03-.04.03-.06.01-.12-.09-.22-.1-.32-.02l-.7-.92c.05-.03.13-.02.22.03.12.07.15.04.08-.08a.4.4 0 0 0-.23-.15.56.56 0 0 1-.22-.13c-.01-.01-.02-.03 0-.05l.02-.02c.03-.03.05-.04.08-.02a.3.3 0 0 0 .13.05c.04 0 .06 0 .04-.05l-.11-.28c-.02-.04 0-.07.05-.08.14-.02.24.02.29.12v.02l-.01.02h-.04c-.03 0-.05 0-.04.04.01.06.05.1.1.14.05.03.08.01.09-.04 0-.05.02-.08.05-.1l.02-.03a.05.05 0 0 0-.02-.06.07.07 0 0 0-.03 0h-.04a.07.07 0 0 1-.05-.04v-.03c-.01-.06-.05-.11-.11-.14a.16.16 0 0 1-.1-.12c-.02-.11.03-.18.14-.2.05 0 .05-.02.03-.05a.27.27 0 0 1-.07-.2.09.09 0 0 0-.04-.09.12.12 0 0 0-.07-.02c-.04 0-.04-.02-.02-.04a.14.14 0 0 0 .02-.13c0-.04-.03-.05-.06-.04l-.12.04a.1.1 0 0 1-.09 0 .1.1 0 0 0-.07-.02c-.03 0-.05.02-.06.06-.02.04 0 .08.02.11.03.03.05.03.08 0a.17.17 0 0 1 .07-.07.09.09 0 0 1 .09 0c.07.05.1.12.11.2 0 .07-.02.08-.06.05a.34.34 0 0 0-.27-.07.07.07 0 0 0-.04.03.06.06 0 0 0 0 .03v.03c.04.06.05.11.04.17-.01.04-.03.04-.06.01a.53.53 0 0 0-.18-.14.04.04 0 0 0-.03 0v.02h-.01v.03c.03.1.1.16.2.2.03.02.06.01.08 0 .03-.03.06-.03.09-.02.05.03.07.02.05-.04a.44.44 0 0 0-.03-.09c-.08-.15-.05-.17.08-.07l.09.1c.02.02.02.05.02.08v.2c0 .03 0 .06-.03.08a.09.09 0 0 1-.06.01c-.04 0-.07.01-.08.04a.17.17 0 0 0-.01.12.2.2 0 0 1 0 .1c-.01.03-.04.05-.08.05-.13 0-.16-.05-.1-.15.05-.08.08-.15.1-.23.03-.05.02-.06-.02-.02a.12.12 0 0 1-.11.03c-.03 0-.06 0-.08.03-.03.03-.08.04-.14.03a.46.46 0 0 1-.05-.14h.04a.07.07 0 0 0 .06-.04.07.07 0 0 0 0-.04.07.07 0 0 0-.01-.04l-.18-.2a.07.07 0 0 1-.02-.07c.03-.08 0-.14-.1-.19-.11-.06-.1-.1.02-.1.08-.01.15.02.2.1.05.05.1.09.18.1.06.02.08 0 .05-.06-.05-.12-.13-.17-.24-.15-.03 0-.04 0-.04-.03v-.02c0-.02 0-.03.03-.03.07 0 .13 0 .2-.02.03-.01.06-.03.07-.06 0-.05-.01-.06-.06-.05l-.06.02c-.04.01-.08 0-.1-.04a.38.38 0 0 0-.16-.14.07.07 0 0 1-.02-.04.06.06 0 0 1 0-.05c.04-.05.04-.09 0-.13l-.02-.02h-.04a.07.07 0 0 0-.03.02.06.06 0 0 0-.02.02c-.02.05-.06.06-.1.02a.06.06 0 0 0-.08 0l-.12.03-.27-.83c.05-.14.13-.19.26-.13.03.02.05 0 .06-.03l.01-.04c0-.02.02-.03.04-.02l.07.03a.03.03 0 0 1 .02.02c0 .03 0 .06-.04.08a.04.04 0 0 0 0 .02v.02a.04.04 0 0 0 .01.03.1.1 0 0 0 .08 0c.02 0 .04-.02.05-.03a.08.08 0 0 0 .01-.06c-.01-.12-.09-.2-.23-.27h-.01a.05.05 0 0 0-.03 0l-.02.01-.01.02v.05c.02.03.01.06-.01.08-.02.01-.04.02-.06 0-.06-.05-.06-.11-.02-.17a.07.07 0 0 0 .01-.08l-.13-.25c-.01-.03-.04-.04-.07-.03a.28.28 0 0 0-.06.03c-.03.02-.05.02-.07-.01a.34.34 0 0 0-.01-.03c-.02-.04-.01-.06.03-.07a.6.6 0 0 0 .25-.13.03.03 0 0 0 .01-.01l-.01-.03a.07.07 0 0 0-.06 0c-.12.03-.2 0-.25-.08-.03-.05-.02-.07.03-.07l.07-.01c.04 0 .05-.02.02-.05a.7.7 0 0 1-.14-.2c-.02-.04 0-.06.02-.09.03-.02.06-.02.1-.01h.02v-.01l-.01-.01c-.1 0-.16-.04-.2-.12 0-.04 0-.06.04-.08a.17.17 0 0 1 .14 0c.02.02.04.04.04.07.01.05.05.08.12.07a.1.1 0 0 1 .09.02c.02.02.03.05.03.09 0 .03 0 .06.02.08.04.03.07.05.12.05.03 0 .04 0 .05-.03 0-.05-.01-.09-.06-.11-.06-.02-.05-.04 0-.06.03 0 .05 0 .07.02.02.02.03.03.06.02l.02-.01a.07.07 0 0 0-.01-.07l-.02-.02h-.03c-.13-.04-.16-.1-.08-.2a.1.1 0 0 0 .02-.08c0-.05-.03-.06-.06-.02l-.1.15-.01.01-.03.02a.12.12 0 0 1-.05.02.16.16 0 0 1-.15-.07c-.02-.02-.04-.03-.07-.02l-.05.02c-.03.01-.06 0-.08-.02a.19.19 0 0 0-.13-.09l-.02-.22c.04 0 .07-.02.1-.05a1.74 1.74 0 0 1 .06-.07.11.11 0 0 1 .09-.01.1.1 0 0 1 .07.05c.02.06.05.08.1.06.06 0 .06-.02 0-.04-.08-.04-.13-.09-.14-.16 0-.04-.03-.06-.07-.06L17 28.6v-1.23c.06.01.1.03.1.04.1.13.15.11.14-.05 0-.07-.08-.14-.22-.2.05-.8.2-1.56.43-2.31.1-.04.14-.1.14-.2a.06.06 0 0 1 0-.03l.03-.03a.07.07 0 0 1 .07 0l.05.04c0 .09-.01.17-.03.25l-.02.29.04.34c.01.14.1.23.19.33l.02.02.01.01c.03.03.06.04.1.02l.12-.07c.04-.02.07-.01.09.03l.28.47c0 .1-.03.15-.1.17l-.01.01-.01.03c0 .02 0 .03.03.03.04 0 .09-.02.12-.04.04-.01.05-.04.04-.07a.35.35 0 0 1-.01-.13c.24-.55.43-1.12.57-1.72.08.05.15.08.2.06a.06.06 0 0 0 .04-.02.05.05 0 0 0 .01-.04c-.02-.08-.1-.1-.26-.07a.35.35 0 0 0-.23.03c-.03.01-.05.03-.04.07 0 .2-.08.36-.26.46-.04.02-.06.01-.06-.03-.01-.06 0-.13.03-.2l.02-.13v-.14c0-.21 0-.4.25-.55-.01-.06.03-.09.13-.07.02 0 .04-.01.05-.04v-.03c0-.03 0-.05-.03-.06-.06-.04-.13-.04-.2 0l.04-.59a.1.1 0 0 1 .05-.07c.08-.06.1-.13.04-.2a.05.05 0 0 0-.03-.02.05.05 0 0 0-.04 0v.01l-.22.31a.1.1 0 0 0-.01.09c.02.05.01.1 0 .16a.22.22 0 0 0-.02.1l.02.45c0 .04-.02.06-.07.06-.09 0-.14.05-.13.16a.08.08 0 0 1-.04.07l-.2.16c-.04.03-.06.02-.07-.02a.76.76 0 0 1 0-.21c0-.06.01-.06.04-.01l.02.03.02.02a.06.06 0 0 0 .04 0 .07.07 0 0 0 .04 0c.1-.1.15-.23.15-.38-.01-.32.06-.64.21-.96.04-.08.02-.12-.07-.12h-.03a.18.18 0 0 0-.1.03.17.17 0 0 0-.06.08l-.44 1a.16.16 0 0 0-.01.1l.03.14c0 .04 0 .07-.02.1l-.15.2-.03.02-.03.01h-.03c-.02 0-.03 0-.03-.03s-.04-.05-.11-.06c0-.06.02-.1.05-.13.21-.09.23-.15.06-.18a10.73 10.73 0 0 1 2.04-3.41c.07.01.14 0 .21-.05v-.05l.01-.06a.27.27 0 0 0 .07-.16 11.33 11.33 0 0 1 4.22-2.8l.12.07c.03 0 .04.03.03.06l-.06.23c-.01.03-.03.04-.06.03-.01 0-.02 0-.03-.02-.02-.03-.04-.02-.05 0v.05a.05.05 0 0 0 .06.04l.12-.03.04-.03a.08.08 0 0 0 .02-.04c.02-.15.1-.25.23-.3a.08.08 0 0 0 .06-.07c0-.04-.03-.07-.1-.09a10.86 10.86 0 0 1 7.53.26c.84.35 1.59.75 2.25 1.22a11.6 11.6 0 0 1 3.22 3.57l.43.86c.44.93.7 1.7.78 2.32l.17 1.28ZM25.97 37.99l-.7-.05a.3.3 0 0 1-.25-.13l-.45-.63c-.19-.27-.33-.57-.47-.86-.09-.18-.17-.37-.27-.55-.05-.09-.03-.13.08-.11a16.19 16.19 0 0 0 1.9.1c.03-.02.06-.02.09 0 .02.03.06.04.1.04.17.02.34.02.51 0 .25-.02.43-.04.52-.03a9.88 9.88 0 0 0 2.1-.13c.04 0 .06.01.06.05l.07 2.1c0 .08-.03.12-.12.13l-.66.06a5 5 0 0 1-.68.04h-1.12c-.23.01-.47 0-.71-.03Zm.17.67c.73.16 1.7.2 2.93.14.13-.01.2-.08.2-.2v-.47c0-.1-.06-.14-.16-.13a19.27 19.27 0 0 1-2.67.07c-.37 0-.74-.02-1.1-.09-.04 0-.08 0-.12.02l-.02.02v.02a.05.05 0 0 0 0 .04c.27.31.58.5.94.59ZM20.3 30.3l-.03.06c0 .01-.02.02-.03 0a.05.05 0 0 0-.04 0 .04.04 0 0 0-.04.02.04.04 0 0 0 0 .03l.18.3.11.36.05.07c.03.03.04.06.03.1-.01.04 0 .06.03.08.14.07.25.07.35 0a.14.14 0 0 1 .1-.04c.24.03.4-.02.59-.08l.18-.06a.57.57 0 0 0 .32-.23.14.14 0 0 1 .09-.06l.27-.06c.03 0 .05-.02.07-.05l.03-.07c.01-.04.04-.05.08-.05a.12.12 0 0 1 .04 0v.01c.03.01.04.04.04.07-.04.23-.03.46.02.68.01 0 .02 0 0 .03-.04.1-.03.18.03.26v.04l-.02.13c0 .03-.03.05-.06.05-.22 0-.43-.01-.62-.07-.15-.04-.3-.05-.45-.06a2.6 2.6 0 0 1-.45-.07c-.23-.07-.42-.1-.6-.1-.03 0-.04-.03-.04-.06.01-.11-.04-.21-.14-.3a.14.14 0 0 1-.05-.08.66.66 0 0 0-.19-.29l-.08-.1a2.7 2.7 0 0 1-.5-1.14c-.05-.35-.13-.7-.22-1.04a.5.5 0 0 1 .01-.25c.02-.1.05-.19 0-.27-.02-.05 0-.08.04-.1l.06-.03c.04-.02.07 0 .08.04l.05.18c.05.14.09.27.1.41 0 .07.01.13.03.19.02.06.04.11.04.18.02.24.1.48.23.72.01.02.03.02.04 0l.03-.01c.02 0 .03 0 .04.02.02.04.01.06-.02.08-.04.03-.06.06-.04.11.05.17.14.32.26.45Zm2-6c-.03-.03-.05-.04-.06-.01l-.58.27a.08.08 0 0 0-.05.07l-.01.25c-.02.24.08.42.19.6a.1.1 0 0 1 .01.1c-.05.15-.13.3-.24.43-.02.03-.02.05 0 .08.13.16.28.29.44.38.01-.01.03-.02.07 0l.2-.04c.04 0 .05-.02.04-.05a.64.64 0 0 1 0-.25c.01-.12.03-.22-.14-.37a.08.08 0 0 1-.02-.1l.04-.03H22.34c.03.01.05 0 .06-.03a.2.2 0 0 0-.02-.17.08.08 0 0 0-.08-.04c-.02 0-.03 0-.05.02-.04.04-.06.03-.04-.03a.48.48 0 0 0 0-.2c-.01 0-.02-.03-.02-.09a.4.4 0 0 1-.2-.26c0-.03 0-.06.02-.09a.12.12 0 0 1 .07-.05l.2-.04c.02 0 .05-.02.06-.04.1-.13.08-.23-.04-.3Zm-2.63 2.19-.07.06-.16.21a.07.07 0 0 1-.08.03c-.17-.04-.44-.15-.48-.33a.76.76 0 0 1 .03-.05l.02-.1c.08-.27.16-.57.37-.68.03-.01.06 0 .08.02l.11.19c.02.03.05.04.09.04l.19-.03a.08.08 0 0 1 .07.03l.02.03v.04c-.05.14-.11.27-.19.41v.13Zm2.47-6.62c.1-.05.2-.11.34-.08.1-.05.22-.03.38.05a.1.1 0 0 0 .1 0l.08-.05c.03-.02.03-.03 0-.05-.14-.08-.41-.29-.34-.48a.1.1 0 0 0 0-.09l-.04-.07a.11.11 0 0 1 0-.1c.03-.1.08-.19.14-.27.08-.11.06-.15-.08-.1-.1.02-.19.06-.28.1l-.44.3-.44.29c-.24.15-.44.34-.64.53l-.29.27c-.02.02-.02.04 0 .07a2.25 2.25 0 0 0 .03.04c.02.03.02.06-.03.07-.24.07-.38.24-.53.42l-.2.23c-.12.11-.37.36-.37.54 0 .02 0 .03.04.03h.03a.04.04 0 0 0 .03-.02v-.02c0-.08.04-.12.1-.13a.38.38 0 0 1 .2-.01l.09-.02a.1.1 0 0 1 .05-.06c.07-.11.15-.2.25-.26.03-.02.05-.01.06.02v.04c.02.03.05.04.1.04.01 0 .02 0 .03-.02.02-.01.03-.03.02-.04.08-.1.1-.2.05-.31a.08.08 0 0 1 .01-.08c.16-.2.55-.57.85-.48a.1.1 0 0 0 .08-.01c.16-.1.33-.17.5-.24.04 0 .08-.03.12-.05Zm-2.22 4.8a.3.3 0 0 0-.11.02.46.46 0 0 0-.18 0c-.03-.01-.04-.05-.02-.11l.46-.88a.07.07 0 0 1 .06-.03.07.07 0 0 1 .06.02l.03.04a.1.1 0 0 1 0 .13.3.3 0 0 0-.06.28c0 .03.03.05.06.05.07 0 .13 0 .2-.03.03-.01.05-.04.03-.08v-.03c-.01-.02 0-.05 0-.07.06-.12.17-.16.35-.13.04 0 .05.03.02.06a.84.84 0 0 1-.27.21c-.03.02-.04.04-.02.08.07.18 0 .3-.08.4-.05.09-.1.17-.11.29 0 .03-.02.04-.06.04a.12.12 0 0 1-.06-.04.14.14 0 0 1-.03-.05c-.05-.13-.14-.18-.27-.16Zm.61.12c-.05.01-.08.05-.07.1V25c0 .04.03.07.07.08.1.04.2.02.28-.06a.07.07 0 0 0 .03-.07l-.1-.33c-.03-.09-.06-.09-.1 0l-.03.1a.1.1 0 0 1-.08.06Z" fill="#CD9624"/><path d="M42 35.43V27H30v4h8v3.64A11.99 11.99 0 0 1 16 28a12 12 0 0 1 21.86-6.84l3.41-2.1A16 16 0 1 0 28 44c8 0 13-5.5 14-8.57Z" fill="#2D2C60"/></svg>