<svg xmlns="http://www.w3.org/2000/svg" width="56" height="56"><path fill="#F0F3FA" d="M0 0h56v56H0z"/><path d="M19.82 25h-4.3l-.55 1h4.3l.55-1z" fill="#FECC00"/><path d="M19.03 26.5h-4.2l-.55 1h1.62l-.7 1.68c-3.08.5-3.94-.86-3.98-1.6.22-2.76 7.07-6.06 10.46-7.36l.72-1.87c-2.54.66-13.35 5.08-13.9 9.47-.44 3.51 5.74 3.26 8.88 2.7l1.65-4.02zm2.73-1.08c1.86-.45 5.7-.93 6.22.8.05.24.04.96-.45 1.86-.6 1.11-1.12 2.4-1.14 2.77h-2.47l.32-.85c-.41.33-1.56 1-2.86 1-1.63 0-2.38-.58-2.38-1.3 0-.74.91-2.74 6.3-2.4.39-.55.15-1.46-3.92-.65l.38-1.23zm3.11 2.87c-1.04-.1-3.14-.06-3.21.94.01.17.25.49 1.08.42 1.03-.07 2-.82 2.13-1.36zm3.15.56c.7-3.96 5.76-4.18 7.98-3.63l-.86 1.41c-3.14-.87-4.29 1.03-4.3 1.83-.03.79 1 1.15 1.86 1.13a4.45 4.45 0 001.6-.36l-.63 1.53c-4.9.9-5.82-.91-5.65-1.9zM35 31l2.52-6h2.64l-2 4.65H41L40.43 31H35z" fill="#006CB5"/><path d="M30.3 20.62v.04a.05.05 0 010-.04c0-.38.33-1.17 1.61-1.5 1.33-.34 1.76-.7 1.81-.85.08.38-.15 1.22-1.68 1.58-1.13.27-1.7.62-1.74.77zm-.84 2.07v.06a.08.08 0 010-.06c.01-.6.52-1.8 2.5-2.32 2.06-.53 2.73-1.1 2.8-1.32.12.58-.23 1.89-2.6 2.45-1.75.4-2.63.96-2.7 1.2zm-1.1 2.78v.09a.12.12 0 010-.1c.01-.84.73-2.55 3.54-3.28 2.9-.75 3.85-1.56 3.96-1.87.17.83-.32 2.68-3.68 3.46-2.48.59-3.72 1.36-3.82 1.7z" fill="#009846"/><path d="M49.64 21.22c-3.45-7.42-19.8-5.57-27.26-2.86l-.7 1.86c11.77-4.3 22.77-3.12 24.64 1.32 1.49 3.55-2 7.27-3.94 8.7-2.74 2.33-10.79 7.07-21.13 7.3C10.91 37.75 8.71 33.35 9 31H6.06a5.07 5.07 0 00.19 2.44c3.41 7.7 18.3 5.75 25.32 3.81 17.72-5.63 19.41-13.14 18.07-16.03z" fill="#FECC00"/></svg>