<svg width="56" height="56" viewBox="0 0 56 56" xmlns="http://www.w3.org/2000/svg"><path fill="#F0F3FA" d="M0 0h56v56H0z"/><path d="M37.11 12c-4.98 0-14.05 3.6-17.96 5.4 1.84-.66 6.1-1.98 8.44-1.98 2.93 0 4.41.56 4.41 1.51C32 20.38 20.5 24.7 17 27c18.14-6.2 23-12.22 23-13.52 0-.77-.68-1.48-2.89-1.48ZM12.14 39 16 29h-4.14L8 39h4.14ZM27.8 31.68c.74-1.92-.65-2.68-2.32-2.68H16.9L13 39h4.36L19 35h4.6c1.62 0 3.28-1 4-2.86l.18-.46Zm-4.65.53c-.23.59-1.13.79-1.59.79H19.7l.88-2h1.86c.45 0 1.2-.04.97.54l-.26.67ZM31.5 39c3.4 0 5.93-1.06 6.73-3.07l1.57-3.92c.8-2-.88-3.01-4.3-3.01-3.38 0-5.93 1.02-6.73 3.01l-1.57 3.92c-.8 2 .89 3.07 4.3 3.07Zm.73-2c-.91 0-1.26-.4-.97-1.1l1.66-3.8c.29-.7.95-1.1 1.86-1.1.9 0 1.23.4.95 1.1l-1.67 3.8c-.29.7-.93 1.1-1.83 1.1ZM48 37h-4.49l2.96-8h-3.85L39 39h8.34l.66-2Z" fill="#EF1923"/></svg>