<svg width="56" height="56" viewBox="0 0 56 56" xmlns="http://www.w3.org/2000/svg"><path fill="#F0F3FA" d="M0 0h56v56H0z"/><path d="M26.9 28.3h22.28l-.2.43H26.69" fill="#BBBDC0"/><ellipse cx="18.63" cy="28.23" rx="8.54" ry="8.77" fill="#00AFEF"/><ellipse cx="18.35" cy="28.33" rx="6.07" ry="6.23" fill="#53CAF5"/><ellipse cx="18.35" cy="28.33" rx="3.45" ry="3.54" fill="#EEF9FE"/><path d="M5 19.46h9.12a9.6 9.6 0 0 0-.66.4H5M5 36.6h8.46c.21.14.43.27.66.39H5v-.4Zm0-.9h7.28l.47.39H5v-.4Zm0-.9h6.4l.36.39H5v-.4Zm0-.91h5.7l.29.4H5v-.4Zm0-.9h5.16l.22.4H5V33Zm0-.9h4.73l.17.39H5v-.4Zm0-.9h4.4l.14.39H5v-.4Zm0-.91h4.18l.09.4H5v-.4Zm0-.9h4.03l.05.39H5v-.4Zm0-.9h3.97c0 .13 0 .26.02.39H5v-.4Zm0-.9h3.99l-.02.39H5v-.4Zm0-.91h4.08l-.05.4H5v-.4Zm0-.9h4.27l-.1.4H5v-.4Zm0-.9h4.54c-.05.12-.1.26-.13.39H5v-.4Zm0-.9h4.9l-.17.39H5v-.4Zm0-.91h5.38l-.22.4H5v-.4Zm0-.9h5.99c-.1.13-.2.26-.28.4H5v-.4Zm0-.9h6.76l-.36.39H5v-.4Zm0-.9h7.75l-.47.39H5v-.4Z" fill="#BBBDC0"/><path d="M39.27 25.38s-.26.6-.76.61h-1.6l.3-.58h.36c.1 0 .13-.1.13-.1L38.87 23h-1.72c-.53 1.09-1.05 2.11-1.57 3.2 0 0-.35.83.35.83h2.14l-.3.6H35.1c-1.55 0-.89-1.54-.89-1.54L35.73 23h-.78l.35-.8h6.52l-.35.8h-1m-8.2 0h-3.62c-.75 1.54-1.48 3.02-2.22 4.57H25.2L27.43 23h-.71l.35-.8h.72l.2-.44s.49-1.32 1.89-1.32h2.85c.01 0 1.3.11.66 1.45h-1.23l.13-.26c.2-.42-.2-.45-.2-.45h-1.72a1.4 1.4 0 0 0-1.24.79l-.12.23h5.72l-.35.8h-.89l-.74 1.49H31.5c.1-.18.01-.28-.06-.32a.16.16 0 0 0-.1-.04h-.3s-.42-.02-.57.3l-.2.43s-.1.18.11.18h1.69s.64.02.3.74l-.3.64h-1.22l.2-.46c.18-.33-.08-.33-.08-.33h-.78s-.28-.02-.48.37l-.35.73s-.2.3.16.3h1.67l-.3.6h-2.36c-.82-.02-.52-.65-.52-.65l.5-1.06a.96.96 0 0 1 .08-.13c.21-.3.38-.37.75-.44-.45-.14-.3-.5-.3-.5v-.04l.24-.48c.08-.17.4-.79 1.16-.79h1.52l.3-.54Zm16.28 1.74s.2-.35-.16-.4c-.36-.04-.6.4-.6.4l-.55 1.15H46l.56-1.14s.1-.42-.3-.43c-.42-.02-.65.4-.65.4l-.97 2.04s-.12.27.04.27h1l-.28.6h-1.6c-.78 0-.43-.79-.43-.79l1-2.06.04-.1c.14-.26.63-1 1.89-.98.97.03 1.13.57 1.13.57s.52-.63 1.56-.46l.42-.81h-5.4c-.76 1.54-1.49 3.02-2.23 4.57h-1.23L42.8 23h-.9l.35-.8h.9l.22-.44s.48-1.32 1.88-1.32h5.1c.01 0 1.3.11.66 1.45h-1.23l.13-.26c.2-.42-.2-.45-.2-.45h-3.97a1.4 1.4 0 0 0-1.24.79l-.12.23H52l-.35.8h-1.01c-.66 1.36-1.6 3.27-2.22 4.57h-1.23l1.36-2.83ZM34.9 29.8c-.93 1.89-2.55 5.38-3.42 7.2H29.6l1.36-2.87h-2.23L27.37 37H25.5l3.42-7.2h1.87l-1.22 2.54h2.25l1.2-2.54h1.88Zm3 4.45.22-2.17-1.62 2.17h1.4Zm2.33-4.45L39.5 37h-1.87l.12-1.17H35.3L34.44 37h-1.88l5.42-7.2h2.25Zm5.3 0c-.67 1.37-1.71 3.6-2.56 5.4h3.13l-.85 1.8h-5l3.41-7.2h1.88Z" fill="#231F20"/><path d="M39.1 25.24s-.26.6-.77.6h-1.58l.28-.58h.37c.1 0 .13-.1.13-.1l1.16-2.37h-1.72c-.53 1.08-1.05 2.18-1.57 3.27 0 0-.34.82.35.82h2.14l-.29.6h-2.68c-1.54 0-.88-1.54-.88-1.54l1.52-3.15h-.79l.35-.79h6.52l-.35.79h-1m-8.2 0h-3.61c-.75 1.54-1.48 3.09-2.22 4.63h-1.23l2.23-4.63h-.72l.35-.79h.72l.21-.38s.48-1.33 1.89-1.33h2.85c.01 0 1.3.12.66 1.46H32l.13-.26c.2-.42-.2-.49-.19-.49H30.2c-.77 0-1.13.62-1.24.82l-.11.18h5.71l-.35.79h-.88l-.75 1.55h-1.24c.09-.18 0-.27-.06-.32a.16.16 0 0 0-.11-.03h-.3s-.41-.03-.56.3l-.2.43s-.1.17.1.17h1.7s.63.02.3.75l-.3.64h-1.23l.22-.46c.16-.33-.1-.33-.1-.33h-.77s-.29-.03-.49.37l-.35.73s-.19.3.16.3h1.67l-.29.6h-2.36c-.82-.03-.53-.65-.53-.65l.51-1.06.08-.13c.2-.31.38-.38.75-.44-.45-.15-.31-.5-.31-.5l.02-.04.23-.48v-.01c.07-.16.4-.78 1.15-.78h1.53l.3-.61Zm16.28 1.8s.2-.34-.15-.39c-.36-.04-.6.4-.6.4l-.56 1.15h-1.22l.55-1.15s.1-.41-.3-.43c-.41-.01-.64.4-.64.4l-.98 2.04s-.11.28.05.28h1l-.29.6h-1.6c-.78 0-.42-.8-.42-.8l.99-2.06.05-.1c.13-.26.63-1 1.88-.97.98.03 1.14.56 1.14.56s.52-.62 1.56-.46l.42-.87h-5.41c-.75 1.54-1.48 3.09-2.22 4.63h-1.23l2.23-4.63h-.9l.34-.79h.91l.22-.38c-.01 0 .48-1.33 1.88-1.33h5.1s1.3.12.66 1.46H49.6l.12-.26c.2-.42-.2-.46-.2-.46h-3.96c-.78 0-1.14.59-1.24.8l-.12.17h7.63l-.35.79h-1.01l-2.23 4.63h-1.23l1.36-2.82Zm-13.64 5c-.94 1.88-2.55 5.37-3.42 7.2h-1.88l1.36-2.87h-2.24l-1.35 2.86h-1.88l3.42-7.2h1.88l-1.22 2.55h2.24l1.21-2.55h1.88Zm3 4.44.22-2.17-1.63 2.17h1.4Zm2.33-4.45-.74 7.2h-1.88l.12-1.16h-2.42l-.88 1.16h-1.88l5.43-7.2h2.25Zm5.3 0c-.67 1.38-1.71 3.6-2.56 5.41h3.13l-.85 1.8h-5.01l3.42-7.2h1.87Z" fill="#0089CF"/><path d="M10.68 28.7c.48 4.3 2 5.53 2.7 5.61l.25-1.67c.55-.39 0-1.12 0-1.56 0-.36 1.05-1.74 1.58-2.39h-.98c-.14-.36-.46-1.23-.6-1.82a4.44 4.44 0 0 1 0-1.62l-1.14-.5-.35-.91c.16-.19.56-.56.95-.56.39 0 .16.63 0 .94l1-.73c.12-.07.4-.17.63 0 .29.2.63.38-.29.35-.73-.02-.84.46-.8.7l.46.21-.29.68.63 2.88a17.2 17.2 0 0 1 1.78-.7c.32-.06.42-1.18-.31-1-.74.17-1.1-1.18-.55-.71.44.38 1.61.63 2.15.7l.31.68h.38l.8 1.83c.34 0 .31-.65.26-.98l1.57-1.11c.15.27.52.82.86.82.35 0 .35.84.32 1.27l-.15.61c-.11.42.7 1.1 1 1.36.26.2 1.16.38 1.58.44v-.44l-1-.27c-.2-.2-.57-.67-.57-.91s-.35-.63-.52-.8v-.61l.52.41c.91-.88 0-1.2 0-1.62 0-.33.84-.7 1.26-.85v-1c0-.44-.86-.97-.7-1.2.15-.2.73.27 1.01.52.72.03.72-.85.37-.7-.34.14-.83-.1-.68-.77.11-.54-.8-1.38-1.26-1.74.4-.37-.04-.98-.32-1.23a7.42 7.42 0 0 0-3.3.3l-2.4.55c-.18-.82-1.68-.34-2.4 0v.38l-1.35.48c-.41.14-1.09 1.03-1.38 1.47-1.33 1.13-1.7 3.37-1.72 4.35l.7.85Z" fill="url(#alfaex2lp)"/><path d="M15.2 20.3a5.84 5.84 0 0 1 2.99-.76c-.29.21-1.29.65-2.98.77Z" fill="url(#blfaex2lp)"/><path d="M14.43 32.78c0-.73.52-.87.78-.85.18.47-.08 1.41-.23 1.82-.18-.02-.55-.24-.55-.97Z" fill="url(#clfaex2lp)"/><path d="m23.43 33.4-.2 1.15 1.2-.53c.07.1.4.07 1.18-.8.77-.87 1.18-2.83 1.28-3.7-.28-.14-.89-.33-1.03 0-.13.33.23.84.43 1.06l-.25.94-.18-.44-2.43 2.32Z" fill="url(#dlfaex2lp)"/><path d="m23.43 29.9 1-1c.14.61.56.8.75.82l-.15.7-.77.16c-.85.11-.9-.4-.83-.68Z" fill="url(#elfaex2lp)"/><path d="M8.93 36.28c.57.98 3-.27 4.14-1.01l-.23-.37c-1.58 1.2-2.73 1.05-3.1.83-1.3-2.18 3.5-6.85 6.05-8.9l-.51-.44c-6.82 6.14-7.06 8.66-6.35 9.89Z" fill="url(#flfaex2lp)"/><path d="M14.28 24.89v-.63l1.3.1 1.3-.34 3.64-3.74L24.24 18c-1.96 2.64-6.17 6.56-8.04 8.2l-1.92-1.31Z" fill="#ED1C24"/><defs><linearGradient id="alfaex2lp" x1="18.44" y1="19.54" x2="18.44" y2="34.55" gradientUnits="userSpaceOnUse"><stop stop-color="#FEE340"/><stop offset=".42" stop-color="#FBB41E"/><stop offset="1" stop-color="#DD5A4C"/></linearGradient><linearGradient id="blfaex2lp" x1="18.44" y1="19.54" x2="18.44" y2="34.55" gradientUnits="userSpaceOnUse"><stop stop-color="#FEE340"/><stop offset=".42" stop-color="#FBB41E"/></linearGradient><linearGradient id="clfaex2lp" x1="18.44" y1="19.54" x2="18.44" y2="34.55" gradientUnits="userSpaceOnUse"><stop offset=".42" stop-color="#FBB41E"/><stop offset="1" stop-color="#DD5A4C"/></linearGradient><linearGradient id="dlfaex2lp" x1="18.44" y1="19.54" x2="18.44" y2="34.55" gradientUnits="userSpaceOnUse"><stop offset=".42" stop-color="#FBB41E"/><stop offset="1" stop-color="#DD5A4C"/></linearGradient><linearGradient id="elfaex2lp" x1="18.44" y1="19.54" x2="18.44" y2="34.55" gradientUnits="userSpaceOnUse"><stop offset=".42" stop-color="#FBB41E"/><stop offset="1" stop-color="#DD5A4C"/></linearGradient><linearGradient id="flfaex2lp" x1="15.22" y1="27" x2="8.67" y2="36.21" gradientUnits="userSpaceOnUse"><stop stop-color="#FDE2DC"/><stop offset=".39" stop-color="#FECD03"/><stop offset="1" stop-color="#ED1C24"/></linearGradient></defs></svg>