<svg width="56" height="56" viewBox="0 0 56 56" xmlns="http://www.w3.org/2000/svg"><path fill="#F0F3FA" d="M0 0h56v56H0z"/><path d="M49.68 26c1.45 0 2.32 1.14 2.32 2.53V32h-2v-3.22c0-.8-.29-1.26-1-1.26-.7 0-1 .46-1 1.26V32h-2v-6h2v.85c.38-.53.89-.85 1.68-.85ZM45 26l-3.32 9h-1.74l1.21-3.1L39 26h1.81l1.22 3.82L43.25 26H45ZM38.5 26l-1.58 6h-1.98l-.92-3.9-.96 3.9H31.1l-1.59-6h1.8l.82 4.29.98-4.29H35l1 4.27.81-4.27h1.69ZM22.5 28.92c0-1.59 1.02-3.06 2.71-3.06.73 0 1.37.3 1.79.91V24h2v8h-2v-.94c-.35.56-.9.94-1.79.94-1.7 0-2.71-1.49-2.71-3.08Zm4.5.01c0-.78-.41-1.48-1.23-1.48-.83 0-1.35.68-1.35 1.47 0 .79.51 1.49 1.35 1.49.82 0 1.23-.7 1.23-1.48ZM20 27.05A2.4 2.4 0 0 1 22 26v2h-.62c-.9 0-1.38.31-1.38 1.24V32h-2v-6h2v1.05ZM15.5 31.08c-.4.66-1.24.92-1.96.92-.38 0-.73-.07-1.04-.2-.31-.15-.55-.35-.73-.61a1.52 1.52 0 0 1-.27-.9c0-.53.22-.96.67-1.29a3.3 3.3 0 0 1 2-.5h1.33c-.03-.65-.32-1.04-.93-1.04-.28 0-.5.07-.69.2a.94.94 0 0 0-.35.54H11.6a2.65 2.65 0 0 1 1.57-1.9c.42-.2.9-.3 1.42-.3 1.48 0 2.9.87 2.9 2.48V32h-2v-.92Zm-1.3-.42c.66 0 1.3-.44 1.3-1.15v-.07h-1.12c-.32 0-.55.05-.7.17a.53.53 0 0 0-.23.45c0 .19.06.33.2.45.13.1.32.15.56.15ZM11 24v8H9v-3.5H6V32H4v-8h2v3h3v-3h2Z" fill="#FF2512"/><path fill="#070906" d="M46 34h6v1h-6z"/><path fill="#000908" d="M4 21h2v2H4zM9 21h2v2H9z"/></svg>