<svg width="56" height="56" viewBox="0 0 56 56" xmlns="http://www.w3.org/2000/svg"><path fill="#F0F3FA" d="M0 0h56v56H0z"/><path d="M9 20v13.3c0 1.5 1.1 2.7 2.45 2.7H14v-6h4v3.3c0 1.5 1.12 2.7 2.5 2.7H23V22.7c0-1.5-1.12-2.7-2.5-2.7H18v8.01c-.46-1.06-1.26-2.01-2.52-2.01H14v-3.3c0-1.5-1.2-2.7-2.55-2.7H9Z" fill="#008CD2"/><path d="M35.45 20.88c.37.2.55.61.55 1.05v1.47c0 .35-.24.6-.58.6h-3.06C30.41 24 29 25.95 29 28s1.41 3.61 3.36 3.61h3.33c.33 0 .6.29.6.65v2.83c-1.1.58-2.6.91-4.67.91-4.2 0-7.62-3.58-7.62-8s3.41-8 7.62-8c1.67 0 2.75.32 3.83.88Z" fill="#FDB825"/><path d="M48 21.93c0-.44-.18-.86-.55-1.05a7.88 7.88 0 0 0-3.89-.88c-4.2 0-7.56 3.58-7.56 8s3.35 8 7.56 8c2.06 0 4.32-.45 5.43-1.04H49v-6.29c0-1.2-.93-2.17-2.08-2.17H44.5c-.87 0-1.5.84-1.5 1.75S43.63 30 44.5 30h.5v1.61h-.7c-1.95 0-3.3-1.66-3.3-3.7 0-2.05 1.35-3.91 3.3-3.91h3.12c.34 0 .58-.27.58-.63v-1.44Z" fill="#EF5189"/><path d="M30.96 28.9a83 83 0 0 0-2.72 5.49 44.66 44.66 0 0 0 3.36-5.1c.02 2.02.1 4.15.26 6.18.3-2 .45-4.14.48-6.18a82.1 82.1 0 0 0 3.17 5.2 45.55 45.55 0 0 0-2.53-5.6c1.68 1 3.48 2 5.23 2.86a42.4 42.4 0 0 0-4.86-3.53 73.9 73.9 0 0 0 5.89-.28 40.52 40.52 0 0 0-5.93-.5 56.59 56.59 0 0 0 4.9-3.52 94.5 94.5 0 0 0-5.26 2.88 60.8 60.8 0 0 0 2.56-5.63c-.7 1.06-1.88 2.96-3.19 5.26a62.32 62.32 0 0 0-.46-6.23c-.1 1.29-.22 3.56-.25 6.23a59.61 59.61 0 0 0-3.37-5.15c.53 1.17 1.5 3.2 2.75 5.53a55.42 55.42 0 0 0-5.37-2.7c1.01.74 2.83 1.98 5.01 3.35-2.52.08-4.69.3-5.93.48 1.22.11 3.37.23 5.9.28a77.23 77.23 0 0 0-4.98 3.33c1.8-.72 3.63-1.66 5.34-2.65Z" fill="#F0F3FA"/></svg>