<svg width="56" height="56" viewBox="0 0 56 56" xmlns="http://www.w3.org/2000/svg"><path fill="#F0F3FA" d="M0 0h56v56H0z"/><path fill-rule="evenodd" d="M23 14H13v28h4v-2h-2l2-3.33V36h-2v-1h2v-2h2v2h2v1h-2v.67L21 40h-2v2h4V31h2.16L24 29.81l.5-.51.24-1.62-.49-.5L25.41 26l.78.8.65-.67L28 27.3l-1.16 1.19-.78-.8-.09.1-.21 1.45.55.56L25.16 31H33v11h10V14h-4v2h2l-2 3.33V20h2v1h-2v2h-2v-2h-2v-1h2v-.67L35 16h2v-2h-4v10H23V14Zm0 10-1 1 1 1 1-1-1-1Zm6.95 7c-.34-.52-1.45-.97-1.95-.97.62-.45.84-2.29.84-3.1a1.74 1.74 0 0 0 1.45-.93L32 27.87l-2.23 1.58.52.42c.4-.17 1.24-.52 1.37-.52v.52c-.46.28-1.43.9-1.7 1.13Zm.16-3.58-.53 1.13.96-.58-.43-.55ZM17.07 24l1.1 1.17-.75.79-.14.88 1.61.77.31-2.01-.4-.43L19.9 24l1.1 1.17-.72.75-.55 3.6.3.31-1.1 1.17-1.1-1.17.86-.9.08-.53-1.68-.3-.21 1.39.33.34L16.1 31 15 29.83l.83-.87.52-3.39-.39-.4 1.1-1.17Zm6.27 3.96-1.1-.96-1.1.96.46.4-.22 1.3-.48.42 1.1.96 1.1-.96-.53-.45.2-1.18.57-.5ZM39.96 24 41 25.17l-.68.75-.03.23h.6l-.21.84h-.51l-.37 2.52.29.32L39.04 31 38 29.83l.82-.9.28-1.94h-.67l.21-.84h.58l.08-.55-.39-.43L39.96 24Zm-4.45 5.87c.44-.17 1.35-.52 1.49-.52v.52c-.5.28-1.57.9-1.86 1.13-.38-.52-1.6-.97-2.14-.97.68-.45.92-2.29.92-3.1.89-.02 1.43-.63 1.59-.93l.34.4c.36.43.62.75 1.15.92l-.37.74-1.3-.25s-.06.53-.2.84c-.13.3-.47.7-.47.7l.85.52Z" fill="#0093DD"/></svg>