<svg width="56" height="56" viewBox="0 0 56 56" xmlns="http://www.w3.org/2000/svg"><path fill="#F38321" d="M0 0h56v56H0z"/><path d="M49 24h2v8h-2v-3h-3v-2h3v-3Zm-38 0h2v8h-2v-8Zm34 0h-2v8h2v-8ZM5 24h2v3h3v2H7v3H5v-8Zm15 0h6v2h-2v6h-2v-6h-2v-2Zm-4 0h-2v2h2v-2Zm0 2.5h-2V32h2v-5.5Zm4 .5h-3v2h3v-2Zm10.14 5c1.66 0 3.08-.93 3.75-2.28l-2-1.07a2 2 0 0 1-3.83-.15h-2.03a4.1 4.1 0 0 0 4.11 3.5Zm3.73-5.71h.02A4.16 4.16 0 0 0 30.14 24a4.1 4.1 0 0 0-4.1 3.5h2.02a2 2 0 0 1 3.3-.97L28.75 28l.84 1.41 4.4-2.36a1.4 1.4 0 0 0-.12-.76ZM38.7 32c1.68 0 3.14-.94 3.81-2.29l-2.1-1.07a2 2 0 0 1-3.84-.14h-2.05a4.15 4.15 0 0 0 4.18 3.5Zm1.67-4.72 2.08-1.1A4.25 4.25 0 0 0 38.7 24a4.15 4.15 0 0 0-4.18 3.5h2.05a2 2 0 0 1 3.8-.22Z" fill="#FFFEF9"/></svg>