<svg width="56" height="56" viewBox="0 0 56 56" xmlns="http://www.w3.org/2000/svg"><path fill="#F0F3FA" d="M0 0h56v56H0z"/><path fill-rule="evenodd" d="M27.44 17.43c.07.04.07.08 0 .12a4.7 4.7 0 0 1-2.55.7c-.03 0-.04.02-.03.05l.03.06a5.16 5.16 0 0 0 3-.64.21.21 0 0 1 .21 0c.85.43 1.75.66 2.69.68.03 0 .04-.02.03-.05l-.03-.06c0-.01 0-.02-.02-.02-.81-.09-1.6-.34-2.35-.75-.07-.04-.08-.1-.02-.16l.27-.29c.35-.35.58-.63.7-.83.39-.7.5-1.46.34-2.3-.18-.9-.6-1.51-1.3-1.82a1.38 1.38 0 0 0-1.3.1c-.4.22-.72.56-.94 1.01-.85 1.7-.43 3.1 1.27 4.2Zm-1.1-1.8a3 3 0 0 0 1.4 1.54c.13.07.24.06.34-.04a3.45 3.45 0 0 0 1.14-1.7c.18-.9.05-1.66-.38-2.29-.5-.72-1.08-.82-1.73-.3-.36.28-.61.7-.77 1.28a2.5 2.5 0 0 0 0 1.5Z" fill="#7095C1"/><path d="M23.39 14.11c-.17-.16-.24-.12-.2.12.06.48.1.9.12 1.23.04.58.26 1.1.66 1.57.19.22.15.3-.13.2-1.31-.4-1.91-1.35-1.8-2.82.04-.36.05-.75.04-1.2 0-.08.04-.13.12-.13 1.1-.04 1.93.31 2.51 1.05.6.77.68 1.68.23 2.73a.14.14 0 0 1-.12.1c-.05 0-.1-.01-.14-.06a2.6 2.6 0 0 1-.6-1.3 2.54 2.54 0 0 0-.7-1.49ZM32.42 14.23c.02-.23-.05-.26-.21-.11-.33.32-.55.73-.64 1.2-.09.48-.15.75-.18.83-.1.27-.25.52-.42.75a.17.17 0 0 1-.17.07.17.17 0 0 1-.14-.12c-.5-1.43-.23-2.52.8-3.29.42-.3 1.07-.46 1.95-.48.08 0 .12.04.12.13 0 .17 0 .43.02.79.04.92-.04 1.58-.22 1.98-.27.59-.76 1-1.46 1.23-.35.1-.41.01-.2-.28a2.38 2.38 0 0 0 .6-1.25l.15-1.45ZM18.28 16.14c-.1-.32-.19-.32-.3 0a9.8 9.8 0 0 1-.5 1.2c-.16.33-.19.77-.09 1.33.08.44-.03.5-.32.19-.4-.42-.61-1.01-.66-1.78-.02-.35.12-.76.43-1.24.17-.28.4-.66.65-1.17.09-.16.2-.19.36-.09.86.6 1.36 1.2 1.5 1.83.26 1.08-.06 2-.95 2.78a.17.17 0 0 1-.18.04.17.17 0 0 1-.12-.15c-.1-.46-.07-.94.08-1.42.1-.36.17-.62.18-.79.03-.22 0-.47-.08-.73ZM37.42 15.96c-.2.24-.26.55-.17.93.19.77.3 1.3.35 1.58.06.35 0 .59-.2.73-.06.05-.13.05-.2 0-.81-.73-1.16-1.54-1.02-2.44.12-.88.65-1.6 1.57-2.14.2-.12.34-.07.43.15l.38.7c.34.59.54 1.03.59 1.32a2.6 2.6 0 0 1-.71 2.21c-.06.07-.13.08-.2.03a.28.28 0 0 1-.06-.06.14.14 0 0 1-.03-.12 7.22 7.22 0 0 0 .12-.85c0-.23-.06-.47-.19-.72-.23-.5-.4-.92-.5-1.28-.03-.1-.09-.12-.16-.04Z" fill="#74C299"/><path d="M35.12 16.54c.43 0 .8-.37.8-.82a.81.81 0 0 0-.8-.83c-.45 0-.8.37-.8.83 0 .45.35.82.8.82Z" fill="#58C0D8"/><path d="M20.77 16.75c.44 0 .8-.37.8-.82a.81.81 0 0 0-.8-.83c-.44 0-.8.37-.8.83 0 .45.36.82.8.82Z" fill="#8A589B"/><path d="M20.8 18.98c.17.19.45.23.85.13l.54-.18a3.25 3.25 0 0 1 1.53-.27.2.2 0 0 1 .17.14c.03.07.02.15-.03.21-.43.62-.95 1-1.56 1.1-.64.13-1.18.08-1.6-.16-.48-.26-.9-.67-1.3-1.23-.09-.14-.06-.25.07-.34.44-.29.78-.53 1.02-.72.4-.32.77-.5 1.09-.54.82-.09 1.47.1 1.95.55.3.3.25.4-.15.32-.54-.11-1.01-.03-1.42.24-.3.2-.68.38-1.12.54-.12.04-.13.11-.05.2ZM34.82 18.85c-.2-.1-.68-.34-1.43-.74a1.8 1.8 0 0 0-.96-.14l-.21.01c-.37 0-.42-.1-.14-.33.79-.62 1.6-.74 2.43-.37.18.08.46.26.83.54.32.23.55.4.71.48.18.1.21.23.11.4a2.75 2.75 0 0 1-1.83 1.43 2.48 2.48 0 0 1-2.2-.62 1.4 1.4 0 0 1-.45-.7c-.03-.09 0-.14.1-.14.54-.03.87-.01.98.04.95.44 1.64.54 2.07.29.1-.06.1-.1-.01-.15ZM14.39 19.5c.18.3.42.48.7.52.75.11 1.4.3 1.99.56.09.05.13.12.14.22 0 .1-.05.18-.14.22-1 .46-1.87.43-2.62-.1-.74-.52-1.12-1.34-1.13-2.45 0-.1.05-.16.15-.17.32-.02.64-.05.98-.1.44-.07.76-.09.98-.06.93.1 1.59.66 1.99 1.66.1.26.04.32-.2.16a2.92 2.92 0 0 0-1.4-.57 38 38 0 0 0-1.36-.03c-.11 0-.14.04-.08.14ZM41.1 19.33c-.36.05-.73.07-1.1.06a2.43 2.43 0 0 0-1.54.53c-.3.22-.38.15-.24-.2.3-.77.8-1.28 1.51-1.52.27-.1.68-.1 1.21-.03.33.05.74.09 1.22.11.12.01.18.08.17.2-.1 1.15-.5 1.97-1.2 2.46-.75.52-1.64.53-2.67.05a.18.18 0 0 1-.11-.16c0-.08.02-.14.08-.18.28-.19.5-.3.64-.32L40.5 20c.3-.07.54-.23.73-.47.13-.17.09-.25-.13-.21Z" fill="#74C299"/><path d="M10.12 31.93c.62.38 1.29.56 1.99.55.32 0 .85-.14 1.57-.4l.55-.2c.98-.32 2-.27 3.04.15.4.17.87.19 1.4.06.42-.1 1.07-.32 1.94-.63.17-.06.58-.03 1.24.07.28.05.72.18 1.33.4.62.22 1.04.34 1.28.36.93.09 1.56-.21 1.89-.89.35-.72.47-1.48.37-2.25a11.03 11.03 0 0 0-.68-2.3 3.62 3.62 0 0 1-.03-2.7c.21-.53.33-.9.36-1.14.1-.9.02-1.8-.23-2.7-.1-.34-.3-.44-.61-.3-.9.41-1.48.66-1.72.74a6.15 6.15 0 0 1-5.55-.7c-.06-.04-.06-.08-.01-.13l.06-.05a.04.04 0 0 1 .04 0c1.94.95 3.85.99 5.75.1l.8-.37c.4-.19.68-.29.82-.3.59-.02.95.35 1.09 1.11a6.65 6.65 0 0 1-.56 4.08c-.3.63-.32 1.27-.07 1.92.42 1.08.69 1.85.81 2.3.21.75.22 1.5.04 2.27-.21.88-.64 1.47-1.28 1.76-.45.21-.98.27-1.6.18-.36-.05-.92-.2-1.7-.47L22 32.3a2.4 2.4 0 0 0-1.52.04l-.5.17c-.63.21-1.08.34-1.38.38-.45.05-.95 0-1.48-.16a9.2 9.2 0 0 0-1.95-.48c-.31.01-.96.18-1.95.5-1.07.35-2.12.12-3.15-.67v-.07l.01-.08c0-.01.02-.02.04 0ZM30.14 19.94c-.21-.06-.34.02-.38.24a7.98 7.98 0 0 0-.24 2.82c.02.1.13.44.35.98.15.4.24.8.27 1.22a4.14 4.14 0 0 1-.33 1.8c-.38 1.05-.6 1.83-.65 2.33-.08.83.1 1.6.56 2.32.32.5.83.7 1.53.65.4-.04 1.03-.22 1.88-.54l.12-.04c.25-.1.63-.18 1.14-.24a3 3 0 0 1 1.08.06 10.39 10.39 0 0 1 1.49.52c.47.18 1.23.11 2.3-.2l.58-.15c.58-.12 1.2-.07 1.85.17l.44.16a5 5 0 0 0 1.88.45 4.09 4.09 0 0 0 1.72-.5l.05.03c.03.01.03.03 0 .05-.94.76-1.97.98-3.07.67-.94-.26-1.63-.42-2.06-.46-.26-.03-.72.07-1.37.3-.78.26-1.36.38-1.75.35a4.2 4.2 0 0 1-.97-.22l-1.45-.46a2.18 2.18 0 0 0-1.17.08l-2.1.55c-1.3.3-2.2-.1-2.72-1.2a4.05 4.05 0 0 1-.36-1.6 5.1 5.1 0 0 1 .2-1.65c.05-.16.3-.84.77-2.05.15-.39.18-.8.1-1.27a8.7 8.7 0 0 0-.42-1.17 6.23 6.23 0 0 1-.33-3.46c.08-.46.22-.78.4-.96.3-.27.7-.29 1.2-.05l1.49.66c1.81.75 3.6.65 5.38-.3.03-.01.06-.01.09.02l.04.05c.05.06.04.1-.02.15a6.41 6.41 0 0 1-6.53.31c-.47-.22-.8-.36-1-.42Z" fill="#7095C1"/><path d="M12.54 21.83c.44 0 .8-.37.8-.83a.82.82 0 0 0-.8-.83c-.45 0-.8.37-.8.83 0 .46.35.83.8.83Z" fill="#D59E57"/><path d="M43.06 21.82c.44 0 .8-.36.8-.82a.81.81 0 0 0-.8-.82c-.44 0-.8.37-.8.82 0 .46.36.82.8.82Z" fill="#4A311D"/><path d="M37.7 22.38c-.33.2-.55.42-.66.7-.25.66-.43 1.1-.52 1.3-.11.27-.26.48-.45.63a.21.21 0 0 1-.23.03.23.23 0 0 1-.14-.19c-.3-2.27.7-3.38 3-3.34.26 0 .37.14.32.41-.07.36-.11.73-.13 1.1-.02.5-.1.86-.21 1.08-.4.74-.92 1.17-1.54 1.3-.67.13-.73 0-.17-.4.04-.03.15-.19.33-.5.1-.15.16-.33.2-.54l.32-1.48c0-.04 0-.07-.04-.1a.08.08 0 0 0-.09 0ZM17.73 22.56c.12.36.23.82.31 1.36.07.43.3.83.7 1.2.28.26.23.35-.13.26-1.17-.3-1.79-1.08-1.85-2.37a7.97 7.97 0 0 0-.11-1.12c-.04-.19.03-.3.22-.32 1-.12 1.8.14 2.43.78.65.68.82 1.52.51 2.54a.15.15 0 0 1-.1.1c-.07.02-.11 0-.15-.04a2.67 2.67 0 0 1-.62-1.04 5.2 5.2 0 0 0-.36-.96c-.18-.3-.4-.5-.68-.58a.13.13 0 0 0-.14.04.14.14 0 0 0-.03.15ZM23 23c.29.37.6.58.93.65a3.5 3.5 0 0 1 1.66.71.2.2 0 0 1 .06.2.2.2 0 0 1-.13.17c-1.02.4-1.89.27-2.6-.38-.7-.63-.98-1.49-.88-2.6.01-.08.06-.12.14-.11.46.02.87.03 1.25.01 1.35-.05 2.19.55 2.52 1.8.08.32 0 .37-.25.18a2.51 2.51 0 0 0-1.2-.64c-.54-.08-1.01-.13-1.42-.16-.14 0-.17.05-.08.16ZM32.73 22.82l-1.45.19c-.36.05-.73.24-1.1.57-.3.27-.4.2-.3-.2.15-.6.47-1.05.95-1.35.45-.28.99-.41 1.62-.38.35.02.74.02 1.17-.01.1 0 .15.05.16.15a3.6 3.6 0 0 1-.53 2.15c-.42.6-1.04.94-1.88.99-.43.03-.83-.06-1.2-.28-.1-.06-.11-.14-.02-.22.46-.4 1.04-.66 1.73-.75.31-.04.62-.29.93-.73.06-.08.03-.12-.08-.13ZM12.72 23.31c-.05 0-.08.04-.09.08a.1.1 0 0 0 .04.12c.35.27.75.64 1.23 1.1.14.15.44.26.87.32l.15.02c.48.07.5.2.06.4-.67.32-1.36.3-2.08-.03-.28-.13-.56-.4-.85-.8a5.33 5.33 0 0 0-.82-.93c-.08-.07-.09-.15-.01-.23.75-.82 1.59-1.15 2.5-.98.93.16 1.6.77 2.02 1.82.02.06.01.12-.03.17a.15.15 0 0 1-.15.07c-.28-.04-.55-.11-.78-.23-.06-.03-.44-.25-1.13-.68-.33-.2-.64-.27-.93-.22ZM42.87 23.57c.2-.16.17-.25-.08-.27a1.6 1.6 0 0 0-.66.12c-.1.03-.5.27-1.2.71a1.9 1.9 0 0 1-.87.3.16.16 0 0 1-.15-.07.17.17 0 0 1-.03-.17c.24-.68.63-1.18 1.16-1.51a2.18 2.18 0 0 1 1.83-.25c.63.17 1.13.5 1.5.98.06.06.06.13 0 .19-.3.28-.57.6-.82.92-.32.42-.61.7-.87.81-.71.32-1.42.31-2.13-.02-.32-.15-.31-.26.04-.32h.02c.57-.1.98-.26 1.21-.48.37-.36.72-.67 1.05-.94Z" fill="#74C299"/><path d="M33.59 24.61c.39.4.82.7 1.28.94a12.5 12.5 0 0 0 1.57.6c.42.15.4.26-.03.32a2 2 0 0 1-1.4-.34 6.62 6.62 0 0 1-1.49-1.31v-.03l.01-.15c0-.05.02-.06.06-.03ZM22.13 24.8c-.37.51-.8.93-1.28 1.24-.58.4-1.12.54-1.62.44-.29-.06-.3-.16-.03-.29l1.36-.52c.25-.1.76-.4 1.53-.91.1-.07.1-.05.04.04Z" fill="#7095C1"/><path d="M15.9 27.55c-.1.22-.03.3.18.26.5-.13 1-.35 1.47-.66a1.9 1.9 0 0 1 1.25-.38c.06 0 .1.03.13.08.04.05.04.1.01.16-.47 1.03-1.15 1.58-2.06 1.68-.87.08-1.68-.28-2.41-1.1-.08-.1-.08-.18 0-.26.33-.32.6-.6.82-.84.95-1.07 2.02-1.27 3.2-.62.06.04.08.09.07.16l-.04.07a.16.16 0 0 1-.13.07c-.62 0-1.05.1-1.27.32-.43.4-.8.72-1.14.94a.21.21 0 0 0-.09.12ZM39.7 27.43a2.25 2.25 0 0 1-.68-.45 2.18 2.18 0 0 0-1.68-.85c-.4 0-.43-.11-.08-.31a2.33 2.33 0 0 1 2.12-.13c.27.11.58.37.92.77.27.32.56.61.86.88.09.08.1.15.02.24-.7.77-1.47 1.14-2.32 1.12a2.2 2.2 0 0 1-1.34-.52c-.4-.32-.68-.72-.84-1.2a.19.19 0 0 1 .04-.19c.04-.05.1-.08.16-.07.25.03.49.09.73.17.1.05.32.18.64.4.31.2.66.35 1.03.43.17.03.31.01.43-.06a.12.12 0 0 0 .07-.12.12.12 0 0 0-.08-.1ZM11.27 28.69c-.08.16-.03.21.13.16.46-.15.9-.23 1.31-.24.3-.01.55-.08.75-.2a3.86 3.86 0 0 0 .62-.52c.26-.25.34-.2.23.16a2.71 2.71 0 0 1-1.06 1.56 2.4 2.4 0 0 1-1.34.34l-1.42.02c-.12 0-.18-.06-.18-.18-.01-.4.04-.82.16-1.25.14-.5.33-.88.59-1.13.77-.75 1.7-.94 2.8-.57A.2.2 0 0 1 14 27a.2.2 0 0 1-.04.19c-.15.2-.36.34-.63.43l-.5.16c-.46.15-.78.26-.96.36-.3.15-.5.33-.6.56ZM21.24 29.95a.1.1 0 0 0 .1.05.1.1 0 0 0 .08-.08c.13-.49.26-.92.4-1.3.16-.45.16-.99-.01-1.6-.05-.17.02-.24.2-.19.02 0 .04.02.05.03.46.43.73.94.83 1.52.1.59-.01 1.16-.32 1.7-.18.34-.33.68-.46 1.02-.05.17-.16.22-.32.16-.99-.38-1.59-1.03-1.8-1.94-.22-.93.04-1.78.8-2.55a.19.19 0 0 1 .2-.05.2.2 0 0 1 .15.16 4.1 4.1 0 0 1-.06 1.8c-.13.5-.07.91.16 1.27ZM34.4 29.85c.21-.35.26-.75.13-1.2a3.44 3.44 0 0 1-.04-1.8.18.18 0 0 1 .13-.13c.07-.02.12 0 .18.04a2.6 2.6 0 0 1 .82 2.5c-.19.91-.76 1.57-1.7 1.97-.23.1-.38.03-.47-.2a7.37 7.37 0 0 0-.43-.96 2.6 2.6 0 0 1-.32-1.66c.09-.59.34-1.07.78-1.44.35-.3.44-.24.29.2-.18.51-.18.97-.01 1.37.16.38.28.8.37 1.26.04.25.13.27.27.05ZM44.32 28.68a1.1 1.1 0 0 0-.67-.6 6.75 6.75 0 0 1-1.94-.77.24.24 0 0 1-.1-.24c0-.1.06-.18.15-.21.7-.26 1.36-.26 1.99 0 .65.28 1.1.76 1.32 1.46.17.5.23 1.01.2 1.54 0 .08-.05.12-.13.12h-.65c-.9.02-1.5-.05-1.82-.2a2.35 2.35 0 0 1-1.36-1.83c-.04-.22.02-.25.18-.1.44.43.79.67 1.05.71.61.1 1.18.19 1.7.24.03 0 .06 0 .08-.04a.08.08 0 0 0 0-.08Z" fill="#74C299"/><path d="M16.92 30.85c.44 0 .8-.37.8-.82a.81.81 0 0 0-.8-.82c-.44 0-.8.37-.8.82 0 .45.36.82.8.82Z" fill="#0F496F"/><path d="M38.69 30.86c.44 0 .8-.37.8-.82a.81.81 0 0 0-.8-.83c-.45 0-.8.37-.8.83 0 .45.35.82.8.82Z" fill="#58C0D8"/><path fill-rule="evenodd" d="m41.75 39.15-.76 1.6a.43.43 0 0 1-.27.24h-.11c-.14-.03-.18-.1-.12-.24l2.43-5.32c.07-.15.15-.27.22-.37a.15.15 0 0 1 .15-.06c.06 0 .1.04.12.1l2.56 5.66c.07.16.02.24-.15.24h-.47a.4.4 0 0 1-.4-.26l-.68-1.53c-.06-.11-.14-.21-.27-.21h-2.08c-.08 0-.14.08-.17.15Zm.28-.65.87-1.87a.1.1 0 0 1 .1-.06.1.1 0 0 1 .08.06l.87 1.87c.04.1.01.15-.1.15h-1.73c-.1 0-.13-.05-.09-.15ZM23 37.97a2.7 2.7 0 0 1-1 2.13c-.68.6-1.5.9-2.47.9-.97 0-1.8-.28-2.48-.86A2.7 2.7 0 0 1 17 35.9c.68-.6 1.5-.9 2.47-.9.97 0 1.8.28 2.48.86A2.7 2.7 0 0 1 23 37.97Zm-6 .04c0 1.5 1.13 2.7 2.51 2.7s2.5-1.22 2.49-2.72c0-1.5-1.13-2.7-2.51-2.7S16.99 36.5 17 38Zm19.82-1.54c-.08-.22-.04-.43.13-.64.34-.42.82-.53 1.41-.33.41.15.72.44.93.9.04.08.1.12.18.14.18.02.26-.1.26-.38 0-.04 0-.07-.02-.11a1.43 1.43 0 0 0-.69-.77 2.3 2.3 0 0 0-1.08-.28c-.41 0-.77.07-1.1.23-.35.18-.58.42-.7.74-.2.5-.16.94.11 1.3.2.27.56.56 1.1.88l.3.15c.55.28.94.53 1.15.73.38.35.45.72.23 1.1a.8.8 0 0 1-.45.34c-.92.3-1.62-.02-2.1-.95-.04-.1-.11-.12-.2-.07l-.18.08c-.08.03-.11.1-.1.18.07.36.24.63.52.81.87.58 1.76.63 2.66.16.36-.19.6-.46.74-.8.13-.38.1-.74-.08-1.1a1.7 1.7 0 0 0-.68-.73c-.97-.53-1.6-.9-1.9-1.08-.22-.15-.36-.31-.44-.5ZM13.8 37.8a60.92 60.92 0 0 1-2.6 0c-.12 0-.2-.06-.2-.17v-2.4c0-.1-.03-.16-.12-.18a1.73 1.73 0 0 0-.78.01c-.05.02-.1.1-.1.24v5.43c0 .14.05.22.1.23.24.06.5.07.79.01.09-.02.11-.08.11-.17v-2.4c0-.12.08-.18.2-.18a60.92 60.92 0 0 1 2.6 0c.12 0 .2.06.2.17v2.4c0 .1.03.16.12.18.28.05.54.05.79-.01.04-.02.07-.1.08-.24V38l.01-2.72c0-.14-.05-.22-.1-.23-.24-.06-.5-.07-.79-.01-.09.02-.11.08-.11.17v2.4c0 .12-.08.18-.2.18Zm10.67-1.23v4.12c0 .11-.06.17-.18.17h-.1c-.12 0-.19-.06-.19-.2v-5.42c0-.18.09-.25.27-.22.22.03.45.18.68.44a90.65 90.65 0 0 0 3.3 3.55c.16.17.25.13.25-.1V35.2c0-.06.03-.11.08-.15.07-.05.2-.05.3 0 .06.03.12.1.12.15v5.3c0 .57-.18.64-.57.21l-3.8-4.22c-.1-.12-.16-.1-.16.06Zm6.78 2.68c.07-.15.19-.24.35-.24h1.97c.13 0 .21.07.27.19l.66 1.51c.09.2.24.3.45.3h.34c.23 0 .3-.11.2-.33l-2.51-5.55c-.06-.14-.14-.16-.25-.06a.81.81 0 0 0-.18.26c-.83 1.82-1.68 3.63-2.53 5.44a.16.16 0 0 0 0 .16c.04.05.08.08.14.08h.07c.16 0 .27-.08.33-.2l.7-1.56Zm1.22-2.56-.85 1.82c-.05.1-.01.16.1.16h1.68c.12 0 .15-.05.1-.16l-.83-1.82a.1.1 0 0 0-.1-.07.1.1 0 0 0-.1.07Z" fill="#74C299"/></svg>