<svg width="56" height="56" viewBox="0 0 56 56" xmlns="http://www.w3.org/2000/svg"><path fill="#F0F3FA" d="M0 0h56v56H0z"/><path d="m30.77 22.97-.77-1.8c1.12-.38 4.31-1.17 8.13-1.17C42.9 20 46 23.07 46 25.17c0 2.09-3.4 5.61-6.9 7.76 2.24-1.39 5.3-4.72 5.3-6.87 0-2.19-2.57-4.06-6.27-4.06-2.96 0-6.14.65-7.36.97ZM25.23 33.03l.77 1.8c-1.12.38-4.31 1.17-8.13 1.17C13.1 36 10 32.93 10 30.83c0-2.09 3.4-5.61 6.9-7.76-2.24 1.39-5.3 4.72-5.3 6.87 0 2.19 2.57 4.06 6.27 4.06 2.96 0 6.14-.65 7.36-.97Z" fill="#F41729"/><path d="m27 18.43.82 1.76C29.52 19.8 33.7 19 36.9 19c3.99 0 6.33.6 8.11 2-.82-2.75-3.73-4-8.11-4-3.5 0-8.05.95-9.89 1.43ZM29 37.57l-.82-1.76C26.48 36.2 22.3 37 19.1 37c-3.99 0-6.33-.6-8.11-2 .82 2.75 3.73 4 8.11 4 3.5 0 8.05-.95 9.89-1.43Z" fill="#F41729"/><path d="m25 15.82.84 1.9c1.73-.42 7.1-1.72 10.37-1.72 4.07 0 5.97.5 7.79 2-.84-2.97-4.43-4-8.9-4-3.58 0-8.23 1.3-10.1 1.82ZM31 40.18l-.84-1.9c-1.73.42-7.1 1.72-10.37 1.72-4.07 0-5.97-.5-7.79-2 .84 2.97 4.43 4 8.9 4 3.58 0 8.23-1.3 10.1-1.82ZM23 21h-2v10h2v-4a1 1 0 0 1 2 0v4h2v-4.21A2.79 2.79 0 0 0 24.21 24c-.45 0-.86.13-1.21.36V21ZM31.5 31a3.5 3.5 0 1 0-3.5-3.5V34h2v-6.5a1.5 1.5 0 1 1 1 1.41v2.05c.16.03.33.04.5.04Z" fill="#F41729"/></svg>