<svg width="56" height="56" viewBox="0 0 56 56" xmlns="http://www.w3.org/2000/svg"><path fill="#F0F3FA" d="M0 0h56v56H0z"/><path fill-rule="evenodd" d="m4 31 1.26-7h1.21l-.56 3h2.36l.54-3h1.21L8.7 31H7.55l.54-3H5.72l-.57 3H4Zm6.76-5-.9 5H11l.94-5h-1.2Zm.17-1h1.2l.2-1H11.1l-.18 1Zm2.16 1-.91 5h1.15l.58-3.05c.35-.49.8-1.04 1.24-1.04.44 0 .48.55.45.82L14.96 31h1.14l.58-2.9c.16-.94.11-2.1-1-2.1-.6 0-1.16.38-1.54.75l.14-.75h-1.2Zm7.11 4.47-.1.53h1.16l1.32-7h-1.21l-.51 2.83c-.27-.44-.7-.83-1.33-.83-1.3 0-2.1 1.73-2.1 3.24 0 1.5.95 1.89 1.53 1.89.43 0 .87-.17 1.24-.66Zm.2-1.13.24-1.3c-.1-.49-.36-1.07-.94-1.07-.94 0-1.2 1.7-1.2 1.92v.02c0 .25 0 1.33.84 1.33.48 0 .84-.46 1.07-.9ZM23.58 24l-1.2 7h.74l.53-3h1.7c1.06 0 2.37-.56 2.37-2.22 0-1.33-.83-1.74-1.25-1.78h-2.9Zm.18 3.23.46-2.5h1.99c.25.04.76.3.76 1.04 0 1.18-.84 1.4-1.27 1.46h-1.94ZM28.7 26l-.98 5h.71l.55-2.97c.2-.3.5-.72.76-1.03.36-.42.77-.18.93 0l.32-.74c-.05-.08-.22-.26-.53-.26-.52 0-1.04.67-1.3 1.11l.2-1.11h-.66Zm3.07 1.54-.72-.15c.15-.46.75-1.39 1.89-1.39 1.41 0 1.67.84 1.67 1.34a16.67 16.67 0 0 1-.48 2.57c-.11.5.05.94.14 1.09h-.84v-.72c-.19.24-.75.72-1.55.72-.95 0-1.22-.9-1.23-1.34 0-1.4 1.25-1.5 2.26-1.57h.03c.97-.07.96-.37.96-.59v-.06c0-.24.02-.77-.92-.77-.8 0-1.14.58-1.21.87Zm.34 2.84c1.16 0 1.54-1.3 1.59-1.94l-.9.16-.23.04c-.56.1-1.28.22-1.28.93 0 .65.54.81.82.81Zm7.59-2.99.72.15c.08-.3.42-.87 1.21-.87.94 0 .93.53.93.77v.06c0 .22 0 .52-.97.6h-.02c-1.01.06-2.27.15-2.27 1.56.02.45.29 1.34 1.23 1.34.8 0 1.37-.48 1.55-.72V31h.84a1.6 1.6 0 0 1-.14-1.09l.07-.29c.16-.7.42-1.85.42-2.28 0-.5-.26-1.34-1.68-1.34-1.13 0-1.73.93-1.89 1.39Zm2.65 1.05c-.04.63-.42 1.94-1.59 1.94-.27 0-.82-.16-.82-.8 0-.72.72-.84 1.29-.94l.22-.04.9-.16ZM36.3 24h.77l-.8 4.6 2.18-2.6h.88l-1.74 1.88L38.65 31h-.72l-.82-2.6-1 1.08-.27 1.52h-.76l1.22-7Zm11.4 3.49-.76.08a.96.96 0 0 0-.9-.98c-.32 0-.87.15-.87.64 0 .45.52.69 1.23 1.01l.17.08c.63.29.79.89.78 1.15 0 .51-.36 1.53-1.74 1.53-1.37 0-1.74-1.14-1.74-1.72h.71c.1.8.63 1.13 1.03 1.13s1.1-.12 1.1-.67c0-.54-.8-.93-1.5-1.25a1.22 1.22 0 0 1-.74-1c0-.5.29-1.49 1.58-1.49 1.28 0 1.63 1 1.65 1.49ZM49.98 24h-.77L48 31h.76l.51-2.9c.36-1 .9-1.44 1.49-1.44.48 0 .57.51.56.77L50.6 31h.72l.64-3.24c.11-.63.13-1.76-1-1.76-.7 0-1.22.57-1.5 1.06l.53-3.06Z" fill="#231F20"/><path d="M29.77 25.5H29c.8-1.83 3.7-5.5 8.87-5.5A10.4 10.4 0 0 1 47 25.5h-.92c-1.27-1.95-4.05-4.74-8.2-4.74-4.17 0-7.14 3.16-8.1 4.74Z" fill="#ED1B24"/><path fill="#231F20" d="M4 31.7h48v.3H4z"/></svg>