<svg width="56" height="56" viewBox="0 0 56 56" xmlns="http://www.w3.org/2000/svg"><path fill="#F0F3FA" d="M0 0h56v56H0z"/><path d="M31 21v1h.5c.8 0 1.5.67 1.5 1v8c0 .8-1.17 1-1.5 1H31v2h7V21h-7ZM39 22v-1h5c1.5 0 2.5.9 2.5 2.5S44.83 26.67 44 27c1 0 3 .7 3 3.5S45 34 44 34h-5v-2h1c.67 0 2-.4 2-2s-1.33-2-2-2h-1v-2h1c.5 0 1.5-.4 1.5-2s-1-2-1.5-2h-1ZM7 22v-1h9v1c-1.2 0-2 1.33-2 2v7c0 .8 1.5 1 2 1v2H7v-2h1c.8 0 1-.67 1-1v-7c0-1.2-1.33-1.83-2-2ZM17 22v-1h7v10c0 .8 1.5 1 2 1v2h-9v-2h1c.8 0 1-.67 1-1v-7.5c0-.8-1-1.5-2-1.5ZM25 22v-1h5v5h-1.5v-2.5c0-1.2-1-1.5-1.5-1.5h-2Z" fill="#787A7C"/><path d="M25 26v1c.8 0 1 .67 1 1v1h1v-5h-1v1c0 .4-.5 1-1 1Z" fill="#787A7C"/></svg>