<svg width="56" height="56" xmlns="http://www.w3.org/2000/svg"><path fill="#097A43" d="M0 0h56v56H0z"/><path fill-rule="evenodd" d="M21.433 27.517C30.984 20.73 41.665 15.1 45.293 14.94c3.626-.16-1.176 5.21-10.726 11.996-9.55 6.787-20.231 12.418-23.86 12.579-3.626.16 1.176-5.211 10.726-11.997zm-.531.023c10.323-7.336 21.87-13.422 25.79-13.596 3.92-.173-1.27 5.632-11.593 12.968-10.324 7.336-21.87 13.423-25.791 13.596-3.92.174 1.27-5.632 11.594-12.968z" fill="#C5C5C5"/><path d="M27.5 18c5.247 0 9.5 4.477 9.5 10s-4.253 10-9.5 10S18 33.523 18 28s4.253-10 9.5-10zm.333-8.003l.968 7.515h-.075a10.35 10.35 0 00-1.948-.022l-.109-.002 1.164-7.491zM28.131 46l.633-7.715h-.037a10.329 10.329 0 01-1.993.02L28.13 46zm12.591-13.283l-3.218-2.425c-.142.628-.34 1.233-.588 1.811l3.806.614zm-25.968.959l3.23-2.569c.206.66.473 1.29.796 1.884l-4.027.685z" fill="#FFD525"/><path d="M22.46 41.297l2.482-3.324a9.87 9.87 0 01-1.805-.708l-.676 4.032zm10.731-.201l-2.43-3.256a9.952 9.952 0 001.753-.782l.677 4.038zM19.46 36.072l.666-1.153c.145.165.295.324.45.479l-1.116.674zm16.33.308l-.767-1.329c-.123.134-.248.265-.377.392l-.136.163 1.28.775zM9.804 27.903l7.773-1.33c-.05.408-.077.824-.08 1.246v.023l-.001.056V28c0 .284.011.566.033.845l-7.725-.943zm22.69-13.629l-.692 4.097a9.853 9.853 0 00-1.856-.647l2.548-3.45zm-10.474.202l.529 4.396a9.91 9.91 0 011.89-.887l-2.42-3.51zm-7.412 8.219l3.224 2.599c.176-.687.416-1.347.713-1.972l-3.937-.627zm25.746-.88l-3.22 2.427a10.614 10.614 0 00-.859-1.81l4.079-.617zm-4.5-2.318l-1.37.698c.182.173.358.352.528.539l.842-1.237zm-16.006-.279l1.116.837c-.175.16-.347.326-.512.498l-.604-1.335zm25.902 9.02l-8.027-1.374a10.834 10.834 0 01-.032 2.359l8.058-.985z" fill="#FFD525"/><path fill-rule="evenodd" d="M27.632 25.681c-1.384.37-2.318 4.479-.77 4.168 1.32-.265 2.24-4.56.77-4.168zm-2.23 7.091c-2.04 1.77-.446 4.156 1.55 3.359.945-.376 1.488-1.142.686-1.995-.283-.3-.682-.508-1.051-.712l-1.185-.652zm3.602 1.675c.038-.745-.712-1.533-1.185-1.954-.595-.53-1.253-.81-1.868-1.257-.03-.417.108-.515.264-.73.95-.079 1.664-.015 2.574-1.1.483-.576.714-1.213.793-1.993.037-.36-.048-.759.095-.875.017-.014.963.01 1.138-.82-.456-.067-1.14.036-1.5-.043-.356-.078-1.416-1.566-3.35.123-1.129.988-1.453 3.082-.676 4.014.643.771.279.306-.386 1.29-.391.579-.134.8-.007 1.304l-.745.804c-.587.682-.93 1.374-.742 2.33.489 2.48 5.457 1.574 5.595-1.093z" fill="#097A43"/><path d="M31.225 22.22c.56.07.688.007 1.157.177.05.599-1.67 7.097-1.981 8.366-.143.583-.469 1.634.126 2.035.704.476 1.418.044 1.883-.398.158-.15 1.085-1.193 1.091-1.486.01-.483-.348-.268-.647.096-.211.256-.437.507-.819.502-.49-.523.27-2.749.525-3.726.295-1.134 1.566-5.968 1.512-6.418-.322-.042-1.188.171-1.527.255-.83.207-1.33-.076-1.32.597zm-9.235 1.41l-.002.49c.379.017.48-.041.788.113.18.511-.237 2.539-.397 3.151-.118.453-.145 1.082-.25 1.554-.103.47-.25 1.076-.298 1.519-.058.537-.143 1.24.064 1.681.76 1.614 2.575-1.326 2.62-2.12-.741-.082-.482.497-1.104.666-.094-1.081.698-4.905.84-6.36.032-.34.248-1.14.009-1.28-.18-.104-2.088.488-2.27.587zm1.588-3.944c-.715.605-.264 2.867.761 2.102.356-.265.47-.978.365-1.486-.093-.454-.583-1.075-1.126-.616z" fill="#097A43"/><path d="M33.286 28.067l5.708-4.439.184.262-5.768 4.422-.124-.245zm-10.164 6.219l-4.138 2.162.09.328 4.18-2.231-.132-.259z" fill="#B5B4B2"/></svg>