<svg xmlns="http://www.w3.org/2000/svg" width="56" height="56"><path fill="#F37022" d="M0 0h56v56H0z"/><path fill-rule="evenodd" d="M28 16h3.6l3.61 5h-4.36l1.94 3 2.46-2.95L37.7 24h-4.89l2.59 4 2.46-3.8v.01L40.83 28 44 24h-6l-.02.02L38 24l1.99-3h-4.7l3.7-5H31.6L28 11l-3.6 5H28l-2.85 5h-4.36l3.6-5h-7.38l3.7 5h-4.69L18 24l.01.01V24h-6l3.17 4L12 32h6.21l-2.19 4h5l-2.76 5h6.57l-3.66-5h3.98L28 41h-3.17L28 45l3.16-4h6.58l-2.78-5h5.02l-2.19-4H44l-3.17-4-3.12 3.88-2.3-3.88-1.17 1.95L32.73 28l-1.25 1.87v-.02L31 29l-.94 1H28l2-2h-4l2 2h-2.06l2.05 2h-2.1l2.13 4h-2.87l-2.08-4-1.98 3.87L18.37 32h4.6l-1.2-2h2.66l-1.27 2h2.73l-1.26-2h-.2 1.5L25 29l-.48.84v.01L23.27 28l-1.52 1.96L20.58 28l-2.3 3.88L15.17 28l2.95-3.8 2.46 3.8 2.6-4h-4.89l2.46-2.95V21v.05L23.21 24l1.94-3h2.87l-2.2 3H28l-1.05 2h-2.3l1.31 2 1-2h2.08l.99 2 1.32-2h-2.31L28 24h2.21l-2.19-3h2.83L28 16zm0 16h2.14l1.27-2h-1.34L28 32zm.03 4h2.82L28 41h3.16l3.65-5h-3.97l2.1-4 1.96 3.87L37.62 32h-4.6l1.2-2h-2.65l1.26 2h-2.7l-2.1 4zm-7 0zm2.24-12l1.37 2 1.18-2h-2.55zm-4.89 8zm14.36-8l-1.36 2-1.16-2h2.52zM25 29l-1.29-1h2.1l-.8 1zm6.4-3h2.5l-1.17 2-1.32-2zm.88 2h-2.07l.8 1 1.27-1zm-9.01 0l-1.16-2h2.5l-1.34 2z" fill="#fff"/></svg>