<svg width="56" height="56" xmlns="http://www.w3.org/2000/svg"><path fill="#073256" d="M0 0h56v56H0z"/><path d="M37.759 32.616c-.018.036-1.144 2.381-4.697 2.381-1.524 0-6.013-.711-6.013-6.985 0-5.659 3.9-7.012 5.476-7.012-1.23.633-2.525 1.564-2.525 5.308v3.791c0 3.747 5.554 4.753 7.759 2.517zM10.505 35H11V21H8v11.384h.001v1.185c0 .794.612 1.435 1.364 1.43M40.495 21H40v14h3V23.616h-.001v-1.185c0-.793-.612-1.435-1.364-1.43M48 31h-.24c-.207 1.69-1.217 3.74-4.194 3.977V35H48M38 24.975h-.225c-.208-1.68-1.232-3.717-4.248-3.952V21H38M14 34.997h3v-14h-3v14zm8-13.999V28h-4v.285c1.699.24 3.795 1.008 4 4.446v2.266h3v-14" fill="#fff"/></svg>