<svg width="56" height="56" viewBox="0 0 56 56" xmlns="http://www.w3.org/2000/svg"><path fill="#F0F3FA" d="M0 0h56v56H0z"/><path d="M12.6 25h-2.52v1.73h2.51V25Zm0 2H6.98v2h5.6v-2ZM10 29.27h2.6V31H10v-1.73Zm-.35 0H4V31h5.65v-1.73Z" fill="#E41E26"/><path d="M49.67 31v-4.46h1.03v.78h.04c.07-.28.19-.49.35-.63a.84.84 0 0 1 .57-.21 1.38 1.38 0 0 1 .34.04v1.1a1.62 1.62 0 0 0-.45-.07c-.16 0-.3.04-.42.12a.82.82 0 0 0-.3.32c-.06.14-.1.3-.1.49V31h-1.06ZM47.46 31c-.39 0-.72-.1-1-.27a1.78 1.78 0 0 1-.64-.78 2.94 2.94 0 0 1-.22-1.2c0-.45.07-.85.22-1.19.15-.34.36-.6.63-.8.28-.18.6-.28.97-.28.24 0 .48.05.69.14.21.1.4.23.56.41.16.19.29.42.38.7.09.28.13.6.13.97v.34h-3.17v-.76h2.2c0-.17-.04-.32-.1-.46a.77.77 0 0 0-.28-.32.69.69 0 0 0-.4-.11c-.15 0-.3.04-.42.13a.85.85 0 0 0-.28.33c-.07.15-.1.3-.1.47v.72c0 .22.03.4.1.56.07.16.17.28.3.37.12.08.27.12.45.12.11 0 .22-.02.31-.05.1-.04.18-.1.25-.17a.77.77 0 0 0 .16-.28l.96.07a1.53 1.53 0 0 1-.88 1.17c-.24.11-.51.17-.82.17ZM45.25 26.54v.92h-2.26v-.92h2.26ZM43.5 25.5h1.04v4.1c0 .11.02.2.05.26.03.06.07.1.12.13.05.02.11.04.18.04.05 0 .1 0 .15-.02l.11-.02.17.9-.22.07c-.1.03-.21.04-.35.05-.25 0-.47-.03-.66-.12a.97.97 0 0 1-.44-.42c-.1-.19-.15-.42-.15-.71v-4.26ZM42.56 25.08V31H41.5v-5.92h1.05ZM39.25 31c-.39 0-.72-.1-1-.27a1.78 1.78 0 0 1-.64-.78 2.94 2.94 0 0 1-.22-1.2c0-.45.07-.85.22-1.19.15-.34.36-.6.64-.8.27-.18.59-.28.96-.28.25 0 .48.05.69.14.22.1.4.23.56.41.16.19.29.42.38.7.09.28.13.6.13.97v.34H37.8v-.76H40c0-.17-.04-.32-.1-.46a.77.77 0 0 0-.28-.32.69.69 0 0 0-.4-.11c-.15 0-.3.04-.41.13a.85.85 0 0 0-.29.33c-.07.15-.1.3-.1.47v.72c0 .22.03.4.1.56.07.16.17.28.3.37.12.08.27.12.45.12.11 0 .22-.02.31-.05.1-.04.18-.1.25-.17a.77.77 0 0 0 .16-.28l.96.07a1.53 1.53 0 0 1-.88 1.17c-.24.11-.51.17-.82.17ZM34.57 28.43V31h-1.05v-5.92h1.02v2.26h.04c.09-.26.22-.46.41-.61.19-.15.43-.23.71-.23.26 0 .49.07.68.2.2.14.35.33.46.58.1.25.16.55.16.9V31h-1v-2.6c0-.28-.1-.5-.22-.65a.59.59 0 0 0-.5-.22.67.67 0 0 0-.37.1c-.1.07-.19.18-.25.31-.06.14-.1.3-.1.5ZM31.75 26.76a.76.76 0 0 0-.26-.54.9.9 0 0 0-.6-.19 1 1 0 0 0-.44.09.63.63 0 0 0-.27.23c-.06.1-.1.2-.1.33a.54.54 0 0 0 .24.48l.25.14c.1.04.2.08.3.1l.46.13c.22.06.42.14.6.23.18.1.34.21.47.35.14.14.24.3.31.5.08.18.12.4.12.64 0 .35-.08.66-.24.93-.15.26-.37.46-.66.6-.29.15-.64.22-1.04.22s-.76-.07-1.06-.22c-.3-.14-.53-.36-.7-.64a2.15 2.15 0 0 1-.26-1.06h1.02a1 1 0 0 0 .15.5c.08.12.2.22.34.29.15.06.31.1.5.1.17 0 .33-.04.46-.1a.73.73 0 0 0 .31-.25c.07-.11.11-.23.11-.38a.54.54 0 0 0-.1-.33.77.77 0 0 0-.29-.22 2.64 2.64 0 0 0-.46-.17l-.54-.16c-.43-.12-.76-.31-1-.57-.25-.25-.37-.6-.37-1.02 0-.36.08-.67.24-.93.17-.26.4-.47.68-.62.29-.15.61-.22.98-.22s.7.07.97.22c.28.15.5.36.65.62.16.26.24.57.24.92h-1.01ZM26.23 31c-.24 0-.45-.05-.64-.15-.19-.1-.34-.24-.45-.43-.1-.2-.16-.44-.16-.73 0-.24.04-.45.12-.61.07-.17.18-.3.31-.4.13-.1.28-.18.45-.23.17-.05.35-.08.53-.1l.53-.08a.68.68 0 0 0 .3-.1c.05-.06.08-.13.08-.22v-.02a.57.57 0 0 0-.15-.41c-.1-.1-.23-.15-.4-.15a.66.66 0 0 0-.45.14.68.68 0 0 0-.22.36l-.97-.09c.05-.27.15-.5.3-.69.14-.2.32-.34.55-.45a2.08 2.08 0 0 1 1.39-.07c.19.05.36.14.5.26.16.12.28.28.36.46.09.19.13.41.13.67V31h-.98v-.7h-.03c-.06.14-.15.27-.25.37-.1.1-.22.18-.36.24-.14.06-.3.09-.5.09Zm.3-.84c.15 0 .29-.04.4-.1.12-.08.21-.17.28-.3.07-.12.1-.26.1-.41v-.46a.52.52 0 0 1-.14.06 2.16 2.16 0 0 1-.4.1l-.18.03c-.13.02-.23.06-.32.1-.1.05-.17.11-.22.19a.5.5 0 0 0-.07.28c0 .17.05.3.15.38.1.09.24.13.4.13ZM23.42 31v-4.46h1.04V31h-1.04ZM20.57 31c-.29 0-.55-.09-.78-.26a1.74 1.74 0 0 1-.54-.76c-.14-.34-.2-.75-.2-1.24 0-.5.06-.92.2-1.25.14-.34.33-.59.55-.75.24-.17.49-.26.76-.26a1 1 0 0 1 .87.44c.09.12.16.24.2.36h.03v-2.2h1.04V31h-1.02v-.77h-.05c-.05.12-.12.24-.2.36-.1.12-.2.21-.35.3-.14.07-.31.11-.51.11Zm.33-.97a.6.6 0 0 0 .42-.16c.12-.1.2-.26.27-.45.06-.2.1-.42.1-.68 0-.27-.03-.5-.1-.68a.99.99 0 0 0-.27-.45.62.62 0 0 0-.42-.16.61.61 0 0 0-.44.17c-.11.1-.2.25-.26.45a2.3 2.3 0 0 0 0 1.35c.06.19.15.34.26.45.12.1.27.16.44.16ZM16 28.42V31h-1v-4.46h1v.79h.04a1.12 1.12 0 0 1 1.13-.84c.26 0 .48.06.68.2.2.13.34.32.45.58.1.25.16.54.16.89V31h-1.04v-2.62a1 1 0 0 0-.18-.64.58.58 0 0 0-.49-.23.65.65 0 0 0-.37.1.71.71 0 0 0-.25.32c-.06.14-.13.3-.13.5ZM14.5 25v6h-1.06v-6h1.06Z" fill="#231F20"/><ellipse cx="23.94" cy="25.7" rx=".66" ry=".7" fill="#E41E26"/></svg>