<svg width="56" height="56" viewBox="0 0 56 56" xmlns="http://www.w3.org/2000/svg"><path fill="#F0F3FA" d="M0 0h56v56H0z"/><path fill-rule="evenodd" d="M24 40.37v3.13A16.03 16.03 0 0 1 12.5 32h3.13A13.03 13.03 0 0 0 24 40.37ZM15.63 24H12.5A16.03 16.03 0 0 1 24 12.5v3.13A13.03 13.03 0 0 0 15.63 24Zm27.87 8h-3.13A13.03 13.03 0 0 1 32 40.37v3.13A16.03 16.03 0 0 0 43.5 32Zm0-8h-3.13A13.03 13.03 0 0 0 32 15.63V12.5A16.03 16.03 0 0 1 43.5 24ZM28 45a17 17 0 1 0 0-34 17 17 0 0 0 0 34Zm0-5a12 12 0 0 0 8.74-20.22L32 25l4 3-15.5 9-.94-.47A11.96 11.96 0 0 0 28 40Zm-8.48-3.51L25.5 31 21 28l14.63-9.26a12 12 0 0 0-16.11 17.75Z" fill="#1F1051"/></svg>