<svg width="56" height="56" viewBox="0 0 56 56" xmlns="http://www.w3.org/2000/svg"><path fill="#F0F3FA" d="M0 0h56v56H0z"/><path fill-rule="evenodd" d="M52 24H4v9h48v-9ZM7.5 26h-3c.4 0 .5.33.5.5v4c0 .4-.33.5-.5.5h5c-.4 0-.5-.33-.5-.5V27l3 4h2v-4.5c0-.4.33-.5.5-.5.4 0 .5.33.5.5v4c0 .4-.33.5-.5.5H19c.8 0 1-.67 1-1v-3c0-.8-.33-1-1-1h-6.5c.4 0 .5.33.5.5v3L10.5 26h-3Zm0 0c.4 0 .5.33.5.5v4c0 .4-.33.5-.5.5l-.5-.5v-4c0-.4.33-.5.5-.5Zm40 0h-3c.4 0 .5.33.5.5v4c0 .4-.33.5-.5.5h3l-.5-.5V29h1.5v1.5c0 .4-.33.5-.5.5h3l-.5-.5v-4c0-.4.33-.5.5-.5h-3c.4 0 .5.33.5.5V28H47v-1.5c0-.4.33-.5.5-.5Zm-30 4H17v-3h.5c.4 0 .5.33.5.5v2c0 .5-.17.5-.5.5Zm3.5-3c0-.33.2-1 1-1h3c.33 0 1 .2 1 1v3c0 .33-.2 1-1 1h-3c-.33 0-1-.2-1-1v-3Zm2.5 0c-.4 0-.5.33-.5.5v2c0 .17.1.5.5.5s.5-.33.5-.5v-2.07c-.03-.18-.15-.43-.5-.43ZM44 27h-2c-.4 0-.5.33-.5.5v2c0 .4.33.5.5.5h2v1h-3.5c-.8 0-1-.67-1-1v-3c0-.8.67-1 1-1H44v1Zm-12 0h1.5v-1c.4 0 .5.33.5.5v4c0 .4-.33.5-.5.5H39v-1h-3v-1h2.5v-1H36v-1h3v-1H28.5v1H30v3.5c0 .17-.1.5-.5.5h3c-.17 0-.5-.1-.5-.5V27Z" fill="#ED1B24"/></svg>