<svg xmlns="http://www.w3.org/2000/svg" width="56" height="56"><path fill="#00A499" d="M0 0h56v56H0z"/><path fill-rule="evenodd" d="M29.03 24.01H8V33h21.03a19.7 19.7 0 0014.04-5.8L48 22.22 41.62 16l-4.41 4.37A11.35 11.35 0 0129.03 24zM8 34.11c0-.06.04-.1.1-.1h.53c.05 0 .1.04.1.1v3.8a.1.1 0 01-.1.1H8.1a.1.1 0 01-.1-.1v-3.8zm14.22.6a.1.1 0 01-.1-.1v-.51c0-.06.04-.1.1-.1h2.42c.06 0 .1.04.1.1v.51a.1.1 0 01-.1.1h-.85v3.19a.1.1 0 01-.1.1h-.52a.1.1 0 01-.1-.1v-3.19h-.85zm5.66-.68c0-.02.01-.03.03-.03h1.43a1.21 1.21 0 01.6 2.26l.74 1.6a.1.1 0 01-.1.14h-.62a.1.1 0 01-.09-.06l-.68-1.52h-.59v1.48a.1.1 0 01-.1.1h-.52a.1.1 0 01-.1-.1v-3.87zm.72 1.75v-1.14a.14.14 0 01.12-.05h.5a.62.62 0 010 1.25h-.5a.14.14 0 01-.12-.06zm-12.4-.45a1.33 1.33 0 012.66 0v1.34a1.33 1.33 0 01-2.67 0v-1.34zm.71-.01a.63.63 0 011.27 0v1.42a.63.63 0 01-1.27 0v-1.42zM13.01 34a.1.1 0 00-.1.1v3.8c0 .06.04.1.1.1h1.57a1 1 0 001-1v-2a1 1 0 00-1-1H13zm.71.67a.1.1 0 00-.1.1v2.47c0 .06.05.1.1.1h.65a.5.5 0 00.5-.5v-1.67a.5.5 0 00-.5-.5h-.65zM9.55 34a.1.1 0 00-.1.1v3.8c0 .06.05.1.1.1h.53a.1.1 0 00.1-.1v-2.39l1.34 2.42c0 .04.04.07.1.07h.52a.1.1 0 00.1-.1v-3.8a.1.1 0 00-.1-.1h-.53a.1.1 0 00-.1.1v2.5l-1.34-2.51a.1.1 0 00-.1-.09h-.52zm11.25 0c.5 0 .86.2 1.02.34a.1.1 0 01.02.11l-.17.31c-.04.06-.12.07-.18.03-.14-.1-.39-.21-.72-.21-.42 0-.6.26-.6.43 0 .17 0 .42.81.68 1.02.34 1.08.77 1.08 1.2 0 .47-.43 1.09-1.37 1.11a1.81 1.81 0 01-1.35-.53.1.1 0 010-.12l.3-.3a.12.12 0 01.16 0c.3.29.76.34 1 .31.27-.03.53-.2.53-.48 0-.29-.28-.5-.72-.6-.36-.07-1.2-.36-1.2-1.2 0-.7.7-1.09 1.4-1.08zm4.78.08l-.97 3.8a.1.1 0 00.1.12h.55a.1.1 0 00.1-.07l.17-.65a.1.1 0 01.1-.07h.88a.1.1 0 01.1.07l.16.65a.1.1 0 00.1.07h.59a.1.1 0 00.1-.13l-1.01-3.8a.1.1 0 00-.1-.07h-.77a.1.1 0 00-.1.08zm.1 2.5l.37-1.7.4 1.7h-.78z" fill="#fff"/></svg>