<svg width="56" height="56" viewBox="0 0 56 56" xmlns="http://www.w3.org/2000/svg"><path fill="#F0F3FA" d="M0 0h56v56H0z"/><path d="M38 19.18 21.52 26c.46-2.82-.9-5.63-2.52-8.09 1.9-.77 4.05-1.63 6.19-1.82 4.71-.42 8.98.62 12.81 3.1Z" fill="#2B84B0"/><path d="M44.64 22.36c.24.51.44 1 .6 1.46.26.8.46 1.65.6 2.56.15.93.2 1.83.14 2.7a15.51 15.51 0 0 1-4.83 10.51 19.1 19.1 0 0 1-12.45 5.37c-5.75.37-11.58-1.77-15.44-5.94-.44-.48-.86-.96-1.26-1.43a18.75 18.75 0 0 0 9.69 6.1c8.4 2.34 17.85-.91 22.04-8.47.84-1.51 1.4-3.14 1.65-4.89.48-3.14.02-6.27-1.47-9.33.25.42.5.87.73 1.36Z" fill="#565656"/><path d="M40.64 21c3.74 4.82 2.91 10.95-1.63 15-3.88-4.04-9.3-7.92-15.01-8.49L40.64 21Z" fill="#5FA439"/><path d="M18.42 29.16c-.1-.07-.12-.2-.05-.3a4.98 4.98 0 0 0 1.12-3.91A16.78 16.78 0 0 0 17.26 19c-3.45 2.37-5.59 5.9-5.22 9.86a9.6 9.6 0 0 0 1.85 4.9c2.4 3.27 5.9 5.26 10.5 6 4 .63 7.88.04 11.61-1.79-.97-1-1.9-2.2-2.9-3.12a23.47 23.47 0 0 0-6.15-4.08c-1.65-.57-3.2-.95-4.65-1.14a9.36 9.36 0 0 0-3 .13c-.09.02-.17 0-.24-.06l-.64-.54Z" fill="#DE4442"/><path d="M18.03 40.75c.3.14.4.07.27-.21a1.3 1.3 0 0 0-.14-.24.13.13 0 0 1-.03-.08c0-.1.1-.16.2-.13.3.08.5.19.59.32.18.26-.04.62-.4.6a3.01 3.01 0 0 1-2.45-1.35c-.19-.26.02-.64.39-.66.71-.03 1.39.14 2.02.5.11.06.01.24-.08.27a.18.18 0 0 1-.13 0c-.38-.16-.85-.55-1.25-.56-.15 0-.25.06-.31.18a.2.2 0 0 0 .01.23c.35.52.79.9 1.31 1.13ZM20.05 41l-.02.3c0 .15-.1.24-.26.27a.33.33 0 0 1-.13 0c-.17-.02-.25-.12-.23-.28.04-.25 0-.49-.11-.7-.04-.07-.02-.12.06-.15.29-.1.52-.06.7.12.06.06.15.1.24.1.2 0 .43-.07.62.03.08.06.13.13.14.22 0 .11-.1.21-.22.22-.04 0-.08 0-.11-.02l-.48-.22c-.12-.05-.19-.02-.2.1ZM21.67 41.3a.19.19 0 0 0-.01.23c.21.31.52.5.92.58.17.02.2.27.01.28a1.48 1.48 0 0 1-1.36-.58c-.19-.25-.15-.46.12-.65.48-.31.97-.3 1.48 0 .15.1.14.33-.02.42a.7.7 0 0 1-.42.08c-.1-.01-.16-.06-.17-.15-.02-.13-.09-.27-.24-.31-.11-.03-.21 0-.3.1ZM24.18 41.6a.28.28 0 0 0-.15-.01c-.15.02-.25.17-.2.3.16.38.5.56.99.54.17 0 .1.3-.05.32a1.4 1.4 0 0 1-1.5-.63.19.19 0 0 1 0-.2c.32-.55.87-.73 1.64-.52.14.03.24.16.23.29 0 .04-.02.08-.04.12a.5.5 0 0 1-.4.23.33.33 0 0 1-.21-.05.27.27 0 0 1-.12-.17.3.3 0 0 0-.19-.21ZM26.44 42.01l.68-.46c.2-.13.5-.05.57.17l.29.84c.05.15 0 .27-.13.37a.44.44 0 0 1-.21.07c-.12.01-.2-.04-.23-.15l-.14-.5c-.05-.17-.26-.26-.44-.2a2 2 0 0 0-.76.51c-.28.32-.43.27-.42-.14 0-.25-.07-.48-.22-.68-.07-.1-.06-.2.05-.28.09-.07.2-.11.33-.12.1 0 .2.02.25.1.1.1.14.23.14.37 0 .1.15.17.24.1ZM28.43 13.93c.14-.17.26-.37.33-.6.04-.12.18-.2.32-.2l.27.02c.19 0 .27.1.26.26a1 1 0 0 0 .16.61c.05.1.12.1.19.02.16-.18.25-.39.28-.62 0-.11.08-.17.2-.17h.26c.1 0 .18.1.14.19l-.68 1.4c-.03.05-.1.1-.19.1-.15 0-.3-.03-.44-.08a.25.25 0 0 1-.16-.18l-.17-.6c-.04-.14-.11-.16-.22-.04a.98.98 0 0 0-.26.6c0 .1-.06.16-.17.17a1.2 1.2 0 0 1-.5-.07.21.21 0 0 1-.15-.15l-.42-1.38c-.05-.16.02-.23.2-.2l.22.03c.12.01.18.07.2.18l.14.67c.03.14.1.15.19.04ZM32.1 13.53l-.28-.04c-.1-.02-.2.04-.22.14l-.28 1.42c-.01.1.06.18.16.2l.27.04c.1.02.2-.05.22-.14l.28-1.42c.02-.1-.05-.18-.16-.2ZM33.48 14.74l-.19.7c-.03.13-.12.18-.25.14l-.17-.05c-.13-.03-.19-.16-.14-.27.2-.41.33-.86.39-1.32 0-.1.07-.14.17-.11.3.06.55.17.74.32.08.06.13.14.15.23.06.22.16.42.3.58.07.1.13.09.16-.03l.14-.47c.03-.11.12-.16.25-.15.2.02.37.16.3.35l-.35 1.05c-.17.5-.4.52-.68.06l-.65-1.05c-.07-.12-.13-.12-.17.02ZM20.6 14.74l-.18-.36c-.1-.2-.03-.32.2-.37l.08-.01c.14-.03.24.02.29.14l.45 1.24c.04.1-.02.22-.13.26a.62.62 0 0 1-.5-.01l-1.1-.46c-.14-.06-.19-.02-.14.11l.28.75c.06.16-.1.22-.25.25-.15.02-.26-.03-.31-.17l-.51-1.31c-.03-.08.01-.17.1-.2l.47-.12a.45.45 0 0 1 .34.03l.76.36c.18.08.23.04.15-.13ZM17.5 14.95l-.3.13c-.11.04-.16.15-.12.25l.72 1.46c.05.1.17.14.28.1l.32-.13c.1-.04.15-.15.1-.25l-.72-1.46c-.04-.1-.17-.14-.27-.1ZM26.72 14.5c.21-.18.32-.41.3-.64-.07-.57-.8-.8-1.35-.75-.33.03-.63.15-.85.33-.21.18-.32.42-.3.65.07.57.8.8 1.35.75.33-.03.63-.15.85-.33Zm-.28-.56c.02.23-.25.44-.61.46-.36.03-.66-.14-.68-.37-.02-.23.25-.44.6-.46.36-.03.67.14.69.37Z" fill="#092C47"/><path fill-rule="evenodd" d="m21.8 13.75.35 1.58c0 .03.05.06.08.05l1.18-.22a1 1 0 0 0 .61-.36c.15-.18.2-.4.15-.62l-.01-.08c-.08-.33-.4-.59-.76-.64a1.11 1.11 0 0 0-.37 0l-1.18.22c-.03 0-.06.04-.05.07Zm.73.4.13.55c.02.08.12.14.21.12.28-.06.83-.17.74-.55-.08-.31-.38-.42-.72-.35-.14.03-.4.04-.36.23ZM36.19 15.04l-.67 1.18c-.05.09 0 .2.09.23l.92.43c.44.2 1.09.18 1.33-.26l.06-.1c.25-.44-.12-.93-.55-1.13l-.93-.42c-.09-.05-.2-.01-.25.07Zm1.15.91-.31-.3c-.16-.16-.45-.12-.55.07l-.16.32c-.08.15 0 .34.18.4l.38.14c.15.05.32 0 .4-.12l.1-.15a.28.28 0 0 0-.04-.36Z" fill="#092C47"/><path d="m37.16 26.55-2.16.03c1.3-.47 2.74-1.06 4-1.58l-1.18 4c0-.72-.22-1.53-.35-2.22-.03-.13-.16-.23-.31-.23Z" fill="#FDFDFD"/><path d="M35.67 30 33 28.1l3-1.1-1.28 1.32.95 1.68ZM38.08 29.23 39 28l-.35 3L36 28.96l1.55.42c.24.08.41.03.53-.15Z" fill="#FDFDFD"/><path d="M40.72 37.6c-.3.07-.46.27-.45.59.01.33-.1.6-.3.79-.1.1-.17.07-.2-.06-.1-.45-.37-1.23.4-1.32a.4.4 0 0 0 .25-.13l.31-.35c.17-.19.25-.16.27.1.01.2-.08.34-.28.38ZM38.28 39.43c.2.12.43.09.68-.1.2-.17.26-.13.14.11-.17.36-.74.78-1.16.57a.44.44 0 0 1-.17-.63c.33-.52.77-.9 1.3-1.16.1-.04.21.05.18.16-.1.45-.37.64-.8.58a.22.22 0 0 0-.22.07c-.14.16-.12.3.05.4ZM34.86 40.83l.06.04c.07.02.14 0 .18-.07.17-.38.39-.67.65-.87.1-.08.2-.08.3 0l.51.41c.25.2.36-.3.3-.46-.13-.31-.04-.52.28-.62.38-.12.47-.01.27.33l-.7 1.23c-.15.27-.34.3-.56.09l-.25-.23a.38.38 0 0 0-.6.11l-.41.86a.15.15 0 0 1-.21.07.15.15 0 0 1-.06-.06c-.2-.33-.46-.57-.8-.72-.1-.04-.12-.11-.05-.21.17-.23.37-.34.61-.3.1.01.18.06.25.13l.23.27ZM30.05 41.3l.12 1c.02.21-.06.39-.24.52l-.15.1c-.19.14-.29.1-.3-.14l-.08-1.32a.4.4 0 0 0-.12-.28.37.37 0 0 0-.14-.09c-.19-.06-.19-.13 0-.2a3.48 3.48 0 0 1 1.98-.23c.33.07.44.26.3.58-.12.3-.32.5-.6.63-.16.08-.2.03-.14-.14l.14-.34c.04-.1.01-.18-.09-.24a.7.7 0 0 0-.52-.07c-.12.03-.17.1-.16.22ZM33.6 41.54c.07-.23.04-.44-.07-.58a.46.46 0 0 0-.24-.14c-.37-.1-.79.13-1.06.37-.22.2-.39.44-.46.68-.08.23-.06.44.06.58.06.07.14.11.24.14.37.1.78-.13 1.06-.37.22-.2.39-.44.46-.68Zm-.5.34c-.1.21-.37.3-.61.18s-.35-.38-.26-.6c.1-.2.38-.28.62-.17.24.11.35.38.25.6Z" fill="#092C47"/></svg>