<svg width="56" height="56" xmlns="http://www.w3.org/2000/svg"><path fill="#F0F3FA" d="M0 0h56v56H0z"/><path d="M31.558 15.953a6.917 6.917 0 01-1.054-.968c-.95-1.069-1.51-2.366-1.634-3.669a4.913 4.913 0 00-.207 2.303c.065.431.188.842.355 1.229a4.92 4.92 0 005.235 2.923 4.898 4.898 0 001.48-.471c-1.413.04-2.896-.398-4.175-1.347zm1.911-2.625a5.199 5.199 0 01-.755-.693c-.813-.906-1.234-2.036-1.21-3.127a3.636 3.636 0 00-.312 2.092c.05.32.14.62.262.906a3.62 3.62 0 003.85 2.148c.39-.057.753-.178 1.087-.345a4.872 4.872 0 01-2.922-.981zm1.817-2.998a3.432 3.432 0 01-.515-.512A3.179 3.179 0 0134.061 8a2.69 2.69 0 00-.248 1.319c.017.231.066.449.139.659a2.444 2.444 0 002.094 1.62c.196.02.394.02.6-.006A2.833 2.833 0 0038 11.029a3.358 3.358 0 01-2.714-.699z" fill="#2B85BB"/><path d="M27.147 25.012a4.775 4.775 0 00-.471-2.52 4.868 4.868 0 01-1.077 3.806 5.04 5.04 0 01-.849.823c-1.409 1.088-3.225 1.387-4.858.964a4.362 4.362 0 003.41 1.034c1.638-.208 3.018-1.346 3.585-2.94.131-.367.222-.758.26-1.167z" fill="#80C41C"/><path d="M24.422 23.26a3.39 3.39 0 00-.6-2.262c.298 1.057.059 2.212-.684 3.106-.175.208-.37.405-.6.58a4.004 4.004 0 01-3.656.626c.515.51 1.196.859 1.966.938.254.027.5.02.74-.011a3.265 3.265 0 002.64-2.132c.098-.268.165-.548.194-.844zm-2.488-2.02a2.43 2.43 0 00-.338-1.274 2.616 2.616 0 01-.507 1.77 2.8 2.8 0 01-.423.459 2.93 2.93 0 01-2.666.611c.403.346.913.576 1.475.62.185.014.366.007.54-.02a2.219 2.219 0 001.919-2.166z" fill="#80C41C"/><path d="M26 15v16c2.785-2.57 3-7 3-7v24h3V20.34c-2.92-.618-5.233-2.686-6-5.34z" fill="#2B85BB"/><path d="M26 31c-1.214.878-1.866 1.089-3 1.53V48h3V31z" fill="#7FC31C"/><path d="M29 24s-.233 4.459-3 7v17h3V24z" fill="#80CFE3"/></svg>