<svg width="56" height="56" viewBox="0 0 56 56" xmlns="http://www.w3.org/2000/svg"><path fill="#F0F3FA" d="M0 0h56v56H0z"/><path d="M41.61 20.92c0 1.5-6.28 5.35-9.42 7.09-.23.23-.4.75.42.87 9.51-5.9 9.39-7.35 9.39-7.96 0-.61-.66-.92-1.63-.92-.97 0-2.19.16-3.77.63 2.92-.44 5.01-.51 5.01.29Z" fill="#EB0C0C"/><circle cx="34.86" cy="21.22" r=".99" fill="#EB0C0C"/><circle cx="9" cy="21" r="1" fill="#2D3191"/><path d="M8 25h1.5v12H8V25ZM12 25h1.5v.77c.36-.4.74-.75 1.43-.75 1.8 0 2.07 1.69 2.07 2.66V32h-1.5v-4.32c0-.4-.07-1.2-.93-1.2-.75 0-.95.67-1.07 1.15V30H12v-5ZM19 25h1.5v.77c.36-.4.74-.75 1.43-.75 1.8 0 2.07 1.69 2.07 2.66V32h-1.5v-4.32c0-.4-.07-1.2-.93-1.2-.75 0-.95.67-1.07 1.15V30H19v-5Z" fill="#2D3191"/><path fill-rule="evenodd" d="M29.5 32a3.5 3.5 0 1 0 0-7 3.5 3.5 0 0 0 0 7Zm0-1.33c1.06 0 1.92-.97 1.92-2.17s-.86-2.17-1.92-2.17-1.92.97-1.92 2.17.86 2.17 1.92 2.17ZM46.46 31.1c-.58.56-1.34.9-2.18.9-1.81 0-3.28-1.57-3.28-3.5s1.47-3.5 3.28-3.5c.84 0 1.6.34 2.18.9V25H48v7h-1.54v-.9Zm-.39-2.6c0 1.2-.8 2.17-1.8 2.17-.99 0-1.79-.97-1.79-2.17s.8-2.17 1.8-2.17c.99 0 1.8.97 1.8 2.17Z" fill="#2D3191"/><path d="M38.55 25 37 28.6 35.45 25H34l3 7 3-7h-1.45Z" fill="#2D3191"/><path d="M13 37.2c0-1.44 6.95-6.48 10.32-8.81-2.65 1.94-9.05 7.69-9.45 8.66 5.36-.58 13.74-5.88 17.54-8.6.05.21 0 .69-.26 1.17C20.36 37.36 14.98 38 14.27 38c-.7 0-1.27-.12-1.27-.8Z" fill="#EB0C0C"/></svg>