<svg width="56" height="56" fill="none" xmlns="http://www.w3.org/2000/svg"><path fill="#F0F3FA" d="M0 0h56v56H0z"/><path d="M26.939 12.335c1.02-.027 2.232.037 3.24.205 2.01.283 4.098 1.041 5.84 2.084 2.258 1.361 4.389 3.482 5.684 5.787 1.63 2.844 2.361 6.352 1.928 9.6-.285 2.26-1.3 4.598-2.546 6.501-2.018 3.089-5.395 5.507-8.95 6.482-3.839 1.094-8.327.627-11.806-1.338-3.824-2.107-6.822-6.323-7.69-10.622a14.84 14.84 0 01-.232-5.325c.216-1.216.534-2.516 1.03-3.652 1.462-3.593 4.495-6.823 8.023-8.409.773-.362 1.216-.348 2.032-.593 1.002-.248 2.418-.652 3.447-.72zm-.426 1.031c-.57.072-1.142.143-1.7.282-.522.134-1.053.237-1.553.443a13.928 13.928 0 00-3.108 1.504c-3.072 1.932-5.375 5.052-6.324 8.562-.154.657-.344 1.309-.391 1.985a14.747 14.747 0 00.009 3.87c.434 3.177 1.941 6.2 4.232 8.44 1.228 1.25 2.703 2.24 4.287 2.977 2.17.987 4.345 1.333 6.723 1.205.32-.067.883.06 1.203 0a14.54 14.54 0 004.725-1.43c3.49-1.72 6.24-4.883 7.453-8.592.132-.418.304-.823.408-1.25a12.6 12.6 0 00.286-1.94c.005-.386.008-.77.053-1.154.033-.495-.066-.987-.055-1.483-.13-1.298-.382-2.592-.85-3.813a14.802 14.802 0 00-6.102-7.48c-2.746-1.721-6.078-2.472-9.296-2.126z" fill="#FEFEFE"/><path d="M16.487 24.943c.371-.15.793.38.491.682-.19.265-.642.209-.764-.094-.15-.231.074-.483.273-.588z" fill="#FEFEFE"/><path d="M18.466 25.184c.556-.281 1.243-.256 1.797.02.392.171.74.505.838.934 2.34.023 4.68.01 7.02.016-.005.175-.005.35.001.526-.114.007-.227.011-.341.017.018 1.122-.026 2.242-.031 3.364-.269.014-.537.01-.806.004.018-.594.015-1.187.022-1.78-.27.003-.54-.006-.81 0-.16.174-.283.404-.526.476-.36.157-.73-.217-.725-.571-.05-.308.26-.557.543-.558.525-.01 1.054.04 1.576-.03-.004-.303.005-.607.023-.909-.823.008-1.647-.003-2.47.013-.003 1.13-.061 2.258-.036 3.389a11.84 11.84 0 00-.815-.001c-.006-.301 0-.602.006-.903-.399.204-.9.255-1.303.033a1.89 1.89 0 01-.884-1.237c.307-.094.647-.293.706-.638.05-.196-.056-.389-.192-.522-.217-.247-.577-.102-.861-.14.019.36.038.722 0 1.082-.338-.016-.677.006-1.015.007-.206.01-.429-.034-.608.091l.03.244c.546.14 1.144.086 1.65.36.126.066.255.16.306.299.056.495-.233 1.015-.698 1.206-.662.29-1.438.095-2.008-.31.12-.158.26-.302.385-.457.437.17.96.35 1.396.084.153-.056.086-.235.086-.355-.5-.156-1.067-.118-1.526-.405-.239-.152-.49-.49-.38-.788.052-.277.236-.462.49-.569.302-.162.655-.108.985-.11l.008-.372c-.642-.008-1.284 0-1.926-.004.011 1.132-.005 2.264.003 3.395-.243.006-.485.003-.727.015-.027-1.127-.014-2.255-.019-3.383-.196-.076-.431-.007-.642-.035-.003.341.02.684-.015 1.024-.59-.003-1.19-.036-1.772.072-.01.118-.063.318.104.343.486.054 1.018-.113 1.472.13.345.184.392.621.389.973.012.257-.145.479-.295.672-.204.237-.614.139-.777.42.023.16.174.248.286.343-.15.165-.278.349-.433.51a2.256 2.256 0 01-.73-.864c-.312-.022-.644-.185-.777-.482-.046-.212-.083-.49.112-.64.17-.177.451-.148.663-.073.219.068.33.296.538.381.3.042.538-.204.63-.47-.37-.382-.94-.263-1.408-.387-.299-.055-.518-.337-.533-.636-.005-.216-.03-.485.167-.63.392-.386.979-.357 1.489-.364-.014-.104.015-.22-.037-.315-.526 0-1.053-.006-1.578.004 0-.182 0-.365-.002-.546 1.058-.01 2.116.008 3.174-.014.109-.417.424-.767.81-.949zm-.039.97c.621.015 1.242-.008 1.863-.009-.077-.4-.498-.615-.878-.596-.412-.04-.904.152-.985.604zm4.514.544c.076.358.147.751-.004 1.1-.088.227-.3.367-.463.535.098.143.215.322.408.321.324.047.643-.187.745-.49.146-.477.087-.98.096-1.47l-.782.004zm10.175-1.634c.14.097.289.18.442.256-.168.32-.499.515-.834.614-.513.177-1.123-.135-1.308-.64.134-.076.282-.174.439-.175.147.102.289.234.476.25.298.06.583-.097.785-.305zm-4.131 1.073c.695-.254 1.606.245 1.642 1.02-.026.34-.067.727-.34.964.137.135.317.262.346.467.054.298.121.644-.104.892-.493.721-1.688.696-2.2.01-.115-.15-.146-.342-.193-.522l.484-.308c.082.222.182.47.408.58.193.118.474.12.623-.069.214-.194.141-.506.133-.76-.12-.318-.517-.174-.772-.212l.019-.442c.375.072.683-.266.766-.6-.017-.208-.226-.346-.424-.314-.274-.062-.384.297-.633.305-.142-.07-.258-.18-.384-.273a.847.847 0 01.629-.738zm1.815.005c3.63-.005 7.259-.007 10.888.002a7.304 7.304 0 00-.002.543c-.212.003-.424-.002-.635-.004.01 1.13-.006 2.26.007 3.39-.262.006-.525.019-.786-.015.016-.573-.023-1.146-.028-1.72a.835.835 0 00-.223.084c-.374.206-.784.342-1.145.572-.115-.197-.204-.408-.312-.61.132-.082.294-.135.397-.258-.099-.14-.277-.246-.452-.195-.27.083-.508.348-.471.645 0 .402.372.637.62.899-.095.202-.2.4-.306.596-.478-.286-.885-.727-1.045-1.27-.072-.378-.062-.801.17-1.125.212-.38.661-.58 1.086-.548.457.003.865.241 1.223.504.137-.064.277-.122.42-.172-.003-.256-.006-.512.013-.767-1.137-.015-2.275-.002-3.412-.005.018 1.128-.018 2.257.008 3.384-.256.017-.513.01-.769.006.001-.316.01-.634.018-.951-.527.14-1.156.27-1.632-.082-.378-.244-.424-.733-.486-1.139.495.01.846-.69.486-1.05-.256-.29-.674-.13-1.009-.189-.006 1.134-.004 2.27.005 3.404-.252-.006-.504-.005-.755-.022.027-1.12-.004-2.242.015-3.364-.195 0-.39-.002-.586-.005.021 1.128-.008 2.256.015 3.385-.27.022-.543.014-.815.009.013-.62.02-1.242.004-1.862a8.349 8.349 0 01-.594.014c.001-.246.001-.49.012-.735.198 0 .396 0 .595-.002-.004-.268-.01-.536-.001-.805-.174.003-.347.008-.52.008a9.8 9.8 0 00.002-.55zm4.417.539c.088.296.07.613.05.917-.045.298-.253.516-.496.67.183.467.996.494 1.177.008.199-.507.088-1.063.115-1.593a30.58 30.58 0 01-.846-.002z" fill="#FEFEFE"/><path d="M26.514 13.365c3.217-.347 6.549.404 9.295 2.125 2.788 1.717 4.983 4.392 6.102 7.477.468 1.22.72 2.514.85 3.812-.01.496.089.988.055 1.483-.045.383-.048.767-.052 1.152a12.59 12.59 0 01-.287 1.94c-.103.427-.276.833-.408 1.25-1.212 3.707-3.962 6.87-7.453 8.59a14.542 14.542 0 01-4.725 1.43c-.32.06-.648.03-.967.098a14.96 14.96 0 01-6.96-1.304c-1.582-.737-3.058-1.727-4.285-2.976-2.291-2.24-3.798-5.26-4.233-8.437a14.738 14.738 0 01-.009-3.869c.048-.675.237-1.328.392-1.984.949-3.51 3.252-6.628 6.323-8.56a13.931 13.931 0 013.109-1.503c.5-.206 1.03-.309 1.552-.442.558-.14 1.13-.21 1.7-.282zm-1.572.603a14.38 14.38 0 00-5.855 2.814 14.434 14.434 0 00-4.287 5.632c-.231.51-.386 1.064-.588 1.586h27.64a14.444 14.444 0 00-3.79-6.32 14.467 14.467 0 00-6.491-3.614c-2.162-.55-4.45-.566-6.629-.098zm-8.454 10.98c-.2.106-.423.358-.273.59.122.302.574.358.764.093.301-.301-.12-.832-.491-.682zm1.979.242a1.498 1.498 0 00-.812.95c-1.057.022-2.116.004-3.173.013.002.182 0 .332 0 .515h1.617v.343c-.51.007-1.097-.022-1.49.365-.197.145-.171.413-.166.63a.672.672 0 00.552.609c.468.123 1.026.014 1.396.397-.092.265-.337.53-.637.488-.209-.086-.32-.314-.538-.382-.212-.075-.493-.103-.664.073-.194.151-.157.429-.112.641.133.296.464.432.776.453.162.348.425.64.733.863.155-.161.252-.314.403-.48-.113-.095-.247-.224-.27-.383.163-.282.554-.165.758-.402.15-.194.338-.393.326-.65.004-.352-.043-.79-.389-.975-.453-.242-.985-.075-1.47-.129-.169-.026-.12-.255-.11-.373.582-.108 1.188-.1 1.777-.098v-.99h.681l.009 3.395h.707v-3.395h1.941v.398c-.33.003-.703-.045-1.006.117-.253.108-.48.389-.48.6-.047.261.175.568.414.72.46.287.985.26 1.485.416 0 .12.064.326-.088.382-.437.267-.96.086-1.397-.083-.125.154-.236.28-.357.438.57.406 1.306.598 1.969.309a1.17 1.17 0 00.71-1.187c-.052-.14-.18-.232-.306-.299-.506-.274-1.104-.22-1.65-.36-.01-.081-.037-.185-.046-.267.18-.125.399-.102.604-.112.338-.001.696-.042 1.035-.026v-1.046c.284.037.67-.095.887.152.136.134.215.34.166.536-.06.346-.4.544-.706.639.108.512.447.942.9 1.205.402.221.904.158 1.303-.046v.918h.774v-3.404l2.525.02v.951H25.45c-.284.002-.594.25-.543.558-.006.355.355.69.715.533.244-.072.375-.282.535-.457.27-.006.622.003.892 0v1.778h.656v-3.364h.418v-.527c-2.34-.006-4.68.008-7.02-.016-.099-.428-.446-.763-.838-.934-.554-.276-1.241-.301-1.797-.02zm14.65-.12c-.202.208-.487.366-.785.306-.188-.017-.329-.149-.477-.25-.156 0-.304.099-.438.175.185.505.794.817 1.307.64.336-.1.667-.296.835-.615a3.421 3.421 0 01-.442-.256zm-4.132 1.074a.79.79 0 00-.61.706c.126.092.222.21.363.279.25-.009.34-.32.614-.32.197-.032.455.148.472.355-.027.355-.399.697-.773.625v.395c.256.038.627-.1.746.218.008.255.08.606-.133.801a.538.538 0 01-.635.046c-.226-.111-.326-.359-.409-.581-.162.102-.322.206-.484.309.047.179.102.361.218.511.511.686 1.649.722 2.142 0 .225-.248.191-.594.137-.892-.028-.205-.228-.337-.366-.472.274-.237.334-.62.36-.96-.035-.775-.946-1.275-1.642-1.02zm1.816.005c.005.183.004.309 0 .492h.518v.856l-.594.001v.686h.594v1.874h.767v-3.416h.625v3.416h.703s.007-2.282.014-3.416c.334.059.749-.07 1.005.22.36.362.01 1.062-.486 1.052.061.406.127.877.506 1.121.476.353 1.084.21 1.612.07v.953h.737V26.65h3.443v.79c-.143.05-.322.135-.458.2-.358-.263-.766-.502-1.223-.505-.425-.032-.874.168-1.086.548-.232.324-.242.748-.17 1.125.16.544.569.94 1.047 1.227.106-.197.208-.35.304-.552-.248-.261-.62-.497-.62-.899-.037-.297.18-.587.45-.67.174-.05.374.079.472.22-.102.123-.264.175-.396.259.108.201.183.378.298.576.361-.23.779-.37 1.153-.576.07-.039.183-.083.261-.1v1.742h.778V26.65h.633a6.17 6.17 0 010-.5c-3.629-.008-7.258-.006-10.888-.001zM14.233 32c.832 2.892 2.62 5.5 4.988 7.345 1.235.972 2.64 1.72 4.116 2.25.697.239 1.413.407 2.132.561.65.13 1.313.165 1.972.222.586-.001 1.175.03 1.759-.044 1.236-.067 2.451-.36 3.62-.757a14.513 14.513 0 005.631-3.63C40 36.333 41.256 34.142 41.92 32H14.234z" fill="#02164F"/><path d="M18.427 26.158c.08-.478.573-.68.985-.638.38-.02.801.206.878.63-.621 0-1.242.024-1.863.008zm4.506.508l.83-.004c-.01.498.053 1.01-.101 1.494-.11.308-.448.546-.791.498-.206.002-.33-.181-.433-.326.173-.17.397-.313.49-.544.161-.354.086-.754.005-1.118zm12.273-.018c.286.005.571.006.857.003-.028.544.084 1.114-.117 1.634-.183.498-1.006.471-1.192-.008.246-.159.457-.382.503-.687.02-.313.038-.637-.051-.942z" fill="#02164F"/><circle cx="28" cy="28" r="15.75" stroke="#02164F" stroke-width=".5"/></svg>