<svg xmlns="http://www.w3.org/2000/svg" width="56" height="56"><path fill="#B1382D" d="M0 0h56v56H0z"/><path d="M16.25 19H13.1c-.16-.01-.52.08-.73.51-.2.44-.78 1.84-1.05 2.49h3.65l1.3-3zm-5.45 4h3.68L8.95 34.45c-.14.28-.45.53-.88.54-.44.02-2.2 0-3.07 0L10.8 23zm7.53-4H31.8l-1.37 3h-9.54c-.5 0-.81.43-.92.67l-5.43 11.4c-.4.8-.75.93-1.09.93h-3.32c2.33-4.91 7.03-14.87 7.27-15.4a1 1 0 01.94-.6zm11.77 4h-8.13a.91.91 0 00-.86.5c-.23.44-3.77 7.85-5.51 11.5h8.2c.22 0 .54-.11.7-.48l.9-1.77L26.77 30H23.1l-1.48 2.83c-.18.34-.63.56-.91.34-.28-.22-.2-.69-.07-.99l3.41-7.01c.13-.28.5-.6.93-.37.43.23.21.81 0 1.2l-1 2h3.74l2.38-5zm10.45 0h-8.13a.91.91 0 00-.86.5c-.23.44-3.77 7.85-5.5 11.5h8.19c.22 0 .54-.11.7-.48L36.7 31l1.26-2.55 2.6-5.45zm-6.36 5.46l-2.15 4.38c-.17.34-.62.56-.9.34-.29-.23-.2-.7-.08-.99l3.42-7.01c.12-.28.5-.6.93-.37.43.23.2.81 0 1.19l-1.22 2.46zM42.87 23H51l-2.6 5.45L47.14 31c-.79 1.6-1.62 3.27-1.73 3.52a.78.78 0 01-.71.48h-3.14l4.3-9c.2-.38.43-.96 0-1.19-.43-.22-.8.1-.93.37l-4.24 9.09c-.18.35-.43.6-.63.73H36.5c1.74-3.65 5.28-11.06 5.51-11.5a.91.91 0 01.86-.5z" fill="#fff"/></svg>