<svg width="56" height="56" viewBox="0 0 56 56" xmlns="http://www.w3.org/2000/svg"><path fill="#F0F3FA" d="M0 0h56v56H0z"/><path d="M37.26 16.05c-.52.02-1.17.12-1.45.5-.44.6-.07 1.85.23 2.6C38.98 21.47 41 24.92 41 28.6 41 35.35 35.01 41 28 41s-13-5.65-13-12.4c0-3.7 2.03-7.16 5-9.48.3-.75.71-2.08.25-2.66-.3-.37-1.06-.4-1.59-.36A15.2 15.2 0 0 0 12 28.6C12 37.1 19.16 44 28 44s16-6.9 16-15.4c0-5-2.51-9.66-6.74-12.55Z" fill="#009846"/><path d="M25.08 10s2.26 2.22.64 5.44c-1.61 3.22-6.68 10.47-7.32 12.08-.65 1.61-1.84 6.65 7.75 10.17 0 0-4.41-4.13-3.01-7.25 1.4-3.12 6.18-9.3 6.5-10.11 1.38-3.45-1.64-6.15-3.39-8.85 0 0-1.17-1.54-1.17-1.48Z" fill="#393185"/><path d="M31.62 19.13s.94 1.58-.75 4.83c-1.7 3.26-3.1 4.4-4.14 5.98-1.03 1.58-.66 4.09 1.13 5.05 0 0-.99-1.27.19-3.12 1.17-1.84 4.28-4.83 4.8-7.33.48-2.34-1.12-5.7-1.23-5.41Z" fill="#006CB5"/><path d="M34.82 22.08s.89 1.5.26 4c-.82 3.28-2.84 3.89-4.45 6.54a6.23 6.23 0 0 0-.94 4.44s.2-1.05 3.01-3.43c2.83-2.37 4.52-4.52 4.19-7.25a9.14 9.14 0 0 0-2.07-4.3Z" fill="#00A0E3"/></svg>