<svg xmlns="http://www.w3.org/2000/svg" width="56" height="56"><path fill="url(#aka3ydgym)" d="M0 0h56v56H0z"/><ellipse rx="9.98" ry="16.56" transform="matrix(.72922 .68428 -.67789 .73517 28 28)" fill="#FA841F"/><ellipse rx="8.91" ry="14.04" transform="matrix(.72922 .68428 -.67789 .73517 28.93 25.41)" fill="#9A0E17"/><path d="M29.6 39.49c-3.33 1.98-6.7 2.83-9.44 2.33 1.3-.42 2.84-1.69 3.85-4.75 1.57-4.76 1.8-7.84 1.8-8.79 0-1.2-1.47-1.17-2.74-.26-1.2.86-1.75.43-1.8.35-.59-1.38 6.07-6.12 9.06-5.69 1.2.18 1.23 1.02-.69 6.12-1.14 3.05-3 10.57-.04 10.69zm-.26-18.6c.83.78 2.48.35 3.7-.97 1.2-1.31 1.52-3.01.69-3.79-.83-.77-2.48-.34-3.7.98-1.2 1.31-1.52 3-.7 3.79z" fill="#fff"/><defs><linearGradient id="aka3ydgym" x1="28" y1="0" x2="28" y2="56" gradientUnits="userSpaceOnUse"><stop stop-color="#E0823B"/><stop offset="1" stop-color="#A53D35"/></linearGradient></defs></svg>