<svg width="56" height="56" viewBox="0 0 56 56" xmlns="http://www.w3.org/2000/svg"><path fill="#F0F3FA" d="M0 0h56v56H0z"/><circle cx="28" cy="28" r="17" fill="#1B1714"/><circle cx="28" cy="28" r="16.55" fill="#F15C62"/><circle cx="28" cy="28" r="13" fill="#F58881"/><circle cx="28" cy="28" r="9" fill="#FCC9C3"/><circle cx="28" cy="28" r="5" fill="#FCEAE2"/><path d="M25 16h6v1.44h-.17c-.73 0-1.33.62-1.33 1.38v18.36c0 .76.6 1.38 1.33 1.38H31V40h-6v-1.44h.17c.73 0 1.33-.62 1.33-1.38V18.82c0-.76-.6-1.38-1.33-1.38H25V16Z" fill="url(#a)"/><path d="M26 17c.67 0 2 .22 2 1.08v19.84c0 .86-1.33 1.08-2 1.08 1.02-.48 1.27-.92 1.27-1.08V18.08c0-.16-.25-.6-1.27-1.08Z" fill="#FBFFFF"/><path d="M39.44 27.58a.9.9 0 0 0-.21.44c0 .05.06.1.1.07l.9-.45c.02 0 .1.02.16.06.02 0 .02.02.02.03.02.09 0 .15-.07.19-.34.22-.7.37-1.07.44a.28.28 0 0 0-.12.06.23.23 0 0 0-.07.1l-1.03 2.9a.74.74 0 0 1-.49.46 6.1 6.1 0 0 1-.3.1c-.24.06-.31-.01-.22-.22.46-1.08.88-2.15 1.26-3.2 0-.04-.02-.08-.06-.09-.13-.03-.2-.08-.24-.17-.01-.04 0-.07.04-.1.28-.2.46-.32.56-.62.28-.92.6-1.82.93-2.7a8.9 8.9 0 0 1 1.33-2.4c.15-.2.31-.34.49-.44a.4.4 0 0 1 .26-.03c.08.01.16.06.21.12.39.5.06 1.87-.14 2.26a18.63 18.63 0 0 1-2.24 3.19Zm.35-1.25c-.07.19-.04.2.1.04.15-.19.32-.43.5-.74.38-.65.71-1.36 1-2.14.11-.32.19-.63.22-.93.02-.14-.03-.16-.15-.07a30.1 30.1 0 0 0-1.68 3.83ZM35.4 24.77a1.06 1.06 0 0 1-.63-.3.1.1 0 0 1 .03-.15c.25-.14 2.14-1.05 1.72-1.63-.18-.23-.62-.28-.93-.28a4.4 4.4 0 0 0-2.64.77c-.42.29-.9.82-.66 1.36.08.18.24.39.49.64.17.17.65.54 1.45 1.1 1.41 1 1.27 2.74-.37 3.4-.4.15-.8.24-1.2.28a8.2 8.2 0 0 1-3.71-.48.15.15 0 0 0-.12 0c-.2.1-.33.3-.54.34-.46.1-.65-.2-.57-.6.03-.17 0-.2-.12-.07l-.36.4c-.3.22-.51.32-.66.3-.71-.13-.67-.81-.4-1.33.31-.72 1.06-1.45 1.93-1.3.15.1.36.13.64.08.07-.01.15.02.22.09l-.66 1.86c-.04.09 0 .13.1.12.06 0 .14-.06.22-.14l.38-.37c.04-.03.07-.04.12 0 .3.19.94.4 1.92.62.72.16 1.44.16 2.18.01.42-.08 1.05-.42 1.25-.82.21-.43.16-.86-.16-1.3a3.84 3.84 0 0 0-.56-.5l-1.4-1.13c-.57-.52-.98-1.19-.6-2.02.4-.74 1.28-1.23 2.1-1.44.79-.25 2.02-.46 2.74-.04.33.2.46.49.38.86-.15.68-1 1.33-1.57 1.67Zm-8.63 4.6c.54-.09 1.1-1.08 1.32-1.46.12-.21.06-.32-.19-.33h-.04a.62.62 0 0 0-.6.26c-.29.4-.68 1.04-.61 1.45a.1.1 0 0 0 .12.09ZM18 22.97a13.71 13.71 0 0 1-1 4.22c-.03.06.01.13.07.13h.5c.21 0 .16.42-.05.38l-.56-.12a.1.1 0 0 0-.1.04c-.3.58-.5.94-.59 1.08a3.05 3.05 0 0 1-1.84 1.27c-.83.1-1.58-.02-2.27-.36-.17-.08-.2-.2-.1-.37l.02-.04c.1-.17.21-.2.37-.1.4.28.85.45 1.35.5.92.07 1.53-.45 1.96-1.23l.49-.87a.2.2 0 0 0-.04-.25 2.1 2.1 0 0 1-.71-1.4 4.62 4.62 0 0 1 1.4-3.64c.32-.3.7-.3.92.09.1.17.15.39.18.67Zm-1.54 3.98c.38-1.02.7-2.06.94-3.12.1-.42.16-.84.16-1.26 0-.15-.15-.25-.27-.18a.75.75 0 0 0-.3.32l-.5.96a6.3 6.3 0 0 0-.44 1.78 2.4 2.4 0 0 0 .33 1.5c.03.06.05.06.08 0ZM41.75 29.95c-.68.22-.85-.3-.7-.85.19-.72.37-1.33.55-1.81a.08.08 0 0 0-.05-.1l-.19-.06a.11.11 0 0 1-.08-.1.27.27 0 0 1 .05-.21c.06-.08.22-.04.3-.04.05 0 .08-.03.1-.07l.38-1.35c.12-.33.33-.43.62-.3.07.03.12.12.1.2l-.43 1.4c-.02.05.02.1.08.1h.4c.08 0 .12.04.12.12v.06c0 .1-.09.2-.19.2h-.46c-.04 0-.07.01-.08.05-.25.73-.47 1.46-.66 2.2-.02.07 0 .18.1.17a.1.1 0 0 0 .05-.02l.64-.51a.11.11 0 0 1 .06-.03c.05 0 .12.03.14.08.03.1.01.17-.05.22l-.8.65ZM20.38 27.1c.16.2.21.44.16.7-.1.47-.26.97-.47 1.49-.04.1-.01.16.08.18a6.61 6.61 0 0 0 .52-.5.3.3 0 0 1 .16-.1c.08-.02.13 0 .16.06.02.04.01.08-.01.12-.13.23-.3.42-.48.58-.2.23-.38.36-.5.37-.5.03-.54-.4-.42-.84.12-.49.28-1 .46-1.55a.2.2 0 0 0 0-.13c-.07-.15-.15-.16-.24-.02-.5.78-.96 1.62-1.37 2.51-.18-.02-.31-.05-.38-.11-.05-.04-.06-.08-.04-.14l.6-2.35c.04-.17.13-.27.27-.3l.16-.05c.15-.04.2.03.17.2-.06.28-.15.56-.27.83-.02.06.09.15.13.08.15-.27.3-.53.48-.79.23-.35.51-.43.83-.24ZM25 27.6c0 .24-.03.45-.1.63a.97.97 0 0 1-.36.36c-.08.04-.17-.07-.14-.18l.13-.56c.03-.14 0-.16-.08-.06-.12.13-.23.34-.36.61-.2.48-.39.94-.53 1.38-.04.13-.15.22-.25.22h-.17c-.12 0-.17-.08-.13-.24.16-.61.28-1.24.37-1.89.05-.3.1-.5.14-.57a.52.52 0 0 1 .48-.26c.07 0 .12.1.09.17l-.18.6c-.09.27-.06.3.08.06l.36-.62c.3-.5.64-.17.65.36Z" fill="#1B1714"/><path d="M36.6 29.85c-.57.28-1.27.19-1.53-.44-.24-.62.17-1.32.62-1.75.25-.26.54-.45.87-.57.95-.36 1.68.4 1.36 1.34a2.51 2.51 0 0 1-1.32 1.42Zm-.7-.25c.13.06.31 0 .5-.16a2.47 2.47 0 0 0 .83-1.55c.02-.25-.04-.43-.16-.5-.13-.05-.3 0-.5.16s-.4.42-.55.7c-.15.3-.25.6-.27.85-.01.13 0 .24.02.32.03.08.07.14.14.18ZM21.59 29.52a.05.05 0 0 0 .06.04c.2-.08.4-.25.64-.5a.23.23 0 0 1 .24-.04c.03 0 .05.05.06.13a.1.1 0 0 1-.02.09c-.34.42-.66.67-.97.74-.47.1-.65-.2-.59-.62.03-.16.03-.33.07-.48.16-.57.33-1.1.52-1.61.04-.13-.2-.15-.27-.17a.11.11 0 0 1-.08-.08c-.02-.11.02-.19.13-.23a.86.86 0 0 1 .23-.06c.05 0 .07-.03.09-.07l.42-1.4c.05-.17.16-.26.34-.26h.17c.16 0 .22.08.17.24l-.43 1.45c-.01.03.01.06.04.06h.46c.09 0 .13.04.13.13v.07c0 .12-.06.17-.17.17h-.53c-.04 0-.06.02-.07.06l-.45 1.47c-.1.35-.17.64-.2.87Z" fill="#1B1714"/><defs><linearGradient id="a" x1="28" y1="16" x2="28" y2="40" gradientUnits="userSpaceOnUse"><stop stop-color="#484FA9"/><stop offset=".48" stop-color="#CDCAE0"/><stop offset="1" stop-color="#40509F"/></linearGradient></defs></svg>