<svg width="56" height="56" xmlns="http://www.w3.org/2000/svg"><path fill="#062F62" d="M0 0h56v56H0z"/><path d="M17.061 30.355l10.754-18.352c-.67 4.189-1.342 8.376-2.011 12.565-.005.043-.048.068-.074.1-4.577 4.776-9.154 9.551-13.73 14.328 1.684-2.882 3.375-5.76 5.061-8.64zM28.172 12C33.45 20.999 38.722 30 44 39c-2.103-2.187-4.2-4.379-6.302-6.567l-7.492-7.81c-.026-.033-.022-.079-.03-.117-.667-4.169-1.337-8.337-2.004-12.506zM20.497 31.167c.137-.145.25-.167.406-.167.892-.004 1.785 0 2.677 0-1.544 2.758-3.096 5.242-4.64 8h-5.595l7.152-7.833zM24.464 31h4.672l.415 2h-1.546v6H23.11l1.75-6h-1.378l.982-2zM30.69 31h4.416l2.068 2.004h-3.165c-.209.005-.366.248-.266.431.32.585.86 1.387 1.182 1.971.126.271.417.59.722.594h4.15l2.842 3h-9.87a1.079 1.079 0 01-.785-.589s-1.228-4.703-1.765-6.809c-.082-.34.113-.602.47-.602z" fill="#fff"/></svg>