<svg width="56" height="56" viewBox="0 0 56 56" xmlns="http://www.w3.org/2000/svg"><path fill="#F0F3FA" d="M0 0h56v56H0z"/><path d="M25 24.71 29 21v13h-4v-9.29ZM34 21l-4 3.71V34l12-13h-3.53L34 26v-5ZM47 21h-3l-4 4.5V34h4V24h2a2 2 0 1 1 0 4h-1v3h2a5 5 0 0 0 0-10Z" fill="#4BA562"/><path fill-rule="evenodd" d="m21.15 31.54-6.97-11.19a.81.81 0 0 0-1.36 0L5.85 31.54h.46l6.1-8.99c.5-.73 1.68-.73 2.18 0l6.1 8.99h.46Zm-8.33-8.76-5.94 8.76h.47l5.35-7.16c.38-.5 1.22-.5 1.6 0l5.35 7.16h.47l-5.94-8.76a.85.85 0 0 0-1.36 0Zm6.26 8.76L13.9 24.6a.52.52 0 0 0-.8 0l-5.18 6.93h.48l4.59-5.32a.7.7 0 0 1 1.02 0l4.6 5.32h.47Zm-1.56 0h.5l-4.4-5.08a.18.18 0 0 0-.25 0L9 31.54h.5l3.5-3.35a.8.8 0 0 1 1.03 0l3.5 3.35Zm-.64 0-3.25-3.11a.2.2 0 0 0-.26 0l-3.25 3.1h6.76ZM14.6 20.12c-.5-.8-1.69-.8-2.18 0L5 32h17l-7.4-11.88Z" fill="#4BA562"/><path fill-rule="evenodd" d="M13.5 38a9.5 9.5 0 1 0 0-19 9.5 9.5 0 0 0 0 19Zm0-.72a8.78 8.78 0 1 0 0-17.56 8.78 8.78 0 0 0 0 17.56Z" fill="#3A3F95"/></svg>