<svg xmlns="http://www.w3.org/2000/svg" width="56" height="56"><path fill="#F0F3FA" d="M0 0h56v56H0z"/><path d="M45.72 22.21L35.82 27H47c-.09-1.7-.53-3.36-1.28-4.79z" fill="#F58220"/><path d="M30.77 16.18A11.98 11.98 0 0024 27h1.41a10.5 10.5 0 012.61-7.03 10.28 10.28 0 0114.62-.85l-6.93 7.87h.11L46.52 22A11.97 11.97 0 0036 15a11.7 11.7 0 00-5.23 1.18z" fill="#ED1C24"/><path d="M28.69 24.43a7.5 7.5 0 019.34-5.13l-2.22 7.57 6.83-7.75a10.28 10.28 0 00-14.62.85 10.5 10.5 0 00-2.6 7.03h2.97c-.04-.84.05-1.72.3-2.57z" fill="#F58220"/><path d="M35.83 21.57A5.4 5.4 0 0030.45 27h10.72a5.36 5.36 0 00-5.34-5.43z" fill="#FFF200"/><path d="M35.83 21.57c.5 0 1 .07 1.48.2l.72-2.47A7.5 7.5 0 0028.4 27h2.06a5.41 5.41 0 015.38-5.43z" fill="#FDB913"/><path d="M41.87 29c-1.22 0-2.18.12-2.87.39V35h2v-4.87c.23-.06.43-.13.82-.13.8 0 1.18.42 1.18.84V35h2v-4.17c0-1.08-.94-1.83-3.13-1.83zM28 29.4V35h2v-4.84a1.6 1.6 0 011.32.03l.37-1.17c-1.85-.08-2.92.07-3.69.38zm-13.56 0c.51-.18 1.45-.4 2.72-.4 1.64 0 2.84.5 2.84 2.12v3.54c-.6.27-1.58.34-2.82.34-2.1 0-3.18-.54-3.18-1.77 0-1.53 1.72-2.3 4-2.23v-.2c0-.61-.46-.8-1.23-.8-.7 0-1.4.2-1.87.38l-.46-.98zm2.84 4.6c.31 0 .53-.05.72-.13V32c-1.26.1-2.03.22-2.03 1.16 0 .7.48.84 1.31.84zm15.16-4.6c.51-.18 1.45-.4 2.72-.4 1.64 0 2.84.5 2.84 2.12v3.54c-.6.27-1.58.34-2.82.34-2.1 0-3.18-.54-3.18-1.77 0-1.53 1.72-2.33 4-2.23v-.2c0-.61-.46-.8-1.23-.8-.7 0-1.4.2-1.87.38l-.46-.98zm2.84 4.6c.31 0 .53-.05.72-.13V32c-1.26.1-2.03.22-2.03 1.16 0 .7.48.84 1.31.84zm-11.53 1C22.03 35 21 33.91 21 32.14c0-1.98 1.02-3.14 3.48-3.14 1.1 0 2.01.13 2.52.39v5.2c0 1.69-1.27 2.41-3.1 2.41a7.2 7.2 0 01-2.7-.39l.46-1c.43.2 1.2.39 1.87.39 1.1 0 1.47-.32 1.47-1v-.15c-.24.11-.65.15-1.25.15zm.56-1c.25 0 .54-.05.69-.14V30.1c-.14-.07-.4-.11-.65-.11-.9 0-1.35.58-1.35 2 0 1.34.44 2 1.31 2zM11 35.69c0 .68-.38 1.11-1.43 1.11-.27 0-.55-.03-.8-.08l-.4 1.14c.46.09 1 .14 1.56.14 1.76 0 3.07-.8 3.07-2.53V28h-2v7.69z"/></svg>