<svg width="56" height="56" viewBox="0 0 56 56" xmlns="http://www.w3.org/2000/svg"><path fill="#F0F3FA" d="M0 0h56v56H0z"/><path fill-rule="evenodd" d="M38.75 19.56v-.01l.34-2.86v-.02a.03.03 0 0 0 0-.01.04.04 0 0 0-.04 0l-2.78.6c-.04 0-.06 0-.05-.05l1.4-5.53a.04.04 0 0 0 0-.02.04.04 0 0 0-.03-.03h-.02l-.03.01a1393.72 1393.72 0 0 1-4.46 3.64l-.02-.01-1.12-2.61c-.01-.04-.03-.04-.06-.02l-2.1 1.9a.05.05 0 0 1-.04.01.05.05 0 0 1-.03-.03l-1.55-5.45c-.03-.1-.06-.1-.1 0l-1.98 5.33a.05.05 0 0 1-.04.03.05.05 0 0 1-.04-.01l-2.24-1.68c-.05-.03-.08-.02-.1.03a847.52 847.52 0 0 1-.89 2.72h-.01l-4.12-4a.04.04 0 0 0-.04-.02h-.02a.03.03 0 0 0 0 .02v.03a2160.82 2160.82 0 0 1 .93 5.68v.02a.03.03 0 0 1-.01.01h-.02l-2.8-.32a.04.04 0 0 0-.05.03v.02l.58 2.73c.02.06 0 .09-.07.07l-5.51-1.39c-.02 0-.04 0-.04.02v.04a4879.44 4879.44 0 0 0 3.66 4.46v.02l-.02.02-2.6 1.1a.05.05 0 0 0-.03.04v.02l.02.03 1.9 2.1.01.01v.02a.03.03 0 0 1-.02.02l-5.48 1.55a.04.04 0 0 0-.02.03.05.05 0 0 0 0 .01v.02a.05.05 0 0 0 .03.04l5.33 2a.04.04 0 0 1 .02.03.03.03 0 0 1 0 .03l-1.7 2.27c-.01.03 0 .05.03.06l2.69.87.01.01a.03.03 0 0 1 0 .03v.01a962.79 962.79 0 0 0-3.94 4.08c-.08.08-.07.11.05.1l5.63-.94a.04.04 0 0 1 .01 0h.02a.04.04 0 0 1 .01.04l-.34 2.82v.01l.01.02h.03l2.8-.6a.03.03 0 0 1 .03.01.03.03 0 0 1 0 .04l-1.4 5.54a.03.03 0 0 0 0 .02l.01.01a.03.03 0 0 0 .03 0c.03 0 .05 0 .08-.03a3328.87 3328.87 0 0 1 4.41-3.6h.02l.02.02 1.1 2.57c.02.05.05.06.1.02l2.1-1.92c.02-.01.03 0 .03.01a2662.18 2662.18 0 0 1 1.53 5.45l.02.07c0 .02.02.03.05.03.03 0 .05-.02.06-.05a2254.95 2254.95 0 0 1 2.03-5.37h.01a.04.04 0 0 1 .02 0l2.26 1.71a.05.05 0 0 0 .04 0 .05.05 0 0 0 .04-.02l.8-2.58.04-.13a.05.05 0 0 1 .01-.01.05.05 0 0 1 .07 0l4.1 4c.02.02.05.02.06-.02v-.09a1227.82 1227.82 0 0 0-.92-5.66h.01l2.82.34a.05.05 0 0 0 .06-.05l-.6-2.78a.03.03 0 0 1 .02-.04h.01l5.58 1.4h.04l.01-.03v-.02a16649.53 16649.53 0 0 1-3.7-4.5L43.33 32a.06.06 0 0 0 .03-.07v-.01l-.01-.02-1.91-2.1v-.02a.03.03 0 0 1 .01-.02 954.75 954.75 0 0 0 5.32-1.5c.05 0 .1-.01.14-.03.13-.04.13-.08 0-.13L41.6 26.1c-.02 0-.03-.02-.03-.04l.02-.05a1141.55 1141.55 0 0 1 1.68-2.24.06.06 0 0 0-.05-.07l-2.7-.86c-.02-.02-.03-.03 0-.06l2.11-2.16 1.68-1.72.18-.2c.06-.07.04-.1-.04-.08l-5.68.95-.01-.01ZM28.05 9.9l-1.77 4.75v.01h.01a16.47 16.47 0 0 1 3.17 0L28.1 9.9c-.01-.05-.03-.05-.05 0ZM22.5 15.7c-.91.4-1.77.89-2.6 1.5-.06.04-.09.03-.1-.03l-.82-4.91c0-.03 0-.03.03-.01l3.5 3.4v.02a.03.03 0 0 1 0 .03Zm10.68-.03.3.14a13.03 13.03 0 0 1 2.43 1.42h.01l.01-.02 1.22-4.82c0-.01 0-.02-.02-.03l-.03.01a1202.78 1202.78 0 0 0-3.94 3.28.04.04 0 0 0 .02.02Zm-1.33-2.52 1 2.35a.02.02 0 0 1 0 .01.02.02 0 0 1 0 .02h-.03a13.13 13.13 0 0 0-2.8-.8v-.02l1.75-1.58h.02a.05.05 0 0 1 .06.02Zm-8.03.08-.7 2.16a.03.03 0 0 0 .03.04h.02a13.63 13.63 0 0 1 2.71-.71.02.02 0 0 0 0-.03l-1.98-1.48a.05.05 0 0 0-.03-.01h-.02a.05.05 0 0 0-.03.03Zm12.6 4.28 2.32-.5h.02v.01a170.94 170.94 0 0 1-.33 2.67.03.03 0 0 1-.03 0 14.64 14.64 0 0 0-2.03-2.1.06.06 0 0 1 .01-.06.06.06 0 0 1 .04-.02Zm-17.03-.02-.15-.01c-.76-.08-1.5-.16-2.22-.26-.03 0-.04.01-.04.05l.47 2.16a.04.04 0 0 0 .03.03.04.04 0 0 0 .04-.02c.56-.67 1.19-1.3 1.89-1.87.05-.04.05-.07-.02-.08Zm-2.36 2.58a13.58 13.58 0 0 0-1.53 2.63.04.04 0 0 1-.03-.02l-3.16-3.82c-.02-.04-.02-.05.02-.03l.29.07a267.53 267.53 0 0 0 4.41 1.14v.03Zm21.82-.24a4.57 4.57 0 0 1-.27.05v.02a14.08 14.08 0 0 1 1.61 2.75.04.04 0 0 0 .02 0 .04.04 0 0 0 .02 0h.01l3.5-3.6c.03-.04.03-.05-.02-.05a.48.48 0 0 0-.1.03l-.09.02-4.68.78Zm1.65 3.3 2.29.73a.03.03 0 0 1 .02.02v.03l-1.6 2.12-.02.01a.03.03 0 0 1-.02 0 .04.04 0 0 1-.02-.03c-.14-.93-.37-1.84-.7-2.72a.23.23 0 0 1-.02-.1.06.06 0 0 1 .03-.05h.04Zm-25.27.1a418 418 0 0 0-2.14.94.06.06 0 0 0 .01.05l1.46 1.6a.03.03 0 0 0 .03.02.03.03 0 0 0 .02-.03 12.92 12.92 0 0 1 .68-2.58H15.23Zm29.98 4.51.2.08c.07.02.07.04-.01.04a231.5 231.5 0 0 1-4.08 0 .04.04 0 0 1-.03 0v-.01a.04.04 0 0 1 0-.02c.01-.48-.02-1-.11-1.53 0-.03 0-.05.04-.03 1.5.57 2.83 1.06 4 1.47Zm-30.76-1.16a568.4 568.4 0 0 0-4.32 1.2c-.19.05-.18.08.01.08a400.69 400.69 0 0 0 4.28 0 .08.08 0 0 0 .02-.03v-.03c0-.38.03-.77.07-1.17 0-.04-.02-.06-.06-.05Z" fill="#ED1C27"/><path d="M22.95 24h-1.9a.05.05 0 0 0-.05.05v3.9c0 .03.02.05.05.05h1.9c.03 0 .05-.02.05-.05v-3.9a.05.05 0 0 0-.05-.05ZM33.15 27.99l-.02.01h-1.59l-.02-.01v-.03l-.01-1.16c0-.2.03-.4.1-.62.23-.74.79-2.18 1.7-2.18h3.26a.03.03 0 0 1 .02.01v.01l.01.02V26h-2.38c-.73 0-1 1.36-1.07 1.99Z" fill="#F0F3FA"/><path fill-rule="evenodd" d="M29.24 27.95c.7-.7 1.16-1.53.87-2.5-.23-.76-.94-1.2-1.71-1.38a5.43 5.43 0 0 0-1.15-.07 130.9 130.9 0 0 1-3.23.02.06.06 0 0 0-.02.04V28h5.06l.11-.01c.03 0 .05-.02.07-.04Zm-2.83-2.53v1.82h.98a.84.84 0 0 0 .86-.85v-.14a.84.84 0 0 0-.25-.6.86.86 0 0 0-.61-.25h-.94a.04.04 0 0 0-.03.01l-.01.01Z" fill="#F0F3FA"/><path d="M37 28.4h-1.96a.05.05 0 0 0-.04.03v.98l.01.06.04.05c.27.2.49.52.49.87a35.62 35.62 0 0 1-.02.96h-.03l-1.14.01c-.66.01-1.04-.76-1.15-1.3a5.9 5.9 0 0 1-.07-2.03c0-.02.01-.03.03-.03h7.82c.02 0 .03.02.03.04a13.1 13.1 0 0 1-5.92 11.05 13.06 13.06 0 0 1-14.62-.11A13.13 13.13 0 0 1 14.75 28h.02L21 28v3.42c0 .01 0 0 0 0h-1.63c-.2 0-.35-.1-.47-.24-.14-.15-.7-.11-.9-.1V33h3.8c.04 0 .08 0 .11-.03.4-.21 1-.6 1.06-1.06 0-.03.03-.17.03-.42V28h1v5h4.78c.2 0 .37-.06.52-.17.6-.43 1.1-.82 1.34-1.53.26-.8.01-1.76-.43-2.45a3.25 3.25 0 0 0-.64-.78c-.03-.03-.03-.07.02-.07h1.91l.01.01v3.07c0 .94.91 1.52 1.9 1.87.07.03.15.05.24.05h3.33c.02 0 .02-.05.02-.05V28.4Z" fill="#F0F3FA"/><path d="M26.44 29.06c0-.02 0-.03.02-.04a.07.07 0 0 1 .05-.02h.98c.25 0 .48.1.66.26.18.17.28.4.28.65v.17a.9.9 0 0 1-.27.65.94.94 0 0 1-.66.27h-.98c-.02 0-.04 0-.05-.02a.12.12 0 0 1-.03-.06v-1.86Z" fill="#F0F3FA"/></svg>