<svg width="56" height="56" viewBox="0 0 56 56" xmlns="http://www.w3.org/2000/svg"><path fill="#F0F3FA" d="M0 0h56v56H0z"/><path d="M30.61 13.5c-.36.12-.73.03-1.12-.28a.23.23 0 0 1-.06-.29c.06-.1.03-.16-.09-.18a3.15 3.15 0 0 0-1.27 0c-.14.03-.14.07 0 .11l.36.11c.15.05.15.1 0 .14-.4.15-.83.17-1.26.04a.16.16 0 0 1-.12-.11.17.17 0 0 1 .04-.17.15.15 0 0 0 .04-.13c-.03-.14-.1-.17-.21-.08-.26.2-.55.21-.89.04a.3.3 0 0 0-.18-.04l-.83.08c2.45-1.2 4.32-.94 5.6.76Z" fill="#8D3D37"/><path d="m30.61 13.5.06 1.71c-.4-.24-.78-.5-1.16-.76a3.39 3.39 0 0 0-.8-.37c-.3-.1-.53-.2-.68-.3-.3-.18-.69-.14-1.17.12a.55.55 0 0 1-.26.07h-.28c-.1 0-.15.04-.16.14-.04.22.03.36.2.4-.37.36-.8.44-1.27.25a.13.13 0 0 1-.08-.1c-.01-.05 0-.09.03-.13.14-.15.16-.34.08-.55a.2.2 0 0 0-.17-.14c-.29-.04-.46-.22-.53-.55l.6-.55.83-.08a.3.3 0 0 1 .18.04c.34.17.63.16.89-.04.11-.09.18-.06.2.08.02.05 0 .1-.03.13a.17.17 0 0 0-.04.17c.02.06.06.1.12.12.43.12.85.1 1.27-.05.14-.05.14-.1 0-.14l-.37-.11c-.14-.04-.14-.08 0-.11.4-.09.82-.09 1.27 0 .12.02.15.08.09.18a.23.23 0 0 0 .06.29c.39.31.76.4 1.12.28Z" fill="#EEAA73"/><path d="M24.42 13.3c.07.32.24.5.53.54a.2.2 0 0 1 .17.14c.08.21.06.4-.08.55a.13.13 0 0 0-.03.13c0 .05.03.08.08.1.48.2.9.1 1.26-.25.22-.07.42-.15.6-.25.06-.03.06-.05 0-.07-.02-.01-.04-.03-.04-.06 0-.05 0-.07.05-.06l.88.16c.03 0 .04.02.05.05.02.1-.05.14-.2.14-.48.03-.94.16-1.38.4-.18.1-.45.19-.8.29-.28.08-.5.15-.64.21a.23.23 0 0 1-.23-.02l-.53-.33c-.27-.48-.17-1.04.31-1.68Z" fill="#FCF2DC"/><path d="M30.67 15.21c-.04.2-.12.37-.23.5a.36.36 0 0 0 .04.5c.26.22.5.47.71.75a18.09 18.09 0 0 1 2.34 3.65l1.06 2.44c.08.2.18.5.3.92l.18.63c.03.1.03.2 0 .3-.04.15-.03.3.04.44.1.22.2.59.3 1.11l.1.5c.1.37.17.79.22 1.24.08.55.19 1.26.35 2.13.07.43 0 .88-.21 1.33a.48.48 0 0 1-.25.1c-.12.02-.15-.03-.1-.13l.13-.28c.05-.11.02-.19-.09-.23l-.37-.15c-.1-.03-.13-.1-.11-.2a.41.41 0 0 0-.1-.38 1.86 1.86 0 0 0-.34-.28l-.22-.17c-.25-.24-.22-.3.1-.17l.74.28c.08.04.13.1.14.18.02.2.08.4.18.59.09.17.17.16.25 0a.6.6 0 0 0 .03-.46.66.66 0 0 0-.16-.26c-.3-.31-.63-.57-.96-.76a.26.26 0 0 1-.14-.2c-.04-.27-.22-.47-.52-.6.04-.08.04-.16 0-.25-.02-.11 0-.19.06-.23.14-.1.3-.02.47.25.17.2.25.4.25.58 0 .18.08.29.25.33l.13.03c.18.05.26-.02.24-.21l-.16-1.56c-.22-.17-.49-.26-.78-.25a.63.63 0 0 1-.05-.45c.03-.1.09-.12.18-.07.1.06.22.1.34.13.1.03.16-.02.15-.13v-.12a.27.27 0 0 0-.2-.27c-.2-.06-.42-.17-.65-.31a.3.3 0 0 1-.14-.2.55.55 0 0 1 0-.27c.02-.1 0-.19-.08-.26l-.15-.13c-.14-.13-.2-.1-.18.09.06.63.19 1.2.4 1.71.03.1.11.2.24.34l.11.13.7.38c.08.12 0 .23-.28.33a.32.32 0 0 1-.19-.04c-.08-.06-.1-.14-.06-.23v-.08a.12.12 0 0 0-.13-.07c-.32.02-.61-.13-.9-.44-.13-.17-.28-.17-.44-.02a.42.42 0 0 1-.16.1c-.1.02-.17-.01-.2-.11-.09-.3-.24-.42-.47-.36l-.22-.07a.25.25 0 0 1-.16-.17c-.07-.19-.02-.3.15-.34.35.03.35-.3.02-.98h.09c.14.26.3.4.48.43.06 0 .1 0 .15-.05a.16.16 0 0 0 .05-.14c-.04-.3-.14-.55-.31-.75a.28.28 0 0 1-.06-.3c.15-.36.14-.73-.01-1.12-.03-.3.04-.5.2-.6.08-.04.13-.02.17.06l.41.99.4.95c.03.08.1.12.18.12l.88-.07c.09 0 .14-.05.16-.14.03-.22-.05-.38-.24-.5a.1.1 0 0 1-.05-.09c.01-.34-.14-.65-.47-.93a.28.28 0 0 1-.11-.23c0-.35-.12-.45-.38-.32-.28.03-.46-.06-.53-.3l.5-.08c.07-.01.08-.05.03-.11a5.36 5.36 0 0 0-1.55-1.3c-.09-.04-.18-.19-.27-.43-.03-.2-.04-.4-.04-.62 0-.12-.05-.17-.15-.14a.6.6 0 0 0-.32-.46 1.21 1.21 0 0 0-.54-.07l-.2-.41a.6.6 0 0 0-.13-.15.32.32 0 0 1-.12-.24.45.45 0 0 0-.1-.24.23.23 0 0 0-.2-.1c-.22 0-.44-.04-.66-.15a.09.09 0 0 0-.1 0 .08.08 0 0 0-.03.1c.03.11.1.16.22.14.12-.02.2.03.25.15.12.3.07.47-.14.52-.3-.3-.34-.03-.15.83-.13 0-.29-.02-.48-.04-.08 0-.16.07-.21.2l-.26.36c-.15.08-.18.3-.1.66.06.1.06.2 0 .3-.1.1-.11.18-.05.23a3.38 3.38 0 0 0 0 1.68c.07.25.15.26.25.01l.1-.24c.04-.1.11-.12.2-.06l.2.13c.06.1.12.16.18.18l-.01.1c-.3 0-.46.15-.47.46-.01.31.05.57.19.75.05.07.1.03.18-.11-.05.1-.03.19.06.28l-.2.02-.33-.16a.38.38 0 0 1-.13-.1c-.44-.6-.7-1.2-.8-1.83l.14-1.63c.01-.1-.04-.17-.15-.19a.41.41 0 0 1-.32-.25c-.2-.43-.36-.41-.5.04-.01.05 0 .14.02.28.02.08.06.15.12.2.09.08.13.19.13.32-.45-.16-.64-.57-.6-1.23.17-.36.1-.6-.2-.69-.21-.06-.36-.26-.46-.58.1-.23.15-.47.15-.72 0-.1-.05-.15-.15-.17a1.12 1.12 0 0 1-.23-.07c-.14-.06-.13-.11.01-.15.07-.02.14-.03.22-.02.04 0 .07-.01.1-.05a.1.1 0 0 0 0-.1.75.75 0 0 0-.25-.29c-.1-.07-.18-.04-.21.08-.07.22-.19.4-.36.56-.23.2-.19.31.12.32.13 0 .26 0 .39.04.08.01.13.06.15.14.02.08 0 .13-.08.15l-.57.22a.52.52 0 0 0-.22.16l-.59.74c-.12.15-.16.13-.11-.06a.61.61 0 0 1 .32-.41.14.14 0 0 0 .07-.12c.01-.05 0-.1-.04-.13-.25-.24-.5-.36-.75-.36-.11 0-.18.06-.2.17a2.9 2.9 0 0 1-1.48 2.03c-.33.55-.52.97-.57 1.27-.1.58-.22 1.14-.36 1.68-.05.24-.23.38-.51.45-.1.02-.13-.02-.1-.11.58-2.1 1.58-4.07 3.01-5.9.07.17.2.25.38.24.05 0 .08-.03.11-.07a.18.18 0 0 0 .04-.12c0-.03 0-.05.02-.07l1.31-1.65c.04-.05.08-.05.13 0l.06.05c.06.05.12.08.2.1.16 0 .25-.06.26-.2.09-.06.17-.06.23 0 .02.19.06.36.14.5.05.09.12.1.2.06.22-.11.28-.3.2-.57a.06.06 0 0 1 0-.07.06.06 0 0 1 .08-.02c.5.2 1.04.27 1.6.2.19-.02.33.04.42.2.09.15.2.22.34.2.08 0 .13-.03.15-.1a.16.16 0 0 0-.04-.18c-.18-.19-.2-.37-.06-.54a.23.23 0 0 1 .13-.08c.03 0 .06-.02.09-.04.1-.06.1-.13.03-.2a2.8 2.8 0 0 0-2.07-.91c.05-.1.04-.2 0-.31.15 0 .22-.04.2-.14 0-.03-.02-.05-.05-.05l-.88-.16c-.04 0-.06.01-.05.06 0 .03.02.05.04.06.06.02.06.04 0 .07-.18.1-.38.18-.6.25-.16-.04-.23-.18-.2-.4.02-.1.08-.14.17-.14h.28c.09 0 .18-.02.26-.07.48-.26.87-.3 1.17-.12.15.1.38.2.69.3.35.12.62.25.8.37.37.26.76.52 1.15.76Z" fill="#4A3A34"/><path d="M27.69 14.42c.04.11.05.22 0 .3l-.58.36c-.08.1-.13.2-.15.28-.01.38-.14.6-.38.66-.07.02-.11.07-.11.15l.01.1c-.06-.05-.14-.05-.23 0l-.44-.07c-.1-.01-.1-.05-.03-.11.07-.07.2-.12.4-.15l.1-.4a.18.18 0 0 1 .16-.14c.1-.02.16-.08.19-.2.02-.11-.02-.15-.14-.12-.2.07-.44.23-.7.5l-.28.43c-.04.07-.1.1-.19.08-.28-.06-.45 0-.5.16-.33-.06-.57-.49-.71-1.28l.53.33c.08.05.15.06.23.02.15-.06.36-.13.64-.21.35-.1.61-.2.8-.3.44-.23.9-.36 1.38-.4Z" fill="#8D3D37"/><path d="M27.69 14.73a2.8 2.8 0 0 1 2.07.9c.07.08.07.15-.03.21a.26.26 0 0 1-.09.04.23.23 0 0 0-.13.08c-.14.17-.12.35.06.54.06.05.07.11.04.18a.16.16 0 0 1-.15.1c-.14.02-.25-.05-.34-.2a.39.39 0 0 0-.41-.2c-.57.07-1.1 0-1.61-.2a.06.06 0 0 0-.07.02c-.02.02-.03.04-.02.07.1.27.03.46-.19.57-.08.05-.15.03-.2-.06-.08-.14-.12-.31-.14-.5a.31.31 0 0 1-.01-.1c0-.09.04-.14.11-.16.24-.05.37-.28.38-.66.07.36.13.53.19.52a.44.44 0 0 0 .33-.29.45.45 0 0 0-.05-.44c-.04-.06-.15-.09-.32-.07l.58-.35Z" fill="#B64D38"/><path d="M28.33 14.97c.07.07.19.14.35.23.18.1.3.18.37.25.1.12.16.27.16.45 0 .47-.1.5-.3.06-.14-.33-.37-.5-.67-.5a.15.15 0 0 1-.15-.11c-.05-.15-.02-.27.07-.37.06-.06.11-.06.17 0Z" fill="#EEAA73"/><path d="m26.18 15.94-.04-.2c-.01-.09-.07-.14-.16-.15l-.2-.02c.27-.26.5-.42.71-.49.12-.03.16 0 .14.13-.03.11-.09.17-.19.19a.18.18 0 0 0-.17.15l-.09.4Z" fill="#BC8282"/><path d="M27.11 15.08c.17-.02.28 0 .32.07.1.13.12.28.06.44a.44.44 0 0 1-.34.3c-.06 0-.12-.17-.19-.53a.64.64 0 0 1 .15-.28ZM25.79 15.57l.2.02c.08.01.14.06.15.15l.04.2c-.2.03-.33.08-.4.15-.07.06-.06.1.03.11l.44.08c-.01.14-.1.2-.26.2a.35.35 0 0 1-.2-.1.67.67 0 0 1-.06-.05c-.05-.05-.09-.05-.13 0l-1.3 1.65a.1.1 0 0 0-.03.07c0 .04 0 .09-.04.12a.17.17 0 0 1-.11.07c-.19.01-.31-.07-.38-.23l1.08-1.76c.05-.17.22-.22.5-.16.09.02.15 0 .2-.08l.27-.44Z" fill="#C6A99D"/><path d="m25.98 18.65-.53.2a.3.3 0 0 0-.16.13c-.2.36-.1.55.29.58.09 0 .14-.04.15-.13 0-.05-.01-.1-.04-.14-.06-.08-.05-.16.02-.23l.09-.09a.13.13 0 0 1 .12-.04c.05 0 .08.03.1.07l.25.46c.02.04.03.08.01.13a.15.15 0 0 1-.09.1c-.14.06-.29.1-.44.1a.3.3 0 0 0-.22.1c-.24.23-.55.42-.9.56.03-.27.17-.52.41-.77.1-.1.08-.14-.06-.15a.32.32 0 0 0-.22.07c-.05.04-.09.1-.1.16a.36.36 0 0 1-.22.3c-.1.05-.16.03-.2-.06-.13-.2-.33-.25-.6-.13-.1.05-.1.08 0 .1.06.02.11.03.17.02a.4.4 0 0 1 .24.07c.17.1.16.24-.03.42-.18.07-.34.33-.48.78-.02.06-.05.08-.11.08-.21-.03-.3 0-.29.08-.37-.03-.52.05-.46.25-.17.38-.18.6-.03.65-.1-.05-.23-.04-.41.04.19-.65.2-1.23.03-1.75a2.9 2.9 0 0 0 1.49-2.03c.01-.11.08-.17.2-.17.24 0 .49.12.74.36.04.04.05.08.04.13 0 .05-.03.1-.07.12a.61.61 0 0 0-.32.41c-.05.19-.01.2.11.06l.6-.74a.52.52 0 0 1 .21-.16l.57-.22c.07-.02.1-.07.08-.15-.02-.08-.07-.13-.15-.14a1.85 1.85 0 0 0-.39-.04c-.31 0-.35-.11-.12-.32.17-.15.29-.34.36-.56.03-.12.1-.15.2-.08.12.08.2.17.26.29a.1.1 0 0 1 0 .1c-.03.04-.06.05-.1.05a.6.6 0 0 0-.22.02c-.14.04-.15.09-.01.15.08.03.15.06.23.07.1.02.14.08.15.17 0 .25-.05.49-.15.72Z" fill="#C6A99D"/><path d="M30.23 17.73c.11 0 .2-.1.2-.2a.2.2 0 0 0-.2-.2.2.2 0 0 0-.2.2c0 .1.1.2.2.2Z" fill="#B64D38"/><path d="M30.63 18.7c-.1-.07-.2-.1-.26-.08-.1.02-.13.08-.09.18.08.2.21.34.4.44.06.03.1.02.14-.04a.12.12 0 0 0 .02-.1c.21 0 .4.02.54.08a.13.13 0 0 0-.08.12c0 .09.03.15.1.2.15.1.19.22.1.33-.19.21-.4.35-.6.42-.12-.1-.18-.2-.18-.28 0-.1.05-.15.13-.17.31-.1.42-.2.3-.3-.85.01-1.05.2-.58.54-.02.17.07.3.25.4.12.04.18.07.2.1l.1.51c0 .04.03.06.07.05l.1-.01v-.02c0-.14.02-.27.05-.39.03-.1.1-.13.19-.1.12.05.22.11.3.2.07.06.1.15.11.24 0 .13.04.26.11.38.06.1.14.12.24.06a.16.16 0 0 0 .08-.12c.02-.13.08-.17.2-.12.16.08.24.2.25.39 0 .08.05.14.13.16.1.02.18.06.26.12.12.08.11.13-.03.16a.45.45 0 0 1-.44-.15.26.26 0 0 0-.24-.08l-.55.1c-.11.02-.2-.02-.24-.12-.05-.1-.14-.16-.26-.15-.1 0-.14.06-.13.15.01.15.07.27.17.37.06.07.17.14.34.23.18.1.3.18.38.26.1.1.15.08.17-.06a.28.28 0 0 0-.1-.27c-.08-.07-.07-.13 0-.18.2-.14.5-.08.9.18.07.23.25.32.53.29.18.18.23.35.18.5a.31.31 0 0 0 0 .23c.05.12.1.22.19.31.06.07.1.14.11.23.03.14.1.24.24.3.04 0 .07.04.09.08.01.04 0 .08-.01.11-.1.2-.23.26-.4.21a.23.23 0 0 1-.15-.14c-.21-.52-.42-.73-.62-.62l-.41-.99c-.04-.08-.1-.1-.17-.05-.16.1-.23.3-.2.59-.18.13-.36.16-.54.1a.21.21 0 0 1-.15-.18.86.86 0 0 1 0-.26c.03-.15.03-.26-.01-.33-.06-.12-.15-.16-.29-.12a.14.14 0 0 0-.08.07.14.14 0 0 0-.01.12l.28.95c.03.08.08.14.17.16.13.04.21.13.25.26a.4.4 0 0 0 .13.22l.13.1c.05.05.05.09 0 .13-.05.03-.1.03-.13-.01a.64.64 0 0 0-.5-.23c-.12 0-.18.06-.17.19v.12c0 .14.07.18.2.13.23-.09.37.08.42.51h-.1c-.51-.03-.51.3 0 .98-.18.04-.23.15-.16.34.02.08.08.14.16.17l.22.07c-.1.62.02 1.13.36 1.52a.4.4 0 0 1 .1.23c.03.39.13.77.3 1.15-.09-.01-.16.05-.22.2a3.3 3.3 0 0 1-.43-1.07 1.12 1.12 0 0 0-.25-.57c-.12-.12-.32-.18-.58-.17a.17.17 0 0 0-.15.08.17.17 0 0 0-.01.18c.05.11.14.2.26.25a.74.74 0 0 1 .42.78l-.04.26a.3.3 0 0 0 .1.26l.43.38c.02.02.03.05.02.07 0 .03-.01.05-.03.07-.04.03-.12.03-.24.01-.54-.12-.91-.82-1.1-2.1a2.51 2.51 0 0 1-.03-.82c.01-.05.04-.09.09-.1.05-.03.1-.02.13.02.1.09.23.14.36.14.12.01.17-.05.15-.17l-.13-.76a1.45 1.45 0 0 0-.42-.7c-.04-.31-.12-.52-.25-.63a.55.55 0 0 1-.07-.32c.07 0 .12-.01.16-.03.12-.04.1-.09-.05-.13a2.64 2.64 0 0 0-.24-.06c.03-.07.03-.15 0-.24l.02-.08a.16.16 0 0 0 0-.16.16.16 0 0 0-.14-.08l-.33-.03a.19.19 0 0 1-.18-.14 1.01 1.01 0 0 1-.04-.4c0-.06.03-.1.08-.11.05-.02.1-.01.13.03l.48.44a.2.2 0 0 0 .24.04l.07-.03a.08.08 0 0 0 .05-.06c0-.03 0-.06-.02-.08a.98.98 0 0 1-.2-.56 3.39 3.39 0 0 0-.27-1.18.45.45 0 0 1-.03-.29.62.62 0 0 0-.18-.63.32.32 0 0 1-.1-.22c-.04-.33-.17-.56-.4-.71l-.13-.36a.66.66 0 0 0-.33-.47.16.16 0 0 0-.06-.06c-.05-.01-.07-.05-.07-.1l.02-.63c.21-.05.26-.22.14-.52-.05-.12-.13-.17-.25-.15-.12.02-.2-.03-.22-.14 0-.04 0-.07.03-.1a.09.09 0 0 1 .1 0c.22.1.44.16.66.15.09 0 .15.03.2.1.06.07.1.15.1.24 0 .1.04.18.12.24.05.04.09.09.12.15Z" fill="#8D3D37"/><path d="M28.07 18.55c-.01.16.06.29.16.3.1.01.2-.1.22-.26.01-.15-.06-.29-.16-.3-.1 0-.2.11-.22.26Z" fill="#BC8282"/><path d="M25.98 18.65c.1.32.25.52.46.58.3.1.37.33.2.7-.03-.1-.06-.15-.09-.16a.28.28 0 0 0-.3.04c-.63.51-1.29.92-1.97 1.2a.22.22 0 0 0-.13.2l-.02.18c-.02.1-.07.15-.17.17-.28.03-.56-.01-.82-.14-.02-.08.08-.11.29-.08.05 0 .1-.02.11-.08.14-.45.3-.71.48-.78l.6-.03c.36-.14.67-.32.9-.57a.3.3 0 0 1 .23-.1c.15 0 .3-.03.44-.1a.15.15 0 0 0 .1-.1.16.16 0 0 0-.02-.12l-.25-.46a.14.14 0 0 0-.1-.07c-.05 0-.09 0-.12.04l-.09.09c-.07.07-.08.15-.02.23.03.05.04.1.04.14-.01.1-.06.14-.16.13-.38-.03-.48-.22-.28-.58a.3.3 0 0 1 .16-.14l.53-.2Z" fill="#73352D"/><path d="m30.63 18.7.21.4c.01.04 0 .07-.02.1-.03.06-.08.07-.14.04a.86.86 0 0 1-.4-.44c-.04-.1-.01-.16.1-.18.05-.02.14 0 .25.08Z" fill="#C6A99D"/><path d="M32.43 19.44c.08.11.16.23.22.36.02.03.01.06-.02.08l-.06.03h-.04l-.57-.73c-.1-.12-.07-.15.06-.08.16.07.3.19.4.34Z" fill="#BC8282"/><path d="M31.15 19.5c-.3-.02-.5.17-.58.54-.47-.35-.27-.53.58-.55Z" fill="#C6A99D"/><path d="m24.62 20.45-.6.03c.19-.18.2-.32.03-.42a.4.4 0 0 0-.24-.07.5.5 0 0 1-.16-.01c-.1-.03-.1-.06-.01-.1.27-.13.47-.09.6.12.04.09.1.1.2.07.13-.06.2-.16.22-.3.01-.08.05-.13.1-.17a.32.32 0 0 1 .22-.07c.14 0 .16.06.06.15-.24.25-.38.5-.42.77ZM27.57 19.87c.1.1.23.12.31.05.08-.08.07-.22-.03-.32s-.23-.13-.31-.05c-.08.07-.07.21.03.32Z" fill="#BC8282"/><path d="m29.48 19.56.26-.04c.19.12.3.28.33.47l-.55-.19a.34.34 0 0 0-.23 0 .55.55 0 0 1-.5-.07c.05-.14.13-.21.21-.2l.48.03ZM31.15 19.5c.12.1.01.2-.3.3-.08.02-.13.08-.13.17 0 .08.06.18.17.28 0 .11-.03.18-.07.2-.18-.1-.27-.24-.25-.41.08-.37.28-.56.58-.55Z" fill="#FCF2DC"/><path d="M31.7 19.64c.1-.03.15.02.15.14 0 .22.01.42.04.62a.5.5 0 0 0-.39-.12.3.3 0 0 0-.2.11.4.4 0 0 1-.28.15c-.02-.03-.08-.06-.2-.1.04-.01.07-.08.07-.2.22-.06.42-.2.61-.4-.04.06-.03.11.03.14.05.03.1.04.13.03.09 0 .12-.06.1-.14l-.06-.23Z" fill="#C6A99D"/><path d="M28.79 19.73c.16.11.33.14.5.08a.34.34 0 0 1 .23 0l.55.18.13.36c-.07 0-.12 0-.15.03a.13.13 0 0 0-.05.1c0 .03 0 .07.03.1.12.14.2.3.26.48.2.64.02.8-.56.46a.1.1 0 0 0-.08-.01.1.1 0 0 0-.07.05c-.09.2-.03.32.18.4a.4.4 0 0 0 .26-.01.67.67 0 0 1 .6.05c.11.07.12.14.02.23a.97.97 0 0 1-.65.26c-.09 0-.14.04-.15.13 0 .06.03.09.1.1.1 0 .18 0 .27-.03l.14-.06c.12-.05.2 0 .24.12l.2.66c.02.04 0 .07-.03.08l-.06.02c-.05.02-.09 0-.1-.06-.05-.17-.16-.26-.32-.26-.17 0-.28.08-.32.24-.02.05 0 .08.04.1l.12.05c.07.03.1.08.07.15-.1.36-.1.66.04.9.17.33.43.31.78-.03.04.1.04.17 0 .24-.03 0-.07 0-.1.02-.06.03-.06.07 0 .11.05.05.14.08.24.09 0 .13.02.23.07.32l-.58-.09c-.14-.01-.15.02-.05.1.27.21.5.47.7.77a.1.1 0 0 0 .08.04.1.1 0 0 0 .09-.04c.02-.04.03-.09 0-.15.22.19.36.42.43.7l-.48-.2c-.1-.18-.3-.29-.6-.3-.05-.29-.17-.43-.35-.43-.1 0-.16.05-.16.16v.1l.03.09a.1.1 0 0 0 .1.03c.11-.02.22 0 .3.07l-.17.3a.32.32 0 0 1-.16.15.31.31 0 0 1-.2.02.33.33 0 0 1-.26-.3c-.03-.45-.2-.81-.52-1.09a.28.28 0 0 1-.1-.23l.02-.24c.1 0 .17 0 .23-.02.1-.04.12-.1.06-.19-.06-.1-.19-.16-.37-.18-.09-.1-.11-.19-.06-.28.1-.31.14-.68.1-1.1l.01-.1c.06-.25-.02-.54-.24-.88l.03-.06c.11-.09.14-.18.08-.29a.28.28 0 0 0-.2-.13c-.13-.04-.19-.12-.15-.26a.2.2 0 0 0-.06-.22c-.07-.06-.19-.1-.35-.1.07-.09.07-.19 0-.3.13.03.26.03.37 0 .09-.02.12-.07.1-.15-.07-.32-.2-.49-.36-.5l.26-.35Z" fill="#B64D38"/><path d="M27.8 22.38c-.55-.34-.74-.75-.56-1.23a.38.38 0 0 0-.13-.32.37.37 0 0 1-.12-.2.68.68 0 0 1-.02-.28c.14-.45.3-.47.5-.04.06.14.17.23.32.25.11.02.16.08.15.2l-.13 1.62ZM29.45 20.82c.2 0 .35-.05.35-.1s-.16-.1-.35-.09c-.2 0-.35.05-.35.1 0 .06.16.1.35.1Z" fill="#C6A99D"/><path d="M29.78 20.98c.01-.05.04-.08.09-.07.03 0 .04.02.04.05-.02.2-.13.33-.34.36-.1.02-.14-.02-.1-.12.02-.1.09-.15.2-.14.06 0 .1-.03.11-.08Z" fill="#FCF2DC"/><path d="M28.38 21.27c.24.4.48.65.72.76l-.03.06c-.06.21-.04.45.06.7l-.2-.13c-.09-.06-.16-.04-.2.06l-.1.24c-.1.25-.18.24-.25-.01a3.38 3.38 0 0 1 0-1.68Z" fill="#C6A99D"/><path d="M22.68 21.67c-.05.07-.03.13.04.18.07.05.16.06.27.04-.14 0-.21.06-.23.16 0 .04.01.08.03.1.03.03.06.05.1.05l.22.03-.46.09c-.15-.05-.14-.27.03-.65Z" fill="#FCF2DC"/><path d="M22.99 21.89c.1-.05.2-.06.28-.02.05.03.08.07.09.12 0 .05 0 .1-.04.14-.04.05-.11.08-.2.1l-.24-.03a.13.13 0 0 1-.09-.05.13.13 0 0 1-.03-.1c.02-.1.09-.15.23-.16Z" fill="#BC8282"/><path d="M29.07 22.09c.22.34.3.63.24.88-.06-.02-.12-.08-.18-.18-.1-.25-.12-.49-.06-.7Z" fill="#FCF2DC"/><path d="M22.24 22.37c.18-.09.32-.1.4-.05-.13.42-.33.66-.6.72-.44.1-.48 0-.13-.29.13-.1.23-.23.33-.38Z" fill="#BC8282"/><path d="M33.34 23.83c.2-.1.4.1.62.62.03.07.08.12.15.14.17.05.3-.02.4-.2a.14.14 0 0 0 0-.12.14.14 0 0 0-.08-.09.36.36 0 0 1-.24-.3.44.44 0 0 0-.1-.22c-.1-.1-.15-.2-.2-.3a.31.31 0 0 1 0-.24c.05-.15 0-.32-.18-.5.26-.13.38-.03.38.32 0 .09.03.17.1.23.34.28.5.59.48.93 0 .04.01.08.05.1.2.11.27.27.24.49-.02.09-.07.14-.16.14l-.88.07c-.09 0-.15-.04-.18-.12l-.4-.95Z" fill="#C6A99D"/><path d="M28.13 27.18c-.35.2-.96.34-1.82.45-.64.08-1.35.45-2.13 1.1a.48.48 0 0 1-.58.06c.17-.29.43-.72.8-1.29.45-.73.79-1.29 1-1.66.34-.63.6-1.22.78-1.77.07-.2.15-.2.25-.02l1.7 3.13Z" fill="#E4C061"/><path d="m29.06 24.47.2-.02c.18.02.3.08.37.18.06.1.04.15-.06.19-.06.02-.14.03-.23.02l-.28-.37Z" fill="#C6A99D"/><path d="m31.02 24.84.24.06c.15.04.17.09.05.13a.45.45 0 0 1-.41-.06c-.05-.04-.05-.08.01-.1a.25.25 0 0 1 .1-.03Z" fill="#FCF2DC"/><path d="M34.54 27.22c0 .05 0 .12-.03.19a3.25 3.25 0 0 0-.11-.13c-.13-.13-.2-.24-.24-.34a6.12 6.12 0 0 1-.4-1.71c-.02-.18.04-.22.18-.1l.15.14c.08.07.1.16.08.26a.55.55 0 0 0 0 .28.3.3 0 0 0 .14.19c.23.14.44.25.64.31.13.05.2.13.2.27l.01.12c0 .11-.04.16-.15.13a1.1 1.1 0 0 1-.34-.13c-.1-.05-.15-.03-.18.07a.63.63 0 0 0 .05.45Z" fill="#C6A99D"/><path d="M31.22 25.38c.13.1.21.32.25.63.02.06.01.11-.01.15a.1.1 0 0 1-.09.04.1.1 0 0 1-.09-.04c-.2-.3-.42-.56-.69-.76-.1-.09-.1-.12.05-.1l.58.08ZM31.4 26.52l.5.2.12.75c.02.12-.03.18-.15.17a.55.55 0 0 1-.35-.14.13.13 0 0 0-.14-.03.12.12 0 0 0-.09.11c-.03.28-.02.55.03.82-.32-.13-.55-.43-.7-.92l.66-.36a.18.18 0 0 0 .1-.2c-.01-.1-.07-.15-.16-.17l-.09-.02c.16.02.25-.05.28-.21Z" fill="#FCF2DC"/><path d="m31.13 26.73.1.02c.08.02.14.07.15.16.02.1-.02.16-.1.2l-.66.37a.56.56 0 0 1-.16-.33.4.4 0 0 1 .08-.3.42.42 0 0 1 .25-.16.51.51 0 0 1 .34.04Z" fill="#B64D38"/><path d="M34.93 28.12c-.26 0-.36.05-.32.18-.17-.27-.33-.35-.47-.25-.06.04-.08.12-.06.23a.24.24 0 0 0-.08.08.16.16 0 0 1-.18.06.61.61 0 0 0-.36.02.17.17 0 0 0-.11.11c-.02.06-.01.11.02.16.1.16.13.32.06.48a.19.19 0 0 0 .04.23c.13.13.27.17.43.13.26-.08.27-.2.05-.34a.85.85 0 0 1-.16-.15.32.32 0 0 1-.07-.24c0-.1.05-.17.12-.23.08-.07.16-.09.24-.06.3.13.48.33.52.6.01.09.06.15.14.2.33.2.65.45.96.76.07.07.13.16.16.26a.6.6 0 0 1-.03.45c-.08.17-.16.18-.25 0-.1-.18-.16-.37-.18-.58a.21.21 0 0 0-.14-.18l-.73-.28c-.33-.12-.36-.07-.1.17.03.04.1.1.21.17.17.12.28.2.34.28.1.12.13.24.1.37-.02.1.01.18.1.21l.38.15c.11.04.14.12.09.23l-.13.28c-.05.1-.02.15.1.14a.48.48 0 0 0 .25-.1c0 .06.08.14.22.22-.29.2-.57.31-.84.35l-.14-.64a.26.26 0 0 0-.15-.2l-.42-.2c-.08-.04-.12-.1-.1-.2a.78.78 0 0 0-.27-.74c-.13-.1-.36-.22-.7-.35l-.33-.13a3.7 3.7 0 0 1-.3-1.15.4.4 0 0 0-.1-.23c-.34-.4-.46-.9-.36-1.52.23-.06.38.05.47.36.03.1.1.13.2.1a.42.42 0 0 0 .16-.1c.16-.14.3-.14.45.03.28.31.57.46.89.44.06-.01.1.01.13.07v.08c-.04.09-.02.17.06.23.05.03.11.05.2.04Z" fill="#FCF2DC"/><path d="M28.13 27.18a9 9 0 0 1 2 4.09 3.6 3.6 0 0 1-.84-.44 4.4 4.4 0 0 0-.8-.49 2.7 2.7 0 0 0-3.15.64 2.5 2.5 0 0 0-.63 1.08c-.15.5-.16.94-.05 1.32.2.67.26 1.17.15 1.5a3.44 3.44 0 0 1-2.17-4.15c.15-.55.47-1.2.96-1.94.21.12.4.1.58-.05a4.29 4.29 0 0 1 2.13-1.11c.86-.11 1.47-.26 1.82-.45Z" fill="#EFD381"/><path d="m35.32 27.47.16 1.56c.02.19-.06.26-.24.21-.05 0-.09-.02-.13-.03-.17-.04-.26-.15-.25-.33a.9.9 0 0 0-.25-.58c-.04-.13.06-.19.32-.18.27-.1.36-.21.27-.33.11 0 .15-.11.12-.32Z" fill="#C6A99D"/><path d="M33.34 28.16c-.1.07-.2.08-.3.02a.2.2 0 0 1-.1-.2.2.2 0 0 1 .13-.17c.18-.08.36-.04.52.12.03.03.04.07.02.1a.08.08 0 0 1-.08.07.36.36 0 0 0-.19.06Z" fill="#8D3D37"/><path d="m32.92 29.96.48.57a.2.2 0 0 1 .05.18.2.2 0 0 1-.12.15c-.28.12-.57.07-.87-.16.08-.15.07-.22-.04-.2.12.02.2.02.24-.01a.09.09 0 0 0 .03-.07c0-.02 0-.05-.02-.07l-.43-.38a.3.3 0 0 1-.1-.26c0-.1.02-.18.03-.26a.74.74 0 0 0-.42-.78.51.51 0 0 1-.25-.25.17.17 0 0 1 .01-.18.17.17 0 0 1 .15-.08c.26-.01.46.05.58.17.11.1.2.3.25.57.08.38.22.74.43 1.06Z" fill="#FCF2DC"/><path d="M34.08 28.28c.04.1.04.17 0 .25-.08-.03-.16 0-.24.06a.32.32 0 0 0-.12.23c-.01.1.02.18.08.24.04.06.1.1.15.15.22.15.2.26-.05.34-.16.04-.3 0-.43-.13a.19.19 0 0 1-.04-.23.48.48 0 0 0-.06-.48.18.18 0 0 1-.02-.16c.02-.05.05-.1.1-.11a.6.6 0 0 1 .37-.02c.07.02.14 0 .18-.06a.24.24 0 0 1 .08-.08Z" fill="#8D3D37"/><path d="m33.14 29.77.32.13c.35.13.58.25.7.35.22.19.3.43.27.74-.01.1.03.16.11.2l.42.2c.08.04.13.1.15.2l.14.64c-.2.38-.63.64-1.32.8a13.6 13.6 0 0 0-.71-1.58.82.82 0 0 0-.46-.35c-.07-.03-.12 0-.14.08-.05.31-.24.45-.57.43-.07 0-.11-.04-.13-.1a3.3 3.3 0 0 0-.2-.56.13.13 0 0 1 0-.08c.02-.09.03-.1.03-.04 0 .09.02.16.07.22.15.19.32.22.5.1a.1.1 0 0 0 .05-.06c0-.03 0-.05-.02-.08a.96.96 0 0 1-.07-.07.12.12 0 0 1-.01-.1c.01-.08.08-.13.19-.14.3.23.6.28.87.16a.2.2 0 0 0 .12-.15.2.2 0 0 0-.05-.18l-.48-.57c.06-.14.13-.2.22-.2Z" fill="#4A3A34"/><path d="M30.12 31.27a4.31 4.31 0 0 1-3.5 3.77 3.3 3.3 0 0 1-1.8-.15c.1-.34.05-.84-.16-1.51-.1-.38-.1-.82.05-1.32.11-.4.32-.77.63-1.08a2.7 2.7 0 0 1 3.15-.64c.17.07.44.23.8.49.27.19.55.34.83.44Z" fill="#F7E098"/><path d="M31.97 31.92c-.02.1 0 .2.09.27.08.07.17.08.27.04.13-.05.2-.15.2-.3.01-.13.08-.2.2-.2a.2.2 0 0 1 .17.05c.06.05.08.12.07.2 0 .07-.04.13-.1.17-.24.15-.31.36-.23.65.03.13 0 .24-.1.32-.1.08-.2.1-.32.04-.2-.1-.31-.32-.35-.65-.03-.28 0-.54.1-.78 0-.02 0-.02.01 0a.5.5 0 0 1 0 .2Z" fill="#73352D"/><path d="m33.45 33.22-1.39.72c-.09.08-.2.1-.35.07-.13-.03-.15-.1-.05-.18.07-.06.15-.1.24-.13.37-.1.7-.22 1-.37a.28.28 0 0 0 .16-.22l.05-.32c.02-.13.08-.15.18-.07.17.16.22.32.16.5Z" fill="#B64D38"/><path d="M35.63 33.01c.15.26.23.48.26.67.01.12 0 .32-.05.58l-.05.4a.25.25 0 0 1-.19.23.52.52 0 0 1-.26.02c-.12-.02-.18-.1-.19-.21-.02-.34-.23-.74-.63-1.18.23-.27.45-.43.64-.5.24-.1.4-.1.47-.01Z" fill="#4A3A34"/><path d="M20.41 35.4c-.08-.03-.15 0-.18.1a.28.28 0 0 0 0 .18c.15.58.31 1.15.5 1.71.03.1.1.23.23.38l.09.11c-.07.08-.16.11-.29.11.14-.17.1-.33-.11-.47a.44.44 0 0 1-.16-.22c-.32-.83-.54-1.73-.64-2.72-.03-.21-.02-.42.02-.62.02-.15.1-.21.25-.17l.12.03c.16.03.19.12.09.26a.77.77 0 0 0-.13.57c.01.07.04.17.1.3.08.17.12.33.11.45ZM33.88 33.96l-.02.08c-.02.06 0 .1.07.1a.3.3 0 0 0 .09-.01c-.19.13-.29.26-.3.38.02-.17-.06-.27-.24-.29-.1-.01-.16.03-.2.11-.09.2-.04.31.14.34.1.02.13.07.09.16a.15.15 0 0 1-.06.07.2.2 0 0 1-.13.04.67.67 0 0 1-.37-.16.1.1 0 0 0-.1-.02.1.1 0 0 0-.07.07.35.35 0 0 0 0 .19.4.4 0 0 0-.18-.04c-.05 0-.09.03-.1.1v.07c-.1-.26-.05-.43.18-.52.04-.02.06-.05.06-.1-.01-.1-.06-.15-.16-.13a.33.33 0 0 1 .31-.18c.06 0 .1-.01.15-.03l.84-.23Z" fill="#C6A99D"/><path d="M34.02 34.13a.8.8 0 0 1 .62.19c.06.05.09.11.1.2 0 .09-.03.18-.06.27a.14.14 0 0 1-.08.07.13.13 0 0 1-.1 0c-.2-.07-.42-.1-.64-.07-.1.02-.15-.03-.17-.12-.01-.05 0-.1.02-.16.02-.12.12-.25.3-.38Z" fill="#BC8282"/><path d="M32.58 34.4c.1-.02.15.02.16.13 0 .05-.02.08-.06.1-.23.09-.29.26-.17.52.11.23.1.48-.04.75a.2.2 0 0 0 0 .2l.36.6c.05.09.04.16-.05.22l-.43.29c-.12.08-.1.15.02.2.18.07.27.2.27.4 0 .28.1.53.27.75.07.08.14.08.2 0l.06-.07a.1.1 0 0 0 .01-.08.1.1 0 0 0-.05-.07c-.15-.08-.2-.2-.15-.36a.22.22 0 0 1 .13-.14c.23-.09.43-.22.58-.39a.22.22 0 0 0 .04-.25c-.1-.21-.16-.44-.17-.7 0-.04.02-.08.05-.12a.15.15 0 0 1 .12-.05c.06 0 .11.02.16.05.04.03.09.1.14.22.14.34.41.56.81.64a2.2 2.2 0 0 0-.16.9c-.33-.08-.56.34-.68 1.26l-.23.48c-.2-.26-.42-.45-.65-.58-.1-.05-.17-.04-.25.03l-.17.15c-.22.2-.32.14-.3-.16.03-.32-.15-.54-.52-.63-.15-.04-.27 0-.34.14-.09.16-.24.14-.44-.07a.69.69 0 0 1-.2-.51c.02-.2-.02-.4-.1-.6a.34.34 0 0 1 0-.26c.21-.58.14-.82-.23-.73.03-.28.37-.53 1-.73.12.17.29.27.51.3.13 0 .16-.04.09-.15l-.27-.4a.18.18 0 0 0-.12-.09c-.2-.04-.3.03-.28.2a.73.73 0 0 0-.25-.18c-.04-.1-.03-.18.04-.24.04-.04.1-.05.2-.05.11 0 .22 0 .32-.03a1 1 0 0 0 .23-.35c-.08-.3.1-.48.54-.54Z" fill="#FCF2DC"/><path d="M32.04 34.94a1 1 0 0 1-.23.35.58.58 0 0 1-.07.02c-.12.02-.2-.02-.25-.12-.05-.1-.04-.2.04-.27.11-.1.25-.15.42-.14.07 0 .1.05.09.16Z" fill="#B64D38"/><path d="m32.78 35.02.13.4c.06.19.13.3.22.35.2.1.46-.01.76-.34l.1.03c.07.02.1.06.1.12.01.05 0 .1-.02.15.03.54.28.9.75 1.07.1.03.18.04.26 0a.73.73 0 0 0 .22-.14c.03.1.03.22 0 .33-.08.24-.23.32-.46.25-.4-.08-.67-.3-.81-.64a.55.55 0 0 0-.14-.22.27.27 0 0 0-.16-.05.15.15 0 0 0-.12.05.16.16 0 0 0-.05.13c.01.25.07.48.17.69.04.1.03.18-.04.25-.15.17-.35.3-.58.4a.22.22 0 0 0-.13.13c-.05.16 0 .28.15.36a.1.1 0 0 1 .05.07.1.1 0 0 1-.01.08l-.06.07c-.06.08-.13.08-.2 0a1.2 1.2 0 0 1-.27-.75c0-.2-.1-.33-.27-.4-.13-.05-.14-.12-.02-.2l.43-.3c.09-.05.1-.12.05-.21l-.35-.6a.2.2 0 0 1 0-.2c.13-.27.14-.52.03-.75v-.08c0-.06.04-.09.1-.09a.4.4 0 0 1 .17.04Z" fill="#4A3A34"/><path d="M35.34 35.87c-.11-.01-.2-.1-.28-.28a.2.2 0 0 0-.14-.11c-.07-.02-.11 0-.13.07-.07.22-.22.27-.46.16a.24.24 0 0 0-.26.02c.03-.05.03-.1.03-.15 0-.06-.04-.1-.1-.12l-.11-.03c.48-.22.98-.27 1.5-.16a.2.2 0 0 1 .17.16c.03.15-.04.3-.22.44Z" fill="#BC8282"/><path d="M21.4 37.67c.1.2-.02.28-.35.21a3.35 3.35 0 0 0-.1-.11c-.11-.15-.19-.28-.22-.38-.19-.56-.35-1.13-.5-1.71a.28.28 0 0 1 0-.17c.03-.1.1-.14.18-.1.13.14.26.16.39.03.14-.14.27-.13.4 0l.86.94c.12.14.12.26-.03.38-.24.2-.45.5-.63.91Z" fill="#73352D"/><path d="m31.57 35.93-.07-.14c-.02-.17.08-.24.28-.2.05.01.09.04.12.08l.27.41c.07.1.04.16-.09.14a.69.69 0 0 1-.5-.29ZM30.66 35.71c.1.02.11.07.04.15a.93.93 0 0 1-.3.23c-.13.06-.2.02-.2-.12v-.1c.01-.04.03-.06.06-.08.12-.08.25-.1.4-.08Z" fill="#B64D38"/><path d="M30.16 36.29c.03 0 .05 0 .05.03.02.08 0 .14-.06.2a.33.33 0 0 1-.23.08c-.05 0-.08-.02-.09-.07-.01-.04 0-.07.03-.1a.69.69 0 0 1 .3-.14Z" fill="#BC8282"/><path d="M31.84 37.1a.93.93 0 0 0-.29-.09c-.15 0-.17-.07-.08-.18.14-.16.28-.22.44-.2.1.03.15.08.17.18a.3.3 0 0 1-.05.23c-.05.07-.11.09-.19.05Z" fill="#C6A99D"/><path d="M30.57 36.66c.37-.1.45.15.23.73a.34.34 0 0 0 0 .26c.08.2.12.4.1.6 0 .2.07.36.2.5.2.22.35.24.44.08.07-.13.19-.18.34-.14.37.1.55.3.52.63-.02.3.08.35.3.16l.17-.15c.08-.07.16-.08.25-.03.23.13.45.32.65.58-.25.42-.58.79-1 1.09-.07.05-.13.03-.17-.04a5 5 0 0 1-.57-1.4c-.04-.14-.13-.21-.27-.22-.11-.01-.17.04-.17.16v.3c0 .1-.04.16-.13.18l-.4.09c-.1.02-.14.09-.1.2a2 2 0 0 1 .18.93c0 .1.03.18.1.25.08.08.14.17.19.27.04.1.03.19-.03.27a.96.96 0 0 1-.71.4c-.06 0-.1-.03-.1-.1.02-.26-.13-.4-.45-.4a.07.07 0 0 1-.06-.05c-.02-.03-.01-.06.01-.08.2-.22.29-.46.28-.7 0-.1-.04-.17-.13-.2a1.62 1.62 0 0 0-.73-.17c-.08 0-.13.05-.13.14 0 .18-.06.34-.18.49-.17.2-.15.39.06.54.14.1.13.18-.02.25-.21.1-.28.25-.2.45.02.08.01.15-.03.23a.25.25 0 0 1-.2.12l-1.13.1a.5.5 0 0 1-.19.02c-.09-.02-.14-.07-.15-.16 0-.08.02-.16.08-.22.34.04.66.04.97.02.07 0 .13-.02.19-.07a.24.24 0 0 0 .07-.1c.03-.07 0-.12-.05-.14a.43.43 0 0 1-.17-.13.32.32 0 0 1-.07-.27.21.21 0 0 0-.08-.2c-.07-.06-.08-.12-.05-.2.08-.16.2-.26.37-.3a.43.43 0 0 0 .21-.15c.31-.38.24-.78-.21-1.21.18-.06.27-.15.26-.27 0-.08.03-.13.1-.17a.3.3 0 0 0 .08-.06c.05-.06.09-.12.1-.2.16-.71.22-1.55.2-2.52.27.48.4 1.04.39 1.68 0 .08.02.15.07.2.05.06.12.09.2.1.15 0 .24-.07.28-.22a.36.36 0 0 0-.02-.25c-.28-.62-.17-1.11.3-1.5Z" fill="#73352D"/><path d="M29.33 36.65c.03.97-.03 1.8-.18 2.52a.39.39 0 0 1-.11.2.3.3 0 0 1-.09.06c-.06.04-.1.1-.09.17 0 .12-.08.21-.26.27.15-.24.14-.5-.02-.8.2-.37.18-.67-.04-.9l.1-.4c.11-.16.19-.35.24-.57.13.06.28-.12.45-.55Z" fill="#C6A99D"/><path d="M22.69 37.52c-.16.09-.3.14-.44.16.06-.1.05-.17-.04-.25a.25.25 0 0 1-.1-.2c0-.09.04-.16.1-.2.18-.14.35-.2.5-.18.16.02.17.08.04.17-.2.13-.22.3-.06.5Z" fill="#FCF2DC"/><path d="M28.88 37.2c-.05.22-.13.4-.23.57-.25-.15-.31-.3-.2-.46.1-.16.24-.2.43-.1Z" fill="#B64D38"/><path d="M31.5 38.07a.11.11 0 0 1-.07-.08.12.12 0 0 1 0-.1 1 1 0 0 1 .5-.44c.12-.06.18-.02.16.13-.02.12-.02.23 0 .35.03.13-.03.2-.15.22-.16.02-.31-.01-.45-.08Z" fill="#BC8282"/><path d="M23.75 37.9c.05.06.04.1 0 .12-.3 0-.55.1-.75.33a.4.4 0 0 1-.2.12.95.95 0 0 1-.67-.08c.17-.18.47-.33.92-.46.3-.08.53-.09.7-.02Z" fill="#FCF2DC"/><path d="M26.69 37.96a2 2 0 0 0-.28 1.15.4.4 0 0 1-.14.32c-.3.25-.67.45-1.14.6a.34.34 0 0 1-.31-.04.35.35 0 0 1-.17-.28c-.03-.25-.14-.28-.33-.1 0-.05 0-.1-.02-.15-.04-.09-.1-.12-.2-.11-.26.03-.49.13-.69.3a.31.31 0 0 1-.21.09.42.42 0 0 1-.37-.22.1.1 0 0 1 0-.11.1.1 0 0 1 .1-.06c.44-.03.88-.15 1.3-.36.08-.05.12-.11.13-.2l.05-.4a.2.2 0 0 1 .15-.19c.28-.09.48-.02.61.21a2.13 2.13 0 0 1 .19.75c.01.1.07.17.17.19.1.02.18-.01.24-.1l.27-.46c.08-.13.05-.23-.07-.3a.61.61 0 0 1-.17-.18c-.08-.11-.05-.2.07-.25.33-.13.6-.17.82-.1Z" fill="#BC8282"/><path d="M27.42 40.25c-.21.1-.32.33-.33.67l-.52.04a.6.6 0 0 0-.25.07c-.39.21-.51.48-.38.8.02.06.01.1-.02.15a.36.36 0 0 1-.22.1c-.09 0-.17 0-.25-.05a2.9 2.9 0 0 0-1.2-.28c-.2 0-.35-.05-.45-.15a.26.26 0 0 1-.07-.22l.17-1.35.42-.42c.2-.18.3-.15.33.1.01.12.07.21.17.28.1.06.2.08.3.04.48-.15.86-.35 1.15-.6a.4.4 0 0 0 .14-.32 2 2 0 0 1 .28-1.15c.2.2.39.24.56.14.16-.08.33-.13.51-.14.12 0 .13.03.04.1-.19.14-.33.26-.42.36a.99.99 0 0 0-.25.49c-.1.59 0 1.04.29 1.34Z" fill="#8D3D37"/><path d="m23.74 38.02-.16.75a.1.1 0 0 1-.07.08.1.1 0 0 1-.11-.02l-.22-.18a.2.2 0 0 0-.21-.03l-.88.34c-.09.03-.14-.07-.17-.32-.01-.12.06-.2.21-.25.22.1.44.13.66.08a.4.4 0 0 0 .21-.12c.2-.22.45-.33.74-.33ZM33.87 38.24a.7.7 0 0 1-.33.1c-.13.02-.16-.03-.07-.14a.55.55 0 0 1 .24-.16c.08-.03.14 0 .18.06a.1.1 0 0 1 .02.09l-.04.05Z" fill="#B64D38"/><path d="M34.68 38.14c0 .44-.23.86-.68 1.26.12-.92.35-1.34.68-1.26Z" fill="#BC8282"/><path d="M28.54 38.16c.22.24.23.54.04.9a.8.8 0 0 0-.3-.11l.12-.55.14-.24Z" fill="#B64D38"/><path d="m28.4 38.4-.11.55a.82.82 0 0 1-.5 0c-.09-.03-.12-.09-.1-.17.1-.35.34-.47.7-.38Z" fill="#C6A99D"/><path d="M27.85 39.59c.15.03.28 0 .3-.05 0-.06-.12-.13-.27-.16-.15-.02-.29 0-.3.06 0 .05.11.12.27.15Z" fill="#FCF2DC"/><path d="M22.5 40.1c-.43.07-.6-.02-.53-.26.02-.07.06-.11.13-.13.24-.06.4.03.48.25v.1a.1.1 0 0 1-.08.04Z" fill="#BC8282"/><path d="M27.42 40.25c-.04.1-.06.25-.05.43.01.18-.08.26-.28.24 0-.34.12-.56.33-.67ZM28.2 40.51c.15-.16.3-.15.46.03a.1.1 0 0 1 .02.1.1.1 0 0 1-.07.07c-.2.05-.38.13-.55.24a.31.31 0 0 1-.24.04.18.18 0 0 1-.1-.06c-.04-.03-.04-.08-.01-.12.06-.1.15-.16.28-.19a.4.4 0 0 0 .2-.1Z" fill="#C6A99D"/><path d="m27.63 41.73.06.1c.08.15.05.19-.1.12l-.27-.14c-.1-.04-.1-.1-.04-.18a.52.52 0 0 1 .18-.14c.13-.06.18-.02.17.12V41.73ZM29.91 42.36c-.1.01-.14-.03-.1-.13l.02-.07c.02-.05.05-.07.1-.07.09 0 .16.03.23.07.13.09.12.14-.03.16l-.22.04ZM26.3 42.39c-.02-.04-.02-.08 0-.12.15-.13.27-.16.36-.1.07.06.06.1-.02.14a.79.79 0 0 1-.34.08Z" fill="#BC8282"/><path d="M18.76 27.7v-.8c-3.54 2.02-10.44 6.83-9.7 9.82.91 3.73 8.88 4.04 21.4-1.31 12.5-5.35 17.6-11.83 14.78-14.32-2.25-2-8.26-1.06-10.99-.34l.31.67c2.24-.62 7.25-1.44 9.32.3 3.8 3.36-7.3 9.7-12.26 12.32-4.97 2.61-18.97 7.33-20.73 3.12-1.42-3.37 4.65-7.72 7.87-9.47Z" fill="url(#am33h40ci)"/><defs><linearGradient id="am33h40ci" x1="23.71" y1="25.58" x2="28.36" y2="36.92" gradientUnits="userSpaceOnUse"><stop offset=".41" stop-color="#DB2529"/><stop offset=".68" stop-color="#E36E1B"/><stop offset="1" stop-color="#F3C41F"/></linearGradient></defs></svg>