<svg width="56" height="56" viewBox="0 0 56 56" xmlns="http://www.w3.org/2000/svg"><path fill="#F0F3FA" d="M0 0h56v56H0z"/><path d="M39 25.5c-1.2 0-2.5 1.17-3 1.5 1.5-.5 1.4-.5 3-.5 2 0 4 1.5 6 1.5 1.6 0 3.67-1.67 4.5-2.5A8.3 8.3 0 0 1 45 27c-2.5 0-4.5-1.5-6-1.5ZM7 27c-1.2 0-2.5 1.17-3 1.5 1.5-.5 1.4-.5 3-.5 2 0 4 1.5 6 1.5 1.6 0 3.67-1.67 4.5-2.5a8.3 8.3 0 0 1-4.5 1.5c-2.5 0-4.5-1.5-6-1.5Z" fill="#8E8D93"/><path d="M35 22v3.71h-.27c-.54-1.63-2-3.1-3.83-3.1-2.37 0-3.9 2.39-3.9 4.89 0 2.5 1.53 4.91 3.9 4.91.5 0 1.07-.11 1.6-.32v-3.18c0-.74-.27-1.28-1.11-1.28h-.26v-.29H36v.3c-.9.05-1.5.4-1.5 1.27v3.18c-.64.3-.98.53-1.68.68-.69.15-1.4.23-2.15.23-3.02 0-5.67-2.17-5.67-5.36A5.57 5.57 0 0 1 30.59 22c.5 0 .94.04 1.34.12.63.12 1.45.65 2.09.65.41 0 .6-.43.7-.76H35ZM19.9 22.3V22H25v.3h-.31c-.98 0-1.19.73-1.19 1.54v5.27c0 1.98-.47 3.89-2.8 3.89-.8 0-1.46-.24-1.96-.71-.5-.48-.74-1-.74-1.58 0-.37.1-.67.3-.9.2-.23.45-.35.75-.35.28 0 .52.1.72.31.2.2.3.46.3.76 0 .15-.02.28-.05.4l-.23.4c-.13.2-.2.36-.2.45 0 .14.07.26.2.36.17.14.4.22.7.22 1.18 0 1.01-2.11 1.01-2.77v-5.75c0-.8-.22-1.55-1.2-1.55h-.4Z" fill="#2656A3"/><path d="M46.5 23c-.8 0-1.33.67-1.5 1 .17-.17.7-.5 1.5-.5 1 0 2.5 1 3.5 1 .8 0 1.67-.67 2-1-.33.17-1.2.5-2 .5-1 0-2.5-1-3.5-1ZM14.5 25c-.8 0-1.33.67-1.5 1 .17-.17.7-.5 1.5-.5 1 0 2.5 1 3.5 1 .8 0 1.67-.67 2-1-.33.17-1.2.5-2 .5-1 0-2.5-1-3.5-1Z" fill="#8E8D93"/></svg>