<svg width="56" height="56" viewBox="0 0 56 56" xmlns="http://www.w3.org/2000/svg"><path fill="#52979A" d="M0 0h56v56H0z"/><path d="M36 43v-9h4v1h-2v3h2v1h-2v3h2v1h-4ZM34 43h-2v-8h-1.44v-1h4.9v1H34v8ZM30 43h-2v-9h2v9ZM19 43v-9h3.11c.3 2.18.72 4.37.81 6.58h.05c.25-2.21.58-4.39.94-6.58H27v9h-2v-7.81h-.05c-.46 2.6-.74 5.2-1.15 7.81h-1.93c-.4-2.6-.5-5.2-.83-7.81H21V43h-2ZM18 43h-2v-9h2v9ZM35 33h-2v-7.57h-1.44V24h4.9v1.43H35V33ZM26 26.71c0-1.85.63-2.71 2.5-2.71 1.88 0 2.5.86 2.5 2.71v3.59c0 1.85-.63 2.7-2.5 2.7-1.88 0-2.5-.85-2.5-2.7V26.7Zm2-.97v5.52c0 .51.12.74.5.74s.5-.23.5-.74v-5.52c0-.51-.12-.74-.5-.74s-.5.23-.5.74ZM37 26.71c0-1.85.63-2.71 2.5-2.71 1.88 0 2.5.86 2.5 2.71v3.59c0 1.85-.63 2.7-2.5 2.7-1.88 0-2.5-.85-2.5-2.7V26.7Zm2-.97v5.52c0 .51.12.74.5.74s.5-.23.5-.74v-5.52c0-.51-.12-.74-.5-.74s-.5.23-.5.74ZM20 33v-9h2v4h1v-4h2v9h-2v-4h-1v4h-2ZM14 33v-9h2.16c1.96 0 2.84.29 2.84 2.05v.8c0 1.5-.81 2.16-2.57 2.16L16 29v4h-2Zm2-8v3l.23.01c.54 0 .76-.21.76-.8v-1.47c0-.56-.24-.74-.86-.74H16ZM15 43h-4v-9h2v8h2v1ZM44 22h-4v-9h2v8h2v1ZM33 22l1.65-9h2.97L39 22h-2.34l-.17-2.21h-1.23L34.9 22H33Zm2.47-3.64h.86c-.08-1.42-.23-2.83-.33-4.25-.14 1.42-.36 2.84-.53 4.25ZM29.18 13c2.11 0 2.82.47 2.82 2.7v3.6c0 2.25-.88 2.7-3.3 2.7H27v-9h2.18ZM29 14v7h.26c.55 0 .75-.15.75-.74v-5.52c0-.56-.18-.74-.68-.74H29ZM43.18 34c2.11 0 2.82.48 2.82 2.7v3.6c0 2.25-.88 2.7-3.3 2.7H41v-9h2.18ZM43 35v7h.26c.55 0 .75-.15.75-.74v-5.52c0-.57-.18-.74-.68-.74H43ZM16 13v6.24c0 1.9-.63 2.76-2.5 2.76-1.7 0-2.5-.78-2.5-2.4v-1.2h2v1.38c0 .52.12.75.5.75.37 0 .5-.23.5-.75V13h2ZM20 22v-9h3c.46 2.32.7 4.66 1 7v-7h2v9h-2.76A465.9 465.9 0 0 1 22 14.29c.04 2.54 0 5.14 0 7.71h-2ZM19 22h-2v-9h2v9Z" fill="#fff"/></svg>