<svg xmlns="http://www.w3.org/2000/svg" width="56" height="56" viewBox="0 0 56 56"><path fill="#104974" d="M0 0h56v56H0z"/><path d="M28 18a4 4 0 1 0 0-8 4 4 0 0 0 0 8zm-11-7v20.6c-.14 1.4-.68 4.45-3.18 5.4 1.86-.21 5.18-2.16 5.18-8.26v-16L17 11zm4 3.78v15.64c-.14 1.33-1.18 4.2-3.68 5.1 1.86-.2 5.68-2.04 5.68-7.8v-11.3l-2-1.64zm4 14.23V18.7l2 1.65v5.95c0 5.75-3.9 7.59-5.77 7.8 2.5-.9 3.63-3.78 3.77-5.1zM17 37h1v4.89c0 .66-.1 1.18-.47 1.55a2 2 0 0 1-1.49.56c-.64 0-1.14-.18-1.5-.53A1.97 1.97 0 0 1 14 42h1c0 1.6 2 1.12 2-.1V37zm3 7h-1v-7h1v7zm5.24 0H26v-7h-1v5l-3.03-5H21v7h1v-5.17L25.24 44zM27 44v-7h1.98c2.1 0 3.01 1.54 3.02 3.22v.44c0 1.63-.83 3.34-3.05 3.34H27zm1-6v5h.9c1.48 0 2.1-.93 2.1-2.36v-.4c0-1.44-.56-2.23-2-2.24h-1zm5.57 4h2.59l.62 2h1.08l-2.39-7h-1.29L32 44h1l.57-2zm2.24-1h-1.94l.99-3 .95 3zM39 43h3v1h-4v-7h1v6zm0-32v20.6c.14 1.4.53 4.45 3 5.4-1.84-.21-5-2.16-5-8.26v-16L39 11zm-4 19.42V14.78l-2 1.64v11.3c0 5.76 3.71 7.6 5.55 7.8-2.47-.9-3.41-3.77-3.55-5.1zm-4-11.7V29c.14 1.32 1.22 4.2 3.69 5.1-1.84-.21-5.69-2.05-5.69-7.8v-5.95l2-1.64z" fill="#fff"/></svg>