<svg width="56" height="56" viewBox="0 0 56 56" xmlns="http://www.w3.org/2000/svg"><path fill="#F0F3FA" d="M0 0h56v56H0z"/><path fill-rule="evenodd" d="M16 19h13a5 5 0 0 0 8 0h2v24H16V19Zm2 15h5c0 1.5.9 3.5 2.5 3.5 2.5 0 2.5-2 2.5-3.5v-9h7v11c0 2.17-2 6-9 6-6 0-8-5.5-8-8Z" fill="#D0D0D0"/><path d="m28 25 3-2h7v10c-.17 3-2.8 9-12 9-2.6 0-7.72-1.52-7.99-7.5L18 34l3-2h5c0 .97.38 2.89 1.86 3 .1-.37.14-.72.14-1v-9Zm4.82 4.32 1.68-1.67v-1.8l-3.82 3.83a.25.25 0 0 1-.36-.36l3.83-3.82h-1.46l-2.03 1.7a.25.25 0 0 1-.32-.4l1.57-1.3H28.5V34c0 .56-.14 1.4-.57 2.13a2.7 2.7 0 0 1-2.43 1.37c-1.04 0-1.76-.66-2.2-1.35a5.66 5.66 0 0 1-.7-1.65H18.5c.13 2.74 1.33 4.45 2.78 5.5A8.44 8.44 0 0 0 26 41.5c3.5 0 5.6-1.05 6.85-2.3a5.47 5.47 0 0 0 1.65-3.7v-7.15l-1.32 1.33a.25.25 0 0 1-.36-.36Z" fill="#2A166D"/><path fill-rule="evenodd" d="M33 21h1a5 5 0 0 0 0-10h-1a5 5 0 0 0 0 10Zm0-.5a4.5 4.5 0 0 0 4.38-5.53l-2.45 2.46a.25.25 0 0 1-.36-.36l2.5-2.5c.05-.04.11-.07.17-.07a4.49 4.49 0 0 0-.66-1.23l-4.15 4.16a.25.25 0 0 1-.36-.36l4.18-4.18a4.52 4.52 0 0 0-.75-.63c0 .07-.03.13-.09.18l-3 2.5a.25.25 0 1 1-.32-.38l3-2.5a.25.25 0 0 1 .04-.03A4.5 4.5 0 1 0 33 20.5Z" fill="#2A166D"/></svg>