<svg width="56" height="56" fill="none" xmlns="http://www.w3.org/2000/svg"><path fill="#015AA8" d="M0 0h56v56H0z"/><path d="M6.1 27H4.833a.287.287 0 00-.219.273c-.005.18.144.243.219.252H5v1.173c-.008.166.031.493-.167.493-.118 0-.151-.145-.157-.214-.006-.102-.042-.292-.329-.28-.286.014-.35.256-.345.376-.02.296.149.896.988.926.84.03 1.026-.751 1.01-1.219v-1.255h.137c.052-.004.158-.059.158-.252s-.13-.262-.195-.273zM8.078 27H6.762c-.065.008-.194.077-.194.288 0 .212.13.273.194.277H7l-.004 1.898H6.84c-.145 0-.38.035-.38.289 0 .169.117.246.182.246h1.47c.074 0 .215-.126.22-.294.006-.169-.128-.307-.202-.307H8v-.763l.807.83c-.107.005-.313.073-.313.265s.094.268.199.269c.374.002 1.214.003 1.323 0 .11-.003.256-.084.256-.294 0-.177-.123-.307-.256-.307h-.102l-.878-.937.78-.937h.2c.067-.012.2-.076.2-.235 0-.158-.102-.266-.153-.288H8.66a.31.31 0 00-.16.288c.01.154.11.22.16.235h.107l-.767.75v-.708h.078a.267.267 0 00.214-.277.286.286 0 00-.214-.288zM19.064 24.242c.22 1.527-1.663 2.239-2.632 2.404-.316.054-.624-.024-.888-.41-.265-.387.11-.548.33-.58 1.996-.513 2.1-1.156 1.903-1.414-.684-.618-2.442.016-3.236.411-.915.515-2.7 1.993-2.473 4.216.274 2.67 2.393 3.297 3.396 3.334.802.029 1.694-.488 2.04-.75.075-.027.268-.089.432.066.165.154.069.438 0 .539-.692.754-1.811.942-2.472.942-3.396 0-4.898-2.572-4.962-4.131-.07-1.732.78-3.298 2.626-4.627 1.922-1.383 5.663-1.908 5.936 0zM43.447 27h-1.831v.461c.302 0 .382.2.384.3.004.41.01 1.281 0 1.495-.01.213-.26.292-.384.305V30h2.85v-1.15h-.307c-.09.206-.22.639-.712.644-.394.005-.447-.149-.447-.238.002-.408.005-1.277 0-1.495-.005-.218.299-.29.447-.3V27z" fill="#fff"/><path d="M47 27h-3v1h.316c.108-.509.48-.526.684-.497V29.3c0 .19-.245.225-.4.22V30h1.794v-.44c-.31.01-.392-.169-.394-.26v-1.797c.449-.01.677.31.736.497H47v-1z" fill="#fff"/><path fill-rule="evenodd" clip-rule="evenodd" d="M47.201 27h1.8c.413.015 1.238.331 1.238 1.481 0 1.15-.825 1.492-1.238 1.519h-1.766v-.427h.183c.056-.01.169-.063.169-.188v-1.732c-.01-.055-.056-.163-.17-.163h-.216V27zm1.468.653v1.676c.244.029.663 0 .663-.816 0-.779-.465-.875-.663-.86z" fill="#fff"/><ellipse cx="51.5" cy="29.5" rx=".5" ry=".501" fill="#fff"/><path fill-rule="evenodd" clip-rule="evenodd" d="M18.33 28.89c-.766.204-1.05.28-1.05.44 0 .222.272.275.408.275.36-.01.896-.275 1.151-.487.555-.463 1.619-1.263 2.082-1.605.136-.114.496-.342.843-.334.373.008.514.242.594.374.013.022.024.041.035.056.06.084.154.07.194.051.216-.095.77-.292 1.261-.316.49-.024.744.241.81.377.812-.423 1.409-.456 1.606-.42.9.088.68.783.459 1.12-.193.25-.53.767-.33.834.248.082.686-.234.881-.643.156-.327.357-.627.438-.735.634-.85 1.181-.938 1.412-.928 1.007 0 .862.814.53 1.166-.367.389-1.547.963-1.644 1.005-.098.041-.27.15-.211.212.047.05.265.021.367 0 .546-.07 1.832-.785 2.407-1.134.185-.116.608-.438.82-.795.212-.358.506-.427.626-.417.087.005.272.045.323.163.051.118.206.086.277.056.413-.163.738-.182.849-.171.726.087.608.626.458.885l-.458.73-.046.067c-.191.28-.49.717-.291.76.215.046.62-.222.795-.362.704-.562 1.054-1.489 1.297-2.134l.032-.082c.08-.155-.034-.232-.102-.252-.245-.09-.794-.291-1.031-.374-.238-.083-.257-.267-.236-.349.015-.075.074-.271.182-.452s.346-.183.452-.162l.977.162a.488.488 0 00.526-.22l.56-.969c.074-.13.29-.363.56-.239.27.124.229.384.175.498l-.594 1.156c.234.05.768.164 1.032.226s.299.211.283.278c-.182.607-1.186.807-1.618.833-.345.02-.462.142-.478.2-.127.34-.41 1.08-.521 1.321-.13.283-.17.541-.186.66-.035.963.811 1.527 1.738 1.527.863 0 2.016-.745 2.35-.96l.06-.04c.176-.11.367-.125.462-.058.19.164.112.702-.045.813-.463.33-2 1.088-3.163 1.088-1.42 0-2.208-1.318-2.425-2.027-.193.213-.758.632-1.48.608-.72-.024-.685-.416-.577-.608l.463-.858c.11-.186.258-.59-.032-.712-.29-.121-.556.127-.654.266l-.585.962c-.14.244-.518.718-.915.665-.396-.052-.367-.329-.302-.46l.302-.534c-.614.365-1.922 1.093-2.476 1.093-.507 0-.759-.232-.822-.348-.325.226-1.12.655-1.692.564-.572-.091-.442-.495-.305-.685.109-.179.38-.63.589-1.007.208-.377-.03-.427-.21-.443-.433-.039-.808.316-.976.564l-.693 1.007c-.181.278-.624.771-.946.514-.277-.22-.13-.552-.03-.635l.127-.154c.138-.167.284-.343.365-.47.129-.206.319-.647.044-.762-.274-.114-.724.255-.931.5l-.988 1.218c-.114.11-.403.28-.64.082-.239-.197-.1-.457 0-.563.673-.709.819-1.253.72-1.412-.08-.126-.245-.052-.318 0l-1.659 1.266-.048.04c-.404.328-1.081.878-1.914.878-1.084 0-1.283-1.101-.582-2.057.7-.956 1.732-1.285 2.247-.963.516.323.001 1.517-.958 1.773l-.008.002zm-.718-.382c.19-.315.777-1.013 1.08-.779.153.146-.01.518-1.08.779zm10.504-.06c.156-.331.669-1.081.995-.877.167.13.043.516-.995.877z" fill="#fff"/></svg>