<svg width="56" height="56" viewBox="0 0 56 56" xmlns="http://www.w3.org/2000/svg"><path fill="#F0F3FA" d="M0 0h56v56H0z"/><path fill="#BC9D66" d="M13 27h30v16H13z"/><ellipse cx="27.95" cy="22.32" rx="13.48" ry="13.32" fill="#F7E902"/><path d="M21 13.9V36h.32V14h13.16v21.46H35V13H21.7l-.7.9Z"/><path d="m27.73 21-7.26 15h15.9l-8.64-15Z" fill="#D92516"/><path d="M30.6 27h-4.78v.55h1.7v6.04c.05 1.1-.58 1.44-.9 1.48-1.12.05-1.22-1.24-1.13-1.89-1.36.87-1.1 2.47 1.13 2.53 1.78.05 2.3-1.22 2.38-1.86v-6.3h1.6V27Z" fill="#fff"/></svg>