<svg xmlns="http://www.w3.org/2000/svg" width="56" height="56"><path fill="#F0F3FA" d="M0 0h56v56H0z"/><path d="M14 26a2 2 0 00-2-2v5a1 1 0 01-1 1H4c0 1.1.9 2 2 2h7a1 1 0 001-1v-5zm12 0c0-1.1.9-2 2-2v5a1 1 0 001 1h7a2 2 0 01-2 2h-7a1 1 0 01-1-1v-5zm-3-2a2 2 0 012 2h-7.5a.5.5 0 000 1h6c.83 0 1.5.67 1.5 1.5v2c0 .83-.67 1.5-1.5 1.5H17a2 2 0 01-2-2h7.5a.5.5 0 000-1h-6a1.5 1.5 0 01-1.5-1.5v-2c0-.83.67-1.5 1.5-1.5H23zm24.53 8v-.14a3.09 3.09 0 00-3.03-3.15A3.09 3.09 0 0041.47 32h-1.66v-.14c0-2.69 2.1-4.86 4.69-4.86a4.77 4.77 0 014.69 5h-1.66z" fill="#838383"/><path d="M49.86 32v-.13a5.5 5.5 0 00-5.36-5.62A5.5 5.5 0 0039.14 32H37v-.13c0-4.34 3.36-7.87 7.5-7.87 4.14 0 7.5 3.53 7.5 7.88V32h-2.14z" fill="#E08831"/></svg>