<svg width="56" height="56" viewBox="0 0 56 56" xmlns="http://www.w3.org/2000/svg"><path fill="#17469E" d="M0 0h56v56H0z"/><path d="m29.98 18.33-3.44 2.29c7.45.2 12.52-2.11 12.52-2.11-5.4 2.56-11.1 2.8-13.5 2.76L21.46 24s12.83-.31 21-8c0 0-5.06 3.65-12.48 2.33Z" fill="#ED1C24"/><path d="M45 24s.16.26-.06.58l-2.84 3.94.34-3.75c.07-.48.44-.77.44-.77h-4.27l-3.25 4.52.34-3.72.01-.02c.06-.48.44-.78.44-.78h-4.28c-.2-.01-9.97-.43-11.43 2.22.6-1.23 1-2.18 1.03-2.22h-7.09c.08.02.47.29.34.66a52.44 52.44 0 0 1-2.28 6.46c-1.31 2.88-4.28 3.93-6.31 4.67-.2.07-.16.2.03.2 5.01.04 9.12-.37 12.23-5.85a73.3 73.3 0 0 0 1.99-3.8 1.4 1.4 0 0 0-.09.27c-.64 2.96 4.8 3.15 4.71 3.85-.07.63-3.3.43-5.44-.28l-.03-.01c-.4-.14-.58-.39-.58-.39l.02.17v.03l.09.79.2 2s11.31 1.45 11.52-2.29c.16-2.83-5.3-3.17-5.23-3.79.05-.58 2.7-.65 4.31-.41h.02c.72.12.82.51.82.51l.12-.27L31.88 24l-.74 8.25c-.06.5-.44.75-.44.75h4.27l3.25-4.75-.35 4.01c-.06.48-.44.74-.44.74h4.28L48 24h-3Z" fill="#fff"/></svg>