<svg width="56" height="56" viewBox="0 0 56 56" xmlns="http://www.w3.org/2000/svg"><path fill="#F0F3FA" d="M0 0h56v56H0z"/><path d="M11 23H6v.5l1 .5v9.44c0 1.3-1.29 1.87-2 2V36c3.95-.54 4.94-2.7 5-3.72V24l1-.5V23ZM12.38 23h8.37l.25 3h-.5l-.85-1.5H18V32l1 .5v.5h-5v-.5l1-.5v-7.5h-1.64L12.5 26H12l.38-3ZM42.38 23h8.38l.24 3h-.5l-.85-1.5H48V32l1 .5v.5h-5v-.5l1-.5v-7.5h-1.64L42.5 26H42l.38-3ZM30 23h-7.96v.5l.96.5v8l-.96.44V33H30v-2.5h-.34l-.2 1H26v-7h3.45l.21 1H30V23ZM31 23h5v.5l-1 .49v8.1l1 .41v.5h-5v-.5l1-.42v-8.1l-1-.48V23Zm4 4.89 3 4.54V33h4v-.5l-1.02-.5-3.48-4.5L40 24l.98-.5V23H37v.5l1 .5-3 3.89Z"/><path d="M25.17 27c-3.5 0-5.57.63-6.17.94.95.35 3.52 1.06 6.17 1.06 2.64 0 4.99-.7 5.83-1.06-.49-.31-2.33-.94-5.83-.94Z" fill="#E6000D"/></svg>