<svg width="56" height="56" xmlns="http://www.w3.org/2000/svg"><path fill="#F0F3FA" d="M0 0h56v56H0z"/><path d="M14.938 40.11c-.932-1.255-1.73-7.711-2.22-9.66-.491-1.95-1.06-4.464-1.347-5.349-.47-1.448-1.562-4.416-1.342-5.968l.115-1.081.09.054c-.031.595 1.163 4.509 1.397 5.362 1.13 4.095 1.757 6.758 2.587 10.951.181.912.973 4.981 1.242 5.537l2.821-.4a70.418 70.418 0 012.937-.245c4.726-.302 11.736-.254 16.388.947.417.109.864.275 1.267.365.093-.16.542-2.713.634-3.164 1.161-5.716 2.91-12.3 5.18-17.61.26-.605.985-2.141 1.313-2.515l-2.694 8.472a3.967 3.967 0 01-.175.534l-.19.74c-.195.505-.883 2.908-1.019 3.393-.904 3.24-1.83 6.325-2.6 9.607-.064.271-.119.676-.197.92l-2.118-.452c-5.036-.895-12.743-.788-17.622-.234-1.024.116-2.762.49-3.616.323-.457-.09-.619-.24-.831-.527z" fill="#89BE5C"/><path d="M26.982 33.214c-.114-.114-.05-.059-.09-.175-.105-.03-.232-.15-.274-.158-.108-.026-.14.086-.356-.025-.298-.152-.203-.408-.16-.796.33-2.968-.595-6.195-3.584-7.034-.85-.24-3.136-.559-3.527.285-.055.644 3.084 1.437 2.34 2.47-.217.3-.863.442-.99.69.2.363 1.393.737 2.04 1.155 1.378.89-.277 1.41-.388 1.695-.125.32.527.806.922 1.324.189.247.832 1.162.631 1.577-.306.158-.81-.647-.966-.814-.877-.93-2.05-1.05-1.348-2.05.279-.398.68-.563.954-.917-.38-.852-3.101-1.168-2.56-2.355.22-.483.779-.46.945-.805.017-.257-1.237-.825-1.702-1.158-.39-.28-1.01-.778-.566-1.274.66-.734 1.763-.849 2.787-.814 1.087.036 1.493.236 2.415.46l-.274-.208c-1.503-.864-4.238-1.62-5.829-1.313-1.583.305-1.169 1.626-.593 2.332.865 1.06 1.853 1.298 2.156 1.768-.01.01-.026.007-.032.024l-.101.061c-.298.155-.763.304-.848.873-.092.606.413 1.037.662 1.275.6.571.938.816 1.608 1.283 1.028.717-.23.668-.293 1.722-.03.506.173.717.393.972.097.11.12.169.188.273.439.68 1.035 1.414 1.816 1.792.943.458 1.87-.059 2.716-.417.742-.319 1.934-.535 1.908-1.718z" fill="#7DC7F5"/><path d="M35.032 22.852c.642-.304 2.033-1.14 2.727-.39.092.582-.81 1.464-1.056 1.738-1.064 1.187-1.47 1.168-1.91 2.268-.4 1.006-.627 1.402-1.295 2.18-.688.8-1.853 2.244-2.564 2.986-.134.139-.208.191-.328.332-.403.477-2.233 2.454-2.87 2.684-.257-.136.073-.073-.262-.128-.12.236-.27.503-.272.838-.005 1.497 1.446.293 1.921-.115.404-.346 3.383-3.287 4.03-4.055l1.078-1.267c.531-.581.47-1.57 1.08-2.453.165-.24.289-.408.46-.66.807-1.176.892-1.085 1.57-1.947.682-.872 1.38-1.629 2.013-2.678.396-.657.552-1.022-.041-1.529-.88-.752-2.46.374-3.11 1.004-.426.414-.733.622-1.17 1.192z" fill="#89BE5C"/><path d="M26.892 33.04c.436-.645.717-1.238 1.032-2.135.248-.71.46-1.904.765-2.446.13-.791.809-1.652.871-1.853-.277-.398-.343-.2-.633.043-1.213 1.012-1.305 2.611-1.61 4.03-.006.027-.482 1.829-.56 1.668-.004-.008-.017.023-.026.033.09-1.167.23-2.094.072-3.295-.202-1.547-.437-1.605-.876-2.65-.097-.099-.116-.155-.204-.279-.532-.743-1.386-1.306-2.218-1.664-.922-.224-1.327-.424-2.415-.46-1.023-.034-2.126.081-2.787.815-.445.496.176.993.566 1.273.465.334 1.719.902 1.702 1.159-.165.345-.725.322-.946.805-.541 1.186 2.18 1.503 2.56 2.355-.273.354-.674.52-.953.917-.702 1 .471 1.121 1.348 2.05.158.167.66.971.966.814.2-.416-.442-1.33-.63-1.577-.396-.517-1.048-1.003-.923-1.324.11-.285 1.765-.805.387-1.696-.645-.417-1.838-.792-2.039-1.154.127-.247.772-.39.99-.69.744-1.033-2.396-1.826-2.34-2.47.391-.844 2.678-.523 3.527-.285 2.988.837 3.914 4.066 3.584 7.033-.043.388-.138.645.16.797.217.112.25 0 .356.024.042.012.169.131.274.161z" fill="#4D64AA"/><path d="M28.69 28.459c-.306.542-.518 1.736-.766 2.445-.314.896-.596 1.49-1.032 2.134.04.116-.025.06.09.175.327.158.396.026.597-.121-.045.173-.122.308-.137.511-.02.262.065.398.058.66.089-.14.15-.27.243-.398.26-.355 1.886-2.023 2.24-2.39.443-.463.843-.894 1.278-1.368.43-.469.841-.889 1.244-1.405.66-.843.394-1.548 2.09-3.217l2.03-1.935c.161-.157.548-.471.483-.816-.664-.24-1.992.85-2.416 1.141l-2.088 1.617c-.742.696-2.776 2.799-3.314 3.194-.334.245-.348.183-.63-.01l.03-.217z" fill="#A1C55A"/><path d="M35.032 22.852c-1.075.656-1.955 1.357-2.872 2.077-.482.377-.891.755-1.328 1.158l-1.315 1.257c-.086.135-.32.418-.41.53-.18.224-.26.312-.419.583l-.028.22c.282.191.296.253.63.01.537-.395 2.57-2.498 3.313-3.195l2.09-1.617c.423-.29 1.75-1.38 2.415-1.141.065.345-.322.659-.483.816l-2.03 1.935c-1.697 1.669-1.432 2.374-2.09 3.217-.404.516-.813.936-1.244 1.405-.435.473-.835.905-1.279 1.367-.353.368-1.98 2.036-2.24 2.39-.092.128-.153.259-.242.399l-.026.259c.335.056.006-.007.262.128.637-.23 2.467-2.207 2.87-2.684.12-.14.194-.193.328-.332.711-.742 1.875-2.186 2.564-2.987.668-.776.895-1.173 1.295-2.18.44-1.1.846-1.08 1.91-2.267.247-.276 1.148-1.156 1.056-1.739-.694-.75-2.084.087-2.727.391z" fill="#4D64AA"/><path d="M10.327 18.159c1.685-.578 2.335-.853 4.214-1.069 1.671-.191 3.366-.17 5.04.003 2.078.216 4.48.73 6.429 1.5.63.247 1.019.42 1.583.769.055.034.071.051.121.065.106.027.048.028.114-.01-.374-.52-1.978-1.516-2.581-1.783-1.588-.705-2.71-1.03-4.43-1.31-.403-.064-.886-.147-1.282-.169-.273-.015-.404-.051-.646-.055-.633-.009-1.542-.108-2.018-.028-.715.122-1.364.028-2.591.26-1.148.215-2.22.512-3.213 1.065l-.444.28c-.112.092-.218.348-.296.482zm17.85 1.156c.337.14 3.459-1.007 4.033-1.194a36.77 36.77 0 014.187-1.117c2.434-.486 4.735-.63 7.206-.356.796.088 1.581.314 2.307.394-.117-.103-.321-.156-.472-.203l-1.637-.447c-1.007-.227-2.163-.353-3.335-.392h-1.653c-.902.03-1.776.108-2.554.229-.812.126-1.556.223-2.313.413-1.58.398-2.674.694-4.139 1.428-.633.318-1.213.671-1.63 1.245z" fill="#89BE5C"/><path d="M27.163 26.372c-.186-.776.584-1.641 1.322-1.652.859-.014.978.646 1.083.814.096.155.36.325.355.703-.316.069-.662-.139-.85-.293-.26-.212-.196-.434-.649-.515-.83-.147-.947.47-1.261.943zm-1.236.064c.439 1.044.674 1.1.876 2.65.157 1.2.018 2.127-.072 3.294.01-.01.023-.042.027-.033.077.162.553-1.64.56-1.668.304-1.419.396-3.018 1.61-4.03.289-.243.355-.441.632-.043-.061.2-.74 1.06-.87 1.853.158-.27.238-.36.418-.583.09-.114.324-.396.41-.53.141-.32.453-.547.665-.791.183-.21.697-.482.503-.88-.151-.309-.566-.393-.737-.688-.696-1.194-2.036-1.219-2.834-.32-.236.266-.343.62-.501.982-.194.441-.557.542-.687.787z" fill="#F2C244"/><path d="M27.163 26.372c.314-.473.43-1.09 1.262-.943.453.08.388.303.648.515.189.154.533.362.851.293.005-.378-.26-.549-.355-.703-.104-.169-.223-.828-1.083-.814-.739.012-1.51.877-1.323 1.652z" fill="#4D64AA"/></svg>