<svg width="56" height="56" viewBox="0 0 56 56" xmlns="http://www.w3.org/2000/svg"><path fill="#F0F3FA" d="M0 0h56v56H0z"/><path fill-rule="evenodd" d="M28 38.1v3.59c0 .1-.06.12-.15.07-.46-.24-1-.49-1.56-.73-.61-.28-1.22-.55-1.73-.83-.37-.2-.74-.3-1.1-.26-.1 0-.2.04-.27.11a.42.42 0 0 0-.13.26c-.03.22 0 .43.07.63.09.22.22.38.4.49.6.38 1.32.77 2.04 1.16.75.4 1.5.81 2.15 1.22a1.36 1.36 0 0 0 .71.19c.33-.01.56-.15.57-.42.02-.84 0-1.68 0-2.52v-2.35l.04-.03h.04l1.87 1.4a.6.6 0 0 1 .3.55.6.6 0 0 1-.34.52l-1.25.79a.61.61 0 0 0-.37.62l.03.74c.01.28.16.38.42.29a5.29 5.29 0 0 0 1.74-1.1l.44-.36a1.8 1.8 0 0 0 .7-1.64c-.02-.3-.12-.59-.28-.86a2.43 2.43 0 0 0-.65-.73c-.4-.3-1.06-.73-1.96-1.28l-.34-.2-.22-.14c-.12-.07-.17-.4-.17-.54v-2.72c0-.07.1-.12.16-.15l.43-.24c.12-.06.2-.1.4-.23.17-.06.3-.16.4-.3a.72.72 0 0 0-.03-.86.8.8 0 0 0-.44-.27.23.23 0 0 0-.15.02l-.66.3c-.07.04-.11.02-.11-.06V31.1c0-.06.03-.1.1-.1h1.98c.05 0 .08.13.05.17-.36.53-.34 1.3.04 2.87.35 1.44.83 2.98 1.42 4.63.48 1.3 1.07 2.78 1.79 4.47a.11.11 0 0 0 .15.05c1.82-.95 3.42-2.1 4.81-3.46a12.78 12.78 0 0 0 3.47-5.45l.5-1.46a15.44 15.44 0 0 0-3.16-14.96c-.94-1.1-1.74-1.9-2.4-2.44-4.14-3.29-8.81-4.2-14.04-2.75-1.9.53-3.46 1.23-4.69 2.1-1.17.82-2.2 1.74-3.1 2.76a15.3 15.3 0 0 0-3.35 14.42c.74 2.5 1.78 4.66 3.13 6.46a13.32 13.32 0 0 0 5.49 4.4c.06.04.1.02.14-.04a78.82 78.82 0 0 0 2.9-7.03l.05-.04h.06l3.53 2.19c.07.05.13.13.13.22Zm-1.54-24.17c-.17.83-.39 1.55-.65 2.15a5.72 5.72 0 0 1-1.2 1.82c-.38.37-.94.7-1.68.96a19.02 19.02 0 0 1-6.45 1.18.05.05 0 0 1-.05-.04.05.05 0 0 1 0-.05 14.34 14.34 0 0 1 10.01-6.07c.02.02.02.03.02.05Zm6.57 5.14a4.38 4.38 0 0 1-2.18-2.1 8.8 8.8 0 0 1-.9-2.98.08.08 0 0 1 .1-.1 13.5 13.5 0 0 1 9.87 6.59v.06a.05.05 0 0 1-.05.03 19.26 19.26 0 0 1-6.84-1.5Zm-5.07-4c-.27.96-.7 1.9-1.33 2.8-.05.09-.03.13.06.13h1.19c.08 0 .12-.05.12-.14v-2.78c0-.1-.01-.1-.04 0Zm1.04.66c0-.15.05-.16.1-.01.3.77.73 1.5 1.3 2.2v.04c0 .01-.02.04-.04.04H29.1c-.05 0-.08-.04-.09-.1v-2.17ZM17.75 26.01c1.67-.51 3.4-1.36 5.18-2.56.2-.13.45-.22.74-.27.17-.03.43-.04.78-.05h.23c.27 0 .47-.16.6-.44.23-.56.34-1.04.33-1.44-.02-.5-.24-.93-.65-1.26a2.5 2.5 0 0 0-1.08-.51.26.26 0 0 0-.18.02c-.55.3-1.1.51-1.64.67-1.87.55-4 1-6.38 1.32a.46.46 0 0 0-.35.25c-.48.87-.86 1.7-1.14 2.51a8.57 8.57 0 0 0-.53 2.65c0 .06.03.09.09.08 1.43-.27 2.76-.6 4-.97Zm12.94-6.86a3.23 3.23 0 0 0-1.07 2.26 3.97 3.97 0 0 0 .64 2.47c.05.08.03.12-.06.12H29.2c-.06 0-.1-.05-.14-.08a.2.2 0 0 1-.05-.14V19.1c0-.07.13-.11.2-.11h1.44c.12 0 .14.06.05.15ZM26.09 24h1.73c.09-.01.18-.08.18-.17v-4.7c0-.08-.09-.12-.17-.12l-2.1-.01a.08.08 0 0 0-.07.05.07.07 0 0 0 .01.09A3.76 3.76 0 0 1 26.1 24Zm10.4 1.72a22.4 22.4 0 0 1-3.37-2.02.9.9 0 0 0-.41-.16c-.42-.05-.86-.1-1.31-.13a.38.38 0 0 1-.32-.2 3.21 3.21 0 0 1-.4-1.1 2.1 2.1 0 0 1 .06-1.02c.11-.33.3-.6.57-.8.29-.24.65-.4 1.09-.48.06-.02.12 0 .17.02.95.5 2.08.9 3.4 1.23 1.56.39 3.08.7 4.56.96.1.02.2.06.25.14a1 1 0 0 1 .13.24l.04.1c.35.82.64 1.6.87 2.37.18.62.29 1.47.3 2.54 0 .05-.02.06-.06.05-2.14-.42-4-1-5.57-1.74Zm-21.25 8.7c.2-.07.38-.15.56-.24a19 19 0 0 0 3.5-2.42c.28-.25.67-.66 1.15-1.24.4-.47.7-.82.93-1.03.1-.1.21-.15.35-.16a6.9 6.9 0 0 0 2.93-.78c.46-.25.72-.65.78-1.18.06-.48-.14-1.02-.6-1.6a6.3 6.3 0 0 0-1.27-1.24c-.05-.04-.09-.03-.13 0-.33.35-.7.63-1.13.86-.95.53-1.96.98-3.03 1.37a63.6 63.6 0 0 1-5.6 1.7c-.02.02-.04.03-.03.06.1 2.04.59 3.99 1.45 5.84.03.06.08.08.14.06Zm10.73-4.56c.39-.37.7-.77.94-1.2.3-.56.4-1.04.3-1.44a1.88 1.88 0 0 0-.43-.76c-.4-.45-.77-.9-1.14-1.36-.05-.07-.04-.1.05-.1h2.23c.02 0 .04 0 .06.02l.02.06v4.88c0 .02-.01.04-.04.04h-1.94c-.13 0-.15-.05-.05-.14Zm3.64-1.55c-.24-.7-.16-1.28.23-1.76.4-.47.78-.94 1.15-1.4a.06.06 0 0 0 0-.07v-.01c-.01-.03-.02-.07-.04-.07h-1.79c-.05 0-.16.03-.16.1v4.78c0 .03.01.06.03.08a.1.1 0 0 0 .07.04h1.46c.09 0 .1-.03.04-.1a4.82 4.82 0 0 1-.99-1.6Zm4.74 1.4a8.26 8.26 0 0 1-2.5-.6 2.22 2.22 0 0 1-.72-.47c-.2-.2-.33-.4-.4-.64a1.5 1.5 0 0 1-.05-.75c.04-.27.16-.54.34-.8.41-.6.93-1.12 1.56-1.59.05-.03.1-.03.14.01.35.35.72.64 1.1.87 1.05.63 2.35 1.24 3.9 1.81 1.11.41 2.52.87 4.22 1.36.1.03.15.1.15.21a16.21 16.21 0 0 1-1.5 5.65.14.14 0 0 1-.09.08.14.14 0 0 1-.11-.01 18.62 18.62 0 0 1-3.76-2.7c-.28-.26-.65-.69-1.12-1.28a15.7 15.7 0 0 0-.84-1 .48.48 0 0 0-.32-.15ZM22.4 36.42l1.03-2.35c.21-.48.36-.96.44-1.44.12-.69.05-1.15-.21-1.4a3.05 3.05 0 0 1-.25-.26l-.22-.24a1.11 1.11 0 0 0-1.15-.25c-.32.1-.56.27-.7.54-.32.6-.76 1.17-1.3 1.67a19.86 19.86 0 0 1-4.14 2.9.11.11 0 0 0-.06.06c-.01.03 0 .06.01.1a17.1 17.1 0 0 0 4.55 4.95c.03.02.05.02.07.01.03 0 .05-.02.06-.04.43-.94 1.05-2.36 1.87-4.25Zm12.72 4.36-.42-1.02a375.82 375.82 0 0 1-2.29-5.63c-.19-.48-.3-.92-.34-1.34-.06-.57.05-1 .32-1.26l.2-.2c.12-.14.22-.24.29-.3.11-.1.23-.17.36-.2.24-.08.5-.07.78.02.29.1.5.27.62.51.36.7.84 1.32 1.44 1.89A19.14 19.14 0 0 0 39.83 36c.05.02.05.05.03.1a15.15 15.15 0 0 1-4.7 4.7.05.05 0 0 1-.04-.02Zm-10.33-6.8 3.03-1.12c.11-.04.18-.12.18-.22v-1.56a.07.07 0 0 0-.03-.05.1.1 0 0 0-.07-.03h-2.86c-.1 0-.13.04-.07.1.22.26.27.72.16 1.39a7.1 7.1 0 0 1-.4 1.44c-.03.07 0 .08.06.06Zm3.05 2.5-1.57-1.01a.06.06 0 0 1-.03-.06l.01-.4c0-.03.02-.05.04-.07l1.5-.7c.04-.03.21.02.21.05v2.13c0 .02-.04.04-.07.05h-.01c-.03.02-.05.02-.08 0Z" fill="#4277B9"/></svg>