<svg width="56" height="56" viewBox="0 0 56 56" xmlns="http://www.w3.org/2000/svg"><path fill="#F0F3FA" d="M0 0h56v56H0z"/><path fill-rule="evenodd" d="M44 28a16 16 0 1 1-32 0 16 16 0 0 1 32 0Zm1 0a17 17 0 1 1-34 0 17 17 0 0 1 34 0Zm-7 0a10 10 0 1 1-20 0 10 10 0 0 1 20 0Zm1 0a11 11 0 1 1-22 0 11 11 0 0 1 22 0Zm-17-4h1v-1h11v1h1v-.5c0-.17.1-.5.5-.5s.5.67.5 1v2l-2 4v.07c.3.08.5.24.5.43s-.2.35-.5.43V35h-1.5V25H32v10h-1.5v-4.07c-.3-.08-.5-.24-.5-.43s.2-.35.5-.43V25h-4v5.07c.3.08.5.24.5.43s-.2.35-.5.43V35H25V25h-.5v10H23v-4.07c-.3-.08-.5-.24-.5-.43s.2-.35.5-.43V30l-2-4v-2c0-.33.1-1 .5-1s.5.33.5.5v.5Zm10.7 6.8v4h1.1v-3.82l-.3.02a1.5 1.5 0 0 1-.8-.2Zm1.1-.03a1.72 1.72 0 0 1-.92-.1c-.16-.08-.18-.15-.18-.17 0-.02.02-.1.18-.17.15-.08.37-.13.62-.13.1 0 .2 0 .3.03v.54Zm.2-.05a1 1 0 0 0 .12-.05c.16-.08.18-.15.18-.17 0-.02-.02-.1-.18-.17a1 1 0 0 0-.12-.05v.44Zm-.2-.7-.3-.02c-.33 0-.62.08-.8.2v-1.1h1.1v.92Zm-2-.92v1.1a1.5 1.5 0 0 0-.8-.2c-.1 0-.2 0-.3.02v-.92h1.1Zm-.8 1.1c-.1 0-.2 0-.3.03v.54a1.72 1.72 0 0 0 .92-.1c.16-.08.18-.15.18-.17 0-.02-.02-.1-.18-.17a1.43 1.43 0 0 0-.62-.13Zm-.62.13a1 1 0 0 1 .12-.05v.44a1 1 0 0 1-.12-.05c-.16-.08-.18-.15-.18-.17 0-.02.02-.1.18-.17ZM31 31c-.1 0-.2 0-.3-.02v3.82h1.1v-4c-.18.12-.47.2-.8.2Zm-5.8-.2v4h1.1v-3.82L26 31a1.5 1.5 0 0 1-.8-.2Zm1.1-.03a1.72 1.72 0 0 1-.92-.1c-.16-.08-.18-.15-.18-.17 0-.02.02-.1.18-.17.15-.08.37-.13.62-.13.1 0 .2 0 .3.03v.54Zm.2-.05a1 1 0 0 0 .12-.05c.16-.08.18-.15.18-.17 0-.02-.02-.1-.18-.17a1 1 0 0 0-.12-.05v.44Zm-.2-.7L26 30c-.33 0-.62.08-.8.2v-1.1h1.1v.92Zm-2-.92v1.1a1.5 1.5 0 0 0-.8-.2c-.1 0-.2 0-.3.02v-.92h1.1Zm-.8 1.1c-.1 0-.2 0-.3.03v.54a1.72 1.72 0 0 0 .92-.1c.16-.08.18-.15.18-.17 0-.02-.02-.1-.18-.17a1.43 1.43 0 0 0-.62-.13Zm-.62.13a1 1 0 0 1 .12-.05v.44a1 1 0 0 1-.12-.05c-.16-.08-.18-.15-.18-.17 0-.02.02-.1.18-.17Zm.62.67c-.1 0-.2 0-.3-.02v3.82h1.1v-4c-.18.12-.47.2-.8.2ZM34 25v2c.33-.17.5-.6.5-1s-.17-.83-.5-1Zm-.2 1.9v-1.7h-1.1v1.7h1.1Zm-1.1.2h1.1v1.8h-1.1v-1.8Zm-6.4-1.9v1.7h-1.1v-1.7h1.1Zm-1.1 3.7v-1.8h1.1v1.8h-1.1Zm5.5-1.8v1.8h1.1v-1.8h-1.1Zm1.1-.2h-1.1v-1.7h1.1v1.7Zm-7.5-1.7v1.7h-1.1v-1.7h1.1ZM23 26.9v.1c-.33-.17-.5-.6-.5-1s.17-.83.5-1v1.9Zm1.3.2h-1.1v1.8h1.1v-1.8Zm-9.07 2.76h.14a13.19 13.19 0 0 1-.05-1.04l-.14.01-.01.23-.04.03-.24.03-.48.04h-.13a.03.03 0 0 1-.02-.03v-.02l.03-.04a13.24 13.24 0 0 1 .99-.93 4.7 4.7 0 0 1-.03-.3v-.29l-.01-.08h-.14l-.01.16a22.27 22.27 0 0 1-.94.92l-.17.16-.29-.27a9.69 9.69 0 0 1-.5-.55.9.9 0 0 1-.04-.14l-.01-.09H13a3.28 3.28 0 0 1 .03.6h.13a7.78 7.78 0 0 1 1 .89v.02c-.47.02-.74.04-.8.03-.06 0-.1 0-.11-.03a.78.78 0 0 1-.05-.23h-.13a11.36 11.36 0 0 1 .05 1.04l.14-.01.01-.23c0-.02.02-.03.03-.03a11.7 11.7 0 0 1 .7-.07l.61-.04a4 4 0 0 1 .56.02l.03.02.03.22Zm-.13-2.46v-.19a11.97 11.97 0 0 0-.65-.42l-1.3-.75.03-.23 1.8-.48c.23-.07.36-.1.38-.13.03-.01.05-.08.07-.2l.15.03a11.37 11.37 0 0 0-.14 1.01l-.15-.02a.98.98 0 0 0 .01-.22.05.05 0 0 0-.04-.04l-.21.04-.28.07a25.5 25.5 0 0 0-.11.82l.17.1a2.26 2.26 0 0 0 .25.12h.01c.02 0 .04 0 .06-.03l.06-.22.14.02a4.84 4.84 0 0 0-.1.74l-.15-.02Zm-1.4-1.25.78.44a4.64 4.64 0 0 0 .09-.67l-.86.23Zm1.77-1.22.12.05a13.3 13.3 0 0 1 .34-.98l-.13-.04c-.05.12-.08.19-.1.2a.06.06 0 0 1-.04.02l-.23-.06-.47-.15a.74.74 0 0 1-.11-.05c-.01 0-.02-.02-.01-.03v-.02l.05-.02a12.14 12.14 0 0 1 1.26-.5l.09-.29.1-.26.03-.08-.13-.05a.48.48 0 0 1-.07.14l-.33.15c-.33.14-.63.26-.89.35l-.21.08-.17-.35a7.94 7.94 0 0 1-.27-.7l.02-.14.02-.1-.12-.04a4.4 4.4 0 0 1-.2.56l.02.02.06.02.05.02a7.2 7.2 0 0 1 .59 1.19v.02l-.77-.27c-.05-.02-.08-.04-.08-.07-.01-.02 0-.1.04-.23l-.13-.04a10.06 10.06 0 0 1-.33.97l.12.04a1 1 0 0 1 .1-.2.07.07 0 0 1 .04-.02c.02 0 .1 0 .22.05l.46.14.57.2a4.29 4.29 0 0 1 .52.23l.01.03-.04.21Zm.8-2.33a.48.48 0 0 0 .06-.17 16.6 16.6 0 0 0-.44-.63l-.92-1.2.12-.2 1.85.24c.23.02.36.03.4.02.02 0 .07-.06.13-.15l.13.07a10.64 10.64 0 0 0-.51.89l-.13-.08.1-.2c0-.02-.01-.04-.03-.05a.98.98 0 0 0-.21-.04l-.29-.04c-.07.1-.14.24-.22.38l-.15.26-.04.08.12.15a2.55 2.55 0 0 0 .2.2c.02.02.04.02.06 0 .02 0 .06-.07.14-.17l.12.07a4.98 4.98 0 0 0-.37.64l-.12-.07Zm-.82-1.69.54.7a6.34 6.34 0 0 0 .34-.58l-.88-.12Zm2.38-.78.1.09a8.07 8.07 0 0 1 .7-.82l-.1-.08-.2.17c-.02 0-.06-.01-.12-.06l-.44-.36-.82-.7-.06-.06.01-.04a4 4 0 0 1 .4-.4c.02 0 .1.06.24.17l.09-.1a5.13 5.13 0 0 1-.37-.37h-.03a25.21 25.21 0 0 1-1.32 1.56v.03c.12.08.26.19.41.32l.1-.1a4.08 4.08 0 0 1-.22-.24l.06-.09a4.65 4.65 0 0 1 .32-.38 16.99 16.99 0 0 1 .98.83 6.95 6.95 0 0 1 .4.4c0 .02 0 .05-.02.07l-.1.16Zm1.22-1.18-.09-.1c.1-.1.16-.16.16-.19l-.06-.12a13.27 13.27 0 0 0-.96-1.05l-.22-.23h-.06c-.02 0-.09.05-.2.13l-.09-.1a13.7 13.7 0 0 0 .78-.7l.09.1c-.1.1-.16.17-.16.19 0 .02 0 .06.04.1l.4.47a55.38 55.38 0 0 0 .82.83h.05c.02 0 .08-.05.18-.13l.09.1-.14.12-.05.04-.2.17-.38.37Zm1.23-1.24.08.12.36-.27.11-.08c.13-.1.26-.18.4-.26l-.08-.11a.88.88 0 0 1-.22.12c-.03 0-.06-.02-.1-.06a6.67 6.67 0 0 1-.43-.64 8.74 8.74 0 0 1-.06-1.33l-.05-.07-.2.15.09.96.02.26c-.29-.16-.52-.28-.7-.35-.16-.08-.28-.12-.36-.13h-.17l-.37.4.07.1.06-.05a.15.15 0 0 1 .07-.03c.06 0 .15.01.26.05a6.4 6.4 0 0 1 .99.41c.03.02.09.1.17.21l.07.1.16.26c.02.04.02.07 0 .1a.66.66 0 0 1-.17.14Zm1.3-.92a.52.52 0 0 0 .15-.1 13.35 13.35 0 0 0 0-.77l-.05-1.5.2-.1 1.38 1.26c.18.16.28.24.31.25.03.02.1 0 .2-.04l.06.13a13.15 13.15 0 0 0-.92.43l-.07-.14.2-.1v-.06c0-.02-.06-.07-.14-.16l-.21-.2-.03.02-.38.16-.35.17.01.2a2.45 2.45 0 0 0 .04.28c.02.02.03.03.05.03.03 0 .1-.02.22-.07l.06.14a5.32 5.32 0 0 0-.67.3l-.06-.13Zm.3-1.85.04.9a7.37 7.37 0 0 0 .62-.3l-.66-.6Zm4.83.05-.05-.03a1.36 1.36 0 0 1-.61.27.91.91 0 0 1-.73-.13 1.02 1.02 0 0 1-.4-.68.92.92 0 0 1 .1-.69c.13-.18.31-.3.56-.34.1-.03.2-.03.3-.02.1 0 .17.03.23.06l.1.06.07.27.13-.02a3.2 3.2 0 0 1-.02-.52l-.01-.02a2.4 2.4 0 0 0-.83 0c-.4.08-.71.24-.9.5-.2.24-.26.53-.2.86.04.22.13.41.26.57.14.16.31.27.52.33a1.86 1.86 0 0 0 1.1-.1c.11-.04.22-.11.33-.2l.05-.17Zm.29.3v-.08l.15-.1c.02-.16.02-.5.01-1.04 0-.37-.01-.6-.02-.73 0-.06-.02-.1-.04-.12-.02-.01-.1-.03-.24-.04v-.13h.6l.88-.03h.25l.02.03c-.03.12-.04.27-.05.47h-.13c0-.16-.01-.24-.02-.25l-.07-.03a7.12 7.12 0 0 0-.72 0l-.01.79a4.36 4.36 0 0 0 .58-.02c.02 0 .04-.02.04-.04l.02-.2h.14v.34l.01.36h-.14a.94.94 0 0 0-.03-.24l-.04-.02a2.23 2.23 0 0 0-.57 0v.17c0 .3.01.54.03.7h.32c.18 0 .34-.01.5-.03l.06-.34h.13l-.03.54a4.61 4.61 0 0 1-.63.02h-.44l-.56.03Zm1.82-.21-.03.13a7.61 7.61 0 0 1 .74.14l.03-.14c-.14-.03-.21-.06-.23-.08-.02-.02-.02-.08 0-.17l.21-1.23.04-.21.34 1.22.2.74.1.02.34-.49.85-1.16-.17.95-.1.52c-.02.08-.04.12-.06.13-.03.02-.07.02-.15.01l-.09-.01-.02.13a19.97 19.97 0 0 1 1 .18l.02-.13c-.13-.03-.2-.06-.21-.07a.1.1 0 0 1-.03-.04c0-.03.01-.15.05-.36l.01-.09.09-.5.15-.75c.02-.08.04-.13.06-.14.02-.02.1-.01.24 0l.02-.13a7.53 7.53 0 0 1-.74-.14c-.2.32-.55.8-1.04 1.45a213 213 0 0 1-.46-1.72 13.14 13.14 0 0 1-.78-.14l-.03.13.22.07.03.04-.02.23-.1.53v.02c-.06.3-.1.58-.16.84-.03.12-.06.2-.08.21-.02.02-.07.03-.15.02l-.1-.01Zm3.19.81.03-.08a1 1 0 0 0 .18-.02 14.28 14.28 0 0 0 .68-1.64c.02-.06.02-.1.01-.12 0-.03-.08-.07-.2-.13l.05-.13c.23.1.41.19.55.24l.82.31.23.1v.03l-.22.42-.11-.05c.05-.15.08-.23.07-.24 0-.02-.02-.03-.05-.06l-.37-.18a8.37 8.37 0 0 0-.3-.1l-.31.72a4.36 4.36 0 0 0 .55.22c.02 0 .04-.01.05-.03l.1-.18.13.05-.04.09-.1.23-.13.34-.13-.05.07-.23c0-.02-.01-.03-.03-.04a2.2 2.2 0 0 0-.53-.22 12.5 12.5 0 0 0-.31.82l.29.12c.17.07.32.12.47.16l.2-.29.12.05c-.1.17-.17.34-.24.5l-.27-.1h-.01l-.3-.13a12.26 12.26 0 0 0-.95-.38Zm1.76.54-.07.11.16.1.18.1.3.2.08-.1a.9.9 0 0 1-.18-.16v-.03a21.63 21.63 0 0 1 .46-.8l.32-.52.1.75c.08.6.16 1.1.23 1.5l.12.1.09.09.03-.01.26-.45.35-.54.34-.54c.08-.12.12-.19.15-.2a.09.09 0 0 1 .03-.03.1.1 0 0 1 .04 0c.03 0 .1.04.2.1l.07-.12a10.24 10.24 0 0 1-.66-.41l-.07.11.18.14.02.04a22.32 22.32 0 0 1-.4.7l-.35.55-.12-.8c-.07-.48-.13-.92-.17-1.31a7.01 7.01 0 0 1-.47-.3l-.1-.06-.07.11.18.16.01.05c0 .03-.06.12-.15.27l-.36.58a23.94 23.94 0 0 1-.47.7.1.1 0 0 1-.06.02.83.83 0 0 1-.2-.1Zm2.46 1.84.09-.1.15.12.07.02c.02 0 .04 0 .07-.03a24.36 24.36 0 0 0 1.22-1.3s-.02-.04-.08-.09a4.7 4.7 0 0 0-.38-.3h-.03l-.21.2-.1-.1c.14-.15.26-.28.35-.4h.02a19.8 19.8 0 0 0 1.5 1.39v.03c-.11.1-.24.2-.38.35l-.1-.1c.12-.13.18-.2.18-.23 0-.01 0-.03-.02-.05a4.01 4.01 0 0 0-.4-.38l-.06.06-.74.78-.38.43-.06.12c0 .02.06.08.17.2l-.1.1a10.09 10.09 0 0 0-.78-.72Zm2.43 1.57-.08-.12a3.83 3.83 0 0 1-.48.27 1.56 1.56 0 0 0 .27.67c.17.25.37.4.59.45.22.06.42.02.6-.1a.6.6 0 0 0 .23-.26c.04-.09.05-.19.02-.3a1.76 1.76 0 0 0-.14-.34 2.2 2.2 0 0 1-.15-.36.3.3 0 0 1 .01-.18c.02-.05.07-.1.12-.14.1-.06.2-.08.3-.06.1.03.2.1.28.22.06.09.1.18.11.27.02.09.02.15 0 .19l-.21.18.07.11a3.35 3.35 0 0 1 .42-.22l.02-.04a1.37 1.37 0 0 0-.25-.56c-.18-.26-.37-.4-.56-.44a.69.69 0 0 0-.54.12.59.59 0 0 0-.2.24.48.48 0 0 0-.05.28c.02.1.08.26.2.48.07.15.1.27.1.36-.02.08-.07.15-.16.21-.1.07-.21.1-.33.06a.53.53 0 0 1-.3-.22.77.77 0 0 1-.14-.47.3.3 0 0 1 .03-.13c.02-.03.1-.08.22-.17Zm2.31.83.12-.06a19.21 19.21 0 0 0 .43.92l-.12.06a.61.61 0 0 0-.11-.18.07.07 0 0 0-.04-.02l-.08.01a10.5 10.5 0 0 0-1.33.67.38.38 0 0 0-.09.22c0 .12.02.24.08.35.07.16.15.26.24.32.1.06.19.08.3.07.1-.01.3-.1.6-.23l.54-.25c.12-.06.19-.1.2-.12a.07.07 0 0 0 .02-.05l-.06-.23.12-.05a7.86 7.86 0 0 0 .32.68l-.13.05c-.04-.1-.08-.15-.11-.16-.03-.01-.1 0-.19.04a17.53 17.53 0 0 0-1.09.48.9.9 0 0 1-.39.06.65.65 0 0 1-.35-.16c-.12-.1-.23-.24-.31-.43-.1-.2-.14-.37-.14-.53 0-.15.03-.28.09-.37.06-.1.18-.19.35-.27l.66-.3h.01l.38-.19c.07-.03.11-.06.13-.08a.08.08 0 0 0 .02-.05l-.07-.2Zm.37 4.36-.13.03c.04.21.05.32.04.35-.01.02-.1.05-.26.1l-.23.03c-.1-.13-.16-.26-.2-.39a.82.82 0 0 1 .13-.68c.15-.21.37-.35.67-.42a.93.93 0 0 1 .72.07c.2.12.34.32.4.58.03.15.04.27.03.39a.6.6 0 0 1-.11.3l-.26.08.03.13c.2-.04.37-.05.51-.05l.02-.02a2.68 2.68 0 0 0-.06-.87c-.1-.44-.28-.75-.54-.93a1.07 1.07 0 0 0-.9-.15c-.34.08-.58.26-.73.53-.15.28-.18.62-.09 1.02a2.53 2.53 0 0 0 .42.9 4.11 4.11 0 0 1 .58-.14l.09.12.1-.02a14.73 14.73 0 0 1-.23-.96Zm-.5 1.32c0 .1.01.16.03.18a18.21 18.21 0 0 0 .71.3l1.41.52.01.24-1.7.78c-.2.1-.32.16-.34.19-.03.02-.04.09-.04.2h-.15a12.65 12.65 0 0 0-.03-1.01h.14l.03.21c.01.02.03.03.05.03.02 0 .09-.02.2-.07l.27-.12c0-.13 0-.28-.02-.44v-.31l-.01-.08-.19-.06a2.39 2.39 0 0 0-.28-.07.05.05 0 0 0-.05.03l-.02.22-.14.01a6.38 6.38 0 0 0-.03-.74l.14-.01Zm1.59 1-.84-.32a6.05 6.05 0 0 0 .02.69l.82-.38Zm-1.54 1.49-.13-.02a19.53 19.53 0 0 1-.15 1.01l.14.02a.67.67 0 0 1 .06-.2.08.08 0 0 1 .03-.04l.27.02c.21.01.39.03.52.05l.6.1.46.09-.02.19c-.02.15-.07.26-.16.32a.4.4 0 0 1-.31.07.43.43 0 0 1-.32-.2.45.45 0 0 1-.08-.3l.03-.1a.45.45 0 0 1-.06-.03l-.54.26-.7.31a24 24 0 0 1-.07.52v.1l.11.02.04-.12a.47.47 0 0 1 .13-.1l.43-.2.56-.26c.05.2.11.33.2.42.08.09.19.14.31.16.1.01.2 0 .27-.03a.41.41 0 0 0 .19-.17c.04-.07.08-.2.1-.36l.11-.8.07-.42-.13-.02a.87.87 0 0 1-.07.2l-.03.02c-.05 0-.17 0-.38-.03a30 30 0 0 1-1.45-.23.06.06 0 0 1-.03-.03 1 1 0 0 1 0-.22Zm-1.28 5.5h-.12a4.89 4.89 0 0 0-.18-.4.89.89 0 0 1 .05-.19 1 1 0 0 1 .45-.46 1.03 1.03 0 0 1 .05-.7.78.78 0 0 1 .38-.42.6.6 0 0 1 .5-.01c.12.05.21.12.27.23.07.1.1.26.13.49.17 0 .3.01.41.06l.15.08.06.1.07.15c.05.12.08.2.08.25 0 .1 0 .17-.04.25a.4.4 0 0 1-.11.15.32.32 0 0 1-.17.07c-.06 0-.13 0-.2-.03a.47.47 0 0 1-.23-.23c-.05-.1-.1-.27-.14-.5-.3.06-.62.17-.94.33l.11.14.13.07a.5.5 0 0 0 .24.04l.03-.08.07-.18h.03l.15.16a8.85 8.85 0 0 0-.39.94l-.02.02a.85.85 0 0 0-.2-.14v-.03c.1-.19.17-.32.2-.41a.45.45 0 0 1-.11-.03.78.78 0 0 1-.38-.4c-.17.12-.28.26-.35.4a.14.14 0 0 0 0 .07c-.01.06 0 .13.02.2Zm1.37-1.46a.37.37 0 0 0-.23-.29.59.59 0 0 0-.45 0 .53.53 0 0 0-.32.29c-.04.09-.05.2-.03.33a3.09 3.09 0 0 1 1.03-.33Zm.2.34c.02.14.05.24.1.31.04.07.1.12.16.15l.12.02c.04 0 .07-.01.1-.04a.16.16 0 0 0 .07-.07.24.24 0 0 0 0-.16c-.02-.06-.07-.1-.15-.14a.96.96 0 0 0-.4-.07ZM38.81 35l-.1-.08-.31.45-.2.26-.1.15.1.08.15-.17a.08.08 0 0 1 .05-.01c.04 0 .13.05.26.14l.63.44.08.06c.26.18.43.3.5.37.05.04.07.06.07.09a.8.8 0 0 1-.12.22l.11.08a11.16 11.16 0 0 1 .6-.86l-.1-.08c-.09.11-.15.17-.17.18a.07.07 0 0 1-.05 0c-.02 0-.1-.06-.27-.16a32.5 32.5 0 0 1-1.16-.83c-.05-.05-.08-.08-.08-.1 0-.03.03-.1.11-.23Zm-.76.92.1.1a.96.96 0 0 0-.15.18v.05a22.25 22.25 0 0 0 .6.61l.49.47c.13.13.2.2.24.2h.04c.03 0 .09-.05.2-.14l.1.1-.04.02a8.45 8.45 0 0 0-.43.46 38.63 38.63 0 0 0-2.13-.15l.45.44.05.05a17.48 17.48 0 0 0 .56.5l.05-.01.17-.15.1.1a9.45 9.45 0 0 0-.54.55l-.1-.09a1 1 0 0 0 .13-.17l.01-.04-.01-.04a1.42 1.42 0 0 0-.17-.18l-.46-.45-.46-.45-.38-.35v-.03l.22-.17a45.1 45.1 0 0 1 2.27.15l-.45-.44-.05-.04-.4-.37c-.13-.12-.2-.19-.23-.2h-.04a.9.9 0 0 0-.18.14l-.1-.1a9.35 9.35 0 0 0 .54-.55Zm-1.89 2.02-.04-.06-.37.26-.5.33c-.19.12-.34.28-.45.46-.12.18-.18.39-.18.63s.08.47.24.7c.12.18.26.3.41.37.16.08.32.1.48.08.17-.02.37-.12.6-.28l.66-.45.46-.3-.08-.12c-.12.07-.2.1-.21.1h-.03a15.98 15.98 0 0 1-1.06-1.54l.07-.18Zm-.71.6c.08-.05.16-.1.24-.13.1.12.26.35.5.7l.55.83c-.13.1-.22.17-.28.2-.25.18-.47.25-.66.21-.22-.04-.4-.18-.58-.43-.13-.19-.2-.37-.22-.54a.73.73 0 0 1 .06-.45c.06-.12.2-.25.39-.39Zm-.58 2.67.06.13a19.28 19.28 0 0 0-.94.4l-.05-.13a.64.64 0 0 0 .18-.1.07.07 0 0 0 .02-.05l-.01-.07a53.24 53.24 0 0 0-.42-1.04.9.9 0 0 0-.2-.32.37.37 0 0 0-.22-.1.76.76 0 0 0-.35.07.75.75 0 0 0-.33.23.42.42 0 0 0-.08.29c.01.1.08.3.21.61l.24.55.1.21.05.02.23-.06.05.13a7.66 7.66 0 0 0-.69.29l-.05-.13c.1-.04.15-.07.17-.1.01-.04 0-.1-.03-.2a16.15 16.15 0 0 0-.44-1.1c-.05-.14-.07-.27-.05-.39a.66.66 0 0 1 .18-.35c.1-.12.24-.21.43-.3.2-.08.38-.12.53-.12.16 0 .28.04.38.1.09.07.17.2.25.37l.27.67a32.45 32.45 0 0 0 .26.53l.05.01c.02 0 .09-.01.2-.05Zm-3.22-.3.13-.02a6.07 6.07 0 0 1-.07-.55 1.5 1.5 0 0 0-.72 0c-.3.07-.5.2-.64.38a.72.72 0 0 0-.13.6c.03.13.08.23.16.3.07.08.16.12.27.14h.37c.2-.02.33-.02.39-.01.06 0 .12.03.16.08.04.04.07.1.09.16.02.1 0 .2-.06.3-.06.08-.16.14-.3.17-.11.03-.2.03-.3.01-.09-.02-.15-.04-.17-.07-.02-.02-.05-.1-.09-.27l-.13.03.04.28v.19l.03.03.3.03c.1 0 .2-.02.32-.05.3-.07.5-.19.62-.36.1-.16.13-.35.09-.54a.6.6 0 0 0-.15-.28.47.47 0 0 0-.24-.15c-.1-.02-.27-.02-.52 0-.18.02-.3 0-.37-.04s-.12-.12-.14-.22a.38.38 0 0 1 .06-.33c.07-.1.18-.16.32-.2a.84.84 0 0 1 .26-.01c.09 0 .16.03.22.06.07.03.1.06.12.08.02.03.04.12.08.27Zm-2.21-.25v.13l-.18.03a.14.14 0 0 0-.07.03l-.02.07.02.51c0 .2.02.39.03.59v.04l.05.65h.12a4.72 4.72 0 0 0 .48-.06l.02-.03v-.28l.15-.01c0 .2.03.38.05.53l-.02.01a24.6 24.6 0 0 0-2.04.14l-.02-.02.01-.52h.13l.05.28.06.02a3.74 3.74 0 0 0 .54-.02v-.09l-.06-1.08-.05-.57c0-.07-.02-.11-.04-.13l-.26-.01v-.14a11.35 11.35 0 0 0 1.05-.07Zm-1.68.24.01-.13a10.33 10.33 0 0 1-1.01-.1l-.01.13.2.05c.02.01.04.02.04.04v.27l-.04.52-.07.6-.06.46h-.2c-.15-.02-.26-.07-.33-.15-.07-.08-.1-.18-.08-.31.01-.15.07-.26.18-.33.1-.07.2-.1.3-.09a.8.8 0 0 1 .1.02v-.01l.02-.04-.27-.54-.35-.68-.53-.04-.09-.01-.01.12c.05 0 .1.02.11.03.03.02.06.06.1.13l.23.42.29.54a.94.94 0 0 0-.41.22.53.53 0 0 0-.15.33c0 .1 0 .18.05.26.03.08.1.14.17.18.07.04.2.07.37.1l.8.06.43.05v-.13a.85.85 0 0 1-.2-.05l-.02-.04.01-.37a31.93 31.93 0 0 1 .17-1.47l.03-.03h.22Zm-2.27-.4-.03.12c-.14-.02-.23-.03-.25-.02a15.82 15.82 0 0 0-.45 1.86c.02.02.1.04.23.08l-.03.14a12.72 12.72 0 0 0-1.02-.25l.03-.13c.15.02.23.03.25.02.03 0 .04-.04.06-.09l.16-.6a44.19 44.19 0 0 0 .24-1.14l-.03-.04a1.22 1.22 0 0 0-.2-.07l.02-.14.19.05.3.09.53.11Zm-1.3-.24.03-.08a18.64 18.64 0 0 1-1.54-.57c-.07.16-.14.33-.23.5l.12.04c.07-.1.13-.2.2-.28.14.03.3.08.47.15l.3.11a10.22 10.22 0 0 1-.3.83 3.23 3.23 0 0 1-.53-.21l-.03-.04c0-.03.01-.1.06-.24l-.13-.05-.12.34-.01.02-.13.3.13.06c.05-.1.08-.17.1-.18.01-.02.03-.03.05-.03a6.4 6.4 0 0 1 .55.2l-.3.73a4.1 4.1 0 0 1-.67-.27c-.04-.02-.06-.04-.06-.06l.07-.24-.12-.04-.21.42v.02l.23.1.84.3.55.23.05-.13c-.13-.06-.2-.1-.21-.12-.01-.03 0-.07.01-.13a14.43 14.43 0 0 1 .65-1.65.96.96 0 0 1 .18-.03Zm-2.1-.2-.13-.07.13-.25c0-.03 0-.07-.03-.14a.67.67 0 0 0-.12-.2.81.81 0 0 0-.2-.16c-.14-.07-.26-.1-.38-.07a.38.38 0 0 0-.26.2c-.06.1-.07.18-.05.26.02.08.1.17.24.28.2.15.33.27.39.35.05.08.08.17.08.27s-.03.2-.08.3a.69.69 0 0 1-.44.35c-.2.05-.42 0-.7-.15l-.26-.18a1.29 1.29 0 0 1-.2-.22v-.04a1.67 1.67 0 0 0 .27-.38l.12.07a1.2 1.2 0 0 0-.11.25c0 .04.03.1.08.17.05.08.12.14.22.2.13.06.24.09.35.07.1-.02.18-.08.24-.18a.32.32 0 0 0 .04-.18.3.3 0 0 0-.06-.17 2.07 2.07 0 0 0-.3-.26c-.14-.1-.23-.2-.27-.24a.48.48 0 0 1-.11-.29c0-.1.02-.2.09-.32.11-.2.28-.31.5-.36.23-.05.47 0 .73.15a1.56 1.56 0 0 1 .53.5c-.05.05-.1.1-.13.15l-.18.29Zm-2-1.96.05-.06-.39-.33-.19-.18-.43-.4a3.6 3.6 0 0 0-.22-.17c-.16.16-.3.3-.43.4l.1.09.3-.2a5.09 5.09 0 0 1 .63.51l-.33.39-.52.57c-.21.24-.33.36-.36.38-.02.02-.04.03-.06.02a.74.74 0 0 1-.21-.14l-.1.1a13.64 13.64 0 0 1 .8.7l.09-.1a1.5 1.5 0 0 1-.16-.17v-.04c0-.03.06-.1.16-.22a33.35 33.35 0 0 1 1.07-1.19c.07 0 .13.02.2.04Zm-1.59-1.6-.1.08a1.2 1.2 0 0 0-.13-.14l-.06-.03c-.02 0-.05 0-.08.02l-.4.3a59.4 59.4 0 0 0-1 .81l.07.1a4.65 4.65 0 0 0 .33.36h.04l.23-.16.09.1-.4.35h-.02a19.27 19.27 0 0 0-1.3-1.59v-.03c.14-.08.28-.17.44-.3l.08.11-.2.2v.06a3.7 3.7 0 0 0 .35.44l.07-.05.84-.68.43-.37c.06-.05.08-.09.08-.11 0-.02-.05-.09-.13-.22l.1-.08a8.96 8.96 0 0 0 .67.82Zm-1.19-1.35.07-.04-.22-.37-.28-.54c-.1-.2-.25-.36-.41-.5a1.23 1.23 0 0 0-1.34-.07c-.19.1-.32.23-.41.38a.83.83 0 0 0-.12.47c0 .17.08.38.22.63l.38.69c.1.18.2.35.26.49l.12-.07-.08-.22.01-.03.22-.15a19.43 19.43 0 0 1 1.42-.76l.16.1Zm-.52-.77c.04.09.08.17.1.26-.12.08-.37.22-.74.42l-.88.47a6.06 6.06 0 0 1-.18-.3c-.15-.26-.2-.5-.14-.68.07-.2.23-.38.49-.53.2-.1.38-.16.56-.17.17 0 .32.03.44.1.12.08.23.23.35.43ZM16 32.5a.5.5 0 1 1-1 0 .5.5 0 0 1 1 0Z" fill="#D32727"/></svg>