<svg width="56" height="56" viewBox="0 0 56 56" xmlns="http://www.w3.org/2000/svg"><path fill="#F0F3FA" d="M0 0h56v56H0z"/><path d="M29.5 32a3.5 3.5 0 1 0 .01-7 3.5 3.5 0 0 0-.01 7Z" fill="url(#a)"/><path d="M29.53 33.4a4.9 4.9 0 0 1-4.22-7.25c.55-1 1.13-1.75 1.74-2.26 1.37-1.14 3.36-2.84 3.9-4.47a7.18 7.18 0 0 0-.02-5.17c-.4-.98-1-2.19-1.8-3.61-.5-.91-.72-.85-.64.18.2 2.45.3 4.56-1.4 6.56-.8.94-1.97 1.7-3.13 2.45l-.67.43c-1.1.72-2.02 1.49-2.75 2.3a9.51 9.51 0 0 0-2.47 5.35 8.37 8.37 0 0 0 1.2 5.45c1.6 2.68 4.19 4.22 7.77 4.61 2.76.18 5.05-.54 6.88-2.16A11.63 11.63 0 0 0 38 27.36c.03-.62-.22-.9-.75-.83-.1 0-.2.05-.28.11a.5.5 0 0 0-.16.25 14.2 14.2 0 0 1-.77 2.03c-1.26 2.73-3.41 4.48-6.51 4.48Z" fill="url(#b)"/><path d="M19.34 37.12c-.38-.28-1.03-.88-1.94-1.8a.15.15 0 0 1-.03-.07l-.09-.38a.3.3 0 0 1 .02-.18.3.3 0 0 1 .1-.13c.05-.04.11-.05.17-.05.06 0 .11.03.15.07 5.19 4.75 10.88 5.57 17.08 2.45 1.03-.51 1.13-.36.3.45a21.88 21.88 0 0 1-3.92 3c-.57.36-.64.7-.21 1.06.1.08.22.12.34.1a11.1 11.1 0 0 0 6.46-2.69c3.43-3.03 4.93-7.17 4.5-12.43 0-.1.01-.18.05-.25.05-.08.11-.14.19-.18l.17-.07a.13.13 0 0 1 .13 0l.05.05.02.07c.38 3.98-.14 7.25-1.56 9.8-3.1 5.56-7.85 8.25-14.27 8.05-6.14-.2-10.79-3.13-13.97-8.82a.64.64 0 0 1-.02-.58.64.64 0 0 1 .46-.36c.1-.02.27.07.5.26 2.05 1.7 3.7 2.8 4.96 3.3 1.75.7 1.87.48.36-.67Z" fill="url(#c)"/><defs><linearGradient id="a" x1="32.5" y1="27" x2="27.5" y2="30.5" gradientUnits="userSpaceOnUse"><stop stop-color="#DED9DD"/><stop offset="1" stop-color="#BCBAB5"/></linearGradient><linearGradient id="b" x1="22.32" y1="22.61" x2="33.89" y2="35.12" gradientUnits="userSpaceOnUse"><stop stop-color="#B8CCF7"/><stop offset="1" stop-color="#306CDC"/></linearGradient><linearGradient id="c" x1="42.77" y1="32.18" x2="20.66" y2="42.37" gradientUnits="userSpaceOnUse"><stop stop-color="#EDEBEB"/><stop offset="1" stop-color="#B4B0AF"/></linearGradient></defs></svg>