<svg width="56" height="56" fill="none" xmlns="http://www.w3.org/2000/svg"><path fill="#E8184F" d="M0 0h56v56H0z"/><g clip-path="url(#clip0)" fill="#fff"><path d="M6.334 26.976c-.007.088-.022.184-.022.273v4.243c0 .331-.042.375-.352.375h-.657c-.254 0-.296-.044-.303-.324v-.589c0-2.195 0-4.39.007-6.586 0-.095.05-.243.113-.28.127-.066.282-.073.41.067.994 1.112 1.996 2.217 2.991 3.33.388.434.776.861 1.171 1.288.043.045.092.082.184.155.007-.162.021-.265.021-.368v-3.92c0-.463 0-.463.438-.47h.62c.22 0 .269.058.276.294v7.197c0 .28-.078.354-.332.317-.063-.007-.127-.059-.17-.103-.761-.862-1.51-1.717-2.25-2.571-.635-.73-1.27-1.451-1.905-2.18-.057-.06-.12-.111-.184-.17-.014.007-.035.015-.056.022zM18.626 28.007v-3.455c0-.353.02-.383.36-.383.966 0 1.933-.014 2.907 0 1.284.015 2.293 1.12 2.237 2.453-.043.892-.508 1.518-1.228 1.953-.05.029-.099.059-.155.08-.134.06-.17.14-.092.288.282.545.564 1.09.84 1.635.155.31.324.612.48.921.126.25.056.368-.205.368-.31 0-.621-.007-.932 0-.148.008-.226-.066-.289-.191-.395-.818-.783-1.635-1.178-2.453a2.48 2.48 0 01-.092-.2c-.057-.14-.148-.198-.296-.198-.248.015-.487 0-.734 0-.275 0-.29.007-.29.287v2.527c-.007.133-.07.214-.204.214-.304 0-.607.007-.91 0-.177 0-.205-.126-.205-.28v-1.695c-.007-.618-.007-1.244-.014-1.87zm1.333-1.45c0 .294.007.588 0 .89-.007.17.05.244.22.244.521-.008 1.043 0 1.566-.008.451 0 .755-.25.945-.655a1.104 1.104 0 00-.974-1.592c-.508-.014-1.016 0-1.524-.007-.183 0-.24.081-.233.258.007.294 0 .582 0 .87zM26.338 31.234c.29.074.579.17.875.214 1.165.162 2.152-.221 2.943-1.12.677-.766.98-1.687.825-2.71-.282-1.909-2.364-2.844-3.874-1.724a2.648 2.648 0 00-.698 3.432c.585 1.032 1.77 1.503 2.822 1.157l.148-.044c.008.014.022.03.029.044-.134.088-.261.184-.402.258-1.242.648-2.71.331-3.592-.781-.812-1.024-.868-2.173-.445-3.367.6-1.672 2.124-2.71 3.832-2.585 2.209.17 3.754 2.15 3.542 4.36-.148 1.577-.952 2.704-2.35 3.308-1.27.56-2.505.376-3.655-.442zM12.769 28v-3.477c0-.324.035-.361.346-.361h4.05c.226 0 .275.052.275.287v.67c0 .28-.035.317-.296.317H14.49c-.388 0-.388 0-.388.413v1.15c0 .301.014.309.289.309h2.187c.31 0 .353.044.353.353v.604c0 .273-.042.324-.303.324h-2.244c-.282 0-.282 0-.282.295 0 .486.007.972 0 1.459 0 .184.063.25.24.25.924-.007 1.848 0 2.766 0 .31 0 .331.03.338.339 0 .22.007.442.007.67 0 .177-.077.273-.26.273-1.384 0-2.76-.008-4.143 0-.197 0-.26-.103-.26-.288 0-.75-.008-1.51-.008-2.261-.014-.45-.014-.884-.014-1.326zM44.134 31.867c-.063 0-.134-.007-.19 0-.332.06-.494-.117-.607-.42-.106-.28-.24-.552-.36-.825-.05-.125-.127-.176-.254-.169h-2.844c-.148 0-.218.066-.275.199-.134.324-.29.648-.423.972-.078.17-.19.258-.374.25-.254-.007-.501 0-.755 0-.247-.007-.318-.11-.212-.345.459-1.04.924-2.078 1.383-3.116a652.49 652.49 0 001.743-3.942c.035-.08.056-.169.113-.235.07-.074.162-.162.254-.162.078 0 .183.088.226.162.099.17.162.368.24.552l2.71 6.166c.09.199.169.405.253.611.078.192.014.295-.183.302h-.445zm-2.858-2.593h.89c.134 0 .211-.051.14-.213-.31-.707-.62-1.422-.93-2.13-.015-.036-.064-.095-.085-.088-.043.008-.085.052-.106.096-.304.707-.6 1.415-.904 2.122-.07.17-.014.22.142.22.289-.007.571-.007.853-.007zM44.572 28.007c.007-1.878 1.249-3.491 3.027-3.867 1.207-.25 2.321-.007 3.267.877.162.154.17.235.014.405-.162.177-.318.353-.48.523-.176.184-.226.184-.423.022-.656-.538-1.397-.715-2.202-.486-.988.287-1.693 1.222-1.75 2.298-.056 1.039.318 1.886 1.172 2.431.811.523 1.65.486 2.483 0 .12-.066.233-.147.34-.228.126-.089.24-.089.345.022.19.199.381.405.564.611.127.14.064.273-.056.361-.353.243-.691.523-1.073.707-.705.332-1.46.369-2.215.207-1.771-.39-3.02-1.997-3.013-3.883zM33 28.015v-3.33c0-.081.007-.162.007-.243-.007-.199.085-.28.275-.273.261.008.53.008.79 0 .184 0 .262.089.262.266v5.841c0 .31 0 .317.303.317h2.434c.24 0 .296.059.296.31v.684c-.007.214-.063.28-.268.28h-3.845c-.197 0-.254-.073-.254-.316v-2.91-.626z"/></g><defs><clipPath id="clip0"><path fill="#fff" transform="translate(5 24)" d="M0 0h46v8H0z"/></clipPath></defs></svg>