<svg width="56" height="56" viewBox="0 0 56 56" xmlns="http://www.w3.org/2000/svg"><path fill="#F0F3FA" d="M0 0h56v56H0z"/><path fill-rule="evenodd" d="m41.53 25.63 1.19-.63c.09-.02.36.05.68.5.33.45.77 1.34.96 1.73l.25.7L46.15 25h.88L45 28.46v1.69c0 .3.15.53.42.53h.12V31h-2.25v-.32h.22c.27 0 .5-.24.5-.53v-1.5c-.27-.5-.85-1.61-1.1-2.02-.33-.5-.84-.87-1.38-1ZM5.63 27.9h.4l2.16-2.44V25h1.35v.31h-.28a.58.58 0 0 0-.43.2l-2.07 2.23 2.27 2.73c.12.14.28.21.45.21h.25V31H8.19l-2.16-2.7h-.4v1.9c0 .26.2.47.43.47h.21V31H4.1v-.33h.1c.25 0 .44-.2.44-.47v-4.4c0-.25-.2-.46-.43-.46H4V25h2.27v.34h-.2c-.25 0-.44.2-.44.47v2.1ZM9.8 31h1.68v-.32h-.64c-.11 0-.2-.13-.15-.24l.4-1.08h2.15l.44 1.07c.05.12-.03.25-.15.25h-.48V31h2.24v-.32h-.2c-.14 0-.28-.1-.34-.25L12.57 25h-.34l-1.97 5.42a.38.38 0 0 1-.36.26h-.1V31Zm3.3-2-.99-2.4-.89 2.4h1.88Zm20.24 2h-1.68v-.32h.1c.16 0 .3-.1.36-.26L34.1 25h.35l2.17 5.43c.06.15.2.25.35.25h.2V31H34.9v-.32h.48c.12 0 .2-.13.15-.25l-.43-1.07h-2.16l-.4 1.08c-.04.11.04.24.15.24h.64V31Zm.64-4.4.98 2.4h-1.87l.89-2.4ZM46.5 31h1.68v-.32h-.64c-.11 0-.2-.13-.15-.24l.4-1.08h2.16l.44 1.07c.05.12-.03.25-.15.25h-.49V31H52v-.32h-.2c-.14 0-.28-.1-.34-.25L49.28 25h-.35l-1.97 5.42a.39.39 0 0 1-.36.26h-.1V31Zm3.3-2-.98-2.4-.9 2.4h1.88Zm-34.5-3.63V25h2.37v.38h-.11c-.3 0-.56.26-.56.58v2.77c0 .86.66 1.55 1.46 1.55.8 0 1.54-.7 1.54-1.55v-2.77c0-.32-.32-.59-.63-.59h-.21V25h1.83v.38h-.1c-.3 0-.54.26-.54.58v3c0 1.13-.86 2.04-1.92 2.04h-.6c-1.06 0-1.83-.91-1.83-2.04v-3c0-.32-.33-.59-.63-.59h-.07Zm5.82 3.69L21 30.67h.28c.05-.06.18-.18.28-.1l.03.04c.13.12.42.39 1.14.39 2.11 0 2.27-1.55 2.27-1.98 0-.44-.63-1.46-1.66-1.48-1.03-.03-1.36-.79-1.36-1.06 0-.28.16-1.04 1.13-1.04.78 0 1.08.48 1.13.71v.36h.4v-1c-.18-.17-.72-.51-1.46-.51-1.18 0-2 .61-2 1.68 0 1.06.77 1.6 1.7 1.74.92.14 1.16.77 1.16 1.03 0 .27-.07 1.18-1.31 1.18-.99 0-1.25-.6-1.25-.89v-.68h-.36ZM25.33 25v.34h.2c.25 0 .47.2.47.47v4.4c0 .25-.22.46-.46.46h-.1V31h2.16v-.33h-.2c-.24 0-.4-.2-.4-.47V28h2.5v2.2c0 .26-.18.47-.43.47h-.1V31h2.17v-.33h-.2c-.25 0-.44-.2-.44-.47v-4.4c0-.25.2-.46.43-.46h.21V25h-2.27v.34h.2c.25 0 .43.2.43.47v1.89H27v-1.9c0-.25.16-.46.4-.46h.2V25h-2.27Zm12.05 0v.34h.2c.24 0 .42.2.42.47v4.4c0 .25-.18.46-.42.46h-.1V31h3.7l.34-1.5h-.34l-.18.52c-.03.19-.18.62-.74.62h-.98a.47.47 0 0 1-.28-.44v-4.4c0-.25.2-.46.44-.46h.2V25h-2.26Z" fill="#161616"/><path d="M29.52 22C18.57 22 8.61 23.33 5 24c4.7-.51 16.99-1.58 24.52-1.58 6.02 0 16.83 1.01 21.48 1.52C48.4 23.3 40.47 22 29.52 22Z" fill="#DA662A"/></svg>