<svg width="56" height="56" viewBox="0 0 56 56" xmlns="http://www.w3.org/2000/svg"><path fill="#F0F3FA" d="M0 0h56v56H0z"/><path d="M14 15v14.28L28.5 15H14Z" fill="#5B5B5B"/><path d="M15 14v14.22L30 14H15Z" fill="url(#a)"/><path d="M14 42v-9.33l4.27-4.45L27.81 42H14Z" fill="#5B5B5B"/><path d="M15.02 41.09v-9.5l4.28-4.53 9.54 14.03H15.02Z" fill="url(#b)"/><path d="M33.1 41.97 21.26 25.86l6.3-6.28L41 33.54v8.43h-7.9Z" fill="#5B5B5B"/><path d="M33.84 41 22 25.1 33.07 14H42v27h-8.16Z" fill="url(#c)"/><defs><linearGradient id="a" x1="29.81" y1="14" x2="16.79" y2="20.76" gradientUnits="userSpaceOnUse"><stop offset=".36" stop-color="#E31E24"/><stop offset="1" stop-color="#9E2827"/></linearGradient><linearGradient id="b" x1="23.6" y1="30.07" x2="21.92" y2="41.08" gradientUnits="userSpaceOnUse"><stop stop-color="#CACECF"/><stop offset="1" stop-color="#90A4A7"/></linearGradient><linearGradient id="c" x1="23.95" y1="24.27" x2="41.32" y2="39.13" gradientUnits="userSpaceOnUse"><stop stop-color="#80989D"/><stop offset=".2" stop-color="#A2B1B6"/><stop offset=".58" stop-color="#D0D4D7"/><stop offset="1" stop-color="#C2C4C5"/></linearGradient></defs></svg>