<svg width="56" height="56" viewBox="0 0 56 56" xmlns="http://www.w3.org/2000/svg"><path fill="#F0F3FA" d="M0 0h56v56H0z"/><path d="M15.04 26c-.2-1.1-.98-1.78-2.04-2.04 1.07-.16 1.8-.9 2.04-1.96A2.38 2.38 0 0 0 17 23.98 2.49 2.49 0 0 0 15.04 26Z" fill="#E4222B"/><path d="M11.96 31.99a2.38 2.38 0 0 1-1.73-.56 24.2 24.2 0 0 0-1.59-1.17l-2.47-1.63c-.33-.21-.12-.42.1-.6a197.1 197.1 0 0 0 4.43-3.76c.31-.27.7-.33 1.12-.2.36.1.7.27 1.08.31a289.7 289.7 0 0 1-4.35 3.61c-.14.1-.33.3-.25.48.06.1.14.19.25.25 1.33.83 2.68 1.7 4.04 2.65.14.1.27.24.41.36-.33.14-.67.22-1.04.26ZM25 29.2V24.64c0-.28.1-.65.53-.64.4 0 .74.04 1.01.09.37.07.46.42.46.74v6.07c0 .24 0 .85-.22.9-.2.06-.52.14-.75.18a.98.98 0 0 1-.97-.33c-1.36-1.53-2.8-3-4.21-4.48-.15-.15-.4-.39-.6-.71-.02-.02-.04-.03-.06-.01-.05.04-.19.1-.19.18v4.84c0 .33-.07.5-.4.5-.26.02-.53.02-.8 0-.62 0-.79-.34-.79-.9v-4.25c0-.65-.02-1.3 0-1.96.01-.27.16-.45.42-.48.57-.05 1.08-.74 1.64-.13a364 364 0 0 0 4.24 4.57c.15.16.48.27.69.38ZM47.54 27c-.04 0-.67 1.24-.73 1.4a19.24 19.24 0 0 1-1.6 3.14 1 1 0 0 1-.87.46 8.42 8.42 0 0 1-1.34-.24c.1-.2.17-.43.27-.62.85-1.58 1.57-3.1 2.17-4.3l.73-1.49c.11-.22.31-.45.6-.7.27-.23.66-.42 1.16-.59.22-.07.49-.13.62.13l3.39 7.14c.03.06.11.31.01.35-.25.1-.56.12-.84.14-.15.02-.27.07-.4.12-.42.18-.74-.1-.9-.46-.37-.87-.8-1.7-1.23-2.56a12.6 12.6 0 0 1-.57-1.26c-.11-.3-.2-.52-.47-.66ZM32.33 31.31c.4.03.76-.05 1.08-.24.3-.17.59-.57.59-.86v-1.15c0-.06-.07-.3-.27-.3H32c.27-.5.5-.76 1.31-.76h2.27c.32.07.43.25.42.55V31s-.01.37-.05.46a.51.51 0 0 1-.4.3c-.88.15-1.83.23-2.69.24-.89 0-1.8-.13-2.64-.4-1.5-.5-2.2-1.55-2.2-3.06L28 27.38c0-.4.07-.8.2-1.2.56-1.6 2.24-2.03 3.83-2.14a9.3 9.3 0 0 1 3.97.45c-.31.46-.68.9-1.34.6a3.5 3.5 0 0 0-1.66-.33c-.56.03-1.05.11-1.46.24-.9.28-1.53 1-1.54 1.86l-.01 2.07c0 .28.03.53.1.73.27.87 1.28 1.58 2.24 1.65Z" fill="#FC9810"/><path d="M4.58 31.98c-.23-.01-.58-.08-.58-.4v-7.34c0-.15.2-.2.31-.21.43-.04.81-.04 1.16 0 .5.04.53.55.53.97v6.44c0 .36-.15.54-.46.55a8.8 8.8 0 0 1-.96 0ZM40 25.87v1.01c0 1.12.3 1.29 1.13 1.2.33-.03.2-.08.54-.08h1.02a.3.3 0 0 1 .22.1c.06.06.1.19.1.31-.01.15-.06.3-.15.35a19.35 19.35 0 0 1-2.1.02c-.44-.02-.78.04-.76.58v2.1c0 .26-.02.47-.3.5-.37.03-.73.05-1.06.04-.47-.02-.63-.28-.64-.73v-1.5c0-.45-.1-.8-.59-.9-.3-.06-.61-.1-.94-.12.23-.34.53-.75.94-.75h.26c.24 0 .33-.23.33-.45V24.4c0-.25.2-.4.44-.39 1.8.02 2.93.02 4.33 0 .33 0 .59.07.81.33.14.16.27.46.42.67h-3.36c-.64-.02-.6.33-.64.87ZM14.56 31.99c-.25-.02-.45-.13-.5-.4a2.94 2.94 0 0 1-.06-.58V27.4c0-.2.13-.34.33-.36.15-.02.3-.02.46-.03.27 0 .57-.02.84.05.33.09.36.44.36.75L16 31.6c0 .39-.39.35-.66.37a4.9 4.9 0 0 1-.78 0ZM47.33 30.05c.42-.13.79.02 1.1.27.23.17.4.33.53.47.04.05.05.1.03.18l-.03.02-2.7.01c-.1 0-.23.01-.26-.12 0-.05.01-.09.05-.12.4-.27.82-.58 1.28-.71Z" fill="#FC9810"/></svg>