<svg width="56" height="56" viewBox="0 0 56 56" xmlns="http://www.w3.org/2000/svg"><path fill="url(#alna0mu51)" d="M0 0h56v56H0z"/><path fill-rule="evenodd" d="M7 36.67c0-.16.6-2.4.89-3.5.7-.1 2.22-.86 2.7-3.17s.77-4.28.85-4.97c-.14.23-.85.8-2.57 1.3l.47-2.76c-.02.1 1.33.79 2.77-1.13h.88l-.88 5.58c.6.04 2.27-.76 4.1-4.29 1.82-3.53 4.39-4.34 5.44-4.3.68.01 2.02.4 2.02 1.85 0 1.8-1.68 1.47-1.71.96-.03-.52-.2-1.42-1.9-.4-.97.6-2.44 2.42-3.67 3.93a14.5 14.5 0 0 1-2.03 2.25c.3.56.93 1.84 1.13 2.53.26.85 1 1.2 1.4 1.2.42 0 1.18-.2 1.18-1.57v-2.16l1.77-.57c-.3 1.25-.79 3.74-.44 3.74.44 0 1.26-1.63 1.2-4.18.3.02 1 0 1.51-.29v.38c.25-.15.83-.43 1.2-.38.45.07.62.23.15 1.62-.47 1.38-.37 2.28 1.08.33-.07-2.03.33-6.67 2-7.24 1.16.42.1 4.46-.98 6.48 0 .3.15.91.73.91s.88-.44.96-.67c.06-.97.48-2.95 1.66-3.11.15 0 .4.07.15.42-.3.43-1.28 2.8-.07 2.8.16 0 .57-.2.95-1.09-.26-.16-.78-.64-.78-1.2 0-.7.46-.93.78-.93.33 0 .74.2.88.83.1 0 1.72-.76 2.2-2.82.17.08.62.21 1.15.08l-.72 1.7c.22.01.73-.04 1.1-.38.11-1.97.65-6.02 1.97-6.42 1.31-.4.36 2.9-.28 4.6a3 3 0 0 1 1.16-.4c.45 0 .8.41.8 1.1 0 .68-.97 1.85-1.96 2.25.14.24.6.71 1.34.71.73 0 .94-.36.95-.55.04-1.67.72-4.78 3.1-3.85v-.67l1.61-.27c-.42 1.13-1.14 3.46-.67 3.74.58.35 1.37-3.93 1.4-4.46l1.32-.24v.46c.4-.23 1.28-.65 1.57-.46.37.24.55.57.42.83-.02.05-.1.16-.21.3-.46.62-1.42 1.92-.92 2.45.11.1.46.18.94-.4.6-.7 1.91-.91 1.91.3 0 1.22-1.77 2.7-2.41 3.08-.51.31-23.65 10.43-35.15 15.45l1.87-4.86 31.78-10.85c.7-.31 2.22-1.1 2.7-1.75.57-.75.4-.83.3-.9h-.03c-.11-.07-.4.16-.94.85-.53.68-1 .83-1.51.83-.52 0-1.03-.3-1.03-1.1 0-.66.47-1.8.71-2.28.1-.19.2-.52-.28-.34-.48.18-.94 1.9-1.1 2.75-.28.68-1 2.04-1.76 2.04-.12.02-.44-.02-.74-.34-.22.3-.87.9-1.67.9-.8 0-1.02-.31-1.03-.47-.2.35-.87 1.03-1.99 1.03-.97 0-1.33-.28-1.43-.47l.23.75-1.57.82.27-3.14-.47.1c.12 1.14-.06 3.4-1.76 3.4-.4.03-1.17-.1-1.17-.82 0-.9.2-1.2.5-1.2s.37.23.37.45c0 .17-.1.33-.16.4.28 0 .84-.33.84-1.75-.28 0-1 .11-1.55.56-.06 1.13-.6 3.37-2.26 3.37-.07 0-.93-.05-1.15-.71-.24.51-.9 1.53-1.75 1.53-.83 0-1-.64-.98-.96-.35.66-1.3 2-2.33 2-1.28 0-.42-3 .24-3.87-.18-.1-.57-.15-.77.47l-.11.38c-.34 1.21-1.15 4.12-2.87 4.12-.17-.01-.57-.09-.77-.31-.24.39-.95 1.17-1.84 1.17-1.11 0-1.92-2.1-2.53-4.98-.26.15-.96.45-1.71.4 0 2.33-1.02 7.08-4.99 7.45Zm11.4-11.04V27c.16-.02.58-.1.94-.33.36-.22.52-1.01.55-1.38l-1.5.34Zm17.26-3.07c.05-.63.22-1.98.48-2.27.26-.3-.21 1.4-.48 2.27Zm-10.25 3.9c-.01-.66.08-2.13.56-2.7.47-.58-.17 1.56-.56 2.7Zm4.77-.24c0-.14-.08-.43-.38-.48-.3-.04.13.3.38.48Zm5.1-1.45c.01-.08.63-.88 1.13-.57.4.24-.03.59-.3.73.05-.23-.05-.6-.84-.16Zm4.67-.15c-.7-.88.28-1.43.86-1.59-.1.57.25.46.43.34-.14.78-.6 2.13-1.3 1.25Z" fill="#fff"/><defs><linearGradient id="alna0mu51" x1="10.42" y1="9.71" x2="68.15" y2="76.02" gradientUnits="userSpaceOnUse"><stop stop-color="#1A1E21"/><stop offset="1" stop-color="#06060A"/></linearGradient></defs></svg>