<svg width="56" height="56" viewBox="0 0 56 56" xmlns="http://www.w3.org/2000/svg"><path fill="#F0F3FA" d="M0 0h56v56H0z"/><path d="m50 26-1.45 6H46l1.45-6H50ZM44.41 27.68l-1 4.32H41l1.37-6h2.24l-.2 1.68Zm2.59-1.6-.31 1.7a13.17 13.17 0 0 0-.77-.06c-.27 0-.51.02-.73.07-.22.05-.4.12-.57.22-.15.1-.28.23-.38.37-.1.15-.18.32-.23.52l-.4-.22c.05-.27.13-.56.23-.87.11-.31.27-.6.47-.88a2.27 2.27 0 0 1 1.94-.93 3.15 3.15 0 0 1 .75.08ZM38.15 30.43l.5-2.4c.02-.13.01-.25-.01-.37a.44.44 0 0 0-.18-.29c-.1-.08-.24-.12-.44-.12-.19 0-.34.02-.47.07a.74.74 0 0 0-.3.23c-.08.1-.13.45-.16.45h-2.33c.02-.33.13-.73.35-.97.22-.25.5-.44.83-.6a6.23 6.23 0 0 1 2.3-.43c.54 0 1.03.1 1.46.26.44.16.77.39 1 .7.25.3.34.67.28 1.1l-.5 2.37-.11.68c-.03.24.01.46.14.67V32h-2.27a2.3 2.3 0 0 1-.16-.83c0-.25.03-.5.07-.74Zm.76-2.08-.21.97-.91-.01a2.22 2.22 0 0 0-.95.24 1.1 1.1 0 0 0-.32.28.88.88 0 0 0-.15.38.4.4 0 0 0 .02.26c.05.07.11.13.2.18.08.05.2.07.33.07.2 0 .4-.02.58-.08.2-.06.35-.15.49-.26a.85.85 0 0 0 .29-.38l.4.75a2.96 2.96 0 0 1-.94.9c-.2.12-.41.2-.65.26a3.14 3.14 0 0 1-1.96-.14 2.1 2.1 0 0 1-.84-.6c-.2-.25-.3-.54-.29-.87.02-.39.14-.7.38-.96.23-.25.53-.45.9-.59a5.3 5.3 0 0 1 1.2-.31c.44-.06.87-.1 1.3-.1l1.13.01ZM30.48 23l-2 9H26l2-9h2.48Zm-1.54 5.61-.54.02a3.84 3.84 0 0 1 .92-2.1 2.97 2.97 0 0 1 2.4-1c.47.01.86.09 1.17.23.3.14.55.33.72.57.17.23.29.5.34.8.06.3.06.6.02.93L33.13 32h-2.49l.86-3.96c.02-.18.02-.35-.02-.5a.56.56 0 0 0-.25-.34 1.08 1.08 0 0 0-.6-.15c-.3 0-.55.04-.75.13-.2.08-.36.2-.48.36a1.7 1.7 0 0 0-.3.5 4.5 4.5 0 0 0-.16.57ZM26.5 25.63 26.2 27h-4.7l.3-1.37h4.7ZM23.13 24h2.44l-1.28 5.84a.96.96 0 0 0 0 .34.3.3 0 0 0 .16.2c.09.04.22.06.4.07h.32l.3-.03-.16 1.43a4.52 4.52 0 0 1-1.32.15c-.5 0-.93-.09-1.27-.24a1.53 1.53 0 0 1-.73-.66c-.15-.29-.2-.63-.16-1.03l1.3-6.07ZM13.02 29.1l.02-.12c.07-.42.22-.8.45-1.17.23-.37.53-.68.91-.96.39-.27.84-.49 1.36-.64.53-.15 1.11-.22 1.76-.2.62 0 1.16.08 1.61.24.45.15.83.37 1.12.64a2.35 2.35 0 0 1 .73 2.05l-.02.11c-.07.42-.22.8-.45 1.16-.24.36-.55.68-.93.95-.39.27-.84.48-1.36.63-.52.15-1.1.22-1.74.2-.61 0-1.15-.08-1.6-.23a3.21 3.21 0 0 1-1.13-.63 2.3 2.3 0 0 1-.62-.92 2.42 2.42 0 0 1-.1-1.12Zm2.6-.12-.02.11c-.02.15-.03.3-.03.48 0 .17.03.34.08.5a.8.8 0 0 0 .32.39c.15.1.38.15.67.16.31 0 .57-.04.78-.13.22-.1.39-.23.52-.39s.23-.33.3-.52c.07-.18.12-.36.15-.53l.01-.11c.02-.15.03-.3.03-.48s-.03-.35-.08-.5a.79.79 0 0 0-.32-.4c-.16-.11-.39-.17-.68-.17-.31-.01-.57.03-.79.13-.2.1-.38.24-.5.4-.14.16-.24.34-.3.52-.07.19-.12.37-.15.54ZM8.52 23 6.6 32H4l1.91-9h2.6ZM15 23l-5.18 4.61-2.93 2.24-.04-2.15 1.93-1.93L11.64 23H15Zm-5 9-1.95-4.13 2.18-1.19L12.96 32H10Z" fill="#232677"/><path d="M46.53 19h3.2l-.46 2.77H52L51.47 25h-3.2l.46-2.77H46l.53-3.23Zm2.28 2.77.38-2.3h-2.27l-.38 2.3h2.27Zm.38.46-.38 2.3h2.27l.38-2.3H49.2Z" fill="#BFBFBF"/></svg>