<svg xmlns="http://www.w3.org/2000/svg" width="56" height="56"><path fill="#00A4EC" d="M0 0h56v56H0z"/><path fill-rule="evenodd" d="M25 46v-2h2v-8.15c-.23 2.13-5.15 4.47-8.97 1.14-1.3-1.14-2.6-4.08-.4-7.5C15.96 29.4 12.2 28 12 23.67a6.02 6.02 0 015.37-5.73 5.74 5.74 0 012.73-7.44 6.07 6.07 0 017.71 2.7 6.02 6.02 0 017.78-2.7c1.67.68 4.14 3.43 2.51 7.44 1.75-.03 5.9 1.48 5.9 5.73 0 4.62-3.72 5.8-5.9 5.8.9 1.5 1.92 5.35-.53 7.63-2.56 2.37-7.38 1.55-8.57-1.26V44h2v2h-6zm2-27v15.07c-.46-.85-1.9-2.24-3.56-1.1 1 0 2.3.85 2.12 2-.27 1.65-3.4 3.19-6.1 1.07-1.55-1.21-1.97-5.12.56-6.32.48-.23 1.71-.15 2.26 2 .48-.93.74-2.92-2.02-3.52.42-.87.73-2.8-1.43-3.61.23.29.67 1.07.62 1.88-.05 1.01-1.06 1.52-2.17 1.52-.98 0-3.62-1.52-3.62-4.09a4.16 4.16 0 013.62-4.23c1.01 0 2.17.29 2.17 1.46-.02.36-.2 1.22-.62 1.79.83-.21 2.28-1.19 1.43-3.43a2.78 2.78 0 002.02-2.75c-.32.5-1.2 1.49-2.2 1.47-1-.03-1.6-1.68-1.6-2.66a4.15 4.15 0 012.67-3.94c1.31-.56 4.62-.38 5.35 2.8.12.53-.1 1.48-1.22 1.86-.1.08-.56.19-1.48 0 .72.71 2.53 1.61 3.98-.51.65.93 2.4 2.34 4.16.5-.66.15-2.07.1-2.67-.77-1.01-1.48 1.8-4.97 5.1-3.88.9.3 2.7 1.55 2.87 4.15 0 .8-.33 2.14-1.88 2.45-.36.07-1.1-.27-1.9-1.47-.2.67-.04 2.19 2.17 2.93-.2.97-.18 2.99 1.6 3.25a3.24 3.24 0 01-.6-1.8c.03-.9.69-1.45 1.92-1.45s3.9 1.35 3.9 3.99c0 2.4-2 4.2-3.9 4.33-.55.04-1.7-.22-1.93-1.52-.04-.28.02-1.04.62-1.88-.74.18-2.1 1.1-1.61 3.4-1.17.3-3.24 1.48-2.17 3.73.12-.72.67-2.15 1.9-2.15 1.55 0 2.21 2.1 2.3 3.4a3.8 3.8 0 01-3.47 3.9c-2.59.23-4.65-1.9-5.19-5.95 1.02-.31 3.25-2.25 5.2-7.47l-.45-.26c-.66 1.07-2.38 3.54-3.98 4.8-.36.27-.77.5-.77-.74V19h-2z" fill="#fff"/></svg>