<svg xmlns="http://www.w3.org/2000/svg" width="56" height="56"><path fill="#F0F3FA" d="M0 0h56v56H0z"/><path d="M27.85 12c3.02 0 5.83.82 8.25 2.24L12 24.95A16.11 16.11 0 0127.85 12z" fill="url(#ai4jlqcob)"/><path d="M18.27 28.2l22.39-9.95a15.84 15.84 0 01-.24 19.8L18.27 28.2z" fill="url(#bi4jlqcob)"/><path d="M12.1 31.5A16.12 16.12 0 0027.84 44c2.85 0 5.52-.73 7.84-2.01L12.1 31.5z" fill="url(#ci4jlqcob)"/><circle opacity=".4" cx="36" cy="28" r="6.75" fill="#8CB7E1"/><circle opacity=".5" cx="36" cy="28" r="4.99" fill="#B5CFEB"/><circle opacity=".6" cx="36" cy="28" r="3" fill="#DEEBFA"/><defs><linearGradient id="ai4jlqcob" x1="43.38" y1="28.62" x2="12" y2="28.62" gradientUnits="userSpaceOnUse"><stop offset=".24" stop-color="#649FD0"/><stop offset=".59" stop-color="#0063B5"/><stop offset="1" stop-color="#103C72"/></linearGradient><linearGradient id="bi4jlqcob" x1="43.38" y1="28.62" x2="12" y2="28.62" gradientUnits="userSpaceOnUse"><stop stop-color="#559FD5"/><stop offset=".24" stop-color="#649FD0"/><stop offset=".59" stop-color="#0063B5"/><stop offset="1" stop-color="#103C72"/></linearGradient><linearGradient id="ci4jlqcob" x1="43.38" y1="28.62" x2="12" y2="28.62" gradientUnits="userSpaceOnUse"><stop offset=".24" stop-color="#649FD0"/><stop offset=".59" stop-color="#0063B5"/><stop offset="1" stop-color="#103C72"/></linearGradient></defs></svg>