<svg width="56" height="56" xmlns="http://www.w3.org/2000/svg"><path fill="#F0F3FA" d="M0 0h56v56H0z"/><path d="M25 35a5 5 0 100 10 5 5 0 000-10zm0 5.736a.735.735 0 110-1.471.735.735 0 110 1.47z" fill="#422160"/><path d="M21 24a7.001 7.001 0 000 14 7 7 0 000-14zm0 9.989a2.988 2.988 0 110-5.976 2.988 2.988 0 010 5.976z" fill="#02B2A8"/><path d="M20.43 37.977c2.174.2 4.628-.716 6.13-2.717-2.665-.853-5.127.542-6.13 2.717z" fill="#185F55"/><path d="M32.501 11a9.5 9.5 0 100 19 9.5 9.5 0 000-19zm0 15.866a6.366 6.366 0 11-.004-12.73 6.366 6.366 0 01.004 12.73z" fill="#6BBE45"/><path d="M23.949 24.655a9.653 9.653 0 003.643 3.978c-.631-1.856-2.1-3.289-3.643-3.978z" fill="#087B87"/></svg>