<svg width="56" height="56" viewBox="0 0 56 56" xmlns="http://www.w3.org/2000/svg"><path fill="#2B4689" d="M0 0h56v56H0z"/><path d="m16.66 34 1.92-12h2.96l-1.81 12h-3.07Z" fill="#FFC60B"/><path d="m6 34 1.82-12h2.89l-1.1 9h3.63l-.51 3H6Zm20.66-12-1.72 12h3l.94-7.7L32 34h3.3l1.74-12H34.1l-1.07 7.74L30.06 22h-3.4Zm23.34.92-.64 3.22C49.04 25.7 48 25 46.47 25 44.55 25 43 26.2 43 28.57s2.68 3.03 5.66 1.84l-.5 3.22c-.34.12-1.4.37-3.01.37-2 0-5.15-1.5-5.15-5.53 0-4.04 2.95-6.47 6.47-6.47 1.77 0 3.09.61 3.53.92Z" fill="#FEFEFE"/></svg>