<svg width="56" height="56" viewBox="0 0 56 56" xmlns="http://www.w3.org/2000/svg"><path fill="#F0F3FA" d="M0 0h56v56H0z"/><path d="M52 25H4v6h48v-6Zm-.43.6h-40.9v4.8h40.9v-4.8Z" fill="#282627"/><path d="M10.67 25.57h40.9v4.86h-40.9v-4.86Z" fill="#FF0F15"/><path d="M10.05 28.01A2.67 2.67 0 0 1 7.4 30.7 2.67 2.67 0 0 1 4.74 28a2.67 2.67 0 0 1 2.66-2.68c1.46 0 2.65 1.2 2.65 2.68Z" fill="#979A9C"/><path d="M9.77 28.01c0 1.32-1.06 2.4-2.37 2.4A2.38 2.38 0 0 1 5.03 28c0-1.32 1.06-2.39 2.37-2.39 1.3 0 2.37 1.07 2.37 2.4Z" fill="#fff"/><path fill-rule="evenodd" d="M11 26v3.99h2.49V29H12v-3h-1Zm3 0v3.99h2.59V29H15v-3h-1Zm32 3.99V26h1v3h1v.99h-2ZM39 27v-1h3v1h-1v2.99h-1V27h-1Zm-20.4 3c.92 0 1.66-.96 1.66-2.04S19.52 26 18.61 26c-.91 0-1.65.88-1.65 1.96S17.7 30 18.6 30Zm0-1c.43 0 .77-.37.77-1s-.34-1-.76-1-.76.37-.76 1 .34 1 .76 1Zm1.74-3 1.3 2.24V30h.9v-1.76L23.83 26h-.98l-.72 1.31L21.4 26h-1.05ZM24 30v-4h1.53c.86 0 1.56.8 1.56 1.77v.49c0 .96-.7 1.74-1.56 1.74H24Zm1-1v-2h.56c.34 0 .62.35.62.88v.27c0 .53-.28.85-.62.85H25Zm6 1v-4h1.25l.75 1.25.7-1.25H35v4h-1v-2.58l-.63.99h-.78l-.59-.99V30h-1Zm7.68-1v1H36v-4h2.68v1H37v.42h1.52v.87H37V29h1.68Zm4.17 1h-.96l1.64-4h.45l1.6 4h-.96l-.2-.5h-1.37l-.2.5Zm.9-2.16.33.8h-.66l.34-.8Z" fill="#282627"/><path d="M49.98 27.35h.96c.02-.45-.26-1.35-1.48-1.35s-1.4.84-1.35 1.25c.03.34.3.7 1.05 1 .26.1.78.1.78.45 0 .17-.08.28-.39.28-.24 0-.51 0-.51-.44H48c.02.48.34 1.46 1.46 1.46 1.4 0 1.54-1.06 1.54-1.3 0-.25-.11-.84-1.02-1.08-.91-.24-.94-.26-.94-.45 0-.18.26-.23.4-.23s.54.04.54.41Z" fill="#282627"/><path fill-rule="evenodd" d="M7.4 30.29A2.26 2.26 0 0 0 9.65 28c0-1.25-1-2.27-2.25-2.27a2.26 2.26 0 0 0-2.25 2.27c0 1.26 1 2.28 2.25 2.28Zm0 .12c1.3 0 2.37-1.08 2.37-2.4 0-1.32-1.06-2.39-2.37-2.39a2.38 2.38 0 0 0-2.37 2.4c0 1.31 1.06 2.39 2.37 2.39Z" fill="#282627"/><path fill-rule="evenodd" d="M7.4 29.5c.81 0 1.48-.66 1.48-1.49 0-.82-.67-1.49-1.48-1.49-.82 0-1.48.67-1.48 1.5 0 .82.66 1.49 1.48 1.49Zm0 .12a1.6 1.6 0 0 0 0-3.22c-.88 0-1.6.72-1.6 1.61 0 .9.72 1.61 1.6 1.61Z" fill="#282627"/><path fill-rule="evenodd" d="M7.4 28.88c.47 0 .86-.39.86-.87a.86.86 0 0 0-.86-.86.86.86 0 0 0-.86.86c0 .48.38.87.86.87Zm0 .12c.54 0 .97-.44.97-.99a.98.98 0 0 0-.97-.98.98.98 0 0 0-.98.98c0 .55.44.99.98.99Z" fill="#282627"/><path d="M7.58 25.03h-.6l.19.2v5.39l-.3.35H7.9l-.32-.35v-5.59Z" fill="#fff"/><path d="m8.17 26.66.45-.83-.05-.03-.46.83.06.03Zm.56.6.8-.5-.03-.05-.8.5.03.05Zm.2.8h.94v-.07h-.95v.06Zm-.23.72.8.53.03-.05-.8-.53-.03.05Zm-.58.6.5.83.05-.03-.5-.83-.05.03Zm-.5-1.73.27-.47-.05-.03-.28.47.05.03Zm-.02.28.6-.39-.04-.04-.59.38.03.05Zm-.04.1h.79v-.06h-.79v.05Zm.01.13.62.36.03-.05-.62-.37-.03.06Zm0 .28.27.4.05-.04-.28-.4-.05.04ZM6.6 26.66l-.46-.83.05-.03.45.83-.05.03Zm-.57.6-.8-.5.03-.05.8.5-.03.05Zm-.2.8H4.9v-.07h.94v.06Zm.23.72-.8.53-.03-.05.8-.53.03.05Zm.58.6-.5.83-.05-.03.5-.83.05.03Zm.5-1.73-.27-.47.05-.03.28.47-.05.03Zm.01.28-.58-.39.03-.04.59.38-.04.05Zm.05.1h-.8v-.06h.8v.05Zm-.01.13-.62.36-.03-.05.62-.37.03.06Zm0 .28-.27.4-.05-.04.28-.4.04.04ZM29.43 27.35h.97c0-.45-.27-1.35-1.5-1.35-1.21 0-1.4.84-1.33 1.25.02.34.3.7 1.04 1 .26.1.78.1.78.45 0 .17-.08.28-.39.28-.23 0-.51 0-.51-.44h-1.04c.02.48.34 1.46 1.46 1.46 1.4 0 1.54-1.06 1.54-1.3 0-.25-.11-.84-1.02-1.08-.9-.24-.94-.26-.94-.45 0-.18.26-.23.4-.23s.54.04.54.41Z" fill="#282627"/></svg>