<svg xmlns="http://www.w3.org/2000/svg" width="56" height="56"><path fill="#F0F3FA" d="M0 0h56v56H0z"/><path d="M37.72 17.05c-14.75-1.38-23.07 8.4-25.4 13.47-1-.8-1.37-2.53-1.31-3.16 0-3.67 3.57-8.03 6.14-10.76 2.41-2.57 3.39-6.2 3.57-6.48.15-.23.48-.1.63 0 .4.4 1.22 1.5 1.22 2.8 0 1.3-1.36 3.42-2.03 4.33 9.1-4.19 15.35-3 17.35-1.87.43.22 1.26.77 1.16 1.22-.1.45-.93.49-1.33.45z" fill="url(#axuhm1tke)"/><path d="M17.22 35.56c-1.44 1.01-1.85 2.09-1.85 2.62.46 4.86 10.6 7.88 14.86 7.81 10.41-.17 13.93-8.02 14.38-11.92-.78 1.53-2.71 3.5-3.58 4.3 2.87-3 3.45-4.85 3.81-5.99.29-.9.12-1.95 0-2.36-1.38 3.47-4.68 6.63-6.16 7.77 4.1-3.92 5.93-7.9 6.16-8.74.23-.84.26-2.3-.72-2.43-.56-.08-.68.65-.68 1.13-.52 3.11-3.94 6.35-5.58 7.58a23.99 23.99 0 004.9-6.28c.2-.45.49-1.42 0-1.78-.5-.37-1.02.02-1.21.25-4.57 6.59-9.88 8.23-11.97 8.23-.88.04-2.66-.15-2.74-1.16-.1-1.27 1.99-2.04 3.39-2.76 1.12-.57 1.23-1.05 1.14-1.23-.16-.93-1.89-1.19-2.74-1.2-4.66.36-9.62 4.9-11.41 6.16z" fill="url(#bxuhm1tke)"/><path d="M23.02 22.96c-1.64-.5-6.11 4.01-5.84 4.34.28.32 2.1-.9 2.82-1.51-1.43 3.14-5.48 6.2-5.9 6.62-.32.32-.04.47.15.5.74.07 2.82-.27 5.75-2.76 2.92-2.49 7.92-2.92 9.98-2.75.47.04 1.06.18 1.21-.1.16-.28-.05-.51-.3-.65-3.64-1.87-8.17-.56-9.99.32 2.37-2.1 2.4-3.55 2.12-4.01z" fill="#025E35"/><ellipse rx="1.04" ry="3.13" transform="matrix(.6693 .74299 -.74747 .6643 26.64 22.12)" fill="#025E35"/><ellipse rx=".88" ry="2.65" transform="matrix(.27187 .96233 -.96328 .26848 32.04 20.67)" fill="#025E35"/><ellipse rx=".88" ry="2.77" transform="matrix(.30727 .95162 -.9528 .30359 37.92 20.2)" fill="#025E35"/><ellipse rx=".88" ry="2.51" transform="rotate(93.43 6.75 27.91) skewX(.05)" fill="#025E35"/><ellipse rx=".99" ry="2.81" transform="rotate(88.98 2.66 27.28) skewX(-.01)" fill="#025E35"/><defs><linearGradient id="axuhm1tke" x1="15.81" y1="14.34" x2="22.19" y2="24.33" gradientUnits="userSpaceOnUse"><stop offset=".06" stop-color="#E06627"/><stop offset=".53" stop-color="#F59E29"/><stop offset=".9" stop-color="#E06627"/></linearGradient><linearGradient id="bxuhm1tke" x1="27.98" y1="29.37" x2="30.15" y2="46" gradientUnits="userSpaceOnUse"><stop stop-color="#E06627"/><stop offset=".63" stop-color="#F59E29"/><stop offset="1" stop-color="#E06627"/></linearGradient></defs></svg>