<svg xmlns="http://www.w3.org/2000/svg" width="56" height="56" viewBox="0 0 56 56"><path fill="#F0F3FA" d="M0 0h56v56H0z"/><path fill-rule="evenodd" d="m34.6 22.9.03.04c5.24-.14 10.8-.54 16.37-1.66V35c-3.48-.78-9.08-1.68-15.59-2.17L40 37l-5.68-4.24-.36-.03A9.16 9.16 0 0 1 27.83 35c-2.4 0-4.57-.87-6.12-2.26L16 37l4.83-4.39C15.43 32.9 10 33.61 5 35V21c3.25.79 9 1.51 16.13 1.83l.09-.1L16 18l5.7 4.26A9.16 9.16 0 0 1 27.84 20c2.48 0 4.71.92 6.28 2.4L40 18l-5.4 4.9ZM27.83 21c2.25 0 4.27.75 5.73 1.96a242.09 242.09 0 0 1-11.35-.08A9 9 0 0 1 27.83 21Zm-5.06 11.53c3.4-.1 6.75-.04 9.93.13A9.2 9.2 0 0 1 27.83 34a9.16 9.16 0 0 1-5.06-1.47ZM7 23.63l-.12-.27c1.3.3 2.42.42 2.8.44l-.68.25v6.59c1.16-.32 4.13-.51 5.8-.63L15 30v1.86c-3.36.09-6.53.95-8 1.37v-9.6Zm13.55 1.17-3.66-.14.71.4 3.4 4.17V31l-.47.38h2.85l-.38-.38v-1.78l3.43-4 .52-.23h-3.72l.27.14-1.5 2.03-1.68-2.03.23-.34Zm8.01.15 3.01-.1-.57.5v1.7l2.4-1.9-.19-.3 3.59-.16-2 2.08 2.55 4.33.47.32H34.3l.31-.32-1.48-2.97L31 29.77v1.05l.48.38h-2.85l.37-.38V25.3l-.44-.35Zm13.47-.81a86.2 86.2 0 0 0 3.93-.52l-.3.52 3.88 8.5.68.74c-.86-.28-2.89-.86-4.06-.97l.27-.34-.46-1.14a13.4 13.4 0 0 0-3.6-.36l-.31.91.22.4c-.95-.15-2.98-.43-3.48-.46l.75-.47 2.82-6.4-.34-.41Zm.97 4.63c.6 0 1.88.03 2.26.24l-1.17-2.99L43 28.77Z" fill="#0290BE"/></svg>