<svg width="56" height="56" viewBox="0 0 56 56" xmlns="http://www.w3.org/2000/svg"><path fill="#F0F3FA" d="M0 0h56v56H0z"/><path d="M25.7 14.14c.68 4.7 2.22.83 3.2.06l5.2.99 1.94 3.06a.59.59 0 0 0 .4.27.6.6 0 0 0 .48-.12c.65-.53 1.4-1.01 2.27-1.46.24-.13.3-.3.2-.54-.04-.1 0-.16.1-.15.17 0 .32-.03.45-.09l2.15.28c.03.21-.1.44-.39.7-.16.15-.38.27-.67.4-.98.4-1.87.78-2.68 1.14-1.04.4-1.72.63-2.05.72-1.58.42-2.83.83-3.76 1.23-.43 27.58-6.83 16.77-16.7 1.2-.27.23-.67.2-1.2-.08l.64.04c.2 0 .22-.05.07-.17l-2.03-1.7c.15-.31.48-.67 1-1.08.14-.11.2-.27.16-.47a.22.22 0 0 0-.08-.14.23.23 0 0 0-.16-.04l-.6.04c-.12 0-.2-.04-.22-.15-.05-.2.01-.32.2-.4.9-.34 1.74-.61 2.47-.8.64-.17 1.26-.35 1.87-.54.84-.25 1.69-.4 2.53-.66l3.92-1.19c.36-.1.8-.23 1.3-.35Z" fill="#00A1D2"/><path d="M28.9 14.2c-.52.41-.67 1.08-.43 2.02.2.8.33 1.63-.73 1.71a2.3 2.3 0 0 1-1.82-.6.63.63 0 0 1-.2-.46l-.01-2.73c1.02-.2 2.09-.18 3.2.06ZM34.1 15.19l5.84.97c-.13.06-.28.09-.44.09-.11 0-.15.04-.1.15.1.23.03.41-.21.54-.86.45-1.62.93-2.27 1.46a.6.6 0 0 1-.88-.15L34.1 15.2Z" fill="#29B0D8"/><path d="M42.09 16.44c.59-.03.9.27.91.89v6.2l-.3.99c-.05.11-.12.14-.23.08-1.12.64-1.31 2.47-.1 3.11.37 0 .63.19.63.55v7.35c0 .14-.04.28-.1.4a.75.75 0 0 1-.32.3l-1.42.7c-1.4-1.18-2.54.22-3.3 1.68a.51.51 0 0 0-.05.16c-.93.52-1.9.92-2.8 1.47-.83.5-1.7 1-2.6 1.47-.28.14-.61.21-1 .21h-1.15a4.26 4.26 0 0 1-.13-1.73l1.16-1.06a.55.55 0 0 0 .18-.42c-.02-.58.02-1.18.12-1.82.06-.33.02-.63-.13-.9-.06-.1-.14-.12-.25-.05l-1.43.99c-.12.02-.3-.1-.53-.4l1.6-2.2a.6.6 0 0 0-.18-.87l-1.22-.73a.68.68 0 0 1-.2-.19c-.28-.36-.74-.59-1.4-.66l.58-.7.03.12a.17.17 0 0 0 .13.14.17.17 0 0 0 .17-.06c.13-.16.17-.31.14-.46 1.33-.09 2.22-.48 2.65-1.18.64 0 2.3-2.37-.1-1.74l-.02-1c-.01-.22-.21-.4-.43-.36a.37.37 0 0 0-.18.09l-.69.59a.24.24 0 0 1-.31-.02c-.32-.34-.28-.8.1-1.4l1.1-.74c2.25-.5.9.35.61-1.62a.68.68 0 0 1 .3-.64.37.37 0 0 1 .26-.07c2.53.38 2.5-.79 2.5-2.8 0-.1.24-.26.27-.11 1.2 1.32 3.06 1.4 3.4-1.32.8-.36 1.7-.74 2.67-1.15.29-.12.51-.25.67-.39.3-.26.42-.49.39-.7Z" fill="#377D98"/><path d="M38.35 18.68c-.1.89-.4 1.71-.87 2.47a.47.47 0 0 1-.46.21c-.5-.07-1 .01-1.5.24a.3.3 0 0 1-.4-.25c-.02-.54-.08-1-.16-1.35-.01-.05-.04-.07-.1-.06l-.08.03a.14.14 0 0 0-.1.13c0 .53.02 1.05.05 1.57.1 1.7-1.43 1.4-2.54 1.24a.37.37 0 0 0-.27.07.68.68 0 0 0-.29.64c0 .09.05.14.12.18.73.33 1.45.3 2.17-.12a.36.36 0 0 1 .5.18c.03.06.03.13.02.2a3.43 3.43 0 0 1-1.16 2.1l-.88.7a.3.3 0 0 1-.44-.06c-.24-.34-.53-.8-.53-1.23 0-.4-.14-.51-.41-.33.05-.28.2-.54.41-.8l.04-2.97a.3.3 0 0 1 .1-.22c.3-.27.62-.48.96-.63.93-.39 2.19-.8 3.77-1.22.32-.09 1-.32 2.05-.72Z" fill="#5C8FA3"/><path d="M18.42 19.24c-.21.52-.2.96.05 1.32.03.56.1 1.1.2 1.66.11.63.17 1.18.16 1.65a8.6 8.6 0 0 0 .12 1.6c.06.34.49.7.5.93 0 .06-.03.1-.09.13a.47.47 0 0 1-.31.02.15.15 0 0 0-.15.04.22.22 0 0 1-.23.06 2.93 2.93 0 0 0-1.97.15.32.32 0 0 1-.31-.03c-.13-.08-.21-.22-.26-.43.26-.65.3-1.28.1-1.9a6.28 6.28 0 0 1-.29-1.17l-.1-1.44c.16-.29.45-.58.88-.89.5-.34.98-.92 1.46-1.72.05-.07.1-.08.17-.03l.07.05Z" fill="#B9E5E9"/><path d="m23.3 19.78.24 1.52a.5.5 0 0 1-.28.53.53.53 0 0 1-.2.06l-2.63.14a6.78 6.78 0 0 0-1.96-1.47c-.25-.36-.26-.8-.05-1.32.87.06 1.75.07 2.65.02.63-.02 1.37.15 2.23.52Z" fill="#2C5767"/><path d="m24.17 19.83-.03 2.45c-.02.15.25.3.82.44.3.07.34.22.13.43-.44.47-.6 1.11-.48 1.91.02.12 0 .24-.05.34l-.45.9a.5.5 0 0 1-.22.22.52.52 0 0 1-.32.05 5.47 5.47 0 0 0-2.8.25c-.1-.01-.22-.05-.35-.12l-.08-.02a.13.13 0 0 1-.08-.16l.45-1.77c.07.55.2.97.39 1.26.04.08.11.12.2.13l1.21.13c.32.04.43-.1.32-.4l-.74-2c.35-.4.82-.7 1.4-.9.45-.14.46-.3.02-.49-.9-.36-2.04-.61-2.7.25a.17.17 0 0 1-.1.07.14.14 0 0 1-.12-.02.23.23 0 0 1-.12-.2l-.04-.55 2.62-.14a.53.53 0 0 0 .38-.19.5.5 0 0 0 .1-.4l-.23-1.52a1 1 0 0 1 .87.05Z" fill="#7DCFDB"/><path d="m24.14 22.28.03-2.45c.09-.13.2-.19.35-.16.1.02.15.07.16.17.1.88-.08 1.7-.54 2.44ZM13.32 19.92l2.03 1.7c.14.12.12.18-.07.17l-.64-.04c-.65-.3-1.09-.6-1.31-.86-.23-.27-.24-.6-.01-.97ZM30.27 22.93c-.4-.1-.79-.32-1.18-.66a.34.34 0 0 1-.13-.24l-.08-.76a.93.93 0 0 1 .17-.35.4.4 0 0 1 .22-.16c.25-.06.43-.1.52-.14.43-.15.64 0 .6.45l-.12 1.86Z" fill="#2C5767"/><path d="M18.47 20.56c.78.4 1.43.89 1.96 1.47l.04.56c0 .08.04.15.12.19.03.02.07.03.12.02a.17.17 0 0 0 .1-.07c.66-.86 1.8-.61 2.7-.25.44.18.43.35-.01.5-.6.2-1.06.5-1.4.89a2.87 2.87 0 0 0-1.31-.77.37.37 0 0 0-.44.14.36.36 0 0 0-.06.15c-.03.19.01.4.12.65l.3.7-.45 1.78a.13.13 0 0 0 .08.16l.08.02a5 5 0 0 0-1.08-.07c-.34.02-.5.17-.48.46l-2.18 1.96c-.19-.2-.4-.2-.63-.01l-2.09-2.47a.48.48 0 0 1-.1-.22c-.04-.24-.18-.34-.42-.3-.1.03-.17-.01-.19-.13l-.03-.26.1.2c.05.09.12.13.22.12.76-.1 1.5-.04 2.23.18a.4.4 0 0 0 .23 0l.11-.04c.03.09.03.16.02.22.05.2.14.35.26.43.1.07.2.08.31.03.64-.28 1.3-.33 1.97-.15.09.02.16 0 .23-.06.04-.04.09-.05.15-.04.1.03.2.02.31-.02.06-.03.09-.07.09-.13-.01-.23-.44-.59-.5-.93a8.6 8.6 0 0 1-.12-1.6 8.3 8.3 0 0 0-.16-1.65c-.1-.55-.17-1.1-.2-1.66Z" fill="#00A1D2"/><path d="m28.88 21.27.08.76c.01.1.05.18.13.24.4.34.79.56 1.18.66.32-.22.62-.22.9 0a.34.34 0 0 1 .13.23l.14 1.28c-.23.26-.37.52-.42.8l-1.1.73-1.7-2.3a.6.6 0 0 1-.08-.58l.74-1.82Z" fill="#B9E5E9"/><path d="M14.28 24.23c-.46-.06-.82.12-1.08.54-.16-.43-.23-.9-.18-1.44.14-.59.45-.95.9-1.07a.47.47 0 0 1 .48.14.46.46 0 0 1 .07.48c-.19.43-.25.87-.2 1.35Z" fill="#29B0D8"/><path d="M43 23.52v4.74c0-.36-.26-.55-.63-.55a6.09 6.09 0 0 1-2.25-.56.35.35 0 0 1-.1-.25c0-.05 0-.1.03-.14.1-.2.13-.44.11-.7 0-.1-.06-.15-.16-.16-.56-.02-.82.77-1.12 1.14a.5.5 0 0 1-.6.14l-.11-.05c-.23-.1-.26-.24-.08-.42l.77-.75a.5.5 0 0 0 .07-.61c-.37-.61-.85-.96-1.45-1.32a3.5 3.5 0 0 1-1.36-1.49v-.05a.13.13 0 0 1 .1-.07 2.88 2.88 0 0 1 1.72.14c.42.16.83.52 1.21 1.07a42.45 42.45 0 0 1 1.23 1.81.29.29 0 0 0 .22.05l.11-.05c.32-.24.63-.49.94-.75.21-.18.57-.24.82-.1.11.07.18.04.22-.07l.31-1Z" fill="#5C8FA3"/><path d="m22.1 23.87.73 2c.11.3 0 .44-.32.4l-1.21-.13a.27.27 0 0 1-.2-.13 3.25 3.25 0 0 1-.4-1.26c-.07-.2-.16-.43-.29-.71-.1-.24-.15-.46-.12-.65a.36.36 0 0 1 .18-.27.37.37 0 0 1 .32-.02c.64.22 1.08.48 1.3.77ZM27.99 24.62c-.42.02-.96-.05-1.6-.24a3.21 3.21 0 0 1-.8-.57c-.52-.5-.42-.7.3-.63.36.04.77.06 1.25.07.1 0 .21.03.3.1.6.4.77.82.55 1.27Z" fill="#2C5767"/><path d="M13.02 23.33c-.04.53.02 1.01.18 1.44l.02.9.03.25c.02.12.08.16.2.14.23-.05.37.05.4.29.02.08.06.15.11.22l2.09 2.47a3 3 0 0 0-1.3 1.43c.04-.31-.02-.61-.15-.91-.08-.17-.28-.4-.6-.67a2.59 2.59 0 0 1-.93-1.88c-.07-1-.09-2.22-.05-3.68Z" fill="#7DCFDB"/><path d="m14.28 24.23 1.4.27c.1.02.17.06.24.13.4.43.47.93.2 1.5l-.12.03a.4.4 0 0 1-.23 0 5.46 5.46 0 0 0-2.23-.18c-.1 0-.17-.03-.22-.12l-.1-.2-.02-.9c.26-.41.62-.59 1.08-.53Z" fill="#2C5767"/><path d="M26.38 24.38c.65.19 1.19.26 1.6.24l.13.41c.04.57-.13 2.13-.84 2.33-.44.13-.97.1-1.58-.08-.29-.09-.4-.28-.34-.6.2-1.04.55-1.8 1.03-2.3Z" fill="#B9E5E9"/><path d="M28.1 25.03c.15.6.4 1.17.76 1.72.07.11.05.2-.07.26-.2.09-.35.23-.44.43a.48.48 0 0 0-.04.28l.6 3.28c.02.15-.02.3-.15.46a.17.17 0 0 1-.3-.08l-.03-.13a.66.66 0 0 0 .13-.53.31.31 0 0 0-.16-.21L27 29.77c-.34-.41-.66-.86-.98-1.33a.64.64 0 0 1-.09-.55c.05-.17.05-.28.02-.34a.77.77 0 0 0-.27-.27 2.8 2.8 0 0 0 1.58.08c.71-.2.88-1.76.84-2.33Z" fill="#7DCFDB"/><path d="M20.42 26.7c.13.07.25.1.36.12.09.63.28 1.1.57 1.4l.07 1.98c0 .14-.06.22-.2.24l-.13.02c-.1.02-.16-.03-.16-.13.02-.71-.13-1.4-.46-2.08a.53.53 0 0 0-.19-.2l-1.42-.96c-.03-.29.14-.44.48-.46a5 5 0 0 1 1.08.07Z" fill="#2C5767"/><path d="m31.55 29.82-.1-1.74a5.39 5.39 0 0 1 2.2-1.2.77.77 0 0 1 .25-.03c.08 0 .15-.03.2-.08.12-.12.15-.1.1.06a.76.76 0 0 0-.02.39c.02.14 0 .15-.09.04a.18.18 0 0 0-.07-.06c-.09-.04-.14-.01-.16.07-.22.73.42 1.17 1.09 1.17h2.36a.52.52 0 0 1 .51.44l.1.8c.13 1.57-2.03 1.64-3.05 1.49a.32.32 0 0 1-.28-.3l-.09-1.54a.32.32 0 0 0-.08-.2.34.34 0 0 0-.19-.11c-.27-.06-.39.02-.34.25a.4.4 0 0 1-.08.33 5.98 5.98 0 0 1-1.45 1.36.52.52 0 0 1-.72-.15.5.5 0 0 1-.08-.26v-.73Z" fill="#5C8FA3"/><path d="m18.86 27.1 1.43.95c.07.05.13.12.18.2.33.68.48 1.37.46 2.08 0 .1.05.15.16.13l.13-.02c.14-.02.2-.1.2-.24l-.07-1.98 3.5-.03c.3 0 .36.12.19.37-.46.64-.8 1.4-1.38 1.92-.94.86-1.04 1.42-.15 2.57.06.28.24.51.54.7a.21.21 0 0 1 .02.33l-.91.82a.18.18 0 0 0-.06.12c0 .04 0 .09.03.12.24.31.66.53 1.26.68l-2.46-.2a.44.44 0 0 0-.32.11.43.43 0 0 0-.14.31c0 .15.01.24.05.3-.09-.26-.47-.28-1.15-.06-.1.03-.15 0-.18-.1a.16.16 0 0 1 .02-.13l.17-.9h1.02a.55.55 0 0 0 .51-.33.53.53 0 0 0-.11-.6l-1.64-1.65 1.05-1.1c.22-.22.18-.37-.12-.46l-.7-.2a.5.5 0 0 0-.57.2l-.9 1.18c-.18-.4-.27-.93-.26-1.57a.23.23 0 0 0-.11-.2l-.47-.3a4.78 4.78 0 0 1-1.4-1.07l2.18-1.96Z" fill="#7DCFDB"/><path d="M16.68 29.05c.33.39.8.75 1.4 1.07-.01.3-.16.43-.45.4a5.3 5.3 0 0 0-2.44.29.32.32 0 0 1-.38-.12.3.3 0 0 1-.05-.14v-.08a3 3 0 0 1 1.29-1.43c.23-.19.44-.18.63.01ZM27.01 29.77l1.39.74c.09.04.14.12.16.21.04.17 0 .35-.13.53l-.57.7-1.2 1.75a.74.74 0 0 0-.12.35.67.67 0 0 1-1.03.48c-.24-.15-.48-.29-.73-.4-.13-.07-.25-.07-.35 0-.1.06-.12.14-.09.25.22.6.24 1.08.05 1.44-.6-.15-1.02-.37-1.26-.68a.18.18 0 0 1-.03-.12c0-.05.02-.09.06-.12l.91-.82a.22.22 0 0 0 .07-.18.2.2 0 0 0-.1-.16 1.1 1.1 0 0 1-.54-.69l2.6-3.3c.06-.08.14-.1.24-.1l.67.12Z" fill="#2C5767"/><path d="m18.08 30.12.47.3c.07.04.11.1.11.2-.01.64.08 1.17.26 1.57.43.38.84.5 1.23.38l1.65 1.66a.54.54 0 0 1-.4.92h-1.02l-.9-1c-.06-.4-.22-.7-.5-.92-.09-.07-.18-.07-.28 0l-.57.45a.35.35 0 0 1-.5-.09.34.34 0 0 1-.06-.18l.06-2.88c.29.02.44-.12.45-.41Z" fill="#00A1D2"/><path d="M20.15 32.57c-.39.13-.8 0-1.23-.38l.9-1.19a.5.5 0 0 1 .57-.19l.7.2c.3.09.34.24.12.46l-1.06 1.1Z" fill="#2C5767"/><path d="m41.15 37.02-3.34 1.83c0-.05.02-.1.05-.16a.19.19 0 0 0-.02-.22c-.09-.1-.2-.15-.35-.12-.9.16-1.44-.43-1.44-1.26 0-.62-.27-1.42.19-1.93.36-.41 1.06-.3 1.58-.44a.4.4 0 0 0 .25-.21.4.4 0 0 0 0-.34 7.81 7.81 0 0 0-1.31-1.99.27.27 0 0 1 .05-.4c.04-.03.1-.04.15-.04.64-.02 1.17-.3 1.6-.83a.21.21 0 0 1 .17-.08.22.22 0 0 1 .17.1c.4.63.82 1.22 1.25 1.77a2 2 0 0 0 .58.5.38.38 0 0 1 .18.29.37.37 0 0 1-.14.32l-.64.5a.76.76 0 0 0-.29.56.76.76 0 0 0 .23.58c.43.43.79.95 1.08 1.57Z" fill="#5C8FA3"/><path d="M27.86 31.96c.65.07 1.1.3 1.38.66.06.08.13.14.2.19l1.23.73a.6.6 0 0 1 .29.39.6.6 0 0 1-.1.47l-1.61 2.21c-.64-.6-1.15-.92-1.53-.96-.48-.06-1.47 0-2.98.17-.13.01-.2.09-.22.22-.03.4.01.76.14 1.1.05.13.15.22.3.25l.37.08c.17.04.17.07 0 .1l-.32.06a.27.27 0 0 0-.22.18c-.1.27-.15.6-.13 1l-2.91.33c-.38-.58-.46-1.51-.23-2.8-.04-.06-.06-.15-.06-.3a.42.42 0 0 1 .15-.3.43.43 0 0 1 .32-.12l2.46.2c.19-.36.17-.84-.05-1.44-.03-.1 0-.19.09-.25.1-.07.22-.07.35 0 .25.11.5.25.73.4.42.28.97.02 1.03-.48a.74.74 0 0 1 .13-.35l1.19-1.74Z" fill="#B9E5E9"/><path d="M14.65 33.99c-.68.26-.88 1.18-.62 2.77.03.16.02.29-.05.39a.49.49 0 0 0-.07.24l-.06.96c-.4 0-.78-.18-.78-.6a1437.1 1437.1 0 0 0 .05-3.86.25.25 0 0 1 .17-.14h.1l1.26.24Z" fill="#00A1D2"/><path d="M16.32 36.58c.11.24.22.46.33.65.13.25.2.48.21.67.03.52-.1.84-.4.96l-2.6-.51.05-.96a.5.5 0 0 1 .07-.24c.07-.1.08-.23.05-.4-.26-1.58-.06-2.5.62-2.76l1.62-.11a.43.43 0 0 1 .43.3.4.4 0 0 1 .01.18l-.39 2.22ZM19.47 34.15l.9 1-.16.9c-.26.42-.38.69-.35.8a2.7 2.7 0 0 0-.22.9c.06.68-.14.77-.62.29-.3-.32-.52-.77-.64-1.36l.26-1.84c.07-.58.35-.8.83-.7Z" fill="#2C5767"/><path d="M29.25 36.61c.23.3.4.43.53.4.3.17.44.36.4.58-.02.1-.08.16-.18.17-.51.04-.83-.15-.97-.57a.25.25 0 0 0-.17-.17.26.26 0 0 0-.24.04l-2.85 2.22-1.11-.48c-.02-.4.02-.72.13-1 .04-.1.11-.15.22-.17l.32-.06c.17-.03.17-.06 0-.1l-.38-.08a.38.38 0 0 1-.29-.25c-.13-.34-.17-.7-.14-1.1.02-.13.09-.2.22-.22 1.51-.17 2.5-.23 2.98-.17.38.04.89.36 1.53.96Z" fill="#00A1D2"/><path d="m30.13 40.27-1.29-1.26c-.18-.18-.25-.14-.23.1.04.43.06.86.08 1.3 0 .25.1.5.27.73.15.22.33.43.52.64a8.44 8.44 0 0 0-1.76-.38c-1.49-.13-2.8-.68-4.22-.97-.25-.05-.5-.1-.75-.17l.95-.06a.4.4 0 0 0 .25-.1l.8-.74a.3.3 0 0 1 .47.1c.23.53.53.95.9 1.26.13.1.28.15.44.14.1 0 .18-.04.24-.11a.14.14 0 0 0 .04-.1.14.14 0 0 0-.04-.08l-1.03-1.3 2.85-2.2a.26.26 0 0 1 .41.12c.14.42.46.61.97.57.1-.01.16-.07.18-.17.04-.22-.1-.41-.4-.58l1.43-.99c.1-.07.19-.05.25.06.15.26.19.56.13.9-.1.63-.14 1.23-.12 1.8a.54.54 0 0 1-.18.43l-1.16 1.06Z" fill="#7DCFDB"/><path d="M20.2 36.06a.16.16 0 0 0-.01.13c.03.09.08.12.17.09.69-.22 1.07-.2 1.16.05-.23 1.3-.16 2.23.23 2.81-.3-.02-.63.2-1 .67l-.38-.23a9.4 9.4 0 0 0-.51-2.72c-.03-.12.1-.4.35-.8Z" fill="#00A1D2"/><path d="M18.38 36.68c.12.59.34 1.04.64 1.36.48.48.68.39.62-.28a2.7 2.7 0 0 1 .22-.9c.31.92.48 1.82.51 2.72-1.05-.16-2.99-.24-3.92-.72.3-.12.44-.44.41-.96 0-.2-.08-.42-.22-.67l-.32-.65a3.54 3.54 0 0 1 2.06.1Z" fill="#7DCFDB"/><path d="m24.66 38.8 1.11.48 1.03 1.29c.02.02.04.05.04.09 0 .03-.02.06-.04.09a.34.34 0 0 1-.24.11.61.61 0 0 1-.43-.14 3.33 3.33 0 0 1-.9-1.26.29.29 0 0 0-.22-.17.3.3 0 0 0-.26.07l-.8.73a.4.4 0 0 1-.25.1l-.95.07-2-.45c.37-.47.7-.7 1-.67l2.9-.34Z" fill="#2C5767"/><path d="M30.12 40.27c-.07.53-.03 1.1.14 1.73-.25-.02-.51-.1-.78-.22-.2-.2-.37-.42-.52-.64a1.32 1.32 0 0 1-.27-.73 21.6 21.6 0 0 0-.08-1.3c-.02-.24.05-.28.23-.1l1.28 1.26Z" fill="#00A1D2"/></svg>