<svg xmlns="http://www.w3.org/2000/svg" width="56" height="56"><path d="M0 28a28 28 0 1156 0 28 28 0 01-56 0z" fill="#F0F3FA"/><path d="M37.6 21.58l.4.33v11.68l-10 6.02-10-6.02V21.91l10-6.02 3.24 1.91 4.15-4.28-5.91-3.5a2.9 2.9 0 00-2.96 0l-13.06 7.74a2.9 2.9 0 00-1.42 2.5v14.99a2.9 2.9 0 001.42 2.5l13.06 7.73a2.9 2.9 0 002.96 0l13.06-7.74a2.9 2.9 0 001.42-2.5V20.26a2.9 2.9 0 00-1.42-2.5l-.78-.45-4.16 4.28z" fill="#0E7F41"/><path d="M36.94 11.1a1.7 1.7 0 012.42 2.4l-7.87 7.92a1.7 1.7 0 11-2.42-2.4l7.87-7.92zm3.89 3.46a1.7 1.7 0 112.41 2.4l-7.87 7.92a1.7 1.7 0 11-2.41-2.4l7.87-7.92z" fill="#93161A"/></svg>