<svg width="56" height="56" viewBox="0 0 56 56" xmlns="http://www.w3.org/2000/svg"><path fill="#F0F3FA" d="M0 0h56v56H0z"/><path d="m36.36 23.23.57-1.78a.49.49 0 0 0-.28-.61c-.94-.35-2.58-.84-3.89-.84-1.91 0-7.18 1-8.62 7.5C22.7 34 28.45 35 30.37 35c1.27 0 2.19-.23 2.65-.4.14-.06.24-.2.26-.35l.31-1.93a.52.52 0 0 0-.63-.59c-.79.21-1.39.27-1.63.27-2.4 0-3.84-2-3.36-4.5s2.4-4.5 4.8-4.5c1.23 0 2.13.28 2.7.56.32.16.78.03.9-.33Z" fill="#348A35"/><path d="M8.5 35h2.48a.5.5 0 0 0 .48-.37L13.6 27c.06-.21.37-.19.4.03l.84 7.53a.5.5 0 0 0 .5.44h.25a.5.5 0 0 0 .44-.26l4.31-7.73c.11-.2.41-.09.38.13l-1.22 7.28a.5.5 0 0 0 .5.58h2.98a.5.5 0 0 0 .5-.43l.35-2.64c-.54-1.08-.74-2.52-.32-4.43.3-1.39.79-2.52 1.37-3.45l.47-3.48a.5.5 0 0 0-.5-.57H21.7a.5.5 0 0 0-.43.25l-4.08 7.22a.2.2 0 0 1-.37-.07l-.88-6.96a.5.5 0 0 0-.5-.44h-3.18a.5.5 0 0 0-.49.37l-3.74 14a.5.5 0 0 0 .48.63ZM35.34 29.53l-1.37 4.84c-.1.32.15.63.5.63h3.08c.23 0 .43-.14.5-.35l1.33-4.27a.54.54 0 0 1 .5-.38h3.4c.22 0 .42-.1.5-.3l1.18-3.03a.49.49 0 0 0-.46-.66c-6.52-.2-8.82 2.23-9.16 3.52ZM39.87 26a8.58 8.58 0 0 0-3.91 1l1.06-3.5a4.62 4.62 0 0 1 4.24-3.5h6.21c.34 0 .6.3.51.62l-.8 3a.53.53 0 0 1-.5.38h-5.1c-.2 0-.38.1-.47.28l-.77 1.44a.55.55 0 0 1-.47.29Z" fill="#348A35"/></svg>