<svg xmlns="http://www.w3.org/2000/svg" width="56" height="56" viewBox="0 0 56 56"><path fill="#F0F3FA" d="M0 0h56v56H0z"/><path fill-rule="evenodd" d="M31.64 29.56a65.93 65.93 0 0 0 4 7.94H20.49a57.5 57.5 0 0 0 4.07-7.94C26.66 24.1 28 15 28 15s1.48 9.1 3.64 14.56zM20.18 38h15.76c1.65 2.84 3.06 5 3.06 5H17s1.47-2.16 3.18-5zM30 28.46L29 31l1.34 4.5h-4.68L27 31l-1-2.52 1.12-1.98h1.83s.74 1.28 1.05 1.96zM25 36h6l-1.5-4.98 1-2.57L29.26 26H26.8l-1.31 2.48 1 2.54L25 36zm-2 6h.8v-2.27l.57 2.27h.68l.55-2.27V42h.8v-3h-1.23l-.46 1.82-.48-1.82H23v3zm8.2 0h-.8v-3h.8l1 1.62V39h.8v3h-.8l-1-1.58V42zm-3.37-3l-1.13 3h.97l.16-.5h1.06l.13.5H30l-1.1-3h-1.07zm.85 1.8h-.66l.34-.99.32.99z" fill="#9E3963"/><path d="M28.03 12C20.88 12 15 17.6 15 24.6a12.6 12.6 0 0 0 4.64 9.67l-.66.73A13.55 13.55 0 0 1 14 24.6C14 17.08 20.3 11 28.03 11 35.75 11 42 17.08 42 24.6c0 4.17-1.91 7.9-4.92 10.4l-.66-.73c2.8-2.32 4.58-5.79 4.58-9.67 0-7-5.81-12.6-12.97-12.6z" fill="#1D4C9C"/></svg>