<svg width="56" height="56" viewBox="0 0 56 56" xmlns="http://www.w3.org/2000/svg"><path fill="#F0F3FA" d="M0 0h56v56H0z"/><path d="M49.96 16H50l-2.25 5.25c-.01.02-.02.02-.02 0l-.03-2.16-7.92 6.5v.02c.57 1.36.79 2.86.58 4.33-.47 3.33-2.91 5.9-5.63 7.49a18.83 18.83 0 0 1-6.82 2.34c-3.56.52-7.3.17-10.66-1.12a16.7 16.7 0 0 1-3.59-1.9c-2.71-1.9-4.9-4.9-4.64-8.49.26-3.6 2.85-6.39 5.71-8.06 1.2-.7 2.5-1.26 3.9-1.68a21.35 21.35 0 0 1 12.9.23c1.6.55 3.15 1.33 4.53 2.35a11.76 11.76 0 0 1 3.2 3.45l7.6-6.26v-.01l-2.48-.17c-.03 0-.03-.01 0-.02L49.95 16ZM38.12 26.9h-.01v-.01l-.42-1.04h-.01.01l.02-.01a623.14 623.14 0 0 1 .9-.77c-.52-.9-1.16-1.7-1.93-2.4-.6-.56-1.25-1.05-1.94-1.49a17.11 17.11 0 0 0-4.91-2.06 21.03 21.03 0 0 0-12.16.6 15.5 15.5 0 0 0-3.99 2.17c-2.02 1.53-3.68 3.76-3.85 6.45-.21 3.1 1.59 5.7 3.88 7.43a16.12 16.12 0 0 0 5.24 2.58 21.26 21.26 0 0 0 9.45.49c1.42-.26 2.77-.65 4.07-1.2 1.54-.65 3-1.53 4.22-2.68a8.78 8.78 0 0 0 2.87-5.14 7.3 7.3 0 0 0-.48-3.73l-.96.81Z" fill="#0054A4"/><path d="M37.68 25.84v.01l-8.57 7.07a.67.67 0 0 1-.19.11c-.2.08-.72.3-.82-.07a.86.86 0 0 1 0-.35 5.48 5.48 0 0 1 .86-2.18l.6-.95c.25-.4.5-.78.76-1.16.94-1.35 1.74-2.53 2.4-3.51.17-.26.27-.54.14-.84a1.96 1.96 0 0 0-.2-.34c-.1-.13-.17-.28-.26-.42-.1-.15-.22-.26-.34-.34-.3-.2-.62-.03-.85.21a14139.7 14139.7 0 0 1-5.83 6.04c.4-.71.83-1.43 1.16-2.17.08-.2.17-.38.25-.54.25-.5.5-1 .69-1.52.12-.35.15-.7.1-1.07a1.6 1.6 0 0 0-.14-.54.9.9 0 0 0-.75-.5c-.4-.04-.83.13-1.16.35-.36.24-.66.5-.9.76a1584.2 1584.2 0 0 0-3.18 3.54c.26-.84.6-1.7.83-2.57.05-.17.08-.34.1-.51v-.25c-.12-.4-.32-.78-.6-1.11l-.18-.22a.56.56 0 0 0-.17-.15c-.19-.09-.42-.05-.62 0-.3.1-.6.22-.92.38l-1.8.93a17.1 17.1 0 0 1-1.37.6c.16-.14.3-.29.44-.45.12-.14.2-.27.24-.4.06-.2-.13-.23-.26-.2-.23.07-.45.2-.65.38l-.72.68a2.54 2.54 0 0 0-.67 1.25l-.29 1.34c-.13.56.32.59.7.47.26-.08.52-.2.77-.35l3.27-1.96c.27-.17 1.23-.7 1.36-.09.03.14.02.3-.02.5-.05.25-.13.51-.24.77-.35.83-.81 1.62-1.35 2.36A29039.93 29039.93 0 0 1 16.3 33c0 .57.15 1.17.44 1.65.27.47.73.75 1.2.32.12-.11.22-.23.3-.36.16-.28.33-.55.5-.8a625.9 625.9 0 0 1 2.9-4.28 4214.06 4214.06 0 0 0 2.5-3.14c.25-.28.5-.55.77-.8.06-.05.13-.1.21-.14.04-.02.07-.01.09.02.1.17-.47 1.27-.58 1.48-.38.71-.76 1.4-1.16 2.05-.28.46-.8 1.29-1.56 2.47l-.67 1c-.2.26-.31.56-.36.89a3 3 0 0 0 .37 1.7c.09.17.24.35.44.34.36-.03.7-.52.9-.8l.28-.37 2.53-3.3c.15-.2.32-.4.51-.61a38.4 38.4 0 0 1 1.52-1.56A150.5 150.5 0 0 0 29 27.23a34.96 34.96 0 0 0-2.07 3.43 9.44 9.44 0 0 0-.63 1.53c-.14.46-.21.9-.23 1.34a3.42 3.42 0 0 0 .43 1.72c.27.37.92.28 1.29.18a6.26 6.26 0 0 0 1.93-1.1 21217.88 21217.88 0 0 0 8.4-7.43c.45 1.44.4 2.85-.13 4.23a8.96 8.96 0 0 1-3.09 3.85c-.94.71-1.98 1.28-3.08 1.72-1.16.48-2.38.83-3.66 1.05-2.27.39-4.56.4-6.84 0-2.39-.4-4.76-1.3-6.71-2.73-1.97-1.45-3.62-3.63-3.58-6.27.04-3 2.16-5.32 4.5-6.75.67-.41 1.38-.77 2.13-1.07a19.52 19.52 0 0 1 13.28-.32c1.76.6 3.38 1.47 4.75 2.7a8.9 8.9 0 0 1 2 2.53Z" fill="#0A94D6"/></svg>