<svg width="56" height="56" viewBox="0 0 56 56" xmlns="http://www.w3.org/2000/svg"><path fill="#06284D" d="M0 0h56v56H0z"/><path fill-rule="evenodd" d="M46.74 27.66c-.08-.1-.42-.94.12-1.4.54-.48 1.47-1.04 2.22-1.04.75 0 1.66.64 1.66 1.54 0 .27-.05.48-.1.67-.1.45-.19.85.33 1.92.25.5.48.88.65 1.17.37.61.53.87.2 1.21-.49.5-1.48-.48-1.56-.71-.19.14-.7.42-1.28.42-.73 0-1.59-.72-1.77-1.18v-.02c-.18-.46-.43-1.1.49-1.68.92-.6 1.82-1.44 1.38-1.8-.43-.36-1.26.54-1.38.72-.13.18-.44.52-.96.18Zm1.7 2.14c.15-.27.55-.8.96-.7.51.12.63.86.26.9l-.27.03c-.37.07-.85.15-.95-.23Z" fill="#EF9A2F"/><path d="M50.61 26.81c.05-.29-.33-.8-.53-1.03-.1.22-.26.74-.06 1.03.24.36-.12 1.21.06 1.7.2.48.41.13.37-.1-.05-.24.1-1.24.16-1.6Z" fill="#D66928"/><path d="M49.69 28.58c.22.14.23.56.2.76-.16-.33-.53-.36-.77-.35-.24 0-.64.5-.73.82-.08.32-.05.63.29.9.34.26.96.05 1.52-.08.55-.14.92.45.96.4.04-.05.3-.18.5 0 .23.17.16.56-.27.6-.43.05-1.09-.72-1.15-.74-.05-.01-.67.3-.99.37-.32.07-.39 0-.91-.23-.53-.23-1.06-.91-1.04-1.22.03-.31 1.26-.96 1.6-1.23.34-.28.5-.18.79 0Z" fill="#CE6E22"/><path d="M46.8 26.64c-.2.26.13.35.2.4.4-.32 1.32-.99 1.71-1.18.5-.25 1.16.15 1.22-.05.06-.19-.57-.43-1.02-.43-.45 0-1.91 1-2.12 1.26Z" fill="#FFCC6B"/><path d="M45.9 25.87c-.33.32-.65.4-.77.4-.62-.06-.54-.57-.58-.72-.05-.14.31-1.4 1.1-1.08.79.32.66 1 .25 1.4Z" fill="#EF9A2F"/><path d="M45.17 24.75c-.2.08-.25.48-.23.52.03 0 .15.02.36.08.27.07.24-.2.29-.44.05-.24-.23-.24-.42-.16Z" fill="#FFD8B1"/><path d="M45.53 25.33c-.1.18-.5.26-.7.27a.33.33 0 0 0-.05.27c.04.16.7.09.87-.02.18-.11.45-.78.3-.88-.15-.1-.29.13-.42.36Z" fill="#D66928"/><path fill-rule="evenodd" d="M43.8 30.38c-.27-1.26-.66-4.36 0-6.65.13-.42.22-1.34-.4-1.67-.74-.38-.87 1.16-.9 1.53v.05l-.22 2.14c-.54-.2-1.77.04-2.39 2.6-.76 3.22 1.1 3.38 1.48 3.34.3-.03 1.04-.5 1.37-.73.17.1.58.29.85.11.28-.17.26-.55.22-.72Zm-1.33-.08c.08-.28.23-1 .1-1.6-.16-.77-.45-1.6-.72-1.45-.28.15-.93 1.8-.93 2.42 0 .63.42.83.79.83.29 0 .62-.13.76-.2Z" fill="#EF9A2F"/><path d="M40.23 29.52c0 .7.58 1.06.87 1.15-.11-.2-.35-.68-.4-1.04-.04-.45.5-1.83.8-2.34.31-.5.48-.06.65-.28.18-.2-.15-.4-.57-.45-.42-.04-1.35 2.1-1.35 2.96Z" fill="#CD6025"/><path d="M43.46 24.22c-.17.72-.27 2.04-.3 2.6 0 .4-.05 1.14-.27 1.08-.28-.08-.31-1.3-.21-1.62.1-.32.48-3.18.72-3.62.23-.45.27.66.06 1.56Z" fill="#D66928"/><path fill-rule="evenodd" d="M15.83 33.99c-.27.1-.8-.37-.8-3.15v-.43c0-3.18-.01-5 2-5.4.72 0 2.14.55 2.14 2.82 0 2.27-1.62 2.55-2.43 2.4 0 1.21-.16 3.66-.91 3.76Zm.74-4.97c.01-.8.16-2.44.62-2.6.58-.21.97.9.8 1.33l-.02.08c-.16.44-.44 1.19-1.4 1.19Z" fill="#EE952A"/><path d="M15.27 32.13c.05.53.19.77.25.82.25-.26.12-1.36-.02-1.75-.15-.4-.29.28-.23.93Z" fill="#FFD493"/><path d="M9.31 27.3c.04.18.23.54.66.54.26 0 .56-.3.86-.58.33-.32.66-.64.93-.55.51.16.13.8-.67 1.26-.8.47-1.2 1.04-1.2 1.74s.83 1.67 1.93 1.67c.25 0 .83-.09 1.15-.39.17.3.63.87 1.1.87.46 0 .6-.34.62-.52a3.73 3.73 0 0 0-.82-1.63 2.35 2.35 0 0 1-.46-2.31c.16-.57.24-1.25-.5-1.83a1.9 1.9 0 0 0-2.26-.15c-.72.43-1.57 1.14-1.34 1.89Zm2.8 1.74c.2.22.56.73.38.97-.21.3-1.3.06-1.33-.22-.03-.29.76-.8.95-.75Z" fill="#EE952A"/><path d="M12.97 27.06c.13-.44-.05-.9-.16-1.09.09-.46.4.32.54.57.13.25.08.57-.14 1.26-.22.69-.11.71-.24.7-.12-.02-.16-.9 0-1.44Z" fill="#C86F11"/><path d="M11.53 25.31c-.63-.06-1.54.73-1.92 1.13-.04.1-.07.33.13.45.24.15.65-.45 1.36-.91.72-.46 1.2-.13 1.46-.2.24-.08-.24-.39-1.03-.47Z" fill="#FFCC98"/><path d="M4.12 30.36c.2-1.84.01-4.8-.1-6.05-.05-.13 0-.48.5-.81.52-.34 1.62 1.3 2.11 2.17.75-1.58 1.3-1.84 1.47-1.77.95.26.68 2.92.7 4.3 0 1.37-.22 3.92-.95 3.72-.74-.2-.48-2.22-.3-3.51.17-1.3.12-2.04 0-1.8-.13.26-1.33 2.49-1.72 2.32-.38-.16-.27-.44-.18-1.15.1-.7.26-.94.04-.85-.22.1-.31 1.66-.22 2.6 0 .58-.14 1.75-.7 1.75-.54 0-.66-.61-.65-.92Z" fill="#EE952A"/><path d="M21.24 29.14c-.12.86-.44 2.19-.98 2.19-.76 0-.83-2.52-.83-3.16 0-.65.1-1.56.63-1.56.42 0 .63.35.69.53.12-.27.5-.78 1.04-.67.54.1.61.49.59.67.34-.21 1.13-.25 1.58 1.28.56 1.9.37 3.23-.14 3.19-.52-.04-.72-1.76-.76-2.76v-.05c-.04-.07-.15-.13-.28.17-.16.37-.17 1.89-.99 1.89-.57 0-.62-1.02-.55-1.72ZM26.2 30.3l-1.64-3.22c-.05-.09 0-.32.64-.52.65-.2 1.38 1.46 1.67 2.32.15-.38.58-1.35 1.07-2.24.49-.89.81-.76.91-.59.74.86-1.12 4.53-2.14 6.26-.28.61-.93 1.77-1.34 1.53-.4-.25-.28-.77-.17-1l1-2.55Z" fill="#EF9A2F"/><path d="M34.05 22.94a66.4 66.4 0 0 0-4.44 1.31c-.57.31-.36 1.36.47 1.36.82 0 .86-.36 1.39-.48.43-.1.5.28.47.48l-.17 4.76c-.82.16-2.42.64-2.3 1.23.1.6.68.66.94.62.87-.35 2.72-1.06 3.18-1.06.59 0 1.53.15 1.28-.7-.2-.7-1.38-.54-1.94-.38l.08-5.38 1.73-.56c.39-.11 1.03-.48.6-.97-.34-.4-1-.31-1.3-.23ZM35.73 28.1c0 2.15.6 2.85.9 2.92.25-.07.34-.3.35-.4.14-1.12.5-3.33.87-3.27.45.09.53.91.53 1.7 0 .77.33 1.21.58 1.21.25 0 .6.11.6-1.64s-1.01-2.87-1.57-2.87c-.44 0-.8.45-.92.67-.66-1.26-1.34-1.03-1.34 1.67ZM44.1 30.74c.2-.5.26-2.07.27-2.8.03-.25.2-.75.66-.74.57.03.9.7.63 2.62-.27 1.92-.68 2.36-1.04 2.36s-.77-.8-.52-1.44Z" fill="#EF9A2F"/><path d="M4.8 30.22c-.28.29-.42.12-.46 0-.02.28.05.8.46.69.51-.14.59-3.84.77-4.05.19-.2.4.2.4 0s-.23-.79-.62-.66c-.4.13-.2 3.67-.55 4.02ZM6.51 27.6a.97.97 0 0 1-.74.72c0 .81.88-.48 1.04-.73.16-.24.53-1.08.73-1.16.2-.08.41.35.45.08.03-.27-.38-.58-.81-.52-.44.06-.53 1-.67 1.6ZM8.1 31.52c-.22.11-.4-.38-.46-.65.45.3.4-.43.64-1.13s.05-3.3 0-3.93c-.05-.63 0-1.37.17-1.18.17.2.28 4 .26 4.68-.02.69-.36 2.06-.62 2.2Z" fill="#D86B28"/><path d="M4.76 23.66c-.25-.06-.46.31-.54.5.18.13.6.35.83.26.3-.11.02-.7-.29-.76ZM7.88 24.08c-.24.07-.93 1.21-1.25 1.77 0 .2.05.08.37-.12.3-.2 1.08-1.11 1.26-1.37.17-.26-.09-.37-.38-.28Z" fill="#FFCC98"/><path d="M6.08 27.31c-.1.33-.15.6-.15.7-.02.04-.04.13.05.12.12-.02.4-.43.53-.72.12-.3.1-.77-.07-.85-.17-.09-.23.35-.36.75ZM7.61 30.25c-.03.62.1.6.16.52.1-.12.5-1.1.53-1.55a8.34 8.34 0 0 0-.16-2.2c-.14-.23-.48 2.45-.53 3.23Z" fill="#FFDE8C"/><path d="M10.04 27.1c-.16.2.04.36.16.42l.9-.82c.3-.26.6-.28.84-.39.24-.1-.15-.26-.41-.27-.26-.01-1.3.8-1.5 1.05Z" fill="#E06B28"/><path d="M10.7 28.42c-.38.27-.54.84-.57 1.1 0 .04.1.14.33.2.3.05.38-.63.67-.96.3-.32.92-.42 1.16-.67.24-.25-.17-1-.3-.81-.13.2-.83.8-1.3 1.14Z" fill="#FFDE8C"/><path d="M11.82 28.58c-.24 0-.8.73-1.06 1.09 0 .03.02.1.12.19.12.1.5-.71.86-.93.35-.21.65.16.78 0 .12-.16-.4-.36-.7-.35Z" fill="#C86F11"/><path d="M12.48 30.22c-.32.22-1.02.12-1.33.04-.09-.01-.24.01-.14.2.11.24 1.31.4 1.6.25.28-.13.4-.18.6-.04.2.14.68.47.8.33.1-.13-.35-.74-.58-.91-.22-.18-.55-.13-.95.13Z" fill="#FFDA97"/><path d="M16.23 25.53c-.5.36-.87 1.48-.86 1.54.3-.59.47-.67.7-.91.22-.24 1.24-.63 1.24-.8 0-.17-.57-.2-1.08.17Z" fill="#FFD8B3"/><path d="M18.23 27.37c.09.84-1.08 1.99-1.14 2.02.44.24.8-.21 1.26-.93.37-.58.07-.97-.12-1.09Z" fill="#FFD493"/><path d="M15.9 27.4c-.07.4.26 1.06.43 1.34 0 .03.03.06.12 0 .12-.08.19-1.6.28-1.81.09-.2.35-.65.62-.67.26-.01.66.52.74.4.08-.12-.34-.83-.87-.86-.53-.03-1.24 1.08-1.33 1.6Z" fill="#DB6C27"/><path d="M18.58 28.57c.42-.78.07-1.97-.16-2.47.25.16.73 1.05.65 2.1a2.18 2.18 0 0 1-1.49 1.85 1.2 1.2 0 0 1-1.08-.2c.3-.02 1.56-.31 2.08-1.28Z" fill="#DD6D26"/><path d="M15.78 33.28c.38-.15.4-2.11.36-3.07.83-.08.16 3.48-.36 3.48-.41 0-.49-.47-.48-.7 0 .16.11.44.48.29Z" fill="#DE7927"/><path d="M20 26.83c-.2.03-.26.32-.27.46.03.04.14.13.4.23.33.12.4-.11.42-.35.02-.24-.29-.38-.55-.34Z" fill="#FFE1AB"/><path d="M22.61 27.2c-.13 0-.17.2-.17.28.02.03.09.08.25.15.2.07.25-.07.26-.22.02-.15-.18-.24-.34-.22Z" fill="#FFBF6C"/><path d="M21.4 26.68c-.2 0-.39.4-.46.58.05.06.21.16.42.11.26-.06.5-.46.56-.62.05-.16-.27-.08-.52-.07Z" fill="#FFE1AB"/><path d="M20.48 30.28c-.14.49-.4.37-.5.24 0 .22.07.63.35.56.34-.08.84-1.95.84-2.07 0-.12.13-.68-.1-.7-.25-.02-.43 1.36-.6 1.97ZM22.03 30c-.13.39-.39.3-.5.2 0 .17.07.5.35.45.35-.07.84-1.58.84-1.68 0-.1.14-.54-.1-.56-.24-.01-.43 1.1-.6 1.59ZM23.87 30.57c.04.42-.23.44-.37.4.08.16.28.43.5.26.29-.22.1-1.8.07-1.89-.04-.08-.11-.55-.33-.45-.22.09.07 1.17.13 1.68Z" fill="#C86B26"/><path d="M28.21 28.8c.72-1.46.61-2.2.47-2.4-.95 2.15-2.91 6.5-3.14 6.74-.29.3-.05.4.29.24.34-.16 1.48-2.77 2.38-4.58Z" fill="#EB751B"/><path d="M28.63 26.34c.06.43-.76 1.97-1.18 2.68-.41.23-.3-.34-.08-.73.22-.39 1.19-2.5 1.26-1.95Z" fill="#FFBF6C"/><path d="M26.86 30.35c.06.44-.76 1.98-1.18 2.7-.42.22-.3-.35-.09-.74.23-.39 1.2-2.5 1.27-1.96ZM29.8 24.88c-.41 0-.37-.2-.3-.3.41-.17 1.62-.65 3.2-1.13 1.99-.6 2.33-.4 2.27-.23-.06.18-4.64 1.65-5.16 1.66Z" fill="#FFE1AB"/><path d="M30.3 32c-.5.03-.57-.35-.62-.38l3.9-1.1c.96-.3 1.03-.04 1.04.28.01.33-.28.18-.86.2-.57 0-2.95.97-3.45 1ZM30.44 25.17c-.55.08-.66-.3-.72-.33l4.22-1.42c1.05-.37 1.15-.13 1.18.2.04.32-.3.2-.93.25-.64.06-3.2 1.22-3.75 1.3Z" fill="#EB751B"/><path d="M32.8 30.29c-.12.7-.57.7-.62.76v-5.63c-.01-1.4.3-1.44.66-1.36.36.07.1.43-.07 1.22-.17.8.16 4.3.04 5Z" fill="#EB751B"/><path d="M31.5 30.6c-.65-.02-1.83.9-1.87.94 0 .43 1.69-.31 2.22-.6.54-.27.31-.31-.34-.34ZM34.27 30.16c-.36-.23-1.47.2-1.51.22-.2.37 1.11.27 1.55.2.44-.07.33-.18-.04-.42Z" fill="#FFBF6C"/><path d="M36.59 30.67c-.2 0-.34-.41-.39-.62.48.4.65-1.84.8-2.46.14-.62.57-.8.89-.79.31.02.48.65.43.65-.05 0-.3-.22-.68-.12-.37.1-.8 3.34-1.05 3.34Z" fill="#EB751B"/><path d="M39 29.99c-.24-.03-.35-.4-.38-.58.83.54.37-1.46.27-1.74-.11-.28-.1-.67 0-.6.1.06.53 1.09.5 1.65-.02.56-.1 1.3-.4 1.27Z" fill="#DE6E22"/><path d="M36.25 25.93c-.18.02-.2.34-.2.5.2-.01.58-.07.62-.2.04-.17-.2-.32-.42-.3ZM37.42 26.04c-.2.18.02.53.15.68.2-.17.6-.56.53-.73-.07-.2-.44-.16-.68.05ZM43.15 22.23c-.17-.02-.33.29-.39.44 0 .23 0 .7.1.79.12.12.5-.74.57-.9.06-.17-.06-.3-.28-.33Z" fill="#F7D6B5"/><path d="M42.48 26.35c.36-.07.1-.88.1-.94-.03.15-.13.46-.25.55-.15.11-.47-.05-1.1.19-.62.24-1.1 2-1.05 2.14.06.12.29-.44.68-1.2.4-.76 1.27-.67 1.62-.74Z" fill="#FFD8B1"/><path d="M41.17 31.61c-.5-.03-1.02-.92-1.22-1.37.21.25.78.76 1.33.88.68.15 1.58-.56 1.89-.88.24-.25.14-1.29.06-1.78.1.49.32 1.52.35 1.78.03.34-.02.68-.23.78-.22.09-.5-.1-.63-.14-.13-.04-.94.76-1.55.73Z" fill="#CE5D35"/><path d="M41.94 30.97c-.34.11-.86-.1-1.08-.23h.93c.49 0 .72-.27.96-.57.25-.3.11-1.57.24-1.77.12-.2.17 1.38.15 1.68-.01.3-.77.76-1.2.9ZM44.8 27.54c-.19.12-.17.35-.13.45a.26.26 0 0 0 0 .2c.04.1.5-.32.5-.59-.02-.27-.14-.22-.37-.06Z" fill="#FFCC6B"/><path d="M44.32 30.67c.09-.28.27-1.64.36-2.28a.9.9 0 0 1 .31-.13c.17-.03.02 1.35-.06 1.86-.09.5-.41 1.19-.61 1.22-.2.04-.11-.32 0-.67Z" fill="#FFC285"/><path d="M44.65 31.03c.12-.36.42-2.13.56-2.96.06-.04.2-.13.36-.15.19-.03-.07 1.76-.2 2.42-.13.67-.55 1.54-.77 1.57-.22.03-.1-.43.05-.88Z" fill="#DA7628"/><path d="M47.25 27.61c-.24.04-.49-.33-.58-.52.18-.03.65-.14 1.02-.28.47-.18.63-.57 1.4-.67.76-.09.57.69.43.85-.13.17-.2-.28-.77-.37-.57-.08-1.19.94-1.5 1Z" fill="#D66928"/><path d="M49.13 28.37c.41-.26.49-.74.48-.96.01-.01.01-.08-.1-.21-.13-.17-.56.56-.7.67-.12.1-.8.61-1.13.82-.32.2-.46.65-.27.66.2 0 1.2-.67 1.72-.98Z" fill="#FFC285"/><path d="M49.92 30.01a3 3 0 0 1-1.06.26c-.1-.06-.3-.13-.36.04-.07.22.72.34.96.31.23-.02.77-.4.75-.58-.02-.18-.1-.2-.3-.03Z" fill="#FFDB9E"/></svg>