<svg width="56" height="56" viewBox="0 0 56 56" xmlns="http://www.w3.org/2000/svg"><path fill="#F0F3FA" d="M0 0h56v56H0z"/><path d="M28 42.4a14.4 14.4 0 1 0 .02-28.8A14.4 14.4 0 0 0 28 42.4Z" fill="#fff"/><path d="M28 42c-7.94 0-14-6.06-14-14s6.06-14 14-14 14 6.06 14 14-6.06 14-14 14Zm18-12.83v-.02c0-.27-.2-.34-.48-.43-.5-.16-1.2-.23-1.4-.61 0-.52-.02-1.04-.07-1.54.15-.42.87-.56 1.35-.77.3-.12.5-.22.43-.55l-.33-1.64c-.08-.33-.3-.34-.62-.34-.52 0-1.22.15-1.53-.15-.15-.49-.33-.96-.53-1.43 0-.45.65-.81 1.05-1.16.25-.21.4-.36.24-.65l-.83-1.46c-.17-.3-.38-.24-.69-.13-.5.16-1.13.52-1.51.31-.3-.4-.6-.78-.92-1.16-.17-.43.35-.98.63-1.45.17-.28.27-.47.02-.7l-1.24-1.13c-.25-.22-.43-.1-.7.1-.42.3-.9.85-1.34.76-.4-.29-.8-.56-1.23-.82-.29-.36.03-1.04.15-1.57.07-.32.11-.53-.2-.67l-1.52-.7c-.31-.13-.44.04-.63.3-.31.43-.61 1.1-1.05 1.15-.46-.15-.93-.28-1.4-.39-.4-.24-.32-1-.36-1.55-.03-.32-.06-.54-.4-.58L29.24 10a.7.7 0 0 0-.07 0h-.01c-.27 0-.34.2-.43.48-.16.5-.24 1.24-.65 1.42-.49 0-.97.02-1.45.06-.45-.11-.6-.86-.81-1.37-.13-.3-.22-.5-.55-.43l-1.65.34c-.33.07-.34.29-.34.61 0 .53.16 1.25-.17 1.55-.47.15-.94.32-1.4.52-.45 0-.82-.64-1.17-1.05-.21-.25-.36-.4-.65-.24l-1.46.83c-.3.17-.24.38-.13.69.16.5.52 1.12.32 1.5-.41.3-.8.61-1.18.94-.43.14-.98-.36-1.44-.64-.27-.17-.46-.27-.7-.02l-1.13 1.24c-.22.25-.1.43.1.7.3.4.82.89.76 1.31-.3.42-.59.84-.85 1.29-.37.24-1.03-.06-1.54-.18-.32-.08-.53-.12-.67.19l-.7 1.53c-.13.3.04.44.3.63.42.3 1.05.59 1.14 1-.16.5-.3 1-.42 1.51-.28.34-1 .26-1.51.3-.32.03-.54.06-.58.4L10 26.76c-.03.34.17.41.48.5.49.16 1.17.24 1.4.6-.01.54 0 1.07.05 1.6-.17.38-.86.53-1.33.73-.3.12-.5.22-.43.55l.33 1.64c.08.33.3.34.62.34.5 0 1.16-.14 1.49.12.16.52.35 1.02.56 1.52-.05.42-.66.76-1.04 1.1-.25.21-.4.36-.24.65l.83 1.46c.17.3.38.24.68.13.48-.15 1.07-.48 1.46-.34.31.44.65.86 1 1.27.08.42-.39.93-.65 1.37-.17.27-.27.47-.02.7l1.24 1.13c.25.22.43.1.7-.1.39-.28.84-.78 1.25-.77.44.33.9.63 1.37.91.2.38-.09 1-.2 1.49-.08.32-.12.53.19.67l1.53.7c.3.13.44-.04.63-.3.29-.4.57-1 .96-1.13.52.17 1.05.32 1.59.44.3.3.22.98.26 1.48.03.32.06.54.4.58l1.66.19c.34.03.41-.17.5-.48.16-.47.24-1.14.57-1.37.56 0 1.1-.02 1.65-.07.37.19.51.86.7 1.32.13.3.23.5.56.43l1.64-.33c.33-.08.34-.3.34-.62 0-.49-.14-1.15.11-1.48.52-.16 1.04-.35 1.54-.57.41.06.76.66 1.09 1.04.21.25.36.4.65.24l1.46-.83c.3-.17.24-.38.13-.69-.15-.47-.49-1.06-.34-1.45.44-.31.86-.65 1.26-1 .42-.09.94.38 1.38.65.27.17.47.27.7.02l1.13-1.24c.22-.25.1-.43-.1-.7-.29-.4-.8-.86-.77-1.28.32-.42.61-.87.89-1.33.37-.21 1.01.07 1.51.2.32.07.53.1.67-.2l.7-1.53c.13-.3-.04-.44-.3-.63-.41-.3-1.05-.59-1.14-1 .16-.5.3-1 .42-1.51.28-.34 1-.26 1.51-.3.32-.03.54-.06.58-.4l.19-1.66a.8.8 0 0 0 0-.06Z" fill="#EEB600"/><path d="M28 41a13 13 0 1 0 .01-25.99A13 13 0 0 0 28 41Z" fill="#193273"/><path d="M27.22 15.12v.47H24.6l2.62-.47ZM15.64 24.46h6.85c.88 0 .61.33.68.66.1.45-.74.4-.85.28-.27-.27-.47-.4-.47-.4H15.5l.15-.54ZM15.94 23.53H23v.46h-7.22l.16-.46ZM16.34 22.53H23V23h-6.85l.19-.47ZM16.81 21.66H23v.46h-6.43l.24-.46ZM17.41 20.72h5.78v.47H17.1l.3-.47ZM18.1 19.79h4.92v.47h-5.27l.35-.47ZM18.96 18.86h4.06v.46H18.5l.45-.46ZM20.02 17.92h7.27v.47h-7.83l.56-.47ZM21.36 17h5.93v.45h-6.65l.72-.45ZM23.23 16h4.04v.5h-5.08l1.04-.5ZM28.66 15.12v.47h2.72l-2.72-.47ZM40.36 24.46h-6.54c-.88 0-.6.33-.68.66-.1.45.74.4.86.28.27-.27.46-.4.46-.4h6.05l-.15-.54ZM40.05 23.53h-6.92v.46h7.08l-.16-.46ZM39.66 22.53h-6.54V23h6.74l-.2-.47ZM39.18 21.66h-6.06v.46h6.3l-.24-.46ZM38.59 20.72h-5.7v.47h6.01l-.31-.47ZM37.88 19.79h-4.72v.47h5.09l-.37-.47ZM37.03 18.86h-3.9v.46h4.35l-.45-.46ZM35.99 17.92h-7.05l1.24.47h6.35l-.54-.47ZM34.64 17h-5.99v.45h6.7l-.71-.45ZM32.75 16h-4.13v.52h5.17L32.75 16ZM20.02 26.44s.03-.44.3-.44h1.35c.12 0 .4.2.33.67v5.47c0 .33.27.18.27.18s.74-.8 1.8 0c.2.15.25.23.3.3.27.41.55-.07.55-.07.32-.34 1.34-1.03 2.54.05 0 0 .6.41.54 1.48v4.31s.01.6-.33.6h-1.2s-.5.01-.47-.53v-3.91s.06-.56-.53-.55c-.36 0-.47.37-.47.51v3.96c0 .37-.3.53-.56.53h-.98c-.33 0-.46-.22-.46-.53v-3.69s.09-.79-.47-.79c-.33 0-.41 0-.53.63v3.85a.89.89 0 0 1-.08.34c-.2.31-1.16.16-1.43-.13-.09-.09-.27-.1-.49-.44l.02-11.8ZM35.72 26h-1.4c-.33 0-.32.33-.32.33v5.83s0 .39-.21.26A3.1 3.1 0 0 0 32.2 32a3.28 3.28 0 0 0-3.2 3.35c0 1.85 1.43 3.66 3.2 3.66.6 0 1.62-.46 1.62-.46l.5.4c.26.21.98-.1 1.67-.83V26.33s.03-.33-.28-.33Z" fill="#EEB600"/><path d="M32.78 33.6a1.76 1.76 0 1 0 0 3.52 1.76 1.76 0 0 0 0-3.52Z" fill="#193273"/><path d="M22.54 31.18v.46h4.55a4.3 4.3 0 0 1-.95-.46h-3.6ZM25.17 30.24h-2.63v.47h3.1c-.16-.15-.32-.3-.47-.47ZM22.54 29.3v.47h2.12a8.93 8.93 0 0 1-.35-.46h-1.77ZM22.54 28.37v.47h1.47l-.27-.47h-1.2ZM22.54 27.44v.47h.96l-.21-.47h-.75ZM22.47 26.5v.47h.62a7.69 7.69 0 0 1-.16-.46h-.46ZM33.44 31.18v.46h-4.66c.34-.11.66-.27.96-.46h3.7ZM30.81 30.24h2.63v.47h-3.1c.16-.15.32-.3.47-.47ZM33.44 29.3v.47h-2.2c.13-.15.25-.3.36-.46h1.84ZM33.44 28.37v.47h-1.47l.27-.47h1.2ZM33.44 27.44v.47h-.96l.21-.47h.75ZM33.52 26.5v.47h-.71l.19-.46h.52Z" fill="#EEB600"/><path d="m28 19.26 5.36 2.86s.3 2.76-.3 4.7c-.66 2.2-2.7 4.77-5.06 5.05v-12.6ZM25.4 24.66h-.58v-1.07h.59v1.07Zm.1-1.66h-2.22v.59H24v1.1s-.68-.05-.56.47c.06.3.1 1.08.73 1.23.29.06.45-.07.53-.27v-.9h.57v1.77H26v-3.4h.3v3.4l.71.01v-3.42h.33V23H25.5Z" fill="#EEB600"/><path d="M31.48 24.45c-.13.37-.53.17-1.24.17-.36 0-.39.43.1.43.73 0 1.36.2 1.3.94-.05.51-.18.67-.53.88-.33.2-1.2.17-1.7-.11a1.67 1.67 0 0 1-.57-.57l.36-.4s.73.88 1.25.57c.43-.26.28-.71-.31-.74-1.09-.05-1.33-.3-1.11-1.2.13-.54 1.43-.35 1.43-.35v-.5H29V23h4.02v.57h-.34V27H32v-3.43h-.52v.88Z" fill="#193273"/><path d="M32.6 22.5s-1.13 1.2-2.25-.1v-.14s.08-.2.23-.2c.16 0 .66.72 1.49.26l.05-.03.02-.01.08-.03.38.24Z" fill="#193273"/><path d="M23 22v-1.74l-.52-.34v-1.55H27v-3.25h2v2.8l.88.51-.02 1.88-1.9-1.05L23 22Z" fill="#EEB600"/><path d="M28.02 19.28v-1.64l1.87.83h3.95v1.75l-.66.14v1.75l-5.16-2.83Z" fill="#193273"/><path d="M33.26 22.24 28 19.32v-1.8l1.9.87H34v1.89l-.74.15v1.81Zm-.16-.26V20.3l.66-.14v-1.62h-3.9l-1.76-.78v1.47l5 2.75Z" fill="#193273"/></svg>