<svg width="56" height="56" xmlns="http://www.w3.org/2000/svg"><path fill="#F37920" d="M0 0h56v56H0z"/><path d="M24.918 9l4.271 3.547c1.553 1.306 2.006 3.049 2.006 4.853 0 4.293-4.594 6.347-6.212 9.956-.453.995-.777 2.177-.647 3.297.065.436.323 2.178.841 2.303 4.012.87 7.248-1.805 6.018-6.098-.323-1.182-.517-1.68-1.1-2.365h.26l4.27 3.61c.777.933 1.36 1.617 1.36 2.8.258 3.422-2.719 6.097-5.89 6.097-1.423 0-2.653-.498-3.494-1.182l-4.854-4.107C20.324 30.53 20 29.098 20 27.293c0-4.044 3.43-6.409 4.983-9.893.647-1.431.841-2.8.841-4.356 0-1.244 0-2.862-.906-3.857V9z" fill="#fff"/><path d="M35.139 39.97S39.63 43.893 40 44.21l-.246.063c-1.292-1.139-2.892-1.645-4.739-1.708-1.723-.063-3.323.38-4.923 1.012-.738.253-1.415.57-2.153.822-1.047.443-2.216.696-3.324.57-1.723-.19-3.323-1.519-4.676-2.784L16 38.706l.246-.063c2.339 1.328 4.43 1.96 7.262 1.58 1.107-.126 5.169-2.15 6.338-2.213.739 0 1.539-.063 2.216.127 1.415.442 2.03 1.012 3.077 1.834z" fill="#003974"/></svg>