<svg width="56" height="56" xmlns="http://www.w3.org/2000/svg"><path fill="#51AD32" d="M0 0h56v56H0z"/><circle cx="28" cy="28" r="16" fill="#fff"/><path d="M25.313 16.276c9.08 2.24 12.011 15.803 7.796 22.333-1.127 1.743-2.794 3.547-5.113 4.391-6.313-1.65-9.143-8.91-5.147-16.704 2.136-4.152 3.833-8.032 2.464-10.02z" fill="#0069B3"/><path d="M26.826 30c4.108 1.047 5.718 7.81 3.591 10.86-.573.824-1.337 1.729-2.433 2.14-2.98-.805-4.366-4.342-2.48-8.14 1.009-2.023 1.97-3.891 1.322-4.86z" fill="#fff"/><path d="M44 28c0-8.813-7.189-16-16-16-8.814 0-16 7.187-16 16 0 8.813 7.186 16 16 16 8.811 0 16-7.188 16-16zm-1 0c0 8.114-6.815 15-15 15h-.002C19.738 43 13 36.215 13 28c0-8.246 6.768-15 14.998-15H28c8.359 0 15 6.64 15 15z" fill="#F8AF00"/></svg>