<svg xmlns="http://www.w3.org/2000/svg" width="56" height="56"><path fill="#F0F3FA" d="M0 0h56v56H0z"/><path d="M26.02 27.32c.3-2.63-2.8-6.68-5.73-7.72-1.26-.45-2.85-.66-3.89.42-.9.94-.42 2.2.13 3.25.46.88.12 1.26-.72 1.6-.84.33-1.66.74-2.43 1.2-1.52.91-2.78 2.32-2.26 4 2.23 7.16 14.76-1.56 14.9-2.75" fill="#E86B0E"/><path d="M32.02 25.6c-1.33.84-1.66 1.96-1.08 3.4.39.96 4.08 8.87 9.1 5.2 2.8-2.05-.44-4.29-.67-4.43-.78-.48-.77-.78.1-1.24 1.66-.87 6.93-4.47 3.25-6.38-2.44-1.27-9.13 2.45-10.7 3.45" fill="#FDB630"/><path d="M29.08 15.27c-.4-.88-1.47-4.64-3.41-4.08-1.7.48-2.93 5.87 1.8 13.43 1.01 1.63 2.34 1.53 3.4-.08 2-3.04 5.31-12.35 3.34-15.2-1.3-1.87-4.28 4.54-5.13 5.93" fill="#45A1C4"/><path d="M25.09 37.91c-1.34 1.55-4.86 6.54-6.43 4.21-3.95-5.86 9.29-14.58 10.32-13.04 3.95 5.53 1.66 16.12-1.45 17.66-3.79 1.87-2.73-6.8-2.44-8.83z" fill="#8AB71B"/></svg>