<svg width="56" height="56" viewBox="0 0 56 56" xmlns="http://www.w3.org/2000/svg"><path fill="#3D2023" d="M0 0h56v56H0z"/><path fill-rule="evenodd" d="M43.63 36.24c1.88-3.91-3.6-10.55-12.23-14.83-8.64-4.28-17.16-4.57-19.03-.65-1.88 3.91 3.6 10.55 12.23 14.83 8.64 4.28 17.16 4.57 19.03.65Zm-4.23-2.09c1.37-2.86-2.62-7.7-8.92-10.82s-12.52-3.34-13.88-.48c-1.37 2.86 2.62 7.7 8.92 10.82s12.52 3.34 13.88.48Z" fill="#8D3515"/><path d="m12.2 23.86 4.18.82c-.11-.67-.05-1.28.22-1.83.13-.28.32-.54.54-.76l-3.95-2.44c-.35.32-.62.69-.82 1.1a4.42 4.42 0 0 0-.17 3.11Z" fill="#A43F1A"/><path d="m15.7 29.32 2.12-1.62c-1.08-1.43-1.62-2.83-1.47-4L12 22.43c0 2.03 1.36 4.48 3.7 6.88Z" fill="#FFFF7F"/><path d="M10.57 29C8.1 29 6.5 28.23 6 27.73 6.97 29.6 9.62 33 12.5 33c4.74 0 7.22-7 8.97-7 .53 0 .53.85.53 1.73 0 .89-.86 3.77-2 5.27 4.22-2.65 7.78-5.62 11.3-5.62 1.22 0 1.7.8 1.7 1.5 0 2.2-6.01 4.23-9 5.12 12.5 0 13-6.8 13-7.68 0-.88 0-3.8-3.95-3.8-3.16 0-7.52 3.48-9.31 5.21.53-1.9 1.23-5.73-.88-5.73-3.42 0-5.88 7-12.3 7Z" fill="#FAFAFA"/><path fill-rule="evenodd" d="M36.8 33.18c1.65 1.67 5.31.7 8.19-2.15 2.87-2.86 3.86-6.54 2.21-8.21-1.65-1.67-5.31-.7-8.19 2.15-2.87 2.86-3.86 6.54-2.21 8.21Zm1.6-2.59c.82.84 2.66.35 4.1-1.08 1.43-1.43 1.93-3.26 1.1-4.1-.82-.84-2.66-.35-4.1 1.08-1.43 1.43-1.93 3.26-1.1 4.1Z" fill="url(#a)"/><defs><linearGradient id="a" x1="48.06" y1="24.56" x2="35.94" y2="30.5" gradientUnits="userSpaceOnUse"><stop stop-color="#FFFFF7"/><stop offset="1" stop-color="#FCEE51"/></linearGradient></defs></svg>