<svg xmlns="http://www.w3.org/2000/svg" width="56" height="56"><path fill="#FBB031" d="M0 0h56v56H0z"/><circle cx="9" cy="27" r="5" fill="url(#aphab1id2)"/><path d="M7 29.68V30h1.7v-.32h-.27c-.3 0-.37-.35-.37-.52l.22-2.24L9.53 30h.25l1.31-3.08.19 2.38c0 .23-.09.38-.25.38h-.27V30h1.86v-.32h-.17c-.32 0-.42-.31-.43-.47-.06-.86-.2-2.64-.2-2.91a.34.34 0 01.27-.38h.24v-.33H11.2l-1.34 3.16-1.3-3.16H7.23v.33h.34c.37.05.34.3.32.48-.06.7-.19 2.22-.26 2.7-.07.49-.3.59-.4.58H7z" fill="#393636"/><path fill-rule="evenodd" d="M14.63 30a1.68 1.68 0 100-3.35 1.68 1.68 0 000 3.35zm0-.3c.6 0 1.1-.61 1.1-1.37 0-.76-.5-1.38-1.1-1.38-.6 0-1.09.62-1.09 1.38 0 .76.5 1.38 1.1 1.38zm21.47.3a2.33 2.33 0 100-4.67 2.33 2.33 0 000 4.67zm0-.4c.84 0 1.52-.87 1.52-1.93s-.68-1.92-1.51-1.92c-.84 0-1.52.86-1.52 1.92s.68 1.92 1.52 1.92z" fill="#393636"/><path d="M17.1 26.57h-.28v.95h.29v-.16c0-.2.2-.24.3-.23h.55v2.28c-.01.2-.13.25-.18.25h-.27V30h1.47v-.34h-.18c-.17 0-.22-.17-.23-.25v-2.28h.56c.23 0 .3.13.31.2v.19h.3v-.95h-.3c0 .14-.16.19-.24.2h-1.85c-.18-.03-.24-.14-.24-.2zm4.58.19h-1.44v.33h.16c.2 0 .23.18.23.26v2.08c0 .19-.1.24-.16.24h-.23V30h1.44v-.33h-.24c-.13-.02-.18-.17-.18-.24v-2.08c0-.2.12-.25.18-.26h.24v-.33zm2.11 0h-1.44v.33h.16c.19 0 .23.18.23.26v2.08c0 .19-.11.24-.17.24h-.22V30h2.42l.25-1h-.3s-.16.67-.47.67h-.7c-.14-.02-.18-.17-.19-.24v-2.08c0-.2.12-.25.18-.26h.25v-.33zm6.54 0H28.9v.33h.17c.18 0 .23.18.22.26v2.08c0 .19-.1.24-.16.24h-.23V30h2.43l.25-1h-.3s-.16.67-.47.67h-.71c-.13-.02-.17-.17-.18-.24v-2.08c0-.2.12-.25.18-.26h.24v-.33zm20.43 0h-1.44v.33h.17c.19 0 .23.18.23.26v2.08c0 .19-.12.24-.17.24h-.23V30h2.43l.25-1h-.3s-.16.67-.47.67h-.7c-.14-.02-.18-.17-.19-.24v-2.08c0-.2.12-.25.18-.26h.24v-.33zM25.46 30v-.32h.16c.03 0 .13-.03.18-.18l.94-2.8h.44l.95 2.8c.02.06.09.18.2.18h.13V30h-1.22v-.32h.2c.06 0 .16-.07.06-.25l-.26-.7h-.77l-.24.77c-.03.06-.05.18.08.18h.16V30h-1.01zm1.41-2.46l-.29.8h.56l-.27-.8zM46 30v-.32h.16c.04 0 .13-.03.18-.18l.94-2.8h.45l.94 2.8c.02.06.1.18.2.18H49V30h-1.22v-.32h.2c.06 0 .17-.07.07-.25l-.27-.7h-.77l-.24.77c-.02.06-.05.18.08.18h.16V30H46zm1.42-2.46l-.3.8h.56l-.26-.8zm-6.58-.93v.94h-.32c0-.49-.37-.6-.55-.6-.14.03-.42.15-.45.41-.03.27.27.42.45.53.94.59 1.03.83 1.03 1.12 0 .78-.62 1-1.03 1-.3 0-.55-.1-.64-.16V30H39v-1h.33c0 .54.39.65.64.65s.48-.14.51-.43c.03-.23-.15-.35-.3-.45-.42-.3-1.18-.66-1.18-1.22 0-.73.64-.94.97-.94.26 0 .48.09.55.13v-.13h.32zm1.97.1H41.5v.33c.28 0 .42.21.45.31l.98 2.65h.21l.73-1.98.75 1.98h.23l.98-2.7c.1-.2.33-.26.44-.26v-.33h-1.1v.33c.33 0 .32.21.27.31l-.6 1.55-.5-1.3c-.24-.5-.03-.56.18-.56v-.33h-1.29v.33c.48 0 .47.37.41.56l-.5 1.3-.57-1.55c-.12-.18 0-.28.06-.3h.18v-.34zM52 31.25H7v-.5h45v.5z" fill="#393636"/><path d="M50.83 34L52 32H29l21.83 2z" fill="#EC3132"/><defs><linearGradient id="aphab1id2" x1="13.08" y1="23.51" x2="4.86" y2="29.58" gradientUnits="userSpaceOnUse"><stop stop-color="#FFFCBE"/><stop offset=".17" stop-color="#FEFFEC"/><stop offset=".35" stop-color="#F6ED7C"/><stop offset=".63" stop-color="#FDF31C"/><stop offset=".87" stop-color="#FCBB29"/><stop offset="1" stop-color="#FFE410"/></linearGradient></defs></svg>