<svg width="56" height="56" xmlns="http://www.w3.org/2000/svg"><path fill="#ED1C23" d="M0 0h56v56H0z"/><path d="M20.898 42.497l9.1.013s.396.01.7.295l-.004-.295 4.714-.004.005 1.356-.86.746-.46.017-.568.52-.01.84-13.12.015v-1.276l.69-.003.333-.71-.523-.532.003-.982z" fill="#000"/><path d="M21.216 42.85l2.255-.01.432 1.184.47-1.174 5.603-.005s.728.041.703.767c0 0 .11.694-.461.89l-.332.058.545.489h1.197v-1.558l-.514-.003-.005-.625 3.96.007.006 1.03-.843-.003-.01-.392-1.619.002v.47l1.2.006-.004.613-1.197.009-.006.46h.565v.62h-3.373l-1.307-1.089-.57-.004-.005.473h.456l.003.647-3.329.004v-.65l.404.003-.524-1.17-.76 1.801-.738.002-.57-1.691-.522 1.03.43.005.001.63-2.038-.004v-.607h.562l.76-1.605h-.831v-.61h.006z" fill="#fff"/><path d="M30.89 44.13s-.07.357-.381.521c0 0 .173.147.173.176h.493v-.69l-.285-.007z" fill="#fff"/><path d="M25.795 43.48h1.242v1.585l-.577-.001-.665-1.584z" fill="#000"/><path d="M26.42 44.108l.335.006.005.683s-.05.015-.075 0a.369.369 0 01-.04-.093l-.226-.596z" fill="#fff"/><path d="M33.047 14.726a.017.017 0 00.01.008c-.01-.017-.017-.017-.01-.008zM14.535 21.62l-.004.002.004-.003zm21.768-7.488s-.015.007-.025.015a.28.28 0 01.025-.015zM27.91 43.46v.514l1.58.005s.267-.059.237-.268c0 0 .03-.184-.257-.248l-1.56-.003z" fill="#000"/><path d="M22.824 42.192s-.032-2.99-.86-5.147c0 0-1.563-2.56-1.808-2.99l-.645-2.715-1.503-2.836-.153-1.11-.554-.432s-1.379-.863-1.686-2.436l-.95-1.049-.031-.555.183-.338v-.37l.091-.276-.061-.31.337-.554s.073-3.21 1.148-5.339h.246l.367-.833.153-.246.34-.154.212-.493.368-.276.337-.032.032-.215.522-.37.368.09.061-.339.674-.431h.4l.093-.216.704-.34.306.124.123-.247.92-.308.336.124.062-.248.92-.215.55.277.123-.433.92-.184.369.431.091-.461 1.042-.062.214.247.246-.061v-.216l1.225-.03.031.463h.338l-.032-.463 1.259.093.091.432.46-.34 1.04.186.065.4.306-.308.889.184.214.463.368-.278.766.246.246.402.338-.124.765.277.183.402.277-.186.613.338.183.341.215-.032.643.4.186.4.245-.062.306.31.122.463s.154-.123.307-.032c0 0 .43.278.49.925 0 0 .032-.062.155-.062 0 0 .276.154.398.833l.186.062.428 1.448.246.71s.446 1.36.263 4.475c0 0 .52.03.154 1.324 0 0-.121.863-.92 1.233l-.154.03s.216.124.091.371l-.276.308s-.123.463-.367.555l-.37.4-.674.246-.276-.062-.093 1.602-.737 1.728-.062 1.079-.366.924-.369 1.574-.55 1.356-.492 1.171-1.073 1.542-.582 1.604-.644 2.097-1.87.154-.828.277-.337-.154-2.791-.092-4.836-.059z" fill="#fff"/><path fill-rule="evenodd" d="M19.048 23.194c3.002-2.776 9.187-2.746 9.187-2.746 7.508.266 9.34 3.213 9.337 3.21-.334.124-.416.488-.416.488-.121.247-.153.803-.153.803-.062.956-.52 1.542-.52 1.542-.155.4-.71 1.48-.71 1.48-2.377 1.372-5.817 1.444-5.817 1.444-.46-.184-.611-.186-.611-.186-.173-.035-.302-.078-.41-.113a1.406 1.406 0 00-.285-.074 1.246 1.246 0 01-.437.038 1.556 1.556 0 00-.164-.006c-.272.007-.42.008-.42.008-.62-.14-.883.228-.883.228-2.971.03-5.725-1.4-5.891-1.488.145.523.132.882.132.882-.014 1.11.492 1.249.492 1.249.382.293 1.133 1.064 1.133 1.064.506.833 1.012 2.667 1.012 2.667l.537.34c.259.26.904.461.904.461.353.1.85 1.109.85 1.109.044.053.354.011.354.011a.187.187 0 00.218-.184l.045-.415c.092-.59-.091-.787-.091-.787-.093-.347-.35-.246-.35-.246-.217-.045-.353-.262-.353-.262-.057-.105-.161-.497-.161-.497-.172-.422.083-.68.083-.68.098-.198.055-.327.055-.327.012-.035-.081-.323-.081-.323-.092-.233-.023-.405-.023-.405l.116-.53c-.023-.186.206-.66.206-.66.077-.136.402-.325.402-.325a.576.576 0 00.336-.313c.259-.378.362-.344.362-.344.15-.068-.03.127-.03.127-.092.08-.322.404-.322.404-.08.023-.011.197-.011.197-.128.16-.012.208-.012.208.16-.011.229-.172.229-.172-.021-.151.011-.222.011-.222.06-.138.23-.184.23-.184.08-.15.162-.277.162-.277.295-.172.492-.127.492-.127.198.128.267.046.267.046.194-.01.253.128.253.128.171.161.137 0 .137 0 .057-.036-.07-.151-.07-.151a2.727 2.727 0 00-.207-.174l.218.023.357.209c.161.174.174.093.174.093.287-.024.4.058.4.058.162.15.128-.023.128-.023.02-.046-.025-.1-.058-.14-.025-.03-.043-.052-.024-.057.046-.01.146.035.146.035.05.047.069.128.069.128.177.167.216.236.216.236.078.157-.059.376-.059.376l-.083-.07c0-.1-.214-.193-.214-.193a1.024 1.024 0 00-.362-.184c-.092-.046-.354-.024-.354-.024a.744.744 0 01-.183-.03c-.084-.03-.184-.007-.184-.007-.03-.016-.39.023-.39.023-.375.026-.507.2-.507.2-.013.155-.16.387-.16.387l-.009.184c.169-.096.43-.026.43-.026l.22-.017c-.005.214-.166.102-.166.102-.136.132-.39.075-.39.075-.032.016-.155.029-.155.029a2.421 2.421 0 01-.345.261c-.061.24-.123.276-.123.276-.123.093-.116.28-.116.28.054.117.023.363.023.363-.056.341.162.47.162.47a.377.377 0 01.257.264l.003.313-.053.012c-.016-.138-.193-.28-.193-.28-.233-.142-.16.109-.16.109.021.059.107.36.107.36-.006.296.215.363.215.363.174.107.422.03.422.03.207-.097.366-.138.366-.138.053.001.076-.036.113-.094a.967.967 0 01.074-.107c.092-.116.213-.062.213-.062.168.048.775.08 1.006.062.121-.01.074.115.074.115-.007.07.047.148.047.148.103.066.276.23.276.23.14.146-.045.285-.045.285-.164.144-.039.153-.016.144.023-.007.367-.045.367-.045.246.038.285-.185.285-.185.062-.022.093-.462.093-.462.106-.469.053-.686.053-.686-.074-.085-.044-.269-.044-.269a.815.815 0 00-.039-.57c.046-.185.023-.215.009-.233-.005-.006-.009-.012-.009-.021 0-.039-.114-.409-.114-.409-.025-.2-.3-.724-.3-.724a.301.301 0 00-.034-.09c.056.02.193.072.4.167 0 0 .277.255.254.37 0 0 .139.462.116.53l-.116.626s0 .556.034.613c0 0 .05.052.116.086.128.046.222.1.195.133 0 0 .058.036.07.451 0 0 .011.219-.103.393 0 0-.013.289-.209.335 0 0-.027.063-.309-.004 0 0-.16.085-.104.732 0 0 .035.764.08.844l.081.325s.46-.069.839-.046l.566.05s.273-.362.376-.396c0 0 .207-.146.645-.222l.55-.335s.175-.058.152-.404c0 0 .023-.37.23-.936 0 0 .172-.521.172-.579 0-.026.057-.152.123-.298.079-.175.17-.377.19-.466 0 0 .251-.427.458-.612 0 0 .334-.197.45-.44 0 0 .276-.115.334-.925 0 0 .115-.981.149-1.075 0 0 .012-.069.139-.335 0 0 .137-.29.206-.44 0 0 .071-.459.38-.821 0 0 .31-.74.436-.925 0 0 .3-.672.38-.808 0 0 .104-.741.185-.88 0 0 .02-.566.09-.625 0 0-.047-.116.15-.208 0 0 .172-.207.355-.267 0 0 .035-.218.543-.115 0 0 .722.06.78.081 0 0 .461.122.782.047 0 0 .379 0 .539-.092 0 0 .149-.034.426-.415 0 0 .137-.37.333-.393 0 0 .286.12.31.293l-.035.136s.046.043.069.16c0 0 .011.156-.016.244 0 0-.013.32-.059.433 0 0-.057.233-.158.325 0 0 .02.21-.15.405 0 0-.064.301-.358.533 0 0-.31.105-.358.162 0 0-.828.427-1.414.276 0 0-.355.023-.345.186 0 0-.183 1.103-.206 1.549 0 0-.036 1.519-.138 1.536 0 0-.743 1.96-.679 1.896 0 0-.057.578-.034.647 0 0-.288.706-.334.869 0 0-.091.588-.196.762 0 0-.23 1.064-.264 1.248 0 0-.255.707-.655 1.352l-.002.007c-.18.649-.285 1.025-1.01 2.029 0 0-.576.59-.69 1.12 0 0-.012.3-.196.624l-.206.475s-.082.486-.175.672c0 0-.067.289-.16.45 0 0-.114.601-.136.672-.023.069-.011.172-.011.172l-.462.01s.15-.228.207-.576c0 0 .093-.383.173-.615 0 0 .103-.38.082-.473-.018-.068.047-.207.11-.341.022-.046.044-.092.061-.133 0 0 .242-.347.266-.521 0 0 .126-.266.183-.716 0 0 .16-.382.345-.648 0 0 .1-.213.197-.253 0 0 .736-.926 1.056-1.746 0 0 .186-.6.472-.994 0 0 .24-.302.31-.67 0 0 .125-.174.125-.486 0 0 .117-.728.163-.764l.056-.38-.086-.21c-.033-.154.074-.323.074-.323.063-.094.186-.665.186-.665l.153-.217.153.155.032-.57c.006-.242.114-.4.114-.4-.141-.244.1-.616.1-.616.248-.617.537-1.142.537-1.142l.043-.583c.04-.145.037-.38.023-.608a3.644 3.644 0 00-.017-.177c-.012-.103-.021-.183-.003-.206.153-.338.188-.785.208-1.031.005-.065.009-.115.013-.147.052-.327.138-.58.138-.58.041-.19.138-.564.403-.704.046-.027.094-.042.145-.058.033-.01.067-.021.102-.035.086.054.19-.034.19-.034.012-.254.195-.15.195-.15.186.068.34-.146.34-.146.298-.056 1.026-.416 1.026-.416.032-.136.25-.484.25-.484.27-.527-.155-.324-.155-.324l-.254.364c-.293.424-.516.365-.516.365-.61.142-.886.089-1.099.049a1.606 1.606 0 00-.11-.02c-1-.15-1.142-.086-1.142-.086-.338.12-.115.26-.115.26.123.155.056.196.056.196l-.114.051-.08.094-.052.4c-.169.255-.395 1.19-.395 1.19-.03.323.07.227.07.227.063-.048.222-.275.222-.275l-.047.338c-.062.154-.324.956-.324.956-.075.4-.444 1.017-.444 1.017l-.045-.293c-.045-.186-.153-.124-.153-.124-.061.076-.293.649-.293.649-.122.384.077.414.077.414.23.155.2.294.2.294l-.154.677c-.091.17-.215.417-.215.417-.107.062-.244-.062-.244-.062l-.072.215c.079.138-.06.555-.06.555-.031.553-.2.523-.2.523l-.215-.43-.506.478c-.46.277-.475.709-.475.709-.199.818-.475 1.17-.475 1.17-.199.094-.214.356-.214.356.214.54.184.633.184.633-.061.092-.123.292-.123.292-.2.493-.49.663-.49.663a.424.424 0 00-.092-.248c-.121 0-.596.248-.596.248-.23.077-.23.2-.23.2l-.217.495c-.25.24-.014.337-.014.337s.033-.03.245.139c.21.166.257.352.214.37-.046.015-.515-.224-.515-.224-.69-.185-.605-.53-.605-.53.09-.156.015-.218.015-.218-.138-.057-.368-.062-.368-.062s-.187-.008-.343-.002c-.155.004-.607.079-.607.079-.475.168-.415-.032-.415-.032s.05.019.155-.083c.103-.104.029-.219.046-.179-.06.026-.109-.864-.109-.864-.156-.432 0-.863 0-.863a.499.499 0 00-.259.06c-.202.15-.277-.076-.277-.076-.23-.186-.628-.108-.628-.108-.398-.032-.398.23-.398.23a.436.436 0 00.083.591s.006.064-.116.166l-.004.071c-.013.258-.016.302-.037.315l-.016.005a.13.13 0 00-.027.009c-.076.036-.146-.161-.146-.161l-.046-.389c-.111-.297-.167-.02-.167-.02-.093.23 0 .54 0 .54.106.277.224.568.224.568.073.057.092.484.043.456a.45.45 0 01-.176-.177c-.186-.355-.246-.402-.246-.402-.117-.287-.169-.453-.169-.453a1.282 1.282 0 00-.183-.625c-.138-.276-.286-.032-.286-.032-.098 1.013-.011 1.053-.011 1.053.46.323.542.598.542.598.505.245.492.425.492.425-.09-.03-.6-.164-.6-.164a6.36 6.36 0 01-.456-.33c-.403-.38-.492-.365-.492-.365-.091-.016-.415-.016-.415-.016-.198.014-.117.168-.117.168s.072.07.073.114c.002.043-.159 0-.159 0l-.271-.128c.054-.206-.138-.493-.138-.493-.276-.786-.92-.894-.92-.894-.384-.17-.952-.617-.952-.617a7.944 7.944 0 00-.29-.153l.045-.215a2.867 2.867 0 01-.2-.509c-.243-.847-.902-2.005-.902-2.005.063-.108-.721-.76-1.135-1.095-.358-.289-.381-.667-.393-.864-.002-.03-.003-.056-.006-.076a77.399 77.399 0 01-.091-1.078c.061-.323-.505-1.11-.505-1.11-.155-.308-.49-1.001-.49-1.001-.231-.417-.553-2.145-.553-2.145 0-.215-.23-.312-.23-.312s.09-.12.137-.136l.004-.002.013-.004-.01-.029zm1.789 4.566a4.17 4.17 0 00-.242-.626c.109.198.2.413.242.626zm7.46.398s6.652.283 8.01-2.827c0 0 1.158-3.485-7.98-4.244 0 0-7.567-.249-8.18 3.265 0 0-.59 3.224 8.15 3.806zm-5.902-5.774c.955-.548 1.279-.444 1.279-.444 1.937 1.195 4.899.983 4.973.978h.001c2.49.088 4.028-.83 4.028-.83 1.218.417 1.46.565 1.46.565.278.155.072.38.072.38-1.085 1.832-5.68 1.977-5.68 1.977-4.79-.1-6.14-2.088-6.14-2.088-.139-.208-.086-.43-.086-.43l.093-.108zm-.354.048s-1.692 1.736 1.276 3.007c0 0 1.6 1.016 5.21 1.016 0 0 3.862.16 5.565-1.204 0 0 1.586-.993.575-2.289 0 0 2.275 1.004.505 2.9 0 0-1.535 1.602-6.684 1.641 0 0-5.872-.285-7.357-2.144 0 0-1.642-1.564.91-2.927zm3.414 19.603c-.07-.097-.107-.256.052-.55l-.362-.242-.142.12-.184.184s-.132.112-.209.138c-.112.066-.286.03-.193-.345l.047-.272c.02-.1.029-.183.035-.254.005-.047.008-.089.015-.127.024-.038.041-.079.058-.12a.453.453 0 01.121-.19s-.19-.234-.442-.094l-.11.063s-.156-.053-.3-.262a2.8 2.8 0 01-.056-.116c-.03-.061-.064-.133-.103-.206 0 0 .081-.147.108-.364 0 0 .059-.259.23-.023 0 0 .095.142.22.292.017.04.127.139.234.236l.042.037c.022.02.043.04.062.06.05.049.09.089.12.086 0 0 .06.015.116-.002.013.006.02-.058.028-.13l.001-.01.003-.024c.01-.067.019-.134-.004-.147 0 0-.139-.136-.318-.23l-.062-.047c-.157-.118-.325-.245-.351-.324 0 0 .057-.263.05-.543a3.41 3.41 0 01.146-.652l.299-.974.028-.051-.01-.07-.058-.03s-.063.04-.11.134c-.033.151-.096.276-.138.29 0 0-.093.08-.126-.385a6.3 6.3 0 00-.285-.782c-.073-.173-.137-.324-.175-.47l.03-.352s-.15-.057-.272.353c0 0-.046.079-.132.208-.114.108-.177.301-.183.474 0 0 .125.706.14.911 0 0 .062.313-.145.33-.023-.009-.105-.063-.156-.284 0 0-.065-.317-.145-.49-.069-.272-.14-.52-.172-.63l-.01-.04s.096-.754-.583-1.337c0 0-.54-.642-.855-1.104a.46.46 0 00-.095-.175.52.52 0 01-.067-.103s-.336-.254-.44-.425c-.275-.325-.312-.38-.387-.494 0 0-.23-1.376-.472-1.967l-.133-.403-.011-.12s.104-.174.277.185l.088.146.077.207.097.116s.134-.25.077-.383c0 0-.196-.12-.209-.27 0 0-.135-.435-.24-.492 0 0-.32-.133-.413-.436 0 0-.162.374-.392-.08 0 0-.066-.195-.066-.483 0 0 .112-.106.219.173.025.026.05.049.077.073.046.041.094.084.143.144 0 0 .093-.01.017-.2a.977.977 0 01.02-.17s-.287-.858-.32-.888c0 0-.06-.354-.12-.5 0 0-.116-.464-.23-.481 0 0-.032.372-.009.487 0 0 .016.117.036.193l.018.063c.017.054.027.087.009.121 0 0 .028.295-.132-.013l-.134-.63s-.075-.128-.059-.289a3.726 3.726 0 00-.032-.133.696.696 0 01-.037-.21l.094-.03c.169.145.215.136.262.127a.132.132 0 01.066 0s-.144-.243-.158-.74a3.849 3.849 0 00-.217-.755c-.044-.122-.085-.235-.114-.339-.037-.133-.038-.276-.038-.276s0-.15.176-.18l.003-.53s-.052-.235-.295-.202c0 0-.891.124-1.801-.477 0 0-.169.138-.26.138 0 0-.1.016-.14-.046-.14-.088-.392-.31-.586-.48a5.979 5.979 0 00-.21-.183s-.036-.045-.07-.131l-.027-.074c-.05-.134-.104-.281-.133-.257 0 0-.031-.124.091-.393l.162-.116-.023-.278-.246.31-.146.245s-.03.179.039.433c0 0-.192.084-.105.462 0 0-.005.06-.223.51 0 0 .086.435.132.552 0 0 .263.287.488.55.108.114.195.198.26.261.073.071.118.115.136.145 0 0 .998.115 1.412.07 0 0 .093.061.319.097.131.09.268.262.334.585 0 0 .302.714.256 3.074 0 0 .033.423.388.938 0 0 .855 1.48 1.113 1.969 0 0 .093.211.108.352l.053.187c.099.349.223.786.3 1.154 0 0 .145.889.324 1.264 0 0 .744 1.234.99 1.689 0 0 .593.97.804 1.288 0 0 .094.366.176.816.06.323.118.68.168.985.039.234.072.435.096.564 0 0 .296 1.696.32 1.907.043.34.031.591.026.7v.02l2.893.004s.02-.058-.148-.115zm-9.607-18.517c-.093.015-.23-.207-.23-.207-.231-.278-.43-.37-.43-.37-.207-.039-.191-.115-.191-.115-.016-.04-.07-.249-.07-.249-.076-.262.115-.122.115-.122l.093.069c.085.03.23.198.23.198.078.055.354.317.354.317.243.17.252.37.252.37.007.2-.123.109-.123.109zm6.114 12.37s-.328-.468-.369-.555l-.31-.451s-.063-.213.132-.133c0 0 .254.173.437.474 0 0 .15.126.156.226 0 0 .092.266.056.335 0 0 .049.221-.102.105zm1.631 2.938s-.104-.328-.104-.45c0 0-.016-.139.012-.301 0 0 .03-.151.075-.186 0 0 .023-.074.034-.156 0 0 .04-.193.139-.295 0 0 .029-.389.196-.215 0 0 .103.098.074.422 0 0-.023.474-.034.497 0 0-.093.311-.189.45l-.046.157s-.1.167-.157.077zm6.98-5.543c-.097-.07-.164.007-.164.007-.175.069-.026.217-.026.217.07.066.018.157.018.157.046.172.132.128.132.128.097 0 .097-.128.097-.128.036-.04.047-.207.047-.207.063-.156-.104-.174-.104-.174zm-4.473.519l.136-.08c.119-.11.023-.185.023-.185.015-.072-.12-.079-.212-.083h-.014a.709.709 0 01-.06-.013c-.187-.029-.093.116-.093.116.084.092.093.18.093.18.037.08.127.065.127.065zm.082-.998s-.039.254.094.352c0 0 .075.011.046-.135 0 0-.03-.304-.14-.217zm15.236-8.826c.044-.094.044-.293.044-.293.078-.278-.107-.045-.107-.045l-.076.124c0 .14-.309.54-.309.54-.31.073-.426.306-.426.306-.091.031-.415.094-.415.094-.322.246.082.205.082.205.122 0 .55-.219.55-.219a.273.273 0 00.38-.157c.011-.123.214-.355.214-.355.077-.078.063-.2.063-.2zm-12.53 6.321s-.051.05.046.11c0 0 .07.08.087.05 0 0 .12.03.087.04 0 0 .216-.056.379-.045 0 0 .136.013.154.052 0 0 .05.005.007-.033 0 0-.07-.088-.168-.14 0 0 .025-.05-.24-.04l-.2.006s-.012-.047-.088 0h-.064zm-.691.242c-.131.023-.07.12-.07.12.024 0 .006.128.006.128a.304.304 0 00-.062.097c-.058.075-.108.126-.108.126-.166.122-.144.265-.144.265.074.126.258.126.258.126.133.018.185-.04.185-.04a.543.543 0 01.097-.04.3.3 0 00.114-.057c.042-.039.035-.068.026-.103a.972.972 0 00-.045-.181c.012-.063-.04-.056-.04-.056-.085-.04-.072.029-.072.029-.028-.029-.13.128-.13.128-.082.126.045.126.045.126.112.011-.024.063-.024.063-.126.035-.224-.08-.224-.08-.103-.056.028-.213.028-.213s.121-.097.143-.104c.023-.006.174-.11.134-.21v-.002c0-.02.002-.142-.117-.122zm-.121 1.283s-.136.007-.146.03c-.012.023-.178-.078.061-.155 0 0 .052.043.268-.149 0 0 .106-.145.269-.083.108.102.266.039.266.039s.094-.075.176-.02a.472.472 0 00.051.048c.032.028.068.058.103.109l.12.11s.052.09-.044.127c-.116-.092-.185-.144-.259-.151l-.392-.012s-.12-.005-.069.11c0 0 .075.185.265.155.029 0 .27.092.223.105-.063.032-.28.056-.568.046-.289-.007-.324-.31-.324-.31zm.656-.873c-.091.076-.05.326-.05.326a.691.691 0 01.199.044l.003.001-.003-.001c-.002-.002.002-.008.031-.023.044-.024.041-.038.041-.038-.108-.36-.221-.309-.221-.309zm-1.373.146c.084-.028.291-.018.291-.018l-.017-.04c-.024-.075-.15-.052-.15-.052-.104-.011-.131-.029-.131-.029-.099-.063.027-.114.027-.114.053-.07.178.063.178.063.12.046.189-.023.189-.023.104-.104.15-.046.15-.046.103.08.113.046.113.046-.021-.195-.2-.26-.2-.26-.193-.097-.297-.021-.297-.021a.474.474 0 00-.39.213c-.234.207-.188.218-.188.218-.061.058-.006.14-.006.14.048.039.023.076.012.093-.007.009-.008.011.011.003.052-.023.171-.056.171-.056.082-.01.12-.04.154-.068a.257.257 0 01.083-.049zm2.26-.197a.41.41 0 00-.286-.264.452.452 0 00-.41.04c.023.085.028.142.028.142.138.243.207.281.207.281.073.012.095-.038.095-.038.046-.08.103-.076.103-.076.127-.028.127-.011.127-.011.004-.05.066.002.121.049.029.024.055.046.072.053.051.023-.056-.176-.056-.176zm-.537.028c-.053-.063.018-.091.018-.091.073-.041.051.051.051.051l.034.04c-.038.034-.103 0-.103 0z" fill="#000"/><path d="M15.144 21.022l-.005.051 2.997 1.86c9.215-6.264 17.067-2.223 20.403.637l2.658-.636c.3-3.115-.475-6.115-.899-7.225-6.551-8.798-18.332-5.844-23.154-1.655-1.53 1.329-1.84 5.055-2 6.968z" fill="#262626"/><path d="M24.712 10.445l-.726.176.205.653-.377.807.172.61-.357.657.357.975.205.838.214.873-.34.786.331.524-.582 1.3-.084 1.73.675-.075.22-1.747.49-1.208c-.062-.048-.187-.22-.187-.524 0-.378.298-.698.298-.786 0-.07-.199-.543-.298-.771h.55c.163.393.224.917.163 1.208-.061.291-.117.422 0 .8.093.303.039.476 0 .525-.175.223-.526.75-.526 1.077 0 .326.074.96.11 1.237h.96c.049-.412.144-1.301.144-1.558 0-.32.528-.756.528-1.004 0-.247-.141-.335-.153-.655-.009-.256.199-.68.304-.859l-.21-.873h.56c.13.204.192.699.192.873 0 .175-.261.553-.32.786-.058.233.129.393.129.801 0 .408-.502.626-.502 1.106 0 .384.1 1.082.151 1.383h.972c.054-.412.174-1.301.22-1.558.059-.32.354-.45.354-.756s-.073-.67-.085-.903c-.012-.233.234-.35.234-.626 0-.221-.1-.761-.149-1.004h.535c.076.228.23.73.23.917 0 .233-.23.51-.23.713 0 .204.163.364.163.728s-.467.626-.479 1.106c-.01.384.152 1.082.234 1.383h.924v-1.383c.144-.16.43-.553.43-.844 0-.364-.057-.51-.057-.83 0-.32.234-.364.234-.655 0-.233-.097-.8-.175-1.019l.525.064c.129.073.246.737.222.955-.023.219-.187.451-.222.655-.035.204.095.422.095.83s-.457.51-.445.99c.009.384.097 1.11.14 1.426l.98.075V19.15c.303-.407.434-.586.434-.819 0-.151-.208-.559-.307-.709.08-.184.252-.629.307-.932.056-.302-.146-.868-.313-1.086l.737.155c.047.184.14.629.14.931 0 .379-.116.408-.14.786-.017.272.152.319.14.653-.011.335-.245.774-.326 1.021-.065.198-.027.9 0 1.225l.63.091-.1-1.212.356-1.125-.256-.784.256-.655-.462-1.736-.37-1.187.33-.643-.198-.668.444-.726.075-1.14s-.351-.097-.705-.183v1.258c-.121.244-.364.767-.364.903 0 .17.126.3.126.556 0 .255-.224.452-.21.643.011.152.21.58.308.774h-.526c-.122-.206-.366-.65-.373-.774-.01-.155.258-.418.267-.643.01-.226-.19-.358-.2-.556-.008-.159.277-.752.42-1.029l-.15-1.284s-.55-.09-.959-.137v1.157c0 .106-.402.657-.43.807-.029.149.124.41.124.61 0 .198-.268.431-.268.657 0 .18.179.646.268.856h-.411c-.13-.21-.392-.674-.392-.856 0-.227.306-.48.306-.781 0-.123-.24-.183-.24-.486 0-.304.421-.412.421-.807 0-.316-.109-1.03-.14-1.231 0 0-.505-.04-1.046-.04 0 0 .008.958 0 1.271-.01.392-.299.372-.353.74-.055.37.054.388.054.676 0 .288-.275.466-.275.658 0 .154.183.54.275.713h-.451c-.117-.192-.354-.625-.363-.82-.011-.245.286-.374.297-.55.01-.178-.187-.124-.187-.453 0-.33.429-.644.429-.964 0-.255-.127-1.27-.127-1.27-.687.039-.995.066-.995.066.003.297.008 1.12 0 1.204-.011.106-.496.69-.529.807-.033.116.21.363.198.61-.01.246-.34.328-.34.55 0 .177.16.62.241.82h-.429c-.106-.162-.315-.553-.297-.82.022-.335.275-.455.297-.674.022-.22-.176-.33-.176-.486 0-.126.242-.66.363-.912v-1.03l-.966.137-.105.996-.489.964.126.63-.347.707.221.63h-.379l-.363-.964.363-.55-.158-.61.316-.807v-.829zm-3.06.93l.74-.246.2.534-.2.824-.74.159.185-.698-.185-.573zm-.912 10.034l-.738.46-.2-.999.2-1.543.739-.299-.185 1.307.185 1.074zm-.922-9.21l.494-.22.174.356-.083.582-.5.16.08-.495-.165-.383zm2.935 8.357l-.709.59-.25-.955.12-1.566.717-.429-.116 1.328.238 1.032zm12.185-9.288l-.739-.258-.2.56.2.866.74.168-.185-.733.184-.603zm.912 10.542l.739.484.2-1.05-.2-1.621-.74-.314.186 1.372-.185 1.129zm.923-9.581l-.494-.231-.174.373.083.612.5.168-.081-.52.166-.402zm-2.936 8.685l.71.62.25-1.003-.12-1.646-.718-.45.117 1.395-.239 1.084z" fill="#fff"/></svg>