<svg width="56" height="56" viewBox="0 0 56 56" xmlns="http://www.w3.org/2000/svg"><path fill="#F0F3FA" d="M0 0h56v56H0z"/><path d="M12.48 33.27c-1.76-.1-1.94-1.72-1.81-2.52l22.06 2.13 17.03-1.33c.86 2.64-.81 3.4-1.76 3.45l-35.52-1.73ZM17.37 22.29c-.88-2-2.9-3.4-5.25-3.4a5.68 5.68 0 0 0-5.32 7.7c-.5-.85-.8-1.84-.8-2.9C6 20.55 8.58 18 11.77 18c2.7 0 4.96 1.82 5.6 4.29Z" fill="#F58220"/><path fill-rule="evenodd" d="M9 21.95v6.02c0 .26.2.76.95.76.32 0 .73-.28.9-.42L14 26.22v-5.4L12.28 20l-2.99 1.67c-.1.06-.29.19-.29.28Zm4.56-1.09-1.34-.6-2.59 1.5c-.25.17-.52.5-.14.9.3.3.91.2 1.18.1l2.9-1.9Zm.11 5.12v-4.84l-1.08.72-.16.9-.43-.51-1 .65v4.93l1-.7v-2.86l-.73.4v-.93l2-1.09v.9l-.62.35v2.78l1.02-.7Z" fill="#0D51A0"/><path d="M10.6 30.13v.4c0 1.14.92 2.06 2.07 2.08l35.25.6c.63-.12 1.86-.68 1.8-1.9l-.7-6.1c-.07-.66-.7-1.94-2.68-1.8l-28.61 1.58a5.79 5.79 0 0 1-7.13 5.14Z" fill="#0D51A0"/><path d="m22.31 27-.23.73H23V30h1v-2.27h1.08l-.3-.73H22.3ZM18 27v3h1v-1.74l.7.79.81-.8v1.76h.99v-3h-.99l-.81.95-.67-.95H18Zm8 3v-3h2.06l.33.7H27v.46h1.26l-.31.63H27v.52h1.48l-.26.69H26Zm3-2v2h1.26c.59-.09 1.77-.57 1.77-1.82 0-.82-.7-1.13-1.06-1.18h-1.8l-.28.7h1.8c.17.06.5.2.5.6 0 .5-.64.97-.93.97H30V28h-1Zm3.57.83c0-.8.45-1.55.67-1.83h.92c-.23.4-.7 1.3-.7 1.67 0 .38.39.57.59.62h.45V27h1v3h-1.94c-.33-.13-.99-.56-.99-1.17ZM38.1 27l.32.69h-.82c-.23.02-.6.16-.6.58 0 .52.4.91 1.35 1.08l-.33.65c-.68-.02-2.02-.4-2.02-1.73 0-.91.79-1.23 1.18-1.27h.92Zm1.21 3.54.69-.52a1.79 1.79 0 0 1-.42-.91h.92V30h1v-2h-1v.37h-.84c.18-.42.58-.63.8-.67h1.1l-.3-.7h-.7c-.65 0-1.77.68-1.77 1.8 0 .88.35 1.53.52 1.74Zm2.52-2.87h1.73c.08 0 .2 0 .2.2 0 .18-.44.49-.76.68V28h-1v2h1v-1.19l1.3 1.69.78-.64-1.09-1.14c.3-.13.88-.5.88-.93 0-.53-.6-.79-1.28-.79h-1.57l-.2.67ZM45.5 30v-3h2.14l.22.66h-1.45v.49h1.23l-.27.67h-.96v.53H48l-.36.65H45.5Z" fill="#F0F3FA"/></svg>