<svg width="56" height="56" viewBox="0 0 56 56" xmlns="http://www.w3.org/2000/svg"><path fill="#0052A1" d="M0 0h56v56H0z"/><path d="M21.79 18.64c0-1.58 1.3-2.86 2.9-2.86 1.47 0 2.69 1.1 2.87 2.5A2.41 2.41 0 0 0 25.5 17c-1.38 0-2.5 1.33-2.5 2.97V25h.7v-5.03c0-1.19.8-2.15 1.8-2.15s1.8.96 1.8 2.15v.33c-.23-.19-.5-.3-.8-.3-.83 0-1.5.87-1.5 1.94V25h.6v-3.06c0-.64.4-1.16.9-1.16.35 0 .66.26.8.64V25h1.4v-3.58c.14-.38.45-.64.8-.64.5 0 .9.52.9 1.16V25h.6v-3.06c0-1.07-.67-1.94-1.5-1.94-.3 0-.57.11-.8.3v-.33c0-1.19.8-2.15 1.8-2.15s1.8.96 1.8 2.15V25h.7v-5.03c0-1.64-1.12-2.97-2.5-2.97-.85 0-1.6.5-2.06 1.28a2.88 2.88 0 0 1 2.88-2.5c1.6 0 2.9 1.28 2.9 2.86V25H35v-6.36a3.69 3.69 0 0 0-7-1.59A3.69 3.69 0 0 0 24.68 15 3.66 3.66 0 0 0 21 18.64V25h.79v-6.36ZM32 36l3.43-6h2.14L41 36h-1.97l-.57-1h-3.18l.7-1.25h1.77l-1.25-2.18L33.97 36H32ZM17 36l3.43-6h2.14L26 36h-1.97l-.57-1h-3.18l.7-1.25h1.77l-1.25-2.18L18.97 36H17ZM47 30h-2v4.5h-4l.91 1.5H46c.56 0 1.01-.47 1.01-1.04V30ZM32 30h-2v4.5h-4l.91 1.5H31c.56 0 1.01-.47 1.01-1.04V30ZM11 30H9v6h2v-4.57h3.57s.44 0 .44.45c0 .35-.3.46-.44.47h-2.49l-.9 1.25h3.39c.24 0 .44.08.44.63 0 .43-.3.6-.44.62h-2.49l-.9 1.15h4.2c.86 0 1.62-.42 1.62-1.46 0-.84-.69-1.34-1.03-1.49a1.4 1.4 0 0 0 1.03-1.4c0-1.2-1.26-1.6-1.9-1.65H11Z" fill="#fff"/></svg>