<svg width="56" height="56" viewBox="0 0 56 56" xmlns="http://www.w3.org/2000/svg"><path fill="#F0F3FA" d="M0 0h56v56H0z"/><path d="M35.24 13.68c.1.44.06.7-.1.78a13.72 13.72 0 0 0-6.6-1.72c-5.75 0-10.14 2.53-13.17 7.56l-.49-.32a52.63 52.63 0 0 1 2.66-3.27c.8-.85 1.94-1.73 3.42-2.66.49-.3 1.04-.45 1.56-.68.09-.05.16-.11.2-.2.09-.2.24-.27.46-.22.13.02.25 0 .36-.05.17-.08.23-.18.17-.32a16.25 16.25 0 0 1 11.53 1.1Z" fill="#024E73"/><path d="M23.7 12.58c.07.14.01.24-.16.32a.56.56 0 0 1-.36.05c-.22-.05-.37.02-.46.21-.04.1-.11.16-.2.2-.52.24-1.07.39-1.56.7-1.48.92-2.62 1.8-3.42 2.65-.48.5-1.36 1.59-2.66 3.27a.92.92 0 0 1-.5-.48c-.03-.2-.02-.34.12-.5a89.58 89.58 0 0 1 2.29-2.5 14.95 14.95 0 0 1 6.92-3.92ZM35.24 13.68c2.7 1.42 4.89 3.33 6.56 5.75-.32.43-.68.72-1.09.85l-.86-1.3a14.49 14.49 0 0 0-4.7-4.52c.15-.08.18-.34.09-.78Z" fill="#047AA3"/><path d="M29.46 17.63c-.08.12-.13.23-.17.36-.04.17-.1.28-.16.32-.16.12-.37.1-.63-.06.02-.17-.02-.25-.12-.25-2.36.15-4.63.89-6.8 2.23a11.99 11.99 0 0 1 2.78-1.94c1.65-.62 3.35-.84 5.1-.66Z" fill="#171918"/><path d="M29.46 17.63c1.28.1 2.64.43 3.69 1.21.33.26.69.5 1.06.73a9.05 9.05 0 0 1 2.82 2.89c.1.15.17.14.24-.03.07-.16.18-.29.33-.39.1-.06.2-.08.31-.04l1.21.39c0 1.3 0 2.62.02 3.93.01 1.25.1 2.49.24 3.72.14 1.23.3 2.47.46 3.7v.43c0 .13-.05.22-.17.27-.84.4-1.53.25-2.07-.43-.07-.1-.15-.1-.22 0l-1.42 1.83-.34.22c-.37.25-.73.51-1.05.8a11.06 11.06 0 0 1-7.78 2.47c-.21 0-.58-.08-1.1-.22a3.56 3.56 0 0 0-1.2-.13c-.4-.32-.81-.5-1.25-.52a28.9 28.9 0 0 0-1.44-.96 6.02 6.02 0 0 1-2.24-2.23c-.21-.42-.45-.85-.72-1.28-.09-.15-.19-.15-.3-.01-.52.67-1.3.84-2.33.49l.36-3.3c.04-.6.1-1.18.18-1.72.03-.25.1-.26.18-.03.03.07.04.15.02.23-.02.15.05.22.2.2.1 0 .19-.1.25-.25.23-.01.41-.06.57-.14.1-.06.16-.16.15-.28-.03-.79.06-1.58.27-2.37.04-.16-.02-.22-.18-.18a.77.77 0 0 1-.41 0c-.43-.12-.43-.24 0-.35.19-.05.48-.07.87-.08.14.06.28.1.42.1.08.15.01.26-.22.32s-.32.2-.27.43c.05.27.2.4.44.38.12-.01.18-.07.2-.18.97-4.17 3.36-6.62 7.18-7.36a7.87 7.87 0 0 1 6.56 1.7c.05.09.03.15-.06.18-.26-.1-.5-.25-.72-.42a6.07 6.07 0 0 0-4.17-1.07c-.45.06-.9.09-1.35.07-.29 0-.78.15-1.48.48-1.26.76-2.48 1.7-3.65 2.84A6.43 6.43 0 0 0 20 26.85c-.3 1.8 0 4.73 1.28 6.35.6.91 1.3 1.6 2.07 2.1.4.24.37.33-.1.26-.15-.02-.4-.1-.73-.23a9.12 9.12 0 0 1-3.14-5.06c.06-.14.04-.24-.05-.28.07-.66-.13-1-.58-1.01-.13 0-.21.05-.25.17-.05.17-.05.36 0 .57.02.13-.09.25-.32.36a.6.6 0 0 0-.47.05c-.54-.17-.83-.11-.86.17a.2.2 0 0 0 .08.18c.17.13.36.19.58.17.12-.01.21.03.29.11.13.16.27.25.44.27.08 0 .1.03.07.1-.15.23-.18.48-.08.77 1.03 2.92 3.06 5 6.1 6.23 1.1.45 2.25.64 3.46.59.56-.03.8-.3.7-.83 0-.07.08-.27.27-.6.19-.17.38-.3.58-.38.2 0 .31.07.31.22-.23.1-.38.25-.45.44-.05.12 0 .18.11.2l.75.1c-.27.07-.48.22-.62.43a.75.75 0 0 1-.54.34c-.1 0-.1.05-.03.1.04.04.09.05.14.04a10.93 10.93 0 0 0 8.22-5.96.33.33 0 0 0 .03-.18.38.38 0 0 0-.08-.2c.36-.54.44-1.05.26-1.53-.08-.3-.27-.38-.56-.28a.17.17 0 0 1-.21-.07.18.18 0 0 1 .03-.23c.06-.05.15-.1.3-.16.15.17.31.2.47.08.12-.08.19-.2.2-.35.04-.48.04-.96 0-1.44a.46.46 0 0 1 .09-.33c.21-.28.31-.54.3-.76a9.99 9.99 0 0 0-2.48-5.9 4.22 4.22 0 0 0-1.28-1.2c-1.3-1-2.78-1.69-4.44-2.06a.32.32 0 0 0-.31.1c-.2.2-.22.52-.08.94-.18.08-.34.13-.49.15a.29.29 0 0 1-.3-.15l-.14-.23c-.1-.01-.19-.08-.25-.2l.22-.57c.26.16.47.18.63.06.06-.04.12-.15.16-.32.03-.13.09-.24.17-.36Z" fill="#020303"/><path d="m28.5 18.25-.22.56c-.45.16-.92.19-1.4.09-.03-.01-.06 0-.07.05-.01.04 0 .07.04.08.54.2 1.22.7 1.68 0l.15.22c.07.12.16.16.3.15.14-.02.3-.07.48-.15.76-.1 1.47 0 2.1.3.06.02.11.06.15.11.05.07.05.13.02.18-.08.11-.06.2.05.27l1 .62c.06.04.12.03.15-.05l.07-.13c.06-.13.15-.17.28-.1.06.02.1.07.1.14a.9.9 0 0 0 .1.74 1 1 0 0 1 .17.37c.02.18-.05.23-.2.14l-.47-.26a7.87 7.87 0 0 0-6.56-1.69c-3.82.74-6.21 3.19-7.17 7.36-.03.1-.1.17-.2.18-.25.02-.4-.1-.45-.38-.05-.23.04-.37.27-.43s.3-.17.22-.33l.05-.15c.03-.09.01-.16-.06-.22a.29.29 0 0 0-.15-.07l.03-.26 1.64-3.23c-.13-.1-.21-.2-.24-.27-.03-.09-.09-.12-.18-.1a.5.5 0 0 0-.27.15.65.65 0 0 0-.1.3c-.06.27-.21.43-.46.47 0-.12-.02-.22-.08-.29a7.9 7.9 0 0 1 2.31-2.39 14.49 14.49 0 0 1 6.8-2.23c.1 0 .14.08.12.25Z" fill="#0F8DB6"/><path d="M34.29 20.27c.01.33-.05.52-.2.58-.08.03-.2 0-.36-.1a2.11 2.11 0 0 0-.34-.16c-.02-.07-.05-.12-.11-.15-.13-.06-.22-.02-.28.1l-.07.14c-.03.08-.09.1-.15.05l-1-.62c-.1-.07-.13-.16-.05-.27.03-.05.03-.11-.02-.18a.36.36 0 0 0-.14-.11 3.94 3.94 0 0 0-2.11-.3c-.14-.42-.11-.74.08-.94a.33.33 0 0 1 .3-.1c1.67.37 3.15 1.06 4.45 2.06Z" fill="#265B67"/><path d="M28.28 18.81c.06.13.15.2.25.21-.46.71-1.14.22-1.68.01-.04-.01-.05-.04-.04-.08.01-.04.04-.06.08-.05.47.1.94.07 1.39-.09Z" fill="#171918"/><path d="M14.37 19.5c.14.25.3.4.51.48l.49.32-.63 1.9c-.07.23 0 .41.2.55a5.9 5.9 0 0 0-1.76 2.56 1.5 1.5 0 0 0-.03 1c-.03-.15-.06-.12-.07.1 0 .03-.02.04-.05.04h-.16a.11.11 0 0 1-.13-.05 17.7 17.7 0 0 1 1.37-5.97c.03-.08.04-.16.03-.22-.03-.1-.1-.16-.2-.18.05-.25.2-.43.43-.53ZM41.8 19.43c.36.37.53.75.5 1.16l1.31 3.98c.04.1.05.22.02.33-.1.48-.1.94.03 1.4.04.17-.02.26-.17.3a.82.82 0 0 0-.1.03.53.53 0 0 0-.3.36c-.07.25-.19.47-.36.66-.09.1-.12.2-.11.33l.01.24.03 1.9c-1.27.41-1.68-.43-2.24-1.42-.06-.1-.13-.11-.22-.02-.28.28-.4.59-.34.91-.11.55-.15 1-.12 1.36l.2 2.51c-.02.15-.06.25-.1.28-.16-1.23-.32-2.47-.46-3.7a34.48 34.48 0 0 1-.24-3.72l-.02-3.93c.02-.07.11-.08.27-.03.01.27.24.4.67.4.21 0 .23.06.06.19a1.7 1.7 0 0 1-.4.2.37.37 0 0 0-.24.3c-.15.82-.12 1.65.09 2.51.04.17.14.26.32.26.09 0 .15-.03.19-.12.32-.74.36-1.47.12-2.16a.27.27 0 0 1 0-.16c.01-.05.04-.1.08-.13.12-.1.34-.15.66-.14.6.58 1.07 1.34 1.41 2.26a.54.54 0 0 0 .4.33l.11.02a.15.15 0 0 0 .17-.2c-.32-.95-.74-1.85-1.24-2.7a.33.33 0 0 0-.23-.16.97.97 0 0 1-.52-.3c.16-.02.25-.14.26-.36a.89.89 0 0 0-.09-.4 7.5 7.5 0 0 1-.5-1.72c.4-.14.77-.42 1.09-.85Z" fill="#C6D3DB"/><path d="M13.93 20.03c.1.02.18.08.2.18.02.06.01.14-.03.23a17.7 17.7 0 0 0-1.26 3.86 7.1 7.1 0 0 0-.1 2.1.11.11 0 0 0 .13.06.36.36 0 0 1 .16-.01c.03 0 .05-.01.05-.04.01-.22.04-.25.07-.1.27-.54.57-.96.91-1.3a7.64 7.64 0 0 0-.13 3.26c.07.4.3.6.7.61.12 0 .23-.02.33-.09.53-.34.77-.8.74-1.36-.04-.78 0-1.35.14-1.7.16.27.33.39.5.35a.29.29 0 0 0 .24-.25c.1-1.08.14-2.11.12-3.1 0-.2.08-.3.27-.28l.04 3.52.39 3.63c-.06.16-.15.24-.25.25-.15.02-.22-.05-.2-.2a.44.44 0 0 0-.02-.23c-.09-.23-.15-.22-.18.03a26.6 26.6 0 0 0-.18 1.72c-.27.02-.36-.3-.26-.94a.74.74 0 0 0-.28-.73c-.1-.07-.22-.1-.37-.07a.33.33 0 0 0-.25.23c-.14.48-.39.9-.74 1.27a.7.7 0 0 1-.36.2c-.57.11-.8.54-.68 1.28-.16-.33-.32-.54-.5-.63.33-.99.46-1.98.39-2.98a.5.5 0 0 0-.13-.3.57.57 0 0 0-.2-.15.44.44 0 0 0-.57.2.45.45 0 0 0-.05.2c0 .37-.14.72-.4 1.06-.27-2.01-.21-3.98.16-5.92.13-.64.66-1.93 1.6-3.86Z" fill="#8FB8CE"/><path d="m32.92 21.77 2.23 1.97a9.19 9.19 0 0 1 1.16 3.48c-.39.26-.36.53.07.83-.32.42-.32.96-.01 1.62-.35.1-.4.51-.12 1.25-.36.35-.57.6-.64.77a8.89 8.89 0 0 1-6.28 5.22c-.2.08-.39.2-.58.39.04-.2 0-.32-.14-.37-.08-.03-.18-.02-.29.03-.1.04-.19.1-.27.14l-1.54-.02c-.52.1-.9.11-1.17.06-.46-.1-.93-.36-1.4-.77a.68.68 0 0 0-.28-.14l-.49-.12a.32.32 0 0 1-.22-.2c-.09-.22-.23-.4-.44-.58.33.13.58.2.74.23.46.07.49-.02.1-.27a6.84 6.84 0 0 1-2.08-2.1c.12 0 .23-.25.3-.71 1.53 2.47 3.82 3.77 6.9 3.9a8.6 8.6 0 0 0 2.31-.6c1.98-.8 3.4-2.22 4.27-4.26l.19-.42c.6-1.98.55-3.87-.13-5.66-.91-2.37-2.75-3.85-5.51-4.42-.11-.26-.48-.31-1.12-.15-.72.19-1.2.09-1.88.03a.56.56 0 0 0-.33.07.79.79 0 0 1-.66.07c0-.13-.13-.2-.4-.21.69-.33 1.18-.48 1.47-.48.45.02.9 0 1.36-.06a6.08 6.08 0 0 1 4.16 1.06c.23.17.46.31.72.42Z" fill="#0C748B"/><path d="M34.29 20.27c.53.32.95.72 1.28 1.2-.1.12-.28.07-.54-.16a.14.14 0 0 0-.24.13c.02.06.01.12-.02.18-.07.12-.15.14-.25.04-.3-.3-.65-.4-1.05-.33a.9.9 0 0 1-.09-.74c.12.05.24.1.35.17.16.1.28.12.36.1.15-.07.21-.26.2-.6Z" fill="#363536"/><path d="M42.3 20.6a19.56 19.56 0 0 1 1.46 3.67c.3 1.11.32 2.28.05 3.5.1-.44-.3-.3-1.18.45l-.01-.24a.41.41 0 0 1 .11-.33c.17-.2.3-.41.36-.66a.53.53 0 0 1 .3-.36.84.84 0 0 1 .1-.03c.15-.04.21-.13.17-.3a2.91 2.91 0 0 1-.03-1.4.6.6 0 0 0-.02-.33l-1.32-3.98Z" fill="#34BAE0"/><path d="M25.2 20.83c.28 0 .42.08.4.2.24.08.47.06.67-.06.1-.06.21-.08.33-.07.69.06 1.16.16 1.88-.03.64-.16 1.01-.11 1.12.15 1.4.64 2.6 1.35 3.56 2.14.15.12.13.2-.06.22l-.43.06a.45.45 0 0 1-.36-.1 3.7 3.7 0 0 0-1.06-.62 6.23 6.23 0 0 0-4.36-.63.8.8 0 0 0-.31.14c-.2.15-.55.32-1.07.5a5.7 5.7 0 0 0-3.76 4.46c-.38 1.83.04 3.28.88 4.86.4.78.9 1.36 1.48 1.74.57.38 1.17.7 1.78.96.43.19.95.34 1.57.45.52.09 1.04.21 1.54.37.38.17.73.15 1.07-.08.3.3.54.39.71.28a8.6 8.6 0 0 1-2.31.6c-3.08-.12-5.37-1.42-6.9-3.9a5.53 5.53 0 0 1-.84-1.62 3.39 3.39 0 0 1-.11-1.7L21 26.9c.1-.58.3-1.08.58-1.59.07-.13.05-.25-.04-.36-.15-.17-.15-.34-.01-.51.07-.08.1-.18.1-.29a.97.97 0 0 0-.09-.49 20.08 20.08 0 0 1 3.65-2.84Z" fill="#149EBF"/><path d="M29.6 21.02c2.76.57 4.6 2.05 5.5 4.42.7 1.8.74 3.68.14 5.66-.41-.08-.67-.23-.77-.47-.06-.15-.02-.4.15-.74.23-.5.3-1.03.2-1.58-.14-.66-.24-1.33-.33-2a.34.34 0 0 0-.22-.29c-.18-.08-.26-.22-.22-.42a.34.34 0 0 0-.2-.38c-.24-.09-.3-.24-.17-.43.05-.07.04-.14-.02-.2l-.67-.58a.25.25 0 0 0-.28-.05c-.25.1-.43.02-.55-.23a.5.5 0 0 0-.25-.26c-.29-.13-.5-.38-.66-.75.4.16.76.36 1.06.62.1.09.22.12.36.1l.43-.06c.2-.02.21-.1.06-.22-.97-.79-2.16-1.5-3.56-2.14Z" fill="#7DCDEB"/><path d="M33.47 21.33c.4-.07.75.04 1.05.33.1.1.18.09.25-.04a.25.25 0 0 0 .02-.18.14.14 0 0 1 .07-.16.14.14 0 0 1 .17.03c.26.23.45.28.55.15a9.99 9.99 0 0 1 2.47 5.9c.01.23-.09.49-.3.77-.08.1-.11.21-.1.33.05.48.05.96.01 1.44a.45.45 0 0 1-.2.35c-.16.11-.32.09-.48-.08l-.02-2.54c0-.12-.06-.19-.18-.2-.06-.02-.13-.01-.2 0a5.03 5.03 0 0 0-1.43-3.7l-2.23-1.96c.1-.03.11-.1.06-.19l.47.26c.15.09.22.04.2-.14a1 1 0 0 0-.18-.37Z" fill="#265B67"/><path d="M19.27 22.62c.06.07.08.17.08.29-.28.1-.57.3-.87.59a2.78 2.78 0 0 0-.21-.97c-.05-.11-.14-.16-.26-.15-.2.02-.37.09-.55.21a.4.4 0 0 0-.17.3c-.04.47-.01.92.1 1.36l.12 1.18a.38.38 0 0 1-.1.3.92.92 0 0 1-.4.24l-.04-3.52c-.05-.04 0-.08.15-.13.32-.14.64-.24.97-.32a.67.67 0 0 1 .4.02c.21.09.32.27.33.55 0 .11.06.17.17.19.08 0 .17-.04.28-.14Z" fill="#020303"/><path d="M20.6 22.36c-.16-.02-.27.02-.33.11-.54.9-1.12 1.74-1.73 2.55h-.15c-.1-.01-.16.04-.17.14-.01.12.01.22.07.32a.25.25 0 0 0-.1-.02h-.07a.12.12 0 0 0-.05.06.57.57 0 0 0-.05.37c.02.12.1.18.22.18.17 0 .32.04.43.13-.4 0-.68.03-.87.08-.43.11-.43.23 0 .34.13.04.27.04.4 0 .17-.03.23.03.19.19-.21.79-.3 1.58-.27 2.37 0 .12-.04.22-.15.28-.16.08-.34.13-.57.14L17 25.97c.17-.06.3-.13.4-.23.08-.09.11-.2.1-.31l-.13-1.18c.46.01.82-.24 1.1-.75.3-.3.59-.5.87-.6.25-.03.4-.19.46-.47a.65.65 0 0 1 .1-.29.5.5 0 0 1 .27-.16c.1-.01.15.02.18.11.03.08.1.17.24.27Z" fill="#047AA3"/><path d="M31.25 22.72c.15.37.37.62.66.75.11.06.2.14.25.26.12.25.3.33.55.23.1-.04.2-.03.28.05l.67.59c.06.05.07.12.02.19-.12.2-.07.34.17.43a.34.34 0 0 1 .2.38c-.04.2.04.34.22.42.13.05.2.15.22.29.09.67.19 1.34.32 2 .1.55.04 1.08-.2 1.58-.15.35-.2.6-.14.74.1.24.36.4.77.47l-.2.42a.97.97 0 0 0-.63-.25c-.13 0-.2.07-.22.2a.76.76 0 0 1-.43.64.16.16 0 0 0 .07.32h.2a.02.02 0 0 1 .03.03c-.03.03-.03.07-.02.11.03.13-.02.17-.15.13a.22.22 0 0 0-.13-.01.32.32 0 0 0-.2.16c-.13.2-.29.36-.5.48-.41.24-.7.59-.87 1.05-.04.1-.1.2-.2.27-.25.19-.51.37-.78.54a.6.6 0 0 1-.33.1c-.31 0-.58.07-.8.2-.35.23-.7.25-1.08.08.06-.15.19-.27.39-.35.11-.04.16-.13.15-.25l-.01-.15a.24.24 0 0 1 .24-.26c.53.02.76-.29.7-.91a.21.21 0 0 0-.15-.2.6.6 0 0 1-.37-.34.34.34 0 0 1 .04-.37l.13-.18c.1-.12.07-.21-.08-.26l-.33-.1c-.03-.1 0-.16.09-.18a3.2 3.2 0 0 0 2.63-1.6.8.8 0 0 1 .27-.28c.37-.23.41-.54.13-.91a.88.88 0 0 1-.18-.49c-.01-.28.04-.56.15-.84a.43.43 0 0 0-.01-.34l-.82-1.83a.32.32 0 0 0-.27-.2c-.37-.06-.64.03-.82.25-.07.1-.17.12-.27.05l-.61-.41c-.39-.77-1.37-.57-1.17.34-.02.1-.08.16-.2.2a.43.43 0 0 0-.3.15c-.02-.02-.06 0-.12.03-.6-.85-1.1-1.11-2.05-.3l-1.32 1.52c-.06.07-.06.14 0 .21.1.1.16.07.2-.07-.13.61-.07 1.18.19 1.7.05.11.14.18.26.2l.18.05c.12.03.22.1.3.2.42.56.66 1.2.71 1.94a4.12 4.12 0 0 1-2.05-.49c-.29-.13-.47-.03-.57.3a.18.18 0 0 1-.28.1c-.19-.1-.35-.27-.48-.5a.24.24 0 0 0-.1-.09.25.25 0 0 0-.15-.01.84.84 0 0 1-.83-.36.55.55 0 0 1-.07-.2l-.4-3.15a5.7 5.7 0 0 1 3.76-4.45c.52-.2.87-.36 1.07-.5.1-.08.2-.12.31-.15a6.23 6.23 0 0 1 4.36.63Z" fill="#A6DFF1"/><path d="M17.12 22.32c-.15.05-.2.09-.15.13-.19-.02-.27.08-.27.28.02.99-.02 2.02-.12 3.1a.29.29 0 0 1-.24.25c-.17.03-.34-.08-.5-.34-.1-.68-.1-1.37 0-2.06a.33.33 0 0 0-.11-.3c-.1-.09-.19-.08-.27 0a1.1 1.1 0 0 1-.57.3c.01-.33.2-.53.59-.6.12-.01.18-.08.18-.2 0-.15-.07-.3-.22-.45a2.45 2.45 0 0 1 1.68-.1ZM40.47 22.36c-.01.33.15.71.47 1.15-.32-.01-.54.04-.66.14a.26.26 0 0 0-.08.29c.24.7.2 1.42-.12 2.16-.04.08-.1.13-.19.12-.18 0-.28-.09-.32-.26-.21-.86-.24-1.7-.1-2.51.03-.14.11-.24.25-.3.14-.05.28-.12.4-.2.17-.13.15-.19-.06-.19-.43 0-.66-.13-.67-.4.39-.12.75-.12 1.08 0Z" fill="#0F8DB6"/><path d="M18.48 23.5c-.28.51-.64.76-1.1.75-.1-.44-.13-.9-.1-1.36a.41.41 0 0 1 .18-.3c.18-.12.36-.2.55-.21.12-.01.2.04.26.15.12.28.19.6.2.97Z" fill="#265B67"/><path d="m20.6 22.36-1.64 3.23-.42-.57c.61-.8 1.2-1.66 1.73-2.55.06-.1.17-.13.33-.11Z" fill="#A6DFF1"/><path d="m38.48 26.68-.97-3.34a.72.72 0 0 1 .78-.92c.41.05.59.3.53.75a20.5 20.5 0 0 0-.1 3.4c.02.1-.03.16-.13.17a.1.1 0 0 1-.1-.07Z" fill="#265B67"/><path d="M40.47 22.36c.22.04.4.17.57.4.13.15.3.25.52.3.1.02.18.07.23.16A13.9 13.9 0 0 1 43.03 26a.15.15 0 0 1-.17.12l-.1-.02a.53.53 0 0 1-.4-.33 6.06 6.06 0 0 0-1.42-2.26c-.32-.44-.48-.82-.47-1.15ZM15.44 22.43c.15.15.22.3.22.44 0 .13-.06.2-.18.22-.38.06-.58.26-.6.58l-.82 1.35c-.34.33-.64.75-.9 1.28-.1-.35-.1-.68.02-1a5.9 5.9 0 0 1 1.76-2.55l.5-.32Z" fill="#024E73"/><path d="M15.84 25.74c-.13.34-.18.9-.14 1.7.03.55-.21 1-.74 1.35-.1.07-.2.1-.33.1-.4-.02-.63-.23-.7-.62a7.64 7.64 0 0 1 .13-3.25l.83-1.35c.23-.04.42-.14.57-.28.08-.1.17-.1.27-.02a.33.33 0 0 1 .1.3c-.1.7-.09 1.39.01 2.07Z" fill="#C6D3DB"/><path d="M21.55 23.67c.07.15.1.31.1.5 0 .1-.04.2-.11.28-.14.17-.14.34 0 .5.1.12.12.24.05.37-.28.5-.49 1.01-.58 1.59-.12.73-.25 1.47-.4 2.24-.1.57-.06 1.14.12 1.7.2.6.48 1.14.85 1.63-.08.46-.19.7-.31.72-1.27-1.62-1.58-4.54-1.28-6.35.19-1.13.7-2.2 1.56-3.18Z" fill="#265B67"/><path d="M36.58 27.43c-.18-.05-.27-.12-.27-.2a9.18 9.18 0 0 0-1.16-3.5 5.03 5.03 0 0 1 1.43 3.7ZM18.54 25.02l.42.57-.03.26c-.24 0-.46-.12-.64-.37a.53.53 0 0 1-.07-.32c0-.1.07-.15.17-.15l.15.01Z" fill="#171918"/><path d="M30 25.42c.08.67-.79.83-1.17.34-.2-.91.78-1.1 1.17-.34Z" fill="#E9451F"/><path d="m30 25.42.61.4c.1.08.2.06.27-.04.18-.22.45-.3.82-.25.13.02.21.08.27.2l.82 1.83c.05.11.05.23 0 .34-.1.28-.15.56-.14.84.01.18.08.35.18.49.28.37.24.68-.13.91a.8.8 0 0 0-.27.28 3.2 3.2 0 0 1-2.63 1.6 2.7 2.7 0 0 0-.56-2.95c-.04-.05-.03-.09.01-.13l.07-.06h.03c.17.19.35.4.51.61a.9.9 0 0 0 .71.37c1.65.06 1.5-1.63.86-2.56a.84.84 0 0 0-.95-.32.83.83 0 0 0-.3.18l-1 .96a.15.15 0 0 1-.25-.06l-.72-1.92c.06-.04.1-.05.12-.03.12.27.27.5.45.71.54.6 1.3.3 1.6-.33.2-.4.1-.5-.3-.3-.48.22-.95.14-1.44-.23.1-.04.17-.1.2-.2.37.49 1.24.34 1.16-.34Z" fill="#D3F1F8"/><path d="M18.29 25.48c.18.25.4.37.64.37.06 0 .1.03.15.07.07.06.1.13.06.22l-.05.15a1.1 1.1 0 0 1-.42-.09.65.65 0 0 0-.43-.13c-.13 0-.2-.06-.22-.18a.56.56 0 0 1 .05-.37.12.12 0 0 1 .05-.05.11.11 0 0 1 .06-.01c.04 0 .08 0 .1.02Z" fill="#7DCDEB"/><path d="M26.16 25.84c.07.3.22.63.44.98a.31.31 0 0 0 .49.05c.2-.2.42-.25.67-.17.17.05.22.16.16.32-.1.3-.32.53-.65.69-.28.13-.35.33-.22.61l.36.75c.08.16.2.2.35.12l.39-.18a.36.36 0 0 1 .45.12c1.18 1.75-.98 3.08-1.74 1.16-.21-.53-.45-1.09-.72-1.66-.24-.52-.61-.9-1.1-1.13-.04.14-.1.16-.2.07-.06-.07-.06-.14 0-.21l1.32-1.52Z" fill="#FEFEFE"/><path d="M28.64 25.96c.49.37.96.45 1.43.22.4-.2.5-.1.32.31-.3.63-1.07.93-1.6.33a2.72 2.72 0 0 1-.46-.7c.08-.1.18-.15.3-.16Z" fill="#E9451F"/><path d="m21.75 27.19.4 3.14a.55.55 0 0 0 .21.38c.23.17.46.23.69.19.05-.01.1 0 .14.01.05.02.09.05.11.1.13.22.3.38.48.5a.18.18 0 0 0 .28-.11c.1-.33.28-.43.57-.3.78.37 1.46.54 2.05.49.92 1.37 1.93 1.58 3.03.61l.33.1c.15.05.18.14.08.26l-.13.18a.34.34 0 0 0-.04.37c.07.17.2.29.37.34.1.04.14.1.15.2.06.62-.17.93-.7.91a.24.24 0 0 0-.24.26l.01.15c.01.12-.04.2-.15.25-.2.08-.33.2-.39.35-.5-.16-1.02-.28-1.54-.37a6.96 6.96 0 0 1-1.57-.45c-.61-.26-1.2-.58-1.78-.96a4.57 4.57 0 0 1-1.48-1.74c-.84-1.58-1.26-3.03-.88-4.86Z" fill="#7DCDEB"/><path d="M36.3 27.22c0 .09.1.16.28.22a.55.55 0 0 1 .2-.02c.12.02.18.09.18.21l.02 2.54a.99.99 0 0 0-.29.16.18.18 0 0 0-.03.23.17.17 0 0 0 .2.07c.3-.1.49-.01.57.28l-1.18.01c-.28-.74-.24-1.15.12-1.25.32-.41.32-.95.01-1.62-.43-.3-.46-.57-.07-.83Z" fill="#149EBF"/><path d="M43.8 27.76a4.38 4.38 0 0 1-.86 3.97c-.28-.3-.37-.84-.28-1.6l-.03-1.91c.88-.74 1.27-.9 1.18-.46Z" fill="#0F8DB6"/><path d="M36.38 28.05c.31.67.3 1.2-.01 1.62-.31-.66-.3-1.2.01-1.62Z" fill="#171918"/><path d="m28.93 28.06-.72-1.92c-.6-.85-1.1-1.11-2.05-.3.07.3.22.63.44.98a.3.3 0 0 0 .49.05c.2-.2.42-.25.67-.17.17.05.22.16.16.32-.1.3-.32.53-.65.69-.28.13-.35.33-.22.61l.36.75c.08.16.2.2.35.12l.39-.18a.36.36 0 0 1 .45.12c1.18 1.75-.98 3.08-1.74 1.16-.21-.53-.45-1.09-.72-1.66-.24-.52-.61-.9-1.1-1.13-.13.61-.07 1.18.19 1.7.05.11.14.18.26.2l.18.05c.12.03.22.1.3.2.42.56.66 1.2.71 1.94.92 1.37 1.93 1.58 3.03.61-.03-.1 0-.16.09-.18a2.7 2.7 0 0 0-.56-2.95c-.04-.05-.03-.09.01-.13l.07-.06h.03c.17.19.35.4.51.61a.9.9 0 0 0 .71.37c1.65.06 1.5-1.63.86-2.56a.84.84 0 0 0-.95-.32.83.83 0 0 0-.3.18l-1 .96a.16.16 0 0 1-.14.04.15.15 0 0 1-.11-.1Zm1.52.9c-.08-.08 0-.3.2-.5s.43-.3.51-.2c.09.08 0 .3-.2.5s-.43.29-.5.2Z" fill="#E9451F"/><path d="m13.14 31.78-.98-1.98c.27-.33.4-.68.4-1.05a.45.45 0 0 1 .41-.44c.08 0 .15 0 .22.04.07.03.14.08.2.14.08.09.12.2.13.31a7.7 7.7 0 0 1-.38 2.98Z" fill="#0F8DB6"/><path d="M42.66 30.12c-.1.77 0 1.31.28 1.61L42.37 33c-.6-1.02-1.2-2.07-1.8-3.16-.15-.25-.38-.33-.7-.24-.07-.32.05-.63.33-.91.09-.1.16-.08.22.02.56.99.97 1.83 2.24 1.42Z" fill="#34BAE0"/><path d="M19.32 29.99c-.2-.27-.47-.36-.83-.27-.05-.2-.05-.4 0-.57.04-.12.12-.18.25-.17.45.02.65.35.58 1Z" fill="#047AA3"/><path d="m16.57 31.17-.36 3.3c-1.46.1-2.32-.6-2.58-2.06-.12-.74.11-1.17.68-1.28a.7.7 0 0 0 .36-.2c.35-.37.6-.79.74-1.27a.32.32 0 0 1 .25-.23c.15-.03.28 0 .37.07.23.2.32.43.28.73-.1.64 0 .96.26.94ZM42.37 32.99c-.45.95-1.12 1.48-2.02 1.58a.17.17 0 0 1-.18-.12l-.22-.99-.21-2.5c-.03-.37.01-.82.12-1.37.33-.1.56-.01.7.24l1.8 3.16Z" fill="#0F8DB6"/><path d="M18.5 29.72c.35-.09.63 0 .82.27.09.04.1.14.05.28-.51-.08-.83-.04-.96.11-.01-.07-.1-.16-.24-.3.23-.1.34-.23.32-.36Z" fill="#024E73"/><path d="M38.86 30.8c-.06.16-.1.15-.1-.02 0-.26.04-.52.1-.78.03-.2.07-.19.1 0 .04.27.01.54-.1.8Z" fill="#363536"/><path d="M17.7 30.13c.08.35.32.43.7.25.14-.15.46-.19.97-.11a9.12 9.12 0 0 0 3.14 5.06c.2.17.35.36.44.58a.32.32 0 0 0 .22.2l.49.12c.1.02.2.07.27.14.48.41.95.67 1.41.77.26.05.65.03 1.17-.06.21.28.64.4 1.27.37.05 0 .1-.02.15-.05a.26.26 0 0 0 .09-.15l.03-.15c.08-.05.17-.1.27-.14.11-.05.2-.06.29-.03.13.05.18.17.14.37-.19.32-.27.52-.26.59.08.52-.15.8-.7.83a8.14 8.14 0 0 1-3.47-.59 10.13 10.13 0 0 1-6.1-6.23c-.1-.29-.07-.54.08-.76a1 1 0 0 1 .71-.2c.28.02.3-.05.1-.22a.51.51 0 0 0-.26-.1.37.37 0 0 0-.33.1l-.3.3a.68.68 0 0 1-.43-.26.33.33 0 0 0-.3-.11.81.81 0 0 1-.57-.17.2.2 0 0 1-.08-.18c.03-.28.32-.34.86-.17Z" fill="#34BAE0"/><path d="M18.17 30.08c.15.14.23.23.24.3-.4.18-.63.1-.7-.25a.6.6 0 0 1 .46-.05Z" fill="#265B67"/><path d="M18.3 31.14c.04-.08.01-.11-.07-.11l.29-.3c.1-.1.2-.13.33-.11.1.01.19.05.25.1.22.17.19.24-.09.21a1 1 0 0 0-.71.2Z" fill="#171918"/><path d="M17.56 30.89a.07.07 0 0 1 .09.04l.04.13a30.44 30.44 0 0 1 .54 1.9c.02.1.02.15 0 .15l-.11.04c-.02.01-.05-.03-.1-.13l-.19-.42a18.21 18.21 0 0 1-.52-1.42l-.04-.12a.07.07 0 0 1 .05-.09l.24-.08Z" fill="#0F8DB6"/><path d="M37.43 30.9c.18.49.1 1-.26 1.54-.26.22-.5.3-.72.24.76-.66.85-1.09.29-1.3a.52.52 0 0 0-.63.2c-.48.78-.55 1.63-1.2 2.33a11.34 11.34 0 0 1-5.27 3.22c0-.15-.1-.23-.3-.22a8.89 8.89 0 0 0 6.27-5.22c.07-.16.28-.42.64-.77l1.18-.01Z" fill="#171918"/><path d="M35.05 31.52a7.57 7.57 0 0 1-4.27 4.25c-.17.1-.41.01-.7-.28.22-.13.49-.2.8-.2a.6.6 0 0 0 .33-.1c.27-.17.53-.35.78-.54.1-.07.16-.16.2-.27.17-.46.46-.81.88-1.05.2-.12.36-.28.48-.48a.32.32 0 0 1 .2-.16.22.22 0 0 1 .14 0c.13.05.18.01.15-.12-.01-.04 0-.08.02-.1v-.03a.02.02 0 0 0-.02-.01h-.2a.16.16 0 0 1-.08-.32c.26-.13.4-.34.43-.63.02-.14.09-.2.22-.2.2-.02.42.07.64.24Z" fill="#7DCDEB"/><path d="M36.45 32.68a9.18 9.18 0 0 1-6.4 5.19l-.75-.1c-.12-.02-.16-.08-.11-.2.07-.19.22-.33.45-.44 2.06-.59 3.82-1.66 5.27-3.23.65-.69.72-1.54 1.2-2.31a.52.52 0 0 1 .63-.22c.56.22.47.65-.3 1.3Z" fill="#0F8DB6"/><path d="M37.17 32.44c.05.06.07.12.08.2 0 .07 0 .13-.03.18A10.93 10.93 0 0 1 29 38.78c-.05.01-.1 0-.14-.04-.07-.05-.06-.1.03-.1a.75.75 0 0 0 .54-.34c.14-.21.35-.36.62-.43 2.88-.66 5.01-2.4 6.4-5.2.22.07.46-.01.72-.23Z" fill="#34BAE0"/><path d="M35.96 35.84c.18.26.02.56-.47.88a1.5 1.5 0 0 1 .13-.66l.34-.22Z" fill="#171918"/><path d="M35.62 36.06c-.1.29-.15.5-.13.66a9.41 9.41 0 0 1-3.8 2.3c-1.3.44-2.48.65-3.52.64l-1.74-.11a4.13 4.13 0 0 1-1.86-.57c.39-.02.77.03 1.13.13.51.14.88.21 1.09.22 2.76.13 5.67-.63 7.78-2.48.32-.28.68-.54 1.05-.79Z" fill="#0C748B"/><path d="m28.05 37.1-.03.15a.26.26 0 0 1-.24.2c-.63.03-1.06-.1-1.27-.37l1.54.02Z" fill="#171918"/><path d="M23.24 38.46c.44.02.85.2 1.25.52a1.93 1.93 0 0 1-1.25-.52Z" fill="#34BAE0"/><path d="m26.43 39.55 1.74.1c-.55.14-1.13.1-1.74-.1Z" fill="#7DCDEB"/><ellipse cx="28" cy="42.93" rx="6.4" ry="1.07" fill="#070707" fill-opacity=".6"/></svg>