<svg width="56" height="56" viewBox="0 0 56 56" xmlns="http://www.w3.org/2000/svg"><path fill="#F0F3FA" d="M0 0h56v56H0z"/><path fill-rule="evenodd" d="M41 15H15v26h26V15Zm-28-2v30h30V13H13Z" fill="#8CDCF7"/><path fill-rule="evenodd" d="M40.5 15.5h-25v25h25v-25ZM15 15v26h26V15H15Z" fill="#413D9E"/><path fill-rule="evenodd" d="M40 16H16v24h24V16Zm-23 1h4v3.5c.17-1.17 2-3.5 8-3.5 7.5 0 9 3.5 9 6v16h-4V24c0-1.33-1-4-5-4-5 0-8 2.5-8 5v14h-4V17Zm13 11.26-.17.35a4 4 0 0 1-1.8.39c-1.55 0-3.03-.87-3.03-2.55 0-1.71 1.62-2.45 3.13-2.45.62 0 1.22.1 1.81.3l.05.05c-.08.31-.14.68-.16 1.1l-.03.03h-.22l-.04-.04c0-.27-.02-.46-.04-.57-.32-.31-.77-.47-1.37-.47-1.15 0-2.13.94-2.13 2.1 0 1.33 1.15 2.03 2.43 2.03.5 0 1-.11 1.48-.35l.09.08Zm-.06 4.26.06-.49-.05-.03h-4.9l-.05.04v.29l.05.04.78.06c.1.02.15.07.17.16v4.84c-.02.08-.07.14-.17.16l-.48.03-.3.01-.05.04v.3l.05.03h3.2l.05-.04v-.29l-.05-.04-.7-.03-.32-.01c-.1-.02-.21-.08-.23-.16v-2.32a30.26 30.26 0 0 1 1.5.01c.28.02.45.08.5.18.04.05.05.22.05.52l.05.04h.34l.05-.04v-1.78l-.05-.04h-.31l-.05.04c-.01.3-.04.47-.1.54-.02.04-.08.06-.17.06-.46.02-.78.02-.95.02l-.86-.01v-2.13c.3-.02.86-.02 1-.02.85 0 1.31.04 1.4.13.04.05.06.27.07.65l.05.05h.29l.05-.05.03-.34.05-.42Z" fill="#01B0EF"/></svg>