<svg width="56" height="56" xmlns="http://www.w3.org/2000/svg"><path fill="#FE6603" d="M0 0h56v56H0z"/><path d="M14.004 40H20V17.227L17 20.9V26h-2v3h2v5.853L14.004 40zM42 16.225h-5.996v22.773l3-3.673v-5.1h2v-3h-2v-5.853L42 16.225z" fill="#fff"/><path d="M21.724 10.45l-4.266 4.213L33 30.553v-4.407l-3.572-3.629 1.424-1.405-2.108-2.135-1.423 1.405-4.112-4.164-1.485-5.768zM34.28 45.775l4.266-4.213L23 25.643v4.436l3.575 3.629-1.423 1.405 2.108 2.135 1.423-1.405 4.112 4.164 1.484 5.768z" fill="#fff"/></svg>