<svg width="56" height="56" viewBox="0 0 56 56" xmlns="http://www.w3.org/2000/svg"><path fill="#F0F3FA" d="M0 0h56v56H0z"/><path d="M26.76 25h-5.5l-2.65 5h5.62l2.53-5Z" fill="#CB591D"/><path d="M15.63 35.38 18.6 30h5.6l-4.06 7.26-2.62.74-1.9-2.62Z" fill="url(#a23nrkhgf)"/><path d="m12.22 37.48-3.27-5.93v-1.06l1.16-1.5 3.26.22c.9 1.79 2.87 5.66 3.6 6.9.75 1.25 2.55 1.2 3.24 1.03A4.4 4.4 0 0 1 16.05 40c-2.08 0-3.42-1.68-3.83-2.52Z" fill="url(#b23nrkhgf)"/><path d="M11.62 25h9.65l-2.66 5h-7.53c-1.39 0-1.8 1.24-1.93 1.97v-.01C8.82 31.49 8 30.34 8 29.24A3.98 3.98 0 0 1 11.62 25Z" fill="#DB901D"/><path d="M32.26 25h-5.52l.49-3.52h3.35L32.26 25Z" fill="url(#c23nrkhgf)"/><path d="M23.2 21.3 21.29 25h5.44c.15-.35.6-1.28 1.12-2.25.53-.98 1.35-1.18 1.7-1.16h1.09c-.22-.4-1.31-2.59-3.91-2.59a3.83 3.83 0 0 0-3.51 2.3Z" fill="url(#d23nrkhgf)"/><path d="m39.36 21.3-2 3.7H43c.16-.35.62-1.28 1.16-2.25.55-.98 1.4-1.18 1.75-1.16h1.1C46.8 21.19 45.7 19 43 19a3.97 3.97 0 0 0-3.64 2.3Z" fill="url(#e23nrkhgf)"/><path d="m29.26 30-2.53-5h5.51l2.7 5h-5.68Z" fill="#C42A1B"/><path d="m40.55 30 2.44-5h-5.58l-2.55 5h5.69Z" fill="#C42A1B"/><path d="m32 35-2.74-5h5.72L32 35Z" fill="url(#f23nrkhgf)"/><path d="m37.72 35-2.74-5h5.52l-2.78 5Z" fill="url(#g23nrkhgf)"/><path d="m34.98 30 2.74 5H32l2.97-5Z" fill="url(#h23nrkhgf)"/><path d="M47.02 30h-6.53l2.5-5H48l-.98 5Z" fill="#DB901D"/><defs><linearGradient id="a23nrkhgf" x1="17.3" y1="36.39" x2="20.91" y2="29.26" gradientUnits="userSpaceOnUse"><stop stop-color="#CC5827"/><stop offset="1" stop-color="#D77F31"/></linearGradient><linearGradient id="b23nrkhgf" x1="10.15" y1="29.99" x2="14.75" y2="40.48" gradientUnits="userSpaceOnUse"><stop offset=".25" stop-color="#CB5126"/><stop offset="1" stop-color="#E4AA3F"/></linearGradient><linearGradient id="c23nrkhgf" x1="27.31" y1="22.33" x2="31.05" y2="25.28" gradientUnits="userSpaceOnUse"><stop stop-color="#CD5C27"/><stop offset="1" stop-color="#D3742E"/></linearGradient><linearGradient id="d23nrkhgf" x1="29.59" y1="21.2" x2="23.54" y2="25.14" gradientUnits="userSpaceOnUse"><stop stop-color="#DEAB43"/><stop offset="1" stop-color="#DC9237"/></linearGradient><linearGradient id="e23nrkhgf" x1="45.97" y1="21.2" x2="39.83" y2="25.34" gradientUnits="userSpaceOnUse"><stop stop-color="#CB5126"/><stop offset="1" stop-color="#D26F2D"/></linearGradient><linearGradient id="f23nrkhgf" x1="32.12" y1="30" x2="32.12" y2="35" gradientUnits="userSpaceOnUse"><stop stop-color="#DC9437"/><stop offset="1" stop-color="#E6B042"/></linearGradient><linearGradient id="g23nrkhgf" x1="37.83" y1="30" x2="37.83" y2="35" gradientUnits="userSpaceOnUse"><stop stop-color="#DC9437"/><stop offset="1" stop-color="#E6B042"/></linearGradient><linearGradient id="h23nrkhgf" x1="34.86" y1="35" x2="34.86" y2="30" gradientUnits="userSpaceOnUse"><stop stop-color="#C32A1C"/><stop offset=".55" stop-color="#CA6920"/><stop offset="1" stop-color="#D8A422"/></linearGradient></defs></svg>