<svg width="56" height="56" viewBox="0 0 56 56" xmlns="http://www.w3.org/2000/svg"><path fill="#F0F3FA" d="M0 0h56v56H0z"/><path d="m39.99 28.96 3.03-1.36c-1.42-1.76-5.8-6.25-12.04-10.12-7.8-4.83-11.84-3.22-14.98-1.87-3.65 1.57-7.6 6.16-.42 13.35 7.17 7.2 11.45 6.16 13.72 6.29 1.81.1 4.9-.39 6.22-.64l-3.46-4.47a6.23 6.23 0 0 1-5.03 3.99c-3.3.51-6.42-2.24-8-3.99s-5.4-9.48-1.38-12.02c3.2-2.03 5.76-1.84 11.05.75 5.3 2.6 6.65 6.71 6.82 7.62.16.9.72 2.14 2.1 2.47 1.1.27 2.04.11 2.37 0Z" fill="#BC281C"/><path d="M31.51 39.23c2.02.13 2.75 2.77 2.86 4.07-7.36 2.03-13.33-.85-15.4-2.54-8.8-6.57-8.02-10.27-7.9-11.77.11-1.5 2.64-6.83 11.96-5.82 7.45.8 15.38 8.63 18.4 12.44l-5.8 1.18c-2.97-7.43-8.92-10.63-12.95-11.31-4.03-.69-8.47 1.44-6.8 7.5 1.65 6.07 5.65 9.95 9.97 9.95a6 6 0 0 0 5.66-3.7Z" fill="url(#asenl2ymh)"/><path d="M45 31.01C44.48 22.42 34.18 14.76 29.1 12c-.41.3-.93 1.3-.82 3.41.11 2.1.65 2.34 2.36 2.73 1.36.32 2 .53 2.14.59 4.05 2.69 9.76 7.11 9.5 12.16-.2 4.05-3.72 5-5.46 4.96-11-.25-13.02-5.42-13.9-8.51-.7-2.47 2.1-4.72 3.59-5.53-.04-1.92-3.01-2.47-4.5-2.51A13.8 13.8 0 0 0 23.8 31c.49.8 6.7 8.7 14.04 8.7 5.88 0 7.22-5.8 7.16-8.7Z" fill="url(#bsenl2ymh)"/><defs><linearGradient id="asenl2ymh" x1="36.67" y1="27.79" x2="27.28" y2="40.46" gradientUnits="userSpaceOnUse"><stop stop-color="#E3E213"/><stop offset=".27" stop-color="#F9D203"/><stop offset=".78" stop-color="#FEED04"/><stop offset="1" stop-color="#F6C303"/></linearGradient><linearGradient id="bsenl2ymh" x1="42.98" y1="20.66" x2="27.66" y2="34.83" gradientUnits="userSpaceOnUse"><stop stop-color="#4B54A5"/><stop offset=".27" stop-color="#403274"/><stop offset=".51" stop-color="#5059AC"/><stop offset=".78" stop-color="#4E57AD"/><stop offset="1" stop-color="#2E336A"/></linearGradient></defs></svg>