<svg xmlns="http://www.w3.org/2000/svg" width="56" height="56"><path fill="#0566AC" d="M0 0h56v56H0z"/><path d="M13 38V22.86L28 12.2l15 10.65V38H13z" fill="#fff"/><path d="M28 10l17 12v18H11V22l17-12zm0 .99L12 22.34V39h32V22.34L28 11z" fill="#fff"/><path d="M21 35h-1l-3.02-4.9L17 35h-1v-7h1l3 5v-5h1v7zm2-7h2.76c1.07 0 1.93.83 1.93 1.85 0 .64-.3 1.23-.77 1.62.62.2 1.08.76 1.08 1.43 0 1.16-.98 2.1-2.19 2.1H23v-7zm2.6 1H24v2h1.6a1 1 0 100-2zm.2 3H24v2h1.8a1 1 0 100-2zm5.72-4.25c-1.4 0-2.52 1.23-2.52 2.75v2c0 1.52 1.13 2.75 2.52 2.75 1.21 0 2.28-1 2.51-2.25h-.96c-.23.66-.87 1.19-1.55 1.19-.89 0-1.52-.79-1.52-1.75v-1.92c0-.97.63-1.75 1.52-1.75.72 0 1.32.52 1.53 1.23h.94c-.21-1.28-1.24-2.25-2.47-2.25zm6 0c-1.4 0-2.52 1.23-2.52 2.75v2c0 1.52 1.13 2.75 2.52 2.75 1.21 0 2.28-1 2.51-2.25h-.96c-.23.66-.87 1.19-1.55 1.19-.89 0-1.52-.79-1.52-1.75v-1.92c0-.97.63-1.75 1.52-1.75.72 0 1.32.52 1.53 1.23h.94c-.21-1.28-1.24-2.25-2.47-2.25z" fill="#0566AC"/></svg>