<svg width="56" height="56" viewBox="0 0 56 56" xmlns="http://www.w3.org/2000/svg"><path fill="#F0F3FA" d="M0 0h56v56H0z"/><path d="m10.6 29 1.36-6h1.88l-2.05 9H9.9l-2.64-6.03h-.01L5.88 32V32H4l2.04-9h1.9l2.65 6ZM47.54 25.94a4.2 4.2 0 0 1 1.41-.6c.36-.07.72-.07 1.07-.02.8.12 1.47.62 1.77 1.38.1.25.16.52.19.79a4.49 4.49 0 0 1-1.22 3.56 3.23 3.23 0 0 1-3.22.81 2.3 2.3 0 0 1-1.3-1.06L46 32h-1.76l2.05-9h1.92l-.67 2.94Zm2.6 2.05c0-.4-.11-.77-.39-1.05a1.3 1.3 0 0 0-.6-.37 1.48 1.48 0 0 0-1.02.1c-.27.14-.5.33-.69.59-.43.58-.62 1.3-.6 2.03 0 .36.12.68.36.94.3.34.68.49 1.12.45.5-.04.94-.35 1.23-.76a3.61 3.61 0 0 0 .58-1.92ZM22.66 26.33h-.92l.3-1.31V25h.93l.17-.78 2.2-1.22-.44 2c-.01 0 0 0 0 0h1.16l.01.02-.3 1.3a.01.01 0 0 1 0 .01h-1.18c-.2.92-.48 2.1-.68 3.04-.06.23-.1.45-.14.66a.73.73 0 0 0-.02.28c.06.23.28.3.49.31h.31c.16 0 .3-.02.46-.03l-.29 1.3c0 .02 0 .02-.02.03-.46.07-.92.1-1.37.07-.35-.03-.7-.1-1-.27-.3-.18-.5-.5-.55-.87-.02-.16-.02-.32.01-.5l.15-.8.73-3.2-.01-.02ZM15.94 29c-.02.37.03.8.23 1.1.2.3.5.5.83.57.16.04.34.05.52.03a1.67 1.67 0 0 0 1.29-.92l1.72.27c-.3.58-.7 1.06-1.24 1.4-.71.45-1.52.6-2.34.54a3.12 3.12 0 0 1-2.06-.93 2.88 2.88 0 0 1-.8-1.79 4.08 4.08 0 0 1 1.3-3.36c.82-.72 1.89-.97 2.96-.9.5.03 1 .18 1.44.48a2.65 2.65 0 0 1 1.1 2.17c.01.45-.02.9-.12 1.34h-4.83Zm.2-1h2.99c.01-.46-.02-.99-.35-1.33-.17-.18-.37-.3-.61-.34-.77-.17-1.5.25-1.83.98-.1.2-.16.46-.2.69ZM38.84 29c-.01.37.04.8.24 1.1.19.3.5.5.83.57.16.04.33.05.52.03a1.67 1.67 0 0 0 1.28-.92l1.72.27c-.3.58-.7 1.06-1.23 1.4-.71.45-1.52.6-2.35.54a3.12 3.12 0 0 1-2.05-.93 2.88 2.88 0 0 1-.8-1.79 4.08 4.08 0 0 1 1.29-3.36c.83-.72 1.9-.97 2.96-.9.51.03 1.02.18 1.45.48a2.65 2.65 0 0 1 1.09 2.17c.02.45-.01.9-.12 1.34h-4.83Zm.2-1h3c0-.46-.03-.99-.35-1.33-.17-.18-.38-.3-.62-.34-.77-.17-1.5.25-1.83.98-.09.2-.16.46-.2.69ZM31.3 27.57h-.02L29.13 32l-.01.01h-1.77l-.9-7h1.7l.5 4.67h.02l2.2-4.67h1.75l.23 4.67h.01l2.2-4.66V25h1.92l-3.53 7h-1.81l-.35-4.43Z" fill="#28ACE2"/></svg>