<svg width="56" height="56" viewBox="0 0 56 56" xmlns="http://www.w3.org/2000/svg"><path fill="#F0F3FA" d="M0 0h56v56H0z"/><path d="M44.84 16.02c.77.15 1.28.9 1.14 1.68l-3.93 21.13a1.43 1.43 0 0 1-2.8-.05L37.3 26.01l-2.37 12.82a1.43 1.43 0 0 1-2.81-.02l-2.23-13.2-2.45 13.22a1.43 1.43 0 0 1-2.81-.05l-1.94-12.77-2.38 12.82a1.43 1.43 0 0 1-2.8-.02l-2.23-13.2-2.45 13.22a1.43 1.43 0 1 1-2.8-.53l3.92-21.13a1.43 1.43 0 0 1 2.8.02l2.23 13.2 2.45-13.22a1.43 1.43 0 0 1 2.81.05l1.94 12.77 2.38-12.82a1.43 1.43 0 0 1 2.8.02l2.23 13.2 2.45-13.22a1.43 1.43 0 0 1 2.81.05l1.94 12.77 2.38-12.82c.15-.78.9-1.3 1.67-1.15Z" fill="#EF402F"/></svg>