<svg xmlns="http://www.w3.org/2000/svg" width="56" height="56"><path fill="#F0F3FA" d="M0 0h56v56H0z"/><path d="M10.8 16h34.4c1.54 0 2.8 1.28 2.8 2.84v18.32A2.83 2.83 0 0145.2 40H10.8A2.83 2.83 0 018 37.16V18.84A2.83 2.83 0 0110.8 16z" fill="#004071"/><path d="M48 37.23c-12.07.35-25.42-11.37-40-5.9V28.2c10.31-3.04 33.25 9.66 40 5.94v3.1z" fill="#0090C8"/><path d="M45.39 40C33.43 40 22.63 28.84 8 34.3v-3c10.34-3.03 33.23 9.61 40 5.9 0 0 .1.87-.7 1.84-.74.89-1.91.94-1.91.94zM48 34.14c-12.12.35-25.37-11.42-40-5.95V25.6c10.35-3.03 33.23 9.15 40 5.43v3.11z" fill="#0090C8"/><path d="M48 31.05c-12.12.35-25.37-11.17-40-5.7v-2.89c10.34-3.04 33.23 9.54 40 5.82v2.77z" fill="#0090C8"/><path d="M48 28.28C35.93 28.63 22.58 17 8 22.47v-3.01c10.3-3.04 33.25 9.51 40 5.8v3.02z" fill="#0090C8"/><path d="M48 25.25c-12.12.35-25.04-10.2-40-6.03 0 0-.06-.89.24-1.5.17-.35.22-.52.7-1a2.78 2.78 0 011.75-.71c10.78 0 30.75 9.64 37.3 6.03v3.2z" fill="#0090C8"/><path d="M47 23.48v3.01h-.8l.03-3h-.65V23h.67v-.5a.187.187 0 00-.05-.1.28.28 0 00-.11-.03h-.46a.12.12 0 00-.09.04.2.2 0 00-.06.08V23h-.72v-.87l.02-.08v-.06a.2.2 0 01.08-.12.24.24 0 01.15-.04h1.72c.07 0 .12.01.17.04a.25.25 0 01.1.12l.02.06v.09L47 23h.63v.49H47zm-2.5 0h-.74l.07.19.05.16.03.16v.15l-.02.18a.45.45 0 01-.05.16l.66-.03v-.96zm-1.4 3.01c-.34 0-.65-.15-.8-.47-.16-.32-.14-.68-.14-1.02h-.2s-.2-.05-.2-.26c0-.22.12-.3.26-.3h.72a.33.33 0 00.15-.02.2.2 0 00.1-.06.38.38 0 00.1-.13l.03-.06a.65.65 0 00-.13-.62l-.04-.07h-1.53V23h4.51v.48h-.66v3.01h-.77V25h-1.56v.16c0 .38 0 .83.49.84h.59l-.01.5h-.9zm-2.69-3l-.03 2.54v.46h-.77v-.46l.04-2.55h-.66V23h.66v-.39l.01-.06v-.05a.17.17 0 00-.05-.1.29.29 0 00-.11-.03h-.45a.12.12 0 00-.1.04.23.23 0 00-.06.08V23h-.72v-.87l.02-.08v-.06a.2.2 0 01.09-.12.24.24 0 01.14-.04h1.72c.07 0 .13.01.17.04a.25.25 0 01.11.12l.01.06V23h.62v.49h-.63zm-2.46 0h-.67l-.01 1.1c.01.18.02.49.32.49s.34-.28.34-.28l.02-1.31zm.77 0l-.03 2.54v.46h-.78v-.46l.02-.47h-.54a.87.87 0 01-.88-.9l.01-1.17h-.42V23h3.16v.49h-.54zm-4.56.42l-.01.47h-.41c-.2.13-.36.3-.36.55 0 .2.12.35.38.41s.52-.39.52-.39l.02-1.46H32V23h3.73v.49h-.66l-.03 2.54-.01.46h-.77v-.73s-.44.14-.81.11c-.37-.03-.6-.29-.74-.57a.87.87 0 01.18-.9l-.63-.01v-.48h1.9zm-4.47 1.15l.02-1.58h-.44l.01-.48h3.03v.48h-.49v1.08l-.01.24v.17c0 .16-.04.22-.22.4-.17.18-.56.31-.75.21-.2-.1-.23-.27-.14-.39a.41.41 0 01.1-.08l.13-.09.07-.05.03-.05.02-.1v-.28l.02-1.06h-.6l-.02 1.54v.32c-.01.65.5 1 1.08 1.13l-.13.53c-1.02 0-1.71-.53-1.71-1.94zm-1.46-1.58l-.04 2.55v.46h-.77v-.46l.02-1.45h-.65c-.01.52-.66.85-1.05.39-.33-.4-.03-.9.44-.97h1.27v-.51h-2.08V23h3.53l-.01.49h-.66zm-5.17 1.58l.02-1.58h-.44l.01-.48h3.02v.49h-.48v1.07l-.01.24v.24c0 .32-.34.5-.64.52-.18.02-.32.04-.4-.13-.08-.18-.04-.28.17-.4l.09-.12.02-.1v-.27l.01-1.06h-.6l-.01 1.54c-.01.77.32 1.3 1.08 1.45l-.13.53c-1.15 0-1.7-.91-1.71-1.94zM27.04 38h-1.98l1.23-4h-4.66l-1.23 4h-1.98l2.7-9h1.97l-.89 3h4.67l.88-3h1.98l-2.7 9zm7.76-5.76c.23-1.09-.3-1.73-1.63-1.86h-.66l-.98 3.42h.72c1.44-.1 2.28-.6 2.55-1.56zm.94 1.71c-.42.41-1.1.8-2.05 1.18-.87.2-1.74.3-2.62.3L30.25 38h-2l2.71-9c1.45 0 3.26-.2 4.44.1.8.34 1.26.72 1.4 1.15.35 1.07-.3 2.96-1.06 3.7zm9.46 3.3c-1.22.5-2.35.75-3.4.75-2.6 0-5.28-1.63-4.46-4.48.96-3.4 5.73-5.08 8.89-4.37.38.09.83.25 1.38.51l-1.45 1.11c-.31-.19-1-.28-2.05-.28-1.94 0-4.37.96-4.96 3.03-.6 2.12 1.14 2.95 3.02 2.95.96 0 1.72-.18 2.27-.53l.76 1.3zM17.14 38l-4.9-4.96L10.7 38H8.53l2.8-9.41 4.85 5.4 2.14-7.46-2.05 1.72 4-11.26-1.43 8.08 2.55-1.56L17.14 38z" fill="#fff"/></svg>