<svg width="56" height="56" viewBox="0 0 56 56" xmlns="http://www.w3.org/2000/svg"><path fill="#F0F3FA" d="M0 0h56v56H0z"/><path d="m28.01 45-.67-.01c-8.82-.34-16-7.5-16.33-16.33-.18-4.67 1.5-9.1 4.74-12.45A17.02 17.02 0 1 1 39.8 40.24 16.86 16.86 0 0 1 28 45Zm0-33.35a16.2 16.2 0 0 0-11.79 5.01 16.21 16.21 0 0 0-4.56 11.98 16.4 16.4 0 0 0 15.7 15.7c4.5.17 8.75-1.45 11.99-4.56A16.37 16.37 0 0 0 28 11.65Z" fill="#0F2D3C"/><path d="M17.7 24.02v1.39c.6 0 .61.41.61.41v4.38s-.02.41-.6.41V32h2.9v-1.39c-.59 0-.61-.43-.61-.43v-2.13l1.55 3.94H24v-6.17s-.02-.42.58-.42V24h-2.91v1.4c.6 0 .6.4.6.4v1.91L20.8 24h-3.1v.01ZM31 25.83s.04-.42.63-.42V24h-3.2v1.4c.59 0 .57.41.57.41v4.38s.01.42-.58.42V32h3.22v-1.4c-.6 0-.64-.42-.64-.42v-4.35ZM27.5 25.83s.01-.42.6-.42V24h-3.2v1.4c.59 0 .6.41.6.41v4.38s-.02.42-.6.42V32h3.2v-1.4c-.59 0-.6-.42-.6-.42v-4.36ZM33.46 32h3.1v-1.4c-.56 0-.56-.42-.56-.42v-4.2c0-.45.21-.45.21-.45.34.02.32.5.32.5V27H38v-3h-6v3h1.47v-.97s-.02-.48.32-.5c0 0 .21 0 .21.38v4.28s.02.42-.55.42V32Z" fill="#102D3C"/></svg>