<svg width="56" height="56" viewBox="0 0 56 56" xmlns="http://www.w3.org/2000/svg"><path fill="url(#aiwltm4n5)" d="M0 0h56v56H0z"/><path fill-rule="evenodd" d="M5 22v12h3v-7.87L13.1 34H16V22h-3v7.46L7.95 22H5Zm12 0h3v12h-3V22Zm4 0h9v3h-3v9h-3v-9h-3v-3Zm18 11.3a6.2 6.2 0 0 1-2.88.7A6.06 6.06 0 0 1 30 28c0-3.31 2.74-6 6.12-6a6.2 6.2 0 0 1 2.88.7v3.2a3.8 3.8 0 0 0-2.5-.9c-1.93 0-3.5 1.34-3.5 3s1.57 3 3.5 3a3.8 3.8 0 0 0 2.5-.9v3.2ZM52 28a6 6 0 1 1-12 0 6 6 0 0 1 12 0Zm-3 0a3 3 0 1 1-6 0 3 3 0 0 1 6 0Z" fill="#fff"/><defs><linearGradient id="aiwltm4n5" x1="10.42" y1="9.71" x2="68.15" y2="76.02" gradientUnits="userSpaceOnUse"><stop stop-color="#1A1E21"/><stop offset="1" stop-color="#06060A"/></linearGradient></defs></svg>