<svg width="56" height="56" viewBox="0 0 56 56" xmlns="http://www.w3.org/2000/svg"><path fill="#F0F3FA" d="M0 0h56v56H0z"/><path d="M7.86 29H6.34l-.85 3H4l2.02-8h3.12c1.56 0 2.08 1.13 1.73 2.53-.4 1.6-1.33 2.47-3.01 2.47Zm1.52-2.45c.21-.84-.12-1.16-.82-1.16h-1.4l-.47 2.23h1.4c.7 0 1.08-.24 1.3-1.07ZM15.4 32l.92-3.62h-2.87L12.52 32H11l2.08-8h1.52l-.8 3h2.88l.8-3H19l-2.08 8H15.4ZM21.48 32c-.98 0-1.66-.3-2.03-.88-.5-.72-.59-1.76-.24-3.12a5.6 5.6 0 0 1 1.84-3.12 3.6 3.6 0 0 1 2.47-.88c.98 0 1.66.3 2.02.88.52.7.6 1.74.24 3.12a5.73 5.73 0 0 1-1.83 3.12 3.6 3.6 0 0 1-2.47.88Zm1.87-2.03c.45-.46.78-1.12 1-1.97.22-.85.22-1.5 0-1.97-.21-.46-.6-.7-1.17-.7s-1.08.24-1.53.7c-.46.46-.8 1.12-1.02 1.97-.21.85-.21 1.5 0 1.97.23.46.62.7 1.19.7a2.1 2.1 0 0 0 1.53-.7Z" fill="#EA1C28"/><path d="M51.53 22.6H41.8L39.16 32h-1.53l-1.53-5.56L33.87 35H4l.47-1.6h28.4l2.4-9.4h1.61l1.47 5.58L40.83 21H52l-.47 1.6Z" fill="#EA1C28"/><path d="M32.44 28.39H28.6l-.6 2.17h4.36l-.4 1.44H26l2.22-8H34l-.4 1.42h-4.16L29 27h3.82l-.38 1.39ZM49.94 32h-1.98l-.74-2.73L44.9 32H43l3.64-4.08L45.33 24h1.95l.68 2.6 2.15-2.6H52l-3.46 3.86 1.4 4.14ZM42.3 24H44l-2.3 8H40l2.3-8Z" fill="#EA1C28"/></svg>