<svg width="56" height="56" viewBox="0 0 56 56" xmlns="http://www.w3.org/2000/svg"><path fill="#F0F3FA" d="M0 0h56v56H0z"/><path d="m44.93 29.62-1.18.21c-1.43.26-2.9.21-4.3-.13l-1.08-.25a8.65 8.65 0 0 0-.37-.08v1.04c.31.05.62.11.93.19l1.06.25c1.13.28 2.31.32 3.46.1l1.34-.23c.06-.36.1-.73.14-1.1Zm-.6 3.13-.54.1c-1.41.25-2.86.2-4.26-.13l-1.05-.26a8.38 8.38 0 0 0-.48-.1v.45c.31.05.62.1.93.18l1.06.26c1.13.28 2.31.31 3.46.1l.74-.13.14-.47Zm-.97 2.56c-1.28.17-2.58.1-3.83-.2l-1.05-.25a8.38 8.38 0 0 0-.48-.1v.9l4.75.81c.21-.38.42-.76.6-1.16Zm-1.77 2.91-3.59-.6V38h-5.34l-2.63.6c-1.47.34-3 .31-4.46-.09L23.69 38H19v-.19l-4.06 1.08.37.42 3.36-.8a9.14 9.14 0 0 1 4.15-.03l3.77.85c1.16.27 2.36.24 3.5-.07l3.39-.93a9.14 9.14 0 0 1 4.22-.15l3.38.69.51-.65Zm-2.07 2.29-2.2-.45a7.22 7.22 0 0 0-3.33.12l-3.4.93c-1.44.4-2.96.43-4.42.1l-3.78-.86a7.22 7.22 0 0 0-3.27.02l-2.2.53c.31.26.63.52.95.76l1.61-.34a9.14 9.14 0 0 1 4.01.04l3 .71c1.2.29 2.47.26 3.66-.08l2.6-.75a9.14 9.14 0 0 1 5.2.05l.48.14c.38-.3.74-.6 1.09-.92Zm-3.26 2.36c-1-.14-2.01-.07-2.98.21l-2.6.75c-1.51.43-3.1.47-4.64.1l-2.99-.7a7.22 7.22 0 0 0-2.82-.1 16.93 16.93 0 0 0 16.03-.26Zm-22.54-5.64 4.94-1.31.34-.09v-.72l-2.01.53c-1 .26-2.03.37-3.06.32l-.98-.04c.24.45.5.88.77 1.31Zm-1.65-3.27 1.94.08c.84.04 1.68-.05 2.49-.26l2.47-.65H19v-.42l-2.01.53c-1 .26-2.03.37-3.06.32l-2.03-.09.17.49Zm-.7-2.43 2.64.12c.84.03 1.68-.05 2.49-.27l2.47-.64.03-.01v-1.11l-2.35.6c-1.01.26-2.05.37-3.1.33l-2.38-.1c.06.36.12.72.2 1.08ZM45 27.67l-1.6.28c-1.16.2-2.35.17-3.5-.1l-1.07-.26c-.27-.07-.55-.12-.83-.16v-1.15l.07.02 1.24.3c1.24.3 2.53.37 3.8.19l1.83-.26.06 1.14Zm-.27-2.72a17 17 0 0 0-33.57.68l1.45.21c1.18.17 2.38.1 3.52-.23l2.34-.65.53-.14V19h6.41l4.39 6.62.13-.03 1.83-.42V19H38v5.64l.45.1 1.24.3c1.05.26 2.13.32 3.2.17l1.84-.26Zm-33.71 2.28a17.25 17.25 0 0 0-.01 1.3l2.63.1c.85.05 1.7-.04 2.52-.25l2.5-.65.34-.08v-1.18l-.1.03-2.34.65c-1.35.38-2.78.48-4.17.28l-1.37-.2Zm20.45.9-.73-1.09 1.02-.23v1.26l-.3.07Zm-6.3 1.96v.94l.91.27c.5.15 1 .25 1.51.3l-.76-1.14c-.52-.07-1.03-.18-1.54-.33l-.12-.04Zm.12-1.96-.12-.03v-.14l.12.17Zm-.12 5.3v-.4l.37.11c1.09.33 2.22.47 3.35.42l.3.46a8.37 8.37 0 0 1-3.1-.32l-.92-.27Zm0 2v.99l.9.24c1.16.32 2.37.34 3.53.08l1.2-.28-.44-.67c-1.6.3-3.26.21-4.82-.25l-.37-.11Z" fill="#05007E"/></svg>