<svg width="56" height="56" viewBox="0 0 56 56" xmlns="http://www.w3.org/2000/svg"><path fill="#F0F3FA" d="M0 0h56v56H0z"/><path d="M8 22v11h1.5v-8.6l6.06 8.6H17V22h-1.5v8.62L9.57 22H8ZM35.24 33 31 22h1.53l3.46 9.66L39.52 22H41l-4.24 11h-1.52ZM44.76 22 49 33h-1.53l-3.46-9.66L40.48 33H39l4.24-11h1.52ZM8 33.5h41v.5H8z" fill="#393185"/><circle cx="24.5" cy="26.5" r="4" fill="url(#a2c2auznu)"/><path d="M29.34 25.26a5.02 5.02 0 0 1-4.87 6.27 5.04 5.04 0 0 1-4.3-2.4l-.01.01c.01.16 0 .53-.14.73a.8.8 0 0 1-.41.3l-.66-.18a6.54 6.54 0 0 0 11.8-5.23l-1.4.5Z" fill="#009846"/><path d="M19.45 22.76a7 7 0 0 1 5.24-2.62c1.68 0 2.85.59 3.22.88l.09-.11c-.4-.31-1.6-.91-3.31-.91a7.13 7.13 0 0 0-5.49 2.87c-.2.29-.33.78.12 1.32-.09.21-.16.42-.23.63-.24-.49-.53-.67-.64-.7-.18.29-.33.97.43 1.45v.04l-.09.59c-.3-.4-.6-.53-.72-.54-.13.31-.16 1.01.67 1.36l.03.1.05.43c-.36-.32-.66-.38-.77-.37-.07.32.02 1.02.9 1.22l.1.2.14.45a1.82 1.82 0 0 0-.74-.15c0 .33.25.93 1.06.99l.07.18c.14-.04.44-.26.44-.78 0-.36-.22-.64-.32-.73-.1.1-.29.39-.32.62-.07-.2-.15-.42-.21-.66.57-.53.4-1.13.23-1.37-.23.14-.37.35-.43.48l-.05-.45c.68-.42.61-1.05.49-1.32-.23.08-.4.24-.48.35l.06-.44c.77-.3.82-.93.74-1.23-.2.04-.36.14-.47.23.03-.12.07-.23.12-.35.78-.04 1.04-.58 1.08-.9a5.66 5.66 0 0 1 4.3-2.04c1.57 0 2.44.5 2.67.72l.1-.1c-.26-.26-1.18-.76-2.77-.76a5.8 5.8 0 0 0-4.44 2.13c-.25 0-.46.1-.54.15v-.04c.07-.14.15-.28.25-.42l.03-.04c.32-.07.78-.34.93-1.08a5.37 5.37 0 0 1 3.68-1.29 6.35 6.35 0 0 1 4.5 1.75l.1-.1a6.49 6.49 0 0 0-4.6-1.78c-1.76 0-3.02.6-3.92 1.45-.8.16-.92.74-.86 1.05l-.16.25c-.07-.3-.18-.5-.28-.6Z" fill="#EF7F1A"/><defs><linearGradient id="a2c2auznu" x1="24.5" y1="22.5" x2="24.5" y2="30.5" gradientUnits="userSpaceOnUse"><stop stop-color="#E95621"/><stop offset="1" stop-color="#FBBF04"/></linearGradient></defs></svg>