<svg width="56" height="56" viewBox="0 0 56 56" xmlns="http://www.w3.org/2000/svg"><path fill="#F0F3FA" d="M0 0h56v56H0z"/><path d="M31.59 20.65c-2.76 0-4.22-1.47-4.84-2.65H15v24h24V18h-2.75a5.62 5.62 0 0 1-4.66 2.65ZM17 32.42h6.15l4.36 1.24.13-.57v-9.72h7.02l-.25 12.37c-.8.93-2.6 2.94-3.27 3.44a8.6 8.6 0 0 1-5.55 1.86c-3.05 0-5.4-1-6.9-3.22-1.51-2.22-1.84-4.06-1.7-5.4Z" fill="#D0D0D0"/><path fill-rule="evenodd" d="m31.81 10.18-1.14.33A5.24 5.24 0 0 0 26 15.74c0 2.9 2.33 5.26 5.2 5.26 1.13 0 2.17-.36 3.02-.98 3.64-1.29 4.77-5.19 2.87-7.99a4.82 4.82 0 0 0-5.28-1.85Zm-.61 10.27a4.68 4.68 0 0 0 4.45-6.1l-2.36 2.38-.42-.42 2.55-2.57a4.72 4.72 0 0 0-.6-.97l-4.25 4.29-.43-.43 4.26-4.3a4.68 4.68 0 0 0-.9-.68l-2.67 2.7-.42-.42 2.53-2.56a4.68 4.68 0 0 0-6.4 4.37c0 2.6 2.09 4.71 4.66 4.71Z" fill="#27186B"/><path d="M16.8 32.38 19.63 31h5.58c0 2.15 1.48 2.37 2.22 2.4V23.34L30.2 22H37v8.5c0 4.25-3.13 7.17-4.81 8.1a10.2 10.2 0 0 1-6.6 2.58c-7.13 0-8.83-5.87-8.8-8.8Zm14.46-8.88h-3.41v9.24a2.78 2.78 0 0 1-5.56 0v-.13h-5.2c0 .37.48 8.3 8.35 8.3 6.3 0 8.28-5.29 8.56-7.93v-6.64l-1.67 1.67-.42-.4L34 25.5v-1.54l-4.37 4.36-.41-.42 4.41-4.41H32.1l-2.2 2.19-.41-.41 1.78-1.78Z" fill="#27186B"/></svg>