<svg xmlns="http://www.w3.org/2000/svg" width="56" height="56"><path fill="#273D93" d="M0 0h56v56H0z"/><path d="M26.86 45C36.34 45 44 37.39 44 28s-7.67-17-17.14-17A17.15 17.15 0 0015 15.73v.37a16.82 16.82 0 0111.74-4.75c9.28 0 16.8 7.47 16.8 16.68S36.03 44.7 26.75 44.7A16.82 16.82 0 0115 39.96v.3A17.15 17.15 0 0026.86 45zM15 39.76a15.25 15.25 0 009.78 3.53c8.42 0 15.24-6.77 15.24-15.12S33.2 13.05 24.78 13.05A15.25 15.25 0 0015 16.58v.32a14.85 14.85 0 019.63-3.52c8.2 0 14.84 6.59 14.84 14.72s-6.64 14.72-14.84 14.72A14.85 14.85 0 0115 39.3v.46zm0-1.17a13.45 13.45 0 008.19 2.76c7.42 0 13.44-5.97 13.44-13.34S30.61 14.68 23.2 14.68c-3.08 0-5.92 1.03-8.19 2.76v.3a13.04 13.04 0 017.98-2.7c7.2 0 13.03 5.78 13.03 12.92s-5.83 12.92-13.03 12.92a13.04 13.04 0 01-7.98-2.7v.4zm0-.83a11.93 11.93 0 006.49 1.9c6.58 0 11.9-5.29 11.9-11.81A11.93 11.93 0 0015 17.93v.57a11.37 11.37 0 016.3-1.89c6.28 0 11.37 5.05 11.37 11.27 0 6.23-5.09 11.27-11.36 11.27-2.33 0-4.5-.69-6.3-1.88v.5zm0-.76a10.5 10.5 0 005.06 1.28c5.8 0 10.49-4.66 10.49-10.4 0-5.75-4.7-10.41-10.49-10.41-1.84 0-3.56.47-5.06 1.29v.6a9.86 9.86 0 014.7-1.2c5.44 0 9.84 4.38 9.84 9.77s-4.4 9.76-9.84 9.76A9.86 9.86 0 0115 36.5v.5zm0-.74a9.12 9.12 0 003.66.76A9.05 9.05 0 0027.75 28a9.05 9.05 0 00-9.09-9.02 9.12 9.12 0 00-3.66.76v.65a8.34 8.34 0 013.27-.66c4.59 0 8.3 3.7 8.3 8.25a8.28 8.28 0 01-8.3 8.25 8.34 8.34 0 01-3.27-.66v.68zm0-1.14A7.6 7.6 0 0025.23 28 7.6 7.6 0 0015 20.87v.8a6.7 6.7 0 012.01-.32 6.63 6.63 0 016.66 6.6 6.63 6.63 0 01-8.67 6.3v.87zm0-1.2a6.08 6.08 0 007.06-5.91A6.03 6.03 0 0015 22.08v.7a5.39 5.39 0 01.23 0A5.26 5.26 0 0120.51 28c0 2.89-2.36 5.23-5.28 5.23a5.39 5.39 0 01-.23 0v.69zm0-1.85a4.13 4.13 0 004.02-4.11A4.13 4.13 0 0015 23.85v8.22z" fill="#fff"/></svg>