<svg xmlns="http://www.w3.org/2000/svg" width="56" height="56" viewBox="0 0 56 56"><path fill="#F0F3FA" d="M0 0h56v56H0z"/><path d="M18.54 20.8c.51-1.01-1.13-.73-1.13-.73-.6 0-.86.74-.98.95l-1.77 3.65c-.34.6-1.45 3.18-1.81 3.76a30.67 30.67 0 0 1 .27-4.96c.08-.79.25-1.66.1-2.45-.1-.48-.26-.52-.93-.59-.7-.07-1.18.98-1.41 1.48-.85 1.84-1.8 3.64-2.57 5.52-.22.55-.5 1.1-.73 1.64-.27.66-.53 1.3-.82 1.95-.32.67-1.3 2.9-1.57 3.6-.3.75-.37 1.37.85 1.34.2 0 .62.04 1.15-.55.41-.47.5-.9.74-1.55.87-2.28 1.49-3.8 2.44-6.06.1-.22.3-.87.52-1.36-.01.7-.12 1.55-.17 2.11-.17 2.05-.28 4.03-.45 6.06-.02.28-.1.6.03.86.12.25.43.32.67.35.98.12 1.08-.38 1.38-1.08.28-.63.44-1.13.68-1.77a98.99 98.99 0 0 1 3.1-7.23c.45-.88.82-1.7 1.3-2.68.37-.7.73-1.49 1.11-2.26zm33.44 5.51c-.1-1.17-1.65-.58-2.57-.4l-2.64.52c-.05-1.32-.03-1.06-.04-1.86-.03-1.17-.1-2.08-.16-3.1-.04-.65-.13-1.55-1.24-1.38-1.3.2-1.52.87-1.86 1.68-.9 2.13-.87 2.14-1.9 4.5-.08.19-.46 1.14-.52 1.33l-.22.06-1.48.34v-.05l.45-3.24c.13-.98.27-2.59.38-3.57.12-1.06-1.05-1.04-1.05-1.04-.73-.04-1 .18-1.46.8-.78 1.05-1.72 2.2-2.55 3.36a134.4 134.4 0 0 0-4 5.8c-.39.62-1 1.55-1.53 2.28-.35-.73-.65-1.54-.95-2.28-.43-1.05-.74-1.7-.94-2.4-.19-.62.04-.7.47-1.05 1.26-1 2.68-1.68 3.97-2.64.92-.67 2.01-1.42 2.9-2.12 0 0 .52-.32.8-.72.36-.5-.64-1.04-.64-1.04-.57-.1-.89.04-1.28.23-.4.2-.94.63-1.28.91-.76.62-1.73 1.35-2.48 1.96-.92.75-1.55 1.22-2.56 1.84l2.57-4.02c.85-1.13-1.39-1.45-2.24-.25-.8 1.07-1.33 2-1.95 2.98a66.98 66.98 0 0 0-3.95 7.3c-.46.97-.92 1.99-1.35 2.99-.2.49-.8 1.6.02 1.72 1.76.24 2.04-.63 2.44-1.68.65-1.72.86-2.04 1.28-3.1a23.7 23.7 0 0 1 1.3-2.76c.08.18.62 2.05.69 2.26.36 1 1 3.35 1.37 4.42.26.89.33 1.14 1.48 1.1.57 0 .81-.24 1.19-.98l2-3.89c.48-.08 1.18-.2 1.64-.3.08 0 .26-.05.52-.1.17-.02.31-.05.42-.08l.03-.01 1.63-.34c-.11.58-.46 1.86-.53 2.19 0 0-.75 3.04.22 3.2.61.1.93-.01.93-.01 1.14-.14 1.16-1.73 1.16-1.73l.61-4.14 1.33-.27-1.34 4.71c-.19.67-.33 1.52.82 1.52.93.06 1-.56 1-.56.01-.1.75-2.58.93-3.46.13-.58.56-2.05.74-2.64l1.02-.2 1.12-.19v1.42c.12 1.67 0 3.4.33 5.04.05.27.15.6.48.6.38 0 .5-.04.91-.07 1.18-.1.97-1.34.9-2.12a67.6 67.6 0 0 0-.28-2.47c-.09-.7-.15-1.64-.16-2.76v-.02l4.31-.76c.49-.14.9-.1.8-1.26zm-15.07 2.22v.02c-1.36.3-2.63.6-3.34.77a91.86 91.86 0 0 1 4.32-6.27c-.27 1.4-.7 3.99-.98 5.48zm7.8-1.78v.08l-1.75.35c.62-1.67 1.27-3.72 1.66-4.76-.03.77.12 3.57.09 4.33zm-18.93-4.98c.2-.39.66-1.16.09-1.46-.33-.16-.78-.27-1.13-.1-.28.17-.5.47-.64.76l-2.17 3.56c-.35.51-.69 1.15-1.4 1.23-.49.05-.83-.16-.82-.6.01-.46.26-1.06.46-1.45.56-1.12.64-1.5 1.18-2.61.53-1.07-1.2-1.31-1.62-.54-.3.55-.9 1.58-1.03 1.93-.24.64-2.07 3.66-1.27 4.86 1.01 1.35 3.71-.79 2.33 1.68-1.12 1.98-1.82 3.1-2.8 4.94-.2.39-.47.78-.54 1.24-.1.66.76.65 1.14.63.66-.05.97-.37 1.24-1l.47-1.05a71.68 71.68 0 0 1 4.33-8.25c.8-1.33 1.5-2.48 2.18-3.77z" fill="#FC2779"/></svg>