<svg width="56" height="56" viewBox="0 0 56 56" xmlns="http://www.w3.org/2000/svg"><path fill="#F0F3FA" d="M0 0h56v56H0z"/><path d="M31.93 15.9a2.96 2.96 0 0 0 2.97-2.95A2.96 2.96 0 0 0 31.93 10a2.96 2.96 0 0 0-2.98 2.95 2.96 2.96 0 0 0 2.98 2.95ZM24.04 16.09a2.96 2.96 0 0 0 2.98-2.95 2.96 2.96 0 0 0-2.98-2.95 2.96 2.96 0 0 0-2.97 2.95 2.96 2.96 0 0 0 2.97 2.95ZM19.98 22.87a2.96 2.96 0 0 0 2.97-2.95 2.96 2.96 0 0 0-2.97-2.95A2.96 2.96 0 0 0 17 19.92a2.96 2.96 0 0 0 2.98 2.95ZM35.9 22.87a2.96 2.96 0 0 0 2.98-2.95 2.96 2.96 0 0 0-2.98-2.95 2.96 2.96 0 0 0-2.98 2.95 2.96 2.96 0 0 0 2.98 2.95Z" fill="#053C73"/><path d="M28 22.7v15.97c0 .06.03.07.06 0a12.43 12.43 0 0 1 3.13-4.31c1.7-1.61 3.6-3.14 5.2-4.85.2-.21.42-.47.64-.76.28-.37.57-.73.83-1.1.4-.6.73-1.18 1-1.77.03-.1.06-.1.07.01.25 2.86-.14 5.64-1.67 8.08a18.51 18.51 0 0 1-3.5 3.96l-2.72 2.4c-1.09.98-2.06 2.03-2.9 3.17-.06.08-.14.21-.14.3V47h-1c-.01 0 0 0 0 0s0 .01 0 0V22.52c.02-.03.3.12.33.12.22.05.43.06.67.05Z" fill="#03914B"/><path d="M28.95 26.53a2.97 2.97 0 1 0 5.94-.07 2.97 2.97 0 0 0-5.94.07Z" fill="#053C73"/><path d="M28.15 22.85c-1.3.04-2.55-.54-3.07-1.82a2.96 2.96 0 0 1 3.56-3.95 2.95 2.95 0 0 1-.5 5.77Z" fill="#DA0619"/></svg>