<svg width="56" height="56" viewBox="0 0 56 56" xmlns="http://www.w3.org/2000/svg"><path fill="#181B1E" d="M0 0h56v56H0z"/><path d="M20.07 26.2a2.8 2.8 0 0 1 1.58-1.2c.2-.05.4.2.34.47-.22 1.04-.76 1.55-1.62 1.53-.3-.01-.47-.47-.3-.8Z" fill="#fff"/><path fill-rule="evenodd" d="M41.73 30.08c.7-.27 1.34-.37 1.93-.84.27-.21.84-.24.94-.24.12.02.17.09.17.2v.67c-.01.31.3.53.6.42.35-.14.7-.54 1.04-.72.38-.21.4-.45.42-.73 0-.12.01-.25.05-.39a8.94 8.94 0 0 1 2.6-4.21c.3-.26.68-.31 1.14-.14.11.04.17.12.17.23.04.94-.22 1.75-.77 2.41a4.2 4.2 0 0 0-.43.6c-.43.75-.9 1.38-1.55 1.95a.6.6 0 0 0-.14.7c.24.49.63.73 1.16.7.4-.01.72-.12 1-.33a6.48 6.48 0 0 1 1.8-.92c.13-.05.19.13.09.2a404.29 404.29 0 0 1-1.61 1.25c-.7.54-2.2.99-2.93.24-.28-.28-.48-.6-.6-.96-.05-.11-.12-.14-.22-.07-.82.53-1.03.9-2.09.9-.51-.03-.96-.17-.95-.78 0-.1-.05-.15-.15-.12-.27.07-.52.01-.76.2-.66.51-1.36.87-2.1 1.05a.5.5 0 0 1-.22 0 .49.49 0 0 1-.38-.44l-.02-.36c-.01-.12-.15-.2-.25-.14-.6.3-1.4.63-1.91 1.07-.3.26-.92.51-1.2.51-.28 0-.56-.33-.56-.66V30.1c0-.24.18-.46.25-.68.08-.22.03-.25-.15-.11-.74.59-1.37 1.13-2.2 1.6-.17.1-.4.1-.56.1a.85.85 0 0 1-.5-.28c-.24-.27-.53-.8-.93-.83-.83-.06-1.38.45-1.9.94-.55.5-1.06.98-1.83.8-.13-.03-.18-.1-.13-.23l.55-1.46c.23-.61.08-.73-.45-.35-.8.56-1.62.72-2.46 1.16-.34.17-.66.26-.96.25l-1.12-.02c-.1 0-.2-.04-.27-.12l-.7-.73c-.08-.09-.17-.1-.27-.02-.61.46-1.23.8-2.03.71a.43.43 0 0 1-.29-.14l-.76-.84a.68.68 0 0 0-.9-.1c-.95.7-2.81 2.2-3.86 1.86-.13-.04-.18-.21-.08-.32.43-.49 1.18-1.84.2-2.19-.47-.16-.96-.1-1.33.26a6.59 6.59 0 0 1-2.17 1.43c-.07.03-.14-.02-.15-.09a.3.3 0 0 1 .14-.3c.65-.48 1.23-.86 1.74-1.44.18-.2.12-.61.36-.72.35-.15.7-.23 1.04-.23.6 0 1.18.22 1.76.66.52.41.33 1.15-.02 1.58-.08.1-.1.21-.02.32.08.14.26.17.38.08.92-.65 1.92-1.36 2.7-2.17a1 1 0 0 1 1.33-.04c.3.28.26.93.46 1.3.08.15.28.22.45.15.27-.1.55-.24.83-.38.24-.12.42-.29.55-.5.29-.49.68-.93 1.18-1.33a2.3 2.3 0 0 1 1.81-.51c.42.06.6.58.34.9a4.85 4.85 0 0 1-1.87 1.35c-.38.15-.22.47.07.62.3.14.6.17.9.1 1.06-.28 1.98-.45 2.77-1.17.4-.37.94-.57 1.33-.97a.4.4 0 0 1 .28-.12l.57.01c.2 0 .34.1.38.32.12.52-.25.64-.37 1.05-.06.25-.2.47-.38.67-.1.08.2.26.31.15.47-.44 1-.83 1.6-1.17.76-.42 1.63-.15 1.82.75.07.37.5.56.81.36a9.16 9.16 0 0 0 2.2-2c.18-.21.32-.6.42-.9.02-.08 0-.11-.08-.11h-2.15c-.26 0-.38-.13-.38-.39v-.18c0-.3.15-.43.44-.43h2.83c.12 0 .23-.05.26-.17.12-.4.38-.5.78-.58.23-.04.43.19.37.41-.04.13-.1.13-.18.24-.09.12-.06.2.07.25.23.07.33.24.28.5-.02.12-.09.17-.2.18l-.41.02c-.1 0-.16.05-.2.14-.32.7-.58 1.5-.8 2.17-.13.4-.16.81-.18 1.22l-.01.18c-.02.26.29.4.46.23.51-.49 1.27-.87 1.97-1.15.49-.2.98-.46 1.49-.8.95-.66 1.8-1.2 2.78-1.62.2-.08.46-.1.8-.05.1.01.18.1.19.18 0 .04 0 .1-.07.13-1.2.67-2.2 1.48-3.31 2.4-.35.3-.32.36.11.2Zm-16.74-1.84-.94.56c-.2.12-.23.08-.08-.1.27-.33.59-.53.96-.6.3-.07.32-.02.06.14Zm23.03.05c-.1-.06.2-.67.65-1.36.45-.68.89-1.2.98-1.13.1.06-.2.67-.65 1.35-.45.69-.9 1.2-.98 1.14ZM4.24 29.03 4.4 29c.08 0 .16.07.16.15v1.74c0 .1.03.2.1.3.35.5.75.76 1.2.8 2.36.15 3.7-.96 5.24-2.45 1.48-1.43 1.07-3.2-.63-4.24-1.05-.64-2.63-.16-3.48.55l-.02.01a.15.15 0 0 1-.22-.07c-.04-.1.02-.17.07-.25l.21-.27c.11-.14.08-.22-.1-.23-.58-.05-1.13.64-1.3 1.08a7.16 7.16 0 0 1-1.44 2.25.76.76 0 0 0-.18.51c0 .12.13.2.24.15Zm6.1-2.17c-.7-1.32-2.47-.98-3.48-.33A1.9 1.9 0 0 0 6 27.7c-.26 1.06-.47 2.59.3 3.28.53.46 1.6.23 2.13-.07 1.36-.76 2.4-1.96 2.17-3.61-.02-.2-.2-.27-.28-.43Z" fill="#fff"/></svg>