<svg width="56" height="56" xmlns="http://www.w3.org/2000/svg"><path fill="url(#paint0_linear)" d="M0 0h56v56H0z"/><path d="M12 17.831V42h5c0-7.154.009-21.742.009-22.164 0-.423.409-.823.636-.835h20.79c.442.018.579.654.594.835v14.509c0 .451-.432.618-.595.656-4.662-.007-14.4-.017-14.857 0-.458.017-.57-.493-.577-.632V25.36h-5v10.578c0 .583.471 1.047.71 1.063 7.716.009 23.706.021 24.434 0 .728-.021.867-.901.846-1.195.008-5.746.018-17.397 0-18.036-.019-.639-.484-.77-.715-.755-9.773-.01-29.516-.025-30.297 0-.781.025-.977.555-.978.817z" fill="#fff"/><circle cx="20.5" cy="22.5" r="2.5" fill="#ED1C24"/><defs><linearGradient id="paint0_linear" x1="10.418" y1="9.712" x2="68.147" y2="76.017" gradientUnits="userSpaceOnUse"><stop stop-color="#1A1E21"/><stop offset="1" stop-color="#06060A"/></linearGradient></defs></svg>