<svg xmlns="http://www.w3.org/2000/svg" width="56" height="56" viewBox="0 0 56 56"><path fill="#F0F3FA" d="M0 0h56v56H0z"/><path d="M27 9.83V44c-4.33-.18-13-2.96-13-12.67-.05-2.02.94-7.08 5.3-11.12 5.44-5.05 6-10.43 5.95-11.21l1.75.83Zm2 12.83V11c4.33 3.15 13 11.64 13 20.39 0 8.74-8.82 12.05-13 12.61v-2.59c2.67-.83 8.45-3.76 8.45-8.83 0-5.06-5.63-8.73-8.45-9.92Zm0 6.53v-4.84c3.64 1.52 6.56 5.32 6.56 9.31 0 4-4.45 5.51-6.56 5.77v-1.19c1.35-.38 4.26-1.72 4.26-4.03 0-2.31-2.84-4.48-4.26-5.02Z" fill="#FFA708"/></svg>