<svg width="56" height="56" viewBox="0 0 56 56" xmlns="http://www.w3.org/2000/svg"><path fill="#F0F3FA" d="M0 0h56v56H0z"/><path d="M38.08 27.99c-.44.96-.81 1.86-1.13 2.7a.32.32 0 0 1-.22.21c-.55.15-1.08.13-1.58-.04a.2.2 0 0 1-.09-.07.24.24 0 0 1-.05-.1c-.38-1.81-.7-3.48-.96-5.01-.05-.3-.06-.76-.03-1.13.02-.37.2-.55.54-.55h3.06a.2.2 0 0 1 .17.09l.3.53c.02.04.07.07.11.07.05 0 .1-.02.13-.05.22-.27.42-.64.78-.64h2.02c.25-.02.48.04.7.16.26.15.16.85.13 1.11a91.94 91.94 0 0 1-.67 5.13c-.08.51-1.29.6-1.52.6-.77 0-.85-.46-.92-1.1-.08-.74-.19-1.47-.33-2.19-.02-.08-.05-.13-.1-.13-.14 0-.29.29-.34.4ZM28.07 26.49c.04.03.07.02.1-.03.27-.5.55-1.05.84-1.63.34-.69.58-.81 1.29-.83h2.45c.16.01.24.17.25.33.01.24-.05.47-.17.68-1.1 1.88-2.13 3.98-3.4 5.75A.67.67 0 0 1 29 31h-1.53c-.6 0-1.16-.08-1.33-.34a40.54 40.54 0 0 1-2.93-5.4c-.12-.27-.44-1.22.06-1.26h3.15c.28.02.48.2.61.46.29.58.57 1.19.86 1.81.04.1.1.16.18.22ZM16.85 28.82a.3.3 0 0 0 .28.27c.37.02.82.05.86.52a3.84 3.84 0 0 1-.05 1.07c-.02.18-.12.31-.3.32h-3c-.35 0-.56-.22-.64-.6a95.14 95.14 0 0 1-1-5.39c0-.65.55-.73 1.19-.83 1.24-.2 2.52-.17 3.78-.18 1.2 0 2.4.02 3.57.06.37.02.45.25.46.59v.2c-.18 1.93-.6 3.86-1.03 5.78-.06.25-.21.37-.46.37H19c-.1 0-.2-.04-.28-.1a.44.44 0 0 1-.15-.25c-.08-.41-.19-.87-.24-1.29-.13-.96-.27-1.88-.44-2.7-.03-.16-.13-.66-.34-.66-.17 0-.3.24-.33.38l-.35 2.12c-.02.1-.03.21-.02.32ZM46.85 28.82a.3.3 0 0 0 .28.27c.37.02.82.05.86.52a3.84 3.84 0 0 1-.05 1.07c-.02.18-.12.31-.3.32h-3c-.35 0-.56-.22-.64-.6a95.14 95.14 0 0 1-1-5.39c0-.65.55-.73 1.19-.83 1.24-.2 2.52-.17 3.78-.18 1.2 0 2.4.02 3.57.06.37.02.45.25.46.59v.2c-.18 1.93-.6 3.86-1.03 5.78-.06.25-.21.37-.46.37H49c-.1 0-.2-.04-.28-.1a.44.44 0 0 1-.15-.25c-.08-.41-.19-.87-.24-1.29-.13-.96-.27-1.88-.44-2.7-.03-.16-.13-.66-.34-.66-.17 0-.3.24-.33.38l-.35 2.12c-.02.1-.03.21-.02.32Z" fill="#2C2E81"/><path fill-rule="evenodd" d="M4.87 33.6c.03.32.56.4 1 .4.22 0 .42-.02.51-.04.2-.05.32-.23.34-.45.05-.55.1-1.08.13-1.6.04-.51.28-.98.72-.96l.43.02L9 31c.56 0 1.12-.03 1.68-.17.38-.1.6-.35.67-.77a50.2 50.2 0 0 0 .65-5.38c-.02-.41-.27-.66-.67-.68H4.15c-.04 0-.07.02-.08.06-.04.14-.06.28-.07.43-.01.88.02 1.73.1 2.44.14 1.32.4 3.55.77 6.67ZM7.43 29c.01.28.35.33.57.33.21 0 .5-.06.5-.32v-.04c-.1-.81-.22-1.6-.38-2.35 0-.05-.04-.11-.1-.11-.02 0-.04.02-.04.04l-.48 2.08c-.03.13-.07.26-.07.37Z" fill="#2C2E81"/></svg>