<svg width="56" height="56" viewBox="0 0 56 56" xmlns="http://www.w3.org/2000/svg"><path fill="#F0F3FA" d="M0 0h56v56H0z"/><path d="m30.56 15.22-.76 1.12a17 17 0 0 0-1.97 5.08 22.2 22.2 0 0 0-.79 3.78l-.45 3.52-.1 2.62c-.08.17-.1.31-.07.42a.95.95 0 0 1-.11.57c-.05 1.76.21 3.64.77 5.65a63.54 63.54 0 0 0 2.21 6.63c.28.7.53 1.4.73 2.1.01.04 0 .07-.03.1a.09.09 0 0 1-.1.02 1.3 1.3 0 0 1-.6-.58 321.8 321.8 0 0 0-2.36-4.14 1.32 1.32 0 0 0-.26-.6l-1.93-8.5c.02-.02.04-.04.05-.08a15.24 15.24 0 0 1 1.08-11.72l.78-1.64c.76-1.38 1.6-2.68 2.53-3.91l.7-.9 2.38-2.66c.08-.1.15-.08.2.03l.1.28c.04.13.02.24-.06.34l-1.94 2.47Z" fill="#D7117B"/><path d="M28.86 31.47c-.07-.08.07-.2.42-.34l.33-.14 1.34-.6c.48-.25.89-.51 1.22-.79.84-.68 1.63-1.38 2.36-2.1a10.72 10.72 0 0 0 2.46-3.34c.53-1.32.84-2.65.94-3.99.11-1.5-.08-2.8-.57-3.9a3.12 3.12 0 0 0-.61-.89c-.88-.9-1.78-1.86-2.7-2.86-.1-.12-.18-.24-.24-.38-.06-.12-.02-.16.1-.13a8.03 8.03 0 0 1 3.64 2.14c.45.49.8.9 1.06 1.24a7.16 7.16 0 0 1 1.36 4.75 15.57 15.57 0 0 1-1.67 5.1c-.47.92-1.01 1.76-1.65 2.53-.65.79-1.37 1.46-2.16 2.01a8.85 8.85 0 0 1-5.63 1.7Z" fill="#D7117B"/><path d="m29.88 14.77-.7.89a33.54 33.54 0 0 0-3.52-1.83.24.24 0 0 1-.13-.16c-.01-.05 0-.09.03-.12a.13.13 0 0 1 .11-.04c1.47.09 2.87.51 4.21 1.26ZM23.8 16.8l-.33.92a44.45 44.45 0 0 0-.68 2.02 7.9 7.9 0 0 0-.32 1.77c-.1 2.39-.1 5.37.02 8.94.03.96.17 1.78.43 2.43L23.3 34c1 2.53 2.13 5.04 3.37 7.51.13.18.22.38.26.6.65 1.3 1.35 2.58 2.1 3.84.18.3.33.6.44.9.06.16.02.2-.13.09a.96.96 0 0 0-.38-.19l-1.11-1.48a385.5 385.5 0 0 1-2.12-2.94 26.37 26.37 0 0 1-1.89-2.98 35.72 35.72 0 0 1-2.08-4.85.1.1 0 0 0-.07-.07.1.1 0 0 0-.06 0c.09-.18.06-.43-.08-.76a63.26 63.26 0 0 1-1.25-7.78c-.28-3.12.35-6.1 1.9-8.96l.36-.6c.58-.93 1.2-1.73 1.9-2.43.25-.27.38-.21.38.16 0 .14-.06.34-.18.6-.35.71-.63 1.43-.86 2.15Z" fill="#85BB29"/><path d="M30.56 15.22c.95.72 1.74 2.03 2.35 3.93 1.05 3.27.68 6.34-1.12 9.23-.32.52-1.16 1.44-2.51 2.75-.35.14-.49.26-.42.34-.18.17-.57.45-1.16.84-.41.26-.87.27-1.4.02a.96.96 0 0 0 .12-.57c.81-.41 1.51-.88 2.12-1.42.68-.6 1.19-1.26 1.53-1.97a13.87 13.87 0 0 0 1.56-6.22c0-.38-.04-.82-.11-1.3a34.63 34.63 0 0 0-.35-1.9 5.53 5.53 0 0 0-1.37-2.61l.76-1.12Z" fill="#85BB29"/><path d="m22.56 16.32-.37.61-2.63-.57a.23.23 0 0 1-.16-.12.4.4 0 0 1-.05-.2c0-.1.05-.15.15-.15 1.05-.1 2.07.04 3.06.43ZM27.85 45.27l1.1 1.48a21.54 21.54 0 0 1-4.57-3.91 51.22 51.22 0 0 1-5.45-7.26c-2.7-4.34-3.63-10.93-2.39-15.93.33-1.34.83-2.49 1.5-3.46.05-.07.12-.1.2-.1h.41c.1 0 .12.04.09.13a9.7 9.7 0 0 0-.8 3.45c-.1 1.75-.1 3.62-.03 5.62.05 1.11.26 2.33.63 3.65.3 1.04.72 2.21 1.26 3.51.94 2.23 2.04 4.5 3.3 6.78.37.68.87 1.4 1.5 2.18 1.07 1.29 2.15 2.58 3.25 3.86ZM23.8 16.8a7.3 7.3 0 0 1 2.85 2.77l-.78 1.63a9.84 9.84 0 0 0-2.4-3.48l.33-.91ZM27.83 21.42c.85 2.58.9 5.2.19 7.89a2.8 2.8 0 0 1-.54 1 10.38 10.38 0 0 1-1 1.03l.11-2.62c.42-1.13.57-2.3.45-3.52a21.99 21.99 0 0 1 .8-3.78Z" fill="#24116B"/><path d="M24.63 31.54a19.5 19.5 0 0 0 .16 1.39A3.75 3.75 0 0 1 23.3 34l-.38-1.13 1.71-1.34ZM21.55 33.67c.14.33.17.58.08.76-.22.07-.41.1-.57.08-.07 0-.1-.05-.09-.12.04-.4.23-.64.58-.72Z" fill="#24116B"/></svg>