<svg width="56" height="56" xmlns="http://www.w3.org/2000/svg"><path fill="#FF4612" d="M0 0h56v56H0z"/><path d="M40 26.864c-.093 7-5.162 16.232-8.725 19.332-.858.746-2.26 1.276-2.067.173.431-2.044.014-4.303-2.934-6.275-5.004-3.347-6.799-7.58-6.799-11.843 0-5.322 2.444-9.236 4.581-12.66 1.677-2.684 3.165-5.067 3.136-7.591 2.632 3.188.453 6.839-1.928 10.825-1.817 3.044-3.75 6.283-3.75 9.663 0 4.13 1.246 7.346 5.023 10.25.69.53 1.26-.05.721-.463-2.373-1.825-4.348-4.182-4.348-8.474 0-5.454 3.943-9.167 8.973-11.718 1.862-.943 4.357-2.502 5.373-4.285.625 2.686-.612 4.193-3.178 6.018-.268.19-.67.423-1.16.706-2.674 1.543-7.936 4.581-7.936 10.402 0 4.124 2.484 6.059 4.612 7.523.8.55 1.573-.09.497-.743-2.023-1.231-3.817-3.442-3.817-6.074 0-4.385 3.377-8.227 10.411-7.42l.067.007c1.125.129 2.311.264 3.104-.082 0 .338-.6 2.87-4.289 2.485-7.807-.815-8.53 8.176-3.544 8.595 3.596.303 4.572-3.208 4.919-4.694.604-2.588 2.235-3.425 3.058-3.657zM16 14.625s2.716 1.587 2.25 6.822c-.384 4.329-.414 6.881.35 9.632.076.273-.332.478-.451.215l-.097-.213c-.852-1.871-2.187-4.801-1.88-8.54.469-5.695-.172-7.915-.172-7.915z" fill="#fff"/></svg>