<svg width="56" height="56" viewBox="0 0 56 56" xmlns="http://www.w3.org/2000/svg"><path fill="#F0F3FA" d="M0 0h56v56H0z"/><path d="M32 26.52c0-6.05 8-9.54 12-10.52-2.67 2.68-7.13 7.94-7.13 10.95 0 3 4.82 6.7 4.82 10.84 0 4.13-5.86 7.67-7.33 8.21.73-.54 3.46-3.86 3.46-6.98 0-3.1-5.82-7.46-5.82-12.5Z" fill="#E67817"/><path d="M28 16h4v2h-4v3h3.46l.54 2h-4v14h-2V23h-.46L25 21h1v-5h2Z" fill="#7ABC55"/><path fill-rule="evenodd" d="M16 32.96c4.49-.4 8-4.04 8-8.46 0-4.7-3.96-8.5-8.85-8.5-.39 0-.77.02-1.15.07V37h2v-4.04Zm0-1.98a6.5 6.5 0 0 0 0-12.96v12.96Z" fill="#7ABC55"/></svg>