<svg width="56" height="56" xmlns="http://www.w3.org/2000/svg"><path fill="#F0F3FA" d="M0 0h56v56H0z"/><path d="M49.99 31.986c.02-.035.008-.097-.023-.118-12.713-8.823-30.255-9.067-43.59-1.184-.037.05-.034.139.017.173.257-.01.475.036.74-.196.203-.313.455-.342.714-.276.026.075.02.16-.025.211-.142.055-.269-.072-.411.022-.112.19-.383.221-.566.324l-.348.26a.304.304 0 00-.25-.013c-.128.058-.24.17-.248.291.119.034.215-.137.303-.04-.012.096-.273.1-.262.222.03.08.181-.033.235.02.042.042-.07.17 0 .211.026.02.116.037.174-.006.115-.019.143-.163.27-.198.116-.008.219.01.335-.026-.041-.103.04-.125.054-.188.47-.004.225-.27.75-.438.185-.09.467.108.542-.257.503.187.564-.245.901-.347.265.265.365-.101.492.054-.001.126-.081.21-.331.233-.181.017-.657.24-.975.57-.34-.006-.49.03-.437.21.275.3.467-.116.7-.174.282-.024.413-.335.639-.4.152-.026.181.236.333.168.196-.048.109-.183.201-.267.067-.059.232-.019.305-.12.105-.148.287-.16.363-.129.08.152-.243.146-.39.456-.142.2-.458.317-.42.412.03.06.09.042.175.011a1.3 1.3 0 00.468-.342c.171-.237.417-.268.548-.383.137-.12.142-.258.185-.263.038-.005.09-.024.116.117.013.071.158-.007.218.04.042.032.024.179-.064.286-.065.078-.33-.066-.45.026-.222.172-.253.441-.608.6-.07.031-.426.262-.132.27.022 0 .038-.093.11-.122.071-.028.184.046.28-.069.166-.198.32-.123.362-.142.068-.033-.008-.254.111-.29.138-.043.36-.256.386-.066.006.039-.13.218-.029.216.208-.002.358-.12.53-.107.103.008-.015-.197.091-.221.116-.027.241.086.372.063.156-.026.156-.292.327-.326.152-.03.1.145.273.134.18-.011.351-.207.577-.18.324.039.34-.085.541-.23.147-.107.18.073.38-.048.297-.18.202.08.417.037.064-.012-.035-.17.073-.197.102-.023.124.16.483-.213.25-.21.17.13.396.122.103-.003.05-.247.179-.294.197-.07.202.183.356.165.153-.018.18-.172.32-.111.165.07.116-.254.385-.172.306.1.308-.147.52-.204.14-.039.104.145.219.15.15.01.078-.164.309-.173.1-.005.018-.087.114-.128.086-.038.21.058.361.033.09-.015.133-.127.223-.17.098-.046.227.021.303-.008.135-.052.033.154.147.147.135-.009.212-.282.318-.303.155-.03.013.245.16.247.111 0 .292-.256.39-.304.049-.024.143.03.205.028.063 0 .103-.05.147-.026.061.031.064.083.128.083.13 0 .133-.204.245-.204.107 0 .018.255.201.261.204.009.254-.14.432-.177.073-.015.267-.15.338-.11.062.035.046.223.106.211.115-.022.106-.294.206-.306.04-.005.165-.052.228.007.063.058-.084.214.103.213.238-.002.167-.258.663-.354.103-.02.265-.053.407-.054.096 0 .185.031.23.027.204-.013.514-.213.527-.092.014.127-.59.22-.51.376.095.183.495-.227.695-.248.414-.105.314.15.678.117.468-.044.404-.448.682-.493.322-.047-.013.203.23.263.459.164.695-.195 1.15-.174.175-.052.363-.161.522-.155.103.094-.1.26.177.28.17-.02.384-.011.51-.09.073-.182.19-.321.379-.329.31-.083.297.119.195.212-.085.078-.114.14.01.223.097.002.158-.16.232-.147.067 0 .07.11.186.15.16-.017.135-.302.394-.078.078.069.158-.096.258-.074.08.016.217-.012.276.054.057.067-.095.222.095.244.105.005.091-.15.17-.225.048-.047.09-.044.12-.115.021-.084-.323-.255.122-.387.4-.015.07.203.292.332.184.03.421-.184.428.09.002.111-.312.075-.265.227.12.119.341-.156.705-.198.112-.013.2-.036.227.023.01.13-.136.108-.124.212.041.076.164.015.253.017.079-.008.082-.057.09-.137-.04-.099.365.047.83.006.112-.01.186.07.263.075.258.028.576-.188.746.026.06.098 1.091-.026 1.087.13.075.166-.394.117-.576.178-.13.025-.259.069-.16.199.037.063.12.056.216.049.152-.207.48-.065.697-.167.084-.084.144-.24.39-.22.137-.002.186.067.224.135.215.03.57-.118.684.241.115-.03.306-.262.46.062.267-.153.673-.04.8.149.313.047.575-.007.875.218.261-.01.617-.024.889.032.261-.027.279.084.23.212.072.038.114.056.16.215.403.034.709-.108 1.061.015.174.084.458.138.522.253-.01.067-.519-.098-.48.03.016.057.322.101.458.236.161.079.1-.017.267-.03.04-.004.112.057.177.06.09.003.175-.047.206-.023.05.04-.037.121.082.194.083.05.21.001.298.067.055.04.12-.012.163.024.044.038.055.131.103.147.123.072.259.033.405.066.244.055.514.17.711.372.225.05.322-.094.513-.025.108.039.146.202.362.337.116.072.275-.03.453.01.264.058.492.053.5.016.031-.162-.348-.22-.562-.166-.362.155-.233-.172-.362-.197-.347-.066-.541-.191-.451-.5.051-.07.18-.052.25.148.019.052.167-.005.212.029.08.062.093.186.184.232.092.046.175-.065.25-.018.13.08.269.086.31.044.06-.12-.117-.318-.468-.32-.15 0-.175-.252-.289-.279-.227-.055-.454-.04-.513-.055l-.492-.25c-.075-.053-.156-.07-.208.015.011.148-.12.142-.247.125-.17-.047-.361-.102-.449-.2-.049-.054.104-.218-.105-.242-.206-.013-.344.02-.55-.096-.18-.234.26.035.235-.159.091-.133-1.577-.245-1.389-.498.167.025.322.04.489.065.097-.05.063-.16-.069-.198-.23-.02-.421-.146-.67-.131-.256-.015-.399.187-.684.167-.15-.025-.48-.142-.243-.217.131-.043.102-.165-.05-.208-.053-.007-.184.041-.244.002-.069-.044-.044-.152-.143-.157-.085-.003-.18.15-.256.122-.079-.028-.053-.15-.121-.188-.049-.028-.12.003-.184-.003-.104-.009-.206-.036-.284-.003-.354.152-.64.001-1-.047-.122-.038-.168-.11-.037-.165.074.008.284.039.323-.04.024-.047-.134-.212-.082-.23.033-.01.209.147.242.132.059-.025.116-.083.181-.096.049-.01.143.134.192.124.08-.017.148-.115.216-.114.272.006.395.277.665.31.106.012.252-.059.358-.064.25-.012.002.174.204.239.228.073.523-.073.74-.037.118.021-.001.277.156.287.132.043.199-.131.32-.144.084-.008.154.133.215.144.106.018.183-.14.271-.104.042.017.084.072.138.089.054.016.121-.008.168.032.108.092-.08.223.157.252.09.01.196-.123.279-.132.136-.014.086.117.125.142.036.023.13-.142.19-.06.063.088-.179.257-.017.334.063.03.185-.115.284-.136.069-.015.123.086.155.113.03.024.217.029.286.052.094.031.249.058.219.143-.019.054-.39-.012-.508.012-.117.024.02.138.036.145.247 0 .478.173.754.015.167-.078.105.101.25.109.099.027.271-.041.313.078.036.093-.209.136-.134.344.11.076.148-.092.217-.09.07 0 .144.126.214.129.057.039.13.007.181.044.05.037.077.149.135.187.074.002.144-.054.217-.053.075.001.144.089.23.061.007-.01.037-.16-.033-.194-.067-.033-.23.05-.322.004-.244-.124-.507-.28-.406-.386a.237.237 0 01.208-.053c.042.012.075.048.11.087.037.038.075.08.126.104.079.038.2-.015.275.017.141.063.214.197.224.182.117.054.108-.19.317.023.042.078.157.093.21.163.061.078.058.25.18.245.086-.002-.046-.29.04-.293.066-.002.275.264.416.279.108.073.286-.036.394.038.084.057.1.296.185.354.109.032.16-.101.27-.07.108.033.275.23.384.262.118.06.383.024.504.077.187.083.054.234.206.282.109.027.19-.06.298-.035.15.036.235.298.474.22zm-21.297-4.26c.206.015.306-.225.464-.121.123.064-.012.121-.05.199-.034.07-.134.084-.183.117-.165.067-.376-.096-.23-.195zm3.618.267c.246.056.399-.255.619-.111.123.065.122.153.084.23-.034.07-.3.074-.35.107-.112.025-.11-.043-.19-.047-.198-.008-.254-.117-.163-.179zm5.744.05c-.045.124-.084.231-.26.255-.062.008-.168-.021-.262-.015-.166.01-.308.054-.348.018-.051-.14.094-.159.186-.192.086-.083.008-.149.104-.2.148-.049.286-.076.414-.021.124.019.174.088.166.155zm-5.305-1.122c.04-.118.186-.157.393-.14.148.032.283.127.246.215-.017.096-.106.12-.164.104-.076-.018-.102-.094-.178-.104-.067.003-.069.09-.179.06a.115.115 0 01-.118-.135zm2.183.113c.013.076-.096.039-.128.095-.069.121-.167.144-.322.13-.149-.03-.237-.12-.215-.185a.131.131 0 01.164-.108c.154.01.133.101.21.111.065-.002.087-.183.197-.151.09 0 .102.05.094.108zm-.927.472c.04-.117.194-.007.506-.025.14-.008.283-.05.384-.046.13.005.198.041.159.16-.046.077-.268.12-.325.104-.13-.02-.18-.035-.257-.045-.067.003-.302.045-.412.014-.09 0-.077-.118-.055-.162zm3.998.05c.04-.117.175-.151.392 0 .215.002.351.121.33.186-.019.096-.078.096-.136.08-.153-.01-.114-.111-.238-.112-.066.002-.125.069-.236.038-.09 0-.12-.133-.112-.191zm-1.282.05c-.099-.005-.059-.1-.1-.143-.052-.054-.13-.02-.13-.121.063-.155.56-.084.568.056.011.102-.054.14-.123.143-.081.003-.12.08-.215.065zm-.676.152c-.088-.014-.076-.05-.117-.093-.053-.055.024-.135.1-.18.15-.044.28-.012.293.075.011.04-.013.127-.092.146-.08.018-.088.067-.184.052z" fill="url(#paint0_linear)"/><path d="M28 15c2.203 0 4 1.797 4 4 0 2.203-1.797 4-4 4-2.203 0-4-1.797-4-4 0-2.203 1.797-4 4-4z" fill="#ECB940"/><path fill-rule="evenodd" d="M17 32.679c.913-.049 1.994-.226 2.004 1.055.01 1.281-1.102 1.096-2.004 1.075v-2.13zM16 37.8v-5.522c.04-.202.082-.219.285-.264.84 0 .692-.014 1.53-.014 1.62.103 2.267.971 2.177 1.941-.082.874-.909 1.532-2.265 1.608-.477 0-.25.029-.727.029v2.256c-.03.098-.088.154-.223.166h-.588c-.078-.01-.156-.047-.189-.2zm5.127-4.35h.739c.072 0 .13.08.13.175v4.198c0 .097-.058.175-.13.175h-.739c-.072 0-.13-.078-.13-.175v-4.198c0-.096.058-.174.13-.174zm.369-1.45c.38 0 .69.227.69.507 0 .278-.31.506-.69.506-.38 0-.69-.228-.69-.506 0-.28.31-.507.69-.507zm6.634 1.45h.74c.071 0 .13.08.13.175v4.2c0 .097-.059.175-.13.175h-.74c-.071 0-.13-.078-.13-.175v-4.2c0-.096.059-.174.13-.174zM28.5 32c.38 0 .69.227.69.507 0 .278-.31.506-.69.506-.38 0-.69-.228-.69-.506 0-.28.31-.507.69-.507zm3.627 1.559h.738c.072 0 .131.076.131.17v4.081c0 .094-.059.17-.13.17h-.74c-.072 0-.13-.076-.13-.17v-4.08c0-.094.058-.17.13-.17zM30.13 32h.74c.071 0 .13.076.13.168v5.664c0 .092-.059.168-.13.168h-.74c-.071 0-.13-.075-.13-.168v-5.664c0-.092.059-.168.13-.168zM26 34.488c-.752-.492-1.994.12-2 1.334.006 1.734 1.582 1.81 2 1.28v-2.614zM26.169 32h.657c.092 0 .174.074.174.164v5.11c0 .243-.537.611-.774.664-.075.017-3.298.565-3.225-2.02.163-2.64 2.786-2.286 2.999-1.774v-1.98c0-.09.076-.164.169-.164zm8.513.505l.706-.49c.107-.054.126.05.126.14l-.005 1.426c.294 0 .646-.006.939-.006.032.004.058.021.061.056v.311c.002.038-.03.057-.061.056l-.939.002c0 .98.005 1.853.005 2.833.024.61.63.58.981.606.295.014.277.306-.088.448-.402.157-.918.197-1.477-.189-.365-.282-.419-.618-.419-.919l.002-2.78h-.95c-.033-.002-.05-.016-.053-.045l.003-.33c.004-.03.025-.05.054-.05l.947.007-.003-.909c0-.092.087-.125.17-.167zm5.318 2.5c.087-.412-.496-.878-1.105-.803-.699.089-.934.742-.895 1.047.54-.056 1.461-.189 2-.244zm-2 .723c.887-.097 1.8-.212 2.686-.31.154-.019.321-.113.272-.413-.081-.795-.87-1.49-1.841-1.444-1.649.09-2.158 1.244-2.112 2.334.067 1.389.866 2.038 2.132 2.104.843.031 1.687-.625 1.83-1.218.15-.41-.256-.664-.457-.292-.783 1.007-2.458.733-2.51-.76zM32.496 32c.38 0 .69.227.69.507 0 .278-.31.506-.69.506-.38 0-.69-.228-.69-.506 0-.28.31-.507.69-.507z" fill="#25236F"/><defs><linearGradient id="paint0_linear" x1="18.721" y1="28.469" x2="39.561" y2="28.613" gradientUnits="userSpaceOnUse"><stop stop-color="#0080C3"/><stop offset=".18" stop-color="#0B70AD"/><stop offset=".406" stop-color="#0C6097"/><stop offset=".595" stop-color="#09568A"/><stop offset=".725" stop-color="#075285"/></linearGradient></defs></svg>