<svg xmlns="http://www.w3.org/2000/svg" width="56" height="56" viewBox="0 0 56 56"><path fill="#F0F3FA" d="M0 0h56v56H0z"/><path fill-rule="evenodd" d="M43.5 35a17 17 0 1 0-31 0h31zm-26.46 6C20 43.5 23.83 45 28 45c4.18 0 8-1.5 10.96-4H17.04zm1.5-21H22v1.91c.35-.63 1.17-1.9 2.78-1.91 2.01-.01 3.21 1.73 3.26 4.7.04 2.98-1.42 5.16-3.61 5.3-.53.03-1.52-.19-2.43-1.28V33h-2V21.91c0-.61-.18-1.3-1.45-1.3V20zM22 23.11c.28-.46 1.1-1.38 2.13-1.36 1.28.03 1.9 1.64 1.87 3.4-.03 1.77-.4 3.34-1.87 3.4a2.67 2.67 0 0 1-2.13-1v-4.44zM31 15h-3.55v.58c1.45 0 1.55.46 1.55.98V29h1.73l.31-1.33c.26.46.98 1.36 2.75 1.33 2.2-.04 3.75-2.1 3.71-4.99-.04-2.88-1.05-5.03-3.27-5.01A3.6 3.6 0 0 0 31 21.05V15zm2.46 5.7A3.23 3.23 0 0 0 31 22v4.73c.9.8 2.01.93 2.46.9 1.76-.17 2.04-1.88 2.04-3.49 0-1.64-.52-3.41-2.04-3.43z" fill="#0065FF"/><path d="M21.86 36.33v1.27h.55c.13 0 .22-.03.28-.09.06-.06.1-.18.12-.35h.08v1.09h-.08a.66.66 0 0 0-.05-.28.28.28 0 0 0-.12-.13.45.45 0 0 0-.23-.04h-.55v1c0 .17.01.28.03.33a.2.2 0 0 0 .1.1.4.4 0 0 0 .2.06h.1v.09H21v-.09h.1c.13 0 .22-.04.28-.12.03-.05.05-.17.05-.36v-2.08c0-.17 0-.27-.03-.33a.2.2 0 0 0-.09-.1.4.4 0 0 0-.2-.06H21v-.08h2.25l.03.7h-.08a.97.97 0 0 0-.14-.33.44.44 0 0 0-.18-.15.94.94 0 0 0-.35-.05h-.67zM24.36 36a.2.2 0 0 1 .16.07c.04.05.06.1.06.17s-.02.12-.06.17a.2.2 0 0 1-.16.07.21.21 0 0 1-.16-.07.24.24 0 0 1-.07-.17c0-.07.02-.12.07-.17.04-.05.1-.07.16-.07zm.18 1.14v1.75c0 .13.01.22.03.27.02.04.05.08.08.1.04.02.1.03.2.03v.09h-.99v-.09c.1 0 .17 0 .2-.03a.2.2 0 0 0 .08-.1.79.79 0 0 0 .03-.27v-.84c0-.24 0-.4-.02-.46 0-.05-.02-.09-.04-.1a.13.13 0 0 0-.1-.04c-.04 0-.09.02-.15.04l-.03-.09.62-.26h.1zM25.93 37.6c.24-.3.47-.46.69-.46.11 0 .2.03.29.09.08.06.14.15.19.29.03.1.05.24.05.44v.93c0 .13 0 .23.03.28a.2.2 0 0 0 .08.09c.03.02.1.03.2.03v.09h-1.01v-.09h.04c.1 0 .16-.01.2-.04a.25.25 0 0 0 .08-.14l.01-.22v-.9c0-.2-.02-.34-.07-.42-.05-.1-.13-.14-.25-.14-.17 0-.35.1-.53.3v1.16c0 .14.01.23.03.27.02.05.05.08.08.1.04.02.12.03.23.03v.09h-1.01v-.09h.04c.1 0 .18-.03.21-.08.04-.06.06-.17.06-.32v-.81c0-.26 0-.42-.02-.48-.01-.06-.03-.1-.05-.12a.13.13 0 0 0-.1-.03.4.4 0 0 0-.14.04l-.04-.09.62-.26h.1v.46zM28.44 36.49v.71h.48v.17h-.48v1.4c0 .15.02.25.06.3.04.04.09.07.15.07.05 0 .1-.02.14-.05a.32.32 0 0 0 .1-.14h.1a.76.76 0 0 1-.23.35c-.1.07-.19.11-.3.11a.38.38 0 0 1-.2-.06.37.37 0 0 1-.14-.17.98.98 0 0 1-.04-.35v-1.46h-.33v-.08c.08-.03.17-.1.25-.18a1.4 1.4 0 0 0 .37-.62h.07zM29.7 38.02c0 .32.07.58.21.76.15.19.33.28.53.28.13 0 .25-.04.35-.12.1-.08.18-.21.25-.4l.07.04c-.04.22-.13.42-.28.6a.7.7 0 0 1-.56.26.8.8 0 0 1-.63-.3c-.18-.2-.26-.48-.26-.82 0-.37.09-.66.26-.87.18-.21.41-.31.68-.31.23 0 .42.08.56.24.15.16.23.37.23.64h-1.42zm0-.14h.94a.98.98 0 0 0-.05-.3.46.46 0 0 0-.16-.2.4.4 0 0 0-.23-.08.45.45 0 0 0-.34.16c-.1.1-.15.24-.17.42zM33.34 38.55c-.05.29-.16.5-.32.66a.75.75 0 0 1-.53.23.77.77 0 0 1-.61-.3c-.17-.21-.26-.5-.26-.85 0-.34.1-.62.29-.83a.9.9 0 0 1 .69-.32c.2 0 .36.05.5.17.12.11.18.23.18.35a.2.2 0 0 1-.05.15c-.04.03-.09.05-.15.05-.09 0-.16-.03-.2-.09-.03-.03-.04-.1-.05-.19-.01-.1-.04-.16-.1-.21a.3.3 0 0 0-.2-.07.43.43 0 0 0-.37.17.98.98 0 0 0-.18.62c0 .26.06.49.18.69.12.2.28.3.49.3.14 0 .27-.06.39-.17.08-.07.16-.2.24-.4l.06.04zM34.47 36v1.6c.16-.2.3-.33.39-.38.1-.05.2-.08.29-.08.11 0 .21.03.3.1.08.07.14.17.18.32.03.1.04.29.04.56v.77c0 .13.01.23.04.28.01.04.04.07.07.09.04.02.1.03.2.03v.09h-1v-.09h.04c.1 0 .16-.01.2-.04a.26.26 0 0 0 .08-.14v-.99c0-.24 0-.4-.03-.47a.3.3 0 0 0-.11-.17.3.3 0 0 0-.18-.05.5.5 0 0 0-.23.06 1.1 1.1 0 0 0-.28.25v1.15a1 1 0 0 0 .02.27c.01.04.04.07.08.1a.5.5 0 0 0 .23.03v.09h-1.02v-.09c.1 0 .17-.01.22-.04a.17.17 0 0 0 .07-.1.87.87 0 0 0 .03-.26v-1.97c0-.25-.01-.4-.02-.46s-.03-.1-.05-.12a.13.13 0 0 0-.1-.03.52.52 0 0 0-.15.04l-.03-.08.61-.27h.1z" fill="#0364FA"/></svg>