<svg xmlns="http://www.w3.org/2000/svg" width="56" height="56"><path fill="#EA1F28" d="M0 0h56v56H0z"/><path fill-rule="evenodd" d="M28 24a7 7 0 100-14 7 7 0 000 14zm-1.9-10.56a.5.5 0 10-.47-.88A5.02 5.02 0 0028 22a5 5 0 002.37-9.44.5.5 0 10-.48.88A4.02 4.02 0 0128 21a4.02 4.02 0 11-1.9-7.56zM28 11.5c.28 0 .5.22.5.5v6a.5.5 0 01-1 0v-6c0-.28.22-.5.5-.5zM13 28.34v6.72c0 2-2.08 2.75-3.5 2.1V40H8V28.34c0-3.16 5-3.07 5 0zm-3.5 5.45c0 1.09 2 1.14 2 0V29.6c0-1.17-2-1.17-2-.01v4.2zM48 35.04v2.63c0 3.1-5 3.08-5 0v-9.33c.04-3.12 5-3.08 5 0v3.67c-.04.65-.21 1.11-.52 1.39.36.33.47.9.52 1.64zm-3.5 1.36c0 1.1 2 1.15 2 .01v-1.6s0-.63-.2-.81H45v-1h1.2c.3-.15.3-.77.3-.77V29.6c0-1.06-2-1.12-2-.01v6.81zM19 36.27v1.4c0 3.12-5 3.08-5 0v-9.24c0-3.22 5-3.2 5-.1v7.94zm-1.5 0V29.6c0-1.17-2-1.17-2-.01v6.67c0 1.15 2 1.23 2 0zM30 26v6.28c0 1.25-.85 2-1.76 2.24V40h-1.48v-5.48c-.92-.25-1.76-.95-1.76-2.24V26h1.5v5.01c0 1.2 2 1.2 2 .02V26H30zm10.5 14v-6h-2v6H37V28.34c0-3.05 5-3.16 5 0V40h-1.5zm-2-7h2v-3.4c0-1.12-2-1.26-2 .01V33zM31 28.34c.01-3.08 4.97-3.1 5 0V32h-1.5v-2.4c0-1.16-2-1.16-2-.01v6.8c0 1.18 1.92 1.18 2 .02V34H36v3.66c0 3.1-5.01 3.1-5 0v-9.32zm-6 9.32c0 3.11-5 3.13-5 0V26h1.5v10.4c0 1.07 2 1.17 2-.01V34H25v3.66z" fill="#fff"/></svg>