<svg xmlns="http://www.w3.org/2000/svg" width="56" height="56" viewBox="0 0 56 56"><path fill="#F0F3FA" d="M0 0h56v56H0z"/><path fill-rule="evenodd" d="M45 28a17 17 0 1 1-34 0 17 17 0 0 1 34 0zm-1 0a16 16 0 1 1-32 0 16 16 0 0 1 32 0zM20 18h11.39c3.1 0 5.61 2.52 5.61 5.63v1c0 3.12-2.51 5.87-5.61 5.87H27v4.69c0 1.33.83 2.31 2.15 2.31h.35v.5H20v-.5h.58c1.33 0 2.42-.94 2.42-2.27v-14.4a2.42 2.42 0 0 0-2.42-2.42H20V18zm10.39 10.5H27V20h3.39c2.55 0 4.61 1.73 4.61 4.1 0 2.38-2.06 4.4-4.61 4.4zm-4.39 0V20h-1v8.5h1zm0 8.43V30.5h-1v6.43c0 .33.16.56.49.57.33 0 .51-.23.51-.57z" fill="#E4B21E"/></svg>