<svg xmlns="http://www.w3.org/2000/svg" width="56" height="56" viewBox="0 0 56 56"><path fill="#E9282C" d="M0 0h56v56H0z"/><path d="M14 20v8H9l3-8h2zM15 20v8h5l-3-8h-2zM20.38 29H15v4h3l1 3h4l-2.63-7zM14 33v-4H8.62L6 36h4l1-3h3zM26 29h4v7h-4v-7zM31 35.99c2.5-.13 6-1.25 6-4.99 0-.77-.12-1.43-.3-2H31v6.99zM39 29v7h4v-7h-4zM44 35.99c2.5-.13 6-1.25 6-4.99 0-.77-.12-1.43-.3-2H44v6.99zM49.23 28A5.36 5.36 0 0 0 47 26c.5-.33 1.5-1.3 1.5-2.5 0-2.8-2-3.5-3-3.5H44v8h5.23zM43 20v8h-4v-8h4zM36.23 28H31v-8h1.5c1 0 3 .7 3 3.5 0 1.2-1 2.17-1.5 2.5.6.3 1.56.89 2.23 2zM30 20v8h-4v-8h4z" fill="#fff"/></svg>