<svg width="56" height="56" fill="none" xmlns="http://www.w3.org/2000/svg"><path fill="#B08D3F" d="M0 0h56v56H0z"/><circle cx="28" cy="29" r="15" fill="#35312F"/><path d="M25.275 7c.297.087.77.616.277 2.043.12-.234.45-.671.806-.552.372.124.11 1.616-.368 2.455.313-.332.726-.549 1.005-.014.013.24-.075.923-.505 1.867.29-.547.774-1.131 1.12-.423a9.775 9.775 0 01-.785 1.698c.241-.34.773-.938.977-.616.204.323-.665 1.253-1.125 1.677.368-.318 1.15-.874 1.337-.551.17.294-.472.989-.903 1.382.384-.33 1.029-.79 1.243-.576.238.238-.396 1.033-.743 1.401.247-.155.768-.42.87-.233.102.186-.042.403-.127.488.127-.057.386-.136.403 0 .017.136.007.41 0 .53.085-.056.268-.135.319 0 .05.137-.12.411-.213.531.114-.063.344-.152.361 0 .017.153-.233.361-.36.446h.212l-.458.776c-.02-.099-.116-.3-.333-.317-.27-.022-.689.774-.99 2.593-.3 1.82-.7 3.02-1.05 3.321.005-.65-.635-2.742-3.238-5.914v-.459c.194.153.624.459.784.459.16 0-.534-1.064-.901-1.596l.2-3.721c.184.089.604.434.818 1.101v-1.338c-.09-.222-.26-.749-.234-1.082a3.27 3.27 0 01.234-.884c.089-.479.303-1.546.45-1.986.184-.551.917-1.84.917-2.506z" fill="#B08D3F" stroke="#35312F" stroke-width=".2"/><path d="M23.81 30.826c-.319-.01-.962-.34-.986-1.58-.12-.05-.348-.27-.29-.77.073-.623.334-1.406 1.552-2.219 1.218-.812 1.509-.565 2.132-1.348.29-.015.952-.723 1.276-3.438.073-.604.331-1.891.784-2.204.048.043.15.22.174.58.304-.508 1.166-1.657 2.175-2.19 1.262-.667 2.045-.972 2.335-1.378.082-.053.279-.128.406 0 .128.128-.024.324-.116.406-.154.16-.429.528-.29.725.174.247 1.128-.953 1.895-1.427.766-.473 1.282-.613 1.713-.752.432-.14 1.589-.766 2.55-.92.962-.153 2.634-.738 2.76-.863.246.314.255 1.07-1.627 1.615.536-.147 1.456-.334 1.529-.083.097.335-.39 1.264-3.762 1.705h2.131c.128.405-.333 1.263-3.162 1.503.79-.056 2.131-.036 2.131.443 0 .509-2.108.636-3.163.636.623.014 1.907.097 2.063.311.195.269-.377.488-3.01.544.73.06 2.174.234 2.118.446-.063.236-.926.607-2.087.433.671.146 1.53.38 1.53.57 0 .292-.7.446-1.951.348.339.102 1.014.357 1.003.558-.014.25-.39.278-.892.376.251.014.753.067.753.167 0 .125-.32.279-.474.279-.153 0 .306.195.306.348 0 .123-.464.116-.696.098.13.074.39.247.39.348 0 .1-.4.088-.6.07.326.104.962.356.906.529-.055.173-.627.146-.905.111.255.135.766.427.766.516 0 .09-.724.037-1.087 0 .251.135.73.449.641.627-.089.178-.715-.149-1.017-.334.27.237.808.78.808 1.059 0 .278-.539-.19-.808-.46.172.204.516.632.516.71 0 .078-.771.033-1.157 0 .516.075 1.547.24 1.547.307s-.539.241-.808.32c.139.033.418.112.418.168 0 .07-.32.278-.418.32-.098.042.808-.195.808 0-.023.084-.218.281-.808.404.139.023.418.09.418.167 0 .078-.437.116-.655.126.106.06.34.198.418.264.097.084-.32.084-.418.084-.098 0 .418.279.418.418 0 .14-.67-.167-.794-.167-.126 0 .752.571.891.724.14.154.279.502.836.558.45.432 1.614 1.407 2.662 1.853 1.047.446 1.746 1.003 1.964 1.226l-1.045.126c.627.376 2.004 1.13 2.494 1.142.49.011 1.273.423 1.603.627l-.71.195c-.145-.065-.46-.22-.572-.32-.14-.126 0 .25 0 .32 0 .056-1.57-.822-2.355-1.268-.19-.13-.588-.293-.655.098-.005.065.053.225.32.348h-.529l-1.337-1.77c-.121-.088-.39-.211-.502 0-.112.212.464.971.766 1.324.014.13-.039.312-.362 0-.404-.39-.683-1.421-.878-1.574-.195-.154-.279-.572-2.424-1.129-.404-.088-1.366-.435-1.979-1.115.037.2.112.63.112.753 0 .122-.214-.2-.32-.377.022.121.055.382 0 .46-.057.078-.21-.18-.28-.32.005.144-.005.448-.083.515s-.21-.158-.265-.278c.037.079.09.262 0 .362-.089.1-.204-.079-.25-.181l-.196.097c-.125.06-.381.388-.404 1.213l-.125.25v.78l-.335-.083.265.725-.502-.195.084.543-.279-.237v1.115c-.134-.023-.457-.231-.668-.878-.013.241-.08.776-.255.985-.217.261-.667.276-.667.696.329.242.954.934.827 1.77a7.472 7.472 0 00-.305-.537c-.093-.14-.3-.145-.392-.13-.135-.238-.423-.732-.493-.813-.087-.101-.072.45-.522.537-.45.087-.827.043-1.102.493-.01-.256.197-.844 1.102-1.146.107-.072.287-.276.16-.508l-.594.11c-.005-.157-.068-.401-.335-.401-.266 0-.459.029-.522.132.058-.174.244-.522.522-.522.348 0 .856.39.929.39h.472c.237-.107.775-.383.775-1.159s.097-1.434.145-1.666c.058-.103.157-.39.087-.725-.087-.418-.493-.597-.624-.568-.13.03-.754.293-.74.667.012.3.615.525.914.685v1.027c-.004-.205-.43-.733-1.102-1.337v.655h-.246l-.145-.655c-.29.27-1.063.913-1.156 1.22-.005-.3.108-.988.909-1.522l-.32-.073c-.062-.082-.234-.223-.42-.223-.185 0-.28.19-.304.296-.024-.197 0-.677.36-.677s.547.168.547.234l.529.051c.178-.059.377-.382.435-.519l-1.35-1.395.204-.667h-.42l.217-.334c.203-.087.409-.087.537-.087.159 0 .42-.22.42-.512l-.754-.126a1.056 1.056 0 00-.566-.167c-.034.152-.243.527-.812.805l-.116-.164c.097-.102.296-.34.32-.474.022-.133-.127-.143-.204-.13-.092.146-.275.473-.275.604 0 .164-.276 1.358 0 1.745z" fill="#B08D3F"/><path d="M38.02 16.685c3.371-.441 3.86-1.37 3.762-1.705-.078-.267-1.12-.037-1.63.112 1.983-.546 1.978-1.324 1.727-1.644-.125.125-1.797.71-2.759.864-.961.153-2.118.78-2.55.92-.431.138-.947.278-1.713.752-.767.473-1.72 1.673-1.895 1.426-.139-.197.136-.566.29-.725.092-.082.244-.278.116-.406-.127-.128-.324-.053-.406 0-.29.406-1.073.71-2.335 1.378-1.01.534-1.87 1.682-2.175 2.19-.024-.36-.126-.537-.174-.58-.453.313-.711 1.6-.784 2.204-.324 2.715-.986 3.423-1.276 3.438-.623.783-.914.536-2.132 1.348-1.218.813-1.48 1.596-1.552 2.22-.058.498.17.72.29.768.023 1.242.667 1.571.986 1.581-.275-.387 0-1.58 0-1.745 0-.131.184-.458.276-.604.077-.013.226-.003.203.13-.023.134-.222.372-.319.474l.116.164c.569-.278.778-.653.812-.805.267 0 .489.112.566.167l.754.126c0 .292-.261.512-.42.512-.128 0-.334 0-.537.087l-.218.334h.42l-.202.667 1.349 1.395c-.058.137-.256.46-.435.52l-.529-.052c0-.066-.187-.234-.547-.234-.36 0-.384.48-.36.677.024-.106.119-.296.304-.296.186 0 .358.141.42.223l.32.073c-.8.534-.914 1.221-.909 1.521.093-.305.866-.95 1.156-1.22l.145.656h.246v-.655c.671.604 1.098 1.132 1.102 1.337v-1.026c-.3-.161-.902-.386-.913-.686-.015-.374.609-.638.74-.667.13-.029.536.15.623.568.07.334-.029.622-.087.724-.048.233-.145.891-.145 1.667s-.538 1.052-.775 1.159h-.472c-.073 0-.58-.39-.929-.39-.278 0-.464.348-.522.522.063-.103.256-.132.522-.132.267 0 .33.244.335.4l.594-.108c.127.232-.053.435-.16.507-.905.302-1.112.89-1.102 1.146.275-.45.652-.406 1.102-.493.45-.087.435-.638.522-.537.07.081.358.575.493.812.092-.014.3-.008.392.13.093.14.242.417.305.537.127-.835-.498-1.527-.827-1.769 0-.42.45-.435.667-.696.174-.209.242-.744.255-.985.211.647.534.855.668.878v-1.115l.28.237-.084-.543.501.195-.265-.725.335.084v-.78l.125-.251c.023-.825.279-1.152.404-1.213l.195-.097c.047.102.162.281.251.181.09-.1.037-.283 0-.362.056.12.187.345.265.278.078-.067.088-.371.084-.515.07.14.222.398.278.32.056-.078.023-.339 0-.46.107.177.32.5.32.377s-.074-.553-.11-.753c.612.68 1.574 1.027 1.978 1.115 2.145.557 2.23.975 2.424 1.129.195.153.474 1.184.878 1.574.323.312.376.13.362 0-.302-.353-.878-1.112-.766-1.324.111-.211.38-.088.502 0l1.337 1.77h.53c-.268-.123-.326-.283-.32-.348.066-.39.464-.228.654-.098.785.446 2.355 1.324 2.355 1.268 0-.07-.14-.446 0-.32.111.1.427.255.571.32l.71-.195c-.33-.204-1.111-.616-1.602-.627-.49-.011-1.867-.766-2.494-1.142l1.045-.126c-.218-.223-.917-.78-1.964-1.226-1.048-.446-2.211-1.421-2.662-1.853-.557-.056-.696-.404-.836-.558-.14-.153-1.017-.724-.892-.724.126 0 .795.306.795.167 0-.14-.516-.418-.418-.418.097 0 .515 0 .418-.084a3.92 3.92 0 00-.418-.264c.218-.01.655-.048.655-.126s-.28-.144-.418-.167c.59-.123.785-.32.808-.404 0-.195-.906.042-.808 0 .097-.042.418-.25.418-.32 0-.056-.28-.135-.418-.168.269-.079.808-.253.808-.32s-1.031-.232-1.547-.307c.386.033 1.157.078 1.157 0s-.344-.506-.516-.71c.27.27.808.738.808.46 0-.28-.539-.822-.808-1.06.302.186.928.513 1.017.335.09-.178-.39-.492-.64-.627.361.037 1.086.09 1.086 0s-.51-.38-.766-.516c.278.035.85.062.905-.111.056-.173-.58-.425-.905-.53.2.02.599.031.599-.07 0-.1-.26-.273-.39-.348.232.02.696.026.696-.097 0-.153-.46-.348-.306-.348.153 0 .474-.154.474-.28 0-.1-.502-.152-.753-.166.502-.098.878-.126.892-.377.011-.2-.664-.455-1.003-.557 1.251.098 1.95-.056 1.95-.348 0-.234-1.3-.534-1.95-.655 1.367.348 2.438-.084 2.508-.348.056-.212-1.389-.386-2.118-.446 2.633-.056 3.205-.275 3.01-.544-.157-.214-1.44-.297-2.063-.311 1.055 0 3.163-.127 3.163-.636s-1.514-.5-2.27-.432c2.953-.223 3.431-1.102 3.301-1.514H37.95" stroke="#35312F" stroke-width=".2"/><path d="M23.26 29.332c-.059.058-.157.189-.088.247.087.072.087-.201.087-.247zm.144-.926c.023-.393.452-.748.664-.877-.03.81-.267 1.166-.38 1.242-.105.042-.308.027-.284-.365z" fill="#35312F"/></svg>