<svg xmlns="http://www.w3.org/2000/svg" width="56" height="56"><path fill="#F0F3FA" d="M0 0h56v56H0z"/><path d="M27.46 22.86c-6.08 0-18.17.5-23.46.76l9.62.36c.41.02.54.4.56.6.05.93.23 1.63.31 1.86v4.1c-.01.27.22.42.33.46h.52v-3.54c0-.37.07-.4.2-.57.1-.15.17-.36.2-.45l.2-2.13c.05-.58.6-.7.87-.7h28.62c.1 0 .28-.04.27-.18-.02-.13-.18-.17-.27-.17L35.36 23a39.5 39.5 0 00-2.34-.3h-3.06c-.54 0-.66-.37-.65-.55l-.18-3.4-.6-.76-.28 4.16c.02.54-.52.7-.79.7zM40.43 33l-28.38.39c2.13.48 11.12.58 15.36.56.5-.02.7.37.73.56.21 1.9.6 3.12.77 3.49.03-1.14.18-3 .25-3.8 0-.26.45-.32.67-.31l21.77-.25.4-.4h-3.62a2.5 2.5 0 00-.76-.17h-4.24c-.46-.02-.64-.54-.68-.8L41.86 26l-.6 6.27c-.05.64-.57.75-.83.73z" fill="#DC2616"/><path fill-rule="evenodd" d="M21.9 26h1.99a1.5 1.5 0 010 3h-1.73v2h-.68v-5h.42zm.26 2.46v-1.92h1.66a.96.96 0 010 1.92h-1.66zM31.42 26h1.99a1.5 1.5 0 110 3h-1.73v2H31v-5h.42zm.26 2.46v-1.92h1.66a.96.96 0 010 1.92h-1.66z"/><path d="M28.06 26c1.4 0 1.77 1 1.78 1.5h-.62c-.13-.61-.61-.92-1.16-.94-.55-.02-1.2.2-1.22.79-.02.47.9.72 1.36.78 1.46.24 1.79 1.05 1.8 1.5.01.44-.36 1.37-1.94 1.37s-2.03-1.08-2.06-1.64h.63c.1.94 1.15 1.1 1.43 1.09.28-.01 1.33-.12 1.3-.83-.04-.56-.84-.82-1.24-.87-2.02-.35-1.93-1.3-1.93-1.4 0-.11.12-1.34 1.87-1.35z"/></svg>