<svg xmlns="http://www.w3.org/2000/svg" width="56" height="56"><path fill="#0095DA" d="M0 0h56v56H0z"/><path fill-rule="evenodd" d="M4 28a4 4 0 014-4h1a4 4 0 014 4v2c0 .73-.2 1.41-.53 2H14v2H8a4 4 0 01-4-4v-2zm2 .5a2.5 2.5 0 015 0v1a2.5 2.5 0 01-5 0v-1z" fill="#fff"/><path d="M15 30.29V24h2v5.95c0 1.06.51 2.05 2 2.05s2-1.21 2-2.05V24h2v6.29c0 1.21-.83 3.71-3.85 3.71S15 31.94 15 30.29zM27.93 24H32v2h-3.26C26.52 26 26 27.24 26 28h6v2h-6c0 1.91 1.93 2 2.74 2H32v2h-4.07c-1.39 0-3.93-.85-3.93-4.93 0-4.16 2.6-5.07 3.93-5.07zm17.77 0H52v2h-5.64c-.46-.02-1.37.07-1.36 1 .01.93.91 1 1.36 1h2.15c.63 0 3.44-.13 3.49 2.98.04 2.49-1.75 3.02-2.9 3.02H43v-2h5.68c.58 0 1.35-.09 1.32-1-.03-.91-.8-1-1.32-1h-2.54C45 30 43 29.64 43 26.87 43 24.8 44.46 24 45.7 24zm-10 0H42v2h-5.64c-.46-.02-1.37.07-1.36 1 .01.93.91 1 1.36 1h2.15c.63 0 3.44-.13 3.49 2.98.04 2.49-1.75 3.02-2.9 3.02H33v-2h5.68c.58 0 1.35-.09 1.32-1-.03-.91-.8-1-1.32-1h-2.54C35 30 33 29.64 33 26.87 33 24.8 34.46 24 35.7 24z"/></svg>