<svg width="56" height="56" viewBox="0 0 56 56" xmlns="http://www.w3.org/2000/svg"><path fill="#F0F3FA" d="M0 0h56v56H0z"/><path fill-rule="evenodd" d="M28 45a17 17 0 1 0 0-34 17 17 0 0 0 0 34Zm0-2.21a14.79 14.79 0 1 0 0-29.58 14.79 14.79 0 0 0 0 29.58Z" fill="#EFF111"/><path d="M32.33 19.43c.68-.03 1.3-.22 1.92-.48.05-.02.09-.01.13.03l1.6 1.74c.03.03.03.07 0 .1-1.1.9-1.95 2.03-1.78 3.53.12 1.08.57 2.11 1.02 3.09.14.3.27.7.37 1.17.17.74.15 1.64.06 2.37a5.64 5.64 0 0 1-1.99 3.41c-1.17 1-2.5 1.8-3.87 2.5-.66.35-1.3.7-1.9 1.05a.37.37 0 0 1-.4 0c-2.02-1.16-4.15-2.33-5.8-4a5.46 5.46 0 0 1-1.69-3.8c-.03-1.1.26-2.14.75-3.18.75-1.55 1.67-3.65.66-5.3a5.29 5.29 0 0 0-1.17-1.38.07.07 0 0 1 .02-.05l1.84-1.73a.12.12 0 0 1 .14-.02c.82.45 1.7.76 2.62.66.73-.08 1.35-.4 1.85-.98.06-.07.14-.11.24-.12.7-.04 1.5-.05 2.38-.03.13 0 .25.03.33.14a3.37 3.37 0 0 0 2.67 1.28Z" fill="#322652"/><path d="M28.87 23.2a.9.9 0 0 0-.05.6c0 .04.05.07.1.06a.63.63 0 0 1 .35.02c.27.11.26.22-.02.3-.08.03-.2.05-.36.05-.04 0-.06.02-.08.06-.06.2-.07.4-.02.6-.09.81-.13 1.63-.13 2.46 0 .08-.01.23-.05.44-.03.21 0 .36.11.46l-.6-.02a488.69 488.69 0 0 1 .16-5.55c.04-.6.04-1.4.02-2.42 0-.05-.06-.14-.1-.07-.22.39-.3.73-.31 1.21a348.3 348.3 0 0 0-.2 5.46c-.02.47-.06.94-.13 1.4l-.63-.04.2-3.45-.03-.5c0-.05-.02-.08-.07-.08-.15 0-.3-.03-.43-.08a.1.1 0 0 1-.07-.08c0-.08.03-.12.1-.14.13-.04.27-.05.42-.04.04 0 .09-.03.1-.07l.08-.67.14-2.22c.04-.67.26-1.48.7-1.99.1-.1.17-.1.22.05.22.63.4 1.26.54 1.88.03.14.04.27.04.41a50.5 50.5 0 0 1-.07 1.8c0 .05.02.1.07.16Z" fill="#DA2E30"/><path d="M23.16 24.61c.02-.19.14-.3.06-.5-.14-.38.12-.88.4-1.12.05-.03.11 0 .12.05.01.39-.05.78-.3 1.08a.97.97 0 0 0-.2.53h-.04c-.03 0-.04-.01-.04-.04ZM27.23 23.11l-.09.67c0 .02-.01.04-.03.05a.09.09 0 0 1-.06.02c-.15 0-.29 0-.41.04-.08.02-.11.06-.1.14 0 .04.02.07.06.08.13.05.28.08.43.08.05 0 .07.03.07.07l.03.5-.72.2a.08.08 0 0 0-.04.04 319.4 319.4 0 0 0-.06 2.55c0 .17.02.34.08.5.01.04.04.06.07.08.15.1.3.12.47.09l.63.04.56-.03.6.02c.32-.2.58-.46.8-.78.44-.7.45-1.4.02-2.1a.92.92 0 0 0-.75-.47c-.05-.22-.04-.42.02-.6.02-.05.04-.07.08-.07.16 0 .28-.02.36-.04.28-.1.29-.2.02-.3a.63.63 0 0 0-.35-.03.08.08 0 0 1-.1-.06.9.9 0 0 1 .05-.6c.52 0 1.03.03 1.52.06a.8.8 0 0 1 .37.12c1.22.79 1.61 2.2 1.24 3.62a5.23 5.23 0 0 1-1.36 2.23.1.1 0 0 0-.02.13c.31.7.6 1.4.87 2.12.04.1.06.2.08.3.03.18.18.3.24.47l.23.58a.2.2 0 0 0 .1.1l.35.16c.06.03.1.07.12.13.07.19.1.4.1.63-.01.09-.05.13-.14.13l-2.5-.07a.09.09 0 0 1-.08-.08c-.02-.23 0-.47.11-.67.05-.09.08-.16.06-.26a1.71 1.71 0 0 0-.44-.78c-.26-.26-.14-.54-.24-.85-.16-.42-.3-.86-.44-1.3a.14.14 0 0 0-.07-.09 5.95 5.95 0 0 0-2.25-.18c-.28-.03-.45.12-.49.48-.11 1-.14 1.87-.08 2.6.02.32.18.62.27.94.02.05-.02.1-.08.1-.87-.05-1.75-.07-2.64-.06-.05 0-.08-.03-.08-.08v-.62c0-.05.03-.08.08-.1.46-.14.74-.37.85-.68.07-.18.09-.42.07-.74a8.83 8.83 0 0 1-.02-.73l.02-1.14c0-.23-.12-.42-.22-.61-.27-.54.27-.7.28-1.13l.06-2.4c.02-.4-.44-.36-.7-.33a.07.07 0 0 1-.07-.08l.08-1.95c0-.07.04-.1.12-.1l3.06.04ZM33.17 24.95c.04.03-.04.09-.07.05a.67.67 0 0 1-.15-.4.14.14 0 0 0-.05-.1c-.32-.29-.46-.68-.4-1.2 0-.02.02-.04.05-.04h.02c.38.28.53.66.44 1.17-.04.21.02.38.16.52ZM22.62 24.44c.02.27.12.49.22.48.1 0 .16-.24.14-.51-.03-.28-.12-.5-.22-.49-.1.01-.16.24-.14.52ZM33.28 24.67c-.02.28.05.52.14.53.1 0 .18-.23.2-.52 0-.29-.06-.52-.15-.53-.1 0-.18.23-.2.52ZM23.27 24.9c.07-.2.2-.37.4-.5.05-.02.1.01.1.07 0 .07-.02.13-.05.2-.14.24-.23.44-.56.44-.08 0-.12.04-.13.1l-.1.64c0 .03-.05.03-.06 0-.01-.2.02-.42.1-.63.05-.13.13-.22.23-.25a.1.1 0 0 0 .07-.06ZM33.23 25.42c.09.1.12.23.09.37-.02.1-.05.1-.07 0l-.08-.3a.1.1 0 0 0-.07-.08 1.76 1.76 0 0 0-.17-.05c-.25-.05-.44-.34-.46-.58 0-.16.04-.18.15-.06.21.22.42.46.61.7ZM22.56 26.25l-.37-.46a.1.1 0 0 1-.02-.07v-.7c0-.1.15-.14.2-.05l.24.4.02.04.12.76c.02.1-.12.16-.19.08ZM34.07 25.9l-.27.5c-.05.1-.2.08-.21-.03l-.06-.4v-.07l.3-.67c.04-.11.21-.08.22.04l.03.57-.01.06ZM23.04 26.03c-.16.36-.18.71-.04.78.14.06.38-.19.54-.55.16-.37.18-.72.04-.78-.14-.07-.38.18-.54.55ZM32.7 26.51c.16.38.4.63.53.57.13-.06.1-.41-.05-.79-.17-.37-.4-.62-.54-.56-.13.06-.1.4.06.78ZM21.97 26.9c.14.37.36.63.49.58.13-.06.13-.4-.01-.77s-.36-.63-.5-.58c-.12.06-.12.4.02.77ZM33.78 26.99c-.14.37-.14.72-.02.77.13.05.35-.21.49-.59.14-.37.15-.72.02-.77-.13-.05-.35.22-.49.59Z" fill="#F5E437"/><path d="M22.78 28.68c0 .04-.01.07-.05.07-.48.07-.84-.48-.98-.9a.5.5 0 0 1 0-.3.09.09 0 0 1 .13-.05c.27.18.5.41.65.68a.3.3 0 0 1 .05.19c-.01.07 0 .13.02.19.07.13.1.13.13-.02.02-.11.05-.2.1-.29a.16.16 0 0 0 .03-.1c-.04-.47.1-.85.45-1.15.04-.03.1-.01.12.04.14.42.1 1.14-.38 1.37a.14.14 0 0 1-.1 0c-.14-.03-.17.09-.17.27ZM32.78 28.08c.12.4.33.7.47.65.15-.04.18-.4.06-.8-.1-.41-.32-.7-.46-.66-.15.04-.18.4-.07.8ZM33.56 28.92a1.66 1.66 0 0 1 .82-1.18.09.09 0 0 1 .08.03l.02.03c.02.09.02.17 0 .25-.1.5-.38.83-.82.97a.35.35 0 0 0-.2.17c-.04.07-.06.06-.06-.02 0-.07.03-.12.1-.16a.13.13 0 0 0 .06-.1ZM23.12 29.54l.04-.81c0-.03 0-.05.02-.07l.15-.26c.07-.12.26-.08.27.06l.05.63c0 .03 0 .06-.02.08l-.24.45c-.07.13-.28.07-.27-.08ZM32.6 29.29c.07.39.23.68.36.66.14-.02.2-.35.15-.74-.06-.39-.22-.68-.36-.66-.14.02-.2.35-.14.74ZM22.12 29.62c.32.3.66.44.77.32.11-.12-.06-.46-.37-.75-.32-.3-.66-.45-.77-.33-.1.12.06.46.37.76ZM34.1 29.9c.31-.3.48-.63.38-.75-.11-.13-.45 0-.77.3-.32.28-.5.62-.39.74.11.13.46 0 .77-.3ZM23.67 30.07c.03.42.2.74.35.73.16-.02.26-.37.22-.78-.04-.42-.2-.74-.36-.73-.16.02-.25.37-.21.78ZM32 30.28c-.05.42.06.77.22.79.16.01.33-.32.36-.74.04-.42-.06-.77-.23-.79-.16-.01-.32.32-.36.74Z" fill="#F5E437"/><path d="M28.35 29.73c.13.19.18.34.15.44l-1.86-.02c.18-.16.21-.3.08-.44a5.95 5.95 0 0 1 1.63.02Z" fill="#DA2E30"/><path d="M23.33 30.3c.1.2.21.34.24.33.03-.02-.03-.19-.13-.38-.1-.2-.21-.34-.24-.33-.03.02.03.19.13.38ZM32.7 30.95c-.08.16-.37.48-.87.94-.03.03-.07.03-.1 0l-.03-.02c-.05-.03-.05-.07 0-.1a3.69 3.69 0 0 0 1.3-1.64c.02-.07.15-.03.12.03-.15.26-.3.52-.42.79ZM22.68 30.83c.39.2.76.25.83.1.08-.14-.18-.43-.57-.63-.39-.2-.76-.24-.83-.1-.07.15.18.43.57.63ZM26.64 30.15l1.86.02c.13 0 .25.01.38.05.04.01.07.04.08.08.03.05.02.1-.03.13a.21.21 0 0 1-.1.05l-.3.04c-.5-.04-1-.04-1.52 0-.12.01-.21.06-.29.13a.1.1 0 0 1-.07.03c-.02 0-.04 0-.06-.03-.13-.14-.12-.31.05-.5ZM33.57 31.1c.38-.2.62-.48.55-.63-.07-.15-.44-.12-.82.08-.38.19-.62.47-.55.62.08.15.44.12.82-.08Z" fill="#F5E437"/><path d="M28.53 30.52c-.06.04-.08.13-.06.27l.03.26c-.01.64.03 1.28.1 1.92a4.02 4.02 0 0 1-.13 1.97c-.05.2-.13.37-.25.49-.32.34-.71.4-1.18.2-.11-.06-.17-.14-.18-.27-.04-.46-.08-.92-.1-1.36a1.76 1.76 0 0 0-.1-.5c-.26-.7.1-1.36.12-2.05l.05-.68c0-.05-.03-.1-.1-.12a.43.43 0 0 1 .28-.13 9.28 9.28 0 0 1 1.52 0Z" fill="#DA2E30"/><path d="M24.58 31.62c-.02.04-.08.03-.16 0a.96.96 0 0 1-.24-.19l-.3-.3a1.18 1.18 0 0 1-.2-.25.3.3 0 0 1-.02-.1l.01-.06h.01l.9.9Z" fill="#F5E437"/><path d="M30.1 24.6c.5.28.86.95.82 1.56a.12.12 0 0 1-.06.1.37.37 0 0 1-.29.04.17.17 0 0 1-.08-.05.18.18 0 0 1-.04-.1c-.08-.5-.23-.98-.44-1.46-.05-.1-.02-.13.08-.08ZM25.21 26.83l.19-1.36c.03-.19.08-.37.15-.54.02-.04.03-.04.03 0l.2 1.92c.02.18-.06.28-.24.3a.4.4 0 0 1-.15-.02c-.14-.05-.2-.15-.18-.3ZM30.73 27c.15 0 .27-.1.26-.2 0-.12-.13-.2-.28-.2-.15.02-.27.11-.26.22 0 .11.13.2.28.19ZM30.94 27.6c-.14.58-.47 1-.98 1.25-.05.02-.07 0-.06-.04.02-.1.05-.2.11-.3.22-.35.36-.73.43-1.13a.2.2 0 0 1 .15-.16.26.26 0 0 1 .2.02c.14.08.19.2.15.35ZM25.57 27.98c.13-.05.2-.18.16-.3-.04-.12-.18-.18-.3-.13-.14.05-.21.18-.17.3.04.12.18.18.31.13ZM25.23 28.92c0 .33.12.6.26.6.15 0 .26-.27.26-.6 0-.34-.11-.61-.26-.61-.14 0-.26.27-.26.6ZM28 29.18c.73.02 1.33-.07 1.33-.2 0-.14-.58-.26-1.31-.28-.73-.02-1.32.07-1.33.2 0 .14.59.26 1.32.28ZM25.51 30.47c.14 0 .25-.11.24-.23 0-.12-.13-.21-.27-.2-.13 0-.24.11-.23.23 0 .12.12.21.26.2ZM29.86 30.5c.14-.02.24-.14.22-.25-.02-.12-.14-.2-.28-.17-.15.02-.24.13-.23.25.02.12.15.2.29.17ZM25.4 32.8c-.06-.64-.12-1.24-.2-1.82-.03-.22.06-.33.27-.33h.08c.19.05.27.17.24.36l-.29 1.88c0 .06-.03.07-.07.01a.22.22 0 0 1-.04-.1ZM30.48 30.78l.58 2.04c.1.35.06.37-.13.07-.31-.5-.66-1.03-1.04-1.6-.27-.4.08-.75.49-.62a.15.15 0 0 1 .1.1Z" fill="#DA2E30"/><path d="M27.55 31.94c.2.04.38-.06.4-.21.04-.16-.1-.32-.3-.35-.2-.04-.37.06-.4.21-.03.16.1.32.3.35ZM27.66 34.01c.29-.02.51-.19.5-.37-.02-.18-.26-.3-.55-.28-.29.03-.51.2-.5.37.02.18.26.3.55.28ZM27.6 35.5c.28 0 .5-.17.5-.38 0-.2-.23-.37-.5-.36-.29 0-.5.17-.5.38 0 .2.23.37.5.37Z" fill="#351E61"/><path fill-rule="evenodd" d="M28 44a16 16 0 1 0 0-32 16 16 0 0 0 0 32Zm0-4a12 12 0 1 0 0-24 12 12 0 0 0 0 24Z" fill="#352C62"/><path d="m20.3 16.75-.42.3.54.75-.4.28-1.36-1.92.94-.67c.14-.1.25-.15.35-.17.1-.03.19-.02.28 0a.66.66 0 0 1 .4.27c.06.09.1.2.12.31a.47.47 0 0 1-.1.35.44.44 0 0 1 .3.02c.08.04.17.13.27.26l.09.13c.06.09.1.15.14.17.04.05.1.07.15.06l.03.05-.44.31a1.2 1.2 0 0 1-.23-.24l-.13-.17c-.1-.12-.17-.19-.25-.2-.07 0-.16.03-.28.11Zm0-.52c.05-.1.04-.2-.04-.3-.08-.12-.18-.17-.28-.15a.54.54 0 0 0-.22.1l-.47.33.37.52.45-.32a.62.62 0 0 0 .18-.18Zm3.28-.64-.8.32.02.51-.48.19-.08-2.5.52-.2 1.64 1.88-.5.2-.32-.4Zm-.27-.33-.62-.75.06.97.56-.22Zm2.92.21-1 .13-.3-2.34 1-.13c.15-.02.27-.01.37 0 .17.04.32.12.44.25.1.1.17.23.21.36a1.81 1.81 0 0 1 .01 1.2.85.85 0 0 1-.73.53Zm.14-1.79c-.09-.12-.25-.16-.47-.13l-.45.05.2 1.53.45-.06c.23-.02.37-.16.44-.4.03-.13.04-.28.01-.45a1.12 1.12 0 0 0-.18-.54Zm1.76-.68.5.01-.07 2.36-.49-.01.06-2.36ZM31 15.21l-.86-.15-.24.45-.51-.1 1.24-2.17.55.1.41 2.47-.53-.1-.06-.5Zm-.07-.42-.12-.97-.46.86.58.1Zm3.18 2.12-.45-.2-.18-1.93-.7 1.53-.41-.19.97-2.15.47.21.18 1.9.68-1.51.42.19-.98 2.15Zm3.67-.28-.26.33-.56-.44-1.2 1.53-.39-.3 1.2-1.53-.55-.44.25-.33 1.5 1.18ZM14.05 31.34l-.11-.5-.9.21-.11-.47 2.3-.53.26 1.13c.03.16.04.3.03.39a.59.59 0 0 1-.11.25.65.65 0 0 1-.4.26.7.7 0 0 1-.34 0 .47.47 0 0 1-.29-.22.44.44 0 0 1-.13.26.77.77 0 0 1-.34.15l-.16.04c-.1.02-.17.04-.2.06a.2.2 0 0 0-.12.12l-.06.01-.12-.53.12-.06c.06-.02.12-.05.19-.06l.21-.05c.15-.04.24-.09.28-.15.03-.07.04-.17 0-.3Zm.49.2c.07.08.16.1.3.08.13-.03.21-.1.24-.2a.54.54 0 0 0-.01-.25l-.13-.56-.62.15.13.54c.02.11.05.19.09.24Zm.52 2.49-.41-1.07-.57.22.47 1.22-.4.15-.64-1.67 2.2-.85.63 1.62-.4.15-.44-1.17-.47.18.41 1.07-.38.15Zm-.22 1.75-.52-.88 2.04-1.2.51.89c.07.12.12.24.14.34.04.17.02.33-.05.5-.06.12-.15.24-.25.33a1.82 1.82 0 0 1-1.1.48.85.85 0 0 1-.77-.46Zm1.7-.57c.07-.13.05-.3-.06-.49l-.23-.4-1.33.79.23.39c.11.2.3.28.54.24.13-.02.28-.07.43-.16.2-.12.34-.24.42-.37Zm.84 2.35-.71-.9-.48.38.82 1.02-.33.27-1.12-1.4 1.84-1.47 1.09 1.35-.33.26-.78-.98-.4.32.72.9-.32.25Zm2.13.8-.86-.82-.37.39.74.72-.28.3-.75-.72-.68.7-.35-.33 1.63-1.7 1.2 1.16-.28.3Zm.32-.32.39.3-1.42 1.88-.4-.3 1.43-1.88Zm.93 3.5-.41-.27.1-1.93-.91 1.4-.39-.25 1.29-1.97.43.28-.1 1.9.89-1.39.39.25-1.29 1.98Zm1.35-2 .45.2-.96 2.16-.45-.2.96-2.15Zm1.7 3.2-.46-.16-.39-1.9-.53 1.6-.43-.15.74-2.24.5.16.36 1.86.52-1.56.44.15-.75 2.23Zm1.88.33a.9.9 0 0 1-.5.03 1 1 0 0 1-.69-.46 1.24 1.24 0 0 1-.14-.94c.07-.38.23-.66.48-.85.25-.18.54-.25.88-.18.3.05.52.17.67.36.15.18.22.38.2.61l-.47-.09c-.01-.16-.08-.29-.21-.38a.68.68 0 0 0-.26-.1.59.59 0 0 0-.5.12c-.14.12-.24.32-.3.6-.05.3-.02.5.09.65.1.14.24.23.4.26a.58.58 0 0 0 .7-.4l-.54-.1.07-.39.97.18-.24 1.25-.32-.06v-.3c-.1.1-.2.16-.29.19ZM29.94 42.12l-1.14.08.05.61 1.3-.1.03.42-1.78.14-.18-2.35 1.72-.13.04.41-1.25.1.04.5 1.14-.1.03.42Zm2.47.5-.59.14-.61-.68-.28.89-.56.13.47-1.34-.97-.97.58-.13.58.65.25-.84.55-.13-.44 1.27 1.02 1.02Zm1.76-.87a.96.96 0 0 1-.54.47c-.32.12-.6.12-.87-.02a1.3 1.3 0 0 1-.6-.73c-.14-.39-.15-.72-.03-1 .11-.26.3-.44.58-.54.37-.15.7-.13.96.05.14.1.25.22.3.35l-.45.18a.67.67 0 0 0-.21-.2c-.12-.06-.26-.06-.43 0a.5.5 0 0 0-.32.36c-.04.17-.02.38.08.63.1.24.22.4.37.5.15.08.3.09.46.03.16-.07.26-.17.3-.3a.74.74 0 0 0 .02-.3l.46-.18c.05.26.02.5-.08.7Zm1.58-1.86-.98.59.3.52 1.13-.67.22.36-1.54.92-1.21-2.02 1.48-.9.22.36-1.07.65.25.43.99-.6.2.36Zm-.48-1.28.38-.3 1.2 1.51.92-.72.26.33-1.3 1.03-1.46-1.85Zm1.31-1.04.34-.36 1.4 1.34.8-.84.31.3-1.15 1.19-1.7-1.63Zm3.2-1.76-.67.93.5.36.75-1.07.35.25-1.04 1.45-1.92-1.37 1-1.4.35.24-.73 1.01.4.3.67-.94.34.24Zm2.02-1.55-.22.44-1.93.11 1.5.75-.21.41-2.1-1.06.22-.46 1.9-.1-1.47-.74.2-.4 2.11 1.05Zm.56-2.05c.1.22.1.46.01.72-.1.32-.3.54-.57.65a1.3 1.3 0 0 1-.94-.01c-.4-.13-.66-.34-.8-.62a.99.99 0 0 1-.04-.79c.13-.37.34-.6.65-.7a.85.85 0 0 1 .47-.01l-.16.47c-.12-.01-.2 0-.28.03-.13.05-.22.16-.27.33a.5.5 0 0 0 .07.47c.1.14.28.26.53.34.25.09.45.1.61.04a.52.52 0 0 0 .33-.33c.05-.17.04-.31-.04-.43a.74.74 0 0 0-.22-.2l.16-.47c.23.12.4.3.49.51Zm-.37-2.43-.21 1.13.6.1.23-1.28.42.08-.33 1.76-2.32-.43.32-1.7.41.07-.23 1.23.5.1.2-1.14.4.08Z" fill="#fff"/></svg>