<svg xmlns="http://www.w3.org/2000/svg" width="56" height="56"><path fill="#CEB084" d="M0 0h56v56H0z"/><path fill-rule="evenodd" d="M26.63 15.5c.17.37.57.52.74.55.13 0 .4-.14.44-.68.04-.54-.5-.52-.76-.44-.33-.24-.73-.98-.58-1.1.13-.1.16-.2.16-.25 0-.26-.33-.33-.5-.33-.02-.7.45-.94.7-.98.04.07.16.18.3.12.14-.05.06-.43 0-.6.82 0 .64-.44.45-.65a1.09 1.09 0 00-1.26.15c-.85-.19-.92.25-.85.5.18.03.28.34.31.48-.22.57-.18 1.04-.16 1.24v.07c0 .08.11.4.16.56a.58.58 0 00-.15.42c.17.07.8.49 1 .95zm.7-4.33c.06.04.15.13 0 .21-.16.08-.07-.1 0-.21zm-1.58.23c.14 0 .43.08.48.34.04.25-.13.31-.22.3-.02-.1-.09-.38-.26-.64zm.6.78c.06-.15.24-.43.4-.34.22.1-.14.34-.4.34zm-.38.42c-.06.1-.2.36-.18.7.02.34.18.69.25.82l-.18.27.35.23.75.87c.1.16.35.37.56 0 .2-.37-.14-.32-.34-.24-.06.02-.27-.05-.62-.53-.37-.52-.36-.75-.35-.9v-.07c-.13-.02-.35-.26-.24-1.15zm-5.86 10.66c-.33-.12-.99-.12-1.03.81-.04 1.17 1.32 1.64 2.08 1.64.67 0 2.9-.54 1.86-3.01.22-.14.62-.52.43-.91.49-.03 1.62-.37 2.21-1.47.02.17.13.5.43.52.38.01.53-.41.5-.62-.05-.21-.14-.4-.4-.47.38-.4 1.07-1.33.77-1.84.19-.01.55-.24.47-1.06a2.54 2.54 0 01-.11-.66c-.07-.05-.3-.1-.64.1-.5-.09-1.63-.43-2.1-1.12-.45-.69-.7-.68-.77-.6l-.8-.41a.9.9 0 00.18-.56c0-.09.06-.3.26-.38v-.53c.07-.09.2-.31.17-.53-.04-.27-.7-.86-1.57-.87-.88-.02-1.6.62-1.7 1.4 0 .1.03.34.1.53l-.3.3c.03-.46-.05-1.4-.62-1.54-.08-.01-.3.01-.5.18-.28-.15-.86-.27-.98.53 0 .44-.07 1.46-.46 2-.4.1-1.19.48-1.16 1.02.03.54.56.7.82.7a5.3 5.3 0 00-.28 1.26c-.03.43.28 1.08.44 1.35.12.33.19 1.02-.6 1.2-.12 0-.38.05-.38.17 0 .16.62.3 1.23 0 .55.64 2.19 2.01 4.38 2.4l-.33.47c-.05.1-.23.33-.55.47.06.26.39.72 1.23.52a.97.97 0 01-.97.7c-.03-.2-.25-.58-.87-.58-.03-.14-.24-.43-.77-.48.16-.12.45-.42.33-.63zm-.74-10.47c.1 0 .17-.07.17-.16a.16.16 0 00-.17-.16c-.09 0-.16.07-.16.16s.07.16.16.16zm-.68-.02c0 .09-.08.16-.17.16a.16.16 0 01-.16-.16c0-.1.07-.17.16-.17.1 0 .17.08.17.17zm2.51.58c-.19-.02-.56-.15-.56-.55 0-.5.5-1.1 1.04-1.14.12-.06.38-.14.55 0 .26.04.82.2.97.52l-.36.06.23.36c-.08.07-.34.2-.74.2-.1.06-.4.15-.65 0-.07 0-.26.1-.48.55zm.26.3l.22-.6c0 .28.43.41.43.22 0-.16.16-.21.24-.22h.52c.09-.14.19-.13.21 0 .03.1-.13.32-.2.41 0 .29-.14.86-.65.85-.5-.01-.73-.44-.77-.65zm-1.6-1.05l-.46.43v.32l.34-.32c-.02.39-.13 1.18-.34 1.3-.25.13-1.52 1.07-1.8 2.3.28-.16 1.15-.4 2.26-.1l-.12-.77c.04-.15.15-.37.33 0 .1.54.47 1.64 1.03 1.75.21-.02.74-.13 1.16-.46.14-.08.44-.26.57-.29.18-.22.6-.66.82-.7.28-.03.76-.42.75-.62-.01-.15-.36-.47-.54-.6-.16.15-.5.58-.56 1.07-.48.1-1.47.4-1.69.73-.07-.32-.3-.97-.66-1.07.09-.3.12-.95-.47-1.08-.1-.1-.22-.33.08-.35.24.12.71.27.77-.1.06-.36-.42-.43-.67-.42-.13 0-.47.06-.73.3l-.07-1.32zm1.47 2.89c.15.1.37.5.47.67.12-.2.85-.42 1.2-.5 0-.1.2-.47.3-.64-.16-.15-.51-.43-.68-.43-.22 0-.53 0-.82-.11a.4.4 0 00-.47.1v.9zm1.8-.93c.07 0 .25.07.38.23-.09.01-.28 0-.38-.06-.1-.07-.05-.14 0-.17zm-4.24-1.86c.2.34.33 1.06.36 1.38l-.44.24c-.06-.1.03-.62.08-.86-.14-.2-.25-.05-.3.04l-.1.96-.08-.96c-.1.1-.2.9-.24 1.3l-.09-.12c-.09.03-.17.39-.2.57-.15-.07-.13-.23-.1-.3.18-.3.4-1.09.47-1.45.06-.24.18-.3.23-.3a.45.45 0 00.41-.5zm-1.3 2.9l-.1-.54c-.22.07-.7.3-.76.6-.05.3.44.42.69.44v-.2h-.36c.03-.12.1-.36.1-.43 0-.09.25-.15.43.14zm.46 1.16c-.26.04-.77.2-.66.44.1.25.48-.19.66-.44zm-.74 1.08c.2-.3.78-.89 1.64-.93.86-.05 1.24.15 1.32.26.4 1.39 1.04 3.54 2.78 3.58.34.02 1.04-.19 1.15-1.13 0-.24-.13-.73-.58-.7-.09 0-.3.1-.45.37-.08-.02-.22-.09-.12-.24.12-.19.22-.3.57-.3.39 0 .7.37.73.87.03.5-.2 1.17-1.3 1.37-.2 0-.7-.05-1.18-.24l-.06.18a31.2 31.2 0 00-2.77-2.02 2.85 2.85 0 00-1.35-.35.98.98 0 01-.38-.72zm5.09-.5c-.75.47-1.33.5-1.52.45.1.72.53 1.58.9 2.04.46.6 1.05.64 1.36.56.16-.1.37-.04.45 0a1 1 0 00.41-.8c-.08-.57-.37-.38-.5-.22-.62.39-.8.01-.81-.22.01-.24.19-.7.8-.64.78.08 1.04.65 1.07 1.23.02.46-.36 1.02-.56 1.24a3.98 3.98 0 001.32-1.38c0-.42.3-.52.46-.52.4-.46.7-1.05.8-1.29-.66-.1-1.71-1.15-2.15-1.67-.43.03-.77.28-1.22.63-.23.18-.49.38-.81.58zm2.26-1.44c.22.29.88 1.18 1.59 1.46l.26-.83a7.74 7.74 0 01-1.92-.73l.07.1zm2.42.5c-.24.34-.59 1.05-.15 1.23.43.2.28-.74.15-1.23zm-.31 1.67a5.8 5.8 0 01-.91 1.2h-.28l-.06.38c-.11.54-.79 1.64-2.62 1.7.55.13 1.85.09 2.62-1.21.14-.12.45-.22.61.3.1-.07.25-.26.08-.47a.4.4 0 00-.5-.12c.35-.39 1.06-1.28 1.06-1.78zm-7.4 1.42c-.23-.38-1.01-.51-1.38-.53.28.36.84 1.05.84.95 0-.11.36-.33.54-.42zm-1.47 0v.43c.24.17.8.5 1.1.48.32-.02.14-.25 0-.36-.02.1-.13.23-.33.08l-.77-.63zm1.97 1.25c-.36-.02-1.63-.2-1.69-.22.1.32.77.7 1.1.85.13.08.42.2.47 0 .05-.2-.42-.27-.65-.27-.24-.1-.1-.24 0-.3.1.03.38.08.59.08.2 0 .3.14.31.22.13 0 .24-.33-.13-.36zm-.15-.97c.69.56 2.26 1.73 3.1 1.97.27.07.66.29 0 .61l-.08-.2c.15-.04.4-.13.07-.25h-1.23c-.05-.17-.24-.5-.58-.52a.63.63 0 00-.51-.43c.02-.15-.16-.47-.98-.56 0-.17.04-.52.21-.62zm.36 1.49c.18-.02.56-.02.59.15-.15.03-.47.04-.6-.15zm-.24.4c.13-.04.46-.06.72.06.22 0 .65.01.64.2 0 .23-.15.27-.47.14l-.9-.4zm2.64.7h-.8l.54.23c.32.2.19.36.08.42-.2.14-.49.61-.61.83.18-.26.56-.52.72-.61.01.17-.32.58-.48.77.05.02.23 0 .55-.26.33-.27.37.01.35.19-.18 1.06-1.2 1.28-1.68 1.26-.2-.5-.53-.43-.67-.34h-.2c.02-.36-.11-.48-.22-.57l-.01-.01c-.09-.08-.29.03-.37.1-.18-.05-.2-.5-.2-.72-.47.64.32 1.92 1.67 1.82 1.35-.1 1.93-.88 1.96-1.63.03-.6-.4-1.08-.63-1.25v-.23zm13.43.9c.33-.12.99-.12 1.02.81.05 1.17-1.32 1.64-2.07 1.64-.67 0-2.9-.54-1.86-3.01-.22-.14-.62-.52-.43-.91a2.88 2.88 0 01-2.21-1.47c-.02.17-.13.5-.43.52-.38.01-.54-.41-.5-.62.05-.21.14-.4.4-.47-.38-.4-1.07-1.33-.77-1.84-.2-.01-.56-.24-.48-1.06.05-.14.13-.48.12-.66.07-.05.3-.1.63.1.51-.09 1.64-.43 2.1-1.12.46-.69.71-.68.78-.6l.8-.41a.9.9 0 01-.18-.56c0-.09-.06-.3-.26-.38v-.53c-.07-.09-.2-.31-.17-.53.04-.27.69-.86 1.57-.87.88-.02 1.6.62 1.69 1.4 0 .1-.02.34-.1.53l.3.3c-.03-.46.06-1.4.62-1.54.09-.01.31.01.5.18.28-.15.86-.27 1 .53-.02.44.06 1.46.45 2 .4.1 1.19.48 1.15 1.02-.03.54-.55.7-.8.7.08.25.25.83.27 1.26.02.43-.28 1.08-.44 1.35-.13.33-.19 1.02.59 1.2.13 0 .38.05.38.17 0 .16-.6.3-1.22 0-.55.64-2.19 2.01-4.39 2.4l.34.47c.05.1.22.33.54.47-.05.26-.38.72-1.22.52.05.24.33.7.97.7.03-.2.25-.58.87-.58.03-.14.23-.43.77-.48-.16-.12-.46-.42-.33-.63zm.73-10.47a.16.16 0 01-.16-.16c0-.09.07-.16.16-.16.1 0 .17.07.17.16s-.07.16-.17.16zm.7-.02c-.01.09.06.16.16.16.09 0 .16-.07.16-.16a.16.16 0 00-.16-.17c-.1 0-.17.08-.17.17zm-2.52.58c.18-.02.56-.15.56-.55 0-.5-.5-1.1-1.05-1.14-.1-.06-.38-.14-.55 0-.26.04-.81.2-.96.52l.35.06-.22.36c.08.07.34.2.73.2.12.06.4.15.65 0 .08 0 .27.1.49.55zm-.26.3l-.23-.6c0 .28-.42.41-.42.22 0-.16-.16-.21-.24-.22h-.52c-.09-.14-.19-.13-.22 0-.02.1.14.32.22.41 0 .29.12.86.63.85.51-.01.73-.44.78-.65zm1.6-1.05l.45.43v.32l-.34-.32c.03.39.14 1.18.34 1.3.26.13 1.53 1.07 1.82 2.3-.3-.16-1.16-.4-2.27-.1l.11-.77c-.03-.15-.14-.37-.32 0-.11.54-.47 1.64-1.03 1.75a2.31 2.31 0 01-1.17-.46 3.49 3.49 0 00-.56-.29c-.18-.22-.6-.66-.82-.7-.29-.03-.77-.42-.75-.62 0-.15.36-.47.54-.6.16.15.5.58.56 1.07.47.1 1.47.4 1.69.73.07-.32.3-.97.66-1.07-.09-.3-.12-.95.47-1.08.1-.1.22-.33-.09-.35-.23.12-.7.27-.76-.1-.06-.36.42-.43.66-.42.14 0 .48.06.74.3l.07-1.32zm-1.46 2.9c-.15.1-.37.5-.47.67-.12-.2-.85-.42-1.2-.5 0-.1-.2-.47-.3-.64.16-.15.51-.43.68-.43.21 0 .52 0 .82-.11a.4.4 0 01.47.1v.9zm-1.8-.93a.62.62 0 00-.38.23c.08.01.28 0 .38-.06.1-.07.04-.14 0-.17zm4.24-1.86c-.21.34-.33 1.06-.37 1.38l.45.24c.06-.1-.03-.62-.08-.86.13-.2.25-.05.3.04l.1.96.07-.96c.1.1.2.9.24 1.3l.1-.12c.08.03.17.39.2.57.15-.07.13-.23.1-.3-.18-.3-.4-1.09-.48-1.45-.05-.24-.17-.3-.22-.3a.45.45 0 01-.41-.5zm1.3 2.9l.09-.54c.23.07.7.3.76.6.06.3-.43.42-.68.44v-.2h.36a2.5 2.5 0 01-.11-.43c0-.09-.24-.15-.42.14zm-.46 1.16c.26.04.76.2.66.44-.1.25-.49-.19-.66-.44zm.73 1.08c-.18-.3-.78-.89-1.63-.93-.86-.05-1.24.15-1.32.26-.4 1.39-1.04 3.54-2.78 3.58-.34.02-1.04-.19-1.15-1.13 0-.24.13-.73.58-.7.08 0 .3.1.45.37.08-.02.21-.09.12-.24-.12-.19-.22-.3-.57-.3-.39 0-.71.37-.74.87-.02.5.2 1.17 1.3 1.37.2 0 .71-.05 1.19-.24l.06.18c.68-.54 2.2-1.7 2.77-2.02a2.85 2.85 0 011.35-.35c.13-.1.37-.37.37-.72zm-5.08-.5c.75.47 1.32.5 1.52.45-.1.72-.53 1.58-.9 2.04-.46.6-1.06.64-1.36.56-.16-.1-.37-.04-.46 0a1 1 0 01-.4-.8c.08-.57.37-.38.5-.22.62.39.8.01.8-.22 0-.24-.18-.7-.8-.64-.77.08-1.04.65-1.06 1.23-.02.46.36 1.02.55 1.24a3.98 3.98 0 01-1.31-1.38c0-.42-.3-.52-.46-.52-.4-.46-.7-1.05-.8-1.29.66-.1 1.7-1.15 2.15-1.67.43.03.77.28 1.21.63.24.18.5.38.82.58zm-2.26-1.44c-.22.29-.88 1.18-1.59 1.46l-.26-.83a7.74 7.74 0 001.92-.73l-.07.1zm-2.42.5c.23.34.59 1.05.15 1.23-.44.2-.28-.74-.15-1.23zm.3 1.67c.22.35.7 1.09.92 1.2h.28l.06.38c.1.54.79 1.64 2.62 1.7-.55.13-1.85.09-2.62-1.21-.14-.12-.45-.22-.62.3-.09-.07-.24-.26-.07-.47a.4.4 0 01.5-.12c-.36-.39-1.06-1.28-1.06-1.78zm7.4 1.42c.24-.38 1.02-.51 1.39-.53a4.74 4.74 0 01-.85.95c0-.11-.36-.33-.53-.42zm1.47 0v.43c-.24.17-.79.5-1.1.48-.31-.02-.13-.25 0-.36.03.1.14.23.34.08l.76-.63zm-1.97 1.25c.37-.02 1.63-.2 1.7-.22-.1.32-.77.7-1.1.85-.13.08-.42.2-.47 0-.05-.2.41-.27.65-.27.24-.1.1-.24 0-.3-.1.03-.38.08-.59.08-.21 0-.3.14-.31.22-.13 0-.24-.33.12-.36zm.15-.97c-.68.56-2.25 1.73-3.08 1.97-.28.07-.68.29 0 .61l.07-.2c-.16-.04-.4-.13-.07-.25h1.23c.05-.17.24-.5.57-.52a.63.63 0 01.52-.43c-.02-.15.15-.47.98-.56 0-.17-.05-.52-.22-.62zm-.35 1.49c-.18-.02-.56-.02-.59.15.15.03.47.04.6-.15zm.24.4a1.25 1.25 0 00-.73.06c-.21 0-.65.01-.64.2.02.23.15.27.48.14l.9-.4zm-2.65.7h.8l-.53.23c-.32.2-.2.36-.09.42.2.14.5.61.62.83a2.55 2.55 0 00-.73-.61c0 .17.32.58.49.77-.05.02-.23 0-.56-.26-.33-.27-.37.01-.35.19.19 1.06 1.2 1.28 1.7 1.26.2-.5.52-.43.65-.34h.2c-.01-.36.12-.48.22-.57l.02-.01c.08-.08.28.03.37.1.18-.05.2-.5.2-.72.47.64-.32 1.92-1.67 1.82-1.35-.1-1.93-.88-1.96-1.63-.03-.6.4-1.08.62-1.25v-.23zm-4.87-6.31c.18-.03.58-.18.75-.54.2-.46.83-.88 1-.95a.58.58 0 00-.15-.42 3.6 3.6 0 00.16-.63c.01-.2.06-.67-.16-1.24.02-.14.13-.45.3-.49.08-.24 0-.68-.84-.49-.2-.18-.7-.46-1.26-.15-.2.21-.37.64.45.64-.06.18-.14.56 0 .61.14.06.26-.05.3-.12.24.04.71.28.7.98-.17 0-.5.07-.5.33 0 .04.03.16.15.25.16.12-.24.86-.57 1.1-.27-.08-.8-.1-.76.44.04.54.3.68.43.68zm.05-4.88c-.06.04-.15.13 0 .21.16.08.07-.1 0-.21zm1.1.57c.05-.26.34-.33.48-.34-.17.26-.25.54-.26.65-.1 0-.26-.06-.22-.31zm-.12.44c-.06-.15-.24-.43-.41-.34-.22.1.15.34.41.34zm.56 1.12c.01-.34-.12-.6-.19-.7.12.89-.1 1.13-.23 1.15v.06c0 .16.02.39-.36.91-.34.48-.55.55-.6.53-.21-.08-.56-.13-.35.24.2.37.46.16.56 0l.75-.87.35-.23-.18-.27c.07-.13.23-.48.25-.82zm-5.61 15c.83.35 1.85.17 2.33 0-.66.67-1.86.85-2.73.42a2.5 2.5 0 00-1.9 0c.07-.2 1.34-.84 2.3-.43zm4.43 0c.47.17 1.5.35 2.33 0 .95-.42 2.23.22 2.29.42a2.5 2.5 0 00-1.9 0c-.87.43-2.06.25-2.72-.43zm-5.29.97c1.77.09 3.33-.46 3.88-.74a6.3 6.3 0 01-3.88 1.24c-3.6-.12-3.92-2-3.92-2.37 0-.37.26-1.29 1.37-1.47.76-.11 1.17.32 1.28.45-1.28-.59-2.38-.12-2.32 1.09.05 1.13 1.38 1.68 3.6 1.8zm4.6-.74c.55.28 2.1.83 3.87.74 2.21-.12 3.54-.67 3.6-1.8.06-1.21-1.05-1.68-2.32-1.09.1-.13.51-.56 1.27-.45a1.54 1.54 0 011.37 1.47c0 .36-.32 2.25-3.92 2.37-1 0-2.72-.25-3.88-1.24zM26.9 29.6c-.75.36-2.92.88-5.63.13 1 .62 3.52 1.47 5.63-.13zm2.21 0c.75.36 2.93.88 5.63.13-1 .62-3.52 1.47-5.63-.13zm-4.78-3.85c.52-.03.57.33.57.5 0 .29-.16.4-.24.42-.26 0-.49.08-.57.13-.06.21 0 .64.81.64s1.33-.72 1.5-1.07c.22-.44.73-1.34 1.15-2.07l.2-.36a5.99 5.99 0 011.8-1.79 7.4 7.4 0 00-3.16.45c-1.3.59-1.78 1.45-1.73 1.97.04.43.4.52.59.52 1.08-.1 1.64-1.6 1.78-2.33.21 1.36-.36 2.49-1.48 2.59-.9.08-1.14-.43-1.15-.7-.06-.45.24-1.54 1.9-2.24 1.67-.7 3.04-.5 3.52-.31l.5-.18.25.23c-.2 0-.33.07-.37.1.76.25.87.79.82 1.03-.11.82-1.23 1.38-1.78 1.55.38.2.36.7.3.92-.31.83-.66 2.13.48.74 1.13-1.4 1.61-1.56 1.7-1.46a5.8 5.8 0 00-1.03 1c-.57.64-1.18 1.34-1.63 1.4-.6.1-.75-.31-.75-.54-.01-.2.1-.63.33-1.02.24-.39.3-.8.31-1.04-.2 0-.6-.02-.54-.17.06-.16.39-.07.54 0a1.84 1.84 0 001.25-1.71c0-.44-.26-.64-.38-.7-.52.2-.97.9-1.22 1.53l-.03.08c-.23.58-.77 1.91-1.1 2.4a2.7 2.7 0 01-2.33 1.3c-1.19 0-1.48-.62-1.48-.98 0-.27.15-.8.67-.83zm-12.32 12.9c0-.31-.1-.96-.94-.9-.84.04-1.07.99-1.08 1.45 0 .64.47 1.74 2.4 1.74 2.13 0 3.24-1.4 3.8-2.3.52-.86 1.39-3.2 1.76-4.22l.05-.14c.42-1.13 1.14-2.35 1.98-2.69.2.08.62.44.62 1.21 0 .97-.53 2.46-2.02 3.02-.25-.12-.78-.28-.88 0-.09.27.55.32.88.3a4.51 4.51 0 01-.5 1.84 4.21 4.21 0 00-.55 1.8c0 .4.24 1.14 1.23.96.63-.1 1.46-1.03 2.28-1.99l-.06.15c-.24.55-.34 1.94.9 2.02.3.02 1.1-.26 2.04-1.56-.21.58-.39 1.73.56 1.66.46 0 1.47-.83 2.78-2.37l-.07.18c-.24.57-.34 2 .9 2.1.29.01 1.09-.28 2.03-1.62-.2.6-.38 1.78.56 1.7.29.02 1.22-.39 2.66-2.16l.83-.82-.78 1.42c-.19.41-.14 1.47.69 1.5.82.02 2.12-1.35 2.67-2.03-.05.7.14 2.1 1.26 2.1s2.5-1.52 3.06-2.27c-.16 1.44.33 2.36 1.32 2.26a2.7 2.7 0 001.57-.72c.35 0 .69-.19.81-.28C45.75 39.2 46 38.34 46 38c-.85 1.35-1.42 1.72-1.6 1.74A4.45 4.45 0 0045.56 38c.14-.68.12-2.03-1.01-2.01-1.13.02-2.26.99-2.68 1.46-.68.7-2.2 2.25-2.84 2.81-.64.57-.98.4-1.07.24-.17-.84 1.08-2.9 1.62-3.59.43-.55.73-.5.83-.4a.89.89 0 00-.58.67c-.08.41.23.6.4.64.33-.02.98-.22.85-.9a1.1 1.1 0 00-1.02-.93c-1.4-.07-3 1.77-3.61 2.66-.56.6-1.75 1.8-2 1.86-.24.05-.08-.34.02-.53L36.76 36h-1.63a22.2 22.2 0 01-1.99 2.53l-1.52 1.64c-.11.11-.37.32-.5.22-.12-.1.04-.45.13-.6l4.14-7.49-1.35.2-2.55 4.32c.05-.28-.07-.82-.97-.82-.9 0-2.07.9-2.56 1.42-.04.04-.1.1-.15.2l-2.4 2.57c-.11.12-.37.32-.5.22-.12-.1.04-.43.13-.59L27.06 36h-1.38l-.38.8c.05-.26-.08-.8-.97-.8-.46 0-.98.26-1.46.58-.4.18-1.2.84-2.56 2.47-1.96 2.37-1.27.15-.76-1.3.1-.4.12-1.29-.5-1.62.9-.31 2.71-1.3 2.9-2.74.07-.42-.1-1.38-1.34-1.8a.97.97 0 01.61-.18l-.4-.4-.83.3c-.77-.33-3-.67-5.7.55-2.7 1.23-3.2 3.15-3.1 3.96.02.46.43 1.36 1.88 1.22 1.8-.18 2.74-2.17 2.4-4.57-.23 1.3-1.13 3.94-2.9 4.11-.29.01-.89-.16-.95-.9-.08-.94.7-2.45 2.81-3.5 1.68-.83 4.12-.86 5.12-.77-.67.43-2.2 1.78-2.9 3.15l-.34.62c-.68 1.3-1.5 2.88-1.88 3.65-.26.63-1.1 1.9-2.41 1.9-1.32 0-1.43-.76-1.32-1.14.13-.08.5-.23.92-.21.13-.04.4-.24.4-.74zm11.18 1.03c-.74.9-1.27 1-1.4.82-.14-.17-.06-.48 0-.62.4-.98 1.86-3 2.4-3.45.55-.46 1 .12.9.45a9.21 9.21 0 01-1.59 2.43l-.3.37zm4.8.86c.14.17.67.07 1.41-.82l.28-.33c.59-.7 1.02-1.2 1.61-2.48a.52.52 0 00-.89-.45c-.54.45-2.03 2.5-2.4 3.41-.06.14-.14.5 0 .67zm17.13-3.58c0 .58-.67 1.74-1.02 2.25-.7.06-.7.53-.61.76-.03.07-.2.25-.65.47-.45.23-.56-.15-.56-.36a8.1 8.1 0 012.16-3.75c.2-.13.66-.1.68.63zm-7.46-2.83c-.32.39-.8.5-1.1.27-.3-.24-.28-.74.03-1.13.31-.39.8-.5 1.1-.27.3.24.28.75-.03 1.13z"/></svg>