<svg width="56" height="56" viewBox="0 0 56 56" xmlns="http://www.w3.org/2000/svg"><path fill="#F0F3FA" d="M0 0h56v56H0z"/><path d="M36.44 12.92c-.23.1-.45.2-.65.33a89.56 89.56 0 0 0-17.04 13.57l-.02-.04v-.05a79.74 79.74 0 0 1 12.97-14.6c.12-.09.25-.13.4-.13 1.45.04 2.82.27 4.09.7.09.02.18.06.26.1l.02.03a.06.06 0 0 1 0 .07l-.03.02Z" fill="#663668"/><path d="M18.3 16.22a24 24 0 0 1 3.2-1.83c.08-.04.1-.02.07.07-.08.19-.26.3-.38.45-2.14 2.76-4 5.64-5.58 8.63l-1.13 2.11c-.16.3-.2.29-.1-.04a54.23 54.23 0 0 1 3.32-8.77c.17-.34.32-.43.6-.62Z" fill="#F19554"/><path d="M21.96 19.25a79.28 79.28 0 0 0-5.25 6.65h-.04l-.04-.03c-.02-.01-.02-.03-.01-.04.85-1.67 1.74-3.32 2.65-4.95a53.1 53.1 0 0 1 2.27-3.67 38.23 38.23 0 0 1 3-4.03.3.3 0 0 1 .12-.09c1.51-.5 2.95-.83 4.33-.98.15-.02.17.02.05.12a68.03 68.03 0 0 0-7.08 7.02Z" fill="url(#af3gszann)"/><path d="M12 26.46v-.94l.6-4.1a.7.7 0 0 1 .17-.35c.68-.79 1.38-1.51 2.11-2.16.12-.11.15-.1.08.06a63.5 63.5 0 0 0-2.96 7.5Z" fill="#2D5AA2"/><path d="m31.95 21.59 4.55-2.26c1.36-.6 2.73-1.18 4.1-1.74a11.97 11.97 0 0 0 1.35-.66.11.11 0 0 0 .03-.07.12.12 0 0 0-.02-.07 9.9 9.9 0 0 0-3.12-2.89.25.25 0 0 0-.26 0l-2.5 1.6-4.38 3.1-1.64 1.27a104.78 104.78 0 0 0-5.4 4.57 133.6 133.6 0 0 0-4.2 3.97c-.02.01-.02.03 0 .05.02.03.03.03.05.01a98.47 98.47 0 0 1 4.77-3.11l5-2.9 1.67-.87Z" fill="url(#bf3gszann)"/><path d="m43.84 24.29-14.77 3.97c-2.4.78-4.78 1.65-7.12 2.6-.06-.01-.1-.03-.12-.06l6.96-4.39 14.36-7.18a.12.12 0 0 1 .15.04.13.13 0 0 1 .03.05s1.07 1.78.5 4.97Z" fill="url(#cf3gszann)"/><path d="M43.64 27.63a22.69 22.69 0 0 1-2.17 5.29.09.09 0 0 1-.08.05c-2.19.07-4.52.09-6.63.18-3.05.13-5.73.3-8.04.53l-4.4.42c-.27.03-.27 0-.02-.1a161.77 161.77 0 0 1 21.3-6.45.06.06 0 0 1 .04.08Z" fill="#00A85A"/><path d="M21.83 30.8c.02.03.06.05.12.06-.12.08-.22.1-.31.1-.05-.02-.06-.04-.03-.08.04-.04.11-.07.22-.08Z" fill="#43A8AB"/><path d="M38.57 36.8c.1 0 .12.03.05.11a29.93 29.93 0 0 1-3.75 3.58.48.48 0 0 1-.43.1 287.77 287.77 0 0 0-12.56-2.77c-.07 0-.07-.03 0-.06.1-.06.2-.1.33-.1 4.27-.4 8.52-.68 12.74-.81 1.2-.04 2.4-.1 3.62-.06Z" fill="#F19554"/><path d="m24.63 42.37-3.9-.9c-.19-.04-.2-.01-.03.09l3.94 2.4 1.77 1.02c.05.02.1.03.15.01a27.8 27.8 0 0 0 2.89-1.13 2.36 2.36 0 0 0 .36-.22v-.03l-.01-.02-.03-.02-5.14-1.2Z" fill="#C22D76"/><defs><linearGradient id="af3gszann" x1="26.81" y1="12.1" x2="17.19" y2="25.56" gradientUnits="userSpaceOnUse"><stop stop-color="#A7393C"/><stop offset=".49" stop-color="#F03937"/><stop offset="1" stop-color="#FAA91E"/></linearGradient><linearGradient id="bf3gszann" x1="41.08" y1="15.95" x2="26.71" y2="24.14" gradientUnits="userSpaceOnUse"><stop stop-color="#A8E2FA"/><stop offset=".59" stop-color="#0AB4EF"/><stop offset="1" stop-color="#2F6795"/></linearGradient><linearGradient id="cf3gszann" x1="43.11" y1="22.23" x2="22.92" y2="30.31" gradientUnits="userSpaceOnUse"><stop stop-color="#4DA7A1"/><stop offset=".36" stop-color="#0BADE3"/><stop offset=".6" stop-color="#56C4D1"/><stop offset="1" stop-color="#1381C3"/></linearGradient></defs></svg>