<svg width="56" height="56" viewBox="0 0 56 56" xmlns="http://www.w3.org/2000/svg"><path fill="#F0F3FA" d="M0 0h56v56H0z"/><path fill-rule="evenodd" d="M28 45a17 17 0 1 0 0-34 17 17 0 0 0 0 34Zm0-.65a16.35 16.35 0 1 0 0-32.7 16.35 16.35 0 0 0 0 32.7Z" fill="#033E90"/><path fill-rule="evenodd" d="M28 44a16 16 0 1 0 0-32 16 16 0 0 0 0 32Zm0-7a9 9 0 1 0 0-18 9 9 0 0 0 0 18Z" fill="#033E90"/><path d="M29.16 20.53a.06.06 0 0 0 .03-.04c.03-.44.5-.28.6-.25.27.05.6.24.87.16.42.12.81.34 1.2.56a8.03 8.03 0 0 1 2.28 1.92A8.36 8.36 0 0 1 36 28.24c0 .08-.02.16-.04.24 0 .02-.02.03-.03.04-.04.03-.08.04-.12.04a4.32 4.32 0 0 1-.46-.08c-.38-.08-.55-.49-.7-.8-.03-.07-.08-.09-.14-.06-.83.3-.98 1.27-1.23 2.03a.15.15 0 0 1-.1.1c-.23.08-.39-.06-.45-.29-.07-.3-.19-.63-.35-1a2.6 2.6 0 0 0-.98-1.18.68.68 0 0 0-.44-.13c-.41 0-.84-.05-1.28-.15-.15-.04-.4-.22-.56-.15-.1.04.8.55.92.59.41.13-1.02 1.46-1.51 1.53-.7.1-1.22-1.52-1.44-1.99-.1-.02-.18-.07-.25-.05a.04.04 0 0 0-.04.04c-.05.3.44.89.6 1.12.22.3.5 1.13.97 1.04.14-.03.29-.04.42-.04.17 0 .41.08.44.28.08.77-.78 1.46-1.26 1.92a.74.74 0 0 0-.22.65c.05.47.06.93.04 1.4-.02.44-.83 1.7-1.06 2.11-.17.31-.41.56-.78.55-.39 0-1.05-.23-1.34-.52l-.15-.15c-.3-.53-.5-.63-.52-1.01-.07-.95-.07-1.9-.25-2.83a2.45 2.45 0 0 0-.32-.8c.09-.6-2.16-.4-2.37-.39-.18 0-.44-.02-.58-.15-.44-.4-.42-1.22-.4-1.78a2.9 2.9 0 0 1 1.47-2.43c.48-.3.87-.58 1.46-.6.31-.02.53.06.72.3.2.24.52.58.85.6.67.01 1.36.01 2.1-.01.26-.01.22-.26.2-.44a.15.15 0 0 0-.14-.13c-.34-.02-.65-.1-.91-.34-.22-.2-.39-.07-.58.06-.22.16-.37-.1-.46-.26a.1.1 0 0 0-.15-.01c-.13.16-.27.34-.5.24-.1-.03-.1-.12-.13-.2-.12-.44-.4-.68-.88-.6-.16.03-.31.21-.42.34-.15.17-.93 1.02-1.2.84a.87.87 0 0 1-.37-.67c-.02-.2-.03-.57.23-.6.1-.02.46-.04.5-.15.1-.23-.26-1.46.1-1.5.4-.06.33.19.62.35h.05c.25-.05.42-.28.7-.33l.99-.02c.36-.05.75-.48.93-.78a.06.06 0 0 0-.02-.08c-.15-.07-.5-.35-.64-.16-.18.23-.1.66-.38.8-.2.1-1.18-.37-1.17-.62l.02-.27c.11-.5 1.58-1.21 2.03-1.27l.36.03c.53 0 1.03.44 1.53.38.2.04.36-.07.55-.13.1-.03.09-.37.1-.46 0-.11.06-.21.18-.23.16-.03.38-.05.45.14l.12.36c.06.22.7.09.83.01Z" fill="#009C4C"/><path d="M28 34.52c0-.32.01-.66.1-.9.03-.1.12-.24.24-.4a.57.57 0 0 1 .5-.22c.17 0 .17.17.15.33-.04.37-.07.62-.1.74-.03.26-.12.51-.26.76-.1.18-.27.18-.43.16-.2-.02-.2-.3-.2-.47Z" fill="#009C4C"/><path d="m30.72 38.5-.65 4.08h2.46l-.06.42h-2.92l.7-4.5h.47ZM29.16 38.5l-.71 4.5h-.46l.7-4.5h.47ZM27.59 39.55c0 .23-.06.45-.18.66-.11.2-.27.38-.46.52-.2.15-.47.24-.78.28L27.2 43h-.52l-1-1.98h-.95L24.4 43h-.45l.7-4.5h1.71c.35 0 .64.1.87.27.24.18.36.44.36.78Zm-1.3-.63h-1.24l-.27 1.68h1.25c.3 0 .56-.09.77-.27a.91.91 0 0 0 .32-.72c0-.24-.08-.4-.23-.52a.95.95 0 0 0-.6-.17ZM18.6 33.17l-4.1.09.43 2.43-.42.01-.52-2.89 4.52-.1.08.46ZM18.32 31.62l-4.52.1-.09-.46 4.52-.1.09.46ZM17.01 30.25c-.22.04-.45.03-.67-.05-.22-.08-.42-.2-.6-.37a1.63 1.63 0 0 1-.4-.72l-1.77 1.36-.09-.52 1.76-1.35-.17-.93-1.99.04-.08-.46 4.52-.1.3 1.7c.06.34.03.65-.1.91a.9.9 0 0 1-.7.5Zm.4-1.39-.23-1.24-1.7.03.23 1.24c.05.3.19.55.4.72a.9.9 0 0 0 .77.2c.22-.05.38-.16.46-.33.08-.18.1-.38.06-.62ZM38.29 27.14l3.86 1.39.45-2.43.4.14-.53 2.88-4.26-1.52.08-.46ZM38 28.69l4.26 1.53-.08.45-4.26-1.52.08-.46ZM38.74 30.44c.22.04.43.14.61.29.18.15.32.34.43.56.1.23.15.5.12.82l2.13-.65-.1.52-2.1.64-.18.93 1.87.67-.08.46-4.26-1.53.31-1.7c.07-.33.2-.6.42-.8a.9.9 0 0 1 .83-.21Zm-.85 1.16-.23 1.24 1.6.57.22-1.24c.06-.3.02-.57-.12-.81a.9.9 0 0 0-.65-.45c-.23-.04-.4 0-.54.14a.96.96 0 0 0-.28.55ZM35.12 20.91l3.81-1.53-1.25-2.12.38-.16 1.5 2.52-4.2 1.7-.24-.4ZM35.92 22.27l4.2-1.7.23.4-4.2 1.7-.23-.4ZM37.62 23.09c.2-.12.41-.18.65-.2a1.62 1.62 0 0 1 1.32.67l1.17-1.9.27.46L39.86 24l.48.82 1.85-.74.24.4-4.2 1.68-.88-1.48a1.4 1.4 0 0 1-.21-.88c.03-.3.19-.54.48-.71Zm.12 1.44.64 1.08 1.57-.63-.64-1.08a1.15 1.15 0 0 0-.62-.53.9.9 0 0 0-.78.1c-.2.11-.3.27-.32.46-.02.2.03.39.15.6ZM28.65 17.83l2.11-3.54-2.27-.93.21-.36 2.7 1.1-2.32 3.9-.43-.17ZM30.1 18.42l2.33-3.9.42.17-2.33 3.9-.42-.17ZM31.94 18.04c.09-.21.22-.4.4-.55.2-.14.4-.25.63-.3.25-.06.53-.05.83.03L33.6 15l.48.2.2 2.22.87.35 1.03-1.72.42.18-2.33 3.9-1.58-.64a1.39 1.39 0 0 1-.7-.58.92.92 0 0 1-.05-.86Zm.96 1.07 1.16.47.88-1.46-1.16-.47a1.14 1.14 0 0 0-.82-.04.9.9 0 0 0-.57.55c-.08.22-.07.4.03.57.1.17.26.3.48.38ZM21.73 19.85l-.77-4.06-2.3.84-.09-.41 2.74-1 .85 4.47-.43.16ZM23.2 19.32l-.85-4.48.43-.16.85 4.48-.43.16ZM24.32 17.8c-.07-.23-.1-.45-.06-.69a1.62 1.62 0 0 1 .9-1.18l-1.63-1.52.5-.18 1.61 1.52.89-.32-.38-1.97.44-.16.85 4.47-1.61.59c-.32.12-.63.13-.9.04a.91.91 0 0 1-.6-.6Zm1.43.14 1.17-.42-.31-1.68-1.18.43c-.29.1-.5.28-.63.52a.92.92 0 0 0-.06.79c.08.22.21.35.4.4.18.06.38.05.6-.04ZM17.74 26.19l-3.15-2.65-1.26 2.12-.32-.27 1.5-2.52 3.46 2.92-.23.4ZM18.54 24.84l-3.47-2.92.24-.4 3.46 2.92-.23.4ZM18.45 22.94c-.2-.12-.35-.28-.47-.49-.12-.2-.19-.42-.2-.67-.03-.25.03-.52.16-.81l-2.23-.14.27-.45 2.2.14.5-.81-1.53-1.3.23-.39 3.47 2.92-.88 1.48c-.17.3-.4.5-.67.61a.9.9 0 0 1-.85-.09Zm1.2-.79.64-1.08-1.3-1.1-.64 1.09c-.15.26-.21.53-.16.8.04.28.2.5.45.65.2.12.38.14.56.06a.95.95 0 0 0 .45-.42ZM36.44 34.2l2.06 3.58 1.9-1.57.21.37-2.26 1.86-2.27-3.94.36-.3ZM35.23 35.2l2.27 3.94-.36.29-2.27-3.94.36-.29ZM34.67 37.01c.14.18.24.39.28.62.04.24.03.47-.04.7-.06.25-.2.49-.43.71l2.05.9-.41.33-2.02-.9-.73.61 1 1.73-.36.3-2.27-3.94 1.32-1.09c.27-.22.55-.33.84-.34a.9.9 0 0 1 .77.37Zm-1.4.33-.97.8.85 1.48.97-.8c.24-.2.38-.43.43-.7a.92.92 0 0 0-.2-.77c-.15-.18-.32-.26-.51-.25-.2.01-.38.1-.57.24ZM23.54 38.16l-3.17 2.62 1.83 1.64-.32.27-2.18-1.95 3.5-2.89.34.3ZM22.37 37.11l-3.5 2.9-.34-.31 3.5-2.9.34.31ZM20.5 36.85c-.15.17-.33.3-.56.38-.22.07-.45.1-.69.07-.25-.02-.5-.13-.76-.31l-.55 2.17-.4-.35.56-2.15-.7-.63-1.55 1.27-.34-.31 3.5-2.9 1.27 1.15c.26.23.42.5.47.79.06.29-.02.56-.24.82Zm-.54-1.34-.94-.83-1.3 1.08.93.83c.23.2.48.31.75.32a.9.9 0 0 0 .72-.33c.15-.17.2-.36.16-.54a.96.96 0 0 0-.32-.53Z" fill="#fff"/></svg>