<svg width="56" height="56" viewBox="0 0 56 56" xmlns="http://www.w3.org/2000/svg"><path fill="#F0F3FA" d="M0 0h56v56H0z"/><path d="M19.43 19h-5.27l.44-1h4.47l.36 1ZM9.1 20 8 33.9 13.4 21h5.86c3.83 0 4.49 2.67 4.34 4.12-.58 3.73-3.86 3.64-5.42 3.13L25 35l-.7-15H9.09Zm3.7 16h8l-.54-1h-6.8l-.66 1Z" fill="#EC2427"/><path d="M29 22v-4h6.51c2.12-.06 6.34.47 6.34 3.09.02.36-.07 1.33-.54 2.26a4.63 4.63 0 0 0-.65 2.25c0 .52.54 1.08 1.46 1.4.2.06.53.12.94.2 1.44.28 3.85.74 4.94 2.27v3c-.25-.43-1.31-1.46-3.56-2.14l-.65-.2c-2.34-.7-3.42-1.01-3.75-3.52-.1-.68-.14-1.2-.19-1.62-.12-1.29-.15-1.6-.93-2.16-1.05-.76-2.4-.83-5.5-.83H29Zm0 14V23h5.72c1.26-.06 3.9.72 4.36 3.29.57 3.2 1.04 4.2 3.56 5.11 2.51.91 4.65 1.85 5.36 2.66V37a14.15 14.15 0 0 0-3.97-2.04c-1.74-.48-3.97-1.08-4.45-3.41l-.11-.54c-.43-2.17-.8-4.01-3.36-4.01H30v9h-1Z" fill="#2F3490"/></svg>