<svg xmlns="http://www.w3.org/2000/svg" width="56" height="56"><path fill="#F0F3FA" d="M0 0h56v56H0z"/><path d="M8 38h40v-7.4L8 38z" fill="#818587"/><path fill-rule="evenodd" d="M8 18h40v10.47L8 35.75V18zm1.1 5.54l4.46-.79c1.15-.25 3.55-.16 3.96 2.28.18.8.05 2.57-1.91 3.3l3.5 3.44-3.34.58L12.75 29l.62 3.77-2.72.5-1.55-9.73zm3.07 1.53c.78-.24 2.36-.41 2.5.82.18 1.34-1.09 1.56-1.82 1.69a6 6 0 00-.27.05l-.4-2.56zm14.88-1.66l-2.42.45.18 1.1c-.7-.82-1.68-.97-2.07-.95-2.95.15-3.8 2.49-3.4 4.52.42 2.11 2.03 3.05 3.73 2.81a3.47 3.47 0 002.46-1.78l.16 1.03 2.42-.43-1.06-6.75zm-1.68 4.1a1.8 1.8 0 11-3.6 0 1.8 1.8 0 013.6 0zm4.87 2.32l-1.1-6.79 2.42-.46.23 1.45c.1-.57.8-1.8 2.82-2.16a2.29 2.29 0 012.78 1.81l.77 4.72-2.63.45-.45-2.76-.02-.17c-.12-.94-.3-2.28-1.58-2-1.36.31-1.37 1.73-1.2 2.4l.51 3.02-2.55.49zm12.41-9.4c3.42-.68 4.57 1.91 4.72 3.3l-5.58 1.08c-.02.46.44 1.37 1.43 1.32 1.38-.06 1.77-.76 1.9-1.11l2.07.36c-.38 1.2-1.65 1.82-2.45 2.05-3.68 1.02-5.19-1.06-5.47-2.26-.3-1.3-.03-4.07 3.38-4.75zm.1 1.47c-.93.22-1.18 1.1-1.19 1.52l2.98-.57c-.1-.28-.65-1.22-1.8-.95z" fill="#175EAB"/></svg>