<svg width="56" height="56" viewBox="0 0 56 56" xmlns="http://www.w3.org/2000/svg"><path fill="#F0F3FA" d="M0 0h56v56H0z"/><path fill-rule="evenodd" d="M24 34v-9h-1v-2h1v-1.5c0-1.5 1-3.5 3-3.5h1l.5 2c-1.17-.78-2.5 0-2.5 1v2h3v2h-3v9h-2ZM6 23H4v11h2v-7.5c.8-1.2 3-1.5 4-1.5v-2c-1.6 0-3.33.67-4 1v-1Zm13.34 7.64a3.54 3.54 0 0 1-6.09-.89L22 27.48A5.54 5.54 0 0 0 16.55 23 5.52 5.52 0 0 0 11 28.5a5.56 5.56 0 0 0 10.17 3.04l-1.83-.9Zm-6.24-2.9 6.24-1.38a3.54 3.54 0 0 0-6.24 1.37ZM34.55 32c1.14 0 2.15-.53 2.8-1.36l1.82.9A5.56 5.56 0 0 1 29 28.5c0-3.04 2.48-5.5 5.55-5.5A5.54 5.54 0 0 1 40 27.48l-8.75 2.27a3.53 3.53 0 0 0 3.3 2.25Zm2.8-5.64-6.25 1.37a3.54 3.54 0 0 1 6.24-1.37ZM41 23.5c0-.17 0-.34.02-.5h2.02a3.5 3.5 0 1 0 6.93 0h2a5.5 5.5 0 0 1-3.18 5.5 5.5 5.5 0 0 1 3.19 5.5h-2.02a3.5 3.5 0 1 0-6.93 0h-2a5.5 5.5 0 0 1 3.18-5.5 5.5 5.5 0 0 1-3.21-5Z" fill="url(#abntntgmb)"/><defs><linearGradient id="abntntgmb" x1="4.5" y1="28.5" x2="49" y2="29" gradientUnits="userSpaceOnUse"><stop stop-color="#496CA2"/><stop offset=".46" stop-color="#7FBD3B"/><stop offset="1" stop-color="#EA6233"/></linearGradient></defs></svg>