<svg xmlns="http://www.w3.org/2000/svg" width="56" height="56"><path fill="#ED1852" d="M0 0h56v56H0z"/><path d="M7.98 24.87a1 1 0 011-.87h2.65c.36.05.85.22 1.25.6.42.4.69 1 .59 1.83-.12.99-.64 1.65-1.24 2.05-.58.38-1.24.52-1.7.52h-.07l2.4 3.2a.5.5 0 01-.8.6L9.22 29h-.76L8 32.56a.5.5 0 11-1-.12l.98-7.57zm.6 3.13h1.96c.3 0 .75-.1 1.15-.36.38-.25.71-.66.8-1.33.06-.52-.1-.81-.3-1-.2-.18-.46-.28-.64-.31H8.97l-.39 3z" fill="#fff"/><path fill-rule="evenodd" d="M14.5 30h4.08c.47 0 .94-.35.97-.89.12-1.85-1.17-3.11-2.74-3.11-1.88 0-3.03 1.69-3.3 3.42a1 1 0 000 .27v.02a3.13 3.13 0 00.84 2.46c.57.57 1.35.86 2.14.83a4.54 4.54 0 002.67-1.2.5.5 0 00-.7-.72c-.14.13-.42.36-.79.56-.37.2-.79.34-1.21.36a1.87 1.87 0 01-1.4-.54c-.32-.32-.55-.8-.56-1.46zm.13-1h3.93c.05-1.26-.79-2-1.75-2-1 0-1.83.8-2.18 2zm12.2 1.14c-.47 1.9-2.03 3.15-3.48 2.8a2.42 2.42 0 01-1.61-1.47l-.48 4.09a.5.5 0 11-1-.12l1.05-9a.5.5 0 111 .12l-.1.87c.7-1.05 1.8-1.63 2.85-1.37 1.45.36 2.24 2.18 1.77 4.08zm-.97-.17c-.34 1.35-1.47 2.25-2.52 1.99s-1.63-1.57-1.29-2.93c.34-1.35 1.47-2.25 2.52-1.99s1.63 1.57 1.29 2.93zm9.41 2.79c1.55.7 3.48-.2 4.3-2 .83-1.8.25-3.82-1.3-4.52-1.55-.7-3.48.2-4.3 2-.83 1.8-.24 3.82 1.3 4.52zm.87-.78c1.06.26 2.2-.64 2.53-2.01.34-1.37-.24-2.7-1.3-2.95-1.06-.26-2.2.64-2.53 2.01-.35 1.37.24 2.7 1.3 2.95z" fill="#fff"/><path d="M29.38 26.73A3.07 3.07 0 0131.3 26c.83.03 1.43.34 1.76.58a.5.5 0 01-.6.8c-.2-.14-.6-.36-1.19-.38-.23 0-.76.1-1.25.5-.47.4-.93 1.08-1.02 2.27-.07.88.23 1.44.62 1.77.4.35.93.49 1.34.46.16-.02.37-.07.56-.14.2-.09.3-.18.35-.23a.5.5 0 01.8.6c-.2.26-.5.43-.76.55-.29.12-.6.2-.88.21a2.9 2.9 0 01-2.07-.7 3 3 0 01-.96-2.6c.1-1.44.69-2.38 1.38-2.96z" fill="#fff"/><path d="M28.19 23.34l-.71 2.87-1.07-1.02v-.75H23v-.9L38.9 19 51 24.97V26h-7.99l-2.41 9.3c-.08.27-.31.79-.66.69-.36-.1-.4-.53-.34-.86L41.7 24h3.6l-6.63-3-10.48 2.34z" fill="#FFB200"/></svg>