<svg xmlns="http://www.w3.org/2000/svg" width="56" height="56"><path fill="#004696" d="M0 0h56v56H0z"/><path fill-rule="evenodd" d="M5.5 26a.5.5 0 00-.5.5V32h1v-2h1.56l1.25 2h1.18l-1.32-2.11A2 2 0 008 26H5.5zm.5 1v2h2a1 1 0 100-2H6z" fill="#fff"/><path d="M18 26h-1v5a1 1 0 001 1h3a1 1 0 001-1h-4v-5zm4.5 0h1v6h-1v-6zm5.27-.56a.83.83 0 011.46 0L32.7 32h-1.13l-2.86-5.53a.2.2 0 00-.36 0L25.48 32h-1.13l3.42-6.56z" fill="#fff"/><path d="M28.5 28.38L26.7 32h3.6l-1.8-3.62z" fill="#E11D22"/><path d="M33 26.7a.7.7 0 011.2-.48l3.8 4.1V26h1v5.3a.7.7 0 01-1.2.47L34 27.55V32h-1v-5.3zm9.5-.7a3 3 0 100 6H45v-1h-2.5a2 2 0 110-4H45v-1h-2.5z" fill="#fff"/><path fill-rule="evenodd" d="M16.31 29.5c.03-.16.04-.33.04-.5 0-1.77-1.34-3.2-3-3.2s-3 1.43-3 3.2c0 1.76 1.34 3.2 3 3.2 1.05 0 1.97-.58 2.51-1.45l-.78-.64a1.97 1.97 0 01-1.73 1.09c-.95 0-1.74-.73-1.95-1.7h4.91zm-2.96-2.7c-.95 0-1.74.73-1.95 1.7h3.9c-.2-.97-1-1.7-1.95-1.7zm37.91 2.7c.03-.16.04-.33.04-.5 0-1.77-1.34-3.2-3-3.2s-3 1.43-3 3.2c0 1.77 1.34 3.2 3 3.2 1.05 0 1.97-.58 2.51-1.45l-.78-.63a1.97 1.97 0 01-1.73 1.08c-.95 0-1.74-.72-1.95-1.7h4.91zm-2.96-2.7c-.95 0-1.74.73-1.95 1.7h3.9c-.2-.97-1-1.7-1.95-1.7z" fill="#fff"/></svg>