<svg xmlns="http://www.w3.org/2000/svg" width="56" height="56" viewBox="0 0 56 56"><path fill="#F0F3FA" d="M0 0h56v56H0z"/><path d="M38.18 16.19c-.3-.17-.41-.19-.54-.19-.12 0-.24.02-.54.19L28 21.52l-9.1-5.33c-.29-.17-.41-.19-.53-.19-.13 0-.25.02-.54.19l-9.37 5.5c-.35.2-.45.4-.45.67s.16.48.45.65l9.37 5.5c.3.17.41.19.54.19.12 0 .24-.02.54-.2l18.46-10.79c.13-.07.2-.1.28-.1a.6.6 0 0 1 .3.1l8.64 5.07a1 1 0 0 1 .47.56c.68-.23.95-.54.95-.97 0-.28-.13-.5-.6-.78l-9.22-5.4zm-11.62 6.16l-1.8 1.05-5.86-3.44c-.3-.18-.42-.2-.54-.2-.13 0-.25.02-.54.2l-5.87 3.44-1.8-1.05 7.93-4.64c.12-.07.2-.1.28-.1.07 0 .15.03.28.1l7.92 4.64zm11.62 1.37c-.3-.17-.41-.18-.54-.18-.12 0-.24.01-.54.18l-18.46 10.8c-.13.07-.2.1-.28.1a.6.6 0 0 1-.3-.1l-8.64-5.07a1 1 0 0 1-.47-.55c-.68.22-.95.54-.95.96 0 .28.13.5.6.78l9.22 5.4c.3.18.41.2.54.2.12 0 .24-.02.54-.2l18.46-10.8c.13-.07.2-.1.28-.1.08 0 .17.03.3.1l8.64 5.08a1 1 0 0 1 .47.55c.68-.22.95-.54.95-.96 0-.28-.13-.5-.6-.78l-9.22-5.4zm0-3.76c-.3-.18-.41-.2-.54-.2-.12 0-.24.02-.54.2l-18.46 10.8c-.13.07-.2.1-.28.1a.6.6 0 0 1-.3-.1l-8.64-5.08a1 1 0 0 1-.47-.55c-.68.22-.95.54-.95.96 0 .28.13.5.6.78l9.22 5.4c.3.18.41.2.54.2.12 0 .24-.02.54-.2l18.46-10.79c.13-.07.2-.1.28-.1.08 0 .17.03.3.1l8.64 5.07a1 1 0 0 1 .47.55c.68-.22.95-.53.95-.96 0-.28-.13-.5-.6-.78l-9.22-5.4zm-20.1 4.85c.12-.08.2-.1.28-.1.07 0 .15.02.28.1l1.87 1.08-1.87 1.1c-.13.07-.2.1-.28.1a.61.61 0 0 1-.3-.1l-1.86-1.1 1.88-1.08zm5.38-.65l-1.78 1.04-2.78-1.63c-.28-.16-.42-.18-.54-.18-.13 0-.25.01-.54.18l-2.8 1.63-1.78-1.04 4.84-2.83c.12-.07.2-.1.28-.1.07 0 .15.03.28.1l4.82 2.83zM17.82 39.8c.3.18.41.19.54.19.12 0 .24-.02.54-.19L28 34.48l9.1 5.33c.29.18.41.19.53.19.13 0 .25-.02.54-.19l9.37-5.5c.35-.2.45-.4.45-.67s-.16-.48-.45-.65l-9.37-5.5c-.3-.17-.41-.18-.54-.18-.12 0-.24.01-.54.18L18.64 38.3c-.13.07-.2.1-.28.1a.61.61 0 0 1-.3-.1l-8.64-5.07a1 1 0 0 1-.47-.55c-.68.22-.95.53-.95.96 0 .28.13.5.6.78l9.22 5.4zm11.62-6.16l1.8-1.05 5.86 3.44c.3.18.42.2.54.2.13 0 .25-.02.54-.2l5.87-3.43 1.8 1.04-7.93 4.64c-.12.07-.2.1-.28.1-.07 0-.15-.03-.28-.1l-7.92-4.64zm8.48-2.46c-.12.08-.2.1-.28.1-.07 0-.15-.02-.28-.1l-1.87-1.08 1.87-1.1c.13-.07.2-.1.28-.1a.6.6 0 0 1 .3.1l1.86 1.1-1.88 1.08zm-5.38.65l1.78-1.04 2.78 1.63c.28.16.42.18.54.18.13 0 .25-.01.54-.18l2.8-1.63 1.78 1.04-4.84 2.83c-.12.07-.2.1-.28.1-.07 0-.15-.03-.28-.1l-4.82-2.83z" fill="#3C5467"/></svg>