<svg xmlns="http://www.w3.org/2000/svg" width="56" height="56"><path fill="#1C2F6E" d="M0 0h56v56H0z"/><path d="M4 32l3.29-5.4c.57-.75 1-1.49 3.42-1.6h7.87l-.79 1.24c-.38.76-1.3.79-1.98.76H11.7c-.93-.03-1.51.24-1.98.86L7.18 32H4z" fill="#fff"/><path d="M7.78 32l2.47-4c.14-.23.27-.52 1.18-.52h2.48L11.1 32H7.78zm17.36-4.52c-.74 1.6-2.12 1.78-2.37 2.04.2.2.12.71 0 .96s-.2 1.34-.22 1.52h-1.71l.1-1.52c0-.23-.02-.5-.34-.48h-1.17c-.24 0-.42.16-.53.33l-1 1.67h-1.67l2.74-4.52h1.72l-.66 1.06c-.12.25-.17.46.18.46h1.6c.28-.01 1.39-.5 1.73-1.52h1.6zM19.84 26l-.64 1h6.23v-.42c.03-.25-.16-.56-1.02-.58h-4.57zm4.61 6h1.53l2.74-4.52H27.2L24.45 32zm3-5h1.46l.68-1h-1.46l-.69 1zm2.46 5h1.52l2.74-4.52h-1.52L29.91 32zm.94-5h5.7l.7-1h-5.71l-.69 1zm12.76 0l.68-1h-3.55c-.68.03-1.56.04-2.49 1h5.36zm7.7 0l.69-1h-3.77c-.67.03-1.7.04-2.62 1h5.7zm-13.35.48l-2.24 3.65c-.21.35-.4.87.5.87h4.46l.65-1h-3.7c-.09-.01-.1-.13.04-.35l.65-1.15h3.85l.68-1h-3.84l.6-1.02h-1.65zm7.45 0h1.74c-.18.28-.76 1.04.12 1.02h1.89c.54 0 1.41.21.9 1.17-.09.3-.51.85-.51.85-.64.87-1.17 1.48-3.36 1.48h-3.54l.62-1h3.71c.43-.02.69-.06.99-.58l.26-.46c.1-.23.16-.46-.4-.46H46.3c-.9 0-1.91-.26-1.3-1.31l.4-.7zM14.9 24c.87 0 1.58-.45 1.58-1s-.7-1-1.58-1c-.88 0-1.59.45-1.59 1s.71 1 1.59 1" fill="#fff"/></svg>