<svg width="56" height="56" viewBox="0 0 56 56" xmlns="http://www.w3.org/2000/svg"><path fill="#F0F3FA" d="M0 0h56v56H0z"/><path fill-rule="evenodd" d="M19.99 36.16c.03-.1.09-.12.17-.06a227.5 227.5 0 0 1 7.87 5.63c.74.56 1.33.9 1.76 1.04.64.19 1.33.26 2.08.22a9.52 9.52 0 0 0 8.1-4.89c.57-.97.9-1.94.99-2.9.02-.27.04-1 .04-2.19 0-.43-.2-.75-.63-.96a7.6 7.6 0 0 1-1.55-1.02c-.1-.1-.1-.18.03-.24l.08-.05a6.36 6.36 0 0 0 1.53-1.1c.41-.49.56-1.09.46-1.82a3.82 3.82 0 0 0-.95-2.14 9.48 9.48 0 0 1-.68-.79c-.23-.31-.15-.43.23-.35l.85.16c.1.01.2-.02.24-.1.05-.08.03-.14-.05-.19-.7-.4-1.22-.94-1.54-1.64-.3-.66-.19-1.28.35-1.86.36-.38.77-.7 1.24-.96.07-.04.12-.1.14-.19a.27.27 0 0 0-.05-.22c-.61-.8-1.2-1.69-1.77-2.66-.53-.9-1.42-1.42-2.69-1.53l-.54-.05c-1.3-.13-3.08-.3-4.58-.3-.1 0-.12.06-.12.17v18.72c0 .08-.07.11-.15.11L23.02 34c-.22 0-.26-.1-.12-.3a.3.3 0 0 1 .15-.12c2.8-.98 5.83-2.97 7.04-5.84.57-1.34.63-2.76.18-4.26a8.26 8.26 0 0 0-2.29-3.67 66.36 66.36 0 0 0-5.28-4.46.14.14 0 0 0-.15-.02.14.14 0 0 0-.09.13c-.05.77-.08 1.6-.06 2.46 0 .07-.02.15-.06.25a.1.1 0 0 1-.09.06c-.04 0-.07-.01-.09-.05-.38-.69-.67-1.2-.89-1.53-.68-1.05-2.07-1.59-4.17-1.62-1.27-.03-2.52-.03-3.76 0-.08 0-.12.04-.13.12a79.44 79.44 0 0 0-.21 4.1 5 5 0 0 0 2.82 4.61c.04.02.12.15.03.15h-2.7c-.07 0-.15.05-.15.12v.61c0 1.4 0 2.83.06 4.1.11 2.43 1.38 4 3.79 4.69.02 0 .04.02.05.05 0 .03-.01.05-.03.07-1.4 1.01-1.8 2.1-1.2 3.26.31.6.87 1 1.66 1.2.64.17 1.2.03 1.71-.4.45-.37.76-.88.95-1.54Zm16.63-7.72c-.25 0-.39-.12-.4-.37-.18-2.06-.1-3.71.24-4.96a4.14 4.14 0 0 1 2.64-2.86.65.65 0 0 0 .28-.2c.05-.07.04-.1-.04-.1a16.52 16.52 0 0 0-3.4.09c-1.02.15-1.62.65-1.8 1.53A8.1 8.1 0 0 0 34.9 27a10.4 10.4 0 0 0 3.26 3.56c.05.03.1.04.15.02a.14.14 0 0 0 .08-.12c.08-.73.1-1.34.07-1.82 0-.13-.08-.2-.21-.2h-1.63Zm-.97-9.95c.4.07.78-.2.84-.62a.77.77 0 0 0-.64-.86.73.73 0 0 0-.84.62c-.06.4.23.8.64.86Zm-13.4 6.14c0-.05 0-.1-.04-.13a.16.16 0 0 0-.13-.05 21.63 21.63 0 0 1-2.3-.05c-.1.09-.09.17.02.23.61.36 1.05.68 1.33.95.27.27.58.71.94 1.32.07.1.15.12.23.02v-.1a21.9 21.9 0 0 1-.04-2.2Z" fill="#EC1C23"/></svg>