<svg xmlns="http://www.w3.org/2000/svg" width="56" height="56"><path fill="#F0F3FA" d="M0 0h56v56H0z"/><path d="M24.6 29.55c.63 0 1.13-.52 1.13-1.17 0-.64-.5-1.17-1.13-1.17-.63 0-1.13.53-1.13 1.17 0 .65.5 1.17 1.13 1.17zm3.3 0c.63 0 1.14-.52 1.14-1.17 0-.64-.5-1.17-1.13-1.17-.63 0-1.14.53-1.14 1.17 0 .65.51 1.17 1.14 1.17zm4.45-1.17c0 .65-.5 1.17-1.13 1.17-.63 0-1.14-.52-1.14-1.17 0-.64.51-1.17 1.14-1.17.62 0 1.13.53 1.13 1.17z" fill="#5E7979"/><path d="M21.97 21.52c.18-.59.42-1.17.98-1.48h.03c-.52-.09-1.01-.18-1.5-.21-.07 0-3.59-.46-6.16 2.58-.06.43-.25 2.34-.3 3.88-.07 2.9-.04 12.68 2.9 16.8.03.06 3.25 4.9 13.17-1.05-1.74-.21-6.43-1.29-8.66-6.27a15.65 15.65 0 01-1.3-5.14 25.48 25.48 0 01.68-8.46c.03-.22.1-.44.16-.65z" fill="url(#awkpxto4c)"/><path d="M37.9 19.15c-11.5-8.9-16.1-8.15-16.13-8.12-5.17.27-6.25 8.3-6.43 10.64v.03a7.66 7.66 0 015-2.28c3.79-.3 7.53 1.8 10.47 4 1.25.96 2.45 2 3.55 3.11.67.68.98 1.33.92 2.13 2.3-3.33 3.74-6.77 2.6-9.51z" fill="url(#bwkpxto4c)"/><path d="M45 28.26c-.19-3.14-4.72-7.14-6.4-8.56l-.06-.06c.27.99.24 2.03.06 3.11a15.36 15.36 0 01-2.51 5.54c-.4.61-.83 1.2-1.3 1.78a46.48 46.48 0 01-8.26 8.06l-.8.56.43-.83c.25-.5.55-1.2.55-1.2.28-.62.4-1.14.28-1.33 0-.03-.06-.06-.19-.06-.21 0-.42.1-.64.19l-.18.09c-.68.28-1.41.58-2.18.43-.24-.03-.46-.12-.67-.21-.1-.04-.18-.1-.25-.13.07.13.13.25.19.4 2.6 5.17 8.02 5.6 8.67 5.63C45.49 33.06 45 28.3 45 28.26z" fill="url(#cwkpxto4c)"/><defs><linearGradient id="awkpxto4c" x1="18.7" y1="18.9" x2="24.33" y2="44.04" gradientUnits="userSpaceOnUse"><stop stop-color="#044256"/><stop offset=".3" stop-color="#009AD9"/></linearGradient><linearGradient id="bwkpxto4c" x1="16.68" y1="16.21" x2="38.31" y2="23.85" gradientUnits="userSpaceOnUse"><stop offset=".73" stop-color="#B63E97"/><stop offset="1" stop-color="#5F1B54"/></linearGradient><linearGradient id="cwkpxto4c" x1="42.8" y1="23.71" x2="25.78" y2="39.96" gradientUnits="userSpaceOnUse"><stop offset=".71" stop-color="#EE2E24"/><stop offset="1" stop-color="#791912"/></linearGradient></defs></svg>