<svg xmlns="http://www.w3.org/2000/svg" width="56" height="56"><path fill="#F0F3FA" d="M0 0h56v56H0z"/><path d="M15.83 21.92c2.26-2.89 6.77-8.64-11.83-1.44 1.62.08 5.34.46 7.2 1.32A97.48 97.48 0 016.87 32c3.05-3.33 6.17-6.52 8.97-10.08z" fill="url(#a0ow1pp5z)"/><path d="M15.8 21.96a67.9 67.9 0 01-1.04 1.28l-3.55-1.44c-1.87-.86-5.59-1.24-7.21-1.32 5-1.94 8.34-2.94 10.5-3.3 5.84-1.01 2.98 2.63 1.33 4.74l-.04.04z" fill="url(#b0ow1pp5z)"/><path fill-rule="evenodd" d="M15 25a1 1 0 011-1h4a3 3 0 011.54 5.57A2 2 0 0123 31.5V33c0 1 .3 1 .3 1h-1.8s-.5 0-.5-1v-1a2 2 0 00-2-2h-2v4h-2v-9zm2 3v-2h3a1 1 0 110 2h-3z" fill="#963790"/><path d="M23 27.21a3 3 0 01-1.46 2.36A2 2 0 0123 31.5V33c0 1 .3 1 .3 1h-2s-.3 0-.3-1v-1a2 2 0 00-2-2h-2v4h-2v-4.55l8-2.24z" fill="url(#c0ow1pp5z)"/><path fill-rule="evenodd" d="M26 24a1 1 0 00-1 1v9h2v-3h2a3 3 0 003-3v-1a3 3 0 00-3-3h-3zm1 2v3h1.5a1.5 1.5 0 000-3H27z" fill="#963790"/><path fill-rule="evenodd" d="M25 26.6V34h2v-3h2a3 3 0 003-3v-1a3 3 0 00-1-2.24l-6 1.84zm2-.6v3h1.5a1.5 1.5 0 000-3H27z" fill="url(#d0ow1pp5z)"/><path d="M33.58 26.06c.44-1.25 1.78-2.06 3.35-2.06 1.68 0 3.23.98 3.7 3H38.5s-.29-1-1.58-1c-1.01 0-1.36.41-1.47.72-.12.35-.02.78.46 1.05.28.15.6.19 1.22.24h.03c.54.05 1.32.12 2.04.57A2.83 2.83 0 0140.39 32c-.47 1.25-1.75 2.04-3.32 1.99-2.07 0-3.42-1.04-3.87-3h2.1c.32.6.7 1 1.77 1 .93 0 1.34-.4 1.46-.7.13-.34.04-.76-.39-1.03-.26-.16-.58-.22-1.17-.27h-.1a4.65 4.65 0 01-1.92-.48 2.85 2.85 0 01-1.37-3.46z" fill="#EF7034"/><path d="M46.65 24c1.93 0 3.63 1.3 4.35 3h-2.27c-.47-.68-1.26-1-2.08-1-1.64 0-2.65 1.51-2.65 3 0 1.6 1.03 3 2.75 3 .7 0 1.59-.2 2.25-.62v-.88h-1a1 1 0 01-1-1v-1h4V34h-.5a1 1 0 01-1-1c-.77.73-1.8 1-2.75 1-2.83 0-4.76-2.3-4.75-5 0-2.6 1.9-5 4.65-5z" fill="url(#e0ow1pp5z)"/><path d="M44.35 27.5a3.4 3.4 0 00.3 3.5l-.54 2.2a5.29 5.29 0 01-.78-7.7l1.02 2z" fill="#EF7034"/><defs><linearGradient id="a0ow1pp5z" x1="11" y1="22.4" x2="11" y2="32" gradientUnits="userSpaceOnUse"><stop stop-color="#5F0359"/><stop offset="1" stop-color="#8A278D"/></linearGradient><linearGradient id="b0ow1pp5z" x1="17.83" y1="18.08" x2="4.47" y2="20.45" gradientUnits="userSpaceOnUse"><stop stop-color="#ED7335"/><stop offset=".26" stop-color="#E9098B"/><stop offset="1" stop-color="#972281"/></linearGradient><linearGradient id="c0ow1pp5z" x1="22.5" y1="28.5" x2="15" y2="31" gradientUnits="userSpaceOnUse"><stop stop-color="#BD358D"/><stop offset="1" stop-color="#B02F91"/></linearGradient><linearGradient id="d0ow1pp5z" x1="32" y1="26.5" x2="25" y2="29" gradientUnits="userSpaceOnUse"><stop stop-color="#E06456"/><stop offset="1" stop-color="#C64880"/></linearGradient><linearGradient id="e0ow1pp5z" x1="50.5" y1="26.5" x2="45" y2="33.5" gradientUnits="userSpaceOnUse"><stop stop-color="#B5265D"/><stop offset=".46" stop-color="#E15132"/><stop offset="1" stop-color="#D33F3E"/></linearGradient></defs></svg>