<svg width="56" height="56" viewBox="0 0 56 56" xmlns="http://www.w3.org/2000/svg"><path fill="#F0F3FA" d="M0 0h56v56H0z"/><path d="m8.63 28.37 1.76 3.29a.23.23 0 0 1-.21.34H8.8c-.09 0-.15-.09-.2-.17L6.93 28.7a.19.19 0 0 0-.17-.1l-.9-.03c-.1 0-.14.04-.14.12v3c0 .18-.08.31-.25.32H4.32a.3.3 0 0 1-.12-.03.3.3 0 0 1-.2-.28v-8.13c0-.2.1-.32.3-.36 2.14-.35 5.98-.64 5.85 2.7-.04 1.12-.53 1.89-1.48 2.33-.06.03-.08.07-.04.14ZM5.7 24.6v2.45a.1.1 0 0 0 .1.1h1.4a1.35 1.35 0 0 0 .88-.33 1.05 1.05 0 0 0 .37-.8v-.38c0-.3-.13-.59-.36-.8a1.3 1.3 0 0 0-.88-.34H5.81a.1.1 0 0 0-.1.1ZM13.65 28.8v2.85c0 .24-.12.36-.35.35h-1.05c-.17 0-.25-.14-.25-.31v-8.16c0-.07.03-.14.07-.2.05-.06.12-.1.2-.11 2.37-.43 5.99-.57 5.72 2.97-.07.87-.41 1.51-1.03 1.93-.93.64-2.09.59-3.15.53-.1 0-.16.05-.16.15Zm-.01-4.21v2.57a.12.12 0 0 0 .04.08.12.12 0 0 0 .09.04h1.3c.33-.01.65-.13.89-.34.23-.2.37-.48.36-.78v-.6a.98.98 0 0 0-.1-.43 1.1 1.1 0 0 0-.28-.35 1.3 1.3 0 0 0-.4-.24 1.44 1.44 0 0 0-.5-.08h-1.29a.11.11 0 0 0-.08.04.12.12 0 0 0-.03.09Z" fill="#A02A7E"/><path d="M22 25.67v4.88c0 .4.18.6.6.61l1.55.01c.06 0 .13.02.19.06.34.22.35.43.03.64a.41.41 0 0 1-.15.05c-.94.14-2.55.2-3.01-.77-.14-.3-.21-.63-.21-1 .02-2.25.02-4.49 0-6.7 0-.3.16-.45.49-.45h.06c.28 0 .45.14.45.4v1.16c0 .08 0 .12.09.12h2.01c.3 0 .44.14.44.41v.07c0 .23-.12.35-.36.35h-2.05c-.12 0-.13.05-.13.16ZM38.12 24.79c1.33-.27 2.9-.36 3.59 1.06.21.45.3 1.1.29 1.94-.03 1.23-.03 2.5 0 3.78 0 .25-.11.4-.36.43h-.14c-.25.02-.5-.1-.5-.35v-4.33c0-.48.07-.86-.06-1.12-.5-1.05-1.91-.84-2.86-.6-.06 0-.08.05-.08.11v5.91c0 .2-.11.35-.31.38h-.26c-.27 0-.43-.1-.43-.4v-8.22c0-.27.13-.4.4-.38h.3c.2.02.3.12.3.32v1.36c0 .09.03.12.12.1ZM25.94 28.77c0 1.26.42 2.37 1.98 2.41.81.02 1.6-.04 2.37-.19.21-.04.34.04.38.24l.02.09c.05.24-.05.39-.3.44-1.97.39-4.5.56-5.17-1.66a6.5 6.5 0 0 1-.22-1.99c.03-1.78.78-3.38 2.95-3.38 2.24 0 2.87 1.63 2.86 3.39 0 .58-.4.53-.89.53h-3.84c-.1 0-.14.04-.14.12Zm.1-.93h3.77c.02 0 .04-.02.05-.03a.07.07 0 0 0 .02-.05v-.33c0-.51-.19-1-.53-1.36-.33-.36-.8-.56-1.27-.56h-.31a1.7 1.7 0 0 0-1.27.57 1.94 1.94 0 0 0-.52 1.36v.33c0 .02 0 .04.02.05l.05.02ZM32.27 26.97c-.23 1.35-.46 4.27 1.79 4.21.54-.02 1.11-.04 1.71-.08.22-.02.35.08.36.3v.05c.03.22-.08.34-.3.38-1.77.32-3.6.34-4.31-1.57a4.18 4.18 0 0 1-.24-1.27c-.06-1.12-.08-2.4.64-3.32.94-1.2 2.5-.96 3.87-.84a.38.38 0 0 1 .27.16c.08.12.11.24.07.36-.06.2-.2.28-.42.26-1.37-.13-3.13-.46-3.44 1.36Z" fill="#737372"/><path d="M51.9 27.75c-.05.13-.12.2-.18.23-.56.27-1.75.83-3.6 1.67l-6.18-4.76c-.15-.1-.13-.16.05-.17 1.36-.02 2.7 0 4.02.08.65.04 1.64.22 2.2.57l3.7 2.38Z" fill="#522664"/><path d="M51.9 27.75c.08.02.11.08.1.17a247 247 0 0 0-.8 3.9.22.22 0 0 1-.13.15l-14.4 6.98c-.21.1-.28.04-.2-.18a10.48 10.48 0 0 1 3.03-4.66c.5-.43 1.49-1 2.97-1.72l5.66-2.74c1.84-.84 3.03-1.4 3.59-1.67.06-.03.13-.1.18-.23Z" fill="#A02A7E"/></svg>