<svg xmlns="http://www.w3.org/2000/svg" width="56" height="56" viewBox="0 0 56 56"><path fill="#F0F3FA" d="M0 0h56v56H0z"/><path d="M14 16h11.61c1.23 0 2.37.37 3.34 1H14v-1zm.7 1.5c.23.23.35.57.35.96v1.04h6.28v-.36h1.3c.48 0 .94.13 1.35.36h7.17a6.36 6.36 0 0 0-1.54-2H14.7zm16.7 2.6h-6.68c.44.5.73 1.17.8 1.9h6.28a6.47 6.47 0 0 0-.4-1.9zm.4 2.4h-6.28a3.24 3.24 0 0 1-.86 2h6.79c.22-.63.34-1.3.36-2zm-.55 2.5h-7.2c-.42.26-.9.4-1.43.4h-1.29V25h-6.28v2h14.8a6.38 6.38 0 0 0 1.4-2zm-1.99 2.5H15.05v2h6.28v-.55l.44.55h4.31V29h2.4l-.55-.74c.47-.2.92-.45 1.33-.76zM32.3 34h-6.22v-1.5h-1.9l1.62 2h6.88l-.38-.5zm.76 1H26.2l1.2 1.5h6.8L33.07 35zm1.57 2h-6.82l1.61 2H36v-1.47c-.51 0-1-.19-1.37-.53zm-13.3-.5V35h-6.28v1.5h6.29zm-6.36.5h6.47c.18.41.54.7 1.03.7V39H14v-1.3c.47 0 .82-.29.97-.7zm.08-2.5h6.28v-2h-6.28v2zm0-2.5h6.28v-2h-6.28v2zm7.13-2l1.6 2h2.3v-2h-3.9zm-7.13-5.5h6.28v-2h-6.28v2zm0-2.5h6.28v-1.9h-6.28V22z" fill="#008EC6"/><path fill-rule="evenodd" d="M25.7 29a.7.7 0 0 0-.7.7v3.6c0 .39.31.7.7.7h23.6a.7.7 0 0 0 .7-.7v-3.6a.7.7 0 0 0-.7-.7H25.7zm2.44 3.2a.33.33 0 0 0-.18-.29 2.38 2.38 0 0 0-.62-.2 3.5 3.5 0 0 1-.72-.25c-.34-.16-.5-.38-.5-.65 0-.24.12-.43.36-.58.25-.15.56-.23.96-.23a2 2 0 0 1 .69.11c.2.08.36.18.48.32.11.14.17.3.17.46h-.64a.41.41 0 0 0-.19-.35.89.89 0 0 0-.52-.13.96.96 0 0 0-.5.1.33.33 0 0 0-.17.3c0 .1.07.2.2.27.12.07.33.14.62.2.29.07.52.15.7.24.17.08.3.18.38.3.08.1.12.23.12.38 0 .25-.12.44-.35.59-.24.14-.56.21-.97.21a2.3 2.3 0 0 1-.75-.12c-.22-.08-.4-.18-.52-.32a.7.7 0 0 1-.19-.48h.65c0 .16.07.3.2.38.15.1.35.14.6.14.23 0 .4-.04.52-.1.11-.08.17-.17.17-.3zm2.43-.78l.86-1.42h.71l-1.25 1.89V33h-.65v-1.11L29 30h.72l.86 1.42zm3.7.5c.12.06.18.16.18.29 0 .12-.05.21-.17.28a.97.97 0 0 1-.5.1 1.1 1.1 0 0 1-.6-.13.43.43 0 0 1-.22-.38h-.64c0 .18.06.34.18.48.13.14.3.24.53.32.23.08.47.12.74.12.41 0 .73-.07.97-.21.24-.15.36-.34.36-.59a.64.64 0 0 0-.12-.39 1.02 1.02 0 0 0-.39-.3c-.18-.08-.4-.16-.7-.22-.29-.07-.5-.14-.62-.21-.13-.08-.2-.16-.2-.27 0-.13.07-.23.18-.3.12-.07.28-.1.5-.1.22 0 .4.04.52.13.12.08.18.2.18.35h.65a.7.7 0 0 0-.18-.46 1.1 1.1 0 0 0-.48-.32 2 2 0 0 0-.69-.11c-.39 0-.7.08-.95.23-.25.15-.37.34-.37.58 0 .27.17.49.51.65.18.1.42.17.72.24.3.07.5.14.62.21zm4.09-1.47H37.2V33h-.64v-2.55H35.4v-.41h2.96v.4zm1.34 1.2h1.33v-.4H39.7v-.8h1.57v-.41H39V33h2.29v-.45H39.7v-.9zM43 30l.93 2.28L45 30h1v3h-.7v-2.29L44.15 33h-.46l-.99-2.29V33H42v-3h1zm5.18 1.91c.11.07.17.17.17.3 0 .12-.05.21-.17.28a.97.97 0 0 1-.5.1 1.1 1.1 0 0 1-.6-.13.43.43 0 0 1-.22-.38h-.64c0 .18.06.34.18.48.13.14.3.24.53.32.23.08.47.12.74.12.41 0 .73-.07.97-.21.24-.15.36-.34.36-.59a.64.64 0 0 0-.12-.39 1.02 1.02 0 0 0-.39-.3c-.18-.08-.4-.16-.7-.22-.29-.07-.5-.14-.62-.21-.13-.08-.2-.16-.2-.27 0-.13.07-.23.18-.3.12-.07.28-.1.5-.1.22 0 .4.04.52.13.12.08.18.2.18.35H49a.7.7 0 0 0-.18-.46 1.1 1.1 0 0 0-.48-.32 2 2 0 0 0-.69-.11c-.39 0-.7.08-.95.23-.25.15-.37.34-.37.58 0 .27.17.49.51.65.18.1.42.17.72.24.3.07.5.14.62.21z" fill="#757679"/></svg>