<svg xmlns="http://www.w3.org/2000/svg" width="56" height="56" viewBox="0 0 56 56"><path fill="#00784A" d="M0 0h56v56H0z"/><path d="M4.03 22.57c.03.02.07.01.11.01h2.8c.24 0 .47.03.71.07.34.05.65.16.91.38.34.27.48.63.53 1.04.13 1-.44 1.7-1.14 2.1-.08.03-.09.07-.06.14.3.64.6 1.27.93 1.9.2.38.38.78.61 1.14.21.32.48.6.8.83.18.15.4.24.64.28.18.03.36.08.55.07.04 0 .08-.01.07.05 0 .05-.02.07-.07.07-.2.02-.38.02-.57.01a4.1 4.1 0 0 1-1.37-.21 3.1 3.1 0 0 1-1.22-.84c-.11-.12-.2-.27-.28-.4-.16-.25-.27-.51-.4-.77l-.46-1.01-.22-.5a.6.6 0 0 0-.54-.33h-.33c-.04 0-.03 0-.03.05v2.6c0 .05 0 .09.02.13.03.15.13.24.28.27l.3.06c.04 0 .06 0 .06.04v.2c0 .04-.02.05-.05.05H4.1c-.07 0-.1-.02-.1-.08a.6.6 0 0 0 0-.08c0-.13.02-.13.15-.15.08 0 .15-.02.22-.03a.35.35 0 0 0 .3-.3c.02-.15.04-.3.04-.45v-5.23l-.02-.36c-.02-.23-.1-.35-.28-.39a2.77 2.77 0 0 0-.26-.04c-.14-.03-.15-.03-.14-.17 0-.05 0-.1.02-.15zM6 24.63v1.48c0 .06-.02.08.05.08l.58-.01c.57-.04.97-.35 1.13-.9.1-.33.1-.67.07-1.02a1.43 1.43 0 0 0-.4-.87c-.37-.4-.84-.45-1.35-.35-.08.01-.08.04-.08.13v1.46zM18.72 26.89v-1.76c0-.07-.01-.1-.08-.1l-1.38.01c-.06 0-.08.01-.08.08v2.7c0 .32.02.64.12.95.12.36.33.53.68.54.16 0 .32-.01.47-.07.05-.02.07 0 .08.05l.03.15c.04.07 0 .12-.06.14-.27.14-.55.3-.85.35-.14.03-.27.08-.4.07-.17 0-.34 0-.5-.07a.91.91 0 0 1-.54-.49c-.12-.23-.15-.49-.18-.75-.03-.28-.03-.56-.03-.84v-2.72c0-.05.02-.09-.07-.1-.2-.03-.4-.04-.58-.09-.05 0-.09-.02-.08-.09v-.2c0-.04.03-.04.06-.04l.6-.1c.07 0 .08-.02.08-.08v-.35c0-.06.02-.1.06-.15l.73-.67c.11-.09.23-.16.35-.24.06-.04.15.03.14.12l-.07.7-.04.58c0 .06 0 .09.07.09h1.4c.06 0 .08-.03.07-.09v-.37c0-.04.02-.06.05-.1.32-.33.67-.61 1.02-.9.05-.03.11-.06.17-.03.05.02.04.09.04.15-.04.41-.08.83-.1 1.24 0 .08.01.1.08.1l.9.1c.06 0 .08.03.07.1a.8.8 0 0 0 0 .1c0 .12-.03.2-.15.19-.14 0-.8-.02-.8.1 0 .99-.03 1.92 0 2.9.02.57-.03 1.43.84 1.3.12-.01.23-.02.34-.07.04-.01.05 0 .06.04v.01c.01.08.06.16.04.24-.02.07-.12.08-.18.12-.4.22-.81.35-1.26.35a.95.95 0 0 1-.86-.44 1.7 1.7 0 0 1-.22-.72 5.12 5.12 0 0 1-.04-.74v-1.2zM44 29c.03.11.08.23.15.33.06.09.14.3.24.32.05.01.07.04.07.1-.01.04-.01.09 0 .14.01.08-.04.09-.1.1l-1.2.01c-.17 0-.18-.01-.23-.17v-.03c-.03-.05-.04-.24-.08-.28-.06-.04-.09.03-.12.05-.17.09-.31.21-.48.27-.22.08-.44.15-.67.14-.2 0-.4-.02-.6-.08a1.94 1.94 0 0 1-1.31-1.19c-.2-.47-.23-.96-.2-1.46 0-.26.05-.51.12-.75.1-.3.24-.58.43-.82a2.5 2.5 0 0 1 1.37-.86c.44-.12.9-.14 1.34-.05.06.01.08 0 .07-.07v-1.29c0-.21 0-.43-.05-.64-.06-.25-.2-.29-.43-.24-.07.02-.1 0-.1-.07-.01-.2-.01-.2.19-.25.47-.1.95-.2 1.43-.21.09 0 .16.02.16.1V29zm-1.2-1.66v-1.75c0-.04.02-.07-.01-.1a.99.99 0 0 0-.6-.35 1.16 1.16 0 0 0-1.3.77c-.33.8-.3 1.62.05 2.42.17.4.43.71.82.9.33.15.65.18.97-.02.06-.03.08-.07.08-.14v-1.73zM32.68 30h-1.24c-.07 0-.09-.02-.08-.08 0-.2 0-.2.2-.22a.86.86 0 0 0 .33-.12c.08-.04.11-.46.11-.63v-4.88c0-.36.06-.7-.4-.75-.07 0-.14-.02-.22-.04-.02 0-.02-.02-.02-.03v-.2c0-.04.02-.05.05-.04h2.48c.09 0 .13 0 .12.1v.06c.01.1-.03.13-.12.13-.1 0-.18.02-.26.05-.27.07-.3.36-.3.6-.02 1.67-.02 3.35 0 5.03 0 .25 0 .61.3.67l.32.06c.02 0 .05 0 .05.03v.24c0 .04-.05.02-.08.02h-1.24z" fill="#FCFDFC"/><path d="M15 32h10.88c.12 0 .11-.03.1.15 0 .1.04.25 0 .32-.06.06-.16.01-.24.01H4.1c-.06 0-.09 0-.09-.1.01-.1.02-.2 0-.3-.02-.05 0-.08.03-.08H15z" fill="#F1822B"/><path d="M47 29.16v-1.99-.75-1.34c0-.06-.02-.09-.08-.08l-.18.02a4.4 4.4 0 0 0-1.29.28l-.17.06c-.04.01-.06.04-.05.08v.19c-.02.06 0 .06.04.05.08-.03.16-.05.24-.05.11 0 .18.04.23.13l.05.13c.04.17.04.34.04.5v.8l-.01 2.05c0 .38-.12.42-.42.46-.17.02-.17.03-.17.18v.02c-.01.09.02.1.1.1h2.06c.1 0 .16 0 .18-.03.03-.02.03-.08.03-.18 0-.05-.02-.07-.07-.08-.1 0-.18-.02-.26-.04a.28.28 0 0 1-.25-.23c-.02-.1-.02-.19-.02-.28zm4.19-1.19c0 .32 0 .6.02.9.03.2.07.41.22.59.1.1.29.1.43.1h.04c.04 0 .1 0 .1.06 0 .05 0 .08-.07.11-.2.12-.5.25-.75.26-.41.02-.74-.03-1-.43-.05-.09-.05-.09-.14-.02-.38.3-.8.46-1.29.46a1.5 1.5 0 0 1-.65-.16c-.51-.25-.66-.78-.55-1.27.06-.29.22-.52.45-.72.33-.29.72-.45 1.13-.6a6.81 6.81 0 0 1 .8-.23c.07-.01.07-.04.07-.1v-.18c0-.19.01-.38-.05-.56-.16-.52-.6-.7-1.12-.51-.3.1-.49.32-.63.59a7.2 7.2 0 0 0-.18.35.08.08 0 0 1-.08 0 .08.08 0 0 1-.03-.02c-.1-.14-.19-.29-.23-.46a.07.07 0 0 1 .02-.07c.42-.48.9-.86 1.56-1a2.3 2.3 0 0 1 1.06 0c.4.1.63.36.75.73.09.28.1.57.11.85v1.33zm-1.19.34V28v-.46-.03c0-.03 0-.05-.05-.05-.33-.01-.62.07-.87.28-.33.3-.43.83-.22 1.25.14.29.39.43.72.39a.85.85 0 0 0 .41-.18.14.14 0 0 0 .06-.06 5.42 5.42 0 0 1-.05-.84zm-21.83-3.16c-.27.1-.5.27-.7.47v-.2-.34c0-.06-.02-.08-.08-.07l-.17.02-.18.01c-.37.06-.74.15-1.1.27h-.01c-.2.08-.2.08-.2.3v.02c-.01.06.01.06.06.05a.75.75 0 0 1 .24-.05c.09 0 .16.04.2.12a.9.9 0 0 1 .06.18c.03.13.03.25.03.37v3.08c-.01.07-.04.14-.09.2a.33.33 0 0 1-.2.11l-.08.01h-.04c-.16.03-.16.03-.17.19 0 .09.02.11.1.11h2.1c.15 0 .15 0 .15-.15 0-.06 0-.1-.02-.11-.01-.02-.04-.02-.1-.03h-.01l-.15-.02a.35.35 0 0 1-.3-.28 4506.17 4506.17 0 0 0-.02-3.39l.04-.04c.16-.17.35-.29.59-.33a.98.98 0 0 1 .68.1c.22.11.32.32.39.54.1.3.1.6.1.9l.01 1.39a424.7 424.7 0 0 0 0 .7c-.04.32-.1.38-.42.42-.18.03-.18.03-.18.2a.09.09 0 0 0 .03.08.09.09 0 0 0 .06.02H30.86c.2 0 .2 0 .2-.2 0-.07-.02-.08-.07-.09-.1 0-.19 0-.28-.04-.1-.02-.17-.08-.2-.18a1.42 1.42 0 0 1-.04-.4v-.58-1.09-.24c0-.24 0-.48-.03-.72a2.05 2.05 0 0 0-.3-.95 1 1 0 0 0-.36-.34c-.33-.17-.69-.19-1.05-.15-.2.02-.39.06-.56.13zm7.86.44l-.03.03v-.2-.33c0-.07-.06-.09-.13-.08a5.9 5.9 0 0 0-1.51.32c-.08.03-.12.04-.13.07-.02.02-.02.06-.02.14 0 .07 0 .1.02.12.01.02.05 0 .12 0l.06-.02c.2-.02.29.03.34.21.04.13.05.26.05.4v2.82c0 .1 0 .19-.02.28v.1c-.01.06-.05.12-.1.17-.07.06-.16.07-.24.08h-.01c-.2.03-.2.03-.2.22v.01c0 .06.01.07.07.07h.47a56.37 56.37 0 0 0 1.72 0h.02c.03 0 .06 0 .06-.03v-.22c0-.03-.03-.03-.05-.04h-.11l-.1-.02c-.32-.04-.32-.3-.31-.53v-.05-3.02c0-.1.09-.2.16-.25.26-.2.55-.26.87-.2.29.07.47.24.59.5.12.28.15.58.16.89v2.11c0 .09 0 .17-.02.25a.37.37 0 0 1-.07.19c-.08.1-.18.1-.28.12h-.04c-.1.01-.14.02-.16.05-.03.02-.03.07-.03.15v.01c0 .07.02.1.09.1l1.59-.01h.48c.1 0 .16 0 .19-.03.02-.02.02-.07.02-.17 0-.06-.02-.09-.07-.09-.08 0-.15 0-.22-.02-.28-.04-.27-.3-.26-.54v-.07-1.44-.72c0-.75-.26-1.74-1.12-1.88-.5-.09-1-.03-1.45.22-.16.09-.27.2-.4.33zm-11.6-.41a2.28 2.28 0 0 0-1.59-.05c-.53.18-.95.52-1.3.94-.03.02-.03.04-.02.07.03.16.12.29.2.42.03.04.05.08.11.06.05 0 .05-.03.07-.06v-.02c.15-.34.32-.66.7-.84a.98.98 0 0 1 .7-.06c.27.08.41.28.49.53.07.25.07.51.07.78 0 .04-.03.06-.07.07l-.43.12a4.9 4.9 0 0 0-1.21.49c-.16.1-.32.2-.44.34-.23.24-.36.56-.36.88-.01.46.28.92.7 1.06.19.06.4.1.6.1l.02-.01c.16 0 .33-.02.47-.06.26-.09.5-.21.72-.38.1-.08.1-.08.17.03.12.17.26.3.47.36.43.1.83.04 1.2-.17.05-.03.04-.07.03-.1v-.01c0-.05-.02-.06-.07-.06-.25 0-.42-.1-.51-.33a1.76 1.76 0 0 1-.15-.58c-.02-.38-.01-.76 0-1.14a29.24 29.24 0 0 0 0-.88c0-.23 0-.45-.04-.66-.03-.19-.1-.36-.2-.53a.85.85 0 0 0-.33-.31zm-.57 2.85v.25c0 .21 0 .52.03.82 0 .03 0 .05-.02.07-.32.3-.83.32-1.1-.03-.42-.57-.12-1.42.58-1.62.14-.04.28-.05.43-.05.06 0 .08.02.08.08v.48zm-8.86-.4v1.15c0 .15.01.3.07.46.04.12.11.23.23.3.09.05.19.09.3.08h.01c.03 0 .07-.01.07.04v.02c.01.03.02.07-.03.1-.13.06-.26.12-.4.16-.3.1-.6.08-.89-.01a.8.8 0 0 1-.44-.39c-.04-.05-.06-.06-.11-.02-.21.18-.45.31-.72.4-.18.06-.39.07-.59.08-.28.01-.53-.06-.77-.18-.15-.08-.28-.2-.37-.35a1.12 1.12 0 0 1-.15-.8c.02-.21.1-.41.24-.58.14-.17.32-.32.52-.44a4.6 4.6 0 0 1 1.02-.43c.15-.05.3-.1.45-.13l.18-.05c.14-.04.17-.07.14-.2v-.09-.03c0-.22-.02-.44-.1-.65a.67.67 0 0 0-.54-.44c-.2-.04-.39-.03-.58.05-.24.08-.4.23-.54.41-.11.15-.2.32-.26.48v.03c-.01.02-.01.04-.05.04h-.02c-.04 0-.08-.01-.1-.05a1.93 1.93 0 0 0-.09-.17 1.54 1.54 0 0 1-.1-.23c-.03-.08 0-.14.05-.19l.1-.1.3-.29.27-.18.06-.04a2.45 2.45 0 0 1 1.91-.32c.48.12.7.44.8.87.13.52.13 1.14.13 1.68zm-1.24.62V28v-.47c0-.05-.01-.07-.06-.07-.36 0-.68.08-.93.32-.3.28-.35.62-.28 1 .04.21.15.4.36.52.27.16.62.11.9-.11a.11.11 0 0 0 .04-.05 5.56 5.56 0 0 1-.03-.87v-.03z" fill="#FCFDFC"/><path d="M10.2 24.4c0 .43-.12.78-.33 1.1-.22.33-.51.57-.85.76-.06.03-.08.05-.05.11.16.34.31.67.48 1l.41.84c.2.4.4.8.63 1.19.22.36.54.59.95.69.04 0 .08.01.07.08 0 .06-.05.06-.09.06a2.4 2.4 0 0 1-.26-.05c-.57-.12-.93-.5-1.23-.95-.38-.57-.66-1.18-.97-1.79l-.5-1.05c-.03-.07-.02-.1.05-.14.54-.3.96-.72 1.11-1.34.13-.53.08-1.04-.2-1.52a1.36 1.36 0 0 0-.84-.62c-.03-.01-.07 0-.06-.04.02-.03.05-.04.09-.03.2.08.4.13.6.22.51.23.84.6.95 1.15l.03.33z" fill="#FCFDFC"/><path d="M46.12 22.74c.38 0 .7.31.7.68.01.4-.3.72-.69.72a.68.68 0 0 1-.71-.6.7.7 0 0 1 .7-.8z" fill="#F1822B"/><path d="M30.82 31h-.04c-.08 0-.12.04-.12.14V32.36c-.17-.36-.36-.69-.5-1.04-.1-.25-.26-.35-.5-.31-.12.01-.16.04-.16.17v1.7c0 .07.02.11.09.12h.12c.1 0 .14-.05.14-.16l-.01-1.25a.08.08 0 0 1 0-.07l.02.05c.2.4.4.79.57 1.19.08.16.2.25.39.24.15-.02.18-.04.18-.21v-1.6c0-.19 0-.19-.18-.19zM47.15 31.9l-.47-.2c-.11-.05-.18-.13-.14-.24.03-.12.14-.14.27-.15.15 0 .28.05.4.1.05.02.1.05.13 0 .08-.1 0-.3-.12-.34a1.04 1.04 0 0 0-.42-.07h-.12c-.3.02-.55.19-.61.4-.07.28.04.5.32.64l.3.13c.09.03.17.06.23.11.14.11.11.28-.05.35a.49.49 0 0 1-.2.04c-.18 0-.35-.04-.5-.13-.05-.02-.1-.05-.14.02-.07.12 0 .3.14.35.27.1.58.12.86.03.2-.06.36-.17.43-.35.1-.28 0-.54-.3-.69zM51.15 31.9l-.47-.2c-.11-.05-.18-.13-.14-.24.03-.12.14-.14.26-.15.16 0 .29.05.42.1.04.02.08.05.12 0 .08-.1 0-.3-.12-.34a1.04 1.04 0 0 0-.42-.07h-.12c-.3.02-.55.19-.61.4-.07.28.04.5.32.64l.3.13c.09.03.17.06.23.11.14.11.11.28-.05.35a.49.49 0 0 1-.2.04c-.18 0-.35-.04-.5-.13-.05-.02-.1-.05-.14.02-.07.12 0 .3.14.35.27.1.58.12.86.03.2-.06.36-.17.43-.35.1-.28 0-.54-.3-.69zM28.45 32.68h-.98c-.02 0-.04 0-.05-.02a.07.07 0 0 1-.02-.05v-.43c0-.02 0-.04.02-.05a.07.07 0 0 1 .05-.02h.87l.03-.01.01-.04v-.2l-.01-.04-.03-.02h-.87c-.02 0-.04 0-.05-.02a.07.07 0 0 1-.02-.05v-.35c0-.02 0-.03.02-.05a.07.07 0 0 1 .05-.02h.98l.04-.01.01-.03v-.22l-.01-.04-.04-.01h-1.2c-.05 0-.1 0-.14.03a.16.16 0 0 0-.08.08.35.35 0 0 0-.03.14v1.5c0 .09.02.15.06.2.04.03.1.05.18.05h1.21l.04-.01.01-.04v-.22l-.01-.04-.04-.01zM33.94 31h-1.88l-.04.01a.04.04 0 0 0-.02.04v.24s0 .02.02.03l.04.01h.65c.01 0 .03 0 .04.02l.01.03v1.57l.02.04.04.01h.36l.04-.01.02-.04v-1.57l.01-.03.04-.02h.65l.04-.01.02-.03v-.24c0-.02 0-.03-.02-.04a.06.06 0 0 0-.04-.01zM38.35 32.48c-.04-.08-.1-.16-.16-.23a.68.68 0 0 0-.18-.17c.15-.04.27-.1.34-.19.08-.09.12-.2.12-.35a.6.6 0 0 0-.04-.2.49.49 0 0 0-.4-.33l-.21-.01h-.6c-.08 0-.13.02-.17.06-.03.04-.05.1-.05.18v1.52c0 .08.02.14.05.18l.06.05.07.01.07-.01a.17.17 0 0 0 .06-.05c.04-.04.06-.1.06-.18v-.63h.12c.06 0 .11 0 .16.02.05.03.1.06.13.1l.14.23.15.27a3 3 0 0 0 .08.14.3.3 0 0 0 .07.08c.03.02.07.03.1.03.04 0 .07 0 .1-.02a.16.16 0 0 0 .08-.14.47.47 0 0 0-.04-.14 1.8 1.8 0 0 0-.1-.22zm-.44-.66a.85.85 0 0 1-.22.02h-.33v-.54h.34c.13 0 .21 0 .25.03.05.02.08.05.1.1.04.04.05.09.05.14 0 .06-.02.11-.05.16a.25.25 0 0 1-.14.09zM43.35 32.48c-.04-.08-.1-.16-.16-.23a.68.68 0 0 0-.18-.17c.15-.04.27-.1.34-.19.08-.09.12-.2.12-.35a.6.6 0 0 0-.04-.2.49.49 0 0 0-.4-.33l-.21-.01h-.6c-.08 0-.13.02-.17.06-.03.04-.05.1-.05.18v1.52c0 .08.02.14.05.18l.06.05.07.01.07-.01a.17.17 0 0 0 .06-.05c.04-.04.05-.1.05-.18v-.63h.13c.06 0 .11 0 .16.02.05.03.1.06.13.1l.14.23.15.27a3 3 0 0 0 .08.14.3.3 0 0 0 .07.08c.03.02.07.03.1.03.04 0 .07 0 .1-.02a.16.16 0 0 0 .08-.14.47.47 0 0 0-.04-.14 1.8 1.8 0 0 0-.1-.22zm-.44-.66a.85.85 0 0 1-.22.02h-.33v-.54h.34c.13 0 .21 0 .25.03.05.02.08.05.1.1.04.04.05.09.05.14 0 .06-.02.11-.05.16a.26.26 0 0 1-.14.09zM40.83 31.15a.52.52 0 0 0-.21-.11c-.09-.03-.2-.04-.35-.04h-.52c-.09 0-.15.02-.19.06-.04.04-.06.1-.06.19v1.7a.05.05 0 0 0 .05.05h.3c.02 0 .03 0 .04-.02l.01-.03v-.68l.01-.04.04-.01h.32c.24 0 .43-.05.55-.16.12-.1.18-.26.18-.46a.69.69 0 0 0-.04-.26.5.5 0 0 0-.13-.2zm-.28.64a.28.28 0 0 1-.14.1.8.8 0 0 1-.24.03h-.22l-.04-.02-.01-.03v-.52a.05.05 0 0 1 .05-.05h.22c.18 0 .3.03.35.1a.3.3 0 0 1 .08.2.3.3 0 0 1-.05.19zM44.95 31h-.35c-.03 0-.06.02-.06.05v1.9c0 .03.03.05.06.05h.35c.03 0 .05-.02.05-.05v-1.9c0-.03-.02-.05-.05-.05zM35.95 32.68h-.98c-.02 0-.04 0-.05-.02a.07.07 0 0 1-.02-.05v-.43c0-.02 0-.04.02-.05a.07.07 0 0 1 .05-.02h.87l.03-.01.01-.04v-.2l-.01-.04-.03-.02h-.87c-.02 0-.04 0-.05-.02a.07.07 0 0 1-.02-.05v-.35c0-.02 0-.03.02-.05a.07.07 0 0 1 .05-.02h.98l.04-.01.01-.03v-.22l-.01-.04-.04-.01h-1.2c-.05 0-.1 0-.15.03a.16.16 0 0 0-.07.08.34.34 0 0 0-.03.14v1.5c0 .09.02.15.06.2.03.03.1.05.18.05h1.21l.04-.01.01-.04v-.22l-.01-.04-.04-.01zM49.45 32.68h-.98c-.02 0-.04 0-.05-.02a.07.07 0 0 1-.02-.05v-.43c0-.02 0-.04.02-.05a.07.07 0 0 1 .05-.02h.87l.03-.01.01-.04v-.2l-.01-.04-.03-.02h-.87c-.02 0-.04 0-.05-.02a.07.07 0 0 1-.02-.05v-.35c0-.02 0-.03.02-.05a.07.07 0 0 1 .05-.02h.98l.04-.01.01-.03v-.22l-.01-.04-.04-.01h-1.2c-.05 0-.1 0-.15.03a.16.16 0 0 0-.07.08.34.34 0 0 0-.03.14v1.5c0 .09.02.15.06.2.03.03.1.05.18.05h1.21l.04-.01.01-.04v-.22l-.01-.04-.04-.01z" fill="#FCFDFC"/></svg>