<svg width="56" height="56" viewBox="0 0 56 56" xmlns="http://www.w3.org/2000/svg"><path fill="#F0F3FA" d="M0 0h56v56H0z"/><path d="m7.93 25.14 2.11-1.12a.14.14 0 0 1 .17.02l1.71 1.8c.07.07.06.12-.02.16l-1.58.87c-.1.05-.1.1 0 .15.76.32 1.35.91 1.68 1.64.2.45.42.95.75 1.31.05.06.1.06.17.02l.14-.1a.14.14 0 0 1 .17.01l.05.05c.05.04.05.09 0 .13l-1.12.84a.25.25 0 0 1-.28.02 1.76 1.76 0 0 1-.72-.77c-.5-1-.92-2.21-2.2-2.4-.15-.03-.22.03-.23.19v1.34c0 .12.05.2.17.25l.9.34c.09.04.17.02.25-.04a.2.2 0 0 1 .2-.05c.15.04.17.11.04.21l-1.2.96a.15.15 0 0 1-.18 0 5.49 5.49 0 0 0-4.53-.27c-.45.15-.5.06-.14-.25a4.7 4.7 0 0 1 2.1-1.03c.06-.01.09-.05.08-.12-.21-1.07-1.14-1.69-2.12-2.02a.07.07 0 0 1-.05-.06.07.07 0 0 1 .04-.07l2.01-1.12c.06-.04.1-.1.1-.16v-.5c0-.95-1.17-.75-1.75-.7-.26.01-.28-.05-.07-.19.94-.6 2.89-.85 3.2.59.01.09.07.11.15.07Zm1.22-.32a.06.06 0 0 0-.07 0l-.3.16a.06.06 0 0 0-.03.05l-.02 2.33a.06.06 0 0 0 .03.05.06.06 0 0 0 .06 0l1.72-.97c.01 0 .02 0 .03-.02a.06.06 0 0 0 0-.05l-.01-.02-1.4-1.53ZM7.88 29.3c0 .01-.02.06 0 .07l.03.02.43.04h.02l.02-.01a.06.06 0 0 0 .02-.04l.02-4.12a.06.06 0 0 0-.03-.05.06.06 0 0 0-.05 0l-.44.26a.06.06 0 0 0-.02.04v3.79ZM6.4 26.38a.06.06 0 0 0-.03-.05l-.03-.01h-.02l-.77.44a.06.06 0 0 0-.02.08l.02.02.77.45a.06.06 0 0 0 .08-.02l.01-.03v-.88ZM43.3 24.48l-.93 1.03a.07.07 0 0 1-.08.01.06.06 0 0 1-.02-.02v-.04l.26-1.02.02-.03.04-.02.65-.01h.04l.03.04v.03l-.01.03ZM25.85 26.08h1.1c.06 0 .1.03.1.1l-.01.37c0 .07-.04.1-.11.1h-1.07c-.08 0-.12.05-.12.12v2.86c0 .07.03.13.09.17l.45.31c.04.03.09.04.14.03.04 0 .09-.03.11-.07.06-.08.14-.1.22-.09.19.04.2.12.05.23l-.98.75c-.06.05-.13.05-.19 0a3.97 3.97 0 0 0-1.46-.76c-.08-.02-.08-.05-.03-.1.21-.17.31-.4.31-.7v-2.63c0-.08-.03-.11-.1-.11h-.13c-.27 0-.31-.1-.13-.29l1.6-1.7h.01a.04.04 0 0 1 .05.01v1.29c0 .07.03.1.1.1ZM22.15 27.75l.99.5c.05.03.08.08.08.14v1.75c0 .08-.04.13-.11.15-.52.15-1 .38-1.43.68a.16.16 0 0 1-.17 0 2.65 2.65 0 0 0-2.38-.04.19.19 0 0 1-.19-.02c-.09-.07-.1-.14-.04-.2l1.4-1.57c.07-.06.06-.11-.02-.15l-1.04-.46a.14.14 0 0 1-.09-.14v-1.47c0-.07.04-.12.11-.14.51-.17.98-.42 1.4-.75a.17.17 0 0 1 .2-.02c.5.23 1.78.64 2.2.18.07-.08.07-.16 0-.25l-.22-.26a.2.2 0 0 1 .1-.33c.68-.2.77.5.44.88a64.72 64.72 0 0 1-1.28 1.43.08.08 0 0 0 .02.07c0 .01.01.02.03.02Zm-1.7.3.52.24c.06.03.1.02.15-.03l1.04-1.14c.05-.06.04-.08-.04-.07-.55.09-1.1.03-1.64-.16-.08-.03-.11 0-.11.08v.93c0 .07.03.12.09.15Zm1.65 1.9v-.99c0-.11-.06-.2-.17-.25l-.43-.2c-.08-.03-.15-.02-.2.04l-1.2 1.25c-.07.08-.05.1.06.08a2.66 2.66 0 0 1 1.76.18c.12.05.18.02.18-.1ZM16.74 29.97a.05.05 0 0 0-.02-.04.05.05 0 0 0-.05 0l-1.6 1.02a.15.15 0 0 1-.18 0c-.51-.34-.77-.76-.77-1.26a4979.7 4979.7 0 0 1-.01-2.76.15.15 0 0 0-.06-.05c-.1-.05-.2-.03-.28.05-.07.06-.14.05-.2-.01l-.04-.04c-.05-.05-.05-.1.02-.14l1.1-.71a.19.19 0 0 1 .2 0l.8.54c.08.05.08.1.01.15l-.2.16a.18.18 0 0 0-.07.15l-.01 2.65a.4.4 0 0 0 .2.35.42.42 0 0 0 .43-.01l.63-.39a.23.23 0 0 0 .11-.2v-2.37a.2.2 0 0 0-.07-.16l-.18-.16c-.07-.06-.07-.12.01-.17l.78-.52a.18.18 0 0 1 .21 0l.8.52c.07.05.07.1 0 .16l-.22.17a.19.19 0 0 0-.07.15v2.77c0 .24.26.42.49.26.06-.04.1-.03.15.03l.03.05c.03.04.02.08-.02.11l-1.02.7a.17.17 0 0 1-.17.01c-.44-.2-.69-.54-.73-1.01ZM27.85 29.94c.08-.2.13-.4.13-.64v-2.38c0-.07.03-.11.1-.13a3.83 3.83 0 0 0 1.67-.75.15.15 0 0 1 .19-.01 5.6 5.6 0 0 0 1.82.7c.07.01.1.05.1.12l-.02 3.28c0 .07-.04.12-.11.13-.63.14-1.2.38-1.7.7a.19.19 0 0 1-.2.02 6.46 6.46 0 0 0-2.1-.78c-.1-.02-.12-.06-.03-.13a.74.74 0 0 1 .07-.05.18.18 0 0 0 .08-.08Zm1.39-.29a.06.06 0 0 0 .04.06l1.24.4h.03a.06.06 0 0 0 .05-.05l.02-2.7-.01-.04a.06.06 0 0 0-.03-.02l-1.26-.43h-.03a.06.06 0 0 0-.04.03l-.01.03v2.72ZM34.74 27.03l1.62-.99a.14.14 0 0 1 .18 0c.34.26.56.57.67.96.02.09.08.11.16.05l1.54-.97c.04-.03.1-.03.14.01l.7.58c.06.04.1.04.16 0l.33-.25c.07-.05.14-.05.2 0l.05.04.02.05-.01.06c-.21.23-.5.5-.5.83v2.36c0 .1 0 .18.05.26.1.15.23.18.4.08.06-.04.12-.04.17.02l.04.04c.04.04.03.08-.01.11l-1.02.7a.16.16 0 0 1-.16.02c-.44-.17-.69-.47-.72-.91-.04-.48-.04-1.36 0-2.66a.23.23 0 0 0-.1-.2l-.34-.27a.17.17 0 0 0-.2 0l-.75.39c-.06.04-.1.1-.1.17v2.35a.25.25 0 0 0 .09.18l.18.17c.06.06.06.12-.01.17l-.79.58a.15.15 0 0 1-.19 0l-.82-.59c-.08-.05-.08-.1 0-.16l.2-.15c.05-.04.08-.1.08-.16v-2.58c0-.08 0-.15-.04-.21a.41.41 0 0 0-.37-.2.43.43 0 0 0-.21.05l-.65.4a.25.25 0 0 0-.12.2v2.3a.23.23 0 0 0 .07.17l.2.18c.06.05.06.1-.01.16l-.8.58c-.05.04-.11.05-.18 0l-.8-.57c-.09-.07-.09-.14 0-.2l.2-.14a.18.18 0 0 0 .07-.15v-2.73a.26.26 0 0 0-.07-.19.27.27 0 0 0-.18-.07.3.3 0 0 0-.18.04c-.08.06-.13.04-.16-.05l-.02-.05c-.01-.04 0-.07.03-.1l.92-.7a.17.17 0 0 1 .18-.02c.46.2.7.51.71.94 0 .1.06.13.15.07ZM41.67 27.26a.32.32 0 0 0-.07-.4.36.36 0 0 0-.4-.05l-.18.1a.11.11 0 0 1-.14-.03c-.03-.04-.04-.08-.02-.12a.15.15 0 0 1 .06-.06l1.09-.67c.07-.04.13-.04.2 0l1.06.8a.08.08 0 0 1 .03.05.08.08 0 0 1-.02.06c-.7.84-.7 1.72-.51 2.72.2 1.13-.37 1.9-1.5 2.31a.4.4 0 0 1-.24.02.09.09 0 0 1-.04-.03.08.08 0 0 1-.02-.09l.03-.03c.58-.38.8-.91.66-1.6-.2-.97-.49-2.04 0-2.98ZM45.8 29.89l.79.27c.06.03.12.02.18-.01l.67-.36c.07-.04.12-.02.17.03l.05.06v.07l-.02.02-1.69 1a.2.2 0 0 1-.21 0c-.47-.25-1-.43-1.56-.52-.08-.02-.1-.05-.03-.11a.78.78 0 0 0 .26-.6c.02-.96.02-1.9.02-2.8 0-.08.04-.13.1-.16.58-.2 1.1-.45 1.57-.75.07-.04.13-.04.2.01l1.52 1.3a.08.08 0 0 1 .03.06.07.07 0 0 1-.04.06l-2 1.23a.23.23 0 0 0-.13.2l-.01.8c0 .1.04.16.14.2Zm-.08-3.06-.03-.01a.06.06 0 0 0-.06.02l-.01.04v1.52a.06.06 0 0 0 .06.03h.03l1.02-.65a.06.06 0 0 0 .03-.05.06.06 0 0 0-.02-.05l-1.02-.85ZM49.95 29.88l.77.28a.26.26 0 0 0 .2-.01l.68-.36a.13.13 0 0 1 .16.03l.03.04c.04.05.04.1-.02.13l-1.67.98a.18.18 0 0 1-.2 0 5.5 5.5 0 0 0-1.57-.53c-.1-.01-.1-.05-.03-.11a.67.67 0 0 0 .27-.55c.02-.97.02-1.92.01-2.85 0-.07.03-.12.1-.14a8.4 8.4 0 0 0 1.58-.76c.06-.04.13-.04.19.01l1.52 1.3a.08.08 0 0 1 .02.1l-.03.02-2.02 1.24a.2.2 0 0 0-.1.18v.84a.17.17 0 0 0 .11.16Zm-.08-3.05a.06.06 0 0 0-.1.01v1.53a.06.06 0 0 0 .03.05.06.06 0 0 0 .06 0l1.02-.64a.06.06 0 0 0 0-.1l-1.01-.85Z"/></svg>