<svg width="56" height="56" viewBox="0 0 56 56" xmlns="http://www.w3.org/2000/svg"><path fill="#F0F3FA" d="M0 0h56v56H0z"/><path d="m27.98 9-4.56 5.06 2.77 7.07 1.79-2.1 1.57 2.1 3.03-7.07L27.98 9Zm13.22 5.74-6.8.35-3.04 6.96 2.75-.22-.37 2.6 7.14-2.85.32-6.84Zm-19.6.35-6.81-.35.32 6.84 7.14 2.85-.37-2.6 2.75.22-3.04-6.96ZM27.97 47l-4.56-5.06 2.77-7.07 1.79 2.1 1.57-2.1 3.03 7.07-4.6 5.06Zm13.22-5.74-6.8-.35-3.04-6.96 2.75.22-.37-2.6 7.14 2.85.32 6.84Zm-19.6-.35-6.81.35.32-6.84 7.14-2.85-.37 2.6 2.75-.22-3.04 6.96Zm20.34-17.5L47 27.99l-5.06 4.6-7.07-3.03 2.1-1.57-2.1-1.8 7.07-2.76ZM9 27.99l5.06-4.56 7.07 2.77-2.1 1.79 2.1 1.57-7.07 3.03L9 27.98Zm21.32-1.4v-2.63l-.73.57a2.88 2.88 0 0 0-1.88-.65c-1.2 0-2.32 1.05-2.32 2.16 0 .9 1.55 2.03 2.32 2.49.67.35 2.01 1.26 2.01 2.05 0 1-.88 1.34-1.84 1.34-.96 0-2.1-.63-2.1-2.22h-.3v2.56h.3l.29-.49c.23.19.92.56 1.81.56 1.12 0 2.86-.43 2.86-2.36-.02-.47-.5-1.59-2.29-2.35-2.23-.95-2.23-1.74-2.23-2.06 0-.32.3-1.2 1.66-1.2 1.37 0 2.15 1.49 2.15 2.22h.29Z" fill="#269548"/></svg>