<svg width="56" height="56" viewBox="0 0 56 56" xmlns="http://www.w3.org/2000/svg"><path fill="#F0F3FA" d="M0 0h56v56H0z"/><path d="M46 32.9v-5.76c0-.97.26-2.14 1.38-2.14.6 0 1.05.45 1.33.97a2.63 2.63 0 0 1 1.88-.97c.74 0 1.41.65 1.41 1.42 0 .57-.51 1.05-1.53 1.44-.52.2-1.01.39-1.3.92-.11.2-.17.59-.17 1.14v2.99c0 .97-.37 2.09-1.5 2.09S46 33.88 46 32.9ZM41.37 33.92c-.54.71-1.4 1.08-2.26 1.08-2.57 0-4.11-2.52-4.11-5 0-2.5 1.65-5 4.21-5 .86 0 1.6.32 2.16 1 .26-.5.73-1 1.3-1 1.1 0 1.33 1.21 1.33 2.16v5.68c0 .94-.25 2.16-1.33 2.16-.63 0-1.04-.51-1.3-1.08ZM38 29.97c0 1.11.35 2.31 1.55 2.31 1.17 0 1.45-1.24 1.45-2.31 0-1.08-.28-2.26-1.45-2.26-1.16 0-1.55 1.17-1.55 2.26ZM29 28.35l1.96-2.52c.37-.41.82-.83 1.37-.83.58 0 1.13.5 1.13 1.15 0 .55-.33 1.03-.68 1.39l-1.43 1.79 2.13 3.12c.3.39.52.85.52 1.37 0 .71-.63 1.18-1.25 1.18-.6 0-1.05-.4-1.4-.89L29 30.31v2.57c0 .97-.56 2.12-1.66 2.12-1.09 0-1.34-1.16-1.34-2.12V23.1c0-.96.41-2.09 1.5-2.09 1.07 0 1.5 1.14 1.5 2.09v5.26ZM13 30.53C13 33.39 10.62 35 8.1 35 6.9 35 4 34.65 4 32.86c0-.4.13-.73.4-.98.67-.65 1.62-.47 2.38-.22.69.23 1.26.34 1.72.34.75 0 1.5-.36 1.5-1.19 0-1.2-1.4-1.55-2.28-1.83a6.38 6.38 0 0 1-2.78-1.47A3.35 3.35 0 0 1 4 25.2C4 22.54 6.38 21 8.73 21c1.12 0 3.27.34 3.27 1.96 0 .8-.56 1.5-1.3 1.5-.77 0-1.3-.46-2.07-.46-.67 0-1.63.12-1.63.92 0 .55.78 1 1.9 1.37l.62.2c1.82.64 3.48 1.83 3.48 4.04Z" fill="#2F2683"/><path fill-rule="evenodd" d="M21.08 33.82A3.19 3.19 0 0 1 18.57 35C15.7 35 14 32.25 14 29.55c0-2.73 1.83-5.55 4.68-5.55.95 0 1.78.24 2.4.99.29-.56.8-.99 1.44-.99 1.22 0 1.48 1.2 1.48 2.24v6.4c0 1.02-.28 2.36-1.48 2.36-.7 0-1.16-.56-1.44-1.18ZM18 26h2v2.5h2v2h-2V33h-2v-2.5h-2v-2h2V26Z" fill="#E3010F"/></svg>