<svg width="56" height="56" viewBox="0 0 56 56" xmlns="http://www.w3.org/2000/svg"><path fill="#F0F3FA" d="M0 0h56v56H0z"/><path d="M36.13 16.7h-1.05c-.83.03-.94.27-.24.71a13.8 13.8 0 0 1 5.51 6.28c1.74 4.15 1.31 8.38-.95 12.27-.77 1.33-1.66 2.05-2.68 2.16l-6.78-21.08c-.08-.25-.25-.37-.5-.38l-1.64-.04c-.3 0-.5.14-.59.43L24.08 27.2c-.14.44-.04.5.29.17 3.56-3.56 9.11 1.3 6.22 5.26a4.16 4.16 0 0 1-7.42-1.4c-.09-.32-.18-.32-.28 0l-2.5 7.94-.4 1.07c-.1.92-.34 1.76-.71 2.52a.38.38 0 0 1-.37.24h-7.67c-.06 0-.11-.04-.15-.08-.04-.04-.09-.1-.09-.15v-1.24a.21.21 0 0 1 .13-.19.2.2 0 0 1 .08-.01l6.62.03a.4.4 0 0 0 .38-.23c.69-1.37.45-2.46-.71-3.28-.16-.1-.27-.3-.35-.13-.23.46-.37.94-.43 1.44-.04.28-.23.44-.5.44H11.3c-.15 0-.31-.12-.31-.27V38.3c0-.2.12-.3.32-.3h3.62c.21 0 .42-.1.52-.28.26-.47.43-.73.51-1.24.07-.43-.04-.94-.33-1.54a15.3 15.3 0 0 1-1.33-4.12c-.53-4.64.86-8.67 4.18-12.08.93-.96 1.97-1.71 3.12-2.26 1.14-.56 1.42-3.06 1.81-4.22a.36.36 0 0 1 .37-.26h20.12c.06 0 .09.05.09.1v1.44c0 .05-.03.07-.07.07l-19-.02c-.2 0-.34.1-.4.3l-6.76 22.04a.7.7 0 0 0 .16.71l1.04 1.19c.12.14.22.12.27-.06l6.91-22.27a.7.7 0 0 1 .7-.5h16.77c.2 0 .37.12.38.32v1.02c.01.18-.18.35-.35.35h-7.52Z" fill="#190C67"/><path d="M36.72 38.12c.18.37.15.65-.12.84-5.3 3.87-10.71 3.94-16.2.21l2.49-7.94c.1-.32.2-.32.28 0a4.16 4.16 0 0 0 7.42 1.4c2.9-3.96-2.66-8.82-6.22-5.26-.33.33-.43.27-.3-.17l3.14-10.03c.09-.3.29-.43.6-.43l1.63.04c.25 0 .42.13.5.38l6.78 20.96Z" fill="#ECEFF6"/><path d="M36.06 16.67c4.5 3.26 6.67 7.8 6.46 13.15-.24 1.36-.43 2.72-.91 4.01-1.9 5.08-6.35 8.24-11.7 9.02-1.12.16-2.36.13-3.7-.1-2.76-.49-4.07-1.46-6.22-2.5l.4-1.08c5.5 3.73 10.9 3.66 16.21-.2.27-.2.3-.48.12-.85 1.02-.11 1.91-.83 2.68-2.16 2.26-3.89 2.7-8.12.95-12.27-1-2.42-2.84-4.47-5.5-6.16-.7-.44-.7-.83.13-.86h1.08Z" fill="#020203"/><path d="M17.07 32.88c-.12.4-.23.8-.33 1.21-.08.3-.18.32-.31.03a11.4 11.4 0 0 1-1.04-3.7c-.48-4.6 1.12-8.5 4.82-11.74.36-.31.75-.56 1.19-.75.28-.12.37-.04.27.25-1.6 4.87-3.13 9.77-4.6 14.7Z" fill="#ECEFF6"/></svg>