<svg width="56" height="56" viewBox="0 0 56 56" xmlns="http://www.w3.org/2000/svg"><path fill="#F0F3FA" d="M0 0h56v56H0z"/><ellipse cx="28.59" cy="14.71" rx="3.7" ry="3.71" fill="#27A7DF"/><circle cx="25.73" cy="21.46" fill="#27A7DF" r="2.86"/><circle cx="35.56" cy="28.03" fill="#27A7DF" r="2.86"/><circle cx="20.23" cy="28.03" fill="#27A7DF" r="2.86"/><circle cx="25.44" cy="34.86" fill="#27A7DF" r="2.86"/><circle cx="34.17" cy="18.04" fill="#27A7DF" r="2.12"/><circle cx="32.05" cy="22.61" fill="#27A7DF" r="2.12"/><circle cx="41.42" cy="28.24" fill="#27A7DF" r="2.12"/><circle cx="22.14" cy="16.97" fill="#27A7DF" r="2.12"/><circle cx="14.12" cy="28.03" fill="#27A7DF" r="2.12"/><circle cx="32.05" cy="34.12" fill="#27A7DF" r="2.12"/><circle cx="34.82" cy="39.17" fill="#27A7DF" r="2.12"/><circle cx="20.75" cy="41.29" fill="#27A7DF" r="2.12"/><ellipse cx="40.3" cy="21.02" rx="3.7" ry="3.71" fill="#27A7DF"/><ellipse cx="40.3" cy="34.86" rx="3.7" ry="3.71" fill="#27A7DF"/><path d="M19.56 23.59a3.69 3.69 0 0 1-6.38-2.57 3.7 3.7 0 1 1 7.2 1.26l5.51 3.21a3.69 3.69 0 0 1 6.4 2.54 3.7 3.7 0 0 1-6.44 2.5l-5.45 3.14a3.71 3.71 0 0 1 .04 2.23l5.18 3.18a3.7 3.7 0 0 1 6.67 2.21 3.7 3.7 0 1 1-7.32-.8l-5.26-3.23a3.7 3.7 0 0 1-6.53-2.4 3.7 3.7 0 0 1 6.43-2.52l5.46-3.15a3.71 3.71 0 0 1 .02-2.38l-5.53-3.22Z" fill="#415761"/></svg>