<svg width="56" height="56" viewBox="0 0 56 56" xmlns="http://www.w3.org/2000/svg"><path fill="#F0F3FA" d="M0 0h56v56H0z"/><path d="M45 38.78v.19c-.05.4-.24.7-.6.88-.17.09-.37.14-.59.15H12.22l-.19-.02a1.24 1.24 0 0 1-.77-.4 1 1 0 0 1-.25-.8c.01-.17.06-.33.12-.47l.35-.62.53-.9a25806.97 25806.97 0 0 0 14.94-25.17c.18-.28.42-.46.7-.56.31-.1.6-.07.9.08.16.1.3.22.43.39.14.2.3.44.47.74l.6 1.02a518501.17 518501.17 0 0 0 14.78 24.94c.1.17.15.36.17.55ZM28.81 26.32l.09-.23a1624.67 1624.67 0 0 1 2.85-7.16c0-.1-.02-.19-.08-.29a12110.67 12110.67 0 0 0-2.8-4.73c-.05-.1-.1-.16-.17-.18l-.02.01V26.5c0 .03 0 .03.02.01l.03-.04c.04-.06.07-.1.08-.14Zm-1.85 3.14.04-.13V13.98c.01-.1-.02-.18-.1-.2h-.02L13.23 37.38v.01l.04.03h.03c4.5-2.53 8.79-5.11 13.5-7.75.08-.05.13-.11.16-.2Zm5.7-9.13-3.18 7.93h.1a1500.66 1500.66 0 0 1 5.77-3.24c.04-.05.04-.1 0-.17a1278.17 1278.17 0 0 0-2.7-4.52Zm-2.68 9.34 8.65.83.01-.01c.01-.07-.03-.16-.1-.28a1.93 1.93 0 0 1-.05-.07l-.4-.67a249.6 249.6 0 0 1-1.92-3.2c-.08-.08-.19-.08-.32 0a603.02 603.02 0 0 1-5.9 3.31v.03l.02.04.01.02Zm-1.96 1.23a.42.42 0 0 0-.43 0c-4.63 2.6-9.12 5.43-13.45 7.86l-.07.03c-.1.05-.17.11-.18.18l.01.03h28.23c.02 0 .03-.02 0-.03a11.33 11.33 0 0 1-.4-.24c-4.55-2.5-9.12-5.31-13.7-7.83Zm11.34 1.02c-.1-.04-.21-.07-.33-.07l-.12-.01-4.52-.44a545.4 545.4 0 0 0-3.11-.28.1.1 0 0 0-.02.04v.01l11.44 6.28h.03l.04-.05v-.02l-.26-.46c-.96-1.6-1.86-3.12-2.7-4.57a.93.93 0 0 0-.45-.43Z" fill="#EC5338"/></svg>