<svg width="56" height="56" viewBox="0 0 56 56" xmlns="http://www.w3.org/2000/svg"><path fill="#F0F3FA" d="M0 0h56v56H0z"/><path d="M20 32.75C20 24 36 14.6 44 11 26.46 21.86 24 28.83 24 31.44c0 2.62 2.14 4.02 4.53 4.02 3.75 0 8.72-2.24 11.47-4.02C35.12 35.7 29.2 38 25.87 38S20 36.22 20 32.75Z" fill="maroon"/><path d="M27 31.02c0-3.47 3.93-6.8 6-8.02-3.49 3.44-4 5.14-4 6.26 0 1.1.96 1.76 1.51 1.76A6.2 6.2 0 0 0 34 30c-1.87 2.05-3.94 3-5.13 3-1.2 0-1.87-.7-1.87-1.98Z" fill="maroon"/><path d="M13 33.48C13 22.14 30.46 13.77 39 11c-17.58 9.11-22 17.5-22 21.83 0 4.34 4.41 7.17 8.11 7.17 8.6 0 14.64-4.64 18.89-7.74C41.1 36.04 32.1 43 23.61 43S13 36.9 13 33.48Z" fill="maroon"/></svg>