<svg width="56" height="56" viewBox="0 0 56 56" xmlns="http://www.w3.org/2000/svg"><path fill="#F0F3FA" d="M0 0h56v56H0z"/><path d="m23.65 17.37.15.16c.06.06.07.14.05.22l-.27 1a.33.33 0 0 1-.26.25.37.37 0 0 1-.17 0c-.12-.02-.15-.08-.09-.19.1-.16.15-.34.17-.53a.32.32 0 0 0-.05-.2c-.25-.4-.65-.72-.67-1.22 0-.23-.04-.46-.1-.7-.05-.14 0-.25.13-.31l.8-.39c.16-.07.24-.02.23.15l-.03 1.47c0 .11.04.22.11.3ZM27.46 18.95c-.06-.04-.04-.1.08-.21a.19.19 0 0 1 .28.03c.02.03.03.06.03.1a.5.5 0 0 1-.09.33c-.07.1-.13.1-.17-.02l-.07-.16a.15.15 0 0 0-.06-.07ZM26.66 20a.22.22 0 0 1-.07 0c-.1.01-.14-.03-.09-.13.2-.38.41-.7.66-.98a.1.1 0 0 1 .1-.03c.07 0 .1.05.06.12-.07.16-.03.27.14.33.13.04.16.12.09.24-.19.3-.44.44-.76.42-.04 0-.09 0-.13.02Z" fill="#161515"/><path d="m37.82 21.42-1.9-1.51 4.8-.83c.15-.03.23.04.24.2l.04 1.41c0 .16-.08.25-.23.28l-2.95.45Z" fill="#D42E1E"/><path d="m32.79 20.95-.5.76a.1.1 0 0 1-.2 0l-.47-.78a.11.11 0 0 1 0-.11.1.1 0 0 1 .1-.05l.98.01a.1.1 0 0 1 .1.12.1.1 0 0 1-.01.05ZM31.3 23.12h-.05a.05.05 0 0 1-.03-.02l-.02-.04a3.5 3.5 0 0 1-.29-.8.85.85 0 0 1 0-.28c0-.07.04-.12.08-.14l.02-.01c.08-.04.23.02.4.19.16.16.33.41.47.7l.02.02a.05.05 0 0 1-.02.08l-.59.3ZM24.21 22.15c-.49.1-.9.26-1.26.48-.07.04-.12.03-.15-.04l-.03-.06c-.03-.06-.01-.1.04-.13l.7-.44a.43.43 0 0 1 .2-.06l.99-.07c.05 0 .1 0 .14.03l.9.47a.16.16 0 0 1 .08.14c0 .06-.02.11-.05.15-.06.07-.12.07-.18 0-.23-.3-.6-.4-1.08-.34a.16.16 0 0 1-.16-.08.12.12 0 0 0-.14-.05Z" fill="#161515"/><path d="M17.56 22.53c.82.35 1.3.82 1.46 1.42-.5.3-1 .48-1.53.54-.07 0-.12-.02-.14-.1a2.31 2.31 0 0 1 .21-1.86Z" fill="#D42E1E"/><path d="M29.84 24.62a.05.05 0 0 1-.06-.05v-.05c-.06-.5-.08-1-.07-1.36.02-.36.08-.57.16-.58l.13-.02c.08 0 .18.19.28.54.1.35.18.83.24 1.34v.07a.05.05 0 0 1-.02.03l-.02.01-.64.07Z" fill="#161515"/><path d="m40.25 26.32-.97-2.58c.7-.14 1.41-.23 2.11-.3.72-.05 1.43-.12 2.12-.2.8-.08 1.63-.1 2.49-.07.8.03.67 1.25.56 1.82a.17.17 0 0 1-.15.14l-6.16 1.19Z" fill="#D42E1E"/><path d="M25.43 24.17c-.87-.49-1.38-.2-2.22-.05a.12.12 0 0 1-.14-.14l.01-.07c0-.03.02-.05.05-.05.5-.1.95-.37 1.47-.3.36.04.7.16 1.02.37a.09.09 0 0 1 .03.12l-.03.07a.14.14 0 0 1-.2.05ZM25.31 25.42a2.2 2.2 0 0 0-1.86-.02.1.1 0 0 1-.13-.09.1.1 0 0 1 .03-.06c.43-.45 1.8-.66 2.16-.06.19.3.12.37-.2.23Z" fill="#161515"/><path d="m19.52 25.3 1.71 1.12c-.75.3-1.51.59-2.29.84-.03.01-.04.04-.03.07 0 .04.03.05.07.04 1.04-.24 2.09-.47 3.14-.66.26.52.38 1.09.39 1.7l-11.49 2.7c-.17.05-.28-.02-.3-.2-.08-.45-.17-1.5.3-1.8.77-.48 1.64-.94 2.61-1.39 1.93-.88 3.89-1.7 5.89-2.43Z" fill="#D42E1E"/><path d="M23.45 26.23c0-.01 0-.02.02-.03l.03-.02h.04a22.4 22.4 0 0 1 1.42-.05c.38 0 .6.02.6.06v.2c0 .03-.2.08-.58.13-.37.05-.88.1-1.4.13h-.05a.05.05 0 0 1-.05-.02v-.02l-.03-.38Z" fill="#161515"/><path d="M40.77 29.2c-.2-.8-.36-1.58-.48-2.33v-.18l.03-.2c.85 0 1.73-.21 2.48-.23.87-.02 1.73-.02 2.59.01.09 0 .14.05.16.14.09.38.13.8.14 1.28 0 .25-.1.4-.35.47-1.5.39-3.02.74-4.57 1.05Z" fill="#D42E1E"/><path d="M23.76 27.27c.82-.18 1.39-.07 1.7.32.3.36.23.45-.2.28a3.02 3.02 0 0 0-1.75-.2.07.07 0 0 1-.05-.05v-.04l.03-.08c.04-.13.13-.2.27-.23ZM25.62 28.47a.03.03 0 0 1 .02.02v.02a.4.4 0 0 1-.05.17.44.44 0 0 1-.12.13.52.52 0 0 1-.17.08.57.57 0 0 1-.2.02l-.74-.05a.57.57 0 0 1-.2-.05.52.52 0 0 1-.15-.11.44.44 0 0 1-.1-.15.4.4 0 0 1-.02-.17v-.01a.03.03 0 0 1 0-.02l.02-.01 1.7.13Z" fill="#161515"/><path d="M22.4 29.11c-.49.15-.9.4-1.24.76-.42.42-.06 1.5.04 2.04a.59.59 0 0 0-.16.14.42.42 0 0 1-.2.13 382.08 382.08 0 0 1-12.62 3.66.15.15 0 0 1-.12-.13c-.09-.67-.3-1.55.44-1.95.67-.35 1.35-.67 2.04-.94a76.72 76.72 0 0 1 5.97-2.06c1.84-.56 3.7-1.09 5.55-1.6.11-.03.21-.04.3-.05Z" fill="#D42E1E"/><path d="M25.46 29.66c.05-.04.1-.06.16-.07a.08.08 0 0 1 .09.08c0 .02 0 .03-.02.04-.1.16-.23.29-.38.4-.27.2-.61.04-.93.1a.26.26 0 0 1-.22-.06 2.14 2.14 0 0 1-.49-.6c-.05-.1-.03-.13.08-.08.46.22 1.32.47 1.71.19ZM25.12 30.73c-.31.77-.75.96-1.32.56a2.28 2.28 0 0 1-.58-.6c-.07-.1-.05-.13.07-.1.5.12 1.02 1 1.54.14a.17.17 0 0 1 .16-.09h.08a.06.06 0 0 1 .05.06v.03Z" fill="#161515"/><path d="M42.27 34.06c-.6-.96-1.04-2-1.32-3.11 1.74.02 3.47.06 5.19.1.56.02 1.13.12 1.68.18.09 0 .13.05.14.14.04.36.05.78.03 1.26-.01.26-.14.42-.38.48-1.76.41-3.54.73-5.34.95Z" fill="#D42E1E"/><path d="M23.34 31.94c.22.03.45.05.68.05.07 0 .13.02.19.07.02.02.04.05.04.09.02.1-.02.16-.12.18-.42.11-.78.05-1.08-.19a.34.34 0 0 1-.13-.23c-.03-.23.01-.33.12-.32.08.01.12.06.12.14l.02.08a.2.2 0 0 0 .16.13Z" fill="#161515"/><path d="M26.87 31.76c0 .14.15.18.43.13.08-.02.1.02.1.1l-.92 5.22-3.1.24-.54-1.71a.27.27 0 0 1 .02-.22l1.09-2.05a.37.37 0 0 1 .15-.15c.54-.3.97-.68 1.28-1.12l1.5-.44ZM38.56 34.66l-3.29.44a5.91 5.91 0 0 1 0-2.46.26.26 0 0 1 .12-.18l.98-.6a.15.15 0 0 1 .1-.03c.05.01.08.03.1.06l1.99 2.77ZM32.13 37.16c-.75.1-1.54.11-2.37 0 .15-1.11.4-2.24.76-3.36.05-.18.23-.49.52-.92.05-.08.11-.1.19-.03.52.43.75.76.77 1.5.03.92.07 1.86.13 2.8ZM20.23 34.03l-.61 1.49c-.16.36-.21.77-.14 1.23l-6.96 2.24c-.12.04-.2 0-.21-.13-.12-.77-.23-1.5.54-1.98.4-.26.8-.47 1.17-.63 1.3-.56 2.9-1.16 4.79-1.82.57-.2 1.05-.34 1.42-.4ZM35.28 35.42l3.84.06c.47.48.87 1.07 1.21 1.76l-5-.04a4.13 4.13 0 0 1-.05-1.78ZM42.8 35.56l2.56.15a.42.42 0 0 1 .4.42l-.02 1.03c0 .24-.13.35-.36.33l-1.8-.12c-.14-.3-.34-.55-.61-.78l-.32-.7c.09-.1.14-.22.15-.33Z" fill="#D42E1E"/><path fill-rule="evenodd" d="m37.82 21.42-1.9-1.51-1.2-.68a.2.2 0 0 1-.07-.26c.32-.7.52-1.47.6-2.31a.36.36 0 0 0-.26-.38l-4.19-1.2c-.37-.11-.73-.14-1.09-.08-.51.08-1.01.15-1.51.2-.04 0-.07 0-.1-.03a.17.17 0 0 1-.06-.06c-.17-.3-.4-.36-.64-.43-.12-.04-.25-.07-.4-.15-.46-.26-1.05-.18-1.54.04a.28.28 0 0 1-.23 0l-1.3-.54a.28.28 0 0 0-.23 0l-1.5.61c-.14.06-.25.14-.36.22-.11.08-.22.16-.36.21a.37.37 0 0 1-.23.02 4.52 4.52 0 0 0-2.5-.08c-1.26.4-2.54.79-3.85 1.18-.1.03-.13.09-.11.18.15.62.32 1.24.52 1.86.07.21.2.35.32.5.15.15.29.3.34.54.08.37.13.75.17 1.12.08.81.85 1.58 1.41 2.13l.01.01c.82.35 1.3.82 1.46 1.42l.5 1.34 1.71 1.13.59-.3c.06-.02.11-.01.15.05.1.15.15.33.15.54.26.52.39 1.09.39 1.7.1.25.15.48.13.71 0 .05-.02.07-.05.07l-.05-.01-.14-.07c-.49.15-.9.4-1.24.76-.34.34-.16 1.13-.03 1.7l.07.34c.08.52-.68 1.68-.97 2.12l-.61 1.49c-.16.36-.21.77-.14 1.23.15.2.28.46.38.78.1.36.02.67-.06.99l-.1.42c-.02.16.05.25.21.26l.36.03c.65.06 1.3.11 1.91-.1a12.52 12.52 0 0 1 1.3-.4c.1-.02.14-.08.14-.17.02-.39-.06-.76-.24-1.1l-.54-1.72a.27.27 0 0 1 .02-.21l1.1-2.06a.37.37 0 0 1 .14-.15c.54-.3.97-.68 1.28-1.12l.99-1.28a.14.14 0 0 1 .08-.05c.03-.01.07 0 .1.01l.85.5c.04.02.06.06.07.1v.11c-.09.15-.28.2-.6.17 0 .14.15.18.43.13.08-.02.11.02.1.1l-.92 5.22-.12 2.5c0 .1.04.15.14.16l3.44.13c.18 0 .26-.08.23-.26-.1-.63-.24-1.26-.43-1.86a2 2 0 0 1 .02-.71c.15-1.12.4-2.25.76-3.37.05-.18.23-.49.52-.92.05-.08.11-.1.19-.03.52.43.75.76.77 1.5.03.92.07 1.86.13 2.8L32 39.09c0 .09.04.13.13.12.77-.04 1.54-.01 2.33.07.3.04.57-.12.82-.27l.24-.14c.07-.04.1-.1.09-.18l-.28-1.48a4.13 4.13 0 0 1-.05-1.78v-.32a5.91 5.91 0 0 1 .03-2.56.28.28 0 0 1 .08-.08l.98-.6a.15.15 0 0 1 .1-.03c.05.01.08.03.1.06l1.99 2.77.56.82c.47.48.87 1.07 1.21 1.76.14.11.17.4.1.86-.06.35.04.75.29 1.2.03.05.09.08.16.09 1.05.07 2.02 0 2.92-.22a.33.33 0 0 0 .25-.29.34.34 0 0 0-.06-.22 1.4 1.4 0 0 1-.25-.73.38.38 0 0 0-.08-.2c-.1-.13-.13-.25-.09-.36-.13-.3-.33-.55-.6-.78l.2 1.38v.01c0 .1-.04.12-.13.1l-.69-.24c-.18-.06-.17-.11.01-.15.22-.05.4-.17.52-.36.08-.12.04-.17-.1-.15l-.11.02c-.42.07-.84.14-.93-.47a.17.17 0 0 1 .04-.14.18.18 0 0 1 .14-.06l.4.01c.07 0 .11-.03.13-.09a.1.1 0 0 0-.01-.08.1.1 0 0 0-.07-.05h-.05a1.77 1.77 0 0 0-.78 0 .15.15 0 0 1-.16-.04 4.39 4.39 0 0 1-.87-1.34.2.2 0 0 1 0-.14l.18-.5a.39.39 0 0 0 .02-.23.4.4 0 0 0-.1-.2 32.44 32.44 0 0 1-2.22-2.54 2.1 2.1 0 0 1-.38-.96l-.01-.06-.02-.09c-.04-.19-.08-.38-.16-.59a.3.3 0 0 1 0-.2.4.4 0 0 0 0-.27c-.03-.04-.04-.06-.06-.06v.01c-.02 0-.03.03-.03.06l-.29.92a.23.23 0 0 1-.08.12.23.23 0 0 1-.1.04l-.44.12c-.54.15-1.1.3-1.66.13a31.18 31.18 0 0 0-2.26-.59.45.45 0 0 1-.26-.24l-.54-1.26c-.1-.22-.2-.22-.28 0a26.96 26.96 0 0 1-.63 1.52 7.62 7.62 0 0 0-.52 2.15c-.05.47-.16.9-.31 1.26l-.18.41c-.48 1.14-1 2.34-1.15 3.55v.04c-.02.08-.08.13-.18.13l-1.56.09c-.03 0-.06 0-.08-.03a.12.12 0 0 1-.04-.07 6.65 6.65 0 0 1 .12-2.3c.18-.7.35-1.44.52-2.23.07-.37.2-.74.36-1.1a.43.43 0 0 0 .03-.26c-.1-.65-.2-1.24-.32-1.77a1.52 1.52 0 0 0-.38-.7.24.24 0 0 1-.06-.21l.42-2.1a.17.17 0 0 1 .14-.14c.34-.08.67-.13 1-.17l.14-.02a9 9 0 0 0 1.04-.16c.5-.12.96-.08 1.37.12a.26.26 0 0 0 .24 0h.01a.27.27 0 0 0 .1-.1l.02-.05.01-.08c.02-.86.32-1.64.9-2.34h.01c.36-.44.97-1.59.55-2.12a.22.22 0 0 1 .02-.3v-.01c.3-.28.61-.54.93-.8.15-.1.27-.31.2-.5V20c.01-.02.05 0 .11.02a17.27 17.27 0 0 0 1.57.77c.22.1.41.24.57.41a20.77 20.77 0 0 1 2.3 2.84c.23.36.4.74.5 1.16a548.17 548.17 0 0 1 .6 2.4c.1.42.1.85.11 1.28v.18c.02.43.04.86.16 1.3.05.17.09.33.12.5l.03.12c.07.29.14.57.26.85l1.79 4.06c.08-.1.13-.22.14-.33l-.53-1.5c-.6-.96-1.04-2-1.32-3.11l-.18-1.74a36.92 36.92 0 0 1-.49-2.47l.01-.05.03-.2-.07-.17-.97-2.58a6.85 6.85 0 0 0-.98-1.65c-.17-.22-.34-.44-.48-.67Zm-15.93-1.28c-.01-.04 0-.07.03-.1.08-.06.11-.04.12.05l.04.62c0 .07 0 .15-.03.21l-.54 1.25a.27.27 0 0 0 .01.26c.13.24.25.48.35.74.17.44.25.42.25-.05 0-.17-.02-.35-.05-.54-.02-.13.04-.2.16-.22l.09-.01c.1-.02.17.03.16.14 0 .55.04 1.11.14 1.68.05.32.08.63.1.94.03.37.06.73.14 1.1.06.29.08.57.1.86.01.32.03.63.11.95.04.15.06.3.08.46l.03.58c0 .23 0 .47.04.7a.14.14 0 0 0 .02.07l.06.05c.04.02.07.06.08.11 0 .05 0 .1-.04.13a1.88 1.88 0 0 0-.45.7.04.04 0 0 1-.06-.02l-.37-.92a.16.16 0 0 0-.1-.1.16.16 0 0 0-.15.03.87.87 0 0 1-.57.15c-.39-.01-.58.32-.35.65a.06.06 0 0 0 .1.01l.02-.02c.11-.25.3-.4.58-.43.1-.02.14.02.12.12-.03.24-.36.33-.56.37a.18.18 0 0 0-.13.23l.32 1.02c.03.1.08.16.16.2.11.07.17.04.18-.09 0-.16.1-.26.26-.29a.1.1 0 0 1 .05 0c.02.01.03.03.04.06.04.2 0 .33-.14.4-.1.06-.1.12 0 .17l1.06.52c.42.2 1-.02 1.22-.46.41-.81.85-1.64 1.31-2.46.14-.26.21-.55.22-.87a165.65 165.65 0 0 0-.03-4.67.27.27 0 0 1 .06-.1c.21-.21.53-.33.93-.34a.13.13 0 0 0 .13-.1v-.06l-.3-1.3c-.08-.4-.06-.77.05-1.14.28-.89.6-1.61.97-2.17.23-.35-.11-.92-.31-1.22a.26.26 0 0 1-.05-.22l.25-1.06c.02-.07.06-.1.13-.12.65-.1 1.32-.17 2-.2.73-.05 1.37.23 2 .51l.5.21c.13.05.19.14.19.27v.11a.13.13 0 0 1-.11.13h-.06c-.55-.11-1.1-.24-1.64-.38a1.5 1.5 0 0 0-.92.05c-.52.2-1.04.36-1.57.48-.1.03-.15.1-.13.2a2.94 2.94 0 0 0 .25.8.25.25 0 0 1 0 .19 7.87 7.87 0 0 1-1.12 2.06c-.26.33-.27.72-.12 1.1.23.59.34 1.16.3 1.73 0 .08.04.14.1.17.52.24 1.03.5 1.53.78.38.2.76.18 1.15.16l.36-.02a.44.44 0 0 0 .36-.2c.46-.72.94-1.43 1.44-2.13.13-.18.18-.37.23-.56.04-.14.08-.28.15-.41.2-.4.5-.84.92-1.31.07-.1.12-.2.14-.31.04-.22.04-.43.03-.64 0-.32 0-.63.12-.94l.53-1.43a.29.29 0 0 0 .01-.2c-.02-.06-.08-.1-.18-.14-1.23-.36-2.5-.77-3.82-1.22a1.8 1.8 0 0 0-.92-.08c-.48.09-.95.13-1.39.12-.15 0-.2.06-.13.2l.02.06c.03.07.04.14.04.2.01.12-.04.19-.14.2a.13.13 0 0 1-.14-.05 6.34 6.34 0 0 1-.47-.81c-.16-.33-.44-.45-.74-.57a6.44 6.44 0 0 1-.18-.08.29.29 0 0 0-.25 0l-.76.33a.2.2 0 0 1-.15 0l-1.8-.6a.26.26 0 0 0-.24.04l-1.25.94a.8.8 0 0 1-.68.13 104.51 104.51 0 0 0-1.18-.3 1.8 1.8 0 0 0-.89-.01c-1.48.36-2.8.72-3.95 1.08-.1.03-.12.08-.07.17a5.91 5.91 0 0 0 1.85 2.03c.07.04.14.06.22.05l2.15-.27c.18-.02.2 0 .04.1l-1.3.74c-.2.11-.18.17.05.18l.22.01a.17.17 0 0 1 .12.29l-.4.4a.19.19 0 0 0-.04.22l.37 1.08a.14.14 0 0 0 .2.07c.23-.14.45-.3.66-.5.02-.01.05-.02.08 0l.02.02c.02.04.02.08 0 .12l-.26.5c-.1.19-.06.34.1.47l.12.1c.13.12.24.1.32-.05L21 19.86a.35.35 0 0 0 .03-.28c-.1-.3-.18-.6-.25-.9-.07-.31.1-.62.23-.89l.02-.03a.32.32 0 0 0-.03-.35c-.2-.24-.4-.46-.64-.65-.3-.25-.7-.32-1.1-.38a4.33 4.33 0 0 1-.64-.14 2.21 2.21 0 0 0-1.21.05 3.79 3.79 0 0 1-.77.11.06.06 0 0 1-.03-.03v-.09c0-.03 0-.06.03-.09a.14.14 0 0 1 .08-.04c.31-.06.6-.17.85-.33a.47.47 0 0 1 .28-.08c.49 0 .94 0 1.42-.12a2.21 2.21 0 0 1 2.33.71l.05.14.13.73a.4.4 0 0 1-.06.31c-.15.22-.24.47-.26.75-.01.08 0 .17.05.24l.6 1.11v.09c0 .03-.01.05-.03.07-.08.07-.13.1-.15.06-.04-.06-.07-.06-.1.01-.02.07-.1.07-.22.01a.24.24 0 0 1-.13-.13.25.25 0 0 1-.01-.04l-.17-.77c-.04-.16-.07-.16-.1 0-.13.6.03 1.06.48 1.38.2.14.28.1.21-.15Zm-1.17 5.26c.33-.28.56-.6.55-1.04-.01-.23.05-.45.19-.64.04-.07.1-.08.15-.02.32.35.47.77.47 1.24 0 .09-.03.15-.1.2l-.85.65a.28.28 0 0 1-.28.03.29.29 0 0 1-.1-.06l-.04-.05a.22.22 0 0 1 .01-.3Zm6.97.37c-.44-.32-.57-.84-.55-1.36 0-.1-.03-.13-.12-.11-.5.12-.72.46-.66 1.03.01.08.05.15.11.2l.8.68c.08.07.16.07.24 0l.19-.17a.17.17 0 0 0 .05-.18.17.17 0 0 0-.06-.09Zm5.36 12.67c-.02.08 0 .16.03.24.04.08.02.13-.07.13l-.46.04c-.16.01-.2-.05-.11-.19l.5-.84a.25.25 0 0 1 .3-.1 2.12 2.12 0 0 1 1.32 1.2.08.08 0 0 1-.08.08h-.85a.12.12 0 0 1-.12-.1l-.03-.28c-.02-.19-.12-.29-.29-.3-.08 0-.13.04-.14.12Zm-12.22.03c.07.17-.06.38-.29.47-.22.1-.46.04-.53-.12-.07-.17.06-.38.28-.47.23-.1.47-.04.54.12Zm.95.32a.93.93 0 0 1-.42.06c-.08-.01-.12-.06-.12-.14a.5.5 0 0 1 .13-.3c.05-.07.13-.08.2-.05.13.05.22.14.28.26a.12.12 0 0 1 0 .1.13.13 0 0 1-.03.04.13.13 0 0 1-.04.03Zm20.46-.28c0-.1-.05-.17-.16-.18-.31-.04-.55.1-.72.4a.14.14 0 0 1-.09.08.13.13 0 0 0-.08.05c-.04.07-.04.12 0 .14a.2.2 0 0 0 .08.01l.8-.01c.1 0 .15-.06.15-.16l.02-.33Zm1.11-.03-.56.06c-.1.02-.17.1-.16.2l.02.12c.01.1.1.17.2.16l.56-.07c.1-.01.17-.1.16-.2l-.01-.11a.18.18 0 0 0-.2-.16Zm-16.62.77.07.05.7.2a.11.11 0 0 0 .1-.02.11.11 0 0 0 .05-.06v-.04a.76.76 0 0 0 .01-.37.5.5 0 0 0-.15-.26.4.4 0 0 0-.35-.1.49.49 0 0 0-.18.1.65.65 0 0 0-.16.16.76.76 0 0 0-.1.22v.03l.01.09Zm1.67.36c.16-.08.25-.24.19-.37s-.24-.17-.4-.1c-.17.08-.25.25-.2.38.07.12.25.17.41.09Z" fill="#161515"/></svg>