<svg width="56" height="56" viewBox="0 0 56 56" xmlns="http://www.w3.org/2000/svg"><path fill="#F0F3FA" d="M0 0h56v56H0z"/><path fill="#2E3092" d="M13 13h30v30H13z"/><path fill="#EE1D23" d="M26 26h4v4h-4z"/><path d="M22.5 14c-4.7 0-8.5 3.97-8.5 8.86v.28c0 4.9 3.8 8.86 8.5 8.86H32v-5h-1v4h-8.5c-4.37 0-7.5-3.3-7.5-7.86v-.28C15 18.3 18.13 15 22.5 15H41v3h1v-4H22.5Zm11 28c4.7 0 8.5-3.97 8.5-8.86v-.28c0-4.9-3.8-8.86-8.5-8.86H24v5h1v-4h8.5c4.37 0 7.5 3.3 7.5 7.86v.28C41 37.7 37.87 41 33.5 41H15v-3h-1v4h19.5Z" fill="#fff"/></svg>