<svg width="56" height="56" viewBox="0 0 56 56" xmlns="http://www.w3.org/2000/svg"><path fill="#EE2D3E" d="M0 0h56v56H0z"/><path fill-rule="evenodd" d="M32.2 12.83c-1.7.02-2.99.97-3.8 2.49-.13.26-.2.24-.21-.06-.02-2.63-.58-5.08-3.23-6.06-1.34-.48-2.83-.11-3.35 1.33-.22.61-.05.75.5.41 1.36-.83 2.58.72 2.87 1.88.52 2.15-.31 4.72-1.13 6.7-1.14 2.77-2.32 5.59-3.53 8.46a16.9 16.9 0 0 0-1.18 4.18c-.57 4 .48 9.05 5.05 9.94.15.03.26.1.34.23.1.16.2.34.28.52 1.03 2.16 3.11 3.13 5.42 3.15 2.53.02 4.36-.93 5.49-2.86 1.9-3.25 1.48-7.55.05-11.08A436.05 436.05 0 0 0 32.4 24c-1.02-2.38-2.26-5.68-1.1-8.14.43-.93 1.6-1.79 2.6-1.1.53.35.68.23.47-.36-.38-1.06-1.1-1.57-2.17-1.56ZM23 28.78c-1.58 3.1-3.05 8.97.71 11.2.2.11.29.05.26-.17-.24-2.44-.02-4.96.66-7.56.85-3.27 1.94-6.8 3.25-10.59.09-.27.08-.54-.04-.8l-.35-.78c-.1-.24-.21-.24-.32 0a192.27 192.27 0 0 1-4.17 8.7Zm3.92-.95a114.1 114.1 0 0 1 1.75-4.32.14.14 0 0 1 .2.07c.96 2.4 1.67 4.9 2.14 7.52.73 4.13.4 9.94-5.5 9.48a.93.93 0 0 1-.86-.93c-.03-3.78.73-7.72 2.27-11.82ZM25.8 42.5a4.93 4.93 0 0 0 8-.28c2.1-3.26-.09-8.64-1.89-11.94-.16-.3-.22-.29-.16.05l.21 1.35c.26 1.63.24 3.35-.06 5.14-.58 3.46-2.57 5.25-5.97 5.38a.18.18 0 0 0-.13.3Z" fill="#fff"/></svg>