<svg xmlns="http://www.w3.org/2000/svg" width="56" height="56" viewBox="0 0 56 56"><path fill="#F0F3FA" d="M0 0h56v56H0z"/><path d="m31 20-.8.93v.41l.8-.82V20Zm-1.06 1.11v.5l-.94.99v-.41l.94-1.08Zm0 .81-.94.98v.3l.94-.98v-.3ZM29 23.8v-.3l.94-.97v.29l-.94.98Zm1.2-1.26v-.29l.8-.82v.29l-.8.82Zm.8-1.72v.3l-.8.83v-.3l.8-.83Zm-.8 2.03.8-.83V32h-.8v-9.15ZM29 24.1l.94-.98V32H29v-7.9ZM9.08 26H7.85c0-.67-.83-.91-1.18-.91-.36 0-1.17.13-1.17.94 0 .64.78.93 1.17 1 2.29.54 2.61 2.13 2.61 2.5 0 .38-.2 2.47-2.61 2.47-1.94 0-2.59-1.64-2.67-2.46h1.22c0 .2.15 1.23 1.45 1.23a1.3 1.3 0 0 0 1.37-1.23c0-.36-.35-1.14-1.67-1.44-1.65-.37-2.14-1.4-2.14-1.9 0-.61.33-2.26 2.44-2.26A2.4 2.4 0 0 1 9.08 26ZM11 24h-1v8h1v-3.61c0-.84.67-1.39 1.42-1.39.76 0 1.58.55 1.58 1.4V32h1v-3.2c0-1.55-1.12-2.8-2.5-2.8-.56 0-1.08.21-1.5.56V24Zm12 2h1v.56c.42-.35.94-.56 1.5-.56 1.38 0 2.5.92 2.5 2.8V32h-1v-3.6c0-.85-.82-1.4-1.58-1.4-.75 0-1.42.55-1.42 1.4V32h-1v-6Zm-1 3v3h-1v-3.04a2 2 0 1 0-.3 1.1v1.41A3 3 0 1 1 22 29Z" fill="#0F7EC2"/><path d="m32 20.93-.8-.93v.55l.8.82v-.44Zm-.8.22v-.3l.8.83v.3l-.8-.83Zm0 .3.8.83v.3l-.8-.84v-.29Zm0 .6.8.83V32h-.8v-9.95ZM35.25 26l-2.99 2.94C33.11 29.12 35 30 35 32h1.03c.01-.82-.35-2.62-1.87-3.26l1.87-1.95-.78-.79ZM52 29a3 3 0 1 0-1.3 2.47v-1.35a2 2 0 1 1 .3-1.17V32h1v-3Zm-11 2.9v.03h1v-3a3 3 0 1 0-1.3 2.54v-1.42a2 2 0 1 1 .3-1.16v3Zm4.74-5.93c.19 0 .37.02.54.06v1.13c-.19-.1-.4-.16-.62-.16-.78 0-1.58.8-1.66 1.56v3.41h-1V26h1v.48c.45-.32 1.15-.5 1.74-.5Z" fill="#27215E"/></svg>