<svg width="56" height="56" viewBox="0 0 56 56" xmlns="http://www.w3.org/2000/svg"><path fill="#F0F3FA" d="M0 0h56v56H0z"/><path fill-rule="evenodd" d="M18 18.14 9 23.1v9.82l9 4.95 9-4.95v-9.82l-9-4.95Zm10 4.36L18 17 8 22.5v11L18 39l10-5.5L38 39l10-5.5v-11L38 17l-10 5.5Zm10-4.36-9 4.95v9.82l9 4.95 9-4.95v-9.82l-9-4.95ZM21.68 26h-1.96c-.05-.5-.44-1.3-1.63-1.3-1.18 0-1.51.59-1.54.88.1.58 1.48 1.04 2.16 1.2 2.91.92 3.29 2.27 3.29 3.08S21.39 33 17.9 33a3.83 3.83 0 0 1-3.9-3.37l2.09-.16c.21.76.65 1.66 2 1.66 1.36 0 1.63-.77 1.63-1.27s-.17-.7-2.68-1.29C14.53 28 14.4 26 14.4 25.77c0-.23.17-2.77 3.7-2.77 2.81 0 3.56 1.97 3.58 3ZM37 23h2v10h-2V23Z" fill="#CC1214"/></svg>