<svg width="56" height="56" viewBox="0 0 56 56" xmlns="http://www.w3.org/2000/svg"><path fill="#F0F3FA" d="M0 0h56v56H0z"/><path fill-rule="evenodd" d="M25 14v-3h6v3h6.97l1.6 5.55c.04.16.02.7-.4.7-.18 0-.27-.03-.4-.07-.24-.07-.6-.18-1.96-.18H25.68c-3 .12-9 1-9 4.34-.06.8.4 2.7 2.74 4.06 2.92 1.7 3.83 2.52 3.83 3.65s-1.92 1.23-8.83 1.23c-.11 0-.34-.15-.3-.63L17.19 14H25Zm1 0h4v-2h-4v2Zm11.27 1H17.83l-1.2 7.17c1.5-1.98 5.8-2.98 7.76-3.17h14.2l-1.32-4ZM14.95 32.39l1.07-6.58c.21.56.92 1.88 2.08 2.72.44.33.96.66 1.5 1 1.18.77 2.4 1.55 2.85 2.26.51.8-4.79.74-7.5.6ZM13 38.49l.38-3.08c.72.16 3.18.59 7.2.59 5.04 0 7.41-1.16 7.41-3.2 0-1.96-2.14-3.43-3.63-4.45l-.19-.13-.5-.34c-1.24-.83-2.14-1.44-2.14-2.56 0-1.01 1.16-1.33 1.6-1.32H32v12h5V23h3.4L45 39.6c-1.73 1.16-8.46 1.94-11 2.18v2.65c-.42.19-1.88.57-5.22.57s-5.09-.38-5.78-.57v-2.65c-4.9 0-8.01-1-9.22-1.5-.74-.24-.82-1.3-.77-1.8ZM38 37h-7V25h-7.22c-.38-.06-1.15-.1-1.15.57 0 .76.85 1.12 1.58 1.42.21.09.42.17.58.26 1.42.9 4.25 3.2 4.25 5.24 0 2.54-1.7 4.51-8.4 4.51a35.81 35.81 0 0 1-6.63-.48l-.16 2.99c1.7.54 7.16 1.49 15.38 1.49s13.05-1.27 14.56-1.95L39.77 24H38v13Zm-14 5a136 136 0 0 0 9 0v1.64c-.77.12-2.7.36-4.34.36-1.62 0-3.78-.24-4.66-.36V42Z" fill="#5E2007"/></svg>