<svg width="56" height="56" viewBox="0 0 56 56" xmlns="http://www.w3.org/2000/svg"><path fill="#F0F3FA" d="M0 0h56v56H0z"/><path d="M38.93 12.18c1.85.6 3.47 1.47 4.86 2.62a.8.8 0 0 1 .2.25v.05l-.03.02c-3.75-.17-7.51.08-11.27.73-2.1.36-4.18.89-6.23 1.58-.92.3-1.8.67-2.64 1.08a14.9 14.9 0 0 0-2.8 1.72 6.53 6.53 0 0 0-1.95 2.34 3.81 3.81 0 0 0-.1 2.95c.29.8.79 1.58 1.5 2.32a17 17 0 0 0 3.57 2.82c1.59.95 2.95 1.68 4.08 2.19.3.13.3.18-.04.13-1.6-.23-3.19-.59-4.78-1.07a18.41 18.41 0 0 1-3.91-1.67 12.75 12.75 0 0 1-3.3-2.64c-.84-.97-1.43-2-1.77-3.12a7.2 7.2 0 0 1-.17-3.57 9.59 9.59 0 0 1 2.76-4.9 15.62 15.62 0 0 1 4.71-3.14c1.8-.78 3.76-1.3 5.86-1.6 4.02-.56 7.83-.25 11.45.91Z" fill="#0290D5"/><path d="M33.29 26.49c-.84-.6-1.8-1.21-2.9-1.82a69.27 69.27 0 0 0-3.12-1.61v-.04c.01-.02.03-.02.04-.02 1.26.21 2.38.43 3.37.66 1.42.32 2.76.76 4 1.32 1.37.6 2.58 1.31 3.63 2.14a9.85 9.85 0 0 1 3.06 3.8c.68 1.57.81 3.18.39 4.83a8.92 8.92 0 0 1-1.82 3.45 12.8 12.8 0 0 1-2.99 2.62c-1.28.82-2.72 1.5-4.3 2a26.17 26.17 0 0 1-14.73.24 14.33 14.33 0 0 1-5.87-3.03c-.08-.07-.07-.1.04-.1 3.71.13 7.38-.1 11-.71a38.5 38.5 0 0 0 7.21-1.94 16.38 16.38 0 0 0 4.63-2.59c.47-.38.88-.8 1.23-1.3a4 4 0 0 0 .34-4.47 7.96 7.96 0 0 0-1.4-1.9 13.4 13.4 0 0 0-1.81-1.53Z" fill="#19398E"/><path d="M31 28.02a2.97 2.97 0 0 1-1.87 2.76 2.98 2.98 0 0 1-3.26-.67 2.97 2.97 0 0 1-.64-3.27A2.97 2.97 0 0 1 28.01 25a2.96 2.96 0 0 1 2.12.9 2.97 2.97 0 0 1 .87 2.12Z" fill="#DE1F26"/><path d="M30 28a1.96 1.96 0 0 1-.59 1.42A1.98 1.98 0 0 1 28 30a2 2 0 1 1 2-2Z" fill="#F0F3FA"/><path d="M27.96 29.02a1 1 0 0 0 1.02-.97 1 1 0 0 0-.98-1.03 1 1 0 0 0-1.02.98 1 1 0 0 0 .98 1.02Z" fill="#19398E"/></svg>