<svg width="56" height="56" viewBox="0 0 56 56" xmlns="http://www.w3.org/2000/svg"><path fill="#F0F3FA" d="M0 0h56v56H0z"/><ellipse cx="29.7" cy="28" rx="16.3" ry="16" fill="#D29649"/><path d="M32.7 13.28a16 16 0 0 0 0 29.44A16.5 16.5 0 0 1 26.3 44c-9 0-16.3-7.16-16.3-16s7.3-16 16.3-16c2.27 0 4.44.46 6.4 1.28Z" fill="#B7B9BB"/><path d="M17 23.6v.86a2.05 2.05 0 0 0-1.42-.54c-.4 0-1.57.32-1.57 1.72s2.13 2.21 2.13 4.15c0 1.04-.64 1.9-.96 2.21h-.96c.32-.25.96-1.05.96-2.21 0-1.45-2.18-2.48-2.18-4.15 0-1.67 1.57-2.64 2.58-2.64.81 0 1.28.4 1.42.6ZM18 23l1 .8V32h-1v-9ZM21 23.8l-1-.8v9h3v-1h-2v-7.2Z" fill="#fff"/><path fill-rule="evenodd" d="M26.55 37.9c-.32.26-.62.5-.92.72-1.93 1.5-5.34 2.13-7.1.03-.87-1.02-.58-2.47.26-3.42.78-.87 1.71-1.64 2.8-2.3.78-.48 1.44-.88 1.97-1.22l4.6-2.6a.4.4 0 0 0 .2-.43l-.26-1.2c-.02-.12-.17-.16-.26-.08-.07.07-.14.15-.2.24-.41.73-1.69 2.63-2.7 2.2-.31-.13-.48-.38-.52-.77-.35-3.07 3.34-5.93 5.76-6.9.4-.15 1.4-.42 1.35.36 0 .11-.05.13-.14.06a.78.78 0 0 0-.9-.08c-2.47 1.26-5.43 3.59-5.36 6.62 0 .23.26.37.45.25.43-.24.8-.56 1.1-.97.63-.83 1.25-1.53 1.87-2.33a.22.22 0 0 1 .2-.08c.07 0 .16.06.19.12.04.1.06.24.06.4v1.85c0 .18.24.13.32.05.35-.29.67-.57 1.06-.83a.8.8 0 0 0 .32-.5c.52-2.07 1.87-4.3 4-4.8.76-.17 1.55.34 1.53 1.16 0 .1.03.18.08.26.16.21.3.42.41.64.2.35.28.77.28 1.23.02 2.25-1.29 4.69-3.54 5.33-.24.07-.47.1-.7.09a2.2 2.2 0 0 1-2.17-2.45c0-.08.14-.63-.11-.59a.12.12 0 0 0-.07.03l-1.27 1.13a.17.17 0 0 0-.06.14c.34 3.19-.36 6.24-2.53 8.65Zm9.12-11.54a4.4 4.4 0 0 0 .59-1.38c.02-.09.06-.11.14-.08.1.05.17.13.18.25.28 2.21-.87 5.26-3.48 5.3-.1 0-.22 0-.33-.03-.99-.17-1.6-1.2-1.67-2.07a6.28 6.28 0 0 1 1.5-4.54c.57-.7 1.67-1.5 2.6-1.25.38.1.64.33.78.7.04.12-.07.24-.18.2-1.06-.25-2 0-2.86.74-.04.04 0 .17.04.15a2.64 2.64 0 0 1 2.8-.35c.28.13.33.46.26.75l-.44 1.58c-.03.12 0 .13.07.03Zm-14.92 13c2.2.02 4.03-.66 5.5-2.04 2.23-2.03 2.74-4.87 2.24-7.7a.14.14 0 0 0-.2-.08l-4.74 2.93c-1.16.7-2.28 1.5-3.36 2.36a5.1 5.1 0 0 0-1.6 2.08c-.26.65-.17 1.23.27 1.71.44.48 1.07.72 1.89.73Z" fill="#fff"/></svg>