<svg width="56" height="56" viewBox="0 0 56 56" xmlns="http://www.w3.org/2000/svg"><path fill="#F0F3FA" d="M0 0h56v56H0z"/><path fill-rule="evenodd" d="M18.44 13c-3 0-5.44 2.43-5.44 5.44v19.12c0 3 2.43 5.44 5.44 5.44h19.12c3 0 5.44-2.43 5.44-5.44V18.44c0-3-2.43-5.44-5.44-5.44H18.44ZM39 17c-7.47 1.85-22.32 6.43-22 9.89.1 1.44 2.33 1.33 4.44.51 2.12-.82 7.07-2.99 17.56-10.4ZM19 32.66c0-2.62 8.08-5.74 15.72-8.69l2.5-.97c-8.66 7.05-11.67 9.16-13.79 9.97-2.1.8-4.33 1.1-4.43-.3Zm13.16-1.18C26.4 33.66 21 35.7 21 38.15c.08 1.22 1.95.96 3.73.26 1.78-.69 3.98-2.34 11.27-8.41-1.26.5-2.56 1-3.84 1.48Z" fill="url(#aoekk1p4s)"/><defs><linearGradient id="aoekk1p4s" x1="42.3" y1="20.55" x2="13" y2="39.58" gradientUnits="userSpaceOnUse"><stop stop-color="#F15922"/><stop offset="1" stop-color="#FAA61A"/></linearGradient></defs></svg>