<svg xmlns="http://www.w3.org/2000/svg" width="56" height="56" viewBox="0 0 56 56"><path fill="url(#acl24du0r)" d="M0 0h56v56H0z"/><path d="M49 23h-2.73L46 24h1.24c0 .4-.4.98-.6 1.22h.34L49 23z" fill="#C21B2E"/><path d="M10.66 23.36l-.54 1.51a3.03 3.03 0 0 0-1.27-.36c-.77-.06-1.8 0-1.8.65 0 .52.83.9 1.25 1.02 1.36.4 1.67 1.49 1.66 1.99 0 2.3-2.36 2.6-3.36 2.6-.8 0-2.07-.26-2.6-.4l.53-1.45c.44.12 1.39.38 1.7.42.4.04 1.68-.02 1.68-.77 0-.6-.58-.88-.87-.99-1-.37-1.97-.98-1.97-2.28 0-2.8 3.73-2.47 5.6-1.94zM25.82 31h1.96l.7-3.37c.34-.45 1.23-1.23 2.04-.75l.51-1.86c-.95-.09-1.9.13-2.55 1.18l.3-1.2h-1.84l-1.12 6zm10.57 0l1.25-6h1.57l-.19 1.1c.38-.37 1.32-1.1 2.07-1.1.76 0 1.3.67 1.48 1 .36-.33 1.26-1 2-1 1.64 0 1.65 1.51 1.55 2.32L45.49 31h-1.9l.66-3.48c.04-.28-.03-.86-.66-.86-.8 0-1.61 3.16-1.61 4.34h-1.95l.64-3.48c.09-.38.09-1.08-.64-.86-.73.23-1.4 2.99-1.63 4.34h-2.01zm15.16-4.47l.45-1.25c-1.53-.4-4.61-.68-4.61 1.49 0 .96.79 1.38 1.44 1.73.46.24.85.44.85.77 0 .58-.98.53-1.3.5-.26-.03-1.04-.23-1.4-.33l-.43 1.25c.43.1 1.47.31 2.12.31.82 0 2.75-.23 2.75-2.01.01-.39-.24-1.23-1.35-1.53-.35-.1-.87-.36-.87-.76 0-.5.69-.58 1.31-.53.5.03.9.26 1.04.36zM12.02 24l.22-1h1.98L14 24h-1.99zm-.2 1l-1.27 6h1.98l1.27-6H11.8zm2.26 0h1.94l.42 3.54L18.36 25h2.07l-3.55 6.17c-.4.6-1.4 1.83-2.31 1.83-.91 0-1.52-.2-1.72-.3l.42-1.44c.4.2 1.37.46 1.99-.61L14.08 25zm6.86 1.83v-1.38A4.56 4.56 0 0 1 23 25c.93 0 2.52.45 2.52 1.9 0 1.15-.5 3.25-.76 4.1h-1.5l.15-.89c-.37.3-1.27.89-1.94.89-.85 0-1.91-.46-1.91-1.58s1.37-2.12 2.74-2.12h1.47c-.01-.32-.3-.95-1.32-.95s-1.44.32-1.52.48zm2.62 1.52h-.83c-.42 0-1.26.2-1.26.84 0 .81 1.68.3 2.09-.84zm7.94-2.9v1.38c.08-.16.5-.48 1.52-.48s1.3.63 1.32.95h-1.47c-1.37 0-2.75 1-2.75 2.12S31.2 31 32.03 31c.68 0 1.58-.6 1.94-.89l-.14.89h1.5c.25-.85.76-2.95.76-4.1 0-1.45-1.59-1.9-2.52-1.9-.74 0-1.7.19-2.07.45zm1.79 2.9h.82c-.4 1.14-2.08 1.65-2.08.84 0-.65.84-.83 1.26-.84z" fill="#FBFBFB"/><defs><linearGradient id="acl24du0r" x1="10.42" y1="9.71" x2="68.15" y2="76.02" gradientUnits="userSpaceOnUse"><stop stop-color="#1A1E21"/><stop offset="1" stop-color="#06060A"/></linearGradient></defs></svg>