<svg xmlns="http://www.w3.org/2000/svg" width="56" height="56"><path d="M0 28a28 28 0 1156 0 28 28 0 01-56 0z" fill="#0F58D6"/><path d="M17.58 34c.23 0 .42-.19.42-.43v-6.91c0-.24-.19-.66-.43-.66h-7.29a.28.28 0 01-.28-.28v-1.44c0-.15.13-.28.28-.28h2.44c.15 0 .28.13.28.28v.3c0 .23.19.42.42.42h3.15c.24 0 .43-.19.43-.42v-2.16a.42.42 0 00-.43-.42H6.42a.42.42 0 00-.42.43v5.15c0 .23.19.42.43.42h7.29c.15 0 .28.13.28.28v3.44c0 .15-.13.28-.28.28H8.28a.28.28 0 01-.28-.28v-1.3a.42.42 0 00-.43-.42H4.43a.42.42 0 00-.43.42v3.16c0 .23.2.42.43.42h13.15zM25 30.32c0-.04.2-.15.25-.15.02 0 .04 0 .05.02l1.2 1.11 2.78 2.58c.02.02.13.12.3.12h5c.23 0 .42-.19.42-.42v-3.16a.42.42 0 00-.42-.42h-3.6a.43.43 0 01-.29-.12 1042.25 1042.25 0 00-3.11-2.83 457.65 457.65 0 00.7-.8v-.01l.99-1.12a.42.42 0 01.3-.12h4c.24 0 .43-.19.43-.42v-2.15a.42.42 0 00-.42-.42h-4.31c-.16 0-.26.09-.3.12l-3.24 3.51a405.19 405.19 0 01-.48.49c-.04 0-.25-.09-.25-.13v-3.58a.42.42 0 00-.43-.42h-4.15a.42.42 0 00-.42.42v3.15c0 .43.5.43.72.43.15 0 .28.13.28.28v3.44c0 .15-.13.28-.28.28-.24 0-.72 0-.72.42v3.15c0 .24.19.43.42.43h4.15c.24 0 .43-.19.43-.43v-3.25zm17 3.25c0 .24-.16.43-.4.43h-4.18a.42.42 0 01-.42-.43v-3.15c0-.43.4-.43.65-.42h.07c.15 0 .28-.13.28-.28v-3.44a.28.28 0 00-.28-.28c-.24 0-.72 0-.72-.43v-3.15c0-.23.19-.42.42-.42h14.15c.24 0 .43.19.43.42v2.16c0 .23-.2.42-.43.42h-5.14a.42.42 0 01-.43-.42v-.3a.28.28 0 00-.28-.28h-4.44a.28.28 0 00-.28.28v2.44c0 .15.13.28.28.28h1.44c.26 0 .28-.42.28-.58 0-.23.2-.42.43-.42h4.15c.23 0 .42.19.42.42v3.16c0 .23-.19.42-.42.42h-4.15a.42.42 0 01-.43-.42c0-.16 0-.58-.28-.58h-1.44a.28.28 0 00-.28.28v.44c0 .15.13.28.28.28.24 0 .72 0 .72.42v3.15z" fill="#fff"/></svg>