<svg xmlns="http://www.w3.org/2000/svg" width="56" height="56" viewBox="0 0 56 56"><path fill="url(#ac1zpkqqz)" d="M0 0h56v56H0z"/><path fill-rule="evenodd" d="M28 45a17 17 0 1 0 0-34 17 17 0 0 0 0 34zM15 28v.5h3.01a10 10 0 0 0 19.98 0h2a12 12 0 0 1-12.67 11.48v3.89c-.45-.04-1.65-.15-2.83-.36l.9-3.8a12.02 12.02 0 0 1-9.12-9.17l-1.56.39-2.42.63A16.6 16.6 0 0 1 27 12.03v3A13 13 0 0 0 15 28zm26-.5v.5a13 13 0 0 1-12 12.96v3.01a16.6 16.6 0 0 0 14.71-19.53l-2.3.6-1.69.4c-.07-.37-.17-.72-.28-1.07l3.65-1.07a33.6 33.6 0 0 0-1.1-2.63l-3.3 1.88c-.17-.35-.37-.68-.58-1.01l3.25-1.95c-.67-1-1.41-1.94-1.7-2.28l-2.75 2.66c-.26-.3-.53-.57-.82-.84l2.6-2.79c-.92-.76-1.9-1.46-2.26-1.72l-1.9 3.31a12 12 0 0 0-1.12-.64L35.3 14c-1.08-.53-2.19-.97-2.61-1.13l-1.11 3.67c-.35-.11-.72-.2-1.08-.29l.87-3.8c-1.18-.2-2.37-.32-2.82-.35V16H28A12 12 0 0 0 16.01 27.5h2a10 10 0 0 1 19.98 0h3zM23.16 43.14c-.42-.15-1.53-.6-2.61-1.12l1.3-2.03 2.09.91-.78 2.24zm-5.99-3.46c.92.77 1.9 1.47 2.27 1.72l1.27-2.07-1.79-1.37-1.75 1.72zm-.97-.96a33.67 33.67 0 0 1-1.7-2.28l2.15-1.16 1.38 1.76-1.83 1.68zm-3.42-5.99c.4 1.13.9 2.22 1.08 2.62l2.23-1.28-.9-2.05-2.41.71zm12.16-4.23A3.07 3.07 0 0 0 28 31c1.53 0 2.8-1.08 3.05-2.5h-6.1zm6.1-1h-6.1A3.07 3.07 0 0 1 28 25c1.53 0 2.8 1.08 3.05 2.5zM28 19a9 9 0 0 1 8.98 8.5h-1.95a7.01 7.01 0 0 0-14.02 0h-2A9 9 0 0 1 28 19zm-5.88 9.5H24v7.56a9 9 0 0 1-4.99-7.56h3.11zM25 36.49v-5.85a4.01 4.01 0 0 0 6 .03v5.82a8.99 8.99 0 0 1-6 0zm7-.43a9 9 0 0 0 4.99-7.56H32v7.56zm0-8.56h2.02a6.01 6.01 0 0 0-12 0h2.01a4.01 4.01 0 0 1 7.97 0z" fill="#fff"/><defs><linearGradient id="ac1zpkqqz" x1="10.42" y1="9.71" x2="68.15" y2="76.02" gradientUnits="userSpaceOnUse"><stop stop-color="#1A1E21"/><stop offset="1" stop-color="#06060A"/></linearGradient></defs></svg>