<svg width="18" height="18" viewBox="0 0 18 18" xmlns="http://www.w3.org/2000/svg"><path fill="#F0F3FA" d="M0 0h18v18H0z"/><path d="M13.27 4.76 9.02 3 4.76 4.76l4.26 1.6 4.25-1.6Z" fill="#E66F25"/><path d="m11.63 9.03 1.62-4.27-4.26 1.6 2.64 2.67Z" fill="#3A2E7D"/><path d="m9 11.63 4.25 1.6-1.62-4.25L9 11.63ZM9.02 6.37l-4.26-1.6 1.62 4.26 2.64-2.66Z" fill="#EFB41D"/><path d="M4.76 4.76C4.75 4.75 3 9 3 9l1.76 4.24 1.62-4.22-1.62-4.25Z" fill="#E22028"/><path d="m6.38 8.98-1.62 4.25 4.26-1.6-2.64-2.65Z" fill="#EFB41D"/><path d="M4.76 13.23 9.02 15l4.25-1.76-4.25-1.6-4.26 1.6Z" fill="#E22028"/><path d="m13.24 4.76-1.62 4.25 1.62 4.22L15 9.01l-1.76-4.25Z" fill="#E66F25"/></svg>