<svg xmlns="http://www.w3.org/2000/svg" width="56" height="56" viewBox="0 0 56 56"><path fill="#F0F3FA" d="M0 0h56v56H0z"/><path fill-rule="evenodd" d="M19 37.96V32h4v2.87c.01.5.53 1.53 4.9 1.6 4.36.07 5.1-1.04 5.1-1.6V27.9c0-.36-.17-.92-.84-.92H30v7.9c-.54.15-2.29.35-4 0V23h1v-6.4c-4.04.24-4 1.4-4 1.7v3.88c0 .32.02.82.51.82H24v4h-3l-.2-.01c-3.85 1.9-6 5.17-7.07 6.83A15.91 15.91 0 0 0 19 37.96zm-6.46-4.03c2.97 4 8.26 6.75 14.38 7.04a20.85 20.85 0 0 0 5.43-.4C40.19 39.01 46 33.3 46 26.5c0-7.12-6.37-13.04-14.77-14.27-1-.15-2.04-.23-3.1-.23H28c-9.94 0-18 6.5-18 14.5 0 2.69.9 5.2 2.5 7.37l-.02.02.06.04zm.55-.97c1.06-1.62 3.08-4.5 6.47-6.44-.2-.12-.38-.26-.56-.4V26h-7.99l-.01.5c0 2.32.75 4.53 2.09 6.46zM11.1 25H19v-.27a18.01 18.01 0 0 1-5.94-4.66A11.6 11.6 0 0 0 11.11 25zm2.57-5.75A17.3 17.3 0 0 0 19 23.62v-8.58a15.88 15.88 0 0 0-5.32 4.2zM34.2 23H28v-6.43c4-.07 4.89 1.15 5 1.77V21h4v-5.96a15.86 15.86 0 0 1 5.37 4.27 16.96 16.96 0 0 1-5.83 4.57 3.34 3.34 0 0 0-2.33-.88zM37 24.77V25h7.9a11.6 11.6 0 0 0-1.92-4.86A17.93 17.93 0 0 1 37 24.77zM37 26h7.99v.5c0 2.36-.77 4.6-2.15 6.56-.97-1.49-2.8-4.16-5.84-6.12V26zm5.17 7.87l.03.04c-1.34 1.62-3.11 3-5.2 4.05v-9.81c2.7 1.9 4.3 4.37 5.17 5.72zM26 42v5h4v-5c-.7.2-2.5.46-4 0z" fill="#2C62BC"/></svg>