<svg width="56" height="56" viewBox="0 0 56 56" xmlns="http://www.w3.org/2000/svg"><path fill="#F0F3FA" d="M0 0h56v56H0z"/><path d="M36.04 14.16c-.1.04-.17.11-.2.2-.01.1.02.18.1.23a7.04 7.04 0 0 1 3.32 5.58l-5.27.25-.1-.48.09-.3a.41.41 0 0 0-.01-.28 5.63 5.63 0 0 0-1.58-2.3c-.67-.57-1.45-1-2.37-1.28a8.82 8.82 0 0 0-5.53.26c-1.93.75-2.9 1.98-2.89 3.69-.42 2.35.32 3.87 2.22 4.58 1.4.51 2.72.88 3.98 1.09 2.15.36 4.23.88 6.24 1.55a10.6 10.6 0 0 1 5.02 3.42c.28.36.61 1.09.98 2.2.23.95.31 1.94.25 2.96l-.03-.22c-.06-.22-.12-.22-.16 0a8.12 8.12 0 0 1-3.08 4.98c-.07.06-.13.05-.18-.02-.05-.07-.06-.2-.03-.41.35-1.72.23-3.5-.38-5.32-.91-2.56-2.87-4.22-5.88-4.96a56 56 0 0 0-3.6-.8 33.25 33.25 0 0 1-3.73-.85 15.4 15.4 0 0 1-3.5-1.54 7.24 7.24 0 0 1-2.8-3.01c-.1-.18-.22-.25-.4-.21l-.1-.47a15 15 0 0 1-.07-2.23c.05-.8.21-1.51.5-2.16a10.61 10.61 0 0 1 3.58-4.36 15.87 15.87 0 0 1 15.61.2Z" fill="#C48305"/><path d="M20.43 13.95a10.61 10.61 0 0 0-3.58 4.36 6.34 6.34 0 0 0-.5 2.16 15 15 0 0 0 .08 2.23c-.1-.1-.15-.14-.17-.11a13.26 13.26 0 0 0 .37 11.53c.08.15.2.22.37.21l3.88-.18c.06 0 .12.01.17.05.05.05.07.1.08.16a5.33 5.33 0 0 0 1.33 3.1c.67.74 1.55 1.3 2.66 1.66a11.09 11.09 0 0 0 6.5-.09 5.6 5.6 0 0 0 2.2-1.3 3.72 3.72 0 0 0 1.16-2.24 4.1 4.1 0 0 0-1.44-3.65c1.09.7 2.05 1.6 2.9 2.7.6 1.82.73 3.6.37 5.32l-.38 1.84c-1.1.78-2.37 1.36-3.8 1.73a18.1 18.1 0 0 1-7.86.26c-1.09-.2-2.13-.54-3.13-1a16.35 16.35 0 0 1-8.42-8.62A15.4 15.4 0 0 1 12 28.24a16.04 16.04 0 0 1 8.43-14.29Zm-5.56 17.1a.66.66 0 0 0-.3-.47.83.83 0 0 0-.59-.14.82.82 0 0 0-.53.28.65.65 0 0 0-.17.54c.02.2.12.35.3.47.17.12.37.16.58.14.22-.03.4-.13.54-.28.14-.16.2-.34.17-.54Zm-1.13 1.82c.03.12.11.18.24.18.16 0 .35-.07.55-.2.2-.12.35-.19.49-.21.1-.02.17-.07.21-.16v-.08c-.06-.07-.12-.08-.19-.02l-.08.07a.28.28 0 0 1-.17.06c-.55.01-1.03.02-1.44 0-.47 0-.5.1-.09.28.08.04.16.03.24-.02.05-.03.1-.04.15-.01.05.02.08.06.1.11Zm1.56 2.5a3 3 0 0 1-.24-.1c-.2-.08-.24-.03-.13.16.17.26.14.48-.08.65-.08.05-.08.11-.02.18.03.03.07.04.1.02.31-.2.62-.37.93-.54.1-.06.2-.05.28.03l.94.9c.08.07.18.1.28.08.3-.04.6-.1.9-.21.14-.05.14-.08 0-.1a.75.75 0 0 0-.21 0c-.05.01-.1 0-.13-.03a.16.16 0 0 1-.07-.12.93.93 0 0 1 .15-.62c.09-.14.06-.16-.08-.07-.15.09-.29.2-.42.33a.23.23 0 0 1-.28.07.62.62 0 0 1-.3-.28c-.08-.13-.04-.2.1-.22l2.11-.33c.04-.01.05-.02.05-.03v-.07c0-.05-.04-.08-.09-.08-.7-.02-1.38-.02-2.06 0-.15.02-.33-.04-.56-.16l-.27-.13a.58.58 0 0 1-.29-.22c-.31-.47-.7-.85-1.16-1.12a.18.18 0 0 0-.19 0 .18.18 0 0 0-.1.16c0 .13.03.26.11.37.3.42.6.83.92 1.22.26.3.2.4-.19.26Zm3.42 2.25-.16.3a.5.5 0 0 0-.06.26l.05 1.16c.01.15.09.22.24.2.94-.14 1.87-.2 2.8-.16.06 0 .11-.02.15-.06a.19.19 0 0 0 .06-.14l-.07-1.3a.32.32 0 0 0-.22-.3l-1.08-.43a.28.28 0 0 1-.16-.18.53.53 0 0 1 .04-.38c.05-.11.14-.15.25-.12.48.1.8.34.93.68.07.18.12.17.14-.01a.42.42 0 0 0-.08-.31c-.37-.5-.83-.75-1.37-.74-.5 0-.98.2-1.47.62a.53.53 0 0 0-.2.42c0 .19.06.35.2.5Zm15.04.97c0-.08-.03-.11-.12-.1a.58.58 0 0 0-.22.12c-.14.1-.12.17.05.2.18.04.28-.04.29-.22Zm.15.6-.48.15c-.14.04-.2.14-.14.28a.7.7 0 0 1 .03.38c-.1.5.07.6.5.34.15-.09.3-.14.47-.14.1 0 .16-.05.17-.16 0-.34-.1-.6-.32-.8a.23.23 0 0 0-.23-.05Zm-14.43 1.02c.03-.11.1-.2.2-.27.1-.06.21-.09.33-.07.15.03.3.02.44 0 .3-.07.5.05.57.35.05.23.18.35.38.37.16.02.23-.05.22-.2l-.03-.49c0-.19-.1-.28-.3-.28l-2.04.01a.3.3 0 0 0-.27.16.86.86 0 0 0-.06.7c.03.09.08.14.16.17l.1.03c.1.04.17 0 .2-.1l.1-.38Zm12.77.38.02.13c.02.13.1.18.22.15.2-.05.36-.14.52-.29.12-.12.1-.18-.08-.17-.21 0-.44.06-.68.18.12-.28.37-.48.75-.6.07-.02.1-.07.08-.15l-.03-.18c-.03-.12-.09-.14-.18-.07-.5.37-.98.76-1.44 1.18a.12.12 0 0 0-.04.12c.01.05.04.08.08.1l.08.04c.13.08.21.04.23-.11.03-.22.18-.33.47-.33Zm2.47-.47c.24-.07.35-.19.35-.36 0-.12-.05-.16-.17-.13-.2.07-.3.2-.3.4 0 .08.04.11.12.09ZM23.45 42.5c.47-.16.96-.23 1.47-.2.11 0 .2.05.27.13l.19.21c.07.08.16.1.26.06.62-.26.93-.67.92-1.23 0-.18-.1-.43-.31-.74l-.16-.25a.52.52 0 0 0-.39-.27.83.83 0 0 0-.48.07 1.32 1.32 0 0 0-.25-.48.31.31 0 0 0-.25-.11l-2.22.01c-.06 0-.08.04-.08.1l.03.14c0 .03.02.05.06.05l1.01-.11c.19-.02.28.07.27.25l-.04 1.3c0 .06-.04.1-.1.1l-1.41.02c-.1 0-.13.05-.12.14.1.54.4.9.9 1.08.09.03.18.03.26-.01.12-.06.18-.15.17-.26Zm11.21-2.14c-1.12.35-2.2.69-3.25 1a.23.23 0 0 0-.17.18c-.03.1 0 .18.09.24.1.08.2.12.32.13 1 .05 1.99.14 2.94.28.14.02.24-.03.32-.15a6 6 0 0 1 1.31-1.56c.63-.54.55-.7-.26-.5l-1.3.38Zm-14.97.5 1.11-.02c.09 0 .12-.05.12-.13v-.03c0-.16-.06-.3-.17-.4a.53.53 0 0 0-.4-.17h-.23a.57.57 0 0 0-.55.58v.05c0 .08.04.12.12.12Zm11.2.43.1-.13c.12-.13.1-.23-.07-.3l-1.74-.72a.4.4 0 0 0-.36.01l-1.67.84c-.1.06-.14.14-.1.26.03.09.08.17.14.24.08.07.12.17.12.28-.03.48-.01 1 .04 1.59 0 .09.05.13.13.14l.1.02c.08 0 .12-.03.12-.12v-1.17c0-.2.11-.3.31-.32l2.15-.12c.22 0 .34.1.34.32l.04 1.06c0 .09.05.13.13.13h.13c.1 0 .16-.06.15-.17l-.16-1.56c0-.1.02-.2.1-.28Zm-2.1.85a.5.5 0 0 0-.25-.07c-.12 0-.18.07-.17.18 0 .19.07.34.2.45.09.09.18.08.26-.02.1-.11.12-.24.08-.4a.23.23 0 0 0-.11-.14Zm.37.15c.07.34.24.44.5.31.12-.07.17-.18.14-.36-.03-.16-.12-.23-.29-.22l-.16.02c-.16 0-.22.1-.19.25Zm-.5.9a.88.88 0 0 0-.4-.27c-.18-.06-.25 0-.22.18l.05.27c.03.13.1.18.23.16a.48.48 0 0 0 .3-.16c.06-.07.13-.08.2-.02.11.08.24.12.37.12.09 0 .15-.04.19-.12a.32.32 0 0 0-.04-.35.25.25 0 0 0-.24-.1.35.35 0 0 0-.31.27c-.03.08-.07.1-.12.03Zm1.6-.1a.25.25 0 0 0-.13-.18.34.34 0 0 0-.24-.04.35.35 0 0 0-.22.1.25.25 0 0 0-.07.22c.01.07.05.13.12.18.07.04.15.06.25.05a.35.35 0 0 0 .22-.12.25.25 0 0 0 .07-.2Z" fill="#474746"/><path d="M36.04 14.16a16.5 16.5 0 0 1 6.04 6.21 15.76 15.76 0 0 1 1.9 8.38 15.6 15.6 0 0 1-5.5 11.34.3.3 0 0 1-.17-.04c-.1-.06-.1-.13-.02-.2a7.26 7.26 0 0 0 2-4.32c.06-1.02-.02-2-.25-2.97 1.4-3.92 1.06-7.7-1.04-11.34.44-.05.52-.4.26-1.05a7.04 7.04 0 0 0-3.32-5.58c-.08-.05-.11-.13-.1-.22.03-.1.1-.17.2-.21Z" fill="#DC9812"/><path d="M33.88 19.94c-1.38-2.55-3.61-3.74-6.67-3.56-1.14.06-2.2.33-3.16.8a5.34 5.34 0 0 0-2.45 2.55c0-1.71.96-2.94 2.9-3.69a8.82 8.82 0 0 1 5.52-.26c.92.28 1.7.7 2.37 1.28a5.63 5.63 0 0 1 1.58 2.3c.03.09.03.18 0 .27l-.09.31ZM39.26 20.17c.26.65.18 1-.26 1.05l-4.7.16c-.1 0-.16-.04-.18-.15l-.13-.81 5.27-.25ZM16.52 23.17c.18-.04.3.03.4.2a7.24 7.24 0 0 0 2.8 3.02c1 .62 2.16 1.13 3.5 1.54 1.01.3 2.25.6 3.73.86 1.04.19 2.24.45 3.6.79 3 .74 4.97 2.4 5.88 4.96-.84-1.1-1.8-2-2.9-2.7a12.1 12.1 0 0 0-4.09-1.61l-3.98-.8c-1.56-.31-3.07-.79-4.53-1.43a9.96 9.96 0 0 1-1.85-1.07 6.54 6.54 0 0 1-2.56-3.76ZM40.29 35.53a7.26 7.26 0 0 1-2 4.31c-.08.08-.07.15.02.2.05.04.1.05.17.05l-2.05 1.6.38-1.83c-.03.2-.02.34.03.4.05.08.11.09.18.03a8.11 8.11 0 0 0 3.08-4.98c.04-.22.1-.22.16 0l.03.22Z" fill="#835908"/><path d="M18.72 37.62v-.1c-.01-.21.04-.4.17-.58.12-.17.29-.29.5-.35.45-.13.64-.01.56.36-.02.13.03.22.16.25.27.07.39.3.34.7-.01.06-.05.09-.12.06a1.21 1.21 0 0 0-.43-.08.1.1 0 0 1-.08-.04.1.1 0 0 1-.02-.1c.07-.25.04-.42-.08-.48-.08-.05-.17-.04-.24.03-.22.2-.47.31-.76.33ZM25.22 40.28c.16.2.26.47.28.77.01.11.07.18.18.2l.5.08c.1.02.18.07.22.16.04.09.04.18 0 .26-.1.19-.25.26-.46.23a.35.35 0 0 1-.28-.23c-.01-.04-.04-.05-.08-.05-.07 0-.1.03-.08.1.03.12.11.21.25.26.11.05.16.13.15.24 0 .07-.04.13-.1.17-.18.13-.31.09-.39-.13a.61.61 0 0 0-.3-.36c-.13-.06-.17-.15-.15-.28.02-.1.03-.26.02-.49 0-.23.01-.4.03-.51.03-.18.1-.32.21-.42ZM28.73 41.22c-.02-.08 0-.15.08-.19a.4.4 0 0 1 .41.01c.09.05.12.12.12.21a.2.2 0 0 1-.13.2c-.25.11-.4.03-.48-.23ZM30.43 41.23c.01.07-.02.12-.09.14-.22.08-.39.04-.5-.1-.11-.14-.08-.23.08-.28.3-.09.47 0 .51.24ZM27.89 41.04c.14 0 .25.04.35.1.06.05.08.11.07.19a.16.16 0 0 1-.13.14.9.9 0 0 1-.35.02c-.12-.02-.18-.09-.19-.2 0-.08.04-.15.12-.2a.24.24 0 0 1 .13-.05ZM34.55 41.52c.03.08 0 .13-.07.17-.18.1-.33.06-.46-.1a.25.25 0 0 1-.03-.26.4.4 0 0 1 .19-.22c.05-.03.1-.03.16-.01.05.02.09.06.1.11l.11.3ZM23.45 42.5c-.2.1-.37.11-.53.04a.23.23 0 0 1-.14-.21c0-.12.05-.22.16-.29.1-.06.2-.06.3 0 .14.07.2.23.2.46Z" fill="#474746"/></svg>