<svg width="56" height="56" viewBox="0 0 56 56" xmlns="http://www.w3.org/2000/svg"><path fill="#F0F3FA" d="M0 0h56v56H0z"/><path d="M26.83 12.59a15.27 15.27 0 0 0-11.96 7.23h-.03l-1.26-.74c-.02-.01-.03-.03-.02-.05a16.87 16.87 0 0 1 13.3-8.01c.1 0 .14.04.14.14v1.28c0 .1-.07.14-.17.15ZM40.99 19.6a15.59 15.59 0 0 0-12.41-7.04c-.07 0-.1-.04-.1-.1V11.1c0-.07.04-.1.1-.1a17.08 17.08 0 0 1 13.74 7.85v.04c0 .01 0 .02-.02.03-.4.28-.81.52-1.24.71-.03.01-.06 0-.07-.02Z" fill="#E93438"/><path d="M19.94 20.18c-.32.59-.72 1.68-1.63 1.27-.66-.29-1.1-.63-1.34-1.02-.67-1.1.48-2.53 1.31-3.25a15.12 15.12 0 0 1 6.43-3.33c.66-.15 1.32-.2 1.98-.14.19.01.2.07.03.16-.82.44-1.62.85-2.37 1.37a14.18 14.18 0 0 0-4.4 4.94ZM36.01 18c-1.92-.72-4-.9-6.08-.84-.46.01-.97-.07-1.07-.6-.67-3.5 2.79-2.77 4.6-2 2.3 1 5.17 2.89 6.25 5.23.09.19.05.22-.12.1A16.23 16.23 0 0 0 36 18Z" fill="#0088CB"/><path d="M43.41 29.1a15.43 15.43 0 0 0-1.67-8.22l.02-.03 1.26-.72c.02-.01.04 0 .05.01a16.99 16.99 0 0 1-.06 15.83c-.05.1-.12.12-.22.07l-1.03-.61c-.1-.06-.13-.15-.07-.25 1-1.9 1.57-3.92 1.72-6.08ZM14.18 35c.05.1.03.18-.07.24l-1.03.6c-.08.04-.15.02-.2-.07a17 17 0 0 1 0-15.49.05.05 0 0 1 .03 0l1.25.73c.02.01.03.03.02.06a15.6 15.6 0 0 0 0 13.93Z" fill="#E93438"/><path d="M15.16 24.35c.1 2.8 1.13 5.1 2.6 7.56.27.46.2.85-.2 1.18-2.06 1.61-3.3-.05-3.7-1.95-.5-2.34-.43-4.71.21-7.12.2-.72.53-1.45.97-2.06.1-.14.15-.13.14.05-.05.79-.05 1.57-.02 2.34ZM41.71 32.67c-.18.52-.43.99-.74 1.4-.13.19-.19.17-.17-.05.18-2.42-.07-4.82-1.05-7.03-.42-.96-.92-1.91-1.51-2.86-.58-.94.77-1.61 1.42-1.76 2.13-.5 2.67 2.99 2.76 4.37.13 2.01-.04 4.06-.7 5.93Z" fill="#0088CB"/><path d="M23.53 30c.48-.14.74-.82.07-1-.98-.24-2.36-.4-2.4-1.64-.01-.75.63-1.23 1.34-1.32 1.05-.14 2.2.1 2.36 1.3a.1.1 0 0 1-.02.09.1.1 0 0 1-.08.03l-.8.04a.13.13 0 0 1-.14-.1c-.1-.62-.91-.6-1.26-.44-.36.17-.42.68.12.8.47.11.9.24 1.3.37 1 .34 1.38 1.46.7 2.26-.6.71-2.12.77-2.88.32a1.67 1.67 0 0 1-.8-1.3.12.12 0 0 1 .06-.08l.05-.01.68-.05c.1-.01.16.03.19.12.23.68 1.02.74 1.5.6ZM32.12 30h2.27a.1.1 0 0 1 .08.04.1.1 0 0 1 .03.07v.78a.1.1 0 0 1-.03.07.1.1 0 0 1-.08.03l-3.28.01a.1.1 0 0 1-.08-.03.1.1 0 0 1-.03-.08v-4.78a.1.1 0 0 1 .03-.08.1.1 0 0 1 .07-.03h.81c.06 0 .09.05.09.1v3.8c0 .03.03.06.05.08.02.02.04.02.07.02Z" fill="#616061"/><path fill-rule="evenodd" d="M27 30.9V29.4c0-.1.05-.14.14-.14.47.03.93.02 1.36-.04 1.8-.23 1.75-3.14-.18-3.19-.84-.02-1.57-.02-2.2-.02-.07 0-.11.04-.11.12v4.78a.1.1 0 0 0 .09.1h.8c.07 0 .1-.03.1-.1Zm0-3.83a.1.1 0 0 0 0 .04v1.06c0 .03.02.06.04.07.02.02.05.03.08.03h.87a.8.8 0 0 0 .54-.18.61.61 0 0 0 .17-.19.49.49 0 0 0 .05-.23v-.08a.54.54 0 0 0-.22-.42.88.88 0 0 0-.54-.17h-.87a.12.12 0 0 0-.09.03.1.1 0 0 0-.02.04Z" fill="#616061"/><path d="M37.48 39a14.6 14.6 0 0 1-7.1 3.33c-.35.04-.78.02-1.13-.04-.2-.03-.2-.08-.02-.17 2.64-1.2 4.7-2.98 6.19-5.35.38-.6.74-1.2 1.06-1.8.22-.4.53-.54.93-.44.75.2 1.72.86 1.74 1.73 0 1.06-.9 2.08-1.67 2.75ZM16.35 36.07a14.65 14.65 0 0 0 9.37 2.72c.46-.01 1.2-.03 1.33.57.15.67.11 1.26-.1 1.78-.66 1.53-3.25.77-4.33.31a14.94 14.94 0 0 1-5.56-3.92 4.63 4.63 0 0 1-.83-1.36c-.07-.17-.03-.2.12-.1Z" fill="#0088CB"/><path d="M26.95 44.99a16.84 16.84 0 0 1-13.28-7.87 8 8 0 0 1 1.25-.73h.04a15.5 15.5 0 0 0 12 7.09c.03 0 .04.02.04.05v1.42c0 .03-.02.04-.05.04ZM42.21 37.34A17.02 17.02 0 0 1 28.53 45c-.03 0-.05-.02-.05-.05v-1.39c0-.03.02-.05.05-.06a15.57 15.57 0 0 0 12.37-6.93c.02-.02.04-.03.07-.01l1.23.72c.03.02.03.04.01.06Z" fill="#E93438"/></svg>