<svg width="56" height="56" viewBox="0 0 56 56" xmlns="http://www.w3.org/2000/svg"><path fill="#F0F3FA" d="M0 0h56v56H0z"/><path fill-rule="evenodd" d="M16.25 32h-2.28v-.3h.12c.26 0 .49-.16.56-.39L17.07 24h.74l2.1 7.23c.07.23.3.39.57.39h.03V32H18.2v-.3c.46 0 .8-.4.68-.8l-.4-1.4h-2.64l-.44 1.29c-.15.45.23.9.75.9h.1V32Zm1.03-6.79L18.35 29H16l1.27-3.79Zm-9.86.59h.45v-1.4c-.16-.14-.72-.4-1.7-.4-1.2 0-2.17.72-2.17 2.01 0 1.3 1.23 2.04 1.66 2.24.42.2 1.5.83 1.5 1.8 0 .98-.68 1.4-1.4 1.4-.73 0-1.32-.68-1.32-1.4H4v1.5c.27.15 1 .45 1.76.45C6.7 32 8 31.53 8 29.85c0-1.43-1.25-2.15-1.81-2.47-.1-.06-.19-.1-.23-.14a2.42 2.42 0 0 0-.18-.12c-.35-.22-.88-.55-.88-1.44 0-1.07 1.03-1.16 1.28-1.16.24 0 1.24.2 1.24 1.28Zm1.24.17h.38v-.6c0-.5.44-.91.98-.91H11v6.84c0 .2-.2.37-.42.37h-.27V32h2.34v-.33h-.27c-.21 0-.38-.17-.38-.37v-6.84h.99c.54 0 1.01.4 1.01.9v.61h.37V24H8.66v1.97ZM28 26h-.33v-2h5.68v2H33v-.64c0-.5-.5-.9-1.03-.9H31v6.84c0 .2.17.37.39.37h.26V32h-2.34v-.33h.28c.22 0 .41-.17.41-.37v-6.84h-.97c-.54 0-1.03.4-1.03.9V26Zm-4.43 6h-2.11v-.35h.14c.22 0 .4-.16.4-.36v-6.56c0-.2-.18-.35-.4-.35h-.14V24h2.53c1.37 0 2.48 1.02 2.48 2.27 0 .98-.68 1.8-1.64 2.1.39.16.63.47.72.65l1.12 2.24c.13.25.4.42.71.42h.06V32h-1.48l-1.38-2.8a1.56 1.56 0 0 0-.74-.7H23v2.8c0 .2.17.35.38.35h.2V32ZM23 24.47h.54c1.07 0 1.94.8 1.94 1.77 0 .98-.87 1.76-1.94 1.76H23v-3.53ZM39.27 30h-.38l-.14.68c-.1.51-.58.89-1.15.89H36V28h1.16c.43 0 .84.31.84.71v.13h.38v-2.19H38v.2c0 .4-.4.65-.84.65H36v-3h1.39c.75 0 1.37.44 1.37 1.13v.09h.5V24H34.4v.29h.08c.33 0 .53.24.53.54v6.42c0 .3-.2.54-.53.54h-.08V32h4.72l.16-2ZM45 26h-.52c0-.86-.76-1.55-1.37-1.55-.6 0-2.11.45-2.11 3.12s.66 3.93 1.95 3.93c1.04 0 1.39-1 1.43-1.5H45v1.62c-.19.13-.86.38-1.69.38-1.47 0-3.31-.44-3.31-3.82S41.98 24 43.31 24c1.07 0 1.57.3 1.69.45V26Zm1.37-2v.31h.27c.22 0 .36.16.36.36v6.66c0 .2-.14.36-.36.36h-.27V32h2.29v-.31h-.21c-.22 0-.45-.16-.45-.36v-3.3c.65.01.94.34 1 .51l1.65 2.58c.15.24-.03.54-.34.54h-.16V32H53v-.34h-.87c-.37-.64-1.1-1.74-1.63-2.53l-.59-.9c-.18-.32-.45-.6-.56-.7l2.53-3.2h.54V24h-2.27v.32h.24c.33 0 .5.34.32.58l-2.2 2.72H48v-2.95c0-.2.23-.36.45-.36h.21V24h-2.3Z"/></svg>