<svg width="56" height="56" viewBox="0 0 56 56" xmlns="http://www.w3.org/2000/svg"><path fill="#F0F3FA" d="M0 0h56v56H0z"/><path d="M47.52 28.01c.35-.09.63-.2.83-.34.2-.14.38-.3.52-.5h-6.35v.88h5.1l-.1-.04Zm-.68-1.72a.62.62 0 0 1-.39.27c-.2.05-.36.09-.48.1h3.2c.11-.26.18-.55.2-.87h-2.38c0 .18-.05.35-.15.5Zm-2.02-1.38h1.05c.43 0 .73.07.89.22a.7.7 0 0 1 .1.15h2.5c-.02-.33-.1-.62-.22-.88h-6.62v.88h2.3v-.37ZM34 24.4h-7.5v.88H34v-.88Zm-12.3.42c.13-.13.34-.2.62-.2.33 0 .6.1.79.27.1.1.18.23.25.39h2.32a3.38 3.38 0 0 0-.28-.88h-5.83c-.14.28-.23.57-.26.88h2.18c0-.18.07-.33.2-.46Zm7.3 6.01h2.5V30H29v.83Zm13.52 0h2.3V30h-2.3v.83Zm6.61-.83h-2.72l.42.83h2.7l-.4-.83Zm-1.05-6.64c-.39-.14-.95-.36-1.68-.36h-3.88v.89h6.3c-.2-.25-.45-.42-.74-.53ZM42.52 32h2.3v-.66h-2.3V32Zm7.25-.66h-2.7l.25.66H50l-.23-.66Zm-10.67 0 .13.66h2.5l-.18-.66H39.1ZM29 32h2.5v-.66H29V32Zm5-9h-7.5v.89H34V23Zm-9.2.62a3.52 3.52 0 0 0-2.24-.62c-.8 0-1.43.11-1.9.34-.29.15-.54.33-.74.55h5.15c-.08-.1-.17-.19-.27-.27ZM38.84 23h-2.6l-.24.89h3.08l-.24-.89Zm-5.49 9h2.43l.13-.66h-2.39l-.17.66Zm-10.78 0c.74 0 1.36-.12 1.85-.36.17-.09.32-.19.47-.3h-4.83c.53.44 1.36.66 2.51.66Zm18.06-3.38h-6.19l-.29.82h6.77l-.29-.82Zm1.89.82h2.3v-.82h-2.3v.82Zm-4.67-2.78H40l-.29-.87h-2.1l.24.87Zm-14.46 3.36c-.19.18-.45.27-.79.27-.36 0-.65-.07-.88-.29H19.2c.1.32.24.57.42.83h5.78c.06-.08.12-.17.17-.27.12-.2.2-.35.27-.56h-2.38l-.06.02Zm25.46-.69c-.06-.12-.17-.3-.34-.54-.06-.09-.11-.1-.16-.16h-2.7c.12.11.25.26.4.56l.11.25h2.74l-.05-.1Zm-4.03-3.54h-2.3v.87h2.3v-.87ZM41.09 30H34l-.3.83h2.36l.1-.41h2.7l.11.41h2.42L41.1 30Zm-1.84-5.6h-3.42l-.3.88h4.01l-.29-.88Zm-14.76 2.26c-.46-.22-1.13-.44-2.03-.66-.29-.07-.5-.14-.64-.21H19.3c.03.32.1.61.24.87h4.95Zm-1.43 1.96c.15.08.27.1.34.17.18.17.26.38.26.6v.05h2.29a3.27 3.27 0 0 0-.01-.82h-2.88ZM29 26.66h2.5v-.87H29v.87ZM38.22 28h2.24l-.29-.82H38l.23.82ZM29 29.44h2.5v-.82H29v.82Zm-7.68-.48-2.32.01c.01.16.04.32.06.47h2.34c-.07-.17-.05-.23-.08-.48ZM29 28h2.5v-.82H29V28Zm8.03-.82h-2.12l-.3.82h2.19l.23-.82Zm-11.8 0h-5.32l.05.05c.33.32.82.54 1.46.77h4.39c-.04-.11-.09-.16-.14-.27a2.2 2.2 0 0 0-.43-.55Zm12.18-1.4h-2.04l-.3.88h2.1l.24-.87Z" fill="#1C63B7"/><path d="m17.84 14-3.6 7.32-7.24.94 4.72 5.57-1.14 8.13 6.62-3.51L22.38 36l.77-.34-5.96-4.96-5.03 2.7 1.3-5.96-3.6-4.25 5.3-.73 2.64-5.3 3.28 5.9.43-.4L17.84 14Z" fill="#1C63B7"/></svg>