<svg width="56" height="56" viewBox="0 0 56 56" xmlns="http://www.w3.org/2000/svg"><path fill="#F0F3FA" d="M0 0h56v56H0z"/><path d="M44.95 28.06c-1.17.22-2.01.71-3.39.04a13.16 13.16 0 0 0-4.46-10.17 13.42 13.42 0 0 0-10.13-3.53 13.34 13.34 0 0 0-7.38 2.74c-1.04.8-1.95 1.74-2.75 2.8a14.66 14.66 0 0 0-1.92 3.54c-.45 1.2-.7 2.7-.72 4.54L11 28c-.04-3.66 1-6.96 3.15-9.9a17.4 17.4 0 0 1 5.51-4.97 16.1 16.1 0 0 1 7.08-2.1c5.4-.31 9.96 1.47 13.67 5.37a16.06 16.06 0 0 1 4.54 11.66Z" fill="#115EAA"/><path d="m28.28 12.95.15.28c.06.11.03.15-.1.13-.21-.05-.4-.06-.6-.04-.11.02-.14-.02-.07-.12.17-.23.23-.54.2-.92a.26.26 0 0 0-.1-.2.6.6 0 0 1-.07-.06c-.12-.12-.1-.17.07-.16l1.38.08c.09 0 .15.05.18.13.12.29.04.49-.25.59a.13.13 0 0 0-.09.1c0 .06.02.1.06.13l.44.3c.1.08.1.12-.03.15-.38.07-.67-.07-.86-.42a.25.25 0 0 0-.2-.13c-.14-.02-.18.03-.11.16ZM26.52 12.45a.23.23 0 0 1 .22-.04c.06.02.1.06.1.12.03.11.01.21-.04.3-.03.07-.07.07-.12.03a.23.23 0 0 0-.24-.06.12.12 0 0 0-.1.11c0 .09.02.17.1.24.07.06.14.07.22.02l.6-.39c.09-.06.13-.03.12.08 0 .1-.03.22-.07.32a.24.24 0 0 1-.22.15l-1.2.1c-.1.01-.12-.02-.08-.1.2-.4.16-.8-.13-1.2-.06-.07-.04-.11.06-.13.36-.04.72-.07 1.07-.08.26 0 .4.11.44.36 0 .03 0 .05-.02.07a.07.07 0 0 1-.07 0l-.53-.2a.23.23 0 0 0-.26.04c-.05.05-.08.1-.07.17.02.16.1.19.22.1ZM30.67 13a1 1 0 0 0 .19-.31c.02-.05.04-.1.07-.13.08-.11.08-.2-.02-.28-.14-.11-.13-.16.04-.13l.46.06c.1.02.13.07.07.15l-.81 1.13a.22.22 0 0 1-.23.1.21.21 0 0 1-.18-.16l-.47-1.34c-.03-.08 0-.12.09-.1l.56.1c.1.01.12.06.08.15a.13.13 0 0 1-.05.06c-.07.04-.1.1-.08.17l.12.5c.03.1.08.12.16.03Z" fill="#fff"/><path d="M28.58 12.52c.18 0 .32-.1.32-.22 0-.11-.15-.2-.33-.2-.18 0-.33.1-.33.21 0 .12.16.2.34.2Z" fill="#115EAA"/><path d="m24.99 13.13-.76-.08a.33.33 0 0 1-.23-.11.33.33 0 0 1-.09-.24c0-.19.11-.32.32-.4a2.42 2.42 0 0 1 .67-.13c.13-.01.23.03.3.15.04.08.05.17.02.26-.02.08-.07.1-.15.05-.19-.13-.39-.2-.6-.19-.09 0-.14.05-.16.13l-.02.07c-.01.05 0 .08.06.09l.78.06c.12.01.22.07.28.18.07.1.07.21.02.33a.53.53 0 0 1-.32.3c-.09.03-.24.06-.44.07-.19.02-.32.04-.4.07-.08.02-.13 0-.16-.08l-.11-.32c-.05-.13 0-.17.13-.12l.6.24c.1.04.19.02.26-.06l.07-.08a.11.11 0 0 0 .02-.12.11.11 0 0 0-.1-.07ZM31.84 12.5a.2.2 0 0 1-.06-.06v-.06c.01-.02.03-.03.06-.02l.68.2c.1.02.1.07.03.13-.33.3-.43.67-.3 1.13.02.1-.01.13-.1.1l-.65-.15c-.1-.02-.1-.06-.02-.12.28-.17.43-.5.45-.99a.17.17 0 0 0-.1-.17ZM33.31 14.05c.2.16.44.18.7.08.08-.02.14 0 .17.07l.02.07-.01.03c-.52.27-.97.19-1.36-.26a.62.62 0 0 1-.06-.77c.07-.11.17-.2.3-.26.13-.07.27-.1.42-.08.27.03.54.12.83.25.06.03.09.08.09.14a.9.9 0 0 1-.08.43.09.09 0 0 1-.07.05c-.04 0-.06 0-.09-.04a.87.87 0 0 1-.16-.3.31.31 0 0 0-.13-.18c-.2-.12-.38-.11-.57.04a.44.44 0 0 0-.17.36c0 .15.05.28.17.37ZM21.73 14.28c-.07-.43-.23-.72-.47-.84-.1-.06-.1-.1 0-.15l.6-.22c.14-.06.18-.02.12.12-.11.25-.05.54.2.88.05.08.11.1.2.06.17-.08.28-.24.32-.47.03-.15.08-.16.17-.03.08.13.1.27.06.43a.25.25 0 0 1-.15.16l-1.01.42c-.14.05-.18.01-.12-.13l.07-.14a.14.14 0 0 0 0-.09ZM35.48 14.06c-.06-.03-.1-.02-.13.05l-.03.08c-.02.07 0 .1.07.13l.2.06c.12.04.15.1.1.21a.5.5 0 0 1-.18.18c-.1.06-.15.04-.19-.06a.35.35 0 0 0-.06-.12c-.08-.1-.15-.09-.21 0a.26.26 0 0 0-.03.27c.02.06.06.1.12.12.21.09.44.09.66 0 .15-.05.19 0 .12.14a.54.54 0 0 1-.3.28.24.24 0 0 1-.25-.03c-.31-.23-.64-.4-1-.53-.08-.03-.09-.08-.01-.13.23-.17.44-.45.62-.82a.17.17 0 0 0-.02-.19.14.14 0 0 1-.03-.08c0-.1.05-.13.14-.08l.92.49c.1.05.17.13.22.23a.4.4 0 0 1 0 .32.08.08 0 0 1-.08.06.09.09 0 0 1-.08-.04 1.73 1.73 0 0 0-.57-.54ZM20.8 14.85a.85.85 0 0 0 .34-.55c.02-.13.07-.14.15-.03.09.12.11.27.08.45a.27.27 0 0 1-.14.18c-.31.18-.63.36-.96.53-.19.09-.22.05-.09-.11a.2.2 0 0 0 .04-.17c-.08-.43-.28-.7-.6-.84-.11-.05-.11-.1 0-.17l.55-.31c.1-.05.13-.03.11.07-.05.29.08.6.38.94.04.05.1.05.15.01Z" fill="#fff"/><path d="M41.56 28.1c-.06 1.55-.2 2.7-.4 3.42a14.75 14.75 0 0 1-4.56 7 13.29 13.29 0 0 1-7.75 3.08c-4.5.26-8.25-1.28-11.24-4.6a12.79 12.79 0 0 1-2.54-4.17 15.56 15.56 0 0 1-.87-4.81c.03-1.83.27-3.34.72-4.54a14.66 14.66 0 0 1 4.67-6.34 13.38 13.38 0 0 1 7.38-2.74c3.88-.22 7.26.95 10.13 3.53a13.16 13.16 0 0 1 4.46 10.17Z" fill="#F8F410"/><path d="M41.24 27.93a13.22 13.22 0 0 1-3.92 9.46 13.27 13.27 0 0 1-9.48 3.91 13.3 13.3 0 0 1-9.47-3.91 13.24 13.24 0 0 1-3.93-9.46 13.22 13.22 0 0 1 3.93-9.45 13.27 13.27 0 0 1 9.47-3.92 13.3 13.3 0 0 1 9.48 3.92 13.24 13.24 0 0 1 3.92 9.45Z" fill="#00A757"/><path d="M36.9 15.03c.12.24.26.47.43.69.2.25.15.45-.12.6a.47.47 0 0 1-.53-.06l-.6-.5c-.09-.08-.1-.16-.04-.25l.16-.26c.06-.09.11-.08.15.02l.18.55c.03.1.1.16.22.17l.21.03c.1 0 .11-.03.06-.1l-.54-.77c-.08-.1-.07-.2.01-.3.14-.18.32-.22.53-.14.12.05.3.17.5.36l.14.1c.05.05.08.1.09.16.01.06 0 .12-.03.18-.07.14-.15.17-.24.11a.16.16 0 0 1-.06-.09.95.95 0 0 0-.45-.57c-.03-.02-.05-.02-.07 0-.02.02-.02.05 0 .07ZM19 16.03a.1.1 0 0 1 .07.03c.06.07.06.13-.02.18l-.42.29c-.07.05-.1.03-.1-.06.04-.3.02-.59-.05-.87-.22-.86.04-1.04.78-.54.22.15.45.26.7.35.14.04.15.1.03.18l-.51.36c-.1.07-.13.05-.11-.06l.02-.1c.02-.16-.04-.21-.19-.18a.5.5 0 0 0-.3.22c-.08.12-.04.19.1.2ZM40.89 27.93a12.86 12.86 0 0 1-3.82 9.2 12.92 12.92 0 0 1-9.22 3.81 12.95 12.95 0 0 1-9.23-3.8 12.89 12.89 0 0 1-3.82-9.2 12.87 12.87 0 0 1 3.82-9.21 12.92 12.92 0 0 1 9.23-3.81 12.95 12.95 0 0 1 9.22 3.81 12.88 12.88 0 0 1 3.82 9.2Z" fill="#fff"/><path d="M27.4 17.19c.04-.08.08-.15.14-.21.1-.11.15-.1.16.05a.53.53 0 0 1-.32.58.36.36 0 0 1-.28.02.35.35 0 0 1-.22-.19 2.13 2.13 0 0 1-.08-1.64c.04-.11.11-.2.22-.24a.37.37 0 0 1 .33.03c.2.12.29.3.28.54 0 .04-.02.07-.06.08-.04.01-.07 0-.1-.03l-.2-.25a.14.14 0 0 0-.15-.05.14.14 0 0 0-.11.1c-.14.44-.13.83.02 1.19.1.26.23.26.36.02ZM28.73 17.15l.08-1.44c0-.07.04-.1.11-.1h.07c.05 0 .07.03.07.09L29 17.1c0 .2-.06.35-.17.47-.13.13-.29.15-.48.06a.4.4 0 0 1-.25-.34 5.4 5.4 0 0 1 .04-1.6c.01-.06.04-.09.1-.08l.07.01c.04 0 .06.03.06.07l-.04 1.5c0 .08.04.12.12.12h.11c.11 0 .17-.05.17-.16ZM25.78 16.92c-.05.02-.07.06-.06.12l.06.33c.02.09.08.12.17.1a1 1 0 0 1 .43-.06c.07.01.1.05.13.1.03.11-.01.17-.12.2l-.57.13c-.13.03-.2-.02-.22-.14l-.3-1.67c-.02-.13.03-.21.16-.24l.56-.13c.04 0 .07 0 .1.03.04.02.05.06.05.1v.08c0 .1-.05.15-.15.17l-.34.06a.13.13 0 0 0-.09.06.12.12 0 0 0 0 .1l.07.22c.03.06.07.08.13.07l.3-.05c.08-.01.13.02.16.1l.02.07c.01.04 0 .08-.02.12a.14.14 0 0 1-.12.06.7.7 0 0 0-.35.07ZM29.62 17.15c-.05.18-.07.35-.05.52 0 .06-.03.1-.1.1l-.1-.01a.09.09 0 0 1-.08-.1l.3-1.78c.01-.1.08-.16.19-.16a.8.8 0 0 1 .45.1c.11.07.2.17.23.29.05.12.05.25.01.38a.86.86 0 0 1-.24.38.22.22 0 0 0-.07.21l.12.73c.01.08-.02.12-.1.11-.05 0-.08-.02-.1-.06l-.2-.7c-.08-.33-.17-.33-.26 0ZM24.47 16.4a.1.1 0 0 0-.12 0 .1.1 0 0 0-.06.1l.01.12c0 .04.02.08.05.1.04.04.07.06.12.06.55.03.8.34.77.93 0 .14-.06.24-.18.32a.38.38 0 0 1-.36.04c-.24-.09-.38-.27-.4-.55-.01-.04.01-.08.08-.1h.07c.02.02.04.04.04.07.03.14.11.21.24.23.09 0 .15-.03.2-.1a.24.24 0 0 0 0-.26.3.3 0 0 0-.22-.14c-.48-.08-.7-.37-.65-.87a.36.36 0 0 1 .17-.28c.1-.06.21-.07.33-.03.18.07.3.2.37.39.06.17.01.2-.15.13l-.31-.16ZM31.12 16h-.01a.1.1 0 0 0-.14.08l-.46 1.83a.1.1 0 0 0 .22.06l.47-1.83a.1.1 0 0 0-.08-.14Z" fill="#F16134"/><path d="M29.78 16.18c0-.03.02-.04.04-.05a.33.33 0 0 1 .2-.03c.11.02.19.09.22.2.03.12 0 .21-.09.3-.08.06-.18.07-.3.04-.1-.02-.13-.08-.11-.18l.04-.28Z" fill="#fff"/><path d="M31.9 16.8c-.1.5-.25.96-.45 1.43-.01.02-.03.03-.06.03h-.08c-.08 0-.1-.05-.08-.13l.44-1.3a.25.25 0 0 0-.04-.24l-.18-.23c-.03-.05-.03-.1 0-.16.04-.05.1-.07.15-.04l.63.22c.06.03.11.07.14.13.02.06.01.12-.03.18a.14.14 0 0 1-.12.06c-.05 0-.1 0-.14-.03-.1-.05-.16-.02-.18.09ZM22.88 17.29l-.06-.58c-.01-.07.02-.1.08-.12l.1-.02c.1-.01.13.02.13.11a3 3 0 0 0 .33 1.82c.02.03.02.05 0 .07l-.06.05c-.07.05-.12.04-.15-.03a3.9 3.9 0 0 0-1.14-1.54.06.06 0 0 1-.02-.05c0-.02.01-.04.03-.05l.1-.06c.04-.01.06-.01.09.01l.46.44c.09.08.12.07.1-.05ZM32.85 16.64h-.01a.12.12 0 0 0-.16.06l-.7 1.68c-.02.06 0 .13.07.16s.14 0 .17-.06l.7-1.68a.12.12 0 0 0-.07-.16ZM33.36 17.8c.1.03.2.08.27.16.04.04.05.1.03.15a.13.13 0 0 1-.13.09.48.48 0 0 1-.31-.1c-.07-.04-.13-.04-.2 0a.48.48 0 0 0-.2.32c-.02.1.02.16.11.18.13.04.24.1.35.17.06.04.07.09.03.15l-.05.09c-.07.1-.15.12-.24.04a1.13 1.13 0 0 0-.47-.25c-.11-.01-.15-.08-.1-.19l.77-1.6c.05-.11.13-.14.24-.08l.55.28c.06.03.08.08.05.14l-.03.06c-.05.1-.13.13-.24.08l-.33-.17c-.1-.05-.17-.02-.2.08l-.05.14c-.04.14 0 .23.15.26ZM21.77 17.6c-.06.01-.07.05-.04.1l.74 1.4c.01.02 0 .05-.02.06l-.06.03c-.04.02-.07.02-.1-.02-.26-.42-.5-.84-.72-1.27a.18.18 0 0 0-.1-.09h-.08a.22.22 0 0 1-.17.04.22.22 0 0 1-.17-.14c-.02-.06 0-.1.05-.14l.53-.33c.15-.1.24-.06.27.12.01.11-.03.19-.13.23ZM34.31 19.1c.06-.1.05-.2-.02-.28a.75.75 0 0 1-.17-.37.67.67 0 0 1 .04-.35c.05-.12.13-.2.22-.28.1-.07.23-.11.37-.12.07 0 .13.03.18.08.15.17.19.38.1.62a.14.14 0 0 1-.11.1.1.1 0 0 1-.08-.01.19.19 0 0 1-.08-.2c.04-.2-.03-.28-.21-.26a.19.19 0 0 0-.16.12.18.18 0 0 0 .03.19c.34.4.29.8-.14 1.19a.37.37 0 0 1-.23.1.36.36 0 0 1-.23-.07c-.26-.18-.3-.42-.14-.74.08-.15.14-.14.18.02.03.09.04.17.03.27 0 .09.04.14.13.17.11.03.21-.03.3-.17ZM20.65 17.89h-.01a.1.1 0 0 0-.03.15l1 1.51c.03.05.1.07.15.04v-.01a.1.1 0 0 0 .04-.15l-1-1.51a.11.11 0 0 0-.15-.03Z" fill="#F16134"/><path d="M37.67 28.03a9.7 9.7 0 0 1-2.88 6.94 9.77 9.77 0 0 1-6.96 2.87 9.77 9.77 0 0 1-6.96-2.87 9.74 9.74 0 0 1-2.13-10.7 9.74 9.74 0 0 1 5.33-5.31 9.77 9.77 0 0 1 7.53 0 9.77 9.77 0 0 1 5.32 5.31c.5 1.2.75 2.46.75 3.76Z" fill="#00A757"/><path d="M19.96 18.99c.09.4.32.7.7.93.06.03.12.03.18 0a.17.17 0 0 0 .09-.16l-.02-.34c0-.14.04-.16.14-.07.2.17.24.4.12.7a.29.29 0 0 1-.14.17.28.28 0 0 1-.23 0c-.59-.19-.97-.63-1.14-1.32-.06-.24.03-.38.25-.45a.56.56 0 0 1 .6.17c.09.08.07.15-.04.2a.3.3 0 0 1-.25-.02c-.22-.12-.3-.05-.26.19Z" fill="#F16134"/><path d="m27.8 18.77-3.3 5.8-.37.65a.37.37 0 0 0-.04.14c0 .06-.04.1-.09.14a.54.54 0 0 0-.15.14c-.14.2-.15.4-.04.57.3.47.38.92.21 1.33-.06.15-.1.15-.12-.01a3.55 3.55 0 0 1-.01-.56c0-.13-.03-.14-.1-.02a.81.81 0 0 0-.07.6c.09.37.14.75.15 1.15 0 .02 0 .03-.03.03h-.05c-.04 0-.06-.01-.07-.05-.03-.37-.17-.7-.4-.96l.16-.95c.14-.11.19-.24.15-.38a.07.07 0 0 0-.07-.06c-.03 0-.06 0-.08.03a.52.52 0 0 0-.07.19l-.16-.02c.24-.5.53-.97.86-1.42.13-.17.1-.3-.1-.38-.06-.02-.16.01-.31.1a.18.18 0 0 1-.18 0 .18.18 0 0 1-.1-.16l-.1-1.55a.2.2 0 0 1 .1-.2l.06-.03.01-.03c0-.01 0-.02-.02-.02a.47.47 0 0 1-.2-.17c-.05-.07-.05-.14.01-.2.15-.2.11-.35-.12-.48a.65.65 0 0 1-.14-.1c-.17-.17-.36-.18-.54-.03a.6.6 0 0 0-.22.63.4.4 0 0 1-.07.32.19.19 0 0 0-.01.2l.03.06c.02.05.03.1.02.15l-.21 1.32a.21.21 0 0 1-.17.18c-1.05.32-1.74.88-2.07 1.7-.07.16-.18.22-.36.18a1.34 1.34 0 0 0-.47-.04c-.2.03-.28-.06-.24-.26a9.9 9.9 0 0 1 1.19-3.03 9.22 9.22 0 0 1 7.9-4.5Z" fill="#fff"/><path d="M27.93 18.77c.02.16.05.28.1.36 1.01 1.75 2.05 3.56 3.1 5.43l-1.8-.92-1.48-2.58c-.05-.09-.1-.09-.15 0l-1.47 2.6c-.3.11-.51.27-.65.46l-.62.42a.75.75 0 0 1-.46.02l3.3-5.8.13.01Z" fill="#F16134"/><path d="M32.9 22.96c-.08 0-.12-.06-.11-.16 0-.03.02-.07.05-.1.13-.1.2-.25.2-.42 0-.31-.12-.53-.37-.65-.23-.12-.48-.1-.75.03s-.39.35-.35.65c.01.13.06.25.14.37.07.12.17.21.28.28.09.05.13.12.13.22 0 .05-.02.1-.07.12-.1.04-.1.09 0 .14.06.03.12.02.17-.03a.28.28 0 0 0 .1-.2c.02-.24-.08-.41-.31-.53a.32.32 0 0 1-.2-.31c0-.15.07-.25.2-.32.28-.12.52-.1.74.08.09.07.1.15.06.25-.04.1-.12.14-.23.12-.1-.03-.13.01-.07.1.05.1.09.19.12.29a.8.8 0 0 1 .03.28c-.03.4.17.6.6.55.05 0 .08.01.12.04.03.03.05.06.05.1 0 .03.1.47-.2.6-.05.06-.11.07-.18.02a.12.12 0 0 1-.05-.1c0-.14-.04-.16-.13-.05-.2.23-.44.25-.7.05a.18.18 0 0 1-.08-.2c.01-.05 0-.1-.03-.13-.04-.04-.08-.04-.12-.01a.1.1 0 0 0-.03.06c-.02.09-.07.11-.15.1a.3.3 0 0 1-.2-.2.08.08 0 0 1 .02-.09.08.08 0 0 1 .08-.03c.13 0 .21-.05.25-.18.02-.07 0-.1-.07-.1l-.18.02a.3.3 0 0 0-.3.23.3.3 0 0 0 .12.35c.47.36 1.02.5 1.63.43.23-.03.36-.15.4-.38 0-.1.03-.18.05-.28.07-.26-.03-.39-.3-.4-.22 0-.36-.06-.43-.17a.16.16 0 0 1-.02-.16c.03-.07.07-.11.12-.13a.9.9 0 0 0 .55-.77c.04-.35-.05-.66-.27-.93a.77.77 0 0 1-.17-.36 2.2 2.2 0 0 1-.02-.4v-.07c0-.03-.02-.05-.05-.05l-.08-.02c-.01 0-.02 0-.02.02l-.09.44c0 .07-.05.1-.11.09a.08.08 0 0 1-.07-.06 5.22 5.22 0 0 1-.02-.74c.01-.11.06-.14.16-.08a9.2 9.2 0 0 1 4.15 5.97c.02.13-.02.17-.14.12a.95.95 0 0 1-.36-.3 1.07 1.07 0 0 0-.35-.28c-.1-.05-.13-.12-.08-.22a.08.08 0 0 1 .09-.05c.04 0 .06.02.07.06.06.18.11.27.18.26.03-.01.04-.03.03-.06-.05-.2-.1-.4-.1-.6a.3.3 0 0 0-.11-.2.94.94 0 0 0-.39-.2c-.03-.08-.05-.13-.04-.16.03-.06.08-.1.15-.1a.2.2 0 0 1 .17.05c.04.03.06.08.08.13 0 .02.02.04.05.04.03 0 .05-.02.05-.05.04-.17-.05-.29-.28-.34a.28.28 0 0 0-.3.1c-.1.1-.09.22.05.34.1.14.1.3.05.47-.02.07 0 .12.05.17.03.02.05.05.06.1.01.06-.01.08-.08.07-.07-.01-.11-.05-.13-.1-.02-.07-.06-.1-.13-.06a.23.23 0 0 0-.14.19c-.01.16-.02.32 0 .5 0 .04-.03.06-.08.05l-.08-.02c-.06-.01-.09-.05-.09-.11v-.3c0-.28 0-.5-.04-.62a.94.94 0 0 0-.38-.54c.28-.06.53-.17.73-.32.14-.1.12-.15-.05-.16a.42.42 0 0 0-.3.1.44.44 0 0 1-.18.09c-.19.03-.26.13-.24.3-.18.12-.25.32-.2.6.02.07.02.13 0 .16a.17.17 0 0 1-.05.07c-.06.04-.11.03-.16-.02a.23.23 0 0 0-.12-.08c-.1-.02-.14.01-.14.11l.01.58c0 .13-.05.15-.15.08l-1.08-.8a.09.09 0 0 0-.1-.01.08.08 0 0 0-.05.08l-.05 1.5h-.15l-1.26-2.2a364.37 364.37 0 0 0-3.11-5.44.88.88 0 0 1-.09-.36c.96.02 1.9.18 2.8.48.07.03.1.08.07.16-.1.3-.12.62-.1.94.01.08-.01.16-.07.22-.2.21-.33.42-.39.63-.07.26-.02.5.13.7a6.35 6.35 0 0 0 1.49 1.41l.04-.06c.03-.05.02-.08-.03-.1-.44-.25-.6-.7-.44-1.35.02-.1.08-.19.17-.25.3-.2.57-.3.83-.29.23.02.42.08.57.2.14.12.23.27.27.45a1 1 0 0 1-.03.54c-.07.2-.18.37-.33.51Z" fill="#fff"/><path d="m35.27 20.3.23.2c.03.04.05.08.05.13l-.01.1c0 .03-.02.05-.05.06a.08.08 0 0 1-.09 0c-.19-.11-.36-.26-.53-.45-.05-.06-.05-.13 0-.2l1.17-1.3c.02-.02.05-.02.07 0l.05.05c.06.05.06.1.02.15l-.92 1.02a.16.16 0 0 0 .01.23Z" fill="#F16134"/><path d="M31.16 19.38H31a.06.06 0 0 0-.06.06l-.03 2.84c0 .03.03.06.06.06h.15c.03 0 .05-.03.06-.06l.02-2.84a.06.06 0 0 0-.05-.06ZM32.17 20.68c-.23-.2-.48-.32-.73-.35-.03 0-.05-.02-.05-.06l.06-.71c0-.03.02-.04.05-.03l.75.39c.1.05.14.13.13.24l-.06.46c-.01.12-.06.14-.15.06Z" fill="#fff"/><path d="m36.9 19.67-1.3 1.28a.11.11 0 0 0 0 .16c.04.05.12.05.16 0l1.3-1.27a.11.11 0 0 0 0-.16.11.11 0 0 0-.16-.01ZM19.57 21.11l.34-.34c.03-.03.06-.03.09 0l.11.11c.03.03.03.05 0 .08l-.42.57c-.02.04-.06.04-.09 0l-1.38-1.3c-.04-.03-.03-.06 0-.1l.1-.09c.04-.02.06-.02.1 0l1.06 1.07c.03.03.06.03.09 0ZM36.74 20.9c-.2.22-.44.42-.73.6-.06.02-.1.01-.14-.04v-.02c0-.02 0-.04.02-.06.45-.42.9-.8 1.37-1.15.09-.06.17-.06.25 0l.08.07c.06.05.06.1 0 .16l-.53.56c-.05.06-.05.11 0 .17.02.02.05.02.08.01l.03-.01c.17-.15.38-.28.63-.38a.2.2 0 0 1 .18 0c.05.04.1.08.11.14.03.07 0 .13-.05.18-.5.43-.97.8-1.43 1.13-.13.1-.17.07-.11-.09.05-.12.17-.26.38-.4.18-.11.29-.22.35-.3.09-.14.06-.16-.07-.06-.23.17-.48.3-.75.42-.24.1-.3.04-.15-.17a3.14 3.14 0 0 1 .65-.72l-.04-.05c-.05-.05-.1-.05-.13 0Z" fill="#F16134"/><path d="m31.42 21.3-.03-.6c0-.07.02-.12.08-.15a.15.15 0 0 1 .17.01c.14.1.3.2.45.28.24.12.24.22-.03.3a2.1 2.1 0 0 0-.5.23c-.09.06-.14.04-.14-.07Z" fill="#fff"/><path d="M18.43 21.68c-.08.08-.08.15.02.21l.2.14c.04.02.08.03.13.02a.18.18 0 0 0 .12-.07l.16-.25a.17.17 0 0 1 .1-.07h.12l.05.03c.1.05.12.12.05.2l-.39.53c-.05.07-.12.08-.2.02l-1.33-1.04c-.06-.05-.07-.1-.04-.18.09-.23.23-.42.42-.58.06-.04.1-.03.15.02l.04.05c.05.06.05.12 0 .19a.88.88 0 0 0-.2.4c0 .07.01.13.07.17.12.08.22.07.31-.05.06-.06.1-.14.12-.21.03-.1.1-.12.18-.08.07.04.12.1.15.16.03.07.02.13-.03.18l-.2.21Z" fill="#F16134"/><path d="m30.72 21.02.05.83c0 .05-.02.07-.06.09-.04.01-.07 0-.1-.04-.2-.32-.2-.62-.02-.91.08-.13.12-.12.13.03ZM29.33 23.64a5.38 5.38 0 0 0-3.1.02l1.47-2.6c.05-.09.1-.09.15 0l1.48 2.58Z" fill="#fff"/><path d="m38.25 21.43-1.45 1.04a.13.13 0 0 0-.03.18c.05.06.13.07.18.03l1.45-1.03a.13.13 0 0 0 .03-.18.13.13 0 0 0-.18-.04ZM32.9 22.96c0 .07.01.12.03.15-.05.02-.09.06-.11.13-.03.06-.02.1 0 .16.08.11.22.17.44.18.27 0 .37.13.3.4l-.06.27c-.03.23-.16.35-.39.38a2.22 2.22 0 0 1-1.63-.43.3.3 0 0 1-.12-.35.3.3 0 0 1 .3-.23l.18-.01c.07 0 .1.02.07.09-.04.13-.12.19-.25.18a.08.08 0 0 0-.08.03.08.08 0 0 0-.01.09c.03.1.1.16.2.2.07.01.12-.01.14-.1a.1.1 0 0 1 .03-.06c.04-.03.08-.03.12 0 .03.04.04.09.03.14-.02.08 0 .15.07.2.27.2.5.18.71-.05.1-.1.14-.09.13.05 0 .04.02.07.05.1.07.05.13.04.19-.01.08-.08.2-.52.2-.6a.15.15 0 0 0-.06-.11.16.16 0 0 0-.12-.04c-.43.04-.63-.14-.6-.55 0-.1 0-.19-.03-.28a1.2 1.2 0 0 0-.12-.28c-.06-.1-.04-.14.07-.11.11.02.19-.02.23-.12.05-.1.03-.18-.06-.25-.22-.18-.46-.2-.74-.08a.32.32 0 0 0-.2.32c0 .14.07.25.2.31.23.12.33.3.3.53 0 .08-.03.14-.09.2-.05.05-.11.06-.17.03-.1-.05-.1-.1 0-.14a.12.12 0 0 0 .07-.12c0-.1-.04-.17-.13-.22a.82.82 0 0 1-.28-.28.84.84 0 0 1-.14-.37c-.04-.3.08-.52.35-.65.27-.14.52-.15.75-.03.25.12.37.34.37.65 0 .17-.07.31-.2.43a.14.14 0 0 0-.05.1c0 .1.03.14.12.15ZM17.48 22.6l.13-.3a.1.1 0 0 1 .07-.06.1.1 0 0 1 .08 0l.07.05c.04.02.06.06.07.1.01.04 0 .08-.01.12l-.12.23a.2.2 0 0 0 .01.22c.06.09.14.14.24.16.1.01.16-.02.2-.1l.13-.24c.05-.09.12-.12.2-.1l.07.01c.04 0 .07.03.09.07a.1.1 0 0 1 0 .1l-.32.58c-.05.1-.13.13-.23.07l-1.42-.87c-.08-.05-.1-.12-.06-.2l.3-.57c.05-.1.12-.12.2-.03l.07.06c.06.06.07.13.02.2l-.2.28c-.07.1-.05.18.06.23l.14.07c.1.04.17.02.2-.08ZM38.48 22.69l-1.18.71c-.05.03-.08.02-.1-.02l-.04-.06c-.04-.07-.02-.12.04-.16l1.16-.7c.11-.07.14-.16.07-.28-.05-.1-.04-.18.05-.25a.15.15 0 0 1 .13-.03c.05.01.08.04.1.09l.35.66c.05.1.02.17-.1.18a.19.19 0 0 1-.2-.08c-.07-.1-.16-.13-.28-.06ZM21.42 22.28c.2.08.37.11.4.06.01-.05-.13-.15-.32-.24-.2-.08-.37-.11-.4-.06-.02.05.13.15.32.24ZM24.11 22.27c.24-.07.42-.18.4-.22 0-.05-.21-.02-.45.05-.24.08-.43.19-.41.23.01.05.22.02.46-.06Z" fill="#F16134"/><path d="M22.76 22.78a.27.27 0 1 0 0-.54.27.27 0 0 0 0 .54Z" fill="#fff"/><path d="M21.3 22.9a.43.43 0 0 1-.18.05c-.1 0-.11-.02-.04-.1a.7.7 0 0 1 .64-.19c.14.02.14.06.02.1-.1.04-.2.07-.3.08l-.15.05ZM24.43 23.05c-.12.02-.29-.01-.5-.08l-.27-.08c-.15-.02-.15-.05 0-.08.26-.04.52 0 .79.13.12.06.11.1-.02.11ZM16.74 23.5l1.26.56c.05.02.07.06.06.11l-.02.07c0 .06-.04.08-.1.06l-1.32-.59c-.1-.03-.15-.01-.2.07a.23.23 0 0 1-.13.13c-.14.04-.2 0-.18-.14.04-.29.14-.54.31-.77a.11.11 0 0 1 .1-.05c.03 0 .06.02.09.04.07.1.09.2.04.3-.03.1 0 .17.09.2ZM38.48 23.97c-.04-.07-.1-.1-.17-.08l-.28.07a.12.12 0 0 0-.07.06.12.12 0 0 0 0 .1l.18.45c.03.1 0 .16-.08.2l-.09.05a.1.1 0 0 1-.08 0 .09.09 0 0 1-.05-.05l-.26-.66a.17.17 0 0 1 .09-.22l1.48-.66c.13-.06.22-.02.27.1l.18.5c.03.1 0 .19-.1.25a.12.12 0 0 1-.1 0 .22.22 0 0 1-.14-.15l-.07-.24a.13.13 0 0 0-.06-.09.14.14 0 0 0-.1-.01l-.13.03c-.12.03-.16.1-.13.21l.11.36c.03.08 0 .14-.09.16l-.1.03c-.02 0-.05 0-.07-.02a.1.1 0 0 1-.05-.07 1.08 1.08 0 0 0-.1-.32Z" fill="#F16134"/><path d="m29.33 23.64 1.8.92 1.26 2.22c0 .14.01.38.05.7.04.28.06.5.06.64a4.43 4.43 0 0 1-1.05 2.8l-.65.76a.83.83 0 0 1-.59.26c.8-.69 1.3-1.26 1.55-1.72.46-.88.37-.94-.27-.18-.4.46-.85 1.09-1.37 1.89l-.88.67-2.74.02a5.43 5.43 0 0 0-1.6-.93 5.04 5.04 0 0 1-1.64-2.78l.05-1.19c.24.27.38.59.41.96 0 .04.03.06.07.05h.05c.02 0 .03-.01.03-.03-.01-.4-.06-.78-.15-1.15a.81.81 0 0 1 .08-.6c.06-.12.1-.11.09.02-.01.19 0 .37.01.56.02.16.06.16.12.01.17-.41.1-.86-.2-1.33-.12-.18-.1-.37.03-.57.04-.06.1-.1.15-.14a.18.18 0 0 0 .09-.14c0-.05.02-.1.04-.14l.37-.66c.14.05.3.04.46-.02-.12.15-.14.33-.04.52.05.1.12.13.22.08l1.11-.56c.09-.04.09-.09 0-.14a.14.14 0 0 0-.16.01c-.15.1-.33.19-.53.25a.33.33 0 0 0-.18.11c-.08.1-.18.13-.31.08-.19-.06-.19-.13 0-.2.5-.17.96-.38 1.4-.64.18-.1.32-.08.43.07l.06.05c.1.04.18.02.25-.07.02-.03.02-.07 0-.1a.08.08 0 0 0-.1-.04c-.09.02-.16-.02-.2-.11-.04-.1-.12-.13-.22-.1l-1.11.37c.14-.2.35-.35.65-.46a5.37 5.37 0 0 1 3.1-.02Z" fill="#00A757"/><path d="m27.74 24-.65-.25c-.1-.03-.1-.06 0-.1.22-.05.44.06.65.35ZM24.96 24.54l.62-.42 1.11-.37c.1-.03.18 0 .22.1.04.1.11.13.21.11.04 0 .07 0 .1.04.01.03.01.07-.01.1-.07.09-.15.1-.25.07a.15.15 0 0 1-.06-.05c-.11-.15-.25-.17-.42-.07-.45.26-.92.47-1.41.65-.19.06-.19.13 0 .2.13.04.23.01.31-.09.05-.05.1-.1.18-.11.2-.06.38-.14.53-.25.06-.03.1-.04.16 0 .09.04.09.09 0 .13l-1.1.56c-.1.05-.18.02-.23-.08-.1-.2-.08-.37.04-.52ZM29.3 24.24v.08l-.04.05a.3.3 0 0 1-.24.01c-.09-.03-.1-.07-.02-.12a.5.5 0 0 1 .16-.08c.12-.04.12-.08.01-.13-.13-.06-.27-.05-.4.04-.1.06-.2.06-.29 0a.57.57 0 0 0-.35-.12c-.06 0-.08-.03-.06-.09.01-.03.05-.04.11-.03.04 0 .08.02.12.04.16.1.32.08.47-.05.08-.07.17-.1.28-.06.65.2 1.26.5 1.84.95.09.07.08.12-.03.15h-.1c-.05-.03-.09-.02-.1.04a.1.1 0 0 0 0 .09c.02.03.05.05.09.06.35.11.6.36.74.73.03.06.03.13 0 .2l-.07.2c-.04.11-.08.11-.12.01a.44.44 0 0 1-.04-.23c.02-.3-.08-.52-.32-.62-.34-.15-.66-.3-.96-.48-.14-.08-.13-.14.02-.2.1-.02.16 0 .2.07.04.09.1.13.2.13h.1c.19 0 .2-.05.03-.13l-1.11-.56a.08.08 0 0 0-.1.05Z" fill="#fff"/><path d="M27.74 24c.15-.04.24 0 .28.1l1.6.78c.6.3 1.03.55 1.32.78.06.05.1.11.11.18l.62 2.83a.5.5 0 0 1-.07.39c-.18.27-.39.52-.64.77-.15.15-.23.11-.24-.1 0-.14.04-.25.13-.33.12-.12.2-.24.22-.38.03-.1 0-.13-.1-.07a.14.14 0 0 1-.1.02c-.13-.03-.15-.1-.07-.19.32-.35.43-.74.34-1.19-.03-.14-.08-.15-.15-.02l-.07.11a.24.24 0 0 0-.01.21.5.5 0 0 1-.14.58c-.05.04-.1.04-.14 0-.04-.03-.05-.07-.02-.11.13-.19.13-.36 0-.53-.08-.09-.13-.08-.17.03a.7.7 0 0 1-.21.34.35.35 0 0 0-.13.23c-.02.1 0 .18.06.26.14.2.25.43.32.66.07.25.02.28-.16.08a2.4 2.4 0 0 1-.45-.78.3.3 0 0 1 .04-.28c.18-.25.33-.52.45-.82.06-.16.09-.16.08.01 0 .05 0 .1.02.14.04.12.1.13.18.03l.19-.25a.4.4 0 0 0 .07-.38.4.4 0 0 0-.26-.29c-.28-.1-.46 0-.53.33l-.11.5a.28.28 0 0 1-.18.22c-.11.05-.13.02-.06-.07.12-.18.13-.35 0-.52a4.94 4.94 0 0 1-.38-.64c-.07-.13-.16-.15-.27-.04l-.04.04a.34.34 0 0 0-.09.38l.4 1.12v.03l-.09.03c-.03.01-.05 0-.07-.03a.97.97 0 0 0-.4-.46.15.15 0 0 0-.13-.02.14.14 0 0 0-.1.1c-.18.62-.05 1.19.38 1.7.03.03.07.03.1 0l.05-.05c.04-.03.04-.07.01-.11-.13-.18-.13-.3 0-.4.14.27.32.52.54.77.07.08.06.16-.03.24a.31.31 0 0 0-.13.2l-.1.62a.4.4 0 0 1-.11.21.7.7 0 0 0-.14.2c-.04.1 0 .15.1.14.26-.03.43-.17.51-.45a.1.1 0 0 0-.04-.11.25.25 0 0 1-.1-.27c.01-.03.03-.06.07-.06.03-.01.06 0 .08.03.05.06.06.13.05.2-.02.09.01.1.08.05.09-.08.13-.18.12-.3-.01-.09-.06-.16-.15-.2a.29.29 0 0 1-.08-.08c-.07-.1-.04-.14.08-.13l.59.07c.28.04.32.15.11.35-.26.26-.5.54-.72.86a1 1 0 0 1-.75.38l-2.77.03a.4.4 0 0 1-.32-.14l-1.15-1.32a.12.12 0 0 1-.03-.12.13.13 0 0 1 .08-.1c.18-.06.37-.08.56-.06.11.4.24.7.37.93.1.16.26.28.47.35.13.04.16 0 .09-.1-.1-.17-.23-.3-.38-.42a.1.1 0 0 1-.04-.1.1.1 0 0 1 .07-.08c.2-.06.4-.07.6-.04.09.01.16-.01.23-.07.06-.06.12-.05.17.02.05.07.12.1.2.06a.55.55 0 0 0 .31-.28c.07-.14.08-.13.04.01a.26.26 0 0 0 .01.2c.05.1.1.1.19.04.1-.1.12-.2.06-.3a.16.16 0 0 1 .02-.2.97.97 0 0 0 .17-.3c.03-.1.1-.14.2-.1a.1.1 0 0 0 .07 0c.1-.04.11-.1.05-.19a.56.56 0 0 1-.13-.34 119.15 119.15 0 0 0-.01-3.07h-.04a6 6 0 0 1-.91.62c-.05.03-.07.07-.06.12.15.85.15 1.75-.03 2.7-.02.13.03.18.16.13.06-.03.12-.01.16.04.04.04.08.05.13.03a.08.08 0 0 0 .05-.05c.01-.05 0-.08-.06-.1a.2.2 0 0 1-.15-.12.36.36 0 0 1-.03-.17c.06-.8.07-1.56.02-2.3 0-.13.04-.23.15-.3l.27-.15c.1-.06.16-.03.16.08 0 .92-.01 1.76-.04 2.51 0 .22-.06.45-.17.68-.08.19-.21.23-.39.12-.1-.06-.13-.04-.11.08.03.15.02.27-.03.38-.05.12-.1.12-.15 0a.97.97 0 0 1-.09-.32c0-.09-.06-.14-.14-.16-.45-.12-.8 0-1.04.37-.08.11-.12.1-.13-.04 0-.09.04-.15.13-.17.07-.02.08-.06.05-.11a.13.13 0 0 0-.08-.06c-.03 0-.06 0-.08.03-.06.1-.17.15-.31.14v-.08c.01-.06.04-.1.09-.13.3-.16.53-.38.72-.63.03-.05.08-.06.13-.03.07.03.1.09.06.16-.02.06 0 .1.05.12h.1a.1.1 0 0 0 .05-.05c.3-.45.43-.93.38-1.46 0-.06-.03-.1-.08-.14a.27.27 0 0 0-.24-.04c-.12.04-.13.1-.03.16.15.12.18.26.09.41a.25.25 0 0 0-.02.22l.04.12c.07.18.02.22-.14.11a.86.86 0 0 1-.15-.12c-.04-.05-.05-.1-.01-.16.02-.03.04-.04.07-.04.1 0 .14-.05.12-.16a.53.53 0 0 0-.1-.2c-.07-.09-.12-.09-.17 0a.5.5 0 0 1-.18.19c-.14.08-.17.05-.1-.1.26-.46.41-.94.47-1.43.04-.33-.06-.38-.3-.15a2.99 2.99 0 0 0-.75 1.3l-.06-.01c-.03-.01-.05-.04-.04-.08a1.1 1.1 0 0 0-.18-.9.22.22 0 0 0-.2-.1.21.21 0 0 0-.18.1c-.25.37-.4.8-.44 1.28 0 .08.01.15.05.21.1.16.13.34.1.53-.02.08 0 .14.04.2.2.24.26.53.16.85a.1.1 0 0 1-.09.08.1.1 0 0 1-.1-.05 2.8 2.8 0 0 0-.28-.32c-.16-.17-.27-.3-.32-.4a.8.8 0 0 1-.06-.54c.2-.97.4-1.96.59-2.98.02-.1.07-.17.17-.2l1.37-.58c.1-.04.17 0 .18.1.01.08.04.14.1.2.1.12.07.18-.1.17-.06 0-.1-.03-.1-.1-.02-.1-.08-.14-.18-.08a.72.72 0 0 0-.24.23c-.06.08-.03.13.06.15.1.02.17-.02.21-.1.04-.07.07-.07.11-.01a.2.2 0 0 1 .03.06c0 .07-.02.1-.1.1-.02 0-.05 0-.07-.02-.02 0-.02 0-.01.02.14.23.35.35.62.36.07 0 .12-.02.16-.07.14-.23.31-.45.5-.67a.1.1 0 0 1 .08-.03c.05 0 .05.02.01.05a.15.15 0 0 0-.05.1c-.01.12.65.4.71.34a.29.29 0 0 0 .1-.13.2.2 0 0 1 .15-.15.2.2 0 0 1 .2.07c.2.23.45.42.74.56.04.01.07 0 .09-.02l.56-.63c.03-.03.03-.06-.01-.08a4.15 4.15 0 0 0-2.26-.7c-.14 0-.17.07-.1.19.15.23.47-.03.42.07-.05.1-.11.19-.18.25-.06.07-.12.07-.2.02a.39.39 0 0 1-.16-.4c0-.05-.02-.08-.07-.08a.35.35 0 0 0-.3.12.16.16 0 0 1-.15.05.8.8 0 0 0-.43.05c-.11.05-.15.01-.12-.1.03-.08.09-.11.17-.1.11.02.2-.01.26-.09.05-.05.1-.1.17-.12l.74-.32a.13.13 0 0 0 .08-.08.3.3 0 0 0 .01-.07Z" fill="#fff"/><path d="M16.2 24.63c-.22.06-.25.17-.1.34.07.07.15.08.25.03a.5.5 0 0 0 .16-.15.61.61 0 0 1 .75-.2c.13.05.23.14.3.26.08.13.11.28.09.45a.24.24 0 0 1-.13.18c-.23.13-.44.13-.62 0-.1-.07-.09-.11.03-.13a.57.57 0 0 0 .36-.18.17.17 0 0 0 .04-.14.17.17 0 0 0-.09-.12c-.14-.08-.26-.05-.37.07-.3.34-.64.36-1.02.08a.4.4 0 0 1-.16-.29.4.4 0 0 1 .1-.31c.16-.18.36-.22.6-.12.17.07.17.13-.01.18l-.18.05ZM39.64 24.52c.05-.02.1-.02.15 0 .04.03.08.07.1.12l.03.1c.07.2.05.4-.05.59-.1.2-.27.33-.49.4l-.35.12a.83.83 0 0 1-.63-.02.7.7 0 0 1-.4-.43l-.04-.1a.17.17 0 0 1 0-.15.19.19 0 0 1 .12-.1l1.56-.53Z" fill="#F16134"/><path d="M34.6 25.3c0 .25.08.46.16.46s.14-.22.14-.47c0-.26-.08-.47-.16-.46-.08 0-.14.2-.14.46ZM39.41 25.45l-.61.18a.17.17 0 0 1-.12 0l-.25-.12a.15.15 0 0 1-.1-.17c0-.07.05-.12.12-.15l1.02-.33c.07-.02.14 0 .18.06.05.06.06.12.02.19l-.16.27a.16.16 0 0 1-.1.07ZM24.33 25.63l-.02.74c0 .05-.03.07-.08.06l-.12-.02-.01-.02c0-.26.05-.52.12-.8.07-.26.25-.4.53-.42.11 0 .13.02.03.1-.1.07-.21.13-.33.18a.18.18 0 0 0-.12.18ZM33.3 28.12l-.5-.83-.04-1.65c0-.12.05-.14.14-.07l.95.72c.1.07.15.17.15.3l.01 1.35c0 .1-.05.15-.15.16l-.55.02ZM35.36 26.5l.05 1.5c0 .07-.03.1-.09.1l-1.01.02c-.06 0-.1-.03-.1-.09l-.05-2.34c0-.04.02-.06.05-.08a.08.08 0 0 1 .1.01l1.02.82c.02.02.03.04.03.07ZM37.02 26.76l.09 1.26c0 .07-.03.1-.1.1l-1.3-.02c-.05 0-.08-.02-.09-.08l-.04-2.17c0-.03.01-.06.04-.08a.08.08 0 0 1 .1 0l1.26.93c.03.02.04.04.04.06ZM31.65 26.59l-.01.64c0 .02-.01.04-.03.05a.06.06 0 0 1-.07 0 .14.14 0 0 1-.06-.1c-.05-.38.01-.75.2-1.12.03-.08.07-.08.12 0 .13.24.26.6.37 1.09l.1.42c.07.26.07.51.03.78 0 .02-.02.04-.04.04l-.08.03c-.03 0-.05 0-.05-.04l-.02-.62c0-.07-.04-.1-.1-.1l-.06.01c-.04 0-.06.02-.06.06v.6c0 .12-.03.12-.09.02a.86.86 0 0 1 .02-.85.36.36 0 0 0 .04-.2l-.06-.68c0-.02 0-.03-.03-.04l-.08-.02c-.03 0-.04 0-.04.03Z" fill="#fff"/><path d="M23.48 26.77a.64.64 0 0 1-.07-.22.53.53 0 0 1 .07-.19.08.08 0 0 1 .08-.03c.04 0 .06.02.07.06.04.14-.01.27-.15.38ZM33.33 27a.09.09 0 0 1-.08.04s-.02 0-.02-.02a.45.45 0 0 1-.1-.36c.02-.1.08-.15.18-.14h.24c.05.01.1.03.13.07.03.04.04.1.03.15-.03.16-.13.24-.3.23a.1.1 0 0 0-.08.04Z" fill="#00A757"/><path d="M16.58 26.67c.09-.2.16-.19.2.02.06.24.13.47.22.7.23.58.17 1.19-.18 1.82a.1.1 0 0 1-.09.05.1.1 0 0 1-.1-.04c-.49-.66-.5-1.51-.05-2.55ZM23.25 26.53l.16.02c0 .08.03.16.07.22l-.17.95-.05 1.2-1.6 2.63a.08.08 0 0 0-.01.09c.02.03.04.04.08.04h3.17c.53.2 1.06.5 1.6.94l-6.68.06c-.08-.15-.09-.2-.03-.16l3.3-5.64c.12-.06.17-.18.16-.35Z" fill="#F16134"/><path d="M34.54 26.83c0-.25.13-.35.4-.28.1.02.16.08.18.17.02.1-.01.18-.1.23-.1.08-.23.09-.37.03a.16.16 0 0 1-.11-.15ZM36.47 26.68c.05.03.07.07.08.12 0 .06-.02.1-.06.13-.1.07-.22.1-.39.07a.17.17 0 0 1-.12-.1.16.16 0 0 1 0-.15c.08-.17.24-.2.49-.07Z" fill="#00A757"/><path d="m23.08 26.88-3.3 5.64a.52.52 0 0 1-.2-.24 9.1 9.1 0 0 1-1-3.82c0-.1.04-.14.14-.14h3.33c.07 0 .11-.05.11-.12l.01-.1c0-.02-.01-.04-.04-.04l-3.4.04c-.1 0-.14-.05-.13-.15v-.06c.01-.1.06-.13.15-.1.23.06.47.07.72.04.07-.01.11-.05.12-.12l.01-.08c.01-.06-.01-.08-.07-.08h-.75a.12.12 0 0 1-.12-.13l.07-.58c.01-.07.05-.1.12-.1l3.32.06c.16 0 .19.07.1.2l-.06.06a.09.09 0 0 0-.02.07c0 .03.02.05.05.06.11.07.23.08.35.03.12-.06.2-.15.22-.29a.17.17 0 0 1 .13-.14l.08-.02c.04 0 .06.01.07.05v.06Z" fill="#fff"/><path d="M38.5 27.96c0 .66.18 1.2.4 1.2.21 0 .39-.54.39-1.2 0-.66-.19-1.19-.4-1.19-.22 0-.4.54-.4 1.2ZM32.39 26.78h.16c-.03.3.06.48.25.51l.5.83.09.22 2.42 4.2v.08a.07.07 0 0 1-.07.03l-6.5-.05.88-.67h.1c.22 0 .41-.08.58-.25l3.23-.01c.09 0 .1-.04.06-.1l-1.65-2.8c.05-.19.07-.4.06-.65 0-.14-.02-.36-.06-.64a5.48 5.48 0 0 1-.05-.7Z" fill="#F16134"/><path d="M21.58 27.24c.28-.03.5-.12.5-.21-.01-.1-.25-.14-.53-.12-.28.03-.5.12-.49.2 0 .1.24.15.52.13ZM19.51 26.97h-.6a.13.13 0 0 0-.14.13v.06c0 .07.06.13.13.13h.61c.07 0 .13-.06.13-.13v-.06a.13.13 0 0 0-.13-.13ZM20.92 27c.02 0 .03.01.03.03v.01c0 .07-.04.13-.1.18a.47.47 0 0 1-.28.07h-.4c-.1 0-.2-.03-.27-.08s-.1-.11-.1-.18v-.01c0-.02 0-.03.02-.03l1.1.01ZM36.25 27.6c.15.01.28-.08.29-.2 0-.13-.1-.25-.26-.26-.15 0-.28.09-.29.22 0 .12.1.23.26.24ZM33.56 27.3c.1.1.08.16-.06.2a.51.51 0 0 1-.26-.02c-.06-.02-.1-.07-.1-.14s.02-.12.09-.15c.11-.05.22-.01.33.1ZM34.97 27.27c.12.02.14.07.07.16-.14.17-.27.21-.41.14-.1-.04-.1-.1-.04-.18.1-.1.23-.15.38-.12ZM22.25 27.53l.1-.06c.1-.06.15-.03.14.1a.2.2 0 0 1-.08.13.26.26 0 0 1-.15.05c-.37.02-.72.01-1.07-.01-.05 0-.08-.03-.09-.08 0-.07.03-.11.1-.12.28-.05.56-.04.83.02.07.02.15.01.22-.03ZM20.8 27.52l-.94.03a.12.12 0 0 0 0 .24l.95-.03c.06 0 .11-.05.11-.12a.12.12 0 0 0-.12-.12ZM11 28l3.2.02c.06 1.79.36 3.39.87 4.8.56 1.52 1.4 2.91 2.54 4.18a13.35 13.35 0 0 0 11.24 4.6 13.01 13.01 0 0 0 7.75-3.08 14.74 14.74 0 0 0 4.56-7c.2-.73.34-1.97.4-3.52h3.4c.03.35.05.75.03 1.07a16.13 16.13 0 0 1-1.97 6.98 17.57 17.57 0 0 1-4.76 5.51 16.24 16.24 0 0 1-6.83 3.1c-2.48.5-5 .45-7.53-.13a16.13 16.13 0 0 1-6.45-3.16 17.9 17.9 0 0 1-4.62-5.44A15.04 15.04 0 0 1 11 28Z" fill="#00A757"/><path d="M29.13 28.92c.07-.35.24-.62.52-.8.07-.04.1-.03.06.06-.1.28-.29.53-.58.74ZM33.39 28.34h3.53c.13 0 .18.07.17.2a9.26 9.26 0 0 1-10.94 8.57 9.18 9.18 0 0 1-3.6-1.47 8.83 8.83 0 0 1-2.73-2.96l6.68-.06 2.74-.02 6.5.05c.03 0 .05 0 .07-.03a.07.07 0 0 0 0-.08l-2.42-4.2Z" fill="#fff"/><path d="M29.58 31.98a33.8 33.8 0 0 0-3.14-.02c-.2.01-.4-.02-.58-.08a.35.35 0 0 1-.19-.14c-.19-.3-.41-.58-.68-.82-.11-.1-.24-.27-.4-.5-.15-.24-.29-.42-.4-.52-.23-.2-.41-.42-.54-.65a.31.31 0 0 1-.02-.27c.04-.12.09-.12.12 0 .1.29.26.56.52.8.23.23.45.48.65.74.25.35.54.68.85 1 .16.18.36.27.58.26a171.52 171.52 0 0 1 2.69 0c.24.02.41.02.52 0a.7.7 0 0 0 .43-.34c.1-.18.3-.42.56-.72.27-.3.45-.53.55-.7.07-.11.18-.26.34-.44.15-.18.26-.31.32-.41.1-.17.15-.34.17-.53.01-.12.04-.12.08-.01.08.23.07.42-.04.55-.74.92-1.44 1.8-2.1 2.66a.33.33 0 0 1-.29.14Z" fill="#fff"/><path d="m16.93 29.58.44-.75c.09-.15.15-.14.2.03a2.2 2.2 0 0 1-.35 1.76.77.77 0 0 0-.14.44c0 .1-.04.13-.12.05a3.82 3.82 0 0 1-.81-1c-.26-.48-.35-.86-.25-1.15.04-.12.1-.13.15-.02.17.32.4.55.68.7.09.04.15.02.2-.06Z" fill="#00A757"/><path d="m32.44 28.77 1.65 2.8c.05.06.03.1-.06.1l-3.23.01.65-.77c.52-.6.85-1.32 1-2.14Z" fill="#fff"/><path d="m38.98 29.59.55-.6c.13-.14.2-.12.23.07.07.38-.02.74-.25 1.1-.16.24-.43.52-.8.83-.07.06-.13.05-.16-.04l-.15-.34a5.38 5.38 0 0 1-.31-.84c-.08-.32-.07-.6.02-.85a.12.12 0 0 1 .11-.08c.06 0 .1.02.13.06l.4.67c.07.1.14.11.23.02Z" fill="#00A757"/><path d="M23.26 28.91c.23 1.09.78 2.01 1.64 2.78h-3.17a.08.08 0 0 1-.08-.05.08.08 0 0 1 0-.09l1.6-2.64ZM29.61 29.26c-.12-.18-.09-.2.08-.07a.6.6 0 0 1 .2.31c.05.2.02.2-.1.04l-.18-.28ZM30.21 31.94l-.1-.01c.53-.8.99-1.43 1.38-1.9.64-.75.73-.69.27.19a6.75 6.75 0 0 1-1.55 1.72Z" fill="#fff"/><path d="M23.98 29.92a3 3 0 0 1 .14.11c.38.57.82 1.1 1.33 1.58.04.03.04.06 0 .09l-.1.04a.06.06 0 0 1-.07 0 6.32 6.32 0 0 1-1.6-1.88c-.05-.09-.02-.13.08-.12.06 0 .1.04.13.09l.09.1Z" fill="#fff"/><path d="m29.22 30.24.07.02c.08.05.1.1.02.17-.15.13-.3.13-.44 0a.13.13 0 0 0-.15-.02c-.14.05-.22.15-.23.29 0 .05.03.1.07.13.12.09.14.19.07.3-.08.13-.2.17-.33.12-.1-.03-.1-.09-.03-.15a.1.1 0 0 1 .06-.03c.08-.02.12-.06.1-.15a.14.14 0 0 0-.05-.1.2.2 0 0 1-.08-.2.5.5 0 0 0-.13-.47.17.17 0 0 1-.05-.14.32.32 0 0 1 .14-.22.33.33 0 0 1 .26-.06c.19.03.4.04.6.01a.16.16 0 0 1 .17.1v.02c-.11.03-.18.1-.2.19-.01.04 0 .08.02.12.02.04.06.07.1.07Z" fill="#00A757"/><path d="M17.22 31.43c.13-.2.23-.4.3-.62.15-.49.28-.48.39.02.1.52.05 1.04-.16 1.55a.83.83 0 0 0-.07.23v.1c.04.15-.01.19-.15.11-.87-.48-1.34-1.06-1.4-1.75-.03-.24.04-.27.2-.08.18.21.41.38.7.5.07.04.14.02.19-.06ZM38.59 31.58l.73-.6a.07.07 0 0 1 .06 0c.03 0 .04.02.05.04.05.35-.01.67-.19.95a1.6 1.6 0 0 1-.74.63c-.2.09-.37.22-.5.39-.06.08-.1.07-.14-.03a5.22 5.22 0 0 1-.24-1.23c-.03-.5.05-.88.24-1.15.09-.13.16-.12.2.03l.33.92c.04.1.1.13.2.05Z" fill="#F16134"/><path d="m18 33.2.25-.99c.03-.1.08-.11.15-.03.19.2.31.51.38.95.03.25.05.64.05 1.15v.23c0 .13-.06.16-.16.1a5.67 5.67 0 0 0-.62-.3c-.42-.18-.71-.34-.87-.48-.26-.23-.4-.55-.41-.95 0-.02 0-.04.03-.05h.05c.28.22.6.37 1 .46.08.02.14 0 .16-.1Z" fill="#00A757"/><path d="M29.02 32.36c-.84.16-1.66.15-2.46-.02-.06-.01-.08-.05-.07-.1.01-.04.03-.06.07-.06.86-.04 1.7-.04 2.5-.02.03 0 .04.01.04.03v.07c0 .06-.02.09-.08.1Z" fill="#fff"/><path d="m37.77 33.45.81-.4a.08.08 0 0 1 .11.08 1.5 1.5 0 0 1-.89 1.24l-.92.46c-.08.04-.12.02-.1-.07.01-.16.02-.39.01-.69 0-.34 0-.58.03-.75.05-.27.16-.51.32-.73.15-.2.23-.18.25.07.01.27.07.51.18.73.04.09.11.11.2.06ZM32.5 34.57c0 .4-.14.73-.42 1.01-.27.28-.6.42-.98.42l-6.53-.02c-.39 0-.71-.15-.98-.43a1.4 1.4 0 0 1-.41-1.01v-.1c0-.4.14-.74.41-1.02.28-.28.6-.42.99-.42l6.53.02c.38 0 .7.15.98.43.27.28.4.62.4 1.01v.1Z" fill="#00A757"/><path d="M32.1 34.57c0 .25-.1.47-.29.65-.2.19-.44.28-.71.28l-6.54-.01c-.28 0-.51-.1-.71-.28a.86.86 0 0 1-.3-.66v-.13c0-.25.1-.47.3-.65.2-.18.44-.27.72-.27h6.53c.28 0 .52.1.71.28.2.18.3.4.3.66v.13Z" fill="#fff"/><path d="m25.78 34.34.45.13c.18.05.27.16.3.34a.38.38 0 0 1-.19.4c-.31.21-.63.17-.94-.1a.2.2 0 0 1-.07-.16c0-.13.05-.15.15-.09l.3.2c.1.05.2.05.3 0l.1-.07a.11.11 0 0 0 .06-.11.12.12 0 0 0-.08-.1l-.65-.25a.28.28 0 0 1-.19-.2c-.02-.1 0-.2.07-.27.37-.42.74-.4 1.1.08.02.01.01.03 0 .04l-.05.04c-.04.04-.08.04-.12 0a.81.81 0 0 0-.48-.21c-.05 0-.1.01-.13.06-.05.06-.06.12-.04.18.03.04.06.08.11.1ZM28.49 34.27c.15.1.31.17.5.18.15.01.25.08.32.21s.06.26-.01.38c-.2.3-.46.4-.8.27-.2-.07-.3-.21-.27-.43.01-.11.06-.12.13-.03.17.25.36.3.56.17.2-.13.18-.24-.06-.3l-.4-.1a.36.36 0 0 1-.25-.23.36.36 0 0 1 .03-.35.56.56 0 0 1 .57-.28c.24.02.4.15.5.39.02.04.01.07-.02.1-.03.02-.06.03-.1 0l-.49-.24a.16.16 0 0 0-.12-.01.16.16 0 0 0-.1.08l-.03.07c-.02.05-.01.09.04.12ZM19.11 34.84l-.02-.94c0-.11.04-.14.13-.07.26.18.44.4.54.64.07.15.12.38.16.7.04.32.1.57.15.75.04.12 0 .16-.12.13-.3-.08-.59-.14-.88-.2-.49-.07-.9-.4-1.22-.97-.08-.14-.04-.2.12-.16l.98.25c.11.02.17-.02.16-.13ZM27.47 35.03c.09-.06.17-.14.26-.22a.19.19 0 0 1 .2-.04c.08.03.1.08.06.16-.1.2-.26.33-.47.4-.24.07-.43.03-.58-.14-.22-.23-.32-.47-.29-.72.03-.21.14-.4.33-.53a.72.72 0 0 1 .56-.16c.21.03.35.17.43.4.04.14 0 .18-.13.12a.86.86 0 0 1-.25-.17.3.3 0 0 0-.27-.09.3.3 0 0 0-.22.17c-.15.31-.13.57.06.8.1.1.2.1.3.02ZM30.02 35.01c.18-.01.35.01.5.07.24.08.23.14 0 .18a2.7 2.7 0 0 1-.82.01c-.1-.01-.14-.06-.14-.15l.04-1.2c0-.08.04-.12.12-.12h.1c.06 0 .09.03.09.1l-.03.98c0 .04.02.07.04.1.03.02.06.03.1.03ZM36.62 35.25l.83-.29a.1.1 0 0 1 .12.02.1.1 0 0 1 .02.12c-.12.4-.37.68-.75.85-.25.12-.63.21-1.15.28-.1 0-.14-.03-.13-.13l.02-.24c.03-.46.08-.8.15-1.01.11-.35.32-.61.62-.8a.06.06 0 0 1 .06-.01c.03.01.04.03.04.05l.02 1.05c0 .04.01.07.04.1.04.01.07.02.1 0Z" fill="#F16134"/><path d="M20.47 36.3a4.25 4.25 0 0 0-.11-.76c-.1-.4 0-.47.32-.19.47.43.76 1.04.87 1.84 0 .08-.03.12-.11.13-.47.03-.89 0-1.25-.09a1.67 1.67 0 0 1-1.03-.63c-.18-.27-.12-.36.2-.27.3.09.62.13.95.13.1 0 .16-.05.16-.16ZM35.32 36.63l.96-.08c.13-.01.16.04.1.15-.18.33-.5.56-.94.69a6.1 6.1 0 0 1-1.24.16c-.1 0-.13-.03-.09-.12.14-.32.23-.63.27-.93.06-.32.32-.67.8-1.05.1-.06.13-.04.12.06l-.08 1.03c0 .07.03.1.1.1Z" fill="#00A757"/><path d="m21.92 37.4-.22-.86c-.04-.16 0-.2.15-.14.25.11.46.26.64.44.2.2.33.4.4.65s.2.48.37.68c.1.11.08.17-.07.16-.17 0-.41.01-.72.04-.43.03-.75.03-.95 0a1.7 1.7 0 0 1-.9-.52c-.14-.14-.1-.2.09-.17.35.06.72.02 1.11-.1.1-.03.12-.09.1-.18ZM33.8 37.77c.37.1.72.14 1.03.11.14-.01.16.03.07.13-.3.31-.66.5-1.1.55-.3.03-.72 0-1.25-.08-.1-.01-.12-.06-.07-.14.1-.16.22-.4.34-.69.1-.28.21-.5.31-.62.16-.2.39-.37.69-.5.05-.02.1-.01.13.02.04.04.06.09.04.14l-.29.89c-.03.1 0 .16.1.19Z" fill="#F16134"/><path d="m23.72 38.43-.49-.96a.08.08 0 0 1 .01-.1c.03-.02.06-.03.1-.02.26.07.5.18.74.34.18.11.4.34.66.67.17.21.3.37.4.47.03.02.04.05.03.08 0 .03-.02.05-.05.07-1.1.55-1.97.55-2.6.01-.1-.09-.08-.14.06-.14.38 0 .73-.06 1.05-.18.12-.05.15-.12.1-.24ZM32.04 38.7c.4.14.78.23 1.16.27.12.01.13.05.03.12-.5.36-.97.5-1.44.4-.42-.07-.88-.18-1.38-.3-.12-.03-.13-.09-.04-.17l.28-.25c.06-.05.11-.12.15-.19.33-.68.87-1.05 1.64-1.1.12 0 .14.04.06.13-.23.26-.4.56-.53.93-.03.07 0 .12.07.15Z" fill="#00A757"/><path d="M17.48 38.31c-.35-.04-.62.11-.84.44-.06.1-.08.2-.05.3.04.13.14.2.28.22.08 0 .15-.02.2-.07l.44-.42a.17.17 0 0 0 .05-.2l-.08-.27c.24.16.44.34.57.55.08.12.05.15-.08.1a.27.27 0 0 0-.1-.01.25.25 0 0 0-.2.1c-.13.17-.27.29-.42.37-.15.07-.3.1-.45.08a.63.63 0 0 1-.38-.21c-.1-.13-.19-.3-.23-.51-.02-.1 0-.2.08-.26l.13-.12.29-.3c.1-.12.14-.24.13-.35 0-.04.01-.06.05-.08.03-.01.06 0 .09.03l.52.61ZM38.7 38.6a.25.25 0 0 0 .07-.14c.02-.1.07-.14.17-.11.14.04.26.13.34.26.06.08.04.13-.06.14a.46.46 0 0 0-.24.08c-.13.1-.11.17.05.2l.27.05a.1.1 0 0 1 .08.07.1.1 0 0 1-.03.1l-.41.42c-.08.08-.14.06-.16-.05a1.18 1.18 0 0 0-.64-.78.25.25 0 0 0-.2-.02c-.03.01-.06 0-.08-.02-.04-.06-.03-.11.02-.16.27-.23.5-.47.72-.73a.38.38 0 0 1 .28-.14c.11 0 .21.03.3.1a.1.1 0 0 1 .03.1.1.1 0 0 1-.06.08c-.15.06-.3.1-.44.14a.3.3 0 0 0-.18.11.24.24 0 0 0-.03.25c.04.11.1.13.2.05Z" fill="#fff"/><path d="m25.55 38.88-.58-.75a.07.07 0 0 1-.01-.08.07.07 0 0 1 .07-.05c.42 0 .82.1 1.2.31.24.13.57.37 1 .72l.35.3c.02.01.03.03.03.05 0 .03-.02.05-.05.05a14 14 0 0 0-.64.2c-.47.16-.82.26-1.06.29-.39.05-.77 0-1.14-.15-.34-.13-.33-.24.03-.31.3-.07.56-.2.78-.38.07-.06.08-.13.02-.2ZM29.9 39.27c.3.2.62.36.97.47.17.06.17.12.01.19a2.13 2.13 0 0 1-2.16-.17 2.32 2.32 0 0 0-.62-.3.08.08 0 0 1-.06-.06c0-.04 0-.06.04-.08.16-.1.36-.26.62-.46.3-.25.53-.41.7-.5.28-.13.6-.2.96-.2.21 0 .25.09.1.25l-.58.66c-.07.08-.06.14.02.2Z" fill="#F16134"/><path d="M18.87 40.19c.1-.1.16-.2.14-.34-.02-.16.04-.2.18-.1l1.54 1a.6.6 0 0 1 .29.64c-.08.47-.35.66-.83.57a2.64 2.64 0 0 1-1.08-.53c-.08-.06-.07-.1.02-.15.31-.15.52-.41.6-.8a.21.21 0 0 0-.05-.19c-.18-.2-.35-.18-.52.03a15 15 0 0 0-.47.62c-.06.08-.13.1-.22.07s-.13-.1-.13-.19l.03-.86c0-.14-.05-.16-.15-.07a.58.58 0 0 0-.22.54c.02.1-.02.14-.12.08a1.48 1.48 0 0 1-.4-.31c-.05-.05-.04-.08.02-.11.46-.2.7-.51.7-.96 0-.08.03-.1.1-.07.19.1.34.23.47.39.05.07.07.14.04.23-.06.15-.08.3-.08.44 0 .12.05.14.14.07ZM38.1 39.44c.13.16.17.36.12.6-.05.22-.18.42-.38.58-.2.16-.42.24-.65.24a.67.67 0 0 1-.55-.25.66.66 0 0 1-.12-.59c.05-.23.17-.42.38-.58.2-.17.42-.25.65-.24.24 0 .42.08.55.24Z" fill="#fff"/><path d="M37.02 40.29c.17.22.46.29.66.14.2-.15.21-.45.04-.67-.17-.23-.46-.29-.66-.14-.2.14-.21.44-.04.67Z" fill="#00A757"/><path d="M36.4 40.74c.1.18.12.38.04.6-.08.22-.23.4-.45.53-.23.14-.46.19-.69.16a.66.66 0 0 1-.51-.3.66.66 0 0 1-.04-.6c.08-.22.23-.4.45-.54.23-.13.45-.19.69-.16.23.03.4.13.51.31Z" fill="#fff"/><path d="M20.12 40.78a.12.12 0 0 1 .07-.06l.1.01.04.03c.12.07.2.17.25.3a.4.4 0 0 1-.04.36l-.03.05a.42.42 0 0 1-.3.2.54.54 0 0 1-.37-.07l-.05-.03a.12.12 0 0 1-.06-.08l.01-.09.38-.62ZM35.22 41.47c.16.24.45.31.66.18.2-.14.24-.44.09-.68-.16-.23-.46-.31-.66-.17-.21.14-.25.44-.1.67Z" fill="#00A757"/><path d="M21.86 41.81a.9.9 0 0 1-.15.49c-.07.12-.04.22.1.28.22.1.47.09.73-.04.1-.05.14-.02.13.09a.42.42 0 0 1-.27.36.3.3 0 0 1-.24 0l-1.07-.45c-.13-.06-.14-.12-.03-.2a.16.16 0 0 1 .07-.04.25.25 0 0 0 .19-.13c.18-.34.24-.64.17-.9-.03-.09 0-.12.09-.08l1.1.45c.06.02.1.06.13.12.04.1.05.22.01.34-.03.1-.09.1-.16.03a.51.51 0 0 1-.14-.21.24.24 0 0 0-.17-.17l-.3-.09c-.13-.04-.2.01-.2.15ZM34.2 42.24l.47.09c.17.03.2.1.06.2a.49.49 0 0 1-.43.11c-.1-.01-.23-.07-.42-.16a4.47 4.47 0 0 0-.18-.09c-.15-.06-.2-.02-.17.14.03.11.1.18.23.2.21.03.22.1.02.19l-.57.21c-.1.03-.13 0-.1-.1.06-.3-.02-.61-.22-.93a.14.14 0 0 0-.13-.07c-.03 0-.07-.01-.1-.03-.1-.07-.1-.13.02-.18l1.14-.46a.34.34 0 0 1 .25 0c.09.02.15.07.2.15.1.21.07.39-.12.52a.1.1 0 0 0-.04.12c0 .05.04.08.09.1Z" fill="#fff"/><path d="M33.65 42.06c.17-.07.28-.2.24-.3-.03-.1-.2-.11-.38-.04s-.29.2-.25.3c.04.1.22.11.39.04Z" fill="#00A757"/><path d="M24.28 43.13c.07.12.15.22.24.3.25.23.21.3-.12.25a.52.52 0 0 1-.3-.16c-.04-.05-.1-.14-.16-.27l-.12-.2c-.21-.3-.29-.27-.23.09 0 .06.02.11.05.17.05.12.02.16-.1.13l-.62-.17c-.1-.02-.1-.06-.03-.13.35-.33.46-.73.33-1.2-.01-.06.01-.09.08-.07.44.1.85.22 1.2.37.2.08.29.24.26.46 0 .08-.05.14-.14.16l-.27.1c-.1.02-.13.08-.07.16ZM22.04 41.9c.13-.02.23.05.3.2.03.1.01.18-.07.24-.17.13-.3.06-.4-.2a.18.18 0 0 1 .03-.16.18.18 0 0 1 .14-.08ZM28.6 43.24c0 .26.07.48.21.66.06.07.05.11-.05.12h-.53c-.07 0-.09-.03-.05-.1.25-.39.21-.8-.11-1.21a.06.06 0 0 1 0-.08.06.06 0 0 1 .05-.03l.52-.02c.1 0 .17.04.22.13.08.15.18.28.3.39.1.09.14.07.14-.06a.5.5 0 0 0-.2-.38c-.02-.02-.03-.04-.02-.07 0-.03.03-.04.05-.04.64-.05 1.24-.15 1.8-.29.32-.08.54.01.67.28.01.03 0 .06-.02.09a.08.08 0 0 1-.08.02 3.75 3.75 0 0 0-.51-.12c-.16-.02-.28.02-.36.13a.1.1 0 0 0-.02.1c0 .04.03.06.06.08.08.03.15.01.22-.05.04-.04.09-.06.15-.05.06 0 .1.04.13.1.06.1.06.2.02.32-.05.12-.11.14-.2.04l-.1-.09a.09.09 0 0 0-.08-.03.1.1 0 0 0-.07.05.29.29 0 0 0-.03.18c.02.1.07.16.18.18.32.04.54-.1.67-.45a.12.12 0 0 1 .08-.08.1.1 0 0 1 .08.01c.04.03.05.06.05.1l-.06.36c-.02.13-.1.2-.22.22l-1.25.2c-.1.02-.13-.01-.07-.1.23-.32.2-.7-.09-1.12a.2.2 0 0 0-.21-.1.37.37 0 0 0-.24.14.37.37 0 0 0-.07.27l.08.84c.02.12-.04.18-.16.18-.11 0-.22-.05-.32-.16a2.44 2.44 0 0 1-.25-.35 2.25 2.25 0 0 0-.18-.26c-.09-.1-.13-.09-.13.05Z" fill="#fff"/><path d="M23.94 42.68c.17.04.33-.01.36-.12.02-.1-.1-.22-.27-.26-.17-.04-.33.02-.35.12-.03.1.1.22.26.26Z" fill="#00A757"/><path d="M27.8 43.37a.67.67 0 0 1-.31.5c-.2.14-.43.2-.69.17a1.05 1.05 0 0 1-.65-.27.66.66 0 0 1-.23-.56c.02-.2.12-.38.32-.5.2-.14.43-.2.69-.17.26.02.47.11.65.27.17.17.24.35.23.56Z" fill="#fff"/><path d="M26.42 43.2c-.05.28.1.54.35.58.25.05.48-.14.54-.4.05-.28-.1-.54-.35-.58-.24-.05-.48.13-.54.4Z" fill="#00A757"/></svg>