<svg width="56" height="56" viewBox="0 0 56 56" xmlns="http://www.w3.org/2000/svg"><path fill="#F0F3FA" d="M0 0h56v56H0z"/><path d="M23.84 29c1.82 0 3.81-2.05 4.86-3.37 1.35-1.7 2.85-3.53 4.85-4.3a6.15 6.15 0 0 1 2.2-.33H48.8a.18.18 0 0 1 .16.08.17.17 0 0 1 0 .17 13.6 13.6 0 0 1-2.43 3.7A6.83 6.83 0 0 1 41.66 27h-9.8c-1.5.01-3.36 1.5-4.43 2.47-1.29 1.17-2.55 1.93-3.78 3-1.76 1.54-3.74 2.53-6.2 2.53H7.39a.38.38 0 0 1-.25-.1.37.37 0 0 1-.12-.24c-.03-.23.02-.47.15-.69.98-1.8 2.33-3.2 4.04-4.23a5.54 5.54 0 0 1 2.92-.74h9.72Z" fill="#264895"/><path d="M43.6 29.3c-1.07 2.2-2.2 4.79-4.78 5.45-.67.17-1.49.26-2.45.25H25.12a.28.28 0 0 1-.29-.27c0-.05.01-.1.03-.14a10.4 10.4 0 0 1 5.65-5.25 5 5 0 0 1 1.77-.34h11.13a.22.22 0 0 1 .21.2c0 .04 0 .07-.02.1Z" fill="#737371"/></svg>