<svg width="56" height="56" viewBox="0 0 56 56" xmlns="http://www.w3.org/2000/svg"><path fill="#F0F3FA" d="M0 0h56v56H0z"/><path d="M12 18h.51v10.86c0 .01 0 .02-.02.02h-.47c-.01 0-.02 0-.02-.02V18ZM12.87 18h.51v10.87a.02.02 0 0 1-.01 0h-.48l-.02-.01V18ZM13.75 18h.5V28.88h-.5V18ZM14.62 18h.5v10.86l-.01.02h-.48l-.01-.02V18ZM15.5 18h.5v10.86c0 .01 0 .02-.02.02h-.47c-.01 0-.02 0-.02-.02V18Z" fill="#B2CBBA"/><path d="M16.14 29.06c.1-.1.13-.24.13-.42v-2.6c0-.02.02-.04.04-.04h.65c.02 0 .04.02.04.05v3c0 .25-.05.6-.2.77-.16.2-.34.18-.56.18h-4.52c-.3 0-.53-.04-.64-.38a1.89 1.89 0 0 1-.08-.57v-3c0-.03.01-.05.04-.05h.65c.02 0 .04.02.04.05v2.6c0 .2.06.46.26.46h4.06c.03 0 .07-.02.1-.05ZM18.71 28.46v1.49c0 .03-.01.05-.04.05h-.63c-.03 0-.04-.01-.04-.04v-3.91c0-.03.01-.05.04-.05h5.51c.27 0 .44.24.44.57v1.28c0 .34-.18.55-.45.55h-4.78c-.03 0-.05.02-.05.06Zm4.68-1.16v-.2c0-.2-.08-.3-.24-.3h-4.42c-.01 0-.02.01-.02.03v.76H23.15c.16 0 .24-.1.24-.29ZM32.74 27.56h5.24l.01.01v.01l.01.01v.82a.03.03 0 0 1 0 .02h-5.26v.01h-.01v.02h-.01v.64a.03.03 0 0 0 0 .02h5.25l.02.01v.03l.01.81a.03.03 0 0 1 0 .02h-.02V30H32l-.01-.03v-3.96l.02-.01h5.96l.01.01.01.02v.81a.03.03 0 0 1 0 .02l-.02.01h-5.24l-.02.01v.68h.02ZM46.74 29.13H52v.03l.01.81v.02l-.02.01H46l-.01-.03v-3.96l.02-.01H52l.01.03v.81a.03.03 0 0 1 0 .02l-.02.01h-5.24l-.01.01-.01.02v.66h5.26l.01.01.01.02v.84h-5.26v.01h-.01l-.01.02v.64a.03.03 0 0 0 0 .02h.02ZM9.38 28.91v-.21c0-.2-.08-.3-.25-.3h-4.6c-.33 0-.53-.2-.52-.62L4 26.77c0-.38.07-.72.4-.77h.38a5296.27 5296.27 0 0 1 5.22.02v.78H4.87c-.17 0-.26.1-.25.31v.19c0 .2.08.3.24.3h4.67c.38 0 .46.34.46.76v1.04c-.01.41-.21.6-.53.6A962 962 0 0 0 4 29.98v-.77l.02-.02h5.13c.15 0 .23-.1.23-.28ZM30.47 28.45l.53 1.53V30h-.01l-.68.01c-.01 0-.02 0-.02-.02l-.53-1.53c-.01-.03-.03-.05-.06-.05h-3.95c-.03 0-.04.02-.04.06v1.53h-.03l-.64.01c-.03 0-.04-.02-.04-.05v-3.92c0-.02 0-.03.03-.03h5.47c.3 0 .49.19.5.59v1.02c0 .45-.08.81-.5.79-.03 0-.04.01-.03.05Zm-4.77-1.6v.7l.01.04.03.01h4.39c.07 0 .13-.03.18-.08a.28.28 0 0 0 .08-.2v-.24a.28.28 0 0 0-.08-.2.26.26 0 0 0-.18-.08h-4.39s-.02 0-.03.02v.03ZM42.26 30a.88.88 0 0 0-.52 0 41.79 41.79 0 0 1-.05-3.07c0-.03 0-.04-.03-.04h-1.72a.1.1 0 0 0-.07.03c-.15.14-.14.32-.14.55v2.44c0 .04-.01.06-.04.06h-.64c-.03 0-.05-.02-.05-.06v-2.87c0-.25.03-.49.1-.7.12-.37.47-.34.74-.34h4.6c.51 0 .56.63.56 1.13v2.78c0 .04-.01.06-.04.06h-.65c-.03 0-.04-.02-.04-.06v-2.65c0-.25-.1-.37-.3-.37H42.3v.02c.02 1.04 0 2.07-.05 3.09Z" fill="#00A0E3"/><path d="M41.35 27.5h-.45l-.02.03v10.45c0 .01 0 .02.02.02h.45l.02-.02V27.53l-.02-.02Zm-.88 0h-.45l-.02.03v10.45s0 .02.02.02h.45l.02-.02V27.53c0-.01 0-.02-.02-.02Zm2.18 0h.46l.02.03v10.45l-.02.02h-.46l-.02-.02V27.53l.02-.02Zm1.33 0h-.45l-.02.03v10.45c0 .01 0 .02.02.02h.45l.02-.02V27.53l-.02-.02Zm-1.73 10.48.02-7.92a1 1 0 0 0-.53 0v7.92l.02.02h.48l.01-.02Z" fill="#B2CBBA"/></svg>