<svg width="56" height="56" viewBox="0 0 56 56" xmlns="http://www.w3.org/2000/svg"><path fill="#F0F3FA" d="M0 0h56v56H0z"/><path d="M16 32.41c0-8.12 7.78-18.33 11.68-22.41.97.9 3.34 3.27 5.06 5.6-2.38.81-9.86 4.31-9.86 10.37 0 4.84 7.36 10.93 11.05 13.37v4.03A11.6 11.6 0 0 1 28.78 45C23.6 45 16 42.57 16 32.41Z" fill="#1171B8"/><path d="M33.93 39.53v3.84A11.6 11.6 0 0 1 28.78 45c-4.4 0-10.58-1.77-12.31-8.58 2.08 3.04 5.62 6.3 10.53 6.3 3.46 0 5.62-1.43 6.93-3.2Z" fill="#00ADE9"/><path d="M40 33.27c0-6.17-4.62-13.79-6.93-16.82-2.14 1.34-6 4.41-6 7.32 0 2.33 1.98 4.4 2.96 5.14 1.73 1.33 5.18 4.52 5.18 6.64s-.89 3.44-1.33 3.83v3.97c2.04-.79 6.12-6.2 6.12-10.08Z" fill="#95C120"/></svg>