<svg width="56" height="56" viewBox="0 0 56 56" xmlns="http://www.w3.org/2000/svg"><path fill="#F0F3FA" d="M0 0h56v56H0z"/><path d="M10.94 22.44c-.4-.16-.8-.3-1.22-.45-1.33-.47-2.24-1.3-2.07-2.87.17-1.5 1.64-2.17 2.95-2.12a3.24 3.24 0 0 1 2.62 1.42l-.02.02-1.18.92a.06.06 0 0 1-.08-.01 1.87 1.87 0 0 0-1.69-.62c-.43.05-.84.31-.77.81.05.44.5.62.85.75l1.1.4c.9.34 1.9.88 2.13 1.92.37 1.66-.46 3.02-2.11 3.3-1.3.23-2.77.02-3.76-.96l-.27-.26a2.26 2.26 0 0 1-.4-.57v-.05c.22-.17.5-.32.7-.45a60.58 60.58 0 0 0 .7-.48l.02.01c.56.9 1.53 1.24 2.53 1.07.16-.02.3-.08.45-.17a.75.75 0 0 0 .18-1.12c-.07-.09-.11-.18-.2-.25a2.5 2.5 0 0 0-.46-.24ZM17.73 21.98l.01.01h.01l2.39-4.95a.07.07 0 0 1 .06-.04h2.01a.03.03 0 0 1 .03.04c-.08.18-.18.36-.29.52-.1.15-.2.32-.29.51l-2.12 4.3-.2.41a841.82 841.82 0 0 1-1.6 3.22.03.03 0 0 1-.02-.01c-.59-1.19-1.18-2.38-1.75-3.58l-1.23-2.48c-.13-.26-.3-.49-.43-.76-.32-.67-.67-1.38-1.05-2.12-.01-.03 0-.05.03-.05h2l.04.01.04.04 2.36 4.93Z"/><path fill-rule="evenodd" d="M25 25.96v-2.93c0-.03.02-.03.04-.03h1.62c1.2 0 2.5-1 2.86-2.08.22-.69.22-1.25 0-1.94-.04-.1-.08-.2-.15-.29l-.1-.17A3.1 3.1 0 0 0 26.48 17a328.37 328.37 0 0 1-3.48.01v.02L23 25.96l.01.03.03.01h1.94c.02 0 .02-.01.02-.04Zm0-7.16v2.46h1.57c.3 0 .58-.12.79-.33.2-.22.32-.5.32-.81v-.18c0-.3-.12-.6-.32-.8a1.1 1.1 0 0 0-.8-.34h-1.55Z"/><path d="M13.2 32.69h-2.14c-.04 0-.06-.02-.06-.06v-1.6l.02-.02h.02l3.92-.01c.03 0 .04.01.04.04v3.08c0 .03 0 .05-.02.08-.13.22-.25.39-.37.5a4.42 4.42 0 0 1-6.33-.03 7.29 7.29 0 0 1-.72-1.03 3.2 3.2 0 0 1-.36-.76 4.8 4.8 0 0 1 .01-2.8c.06-.18.16-.39.3-.61.33-.57.7-1.15 1.23-1.55a4.42 4.42 0 0 1 5.7.27l.19.13a.12.12 0 0 1 .05.1.12.12 0 0 1-.04.09l-.2.13c-.34.32-.67.63-1 .92-.01.02-.03.02-.05 0a2.71 2.71 0 0 0-3.28-.38c-.96.6-1.4 1.75-1.18 2.88.4 2.09 2.71 2.75 4.25 1.55a.17.17 0 0 0 .05-.06.18.18 0 0 0 .02-.08v-.73c0-.03-.02-.05-.05-.05ZM22 34.02v1.96a.02.02 0 0 1-.01.02H17v-.02L17 27.02v-.01h.02l1.96-.01h.01v.02l.01 6.96a.02.02 0 0 0 0 .01.02.02 0 0 0 .02.01h2.96a.02.02 0 0 1 .02 0v.02ZM47.02 34h2.96l.02.01V36h-.02l-4.96.01h-.01v-.02L45 27.02v-.01h.02l1.96-.01h.01l.01.02v6.96l.01.01.01.01Z"/><path fill-rule="evenodd" d="M37.91 35.97c.23-.43.44-.88.63-1.33a.05.05 0 0 1 .05-.04H42a.04.04 0 0 1 .04.04l.03.1a65.92 65.92 0 0 0 .61 1.25h.02l1.95.01c.04 0 .05-.02.03-.05-.19-.36-.36-.7-.5-1.03-.4-.9-.85-1.8-1.29-2.68a168.89 168.89 0 0 1-.2-.38c-.05-.07-.1-.13-.13-.2l-1.08-2.23-.33-.7c-.25-.54-.55-1.18-.83-1.72a.02.02 0 0 0-.03 0l-4.31 8.94a.04.04 0 0 0 0 .03V36h1.9c.02 0 .03 0 .04-.02Zm2.35-5.12-1.01 2.13V33h2.05a.02.02 0 0 0 .02 0 .02.02 0 0 0 0-.02l-1.02-2.13v-.01h-.02a.02.02 0 0 0-.02 0ZM34.89 31.12c.82.2 1.45.77 1.63 1.6A2.67 2.67 0 0 1 33.9 36a2293.84 2293.84 0 0 1-3.9-.02v-8.94c0-.03.01-.04.03-.04h3.42c1.02 0 2.02.56 2.34 1.61.28.93.06 2.02-.9 2.47-.05.02-.05.03 0 .04ZM32 28.8c0-.02 0-.03.02-.04a.05.05 0 0 1 .03-.02h1.22a.9.9 0 0 1 .84.57c.05.11.07.23.07.35v.02c0 .25-.1.48-.27.65a.9.9 0 0 1-.64.27h-1.22l-.03-.02a.05.05 0 0 1-.02-.04V28.8Zm.02 3.22a.08.08 0 0 0-.02.06v1.97c0 .02 0 .04.02.05l.06.03h1.57a1.16 1.16 0 0 0 .78-.3 1.04 1.04 0 0 0 .33-.74v-.05a1 1 0 0 0-.33-.74 1.1 1.1 0 0 0-.78-.3h-1.57c-.02 0-.04 0-.06.02Z"/><path d="M22.03 29.92a4.23 4.23 0 0 0 .17 3.7c.07.14.2.36.4.65.17.23.32.42.48.56a4.04 4.04 0 0 0 3.82.87c.04-.01.07 0 .08.05l.14.47c.01.04 0 .06-.04.08a4.55 4.55 0 0 1-1.1.2l-.01.03v1.55h3.11l.01.03v.56c0 .02 0 .03-.02.03H7.05c-.03 0-.05-.02-.05-.06v-.52c0-.02.02-.04.04-.04h18.3c.01 0 .02 0 .02-.03v-1.56a.02.02 0 0 0-.02-.02 4.57 4.57 0 0 1-3.53-2.25l-.2-.32c-.13-.21-.26-.43-.35-.7a5 5 0 0 1 .12-3.52 85.12 85.12 0 0 0 .23-.37c.24-.4.5-.84.8-1.15a4.54 4.54 0 0 1 1.9-1.2l.18.56-.01.02c-.48.17-.9.42-1.3.74-.1.08-.16.17-.23.26a4.66 4.66 0 0 0-.93 1.39Z" fill="#D61822"/><path fill-rule="evenodd" d="m28.15 28.9-.39-.33a2.24 2.24 0 0 0-.43-.32 3.4 3.4 0 0 0-3.76.36l-.28.26a3.57 3.57 0 0 0-1.14 2.66 3.69 3.69 0 0 0 .99 2.61l.15.18c.13.14.26.26.4.36 1.2.86 2.83.83 4.03 0 .18-.13.32-.29.47-.45l.24-.26c.58-.56.88-1.5.9-2.28a3.72 3.72 0 0 0-.55-2.07c-.13-.2-.31-.4-.5-.57l-.13-.14Zm-4.71 4.62a3.23 3.23 0 0 1-.56-2.82c.02-.13.04-.13.07 0l.12.76a7.72 7.72 0 0 0 .6 1.6l-.01.08-.17.38-.01.01a.03.03 0 0 1-.04 0Zm.64-1.05-.38-1.1a6.15 6.15 0 0 1-.15-1.76c0-.06.03-.11.08-.16l.37-.32c.04-.04.06-.03.05.02-.1.6-.09 1.2.04 1.82a5.02 5.02 0 0 0 .33 1.13l-.32.37h-.01Zm2.05-1.22a3.2 3.2 0 0 0-1.46-.74.86.86 0 0 1-.07-.45c0-.02.01-.03.03-.03.84.17 1.54.58 2.1 1.22a5.19 5.19 0 0 1 1.01 2.5l-.33.3h-.01v-.01a40.5 40.5 0 0 0-.14-.78 3.55 3.55 0 0 0-1.13-2Zm-1.95 2.25c.38-.77.96-1.3 1.74-1.58l.2.24a.05.05 0 0 1 0 .04v.02l-.02.01c-.19.1-.37.22-.54.33a2.84 2.84 0 0 0-1.21 1.7h-.01l-.36-.22a.03.03 0 0 1 0-.04l.2-.5ZM26 28.58c.68.12 1.3.39 1.8.9.23.27.39.48.45.62l.3.65c.03.04.03.07.02.1 0 .04-.01.04-.03.02l-.42-.59a4.28 4.28 0 0 0-1.93-1.51l-.62-.22c-.06-.02-.06-.04 0-.05.1-.03.19 0 .28.04l.15.04Zm1.17 1.57a3.93 3.93 0 0 0-2.45-1.02c-.04 0-.07.03-.08.06a.36.36 0 0 0-.01.14c0 .02 0 .04.02.05l.04.03c1.13.19 2.03.75 2.7 1.7.28.4.5.85.67 1.33l.17.53c.03.07.05.07.07 0 .05-.18.12-.34.22-.51a.05.05 0 0 0 0-.05.71.71 0 0 1-.1-.19 5 5 0 0 0-1.25-2.07ZM25 31.67l.28-.17.01-.02.01-.02a.05.05 0 0 0-.03-.05l-.4-.19a.05.05 0 0 0-.06.01.05.05 0 0 0 0 .06l.12.35.01.02.02.01a.05.05 0 0 0 .04 0Zm.41 2.9a2.2 2.2 0 0 1 1.15-1.48c.02-.01.02-.03.01-.05l-.1-.25c0-.02-.02-.03-.04-.01-.7.36-1.32.88-1.47 1.7-.01.06.01.1.08.12l.26.05c.06 0 .1-.02.11-.08Zm.83-.38.43-.41.03-.02h.03a.05.05 0 0 1 .03.05l.05.62v.04l-.04.02-.65.16a.05.05 0 0 1-.05-.02.06.06 0 0 1-.01-.05l.16-.37.02-.02Z" fill="#D61822"/><path fill-opacity=".5" d="M29.96 37.29h19.42V39H29.96z"/></svg>