<svg width="56" height="56" viewBox="0 0 56 56" xmlns="http://www.w3.org/2000/svg"><path fill="#F0F3FA" d="M0 0h56v56H0z"/><path fill-rule="evenodd" d="M45 28a17 17 0 1 1-34 0 17 17 0 0 1 34 0Zm-2 0a15 15 0 1 1-30 0 15 15 0 0 1 30 0ZM20.6 16.7c-.77.66-.44 1.71-.18 2.15.91.9 2.65.83 3.5 0 .7-.66 1.3-.73 1.52-.68 1.3.6.92 2.52.57 3.4-.88 2.26-2.56 3.63-4.15 4.93-2 1.63-3.86 3.16-3.86 6.17C18 38.1 25.25 39 26.2 39c.75 0 2.25-.15 2.9-.22-.45-1.7-.64-3.67-.67-4.45 0-5.28 3.36-8 4.7-9.07.21-.18.38-.31.46-.4a6.2 6.2 0 0 1 1.27-1.05c.57.8-.47 2.59-1.31 4.04l-.3.51c-.2.35-.43.7-.67 1.09-.85 1.3-1.85 2.84-1.85 4.59 0 1.8.8 3.81 1.2 4.6l5.3-.38c2.07-5.2 1.9-7.5 1.57-8.01-2.54 1.72-3.12 3.13-3.42 3.88-.17.41-.26.62-.55.56-.83-.17-.33-2.44.18-3.44l.34-.6c.72-1.2 1.98-3.32 1.98-6.34 0-2.87-1.37-5.29-2.06-6.14-1.5 3.4-2.28 4.31-4.88 6.14s-3.76 3.63-4.2 4.72c-.42 1.08-1.1 2.1-1.75 2.1-.57 0-.53-.95-.52-1.43v-.16c0-.36.7-1.4 2.09-2.84 1.4-1.44 3.54-3.8 3.54-6.19 0-2.39-2.18-5.48-4.76-5.5-2.28-.04-3.06.66-3.87 1.4l-.32.29Zm-1.45 1.88c-.76.23-.99 2.02-1 2.11 1.64-.44 2.08-.85 2.15-1.03.06-.18-.38-1.32-1.15-1.08Z"/></svg>