<svg width="56" height="56" viewBox="0 0 56 56" xmlns="http://www.w3.org/2000/svg"><path fill="#FC654E" d="M0 0h56v56H0z"/><path d="M26 19h-4v2h1.5v3.74A4.63 4.63 0 0 0 21 24c-2.76 0-5 2.46-5 5.5s2.24 5.5 5 5.5c.91 0 1.76-.27 2.5-.74V35H27v-2h-1V19Zm-2.5 12.44A2.91 2.91 0 0 1 21 33c-1.66 0-3-1.57-3-3.5s1.34-3.5 3-3.5c1.04 0 1.96.62 2.5 1.56v3.88ZM29 39h4v-2h-1.5v-3.74c.74.47 1.59.74 2.5.74 2.76 0 5-2.46 5-5.5S36.76 23 34 23c-.91 0-1.76.27-2.5.74V23H28v2h1v14Zm2.5-12.44A2.91 2.91 0 0 1 34 25c1.66 0 3 1.57 3 3.5S35.66 32 34 32a2.91 2.91 0 0 1-2.5-1.56v-3.88ZM8.02 21h2.48v3H14v2h-3.5v6c0 .77.7 1.37 1.45 1.28l1.67-.2v1.76l-3.07.16c-1.55 0-2.53-.94-2.53-2.32V26H6v-2h2.02v-3ZM49 23.74c-.4-.24-1.58-.74-3.7-.74-2.65 0-4.3 1.4-4.3 3s.83 2.51 3.98 3.33c1 .24 2.52.7 2.52 1.46 0 .77-.75 1.6-2.4 1.6a4.8 4.8 0 0 1-2.1-.47V30h-2v3.3c.32.24 1.62.7 4.1.7 3.1 0 4.9-1.32 4.9-3.21 0-1.44-.9-2.37-4-3.3-1.5-.42-2.5-.73-2.5-1.54 0-.82.8-1.4 2-1.4.64 0 .96.16 1.5.3V26h2v-2.26Z" fill="#FDFFFF"/></svg>