<svg xmlns="http://www.w3.org/2000/svg" width="56" height="56"><path fill="#322D6F" d="M0 0h56v56H0z"/><path fill="#7670B4" d="M9 28L28 9l19 19-19 19z"/><path fill-rule="evenodd" d="M20.05 27.65L28 19.7l7.95 7.95L28 35.6l-7.95-7.95zm5.06-3.75L28 21.01l2.89 2.89L28 26.79l-2.89-2.89zM28 28.3l-2.89 2.88L28 34.07l2.89-2.89L28 28.29zm.91-.65l2.9-2.89 2.88 2.89-2.89 2.89-2.89-2.89zm-4.47-2.89l-2.89 2.89 2.9 2.89 2.88-2.89-2.89-2.89z" fill="#fff"/><circle cx="24.44" cy="27.65" r=".87" fill="#fff"/><circle cx="17.27" cy="27.61" r=".87" fill="#fff"/><circle r=".87" transform="matrix(-1 0 0 1 38.97 27.65)" fill="#fff"/><circle cx="28" cy="24" r="1" fill="#fff"/><circle cx="24.35" cy="20.19" r=".87" fill="#fff"/><circle r=".87" transform="matrix(1 0 0 -1 24.35 35.1)" fill="#fff"/><circle r=".87" transform="matrix(-1 0 0 1 31.9 20.19)" fill="#fff"/><circle cx="31.9" cy="35.11" r=".87" fill="#fff"/><circle cx="28" cy="31" r="1" fill="#fff"/><circle cx="31.8" cy="27.65" r=".87" fill="#fff"/><path fill-rule="evenodd" d="M21.1 26.88l-1.55-1.54c-.36-.3-1.3-.9-2.3-.9-1.24 0-3.2.9-3.2 3.17 0 2.4 2.06 3.03 2.79 3.15.68.11 1.83-.12 2.7-.97l1.57-1.63v-1.28zm-3.86 2.72c1.67 0 2.87-1.99 2.87-1.99s-1.27-1.99-2.87-1.99a1.99 1.99 0 100 3.98zm17.9-2.69l1.56-1.54c.35-.3 1.3-.9 2.3-.9 1.23 0 3.19.9 3.19 3.18 0 2.4-2.05 3.02-2.78 3.14a3.36 3.36 0 01-2.71-.96l-1.56-1.63v-1.3zM39 29.64c-1.66 0-2.87-1.99-2.87-1.99s1.27-1.99 2.87-1.99a1.99 1.99 0 110 3.98zM22.15 17.99a3.16 3.16 0 000 4.46l2.03 2.04 4.47-4.47-2.03-2.03a3.16 3.16 0 00-4.47 0zm.73.72a2.18 2.18 0 000 3.1l1.4 1.4 3.1-3.09-1.41-1.4a2.18 2.18 0 00-3.1 0zm-.73 18.6a3.16 3.16 0 010-4.47l2.03-2.03 4.47 4.47-2.03 2.03a3.16 3.16 0 01-4.47 0zm.73-.73a2.18 2.18 0 010-3.08l1.4-1.41 3.1 3.09-1.41 1.4c-.85.86-2.24.86-3.1 0z" fill="#fff"/><path fill-rule="evenodd" d="M34.1 17.99a3.16 3.16 0 010 4.46l-2.03 2.04-4.47-4.47 2.03-2.03a3.16 3.16 0 014.47 0zm-.73.72c.86.86.86 2.24 0 3.1l-1.4 1.4-3.1-3.09 1.41-1.4a2.18 2.18 0 013.1 0zm.73 18.6a3.16 3.16 0 000-4.47l-2.03-2.03-4.47 4.47 2.03 2.03a3.16 3.16 0 004.47 0zm-.73-.73c.86-.85.86-2.23 0-3.08l-1.4-1.41-3.1 3.09 1.41 1.4c.86.86 2.24.86 3.1 0z" fill="#fff"/></svg>