<svg width="56" height="56" viewBox="0 0 56 56" xmlns="http://www.w3.org/2000/svg"><path fill="url(#ajda5wrlq)" d="M0 0h56v56H0z"/><path d="m41.38 22.05-.02-.1c-.06-.26-.1-.45-.16-.57a.96.96 0 0 0-.32-.46 17.4 17.4 0 0 0-1.93-1.19.42.42 0 0 1-.18-.18 2.4 2.4 0 0 1-.29-.96c0-.07.02-.11.07-.15.05-.04.1-.05.16-.03l1.49.54c.25.09.3.02.15-.2a5.3 5.3 0 0 1-.5-1 .32.32 0 0 0-.3-.22c-.42-.03-.73-.05-.93-.08-.32-.04-.6-.1-.85-.17a2.8 2.8 0 0 1-1.45-1.01c-.12-.16-.1-.29.08-.39.65-.38 1.3-.42 1.92-.12.23.11.27.06.13-.15l-.6-.88a.47.47 0 0 0-.36-.22c-.9-.08-1.58-.74-2.02-1.99-.16-.45-.01-.61.45-.47l.74.23c.48.15.81.46 1 .92.3.78.74 1.5 1.28 2.17.17.2.25.17.23-.09 0-.07 0-.2-.02-.36a9.8 9.8 0 0 1-.03-.74c0-.27.03-.5.09-.67a.14.14 0 0 1 .1-.09c.04-.01.08 0 .12.03.53.4.85.96.96 1.65.09.58.02 1.23-.2 1.94a.39.39 0 0 0 0 .23c.15.48.36.96.62 1.44.04.09.1.1.18.04.14-.12.2-.27.2-.45-.02-.42.04-.84.17-1.28.12-.37.27-.39.46-.05.54.96.63 2 .28 3.11-.1.3-.21.6-.36.9a.6.6 0 0 0-.04.45l.2.7c.04.14.1.15.18.03l.93-1.39a.16.16 0 0 1 .15-.07c.06 0 .11.04.14.1.27.59.33 1.21.17 1.88a4.1 4.1 0 0 1-.9 1.74c-.32.37-.43.88-.32 1.52.03.18.1.2.24.07l.99-1.04a.2.2 0 0 1 .18-.06c.07 0 .13.05.16.11.3.58.22 1.23-.25 1.97-.27.42-.73.94-1.4 1.57h-.01a.4.4 0 0 0-.12.2l-.3 1.24c-.02.05 0 .09.06.1.09.01.16-.01.21-.07.33-.34.73-.57 1.2-.7a.2.2 0 0 1 .2.05.2.2 0 0 1 .07.2c-.15.7-.46 1.29-.93 1.78a4.24 4.24 0 0 1-1.28.79.79.79 0 0 0-.4.43l-.34.88c-.07.2-.01.25.18.18.42-.16.85-.3 1.28-.43a.32.32 0 0 1 .23.01c.04.02.07.05.08.09.02.04.02.08 0 .12-.57 1.25-1.43 1.9-2.57 1.92-.23 0-.42.1-.55.3l-.53.72c-.14.19-.09.27.14.25l1.5-.16c.05-.01.1.01.13.06.03.05.02.1-.01.15A3.2 3.2 0 0 1 38.63 38c-.17.04-.36.06-.57.05a6.23 6.23 0 0 1-.82-.1.5.5 0 0 0-.39.09l-1.05.77c-.17.12-.15.18.06.17.52-.03 1.08.03 1.67.16.06.01.1.05.12.1.02.06 0 .11-.03.16-.45.5-1.02.8-1.74.87a7.81 7.81 0 0 1-1.98-.17c-.43-.08-.9.08-1.4.47-.06.05-.07.1 0 .15.38.34.84.59 1.38.73.3.09.3.2.03.32-.75.34-1.41.42-2 .24a4.1 4.1 0 0 1-1-.52 8.83 8.83 0 0 0-.43-.27c-.1-.06-.16-.03-.17.09l-.04.43c-.02.2-.13.27-.32.19-.2-.1-.41-.22-.6-.38-.09-.06-.17-.07-.25-.01l-.17.11a.05.05 0 0 0-.03.06c0 .02.02.04.04.05a8.94 8.94 0 0 1 3.36 2.8c.17.24.11.38-.18.42a.75.75 0 0 1-.24 0c-.33-.05-.6-.2-.8-.45-.77-.92-1.63-1.7-2.6-2.33-.29-.19-.57-.2-.84-.04a10.2 10.2 0 0 0-2.79 2.47.94.94 0 0 1-.76.37c-.09 0-.18-.01-.27-.04-.27-.07-.32-.21-.14-.43a9.92 9.92 0 0 1 3.23-2.68c.08-.04.1-.1.05-.18a.27.27 0 0 0-.26-.13.4.4 0 0 0-.29.14.83.83 0 0 1-.44.27c-.12.03-.2-.02-.22-.14a.92.92 0 0 1-.03-.3c.02-.32-.1-.38-.35-.2-.93.68-1.71.94-2.34.78-.35-.09-.68-.2-1-.36-.24-.12-.23-.2.03-.28.56-.14 1.06-.4 1.5-.76a.1.1 0 0 0 .03-.1.1.1 0 0 0-.06-.08l-.17-.08c-.28-.14-.5-.23-.64-.27-.24-.08-.48-.1-.7-.05-.78.14-1.42.18-1.9.14a2.55 2.55 0 0 1-1.69-.75.2.2 0 0 1-.05-.21.2.2 0 0 1 .15-.15c.48-.13.98-.18 1.5-.13.04 0 .09 0 .14-.02a.24.24 0 0 0 .09-.07.1.1 0 0 0-.04-.17c-.4-.17-.74-.42-1.05-.73a.28.28 0 0 0-.22-.09c-.1 0-.27.03-.49.07-.24.05-.43.07-.56.07-.95-.04-1.71-.51-2.3-1.44-.08-.13-.04-.2.12-.18l1.43.15c.23.03.28-.06.15-.25l-.4-.6a.84.84 0 0 0-.7-.4c-1.15-.02-1.98-.68-2.49-1.98a.15.15 0 0 1 .03-.17c.05-.05.1-.06.17-.04l1.36.47c.19.06.24 0 .18-.18l-.3-.84a.76.76 0 0 0-.44-.46 3.74 3.74 0 0 1-1.47-1.02c-.37-.44-.62-1-.75-1.69-.01-.04 0-.08.03-.11a.12.12 0 0 1 .12-.03c.47.12.89.33 1.24.62.34.28.45.2.34-.22l-.01-.04c-.1-.35-.18-.6-.25-.77a1.82 1.82 0 0 0-.46-.64c-1.27-1.11-1.73-2.21-1.39-3.3.03-.1.1-.12.18-.07.42.25.82.62 1.19 1.1.14.2.22.17.25-.06.02-.2.04-.43.04-.67.01-.27-.07-.5-.25-.71a4.3 4.3 0 0 1-.96-1.7 3.64 3.64 0 0 1 .09-2 .17.17 0 0 1 .15-.13c.07-.01.13.01.17.07l.97 1.4c.13.19.2.17.21-.06.02-.29.06-.57.14-.85a.31.31 0 0 0-.03-.23A5.18 5.18 0 0 1 13.7 19c-.04-.8.13-1.47.52-1.98.2-.28.35-.25.44.08.13.5.2 1 .22 1.52 0 .1.05.17.14.22.07.04.12.01.15-.06.04-.16.14-.37.28-.66.16-.3.25-.52.3-.68.06-.26.06-.5-.03-.75a3.24 3.24 0 0 1-.11-1.7c.12-.55.37-1.04.77-1.46.1-.1.2-.12.33-.07.13.05.19.15.18.29l-.05 1.6c0 .03 0 .05.03.07.05.03.1.04.14.02a.12.12 0 0 0 .08-.06c.07-.18.22-.4.44-.7.23-.3.4-.55.47-.75.26-.64.57-1.1.91-1.39.4-.33.93-.51 1.59-.53a.1.1 0 0 1 .09.04.1.1 0 0 1 .02.1 4.03 4.03 0 0 1-.96 1.87c-.12.13-.28.24-.47.31-.12.05-.3.1-.55.15l-.12.03a.5.5 0 0 0-.25.15c-.24.24-.45.5-.65.76-.28.37-.2.46.22.28.56-.24 1.16-.16 1.8.22a.2.2 0 0 1 .1.14.2.2 0 0 1-.04.17c-.37.5-.86.85-1.47 1.04a5.9 5.9 0 0 1-1.81.22c-.1 0-.19.05-.23.14l-.57 1.2a.1.1 0 0 0 .02.11.1.1 0 0 0 .1.03l1.62-.58c.05-.02.1-.01.14.03.05.03.07.08.06.13-.05.3-.11.53-.17.69a1 1 0 0 1-.43.53c-.67.37-1.31.79-1.94 1.26a.72.72 0 0 0-.22.32 2.75 2.75 0 0 0-.15.6c-.07.24-.01.27.17.09.4-.4.85-.71 1.37-.91.06-.02.1-.01.15.02.04.03.06.08.06.13a3.17 3.17 0 0 1-1.48 2.44c-.3.2-.5.49-.58.86-.06.25-.08.6-.05 1.07.01.3.1.32.28.09.32-.41.67-.79 1.05-1.12a.1.1 0 0 1 .1-.03.1.1 0 0 1 .08.08c.16.6.11 1.24-.16 1.92-.2.5-.54 1.07-1.02 1.7a.46.46 0 0 0-.1.24c-.03.34.02.68.14 1 .22.6.38.58.48-.04.08-.48.27-.9.59-1.3a.09.09 0 0 1 .08-.03c.03 0 .05.01.07.04.41.55.53 1.16.36 1.83a8.44 8.44 0 0 1-.66 1.77.56.56 0 0 0-.02.47l.34.93c.01.05.05.07.1.08.05 0 .08-.02.1-.06.28-.49.48-1.01.6-1.58.08-.43.23-.45.44-.07.31.53.46 1.09.45 1.66-.01.43-.13.99-.36 1.66a.7.7 0 0 0 .17.73l.25.26c.2.19.3.15.32-.12l.14-1.79c0-.13.07-.16.19-.09a2.24 2.24 0 0 1 1.08 1.81c.03.57 0 1.1-.08 1.57a.47.47 0 0 0 .2.48l.89.58c.22.15.28.1.2-.15a3.9 3.9 0 0 1-.16-1.73c0-.04.02-.07.05-.09a.1.1 0 0 1 .1 0c.5.2.9.59 1.2 1.15.2.33.4.87.63 1.6l.05.2c.03.1.09.17.17.23.21.15.44.27.68.35.4.14.5.03.25-.33-.28-.41-.52-.83-.73-1.24-.16-.34-.06-.46.3-.35a3.05 3.05 0 0 1 2.2 2.03c.11.34.24.58.37.7.17.19.24.15.2-.1a1.54 1.54 0 0 0-.05-.24.36.36 0 0 1 0-.22.36.36 0 0 1 .13-.19.36.36 0 0 1 .43-.02c.17.12.25.27.22.47a.4.4 0 0 1-.15.26.37.37 0 0 0-.11.16c-.04.1 0 .15.1.17.43.08.85.2 1.27.34.16.06.34.07.53.03.12-.02.3-.07.53-.16.28-.1.5-.16.64-.17.35-.03.39-.16.12-.38-.17-.14-.22-.31-.14-.52a.31.31 0 0 1 .29-.22l.23-.02c.15 0 .22.06.21.22l-.02.56c0 .1.04.14.14.14.04 0 .08-.01.11-.05a.24.24 0 0 0 .07-.1c.4-1.55 1.27-2.45 2.6-2.73.28-.06.35.04.22.28-.3.53-.55.94-.75 1.23-.36.52-.26.64.32.39l.49-.22a.27.27 0 0 0 .14-.15c.09-.2.2-.5.33-.87.2-.54.37-.93.52-1.17.23-.4.57-.74 1-1.03.15-.1.24-.07.26.11a3.4 3.4 0 0 1-.14 1.64c-.1.3-.02.35.24.17l.83-.57c.18-.12.25-.3.21-.51a4.44 4.44 0 0 1-.01-1.9c.15-.6.49-1.1 1.03-1.52a.08.08 0 0 1 .08 0c.04 0 .05.03.06.06l.2 1.97c.03.27.13.3.3.1l.27-.32c.18-.2.22-.43.14-.69a6.45 6.45 0 0 1-.36-1.82c0-.64.2-1.21.59-1.72.05-.06.1-.08.19-.07.07.02.12.07.13.14.11.59.28 1.17.49 1.74.09.24.18.24.27 0l.3-.75a.92.92 0 0 0-.03-.8 5.75 5.75 0 0 1-.59-1.59 2.9 2.9 0 0 1 .23-1.69c.06-.13.15-.15.26-.06.18.13.33.33.44.58a5.02 5.02 0 0 1 .27.89c.08.3.19.3.31.02.14-.3.2-.59.2-.87 0-.34-.08-.62-.25-.86a8.44 8.44 0 0 1-.74-1.19 3.1 3.1 0 0 1-.29-2.23c.02-.09.07-.1.14-.05.43.33.8.73 1.14 1.19.22.3.31.27.29-.1l-.02-.46c-.02-.4-.05-.69-.12-.86-.1-.28-.32-.52-.66-.72-.4-.24-.71-.58-.95-1.04a3.45 3.45 0 0 1-.39-1.38c0-.04.01-.08.05-.1a.12.12 0 0 1 .12-.02c.5.23 1 .57 1.46 1.02.12.11.16.1.13-.07Z" fill="#82DD36"/><path d="M23 21v2h-1v6.82c0 1.08.76 2.18 1.86 2.18h8.3c1 0 1.8-1.03 1.8-2.01 0-1-.8-1.99-1.8-1.99h-4.91A3.1 3.1 0 0 1 24 24.77v-.34c0-1.9 1.33-3.43 3.25-3.43H36v2h-8.84c-.78 0-1.19.73-1.19 1.5s.41 1.5 1.19 1.5h4.88A4.05 4.05 0 0 1 36 30.05 3.97 3.97 0 0 1 32.04 34h-8.08A3.94 3.94 0 0 1 20 30.09V21h3Z" fill="#fff"/><defs><linearGradient id="ajda5wrlq" x1="10.42" y1="9.71" x2="68.15" y2="76.02" gradientUnits="userSpaceOnUse"><stop stop-color="#1A1E21"/><stop offset="1" stop-color="#06060A"/></linearGradient></defs></svg>