<svg width="56" height="56" viewBox="0 0 56 56" xmlns="http://www.w3.org/2000/svg"><path fill="#F0F3FA" d="M0 0h56v56H0z"/><path fill-rule="evenodd" d="M4 25h2v7h2v-7h2v-2H4v2Zm8-2h2v9h-2v-9Zm31 0h-2v9h2v-9Zm-25 6.37V23h2v6.7c0 1.63-1.32 2.3-2.27 2.3-.77 0-1.5-.3-1.73-.45V29.7c.55.27 1.16.32 1.37.29.54 0 .6-.38.62-.58l.01-.04ZM24.04 32h-1.9l2.68-9h2.16l2.82 9h-2.18l-.44-2h-2.63l-.51 2Zm2.13-6.54.56 2.54h-1.67l.66-2.54h.45ZM44.34 32h1.9l.52-2h2.62l.45 2H52l-2.82-9h-2.16l-2.68 9Zm4.6-4-.56-2.54h-.46L47.27 28h1.67ZM32 32v-9h3.55C36.9 23 38 24.18 38 25.64a3 3 0 0 1-1.59 2.66c1.18.72 1.87 2.7 2.09 3.7h-2.2c-.36-1.51-1.01-2.8-1.45-3.5H34V32h-2Zm3.22-7H34v1.5h1.22c.5 0 .78-.34.78-.75s-.28-.75-.78-.75Z" fill="#E31D24"/></svg>