<svg width="56" height="56" viewBox="0 0 56 56" xmlns="http://www.w3.org/2000/svg"><path fill="#FF8500" d="M0 0h56v56H0z"/><path d="M5.39 33h4.15v-1.3h-.48c-.33 0-.56-.26-.56-.58V24.3h.86c.33 0 .64.17.64.5v.9h1V23H4v2.7h1v-.9c0-.33.19-.5.52-.5h.98v6.82c0 .32-.42.58-.75.58h-.36V33ZM12 24.3V23h4v1.3h-.58c-.25 0-.45.16-.45.4v6.53c0 .24.2.47.45.47H16V33h-4v-1.3h.53c.25 0 .47-.23.47-.47V24.7c0-.24-.22-.4-.47-.4H12Zm16-1.27v1.27h.42c.25 0 .58.19.58.43v6.5c0 .25-.33.47-.58.47H28V33h3.98v-1.3h-.41c-.25 0-.57-.22-.57-.46v-2.77l2 2.7c.15.2.01.53-.23.53h-.31V33H36v-1.3c-.33 0-.5-.16-.68-.43l-2.48-3.66 2.09-2.84c.22-.3.7-.47 1.07-.47V23h-3.54v1.3h.16a.3.3 0 0 1 .25.47L31 27.38v-2.65c0-.24.32-.43.57-.43h.41v-1.27H28ZM17 24.3V23h3.23l1.7 5.86L23.72 23h3.32v1.3h-.26c-.41 0-.77.22-.77.63v5.99c0 .4.36.78.77.78h.26V33H23.3v-1.3c.4 0 .69-.36.69-.74V26.9L22.14 33h-.96l-1.79-6.1v4.17c0 .32.27.63.6.63H20V33h-3v-1.3h.17c.41 0 .83-.37.83-.78v-6c0-.4-.42-.62-.83-.62H17Zm20-.17V23h6v2.56h-1v-.84c0-.32-.08-.42-.4-.42H40V27h.26c.41 0 .74-.36.74-.76V26h1.01v3H41v-.3c0-.39-.33-.7-.74-.7H40v3.7h1.6c.32 0 .4-.27.4-.6v-.76h1V33h-6v-1.3h.15c.49 0 .85-.4.85-.89v-5.8a.85.85 0 0 0-.85-.88h-.16Zm7 .17h.49c.33 0 .51.18.51.5v6.33c0 .32-.18.57-.51.57H44V33h3.39v-1.3h-.3a.58.58 0 0 1-.6-.57v-4.44L48.97 33H51v-8.2c0-.32.4-.5.72-.5H52V23h-3.25v1.3h.3c.33 0 .45.18.45.5v4.05L47.28 23H44v1.3Z" fill="#fff"/></svg>