<svg width="56" height="56" viewBox="0 0 56 56" xmlns="http://www.w3.org/2000/svg"><path fill="#F0F3FA" d="M0 0h56v56H0z"/><path d="M27.84 11h.35c.34.1.57.3.7.57.5 1.05-.89 1.95-1.64 1.07-.53-.6-.15-1.4.59-1.64ZM22 14a1 1 0 1 0 0-2 1 1 0 0 0 0 2ZM34 14a1 1 0 1 0 0-2 1 1 0 0 0 0 2Z" fill="#44B4C1"/><path d="M22.43 17.97a.22.22 0 0 0-.13.26c.23.84.64 1.5 1.25 1.97.17.13.36.16.56.08a9.83 9.83 0 0 1 10.27 1.63.2.2 0 0 1 .05.25c-.38.72-.9 1.28-1.55 1.68-.24.14-.46.1-.7-.03-2-1.23-4.33-1.84-6.45-.74a.12.12 0 0 0-.07.12c.02.2.07.39.15.58a28.18 28.18 0 0 1 2.54 15.69c-.01.11-.07.17-.2.17h-.53c-.16.01-.24-.07-.24-.23a30.48 30.48 0 0 0-.69-6.13 27.9 27.9 0 0 0-9.23-15.34.35.35 0 0 1-.1-.4c.53-1.4 2.92-2.5 4.23-3 5.87-2.17 12.38-1.56 17.08 2.74.16.14.19.3.1.49a3.86 3.86 0 0 1-1.9 1.86c-.24.1-.48.03-.67-.11-4.19-3.01-8.95-3.69-13.77-1.54Z" fill="#44B4C1"/><path d="M17 17a1 1 0 1 0 0-2 1 1 0 0 0 0 2ZM39 17a1 1 0 1 0 0-2 1 1 0 0 0 0 2ZM26.48 45h-.44c-.38-.09-.97-.26-1-.72-.21-3.67-1-7.23-2.8-10.31-2.21-3.76-5.78-6.16-9.98-7.27-.13-.04-.22-.16-.26-.36v-.43a17.5 17.5 0 0 1 2.59-5.8c.37-.57 1.12-1.67 1.8-1.8.04-.01.08 0 .11.01l.19.14a29.8 29.8 0 0 1 9.85 18.9c.3 2.46.34 4.96.13 7.5 0 .05-.06.1-.19.14ZM44 25.91v.45c-.05.19-.14.3-.27.34-4.7 1.24-8.49 4.06-10.62 8.5a24 24 0 0 0-2.15 9.1c-.02.47-.68.62-1.03.7h-.44l-.1-.06a.14.14 0 0 1-.07-.12c-.3-3.96-.04-7.66.79-11.1 1.43-6 4.69-11.14 9.24-15.3.15-.13.31-.15.49-.05.3.17.56.4.79.68.94 1.16 1.78 2.61 2.54 4.35.4.9.67 1.74.83 2.51ZM28 45a1 1 0 1 0 0-2 1 1 0 0 0 0 2Z" fill="#44B4C1"/></svg>