<svg width="56" height="56" viewBox="0 0 56 56" xmlns="http://www.w3.org/2000/svg"><path fill="#ACBCB2" d="M0 0h56v56H0z"/><path d="M25.08 12.73c.13-.1.28-.17.43-.21a.28.28 0 0 1 .32.13.3.3 0 0 1-.04.34 4.07 4.07 0 0 0-1.12 3.2c.01.13.07.25.16.34.09.1.2.16.33.18.41.05.83 0 1.25-.13a.27.27 0 0 1 .33.13c.02.04.03.09.03.13v.13c0 .04 0 .07-.02.1a.16.16 0 0 1-.08.06c-.52.18-1.02.36-1.5.56-.7.28-.88.9-.55 1.84a.31.31 0 0 0 .2.19.3.3 0 0 0 .27-.04c.22-.16.45-.25.67-.26.38-.02.42.1.13.34l-1 .88c-.62.55-.5 1.16-.65 1.87a40.67 40.67 0 0 0-.97 8.7c0 2.58.56 7.23 2.57 8.75 1.39 1.04 2.32-.42 2.4-1.66.11-1.5-.35-2.99-1.4-4.44a.52.52 0 0 1-.08-.2.42.42 0 0 1 .12-.4.33.33 0 0 1 .35-.08c1.34.49 2.65.92 3.93 1.3 2.65.81 5.42 1.13 8.31.97a.45.45 0 0 1 .38.18c.16.2.2.37.1.49s-.23.21-.36.28c-.7.36-1.21.86-1.53 1.52-1.32 2.71-2.55 5.1-4.7 7.3a5.6 5.6 0 0 1-4.1 1.78c-1.07 0-2.06-.45-3.1-.8-2.33-.75-3.98-3.27-4.46-5.62a17.3 17.3 0 0 1-.34-4.55c.15-2.25.33-4.54.82-6.76.5-2.19.92-4.36 1.28-6.51a.46.46 0 0 0-.23-.48.44.44 0 0 0-.18-.05.97.97 0 0 1-.6-.25.52.52 0 0 1-.16-.48.52.52 0 0 1 .32-.39c1.05-.41 1.47-1.3 1.27-2.66a.27.27 0 0 0-.2-.23l-.47-.15a.26.26 0 0 1-.19-.22.36.36 0 0 1 .04-.23.71.71 0 0 1 .3-.3c.61-.34.85-.84.7-1.5a.32.32 0 0 0-.53-.18l-.4.36a.35.35 0 0 1-.48 0c-.16-.15-.18-.3-.07-.48.42-.6.83-1.21 1.25-1.85.06-.1.07-.2.04-.3-.52-1.89-1.09-4.34-3.74-3.48-1.1.35-1.75 1.2-1.95 2.55a8.95 8.95 0 0 0-.07 2.33c.04.36-.1.62-.43.76l-.1.05c-.39.17-.6.05-.63-.38-.2-2.73.7-5.48 3.59-6.13 1.6-.36 3.14.72 3.6 2.26.14.44.3.87.48 1.28a.3.3 0 0 0 .2.17.3.3 0 0 0 .26-.05Z" fill="#3D3C24"/><path d="M25.9 13.69c-.25.36-.32.73-.17.84.16.1.48-.1.74-.45.25-.36.32-.74.17-.85-.16-.1-.49.1-.74.46ZM18.43 24.2a.83.83 0 0 0-.43.24c-.07.07-.14.07-.2-.01l-.05-.07c-.03-.03-.02-.07.02-.1.5-.4.7-.88.57-1.45a.25.25 0 0 0-.06-.12.29.29 0 0 0-.13-.08 4.65 4.65 0 0 1-2.94-2.43c-.86-1.78 1.13-3.22 2.12-4.38.05-.05.1-.1.17-.12a.46.46 0 0 1 .41.04c.06.03.1.08.14.14.18.3.26.6.24.9 0 .07-.03.14-.07.19a.37.37 0 0 1-.4.1.34.34 0 0 1-.17-.13l-.32-.46a.17.17 0 0 0-.07-.05.18.18 0 0 0-.16.01.15.15 0 0 0-.06.06l-.62 1.27a.42.42 0 0 0 .05.44c.05.06.12.11.2.14a.5.5 0 0 0 .24.04c.39-.04.77-.13 1.14-.27.1-.04.16-.01.21.08l.26.5c.1.19.03.3-.19.35-.37.09-.7.24-1.02.45-.1.07-.1.15-.03.23l.07.07c.03.04.08.06.14.07.06.01.11 0 .16-.02.64-.35 1.28-.62 1.98-.32.61.26.83.88 1.12 1.4.04.07.02.12-.06.15l-.09.03c-.07.03-.11 0-.14-.05-.34-.8-.88-1.13-1.63-1.01a.64.64 0 0 0-.34.15c-.27.23-.6.57-1.01.52-.76-.09-1.02-.73-1.27-1.3a.08.08 0 0 0-.02-.03.1.1 0 0 0-.11 0l-.14.09c-.03.02-.04.05-.03.1.52 1.51 1.44 1.95 2.76 1.3a.69.69 0 0 1 .6 0c2.14 1.03.63 3.06-.54 4.03-.5.4-.6.34-.3-.22l.15-.3c.09-.15.04-.21-.15-.18ZM27.49 19.05a.3.3 0 0 1 0 .16l-.03.06a.15.15 0 0 1-.04.05l-.12.08a.3.3 0 0 1-.35 0 .56.56 0 0 1-.15-.17.91.91 0 0 1-.1-.24l-.12-.39a1.16 1.16 0 0 1-.02-.56.82.82 0 0 1 .1-.24.48.48 0 0 1 .14-.16l.11-.07a.1.1 0 0 1 .1 0c.04.01.06.05.08.1l.4 1.38ZM25.02 21.84c-.12.46-.04.88.18.94.23.06.52-.26.64-.73.12-.46.04-.89-.19-.95-.22-.05-.5.27-.63.74ZM28.5 29.02c-.25-.1-.47-.22-.67-.37-.5-.39-.43-.6.23-.63 3.27-.17 7.14.8 10.28 1.94.26.1.48.26.65.48a.25.25 0 0 1 .01.28.28.28 0 0 1-.11.1.31.31 0 0 1-.15.03 46 46 0 0 1-7.05-.86 19.97 19.97 0 0 1-3.18-.97ZM37.55 28.01c1.2.3 2 .83 2.43 1.6.02.03.03.07.01.12a.18.18 0 0 1-.1.1l-.09.03c-.16.07-.29.05-.4-.08a3.86 3.86 0 0 0-2.2-1.29.2.2 0 0 1-.06-.06.16.16 0 0 1 0-.16l.05-.11c.07-.14.19-.19.36-.15ZM20.17 34.76c-.2-.59-.18-1.2.06-1.85.05-.12.07-.25.07-.39-.01-.54.05-1.01.2-1.4.13-.38.22-.36.25.07.05.55 0 1.1-.14 1.65-.05.17-.06.36-.03.53a6.8 6.8 0 0 1-.08 2.4c-.09.4-.12.82-.1 1.27a23.12 23.12 0 0 0 .35 3.17c0 .03-.02.06-.03.08a.13.13 0 0 1-.05.05.08.08 0 0 1-.06 0l-.08-.01a.22.22 0 0 1-.13-.1.45.45 0 0 1-.07-.18c-.15-.78-.36-1.7-.34-2.52.01-.29-.04-.56-.15-.81a.39.39 0 0 1-.02-.25l.36-1.38a.57.57 0 0 0-.01-.33ZM27.73 32.6a.3.3 0 0 1-.1-.02.22.22 0 0 1-.07-.05c-.14-.15-.03-.28.33-.4a33.07 33.07 0 0 1 11.87-.18l.15.05a.2.2 0 0 1 .08.09v.1a.2.2 0 0 1-.08.1c-.22.13-.5.22-.83.24-3.86.27-7.65.3-11.35.07Z" fill="#3D3C24"/></svg>