<svg width="56" height="56" viewBox="0 0 56 56" xmlns="http://www.w3.org/2000/svg"><path fill="url(#a2jhw05ba)" d="M0 0h56v56H0z"/><path d="M27 39.99H17l1-9h10l-1 9Z" fill="#F27978"/><path d="M8 31h10l.5-8c-7.2 0-10 5.33-10.5 8Z" fill="#F1CB18"/><path d="M18 31H8c0 7.19 6 8.99 9 8.99l1-9Z" fill="#F1B81E"/><path d="M28.5 23h-10c.4-7.59 7-9.15 10.5-8.99l-.5 9Z" fill="#7DD1EC"/><path d="m29 14.01-.5 9h10c.5-7-6-8.83-9.5-9Z" fill="#35AFE4"/><path d="m36.5 39.99 1-9H48c-.8 7.6-8 9.16-11.5 9Z" fill="#CB4E9A"/><path d="M48 31H37.55l.95-8c7.24.4 9.5 5.5 9.5 8Z" fill="#A367A9"/><path d="m38.55 23-1.05 8H28c1.68-6.4 7.58-8 10.55-8Z" fill="#7D59A1"/><path d="m28 31 .5-8h10-.53c-3.01.16-8.56 2.82-9.97 8Z" fill="#2791D0"/><path d="M28.5 23h-10c.8 6.4 5.5 8 9.5 8l.5-8Z" fill="#46C5E9"/><path d="M28 31c-5.6 0-9-4-9.5-8l-.5 8h10Z" fill="#F4A71F"/><path d="M36.5 39.99H27l1-9h9.5l-1 9Z" fill="#E1539D"/><defs><linearGradient id="a2jhw05ba" x1="0" y1="28" x2="56" y2="28" gradientUnits="userSpaceOnUse"><stop stop-color="#794399"/><stop offset="1" stop-color="#504AA0"/></linearGradient></defs></svg>