<svg xmlns="http://www.w3.org/2000/svg" width="56" height="56" viewBox="0 0 56 56"><path fill="#F0F3FA" d="M0 0h56v56H0z"/><path d="M13.31 18H7.4L6 22h5.84l2.93-1.99L13.3 18zm4.32 0h6.93l-1.46 4h-6.15l-1.56-2.03L17.63 18zm-2.57 2.44l-2.81 1.92L7.55 37h4.68l4.55-14.29-1.72-2.27zM18.2 23l-2.04 6h2.35l1.44-4.35h.86l-.53 1.63c.83.37 1.85.15 2.26 0 .23-.65.74-2.08.9-2.6.16-.52-.38-.67-.67-.68H18.2zm7.17-3h2.4l-.75 2h-2.4l.75-2zm-1.05 3h2.4l-2.05 6h-2.4l2.05-6zM51 20h-2.4l-.76 2h2.4l.76-2zm-1.05 3h-2.4l-2.07 6h2.4l2.07-6zm-22.82 0l.5 6h3.35l3.41-6h-2.43l-2.11 3.77-.31-3.77h-2.4zm11.6 6h-4.91c-.27 0-.72-.22-.5-1.02.23-.8 1.1-3.24 1.5-4.35.07-.21.35-.63.9-.63h4.03c.34.02.94.29.61 1.24l-.7 2.26c-.1.3-.38.5-.88.5h-2.5l-.2.63h3.13L38.73 29zm-1.64-3.28c.19.05.42-.2.51-.55.1-.35.03-.68-.16-.73-.18-.04-.42.2-.51.56-.1.35-.03.68.16.72zM39.36 29l2.05-6h4.66c.25.02.7.26.43 1.03L44.7 29h-2.27l1.52-4.29c.03-.11.02-.36-.25-.4-.26-.04-.43.25-.48.4L41.7 29h-2.34z" fill="#EA7218"/><path fill-rule="evenodd" d="M17.98 31l-.1.26c-.19.48-.4 1.06-.48 1.53-.04.28-.04.59.1.83.16.26.44.38.8.38.35 0 .65-.08.89-.24.24-.17.4-.4.53-.66s.22-.57.31-.89l.1-.35.05-.17.19-.69h-.52a16.58 16.58 0 0 0-.2.74l-.1.34c-.09.31-.17.58-.28.8-.1.22-.22.37-.37.47-.14.1-.33.16-.6.16-.25 0-.33-.08-.37-.14-.05-.1-.07-.25-.03-.5a7.42 7.42 0 0 1 .5-1.59l.12-.28h-.54zm-2.76.5h.84l-.63 2.5h.52l.62-2.5h.96V31h-2.3v.5zm5.6-.5h1.56c.16 0 .38.08.52.25.08.09.14.2.16.35.02.14 0 .29-.07.44-.17.37-.53.54-.8.62l-.25.06.67 1.28h-.58l-.62-1.22a10.52 10.52 0 0 1-.66 0l-.4 1.22h-.53l1-3zm.1 1.28a24.77 24.77 0 0 0 .58 0l.1-.01.13-.02c.09-.01.2-.03.31-.07.23-.06.42-.18.49-.34a.33.33 0 0 0 .04-.18.15.15 0 0 0-.04-.08.26.26 0 0 0-.09-.06l-.06-.02h-1.2l-.27.78zM25.1 31h-1.23l-1.02 3h1.55c.2-.02.48-.09.72-.26.26-.18.47-.46.49-.89v-.02c0-.12-.05-.3-.17-.45.12-.1.23-.24.32-.43.09-.2.13-.44 0-.65-.13-.21-.38-.3-.66-.3zm.2.74c-.14.32-.39.36-.48.36h-.8l.2-.6h.88c.2 0 .3.05.2.24zm-.48.86h-.97l-.3.9h.82c.13-.01.31-.06.47-.17a.6.6 0 0 0 .27-.49.3.3 0 0 0-.06-.15c-.04-.04-.1-.09-.23-.09zm.92 1.4l.83-3h.51l-.82 3h-.52zm2.44-3h-.47l-1 3h.5l.74-2.16.76 2.16h.48l.92-3h-.53l-.65 2.12-.75-2.12zm2.54 0h1.92v.5h-1.57l-.22.63h1.32v.5h-1.5l-.29.87h1.52v.5h-2.22l1.04-3zm3.6 0c-.5 0-.82.16-1.02.39a.95.95 0 0 0-.24.58.6.6 0 0 0 .37.57c.2.1.47.15.78.19.21.03.32.2.3.35-.02.13-.18.38-.83.42-.2 0-.4-.02-.55-.1a.3.3 0 0 1-.13-.11.57.57 0 0 1-.03-.29h-.5c-.02.2 0 .37.1.52.07.15.2.26.33.33.26.13.57.15.78.15h.01c.77-.04 1.24-.38 1.31-.84a.81.81 0 0 0-.73-.92c-.32-.04-.5-.08-.62-.14a.2.2 0 0 1-.08-.06l-.01-.07a.33.33 0 0 1 .02-.1.52.52 0 0 1 .1-.16c.09-.1.27-.22.63-.21.27 0 .4.1.46.18.07.09.09.25.08.32h.5a.93.93 0 0 0-.18-.63c-.17-.22-.45-.36-.86-.37z"/></svg>