<svg xmlns="http://www.w3.org/2000/svg" width="56" height="56"><path fill="url(#afhc2jyw1)" d="M0 0h56v56H0z"/><path d="M15.6 22L13 24H7l1-4h5.81l1.79 2zm4.01-2L17 22l1.25 2H24l1-4h-5.39zM15 40h-5l3-15 3.3-2.69L18 25l-3 15zm10.15-9H23.1l1.4-6h2.03l-1.4 6zm1.6-7h-2l.4-1.5h1.96l-.37 1.5zm12.6 2.22c0 .13-.01.28-.05.47l-.44 1.91H35.7l-.14.6h3.13l-.42 1.8h-4.03c-.25 0-.45-.02-.6-.09a.93.93 0 01-.57-.63l-.02-.07a1.35 1.35 0 01-.06-.34c0-.14.03-.27.06-.4l.02-.1.92-4.36h4.16c.4.01.7.17.9.37.2.2.29.47.29.84zm-3.1.29l-.3 1.1h.73l.27-1.1h-.7zm-15 1.49h1.77l.11-.38c.12-.38.29-.94.4-1.38.2-.82.17-1.24-.98-1.24h-3.5l-1.4 6h2.27l1.33-5h.5l-.5 2zm6.31 3h3.14l2.86-6H31l-1.3 4h-.2l.17-4H27l.56 6zm17.74-4.31c.04-.2.06-.36.06-.49 0-.34-.1-.62-.29-.84-.19-.21-.5-.36-.95-.36h-3.83l-1.4 6h2.3l1.3-5h.7l-1.3 5h2.35l1.06-4.31zM45 31h2l1.44-6H46.4L45 31zm1.64-7h2l.36-1.5h-1.96l-.4 1.5z" fill="#E58321"/><defs><linearGradient id="afhc2jyw1" x1="10.42" y1="9.71" x2="68.15" y2="76.02" gradientUnits="userSpaceOnUse"><stop stop-color="#1A1E21"/><stop offset="1" stop-color="#06060A"/></linearGradient></defs></svg>