<svg xmlns="http://www.w3.org/2000/svg" width="56" height="56" viewBox="0 0 56 56"><path fill="#F0F3FA" d="M0 0h56v56H0z"/><circle cx="28" cy="28" r="17" fill="#B5BBC4"/><circle cx="28" cy="28" r="16" fill="url(#at4qjeacs)"/><path d="M41.33 26.4l.75-2.7c-2.52-.54-7.58-.7-7.72 2.9-.01.44.27 1.47 1.54 2.04 1.43.66 1.37 1.12 1.34 1.29v.04c0 .11-.17.62-1.06.62-.7 0-.87-.14-.86-.2v-.7h-1.87l-.64 2.5c.48.14 1.84.4 3.37.4 1.92 0 4.5-1.09 4.58-3.11.06-1.62-1.41-2.31-2.16-2.46-.28-.09-.85-.4-.81-1 .05-.74 1.3-.7 1.56-.35v.72h1.98zM24.4 23.57h-9.1l-.77 2.88h2.07l.33-1h.9l-1.38 5.13h-.86l-.56 1.93h5.01l.5-1.93h-.95l1.31-5.13h.72l-.22 1h2.37l.63-2.88zm.07 2.16l.46-2.09h4.74l-.62 2.1h-.6v3.52l2.18-3.53h-.6l.6-2.09h4.28l-5.65 8.92h-3.61l-.41-6.83h-.77z"/><path d="M41 26l.75-2.72c-2.52-.52-7.58-.68-7.72 2.85-.01.43.27 1.44 1.54 2 1.43.64 1.37 1.1 1.34 1.26v.04c0 .11-.17.57-1.06.57-.7 0-.87-.1-.86-.16V29h-1.87l-.64 2.61c.48.13 1.84.39 3.37.39 1.92 0 4.5-1.07 4.58-3.05.06-1.58-1.41-2.27-2.16-2.41-.28-.09-.85-.4-.81-.98.05-.73 1.3-.68 1.56-.34V26H41zm-16.93-3h-9.1l-.77 3h2.07l.33-1h.9l-1.38 5h-.86l-.56 2h5.01l.5-2h-.95l1.31-5h.72l-.22 1h2.37l.63-3zm.07 2l.46-2h4.74l-.62 2h-.6v3.67L30.3 25h-.6l.6-2h4.29l-5.66 9h-3.61l-.41-7h-.77z" fill="url(#bt4qjeacs)"/><defs><linearGradient id="at4qjeacs" x1="19.2" y1="15.21" x2="36.99" y2="40.93" gradientUnits="userSpaceOnUse"><stop offset=".01" stop-color="#347ABF"/><stop offset="1" stop-color="#010A40"/></linearGradient><linearGradient id="bt4qjeacs" x1="27.97" y1="22.86" x2="27.97" y2="32.04" gradientUnits="userSpaceOnUse"><stop stop-color="azure"/><stop offset=".75" stop-color="#CCCBD1"/></linearGradient></defs></svg>