<svg xmlns="http://www.w3.org/2000/svg" width="56" height="56"><path fill="#FF1516" d="M0 0h56v56H0z"/><path d="M47 37.67l-2.5.2c-1.66.15-3.31.28-4.98.41l-4.8.4-4.9.4-4.81.4c-1.91.15-3.83.3-5.73.48-4.37.41-7.58-2.4-8.19-6.09-.23-1.4.01-2.77.35-4.12l3.86-15.48c.07-.27.2-.28.4-.26l8.13.8 8.83.87 5.34.5c.4.03.6.17.77.58 2.69 6.87 5.4 13.74 8.12 20.6l.1.3z" fill="#FF1516"/><path fill-rule="evenodd" d="M39.52 38.28l4.63-.37.36-.03a135.2 135.2 0 011.37-.12h.02l1.1-.1-.04-.09-.07-.2-.65-1.65c-2.5-6.31-5-12.64-7.47-18.96-.16-.41-.37-.55-.77-.58l-5.34-.5-8.83-.87a3081.4 3081.4 0 00-8.12-.8c-.21-.02-.34-.01-.4.26l-2.05 8.2-1.82 7.28a10.1 10.1 0 00-.35 4.12c.61 3.68 3.82 6.5 8.19 6.09 1.35-.13 2.7-.24 4.06-.35l1.67-.14 2.4-.2 2.4-.19 4.91-.4 2.4-.2 2.4-.2zm-4.96-1.6l4.8-.39 4.63-.38.17-.01-7.01-17.79-4.68-.44-8.84-.87-4.06-.4-2.67-.27-1.7 6.83-1.82 7.27a8.2 8.2 0 00-.32 3.32c.45 2.67 2.74 4.73 6.03 4.42 1.37-.13 2.74-.24 4.1-.35l1.65-.14 4.8-.4 4.92-.4zm3.26-18.51z" fill="#fff"/><path d="M33.62 23.06h-.55v.4c-.02.4-.02.78-.08 1.16-.15.89-.96 1.41-1.84 1.38-.86-.03-1.64-.65-1.68-1.5-.05-1-.01-1.47-.01-2.5h1.23v2.05c0 .5.2.8.59.79.36-.02.57-.3.57-.79V22h1.75v-1.28h-4.83V27H39v1.25h-3.98v1.6a3.1 3.1 0 012.32-.42 2.8 2.8 0 11-.31 5.57h-.73v-1.24l.63-.04c.94-.07 1.55-.67 1.56-1.53 0-.8-.71-1.5-1.59-1.58-1.04-.07-1.97.55-1.9 1.8.03.84 0 1.72 0 2.59h-1.23l-.04-.7c-.79.46-1.59.63-2.43.28a2.67 2.67 0 01-1.35-1.1c-.59-1.05-.6-2.14.18-3.1.78-.97 1.83-1.29 3.61-.63v-1.48h-4.97V35h-1.22v-4.3c-.81-.02-1.6-.12-2.38.08-.27.07-.46.26-.46.55 0 .34.04.7.14 1.01.29.87.61 1.74.95 2.66h-1.24c-.05 0-.12-.1-.14-.16l-.96-2.81a2.23 2.23 0 01-.08-.51c-.05-1.04.39-1.7 1.4-1.88.77-.12 1.56-.1 2.34-.14h.4v-1.24h-1.89V27h1.89v-6.28h-.7V26h-1.21v-2.94h-1.46c1.22 2.08 1.03 4-.67 5.68a3.99 3.99 0 01-4.63.76 4.2 4.2 0 01-2.49-3.77h1.11c.12 0 .23.15.24.22.21 1.96 2.47 3.14 4.45 2.14 1.08-.54 1.67-2.06 1.3-3.35-.12-.4-.34-.8-.58-1.14a1.32 1.32 0 00-.7-.49c-.34-.08-.39-.21-.39-.55 0 0-.04-.58.05-.7.07-.1.3-.08.45-.12.5-.12.84-.63.8-1.19a1.23 1.23 0 00-1.02-1.19c-.76-.1-1.27.32-1.5 1.23h-1.26c.04-1 .49-1.73 1.3-2.21.89-.53 1.78-.5 2.63.09.52.36.9.86 1.08 1.48.19.62.03 1.2-.21 1.81h1.46V20.7l-.57-.03v-1.21h10.6v1.22h-.76V26h-1.22v-2.94zM32.2 33.52c.83.01 1.49-.64 1.5-1.48 0-.82-.63-1.46-1.45-1.46a1.47 1.47 0 00-.05 2.94z" fill="#F0F3FA"/></svg>