<svg width="56" height="56" xmlns="http://www.w3.org/2000/svg"><path fill="#9A1030" d="M0 0h56v56H0z"/><path d="M22.022 27.221c-.115.115-.188.183-.257.256-.162.171-.32.35-.485.518-.608.62-1.333.821-2.176.609-.403-.101-.809-.184-1.23-.15a.865.865 0 00-.808.838c-.012.424.313.673.715.537.12-.04.227-.117.37-.193-.043.09-.064.16-.104.219-.24.35-.593.42-.976.363-.316-.047-.53-.237-.62-.552-.094-.325.035-.695.352-.923.223-.16.471-.28.708-.42.102-.058.202-.12.334-.199-.07-.033-.093-.057-.113-.054-.427.048-.833.163-1.193.407a1.846 1.846 0 00-.58 2.397c.428.78 1.342.978 1.986.54.03-.02.062-.034.11-.06-.212.47-1.109.774-1.968.441-.524-.203-.928-.543-1.141-1.079-.207-.522-.121-1.043.066-1.605-.117.029-.193.052-.269.066-.248.046-.497.124-.747.125-.473.003-.66-.344-.423-.75.084-.145.203-.264.305-.394.043.03.066.036.069.05.117.48.452.65.919.465.254-.1.448-.279.619-.485.216-.263.423-.536.643-.795.28-.332.606-.608 1.044-.694.218-.044.449-.038.674-.05.109-.006.259.03.27-.122.008-.138-.14-.17-.25-.174a2.134 2.134 0 00-.421.025c-.304.042-.601.047-.891-.071-.35-.142-.541-.432-.534-.79a.549.549 0 01.243-.457c.16-.117.374-.158.635-.122-.035.02-.052.036-.074.043-.198.056-.343.175-.36.388-.018.207.097.364.261.475.184.127.394.184.613.193.217.007.435.015.65-.001.626-.05 1.219.067 1.799.297.271.108.552.195.828.283.626.2 1.235.131 1.812-.16a7.42 7.42 0 00.95-.562c.976-.696 2.077-.967 3.25-.994.407-.01.813.006 1.218-.002a1.18 1.18 0 00.412-.076c.302-.124.414-.431.28-.73-.158-.348-.458-.491-.813-.537a2.667 2.667 0 00-1.255.143 49.68 49.68 0 00-1.952.752c-.75.308-1.494.63-2.296.79-1.694.335-3.058-.227-4.155-1.529-.02-.024-.027-.062-.05-.119.303.102.573.203.85.282.788.223 1.583.212 2.382.084 1.009-.16 1.978-.476 2.96-.745.729-.199 1.466-.354 2.22-.409a4.72 4.72 0 011.735.186c.456.14.848.369 1.072.861.082-.139.038-.241 0-.341-.129-.332-.366-.572-.653-.767-.543-.367-1.154-.56-1.79-.667-.952-.161-1.91-.181-2.876-.133-1.375.068-2.753.16-4.131.068-1.203-.08-2.365-.338-3.408-1-.97-.617-1.674-1.475-2.163-2.505-.261-.554-.45-1.145-.671-1.719-.01-.025-.001-.055-.001-.114.05.051.081.08.108.114 1.3 1.585 2.962 2.622 4.883 3.266.952.32 1.929.52 2.924.63.984.107 1.97.189 2.954.29 1.012.105 2.032.172 3.014.456.405.116.808.27 1.18.468.818.439 1.316 1.118 1.391 2.074.001.027.014.055.022.08.002.009.013.014.044.044.025-.065.059-.117.063-.172a2.181 2.181 0 00-.653-1.81c-.344-.348-.762-.587-1.207-.779a7.85 7.85 0 00-2.127-.56c-.981-.122-1.97-.198-2.953-.3-1.632-.168-3.258-.379-4.822-.91-1.37-.464-2.602-1.156-3.617-2.21-.819-.851-1.4-1.833-1.64-3.003a5.205 5.205 0 01-.1-1.296c.062.07.097.098.116.132 1.072 1.837 2.646 3.09 4.548 3.963 1.35.621 2.765 1.051 4.201 1.42 1.562.403 3.126.787 4.682 1.206.884.238 1.747.548 2.55 1 .151.086.302.174.47.245-.119-.317-.356-.585-.267-1.022.071.097.103.177.16.212.075.045.176.087.254.071.116-.023.15-.148.13-.253a1.008 1.008 0 00-.117-.341c-.073-.121-.179-.22-.268-.33-.057-.07-.11-.145-.16-.21.025-.031.03-.044.036-.044.334 0 .61-.12.794-.406.21-.327.276-.684.175-1.064-.04-.144-.094-.285-.151-.459.332.11.468.372.61.655.111-.287.101-.62.375-.843l.118.155c.189.25.293.275.577.138.646-.313 1.307-.593 1.999-.787.063-.018.126-.038.19-.051.248-.053.45-.167.627-.357.255-.273.573-.303.873-.12.18.11.228.198.173.401a.606.606 0 00.025.439c.117.27-.093.776-.36.906-.076.037-.157.063-.236.092-.68.25-1.215.682-1.616 1.285-.12.18-.242.364-.348.553-.183.323-.447.478-.817.442-.064-.006-.126 0-.24 0 .056.07.08.132.114.138.175.03.353.069.53.063.21-.008.338.052.459.24.161.254.374.475.573.704.262.299.542.582.797.887.35.416.637.875.773 1.41.172.679.087 1.337-.193 1.973-.057.13-.119.257-.176.384.189.094.303.072.382-.116.12-.288.233-.583.303-.886.064-.274.066-.561.1-.862.041.014.096.021.14.047.638.374 1.33.43 2.028.286.616-.13 1.229-.3 1.82-.511a1.673 1.673 0 011.312.048c.837.37 1.688.708 2.58.926.054.014.11.022.165.037.25.067.264.08.256.346-.005.178.072.309.193.425.193.182.389.36.576.548.083.084.209.183.139.316-.071.133-.216.067-.336.05a7.674 7.674 0 01-1.638-.431 1.965 1.965 0 01-.257-.117c-.112-.06-.134-.154-.08-.264.025-.052.058-.099.086-.149.15-.268.114-.418-.166-.547-.248-.113-.51-.197-.768-.285-.365-.128-.741-.225-1.097-.374-.436-.182-.736.017-1.056.302.086.108.152.21.235.297.655.7 1.44 1.22 2.285 1.656.234.121.47.237.696.35.005.05.02.083.01.105-.094.244.014.422.189.576.214.187.434.367.644.558.086.08.186.172.102.355-.131 0-.28.016-.425-.003a8.462 8.462 0 01-1.705-.396c-.255-.091-.283-.135-.218-.4a.842.842 0 00-.104-.658 2.919 2.919 0 00-.406-.544 5.088 5.088 0 00-1.58-1.087c-.357-.163-.679-.16-1.01.074-.378.267-.772.51-1.164.758-1.167.737-2.403 1.308-3.759 1.595a3.63 3.63 0 01-.278.05c-.358.05-.69.17-1.021.315-.793.349-1.627.517-2.49.595-1.083.095-2.147-.036-3.208-.211-.591-.099-1.1 0-1.53.447a9.17 9.17 0 01-.788.734c-.844.697-1.818 1.143-2.852 1.472-.396.125-.792.25-1.18.393a2.352 2.352 0 00-1.421 1.379 8.13 8.13 0 01-.925 1.661c-.041.057-.068.124-.133.243.145-.047.233-.07.317-.103a3.357 3.357 0 001.788-1.624c.138-.27.261-.55.358-.837.124-.368.366-.577.732-.68.69-.193 1.367-.429 2.014-.744a7.558 7.558 0 002.048-1.456c.141-.142.287-.276.437-.405a.95.95 0 01.679-.24c.213.01.425.048.69.08-.085.127-.136.212-.195.292a5.646 5.646 0 01-1.82 1.559c-.628.342-1.285.63-1.933.941-.383.182-.776.346-1.153.54a3.18 3.18 0 00-1.14 1.001c-1.211 1.71-2.884 2.755-4.855 3.35-.334.101-.677.174-1.015.257-.045.012-.092.03-.137.024-.04-.005-.104-.034-.11-.062a.21.21 0 01.035-.149c.025-.035.078-.052.12-.073.599-.294 1.028-.76 1.346-1.34.04-.066.08-.131.11-.2.062-.142.17-.196.317-.186.029.002.056-.003.085 0 .516.072.84-.2 1.086-.611a4.6 4.6 0 00.615-1.878c.044-.42.242-.675.621-.83.322-.133.643-.277.945-.449.748-.427 1.279-1.06 1.619-1.848.271-.626.52-1.263.774-1.895.014-.038.006-.086.012-.198zm12.227-1.275c.17.055.259.004.29-.13.03-.128.055-.26.061-.392.061-1.143-.702-2.264-2.093-2.542-.033-.007-.07.007-.162.02 1.42.55 2.098 1.522 1.904 3.044zm-1.187-8.736c-.3.023-.499.19-.68.378-.137.14-.275.29-.277.535.23-.14.434-.257.632-.385.178-.114.317-.26.325-.528z" fill="#fff"/><path d="M22.707 32.249c-.047.111-.067.171-.096.226-.308.6-.606 1.839-.611 2.504-.014 1.593 0 2.235 0 3.827s.784 2.4 1.904 2.764c.695.227 1.622.214 2.343 0C27.402 41.226 28 39.96 28 38.806c.005-1.715-.001-3.083 0-4.8a6.165 6.165 0 00-.227-1.757c-.016-.055-.026-.11-.037-.165-.001-.007.008-.017.024-.044.049-.006.114-.04.175-.04h6.957c1.746.027 5.448.57 5.526 2.916.023.788-.38 1.362-1.018 1.793-.531.36-1.13.557-1.73.71.078.027.153.058.23.08.883.257 1.812.61 2.444 1.307.86.949.876 2.224.04 3.193-1.462 1.699-4.502 2.007-6.563 2.001-1.813-.008-3.626-.002-5.44-.002.024-.282.06-.744.087-1.043-1.57.62-3.112 1.05-4.811 1.045-2.482-.009-5.3-.879-5.657-3.706v-4.03c-.002-.18.05-.284.214-.383.938-.56 1.097-.486 1.73-1.366.4-.557.976-1.331 1.617-1.586.342-.137.755-.515 1.146-.68zM32 38v3.743c.006.248.03.265.286.257.987-.029 2.606-.002 3.516-1.18.364-.524.237-1.624-.274-2.014C34.663 38 32.992 38 32 38zm0-1c.807 0 2.727-.021 3.27-.735.358-.473.314-1.36-.135-1.75C34.44 33.907 32.862 34 32 34v3zM19.991 10c.037.2.071.392.111.582.314 1.489.987 2.8 1.943 3.97.87 1.065 1.895 1.957 3.01 2.748.778.552 1.585 1.064 2.366 1.612.387.27.752.571 1.114.873.11.09.183.228.274.344a1.438 1.438 0 00-.038.046c-.05-.011-.104-.015-.151-.035-1.262-.51-2.565-.887-3.886-1.197a5.126 5.126 0 01-2.464-1.373c-1.065-1.044-1.914-2.221-2.355-3.666a6.457 6.457 0 01-.056-3.647c.019-.074.045-.145.071-.216.006-.012.027-.02.061-.041zm6.948 12.444c-1.31.038-2.56.37-3.816.671-.65.155-1.302.313-1.961.413-1.542.234-2.967-.043-4.2-1.064a4.266 4.266 0 01-.966-1.109.59.59 0 01-.074-.177c.85.725 1.858 1.046 2.926 1.19.888.121 1.784.171 2.682.095.395-.034.791-.045 1.185-.064.848-.041 1.696-.099 2.545-.11.489-.007.977.063 1.465.102.071.006.142.035.214.053zm-4.564-4.084l-1.602-.439c-.462-.126-.762-.433-.956-.86a4.067 4.067 0 01-.329-1.32 19.081 19.081 0 01-.06-1.685c.616 1.69 1.642 3.082 2.947 4.304z" fill="#fff"/></svg>