<svg width="56" height="56" viewBox="0 0 56 56" xmlns="http://www.w3.org/2000/svg"><path fill="#F0F3FA" d="M0 0h56v56H0z"/><path d="m12 21 9.05-2.93L25 12.03V19a12.89 12.89 0 0 0-4.38 9.54c0 1.22.3 2.84.38 3.5l7 5.46 7-5.46c.08-.66.38-2.28.38-3.5 0-4.85-2.95-8.43-4.38-9.54v-7l3.95 6.07L44 21l-6 14.93-10 2.57-10-2.57L12 21Z" fill="#034B61"/><path d="m35 19.5 9 1.5-7 9-2-10.5Z" fill="#30659B"/><path d="m31 12 13 9-9-1.5-4-7.5Z" fill="#C0D5EE"/><path d="m19.5 35.5 8.5 3 8.5-3 1.97 6.5H17.5l2-6.5Z" fill="#30659A"/><path d="m36.5 35.5 1.97 6.5L44 21l-7.5 14.5ZM19.5 35.5l-2 6.5L12 21l7.5 14.5Z" fill="#C2D7EC"/><path d="M21 19.5 12 21l7 9 2-10.5Z" fill="#30659B"/><path d="m25 12-13 9 9-1.5 4-7.5Z" fill="#C0D5EE"/></svg>