<svg width="56" height="56" xmlns="http://www.w3.org/2000/svg"><path fill="#214191" d="M0 0h56v56H0z"/><path d="M8.002 23.5v-4.495H10v3.526c.005.417.134 1.469 1.504 1.469 1.278 0 1.516-1.052 1.496-1.47v-3.525h2.002V23.5c0 .889-.552 2.505-3.498 2.505S8.002 24.409 8.002 23.5zM16 26.005v-7h2l3 3.539v-3.54h2v7h-2l-3-3.46v3.46h-2zM25 19h2v7h-2zm-3 11h2v7h-2zm10.998 0h2v7h-2zM34 19.005h-5.595L28 21h2v5.005h2V21h1.628L34 19.005zM41.999 30h-5.595L36 31.995h2V37h2v-5.005h1.628L42 30zM35 26v-7h5v2h-3v.5h2.505l-.368 2H37v.5h3v2h-5z" fill="#fff"/><path fill-rule="evenodd" d="M41 19v7h3.81c1.084.005 3.238-.71 3.19-3.61-.05-2.901-2.354-3.39-3.523-3.39H41zm2 2v3h1.404c.541-.007 1.596-.31 1.596-1.467C46 21.359 45.037 21 44.404 21H43z" fill="#fff"/><path d="M11.129 30c.985-.01 2.043.23 2.449.35-.064.6.026 1.348.079 1.598-.728-.302-1.774-.568-2.528-.568S10 31.511 10 31.922c0 .329.233.491.414.532.52.117 1.346.306 1.752.38.615.113 1.888.599 1.835 2.121-.053 1.523-1.47 2.007-2.872 2.043-1.122.029-2.426-.246-2.938-.387a12.91 12.91 0 00-.1-1.763c1.046.58 2.158.616 2.78.64.622.024 1.102-.025 1.129-.472.021-.358-.324-.576-.553-.64l-1.575-.363c-.658-.093-1.951-.62-1.866-1.982.105-1.704 1.892-2.019 3.123-2.03zm34.157 0c.93-.01 1.93.23 2.313.35a6.6 6.6 0 00.075 1.598c-.688-.302-1.675-.568-2.388-.568-.712 0-1.066.131-1.066.542 0 .329.22.491.391.532.492.117 1.271.306 1.654.38.582.113 1.784.599 1.734 2.121-.05 1.523-1.388 2.007-2.713 2.043-1.06.029-2.291-.246-2.775-.387a13.76 13.76 0 00-.093-1.763c.987.58 2.037.616 2.624.64.588.024 1.042-.025 1.067-.472.02-.358-.306-.576-.523-.64l-1.487-.363c-.62-.093-1.842-.62-1.762-1.982.1-1.704 1.787-2.019 2.95-2.03z" fill="#fff"/><path fill-rule="evenodd" d="M15.002 30v7H17v-2.637h1.805c.745-.04 2.227-.532 2.195-2.181-.03-1.65-1.263-2.182-2.074-2.182h-3.924zM17 31.223V33.2h1.077c.318-.01.947-.227.922-1.005-.025-.779-.625-.973-.922-.973H17zM25 30v7h2v-2.589h.73c.334-.04 1.181.42 1.903 2.589H32c-.44-.98-1.571-2.982-2.586-3.148.65-.016 1.952-.41 1.952-1.859S29.987 30 29.414 30H25zm2 1.173v2.008h1.14c.293-.02.873-.246.86-.995-.014-.748-.55-.987-.817-1.013H27z" fill="#fff"/></svg>