<svg width="56" height="56" viewBox="0 0 56 56" xmlns="http://www.w3.org/2000/svg"><path fill="#F0F3FA" d="M0 0h56v56H0z"/><path fill-rule="evenodd" d="m21.15 25.62 1.22-1.38-.86-.8h1.73l1.4-1.44-.1 1.44h1.58l-1.66.8v1.38l-1.32-.87-1.99.87ZM6.04 24l-1.9 4.63c-.46 1.12.3 2.37 1.43 2.37h2.94c1.11 0 2.12-.7 2.59-1.78L13.33 24h-3l-1.98 5H6.9l1.96-5H6.04Zm8 0-2.94 7h2.94l2.03-5h1.3l-1.91 5h2.77l1.91-4.8c.42-1.04-.3-2.2-1.35-2.2h-4.75Zm7.18 2-2.01 5h2.86l2.04-5h-2.89Zm6.74 5h-5.08l.65-2h3.38l-1.37-1.96c-.87-1.26-.04-3.04 1.42-3.04h3.98l-.8 2h-2.08l1.32 1.96c.86 1.26.03 3.04-1.42 3.04Zm9.07-5h-1.72l-2 5h-2.98l2.03-5h-1.6l.84-2h6.33l-.9 2Zm1.53-2h4.37c1.06 0 1.77 1.13 1.34 2.13L42.34 31h-4.41C36.86 31 36 29.86 36 28.76c0-.71.22-1.76 2.26-1.76h2.8l.15-.3c.15-.31.18-.7-.17-.7H37.8l.76-2Zm1.63 5.5h-.8c-.13-.03-.37-.16-.37-.44 0-.34.45-.56.85-.56h.74l-.42 1Zm5.7-5.5-2.84 7h2.83l1.06-2.5h.85c.2 0 .35.14.27.35l-.4 1.05c-.17.58.08.98.23 1.1h2.86c-.34-.65-.12-1.09.12-1.55.16-.3.32-.63.32-1.03 0-.8-.57-1.1-.85-1.16.74-.17 1.66-.68 1.66-1.9 0-.98-.97-1.31-1.45-1.36h-4.67Zm2 2-.25 1h.74c.2 0 .62-.1.62-.5 0-.38-.17-.5-.26-.5h-.84Z" fill="#005AA5"/></svg>