<svg width="56" height="56" viewBox="0 0 56 56" xmlns="http://www.w3.org/2000/svg"><path fill="#F0F3FA" d="M0 0h56v56H0z"/><path d="M11 22.2c3.04 2.7 4.5 5.78 5.56 8.75.3.86.59 1.76.87 2.64l.59 1.82c.48 1.42 1 2.73 1.7 3.91 1.46 2.44 2.87 3.86 4.23 4.67a7.82 7.82 0 0 0 4.18 1.06c1.76 0 3.27-.15 4.22-.3-.13-1.69.48-3.37 1.37-4.95a42.14 42.14 0 0 1 4.44-6.04c1.5-1.82 2.97-3.6 4.08-5.39 1.18-1.88 1.87-3.62 1.83-5.26a14.42 14.42 0 0 0-1.5-5.74 17.77 17.77 0 0 0-1.96-3.22 18.26 18.26 0 0 1-5.16 1.55c-1.69.2-3.14.06-4.56-.2a51.2 51.2 0 0 1-2.22-.5 31.13 31.13 0 0 0-7.88-1.05 9.23 9.23 0 0 0-7.35 3.26 11.58 11.58 0 0 0-2.44 5ZM40.86 13c1.38 1.52 4.03 5.67 4.14 10.09.09 3.72-3.06 7.54-6.11 11.26-3.12 3.79-6.14 7.46-5.56 10.8l.08.37c-.2.05-.51.1-.91.17-1 .15-2.56.31-4.37.31-3.15 0-6.17-1.12-9.2-6.19a27.96 27.96 0 0 1-2.4-5.97c-1.2-3.81-2.5-7.88-6.53-11.27.46-3.19 3.26-9.57 10.8-9.57 3.51 0 5.97.58 8.14 1.1 3.62.85 6.4 1.5 11.92-1.1Z" fill="url(#aatgzx0xp)"/><path d="M11 22.14a.1.1 0 0 1-.1.01c-.07-.03-.09-.07-.06-.14.35-.99.76-1.9 1.21-2.76.7-1.34 1.57-2.46 2.6-3.36a8.46 8.46 0 0 1 5.87-2.13c1.54.01 2.97.14 4.3.39l5.34 1a23 23 0 0 0 5.07.33c1.7-.06 3.35-.5 4.96-1.33.19-.09.24-.04.16.16a24.65 24.65 0 0 1-1.59 3.24 13.02 13.02 0 0 1-2.16 2.77c-2.17 2.07-5.14 2.85-8.9 2.36-.98-.13-2.46-.4-4.44-.8l-2.77-.53a36.76 36.76 0 0 0-2.79-.39c-1.2-.11-2.34-.08-3.43.1-1.2.19-2.3.55-3.28 1.08Z" fill="url(#batgzx0xp)"/><path d="M32.38 44.83a.46.46 0 0 0-.14-.16c.02-.06.01-.11-.02-.15l-.76-1.06a13.8 13.8 0 0 1-2.1-4.2c-.61-2.01-.5-4.06.32-6.14.6-1.5 1.43-2.9 2.5-4.22a840.8 840.8 0 0 0 4-4.94 24.08 24.08 0 0 0 3.15-5.03c.27-.6.53-1.28.76-2.05.12-.38.2-.77.24-1.17l.15-1.12c.05-.35.17-.37.36-.07l.1.17c.09.15.16.27.22.34a12.7 12.7 0 0 1 2.8 7.16 9.71 9.71 0 0 1-.87 4.58 17.58 17.58 0 0 1-2.45 3.98 129.3 129.3 0 0 1-3.35 4.09 29.13 29.13 0 0 0-2.95 4.05 12.68 12.68 0 0 0-1.85 5.83.1.1 0 0 1-.06.09l-.05.02Z" fill="url(#catgzx0xp)"/><path d="M32.24 44.67c.06.04.1.1.14.16v.08l-.03.02c-1.01.14-1.92.22-2.73.24-.94.01-1.85-.05-2.71-.2a9.07 9.07 0 0 1-6.1-3.73 17.4 17.4 0 0 1-2.33-4.52c-.73-2.12-1.48-4.3-2.24-6.57a21.78 21.78 0 0 0-2.04-4.34 10.45 10.45 0 0 0-3.3-3.42c-.1-.07-.1-.11.03-.14 3.54-.65 6.4-.3 8.57 1.04a9.96 9.96 0 0 1 3.3 3.61c.67 1.17 1.33 2.7 1.97 4.59l.4 1.19A89.47 89.47 0 0 0 26.7 37a24.7 24.7 0 0 0 1.94 3.96c.93 1.48 2.1 2.7 3.5 3.7.03.01.06.02.1.01Z" fill="url(#datgzx0xp)"/><defs><linearGradient id="aatgzx0xp" x1="10" y1="19.52" x2="40.04" y2="38.01" gradientUnits="userSpaceOnUse"><stop stop-color="#F2F6F8"/><stop offset=".2" stop-color="#B2B2B2"/><stop offset=".57" stop-color="#F6F8F7"/><stop offset=".79" stop-color="#CCC"/><stop offset=".88" stop-color="#F9FBFA"/><stop offset="1" stop-color="#B0B2AF"/></linearGradient><linearGradient id="batgzx0xp" x1="10.82" y1="18.29" x2="40.39" y2="18.29" gradientUnits="userSpaceOnUse"><stop offset=".16" stop-color="#1494E0"/><stop offset="1" stop-color="#22508C"/></linearGradient><linearGradient id="catgzx0xp" x1="43.22" y1="17.46" x2="30.22" y2="40.26" gradientUnits="userSpaceOnUse"><stop offset=".35" stop-color="#B0DB19"/><stop offset="1" stop-color="#59C035"/></linearGradient><linearGradient id="datgzx0xp" x1="13.91" y1="23.4" x2="29.34" y2="44.18" gradientUnits="userSpaceOnUse"><stop offset=".09" stop-color="#43102F"/><stop offset=".83" stop-color="#E4114C"/></linearGradient></defs></svg>