<svg width="56" height="56" viewBox="0 0 56 56" xmlns="http://www.w3.org/2000/svg"><path fill="#4B84AB" d="M0 0h56v56H0z"/><path fill-rule="evenodd" d="M13 20h1v2.93c0 .6.45 1.07 1 1.07s1-.48 1-1.07V20h1v3.26c0 .96-.73 1.74-1.64 1.74h-.72c-.9 0-1.64-.78-1.64-1.74V20Zm5 1h1v.37c.16-.18.43-.37.91-.37.9 0 1.12.8 1.12 1.03v2.95H20v-2.62c0-.18-.02-.56-.43-.56-.26 0-.45.2-.57.42V25h-1v-4Zm21 4h1v-4h-1v2.8c-.12.2-.3.4-.56.4-.4 0-.43-.38-.44-.56v-2.62h-1v2.95c0 .24.22 1.03 1.1 1.03.47 0 .74-.18.9-.36V25Zm-6.2-4c.11 0 .21.01.3.03l-.2.96a.49.49 0 0 0-.44-.23c-.2 0-.35.1-.46.24v3h-1v-4h1v.25c.17-.13.42-.25.8-.25ZM23 20h-1v.5h1V20Zm0 1h-1v4h1v-4Zm.52 0 1.27 4h.88l1.27-4h-.87l-.82 2.43L24.4 21h-.87Zm4.43 2.38h2.55v-.86A1.65 1.65 0 0 0 28.77 21C27.15 21 27 22.65 27 23.1c0 .43.18 1.9 1.84 1.9 1 0 1.48-.54 1.6-.81l-.85-.33c-.05.1-.28.33-.75.33-.6 0-.89-.4-.89-.8Zm.11-.82h1.44c0-.25-.15-.75-.72-.75-.58 0-.72.5-.72.75Zm5.13 1.78.85-.54c.06.13.3.38.8.38s.66-.25.67-.38c0-.1-.16-.32-.74-.37-.73-.07-1.36-.63-1.36-1.36 0-.73.55-1.07 1.43-1.07.88 0 1.29.21 1.66.72l-.78.35c-.1-.1-.42-.3-.88-.3s-.55.2-.54.3c.03.13.24.38.86.4.79.02 1.39.6 1.39 1.24 0 .63-.66 1.29-1.7 1.29-.85 0-1.46-.44-1.66-.66Zm8.2-.54-.89.54c.2.22.84.66 1.72.66 1.1 0 1.78-.66 1.78-1.3 0-.63-.62-1.2-1.44-1.23-.66-.02-.88-.27-.9-.4-.02-.1.08-.3.56-.3.48 0 .81.2.92.3l.8-.35c-.38-.5-.8-.72-1.72-.72-.92 0-1.5.34-1.5 1.07s.67 1.3 1.42 1.36c.61.05.77.27.78.37-.02.13-.18.38-.7.38s-.77-.25-.83-.38ZM16 32.02V30h-.64v-1H16v-.38l1-.62v1h1v1h-1l-.01 1.52c0 .28.2.48.46.48H18v1h-1.09c-.5 0-.91-.44-.91-.98ZM4 33v-5h2.17c.76 0 1.37.68 1.37 1.52 0 .83-.61 1.52-1.37 1.52H5V33H4Zm2.08-4H5v1h1.08c.23 0 .42-.22.42-.5s-.19-.5-.42-.5ZM9 28H8v5h1v-2.8c.12-.2.3-.4.56-.4.4 0 .43.38.44.57V33h1v-2.96c0-.24-.22-1.04-1.1-1.04-.47 0-.74.18-.9.36V28Zm4.5 5a2 2 0 1 0 0-4 2 2 0 0 0 0 4Zm0-.8c.55 0 1-.54 1-1.2 0-.66-.45-1.2-1-1.2s-1 .54-1 1.2c0 .66.45 1.2 1 1.2Zm9-1.2a2 2 0 1 1-4 0 2 2 0 0 1 4 0Zm-1 0c0 .66-.45 1.2-1 1.2s-1-.54-1-1.2c0-.66.45-1.2 1-1.2s1 .54 1 1.2Zm2.5-3h1v5h-1v-5Zm3 1h-1v4h1v-2.77c.12-.22.3-.42.57-.42.4 0 .42.37.43.56V33h1.03v-2.87c.12-.17.29-.32.51-.32.41 0 .45.37.46.56V33h1v-2.96c0-.24-.22-1.04-1.12-1.04-.6 0-.87.3-1.02.51a1.05 1.05 0 0 0-.95-.51c-.48 0-.75.2-.91.37V29Zm15 0h1v.39c.16-.18.43-.36.9-.36.88 0 1.1.78 1.1 1.03v2.92h-1v-2.6c0-.18-.04-.55-.44-.55-.26 0-.44.19-.56.4V33h-1v-4Zm-2-.5V28h1v.5h-1Zm0 4.5v-4h1v4h-1Zm9.65-1.2-.8.54c.2.22.76.66 1.55.66.99 0 1.6-.66 1.6-1.3 0-.63-.56-1.2-1.3-1.23-.58-.02-.78-.27-.8-.4-.02-.1.07-.3.5-.3s.73.2.83.3l.72-.35c-.34-.5-.72-.72-1.55-.72-.83 0-1.34.34-1.34 1.07s.59 1.3 1.27 1.36c.55.05.7.27.7.37-.02.13-.16.38-.63.38s-.7-.25-.75-.38Zm-17-1.44-.95-.4c.12-.32.62-.96 1.63-.96 1.2 0 1.67.67 1.67 1.01v2.18c0 .4.15.71.24.81H34v-.55c-.1.18-.55.55-1.15.55-.94 0-1.16-.75-1.15-1.12 0-.78.82-1.13 1.23-1.21l1.07-.31a.66.66 0 0 0-.67-.54.7.7 0 0 0-.69.54ZM34 31.67v-.52c-.1.05-.27.07-.45.08-.4.04-.87.09-.87.44 0 .41.3.54.46.55.4 0 .8-.37.86-.55Zm4 .56c-.24.23-.54.37-.87.37-.8 0-1.44-.8-1.44-1.8s.64-1.8 1.44-1.8c.33 0 .63.13.87.36V29h1v3.63c0 .5-.3 1.37-1.71 1.37-1.13 0-1.54-.78-1.6-1.17h.86c.1.15.43.44.84.44.58 0 .6-.43.61-.64v-.4Zm0-1.43c0 .63-.33 1.14-.72 1.14-.4 0-.72-.51-.72-1.14 0-.63.32-1.14.72-1.14.4 0 .71.5.71 1.14Zm8.72 1.8c.32 0 .62-.14.86-.37v.4c0 .21-.03.64-.6.64-.42 0-.74-.3-.85-.44h-.86c.06.4.47 1.17 1.6 1.17 1.4 0 1.71-.87 1.71-1.37V29h-1v.36a1.27 1.27 0 0 0-.86-.36c-.8 0-1.45.8-1.45 1.8s.65 1.8 1.45 1.8Zm.14-.66c.4 0 .72-.51.72-1.14 0-.63-.32-1.14-.72-1.14-.4 0-.71.5-.71 1.14 0 .63.32 1.14.71 1.14Z" fill="#fff"/></svg>