<svg width="56" height="56" xmlns="http://www.w3.org/2000/svg"><path fill="#F0F3FA" d="M0 0h56v56H0z"/><path d="M34.074 18.823c-2.123-5.555-8.634-8.264-14.544-6.052-5.91 2.213-8.98 8.509-6.858 14.063 2.123 5.555 8.635 8.264 14.545 6.051 5.91-2.212 8.98-8.508 6.857-14.062z" fill="#FE6900" fill-opacity=".1"/><path opacity=".5" d="M23.646 14.11c-3.233.563-6.32 2.06-8.625 6.1-.853 1.496-2.788 5.453-2.34 9.863.234 2.297 1.293 4.06 2.125 5.388.994 1.585 2.318 3.059 3.336 4.083 2.038 2.047 4.891 4.127 7.515 4.401 1.14.12 2.467.064 3.817-.366 1.879-.599 3.84-1.852 5.735-3.632 2.036-1.913 2.806-3.033 3.763-4.07 1.508-1.633 2.37-2.5 3.616-3.793 1.858-1.927 1.798-5.24.311-7.868-1.683-2.976-3.586-4.395-3.586-4.395s-3.188-3.27-7.698-4.895c-2.807-1.012-5.82-1.191-7.968-.817z" fill="url(#paint0_linear)"/><path opacity=".5" d="M35.327 41.248c-.784.599-2.662 1.645-4.986 2.01.23.002.467 0 .717-.005.782-.017 1.62.068 2.542.04 2.565-.076 3.303-1.58 4.762-3.561.886-1.204 1.457-2.376 1.934-3.826.194-.59.386-1.239.553-2.023-.136.142-.275.286-.417.436-1.18 3.046-3.024 5.338-5.105 6.929z" fill="url(#paint1_linear)"/><path opacity=".7" d="M22.744 42.123c-2.868-1.243-3.496-1.58-5.951-4.03l-.072-.072c.783 1.485 1.521 2.926 3.066 3.633.448.204.948.361 1.47.48.753.171 1.55.262 2.293.295-.29-.098-.561-.2-.806-.306z" fill="#FFB770"/><path opacity=".5" d="M41.187 31.823c-.042.22-.088.42-.134.593a18.732 18.732 0 01-.621 1.903c.142-.15.28-.294.417-.436.08-.372.154-.774.22-1.216.043-.288.082-.57.118-.844z" fill="#FFE92C"/><path opacity=".5" d="M31.615 14.926a16.989 16.989 0 00-3.373-.829c-1.69-.238-3.299-.214-4.596.012-1.047.183-2.079.463-3.073.897-1.444 1.141-2.776 2.74-3.855 4.498-1.495 2.433-2.886 5.786-3.281 7.583-.226 1.027-.35 3.07.063 3.877.008.017.018.032.026.05-.237-1.995.015-4.17 1.108-6.3a9.508 9.508 0 01.746-1.745c.677-1.219 1.723-2.394 3.178-3.363a16.022 16.022 0 013.514-2.55c2.12-1.644 4.145-2.472 5.427-2.61.486-.053.968-.06 1.443-.025a8.67 8.67 0 012.246.476c.222.031.442.07.66.115a8.825 8.825 0 00-.233-.086z" fill="url(#paint2_linear)"/><path d="M28.942 14.42a8.038 8.038 0 00-1.443.025c-1.282.139-3.306.967-5.427 2.61a23.337 23.337 0 012.109-1.006c2.051-.863 3.845-1.247 5.484-1.255.522-.003 1.029.032 1.523.102a8.674 8.674 0 00-2.245-.476z" fill="#E94665"/><path d="M18.558 19.606c-1.455.969-2.5 2.144-3.177 3.363a9.57 9.57 0 00-.747 1.745c.227-.443.491-.885.795-1.321 1.055-1.521 2.046-2.75 3.129-3.787z" fill="#E94978"/><path opacity=".7" d="M41.396 25.34c-.05-.48-.115-.893-.185-1.246-.35-1.768-.958-2.948-1.39-3.612-.294-.449-.507-.662-.507-.662s-.066-.068-.193-.19c-.738-.704-3.529-3.21-7.273-4.619a10.452 10.452 0 00-2.183-.218c-1.64.009-3.433.392-5.485 1.256-.764.321-1.462.654-2.109 1.005a19.472 19.472 0 00-1.83 1.615l-.048.048a25.301 25.301 0 00-4.028 5.345c-1.073 1.902-1.733 3.722-1.976 5.46-.06.43-.095.855-.104 1.275-.008.43.017.85.072 1.266.209 1.546.852 3.026 1.854 4.679.249.41.475.834.696 1.254l.086.099c2.456 2.448 3.084 2.786 5.95 4.029.246.106.518.208.807.306 2.043.684 5.03 1.106 6.79.83h.001c2.324-.366 4.202-1.412 4.986-2.011 2.081-1.591 3.925-3.883 5.105-6.929.234-.605.443-1.238.62-1.903a8.94 8.94 0 00.136-.593c.383-2.92.363-5.017.208-6.484z" fill="url(#paint3_linear)"/><path opacity=".5" d="M36.352 16.942c-1.462-.92-2.925-1.602-4.504-1.93 3.744 1.409 6.535 3.915 7.273 4.62.127.12.193.189.193.189s-.81-1.526-2.962-2.88z" fill="#FFE1B1"/><path d="M26.93 42.16c-.526.114-1.061.196-1.606.242 1.69.56 2.972.845 5.016.857 1.132-.474 2.286-1.173 3.429-2.07-.732.352-1.523.65-2.378.909-1.62.489-3.075.459-4.46.061z" fill="#FF923A"/><path opacity=".5" d="M41.396 25.34c-.05-.48-.115-.893-.185-1.246-.35-1.768-.958-2.948-1.39-3.612-.294-.449-.507-.662-.507-.662s-.066-.068-.193-.19c-.305-.282-.949-.82-1.775-1.18-.415-.18-.912-.337-1.532-.494.088.088.175.178.26.268 2.246 2.369 4.198 4.866 4.785 8.615.155.99-.078 2.176-.37 3.181.582 1.616.448 1.917.129 2.97-.132.436-.516 1-1.197 1.61-.178.503-.37.975-.578 1.419l.13-.143c.557-.604 1.026-1.102 1.46-1.557.233-.605.442-1.238.62-1.903.046-.173.092-.373.135-.593.383-2.92.362-5.016.208-6.483z" fill="url(#paint4_linear)"/><path d="M40.49 30.02v.007c-.008.867-.465 2.855-1.07 4.571.682-.608 1.066-1.173 1.198-1.608.319-1.054.453-1.355-.128-2.97z" fill="#FFC93D"/><path d="M20.241 18.67a19.472 19.472 0 011.83-1.615 16.045 16.045 0 00-3.513 2.55c.478-.318 1-.615 1.57-.883l.113-.052z" fill="#F95700"/><path d="M16.707 37.996c-.221-.42-.447-.843-.696-1.254-1.002-1.653-1.645-3.133-1.853-4.68a8.217 8.217 0 01-.072-1.265c.008-.42.042-.846.103-1.276-.181-1.692-.018-3.343.445-4.807-1.093 2.129-1.344 4.304-1.108 6.299a13.074 13.074 0 002.061 5.588 9.821 9.821 0 001.133 1.42l-.013-.025z" fill="#F1838C"/><path d="M14.189 29.521c.242-1.737.903-3.557 1.976-5.46a25.28 25.28 0 014.028-5.343l.048-.048-.114.052c-.569.268-1.091.565-1.57.883-1.083 1.038-2.074 2.266-3.129 3.786-.303.438-.567.88-.795 1.322-.463 1.465-.625 3.116-.444 4.808z" fill="#ED504D"/><path d="M39.42 34.6c-.478 1.056-1.27 2.08-2.68 2.966-.902.567-1.849.95-2.765 1.212-.24.178-.49.354-.752.528-1.938 1.284-4.032 2.363-6.293 2.854 1.386.398 2.84.427 4.46-.062a16.267 16.267 0 002.378-.91c2.229-1.075 3.899-2.66 5.075-5.17.208-.444.4-.915.578-1.419z" fill="url(#paint7_linear)"/><path d="M40.49 30.027v-.007c-.407 1.403-1.074 2.649-2.24 4.234a30.418 30.418 0 01-1.733 2.181c1.282-.6 2.236-1.239 2.904-1.836.605-1.716 1.06-3.705 1.069-4.572z" fill="url(#paint8_linear)"/><path d="M25.324 42.401a12.48 12.48 0 001.607-.242c2.261-.49 4.355-1.57 6.293-2.854a16.544 16.544 0 003.294-2.87c.46-.518.888-1.055 1.31-1.614.141-.187.282-.376.423-.567 1.166-1.585 1.832-2.831 2.24-4.234.291-1.007.524-2.193.369-3.183-.587-3.747-2.54-6.246-4.785-8.614a16.49 16.49 0 00-.26-.268c-1.368-1.38-2.938-2.467-4.627-3.06-.494-.07-1-.105-1.523-.103-1.639.01-3.433.393-5.484 1.256-.765.322-1.462.654-2.11 1.005a19.484 19.484 0 00-1.83 1.616l-.047.047a25.303 25.303 0 00-4.03 5.345c-1.072 1.903-1.732 3.723-1.975 5.46-.06.43-.095.856-.104 1.276-.008.43.017.85.072 1.266.209 1.546.852 3.026 1.854 4.679.249.41.475.834.696 1.254l.086.099c2.456 2.448 3.084 2.786 5.95 4.029.246.106.518.208.807.306.656.028 1.27.013 1.774-.029z" fill="url(#paint9_linear)"/><path d="M40.859 26.838c-.587-3.748-2.539-6.246-4.785-8.614-.085-.091-.172-.18-.26-.269a36.246 36.246 0 00-1.453-.329c-.315-.065-.653-.134-1.017-.206-1.803-.357-3.4-.633-4.534-.653-2.42-.043-6.037.735-8.569 1.902l-.047.048a25.28 25.28 0 00-4.03 5.345c-1.072 1.902-1.733 3.722-1.975 5.46a13.21 13.21 0 001.027 3.866c.407.933.93 1.846 1.58 2.711 3.184 4.246 6.62 5.67 8.528 6.303a12.48 12.48 0 001.607-.243c2.261-.49 4.355-1.57 6.292-2.854a16.544 16.544 0 003.294-2.87 26.05 26.05 0 001.311-1.614c.141-.187.282-.376.423-.567 1.166-1.585 1.832-2.831 2.24-4.234.29-1.006.523-2.192.368-3.182z" fill="url(#paint10_linear)"/><path d="M39.599 23.694a9.832 9.832 0 00-.404-.972 11.852 11.852 0 00-1.424-2.117 9.28 9.28 0 00-1.385-1.328c-1.154-.892-2.362-1.37-3.524-1.748-2.49-.809-5.757-.64-9.22.796-3.282 1.361-5.15 3.017-6.135 4.493-.986 1.476-1.364 2.828-1.959 4.338-.388.989-.809 1.798 1.284 4.544a24.529 24.529 0 002.967 3.267 23.093 23.093 0 004.504 3.203c.379.21.73.386 1.058.536 2.029.924 3.171.796 4.544.696 1.009-.073 2.494-.171 4.07-.624a16.55 16.55 0 002.543-2.343c.612-.69 1.17-1.414 1.733-2.18 1.166-1.586 1.832-2.832 2.24-4.235.002-1.878-.32-4.623-.892-6.326z" fill="url(#paint11_linear)"/><path d="M28.834 18.718c-2.56-.782-5.083.59-6.662 1.238-1.578.649-3.35 2.04-3.58 6.613-.126 2.472.31 6.01 1.206 8.398a23.1 23.1 0 004.504 3.203c.38.21.73.386 1.059.536 1.287.026 2.744-.117 4.274-.36 1.487-.237 3.382-.603 4.786-1.076a19.97 19.97 0 002.096-.835c.613-.69 1.17-1.415 1.733-2.18 1.166-1.586 1.833-2.832 2.24-4.235-.449-1.248-1.108-2.57-2.857-4.824-3.118-4.02-6.238-5.697-8.799-6.478z" fill="url(#paint12_linear)"/><path d="M24.528 38.442c1.272-1.55 1.203-3.69-.153-4.78-1.357-1.092-3.488-.72-4.76.83-1.272 1.55-1.203 3.69.153 4.78 1.357 1.091 3.488.719 4.76-.83z" fill="#FFC72F" fill-opacity=".1"/><path opacity=".1" d="M24.256 33.885c5.831 0 10.558-4.746 10.558-10.6 0-5.855-4.727-10.6-10.558-10.6-5.83 0-10.557 4.745-10.557 10.6 0 5.854 4.727 10.6 10.557 10.6z" fill="#FF7D00"/><path d="M19.799 34.967l.045.12c.76 1.957 1.855 2.908 3.06 3.277.71.217 1.54.322 2.457.341a15.36 15.36 0 01-1.058-.536c-1.589-.875-3.08-1.9-4.504-3.202z" fill="#FEA500"/><path d="M33.975 38.778a10.742 10.742 0 002.765-1.212c1.41-.886 2.203-1.91 2.681-2.967-.668.597-1.622 1.236-2.904 1.836a16.52 16.52 0 01-2.542 2.343z" fill="url(#paint13_linear)"/><path d="M30.944 20.792c-1.84-.957-5.066.607-8.098 2.65-3.033 2.043-2.93 3.975-2.13 5.78.806 1.82 2 2.395 3.936 4.662s2.936 4.502 6.646 3.544c3.71-.957 4.678-7.791 4.485-10.824-.194-3.034-3-4.854-4.84-5.812z" fill="url(#paint14_linear)"/><path d="M31.188 30.758c2.824 0 5.114-2.266 5.114-5.062 0-2.796-2.29-5.062-5.114-5.062-2.825 0-5.115 2.267-5.115 5.062 0 2.796 2.29 5.062 5.115 5.062z" fill="url(#paint15_linear)"/><defs><linearGradient id="paint0_linear" x1="14.437" y1="21.152" x2="40.206" y2="36.9" gradientUnits="userSpaceOnUse"><stop stop-color="#F26BC7"/><stop offset=".481" stop-color="#FFA97F"/><stop offset=".822" stop-color="#FFC358"/><stop offset=".998" stop-color="#F69A5C"/></linearGradient><linearGradient id="paint1_linear" x1="32.801" y1="43.506" x2="40.542" y2="33.633" gradientUnits="userSpaceOnUse"><stop offset=".015" stop-color="#FF720C"/><stop offset=".515" stop-color="#FFC100"/><stop offset=".993" stop-color="#FED899"/></linearGradient><linearGradient id="paint2_linear" x1="28.601" y1="12.361" x2="12.661" y2="29.671" gradientUnits="userSpaceOnUse"><stop offset=".028" stop-color="#FA916A"/><stop offset=".264" stop-color="#F47896"/><stop offset=".993" stop-color="#F5817D"/></linearGradient><linearGradient id="paint3_linear" x1="37.54" y1="18.167" x2="19.395" y2="40.99" gradientUnits="userSpaceOnUse"><stop offset=".003" stop-color="#FFE272" stop-opacity=".5"/><stop offset=".412" stop-color="#FFE340"/><stop offset=".75" stop-color="#FF8C5A"/><stop offset="1" stop-color="#F8806F"/></linearGradient><linearGradient id="paint4_linear" x1="38.145" y1="18.286" x2="40.45" y2="35.329" gradientUnits="userSpaceOnUse"><stop offset=".025" stop-color="#FFBF3A"/><stop offset=".487" stop-color="#FFDE78"/><stop offset="1" stop-color="#FFD055"/></linearGradient><linearGradient id="paint7_linear" x1="27.813" y1="42.969" x2="39.181" y2="36.287" gradientUnits="userSpaceOnUse"><stop stop-color="#FF8533"/><stop offset=".484" stop-color="#FF9C32"/><stop offset=".992" stop-color="#FFB934"/></linearGradient><linearGradient id="paint8_linear" x1="37.148" y1="36.778" x2="41.154" y2="30.27" gradientUnits="userSpaceOnUse"><stop stop-color="#FF9F06"/><stop offset=".992" stop-color="#FFAD02"/></linearGradient><linearGradient id="paint9_linear" x1="18.873" y1="21.251" x2="36.592" y2="37.788" gradientUnits="userSpaceOnUse"><stop stop-color="#F2582F"/><stop offset=".398" stop-color="#FC7C30"/><stop offset=".994" stop-color="#FFBE15"/></linearGradient><linearGradient id="paint10_linear" x1="19.586" y1="20.526" x2="35.807" y2="36.94" gradientUnits="userSpaceOnUse"><stop stop-color="#EB2E1D"/><stop offset=".425" stop-color="#FF800A"/><stop offset=".697" stop-color="#FFA102"/><stop offset=".994" stop-color="#FFCA37"/></linearGradient><linearGradient id="paint11_linear" x1="22.799" y1="18.725" x2="34.756" y2="38.737" gradientUnits="userSpaceOnUse"><stop offset=".023" stop-color="#F75002"/><stop offset=".475" stop-color="#FF9F00"/><stop offset=".987" stop-color="#FFD552"/></linearGradient><linearGradient id="paint12_linear" x1="24.406" y1="19.133" x2="32.578" y2="38.51" gradientUnits="userSpaceOnUse"><stop offset=".022" stop-color="#FF8700"/><stop offset=".371" stop-color="#FFB000"/><stop offset=".658" stop-color="#FFB808"/><stop offset=".996" stop-color="#FFCC3A"/></linearGradient><linearGradient id="paint13_linear" x1="34.048" y1="38.877" x2="39.503" y2="34.853" gradientUnits="userSpaceOnUse"><stop stop-color="#FEA512"/><stop offset=".992" stop-color="#FFAB10"/></linearGradient><linearGradient id="paint14_linear" x1="25.624" y1="22.015" x2="32.656" y2="36.982" gradientUnits="userSpaceOnUse"><stop offset=".023" stop-color="#FFB100"/><stop offset=".51" stop-color="#FEB705"/><stop offset="1" stop-color="#FFC72F"/></linearGradient><linearGradient id="paint15_linear" x1="26.07" y1="25.697" x2="36.298" y2="25.697" gradientUnits="userSpaceOnUse"><stop stop-color="#FFB300"/><stop offset=".029" stop-color="#FFB301" stop-opacity=".972"/><stop offset="1" stop-color="#FFBD12" stop-opacity="0"/></linearGradient></defs></svg>