<svg xmlns="http://www.w3.org/2000/svg" width="56" height="56"><path fill="#F0F3FA" d="M0 0h56v56H0z"/><path d="M17.96 41C7.39 40.85 8 35.27 8 35.27 8.4 28.29 19.79 24 19.79 24s-12.97 8.75-2.77 12.61c0 0 10.82 3.63 26.74-4.33 0 0-11.73 8.89-25.8 8.72z" fill="#F2992A"/><path d="M36.38 19.1s3.38.28 5.33 2.09c2.77 2.57.7 8.94-16.57 15.74 0 0 6.6-.6 13.24-3.96 3.23-1.64 6.79-3.65 9.01-7.13 1.5-2.4 1.02-7.42-11.01-6.73z" fill="#9F9F9F"/><path d="M25.74 17.02L24.7 18.6l2.91 3.5 2.94-3.5-.89-1.58h-3.92zm6 0l-1.14 1.6 1.93 2.24-4.92 5.08-4.89-5.1 1.93-2.24-1.14-1.6h-2.07l-2.77 3.7 8.94 10.28V31v-.02l8.94-10.28L33.8 17h-2.05v.02z" fill="#2B2C7C"/></svg>