<svg width="56" height="56" viewBox="0 0 56 56" xmlns="http://www.w3.org/2000/svg"><path fill="#F0F3FA" d="M0 0h56v56H0z"/><path d="M36.1 7c-.07 3.24-.8 10.65-3.07 14.4l-.57.9a11.01 11.01 0 0 0-5.2-1.3A11.38 11.38 0 0 0 16 32.5C16 38.85 21.04 44 27.25 44c3.6 0 6.3-1.28 8.26-3.88.46-.6.58-1.38.43-2.12l-.02-.09a1.42 1.42 0 0 0-.32-.65l-.02-.02c-.4-.46-.95-.74-1.56-.81-1-.11-1.92.44-2.56 1.22-.98 1.2-2.25 1.75-4.2 1.75a6.83 6.83 0 0 1-6.76-6.9c0-3.81 3.02-6.9 6.75-6.9.91 0 1.78.18 2.57.52a62.18 62.18 0 0 1-4.58 5.3c-2.1 2.22-1.55 3.16-1.16 3.84.04.06.08.12.1.18.38.7 1.84 1.01 4.41-.48 2.57-1.5 8.16-5.9 9.08-12.49.91-6.59-.2-12.45-1.56-15.47Z" fill="#2DA77E"/></svg>