<svg width="56" height="56" xmlns="http://www.w3.org/2000/svg"><path fill="url(#paint0_linear)" d="M0 0h56v56H0z"/><path d="M8 20c1.058 1.475 4.075 4.366 7.677 4.127 1.01-.01 3.602-.28 5.887-1.286 2.858-1.256 7.129 0 8.399.927 1.396 1.02 4.617 2.961 6.84 2.872 1-.04 2.221-.741 2.916-1.714-1.378-1.66-1.505-3.3-1.284-4.157.175 1.43.807 2.625 1.613 3.585.489-1.1.261-2.415-1.514-3.517.664.08 2.02.694 2.136 2.513a3.325 3.325 0 01-.226 1.444c1.196 1.241 2.643 2.024 3.556 2.352-.094.928-.726 1.648-1.03 1.892-.423-.081-1.485-.244-2.356-.244-1.09 0-2.562.885-4.27 3.235-1.366 1.88-3.16 2.064-3.886 1.922 1.722-.513 1.902-.733 2.749-1.768.311-.38.713-.872 1.314-1.528 2.185-2.383 3.416-2.381 4.185-2.38h.055c.612 0 1.727.346 2.208.52.26-.245.344-.916.354-1.221-1.405-.667-2.437-1.42-3.184-2.183-.727 1.14-2.076 1.867-3.337 1.966-1.904.15-3.909-.517-7.128-2.691-3.219-2.174-7.417-1.406-9.38-.539C18.332 24.995 10.857 26.101 8 20zm7.953 6.822c-3.972-.478-6.524-2.983-7.304-4.177 1.007 2.871 4.966 4.81 9.643 5.444 6.713.91 11.646 8.987 11.646 8.987 2.408 3.367 4.535 3.127 5.59 2.647-.936.075-4.462-.97-4.426-4.288.029-2.655 2.554-3.692 3.814-3.878-4.606 0-4.75 3.68-4.246 5.519-.564-.957-2.188-3.401-4.174-5.519-2.483-2.647-5.577-4.139-10.543-4.735zm24.28.227c.116-.084.407-.244.651-.21a.586.586 0 01.479.358c.03.095-.051.2-.265.21-.093.005-.196-.062-.314-.14-.153-.1-.332-.218-.55-.218z" fill="url(#paint1_linear)"/><defs><linearGradient id="paint0_linear" x1="10.418" y1="9.712" x2="68.147" y2="76.017" gradientUnits="userSpaceOnUse"><stop stop-color="#1A1E21"/><stop offset="1" stop-color="#06060A"/></linearGradient><linearGradient id="paint1_linear" x1="8.991" y1="22.184" x2="43.038" y2="30.228" gradientUnits="userSpaceOnUse"><stop stop-color="#F3B747"/><stop offset="1" stop-color="#F19821"/></linearGradient></defs></svg>