<svg width="56" height="56" viewBox="0 0 56 56" xmlns="http://www.w3.org/2000/svg"><path fill="#F0F3FA" d="M0 0h56v56H0z"/><path d="M24.53 44.36c1.69-6.75 2.58-13.9 1.9-20.85-.39-4-1.92-7.55-5.67-9.45-2.43-1.23-5.86-.77-6.21 2.31a5.3 5.3 0 0 0 1.58 4.47c2.17 2.24 5.39 2.28 8.42 1.74.62-.1.65-.02.1.26-4.2 2.09-9.29.79-11.15-3.51a5.47 5.47 0 0 1 .24-5.05c1.69-3.07 5.75-3.81 9.03-2.94 6.08 1.62 9.16 7.8 9.34 13.46.04 1.34.14 2.62.28 3.84.37 3.08 3.45 4.27 6.05 2.47a6.68 6.68 0 0 0 2.74-5.82c-.28-2.63-1.94-4.12-4.97-4.45-.88-.1-1.99.1-3.34.59-.14.05-.23 0-.27-.14l-.3-1.2c-.04-.15.02-.23.17-.26 1.43-.28 2.86-.35 4.3-.2 3.93.39 6.9 3.33 6.1 7.23a13.52 13.52 0 0 1-2.1 4.81c-3.54 5.26-8.64 9.33-14.1 12.97-.72.48-1.46.92-2.24 1.32-.18.09-.25.04-.21-.15.09-.5.2-.99.31-1.45Z" fill="url(#asuyl3mfh)"/><defs><linearGradient id="asuyl3mfh" x1="28" y1="11" x2="28" y2="46" gradientUnits="userSpaceOnUse"><stop stop-color="#F47321"/><stop offset="1" stop-color="#FAA43A"/></linearGradient></defs></svg>