<svg width="56" height="56" xmlns="http://www.w3.org/2000/svg"><path fill="#EE1D23" d="M0 0h56v56H0z"/><path d="M8.753 36.747L6.503 21.34a.295.295 0 01.29-.34h4.084c.144 0 .266.107.288.251l1.715 11.305 6.924-11.415a.292.292 0 01.25-.141h4.565c.23 0 .369.257.247.454l-5.985 9.643-5.417 1.459 4.944-.698-3.106 5.004a.292.292 0 01-.247.138H9.042a.293.293 0 01-.289-.253zM23.21 31.18l-3.33 5.366a.296.296 0 00.247.454h4.567c.1 0 .194-.052.248-.138l4.03-6.495-5.762.813zm10.565-1.491l11.35-1.602c1.065-.15 1.806-1.149 1.654-2.228-.164-1.167-1.296-1.927-2.419-1.624l-8.645 2.328 3.008-4.846.415-.704h.105a.29.29 0 01.086-.013h4.568a.309.309 0 01.087.013h3.169c3.27 0 5.366 3.528 3.838 6.461-1.34 2.571-4.413 4.58-7.279 4.526h-5.78l-3.352 4.862a.29.29 0 01-.247.138h-4.567a.297.297 0 01-.247-.454l4.256-6.857zm-3.321-1.709l-6.313 1.7 5.302-8.542A.292.292 0 0129.69 21h4.568c.23 0 .37.257.247.454l-4.05 6.526z" fill="#fff"/></svg>