<svg width="56" height="56" viewBox="0 0 56 56" xmlns="http://www.w3.org/2000/svg"><path fill="#F0F3FA" d="M0 0h56v56H0z"/><path fill="#010101" d="M28 13h9v8h-9z"/><path fill="#F20801" d="M11 21h17v16H11z"/><path fill="#010101" d="M28 35h12v8H28zM18 28.86 19.74 23H23l-3.26 11h-3.48L13 23h3.26L18 28.86ZM27 23h-3v11h7v-3h-4v-8ZM43.58 25.54l-2.92 1.03c-.33-.44-1.13-1.57-2.44-1.57-.75 0-1.22.25-1.22.84 0 .58.37.73 2.53 1.17 2.17.44 4.47 1.56 4.47 3.42C44 32.3 42.54 34 38.78 34c-3 0-5.1-1.7-5.78-2.54l3-1.03a3.73 3.73 0 0 0 2.5 1.07c1.27 0 2 .2 2-.63 0-.83-.54-.98-2.61-1.22-3.3-.3-4.37-2.35-4.37-3.08s.33-3.57 4.7-3.57c3.5 0 5.03 1.7 5.36 2.54Z"/></svg>