<svg xmlns="http://www.w3.org/2000/svg" width="56" height="56" viewBox="0 0 56 56"><path fill="#F0F3FA" d="M0 0h56v56H0z"/><path fill-rule="evenodd" d="M11.62 26.5L28.01 10 44.4 26.5 34.96 36H46v4H30.99L28 43l-2.98-3H10v-4h11.06l-9.44-9.5zm13.26-11.8l2.96 8.62h.8l2.44-8.62h-1.83l-1 4.77-1.54-4.77h-1.83zm-.5 2.77c.25 1.08.78 3.6 1 4.97l.56-.68 1.41 1.57-1.15-3.54-.52.6-1.3-2.92zm6.6 4.97c.21-1.38.75-3.9.99-4.97l-1.3 2.93-.51-.6L29 23.32l1.41-1.57.56.68zm-14.25 1.92h-1.97V25h.46l1.15 4h.9l1.12-4h.4v-.64h-1.53V25h.46l-.75 2.64-.65-2.64h.4v-.64zm5.99 2.25c0 1.32-.87 2.39-1.94 2.39-1.07 0-1.94-1.07-1.94-2.39 0-1.31.87-2.38 1.94-2.38 1.07 0 1.94 1.07 1.94 2.38zm-.98 0c0 .96-.43 1.73-.96 1.73s-.97-.77-.97-1.73c0-.95.44-1.73.97-1.73s.96.78.96 1.73zm3.18-2.33H23v.57l.49.28v3.06l-.49.14V29h2.89l.58-1.67-.43-.41s-.62 1.04-.88 1.3h-.72v-3.1l.48-.27v-.57zm1.22 1.5l.52-1.38h2.88l.47 1.38-.47.22-.66-1h-.37v3.16l.5.28V29h-1.88v-.56l.47-.28V25h-.39l-.62 1-.45-.22zm3.6 3.22v-.57l.37-.17 1.35-3.89h.79l1.24 3.9.18.16h.29l.2-.26V25.2l-.37-.3v-.54h1.6l.73 2.68.75-2.68h1.65v.55l-.52.3v2.95l.52.26V29h-1.76v-.57l.41-.26v-2.64L36.22 29h-.48l-1.02-3.47v2.64l.4.26V29H32v-.57l.45-.17-.28-.97h-1.1l-.26.97.41.17V29h-1.49zm1.96-3.51l-.44 1.29h.83l-.4-1.3zm9.3-1.13h-2.2v.57l.38.23v3.04l-.37.2v.6h1.7v-.6l-.38-.2v-1.05c.8.02 1.95-.05 2.02-1.42.05-1.1-.75-1.37-1.15-1.37zm-.89 2.19v-1.46c.33-.07 1-.05 1.03.62.02.67-.68.84-1.03.84zM20.33 38.5c.06-.13.1-.28.1-.45v-.08a.96.96 0 0 0-.1-.45.7.7 0 0 0-.29-.3.83.83 0 0 0-.42-.1c-.16 0-.3.04-.42.1a.71.71 0 0 0-.29.3.97.97 0 0 0-.1.45v.09c0 .17.04.32.1.44.08.13.17.23.3.3.12.07.26.1.41.1.16 0 .3-.03.42-.1a.7.7 0 0 0 .29-.3zm-.4-.94c.07.1.1.23.1.41v.09a.7.7 0 0 1-.1.4.35.35 0 0 1-.3.15.36.36 0 0 1-.31-.15.7.7 0 0 1-.11-.4v-.1c0-.17.04-.31.1-.4.08-.1.18-.14.31-.14s.23.04.3.14zm-7.64-.13h-.58v1.45h-.39v-1.45h-.57v-.29h1.54v.3zm1.88 1.45h-.38v-.74h-.76v.74h-.4v-1.74h.4v.7h.76v-.7h.38v1.74zm.86-.75h.74v-.28h-.74v-.42h.87v-.29h-1.26v1.74h1.26v-.29h-.87v-.46zm2.4.14v.6h-.4v-1.73h.74c.14 0 .27.03.38.08a.53.53 0 0 1 .34.5c0 .17-.07.3-.2.4-.12.1-.3.15-.52.15h-.35zm0-.3h.34c.1 0 .18-.01.24-.06.05-.04.08-.1.08-.19a.27.27 0 0 0-.08-.2.32.32 0 0 0-.23-.09h-.36v.55zm4.87.4l.26-1.23h.39l-.42 1.74h-.4l-.3-1.16-.31 1.16h-.4l-.41-1.74h.38l.26 1.24.31-1.24H22l.31 1.24zm1.37-.24h.74v-.28h-.74v-.42h.87v-.29h-1.26v1.74h1.26v-.29h-.87v-.46zm1.92.11h-.3v.64h-.4v-1.74h.7c.23 0 .4.05.52.14.12.1.18.22.18.39a.5.5 0 0 1-.08.3.56.56 0 0 1-.25.18l.4.71v.02h-.41l-.36-.64zm-.3-.29h.3c.1 0 .18-.02.23-.06.06-.05.08-.11.08-.2a.25.25 0 0 0-.07-.19c-.05-.04-.13-.07-.23-.07h-.32v.52zm3.66.55c.06-.13.1-.28.1-.45v-.08a.96.96 0 0 0-.1-.45.7.7 0 0 0-.29-.3.83.83 0 0 0-.42-.1c-.16 0-.3.04-.42.1a.71.71 0 0 0-.28.3.97.97 0 0 0-.1.45v.09c0 .17.03.32.1.44.07.13.16.23.29.3.12.07.26.1.42.1.15 0 .3-.03.42-.1a.7.7 0 0 0 .28-.3zm-.4-.94c.07.1.1.23.1.41v.09a.7.7 0 0 1-.1.4.35.35 0 0 1-.3.15.36.36 0 0 1-.31-.15.7.7 0 0 1-.1-.4v-.1c0-.17.03-.31.1-.4.07-.1.17-.14.3-.14.13 0 .24.04.3.14zm2.04.61h-.75v.7h-.39v-1.73h1.23v.3h-.84v.44h.75v.29zm1.25.7h.38v-1.73h-.38v1.74zm2.4 0h-.38l-.76-1.13v1.14h-.4v-1.74h.4l.76 1.15v-1.15h.39v1.74zm.47-1.73v1.74h.58c.17 0 .32-.04.45-.1a.74.74 0 0 0 .3-.3c.07-.12.11-.27.11-.43v-.08c0-.16-.04-.3-.1-.43a.74.74 0 0 0-.32-.3.94.94 0 0 0-.44-.1h-.58zm.38 1.45v-1.16h.2c.15 0 .27.05.35.14.08.1.12.22.12.4v.1c0 .16-.05.3-.13.38-.08.1-.2.14-.35.14h-.19zm2.9-1.45v1.15c0 .19-.07.34-.2.45a.79.79 0 0 1-.53.16.8.8 0 0 1-.52-.16.55.55 0 0 1-.2-.44v-1.16h.39v1.15c0 .11.03.2.09.25.05.05.14.08.24.08.22 0 .33-.11.34-.32v-1.16h.39zm1.34 1.13c.05.03.08.09.08.15 0 .07-.03.11-.08.15a.4.4 0 0 1-.22.05c-.25 0-.37-.1-.37-.29h-.4c0 .12.04.21.1.3.06.08.16.15.27.2.12.05.26.07.4.07.21 0 .38-.04.5-.12a.4.4 0 0 0 .19-.36.44.44 0 0 0-.15-.34c-.1-.09-.27-.16-.49-.22a1.11 1.11 0 0 1-.27-.11c-.06-.04-.1-.09-.1-.14 0-.06.03-.11.08-.15a.38.38 0 0 1 .23-.05c.1 0 .17.02.23.06.05.05.08.1.08.19h.39c0-.1-.03-.2-.09-.28a.56.56 0 0 0-.25-.2 1.01 1.01 0 0 0-.72 0c-.1.04-.2.1-.25.17a.4.4 0 0 0-.08.26c0 .18.1.32.32.43l.32.11c.13.04.23.08.28.12zm2.28-.84h-.58v1.45h-.4v-1.45h-.56v-.29h1.54v.3zm.73.81h.31l.35.64h.42v-.02l-.4-.7c.1-.05.2-.12.25-.2a.5.5 0 0 0 .08-.3c0-.16-.06-.29-.18-.38a.85.85 0 0 0-.52-.14h-.7v1.74h.39v-.64zm.31-.29h-.31v-.52h.31c.1 0 .19.03.24.07.05.05.07.12.07.2 0 .08-.02.14-.08.19a.34.34 0 0 1-.23.06zm1.7-.02l.4-.79h.43l-.62 1.11v.63h-.4v-.63l-.62-1.1h.43l.39.78zM20.7 31l-.57 1.95-.57-1.95h-.57l.87 2.57h.54l.88-2.57h-.58zm1.08 2.05h.91l.17.52h.56L22.46 31h-.48l-.94 2.57h.56l.17-.52zm.77-.42h-.63l.31-.95.32.95zm.95.94V31h.8c.23 0 .42.09.6.19.17.1.31.24.4.43.1.18.16.4.16.63v.11c0 .24-.05.45-.15.63-.1.19-.23.33-.4.43-.18.1-.38.15-.6.15h-.81zm.51-2.11v1.7h.29c.2 0 .36-.07.47-.2.1-.14.16-.33.16-.58v-.13c0-.26-.05-.46-.16-.59-.1-.13-.26-.2-.47-.2H24zm3.64 1.56c.09-.19.13-.4.13-.66v-.11c0-.25-.04-.47-.13-.66a.99.99 0 0 0-.94-.59c-.21 0-.4.05-.56.15a1 1 0 0 0-.38.44c-.09.2-.13.41-.13.66v.13c0 .24.04.46.13.65a1 1 0 0 0 .94.58 1 1 0 0 0 .94-.59zm-.54-1.38c.1.14.15.34.15.6v.13c0 .27-.05.47-.15.6-.09.14-.22.21-.4.21a.46.46 0 0 1-.4-.21c-.1-.15-.15-.35-.15-.6v-.13c0-.27.05-.47.15-.6.1-.14.23-.2.4-.2.18 0 .31.06.4.2zm.9 1.93V31h.8c.22 0 .42.09.6.19.17.1.3.24.4.43.1.18.15.4.15.63v.11c0 .24-.04.45-.14.63-.1.19-.23.33-.4.43-.18.1-.38.15-.6.15H28zm.53-2.11v1.7h.27c.2 0 .36-.07.46-.2.11-.14.17-.33.17-.58v-.13c0-.26-.05-.46-.16-.59-.1-.13-.26-.2-.47-.2h-.27zm2.15 1.6h.92l.17.51h.55L31.38 31h-.48l-.94 2.57h.55l.17-.52zm.78-.43h-.64l.32-.95.32.95zm1.9.02h-.4v.92h-.53V31h.94c.3 0 .53.1.7.24a.7.7 0 0 1 .23.56c0 .18-.03.32-.1.44a.76.76 0 0 1-.35.27l.53 1.01.92-2.52h.48l.95 2.57h-.56l-.17-.52h-.91l-.17.52h-1.08l-.47-.92zm-.4-.43h.41c.13 0 .23-.03.3-.1.08-.07.11-.16.11-.28a.38.38 0 0 0-.1-.28c-.07-.07-.17-.1-.3-.1h-.43v.76zm2.9.4h-.63l.31-.94.32.95z" fill="#F27801"/></svg>