<svg xmlns="http://www.w3.org/2000/svg" width="56" height="56"><path fill="#007D39" d="M0 0h56v56H0z"/><path fill-rule="evenodd" d="M38 21a10 10 0 01-7.69 9.73 3.85 3.85 0 00.68-2.5L31 28a3 3 0 10-6 .23v.27c0 .85.26 1.63.69 2.23A10 10 0 1138 21zm-13.77 8.12A7.45 7.45 0 0120 22.5c0-4.14 3.58-7.5 8-7.5s8 3.36 8 7.5a7.45 7.45 0 01-4.23 6.62A5.8 5.8 0 0033 25.5c0-3.04-2.24-5-5-5s-5 1.96-5 5a5.8 5.8 0 001.23 3.62zm.33 1.88L27 35v-4h2v4l2.25-4h6.23a1.5 1.5 0 011.34 2.21L33.45 43H29v2h-2v-2h-3.64l-6.13-9.7c-.63-1 .1-2.3 1.29-2.3h6.04zm7.75 1.26l-2.74 4.97a.5.5 0 00.03.52l2.46 3.49a.2.2 0 00.34-.02l4.94-8.92a.2.2 0 00-.18-.3h-4.4a.5.5 0 00-.45.26z" fill="#fff"/></svg>