<svg width="56" height="56" viewBox="0 0 56 56" xmlns="http://www.w3.org/2000/svg"><path fill="#F0F3FA" d="M0 0h56v56H0z"/><path d="M31.94 17.46 27.9 12l-3.68 5.46-2.83-3.82-3.7 5.39 7.31 10.4 2.94-4.4 3.3 4.38 7.1-10.39-3.83-5.4-2.56 3.84Zm-7.7 1.73 3.69-5.47 4.06 5.47 2.54-3.81 2.58 3.65-5.92 8.67-3.3-4.4-2.92 4.37-6.08-8.65 2.52-3.67 2.83 3.84ZM18.66 22h-7.74l1.93 7.1 5.8 2.82-5.8-.95L7 33.5c4.01 2.54 10.57 3.26 14.02 1.63 2.75-1.3 5.8-1.63 6.98-1.63v-6.8l-3.02 4.27L18.66 22Zm18.68 0h7.74l-1.93 7.1-5.8 2.82 5.8-.95L49 33.5c-4.01 2.54-10.57 3.26-14.02 1.63A18.33 18.33 0 0 0 28 33.5v-6.8l3.02 4.27L37.34 22Z" fill="url(#ajg3v1dlk)"/><path d="M16.09 38.05a2.75 2.75 0 0 1-1.73-.22 1.9 1.9 0 0 0 2.25 1.23c.8-.2 1.54.08 1.8.25-.15-1.05-1.4-1.48-2.32-1.26ZM30.08 36.4a5.52 5.52 0 0 0-6.2 1.43c.45-.36 2.2-.88 5.6 0 3.39.88 5.59-.36 6.26-1.1-.6.37-2.58.82-5.66-.33ZM23.12 38.55c-1.77-1.69-4.38.96-5.46 2.5 2.63-1.36 4.55-1.19 5.18-.93.97.3 3.15.74 4.18 0 1.03-.75 3.06-.62 3.94-.47-.67-.65-2.46-1.72-4.26-.84-1.8.88-3.13.2-3.58-.26ZM27.34 41.51c-1.9.82-4.4.34-5.42 0 .4 1.86 3.78 1.61 5.1 1.19 1.33-.43 3.58-.85 7.56 0 3.18.67 4.97-.51 5.47-1.19-.66.21-2.57.51-4.95 0-2.97-.63-5.39-1.01-7.76 0ZM37.43 38.55c-.54.4-1.56.51-2 .51.31.76 1.6.6 2 .25.32-.27 1.61-.1 2.21 0-.5-.42-1.66-1.16-2.2-.76Z" fill="#727376"/><defs><linearGradient id="ajg3v1dlk" x1="28" y1="12" x2="28" y2="35.66" gradientUnits="userSpaceOnUse"><stop stop-color="#C43438"/><stop offset=".49" stop-color="#BE3337"/><stop offset="1" stop-color="#962F32"/></linearGradient></defs></svg>