<svg width="56" height="56" viewBox="0 0 56 56" xmlns="http://www.w3.org/2000/svg"><path fill="#F0F3FA" d="M0 0h56v56H0z"/><path d="M48.41 20.1c.51.24.73.85.5 1.37l-9.18 19.9c-.17.36-.52.59-.92.6-.39 0-.75-.23-.92-.59l-1.96-4.1-3.32-7.03a1.05 1.05 0 0 1 .47-1.38c.51-.25 1.12-.03 1.36.48l2.4 5.07 6.43-13.83c.24-.52.85-.74 1.36-.5.5.25.72.87.48 1.39l-7.13 15.35.8 1.7 8.28-17.94c.24-.52.84-.74 1.35-.5Z" fill="url(#abeytilf2)"/><path d="M34.04 28.9c.17.1.31.26.4.45l2.38 5.02-.9 2.89-2.99-6.32 1.11-2.03Z" fill="url(#bbeytilf2)"/><path d="M27.97 20.57c.33-.82 1.72-3.57 5.1-3.57 1.43 0 2.62.64 3.44 1.38.4.38.74.8.99 1.21.22.4.42.89.42 1.38 0 .14-.03.28-.08.4l-8.3 20c-.16.37-.51.62-.91.63-.4.01-.77-.22-.95-.59l-5.8-12.25a1.05 1.05 0 0 1 .47-1.38c.5-.25 1.12-.04 1.36.48l4.83 10.19.95-2.3L24 24.74a1.05 1.05 0 0 1 .47-1.39c.5-.25 1.12-.04 1.37.47l4.71 9.8 5.3-12.76a3.12 3.12 0 0 0-.7-.93 3.18 3.18 0 0 0-2.07-.93c-1.72 0-2.62 1.2-3.03 1.96L32.5 26c.25.51.04 1.13-.46 1.39s-1.11.05-1.37-.46L28 21.42a1.05 1.05 0 0 1-.02-.86Z" fill="url(#cbeytilf2)"/><path d="M25.19 23.28c.27.08.5.27.64.54l2.28 4.75-1.07 2.48-2.77-5.74.92-2.03Zm-2.97 6.6.96-2.13c.22.1.42.27.53.5l2.37 5-1.08 2.5-2.78-5.87Z" fill="url(#dbeytilf2)"/><path d="M16.86 20.57c.34-.82 1.72-3.57 5.1-3.57 1.43 0 2.62.64 3.44 1.38.4.38.75.8.99 1.21.23.4.42.89.42 1.38 0 .14-.02.28-.08.4l-8.3 20c-.15.37-.51.62-.91.63-.4.01-.77-.22-.94-.59L7.1 21.42a1.05 1.05 0 0 1 .48-1.38c.5-.25 1.11-.04 1.36.48l8.5 17.93.95-2.3-7.12-14.72a1.05 1.05 0 0 1 .47-1.39c.5-.25 1.11-.04 1.36.47l6.34 13.11 5.3-12.76a3.11 3.11 0 0 0-.7-.93 3.18 3.18 0 0 0-2.07-.93c-1.72 0-2.63 1.2-3.04 1.96L21.4 26c.25.51.05 1.13-.46 1.39-.5.26-1.11.05-1.36-.46l-2.7-5.49a1.05 1.05 0 0 1-.02-.86Z" fill="url(#ebeytilf2)"/><defs><linearGradient id="abeytilf2" x1="46.21" y1="19.99" x2="37.62" y2="40.39" gradientUnits="userSpaceOnUse"><stop stop-color="#69F"/><stop offset=".54" stop-color="#8C8ED7"/><stop offset=".88" stop-color="#C7A7A5"/></linearGradient><linearGradient id="bbeytilf2" x1="34.28" y1="30.55" x2="35.85" y2="36.65" gradientUnits="userSpaceOnUse"><stop stop-color="#583D62"/><stop offset="1" stop-color="#AA8F94"/></linearGradient><linearGradient id="cbeytilf2" x1="35.4" y1="17.84" x2="27.13" y2="40.57" gradientUnits="userSpaceOnUse"><stop stop-color="#69F"/><stop offset=".45" stop-color="#888ADA"/><stop offset=".92" stop-color="#ECAC85"/></linearGradient><linearGradient id="dbeytilf2" x1="23.87" y1="25.58" x2="25.21" y2="34.05" gradientUnits="userSpaceOnUse"><stop stop-color="#4B315B"/><stop offset="1" stop-color="#BD767C"/></linearGradient><linearGradient id="ebeytilf2" x1="14.02" y1="18.98" x2="19.74" y2="40.45" gradientUnits="userSpaceOnUse"><stop stop-color="#BA3886"/><stop offset=".36" stop-color="#DA3C78"/><stop offset=".81" stop-color="#F4A377"/></linearGradient></defs></svg>