<svg width="56" height="56" viewBox="0 0 56 56" xmlns="http://www.w3.org/2000/svg"><path fill="#F0F3FA" d="M0 0h56v56H0z"/><path fill-rule="evenodd" d="M44.16 29.49c-1.04 9.66-8 16.53-15.27 15.72a10.85 10.85 0 0 1-4.54-1.59c1.2.64 2.5 1.06 3.9 1.21 7.36.82 14.15-6.1 15.16-15.46 1-9.35-4.14-17.6-11.5-18.41a10.74 10.74 0 0 0-3.28.14 10.7 10.7 0 0 1 3.98-.31c7.27.8 12.6 9.03 11.55 18.7Zm.7.08c-1.06 9.9-8.25 17.23-16.04 16.36a11.5 11.5 0 0 1-4.37-1.41h-.37a35.02 35.02 0 0 1-.86 0c-7.77-.86-13.11-9.31-12.1-18.73 1.02-9.42 8.04-16.5 15.81-15.64.19.02.5.1.76.16l.2.05.37.1c1.42-.42 2.91-.56 4.43-.4 7.8.87 13.25 9.6 12.18 19.5ZM27 10.89l-.51.22c-6.84-.01-12.8 6.4-13.7 14.79-.89 8.2 3.36 15.63 9.8 17.34.24.2.48.38.74.56h-.02c-7.25-.8-12.46-8.77-11.47-17.94.99-9.16 7.77-15.8 15.03-15l.13.03ZM16.64 26.43c.7-6.42 3.96-11.76 8.3-14.48-5.74.87-10.65 6.55-11.45 14.03-.8 7.29 2.6 13.77 7.79 16.04-3.42-3.64-5.31-9.38-4.64-15.59ZM42.7 29.3c-.98 9.11-7.54 15.57-14.38 14.81-6.83-.75-11.85-8.5-10.87-17.62.99-9.11 7.55-15.57 14.38-14.81 6.83.75 11.86 8.5 10.87 17.62ZM27.68 41.1c5.73.64 11.23-4.62 12.04-12.1.8-7.46-3.44-13.8-9.17-14.44-5.73-.64-11.23 4.63-12.03 12.1-.81 7.47 3.43 13.8 9.16 14.44Zm-.07.72c6.24.7 11.98-5 12.82-12.73.83-7.73-3.56-14.55-9.8-15.25-6.25-.69-11.99 5.01-12.82 12.74-.84 7.72 3.55 14.55 9.8 15.24ZM23.86 19h1.96l-1 5.11L27.53 19h1.68l-.88 5.11L31.05 19H33l-4.87 9H26.5l.52-4.92L24.38 28h-1.72l1.2-9Zm7.9 4h1.8l-3.53 9h-1.78l3.52-9Zm.99 5h1.79l-2.76 7.48h3.12L34.38 37h-4.95l3.32-9Z" fill="#01529C"/></svg>