<svg width="56" height="56" viewBox="0 0 56 56" xmlns="http://www.w3.org/2000/svg"><path fill="#F0F3FA" d="M0 0h56v56H0z"/><path d="M6.01 32 4 25h2.25l.92 3.4.89-3.4H10l.95 3.4.83-3.4H14l-2 7h-2l-1.04-2.96L7.93 32H6.01ZM17 32v-6.34l-2.5 2.36V32H17Z" fill="#81BE42"/><path d="M17 23v2.5L14.42 23H17Z" fill="#1E50A4"/><path fill="#81BE42" d="M34 23h2.5v9H34zM20.5 25H18v7h2.5v-4a1 1 0 1 1 2 0v4H25v-4.53a2.47 2.47 0 0 0-4.5-1.4V25ZM33 23h-2.5v2.72a2.8 2.8 0 0 0-1.85-.72c-1.7 0-3.06 1.57-3.06 3.5s1.37 3.5 3.06 3.5c.7 0 1.34-.27 1.85-.71V32H33v-9Zm-2.5 5.5c0 .83-.43 1.5-1.25 1.5-.82 0-1.25-.67-1.25-1.5s.42-1.5 1.25-1.5c.83 0 1.25.67 1.25 1.5Z"/><path fill-rule="evenodd" d="M42 31.25c-.53.47-1.19.75-1.91.75-1.7 0-3.09-1.57-3.09-3.5s1.38-3.5 3.09-3.5c.72 0 1.38.28 1.91.75V25h2.5v7H42v-.75Zm0-2.75c0 .83-.43 1.5-1.25 1.5-.82 0-1.25-.67-1.25-1.5s.42-1.5 1.25-1.5c.83 0 1.25.67 1.25 1.5Z" fill="#81BE42"/><path d="M48.04 25c1.21 0 2.37.53 2.79.8l-.87 1.46c-1.04-.4-2.44-.56-2.44-.21 0 .28.51.45.76.5 1.87.37 2.72 1.2 2.72 2.17 0 .98-.76 2.23-2.96 2.28a5.28 5.28 0 0 1-3.37-.98l1.02-1.47c1.52.8 2.85.66 2.86.4 0-.15-.2-.48-1.03-.61-1.04-.17-2.56-.7-2.48-2.15.08-1.46 1.47-2.19 3-2.19Z" fill="#81BE42"/></svg>