<svg width="56" height="56" viewBox="0 0 56 56" xmlns="http://www.w3.org/2000/svg"><path fill="#F0F3FA" d="M0 0h56v56H0z"/><path fill-rule="evenodd" d="M18 11h18.2c3.8 2.02 3.46 7.22-4.63 18H40v7H16.03c-.12-1.19 0-3.72 2.12-6.46L25.54 18H18v-7Zm-.41 23.26c-.12-1.15.85-4.46 5.71-8.48 1.72-1.43 3.56-2.75 5.3-4.01 4.4-3.19 8.24-5.97 8.32-8.95.58 1.24.55 4.61-4.15 8.16-1.26.96-2.6 1.91-3.93 2.87-4.89 3.51-9.8 7.05-11.25 10.4Z" fill="#4CC0E9"/><path fill-rule="evenodd" d="M17 37a1 1 0 0 0-1 1v6a1 1 0 0 0 1 1h22a1 1 0 0 0 1-1v-6a1 1 0 0 0-1-1H17Zm1.95 2-.3.12c-.09.05-.18.1-.24.17a.26.26 0 0 0-.08.12c0 .06 0 .11.04.15l.14.1.1.03c-.2.54-.45 1.3-.6 1.94-.09.34-.15.65-.15.88 0 .1.01.21.05.29.02.04.05.08.09.1.04.03.09.04.14.03.11-.01.2-.08.26-.17.06-.09.11-.2.15-.33l.03-.1c0 .13 0 .25.02.35a.5.5 0 0 0 .08.21c.04.06.1.1.19.1.07 0 .14-.04.2-.1a.65.65 0 0 0 .03-.03c.02.08.06.16.12.22.07.07.16.1.27.06a.62.62 0 0 0 .2-.11v.02c.06.07.15.12.27.14.24.04.63-.02 1.27-.26l-.07-.19c-.64.25-.99.3-1.17.26-.08-.01-.12-.04-.13-.07a.1.1 0 0 1-.01-.07l.08-.35-.25.26a.67.67 0 0 1-.25.18c-.04.02-.06 0-.08 0a.27.27 0 0 1-.06-.14.84.84 0 0 1-.02-.2v-.34l-.18.29a.89.89 0 0 1-.15.19c-.04.04-.07.04-.08.04l-.03-.02a.33.33 0 0 1-.04-.13c-.06-.26 0-.8.28-1.46.22-.53.3-.88.31-1.1 0-.1 0-.18-.04-.24-.03-.07-.1-.11-.17-.11h-.03l-.02.02c-.2.13-.32.4-.4.7-.08.31-.13.67-.18 1v.02a7 7 0 0 1-.18.9.95.95 0 0 1-.12.28c-.04.06-.08.08-.12.09h-.02l-.02-.03a.5.5 0 0 1-.02-.2c0-.2.05-.5.13-.83.16-.67.44-1.49.64-2.03l.05-.11-.12-.02a.94.94 0 0 1-.18-.05.21.21 0 0 1-.05-.02s0-.02.02-.02c.03-.04.1-.09.2-.13.08-.05.17-.09.26-.12l-.06-.18Zm-.06 2.1a5 5 0 0 0-.18.53l.02-.13c.05-.35.1-.7.18-.99.07-.26.16-.45.27-.56v.13c0 .18-.07.5-.3 1.03Zm3.71-.76c-.2.32-.33.96.63.98.4-.03 1.22-.31 1.38-1.18.2-1.1-.75-1.22-1.38-1.1-.63.1-1.7.88-1.72 2.38-.01 1.5.94 1.58 1.28 1.58.33 0 1.26-.3 2.21-1.2l-.53.3.22-.3h-.22c-.16.2-.6.65-1.08.78.2-.13.64-.46.83-.71l-.14-.07c-.26.26-.9.78-1.39.78-.61 0-.95-.56-.9-1.26.03-.7.45-1.87 1.44-1.93 1-.07.44 1.66 0 1.66-.43 0-.43-.48-.3-.69v-.02.02c-.15.23-.4.53-.33-.02Zm.77-1.2c.34-.07 1.04-.03 1.12.7-.1-.2-.5-.62-1.12-.7Zm.5.38c.36.27.82.92-.2 1.43.19-.16.48-.69.2-1.43Zm4.67 3.2c.07.3.26.3.35.26.43 0-.35-3.11-.54-3.63-.15-.42-.47-.38-.62-.3-.3.18-.94.58-1.11.73-.21.2-.28.25-.18.45.07.15.3.08.4.02l1.03-.66c.18.25.35 1.27.41 1.75-.6-.44-2.7-.68-2.63.5.08 1.2 2.03.43 2.38.22.31-.18.4.19.48.54l.03.12Zm-.68-1.1c-.4-.14-1.65-.3-1.72.19-.06.48 1.52 0 1.72-.18Zm2.52 1.36c-.13-.01-.38-.12-.38-.47v-3.14c0-.13.09-.4.55-.39h1.68c.31.02.93.26.92 1.06-.01.8-.76 1.03-1.13 1.05.32.2 1 .75 1.13 1.35.04.12.07.36-.11.44-.19.08-.4-.07-.47-.15-.3-.55-.99-1.55-1.37-1.55h-.47v1.33c.01.16-.04.47-.35.47Zm1.44-3.51h-1.1v1.23h1.1a.62.62 0 0 0 0-1.23ZM33.8 39h1.22l2.25 2.56V39.6c-.02-.15-.14-.46-.5-.48V39h1.36v.13c-.18.02-.55.14-.55.48V43h-.18l-2.71-3.18v2.45c0 .15.12.46.54.46V43H33.8v-.26c.18-.01.53-.12.54-.46v-2.75L33.8 39Z" fill="#4B4E5F"/></svg>