<svg xmlns="http://www.w3.org/2000/svg" width="56" height="56"><path fill="#F0F3FA" d="M0 0h56v56H0z"/><path d="M28.58 30.65c1.56.74 4.16.78 4.23-.04.03-.53-.7-.47-1.18-.6-1.7-.39-3.04-.87-2.6-2.61.14-.73.69-1.37 1.66-1.86 1.54-.78 3.78-.59 5.66-.21l-.37 1.98c-.72-.23-3.14-.82-3.7-.04-.37.5.51.65.9.7 1.15.16 1.92.46 2.39.93.15.22.24.33.32.58a2.63 2.63 0 01-1.08 2.7c-1.36 1-4.53 1-6.62.46l.4-1.99zM21.82 27h2.79l-.16 1.1c.76-1.45 4.55-1.72 3.98.76L27.71 33h-2.97l.68-3.75a.42.42 0 00-.43-.46c-.27 0-.57.23-.66.54L23.71 33h-2.96l1.07-6zm22.26 0h2.84l-.26 1.48c.4-.73 1.38-1.67 2.67-1.44l-.45 2.35c-.95-.19-1.96.02-2.49 1.44L46.02 33H43l1.08-6zm-1.48.73c-.5-.53-1.79-.79-3.2-.72a9.1 9.1 0 00-2.02.33l-.29 1.63c.4-.2 1.49-.55 2.31-.52.6 0 1.06.23 1.05.83a10.75 10.75 0 00-2 0c-.87.11-1.64.46-2.12 1.22-.2.32-.33.68-.33 1.04v.02c0 .1.02.2.03.29.17.9 1.16 1.17 1.96 1.15a2.35 2.35 0 001.42-.5c.17-.13.32-.27.47-.45l-.12.95h2.57l.67-3.8c.03-.59-.07-1.09-.4-1.47zm-3.12 3.75l-.08.02c-.38.1-.68.02-.78-.22-.1-.26.05-.63.43-.77.11-.05.23-.07.35-.1.29-.07.59-.07.79-.03.1.26-.28.98-.7 1.1zM7.51 25h7.35l-.46 2.44L9.88 31h4.04l-.37 2H6l.38-2.46 4.6-3.54h-3.8l.33-2z" fill="#002E6E"/><path d="M20.86 30.65c.21-1.5.26-2.33-.38-2.97-.53-.52-1.28-.68-2.31-.68l-.37.01c-1.66.09-3.04.77-3.5 2.04-.1.3-.22.61-.26.97-.19 1.6.15 3.02 3.5 2.98l.26-.01a11.2 11.2 0 002.27-.34l.24-1.44a7.77 7.77 0 01-2.5.32c-.75-.07-1.1-.38-1-.88h4.05zm-3.07-2.33a.78.78 0 01.16-.02c.53-.02.72.38.58 1.13H17v-.02c0-.44.34-.95.8-1.09z" fill="#002E6E"/><path d="M40.23 24A39.27 39.27 0 0052 20c-2.78 2.46-7.76 4.84-11.37 5.92-.57.14-1.42.17-1.6-.58-.2-.86.8-1.28 1.2-1.34z" fill="#ED1B2F"/></svg>