<svg width="56" height="56" viewBox="0 0 56 56" xmlns="http://www.w3.org/2000/svg"><path fill="#F0F3FA" d="M0 0h56v56H0z"/><path d="M39.84 21 27 33.56s7.18 1.43 12.84-.87C43 31.41 47 28 47 28l-7.16-7Z" fill="#A9CF46"/><path d="M16.16 35 29 22.44s-7.65-1.43-13.32.87C12.53 24.59 9 27.94 9 27.94L16.16 35Z" fill="#FFCE2B"/><path d="M28 9c-2.71 2.71-8.48 8.62-9 9 0 0 3.58-1 7.19-1 .43 0 1.13-.02 1.53 0 5.87.34 11.28 3 11.28 3L28 9Z" fill="#0397D5"/><path d="M28 47c2.71-2.71 8.48-8.62 9-9 0 0-3.58 1-7.19 1-.43 0-1.13.02-1.53 0C22.41 38.66 17 36 17 36l11 11Z" fill="#F32635"/></svg>