<svg width="56" height="56" xmlns="http://www.w3.org/2000/svg"><path fill="#1F35A0" d="M0 0h56v56H0z"/><path d="M4 24h7l-7 7.905V34h10v-2H7l7-8.018V22H4v2z" fill="#fff"/><path d="M26.07 28H28v-2h2v2h2v2h-2v1.988h-2V30h-1.93v-2zM31 24.29c-.27 0-.262-.053-.536-.062-3.187-.096-5.621.911-6.314 3.876-.953 4.103 2.8 6.697 5.736 5.667.633-.222.907-.5 1.114-.787V34h2V22h-2l.002 2.29H31z" fill="#F40A25"/><path d="M18.276 34.547c0 .298-.269.88-.407 1.018-.346.354-1.354.408-1.869.28v1.696c-.008.562.006.45 1.395.45 1.794 0 2.14-.646 2.773-2.014.267-.57.449-1.146.672-1.757.643-1.736 1.269-3.728 1.914-5.493l.953-2.747c.086-.26.29-.717.293-.98h-2.316l-2.053 6.61L17.403 25H15c.025.288 1.513 4.44 1.637 4.774l1.64 4.773zm31.407-3.382c0 .488-.466.835-.944.835H44v2h5.127c2.277 0 3.775-2.58 2.26-4.588-1.273-1.688-3.985-.421-4.775-1.141-.407-.375-.189-1.271.507-1.271H52v-2h-4.991c-3.929 0-3.96 5.4-.397 5.436.61.01 1.23 0 1.84-.004.403-.002.556-.02.84.112a.702.702 0 01.391.62zM35 30.366c0 2.18.765 3.634 3.012 3.634 1.97 0 2.841-1.245 2.988-1.354V34h2v-9h-2v4.663c0 3.078-3.221 2.561-3.654 1.89-.2-.306-.346-.793-.346-1.297V25h-2v5.366z" fill="#fff"/></svg>