<svg width="56" height="56" viewBox="0 0 56 56" xmlns="http://www.w3.org/2000/svg"><path fill="#F0F3FA" d="M0 0h56v56H0z"/><path d="M5.44 25.01v.46a.6.6 0 0 0-.2.07c-.04.03-.06.06-.06.1.01.08.1.16.2.23.08.06.15.12.18.18.06.1.08.23.08.37 0 .43-.36.8-.8.8-.48 0-.82-.4-.82-.87 0-.24.07-.46.2-.66.15-.2.33-.36.57-.48.14-.07.36-.14.65-.2Zm.36.46V25h.11c.98 0 1.91.62 1.91 1.67 0 .77-.45 1.4-1.26 1.73-.45.19-.9.39-1.33.64-.1 0-.21.02-.32.05-.1.03-.25.08-.44.17a3 3 0 0 1 .73-.73c.42-.34.82-.67.91-1.24a3.82 3.82 0 0 0 .05-.75c0-.38 0-.87-.36-1.07Zm1.99 3.55c.06 0 .1.03.15.08.04.05.06.13.06.21 0 .2-.05.42-.15.67-.19.45-.43.73-.81.9-.18.08-.35.12-.51.12-.3 0-.6-.1-.88-.2-.29-.1-.58-.2-.87-.2-.13 0-.22.1-.31.2s-.17.2-.27.2c-.13 0-.2-.09-.2-.25 0-.15.03-.42.1-.58.23-.53.74-.8 1.3-.8.31 0 .6.06.9.12.3.06.6.12.9.12.26 0 .34-.14.4-.37.02-.14.09-.21.19-.22ZM9 28c0 1.2.48 2.8 1.86 3v-.45c-.27-.1-.34-.32-.34-.6v-3.9c0-.28.07-.5.34-.6V25C9.47 25.2 9 26.8 9 28Zm2.14 2.55V31c1.38-.2 1.86-1.8 1.86-3s-.47-2.8-1.86-3v.45c.27.1.34.32.34.6v3.9c0 .28-.07.5-.34.6ZM21 25H22.69c.2 0 .31.08.31.23 0 .16-.1.2-.2.23-.06.02-.13.05-.17.12-.03.04-.05.12-.05.22v4.4c0 .22.07.27.25.33.12.04.17.12.17.24 0 .23-.24.23-.41.23H20.7c-.18 0-.46 0-.46-.24 0-.16.17-.21.35-.26.2-.05.41-.11.41-.34V25Zm-1.77 0 .81 2.47.46-1.34v1.46L19.45 31h-.22l-1.6-5.06a.87.87 0 0 0-.18-.34c-.03-.04-.1-.07-.18-.09-.18-.04-.27-.13-.27-.27 0-.07.02-.13.07-.17a.34.34 0 0 1 .23-.07h1.93Zm-1.67 2.02.44 1.33v1.32c0 .41.2.65.54.88.1.07.15.14.15.23 0 .15-.1.22-.3.22h-1.04c-.21 0-.31-.07-.31-.22 0-.05 0-.08.02-.1.07-.1.13-.17.2-.24.17-.2.3-.35.3-.77v-2.65ZM24 31h1.58c.16 0 .23-.09.23-.23 0-.13-.07-.2-.14-.26-.09-.07-.17-.14-.17-.31v-4.4c0-.17.08-.24.17-.3.07-.07.14-.14.14-.27 0-.2-.15-.23-.3-.23H24c-.16 0-.31.03-.31.23 0 .13.07.2.14.26.09.07.17.14.17.31v4.4c0 .17-.08.24-.17.3-.07.07-.14.14-.14.27 0 .15.08.23.23.23H24Zm5-6v.52c-.14.02-.32.1-.4.22-.06.12-.1.29-.1.51v3.68c0 .27.22.52.5.55V31c-1.57 0-2-1.6-2-2.95 0-1.22.43-3.05 1.92-3.05H29Zm.46.52v-.51c.14.02.28.08.42.15.18.08.36.16.53.16.07 0 .13-.04.16-.11l.05-.1c.03-.07.09-.1.17-.1.06 0 .11.02.15.06.03.05.05.11.05.2v1.76c0 .22-.1.32-.21.32-.12 0-.19-.08-.23-.28-.05-.22-.1-.4-.15-.52-.16-.41-.45-.96-.94-1.03Zm.01 5.48v-.52c.2-.01.4-.1.6-.24.23-.17.42-.46.5-.78a.5.5 0 0 1 .1-.2.17.17 0 0 1 .12-.05c.06 0 .11.02.15.07a.3.3 0 0 1 .06.2c0 .53-.5 1.13-.95 1.37-.17.09-.36.14-.58.15Zm4.53-.82V25h-1.5c-.17 0-.39 0-.39.22 0 .15.1.2.19.26.1.06.2.12.2.3v4.44c0 .18-.1.24-.2.3s-.19.11-.19.26c0 .14.1.22.29.22H34.2c.26 0 .33-.1.33-.23 0-.16-.12-.21-.24-.26-.14-.06-.29-.12-.29-.33Zm2.43-1.14c0-.68-.63-.94-1.2-1.04.72-.25 1.22-.65 1.22-1.5 0-.75-.51-1.38-1.28-1.47-.2-.02-.43-.03-.71-.03h-.1v.48c.33.1.43.26.43.61v1.15c0 .31-.09.53-.42.59v.46c.5.06.46.76.43 1.23l-.01.25c0 .39.1.69.28.9.19.22.44.33.78.33.45 0 .81-.22 1.04-.6a.69.69 0 0 0 .11-.34c0-.05-.02-.1-.06-.15-.05-.05-.09-.08-.13-.08-.09 0-.13.07-.17.13-.04.06-.07.11-.14.11-.05 0-.07-.04-.07-.13v-.9ZM44.8 25l1.53 4.06V31h-.7l-2.17-5.14a1.48 1.48 0 0 0-.12-.24.42.42 0 0 0-.16-.12c-.1-.05-.18-.1-.18-.24 0-.25.2-.26.4-.26h1.4Zm-1.34 1.54.34.78v2.35c0 .2.02.38.07.5.05.14.13.25.24.33l.1.08c.05.04.08.1.08.2 0 .06-.02.12-.06.16-.03.04-.1.06-.21.06h-.74c-.2 0-.29-.08-.29-.23 0-.05.01-.1.03-.12a.63.63 0 0 1 .13-.13c.2-.15.31-.44.31-.85v-3.13Zm2.87 1.82-.34-.79v-1.22c0-.24-.03-.43-.08-.56a.74.74 0 0 0-.27-.34.26.26 0 0 1-.1-.09.3.3 0 0 1-.02-.13c0-.08.02-.14.05-.17.04-.04.1-.06.18-.06h.8c.11 0 .18.02.22.07.03.05.05.1.05.17 0 .06-.01.1-.03.14a.58.58 0 0 1-.14.12c-.12.08-.2.2-.26.37-.04.12-.06.28-.06.48v2ZM49.88 25v.49c-.33.1-.51.3-.51.59 0 .52.57.76 1.01.95.08.03.15.06.21.1.35.15.68.33.94.62.31.35.47.77.47 1.25 0 1.09-.9 2-2 2v-.48c.35-.09.63-.3.63-.68 0-.53-.64-.8-1.14-1-.15-.06-.28-.11-.39-.17a2.5 2.5 0 0 1-.35-.23 1.8 1.8 0 0 1-.75-1.5c0-1.1.79-1.88 1.88-1.94Zm.31.49v-.47c.17.01.3.04.42.07.12.03.29.1.5.19l.14.03c.08 0 .12-.06.17-.13.04-.07.09-.14.18-.14.07 0 .13.03.16.09.03.05.05.14.05.25v1.4a.3.3 0 0 1-.07.2.21.21 0 0 1-.17.08c-.17 0-.22-.16-.24-.3a1.97 1.97 0 0 0-.4-.82c-.2-.23-.44-.38-.74-.45Zm-.52 5.03V31c-.22 0-.46-.07-.73-.2l-.2-.1a.3.3 0 0 0-.11-.01c-.1 0-.16.06-.21.13-.05.06-.1.13-.2.13-.15 0-.22-.13-.22-.37v-1.54a.3.3 0 0 1 .06-.2.2.2 0 0 1 .16-.09c.12 0 .18.07.23.26.06.24.15.47.26.68.12.21.26.39.41.54.16.15.34.25.55.29ZM38 28c0 1.2.48 2.8 1.86 3v-.45c-.27-.1-.34-.32-.34-.6v-3.9c0-.28.07-.5.34-.6V25c-1.39.2-1.86 1.8-1.86 3Zm2.14 2.55V31c1.38-.2 1.86-1.8 1.86-3s-.48-2.8-1.86-3v.45c.27.1.34.32.34.6v3.9c0 .28-.07.5-.34.6Z" fill="#EC7C1C"/><path d="M4.3 27h1.09a.8.8 0 0 1-1.1 0Zm47.43 0h-.3a.2.2 0 0 0 .14.06c.07 0 .12-.02.16-.06ZM48 27h2.3l.08.03c.08.03.15.06.21.1.35.15.68.33.94.62.31.35.47.77.47 1.25 0 1.09-.9 2-2 2v-.48c.35-.09.63-.3.63-.68 0-.53-.64-.8-1.14-1a2.5 2.5 0 0 1-.73-.4A1.79 1.79 0 0 1 48 27Zm-1.66 0H46v.57l.34.79V27Zm-2.4 0h1.62l.78 2.06V31h-.7l-1.7-4Zm-.27 0h-.2v2.67c0 .41-.1.7-.3.85a.63.63 0 0 0-.14.13.22.22 0 0 0-.03.12c0 .15.1.23.3.23h.73c.1 0 .18-.02.21-.06.04-.04.06-.1.06-.16 0-.1-.03-.16-.08-.2l-.1-.08a.75.75 0 0 1-.24-.32c-.05-.13-.07-.3-.07-.5v-2.36l-.14-.32Zm-3.2 0h1.42c.08.34.11.68.11 1 0 1.2-.48 2.8-1.86 3v-.45c.27-.1.34-.32.34-.6V27Zm-.95 0h-1.41c-.08.34-.11.68-.11 1 0 1.2.48 2.8 1.86 3v-.45c-.27-.1-.34-.32-.34-.6V27ZM35 27h1.38c-.16.52-.59.8-1.16 1 .58.1 1.2.36 1.2 1.04v.9c0 .09.03.13.08.13.07 0 .1-.05.14-.1.04-.07.08-.14.17-.14.04 0 .08.03.13.08.04.05.06.1.06.15 0 .1-.04.2-.11.33-.23.4-.6.61-1.04.61-.34 0-.6-.1-.78-.32a1.36 1.36 0 0 1-.28-.91l.01-.25v-.7c-.04-.28-.16-.5-.43-.53v-.46c.33-.06.42-.28.42-.6V27H35Zm-1 0h-1.5v3.22c0 .18-.1.24-.2.3s-.19.11-.19.26c0 .14.1.22.29.22h1.8c.26 0 .33-.1.33-.23 0-.16-.12-.21-.24-.26-.14-.06-.29-.12-.29-.33V27Zm-3.47 0H31v.03c0 .22-.1.32-.21.32-.12 0-.19-.08-.23-.28l-.02-.07Zm-2.03 0h-1.4c-.07.36-.1.73-.1 1.05 0 1.36.43 2.95 2 2.95v-.52a.58.58 0 0 1-.5-.55V27ZM24 27h1.5v3.2c0 .17.08.24.17.3.07.07.14.14.14.27 0 .14-.07.23-.23.23h-1.66c-.15 0-.23-.08-.23-.23 0-.13.07-.2.14-.26.09-.07.17-.14.17-.31V27Zm-1.42 0H21v3.16c0 .23-.21.29-.4.34-.19.05-.36.1-.36.26 0 .24.28.24.46.24H22.6c.17 0 .41 0 .41-.23 0-.12-.05-.2-.17-.24-.18-.06-.25-.1-.25-.33V27Zm-2.38 0h.3v.6L19.45 31h-.22l-1.27-4h1.93l.15.47.16-.47Zm-7.3 0h-1.42v2.95c0 .28-.07.5-.34.6V31c1.38-.2 1.86-1.8 1.86-3 0-.32-.03-.66-.1-1Zm-3.8 0h1.42v2.95c0 .28.07.5.34.6V31C9.48 30.8 9 29.2 9 28c0-.32.03-.66.1-1Zm-1.3 0H6.14l-.04.29c-.1.57-.5.9-.9 1.24l-.44.37a3 3 0 0 0-.3.36c.2-.09.34-.14.44-.17.1-.03.21-.05.32-.05.43-.25.88-.45 1.33-.64.7-.29 1.12-.78 1.23-1.4ZM4 30.75c0-.15.03-.42.1-.58.23-.53.74-.8 1.3-.8.31 0 .6.06.9.12.3.06.6.12.9.12.26 0 .34-.14.4-.37.02-.14.09-.21.19-.22.06 0 .1.03.15.08.04.05.06.13.06.21 0 .2-.05.42-.15.67-.19.45-.43.73-.81.9-.18.08-.35.12-.51.12-.3 0-.6-.1-.88-.2-.29-.1-.58-.2-.87-.2-.13 0-.22.1-.31.2s-.17.2-.27.2c-.13 0-.2-.09-.2-.25Zm13.56-3.73.44 1.33v1.32c0 .41.2.65.54.88.1.07.15.14.15.23 0 .15-.1.22-.3.22h-1.04c-.21 0-.31-.07-.31-.22 0-.05 0-.08.02-.1.07-.1.13-.17.2-.24.17-.2.3-.35.3-.77v-2.65Zm11.91 3.46V31c.22-.01.4-.06.58-.15.45-.24.95-.84.95-1.38a.3.3 0 0 0-.06-.19.18.18 0 0 0-.15-.07c-.05 0-.1.02-.13.06a.5.5 0 0 0-.08.19c-.09.32-.28.61-.5.78-.21.14-.41.23-.6.24Zm20.2.04V31c-.22 0-.46-.07-.73-.2l-.2-.1a.3.3 0 0 0-.11-.01c-.1 0-.16.06-.21.13-.05.06-.1.13-.2.13-.15 0-.22-.13-.22-.37v-1.54a.3.3 0 0 1 .06-.2.2.2 0 0 1 .16-.09c.12 0 .18.07.23.26.06.24.15.47.26.68.12.21.26.39.41.54.16.15.34.25.55.29Z" fill="url(#aotcxebab)"/><defs><linearGradient id="aotcxebab" x1="28" y1="27" x2="28" y2="31" gradientUnits="userSpaceOnUse"><stop stop-color="#E6C4C6"/><stop offset=".45" stop-color="#8C2D33"/></linearGradient></defs></svg>