<svg width="56" height="56" viewBox="0 0 56 56" xmlns="http://www.w3.org/2000/svg"><path fill="#F0F3FA" d="M0 0h56v56H0z"/><circle cx="28" cy="28" r="17" fill="#302C73"/><path d="M28 12c-3.57 1.08-4.95 2.74-4.95 3.66 0 .44.28.59.56.75.3.16.6.33.6.87 0 .32-.11.63-.28.9a1.75 1.75 0 0 1-.84-.44c-.38-.38-.28-.71-.18-1.04.09-.31.17-.61-.14-.92-.65-.65-2.8-.86-6.08.9-1.77 3.3-1.56 5.44-.91 6.09.3.31.6.23.92.14.32-.1.66-.2 1.04.18.23.23.37.53.44.84-.27.17-.58.29-.9.29-.54 0-.7-.31-.87-.61-.16-.28-.31-.56-.75-.56-.92 0-2.58 1.38-3.66 4.95 1.08 3.57 2.74 4.95 3.66 4.95.44 0 .59-.28.75-.56.16-.3.33-.6.87-.6.32 0 .63.11.9.28-.07.3-.2.6-.44.84-.38.38-.71.28-1.04.18-.31-.09-.61-.17-.92.14-.65.65-.86 2.8.9 6.08 3.3 1.77 5.44 1.56 6.09.91.31-.3.23-.6.14-.92-.1-.33-.2-.67.18-1.04.23-.23.53-.37.84-.44.17.27.29.58.29.9 0 .54-.31.7-.61.87-.28.16-.56.31-.56.75 0 .92 1.38 2.58 4.95 3.66 3.57-1.08 4.95-2.74 4.95-3.66 0-.44-.28-.59-.56-.75-.3-.16-.6-.33-.6-.87 0-.32.11-.63.28-.9.3.07.6.2.84.44.38.37.28.71.18 1.04-.09.31-.17.61.14.92.65.65 2.8.86 6.08-.9 1.77-3.3 1.56-5.44.91-6.09-.3-.31-.6-.23-.92-.14-.33.1-.67.2-1.04-.18a1.75 1.75 0 0 1-.44-.84c.27-.17.58-.29.9-.29.54 0 .7.31.87.61.16.28.31.56.75.56.92 0 2.58-1.38 3.66-4.95-1.08-3.57-2.74-4.95-3.66-4.95-.44 0-.59.28-.75.56-.16.3-.33.6-.87.6-.32 0-.63-.11-.9-.28.07-.3.2-.6.44-.84.37-.38.71-.28 1.04-.18.31.09.61.17.92-.14.65-.65.86-2.8-.9-6.08-3.3-1.77-5.44-1.56-6.09-.91-.31.3-.23.6-.14.92.1.32.2.66-.18 1.04-.23.23-.53.37-.84.44a1.75 1.75 0 0 1-.29-.9c0-.54.31-.7.61-.87.28-.16.56-.31.56-.75 0-.92-1.38-2.58-4.95-3.66Zm8.9 19.68v-7.36l-5.22-5.21h-7.36l-5.21 5.2v7.37l5.2 5.21h7.37l5.21-5.2Z" fill="#FF00A0"/><circle cx="28" cy="28" r="11" fill="#FFEB1E"/><path d="M29.84 26.3 27.96 23l-1.87 3.3h3.75Zm0 7.4L27.96 37l-1.87-3.3h3.75Zm.34-.2h3.74l-1.87-3.3-1.87 3.3Zm-6.3-3.7-1.87-3.3h3.74l-1.87 3.3Zm10.04-3.3-1.87 3.3-1.87-3.3h3.74Zm-10.04 3.7-1.87 3.3h3.74l-1.87-3.3Z" fill="#281003"/><path d="M29.89 24.3 28 21l-1.89 3.3h3.78Zm0 7.4L28 35l-1.89-3.3h3.78Zm4.11-.2-1.89-3.3-1.88 3.3H34Zm-10.11-3.7L22 24.5h3.77l-1.88 3.3ZM34 24.5l-1.89 3.3-1.88-3.3H34Zm-12 7h3.77l-1.88-3.3L22 31.5Z" fill="#FF00A0"/></svg>