<svg width="56" height="56" viewBox="0 0 56 56" xmlns="http://www.w3.org/2000/svg"><path fill="#F0F3FA" d="M0 0h56v56H0z"/><path d="M18 35v-9h9v9h-9Z" fill="#0E9447"/><path d="m13 40 5-5h9l-5 5h-9Z" fill="#292663"/><path d="M13 40v-9l5-5v9l-5 5Z" fill="#25AAE1"/><path d="M27 17h9v9h-9v-9Z" fill="#00AEEF"/><path d="m22 12 5 4.7V26l-5-5.02V12Z" fill="#292663"/><path d="M22 12h9l5 5h-9l-5-5Z" fill="#EA088C"/><path d="m38.66 34.25-8.27 3.12-3.18-8.4 8.26-3.11 3.19 8.39Z" fill="#EF4036"/><path d="m44.99 36.88-6.33-2.63-3.19-8.4 6.33 2.64L45 36.88Z" fill="#FCB043"/><path d="M45 36.88 36.73 40l-6.34-2.63 8.27-3.12L45 36.88Z" fill="#292663"/></svg>