<svg xmlns="http://www.w3.org/2000/svg" width="56" height="56"><path fill="#AE2640" d="M0 0h56v56H0z"/><path d="M21.76 33L14 35v-8.48L21.76 33z" fill="url(#ayfw5d0w5)"/><path d="M14 41v-6l7.76-2-4.14 8H14z" fill="url(#byfw5d0w5)"/><path d="M17.62 41h5.69l-1.55-8-4.14 8z" fill="url(#cyfw5d0w5)"/><path d="M17.62 41h5.69l-1.55-8-4.14 8z" fill="url(#dyfw5d0w5)" fill-opacity=".3"/><path d="M42.44 36.53L44 41H23.31l-1.55-8 20.68 3.53z" fill="url(#eyfw5d0w5)"/><path d="M42.44 36.53L44 41H23.31l-1.55-8 20.68 3.53z" fill="url(#fyfw5d0w5)" fill-opacity=".15"/><path d="M42.44 36.53L44 41H23.31l-1.55-8 20.68 3.53z" fill="url(#gyfw5d0w5)" fill-opacity=".5"/><path d="M36.11 19.28c.66 1.23.96 2.24 1.22 2.87.36.86 3.01 8.39 5.12 14.4l-20.7-3.54 14.36-13.73z" fill="url(#hyfw5d0w5)"/><path d="M36.11 19.28c.66 1.23.96 2.24 1.22 2.87.36.86 3.01 8.39 5.12 14.4l-20.7-3.54 14.36-13.73z" fill="url(#iyfw5d0w5)" fill-opacity=".6"/><path d="M21.1 12.55c2.67-.69 6.28-1.32 10.75 1.96a15.06 15.06 0 014.26 4.78L21.76 33.01 14 26.5V15.08a67.82 67.82 0 017.1-2.52z" fill="url(#jyfw5d0w5)"/><path d="M21.1 12.55c2.67-.69 6.28-1.32 10.75 1.96a15.06 15.06 0 014.26 4.78L21.76 33.01 14 26.5V15.08a67.82 67.82 0 017.1-2.52z" fill="url(#kyfw5d0w5)"/><path d="M14 15.07a72.32 72.32 0 017.1-2.52l.66 20.46-7.76-6.5V15.08z" fill="url(#lyfw5d0w5)"/><path d="M42.39 36.4L21.77 33l.17.92 21.26 4.8-.81-2.32z" fill="url(#myfw5d0w5)"/><path d="M16.96 41l4.8-8.01.22 1.18L20.05 41h-3.1z" fill="url(#nyfw5d0w5)" fill-opacity=".62"/><path d="M31.85 14.48a15.6 15.6 0 00-.18-.14c-.36-.2-1.23-.61-2.14-1.05a11.5 11.5 0 00-4.9-1.08c-1.71 0-3.6.5-5.1.96-1.2.36-4.18 1.53-5.53 2.07v-.2a67.8 67.8 0 017.1-2.52c2.64-.68 6.43-1.2 10.57 1.82.11.07.17.11.18.14zm6.08 12c-.57-1.85-1.4-4.16-1.73-5.08l-.18.26c.23.25 1.35 4.2 1.55 4.82.2.63.8 2.72 1.48 4.65a110.8 110.8 0 002 5.12c.3.72 1.15 3.03 1.54 4.09-.55.06-.7.46-.72.65h.29c.03-.33.37-.43.54-.43l.17.43h.22c-.4-1.18-1.39-3.98-2.11-5.7-.9-2.14-2.33-6.48-3.05-8.8z" fill="#fff"/><path d="M21 13.59c-1.54.41-5.3 2.1-7 2.88v.21c.51-.23 1.7-.75 1.97-.85 3.03-1.2 5.61-3.02 10.17-2.33 3.64.56 6.55 2.9 7.55 4-4.65-5.41-10.75-4.43-12.69-3.91z" fill="#3B3B3B"/><path d="M31.44 23.12c-1.02-.5-5.44-2.48-7.74-3.5-.17-.07-.28-.35-.11-.27a690 690 0 017.93 3.6c.2.13.27.2.3.35.02.15.22 2.77.16 2.94-.06.13-.26.08-.35.04L23 22.08c-.34-.17-.43-.06-.58.07-.12.1-3.08 3.13-4.54 4.64 0 0-.16-.04-.09-.23l4.54-4.6c.21-.22.51-.17.64-.1s8.51 4.17 8.66 4.23c.14.07.16.03.18 0 .01-.02-.13-2.48-.16-2.65-.02-.18-.12-.23-.2-.32zm-15.38 4.64c-.09-.07-.16-.13-.18-.3.05.04.23.18.55.36.4.22.5.16.63.12l2.83-.88a7.1 7.1 0 012.96-.28 4.71 4.71 0 013.44 2.34 5 5 0 00-2.7-1.96 7.16 7.16 0 00-3.19-.03c-.6.12-2.98.92-3.2 1-.24.1-.35.1-.45.05a9.72 9.72 0 01-.7-.42z" fill="#3C3C3C"/><path d="M28.9 41h-.3c.4-1.13 1.04-2.17 1.26-5.93a10.3 10.3 0 00-2.33-7.04 8.14 8.14 0 00-4.17-2.27c.86.11 2.88.64 4.06 1.84 1.48 1.5 2.72 4.2 2.72 7.47 0 2.62-.82 5.04-1.24 5.92z" fill="#3C3C3C"/><path d="M17.89 26.9v-.11l.29-.3c.02.02.12.06.37-.07.3-.17 3.31-.99 4.83-.66 1.2.25 2.16.74 2.48.96-1.71-.87-3.2-.75-4.77-.55-1.56.2-2.41.63-2.72.74-.25.09-.43.03-.48 0zm-2.09.18c-.12.17 0 .3.07.35l7.56-7.93-.1-.22c-.07-.03-.17.04-.2.09a929.5 929.5 0 00-7.32 7.7zm11.79 6.55A15.94 15.94 0 0125.35 41h-.48a19.13 19.13 0 002.3-7.25c.23-2.78-1.23-5.2-2.02-5.81.44.3 2.62 2.2 2.44 5.69z" fill="#fff"/><path d="M20.9 14.83c-.14 0-.28-.2-.33-.28.1.1.26.11.47.09.2-.03.52-.17.67-.28.13-.1.04-.6-.03-.85l.23-.05c.02.23.05.75-.05.98-.12.28-.8.4-.96.39zm2.98-1.49c-.06-.03-.2-.03-.26-.03a7.14 7.14 0 01-.14 1.13c-.06.07-.15.18-.63.2-.39.02-.65-.08-.73-.13l.16.23c.2.04.67.1 1 .05.33-.04.47-.25.5-.35.06-.35.16-1.06.1-1.1zm1.22 1.94c-.2 0-.76-.16-1.02-.24l-.12-.4c.2.15.71.46 1.09.46.47 0 .55-.3.61-.46.05-.13.14-.87.19-1.22.07-.02.28.02.38.04a8.15 8.15 0 01-.44 1.43c-.2.38-.45.4-.7.39zm1.9.75l-.95-.39c-.09-.2-.23-.59-.13-.41.12.22.9.61 1.27.67.37.05.54-.33.57-.42l.54-1.46c.25-.02.35.14.36.22-.2.42-.65 1.32-.9 1.6a.66.66 0 01-.77.19zm2.1 1.08a16.1 16.1 0 01-.92-.48l-.21-.27-.03-.13c.2.15.71.5 1.1.66.48.2.6-.1.67-.18.06-.06.58-1.18.83-1.73l.21.1v.15l-.08.23c-.21.37-.7 1.17-.87 1.43a.57.57 0 01-.7.22zm1.73.89a35 35 0 01-.5-.28l-.2-.21-.16-.35c.11.1.42.34.78.56.46.28.65.2.83.1.17-.1.84-1.42.91-1.4.07.02.2.2.26.29l-.12.13a7.1 7.1 0 01-1.05 1.2c-.33.22-.64.02-.75-.04zm1.99 1.22l-.64-.5-.21-.43.6.56c.08.08.38.32.66.2.23-.08.66-.63.84-.9l.02-.06c0-.04.05-.1.14-.04.09.05.1.21.08.28v.05l-.22.21a5.3 5.3 0 01-.74.63.5.5 0 01-.53 0zm1.89 1.32c-.14.07-.38-.03-.48-.1l-.1-.1-.5-.71c.4.49.81.75.99.75.14 0 .5-.34.67-.51 0-.05 0-.12.07-.05.07.07.05.17.02.2a6.4 6.4 0 01-.67.52zm.99 1.36a.72.72 0 01-.43-.04c-.04-.1-.1-.24-.03-.16.08.1.22.08.4.06.15-.01.32-.17.4-.24l-.05-.14.23.03c.04.12.03.19 0 .23-.04.05-.32.2-.52.26z" fill="#3B3B3B"/><path d="M20.9 14.84c-.52.14-.72-.46-.76-.78l.2-.1c.1.58.42.83.57.88zm1.03-.52c.04.34.31.43.46.43-.02-.04-.18-.17-.21-.33-.03-.17-.02-.69.02-.97a.52.52 0 00-.3.13c0 .09 0 .4.03.74zm2.25-1.04a.76.76 0 00-.4.08c0 .16 0 .6-.04 1.09-.03.5.35.64.55.65-.32-.2-.26-.53-.26-.65 0-.1.1-.82.15-1.17zm1.85 1.69c-.12.38.05.65.16.73-.59-.18-.45-.73-.4-.86.04-.13.3-1.3.34-1.35.03-.04.22 0 .3 0 .06 0 .11.06.13.09-.12.3-.4 1.01-.53 1.4zm1.99.95c-.14.4.13.7.29.78-.66-.28-.56-.72-.51-.9.04-.15.42-1.16.6-1.64.23-.14.39 0 .44.08-.21.39-.68 1.27-.82 1.68zM29.84 17c-.13.41.4.72.68.83-.57-.43-.41-.7-.39-.9.03-.19.74-1.36.78-1.44a.72.72 0 00.08-.2.28.28 0 00-.36-.09c-.22.43-.67 1.39-.8 1.8zm4.19 1.17c.07 0 .16-.07.2-.12a28.03 28.03 0 00-1.48-1.47c-.15-.08-.5.62-.82 1.02-.3.4-.26.57-.11.78.45.54.86.78 1 .83a7.6 7.6 0 01-.67-.64c-.19-.24-.08-.47-.04-.62.04-.12.54-.68.78-.95.2.12 1.05 1.17 1.14 1.17zm-.32 1.53c.05.1.4.57.58.78-.23-.11-.3-.23-.68-.6-.37-.38-.27-.56-.23-.64.05-.08.58-.67.65-.72.07-.05.23-.31.35-.18.11.12 1 1.44 1 1.48 0 .05-.07.08-.11.05-.05-.02-.79-1.16-.85-1.18-.07 0-.39.3-.6.49-.2.18-.16.37-.1.51zm1.23 1.37c.04.1.31.54.44.75-.01.03-.06.08-.15.02-.12-.08-.3-.43-.51-.73-.21-.3-.07-.53-.04-.56.04-.02.33-.34.59-.5.25-.15.3.06.32.09.02.03.6 1.06.62 1.27.03.2-.15.13-.18.12l-.57-1.16c-.06-.11-.15.01-.37.18a.42.42 0 00-.15.52zM33.62 38.8c.09.05.07.15.05.19l-.34.69c-.27-.11-.03-.3-.13-.36-.08-.06-.07-.2-.06-.25l.23.09c.05-.08.14-.24.14-.27 0-.04-.19-.1-.37-.18-.18-.1-.1-.26-.02-.4.07-.16.32-.15.37-.09.04.07.3.16.36.16.08 0 2.98-.41 3.21-.46.24-.05.3-.32.62-.24.26.07.27.4.24.54-.04-.16-.08-.26-.24-.3-.16-.04-.42.19-.57.21-.14.02-3.33.51-3.44.48-.11-.03-.17-.14-.27-.16-.07 0-.12.1-.13.16l.35.19z" fill="#fff"/><path d="M36.93 38.7c.27-.05.35.1.35.18l-1.38.2c-.17.02-.17.14-.17.28s.08.66.22.94c.15.27.22.19.28.34.05.12-.05.14-.1.13-.52-.34-.6-1.22-.61-1.52-.02-.3.2-.33.29-.37.08-.05.79-.13 1.12-.18zm-2.69.63c.26-.06.54-.03.64 0-.03-.16-.18-.21-.37-.22-.18 0-.45.01-.79.18-.27.13-.37.31-.39.38.02.05.14.04.2.03.05-.08.38-.3.7-.37zm-.94 1.01c-.12.27.31.55.54.66h.31l-.82-.68-.04.02zm5.05-.07c.06.43 0 .67-.04.73h-.25a.9.9 0 00.1-.4 2.8 2.8 0 00-.15-1.04c-.1-.22-.14-.68-.09-.9a1.1 1.1 0 000-.45l-.01-.05a1.2 1.2 0 01-.04-.32c.4.2.28.7.26 1.14-.02.45.13.76.22 1.3z" fill="#414141"/><path d="M33.06 40.65c-.2-.18.06-.36.2-.43.19 0 .07.27.07.36 0 .08.1.18.14.22-.12-.01-.14.12-.14.2h-.24c0-.1.14-.22.22-.26-.07-.03-.14.02-.25-.1zm1.81-.87a1.56 1.56 0 00-.29-.48c.08-.02.24-.04.31.03.31.59.42 1.35.44 1.66h-.23a8 8 0 00-.23-1.2zm2.63.72c.24-.18-.05-1.16-.22-1.63l-.23.04c.15.37.42 1.18.27 1.4a1.5 1.5 0 01-.8.5c-.2.04-.2.14-.18.18h.32c.4-.1.56-.25.85-.48z" fill="#fff"/><defs><linearGradient id="ayfw5d0w5" x1="19.17" y1="30.48" x2="16.22" y2="35.07" gradientUnits="userSpaceOnUse"><stop stop-color="#D3D3D3"/><stop offset="1" stop-color="#777"/></linearGradient><linearGradient id="byfw5d0w5" x1="19.17" y1="37.47" x2="15.64" y2="34.86" gradientUnits="userSpaceOnUse"><stop stop-color="#B4B4B4"/><stop offset="1" stop-color="#767676"/></linearGradient><linearGradient id="cyfw5d0w5" x1="22.79" y1="37.97" x2="19.7" y2="37.44" gradientUnits="userSpaceOnUse"><stop stop-color="#848485"/><stop offset="1" stop-color="#B5B5B5"/></linearGradient><linearGradient id="dyfw5d0w5" x1="21.49" y1="36.64" x2="22.31" y2="36.53" gradientUnits="userSpaceOnUse"><stop stop-color="#787879"/><stop offset="1" stop-color="#6A6A6A"/></linearGradient><linearGradient id="eyfw5d0w5" x1="26.93" y1="33.98" x2="25.96" y2="39.48" gradientUnits="userSpaceOnUse"><stop stop-color="#D4D4D4"/><stop offset="1" stop-color="#858586"/></linearGradient><linearGradient id="fyfw5d0w5" x1="26.93" y1="32.98" x2="22.47" y2="38.62" gradientUnits="userSpaceOnUse"><stop stop-color="#D4D4D4"/><stop offset="1" stop-color="#79797A"/></linearGradient><linearGradient id="gyfw5d0w5" x1="22.3" y1="36.2" x2="30.32" y2="34.62" gradientUnits="userSpaceOnUse"><stop stop-color="#6E6E6E"/><stop offset=".51" stop-color="#BBBBBC"/></linearGradient><linearGradient id="hyfw5d0w5" x1="29.51" y1="25.04" x2="30.57" y2="34.11" gradientUnits="userSpaceOnUse"><stop stop-color="gray"/><stop offset="1" stop-color="#D3D3D3"/></linearGradient><linearGradient id="iyfw5d0w5" x1="25.07" y1="29.52" x2="26.34" y2="32.51" gradientUnits="userSpaceOnUse"><stop stop-color="gray"/><stop offset=".65" stop-color="gray" stop-opacity="0"/></linearGradient><linearGradient id="jyfw5d0w5" x1="33.14" y1="22.99" x2="21.76" y2="22.99" gradientUnits="userSpaceOnUse"><stop stop-color="#878787"/><stop offset=".95" stop-color="#C5C5C5"/></linearGradient><linearGradient id="kyfw5d0w5" x1="25.94" y1="29.83" x2="23.83" y2="28.16" gradientUnits="userSpaceOnUse"><stop stop-color="gray" stop-opacity=".92"/><stop offset=".86" stop-color="gray" stop-opacity="0"/></linearGradient><linearGradient id="lyfw5d0w5" x1="21.76" y1="22.49" x2="16.28" y2="28.67" gradientUnits="userSpaceOnUse"><stop stop-color="#C5C5C5"/><stop offset="1" stop-color="#D3D3D3"/></linearGradient><linearGradient id="myfw5d0w5" x1="33.09" y1="34.91" x2="32.76" y2="36.33" gradientUnits="userSpaceOnUse"><stop stop-color="#D4D4D4"/><stop offset="1" stop-color="#D2D2D2" stop-opacity="0"/></linearGradient><linearGradient id="nyfw5d0w5" x1="21.55" y1="33.3" x2="22.14" y2="33.58" gradientUnits="userSpaceOnUse"><stop stop-color="#BBB"/><stop offset="1" stop-color="#BBB" stop-opacity="0"/></linearGradient></defs></svg>