<svg width="56" height="56" viewBox="0 0 56 56" xmlns="http://www.w3.org/2000/svg"><path fill="#F0F3FA" d="M0 0h56v56H0z"/><path d="M29.5 18h3.74L41 36h-3.55l-6.07-14.06-1.23 2.9-1.74-3.85L29.5 18ZM22.58 28.4l1.87-3.85L29.5 36h-3.56l-3.36-7.6Z" fill="#2E3192"/><path d="M34.08 36 26.5 18h-3.92L15 36h3.55l1.3-3h3.95l-1.37-3h-1.29l3.4-7.88L30.53 36h3.55Z" fill="#ED1B24"/><path fill-rule="evenodd" d="M28 44.42a16.42 16.42 0 1 0 0-32.84 16.42 16.42 0 0 0 0 32.84Zm0 .58a17 17 0 1 0 0-34 17 17 0 0 0 0 34Z" fill="#2E3192"/></svg>