<svg width="56" height="56" viewBox="0 0 56 56" xmlns="http://www.w3.org/2000/svg"><path fill="#F0F3FA" d="M0 0h56v56H0z"/><path d="M34.71 16.28a3.1 3.1 0 0 0-1.68-1.21c-1.67-.6-5-1.29-5.65 1a.28.28 0 0 1-.27.21.27.27 0 0 1-.12-.03c-1.8-.91-3.74-.88-5.8-.28-.95.27-1.83.6-2.64.99a1 1 0 0 1-.4.04.16.16 0 0 1-.15-.2l.04-.07c3.38-3.4 7.37-5.3 12-5.68 2.56-.21 4.9.28 7.02 1.48 1.61.91 2.92 2.23 3.93 3.96a.1.1 0 0 1 0 .07c0 .03-.02.05-.04.06a.51.51 0 0 1-.42.04c-2.08-.63-3.99-1.29-5.82-.38Z" fill="#201D1E"/><path d="M29 18.69V17.2c0-.1.1-.2.2-.2h3.6c.1 0 .2.1.2.2v1.77c0 .2.18.37.4.37a3.68 3.68 0 0 0 1.56-.8c.96-.9 2.6-1.18 3.7-.84 3.28 1.01 5.04 3.27 5.3 6.75a14.6 14.6 0 0 1-.95 6.24.18.18 0 0 1-.08.09.18.18 0 0 1-.12.02l-3.41-.52c-.1-.01-.15-.07-.11-.17l.48-1.5c.52-1.85.37-5.12-2.31-5.47-1.52-.2-3.13 1.21-3.79 2.4a23.08 23.08 0 0 0-2.66 10.5c-.07 2.55.03 5.13.31 7.75a.2.2 0 0 1-.19.21h-6.76c-.13 0-.17-.06-.12-.17.34-.88.73-1.83 1.16-2.87 1.43-3.42 1.98-6.8 2.45-10.16.09-.6.14-1.2.14-1.8.01-2.03-.09-4-1.54-5.52A4.77 4.77 0 0 0 23.03 22c-1.26 0-2.55.5-3.53 1.38a10.37 10.37 0 0 0-3.5 7.6c0 1.15.2 2.29.54 3.35.76 2.3 2.45 4.23 4.38 5.76.12.1.16.28.1.42l-1.38 2.82a.22.22 0 0 1-.31.09c-3.97-2.42-6.34-5.77-7.11-10.04a13.51 13.51 0 0 1 .31-6.22 16.72 16.72 0 0 1 3.53-6.63 8.35 8.35 0 0 1 5.79-3.1 9.05 9.05 0 0 1 5.4 1c.4.25.82.45 1.27.6.06.01.11.02.17.01.18-.03.31-.18.31-.35Z" fill="#F61B2A"/><path d="M19.13 29.95c-.52 3.02.56 5.72 2.42 6.02 1.86.3 3.79-1.9 4.32-4.92.52-3.02-.56-5.72-2.42-6.02-1.86-.3-3.79 1.9-4.32 4.92ZM37.61 32h4.09a.3.3 0 0 1 .28.42 25.34 25.34 0 0 1-8.35 10.54c-.09.07-.14.05-.16-.06-.43-2.9-.57-5.84-.4-8.79.08-1.33.31-2.81.7-4.46.39-1.6 1.53-4.14 3.2-4.59 1.76-.47 1.66 1.9 1.43 2.93-.22.99-.62 2.08-1.19 3.4-.17.4-.04.61.4.61Z" fill="#201D1E"/></svg>