<svg width="56" height="56" viewBox="0 0 56 56" xmlns="http://www.w3.org/2000/svg"><path fill="#F0F3FA" d="M0 0h56v56H0z"/><path d="M34.8 29.7c-.95.77-1.97 1.42-3.06 1.96L36.73 41h4.1l-6.04-11.3Z" fill="url(#a5yzinebr)"/><path d="M26.91 15.14 13 41h4.1l9.81-18.26 2.97 5.6a19.64 19.64 0 0 0 3.03-2.04l-6-11.16Z" fill="url(#b5yzinebr)"/><path d="M20.76 36.15c1.06-.32 2.12-.68 3.2-1.08C36.5 30.35 44.86 21.82 42.64 16 40.7 10.9 31.2 9.6 20.4 12.57c8.98-2.38 16.84-1.19 18.5 3.13 1.9 4.97-5.37 12.33-15.94 16.3l-2.19 4.15Z" fill="url(#c5yzinebr)"/><defs><linearGradient id="a5yzinebr" x1="36.94" y1="41.75" x2="34.02" y2="17.12" gradientUnits="userSpaceOnUse"><stop stop-color="#00A3E1"/><stop offset="1" stop-color="#132350"/></linearGradient><linearGradient id="b5yzinebr" x1="24.12" y1="43.27" x2="21.2" y2="18.64" gradientUnits="userSpaceOnUse"><stop stop-color="#00A3E1"/><stop offset="1" stop-color="#132350"/></linearGradient><linearGradient id="c5yzinebr" x1="37.36" y1="10.03" x2="22.44" y2="28.25" gradientUnits="userSpaceOnUse"><stop stop-color="#E24A17"/><stop offset="1" stop-color="#F49800"/></linearGradient></defs></svg>