<svg width="56" height="56" xmlns="http://www.w3.org/2000/svg"><path fill="#203765" d="M0 0h56v56H0z"/><path d="M44.021 42.805V26.903c0-8.783-7.163-15.903-16-15.903-8.836 0-16 7.12-16 15.902 0 8.783 7.164 16.098 16 16.098h5.977v-2.66C33.998 39.252 32.83 36 28 36a9 9 0 11.002-18A9 9 0 0137 27.223V38.44c0 3.165 3.367 5.221 7.021 4.365z" fill="url(#paint0_linear)"/><path fill-rule="evenodd" d="M28 33a6 6 0 100-12 6 6 0 000 12zm0 1a7 7 0 100-14 7 7 0 000 14z" fill="#fff"/><path fill-rule="evenodd" d="M29.202 31.556C29.68 30.44 30 28.83 30 27s-.32-3.44-.798-4.556c-.24-.56-.5-.948-.737-1.182-.233-.23-.389-.262-.465-.262-.076 0-.232.032-.465.262-.238.234-.497.623-.737 1.182C26.32 23.56 26 25.17 26 27s.32 3.44.798 4.556c.24.56.5.948.737 1.182.233.23.389.262.465.262.076 0 .232-.032.465-.262.238-.234.497-.623.737-1.182zM28 34c1.657 0 3-3.134 3-7s-1.343-7-3-7-3 3.134-3 7 1.343 7 3 7z" fill="#fff"/><path d="M34.214 25H21.968v-1h12.246v1zm0 5h-12.36v-1h12.36v1z" fill="#fff"/><defs><linearGradient id="paint0_linear" x1="13.028" y1="21.062" x2="43.962" y2="34.394" gradientUnits="userSpaceOnUse"><stop stop-color="#F15D2C"/><stop offset="1" stop-color="#F29328"/></linearGradient></defs></svg>