<svg width="56" height="56" viewBox="0 0 56 56" xmlns="http://www.w3.org/2000/svg"><path fill="#F0F3FA" d="M0 0h56v56H0z"/><path d="M11 27a16 16 0 1 1 32 0v16h-1a6 6 0 0 1-6-6V27a9 9 0 1 0-9 9 6 6 0 0 1 6 6v1h-6a16 16 0 0 1-16-16Z" fill="url(#auayxtcxi)"/><path d="M24.45 24.95v-.03l-.3-1.12c-.02-.08-.1-.05-.15-.03-.21.05-.32.29-.27.5l.12.45c.06.2.27.36.49.3.05-.01.1-.01.11-.07Z" fill="url(#buayxtcxi)"/><path d="M22.23 24.7c-.17 0 .15-.67.45-.69.22-.02.43.11.53.3a.7.7 0 0 1 .06.27c0 .02-.02.04-.04.04l-1 .07Z" fill="url(#cuayxtcxi)"/><path d="M21.95 24.85c-.27 0-.3-.14-.46-.27a.1.1 0 0 0-.05-.02.1.1 0 0 0-.06.01l-.38.18a.24.24 0 0 0-.12.12.6.6 0 0 0-.03.45c.04.14.26.24.34.38a.36.36 0 0 0 .48.13c.18-.1.35-.12.53-.06.33.11.53-.02.63-.36.05-.16-.01-.24-.18-.24a.71.71 0 0 1-.6-.28.12.12 0 0 0-.1-.04Z" fill="url(#duayxtcxi)"/><path fill-rule="evenodd" d="M27.05 20a7.03 7.03 0 0 0-5.4 11.52 6.97 6.97 0 0 0 6.7 2.34 7.03 7.03 0 0 0 3.4-12.02 6.99 6.99 0 0 0-4.7-1.84Zm4.16 1.69c.12.08.13.18.02.29-.1.06-.31.12-.32.26-.01.36.73.91.84 1.4.02.05 0 .1-.02.14l-.35.5c-.1.13.2.51.26.65.07.17-.38-.3-.43-.36-.09-.13-.28-.3-.45-.28-.12.02-.16.08-.1.2.13.3.28.6.45.92.1.2.13.4.07.6-.2.66-.7.43-1.11.72-.16.12-.09.3.02.42.19.2.4.41.21.68-.09.12-.2.15-.33.09-.62-.3-1-.73-1.4-1.26-.14-.19-.32-.09-.46.02-.43.36-1.02.84-.7 1.48.13.23.09.27-.12.1-.38-.3-.53-.73-.68-1.18-.15-.43-.76-.88-1.22-.84-.1 0-.21.01-.33-.01a2.77 2.77 0 0 1-1.03-.48c-.07-.05-.16 0-.14.09.13.65.43.64.92.62h.17c.1-.01.12.03.1.11-.11.5-.69.79-1.13.98-.5.2-.85-1-1.02-1.32-.03-.04-.38-.3-.32-.12.11.31.23.63.36.94.15.36.46.51.66.82.03.05.08.08.13.08.07 0 .13-.02.2-.04.29-.12.38-.03.27.26-.13.38-.57.71-.84 1.01-.25.27-.14.5-.03.75.08.16.14.35-.02.49-.2.17-.32.39-.36.65-.04.2-.15.52-.41.5a.37.37 0 0 1-.3-.14c-.57-.77-.68-1.57-.99-2.44a6 6 0 0 1-.19-.6.32.32 0 0 0-.23-.23l-.45-.1a.1.1 0 0 1-.09-.09c-.19-.94-.08-1.77.35-2.51-.1-.44.13-.93.44-1.38.32-.49.95-.66 1.28-1.2.03-.08-.03-.16-.12-.1-.19.1-.35.25-.5.42-.05.08-.1.08-.17.01a.1.1 0 0 1-.02-.11c.1-.2.22-.4.39-.58.2-.1.37-.25.49-.45.16-.13.31-.17.45-.11.09.03.11.24.18.19l.64-.5 1-.46a.56.56 0 0 0 .28-.08c.1-.07.17-.05.2.07.02.11.08.19.15.23a.1.1 0 0 0 .16-.07c.2-.7.6-1.04 1.19-1.02a13.2 13.2 0 0 1 2.9.46c.49.18 1.02.48 1.6.9Zm-1.65 6.63c.22-.02.19.62.25.75.13.28.3.5.54.67.06.04.05.05-.01.04-.53-.1-.88-.59-1.05-1.08-.01-.06.13-.37.27-.38Zm1.46.88c.08-.04.11-.09.1-.15l.04-.53c0-.1-.1-.16-.18-.11-.23.14-.69.5-.54.82.02.05.06.07.12.07.16 0 .31-.03.46-.1Zm1.9-.09.04.19a.13.13 0 0 1-.15.15c-.08-.02-.23-.01-.29-.09l-.16-.21c-.07-.1.01-.22.12-.2l.34.06c.05 0 .1.05.1.1Zm-.35 1.1a.46.46 0 0 1-.22-.14c-.24-.27-.76.16-.93.33-.29.32-.98.48-1.07.94l-.12.6c-.02.13.02.17.15.11.24-.1.46-.22.66-.35.18-.11.38-.14.54.02.09.09.23.08.32 0 .33-.35.6-.75.82-1.2a.24.24 0 0 0-.15-.32Zm-8.75.5c-.1.25-.08.5.03.54.12.04.3-.12.4-.37.1-.25.08-.49-.03-.53-.12-.05-.3.12-.4.36Z" fill="url(#euayxtcxi)"/><defs><linearGradient id="auayxtcxi" x1="42.91" y1="26.24" x2="10.85" y2="26.24" gradientUnits="userSpaceOnUse"><stop stop-color="#1C9BF0"/><stop offset="1" stop-color="#004CA4"/></linearGradient><linearGradient id="buayxtcxi" x1="33.96" y1="26.67" x2="19.93" y2="26.67" gradientUnits="userSpaceOnUse"><stop stop-color="#1C9BF0"/><stop offset="1" stop-color="#004CA4"/></linearGradient><linearGradient id="cuayxtcxi" x1="33.96" y1="26.67" x2="19.93" y2="26.67" gradientUnits="userSpaceOnUse"><stop stop-color="#1C9BF0"/><stop offset="1" stop-color="#004CA4"/></linearGradient><linearGradient id="duayxtcxi" x1="33.96" y1="26.67" x2="19.93" y2="26.67" gradientUnits="userSpaceOnUse"><stop stop-color="#1C9BF0"/><stop offset="1" stop-color="#004CA4"/></linearGradient><linearGradient id="euayxtcxi" x1="33.96" y1="26.67" x2="19.93" y2="26.67" gradientUnits="userSpaceOnUse"><stop stop-color="#1C9BF0"/><stop offset="1" stop-color="#004CA4"/></linearGradient></defs></svg>