<svg width="56" height="56" xmlns="http://www.w3.org/2000/svg"><path fill="#4B9174" d="M0 0h56v56H0z"/><path d="M36.06 15H30v5h6.06c.803 0 1.975-.97 1.94-2.576C37.963 15.817 36.706 15 36.06 15zM28 21v19h-7v-9.218L18.389 34H20v6H10l8.733-19H28z" fill="#fff"/><rect x="21" y="15" width="7" height="1" rx=".5" fill="#4A3F89"/><rect width="8" height="1" rx=".5" transform="matrix(-1 0 0 1 38 21)" fill="#4A3F89"/><rect width="6.318" height="1" rx=".5" transform="matrix(-1 0 0 1 39.791 27)" fill="#4A3F89"/><rect width="6.372" height="1" rx=".5" transform="matrix(-1 0 0 1 40.463 29)" fill="#4A3F89"/><rect width="6.443" height="1" rx=".5" transform="matrix(-1 0 0 1 41.154 31)" fill="#4A3F89"/><rect width="6.693" height="1" rx=".5" transform="matrix(-1 0 0 1 41.882 33)" fill="#4A3F89"/><rect width="12.564" height="1" rx=".5" transform="matrix(-1 0 0 1 42.565 35)" fill="#4A3F89"/><rect x="20" y="19" width="8" height="1" rx=".5" fill="#4A3F89"/><rect width="14" height="1" rx=".5" transform="matrix(-1 0 0 1 44 39)" fill="#4A3F89"/><rect width="8.429" height="1" rx=".5" transform="matrix(-1 0 0 1 38.43 23)" fill="#4A3F89"/><rect x="18.999" y="17" width="9.001" height="1" rx=".5" fill="#4A3F89"/><rect width="13.244" height="1" rx=".5" transform="matrix(-1 0 0 1 43.244 37)" fill="#4A3F89"/><rect width="9.119" height="1" rx=".5" transform="matrix(-1 0 0 1 39.12 25)" fill="#4A3F89"/></svg>