<svg width="56" height="56" viewBox="0 0 56 56" xmlns="http://www.w3.org/2000/svg"><path fill="#F0F3FA" d="M0 0h56v56H0z"/><path d="M27 17h15v1.5H27V17Z" fill="#0C013D"/><path d="m11 20 3 12-2.71-1.63v-1.48l.98.6L11 24.35l-1.27 5.12.98-.6v1.49L8 32l3-12ZM18 20l3 12-2.71-1.63v-1.48l.98.6L18 24.35l-1.27 5.12.98-.6v1.49L15 32l3-12Z" fill="#B80000"/><path d="M46.5 32v-6h-2v6H43V20h1.5v5h2v-5H48v12h-1.5ZM38.94 32c-1.21 0-1.94-.73-1.94-1.99v-8c0-1.26.73-2.01 1.94-2.01 1.18 0 2.06.75 2.06 2v3h-1.5v-3.03c0-.46.06-.97-.5-.97-.5 0-.5.5-.5.97v8.04c0 .5 0 .99.5.99s.5-.5.5-.99V27H41v3.03c0 1.25-.88 1.97-2.06 1.97ZM32 32V20h4v1h-2.5v4H36v1h-2.5v5H36v1h-4ZM28 32V16h1.5v16H28Z" fill="#0C013D"/><path d="M25.69 25.54v.03c.7.17.81.65.81 1.44v3.02c0 .85 0 1.44.28 1.97h-1.56c-.22-.5-.2-1.04-.2-1.55v-3.46c0-.32-.32-.99-1.01-.99h-.5v6H22V20h1.95c1.64 0 2.55.62 2.55 2.02v1.77c0 .9-.15 1.5-.81 1.75ZM25 24.32v-2.46c0-.53-.51-.69-.98-.69h-.52V25h.52c.47 0 .98-.17.98-.68Z" fill="#B80000"/><path fill="#0C013D" d="M8 34h40v5H8z"/><path fill="#F0F3FA" fill-opacity=".5" d="M12 35h32v3H12z"/></svg>