<svg width="56" height="56" viewBox="0 0 56 56" xmlns="http://www.w3.org/2000/svg"><path fill="#F0F3FA" d="M0 0h56v56H0z"/><path d="M37.03 34.5h2.09c.18 0 .3-.03.42-.14l.31-.25.1.05L39 36h-2C34.44 36 33 34.65 33 32.57c0-2.3 1.52-3.57 4.39-3.57H40l-2.51 4.5h-1.46l1.83-3h-1.03c-1.53 0-2.33.56-2.33 1.96 0 1.5.83 2.04 2.53 2.04ZM45.03 34.5h2.09c.18 0 .3-.03.42-.14l.31-.25.1.05L47 36h-2C42.44 36 41 34.65 41 32.57c0-2.3 1.52-3.57 4.39-3.57H48l-2.51 4.5h-1.46l1.83-3h-1.03c-1.53 0-2.33.56-2.33 1.96 0 1.5.83 2.04 2.53 2.04ZM29.52 33.25l1.83-3.68c.02-.04.03-.07.03-.12 0-.07-.05-.15-.12-.2l-.2-.14V29H33v.1L29.48 36 26 29.1V29h1.97v.1l-.18.14a.31.31 0 0 0-.14.24c0 .03 0 .06.02.1l1.85 3.67ZM22 35.43v-5.87c0-.11-.03-.19-.1-.27l-.18-.18V29h2.92c.53 0 1.03.28 1.36.76l-.56 1.29-.1-.02v-.1c0-.33-.31-.61-.85-.61h-.99v5.1c0 .11.03.2.1.29l.18.18V36h-2.06v-.1l.18-.2a.4.4 0 0 0 .1-.27ZM10.57 36C8.87 36 8 35.15 8 33.75c0-1.54.92-2.42 2.52-2.42h1.13l-.77 1.47h-.1v-.03c0-.14-.12-.22-.34-.22-.73 0-1.03.45-1.03 1.1 0 .77.28.85 1.2.85h1.89v-3.18c0-.63-.18-.82-.85-.82H9.22a.49.49 0 0 0-.34.14l-.3.25-.08-.06.91-1.83h2.46c1.6 0 2.13.7 2.13 2.3v4.13c0 .1.03.2.11.28l.19.18V36h-3.73ZM17.57 36c-1.7 0-2.57-.85-2.57-2.25 0-1.54.92-2.42 2.52-2.42h1.13l-.77 1.47h-.1v-.03c0-.14-.12-.22-.34-.22-.73 0-1.03.45-1.03 1.1 0 .77.28.85 1.2.85h1.89v-3.18c0-.63-.18-.82-.85-.82h-2.43a.49.49 0 0 0-.34.14l-.3.25-.08-.06.91-1.83h2.46c1.6 0 2.13.7 2.13 2.3v4.13c0 .1.03.2.11.28l.19.18V36h-3.73Z" fill="#0060AC"/><path d="M28.29 17.97h.26c.1 0 .15.05.15.14v.85c0 .06-.02.11-.06.16-.1.14-.2.23-.31.28-.17.08-.21.04-.14-.12.11-.24.16-.44.15-.62-.01-.13-.19-.19-.28-.1l-.41.4c-.08.07-.12.06-.1-.05.01-.27.05-.46.11-.57.14-.24.07-.32-.2-.22-.04.01-.08.1-.1.24 0 .07-.19.1-.2.02 0-.12.02-.23.07-.31.04-.06.09-.1.15-.12.35-.1.53-.33.56-.66 0-.08-.03-.1-.11-.08a2.6 2.6 0 0 0-.51.28c-.11.07-.2.07-.29 0-.05-.04-.07-.09-.05-.15.2-.54.12-1.02-.2-1.43-.13-.15-.2-.13-.22.07a.82.82 0 0 1-.37.58c-.6.37-.88 1.02-1.23 1.58-.02.03-.04.03-.07.02-.02 0 0-.04 0-.05l.84-1.52c.29-.53.3-1.04.03-1.52-.16-.28-.24-.26-.23.06 0 .4.02.62-.1.94l-1 2.38a4.16 4.16 0 0 0-.38 1.5c0 .53.13 1.04.39 1.54.01.03.04.06.08.07.03.02.07.02.1.01.12-.04.17-.14.15-.32 0-.1.04-.14.16-.1.11.02.28.04.3.19.02.14-.11.2-.25.2-.22 0-.38.1-.48.3a.25.25 0 0 1-.44 0 3.38 3.38 0 0 1-.16-2.86l1.07-2.63c.18-.44.2-.92.08-1.44-.02-.06-.09-.14-.22-.23a.24.24 0 0 1-.1-.16c-.06-.4.3-.65.67-.45.3.16.51.38.64.65.03.07.08.1.16.1h.15c.08 0 .15.08.13.16-.07.3-.08.54-.04.74 0 .05.04.08.1.08a.1.1 0 0 0 .1-.08c.02-.33.2-.47.53-.42.07 0 .1-.02.1-.09-.01-.4-.2-.62-.54-.65a.23.23 0 0 1-.21-.3c.04-.12.1-.14.18-.08.83.6 1.1 1.42.78 2.42l.01.08c.03.05.07.05.1 0 .18-.23.37-.3.57-.21.07.03.12.11.12.19v.29c0 .14.14.22.27.17a.22.22 0 0 0 .1-.1l.34-.52c.05-.08.19-.04.19.06v.24c0 .1-.15.02-.21.06-.37.24-.63.56-.8.96-.03.1 0 .15.12.15Z" fill="#DC0B04"/><path d="M26.68 22.54c.01-.92.45-1.68 1.3-2.29.57-.4 1.14-.83 1.73-1.3.45-.36.9-.97 1.37-1.81.25-.47.22-1.02.35-1.54a.38.38 0 0 1 .29-.27c.14-.03.3.03.38.14.36.46.56.98.59 1.58 0 .22.1.3.18.46.04.06.05.13.05.2a2.59 2.59 0 0 1-.64 1.54c-.06.08-.04.12.06.11.15 0 .33-.06.54-.16a.14.14 0 0 0 .08-.14c0-.1-.05-.22 0-.32.18-.36.27-.85.3-1.49 0-.21-.36-.7-.33-.79.11-.33.22-.33.32 0 .1.31.13.77.1 1.38 0 .03-.06.3-.2.82-.05.26-.08.54-.08.85 0 .06-.02.13-.06.19-.1.18-.22.47-.36.88a.4.4 0 0 1-.26.26c-.3.11-.31.22-.01.32.03.01.11-.01.23-.07.07-.03.11-.01.13.06.04.16 0 .3-.11.45-.41.49-.64.77-.69.85-.05.07-.03.11.06.13.12.02.25-.04.39-.16.07-.07.1-.06.07.04-.09.29-.24.51-.45.68-.04.03-.1 0-.1-.04-.02-.05-.05-.08-.13-.09h-.15l-.64.12a.2.2 0 0 0-.14.1c-.1.18-.23.27-.37.26-.08 0-.12-.04-.14-.1-.04-.1 0-.16.1-.18.11-.02.28-.02.34-.12.2-.33.5-.57.92-.71a.31.31 0 0 0 .17-.13l.34-.59a.14.14 0 0 0 .02-.08c0-.09-.1-.15-.18-.13-.3.07-.47-.05-.52-.37 0-.06.02-.1.09-.12.47-.14.74-.5.8-1.07.01-.09-.03-.13-.13-.13h-.41c-.09 0-.16-.08-.14-.16 0-.03.01-.05.03-.07.35-.37.6-.86.74-1.48.02-.07-.01-.11-.09-.12-.15-.02-.34 0-.48.11-.6.54-1.25 1.03-1.94 1.48-.04.02-.07-.03-.1-.05v-.01l1.36-1.03c.73-.55 1-1.25.81-2.12-.02-.1-.1-.15-.2-.15-.08 0-.13.04-.14.11-.13.77-.5 1.47-1.1 2.1l-.73.73c-.08.09-.21.18-.38.26-.2.1-.31.32-.46.44-1.08.87-2.04 1.52-1.86 3.08.02.2.02.34-.02.42-.07.14-.18.2-.35.22a.17.17 0 0 1-.17-.07 2.8 2.8 0 0 0-.75-.64c-.86-.54-1.6-.04-1.79.86-.01.07.01.11.08.14.91.32 1.17.96 1.94 2.11.67 1 2.2 2.17 3.46 1.52.28-.15.33-.1.15.17-.1.13-.28.24-.55.31-1.27.36-2.8-.58-3.42-1.53l-.93-1.42c-.45-.69-1.03-.84-1.74-.44-.04.02-.15-.04-.1-.09l.52-.46c.14-.13.25-.31.34-.54.25-.61.72-1.02 1.4-1.24.4-.11.77.18 1.3.41.07.04.11.02.11-.07ZM33.41 20.55a.3.3 0 0 0-.16.04c-.04.02-.08.02-.1.01-.03-.02-.03-.04 0-.05l.4-.29c.21-.14.29-.1.23.15a3.12 3.12 0 0 1-.84 1.46h-.09v-.03c.32-.33.54-.72.66-1.16a.1.1 0 0 0-.1-.13Z" fill="#DC0B04"/><path d="M27.87 21.92c-.07.39.02.53.38.74l.05.04a.15.15 0 0 1 .02.12l-.03.06c-.09.11-.18.15-.27.12-.06-.01-.1-.07-.14-.16-.41-1.12.04-1.75.91-2.47h.04c.02.01.02.03 0 .05-.42.44-.86.94-.96 1.5ZM25.3 23.74c.15 0 .27-.12.27-.27a.28.28 0 0 0-.28-.27.28.28 0 0 0-.28.27c0 .15.13.27.28.27ZM29.36 24.15c.29.24.6.4.93.5.02 0 .03.01.03.03-.01.02-.02.03-.04.03-.71-.1-1.17-.45-1.36-1.05a.5.5 0 0 1 .02-.35c.03-.07.08-.1.16-.1.1.02.18.04.21.07.02.02.04.04.04.07v.08c-.09.14-.14.26-.17.38-.03.1.03.22.18.34Z" fill="#DC0B04"/><path d="M31.28 24.2c-.18.05-.33.07-.45.05a.15.15 0 0 1-.13-.14c-.01-.2.05-.33.2-.36.36-.08.6-.17.7-.24.28-.23.37-.17.29.17l-.16.57c-.07.23-.15.38-.27.45-.17.12-.34.2-.51.25-.33.1-.33.21 0 .31 1.2.38 2.2.76 2.98 1.12a.1.1 0 0 1 .07.1v.06c-.02.02-.04.04-.08.03-.16 0-.73-.08-1.72-.2a3.15 3.15 0 0 1-1.04-.35 6.07 6.07 0 0 0-1.4-.57.22.22 0 0 1-.16-.14.3.3 0 0 1 .07-.3c.05-.06.1-.08.18-.08.27 0 .5-.05.65-.16.18-.14.44-.04.64-.17a.57.57 0 0 0 .24-.3.08.08 0 0 0-.1-.1Z" fill="#DC0B04"/></svg>