<svg xmlns="http://www.w3.org/2000/svg" width="56" height="56"><path fill="url(#a54uav4wr)" d="M0 0h56v56H0z"/><path fill="#fff" d="M10 28l18-18 18 18-18 18z"/><path d="M22.9 39.38L11.62 28.04l1.4-1.32 6.58 6.53c1.25.97 3.55.77 4.45-.12l3.97-3.9 1.8 1.78-3 3.09c-.27.25-.45.81-.11 1.17.26.27.88.27 1.14 0l3.17-3 .95.98c.86 1 .44 1.85 0 2.29l-4.58 4.35c-1.74 1.4-3.74.2-4.5-.5zm10.17-22.73L44.33 28l-1.4 1.32-6.58-6.52c-1.25-.98-3.56-.78-4.45.11l-3.97 3.9-1.8-1.78 3-3.08c.27-.25.45-.82.1-1.17-.25-.27-.87-.27-1.14 0l-3.16 2.99-.95-.97c-.86-1-.44-1.85 0-2.3l4.58-4.34c1.73-1.41 3.74-.21 4.5.5z" fill="#FD0810"/><path d="M16.67 22.84L28 11.58l1.32 1.4-6.53 6.58c-.97 1.25-.77 3.55.12 4.45l3.9 3.97-1.78 1.8-3.08-3.01c-.26-.26-.82-.44-1.17-.1-.28.26-.28.87 0 1.14l2.99 3.16-.98.96c-1 .86-1.85.44-2.29 0l-4.35-4.59c-1.4-1.73-.2-3.73.5-4.5zm22.66 10.43L27.99 44.53l-1.33-1.4 6.53-6.58c.98-1.25.78-3.55-.11-4.45l-3.9-3.97 1.78-1.8 3.08 3c.25.27.81.45 1.17.11.27-.26.27-.88 0-1.14l-3-3.17.98-.95c1-.86 1.85-.44 2.3 0l4.34 4.58c1.4 1.74.2 3.74-.5 4.5z" fill="#000EFF"/><defs><linearGradient id="a54uav4wr" x1="0" y1="28" x2="56" y2="28" gradientUnits="userSpaceOnUse"><stop offset=".5" stop-color="#000EFF"/><stop offset=".5" stop-color="#FD0810"/></linearGradient></defs></svg>