<svg width="56" height="56" xmlns="http://www.w3.org/2000/svg"><path fill="#F0F3FA" d="M0 0h56v56H0z"/><path d="M37.533 37.997H44l-4.41-5.373-2.923 1.392c.73 1.391.882 3.206.866 3.98zm-19.066 0H12l4.426-5.377 2.906 1.392c-.73 1.39-.88 3.21-.865 3.985z" fill="#F2DA52"/><path d="M44 37.997v-7.363l-4.432 1.996L44 37.997zm-32 0V30.63l4.432 1.996L12 37.996z" fill="#EF6B2B"/><path d="M39.602 32.616l-4.783-5.952-1.854 3.174c1.965 1.277 3.317 3.33 3.707 4.184l2.93-1.406zm-23.171.01l4.75-5.966 1.847 3.146c-1.965 1.278-3.31 3.35-3.7 4.204l-2.896-1.384z" fill="#EF6B2B"/><path d="M28 28.38V18.004l6.82 8.684-1.849 3.148C31.334 28.704 29.037 28.38 28 28.38z" fill="#F2DA52"/><path d="M28 28.375V18.004l-6.82 8.68 1.849 3.148c1.38-1.104 3.934-1.457 4.971-1.457z" fill="#E32D22"/><path d="M28 18.004h12.247l-5.434 8.677L28 18.004zm0 0H15.753l5.424 8.702L28 18.004z" fill="#EF6B2B"/><path d="M40.222 18.004H44V30.63l-4.384 2.016-4.803-5.974 5.409-8.67zm-24.444.001H12v12.626l4.43 2.002 4.747-5.944-5.399-8.684zM28 28.363v9.633l5.005-8.215c-1.5-1.643-3.966-1.63-5.005-1.418z" fill="#A8191D"/><path d="M28 28.363v9.633l-4.984-8.21c1.5-1.643 3.945-1.635 4.984-1.424z" fill="#EF6B2B"/><path d="M33.02 29.747L28 37.997 36.68 34c-.41-2.132-2.621-3.732-3.66-4.254zm-10.022.009L28 37.996l-8.668-3.999c.41-2.132 2.627-3.719 3.666-4.24z" fill="#E32D22"/><path d="M28.005 37.997h9.572c.363-1.852-.39-3.472-.81-4.045l-8.763 4.045zm-.005 0h-9.525c-.363-1.852.386-3.458.805-4.03l8.72 4.03z" fill="#A8191D"/></svg>