<svg width="56" height="56" xmlns="http://www.w3.org/2000/svg"><path fill="#F0F3FA" d="M0 0h56v56H0z"/><path d="M28 34h-9.525c-.363-1.76.386-3.286.805-3.83L28 34zm.004 0h9.573c.363-1.76-.39-3.299-.81-3.843L28.005 34z" fill="#A8191D"/><path d="M22.998 26.169L28 33.999l-8.668-3.8c.41-2.026 2.627-3.535 3.666-4.03zm10.022-.009L28 34l8.68-3.797c-.41-2.026-2.621-3.547-3.66-4.043z" fill="#E32D22"/><path d="M28 24.844V34l-4.984-7.801c1.5-1.562 3.945-1.555 4.984-1.354z" fill="#EF6B2B"/><path d="M28 24.844V34l5.005-7.807c-1.5-1.561-3.966-1.55-5.005-1.348zm-12.222-9.842H12V27l4.43 1.902 4.747-5.648-5.399-8.253zM40.222 15H44v12l-4.384 1.916-4.803-5.678L40.221 15z" fill="#A8191D"/><path d="M28 15H15.753l5.424 8.27L28 15zm0 0h12.247l-5.434 8.246L28 15z" fill="#EF6B2B"/><path d="M28 24.856V15l-6.82 8.25 1.849 2.99c1.38-1.049 3.934-1.384 4.971-1.384z" fill="#E32D22"/><path d="M28 24.86V15l6.82 8.253-1.849 2.991C31.334 25.17 29.037 24.86 28 24.86z" fill="#F2DA52"/><path d="M16.431 28.896l4.75-5.67 1.847 2.99c-1.965 1.215-3.31 3.184-3.7 3.995l-2.896-1.315zm23.171-.009l-4.783-5.657-1.854 3.016c1.965 1.215 3.317 3.166 3.707 3.977l2.93-1.336z" fill="#EF6B2B"/><path d="M12 34v-7.001l4.432 1.897L12 34zm32 0v-6.997L39.568 28.9 44 34z" fill="#EF6B2B"/><path d="M18.467 34H12l4.426-5.11 2.906 1.323c-.73 1.322-.88 3.05-.865 3.787zm19.066 0H44l-4.41-5.105-2.923 1.322c.73 1.322.882 3.046.866 3.783z" fill="#F2DA52"/><path fill="#C7161E" d="M12 35h32v6H12z"/><path d="M14.373 37.24v.646h.941v.217h-.941V39H14v-2h1.409v.24h-1.036zM15.708 39l.789-2h.363l.782 2h-.378l-.162-.423h-.847L16.09 39h-.382zm.633-.638h.672l-.333-.84-.34.84zm3.049.085c0 .07-.017.14-.052.206a.544.544 0 01-.14.175.72.72 0 01-.226.12.96.96 0 01-.306.044c-.049 0-.1-.003-.153-.008a1.238 1.238 0 01-.308-.063.544.544 0 01-.122-.07l.064-.227a.83.83 0 00.107.043l.137.037c.047.01.094.02.14.026.048.007.091.01.132.01a.465.465 0 00.284-.073c.068-.052.101-.126.101-.225a.2.2 0 00-.07-.154.715.715 0 00-.177-.113 3.07 3.07 0 00-.226-.104 1.58 1.58 0 01-.23-.121.7.7 0 01-.177-.167.39.39 0 01-.07-.238c0-.086.018-.163.055-.23a.523.523 0 01.146-.17.688.688 0 01.217-.108.922.922 0 01.263-.037c.094 0 .189.008.284.024a.67.67 0 01.233.071 2.546 2.546 0 01-.144.238.569.569 0 01-.043-.02.289.289 0 00-.064-.027.529.529 0 00-.113-.019 1.289 1.289 0 00-.18.003.334.334 0 00-.116.032.377.377 0 00-.098.06.281.281 0 00-.067.085.183.183 0 00-.025.087c0 .07.024.128.07.172.047.043.105.08.175.114.069.032.144.064.226.095.081.03.157.067.226.111a.6.6 0 01.177.167c.047.065.07.15.07.254zM21.493 37v2h-.367v-.897h-.975V39h-.372v-2h.372v.886h.975V37h.367zm.947 2h-.373v-2h.373v2zm2.393-1.003c0 .164-.025.309-.074.434a.834.834 0 01-.495.5 1.039 1.039 0 01-.37.064c-.134 0-.258-.021-.372-.064a.855.855 0 01-.297-.188.887.887 0 01-.198-.312 1.235 1.235 0 01-.07-.434 1.2 1.2 0 01.07-.43.886.886 0 01.198-.313.856.856 0 01.297-.188c.114-.044.238-.066.373-.066a1 1 0 01.37.066.82.82 0 01.494.5c.05.124.074.267.074.431zm-.948.738a.615.615 0 00.214-.037.475.475 0 00.184-.127.595.595 0 00.128-.227 1.2 1.2 0 000-.683.613.613 0 00-.122-.23.445.445 0 00-.178-.13.546.546 0 00-.207-.04.643.643 0 00-.217.038.468.468 0 00-.184.127.619.619 0 00-.125.227 1.236 1.236 0 00-.003.683c.03.093.071.17.122.23a.519.519 0 00.178.13c.067.026.137.04.21.04zM26.978 37v2h-.373l-.883-1.362V39h-.373v-2h.373l.883 1.376V37h.373zm2.729 2l-.211-.246a.673.673 0 01-.257.18.974.974 0 01-.571.04.536.536 0 01-.174-.085.443.443 0 01-.129-.148.515.515 0 01-.012-.413.59.59 0 01.098-.161.832.832 0 01.137-.133c.053-.04.106-.075.16-.103a1.08 1.08 0 01-.18-.182.626.626 0 01-.074-.133.446.446 0 01-.028-.156.395.395 0 01.156-.317.585.585 0 01.177-.095.745.745 0 01.43-.005.48.48 0 01.181.084.39.39 0 01.125.145.439.439 0 01.046.207.553.553 0 01-.042.188.702.702 0 01-.23.264.943.943 0 01-.14.08c.038.047.088.1.15.156.06.056.119.112.174.166a1.508 1.508 0 00.131-.211l.239.084a1.18 1.18 0 01-.083.167c-.033.055-.067.11-.104.164l.413.463h-.382zm-.685-1.73a.363.363 0 00-.095.013.304.304 0 00-.085.04.216.216 0 00-.058.06.142.142 0 00-.022.077c0 .046.01.088.028.125.018.037.04.07.064.1s.05.057.076.082l.065.058a.49.49 0 00.226-.148.315.315 0 00.076-.193.178.178 0 00-.08-.159.333.333 0 00-.195-.055zm-.128 1.5a.544.544 0 00.28-.074.541.541 0 00.154-.135 5.237 5.237 0 00-.217-.22 2.912 2.912 0 01-.196-.209.666.666 0 00-.232.193.354.354 0 00-.07.199c0 .02.004.043.012.071a.267.267 0 00.134.148c.035.018.08.027.135.027zM32.5 39l-.425-.725-.025.003h-.323V39h-.367v-2h.648c.386 0 .785.263.785.635a.576.576 0 01-.113.36.664.664 0 01-.306.22l.514.785H32.5zm-.773-.955h.333c.044 0 .09-.006.134-.019a.316.316 0 00.21-.19.532.532 0 00.02-.31.279.279 0 00-.065-.119.33.33 0 00-.131-.095.543.543 0 00-.227-.04h-.274v.773zm2.038-.796v.637h.94v.217h-.94v.656H34.8V39h-1.41v-2h1.41v.249h-1.036zm3.125-.244v.217h-.672V39h-.37v-1.778h-.672v-.217h1.715zM37.24 39l.788-2h.363l.782 2h-.379l-.161-.423h-.847l-.165.423h-.382zm.632-.638h.672l-.333-.84-.34.84zm2.154.638h-.373v-2h.373v2zm.938-2v1.765H42V39h-1.409v-2h.373z" fill="#fff"/></svg>