<svg width="56" height="56" viewBox="0 0 56 56" xmlns="http://www.w3.org/2000/svg"><path fill="#F0F3FA" d="M0 0h56v56H0z"/><path fill-rule="evenodd" d="M9.64 31.27A3.5 3.5 0 1 1 11 28.45V32H9.64v-.73Zm0-2.75a2.14 2.14 0 1 1 0-.04v.04ZM50.64 31.27A3.5 3.5 0 1 1 52 28.45V32h-1.36v-.73Zm0-2.75a2.14 2.14 0 1 1 0-.04v.04Z" fill="#002158"/><path d="M18 30.84A3.4 3.4 0 0 1 15.44 32 3.47 3.47 0 0 1 12 28.5c0-1.93 1.54-3.5 3.44-3.5.7 0 1.37.22 1.91.59l-.65 1.2a2.07 2.07 0 0 0-1.26-.43c-1.16 0-2.1.96-2.1 2.14 0 1.18.94 2.14 2.1 2.14.65 0 1.23-.3 1.61-.76l.95.96ZM25 30.84A3.4 3.4 0 0 1 22.44 32 3.47 3.47 0 0 1 19 28.5c0-1.93 1.54-3.5 3.44-3.5.7 0 1.37.22 1.91.59l-.65 1.2a2.07 2.07 0 0 0-1.26-.43c-1.16 0-2.1.96-2.1 2.14 0 1.18.94 2.14 2.1 2.14.65 0 1.23-.3 1.61-.76l.95.96ZM29.5 32a3.5 3.5 0 0 0 2.58-1.13l-.96-.97a2.14 2.14 0 0 1-3.74-1.09h5.6c.02-.1.02-.2.02-.31a3.5 3.5 0 1 0-3.5 3.5Zm1.97-4.34h-3.94a2.14 2.14 0 0 1 3.94 0ZM36.38 23H35v7.52c0 .82.65 1.48 1.45 1.48H37v-1.33h-.1c-.33 0-.52-.27-.52-.61V23ZM39 25h1.4v4.53a1.1 1.1 0 0 0 2.2 0V25H44v7.5a2.5 2.5 0 0 1-4.9.67l1.28-.61a1.12 1.12 0 0 0 2.24-.06v-.76A2.5 2.5 0 0 1 39 29.5V25Z" fill="#002158"/></svg>