<svg width="56" height="56" viewBox="0 0 56 56" xmlns="http://www.w3.org/2000/svg"><path fill="#F0F3FA" d="M0 0h56v56H0z"/><path fill-rule="evenodd" d="M21 12.1c.78.65 2.45 2.38 2.86 4.03 1.22.39 4.14 1.7 4.75 3.05.75 1.67 5.04 11.16 7.56 13.82H41c-2.11-2.92-6.67-10.04-7.98-15.2-1.22-4.68-2.31-6.22-12.02-5.7Zm5 2.9a1 1 0 1 0 0-2 1 1 0 0 0 0 2Z"/><path d="M35 34h-.06c-4.8-.03-5.82-4.16-6.44-5.9-.61-1.73-1.85-4.5-5.2-4.5-5.22 0-6.64 5.04-6.64 6.25 0 .96.18 1.53.27 1.7h-.44a4.97 4.97 0 0 1-.49-2.33c0-3.1 2.74-5.58 4.1-6.43L25.29 19a65.6 65.6 0 0 1 4.1 9.29c1.64 4.53 4.35 5.69 5.56 5.71H35Z"/><circle cx="23" cy="30" r="5" fill="#F34E9D"/><path d="M25.5 29a3.5 3.5 0 1 1-7 0 3.5 3.5 0 0 1 7 0Z" fill="#F294C3"/><path d="M24 28a2.5 2.5 0 1 1-5 0 2.5 2.5 0 0 1 5 0Z" fill="#FDEDF7"/><path d="M36.43 35.5c4.25 0 8.15 2.56 9.57 3.5-1.73-.51-6.02-2-9.4-2-4.21 0-8.82 2-15.58 2-5.4 0-9.6-2.04-11.02-3 1.24.5 5.16 1.5 10.89 1.5 7.15 0 10.23-2 15.54-2Z" fill="#77C4F0"/><path d="M36.43 37c4.25 0 8.15 2.56 9.57 3.5-1.73-.51-6.02-2-9.4-2-4.21 0-8.82 2-15.58 2-5.4 0-9.6-2.04-11.02-3 1.24.5 5.16 1.5 10.89 1.5 7.15 0 10.23-2 15.54-2Z" fill="#21A0D3"/><path d="M36.43 38.5c4.25 0 8.15 2.06 9.57 3a38.98 38.98 0 0 0-9.4-1.5c-4.21 0-8.82 2-15.58 2-5.4 0-9.6-2.04-11.02-3 1.24.5 5.16 1.5 10.89 1.5 7.15 0 10.23-2 15.54-2Z" fill="#0778C8"/></svg>