<svg width="56" height="56" viewBox="0 0 56 56" xmlns="http://www.w3.org/2000/svg"><path fill="url(#a3fkkeiei)" d="M0 0h56v56H0z"/><path d="M28 20h6v6.05L28 20v16c-3.87 0-7-3.01-7-6.73v-2.54A6.87 6.87 0 0 1 28 20Zm0 16 6-6v6h-6ZM11.76 20l1.78 9h-1.47l-1.25-6.08L7 36h6.51l-1.03-5h1.46l.98 5H21l-3.29-16h-5.95ZM48 20H36v16h12v-7.04L42 36v-8.47L46 31v-7l2 2v-6Zm-2 4-4 3.53V20l4 4Z" fill="#F68E34"/><defs><linearGradient id="a3fkkeiei" x1="10.42" y1="9.71" x2="68.15" y2="76.02" gradientUnits="userSpaceOnUse"><stop stop-color="#1A1E21"/><stop offset="1" stop-color="#06060A"/></linearGradient></defs></svg>