<svg width="56" height="56" viewBox="0 0 56 56" xmlns="http://www.w3.org/2000/svg"><path fill="#F0F3FA" d="M0 0h56v56H0z"/><path d="M35.43 26.08c9.32.1 10.12 8.53 9.35 12.72-.75-2.86-3.44-8.56-8.23-8.46-4.8.1-12.1 4.46-15.15 6.62-3.42 2.46-10.3 5.74-10.4-.83-.13-8.2 10.73-25.57 18.7-25.12 7.97.44 11.59 11.45 7.77 13.67-3.82 2.23-5.86-6.36-8.76-6.36-2.9 0-8.62 8.4-9.54 10.3-.74 1.53-.31 2.38 0 2.61 6.38.64 6.94-5.25 16.26-5.15Z" fill="url(#avf115jif)"/><path d="M35.89 32.25c-5.37-.15-13.56 6.5-17.58 8.65 1.32.83 13.43-3.88 17.58-4.26a7.52 7.52 0 0 1 6.52 3c1.12-2.17.2-7.2-6.52-7.39Z" fill="url(#bvf115jif)"/><defs><linearGradient id="avf115jif" x1="23.51" y1="13.49" x2="35.09" y2="38.29" gradientUnits="userSpaceOnUse"><stop stop-color="#5BFD17"/><stop offset=".28" stop-color="#4AEB14"/><stop offset="1" stop-color="#0C9815"/></linearGradient><linearGradient id="bvf115jif" x1="42.01" y1="37.47" x2="23.18" y2="37.95" gradientUnits="userSpaceOnUse"><stop stop-color="#2D377F"/><stop offset="1" stop-color="#0293F0"/></linearGradient></defs></svg>