<svg xmlns="http://www.w3.org/2000/svg" width="56" height="56"><path fill="#F0F3FA" d="M0 0h56v56H0z"/><path d="M9.38 28.42h2.86c.01.02 0 .04-.01.06l-.86 2.24c-.01.05-.04.07-.09.07a22.26 22.26 0 01-3.44.2 9.03 9.03 0 01-2.03-.28c-.37-.1-.71-.23-1.03-.42a1.92 1.92 0 01-.5-.42 1.2 1.2 0 01-.26-1c.09-.5.36-.91.74-1.27.35-.32.76-.57 1.2-.78.6-.28 1.25-.47 1.91-.6.53-.1 1.07-.17 1.61-.2a19.05 19.05 0 013.2.1c.05.02.05.02.03.07l-.34.92c-.02.05-.05.06-.1.04-.41-.2-.88-.25-1.34-.32-.35-.04-.7-.07-1.05-.06-.54 0-1.06.06-1.57.23-.4.13-.75.32-1.04.6-.32.3-.5.66-.58 1.06-.05.21-.05.43 0 .65.09.28.27.5.53.65.23.13.47.2.73.24.4.06.79.06 1.18.03.04 0 .07 0 .08-.04.14-.38.3-.75.43-1.12a.99.99 0 00.05-.2.3.3 0 00-.1-.29.87.87 0 00-.18-.11c-.02-.01-.03-.02-.03-.05zM19.52 31c.03 0-.04 0 0 0H16.8c-.09 0-.1-.03-.1-.08l-.4-1.78-.01-.04-.03.07a.9.9 0 01-.2.34.56.56 0 01-.44.21h-1.55c-.06 0-.1.02-.13.07l-.4.5c-.05.07-.1.15-.13.23-.05.12-.04.22.06.31l.12.1.07.05V31H11.7c0-.02.01-.03.03-.05l3.08-3.82.34-.42a.98.98 0 00.11-.19.29.29 0 00-.05-.34.72.72 0 00-.15-.11c-.02-.02-.05-.02-.06-.05.02-.02.04 0 .06 0h2.79c.07 0 .07 0 .08.06l.68 2.8.31 1.27c.07.3.23.53.46.72.04.04.1.08.14.14zm-4.97-2h1.74l-.38-1.73L14.55 29zm5.47-3h6.3c.03 0 .07 0 .1.04l-.83 1.1a.54.54 0 00-.33-.24l-.15-.04c-.24-.04-.48-.03-.72-.03-.13 0-.26 0-.39.02-.05 0-.07.03-.1.07l-1.07 3.1c-.04.1-.07.2-.09.32-.02.15 0 .3.1.43.03.06.07.1.13.15h.01l.01.01.02.02.02.01V31h-3.01l1.45-4.13a7.09 7.09 0 00-1.21 0c-.35.03-.67.12-1 .23l-.08.02-.03-.01.87-1.1zm9.42 0c0 .03 0 .06-.02.09l-1.36 3.87c-.04.12-.09.23-.12.35a.77.77 0 00-.04.24c0 .15.08.26.2.35l.15.1h-3a4909.17 4909.17 0 011.32-3.8l.16-.44a.89.89 0 00.05-.25.42.42 0 00-.18-.39.3.3 0 01-.1-.12h2.94z" fill="#1486A2"/><path d="M33.17 25.13L31.02 32l1.85-.8 2.38-7.2-2.08 1.13z" fill="#1E4098"/><path d="M42.97 23.5c-5.23.06-8.23 3.01-9.07 4.48L35.68 31h1.87l-1.87-3.02c3.78-4.56 10.21-3.94 12.96-3.06a11.1 11.1 0 00-5.67-1.42z" fill="url(#a13yonzjk)"/><path d="M38.79 31l-.37-5h1.48l.22 3.47L41.55 26h1.66v3.47L44.84 26h1.65l-2.43 5H42v-2.9L40.8 31h-2.01zm8.32-5H52l-.34 1h-3.34l-.24 1h3.32l-.26 1h-3.28l-.26 1h3.37l-.28 1h-4.85l1.27-5z" fill="#1E4098"/><defs><linearGradient id="a13yonzjk" x1="36.44" y1="26.05" x2="41.3" y2="29.33" gradientUnits="userSpaceOnUse"><stop stop-color="#D32933"/><stop offset="1" stop-color="#F7BF6E"/></linearGradient></defs></svg>