<svg width="56" height="56" viewBox="0 0 56 56" xmlns="http://www.w3.org/2000/svg"><path fill="#F0F3FA" d="M0 0h56v56H0z"/><path fill-rule="evenodd" d="M28 36.12a8.1 8.1 0 1 0 0-16.2 8.1 8.1 0 0 0 0 16.2ZM29.26 25 28 23.59 26.7 25H25v1.72L23.59 28 25 29.28V31h1.7l1.3 1.41L29.26 31H31v-1.7l1.41-1.3L31 26.74V25h-1.74Z" fill="#F9CFCE"/><path d="M25 14.16v6.27l3 3.16 3-3.16v-6.27A3.08 3.08 0 0 0 28 11c-1.66 0-3 1.41-3 3.16ZM25 41.84v-6.27l3-3.16 3 3.16v6.27A3.08 3.08 0 0 1 28 45c-1.66 0-3-1.41-3-3.16ZM14.16 31h6.27l3.16-3-3.16-3h-6.27A3.08 3.08 0 0 0 11 28c0 1.66 1.41 3 3.16 3ZM41.84 31h-6.27l-3.16-3 3.16-3h6.27A3.08 3.08 0 0 1 45 28c0 1.66-1.41 3-3.16 3ZM20.49 40.06 25 35.54V31h-4.54l-4.52 4.51a3.21 3.21 0 1 0 4.55 4.55ZM40.06 20.49 35.54 25H31v-4.54l4.51-4.52a3.21 3.21 0 1 1 4.55 4.55ZM40.06 35.51 35.54 31H31v4.54l4.51 4.52a3.21 3.21 0 1 0 4.55-4.55ZM20.49 15.94 25 20.46V25h-4.54l-4.52-4.51a3.21 3.21 0 1 1 4.55-4.55Z" fill="#E8393C"/></svg>