<svg width="56" height="56" viewBox="0 0 56 56" xmlns="http://www.w3.org/2000/svg"><path fill="#F0F3FA" d="M0 0h56v56H0z"/><path d="M16.23 39H13l.43-2.4h1.66c1.14-.53 4.3-1.6 7.9-1.6 3.6 0 6.18 1.48 7.01 2.22l-1.9 1.32a13.5 13.5 0 0 0-5.56-1.45c-3.13 0-5.51 1.27-6.31 1.91ZM20.8 33.32l-.8-1.43c.69-.3 2.57-.89 4.56-.89 4.98 0 8.37 2.67 9.44 4l-1.24 1a13.92 13.92 0 0 0-8.06-3.36c-1.49 0-3.22.45-3.9.68Z"/><path d="M35.96 30.22 25.5 12 10 39h3.44L25.5 18l9.4 16.37 1.06-4.15Z"/><circle cx="40" cy="18" r="3" fill="#363C88"/><path d="M43 23h-7l1 1.06v6.44l5 7.5h-5v3l-1 1h8l-1-1V23Z" fill="#363C88"/></svg>