<svg xmlns="http://www.w3.org/2000/svg" width="56" height="56" viewBox="0 0 56 56"><path fill="#F0F3FA" d="M0 0h56v56H0z"/><path fill-rule="evenodd" d="M29.71 12h-2.42l1.2-2 1.22 2zm-3.87 2h5.13l-.9-1.57h-1.3l-1.92 1.31h-1V14zm6.4 2.38h-7.78v-.23h1.2l3.28-1.4h2.36l.94 1.63zm-9.33 2.14h10.58l-.96-1.63h-2.76l-4.85 1.4H22.9v.23zm11.72 2.03H21.75v-.25h2.1l6.37-1.2h3.57l.84 1.45zm-5 2.26h6.32l-.94-1.49h-4.65l-1.57.14-.55-.89-.68 1.04-4.8.92h-2.42v.32h6.39l-.58.99-3.63.68H19v.33h6.4l-.87 1.39-2.94.5h-4.17v.33H24l-.76 1.35-2.94.52H16v.36h6.7l-.89 1.32-2.93.52h-4.31v.28h6.77l-.97 1.43-7 .4v.26h6.67l.34-.61 14.57-.87.93 1.46h6.31L41.24 32h-6.19l-.38-.65h6.31l-.95-1.49h-6.28l-.38-.68h6.32l-.94-1.5h-6.3l-.33-.68h6.34l-.94-1.47h-6.33l-.27-.53h6.27l-.95-1.5h-6.29l-.33-.69zm5.03 8.54l-.91-1.44-11.91.74-.48.76 13.3-.06zm-1.34-2.2l-10.59.13.54-.85 9.2-.7.85 1.43zm-1.24-2.17l-.87-1.43v.01l-6.67.7-.5.8 8.04-.08zm-1.3-2.14h-5.33l.7-1 3.79-.32.84 1.32zM29.6 22.8l-.79-1.28-1.24.1-.81 1.2 2.84-.02zM11.91 35.52h31.45L42.41 34h-9.34L11.9 35.33v.19zm32.64 2H10.52v-.27L34.26 36h9.34l.95 1.52zM46 40H9v-.27l26.53-1.49h9.34L46 40z" fill="#EE3F44"/></svg>