<svg width="56" height="56" viewBox="0 0 56 56" xmlns="http://www.w3.org/2000/svg"><path fill="#D70D3D" d="M0 0h56v56H0z"/><path d="m26.37 40.55.06-.04v-.02C22.69 34.07 19 27.71 15.39 21.42c-.3-.5-.55-1-.79-1.5-.04-.08-.02-.16.05-.22a17.3 17.3 0 0 1 2.4-1.85c.18-.13.33-.08.41.12L26.72 40c.04.1.05.1.03 0-.12-.57-.4-1.43-.84-2.59l-.28-.76a4946.8 4946.8 0 0 0-6.84-19.6c-.03-.1 0-.18.1-.22.95-.43 1.95-.78 3.02-1.07.13-.04.21 0 .24.14a4907.68 4907.68 0 0 1 5.14 23.88l.07-.01c.04-.01.06-.04.05-.08-.18-.72-.32-1.44-.44-2.18-1.17-7.26-2.36-14.6-3.58-22.01 0-.08.03-.13.1-.14l3.37-.35c.04 0 .07 0 .1.03a.1.1 0 0 1 .03.08c.3 8.08.6 16.17.94 24.28 0 .02.01.03.03.03.04 0 .06-.01.06-.05.05-.43.07-1.09.06-1.96v-1.03c.19-7.08.36-14.14.52-21.16 0-.06.03-.12.08-.16.05-.05.1-.06.17-.06l3.14.29c.13 0 .18.08.17.2a3412.1 3412.1 0 0 1-3.68 24.44c0 .02 0 .03.03.03h.01c.02 0 .03 0 .03-.02-.01-.19.05-.43.17-.74.08-.21.14-.38.16-.5.15-.83.3-1.64.48-2.44 1.5-6.8 2.97-13.6 4.42-20.45 0-.05.03-.08.07-.1a.15.15 0 0 1 .13-.02l3 1.06c.13.05.17.13.13.26-2.7 7.72-5.42 15.53-8.16 23.43 0 .03 0 .04.03.05.02 0 .03 0 .04-.02 3.16-7.56 6.33-15.1 9.51-22.62a.18.18 0 0 1 .12-.1.18.18 0 0 1 .16.02c.94.6 1.77 1.24 2.49 1.91.08.08.1.16.04.26-3.87 6.73-7.83 13.63-11.9 20.68-.02.03 0 .06.02.08.04.02.06.01.08-.02 4.28-6.38 8.64-12.84 13.1-19.36a.1.1 0 0 1 .08-.05.1.1 0 0 1 .09.05 6.48 6.48 0 0 1 1.06 3.43.6.6 0 0 1-.16.42c-4.6 5.27-9.16 10.48-13.7 15.63-.01.02 0 .04.01.06.03.02.05.02.08 0l2.21-2.2 11.4-11.39c.23-.22.32-.18.28.14-.1.81-.24 1.59-.42 2.32-.1.4-.22.75-.38 1.04-.19.32-.44.61-.75.86-4.32 3.45-8.64 6.9-12.96 10.33-.02.02-.02.03-.01.05.01.02.03.02.05.01l8.73-5.6c.74-.49.8-.42.18.2a40 40 0 0 1-3.56 3.17 22.27 22.27 0 0 1-3.97 2.52 6.49 6.49 0 0 1-5.94-.06 22.81 22.81 0 0 1-4.16-2.67c-1.12-.9-2.3-1.98-3.57-3.27-.39-.4-.35-.44.12-.14a728.7 728.7 0 0 1 8.53 5.52l.05-.06v-.02c-3.58-2.74-7.17-5.44-10.76-8.12a8.28 8.28 0 0 1-1.7-1.57 8.52 8.52 0 0 1-1.47-4.7c0-.2.05-.22.19-.08 4.55 4.59 9.1 9.17 13.67 13.74h.04a23.8 23.8 0 0 0-.84-1.06C20.7 34.88 16.43 30 12.23 25.2a.74.74 0 0 1-.18-.4 2.26 2.26 0 0 1 .03-.48 6.9 6.9 0 0 1 .95-2.82.17.17 0 0 1 .16-.08c.06 0 .12.02.15.08l12.97 19.03c0 .02.03.03.05.02Z" fill="#fff"/></svg>