<svg xmlns="http://www.w3.org/2000/svg" width="56" height="56"><path fill="#F0F3FA" d="M0 0h56v56H0z"/><path d="M28.13 19.87C20 25.77 13.34 37.75 11 43c9.8-14.92 19.98-19.31 23.84-19.64a10.59 10.59 0 00-6.72-3.5z" fill="url(#atenhvs0u)"/><path d="M37.85 16c-3.67-.09-8.03 2.55-9.74 3.88 3.18.22 5.82 2.42 6.73 3.48 4.35-.3 6.2 2.7 6.6 4.24.91-1.77 1.5-4.66 1.56-6.18.05-1.52-.56-5.3-5.15-5.42z" fill="url(#btenhvs0u)"/><path d="M38.32 33.63c-.12-5.25-2.37-9.04-3.48-10.27a6.33 6.33 0 016.66 4.11 59.6 59.6 0 01-3.18 6.16z" fill="url(#ctenhvs0u)"/><defs><linearGradient id="atenhvs0u" x1="31.49" y1="20.83" x2="12.63" y2="42.71" gradientUnits="userSpaceOnUse"><stop stop-color="#019DE9"/><stop offset=".69" stop-color="#251769"/></linearGradient><linearGradient id="btenhvs0u" x1="43" y1="20.92" x2="29.35" y2="19.36" gradientUnits="userSpaceOnUse"><stop offset=".04" stop-color="#016832"/><stop offset="1" stop-color="#97CA1A"/></linearGradient><linearGradient id="ctenhvs0u" x1="35.79" y1="23.32" x2="39.55" y2="32.35" gradientUnits="userSpaceOnUse"><stop offset=".07" stop-color="#E4F0B3"/><stop offset="1" stop-color="#B3D13A"/></linearGradient></defs></svg>