<svg width="56" height="56" viewBox="0 0 56 56" xmlns="http://www.w3.org/2000/svg"><path fill="#4180D3" d="M0 0h56v56H0z"/><path d="M28 11.14 10 39h36L33.74 20.02a34.4 34.4 0 0 0-4.9 1.88c-2.66 1.27-6.27 3.4-6.75 6.74-.25 1.76.39 3.58 2.52 3.84 1.75.22 3.74-.56 3.85-1.9H27V30h3.1a5.33 5.33 0 0 1-4.22 4.2c1.57 0 4.55-.52 5.2-4.2h1.42a6.63 6.63 0 0 1-4.96 5.55h.04c1.66-.2 5.05-.59 6.02-5.55h1.11c-.25 1.68-1.42 5.42-5.32 6.9 2.55-.58 5.46-1.87 6.42-6.9h1.33c0 4.46-4.58 8.48-8.68 8.62a9.11 9.11 0 0 1-8.66-6.14c-2.72-7.87 5.1-13.4 11.71-15.9l-3.5-5.44Z" fill="#fff"/></svg>