<svg width="56" height="56" viewBox="0 0 56 56" xmlns="http://www.w3.org/2000/svg"><path fill="#F0F3FA" d="M0 0h56v56H0z"/><path d="M6 26.28C6.5 25.36 7.62 25 8.54 25c.94 0 2.46.61 2.46 2.94V32h-1v-3.93c0-1.1-.69-2.07-1.9-2.07-1 0-2.1.92-2.1 1.88V32H5V22h1v4.28ZM12 25h1v7h-1v-7Zm22.33 0-.87 3.5c-.2.82-.36 1.56-.46 2.27h-.05c-.14-.71-.31-1.45-.56-2.27l-.94-3.5h-.95l-1 3.58-.14.56c-.15.56-.3 1.12-.41 1.63h-.05c-.07-.42-.16-.85-.25-1.29l-.19-.93-.82-3.55H26.5l1.87 7h1.02l.99-3.34c.22-.73.41-1.47.56-2.3h.02c.15.83.34 1.54.56 2.3l.95 3.34h1.02l2-7h-1.16Zm13.9 0c2.2 0 2.77 1.97 2.77 3.23V29h-4.74c.02 1.67 1.07 2 2.3 2 .87 0 1.4-.1 1.84-.32l.2.89c-.44.19-1.17.43-2.25.43-2.02 0-3.22-1-3.27-3H44l.21-1h.92c.26-1.67 1.39-3 3.1-3Zm-2 3h3.54c.02-.78-.32-2-1.68-2-1.23 0-1.76 1.14-1.86 2Zm-28.72-3c-1.16 0-2.18.64-2.51 1.29V25h-1v7h1v-4.13c0-.98 1.08-1.88 2.1-1.88C18.3 26 19 26.9 19 28v4h1v-4.1c0-2.34-1.52-2.9-2.49-2.9Zm5.6 0c.93 0 1.61.46 1.89.99V22h1v10h-1v-1.31A2.14 2.14 0 0 1 23 32c-1.45 0-2.5-1.4-2.5-3.41 0-2.23 1.17-3.6 2.61-3.6Zm.19 6c1.05 0 1.7-1.05 1.7-2v-1.15c0-.93-.64-1.85-1.68-1.85-1.11 0-1.82 1.04-1.82 2.5 0 1.35.64 2.5 1.8 2.5ZM40 32h1v-4.2c0-1.37-.48-2.8-2.44-2.8-.8 0-1.58.24-2.1.6l.25.83a2.93 2.93 0 0 1 1.68-.43c1.3-.03 1.61.94 1.61 1.48V28c-2.74 0-3.92.34-4 1.95-.05 1 .66 2.05 1.96 2.05.38 0 .75-.08 1.06-.24l.07-.9c-.22.14-.5.22-.8.22-.58 0-1.29-.18-1.29-1 0-1.14.94-1.12 2.28-1.1L40 29v3Zm5-6.98-.12 1.16a.2.2 0 0 0-.13-.03h-.11c-1.12 0-1.64 1.24-1.64 2.18V32h-1V25h1v1.5c.26-.92.94-1.5 1.69-1.5.12 0 .21 0 .31.02Z" fill="#ED3C4D"/></svg>