<svg width="56" height="56" viewBox="0 0 56 56" xmlns="http://www.w3.org/2000/svg"><path fill="#F0F3FA" d="M0 0h56v56H0z"/><path d="M17 27h-5l15-15 16 15h-5L27 17 17 27Z" fill="url(#am1fgfma2)"/><path fill="#959595" d="M25 24h2v2h-2zM25 27h2v2h-2zM28 24h2v2h-2z"/><path fill="#181617" d="M28 30h2v8h-2z"/><path fill="#A72831" d="M28 27h2v2h-2zM28 39h16v1H28z"/><path fill-rule="evenodd" d="M27 30h-2v1.27A3.35 3.35 0 0 0 22.5 30c-2 0-3.5 1.5-3.5 4s2 4 3.5 4c1.1 0 1.94-.81 2.5-1.64V38c0 .67-.84 2.5-3 2.5-2 0-3-.83-3-1v2c.5.17 1.8.5 3 .5 1.5 0 5-.5 5-4v-8Zm-2 5.08v-2.52a4.49 4.49 0 0 0-2.5-1.06c-1.5 0-1.5 2-1.5 2.5s0 2.5 1.5 2.5c.9 0 1.87-.76 2.5-1.42Z" fill="#181617"/><path d="M11.5 32v-1.2c.33-.27 1.3-.8 2.5-.8 1.5 0 4 .4 4 2v6h-2v-.84c-.6.46-1.43.84-2.5.84-2 0-2.5-1.6-2.5-2.4 0-2.05 3.07-2.7 5-2.79v-.41c0-.4-.8-1.2-2-1.2s-2.17.53-2.5.8Zm4.5 1.73c-1.23.34-3 1.03-3 1.87 0 .96 1 1.2 1.5 1.2.6 0 1.09-.26 1.5-.59v-2.48Z" fill="#181617"/><path fill-rule="evenodd" d="M32 33h-1v1h1v-1Zm6 5h-1v-3h-.5v-.53h.5v-.3c0-1.2 1-1.2 2-1.15v.6c-.45-.09-1-.08-1 .54v.31h.5V35H38v3Zm1 0h1v-2.18c.17-.14.4-.2.65-.2a2.76 2.76 0 0 1 .34.03l.01-.61a1.32 1.32 0 0 0-.3-.04c-.28 0-.52.1-.7.25V35h-1v3Zm3.47-2.52c.32 0 .53.15.53.5v.2h-.4c-.63 0-1.6.15-1.6.96 0 .6.67.86 1.18.86.3 0 .58-.08.82-.25V38h1v-2.01c0-.73-.86-.99-1.49-.99-.51 0-1.43.21-1.43.89h.77c0-.3.38-.4.62-.4Zm.53 1.76v-.65h-.38c-.31 0-.62 0-.62.41 0 .3.08.49.33.49.3 0 .53-.1.67-.25ZM33 38h1v-2.3c.14-.1.32-.17.54-.17.43 0 .46.14.46.57V38h1v-1.9c0-.57-.3-1.1-1.15-1.1-.35 0-.63.1-.85.24V35h-1v3Zm-1-3v3h-1v-3h1Z"/><defs><linearGradient id="am1fgfma2" x1="15.5" y1="24" x2="36.5" y2="24" gradientUnits="userSpaceOnUse"><stop stop-color="#9E9E9E"/><stop offset=".56" stop-color="#828483"/><stop offset="1" stop-color="#9C9C9C"/></linearGradient></defs></svg>