<svg width="56" height="56" viewBox="0 0 56 56" xmlns="http://www.w3.org/2000/svg"><path fill="#F0F3FA" d="M0 0h56v56H0z"/><path d="M24.03 35.92c.82 0 1.47-.35 1.97-.95v-3.9c-.7.17-1.38.45-1.9.82-.88.64-1.1 1.45-1.1 2.43 0 .76.1 1.6 1.03 1.6Zm-5.03-.8c0-1.2.56-2.15 1.68-2.85 1.13-.7 2.92-1.41 5.32-2.13V28.2c0-1.48-.75-2.2-2.25-2.2-.57 0-1.75.2-1.75.94 0 .6 1 .93 1 1.6 0 .92-.81 1.46-1.72 1.46-1.04 0-1.8-.61-1.8-1.66 0-2.46 2.83-3.34 4.86-3.34 2.75 0 5.15 1.09 5.15 4.14v6.47c0 .27.14.7.47.7.28 0 .46-.2.65-.39l.39.57c-.83.99-1.8 1.51-2.91 1.51-1.23 0-1.88-.7-2.09-1.85A5.89 5.89 0 0 1 21.91 38 2.8 2.8 0 0 1 19 35.13Z" fill="#E30016"/><path d="M34 30.44c-.16-5.15-4.17-8.5-9-8.44-5.38.07-9.02 4.29-9 9.5 0 2.26.61 4.51 2.04 6.3.62.77.96 1.07 1.1 1.83.14.66-.37 1.23-1 1.41-.45.13-1.36-.68-1.82-1.07a14.89 14.89 0 0 1-4.8-7.43c-.34-1.2-.51-2.48-.52-3.85a16.87 16.87 0 0 1 7.36-13.87c2.6-1.77 5.54-2.7 8.81-2.81 3.49-.11 6.65.71 9.5 2.48A17.89 17.89 0 0 1 45 29.22 14.05 14.05 0 0 1 41.21 39a16.35 16.35 0 0 1-4.2 3.15c-1.04.56-2.25 1-3.38.8-1.07-.17-1.79-.83-2.15-1.98a2.29 2.29 0 0 1 .19-1.8c.41-.8.7-1.4.88-1.79 1-2.23 1.45-4.38 1.45-6.94Z" fill="#073"/></svg>