<svg width="56" height="56" viewBox="0 0 56 56" xmlns="http://www.w3.org/2000/svg"><path fill="#F0F3FA" d="M0 0h56v56H0z"/><path d="M40.5 26.43V21H42v13h-1.16l-.2-1.65A3.7 3.7 0 0 1 37.55 34c-2.1 0-3.55-1.89-3.55-4.4 0-2.53 1.44-4.6 3.55-4.6 1.15 0 2.35.58 2.95 1.43Zm-2.3 6.09c.88 0 2-.65 2.37-1.63V28.1a2.71 2.71 0 0 0-2.36-1.63c-1.24 0-2.71 1.02-2.71 3.11 0 2.1 1.47 2.93 2.7 2.93ZM22 34V21h1.5v13H22ZM17.32 25c1.56 0 2.68 1.3 2.68 3.09V34h-1.5v-5.27c0-.97-.58-2.22-1.8-2.22-.92 0-1.85.67-2.2 1.14V34H13V21h1.5v5.35A4.05 4.05 0 0 1 17.32 25ZM28.57 25c2.87 0 3.43 1.65 3.43 3.08V34h-1.23l-.14-1.18A3.92 3.92 0 0 1 27.8 34c-1.5 0-2.8-.9-2.8-2.59 0-2.43 2.93-3.07 5.5-3.1v-.63c0-1.11-.79-1.68-2.27-1.68-1.62 0-2.78.94-2.78.94V25.8s1.16-.8 3.12-.8Zm-.19 7.78c.77 0 1.8-.41 2.19-1.06V29.5c-1.66.02-4.07.4-4.07 1.84 0 .97 1.07 1.44 1.88 1.44ZM7.57 25c2.87 0 3.43 1.65 3.43 3.08V34H9.77l-.14-1.18A3.92 3.92 0 0 1 6.8 34C5.3 34 4 33.1 4 31.41c0-2.43 2.93-3.07 5.5-3.1v-.63c0-1.11-.79-1.68-2.27-1.68-1.62 0-2.78.94-2.78.94V25.8S5.6 25 7.57 25Zm-.19 7.78c.77 0 1.8-.41 2.19-1.06V29.5c-1.66.02-4.07.4-4.07 1.84 0 .97 1.07 1.44 1.88 1.44ZM47.57 25c2.87 0 3.43 1.65 3.43 3.08V34h-1.23l-.14-1.18A3.92 3.92 0 0 1 46.8 34c-1.5 0-2.8-.9-2.8-2.59 0-2.43 2.93-3.07 5.5-3.1v-.63c0-1.11-.79-1.68-2.27-1.68-1.62 0-2.78.94-2.78.94V25.8s1.16-.8 3.12-.8Zm-.19 7.78c.77 0 1.8-.41 2.19-1.06V29.5c-1.66.02-4.07.4-4.07 1.84 0 .97 1.07 1.44 1.88 1.44ZM13 19h6v1h-6z" fill="#4B9996"/></svg>