<svg width="56" height="56" viewBox="0 0 56 56" xmlns="http://www.w3.org/2000/svg"><path fill="#F0F3FA" d="M0 0h56v56H0z"/><path d="M44.57 26.6c-.2.8-.38 1.82-.53 2.6-.07.34-.17.72-.3 1.14-.06.17 0 .32.16.45.04.02.06.06.08.1.02.03.02.06 0 .08a.13.13 0 0 1-.1.03h-1.66c-.02 0-.04-.02-.05-.03a.1.1 0 0 1-.04-.04.09.09 0 0 1 .01-.1c.21-.23.33-.52.4-.8.59-2.25 1.17-4.72 1.76-6.97l.01-.04.04-.02a.08.08 0 0 1 .07.02c.06.05.1.1.12.16.48 1.08.97 2.11 1.48 3.09.36.69.64 1.4 1.01 2.1l.03.02a.08.08 0 0 0 .08 0l.02-.03a3014.58 3014.58 0 0 1 1.8-3.72c.26-.5.46-1.02.75-1.5a.16.16 0 0 1 .05-.06.18.18 0 0 1 .15-.03l.06.04c.06.05.1.12.12.21.13.61.23 1.24.38 1.86.4 1.74.79 3.6 1.14 5.08.05.25.15.38.35.54.01.01.03.03.03.05a.1.1 0 0 1 0 .06c0 .03-.01.04-.03.06a.13.13 0 0 1-.05.03.99.99 0 0 1-.18.02h-1.46l-.03-.02a.07.07 0 0 1-.03-.03v-.05c.12-.28.16-.52.13-.73a31.35 31.35 0 0 0-.8-3.46c-.03-.1-.07-.1-.12-.01-.73 1.37-1.41 2.73-2.16 4.1a.85.85 0 0 1-.1.15c-.07.07-.12.07-.17-.01a16.1 16.1 0 0 1-.96-1.74l-.48-.96c-.3-.55-.56-1.11-.84-1.65-.06-.13-.1-.12-.14 0ZM19.53 23c.25 0 .29.07.17.27l-.12.15c-.1.1-.12.26-.12.39v3.02c-.03 1.42.03 3.27-1.57 3.89-.97.37-1.96.34-2.95.1-.86-.2-1.43-.69-1.7-1.46a4.28 4.28 0 0 1-.24-1.41v-4.07c0-.26-.05-.5-.24-.73a.07.07 0 0 1-.01-.08c0-.02.02-.03.03-.03l.04-.04h1.83c.06 0 .1.07.1.13.02.04 0 .07-.04.11-.13.12-.26.24-.27.41v3.84c0 1.2.31 2.07 1.56 2.32 1.25.24 1.98-.9 2-2v-4.15c0-.15-.15-.33-.24-.47a.12.12 0 0 1-.01-.07c0-.07.07-.13.15-.12h1.63ZM41.53 23.01c.23-.05.29.07.16.27l-.12.15c-.09.1-.11.26-.11.39v3.01c-.03 1.42.02 3.27-1.57 3.89a4.9 4.9 0 0 1-2.96.1c-.86-.2-1.42-.69-1.7-1.46a4.27 4.27 0 0 1-.23-1.41v-4.06c0-.26-.06-.5-.24-.73a.07.07 0 0 1 .02-.11c0-.01.02-.04.04-.04h1.82c.06 0 .1.07.11.13.01.04 0 .07-.04.11-.13.12-.26.23-.27.41v3.84c0 1.2.3 2.07 1.56 2.3 1.25.25 1.98-.9 2-1.98v-4.15c0-.16-.16-.33-.24-.47a.12.12 0 0 1-.02-.07c0-.07.08-.13.15-.12h1.64ZM31.73 27.12c0-.08-.03-.12-.11-.12h-3.4a.13.13 0 0 1-.13-.09v-.05c.05-.34.16-.52.34-.86h3.2c.04 0 .07-.06.07-.1 0-.74-.02-1.5-.06-2.27 0-.16-.16-.34-.14-.45.02-.1.08-.18.19-.18h1.54a.11.11 0 0 1 .1.05.1.1 0 0 1 0 .11c-.14.24-.33.39-.33.7v6.61c0 .15.08.24.21.3l.05.05a.1.1 0 0 1 .01.06c0 .07-.04.12-.11.12h-1.53l-.04-.01a.08.08 0 0 1-.04-.07l.01-.04c.09-.14.17-.23.17-.4v-3.36ZM22.4 24h-1.68c-.2 0-.26-.19-.2-.37l.1-.23c.07-.18.2-.39.4-.4h5c.19 0 .25.08.18.25-.05.12-.1.24-.18.36-.1.15-.28.38-.47.39h-1.74v6.27c0 .2.08.54.16.73h-1.74l-.03-.02c-.05-.02-.07-.05-.07-.09a.1.1 0 0 1 .04-.08c.24-.19.22-.53.23-.81v-6Z" fill="#828282"/><path d="M28.16 23.11c-.02.19-.16.34-.16.52v6.84c0 .15.01.28.13.39a.07.07 0 0 1 .02.05.07.07 0 0 1-.03.05 72.17 72.17 0 0 1-1.56.04c-.08 0-.13-.04-.15-.11-.01-.04 0-.08.04-.1.13-.1.2-.42.2-.54l-.04-6.22c0-.25.04-.48-.15-.7a.2.2 0 0 1 0-.26.2.2 0 0 1 .1-.06.32.32 0 0 1 .1-.01h1.43l.03.04.02.01a.08.08 0 0 1 .02.06Z" fill="#828282"/><path d="M8.74 25.72c-2.1 4-2.23 4.62-2.43 5.04a.3.3 0 0 1-.1.12c-.05.03-.1.12-.16.12H4.48c-.02 0-.03-.1-.04-.1a.07.07 0 0 1-.02-.05c0-.2.25-.64.35-.82.88-1.56 1.57-3.24 2.38-4.83.3-.58.6-1.15.88-1.73.37-.77 1.17-.5 1.49.13l3.3 7.3a.07.07 0 0 1-.04.1H11.14l-2.4-5.28Z" fill="#E92734"/><path d="M7.39 28.99c.82-.06 1.3.1 2.1.41.14.05.48.11 1.02.18.53.06 1.05.03 1.57-.1l.7-.25a.13.13 0 0 1 .13.01c.07.06.1.13.05.23-.06.12-.3.29-.7.51-.4.16-.8.27-1.19.31-.6 0-1.07-.04-1.42-.13a23.2 23.2 0 0 0-2.43-.46 5.46 5.46 0 0 0-1.73.32c-.1.03-.18.04-.27.04a.07.07 0 0 1-.06-.09l.02-.03c.4-.39.9-.67 1.48-.85.23-.08.48-.09.73-.1ZM4 32h9v1H4z" fill="#828282"/><path fill="#E92734" d="M14 32h38v1H14z"/></svg>