<svg width="56" height="56" viewBox="0 0 56 56" xmlns="http://www.w3.org/2000/svg"><path fill="#F0F3FA" d="M0 0h56v56H0z"/><path d="M25 11 8 28l17 17v-2.04L10.04 28 25 13.04V11Zm0 3.13L11.13 28 25 41.87V40.8L12.2 28 25 15.2v-1.07Zm6 1.07v-1.07L44.87 28 31 41.87V40.8L43.8 28 31 15.2Zm-6 1.2L13.4 28 25 39.6v-1.82L15.22 28 25 18.22v-1.83Zm6 1.82v-1.83L42.6 28 31 39.6v-1.82L40.78 28 31 18.22Zm0 24.74L45.96 28 31 13.04V11l17 17-17 17v-2.04Z" fill="#625E5D"/><path d="m21.5 28 6.5-6.5 6.5 6.5-6.5 6.5-6.5-6.5Z" fill="#DA251C"/></svg>