<svg width="56" height="56" viewBox="0 0 56 56" xmlns="http://www.w3.org/2000/svg"><path fill="#F0F3FA" d="M0 0h56v56H0z"/><path fill-rule="evenodd" d="M52 23H4v10h48V23Zm-3 8h2v-6h-2.5L47 29l-1.5-4H43v6h2v-4.04L46.35 31h1.28L49 26.96V31Zm-14 0h-5v-6h2v4.4h3V31Zm0 0 3.5-6 3.5 6h-7Zm-10.89-.04c.37.03.8.04 1.28.04h.23c.49 0 .91-.01 1.27-.04 1.17-.08 1.95-.6 2.06-1.79.03-.3.05-.68.05-1.1v-.14c0-.42-.02-.8-.05-1.1-.11-1.23-.94-1.72-2.06-1.79a16.1 16.1 0 0 0-1.27-.04h-.23c-.49 0-.91.01-1.28.04-1.19.08-1.93.55-2.07 1.79-.03.3-.04.68-.04 1.1v.14c0 .42.01.8.04 1.1.14 1.25.87 1.7 2.07 1.79ZM27 28.02c0 1.28-.2 1.42-1.43 1.42h-.13c-1.24 0-1.44-.13-1.44-1.42v-.07c0-1.28.2-1.42 1.44-1.42h.13c1.1 0 1.43.17 1.43 1.42v.07ZM18.3 28c.54 0 1.02-.02 1.02-.69v-.17c0-.64-.45-.68-1.02-.68H17V28h1.3Zm2.7 3h-2v-.56c0-.98-.23-1.09-1.06-1.09H17V31h-2v-6h3.88c1.26 0 2.12.42 2.12 1.84v.22c0 .83-.21 1.29-.73 1.52v.03c.66.19.73.79.73 1.41V31Zm-9 0h2v-6h-2v6Zm0 0h-1.71l-.41-1H7.1l-.4 1H5l2.58-6h1.81L12 31Zm-2.67-2.43-.84-2.16h-.03l-.83 2.16h1.7Z" fill="#0079BD"/><path d="m39.55 26.8-2.14.23 2.42.25-.28-.47Zm.34.58-2.86.26 3.18.3-.32-.56Zm.37.64-3.62.3 3.97.3-.35-.6Zm.4.7-4.11.29 4.47.32-.35-.62Zm.4.68.37.63-5.1-.33 4.74-.3Z" fill="#6ABDC5"/></svg>