<svg width="56" height="56" xmlns="http://www.w3.org/2000/svg"><path fill="#0D61AC" d="M0 0h56v56H0z"/><path d="M12 20a8 8 0 100 16h15.5v1a3 3 0 106 0v-1H44a8 8 0 100-16H12z" fill="#fff"/><path d="M14.5 28a6 6 0 016-6h.25A6.25 6.25 0 0127 28.25v4.25a1.5 1.5 0 01-3 0v-4.25A3.25 3.25 0 0020.75 25h-.25a3 3 0 100 6h1.459a1.5 1.5 0 010 3H20.5a6 6 0 01-6-6zm27.075 0a6 6 0 00-6-6h-.25a6.25 6.25 0 00-6.25 6.25v8.65a1.5 1.5 0 003 0v-8.65a3.25 3.25 0 013.25-3.25h.25a3 3 0 110 6h-1.46a1.5 1.5 0 000 3h1.46a6 6 0 006-6z" fill="#0D61AC"/></svg>