<svg width="56" height="56" viewBox="0 0 56 56" xmlns="http://www.w3.org/2000/svg"><path fill="#F0F3FA" d="M0 0h56v56H0z"/><path d="M32.64 39.07a11.96 11.96 0 0 1-9.26.01l4.37-16.31-2.52-1.36h-1.08l-7.37 10.84a12 12 0 1 1 22.46-.02L31.86 21.4H30.8l-2.51 1.36 4.36 16.3Z" fill="#DC2A26"/><path d="M14.69 36.88a16 16 0 1 1 26.67-.06l-.45-.44a15.2 15.2 0 0 0 2.6-8.52c0-8.49-6.95-15.37-15.51-15.37-8.56 0-15.5 6.88-15.5 15.37 0 3.17.97 6.12 2.63 8.57l-.44.45Z" fill="#141010"/><path d="M17.95 36.08a12.77 12.77 0 0 1-2.96-8.19C15 20.77 20.82 15 28 15 35.2 15 41 20.77 41 27.9c0 3.08-1.09 5.9-2.9 8.12l-.3-.28a12.38 12.38 0 0 0 2.8-7.85c0-6.9-5.64-12.5-12.6-12.5S15.4 21 15.4 27.9c0 3 1.06 5.75 2.83 7.9l-.28.29Z" fill="#141010"/><path d="m25.04 21.84-6.96 12.3-.44-.24 6.96-12.3.44.24ZM30.75 21.84l6.96 12.3.43-.24-6.96-12.3-.43.24ZM25.77 22.04l-.45-.32-.85 1.56.55.35.75-1.59ZM30.01 22.04l.45-.32.85 1.56-.55.35-.75-1.59ZM26.52 22.49l-.45-.32-.85 1.56.55.34.75-1.58ZM29.26 22.49l.45-.32.85 1.56-.55.34-.75-1.58ZM24.57 24.37l-.45-.32-.72 1.26.55.35.62-1.3ZM31.21 24.37l.45-.32.72 1.26-.54.35-.63-1.3ZM26.5 25.42l-.49-.25-.5 1.36.59.26.4-1.37ZM29.28 25.42l.5-.25.5 1.36-.6.26-.4-1.37ZM22.58 28.32l-.54-.36-.86 1.43.65.4.75-1.47ZM33.21 28.32l.53-.36.87 1.43-.66.4-.74-1.47ZM24.95 26.84l-.67-.43-.86 1.48.8.46.73-1.5ZM30.84 26.84l.66-.43.86 1.48-.8.46-.72-1.5ZM25.72 24.99l-.62-.37-.76 1.29.8.46.58-1.38ZM30.06 24.99l.63-.37.76 1.29-.8.46-.59-1.38ZM21.73 30.48l-.74-.44-.86 1.43.86.47.74-1.46ZM34.05 30.48l.74-.44.87 1.43-.87.47-.74-1.46ZM23.2 30.96l-.78-.38-.75 1.5.9.4.62-1.52ZM32.6 30.96l.77-.38.75 1.5-.9.4-.63-1.52ZM24.68 31.56l-.8-.32-.62 1.56.93.32.49-1.56ZM31.1 31.56l.81-.32.62 1.56-.93.32-.5-1.56ZM25.4 29.41l-.8-.31-.63 1.55.93.33.5-1.57ZM30.39 29.41l.8-.31.62 1.55-.92.33-.5-1.57ZM26.12 27.32l-.8-.3-.6 1.51.91.32.5-1.53ZM29.66 27.32l.8-.3.6 1.51-.9.32-.5-1.53ZM23.87 34.01l-.9-.36-.7 1.8 1.05.38.55-1.82ZM31.91 34.01l.9-.36.7 1.8-1.04.38L31.9 34ZM23.03 36.59l-.9-.37-.7 1.8 1.04.38.56-1.81ZM32.76 36.59l.9-.37.7 1.8-1.04.38-.56-1.81ZM22.33 33.3l-.95-.46-.9 1.84 1.07.48.78-1.86ZM33.46 33.3l.95-.46.9 1.84-1.08.48-.77-1.86ZM20.73 32.68l-.82-.47-1.06 1.7.94.5.94-1.73ZM35.06 32.68l.82-.47 1.05 1.7-.94.5-.93-1.73Z"/><circle cx="28" cy="34" r="2" fill="#FBF59F"/><path d="m17.04 37.76.44.47.6-.98-1.04.51Zm-1.7-.21 3.1-1.35.71.76-1.56 2.97-.7-.74.23-.37-.7-.74-.39.2-.68-.73Zm4.5 2.42.78.47-.16.25c-.07.11-.1.2-.1.27.01.06.06.12.14.17.08.05.16.06.22.03.07-.02.14-.11.23-.25l1.08-1.72.87.53-1.13 1.81c-.2.31-.43.5-.72.54-.28.05-.6-.03-.95-.24-.34-.21-.55-.46-.61-.74-.06-.27.01-.59.23-.94l.12-.17v-.01Zm4.6 3.52-.92-.17.61-3.11 1.23.24.13 1.63v.15l.01.33a11.6 11.6 0 0 1 .2-.43l.74-1.47 1.23.23-.61 3.11-.91-.18.3-1.52.06-.27.06-.28-.23.5-.01.03-.69 1.45-.7-.14-.1-1.56a5.1 5.1 0 0 1-.01-.61l-.06.34-.04.23-.3 1.5Zm5.11.38-.61-3.1 2.5-.5.15.75-1.5.29.08.41 1.27-.24.14.71-1.27.25.1.48 1.56-.3.15.75-2.57.5Zm4.74-3.36.4-.23c.14-.08.23-.16.26-.23s.02-.15-.04-.24c-.06-.1-.12-.15-.2-.15-.07-.01-.19.03-.35.12l-.38.22.3.51Zm.05 2.07-1.62-2.73 1.32-.77c.41-.24.74-.35.99-.33.25.02.45.17.62.45.1.17.15.32.14.48 0 .15-.07.3-.18.45a.62.62 0 0 1 .45 0c.12.05.24.17.35.35l.25.37c.07.11.13.16.18.13l.06.1-.89.52a3.01 3.01 0 0 1-.22-.25l-.16-.28c-.08-.14-.17-.22-.26-.24-.09-.03-.2 0-.34.08l-.38.22.56.94-.87.5Zm4.18-4.45.44-.47-1.03-.51.59.98Zm-.1 1.7-1.57-2.98.7-.75 3.1 1.34-.69.74-.39-.2-.69.74.22.37-.68.74Z" fill="#2B2B2A"/></svg>