<svg width="56" height="56" viewBox="0 0 56 56" xmlns="http://www.w3.org/2000/svg"><path fill="#F0F3FA" d="M0 0h56v56H0z"/><path d="M34.42 16.25a20.41 20.41 0 0 0-8.13 6.03 25.75 25.75 0 0 0-4.83 9.85 41.66 41.66 0 0 1-1.14 3.76 7.09 7.09 0 0 1-2.23 3.38c-1.98 1.45-4.13.58-5.57-1.22a6.91 6.91 0 0 1-1.5-4.03c-.06-.95.08-2.19.33-3.13 1.03-3.84 3.52-7.25 6.48-9.85a20.65 20.65 0 0 1 5.93-3.7 29.36 29.36 0 0 1 12.89-2.29c.46.03.47.12.03.27-.8.27-1.62.65-2.26.93Z" fill="#1F6137"/><path d="M38.74 18.68c-1.23-1.34-2.89-1.59-4.65-1.4a.09.09 0 0 1-.07-.02l-.02-.03v-.03c0-.04.03-.08.1-.1 2.85-1.32 6.14-1.69 8.72.24 1.35 1 3.04 3.35 1.68 4.94-.47.55-1.1.78-1.9.7-.9-.08-1.6-.56-2.07-1.44-.8-1.47-1.4-2.42-1.8-2.86Z" fill="#ABC34A"/><path d="M28.46 21.38c-.57 2.5-.43 5.09.44 7.76.2.62.53 1.55 1 2.8.34.92.58 1.66.7 2.24.38 1.83.8 3.62-.32 4.93-1.27 1.48-3.42.98-4.46-.52A11.13 11.13 0 0 1 24 32.72c-.05-3.1.79-6 2.52-8.74.91-1.45 1.49-2.35 1.72-2.7.25-.4.33-.37.22.1ZM22.5 37a1.5 1.5 0 1 0 0-3 1.5 1.5 0 0 0 0 3Z" fill="#1F6137"/></svg>