<svg width="56" height="56" viewBox="0 0 56 56" xmlns="http://www.w3.org/2000/svg"><path fill="#F0F3FA" d="M0 0h56v56H0z"/><path d="M40 15.13v1.83c0 .21.01.4.04.57.03.16.08.32.14.47h-1.02c.06-.15.11-.3.14-.47.03-.17.04-.36.04-.57v-2.54L39 14h1c0 .1.06.21.18.35l.01.02 1.33 1.59 1.34-1.6.15-.2.05-.16H44a.94.94 0 0 0-.3.41c-.07.18-.04.38-.04.6v1.95c0 .21.02.4.05.57.03.16.07.32.14.47h-1.03a3.11 3.11 0 0 0 .18-1.04v-1.82l-1.5 1.65-1.5-1.66ZM38.18 14c-.06.15-.1.31-.14.48-.03.17-.04.36-.04.56v1.92a2.33 2.33 0 0 0 .18 1.04H37a3.18 3.18 0 0 0 .18-1.04v-1.92A3.16 3.16 0 0 0 37 14h1.18ZM35.29 17.25A3.05 3.05 0 0 0 36 18h-1.33a.59.59 0 0 0 .05-.22.61.61 0 0 0-.04-.2.81.81 0 0 0-.1-.2l-.6-.86-.46.67c-.1.15-.2.29-.25.42a.93.93 0 0 0-.08.35V18H32a4.71 4.71 0 0 0 .95-1.05l.68-.98-.83-1.19a4 4 0 0 0-.7-.78h1.21a.5.5 0 0 0-.01.1c0 .07.02.15.07.26.04.11.1.23.18.34l.47.7.51-.76c.07-.1.12-.2.15-.3a.9.9 0 0 0 .05-.3V14h1.06a12.17 12.17 0 0 0-.68.86l-.72 1.08.9 1.3ZM28 18a2.66 2.66 0 0 0 .22-1.04v-1.92A2.64 2.64 0 0 0 28 14h2.75l-.4.65a2.02 2.02 0 0 0-.56-.19 3.81 3.81 0 0 0-.73-.06H29V16h1.54l-.46.58c-.12-.05-.27-.1-.45-.13a4.94 4.94 0 0 0-.63-.07v1.24a2.73 2.73 0 0 1 .2 0 5.8 5.8 0 0 0 1.8-.28l-.38.66H28ZM24.94 17.75a5.86 5.86 0 0 1-1.54.25 2.7 2.7 0 0 1-1.75-.52 1.73 1.73 0 0 1-.65-1.42 1.94 1.94 0 0 1 .86-1.63c.2-.14.43-.25.7-.32a3.56 3.56 0 0 1 1.49-.07c.2.02.4.05.6.1v.67a2.71 2.71 0 0 0-1.31-.34c-.5 0-.9.13-1.18.4-.28.26-.42.63-.42 1.1 0 .46.15.83.46 1.1.3.29.71.43 1.2.43a3 3 0 0 0 .79-.1v-.53c0-.24-.03-.43-.07-.55a.81.81 0 0 0-.22-.34H25a.72.72 0 0 0-.11.28 2.1 2.1 0 0 0-.04.44v.48c0 .12 0 .22.02.32l.07.25ZM18.21 14c-.07.15-.12.31-.16.48-.03.17-.05.36-.05.56v.71l1.26-1.3c.07-.08.13-.15.17-.22a.38.38 0 0 0 .06-.19V14h1.3a4.86 4.86 0 0 0-.85.65l-1.16 1.13 1.39 1.46A8.14 8.14 0 0 0 21 18h-1.3v-.04a.61.61 0 0 0-.08-.28c-.05-.1-.12-.2-.22-.3L18 15.87v1.09a2.1 2.1 0 0 0 .21 1.04H17c.07-.15.12-.31.16-.48.03-.17.05-.36.05-.56v-1.92A2.72 2.72 0 0 0 17 14h1.21ZM13.5 16.33h.97l-.46-1.1-.5 1.1Zm-.2.46-.24.52c-.06.11-.1.22-.12.31-.03.1-.04.18-.04.27V18H12a4.72 4.72 0 0 0 .57-.96L14.05 14l1.43 3.16.2.38.32.46h-.98a1.06 1.06 0 0 0 0-.36 1.52 1.52 0 0 0-.1-.24l-.25-.61H13.3Z" fill="#772526"/><path d="M9.04 30.58c.76-9.45 13.59-11.97 20.99-11.53 6.51.38 17.11 4.22 16.97 12.5C46.84 40.73 35.18 44 27.99 44 20.2 44 8.24 40.43 9.04 30.58Z" fill="#161717"/><path d="M32.69 20.62c.05.1.03.13-.08.11a.8.8 0 0 1-.42-.2c-.13-.12-.14-.32-.24-.45a.2.2 0 0 0-.1-.07c-.15-.05-.27 0-.37.14-.03.03-.06.04-.1.03l-1.75-.65c-.12-.05-.12-.07 0-.08.24 0 .55-.03.82 0l1.12.09c.48.02.91.14 1.28.32.1.05.17.14.21.28.02.05 0 .08-.05.09-.26.04-.51.06-.32.4ZM31.2 20.4c.15.05.27.18.32.35.1.32.33.54.69.67.06.02.06.05.01.1l-.47.39a.15.15 0 0 1-.12.03 1.98 1.98 0 0 1-.72-.23c-.8-.52-1.33-1.27-1.98-1.95 0 0-.12-.17-.03-.16.26.05.52.13.78.25.09.03.2.11.33.24.33.3.79.2 1.2.32ZM27.4 20.7c.25-.16.15-.43-.04-.59a.09.09 0 0 1-.02-.1c0-.03.3-.51.35-.24.08.51.12.84.12.99 0 .94-.01 1.79-.06 2.54 0 .03-.02.06-.04.08a.1.1 0 0 1-.07.03 24.4 24.4 0 0 1-2.81-.2c-.06-.01-.09-.07-.07-.13.11-.23.25-.45.43-.65a.16.16 0 0 1 .1-.05c.56-.04.99-.3 1.28-.75l.46-.7a.24.24 0 0 1 .1-.08l.27-.15ZM28.54 20.6c-.03.2 0 .37.11.5.2.24.54.1.84.02.29-.09.53.32.7.49.08.08.07.14-.04.18l-.65.23a.41.41 0 0 0-.25.26c-.12.36-.36.68-.73.95a.18.18 0 0 1-.27-.1 3.44 3.44 0 0 1-.08-.64 374.18 374.18 0 0 1 .01-2.74.14.14 0 0 1 .2-.04c.25.19.48.4.68.65.1.13.08.2-.1.19l-.33-.02c-.05 0-.08.02-.09.07ZM34.92 20.18l1.77.53c.1.04.34.17.2.3-.47.45-1 .8-1.57 1.06-.18.09-.28.13-.46.04-.49-.22-.94-.49-1.37-.82-.01 0-.05-.07.02-.08.16-.03.34-.03.53 0 .2.01.31.18.55.11a.08.08 0 0 0 .06-.07c.01-.15.15-.55.03-.68a.5.5 0 0 0-.37-.16l-.2.01c-.13.03.3-.38.81-.24ZM23.29 20.08l.5-.04a.1.1 0 0 1 .07.03c.02.01.04.04.04.06l.06.3c.01.06-.01.1-.05.13l-1.1.6c-.1.06-.2-.06-.14-.15l.53-.88a.11.11 0 0 1 .09-.05ZM22.83 22.55l.23-.35c.22-.33.66-.45.9-.8.15-.21.34-.43.59-.67.12-.11.19-.28.24-.43a.1.1 0 0 1 .09-.07 6.78 6.78 0 0 1 1.42-.06c.1.01.15.14.09.22l-1.2 1.5c-.1.12-.24.2-.4.22-.69.1-1.33.35-1.9.54-.11.04-.13 0-.06-.1ZM18.44 22.05c.31-.04.54-.28.5-.55-.02-.27-.3-.45-.6-.41-.32.04-.54.28-.51.55.03.26.3.45.61.41ZM43.96 25.35c-1.14.37-2.1.64-2.9.82l-2.15.48a.18.18 0 0 1-.12-.02.19.19 0 0 1-.08-.08 8.75 8.75 0 0 0-1.47-2.19c-.64-.68-1.3-1.27-1.96-1.76a.05.05 0 0 1 0-.08l1.86-1.19c.13-.08.17-.17.27-.24a.13.13 0 0 1 .12-.02c1 .33 1.83.71 2.52 1.13 1.25.75 2.2 1.41 2.88 2 .33.27.67.6 1.03.99.03.03.06.13 0 .16ZM22.27 22.52c0 .04-.04.06-.07.06-.19 0-.42-.05-.7-.15-.06-.02-.06-.05 0-.1l1.43-.94.04-.02c.06 0 .12.07.07.12l-.52.54c-.14.13-.2.3-.25.5Z" fill="#772526"/><path d="m19.7 22.42.45.1c.04 0 .06.05.04.09-.15.37-.36.69-.62.94a.14.14 0 0 1-.16.04 2.31 2.31 0 0 0-1.95.05c-.04.02-.06.06-.05.1.01.07.06.1.16.11.13 0 .4-.04.53.04.07.04.03.16-.03.2a7.47 7.47 0 0 0-1.65.24c-.4.1-.78.13-1.13.16-.47.04-.87.68-1.35.82-.22.07-.45.17-.7.3a.22.22 0 0 1-.2.01l-.86-.4a.1.1 0 0 1-.04-.13c.1-.14.22-.27.35-.4a14.1 14.1 0 0 1 2.42-1.88c.07-.05.22-.1.46-.16.27-.08.3-.3.5-.42.49-.3.96-.55 1.44-.74.24-.1.35.38.19.5l-.37.3c-.13.14-.13.29-.01.47a.1.1 0 0 0 .1.04c.25-.02.43-.1.54-.2.19-.18.21-.26.45-.27.42-.02.79-.17 1.12-.46a.17.17 0 0 1 .1-.04c.15 0 .26.06.34.18l.02.06-.01.06-.11.2c-.02.03 0 .08.04.09ZM32 22.8a.14.14 0 0 0 .1 0 .14.14 0 0 0 .08-.1c.03-.1.09-.2.17-.3.33-.4.53-.67.61-.79a.18.18 0 0 1 .24-.05l1.24.73a.08.08 0 0 1 .04.07.08.08 0 0 1-.05.07c-.64.23-1.3.43-1.95.62-.1.03-.29.06-.58.1-.16.01-.26-.02-.32-.1a1.4 1.4 0 0 1-.18-.47.04.04 0 0 1 .03-.03h.02l.54.25ZM30.63 22.61a.12.12 0 0 0-.05-.06.12.12 0 0 0-.07-.02c-.3.01-.53.26-.7.75a.3.3 0 0 1-.25.22h-.33c-.12-.02-.14-.08-.07-.17.4-.53.62-.94 1.07-1.16a.36.36 0 0 1 .41.07c.22.21.4.48.51.82.06.16-.35.2-.42.12-.02-.03-.03-.09-.04-.17 0-.15-.02-.28-.06-.4ZM34.76 25.75c.08-.06.07-.2-.03-.23l-.58-.22a.16.16 0 0 1-.09-.07l-.2-.36a.13.13 0 0 0-.07-.06.13.13 0 0 0-.1 0c-.27.15-.56.2-.87.18-.1 0-.18-.07-.24-.2l-.6-1.15c-.07-.1 0-.24.12-.26.88-.13 1.74-.36 2.59-.69a.3.3 0 0 1 .3.04c1.4 1 2.56 2.3 3.46 3.89.01.03 0 .07-.04.08-1.34.23-2.67.4-4 .52a.12.12 0 0 1-.13-.13c.02-.27.1-.58-.09-.72-.16-.12-.4-.1-.73.08-.08.04-.15.02-.2-.06-.06-.13-.27-.43 0-.49.29-.05.59-.05.9.01.22.04.46-.06.6-.16ZM20.6 23.37c0-.4-.01-.5.37-.57.3-.06.55-.06.72 0 .75.3 1.51.51 2.29.65.17.03-.9 2.16-1 2.38-.18.42-.33.86-.45 1.32a.22.22 0 0 1-.23.16l-4.72-.56a.09.09 0 0 1-.06-.12c.32-.56.7-1.12 1.15-1.68.18-.24.3-.43.6-.54.2-.08.42.17.56.27.15.1.43-.09.53-.17.23-.17.23-.89.23-1.14ZM26.4 24.63a.09.09 0 0 0 0 .13l.04.02c.17.04.41.06.56.22a9.95 9.95 0 0 1 .53.61v.03l-.02.02h-.8a.32.32 0 0 0-.2.07c-.05.05-.1.1-.11.18a2 2 0 0 0-.08.54c0 .17.11.32.33.47.05.03.05.06 0 .1l-.56.37a.23.23 0 0 1-.13.04 53.05 53.05 0 0 1-3.03-.1c-.06 0-.09-.04-.07-.1a14.12 14.12 0 0 1 1.67-3.68 17.66 17.66 0 0 0 2.33.15c.1 0 .16.06.17.17 0 .07 0 .15-.05.23a.5.5 0 0 1-.14.19l-.43.34ZM31.35 26.01a5.53 5.53 0 0 1-.5-.33c-.26-.18-.82-.45-1.08-.15a.13.13 0 0 1-.1.05c-.43.01-.83.1-1.2.25-.12.05-.16.01-.1-.11l.34-.8c.05-.12.14-.2.27-.23.36-.09 1.75-.06 1.92-.4.12-.22.27-.44.45-.65a.08.08 0 0 1 .12 0c.53.68 1.02 1.28.7 2.22a.12.12 0 0 1-.1.08c-.04.01-.67.1-.72.07ZM18.4 24.65c-.1.23-.25.45-.43.68-.23.27-.38.48-.46.62a4.7 4.7 0 0 1-.39.62.1.1 0 0 1-.1.03c-.34-.07-3.42-.76-3.3-.85a.95.95 0 0 1 .48-.24c.37-.05.86-.06 1.1-.3.17-.18.28-.28.33-.3a3.7 3.7 0 0 1 1.07-.28.8.8 0 0 0 .46-.2.2.2 0 0 1 .23-.02l.3.17c.04.03.09.04.14.03l.52-.04h.02l.02.03a.06.06 0 0 1 0 .05ZM43.82 28.52c.02.2.28 1.15-.08 1.21-.12.02-.28-.19-.35-.27-.47-.53-.93-1.14-1.36-1.85a.2.2 0 0 0-.08-.08c-.27-.13-.8-.13-1.12-.23a1.97 1.97 0 0 0-1.38.05c-.11.04-.19 0-.22-.1l-.07-.2c-.04-.11 0-.18.12-.2a39.5 39.5 0 0 0 3.86-.97c.32-.1.63-.2.93-.34a.17.17 0 0 1 .2.05c.28.3.5.63.7.96.02.04.02.08 0 .12-.09.32-.35.7-.5 1.01-.1.25-.68.6-.65.84ZM13.77 26.57a.56.56 0 0 0-.24-.08c-.31-.03.02-.43.47-.3.53.17 1.29.35 2.26.53.24.04.42.08.55.12.08.02.11.1.08.18-.29.58-1.04 1.73-.92 2.44.02.12-.07.22-.18.2a21 21 0 0 1-.86-.1c-.23-.03-.4-.2-.59-.25a2.27 2.27 0 0 0-1.85.32.14.14 0 0 1-.12.02 2.17 2.17 0 0 0-.85-.03c-.05.01-.1 0-.14-.01a.28.28 0 0 1-.14-.37l.25-.58c.07-.17.02-.28-.15-.34a4.03 4.03 0 0 1-.66-.33c-.04-.03-.05-.06-.01-.1.9-.92-.06-.91.2-1.25.12-.17.24-.33.36-.46.37-.46.64-.81 1.23-.4.11.07.15.18.12.32-.23.89 4.15 2.33 1.2.47ZM31.97 27.02c-.18-.05-.36.02-.55.2a.16.16 0 0 1-.11.05c-.19 0-.43-.04-.72-.14a.25.25 0 0 0-.12 0c-.18.03-.32 0-.42-.07a.11.11 0 0 1-.04-.12c.02-.09.07-.13.16-.14.31-.02.54-.1.7-.24a.33.33 0 0 1 .42-.03c.21.15.47.27.78.38.18.05.53-.1.75-.13a.2.2 0 0 1 .2.1l.07.12c.04.06.02.09-.05.1-.33.05-.7.02-1.07-.08ZM29.94 27.3l.16.07c.13.06.13.09-.02.1a17.8 17.8 0 0 1-1.92-.07l-.02-.04c-.04-.28.08-.43.36-.45l.87-.04a.22.22 0 0 1 .2.11c.08.13.2.24.37.31ZM17.85 30.7c-.4-.18-.83-.3-1.3-.36a.3.3 0 0 1-.21-.13.3.3 0 0 1-.05-.23 11.55 11.55 0 0 1 .98-2.96.1.1 0 0 1 .07-.01l4.98.58a.05.05 0 0 1 .03.02.05.05 0 0 1 .01.04c-.25 1.59-.44 2.43-.4 3.61a.12.12 0 0 1-.03.09.11.11 0 0 1-.08.03c-1.05-.02-2.08 0-3.12.04a3.7 3.7 0 0 1-.49-.07c-.04 0-.06-.03-.07-.08-.05-.26-.04-.44-.32-.57Z" fill="#772526"/><path d="M44.19 28.9c-.08-.2-.04-.3.13-.45.32-.27.56-.64.7-1.09a.3.3 0 0 1 .22-.2c.04-.01.1.04.16.14a5.55 5.55 0 0 1 .95 2.22c.1.5.2 1.01.28 1.55.02.11.02.2.01.28 0 .03-.04.06-.07.06H40.4c-.16 0-.23-.08-.24-.24a9.4 9.4 0 0 0-.69-3.33.16.16 0 0 1 .1-.22c.26-.08.64-.16.92-.04.35.14 1.16.3 1.4.57.23.26.5.61.83 1.07.2.27.46.54.8.83.2.16.34.1.54 0a.16.16 0 0 1 .21.08c.76 1.35-.02-1.06-.08-1.23ZM38.14 27.98c.3-.1.46-.12.72-.04a.09.09 0 0 1 .06.06.1.1 0 0 1-.01.09l-.64.69c-.16.16-.37.29-.64.37-.15.05-.43.16-.83.33a.26.26 0 0 1-.19 0 .27.27 0 0 1-.15-.12c-.2-.36-.43-.64-.7-.84a22.26 22.26 0 0 1-1.15-.93c-.02-.06.02-.13.08-.13.58-.07 1.1-.1 1.58-.1.75 0 1.04.87 1.87.62ZM24.6 29.71c0 .06.02.1.05.15.41.47.9.84 1.46 1.1.06.04.16.05.33.05l1.23.03c.22 0 .22.36 0 .37-.54.03-.92.04-1.15.04-1.4-.04-2.81-.05-4.22-.05a.09.09 0 0 1-.1-.1c.07-1.18.24-2.44.5-3.59.02-.06.08-.1.14-.1.21.03 2.74-.06 2.46.3-.22.3-.51.51-.58.9-.07.38-.1.68-.12.9ZM28.3 30.65a.06.06 0 0 1-.05-.04c-.1-.8-.13-1.7-.08-2.76 0-.05.06-.1.11-.1 1.1.03 2.16.03 3.2.01.2 0 .67-.05 1.4-.15.12-.02.2 0 .25.04.07.05.11.13.14.25.24 1.1.39 2.23.44 3.4 0 .06-.03.09-.09.09H30.2l-.08-.02c-.17-.1-.03-.3-.05-.44 0-.06-.03-.09-.08-.1-.46-.1-1.48-.13-1.7-.18Z" fill="#772526"/><path d="M27.79 30.6c0 .08-.04.14-.1.16a.16.16 0 0 1-.07.02h-.49c-.83 0-2.14-.42-2.15-1.47v-.06c0-1.05 1.31-1.48 2.14-1.48h.5c.08 0 .15.07.16.16v2.68ZM36.65 30.16c.1.02.2.01.3-.03.2-.1.42-.14.65-.14a.15.15 0 0 1 .15.13v.07a.9.9 0 0 1-.31.52 4 4 0 0 1-1.02.55c-.3.12-.67.17-1.11.15h-1.19c-.04 0-.07-.02-.07-.07-.02-.36-.04-.98-.12-1.46a565.79 565.79 0 0 1-.3-2.13h.04c.53.27 1.01.83 1.39 1.29.08.1.33.28.74.54.2.12.34.22.4.3.14.15.28.24.45.28Z" fill="#772526"/><path d="M37.29 29.65c.38-.21.75-.39 1.1-.53.34-.14.6-.3.82-.56.03-.03.05-.02.07.01a5.94 5.94 0 0 1 .5 2.8l-.02.01H37.1c-.04 0-.04-.01-.01-.04.13-.13.28-.25.43-.36.29-.2.51-.56.66-1.05.05-.15 0-.24-.16-.27-.2-.04-.54.04-.72.04-.06 0-.06-.02-.01-.05ZM11.67 30.26l.26-.17h.03a.04.04 0 0 1 .04.01v.03c0 .2 0 .33-.02.37l-.3.72a.23.23 0 0 1-.07.1.22.22 0 0 1-.12.04l-1.97.07a.15.15 0 0 1-.11-.05.16.16 0 0 1-.05-.12c0-.45.07-.94.17-1.46.07-.33.15-.6.25-.8a.18.18 0 0 1 .15-.11.17.17 0 0 1 .16.09l.25.44c.15.35.7.67 1.03.85a.29.29 0 0 0 .3 0ZM13.4 29.95c.09.08.21.12.36.12a.1.1 0 0 0 .1-.07c.08-.15.15-.22.33-.19.35.08.76.14 1.2.2.07 0 .16.07.27.18.07.07.1.16.12.28.01.29 0 .54-.04.76 0 .04-.02.07-.05.1a.17.17 0 0 1-.1.04 30.91 30.91 0 0 1-3.5 0 .06.06 0 0 1-.02-.03.07.07 0 0 1 .02-.07c.24-.28.35-.6.33-.99-.01-.32.48-.48.85-.66.04-.03.08-.01.1.04v.17a.13.13 0 0 0 .03.12ZM17.71 31.43l-1.52-.07a.11.11 0 0 1-.08-.04.12.12 0 0 1-.02-.08l.04-.53a.12.12 0 0 1 .05-.08.11.11 0 0 1 .09-.02l1.3.29a.11.11 0 0 1 .07.05l.17.3a.12.12 0 0 1-.04.17.11.11 0 0 1-.06 0ZM28.16 31.32l.02-.38c0-.03.02-.06.04-.08a.1.1 0 0 1 .07-.03c.51 0 .95.13 1.3.39.08.06.07.1-.02.11-.4.07-.84.1-1.32.09-.06 0-.09-.04-.09-.1ZM14.22 34.78l.6 1.79h.01a.03.03 0 0 1-.01.03h-.01l-2.92.86a.21.21 0 0 1-.23-.07 11.79 11.79 0 0 1-1.73-2.8 6.93 6.93 0 0 1-.54-2.76c0-.05.02-.1.05-.13a.18.18 0 0 1 .13-.06c.66-.02 1.21 0 1.66.05.05 0 .07.03.05.08-.09.25-.12.48-.1.68 0 .15.1.3.28.48l1.16 1.14c.43.42.94.64 1.54.66l.04.01.02.04ZM21.3 32.31c-.08-.14-.17-.23-.26-.26a6.63 6.63 0 0 0-1.46-.3c-.03-.01-.04-.02-.03-.05 0-.02.01-.03.03-.03.72-.04 1.47-.05 2.24-.02.08 0 .12.04.12.12l.15 1.8a10 10 0 0 0 .34 1.83l-.02.05a.12.12 0 0 1-.1.05l-2.8.23c-.16.01-.24-.07-.24-.24v-.1c0-.17.07-.25.23-.27.16-.02.34-.05.55-.1.33-.08.5-.3.5-.66l.02-.5c.04-.63.41-.76.74-1.23.06-.09.06-.2-.01-.32ZM34.38 34.75l-.6.3c-.02.01-.03 0-.03-.01.02-.49.04-.8.06-.94.15-.94.23-1.72.26-2.33 0-.03.02-.05.05-.05l1.58-.13a.07.07 0 0 1 .07.04.08.08 0 0 1 0 .08c-.12.16-.19.34-.21.53-.04.3.11.92.01 1.37a.17.17 0 0 1-.07.1c-.28.2-.7.2-.9.26a.18.18 0 0 0-.13.15l-.07.59v.02l-.02.02Z" fill="#772526"/><path d="M36.03 33.54c0-.29-.03-.62-.1-.99-.05-.19-.04-.33 0-.42.21-.42.92-.47 1.35-.48 1.04-.01 1.85-.02 2.43-.01.07 0 .1.03.1.11A11.29 11.29 0 0 1 38.74 36a.14.14 0 0 1-.05.06.13.13 0 0 1-.09.02 62.76 62.76 0 0 0-4.56-.56.04.04 0 0 1 0-.04v-.02l.5-.43c.23-.17.26-.34.24-.6 0-.04 0-.09.03-.12a.18.18 0 0 1 .1-.08l.84-.25a.46.46 0 0 0 .28-.43ZM15.2 36.39c-.08-.15-.18-.35-.2-.48-.1-.4-.21-.78-.36-1.13-.15-.34-.66-.36-1.18-.5-.7-.16-1.22-1.09-1.73-1.57a.4.4 0 0 1-.12-.38l.1-.48c.01-.05.04-.1.08-.13a.22.22 0 0 1 .14-.05h3.69c.05 0 .1.02.14.06.05.03.07.08.08.14.12.9.15 1.91.45 2.72.19.51.4 1 .64 1.47a.07.07 0 0 1-.05.1l-1.57.29c-.05 0-.1-.01-.12-.06ZM18.9 35.15a.77.77 0 0 0 .06.54.1.1 0 0 1-.08.13c-.5.02-1.02.1-1.53.25-.04 0-.07 0-.1-.05l-.48-1.17c-.4-1-.62-2.05-.65-3.14 0-.03.01-.04.04-.04 1.08-.03 2.2.26 3.24.39.48.06.95.06 1.4.26.02 0 .03.02.05.03a.15.15 0 0 1 0 .18c-.22.33-.53.63-.56 1.15-.02.47-.04.84-.49 1.02-.23.09-.7.18-.86.39a.16.16 0 0 0-.03.06ZM27.75 31.68c.16 0 .04.46.04.54.04 1.03.06 1.98.05 2.85 0 .11-.06.17-.17.17l-4.8.16a.13.13 0 0 1-.14-.1 19.18 19.18 0 0 1-.48-3.52c0-.07.03-.1.1-.1h5.4ZM30.12 33.93a3.03 3.03 0 0 1 .55 1.25.06.06 0 0 1-.03.04h-2.32c-.11 0-.17-.05-.17-.16v-3.3c0-.04.02-.06.06-.07a2.8 2.8 0 0 1 1.24.07c.36.1.61.4.84.67.3.38 0 .83-.2 1.24a.25.25 0 0 0 .03.26Z" fill="#772526"/><path d="M30.83 32.83c.1-.32-.45-.8-.73-1.07-.04-.04-.03-.07.02-.08.13-.03.3-.05.5-.04a212.6 212.6 0 0 0 3.11.07c.02.01.03.04.03.06 0 .15 0 .32-.02.5-.1.85-.24 1.83-.4 2.95 0 .05-.03.1-.07.14a.22.22 0 0 1-.16.05l-2.01-.1c-.07 0-.1-.04-.11-.1-.03-.54-.2-.97-.53-1.31a.24.24 0 0 1-.03-.3c.19-.28.32-.54.4-.77ZM39.04 36.08a9.7 9.7 0 0 0 1.2-4.4.06.06 0 0 1 .05-.02h6.26c.07 0 .1.03.09.1-.06.58-.12 1.16-.28 1.71a11.4 11.4 0 0 1-2.07 4 .11.11 0 0 1-.12.03 36.3 36.3 0 0 0-5.1-1.36c-.03 0-.04-.04-.03-.06ZM23.08 36.55a12.48 12.48 0 0 1-.22-.72.1.1 0 0 1 .04-.08 77.92 77.92 0 0 1 4.81-.18c.04 0 .07.02.1.04.02.03.04.06.04.1v3.42c0 .04-.02.08-.04.1a.15.15 0 0 1-.1.05 37.1 37.1 0 0 0-3.11.24c-.05 0-.08-.01-.11-.04a17.45 17.45 0 0 1-1.4-2.93ZM30.95 35.77c.07.27.18.44.47.44a14.8 14.8 0 0 0 1.44-.05.07.07 0 0 1 .04.06v.04c-.26.72-.5 1.4-.76 2.05a9.35 9.35 0 0 1-.64 1.22.11.11 0 0 1-.07 0c-1-.17-1.83-.19-3.2-.26a.08.08 0 0 1-.05-.02.08.08 0 0 1-.03-.06v-3.5a.14.14 0 0 1 .04-.1.13.13 0 0 1 .1-.04c.55.02 1.3.04 2.28.05.14 0 .24.03.3.07.04.02.07.05.08.1Z" fill="#772526"/><path d="m32.77 35.7-1.3-.03a.08.08 0 0 0-.1.09c0 .05.04.1.1.1l1.3.02c.04 0 .08-.03.08-.08a.09.09 0 0 0-.08-.1ZM18.74 36.82c.17-.19.28-.4.35-.65 0-.03.02-.05.04-.07a44.91 44.91 0 0 1 3.24-.33c.07 0 .12.04.15.11a21.42 21.42 0 0 0 1.58 3.7v.03l-.03.03h-.03a10.76 10.76 0 0 0-2.81.75.27.27 0 0 1-.11-.03c-.38-.19-.63-.4-.9-.77a2.9 2.9 0 0 0-.4-.5 5.53 5.53 0 0 1-1.45-1.36.12.12 0 0 1-.01-.12c.05-.12.1-.27.13-.44.02-.13.14-.23.25-.35ZM31.96 39.55 33.5 36a.34.34 0 0 1 .24-.19c.11-.02.25-.03.43-.01a80.97 80.97 0 0 1 4.24.52.12.12 0 0 1 .05.1l-.02.06a13.42 13.42 0 0 1-3.61 3.93 11.8 11.8 0 0 0-2.86-.81.06.06 0 0 1 0-.05ZM17.49 37.96a.13.13 0 0 0-.02.14c.13.25.22.53.27.84l.03.06.35.3c.1.07.15.18.16.3v.07c.01.12-.03.15-.13.1a8.98 8.98 0 0 0-.54-.26.95.95 0 0 1-.4-.28c-.11-.16-.23-.38-.42-.5-.21-.15-.6-.27-.71-.51a30.06 30.06 0 0 0-.65-1.35.15.15 0 0 1 .1-.15c.46-.13.95-.23 1.5-.29.07 0 .11.02.15.07l.55.88a.26.26 0 0 1-.02.3l-.22.28Z" fill="#772526"/><path d="M37.28 41.87a7.88 7.88 0 0 0-1.93-1.26c-.13-.06-.14-.13-.02-.22.54-.4.92-.7 1.15-.94.88-.9 1.67-1.8 2.3-2.91a.19.19 0 0 1 .2-.1c1.24.2 2.38.44 3.53.82.57.18 1.03.32 1.38.4.08.02.11.12.06.18-.57.63-1.14 1.16-1.7 1.58a19.1 19.1 0 0 1-4.4 2.5c-.2.09-.4.1-.57-.05ZM19.67 40.38a.18.18 0 0 0 .06-.19.18.18 0 0 0-.05-.08.18.18 0 0 0-.09-.05c-.38-.07-.69-.21-.92-.43a.22.22 0 0 1-.07-.12.9.9 0 0 0-.38-.6.17.17 0 0 1-.07-.11c-.07-.3-.1-.5-.1-.58 0-.23.09-.25.26-.06.58.68 1.2 1.32 1.83 1.91.15.14.37.25.53.4a.08.08 0 0 1 .02.08.08.08 0 0 1-.04.05c-.47.22-.9.47-1.32.75-.29.2-.47.41-.7.64a.16.16 0 0 1-.16.04 17.18 17.18 0 0 1-6.48-4.2.08.08 0 0 1 .01-.06l.03-.02c.27-.14.53-.24.78-.3l1.99-.57a.12.12 0 0 1 .14.06c.3.58.67 1.16 1.1 1.74.1.13.28.26.52.4.04.01.07.04.09.07.1.15.15.36.28.5.65.7 1.48.99 2.48.86a.4.4 0 0 0 .16-.06.85.85 0 0 0 .1-.07ZM26.17 41.64c-.08.05-.15.04-.2-.03-.42-.49-.83-1.03-1.22-1.62-.1-.14-.06-.22.1-.24.9-.13 1.85-.19 2.86-.19.1 0 .14.05.15.14l.01.9c0 .03-.01.08-.04.1a.17.17 0 0 1-.1.07l-.52.1a.83.83 0 0 0-.42.29c-.14.16-.35.32-.62.48ZM28.17 40.76v-1.13l.01-.03.03-.01a17.07 17.07 0 0 1 3 .17.1.1 0 0 1 .03.08.1.1 0 0 1 0 .05c-.13.25-.5.94-.77 1a.54.54 0 0 1-.22.03 8.58 8.58 0 0 0-2.08-.15v-.01ZM21.74 40.5a11.67 11.67 0 0 1 2.45-.62.18.18 0 0 1 .19.09c.1.17.23.4.35.54a8.65 8.65 0 0 1 1.11 1.66c0 .03-.51.6-.66.54-.14-.06-3.59-2.02-3.44-2.21ZM31.05 40.9l.55-.97c.02-.03.04-.04.07-.04l1.48.3c.42.1.81.21 1.17.33.18.07.19.15.04.27l-.45.33c-.16.12-.3.12-.46.03a1.3 1.3 0 0 0-.72-.18c-.79 0-1.34 0-1.67-.04 0 0-.02-.02 0-.03ZM21.9 42.36a.26.26 0 0 0 .12.25c.03.02.06.03.1.03l.44.05c.12.02.16.09.11.2l-.02.05a.27.27 0 0 1-.28.17 7.4 7.4 0 0 1-1.53-.28c-.83-.29-1.44-.49-1.84-.6-.13-.03-.14-.1-.04-.19a6.33 6.33 0 0 1 2.13-1.25c.04 0 .08 0 .11.04l.27.28c.03.03.04.06.04.1-.02.35.1.6.36.8.04.02.06.06.05.12l-.02.23ZM34.1 42.02a.86.86 0 0 0-.24-.27.19.19 0 0 1-.06-.07.2.2 0 0 1 .07-.24l.93-.61c.04-.03.1-.03.14-.01.63.28 1.03.47 1.2.58a6.06 6.06 0 0 1 .97.72v.03a.06.06 0 0 1-.03.05c-.5.23-.95.36-1.36.39-.2.02-.46-.03-.77-.12-.2-.07-.48-.14-.82-.22-.13-.04.02-.16-.02-.23ZM30.25 41.25c-.14.26-.25.42-.3.5a16.09 16.09 0 0 1-1.61 1.59.1.1 0 0 1-.12-.07 1.77 1.77 0 0 1-.07-.46c0-.3.02-.84.08-1.63 0-.05.02-.07.07-.07.76 0 1.4.03 1.93.1.02 0 .03.02.02.04ZM26.85 42.61c-.07-.09-.2-.2-.37-.35a.19.19 0 0 1 .03-.3c.26-.14.46-.33.62-.58.08-.11.23-.18.47-.2.05 0 .08.03.08.08l.15 1.9c0 .03 0 .06-.02.08a.11.11 0 0 1-.06.04c-.08.04-.15.03-.2-.02a5.64 5.64 0 0 1-.7-.65ZM28.82 43.42c.5-.58.98-1.12 1.43-1.59.12-.13.32-.31.61-.55a.16.16 0 0 1 .12-.04l1.77.03c.13 0 .28.05.38.1.04.01.06.08.02.12-.1.1-.2.2-.35.28-.88.5-1.57.85-2.08 1.03-.62.23-1.19.44-1.71.65-.01 0-.27.06-.2-.03Z" fill="#772526"/><path d="M33.2 42.34c-.03.03 0 .1.04.1.5.06 1 .14 1.5.26.06.02.14.1.1.16l-.04.02c-.53.17-1.06.3-1.59.38l-1.83.29c-.5.07-.99.1-1.48.08-.43-.02-.44-.1-.03-.23l.9-.31c.33-.11 1.2-.56 2.63-1.34.05-.03.12 0 .2.07.08.08.03.22-.05.27-.18.1-.29.17-.35.25Z" fill="#772526"/><path d="m36.52 24.94.3.13c.06.01.1.04.12.09l.43.76a.12.12 0 0 1 0 .12.45.45 0 0 1-.44.26h-.63a.48.48 0 0 1-.32-.16 16.8 16.8 0 0 0-.87-.96c-.18-.19-.12-.56.11-.69.26-.14.52-.2.78-.17.04 0 .08.02.11.04.2.14.24.49.41.58ZM35.97 35.1c-.08-.39.28-1.05.48-1.3a.23.23 0 0 1 .1-.08c.34-.12.62-.27.84-.45a.26.26 0 0 1 .24-.04.26.26 0 0 1 .18.17c.1.37.04.7-.2 1-.08.1-.3.33-.68.68a.84.84 0 0 1-.78.2.22.22 0 0 1-.18-.18Z" fill="#161717"/></svg>