<svg width="56" height="56" viewBox="0 0 56 56" xmlns="http://www.w3.org/2000/svg"><path fill="#F0F3FA" d="M0 0h56v56H0z"/><path d="M28 42v2c-3.75 0-6.23-1.33-7-2h7Z" fill="silver"/><path d="M28 42v2c3.75 0 6.23-1.33 7-2h-7ZM38 27.23 37.28 23c-2.84 1.79-7.36 2.38-9.28 2.45v1.78h10Z" fill="#E8E8E8"/><path d="M28 27.23v-1.78c-5.36.25-8.9-1.06-10-1.75v1.43c.98.98 2.9 1.8 3.73 2.1H28ZM19.4 18a17.22 17.22 0 0 0 8.6 2.23V23c-4.04 0-7.59-.57-9-.85l.4-4.15Z" fill="silver"/><path d="m37 19.98-.3-1.46c-2.45 1.36-6.92 1.7-8.7 1.7V23c4.33-.07 7.9-2.04 9-3.02Z" fill="#E8E8E8"/><path d="M20 13.87c0 1.81 5.08 3.13 8 3.13v-1.53c-3.88.06-6.97-.87-6.97-1.77 0-.72 2.13-1.43 3.2-1.7-1.83-.06-4.23 1-4.23 1.87Z" fill="silver"/><path d="m36 16.23-.3-2.33c-1.6 1.17-5.88 1.53-7.7 1.57V17c4.2 0 7.16-.51 8-.77ZM30 11.5c0 .28-.9.5-2 .5v-1c1.1 0 2 .22 2 .5Z" fill="#E8E8E8"/><path d="M26.6 11.25c-.49-.02-.6.81-.6 1.25 0 1.02 1.1 1.41 1.77 1.5l.05-.5c-.27-.03-1.96-.25-1.31-1.72.3.18.76.22 1.49.22v-1c-.66 0-1.06.1-1.4.25Z" fill="silver"/><path fill-rule="evenodd" d="M38.77 28.38H17.23c-1.03 0-1.87.85-1.87 1.9v8.44c0 1.05.84 1.9 1.87 1.9h21.54c1.03 0 1.87-.85 1.87-1.9v-8.44c0-1.05-.84-1.9-1.87-1.9ZM17.23 27A3.25 3.25 0 0 0 14 30.28v8.44A3.25 3.25 0 0 0 17.23 42h21.54A3.25 3.25 0 0 0 42 38.72v-8.44A3.25 3.25 0 0 0 38.77 27H17.23Z" fill="#E02427"/><path d="M28.6 31c-.6 0-1.1.4-1.1 1s.5 1 1.1 1h1.72c1.53 0 3.18 1 3.18 3s-1.65 3-3.18 3H26.2c-.95 0-1.8-.59-2.12-1.46l-1.99-6.07a.71.71 0 0 0-.67-.47.71.71 0 0 0-.7.48l-3.3 9.56-1.92-.54 3.58-9.88A2.42 2.42 0 0 1 21.42 29c.96 0 1.93.54 2.31 1.6l2 6.07c.07.2.26.33.47.33h4.27c.57 0 1.03-.45 1.03-1s-.46-1-1.03-1h-1.79c-1.57 0-3.18-1-3.18-3s1.6-3 3.18-3H34c2.3 0 3 2.04 3 3.6v3.27c0 .63.52 1.13 1.16 1.13H42v2h-4.1c-1.6 0-2.9-1.26-2.9-2.81v-3.6c0-1.09-.5-1.59-1.5-1.59h-4.9Z" fill="#E02427"/></svg>