<svg width="56" height="56" viewBox="0 0 56 56" xmlns="http://www.w3.org/2000/svg"><path fill="#F0F3FA" d="M0 0h56v56H0z"/><path d="M34.24 27.53c.12.38.55.77.95.44.54-.44.85-.98.9-1.62.05-.37.01-.75.05-1.13.11-1.08.14-2.17.1-3.28-.05-.8.91-.75 1.47-.68.28.04.4.25.39.5l-.24 3.8a.2.2 0 0 0 .1.18c.13.07.27.05.4-.06.41-.29.81-.59 1.22-.9.27-.2.5-.16.68.12l.1.15c.18.28.15.53-.08.76l-.84.8c-.38.34-.16.63.1.97l1.11 1.5a.35.35 0 0 0 .49.09 3.82 3.82 0 0 0 1.61-2.36c.1-.44 0-.86.21-1.28.36-.76 1.57-.88 1.62.15.03.62.04 1.27.02 1.95 0 .43.5.48.81.36.39-.17.6-.44.65-.83l.1-1.2c.02-.33-.18-.46-.47-.51a.37.37 0 0 1-.32-.37l.02-.83c0-.09.04-.17.1-.23.07-.06.15-.1.24-.1h.32c.07 0 .13-.02.18-.07.05-.04.08-.1.1-.17.07-.53.15-1.08.25-1.66.1-.68.55-.94 1.24-1.02.19-.02.34.04.44.19a.3.3 0 0 1 .06.19l-.06 1.99c0 .34.16.55.5.63.35.07.7.12 1.08.13.28.01.42.16.42.43v.33c0 .29-.15.43-.45.42-.72-.02-1.82-.12-1.93.87-.18 1.45-.2 2.72-.06 3.8.13.99.56 1.96 1.7 2.08.44.04 1.12-.02 1.45-.36.23-.25.49-.3.76-.13.45.28.25 1.14.04 1.48-.4.62-.94.94-1.65.95-2.7.05-3.86-2-4.04-4.35-.02-.25-.26-.38-.48-.22-.47.35-.87.62-1.2.8-.39.24-.98.19-1.2-.26a4.6 4.6 0 0 0-.27-.5.3.3 0 0 0-.38-.1c-.1.05-.19.11-.26.2-.4.49-.77.89-1.43.99-1.23.18-1.98-.46-2.59-1.4a.36.36 0 0 0-.37-.19.32.32 0 0 0-.28.3c-.04.9-.52 1.32-1.44 1.25-.36-.03-.4-.45-.47-.73a.3.3 0 0 0-.18-.2.3.3 0 0 0-.28.04c-.28.2-.55.38-.82.53-.75.44-1.71.1-1.85-.77-.05-.28-.02-1-.35-1.1a.23.23 0 0 0-.26.1c-.43.6-.87 1.16-1.32 1.64-.23.25-.49.34-.76.27-.28-.07-.4-.37-.52-.6-.12-.24-.38-.2-.52-.02-.78 1.03-1.5 1.3-2.6.46-.26-.2-.58-.1-.83.07-.8.53-1.6.78-2.58.53-.38-.1-.99-.66-1.36-.41-.72.47-1.64.77-2.39.23-.23-.17-.53-.13-.76.01-.53.3-1.34.37-1.85.02-.56-.39-.82-1.06-1.03-1.7-.1-.26-.33-.4-.59-.18-1.24.99-2.65 1.7-4.24 2.16-2.06.59-4.77.47-5.96-1.45a4.53 4.53 0 0 1 .41-5.27 7.18 7.18 0 0 1 4.42-2.41c1.64-.29 3.32.15 4.88.8.45.18.77.42.97.7.8 1.11.1 2.8-1.47 2.4-1.16-.3-2.4-.52-3.55-.44-1.27.09-2.54.62-3.21 1.66-.65 1 .05 1.94.99 2.32 2.4.98 5.73-1.9 7.33-3.4a.6.6 0 0 1 .37-.16c.25-.03.3.17.37.36.26.8.5 1.56.7 2.28.07.25.18.46.34.62.31.33.75.13.78-.27l.14-1.8c.12-1.57.32-3.05.6-4.45.1-.47.52-1.05 1.06-.85.34.13.51.4.52.83.03 1.57-.13 3.19-.47 4.85-.14.72.2 1.76 1.11 1.67a.57.57 0 0 0 .48-.35 5.32 5.32 0 0 1 3.51-3c.74-.2 1.26.53.6 1.06-.46.36-1.8 1.4-1.45 2.07a.17.17 0 0 0 .13.08c.16.02.3-.02.43-.13l1.29-1.04c.39-.32 1-.64 1.32-.01l.2.42c.38.82 1.3-.03 1.63-.36a.69.69 0 0 0 .2-.41l.18-1.42c.06-.5.48-1.02 1.05-.81.25.1.4.29.43.6l.12.98a.27.27 0 0 0 .18.22c.17.06.32.03.43-.11l.98-1.24c.37-.46.77-.24.95.22.23.6.44 1.24.63 1.9Z" fill="#1E365D"/><path d="M43.68 24.58c.52 0 .95-.26.95-.59 0-.32-.43-.58-.95-.58-.53 0-.95.26-.95.58 0 .33.42.59.95.59Z" fill="#1E365D"/></svg>