<svg width="56" height="56" viewBox="0 0 56 56" xmlns="http://www.w3.org/2000/svg"><path fill="#F0F3FA" d="M0 0h56v56H0z"/><path fill-rule="evenodd" d="M16.76 16 16 17h28v-1H16.76ZM9 27h1.2l2.19-3H16v3h1v-9h-1.45L9 27Zm7-4v-3.95L13.12 23H16Zm2 4v-9h1v8h3v1h-4Zm7.18-9H23v9h2.42c1.43 0 2.58-1.2 2.58-2.66 0-.94-.47-1.76-1.18-2.24.42-.43.68-1.03.68-1.7 0-1.32-1.04-2.4-2.32-2.4Zm.03 1.1H24v2.6h1.21a1.3 1.3 0 0 0 1.29-1.3c0-.72-.58-1.3-1.29-1.3Zm.24 3.4H24V26h1.45c.86 0 1.55-.78 1.55-1.75s-.7-1.75-1.55-1.75ZM29 27v-9h4v1h-3v3h3v1h-3v3h3v1h-4Zm5-9h2.66a2.92 2.92 0 0 1 2.84 3c0 1.61-1.2 2.93-2.71 3l2.45 3.24-.62.76-2.93-4H35v3h-1v-9Zm2.7 1H35v4h1.7c1 0 1.8-.9 1.8-2s-.8-2-1.8-2Zm2.3 0h2v8h1v-8h2v-1h-5v1ZM15 29h2.77C20.1 29 22 30.8 22 33.04v.92c0 2.23-1.9 4.04-4.23 4.04H15v-9Zm1 1h1.7c1.83 0 3.3 1.36 3.3 3.04v.92c0 1.68-1.47 3.04-3.3 3.04H16v-7Zm21-1h2.77C42.1 29 44 30.8 44 33.04v.92c0 2.23-1.9 4.04-4.23 4.04H37v-9Zm1 1h1.7c1.83 0 3.3 1.36 3.3 3.04v.92c0 1.68-1.47 3.04-3.3 3.04H38v-7Zm-15 8v-9h1.67l6.28 9h-1.3l-2.1-3H24v3h-1Zm1-4h2.85L24 29.93V34Zm10-5v9h-1.68L26 29h1.45l5.5 8.12V29H34Zm1 0h1v9h-1v-9Zm9 11v-1H9v1h35Z" fill="#EC343B"/></svg>