<svg width="56" height="56" xmlns="http://www.w3.org/2000/svg"><path fill="#F0F3FA" d="M0 0h56v56H0z"/><path d="M44.319 24.145L52 30.183l-8.134 5.288 5.89-4.64-4.233-3.338c.225-1.092.007-2.235-1.204-3.348z" fill="#0090D5"/><path d="M45.25 28.096l3.494 2.76L42.337 36l4.762-4.726-2.88-2.236c.38-.249.751-.487 1.032-.942zm-33.425 3.71l.202-1.452h-.482l.044-.308h1.312l-.041.308h-.448l-.2 1.452h-.387z" fill="#009F3C"/><path d="M12.22 31.813h-.404l.002-.008.2-1.444h-.481v-.008l.046-.314h1.326v.008l-.043.314h-.448l-.199 1.452zm-.387-.014h.374l.199-1.452h.448l.039-.294h-1.298l-.042.294h.482l-.002.008-.2 1.444z" fill="#009F3C"/><path d="M13.329 30.587c.194 0 .35.052.466.16a.549.549 0 01.173.429.629.629 0 01-.204.485.738.738 0 01-.526.191.646.646 0 01-.455-.16.547.547 0 01-.171-.42c0-.2.067-.365.202-.493a.716.716 0 01.515-.192zm.002.31a.342.342 0 00-.256.101.384.384 0 00-.098.271c0 .084.025.15.072.2.05.048.117.073.2.073a.343.343 0 00.256-.1.363.363 0 00.098-.264c0-.089-.023-.157-.072-.204a.264.264 0 00-.2-.076z" fill="#009F3C"/><path d="M13.238 31.86a.653.653 0 01-.46-.162.558.558 0 01-.173-.427c0-.2.068-.368.204-.497a.725.725 0 01.517-.194h.003c.2 0 .353.053.47.162a.559.559 0 01.176.433c0 .2-.07.365-.207.49a.741.741 0 01-.53.194zm.093-1.266h-.002a.704.704 0 00-.51.19.645.645 0 00-.2.488c0 .171.057.311.168.415a.638.638 0 00.451.158.727.727 0 00.52-.19.623.623 0 00.203-.48.539.539 0 00-.171-.423c-.114-.105-.264-.157-.459-.158zm-.082.955a.279.279 0 01-.205-.076.285.285 0 01-.075-.204.39.39 0 01.1-.275.35.35 0 01.262-.104v.007-.007c.086 0 .156.027.205.079.05.047.074.117.074.21a.37.37 0 01-.1.267.351.351 0 01-.261.103zm.082-.645a.338.338 0 00-.25.1.377.377 0 00-.097.265c0 .08.024.145.07.195a.264.264 0 00.194.071.337.337 0 00.252-.099.356.356 0 00.096-.258c0-.088-.024-.155-.07-.2a.26.26 0 00-.195-.074z" fill="#009F3C"/><path d="M14.654 30.627l-.067.492a.731.731 0 00-.008.062 1.021 1.021 0 00-.018.152c0 .071.02.126.057.163a.235.235 0 00.165.056c.099 0 .171-.03.22-.091.047-.061.083-.182.109-.362l.065-.472h.357l-.072.514c-.024.163-.05.28-.078.357a.536.536 0 01-.124.19.54.54 0 01-.207.123.877.877 0 01-.278.041.674.674 0 01-.419-.118.378.378 0 01-.155-.317c0-.032.003-.077.008-.133a4.85 4.85 0 01.028-.226l.06-.431h.357z" fill="#009F3C"/><path d="M14.775 31.86a.685.685 0 01-.423-.12.386.386 0 01-.158-.323c0-.033.002-.078.007-.134.006-.058.017-.137.029-.226l.06-.438h.372l-.068.5-.003.023-.005.039a1.048 1.048 0 00-.018.152c0 .068.019.12.055.158a.23.23 0 00.16.054c.097 0 .167-.029.215-.088.045-.06.081-.18.107-.359l.066-.479h.372l-.002.008-.072.515c-.023.16-.05.28-.079.358a.538.538 0 01-.336.317.87.87 0 01-.279.042zm-.472-1.226l-.059.424c-.012.09-.023.169-.028.227-.005.055-.008.1-.008.132 0 .13.051.235.153.312a.673.673 0 00.414.116.873.873 0 00.275-.041.533.533 0 00.204-.121.53.53 0 00.123-.188 1.82 1.82 0 00.077-.355l.072-.506h-.343l-.064.466c-.026.183-.062.302-.11.365-.05.064-.124.094-.226.094a.242.242 0 01-.17-.059.23.23 0 01-.06-.167c0-.031.007-.087.019-.154l.004-.04.003-.02.067-.485h-.343z" fill="#009F3C"/><path d="M16.758 31.008a.663.663 0 00-.155-.093.393.393 0 00-.15-.03.372.372 0 00-.277.106.375.375 0 00-.106.278c0 .089.028.158.085.21a.34.34 0 00.23.076.562.562 0 00.164-.025 1.16 1.16 0 00.186-.071l-.06.325a.838.838 0 01-.342.069.647.647 0 01-.458-.158.55.55 0 01-.17-.423c0-.2.067-.365.202-.493a.704.704 0 01.51-.192.741.741 0 01.427.129l-.086.292z" fill="#009F3C"/><path d="M16.334 31.86a.657.657 0 01-.463-.16.562.562 0 01-.173-.429c0-.2.068-.368.204-.497a.714.714 0 01.515-.194h.002a.748.748 0 01.429.13l.004.002-.001.005-.089.303-.008-.006a.644.644 0 00-.154-.093.381.381 0 00-.147-.029.366.366 0 00-.272.104.368.368 0 00-.104.273.26.26 0 00.083.204c.058.05.132.075.226.075a.556.556 0 00.16-.025 1.07 1.07 0 00.186-.07l.013-.007-.063.342-.003.002a.64.64 0 01-.162.052.877.877 0 01-.183.017zm.085-1.266h-.002a.699.699 0 00-.505.19.646.646 0 00-.2.487.54.54 0 00.168.419.643.643 0 00.454.155.858.858 0 00.335-.066l.056-.308a1.064 1.064 0 01-.174.066.567.567 0 01-.165.024.347.347 0 01-.236-.077.274.274 0 01-.087-.215.38.38 0 01.108-.283.377.377 0 01.281-.108c.054 0 .104.01.154.03a.65.65 0 01.148.088l.082-.278a.732.732 0 00-.417-.124z" fill="#009F3C"/><path d="M16.934 31.806l.26-1.863h.354l-.096.696a.639.639 0 01-.042.162.787.787 0 01.218-.162.533.533 0 01.233-.051c.135 0 .238.029.313.093a.32.32 0 01.111.26c0 .045-.007.117-.02.215l-.005.025-.086.625h-.357l.091-.657c.002-.025.005-.045.005-.062l.002-.042c0-.056-.015-.099-.049-.13a.203.203 0 00-.14-.044.338.338 0 00-.243.085.479.479 0 00-.111.271l-.08.579h-.358z" fill="#009F3C"/><path d="M18.18 31.813h-.371l.091-.665.003-.037.003-.024.002-.043c0-.054-.015-.094-.047-.124a.197.197 0 00-.135-.043.33.33 0 00-.238.085.478.478 0 00-.11.267l-.08.584h-.372l.001-.008.26-1.87h.369l-.097.705a.605.605 0 01-.018.092l-.011.04a.76.76 0 01.195-.14.544.544 0 01.236-.051c.139 0 .243.03.318.095a.327.327 0 01.114.266c0 .04-.007.102-.021.215l-.005.025-.087.63zm-.355-.014h.343l.085-.62.005-.024c.014-.11.02-.174.02-.213a.313.313 0 00-.108-.256.464.464 0 00-.308-.091.534.534 0 00-.231.05.781.781 0 00-.215.161l-.012-.008a.593.593 0 00.04-.16l.096-.689h-.34l-.258 1.85h.343l.08-.573a.487.487 0 01.113-.274.347.347 0 01.248-.089.21.21 0 01.145.047c.035.033.051.076.051.135l-.002.042-.002.026-.003.036-.09.65z" fill="#009F3C"/><path d="M18.524 31.806l.16-1.18h.358l-.161 1.18h-.357zm.189-1.635a.19.19 0 01.062-.142.211.211 0 01.147-.057c.06 0 .11.02.148.057a.19.19 0 01.062.143c0 .053-.02.1-.062.14a.198.198 0 01-.148.059.203.203 0 01-.147-.06.18.18 0 01-.062-.14z" fill="#009F3C"/><path d="M19.233 31.806l.163-1.18h.331l-.028.185a.815.815 0 01.225-.17.518.518 0 01.236-.053c.134 0 .238.029.313.093a.32.32 0 01.111.261c0 .044-.008.116-.02.214l-.006.025-.085.625h-.357l.09-.657a.545.545 0 00.005-.062l.003-.042c0-.056-.015-.098-.05-.13a.202.202 0 00-.14-.044.339.339 0 00-.242.085.48.48 0 00-.112.271l-.08.579h-.357z" fill="#009F3C"/><path d="M20.48 31.813h-.372l.09-.665.004-.037.002-.024.003-.043c0-.054-.015-.094-.047-.124a.195.195 0 00-.135-.043.33.33 0 00-.238.085.473.473 0 00-.11.267l-.08.584h-.373l.166-1.193h.346l-.027.17a.798.798 0 01.212-.155.524.524 0 01.239-.054c.139 0 .242.03.317.095a.326.326 0 01.114.266c0 .04-.006.104-.02.215l-.006.025-.086.63zm-.356-.014h.343l.084-.62.005-.025a1.68 1.68 0 00.02-.212.313.313 0 00-.108-.256.46.46 0 00-.307-.092.517.517 0 00-.234.054.83.83 0 00-.223.168l-.012-.006.027-.176h-.316l-.162 1.165h.343l.08-.573a.485.485 0 01.112-.274.346.346 0 01.249-.089c.061 0 .11.016.145.047.035.033.051.076.051.135l-.003.042-.002.026-.003.036-.09.65z" fill="#009F3C"/><path d="M21.84 30.626h.346l-.132.97-.005.037c-.036.266-.088.439-.153.517a.473.473 0 01-.217.145.99.99 0 01-.331.047c-.184 0-.324-.034-.422-.103a.436.436 0 01-.171-.315l.33-.03a.232.232 0 00.09.145c.046.03.108.047.186.047.116 0 .199-.034.25-.103.053-.069.084-.19.091-.36a.46.46 0 01-.165.139.542.542 0 01-.225.044.487.487 0 01-.373-.14.57.57 0 01-.132-.4c0-.199.057-.361.168-.49a.547.547 0 01.427-.189c.09 0 .168.018.238.052.07.035.127.084.174.153l.025-.166zm-.068.505c0-.088-.023-.157-.075-.207a.281.281 0 00-.207-.073.304.304 0 00-.243.103.424.424 0 00-.09.29.25.25 0 00.08.197.28.28 0 00.206.076.295.295 0 00.241-.105.412.412 0 00.088-.28z" fill="#009F3C"/><path d="M21.348 32.35c-.184 0-.327-.036-.426-.105a.444.444 0 01-.174-.32l-.001-.008h.007l.335-.03.002.006a.225.225 0 00.087.14.34.34 0 00.182.046c.115 0 .195-.033.246-.1.05-.066.079-.178.088-.333a.465.465 0 01-.154.122.547.547 0 01-.229.045.496.496 0 01-.378-.143.578.578 0 01-.134-.403.73.73 0 01.17-.495.556.556 0 01.433-.192c.092 0 .17.018.241.053a.443.443 0 01.166.14l.024-.153h.361v.008l-.133.97-.005.035c-.036.266-.088.441-.154.522a.477.477 0 01-.22.147.988.988 0 01-.334.047zm-.585-.42a.428.428 0 00.167.303c.097.068.237.102.418.102a.985.985 0 00.329-.046.465.465 0 00.214-.143c.064-.079.115-.252.151-.513l.005-.038.131-.962h-.332l-.026.16-.012.003a.434.434 0 00-.17-.15.519.519 0 00-.235-.052.543.543 0 00-.423.188.716.716 0 00-.166.485c0 .166.044.3.13.394.086.091.21.138.367.138a.533.533 0 00.223-.044.452.452 0 00.162-.136l.013.005c-.007.17-.038.292-.091.363-.054.071-.138.106-.258.106a.35.35 0 01-.19-.048.234.234 0 01-.092-.143l-.315.028zm.68-.405a.289.289 0 01-.212-.079.26.26 0 01-.082-.201.43.43 0 01.092-.296.313.313 0 01.249-.105c.09 0 .162.025.212.076.052.049.077.118.077.211v.007c0 .12-.03.21-.09.279a.301.301 0 01-.245.108zm.047-.667a.294.294 0 00-.238.1.422.422 0 00-.089.287c0 .08.026.145.078.191.05.05.118.074.203.074.1 0 .177-.033.235-.103a.404.404 0 00.086-.276v-.007c-.001-.085-.025-.149-.073-.194a.274.274 0 00-.202-.072z" fill="#009F3C"/><path d="M23.154 31.806l.244-1.76h.388l-.202 1.447h.642l-.044.313h-1.027z" fill="#009F3C"/><path d="M24.188 31.813h-1.042l.002-.008.244-1.766h.402v.008l-.201 1.44h.641v.007l-.046.319zm-1.025-.014h1.013l.042-.299h-.642l.001-.008.201-1.44h-.374l-.241 1.747z" fill="#009F3C"/><path d="M24.4 31.806l.16-1.18h.357l-.16 1.18H24.4zm.189-1.635c0-.056.02-.103.062-.142a.211.211 0 01.147-.057c.06 0 .109.02.148.057a.19.19 0 01.062.143c0 .053-.02.1-.062.14a.2.2 0 01-.148.059.202.202 0 01-.147-.06.18.18 0 01-.063-.14z" fill="#009F3C"/><path d="M25.38 31.806l-.313-1.18h.386l.127.621c.008.044.013.086.018.12.003.037.005.072.005.104v.027c.018-.057.036-.106.055-.148a.806.806 0 01.046-.11l.318-.613h.412l-.67 1.179h-.383z" fill="#009F3C"/><path d="M26.812 31.29v.028c0 .079.026.14.078.187a.336.336 0 00.217.07.365.365 0 00.168-.04.475.475 0 00.143-.126l.24.19a.571.571 0 01-.233.19.842.842 0 01-.336.063.647.647 0 01-.458-.16.542.542 0 01-.174-.423c0-.197.067-.362.2-.49a.687.687 0 01.5-.192c.186 0 .333.054.44.16.105.108.157.256.157.446 0 .02 0 .05-.005.09v.008h-.937zm.018-.198h.585a.252.252 0 00-.067-.187c-.044-.045-.106-.067-.187-.067a.318.318 0 00-.21.064.37.37 0 00-.121.19z" fill="#009F3C"/><path d="M27.089 31.86a.655.655 0 01-.463-.163.545.545 0 01-.176-.428c0-.199.068-.365.201-.495a.698.698 0 01.505-.194c.188 0 .338.055.445.162.108.11.16.257.16.45 0 .02 0 .05-.005.093v.013h-.937v.02a.23.23 0 00.076.182.329.329 0 00.212.067c.06 0 .113-.012.165-.038a.47.47 0 00.14-.124l.004-.006.006.005.246.193-.004.006a.582.582 0 01-.236.192.844.844 0 01-.34.064zm.068-1.265a.676.676 0 00-.495.19.648.648 0 00-.198.484c0 .177.056.314.171.418a.641.641 0 00.454.159.837.837 0 00.333-.064.574.574 0 00.227-.182l-.23-.18a.48.48 0 01-.14.12.373.373 0 01-.172.041.343.343 0 01-.222-.07.244.244 0 01-.08-.193v-.034h.937c.005-.042.005-.072.005-.091 0-.19-.051-.334-.156-.44a.592.592 0 00-.434-.159zm.265.504h-.592v-.005l-.007-.004a.375.375 0 01.124-.193.326.326 0 01.214-.066c.082 0 .147.023.192.069a.26.26 0 01.07.192v.007zm-.582-.014h.568a.244.244 0 00-.066-.175.242.242 0 00-.18-.065.31.31 0 00-.206.063.358.358 0 00-.116.177z" fill="#009F3C"/><path d="M28.065 31.427c.041.056.09.1.142.133a.294.294 0 00.155.049c.044 0 .078-.01.104-.032a.096.096 0 00.039-.079c0-.05-.05-.098-.145-.15-.04-.022-.067-.04-.09-.052a.608.608 0 01-.185-.155.337.337 0 01.085-.448.543.543 0 01.348-.106.623.623 0 01.453.192l-.212.183a.685.685 0 00-.132-.107.296.296 0 00-.13-.034.15.15 0 00-.096.03.09.09 0 00-.036.073c0 .045.065.1.194.168.037.02.065.034.085.047a.405.405 0 01.15.13c.034.05.05.109.05.175 0 .12-.044.217-.135.293a.513.513 0 01-.347.113.635.635 0 01-.272-.056.773.773 0 01-.235-.168l.21-.2z" fill="#009F3C"/><path d="M28.362 31.857a.643.643 0 01-.274-.057.782.782 0 01-.238-.17l-.005-.004.005-.005.216-.205.005.006a.506.506 0 00.14.131.29.29 0 00.151.049c.044 0 .075-.01.1-.03a.089.089 0 00.036-.074c0-.046-.046-.093-.142-.144l-.031-.018-.06-.034a.62.62 0 01-.186-.157.344.344 0 01.087-.457.551.551 0 01.352-.108.635.635 0 01.458.194l.005.006-.223.191-.005-.004a.665.665 0 00-.13-.105.282.282 0 00-.126-.034.147.147 0 00-.091.028.084.084 0 00-.034.068c0 .04.062.093.19.162l.023.012.063.035a.405.405 0 01.152.132.31.31 0 01.051.179.37.37 0 01-.137.298.52.52 0 01-.352.115zm-.497-.23a.762.762 0 00.229.16.62.62 0 00.268.056.506.506 0 00.342-.111.356.356 0 00.133-.288.296.296 0 00-.048-.171.4.4 0 00-.148-.128l-.063-.035-.022-.012c-.135-.072-.198-.127-.198-.174 0-.032.014-.06.04-.08a.16.16 0 01.099-.03.3.3 0 01.133.035c.043.026.086.06.129.103l.201-.173a.626.626 0 00-.441-.185.54.54 0 00-.344.105.332.332 0 00-.134.267.3.3 0 00.05.171.603.603 0 00.182.153l.059.033.031.019c.1.054.149.105.149.156a.102.102 0 01-.042.084c-.026.023-.06.034-.108.034a.307.307 0 01-.159-.05.517.517 0 01-.139-.129l-.199.19z" fill="#009F3C"/><path d="M30.584 30.587c.193 0 .349.052.465.16a.548.548 0 01.174.429.63.63 0 01-.205.485.739.739 0 01-.525.191.645.645 0 01-.456-.16.548.548 0 01-.17-.42c0-.2.067-.365.201-.493a.716.716 0 01.515-.192zm.002.31a.342.342 0 00-.256.101.382.382 0 00-.099.271c0 .084.026.15.072.2.05.048.117.073.2.073a.343.343 0 00.256-.1.364.364 0 00.099-.264c0-.089-.024-.157-.073-.204a.265.265 0 00-.2-.076h.001z" fill="#009F3C"/><path d="M30.493 31.86a.653.653 0 01-.461-.162.557.557 0 01-.173-.427c0-.2.068-.368.204-.497a.726.726 0 01.513-.194h.007c.2 0 .354.053.47.162a.558.558 0 01.177.433c0 .2-.07.365-.207.49a.742.742 0 01-.53.194zm.097-1.266h-.007a.705.705 0 00-.51.19.645.645 0 00-.2.488c0 .171.057.31.169.415a.637.637 0 00.45.158.728.728 0 00.521-.19.625.625 0 00.202-.48.539.539 0 00-.171-.423c-.113-.105-.262-.156-.454-.158zm-.087.955a.277.277 0 01-.204-.076.286.286 0 01-.075-.204c0-.112.034-.205.1-.275a.348.348 0 01.262-.104v.007-.007c.085 0 .156.027.204.079.05.047.074.117.074.21a.365.365 0 01-.1.267.35.35 0 01-.261.103zm.083-.645a.337.337 0 00-.252.1.377.377 0 00-.096.265c0 .08.024.145.07.195a.264.264 0 00.195.071.337.337 0 00.251-.099.357.357 0 00.096-.258c0-.088-.024-.155-.07-.2a.26.26 0 00-.194-.074z" fill="#009F3C"/><path d="M31.67 31.806l-.313-1.18h.386l.127.621.018.12c.003.037.005.072.005.104v.027c.018-.057.036-.106.054-.148a.832.832 0 01.047-.11l.318-.613h.412l-.67 1.179h-.384z" fill="#009F3C"/><path d="M32.058 31.813h-.393l-.002-.005-.315-1.188h.4l.002.005.127.62.013.088.005.033.003.056.001.033a1.48 1.48 0 01.042-.107.867.867 0 01.047-.112l.32-.616h.428l-.006.01-.672 1.183zm-.382-.014h.374l.662-1.165h-.395l-.317.609a.853.853 0 00-.046.11c-.018.04-.035.088-.054.147l-.014-.002v-.027l-.003-.048-.002-.055-.005-.033-.014-.087-.125-.614h-.37l.309 1.165z" fill="#009F3C"/><path d="M33.102 31.29v.028c0 .079.026.14.077.187a.336.336 0 00.218.07.36.36 0 00.168-.04.471.471 0 00.142-.126l.241.19a.574.574 0 01-.233.19.841.841 0 01-.336.063.648.648 0 01-.459-.16.543.543 0 01-.173-.423c0-.197.068-.362.2-.49a.688.688 0 01.499-.192c.186 0 .334.054.44.16.106.108.158.256.158.446 0 .02 0 .05-.005.09v.008h-.937zm.018-.198h.585a.254.254 0 00-.067-.187c-.044-.045-.106-.067-.187-.067a.318.318 0 00-.21.064.37.37 0 00-.121.19z" fill="#009F3C"/><path d="M33.379 31.86a.655.655 0 01-.463-.163.546.546 0 01-.176-.428c0-.199.068-.365.201-.495a.7.7 0 01.505-.194c.188 0 .337.055.445.162.108.11.16.257.16.45 0 .02 0 .05-.005.093v.013h-.937v.02c0 .077.025.136.075.182a.33.33 0 00.213.067c.06 0 .113-.012.165-.038a.475.475 0 00.14-.124l.004-.006.006.005.246.193-.004.006a.583.583 0 01-.236.192.84.84 0 01-.34.064zm.068-1.265a.677.677 0 00-.496.19.648.648 0 00-.197.484c0 .177.056.314.171.418a.64.64 0 00.454.159.834.834 0 00.333-.064.569.569 0 00.226-.182l-.23-.18a.477.477 0 01-.14.12.372.372 0 01-.171.041.342.342 0 01-.222-.07.244.244 0 01-.08-.193v-.034h.937c.005-.043.005-.072.005-.091 0-.19-.051-.334-.156-.44a.591.591 0 00-.434-.159zm.265.504h-.592v-.006l-.007-.001v-.007h.002a.371.371 0 01.122-.188.325.325 0 01.214-.066c.082 0 .147.023.192.069a.26.26 0 01.069.192v.007zm-.582-.014h.567a.245.245 0 00-.065-.175c-.042-.043-.103-.065-.181-.065a.312.312 0 00-.205.063c-.052.04-.09.1-.116.177z" fill="#009F3C"/><path d="M34.225 31.806l.163-1.18h.357l-.03.207a.492.492 0 01.162-.184.372.372 0 01.212-.061l.06.002.052.01-.07.34a.482.482 0 00-.075-.018l-.07-.007a.287.287 0 00-.228.096.585.585 0 00-.108.293l-.068.502h-.357z" fill="#009F3C"/><path d="M34.588 31.813h-.371l.165-1.193h.372l-.002.008-.025.17a.485.485 0 01.147-.155.38.38 0 01.216-.062h.011l.049.002.053.01.006.002-.001.006-.072.347-.007-.002a.557.557 0 00-.074-.017l-.07-.007a.28.28 0 00-.222.093.577.577 0 00-.106.29l-.069.508zm-.355-.014h.343l.066-.496a.589.589 0 01.11-.296.293.293 0 01.233-.1l.072.008.069.015.067-.325-.045-.008-.047-.003h-.011a.366.366 0 00-.209.06.492.492 0 00-.16.183l-.014-.005.03-.198h-.343l-.16 1.165z" fill="#009F3C"/><path d="M11 30.886H4v.188h7v-.188z" fill="#0090D5"/><path d="M37.632 35.06l-.27-.852h.326l.108.473c.006.02.013.066.026.133l.005.034c.008-.028.02-.056.03-.087.013-.028.029-.056.044-.086l.27-.466h.348l-.828 1.306h-.347l.288-.455z" fill="#0090D5"/><path d="M37.693 35.52h-.358l.005-.007.286-.454-.27-.856h.336v.004l.108.473a6.468 6.468 0 00.026.133l.002.015.016-.044.008-.024.03-.06.015-.027.27-.47h.36l-.004.008-.83 1.309zm-.34-.01h.335l.822-1.297h-.337l-.268.465-.014.027-.03.058-.008.024-.022.062h-.01l-.004-.035-.012-.063a.741.741 0 00-.014-.069l-.106-.469h-.317l.268.847v.002l-.283.449z" fill="#0090D5"/><path d="M38.84 34.715v.02c0 .06.021.107.065.143a.306.306 0 00.184.052c.055 0 .1-.011.142-.03a.388.388 0 00.12-.096l.205.145a.475.475 0 01-.198.145.775.775 0 01-.284.048.587.587 0 01-.389-.122.394.394 0 01-.146-.322c0-.15.057-.276.169-.374a.62.62 0 01.422-.146.54.54 0 01.373.122c.09.083.134.195.134.34 0 .015 0 .037-.005.069v.006h-.793zm.014-.152h.496a.181.181 0 00-.058-.143.225.225 0 00-.157-.05.293.293 0 00-.178.048.283.283 0 00-.103.145z" fill="#0090D5"/><path d="M40.818 35.107h-.303l.018-.1a.336.336 0 01-.134.102.485.485 0 01-.186.033.423.423 0 01-.314-.112.429.429 0 01-.111-.315c0-.156.048-.286.142-.387a.486.486 0 01.364-.15.47.47 0 01.197.04.36.36 0 01.145.116l.017-.126h.303l-.139.899zm-.213-.5a.215.215 0 00-.063-.162.256.256 0 00-.178-.06.266.266 0 00-.206.082.327.327 0 00-.075.229c0 .066.022.118.068.158a.286.286 0 00.185.057c.08 0 .146-.028.195-.084a.31.31 0 00.074-.22z" fill="#0090D5"/><path d="M40.213 35.147a.428.428 0 01-.317-.114.434.434 0 01-.113-.318c0-.156.048-.287.143-.39a.493.493 0 01.367-.151.47.47 0 01.2.04.36.36 0 01.14.108l.016-.118h.312v.005l-.14.902h-.312l.001-.005.015-.082a.34.34 0 01-.124.089.484.484 0 01-.188.034zm.08-.964a.478.478 0 00-.36.148.543.543 0 00-.14.384c0 .133.036.238.11.311a.42.42 0 00.31.112c.069 0 .13-.011.184-.034a.335.335 0 00.132-.1l.008.004-.016.094h.292l.137-.89h-.293l-.017.123-.008.002a.357.357 0 00-.143-.115.468.468 0 00-.195-.039zm.042.733a.29.29 0 01-.187-.059.202.202 0 01-.07-.161c0-.1.025-.175.076-.232a.271.271 0 01.21-.084.26.26 0 01.18.061.218.218 0 01.066.167v.005a.31.31 0 01-.076.218.249.249 0 01-.199.085zm.029-.527a.265.265 0 00-.203.081.324.324 0 00-.073.226.19.19 0 00.066.154.279.279 0 00.181.057.24.24 0 00.192-.083.305.305 0 00.073-.216v-.005a.208.208 0 00-.062-.155.252.252 0 00-.174-.059z" fill="#0090D5"/><path d="M41.098 35.107l.138-.899h.303l-.027.158a.392.392 0 01.138-.14.343.343 0 01.18-.048l.05.002.044.008-.059.258-.063-.013-.06-.005a.259.259 0 00-.192.073.42.42 0 00-.092.223l-.057.383h-.303z" fill="#0090D5"/><path d="M42.076 34.818a.42.42 0 00.12.101.272.272 0 00.132.038.14.14 0 00.087-.025l.033-.06c0-.037-.042-.075-.123-.114a1.823 1.823 0 00-.076-.04.51.51 0 01-.156-.118.218.218 0 01-.044-.133c0-.084.04-.152.116-.208a.495.495 0 01.294-.08.557.557 0 01.384.146l-.18.138a.577.577 0 00-.112-.08.268.268 0 00-.11-.026.14.14 0 00-.08.022l-.031.056c0 .034.055.075.164.128.031.015.055.026.072.036a.315.315 0 01.127.099.21.21 0 01.042.133.265.265 0 01-.114.223.465.465 0 01-.293.086.59.59 0 01-.23-.043.657.657 0 01-.2-.127l.178-.152z" fill="#0090D5"/><path d="M42.328 35.145a.585.585 0 01-.233-.044.651.651 0 01-.2-.128l-.004-.003.004-.004.181-.155.003.004a.408.408 0 00.12.1.265.265 0 00.129.037.135.135 0 00.084-.024l.031-.056c0-.035-.039-.07-.12-.11l-.023-.012-.053-.028a.504.504 0 01-.158-.119.22.22 0 01-.045-.136c0-.084.039-.154.118-.212a.507.507 0 01.297-.081.556.556 0 01.387.147l.004.004-.004.003-.183.141-.003-.002a.555.555 0 00-.111-.08.258.258 0 00-.108-.026.135.135 0 00-.078.022l-.029.052c0 .031.053.071.162.124l.015.007.057.028a.35.35 0 01.13.101.218.218 0 01.042.136.271.271 0 01-.116.227.471.471 0 01-.297.087zm-.423-.175a.642.642 0 00.194.123.58.58 0 00.229.043c.12 0 .218-.029.29-.085a.262.262 0 00.113-.22.207.207 0 00-.041-.13.32.32 0 00-.126-.098l-.058-.03-.014-.006c-.114-.054-.167-.097-.167-.132a.07.07 0 01.033-.06.142.142 0 01.083-.023.28.28 0 01.112.026.57.57 0 01.11.08l.172-.134a.54.54 0 00-.376-.141.494.494 0 00-.291.08c-.076.056-.114.123-.114.204a.21.21 0 00.043.13.491.491 0 00.154.117l.054.027.023.013c.084.04.125.08.125.118a.076.076 0 01-.035.064.143.143 0 01-.09.025.275.275 0 01-.134-.038.415.415 0 01-.119-.099l-.17.146z" fill="#0090D5"/><path fill-rule="evenodd" d="M42.078 30.243c.76 0 1.272.686 1.139 1.526-.134.841-.863 1.527-1.624 1.527-.76 0-1.272-.686-1.139-1.527.134-.84.863-1.526 1.624-1.526zm.047-.326c1.002 0 1.684.828 1.517 1.842-.167 1.015-1.121 1.843-2.124 1.843-1.002 0-1.684-.828-1.517-1.843.167-1.014 1.121-1.842 2.124-1.842zm-6.377.75c1.031-.092 1.368-.282 1.554-.75h.26L36.97 33.6h-.475l.419-2.676-1.199-.018c.008-.08.026-.159.034-.238z" fill="#0090D5"/><path d="M41.117 30.762c.137.288.188.63.127.997a2.163 2.163 0 01-.464 1.008l-.026-.038-.032-.05-.03-.054-.026-.055-.024-.057-.021-.06-.02-.06v-.003c.107-.19.183-.4.218-.62a1.567 1.567 0 00-.02-.614l.038-.06.04-.06.043-.058.045-.056.047-.054.049-.051.05-.05.006-.005zm-1.39-.845c.416 0 .775.142 1.043.38l-.02.016-.077.065-.075.067-.072.07-.048.052a1.108 1.108 0 00-.798-.324c-.76 0-1.49.686-1.623 1.526-.134.841.378 1.527 1.138 1.527.323 0 .64-.123.909-.33l.018.03.05.07.052.07.057.065.015.015a2.074 2.074 0 01-1.175.386c-1.003 0-1.685-.828-1.518-1.843.167-1.014 1.121-1.842 2.124-1.842zM37.216 24l.22-1h1.828l-.216 1h-1.832zm-16.26 5l.859-4h1.768l-.116.437c.278-.428 1.171-.841 1.783-.798 1.058.075 1.237.4 1.45.94.314-.488.992-.9 1.818-.92 1.234-.03 1.761.577 1.583 1.404L29.514 29h-1.76l.562-2.845c.039-.18-.248-.53-.72-.53-.317 0-.914.521-.96.74L26.107 29h-1.743l.509-2.573c.096-.447-.264-.785-.58-.785-.49 0-.971.508-1.05.867L22.739 29h-1.783zm-8.205 0l1.33-6h1.834l-1.331 6H12.75zm31.856-1.791c-.166.46-.637 1.139-1.166 1.378-.486.22-1.065.351-1.723.413-.998.093-2.303-.234-2.562-.687-.361-.288-.655-1.31-.054-2.158.18-.254.41-.533.651-.75.29-.264.668-.437 1.07-.57.4-.133.855-.2 1.364-.2.742 0 1.528.127 1.975.397.448.27.696.727.577 1.304l-1.782-.007c-.043-.281-.1-.678-.609-.756-.425-.065-.722.084-1.023.29-.211.144-.59.715-.571 1.22-.014 1.267.999.916 1.19.893.428-.05.828-.532.823-.76l1.84-.008zM7.357 27h2.37l-.684-2.761L7.358 27zm-3.254 2l4.232-6h2.236l1.83 6H10.26l-.295-1H6.658l-.724 1h-1.83zm13.287-2.65l2.006-.004c.038-.22.068-.527-.143-.704a1.147 1.147 0 00-.636-.224c-.25 0-.64.105-.817.243-.178.138-.345.437-.41.69zm3.527 1.171c-.484 1.037-1.961 1.581-3.63 1.479-.986-.123-1.909-.396-1.909-1.721.046-1.443 1.117-2.451 3.058-2.632 1.637-.153 2.642.495 2.688 1.43.018.351-.107.728-.16 1.105l-3.76.004c-.099.45.139.97.747.97.465 0 .925-.305 1.08-.633l1.886-.002zm12.86-1.948c-.511-.114-1.178.146-1.457.8-.904 1.767 1.214 2.273 1.903.742.334-.742.065-1.427-.447-1.542zM29.904 29l1.331-6h1.727l-.526 2.38c.483-.49 1.23-.73 2.082-.73 1.778 0 1.962 1.535 1.603 2.527-.339.933-1.463 1.95-2.736 1.823a2.944 2.944 0 01-1.112-.341 1.029 1.029 0 01-.438-.47L31.72 29h-1.816zm6.246 0l.914-4h1.83l-.92 4H36.15z" fill="#0090D5"/></svg>