<svg width="56" height="56" viewBox="0 0 56 56" xmlns="http://www.w3.org/2000/svg"><path fill="#F0F3FA" d="M0 0h56v56H0z"/><path d="m29.72 11.72-1.5.01a.12.12 0 0 1-.13-.12v-.5c0-.06.06-.11.13-.11l1.51.07c.07 0 .12.06.12.12l-.01.41c0 .06-.06.12-.12.12ZM26.14 11.2l-1.1.26a.2.2 0 0 0-.15.24l.03.14c.03.1.13.16.24.14l1.1-.26a.2.2 0 0 0 .15-.24l-.03-.14a.2.2 0 0 0-.24-.14ZM32.84 11.83l-.91-.22a.2.2 0 0 0-.25.15l-.01.05a.2.2 0 0 0 .15.25l.92.22a.2.2 0 0 0 .25-.16v-.04a.2.2 0 0 0-.15-.25ZM22.46 12.01l-1.02.47a.18.18 0 0 0-.09.24l.07.15c.04.09.15.13.24.09l1.02-.47c.09-.04.13-.15.09-.24l-.07-.15a.18.18 0 0 0-.24-.09ZM28.23 12.64l1.52-.05a.12.12 0 0 1 .11.08l.01.05v.4a.12.12 0 0 1-.12.12l-1.53.14a.12.12 0 0 1-.13-.13l.02-.5a.12.12 0 0 1 .12-.11ZM36.21 13.1l-.91-.34a.2.2 0 0 0-.26.12l-.02.04a.2.2 0 0 0 .12.26l.91.34a.2.2 0 0 0 .26-.12l.02-.04a.2.2 0 0 0-.12-.26ZM32.8 13.01l-.92-.22a.2.2 0 0 0-.23.15l-.01.06c-.03.1.03.2.14.23l.91.22c.1.03.21-.04.24-.14l.01-.07a.2.2 0 0 0-.14-.23ZM26.46 12.97l-1.12.3a.16.16 0 0 0-.1.19l.04.2c.03.08.11.13.2.1l1.11-.3a.16.16 0 0 0 .11-.19l-.05-.2a.16.16 0 0 0-.2-.1ZM19.06 13.6l-.9.6c-.1.06-.12.2-.05.3l.06.09c.07.1.2.12.3.06l.9-.6c.1-.07.12-.2.06-.3l-.06-.1a.22.22 0 0 0-.3-.06ZM35.87 13.95l-.89-.33a.21.21 0 0 0-.27.12l-.01.02c-.04.11.02.23.13.28l.88.32c.12.04.24-.01.28-.12v-.02a.21.21 0 0 0-.12-.27ZM23.53 14.09l-1.02.45a.16.16 0 0 0-.09.22l.08.18c.04.08.14.12.22.08l1.02-.45a.16.16 0 0 0 .09-.22l-.08-.18a.16.16 0 0 0-.22-.08ZM15.34 16.63l.78-.82a.17.17 0 0 1 .23 0l.38.33c.06.06.07.16.02.22l-.69.83a.17.17 0 0 1-.22.03l-.48-.35a.16.16 0 0 1-.02-.24ZM20.53 15.83l-.83.63a.24.24 0 0 0-.04.34l.04.05c.08.1.23.13.34.05l.82-.63c.11-.08.13-.23.05-.34l-.04-.05a.24.24 0 0 0-.34-.05ZM40.27 16.83l-.07.07a.21.21 0 0 0-.01.3l.72.78c.08.09.21.1.3.01l.07-.06c.08-.08.09-.21 0-.3l-.7-.78a.21.21 0 0 0-.31-.02ZM18.67 18.06l-.42-.4a.17.17 0 0 0-.25.01l-.54.58a.17.17 0 0 0 .01.24l.42.4c.07.06.18.06.25-.01l.54-.58a.17.17 0 0 0-.01-.24ZM14.69 19.23l-.5.73A.15.15 0 0 1 14 20l-.74-.37a.15.15 0 0 1-.06-.21l.64-.93a.15.15 0 0 1 .22-.02l.61.57c.05.05.06.13.02.2ZM42.45 19.69h-.01a.21.21 0 0 0-.1.29l.31.67c.05.11.18.16.29.1h.01c.1-.05.15-.18.1-.28l-.31-.68a.21.21 0 0 0-.29-.1ZM17 20.6l-.33.6a.19.19 0 0 1-.26.07l-.59-.38a.18.18 0 0 1-.04-.26l.45-.57c.06-.07.17-.09.25-.03l.47.35c.07.05.09.15.05.23ZM13 22.3l-.38.98a.17.17 0 0 1-.23.1l-.61-.3a.18.18 0 0 1-.09-.21l.36-.9a.17.17 0 0 1 .21-.11l.64.21c.1.04.14.14.1.24ZM43.89 22.66h-.02a.2.2 0 0 0-.14.27l.2.67c.04.11.16.17.27.14h.01a.2.2 0 0 0 .14-.26l-.2-.68a.2.2 0 0 0-.26-.14ZM15.17 24.27l-.74-.3a.2.2 0 0 1-.12-.26l.18-.57a.2.2 0 0 1 .25-.13l.74.2c.11.04.17.15.15.26l-.18.66a.2.2 0 0 1-.28.14ZM11 26.75l.13-.96c.01-.1.11-.17.2-.14l.63.12c.08.02.14.1.14.18l-.02.81c0 .1-.08.18-.17.18h-.73c-.1 0-.2-.09-.18-.2ZM44.8 25.81h-.04a.2.2 0 0 0-.19.2v.72c0 .1.1.19.2.19h.04a.2.2 0 0 0 .19-.2V26a.2.2 0 0 0-.2-.19ZM14.06 26.03l.76.02c.09 0 .16.07.16.16v.76c0 .08-.07.16-.16.16h-.89c-.1 0-.17-.1-.15-.19l.12-.77a.16.16 0 0 1 .16-.14ZM14.81 29.19l-.8.02a.14.14 0 0 0-.14.15l.03.89c0 .07.06.13.14.13l.81-.03c.08 0 .14-.07.14-.14l-.03-.89a.14.14 0 0 0-.15-.13ZM11.16 30.49l-.1-1.1a.16.16 0 0 1 .15-.17l.81.04c.08 0 .15.07.15.15v1.12c0 .09-.07.16-.16.16l-.7-.06a.16.16 0 0 1-.15-.14ZM44.82 29.22h-.06c-.1 0-.18.09-.18.19v.78c0 .1.08.18.18.18h.06c.1 0 .18-.08.18-.18v-.78c0-.1-.08-.19-.18-.19ZM15.31 32.07l.26.78a.15.15 0 0 1-.1.18l-.7.26a.15.15 0 0 1-.2-.1l-.24-.98a.15.15 0 0 1 .13-.19l.7-.05c.07 0 .13.04.15.1ZM44.17 32.5h-.02a.22.22 0 0 0-.28.13l-.21.67c-.04.12.02.24.13.28h.03c.11.04.23-.02.27-.14l.22-.67a.22.22 0 0 0-.14-.27ZM12.81 32.84l.3.96a.16.16 0 0 1-.12.2l-.74.16a.16.16 0 0 1-.18-.1l-.35-1.03c-.04-.1.03-.2.13-.21l.8-.1c.07 0 .14.05.16.12ZM16.25 34.52l.56.74c.09.11.06.28-.06.36l-.53.34a.25.25 0 0 1-.34-.08l-.45-.72a.25.25 0 0 1 .05-.31l.42-.36c.1-.1.27-.08.35.03ZM42.85 35.44h-.02a.23.23 0 0 0-.3.12l-.28.63c-.05.12 0 .26.12.3l.02.02c.11.05.25 0 .3-.12l.28-.64a.23.23 0 0 0-.12-.3ZM13.77 37.48l-.67-.9a.15.15 0 0 1 .04-.2l.67-.34a.15.15 0 0 1 .18.04l.67.89c.05.07.03.17-.05.21l-.66.34a.15.15 0 0 1-.18-.04ZM17.93 37.36l-.5.4a.16.16 0 0 0-.03.23l.59.72c.05.07.16.08.22.03l.5-.41a.16.16 0 0 0 .03-.23l-.58-.72a.16.16 0 0 0-.23-.02ZM40.65 38.5c-.21.25-.3.53-.2.61.1.09.36-.06.57-.32.2-.26.3-.53.19-.62-.1-.08-.36.07-.56.32ZM16.03 40.39l-.63-.81a.13.13 0 0 1 .02-.18l.6-.48a.14.14 0 0 1 .19.02l.75.8c.05.05.04.14-.02.19l-.73.49a.14.14 0 0 1-.18-.03ZM20.16 39.52l.8.64c.05.04.05.13 0 .18l-.4.43a.12.12 0 0 1-.17 0l-.7-.55a.12.12 0 0 1-.03-.16l.32-.5a.12.12 0 0 1 .18-.04ZM38.42 40.45l-.82.62a.24.24 0 0 0-.05.34l.03.04c.08.1.23.13.34.05l.82-.62c.1-.08.13-.23.05-.34l-.03-.04a.24.24 0 0 0-.34-.05ZM22.8 41.24l.8.48c.07.04.08.12.05.17l-.34.58a.12.12 0 0 1-.16.05l-.98-.47a.12.12 0 0 1-.04-.2l.51-.58c.04-.05.1-.06.16-.03ZM18.74 41.28l.87.66c.06.05.07.16.01.22l-.44.46a.14.14 0 0 1-.19.01l-.87-.66a.14.14 0 0 1-.01-.21l.44-.47a.14.14 0 0 1 .19-.01ZM35.63 41.84l-.86.4a.2.2 0 0 0-.1.26l.03.04c.04.1.16.14.26.1l.86-.4a.2.2 0 0 0 .1-.26l-.03-.04a.2.2 0 0 0-.26-.1ZM35.92 42.42l-.92.4a.18.18 0 0 0-.1.23l.03.04c.04.1.14.14.23.1l.92-.4c.1-.03.14-.14.1-.23l-.02-.04a.18.18 0 0 0-.24-.1ZM25.45 42.46l.99.3c.08.03.13.12.1.2l-.1.33a.15.15 0 0 1-.19.1l-1.1-.27a.15.15 0 0 1-.1-.23l.22-.36c.04-.06.11-.1.18-.07ZM32.66 42.89l-.97.17a.18.18 0 0 0-.15.2l.01.1c.02.1.11.17.21.15l.97-.17c.1-.01.17-.1.16-.2l-.02-.1a.19.19 0 0 0-.21-.15ZM22.8 43.64l-1.11-.5a.14.14 0 0 0-.19.08l-.22.5c-.03.07 0 .15.07.18l1.11.5c.07.02.16 0 .19-.08l.22-.5a.14.14 0 0 0-.07-.18ZM29.53 43.18h-1.05a.13.13 0 0 0-.13.13v.23c0 .07.06.13.13.13h1.06c.07 0 .12-.06.12-.13v-.23a.13.13 0 0 0-.13-.13ZM32.79 43.8l-.95.14a.19.19 0 0 0-.16.22l.01.08c.02.1.11.17.22.16l.94-.15c.1-.01.18-.1.16-.2l-.01-.09a.19.19 0 0 0-.21-.16ZM26.14 44.34l-1.23-.18a.14.14 0 0 0-.16.11l-.05.37c-.01.08.04.15.11.16l1.23.18c.08.01.15-.04.16-.12l.05-.37a.14.14 0 0 0-.11-.15ZM28.55 44.38l.84-.02a.16.16 0 0 1 .17.17v.19a.17.17 0 0 1-.1.15.16.16 0 0 1-.07.01l-.9-.02a.16.16 0 0 1-.14-.08.17.17 0 0 1 0-.15l.05-.15a.17.17 0 0 1 .15-.1ZM37.62 15.27l.78.63c.06.05.14.04.18-.02l.2-.25a4.57 4.57 0 0 1-.95-.83l-.23.3a.13.13 0 0 0 .02.17ZM37.92 14.7l.2-.24a.13.13 0 0 1 .17-.02l.78.63c.06.04.06.12.02.18l-.22.27a4.6 4.6 0 0 0-.95-.82Z" fill="#D0202B"/><path d="M31 39V17l10 4.54v12.61l-2 .97V28h-1v7.6l-3 1.46V28h-1v9.55L31 39Z" fill="#A7ABAC"/><path fill-rule="evenodd" d="M30 39V17l-11 4.09V25h6v1.05h-6v8.16L30 39Zm-4-10h-3v1.05h3V29Z" fill="#D0202B"/></svg>