<svg width="56" height="56" xmlns="http://www.w3.org/2000/svg"><path fill="#1E4696" d="M0 0h56v56H0z"/><path d="M27.6 22.841c.873-.184 1.51-.339 1.913-.47v.613c0 .736-.04 1.236-.124 1.497-.117.404-.366.743-.747 1.02-.517.361-1.054.544-1.623.544-.506 0-.924-.157-1.25-.471a1.478 1.478 0 01-.492-1.116c0-.437.205-.794.614-1.082.27-.172.837-.351 1.709-.535zM30.171 28h1.547l-3.672 1.865-3.588-1.891a5.19 5.19 0 001.622.237c.695 0 1.348-.127 1.958-.38a5.74 5.74 0 001.723-1.151c.023.06.06.18.11.362l.032.11c.105.354.196.661.268.848zm-3.648-11.891c-.107.016-.211.033-.313.047l1.915-.994 13.944 7.39-9.082 4.736a5.612 5.612 0 01-.269-.895c-.104-.486-.152-1.24-.152-2.259l.034-3.588c0-1.337-.142-2.252-.42-2.752-.28-.5-.764-.912-1.447-1.236-.687-.325-1.728-.558-3.133-.558-.382 0-.742.056-1.078.109zm-4.066 3.265l2.852.504c.195-.542.447-.92.76-1.133.314-.216.748-.323 1.308-.323.83 0 1.39.125 1.69.377.295.254.446.671.446 1.265v.305c-.567.233-1.584.486-3.051.755-1.087.206-1.924.445-2.5.717a3.122 3.122 0 00-1.348 1.18c-.32.516-.479 1.1-.479 1.754 0 .994.35 1.815 1.056 2.466.065.06.134.117.203.173l-9.37-4.94 9.25-4.797c-.354.462-.625 1.027-.817 1.697zM28.092 14L12 22.454 28.001 31 44 22.544 28.092 14zm7.91 19v7H37v-6l2 6h1l2-6v6h1v-7h-1.896L39.5 38l-1.584-5H36zM31 33v7h4v-1h-3v-2h3v-1h-3v-2h3v-1h-4zm-6 0v7h1v-3.627L28.748 40H30l-2.774-3.79L30 33h-1.252L26 36.021V33h-1zm-5 0v7h4v-1h-3v-6h-1zm-3.024 4h-1.94L16 34.283 16.976 37zM15.5 33L13 40h1l.762-2h2.488l.75 2h1l-2.5-7h-1z" fill="#fff"/></svg>