<svg width="56" height="56" viewBox="0 0 56 56" xmlns="http://www.w3.org/2000/svg"><path fill="#F0F3FA" d="M0 0h56v56H0z"/><path fill-rule="evenodd" d="M38 12H14v4h24v6H14v22h28v-4H18v-6h24V12h-4Zm0 18v-4H18v4h20Z" fill="#1A1A1A"/><path d="M36.04 39H35l1.35-4h1.3L39 39h-1.04L37 36h-.03l-.94 3Zm-.14-1.57h2.18v.73H35.9v-.73ZM31 39v-4h1.6c.28 0 .53.06.74.18.21.11.37.27.49.48.11.2.17.45.17.72 0 .28-.06.52-.18.73-.11.2-.28.36-.49.48-.22.11-.47.17-.77.17h-.98V37h.81c.14 0 .26-.03.35-.08.1-.05.17-.12.22-.21.05-.1.07-.2.07-.33a.66.66 0 0 0-.07-.32.5.5 0 0 0-.22-.2.76.76 0 0 0-.35-.08h-.46V39H31ZM26 39v-4h.97v3.23h1.66V39H26ZM21.04 39H20l1.35-4h1.3L24 39h-1.04L22 36h-.03l-.94 3Zm-.14-1.57h2.18v.73H20.9v-.73Z" fill="#1A1A1A"/></svg>