<svg width="56" height="56" viewBox="0 0 56 56" xmlns="http://www.w3.org/2000/svg"><path fill="#F0F3FA" d="M0 0h56v56H0z"/><path d="M23.7 43h-9.93a.78.78 0 0 1-.71-1.07L25.19 12h6.96l8.35 21c-.9-2-3-5.33-6.9-5.33-1.62 0-2.8.26-3.19.39l-2.12-5.24-5.55 13.7a3.8 3.8 0 0 0 .42 3.61l1.16 1.64A.78.78 0 0 1 23.7 43Z" fill="#C72027"/><path d="M39.86 31.25a8.5 8.5 0 1 1-14.72 8.5 8.5 8.5 0 0 1 14.72-8.5ZM29.8 28.06h-.03l-1.23.43c-.04.02-.04.08 0 .1l1.82.77a.05.05 0 0 0 .05 0l1.06-.72a.05.05 0 0 0-.01-.1l-1.66-.48Zm-2.3 1.37c.01-.1-.1-.14-.16-.08l-1.2 1.22a.1.1 0 0 0-.02.05l-.25.91a.1.1 0 0 0 .08.12.1.1 0 0 0 .05 0l1.33-.5a.1.1 0 0 0 .06-.08l.12-1.64Zm.46 1.32c0 .06.06.1.1.07l1.76-1c.04-.02.04-.1-.01-.12l-1.68-.68a.07.07 0 0 0-.1.06l-.07 1.67Zm4.11-2.67.06-.01.52-.49c.05-.04 0-.12-.05-.11l-1.84.18c-.07.01-.08.12 0 .14l1.31.3Zm2.77 1.48c.04.02.1.01.14-.03l.97-1.11a.12.12 0 0 0-.05-.19l-2.35-.69a.12.12 0 0 0-.1.03l-.72.62a.12.12 0 0 0 .02.18l2.09 1.19Zm-9.53 3.18c0-.12-.03-.2-.1-.26a.1.1 0 0 0-.15.05 8.68 8.68 0 0 0-.57 2.8c0 .11.05.15.15.13l.61-.14a.2.2 0 0 0 .15-.2 26.92 26.92 0 0 1-.1-2.38Zm.56 2.26c0 .1.1.18.2.14l1.5-.56c.07-.03.1-.1.1-.17l-.34-2.47a.16.16 0 0 0-.2-.12l-1.23.5a.15.15 0 0 0-.1.14l.07 2.54Zm7.32-3.87c.03.02.07.02.1 0l1.19-1.07a.08.08 0 0 0-.02-.12l-2.26-1.17a.08.08 0 0 0-.08 0l-1.04.81a.08.08 0 0 0 0 .13l2.11 1.42Zm-5.34.53.3 2.59c0 .06.07.1.12.07 1.7-.75 3.2-1.66 4.52-2.7.03-.04.03-.1 0-.12l-2.02-1.36a.4.4 0 0 0-.43-.01l-2.42 1.4a.13.13 0 0 0-.07.13Zm8.78-3.06a.1.1 0 0 0-.13.01l-1.07 1.2a.1.1 0 0 0 0 .14l1.68 1.63c.04.04.1.03.14 0l1.21-1.38a.1.1 0 0 0-.01-.14l-1.82-1.46ZM25.52 36a.2.2 0 0 0-.23-.14l-.66.14a.2.2 0 0 0-.15.24l.44 1.96c.02.1.12.17.22.16l.85-.13a.2.2 0 0 0 .16-.25l-.63-1.99Zm9.6-5.62a.06.06 0 0 0-.08 0l-1.26 1.18a.06.06 0 0 0 0 .09l1.5 1.75c.03.02.07.03.1 0l1.4-1.31a.06.06 0 0 0 0-.1l-1.66-1.61Zm-7.3 4.85a.17.17 0 0 0-.2-.09l-1.5.51a.17.17 0 0 0-.1.21l.67 2.06a.17.17 0 0 0 .2.11l1.72-.55c.1-.03.14-.14.1-.22l-.88-2.03Zm1.57 1.93c2-.93 3.83-2.02 5.5-3.27a.12.12 0 0 0 .02-.18c-.44-.44-.93-.98-1.46-1.62-.1-.12-.22-.14-.36-.03a22.6 22.6 0 0 1-4.74 2.83.1.1 0 0 0-.05.12l.97 2.1c.03.06.07.08.12.05Zm9.23-2.74c.01.03.05.04.07.01l1.36-1.63a.05.05 0 0 0 .01-.05l-1.17-2.17a.05.05 0 0 0-.08 0l-1.37 1.52a.05.05 0 0 0 0 .05l1.18 2.27Zm-11.97 6.62c0 .02.03.03.04.02l1.29-.2c.03 0 .05-.04.03-.07l-1.58-2.12a.05.05 0 0 0-.05-.02l-1.14.25a.05.05 0 0 0-.03.08l1.44 2.06ZM36.7 36.3c.01.03.06.04.08.02l1.39-1.38a.05.05 0 0 0 0-.06l-1.04-2.32a.05.05 0 0 0-.07-.01l-1.43 1.35a.05.05 0 0 0-.01.05l1.08 2.35Zm-8.1 4.3a.16.16 0 0 0 .16.06l1.86-.6c.1-.03.14-.16.07-.25l-1.56-1.85a.16.16 0 0 0-.17-.05l-1.8.58a.16.16 0 0 0-.07.25l1.5 1.87Zm1.07-2.78c.47.65 1.04 1.32 1.56 1.77.1.08.24.1.36.04 1.61-.78 2.93-1.72 4.56-2.8.1-.07.12-.15.07-.25l-1.01-2.2a.1.1 0 0 0-.15-.04 24.05 24.05 0 0 1-5.34 3.3.13.13 0 0 0-.05.18Zm9.54.8c.42-.44.71-.78.88-1.02.13-.18.23-.46.28-.84a8.47 8.47 0 0 0-.1-3.12c-.04-.16-.1-.17-.2-.04-.18.21-.54.62-1.1 1.23-.15.17-.23.31-.18.55.24 1.02.33 2.02.29 3.02 0 .06-.02.38.13.21Zm-7.78 4.5a.09.09 0 0 0 .05-.06c0-.02-.01-.04-.05-.06-.99-.41-1.88-.95-2.67-1.6a.46.46 0 0 0-.4-.1l-.91.2c-.14.03-.15.09-.04.17.9.7 1.87 1.2 2.92 1.52.42.13.71.1 1.1-.07Zm6.97-7.56c0-.03-.05-.05-.08-.03l-1.42 1.34a.04.04 0 0 0-.02.04l.38 3.28c0 .03.04.05.07.03l1.29-1.05c0-.01.02-.03.01-.04l-.23-3.57ZM31 40.43c-.64.27-1.2.48-1.68.61-.08.03-.1.14-.02.18 1.41.81 2.3 1.3 2.65 1.45.25.12.47.14.66.07.37-.14.8-.32 1.27-.52a.08.08 0 0 0 .01-.14c-.72-.45-1.43-.9-2.12-1.36-.18-.12-.53-.39-.77-.29Zm5.69.2a.09.09 0 0 0 .04-.09l-.23-3.04c0-.06-.08-.1-.13-.07l-4.4 2.72a.09.09 0 0 0 0 .15l2.61 1.57h.09l2.02-1.25Zm2.9-1.65c-.03-.02-.1.02-.17.1a2.14 2.14 0 0 0-.41.7c-.04.1-.04.17-.02.2.11.06.37-.38.4-.45.08-.13.14-.26.18-.37.04-.1.04-.17.01-.18ZM38.26 41c.16-.15.2-.57.26-.78.03-.12-.1-.22-.2-.14l-1.08.82a.13.13 0 0 0-.05.09l-.1.82c-.01.11.14.2.22.1l.95-.91Zm-4.88 1.95c-.12.05-.1.23.04.24l.74.08h.04l1.19-.3c.12-.03.13-.2.01-.24-.19-.07-.64-.34-.83-.26l-1.19.48Zm2-.93c-.07.04-.06.14.01.16l.88.32c.03.01.06 0 .09-.02.05-.05.18-.13.19-.21l.07-.79a.09.09 0 0 0-.13-.08l-1.11.62Z" fill="#C72027"/></svg>