<svg width="56" height="56" xmlns="http://www.w3.org/2000/svg"><path fill="#3051A0" d="M0 0h56v56H0z"/><path d="M22.238 26.082c-.348-1.163-1.073-2.268-1.393-2.675.302 0 1.984-.136 2.787-.204l-1.394 2.879zM23.23 43v-5.294l2.933-.558L23.23 43z" fill="#EC3236"/><path fill-rule="evenodd" d="M28.015 14.35L16 37.736l3.038-.83-.414 2.353c3.498-1.538 12.06-3.69 18.321 0 .047-.185.065-1.006-.23-2.814l3.13.784-11.83-22.879zm-.046 2.49l-7.642 19.005c2.67-1.353 9.603-3.248 15.974 0L27.969 16.84z" fill="#fff"/><path d="M45 14.995c-9 6.12-15.776 7.167-19.54 7.923l-2.656 6.702c.138.966.405 3.807.52 5.13 1.15-.347 3.426-.664 4.738-.695C32.545 26.219 40.537 19.304 45 14.995z" fill="#EC3236"/></svg>