<svg width="56" height="56" viewBox="0 0 56 56" xmlns="http://www.w3.org/2000/svg"><path fill="#F0F3FA" d="M0 0h56v56H0z"/><path d="M39.14 33C37.25 33 36 31.8 36 30s1.25-3 3.14-3c1.5 0 2.6.8 2.85 2.02.03.12-.03.2-.15.2h-1.12c-.1 0-.15-.06-.19-.16-.16-.5-.7-.84-1.4-.84-1.02 0-1.63.7-1.63 1.78 0 1.07.61 1.78 1.64 1.78.68 0 1.23-.33 1.4-.84.03-.1.07-.15.18-.15h1.12c.12 0 .18.07.15.19-.24 1.22-1.35 2.02-2.85 2.02ZM29.99 27c1.76 0 3.01 1.18 3.01 2.96A2.9 2.9 0 0 1 29.99 33c-.67 0-2.99-.06-2.99-1.2v-7.62c0-.1.07-.18.17-.18h1.16c.1 0 .17.07.17.18v3.33c.49-.36.93-.51 1.49-.51Zm-.01 4.8c.95 0 1.52-.75 1.52-1.84 0-1.08-.57-1.85-1.52-1.85-.93 0-1.48.77-1.48 1.85 0 1.09.55 1.85 1.48 1.85ZM23.37 27c1.57 0 2.63 1.1 2.63 2.75v3.07c0 .1-.07.18-.18.18h-1.14c-.1 0-.18-.07-.18-.18v-2.98c0-.94-.56-1.57-1.45-1.57-.76 0-1.25.6-1.25 1.48v3.07c0 .1-.07.18-.18.18h-1.14c-.1 0-.18-.07-.18-.18v-2.98c0-.94-.53-1.57-1.34-1.57-.86 0-1.46.6-1.46 1.48v3.07c0 .1-.07.18-.18.18h-1.14c-.1 0-.18-.07-.18-.18v-4.07c0-.3-.1-.45-.45-.45l-.33.03c-.12.02-.22-.02-.22-.14v-.85c0-.11.04-.18.14-.22.23-.08.5-.12.74-.12.65 0 1.07.28 1.3.74a2.99 2.99 0 0 1 2.09-.74c.82 0 1.48.33 1.92.88.5-.55 1.25-.88 2.18-.88Z" fill="#232021"/><path d="M7.16 33c-.14 0-.2-.08-.14-.2l3.7-7.67c.04-.08.12-.13.21-.13h1.16c.1 0 .17.03.2.13l3.69 7.66c.06.13 0 .21-.14.21h-1.26c-.1 0-.17-.03-.21-.13l-.8-1.6H9.46l-.8 1.6c-.03.1-.1.13-.2.13h-1.3Zm2.87-3H13l-1.48-3.33L10.03 30Z" fill="#232021"/><path fill-rule="evenodd" d="M42.58 28.71v-1.14a4.51 4.51 0 0 1 2.34-.57c1.5 0 3.08.79 3.08 1.64V31c0 .28.22.5.5.5h.5v1.36c-.17.04-.57.14-.83.14-.34 0-1 0-1.59-.79-.25.27-.98.79-1.91.79-1.17 0-2.67-.43-2.67-1.79 0-1.35 1.42-2 2.67-2 .66 0 1.55.15 1.83.22-.03-.4-.52-1.22-1.58-1.22-1.07 0-2 .34-2.34.5Zm3.92 1.79c-.06.43-.63 1.29-1.83 1.29-.59 0-1.17-.15-1.17-.65s.33-.85 1.25-.85c.73 0 1.53.14 1.75.21Z" fill="#232021"/><path d="M34.5 25a.5.5 0 1 0 0 1 .5.5 0 0 0 0-1Zm0 2c-.28 0-.5.24-.5.53v6.94c0 .2.11.38.27.47V36h-4.34c-1.07 0-1.93.9-1.93 2h1c.15-.58.65-1 1.25-1h8.5c.6 0 1.1.42 1.25 1h1c0-1.1-.86-2-1.93-2h-4.34v-1.06a.53.53 0 0 0 .27-.47v-6.94c0-.3-.22-.53-.5-.53ZM32.72 17.04c.1-.03.21-.04.33-.04.65-.01 1.39.31 1.39.9 0 .48-.16.95-.6 1.07a.5.5 0 0 1-.17.03c-.05 0-.07-.03-.06-.07 0-.04.02-.09.06-.15.07-.1.12-.25.12-.4 0-.27-.27-.38-.53-.38-.3 0-.56.32-.56.6 0 .15.05.3.15.45.2.3.48.54.84.74.92.5 2.07 1.21 2.07 2.21 0 .5-.18.9-.51 1.46-.1.16-.36.52-.58.54-.03 0-.06-.02-.07-.05a2 2 0 0 1 .02-.6c.11-.69-.68-1.38-1.26-1.66a18.7 18.7 0 0 1-1.88-1.02c-1.06-.68-1.66-1.8-1.43-2.98a3.23 3.23 0 0 1 3.3-2.69c1.51.06 2.6 1.14 2.65 2.52.04 1.06-.86 1.58-1.8 1.91a.08.08 0 0 1-.09-.01c-.07-.06-.07-.13.01-.2.37-.36.7-.9.7-1.4-.01-.52-.53-1.09-1.15-1.09-.42 0-.72.06-.82.09-.06.01-.2.1-.2.17 0 .03.04.06.07.05Z" fill="#232021"/></svg>