<svg xmlns="http://www.w3.org/2000/svg" width="56" height="56" viewBox="0 0 56 56"><path fill="#F0F3FA" d="M0 0h56v56H0z"/><path fill-rule="evenodd" d="M37 19.25a4.75 4.75 0 0 0-1.57-.25c-2.62 0-4.18.67-5.79 2.14A7.6 7.6 0 0 0 25.26 20c-1.54 0-3.38.56-4.5 1.3l-.4.33a8.66 8.66 0 0 0-4.62-1.13 8.13 8.13 0 0 0-8.26 8.18c0 3.94 3.27 7.82 7.65 7.82 1.83 0 3.53-.73 3.86-.95v.95h5v-1.21c.42.11 1.1.21 1.53.21 2.08 0 3.92-.38 5.54-1.51V34c.99.75 2.22 1.27 3.55 1.48L35.97 32l1.51 1.5 2.65-.4.87-2.1 2.4 3c2.8-1.23 5.1-3.9 5.1-7.37A8.06 8.06 0 0 0 37 19.25zm-1.7-.75c-2.13 0-4.26.6-5.72 2a9.35 9.35 0 0 0-9.23.49 9.28 9.28 0 0 0-4.6-.99A8.57 8.57 0 0 0 7 28.68c0 4.2 3.38 8.32 8.14 8.32 1.45 0 2.78-.28 3.36-.54V37h6v-1.1c.34.06.73.1 1.03.1 1.82 0 4-.36 5.52-1.36A8.08 8.08 0 0 0 35 36l.02-.07 1.15-3.04L37.28 34l3.24-.51.59-1.5 2.1 2.56A8.57 8.57 0 0 0 49 26.62a8.56 8.56 0 0 0-12.01-7.89 9.13 9.13 0 0 0-1.7-.23zM34 34.3l1.6-4.3 2.02 2.4 1.94-.34 1.13-2.86 3.03 3.5a7.59 7.59 0 0 0 3.78-6.43c0-3.81-3.13-6.77-7.08-6.77-1.3 0-2.37.18-3.42.77a5.85 5.85 0 0 0-2.19-.27c-1.41 0-3.47.66-4.41 1.69a5.54 5.54 0 0 1 1.8 2.06l-1 2.88 2.3 2.05c0 1.76-.67 3.63-1.8 4.63.44.47 1.37.9 2.3.99zM25.84 21A6.22 6.22 0 0 1 31 24l-1 3 2.4 2.2c-.22 3.22-2.82 5.2-6.56 5.2h-.05c-.51 0-1.07 0-1.79-.15v-6.47a6.48 6.48 0 0 0-2.8-5.48 8.61 8.61 0 0 1 4.64-1.3zM23 35.5v-7.06c0-4.5-3.2-6.94-7.2-6.94-3.96 0-7.3 3.1-7.3 6.94a7.1 7.1 0 0 0 7.1 7.06c1.71 0 3.16-.75 4.4-1.73v1.73h3z" fill="#4B721C"/></svg>