<svg width="56" height="56" xmlns="http://www.w3.org/2000/svg"><path fill="#F4AE00" d="M0 0h56v56H0z"/><path d="M28.695 22.288c.01-.206.003-.372-.005-.57l-.002-.051-.002-.062a2.726 2.726 0 01-.005-.256c.018-.14.016-.2.016-.227l.001-.02.009-.001c.014-.001.044-.003.11-.048.098-1.212-.06-1.606-.341-2.311a20.93 20.93 0 01-.236-.613c-.105-.294-.234-1.228-.097-1.544.097-.22.322-.354.538-.482.18-.107.354-.21.44-.357-.342.094-.545.277-.725.439-.124.11-.237.212-.376.269.014-.492.06-.756.089-.927a.894.894 0 00.023-.254c-.015-.121-.094-.235-.31-.546a20.401 20.401 0 01-.522-.775c-.307-.47-.694-1.064-.913-1.27l-.241 13.333 1.294.531.011-2.372.455.204-.03-2.786.819.696zm11.952 10.049a9.5 9.5 0 01.364-.847c.084-.18.167-.359.238-.524.085-.201.187-.4.286-.593a6.34 6.34 0 00.306-.647.276.276 0 01-.065-.137c0-.006-.001-.01-.003-.01-.002-.002-.006.002-.014.01-.017.017-.05.05-.122.1a1.421 1.421 0 00-.124.188 4.68 4.68 0 00-.213.427c-.073.166-.134.312-.196.46-.064.15-.128.304-.206.481-.23.52-.672 1.37-.969 1.718-.318.372-.615.63-.938.91-.141.122-.287.249-.442.391-.245.225-.498.39-.712.528-.386.25-.649.421-.526.725.234.055.297-.032.367-.13s.15-.208.418-.196c-.015.459-.745 1.455-1.19 2.063-.1.134-.184.25-.244.337-.072.103-.14.211-.21.32-.436.682-.881 1.379-2.024 1.117-.441-.102-1.213-.038-1.99.025-.602.05-1.207.1-1.664.073a36.002 36.002 0 01-1.668-.149 31.24 31.24 0 00-1.8-.155c-.4-.019-.832-.013-1.273-.008-.853.011-1.733.022-2.459-.142-.603-.136-1.07-.384-1.54-.632-.35-.186-.7-.371-1.107-.511-.22-.075-.407-.106-.575-.134-.33-.054-.58-.096-.831-.433-.396-.529-.526-.533-.668-.538-.106-.004-.22-.007-.456-.23-.47-.443-.55-.451-1.2-.515l-.166-.017c-.958-.097-1.057-.197-1.191-.334a.925.925 0 00-.228-.18c-.177.458-.717 1.37-1.233 2.244-.524.884-1.024 1.729-1.097 2.019 2.118.027 4.247.015 6.373.003 1.978-.01 3.954-.022 5.915 0 .858.008.889-.12.917-.236.036-.148.067-.277 1.781-.087 1.185.132 3.058.327 4.206.229.186-.016.355-.036.514-.056.502-.06.91-.11 1.504.02 1.233.27 1.603-.32 2.139-1.178.112-.18.232-.37.368-.568.26-.378.508-.75.756-1.122.334-.499.667-.998 1.03-1.513.301-.427.623-.839.955-1.258.196-.246.34-.469.487-.695.127-.196.255-.394.42-.613zm-1.571 3.719c.172-.358.803-1.61 1.014-1.83l2.934 5.164-4.123.033c-.365-.03-.364-.184-.352-1.087.01-.839.219-1.637.527-2.28z" fill="#fff"/><path d="M19.01 31.65c-.004-.004-.042-.05.064-.01l.09.031a.726.726 0 00.1.044h.001s0 .001 0 0v.002c-.001.002-.01.014.095.119.091.093.068.084.064.082l.002.001.057.04c.012.01.034.023.048.03l.248.082c-.741.775.283.538.338.518.157-.054.16-.057.168-.072.008-.014.021-.037.158-.114l-.038.364c.11-.024.17-.046.21-.06.03-.01.046-.016.062-.014.018.003.034.015.07.043.022.018.053.042.098.074.07.467.177.552.529.734.343.176.517.11.656.056.239-.091.377-.144 1.087 1.113.332.588.333.667.335.779.001.057.002.122.047.267.16.522.881.341 1.824.104.517-.13 1.102-.277 1.697-.333.156-.015.342-.014.53-.013.252.002.506.004.69-.035.027-.005.11-.044.236-.103.333-.157.971-.458 1.683-.66.324-.093 1.04-.143 1.6-.182.391-.027.706-.049.757-.076.374-.872-1.528-.627-2.043-.535-.812.146-1.485.332-2.195.646l-.107.047c-.973.432-3.262 1.45-4.313 1.249-.13-.16-.243-.49-.346-.789-.053-.153-.102-.297-.15-.408-.073-.086-.117-.159-.16-.227a1.424 1.424 0 00-.116-.172c-.073-.09-.125-.131-.165-.163-.07-.057-.103-.083-.146-.29l-.314-.33c-.261-.271-.373-.324-.677-.467-.043-.02-.091-.042-.143-.068l-1.808-1.191a5.054 5.054 0 01-.132-.118c-.24-.22-.362-.334-.753-.053a.62.62 0 01.061.058zm.028-12.91l.049-.119c.431-.355 1.004-.534 1.592-.717a8.69 8.69 0 001.067-.384c.8-.369 1.395-.628 2.16-.347.37.135.52.208.58.42-.199-.012-.359-.09-.52-.167-.29-.14-.583-.282-1.109-.06l-.394.165c-.007-.013-.023.002-.039.017l-.016.014c.093.065.386.091.755.125a9.7 9.7 0 011.112.146c.37.08.376.112.386.162a.121.121 0 00.014.042c-.105.056-.436 0-.82-.063-.564-.093-1.242-.206-1.486-.016.093.066.425.085.812.107.497.029 1.086.063 1.374.209a1.185 1.185 0 00-.145.1c-.012.01-.017.014-.022.014-.004 0-.008-.003-.014-.006-.023-.015-.081-.05-.307-.08a5.981 5.981 0 00-1.184-.019l-.464.083c.249.099.535.088.805.079.279-.01.54-.02.726.093-.015.008-1.376.163-1.51.175-.247.047-.51.143-.783.243-.444.162-.911.332-1.365.313l-.09-.45a.946.946 0 00-.614.232c-.12.092-.24.181-.455.209-.22-.224-.199-.272-.095-.52z" fill="#fff"/><path d="M26.494 33.582l.318-.02.028-1.386c-.12-.19-.22-.156-.3-.127-.083.03-.145.051-.186-.2-.043-.267.031-.265.177-.262.084.002.191.005.314-.042l.014-2.21-.696-.102-.122 4.36.453-.011zm-.954.948c-.012-.01-.016-.03-.024-.068a.81.81 0 00-.022-.098l.025-.502.87-.04 1.003-.02-.018.642-.405.018c-.203.009-.404.017-.605.028-.061.003-.137.01-.214.017-.1.009-.204.018-.277.018-.107.001-.18.007-.23.01-.06.005-.088.008-.103-.005zm-5.139-.816c.15.128.23.24.341.393l.06.082c.079.11.117.189.146.247.053.11.07.147.261.178-.086-.44-.4-.753-.668-1.02a7.87 7.87 0 01-.15-.152 4.936 4.936 0 01-.158-.033c-.039-.008-.053-.011-.055-.008-.001.002.001.006.005.012.014.021.045.07-.007.151l.225.15zm-.297 1.05l.088.018.53-.127.172.284c-.436.08-.649.087-1.076-.002l.286-.173zm21.296-12.9c-1.03-.764-2.337-.733-3.75-.495l-.167.032c-.746.14-1.352.253-2.053.501l-.23.084c-.61.226-1.412.522-1.917.255-.02-.336.071-.407.164-.479.086-.066.172-.133.175-.408-1.08-.61-3.073 1.22-1.88.974.096-.02.2-.06.308-.1.294-.112.608-.232.833.027.137.16.074.224-.027.326a.747.747 0 00-.241.428c.31.132 1.093-.188 1.983-.551 1.19-.486 2.574-1.051 3.282-.722.31.487-.388 1.193-.896 1.707-.184.186-.343.347-.42.463-.618.928-.8 2.112.18 2.457 1.44.505 2.908-.511 3.72-1.474.041-.05.082-.104.124-.159.222-.292.466-.613.945-.475.193.723-.226 1.106-.59 1.437-.229.21-.436.398-.452.64 1.068.337 2.48-1.448 1.762-3.352-.152-.403-.393-.645-.618-.87a4.114 4.114 0 01-.234-.245zm-10.619-4.916c.004-.014.01-.04-.013-.176l.333.063-.15.517.349.132c-.169.13-.204.124-.216.122h-.004c-.003 0-.004.004-.01.017a1.38 1.38 0 01-.043.098l.397.126c.097.041.128.01.146-.008.021-.02.025-.024.09.12l-.8.316c-.095.056-.117.038-.121.026v-.007a.494.494 0 01-.023.107l.087-.031c.345-.122.678-.24 1.077-.123-.085.275-.13.265-.215.248-.069-.013-.163-.032-.325.095l.053.047c-.031.006-.012.026.006.035.018.008.033.005-.006-.035a.375.375 0 01.12.007h.008c.098-.003.979-.032.466.562l-.057-.03c-.038-.018-.047-.023-.05-.03v-.01c0-.017 0-.056-.092-.191a.482.482 0 01-.034-.055c.105.051.09.019.055-.01-.034-.028-.087-.054-.055.01a1.064 1.064 0 01-.028-.014.15.15 0 00-.009.046v.007l-.047.195c-.017.031-.024.05-.029.063-.003.01-.005.015-.01.02-.005.006-.014.009-.035.016a1.595 1.595 0 00-.067.026c-.102.04-.434.06-.574.068h-.015c-.77.046-1.388.078-1.505-1.045a5.828 5.828 0 00-.185-1.033c-.084-.308-.088-.32.212-1 .102-.233.09-.396.08-.547-.012-.164-.023-.314.11-.522.176-.278.444-.42.877-.364l.03.004c.322.04.405.051.478.03a.597.597 0 00.08-.034 2.32 2.32 0 01.348-.132c-.045.136-.075.147-.117.163-.042.015-.096.035-.189.183.257.006.39-.033.553-.082.09-.027.19-.056.328-.083a.13.13 0 01.015.034l.002.005c.078.169.134.268.178.344.112.196.142.248.234.955-.995-.033-.882.44-.781.857.038.158.074.308.047.42-.22-.056-.28-.302-.345-.563-.065-.267-.134-.55-.38-.665-.568-.087-1.264-.159-1.231.426.264.156.306.11.38.033.071-.076.172-.182.538-.16a.7.7 0 01-.196.08c-.071.02-.135.036-.28.151.057.043.007.083-.015.102-.007.005-.011.008-.01.01 0 .003.023-.004.092-.022l.19-.05-.001.003a.246.246 0 00-.021.068.152.152 0 01-.026.063l-.007.011-.102.155c.12.015.184.033.224.044a.158.158 0 00.057.01c.021-.002.04-.017.088-.05.027-.02.064-.047.115-.082-.028-.07-.027-.073-.024-.086zm.988 14.222l.008.44-.007.664.076 1.292.248-.054c-.316-1.95.153-3.54 1.41-4.77a2.99 2.99 0 01.38-.3c.13-.092.261-.183.372-.293.287-.282.369-.527.28-1.002a6.287 6.287 0 01-.04-.283c-.04-.308-.095-.729-.166-.823-.429.08-.291.442-.159.79.045.118.089.234.11.337.144.682-.154.907-.596 1.239-.398.299-.912.685-1.323 1.572a.218.218 0 01-.015-.037c-.005-.016-.01-.03-.012-.023l-.216-1.21c-.02-.142-.04-.319-.06-.513-.078-.734-.182-1.725-.518-2.073a7.718 7.718 0 00-.224-.22c-.202-.194-.397-.382-.533-.63l.43 5.055c.231.047.4.018.522-.004.258-.045.31-.054.31.768l-.277.078z" fill="#fff"/><path d="M35.694 28.36c-2.409.255-2.732 1.995-.733 1.762 2.33-.27 2.42-1.94.733-1.761zm.422 4.393c.214-.07.247-.117.343-.254.073-.104.183-.26.438-.518.125-.127.294-.279.481-.445.743-.664 1.75-1.562 1.197-2.03-.32-.273-.815.181-.966.341-.258.272-1.467 2.438-1.493 2.906zm-5.541-11.948c.002.101.004.208-.01.323-.567-.07-1.28-1.237-1.1-1.804.307-.023.39.103.492.256.05.076.104.158.192.232 1-.164.874.002.67.273-.095.126-.207.274-.232.423-.016.094-.014.192-.012.297zm.371 4.392l.292.25c.01-1.304-.256-1.812-.91-2.392-.016.25.03.618.069.94.014.116.028.225.037.322.048.484.107.529.251.639.067.05.151.114.261.241zm-.516-2.344c-.026-.027-.06-.064-.116-.118a1.57 1.57 0 00-.107-.114l-.03-.03c-.196-.257-.23-1.206-.232-1.518.611.65.63.791.694 1.941a.715.715 0 01-.209-.16zm-1.066-4.003c.102-.202.059-.296-.03-.487a4.436 4.436 0 01-.066-.149.504.504 0 01-.092.022c-.05.008-.058.01-.069.098-.009.073.008.097.024.118.018.027.034.048-.009.153-.304-.173-.26-.254-.203-.363.043-.081.094-.178.014-.34l-.247.197-.018-.348.36-.015a.23.23 0 00.049-.018.123.123 0 01-.021-.062c-.006-.041-.01-.073-.177-.118-.47-.125-.483.328-.337.765.116.347.516.652.822.546zm2.906-1.156a2.4 2.4 0 00-.04.104c-.395-.13-.468-.67-.437-1.02.07.022.111.036.143.048.07.024.095.033.291.064l-.29.064.437.221c.039.136-.04.346-.105.518zm-1.339 4.08c.014-.003.828-.595.637-.973-.194.06-.267.145-.37.264-.032.038-.067.08-.11.124l-.046.046c-.186.19-.27.277-.11.539zm.336-7.399c.032-.01.037-.012.157-.148.12-.02.139-.042.158-.043.017 0 .034.013.11.055-.206.234-.479.349-.75.455.027-.128-.007-.138-.006-.142 0-.005.035-.005.2-.11a.474.474 0 01.131-.067z" fill="#fff"/><path d="M30.48 16.81l.288-.039c.023.134.017.162.013.176-.003.014-.004.016.026.087-.141.095-.17.128-.204.132-.037.004-.078-.028-.28-.054l.101-.155.006-.01a.15.15 0 00.027-.064.224.224 0 01.023-.073zm-12.338 6.821l-.033.07c-.022-.016.008-.046.026-.063l.007-.007zm0 0l.003-.006-.002.005-.001.001zm4.631 10.186l-.315-.33c.043-.022.076-.035.1-.045.086-.033.09-.034.143-.28a8.39 8.39 0 00.126-.793c.041-.335.078-.628.167-.827.249-.085.465-.114.691-.144.131-.017.265-.035.411-.065.273-.055.295-.056.506-.073l.067-.006c.172-.015.185-.025.211-.046.025-.019.062-.047.247-.096l-.106 1.381a7.632 7.632 0 01-.023.318c-.028.324-.054.622.062.886-.176.002-.367-.001-.564-.005-.639-.011-1.333-.023-1.723.125z" fill="#0D3862"/><path fill-rule="evenodd" d="M26.123 11.407l-.03-.242c.022-.041.034-.068.042-.086.009-.02.013-.029.02-.034.005-.004.012-.005.025-.008a.712.712 0 00.125-.037l.653.998c.183.507 1.276 2.189 1.6 2.62.141-.15.911-.704 1.118-.774.464-.157.835-.073 1.24.017.125.028.253.057.389.08l.842.102.216.513.005.003.188.02.095.656v.001l.242.128c.09.732-.026 1.182-.093 1.445-.022.085-.039.15-.042.199-.02.276-.022.561-.024.85-.003.33-.006.663-.034.99-.039.45.12 1.254.392 1.452.158.116 1.157.416 1.413.47 1.803.379 2.963.282 3.923.203.757-.063 1.39-.116 2.115.083l.497.19c.03.02.052.035.07.045-.004.006-.003.018.005.04.28.101.311.125.521.28l.052.038c.061.045.11.088.16.132.087.075.173.15.322.235l-.027.125h.004c.247.068.668.774.853 1.12.488.911.579 2.32.355 3.337a5.15 5.15 0 01-.235.786l-.232.467c-.058.085-.083.098-.087.1a.5.5 0 01-.12-.003.164.164 0 00-.069 0 .179.179 0 01.066.001c.03.004.069.008.12.003a6.25 6.25 0 01-.291.701c-.117.252-.238.512-.326.787l-.11.346c-.127.398-.24.754-.386 1.138-.11.288-.309.71-.513 1.144-.334.707-.682 1.445-.68 1.685.174.146 3.172 5.567 3.508 6.246l-31.688-.015c.062-.311.358-.79.645-1.253.287-.464.565-.914.59-1.166l.248-.285c.04-.066.07-.124.103-.186l.062-.118.937-1.6c.208-.145.22-.202.237-.285a.59.59 0 01.102-.239h-.002c-.077.116-.09.184-.103.24-.017.083-.029.14-.236.284l.172-.438-2.885-.008.242-.664.181-.356.893-.02c.154-.204.592-1.23.602-1.455.03-.032.047-.045.058-.055l.007-.005.005-.004a.602.602 0 00.077-.134l.009-.016c.017-.033.042-.095.065-.152l.028-.07.052-.116c.06-.13.086-.187.114-.398l-.005-.01a10.07 10.07 0 00-.104-.245c.276-.142.587-.19.874-.235.232-.036.449-.07.619-.149.332-.153.507-.178.662-.2.155-.021.289-.04.537-.18a.661.661 0 00.04-.025l.01-.007.012-.007a.842.842 0 00.033-.024.174.174 0 01.03-.02l.004-.003a.426.426 0 00.058-.043l9.363-2.574s.996.443 1.215.597v-.597l-1.14-.534c-.278.018-1.365.377-1.365.377-.207.143-6.423 1.877-6.73 1.854h-.008l-.204.129a.992.992 0 01-.1.04.925.925 0 00-.085.033l-3.393.951-.106.02c-.338.062-.433.08-.514.461.035-.007.071-.012.107-.018.081-.013.163-.026.238-.049a.602.602 0 00.201-.089.538.538 0 01.035-.023l2.484-.582a.367.367 0 01-.059.043l-.004.003a.671.671 0 01-.063.044l-.007.005a1.27 1.27 0 01-.59.215 2.004 2.004 0 00-.664.2c-.17.078-.386.112-.619.148-.287.045-.598.093-.874.235.014.029.046.107.073.17.02.046.035.085.038.089l-.681-.17c.196-.821.373-.862.96-.999.129-.03.277-.064.45-.112.343-.096.643-.18.988-.27.135-.036.249-.062.345-.085.315-.073.444-.104.554-.28-.152-.108-.244-.12-.425-.146a6.23 6.23 0 01-.19-.028 18.95 18.95 0 00-.747-.115l-.21-.114.643-1.722a3.582 3.582 0 01-.598-.196 3.748 3.748 0 00-.675-.217l-.013-.002c-.555-.113-.81-.165-.98-.653-.096-.199.253-2.058.36-2.489.198-.78.4-1.039.641-1.349.082-.105.168-.215.26-.354l.034-.05c.016-.024.024-.036.03-.048a.275.275 0 00.013-.047l.008-.032c.19-.105.885-.801 1.366-1.282.173-.174.318-.319.401-.398l.266-.35.088-.024.044-.016a1.51 1.51 0 00.09-.037c.21-.025.281-.034.41-.22.095-.14.147-.192.177-.222.013-.013.022-.022.03-.032.017-.025.023-.06.043-.176l.003-.022 3.327-3.497c-.036-.199-.053-.297.155-.45.364-.18 2.316-1.842 3.008-2.43l.15-.129.437-.369.076-.064.52-.374.435-.083v-.002l-.438.083.088-.112c.075-.094.078-.085.08-.081.002.001.005-.005.026-.041l.016-.028.044-.243c-.209.126-.352.252-.489.372a2.227 2.227 0 01-.613.422c-.045.142-1.574 1.425-1.788 1.576-.177.061-.22.098-.26.132-.043.036-.08.068-.264.121.037-.203.162-.638.26-.808.116-.198.182-.223.249-.249.074-.028.149-.057.293-.328.037-.132.242-.295.434-.448.073-.058.145-.115.204-.168l.04-.036c.178-.159.462-.412.63-.503.075-.123.04-.103.036-.101a1.83 1.83 0 00.122-.11.54.54 0 01.12-.085c.022-.013.048-.028.078-.048.19.083.228.127.32.235a1.8 1.8 0 00.075.089c.13-.056.187-.1.244-.145.063-.048.125-.096.279-.16l.03.24zm.557.939l.004.002c.132.086.462.635.787 1.176.27.45.537.894.685 1.062-.022-.277-.385-.825-.643-1.214a11.897 11.897 0 01-.174-.267 33.07 33.07 0 01-.413-.687 4.91 4.91 0 00-.12-.191l-.096-.15a.932.932 0 01-.047-.087c-.016-.032-.029-.06-.07-.112-.088-.114-.09-.115-.115-.128a.508.508 0 01-.08-.05c.053.186.1.274.153.371.039.072.08.149.129.275zm1.551 2.569v.001c.344.035.375-.012.45-.13a.973.973 0 01.194-.231l.701-.49c.47-.254 1.133-.15 1.6.04-.467-.192-1.132-.296-1.603-.042l-.703.49-.01.01a.842.842 0 00-.031.028.948.948 0 00-.152.193c-.075.118-.105.166-.446.13zm3.194-.69l.003.002c-.12.136-.125.138-.157.148-.02.007-.052.016-.132.068a.958.958 0 01-.191.105l-.008.004v.002l.002.001c.006.008.027.032.003.14.272-.108.545-.222.75-.455l.298-.009-.302.008a2.953 2.953 0 01-.051-.03c-.033-.02-.046-.027-.057-.026a.073.073 0 00-.024.007.574.574 0 01-.134.036zm-8.986 4.488l-.013.287a.804.804 0 01-.004.004l.013-.29a5.292 5.292 0 00-.78.242c-.444.163-.913.334-1.367.314l-.09-.45c-.321.012-.469.124-.614.233-.12.091-.24.18-.455.208-.22-.224-.199-.272-.095-.52l.049-.119-.006.002.01-.003c.43-.355 1.001-.533 1.588-.717.36-.113.727-.227 1.071-.386.799-.37 1.395-.628 2.16-.348.37.136.521.21.58.421a.729.729 0 00.072.1l.05.046.032.025.025.02c.014-.772.34-3.923.558-4.566l.2-.146c.082-.16.114-.176.239-.234l.069-.033c.088-.034.182-.062.364-.097l-.304 13.326-.335.11-.72.15c.042-2.01.305-5.18.528-7.877.07-.835.134-1.626.188-2.322.02-.25.036-.566.053-.906.043-.856.093-1.867.227-2.383l-.069.032c-.125.058-.157.073-.24.233l-.57 7.577c-.044.162-.045.162-.054.17-.005.003-.012.008-.028.037.142.372-.318 4.813-.42 5.556l-.81.284.956-8.04h.002l-.003.017c.031-.042.065-.084.098-.126.197-.247.393-.493.07-.762l-.026-.019a.495.495 0 01-.056-.048c-.01-.009-.02-.017-.025-.023a.857.857 0 01-.072-.1c-.2-.011-.36-.09-.522-.168-.288-.139-.582-.281-1.107-.058l-.394.163c-.007-.012-.024.004-.04.018l-.015.014c.092.064.384.09.75.124.342.03.748.068 1.117.147.37.078.376.11.386.16a.131.131 0 00.014.044c-.105.055-.436 0-.82-.063-.564-.094-1.242-.206-1.486-.017.094.066.425.085.812.108.497.029 1.085.062 1.374.208-.087.053-.125.085-.145.1-.012.01-.017.015-.022.014-.004 0-.008-.002-.014-.006-.023-.014-.082-.05-.307-.079a5.2 5.2 0 00-.546-.039 6.7 6.7 0 00-.638.02l-.464.082c.249.1.534.09.804.08.28-.01.541-.02.727.093-.015.009-1.375.164-1.51.176zm-.699 3.537c.266-1.099.527-2.177.822-3.253l.37-.083-1.83 8.443H21.1l-.007-.078a.749.749 0 00-.034.146.136.136 0 01-.014.052c-.015.024-.05.035-.156.07l-.089.028c-.179.059-.324.026-.36.018l-.007-.001-.117-.133c-.003-.002 0-.005.004-.007-.002.001-.003.003 0 .005l.117.132.011-.12c.02-.209.03-.324.185-.491-.02-.377.437-2.113.73-3.228a53.355 53.355 0 00.377-1.5zm-.335 5.044l1.75-8.432h.002l.41-.044-1.463 8.331a.05.05 0 00.005-.005.054.054 0 01-.007.007c-.046.013-.098.032-.154.051-.181.063-.398.139-.544.094l-.281.057.282-.059zm1.018-.323l1.36-8.157h.002l.498-.187-1.051 8.152c.346-.003.596-.015.814-.088-.219.073-.469.086-.815.088-.225.111-.632.265-.81.193l-.074.013a.14.14 0 00-.03.006.988.988 0 01-.073.04.274.274 0 00-.051.044l-.006.006.007-.007a.255.255 0 01.052-.044c.03-.015.045-.025.056-.031a.12.12 0 01.018-.01.154.154 0 01.029-.006l.074-.012zm2.344-.577a3.577 3.577 0 00.001 0c.151.019.284.036.402.002-.118.034-.251.017-.403-.002zm-2.62.71c.005.008.015 0 .029-.012-.014.013-.025.021-.03.014-.002-.004-.004-.005-.007-.003.004-.003.007-.003.009.001zm-1.962.326c.165-.002.157.007.143.016.01-.008.003-.015-.147-.013-.094.4-.31.509-.7.455-.069.028-.13.05-.193.075l-.137.052-.233.064c-.047.03-.034.04-.025.045.014.008.017.01-.21.069-.145.037-.13.017-.117-.001.005-.007.01-.013.005-.016a2.91 2.91 0 01-.085.011.41.41 0 00-.056.009c-.025.005-.049.016-.11.042l-.038.016-.54.19c-.228.119-.265.169-.288.199-.03.04-.033.044-.47.136-.115.026-.57.144-.738.238.015.058.012.099.01.129a.124.124 0 00.003.05c-.007-.015-.006-.032-.004-.055a.39.39 0 00-.01-.128c.168-.094.622-.212.738-.238.437-.092.44-.095.47-.136.022-.03.06-.08.288-.199l3.069-8.738.097.019.117-.06-.116.06.15.055-2.775 8.477.037-.016a.722.722 0 01.11-.043l.056-.008.086-.011.072-.175 2.568-8.168.036-.091c.029-.075.044-.112.071-.134.028-.022.07-.027.155-.038.046-.005.103-.012.178-.025l-2.499 8.47.138-.053.193-.075.16-.494c.024-.343 1.094-4.029 1.58-5.7l.201-.698c.08-.276.137-.51.185-.71.161-.66.23-.944.691-1.1l-2.116 8.246zm19.905 6.794l2.934 5.166-4.123.032c-.365-.03-.363-.184-.352-1.087.01-.839.219-1.637.527-2.28.172-.358.803-1.61 1.014-1.83zm-11.887-.098l-.06-2.2.626-.023 2.732-.267c.066.133.078.233.088.316.007.06.013.113.038.163a1.247 1.247 0 01.048.1h.003c.006 0 .022 0 .092.06l.007-.663-.006-.002h.003l-.007-.441c-.027-.085-.021-.118-.017-.14.004-.024.005-.033-.045-.08l.002-.001c.052.049.05.058.046.082-.003.022-.01.055.017.14l.273-.08c0-.821-.051-.812-.309-.767-.122.021-.29.051-.522.004l-.43-5.05c.136.246.33.432.532.626.074.071.15.143.224.22.335.349.44 1.34.518 2.073.02.195.039.371.06.513l.216 1.21c.002-.006.006.007.011.023a.22.22 0 00.015.038c.412-.887.926-1.274 1.324-1.573.442-.332.74-.556.596-1.238-.022-.104-.066-.22-.11-.337-.133-.349-.27-.71.159-.79.07.093.126.514.166.822.016.12.029.223.04.283.088.475.007.72-.28 1.003-.111.11-.242.201-.374.294-.132.093-.264.186-.379.298-1.256 1.232-1.726 2.82-1.41 4.77l-.248.055c-.144.088-3.64.559-3.64.559zm.154-2.858a.364.364 0 00.079.034c-.035-.01-.053-.02-.082-.035l-.023-.011a4.19 4.19 0 01-.45.094 4.543 4.543 0 00-.157.025c-.09.016-.134.023-.165.007-.029-.015-.046-.05-.08-.12l-.017-.035c.106-.18.186-.182.354-.188a2.15 2.15 0 00.25-.02.11.11 0 00.01-.01l.008-.01c.013-.015.026-.032.033-.026-.008-.002-.022.015-.034.03a.23.23 0 01-.014.017l3.387-.451c.097-.007.159-.017.198-.022.043-.007.061-.01.072-.002.008.006.011.017.018.036.007.02.017.05.039.094-.125.232-.784.275-1.255.305-.147.01-.276.018-.364.031l-.16.023c-.554.078-1.108.156-1.67.223l.023.011zm-.236-.292v-.001l-.002-.001.244-.22c-.058-.615-.059-1.378-.059-2.073 0-.214 0-.422-.002-.617-.001-.154-.02-.375-.04-.621-.059-.688-.134-1.576.107-1.773l.104-.012c-.006-.03.007-2.13.038-2.488l.337-.237a2.13 2.13 0 01-.038-.273l-.004-.043.004.042c.007.073.014.159.04.275l-.338.237c-.033.359-.044 2.458-.038 2.488l.322-.09c.1.506.326 4.733.217 5.151l-.505.024-.137-5.073c-.241.197-.166 1.085-.107 1.773.02.246.039.466.04.621.002.184.002.38.002.58 0 .705 0 1.485.059 2.109l-.244.222zm.572-8.688a.639.639 0 010-.001l-.82-.695.03 2.786-.455-.205-.011 2.372-1.295-.531.242-13.333c.221.208.615.813.923 1.285.1.155.192.296.265.404l.246.356c.217.311.295.425.31.546a.857.857 0 01-.023.254 5.71 5.71 0 00-.088.927c.139-.057.252-.158.376-.27.18-.162.383-.344.724-.438-.085.147-.26.25-.44.357-.215.128-.44.261-.537.482-.139.316-.009 1.252.097 1.544.085.233.164.43.235.607.285.708.443 1.102.345 2.317.24-.082.244-.083.356-.079-.112-.004-.115-.003-.357.08-.066.045-.097.048-.11.049-.005 0-.007 0-.009.002-.002.002-.002.007-.002.02a1.22 1.22 0 01-.016.225c-.003.024.003.169.006.257l.002.06c.01.222.017.4.006.622zm.936.361l-.094-1.678.21-.022c.022.35.052.686.087 1.036.007.075.017.145.027.21.041.28.068.461-.23.454zm.243-1.74a.27.27 0 00-.003-.01v.002l.002.002v.006zm.306 1.681c-.195-.258-.232-1.206-.233-1.517.611.649.63.792.695 1.942a.722.722 0 01-.21-.161 2.552 2.552 0 00-.116-.119c-.006.008-.014.012-.022.018-.016.01-.031.019-.031.045 0 .02-.012.033-.021.044-.007.007-.013.013-.012.02.01.063.013.098.015.116l.001.015.001.004a2.07 2.07 0 00-.017-.136c-.001-.006.005-.012.012-.02a.06.06 0 00.02-.044c0-.028.016-.037.032-.046a.074.074 0 00.021-.017 1.567 1.567 0 00-.106-.114l-.03-.03zm.218 1.404c-.04-.321-.085-.688-.069-.94.654.581.921 1.09.91 2.393l-.292-.25a.262.262 0 01-.122.003c-.006-.001-.01-.002-.012-.001l.002-.002.011.001a.268.268 0 00.122-.002c-.11-.127-.195-.191-.261-.242-.145-.11-.205-.155-.252-.639-.01-.096-.023-.206-.037-.321zM19.049 31.88l.054.04c.141.104.213.156.213.4-.204-.086-.254-.16-.267-.44zm17.067.872c.026-.467 1.235-2.634 1.493-2.906.151-.16.647-.614.966-.341.552.468-.454 1.366-1.197 2.03a10.47 10.47 0 00-.48.445 3.7 3.7 0 00-.439.518c-.096.138-.13.184-.343.254zm-.422-4.392c1.686-.179 1.598 1.491-.733 1.76-2 .234-1.676-1.506.733-1.76zm-4.763-6.587c-.158-.262-.074-.348.112-.538l.044-.047c.043-.044.079-.085.111-.123.103-.12.177-.205.37-.265.191.378-.623.97-.637.973zm-.783-1.962c1-.163.875.003.67.274-.095.125-.207.273-.233.422a1.586 1.586 0 00-.012.297 2.1 2.1 0 01-.009.323c-.567-.072-1.28-1.237-1.102-1.804.309-.023.392.103.494.256.05.076.104.158.192.232zm-.784-.963c-.306.105-.706-.199-.822-.545-.146-.438-.133-.89.337-.765.168.045.172.077.177.119a.12.12 0 00.021.061.23.23 0 01-.049.018l-.36.015.018.348.248-.197c.079.163.028.26-.015.341-.058.109-.1.19.203.362.043-.105.028-.126.01-.152-.016-.02-.033-.045-.025-.119.01-.088.02-.09.07-.097a.501.501 0 00.091-.022l.066.147c.089.191.133.286.03.486zm2.867-1.051c-.398-.131-.47-.67-.438-1.02.07.022.111.036.143.048.07.024.095.033.291.064l-.29.064.437.221c.039.138-.04.35-.106.521l-.037.102zm-1.751-.987l.288-.039.335.062-.15.517.348.132c-.168.13-.203.123-.215.121h-.004c-.003 0-.004.004-.01.017a1.573 1.573 0 01-.044.098l.398.126c.095.041.127.01.145-.008.021-.02.025-.024.091.12l-.801.317c-.094.056-.117.038-.12.026l-.001-.007v.007a.5.5 0 01-.024.1l.09-.032c.342-.122.676-.24 1.075-.122-.084.275-.13.265-.215.249-.068-.014-.163-.033-.324.094l.052.047c-.031.007-.011.027.006.035.018.008.034.005-.006-.035a.378.378 0 01.12.007h.009c.097-.004.978-.032.465.561a4.35 4.35 0 00-.056-.028c-.038-.019-.048-.024-.05-.03l-.001-.004v-.006c0-.018 0-.058-.092-.192a.491.491 0 01-.033-.055c.105.05.089.019.055-.01-.035-.029-.087-.054-.055.01l-.015-.008-.013-.006a.157.157 0 00-.01.046v.006l-.047.196c-.016.03-.023.05-.028.063a.063.063 0 01-.01.02c-.005.005-.014.009-.035.016a1.544 1.544 0 00-.068.025c-.102.042-.433.06-.574.069h-.014c-.77.046-1.388.077-1.505-1.045a5.765 5.765 0 00-.186-1.033c-.084-.308-.087-.32.212-1 .102-.233.09-.396.08-.548-.011-.163-.022-.313.11-.521.178-.278.444-.418.877-.364l.039.005c.316.04.398.05.47.029.025-.008.05-.02.082-.034.062-.03.155-.073.345-.132-.045.136-.075.147-.117.163-.042.015-.096.035-.189.183.258.006.39-.034.553-.082.091-.027.191-.057.328-.083a.26.26 0 01.017.036v.003c.078.169.135.267.179.344.111.195.142.248.233.955-.996-.033-.882.44-.781.858.038.158.074.308.048.419-.221-.057-.281-.303-.346-.564-.065-.266-.134-.549-.38-.664-.568-.086-1.262-.158-1.23.426.263.155.306.11.38.033.07-.076.172-.183.538-.16a.695.695 0 01-.197.08.652.652 0 00-.28.151c.057.043.008.084-.015.102l-.01.01a.38.38 0 00.094-.021c.043-.012.104-.029.189-.05zM16.417 27.38c.114-.154.171-.309.232-.472a6.413 6.413 0 01.091-.23l.033-.071a1.18 1.18 0 01.058-.111c.085-.15.12-.245.146-.334l1.132-2.46a.044.044 0 00.014.006l-2.183 5.284h.007c.132-.02.203-.03.252-.067.056-.044.084-.124.143-.296.045-.131.108-.317.217-.58l3.222-8.034c-.256.122-.502.8-.741 1.457-.206.569-.407 1.123-.606 1.294.033-.35.172-.675.325-1.033a7.897 7.897 0 010-.003c-.154.36-.294.685-.327 1.036-.008.212-.085.388-.167.573a2.841 2.841 0 00-.142.37l.02-.08c.003-.002.003-.004.002-.004a1.51 1.51 0 00-.164.072l-.668 1.635c-.23.421-.275.597-.313.746l-.023.084-.204.445a2.255 2.255 0 00-.033.07l-.323.703zm5.379-11.495l-.586 1.644c.371-.137.732-1.38.806-1.802v.002l-.22.156zm.403-.252l-.571 1.709c.315-.112.388-.397.46-.677.02-.079.04-.157.066-.232.028-.084.059-.168.09-.252.102-.279.202-.554.222-.84l-.001.002c-.057.066-.09.096-.12.122a.753.753 0 00-.146.168zm.268-.294a.816.816 0 00.053-.1l.005-.008c-.002 0-.003.003-.006.01a.803.803 0 01-.052.098zm.21-.11l-.565 1.873c.107-.051.168-.065.207-.074a.175.175 0 00.05-.015c.028-.017.045-.056.102-.183l.002-.006.497-1.833c.017-.067.024-.108.029-.13.003-.016.004-.023.006-.026-.002.001-.004.008-.007.026-.005.023-.012.064-.029.132l-.292.236zm2.36-1.94a.063.063 0 00-.01.008c-.012.011-.018.027-.03.056-.01.028-.026.069-.056.13l-.303.231.002-.001c-.053.44-.132.885-.21 1.325-.038.213-.076.425-.11.635-.044.27-.089.489-.126.67-.128.63-.16.783.272.91.1-.468.567-3.584.477-3.772.03-.06.046-.101.057-.13a.173.173 0 01.029-.056.061.061 0 01.008-.007zm-.52.467a.418.418 0 00-.04.067l-.017.031c-.225.115-.265.159-.348.35l.002-.001-.543 2.704.322.057c.148-.282.547-2.693.57-3.111l.018-.034a.478.478 0 01.036-.063zm-.584.42h-.002c-.004.003 0 .018.01.055l.012.048-.277.143-.526 2.139-.018.14c-.01.076-.012.094-.006.098l.009.001c.012 0 .035-.001.07.052.258-.032.279-.147.361-.612a16.074 16.074 0 01.185-.911c.077-.345.154-.69.204-1.052a3.912 3.912 0 00-.012-.048c-.01-.035-.014-.05-.01-.054zm-.447.395a3.138 3.138 0 00-.041.087c-.174.046-.2.088-.26.187l-.007.012-.592 2.098.134-.025c.088-.016.135-.024.165-.05.034-.031.046-.085.073-.199l.03-.124.458-1.9c.015-.035.029-.063.04-.086zm-6.17 15.06a.549.549 0 00-.046-.11c.03.052.043.098.049.117l.001.005-.004-.012zm-2.422 2.014l-.003-.001-.984 2.248c.043-.003.08-.004.112-.005.107-.003.161-.005.198-.031.038-.028.057-.081.096-.19l.033-.092c.088-.238.604-1.57.736-1.647l2.723-.548c.06.195-.023.441-.11.695-.068.201-.137.407-.138.596-.054.056-.07.061-.077.063h-.002c-.002.002-.003.005-.005.013-.005.018-.017.064-.06.182l-.255.873 2.936-.054c-.142-.169-.17-.182-.296-.243a4.247 4.247 0 01-.39-.215l-.077-.068c-.057-.05-.07-.06-.073-.073v-.005l-.001-.007a.33.33 0 00-.04-.125c.178.073.256.128.375.213l.12.084c.162.112.272.163.415.23l.048.023.225.15a.927.927 0 00-.316.082 1.21 1.21 0 01-.247.086c.049.225.052.23.066.244.01.012.027.03.077.173l.056.031c.048.026.1.055.141.096l.016.356-.088-.017-.285.171c.427.09.64.084 1.077.003l-.172-.285-.531.129-.015-.357a.599.599 0 00-.142-.095l-.056-.032c-.05-.142-.067-.161-.077-.173-.013-.015-.017-.019-.066-.244.141-.036.199-.063.248-.085.064-.03.114-.053.316-.082.154.133.235.247.351.407l.049.068c.079.11.117.188.146.247.053.11.07.147.261.178-.086-.441-.402-.755-.67-1.023a3.496 3.496 0 01-.149-.15 5.025 5.025 0 01-.157-.032c-.04-.009-.054-.012-.056-.008-.001.002.001.005.005.011.014.022.045.07-.006.152l-.048-.023a2.593 2.593 0 01-.415-.23l-.118-.083a1.6 1.6 0 00-.376-.215l-.086-.105c-.036-.22-.075-.265-.126-.322-.044-.05-.097-.11-.163-.307-.043-.123-.087-.28-.067-.407.041-.261.072-.26.111-.258.018 0 .037.002.06-.02.046.042.06.056.061.059-.003-.004-.041-.051.065-.01l.09.03c.071.036.094.043.1.045h.002c-.002.003-.01.016.094.12.091.093.068.084.064.082l.002.002.057.04a.48.48 0 00.048.03l.248.082c-.741.774.283.538.338.517.158-.053.16-.056.168-.071.008-.014.022-.037.158-.115l-.038.364c.11-.024.172-.045.21-.059.03-.01.047-.016.063-.014.018.002.034.015.07.043.023.018.054.042.098.073.069.467.176.553.528.734.343.176.517.11.656.056.239-.092.377-.145 1.088 1.113.33.587.332.666.334.778.001.057.002.123.047.269.16.522.883.34 1.825.103.518-.13 1.102-.276 1.696-.333.154-.014.338-.013.523-.012.255.002.512.003.698-.035.027-.006.111-.046.24-.106.334-.158.97-.456 1.678-.658.326-.093 1.047-.143 1.608-.182.387-.027.698-.05.75-.076.373-.871-1.53-.627-2.044-.535-.812.146-1.485.332-2.195.646l-.1.044c-.967.43-3.267 1.454-4.32 1.252-.13-.16-.243-.49-.346-.789-.053-.152-.102-.297-.15-.408l.9-.059 2.103-.12c.172-.009.344-.016.517-.023h.002l.49-.023.018-.642-1.002.02.105-.24.319-.018.027-1.387c-.12-.191-.219-.156-.299-.128-.083.03-.145.052-.186-.2-.043-.266.03-.265.177-.261.083.002.19.005.314-.042l.013-2.21-.695-.103c-.21.03-.235-.008-.26-.043-.031-.047-.062-.092-.518.02a8.429 8.429 0 01-.483.098c-.125.023-.25.046-.371.072-.09.019-.2.038-.321.06-.494.087-1.172.208-1.4.463l-4.976 1.11-2.942.63zm26.95-1.922c-.054-.07-.06-.116-.064-.136v-.006l-.002-.004c-.001 0-.004 0-.006.003a.267.267 0 00-.009.008.818.818 0 01-.122.1 1.426 1.426 0 00-.124.189 4.83 4.83 0 00-.213.426c-.073.165-.134.312-.196.46-.064.15-.128.304-.206.481-.23.52-.672 1.37-.97 1.718-.316.371-.613.63-.936.91-.142.122-.288.249-.443.391-.245.226-.498.39-.713.529-.385.25-.648.42-.525.724.234.055.296-.032.366-.13s.15-.208.419-.196c-.016.458-.746 1.456-1.192 2.063-.098.135-.183.25-.242.337-.072.103-.14.21-.209.318-.437.684-.883 1.382-2.026 1.119-.44-.102-1.212-.038-1.99.025-.6.05-1.206.1-1.663.073a35.524 35.524 0 01-1.676-.15c-.599-.062-1.194-.125-1.791-.154a21.94 21.94 0 00-1.274-.008c-.853.011-1.733.022-2.459-.142-.604-.136-1.072-.384-1.54-.633-.35-.185-.7-.37-1.107-.51a3.351 3.351 0 00-.575-.134c-.33-.054-.58-.096-.831-.433-.395-.529-.525-.533-.668-.538-.106-.003-.22-.007-.456-.23-.47-.443-.552-.451-1.2-.515h-.003l-.163-.017c-.958-.096-1.058-.198-1.191-.334-.053-.054-.11-.113-.228-.18-.178.459-.717 1.37-1.233 2.242-.524.886-1.024 1.73-1.097 2.02 2.117.028 4.246.016 6.373.004 1.978-.01 3.953-.021 5.914 0 .858.008.89-.12.918-.236.035-.148.067-.277 1.78-.087 1.186.132 3.06.327 4.207.229.188-.016.358-.036.518-.055.5-.06.908-.109 1.5.02 1.234.27 1.604-.322 2.14-1.181.112-.18.231-.37.367-.566.264-.383.515-.759.766-1.136.33-.494.66-.99 1.02-1.5.301-.426.623-.838.955-1.257.191-.242.333-.462.477-.684.129-.2.259-.401.428-.624.083-.245.224-.546.363-.846.084-.18.167-.359.238-.524.086-.205.19-.406.29-.602.113-.219.222-.431.302-.638l.002-.003zm-1.329 3.29zm.89-11.15a.479.479 0 00.067-.095v-.003l-.001-.002c.002-.007.002-.01.001-.009 0 0-.002.004-.001.01a.429.429 0 01-.07.1c-1.031-.764-2.337-.733-3.749-.496l-.163.03c-.747.14-1.353.253-2.054.502l-.23.084c-.61.226-1.411.522-1.917.255-.02-.336.071-.407.164-.479.085-.066.172-.133.175-.408-1.079-.61-3.074 1.22-1.88.974.096-.02.2-.06.307-.1.294-.112.61-.232.834.027.138.16.074.224-.027.327-.086.087-.2.201-.241.427.31.132 1.094-.188 1.984-.552 1.19-.486 2.574-1.05 3.28-.721.312.487-.386 1.193-.895 1.707-.184.186-.343.347-.42.463-.618.928-.8 2.112.18 2.457 1.44.505 2.908-.511 3.72-1.475.042-.05.083-.104.125-.159.222-.291.466-.612.944-.474.193.722-.226 1.105-.59 1.437-.229.21-.435.398-.452.64 1.07.337 2.48-1.449 1.762-3.352-.152-.402-.394-.643-.618-.867-.083-.083-.163-.163-.235-.248zm-5.1-.625a2.74 2.74 0 00.005.002 31.067 31.067 0 00-.005-.002zm-7.074 7.35c.023.713.048 1.527.158 2.058l.538-.092-.332-5.203c-.581.079-.563.23-.509.674.014.11.03.238.039.388.02.31.035.619.052.93v.001l.026.487c.012.223.02.482.028.756zm1.709 1.834l-.534-5.333-.558.137.41 5.23c.21.064.307.043.495.003.053-.011.114-.024.187-.037zm-1.833-6.85l.102.395c-.09.302-.045.71-.005 1.07l.019.173.404-.067-.129-2.183-.393.105c-.008.209-.012.32.002.506zm1.147 1.11c.004-.136-.152-1.717-.264-1.902l-.08.017c-.09.02-.145.03-.177.065-.052.055-.04.17-.01.471a22.701 22.701 0 01.064.769c.023.312.045.626.084.914l.123-.014c.13-.013.194-.02.226-.055.03-.034.03-.092.033-.207l.001-.058zm-1.62-.091c.012.267.024.534.03.799.43-.076.4-.374.325-1.093-.031-.3-.07-.673-.086-1.134-.375.081-.359.215-.32.53.01.097.025.211.03.347.006.182.014.365.022.548v.003zm.23-2.355c.009.242.018.51.1.685a.143.143 0 01.054-.032c.047-.02.075-.03.069-.344l-.122-1.333c-.035.028-.064.02-.086.014-.061-.018-.07-.021-.021.839l.007.171zm.276-1.088c-.024.023-.02.076-.002.28.01.112.022.271.037.497.004.064.006.135.009.21.007.245.016.524.095.683.051-.015.09-.011.12-.008.022.002.038.004.05-.002.038-.021.03-.127-.005-.57l-.015-.195a12.72 12.72 0 01-.012-.183c-.018-.283-.037-.57-.138-.78a.368.368 0 01-.102.05.101.101 0 00-.037.018zm-11.543 4.69c-.412 1.003-.832 2.024-1.155 2.998.3-.037.312-.072.453-.476.04-.115.092-.26.163-.444l.144-.371c.1-.256.2-.515.293-.771.158-.437.32-.85.482-1.267.13-.333.26-.668.391-1.019.207-.557.416-1.1.624-1.637l.25-.646c.084-.221.18-.454.277-.692.229-.561.468-1.148.61-1.659-.277.147-.641 1.154-.867 1.78-.056.153-.103.284-.139.373l-.135.339c-.257.647-.504 1.268-.76 1.93-.199.509-.414 1.033-.631 1.562zm2.66-5.832l-.038.095-3.21 8.555c.46-.062.577-.435.798-1.137.072-.23.156-.495.266-.795l2.486-6.905c-.219-.024-.221-.017-.302.187zm-.204 14.59l-.072-.298-.317-.229c-.208-.103-1.938-.028-2.766.008-.192.008-.335.015-.4.016-.361.009-.726.015-1.093.022h-.001c-.864.015-1.737.03-2.584.08a1.27 1.27 0 00-.251.578l7.484-.176zm-3.086-2.32c.056-.008.11-.016.162-.027.313-.007.345-.233.385-.517l.015-.105-.588.14-1.641.286c-.175.26-.425.788-.434 1.123a.486.486 0 01-.046.042.334.334 0 00-.086.113.652.652 0 00-.057.12 1.498 1.498 0 00-.122.432l.719-.004.54-1.413.782-.114c.07-.022.114-.03.18-.043l.029-.006.162-.027zm.414.12l-.785.04c-.007.004-.086.019-.17.035a2.382 2.382 0 00-.204.044.984.984 0 01-.136.06c-.136.051-.222.083-.357.491-.02.059-.035.113-.05.165-.032.106-.06.203-.109.309-.03.065-.053.104-.073.138a.8.8 0 00-.11.3l1.743-.017c-.114-.292-.02-.57.085-.883.07-.208.144-.43.166-.682zm3.508-14.735c.126-.421.4-1.332.686-1.551a15.56 15.56 0 01-.306.855c-.078.204-.127.34-.16.43-.049.139-.062.176-.089.196a.183.183 0 01-.037.02.7.7 0 00-.094.05z" fill="#0D3862"/></svg>