<svg width="56" height="56" viewBox="0 0 56 56" xmlns="http://www.w3.org/2000/svg"><path fill="#F0F3FA" d="M0 0h56v56H0z"/><path fill-rule="evenodd" d="M28 45a17 17 0 1 0 0-34 17 17 0 0 0 0 34Zm0-2a15 15 0 1 0 0-30 15 15 0 0 0 0 30Z" fill="#ED1B26"/><path fill-rule="evenodd" d="M24.93 14.26c-.66.15-1.3.34-1.93.58v26.37c.65.25 1.31.46 2 .6v-11.7L27.6 39 30 27.16V42c.68-.1 1.35-.25 2-.44V14.5c-.77-.23-1.58-.4-2.4-.5l-2.22 13.01-2.45-12.75ZM33 41.2a14.13 14.13 0 0 0 9-13.19c0-6-3.74-11.15-9-13.18v26.37ZM40 28c0 3.55-1.55 6.75-4 8.94V19.06c2.45 2.2 4 5.39 4 8.94ZM22 40.78v-25.5c-4.73 2.26-8 7.12-8 12.75 0 2.77.8 5.35 2.16 7.53l1.78-1.01a11.93 11.93 0 0 1-1.9-5.55H19v9.84a14 14 0 0 0 3 1.94ZM19 27v-6.94A11.95 11.95 0 0 0 16.04 27H19Z" fill="#ED1B26"/></svg>