<svg xmlns="http://www.w3.org/2000/svg" width="56" height="56" viewBox="0 0 56 56"><path fill="#F0F3FA" d="M0 0h56v56H0z"/><path d="M40 37.76a8.01 8.01 0 1 0-4 0v-6.25c0-.28.22-.5.5-.5.27 0 .5.22.5.5v6.44a8 8 0 0 0 .5.05v-6.49c0-.28.22-.5.5-.5.27 0 .5.22.5.5V38a8 8 0 0 0 .5-.05v-6.44c0-.28.22-.5.5-.5.27 0 .5.22.5.5v6.25z" fill="#48ABE0"/><path d="M32.03 37H9l13.96-23 7 10.99V25H24.5a.5.5 0 0 0-.5.5c0 .28.23.5.5.5h4.92c-.07.15-.14.32-.2.5H24.5a.5.5 0 0 0-.5.5c0 .28.23.5.5.5h4.4c-.04.16-.08.33-.1.5h-4.3a.5.5 0 0 0-.5.5c0 .28.23.5.5.5h4.16c-.05.65-.05 1.37.06 2.16.36 2.74 2.1 5.39 3.31 5.84z" fill="#48ABE0"/></svg>