<svg width="56" height="56" viewBox="0 0 56 56" xmlns="http://www.w3.org/2000/svg"><path fill="#F0F3FA" d="M0 0h56v56H0z"/><path d="m26.72 13.64-10.33 6.02a.2.2 0 0 1-.21.01l-2.88-1.38a.2.2 0 0 1-.1-.18.21.21 0 0 1 .1-.18l13.38-7.88a.2.2 0 0 1 .29.08c.02.04.02.07.02.11l-.16 3.23a.21.21 0 0 1-.11.17ZM29.26 10.03l13.41 7.87a.21.21 0 0 1 .1.19.22.22 0 0 1-.1.18l-2.8 1.48a.21.21 0 0 1-.2 0l-10.33-6.03a.22.22 0 0 1-.11-.17l-.29-3.32a.22.22 0 0 1 .1-.2.21.21 0 0 1 .22 0ZM12 35.88v-15.7c0-.04 0-.08.03-.11a.22.22 0 0 1 .07-.09.2.2 0 0 1 .1-.03c.04 0 .08.01.11.03l2.58 1.73c.03.02.06.05.08.09.02.03.03.07.03.11v12.24c0 .04 0 .08-.03.11a.22.22 0 0 1-.07.09l-2.58 1.73a.19.19 0 0 1-.2 0 .22.22 0 0 1-.08-.08.27.27 0 0 1-.04-.12ZM44 20.17V35.8c0 .04-.01.09-.03.12a.23.23 0 0 1-.08.1.2.2 0 0 1-.22-.01l-2.56-1.8a.24.24 0 0 1-.07-.1A.28.28 0 0 1 41 34V21.97c0-.04.01-.09.03-.12a.24.24 0 0 1 .07-.1l2.56-1.79a.2.2 0 0 1 .22 0c.03.02.06.05.08.09.02.04.04.08.04.12ZM27.23 27.69c-.13-.25-.23-.24-.23.04v3.78c0 .34-.23.47-.55.49a.74.74 0 0 1-.55-.18.69.69 0 0 1-.23-.51v-5.56c0-.06-.01-.1-.03-.15a.38.38 0 0 0-.1-.13l-.68-.55c-.29-.24-.29-.4 0-.5.92-.3 1.61-.4 2.08-.28.23.06.4.19.5.4l2.22 4.5a.2.2 0 0 0 .08.1.2.2 0 0 0 .21 0 .2.2 0 0 0 .08-.1c1.08-2.27 1.7-3.6 1.88-4 .27-.58.7-.93 1.3-1.03a.73.73 0 0 1 .58.15c.07.06.14.14.18.23.04.09.03.19.03.28v6.58c0 .18-.04.36-.18.5-.14.13-.32.25-.52.25h-.53c-.52 0-.77-.29-.77-.79v-3.03c0-.41-.1-.43-.29-.06l-1.65 3.63a.32.32 0 0 1-.17.16.36.36 0 0 1-.24.01c-.15-.04-.26-.11-.32-.21a98.67 98.67 0 0 1-2.1-4.02ZM35.76 25.23c-.37-.26-.52-.52-.46-.77.07-.3.27-.46.58-.46h1.76c.2 0 .36.1.36.28v7.08c-.05 1.74-.97 2.94-2.66 3.6a.57.57 0 0 1-.65-.18c-.17-.2-.14-.44.1-.68.45-.5 1.2-.86 1.21-1.83v-6.51c0-.1 0-.2-.04-.3a.67.67 0 0 0-.2-.23Z" fill="#030D7B"/><path fill-rule="evenodd" d="m18.58 31.43.68-1.8c.08-.23.25-.34.5-.34h1.66c.07 0 .14.02.2.06.06.03.1.09.14.15l.98 1.94c.08.17.22.32.4.41.17.1.37.15.57.14l.22-.01c.62-.04.81-.33.58-.87-1.26-3-2.15-5.16-2.65-6.46-.25-.67-.82-.82-1.69-.46-.2.08-.31.23-.3.45 0 .34-.08.67-.22 1l-2.53 5.7c-.17.38-.04.6.4.65h.18c.44.03.74-.16.88-.56Zm2.58-3.54c-.05-.78-.2-1.18-.47-1.2-.28-.04-.52.33-.74 1.08-.06.2.01.36.22.45a1.05 1.05 0 0 0 .67.07c.23-.05.33-.18.32-.4Z" fill="#030D7B"/><path d="m26.65 45.94-13.38-7.8a.2.2 0 0 1-.1-.18.2.2 0 0 1 .1-.18l2.82-1.55a.2.2 0 0 1 .2 0l10.39 6.07a.2.2 0 0 1 .1.18l.17 3.28a.2.2 0 0 1-.1.18.2.2 0 0 1-.2 0ZM29.3 42.33l10.24-6a.23.23 0 0 1 .23 0l2.86 1.42a.24.24 0 0 1 .12.21.24.24 0 0 1-.11.21l-13.3 7.8a.23.23 0 0 1-.34-.1.24.24 0 0 1-.02-.12l.2-3.22a.24.24 0 0 1 .12-.2Z" fill="#030D7B"/></svg>