<svg xmlns="http://www.w3.org/2000/svg" width="56" height="56"><path fill="#F0F3FA" d="M0 0h56v56H0z"/><circle cx="28" cy="28" r="16" fill="url(#ajepsajf5)"/><circle cx="28" cy="28" r="15" fill="url(#bjepsajf5)"/><path d="M25.33 36.14c-3.58-.18-7.7-2.16-9.31-3.13l.47-1.72c6.9.13 19.02-1.58 24.23-2.57.84 2.03.07 3.7-.42 4.29-3.13 2.26-10.5 3.36-14.97 3.13z" fill="url(#cjepsajf5)"/><path d="M16.48 31.3l.64-5.48c1.33-.74 7.96-1.66 11.1-2.03 1.34.93 2.37 4.57 2.73 6.27-4.76 1.03-11.63 1.26-14.47 1.25z" fill="url(#djepsajf5)"/><path d="M33.94 37.43c8.55-13.75 3.57-19.8 0-21.1-.22.74-1.53 2.95-2.16 3.96 5.93 4.32 3.91 13.23 2.16 17.14z" fill="url(#ejepsajf5)"/><path d="M35.64 25.8c-2-7.04-9.7-8.82-13.22-8.82l-1.56 3.15c5.41 1.72 9.36 6.6 8.85 10.6-.4 3.21.85 7.47 1.47 9.2l2.16-1.11c2.51-4.32 2.64-10.47 2.3-13.02z" fill="url(#fjepsajf5)"/><path d="M25.88 31.9c-1.1-5.45-3.84-9.15-5.07-10.32v-1.47c4.8.83 9.86 7.28 9.08 9.81-.63 2.03.5 7.54 1.15 10.05l-2.44.5c-.45-.58-1.62-3.11-2.72-8.57z" fill="url(#gjepsajf5)"/><path d="M25.56 34.3c-.7-5.09-3.6-10.8-4.76-12.7 2.04.96 5.09 8.8 5.64 12.36.44 2.84 1.6 5.52 2.16 6.47l-.74.28c-.48-.02-1.6-1.32-2.3-6.4z" fill="url(#hjepsajf5)"/><path d="M17.18 21.49c.14-.1.32-.13.49-.07.32.1.44.4.47.68.03.27-.02.6-.1.92a9.08 9.08 0 01-.66 1.7 11.55 11.55 0 00.72 2.88c.36-.06.74-.15 1.1-.27a.25.25 0 11.16.48c-.35.11-.7.2-1.04.26.1.2.22.39.35.55.18.25.38.43.59.54l.7-3.27a.25.25 0 01.48.1l-.16.77c.07-.08.14-.15.22-.21.11-.1.24-.2.37-.24a.42.42 0 01.36.02c.1.06.18.16.22.25.06.11.1.25.12.4a3.37 3.37 0 01.27-.46.68.68 0 01.27-.21.39.39 0 01.4.06.8.8 0 01.18.27c.07.19.12.45.15.72.05.55.04 1.23.02 1.68l.03.12c.02.03.04.04.05.04l.05-.02a.6.6 0 00.17-.25c.14-.33.33-.8.47-1.27-.25-.05-.4-.25-.5-.44a1.98 1.98 0 01.03-1.58c.07-.1.17-.2.33-.24.15-.04.3.01.43.1.27.18.37.48.4.78.03.21.01.45-.02.69a.72.72 0 00.07-.08c.13-.14.22-.35.3-.64l.48.1c-.1.5-.22 1.23-.25 1.86-.02.32-.01.6.02.8a.8.8 0 00.08.25.48.48 0 00.13-.14c.12-.17.23-.44.34-.77a9.8 9.8 0 00.4-1.86l.5.07c-.03.21-.07.51-.14.84-.03.29-.06.6-.06.87 0 .3.03.55.08.73.06.2.13.25.16.26h.02a.35.35 0 00.11-.1c.1-.14.2-.37.3-.66a8.87 8.87 0 00.37-1.81l.5.08-.12.74c-.03.3-.05.62-.04.9.01.26.05.46.12.58l.07.1c.01 0 .03.01.07 0 .1 0 .2-.07.32-.2.11-.15.2-.34.3-.57.15-.45.24-.97.27-1.33a9.2 9.2 0 01-.1-1.83h-.35a.25.25 0 010-.5h.38c.03-.42.09-.83.18-1.14.05-.16.12-.3.21-.43.1-.11.23-.22.42-.22.18 0 .3.12.36.22s.1.23.13.36a3.86 3.86 0 01.04 1.2h.33a.25.25 0 110 .5h-.4c-.11.63-.34 1.31-.7 1.9-.03.36-.03.86.02 1.27.03.22.08.4.14.51a.3.3 0 00.06.1h.02c.01 0 .08-.01.22-.17.11-.14.24-.34.36-.58a5.73 5.73 0 01.33-1.13l.14-.39v-.01c.08-.22.27-.5.51-.67a.68.68 0 01.47-.13c.2.03.35.14.47.31.18.26.24.66.24 1.06s-.07.84-.19 1.25l.12.35c.06.13.13.24.2.3.05.05.08.05.1.04.04 0 .13-.05.25-.21l.15-3.02a.25.25 0 11.5.02l-.07 1.44c.11-.16.24-.32.38-.44a.86.86 0 01.55-.23c.14 0 .28.05.4.18.1.11.17.27.2.46.09.37.08.95-.04 1.82a1.3 1.3 0 00.1.32c.02 0 .03-.02.04-.03.08-.11.2-.32.32-.68l.52-2.3.5.06-.1 2.64.59-.83c.07-.36.24-.97.48-1.5.12-.27.28-.54.46-.74.2-.2.45-.35.75-.3l.04.01.04.02c.18.1.3.28.37.47.07.2.12.42.13.66.03.46-.03 1.01-.2 1.5.02.12.07.27.15.4.09.13.19.2.32.21a.61.61 0 00.08-.17c.06-.18.11-.45.15-.78.07-.71.07-1.6.05-2.2a.25.25 0 11.5-.01c.01.36.02.85 0 1.34.12-.14.23-.27.36-.36a.74.74 0 01.44-.19c.16 0 .32.05.44.2.1.13.16.3.18.5.06.37.05.98.02 1.9l.06.2a11.86 11.86 0 00.69-1.96.25.25 0 11.48.12c-.18.73-.35 1.25-.5 1.6-.07.19-.14.33-.2.45a.94.94 0 01-.24.27.41.41 0 01-.35.07.45.45 0 01-.25-.18 1.3 1.3 0 01-.19-.5v-.05c.03-.96.04-1.53-.01-1.86-.03-.16-.06-.23-.08-.25l-.05-.01s-.05.01-.13.08a5.3 5.3 0 00-.73.95c-.04.31-.09.61-.17.84-.04.11-.1.23-.17.32-.07.1-.2.18-.35.18a.9.9 0 01-.77-.44v-.02l-.12.2c-.16.26-.4.53-.72.64-.2.07-.48.02-.68-.24-.1-.14-.19-.32-.24-.56l-.62.9c.2.6.37 1.72.36 2.7 0 .54-.05 1.06-.2 1.46-.13.39-.39.75-.85.75-.28 0-.53-.17-.7-.43a2.08 2.08 0 01-.3-1.04c-.05-.86.25-2.07 1.16-3.56l.03-.89c-.12.32-.24.56-.35.71-.13.16-.31.32-.55.26a.47.47 0 01-.23-.16.84.84 0 01-.13-.2c-.06-.14-.1-.3-.13-.44v-.08c.13-.88.12-1.4.06-1.69-.03-.14-.07-.2-.1-.22 0-.02-.01-.02-.02-.02-.04 0-.12.02-.22.11-.1.1-.22.22-.32.37-.2.29-.36.62-.45.82l-.03.52v.46a.25.25 0 01-.48.1.6.6 0 01-.7-.11c-.1-.1-.18-.2-.24-.32l-.14.24c-.17.25-.38.47-.65.56-.24.08-.47.06-.65-.08a.9.9 0 01-.29-.52 1.9 1.9 0 01-.03-.2c-.14.14-.32.27-.53.27-.27 0-.44-.2-.53-.38-.05-.1-.09-.2-.12-.33-.07.17-.16.33-.27.47a1 1 0 01-.64.4.6.6 0 01-.4-.1.72.72 0 01-.26-.28l-.06-.15c-.07.14-.14.27-.22.38-.07.1-.17.2-.28.26a.52.52 0 01-.42.02c-.27-.1-.4-.35-.47-.59a1.88 1.88 0 01-.03-.1c-.06.13-.12.26-.2.36a.95.95 0 01-.29.3.49.49 0 01-.44.03.55.55 0 01-.27-.27.936.936 0 01-.11-.37 4.4 4.4 0 01-.03-.9c.01-.24.04-.49.07-.73-.1.05-.2.1-.3.13-.16.58-.39 1.16-.55 1.54-.1.2-.2.36-.34.46a.55.55 0 01-.47.1c-.3-.09-.46-.39-.45-.67.02-.45.03-1.1-.02-1.61a2.46 2.46 0 00-.11-.57 5.08 5.08 0 00-.43.93 13.86 13.86 0 00-.45 1.64l-.48-.12.12-.54c.1-.54.14-1.05.12-1.43a1.5 1.5 0 00-.11-.52c-.05.02-.1.07-.18.13a6.86 6.86 0 00-.77.9l-.42 1.98-.26-.07c-.44-.12-.8-.43-1.1-.81-.18-.23-.34-.5-.48-.78-.75.09-1.47.08-2.1.03-.63 1.01-1.3 1.93-1.73 2.5a.25.25 0 11-.4-.3c.4-.52 1-1.34 1.57-2.26a8.22 8.22 0 01-1.45-.31.25.25 0 01.16-.47c.33.1.9.24 1.58.32.65-1.05 1.21-2.14 1.44-2.97a5.2 5.2 0 01-.11-.67 8.12 8.12 0 01-.02-1.12c.02-.38.07-.76.18-1.04a.84.84 0 01.27-.37zm-.15 4.21a17.1 17.1 0 01-1.05 2c.5.03 1.04.03 1.6-.03a8.97 8.97 0 01-.55-1.97zm.2-1.87c.13-.3.25-.62.32-.93.08-.3.12-.56.1-.75-.02-.19-.08-.24-.14-.25h-.03c-.02 0-.06.05-.1.15-.08.2-.13.51-.15.87-.02.3-.01.63 0 .91zm18.53 6.82a5.52 5.52 0 00-.83 2.83c.02.37.1.63.22.8.1.16.21.2.28.2.13 0 .27-.09.39-.42.1-.32.16-.77.16-1.28 0-.75-.1-1.55-.22-2.13zm1.42-2.16c0 .56.1.82.2.93.07.1.12.08.12.08.16-.06.31-.2.46-.43a3.8 3.8 0 00.51-2.06c-.01-.2-.05-.38-.1-.5a.51.51 0 00-.1-.2c-.08.01-.16.05-.27.16-.13.13-.25.34-.37.6-.22.5-.38 1.09-.45 1.42zm-2.39 1.05zm.08.01zm-5.76-3.43c.13-.32.22-.64.28-.96h-.3c0 .33 0 .66.02.96zm.02-1.46h.34a5.27 5.27 0 00-.03-1.1 1 1 0 00-.04-.14 1 1 0 00-.1.25c-.09.25-.14.6-.17.99zm.23-1.32zm-5.6 3.83c.06-.32.1-.61.07-.84-.03-.23-.1-.36-.2-.42a.21.21 0 00-.03-.02l-.02.02a1.48 1.48 0 00.01 1.1c.08.16.14.16.16.16zm-.15-1.29zm-.02 0zm7.37.94l-.14.42-.1.27c-.09.25-.17.52-.22.8-.05.28-.07.67-.01.95.03.14.08.21.1.24.03.01.07.04.19 0 .12-.05.26-.16.39-.36.13-.2.24-.46.33-.75.11-.38.17-.8.18-1.17 0-.38-.06-.65-.15-.77-.06-.09-.1-.1-.12-.1-.02 0-.06 0-.13.04a1 1 0 00-.32.43z"/><ellipse cx="36.06" cy="25.42" rx=".35" ry=".68" transform="rotate(10.8 36.06 25.42)"/><defs><linearGradient id="ajepsajf5" x1="22.14" y1="12.99" x2="33.38" y2="43" gradientUnits="userSpaceOnUse"><stop stop-color="#2FA34C"/><stop offset=".55" stop-color="#C6E7B0"/><stop offset="1" stop-color="#2FA34C"/></linearGradient><linearGradient id="bjepsajf5" x1="16.99" y1="18.3" x2="37.01" y2="39.6" gradientUnits="userSpaceOnUse"><stop offset=".13" stop-color="#E9F8E4"/><stop offset=".33" stop-color="#77C58F"/><stop offset=".46" stop-color="#C7E590"/><stop offset=".7" stop-color="#79CE7C"/><stop offset="1" stop-color="#E9F8E4"/></linearGradient><linearGradient id="cjepsajf5" x1="41.09" y1="30.9" x2="16.31" y2="32.45" gradientUnits="userSpaceOnUse"><stop stop-color="#B9E6B8"/><stop offset=".67" stop-color="#6BC5CE"/><stop offset="1" stop-color="#D3ECA3"/></linearGradient><linearGradient id="djepsajf5" x1="29.92" y1="26.39" x2="16.48" y2="28.82" gradientUnits="userSpaceOnUse"><stop stop-color="#EFEEEA"/><stop offset=".63" stop-color="#92D0E1"/><stop offset="1" stop-color="#D8EFBC"/></linearGradient><linearGradient id="ejepsajf5" x1="35.22" y1="16.33" x2="35.22" y2="37.43" gradientUnits="userSpaceOnUse"><stop stop-color="#92CE8E"/><stop offset=".16" stop-color="#D1EDD7"/><stop offset=".36" stop-color="#96D6E2"/><stop offset="1" stop-color="#717CB4"/></linearGradient><linearGradient id="fjepsajf5" x1="21.77" y1="19.49" x2="33.47" y2="38.87" gradientUnits="userSpaceOnUse"><stop stop-color="#E3F4D5"/><stop offset=".27" stop-color="#619ABE"/><stop offset=".46" stop-color="#76C8DE"/><stop offset=".61" stop-color="#E6F4F6"/><stop offset=".84" stop-color="#D4EEEC"/><stop offset="1" stop-color="#C4EAC1"/></linearGradient><linearGradient id="gjepsajf5" x1="22.12" y1="20.11" x2="30.11" y2="39.77" gradientUnits="userSpaceOnUse"><stop stop-color="#E0F3CF"/><stop offset=".17" stop-color="#F0F073"/><stop offset=".42" stop-color="#F3F9D8"/><stop offset=".56" stop-color="#DF8797"/><stop offset=".71" stop-color="#BC7A64"/><stop offset=".88" stop-color="#CBCF53"/><stop offset="1" stop-color="#C4C4C4" stop-opacity="0"/></linearGradient><linearGradient id="hjepsajf5" x1="21.7" y1="22.71" x2="28.26" y2="40.71" gradientUnits="userSpaceOnUse"><stop stop-color="#DAF0C1"/><stop offset=".34" stop-color="#8DD4E0"/><stop offset=".63" stop-color="#4374AF"/><stop offset="1" stop-color="#A2DEA2"/></linearGradient></defs></svg>