<svg width="56" height="56" viewBox="0 0 56 56" xmlns="http://www.w3.org/2000/svg"><path fill="#F0F3FA" d="M0 0h56v56H0z"/><path d="M8 38.96 27.6 10h.01a.03.03 0 0 1 .03 0L48 38.96v.01a.03.03 0 0 1-.01.03H8.03a.03.03 0 0 1-.03-.04Z" fill="#E90002"/><path d="M30.81 16.66v.05l-.03.02c-.94.33-1.87.7-2.79 1.03-.96-.35-1.9-.71-2.83-1.04-.06-.02-.06-.04 0-.06l.05-.01 2.66-1a.2.2 0 0 1 .17 0l2.77 1.01Z" fill="#fff"/><path d="M25.2 16.65h-.04c-.06.03-.06.05 0 .07.92.33 1.91.67 2.87 1.03.05.14.02.3 0 .47-.02.29.04.48 0 .48v1.26a1 1 0 0 1-.03.14s0-.02 0 0l-2.43-.88-.51-.21c-.03-.01-.06-.03-.06-.06v-2.13c0-.12.08-.19.2-.17Z" fill="#124389"/><path d="M30.81 16.66c.1-.03.2 0 .19.1v2.18c0 .03-.07.05-.1.06l-.78.3-2.12.77v-2.33a229.27 229.27 0 0 1 2.81-1.03v-.05Z" fill="#0C6CA8"/><path d="m25.57 19.22 2.4.85 2.15-.77 1.82.5-3.91 1.42c-1.33-.4-2.62-.91-3.92-1.39-.04-.01-.07.02-.12.08l.03-.08c0-.03.02-.05.05-.06l1.5-.55Z" fill="#fff"/><path d="M31.7 19.74c.09 0 .17.02.25.06.03.01.05.03.05.06v3.06c-.05.08-.14.13-.26.15a1.3 1.3 0 0 0-.28.07l-.27.11c-1.01.4-2.15.82-3.19 1.18-.47-.55.02-2.53 0-3.2l3.8-1.39c.03-.01.03-.03.01-.06-.02-.03-.06-.04-.11-.04Z" fill="#0C6CA8"/><path d="M28 21.2v3.1l4 1.5v2.96c0 .14.05.2.13.18.2.12.4.2.62.25l.15.07c.96.33 1.9.67 2.85 1.03l.23.15a.08.08 0 0 1 .04.07v1.15c0 .46-.04 1.12 0 1.68.02.1.04.15.09.18l3.86 1.4c-.1 0-.1.01 0 .07.03.01.04.04.04.07a1212.8 1212.8 0 0 1 .02 2.96c.01.02.04.02.07.02-.05.03-.1.05-.17.03l-3.97-1.43v-2.96c0-.05-.01-.08-.03-.1a.22.22 0 0 0-.12-.04l.02-.02c.01-.02 0-.03-.01-.04-1.3-.43-2.56-.95-3.85-1.4-.01-.97-.02-1.96-.01-2.93 0-.14-.03-.21-.08-.2-1.3-.5-2.59-.94-3.9-1.41V24.53a.08.08 0 0 0-.03-.03.17.17 0 0 0-.09-.02l-.09.03a.18.18 0 0 1-.16.05c-.03-.01-.06 0-.08.01-.84.6-2.43.94-3.4 1.27-.07.02-.13.06-.13.13v2.92c0 .03.06.05.1.06a.1.1 0 0 0 .04 0l3.87 1.39c.02 0 .01.04.03.06.02.02.02.04.01.07a109.51 109.51 0 0 1-.02 2.98c0 .03.02.05.05.07h.05l3.84 1.4c.05.07.07.23.06.48a84.69 84.69 0 0 0 0 2.65l.03.01c-.03.03-.07.03-.11.02l-3.97-1.44-.02-2.98-.01-.05a.09.09 0 0 0-.07-.04l-.05.01a.7.7 0 0 1-.23.07.1.1 0 0 0-.08.05l-.02.03a254.82 254.82 0 0 1-3.19 1.16c-.19-.03-.31.06-.31.25v2.95l-4.03-1.45v-2.95c0-.08-.05-.1-.13-.08a565.7 565.7 0 0 0-2.28.85c-.43.17-.88.3-1.34.4l3.62-1.33a.03.03 0 0 0 0-.03v-.01L16 32.07v-3.02c0-.04 0-.08.02-.1.04-.05.07-.06.11-.03.16.12.27.18.34.2.1.01.2.04.3.08a12.14 12.14 0 0 0 2.82 1.01l.29.12c.14.04.27-.02.4-.07a185.83 185.83 0 0 1 2.7-.95c.05 0 .04.02-.03.07a125.76 125.76 0 0 1-2.6.93l-.27.07c-.04 0-.06.03-.06.07.02.93.02 1.86 0 2.78 0 .16.03.26.1.29l3.84 1.39h.09l3.75-1.36c.07-.03.07-.05 0-.08l-3.59-1.3-.21-.12v-2.97c0-.03-.05-.05-.06-.07l-.07-.09-3.83-1.37a.14.14 0 0 0-.08 0l-.14.04.04-.04a.13.13 0 0 1 .06-.04c.05-.01.08-.04.08-.1v-2.94c0-.08.02-.11.09-.1 1.3.48 2.56.94 3.86 1.4.03.02.06.02.1 0l3.66-1.31c.16-.07.16-.12-.01-.16a2.33 2.33 0 0 1-.38-.14c-.12-.06-.25-.1-.38-.15A126.33 126.33 0 0 1 24 22.93v-3.02c.04-.06.07-.09.1-.08 1.3.48 2.57.97 3.9 1.37Z" fill="#124389"/><path d="m32 22.92 3.87 1.47-3.87 1.4-3.89-1.41L32 22.92ZM23.99 22.93a127.13 127.13 0 0 0 3.33 1.22c.13.07.25.11.38.15.17.04.17.1 0 .16l-3.66 1.32a.13.13 0 0 1-.09 0l-3.86-1.41.2-.1c.08-.02.15-.05.21-.09l.22-.08.23-.07 3.04-1.1Z" fill="#fff"/><path d="M35.87 24.39c0-.06.03-.05.09 0 .02.03.04.05.04.08v3.06l-3.87 1.4c-.08.03-.13-.03-.13-.17v-2.97l3.87-1.4ZM28 27.54l-3.86 1.42a.1.1 0 0 1-.05 0c-.03-.02-.09-.04-.09-.07v-2.92c0-.07.06-.11.12-.13l3.68-1.39.15.05.02.03.03.04v2.97Z" fill="#0C6CA8"/><path d="m36 27.53 3.87 1.38c-.1.07-.2.12-.27.15l-3.55 1.28a.14.14 0 0 1-.08 0l-.22-.05c-.94-.36-1.9-.7-2.85-1.03l-.15-.07a2.27 2.27 0 0 1-.62-.25l3.87-1.4ZM23.87 28.92l-.89.39a186.28 186.28 0 0 0-2.7.95c-.13.05-.26.11-.4.07l-.3-.12a12.17 12.17 0 0 1-.98-.35 35.77 35.77 0 0 0-2.13-.75 1.04 1.04 0 0 1-.34-.2l3.69-1.32.14-.04h.08l3.83 1.37ZM27.99 27.54c1.3.47 2.6.9 3.89 1.4l-3.9 1.43-3.84-1.41 3.85-1.42Z" fill="#fff"/><path d="m23.87 28.92.07.09c.01.02.06.04.06.07v2.97c-.03-.01 0 .03 0 0l.21.13c-.13-.05-.22-.07-.28-.05l-3.81 1.39c-.07-.03-.12-.13-.12-.29v-2.78c0-.04.04-.06.08-.07l.27-.07.27-.08a124.73 124.73 0 0 0 2.33-.85c.07-.05.08-.07.03-.07l.89-.39ZM31.88 28.94c.05 0 .12.07.12.2v2.95l-3.87 1.44-.05-.01c-.03-.02-.08-.04-.08-.07v-3.11l3.88-1.4ZM39.87 28.9c.09.02.13.07.13.16v2.98c.02.04 0 .06-.04.08-1.27.45-2.55.92-3.85 1.4a.23.23 0 0 1-.11-.18v-2.83l-.03-.04c0-.01 0 0 0 0l-.22-.18.22.05h.08l3.55-1.28c.08-.03.17-.08.27-.15Z" fill="#0C6CA8"/><path d="M40 32.04c1.3.59 2.51.97 3.89 1.44-.06.04-.15.09-.27.13l-3.65 1.31-3.86-1.4c1.3-.48 2.58-.95 3.85-1.4.04-.02.05-.04.03-.08ZM15.99 32.07l3.85 1.42.01.02a.03.03 0 0 1-.01.02l-3.62 1.34c-.05-.01-.11 0-.2.02h-.08l-.19-.06L12 33.56l3.99-1.5ZM31.97 32.09c1.29.44 2.55.96 3.85 1.39.02 0 .02.02.01.04l-.02.02-3.84 1.38-3.84-1.4 3.84-1.43ZM24.21 32.18l3.6 1.3c.06.02.06.04 0 .07l-3.76 1.36a.13.13 0 0 1-.1 0l-3.83-1.4 3.81-1.38c.06-.02.15 0 .28.05Z" fill="#fff"/><path d="M43.89 33.48c.03 0 .06 0 .09.04l.02.08v2.97c0 .04-.02.07-.06.08l-3.84 1.4c-.03 0-.06-.01-.07-.03a.06.06 0 0 1-.02-.04L40 35.06c0-.03 0-.06-.03-.07-.1-.06-.1-.08 0-.07l3.65-1.31c.12-.04.2-.09.27-.13Z" fill="#0C6CA8"/><path d="M15.75 34.83c.03.1.1.13.19.13.06 0 .1.02.1.09l-.02 2.97c0 .02 0 .03.02.03h.04a.15.15 0 0 1-.04.03.1.1 0 0 1-.07 0l-3.92-1.42c-.03 0-.05-.03-.05-.06v-3.04c.05-.04.13-.03.24 0 1.17.43 2.34.86 3.51 1.27Z" fill="#124389"/><path d="M35.8 33.54c.06 0 .1.02.13.04.02.02.07.05.07.1v2.96l-3.94 1.42h-.03c-.01-.01-.03-.02-.03-.04v-3.1l3.8-1.38ZM28 36.64l-4 1.45v-2.95c0-.2.12-.28.3-.25l.1-.01a253.95 253.95 0 0 0 3.1-1.15l.02-.03a.1.1 0 0 1 .08-.05.7.7 0 0 0 .23-.07.09.09 0 0 1 .09 0l.03.03c0 .02.05.03.05.05v2.98ZM20 36.64l-3.92 1.41h-.04c-.01 0-.04-.01-.04-.03v-2.97c0-.07 0-.1-.06-.1-.1.01-.16-.03-.19-.12l.2.06h.07a10.06 10.06 0 0 0 1.54-.42 603.33 603.33 0 0 1 2.28-.86c.08-.03.16 0 .16.08v2.95Z" fill="#0C6CA8"/></svg>