<svg width="56" height="56" viewBox="0 0 56 56" xmlns="http://www.w3.org/2000/svg"><path fill="#F0F3FA" d="M0 0h56v56H0z"/><path d="M6.78 25h.06c.08.1.15.26.23.46.7 1.97 1.27 3.52 1.7 4.67.04.12.11.26.22.42.11.17.27.25.46.26.07 0 .14 0 .2.02a.3.3 0 0 0 .12 0c.08 0 .18 0 .24-.07a.21.21 0 0 0 .06-.12c.01-.07.04-.13.04-.2l.07-4.32c0-.04.02-.08.04-.1.01-.02.02-.02.03-.02.04 0 .08.02.1.06 1.04 1.24 2.23 2.32 3.29 3.54.05.05.07.04.07-.04-.04-1-.06-2-.07-3 0-.03 0-.07-.02-.1-.01-.06 0-.1-.03-.15-.04-.07-.1-.15-.18-.16-.04 0-.07-.03-.11-.03h-.23l-.03-.03v-.07h.02c.06-.02.15-.02.25-.02l.4.01c.29.02.59-.01.87 0 .03 0 .04.01.05.04 0 .02 0 .03-.02.05l-.01.01h-.02a.5.5 0 0 0-.3.05c-.13.07-.15.31-.15.45a1620.03 1620.03 0 0 0-.09 4.33l-.01.03L14 31a.06.06 0 0 1-.05 0 .84.84 0 0 1-.21-.15l-.29-.3c-.91-1-1.97-1.96-2.82-3.02-.05-.07-.08-.05-.08.04.02.86.02 1.72.07 2.57.01.17.02.34.07.5.03.1.08.15.16.17.1.03.22.05.33.04.03 0 .05.02.06.04v.03c-.02.03-.05.09-.08.09H7.95c-.04 0-.11-.11-.08-.15a.1.1 0 0 1 .08-.04c.01 0 .02 0 .03-.02.04-.04.05-.1.03-.16a92.46 92.46 0 0 0-.57-1.66.06.06 0 0 0-.04-.01H5.85l-.04.01a161.52 161.52 0 0 1-.44 1.26c-.04.11-.06.23-.06.34-.01.28.26.25.43.25.03 0 .05.03.05.06v.02c-.01.03-.04.1-.08.1H4.1c-.04 0-.07-.06-.09-.1l.02-.06.03-.01c.1-.02.24 0 .33-.05l.11-.04a.9.9 0 0 0 .34-.47l1.83-5.07a.57.57 0 0 1 .12-.2Zm-.82 3.51a.05.05 0 0 0 0 .04l.02.02H6l1.25.01h.02l.02-.02v-.04l-.61-1.88-.02-.02-.03-.01h-.02l-.02.03-.63 1.87ZM38.35 29.4a.07.07 0 0 0-.03-.03.06.06 0 0 0-.03-.01h-1.35l-.04.01a.07.07 0 0 0-.02.04c-.12.33-.23.57-.35.93a.97.97 0 0 0-.05.41c.02.14.27.14.36.13.03 0 .05.02.04.05v.01c-.01.04-.03.06-.06.06h-1.46c-.48-.01-.79-.3-1.07-.7-.38-.51-.69-1.05-1.06-1.62-.04-.06-.08-.09-.14-.09h-.57c-.04 0-.06.02-.06.06v1.2c0 .2.02.43.05.68.02.18.1.29.28.3l.3.03c.04 0 .07.02.08.05.02.04-.03.07-.13.08a.6.6 0 0 1-.1 0h-1.78a.12.12 0 0 1-.1-.04v-.07h.02c.08-.02.17-.03.26-.03.4-.04.3-.92.3-1.24a673.15 673.15 0 0 0-.01-3.8c-.02-.16 0-.28-.13-.4-.04-.02-.08-.01-.11-.04a2.87 2.87 0 0 0-.32-.03.2.2 0 0 1-.1-.03l-.01-.03v-.03l.01-.03.04-.01a11.9 11.9 0 0 1 1.26.01l.22-.02h.75c.1 0 .21.03.32.04.18.02.36.08.55.18a1 1 0 0 1 .38.34c.41.63.28 1.4-.14 1.96a3.56 3.56 0 0 1-.5.56l.01.05c.5.68 1 1.42 1.51 2.02.13.15.27.27.42.37l.05.01c.02 0 .03-.01.04-.03.07-.09.13-.2.17-.32.53-1.47 1.05-2.8 1.55-4.2l.1-.23c.07-.11.15 0 .18.07l.05.1 1.56 4.2c.08.2.23.47.43.52.1.03.21.04.32.05h.02l.01.02c.01.03 0 .06-.05.08l-.03.01h-1.4c-.03 0-.05-.02-.07-.03a.05.05 0 0 1-.03-.02v-.04c0-.01.01-.02.03-.02.1-.02.13-.1.1-.2-.17-.47-.32-.83-.47-1.28Zm-4.43-2.56c-.04-.88-.58-1.44-1.38-1.26a.1.1 0 0 0-.06.04.11.11 0 0 0-.02.06v2.36c0 .03 0 .06.02.08l.07.05c.25.07.72.14.95-.05.36-.29.43-.82.42-1.28Zm3.11 2.14v.03h.02v.01H38.2v-.03l-.55-1.69v-.01h-.04v.01l-.57 1.68ZM17.98 30.9a.02.02 0 0 1 0-.02l.03-.03c.1-.02.12-.08.09-.18a378 378 0 0 0-.5-1.37.07.07 0 0 0-.03 0H16.19l-.02.03-.35.98a.96.96 0 0 0-.05.42c.01.13.27.13.36.12a.04.04 0 0 1 .03 0v.06c0 .03-.04.09-.07.09h-1.41c-.03 0-.05-.05-.06-.08l-.01-.03v-.03h.03c.14-.02.33-.02.44-.11.1-.08.18-.2.24-.33a696.77 696.77 0 0 0 1.67-4.38l.02-.02.03-.02a.07.07 0 0 1 .06.02c.03.02.05.05.07.09l.09.22a13528.72 13528.72 0 0 0 1.53 4c.08.2.23.43.42.48.21.05.42.05.64 0 .13-.03.17-.24.17-.35a18.9 18.9 0 0 0 .03-.92 4485.85 4485.85 0 0 0 .04-3.4c0-.04.01-.09.04-.12l.02-.02c.05 0 .09.01.12.05.57.67 1.15 1.3 1.73 1.92.53.55 1.03 1.12 1.55 1.69.05.04.07.03.07-.03 0-.1 0-.24-.02-.34v-.05a183.58 183.58 0 0 0-.05-2.54c0-.17-.03-.39-.2-.45a.68.68 0 0 1-.08-.02l-.03-.01h-.26l-.02-.02-.01-.02v-.02a.04.04 0 0 1 0-.03.04.04 0 0 1 .03-.02h1.54c.04.05.03.07-.02.1h-.02c-.06 0-.15 0-.2.02-.04.02-.08.02-.11.05-.11.1-.13.28-.13.42a1802.15 1802.15 0 0 0-.09 4.23c-.01.07-.05.08-.11.05a.8.8 0 0 1-.2-.14l-.35-.36c-.95-1-1.9-2-2.78-3.07-.04-.03-.05-.03-.05.02l.07 2.65c0 .18.01.41.09.6.03.07.07.1.14.13a1.15 1.15 0 0 0 .37.04v.01c.03.04-.06.14-.08.14H18.1c-.04 0-.1-.06-.12-.1Zm-1.66-1.97v.02l.01.02H17.47a.03.03 0 0 0 0-.03l-.54-1.6-.01-.02h-.03l-.01.01-.56 1.6ZM39.56 26.85h-.01l-.02-.02v-.13a10.65 10.65 0 0 1 .16-.79l.02-.02a.06.06 0 0 1 .06 0c.05.03.1.05.16.06.16.04.36.05.57.05h2.53c.16 0 .33-.02.49-.06.03 0 .06 0 .06.04.03.1 0 .18 0 .27v.6c0 .03-.02.06-.04.08a.03.03 0 0 1-.03.01h-.02v-.03a.85.85 0 0 1-.04-.17c-.02-.28-.39-.36-.59-.37a11.53 11.53 0 0 0-.88 0v3.55c0 .22.02.44.04.66.02.18.1.27.27.28.1.02.21.02.31.03.02 0 .04.02.05.04v.01l-.02.04a.06.06 0 0 1-.04.02h-1.81c-.04-.02-.06-.04-.06-.08l.02-.02h.02l.26-.04c.11-.03.16-.15.17-.26.03-.22.04-.44.04-.67a1063.59 1063.59 0 0 0 0-3.58h-.01a115.88 115.88 0 0 0-1.16.04c-.26.02-.35.19-.42.43l-.02.03c-.03.03-.05.04-.05.02l-.01-.02ZM25.6 26.13c-.1-.03-.2-.02-.31-.03h-.02v-.02c-.01-.04 0-.06.05-.08h.01a55.1 55.1 0 0 1 .88.02c.09.01.17-.02.26-.02a56.8 56.8 0 0 1 1.4.01c.27.03.5.06.68.11a2.11 2.11 0 0 1 1.6 1.83l.02.2a4.88 4.88 0 0 1-.03.71c-.01.11-.04.22-.06.32a2.35 2.35 0 0 1-.87 1.32c-.23.17-.5.3-.8.38-.4.1-.7.12-1.13.12h-1.8a.6.6 0 0 1-.13-.1c0-.03.01-.05.04-.05.1 0 .2-.02.29-.04.04-.01.06-.05.1-.08l.01-.04c.01-.06.04-.12.04-.18.1-1.27.04-2.56.04-3.83 0-.06 0-.12-.02-.17-.02-.1 0-.19-.07-.28a.18.18 0 0 0-.08-.06 1.36 1.36 0 0 0-.1-.04Zm3.68 1.74a2.01 2.01 0 0 0-1.63-1.52 2.51 2.51 0 0 0-.91-.01c-.08.01-.12.06-.12.14v3.4c0 .23 0 .57.23.68.13.07.3.1.48.12.27.02.51 0 .74-.05a1.5 1.5 0 0 0 1.2-1.1c.04-.17.07-.36.08-.57.03-.38.02-.73-.07-1.1ZM44.53 26.15c-.04 0-.07 0-.1-.02-.08-.03-.2-.02-.27-.02-.02 0-.03-.02-.03-.04v-.02c0-.01 0-.02.02-.03a393.68 393.68 0 0 1 .95 0c.06.02.11-.01.17-.02h.64c.03 0 .05.01.07.04v.04l-.01.01-.02.01a2 2 0 0 0-.29.04c-.07.02-.13.09-.14.17-.03.13-.05.27-.05.43a296.64 296.64 0 0 0 .01 1.36l.03.01h2.3l.01-.01.01-.02v-1.16c0-.17 0-.34-.02-.51-.01-.13-.07-.21-.17-.25a.84.84 0 0 0-.34-.05l-.04-.01c-.02-.02-.03-.03-.03-.05.02-.03.04-.05.06-.05h.7c.1 0 .19.03.28.02a10.7 10.7 0 0 1 .77-.01c.04.01.05.03.05.06-.01.03-.02.04-.04.04-.1 0-.2.02-.29.04-.15.05-.16.26-.17.4a934.72 934.72 0 0 1-.01 3.16c0 .28.01.55.03.83 0 .05.02.13.04.18.03.07.08.1.14.12a2 2 0 0 0 .4.05h.04c.03.04.02.07-.04.1l-.03.01h-1.74a.1.1 0 0 1-.1-.04v-.02c0-.03.01-.05.04-.05l.25-.03a.17.17 0 0 0 .14-.12c.04-.1.06-.23.06-.37a33.95 33.95 0 0 0 .01-1.9l-.02-.02h-2.3l-.02.02v1.31c0 .3 0 .57.03.81.02.14.1.25.22.26a4.17 4.17 0 0 0 .39.05l.01.02v.02c-.01.04-.03.05-.06.06H44.3c-.03 0-.05-.01-.08-.04v-.01c0-.04 0-.06.04-.06l.25-.03a.18.18 0 0 0 .14-.13.95.95 0 0 0 .05-.22l.03-.58v-3.2c0-.16-.01-.4-.11-.52a.04.04 0 0 0-.03-.02c-.02 0-.03 0-.04-.02 0-.02-.01-.02-.02-.02ZM52 30.9v.1h-1.85l-.05-.01a.1.1 0 0 1-.03-.04v-.02c0-.03.02-.04.05-.04l.24-.03c.1-.02.16-.12.17-.22.03-.21.04-.41.04-.6v-3.37c0-.17-.01-.47-.19-.52a1.1 1.1 0 0 0-.3-.05s-.02 0-.02-.02c-.02-.04 0-.06.07-.08h.01a106.18 106.18 0 0 1 .78.02c.08.01.15-.01.23-.02h.6c.04 0 .06.01.07.04v.03c0 .02 0 .04-.03.04h-.15a.1.1 0 0 0-.04.02c-.05.02-.1 0-.14.04-.12.08-.13.33-.13.46v3.32c0 .27 0 .5.03.69 0 .08.04.13.1.17.03.02.09.04.17.05l.37.05Z"/></svg>