<svg width="56" height="56" viewBox="0 0 56 56" xmlns="http://www.w3.org/2000/svg"><path fill="#F0F3FA" d="M0 0h56v56H0z"/><path d="M33.41 14.4c.02 0 .03.02.03.04v.05c-.63 0-1.15-.01-1.54-.04-.54-.02-1.04-.03-1.5 0-.78.03-1.72.05-2.82.06-.59.01-1.81.22-3.68.62a23.53 23.53 0 0 0-5.71 2.11 16.47 16.47 0 0 0-4.2 3.1c-2.5 2.53-3.89 6.16-2.66 9.74.51 1.46 1.3 2.79 2.4 3.97.55.6 1.2 1.19 1.98 1.77a20.34 20.34 0 0 0 6.05 3.1 28.71 28.71 0 0 0 13.26 1 25.21 25.21 0 0 0 7.6-2.4 16.1 16.1 0 0 0 4.45-3.3l.55-.57c.16-.15.19-.13.07.06-.55.95-1.28 1.83-2.2 2.66a18.6 18.6 0 0 1-3.21 2.35 22.78 22.78 0 0 1-6.52 2.46c-3.28.71-6.58.96-9.92.75a26.98 26.98 0 0 1-10.15-2.99c-2.68-1.46-5.2-3.69-6.61-6.45a9.92 9.92 0 0 1-.88-2.56c-.58-2.86.12-5.81 1.77-8.16a16.91 16.91 0 0 1 7.4-5.69c1.88-.79 3.8-1.34 5.78-1.66l1.9-.25c.84-.11 1.47-.16 1.91-.17l2.93.01c.4 0 .91.07 1.54.2.27.05.93.11 1.98.2Z" fill="#71B9E8"/><path d="M29.88 15.05a19.35 19.35 0 0 1 11.3 2.7c2.32 1.41 4.37 3.67 4.91 6.5.34 1.8.05 3.55-.87 5.22a9.91 9.91 0 0 1-2.37 2.86 15.43 15.43 0 0 1-5.92 3.04c-4.18 1.12-8.28.9-12.3-.64-.64-.24-1.4-.63-2.32-1.17a12.23 12.23 0 0 1-3.32-2.92 7.69 7.69 0 0 1-1.54-3c-.1-.4-.1-.94-.14-1.28-.02-.16 0-.16.06-.01.07.2.08.44.16.65.5 1.3 1.1 2.34 1.83 3.16.69.77 1.58 1.5 2.67 2.18a15.63 15.63 0 0 0 6.8 2.12c1.47.1 2.85.08 4.14-.07a16.5 16.5 0 0 0 5.1-1.5c1.32-.63 2.5-1.5 3.57-2.6a7.93 7.93 0 0 0 2.16-4.21 7.1 7.1 0 0 0-.33-3.43 8.87 8.87 0 0 0-1.88-3 11.9 11.9 0 0 0-2.5-1.96 18.72 18.72 0 0 0-4.64-1.87 21.16 21.16 0 0 0-4.1-.6 1.4 1.4 0 0 1-.48-.1c-.09-.04-.08-.06 0-.07Z" fill="#71B9E8"/><path d="m25.15 15.78.48-.11c.08-.02.1 0 .03.05a.58.58 0 0 1-.21.12 21.1 21.1 0 0 0-4.74 2.14c-.6.36-1.23.86-1.9 1.49a9.47 9.47 0 0 0-3.02 5.43 6.73 6.73 0 0 0-.01 2.24c.2 1.28.64 2.43 1.32 3.45a11.86 11.86 0 0 0 3.05 3.13 16.68 16.68 0 0 0 4.66 2.33c1.43.44 3.03.83 4.56.94 3.98.27 7.65-.23 11.21-1.98 2.02-.99 3.68-2.36 4.97-4.1.4-.53.75-1.22 1.1-2.08.68-1.75.66-3.6.03-5.33-.24-.68-.52-1.33-.83-1.96-.01-.03 0-.05.03-.06a9.1 9.1 0 0 1 1.25 9.61c-1.26 2.66-3.76 4.7-6.33 5.97a23.5 23.5 0 0 1-11.47 2.27c-3.4-.14-6.57-.97-9.48-2.48-2.8-1.46-5.4-3.8-6.42-6.97a8.77 8.77 0 0 1 1.22-7.67 12.48 12.48 0 0 1 2.74-2.89 18.6 18.6 0 0 1 7.76-3.54Z" fill="#71B9E8"/><path fill-rule="evenodd" d="M42.56 24.91c0 2.21-1.27 4.34-3.53 5.9a15.17 15.17 0 0 1-8.53 2.45c-3.2 0-6.26-.88-8.52-2.44-2.26-1.57-3.53-3.7-3.53-5.91 0-2.22 1.27-4.34 3.53-5.9a15.17 15.17 0 0 1 8.52-2.45c3.2 0 6.27.88 8.53 2.44 2.26 1.57 3.53 3.7 3.53 5.91ZM28 23.2v3.83c0 .1.06.4.18.9 0 .05-.01.08-.06.07H26.3l-.03-.02-.02-.02a.1.1 0 0 1-.04-.04.12.12 0 0 1-.02-.1l.04-.15a2 2 0 0 0 .12-.62v-5.03a8.7 8.7 0 0 0-.1-.95.1.1 0 0 1 .05-.06h.03a3.95 3.95 0 0 1 2.64.82 29.23 29.23 0 0 1 1 .84h.04a.1.1 0 0 0 .04-.04 5.7 5.7 0 0 0-.19-1.54c0-.02 0-.03.02-.04a.1.1 0 0 1 .03-.03l.04-.01h1.85l.03.04a.09.09 0 0 1 0 .08c-.12.28-.19.59-.2.92v4.9c0 .32.08.62.23.88a.09.09 0 0 1-.03.11l-.02.03-.02.03h-1.88s0-.02-.02-.03l-.01-.03a.08.08 0 0 1-.04-.1c.18-.54.2-1.18.17-1.7-.07-1.3-.94-2.33-1.9-3.02a.08.08 0 0 0-.08 0 .09.09 0 0 0-.04.03v.05Zm6.62 2.3v-2c-.01-1.1-.02-1.78.16-2.36a.12.12 0 0 0-.01-.1.1.1 0 0 0-.04-.03 14.75 14.75 0 0 1-1.83 0 .1.1 0 0 0-.04.03.12.12 0 0 0-.02.1c.19.6.18 1.28.17 2.4l-.01.96v.96a8.24 8.24 0 0 1-.17 2.45l.02.04a.1.1 0 0 0 .04.04 15.58 15.58 0 0 1 1.83 0 .1.1 0 0 0 .04-.03.11.11 0 0 0 .02-.1c-.18-.59-.18-1.26-.16-2.37Zm3.45-1.5c-.1.06-.1.1.02.13 1.33.23 2.22 1.06 2.66 2.5a15.32 15.32 0 0 1 .28 1.26c0 .02 0 .04-.02.05a.13.13 0 0 1-.04.04.1.1 0 0 1-.06.02h-1.8l-.02-.01a.07.07 0 0 1-.03-.04.08.08 0 0 1 0-.07c.19-.37.3-.73.1-1.14a2 2 0 0 0-1.06-.97c-.49-.2-.83-.32-1.02-.34-.06 0-.08.02-.08.08v1.44a2.5 2.5 0 0 0 .21 1.01.04.04 0 0 1-.02.04h-1.91l-.03-.01a.09.09 0 0 1-.03-.03.1.1 0 0 1-.01-.08v-.02c.08-.29.14-.52.14-.77.02-1.49.02-3.24 0-5.26a4.51 4.51 0 0 0-.1-.74l.03-.05a.1.1 0 0 1 .03-.03.1.1 0 0 1 .05 0h1.79l.02.02a.06.06 0 0 1 0 .05 5.08 5.08 0 0 0-.18 1.94l.05.06a.14.14 0 0 0 .13 0c.44-.19.73-.5.86-.95.07-.26 0-.53-.07-.78a3.76 3.76 0 0 1-.07-.3l.01-.02.02-.02.03-.01h1.72l.06.01.04.04c.02.01.03.03.03.05l.01.06a3.44 3.44 0 0 1-.66 2 3.31 3.31 0 0 1-1.08.84Zm-14.3 2.3h-1.64c-.03 0-.06.02-.08.03a.17.17 0 0 0-.06.06c-.34.54-.23.94-.03 1.52v.06l-.03.03h-1.74c-.02 0-.03-.01-.05-.03l-.03-.02a.18.18 0 0 1-.07-.05.2.2 0 0 1-.04-.17l.44-1.75a8.33 8.33 0 0 1 2.08-3.69 4.25 4.25 0 0 1 3.07-1.28.08.08 0 0 1 .04.06v.03a4.8 4.8 0 0 0-.1.85c-.02.69-.03 2.43-.01 5.2 0 .11.06.35.18.73.01.05 0 .12-.04.12h-1.84l-.03-.03c0-.02-.01-.03-.02-.03a.1.1 0 0 1-.04-.04.11.11 0 0 1-.01-.1c.16-.46.23-.9.2-1.34a.17.17 0 0 0-.05-.1.15.15 0 0 0-.1-.05Zm.23-2.76v1.24c0 .06-.04.11-.08.15a.2.2 0 0 1-.14.07h-1.02c-.03 0-.07 0-.1-.03a.2.2 0 0 1-.08-.09.22.22 0 0 1 .03-.22l1.02-1.26a.2.2 0 0 1 .1-.07l.12.01a.2.2 0 0 1 .1.08c.02.04.05.08.05.12Z" fill="#265B9C"/></svg>