<svg width="56" height="56" viewBox="0 0 56 56" xmlns="http://www.w3.org/2000/svg"><path fill="#F0F3FA" d="M0 0h56v56H0z"/><path d="M47.5 20c.45 0 .96 0 1.4.02.03 0 .05.02.07.04.02.02.03.04.03.07v2.1a.24.24 0 0 0 .05.16l.06.05.07.01h.63c.13 0 .19.08.19.22v1.17c0 .1-.04.16-.13.16h-.8a.08.08 0 0 0-.05.03.1.1 0 0 0-.02.06v8.79c0 .03-.01.05-.03.07-.02.03-.04.05-.07.05h-2.79c-.03 0-.05-.02-.07-.04-.01-.02-.04-.05-.04-.08V24.06a.09.09 0 0 0-.04-.05H45.13c-.08 0-.13-.06-.13-.16v-1.17c0-.15.06-.22.2-.22h.62c.05 0 .1-.03.13-.07.04-.04.05-.1.05-.15v-2.1c0-.03.01-.06.03-.08a.09.09 0 0 1 .06-.03c.45-.02.95-.03 1.4-.03ZM32.84 25h-2.68a.16.16 0 0 0-.16.17l.01 7.66c0 .1.08.17.17.17h2.67c.1 0 .16-.08.16-.17L33 25.16c0-.09-.07-.16-.16-.16ZM21.12 27c-.08 0-.12.07-.12.15v5.74c0 .07-.2.11-.26.11h-2.58a.16.16 0 0 1-.11-.05.18.18 0 0 1-.05-.12v-7.65c0-.04.02-.09.05-.12.03-.03.07-.06.11-.06h8.61c.9 0 1.53.32 1.9.98.2.37.33 1.02.33 1.98v4.88c0 .1-.04.16-.14.16h-2.7c-.1 0-.16-.06-.16-.17v-5.68c0-.03 0-.07-.02-.09-.02-.02-.05-.06-.09-.06h-4.77Z" fill="#9E1316"/><path d="m36.01 28.16 4.16 4.63a.13.13 0 0 1 .02.14.13.13 0 0 1-.12.07h-3.52a.54.54 0 0 1-.4-.18c-.62-.7-1.4-1.6-2.35-2.72a1.34 1.34 0 0 1-.36-.86v-2.3a.8.8 0 0 1 .38-.67l1.91-1.23a.23.23 0 0 1 .13-.04h4.21c.36 0 .39.1.1.28l-4.13 2.66a.14.14 0 0 0-.06.16l.03.06Z" fill="#21223E"/><path d="M42.5 28a1.5 1.5 0 1 0 0-3 1.5 1.5 0 0 0 0 3ZM14.85 25.02a302.03 302.03 0 0 0-7.7 0 2 2 0 0 0-1.93 1.19c-.16.31-.23.97-.22 1.96v4.7c0 .03.02.07.05.1.02.02.06.03.1.03H7.8a.2.2 0 0 0 .14-.06.2.2 0 0 0 .05-.14v-2.2a.1.1 0 0 1 .03-.06.1.1 0 0 1 .07-.03 170.79 170.79 0 0 1 5.88.03.1.1 0 0 1 .02.06v2.2c0 .05.02.1.06.14a.2.2 0 0 0 .14.06h2.66c.04 0 .07-.02.1-.05a.13.13 0 0 0 .04-.1v-4.69c0-1-.07-1.64-.22-1.96a2 2 0 0 0-1.93-1.18ZM8.16 27h5.68c.09 0 .16.08.16.18v1.64c0 .1-.07.18-.16.18H8.16c-.09 0-.16-.08-.16-.18v-1.64c0-.1.07-.18.16-.18ZM43.83 29h-2.66c-.1 0-.17.07-.17.17v3.66c0 .1.08.17.17.17h2.66c.1 0 .17-.07.17-.17v-3.66c0-.1-.08-.17-.17-.17Z" fill="#9E1316"/></svg>