<svg width="56" height="56" viewBox="0 0 56 56" xmlns="http://www.w3.org/2000/svg"><path fill="#F0F3FA" d="M0 0h56v56H0z"/><path d="m23.7 14.93-1.38 2.03-.03.02V17l-.02.01H19.7l-.04-.01a.08.08 0 0 1-.02-.04.1.1 0 0 1 0-.05l.01-.04 3.21-3.82.05-.04h12.31l.04.01.02.04 1.42 3.82a.1.1 0 0 1 0 .08l-.03.03h-.01l-.02.02H24.59c-.02 0-.03 0-.04-.02a.08.08 0 0 1-.03-.04l-.7-2a.08.08 0 0 0-.02-.03.06.06 0 0 0-.03-.01h-.04a.07.07 0 0 0-.03.03Zm-3.42 5.46-.04.17c-.13.5-.2.98-.23 1.46-.1 2.56.82 4.5 2.75 5.8.17.12.16.18-.04.18h-12.1c-.09 0-.12-.05-.1-.14.13-.88.3-1.44.5-1.66 2.95-3.36 5.34-6.06 7.15-8.1.06-.07.13-.1.2-.1h2.7c.14 0 .16.06.06.19-.41.53-.64 1.4-.85 2.2ZM28.8 28h12.3l.01-.01h.01l.02-.03a.08.08 0 0 0 0-.07l-3.82-9.84a.07.07 0 0 0-.02-.03l-.03-.02H25.14l-.03.03a.08.08 0 0 0 0 .07l3.63 9.85.02.04.04.01Zm-1.2 7.87c-.02.09-.08.13-.16.13h-16.2a.2.2 0 0 1-.12-.04.24.24 0 0 1-.08-.1 10.9 10.9 0 0 1-.85-6.74c0-.08.05-.12.12-.12h18.46l.02.02.02.03v.03l-.56 4c-.06.48-.16.95-.28 1.4l-.37 1.39Zm4.49.13H44.5l.03-.03a.08.08 0 0 0 0-.08l-2.73-6.84a.08.08 0 0 0-.02-.03.07.07 0 0 0-.04-.02H29.33a.07.07 0 0 0-.03.03.08.08 0 0 0 0 .08l2.72 6.84.03.03.04.02Zm-19.76 1H27.06c0 .02.02.02.02.03a.1.1 0 0 1 .01.08l-.89 2.76a.18.18 0 0 1-.05.09c-.03.02-.05.04-.08.04h-8.78c-.6 0-1.1-.1-1.51-.28a10.72 10.72 0 0 1-3.04-2c-.22-.2-.38-.39-.48-.55-.08-.11-.05-.17.07-.17Zm21.3 3 12.3-.69h.04l.02-.03a.1.1 0 0 0 0-.08l-.8-2.15a.08.08 0 0 0-.02-.04.06.06 0 0 0-.04-.01h-12.5l-.03.01a.07.07 0 0 0-.03.03.1.1 0 0 0 0 .08l.99 2.83.02.04.04.01Z" fill="#28179B"/></svg>