<svg xmlns="http://www.w3.org/2000/svg" width="56" height="56" viewBox="0 0 56 56"><path fill="#F0F3FA" d="M0 0h56v56H0z"/><path d="M26.25 28.24c.95.35 1.55.87 1.73 1.08.4-.28 1.38-.9 1.97-1.08.74-.25 4.12-2.21 4.12-6-.92-5.3-4.2-9.03-5.72-10.24-3.5 1.38-5.69 7.4-6.34 10.25.37 4.14 3.04 5.54 4.24 5.99z" fill="url(#aq3z5znas)"/><path d="M27.54 17.5l.57-3.7v3.9l1.75-.99c-.37.5-1.17 1.51-1.42 1.72-.25.2-.2 3.2-.15 4.68.87-1 2.7-3.16 3.06-3.71.47-.69-2.29 3.95-3.06 4.8l-.13 1.76 4.23-3.48a72.64 72.64 0 0 1-4.23 4.34v1.6l-.46-.14-.19-1.46c-1.17-.88-3.6-3.04-3.95-4.63l-.09-1.37c1 1.47 3.17 4.49 3.9 4.83L27.5 22l-3.95-2.14c.28-.08.97-.18 1.52.13.54.3.53.12.46 0l-.98-2.9c.55 1.07 1.85 3.33 2.62 3.74.11-.5.33-1.6.33-1.98 0-.2-.34-.55-.74-.96a4.68 4.68 0 0 1-1.23-1.63l2 1.25z" fill="#3A8302"/><path d="M33.67 31.98c.16.98 0 1.75-.1 2 .45.21 1.47.73 1.94 1.14.58.51 4 2.4 7.37.53 4.26-3.41 5.97-8.04 6.28-9.93-2.96-2.28-9.4-1.15-12.26-.3-3.5 2.36-3.43 5.33-3.23 6.56z" fill="url(#bq3z5znas)"/><path d="M43.87 27.75l3.57-1.34-3.47 1.93 1.75 1c-.62-.08-1.93-.25-2.23-.36-.3-.12-2.96 1.41-4.25 2.2 1.33.23 4.16.71 4.83.75.84.05-4.65.02-5.79-.22l-1.63.76 5.19 1.87c-1.6-.34-5.01-1.09-5.96-1.44l-1.43.8-.1-.46 1.2-.89c.2-1.43.93-4.57 2.17-5.64l1.17-.76c-.8 1.57-2.42 4.91-2.36 5.7l3.32-1.69-.04-4.41c.2.2.63.73.63 1.34 0 .62.16.52.23.4l2.1-2.27c-.68 1-2.05 3.22-2.04 4.08.5-.16 1.6-.52 1.93-.7.19-.1.33-.56.49-1.1.2-.67.43-1.46.84-1.86l-.12 2.31z" fill="#3A8302"/><path d="M22.33 31.98c-.16.98 0 1.75.1 2-.45.21-1.47.73-1.94 1.14-.58.51-4 2.4-7.37.53-4.26-3.41-5.97-8.04-6.28-9.93 2.96-2.28 9.4-1.15 12.26-.3 3.5 2.36 3.43 5.33 3.23 6.56z" fill="url(#cq3z5znas)"/><path d="M12.13 27.75l-3.58-1.34 3.48 1.93-1.75 1c.62-.08 1.93-.25 2.23-.36.3-.12 2.96 1.41 4.25 2.2-1.33.23-4.16.71-4.83.75-.84.05 4.65.02 5.79-.22l1.63.76-5.19 1.87c1.6-.34 5.01-1.09 5.96-1.44l1.43.8.1-.46-1.2-.89c-.21-1.43-.93-4.57-2.17-5.64l-1.17-.76c.8 1.57 2.42 4.91 2.36 5.7l-3.33-1.69.05-4.41c-.2.2-.63.73-.63 1.34 0 .62-.16.52-.23.4l-2.1-2.27c.68 1 2.05 3.22 2.04 4.08-.5-.16-1.6-.52-1.93-.7-.19-.1-.33-.56-.49-1.1-.2-.67-.43-1.46-.84-1.86l.12 2.31z" fill="#3A8302"/><circle cx="28" cy="35" r="5" fill="#BFD2EF"/><circle cx="28" cy="35" r="4" fill="#44ABD8"/><circle cx="28" cy="35" r="2.5" fill="#004EBF"/><defs><linearGradient id="aq3z5znas" x1="20.59" y1="21.66" x2="33.44" y2="26.92" gradientUnits="userSpaceOnUse"><stop stop-color="#A6C200"/><stop offset=".44" stop-color="#62AE04"/><stop offset=".94" stop-color="#317C04"/></linearGradient><linearGradient id="bq3z5znas" x1="36.73" y1="23.93" x2="38.55" y2="37.41" gradientUnits="userSpaceOnUse"><stop stop-color="#A6C200"/><stop offset=".44" stop-color="#62AE04"/><stop offset=".94" stop-color="#317C04"/></linearGradient><linearGradient id="cq3z5znas" x1="19.27" y1="23.93" x2="17.45" y2="37.41" gradientUnits="userSpaceOnUse"><stop stop-color="#A6C200"/><stop offset=".44" stop-color="#62AE04"/><stop offset=".94" stop-color="#317C04"/></linearGradient></defs></svg>