<svg width="56" height="56" viewBox="0 0 56 56" xmlns="http://www.w3.org/2000/svg"><path fill="#F0F3FA" d="M0 0h56v56H0z"/><path d="M21.76 33h12.49a21.54 21.54 0 0 1-1.74-3.24c.71-.29 1.27-.6 1.68-.9.8 1.72 1.57 3.14 2.16 4.14h6.15c-3.3-2.25-10.64-9.88-13.55-22.37.39 6.22 2.78 12.89 4.95 17.6-.4.27-.97.57-1.69.84-2.58-6.23-3.9-14.76-4.24-19V10v.04l-.01-.03v.06c-.35 4.24-1.62 12.83-4.2 19.06a6.86 6.86 0 0 1-1.66-.88c2.16-4.72 4.56-11.4 4.95-17.62C24.14 23.13 16.8 30.75 13.5 33h6.15c.59-1 1.35-2.41 2.15-4.12.38.3.93.65 1.67.95a21.04 21.04 0 0 1-1.7 3.17Z" fill="#00853E"/><path d="M36.07 25a9 9 0 0 0-5.49-12.62c.92 5.7 3.73 10.4 5.49 12.61Zm-10.5-12.67a9 9 0 0 0-5.66 12.63c3.22-3.8 5-9.47 5.67-12.63Z" fill="#EF7D00"/><path fill="#00853E" d="M13 34h30v.5H13zM13 40.5h30v.5H13z"/><path d="M14.93 35 13 40h2.07l.2-.7h1.5l.19.7H21v-2.16L22.17 40H24v-5h-2v2.16L20.74 35H19v5l-1.88-5h-2.19Zm1.5 3h-.8l.4-1.47.4 1.47Zm13.9-3-1.87 5h2l.19-.7h1.46l.18.7h1.97l-1.81-5h-2.12Zm1.44 3H31l.4-1.47.37 1.47ZM26 35v3.07c.01.13.03.37-.31.37-.34 0-.5-.19-.54-.28l-.65 1.3c.2.18.78.54 1.59.54 1 0 1.91-.59 1.91-1.93V35h-2Zm9 0v5h2v-1.82L38.21 40H40v-5h-2v1.96L36.75 35H35Zm8 0h-2v5h2v-5Z" fill="#EF7D00"/></svg>