<svg xmlns="http://www.w3.org/2000/svg" width="56" height="56"><path fill="#F0F3FA" d="M0 0h56v56H0z"/><path d="M25.77 15L28 11l2.23 4h-4.46zm5.46 2h-6.47L23 20h10l-1.77-3zm2.73 5H22.02l-1.72 3h15.4l-1.74-3z" fill="#007DC5"/><path d="M20.12 27.02l-7.12 12h5.12L20.7 35h3.9l1.86-2.4-2.3-2.6h2.97L29 27.39 30.73 30h2.93l-2.32 2.6L33.2 35h4.16l2.52 4.02H45l-7.18-12h-17.7z" fill="url(#awv12q1bc)"/><defs><linearGradient id="awv12q1bc" x1="13" y1="33.02" x2="45" y2="33.02" gradientUnits="userSpaceOnUse"><stop stop-color="#C4161C"/><stop offset=".5" stop-color="#F26649"/><stop offset="1" stop-color="#C4161C"/></linearGradient></defs></svg>