<svg xmlns="http://www.w3.org/2000/svg" width="56" height="56"><path fill="#F0F3FA" d="M0 0h56v56H0z"/><path d="M22.84 23.82A7.87 7.87 0 0016 19.98c-4.32 0-7.82 3.34-7.82 7.47s3.5 7.47 7.82 7.47a7.85 7.85 0 007-4.14A9.8 9.8 0 0113.8 37C8.39 37 4 32.75 4 27.5c0-5.24 4.39-9.5 9.8-9.5 4.07 0 7.55 2.4 9.04 5.82z" fill="#50C5D8"/><path d="M22.53 23.36a7.57 7.57 0 00-5.49-2.27c-3.97 0-7.2 2.88-7.2 6.42s3.23 6.41 7.2 6.41c2.02 0 3.84-.74 5.15-1.93a7.97 7.97 0 01-6.23 2.94c-4.33 0-7.85-3.35-7.85-7.49 0-4.13 3.52-7.48 7.85-7.48a7.94 7.94 0 016.57 3.4z" fill="#F89938"/><path d="M10.81 30l1.9-5h1.78l1.87 5h-1.48l-.39-1h-1.84l-.38 1h-1.46zm2.78-4l-.73 2h1.46l-.73-2zm2.86-1v5h1.37v-1.66h1.24c.45 0 1.42-.46 1.42-1.63 0-1.24-1.01-1.71-1.48-1.71h-2.55zm1.38 1.09h.63c.21 0 .6.17.6.55 0 .37-.35.58-.6.58h-.63V26.1z" fill="#50C5D8"/><path d="M29.13 25v5h1.37v-1.65h1.25c.44 0 1.41-.46 1.41-1.63 0-1.25-1-1.72-1.48-1.72h-2.55zm1.39 1.1h.63c.21 0 .59.16.59.54s-.35.59-.6.59h-.62v-1.14z" fill="#F89938"/><path d="M20.76 30v-5h1.52v4h1.7l-.46 1h-2.76z" fill="#50C5D8"/><path d="M39.5 30v-5H41v4h2v1h-3.5zm4 0v-5H45v4h2v1h-3.5z" fill="#F89938"/><path fill-rule="evenodd" d="M36.28 30a2.5 2.5 0 100-5 2.5 2.5 0 000 5zm0-1c.73 0 1.32-.67 1.32-1.5S37 26 36.28 26c-.73 0-1.32.67-1.32 1.5s.59 1.5 1.32 1.5zm13.22 1a2.5 2.5 0 100-5 2.5 2.5 0 000 5zm0-1c.73 0 1.32-.67 1.32-1.5s-.6-1.5-1.32-1.5c-.73 0-1.32.67-1.32 1.5s.6 1.5 1.32 1.5zm-26 1l1.89-5h1.79l1.87 5h-1.48l-.4-1h-1.84l-.37 1H23.5zm2.77-4l-.72 2H27l-.74-2z" fill="#F89938"/></svg>