<svg width="56" height="56" viewBox="0 0 56 56" xmlns="http://www.w3.org/2000/svg"><path fill="#F0F3FA" d="M0 0h56v56H0z"/><path d="M16.4 20.52 6 34v2h39v-2H9.76L17 25.05V33h3.94c.94 0 1.64-.58 2.03-1.48l4.04-8.35c.05-.1.15-.17.25-.17h.97c.2 0 .33.21.25.4L24.32 33h3.32l4.14-9.82a.28.28 0 0 1 .26-.18H33c.2 0 .33.2.26.4l-3.14 7.48c-.08.23-.12.44-.12.64 0 .9.77 1.48 1.8 1.48H41c1.18 0 2.25-.74 2.72-1.88l1.72-3.73C45.9 26.3 45.14 25 44 25h-1.97l-1.16 3.47h.2c.44 0 .74.46.6.88l-.07.19c-.15.43-.54.46-.97.46h-7.08l3.38-7.79c.1-.23.13-.47.12-.7-.05-.81-.68-1.51-1.52-1.51h-7.88c-1.26 0-2.4.78-2.9 1.99l-3.55 7.3c-.27.65-1.19.44-1.19-.27v-8.07c0-.53-.4-.95-.9-.95h-1.68c-.4 0-.77.2-1.02.52ZM40.8 25h.56l-1.16 3.47h-3.16c-.7 0-1.16-.74-.9-1.41l2.24-5.55A2.35 2.35 0 0 1 40.54 20H50l-1.08 3h-7.27c-.42 0-.8.28-.96.7l-.27.76c-.1.29.1.54.39.54Z" fill="#6FBCE9"/><path d="M16 29v4h-3l3-4Z" fill="#6FBCE9"/></svg>