<svg width="56" height="56" viewBox="0 0 56 56" xmlns="http://www.w3.org/2000/svg"><path fill="#F0F3FA" d="M0 0h56v56H0z"/><path fill-rule="evenodd" d="M22.5 41a12.5 12.5 0 1 0-8.81-21.37l.7.71a11.5 11.5 0 1 1 .42 16.7c.02-.2.04-.51.04-.92 0-1.11-.79-2.45-2.46-3.12a4.27 4.27 0 0 1-2-1.43l-.37-.63-.02.73c-.01.62.02 1.6.14 2.49.07.44.16.88.29 1.25.12.36.29.68.53.87.4.32 1.01.64 1.59.9.58.27 1.16.48 1.5.6l.09.03h.01A12.45 12.45 0 0 0 22.5 41Zm-12.09-8.76c.01.55.05 1.23.14 1.86.06.43.15.84.26 1.17.12.34.26.57.4.69.37.29.93.59 1.5.85.5.22.97.4 1.31.52l-.03-.41-.9-.1.05-.4.34.03v-.07l-.94-.22.1-.4.35.08.01-.06-1.17-.47.15-.38.5.2.02-.06-1.03-.35.12-.34-.52-.12.09-.4.3.06-.12-.4.4-.1.16.6.36.09.13-.26.36.19-.3.58.23.08.14-.26.36.18-.33.65.23.1.04-.2.4.07-.13.7.16.03.04-.24.4.07-.05.33.4-.03.06.88c.03-.2.04-.48.04-.86 0-.92-.66-2.12-2.2-2.74a5.6 5.6 0 0 1-1.83-1.14Zm3.7 5.13-.05-.02h.1l-.05.02Zm-.17-1.22-.06.34h.08l-.02-.34Z" fill="#064F90"/><path d="M27 24.5c0 .32-.07.6-.2.82-.13.22-.31.39-.54.5-.23.12-.48.18-.76.18s-.54-.06-.76-.18c-.23-.11-.4-.28-.54-.5-.13-.23-.2-.5-.2-.82 0-.32.07-.6.2-.82.13-.22.31-.39.54-.5.22-.12.48-.18.76-.18s.53.06.76.17c.23.12.4.29.54.51.13.23.2.5.2.82Zm-.78 0c0-.19-.03-.35-.08-.48a.64.64 0 0 0-.64-.4.72.72 0 0 0-.39.1c-.1.07-.2.17-.25.3-.06.13-.09.29-.09.48s.03.35.1.48c.05.13.13.23.24.3.1.07.24.1.39.1.15 0 .28-.03.39-.1.1-.07.19-.17.25-.3.05-.13.08-.29.08-.48ZM21 26v-3h.73v2.41H23V26h-2ZM18 26v-3h.73v2.41H20V26h-2ZM17 24.5c0 .32-.07.6-.2.82-.13.22-.31.39-.54.5-.23.12-.48.18-.76.18s-.54-.06-.76-.18c-.23-.11-.4-.28-.54-.5-.13-.23-.2-.5-.2-.82 0-.32.07-.6.2-.82.13-.22.31-.39.54-.5.22-.12.48-.18.76-.18s.53.06.76.17c.23.12.4.29.54.51.13.23.2.5.2.82Zm-.78 0c0-.19-.03-.35-.08-.48a.64.64 0 0 0-.64-.4.72.72 0 0 0-.39.1c-.1.07-.2.17-.25.3-.06.13-.09.29-.09.48s.03.35.1.48c.05.13.13.23.24.3.1.07.24.1.39.1.15 0 .28-.03.39-.1.1-.07.19-.17.25-.3.05-.13.08-.29.08-.48ZM11 26v-3h1.06a.86.86 0 0 1 .82.5c.08.15.12.33.12.54 0 .2-.04.39-.12.54a.85.85 0 0 1-.33.36.98.98 0 0 1-.5.13h-.66v-.57h.54c.1 0 .17-.02.23-.06.07-.04.11-.1.15-.16a.56.56 0 0 0 .05-.24c0-.1-.02-.17-.05-.24a.36.36 0 0 0-.15-.16.46.46 0 0 0-.23-.06h-.3V26H11ZM7.78 26H7l1.02-3h.96L10 26h-.78l-.7-2.24h-.03L7.79 26Zm-.1-1.18H9.3v.55H7.68v-.55ZM51.57 27.8a.42.42 0 0 0-.17-.3.63.63 0 0 0-.38-.12c-.11 0-.21.02-.29.06a.45.45 0 0 0-.19.15.38.38 0 0 0-.06.22c0 .07.01.13.04.18.03.05.07.1.12.13l.16.08.16.05.27.08.26.09c.1.04.17.09.25.15a.72.72 0 0 1 .26.58.8.8 0 0 1-.46.74 1.2 1.2 0 0 1-.53.11c-.2 0-.38-.03-.53-.1a.82.82 0 0 1-.48-.75h.4c.01.1.05.19.1.26.06.07.13.12.22.15a.8.8 0 0 0 .28.05c.12 0 .22-.01.3-.05.1-.04.17-.1.22-.17a.41.41 0 0 0 .08-.25.32.32 0 0 0-.07-.2.5.5 0 0 0-.18-.15 1.68 1.68 0 0 0-.26-.1l-.32-.08a1.2 1.2 0 0 1-.51-.28.66.66 0 0 1-.19-.5c0-.16.04-.3.13-.43.08-.13.2-.23.34-.3.14-.06.3-.1.48-.1.19 0 .35.03.49.1s.25.17.33.29c.08.12.12.26.12.41h-.39ZM47 30v-3h.5v2.61H49V30h-2ZM44 30v-3h1.98v.39H44.5v.91h1.38v.4H44.5v.91H46V30h-2ZM40 27.39V27h3v.39h-1.2V30h-.6v-2.61H40ZM32 30v-3h.5v1.3H34V27h.57v3H34v-1.3h-1.5V30H32ZM27 30v-3h.96c.57 0 .94.38.94.94 0 .37-.14.65-.42.8-.14.09-.31.12-.52.12h-.73v-.38h.7c.33 0 .56-.2.56-.54 0-.35-.22-.55-.57-.55h-.42V30H27Zm1.33-1.35L29 30h-.46l-.66-1.35h.45ZM26 28.5c0 .87-.63 1.5-1.5 1.5s-1.5-.63-1.5-1.5.63-1.5 1.5-1.5 1.5.63 1.5 1.5Zm-.5 0c0-.6-.37-1.1-1-1.1s-1 .5-1 1.1c0 .6.37 1.1 1 1.1s1-.5 1-1.1ZM39 28.5c0 .87-.63 1.5-1.5 1.5s-1.5-.63-1.5-1.5.63-1.5 1.5-1.5 1.5.63 1.5 1.5Zm-.5 0c0-.6-.37-1.1-1-1.1s-1 .5-1 1.1c0 .6.37 1.1 1 1.1s1-.5 1-1.1ZM22 28.5c0 .87-.63 1.5-1.5 1.5s-1.5-.63-1.5-1.5.63-1.5 1.5-1.5 1.5.63 1.5 1.5Zm-.5 0c0-.6-.37-1.1-1-1.1s-1 .5-1 1.1c0 .6.37 1.1 1 1.1s1-.5 1-1.1ZM16.2 30H15v-3h1.25c1.09 0 1.75.56 1.75 1.5 0 1.02-.86 1.5-1.8 1.5Zm-.7-.4h.68c.7 0 1.32-.35 1.32-1.1 0-.74-.6-1.1-1.29-1.1h-.71v2.2ZM14 27v3h-.52l-1.95-2.2h-.03V30H11v-3h.52l1.93 2.2h.03V27H14ZM9.5 27v3H9v-3h.5ZM7.57 27.8a.42.42 0 0 0-.17-.3.63.63 0 0 0-.38-.12c-.11 0-.21.02-.29.06a.45.45 0 0 0-.19.15.38.38 0 0 0-.06.22c0 .07.01.13.04.18.03.05.07.1.12.13l.16.08.16.05.27.08.26.09c.1.04.17.09.25.15a.72.72 0 0 1 .26.58.8.8 0 0 1-.46.74c-.15.07-.32.11-.53.11-.2 0-.38-.03-.53-.1a.82.82 0 0 1-.48-.75h.4c.01.1.05.19.1.26.06.07.13.12.22.15a.8.8 0 0 0 .28.05c.12 0 .22-.01.3-.05.1-.04.17-.1.22-.17a.41.41 0 0 0 .08-.25.32.32 0 0 0-.07-.2.5.5 0 0 0-.18-.15 1.68 1.68 0 0 0-.26-.1l-.32-.08a1.2 1.2 0 0 1-.51-.28.66.66 0 0 1-.19-.5c0-.16.04-.3.13-.43.08-.13.2-.23.34-.3.14-.06.3-.1.48-.1.19 0 .35.03.49.1s.25.17.33.29c.08.12.12.26.12.41h-.39ZM30.5 27v3H30v-3h.5Z" fill="#064F90"/></svg>