<svg width="56" height="56" xmlns="http://www.w3.org/2000/svg"><path fill="#007D9E" d="M0 0h56v56H0z"/><path d="M36 41.482L37.5 43l1.5-1.518V37h-3v4.482zM39 32h-4v-1.177L25.424 43h4.799l5.348-7H39v-4zm-3-1h3v-3.414L41 25h-7l2 2.586V31zM24.774 18H15v19h4.609l10.615-13.064L24.774 18zM22 25h-2v2h-1v-2h-2v-1h2v-2h1v2h2v1zm6.852 11.15l.69-3.15H31v-7.981L20 38.383v4.611L25.424 37h2.383s.83.092 1.045-.85zM29 29l-.5 1-.5-1h1z" fill="#fff"/><path d="M32.758 13.635l-.117-.038C26.513 11.999 26.139 9.054 26.302 8c-.428 1.207-.395 3.585.06 5.007.734.743 3.175 1.834 5.533 2.07.254.036.5.084.746.13 6.174 1.18 6.693 6.286 4.446 8.758.243-.474 2.837-5.782-3.517-6.869-.315-.047-.609-.106-.876-.152-4.493-.842-4.9-1.528-5.123-1.6-.175.782.934 5.01 5.123 5.541h.036c3.93.482 4.313 2.46 4.337 3.101l-.004.005.004-.005.001.014.01-.02c1.135-.82 1.854-2.304 1.922-3.906v-.449c-.105-2.512-1.854-5.188-6.242-5.99" fill="#FDB813"/></svg>