<svg width="56" height="56" xmlns="http://www.w3.org/2000/svg"><path fill="#5C2483" d="M0 0h56v56H0z"/><path d="M45 29a.972.972 0 01-1-1 1.01 1.01 0 011-1 .99.99 0 01.998 1c0 .541-.406.99-.998 1zm-26 0c-.623.003-1-.461-1-1 0-.539.415-1 1-1s1 .508 1 1a.993.993 0 01-1 1zm-9 0c-.586.004-1.003-.436-1-1 .003-.564.423-.984 1-1 .577-.016 1 .52 1 1s-.414.996-1 1zm35 3c2.355 0 4-1.779 4-4 0-2.236-1.645-4-4-4-2.34 0-4 1.764-4 4 0 2.221 1.66 4 4 4zm-30 3h1.947c.742 0 1.053-.354 1.053-1.242v-1.922c.29.076.645.164 1 .164 2.324 0 4-1.809 4-4 0-2.327-1.649-4-4.085-4H14.8c.164.244.2.699.2 1.28V35zm25.181-3c-.161-.245-.178-.76-.178-1.265V21H37v9.657c0 .889.485 1.343 1.227 1.343h1.954zm-5.941 0h1.907c-.161-.245-.147-.76-.147-1.265V21h-3v9.657c0 .889.496 1.343 1.24 1.343zM14 24h-3.645C7.92 24 6 25.665 6 27.992 6 30.274 7.935 32 10.324 32h3.915c-.16-.245-.24-.76-.24-1.265V24zm14 5a1.007 1.007 0 01-1.002-1A.98.98 0 0128 27c.577 0 1 .44 1 1s-.46.997-1 1zm0 3c2.357 0 4-1.779 4-4 0-2.236-1.643-4-4-4-2.338 0-4.004 1.764-4.004 4 0 2.221 1.666 4 4.004 4z" fill="#fff"/><path d="M40.244 33h-3.088s-.025.064-.219.639c-.036.106-.144.364.151.364h2.404s-.192.683-.208.719c-.018.038-.12.278-.506.278h-1.91s-.358-.004-.474.333c-.142.414-.61 1.666-.61 1.666h.84c.137 0 .228.008.357-.356.06-.171.143-.294.19-.435.057-.172.114-.212.315-.212h.516l.584.7s.208.303.558.303h.792l-.796-1.003s.362-.208.674-.469c.358-.298.343-.308.575-.978.233-.67.322-.94.322-.94s.196-.609-.467-.609zm-3.426 0h-.931c-.046.001-.2.001-.238.007-.114.018-.248.028-.429.185l-1.026.975s-.38-.813-.383-.816c-.066-.125-.157-.35-.402-.351h-.783l.9 1.914-.715 2.085h.865c.145 0 .23-.041.405-.545l.438-1.277 2.174-2.065.125-.112zm-4.457 0h-3.365s-.238.667-.303.895c-.013.046-.019.085.072.101a.492.492 0 00.094.008h.785c.025 0 .136.044.073.226l-.95 2.77h.848c.132 0 .22-.003.349-.356a22.8 22.8 0 00.2-.573l.555-1.607.075-.22c.07-.197.18-.232.265-.24h.773c.086 0 .127-.004.185-.075.164-.2.287-.534.354-.754.023-.073.037-.174-.01-.174zm12.621.288l.002-.003c.038-.105.114-.225.148-.285h-2.244l-.452.012a.6.6 0 00-.074.004c-.547.016-1.151.623-1.45 1.516-.247.737-.222 1.474.022 1.938.091.195.22.344.383.43l.017.007.034.015c.08.033.194.074.34.077h1.503c.099.002.282 0 .368-.092.102-.112.147-.293.274-.611l.002-.004c.038-.103.114-.233.147-.292h-2.537l.093-.258c.075-.219.113-.234.193-.265.075-.03.363-.03.383-.03h1.215a.68.68 0 00.099-.01c.07-.01.14-.032.184-.076.103-.104.148-.272.275-.567l.001-.004c.038-.096.114-.206.148-.26h-2.083l.014-.04c.021-.062.064-.182.073-.214l.001-.001c.07-.198.109-.213.186-.243.056-.022.232-.028.325-.03h1.75c.092 0 .295.007.387-.094.102-.113.146-.297.273-.62zM48.988 33h-2.315c-.523.002-.987.295-1.276.734a1.605 1.605 0 00-.155.288l-.002.004a1.942 1.942 0 01-.032.08c0 .005-.002.008-.004.012l-.025.075-.004.01-.02.067c0 .004 0 .007-.002.01a1.627 1.627 0 00-.033.153v.005a1.515 1.515 0 00-.02.153.709.709 0 00-.001.138c0 .018.002.035.004.052v.007l.007.044c0 .003 0 .007.002.01l.006.038.003.014.007.034.004.014.008.032.005.015.01.03.005.015.01.027.007.015.011.025.008.016a.729.729 0 01.012.023l.009.015.013.022.01.014c.003.008.008.014.013.02l.01.014.016.019c.004.005.007.01.011.013l.017.017a.11.11 0 00.011.012l.018.016.012.01.022.016.01.008a.567.567 0 00.192.084c.063.012.214.026.253.026h1.046c.194 0 .279.067.279.174 0 .147-.044.32-.165.353a.793.793 0 01-.137.027h-1.674c-.104 0-.346.018-.439.29l-.243.71h2.343c.523-.002.986-.299 1.276-.74a1.595 1.595 0 00.155-.287l.001-.005c.004-.006.005-.013.008-.019l.024-.061c0-.005.003-.008.004-.012a.716.716 0 00.025-.074l.004-.011.02-.067c0-.004 0-.007.002-.01a1.5 1.5 0 00.033-.153l.001-.006c.009-.052.015-.103.018-.153.005-.069.006-.074.003-.139l-.004-.051-.001-.008-.005-.043-.002-.011a.505.505 0 00-.007-.038l-.002-.014-.008-.034a.344.344 0 00-.013-.046l-.004-.015-.009-.03a.08.08 0 01-.006-.015l-.01-.027a.052.052 0 01-.006-.015l-.011-.026-.008-.016a.205.205 0 00-.012-.022l-.01-.016-.012-.021-.01-.015-.013-.02c-.005-.004-.007-.01-.011-.014a.337.337 0 00-.026-.032l-.017-.017a.067.067 0 00-.012-.012l-.018-.016c-.004-.004-.008-.008-.012-.01a.34.34 0 00-.032-.024.446.446 0 00-.033-.021c-.05-.029-.096-.061-.158-.077-.118-.03-.214-.026-.253-.026h-1.411l.08-.233c.074-.219.113-.234.193-.265.069-.027.315-.03.372-.03h1.272c-.021 0 .02 0 0 0 .092 0 .295.007.386-.094.103-.114.148-.297.274-.62l.002-.004c.039-.105.115-.225.148-.285h-.01" fill="#fff"/></svg>