<svg xmlns="http://www.w3.org/2000/svg" width="56" height="56"><path fill="url(#auu3iypwn)" d="M0 0h56v56H0z"/><path d="M32.06 17.25c-.82 3.5-3.19 5.88-5.29 5.33-2.19-.55-3.28-3.77-2.46-7.17.82-3.5 3.2-5.88 5.29-5.33 2.19.46 3.29 3.68 2.46 7.17zM14.01 36.42c-.11 3.34 5.4 4.37 8.18 4.47 1.33.11 2.97 1.1 4.33 2.93.84 1.12 3.6 1.97 6.25 0 3.3-2.46.2-14.93-4.78-16.5-4.98-1.55-13.85 4.92-13.98 9.1zm19.42-11.08c1.74 1.47 4.93.37 7.12-2.4 2.1-2.75 2.46-6.15.73-7.71-1.73-1.47-4.93-.37-7.12 2.39-2.19 2.85-2.46 6.25-.73 7.72zm8.58 9.93c-2.19 2.48-5.2 3.21-6.84 1.65-1.65-1.56-1.19-4.78 1-7.17 2.19-2.48 5.2-3.22 6.84-1.65 1.65 1.56 1.19 4.78-1 7.17zm-23.27-7.82c2.2-.18 3.93-2.85 3.74-6.06-.18-3.22-2.1-5.8-4.29-5.52-2.18.1-3.92 2.76-3.74 5.98.19 3.21 2.1 5.7 4.3 5.6z" fill="#818286"/><path d="M27 44.26l.68-.54c3.38-2.2 3.02-3.4 3.1-3.86-.18-7.72-6.47-8-6.47-8-1.92 0-2.37 2.49-2.37 2.49-.37 1.74.63 4.32.63 4.32.28 1.2-.18 1.84-.36 2.2 0 0 1.67.11 3.7 2.24 0 0 .98 1.22 1.1 1.15zm5.8-6.33c.27.37.09.92-.28 1.2-.46.36-1 .36-1.28.09-.27-.37-.09-.92.28-1.2.45-.36 1-.36 1.27-.09zm-.64-1.01c-.46.46-1.1.55-1.37.18-.37-.36-.19-1 .27-1.47.46-.46 1.1-.55 1.37-.18.36.37.18 1.01-.27 1.47zm-.64-2.39c-.46.64-1.19.83-1.55.55-.46-.37-.37-1.1.09-1.74.45-.65 1.18-.83 1.55-.56.36.37.36 1.2-.1 1.75zm-1.37-2.2c-.55.73-1.37 1-1.83.64-.45-.37-.45-1.29.1-1.93.54-.74 1.36-1.01 1.82-.65.46.37.36 1.2-.1 1.93zm-2.56-4.05c.64.55.64 1.65-.09 2.57-.73.92-1.73 1.29-2.46.74-.64-.55-.64-1.66.09-2.57.73-.92 1.82-1.3 2.46-.74z" fill="#FEBE10"/><defs><linearGradient id="auu3iypwn" x1="10.42" y1="9.71" x2="68.15" y2="76.02" gradientUnits="userSpaceOnUse"><stop stop-color="#1A1E21"/><stop offset="1" stop-color="#06060A"/></linearGradient></defs></svg>