<svg xmlns="http://www.w3.org/2000/svg" width="56" height="56" viewBox="0 0 56 56"><path fill="#F0F3FA" d="M0 0h56v56H0z"/><path d="M16.23 16.5c-3.21 7.71 28.52 11.83 22.93 3.24-1.82-2.78-5.48 2.36-11.12 8.3C33.67 33.98 42.08 42.58 42 42c-1.85-13.47-27.04-22.46-25.77-2.8.04.59 6.13-5.15 11.75-11.09-5.62-5.94-8.54-19.33-11.75-11.61z" fill="#BBD54D"/><path d="M29.7 18.98c-.7.92-2.21.87-3.41-.1-1.2-.97-1.6-2.51-.91-3.43.55-.77 2.99-2.45 4.48-2.45.28-.01.56.07.8.24 1.19.98-.28 4.82-.96 5.74z" fill="#3051A0"/></svg>