<svg width="56" height="56" viewBox="0 0 56 56" xmlns="http://www.w3.org/2000/svg"><path fill="#F0F3FA" d="M0 0h56v56H0z"/><path d="M51 35.92c0 .02 0 .04-.02.06a.08.08 0 0 1-.06.02H5.08a.08.08 0 0 1-.08-.08V20.08a.08.08 0 0 1 .08-.08h45.84a.08.08 0 0 1 .08.08v15.84Z" fill="#00AEEF"/><path d="M50 34.87a.13.13 0 0 1-.13.13H6.13a.13.13 0 0 1-.1-.04.12.12 0 0 1-.03-.09V21.13a.13.13 0 0 1 .13-.13h43.74c.04 0 .07.01.1.04.02.02.03.05.03.09v13.74Z" fill="#FFDE2F"/><path d="M15.86 27.47c.1.05.18.12.24.2a.22.22 0 0 1 .01.22.2.2 0 0 1-.06.08.17.17 0 0 1-.1.03h-1.84c-.02 0-.04 0-.07-.02a.17.17 0 0 1-.05-.05.25.25 0 0 1-.05-.16c0-.08.04-.13.12-.16a.44.44 0 0 0 .13-.08c.06-.06.09-.13.09-.21v-3.64c0-.13-.09-.26-.28-.4-.04-.02-.05-.06-.03-.1l.04-.12c.01-.04.04-.06.08-.06h1.56c.06 0 .1.04.1.11v4.17c0 .1.04.16.11.2ZM16.99 25.54c.7.16.96.62.8 1.39-.04.24.04.3.26.16.04-.03.1-.04.17-.03l.04.02.03.04a.14.14 0 0 1 .02.1c-.11.49-.39.74-.84.78-.75.05-1.1-.38-1.09-1.14v-.68a.35.35 0 0 0-.07-.22l-.3-.38c-.06-.08-.05-.14.04-.17.1-.04.16-.09.2-.14a.37.37 0 0 0 .1-.21c.04-.37.05-.74.03-1.11a.72.72 0 0 0-.32-.6.15.15 0 0 1-.05-.07.17.17 0 0 1 .03-.16.14.14 0 0 1 .07-.05c.37-.11.7-.09 1.01.07.75.38.93 1.3.39 2a.31.31 0 0 1-.13.1l-.4.17c-.14.06-.13.1 0 .13ZM25.3 23.63v1.43c0 .08-.04.13-.11.15l-.37.09c-.06.02-.1.06-.1.13v.1c0 .05.03.07.08.07h.34c.1 0 .16.06.16.17v1.57c0 .08-.04.14-.1.19l-.14.1c-.07.06-.08.13-.03.22.04.08.12.13.22.13.22.02.74.02 1.58.02.11 0 .2-.07.25-.21.04-.09.02-.15-.06-.18l-.13-.06c-.08-.04-.12-.1-.12-.2v-3.61c0-.22.07-.31.22-.4a.16.16 0 0 0 .08-.14v-.08c0-.08-.04-.12-.11-.12h-1.82a.14.14 0 0 0-.1.04.17.17 0 0 0-.05.09v.1c.02.04.04.07.07.09l.11.07c.09.05.13.13.13.24Zm-.64-.62a44.01 44.01 0 0 0-1.91.03.15.15 0 0 0-.05.07.19.19 0 0 0 .04.17l.17.2c.06.06.1.14.1.22v3.6c0 .08-.04.16-.1.23l-.17.18a.19.19 0 0 0-.04.18c0 .03.02.05.05.07.02.02.04.03.07.03a44.01 44.01 0 0 0 1.91-.03.15.15 0 0 0 .05-.07.18.18 0 0 0-.04-.17l-.17-.2a.34.34 0 0 1-.1-.22 308.04 308.04 0 0 1 .01-3.6c0-.08.03-.16.1-.23l.16-.18a.18.18 0 0 0 .04-.18.15.15 0 0 0-.04-.07.12.12 0 0 0-.08-.03ZM28.72 23c.29 0 .58 0 .86.02.1 0 .15.02.17.06a.2.2 0 0 1 .03.1.2.2 0 0 1-.11.2.5.5 0 0 0-.17.14.33.33 0 0 0-.05.19v3.58c0 .08.01.14.05.2.03.04.09.09.17.14.07.04.1.1.1.19a.2.2 0 0 1-.02.1c-.02.04-.08.06-.17.06a25.03 25.03 0 0 1-1.73 0c-.1 0-.15-.02-.17-.06a.2.2 0 0 1-.02-.1.2.2 0 0 1 .1-.2.5.5 0 0 0 .18-.14c.03-.05.06-.1.06-.19v-3.58a.33.33 0 0 0-.06-.2.5.5 0 0 0-.18-.14.2.2 0 0 1-.1-.19c0-.03 0-.07.02-.1.02-.04.08-.06.17-.06.29-.02.58-.02.87-.02ZM32.33 25.5c0 1.23-.01 2.01-.03 2.37 0 .09-.04.13-.11.13h-1.5c-.08 0-.13-.04-.16-.11a.25.25 0 0 1-.02-.12c0-.02 0-.04.02-.05 0-.02.02-.03.03-.04l.22-.19a.42.42 0 0 0 .07-.24 844.47 844.47 0 0 1 .01-3.5c0-.1-.02-.18-.07-.24-.02-.03-.09-.1-.21-.19a.12.12 0 0 1-.04-.04.14.14 0 0 1-.01-.05c0-.04 0-.08.02-.12.03-.07.08-.11.15-.11l1.5.02c.08 0 .12.04.12.12l.01 2.37ZM34.49 25.5c0 1.21-.49 2.25-1.65 2.5a.2.2 0 0 1-.19-.06c-.05-.04-.07-.1-.05-.2.01-.04.04-.09.08-.12.18-.17.3-.3.32-.57v-3.1c-.02-.27-.13-.4-.32-.57a.24.24 0 0 1-.07-.13c-.02-.09 0-.15.05-.2a.2.2 0 0 1 .19-.04c1.16.24 1.64 1.29 1.64 2.5ZM36.8 27.51l.18.08c.03.01.05.04.07.07l.02.1c-.03.14-.1.22-.22.23a24.72 24.72 0 0 1-1.9-.03.13.13 0 0 1-.05-.03.2.2 0 0 1-.04-.11c-.01-.07 0-.12.06-.16l.19-.16c.06-.05.1-.12.1-.2v-3.7l-.01-.02-.02-.03-.14-.14c-.25-.27-.2-.41.15-.41h1.38a.1.1 0 0 1 .07.03.1.1 0 0 1 .03.08v4.18c0 .1.04.18.13.22ZM38.75 24.5c0 .35-.06.6-.17.78-.38.55-.88.78-1.52.68a.13.13 0 0 1-.08-.03.16.16 0 0 1-.04-.08.19.19 0 0 1 .05-.18c.39-.37.33-.53.33-1.18 0-.65.06-.8-.32-1.18a.19.19 0 0 1-.05-.18c0-.03.02-.05.04-.07a.13.13 0 0 1 .08-.04c.64-.1 1.14.14 1.51.7.12.17.17.43.17.78ZM41 23.7v4.16c0 .04-.03.07-.06.1a.12.12 0 0 1-.09.04h-1.5a.18.18 0 0 1-.14-.08.2.2 0 0 1-.04-.16c0-.03.03-.07.05-.1l.18-.13a.3.3 0 0 0 .11-.25v-3.6a.25.25 0 0 0-.06-.16l-.2-.23a.17.17 0 0 1-.05-.08l.01-.1a.16.16 0 0 1 .05-.07.14.14 0 0 1 .08-.03c.7-.02 1.27-.01 1.75 0 .37.03.4.15.1.38l-.1.08c-.07.06-.09.13-.09.23ZM44.47 23.75c.05.17.22.61.52 1.32.18.42.26.78.26 1.08 0 .25 0 .62-.03 1.11 0 .12.04.2.14.25l.14.08c.23.26.16.4-.2.4-.54.01-1.11 0-1.72-.01-.09 0-.15-.03-.18-.08a.25.25 0 0 1-.05-.17c0-.02 0-.05.02-.07a.12.12 0 0 1 .05-.04l.2-.1c.1-.03.13-.1.13-.2.01-.78.06-1.14-.19-1.77l-.65-1.74c-.1-.25-.24-.43-.34-.63a.14.14 0 0 1 0-.12.11.11 0 0 1 .04-.04.1.1 0 0 1 .06-.02h1.88c.1 0 .12.05.09.14l-.17.44a.27.27 0 0 0 0 .17ZM45.55 23.6c-.04-.09-.13-.18-.28-.27a.17.17 0 0 1-.05-.05.2.2 0 0 1-.04-.07.2.2 0 0 1 0-.12c.03-.06.07-.09.13-.09h1.06c.03 0 .06 0 .08.03.03.01.05.04.06.07v.1c0 .03-.02.05-.04.08-.15.15-.37.28-.48.54l-.52 1.26a.12.12 0 0 1-.06.07.1.1 0 0 1-.08 0l-.08-.04a.14.14 0 0 1-.07-.08.17.17 0 0 1 0-.11l.38-1.06a.34.34 0 0 0 0-.25ZM11.52 26.31a.09.09 0 0 1-.05.01H11a.19.19 0 0 0-.11.04.21.21 0 0 0-.08.1l-.04.13c-.04.1-.01.15.09.15h.67c.08 0 .14.03.18.11.13.26.09.57-.13.93a.15.15 0 0 0 0 .14c0 .03.02.05.04.06l.07.02h1.76c.03 0 .06 0 .09-.03a.18.18 0 0 0 .06-.07.2.2 0 0 0-.02-.2 1.5 1.5 0 0 1-.25-.49c-.2-.81-.48-2.12-.85-3.93-.04-.19-.15-.28-.32-.28h-.92c-.2 0-.28.1-.24.33l.57 2.86a.12.12 0 0 1-.02.09.1.1 0 0 1-.03.03Zm-1.12 1a.29.29 0 0 1 0-.16l.58-2.36a.54.54 0 0 0-.02-.33l-.1-.28c-.04-.11-.08-.11-.1.01l-.3 1.26c-.12.47-.24.95-.33 1.43-.07.32-.2.53-.39.63-.43.22-.41.38.06.48.1.02.4 0 .89-.04.08 0 .12-.06.1-.16-.02-.09-.12-.21-.3-.36a.26.26 0 0 1-.09-.13ZM41.3 27.63c.53-.28.62-.49.84-1.06.03-.07.06-.12.1-.14a.17.17 0 0 1 .12 0c.07.02.1.07.1.15v1.28c0 .1-.04.14-.13.14h-1a.15.15 0 0 1-.15-.14c0-.06 0-.1.02-.14a.21.21 0 0 1 .1-.1ZM21.66 23.17l.05-.08a.17.17 0 0 1 .08-.08.16.16 0 0 1 .1 0c.04 0 .07.03.1.06.02.03.03.07.03.11v1.64a.16.16 0 0 1-.04.11.14.14 0 0 1-.1.05c-.13 0-.2-.05-.22-.16-.15-.6-.41-1.04-.79-1.33-.4-.31-.36-.45.12-.41.05 0 .21.06.47.17.09.03.15 0 .2-.08Zm-1.28.1-.33.44a.48.48 0 0 0-.05.25v3.12c0 .19.08.34.23.46.09.07.14.12.16.16.01.05.02.1 0 .15-.01.09-.07.13-.15.13-1.42-.05-1.93-1.58-1.77-2.9.1-.93.58-1.59 1.42-1.98.18-.09.33-.1.44-.05.1.05.12.12.05.22Zm.49 4.72A1.8 1.8 0 0 0 22 26.81a.21.21 0 0 0 0-.12.2.2 0 0 0-.06-.1c-.08-.06-.16-.07-.23-.01a.48.48 0 0 0-.12.18c-.1.25-.2.42-.28.51-.08.09-.25.18-.5.29a.44.44 0 0 0-.17.11c-.05.08-.05.16.02.25.02.03.05.06.09.07h.1Z" fill="#00AEEF"/><path d="M23.81 29.27H8.61a.15.15 0 0 0-.15.15v.01c0 .08.07.15.15.15h15.2c.08 0 .15-.07.15-.15a.15.15 0 0 0-.15-.16ZM47.45 29.27H32.23a.15.15 0 0 0-.14.15v.01c0 .08.06.15.14.15h15.22c.08 0 .15-.07.15-.15a.15.15 0 0 0-.15-.16Z" fill="#F57727"/><path d="M16 32.52h.23c.1 0 .15-.04.15-.12l-.01-.43c0-.04.02-.07.07-.07h.08c.04 0 .06.02.06.06v1.36a.06.06 0 0 1-.06.06h-.02l-.08-.04a.06.06 0 0 1-.04-.05v-.48c0-.08-.04-.12-.11-.13a8.45 8.45 0 0 0-.52 0c-.08.01-.12.05-.12.13v.48c0 .03 0 .05-.03.06l-.08.03a.06.06 0 0 1-.08-.03V31.96c0-.03.01-.05.05-.05h.08c.05 0 .07.02.07.06v.43c0 .08.04.12.14.12h.23ZM17.6 32.51c.1 0 .23 0 .39.03.13.03.13.06 0 .11-.06.03-.19.03-.38.02-.1-.01-.16.04-.16.15v.23c0 .1.05.16.16.16h.44c.03 0 .05.02.04.05l-.01.08-.63.03c-.13 0-.2-.06-.2-.19v-1.12c0-.11.06-.17.17-.18.13 0 .32.02.6.07.12.02.12.06 0 .11-.06.03-.2.02-.4-.02a.15.15 0 0 0-.17.1.5.5 0 0 0 0 .26c.03.07.07.11.15.11ZM19.3 31.9h.1a.1.1 0 0 1 .07.08l.54 1.36a.06.06 0 0 1-.01.06.06.06 0 0 1-.07.01c-.06-.03-.12-.12-.19-.25-.04-.09-.11-.14-.23-.15a3.36 3.36 0 0 0-.45 0c-.1 0-.19.06-.23.14-.06.14-.12.22-.19.25a.06.06 0 0 1-.08-.04v-.03l.56-1.35a.1.1 0 0 1 .07-.07.41.41 0 0 1 .1-.02ZM20.76 33.2h.48a.05.05 0 0 1 .05.04v.13a.05.05 0 0 1-.03.02h-.02l-.7-.02a.05.05 0 0 1-.05-.05l-.01-1.36a.05.05 0 0 1 .01-.04.05.05 0 0 1 .04-.01h.12a.05.05 0 0 1 .05.06l.01 1.18s0 .02.02.03l.03.02ZM22 31.9l.35.01c.33.04.33.1 0 .16l-.1.02c-.09.02-.14.07-.13.17.03.75-.01 1.13-.12 1.13s-.15-.38-.12-1.13c0-.1-.04-.15-.13-.17l-.1-.02c-.32-.06-.32-.12 0-.16l.35-.01ZM23.61 32.52h.22c.1 0 .16-.04.16-.12l-.02-.4v-.04l.02-.02.02-.02h.1l.05.01.01.05v1.28c0 .12-.04.15-.13.07-.05-.05-.07-.22-.07-.52a.12.12 0 0 0-.11-.13 9.7 9.7 0 0 0-.5 0 .12.12 0 0 0-.1.12c0 .3-.03.48-.08.52-.1.08-.14.06-.14-.06l.02-1.29.01-.04a.06.06 0 0 1 .05-.02h.1a.07.07 0 0 1 .04.05v.03l-.02.4c0 .09.05.13.15.13h.22ZM25.3 32.54c.02 0 .04 0 .05-.03a110.12 110.12 0 0 1 .39-.58l.03-.01h.11c.04 0 .05.01.03.04l-.37.57c-.14.2-.2.45-.18.72.01.09-.01.13-.07.13-.06 0-.08-.04-.07-.13.03-.27-.03-.51-.17-.72l-.36-.58c-.02-.03 0-.04.03-.04h.11l.03.01.03.02.35.57c.01.02.03.03.06.03ZM27.9 32.62c0 .06.03.13.1.21a.25.25 0 0 1-.04.36c-.17.14-.42.2-.76.18-.06 0-.1-.06-.1-.17a79.83 79.83 0 0 1-.04-1.1c0-.11.03-.17.1-.18.32-.04.58 0 .76.13a.26.26 0 0 1 .06.35c-.06.08-.09.16-.09.22ZM29.4 32.59a.12.12 0 0 0-.07.09.12.12 0 0 0 .04.1c.15.15.23.27.23.35 0 .37-.06.38-.2.04-.13-.3-.27-.44-.42-.42-.09.02-.13.07-.13.16v.44l-.03.01h-.1c-.04 0-.06-.02-.06-.07v-1.24c0-.07.03-.1.1-.12.33-.06.58-.01.75.14a.2.2 0 0 1 .07.2c-.03.16-.1.27-.19.32ZM30.53 32.07c-.1 0-.15.05-.15.15v.12c0 .12.06.18.18.18h.42c.03 0 .05.02.04.06l-.01.07c0 .01 0 .02-.02.02h-.42c-.12 0-.18.06-.18.18v.25c0 .07.03.1.1.1h.47a.07.07 0 0 1 .07.07c0 .02 0 .04-.02.05a.07.07 0 0 1-.04.02c-.25.04-.47.05-.65.01-.07-.01-.11-.06-.11-.14v-1.16c0-.09.04-.14.13-.14h.67c.04 0 .05.02.04.06l-.03.07c0 .02-.02.03-.05.03h-.44ZM32.26 31.9c.07 0 .13.04.16.11.27.6.45 1.04.53 1.3.02.04 0 .07-.02.09-.07.03-.12.02-.14-.05l-.09-.22a.19.19 0 0 0-.18-.12h-.54a.2.2 0 0 0-.19.12l-.08.21c-.03.07-.08.09-.14.05-.03-.02-.04-.04-.03-.08.1-.27.28-.7.55-1.3.04-.08.1-.11.17-.11ZM33.73 31.9a3.53 3.53 0 0 1 .53.02l.02.06c0 .03-.01.05-.04.06l-.26.06c-.08.01-.12.07-.12.15.04.76 0 1.13-.11 1.14-.12 0-.17-.38-.14-1.13 0-.1-.03-.14-.12-.16l-.26-.05c-.03-.01-.04-.03-.04-.06l.02-.07c.17-.02.35-.03.52-.02ZM35.35 32.5h.2a.15.15 0 0 0 .14-.15v-.37c0-.05.02-.08.07-.08h.1c.06 0 .08.03.09.08 0 .47 0 .9-.02 1.28 0 .05-.01.09-.04.11a.15.15 0 0 1-.08.03c-.07 0-.1-.03-.1-.1l-.02-.45a.12.12 0 0 0-.05-.08.2.2 0 0 0-.1-.05h-.39a.2.2 0 0 0-.1.05.13.13 0 0 0-.04.09l-.02.44c0 .07-.03.1-.1.1a.17.17 0 0 1-.08-.03c-.03-.02-.04-.05-.04-.1-.02-.39-.03-.82-.02-1.29 0-.05.02-.07.07-.07h.1c.06 0 .08.02.08.07v.37a.15.15 0 0 0 .14.15h.2ZM36.7 31.89h-.03a.12.12 0 0 0-.11.12v1.25c0 .06.06.11.12.11h.03c.06 0 .12-.05.11-.12v-1.24a.12.12 0 0 0-.12-.12ZM37.7 32.19l-.07.01-.01.02c.05.35.07.72.06 1.1 0 .02-.01.04-.04.04h-.08c-.04 0-.06-.02-.06-.05a9.13 9.13 0 0 1-.06-.84c.04-.8.23-.83.57-.1.05.12.18.3.4.58.05.07.08.06.08-.03v-.94a.06.06 0 0 1 .06-.06h.06c.04 0 .06.02.06.06v1.17c0 .32-.1.35-.3.1a5.84 5.84 0 0 1-.64-1.05.07.07 0 0 0-.04-.01ZM40.42 32.96c-.02-.13-.11-.2-.27-.23-.13-.01-.14-.05-.02-.11.13-.08.23-.1.3-.05a.47.47 0 0 1 .2.44.42.42 0 0 1-.31.36.94.94 0 0 1-.46 0 .7.7 0 0 1-.39-.23c-.27-.34-.25-.68.07-1.02.2-.22.51-.28.94-.16.04.01.05.04.03.07l-.04.07c0 .02-.02.02-.03.01-.45-.13-.76-.02-.91.33a.47.47 0 0 0-.02.35c.13.37.39.5.77.4a.2.2 0 0 0 .14-.23Z"/><path d="M27.42 32.08a.34.34 0 0 1 .33.06.2.2 0 0 1 .07.23.2.2 0 0 1-.2.14h-.22c-.09 0-.13-.05-.14-.13 0-.08 0-.14.02-.2 0-.04.06-.08.14-.1ZM29.29 32.53c.12-.12.13-.3.03-.41-.1-.1-.28-.1-.4.01-.13.12-.14.3-.04.41.1.11.29.1.4-.01ZM19.28 32.14c.06 0 .13.14.22.42.03.09.03.15 0 .2-.04.05-.1.08-.22.08-.1 0-.18-.03-.22-.09-.03-.04-.03-.1 0-.2.1-.27.17-.4.22-.4ZM32.43 32.85h-.39a.08.08 0 0 1-.08-.08v-.04l.22-.52c.04-.1.08-.1.13 0 .1.2.16.39.18.57 0 .04-.02.07-.06.07ZM27.27 32.78a.1.1 0 0 1 .03-.07.1.1 0 0 1 .07-.04h.07l.16.01.14.05a.3.3 0 0 1 .1.08c.02.03.03.06.03.1v.04c0 .07-.04.14-.11.19a.58.58 0 0 1-.3.08h-.07a.1.1 0 0 1-.1-.1l-.02-.34Z" fill="#FFDE2F"/><path fill="#747474" d="M24.61 29.14h6.75v.58h-6.75z"/></svg>