<svg width="56" height="56" viewBox="0 0 56 56" xmlns="http://www.w3.org/2000/svg"><path fill="#F0F3FA" d="M0 0h56v56H0z"/><path d="M22.1 15.55a.24.24 0 0 1-.05-.1 2.34 2.34 0 0 1-.01-.9c0-.05 0-.1-.02-.15a.26.26 0 0 0-.1-.1.24.24 0 0 0-.26-.01l-5.4 3.39a.52.52 0 0 0-.19.2.55.55 0 0 0-.07.26V42.8c0 .04.01.07.03.1a.2.2 0 0 0 .07.07.19.19 0 0 0 .2 0l5.44-3.42c.19-.11.26-.27.26-.48V21.3c0-.18.07-.33.18-.46 1.98-2.37 6.98-5.19 9.6-2.47a.67.67 0 0 0 .79.13l5.96-3.02a.27.27 0 0 0 .14-.2.29.29 0 0 0-.06-.23 10.51 10.51 0 0 0-2.73-2.33 7.52 7.52 0 0 0-3.34-.71c-2.53-.1-5.56.73-8.07 2.21a16.05 16.05 0 0 0-2.16 1.4h-.11a.22.22 0 0 1-.1-.07ZM44 39.58v-.24c-4.96-1.15-8.77-4.08-11.43-8.78-.48-.83-.27-1.4.62-1.7 1-.32 2.07-.89 3.21-1.68 3.38-2.37 4.43-5.7 3.13-9.98a.2.2 0 0 0-.11-.13.2.2 0 0 0-.17 0l-5.91 3a.46.46 0 0 0-.25.41 6.6 6.6 0 0 1-2.71 5.47 80.37 80.37 0 0 1-4.56 3.53.34.34 0 0 0-.08.12.23.23 0 0 0-.02.11l.05.1 12.31 12.5c.05.05.12.09.19.1.06.01.13 0 .2-.03l5.53-2.8Z" fill="#005F37"/></svg>