<svg width="56" height="56" viewBox="0 0 56 56" xmlns="http://www.w3.org/2000/svg"><path fill="#F0F3FA" d="M0 0h56v56H0z"/><path fill-rule="evenodd" d="M21.07 23C16.6 23 13 26.4 13 30.58V43h11.93C29.4 43 33 39.6 33 35.42V23H21.07Zm1.06 6C20.4 29 19 30.32 19 31.95V37h4.87C25.6 37 27 35.68 27 34.05V29h-4.87Z" fill="#9BCA3E"/><path fill-rule="evenodd" d="M38.03 12C35.81 12 34 13.7 34 15.79V22h5.97c2.22 0 4.03-1.7 4.03-3.79V12h-5.97Zm.54 3c-.87 0-1.57.66-1.57 1.47V19h2.43c.87 0 1.57-.66 1.57-1.47V15h-2.43Z" fill="#BFD83B"/></svg>