<svg width="56" height="56" viewBox="0 0 56 56" xmlns="http://www.w3.org/2000/svg"><path fill="#F0F3FA" d="M0 0h56v56H0z"/><path d="M47 28c0 5.52-4.62 10-10.32 10H13.8l-1.19-1h19.56c-.3-.14-.59-.3-.87-.46h-6.36l-.46-.54h-7.16l-.74-.43h-6.36l-.6-.57H29.3a10.2 10.2 0 0 1-.63-.68h-6.25l-.43-.68h-6.89l-.74-.64H8.42l-.3-.5h19.34a9.82 9.82 0 0 1-.34-.72h-6.2l-.5-.68h-6.66l-.7-.53h-5.9L7 30h19.56l-.1-.58h-5.9l-.38-.62H13.6l-.61-.53H7l.06-.7h19.3l.04-.54h-5.72l-.45-.5h-6.37l-.6-.53H7.29l.12-.8h19.37l.08-.28h-5.47l-.47-.65h-6.38l-.43-.5H8.08l.39-.77h19.27l.07-.12h-4.87l-.44-.66h-6.12l-.73-.6H9.63l.63-.62h19.05c.36-.36.76-.7 1.17-1h-4.42l-.49-.7h-5.64l-.61-.53h-6.83l1.37-.77h22.58L28 33h17l-8.56-15H36.68C42.38 18 47 22.48 47 28Zm-10.5 5a3.5 3.5 0 1 0 0-7 3.5 3.5 0 0 0 0 7Z" fill="#FE0000"/></svg>