<svg width="56" height="56" viewBox="0 0 56 56" xmlns="http://www.w3.org/2000/svg"><path fill="#F0F3FA" d="M0 0h56v56H0z"/><path d="m10 41.91 4.87-27.85c0-.02 0-.03.02-.04a.07.07 0 0 1 .05-.02h31.02a.07.07 0 0 1 .04.06v.03l-4.87 27.85c0 .02 0 .03-.02.04a.07.07 0 0 1-.05.02H10.04a.07.07 0 0 1-.04-.06v-.03Z" fill="#FFCB03"/><path fill-rule="evenodd" d="M25.4 29h-2.23c-.08 0-.12.05-.12.14l.36 4.24a.14.14 0 0 1-.03.1.13.13 0 0 1-.1.05h-.93c-.07 0-.1-.03-.11-.1l-.36-4.21a.23.23 0 0 0-.07-.15.22.22 0 0 0-.15-.07H18.9c-.03 0-.07.02-.1.04h-.01a.25.25 0 0 0-.1.1L11.98 39.7c-.08.12-.2.19-.34.19h-.87c-.16 0-.2-.07-.11-.2L21 23.12a.25.25 0 0 1 .21-.12h1.24l.06.03a.1.1 0 0 1 .03.05l.37 4.72c0 .06.03.1.07.14a.2.2 0 0 0 .14.06h2.6a.2.2 0 0 0 .13-.05.22.22 0 0 0 .07-.13l.67-4.62c.01-.05.04-.1.08-.14.04-.03.09-.06.14-.06h4.08c1.07.01 1.7.33 2.48 1.05.05.06.1.06.17.02a5.62 5.62 0 0 1 6.73.12 5.38 5.38 0 0 1-.78 8.99c-.93.5-1.93.72-3 .65a5.52 5.52 0 0 1-4.6-2.97.17.17 0 0 0-.16-.08H31a.09.09 0 0 0-.08.04.1.1 0 0 0 0 .1 221.21 221.21 0 0 0 1.66 2.74.03.03 0 0 1-.03.02H31.3c-.02 0-.04 0-.06-.02a.12.12 0 0 1-.04-.04l-1.62-2.72a.18.18 0 0 0-.15-.09H26.9c-.08 0-.12.04-.13.12l-.38 2.49c-.02.08-.06.12-.15.12h-1.1c-.09 0-.13-.04-.11-.13l.6-4.13c.03-.18-.05-.28-.24-.28Zm9.08-4.27-.04-.45c0-.08.02-.13.08-.17a5 5 0 0 1 5.76.65c.7.58 1.2 1.32 1.5 2.2a.22.22 0 0 1-.1.26l-.45.27a.2.2 0 0 0-.1.2c.1 1.03.02 1.82-.27 2.36-1.07 2.06-2.71 2.9-4.91 2.54-1.21-.2-2.2-.92-2.97-2.16-.04-.07-.03-.13.04-.18a3.96 3.96 0 0 0 1.22-5.07c-.05-.09-.03-.15.05-.2l.1-.06c.06-.04.1-.1.09-.2Zm-3.75-1.2h-2.68a.14.14 0 0 0-.1.03.15.15 0 0 0-.04.1L27 29.61c-.01.06.01.09.07.09h4.27c.08 0 .12-.04.1-.12a5.4 5.4 0 0 1 1.64-5.15c.06-.06.05-.11-.01-.16a3.58 3.58 0 0 0-2.34-.76Zm-11.2 4.36 1.8-2.88s.01-.02.03-.02h.04l.03.01.01.04.27 2.87a.07.07 0 0 1-.04.07l-.02.02h-2.06l-.03-.01a.07.07 0 0 1-.02-.1Zm13.17 1.38a3.05 3.05 0 0 0 .88-1.58l.01-.01c.4-.1.6-.21.62-.32a3.72 3.72 0 0 0-.31-1.97.08.08 0 0 0-.1 0 4.36 4.36 0 0 0-1.24 3.86.1.1 0 0 0 .09.04.1.1 0 0 0 .05-.02Z" fill="#241C20"/><path d="m28.88 36.92-.8 2.99c-.01.03-.03.06-.06.08a.14.14 0 0 1-.09.03h-.3a.14.14 0 0 1-.12-.06.15.15 0 0 1-.03-.13l.81-3c.01-.03.03-.06.06-.08a.15.15 0 0 1 .08-.03h.31a.14.14 0 0 1 .12.06.16.16 0 0 1 .02.14Z" fill="#241C20"/><path d="m30.34 37.1-.8.02h-.02l-.03-.02a.07.07 0 0 1-.01-.06l.02-.22.03-.04a.07.07 0 0 1 .04-.02h2.36a.07.07 0 0 1 .05.01l.16.2s.02.01.02.03a.07.07 0 0 1-.03.06.07.07 0 0 1-.04.02l-1.05.06-.04.01a.07.07 0 0 0-.02.04l-.78 2.69-.02.03a.07.07 0 0 1-.04.02h-.5a.07.07 0 0 1-.04-.05v-.03l.8-2.65a.07.07 0 0 0 0-.06.07.07 0 0 0-.06-.03ZM33.2 36.83l-.43-.13c-.03-.01-.06 0-.07.04l-.95 3.17c-.01.03 0 .06.04.07l.42.13c.03.01.06 0 .07-.03l.95-3.17c0-.03 0-.07-.04-.08ZM39.48 37.6a.35.35 0 0 0 .14.4l.78.53c.05.02.08.06.11.11s.04.1.04.15c.03 1.08-1.2 1.57-2.07 1.24-.1-.04-.18-.1-.2-.17-.04-.1-.02-.2.05-.3a.22.22 0 0 1 .18-.08.21.21 0 0 1 .17.08c.1.14.21.24.32.3.05.04.12.05.18.04.32-.08.55-.25.7-.52a.5.5 0 0 0-.17-.66l-.46-.28c-.55-.32-.5-.92 0-1.28.55-.4 1.08-.5 1.57-.26.08.03.1.09.1.16-.02.14-.1.25-.24.33a.11.11 0 0 1-.16-.04l-.13-.23c-.05-.09-.12-.12-.21-.1-.37.09-.6.28-.7.57Z" fill="#0A0B19"/><path d="m26.24 38.98.03.03a.07.07 0 0 0 .1-.05l.54-1.93c.04-.13.13-.2.28-.2h.08a.15.15 0 0 1 .12.07.15.15 0 0 1 .02.13l-.83 2.81a.3.3 0 0 1-.1.14.28.28 0 0 1-.3.03.29.29 0 0 1-.12-.1l-1.16-2.08a.11.11 0 0 0-.1-.05.1.1 0 0 0-.1.08l-.6 2.03a.23.23 0 0 1-.08.11.22.22 0 0 1-.13.05h-.14c-.11 0-.15-.06-.12-.17l.84-2.84a.36.36 0 0 1 .11-.17.34.34 0 0 1 .53.1l1.13 2Z" fill="#241C20"/><path d="m33.9 39.72 1.1.04a.06.06 0 0 1 .05.02l.02.03v.02l-.04.15-.02.03a.06.06 0 0 1-.04.02h-1.7a.06.06 0 0 1-.06-.02v-.06l.9-3.05.02-.03.04-.02.4-.01a.06.06 0 0 1 .06.02.06.06 0 0 1 0 .06l-.78 2.72a.06.06 0 0 0 .03.07h.03ZM16.95 37.47c-.27-.21-.5-.31-.66-.3-.98.05-1.6.54-1.88 1.47-.1.36-.1.66.02.9.25.5 1.03.64 1.5.34a.3.3 0 0 0 .12-.17l.25-.86a.24.24 0 0 1 .23-.17h.14a.14.14 0 0 1 .12.06.15.15 0 0 1 .02.13l-.3 1a.2.2 0 0 1-.13.14c-.63.18-1.16.25-1.6.21-.7-.07-1.07-.46-1.13-1.17-.02-.25.11-.58.4-.98.78-1.1 1.82-1.44 3.12-.99.12.04.14.11.08.2l-.1.14c-.05.09-.12.1-.2.05ZM36.92 38.23l.96.02c.01 0 .03 0 .04.02l.01.04v.14a.06.06 0 0 1-.05.05l-1.06.02a.05.05 0 0 0-.05.04l-.3 1.14a.06.06 0 0 0 .03.06h.02l1.11.02c.02 0 .03 0 .04.02l.01.04v.18a.05.05 0 0 1-.05.02h-1.78l-.02-.02a.06.06 0 0 1-.01-.05l.85-3.02.02-.03h.04l1.7.02a.05.05 0 0 1 .05.04V37.12l-.02.04a.05.05 0 0 1-.04.01h-1.2l-.03.02-.02.03-.3.93v.03a.06.06 0 0 0 .05.05Z" fill="#0A0B19"/><path fill-rule="evenodd" d="m19.73 39.91-.67-1.18c-.04-.08-.02-.13.06-.17.42-.15.72-.33.9-.56.42-.51.15-1.02-.47-1.1a6.6 6.6 0 0 0-1.25-.02c-.06 0-.1.03-.12.1l-.9 3.04c-.02.06 0 .08.05.08h.43c.07 0 .11-.03.13-.1l.32-1.08c.06-.18.13-.18.22-.02l.65 1.15c.02.03.04.05.08.05h.47c.13 0 .17-.06.1-.19Zm-1.04-2.68-.3.94a.24.24 0 0 0 .08.25.22.22 0 0 0 .25.02l.63-.36a.23.23 0 0 0 .1-.14l.11-.43a.24.24 0 0 0-.02-.17.23.23 0 0 0-.13-.11l-.44-.15a.22.22 0 0 0-.24.07.23.23 0 0 0-.04.08ZM20.55 39.93l.77-1.07a.17.17 0 0 1 .16-.07c.24.03.45.02.62-.04a.14.14 0 0 1 .14.02.15.15 0 0 1 .06.12v1c0 .12.05.17.16.17h.47c.08 0 .12-.04.1-.13l-.33-2.8c-.02-.2-.1-.3-.28-.3-.03 0-.06 0-.09.02a.2.2 0 0 0-.07.06l-2.18 3c-.08.1-.05.16.07.16h.11c.12 0 .21-.05.29-.14Zm1.68-1.4-.01-.66a.1.1 0 0 0-.02-.06.1.1 0 0 0-.15 0l-.52.67a.1.1 0 0 0 .03.14.1.1 0 0 0 .05.01h.53a.09.09 0 0 0 .07-.03.1.1 0 0 0 .02-.07Z" fill="#0A0B19"/></svg>