<svg width="56" height="56" viewBox="0 0 56 56" xmlns="http://www.w3.org/2000/svg"><path fill="#F0F3FA" d="M0 0h56v56H0z"/><path d="M33.17 12h.67c.1.1.22.16.35.17.32.73.38 1.44.17 2.14l-.21 1.29-.11.8-.42-.71c-.05-.08-.14-.2-.26-.33a2.28 2.28 0 0 1-.23-.3 1.07 1.07 0 0 1-.15-.4.44.44 0 0 0-.08-.2l-.99-1.3-.13-.35 1.4-.81Z" fill="#0C6467"/><path d="m34.19 12.17 3.2 1.26.34 1.94c-1.1-.46-2.22-.81-3.37-1.06.2-.7.15-1.42-.17-2.14Z" fill="#75A938"/><path d="m31.78 12.81.13.35a33.5 33.5 0 0 1-.42 3.17c-.2 1.03-.5 2-.9 2.94-.02 0-.04 0-.05.02h-.03a15.79 15.79 0 0 1-3.29-3.74l4.56-2.74Z" fill="#373467"/><path d="m34.04 16.4-.07.72c0 .07.02.12.1.14l1.01.35.98.26c.33.09.65.2.96.35.13.07.45.09.95.06-.07 1.53-.3 3.01-.7 4.45-.03.06-.05.08-.06.08l-3.99-1.54.4-2.76c0-.08-.02-.1-.1-.06l-2.46 1.49a2.16 2.16 0 0 0-.52-.5l.05-.17c.4-.93.7-1.91.9-2.94.15-.76.3-1.82.42-3.17l.99 1.3c.04.06.07.13.08.2.02.14.07.28.15.4.04.08.12.18.23.3l.26.33.42.71Z" fill="#046C58"/><path d="m37.38 13.43 1.57.6c.63.22.98.62 1.05 1.21.01.18-.03.5-.13.98-.07.32-.12.65-.16.98a1.85 1.85 0 0 0-.82-.3 5.1 5.1 0 0 1-.99-.22l-.04-.14-.13-1.17-.35-1.94Z" fill="#7EBC60"/><path d="M34.36 14.3c1.15.26 2.27.61 3.37 1.07l.13 1.17a.83.83 0 0 1-.62.04 35.88 35.88 0 0 0-3.1-.98l.22-1.3Z" fill="#50A04F"/><path d="M27.22 15.55a15.78 15.78 0 0 0 3.32 3.74.07.07 0 0 1 .05-.02l-.05.18c-.06.24-.19.48-.37.73a.24.24 0 0 1-.14.09.23.23 0 0 1-.17-.02 18.64 18.64 0 0 0-7.25-1.91l4.61-2.8Z" fill="#2B4570"/><path d="M34.15 15.6c.87.23 1.9.55 3.09.98.19.07.4.05.62-.04l.04.14.08 1.28-.01.32c-.5.03-.82 0-.95-.06a4.8 4.8 0 0 0-.96-.35 16.5 16.5 0 0 1-2-.6c-.07-.03-.1-.08-.1-.15l.08-.72.1-.8Z" fill="#007549"/><path d="m37.9 16.68.25.06c.3.08.54.13.74.15.28.03.55.13.82.3l-.14 1.02-1.6-.25-.07-1.28Z" fill="#46C48F"/><path d="m37.98 17.96 1.59.25-.81 4.9-1.5-.38c.4-1.44.64-2.92.7-4.45l.02-.32Z" fill="#24BBA6"/><path d="M22.6 18.34c2.66.17 5.08.81 7.26 1.91.05.03.1.03.17.02.06-.01.1-.04.14-.1.18-.24.3-.48.37-.72.2.14.38.3.52.49l-9.37 5.62c-.23-.13-.37-.4-.4-.78-.17-2.01-.07-3.96.3-5.84l1.02-.6Z" fill="#0C6467"/><path d="M21.6 18.94a20.93 20.93 0 0 0-.31 5.84c.03.39.17.65.4.78-.16.08-.3.18-.44.31-.06.06-.05.1.03.1.1.02.22.01.35-.03-.05.3 0 .64.14 1.02.07.15.14.51.21 1.07a.3.3 0 0 1-.05.17.27.27 0 0 1-.13.1l-.35.13c-.26.1-.46.17-.6.24a3.4 3.4 0 0 1-.85.3l-1.1.27c-.06-.13.03-.26.25-.4a.15.15 0 0 0 .07-.1.14.14 0 0 0-.02-.11 3.25 3.25 0 0 1-.27-.64 3.6 3.6 0 0 0-.2-.53c-.16-.3-.28-.64-.35-1-.02-.06-.06-.1-.13-.09l-3.06.34-2.56.28-1.01.12c-.5.07-1-.04-1.47-.34l-.15-.21v-.65l11.6-6.97Z" fill="#007549"/><path d="m33.22 21.27 4 1.54c-.3 1-.67 1.93-1.14 2.8a.97.97 0 0 1-.26-.2c-.8-1.1-1.7-2.1-2.74-3.01l.14-1.13Z" fill="#0C6467"/><path d="M33.08 22.4c1.04.9 1.95 1.91 2.74 3.02.04.05.12.11.26.2a.61.61 0 0 1-.08.2 16.82 16.82 0 0 1-4.13 5.1c-.03 0-.1.03-.19.1l1.4-8.62Z" fill="#007549"/><path d="m37.27 22.73 1.49.38-.93 5.83a27.57 27.57 0 0 0-1.68-3.07c-.03-.05-.08-.07-.15-.04a.6.6 0 0 0 .08-.21c.47-.88.85-1.81 1.13-2.8l.06-.09Z" fill="#50A04F"/><path d="M28.93 25.55c-.7.28-1.16.44-1.36.49-.82.16-1.57.33-2.26.5-.26.07-.51.17-.77.3a.33.33 0 0 1-.24.03c-.12-.03-.2 0-.25.11a.15.15 0 0 1-.15.1.5.5 0 0 0-.29.13 2.05 2.05 0 0 0-.79-1.4c1.23-.22 2.45-.37 3.66-.45.15-.01.36-.04.64-.1.38-.07.67-.1.87-.08.32.03.63.15.94.37Z" fill="#75A938"/><path d="M28.93 25.55c.16.14.3.46.45.97l-5.43 1.28c-.04 0-.07 0-.1-.02a.12.12 0 0 1-.05-.08.9.9 0 0 0-.16-.33c.03-.15.02-.2-.03-.16a.5.5 0 0 1 .3-.13c.06 0 .11-.03.14-.1.05-.1.13-.14.25-.11.08.02.17.01.24-.03.26-.13.51-.23.77-.3.69-.17 1.44-.34 2.26-.5.2-.05.65-.2 1.36-.5Z" fill="#50A04F"/><path d="M22.82 25.81c.45.36.72.82.8 1.4.04-.05.05 0 .02.16-.42.18-.82.38-1.22.61-.05.1-.17.15-.34.13-.03-.09-.06-.12-.1-.08a5.8 5.8 0 0 0-.2-1.07c-.15-.38-.2-.72-.15-1.02l1.19-.13Z" fill="#0C6467"/><path d="M36 25.83c.07-.03.12-.01.15.04.6.94 1.16 1.97 1.68 3.07l-1.04 6.6a19.24 19.24 0 0 0-4.85-4.38c-.05-.03-.08-.06-.08-.1v-.13a16.82 16.82 0 0 0 4.14-5.1Z" fill="#7EBC60"/><path d="m18.9 29.24-1.88.57c-.07-.2-.19-.29-.35-.25-.25.06-.55.08-.92.07.1-.23.09-.52-.02-.86-.17-.55-.3-.9-.4-1.08a1.39 1.39 0 0 1-.14-.99l3.06-.33c.07 0 .11.03.13.1.07.35.19.68.35.99.06.11.13.29.2.53.1.29.2.5.27.64.03.03.03.07.02.11a.15.15 0 0 1-.07.1c-.22.14-.3.27-.25.4Z" fill="#008349"/><path d="m29.38 26.52 1.05 3.68a34.83 34.83 0 0 0-3.14-1.05 8.93 8.93 0 0 0-1.02-.2c-.38-.05-.66-.1-.84-.14a3.8 3.8 0 0 0-.76-.07c-.24-.01-.43-.02-.55-.04-.03 0-.06.01-.09.04a.09.09 0 0 0 0 .1c.35.89.55 1.74.57 2.54l-.98.13-1.14-2.33a.37.37 0 0 1-.03-.25c.03-.11-.01-.2-.1-.25a.36.36 0 0 1-.15-.14.93.93 0 0 1-.12-.43c.17.02.29-.02.34-.13.4-.23.8-.43 1.22-.6a.9.9 0 0 1 .16.32c0 .04.02.06.05.08.03.02.06.03.1.02l5.43-1.28Z" fill="#007549"/><path d="M15.19 26.7c-.08.35-.03.67.14.99.1.17.23.53.4 1.08.1.34.11.63.02.86l-2.32-.05c0-.3-.04-.52-.15-.65a.35.35 0 0 1-.06-.3.17.17 0 0 0-.07-.19.34.34 0 0 1-.15-.28c0-.15-.09-.35-.27-.62v-.01a.26.26 0 0 1-.04-.2c.01-.1 0-.2-.06-.34l2.56-.28Z" fill="#50A04F"/><path d="M10.15 26.77c.48.3.97.41 1.47.34.34-.05.68-.1 1.01-.12.05.13.07.25.06.34a.26.26 0 0 0 .04.2c.18.28.27.48.27.63 0 .12.05.21.15.28.06.05.09.11.07.19-.03.11 0 .21.06.3.1.13.16.35.15.65a7.85 7.85 0 0 1-2.34-.4l-.94-2.41Z" fill="#75A938"/><path d="M21.98 28.03c.04-.04.07 0 .1.08 0 .15.04.29.12.43.04.06.08.1.14.14.1.06.14.14.11.25-.02.08 0 .17.03.25l1.14 2.33-2.7.32-.52-1.24v-.01l.02-.07a.11.11 0 0 0-.01-.1 2.66 2.66 0 0 1-.41-1.45c.3-.06.59-.16.85-.3l.6-.23.35-.13c.06-.02.1-.06.13-.1a.3.3 0 0 0 .05-.17ZM30.43 30.2l.43 1.47c-1.4 1-2.96 1.77-4.7 2.33-.27.08-.48.08-.63 0-.25-.8-.48-1.61-.7-2.42-.03-.15-.11-.22-.23-.2a7.31 7.31 0 0 0-.58-2.55.09.09 0 0 1 .01-.09.09.09 0 0 1 .1-.04c.11.02.3.03.54.04.33 0 .58.03.76.07.18.04.46.1.84.15.45.06.8.13 1.02.2 1.03.28 2.08.63 3.14 1.04Z" fill="#50A04F"/><path d="M20 28.96c0 .52.13 1 .41 1.45.02.03.02.06.01.1l-.02.07v.01l.52 1.24-7.7.87c-.08 0-.15 0-.22-.03l-.51-.2c1.22-.92 2.21-1.58 3-2 .2-.12.72-.34 1.53-.66l1.88-.57 1.1-.28Z" fill="#7AC347"/><path d="M11.1 29.18c.75.25 1.52.38 2.33.4l2.32.05c.37.01.67 0 .92-.07.16-.04.28.04.35.25-.81.32-1.32.54-1.54.66-.78.42-1.77 1.08-3 2a17.65 17.65 0 0 1-1.39-3.3Z" fill="#9CAE3C"/><path d="M31.87 30.93a.3.3 0 0 0-.01.14c0 .03.03.06.08.1a19.24 19.24 0 0 1 4.85 4.36l-.63 3.95-3.24-.67c-.04 0-.1-.05-.15-.15a83.22 83.22 0 0 0-1.14-4c-.14-.46-.22-.9-.24-1.32l.3-2.32c.09-.07.15-.1.18-.1Z" fill="#60AD4C"/><path d="m30.86 31.67.53 1.67c.02.42.1.86.24 1.32.42 1.33.8 2.66 1.14 4-.14 0-.25 0-.34-.04a17.18 17.18 0 0 1-6.61-4.27.18.18 0 0 0-.1-.05c-.04-.02-.07 0-.1.02a.49.49 0 0 1-.09-.33c.15.1.36.1.63 0 1.74-.55 3.3-1.33 4.7-2.32Z" fill="#7AC347"/><path d="M25.62 34.32c.03-.03.06-.04.1-.02.04 0 .07.02.1.05a17.18 17.18 0 0 0 6.61 4.27c.09.03.2.04.34.04.06.1.1.15.15.15.07.47.25 1.16.52 2.05.16.51.27.9.33 1.16.13.48.38.88.77 1.19-2.23.2-4.36.19-6.36-.04l-2.56-8.85Z" fill="#CCDD35"/><path d="m32.92 38.81 3.24.67-.5 3.44a.26.26 0 0 1-.1.18l-.27.2-.75-.1c-.39-.3-.64-.7-.77-1.18a32.3 32.3 0 0 0-.33-1.16c-.27-.9-.45-1.58-.52-2.05Z" fill="#9CAE3C"/><path d="M28.18 43.17c2 .23 4.13.24 6.36.04l.75.1a.34.34 0 0 1 .17-.02c.05.01.06.04.04.08 0 .02-.03.03-.06.02.12-.04.2-.04.26.02.05.05.04.08-.03.08h-.71c-.05 0-.06.02-.02.04v.02l-.01.02c-1.26.33-2.3.47-3.13.42a21.32 21.32 0 0 1-3.43-.53.27.27 0 0 1-.15-.1c-.08-.09-.1-.15-.04-.19Z" fill="#3A3B35" fill-opacity=".4"/></svg>