<svg width="56" height="56" viewBox="0 0 56 56" xmlns="http://www.w3.org/2000/svg"><path fill="#F0F3FA" d="M0 0h56v56H0z"/><path d="M35.38 23a2.5 2.5 0 1 0 .24-5 2.5 2.5 0 1 0-.24 5Z" fill="#FACE26"/><path d="M29.22 25.19c.18-.18.4-.4.66-.51 1.66-.65 4.01-.2 4.12 1.87v5.27c0 .12-.07.18-.2.18h-1.63c-.12 0-.17-.06-.17-.18v-4.65c-.04-.88-.94-1.26-1.78-1.05-.74.18-1.2.77-1.22 1.76v4.06c0 .04 0 .06-.05.06h-1.89c-.04 0-.06-.02-.06-.06v-9.88c0-.04.02-.06.06-.06h1.9c.04 0 .04.02.04.06v3.08c.01.12.13.14.22.05ZM16.44 25.15c0 .1.04.12.11.04.26-.3.51-.57.76-.82.2-.2.65-.32 1.36-.37.23-.01.33.1.33.33v1.48c0 .23-.1.34-.33.33-1.1-.04-2.03.3-2.05 1.62v4.06a.18.18 0 0 1-.1.17.17.17 0 0 1-.07.01H14.7a.18.18 0 0 1-.13-.06.19.19 0 0 1-.06-.13v-7.54c0-.18.09-.27.26-.27h1.44c.06 0 .11.03.16.07.04.04.06.1.06.17v.9ZM24.27 29.94a.42.42 0 0 0-.06-.54.45.45 0 0 0-.16-.1 43.7 43.7 0 0 0-2.85-.81c-1.36-.36-1.9-1.19-1.61-2.5.48-2.2 3.52-2.29 5.23-1.63.76.29 1.23.92 1.42 1.9.03.18-.05.27-.24.27h-1.64a.21.21 0 0 1-.2-.13c-.44-.88-1.2-1.1-2.26-.64a.41.41 0 0 0-.16.12.39.39 0 0 0-.08.18c-.06.38.17.63.69.74 1.27.27 2.15.5 2.64.66 1.22.4 1.72 1.6 1.35 2.77-.27.84-.92 1.37-1.94 1.6-1.4.3-2.66.2-3.76-.28-.83-.37-1.29-1.11-1.38-2.22 0-.03.02-.05.05-.05h2a.1.1 0 0 1 .07.02.1.1 0 0 1 .03.06c.15.6.48.93.99 1 .62.08 1.47.16 1.87-.42ZM36.42 24h-1.68c-.09 0-.16.08-.16.17v7.66c0 .1.07.17.16.17h1.68c.1 0 .16-.08.16-.17v-7.66c0-.1-.07-.17-.16-.17ZM40.87 29.55c.07.26.14.26.2 0l1.44-5.33c.04-.15.13-.22.28-.22h1.78c.16 0 .22.08.16.25a661.82 661.82 0 0 1-3.1 9.3C41.1 35.08 40.2 36.1 38.6 36c-.1 0-.15-.06-.15-.17V33.9c0-.1.04-.14.13-.14.56 0 .95-.23 1.15-.67.1-.24.07-.62-.1-1.15a5067.29 5067.29 0 0 0-2.64-7.91l.02-.02.03-.01h2.23c.04 0 .07.02.08.06l1.52 5.5Z" fill="#213982"/><path fill-rule="evenodd" d="m6.39 31.9.63-1.81c0-.03.02-.05.04-.07a.14.14 0 0 1 .08-.02h3.64c.03 0 .05 0 .08.03.02.01.04.03.04.06l.55 1.8c0 .02.02.04.05.06.02.02.05.02.07.02l2.26.03a.14.14 0 0 0 .11-.05.12.12 0 0 0 .02-.12l-3.65-9.75a.13.13 0 0 0-.05-.06.14.14 0 0 0-.08-.02H7.81c-.03 0-.06.02-.08.03a.13.13 0 0 0-.05.06l-3.67 9.74a.12.12 0 0 0 .01.12c.02.01.03.03.05.03l.06.02 2.13-.02c.03 0 .06 0 .08-.02a.13.13 0 0 0 .05-.06Zm2.5-7.18L7.7 27.9a.07.07 0 0 0 .01.07l.03.02h.01l.03.02h2.35a.1.1 0 0 0 .04 0l.03-.03.01-.03v-.04l-1.15-3.18a.08.08 0 0 0-.04-.03.1.1 0 0 0-.1 0 .08.08 0 0 0-.02.03ZM49.43 31.12a.1.1 0 0 1 .03.04l.14.74c.02.06.06.1.13.1h2.06c.24 0 .27-.08.1-.24-.3-.24-.44-.89-.44-1.41.01-2.34.02-3.69.01-4.05-.02-.94-.38-1.57-1.08-1.87a5.8 5.8 0 0 0-3.49-.3c-1.23.25-1.93 1.01-2.09 2.3-.02.17.06.26.24.26h1.5a.36.36 0 0 0 .36-.3c.1-.47.46-.7 1.08-.72.44 0 1.23.01 1.32.54.04.24 0 .44-.12.6-.08.12-.24.2-.5.23a84.2 84.2 0 0 0-2.1.32c-1.59.28-2.28 1.47-2 2.95.2 1.2 1.4 1.75 2.54 1.68a3.54 3.54 0 0 0 2.23-.9.1.1 0 0 1 .08.03Zm-.06-2.86h-.03l-.46.08c-.78.13-1.7.28-2.05.67-.18.21-.23.5-.15.88.1.46.48.59.93.6.74 0 1.52-.36 1.67-1.13a8.4 8.4 0 0 0 .14-1.06.08.08 0 0 0-.05-.04Z" fill="#213982"/></svg>