<svg width="56" height="56" viewBox="0 0 56 56" xmlns="http://www.w3.org/2000/svg"><path fill="#F0F3FA" d="M0 0h56v56H0z"/><path d="m10 31-3-7-3 7h.6L7 25.4 9.4 31h.6Z" fill="#A79614"/><path d="M21 24h4.5v.5H21V24ZM23.5 25.5V31H23v-5.5h.5ZM28.5 30.5v-6H31V24h-3v7h3v-.5h-2.5ZM45.5 24v7H45v-7h.5ZM36.55 27.87l.45-.37-2-3.5v7h.5v-4.92l1.05 1.79ZM38.45 27.87 38 27.5l2-3.5v7h-.5v-4.92l-1.05 1.79ZM50.4 24.5V24c-1.59 0-2.4.64-2.4 1.5 0 .84 1.02 1.84 1.93 2.16 1.1.39 1.57 1.14 1.57 1.55 0 1.06-1.2 1.29-1.94 1.29-.6 0-1.16-.12-1.36-.18v.5s.61.18 1.36.18c1.33 0 2.44-.76 2.44-1.79 0-1.02-.94-1.67-1.89-2.02-.94-.35-1.61-1.08-1.61-1.7 0-.86 1.27-.99 1.9-.99Z" fill="#7B6A1C"/><path d="m7 28-.5.37.5.63.5-.63L7 28Z" fill="#A79614"/><path d="M13.5 29v2H13v-2h.5ZM13.5 25v-.5h1.34c.73 0 1.16.45 1.16 1.25v.2c0 .7-.44 1.05-.94 1.05h-.56l1.91 4H17l-1.62-3.53c.74-.14 1.12-.76 1.12-1.51v-.21c0-.97-.64-1.75-1.66-1.75H13v1h.5ZM37.5 29l.5.37-.5.63-.5-.63.5-.37ZM30 27.5l.37-.5.63.5-.63.5-.37-.5Z" fill="#7B6A1C"/></svg>