<svg width="56" height="56" viewBox="0 0 56 56" xmlns="http://www.w3.org/2000/svg"><path fill="#F0F3FA" d="M0 0h56v56H0z"/><path d="m28.83 13 12.29 7.16c.3.18.28.26-.07.26l-1.83.01c-.4 0-.96-.2-1.68-.61a920.75 920.75 0 0 0-8.6-4.9.31.31 0 0 0-.33 0l-8.9 5.05c-.56.32-1.05.48-1.44.46-.52-.02-1.08-.02-1.7 0-.42.02-.45-.08-.08-.3l11.97-6.94c.05-.03.07-.1.08-.19h.29ZM35 15.63v-1.5a.12.12 0 0 1 .13-.13l1.56.02a.12.12 0 0 1 .13.12l-.01 2.35a.12.12 0 0 1-.06.1.12.12 0 0 1-.12 0l-1.56-.86a.12.12 0 0 1-.06-.1Z" fill="#FECC01"/><path d="M24.09 22.43c.88-4.57 7.26-5.4 9.13-.9.27.66.4 1.58.4 2.77a340.1 340.1 0 0 0-.02 4.02c0 .2-.1.3-.3.3h-.16c-.18 0-.27-.09-.27-.27.03-1.7.03-3.27 0-4.7-.07-4.54-5.64-6.25-7.7-1.92-1.94 4.08 2.85 8.57 6.5 5.1.17-.15.25-.12.25.1v.26c0 .2-.08.37-.24.5a4.7 4.7 0 0 1-7.13-1.53 5.6 5.6 0 0 1-.46-3.73Z" fill="#020101"/><path d="m36.56 29.9-1.54.13-.02-10.4c0-.2.09-.25.26-.15l1.06.6a.5.5 0 0 1 .26.45l-.02 9.36ZM22.56 29.85l-1.55-.4-.01-9.09c0-.06.02-.1.07-.13a8.54 8.54 0 0 1 1.5-.8v.03l-.01 10.39Z" fill="#FECC01"/><path d="M28.92 26.7a3.02 3.02 0 0 0 3.03-3c0-1.67-1.36-3.01-3.03-3.01a3.02 3.02 0 0 0-3.02 3c0 1.67 1.35 3.02 3.02 3.02Z" fill="#E4030D"/><path d="M40.78 30.3v-.35c1-.54 2.06-.2 3.2 1.02a.08.08 0 0 1-.01.12 18.8 18.8 0 0 1-2.26 0c-.4-.03-.7-.3-.93-.8ZM11.27 30.5c.04-.02.04.04 0 .18-.08.65-.45 1-1.1 1.03-.71.04-1.38.04-2.01-.01-.19-.01-.21-.08-.06-.2.44-.35.93-.67 1.46-.97.6-.33 1.16-.34 1.71-.03Z" fill="#020101"/><path d="m22.58 29.85-1.54-.4c-2.1-.4-4.24-.4-6.44-.01-1.22.21-2.33.57-3.33 1.06.04-.02.04.04 0 .18a14.53 14.53 0 0 1 10.08.44c1.8.74 3.47 1.79 5.03 3.14.09.07.1.16.04.26-2.4 2.84-3.37 7.76-2.95 11.4-.02.05 0 .08.07.08h.09c.01 0 .02 0 .02-.02l.7-3.96c.6-2.2 1.6-5.44 3.48-6.82 3.52-3.27 7.84-4.9 12.95-4.9v-.35l-4.25-.06-1.54.13a15.1 15.1 0 0 0-6.74 2.65.22.22 0 0 1-.27 0 20.25 20.25 0 0 0-5.4-2.82Z" fill="#E4030D"/></svg>