<svg width="56" height="56" viewBox="0 0 56 56" xmlns="http://www.w3.org/2000/svg"><path fill="#F0F3FA" d="M0 0h56v56H0z"/><path d="M27.68 32.29c.1.2.14.2.14-.03-.04-1.3-.1-2.82.21-4.05.92-3.63 3.3-6.38 6.51-8.15.21-.12.32-.06.32.19 0 1.1-.1 2.36-.32 3.78-.11.8-.44 1.82-.97 3.07-.38.88-.94 1.78-1.7 2.7a32.91 32.91 0 0 1-4.09 4.15.18.18 0 0 1-.2.03 14.27 14.27 0 0 1-4.23-3.29 9.37 9.37 0 0 1-2.37-7.34c.01-.13.08-.17.19-.1 1.37.76 2.56 1.72 3.57 2.88.3.34.92 1.37 1.84 3.07.23.43.43.95.6 1.54.23.8.4 1.32.5 1.55Z" fill="#A9CF48"/><path d="M16.58 25.33c.1-.11.19-.23.28-.36.6-.88 1.83-1.1 2.83-.9a.1.1 0 0 1 .06.04l.02.07v.12c0 .13-.06.18-.17.16-1.33-.2-2.25.16-2.77 1.11-.25.46-.38 1.35-.4 2.68-.01 1.33 0 2.7.02 4.08 0 .07.02.13.07.17.04.05.1.07.16.07h1.07a.1.1 0 0 1 .07.04c.02.02.03.04.03.07v.16c0 .1-.05.16-.15.16h-3.02c-.06 0-.1-.03-.1-.1l-.02-.1c-.02-.15.03-.22.17-.22h1.07a.2.2 0 0 0 .14-.06c.04-.04.06-.1.06-.16v-7.6c0-.04-.02-.09-.05-.12a.16.16 0 0 0-.12-.06h-1.19a.1.1 0 0 1-.08-.03.13.13 0 0 1-.03-.08v-.16c0-.05.02-.08.07-.08h1.67c.11 0 .17.06.17.19v.85c0 .15.05.17.14.06ZM11.32 31.34c0-.03 0-.05-.02-.07a.1.1 0 0 0-.06-.04.1.1 0 0 0-.06 0 .11.11 0 0 0-.06.04 3.45 3.45 0 0 1-3.51 1.7c-1.07-.1-2.17-.6-2.48-1.73-.11-.4-.15-.82-.12-1.22.04-.38.2-.72.49-1.02a3.84 3.84 0 0 1 2.81-1.16h2.8c.04 0 .08-.01.1-.04a.17.17 0 0 0 .06-.1c.18-1.06.06-2.6-1.15-3.07a3.5 3.5 0 0 0-3.39.3c-.43.3-.75.82-.94 1.58l-.05.08a.14.14 0 0 1-.1.03h-.12c-.05 0-.07-.02-.06-.06.14-1.24.75-2.02 1.82-2.35 1.87-.56 4.42-.08 4.42 2.45l.05 5.37c0 .1.03.18.1.25.06.06.14.1.23.1h.97c.07 0 .1.04.1.11v.1c0 .03 0 .07-.04.1a.15.15 0 0 1-.1.05h-1.4a.3.3 0 0 1-.2-.09.31.31 0 0 1-.09-.22v-1.1Zm0-3.06c0-.07-.04-.1-.1-.1-1.33 0-2.41.01-3.26.06-.7.03-1.4.3-1.97.76-.41.34-.6.79-.57 1.35.06 1.18.66 1.89 1.8 2.14 1.58.35 3.3-.2 3.86-1.93.2-.64.28-1.4.24-2.28ZM35 28.4c-.1 0-.16.05-.16.17.03 1.22.37 2.3 1.03 3.01 1.06 1.15 2.84 1.22 4.18.54.51-.26.91-.83 1.2-1.7.04-.15.14-.2.28-.14l.09.03c.03.01.05.04.06.06.02.03.02.06.02.1-.48 2.27-2.75 2.9-4.65 2.34a3.32 3.32 0 0 1-2.09-1.75 5.56 5.56 0 0 1-.38-4.09c.53-2.03 1.83-3.02 3.9-2.97 2.4.07 3.57 1.94 3.45 4.27 0 .08-.04.13-.12.13H35Zm.05-.4h6.37c.03 0 .06-.04.08-.06a.13.13 0 0 0 .04-.09v-.21c0-.9-.34-1.67-.92-2.3-.59-.64-1.38-1-2.2-1h-.4a3.1 3.1 0 0 0-2.2 1c-.28.33-.5.7-.66 1.12-.16.42-.23.75-.23 1.2v.21c0 .04.01.07.03.1.02.02.06.03.09.03ZM44.06 28.4c-.1 0-.16.05-.16.17.03 1.22.37 2.3 1.03 3.01 1.06 1.15 2.84 1.22 4.18.54.51-.26.91-.83 1.2-1.7.05-.15.14-.2.28-.14l.09.03c.03.01.05.04.06.06.02.03.02.06.02.1-.48 2.27-2.75 2.9-4.65 2.34a3.32 3.32 0 0 1-2.09-1.75 5.56 5.56 0 0 1-.38-4.09c.53-2.03 1.83-3.02 3.9-2.97 2.4.07 3.57 1.94 3.45 4.27 0 .08-.04.13-.12.13h-6.8Zm.05-.4h6.37c.03 0 .06-.04.08-.06a.13.13 0 0 0 .04-.09v-.21c0-.9-.34-1.67-.92-2.3-.59-.64-1.38-1-2.2-1h-.4a3.1 3.1 0 0 0-2.2 1c-.28.33-.5.7-.66 1.12-.15.42-.23.75-.23 1.2v.21c0 .04.01.07.03.1l.09.03Z" fill="#181615"/></svg>