<svg xmlns="http://www.w3.org/2000/svg" width="56" height="56"><path fill="#A31834" d="M0 0h56v56H0z"/><path d="M9.29 21.57s3.8 7.18 4.87 9.43c.34.7 1.34.7 1.34.7v.3H12v-.3s1.42 0 1.04-.7c-.54-1-4-7.71-4-7.71S6 30 5.5 31c-.34.65.51.7.51.7v.3H4v-.3s.6-.07.94-.7c1.06-2 4.35-9.43 4.35-9.43zM21 23.5h-.3s0 .5-.2.5H19a3 3 0 00-3 3v4c0 .7-.5.7-.5.7v.3H18v-.3s-1 .1-1-.7v-4.21a2.29 2.29 0 012.29-2.29c.58 0 1.41.26 1.41 1v.5h.3v-2.5zM34 27v4.5c0 .2-.25.2-.25.2h-.25v.3h2v-.3h-.25s-.25 0-.25-.2V27a3 3 0 116 0v4.5c0 .2-.25.2-.25.2h-.25v.3h2v-.3h-.25s-.25 0-.25-.2V27c0-2.29-1.93-3.5-4-3.5s-4 1.21-4 3.5zm-1.5-3H30v.3h.5c.37 0 .5.2.5.4v6.65c0 .15-.07.35-.5.35v.3h2v-.3c-.43 0-.5-.2-.5-.35V24.7c0-.21.07-.4.5-.4V24zm-9 0h-2.02l3.92 8h.48s2.12-5 3.2-7.35c.16-.37.53-.35.53-.35H30V24h-2v.3h.34s.34 0 .19.35l-2.65 6.05S24 27 22.91 24.65c-.06-.13-.13-.35.11-.35h.48V24zm20 0H48a4 4 0 010 8h-4.5v-.3h.25c.27 0 .25-.2.25-.2v-7s0-.2-.25-.2h-.25V24zm4 .5H45v7h2.5a3.5 3.5 0 100-7z" fill="#fff"/></svg>