<svg xmlns="http://www.w3.org/2000/svg" width="56" height="56" fill="none"><path d="M0 28a28 28 0 1156 0 28 28 0 01-56 0z" fill="#F0F3FA"/><path d="M10.5 31v-.2h-.44l-2.8-5.84-2.89 5.84H4v.2h1v-.2h-.2L7 26.5l1.95 4.3H8.5v.2h2zm3.5-4.2v.92h-.2v-.37H13c-.55 0-1 .5-1 1v2.47h.5V31h-2v-.18h.5V28.9a2 2 0 012-1.9h.8v-.18h.2zm2.5 4.2l-2-3.8h-.3V27h1.5v.2h-.16l1.12 2.3 1.16-2.3h-.32V27h1v.2h-.24L16.5 31zm2.5-4h-.3v.2h.3v3.6h-.3v.2h1.6v-.2H20v-3.6h.3V27H19zm2 1.75c0-1.04.9-1.88 2-1.88s2 .84 2 1.88v2.05h.3v.2h-1.6v-.2h.3v-2.62c0-.52-.45-.94-1-.94s-1 .42-1 .94v2.62h.3v.2h-1.6v-.2h.3v-2.05z" fill="#A41E34"/><path fill-rule="evenodd" d="M25.7 27H28a2 2 0 110 4h-2.3v-.2h.3v-3.6h-.3V27zm1.3.4h.4a1.6 1.6 0 110 3.2H27v-3.2z" fill="#A41E34"/><path d="M31.85 29c0-.58.57-1.35 1.55-1.35v.3c-.82 0-1.25.63-1.25 1.05v2h-.3v-2z" fill="#A41E34"/><path d="M35.61 30H31.5v-.3h4.11v.3z" fill="#A41E34"/><path d="M36.4 31l-1.7-3.34L33.08 31h.33l1.3-2.66L36.05 31h.34zm1.74-3.24c.32.1.62.3.7.64h-.31c-.07-.16-.24-.29-.47-.36a1.7 1.7 0 00-.88-.01c-.39.1-.55.32-.56.53-.02.21.1.45.4.58.15.06.3.07.49.09h.01c.18.01.38.03.58.1.4.18.61.53.58.89-.03.36-.3.67-.78.8-.33.08-.72.08-1.04-.02-.32-.1-.6-.3-.7-.63h.32c.08.15.24.27.47.34.27.08.6.09.87.02.39-.1.55-.33.56-.54.02-.2-.1-.45-.4-.58a1.5 1.5 0 00-.5-.08c-.18-.02-.38-.03-.58-.12-.4-.17-.61-.52-.58-.87.03-.36.3-.68.78-.8.33-.09.72-.08 1.04.02zm12.44 0c.32.1.62.3.7.64h-.32c-.07-.16-.23-.28-.47-.35a1.7 1.7 0 00-.88-.02c-.38.1-.54.33-.56.53-.01.21.11.45.4.58.15.06.31.08.5.09.18.01.39.03.58.11.4.17.62.52.6.88-.04.36-.31.68-.8.8-.32.08-.7.08-1.04-.02-.3-.1-.6-.3-.69-.63h.32c.07.16.24.27.46.34.27.09.6.1.88.02.39-.1.55-.33.56-.54.02-.2-.1-.44-.4-.57a1.5 1.5 0 00-.5-.1c-.18 0-.39-.02-.58-.1-.4-.18-.62-.52-.59-.88.04-.36.31-.68.79-.8.33-.08.71-.08 1.04.02zM39.35 30v1h.3v-1h1.4v1h.3v-3.34h-.3v2.04h-1.4v-2.04h-.3v2.04H39v.3h.35zm2.45-2.34V31h.3v-3.34h-.3z" fill="#A41E34"/><path d="M45.54 29.35c0 .9-.66 1.6-1.45 1.6-.78 0-1.45-.7-1.45-1.6 0-.9.67-1.6 1.45-1.6.8 0 1.45.7 1.45 1.6z" stroke="#A41E34" stroke-width=".3"/><path d="M47.25 27.6c-.69 0-1.25.56-1.25 1.25V31h.3v-2.15a1 1 0 01.95-.95 1 1 0 01.95.95V31h.3v-2.15c0-.69-.56-1.25-1.25-1.25z" fill="#A41E34"/></svg>