<svg xmlns="http://www.w3.org/2000/svg" width="56" height="56"><path fill="#F0F3FA" d="M0 0h56v56H0z"/><path d="M28 15.19l-9.14 5.8-.87-.62L28 14l9.8 6.24-.88.62L28 15.2zm10.86 6.9L48.14 28l-9.29 5.9.84.66L50 28l-10.3-6.55-.84.64zM28 40.81l8.91-5.67.88.63L28 42l-9.97-6.34.88-.63L28 40.81zM16.98 33.8L7.86 28l9.06-5.76-.84-.65L6 28l10.13 6.45.85-.65z" fill="#E91A20"/><path d="M20 33l2.72-10h2.15l2.54 10H25.4l-.54-2h-2.39l-.5 2H20zm3.7-8l-.75 4h1.57l-.81-4zm4.3-2h2v10h-2zm6.07 0a5 5 0 012.75.9l-.91 1.37c-.26-.23-1-.67-1.84-.67-1 0-1.14.7-1.14.94s.14.87 1 1.17c.87.3 3.07 1.14 3.07 3.1 0 2.01-1.62 3.17-3.48 3.19a5.37 5.37 0 01-3.08-.93l.87-1.54c.36.32 1.3.93 2.21.83 1.13-.12 1.3-.8 1.34-1.1.04-.3-.12-.93-1.34-1.34-1.23-.42-2.65-1.27-2.65-3 0-1.74 1.48-2.92 3.2-2.92z" fill="#0066B8"/></svg>