<svg width="56" height="56" viewBox="0 0 56 56" xmlns="http://www.w3.org/2000/svg"><path fill="#F0F3FA" d="M0 0h56v56H0z"/><path d="m28 21 13 22H15l13-22Z" fill="#0060AA"/><path d="M38.82 38.8a16 16 0 1 0-21.63 0L28 13l10.82 25.8Z" fill="url(#apa0euwqn)"/><path d="M25.78 35A8.01 8.01 0 0 0 20 37.8a8.13 8.13 0 0 1 4.67-1.49c2.76 0 7.61 3.69 11.04 3.69 3 0 4.73-2.84 5.29-3.83-1.07 1.17-2.67 2.34-4.52 2.34-3.28 0-7.18-3.51-10.7-3.51Z" fill="#FB772E"/><path d="M27.76 33c-2.41 0-4.85 1.98-5.76 2.98.98-.53 2.6-1.52 4.94-1.52 3.16 0 6.86 3.54 10.18 3.54 2.65 0 4.36-2.01 4.88-3.02-.7.54-2.47 1.6-4.02 1.6-3.02 0-7.2-3.58-10.22-3.58Z" fill="#FFDB33"/><defs><linearGradient id="apa0euwqn" x1="28" y1="11" x2="28" y2="38.92" gradientUnits="userSpaceOnUse"><stop stop-color="#FFD131"/><stop offset="1" stop-color="#FB7730"/></linearGradient></defs></svg>