<svg width="56" height="56" viewBox="0 0 56 56" xmlns="http://www.w3.org/2000/svg"><path fill="#F0F3FA" d="M0 0h56v56H0z"/><path d="M44.94 26.6c.19 2.25-.07 4.45-.76 6.6a16.86 16.86 0 0 1-14.8 11.75A16.86 16.86 0 0 1 17 40.96a16.84 16.84 0 0 1-5.94-11.57c-.19-2.25.07-4.45.76-6.6a16.86 16.86 0 0 1 14.8-11.75A16.86 16.86 0 0 1 39 15.04a16.84 16.84 0 0 1 5.94 11.57Zm-1.84 1.25a14.96 14.96 0 0 0-4.54-10.64 14.97 14.97 0 0 0-10.73-4.31 14.98 14.98 0 0 0-10.64 4.54 14.96 14.96 0 0 0-4.31 10.73 14.96 14.96 0 0 0 4.54 10.63 14.97 14.97 0 0 0 10.73 4.31 14.97 14.97 0 0 0 10.64-4.53 14.96 14.96 0 0 0 4.3-10.73Zm-1.6.15a13.36 13.36 0 0 1-3.95 9.55 13.36 13.36 0 0 1-14.71 2.93 13.35 13.35 0 0 1-7.31-7.31 13.36 13.36 0 0 1 0-10.34 13.35 13.35 0 0 1 7.3-7.3 13.36 13.36 0 0 1 10.34 0 13.35 13.35 0 0 1 7.3 7.3A13.36 13.36 0 0 1 41.5 28Zm-2.68-.02a10.72 10.72 0 0 0-3.17-7.65A10.71 10.71 0 0 0 28 17.16a10.72 10.72 0 0 0-7.65 3.17 10.71 10.71 0 0 0-3.17 7.65 10.72 10.72 0 0 0 3.17 7.65A10.71 10.71 0 0 0 28 38.8a10.72 10.72 0 0 0 7.65-3.17 10.71 10.71 0 0 0 3.17-7.65Zm-14.9 5.74c.41-.05.67.12.76.5.11.47.4.9.86 1.3.4.35.86.61 1.4.8.43.17.88.21 1.36.16A3.9 3.9 0 0 0 31.34 34c.01-.05.04-.1.1-.12.05-.03.1-.04.15-.03a3.5 3.5 0 0 0 3.03-.67 3.41 3.41 0 0 0 1.33-3.32c-.03-.24-.1-.48-.24-.72a5.67 5.67 0 0 0-.59-.82.48.48 0 0 1 0-.56l.21-.28c.25-.3.4-.56.47-.77.47-1.5.11-2.77-1.06-3.8a3.6 3.6 0 0 0-2.87-.8.47.47 0 0 1-.5-.33 3.17 3.17 0 0 0-1.28-1.67c-.55-.4-1.16-.6-1.85-.61-1.62-.02-2.8.76-3.53 2.35a.33.33 0 0 1-.18.17.32.32 0 0 1-.24 0c-.6-.2-1.2-.18-1.82.07-1.6.66-2.38 1.8-2.36 3.42.02.73.28 1.38.78 1.95.08.09.12.2.12.31 0 .12-.04.23-.12.32a3.4 3.4 0 0 0-.89 2.42 3.59 3.59 0 0 0 1.1 2.34 3.3 3.3 0 0 0 2.82.87Zm7.87-6.36c-.1.52-.08 1.01.07 1.48.02.09.08.14.17.16.09.03.24.05.45.08.22.03.38.05.48.08.16.04.29.1.38.17.42.34.62.71.6 1.12 0 .38-.18.76-.54 1.13a1.3 1.3 0 0 1-.76.41c-.3.05-.58 0-.85-.17-.11-.06-.26-.2-.45-.43-.2-.24-.37-.39-.5-.44-.2-.1-.43-.05-.7.14-.23.17-.46.32-.7.44a.5.5 0 0 0-.26.3.5.5 0 0 0 .03.42c.13.31.21.55.24.7.03.26-.02.5-.17.71-.43.63-1.03.85-1.8.66-.61-.16-.96-.53-1.03-1.12-.03-.19.02-.46.14-.82.05-.16.09-.28.1-.36a.52.52 0 0 0-.02-.33.54.54 0 0 0-.22-.25l-.88-.54a.5.5 0 0 0-.38-.07.5.5 0 0 0-.32.2c-.23.32-.47.55-.72.7-.32.18-.63.2-.94.08-.44-.18-.8-.48-1.08-.9a.97.97 0 0 1-.17-.59c0-.2.07-.38.18-.57.11-.18.26-.34.43-.46.19-.13.38-.21.57-.24l.72-.14a.42.42 0 0 0 .23-.12.4.4 0 0 0 .11-.22c.08-.47.07-.93-.01-1.39a.3.3 0 0 0-.23-.24c-.2-.05-.4-.1-.61-.13a1.36 1.36 0 0 1-.69-.34 2.17 2.17 0 0 1-.47-.6c-.16-.3-.15-.63.03-1 .07-.17.17-.32.29-.45.12-.13.25-.22.38-.28.85-.4 1.5-.26 1.96.43.21.32.5.4.85.26.28-.12.55-.27.8-.45.33-.24.4-.54.2-.9-.14-.27-.19-.55-.14-.83.05-.29.19-.53.42-.73.64-.53 1.3-.6 1.98-.19.35.22.55.52.58.9.03.32-.04.68-.21 1.08a.57.57 0 0 0-.03.38c.03.13.1.24.21.32.31.25.69.44 1.13.57a.4.4 0 0 0 .44-.11l.14-.16c.2-.2.35-.35.46-.44.2-.13.4-.2.6-.22.34-.02.65.05.92.2a1.41 1.41 0 0 1 .73 1.42c-.04.31-.17.6-.4.87-.14.16-.3.27-.5.34-.13.04-.32.07-.59.09l-.25.03c-.23.02-.36.14-.4.36Z" fill="#760100"/></svg>