<svg width="56" height="56" viewBox="0 0 56 56" xmlns="http://www.w3.org/2000/svg"><path fill="#F0F3FA" d="M0 0h56v56H0z"/><path d="M26.55 44H39V20.49C39 15.5 34.33 10 27.95 10 21.57 10 18 14.47 18 18.51c0 3.24 2.98 4.49 4.43 4.49 2.32 0 4.57-1.83 4.57-4.28 0-1-.71-1.86-1-2.22l.68-.51c.34.44 1.32 1.47 1.32 2.73 0 1.7-1.07 3.39-2.5 4.28h1.05c2.81 0 5.45 2.34 5.45 5.1 0 3.6-3.44 4.9-5.45 4.9A4.43 4.43 0 0 1 22 29.45l1-.2c.59 2.2 1.94 2.75 3.55 2.75 2.37 0 4.45-1.58 4.45-3.9 0-2.49-2.05-4.1-4.45-4.1C22 24 16 26.9 16 34.19c0 7.33 7.03 9.6 10.55 9.81Z" fill="#BD2726"/></svg>