<svg width="56" height="56" xmlns="http://www.w3.org/2000/svg"><path fill="#2088CA" d="M0 0h56v56H0z"/><path d="M44 28.014c0-4.419-1.573-8.194-4.693-11.328C36.187 13.553 32.427 12 28 12c-4.427 0-8.187 1.553-11.307 4.686C13.547 19.82 12 23.596 12 28.014c0 4.418 1.547 8.167 4.693 11.3C19.813 42.447 23.573 44 28 44c4.427 0 8.186-1.553 11.307-4.686C42.427 36.18 44 32.432 44 28.014zm-11.093-4.82c1.36 1.338 2.026 2.972 2.026 4.873 0 1.901-.666 3.535-2.026 4.9-1.334 1.34-2.934 2.009-4.854 2.009-1.893 0-3.52-.67-4.853-2.008-1.334-1.366-2.027-3-2.027-4.901 0-1.901.693-3.535 2.027-4.873 1.333-1.366 2.96-2.036 4.853-2.036 1.92 0 3.52.67 4.854 2.036zm2.933-5.49c3.2 2.838 4.827 5.918 4.96 9.238-2.667-4.177-6.56-6.507-11.733-6.962 1.573-1.526 3.84-2.303 6.773-2.276zm-18.053 2.142C20.933 16.552 24.32 14.973 28 15.16c-4.907 2.812-7.494 6.909-7.813 12.318-1.654-1.767-2.454-4.311-2.4-7.632zm9.68 16.603c-1.547 1.5-3.787 2.303-6.747 2.41-3.787-3.026-5.627-6.534-5.52-10.524 2.56 4.82 6.64 7.525 12.266 8.114zm9.12-7.445c1.52 2.036 2.24 4.07 2.213 6.106-2.453 3.4-5.627 5.355-9.467 5.81 4.427-2.918 6.853-6.881 7.253-11.916z" fill="#fff"/><path d="M33 28h-1c-.21 1.994-1.997 3-5 3l1.188-5.502c.027-.72.237-1.19.605-1.356.42-.056.658-.614.684-1.14H25V24c.394.028.306.374.174 1.011l-.72 3.28c-.288 1.966-.51 2.737-.8 2.709-.446.028-.654.477-.654 1.002h9L33 28z" fill="#fff"/></svg>