<svg xmlns="http://www.w3.org/2000/svg" width="56" height="56"><path fill="url(#av5gbicng)" d="M0 0h56v56H0z"/><path d="M9.55 24L4 31h2.3l3.7-4.63V31h2v-7H9.55zm6.1 0c.74 0 1.69.37 2.07.56v1.5a4.97 4.97 0 00-1.95-.64c-.7 0-.9.2-.9.52s.31.53.9.72c.59.2 2.28.63 2.23 2.26-.05 1.62-1.38 2.05-2.58 2.08a5.17 5.17 0 01-2.42-.68v-1.65c1.36.87 2.1.83 2.25.83.52 0 .95-.06.95-.47s-.62-.66-.95-.74c-.84-.22-2.34-.99-2.25-2.35.13-1.7 1.7-1.94 2.64-1.94zM19 31v-7h2v2.5h3V24h2v7h-2v-3h-3v3h-2zm19 0v-7h2v3.15L42.55 24h2.22L42 27.23l2.13 2.3 4.4-5.53H51v7h-2v-4.84L45.2 31h-2.3L40 27.73V31h-2z" fill="#fff"/><path d="M27.81 26.36A4.99 4.99 0 0132.67 22v2.09c-1 0-3.03.67-3.05 3.38l-1.04-.64c.01 1 .7 2.99 3.41 3.02l-1.13 1.79a4.98 4.98 0 01-4.38-4.83h2.08l-.75-.45zm5.36-3.05a4.98 4.98 0 014.35 4.85l-2.1-.02c0-1-.66-3-3.4-3.05l1.15-1.78zM31.35 33a5 5 0 004.88-4.35l-1.8-1.12c-.05 2.7-2.07 3.37-3.07 3.37l-.01 2.1z" fill="#D86904"/><defs><linearGradient id="av5gbicng" x1="10.42" y1="9.71" x2="68.15" y2="76.02" gradientUnits="userSpaceOnUse"><stop stop-color="#1A1E21"/><stop offset="1" stop-color="#06060A"/></linearGradient></defs></svg>