<svg width="56" height="56" xmlns="http://www.w3.org/2000/svg"><path fill="#F0F3FA" d="M0 0h56v56H0z"/><path d="M16.779 21c-3.668-.118-6.583 1.93-7.47 2.867 2.928-2.277 7.47-1.217 9.278.09l12.831 8.43C34.317 34.755 38.03 35 40.07 35c3.105 0 5.606-1.782 6.382-2.718-4.614 1.745-8.267.106-10.08-1.077l-11.905-7.728c-2.9-2.19-6.283-2.502-7.688-2.477z" fill="url(#paint0_linear)"/><path d="M16.168 15c-3.306-.066-5.888 1.111-6.773 1.686.285 1.805.79 2.625 1.128 3.011.27.309.765.129.98 0 3.985-2.365 9.415-.639 11.632.52-1.576-3.963-5.307-5.144-6.967-5.217z" fill="url(#paint1_linear)"/><path d="M27.585 25.86C27.955 18.878 20.648 14.773 16 15c3.41.253 9.378 4.382 7.425 10.86a10.229 10.229 0 01-9.453 7.52c-1.393 0-3.681-1.24-4.273-1.512 2.069 2.3 5.153 3.132 8.066 3.132 7.5-.641 9.671-6.335 9.82-9.14z" fill="url(#paint2_linear)"/><path d="M8 27.491c0-5.16 4.973-5.467 7.296-4.804-.534 0-2.62 2.283-2.67 4.804-.07 3.559 2.473 5.141 3.768 5.497C15.204 33.646 8 34.312 8 27.491z" fill="url(#paint3_linear)"/><path d="M43.455 27.383c-.266-4.018-3.369-5.377-4.831-5.508 1.023-.477 1.947-.605 4.343-.411 2.995.242 4.906 3.226 5.027 5.919.097 2.154-.989 4.166-1.543 4.902-2.493 1.307-5.275.853-6.354.52 2.71-1.21 3.368-4.08 3.358-5.422z" fill="url(#paint4_linear)"/><path d="M28 28.863V41.25c0 2.278 2.718 2.787 4 2.75V30c.222-3.143 3.115-7.3 7.478-8.372 3.057-.751 5.844.55 6.534 1.265-2.603-2.662-5.44-3.57-7.79-3.41-7.396.503-10.517 6.305-10.222 9.38z" fill="url(#paint5_linear)"/><defs><linearGradient id="paint0_linear" x1="9.565" y1="22.773" x2="46.319" y2="32.279" gradientUnits="userSpaceOnUse"><stop offset=".091" stop-color="#F6BF42"/><stop offset=".5" stop-color="#ED4235"/><stop offset=".841" stop-color="#F9883E"/></linearGradient><linearGradient id="paint1_linear" x1="8.738" y1="19.103" x2="21.629" y2="14.308" gradientUnits="userSpaceOnUse"><stop offset=".336" stop-color="#5D3E8B"/><stop offset=".487" stop-color="#A28EBF"/><stop offset=".621" stop-color="#5C358D"/></linearGradient><linearGradient id="paint2_linear" x1="19.755" y1="-5.068" x2="18.778" y2="35.076" gradientUnits="userSpaceOnUse"><stop offset=".16" stop-color="#E93E32"/><stop offset=".606" stop-color="#FCB53D"/><stop offset=".898" stop-color="#EF4138"/></linearGradient><linearGradient id="paint3_linear" x1="12.211" y1="22.43" x2="12.211" y2="33.458" gradientUnits="userSpaceOnUse"><stop offset=".117" stop-color="#231044"/><stop offset=".476" stop-color="#9F8AC2"/><stop offset=".915" stop-color="#351561"/></linearGradient><linearGradient id="paint4_linear" x1="43.367" y1="21.416" x2="43.367" y2="33.223" gradientUnits="userSpaceOnUse"><stop offset=".075" stop-color="#221148"/><stop offset=".484" stop-color="#A590C9"/><stop offset=".9" stop-color="#351561"/></linearGradient><linearGradient id="paint5_linear" x1="37.167" y1="19.921" x2="31.624" y2="44" gradientUnits="userSpaceOnUse"><stop offset=".079" stop-color="#F14137"/><stop offset=".448" stop-color="#FCB53F"/><stop offset=".915" stop-color="#EF423B"/></linearGradient></defs></svg>