<svg width="56" height="56" viewBox="0 0 56 56" xmlns="http://www.w3.org/2000/svg"><path fill="#F0F3FA" d="M0 0h56v56H0z"/><path d="M28.84 23c-3.05 0-6.35-.67-7.62-1 .52 1 4.57 2 7.62 2s6.46-1 6.99-2c-1.06.33-3.94 1-6.99 1ZM28.52 27c-3.65 0-8.48-.67-10.43-1 1.74.67 6.26 2 10.43 2 4.18 0 8.7-1.33 10.44-2-1.96.33-6.79 1-10.44 1ZM27.88 30.5c-5.1 0-9.35-1-10.84-1.5 1.5 1 5.74 3 10.84 3s10.2-2 12.12-3a54.1 54.1 0 0 1-12.12 1.5ZM28 35.5c-3.54 0-9.47-1-12-1.5 2.32 1 7.96 3 12 3s9.68-2 12-3c-2.53.5-8.46 1.5-12 1.5ZM28 40.8c-3.7 0-8.15-1.2-9.91-1.8 1.98 1 6.74 3 9.91 3s7.93-2 9.91-3c-1.76.6-6.2 1.8-9.91 1.8ZM28 43.67c-2.15 0-4.02-.45-4.7-.67.68.67 2.55 2 4.7 2a7.33 7.33 0 0 0 4.7-2c-.67.22-2.55.67-4.7.67Z" fill="#0050A6"/><path fill-rule="evenodd" d="M29.12 9.2a.31.31 0 0 0-.32-.2.3.3 0 0 0-.27.26c-.48 4.16-4.4 9.74-7.31 12.78l.45.4c.52-.55 1.16-1.3 1.85-2.18 1.2.37 3.02.88 5 1.31V24h.62v-2.3c2.2.47 4.56.54 6.47.54l.22-.21a12.75 12.75 0 0 1-1.88-2.52c-.65-1.06-1.3-2.3-1.91-3.57-1.23-2.54-2.3-5.18-2.92-6.75Zm5.78 12.73c-.49-.58-.99-1.3-1.48-2.12-.27-.45-.54-.92-.8-1.4-.8.24-2.06.6-3.48.93v1.76c1.95.42 4 .75 5.76.83Zm-6.37-.96v-1.5c-1.17.26-2.4.48-3.55.6 1.02.3 2.25.61 3.55.9Zm.61-2.24c.8-.18 1.55-.38 2.19-.56-.73-.16-1.48-.35-2.19-.54v1.1Zm-.61-1.26v1.4c-1.49.33-3.1.61-4.48.7A43.3 43.3 0 0 0 26 16.73c.63.19 1.53.46 2.54.73Zm.61-.45c1.02.27 2.12.54 3.14.75a57.29 57.29 0 0 1-1.1-2.22c-.47.2-1.18.45-2.04.67v.8Zm-.61-.67v.5l-1.13-.3c.39-.06.77-.12 1.13-.2Zm.61-.74c.4-.1.75-.21 1.05-.31a6.05 6.05 0 0 1-1.05-.44v.75Zm-.61-1.1v1.24c-.65.14-1.36.25-2.1.29.42-.72.83-1.46 1.2-2.2.24.2.54.44.9.66Zm.61-.33.14.08c.5.28 1.04.5 1.57.58-.65-1.42-1.24-2.8-1.7-3.95v3.3Zm-.61-.4a7.1 7.1 0 0 1-.63-.5c.23-.52.45-1.02.63-1.52v2.02Z" fill="#213664"/></svg>