<svg width="56" height="56" viewBox="0 0 56 56" xmlns="http://www.w3.org/2000/svg"><path fill="#F0F3FA" d="M0 0h56v56H0z"/><path d="M45.1 34.83c-.03-.5-.07-.9-.1-1.2.23.12.43.2.61.25a2 2 0 0 0 .47.06c.18 0 .32-.02.43-.08a.3.3 0 0 0 .16-.27.4.4 0 0 0-.08-.24.86.86 0 0 0-.12-.15l-.58-.58a7.3 7.3 0 0 1-.28-.28c-.1-.12-.2-.24-.25-.34-.06-.1-.1-.2-.14-.31a1.42 1.42 0 0 1 .23-1.15 1.4 1.4 0 0 1 .82-.49c.16-.03.33-.05.5-.05.35 0 .73.05 1.14.14a20.06 20.06 0 0 0 .08 1.16 2.47 2.47 0 0 0-.92-.24c-.16 0-.3.04-.4.1-.1.07-.16.16-.16.26 0 .05.01.1.03.14.01.04.05.1.09.15.05.06.1.13.18.2l.35.32.22.2a3 3 0 0 1 .4.48 1.4 1.4 0 0 1 .2.45l.02.23c0 .21-.04.41-.13.6-.09.2-.21.35-.38.48-.16.12-.34.2-.53.26-.2.05-.4.07-.61.07a6.1 6.1 0 0 1-1.26-.17ZM44.92 33.73a16.24 16.24 0 0 0-.17 1.16c-.46.07-.87.11-1.24.11-.35 0-.67-.05-.98-.14a2.4 2.4 0 0 1-.83-.47 1.87 1.87 0 0 1-.54-.77c-.1-.3-.16-.62-.16-.99 0-.42.07-.8.22-1.14.14-.35.35-.63.63-.85.27-.23.57-.4.9-.5.33-.1.66-.14 1.01-.14.32 0 .72.04 1.2.13v.3c0 .13 0 .27.02.43l.02.4a6.18 6.18 0 0 0-1.05-.17c-.3 0-.56.06-.8.2-.22.12-.4.3-.54.54a1.63 1.63 0 0 0-.04 1.5c.12.2.27.34.46.45.2.1.43.15.71.15a3.52 3.52 0 0 0 1.18-.2ZM39 35c.15-1.96.23-3.47.23-4.53V30A107.58 107.58 0 0 0 41 30a58.03 58.03 0 0 0-.22 5H39ZM34 35l.07-.77.13-2.6.03-1.06V30a65.25 65.25 0 0 0 1.72 0l1.43 2.84.2.42a69.41 69.41 0 0 0 .1-3.26A38.52 38.52 0 0 0 39 30l-.08 1.1-.15 3.02-.02.88a48.1 48.1 0 0 0-1.68 0l-.26-.52-.56-1.04a33.71 33.71 0 0 1-.83-1.64l-.07 1.74-.03 1.46A38.34 38.34 0 0 0 34 35ZM31.6 30c.32 0 .64.05.94.15a2.14 2.14 0 0 1 1.3 1.25c.1.3.16.63.16 1 0 .4-.06.76-.19 1.1-.12.32-.3.6-.53.83-.23.23-.5.4-.83.51a3.18 3.18 0 0 1-1.99 0 2.1 2.1 0 0 1-1.31-1.29c-.1-.28-.15-.6-.15-.95 0-.52.1-.97.3-1.36.22-.39.52-.7.93-.91.4-.22.86-.33 1.37-.33Zm-.06 1.06c-.23 0-.44.07-.63.2-.2.13-.34.32-.44.56a1.9 1.9 0 0 0-.01 1.44c.1.2.23.37.42.49.19.11.39.17.6.17.23 0 .43-.06.62-.2.19-.13.33-.3.43-.54a1.9 1.9 0 0 0 .01-1.44 1.05 1.05 0 0 0-1-.67ZM25 35a45.69 45.69 0 0 0 .2-4.98 23.4 23.4 0 0 0 1.94-.02c.26 0 .5.01.71.04.16.01.3.05.42.1a1.14 1.14 0 0 1 .55.45 1.6 1.6 0 0 1 .18.74c0 .17-.02.32-.05.47-.04.14-.1.27-.17.4-.08.12-.17.23-.29.32-.11.1-.27.19-.48.28l.16.46.15.4.41 1.07c.02.04.06.13.1.27a59.35 59.35 0 0 0-1.42 0 106.66 106.66 0 0 1-.27-1.04l-.23-.72-.32-1.03.33.03c.16 0 .3-.02.42-.08a.57.57 0 0 0 .28-.25.7.7 0 0 0 .1-.35c0-.1-.03-.2-.08-.27a.43.43 0 0 0-.23-.18c-.1-.04-.26-.06-.47-.06h-.23l-.27.01a74.45 74.45 0 0 0-.11 3.94A62.17 62.17 0 0 0 25 35ZM22.13 35c.1-1.19.17-2.5.2-3.92l-1.33.04.02-.4.01-.72H25l-.02.36a46.05 46.05 0 0 0-.02.75c-.44-.02-.8-.04-1.1-.04h-.21a45.84 45.84 0 0 0-.13 2.73l-.01 1.2a59.58 59.58 0 0 0-1.38 0ZM17 35a45.69 45.69 0 0 0 .2-4.98 23.4 23.4 0 0 0 1.94-.02c.26 0 .5.01.71.04.16.01.3.05.42.1a1.14 1.14 0 0 1 .55.45 1.6 1.6 0 0 1 .18.74c0 .17-.02.32-.05.47-.04.14-.1.27-.17.4-.08.12-.17.23-.29.32-.11.1-.27.19-.48.28l.16.46.15.4.41 1.07c.02.04.06.13.1.27a59.35 59.35 0 0 0-1.42 0 106.66 106.66 0 0 1-.27-1.04l-.23-.72-.32-1.03.33.03c.16 0 .3-.02.42-.08a.57.57 0 0 0 .28-.25.7.7 0 0 0 .1-.35c0-.1-.03-.2-.08-.27a.43.43 0 0 0-.23-.18c-.1-.04-.26-.06-.47-.06h-.23l-.27.01a74.45 74.45 0 0 0-.11 3.94A62.17 62.17 0 0 0 17 35Z" fill="#F01112"/><path d="m12 35 .24-.53 1.48-3.57.16-.4.2-.5a56.57 56.57 0 0 0 1.48 0l.42 1.53.85 2.94.17.53a62.1 62.1 0 0 0-1.31 0c-.09-.4-.2-.88-.37-1.42h-1.44c-.17.43-.34.9-.52 1.42A70.46 70.46 0 0 0 12 35Zm2.22-2.49h.9l-.37-1.42-.32.88-.2.54ZM8 35a38.69 38.69 0 0 0 .15-2.98 61.49 61.49 0 0 0 .03-2 27.34 27.34 0 0 0 2.27-.02c.27 0 .45 0 .57.03.15.02.27.06.38.11.12.06.21.13.29.21.08.1.14.21.19.35a1.54 1.54 0 0 1 .03.9 1.25 1.25 0 0 1-.32.58 1 1 0 0 1-.2.15c-.07.04-.16.08-.27.11l.27.08a.91.91 0 0 1 .43.37 1.46 1.46 0 0 1 .18.7c0 .2-.03.37-.08.53-.05.16-.13.3-.22.42-.08.1-.19.19-.32.26s-.26.11-.4.14a27.83 27.83 0 0 1-1.53.06H8Zm1.42-3.04h.77a.94.94 0 0 0 .18-.06.43.43 0 0 0 .25-.28.66.66 0 0 0 .02-.19.5.5 0 0 0-.05-.24.33.33 0 0 0-.18-.15c-.08-.04-.21-.06-.38-.06h-.57l-.04.98ZM9.35 34h.6c.17 0 .29-.01.36-.03.1-.03.17-.06.22-.1.05-.05.08-.11.11-.19a.68.68 0 0 0 .01-.46.39.39 0 0 0-.28-.24 1.26 1.26 0 0 0-.31-.03h-.68L9.35 34Z" fill="#F01112"/><path d="M6 20h.5v16H6V20ZM8 20h.5v9H8v-9ZM14 20h.5v9H14v-9ZM15 20h.5v9H15v-9ZM19 20h.5v9H19v-9ZM20 20h.5v9H20v-9ZM24 20h.5v9H24v-9ZM27 20h.5v9H27v-9ZM32 20h.5v9H32v-9ZM33 20h.5v9H33v-9ZM36 20h.5v9H36v-9ZM38 20h.5v9H38v-9ZM42 20h.5v9H42v-9ZM44 20h.5v9H44v-9ZM49.53 20H50v16h-.47V20ZM10 20h1v9h-1zM12 20h1v9h-1zM17 20h1v9h-1zM22 20h1v9h-1zM25 20h1v9h-1zM29 20h1v9h-1zM34 20h1v9h-1zM40 20h1v9h-1zM46 20h1v9h-1zM48 20h1v9h-1z" fill="#0F0E0A"/></svg>