<svg xmlns="http://www.w3.org/2000/svg" width="56" height="56"><path fill="#F0F3FA" d="M0 0h56v56H0z"/><path d="M13.06 33.07l-.33-1.09-.7-.1-.13-.41 3.1.45-2.36 2.02-.12-.42.54-.45zm.32-.26l.75-.64-.98-.14.23.78zm2.22 2.04l-.32-.21c.06-.08.1-.16.11-.25 0-.08 0-.16-.05-.23a.41.41 0 00-.2-.2.3.3 0 00-.26 0c-.12.05-.17.18-.16.4l.01.28c.03.19 0 .38-.08.56a.72.72 0 01-.35.34.81.81 0 01-.66.04.83.83 0 01-.48-.44.82.82 0 01-.06-.6c.07-.22.21-.4.4-.51l.26.33a.69.69 0 00-.25.23.41.41 0 000 .4.43.43 0 00.59.2.45.45 0 00.12-.09.35.35 0 00.07-.1c.02-.05.04-.1.04-.16v-.47a.74.74 0 01.36-.79.64.64 0 01.56 0c.19.08.34.23.43.42a.79.79 0 01-.09.85zm.68 1.04l-1.92 1.25-.22-.34 1.92-1.25-.33-.5.31-.21.89 1.36-.32.2-.33-.51zm1.44 1.84l-.68-.81-.5.41.68.8-.3.23-.66-.79-.68.58.69.81-.29.25-.95-1.13 2.04-1.72.94 1.13-.29.24zm.21 1.77l-.14 1.4-.37-.34.16-1.32-.05-.04-.73.8-.3-.26 1.78-1.98.35.31c.21.17.37.4.43.66a.74.74 0 01-.2.6.72.72 0 01-.93.16zm-.17-.57l.1.09c.28.25.52.27.72.06.18-.2.13-.43-.14-.68l-.11-.1-.57.63zm1.54 3.03l1.27-2.34.5.27c.18.1.36.22.51.37.12.13.22.28.27.45a1.37 1.37 0 01-.97 1.73c-.17.04-.35.05-.52.02a2.1 2.1 0 01-.59-.24l-.48-.26zm.53-.14l.16.09c.13.07.27.13.42.16a.98.98 0 001.06-1.25c-.11-.26-.31-.47-.57-.59l-.16-.08-.91 1.67zm1.93 1.45l1.38-2.57.26 2.24 1.51-1.7-.36 2.89-.4-.13.23-1.6-1.26 1.41-.22-1.88-.75 1.46-.4-.12zm5.3-.48l1.15.03.02-1.04h.4l-.07 2.67-.4-.01.03-1.24-1.14-.03-.03 1.24-.4-.01.06-2.66h.4l-.02 1.05zm3.55-.86l-1.06.13.09.64 1.02-.13.05.37-1.03.13.11.88 1.06-.13.05.37-1.46.19-.33-2.64 1.46-.19.04.38zM32.98 43l-1.1.31-.1.7-.41.13.47-3.09 2.01 2.37-.42.12-.45-.54zm-.26-.32l-.63-.75-.15.98.78-.23zm.9-2.1l.94 2.08.72-.32.15.34-1.08.5-1.1-2.44.37-.16zm1.62-.41l1.14 1.98-.34.2-1.15-1.98-.52.3-.2-.33 1.42-.81.18.33-.53.3zm1.47-.17l.91-.71-.64-.82.31-.25 1.65 2.1-.32.25-.77-.98-.9.7.77.99-.31.24-1.65-2.09.31-.25.64.82zm2.33-3.45l.35.32c-.26.02-.51.14-.7.34a.92.92 0 00-.24.7 1 1 0 00.34.7.98.98 0 001.63-.56l.02-.24.36.33a1.44 1.44 0 01-.77 1 1.37 1.37 0 01-1.95-1.08 1.34 1.34 0 01.35-1.13c.17-.18.38-.31.61-.38zm2.66-.66l-.6.97.39.6-.23.36-1.7-2.62 3.08.43-.24.37-.7-.11zm-.4-.06l-.98-.15.54.83.44-.68zm.87-2.01l1.36-.31-.19.45-1.3.27-.03.07 1 .43-.15.37-2.45-1.04.18-.44c.08-.25.25-.48.48-.62a.74.74 0 01.64-.01.734.734 0 01.46.83zm-.48.34l.05-.12c.15-.35.09-.58-.18-.7-.25-.1-.45.02-.59.36l-.06.13.78.33zm.2-3.26l-.28 1.03.62.17.27-1 .36.1-.27 1 .86.22.28-1.03.36.1-.37 1.42-2.57-.7.37-1.41.37.1z" fill="#231F20"/><path d="M15 28.1a12.84 12.84 0 018.03-11.92 13.09 13.09 0 0114.16 2.8 12.87 12.87 0 012.82 14.05 13.07 13.07 0 01-24.02 0A12.82 12.82 0 0115 28.1z" fill="#00B48D"/><path d="M15 28a13.03 13.03 0 017.98-12c1.57-.66 3.26-1 4.95-1 5.91 0 10.89 3.67 12.44 9.1-.26.21-.33.33-.66.4-.99 0-2.47 1.26-2.47 1.26l-2.48 2.93-4.66 4.72s-.43.09-.47-.71c-.05-.8-.67-3.6-.67-3.6a5.75 5.75 0 01-1.12 1.8c-.85.94-4.7 3.12-7.06 3.3a5.33 5.33 0 01-3.74-1.02 5.77 5.77 0 00-1.6-1.82c-.3-1.1-.44-2.23-.44-3.37z" fill="#164D92"/><path d="M29.9 24.37s-.14-.13-.34.57c-.15.87-.23 1.76-.23 2.65.57-.87.96-1.86 1.13-2.89 0-.56-.57-.33-.57-.33zm-3.15 3.77l-.02.04c.13-.03.26-.01.38.04.2.13.27.49.2.55-.17.12-1.84 1.15-2.23 1-.4-.16-1.95-1.7-2.91-2.34-.96-.62-5.64-2.13-5.84 1.78-.2 3.9 3.86 5.06 6.43 4.18 2.6-.86 5.45-4.26 5.45-4.26-.03-2.96.24-3.75.8-4.88.6-1.2 2.5-1.28 2.2.73a9.53 9.53 0 01-1.92 3.92c.38 1.26.65 2.55.8 3.86 0 0 4.48-5.2 6.43-7.18C38.44 23.64 40 24.3 40 24.3c-.44.2-.56 1.67-.64 1.9-.07.23-.6 0-.6 0l.08-.5c-.83-1.23-2.5.93-3.38 2.75-.87 1.82-1.27 5.49-1.27 5.49l1.2.08v.63c-.85.13-1.67.38-2.43.76-.03-.45-.01-.9.04-1.35.08-1.1.95-4.59.95-4.59S32.5 31 31.99 31.66c-.5.67-2.98 3.47-2.98 3.47l-.4-.39c.18-.77.27-1.55.28-2.33-.08-.63-.4-2.13-.4-2.13l-.99.99a15.88 15.88 0 01-3.93 2.8c-7.67 2.37-9.32-4.45-7.28-6.95 2.02-2.47 4.9-1.5 5.64-1.19.88.38 3.82 2.73 4.18 2.77.3.03.55-.4.62-.52-.01 0-.01-.02.02-.04z" fill="#F0F3FA"/><path fill-rule="evenodd" d="M28 45.1a17 17 0 100-34 17 17 0 000 34zm0 1a18 18 0 100-36 18 18 0 000 36z"/></svg>