<svg width="56" height="56" viewBox="0 0 56 56" xmlns="http://www.w3.org/2000/svg"><path fill="#F0F3FA" d="M0 0h56v56H0z"/><path fill-rule="evenodd" d="M30.7 10c2.08.17 4.08.79 6 1.85a10.3 10.3 0 0 1 3.88 3.65 9.65 9.65 0 0 1 1.4 4.12c.09.9-.08 2.3-.5 4.19-.59 2.62-1.2 5.55-1.82 8.79-.11.56-.25 1.43-.42 2.58a12.8 12.8 0 0 1-2.25 5.48 11.5 11.5 0 0 1-4.17 3.71c-1.41.73-2.68 1.2-3.81 1.4-1.28.22-2.6.28-3.97.2-2.9-.2-6.09-1.92-7.64-4.28a9.47 9.47 0 0 1-1.47-7.59c.2-.85.76-2.08 1.68-3.67L23.07 21c.1-.18.05-.24-.15-.2-.7.18-1.27.32-1.67.44a14.3 14.3 0 0 0-7.75 5.27c-.26.35-.59.47-.98.36l-.03-.01c-.48-.26-.6-.58-.38-.97 3.4-5.91 5.35-9.27 5.83-10.07a10.55 10.55 0 0 1 3-3.21A14.33 14.33 0 0 1 27.97 10h2.74ZM16.39 21.52c.6-.96 1.36-2.24 2.26-3.83a12.72 12.72 0 0 1 2.12-2.97 11.68 11.68 0 0 1 5.08-2.91c4.07-1.04 7.7-.44 10.9 1.82a7.97 7.97 0 0 1 3.57 6.49c.04.86-.14 2.17-.52 3.92-.35 1.55-.61 2.84-.8 3.89-.02.15-.06.16-.12 0a15.12 15.12 0 0 0-3-4.81 11.46 11.46 0 0 0-7.16-3.74 21.52 21.52 0 0 0-5.2-.01 16.3 16.3 0 0 0-7.08 2.5.11.11 0 0 1-.12-.09.36.36 0 0 1 .07-.26Zm15.73 9.15a.71.71 0 0 1-.29.45c-.34.25-.7.23-1.08-.07-1.72-1.35-3.26-2.23-5.36-2.44a7.2 7.2 0 0 0-6.51 2.93 8.62 8.62 0 0 0-1.36 2.9 8.28 8.28 0 0 0 4.76 9.4c1.68.74 3.5.99 5.44.74 5.5-.69 9.06-4.64 10-9.83.25-1.35.3-2.7.16-4.04a12.14 12.14 0 0 0-4.06-7.48.15.15 0 0 0-.13.02.14.14 0 0 0-.04.05c-.09.2-.16.4-.2.64-.78 3.89-1.22 6.13-1.33 6.73Z" fill="#0F0F0F"/><path d="M30.6 29.12A10.07 10.07 0 0 0 20.97 28c-.12.05-.15.01-.08-.1l3.95-6.84a.27.27 0 0 1 .2-.14c2.41-.32 4.67 0 6.8.94.1.05.18.13.24.23.05.1.07.21.04.32l-1.3 6.63-.03.07a.15.15 0 0 1-.14.05.16.16 0 0 1-.07-.03Z" fill="#E5322D"/></svg>