<svg width="56" height="56" viewBox="0 0 56 56" xmlns="http://www.w3.org/2000/svg"><path fill="#F0F3FA" d="M0 0h56v56H0z"/><path d="M26.37 25.74c-.04-.07-.05-.12-.04-.16.01-.06.05-.06.1-.02l.05.05c.07.05.1.03.1-.05v-.33a.32.32 0 0 0-.08-.2c-.22-.27-.28-.61-.53-.87a7.44 7.44 0 0 0-1.96-1.5c-.56-.3-1-.49-1.35-.55a13.2 13.2 0 0 0-2.67-.12c-.95.03-1.8.23-2.57.58a11.46 11.46 0 0 0-4.56 3.69.15.15 0 0 1-.08.01.15.15 0 0 1-.13-.09c-.02-.05-.02-.12.01-.2.19-.46.34-.91.45-1.37.01-.07-.01-.1-.09-.1-.05.02-.1.01-.15 0 .02-.1.11-.25.28-.44a12.08 12.08 0 0 1 3.18-2.65c.9-.53 1.84-.88 2.8-1.06a7.32 7.32 0 0 1 8.6 4.9c.15.47.23.98.24 1.52l.05 1.54c0 .02 0 .04-.04.04h-.02c-.01 0-.02 0-.02-.02a6.1 6.1 0 0 0-1.57-2.6Z" fill="#9DD0E6"/><path d="M24 22.67c-.55-.31-1-.5-1.34-.56-.74-.12-1.63-.17-2.67-.12-.95.03-1.8.23-2.57.58a11.46 11.46 0 0 0-4.56 3.69.15.15 0 0 1-.08.01.15.15 0 0 1-.13-.09c-.02-.05-.02-.12.01-.2.19-.46.34-.91.45-1.37.01-.07-.01-.1-.09-.1-.05.02-.1.01-.15 0a9.3 9.3 0 0 0-1.8 4.8l1.04 2.44c2.1 3.73 3.58 4 7 3.76-1.92-3.14-1.2-8.46 2.63-10.1.7-.3 1.3-.46 1.84-.48.97-.02 1.9.24 2.8.81-.05-.07-.06-.12-.05-.16.01-.06.05-.06.1-.02l.05.05c.07.05.1.03.1-.05v-.33a.32.32 0 0 0-.08-.2 2 2 0 0 1-.24-.4c-.08-.17-.16-.33-.29-.47a7.45 7.45 0 0 0-1.96-1.5Z" fill="url(#a)"/><path d="M35.99 41.57c-5.28 3.65-12.4 4.73-18.12 1.54-1.8-1-3.28-2.4-4.47-4.2a14.79 14.79 0 0 1-2.34-9.6l1.05 2.44c-.35.89-.3 1.75.1 2.58a15.5 15.5 0 0 0 2.54 3.59c.38.4.76.68 1.25 1.03l.36.26c.49.36.92.64 1.32.84a13.06 13.06 0 0 0 8.17 1.32c5.25-.83 11.42-4.16 13.32-11.92.15-.5.27-1.08.35-1.74.43-3.4-.24-6.4-2-9.02a11.5 11.5 0 0 0-3.45-3.39 12.61 12.61 0 0 0-8.87-1.73c-1.9.27-3.45.7-4.63 1.31a20.12 20.12 0 0 1-2.78 1.25 20.19 20.19 0 0 1 5.54-3.6c9.86-4.25 20.36.64 21.58 11.34.16 1.35.1 2.78-.17 4.3-.99 5.53-3.9 10-8.75 13.4Z" fill="url(#b)"/><path d="M39.17 29.45c-1.9 7.74-8.08 11.1-13.32 11.92-2.85.45-5.57 0-8.18-1.32a9.9 9.9 0 0 1-1.67-1.1c-.49-.35-.87-.63-1.25-1.03a15.5 15.5 0 0 1-2.53-3.6 3.07 3.07 0 0 1-.12-2.57c2.4 4.22 12.75 6.71 17.47-3.22.16-.44.3-.86.43-1.28a8.64 8.64 0 0 0-1.4-8.11c-1.96-2.38-5.05-3.3-8.15-2.73a10.3 10.3 0 0 0-4.8 2.19c-.55.46-.6.41-.17-.15.63-.8 1.4-1.57 2.3-2.32.63-.2 1.56-.62 2.8-1.25 1.17-.6 2.71-1.04 4.62-1.3a12.61 12.61 0 0 1 8.87 1.73 11.5 11.5 0 0 1 3.45 3.38 12.77 12.77 0 0 1 2 9.02c-.08.66-.2 1.24-.35 1.74Z" fill="url(#c)"/><defs><linearGradient id="a" x1="12.93" y1="27.39" x2="18.56" y2="35.4" gradientUnits="userSpaceOnUse"><stop stop-color="#5196C4"/><stop offset="1" stop-color="#A7CFE4"/></linearGradient><linearGradient id="b" x1="43.87" y1="28.86" x2="12.57" y2="27.94" gradientUnits="userSpaceOnUse"><stop stop-color="#0F335C"/><stop offset="1" stop-color="#1266A0"/></linearGradient><linearGradient id="c" x1="25.76" y1="13.38" x2="20.01" y2="40.47" gradientUnits="userSpaceOnUse"><stop stop-color="#52B3DB"/><stop offset="1" stop-color="#173D6D"/></linearGradient></defs></svg>