<svg width="56" height="56" viewBox="0 0 56 56" xmlns="http://www.w3.org/2000/svg"><path fill="#EC1C25" d="M0 0h56v56H0z"/><path d="M12.97 21h-.94a.03.03 0 0 0-.03.03v10.94c0 .02.01.03.03.03h.94c.02 0 .03-.01.03-.03V21.03a.03.03 0 0 0-.03-.03ZM14.97 21h-.94c-.02 0-.03.01-.03.03v10.94c0 .02.01.03.03.03h.94c.02 0 .03-.01.03-.03V21.03c0-.02-.01-.03-.03-.03ZM43.33 27.66c.28-.92.59-1.8 1.2-2.55a4.19 4.19 0 0 1 7.35 1.7 4.26 4.26 0 0 1-4.3 5.28 4.17 4.17 0 0 1-2.77-1.23l-.02.01-.61.62c-.04.04-.06.03-.06-.02v-2.03c0-.03.01-.04.04-.04h2.03a.02.02 0 0 1 .02.01v.02l-.68.7a.05.05 0 0 0-.01.05v.02a3.17 3.17 0 0 0 3.7.58c.51-.25.92-.6 1.23-1.07a3.32 3.32 0 0 0-1.65-5.05c-1.67-.56-3.32.3-4.06 1.88-.2.42-.38.9-.54 1.42-.28.92-.58 1.8-1.18 2.55a4.19 4.19 0 0 1-7.36-1.7 4.26 4.26 0 0 1 4.3-5.28 4.17 4.17 0 0 1 2.77 1.23l.02-.01.61-.62c.04-.04.06-.03.06.02v2.03c0 .03-.02.04-.04.04H41.34v-.01a.02.02 0 0 1 0-.02l.67-.7a.05.05 0 0 0 .02-.03.05.05 0 0 0-.02-.04 3.17 3.17 0 0 0-3.7-.58c-.5.25-.91.6-1.22 1.08a3.32 3.32 0 0 0 1.65 5.05c1.66.55 3.32-.3 4.06-1.89.2-.42.38-.9.53-1.42ZM21.95 26.78c-.1-.72-.46-1.36-1.32-1.63-1.76-.56-3.16.42-3.54 2.11-.15.63-.04 1.34.06 1.74.28 1.18 1.09 1.98 2.37 2a2.27 2.27 0 0 0 2.32-1.46c.07-.14.12-.24.18-.6 0-.03.02-.05.05-.05h.87c.04 0 .06.02.06.06a3.37 3.37 0 0 1-.99 2.15c-.91.9-2.37 1.09-3.6.73-2.08-.61-2.65-3.02-2.32-4.84.38-2.1 2.24-3.34 4.42-2.9 1.48.3 2.3 1.19 2.43 2.68a.03.03 0 0 1-.01.02h-.01l-.02.01h-.94l-.01-.02ZM33 25.15A3.55 3.55 0 0 1 35.96 24c.03 0 .04.01.04.04v.87c0 .03-.02.05-.05.04a2.47 2.47 0 0 0-2.02.55 2.6 2.6 0 0 0-.93 2.15v4.29c0 .03-.04.05-.07.05h-.88l-.04-.01-.01-.03v-7.92c0-.03.02-.04.05-.04h.88c.03 0 .07.01.07.04v1.1Z" fill="#fff"/><path fill-rule="evenodd" d="M9.46 30.88c.03-.03.04-.02.05.02.05.59.4 1.04 1.07 1.1.19.01.42-.01.7-.07.06-.01.1-.05.1-.12v-.65c0-.07-.04-.1-.1-.07l-.34.07c-.28.04-.44-.06-.48-.31l-.02-.32v-4.08c0-.5-.03-.83-.09-1.01-.4-1.28-1.98-1.5-3.17-1.43-1.1.07-2.07.48-2.52 1.44-.18.4-.27.83-.25 1.29 0 .02.01.04.04.04h.88c.03 0 .04-.02.04-.04 0-.76.3-1.3.9-1.63.56-.3 1.4-.35 2.04-.18.52.13.88.4 1.1.82.06.13.1.28.1.44 0 .45-.03.88-.6 1.01-.25.06-.43.1-.53.1l-1.87.17c-.4.05-.78.14-1.14.29-.98.4-1.43 1.13-1.36 2.2.06.94.54 1.56 1.43 1.85.33.12.73.18 1.2.19.43 0 .84-.04 1.22-.14.62-.16 1.16-.49 1.6-.98Zm-4.5-1.2c-.04 1.22 1.17 1.6 2.25 1.47 1.3-.16 2.04-.85 2.26-2.08a8.2 8.2 0 0 0 0-1.14c0-.03-.01-.04-.04-.03-.35.12-.7.2-1.07.22l-1.53.14c-.9.1-1.84.4-1.87 1.42ZM27.99 31.83a3.15 3.15 0 0 0 1.5-.96h.02l.01.01v.01c.1 1.02.93 1.26 1.86 1.02l.01-.02v-.8a.02.02 0 0 0-.02-.01c-.2.06-.42.08-.64.08a.13.13 0 0 1-.08-.03c-.14-.12-.16-.31-.17-.5v-.08a4.48 4.48 0 0 1-.03-.34v-4.03c0-.34-.03-.59-.08-.76-.44-1.36-2.29-1.53-3.53-1.37-1.12.13-2.04.73-2.32 1.8-.06.23-.1.53-.13.9 0 .02.02.03.04.03h.9c.03 0 .04-.01.04-.04 0-1.07.65-1.74 1.74-1.87.85-.11 1.76.04 2.24.76a1 1 0 0 1 .17.54c0 .37 0 .82-.4.97-.24.08-.49.14-.75.16l-1.83.18c-.38.03-.74.11-1.06.24-1.14.44-1.62 1.26-1.45 2.47.15 1.02.93 1.6 1.99 1.75.71.1 1.37.07 1.97-.11ZM25 29.41c-.25 1.4.97 1.86 2.2 1.73 1.13-.11 1.86-.66 2.19-1.65.14-.42.14-.82.13-1.26a17.01 17.01 0 0 1-.02-.35h-.01c-.25.1-.5.16-.77.2l-1.8.18c-.76.07-1.76.29-1.92 1.15Z" fill="#fff"/><path d="M35.35 33.96h.93c.03 0 .06.02.07.06.42 1.32 1.58 1.96 2.9 2.02.53.02 1.01-.01 1.45-.11a2.69 2.69 0 0 0 2.05-1.77c.08-.21.15-.48.2-.8.08-.58.04-1.37.05-1.83 0-.03.01-.06.03-.08l.88-1.07c.03-.04.09-.04.09.02v2.33c0 .94-.23 1.73-.61 2.38a3.98 3.98 0 0 1-3.29 1.88h-.95a4.43 4.43 0 0 1-1.68-.38 3.6 3.6 0 0 1-2.13-2.64h.01Z" fill="#fff"/></svg>