<svg width="56" height="56" viewBox="0 0 56 56" xmlns="http://www.w3.org/2000/svg"><path fill="#F0F3FA" d="M0 0h56v56H0z"/><path fill-rule="evenodd" d="m27.28 45.9 9.35-8.39c.12-.1.23-.1.34.02l3.57 3.79a.22.22 0 0 0 .38-.1c.04-.15.08-.36.08-.62V29.32c0-.28.26-.33.53-.32h5.3c.2 0 .22-.02.08-.16l-9.48-9.1c-.08-.08-.08-.16 0-.24l4-3.33c.13-.11.1-.17-.06-.17H29.08a.09.09 0 0 1-.06-.02l-.02-.03v-5.73c0-.25-.04-.29-.22-.12l-9.58 9.14a.41.41 0 0 1-.59-.02l-3.28-3.54a.22.22 0 0 0-.11-.06c-.18-.04-.22.08-.22.21v10.94c0 .16-.05.23-.2.23H9.25c-.29-.01-.33.12-.12.33l8.5 8.55a.18.18 0 0 1 .04.21.18.18 0 0 1-.04.06l-3.98 3.4c-.26.23-.21.44.12.45h13.04c.13 0 .2.06.19.2v5.57c0 .26.09.3.28.13Zm8.03-12.66a8.72 8.72 0 0 0-.15-9.75 8.85 8.85 0 0 0-12.22-2.29 8.7 8.7 0 0 0-3.59 9.04 8.82 8.82 0 0 0 15.96 3Z" fill="#F58220"/><path d="M34.26 33H21.63c-.03 0-.05-.1-.07-.12a.15.15 0 0 1-.07-.19l3.18-8.6a.15.15 0 0 1 .14-.09H31c.03 0 .06.06.08.08.03.02.05.04.06.07l3.26 8.65a.15.15 0 0 1-.07.18.15.15 0 0 1-.07.02Z" fill="#6D6F71"/><path d="M28 27.98c.63 0 1.14-.51 1.14-1.15 0-.64-.51-1.15-1.14-1.15-.63 0-1.14.51-1.14 1.15 0 .64.51 1.15 1.14 1.15ZM26.02 29h3.96c.06 0 .12.12.16.16.05.04.09.1.1.17l.55 2.2a.4.4 0 0 1-.04.3.3.3 0 0 1-.1.1c-.04.02-.08.07-.13.07h-5.25a.25.25 0 0 1-.13-.04.3.3 0 0 1-.1-.1.4.4 0 0 1-.03-.31l.74-2.33a.33.33 0 0 1 .1-.16c.06-.04.11-.06.17-.06Z" fill="#F58220"/></svg>