<svg xmlns="http://www.w3.org/2000/svg" width="56" height="56"><path fill="#F0F3FA" d="M0 0h56v56H0z"/><path d="M26 41.93C15.9 41.23 8 35.26 8 28c0-7.73 8.95-14 20-14s20 6.27 20 14c0 7.26-7.9 13.23-18 13.93v-1.02c8.45-.76 15-6.25 15-12.91 0-7.18-7.61-13-17-13s-17 5.82-17 13c0 6.66 6.55 12.15 15 12.91v1.02z" fill="#424497"/><path fill="#FF2C2C" d="M26.69 41.1h2.63v.65h-2.63z"/><path d="M22.6 18h4.94L33 23.65v4.94L22.6 18zM39 36h-4.44L27 28.5V24l12 12zm-16-9.68l3-3.64V29l4.18 4h-4.37L23 30.32v-4zM22.35 31l2.54 2.39L21.96 36H17l5.35-5z" fill="#424497"/></svg>