<svg width="56" height="56" xmlns="http://www.w3.org/2000/svg"><path fill="#F58220" d="M0 0h56v56H0z"/><path d="M41.029 26.812c.266-.79.531-1.514.664-1.844.332-.79.797-1.58 1.261-2.304.465-.659 1.063-1.515 1.86-2.305.53-.527 1.062-.922 1.327-.79.332.197-.465 1.514-.73 1.91-1.063 1.843-2.324 3.358-3.253 4.28-.2.197-.465.46-.863.79l-.2.197-.066.066zm-17.262.395C24.83 25.495 25.361 24.58 26.49 23h2.39l1.726-3h-2.522c.41-.61 1.261-1.131 1.261-1.946-.066-.988-1.859-1.185-2.39-.461-.662.657-1.12 1.671-1.726 2.407h-1.926l-1.792 3h2.021l-2.552 4.207c-1.726 3.161-5.643 4.017-3.386 0 .597-.988 1.394-2.483 1.726-3.207h-2.59c-1.194 1.844-2.854 6.039-5.178 5.907-1.128-.131-.996-1.185-.796-1.844.73-2.173 4.713-6.914 7.103-8.034.863-.395 1.063.396.598 1.713-.598 1.317-.797 1.778-.598 1.91.465.329 3.785-3.754 2.988-5.927-.73-2.437-7.104 1.646-10.623 6.65-1.062 1.45-1.66 2.767-2.058 4.347-.93 3.556 2.191 4.544 6.108 1.185-.53 3.293 3.519 2.24 6.108 0 .2 3.293 4.515 2.173 6.308 0 .398 3.161 4.979 2.24 6.639 0 0 1.712.863 2.107 2.058 2.042h.398c1.328-.198 2.59-.988 3.585-2.042.067.922.531 1.91 1.594 2.042 1.327.197 2.323-1.186 2.987-2.24.266-.46.465-.921-.398-.329-.598.396-1.46.857-2.058.593-.531-.263-.598-.856-.598-.988 1.925-1.514 2.656-2.107 4.648-4.28 1.66-1.778 2.456-4.017 2.456-5.86 0-1.384-.597-1.779-1.394-1.647-2.523.33-4.78 3.622-6.042 5.992-.73 1.383-1.328 3.425-1.328 5.07l-.597.462c-.996.724-1.992 1.317-2.656 1.251-2.124-.066.93-5.183 1.395-5.973h-2.39c-1.262 2.239-2.258 6.434-5.113 5.841-1.062-.329-.53-1.778.133-3.095L31.668 24h-2.59c-.53.856-1.66 3.01-2.257 3.8-1.991 3.095-4.98 2.568-3.054-.593z" fill="#fff"/><path d="M11.397 40.539c.405.307.675.461.944.461.338 0 .742-.23 1.35-.538 9.171-4.147 19.827-4.992 29.538-2.918 1.416.384 2.63.921 2.765.46.067-.307-.405-.537-2.428-1.612-6.542-3.38-20.03-2.689-29.066-.922-1.889.384-3.912.845-5.733 1.536-.742.307-1.146.538-.27 1.229.742.538 1.552 1.306 2.36 1.92.136.154.338.23.54.384z" fill="#009448"/></svg>