<svg width="56" height="56" viewBox="0 0 56 56" xmlns="http://www.w3.org/2000/svg"><path fill="#F0F3FA" d="M0 0h56v56H0z"/><path d="M21.08 12H22c1.07.06 2.05.14 2.94.25.13.01.23.08.3.2a.1.1 0 0 1 0 .06.57.57 0 0 1-.1.25A66.86 66.86 0 0 0 22 17.35c-.12.19-.36.25-.57.18-.99-.35-1.92-.65-2.8-.9a.15.15 0 0 1-.07-.05.14.14 0 0 1-.03-.1c0-.1.03-.2.07-.29a46.6 46.6 0 0 1 2.19-4.01c.05-.09.15-.15.3-.18Z" fill="#511A5D"/><path d="M25.94 19.57a61.1 61.1 0 0 0-2.22-1.11c-.34-.17-.22-.54-.05-.8a69.08 69.08 0 0 1 3.02-4.33c.21-.27.34-.43.4-.47.19-.13.4-.18.65-.14 2.34.38 4.69.98 7.04 1.79.46.16.53.57.16.86a42.97 42.97 0 0 0-5.6 5.33c-.2.23-.4.36-.74.3a1.64 1.64 0 0 1-.58-.26c-.4-.25-1.08-.65-2.08-1.17Z" fill="#E82C2A"/><path d="M38.6 15.97a32.6 32.6 0 0 1 7.3 4.25c.1.13.13.27.06.41-.04.1-.14.17-.28.24-3.04 1.45-5.9 3.7-8.53 6.1a.48.48 0 0 1-.5.11 1.21 1.21 0 0 1-.38-.28 41.88 41.88 0 0 0-5.43-4.12c-.26-.17-.13-.45.03-.63.27-.31.55-.62.85-.92a48.06 48.06 0 0 1 6.04-5.08c.24-.18.52-.2.84-.08Z" fill="#EA5429"/><path d="M20.47 20c-.92 1.72-1.77 3.68-2.61 5.54-.1.22-.26.26-.48.13-.59-.35-1.17-.67-1.74-.96-.13-.07-.17-.17-.14-.3a50.1 50.1 0 0 1 2.35-6.42c.07-.17.2-.23.38-.17.8.27 1.58.58 2.34.92.27.12.42.38.25.66-.13.2-.24.4-.35.6Z" fill="#004C6C"/><path d="M19.05 26.34c.36-.86.75-1.72 1.14-2.55a34.1 34.1 0 0 1 2.05-3.8c.14-.22.33-.26.57-.14 1.4.7 2.75 1.5 4.08 2.4.17.12.3.23.4.33.24.23.05.55-.12.77-1.44 1.87-2.66 3.83-3.94 5.85-.18.29-.4.37-.69.14a79.56 79.56 0 0 0-3.37-2.56c-.15-.11-.2-.26-.12-.44Z" fill="#511A5D"/><path d="M24.51 31.25c-.23-.23-.17-.5-.02-.76a48.9 48.9 0 0 1 2.34-3.57c.71-1 1.41-1.87 2.1-2.62.22-.25.5-.1.73.07a48.92 48.92 0 0 1 5.12 4.36c.24.22.1.5-.08.68a60.3 60.3 0 0 0-5.37 6.61.47.47 0 0 1-.26.19.1.1 0 0 1-.05 0 .5.5 0 0 1-.23-.18 33.85 33.85 0 0 0-2.8-3.3l-1.48-1.48Z" fill="#E82C2A"/><path d="M16.65 28.56a52.97 52.97 0 0 0-1.6 4.85.6.6 0 0 1-.08.15c-.05.08-.1.08-.16 0a40.5 40.5 0 0 1-.7-.94.56.56 0 0 1-.1-.4c.2-2.06.54-4.01.99-5.87.02-.1.07-.17.14-.23l.04-.02h.03c.06 0 .1.03.15.05a68.6 68.6 0 0 1 1.61 1c.02 0 .03.02.04.04.05.15.05.3 0 .43l-.36.94ZM18.08 28.56c.08-.2.2-.52.48-.32 1.1.75 2.11 1.69 3.12 2.62.26.25.28.58.1.9a56.6 56.6 0 0 0-3 6.33c-.05.13-.19.38-.36.34a.52.52 0 0 1-.32-.22c-.76-1.1-1.46-2.08-2.08-2.95-.1-.15-.1-.39-.06-.56.56-2.05 1.27-4.1 2.12-6.14Z" fill="#004C6C"/><path d="M23.4 46h-.2a.65.65 0 0 1-.27-.27c-.9-1.54-1.96-3.2-3.14-4.95a1.34 1.34 0 0 1-.22-.44c-.08-.4.07-.77.22-1.13.91-2.2 1.97-4.25 3.17-6.33.1-.2.26-.34.45-.13a40.51 40.51 0 0 1 4.17 5.24c.16.24.16.48-.01.73a51.8 51.8 0 0 0-3.96 7.02.64.64 0 0 1-.22.26Z" fill="#511A5D"/></svg>