<svg width="56" height="56" xmlns="http://www.w3.org/2000/svg"><path fill="#F0F3FA" d="M0 0h56v56H0z"/><path d="M12 12c15.96 2.499 26.602 15.737 26.668 31.705C36.323 28.167 26.08 18.105 12 12z" fill="#959BA6"/><path d="M25.128 18.543c13.877-3.803 21.519 3.005 11.743 10.13-3.285 2.393-6.433 3.302-10.512 4.193-4.738 1.036-9.415 1.648-14.034 1.837 9.199 1.087 20.988-.442 28.08-6.044 8.89-7.503.374-18.273-15.46-10.517l.183.401z" fill="#2B4C91"/><path d="M14.549 44c-1.215-9.825 1.837-18.058 7.674-23.447 7.39 5.657 12.605 12.859 14.197 23.386-2.778-7.498-7.367-14.584-14.268-19.204C17.834 28.652 15.695 35.81 14.55 44z" fill="#54B3A7"/></svg>