<svg xmlns="http://www.w3.org/2000/svg" width="56" height="56" viewBox="0 0 56 56"><path fill="#F0F3FA" d="M0 0h56v56H0z"/><path fill-rule="evenodd" d="M27.93 11l.56 1.17L16.15 33h5.4l9.78-15.93 3.73 6.25L25.26 40H11l16.93-29zM15.57 34l-2.83 5h11.94l6.47-11H25.8l-3.68 6h-6.56zM33.9 23.32L31.74 27h-1.95l3.2-5.22.91 1.54zm-2.57-4.3l1.07 1.8L28.62 27h-2.2l4.9-7.99zm6.42 9L45 40H30.6l7.15-11.99zm-3 6.98l-2.4 4h10.89l-2.43-4h-6.06zm3-5.04L35.36 34h4.86l-2.45-4.04z" fill="url(#azy5gbcom)"/><defs><linearGradient id="azy5gbcom" x1="38.2" y1="14.56" x2="38.2" y2="41.14" gradientUnits="userSpaceOnUse"><stop stop-color="#CA9928"/><stop offset="1" stop-color="#EBBF20"/></linearGradient></defs></svg>