<svg width="56" height="56" viewBox="0 0 56 56" xmlns="http://www.w3.org/2000/svg"><path fill="#E2B414" d="M0 0h56v56H0z"/><path d="m22.17 17.69-.47-7.57c0-.03 0-.06.04-.07.03-.01.06 0 .08.03l4.47 6.05c.03.05.02.09-.04.11l-3.99 1.5c-.06.03-.09.01-.1-.05ZM34.33 10.2c-.09.32-.13.5-.13.58a77.7 77.7 0 0 1-.35 5.53c-.02.2-.02.48-.01.87v.46c0 .2-.08.25-.25.16a12.33 12.33 0 0 0-3.87-1.34.15.15 0 0 1-.12-.1.16.16 0 0 1 .02-.16c1.06-1.43 2.4-3.27 4.04-5.53.14-.19.31-.38.5-.56.18-.17.23-.14.17.1ZM17.12 23.7c-.32-.43-.56-.73-.71-.9l-4.02-4.27c-.3-.32-.24-.42.17-.32l6.91 1.7c.04 0 .07.03.09.08.01.04 0 .08-.03.11a13 13 0 0 0-2.23 3.57c-.05.11-.1.12-.18.02ZM38.56 23.62a9.53 9.53 0 0 0-2.19-3.51.1.1 0 0 1-.02-.11.1.1 0 0 1 .08-.08l7.15-1.74c.26-.07.3 0 .1.2l-4.93 5.28a.11.11 0 0 1-.1.04.11.11 0 0 1-.1-.08Z" fill="#FFE683"/><path fill-rule="evenodd" d="M37.24 31.83a9.92 9.92 0 0 0 0-7.66 9.9 9.9 0 0 0-5.41-5.41 9.92 9.92 0 0 0-7.66 0 9.9 9.9 0 0 0-5.41 5.41 9.92 9.92 0 0 0 0 7.66 9.9 9.9 0 0 0 5.41 5.41 9.92 9.92 0 0 0 7.66 0 9.9 9.9 0 0 0 5.41-5.41Zm-.46-.2a9.41 9.41 0 0 0 0-7.27 9.4 9.4 0 0 0-5.14-5.14 9.41 9.41 0 0 0-7.28 0 9.4 9.4 0 0 0-5.14 5.14 9.41 9.41 0 0 0 0 7.28 9.4 9.4 0 0 0 5.14 5.14 9.41 9.41 0 0 0 7.28 0 9.4 9.4 0 0 0 5.14-5.14Z" fill="#FFE683"/><path d="m16.85 31.53-6.8-.8c-.03 0-.05-.02-.05-.05 0-.03 0-.06.04-.07l6.33-3.24c.06-.02.1 0 .1.06l.45 4.02c0 .06-.02.08-.07.08ZM38.96 31.41c.34-1.45.48-2.71.42-3.77-.02-.27.09-.34.32-.22l6.15 3.12c.2.1.2.17-.03.2l-6.75.8c-.1 0-.13-.04-.1-.13ZM21.7 38.05l-5.4 3.65c-.03.02-.06.02-.09 0-.02-.03-.03-.06-.02-.09l2.64-6.2c.03-.06.07-.06.12-.02l2.77 2.55c.04.04.04.08-.01.11ZM37.08 35.39l2.66 6.19c.01.03 0 .06-.02.08-.03.02-.05.02-.08 0l-5.44-3.59c-.04-.03-.05-.07 0-.1l2.78-2.6c.04-.05.08-.04.1.02ZM29.86 39.76l-1.83 6.19c0 .03-.03.05-.06.05-.04 0-.07-.02-.08-.05l-1.8-6.2c-.01-.06.01-.09.07-.09h3.62c.07 0 .1.04.08.1Z" fill="#FFE683"/><path d="M28 35a7 7 0 1 0 0-14 7 7 0 0 0 0 14Z" fill="#47472B"/></svg>