<svg width="56" height="56" viewBox="0 0 56 56" xmlns="http://www.w3.org/2000/svg"><path fill="#F0F3FA" d="M0 0h56v56H0z"/><path fill-rule="evenodd" d="M28 23.45 21.56 11 13 33h4.68l1.51-3h5.87l-3.86 9h4.22L28 34.46 30.58 39h4.22l-3.86-9h5.87l1.51 3H43l-8.56-22L28 23.45ZM22.5 22l2.5 5h-5l2.5-5Zm11 0L31 27h5l-2.5-5Z" fill="#0076BE"/><path d="M22.87 43.63c-.33.8-1.26 1.37-2.37 1.37-1.38 0-2.5-.9-2.5-2s1.12-2 2.5-2c1.1 0 2.04.57 2.37 1.37h1.82c.46-.8 1.77-1.37 3.31-1.37s2.85.57 3.31 1.37h1.82c.33-.8 1.26-1.37 2.37-1.37 1.38 0 2.5.9 2.5 2s-1.12 2-2.5 2c-1.1 0-2.04-.57-2.37-1.37H31.3c-.46.8-1.77 1.37-3.31 1.37s-2.85-.57-3.31-1.37h-1.82Z" fill="#0076BE"/></svg>