<svg width="56" height="56" xmlns="http://www.w3.org/2000/svg"><path fill="#F0F3FA" d="M0 0h56v56H0z"/><path d="M41 30.724v-2.01s-.114.058-.238.309c-.374.754-1.1 2.824-2.103 4.176-.393.53-.969.893-1.32 1.45-.758 1.201.114 2.343 1.525 1.953C40.051 36.274 41 33.51 41 30.724z" fill="#50B883"/><path d="M23.457 36.138c-6.223-.619-10.27 2.49-11.44 4.243-.122.495.457.619.762.619h22.882C38.468 41 41 39.696 41 39.077v-2.63c-2.136 1.702-3.814 2.011-6.864 2.011-3.051 0-6.255-1.856-10.679-2.32z" fill="#0387CF"/><path d="M17.05 35.21c.153-.155 5.645-6.033 6.255-6.342 1.068-.541 5.468 2.558 5.95 4.022.48 1.463.304 2.815-3.357 1.701-3.661-1.114-5.39-.464-8.237.774-.226.098-.763 0-.61-.155z" fill="#DA662B"/><path d="M24.83 27.012c.61-.774 4.577-4.795 4.577-4.795.305-.464 3.386 4.083 3.508 7.424.157 4.292-1.847 3.558-3.508 1.393-.916-1.194-1.891-2.19-2.746-2.785-.763-.53-2.06-.947-1.83-1.237z" fill="#E28E22"/><path d="M39.627 11.08s-7.474 7.734-8.085 8.971c-.064.131 1.243 1.627 1.946 3.867 1.505 4.795.526 7.27.8 8.198.3 1.011 1.437.877 2.09.464 3.707-2.34 5.69-17.015 3.707-21.376-.16-.215-.318-.266-.458-.124z" fill="#17C1F2"/></svg>