<svg width="56" height="56" viewBox="0 0 56 56" xmlns="http://www.w3.org/2000/svg"><path fill="#F0F3FA" d="M0 0h56v56H0z"/><path d="M25.52 23.3 12.54 36.78l9.2-15.08c.43.86 2.7 1.44 3.78 1.62Z" fill="url(#a3sqznfhx)"/><path d="m31.47 16.85-8.65 2.69c1.26-2.51 4.11-7.54 5.4-7.54 1.3 0 2.71 3.23 3.25 4.85Z" fill="#FABA05"/><path d="m34.18 31.38 1.08-8.61 8.66 15.08c.43 1.72-.9 2.15-1.63 2.15H17.95l11.9-13.46c0 2.58 2.89 4.3 4.33 4.84Z" fill="url(#b3sqznfhx)"/><path d="M35.26 16.3 33.1 29.78a6.64 6.64 0 0 1-2.17-5.9L16.33 40h-3.25c-.36 0-1.08-.22-1.08-1.08L28.23 21.7c-1.62.36-5.09.65-5.95-1.07l12.98-4.31Z"/><defs><linearGradient id="a3sqznfhx" x1="23.36" y1="22.23" x2="14.22" y2="34.66" gradientUnits="userSpaceOnUse"><stop stop-color="#FEA90A"/><stop offset="1" stop-color="#F58307"/></linearGradient><linearGradient id="b3sqznfhx" x1="30.98" y1="22.77" x2="41.14" y2="40.58" gradientUnits="userSpaceOnUse"><stop stop-color="#D21D26"/><stop offset="1" stop-color="#B61120"/></linearGradient></defs></svg>