<svg width="56" height="56" viewBox="0 0 56 56" xmlns="http://www.w3.org/2000/svg"><path fill="#F0F3FA" d="M0 0h56v56H0z"/><circle cx="11" cy="28" r="7" fill="#F26025"/><circle cx="22" cy="28" r="7" fill="#F89425"/><path d="M16.5 32.33a6.97 6.97 0 0 0 0-8.66 6.97 6.97 0 0 0 0 8.66Z" fill="#F68122"/><circle cx="33" cy="28" r="7" fill="#E42694"/><path d="M27.5 32.33a6.97 6.97 0 0 0 0-8.66 6.97 6.97 0 0 0 0 8.66Z" fill="#C84C44"/><circle cx="45" cy="28" r="7" fill="#2A85C6"/><path d="M39 31.6a6.97 6.97 0 0 0 0-7.2 6.97 6.97 0 0 0 0 7.2Z" fill="#6460AD"/><path fill-rule="evenodd" d="M7 32h2.08l.5-1.51h2.88l.51 1.51H15l-3.1-8h-1.75L7 32Zm4.93-3.1L11 26.16l-.9 2.72h1.82Z" fill="#F0F3FA"/><path d="M20.08 24H18l3.15 8h1.74L26 24h-2.03l-1.96 5.83L20.08 24ZM30 24v8h2v-3h.82l1.74 3H37l-2.17-3.2c.94-.4 1.6-1.31 1.6-2.34 0-1.36-1.17-2.46-2.61-2.46H30Zm2 1.6h1.53c.55 0 1 .43 1 .94 0 .52-.45.94-1 .94H32V25.6Z" fill="#F0F3FA"/><path fill-rule="evenodd" d="M45 32a4 4 0 1 0 0-8 4 4 0 0 0 0 8Zm0-1.88c1.1 0 2-1 2-2.23s-.9-2.22-2-2.22-2 1-2 2.22c0 1.23.9 2.23 2 2.23Z" fill="#F0F3FA"/></svg>