<svg width="56" height="56" viewBox="0 0 56 56" xmlns="http://www.w3.org/2000/svg"><path fill="#F0F3FA" d="M0 0h56v56H0z"/><path fill-rule="evenodd" d="M32 22.2v.8h-4.19l-2.01 6.66L23.84 23h-2.77l-1.98 6.66-2-6.66h-2.65l3.34 11h2.64l2.02-6.65L24.47 34h2.65l2.48-8H32v8h3v-8h2v-3h-2v-.81c0-.4.17-.69.55-.69H37V19h-1.94A3.13 3.13 0 0 0 32 22.2Zm-21.56.8c-4.05 0-5.1 2.34-5.11 3.51h2.54C8.04 25.1 9.47 25 10.23 25c.77 0 1.77.15 1.77.92v.18c.02.7.03 1.34-2.27 1.5-2.51.18-4.73.98-4.73 3.23C5 33.07 6.66 34 9 34c1.88 0 2.7-.7 3-1.06V34h2.5v-8.08c.08-.97-.62-2.92-4.06-2.92Zm1.06 6.86V29a3.78 3.78 0 0 1-1.63.49c-.97.15-2.37.37-2.37 1.36 0 .86 1.01 1.05 1.52 1.04 1.77 0 2.4-1.36 2.48-2.04ZM41 23.04h-3V33.7h3V23.04ZM38 19h3v2.5h-3V19Zm12.73 7.34c0-1.11-.82-3.34-4.24-3.34-4.28 0-4.28 2.75-4.28 3.16v.1c-.02.53-.08 2.13 2.82 2.82l.7.17c2.45.58 2.68.63 2.68 1.44 0 .88-.99 1.2-1.92 1.2-.94 0-1.81-.4-1.95-1.54H42c-.05 1.22.78 3.65 4.49 3.65 4.53 0 4.51-3.17 4.51-3.74v-.03c0-.47-.25-2.14-2.95-2.71-2.7-.58-3.18-.91-3.18-1.69 0-.77.8-.88 1.62-.88.8 0 1.6.16 1.7 1.39h2.54Z" fill="#EE3227"/></svg>