<svg xmlns="http://www.w3.org/2000/svg" width="56" height="56" viewBox="0 0 56 56"><path fill="#F0F3FA" d="M0 0h56v56H0z"/><path d="M26.11 28.39c-2.12 3.17-2.33 7.85-2.17 9.8.88-5.84 8.12-12.4 10.61-17.15 2-3.8 1.42-7.74.89-9.23-.33 5.26-6.68 12.61-9.33 16.58z" fill="#007A37"/><path d="M27.8 33.8c-2.12 3.16-2.33 7.85-2.17 9.8.88-5.85 8.12-12.4 10.6-17.16 2-3.8 1.43-7.73.9-9.22-.33 5.26-6.68 12.6-9.33 16.57z" fill="#84C225"/><path d="M29.16 39.2c-2.12 3.17-2.33 7.85-2.17 9.8.89-5.84 8.12-12.4 10.62-17.15 1.99-3.8 1.42-7.73.88-9.22-.32 5.26-6.67 12.6-9.33 16.57z" fill="#007A37"/><path d="M20.48 13.56A5.5 5.5 0 0 1 19.14 9c0 1.13 2.24 3.02 5.25 6.96 2.4 3.15 2.33 5.88 1.99 6.85.08-2.66-3.99-7.03-5.9-9.25z" fill="#037B39"/><path d="M18.75 15.84a7.05 7.05 0 0 1-1.52-5.53c0 1.37 2.52 3.67 5.91 8.45 2.72 3.82 2.63 7.14 2.25 8.32.09-3.23-4.5-8.54-6.64-11.24z" fill="#91C434"/><path d="M17.6 19.17a7.05 7.05 0 0 1-1.5-5.53c0 1.37 2.52 3.67 5.9 8.45 2.72 3.82 2.63 7.14 2.25 8.31.1-3.22-4.49-8.53-6.64-11.23z" fill="#037A39"/></svg>