<svg width="56" height="56" viewBox="0 0 56 56" xmlns="http://www.w3.org/2000/svg"><path fill="#F0F3FA" d="M0 0h56v56H0z"/><path d="M20.07 15.07c-3.7 1.87-5.55 4.18-6.02 5.1-.25 1.1-.32 2.83 1.4 1.04 4.96-3.97 11.46-6.52 14.09-7.3l1.34-.38A3.16 3.16 0 0 0 29.09 12c-2.2.18-4.4.74-9.02 3.07ZM36.7 15.79c1.38 0 2.21.51 2.45.77.99.5.41 5.9 0 8.55l-2.75.71-21.75 7.4c-.89-.32-2.65-1.45-2.65-3.4 0-2.42 4.86-5.5 10.9-9.2 6.04-3.7 12.06-4.83 13.8-4.83ZM43.89 30.7c0 .48-.11.87-.17 1l-.58 1.57c-.2.66-.86 1.94-1.86 1.8-1.25-.19-3.47.05-8.63 2.59-4.13 2.03-5.82 4-6.15 4.74-1.06.26-3.41.74-4.32.52-1.14-.28-1.48-.7-1.48-1.13 0-.79.82-4.26 8.24-7.9 7.42-3.64 11.39-4.3 12.92-4.3 1.52 0 2.03.5 2.03 1.1Z" fill="#434242"/><path d="M34.6 13.54c-1.1-.61-4.1-1.28-5.47-1.54.23.11.69.45.69.94 0 1.3-1.82 1.76-1.82 2.42 0 1.25 3.16 2.64 4.13 2.64 1.66 0 3.15-2.95 3.15-3.43 0-.47-.23-.79-.67-1.03ZM44 26.13c-.25-4.29-3.41-8.25-4.96-9.7a2 2 0 0 1 .19.64c0 .65-.3 1.33-.73 1.86-.69.86-1.5 1.58-1.5 3.7C37 26.1 40.09 29 41.58 29c1.49 0 2.42-1.93 2.42-2.87Z" fill="#3097C2"/><path d="M15.58 21.1c-1.46 0-1.53-.8-1.38-1.2-1.14 1.86-2.05 4.58-2.05 5.46 0 .88 1 1.12 2.05 1.12 5.01 0 13.29-4.72 14.55-5.57 1.13-.75 1.25-.95 1.25-1.83 0-1.8-2.27-2.41-2.87-2.41-.6 0-.95.2-1.43.47-5.31 3.28-8.3 3.96-10.12 3.96Z" fill="url(#aqgzce14x)"/><path d="M16.75 39.52a15.85 15.85 0 0 1-4.68-9.12c.28.64 1.01.6 2.2.6C18.7 31 24 28.67 28 26.7c3.99-1.96 4.3-2.16 5.6-2.16 2.54 0 4.41 2.27 4.41 4.94 0 2.66-1.2 4.25-3.84 5.66-8.98 4.74-13.74 5.3-15.06 5.3-1.32 0-1.88-.54-2.35-.92Z" fill="url(#bqgzce14x)"/><path d="M40.35 38.04c1.86-1.25 3.07-4.9 3.44-6.58-.2.65-1.15 1.68-2.05 2.61a8.39 8.39 0 0 0-1.58 3.59c0 .4.07.38.19.38Z" fill="#3097C2"/><path d="M30 41c-4.02 1.74-7.1 1.96-8.18 1.8 1.16.37 3.3 1.2 5.24 1.2 4.27 0 9.49-3.14 10.8-4.04 1.33-.9 2.04-2.36 2.04-2.85 0-.5-.34-.83-.63-.83-.67 0-2.28 1.71-9.27 4.72Z" fill="url(#cqgzce14x)"/><defs><linearGradient id="aqgzce14x" x1="30.34" y1="18.32" x2="12.23" y2="26.08" gradientUnits="userSpaceOnUse"><stop stop-color="#349CC9"/><stop offset=".49" stop-color="#54B7E8"/><stop offset="1" stop-color="#248DB7"/></linearGradient><linearGradient id="bqgzce14x" x1="37.36" y1="27.26" x2="14.53" y2="36.65" gradientUnits="userSpaceOnUse"><stop stop-color="#389FCC"/><stop offset=".43" stop-color="#54B7E8"/><stop offset="1" stop-color="#2992BD"/></linearGradient><linearGradient id="cqgzce14x" x1="39.51" y1="36.79" x2="21.9" y2="43.33" gradientUnits="userSpaceOnUse"><stop stop-color="#2D96C1"/><stop offset=".39" stop-color="#54B7E8"/><stop offset="1" stop-color="#2B94BF"/></linearGradient></defs></svg>