<svg width="56" height="56" viewBox="0 0 56 56" xmlns="http://www.w3.org/2000/svg"><path fill="#F0F3FA" d="M0 0h56v56H0z"/><path d="M32.54 14.67c-.05.09-.12.12-.21.09a.46.46 0 0 1-.2-.13 5.34 5.34 0 0 0-3.53-1.79c-1.7-.1-4.02.25-5.33 1.69-.34.38-.7.76-1.08 1.14-.06.06-.22-.08-.19-.12.61-.67.92-1.56 1.62-2.11A6.7 6.7 0 0 1 29 12.09c1.12.17 2.13.78 3.05 1.82.08.1.18.14.3.12 1.38-.22 2.26.37 2.63 1.74.06.23 0 .29-.19.17a.9.9 0 0 1-.3-.35c-.27-.56-1.16-.93-1.67-1.06-.12-.03-.21.02-.28.14Z" fill="#004D84"/><path d="M31.78 15.92c-.54-.3-1-.57-1.66-.67-.09-.02-.13-.06-.12-.13 0-.08.06-.12.15-.12.78 0 1.36.27 1.76.8.15.22.11.26-.13.12ZM13.45 27.33a7.03 7.03 0 0 0 3.33 3.53c-.03.06-.06.17-.15.13a7.3 7.3 0 0 1-3.6-3.16c-1.87-3.33-1.07-6.85 1.44-9.64 2.4-2.66 5.94-3 8.52-.44.04.05-.05.18-.1.14a5.3 5.3 0 0 0-4.37-1.33c-2.85.43-4.92 3.49-5.61 6a6.99 6.99 0 0 0 .54 4.77ZM22.65 24.78c-.73-4.27 1.98-8.1 6.68-7.76 2.95.21 4.28 2.92 4.67 5.5 0 .04-.01.06-.06.07-.05.01-.08 0-.1-.05-.12-.5-.3-.98-.53-1.44-1.04-2.09-2.17-3.51-4.78-3.32a5.09 5.09 0 0 0-3.73 1.8 7.33 7.33 0 0 0-1.64 5.71.58.58 0 0 1-.09.39 3.17 3.17 0 0 0-.36 2.71c.23.75.1.8-.37.18-.47-.62-.45-1.81.04-2.56.26-.39.35-.8.27-1.23ZM37.4 33.44c3.44-1.45 5.72-4.12 5.47-7.82-.22-3.05-2.16-8.1-5.97-8.13-.9 0-1.77.3-2.63.57-.34.1-.36.07-.05-.1 2.83-1.61 5.23-1.19 7.22 1.26 2.96 3.63 3.93 9.73-.24 12.91-1.1.84-2.24 1.6-3.66 1.8-1.3.18-1.35.02-.14-.5Z" fill="#004D84"/><path d="M16.7 28c-2.27-2.4-2.27-4.72 0-6.95.1-.1.35-.03.27.08-1.63 2.15-1.62 4.4.03 6.77.03.05-.25.13-.3.1ZM34.71 28.64c-.18.5-.25.48-.2-.06.16-1.52-.02-2.83-.5-4.4-.02-.07 0-.11.05-.14l.07-.03c.03-.02.05 0 .06.02.7 1.54 1.13 2.97.52 4.61Z" fill="#004D84"/><path d="M34.72 33.44c1.6-.84 2.55-2.62 3.05-4.36a.16.16 0 0 1 .15-.12h.03c.04.03.06.07.05.12-.11.82-.09 1.58-.5 2.34a6.39 6.39 0 0 1-2.32 2.47.26.26 0 0 0-.05.4c.24.25.47.51.7.8.16.22.11.29-.15.21-1.26-.34-2.51-.44-3.76-.31-.2.02-.29.28-.13.41 2.37 1.95 2.65 4.99 2.32 7.95-.05.43-.3.65-.73.65h-.45c-.44 0-.64-.22-.6-.65.22-2.56.14-5.41-1.58-7.36-.76-.86-1.7-1.1-2.82-.72-1.1.37-1.7 1.73-2.45 2.55a4.93 4.93 0 0 1-4.23 1.52c-.43-.03-.43-.09-.01-.16.69-.12 1.31-.2 1.95-.55 1.37-.77 2.42-2 3.15-3.68a.42.42 0 0 0-.3-.58 7.88 7.88 0 0 1-5.68-4.15c-.13-.24-.2-.5-.2-.77 0-.18.04-.2.14-.04 1.1 1.68 2.7 3.4 4.61 4.06.99.33 2 .48 3.05.44.17 0 .28-.2.2-.35a3.34 3.34 0 0 0-2.06-1.73c-1.91-.59-3.95-.95-5.4-2.43a.53.53 0 0 0-.31-.16c-.12-.01-.2-.08-.22-.2-.03-.1-.07-.19-.12-.28-.4-.71-.75-1.47-1.04-2.27-.03-.07 0-.12.07-.15l.08-.03.02.01a6.22 6.22 0 0 0 4.54 4.03c1.75.43 3.08.69 4.59 1.76.15.12.25.08.28-.11.19-1.02.53-2.02 1.03-2.98.55-1.08.54-2.31.72-3.5.02-.09.28.05.26.17a8.14 8.14 0 0 0 .23 3.2c.3 1 .47 1.65.5 1.95.06.95.08 1.84.06 2.65 0 .17.16.31.33.29a4.96 4.96 0 0 0 4.1-3.71 6.35 6.35 0 0 0-.94-5.88c-.06-.08.04-.25.13-.17a4.5 4.5 0 0 1 1.5 2.28c.63 2.7-.02 5-1.95 6.92-.42.42-.36.49.16.22ZM41.28 27.53c.14-.94.2-1.94.17-3.01-.02-.68.08-.7.3-.05a5.29 5.29 0 0 1-.54 4.34c-.15.27-.22.25-.2-.05 0-.4.2-.81.27-1.23Z" fill="#004D84"/><path d="M13.77 31.17c-1.3 4.25 2.96 7.15 7.16 5.8.68-.23 1.37-.53 2.07-.9-1.87 1.7-3.96 2.33-6.44 1.67a5.07 5.07 0 0 1-2.26-1.36 4.2 4.2 0 0 1-.65-5.27c.15-.17.19-.15.12.06Z" fill="#004D84"/><path d="M19.92 37c-1.28.05-3.5-.46-3.9-1.82-.06-.2 0-.24.15-.08 1 .98 2.26 1.55 3.8 1.7.05 0 .03.2-.05.2Z" fill="#004D84"/></svg>