<svg width="56" height="56" viewBox="0 0 56 56" xmlns="http://www.w3.org/2000/svg"><path fill="#F0F3FA" d="M0 0h56v56H0z"/><path fill-rule="evenodd" d="M42.91 23.22a474.83 474.83 0 0 0-6.51 3.28c-.1.05-.18.03-.23-.07l-5.67-10.7c-.56-1.05-1.4-1.81-2.65-1.72-1 .07-1.74.58-2.25 1.53-1.9 3.6-3.84 7.23-5.79 10.88-.05.1-.12.12-.22.07-1.96-.98-4.02-2.02-6.17-3.12-1.37-.7-3.27-1.1-4.51-.08-1.16.95-1.07 2.78-.5 4 1.69 3.63 3.45 7.4 5.3 11.27.9 1.9 2.4 1.63 4 .83 3.44-1.75 6.83-3.44 10.16-5.09a.3.3 0 0 1 .26 0c3.42 1.7 6.83 3.41 10.23 5.12 1.54.78 3.06.98 3.92-.84l5.22-11.1c1.68-3.6-1.15-5.96-4.59-4.26Zm-17.5-.62c-.95 1.76-1.89 3.52-2.76 5.27-.03.07-.01.13.06.17l5.1 2.6a.4.4 0 0 0 .36 0l5.14-2.62a.12.12 0 0 0 .07-.09.12.12 0 0 0-.01-.06l-4.67-8.8a1.18 1.18 0 0 0-.62-.58.3.3 0 0 0-.3.05c-.27.2-.49.48-.67.82l-1.7 3.24Zm-7.38 6.58-6.15-3.1a.32.32 0 0 0-.46.23c-.02.07 0 .13.02.2l3.66 7.77a.32.32 0 0 0 .29.18.32.32 0 0 0 .29-.17l2.49-4.68a.31.31 0 0 0 .02-.23v-.01a.31.31 0 0 0-.16-.19ZM40.3 34.3l-2.49-4.68a.31.31 0 0 1 .09-.4.33.33 0 0 1 .05-.03l6.15-3.1a.32.32 0 0 1 .45.18.31.31 0 0 1-.01.24l-3.66 7.78a.32.32 0 0 1-.12.13.32.32 0 0 1-.46-.12Zm-19.25-3.47c-.71 1.32-1.38 2.59-2 3.8a.35.35 0 0 0-.03.17c.01.3.16.4.43.25l4.95-2.45c.11-.06.11-.12 0-.18l-3.23-1.62a.1.1 0 0 0-.12.03ZM32.4 33l-.88-.42c-.09-.05-.09-.09 0-.13l3.3-1.67a.07.07 0 0 1 .05 0 .08.08 0 0 1 .04.03l1.98 3.76c.17.31.07.47-.28.48-.16 0-.34-.06-.56-.19-1.18-.67-2.43-1.27-3.65-1.86Z" fill="#CC2528"/></svg>