<svg width="56" height="56" viewBox="0 0 56 56" xmlns="http://www.w3.org/2000/svg"><path fill="#F0F3FA" d="M0 0h56v56H0z"/><path d="m32.8 21.5-.43-.02a34.9 34.9 0 0 0-8.32 1.13c-1.28.34-2.65.7-3.83 1.09-1.07.36-1.99.67-3.02.95-.22.06-.43.1-.63.1-.49.04-.9-.22-.96-.72-.03-.29.08-.58.21-.82a9.13 9.13 0 0 1 2.56-2.9.3.3 0 0 0 .1-.12 29.48 29.48 0 0 1 .24-.55.6.6 0 0 1 0-.52c.13-.27.36-.55.59-.77.05-.06.1-.13.13-.2a35.4 35.4 0 0 0 1.85-5.76c.09-.4.44-.41.77-.38.96.1 1.78.27 2.64.57a13.92 13.92 0 0 1 5.4 3.5c.05.06.1.1.16.11l.78.27c.09.03.19.05.3.04h.25c.87.04 1.76.14 2.65.29a30 30 0 0 1 3.84.9c.95.3 1.87.65 2.75 1.04 1.48.67 2.97 1.54 4.4 2.53A17.37 17.37 0 0 1 49.94 26c.04.06.06.1.04.17-.45 1.33-.96 2.6-1.54 3.8-.38.78-.79 1.51-1.23 2.2a9.3 9.3 0 0 1-3.25 3.18c-.84.45-1.74.67-2.7.66a.24.24 0 0 1-.19-.1 2.96 2.96 0 0 1-.34-.52 294.97 294.97 0 0 0-5.71-10.33 69.12 69.12 0 0 0-2.24-3.55Zm-10.32-8.39c.27.1.56.2.83.32a24.13 24.13 0 0 1 4.19 2.2 9.16 9.16 0 0 1 2.43.46c.03 0 .03 0 .01-.02a13.78 13.78 0 0 0-5.05-3.3 9.89 9.89 0 0 0-2.96-.66.7.7 0 0 0-.35.05c-.19.08-.24.3-.08.45.28.24.56.33.98.5Zm.82.43-1.2-.46a1.87 1.87 0 0 1-.75-.46h-.01a34.36 34.36 0 0 1-1.71 5.42 9.97 9.97 0 0 1 4.65-2.19 16.05 16.05 0 0 1 2.94-.25 24.35 24.35 0 0 0-3.93-2.05Zm-.46 4.36a21.17 21.17 0 0 1 5.72-1.32 15.28 15.28 0 0 0-1.16-.85c-.37-.02-.76-.01-1.15 0-.56.04-1.11.1-1.64.18-1.14.17-2.23.52-3.27 1.07-.67.36-1.26.78-1.79 1.27a.5.5 0 0 0-.11.17c-.17.4-.36.8-.57 1.22-.01.02 0 .04.01.06l.13.11h.04c1.18-.78 2.46-1.4 3.8-1.9Zm6.94-1.74a10.88 10.88 0 0 0-2.12-.4 15.43 15.43 0 0 1 1.1.83 25.66 25.66 0 0 1 1.57-.12c-.1-.09-.15-.2-.3-.24a12.3 12.3 0 0 1-.25-.07Zm.95.32c.03 0 .03 0 0-.02l-.36-.12c-.02 0-.02 0 0 .01l.1.13.05.02.21-.02Zm1.84 2.87a22.4 22.4 0 0 0-2.15-2.75c-.55.02-1.06.04-1.53.08a16.85 16.85 0 0 1 1.34 1.33c.56.62 1.13 1.32 1.72 2.1.02.04.06.07.1.08a17.86 17.86 0 0 1 1.5.73c-.31-.52-.64-1.04-.98-1.57Zm.54-1.74c-.62-.39-1.21-.7-1.86-.96a.7.7 0 0 0-.29-.05 6.03 6.03 0 0 1-.35.02c.56.62 1.08 1.27 1.56 1.97.54.76 1.05 1.57 1.56 2.4.02.05.06.08.1.1l.54.32c.04.03.1.05.15.05a32.18 32.18 0 0 1 3.97.6l-1.24-1.24a26.54 26.54 0 0 0-4.14-3.2Zm11.2 6.15c1.16.44 2.28.9 3.36 1.37a159.62 159.62 0 0 0 2.18.92c-.32-.45-.68-.93-1.09-1.42a15.59 15.59 0 0 0-1.9-1.97c-.6-.52-1.27-1.02-2-1.52-.95-.64-1.9-1.22-2.86-1.72a23.16 23.16 0 0 0-4.06-1.65c-1.63-.5-3.26-.85-4.89-1.04a17.43 17.43 0 0 0-1.6-.1c.44.17.86.37 1.27.62a27.69 27.69 0 0 1 6 4.87l.68.16c1.65.38 3.29.87 4.9 1.48Zm-21.5-5.73a18.99 18.99 0 0 0-3.65 1.86h.01c.28.11.62.07.92.03a383.76 383.76 0 0 1 3.54-.64c.75-.14 1.5-.23 2.28-.28a12.7 12.7 0 0 1 5.87 1.06 19.24 19.24 0 0 0-3.1-3.36c-2.03.17-3.98.61-5.87 1.33Zm-3.99 1.47a23.55 23.55 0 0 0 .42-.93c-.22.26-.5.57-.46.92 0 .05.02.05.04 0Zm.23.46a.03.03 0 0 0-.03 0l-.42.3a.4.4 0 0 0-.12.15 23.57 23.57 0 0 1-2.63 3.95v.02c.28.34.73.3 1.13.21a69.9 69.9 0 0 0 3.04-.93 73.19 73.19 0 0 1 4.95-1.38 34.2 34.2 0 0 1 7.74-.93l-.75-1.05a.22.22 0 0 0-.09-.07 14.3 14.3 0 0 0-1.92-.69c-1.25-.35-2.53-.5-3.84-.44-.88.03-1.8.16-2.64.31l-2.32.44c-.6.11-1.09.19-1.46.22-.22.01-.43-.02-.64-.1Zm-.25-.16-.15.27c-.01.03 0 .04.02.02l.25-.18v-.03l-.09-.09h-.03Zm13.36.55a.01.01 0 0 0-.02.01l.71 1.01a.01.01 0 0 0 .02 0l.96.04a.01.01 0 0 0 .01 0 .01.01 0 0 0 0-.02l-.16-.27-1.52-.77Zm-14 .4a5.94 5.94 0 0 0 .12-.24 9 9 0 0 0-2.32 2.66c-.19.34-.33.7-.2 1.06l.01.01h.02c.91-1.11 1.7-2.27 2.38-3.49Zm16 .67-.24-.15c-.02-.01-.02 0-.01.01.04.13.13.18.25.15.02 0 .02 0 0-.01Zm4.61 9.2c-.87-1.75-1.77-3.5-2.68-5.23a83.17 83.17 0 0 0-2.19-3.87l-.93-.03c-.03 0-.03 0-.02.02a97.9 97.9 0 0 1 4.02 6.7c1.29 2.33 2.55 4.64 3.76 6.93a5.75 5.75 0 0 0 .44.7c.05.05.06.04.05-.03-.05-.2-.11-.38-.2-.56-.75-1.57-1.49-3.1-2.25-4.63Zm7.67 2.4a9.63 9.63 0 0 1-.83-.8c-.77-.88-1.5-1.76-2.32-2.66-.99-1.07-1.85-2-2.6-2.76a59.54 59.54 0 0 0-3.92-3.55c-.72-.6-1.49-1.14-2.3-1.66-.1-.05-.27-.05-.39-.06a84.87 84.87 0 0 1 2.23 4.05c.99 1.88 1.95 3.78 2.9 5.7.65 1.29 1.27 2.6 1.82 3.73.16.32.26.6.31.86a5.32 5.32 0 0 0 1.75-.26 7.52 7.52 0 0 0 3.35-2.59Zm.06-.11a9.65 9.65 0 0 0-.65-1.17 105.6 105.6 0 0 0-4.1-5.78 42.96 42.96 0 0 0-3.13-3.75 32.76 32.76 0 0 0-3.92-.62 20.63 20.63 0 0 1 1.8 1.32 52.3 52.3 0 0 1 5.06 4.63c.95 1 1.8 1.94 2.58 2.81.66.74 1.26 1.53 1.95 2.23.13.13.25.25.38.34.03.02.03.02.03-.01Zm-2.85-9.27a37.37 37.37 0 0 0-4.8-1.36 45.57 45.57 0 0 1 2.81 3.36 133.1 133.1 0 0 1 4.37 6.17c.21.33.4.66.55 1a15.97 15.97 0 0 0 1.39-2.15 31.26 31.26 0 0 0 1.89-4.43c0-.03 0-.04-.02-.05l-3.38-1.45c-.78-.34-1.72-.7-2.8-1.1ZM11.25 34.64H8.82l-.01.01L8.3 36l-.02.01H7.02A.02.02 0 0 1 7 36a.02.02 0 0 1 0-.02L9.38 30a.02.02 0 0 1 .01-.01h1.3v.01l2.45 5.96V36l-.01.01h-1.31a.02.02 0 0 1-.02-.01l-.53-1.34-.02-.01ZM9.2 33.61a.01.01 0 0 0 0 .01H10.87v-.02l-.82-2.16a.02.02 0 0 0-.02 0L9.2 33.6ZM17.19 35h3.44l.01-.01V36h-4.96a.01.01 0 0 1-.02-.01V34.9l3.2-3.86V31H16v-1h4.5l.01.01V30.95l-3.33 4.01V35ZM25 34.65 24.5 36l-.01.01H23.2a.02.02 0 0 1-.01 0v-.02L25.56 30a.02.02 0 0 1 .02-.01h1.28a.02.02 0 0 1 .02.01l2.45 5.96v.01a.02.02 0 0 1-.01.02H28a.02.02 0 0 1-.02-.01l-.53-1.34-.01-.01H25v.01Zm.4-1.04a.01.01 0 0 0 0 .02h1.64a.01.01 0 0 0 .01-.02l-.82-2.17-.01-.01h-.01l-.82 2.18Z" fill="#0000A5"/><path d="M36.8 34.4c-.05.12-.08.24-.14.34l-.2.33a.85.85 0 0 1-.17.2c-.11.11-.22.26-.36.33-.16.08-.3.18-.47.23-.13.04-.27.1-.4.11-.2.03-.4.06-.61.06h-2.43c-.01 0-.02 0-.02-.02v-5.96a1603.45 1603.45 0 0 0 2.43-.02c.19 0 .38.02.57.04.1.01.2.03.29.06.13.04.27.06.39.14.15.1.32.17.44.31l.21.22c.13.13.2.29.3.44.06.1.1.22.14.33.05.17.13.32.15.49.03.25.08.5.08.75 0 .27.01.55-.03.82l-.05.34c-.02.16-.08.31-.13.47Zm-1.94-3.3c-.12-.02-.22-.05-.34-.06-.42-.03-.78-.03-1.22-.02-.02 0-.03 0-.03.03v3.91a82.48 82.48 0 0 0 1.07.02c.48 0 .96-.1 1.18-.59.09-.18.15-.36.18-.55.07-.46.08-.96.02-1.49a1.97 1.97 0 0 0-.1-.45 1.2 1.2 0 0 0-.63-.75.64.64 0 0 0-.13-.05Z" fill="#0000A5"/></svg>