<svg width="56" height="56" viewBox="0 0 56 56" xmlns="http://www.w3.org/2000/svg"><path fill="#F0F3FA" d="M0 0h56v56H0z"/><path fill-rule="evenodd" d="m44.29 27.01.02.03c0 .81 0 1.32-.02 1.51 0 .07-.05.15-.15.22-.5.35-.95.64-1.38.87-.66.37-1.18.55-1.57.53-.27-.01-.45-.17-.53-.48 0-.03-.02-.03-.04-.02-.4.3-.8.46-1.2.5-.41.03-.77-.04-1.06-.23-.3-.2-.51-.5-.62-.89a.06.06 0 0 0-.04-.04h-.06c-.62.46-1.25.8-1.9 1.03-.26.1-.53.15-.79.13-.34-.02-.56-.15-.68-.39-.12-.23-.07-.57.13-1.01l.64-1.36c.05-.1.03-.12-.06-.05-.37.27-.75.58-1.14.9l-1.77 1.51c-.6.5-1.04.55-1.32.16a.67.67 0 0 1-.11-.5c.02-.17.09-.33.19-.48.06-.1.04-.12-.06-.06-.16.09-.4.23-.69.43-.1.08-.16.17-.17.28a6.32 6.32 0 0 1-.58 2.55 3.42 3.42 0 0 1-1.78 1.84c-.06.02-.06.04 0 .04 2.9 0 5.7-.14 8.41-.43 2.77-.3 5.42-.79 7.94-1.47.92-.24 1.9-.57 2.97-.98 1.07-.42 2.05-.92 2.93-1.5.8-.53 1.4-1.1 1.77-1.75.49-.8.56-1.6.21-2.38a5.29 5.29 0 0 0-2.13-2.25 17.59 17.59 0 0 0-3.41-1.63 37.7 37.7 0 0 0-5.82-1.55c-2.3-.43-4.63-.73-7-.9-3.07-.21-6.11-.25-9.13-.1-3.03.15-5.91.47-8.66.98-2.53.47-4.8 1.11-6.81 1.93-1 .4-1.93.9-2.8 1.49-.66.45-1.18.97-1.57 1.56a2.59 2.59 0 0 0 .13 3.12c.26.36.56.68.9.95.73.59 1.54 1.08 2.42 1.5 1.3.6 2.66 1.1 4.1 1.49 2.27.62 4.64 1.08 7.1 1.38 2.47.3 4.99.48 7.56.52.05 0 .06 0 0-.03a.93.93 0 0 1-.48-.4 1.23 1.23 0 0 1-.18-.6c-.02-.34.05-.72.18-1.15.24-.74.63-1.87 1.16-3.39.03-.08 0-.1-.06-.04-.7.56-1.45 1.04-2.26 1.45-.56.28-1 .38-1.34.29-.17-.05-.29-.2-.36-.44-.01-.04-.04-.05-.07-.02-.52.4-1.08.56-1.7.46a1.36 1.36 0 0 1-1.04-.79 2.43 2.43 0 0 1-.19-1.37c.12-1 .6-1.8 1.44-2.4a4.43 4.43 0 0 1 2.71-.85c.42 0 .85.06 1.3.16.03 0 .05.03.05.06l.07 1.36c0 .02 0 .04-.03.05a.06.06 0 0 1-.06 0 2.8 2.8 0 0 0-2.78.05c-.37.2-.65.47-.85.83a1.6 1.6 0 0 0-.19 1.16c.03.15.12.22.27.22.1 0 .22-.04.36-.11a4 4 0 0 0 1.59-2.03.09.09 0 0 1 .09-.06h1.41c.05 0 .06.03.05.07l-.7 1.73c-.03.1 0 .12.08.07.28-.14.56-.32.84-.53.7-.53 1.38-1.1 2.04-1.73.17-.16.29-.32.35-.5l1.56-4.47c.12-.35.28-.67.47-.97a.9.9 0 0 1 .46-.38.6.6 0 0 1 .57.08c.31.2.37.68.19 1.42a21.1 21.1 0 0 1-1.26 3.43c-.3.68-.55 1.25-.71 1.71-.14.37-.38 1.06-.71 2.05-.03.07 0 .08.05.05.48-.28.94-.58 1.36-.9a25.91 25.91 0 0 0 2.03-1.79c.1-.21.23-.48.36-.79a.1.1 0 0 1 .1-.07h1.53c.03 0 .04.02.03.05l-.7 1.45c-.08.17-.05.2.1.08a13.5 13.5 0 0 1 2.14-1.45c.23-.12.45-.2.67-.23.29-.04.51 0 .68.12.26.19.3.46.14.81L36.3 28.2c-.06.12-.03.15.08.08.46-.26.9-.56 1.3-.88a.55.55 0 0 0 .16-.19c.35-.84.92-1.48 1.72-1.9a4.8 4.8 0 0 1 3.55-.42c.04 0 .07.03.07.07l.06 1.34c0 .03 0 .06-.03.07a.07.07 0 0 1-.08 0 2.54 2.54 0 0 0-1.49-.34c-.53.04-1.01.2-1.45.5-.55.37-.86.9-.9 1.55-.02.15.02.31.12.48a.1.1 0 0 0 .07.05c.13.02.22.02.26 0 .43-.16.8-.46 1.1-.87.3-.41.53-.83.72-1.26.02-.03.04-.05.07-.05h1.43c.04 0 .06.02.04.07l-.7 1.73c-.03.1 0 .13.09.07a10.57 10.57 0 0 0 1.81-1.28Zm-26.18-1.25c0-.03.01-.04.03-.05.61-.2 1.1-.52 1.48-.95.39-.45.62-1 .68-1.61.1-.87-.04-1.56-.39-2.08-.35-.5-.86-.8-1.53-.88a2.4 2.4 0 0 0-1.73.44 5.03 5.03 0 0 0-1.6 2.13 450.1 450.1 0 0 1-2.22 5.02c-.35.77-.73 1.54-1.12 2.3-.02.04-.01.05.03.05h1.67a.2.2 0 0 0 .18-.1c.34-.58.62-1.14.85-1.69l2.08-4.96c.26-.6.59-1.08.99-1.43.11-.1.25-.17.41-.2.18-.04.33 0 .45.08.1.06.15.13.17.2.2.7.1 1.29-.31 1.78-.13.15-.3.3-.52.42a7.7 7.7 0 0 1-.74.37c-.69.32-1.01.77-.99 1.36a1 1 0 0 0 .52.87c.23.14.63.31 1.2.51.18.07.28.18.3.35.02.13-.02.25-.13.38-.2.22-.55.38-1.03.47a4.4 4.4 0 0 1-1.16.04c-.36-.03-.7-.08-1.03-.15-.03 0-.06 0-.07.05l-.46 1.37c0 .02 0 .03.02.04.86.2 1.72.28 2.59.21a4 4 0 0 0 1.9-.6c.63-.4.99-.95 1.06-1.63.06-.52-.07-.96-.37-1.32-.25-.3-.65-.55-1.18-.75-.02-.01-.03-.02-.03-.04Zm9.43 6.59c.44-1.3.85-2.49 1.26-3.55a9.98 9.98 0 0 1-.9 3.15c-.09.17-.19.31-.3.43-.07.08-.09.07-.06-.03ZM51.6 29.2c-.02.01-.07.09-.17.23-.4.56-.95 1.07-1.64 1.52-.8.52-1.63.95-2.5 1.31-1.96.8-4.2 1.45-6.72 1.92a70.41 70.41 0 0 1-16.68 1c-2.84-.14-5.6-.47-8.3-.96a36.03 36.03 0 0 1-6.74-1.9c-.54-.2-1.16-.5-1.87-.9a7.43 7.43 0 0 1-2.64-2.25c-.05-.07-.07-.06-.05.02.18 1.21.93 2.29 2.25 3.22 1.06.76 2.4 1.4 4.04 1.96 1.09.36 2.18.67 3.28.92 1.62.37 3.17.65 4.65.86 2.8.38 5.71.65 8.74.8 1.25.06 2.39.07 3.4.01 4.16-.21 8.27-.85 12.33-1.92 1.16-.3 2.37-.69 3.61-1.16 1.2-.45 2.27-.98 3.2-1.59a4.42 4.42 0 0 0 1.75-1.88c.14-.32.18-.72.13-1.18 0-.05-.02-.06-.07-.03Z" fill="#EC1D23"/></svg>