<svg width="56" height="56" viewBox="0 0 56 56" xmlns="http://www.w3.org/2000/svg"><path fill="#EBAE2F" d="M0 0h56v56H0z"/><path fill-rule="evenodd" d="M7 20h8.51a4.08 4.08 0 0 1 2.27 7.46 4.6 4.6 0 0 1 2.22 4c0 2.5-1.89 4.54-4.21 4.54H7V20Zm4 4h2.87c.62 0 1.13.45 1.13 1s-.5 1-1.13 1H11v-2Zm0 6h2.87c.62 0 1.13.45 1.13 1s-.5 1-1.13 1H11v-2Zm10 6v-9.1c0-3.81 2.91-6.9 6.5-6.9s6.5 3.09 6.5 6.9V36h-4v-5h-5v5h-4Zm4-9h5v-.67c0-1.41-1.24-2.33-2.57-2.33-1.33 0-2.43.92-2.43 2.33V27Zm24-7h-2.76C37.28 20 35 23.58 35 28s4.07 8 8.4 8H49V26h-6v3.59c.87 0 2 .72 2 1.6v1.4c-1.75.2-5-.49-5-4.78s5.99-4.23 9-3.67V20Z" fill="#3D3883"/></svg>