<svg width="56" height="56" viewBox="0 0 56 56" xmlns="http://www.w3.org/2000/svg"><path fill="#A23133" d="M0 0h56v56H0z"/><circle cx="28" cy="28" r="16" fill="#B93134"/><circle cx="28" cy="28" r="12.97" fill="#CD3235"/><circle cx="28" cy="28" r="6.26" fill="#E23236"/><path d="m17.17 19.7.19 14.38.05 4.1v.01h-.02l-1.06.01-.28-19.99-.05-3.8a2.04 2.04 0 0 1 1.24-1.14 4.8 4.8 0 0 1 1.77-.25l-.04.89v.01h-.02c-.4 0-.73.04-1 .11-.38.1-.65.26-.83.49a.12.12 0 0 0-.02.05v.06a5293.95 5293.95 0 0 0 .07 5.07Z" fill="#FEFEFE"/><path d="m19.78 19.5.23 19 .01.84v.01H20l-.96.02-.01-.01-.04-3.27-.22-18.1a543.98 543.98 0 0 0-.01-2.49c.14-.35.38-.64.7-.86.28-.2.63-.33 1.03-.4.2-.03.4-.06.6-.07h.36l-.04.9-.01.02a6.64 6.64 0 0 0-.92.11c-.35.1-.6.27-.74.51l-.01.03.04 3.76ZM22.54 16.88a364677.4 364677.4 0 0 1 .26 23.35h-.96v-.52l-.27-21.34-.02-1.93v-.04c.2-.5.57-.88 1.12-1.1.23-.1.5-.17.78-.21a4.78 4.78 0 0 1 .81-.05l-.04.91v.01c-.19 0-.37.01-.57.04-.24.03-.45.09-.62.17-.2.1-.37.23-.48.4a.09.09 0 0 0-.01.05v.26Z" fill="#FEFEFE"/><path d="m24.95 24.32.09 7.74.11 9.59v.02l-.01.02h-.96l-.02-.75a147618.97 147618.97 0 0 0-.26-23.1c.15-.37.39-.67.72-.88.29-.2.65-.33 1.07-.4a4.8 4.8 0 0 1 .9-.06l-.03.9-.02.02c-.36 0-.67.03-.92.1-.34.1-.59.28-.74.51v.03l.07 6.26ZM27.58 24.83l.1 8.84.11 8.67.01.5-.01.01h-.97l-.02-1.06-.1-8.72-.12-10-.05-3.96c0-.05 0-.1.02-.14.13-.31.33-.57.6-.78.26-.19.56-.33.9-.41a4.56 4.56 0 0 1 1.2-.12l-.05.9c0 .01 0 .02-.02.02a3.62 3.62 0 0 0-1.13.19c-.23.1-.4.24-.52.42l-.01.04.06 5.6ZM33.98 20.62l-3.8 2-.01-.01-.46-.78v-.01l3.8-1.98h.01l.46.76v.02ZM32.69 24.15l-2.62 1.33-.02-.01-.46-.77v-.02a.16.16 0 0 1 .06-.03l6.49-3.28h.01l.5.77-.01.02-3.95 2ZM34.12 25.93l-3.82 1.8h-.02l-.46-.77v-.02l3.58-1.69 5.2-2.45.45.79v.02l-4.93 2.32ZM41.55 25.12 34.9 28.5l-4.58 2.33-.01-.01-.46-.78 4.78-2.43 6.62-3.36.29-.14h.01l.45.78v.02l-.45.22ZM39.07 36.21v3.27a.4.4 0 0 1-.08.26.66.66 0 0 1-.23.17 12445.45 12445.45 0 0 0-7.97 4.08l-.47-.8v-.02l2.2-1.12 5.45-2.8v-10.1l.02-.02h1.06c.01 0 .02 0 .02.02v7.06Z" fill="#FEFEFE"/><path d="M35.17 38.52v-8.08l.02-.01h1.07v8.3a.42.42 0 0 1-.24.41 8015.8 8015.8 0 0 1-5.5 2.75l-.46-.8 5.1-2.57Z" fill="#FEFEFE"/><path d="M34.05 31.57h.03l.01.02v5.65c0 .1 0 .18-.03.24a.42.42 0 0 1-.21.21 2894.72 2894.72 0 0 1-3.2 1.51l-.47-.8v-.01L33 37.06v-5.48h1.05Z" fill="#FEFEFE"/><path d="M31.32 33.4v3.57h-.99l-.02-.01v-3.81l.02-.02h.97c.01 0 .02 0 .02.02v.25Z" fill="#FEFEFE"/></svg>