<svg width="56" height="56" viewBox="0 0 56 56" xmlns="http://www.w3.org/2000/svg"><path fill="#F0F3FA" d="M0 0h56v56H0z"/><path fill="#E2020D" d="M23 13h3v18h-3z"/><path d="M11 29.5c0-4 4.55-7.42 11-8.82v2.18c-3.55 1.37-5.86 3.6-5.86 6.1 0 1.08.43 2.1 1.2 3.04h-5.73c-.4-.8-.61-1.63-.61-2.5Zm3.23 5.5c3.17 2.42 8.38 4 14.27 4 9.66 0 17.5-4.25 17.5-9.5S38.16 20 28.5 20l-1.5.03v1.6a26.4 26.4 0 0 1 3.35-.2c7.84 0 14.2 3.37 14.2 7.53s-6.36 7.53-14.2 7.53A23.4 23.4 0 0 1 21.87 35h-7.64Z" fill="#E2020D"/><path d="M27 25.1V24c6.38 0 8 1.1 8 1.76 0 .67-1.65 1.73-4.72 2.15C38.19 28 43 29.1 43 30.58 43 32.06 26.84 34 17.19 34 9.47 34 5.85 33.55 5 33.33v-.95c1.44.18 5.88.53 12.19.53 16.4 0 20.3-1.8 20.3-2.6 0-1.53-6.94-1.87-10.49-1.81v-1.19c1.48.06 4-.03 4-.85 0-.81-2.52-1.25-4-1.37ZM22 24v1c-.39-.05-1.33-.16-2-.16.38-.37 1.5-.71 2-.84Z" fill="#0D4399"/></svg>