<svg width="56" height="56" viewBox="0 0 56 56" xmlns="http://www.w3.org/2000/svg"><path fill="#F0F3FA" d="M0 0h56v56H0z"/><circle cx="29" cy="20" r="1" fill="#FF0700"/><path fill-rule="evenodd" d="M7 33.08V18.92c0-.5.44-.92.97-.92h.17c.54 0 .86.41.86.92v3.58c.2-.17.87-.5 1.49-.5h.05c.8 0 1.46.61 1.46 1.37v9.25c0 .76-.65 1.38-1.46 1.38H7v-.92Zm3-1.54v-6.9c0-.37-.22-.64-.5-.64s-.5.27-.5.64v6.9c0 .37.22.46.5.46s.5-.1.5-.46ZM20 21a1 1 0 1 0 0-2 1 1 0 0 0 0 2Zm1 15.1V22h-2v14.07c0 .4-.05.91-.5.91s-.5-.51-.5-.91V36h-2v.1c0 1.22.41 2.9 2.5 2.9 2.2 0 2.5-1.68 2.5-2.9ZM30 22h-2v14.07c0 .4-.05.91-.5.91s-.5-.51-.5-.91V36h-2v.1c0 1.22.41 2.9 2.5 2.9 2.2 0 2.5-1.68 2.5-2.9V22Zm-17 4h2v-1.27c0-.38.05-.73.49-.73s.51.35.51.73v2.28h-1.48c-.84 0-1.52.6-1.52 1.32v4.35c0 .73.68 1.32 1.52 1.32H18v-9.82c0-1.2-1.12-2.18-2.5-2.18s-2.5.97-2.5 2.18V26Zm2 5.68c0 .18.16.32.36.32h.28c.2 0 .36-.14.36-.32v-2.36c0-.18-.16-.32-.36-.32h-.28c-.2 0-.36.14-.36.32v2.36ZM22 26h2v-1.27c0-.38.05-.73.49-.73s.51.35.51.73v2.28h-1.48c-.84 0-1.52.6-1.52 1.32v4.35c0 .73.68 1.32 1.52 1.32H27v-9.82c0-1.2-1.12-2.18-2.5-2.18s-2.5.97-2.5 2.18V26Zm2 5.68c0 .18.16.32.36.32h.28c.2 0 .36-.14.36-.32v-2.36c0-.18-.16-.32-.36-.32h-.28c-.2 0-.36.14-.36.32v2.36Z" fill="#911335"/><path fill-rule="evenodd" d="M35 28.52V29h-1v-.42c0-.33-.22-.6-.55-.6-.33 0-.45.27-.45.6V28.87c0 .31 0 .61.24.81l1.03.83c.46.37.73.94.73 1.53v.44c0 .84-.67 1.52-1.5 1.52s-1.5-.68-1.5-1.52V32h1v.35c0 .34.12.63.45.63s.55-.3.55-.63v-.28c0-.33-.1-.65-.36-.85l-.86-.64a2 2 0 0 1-.78-1.6v-.46c0-.84.67-1.52 1.5-1.52s1.5.68 1.5 1.52Zm1 3.9V27h1v5.48c0 .35.18.52.51.52s.49-.17.49-.52V27h1v5.42c0 .87-.67 1.58-1.5 1.58s-1.5-.7-1.5-1.58ZM42 29v-.51c0-.28-.18-.49-.45-.49-.28 0-.55.21-.55.49v4.02c0 .27.27.5.55.5.27 0 .45-.23.45-.5V31h-.5v-1H43v4h-1v-.08c-.16.05-.32.08-.5.08a1.5 1.5 0 0 1-1.5-1.48v-4.04c0-.82.67-1.48 1.5-1.48s1.5.66 1.5 1.48V29h-1Zm1.5 5 1.56-7h.99l1.45 7h-1.01l-.35-2h-1.22l-.4 2H43.5Zm1.62-3h.85l-.4-2.25-.45 2.25Zm2.9 3v-7h1.1c1.04 0 1.88.82 1.88 1.82v.44c0 .53-.23.98-.6 1.3.35.14.6.49.6.9V34h-1v-2.07c0-.45-.26-.83-.66-.94l-.22.01H49v3h-.99Zm1.13-4H49v-2h.15c.47 0 .85.45.85 1s-.38 1-.85 1Z" fill="#F80700"/></svg>