<svg width="56" height="56" xmlns="http://www.w3.org/2000/svg"><path fill="#0A51A1" d="M0 0h56v56H0z"/><path d="M4 25v7h2v-5.509h4.609c.403 0 .748.157.748.562 0 .406-.403.576-.748.576H7.655l-1.218 1.494h4.172c.302 0 .737.142.748.713.012.57-.494.723-.748.729H7.655L6.437 32h5.162c1.198 0 2.395-.57 2.395-1.77 0-1.107-1.032-1.54-1.548-1.71 1.354-.504 1.597-1.364 1.548-1.73-.066-1.4-1.624-1.777-2.395-1.79H4zm14.055 0L14 32h2.517l2.936-5.347 1.538 2.937h-1.91L18.055 31h3.698l.637 1H25l-4.102-7h-2.843zm19 0L33 32h2.517l2.936-5.347 1.538 2.925h-1.91l-1.026 1.426h3.698l.637.996H44l-4.102-7h-2.843zM33 30.175V25h-2c.007 1.317.017 4.102 0 4.704-.017.602-.578.803-.859.828H25L26.09 32h4.915c1.48-.03 1.995-.997 1.995-1.825zm19 0V25h-2c.007 1.317.017 4.102 0 4.704-.017.602-.578.803-.859.828H44L45.09 32h4.915c1.48-.03 1.995-.997 1.995-1.825z" fill="#fff"/></svg>