<svg width="56" height="56" xmlns="http://www.w3.org/2000/svg"><path fill="#007B1B" d="M0 0h56v56H0z"/><path fill-rule="evenodd" d="M30.26 27.417c.77-.608 1.879-1.772 2.775-3.313 1.424-2.448 1.705-4.96 1.481-5.095-.224-.136-2.25 1.322-3.674 3.77-1.235 2.123-1.662 4.264-1.563 4.91-.268.284-2.173 2.434-2.599 1.949-.146-.157.204-.645.786-1.225.345-.299.485-.55.387-.737-.208-.398-1.363-.433-2.588-.02l-4.004 1.02c-.623-.775-2.25-1.252-4.675-1.271 1.343-1.111 2.079-2.246.917-2.72-1.73-.705-4.277.923-5.937 2.338l1.241-2.953c.202-.48-.144-1.016-.658-1.016-.307 0-.58.2-.678.498L8.014 34.124a.265.265 0 00.247.35.26.26 0 00.24-.16l2.86-6.804c4.572-3.813 5.375-1.173 4.328-.106-.854 0-3.12.31-4.358 1.419-1.115.998.266 1.37 1.37.92 1.005-.41 2.239-1.106 3.27-1.86.98-.07 2.889-.035 3.666 1.153-5.976 1.305-9.303 3.71-9.07 4.894.427 2.176 5.999-.015 8.536-1.631 1.945-1.239 2.671-2.365 2.381-3.224l2.16-.605c-1.119.738-1.767 1.552-1.605 2.003.265.738 1.332.738 2.933-.35.144-.078.394-.248.657-.433-.108.355-.002.651.409.651 1.376 0 2.279-1.108 3.222-1.975.07.755.337 1.758 1.047 1.758.661 0 1.259-.327 1.99-.727l.266-.144c.354.491 1.575.326 2.78-.39a5.97 5.97 0 00.47-.31.543.543 0 00.07.414c.259.372 1.051.251 1.77-.269.188-.136.383-.281.56-.428l.63-.322-1.813 3.807s-1.551.906-2.613 2.175c-.599.715-.981 1.573-1.24 2.47-.497 1.723-.422 3.416 0 4.369a.402.402 0 00.374.231.45.45 0 00.403-.252l4.463-8.993 6.615-4.568-.878 1.521a.218.218 0 00.184.328h.784a.213.213 0 00.186-.11l1.799-3.209a.326.326 0 00-.278-.488h-.548a.319.319 0 00-.275.159l-.547.929-6.082 3.806 2.173-4.028a.218.218 0 00-.186-.322h-.521c-.32 0-.623.146-.826.399l-.64.797-.786.641a4.537 4.537 0 01-.233.125c-.136.071-.275.143-.38.219-.49.355-.993.49-1.124.302-.131-.188.16-.628.65-.983.148-.108.122-.51-.261-.412a8.878 8.878 0 00-.155.04.59.59 0 00-.067-.358c-.312-.546-1.57-.392-2.809.344-1.119.664-1.84 1.576-1.74 2.149h-.03l-.234.08h-.002c-1.392.48-2.187.754-2.22-1.417l.321-.295-.047.013zm1.922-3.28c-.758 1.368-1.675 2.303-1.785 2.24-.11-.064.202-1.347.96-2.714.757-1.368 1.677-2.301 1.784-2.24.085.05-.201 1.347-.959 2.715zm-17.347 3.811c.014.034-.85.712-1.662 1.07-.81.359-1.534.493-1.617.3-.082-.192.51-.64 1.32-.998.811-.359 1.944-.406 1.959-.372zm1.511 5.378c2.224-.984 3.658-2.881 3.29-3.746-.03-.072-2.239.534-4.274 1.435-2.036.901-3.466 2.15-3.194 2.787.272.639 2.143.425 4.178-.476zm8.863-4.012c.876-.517 1.487-1.11 1.364-1.326-.122-.215-.931.03-1.807.547-.876.517-1.487 1.11-1.365 1.326.123.215.932-.03 1.808-.547zm11.234-2.21a.391.391 0 00-.047-.22c-.204-.356-.993-.274-1.763.184-.734.435-1.185 1.054-1.052 1.42.64-.386 1.71-.979 2.862-1.384zm-2.619 1.61c.338.127.948-.002 1.545-.357.268-.159.76-.573.76-.622-.769.216-1.585.63-2.305.98zm.537 9.058c-.32.747-.522 1.22-.639 1.162-.19-.096-.14-1.764.64-3.372.779-1.608 1.731-2.271 1.921-2.175.144.072-.156.67-.647 1.653a93.2 93.2 0 00-.527 1.066c-.3.62-.547 1.197-.748 1.666z" fill="#fff"/><path d="M40.942 24.223a.326.326 0 00.291.462h.717a.32.32 0 00.29-.187l.954-2.067a.326.326 0 00-.29-.465h-.744a.32.32 0 00-.29.19l-.928 2.067zm6.613-2.342l-1.106 2.497a.217.217 0 00.194.307h.815a.213.213 0 00.193-.124l1.328-2.85c.08-.172-.082-.36-.26-.299l-1.037.352a.215.215 0 00-.127.117z" fill="#fff"/></svg>