<svg xmlns="http://www.w3.org/2000/svg" width="56" height="56"><path fill="url(#aqlylfgfd)" d="M0 0h56v56H0z"/><path d="M26.28 9h3.44l1.56 4.67 3.7 1.7 1.7-3.01L40 14.3c-.39 6.16-2.37 10.58-3.31 12.03v10.8l2.19 6.47v1.37H17.12V43.6l2.2-6.47v-10.8c-.95-1.45-2.93-5.87-3.32-12.03l3.31-1.94 1.7 3.02 3.71-1.7L26.28 9z" fill="url(#bqlylfgfd)"/><path fill="url(#cqlylfgfd)" d="M17 44h22v1H17z"/><path d="M17.93 43l-.78 1H21v-1h-3.07z" fill="#D36400"/><path fill="#FDB834" d="M21 24.96h1v14.3h-1zm13 0h1v14.42h-1z"/><path d="M37.73 43l.78 1h-3.85v-1h3.07z" fill="#F17400"/><path fill="#FEF663" d="M18 42h3v1h-3zm19.68 0h-3.02v1h3.02z"/><path d="M18.39 42l.26-1h2.08v-.54H19v-1.24l.78-.22H21v.22h1v3.8h-1V42h-2.61zm18.93 0l-.26-1h-2.08v-.4h1.62v-1.24l-.67-.36h-1.16v.36h-1v3.8h1V42h2.55z" fill="#F7AA34"/><path fill="url(#dqlylfgfd)" d="M21 43h13.66v1H21z"/><path d="M31.66 43h-7.38l1.02-2h5.18l1.18 2z" fill="#F4FF31"/><circle cx="20.51" cy="37.89" fill="#F1FD72" r=".65"/><circle cx="35.31" cy="37.89" fill="#F1FD72" r=".65"/><circle cx="20.51" cy="36.6" fill="#B04C02" r=".65"/><circle cx="35.31" cy="36.6" fill="#B04C02" r=".65"/><circle cx="20.51" cy="35.3" fill="#B04C02" r=".65"/><circle cx="20.51" cy="28.2" fill="#F1FD72" r=".65"/><circle cx="20.51" cy="26.9" fill="#D67D02" r=".65"/><circle cx="35.31" cy="26.9" fill="#F1FD72" r=".65"/><circle cx="20.51" cy="25.61" fill="#D67D02" r=".65"/><circle cx="35.31" cy="25.61" fill="#F1FD72" r=".65"/><circle cx="35.31" cy="28.2" fill="#F1FD72" r=".65"/><circle cx="35.31" cy="35.3" fill="#F1FD72" r=".65"/><path fill="#E09E1D" d="M20 28.84h1v5.81h-1z"/><path fill="#F7FE96" d="M35 28.84h1v5.81h-1z"/><path d="M22.75 42H22V26.3a6.18 6.18 0 012.11-1.92c1.1-.58 1.48-2.18 1.54-2.9.38-1.35 1.3-1.75 1.72-1.79l.58-.69.46.69c1.1.3 1.58 1.3 1.69 1.78a3.7 3.7 0 001.68 2.9L34 25.95V42h-1v-1.93h-.76V41h-1.03v-.31h-.68V41h-5.34v-.31h-.86V41h-1v-.93h-.58V42z" fill="url(#eqlylfgfd)"/><path d="M25.16 27.2l-.27 4.66c.27 1.23 1.2 3.08 3.24 3.08 1.76 0 2.53-2.25 2.58-3.08l-.27-4.66c-1.4.57-4.1.23-5.28 0z" fill="url(#fqlylfgfd)"/><path d="M29.83 27.81c-.26 2.52-1.02 7.29-2.25 8.28.7-2.3 2.04-6.9 2.25-8.28z" fill="#882101"/><path d="M31.43 35.43c-2.5 1.4-5.4.59-6.54 0 .1 1.48.93 3.95 3.3 3.95 2.45 0 3.16-2.8 3.24-3.95z" fill="#E69401"/><path d="M24.42 37.95l-.25-4.84.25.95c.3 2.29.13 3.55 0 3.9zM26 36.91a3.97 3.97 0 001.87 1.42c-.53.03-1.65-.2-1.87-1.42z" fill="#882101"/><path d="M28.18 38.86c-.6.05-2.02-.35-2.84-2.32.05.88.68 2.57 2.84 2.32zm1.23-5.37c-.35-.02-.46.78-.47 1.18l.92-.58c0-.19-.1-.58-.45-.6zm-.81 2.38c.04-.28.18-.85.37-.89.23-.05-.74-.47-.37.89zm.29-4.94l.65-2.46-.31.18c-.25.97-.33 1.92-.34 2.28zm-2.75-.55c-.15-.12.06-1.52.19-2.21-.74 1.66-.19 2.42-.19 3.22 0 .64-.22.94-.34 1.02h-.86v.42l.74.65-.43.3.55 1.08.34-.18 1.2.73.34-1.04-.8-.4-.74.4-.34-.4.71-.5v-.36l-.18-.7c.18-.31 0-1.88-.19-2.03zm1.34-.42h-.55l.55.48v-.27l.3.27.42-.27-.42-.42-.3.2zm.42 3l.66-.63h-.37l-.3-.27-.31.62.31.28zm.12-1.19l.49-.69-.23.86-.26-.18zm-.06-.57l-1.03-.8v.44l.68.47-.2.54.2.13.35-.78z" fill="#882101"/><path d="M27.21 33.18c.14.15.5.47.84.51-.28.13-.84.22-.84-.5z" fill="#882101"/><path d="M31.88 38.63l-.2-4.69c-.43.68-.75 2.55-.86 3.4l1.06 1.29zm.77.29l.24-11.43c-.24 1.09-.5 8.07-.6 11.43h.36zm.58-.06V27.91c-.2.85-.33 7.65-.37 10.95h.37zm.6.39V27.43l-.51 11.82h.5z" fill="#BF6603"/><path d="M24.45 27.43l.85-1.16-1.52.67v6h.42c.02-.38.03-1.24 0-1.66-.02-.42.16-1.78.25-2.4v-1.45z" fill="#882101"/><path d="M26.25 25.46l.98-.91.26.91h.99l.22-.91.69.91c-.13.31-.6.96-1.4 1.05-.8.09-1.5-.66-1.74-1.05z" fill="#D54C01"/><path d="M29.5 25.41c-.83-.9-.64-2-.44-2.43.11.5 1.3 1.48 1.9 1.9-.28.28-1.08.47-1.45.53zm-3.2 0c.85-.9.66-2 .46-2.43-.12.5-1.34 1.48-1.93 1.9.28.28 1.1.47 1.47.53z" fill="#9A6400"/><path d="M28.84 20.88c-.56.02-1.7.04-1.85 0v3.68l.39 1.07h1.07l.39-1.07v-3.68z" fill="#FAFE89"/><ellipse cx="27.91" cy="23" rx=".33" ry="1.33" fill="#E2EC32"/><path d="M36 25.08l.28-.86c.42.32 1.24.77 1.1 0-.13-.78-.45-.9-.58-.87.52-1.16 1.24-3.7 0-4.53-.08-.26-.3-.73-.52-.6-.23.15-.56.46-.7.6-.24-1.18-1.68-3.59-5.51-3.81-.16-.38-.8-1.1-2.05-.94v4.16c.2-.65 1.1-1.82 2.98-1.32 2.36.63 3.3 2.29 2.64 4.36-.53 1.67.29 3.53.76 4.26l1.6-.45zm-15.95 0l-.27-.86c-.43.32-1.25.78-1.11 0 .14-.77.45-.9.59-.86-.52-1.17-1.25-3.7 0-4.54.08-.25.3-.72.52-.59.22.14.55.45.69.6.24-1.18 1.68-3.6 5.5-3.81.17-.39.8-1.1 2.05-.94v4.15c-.2-.64-1.1-1.81-2.98-1.31-2.35.62-3.29 2.28-2.63 4.36.53 1.66-.29 3.53-.76 4.26l-1.6-.45z" fill="url(#gqlylfgfd)"/><path d="M26.13 20.11c.68-1.36.46-2.73.26-3.24h3.55c-.76.78-.32 2.49 0 3.24h-3.81z" fill="#CCB25D"/><circle cx="27.97" cy="18.49" fill="#FAFD95" r=".68"/><path d="M22.7 19.66c.43 2.92-.04 4.07-.33 4.29a9.8 9.8 0 000-2.77c-.62-1.26-.03-2.63.33-3.15 1.8-1.56 3.26-1.51 3.77-1.3l.2 1.01c.2 1.55-.98 3.4-1.59 4.12.41-1.1.57-3.2.6-4.12-2.02-.14-2.82 1.23-2.98 1.92zm10.7-.06c-.43 2.87.05 4 .34 4.2a9.37 9.37 0 010-2.71c.62-1.24.03-2.58-.34-3.1-1.8-1.51-3.28-1.47-3.79-1.26l-.2.99c-.2 1.52.99 3.33 1.6 4.04a15.52 15.52 0 01-.6-4.04c2.03-.14 2.84 1.2 2.99 1.89z" fill="#7B1800"/><circle cx="28.03" cy="14.06" fill="#FAFD95" r=".67"/><path d="M20.1 22.24c-.48.18-.54.55-.51.7l.8 1.73.76.23.4-1.02c.13-.15.39-.55.36-.93-.02-.39-.52-.64-.76-.71a1.4 1.4 0 00-1.05 0zm15.85 0c.48.18.54.55.51.7l-.79 1.73-.77.23-.4-1.02c-.13-.15-.38-.55-.36-.93.02-.39.52-.64.76-.71a1.4 1.4 0 011.05 0z" fill="#DE8504"/><path fill="#D17700" d="M22 26.25h1v13.58h-1z"/><defs><linearGradient id="aqlylfgfd" x1="10.42" y1="9.71" x2="68.15" y2="76.02" gradientUnits="userSpaceOnUse"><stop stop-color="#1A1E21"/><stop offset="1" stop-color="#06060A"/></linearGradient><linearGradient id="bqlylfgfd" x1="28" y1="5.42" x2="28" y2="45.32" gradientUnits="userSpaceOnUse"><stop stop-color="#220907"/><stop offset=".24" stop-color="#A83101"/><stop offset=".39" stop-color="#220907"/><stop offset=".66" stop-color="#A83101"/></linearGradient><linearGradient id="cqlylfgfd" x1="39" y1="44.5" x2="17" y2="44.5" gradientUnits="userSpaceOnUse"><stop stop-color="#EFA700"/><stop offset="1" stop-color="#E18E02"/></linearGradient><linearGradient id="dqlylfgfd" x1="34.66" y1="43.5" x2="21" y2="43.5" gradientUnits="userSpaceOnUse"><stop stop-color="#F9E137"/><stop offset=".51" stop-color="#DD5A01"/><stop offset=".98" stop-color="#F4C34F"/></linearGradient><linearGradient id="eqlylfgfd" x1="34" y1="26.97" x2="21.95" y2="32.14" gradientUnits="userSpaceOnUse"><stop stop-color="#F1FF4F"/><stop offset="1" stop-color="#EC9200"/></linearGradient><linearGradient id="fqlylfgfd" x1="27.11" y1="31.8" x2="29.59" y2="27.2" gradientUnits="userSpaceOnUse"><stop stop-color="#E8A903"/><stop offset="1" stop-color="#EFE23A"/></linearGradient><linearGradient id="gqlylfgfd" x1="28.03" y1="14.05" x2="28.03" y2="24.18" gradientUnits="userSpaceOnUse"><stop stop-color="#DD8702"/><stop offset="1" stop-color="#E9F54E"/></linearGradient></defs></svg>