<svg width="56" height="56" viewBox="0 0 56 56" xmlns="http://www.w3.org/2000/svg"><path fill="#F0F3FA" d="M0 0h56v56H0z"/><path fill-rule="evenodd" d="M14.5 13c-.83 0-1.5.65-1.5 1.46V26a7 7 0 1 0 3-5.75v-5.79c0-.8-.67-1.46-1.5-1.46ZM16 26a4 4 0 1 0 8 0 4 4 0 0 0-8 0Zm13.5 14c-.83 0-1.5-.64-1.5-1.44V26a7 7 0 1 1 3 5.75v6.81c0 .8-.67 1.44-1.5 1.44ZM31 26a4 4 0 1 1 8 0 4 4 0 0 1-8 0Zm-14.88 8H27.5v2.5H13.27l2.85-2.5Zm-2.85 3H27.5v1H13.27v-1Zm18.23 0v1h9.78L44 35.7v-.85L41.28 37H31.5Zm-18.23 2h14.27c.07.37.21.71.41 1H13.27v-1Zm18.19 0c-.07.37-.21.71-.41 1h10.22v-1h-9.81Zm.04-5v2.5h9.4L44 34H31.5ZM44 37.77v-.9l-2.72 2.12V40L44 37.77Z"/></svg>