<svg width="56" height="56" xmlns="http://www.w3.org/2000/svg"><path fill="#F0F3FA" d="M0 0h56v56H0z"/><path d="M10.472 20h10.113c.158 0 .27.132.249.293L19.33 31.811C19.029 34.115 16.937 36 14.68 36H4.513c-.322 0-.55-.27-.508-.599l1.417-10.85c.327-2.503 2.6-4.551 5.05-4.551z" fill="#96BF0D"/><path d="M12.804 31.555h-2.499L10.611 29h2.35c.654 0 1.415.513 1.415 1.273 0 .831-.86 1.282-1.572 1.282zM12.961 28h-2.2l.314-2.553h1.729c.763 0 1.627.197 1.65 1.097.024.9-1.024 1.456-1.493 1.456zM6.01 34.002h7.737c2.029 0 4.637-.857 4.637-3.17v-.559c0-1.109-1.205-1.912-2.043-2.144.17-.274 1.965-.593 1.965-2.05v-.467c0-2.297-2.26-2.61-4.245-2.61l-6.508.003L6.01 34.002z" fill="#FCFCFC"/><path d="M26.054 20h10.113a.25.25 0 01.248.293l-1.504 11.518C34.611 34.115 32.52 36 30.263 36H20.095c-.322 0-.551-.27-.508-.599l1.417-10.85c.327-2.503 2.6-4.551 5.05-4.551z" fill="#1FA32E"/><path d="M21.377 33.631v.37l3.791.001.385-3.15c.148-.117 1.07-1.018 1.16-1.018.367 0 2.492 4.168 2.938 4.168h4.134l-4.231-6.426 5.433-4.545h-2.939c-1.362 0-1.679-.217-2.52.543-1.104.996-2.258 2.23-3.39 3.105l.498-3.648h-3.828l-1.43 10.6z" fill="#FCFCFC"/><path d="M41.636 20H51.75c.158 0 .27.132.248.293l-1.504 11.518c-.3 2.304-2.392 4.189-4.648 4.189H35.677c-.322 0-.551-.27-.508-.599l1.417-10.85c.327-2.503 2.6-4.551 5.05-4.551z" fill="#007836"/><path d="M38.325 23.003l11.197-.001L49.198 26h-3.713l-1.112 7.998-4 .004L41.51 26H38l.325-2.997z" fill="#fff"/></svg>