<svg xmlns="http://www.w3.org/2000/svg" width="56" height="56"><path fill="#216D46" d="M0 0h56v56H0z"/><path d="M20.87 11L13 17.88l4.78 6.14L18.9 20h14.03c.38.01 1.32.07 1.32 1 0 .93-.9 1.01-1.32 1h-4.37l-1.3 6h4.13c.43.02 1.3.22 1.27 1.03-.03.98-.93.97-1.44.97H26.8l-1.28 5h6.54c1.64.03 4.98-1.17 5.22-6.29a5.9 5.9 0 00-.9-3.02A7.18 7.18 0 0040 19.65c.05-3.36-2.37-4.65-3.62-4.65H19.92l.95-4zm5.75 11h-7.33l-3.15 13.58v.02c-.38 2.46.05 4.07.86 5.08.8 1 1.9 1.31 2.68 1.32h14.48l-.45 4L43 40l-5.67-8.2-2 4.2H24.58c-.75-.03-1.02-.27-1.13-.42a.69.69 0 01-.06-.57V35l3.22-13zm-9.5 13.77L20.08 23h5.26l-2.9 11.73c-.1.36-.13.91.2 1.4.33.51.97.83 1.92.87h11.47l1.63-3.07 3.9 5.8-6.62 4.24.34-2.97H19.69c-.55 0-1.34-.23-1.91-.95-.58-.71-1-2-.66-4.28z" fill="#fff"/></svg>