<svg width="56" height="56" viewBox="0 0 56 56" xmlns="http://www.w3.org/2000/svg"><path fill="#F0F3FA" d="M0 0h56v56H0z"/><path d="M29.9 11.05c-.05.17-.14.31-.26.43-.63-.03-1.39.11-2.28.42a1.8 1.8 0 0 1-1.43-.13.51.51 0 0 0-.24-.05l-.71.02-.88.16-.05-.44c.91-.25 1.69-.4 2.33-.43.85-.05 2.02-.04 3.53.02Z" fill="#5C65B6"/><path d="M34.02 12.06c-.01.33-.12.6-.3.82a.2.2 0 0 1-.2.08l-.87-.18c-.63-.15-.91 0-.84.45-.1-.07-.27-.1-.53-.08l-1.94-.8c.16 0 .28-.1.37-.33.12-.3.1-.49-.07-.54.12-.12.2-.26.27-.43 1.44.15 2.81.49 4.11 1.01Z" fill="#5B87D3"/><path d="m24.05 11.46.05.44-.98.65.86 1.68c.04.07.02.12-.04.16l-.85.49c-.08.05-.1.11-.06.2.1.24.37.17.8-.22.12-.12.24-.11.35.02.06.07.15.12.3.16-.09.07-.15.2-.2.38l-.61.31c-.27.02-.46.12-.58.28-.5.73-1.02 1.21-1.55 1.44-.93.32-1.78.91-2.55 1.78-.14.15-.28.4-.41.74-.12.29-.36.59-.72.9a3.7 3.7 0 0 0-1.07 1.92c-.03.08-.08.11-.16.08a3.2 3.2 0 0 1-1.18-.78c.1-.68.26-1.23.47-1.64.33-.6.67-1.27 1.02-2 .37-.74.28-.8-.26-.2-.22.24-.41.6-.59 1.07a.33.33 0 0 1-.3.22.32.32 0 0 1-.32-.17l-.15-.25c.33-.57.87-1.23 1.63-2 .13-.12.14-.31.02-.55-.06-.12-.13-.12-.21-.01l-.59.72a.21.21 0 0 1-.1.07c-.47.16-.82.43-1.07.81-.35.12-.66.34-.93.64-.08.08-.12.07-.14-.04 0-.07.01-.18.06-.31a15.72 15.72 0 0 1 3.17-3.46c.23.04.32.16.28.33-.09.34-.1.61-.04.82.13.44.31.86.56 1.28l-.34.32c-.04.04-.04.07.02.1l.1.07c.05.03.1.02.14 0a.88.88 0 0 1 .73-.18c.09.02.11-.02.08-.1l-.23-.62c.17-.21.38-.39.62-.52.25-.13.5-.15.74-.05.24.1.44.27.6.5.09.15.17.23.25.25.12.04.25.01.39-.09.07.09.15.12.24.1a.2.2 0 0 0 .14-.18c.07-.33.24-.55.52-.64a.46.46 0 0 0 .29-.27.47.47 0 0 0 0-.38c-.08-.17-.2-.24-.35-.22-.04-.27 0-.5.14-.71.05-.08.14-.13.25-.14l.38-.02c.08-.01.1-.05.06-.12a.82.82 0 0 0-.23-.21.22.22 0 0 0-.26-.01l-.35.2c-.06.04-.1.02-.14-.04l-.06-.1c-.03-.05-.01-.1.05-.11.2-.07.3-.17.32-.33 0-.09-.04-.14-.13-.14l-.6-.05.69-.55c.06-.06.1-.13.1-.21.03-.25-.12-.5-.41-.74l2.34-.77Z" fill="#B74A05"/><path d="M29.64 11.48c.16.05.19.23.07.54-.09.23-.21.34-.37.33-.36-.43-.7-.53-1.04-.28-.16.11-.15.2.04.26.26.07.6.08 1 .02l1.94.8.01.86c0 .1-.04.16-.14.18l-.76.15c-.14.03-.2.11-.2.25v.08c0 .1.04.15.14.14.4 0 .71.03.96.11.29.1.57.3.84.58.37.4.9.79 1.6 1.17.9.5 1.44.82 1.62.97.99.8 1.57 1.33 1.75 1.55l1.4 1.8c.21.3.39.58.51.87.14.3.27.62.38.94l.3.41.25.82c.03.08.02.16 0 .24-.1.22-.14.45-.13.7-.2-.47-.37-.94-.55-1.4a12.1 12.1 0 0 0-3.95-5.37 11.93 11.93 0 0 0-7.96-2.54c-.55 0-.96 0-1.23-.02 0-.62-.55-.82-1.65-.6a.59.59 0 0 1-.3-.16c-.1-.13-.22-.14-.34-.02-.43.39-.7.46-.8.22-.04-.09-.02-.15.06-.2l.85-.5c.06-.03.08-.08.04-.15l-.86-1.68c.62.4 1.12.48 1.5.24.32-.22.37-.47.16-.78-.05-.07-.05-.14 0-.2.04-.05.1-.07.2-.07l.71-.02c.09 0 .17.01.24.05.5.25.98.3 1.43.13.89-.3 1.65-.45 2.28-.42Z" fill="#D25E21"/><path d="M24.98 11.74c-.1 0-.16.02-.2.07-.05.06-.05.13 0 .2.21.3.16.56-.17.78-.37.24-.87.16-1.5-.24l.99-.65.88-.16Z" fill="#B6688B"/><path d="M29.34 12.35c-.4.06-.74.05-1-.02-.19-.06-.2-.15-.04-.26.34-.25.68-.15 1.04.28Z" fill="#5B87D3"/><path d="M40.15 16.03c-.75.16-1.21.03-1.4-.4a.27.27 0 0 0-.19-.17l-.87-.2a.7.7 0 0 1-.5-.42c-.08-.2-.24-.4-.45-.6-.16-.14-.38-.22-.69-.24L34 13.88c-.16 0-.42-.16-.8-.45a.18.18 0 0 0-.15-.04l-.74.15a.3.3 0 0 1-.23-.05c-.1-.06-.19-.15-.27-.26-.07-.45.2-.6.84-.45l.86.18a.2.2 0 0 0 .2-.08c.2-.22.3-.5.31-.82 2.31.87 4.35 2.2 6.13 3.97Z" fill="#1D66C9"/><path d="M21.7 12.23c.3.24.44.49.43.74 0 .08-.05.15-.11.2l-.69.56a.45.45 0 0 1-.28.03.47.47 0 0 1-.2-.31.27.27 0 0 1 .08-.23c.16-.19.27-.33.3-.42.07-.17.04-.28-.07-.33.2-.16.38-.24.55-.24Z" fill="#B6688B"/><path d="M21.16 12.47c.11.05.14.16.07.33-.03.09-.14.23-.3.42a.27.27 0 0 0-.07.23c.02.11.08.22.2.3-.19.15-.4.26-.64.33a.36.36 0 0 1-.25-.02c-.41-.17-.77-.1-1.08.24a.37.37 0 0 1-.11.05c-.06.03-.1.03-.12.03a.22.22 0 0 1-.1-.23c.02-.1.07-.16.16-.2.77-.25 1.29-.65 1.56-1.18l.68-.3Z" fill="#D25E21"/><path d="M31.49 12.54c.08-.04.2-.03.33.03.1.04.12.1.07.2-.06.12-.15.18-.25.17-.1 0-.19-.06-.23-.19-.04-.1-.01-.17.08-.21Z" fill="#B23752"/><path d="M20.48 12.77c-.27.53-.8.93-1.56 1.19-.09.03-.14.1-.15.19-.02.1.02.17.1.23 0 0 .05 0 .1-.03l.12-.05c.3-.33.67-.41 1.08-.24.08.04.16.04.25.02.24-.07.45-.18.63-.32.1.02.2 0 .28-.03l.6.05c.1 0 .14.05.13.14-.01.16-.12.26-.32.33-.06.02-.08.06-.05.12l.06.1c.04.05.08.06.14.03l.35-.2a.22.22 0 0 1 .26 0c.12.1.2.17.23.22.04.07.02.11-.06.12l-.38.02c-.11.01-.2.06-.25.14a.96.96 0 0 0-.14.7l-.36.32c-.05.03-.05.07-.02.13l.08.15c.05.07.03.13-.04.17l-.33.19a.22.22 0 0 0-.11.2c0 .17-.02.31-.06.44-.14.1-.27.13-.4.1-.07-.03-.15-.11-.25-.26-.15-.23-.35-.4-.6-.5a.82.82 0 0 0-.73.05c-.24.13-.45.3-.62.52l-.5.41a5.54 5.54 0 0 1-.56-1.28c-.06-.2-.05-.48.04-.82.04-.17-.05-.29-.29-.33.97-.95 2.08-1.7 3.33-2.22Z" fill="#5B87D3"/><path d="M31.28 13.15c.26-.01.43.01.53.08.08.11.18.2.27.26a.3.3 0 0 0 .23.05l.74-.15c.05-.01.1 0 .15.04.38.29.64.44.8.45l2.05.12c.3.02.53.1.69.24.21.2.37.4.45.6.1.22.27.36.5.41l.87.2c.1.03.16.09.2.18.18.43.64.56 1.39.4 1.14 1.1 2.09 2.4 2.84 3.85-.2.05-.34.05-.43-.02a.5.5 0 0 0-.46-.07.51.51 0 0 0-.34.3c-.1.26-.16.57-.16.94 0 .08.03.14.1.19l1.1.8c-.27.24-.54.39-.82.42a.26.26 0 0 1-.22-.07 4.66 4.66 0 0 0-1.32-.88c-.08-.04-.1-.1-.08-.18.07-.18.1-.29.1-.32.02-.12 0-.18-.09-.16l-1.12.23a.25.25 0 0 0-.18.14c-.14.26-.1.52.1.77l.22.83c-.11-.32-.24-.63-.38-.94a4.3 4.3 0 0 0-.51-.86l-1.4-1.8c-.18-.23-.76-.75-1.75-1.56-.18-.15-.72-.48-1.63-.97a6.4 6.4 0 0 1-1.6-1.17 2.13 2.13 0 0 0-.83-.58 2.74 2.74 0 0 0-.96-.1c-.1 0-.14-.05-.14-.15v-.08c0-.14.06-.22.2-.25l.76-.15c.1-.02.14-.08.14-.18l-.01-.86Z" fill="#D43C04"/><path d="M33.15 13.75c.03 0 .05 0 .06.02.09.18-.04.35-.4.54l-.04.03c-.35.18-.57.19-.66.02-.02-.03-.01-.05.01-.06l1.03-.55Z" fill="#5C65B6"/><path d="M21.04 14.97c.02.01.03.03.02.05l-.01.02c-.05.1-.16.15-.32.16-.16 0-.33-.04-.5-.13l-.09-.04c-.18-.1-.3-.2-.4-.34-.09-.14-.1-.26-.05-.35v-.02c.02-.02.04-.03.06-.02l1.29.67Z" fill="#1D66C9"/><path d="M26.12 15.64c-.46.16-.91.23-1.36.23.16-.13 0-.28-.47-.45.04-.18.1-.3.18-.38 1.1-.22 1.65-.02 1.65.6Z" fill="#5C65B6"/><path d="M24.29 15.42c.47.17.63.32.47.45a3.2 3.2 0 0 1-1.1-.14l.63-.31Z" fill="#072BB7"/><path d="M21.06 17.1c.05-.13.07-.27.06-.43 0-.1.03-.17.11-.21l.33-.2c.07-.03.09-.09.04-.16l-.08-.15c-.03-.06-.03-.1.02-.13l.36-.31c.15-.02.27.05.34.21.06.13.06.26 0 .4a.46.46 0 0 1-.28.26c-.28.1-.45.3-.52.64a.2.2 0 0 1-.14.17c-.09.03-.17 0-.24-.09Z" fill="#3D1009"/><path d="M15.32 19.12a.33.33 0 0 0-.1-.18l-.22-.78c.24-.38.6-.65 1.07-.81a.21.21 0 0 0 .1-.07l.59-.72c.08-.1.15-.1.2 0 .13.25.12.44-.01.57a10.1 10.1 0 0 0-1.63 2Z" fill="#D25E21"/><path d="M35.72 16.72c.13-.03.21-.11.2-.19-.02-.07-.14-.1-.26-.08-.13.03-.21.12-.2.2.02.07.14.1.26.07Z" fill="#B8080A"/><path d="m18.46 17 .23.63c.03.08 0 .12-.08.1a.88.88 0 0 0-.73.17.11.11 0 0 1-.13.01l-.11-.06c-.06-.04-.06-.07-.02-.11l.34-.32.5-.41Z" fill="#3D1009"/><path d="m21.54 17.45-2.47 2.09a.47.47 0 0 0-.14.2c-.17.43-.31.73-.43.9-.61.82-.96 1.33-1.03 1.5-.28.66-.53 1.1-.77 1.33 0-.05 0-.1-.02-.15a.15.15 0 0 0-.1-.1.56.56 0 0 0-.3 0l-.09-.02a.22.22 0 0 1-.13-.1c-.2-.37-.5-.6-.94-.72l.32-.29c.37.37.77.63 1.19.78.08.03.13 0 .16-.08a3.7 3.7 0 0 1 1.07-1.92c.36-.31.6-.61.71-.9.14-.34.28-.59.42-.74a6.05 6.05 0 0 1 2.55-1.78Z" fill="#A58B5B"/><path d="M39.12 27.88a11.06 11.06 0 0 1-3.25 7.87 11.01 11.01 0 0 1-12.09 2.41 11.01 11.01 0 0 1-6-6.02 11.06 11.06 0 0 1 0-8.52 11.06 11.06 0 0 1 20.5 0c.55 1.36.84 2.78.84 4.26Z" fill="#D7D5FD"/><path d="m15.44 22.1-.32.28c-.01-.09-.13-.08-.33.02a.81.81 0 0 1 .29-.74c.06-.06.08-.12.05-.2-.03-.08-.11-.13-.25-.16a.5.5 0 0 0-.13-.41.26.26 0 0 0-.22-.08c-.14 0-.2-.05-.17-.17.06-.36.35-.93.86-1.7.05.04.09.1.1.18l.15.25c.07.12.18.18.33.17a.33.33 0 0 0 .3-.22c.17-.47.36-.83.58-1.07.54-.6.63-.54.26.2-.35.72-.7 1.4-1.02 2-.22.41-.37.96-.48 1.64Z" fill="#5C65B6"/><path d="m15 18.16.22.78c-.51.77-.8 1.34-.86 1.7-.02.12.04.18.17.17.09 0 .16.02.22.08.1.1.15.24.14.41l-.77.46-1.1-.63c-.15-.1-.25-.11-.3-.02-.1.19-.22.37-.34.55.3-1.15 1.07-2.16 1.61-3.21a.74.74 0 0 0-.06.3c.02.12.06.13.14.05.27-.3.58-.52.93-.64Z" fill="#5B87D3"/><path d="M43 19.88c.59 1.17 1.06 2.4 1.4 3.7.7 2.62.79 5.18.26 7.68l-.29 1.37c-.09.41-.22.85-.4 1.32-.6 1.61-1.45 3.1-2.52 4.46a12.1 12.1 0 0 1 .8-1.53c.04-.04.06-.1.06-.19 0-.08.02-.14.08-.2.66-.64-3.37.4-3.2-3.11l-.96 1.72c-.23.28-.34.59-.33.93 0 .08-.04.11-.12.11a.15.15 0 0 1-.1-.05.15.15 0 0 0-.15-.04c-.26.06-.39.3-.38.71 0 .18-.08.3-.25.36-.35.11-.55.4-.61.84a.43.43 0 0 1-.1.23c-.3.32-.55.55-.77.68-.08.04-.13.02-.15-.07l-.03-.14a.27.27 0 0 1 .12-.3c.4-.3.55-.53.45-.7l.78-1.08.55-.82c.1-.14.3-.37.6-.7.22-.22.4-.47.55-.74l.73-1.3c.25-.45.44-.9.56-1.38l.52-2.16c.1-.43.12-1.46.06-3.08l.23.22c.82-2.6 2.18-2.06 2.15-3.04 0-.09.04-.14.13-.17.12-.03.21-.04.26-.03.36.15.46.03.3-.33L42.8 22l-1.1-.8a.22.22 0 0 1-.1-.18c0-.37.06-.68.17-.93a.51.51 0 0 1 .35-.31.5.5 0 0 1 .45.07c.1.07.24.07.43.02Z" fill="#1D66C9"/><path d="M17.71 20.04a.84.84 0 0 1 .3-.03c.05 0 .08.03.1.07.02.05.02.09-.01.13-.12.14-.26.15-.43.03a.1.1 0 0 1-.04-.11.11.11 0 0 1 .08-.1Z" fill="#3D1009"/><path d="M35.52 27.88c0 2.06-.72 3.83-2.18 5.29a7.16 7.16 0 0 1-5.26 2.19 7.16 7.16 0 0 1-5.27-2.2 7.22 7.22 0 0 1-2.18-5.28c0-2.06.73-3.83 2.18-5.29a7.16 7.16 0 0 1 5.27-2.19c2.05 0 3.8.73 5.26 2.2a7.22 7.22 0 0 1 2.18 5.28Z" fill="#D43C04"/><path d="m24.26 33.86 2.42-2.18c.46-.42.66-.31.6.3-.04.41-.04.9 0 1.47.03.28.18.43.46.46 1.08.1 2.08.07 3-.09a2.78 2.78 0 0 0 2.2-1.58c.64-1.33.6-2.66-.08-3.99-.15-.29-.6-.83-1.34-1.64-.06-.06-.07-.13-.03-.2.56-1 .53-1.95-.1-2.85-.18-.26-.45-.5-.82-.74-.5-.3-.86-.46-1.11-.47-1.76-.02-2.87-.02-3.33-.01-1.15.04-1.98.47-2.49 1.3a3.5 3.5 0 0 0-.42 1.78 157.7 157.7 0 0 0 0 5.12c0 .23-.01.43-.04.6-.06.28.05.42.33.45.57.04.94.07 1.11.1.6.08.65.3.16.65-.4.3-.76.67-1.07 1.12a6.9 6.9 0 0 1-2.56-4.28 7 7 0 0 1 .45-4.11 6.94 6.94 0 0 1 2.45-3.01 6.88 6.88 0 0 1 3.65-1.26c1.73-.1 3.3.4 4.67 1.46a6.99 6.99 0 0 1 2.37 3.3c.46 1.33.52 2.68.19 4.05a6.93 6.93 0 0 1-2.2 3.64 6.85 6.85 0 0 1-3.88 1.7 6.81 6.81 0 0 1-4.6-1.1Z" fill="#FFCF2E"/><path d="m42.8 22.01.44 1.04c.15.36.05.48-.31.33-.05-.01-.14 0-.27.03-.08.03-.12.08-.12.17.03.79-.2 1.35-.7 1.68a1 1 0 0 0-.68.1c-.17.07-.3.12-.42.13a.24.24 0 0 0-.19.13c-.13.25-.18.59-.16 1l-.23-.22-.35-1.44c0-.24.03-.47.12-.69a.36.36 0 0 0 .01-.24l-.24-.82.88-.18c.15-.03.2-.11.12-.24l-.64-1.04a.37.37 0 0 0-.36-.2.34.34 0 0 0-.32.23c-.03.06-.1.13-.21.2-.2-.26-.24-.52-.1-.78.03-.08.1-.13.18-.14l1.12-.23c.08-.02.11.04.1.16l-.1.32c-.04.08-.01.14.07.18.5.22.94.51 1.32.88.07.06.14.08.22.07.28-.03.55-.18.81-.43Z" fill="#B8080A"/><path d="M13.03 21.13a.18.18 0 0 0-.07-.01c-.06 0-.08.03-.05.08.2.35.53.61 1.02.79.01.12-.02.2-.1.24-.44.24-.83.57-1.15 1.01a.43.43 0 0 0-.09.23l-.09 1.13c-.29-.1-.5-.25-.66-.44.22-.43.26-.88.1-1.36l.44-1.14.34-.55c.05-.1.15-.09.3.02Z" fill="#5C65B6"/><path d="m13.03 21.13 1.1.63c.09.07.02.15-.2.23a1.76 1.76 0 0 1-1.02-.79c-.03-.05-.01-.08.05-.08h.07Z" fill="#040408"/><path d="M14.89 21.3c.13.03.2.08.24.15.03.09.01.15-.05.21a.81.81 0 0 0-.3.74l-.22 1c-.3.03-.39.27-.26.72-.23.2-.24.4-.05.65.02.01.03.03.03.06.01.07 0 .12-.05.15a.2.2 0 0 1-.23 0l-.2-.11a.12.12 0 0 0-.13 0 .12.12 0 0 0-.06.12c.02.29-.16.45-.56.49-.08 0-.13-.03-.17-.1l-.38-.78.1-1.13c0-.08.03-.16.08-.23.32-.44.7-.77 1.15-1 .08-.05.11-.13.1-.25.22-.08.29-.16.2-.23l.76-.45Z" fill="#B23752"/><path d="m39.7 23.21-.31-.4-.22-.84c.11-.06.18-.13.21-.2a.34.34 0 0 1 .32-.22c.16 0 .28.06.36.2l.64 1.04c.07.13.03.2-.12.24l-.88.18Z" fill="#B74A05"/><path d="M15.12 22.38c.44.12.75.35.94.71.03.05.07.09.13.1l.09.03a.8.8 0 0 1 0 .28.19.19 0 0 1-.15.16l-.26.06c.58-.47.36-.47-.66-.02-.16.07-.29.08-.38.03a.72.72 0 0 1-.27-.33l.23-1c.2-.1.32-.1.33-.02Z" fill="#1250C6"/><path d="M24.26 33.86a6.54 6.54 0 0 1-.55-.4c.31-.45.67-.83 1.07-1.12.49-.35.43-.57-.16-.65-.17-.03-.54-.06-1.11-.1-.28-.03-.4-.17-.34-.44.04-.18.06-.38.06-.61a158 158 0 0 1-.01-5.12 3.5 3.5 0 0 1 .42-1.77c.51-.84 1.34-1.27 2.49-1.3.46-.02 1.57-.02 3.33 0 .24 0 .61.16 1.1.47.38.24.65.48.83.74.63.9.66 1.85.1 2.84-.04.08-.03.15.03.21.74.8 1.2 1.35 1.34 1.64.69 1.33.72 2.66.08 3.99a2.78 2.78 0 0 1-2.2 1.58c-.92.16-1.92.18-3 .09-.28-.03-.43-.18-.45-.46a8.01 8.01 0 0 1-.01-1.46c.06-.62-.14-.73-.6-.31l-2.42 2.18Z" fill="#FCF8E6"/><path d="M30.56 23.2c.83 1.3.82 2.45-.04 3.44-.07.1-.06.17.05.22a3.65 3.65 0 0 1 2 2.38c.33 1.1.18 2.12-.43 3.06a2.1 2.1 0 0 1-.96.82c-.24.1-.64.15-1.19.16-.76 0-1.52.08-2.29.21v-1.21c0-.1.04-.15.14-.15.96.02 1.69 0 2.2-.02.51-.04.88-.25 1.1-.63.55-1.02.39-1.94-.5-2.78-.11-.45-.4-.6-.86-.48-.66-.26-.89-.69-.69-1.27.57-.33.92-.82 1.04-1.45.06-.3.03-.4-.09-.27-.26-.3-.41-.6-.46-.9a1.97 1.97 0 0 0-1.23-.33l-1.02.01c-.59 0-1.03.01-1.33.03-.63.02-1.04.32-1.22.89a48.3 48.3 0 0 0 .01 6c-.25.17-.59.18-1 .01-.13-.05-.18.02-.17.2 0-2.07 0-4.03.02-5.88 0-1.13.34-1.88 1-2.27a4.63 4.63 0 0 1 2.16-.37c.94 0 1.76.02 2.46.07.5.04.93.2 1.3.5Z" fill="#1148FE"/><path d="M11.95 22.8c.15.48.11.93-.1 1.36h-.08a.15.15 0 0 0-.1.11c-.03.1-.04.2-.02.3-.13-.02-.19-.1-.17-.25a3.8 3.8 0 0 1 .47-1.52Z" fill="#B6688B"/><path d="M16.28 23.22a.56.56 0 0 1 .3 0c.05.02.08.06.1.1.02.05.03.1.02.15a12.81 12.81 0 0 0-.95 3.75c-.03 1.74.14 3.08.5 4.04.26.7.41 1.17.45 1.43a2.74 2.74 0 0 0-.93-.33l-.5-.1a1.04 1.04 0 0 0-.56-.78.3.3 0 0 1-.16-.18.56.56 0 0 1 0-.35c.04-.09 0-.14-.08-.16-.4-.09-.74-.33-1.01-.73-.05-.07-.12-.1-.2-.05-.18.08-.33.2-.48.36a.27.27 0 0 0-.07.22l.14 1.36-.98.3a.7.7 0 0 1-.17-.14.39.39 0 0 1-.09-.18 24 24 0 0 1-.33-1.8c0-.15.04-.25.13-.28.27-.43.4-.9.4-1.42 0-.3.05-.5.15-.6.14-.14.34-.25.6-.32.46.33.76.6.88.8.35.58.77 1.05 1.27 1.44a3 3 0 0 1 .49.42c.1.17.26.33.44.48.03.03.06.03.08 0l.08-.07c.09-.1.09-.19-.01-.28a37.2 37.2 0 0 1-2.6-2.73.15.15 0 0 1-.03-.17c.02-.07.07-.1.14-.1.25-.02.44.1.58.35.04.07.1.1.18.1h.14c.1 0 .12-.04.06-.12l-.31-.46 1.76-1.38c.1-.08.14-.18.12-.3a.31.31 0 0 0-.2-.27c-.46-.19-.84-.5-1.13-.95l.13-.26c.05-.09.11-.1.2-.04.06.06.13.08.21.08.06 0 .14-.03.22-.08.18-.1.38-.2.61-.25l.26-.06c.09-.02.14-.07.15-.16a.8.8 0 0 0 0-.28Z" fill="#1D66C9"/><path d="M27.7 33.5c.77-.14 1.53-.21 2.29-.22.55 0 .95-.06 1.2-.16.38-.17.7-.44.95-.82.6-.94.76-1.96.43-3.06a3.65 3.65 0 0 0-2-2.38c-.1-.05-.12-.12-.05-.22.86-1 .87-2.14.04-3.44 1.17 1.03 1.27 2.18.31 3.44-.06.07-.05.14.03.19l.1.07c.52.33.85.58 1 .76.76.88 1.1 1.91 1 3.1-.07.74-.31 1.37-.73 1.86-.44.53-1.02.83-1.73.93-.79.1-1.74.08-2.84-.06ZM15.87 23.72a2.4 2.4 0 0 0-.61.25.45.45 0 0 1-.22.08.33.33 0 0 1-.22-.08c-.08-.06-.14-.05-.19.04l-.13.26a.63.63 0 0 0-.2-.15c-.13-.45-.04-.69.26-.72.08.16.17.28.27.33.1.05.22.04.38-.03 1.02-.45 1.24-.45.66.02Z" fill="#10102E"/><path d="m41.49 23.77-.33.06c-.13.03-.16-.01-.07-.12.05-.06.1-.1.17-.1.17 0 .25.01.25.02.07.08.06.13-.02.14Z" fill="#3D1009"/><path d="M29.58 24.33a37.88 37.88 0 0 0-3.15-.1c-.66-.02-1.1.18-1.33.6-.05.17-.16.2-.32.1.18-.57.59-.87 1.22-.9a42.25 42.25 0 0 1 2.35-.03c.5-.01.9.1 1.23.33Z" fill="#040408"/><path d="M41.1 24.5c0 .2-.02.34-.08.4-.2.23-.28.19-.24-.1a2.14 2.14 0 0 0-.02-.6c-.05-.28.03-.32.24-.11.05.06.09.2.1.4Z" fill="#3D1009"/><path d="M11.84 24.16c.16.2.37.34.66.44l.38.78c.04.07.1.1.17.1.4-.04.58-.2.56-.49 0-.05.01-.1.06-.12.04-.03.09-.03.13 0l.2.11a.2.2 0 0 0 .23 0c.04-.03.06-.08.05-.15a.12.12 0 0 0-.03-.06c-.2-.24-.18-.46.05-.65.07.03.14.08.2.15.3.45.67.76 1.13.95.11.05.18.13.2.26a.31.31 0 0 1-.12.31l-1.76 1.38-.87-.04a.33.33 0 0 1-.3-.2l-1.13-2.36a.73.73 0 0 1 .01-.3c.02-.05.05-.09.1-.1.04-.02.06-.02.08 0Z" fill="#B8080A"/><path d="M41.66 24.6c.13-.09.19-.21.14-.29-.05-.08-.2-.07-.32 0-.12.09-.18.22-.13.3.05.07.19.07.31-.01Z" fill="#3D1009"/><path d="M11.48 24.32c-.02.14.04.23.17.25l1.13 2.36c.06.13.16.2.3.2l.87.04.32.46c.05.08.03.12-.07.12h-.14a.2.2 0 0 1-.18-.1c-.14-.26-.33-.37-.58-.35a.15.15 0 0 0-.14.1.15.15 0 0 0 .03.17 37.2 37.2 0 0 0 2.6 2.73c.1.1.1.18 0 .28l-.07.07c-.02.03-.05.03-.08 0a2.2 2.2 0 0 1-.44-.48 3 3 0 0 0-.49-.42c-.5-.39-.92-.86-1.27-1.43-.12-.2-.42-.48-.88-.81a3.73 3.73 0 0 0-1.21-1.86 2.64 2.64 0 0 1 .13-1.33ZM26.05 25.26c-.2 2.02-.21 4.01-.02 5.99-.4.08-.6.05-.6-.1 0-2.04 0-3.98-.02-5.8 0-.22.08-.41.24-.57a.75.75 0 0 1 .57-.22l2.68.05c.33 0 .52.13.58.4.05.22 0 .47-.17.73l-.3.48c-.11.16-.19.34-.23.53-.13.54-.06.96.2 1.28.14.19.45.4.92.64.64.32 1 .66 1.1 1 .08.28.1.58.08.92-.04.67-.39 1.07-1.05 1.2-.43.08-1.15.1-2.17.05-.1 0-.16-.05-.16-.16v-.33c0-.1.06-.16.17-.16h1.85c.14 0 .31-.09.52-.26.17-.15.24-.48.22-1v-.07a.26.26 0 0 0-.1-.2c-.14-.12-.4-.28-.77-.48a3.8 3.8 0 0 1-.92-.62c-.56-.6-.68-1.33-.37-2.17.13-.35.27-.68.43-1 .04-.1.01-.15-.1-.15l-2.58.02Z" fill="#072BB7"/><path d="m25.1 24.83-.01 6.36c0-.1 0-.18-.03-.27-.01-.06-.1-.06-.27 0a48.3 48.3 0 0 1-.01-6c.16.11.27.08.32-.1Z" fill="#033182"/><path d="M40.39 26.62c-.02-.41.03-.75.16-1 .04-.07.1-.12.19-.13.11-.01.25-.06.42-.14a1 1 0 0 1 .69-.09c-.3.18-.53.4-.7.65a1.1 1.1 0 0 0-.19.87c.13.64.36 1.16.7 1.57.08.09.15.08.2-.02.16-.26.31-.45.46-.56a.36.36 0 0 0 .13-.2c.04-.2.21-.4.5-.6.1-.06.15-.16.15-.27 0-.1-.04-.14-.13-.14h-.89c-.03 0-.05-.01-.06-.04v-.07c-.02-.04 0-.06.04-.07l.91-.07c.12 0 .15-.06.1-.17-.1-.2-.1-.47-.02-.78a.24.24 0 0 1 .15-.17c.13-.06.26-.1.37-.1.15-.02.16 0 .03.08-.12.07-.19.1-.2.12a.5.5 0 0 0-.25.51c.02.22.14.38.34.47l.38.17c.1.04.1.06-.01.06h-.48c-.09 0-.14.04-.14.14V27c0 .12.06.19.17.21l.51.12v.08c-.01.05-.03.06-.08.05-.53-.2-.93-.15-1.2.13-.22.21-.17.3.12.26.18-.02.33-.05.46-.08.12-.02.2.02.22.15l.02.09c.02.06-.01.1-.08.12a.5.5 0 0 0-.28.15.32.32 0 0 1-.23.1c-.5.01-.97.23-1.4.66-.03.04-.06.04-.1 0-.14-.1-.3-.18-.47-.23-.07-.02-.08-.05-.01-.08.28-.14.43-.31.45-.53a.1.1 0 0 0-.06-.11c-.05-.03-.1-.02-.13.02l-.28.27c-.2.2-.3.16-.33-.12l-.15-1.65Z" fill="#040408"/><path d="M11.3 25.2c0 .19 0 .34.05.45-.15 1.4-.13 2.8.06 4.2-.1.03-.13.13-.13.27-.38-1.63-.37-3.27.03-4.92Z" fill="#B6688B"/><path d="M29.1 26.95c.1-.59.41-1.16.94-1.72.12-.13.15-.04.09.27a2.08 2.08 0 0 1-1.04 1.45Z" fill="#5B87D3"/><path d="M26.05 25.26c.2 2 .19 4-.02 5.99-.2-1.98-.19-3.97.02-6Z" fill="#BAC2DE"/><path d="M27.75 26.73c-.02.4 0 .82.09 1.26.06.34.23.64.51.9.06.04.06.1.02.16a4.36 4.36 0 0 1-1.66 1.48.19.19 0 0 1-.19 0 .19.19 0 0 1-.1-.17c0-.53 0-1.7-.03-3.51 0-.15-.03-.47-.08-.94a.32.32 0 0 1 .08-.26.3.3 0 0 1 .24-.1h1.3c.07 0 .13.03.17.09.03.06.04.12 0 .19l-.08.16c-.17.36-.27.6-.27.74Z" fill="#FFCF2E"/><path d="M12.56 27.5c-.26.08-.46.19-.6.33-.1.1-.15.3-.15.6 0 .52-.13.99-.4 1.42-.18-1.4-.2-2.8-.06-4.2.6.51 1 1.13 1.21 1.86Z" fill="#B8080A"/><path d="m30.63 28.7-.85-.48c.46-.13.75.03.85.48Z" fill="#072BB7"/><path d="M41.23 31.97c-.2.04-.28.14-.21.32.07.18.24.38.51.6.02.01.03.04.03.06 0 .05-.03.09-.09.11a.15.15 0 0 1-.1.01c-.74-.18-1-.05-.78.41l-.3-.1c-.09-.04-.11-.1-.07-.18.15-.31.4-.46.72-.44.09 0 .13-.04.11-.12a.68.68 0 0 0-.24-.4.26.26 0 0 0-.23-.06l-.48.1c-.12.02-.2-.03-.25-.15-.07-.2.03-.38.28-.55a.32.32 0 0 0 .15-.2c.12-.44.3-.89.55-1.33.07-.11.18-.23.33-.33l.18-.14c.08-.07.08-.12.02-.17a.95.95 0 0 0-.7-.1c-.04 0-.07-.02-.07-.07v-.07l1.05-.08c.08 0 .15-.04.22-.08.16-.11.38-.04.66.2.03.04.03.07 0 .1-.02.03-.05.04-.08.02-.26-.17-.54-.15-.83.07-.1.07-.08.11.02.13.15.03.34.12.58.25l.02.05-.02.08c-.02.06-.05.08-.11.06-.26-.1-.55-.11-.86-.05a.48.48 0 0 0-.39.32c-.06.18 0 .3.16.34l.44.13c.02 0 .04.02.04.05 0 .02-.01.04-.04.05-.14.06-.33.05-.58-.03-.1-.03-.16 0-.2.1a.28.28 0 0 0-.02.13c.01.08.05.13.13.14l.44.1c.03.01.05.03.04.06 0 .04-.02.05-.05.05-.43-.02-.74.12-.94.41a.1.1 0 0 0 0 .12.1.1 0 0 0 .1.05 4 4 0 0 0 .58-.1c.2-.05.3 0 .28.13Z" fill="#040408"/><path d="m27.94 30.33 1.53-.76c.12-.06.22-.03.3.07l.27.35c.06.07.08.15.04.23l-.13.4a.23.23 0 0 1-.24.17l-1.66.02c-.13 0-.21-.07-.24-.2s.01-.22.13-.28Z" fill="#FFCF2E"/><path d="M15.28 32.26c-.24.06-.6.03-1.06-.11-.1-.03-.28.02-.56.15a.08.08 0 0 0-.05.07c0 .04 0 .07.04.09.1.07.26.25.46.55.19.27.36.38.52.31.33-.14.38-.07.15.22l-.22.3a.42.42 0 0 0-.07.26c0 .12.07.2.2.22 0 .08.04.14.1.17.08.05.15.05.21-.02l1.03-1.02c.06-.07.1-.14.1-.22.04-.34-.09-.58-.37-.74l.01-.13c.37.07.68.18.93.33a22.96 22.96 0 0 0 1.97 3.22c.1.12.33.26.7.41.07.04.13.09.18.15.06.09.13.2.2.37.14.28.29.48.45.6a11.97 11.97 0 0 0 7.44 2.66c1 0 2.25-.2 3.76-.6.77.42 8.15.79 2.68 3.77-.3.07-1.06.06-1.3.36l-1.88.19c-.49.04-.91-.02-1.28-.2-.19-.08-.35-.11-.48-.09-.1.03-.25.1-.42.25-.06.05-.06.1.02.13.06.03.18 0 .35-.07.08-.03.16-.05.24-.03.17.02.28.1.3.23l-.29.26-.89.49a.08.08 0 0 0-.04.08c0 .04.02.06.06.07l.17.06c-5.07.08-9.35-1.7-12.82-5.34a16.58 16.58 0 0 1-3.35-5.12 1.5 1.5 0 0 1-.12-.48l.61-.04c.09 0 .1-.03.02-.08-.23-.16-.3-.35-.18-.55.3-.52.31-1 .05-1.44l-.14-1.36c0-.08.02-.15.07-.22.15-.16.3-.28.48-.36.08-.04.15-.02.2.05.27.4.6.64 1 .73.1.02.13.07.1.16a.56.56 0 0 0 0 .35.3.3 0 0 0 .15.18c.3.16.5.42.57.78Z" fill="#1250C6"/><path d="M24.8 30.93c.15-.07.25-.07.26 0 .03.08.04.17.03.26-.73.17-1.22.15-1.47-.04 0-.19.04-.26.17-.2.41.16.75.15 1-.02Z" fill="#10102E"/><path d="M30.97 31.91c.06-.07.12-.09.18-.07.05.02.06.06.03.1-.06.09-.13.12-.2.08-.05-.02-.06-.06-.01-.11Z" fill="#5B87D3"/><path d="M12.85 31.95c.26.44.25.92-.05 1.44-.11.2-.05.38.18.55.08.05.07.07-.02.08l-.6.04a7.18 7.18 0 0 1-.57-1.71c0-.05.02-.08.08-.1l.98-.3Z" fill="#B8080A"/><path d="M41.23 31.97c.44.46.81.95 1.12 1.49.1.17.15.32.14.47-.01.22-.09.38-.24.47a.25.25 0 0 1-.1 0c-.08 0-.11-.05-.1-.13.11-.43.03-.64-.22-.63l-1.24-.16c-.22-.46.04-.6.79-.41h.1c.05-.03.08-.07.08-.12 0-.02 0-.05-.03-.06a1.56 1.56 0 0 1-.51-.6c-.07-.18 0-.28.21-.32Z" fill="#E9AC1A"/><path d="m15.28 32.26.5.1-.02.13-1.57-.06c-.1 0-.14.04-.14.14 0 .12.07.22.22.3.08.03.2.06.37.07.14 0 .23.03.27.05.05.03.09.07.1.12a.1.1 0 0 1 0 .1.25.25 0 0 0-.04.08.1.1 0 0 0 .03.1.3.3 0 0 1 .1.3.5.5 0 0 1-.15.2c-.12.13-.21.27-.26.43-.13-.03-.2-.1-.2-.22 0-.08.02-.16.07-.26l.22-.3c.23-.29.18-.36-.15-.22-.16.07-.33-.04-.52-.31-.2-.3-.35-.48-.46-.55a.09.09 0 0 1-.04-.09c0-.03.02-.06.05-.07.28-.13.46-.18.56-.15.47.14.82.17 1.06.11Z" fill="#10102E"/><path d="M15.76 32.49c.28.15.4.4.37.74a.37.37 0 0 1-.1.22L15 34.47c-.06.07-.13.07-.21.02-.06-.03-.09-.09-.1-.17.05-.16.14-.3.26-.42a.5.5 0 0 0 .14-.2.3.3 0 0 0-.09-.3.1.1 0 0 1-.03-.11c0-.03.02-.06.04-.09a.1.1 0 0 0 0-.1.21.21 0 0 0-.1-.1.75.75 0 0 0-.27-.06c-.16-.01-.29-.04-.37-.08-.15-.07-.23-.17-.22-.3 0-.09.05-.13.14-.13l1.57.06Z" fill="#FFCF2E"/><path d="m43.56 34.3-.4.73c-.12-.12-.22-.15-.3-.1-.05-.32-.02-.68.08-1.06a.37.37 0 0 1 .32-.3.26.26 0 0 0 .18-.12 1 1 0 0 0 .14-.5c0-.08.04-.13.13-.13h.08c.13 0 .2.07.17.21-.07.49-.2.91-.4 1.27Z" fill="#072BB7"/><path d="M15.87 32.96c.05.1-.07.21-.34.34-.05.02-.1.03-.14.02a.18.18 0 0 1-.11-.11.18.18 0 0 1 0-.16c.02-.04.06-.07.11-.09.28-.1.44-.1.48 0Z" fill="#040408"/><path d="M39.19 33.38a.87.87 0 0 0 .01.35c.02.08 0 .14-.07.19-.12.09-.2.18-.23.27-.02.1 0 .11.09.07.16-.08.25-.2.27-.33.02-.1.08-.14.18-.13l.37.06c.13.02.17.09.1.2l-.46.8a.1.1 0 0 1-.08.06l-.52.1c-.1.03-.11.07-.02.13.17.12.4.13.67.03l.92.84c.1.09.19.08.28 0l.09-.1c.04-.04.04-.08 0-.12l-.52-.52a.41.41 0 0 1-.11-.43l.03-.12c.05-.16.14-.2.28-.13.12.06.29.19.5.38.1.08.17.11.24.09.1-.04.15-.14.18-.32l1.52.45c.07.03.13 0 .18-.06l.06-.1.4-.74a5.3 5.3 0 0 1-1.16 2.2.26.26 0 0 0-.08.2c0 .08-.02.14-.05.18l-.1.11c-.27.47-.5.94-.71 1.42L40.2 39.9c-.11.02-.2.01-.28-.02-.1-.05-.12-.13-.05-.22a.78.78 0 0 1 .29-.2c.08-.05.08-.09-.02-.11a.62.62 0 0 0-.56.11.21.21 0 0 0-.09.21c.03.17-.07.31-.3.42-.08.04-.14.02-.19-.06l-.04-.07c-.04-.07-.03-.14.03-.2s.15-.1.25-.15c.18-.07.17-.11-.02-.12a1.4 1.4 0 0 0-.98.33.95.95 0 0 1-.23-.52c0-.08.03-.15.1-.2.52-.41.58-.9.18-1.48l.64.05c.19.16.35.18.48.05.23-.23.44-.47.62-.72.07-.1.07-.19 0-.28-.3-.4-.6-.72-.9-.93-.38.03-.68-.2-.9-.68l.96-1.72Z" fill="#1250C6"/><path d="M41.83 33.64c.25 0 .33.2.23.63-.02.08 0 .12.09.14l.1-.01c-.33.21-.12.4.61.54.08-.06.18-.03.3.1l-.07.1c-.05.06-.1.09-.18.06l-1.52-.45-.91-.72c-.16-.13-.29-.1-.39.08l-.59 1.07c-.27.1-.5.09-.67-.03-.1-.06-.09-.1.02-.13l.52-.1a.1.1 0 0 0 .08-.05l.46-.8c.07-.12.03-.19-.1-.21l-.37-.06c-.1-.01-.16.03-.18.13-.02.14-.11.25-.27.33-.08.04-.11.02-.09-.07.03-.1.1-.18.23-.27.07-.05.1-.11.07-.19a.87.87 0 0 1-.01-.35c.36 0 .67.12.93.35.07.06.2.1.4.15a.5.5 0 0 1 .23.1c.25.22.53.37.84.47.08.02.14 0 .16-.08.08-.23.1-.47.08-.73Z" fill="#10102E"/><path d="M41.4 34.75c-.04.18-.1.28-.19.32-.06.02-.15 0-.24-.1a2.78 2.78 0 0 0-.5-.37c-.14-.07-.23-.03-.28.13l-.03.12c-.05.16-.01.3.1.43l.53.52c.04.04.04.08 0 .12l-.1.1c-.08.08-.18.09-.27 0l-.92-.84.6-1.07c.09-.18.22-.2.38-.08l.91.72Z" fill="#E9AC1A"/><path d="m16.24 34.29-1.07.93c0 .1-.03.1-.12 0-.06-.1-.06-.17.01-.26.45-.47.84-.7 1.18-.67Z" fill="#040408"/><path d="m16.24 34.29.74.98c.15.2.14.4-.03.59-.18.2-.4.38-.67.54a.44.44 0 0 1-.24.07c-.14 0-.21-.07-.22-.19.18-.2.37-.4.58-.6.17-.15.22-.32.15-.48-.04-.08-.1-.11-.19-.09-.17.05-.32.12-.44.21-.35.2-.6.17-.75-.1l1.07-.93Z" fill="#FFCF2E"/><path d="M15.82 36.28c-.12.13-.2.11-.22-.07a.2.2 0 0 1 .07-.2c.62-.51.7-.74.25-.69.12-.1.27-.16.44-.2.09-.03.15 0 .19.08.07.16.02.33-.15.49-.21.19-.4.39-.58.6ZM39.13 35.78a1.7 1.7 0 0 0-.66.67.17.17 0 0 0-.01.13c.02.05.04.09.08.11.07.05.14.04.2-.02.13-.16.26-.26.37-.31.05-.02.08-.01.1.02.03.05.03.1-.01.14a.79.79 0 0 0-.25.53c0 .12.04.15.15.1.11-.06.2-.14.25-.25.06-.12.13-.14.23-.04l.05.05c.09.1.1.19.03.3-.1.14-.3.18-.6.1-.09-.02-.14.02-.16.1-.02.07 0 .15.03.25l-.64-.05c-.5-.27-.92-.1-1.3.5a.37.37 0 0 0 0 .42l.71 1.17c-.05.2-.28.26-.7.21l-.56-1.15c-.04-.08-.1-.11-.2-.09a.8.8 0 0 0-.46.34.3.3 0 0 1-.2.13l-.15.03a.47.47 0 0 0-.23.13c-.2.2-.44.33-.7.42-.02 0-.03.02-.02.05l.49 1.18c-.2.05-.4.06-.59.02-.02-.34-.14-.6-.34-.76-.23-.2-.47-.2-.72-.04-.6.4-.68.9-.25 1.5-.26.03-.47.1-.64.24l-.71.1c.1-.17.25-.33.44-.47.07-.05.06-.08-.02-.1-.42-.08-.71-.2-.89-.35a.8.8 0 0 1 .8-.48c.1 0 .14-.04.14-.13v-.09c0-.08-.04-.13-.12-.13a1.5 1.5 0 0 0-1.24.5.37.37 0 0 0-.09.23c0 .4.08.78.25 1.16-.17 0-.29-.11-.37-.32-.1-.3-.18-.56-.22-.77a.28.28 0 0 0-.13-.19c-.32-.22-.64-.3-.96-.23-.33.05-.6.17-.82.37-.07.06-.08.13-.02.21.06.08.13.13.22.16.08.02.14.08.16.16.04.14.03.3-.04.46-.1-.5-.28-.78-.55-.8-.4-.04-.43-.17-.08-.4.24-.15.58-.26 1.01-.33a.47.47 0 0 0 .23-.1c.34-.29.74-.33 1.2-.14.08.03.16.04.23 0l1.1-.43 3.86-2.14c.1.17-.05.4-.45.7a.27.27 0 0 0-.12.3l.03.14c.02.09.07.11.15.07.22-.13.48-.36.76-.68.06-.07.1-.14.1-.23.07-.45.27-.73.62-.84.17-.06.26-.18.25-.36 0-.41.12-.65.38-.71.06-.02.1 0 .15.04.03.03.07.05.1.05.08 0 .12-.03.12-.11-.01-.34.1-.65.33-.93.22.48.52.71.9.68Z" fill="#040408"/><path d="M38.93 37.66a.43.43 0 0 1-.03-.24c.02-.1.07-.13.16-.1.3.07.5.03.6-.12.07-.1.06-.2-.03-.29l-.05-.05c-.1-.1-.17-.08-.23.04a.53.53 0 0 1-.25.25c-.1.05-.16.02-.15-.1.01-.2.1-.38.25-.53.04-.04.04-.09 0-.14-.01-.03-.04-.04-.09-.02-.11.05-.24.15-.37.3-.06.07-.13.08-.2.03a.22.22 0 0 1-.08-.1.17.17 0 0 1 0-.14c.1-.23.32-.45.67-.67.3.21.6.53.9.93.07.1.07.19 0 .28-.18.25-.4.49-.62.72-.13.13-.3.11-.48-.05Z" fill="#E9AC1A"/><path d="m19.57 37.5-.39-.27a.37.37 0 0 0-.4-.02.38.38 0 0 0-.22.35c0 .3.05.59.14.86.1.34 0 .43-.32.28a1.8 1.8 0 0 1-.3-.25.1.1 0 0 0-.12-.01.16.16 0 0 0-.1.09c-.01.05-.01.1.02.14.26.38.56.61.92.69.17.03.26-.04.28-.2.06-.5.04-.9-.05-1.21-.05-.16 0-.22.17-.19.24.05.42.17.53.35l.99.29c-1.19.36-1.45 1.02-.78 2a.9.9 0 0 0-.47.11c-.1.06-.1.11-.01.17l.52.37c.03.02.04.05.04.09l-.02.06c-.01.01-.02.02-.03.01-.58-.14-1.01-.4-1.3-.75a1.5 1.5 0 0 0-.69-.52 4.56 4.56 0 0 1-1.4-.8c-.1-.07-.08-.12.04-.15.13-.02.26.03.39.16.02.02.05.03.08 0l.08-.03c.02-.02.03-.03.01-.06-.25-.33-.4-.7-.43-1.1a1 1 0 0 1 .27-.77 24.84 24.84 0 0 1 .9-.99.26.26 0 0 1 .24-.04c.6.16 1.05.43 1.37.78.16.18.17.37.04.56Z" fill="#040408"/><path d="M18.44 36.87c-.41.32-.79.72-1.13 1.21-.09.12-.15.11-.2-.02-.03-.09-.05-.2-.06-.32a.5.5 0 0 1 .15-.41l.88-.89c.13-.12.25-.12.36.02l.1.12c.07.08.04.18-.1.29Z" fill="#FFCF2E"/><path d="m36.59 36.58-.78 1.08-3.86 2.14-.55-.3c1.89-.8 3.62-1.78 5.19-2.92Z" fill="#5B87D3"/><path d="M38.3 36.92a.45.45 0 0 1 .25-.04c.1 0 .15.05.16.15a.4.4 0 0 1-.01.18c-.03.1-.1.13-.19.12a.41.41 0 0 1-.26-.13c-.1-.11-.08-.2.04-.28Z" fill="#033182"/><path d="M19.57 37.5c.2.2.26.4.16.61a.78.78 0 0 0-.53-.35c-.16-.03-.22.03-.17.19.09.3.1.71.05 1.2-.02.17-.1.24-.28.2-.36-.07-.66-.3-.92-.68a.14.14 0 0 1-.01-.14.16.16 0 0 1 .1-.1.1.1 0 0 1 .1.02c.15.14.26.22.31.25.32.15.42.06.32-.28a2.9 2.9 0 0 1-.14-.86c0-.16.07-.27.21-.35a.37.37 0 0 1 .42.02l.38.27Z" fill="#FFCF2E"/><path d="M28.38 37.97a.53.53 0 0 1-.24.02.6.6 0 0 1 .1-.56c.04-.07.1-.09.15-.06.09.04.12.1.1.2l-.11.4Z" fill="#BAC2DE"/><path d="M38.29 37.61c.4.57.34 1.07-.19 1.48a.22.22 0 0 0-.09.2c.02.19.1.36.23.52-.02.15-.08.22-.17.22-.18-.03-.3-.14-.37-.33l-.7-1.17a.37.37 0 0 1 0-.41c.37-.61.8-.78 1.29-.51Z" fill="#E9AC1A"/><path d="M37.5 38.52c.12.22.35.32.52.22.17-.1.2-.35.08-.57-.13-.21-.36-.3-.53-.21-.17.1-.2.35-.08.56Z" fill="#10102E"/><path d="M20.72 38.4c.73.37 1.05.84.97 1.4-.08.6-.36.92-.86.98-.24.03-.54-.1-.89-.39-.67-.97-.41-1.63.78-2Z" fill="#FFCF2E"/><path d="M37 39.91c0 .09-.01.16-.05.2-.03.03-.09.04-.19.05-.19-.18-.33-.4-.44-.69a.27.27 0 0 0-.11-.14.56.56 0 0 0-.19-.07c-.1-.02-.15.02-.14.12.02.44.17.73.42.88-.11.26-.29.4-.52.4 0-.33-.06-.55-.16-.68-.3-.39-.47-.34-.5.16-.02.2.1.43.33.69-.17.28-.33.32-.48.12l-.49-1.18c-.01-.03 0-.04.02-.05.26-.09.5-.23.7-.42.06-.07.14-.1.23-.13l.16-.03a.3.3 0 0 0 .2-.13.8.8 0 0 1 .46-.34c.08-.02.15 0 .19.09L37 39.9Z" fill="#E9AC1A"/><path d="M21.17 39.46a.53.53 0 0 0-.33.39.21.21 0 0 1-.15.16.21.21 0 0 1-.18-.03c-.05-.03-.1-.1-.13-.24-.06-.19-.14-.3-.23-.37.06-.18.16-.3.3-.37a.42.42 0 0 1 .4-.02c.18.08.28.25.32.48Z" fill="#072BB7"/><path d="m36.76 40.16.57.1c.1.02.1.06.03.12-.36.3-.7.26-1.06-.12-.25-.15-.4-.44-.42-.88 0-.1.04-.14.14-.12.07 0 .13.03.19.07.05.03.09.08.11.14.1.28.25.51.44.69ZM40.2 39.9l-.32.24a.16.16 0 0 0-.13.13c-.16.09-.26.18-.3.28-.57.04-.94.01-1.12-.07-.33-.17-.42-.32-.26-.45.1 0 .15-.07.17-.22.3-.24.62-.35.98-.33.2 0 .2.05.02.12-.1.04-.19.1-.25.15-.06.06-.07.13-.02.2l.03.07c.05.08.1.1.19.06.23-.1.33-.25.3-.42a.21.21 0 0 1 .09-.21.62.62 0 0 1 .56-.11c.1.02.1.06.02.1a.78.78 0 0 0-.29.21c-.07.1-.05.16.05.22.08.03.17.04.28.02Z" fill="#040408"/><path d="M20.15 39.37c.09.06.17.19.23.37.04.13.08.21.13.24.05.04.11.05.18.03a.21.21 0 0 0 .15-.16c.06-.2.16-.32.33-.39.03.21-.01.4-.12.58-.1.17-.24.26-.4.28-.2.01-.36-.08-.47-.29a.8.8 0 0 1-.03-.66Z" fill="#10102E"/><path d="M23.28 39.81c-.33-.02-.54.1-.65.34-.1.23-.07.5.06.78.08.18.2.2.39.09.12-.09.12-.18.02-.28a.29.29 0 0 1-.1-.3c.02-.07.1-.12.22-.13.17-.01.3.04.36.14.04.07.05.15.01.23-.18.4-.48.75-.9 1.02.05 0 .02.03-.1.08a.28.28 0 0 1-.12-.03c-.08-.05-.1-.11-.05-.2a.9.9 0 0 1 .25-.24c.05-.04.06-.09.02-.14-.32-.41-.42-.78-.3-1.1.06-.17.18-.3.34-.38.22-.12.4-.08.55.12Z" fill="#040408"/><path d="M38.07 40.03c-.16.13-.07.28.26.45.18.08.55.1 1.12.07l-2.44 1.87c-.16-.2-.34-.27-.53-.23-.12.03-.3.12-.52.29-.34.24-.59.33-.76.27-.08-.02-.09-.06-.03-.12l.1-.1c.06-.06.05-.1-.03-.1a.21.21 0 0 0-.16.06c-.42.35-.9.55-1.46.6v-.25l.66-.15c.08-.01.1-.06.05-.12a.23.23 0 0 0-.08-.06c0-.03.06-.07.16-.1.1-.04.1-.14.02-.33.53.03.99-.13 1.37-.48.06-.06.05-.1-.04-.12l-.15-.02h-.02c-.46.31-.9.3-1.35-.02l.14-.47c.2.04.39.04.58-.02.16.2.32.16.49-.12.15-.05.26-.1.33-.17.23 0 .4-.14.52-.4.35.38.7.43 1.06.12.08-.06.07-.1-.03-.12l-.57-.1c.1 0 .16-.02.19-.05.04-.04.05-.11.05-.2.42.05.65-.02.7-.21.07.19.2.3.37.33Z" fill="#033182"/><path d="M35.78 40.66a.83.83 0 0 1-.33.17c-.24-.26-.35-.5-.33-.7.03-.49.2-.54.5-.15.1.13.15.35.16.68Z" fill="#040408"/><path d="M23.28 39.81c.58.2.81.54.7 1.03-.09.43-.36.78-.82 1.06-.1.07-.26.06-.45-.02a.28.28 0 0 0-.02-.18c.41-.27.72-.61.9-1.02a.23.23 0 0 0-.01-.23c-.07-.1-.19-.15-.36-.14-.13.01-.2.06-.22.14-.02.11 0 .21.1.3.1.1.1.18-.02.27-.18.12-.31.1-.4-.09-.12-.29-.14-.55-.05-.78.1-.25.32-.36.65-.34Z" fill="#FFCF2E"/><path d="m34.38 40.97-.14.47-.33.29c-.28.2-.56.18-.84-.06-.43-.6-.34-1.1.25-1.5.25-.16.49-.15.72.04.2.17.32.42.34.76Z" fill="#E9AC1A"/><path d="M25.24 40.4c-.32 0-.53.1-.61.32-.15.36-.24.83-.28 1.42-.35-.53-.27-1.1.24-1.7.25-.3.46-.31.65-.04Z" fill="#10102E"/><path d="M31.25 41.1c-.06.6.1.9.47.91l.71-.1c-.03.3-.26.47-.7.52-.36.04-.61-.05-.74-.28a2.78 2.78 0 0 1-.25-1.16c0-.09.04-.17.1-.24.3-.34.7-.5 1.23-.49.08 0 .12.05.12.13v.09c0 .09-.04.14-.14.13a.8.8 0 0 0-.8.48Z" fill="#E9AC1A"/><path d="M25.24 40.4c.35.1.56.29.64.58.07.25.04.55-.1.88a1.1 1.1 0 0 1-.48.6c-.35.19-.67.09-.95-.32.04-.59.13-1.06.28-1.42.08-.22.29-.32.61-.32Z" fill="#FFCF2E"/><path d="M27.04 40.61c-.48.22-.71.62-.68 1.2-.06-.17-.1-.33-.13-.49a.66.66 0 0 1 .06-.47c.16-.28.41-.36.75-.24Z" fill="#040408"/><path d="M33.64 40.54h-.04a.28.28 0 0 0-.28.28v.33c0 .16.13.29.28.29h.04c.16 0 .28-.13.28-.29v-.33a.28.28 0 0 0-.28-.28Z" fill="#10102E"/><path d="M26.36 41.8c-.03-.57.2-.97.68-1.19.4.07.64.27.71.6.09.4.08.75-.03 1.05-.12.36-.36.57-.72.61a.51.51 0 0 1-.4-.11.5.5 0 0 1-.18-.36l-.06-.6ZM29.31 40.64l.03 2c0 .16-.07.24-.22.24h-.13c-.16 0-.22-.08-.18-.24.06-.22.06-.43 0-.64a.66.66 0 0 0 .04-.46.23.23 0 0 0-.16-.16.41.41 0 0 1-.22-.16c-.06-.08-.05-.15.02-.21.21-.2.49-.32.82-.37Z" fill="#FFCF2E"/><path d="M24.9 41.46c-.08.35-.03.65.1.68.13.03.3-.22.38-.57.08-.34.04-.64-.1-.67-.13-.03-.3.22-.38.56Z" fill="#040408"/><path d="M31.25 41.1c.18.14.47.26.89.35.08.01.09.04.02.1-.2.13-.34.29-.44.46-.37-.01-.53-.32-.47-.92Z" fill="#033182"/><path d="M37.16 41.38h.17c.13 0 .15.05.08.15-.05.07-.14.1-.26.1-.3-.02-.55-.14-.78-.36-.16-.16-.13-.2.1-.14l.44.2a.6.6 0 0 0 .25.05Z" fill="#10102E"/><path d="M27.37 41.84c-.02.2-.1.4-.24.56a.13.13 0 0 1-.15.04.13.13 0 0 1-.1-.12 3.43 3.43 0 0 1 .1-1.04c0-.06.05-.1.1-.1.07-.02.11 0 .15.06a1 1 0 0 1 .14.6ZM34.43 42.08c-.3-.06-.48-.18-.52-.35l.33-.3c.44.33.9.34 1.35.03h.02l.15.02c.1.02.1.06.04.12-.38.35-.84.5-1.37.48Z" fill="#040408"/><path d="M22.69 41.7c.03.05.03.12.02.18-.06 0-.1-.04-.13-.1.13-.05.16-.08.1-.08Z" fill="#696868"/><path d="m37.01 42.42-.18.13h-.62a.34.34 0 0 0-.23.08c-.37.3-.77.44-1.18.4-.25-.02-.45.01-.6.1-.52.3-1 .46-1.42.5.25-.3.53-.48.84-.54a2.5 2.5 0 0 0 1.46-.6c.05-.04.1-.06.16-.06.08 0 .1.04.04.1l-.11.1c-.06.06-.05.1.03.12.17.06.42-.03.76-.27.23-.17.4-.26.52-.29.2-.04.37.03.53.23ZM34.25 42.51l.08.06c.05.06.03.1-.05.12l-.66.15a.3.3 0 0 1-.19-.03c-.1-.05-.1-.1 0-.16.22-.14.5-.18.82-.14Z" fill="#040408"/><path d="M36.83 42.55a17.42 17.42 0 0 1-7.54 2.4c-.11-.16-.1-.38.05-.65l.3-.26c.53.02.95-.05 1.26-.22l1.88-.2c.42-.03.9-.2 1.42-.5.15-.08.35-.1.6-.08.41.03.8-.1 1.18-.41a.34.34 0 0 1 .23-.08h.62Z" fill="#B8080A"/><path d="M30.9 43.82c-.31.17-.73.24-1.26.22-.03-.13-.14-.21-.3-.23a.43.43 0 0 0-.25.03c-.17.08-.29.1-.35.07-.08-.03-.08-.08-.02-.13.17-.14.32-.22.42-.25.13-.02.29 0 .48.1.37.17.8.23 1.28.19Z" fill="#10102E"/><path d="M29.34 44.3c-.14.27-.16.49-.05.64l-.65.06-.17-.06a.07.07 0 0 1-.06-.07c0-.04 0-.06.04-.08l.9-.5Z" fill="#040408"/><path fill-rule="evenodd" d="M38.77 32.33a11.57 11.57 0 0 0 0-8.9 11.5 11.5 0 0 0-6.27-6.28 11.45 11.45 0 0 0-8.86 0 11.5 11.5 0 0 0-7.15 10.74 11.57 11.57 0 0 0 3.4 8.21 11.45 11.45 0 0 0 8.18 3.4 11.45 11.45 0 0 0 8.19-3.4 11.5 11.5 0 0 0 2.51-3.77Zm-10.79 6.59c6.08 0 11-4.95 11-11.05 0-6.1-4.92-11.05-11-11.05s-11 4.95-11 11.05c0 6.1 4.92 11.05 11 11.05Z" fill="#B8080A"/><path fill-rule="evenodd" d="m28.37 17.85.17.16a.75.75 0 0 0 0-.41.14.14 0 0 0-.14-.1H27.1a.05.05 0 0 0-.05.03l.01.05c.1.11.14.26.1.43l-.04 1.4c0 .05.03.08.08.08h1.34c.06 0 .1-.03.1-.1l.01-.3c0-.14-.02-.15-.09-.03-.14.23-.4.34-.77.32-.1 0-.14-.06-.14-.15v-.58c0-.06.03-.1.1-.08.12.02.19.1.21.24 0 .05.03.07.08.07h.03a.07.07 0 0 0 .04-.07l.03-.57c0-.06-.01-.1-.05-.14-.05-.04-.07-.02-.07.04v.1a.17.17 0 0 1-.07.1.37.37 0 0 1-.23.04c-.05 0-.07-.03-.07-.08v-.56c0-.08.04-.13.12-.13a.7.7 0 0 1 .6.24Zm1.47.87.37-.26a.29.29 0 0 0-.23-.09c-.05 0-.07.03-.07.07 0 .08-.04.13-.13.17-.03.02-.06.01-.08-.02a.2.2 0 0 1 .01-.21c.03-.05.02-.08-.03-.09l-.5-.1.4 1.17c.02.03.02.07 0 .1-.04.09-.01.14.07.16.17.04.33.06.46.05.03 0 .04-.02.03-.06l-.34-.75c-.03-.06-.01-.1.04-.14Zm-4.25-.17-.03.17c-.01.05-.04.07-.08.04-.08-.04-.13-.13-.17-.26 0-.06.05-.08.14-.08.1.01.15.05.14.13Zm6.16.47v-.2c-.27-.26-.54-.32-.81-.17a.86.86 0 0 0-.38.74c.01.28.1.46.29.54.16.08.37.07.62-.03.05-.03.05-.05 0-.07l-.33-.1c-.13-.03-.19-.11-.18-.24.01-.26.07-.5.17-.7a.14.14 0 0 1 .1-.08c.06-.02.1.01.12.09l.04.3c0 .03.03.06.07.08.07.03.13.03.2 0 .05-.03.09-.08.1-.16Zm-6.86-.32c.13.28.32.48.58.6.04.02.06.05.06.09v.46c.03.18-.02.2-.14.07l-.96-1.05c.07-.13.22-.19.46-.18Zm-.93.53.27-.24c-.3.05-.46 0-.47-.16 0-.06-.04-.09-.1-.09h-.05c-.05 0-.08.03-.07.08 0 .17-.04.33-.14.48l.44.71c.1.17.2.28.26.32.15.09.3.05.47-.12a.07.07 0 0 0 .01-.07.07.07 0 0 0-.05-.05L24.3 20a.09.09 0 0 1-.07-.06c-.04-.19-.14-.4-.28-.63-.02-.03-.02-.06.01-.09Zm-1.1.06c-.08.17-.2.21-.4.13a.23.23 0 0 1-.09-.12c-.02-.1.01-.18.11-.23a.27.27 0 0 1 .26 0c.08.04.12.11.11.22Zm6.2.25c.13.03.21.03.25 0 .03-.03.04-.12.02-.25a.07.07 0 0 0-.04-.06.06.06 0 0 0-.06 0 .61.61 0 0 0-.21.2.07.07 0 0 0-.01.07c0 .02.02.04.05.04Zm3.93.34c.03-.14.03-.32 0-.55-.16-.2-.35-.29-.55-.27-.34.14-.56.36-.64.66-.07.23-.03.43.11.6.17.19.4.23.72.13.18-.06.17-.1-.02-.12l-.2-.03c-.11-.01-.18-.07-.19-.17a.89.89 0 0 1 0-.34.14.14 0 0 1 .1-.1.14.14 0 0 1 .12.02l.36.25c.03.02.07.03.11 0a.12.12 0 0 0 .08-.08Zm-.2-.53c.05.1-.01.23-.14.29-.13.05-.27.02-.31-.08-.05-.1.02-.23.15-.3.12-.05.26-.01.3.09Zm1.1 2.2.79-.99.34-.4c.07-.09.06-.16-.03-.22l-.1-.06c-.08-.06-.15-.05-.21.03l-.94 1.18c-.09.11-.2.12-.32.03-.13-.1-.15-.21-.06-.34l.84-1.25c.06-.08.04-.15-.04-.21l-.11-.08c-.08-.05-.14-.04-.19.04l-.22.36-.79 1.16v.02c.44.25.77.5.97.73.03.03.05.03.08 0Zm-10.96-2-.27.18a.07.07 0 0 0-.02.1l.68 1.04c.02.03.06.04.1.02l.26-.18a.07.07 0 0 0 .02-.1l-.68-1.04a.07.07 0 0 0-.1-.02Zm.1 1.56-1.04-1.47c-.15-.07-.28-.02-.4.15-.03.03-.03.06 0 .08l.37.44.66 1.05c.03.05.07.06.12.02l.26-.18c.04-.02.05-.06.02-.1Zm2.44-.85c.02 0 .03 0 .04.02v.02a.3.3 0 0 1-.07.22.27.27 0 0 1-.2.1l-.03.01a.27.27 0 0 1-.21-.07.3.3 0 0 1-.1-.2v-.02c0-.02 0-.03.02-.03l.55-.05Zm10 .97c-.1-.12-.25-.17-.46-.17a.98.98 0 0 0-.63.43c-.16.24-.14.48.07.71.09.1.24.17.45.2.02 0 .04 0 .05-.03l.01-.03c0-.03 0-.05-.03-.06a.71.71 0 0 1-.21-.14c-.1-.1-.1-.25.04-.45.11-.16.23-.29.37-.37.08-.05.15-.05.22.02l.05.05c.03.03.04.06.03.1 0 .04-.02.07-.05.09a.53.53 0 0 1-.24.1.07.07 0 0 0-.06.05c-.02.03 0 .06.02.09.12.12.25.16.38.13.15-.31.15-.55 0-.72Zm-13.11.41-.9-.76a.44.44 0 0 0-.33.11c-.13.11-.24.26-.33.43-.09.17-.06.29.08.35l.34.03c.05 0 .07.02.07.06.03.28.1.46.23.54.08.05.15.03.2-.05.17-.26.38-.46.63-.62.04-.03.05-.06 0-.09Zm-.95.02c.04 0 .07.03.08.07l.06.19a.1.1 0 0 0 .09.08c.1.02.16-.02.2-.1.05-.1.03-.18-.07-.23a.74.74 0 0 1-.4-.38.16.16 0 0 0-.1-.1.16.16 0 0 0-.14.03c-.07.05-.1.1-.12.16-.03.17.1.26.4.28Zm14.36 2.12.94-.66-.5-1.01c-.02-.05-.05-.05-.1-.02l-.34.3-.63.37c-.1.06-.1.13-.03.21l.14.14c.06.06.12.06.18 0 .17-.16.4-.32.67-.47.11-.06.2-.03.24.08l.02.04c.04.09.02.16-.06.2-.3.2-.56.35-.8.45-.06.03-.08.08-.03.14l.15.2c.04.06.09.07.15.03ZM20.5 22.25l.78.45c.07.04.08.1.03.16-.15.2-.3.43-.42.67-.08.18-.22.21-.4.12-.3-.16-.6-.35-.9-.55.03-.14.1-.23.2-.28a.19.19 0 0 1 .2 0l.63.44a.2.2 0 0 0 .23 0l.05-.02a.12.12 0 0 0 .07-.1c0-.04-.01-.08-.05-.1a3 3 0 0 0-.86-.54c-.05-.02-.06-.05-.05-.1a.48.48 0 0 1 .13-.2c.06-.04.11-.05.18-.03l.18.08Zm16.84 2.44c.18-.42.05-.7-.37-.86-.36-.05-.64.04-.82.27a.6.6 0 0 0-.14.48c.03.19.14.34.33.45.17.1.2.07.1-.1l-.1-.13c-.07-.1-.06-.21.03-.31.24-.27.5-.38.8-.35.04 0 .06.02.07.05v.08l-.26.32c-.04.04-.03.08.01.11.1.06.21.06.35 0Zm-17.18-.49a1.27 1.27 0 0 0-.78-.52c-.27.01-.5.09-.7.23a1.01 1.01 0 0 0-.37 1.15c.08.23.23.43.46.6.36.2.72.18 1.07-.04.32-.2.58-.38.8-.55.18-.15.3-.34.35-.59v-.03l-.04-.01c-.02 0-.04 0-.05.02-.11.15-.24.26-.4.34-.05.03-.09.01-.11-.04l-.07-.19c-.05-.17-.1-.3-.16-.37Zm.01.85c-.09.28-.55.39-1.04.23-.48-.16-.8-.51-.71-.8.09-.28.55-.39 1.04-.23.48.16.8.51.71.8Zm17.3.13c.36.22.46.48.31.8-.1.21-.26.26-.48.15l-.15-.49a.12.12 0 0 0-.08-.08.12.12 0 0 0-.12.02.66.66 0 0 0-.21.42c-.01.04 0 .08.02.11.02.04.08.1.16.16.04.04.04.05-.02.05-.15 0-.27-.08-.36-.23a.68.68 0 0 1-.1-.44c.02-.2.15-.34.4-.43.21-.07.42-.08.63-.04Zm.18.6a.18.18 0 0 1-.06.07c-.1.05-.2.03-.26-.07-.07-.11-.1-.2-.06-.24.03-.05.1-.06.24-.05.12.02.18.08.18.2a.2.2 0 0 1-.04.1Zm.2 3.46a.82.82 0 0 0-.63-.27c-.34-.02-.57.1-.67.38-.1.27-.17.54-.21.8-.01.08.02.13.1.14l1.38.3c.1-.24.15-.49.17-.75.03-.25-.02-.45-.14-.6Zm-1.05.52c-.01.07.01.1.08.12l.64.14c.07.01.1-.01.12-.08v-.04a.31.31 0 0 0-.04-.25.35.35 0 0 0-.22-.15l-.16-.03a.34.34 0 0 0-.26.04.3.3 0 0 0-.15.2v.05Zm-18.13.8c-.24 0-.38-.1-.43-.32l-.24-.9c0-.03 0-.06.04-.08.13-.07.28-.11.44-.14l.9-.2c.04-.01.08 0 .12.03.04.02.06.06.07.1l.15.98c0 .08-.01.14-.06.2a.22.22 0 0 1-.18.08h-.32a.14.14 0 0 0-.1.03c-.11.1-.25.17-.4.21Zm.55-.7c-.1 0-.18-.08-.2-.2 0-.1.06-.2.16-.22.1 0 .18.08.2.2 0 .1-.06.21-.16.22Zm-.63-.28h.02c.07-.02.13.03.15.1l.03.23a.13.13 0 0 1-.11.15h-.02a.13.13 0 0 1-.15-.11l-.03-.22a.13.13 0 0 1 .1-.15Zm19 1.38a.3.3 0 0 1 .07.12v.09l-.4.97c-.03.08-.09.1-.17.07l-1.03-.44c-.02 0-.03 0-.03.02-.04.19-.1.37-.2.54-.01.03 0 .05.02.07l.86.59c.08.06.09.13.01.2l-.1.11c-.09.09-.18.1-.28.03l-.68-.47c-.04-.03-.07-.03-.1 0a.75.75 0 0 0-.12.12c-.09.12-.17.18-.26.18l-.13-.06c-.08-.03-.1-.09-.05-.16l.65-1c.13-.18.23-.4.29-.63.02-.1.1-.32.21-.66.04-.1.1-.13.19-.1l.04.01c.09.03.12.08.1.17l-.19.63c-.01.05 0 .07.06.07.03 0 .06 0 .1-.02a.14.14 0 0 0 .08-.07c.06-.12.12-.27.18-.45.03-.1.1-.13.2-.1l.03.01c.06.02.08.06.08.12-.03.19-.09.37-.19.53-.05.1-.03.15.07.18l.04.02c.1.02.17-.01.2-.1l.2-.55c.04-.1.12-.1.25-.04Zm-18.95-.1 1.15.01c.26 0 .4.11.43.32.01.11-.03.2-.11.29l-1.04.94c-.14-.03-.2-.09-.2-.2l.11-.4c.02-.05 0-.15-.07-.31-.03-.07-.11-.15-.26-.24-.1-.07-.17-.12-.2-.16a.12.12 0 0 1-.03-.11c.02-.11.1-.16.22-.14Zm.55.55c-.01-.04 0-.06.03-.07h.02c.11-.05.22-.08.3-.09.1 0 .15 0 .16.04l.01.02c.01.04-.02.08-.09.14-.07.05-.16.1-.28.15h-.02c-.03.02-.05.01-.06-.02l-.07-.17Zm.78 2.36a1.9 1.9 0 0 1-.75-1.09l1.08-.64c.14-.08.26-.06.36.07l.01.01c.1.13.08.23-.05.3l-.83.5c-.04.03-.04.06-.02.1l.3.36c.08.09.1.15.09.2-.02.07-.09.13-.2.19Zm15.95.28-.83-.7a.65.65 0 0 0-.23-.17.1.1 0 0 0-.1.01.58.58 0 0 0-.2.23c-.02.04-.02.07.01.1l.7.6.34.27c.08.06.15.06.21-.02l.12-.15c.04-.06.04-.11-.02-.17Zm-.92.4.31.36c.03.03.04.07.04.12-.01.05-.04.09-.08.11l-.04.03c-.07.04-.14.03-.2-.03l-.37-.43c-.28-.3-.33-.28-.13.1l.3.57c.02.06.02.12-.03.17-.05.07-.1.1-.16.1-.05.01-.1 0-.17-.05l-.54-.36c-.25-.16-.28-.13-.09.1l.42.48c.06.06.06.13 0 .2-.04.06-.12.1-.22.1l-.9-1.06c-.02-.03-.02-.06 0-.09l.31-.38c.03-.04.07-.05.1-.01.22.18.43.33.64.44.08.04.1.02.06-.06l-.29-.64a.06.06 0 0 1 .01-.08l.28-.35c.05-.05.1-.05.14 0l.61.66Zm-12.78.43c-.1.1-.23.14-.35.1-.08-.02-.19-.1-.33-.2l-.15-.12c-.07-.05-.14-.03-.19.03l-.12.15c-.12.15-.23.15-.35 0-.11-.13-.11-.24 0-.32l.78-.85c.06-.07.13-.08.2-.02l.68.56c.03.03.05.06.05.1.02.22-.06.41-.22.57Zm-.47-.34c.13.03.25-.03.27-.13.02-.1-.06-.2-.19-.23s-.25.03-.27.13c-.02.1.07.2.2.23Zm1.4 2.06c-.09.05-.18.04-.29-.04-.1-.08-.13-.17-.07-.3.02-.01.05-.07.1-.15.12-.21.07-.36-.17-.44-.1-.03-.18 0-.24.09l-.16.23c-.06.1-.15.11-.24.05l-.1-.08c-.1-.06-.11-.14-.05-.23l.44-.7.24-.36c.06-.09.13-.1.21-.04l.15.1c.09.06.1.13.04.22l-.17.26c-.03.04-.03.08.01.11.13.1.24.18.33.2.03.02.06.01.09-.02l.18-.28c.06-.08.13-.1.22-.04l.15.1c.08.06.09.13.04.2l-.72 1.12Zm10.29-.14c.11-.06.16-.13.15-.21l-.7-1.1c-.07-.1-.16-.13-.27-.06l-.09.05c-.1.06-.12.14-.06.24l.65 1.02c.07.12.18.14.32.06Zm-.6.13c.04.04.05.08.05.12 0 .04-.03.07-.07.1l-.94.42c-.09.05-.15.02-.2-.07l-.3-.71-.19-.45c-.05-.13-.01-.2.12-.24l.1-.04c.1-.03.18 0 .23.11l.4.87c.03.08.08.1.15.05l.36-.25c.11-.07.2-.04.29.09Zm-7.92.77c.02.09-.05.11-.21.08a.21.21 0 0 1-.16-.12l-.11-.25a.32.32 0 0 0-.2-.17.34.34 0 0 0-.28.02.5.5 0 0 1-.26.05c-.19-.01-.27-.08-.23-.2l.83-.95c.12-.14.28-.17.47-.08.17.08.25.21.23.4l-.08 1.22Zm-.45-1.1a.06.06 0 0 1 .06 0c.02.01.03.03.03.05v.23c0 .08-.04.11-.11.09l-.16-.05c-.07-.02-.09-.06-.05-.12a.6.6 0 0 1 .23-.2Zm4.33 1.48v.16c0 .05-.02.08-.07.08h-.2c-.06 0-.09-.03-.09-.08v-.56c-.02-.22-.07-.23-.15-.03-.05.14-.09.33-.12.57a.1.1 0 0 1-.06.08.68.68 0 0 1-.3.04c-.04 0-.07-.03-.07-.07a9.97 9.97 0 0 0-.12-.74c-.05-.2-.08-.2-.1 0-.02.16-.02.36-.01.62 0 .09-.04.14-.13.15-.2.03-.31-.02-.31-.14l.03-1.36c0-.05.02-.07.07-.08.17-.02.33 0 .5.05.04.01.07.04.08.08l.18.61c.01.05.04.06.08.05.03 0 .04-.02.05-.05.03-.25.07-.43.13-.56a.12.12 0 0 1 .08-.08c.18-.05.36-.05.54-.02.05.01.08.05.07.1l-.08 1.18ZM18.66 36.5l.11.01a.24.24 0 0 0-.06-.08l-.05.07Zm7.65 1.33c.14.09.28.1.42.03l-.18-.6a.08.08 0 0 1 .02-.1c.14-.12.22-.22.26-.29.12-.24.06-.41-.2-.52-.26-.13-.6-.22-.99-.26-.04 0-.06 0-.07.05l-.29 1.34c.03.13.1.2.25.2.16.02.24-.06.24-.22v-.23c0-.05.03-.08.09-.09.1 0 .17.04.2.13.04.09.06.2.08.31.01.1.07.19.17.25Zm.1-1.12c-.02.09-.15.14-.3.12-.14-.03-.24-.13-.23-.22.02-.1.15-.15.3-.12.14.03.25.12.23.22Zm3.78-.07.54.93c.02.03.02.06-.02.09-.12.08-.24.08-.36 0-.2-.11-.35-.15-.48-.11a.66.66 0 0 0-.27.2c-.13.17-.27.23-.4.2-.03-.01-.05-.04-.05-.08 0-.06.01-.11.03-.17l.2-1.2c0-.04.02-.07.04-.1a.46.46 0 0 1 .52-.1c.03 0 .06.03.08.07l.17.27Zm-.17.5c-.03.08-.14.1-.34.1-.04-.01-.06-.03-.06-.08a.51.51 0 0 1 .1-.28c.03-.04.06-.04.09-.02.16.12.23.22.2.29Z" fill="#020205"/></svg>