<svg width="56" height="56" fill="none" xmlns="http://www.w3.org/2000/svg"><path fill="#F68F36" d="M0 0h56v56H0z"/><path d="M32.085 13H17v32h13.361c3.656-.196 10.9-2.326 10.632-9.276-.268-6.95-6.05-9.113-8.908-9.325 1.724-.311 5.153-2.17 5.077-7.117-.077-4.947-3.624-6.25-5.077-6.282z" fill="#fff"/><path d="M18.441 44.75l-.247-.039-.045.289h.292v-.25zm2.008 0V45h.138l.074-.117-.212-.133zm2.92-7.8l.25.016.016-.265h-.266v.25zm-2.346 0v-.25h-.1l-.073.07.173.18zm-2.335 7.839c.063-.403.21-1.235.681-2.016l-.428-.258c-.524.868-.682 1.781-.747 2.196l.494.078zm.467-1.895h1.868v-.5h-1.868v.5zm1.618-.265a5.983 5.983 0 01-.162 1.005c-.094.381-.221.742-.373.983l.423.266c.194-.308.337-.73.436-1.13.099-.403.158-.807.175-1.094l-.499-.03zm.429.19c.345-.354.908-1.41.788-3.04l-.498.037c.11 1.51-.419 2.418-.648 2.654l.358.349zm.737-2.87c.268-.348.67-.91 1.012-1.466a8.24 8.24 0 00.448-.813c.116-.247.207-.497.22-.704l-.5-.03c-.006.107-.061.284-.173.522a7.768 7.768 0 01-.42.763 18.033 18.033 0 01-.983 1.424l.396.305zm1.43-3.248h-2.346v.5h2.346v-.5zm-2.519.07c-.161.153-.36.476-.523.962-.166.493-.3 1.173-.32 2.059l.5.011c.018-.841.146-1.47.294-1.911.15-.448.316-.685.395-.76l-.346-.362zm-.78 2.86c-.39.435-1.165 1.634-1.165 3.013h.5c0-1.212.695-2.297 1.038-2.68l-.373-.334zm.186.417h1.485v-.5h-1.485v.5zM18.441 45h2.008v-.5h-2.008v.5z" fill="#000"/><path d="M22.412 43.331c-.384.314-.57 1.057-.65 1.417h2.306c.306-.51.195-1.139.068-1.417m-1.724 0c0-.867.268-2.807 1.34-3.632m-1.34 3.632h1.724m-.383-3.632c-.032-.752.038-2.365.574-2.797.559-.262 1.705-.481 1.82.736-.064.49-.354 1.669-1.006 2.454m-1.388-.393l1.388.393m0 0c.032.72-.124 2.376-1.005 3.24m2.154-.541c-.574.432-.748 1.41-.796 1.965h2.087c.67-.441.577-1.081.577-1.327m-1.867-.638c0-.605.2-2.012 1.005-2.797m-1.005 2.797l1.867.638m-.862-3.435c.096-.72.403-2.228.862-2.503h2.347c-.303.769-.977 2.415-1.245 2.846m-1.964-.343l1.964.343m0 0c-.08.77-.412 2.464-1.102 3.092" stroke="#000" stroke-width=".5"/><path d="M19.299 37.932c1.685-2.041 1.724-1.276 1.532-.638 1.226-.745 1.91-.31 2.1 0 .102-.134.557-.055.771 0l.386.405c.154-.233.309-.659 1.209-.659.72 0 .969.595 1.003.892.034-.212.232-.638.746-.638s.694.426.72.639h3.061c.144-.904.437-1.288.566-1.367l.206 2.495 1.389-3.47c-.043-.396.005-1.158.54-1.045.535.113.549.744.489 1.044-.906.836-1.544 3.617-1.75 4.904 1.112-2.953 2.264-4.236 2.701-4.508V34.8l-.54-.95c1.153-1.105 1.475-.372 1.492.132v4.825c1.492-4.877 1.029-6.907.412-7.118-.494-.169-1.355.07-1.724.21.535-.99 1.784-1.836 2.34-2.134-.925-.266-2.083.738-2.52 1.107 0-1.028-.257-2.452-1.44-2.452-.947 0-1.458.756-1.595 1.134 1.379-.59 1.998-.246 2.135 0v1.318c-.18-.28-.715-.841-1.415-.841-.7 0-1.697.56-2.109.84.185-1.011 1.586-2.547 2.263-3.189-1.07.106-2.263 1.61-2.726 2.349-.515-.42-.077-1.11-.18-2.77-.082-1.33-1.098-1.081-1.595-.791l-2.47 1.95c.704-.281 2.228-.907 2.702-1.16.591-.316.771.343.566 1.45-.206 1.107-1.184 1.32-1.518.501-.268-.656-.763-.466-.977-.29l-1.672 1.11c-.206-1.686.514-3.551.9-4.273-.803.464-1.518 2.864-1.775 4.007 0-.266-.309-1.45-.72-2.346-.33-.718-.892-.405-1.132-.159-.454.466-1.43 1.577-1.698 2.294-.267.717-.986 1.863-1.311 2.346 1.543-1.076 2.958-3.032 3.472-3.875.473.801.479 1.67.422 2.006-2.184.785-4.262 3.795-5.028 5.202 2.835-3.063 4.533-3.926 5.028-3.975v1.227c-.143-.115-.69-.197-1.724.392-1.034.59-2.634 4.368-3.304 6.184.59-.769 1.934-2.66 2.586-4.073.651-1.414.942-.884 1.006-.442l-1.82 3.386z" fill="#000"/><path d="M24.448 32.11v-1.317c.351-.29 1.152-.86 1.543-.817.391.042.266.404.155.58l-1.698 1.555zm-.514 1.082l2.495-1.793c0 1.202-.446 2.17-.67 2.504l-.282-.316h-1.235c-.432 0-.386-.264-.308-.395zm2.212 3.743c-.247-.464 1.063-1.705 1.749-2.267v.738c-.48.703-1.502 1.993-1.75 1.529zm3.394-2.742c-1.13-.02-1.208.589-1.105.897h1.826c.232-.29.412-.876-.72-.897zm.13-2.609c-.762.105-.935 1.414-.926 2.056 1.214-.422 2.34-.545 2.752-.554.165-.611-.069-1.256-.206-1.502-.223-.044-.86-.106-1.62 0z" fill="#fff"/></svg>