<svg width="56" height="56" viewBox="0 0 56 56" xmlns="http://www.w3.org/2000/svg"><path fill="#F0F3FA" d="M0 0h56v56H0z"/><path d="m29.56 28.7-10.4 10.35c.53.43 1.1.82 1.71 1.16l10.14-10.08-1.45-1.43ZM22.11 28.7l-2.66 2.65c.26.67.59 1.3 1 1.87l3.1-3.09-1.44-1.43ZM32.4 25.87l1.45 1.44 2.68-2.68a9.8 9.8 0 0 0-1-1.87l-3.13 3.1ZM26.4 27.3l10.35-10.35c-.53-.42-1.12-.82-1.72-1.17L24.97 25.85l1.43 1.45Z" fill="#4D4D4D"/><path d="M28 12c-8.82 0-16 7.18-16 16s7.18 16 16 16 16-7.18 16-16-7.18-16-16-16Zm0 30c-7.68 0-14-6.32-14-14s6.32-14 14-14 14 6.32 14 14-6.32 14-14 14Z" fill="#BC171C"/><path d="m25.83 23.58 1.45-1.45-2.67-2.66c-.67.26-1.3.6-1.87 1l3.09 3.11ZM25.83 31.03l1.45-1.45-6.8-6.8c-.4.57-.75 1.2-1.01 1.87l6.36 6.38ZM30.11 25l-1.44 1.42 6.83 6.82c.4-.57.75-1.2 1.01-1.87L30.11 25ZM30.11 32.42l-1.44 1.45 2.66 2.66c.67-.26 1.3-.6 1.87-1l-3.09-3.11Z" fill="#4D4D4D"/><path d="M31.82 17.67a11.01 11.01 0 0 0-11.19 18.51l1.4-1.4A9 9 0 0 1 19 28.02a9 9 0 0 1 11.2-8.73l1.62-1.62ZM35.31 19.8l-1.4 1.4a9.03 9.03 0 0 1-8.18 15.5l-1.58 1.59A11.03 11.03 0 0 0 39 27.99a11.13 11.13 0 0 0-3.69-8.2Z" fill="#BC171C"/></svg>