<svg width="56" height="56" viewBox="0 0 56 56" xmlns="http://www.w3.org/2000/svg"><path fill="#F0F3FA" d="M0 0h56v56H0z"/><path d="M16.1 31.74a1.89 1.89 0 0 1-.92-1.1c-.16-.5.07-1 .68-1.52.07-.06.07-.12 0-.18l-.27-.27a.16.16 0 0 1-.02-.03c-.55-.97-.41-1.8.4-2.5.07-.06.08-.13.03-.22a1.58 1.58 0 0 0-.15-.2l-.18-.25a1.19 1.19 0 0 1-.02-1.03c.15-.35.4-.59.77-.72.14-.05.18-.14.12-.28a1.69 1.69 0 0 1-.19-.9c.04-.32.2-.56.49-.7.13-.08.28-.15.45-.22.09-.04.12-.1.09-.2l-.14-.4.01-.02.06-.06c.04-.03.07-.03.09.02.08.18.22.33.4.45.1.06.2.07.3 0 .11-.05.16-.14.16-.26 0-.26.04-.53.14-.8.04-.1 0-.16-.11-.16-.36-.02-.68.12-.97.4-.04.05-.08.04-.1-.02l-.03-.16c-.02-.1 0-.18.08-.25l.32-.33a.2.2 0 0 0 .06-.2l-.1-.44a.22.22 0 0 1 .05-.22l.4-.39a.27.27 0 0 0 .08-.2c-.02-.52.16-.93.54-1.23a.2.2 0 0 0 .08-.22l-.05-.23a.25.25 0 0 1 .02-.2l1.09-1.88a.46.46 0 0 0 .06-.25c-.02-.44.18-.78.6-1 .05-.03.1-.02.13.02l.26.25c.04.05.04.08-.03.1-.38.11-.6.3-.64.54-.06.33.04.45.3.37.11-.04.2-.11.23-.23.12-.35.3-.59.53-.7.08-.04.13-.1.16-.19.06-.16.06-.29 0-.38a.23.23 0 0 0-.2-.12h-.4c-.1 0-.15-.05-.13-.16.04-.17.17-.27.37-.3.09 0 .25.01.49.06.09.02.17 0 .23-.07l.93-.93a.28.28 0 0 0 .08-.2c0-.1-.01-.2-.05-.3a.16.16 0 0 0-.13-.12.16.16 0 0 0-.16.07c-.15.2-.2.45-.18.72a.2.2 0 0 1-.1.2c-.2.1-.31.16-.36.17-.38.06-.44-.05-.17-.33.56-.58 1.13-1.2 1.71-1.84.22-.24.56-.5 1.02-.77a.47.47 0 0 1 .24-.07c.27 0 .48-.1.64-.28.35-.4.79-.64 1.32-.72.08-.02.16 0 .23.06.55.5 1.07.5 1.56-.01.1-.11.2-.18.27-.19.07-.01.15 0 .22.01.1.03.14.09.12.18-.03.17-.03.3.01.42.04.1.1.14.2.14h1.38c.11 0 .15-.05.1-.16a.24.24 0 0 0-.12-.14c-.18-.09-.3-.13-.36-.13a5.25 5.25 0 0 1-.8-.06c-.36-.13-.35-.22.03-.26.3-.04.7-.02 1.19.04.15.02.38.17.66.45.17.16.29.26.36.3.5.31.99.5 1.47.59.1.01.18.08.2.19l.03.13c.03.1.08.17.16.23.62.43 1.22.97 1.82 1.63.05.06.1.14.13.25l.06.15c.04.08.1.13.17.17.22.1.36.24.44.4.35.72.74 1.46 1.18 2.25l.4.48c.14.16.2.4.17.72-.01.1.03.16.12.2.42.14.57.42.45.82a.3.3 0 0 0 .03.26l.11.17c.18.24.27.45.3.6.03.33.16.77.37 1.32.06.16.06.39 0 .68-.03.12 0 .23.08.33l.27.33c.33.35.32.72-.02 1.11-.12.14-.1.25.06.34.87.47 1 1.16.37 2.07-.12.18-.1.33.06.47.72.63.84 1.25.35 1.86-.12.15-.1.28.04.4.49.36.69.89.6 1.57-.03.24-.24.52-.62.82l-.08.06c-.13.1-.14.22-.03.34.76.9.88 1.66.35 2.31-.2.26-.35.43-.46.51-.08.07-.08.15-.01.23.09.11.18.28.29.5.49 1.1.26 1.94-.68 2.54-.05.03-.15.08-.31.14-.18.07-.3.12-.35.16-.07.04-.07.12 0 .25.6 1.15.5 2.08-.3 2.79-.17.14-.48.3-.93.45-.22.07-.37.12-.47.17-.1.04-.14.12-.1.24.25.71.3 1.34.16 1.88-.17.64-.6 1.06-1.29 1.27-.2.06-.4.07-.6.03-.15-.02-.15-.05-.01-.09l.21-.03c.33-.03.55-.1.67-.19.85-.7 1.05-1.58.6-2.61-.2-.43-.53-.71-1-.84-.72-.19-1.32 0-1.8.56-.21.26-.34.61-.39 1.06-.05.53.06.97.33 1.35a1.89 1.89 0 0 0 1.2.74c-.31 0-.6.01-.88.05-.08.01-.12.06-.12.15.07 1.53-.65 2.38-2.15 2.56-.46.05-.85 0-1.2-.19-.25-.13-.56-.39-.91-.77a.12.12 0 0 0-.14-.04.13.13 0 0 0-.1.1c-.18 1.03-.74 1.65-1.69 1.88-.7.17-1.32.1-1.85-.22-.6-.35-1.01-.9-1.25-1.6-.03-.1-.1-.14-.19-.1-1.28.57-2.42.44-3.4-.38a4.2 4.2 0 0 1-.39-.66c-.12-.23-.17-.6-.14-1.08v-.46c0-.17-.1-.24-.26-.2a.34.34 0 0 0-.23.13.2.2 0 0 0 0 .24c.3.46.23.86-.23 1.2-.07.05-.08.11-.02.18.33.36.64.6.92.74.1.04.1.09 0 .13-.31.13-.52.34-.62.64-.03.07-.07.08-.12.03l-.06-.06a.06.06 0 0 1-.02-.07l.16-.5c.03-.1 0-.17-.07-.23a.66.66 0 0 0-.6-.06c-.18.06-.26.18-.24.38.05.43.2.74.45.94.08.06.09.13.02.2a.81.81 0 0 1-.54.24c-.1 0-.16-.05-.17-.16l-.04-.48c-.05-.5-.22-.55-.53-.18l-.31.21a.07.07 0 0 1-.07 0l-.08-.04c-.07-.04-.08-.1-.01-.15.35-.3.57-.67.67-1.13.05-.28-.06-.45-.34-.52l-.4-.08c-.27-.06-.45.03-.55.29-.14.36-.5.7-1.06.99-.1.05-.18.02-.22-.1a2.59 2.59 0 0 1-.15-1.39c.11-.55.46-.78 1.06-.7.09.02.14-.02.17-.11.07-.3.07-.58 0-.83-.07-.29-.26-.43-.55-.42l-.27.01c-.28.08-.34.23-.18.47.16.26.22.47.18.65-.02.1-.08.13-.18.1-.27-.07-.4-.26-.37-.57.02-.25.12-.5.29-.73.05-.07.05-.15 0-.21l-.62-.85c-.1-.13-.08-.26.08-.37.27-.19.45-.4.54-.62a.29.29 0 0 0-.02-.25 4.4 4.4 0 0 1-.5-2.53c.03-.24.18-.5.45-.8l.06-.06c.07-.08.06-.14-.03-.2-.45-.29-.72-.5-.81-.6-.58-.71-.68-1.45-.32-2.21.11-.23.35-.48.7-.73l.2-.15c.07-.05.07-.1-.01-.15Zm3.76-12.2a11.46 11.46 0 0 1 6.5-4.43c.72-.2 1.75-.35 3.09-.48 1.78-.18 3.44.1 4.97.84.27.13.47.18.62.17.22-.03.43-.13.62-.32a.25.25 0 0 0 .08-.22 3.2 3.2 0 0 0-.34-1.06 1.7 1.7 0 0 1-.13-.44 3.32 3.32 0 0 0-.04-.17.89.89 0 0 0-.23-.4l-.28-.27a3.69 3.69 0 0 1-.72-.86c-.1-.2-.26-.39-.5-.54a.6.6 0 0 1-.2-.23l-.08-.17c-.18-.38-.35-.62-.5-.71a6.5 6.5 0 0 1-1-.75c-.2-.2-.45-.33-.75-.38a5.6 5.6 0 0 0-1.25-.02.74.74 0 0 1-.3-.04 1.1 1.1 0 0 0-.3-.07c-1.53-.14-2.5-.2-2.89-.18-.09 0-.17.04-.23.1-.17.16-.46.37-.86.64-.45.29-.79.54-1 .73-.15.15-.38.35-.68.6a.37.37 0 0 0-.12.2l-.1.46a.43.43 0 0 1-.12.21c-.6.58-1.1 1.25-1.47 2-.06.13-.2.29-.43.48l-.22.2c-.07.1-.11.17-.11.22v.78c0 .1-.03.18-.08.26-.4.59-.77 1.28-1.13 2.06-.28.6-.43 1.14-.44 1.6a.5.5 0 0 1-.07.24l-.3.54a.49.49 0 0 0-.08.26c.01.45-.1.8-.33 1.05-.3.34-.22.5.23.48.42-.01.98.05 1.68.2.1.02.15-.01.18-.1.15-.4.58-.84 1.3-1.32l.49-.36c.1-.08.08-.12-.04-.12h-.24a4.89 4.89 0 0 1-2.1-.27.27.27 0 0 1-.15-.19.27.27 0 0 1 .05-.23ZM34.3 11c0-.17-.11-.26-.36-.28-.25-.01-.38.06-.39.23 0 .16.11.26.36.27.25.02.38-.05.39-.22Zm.77 1.05c.1-.14.03-.3-.21-.46-.24-.17-.4-.18-.5-.03-.1.14-.04.3.2.46.23.17.4.18.5.03Zm.51.61c.05-.12 0-.22-.18-.3-.17-.06-.28-.04-.33.09-.06.12 0 .22.18.3.17.06.28.04.33-.09Zm.6.94c0-.22-.11-.33-.34-.33-.22 0-.33.1-.33.33 0 .22.11.33.33.33.23 0 .34-.1.34-.33Zm.37 1.38c.18-.09.21-.26.1-.53-.13-.26-.28-.36-.47-.27-.18.08-.22.26-.1.52.13.27.28.36.47.28Zm-16.87 1c.19.11.37 0 .55-.31.18-.32.18-.53 0-.64-.2-.1-.38 0-.56.32-.18.32-.18.53.01.63Zm17.14.08c.15.07.28-.03.4-.3.11-.26.09-.43-.07-.5-.15-.06-.29.04-.4.3-.11.27-.09.44.07.5Zm-1.52 1.07v-1.12c0-.16-.08-.22-.23-.17a1.2 1.2 0 0 1-.44.05.37.37 0 0 1-.23-.1 1.15 1.15 0 0 0-.75-.34l-1.89-.07c-1.1-.05-2.4.15-3.94.58a.78.78 0 0 0-.35.18.17.17 0 0 0-.03.2c.03.08.08.12.16.12.46.02.88.08 1.27.15.97.2 1.62.7 1.96 1.46.26.62.33 1.45.21 2.5-.01.12.04.16.14.12a6.8 6.8 0 0 0 3.01-2.28c.06-.07.11-.21.17-.43.02-.08.07-.1.14-.06.34.22.63.22.88 0a.27.27 0 0 1 .23-.07c.5.06 1.01.03 1.56-.1a.12.12 0 0 0 .1-.1c.01-.06 0-.1-.05-.14a1.4 1.4 0 0 1-.48-.75 1.97 1.97 0 0 0-.2-.5c-.14-.2-.25-.39-.33-.55-.16-.34-.26-.32-.3.06-.01.11.02.3.1.56.06.18.02.33-.1.46l-.42.42c-.13.12-.2.1-.2-.08Zm2.56.14c.1-.07.15-.17.16-.3a.6.6 0 0 0-.1-.4.6.6 0 0 0-.32-.25.38.38 0 0 0-.34.04.38.38 0 0 0-.17.3.6.6 0 0 0 .1.4.6.6 0 0 0 .32.24c.13.04.25.03.35-.03Zm-18.45-.15.35-.54c.04-.06.03-.11-.03-.15l-.04-.03c-.22-.13-.4-.1-.53.12l-.05.08c-.14.21-.1.39.12.52l.03.03c.06.04.11.03.15-.03Zm5.86.84c.1-.25.3-.47.62-.65.15-.09.27-.16.34-.23.13-.13.18-.26.14-.4-.03-.1-.1-.13-.19-.12-2.18.35-4.09 1.28-5.73 2.8-.14.12-.14.25 0 .36.18.14.4.2.66.21 1.2.02 2.37-.03 3.53-.15.1-.01.17-.07.19-.18.09-.56.24-1.1.44-1.64Zm.17.77c-.17.76-.16 1.4.04 1.9.2.54.64 1 1.3 1.4.07.04.14.06.22.05 1.2-.1 2.33-.42 3.38-.96.08-.04.13-.1.15-.2.13-.8.15-1.51.06-2.12-.1-.62-.39-1.12-.89-1.48-.45-.33-1-.5-1.61-.5-.62-.02-1.17.14-1.65.46-.53.35-.86.83-1 1.45Zm-6.48-.33.37-.85c.03-.08 0-.14-.07-.17l-.04-.02a.56.56 0 0 0-.44-.01.53.53 0 0 0-.3.29l-.04.07a.56.56 0 0 0 .3.74l.04.02c.08.03.14 0 .18-.07Zm19.2-.68c-.02-.14-.1-.2-.23-.18l-.26.03c-.13.02-.19.1-.17.23l.08.65c.01.13.09.19.22.17l.26-.03c.13-.02.2-.09.18-.22l-.08-.65ZM25.15 32.65c-.38-.01-.68.1-.9.34-.24.24-.32.56-.23.93a.4.4 0 0 0 .13.22c.25.21.42.4.5.54.05.12.15.2.27.24.13.04.25.03.36-.03.75-.37 1-.93.78-1.69a.98.98 0 0 0-.3-.37c-.05-.05-.04-.07.03-.05l1.47.32c.11.03.17-.02.18-.14.02-.23.14-.47.36-.7.54-.58 1.09-.53 1.64.15.1.12.23.14.36.05.57-.37 1.22-.4 1.93-.1.08.03.15.01.2-.06.57-.77 1.04-1.65 1.42-2.62a.34.34 0 0 0 .01-.23 2.29 2.29 0 0 1 .13-1.9c.53-.9.87-1.8 1.02-2.68.09-.47.01-.5-.22-.08a70.1 70.1 0 0 0-1.96 3.8c-.32.66-.37.64-.16-.06l.04-.17.15-.5c.83-1.81 1.64-3.64 2.44-5.46.04-.1.05-.19.03-.28l-.04-.16c0-.03-.03-.05-.06-.06-.04 0-.07.01-.09.05l-3.42 6.68a.44.44 0 0 1-.31.24l-.12.03c-.06.01-.1 0-.14-.05a.12.12 0 0 1-.01-.14c1.49-3.07 3.12-6 4.89-8.77a.4.4 0 0 0 .06-.24c-.04-.49.05-.87.26-1.15.23-.32.16-.43-.22-.34-.66.16-1.22.53-1.7 1.11-.32.4-.67 1.03-1.05 1.86a.37.37 0 0 1-.17.18 2.8 2.8 0 0 0-1.47 1.89c-.11.34-.2.58-.28.71-.11.2-.29.38-.53.55a3.1 3.1 0 0 0-.81.86 7.25 7.25 0 0 0-.58 1.26.34.34 0 0 1-.17.18c-.97.47-1.94 1.1-2.92 1.92a.2.2 0 0 1-.22.02c-.5-.22-1-.5-1.52-.83-.17-.11-.6-.27-1.28-.48a.2.2 0 0 1-.15-.17 16.3 16.3 0 0 0-1-3.43 3.45 3.45 0 0 0-1.2-1.35.38.38 0 0 0-.42-.02.38.38 0 0 0-.2.38c.12 1.9.27 3.41.43 4.57.22 1.6.65 3 1.27 4.23.06.12.14.13.23.04.45-.4.91-.57 1.4-.5.53.08.75.48.66 1.2-.02.12-.04.13-.08 0a1.02 1.02 0 0 1-.04-.36c.03-.34-.12-.55-.45-.65-.4-.11-.74-.05-1.02.17-.3.24-.35.57-.16.98.19.43.5.62.92.57a.9.9 0 0 0 .48-.2c.16-.13.3-.21.43-.25.48-.11.86-.14 1.14-.08.02 0 .03.02.03.04s-.02.04-.04.04Zm10.81-1.41c.43.1.89.07 1.39-.1.09-.03.15-.09.17-.19l.06-.28a.3.3 0 0 1 .15-.2l.66-.4c.15-.07.17-.18.07-.32-.12-.15-.23-.3-.33-.46a.96.96 0 0 1-.18-.5c-.03-.5-.02-.93 0-1.28.01-.1.06-.16.15-.18a.85.85 0 0 0 .27-.12c.07-.06.09-.12.03-.2a2.28 2.28 0 0 1-.36-1.77.32.32 0 0 1 .12-.18l.48-.4a.21.21 0 0 0 .08-.2.2.2 0 0 0-.12-.17c-.38-.17-.61-.42-.69-.74-.06-.25-.02-.6.11-1.02.03-.1 0-.17-.1-.22-.35-.15-.52-.39-.5-.7l.08-.81a.53.53 0 0 0-.01-.25c-.21-.63-.3-1.17-.26-1.6.06-.8-.16-.9-.67-.3a2.3 2.3 0 0 0-.34.66c-.07.2-.21.46-.42.8-.34.56-.5 1.03-.47 1.4.03.28-.03.58-.15.89-.12.28-.19.56-.2.84-.05.54-.08 1-.13 1.38a4.7 4.7 0 0 1-.34 1.32l-.73 1.74c-.07.16-.08.64-.02 1.42a2 2 0 0 1-.17 1.09c-.19.36-.4.71-.65 1.06-.08.11-.05.19.09.22l.12.02c.13.03.22-.01.28-.13.14-.3.31-.47.5-.52a3 3 0 0 1 1.27-.13c.42.06.42.14 0 .22l-.69.08c-.31.03-.5.19-.58.47-.04.15 0 .36.13.61l.3.8c.1.32.32.4.66.25l.61-.28c.32-.14.44-.38.36-.73l-.17-.75c-.03-.13.02-.17.14-.14ZM18.8 19.7v-.85c0-.12-.07-.17-.18-.17h-.04c-.16 0-.3.05-.41.16a.52.52 0 0 0-.17.4v.07c0 .16.06.29.17.4.12.1.25.16.42.16h.03c.12 0 .18-.06.18-.17Zm19.1.17a.96.96 0 0 0-.08.28c-.01.1.03.17.11.2.3.06.56-.01.81-.22.08-.06.09-.13.04-.2a2.71 2.71 0 0 1-.35-.83c-.02-.1-.09-.15-.19-.12-.08.02-.14.08-.17.2l-.06.23c-.03.2-.07.36-.11.46Zm-12.74.99a2.16 2.16 0 0 1-.19-.67c-.02-.13-.1-.2-.24-.18-1.28.14-2.4.59-3.36 1.35-.22.17-.39.4-.52.67a.37.37 0 0 0 .02.37c.07.11.18.17.31.18 1.2.08 2.35.08 3.44.02.4-.03.86-.16 1.37-.4.12-.06.13-.14.03-.24a4.6 4.6 0 0 1-.86-1.1Zm13.51 1.21.71-.78c.14-.16.13-.3-.02-.45l-.03-.02a1.3 1.3 0 0 0-.74-.35c-.27-.03-.48.04-.63.2l-.04.05c-.15.17-.2.38-.15.65.06.26.2.5.42.7l.03.03c.16.14.3.13.45-.03Zm-7.45.21.4-.4c.03-.03.03-.06.01-.1-.02-.03-.05-.04-.1-.02-.64.36-1.22.66-1.73.9a10.9 10.9 0 0 1-7.42.72c-.25-.06-.38.04-.37.3 0 .18.03.33.09.46.55 1.3.87 2.24.96 2.82a.2.2 0 0 0 .13.17c.65.27 1.45.69 2.4 1.26.11.07.22.06.32-.02.85-.72 1.8-1.4 2.83-2.02.2-.11.3-.28.34-.5.05-.33.13-.6.26-.8.07-.12.27-.3.58-.58.6-.53 1-1.2 1.18-1.98a.41.41 0 0 1 .12-.2Zm-13.51.37c0-.05.03-.08.07-.08.06-.02.1 0 .13.07.02.06.05.12.1.17.05.06.09.05.12-.02.06-.14.08-.3.08-.47a.44.44 0 0 0-.16-.34.43.43 0 0 0-.37-.1c-.33.05-.59.17-.77.34a.66.66 0 0 0-.18.75c.07.2.14.37.22.51.07.13.18.2.33.23.14.03.27 0 .38-.1.3-.24.33-.52.08-.83a.14.14 0 0 1-.03-.13Zm2.68 9.57a1.7 1.7 0 0 0-.14 1.84c.14.29.43.43.89.41.1 0 .15-.06.15-.16v-.38c0-.1.04-.18.1-.25l.6-.6c.12-.11.13-.24.02-.38a1.6 1.6 0 0 0-.91-.58c-.11-.02-.13-.08-.05-.16l.22-.22c.07-.06.08-.13.03-.2-.51-.8-.84-1.61-.98-2.44-.14-.8-.41-2.5-.81-5.12a5.01 5.01 0 0 0-.7-1.71.24.24 0 0 0-.26-.13.23.23 0 0 0-.21.2c-.04.12-.05.3-.05.51 0 .4-.13.7-.4.9-.15.1-.17.22-.07.36.29.43.28.85-.03 1.28-.2.27-.34.47-.41.6a.21.21 0 0 0 0 .23l.2.29c.26.36.42.64.47.84.08.31-.02.61-.3.9l-.52.54c-.08.1-.07.17.05.23l.54.28c.1.05.14.13.14.24v1.3c0 .08-.02.15-.07.2l-.6.59a.12.12 0 0 0-.02.12c0 .04.04.07.08.09.87.24 1.33.91 1.36 2 .01.33.18.48.5.46l.23-.02c.32-.03.43-.2.35-.52-.06-.22-.1-.55-.1-.99 0-.36.2-.59.63-.67.12-.02.14.02.07.12Zm18.3-8.1c.21.1.43.1.66 0 .23-.1.4-.27.5-.5.11-.24.13-.48.06-.72a.77.77 0 0 0-.43-.5.76.76 0 0 0-.65 0c-.23.1-.4.27-.5.5a.97.97 0 0 0-.06.72c.07.23.21.4.42.5Zm-21.05.75a.86.86 0 0 0-.26-.63.86.86 0 0 0-.62-.26.86.86 0 0 0-.63.26.86.86 0 0 0-.26.63c0 .25.08.46.26.63.17.17.38.26.63.26.24 0 .45-.09.62-.26a.86.86 0 0 0 .26-.63Zm21.44 1.93c.21 0 .4-.1.57-.31.16-.21.24-.47.25-.77 0-.3-.06-.56-.21-.78-.15-.22-.33-.33-.55-.34-.22 0-.41.1-.57.3-.16.22-.25.47-.26.78 0 .3.06.56.21.78.15.22.34.33.56.34Zm-21.52 1.22c.2-.24.23-.5.1-.77l-.24-.55a.69.69 0 0 0-.47-.4.69.69 0 0 0-.61.11l-.49.35a.72.72 0 0 0-.22.92l.34.66c.11.23.3.36.56.4.25.02.47-.06.64-.26l.39-.46Zm20.92-.29c-.26.21-.3.46-.14.75l.5.86c.11.2.28.29.5.3.21 0 .38-.1.5-.28l.62-1c.16-.24.14-.48-.07-.7l-.41-.44a.57.57 0 0 0-.79-.06l-.71.57Zm-21.44 2.78v-.39c0-.13.06-.2.2-.2h.23c.07 0 .12-.03.15-.1.07-.13.01-.27-.16-.41-.23-.2-.5-.3-.84-.32-.36-.02-.62.1-.79.35-.2.3-.32.58-.34.82a1.22 1.22 0 0 0 .71 1.22c.54.25.97.12 1.29-.4a.55.55 0 0 0 .1-.4c-.02-.1-.08-.13-.17-.1l-.24.05c-.1.02-.14-.02-.14-.12Zm22.84 2 .74-.93a.24.24 0 0 0 .04-.1c.06-.44-.04-.82-.3-1.15a1.1 1.1 0 0 0-1.07-.44c-.37.05-.7.19-.95.42-.31.27-.42.58-.33.94.23.95.78 1.4 1.64 1.38.09 0 .16-.04.23-.12Zm-3.28.02-.06.06c-.04.04-.04.09 0 .13.43.42.83.46 1.22.1.27-.24.3-.65.1-1.23-.07-.17-.18-.21-.34-.12-.28.17-.53.23-.75.18-.48-.1-.57.03-.28.4.03.04.08.17.14.38 0 .04 0 .07-.03.1ZM18 33.58c-.3-.06-.54-.23-.71-.52-.06-.1-.04-.17.05-.22l.36-.21c.08-.05.1-.1.05-.18-.29-.5-.7-.65-1.23-.46-.98.37-1.4 1.06-1.24 2.09.05.3.23.56.56.78l.09.06c.4.28.7.43.87.46.25.05.55-.04.9-.29.83-.61 1.01-1.37.54-2.27a.1.1 0 0 0-.1-.05h-.07c-.05 0-.07.02-.04.07.12.2.16.4.12.64-.01.09-.06.12-.15.1Zm14.25-.93a.41.41 0 0 0 .1.44l.51.54c.13.13.27.18.44.13a.41.41 0 0 0 .32-.33l.22-.98a.43.43 0 0 0-.1-.38.43.43 0 0 0-.35-.16l-.6.02c-.2 0-.34.1-.4.3l-.14.42Zm-4.55.4 1.44.46c.05.01.08 0 .1-.05l.01-.05c.1-.33.12-.64.04-.92-.08-.28-.22-.46-.43-.53l-.05-.01c-.22-.07-.44 0-.66.18-.23.19-.39.45-.5.78v.05c-.02.05 0 .08.05.1Zm2.56 1.38c.1.12.21.2.35.25.12.05.25.04.4-.02.7-.3 1-.83.89-1.6a.38.38 0 0 0-.12-.21c-.54-.52-1.15-.58-1.8-.2a.3.3 0 0 0-.15.2c-.15.69-.1 1.12.19 1.29.02.01.1.1.24.29Zm8.47-.46a.91.91 0 0 0-.5.25c-.14.12-.26.2-.37.23-.06.02-.16.04-.31.05-.12.01-.15.07-.1.17l.07.14c.33.67.66 1.02 1 1.06a1.8 1.8 0 0 0 1.4-.35c.4-.33.56-.76.45-1.3-.13-.65-.39-1.09-.77-1.32-.56-.35-1.06-.25-1.5.3a.55.55 0 0 1-.2.15l-.33.14a.36.36 0 0 0-.22.22c-.04.1-.03.2.02.3.04.09.11.13.2.11.3-.04.55-.21.75-.53.04-.08.12-.1.2-.09a.4.4 0 0 1 .32.31c.03.1 0 .16-.11.16Zm-3-.67.13 1.1c0 .05.03.07.08.07l.57-.07a.59.59 0 0 0 .36-.18.4.4 0 0 0 .12-.34l-.04-.35a.4.4 0 0 0-.2-.3.58.58 0 0 0-.4-.08l-.56.07c-.05 0-.07.03-.07.08ZM23.7 34.56a.4.4 0 0 0 .08-.31c-.1-.8-.55-1.13-1.37-.98-.73.13-.97.57-.73 1.33.3.93.8 1.21 1.51.84.08-.05.13-.1.16-.2.08-.26.2-.5.35-.68Zm4.24.11 1 .01c.16 0 .24-.07.24-.23v-.1a.84.84 0 0 0-.2-.57.65.65 0 0 0-.5-.24h-.06c-.2 0-.36.08-.5.23a.82.82 0 0 0-.21.56v.1c0 .16.07.24.23.24Zm6.92-.96-.5.1c-.13.02-.18.1-.16.22l.03.14c.04.2.1.36.21.49.1.12.2.18.32.16l.1-.02c.1-.02.18-.11.23-.27.05-.15.05-.33.02-.52l-.03-.15c-.02-.12-.1-.17-.22-.15Zm-1.27 1.08c.11-.22.07-.39-.15-.5l-.16-.1c-.22-.11-.39-.06-.5.16l-.34.61c-.12.22-.07.4.14.51l.16.09c.22.12.39.07.5-.15l.35-.62Zm-14.48-.26-.15.71c-.02.08 0 .14.08.18.56.26 1 .07 1.31-.59a.18.18 0 0 0-.02-.21c-.28-.33-.66-.4-1.13-.2a.13.13 0 0 0-.09.1Zm10.33.18.1 1.07c.01.11.08.16.19.15h.05a.68.68 0 0 0 .62-.73l-.01-.08a.64.64 0 0 0-.25-.45.67.67 0 0 0-.5-.15h-.05c-.11.02-.16.08-.15.2Zm-11.39.43c-.02.03-.02.06.02.09.16.13.31.1.45-.07.1-.14.17-.3.18-.48a.09.09 0 0 0-.05-.1.09.09 0 0 0-.1.02c-.2.14-.36.32-.5.54Zm6.38-.4c-.15-.16-.34-.14-.57.06-.24.2-.28.38-.13.55.14.17.33.15.56-.05.24-.2.28-.38.14-.55Zm3.07.69-.31-.55a.43.43 0 0 0-.27-.2.43.43 0 0 0-.34.04l-.61.35c-.09.05-.12.12-.1.22.03.2.11.5.24.91.05.19.18.33.39.42.2.1.38.1.55.03a.35.35 0 0 0 .19-.16c.1-.18.17-.38.2-.58.02-.1.07-.13.16-.08.14.07.23.1.27.08.11-.04.15-.11.12-.2a.56.56 0 0 0-.08-.18c-.04-.04-.04-.09-.01-.14.04-.07.13-.1.26-.07.1.01.14.07.11.16-.09.45-.16.73-.2.84-.08.22 0 .33.22.34l.4.02c.25.02.43-.08.52-.3.16-.37.17-.81.02-1.3a.22.22 0 0 0-.19-.16c-.4-.07-.77-.07-1.13 0a.2.2 0 0 0-.17.16l-.07.33c-.04.14-.09.15-.16.02Zm8.3.69a.9.9 0 0 0 .62.09c.11-.03.27-.12.48-.27l.36-.24c.07-.04.1-.1.08-.2-.24-.8-.73-1.05-1.46-.75a.31.31 0 0 0-.21.31v.85c0 .1.04.17.13.2Zm-.68-.33c0-.2-.08-.39-.23-.53a.73.73 0 0 0-.53-.23c-.2 0-.38.08-.53.23a.73.73 0 0 0-.22.53c0 .2.07.39.22.53.14.15.32.22.53.22.21 0 .39-.07.53-.22a.73.73 0 0 0 .23-.53Zm-14.5-.45-.15 1.14c-.03.21.06.33.27.36l.26.04c.23.03.43-.03.61-.17a.82.82 0 0 0 .32-.56l.01-.1a.81.81 0 0 0-.16-.63.79.79 0 0 0-.54-.32l-.26-.03c-.21-.03-.33.06-.36.27Zm10.05.35.78.27c.1.03.15 0 .18-.09l.02-.06a.62.62 0 0 0-.01-.45.49.49 0 0 0-.3-.3h-.04a.49.49 0 0 0-.41.04.62.62 0 0 0-.29.36l-.02.06c-.03.09 0 .14.09.17Zm-5.6.58v.22c.02.11.07.16.15.14.17-.05.32-.12.43-.22.09-.07.11-.15.09-.25l-.19-.8a.2.2 0 0 0-.16-.17.86.86 0 0 0-.75.15c-.1.06-.1.13-.02.21l.02.01c.26.26.4.5.42.71Zm-6.38.15c-.22-.2-.19-.25.1-.16.21.06.34.28.37.64.02.23.09.45.19.66.07.14.11.13.12-.02l.08-.98c0-.1-.03-.16-.11-.2-.23-.12-.4-.26-.54-.43-.11-.15-.26-.2-.45-.13-.09.03-.1.09-.06.16l.04.08c.05.07.03.11-.06.13-.07 0-.12 0-.16-.02-.08-.05-.08-.1-.02-.16.08-.08.1-.14.07-.2a.18.18 0 0 0-.11-.1c-.77-.2-1.32.03-1.64.67-.23.46-.13.87.3 1.22.06.04.12.06.2.05l.27-.06c.1-.03.16 0 .19.11l.07.3c.02.08-.02.13-.1.13-.24 0-.47.04-.7.13a.2.2 0 0 0-.13.15.2.2 0 0 0 .07.2c.8.73 1.59.67 2.36-.2.21-.23.23-.46.06-.67a.3.3 0 0 1-.07-.24c.05-.46-.06-.82-.34-1.06Zm5.3.4c.02.14-.04.27-.2.38-.26.19-.23.3.09.36.27.05.5-.07.69-.36.14-.21.15-.62.04-1.23a.26.26 0 0 0-.14-.2c-.5-.25-.93-.22-1.28.1-.2.2-.32.33-.35.43-.1.23.02.45.34.67.2.13.38.1.52-.08l.1-.12c.1-.13.17-.11.2.05Zm7.9.66c.1-.3.07-.58-.1-.85a.96.96 0 0 0-.71-.47l-.6-.1a.94.94 0 0 0-.99.46l-.28.44a.96.96 0 0 0-.15.73c.05.26.18.47.4.63l.6.45c.28.2.58.25.9.15.32-.1.54-.31.65-.63l.28-.8Zm7.3.28c0-.47-.18-.87-.5-1.2-.34-.34-.74-.5-1.21-.5s-.87.16-1.2.5c-.34.33-.5.73-.5 1.2s.16.87.5 1.2c.33.34.73.5 1.2.5s.87-.16 1.2-.5c.33-.33.5-.73.5-1.2Zm-6.3-.18c.17.05.34.03.5-.07a.7.7 0 0 0 .34-.44.72.72 0 0 0-.05-.54.62.62 0 0 0-.4-.33.61.61 0 0 0-.5.07.7.7 0 0 0-.34.43.72.72 0 0 0 .05.54c.09.17.22.29.4.34Zm1.63.66c.11.16.23.24.37.25.07 0 .2-.01.4-.06.18-.04.27-.16.28-.36l.01-1.06c0-.1-.05-.16-.14-.18-.61-.16-1.05-.02-1.33.43a.27.27 0 0 0-.02.24c.04.1.18.35.43.74Zm-8.76-.14.23.4c.07.11.17.17.3.17.13 0 .23-.05.3-.16.26-.42.34-.85.23-1.29a.32.32 0 0 0-.15-.2c-.3-.18-.65-.24-1.04-.17-.43.08-.68.3-.73.67-.04.2.05.33.25.38l.49.1c.05.02.1.05.12.1Zm-4.85.25c.13-.08.2-.21.2-.4a.9.9 0 0 0-.17-.52.9.9 0 0 0-.43-.35c-.17-.07-.31-.05-.44.03-.12.08-.19.21-.19.4 0 .18.05.35.17.52a.9.9 0 0 0 .43.36c.17.06.31.05.43-.04Zm6.79-.2-.36.14c-.18.07-.23.2-.15.38.32.72.8.93 1.44.62.36-.17.48-.43.38-.77-.2-.61-.3-1-.33-1.14a.24.24 0 0 0-.15-.18 1.24 1.24 0 0 0-1.1.05.21.21 0 0 0-.1.13.3.3 0 0 0-.02.16c.02.1.08.14.18.15l.22.03c.4.14.39.29-.01.44Zm-6.06.37c.01.09.06.14.14.17.08.02.15 0 .21-.06l.7-.8a.19.19 0 0 0 .04-.21.18.18 0 0 0-.19-.12h-.8c-.14 0-.2.08-.19.23l.09.79Zm1.46-.6c.15.2.1.42-.14.63-.13.11-.11.19.06.22l.14.03c.13.03.24 0 .33-.1a1 1 0 0 0 .25-.79c0-.14-.08-.21-.22-.21h-.3c-.18 0-.22.07-.12.21Zm2.87 1.56c.1-.37-.02-.65-.36-.83l-.68-.35a.68.68 0 0 0-.73.03.68.68 0 0 0-.33.66l.06.92c.01.2.09.35.22.48.14.13.3.2.5.2l.46.01c.38.01.61-.17.71-.54l.15-.58Zm7.77.72c.3-.42.22-1-.26-1.72a.28.28 0 0 0-.22-.14c-.47-.05-1 .1-1.6.43-.3.16-.46.4-.47.71a3.11 3.11 0 0 0 .2.96c.12.38.38.65.77.8.35.14.73.17 1.14.08a.17.17 0 0 0 .15-.16l.02-.17c.03-.34.12-.6.27-.8Zm-14.97.5a.23.23 0 0 1 .2-.14c.16-.01.34.11.54.37.12.17.15.48.07.93l-.02.11c-.01.1.01.16.08.22s.14.08.23.05a2.7 2.7 0 0 0 1.12-.7c.38-.4.55-.8.52-1.2-.04-.42-.14-.7-.31-.85a2.55 2.55 0 0 0-1.8-.66c-.11 0-.2.05-.27.12l-.83.82a.2.2 0 0 0-.06.15v1.06c0 .1.04.2.12.26.28.22.43.34.46.35.5.17.61.02.36-.43-.02-.05-.14-.1-.33-.15-.14-.04-.18-.13-.11-.25l.03-.07Zm-1.31-1.26c.06-.15-.07-.3-.41-.45-.34-.14-.54-.13-.6.02-.07.15.07.3.4.45.34.14.55.13.61-.02Zm5.49-.43-.73.03c-.2 0-.3.11-.3.32l.01.25c.01.24.08.45.21.62.13.17.28.26.46.25h.07c.18 0 .32-.1.44-.28.12-.18.17-.4.16-.64v-.25c-.01-.2-.12-.3-.32-.3Zm7.99 1.86c0-.37-.13-.68-.4-.95-.25-.26-.57-.39-.94-.39s-.68.13-.94.4c-.27.26-.4.57-.4.94s.14.69.4.95.57.4.94.4.69-.14.95-.4.39-.58.39-.95Zm-14.35.03c.01.16.03.25.04.28.04.1.1.13.2.1.33-.09.52-.22.54-.4.02-.17.01-.38-.03-.62-.05-.31-.24-.46-.56-.43a.64.64 0 0 0-.5.32c-.06.08-.04.15.03.22a.8.8 0 0 1 .28.53Zm10.84 1.04c.39.3.66.43.82.37.4-.14.4-.3.05-.5l-.31-.17c-.12-.06-.17-.15-.16-.25.14-1.17-.25-1.67-1.17-1.5a.29.29 0 0 0-.2.15l-.47.8a.18.18 0 0 0 .01.22l.56.71c.06.08.14.11.23.11h.49c.05 0 .1.02.15.06Zm-5.81 1.26c-.05-.27.04-.33.26-.16.5.38.93.69 1.28.92.09.06.28.32.57.79.05.07.12.11.2.1.38 0 .61-.1.71-.28.3-.56.46-1.1.47-1.63 0-.5-.13-.9-.42-1.2-.91-.95-1.94-.96-3.08-.02-.33.27-.5.6-.5 1-.02.38.12.75.4 1.09.13.17.3.43.49.8.04.09.11.13.21.14.21 0 .42-.04.62-.14s.2-.16-.02-.2a1.37 1.37 0 0 1-1.2-1.2Zm4.04-1.34c-.04-.05-.12-.02-.24.1-.12.12-.16.2-.11.25.05.05.13.01.25-.1.11-.12.15-.2.1-.25Zm8.4 1.84c0-.53-.2-.99-.57-1.37a1.87 1.87 0 0 0-1.37-.57c-.54 0-1 .2-1.37.57-.38.38-.57.84-.57 1.37 0 .54.19 1 .57 1.37.38.38.83.57 1.37.57.53 0 .99-.19 1.37-.57.37-.38.56-.83.56-1.37Zm-16.32-.67c-.04.17 0 .31.14.43.13.12.27.15.44.09l.31-.11a.43.43 0 0 0 .27-.25l.14-.35a.42.42 0 0 0-.03-.38.42.42 0 0 0-.31-.22l-.34-.05c-.26-.04-.43.07-.5.33l-.12.5Zm11.37.22c-.26-.35-.67-.58-1.25-.7a1.92 1.92 0 0 0-1.88.57c-.46.5-.7 1.13-.68 1.9a.33.33 0 0 0 .1.22 7.2 7.2 0 0 0 1.29 1.21c.53.33 1.04.38 1.55.14.95-.45 1.4-1.16 1.33-2.11a2.34 2.34 0 0 0-.46-1.23Zm.86.04.16-.54c.01-.05 0-.09-.06-.1l-.05-.02a.99.99 0 0 0-.5-.03c-.14.03-.23.1-.25.2-.03.1 0 .2.11.3.11.1.25.18.43.23l.06.02c.05.02.08 0 .1-.06Zm-13.3.7-.15.13c-.27.34-.2.48.22.4.48-.08.7-.44.66-1.08 0-.12-.07-.17-.18-.17H17c-.14 0-.21.07-.21.21v.28a.3.3 0 0 1-.11.24Z" fill="#2A2929"/><path d="M33.92 17.57a6.58 6.58 0 0 0-2.1.3c-.06 0-.09-.01-.09-.07v-.09a20.56 20.56 0 0 0 1.83-.76 1.84 1.84 0 0 0 .55-.45c.1-.1.16-.08.15.07l-.03.82c0 .1-.05.15-.14.17a.5.5 0 0 1-.17 0ZM29.67 19.74a4.9 4.9 0 0 0-.38-1.26c-.06-.12-.02-.18.11-.18h.08c.11 0 .2.05.24.16.2.5.28 1.02.25 1.58 0 .09-.05.13-.14.12a.4.4 0 0 1-.25-.12c-.06-.05-.06-.1 0-.15l.06-.07a.09.09 0 0 0 .03-.08ZM26.9 20.45a.67.67 0 0 1 .13-.22c.06-.07.05-.12-.05-.14a.53.53 0 0 0-.27 0c-.11.03-.15.1-.11.21.04.15.13.2.3.15.02.15.01.27-.03.35-.05.09-.1.1-.18.03-.38-.33-.4-.67-.08-1.02a.18.18 0 0 0 .04-.22.5.5 0 0 0-.29-.28c-.13-.06-.18-.15-.17-.29.02-.18.1-.26.23-.26.1 0 .17.06.19.16l.17.72c.01.06.05.1.1.13.11.07.22.05.32-.03a.2.2 0 0 1 .18-.05c.04 0 .07.01.08.03.05.1.06.2 0 .3-.2.42-.4.56-.57.43ZM28.85 19.17a.47.47 0 0 0-.2-.14c-.06-.03-.08-.07-.06-.14.01-.04.04-.07.08-.07.26-.04.46.05.59.27.04.06.03.12-.03.18l-.05.05a.27.27 0 0 0-.08.23c0 .1.05.16.12.21l.16.1c.08.05.06.07-.08.06l-.24-.02c-.09 0-.15-.04-.2-.1-.07-.11-.08-.25 0-.4a.2.2 0 0 0-.01-.23ZM27.25 18.91c.12-.06.19-.02.2.12 0 .13-.05.22-.17.25-.09.03-.15 0-.18-.1-.03-.11.02-.2.15-.27ZM37.93 21.5c.06.2.24.32.4.27.16-.05.24-.25.18-.44-.06-.2-.24-.32-.4-.28-.15.05-.23.25-.18.45ZM16.89 27.3c-.06.18-.04.35.05.38.1.04.22-.09.28-.27.06-.18.04-.35-.05-.38-.1-.03-.22.09-.28.27ZM15.87 27.3c0-.08.03-.12.1-.12h.07c.26 0 .39.1.4.33v.11c0 .23-.13.35-.39.35H16c-.07 0-.1-.03-.1-.1l-.02-.58ZM15.76 30.3c0 .19.11.34.24.34s.23-.16.23-.36c0-.19-.12-.34-.24-.34-.13 0-.23.16-.23.35ZM32.74 32.8c-.3-.1-.33-.24-.1-.4.1-.07.19-.06.26.05.08.1.09.2.03.29-.04.08-.1.1-.2.07ZM30.64 33.35c.02.16-.03.29-.13.38a.2.2 0 0 1-.24.04.2.2 0 0 1-.13-.2c0-.07 0-.2.02-.37.02-.21.14-.36.35-.43.2-.06.4-.04.6.04.09.04.09.1 0 .17l-.36.17c-.08.04-.12.11-.11.2ZM36.31 35.4c.13-.03.21-.11.2-.17-.02-.06-.14-.08-.26-.04-.13.04-.22.12-.2.18.02.06.14.08.26.04ZM29.8 37.32c.07.05.18.04.32 0 .1-.04.16 0 .19.09.04.15.04.3.02.44-.02.1-.08.14-.17.14a.68.68 0 0 1-.55-.34.28.28 0 0 1-.05-.22l.11-.48c.05-.22.18-.29.38-.22.12.04.18.1.17.16 0 .07-.04.1-.1.1a.47.47 0 0 0-.35.11c-.08.08-.07.15.03.22ZM36.94 37.23c.14-.06.24-.16.21-.23-.02-.06-.16-.07-.3-.01-.16.06-.25.16-.23.23.03.06.17.07.32.01ZM36.05 37.55c.01.11.09.19.16.18.08-.01.13-.1.11-.22-.01-.1-.09-.19-.16-.18-.08.01-.13.11-.11.22ZM38.4 38.14c.03-.04.02-.06-.03-.07l-.09-.02c-.02 0-.04 0-.06.02l-.45.44c-.05.06-.1.06-.16 0l-.06-.06c-.07-.07-.07-.14 0-.2l.57-.58c.16-.15.3-.15.45.02.22.26.16.56-.17.9-.08.09-.13.07-.16-.04-.02-.11.04-.25.16-.4ZM37.83 39.27a.7.7 0 0 1-.04.06c-.06.08-.1.07-.16 0a.56.56 0 0 1-.07-.2c-.02-.1.02-.18.13-.2l.41-.1c.12-.02.16.02.1.13a.4.4 0 0 1-.16.17l-.21.14ZM20.56 39.76l-.46.1c-.16.04-.25-.02-.28-.19a.49.49 0 0 1 .07-.37.2.2 0 0 1 .22-.08c.39.1.65.2.8.31.21.17.3.4.24.72-.02.13-.1.19-.22.19h-.08c-.08 0-.13-.05-.13-.13v-.42c0-.12-.05-.16-.16-.13ZM32.08 40.42l-.39-.78c-.03-.07-.02-.12.03-.16a.21.21 0 0 1 .08-.04l.08-.01c.06.01.1.05.11.12l.1.87ZM35.06 40.32c.07.03.3.07.66.12.1.02.12.07.07.15-.11.16-.25.3-.41.4-.07.05-.13.04-.18-.03-.2-.28-.39-.42-.55-.44-.55-.05-.6-.22-.14-.5.01-.02.12-.05.33-.11.15-.04.26-.02.33.08.05.06.04.11-.03.14l-.1.04c-.13.05-.12.1.02.15ZM28.82 40.85c.13.08.2.04.24-.1.04-.2.15-.32.33-.37.1-.02.16.02.17.12.04.32-.08.5-.37.54a.25.25 0 0 0-.2.13.64.64 0 0 1-.13.2c-.11.06-.18.04-.2-.08l-.05-.42c-.01-.1.02-.12.1-.07l.1.05ZM36.3 42.3a.2.2 0 0 0-.19-.07.22.22 0 0 0-.17.13c-.14.3-.41.4-.8.3-.1-.03-.15-.09-.15-.19 0-.08.03-.15.1-.23.04-.06.12-.1.22-.12l.92-.17c.1-.01.18.01.25.08.07.06.1.14.1.23 0 .04-.03.07-.1.1a.1.1 0 0 1-.11 0 .45.45 0 0 1-.06-.05ZM32.17 42.87l-.7-.14c-.44-.22-.4-.37.09-.45l.61-.09c.16-.02.24.05.24.2v.3c0 .15-.08.22-.24.18ZM31.77 43.3c.23-.03.4-.11.4-.19-.01-.08-.2-.12-.43-.1-.23.02-.4.1-.4.18 0 .08.2.13.43.1ZM27.18 43.24l.79-.18a.45.45 0 0 1 .35.05l.23.13c.06.04.1.1.08.17-.01.08-.05.13-.13.14l-1.67.4a.4.4 0 0 1-.37-.09l-.27-.23a.32.32 0 0 1-.1-.23c0-.09.03-.14.1-.17.28-.1.57-.1.89.01h.1ZM26.76 44.61c.08.09.2.12.26.06.07-.06.05-.18-.03-.27-.09-.09-.2-.12-.27-.06-.06.06-.04.18.04.27ZM32.1 44.8l-.08.1a.18.18 0 0 1-.07.05c-.55.24-.94.2-1.17-.1-.28-.38-.22-.44.18-.19l.26.15c.09.05.17.04.25-.02.1-.07.16-.16.2-.3a.22.22 0 0 1 .18-.14c.1-.02.28 0 .53.06.14.03.15.08.03.15l-.13.07a.62.62 0 0 0-.18.17ZM17.3 45.39l.44-.59c.03-.05.08-.07.15-.05.06.02.09.06.1.13l.01.65c0 .11-.05.16-.16.14l-.45-.07a.13.13 0 0 1-.1-.08.12.12 0 0 1 .01-.13ZM26.87 45.42c.39-.18.81-.28 1.28-.3.05 0 .08.03.06.1l-.02.12c-.02.05-.04.08-.1.08h-.97a.26.26 0 0 0-.17.06c-.06.05-.09.1-.08.14a.1.1 0 0 0 .07.07c.12.04.2.09.24.14.05.07.03.09-.04.06a2.03 2.03 0 0 1-.7-.42c-.08-.09-.06-.12.05-.1.05 0 .1.01.14.04.08.04.16.04.24 0Z" fill="#2A2929"/></svg>