<svg width="56" height="56" viewBox="0 0 56 56" xmlns="http://www.w3.org/2000/svg"><path fill="#F0F3FA" d="M0 0h56v56H0z"/><path d="M29.89 23.41a34.43 34.43 0 0 0-7.99-2.33 80.04 80.04 0 0 0-7.1-.9c-.25-.02-.25-.06 0-.11.1-.03.22-.04.33-.04 3.24-.06 6.35-.03 9.32.1a79.25 79.25 0 0 1 21.05 3.8c1.4.45 2.55.78 3.63 1.43.94.56 1.12 1.29.54 2.17-.7 1.05-2.57 1.7-3.71 2.07a112.45 112.45 0 0 1-19.46 4.48c-5.26.72-10.64.98-16.03.91a68.9 68.9 0 0 1-4.36-.2.11.11 0 0 1-.1-.1L6 34.65c0-.03.01-.05.05-.06 4.3-.23 8.57-.74 12.82-1.53 3.28-.6 6.47-1.5 9.6-2.68 4.1-1.56 7.36-4.39 1.42-6.96Z" fill="#00923F"/><path d="m26.23 27.13 1.16-2.1.03-.02.02-.01h1.05l.03.01.03.03a.08.08 0 0 1 0 .07l-2.18 3.85-.02.03-.03.01h-2.13l-.04-.02a.07.07 0 0 1-.02-.04l-.31-2.19c0-.01 0-.03-.02-.04a.06.06 0 0 0-.03-.02h-.04a.06.06 0 0 0-.02.03l-1.27 2.24-.02.03h-.03l-1.02.01-.04-.01-.02-.03a.08.08 0 0 1 0-.07l2.18-3.85.02-.02.03-.02h2.25c.02 0 .03.02.04.03l.02.04.27 2.03c0 .02 0 .03.02.04l.03.02h.03l.03-.03ZM32.82 25c.43.04.89.22 1.38.54.08.05.1.12.03.2-.19.3-.4.86-.79.81H32c-.13 0-.16-.06-.08-.18l.29-.43c.06-.1.04-.15-.07-.15h-.81c-.06 0-.11.03-.15.1l-1.27 2.2c-.05.1-.03.14.07.14h.79c.04 0 .08-.01.11-.04a.25.25 0 0 0 .09-.09l.4-.72a.2.2 0 0 1 .06-.07.17.17 0 0 1 .1-.03l1.15-.02.56.04.03.01.03.04a.09.09 0 0 1 0 .08l-.53.88a.29.29 0 0 1-.15.12l-1.3.48c-.8.08-1.59.11-2.38.07-.28 0-.5-.06-.69-.16a8.68 8.68 0 0 0-.68-.35l-.02-.03v-.07l1.54-2.7a.31.31 0 0 1 .2-.15c.68-.19 1.24-.47 1.98-.49l1.56-.03Z" fill="#1F1A17"/><path fill-rule="evenodd" d="m37.8 25-.39.02c-.66 0-1.26.21-1.88.43l-.22.07a.38.38 0 0 0-.2.18l-1.48 2.6a.16.16 0 0 0-.01.12c0 .02 0 .03.02.05l.05.04c.1.04.19.1.28.15.3.17.61.35.96.34h.7c.65 0 1.29.01 1.9-.2l1.04-.34a.33.33 0 0 0 .18-.15l1.48-2.59c.04-.08.03-.14-.04-.2-.75-.55-1.54-.53-2.39-.51Zm-.74.8-1.34 2.32a.07.07 0 0 0 .02.1H36.7l.02-.03 1.31-2.32a.07.07 0 0 0 0-.07.06.06 0 0 0-.02-.02l-.03-.01h-.87l-.03.01-.02.03ZM17.17 28.23h1.27l.02.04a.08.08 0 0 1 0 .07l-.36.5v.08l.02.03.01.02.02.03h2.23l.02-.03v-.03c.02 0 .03-.01.03-.02l2.1-3.81a.08.08 0 0 0 0-.07.07.07 0 0 0-.02-.03l-.03-.01h-2.96l-.04.02-4.55 3.86a.07.07 0 0 0-.02.03v.04c0 .02.02.03.03.04l.03.01h1.25s.02 0 .03-.02l.88-.74.04-.01Zm2.56-2.09-.03-.03h-.04l-1.45 1.24-.02.02v.02l.02.01.01.01.7-.02h.02l.01-.02.78-1.19a.04.04 0 0 0 0-.04ZM14.83 27.17c.12.02.23.07.34.12.1.05.12.13.06.23l-.47.8a.34.34 0 0 1-.2.17c-.2.06-.4.12-.58.2a3.9 3.9 0 0 1-1.35.31H9.37l-.02-.01-.03-.03a.08.08 0 0 1 0-.07l2.12-3.75a.27.27 0 0 1 .09-.1.24.24 0 0 1 .12-.04h3.42c.2 0 .54.18 1.02.5.06.04.07.1.03.17l-.43.76a.45.45 0 0 1-.28.22l-.6.17c-.46.13-.45.24.02.35Zm-.77-1.3-.44.72s0 .02-.02.02H12.78l-.02-.03a.07.07 0 0 1 0-.07l.41-.7c0-.02.01-.02.02-.03h.03l.79-.01h.03l.02.03a.07.07 0 0 1 0 .07Zm-1.34 2.32.45-.73a.07.07 0 0 0 0-.07.07.07 0 0 0-.02-.02l-.03-.01h-.8l-.03.01-.02.03-.41.72a.07.07 0 0 0 0 .07c0 .01 0 .02.02.03h.79l.03-.01.02-.02Z" fill="#1F1A17"/></svg>