<svg width="56" height="56" viewBox="0 0 56 56" xmlns="http://www.w3.org/2000/svg"><path fill="#F0F3FA" d="M0 0h56v56H0z"/><path d="M28 10h.03a37.58 37.58 0 0 1 11.7 15.6 12.8 12.8 0 0 1-.24 11.61c-.14.27-.4.5-.81.67-.9.4-1.76.37-2.59-.08-.11-.05-.12-.13-.04-.23a8.02 8.02 0 0 0 1.63-3.29c.6-2.33.57-4.37-.05-6.13a24.66 24.66 0 0 0-2.91-5.54A68.74 68.74 0 0 0 28 14.29a.1.1 0 0 0-.03 0c0 .01 0 .02-.02.03a68.64 68.64 0 0 0-6.67 8.29 24.7 24.7 0 0 0-2.9 5.54c-.63 1.76-.65 3.8-.06 6.13.33 1.3.87 2.4 1.63 3.29.08.1.07.17-.04.23-.84.45-1.7.47-2.6.08-.4-.18-.66-.4-.8-.67a12.8 12.8 0 0 1-.23-11.6c1.07-2.37 2.49-4.71 4.25-7.04A80.64 80.64 0 0 1 27.98 10H28Zm0 27a6 6 0 1 0 0-12 6 6 0 0 0 0 12Zm6.4 2.37a9.8 9.8 0 0 1-6.4 2.5 9.8 9.8 0 0 1-6.4-2.5c-.07-.05-.13-.05-.19 0-.95.74-2.02.92-3.2.52-.11-.04-.13 0-.06.08a12.77 12.77 0 0 0 5.21 4.09 11.74 11.74 0 0 0 9.27 0c2.06-.87 3.8-2.24 5.21-4.09.07-.09.05-.12-.05-.08-1.19.4-2.25.22-3.2-.53-.07-.04-.13-.04-.19 0Z" fill="#025FA2"/></svg>