<svg width="56" height="56" viewBox="0 0 56 56" xmlns="http://www.w3.org/2000/svg"><path fill="#F0F3FA" d="M0 0h56v56H0z"/><path d="M31.4 23.67c1.27.01 1.84-.3 3.17-1.69a21.31 21.31 0 0 0 4.5-6.81c.77-1.9 1.38-4.4-.02-6.16h-.04l-.02.01c.35.62.54 1.29.6 2a9.22 9.22 0 0 1-.42 3.32 15.7 15.7 0 0 1-1.9 4.07c-.65 1-1.28 1.82-1.88 2.5-.66.73-1.42 1.35-2.22 1.92-.4.28-.76.48-1.08.6-.39.13-.67.01-.86-.37a5.55 5.55 0 0 1-.33-.92c-.45-1.61-1.73-.76-2.42-.01-.78.82-1.51 1.8-2.2 2.91-.05.08-.07.07-.08-.02a37.9 37.9 0 0 0-.07-.68c-.1-.98-.48-2.17-1.25-2.75-.2-.15-.38-.22-.56-.2-.47.05-.42.67-.37 1.02.01.06 0 .07-.05.03a4.22 4.22 0 0 0-3.3-.93 3.41 3.41 0 0 0-2.6 1.97h.01a.17.17 0 0 0 0 .02c1.16-1.97 3.44-2.37 5.32-1.24.3.18.65.45.76.8.22.67.52 1.3.9 1.9.04.06.09.06.14 0l.16-.17a.19.19 0 0 0 .02-.23c-.39-.62-1.2-2.01-1-2.73a.18.18 0 0 1 .1-.11.17.17 0 0 1 .15 0c.72.35 1.04 1.85 1.13 2.56.08.64.1 1.3.06 1.97 0 .18.04.19.13.04.16-.26.36-.5.6-.72.44-.4.83-.36 1.15.13l.36.54c.32.5.64 1.02 1.05 1.44.76.79 1.86.74 2.8.3-.11 0-.21 0-.32-.02-.07-.01-.1-.04-.12-.08-.01-.05 0-.1.06-.18l-.59.18c-1.57.4-2.2-.78-2.81-1.91l-.16-.3a1.13 1.13 0 0 0-.64-.54c-.1-.04-.1-.07 0-.09a10.4 10.4 0 0 1 1.9-.2c2.91-.04 6 .29 8.83 0 1.07-.1 2.76-1.24 3-2.39v-.03l-.02.02c-.93 1.07-1.55 1.74-2.98 2.05-2.9.58-6.05 0-9.01.17-.84.04-1.75.14-2.48.52-.1.05-.13.03-.07-.08.44-.73 2.8-4.26 3.79-3.54.17.12.29.3.35.52.14.5.27.87.36 1.1a1 1 0 0 0 .46.5Z" fill="#BCA068"/><path d="M21.8 27.71v.03h.04a6.36 6.36 0 0 1 1.86-.35c1.5-.01 2.64.62 3.43 1.91.42.67.7 1.45.82 2.33a9.35 9.35 0 0 1-.66 5.13.19.19 0 0 1-.2.12h-.03c-.07-.06-.09-.12-.05-.2.66-1.3.94-2.7.83-4.21a6.26 6.26 0 0 0-1.14-3.33c-1.2-1.58-3.01-1.8-4.95-1.16a.9.9 0 0 1-.44.03.13.13 0 0 1-.08-.05.13.13 0 0 1-.02-.1.32.32 0 0 1 .14-.22c.49-.35 1.04-.63 1.55-.9.08-.05.13-.1.17-.18 0-.03 0-.05-.04-.05-.23 0-.46.02-.68.08a61 61 0 0 1-3.09.73c-.24.05-.82.14-1.04.01-.09-.05-.1-.12-.02-.2.14-.14.31-.25.5-.35a9.97 9.97 0 0 1 1.6-.62c.95-.27 1.87-.48 2.76-.63a4.8 4.8 0 0 1 1.68 0v.02l-.03.02c-.35 0-.68 0-.99.03-1.34.13-2.63.42-3.86.87a7.4 7.4 0 0 0-1.26.6c-.16.1-.15.15.04.17.31.03.77-.08 1.12-.17l2.5-.67c.37-.1.77-.23 1.14-.14a.16.16 0 0 1 .12.17c0 .02 0 .04-.02.07a.93.93 0 0 1-.3.33 10.36 10.36 0 0 1-1.4.84v.04Z" fill="#003955"/><path d="M26.82 46.26c.07.24.18.44.3.66.04.1.03.1-.05.03-.64-.6-.8-1.5-.77-2.35.04-.94.2-1.96.47-3.09l1.1-4.51c.3-1.25.53-2.49.67-3.72.29-2.53-.01-5.2-2.13-6.85a.31.31 0 0 1-.06-.06c-.2-.3-.14-.43.17-.4l.1.05c2.24 1.67 2.5 4.46 2.18 7.04a30.18 30.18 0 0 1-.6 3.36l-1.05 4.27c-.29 1.19-.48 2.4-.56 3.62-.05.66.03 1.31.23 1.95Z" fill="#BCA068"/></svg>