<svg width="56" height="56" viewBox="0 0 56 56" xmlns="http://www.w3.org/2000/svg"><path fill="#FF6301" d="M0 0h56v56H0z"/><path d="M30.66 15.43c-1.5 2.36-2.82.99-2.5-.23a.88.88 0 0 0 .57-.33.9.9 0 0 0 .19-.62L28.38 11v2.96c0 .13-.05.25-.13.34a.46.46 0 0 1-.8-.34V11l-.53 3.25a.9.9 0 0 0 .2.64c.15.18.36.3.6.32.31 1.22-1 2.57-2.49.22l.38-.27a1.57 1.57 0 0 0-1.56-.74c.5.38.9.87 1.16 1.45h-.02c.86 1.65-.93 2.9-2.1 1.07l.63-.49c-.62-1.02-1.6-1.56-3.1-1.46 2.06 1.53 3.3 4.14 3.38 8.27a15.6 15.6 0 0 1 7.88 0c.08-4.13 1.32-6.74 3.38-8.27-1.5-.1-2.48.44-3.1 1.46l.64.48c-1.18 1.84-2.97.6-2.11-1.06.25-.57.65-1.07 1.16-1.45a1.54 1.54 0 0 0-1.57.74l.38.27Zm-6.01 4.5.08-.26.08.26h.28l-.22.17.08.26-.22-.16-.22.16.08-.26-.22-.17h.28Zm6.48 0 .08-.26.09.26h.27l-.22.17.08.26-.22-.16-.22.16.08-.26-.22-.17h.28ZM28 21.33V18.4a.45.45 0 0 0-.06-.11c-.03-.04-.06-.08-.07-.12.26 0 .52 0 .78.02l.19.5a170.74 170.74 0 0 0 .7 1.77v-1.91l-.11-.27c.3.06.6.14.9.23l-.09.21v2.9l.07.24-.77-.16a299.5 299.5 0 0 1-.89-2.22v1.88l.1.25c-.3-.02-.6-.02-.9-.02l.15-.25Zm-1.67-.23V19l.48-.08.19.15v.36l-.25.19-.42.3v.71l.5-.39.17.16v.46l-.1.09-.09.1-.48.06Zm-.72-2.37-.05-.22a14.52 14.52 0 0 1 1.63-.3l.42.37.06.06v.93l-.06.06-.22.21.24.2.04.03v1.08l-.3.3-.18.18a17.15 17.15 0 0 0-1.52.23l-.11.02.01-.06.04-.19v-2.9Zm-7.86 16.6c-3.92.32-7.81.84-11.68 1.57v-.4c3.85-.9 7.75-1.55 11.68-1.96v.78ZM50 36.9c-3.88-.68-7.75-1.18-11.63-1.52v-.79c3.9.42 7.79 1.06 11.63 1.9v.4ZM12.34 24.85Zm.18.63-.18-.63.36.05 2.5.32-.16.45-.03.09a390.82 390.82 0 0 0 1.25 6.72l.27.53a568.49 568.49 0 0 0-2.12.2l.12-.51.02-.07-.16-1.05v-.06l-1.03.07-.17.01-.15 1.18.15.58-.24.03-1.92.25.12-.27.17-.41a766.54 766.54 0 0 1 1.2-7.48Zm1.35 2.64-.1-.67-.11.89-.05.37-.09.66-.08.62.7-.01-.19-1.26-.08-.6ZM6 23.82Zm.24.05L6 23.83v9.85l.02.76.24-.04 1.2-.2.3-.06 1.97-.31c.2-.24.44-.48.67-.72.22-.21.43-.42.6-.63V29.63c-.1-.1-.25-.2-.4-.3-.16-.12-.32-.23-.43-.34l.83-.66v-2.46l-1.28-1.4a75.15 75.15 0 0 1-3.39-.58l-.09-.02ZM8 27.13v-.94h.86l.37.5v1.02c-.27.18-.46.35-.66.53-.17.15-.34.3-.57.47v-1.58Zm0 5.17v-1.53c.18-.15.3-.28.43-.4.14-.14.28-.28.5-.45l.3.49v1.27l-.36.5-.45.06-.42.06Zm8.93-6.62.07.27v6.45l-.1.29-.08.27 1.44-.11.64-.05-.17-.35-.07-.15-.01-1.01v-1.01l.27-.01.29-.01.45.98.05.11.4.86-.12.52 2.33-.13-.46-.47-.54-1-.21-.4-.32-.61.85-.85V26.7l-1.09-1c-1.23-.1-2.46-.19-3.68-.3l.06.27Zm1.7 1.54v-.33l1.06.04.15.19c.04.07.09.13.16.2v1.23c-.06.05-.1.11-.14.17a.96.96 0 0 1-.15.17h-1.07a136.3 136.3 0 0 0 0-1v-.67Zm4.3-1.39Zm0 0 .03.2c0 .1.02.18.04.27V29.2a436.1 436.1 0 0 1-.03 3.16l-.03.23h.08l.16-.01 1.5-.05a79.9 79.9 0 0 1 1.88-.02h.1l1.09-.88V29.56l-.65-.46.64-.48v-1.8l-.53-.4c-.2-.13-.38-.26-.57-.42-.66 0-1.33-.05-2-.09-.49-.03-.98-.06-1.47-.07h-.14l-.1-.01Zm1.75 2.37v-1.04a221.49 221.49 0 0 1 1.1.03l.07.06.3.26v.7a125.7 125.7 0 0 1-1.47.76v.26-1.03Zm0 2.16v-1.13 1.13Zm0 0 1.16-.62a18.52 18.52 0 0 0 .32.34 59.05 59.05 0 0 0 0 .89l-.12.1-.25.22-1.1.01v-.94Zm3.75-4.14-.1-.22c.97-.02 1.95-.06 2.92-.1l1.3-.06.32 1.45c-.17-.03-.33-.09-.5-.14-.16-.06-.32-.12-.48-.15H30v1.49h1.63l.6-.17.01 1.57-.66-.17h-.6L30 29.7v1.56l2.71.05.54-.12-.25 1.38v.03c-1.56-.05-3.12-.09-4.68-.11a24 24 0 0 1 .2-.47V26.4a3.18 3.18 0 0 0-.09-.17Zm5.57 1.4v-.8c.19-.2.34-.39.5-.58.15-.18.3-.36.48-.55.82-.05 1.63-.1 2.45-.18l1.14 1.03V31.97l.36.44.2.26-1.03.9-.71-.67c-.82-.07-1.64-.12-2.45-.17a7.56 7.56 0 0 1-.47-.55c-.14-.19-.3-.37-.47-.56v-4Zm1.86-.64-.34.35V31.05l.21.21.16.15.65.03.24-.17.22-.16v-3.84l-.18-.15a3.22 3.22 0 0 1-.2-.17l-.76.03Zm3.6-1.09-.16-.52 1.95-.22c-.03.1-.08.19-.12.28-.05.1-.1.2-.13.3v5.57l.38.48.77.06.32-.4.04-.05V31a529.25 529.25 0 0 1-.03-4.03v-1.39l-.17-.58 1.22-.15.75-.1-.28.64V32.34c-.17.18-.32.37-.46.55-.16.2-.31.4-.5.6l-2.5-.3a84.8 84.8 0 0 0-1.08-1.25V25.9Zm10.17 8.57c-1.57-.25-3.07-.5-4.63-.72v-9.08a189 189 0 0 0 4.18-.71l.32 2.23-.98-.24-.64.09-.88.1V28s.68-.02 1.27 0c.42.01.5-.05.6-.13l.13-.08v2.41l-.79-.2H47v2.19l1.29.13 1.05.12.54-.16-.25 2.18ZM33 23.58c5.7-.3 11.26-.94 16.88-1.9v.4c-5.6 1.2-11.17 1.98-16.88 2.34v-.84Zm-9 .88v-.82c2.58-.7 5.42-.7 8 0v.82a16.77 16.77 0 0 0-8 0ZM6 22.08v-.4c5.62.96 11.3 1.6 17 1.9v.84a115.5 115.5 0 0 1-17-2.34ZM17.9 34l.1.35v4.28l-.13.37h1.33l-.2-.37V35.9l1.33 3.1h1.14l-.1-.36v-4.28l.13-.36h-1.32l.15.36v2.81L19.04 34h-1.13Zm16.63 0 .1.35h-.01v4.28l-.13.37h1.32l-.15-.37V35.9l1.3 3.1h1.12l-.08-.36v-4.28l.12-.36H36.8l.21.36v2.81L35.66 34h-1.13ZM31 38.24v-3.48l.79-.76h1.56l.65.75v3.5l-.68.75h-1.57l-.75-.76ZM32.3 35l-.3.18v2.62l.28.2h.42l.3-.2v-2.62l-.22-.18h-.48Zm-1.71-1-.13.36v4.27l.13.37h-1.3l.12-.37v-4.27l-.13-.36h1.3Zm-4.13 4.63V35h-.8l-.62.09.2-1.09h3.48l.21 1.09-.62-.09h-.8v3.63l.13.37h-1.3l.12-.37ZM24.48 34h-1.8l.09.36-.77 4.28-.19.36h1.38l-.1-.36.1-.64h.76l.1.64-.09.36h1.36l-.17-.36-.8-4.28.13-.36Zm-1.13 3 .22-1.53.22 1.53h-.44Z" fill="#fff"/></svg>