<svg width="56" height="56" viewBox="0 0 56 56" xmlns="http://www.w3.org/2000/svg"><path fill="#F0F3FA" d="M0 0h56v56H0z"/><circle cx="28" cy="28" r="16" fill="#39B3C2"/><path d="M13.8 20.61c2.3-.94 6.31-2.2 10.54-2.2 4.42 0 5.23 1.3 5.23 2.49 0 1.19-1.55 3.3-2.47 3.82 1.8-.45 2.99-.72 5.93-.72 2.95 0 7.97.85 7.97 4.74 0 3.8-4.12 10.06-13.29 15.26a15.94 15.94 0 0 1-10.23-3.94c5.27-2.6 15.55-8.18 15.55-10.64 0-1.08-.74-2-6.47-2-3.49 0-7.8 1.8-9.56 2.58 2.69-1.81 8-5.99 8-8v-.02c0-.43 0-.98-1.85-.98-1.8 0-4.1.15-10.64 2.97.3-1.18.74-2.3 1.3-3.36Z" fill="#fff" fill-opacity=".7"/></svg>