<svg width="56" height="56" xmlns="http://www.w3.org/2000/svg"><path fill="#E20613" d="M0 0h56v56H0z"/><path d="M51.933 29.695a44.59 44.59 0 00-.412-.534c-.118-.151-.2-.16-.399 0a35.58 35.58 0 01-1.345 1.062c-.34.262-.656.184-.502-.22.28-.727 1.118-2.809 1.557-3.82.005-.009.01-.018.01-.027l.027-.06-.01.01c.096-.35-.221-.548-.819-.46-1.078.156-1.562.114-2.364 0-.226-.033-.53 0-.67.28s-.271.469-.271.469-1.93-1.89-5.257-.115c-1.658.882-2.31 2.054-2.572 3.047-.01.037-1.092.776-1.852 1.107-.412.161-.68.101-.426-.551.254-.653 1.24-2.882 1.24-2.882s.662-.004 1.01-.1c.336-.093.535-.148.743-.295.208-.147.276-.211.131-.496-.158-.308-.185-.39-.258-.529-.077-.138-.15-.207-.335-.115-.23.11-.43.17-.552.18-.177.009-.245-.023-.123-.313.069-.16.607-1.498.743-1.88.09-.257-.036-.68-.502-.79-.39-.092-.806.234-.988.515-.797 1.217-1.449 1.328-1.793 1.374-.294.041-1.3-.092-1.716 1.093 0 0-.874.01-1.019.01-.18 0-.212.032-.262.202-.05.16-.195.616-.254.818-.063.202.023.257.118.257h.974s-.58 1.296-1.065 2.4c-1.295.96-1.856 1.194-2.309 1.396-.208.092-.688.161-.412-.487.245-.583 1.182-2.96 1.644-4.026.172-.4-.15-.634-.793-.542-1.077.156-1.562.115-2.363 0-.227-.032-.53 0-.67.28s-.272.47-.272.47-1.929-1.89-5.257-.116c-1.739.924-2.386 2.193-2.608 3.19-.376.28-.802.565-1.282.781.005-.009.005-.023.01-.032.067-.257.665-2.868-1.45-3.52.594-.152 1.02-.336 1.286-.515 1.037-.772.965-1.678.806-2.215-.208-.699-1.218-1.444-2.549-1.77-3.536-.79-5.936.699-7.005 1.283-1.136.615-2.59 1.852-2.916 2.132-.031.028-.045.074-.009.11.186.184.707.703.738.736.037.036.068.05.118 0 .53-.446 1.069-.85 1.752-1.301l-2.092 4.94c-.715 1.664-1.72.841-1.72.841s-.295-.165-.77-.744c-.05-.064-.113-.037-.131.014-.01.023-.426.937-.444.983-.018.046-.04.092.005.147.593.763 1.14 1.039 1.707 1.329.828.418 2.907.56 4.247-.607.679-.616.815-.883 1.263-1.912l2.414-5.713c.321-.698.873-1.397 1.54-1.236.574.143.506 1.048.506 1.048-.09.933-.575 1.563-1.494 1.797-.195.05-.485.05-.634.05-.077.005-.104.014-.136.092a28.25 28.25 0 00-.294.75c-.027.082.009.202.127.202.104 0 .23-.005.335-.005.335 0 .86.216.969.685.077.33.145.675-.177 1.608-.308.897-.625 1.301-1.01 1.54-.511.317-1.05.322-1.734-.257-.059-.06-.104-.019-.113.014l-.376.896c-.027.055-.05.115.005.165.937.92 1.784 1.181 3.092 1.181.897 0 1.563-.165 2.151-.386 1.39-.51 2.323-1.025 3.201-1.627.01.078.023.124.023.124.113.538.643 1.89 2.436 1.89 1.562 0 2.604-.81 3.469-1.632.298 1.466 1.33 1.631 1.72 1.631.39 0 1.055-.115 1.793-.372.63-.22 1.712-.68 2.989-1.42-.086.52-.023 1.319.62 1.622.774.368 2.137.019 2.55-.151.366-.148 1.702-.773 2.793-1.384.213-.12.616-.335.797-.432.005.05.023.157.036.235.114.537.643 1.889 2.436 1.889 1.563 0 2.604-.81 3.469-1.632.299 1.466 1.331 1.631 1.72 1.631 1.753 0 3.17-.965 5.448-2.94.072-.111.14-.185.018-.345zM45.86 28.21c-.385.882-1.15 1.889-1.907 2.353-.964.699-1.652-.372-1.01-1.631.367-.699.757-1.264 1.608-1.797 1.014-.63 1.77.023 1.309 1.075zm-19.204.01c-.384.882-1.15 1.888-1.906 2.352-.964.699-1.653-.372-1.01-1.631.367-.699.757-1.264 1.608-1.797 1.01-.625 1.77.027 1.308 1.075z" fill="#fff"/></svg>