<svg width="56" height="56" viewBox="0 0 56 56" xmlns="http://www.w3.org/2000/svg"><path fill="#0E4D90" d="M0 0h56v56H0z"/><path fill-rule="evenodd" d="M28 45a17 17 0 1 0 0-34 17 17 0 0 0 0 34Zm1.5-2a14.5 14.5 0 1 0 0-29 14.5 14.5 0 0 0 0 29Zm-1-2a12.5 12.5 0 1 0 0-25 12.5 12.5 0 0 0 0 25Zm1.5-1.5a10.5 10.5 0 1 0 0-21 10.5 10.5 0 0 0 0 21ZM32.3 22h-5.53a.76.76 0 0 0-.77.76v11.48c0 .42.34.76.77.76h5.27A3.93 3.93 0 0 0 36 31.1c0-1.29-.64-2.43-1.61-3.14a3.3 3.3 0 0 0 1.3-2.63A3.36 3.36 0 0 0 32.31 22Zm-.68 2.5H28.5v3h3.12c.76 0 1.38-.67 1.38-1.5s-.62-1.5-1.38-1.5Zm.19 5H28.5v3h3.31c.93 0 1.69-.67 1.69-1.5s-.76-1.5-1.7-1.5Z" fill="#fff"/></svg>