<svg width="56" height="56" viewBox="0 0 56 56" xmlns="http://www.w3.org/2000/svg"><path fill="url(#aku54htjd)" d="M0 0h56v56H0z"/><path d="M32.8 14h-9.64L9.13 27.92l-.13.13 14.12 13.9.04.05h9.64l14.07-13.82.13-.13-14.08-13.93-.12-.12Zm-2.17 1.5L28 18.16l-2.63-2.66h5.26Zm5.17 12.55L28 35.74l-7.8-7.7L28 20.3l7.8 7.75Zm-12.28-12.2 3.4 3.38-8.12 8.07h-6.82l11.54-11.45ZM11.99 28.8h6.8l8.13 8-3.4 3.35L11.99 28.8Zm13.39 11.7L28 37.86l2.62 2.64h-5.24Zm7.09-.36-3.4-3.34 8.13-8H44L32.47 40.14ZM37.2 27.3l-8.12-8.07 3.39-3.36L44 27.3h-6.8Z" fill="#fff"/><defs><linearGradient id="aku54htjd" x1="10.42" y1="9.71" x2="68.15" y2="76.02" gradientUnits="userSpaceOnUse"><stop stop-color="#1A1E21"/><stop offset="1" stop-color="#06060A"/></linearGradient></defs></svg>