<svg width="56" height="56" viewBox="0 0 56 56" xmlns="http://www.w3.org/2000/svg"><path fill="#F0F3FA" d="M0 0h56v56H0z"/><path d="M40.35 16.15a2.6 2.6 0 0 1 3.4-.85c1.2.64 1.6 2.05.92 3.15l-12.73 20.4a2.6 2.6 0 0 1-3.4.84 2.21 2.21 0 0 1-.92-3.15l12.73-20.4Z" fill="#8BCC24"/><path d="M40.06 15.15a2.6 2.6 0 0 1 3.4-.84c1.2.64 1.6 2.05.92 3.15l-12.73 20.4a2.6 2.6 0 0 1-3.4.84 2.21 2.21 0 0 1-.92-3.15l12.73-20.4Z" fill="#124D84"/><path d="M27.49 24.07a2.53 2.53 0 0 1 3.3-.81c1.16.61 1.55 1.98.89 3.04L23.79 38.9a2.53 2.53 0 0 1-3.3.81c-1.16-.61-1.55-1.98-.89-3.04l7.89-12.59Z" fill="#8BCC24"/><path d="M27.21 23.11a2.53 2.53 0 0 1 3.3-.81c1.16.61 1.55 1.98.89 3.04L23.5 37.93a2.53 2.53 0 0 1-3.3.81c-1.16-.61-1.55-1.98-.89-3.04l7.89-12.59Z" fill="#124D84"/><path d="M17.08 28.18c.72-1.12 2.34-1.5 3.6-.86 1.26.65 1.7 2.08.97 3.2l-5.42 8.31c-.73 1.12-2.34 1.5-3.6.86-1.27-.65-1.7-2.08-.97-3.2l5.42-8.31Z" fill="#8BCC24"/><path d="M16.77 27.17c.73-1.12 2.34-1.5 3.6-.86 1.27.65 1.7 2.08.97 3.2l-5.42 8.31c-.72 1.12-2.34 1.5-3.6.86-1.26-.65-1.7-2.08-.97-3.2l5.42-8.31Z" fill="#124D84"/></svg>