<svg xmlns="http://www.w3.org/2000/svg" width="56" height="56" viewBox="0 0 56 56"><path fill="#F0F3FA" d="M0 0h56v56H0z"/><path d="M31.35 14.97a12.05 12.05 0 0 0-16.5.6l-.33.34a12.19 12.19 0 0 0-.6 16.49c.32.37.88.37 1.22.02.34-.34.34-.9.03-1.27a10.41 10.41 0 0 1 .6-14l.32-.32a10.31 10.31 0 0 1 14.02-.6c.37.31.92.32 1.26-.03a.84.84 0 0 0-.02-1.23zm-11.81 1.54c-.43.23-.54.78-.27 1.19.27.4.81.5 1.25.3a6.39 6.39 0 0 1 7.34 1.24l6.08 6.12c.34.35.9.35 1.24 0a.89.89 0 0 0 0-1.24l-6.08-6.13a8.13 8.13 0 0 0-9.56-1.48zm15 1.64a.87.87 0 0 0-1.23 0 .89.89 0 0 0 0 1.25l7.62 7.68c.34.35.9.35 1.24 0a.89.89 0 0 0 0-1.25l-7.62-7.68zm-19.52 2.92a8.8 8.8 0 0 0 2 9.7l9.27 8.94c.35.33.9.32 1.24-.03a.89.89 0 0 0-.03-1.25l-9.26-8.94a7.03 7.03 0 0 1-1.67-7.58c.18-.45.02-.99-.4-1.22a.8.8 0 0 0-1.15.38zm3.43 13.39a.87.87 0 0 0-1.24 0 .89.89 0 0 0 0 1.25l4.45 4.49c.35.34.9.34 1.24 0a.89.89 0 0 0 0-1.25l-4.45-4.49zm6.73 6.65a.87.87 0 0 0-1.24 0 .89.89 0 0 0 0 1.24l1.37 1.4c.34.34.9.34 1.24 0a.89.89 0 0 0 0-1.26l-1.37-1.38zm1.34-20.03a4.74 4.74 0 0 0-6.63.1 4.82 4.82 0 0 0 .05 6.83l4.95 4.85c.35.34.9.33 1.24-.02a.89.89 0 0 0-.02-1.24l-4.95-4.86a3.05 3.05 0 0 1-.04-4.31 3 3 0 0 1 4.2-.07l1.09 1.04c.35.34.9.32 1.24-.04a.89.89 0 0 0-.04-1.24l-1.1-1.04zm-3.5 2.53a.87.87 0 0 0-1.25 0 .89.89 0 0 0 0 1.24l8.73 9a3.35 3.35 0 0 0 4.78.02 3.4 3.4 0 0 0 .06-4.73L30.47 24a.87.87 0 0 0-1.24-.03.89.89 0 0 0-.03 1.25l4.87 5.14c.6.63.6 1.64-.03 2.26a1.6 1.6 0 0 1-2.29 0l-8.74-9zm15.8 3.98a.87.87 0 0 0-1.25 0 .89.89 0 0 0 0 1.25l4.93 4.97c.35.34.9.34 1.24 0a.89.89 0 0 0 0-1.25l-4.93-4.97zm-.77 4.51a.87.87 0 0 0-1.24 0 .89.89 0 0 0 0 1.25l3.57 3.6c.35.34.9.34 1.24 0a.89.89 0 0 0 0-1.25l-3.57-3.6zm-9.52 2.08a.87.87 0 0 0-1.24 0 .89.89 0 0 0 0 1.25l6.02 6.06c.34.34.9.34 1.24 0a.89.89 0 0 0 0-1.25l-6.02-6.06zm6.98 1.52a.87.87 0 0 0-1.24 0 .89.89 0 0 0 0 1.25l5.09 5.12c.34.35.9.35 1.24 0a.89.89 0 0 0 0-1.24l-5.1-5.13z" fill="url(#aqtvhdb3g)"/><defs><linearGradient id="aqtvhdb3g" x1="19.57" y1="12" x2="40.98" y2="43.85" gradientUnits="userSpaceOnUse"><stop stop-color="#6533D3"/><stop offset="1" stop-color="#EF3CE8"/></linearGradient></defs></svg>