<svg width="56" height="56" viewBox="0 0 56 56" xmlns="http://www.w3.org/2000/svg"><path fill="#F0F3FA" d="M0 0h56v56H0z"/><path d="M10.5 29v-3h.5v2.67h1.33v.32h-1.82Zm-.67-1v.14c.04.6-.54.9-1.08.86h-.44c-.63 0-1.11-.26-1.08-.93v-1.08c-.06-.68.56-1.04 1.2-.98h.24c.68-.06 1.25.28 1.16.99h-.49c0-.2 0-.4-.15-.57a.8.8 0 0 0-.54-.13h-.24c-.46-.06-.75.26-.7.7v.97c0 .48.16.8.7.73h.24c.5.06.7-.2.7-.66V28h.48Zm-5.37-.71h.7c.25.01.5-.01.74-.07.05-.02.1-.06.13-.11a.3.3 0 0 0 .05-.17v-.32a.26.26 0 0 0-.05-.16.22.22 0 0 0-.13-.08 2.58 2.58 0 0 0-.73-.07h-.71v.98Zm2.16 1c0 .11-.02.22-.07.3a.49.49 0 0 1-.22.21c-.33.12-.68.22-1.03.2H4v-3h1.2c.37-.03.72.06 1.06.17.09.04.16.11.2.2.05.08.07.18.07.28v.26l-.03.18a.4.4 0 0 1-.1.14.94.94 0 0 1-.43.19c.18.02.35.09.5.2.04.05.08.1.11.18.03.07.04.14.04.22v.27Zm-.47-.03V28a.36.36 0 0 0-.04-.2.31.31 0 0 0-.15-.14c-.24-.08-.5-.1-.76-.09h-.74v1.11h.74c.26.02.52 0 .76-.09.06-.02.11-.07.15-.13a.36.36 0 0 0 .04-.2" fill="#111"/><path d="M30 27h-.39v2h.4v-2Z" fill="#59575B"/><path d="M14 26h.43v3H14v-3Zm3 3v-1.24c.03-.31-.11-.56-.44-.53-.4-.04-.6.29-.56.67V29h-.38v-2H16v.27c.19-.21.37-.27.64-.27.44-.04.8.22.76.69V29H17Zm2.63 0H20v-3h-.4v1.27a1.06 1.06 0 0 0-.74-.27c-.54 0-.86.37-.86.88v.19c0 .51.14.93.84.93.28 0 .57-.07.79-.28V29Zm-.67-1.74c.4-.04.68.25.64.64v.2c.04.4-.25.65-.64.65s-.56-.3-.53-.63v-.23c-.03-.34.15-.67.53-.63ZM21 27v1.24c-.03.28.11.53.45.53.4 0 .58-.32.55-.67V27h.37v2H22v-.27c-.17.21-.34.27-.63.27-.42 0-.76-.26-.73-.69V27H21Zm4 1.56v-.26c.02-.32-.37-.4-.62-.41l-.27-.03c-.43-.03-.64-.1-.64-.2v-.19c-.02-.23.3-.25.46-.24h.2a.7.7 0 0 1 .33.06.2.2 0 0 1 .08.08l.02.11v.05H25v-.07c0-.42-.46-.46-.83-.46h-.28c-.3 0-.9.04-.89.44v.26c0 .34.56.36.82.37h.04l.15.01c.37.04.56.13.56.26v.18c.02.23-.3.26-.46.25h-.29c-.23.02-.41-.05-.41-.3v-.12H23v.2c-.01.41.48.45.78.45h.36c.3 0 .86-.04.85-.44Zm.74-1.34h-.32V27h.32v-.41h.4V27h.99v.22h-1v1.2c0 .25.1.4.37.37.33.03.36-.17.36-.42h.35v.12c.04.42-.43.51-.76.5-.33.01-.76-.09-.71-.5v-1.27Zm1.9 1.78H28v-1.24c-.03-.34.27-.57.61-.54.24-.02.41.14.39.38v.09h.36c0-.41-.13-.69-.64-.69-.26 0-.56.07-.72.3V27h-.35v2ZM31 28v.23c0 .39.21.52.6.52.24 0 .67 0 .64-.32v-.06h.36v.06c.03.5-.6.56-1 .56-.5 0-1.06-.19-1-.76v-.46c0-.57.5-.76 1-.76.54 0 1 .16 1 .76V28H31Zm.01-.2h1.2v-.11c0-.35-.29-.46-.6-.46-.3 0-.6.1-.6.46v.12Zm3.99.76v-.26c.02-.32-.37-.4-.62-.41a28.57 28.57 0 0 0-.37-.03c-.3-.03-.58-.05-.58-.39 0-.04.01-.08.03-.1.08-.15.33-.15.47-.14h.25c.16-.01.44.03.41.25v.05h.4v-.07c0-.46-.47-.46-.78-.46h-.32c-.3 0-.9.02-.89.44v.26c0 .35.54.36.8.37a8.8 8.8 0 0 1 .2.01c.38.04.57.13.57.26v.18c.01.23-.3.26-.46.25h-.29c-.23.02-.41-.05-.41-.3v-.12H33v.2c-.01.41.48.45.78.45h.36c.3 0 .86-.04.85-.44Z" fill="#228837"/><path d="M36 26v3h2v-.3h-1.5V26H36Zm2.6 0h.43v.35h-.43V26Zm0 1h.43v2h-.43v-2Zm4.97-1H44v.35h-.43V26Zm0 1H44v2h-.43v-2ZM52 29h-.4v-.28c-.23.2-.55.28-.85.27-.58.06-.9-.34-.9-.92v-.22c0-.56.37-.85.92-.85.33 0 .58.05.8.24V26H52v3Zm-.43-1.12c0-.1 0-.18-.03-.27-.08-.29-.37-.4-.66-.37-.39 0-.57.26-.57.63v.25c0 .39.19.67.57.62.29.03.58-.08.66-.36a.67.67 0 0 0 .03-.27v-.23ZM47.5 28v.23c0 .44.31.52.72.52h.05c.25 0 .76 0 .73-.32v-.06h.44v.06c.04.57-.85.57-1.22.56-.5.01-1.23-.1-1.23-.76v-.46c0-.68.72-.76 1.24-.76s1.3.1 1.22.76V28h-1.95Zm0-.2h1.47v-.11c.06-.4-.43-.48-.73-.46-.3-.02-.8.06-.74.46v.12Zm-2.89-.53H45v1.14c-.05.45.38.62.76.58.23.02.45-.03.65-.13a.5.5 0 0 0 .15-.2.53.53 0 0 0 .04-.26v-.14h-.4v.19a.3.3 0 0 1 0 .13.28.28 0 0 1-.08.1.5.5 0 0 1-.3.08.5.5 0 0 1-.33-.08c-.05-.05-.08-.17-.08-.35v-1.06h1.1V27h-1.1v-.5H45v.5h-.38v.27Zm-2.88-.2a.7.7 0 0 0-.31.22.49.49 0 0 0-.26-.21 1.3 1.3 0 0 0-.48-.08c-.15 0-.3.02-.45.07-.1.03-.14.08-.2.15l-.04.04V27h-.45v2H40v-1.1a.73.73 0 0 1 .11-.52c.14-.11.3-.17.48-.15a.5.5 0 0 1 .38.11c.08.12.12.27.1.41V29h.42v-1.1a.75.75 0 0 1 .14-.52c.14-.11.3-.17.48-.15.13-.01.27.03.38.12a.56.56 0 0 1 .12.4V29h.4v-1.31a.66.66 0 0 0-.18-.53.97.97 0 0 0-.62-.16c-.16 0-.32.02-.47.08Z" fill="#111"/><path d="M29.43 26.14c.08.43.83.34.74-.14-.08-.42-.84-.34-.74.14ZM27.93 24.47l.13.41v-.11a5.4 5.4 0 0 1 .01-1.34c.08-.46.27-.77.78-.47.36.25.69.56.96.9l.18.2c.11.13.22.27.32.42l.07.07.06.09c-.15.13-.31.26-.49.37a.16.16 0 0 0-.01.06c.13-.03.43-.26.58-.32.12.13.22.27.32.41.12.17.8 1.13.85 1.14h1.2a19.22 19.22 0 0 0-1.23-1.47l-.44-.45.12-.08c.69-.4 1.4-.74 2.13-1.05.8-.33 2.28-.8 2.04.6v.09h.69c.08 0 .06-.13.07-.28a2.8 2.8 0 0 0-.05-.96.98.98 0 0 0-.25-.45c-.23-.22-.32-.17-.49-.25h-.4a7.75 7.75 0 0 0-2.2.94l-.94.61-.91.64-.35-.36c-.3-.26-.55-.5-.87-.73-.53-.4-1.8-1.23-2.05-.2-.12.53.07 1.08.17 1.57ZM31.8 29.32c-.2.26-.43.5-.66.77l-.12.13c-.45.5-.95.95-1.48 1.36-.42.3-1.22.83-1.74.48a.93.93 0 0 1-.34-.52c-.03.01-.03 0-.05.02.03.22-.03.35.06.58.05.15.16.27.3.35.86.45 2.3-.7 2.96-1.18.38-.32.74-.66 1.08-1.02.19-.2.38-.42.56-.64l.27-.33c.1-.1.18-.22.26-.34h-.51c-.45 0-.32.02-.58.34M34.4 32.36c-.15.65-1.4-.31-1.7-.52l-.31-.24.08.13.09.07.1.1.37.37c.26.26.56.47.89.63l.3.1h.22c.19-.1.26-.1.35-.3.2-.46.07-1.2-.03-1.65-.07-.34-.17-.66-.27-.99-.1-.33-.24-.64-.34-.96l-.02-.07-.85-.02c0 .07.2.47.25.58l.26.57c.17.4.73 1.73.62 2.2" fill="#59575B"/><path d="M35.21 24a.23.23 0 0 0-.27.13c.06.1.14.2.22.3.08.11.14.28.3.24a8 8 0 0 0 .75-.35.34.34 0 0 0-.1-.24c-.2.01-.43.23-.64.24a.65.65 0 0 1-.26-.31ZM35.46 25.88a.37.37 0 0 0-.1-.24c-.14 0-.4.17-.54.22-.13.05-.18-.04-.23-.1-.05-.07-.13-.16-.16-.22h-.08c-.03.04-.1.05-.16.13.12.2.26.38.41.55.19.02.7-.26.86-.34M35.03 25.43c.12.08.36-.07.46-.12a4 4 0 0 0 .42-.2.29.29 0 0 0-.1-.24c-.18.05-.36.12-.53.22-.16.06-.29-.15-.4-.31-.09 0-.2.05-.22.11-.03.07.37.54.37.54" fill="#228837"/><path d="M29.22 25.54c-.51.57.22 1.41.95 1.03a.68.68 0 0 0 .37-.67.67.67 0 0 0-.5-.58.79.79 0 0 0-.83.22m.5-.17a.66.66 0 0 1 .74.5.61.61 0 0 1-.3.63.63.63 0 0 1-.24.07.63.63 0 0 1-.67-.26.61.61 0 0 1 .47-.94" fill="#C71414"/></svg>