<svg width="56" height="56" viewBox="0 0 56 56" xmlns="http://www.w3.org/2000/svg"><path fill="#F0F3FA" d="M0 0h56v56H0z"/><path d="M28 8a6495.87 6495.87 0 0 0 3.05 22.5c.01.07.05.1.12.13a1322.09 1322.09 0 0 0 9.7 2.48c.18.04.17.08 0 .12-1.52.33-2.97.65-4.33.97-.63.16-1.6.38-2.9.67-1.4.31-2.4.54-3.01.7-.1.02-.17.08-.2.19-.79 3.58-1.57 7.24-2.34 10.99-.03.17-.07.25-.1.25-.02 0-.05-.08-.08-.25-.77-3.75-1.55-7.41-2.34-11a.25.25 0 0 0-.2-.19l-3-.7c-1.3-.29-2.28-.5-2.9-.66-1.37-.32-2.81-.65-4.33-.97-.18-.04-.19-.08 0-.13a1356.17 1356.17 0 0 0 9.7-2.47c.06-.02.1-.07.11-.13A6522.9 6522.9 0 0 0 28 8Zm0 32.93c.03 0 .05-.1.06-.3l.4-8.08v-1.08l-.41-13.84c0-.15-.02-.23-.04-.23-.03 0-.04.08-.05.23l-.41 13.84v1.08l.4 8.08c.01.2.03.3.05.3Zm.46-22.08a11.28 11.28 0 0 1-.05-.67l-.02.01c-.01.34 0 .81.02 1.41a532.42 532.42 0 0 1 .27 8.93c.08 2.27.1 3.6.08 4.02-.11 2.37-.24 4.73-.37 7.1l.01.47c0 .03 0 .03.02 0v-.03c.32-2.36.64-4.73.94-7.1.08-.56.1-1.05.06-1.47a43748.13 43748.13 0 0 1-.96-12.67Zm-.85-.52c0-.03 0-.03 0 0l-.05.38-.05.38c-.01.38-.1 1.63-.26 3.76a1245.1 1245.1 0 0 0-.67 9.23c0 .15 0 .32.03.52l.9 7c.01.03.03.04.05.04h.03l.01-.02c-.12-2.6-.24-4.95-.36-7.04-.02-.37 0-1.05.03-2.02l.05-1.89a111.96 111.96 0 0 1 .1-3.31 697.9 697.9 0 0 1 .2-7.03Zm2.2 16.7c.03-.14.1-.21.24-.23.57-.09 1.14-.2 1.72-.33.85-.2 2.73-.6 5.64-1.22.14-.03.26-.07.37-.12.03-.01.03-.02 0-.04-.43-.13-1.02-.28-1.76-.45l-5.6-1.28c-.03 0-.05-.03-.05-.06l-1.5-11.72c0-.02 0-.02 0 0a.75.75 0 0 0-.03.21l.07 1.09.1 1.08c.3 4.18.53 7.28.7 9.3.03.5.03.93-.01 1.28a5092.46 5092.46 0 0 1-.95 7.65h.02l1.04-5.17Zm-2.63 4.5v-.26a1579.38 1579.38 0 0 1-.88-6.95 7.1 7.1 0 0 1 0-1.05 52028.2 52028.2 0 0 1 .86-11.55h-.01c0 .02 0 .02-.02.02l-.01.01-1.48 11.55c0 .04-.02.05-.06.06l-5.6 1.28c-.7.17-1.28.31-1.73.44-.09.02-.09.05 0 .07l.74.18a1638.1 1638.1 0 0 0 7.06 1.5c.08.02.12.06.14.14a1884.6 1884.6 0 0 1 1.06 5.2.98.98 0 0 0-.03-.4.92.92 0 0 1-.04-.25Zm.43.28v-.04c-.02-.02-.03-.01-.03.02 0 .1 0 .18.02.26 0 .04.01.04.02 0v-.24Z" fill="#1A71C0"/></svg>