<svg xmlns="http://www.w3.org/2000/svg" width="56" height="56"><path fill="#F0F3FA" d="M0 0h56v56H0z"/><path d="M45.8 34.41c3.83-1.74 6.2-4.13 6.2-6.78C52 22.31 42.4 18 30.56 18c-3.27 0-6.38.33-9.15.92 1.58-.15 3.23-.23 4.92-.23 12.73 0 23.05 4.58 23.05 10.23 0 2.02-1.32 3.9-3.59 5.5z" fill="#E33438"/><path fill-rule="evenodd" d="M25.5 38C37.37 38 47 33.97 47 29s-9.63-9-21.5-9S4 24.03 4 29s9.63 9 21.5 9zM13.1 27.81c.28-.6.37-1.86-1.51-1.97-2.35-.15-3.6 2.21-3.59 3.58A2.54 2.54 0 0010.66 32c1.3 0 1.9-1.15 1.95-1.77-1.02.46-3.07.9-3.03-.95.05-1.84 1.49-2.16 2.2-2.08.19 0 .71.12 1.33.61zm23.37-1.97c1.88.11 1.8 1.37 1.52 1.98a2.47 2.47 0 00-1.33-.62c-.71-.07-2.15.24-2.2 2.09-.04 1.85 2 1.4 3.04.95-.06.61-.66 1.76-1.95 1.76a2.54 2.54 0 01-2.67-2.58c-.01-1.36 1.25-3.73 3.6-3.58zM18.36 27.4c-.14-1.77-2.17-1.6-3.38-1.51l-.15.01c-.48.08-.68.54-.71.76l-.92 4.4c-.1.47.27.85.78.85.34 0 .53-.1.62-.4l.4-1.83h.08c.27-.02.82-.05.94.92.13 1.07.38 1.68.48 1.86.53.96 1.74.74 2.28.5-.41-.23-1.25-.95-1.31-1.9a4.2 4.2 0 00-.49-1.8 2.15 2.15 0 001.38-1.86zm-2.04-.21h-.76l-.36 1.44h.7c.5 0 .77-.3.85-.5.27-.74-.18-.95-.43-.94zM20.1 26h3.15c-.11 1.05-.88 1.27-1.26 1.26h-1.65L20 28.4h2.29c0 1-.68 1.21-1.02 1.2h-1.49c-.25.95.22 1.04.48 1.04h2.03C22.14 31.73 21.5 32 21.2 32h-1.1c-1.94 0-2.1-1.17-1.93-1.76l.74-3.25c.24-.8.89-1 1.18-.99zm11.49 0h.81c.22-.01.61.15.44.91L31.8 32h-.73c-.27 0-.77-.19-.56-.87L31.59 26zm7.01 6h-.78c-.2 0-.55-.16-.36-.67.25-.64 2.25-5.36 3.63-5.5 1.5-.14 1.6 3.34 1.66 5.16.01.5.02.87.06 1.01h-.88a.62.62 0 01-.64-.67v-.77h-2.03L38.6 32zm1.2-2.73l1.1-1.95h.1l.28 1.95H39.8zm-15.94 2.7h-.59c-.26-.01-.76-.22-.62-.93.21-.89.8-3.05 1.4-4.62.05-.14.23-.42.56-.42.42 0 1.21.01 1.4 1.12.14.88.33 2.25.41 2.83l2.13-3.53c.07-.14.34-.42.88-.42.67 0 .94.52.94 1.03l-.01.15a86.34 86.34 0 01-.55 4.23c-.07.31-.24.56-.56.56-.4 0-.94-.05-.9-.8.01-.61.3-2.32.45-3.1l-2.06 3.65c-.19.25-.36.33-.74.25-.38-.08-.55-.57-.58-.8-.1-.47-.33-1.76-.45-3.19l-1.11 4z" fill="#006CAD"/></svg>