<svg width="56" height="56" xmlns="http://www.w3.org/2000/svg"><path fill="#00AEEF" d="M0 0h56v56H0z"/><path d="M20.232 17l.59-1h26.971l.137.076.05.052.02.075.002.08-.02.086-.038.082-3.3 6.325-.058.101-.054.066-.059.038L44.4 23l-.099.001h-8.266l-.123-.003-.064-.027-.02-.059.013-.097.292-1.492.036-.23.018-.231.007-.232-.013-.24-.027-.236-.043-.235-.056-.236-.067-.23-.081-.23-.096-.218-.106-.212-.116-.208-.13-.203-.135-.185-.149-.176-.155-.164-.169-.148-.174-.137-.179-.12-.188-.1-.084-.036-.084-.038-.085-.036-.088-.03-.09-.026-.093-.026-.089-.025-.093-.02-.095-.021-.089-.02-.093-.015-.093-.01-.1-.015-.088-.01-.093-.009-.095-.003-.093-.005-.088-.003-.094-.005-.09.001H20.232zM15.41 28l-.856 1 14.064.053.144.003.137.015.144.026.148.036.143.048.14.053.142.064.14.07.132.08.13.093.125.098.119.101.114.11.11.12.094.125.09.125.08.142.072.143.06.148.046.148.257.977s.048.221.223.221h8.59s.137.01.214-.037c.092-.055.167-.232.167-.232l3.24-6.376.033-.104-.01-.094-.056-.054-.119-.048-.197-.042-.196-.013-7.644.01-.088.007-.064.04-.083.083s-1.247 1.898-2.536 2.448c-.68.29-1.102.413-1.942.413H15.41zM9.672 40L9 41h26.88l.098-.007.068-.04.063-.078.076-.14 3.215-6.397.029-.094-.007-.077-.04-.061-.054-.043-.074-.032-.079-.021-.073-.005L31.405 34l-.127.002-.093.018-.059.034-.048.055-.048.096s-1.177 2.741-2.568 4.144c-1.058 1.067-3.027 1.711-4.605 1.711L9.672 40z" fill="#fff"/></svg>