<svg xmlns="http://www.w3.org/2000/svg" width="56" height="56"><path fill="#003973" d="M0 0h56v56H0z"/><path d="M10 17h6v4.35a8.99 8.99 0 012.5-.35c4.7 0 8.5 3.58 8.5 8s-3.8 8-8.5 8-8.5-3.58-8.5-8V17zm8.5 14.5a2.5 2.5 0 100-5 2.5 2.5 0 000 5zM29 41h6v-3.85c.79.23 1.63.35 2.5.35 4.7 0 8.5-3.58 8.5-8s-3.8-8-8.5-8-8.5 3.58-8.5 8V41zm8.5-14a2.5 2.5 0 110 5 2.5 2.5 0 010-5z" fill="#fff"/><path d="M23 26a3 3 0 013-3h7v13h-7a3 3 0 01-3-3v-7z" fill="#003973"/><path d="M26 23c-1.66 0-3 1.25-3 2.79v7.42c0 1.54 1.34 2.79 3 2.79h7v-1h-7c-1.1 0-2-.76-2-1.79V25.8c0-1.03.9-1.86 2-1.86h7V23h-7z" fill="#fff"/><path d="M24 27h9v1h-9v-1zm0 4h9v1h-9v-1z" fill="#fff"/></svg>