<svg width="56" height="56" xmlns="http://www.w3.org/2000/svg"><path fill="#FFFBB6" d="M0 0h56v56H0z"/><path d="M13.858 35.745c6.452-2 21.004-7.185 29.561-15.245-1.531-1.428-3.72-2.536-6.634-3.081-4.346-.812-8.855-.463-12.926.587 1.204 11.862-6.233 16.281-10.001 17.74z" fill="#F6C9DF"/><path d="M13.858 35.745c5.705-1.773 17.756-6.037 26.383-12.582-1.439-1.424-3.653-2.508-6.7-2.911a27.49 27.49 0 00-9.54.4c-.059 9.895-6.674 13.75-10.143 15.093z" fill="#F19DC3"/><path d="M13.858 35.745c4.96-1.537 14.691-4.963 22.823-10.108-1.253-1.162-3.065-2.026-5.38-2.379-2.661-.394-5.192-.306-7.521.157-1.148 7.853-6.792 11.116-9.922 12.33z" fill="#EB6EA5"/><path d="M21.433 37.003L23.553 40c3.63-3.089 10.856-7.691 23.181-10.084.767-1.39 1.225-3.12 1.266-3.662-10.09 3.177-20.213 7.706-26.567 10.749z" fill="#5C2581"/><path d="M30.635 36.752l1.719 2.352c.028-.005.043-.008.053-.008 1.334-2.163 3.058-2.133 6.589-2.418 2.563-1.27 4.929-3.124 5.642-4.05-7.055.79-11.179 2.071-14.003 4.124z" fill="#009C41"/><path d="M44.811 19.119C36.44 28.072 20.296 33.764 13.605 35.82l2.062 2.69c.039.017.102.038.158.062 8.986-3.934 31.838-15.346 31.753-15.63-.254-.89-1.608-3.008-2.767-3.823z" fill="#5C2581"/><path d="M10.624 23.258c-1.985 2.353-2.955 4.983-2.523 7.588.303 1.78 1.213 3.357 2.611 4.682 3.41-5.019 1.908-9.481-.088-12.27z" fill="#2191D0"/><path d="M23.602 16c-3.562.86-6.733 2.257-9.268 3.988 1.21 3.4 2.568 10.18-2.51 16.393.981-.21 14.705-3.442 11.778-20.381z" fill="#5C2581"/><path d="M13.858 35.745c4.188-1.295 11.778-3.942 18.933-7.831-.868-.734-2.09-1.328-3.698-1.66-1.937-.407-3.988-.337-5.955.023-1.918 5.819-6.566 8.412-9.28 9.468z" fill="#E10E18"/></svg>