<svg width="56" height="56" viewBox="0 0 56 56" xmlns="http://www.w3.org/2000/svg"><path fill="#F0F3FA" d="M0 0h56v56H0z"/><path d="m32.36 12.57.23.14c.09.05.1.1 0 .16a.53.53 0 0 1-.26.1 9.03 9.03 0 0 1-2.15-.11.1.1 0 0 1-.03-.05l-.02-.05c-.02-.05-.06-.07-.11-.08a29.97 29.97 0 0 0-3.66.08c-.26.03-.51.08-.76.16a5 5 0 0 1-.74.18c-.9.15-1.97.53-3.23 1.14-1.15.56-2 1.12-2.54 1.69-.15.15-.2.35-.4.44a.33.33 0 0 0-.15.13c-.1.16-.17.32-.21.49-.77.56-1.15 1.07-1.14 1.53-.14.25-.48.47-1.02.64-.1.03-.2.04-.3.02-.13-.02-.2.03-.2.16s-.06.22-.18.26c-.28.1-.53.29-.75.54-.2.24-.43.47-.7.7-.42.36-.77.75-1.04 1.16-.15.21-.26.47-.34.78-.05.17-.24.35-.22.52 0 .06 0 .12-.04.17-.05.09-.11.18-.18.26a.7.7 0 0 0-.12.27c-.19.78-.35 1.6-.48 2.46-.02.11-.07.13-.16.06a.61.61 0 0 1-.2-.32c-.02-.08-.06-.09-.11-.03-.07.08-.09.19-.07.32.12.75.3 1.38.55 1.9-.06 0-.09.08-.08.23a2.42 2.42 0 0 1-.28-.52 6.88 6.88 0 0 1-.34-2.07 8.15 8.15 0 0 1 3.43-6.23c.78-.58 1.13-1.42 1.77-2.14a16.84 16.84 0 0 1 7.17-4.82 14.4 14.4 0 0 1 6.74-.71l1.11.06c.45.02.85.15 1.21.38Z" fill="#A2E316"/><path d="M32.36 12.57c.66.06 1.27.23 1.82.5.31.16.59.38.81.66 2.44 3.04 5.86 4.18 7.65 7.87.48.99.83 1.98 1.04 3 .62 3.02.23 5.64-.22 8.54-.02.16 0 .37.06.63.02.07.02.14-.01.2a15.86 15.86 0 0 1-2.88 4.72c.1-.7-.18-.88-.83-.54l.75-1.14c.09-.13.19-.16.29-.28 1.04-1.3 1.42-2.74 2.11-4.2.13-.27.23-.6.3-.95.33-1.82.44-3.65.31-5.5a2.83 2.83 0 0 0-.14-.73c-1.59-4.6-3.4-7.4-7.8-10.33-.28-.19-.86-.37-1.73-.54l.35-.02c.09 0 .1-.04.05-.1a3.07 3.07 0 0 0-.29-.34.65.65 0 0 0-.32-.19c-.38-.08-.76-.19-1.14-.3a6.95 6.95 0 0 0-1.42-.3c-1.1-.13-2.08-.17-2.92-.12-.89.04-1.77-.04-2.64.17-1.34.32-2.68.7-3.66 1.2-1.16.59-2.35 1.43-3.57 2.5.04-.16.1-.32.2-.48.04-.06.1-.1.16-.13.2-.1.25-.3.4-.44a9.07 9.07 0 0 1 2.54-1.69c1.26-.61 2.34-.99 3.24-1.14a5 5 0 0 0 .73-.18c.25-.08.5-.13.76-.16 1.02-.1 2.24-.12 3.66-.08.06 0 .1.03.11.08l.02.05a.1.1 0 0 0 .08.07c.68.1 1.38.14 2.1.08.1 0 .18-.03.26-.09.1-.05.1-.11 0-.16l-.23-.14Z" fill="#E0F5BF"/><path d="M33.9 14.48a2.82 2.82 0 0 0-1.37-.21 3.5 3.5 0 0 1-1.02-.16c-.38-.1-.72-.16-1-.18-2.88-.2-5.39-.04-7.99 1.24a14.6 14.6 0 0 0-4.21 3c-.3.17-.67.28-1.12.35 0-.46.37-.97 1.14-1.53a17.4 17.4 0 0 1 3.57-2.51c.98-.5 2.32-.88 3.66-1.2.87-.2 1.75-.13 2.64-.17.84-.05 1.81 0 2.92.11.51.06.98.16 1.42.3.38.12.76.23 1.14.31.12.03.23.1.32.19l.3.34c.05.06.03.1-.06.1l-.35.02Z" fill="#6DECF4"/><path d="M31.76 14.94c.23.29.26.47.1.55h-.3c-.1 0-.14.05-.14.13 0 .13.05.21.16.26.24.1.44.25.59.47.07.1.04.15-.08.14H32c-.02 0-.04.02-.03.05l.1.4c.03.09.08.1.16.06.03-.02.03-.04 0-.07-.05-.06-.03-.08.05-.06l.22.06c.13.04.13.09 0 .14l-.23.1c-.43.2-.74.53-.91.98a.2.2 0 0 1-.18.13.66.66 0 0 1-.41-.06.14.14 0 0 1-.08-.1.68.68 0 0 1-.01-.13c0-.08.03-.1.1-.1.13.03.26.02.4-.02.14-.05.2-.13.18-.26-.02-.09-.04-.1-.08-.01l-.03.05c-.03.08-.09.1-.17.09l-.59-.14a.21.21 0 0 1-.09-.04c-.77-.57-1.38.23-1.7.84a.45.45 0 0 1-.21.2c-.3.15-.52.33-.66.54-.05-.02-.1-.09-.16-.19a.18.18 0 0 0-.16-.1c-.1-.01-.17-.07-.2-.2a.27.27 0 0 0-.11-.16.28.28 0 0 0-.2-.04c-.6.1-1.17.18-1.75.23a.12.12 0 0 0-.08.04.24.24 0 0 1-.15.08c-.56.08-1.15.18-1.76.3a1 1 0 0 0-.45.21c-.17.14-.36.26-.55.36a2.7 2.7 0 0 0-.68.48c-.22.21-.45.4-.7.6-.33.23-.71.58-1.16 1.02-.39.4-.69 1.1-.89 2.09-.04.19.01.35.14.49.05.05.08.1.1.17l.52 2.8c0 .04.03.08.06.11.08.08.19.12.32.11l.15.03a.1.1 0 0 1 .06.08c0 .08.05.12.12.12.51.04.95.22 1.32.55.05.04.1.07.18.06.17 0 .27.08.29.24a.23.23 0 0 0 .09.16c.15.12.22.11.23-.02.25.43.48.86.68 1.32.14.33.38.59.72.78.25.14.58.22 1 .22l1.5-.03c.08.37.3.55.65.54.07 0 .12-.03.16-.09.1-.16.21-.31.34-.45a11.35 11.35 0 0 1 5.5-3.3c.92-.24 1.58.02 1.98.78a5.87 5.87 0 0 0-1.98.1l-.78.23c-1.16.28-2.24.74-3.24 1.38-.37.24-.55.47-.54.7.02.48-.06.95-.24 1.4l-2.08 3.95a.5.5 0 0 0 .12.61c.28.24.43.44.82.51l.81.12c.75.09 1.25-.15 1.52-.72l1.33-2.17a.2.2 0 0 1 .2-.1c.46.1 1.06.23 1.52.08.35-.11.52-.59.63-.9a.25.25 0 0 1 .18-.16.26.26 0 0 1 .24.07c.25.22.3.5.18.82-.17.3-.36.56-.58.77-.25.24-.49.34-.72.28a2.67 2.67 0 0 1-.7-.24.4.4 0 0 0-.53.15l-1.53 2.69c-.5.08-.94.08-1.32 0-.4-.1-.8-.17-1.2-.23-.4-.07-.67-.24-1.04-.39-.26-.1-.48-.27-.66-.49-.44-.54-.6-1.24-.48-2.11.03-.19-.05-.3-.24-.32-.39-.06-.8.32-1.13.47-.17.07-.33.18-.47.32-.4.38-.7.78-.92 1.2-.06.05-.13.07-.21.04a.11.11 0 0 1-.05-.04.09.09 0 0 1 0-.1v-.04a.04.04 0 0 0-.03-.02 3.22 3.22 0 0 1-.49-.22 1.82 1.82 0 0 0-.38-.15c-.56-.14-.48-.68-.8-1.05-.35-.4-.82-.59-1.4-.53l-.36-.87c.29-.34.62-.59.8-.98l.52-1.2c.42-1.04-.21-2.64 1.27-3.05.1-.03.1-.07.03-.13a.34.34 0 0 0-.2-.08 9.9 9.9 0 0 0-1.95.05c-.46.06-.88.32-1.36.44a.45.45 0 0 0-.2.1c-.15.13-.32.22-.5.26-.1.03-.15-.01-.15-.11v-.13a.18.18 0 0 0-.11-.16.19.19 0 0 0-.2.03l-.97.85c-.05.11-.07.13-.06.06l-.28.2-.73.38-.53.34c-.06.03-.08.08-.07.14.03.14.03.26.01.38a.59.59 0 0 1-.39-.28c-.17-.46-.52-.57-.83-.87a.9.9 0 0 0-.33-.4.28.28 0 0 1-.09-.09l-.5-.7c-.02-.15 0-.23.07-.24.38.57.8 1.04 1.23 1.42.28.24.37.19.29-.17-.1-.39-.15-.87-.18-1.45.2.07.29.16.25.28-.02.04 0 .07.04.08.03 0 .05.03.05.06.03.45.12.92.27 1.4.03.08.08.1.16.08.32-.11.61-.26.88-.45.2-.14.42-.18.6-.34l.82-.68c.99-.92 1.62-2 1.88-3.2a9.9 9.9 0 0 0-.05-4.27.94.94 0 0 1 .19-.87.3.3 0 0 1 .16-.1c.3-.08.57-.22.8-.42.05-.05.1-.07.17-.07s.13.02.16.08v.04a.1.1 0 0 0-.04.04c-.02.06 0 .08.06.08.12 0 .22-.02.32-.06a.2.2 0 0 0 .11-.16c.03-.26.13-.52.3-.76a.11.11 0 0 1 .1-.05.11.11 0 0 1 .1.08c.04.17.1.26.2.27-.23.2-.3.4-.18.6.04.06.09.07.15.03.2-.15.3-.37.28-.65.2-.06.31-.13.36-.22.21-.41.45-.8.72-1.18a.24.24 0 0 0 .04-.2c-.02-.1.02-.18.12-.23.17-.08.27-.16.3-.25.1-.28.04-.33-.21-.17-.33.21-.67.43-1.04.63-.1.06-.15.03-.15-.08 0-.07.04-.12.12-.15.1-.03.17-.1.2-.2l.05-.09a.16.16 0 0 0-.04-.19c-.06-.06-.08-.12-.06-.2.47-.27.94-.53 1.43-.78.47-.26.96-.46 1.48-.63 1.23-.39 2.25-.62 3.04-.7a11.7 11.7 0 0 1 3.18 0l1.47.36Z" fill="#031921"/><path d="M31.76 14.94c1.54.3 2.98.91 4.31 1.8a13.64 13.64 0 0 1 5.43 7.11c.15.43.24.82.28 1.19-.06.4-.08.82-.07 1.23 0 .4.25.69.02 1.1a.4.4 0 0 0-.06.2v1.2c0 .06-.03.09-.1.09-.1 0-.16.05-.15.16.02.33-.04.65-.2.96-.1.2-.17.39-.23.6-.06.2-.14.41-.26.6a.4.4 0 0 1-.13.14c-.33.22-.38.76-.43 1.12 0 .04-.02.08-.05.11a.16.16 0 0 1-.1.06.16.16 0 0 0-.14.12.8.8 0 0 1-.39.51c-.06.04-.09.1-.07.17.01.06 0 .1-.05.14-.2.15-.46.48-.41.75.01.08 0 .15-.06.22a.3.3 0 0 0-.07.19c0 .93-.31 1.77-.95 2.53-.32.38-.6.79-.85 1.22a12.5 12.5 0 0 1-4.92 2.88c-1.88.58-3.84.68-5.86.3a7.65 7.65 0 0 1-3.34-1.45c-.08-.17-.06-.26.05-.27a7.71 7.71 0 0 0 3.08 1.16c.91.11 2.21.1 3.9 0 .46-.04.9-.2 1.34-.29.3-.06.6-.16.93-.3 1.4-.6 2.6-1.33 3.64-2.23a8.6 8.6 0 0 0 2.03-2.46c.4-.76.54-1.61.4-2.55.14-.15.19-.38.14-.67a.35.35 0 0 1 .03-.2 25.51 25.51 0 0 0 .53-1.29.37.37 0 0 1 .1-.06c.05-.04.1-.1.11-.16.14-.47.3-.95.47-1.43a.2.2 0 0 1 .13-.12.13.13 0 0 0 .09-.11c.08-.55.24-1.07.5-1.56a.23.23 0 0 0 .02-.17l-.32-1.13c.23.25.37.59.43 1 .01.1.06.16.15.2a.6.6 0 0 1 .37.33c.12.27.19.26.23-.03.03-.27-.06-.44-.28-.51a.16.16 0 0 1-.12-.13c-.18-1.07-.22-2.2-.13-3.37.01-.13.06-.14.14-.04.18.2.3.45.39.75.05.19.1.19.17 0a.36.36 0 0 0 0-.26c-.17-.42-.17-.83-.39-1.22-.16-.3-.3-.6-.44-.92-.13-.34-.3-.64-.48-.9a46.9 46.9 0 0 1-.84-1.16 10.17 10.17 0 0 0-3.32-3.01 14.76 14.76 0 0 0-2.8-1.45c-.34-.14-.68-.21-1.01-.21-.08 0-.14.03-.16.1-.02.05-.04.06-.08.03a.22.22 0 0 1-.05-.06c.16-.08.13-.26-.1-.55Z" fill="#2E393C"/><path d="m35.96 17.08 1.04 1.3c.45.54.77.98.96 1.32.32.57.52 1.07.61 1.53.2 1 .14 2.17-.17 3.52-.46.23-.84.29-1.13.19.06-.15.1-.28.11-.4a.6.6 0 0 0-.1-.37 5.85 5.85 0 0 1-.67-1.9.18.18 0 0 0-.15-.15c-.05 0-.07-.05-.07-.11a.14.14 0 0 0-.03-.12l-.26-.33a.43.43 0 0 1-.1-.19.74.74 0 0 0-.26-.46.26.26 0 0 0-.12-.06 3.12 3.12 0 0 0-.38-.34 2.8 2.8 0 0 1-.39-.35 71.46 71.46 0 0 0-2.3-2.35.38.38 0 0 1-.12-.35c0-.04 0-.07-.03-.1a.07.07 0 0 0-.08-.02c-.07.01-.1-.01-.08-.08l.02-.09.24-.1c.12-.05.12-.1-.01-.14a6.28 6.28 0 0 0-.22-.06c-.08-.02-.1 0-.04.06.02.03.02.05-.01.07-.08.05-.13.03-.15-.06l-.1-.4c-.01-.03 0-.05.03-.05h.1c.11 0 .14-.04.07-.14a1.3 1.3 0 0 0-.6-.47c-.1-.05-.15-.13-.15-.26 0-.08.04-.13.13-.13h.3l.06.06c.04.03.06.02.08-.02.02-.08.08-.11.16-.11.33 0 .67.07 1.02.2 1.01.41 1.95.9 2.8 1.46Z" fill="#ADE549"/><path d="M27.5 15.87c.03 0 .07.01.1.03a.08.08 0 0 1 .03.06.08.08 0 0 1-.02.06c-.52.5-1.05.93-1.58 1.26-.12.08-.26.12-.42.15-.93.13-1.66.37-2.2.71-.4.25-.5.16-.31-.26.44-.96 1.74-.97 2.35-1.73.39-.47 1.34-.4 1.92-.29l.13.01Z" fill="#5FB004"/><path d="M23.94 16.24c.15-.13.32-.24.5-.34l.05-.01c.02 0 .03.01.04.03l.04.05a.05.05 0 0 1-.01.07l-1.08.81a.33.33 0 0 1-.15.07c-.18.03-.34.1-.5.2-.24.15-.31.1-.2-.17.06-.18.23-.27.4-.3.36-.06.66-.2.91-.4Z" fill="#45A604"/><path d="M21.16 16.7c-.02.07 0 .13.06.2.05.05.07.11.04.18l-.04.1c-.04.1-.11.16-.2.2-.09.02-.12.07-.13.14 0 .11.05.14.15.08.37-.2.71-.42 1.04-.63.25-.16.32-.1.21.17-.03.09-.13.17-.3.25-.1.05-.14.13-.12.24.01.07 0 .13-.04.19-.27.37-.5.77-.72 1.18-.05.09-.17.16-.36.22l-.26.02c-.08-.01-.15-.1-.2-.27a.1.1 0 0 0-.09-.08.11.11 0 0 0-.1.05c-.17.24-.27.5-.3.76a.2.2 0 0 1-.11.16c-.1.04-.2.06-.32.06-.06 0-.08-.02-.06-.08a.1.1 0 0 1 .04-.04v-.04a.17.17 0 0 0-.16-.08.27.27 0 0 0-.17.07c-.23.2-.5.34-.8.42a.3.3 0 0 0-.16.1.95.95 0 0 0-.19.87c-.36-.39-.45-.8-.3-1.25 0 .1.01.16.04.2a.1.1 0 0 0 .09.04.11.11 0 0 0 .08-.05c.34-.44.72-.84 1.16-1.2.5-.43.77-1 1.34-1.34.24-.14.37-.3.37-.47.06-.14.23-.26.51-.37Z" fill="#5FB004"/><path d="M20.65 17.07c0 .17-.13.33-.37.47-.56.34-.83.91-1.34 1.33a7.33 7.33 0 0 0-1.2 1.25.11.11 0 0 1-.13-.04c-.03-.03-.04-.1-.03-.19.1-.03.17-.09.22-.17a27 27 0 0 1 2.14-2.2c.19-.17.42-.32.71-.45Z" fill="#042D07"/><path d="M35.96 17.08c1.35.77 2.45 1.78 3.32 3.01.27.39.55.78.84 1.16.18.26.35.56.48.9.13.32.28.63.44.92.22.39.22.8.39 1.22.03.09.04.18 0 .26-.06.19-.12.19-.17 0-.09-.3-.21-.55-.39-.75-.08-.1-.13-.09-.14.04-.09 1.18-.05 2.3.13 3.37.01.06.05.1.12.13.22.07.31.24.28.51-.04.29-.11.3-.23.03a.6.6 0 0 0-.37-.34.22.22 0 0 1-.15-.18c-.06-.42-.2-.76-.43-1.01a2.19 2.19 0 0 1-.32-.9.2.2 0 0 0-.1-.15.28.28 0 0 0-.23 0c-.09.02-.15 0-.2-.07-.2-.28-.48-.44-.83-.48.3-1.35.36-2.52.17-3.52a5.2 5.2 0 0 0-.6-1.53c-.2-.34-.52-.78-.97-1.32l-1.04-1.3Z" fill="#6ACA0F"/><path d="m32.26 17.17-.02.09c-.02.07.01.1.08.08.03-.01.06 0 .08.02.03.03.04.06.03.1-.02.14.02.25.12.35.81.8 1.58 1.58 2.3 2.35.12.12.25.24.39.35.13.1.26.21.38.33-.05-.01-.09 0-.1.03a.1.1 0 0 0 0 .1l.12.17c.07.08.12.07.15-.02.03-.06.01-.13-.05-.2.14.1.23.26.26.45.02.07.05.14.1.2l.26.32a.15.15 0 0 1 .03.12c0 .06.02.1.07.11.09.02.13.07.15.16.11.66.34 1.3.67 1.89a.6.6 0 0 1 .1.37c-.02.12-.05.25-.1.4-.01-.13-.12-.13-.34 0-.23-.2-.57-.24-1.03-.14a.6.6 0 0 0-.01-.05c.23-.03.25-.14.05-.33-.05-.05-.11-.06-.18-.02-.07.03-.1.1-.1.18l-2.4.22c.07-.45.07-.82 0-1.1-.08-.32-.22-.35-.42-.1-.08.11-.19.13-.31.06a.29.29 0 0 0-.22-.04c-.54.12-.85-.09-.9-.62a.19.19 0 0 0-.11-.15c-.1-.04-.2-.03-.3.03a.2.2 0 0 0-.1.2l.04.67v.04l-.04.02-.06.03a.08.08 0 0 1-.07 0 .08.08 0 0 1-.04-.07c-.04-.3-.18-.55-.42-.74a.37.37 0 0 1-.13-.18l-.04-.13a.3.3 0 0 0-.19-.2 2.2 2.2 0 0 1-.68-.43c-.18-.16-.25-.13-.2.11.07.39.46.39.63.7.18.34.1.64-.24.9-.11.1-.21.1-.3 0a.19.19 0 0 1 0-.26.2.2 0 0 1 .1-.05l.2-.04a.18.18 0 0 0 .14-.15v-.07c-.04-.14-.1-.23-.2-.25a.34.34 0 0 1-.17-.09l-.68-.67a.21.21 0 0 0-.24-.05.21.21 0 0 0-.07.05.56.56 0 0 1-.53.15c-.18-.04-.33-.01-.43.07a2.6 2.6 0 0 0-.18-.5.39.39 0 0 0-.14-.16.48.48 0 0 0-.23-.08l-.4-.34c-.18-.15-.15-.22.1-.2.18.01.37 0 .55-.05a.35.35 0 0 0 .17-.1c.29-.3.64-.54 1.05-.69.08-.03.1-.08.1-.15l-.05-.24c0-.05 0-.1.03-.13a.18.18 0 0 1 .1-.08l.12-.03c.08-.03.12 0 .12.1v.3c0 .14.06.17.17.1a.2.2 0 0 0 .08-.08.26.26 0 0 0 0-.25c-.08-.15-.13-.31-.16-.47-.02-.1-.07-.13-.16-.08a.83.83 0 0 0-.24.2.16.16 0 0 1-.16.06.16.16 0 0 1-.12-.1.9.9 0 0 0-.22-.33c.14-.21.36-.4.66-.54.1-.04.16-.11.2-.2.33-.6.94-1.4 1.71-.84.03.02.06.04.09.04l.6.14c.07.01.13-.01.16-.09l.03-.05c.04-.08.06-.08.08.01.02.13-.04.21-.19.26a.75.75 0 0 1-.38.03c-.08-.02-.12.01-.11.1l.01.12c.01.04.04.07.08.1.12.06.26.09.4.06a.2.2 0 0 0 .18-.13c.18-.45.49-.78.92-.98Z" fill="#A2E316"/><path d="M18.3 18.18c.08.06.12.1.12.15l-.02.1c-.01.06-.04.09-.07.08-.36-.05-.63.02-.83.21-.16.16-.33.3-.5.45-.2.16-.37.31-.5.46l-1.32 1.63a12.58 12.58 0 0 0-1.83 3.78c-.24.87-.37 1.91-.38 3.14.03.58.09 1.06.18 1.45.08.36-.01.41-.29.17a7.25 7.25 0 0 1-1.23-1.42 6.65 6.65 0 0 1-.55-1.89c-.02-.13 0-.24.07-.32.05-.06.1-.05.11.03.04.14.1.24.2.32.09.07.14.05.16-.06.13-.86.3-1.68.48-2.46a.7.7 0 0 1 .12-.27c.07-.08.13-.17.18-.26a.28.28 0 0 0 .04-.17c-.02-.17.17-.35.22-.52.08-.3.2-.57.34-.78.27-.41.62-.8 1.04-1.16.27-.23.5-.46.7-.7.22-.25.47-.43.75-.54a.26.26 0 0 0 .18-.26c0-.13.07-.18.2-.16.1.02.2.01.3-.02.54-.17.88-.39 1.02-.64a3.2 3.2 0 0 0 1.12-.34Z" fill="#C3F26D"/><path d="M30.23 19.63a.54.54 0 0 0-.21.36.18.18 0 0 1-.21.15.77.77 0 0 0-.56.1c-.1.07-.16.04-.17-.08v-.07c0-.04.01-.08.04-.1.27-.25.39-.56.35-.92-.03-.3.04-.56.23-.8a.12.12 0 0 1 .06-.03c.03-.01.05-.01.07 0l.13.04c.08.02.09.06.02.12-.22.15-.34.49-.1.68a7.09 7.09 0 0 0 .4.3.2.2 0 0 1-.05.25Z" fill="#031921"/><path d="m18.33 18.51-.78 1.02c-.09-.01-.16.02-.23.1a.37.37 0 0 0-.08.19c-.05.4-.13.85-.22 1.32-.04.2-.13.4-.27.6-.18.25-.36.49-.54.71a.98.98 0 0 0-.19.35c-.06.2-.13.38-.21.57-.1.23-.14.47-.12.72.03.33.05.65.05.95 0 .06.03.1.07.15.06.04.12.05.19.03.07-.03.12 0 .15.06.02.05.03.11.02.19-.08.18-.07.32 0 .41a.16.16 0 0 0 .18.06c.1-.03.22-.09.36-.2.03.21-.1.37-.37.48-.08.03-.13 0-.17-.06-.11-.17-.26-.21-.44-.13a.17.17 0 0 0-.1.16c0 .06.02.1.08.13a.16.16 0 0 1 .08.13c.01.13-.05.22-.17.26-.24.07-.42.02-.54-.17-.04-.06-.09-.08-.16-.06-.1.04-.2.1-.3.17a.26.26 0 0 0 .03-.1.13.13 0 0 0-.09-.12c-.1-.04-.12-.11-.08-.21a.53.53 0 0 0-.01-.48c-.01-.01-.02-.02-.04 0-.02 0-.04.01-.04.03-.04.1-.06.1-.07 0-.07-.67.03-1.33.29-1.97.13-.33.22-.67.27-1.03.04-.24.13-.47.26-.68a4.15 4.15 0 0 0 .35-.76.11.11 0 0 0-.15-.09.8.8 0 0 1-.16.02c.44-.55.88-1.1 1.33-1.63.12-.15.28-.3.48-.46.18-.14.35-.29.5-.45.2-.2.48-.26.84-.2Z" fill="#87D614"/><path d="M27.82 19.14a.9.9 0 0 1 .22.32.16.16 0 0 0 .12.11.16.16 0 0 0 .16-.05.83.83 0 0 1 .24-.2c.09-.06.14-.03.16.07.03.16.08.32.15.47.05.08.05.17 0 .25a.2.2 0 0 1-.07.08c-.11.07-.17.04-.17-.1v-.3c0-.1-.04-.13-.12-.1l-.12.03a.18.18 0 0 0-.1.08.18.18 0 0 0-.03.13l.05.24c0 .07-.02.12-.1.15a2.7 2.7 0 0 0-1.05.69.35.35 0 0 1-.17.1c-.18.04-.37.06-.56.05-.24-.02-.27.05-.08.2l.4.34a.64.64 0 0 1-.28.61.23.23 0 0 1-.2.04l-.79-.18a.17.17 0 0 0-.2.12l-.33 1.27c-.65.05-1 .37-1.07.96-.03.22.05.38.1.59.01.08-.01.15-.07.21l-.6.6c-.15.15-.29.33-.43.55-.11.2-.17.41-.18.66v.84l-.3.8c0 .12-.08.13-.23.01a.23.23 0 0 1-.1-.16c0-.16-.1-.24-.28-.24a.25.25 0 0 1-.18-.06c-.37-.33-.8-.51-1.32-.55-.07 0-.11-.04-.12-.12a.1.1 0 0 0-.06-.08.3.3 0 0 0-.15-.03.4.4 0 0 1-.32-.11.22.22 0 0 1-.06-.11l-.53-2.8a.33.33 0 0 0-.09-.17.52.52 0 0 1-.14-.49c.2-1 .5-1.7.9-2.1.44-.43.82-.78 1.15-1.02.25-.18.48-.38.7-.59.22-.2.45-.37.68-.48.2-.1.38-.22.55-.36a1 1 0 0 1 .45-.21c.6-.12 1.2-.22 1.76-.3.06 0 .11-.04.15-.08a.12.12 0 0 1 .08-.04c.58-.05 1.16-.13 1.75-.23a.27.27 0 0 1 .32.2c.02.13.09.19.2.2.07 0 .12.04.15.1.05.1.1.17.16.2Z" fill="#054D5E"/><path d="m20.5 19.24.25-.02c.01.28-.08.5-.28.65-.06.04-.11.03-.15-.03-.11-.2-.05-.4.17-.6Z" fill="#6ACA0F"/><path d="M26.58 20.08a.58.58 0 0 1-.14-.53c.03-.1.1-.17.2-.18l.1-.01c.1-.01.16.04.15.15-.01.34.1.67.32.97a.24.24 0 0 1-.1.36.25.25 0 0 1-.13.03l-.54-.07c-.08-.01-.1-.05-.09-.12.04-.2.12-.35.23-.49a.1.1 0 0 0 .03-.06c0-.02-.01-.04-.03-.05Z" fill="#A2E316"/><path d="M17.55 19.53c0 .12.08.19.25.2a.46.46 0 0 1-.22.16c-.16.45-.07.86.3 1.25a9.9 9.9 0 0 1 .04 4.27 6.12 6.12 0 0 1-1.88 3.2c-.12-.05-.2-.04-.27.02a.25.25 0 0 1-.18.07c-.14 0-.25-.03-.32-.1a2.56 2.56 0 0 0 .81-1.08c-.03-.19-.08-.19-.14-.01a1.7 1.7 0 0 1-.85.94c-1.04.22-.91-.62-.65-1.23a.34.34 0 0 0 .02-.2c-.04-.17.02-.3.17-.37.1-.08.19-.13.3-.17.06-.02.11 0 .15.06.12.19.3.24.54.17.12-.04.18-.13.17-.26a.16.16 0 0 0-.08-.13.13.13 0 0 1-.08-.13.17.17 0 0 1 .1-.16c.18-.08.33-.04.44.13.04.07.1.09.17.06.27-.11.4-.27.37-.47.08-.17.1-.32.07-.47-.03-.1-.08-.13-.18-.1a.21.21 0 0 1-.16-.03c-.1-.06-.17-.04-.2.07l-.07.25c0-.08 0-.14-.02-.19-.03-.07-.08-.09-.15-.06a.18.18 0 0 1-.19-.03.2.2 0 0 1-.07-.15c0-.3-.02-.62-.05-.95-.02-.25.02-.5.12-.72l.21-.57c.04-.13.1-.24.19-.35l.54-.7c.14-.2.23-.4.27-.61.1-.47.17-.91.22-1.32a.37.37 0 0 1 .08-.2c.07-.07.14-.1.23-.1Z" fill="#C3F26D"/><path d="M25.84 20.12c-.18.18-.26.4-.17.48.08.09.3 0 .49-.17.18-.19.26-.4.17-.49-.08-.08-.3 0-.49.18Z" fill="#A2E316"/><path d="m34.79 21.34 1 1.43a.1.1 0 0 1 .02.1.1.1 0 0 1-.08.06.7.7 0 0 1-.48-.06.2.2 0 0 1-.11-.15c-.09-.42-.3-.72-.65-.89a.25.25 0 0 1-.11-.12.55.55 0 0 1 .08-.65.15.15 0 0 1 .18-.03l.05.05.04.1c0 .06.02.12.06.16Z" fill="#031921"/><path d="M14.63 26.65c-.15.07-.2.2-.17.37.01.07 0 .14-.02.2-.26.61-.39 1.45.65 1.23a.15.15 0 0 0-.03.07.07.07 0 0 0 .02.05.07.07 0 0 0 .05.03h.14c.07.07.18.1.32.1.07 0 .13-.02.18-.07.06-.06.15-.07.27-.02l-.82.68c-.18.16-.4.2-.6.34a3.6 3.6 0 0 1-.88.45c-.08.03-.13 0-.16-.07a5.96 5.96 0 0 1-.27-1.4c0-.04-.02-.07-.05-.07-.05-.01-.06-.04-.04-.08.04-.12-.04-.2-.25-.28.01-1.23.14-2.27.38-3.14.34-1.24.95-2.5 1.83-3.78.09 0 .14 0 .16-.02a.11.11 0 0 1 .15.15c-.1.25-.22.48-.35.7a1.8 1.8 0 0 0-.26.68c-.05.36-.14.7-.27 1.03-.26.64-.36 1.3-.3 1.96.02.11.04.11.08.01 0-.02.02-.03.04-.04l.04.01c.08.16.08.32.01.48-.04.1-.01.17.09.2a.13.13 0 0 1 .08.12c0 .03 0 .07-.02.1Z" fill="#5FB004"/><path d="M32.46 21.8a.41.41 0 0 1 .22-.43c.08-.05.14-.03.17.07.01.06.02.13 0 .2a.17.17 0 0 0 .1.18l.68.3c.04.01.08.05.1.09.03.04.04.09.03.14-.02.1-.08.15-.19.15-.67 0-1.08-.15-1.73.19a.15.15 0 0 1-.19-.04c-.22-.3-.18-.65.13-1.06a.25.25 0 0 1 .26-.1c.15.04.24.13.26.28.01.05.05.08.1.09.02 0 .04 0 .05-.03.01 0 .02-.02.01-.03Z" fill="#031921"/><path d="M26.74 21.7c.07 0 .15.03.23.08.06.03.1.09.14.16.07.15.13.31.18.5-.06.23-.23.43-.51.6a.3.3 0 0 0-.13.15c-.16.41-.52.61-1.06.6l-.64-.23.33-1.27a.17.17 0 0 1 .2-.12l.79.18c.07.02.14 0 .2-.04.2-.15.3-.36.27-.61Z" fill="#E0F5BF"/><path d="M33.28 24.8a1.81 1.81 0 0 0-.73.04c-.56-.06-1.16.06-1.65-.26a.17.17 0 0 0-.2 0 .17.17 0 0 0-.04.06c-.05.1-.08.2-.08.31a.27.27 0 0 1-.14.24.28.28 0 0 1-.28 0c-.36-.22-.75-.41-1.17-.59a.4.4 0 0 1-.2-.16.26.26 0 0 1-.02-.23.42.42 0 0 0-.05-.36.35.35 0 0 0-.14-.12.33.33 0 0 0-.17-.03l-1.46.15c-.66.16-1.11.14-1.36-.06.54.01.9-.19 1.06-.6a.3.3 0 0 1 .13-.14c.28-.18.45-.38.51-.61.1-.08.25-.1.44-.07.21.04.39-.01.53-.15a.21.21 0 0 1 .3 0l.68.67c.04.05.1.08.17.1.1.01.16.1.2.24a.18.18 0 0 1-.02.14.18.18 0 0 1-.12.08l-.2.04a.2.2 0 0 0-.15.13.19.19 0 0 0 .05.19c.09.09.19.09.3 0 .34-.27.42-.57.24-.9-.17-.32-.56-.32-.63-.7-.05-.25.02-.28.2-.12.23.2.46.35.68.44.1.03.16.1.2.19l.04.13c.02.07.06.13.12.18.24.19.38.44.42.74a.08.08 0 0 0 .04.06.08.08 0 0 0 .08 0l.05-.02.03-.02.01-.04-.04-.67a.2.2 0 0 1 .1-.2c.1-.06.2-.07.3-.03a.19.19 0 0 1 .1.15c.06.53.37.74.91.62.08-.01.15 0 .22.04.12.07.23.05.31-.06.2-.25.34-.22.42.1.07.28.08.65 0 1.1Z" fill="#054D5E"/><path d="m24.95 23.56.64.23c.25.2.7.22 1.36.06-.04.56-.1 1.1-.2 1.61-.1.63-.46 1-1.09 1.11a2.7 2.7 0 0 1-1.43-.15 2.73 2.73 0 0 1-.92-.5l.6-.6a.23.23 0 0 0 .06-.21c-.03-.21-.12-.37-.1-.59.07-.6.43-.91 1.08-.96Z" fill="#F3FDD3"/><path d="M32.55 24.84c-.13.13-.34.27-.52.3-.46.03-.87.15-1.22.35-.28.16-.57.31-.87.45-1.13.49-2.08 1.06-2.84 1.7-.43.37-.81.84-1.13 1.41a6.84 6.84 0 0 1-3.27-1.08v-.84c0-.25.07-.47.19-.66.13-.22.27-.4.42-.56.19.18.5.35.92.5.5.2.98.24 1.43.16.62-.11.99-.48 1.1-1.1.08-.53.15-1.06.19-1.62l1.46-.15c.06 0 .12 0 .17.03.06.02.1.06.14.12a.42.42 0 0 1 .05.37.26.26 0 0 0 .03.22.4.4 0 0 0 .19.16c.42.18.8.37 1.17.59a.28.28 0 0 0 .38-.1.27.27 0 0 0 .04-.14c0-.11.03-.21.08-.3a.16.16 0 0 1 .1-.09.17.17 0 0 1 .14.02c.5.32 1.09.2 1.65.26Z" fill="#D7F96A"/><path d="M35.68 24.58c.02.08.1.13.22.17a.6.6 0 0 1 0 .05l.79.78a.1.1 0 0 0 .12.02.1.1 0 0 0 .06-.1c0-.22.12-.32.37-.31.16.05.37.18.61.4-.01 1.14-.62 2.14-1.82 3a.23.23 0 0 1-.16.04.2.2 0 0 0-.13.04c-.1.05-.1.1 0 .16.2.1.4.13.61.1.07 0 .13-.04.18-.08.1-.1.21-.16.34-.2a.17.17 0 0 1 .15.04.17.17 0 0 1 .06.13 3.96 3.96 0 0 1-.88 2.28c-.34.25-.57.57-.68.96a.38.38 0 0 1-.1.17c-.26.25-.39.52-.4.83 0 .52.01 1.02.04 1.5.03.5-.1.68-.4.56.06-.23.05-.39-.03-.46a.1.1 0 0 0-.1-.03.1.1 0 0 0-.07.07 5.94 5.94 0 0 1-2.49 3.54c-.21.15-.67.3-1.36.48-.3 0-.52-.05-.65-.17a.16.16 0 0 1-.04-.17.4.4 0 0 0 0-.25c.05-.06.12-.1.2-.12 1.99-.44 3.15-1.63 3.5-3.56.13-.33.07-.6-.18-.82a.26.26 0 0 0-.24-.07.26.26 0 0 0-.18.17c-.11.3-.28.78-.63.9-.46.14-1.06.01-1.52-.08a.2.2 0 0 0-.2.09l-1.33 2.17c-.47-.53-.48-1.13 0-1.8a.46.46 0 0 0 .03-.47l-.53-1.13c.28-.67.45-1.33.5-2 .01-.06.05-.12.1-.15.63-.36 1.32-.71 2.09-1.04.37-.17.35-.25-.05-.24-.66 0-1.61.5-2.16.87-.16.1-.21.25-.14.43.03.07.03.14 0 .2l-.42 1.14c-.21.39-.42.3-.61-.28.18-.45.26-.92.24-1.4 0-.23.17-.46.54-.7 1-.64 2.08-1.1 3.25-1.38.53.05.77.35.73.92v.05c-.3.56-.5 1.02-.62 1.39-.17.52-.02.62.43.32l.48-.32c1.33-.58 1.91-1.48 1.73-2.69-.4-.76-1.06-1.02-1.98-.78-2.16.58-3.99 1.67-5.5 3.3-.13.14-.24.29-.34.45a.18.18 0 0 1-.16.1c-.35 0-.57-.18-.65-.55a2.69 2.69 0 0 1-.33-2c.32-.57.7-1.04 1.13-1.4.76-.65 1.7-1.22 2.84-1.71.3-.14.6-.29.87-.45.35-.2.76-.32 1.22-.36.18-.02.39-.16.52-.29.24-.06.48-.07.73-.04l2.4-.22Z" fill="#E0F5BF"/><path d="M35.9 24.8c.47-.1.81-.06 1.04.13.06.13.16.21.3.26-.25 0-.37.1-.37.3a.1.1 0 0 1-.06.1.11.11 0 0 1-.12-.01l-.78-.78Z" fill="#BCBEBD"/><path d="M38.4 24.75c.35.04.63.2.83.48.05.07.11.09.2.06a.28.28 0 0 1 .23.01c.06.04.1.09.1.16.05.35.16.64.32.89l.32 1.13c.01.06 0 .12-.02.17a4.78 4.78 0 0 0-.53 1.63.13.13 0 0 1-.07.04.2.2 0 0 0-.12.12c-.17.48-.33.96-.47 1.43a.27.27 0 0 1-.12.16.3.3 0 0 0-.15.17c-.15.4-.3.79-.47 1.18a.35.35 0 0 0-.03.2c.05.3 0 .52-.14.67a3.1 3.1 0 0 0-1.96-1.62.17.17 0 0 1-.12-.1l-.02-.07.92-.68A3.6 3.6 0 0 0 38.58 27a2.2 2.2 0 0 0-.3-.73c-.15-.27-.3-.49-.43-.67a1.77 1.77 0 0 0-.61-.4.49.49 0 0 1-.3-.26c.22-.12.33-.12.33 0 .3.1.67.05 1.13-.18Z" fill="#020203"/><path d="M41.77 25.04c.49 1.64.57 3.28.25 4.93-.1.49-.2 1-.34 1.53-.22.94-.67 1.82-1.07 2.72-.19.4-.4.78-.65 1.14a14.5 14.5 0 0 1-2.93 3.1c.24-.43.53-.84.85-1.22.64-.76.95-1.6.95-2.53a.3.3 0 0 1 .07-.2.25.25 0 0 0 .06-.21c-.05-.27.22-.6.41-.75a.12.12 0 0 0 .05-.14c-.02-.07 0-.13.07-.17a.8.8 0 0 0 .38-.5.16.16 0 0 1 .14-.13c.04 0 .08-.02.11-.06a.22.22 0 0 0 .05-.11c.05-.36.1-.9.43-1.12.05-.03.1-.08.13-.13.12-.2.2-.4.26-.62.05-.2.13-.4.23-.59.15-.31.22-.63.2-.96-.01-.1.04-.16.16-.16.06 0 .1-.03.1-.1v-1.19a.4.4 0 0 1 .04-.2c.23-.41 0-.7-.01-1.1a7.9 7.9 0 0 1 .06-1.23Z" fill="#597479"/><path d="M33.91 25.78c0-.24-.15-.3-.47-.21l.8-.12c.51-.1.56 0 .12.3l-.45.03Z" fill="#6ACA0F"/><path d="M37.85 25.59c.13.18.28.4.44.67.15.24.25.49.3.73a3.6 3.6 0 0 1-1.5 3.8l-.9.67c-.17.02-.16-.1 0-.36a3.96 3.96 0 0 0 .87-2.35.16.16 0 0 0-.11-.1h-.08a.78.78 0 0 0-.34.2.33.33 0 0 1-.18.08 1 1 0 0 1-.61-.1c-.1-.05-.1-.1 0-.16a.2.2 0 0 1 .13-.04c.06.01.11 0 .16-.04 1.2-.86 1.8-1.86 1.82-3Z" fill="#BCBEBD"/><path d="M33.44 25.57c.32-.1.47-.03.47.2-.32.06-.63.14-.93.25-.3.1-.6.2-.9.27a9.58 9.58 0 0 0-5.11 3.21c-.05.06-.1.05-.13-.01l-.02-.05a.25.25 0 0 1 0-.25c.42-.69 1.1-1.1 1.73-1.56a7.1 7.1 0 0 1 1.17-.7 14.7 14.7 0 0 1 2.5-1.02c.42-.09.83-.2 1.22-.34Z" fill="#63820F"/><path d="M34.66 27.72c-.18-.18-.35-.34-.43-.6-.07-.25-.2-.5-.36-.72-.22-.29-.16-.35.16-.19.43.22.58.74.9 1.09.3.31.54.7.72 1.15.04.1 0 .14-.1.08-.38-.21-.61-.51-.9-.8Z" fill="#BCBEBD"/><path d="M15.27 28.6h-.17a.07.07 0 0 1-.04-.05v-.03l.03-.07c.41-.21.7-.53.84-.94.07-.18.12-.18.15.01l-.06.15c-.18.38-.43.7-.75.93Z" fill="#255105"/><path d="M22.7 27.97c.97.63 2.06.99 3.27 1.08-.15.75-.04 1.42.33 2l-1.5.03c-.42 0-.75-.08-1-.22-.34-.19-.58-.45-.72-.78-.2-.45-.43-.9-.68-1.32l.3-.8Z" fill="#A2E316"/><path d="m18.38 33.57-.25.09-.37.3h-.11c-.09 0-.13-.05-.13-.13a.3.3 0 0 1 0-.06l.05-.05.29-.11a.18.18 0 0 0 .07-.05.17.17 0 0 0 .03-.08.4.4 0 0 1 .2-.29c.06-.03.07-.08.05-.15-.02-.03-.04-.06-.08-.07-.38-.32-.7-.29-.95.11-.08-.25-.04-.42.12-.52.05-.04.1-.09.11-.15.05-.14.06-.33.12-.45.33-.63.67-1.27 1.04-1.93.11-.18.39-.44.83-.75.06-.04.1-.09.13-.15a.6.6 0 0 1 .18-.2.16.16 0 0 0 .06-.12c0-.08-.03-.13-.1-.17a.15.15 0 0 0-.14.01l-.73.42a8.36 8.36 0 0 0-3.21 4.04c-.03.4-.06.66-.1.75-.14.29-.2.27-.21-.04-.01-.31-.1-.64-.27-.98-.17-.33-.21-.31-.13.05.12.52.17 1.03.14 1.54 0 .23-.09.26-.25.1l-1.34-1.37a8.2 8.2 0 0 0-2.59-1.86c-1.36-.59-2.8-1-4.31-1.25-.52-.09-.54-.24-.06-.44.83-.36 1.8-.51 2.9-.46.15.01.3.04.44.09.14.05.3.08.44.1.48.06.96.33 1.4.52.14.05.4.2.8.46.25.16.54.28.86.36.1.16.23.25.4.28.4.4.73.86.97 1.37.07.16.12.16.14-.02a.54.54 0 0 0-.07-.26c.2-.86.6-1.58 1.23-2.16.1-.09.17-.2.2-.31l.04-.05a.1.1 0 0 1 .06-.01c.15 0 .26-.07.31-.21a.15.15 0 0 0-.02-.14.16.16 0 0 0-.12-.07c-.18 0-.29.07-.33.22a.34.34 0 0 1-.08.15l-.48.52c-.03-.18-.1-.36-.2-.53l.97-.85a.19.19 0 0 1 .3.13l.01.13c0 .1.05.14.15.11.18-.04.35-.13.5-.26a.45.45 0 0 1 .2-.1c.48-.12.9-.38 1.36-.44.6-.08 1.26-.1 1.95-.05.08 0 .15.03.2.08.08.06.07.1-.03.13-1.48.4-.85 2-1.27 3.05l-.52 1.2c-.18.4-.52.64-.8.98Z" fill="#C3F26D"/><path d="M34.93 28.53c.18 1.2-.4 2.1-1.73 2.7.06-.35.22-.8.16-1.1-.06-.25-.2-.35-.46-.3v-.05c.28-.25.67-.51 1.15-.78.15-.08.2-.18.17-.3-.02-.07-.07-.1-.14-.1l-1.13.03a5.87 5.87 0 0 1 1.98-.1Z" fill="#6ACA0F"/><path d="M32.9 29.78c.05-.57-.19-.87-.73-.92l.78-.23 1.13-.03c.07 0 .12.03.14.1.03.12-.02.22-.17.3-.48.27-.87.53-1.14.78Z" fill="#A2E316"/><path d="M17.18 33.08c.01.16.05.28.12.36.08.08.19.1.32.07.22-.07.4-.25.5-.54.05.01.07.04.09.07.02.07 0 .12-.05.15a.4.4 0 0 0-.2.29c0 .03-.01.05-.03.08a.18.18 0 0 1-.07.05l-.29.11a.06.06 0 0 0-.04.05.3.3 0 0 0 0 .06c0 .08.03.13.12.13h.11l-.89.5a.1.1 0 0 0-.04.12c.01.04.04.06.1.04a.84.84 0 0 1-.41.12c-.19 0-.31.04-.39.1a.48.48 0 0 0-.25.02c.05-.08.03-.14-.05-.18h-.04c-.05-.01-.1 0-.13.02-.12.07-.15.04-.1-.08.23-.59.24-1.09.03-1.5a8.36 8.36 0 0 1 3.21-4.05 263.56 263.56 0 0 0 .8-.44l.06.01c.08.04.12.1.1.17 0 .04-.02.08-.05.11a.6.6 0 0 0-.18.21.37.37 0 0 1-.13.15c-.44.31-.72.57-.82.75-.38.66-.72 1.3-1.05 1.93-.06.12-.07.3-.12.45a.28.28 0 0 1-.11.15c-.16.1-.2.27-.12.52ZM12.48 29.8c.31.31.66.42.83.88a2.7 2.7 0 0 1-.87-.36c-.38-.25-.64-.4-.78-.46-.45-.2-.93-.46-1.41-.52-.15-.02-.3-.05-.44-.1a1.65 1.65 0 0 0-.44-.09c-1.1-.05-2.07.1-2.9.46-.48.2-.46.35.06.44 1.51.24 2.95.66 4.31 1.25a8.2 8.2 0 0 1 2.6 1.86c.28.63.7 1.2 1.24 1.74-.05.02-.08.04-.08.08 0 .05-.04.09-.09.1l-.75.26a.3.3 0 0 0-.15.1l-.18.27c-.66.01-1.36-.04-1.96.16-.97.33-1.7.96-2.2 1.87-.05.01-.08-.02-.1-.1a3.6 3.6 0 0 1 1.74-1.83c.2-.1.2-.18-.01-.26l-1-.4c-.02-.03.06-.05.21-.04.85.41 1.72.45 2.61.11.03 0 .04-.02.02-.05l-.02-.06c-.03-.07-.08-.09-.15-.06a.85.85 0 0 1-.6.01c-.1-.04-.1-.07.02-.09.4-.08.53-.32.4-.72a.2.2 0 0 0-.13-.13 1.13 1.13 0 0 0-1 .1c-.05.03-.1.02-.14-.03l-.34-.47c-.07-.1-.05-.18.06-.22a.18.18 0 0 1 .1-.01c.1.01.16-.03.18-.13.03-.19-.02-.34-.14-.45-.1-.08-.17-.07-.24.02a.75.75 0 0 0-.13.25c-.02.08-.07.11-.15.1-.22-.02-.4-.07-.56-.14a5.8 5.8 0 0 1-1.03-.68 7.52 7.52 0 0 0-2.16-1.23.37.37 0 0 1-.17-.12c-.4-.51-.92-.76-1.57-.74l-.81.03c-.2 0-.21-.05-.06-.16a7.22 7.22 0 0 1 3.26-1.3 7.8 7.8 0 0 1 4.95.92c.06.03.12.01.17-.05Z" fill="#6ACA0F"/><path d="m14.75 32.05-.16-.9c.27-.14.48-.38.63-.73.07-.12.16-.23.29-.32.04-.05.05-.09.05-.1l.48-.53c.04-.05.07-.1.08-.15.04-.15.15-.23.33-.22a.16.16 0 0 1 .12.07.15.15 0 0 1 .02.14c-.05.14-.16.21-.31.2a.1.1 0 0 0-.06.02.09.09 0 0 0-.03.05.74.74 0 0 1-.21.31 4.08 4.08 0 0 0-1.23 2.16Z" fill="#63820F"/><path d="M35.1 30.55c.13-.32.31-.64.56-.97.18-.25.26-.22.23.09-.12 1.42-1.57 2.61-2.82 2.96-.66.19-.7.09-.14-.3.71-.5 1.36-.97 1.93-1.44.11-.09.2-.2.25-.34Z" fill="#255105"/><path d="M15.36 29.46c.1.17.17.35.2.53l-.05.11c-.22-.04-.29-.24-.21-.58-.01.07 0 .05.06-.06Z" fill="#E0F5BF"/><path d="M15.3 29.52c-.08.34 0 .54.2.58-.12.1-.21.2-.28.32-.03-.26-.1-.49-.2-.7l.28-.2Z" fill="#6ACA0F"/><path d="m33.2 31.22-.48.32c-.45.3-.6.2-.43-.32.12-.37.32-.83.61-1.39.25-.05.4.05.46.3.06.3-.1.76-.16 1.1Z" fill="#255105"/><path d="M28.84 33.4c-.24.69-.54 1.38-.91 2.07-.25.47-.5.77-.76.88-.28.12-.35.05-.21-.22l1.8-3.5.42-1.14a.28.28 0 0 0 0-.2c-.07-.19-.03-.33.14-.44.55-.36 1.5-.87 2.16-.87.4 0 .42.07.05.24-.77.33-1.46.68-2.08 1.04a.19.19 0 0 0-.1.15 6.47 6.47 0 0 1-.52 2Z" fill="#020203"/><path d="M14.3 30.1c.15.3.25.64.29 1.04l.16.9c.06.12.08.2.07.27-.02.18-.07.18-.14.02a4.63 4.63 0 0 0-.98-1.37.98.98 0 0 0 0-.38c-.02-.06 0-.1.06-.14l.53-.34Z" fill="#0F79C1"/><path d="M10.11 35.1a2.46 2.46 0 0 1-.62-.24c-.02-.02-.05 0-.09.05a9.1 9.1 0 0 1-3.24-3.3c-.17-.29-.34-.51-.53-.68a14.8 14.8 0 0 0-.66-.56c.65-.02 1.17.23 1.57.74.05.06.1.1.17.12.76.27 1.48.69 2.16 1.23.35.28.7.5 1.03.68.15.07.34.12.56.15.08 0 .13-.03.15-.1.03-.1.07-.18.13-.26.07-.09.15-.1.24-.02.12.11.17.26.14.45-.02.1-.08.14-.18.13h-.1c-.1.05-.13.13-.06.23l.34.47c.04.05.09.06.15.03.3-.19.63-.22.99-.1a.2.2 0 0 1 .13.13c.13.4 0 .64-.4.72-.11.02-.11.05-.01.09.18.07.38.06.6-.01.06-.03.11 0 .14.06l.02.06c.02.03 0 .04-.02.05-.89.34-1.76.3-2.6-.11Z" fill="#C3F26D"/><path d="M36.2 31.1c-.17.26-.18.38-.02.36l.02.07c.02.05.06.09.12.1a3.1 3.1 0 0 1 1.96 1.62c.14.94 0 1.79-.4 2.55a8.6 8.6 0 0 1-2.03 2.46c-1.03.9-2.25 1.64-3.64 2.23-.33.14-.64.24-.93.3-.45.1-.88.25-1.33.28-1.7.12-3 .12-3.91 0a7.71 7.71 0 0 1-3.08-1.15c-.34-.3-.56-.55-.67-.74-.1-.2-.24-.63-.42-1.33-.04-.37.03-.8.23-1.3.22-.42.53-.82.92-1.2.14-.14.3-.25.47-.32.33-.15.74-.53 1.13-.47.19.03.27.13.24.32-.12.87.04 1.57.48 2.11.18.22.4.38.66.49.37.15.63.32 1.03.39.4.06.8.14 1.2.23.39.08.83.08 1.33 0l.36.03c.03.07.02.16 0 .25-.02.06 0 .12.04.17.13.12.34.18.65.17l-.9.1a.14.14 0 0 0-.13.13V39a.1.1 0 0 0 .03.09.1.1 0 0 0 .08.02 5.71 5.71 0 0 0 4.53-2.64c.16-.24.3-.7.44-1.35.3.12.43-.07.4-.56-.03-.48-.04-.98-.03-1.5 0-.3.13-.58.39-.83.05-.05.08-.1.1-.17.11-.4.34-.71.68-.96Z" fill="#CCD2D4"/><path d="M28.15 32.34c.2.57.4.67.6.28l-1.8 3.51c-.13.27-.06.34.22.22.25-.11.5-.4.76-.88.37-.7.67-1.38.9-2.06l.54 1.13a.46.46 0 0 1-.04.47c-.47.67-.47 1.27 0 1.8-.26.57-.76.81-1.5.72L27 37.4c-.39-.07-.54-.27-.82-.5a.5.5 0 0 1-.12-.62l2.08-3.95Z" fill="#BCBEBD"/><path d="M15.59 33.11c.21.42.2.92-.03 1.5-.05.13-.02.16.1.1a.26.26 0 0 1 .13-.04h.04c.08.05.1.1.05.19l-.37.22c-.06.04-.1.1-.09.17.02.21.08.42.2.6.29.49.63.94 1.02 1.36.07.09.1.08.08-.04a.62.62 0 0 1 .06-.44.24.24 0 0 0 .03-.18.52.52 0 0 1 .03-.35l.42-.89 1.03-.63a.1.1 0 0 1 .05-.02.1.1 0 0 1 .06.02c.11.07.11.15 0 .23-.5.15-.87.44-1.09.88-.21.36-.24.66-.1.9a2 2 0 0 0 .1 1.31c.09.2.19.36.3.47.56.47 1.1.95 1.62 1.45.28.26.98.7 2.1 1.3.05.06.07.1.07.14a.09.09 0 0 1-.04.07.1.1 0 0 1-.08.01 7.5 7.5 0 0 1-1.87-1.08 41.85 41.85 0 0 1-3.25-2.87c.26-.35-.02-.74-.82-1.18l-.07-.46a.34.34 0 0 0-.13-.23l-.4-.3a.27.27 0 0 1-.1-.2c-.01-.08 0-.15.04-.22a5.75 5.75 0 0 1-1.25-1.74l1.34 1.37c.16.16.24.13.25-.1a5.85 5.85 0 0 0-.14-1.54c-.08-.36-.04-.38.13-.05.17.34.26.67.27.98 0 .31.08.33.2.04.05-.1.08-.34.11-.75Z" fill="#042D07"/><path d="M18.13 32.97c-.12.3-.29.47-.5.54-.14.04-.25.01-.33-.07a.61.61 0 0 1-.12-.36c.25-.4.57-.43.95-.11Z" fill="#E0F5BF"/><path d="m18.38 33.57.36.87-.06.58a.49.49 0 0 0-.28-.11c.1-.08.11-.16 0-.23a.1.1 0 0 0-.11 0l-1.03.63a4.4 4.4 0 0 0-.39-.4c-.15-.14-.27-.2-.35-.17.14 0 .27-.04.4-.12l1.28-.74a.19.19 0 0 0 .09-.2c0-.05-.06-.05-.15-.02l.24-.09Z" fill="#ADE549"/><path d="M18.14 33.66c.1-.03.14-.03.15 0a.19.19 0 0 1-.09.22l-1.28.74c-.05.02-.08 0-.1-.04a.1.1 0 0 1 .05-.12l.9-.5.37-.3Z" fill="#255105"/><path d="M18.74 34.44c.58-.06 1.05.12 1.4.53.32.37.24.9.8 1.05.13.04.26.09.38.15a3.22 3.22 0 0 0 .52.24.04.04 0 0 1 0 .03.09.09 0 0 0 0 .11l.05.04c.08.03.15.01.21-.05-.2.5-.27.94-.23 1.3-.14.5-.42.53-.83.13-.2-.2-.4-.35-.59-.46l-.66-.38a.18.18 0 0 0-.1-.02h-.06a.29.29 0 0 1-.15-.04l-.5-.3a.43.43 0 0 1-.15-.16l-.65-1.1a.14.14 0 0 1 .04-.19.15.15 0 0 1 .07-.02c.07-.01.14 0 .2.02.08.03.15.02.2-.05.04-.06.04-.14-.01-.25l.06-.58Z" fill="#45615D"/><path d="M35.74 35.44c-.4.65-.61 1.25-.47 1.33.14.09.58-.37.98-1.02.4-.64.62-1.24.48-1.32-.14-.09-.58.37-.99 1.01Z" fill="#E0F5BF"/><path d="M33.62 34.45c-.35 1.93-1.51 3.12-3.5 3.56a.35.35 0 0 0-.2.12l-.36-.03 1.53-2.69a.4.4 0 0 1 .54-.15c.21.1.44.19.69.24.23.05.47-.04.72-.27.22-.22.41-.47.58-.78Z" fill="#5FB004"/><path d="M34.66 35.12c-.14.65-.28 1.1-.44 1.35a5.71 5.71 0 0 1-4.57 2.64.1.1 0 0 1-.07-.1v-.06a.14.14 0 0 1 .12-.13l.9-.1c.7-.17 1.16-.33 1.37-.48a5.94 5.94 0 0 0 2.51-3.58.1.1 0 0 1 .15 0c.08.07.08.23.03.46Z" fill="#042D07"/><path d="M10.11 35.1c-.15 0-.23.02-.22.06a1.2 1.2 0 0 1-.49-.24c.04-.06.06-.08.09-.06.2.11.4.2.62.25Z" fill="#ADE549"/><path d="M15.88 34.86a.48.48 0 0 1 .25-.01c0 .16.03.3.12.43.2.27.4.58.6.92a.52.52 0 0 0-.04.35c.01.06 0 .12-.03.18a.62.62 0 0 0-.06.44c.02.12 0 .13-.09.04a8.71 8.71 0 0 1-1.01-1.36 1.35 1.35 0 0 1-.2-.6c0-.07.02-.13.09-.17l.37-.22Z" fill="#0F79C1"/><path d="M14.68 34.9a.41.41 0 0 0-.05.22c.01.08.05.15.1.2l.4.3c.08.06.13.14.14.23l.07.46a.9.9 0 0 1-.67-.11c-.35 0-.5-.05-.44-.16-.23-.2-.5-.32-.8-.33l.18-.26a.3.3 0 0 1 .15-.11l.75-.26a.11.11 0 0 0 .09-.1c0-.04.03-.06.08-.08Z" fill="#45A604"/><path d="M18.4 34.9c.12.02.21.06.28.12.05.11.05.2.01.25-.05.07-.12.08-.2.05a.46.46 0 0 0-.2-.02.15.15 0 0 0-.12.07.15.15 0 0 0 0 .14l.66 1.1c.03.07.08.12.15.15l.5.31c.05.03.1.04.15.05h.06l.1.01.66.38c.19.1.39.26.59.46.4.4.69.36.83-.12.18.7.32 1.14.42 1.33.1.19.33.44.67.74-.1 0-.13.1-.05.27a2.05 2.05 0 0 1-.7-.36c-.2-.14-.47-.15-.67-.28a14.66 14.66 0 0 1-3.46-2.88 7.5 7.5 0 0 0-.77-.88 1.7 1.7 0 0 1 1.09-.88Z" fill="#7AA0A7"/><path d="m31.95 42.45-.9.23h-1.82c.16-.1.39-.13.7-.09.03.01.08 0 .11-.02a.17.17 0 0 0 .07-.1l.02-.06c.02-.08-.02-.12-.1-.13l-1.42-.06 1.46-.07c.5-.02.98-.1 1.43-.22 1.2-.33 2.25-.72 3.18-1.14 2-.92 3.84-2.4 5.5-4.44.27-.34.39-.76.7-1.07a.1.1 0 0 1 .12-.01l.06.04c.1.08.12.17.06.28-.42.74-.85 1.5-1.42 2.13a15.22 15.22 0 0 1-3.03 2.74 28 28 0 0 1-2.58 1.33c-.29.13-.64.25-1.06.35-.36.08-.72.19-1.08.3Z" fill="#6DECF4"/><path d="M22.83 37.41a.03.03 0 0 1-.03 0h-.01c-.1-.07-.13-.23-.09-.43.05-.2.16-.45.32-.67l.05-.07a2.16 2.16 0 0 1 .55-.5c.1-.06.18-.09.26-.1.07 0 .14.01.19.05h.01v.04l-1.25 1.68Z" fill="#020203"/><path d="M14.23 36.04c-.06.1.09.16.44.16a4.43 4.43 0 0 0-2.57 1.24c-.05.04-.06.08-.03.12.03.06.09.08.15.05.46-.22.87-.33 1.24-.32.47.26 1 .35 1.6.27.06 0 .11.02.15.08.1.15.14.33.1.53a.1.1 0 0 1-.05.06c-.03.02-.04.03-.05.06 0 .07.02.08.08.04.09-.06.17-.04.24.07v.04a.14.14 0 0 1-.06.06.06.06 0 0 0-.03.07l.01.03.04.02.18.03c-.78.5-1.58.55-2.4.13-.6-.3-1.21-.44-1.83-.4-.06 0-.1-.03-.1-.09a.56.56 0 0 1 .13-.43c.25-.3.5-.6.77-.9.42-.5 1.08-.8 1.99-.92Z" fill="#A2E316"/><path d="M14.67 36.2c.2.12.42.16.67.1.8.45 1.08.84.82 1.19a3.12 3.12 0 0 0-2.7-.2c-.37 0-.79.1-1.24.32-.06.03-.12.01-.15-.05-.03-.04-.02-.08.03-.12a4.43 4.43 0 0 1 2.57-1.24Z" fill="#C3F26D"/><path d="M17.22 36.69a14.53 14.53 0 0 0 6.42 4.65c.4.15.81.27 1.24.36.57.13 1.07.34 1.69.4.68.05 1.36.1 2.04.12l1.42.06c.08 0 .12.05.1.13l-.01.06a.17.17 0 0 1-.08.1.17.17 0 0 1-.12.02c-.3-.04-.53-.02-.7.09-.36.06-.74.07-1.14.06-.89-.05-1.75-.12-2.59-.21-.39-.05-.75-.33-1.17-.39a5.58 5.58 0 0 1-1.9-.64.74.74 0 0 1-.14.01v.01a.02.02 0 0 0-.01.02l.05.16-1-.48a12.26 12.26 0 0 1-2.09-1.3c-.52-.5-1.06-.98-1.61-1.45-.12-.1-.22-.26-.3-.47a2 2 0 0 1-.1-1.31Z" fill="#0992D9"/><path d="M16.16 37.49a41.85 41.85 0 0 0 3.25 2.87 7.5 7.5 0 0 0 1.91 1.09.1.1 0 0 0 .07-.05l.01-.04c0-.04-.02-.08-.07-.14l.99.48c1.4.59 2.86 1 4.37 1.27.1.07.36.15.76.24 1.18.26 1.44.52.77.78-1.1-.08-2.26-.06-3.3-.38-.6-.18-1.2-.23-1.79-.44-2.7-.98-4.99-2.53-6.86-4.66a.22.22 0 0 0-.16-.07c-.15 0-.3.07-.44.2l-.18-.02a.06.06 0 0 1-.05-.05.06.06 0 0 1 .03-.07.14.14 0 0 0 .06-.06v-.04c-.07-.1-.15-.13-.24-.07-.06.04-.09.03-.08-.04 0-.03.02-.05.05-.06a.1.1 0 0 0 .05-.06c.04-.2 0-.38-.1-.53a.16.16 0 0 0-.16-.08c-.6.08-1.12-.01-1.6-.27 1-.34 1.9-.28 2.71.2Z" fill="#45A604"/><path d="M9.16 37.65c.03.07.06.1.1.1l-.1 1.2c0 .03-.02.05-.05.05h-.06c-.01.01-.02 0-.03-.02a2.5 2.5 0 0 1 .14-1.33Z" fill="#7AA0A7"/><path d="M40.63 38.69a15.5 15.5 0 0 1-6.87 4.5c-1.83.6-3.68.87-5.54.8.67-.26.41-.52-.77-.78-.4-.1-.65-.17-.76-.24 1.57.34 3.02.24 4.37-.3l.9-.22c.15 0 .28.04.39.09 1.1.53 4.34-1.53 5.38-2.52.69-.65 1.38-1.27 2.07-1.87.65-.34.93-.16.83.54Z" fill="#ADE549"/><path d="M29.23 42.68h1.83c-1.35.53-2.8.63-4.37.29a20.6 20.6 0 0 1-4.37-1.27l-.05-.16v-.01a.02.02 0 0 1 .01-.02h.01l.13-.01h.04c.63.35 1.25.56 1.86.64.42.06.78.34 1.17.39.84.1 1.7.16 2.6.2.39.02.77 0 1.14-.05Z" fill="#9BEBD3"/></svg>