<svg width="56" height="56" viewBox="0 0 56 56" xmlns="http://www.w3.org/2000/svg"><path fill="#F0F3FA" d="M0 0h56v56H0z"/><path d="m16.52 22.83-1.07.53a23.91 23.91 0 0 1-2.89 1.28c-.1.04-.2.05-.3.03a.2.2 0 0 1-.14-.09.2.2 0 0 1-.03-.17c1.74-6.21 7.05-11.26 13.5-12.24 2.74-.42 5.5-.06 8.3 1.08.31.13.59.29.83.47a.3.3 0 0 1 .13.24.3.3 0 0 1-.1.25c-.23.23-.53.43-.9.6-3 1.36-5.98 2.72-8.96 4.05a258.08 258.08 0 0 0-8.37 3.97Z" fill="#0364AC"/><path d="m28.55 32.17-.77-3.64a.53.53 0 0 0-.1-.21.26.26 0 0 1-.04-.22c.02-.1.03-.2.02-.3a6.26 6.26 0 0 1 .14-2.12c.08-.31.11-.64.09-.97 0-.11.02-.22.1-.3l.4-.57 11.65-5.09a.7.7 0 0 1 .47-.03c.16.04.28.13.38.26a14.37 14.37 0 0 1 2.88 6.94c.16.8.23 1.4.23 1.83a16.8 16.8 0 0 1-.72 4.75c-.5 1.67-1.21 3.13-2.13 4.37-.3.4-.69.52-1.17.35a65.84 65.84 0 0 1-5.18-2.25c-1.27-.6-2.22-1.03-2.86-1.31l-3.39-1.5Z" fill="#68AFDD"/><path d="M32.39 29.22a.82.82 0 0 1-.15-.35 4.46 4.46 0 0 1 .53-3.32c.35-.56.76-1.05 1.23-1.47.23-.2.62-.4 1.16-.6.44-.17.77-.32.97-.46.33-.23.75-.32 1.24-.26.53.06 1.03.23 1.5.5.28.15.58.28.9.39.41.14.72.32.93.55.28.32.57.72.85 1.2.27.44.39.9.36 1.37-.03.69-.01 1.36.06 2.01.04.33-.05.65-.26.97-.14.22-.23.45-.28.7a2.3 2.3 0 0 1-.38.93c-.2.3-.46.52-.77.67l-.5.28c-.23.15-.4.25-.53.3-.2.1-.4.15-.59.16-.25 0-.51.03-.78.09-.69.15-1.33.14-1.94-.02-.38-.11-.75-.31-1.09-.6a5.5 5.5 0 0 0-.58-.42c-.4-.26-.7-.49-.86-.7-.4-.48-.7-1.03-.88-1.65a.93.93 0 0 0-.14-.27Z" fill="#B7D6ED"/><path d="m28.39 23.84-.4.56c-.08.1-.1.2-.1.3.02.34 0 .67-.09.98a6.26 6.26 0 0 0-.14 2.12c0 .1 0 .2-.02.3-.02.08 0 .15.04.22.05.06.09.13.1.21l.77 3.64-9.2-3.97a.25.25 0 0 1-.16-.24c0-.12.06-.2.16-.24l9.04-3.88Z" fill="#0B87C7"/><path d="M12.22 32.64a4.5 4.5 0 0 1-.22-1.32c0-.07.03-.13.09-.16a.18.18 0 0 1 .19-.01c5.95 2.8 11.86 5.57 17.7 8.34 1.36.64 2.74 1.25 4.14 1.84.34.14.59.36.75.65.07.12.08.25.04.38a.45.45 0 0 1-.26.28c-8.9 3.88-19.54-.87-22.43-10Z" fill="#0364AC"/></svg>