<svg width="56" height="56" viewBox="0 0 56 56" xmlns="http://www.w3.org/2000/svg"><path fill="#F0F3FA" d="M0 0h56v56H0z"/><path d="M30.04 41.52a7.15 7.15 0 0 0 .92-.23c.3-.13.49-.31.56-.55.03-.09.07-.2.11-.37.24-.78.44-1.35.61-1.7.28-.56.66-1.03 1.15-1.42.1-.07.14-.05.12.07a7.03 7.03 0 0 1-1.37 3.37c-.1.14-.07.19.1.15.89-.21 1.35-.54 1.4-.98.12-1.27.54-2.4 1.27-3.43.2-.28.29-.25.26.1a8.72 8.72 0 0 1-.99 3.3c-.04.08-.02.12.07.1a1.4 1.4 0 0 0 1.24-1.35 6.88 6.88 0 0 1 1.14-3.77.16.16 0 0 1 .12-.07.1.1 0 0 1 .08.02l.04.07c.05.63-.02 1.27-.2 1.92-.13.51-.36 1.12-.7 1.83-.12.27-.05.32.2.18a3.7 3.7 0 0 0 1.13-1.01c.06-.09.1-.18.1-.29-.02-.99.01-1.73.1-2.22.12-.76.4-1.44.83-2.04.12-.17.19-.15.2.06a8.88 8.88 0 0 1-.51 3.4c-.1.29-.04.33.19.13.34-.3.62-.68.84-1.1.06-.1.07-.22.06-.33a8.73 8.73 0 0 1-.1-1.93c.05-.66.21-1.28.48-1.86.1-.22.17-.2.2.04.1.93.12 1.88.08 2.85 0 .03.01.06.04.07.04.02.07.01.1-.01.26-.25.46-.52.58-.8.14-.35.16-.68.05-1.01a8.35 8.35 0 0 1-.36-1.66 5.98 5.98 0 0 1 .06-1.7c.02-.07.05-.09.11-.07.05.01.09.04.1.1.17.56.36 1.13.57 1.7.08.23.12.47.12.71 0 .26.08.28.23.08a1.45 1.45 0 0 0 .07-1.62 4.87 4.87 0 0 1-.62-3.18c0-.03.02-.05.05-.06.03 0 .05 0 .07.02.52.66.84 1.44.95 2.32.08.58.2.59.35.03a2 2 0 0 0 0-1.14 3.92 3.92 0 0 0-.53-1.01 5 5 0 0 1-.85-2.58c0-.04.01-.07.05-.09a.08.08 0 0 1 .1.01c.57.46 1 1.16 1.3 2.11.07.2.11.2.13-.01.04-.36.04-.71 0-1.05a.4.4 0 0 0-.11-.24c-.47-.5-.82-.94-1.07-1.34a3.47 3.47 0 0 1-.55-1.55c-.02-.18.04-.22.18-.1.43.38.83.84 1.2 1.4.2.29.28.26.24-.1a1.64 1.64 0 0 0-.4-.86l-.38-.44a10.7 10.7 0 0 1-.88-1.08 3.59 3.59 0 0 1-.56-1.29c-.05-.24.02-.3.22-.15.48.35.93.82 1.36 1.42.18.25.25.22.22-.09a1.32 1.32 0 0 0-.54-.93l-1.1-.9a6.04 6.04 0 0 1-.94-1.1c-.12-.18-.07-.24.13-.2.5.11.98.39 1.44.82.21.2.28.16.2-.13a.87.87 0 0 0-.4-.52 3.4 3.4 0 0 0-.52-.27 4.3 4.3 0 0 1-1.92-1.5.1.1 0 0 1 0-.1c.02-.05.05-.06.1-.05.37.07.76.18 1.16.33.03.01.05 0 .07 0a.07.07 0 0 0 .03-.07v-.06a.3.3 0 0 0-.15-.25 6.71 6.71 0 0 1-2.35-2.52c-.02-.04-.02-.07 0-.1.03-.03.06-.04.1-.03.7.23 1.31.64 1.83 1.23.35.39.76 1 1.23 1.86.01.02.03.02.05.01l.05-.02c.07-.03.1-.09.07-.16-.23-.64-.45-1.28-.66-1.93a.67.67 0 0 1-.03-.31c0-.04.02-.06.05-.06.03-.02.06 0 .08.01.46.48.8.88.99 1.21.3.5.42 1 .35 1.48-.06.5 0 1.02.17 1.58 0 .02.02.04.04.04.03 0 .05 0 .06-.02.1-.11.14-.24.14-.4.01-.43.04-.83.09-1.2a.1.1 0 0 1 .07-.08.1.1 0 0 1 .11.04c.23.32.38.66.46 1.02.08.4.06.77-.06 1.1-.15.4-.23.76-.24 1.05 0 .33.06.68.22 1.05.1.26.16.25.17-.04 0-.66.1-1.27.3-1.83.11-.31.23-.31.34 0l.31.85c.11.32.1.63-.04.93-.63 1.37-.84 2.41-.63 3.14.08.26.16.26.23 0 .13-.47.25-.83.35-1.08.15-.4.32-.73.5-1 .11-.15.18-.14.2.05a4.15 4.15 0 0 1-.8 3.08c-.16.24-.25.53-.26.89 0 .44-.02.87-.05 1.29 0 .03 0 .05.03.05l.08.02c.04.01.07 0 .08-.05a9.2 9.2 0 0 1 1.39-2.95c.07-.1.11-.1.13.03.1.76.02 1.45-.21 2.06-.21.54-.59 1.1-1.13 1.66-.4.41-.65.95-.72 1.6-.05.34.01.36.18.07.5-.91 1.11-1.8 1.83-2.67.4-.49.52-.42.36.2-.13.5-.3 1.02-.52 1.56-.16.4-.43.79-.8 1.15-.27.25-.64.53-1.12.85-.23.15-.4.35-.54.59-.12.2-.2.44-.28.74-.06.27.01.31.21.13l2.55-2.26c.08-.07.11-.05.09.06-.2.85-.58 1.54-1.12 2.08-.5.49-1.17.86-2.01 1.13a.69.69 0 0 0-.43.37l-.3.63c-.1.2-.06.25.14.14a14.5 14.5 0 0 1 2.07-.92c.2-.07.44-.2.74-.43.25-.17.31-.12.19.16a3.3 3.3 0 0 1-1.4 1.63c-.53.3-1.21.45-2.04.46-.27 0-.49.1-.67.3-.18.2-.34.41-.5.62-.13.2-.09.27.14.19.86-.3 1.88-.54 3.06-.7.12-.01.14.02.06.11-1.07 1.17-2.3 1.65-3.68 1.44a.36.36 0 0 0-.26.06c-.28.18-.52.39-.73.6-.3.34-.25.44.19.32a10.9 10.9 0 0 1 3.1-.48c.03 0 .05.02.05.04.01.03 0 .05-.02.07-1.42.95-2.73 1.26-3.94.96a.61.61 0 0 0-.44.05c-.36.18-.7.4-.98.64-.24.2-.2.27.1.23 1.34-.18 2.62-.25 3.83-.21.04 0 .06.02.07.06.01.03 0 .06-.03.08-.6.4-1.22.68-1.84.83-.68.16-1.32.15-1.92-.03a4.1 4.1 0 0 0-1-.2c-.38-.02-.7.07-.97.26-.17.13-.15.2.06.22 1.09.1 2.18.25 3.28.45.33.07.34.16.02.27-.62.23-1.15.37-1.58.4a2.73 2.73 0 0 1-1.86-.47c-.22-.14-.4-.23-.51-.27-.2-.08-.4-.1-.57-.07-.29.04-.55.12-.8.24-.18.08-.17.14.03.17 1.14.16 2.32.53 3.55 1.1.12.05.11.09-.01.12-.8.21-1.53.22-2.2.03a5.17 5.17 0 0 1-1.9-1.1.33.33 0 0 0-.3-.08l-2.44.56c-.26.05-.27.12-.01.2a27.6 27.6 0 0 1 4.78 1.9c.24.12.25.26.03.41l-.1.07a.54.54 0 0 1-.62.03 21.91 21.91 0 0 0-5.4-2.2.86.86 0 0 0-.41 0 20 20 0 0 0-4.63 1.71.49.49 0 0 1-.44.02l-.44-.2c-.16-.06-.16-.13 0-.2 1.5-.7 3-1.22 4.45-1.6.04 0 .06-.03.06-.06 0-.04-.01-.06-.05-.08-.51-.22-1-.36-1.47-.4a2.28 2.28 0 0 0-1.43.3c-.97.6-2.17.72-3.6.37-.14-.03-.14-.08-.01-.13 1.14-.5 2.27-.8 3.38-.89.35-.03.37-.13.07-.3-.2-.12-.4-.19-.6-.21-.22-.03-.43 0-.6.1a5.17 5.17 0 0 1-4.11.15c-.04 0-.06-.03-.06-.08 0-.04.02-.06.06-.08a8.39 8.39 0 0 1 3.55-.43.1.1 0 0 0 .1-.05.1.1 0 0 0 0-.12c-.25-.42-.64-.56-1.16-.4a5.1 5.1 0 0 1-4.33-.66c-.1-.07-.1-.11.03-.13 1.44-.16 2.72-.1 3.85.2.15.03.17 0 .06-.12a2.98 2.98 0 0 0-1.16-.79.41.41 0 0 0-.25 0c-.76.2-1.5.2-2.2 0-.3-.07-.62-.2-.97-.35a21.33 21.33 0 0 1-1.43-.73c-.29-.15-.27-.21.05-.18l.77.08c.73.07 1.27.13 1.64.19.6.1 1.14.22 1.62.38.15.05.18.01.1-.13a1.3 1.3 0 0 0-1.07-.67 7.47 7.47 0 0 1-2.05-.35A4.2 4.2 0 0 1 13 35.72a.1.1 0 0 1-.03-.11.1.1 0 0 1 .09-.07c.46-.06.93-.01 1.42.15.3.1.72.29 1.29.58.2.11.36.2.46.24.35.18.42.1.21-.23A2.63 2.63 0 0 0 14.72 35a3.71 3.71 0 0 1-1.54-.69 9.36 9.36 0 0 1-1.2-1.18c-.24-.27-.2-.35.15-.26.92.27 1.8.71 2.64 1.34.19.14.24.1.17-.13a1.9 1.9 0 0 0-.8-1.03c-.14-.1-.36-.23-.65-.4l-.76-.48a4.8 4.8 0 0 1-.67-.54 3.05 3.05 0 0 1-.86-1.59c-.05-.23.02-.27.2-.14.58.42 1.15.87 1.72 1.36.1.08.21.22.35.4.16.2.28.35.38.43.11.09.15.06.12-.08a3.1 3.1 0 0 0-.67-1.52 8.93 8.93 0 0 0-.58-.49l-.54-.46a3.19 3.19 0 0 1-.46-.54 5 5 0 0 1-.72-2.15c-.01-.14.03-.16.13-.06.14.13.33.35.57.67.1.15.2.26.25.33.42.52.8 1.04 1.15 1.57.1.15.14.14.13-.05a3.4 3.4 0 0 0-.69-1.9 6.75 6.75 0 0 1-.96-1.66c-.2-.55-.3-1.2-.3-1.93 0-.24.07-.26.2-.07.5.72.93 1.55 1.28 2.48.08.23.14.23.17-.02.08-.61 0-1.1-.23-1.48a4.88 4.88 0 0 1-.64-1.71c-.08-.41-.12-1.02-.14-1.82 0-.31.07-.34.24-.08.46.71.75 1.46.87 2.25.03.2.07.2.14.02.08-.26.09-.57.01-.94a7.76 7.76 0 0 0-.3-.97l-.18-.51a3.7 3.7 0 0 1 .25-2.69c.01-.02.03-.03.05-.03.03 0 .04.01.06.03.35.77.48 1.6.4 2.48-.07.65.02.67.27.08.27-.64.3-1.23.12-1.8-.3-.95-.21-1.9.29-2.86.13-.26.2-.24.23.04l.19 1.74c.02.2.08.21.19.05l.22-.33a.73.73 0 0 0 .1-.59 3.75 3.75 0 0 1-.07-1.5c.1-.53.34-.94.74-1.24.24-.2.34-.13.28.17l-.32 1.63c0 .06.01.1.06.12.06.02.1.01.13-.04.44-.7.82-1.22 1.13-1.57.49-.55 1-.92 1.53-1.11.25-.1.32-.02.21.23-.37.87-.9 1.45-1.6 1.76-.25.11-.47.26-.65.44-.2.2-.33.43-.4.67-.04.2 0 .22.14.09a3 3 0 0 1 1.49-.8c.26-.05.31.03.15.25-.28.39-.58.71-.92.98-.38.3-.78.5-1.18.6-.31.08-.6.25-.85.52a.6.6 0 0 0-.12.61l.02.02.03-.01a3 3 0 0 1 1.9-1.19c.03 0 .06.01.08.04a.1.1 0 0 1 .01.1 3.93 3.93 0 0 1-1.63 1.7c-.37.22-.62.39-.77.52-.23.22-.38.5-.46.82l.01.08c.02.04.06.07.13.07a.1.1 0 0 0 .09-.05c.39-.52.93-.96 1.6-1.34.05-.03.1 0 .13.08.02.04.02.08 0 .11a7.24 7.24 0 0 1-1.88 2.37c-.35.29-.53.65-.54 1.08 0 .27.06.29.2.07.35-.56.8-1.04 1.34-1.44.1-.08.14-.06.11.07a4.8 4.8 0 0 1-1.25 2.42c-.57.54-.8 1.27-.68 2.19.05.38.14.4.27.03.28-.8.65-1.55 1.12-2.22.16-.22.24-.2.25.07.02.95-.28 1.81-.91 2.59a2.2 2.2 0 0 0-.47 2.05c.02.08.04.15.04.23 0 .08.04.13.1.17a.1.1 0 0 0 .1 0 .1.1 0 0 0 .05-.07c.17-.98.55-1.93 1.14-2.87.1-.15.16-.14.19.04.1.63.05 1.25-.16 1.87a11.38 11.38 0 0 1-.96 1.96.34.34 0 0 0-.04.23c.07.42.24.85.5 1.3.06.1.1.09.12-.03v-.5c-.03-.27-.02-.47.01-.6.15-.6.42-1.21.81-1.82.02-.03.05-.05.1-.04.03.01.05.03.06.07a4.6 4.6 0 0 1-.26 2.83c-.13.29-.2.5-.25.65-.06.25-.08.46-.04.65.1.46.3.86.62 1.2.17.17.23.14.17-.1-.2-.87-.14-1.82.18-2.86.02-.07.07-.1.15-.11.07-.01.12.02.16.08.25.44.38.94.38 1.49 0 .35-.06.86-.18 1.54-.16.82.1 1.49.75 2.02.14.1.18.08.14-.09a8.7 8.7 0 0 1-.18-3.02c.03-.32.13-.35.29-.07.29.5.48 1.03.57 1.6.06.36.1.9.1 1.64l.03.71c0 .07.02.14.06.2.24.35.55.65.91.88.2.12.24.08.14-.12a7.42 7.42 0 0 1-.69-3.15c0-.03.01-.05.04-.07.03 0 .05 0 .08.02a4.37 4.37 0 0 1 1.34 2.94c.03.4.08.7.14.88.1.3.29.52.55.67.24.13.3.08.2-.18a7.19 7.19 0 0 1-.57-2.74c0-.22.07-.25.21-.1.38.4.66.85.83 1.35.15.4.24.92.3 1.54.04.64.41 1.05 1.1 1.23.19.04.23-.02.15-.19-.47-.9-.8-1.85-1-2.84-.04-.22.03-.26.2-.11a4.28 4.28 0 0 1 1.6 2.96c.02.32.18.58.46.79.24.18.53.29.86.32.21.01.25-.06.11-.22a5.26 5.26 0 0 1-.62-.94c-.12-.23-.28-.57-.48-1.03a12.5 12.5 0 0 0-.68-1.37c-.09-.14-.06-.17.09-.1.5.26.94.6 1.3 1.04.34.42.6.91.78 1.47.13.42.28.83.46 1.24.06.14.17.23.32.28.47.13.85.18 1.11.14.43-.07.88-.14 1.33-.23a.6.6 0 0 0 .49-.4l.03-.09c.34-.89.63-1.53.87-1.93.4-.66.88-1.16 1.45-1.5.08-.05.13-.03.17.06a.1.1 0 0 1 0 .09c-.24.5-.46 1.03-.66 1.57-.22.6-.63 1.2-1.23 1.78-.13.13-.1.18.08.15Z" fill="#136C3B"/><path fill-rule="evenodd" d="M39.98 26a12 12 0 1 1 0-2H17.55a10.63 10.63 0 0 0 0 2h5.4v-1.5h9.83c.52.52.9 1.03 1.18 1.5h6.02Zm-7.03-2.3h5.47c-.1-.83-.3-1.64-.59-2.4H18.17c-.29.76-.49 1.57-.59 2.4h5.38v-1.9h10.38a8.12 8.12 0 0 1-.39 1.9ZM18.3 21H37.7c-.23-.57-.51-1.1-.84-1.62H19.21v-.12c-.36.55-.67 1.13-.92 1.74Zm1.1-2h17.23a10.56 10.56 0 0 0-1.82-2H21.2c-.69.59-1.3 1.26-1.82 2Zm12.64-3.7c.86.36 1.67.83 2.4 1.4H21.57c.73-.57 1.54-1.04 2.4-1.4h8.06ZM28 14.5c1.12 0 2.2.18 3.21.5H24.8c1.01-.32 2.09-.5 3.21-.5Zm10.41 11.88H17.59c.07.56.19 1.1.34 1.62h5.03v-1h11.48c.15.4.22.74.26 1h3.37c.15-.52.27-1.06.34-1.62Zm-.44 1.92H18.03c.28.85.67 1.66 1.15 2.4h3.78v-1.9h11.77a4.71 4.71 0 0 1-.48 1.9h2.57c.48-.74.87-1.55 1.15-2.4ZM36.62 31H19.38a10.56 10.56 0 0 0 2.74 2.7h11.76c1.07-.72 2-1.64 2.74-2.7Zm-13.66 2v-1.5h10.78A4.6 4.6 0 0 1 31.6 33h-8.64ZM28 35.5c-1.98 0-3.83-.55-5.41-1.5H33.4c-1.58.95-3.43 1.5-5.41 1.5Zm5.15-15.7c.14.35.21.75.22 1.2H22.96v-1.2h10.2Zm-.5-.8h-9.7v-1h6.74c1.38 0 2.37.35 2.97 1Z" fill="#A88634"/></svg>