<svg width="56" height="56" viewBox="0 0 56 56" xmlns="http://www.w3.org/2000/svg"><path fill="#F0F3FA" d="M0 0h56v56H0z"/><path fill-rule="evenodd" d="M27 11h-9v34h9v-6.06a8 8 0 0 1 0-15.88V11Zm2 34h1.08C33.05 45 39 42.44 39 32.14c0-4.43-2.13-7.71-3.2-8.8a7.62 7.62 0 0 0 2.5-5.65c0-3.65-2.55-6.69-6.45-6.69H29v12.06A8 8 0 0 1 35.94 30h-4.22c-.48-1.33-1.65-3.18-4.12-5-1.54 1.09-4.6 3.9-4.6 6.51v.16c0 2.4 2.01 4.33 4.5 4.33 2 0 3.7-1.26 4.28-3h3.97A8 8 0 0 1 29 38.94V45Zm-2-18.5h.5v9H27v-9Zm-1 .5h.5v8.21H26V27Zm3.5 1H29v7h.5v-7Zm-4 1H25v5.5h.5V29Zm-1 2H24v2h.5v-2Zm5.5-2h.5v5H30v-5Zm-1.5-2H28v8.5h.5V27Z" fill="#F3262B"/></svg>