<svg width="56" height="56" viewBox="0 0 56 56" xmlns="http://www.w3.org/2000/svg"><path fill="#F0F3FA" d="M0 0h56v56H0z"/><path d="M32.67 12.94c.04.06.1.08.17.08.22-.02.46-.05.7-.1.97-.22 2.07-.1 3.32.32 1.1.38 2 .97 2.67 1.79a4 4 0 0 1 .95 2.95c0 .08.02.12.1.15 1.43.5 2.54 1.2 3.32 2.12a4.34 4.34 0 0 1 1.04 3.64c-.13.85-.4 1.58-.83 2.17a5.23 5.23 0 0 1-2.41 1.82 8.3 8.3 0 0 1-3.08.54c-.21 0-.22-.03 0-.09l.46-.12c1-.25 1.87-.63 2.6-1.14a4.8 4.8 0 0 0 1.76-2.11 4.17 4.17 0 0 0-.08-3.6A4.63 4.63 0 0 0 40.6 19c-.1-.03-.17 0-.22.08a5.7 5.7 0 0 1-1.15 1.48c-.19.17-.23.14-.12-.08a4.2 4.2 0 0 0-.04-4.17 5.2 5.2 0 0 0-2.52-2.1 6.15 6.15 0 0 0-3.3-.55c-.7.08-1.35.24-1.94.47l-1.14.43c-.3.1-.32.06-.06-.13.44-.32.96-.66 1.55-1.03.1-.06.1-.13.02-.2a4.66 4.66 0 0 0-1.94-1.16c-.63-.2-1.4-.28-2.28-.26a4.94 4.94 0 0 0-3.2 1.3.19.19 0 0 0-.06.19.2.2 0 0 0 .12.15c.59.27 1.06.57 1.43.9.31.28.28.32-.08.12-.55-.29-1.1-.5-1.65-.63a6.44 6.44 0 0 0-7.55 3.46c-.39.94-.39 1.78 0 2.5.24.45.4.77.45.95l-.01.04h-.04c-.56-.52-1-1.14-1.31-1.86-.05-.1-.12-.14-.23-.1-.6.2-1.19.63-1.75 1.29-.48.58-.85 1.2-1.1 1.87-.38 1-.35 2 .1 3.02a5.02 5.02 0 0 0 2.02 2.31 6.29 6.29 0 0 0 2.9 1.1c.1.03.1.06 0 .08-.1.03-.23.04-.39.04-.91 0-1.9-.23-2.96-.67a5.86 5.86 0 0 1-1.85-1.24 4.3 4.3 0 0 1-1.3-2.4v-1.53a6.06 6.06 0 0 1 3.37-4.52c.11-.06.27-.12.49-.18l.37-.13c.06-.03.1-.07.11-.14l.08-.35c.13-.55.25-.94.36-1.17a6.27 6.27 0 0 1 5.81-3.49c.83.03 1.4.06 1.67.1.07 0 .13-.02.18-.06l.49-.44c2.16-1.94 6.98-1.67 8.74.65Z" fill="#ABCD46"/><path d="M21.67 15.7a.08.08 0 0 0-.1-.02.08.08 0 0 0-.04.08l.02.76c0 .08-.03.12-.1.12h-.12c-.07 0-.1-.03-.1-.1l-.06-1.3c0-.11.05-.2.14-.28.1-.07.2-.09.32-.05a2 2 0 0 1 .94.65c.04.06.06.12.05.19l-.11.54a.3.3 0 0 1-.28.26l-.21.03c-.17 0-.23-.09-.2-.24.08-.3.03-.5-.15-.65ZM20.68 15h-.08a.12.12 0 0 0-.12.14l.1 1.42c0 .07.06.12.13.12h.08c.07-.01.12-.07.12-.14l-.1-1.42a.13.13 0 0 0-.13-.12ZM20.13 15.53h-.15a.05.05 0 0 0-.05.06l.05 1.21c0 .03.03.05.05.05h.16c.03 0 .05-.03.05-.06l-.05-1.21a.05.05 0 0 0-.06-.05Z" fill="#ABCD46"/><path fill-rule="evenodd" d="m35.91 22.5-.14-3.8c0-.25.1-.3.3-.16.64.44 1.13.4 1.46-.13l.61-1c.18-.32.1-.55-.23-.7-.6-.27-1.21-.56-1.87-.88a3.53 3.53 0 0 0-2.82-.15c-.34.12-.63.14-.89.07a5.8 5.8 0 0 0-1.73-.21c-.4.01-.8.12-1.2.34l-2.04 1.08a.29.29 0 0 0-.16.2.28.28 0 0 0 .04.23l.79 1.16c.1.16.25.28.44.36.13.06.3.04.51-.04l.72-.3c.08-.04.13-.01.13.08l.14 3.94c.01.24.14.39.39.44.16.03.37.04.65.04l4.37-.04c.15 0 .28-.05.38-.16a.5.5 0 0 0 .15-.38Zm-.84-4.86c0-.08.04-.1.12-.07l1.44.64c.16.07.27.04.33-.09l.47-.9c.04-.06.02-.12-.05-.15l-.41-.2c-.72-.37-1.25-.6-1.6-.71a2.6 2.6 0 0 0-1.53-.07c-.63.2-1.19.25-1.66.16a10.5 10.5 0 0 0-1.52-.19c-.28 0-.64.11-1.1.36l-1.52.8c-.11.06-.13.14-.06.24l.62.82c.09.12.2.14.32.07l1.26-.72c.05-.03.1-.03.16 0s.08.08.09.14l.16 4.53c0 .18.1.27.28.26l4.3-.15c.05 0 .07-.03.07-.07l-.17-4.7Z" fill="#ABCD46"/><path d="M19.33 16.95c-.04 0-.06-.01-.06-.05v-.38c0-.25.05-.37.15-.37h.08c.1 0 .14.13.14.37v.38c0 .04-.03.06-.06.06h-.25ZM18.84 17.03c.1.02.2-.01.22-.07.02-.07-.06-.14-.17-.17-.1-.02-.2 0-.22.07-.02.07.06.14.17.17ZM22.23 16.8l-3.97.6a.05.05 0 0 0-.04.06l.02.12c0 .03.03.05.06.04l3.97-.6c.03 0 .05-.03.04-.05l-.01-.12a.05.05 0 0 0-.07-.04ZM19.04 18.17c.08.03.3.05.65.06.07 0 .1.04.12.11.05.33-.1.6-.48.77a.18.18 0 0 1-.2-.02l-.83-.65a.3.3 0 0 1-.12-.33.3.3 0 0 1 .27-.23l3.24-.5c.03 0 .05.01.05.04l.01.08c.01.06-.01.09-.07.1l-2.62.41c-.23.04-.23.1-.02.16Z" fill="#ABCD46"/><path d="M25.91 19.87a1.2 1.2 0 0 1-.49.65l-.6.43-2.3 1.98a.31.31 0 0 0-.11.25c-.12.02-.26.07-.41.16a3.5 3.5 0 0 0-1.3-2l.4-.33c.24-.03.39-.13.44-.31.27.03.42-.05.47-.24.18.05.3.02.36-.1.05-.08.04-.17-.03-.29-.1-.16-.23-.3-.4-.4-.06-.03-.1-.15-.1-.36l4.26-1.78c.49-.21.83-.08 1.03.37l.04.1c.21.49.1.85-.36 1.07-.49.25-.79.51-.9.8Z" fill="#88A533"/><path d="M20.89 18.28c.12 0 .2-.07.2-.15 0-.07-.1-.13-.21-.13-.12 0-.22.07-.21.15 0 .08.1.14.22.13ZM20.3 18.16l-.06-.01a.15.15 0 0 0-.17.14l-.04.46c0 .08.05.16.14.16l.06.01c.09 0 .16-.05.17-.13l.04-.47a.15.15 0 0 0-.14-.16Z" fill="#ABCD46"/><path d="M21.84 19.31c0 .2.04.33.1.36.17.1.3.24.4.4.07.12.08.21.03.3-.06.1-.18.14-.36.1-.28-.25-.52-.29-.73-.1-.05.04-.06.09-.03.15.06.09.15.15.3.18-.06.18-.2.28-.44.31-.03-.2-.08-.4-.15-.6-.07-.2-.03-.44.12-.72.03-.06.08-.1.14-.12l.62-.26Z" fill="#4D5F13"/><path d="M22.4 23.18c0-.1.04-.18.13-.25l2.28-1.98.61-.43c.26-.18.42-.4.5-.65.25-.06.46-.06.63 0 .07.01.12.06.14.12.1.36.36.57.75.64.06 0 .1.04.11.1.02.05 0 .1-.04.14-.3.28-.66.55-1.05.8-.15.1-.36.3-.63.6-.24.27-.42.46-.56.55-.35.26-.96.5-1.82.72a.83.83 0 0 1-.56-.02c-.18-.08-.34-.2-.48-.34ZM15.84 23.78l2.18.35c.1.02.14.08.12.18l-.05.23c-.01.08-.06.11-.14.1-.7-.13-1.44-.21-2.21-.25-.02 0-.04 0-.05.02l-.03.07c-.02.03-.01.04.02.05l2.28.31c.18.03.25.13.22.3l-.04.19c-.03.14-.11.2-.26.17a13.2 13.2 0 0 0-2.33-.25l-.03.05c-.01.02 0 .04.03.04l2.4.37c.2.04.28.15.24.35l-.05.24c-.03.14-.11.2-.26.17l-3.12-.61c-.25-.05-.32-.18-.2-.4l1.66-3.18c.03-.06.08-.08.15-.07l.31.06c.08.02.13-.01.15-.1l.04-.2c.01-.07.06-.11.15-.11.32 0 .56.05.7.13.24.13.22.22-.04.26-.06 0-.23.02-.5.02a.34.34 0 0 0-.19.06.75.75 0 0 1-.59.14c-.05-.02-.08 0-.1.05-.02.04-.01.06 0 .08.02.03.04.04.05.04.58 0 1.13.1 1.66.28.09.03.12.1.1.2l-.03.14c0 .05-.04.07-.09.06a6.7 6.7 0 0 0-1.9-.23.06.06 0 0 0-.05.03l-.03.06v.02c.69.04 1.35.17 2 .39.1.04.14.1.12.21l-.02.09c-.01.06-.05.08-.1.06a6.7 6.7 0 0 0-2.17-.22c-.15.01-.15.03 0 .05Z" fill="#ABCD46"/><path fill-rule="evenodd" d="M22 23.34a3.5 3.5 0 0 0-1.3-2l-.54.17a.18.18 0 0 0-.13.13c-.06.19-.08.37-.07.53.06.56.36 1.02.9 1.38.45.3.83.24 1.14-.2Zm-1.47-.76c.03 0 .1.05.18.13.13.12.18.3.14.56-.01.1.02.12.11.07.33-.2.39-.49.19-.84a.7.7 0 0 0-.32-.3.4.4 0 0 0-.38.01c-.36.2-.34.33.08.37Z" fill="#4D5F13"/><path d="M17.67 22.67c.21.02.4-.01.4-.07 0-.07-.16-.14-.37-.16-.21-.02-.4 0-.4.07 0 .06.16.13.37.16Z" fill="#ABCD46"/><path fill-rule="evenodd" d="M41.16 25.72a1.8 1.8 0 0 0 .04-2.85c-.46-.4-1.01-.6-1.66-.61-.65-.01-1.21.18-1.68.57a1.8 1.8 0 0 0-.03 2.85c.45.4 1 .6 1.66.6.65.01 1.2-.18 1.67-.56Zm-2.5-1.07c.24.02.46-.14.47-.35.02-.21-.16-.4-.4-.42-.25-.02-.46.13-.48.35-.02.2.17.4.4.42Zm1.59-.01c.23-.04.39-.25.35-.45-.04-.21-.26-.35-.5-.3-.23.04-.38.24-.34.45.04.2.26.34.49.3Z" fill="#ABCD46"/><path d="M30.72 26.93a5.72 5.72 0 0 1 3.57-.1c.54.12.98.39 1.34.78.25.26.35.58.3.96a2 2 0 0 1-.4.95c-.15.2-.2.17-.16-.07.08-.42-.05-.8-.4-1.16a2.44 2.44 0 0 0-2.24-.72c-.68.11-1.31.27-1.88.5-.77.3-1.26.64-1.49 1.03a.3.3 0 0 0-.04.18 7.35 7.35 0 0 1-.18 2.73c-.02.06-.07.08-.13.06a1.63 1.63 0 0 0-.9-.1c-.06 0-.1 0-.13-.04a.13.13 0 0 1-.05-.12l.15-1.7c.02-.28 0-.5-.07-.64a1.32 1.32 0 0 0-.44-.5 5.2 5.2 0 0 0-5.04-.72c-.72.25-1.09.72-1.1 1.43 0 .08-.05.11-.12.1-.13 0-.23-.09-.3-.25-.34-.67-.28-1.26.17-1.77a4.6 4.6 0 0 1 1.81-1.28c.24-.1.62-.12 1.14-.09.58.03 1.15.02 1.7-.03.26-.03.27-.1.03-.21a3.1 3.1 0 0 0-1.1-.26 13.11 13.11 0 0 0-1.62.04c-.16 0-.2-.07-.1-.23a.15.15 0 0 1 .05-.06c.54-.32 1.2-.47 1.95-.47.65.01 1.32.14 2 .38.58.2 1.05.56 1.43 1.07.03.04.06.04.09 0 .37-.5.81-.86 1.33-1.1 1.27-.6 2.33-.8 3.18-.6.32.07.32.14 0 .21-.12.03-.38.06-.79.07-.37.02-.68.18-.9.46l-.84 1.05c-.23.3-.17.37.18.22ZM16.26 26.67c.51.05.93.01.94-.08.01-.1-.4-.21-.9-.26-.51-.05-.93-.01-.94.08-.01.1.4.2.9.26Z" fill="#ABCD46"/><path fill-rule="evenodd" d="M29.3 33.25c.03 0 .04-.02.03-.07l-.24-.6a.22.22 0 0 0-.13-.13.95.95 0 0 0-.9.08.25.25 0 0 0-.12.15c-.06.2-.08.48-.06.82.09 1.22.16 2.76.21 4.61l.04.5.17 4c.05.13.22.22.49.27.07.02.1-.01.1-.09l.01-.27.18-4.48c-.03-.25-.01-.41.03-.5l.2-4.29Zm-1-.2.24.77c.01.05.04.07.09.07.04 0 .08-.02.1-.06l.2-.58a.1.1 0 0 0-.02-.1l-.37-.44a.09.09 0 0 0-.09-.04.1.1 0 0 0-.07.07l-.09.24v.06Z" fill="#5E462C"/><path d="M29.08 38.04c-.03-.25-.02-.41.03-.5l.62-.28c.2-.1.49-.3.86-.6l.36-.27c.28-.2.47-.39.56-.58.34-.66.15-1.22-.56-1.69-.5-.33-1.05-.62-1.65-.87.03 0 .03-.02.03-.07.79.15 1.5.47 2.16.95.57.43.73.99.47 1.68-.1.3-.28.54-.5.76a7.44 7.44 0 0 1-2.38 1.47ZM28.1 38.11l.03.5c-.36.3-.73.6-1.12.88-.5.37-.81.66-.92.89-.25.5-.07.97.53 1.41a5.2 5.2 0 0 0 1.68.82c.05.13.22.22.49.27.07.02.1-.01.1-.09l.01-.27c-.02.17 0 .33.05.47.02.06.06.1.13.13a98.6 98.6 0 0 0 1.69.7l.01.05c.01.03 0 .04-.03.03-.51-.11-1.02-.26-1.52-.44-.15-.05-.25-.06-.32-.01-.08.06-.12.18-.11.37.03-.34-.12-.52-.46-.55-.52-.3-1.08-.58-1.68-.85a3.1 3.1 0 0 1-.92-.77c-.67-.76-.47-1.55.59-2.37.27-.21.86-.6 1.76-1.17Z" fill="#ABCD46"/><path d="m28.8 43.82-.07 2.1c0 .06-.02.08-.08.08-.03 0-.05-.02-.06-.04a5.88 5.88 0 0 1-.25-2.7c.34.04.5.22.46.56Z" fill="#5E462C"/></svg>