<svg width="56" height="56" viewBox="0 0 56 56" xmlns="http://www.w3.org/2000/svg"><path fill="#F0F3FA" d="M0 0h56v56H0z"/><path d="M8 20H6v14h2V20Zm10 .03h-2V33.9h2V20.03ZM35 25h2v9h-2v-9Zm14 0h-2v9h2v-9Zm-37.78 0c-.98 0-1.89.6-2.22.9.6.03 1.9.15 2.22.37.4.28.78.67.78 3.14s-.26 2.97-.84 3.33c-.48.29-1.64.37-2.16.37.34.3 1.27.89 2.22.89 1.2 0 2.78-1.02 2.78-4.6 0-3.56-1.56-4.4-2.78-4.4Zm7.78.92c.31-.3 1.27-.92 2.61-.92C23.3 25 24 26.45 24 28.24V34h-2v-5.76c.01-.38.02-1.25-.3-1.6l-.02-.03c-.38-.43-.6-.69-2.68-.69Zm8 0c.37-.3 1.53-.92 3.14-.92 2 0 2.86 1.45 2.86 3.24V34h-2v-5.76c.01-.38-.18-1.4-.56-1.75-.47-.44-.9-.57-3.44-.57Zm3.53 7.36c-.16.24-.84.72-2.28.72-1.81 0-2.25-1.85-2.25-2.78 0-.93.91-2.22 2.48-2.22 1.25 0 1.89.53 2.05.8-.8-.24-2.53-.23-2.53 1.64 0 2.02 1.3 1.92 2.16 1.86l.37-.02ZM40 25v2h-2.5c.23-.64 1.06-1.92 2.5-2Zm3 1v5.7c-.02.43.36 1.3 1.4 1.3h1.22c-.14.34-.8 1-2.32 1-1.9 0-2.3-1.47-2.3-2.74v-7.17L42.87 23H43v2h2v1h-2Zm4-3.5V20h2l-2 2.5Z" fill="#2F97DA"/><path d="M51 21.5h-3.25L51 25v-3.5Z" fill="#FAB41D"/></svg>