<svg width="56" height="56" viewBox="0 0 56 56" xmlns="http://www.w3.org/2000/svg"><path fill="#F0F3FA" d="M0 0h56v56H0z"/><circle cx="28" cy="28" r="16" fill="#F6C43D"/><path d="M12 21.23v12.53c.44.08 1.8.24 3.63.24 2.3 0 5.37-.52 5.37-3.76 0-2.06-1.8-3.04-2.69-3.27.62-.22 1.69-1.13 1.69-2.93 0-2.26-2.34-3.04-5.17-3.04-1.12 0-2.36.16-2.83.23ZM14.5 26v-3h1.25c.97 0 1.75.67 1.75 1.5s-.78 1.5-1.75 1.5H14.5Zm0 6v-4h1.46c1.12 0 2.04.9 2.04 2s-.92 2-2.04 2H14.5Zm8.15-11H20l3.08 13h2.32l2.22-8.78L29.6 34h2.46L35 21h-2.18l-1.85 9.9-2.32-9.9h-2.18l-2.11 9.9-1.7-9.9ZM35.5 34V21.35a19.9 19.9 0 0 1 3.4-.35c1.64 0 5.1.5 5.1 3.94 0 2-1.45 3.23-2.18 3.59L45 34h-2.83l-3.48-6c.85-.23 2.81-1.13 2.81-2.8 0-2.1-2.18-2.2-3.5-2.2v11h-2.5Z" fill="#086A99"/></svg>