<svg width="56" height="56" xmlns="http://www.w3.org/2000/svg"><path fill="#29417C" d="M0 0h56v56H0z"/><path d="M14.117 16C13.5 16 13 16.502 13 17.104v21.792c0 .602.5 1.104 1.117 1.104h27.766C42.5 40 43 39.498 43 38.896V17.104c0-.602-.5-1.104-1.117-1.104H14.116zM12 17.104c0-1.162.955-2.104 2.117-2.104h27.766c1.162 0 2.117.942 2.117 2.104v21.792A2.115 2.115 0 0141.883 41H14.116A2.115 2.115 0 0112 38.896V17.104z" fill="#fff"/><path d="M43.468 20.95v17.957c0 .883-.726 1.607-1.613 1.607H14.143a1.615 1.615 0 01-1.613-1.607V20.95h30.939z" fill="#fff"/><path d="M17.427 27.004L23.218 27c.368.047.568.435.462.77l-.89 2.832c-.076.147-.246.255-.457.346.197.2.206.435.107.692l-1.026 2.787c-.068.239-.4.6-.717.573h-5.811c-.08-.055-.069-.282.04-.55.852-2.73 1.699-5.396 2.501-7.446zm1 4.472l-.805 2.44c.019.074.148.087.389.084.311 0 .516-.027.657-.446l.564-1.56c.074-.401-.04-.554-.36-.538l-.445.02zM19.555 28l-.805 2.485c.019.075.148.11.389.107.289.076.516-.05.657-.468l.564-1.562c.074-.4-.04-.579-.36-.562h-.445zm8.279-5.964L24.49 27h.43l-2.417 8h1.533l-1.422 4.715L25.817 35h-.439l1.19-3.5h.984l-1.04 3.5h1.38l-1.459 4.919L29.93 35h-.483l2.544-8h-1.633l1.41-4.86-.082.012-3.131 4.554-.156.294h.474l-1.081 3.5h-.936L27.88 27h-1.53l1.483-4.964zM33.08 27h4.446c-.025.316-.104.603-.237.796l-1.544.04-.86 2.664h1.47c-.011.324-.093.732-.224 1h-1.549L33.7 34h1.527c.02.3-.095.722-.248 1h-4.313c-.13-.015-.198-.168-.136-.398.817-2.58 1.644-5.163 2.55-7.602zm5.167 0h2.917l-2.147 7.004L40.486 34c.014.35-.088.74-.278 1h-4.421l-.025-.487L38.248 27z" fill="#29417C"/><path fill-rule="evenodd" d="M15.099 16.973h3.07l.16-.541c.07-.153.212-.243.428-.27l1.18.02c.185.003.29.209.248.359l-.123.432h.733l-.09.386h-.752l-.94 3.32-.72-.02.943-3.3h-.463l-.958 3.3-.731-.013.17-.575h-1.23c-.225 0-.367-.242-.28-.528l.473-1.56c.07-.23.315-.28.644-.286l1.075-.022h.037l.082-.316H15l.099-.386zm6.614.248l-.439 1.533c-.064.225-.068.425.035.606l.73 1.28.803.001L22 19.203c-.062-.106-.083-.167-.028-.37l.446-1.663-.05.19h.841l.01-.038-.382 1.37c-.022.08-.049.139-.15.154l-.2.002-.14.39.688.012c.237.004.424-.142.494-.397l.41-1.494h2.695l-.648 2.29-.72-.003c-.185-.001-.133-.188-.112-.253l.442-1.358.315.002.127-.382-1.678-.02-.114.388.546.005-.412 1.44c-.079.275.004.564.272.567l1.204.016.026-.037-.177.627.715.023.99-3.394-.027.09h.628l.09-.387h-6.744l-.097.386h.414l.04-.139zm17.008 3.427l.731-2.508c-.022-.048-.054-.102-.102-.102h-.189c-.118 0-.194.03-.21.097l-.27 1.1h-.703l.254-.961c.018-.069.073-.217-.045-.223l-.254-.012c-.095-.005-.134.044-.146.087l-.702 2.52-.733.009.75-2.63c.062-.215.239-.367.43-.367h.977c.163.006.225.091.24.212.092-.136.193-.242.329-.234h.296c.093 0 .174.016.212.047l.173-.595-.079.271h-2.895l-.41 1.494c-.07.255-.256.4-.494.397l-.688-.012.14-.39.2-.002c.102-.015.128-.075.15-.153l.383-1.372-.01.038h-.843l.051-.189-.446 1.663c-.054.203-.034.264.028.37l.844 1.438h-.804l-.73-1.281c-.103-.18-.099-.38-.035-.606l.439-1.534-.04.14h-.472l.096-.387H41l-.105.386h-.497l.065-.225-1.016 3.527-.726-.014zm-9.383.103l.203-.599c-.238-.303-.153-.647.247-.716.422-.073.53.055.559.204l.263.008c.062.002.107-.053.13-.127l.076-.361c.018-.09.027-.168-.063-.169l-.731-.011c-.222-.004-.29-.157-.248-.34l.147-.637a.447.447 0 01.459-.34l.784.009c.113 0 .113-.083.135-.162l.043-.15H28.56l.097-.387h2.793l.134-.479c.047-.165.18-.346.424-.344l1.231.012c.265.085.264.298.143.584l-.71.017.061-.226-.383-.007-.13.443h1.368l-.091.386h-1.389l-.199.683-1.132-.015c-.1 0-.173.031-.19.1l-.074.306c-.022.088-.01.159.069.159h.809c.167 0 .253.27.185.505l-.172.59c-.06.21-.27.405-.488.399l-.67-.02-.184.69-.724-.005zm-10.453-3.778l.107-.368c.015-.064.027-.078.11-.075l.314.009c.044.006.045.041.034.07l-.154.54.05-.176h-.46zm-1.802 2.691h-.445c-.13 0-.184-.053-.138-.224l.232-.854-.076-.233.427 1.311zm.141-1.586l.587-.012-.253.888-.334-.876z" fill="#fff"/></svg>