<svg xmlns="http://www.w3.org/2000/svg" width="56" height="56" viewBox="0 0 56 56"><path fill="#F0F3FA" d="M0 0h56v56H0z"/><path d="M31 7v37h-1V8.98l-6 4.42V44h-1V12.9L31 7Z" fill="#7698B9"/><path d="M26 22v21.92h-1V24.04l-7 5.41V44h-5v-1h4V28.96L26 22Z" fill="#707793"/><path d="M33 12.12V44h-1V14.19l-10 7.86V44h-1V21.57l12-9.45Z" fill="#707793"/><path d="M31 28.45v15.2h-1v-13.1l-7 5.63v7.47h-1V35.7l9-7.25Z" fill="#676F8D"/><path d="m31 25.62 7 5.71V43h5v1h-6V31.8l-5-4.07V44h-1V25.62Z" fill="#8F8DA6"/><path d="M33 44H21v-1h12v1Z" fill="#4F5472"/></svg>