<svg width="56" height="56" viewBox="0 0 56 56" xmlns="http://www.w3.org/2000/svg"><path fill="#F0F3FA" d="M0 0h56v56H0z"/><path d="M28 15h.01c.4.49.65.79.76.9 1.83 1.98 4.39 3.26 6.98 4.03 1.07.31 2.14.55 3.2.71l1.24.19c.83.12 1.69.27 2.57.46.89.2 1.73.42 2.55.68.68.22 1.32.47 1.9.76.9.42 1.72.94 2.38 1.62a4.82 4.82 0 0 1 1.41 3.2v.95l-.06.5a4.9 4.9 0 0 1-1.26 2.56 8.3 8.3 0 0 1-2.8 1.9c-.64.27-1.3.51-1.99.72-1.55.46-3.17.79-4.74 1.01l-1.17.18a20.1 20.1 0 0 0-8.13 2.97c-.73.49-1.37 1.02-1.93 1.6-.32.34-.6.7-.9 1.06H28a.02.02 0 0 1-.02 0c-.37-.47-.74-.92-1.16-1.33-.72-.69-1.56-1.3-2.5-1.86a19.1 19.1 0 0 0-4.81-1.93 25.6 25.6 0 0 0-2.93-.58c-1.58-.22-3.15-.5-4.67-.9a18.21 18.21 0 0 1-3.18-1.14 8.15 8.15 0 0 1-2.31-1.59A4.83 4.83 0 0 1 5 28.16v-.33l.04-.47A4.94 4.94 0 0 1 6.79 24c.63-.56 1.4-1 2.17-1.35.61-.28 1.26-.53 1.96-.75a37.12 37.12 0 0 1 6.06-1.25c1.53-.22 3-.6 4.43-1.1 1.25-.45 2.4-1 3.44-1.67a12.87 12.87 0 0 0 2.54-2.14L28 15Z" fill="#CC9F36"/><path d="M5.7 27.46c.1-1.1.56-2.02 1.35-2.78a8.15 8.15 0 0 1 2.38-1.5c1.31-.58 2.7-.97 4.12-1.26.92-.2 1.81-.35 2.68-.47.6-.09 1.13-.17 1.6-.26 1.34-.24 2.61-.58 3.84-1.01 1.5-.54 2.96-1.27 4.25-2.2a11.24 11.24 0 0 0 2.1-1.9 13.3 13.3 0 0 0 4.05 3.1c1.28.66 2.67 1.2 4.17 1.58 1.03.27 2.07.48 3.12.62 1.73.24 3.42.55 5.08 1.03.73.2 1.4.45 2.03.72 1.1.47 2.2 1.12 2.95 2.07.76.96 1.01 2.18.89 3.39a4.34 4.34 0 0 1-1.53 2.9 8.5 8.5 0 0 1-2.16 1.34c-.59.26-1.2.48-1.83.67-1.74.53-3.54.87-5.36 1.12-2.8.39-5.6 1.18-8.06 2.59-.87.5-1.66 1.07-2.38 1.73a10.02 10.02 0 0 0-1 1c-.7-.83-1.55-1.56-2.46-2.17a18.9 18.9 0 0 0-5.72-2.51c-.99-.26-1.96-.46-2.92-.6-.76-.1-1.41-.2-1.96-.3-.99-.17-1.96-.37-2.9-.62a14.97 14.97 0 0 1-3.64-1.43 5.74 5.74 0 0 1-2.08-1.9 4.75 4.75 0 0 1-.6-2.95Z" fill="#E32726"/><path d="M20.67 25c.34 0 .55.19.55.5a19925.82 19925.82 0 0 1-.02 5.5h-.68a.66.66 0 0 1-.24-.05c-.24-.1-.28-.32-.28-.54A4857.34 4857.34 0 0 0 20 25h.67ZM24.22 28.01c0 .02 0 .03.02 0 .76-.91 1.47-1.8 2.15-2.62.1-.12.2-.2.27-.26.14-.09.3-.13.48-.13h1.06v.01l-2.58 3.08v.02L28.46 31V31h-1.1a1 1 0 0 1-.81-.32 2599.5 2599.5 0 0 0-2.33-2.38v2.06c0 .26-.03.49-.29.6-.09.03-.23.04-.44.04a10.63 10.63 0 0 0-.49-.02v-5.97l.01-.01a144.93 144.93 0 0 1 .84.02c.2.04.32.19.36.38V28ZM36.55 30c.91.26 1.45-.4 1.45-1.22v-3.27c0-.3.2-.5.55-.5l.67-.01h.01v3.98a2.04 2.04 0 0 1-1.72 2.05c-.2.04-.42.06-.64.06a2.2 2.2 0 0 1-2.07-1.24c.29-.13.5-.22.65-.27.32-.12.52 0 .73.2.12.1.24.18.37.21ZM41.45 25c.37 0 .55.2.55.54V31h-.68c-.38 0-.53-.22-.53-.56A4674 4674 0 0 1 40.8 25h.65Z" fill="#fff"/><path fill-rule="evenodd" d="m31.68 25.02-3.22 5.97h.9c.28 0 .5-.12.63-.38l.32-.61h2.88l.1.18.17.31c.08.17.16.28.23.35.12.1.26.15.42.15a26.6 26.6 0 0 0 .93 0A28931.87 28931.87 0 0 1 31.79 25h-.09l-.02.02Zm.06 2.17-.88 1.8h.01l1.76.01h.01v-.01l-.87-1.8h-.02ZM17.73 27.87c.23.02.45.09.64.22.6.4.71 1.02.58 1.65-.08.4-.32.74-.7.95-.44.23-.91.31-1.4.31H14v-6h2.9c.21 0 .44.03.69.1.62.15 1 .53 1.1 1.12.04.18.05.37.04.55-.04.53-.4 1.04-1 1.1Zm-.24-1.27c.03.35-.11.66-.5.77-.12.03-.24.04-.37.04a347.22 347.22 0 0 1-1.38 0V26l.02-.01h1.42c.42 0 .78.16.81.6Zm-.18 3.3c.39-.15.5-.5.43-.86-.06-.3-.3-.48-.62-.54-.1-.02-.2-.04-.29-.04a153.08 153.08 0 0 0-1.58.01V30h1.5c.21 0 .38-.04.56-.1Z" fill="#fff"/></svg>