<svg width="56" height="56" viewBox="0 0 56 56" xmlns="http://www.w3.org/2000/svg"><path fill="url(#av3amsalv)" d="M0 0h56v56H0z"/><path d="M7 25h3c1 0 2 .66 2 1.5 0 .65-.24 1.13-.59 1.46.44.39.59.97.59 1.54 0 1.05-1.6 1.5-2.5 1.5-1.7 0-2.5-.74-2.5-1.5V25Zm2.5 3.5v-1c.17 0 .94-.06 1.15-.2.18-.14.35-.36.35-.8 0-.3-.5-.5-1-.5H8v3.5-.01s.1.51 1.5.51c.3 0 1.5-.08 1.5-.5s-.1-.65-.23-.77c-.12-.12-.85-.23-1.27-.23ZM14 26c0-.8-.67-1-1-1v6h1v-2h3v2h1v-6h-1v3h-3v-2ZM19 25h3c.3 0 .75.06 1.15.25.42.2.85.59.85 1.25V31h-1v-2h-3v2h-1v-6Zm1 3h3v-1.5c0-.14-.07-.25-.28-.35-.22-.1-.52-.15-.72-.15h-2v2ZM44 25h3c.3 0 .75.06 1.15.25.42.2.85.59.85 1.25V31h-1v-2h-3v2h-1v-6Zm1 3h3v-1.5c0-.14-.07-.25-.28-.35-.22-.1-.52-.15-.72-.15h-2v2ZM26 31v-2h1.71l1.14 2H30l-1.2-2.1c.43-.13.74-.38.94-.7.26-.44.26-.93.26-1.18V27c0-.78-.72-2-2.5-2-.66 0-1.28.14-1.74.47A1.8 1.8 0 0 0 25 27v4h1Zm0-4c0-.35.13-.57.34-.72.24-.17.62-.28 1.16-.28 1.22 0 1.5.78 1.5 1 0 .27-.01.5-.12.68-.07.12-.25.32-.88.32h-2v-1ZM35 26v-1h-5c0 .4.67.83 1 1h1v5h1v-5h2ZM36 25h1v6h-1zM38 25l2 3.63V31h1v-2.37L43 25h-1.14l-1.36 2.47L39.14 25H38Z" fill="#FEFEFE"/><defs><linearGradient id="av3amsalv" x1="10.42" y1="9.71" x2="68.15" y2="76.02" gradientUnits="userSpaceOnUse"><stop stop-color="#1A1E21"/><stop offset="1" stop-color="#06060A"/></linearGradient></defs></svg>