<svg width="56" height="56" xmlns="http://www.w3.org/2000/svg"><path fill="#003E76" d="M0 0h56v56H0z"/><path d="M33.609 10.212c-.458-.225-.984-.238-1.48-.176-.82.142-1.546.728-1.885 1.492a2.543 2.543 0 00-.17 1.556c.16.847.775 1.598 1.58 1.903 1.329.409 2.533 1.372 3.07 2.683.37.902.363 1.976-.108 2.84-.437.807-1.208 1.388-2.048 1.722-.685.288-1.442.342-2.176.335-.994-.171-2.064.303-2.598 1.165-.356.534-.467 1.208-.37 1.838a2.54 2.54 0 001.269 1.795c.185.11.386.183.587.256.107.04.215.078.32.123a5.165 5.165 0 012.091 1.82l.002.003a.08.08 0 01.005.008c.651.998.828 2.354.273 3.435l-.003.005a.053.053 0 01-.004.007c-.365.715-1.016 1.235-1.708 1.608a.165.165 0 01-.014.006l-.09.045-.013.007c-.851.41-1.826.479-2.753.382-.948-.032-1.856.544-2.303 1.374-.342.623-.39 1.392-.166 2.062.266.79.95 1.408 1.744 1.628a2.8 2.8 0 001.322.018c.842-.211 1.536-.9 1.789-1.732a4.204 4.204 0 01.79-1.476c.597-.717 1.391-1.292 2.302-1.519.663-.153 1.35-.165 2.028-.13 1.316.01 2.495-1.198 2.47-2.521.047-.923-.472-1.833-1.258-2.297a3.736 3.736 0 00-.63-.271 9.693 9.693 0 01-.284-.106c-.798-.35-1.52-.896-2.03-1.61l-.011-.015c-.383-.562-.71-1.211-.702-1.909v-.119c-.004-.396-.008-.8.138-1.174.307-.894 1.027-1.588 1.845-2.022.795-.431 1.719-.566 2.612-.51 1.017.179 2.1-.351 2.613-1.247a2.552 2.552 0 00.294-1.791c-.157-.886-.805-1.667-1.65-1.967a5.33 5.33 0 01-1.353-.677c-.731-.54-1.28-1.315-1.596-2.168-.213-.56-.262-1.165-.258-1.76.003-.085.013-.169.022-.253.017-.148.034-.296.017-.445-.058-.944-.66-1.84-1.522-2.221zm-5.422 5.58a2.555 2.555 0 00-1.659 1.116c-.159.235-.255.499-.351.763a4.522 4.522 0 01-.244.583c-.716 1.444-2.255 2.429-3.857 2.47-.17.005-.34-.007-.51-.018-.314-.022-.628-.043-.937.032a2.59 2.59 0 00-1.813 1.518c-.186.417-.227.887-.182 1.338.108.971.814 1.854 1.743 2.15 1.176.384 2.219 1.22 2.785 2.335.325.643.51 1.387.37 2.107a3.411 3.411 0 01-1.23 2.059c-.87.705-2.005 1.05-3.116 1.024-.513-.063-1.054-.081-1.541.118a2.585 2.585 0 00-1.599 1.82c-.062.37-.06.752-.003 1.123a2.634 2.634 0 001.69 1.949 4.84 4.84 0 011.228.607c.798.547 1.373 1.378 1.704 2.283.194.651.288 1.343.204 2.022a2.59 2.59 0 00.659 1.96c.463.522 1.143.861 1.844.852.754.015 1.499-.341 1.986-.917a2.622 2.622 0 00.594-1.89 2.582 2.582 0 00-1.303-2.042c-.214-.12-.446-.2-.677-.282a11.801 11.801 0 01-.244-.087l-.003-.001-.009-.004c-1.11-.494-2.045-1.415-2.489-2.56-.253-.646-.322-1.377-.125-2.049.264-.94.955-1.72 1.805-2.174l.014-.007a4.529 4.529 0 01.582-.265l.006-.002.148-.052.015-.005a4.61 4.61 0 01.112-.033c.06-.018.119-.035.178-.056l.11-.033.182-.028c.417-.065.839-.13 1.262-.086.436.05.887.04 1.306-.103.746-.237 1.352-.848 1.624-1.583.164-.429.156-.901.112-1.351-.155-.91-.855-1.684-1.718-1.975-.45-.134-.863-.367-1.246-.634-.824-.612-1.51-1.459-1.8-2.458a3.198 3.198 0 01.464-2.725c.545-.744 1.36-1.25 2.22-1.543l.107-.038a14.3 14.3 0 00.23-.038c.243-.043.487-.085.735-.088a5.74 5.74 0 01.694.004c.27.012.542.024.812-.008 1.224-.183 2.217-1.38 2.14-2.63.01-.626-.264-1.237-.688-1.687a2.628 2.628 0 00-2.321-.78z" fill="#fff"/></svg>