<svg width="56" height="56" viewBox="0 0 56 56" xmlns="http://www.w3.org/2000/svg"><path fill="#F0F3FA" d="M0 0h56v56H0z"/><path d="M17 42V41.16h8.98c3.19-2.33 9.57-7.52 9.62-9.7.06-2.73-.72-9.07-.93-9.46-.21-.4-6.71-8.9-1.11-8.9s9.94 2.54 9.94 7.63a6.01 6.01 0 0 1-4.61 6.06c2.04.63 6.11 3.01 6.11 7.55 0 5.91-5.07 7.57-7.6 7.66H17Z"/><path fill-rule="evenodd" d="M9 32v-9h8V13h16.68c2.04 0 8.68.76 8.68 6.55 0 4.63-3.05 6.5-4.58 6.85 1.95.4 5.84 2.33 5.84 6.81 0 7.42-6.97 8.53-10.45 8.29H17V32H9Zm15.5-18.5h-7v10h-8v8h8V41h7v-9.5h9v-8h-9v-10ZM15 26h1.3v3H15v-3Zm-4 .05h2.47c.52 0 .93.36.93.8 0 .23-.1.43-.29.58.33.14.55.43.55.76 0 .48-.45.86-1 .86H11v-3Zm1.23.59h.7c.2 0 .35.13.35.3 0 .16-.16.29-.35.29h-.7v-.6Zm0 1.14h.8c.22 0 .4.15.4.33 0 .19-.18.34-.4.34h-.8v-.67ZM27.27 26H26v3h1.27v-3ZM22 26h3.39v.66h-2.13v.66h1.8v.66h-1.8V29H22V26Zm6.74 3H32v-.66h-2V26h-1.26v3ZM19 29c1.1 0 2-.67 2-1.5s-.9-1.5-2-1.5-2 .67-2 1.5.9 1.5 2 1.5Zm0-.62c.48 0 .86-.4.86-.88a.87.87 0 0 0-.86-.88c-.48 0-.86.4-.86.88 0 .49.38.88.86.88Z" fill="#ED1C24"/></svg>