<svg xmlns="http://www.w3.org/2000/svg" width="56" height="56"><path fill="#F0F3FA" d="M0 0h56v56H0z"/><circle cx="17" cy="17" r="5" fill="#57A32F"/><path d="M33 17a5 5 0 10-5 5h5v-5z" fill="#1F9759"/><path d="M28 23a5 5 0 015 5v5h-5a5 5 0 01-5-5v-5h5z" fill="#008382"/><path d="M22 28a5 5 0 10-5 5h5v-5z" fill="#1F9759"/><path d="M44 17.02A5 5 0 0139 22l-5-5v5h10v-4.98zM22 39v-5h-5a5 5 0 10.07 10H22v-5z" fill="#008382"/><path d="M28 34a5 5 0 00-5 5v5h4.93a5.86 5.86 0 00.14 0H33V34h-5zm11.02-11H39a5 5 0 00-5 5v5h10V23h-4.98zM39 33z" fill="#0267A0"/><path fill="#044474" d="M34 34h10v10H34z"/></svg>