<svg xmlns="http://www.w3.org/2000/svg" width="56" height="56"><path d="M0 28a28 28 0 1156 0 28 28 0 01-56 0z" fill="#F0F3FA"/><path d="M37.53 38H44l-4.41-5.38-2.92 1.4c.73 1.39.88 3.2.86 3.98zm-19.06 0H12l4.43-5.38 2.9 1.4a9.2 9.2 0 00-.86 3.98z" fill="#F2DA52"/><path d="M44 38v-7.37l-4.43 2L44 38zm-32 0v-7.37l4.43 2L12 38z" fill="#EF6B2B"/><path d="M39.6 32.62l-4.78-5.96-1.86 3.18a11.4 11.4 0 013.71 4.18l2.93-1.4zm-23.17.01l4.75-5.97 1.85 3.15a11.39 11.39 0 00-3.7 4.2l-2.9-1.38z" fill="#EF6B2B"/><path d="M28 28.38V18l6.82 8.69-1.85 3.15A9.77 9.77 0 0028 28.38z" fill="#F2DA52"/><path d="M28 28.38V18l-6.82 8.68 1.85 3.15c1.38-1.1 3.93-1.45 4.97-1.45z" fill="#E32D22"/><path d="M28 18h12.25l-5.44 8.68L28 18zm0 0H15.75l5.43 8.7L28 18z" fill="#EF6B2B"/><path d="M40.22 18H44v12.63l-4.38 2.02-4.8-5.98 5.4-8.67zm-24.44 0H12v12.63l4.43 2 4.75-5.94-5.4-8.68zM28 28.36V38l5-8.22c-1.5-1.64-3.96-1.63-5-1.42z" fill="#A8191D"/><path d="M28 28.36V38l-4.98-8.21c1.5-1.65 3.94-1.64 4.98-1.43z" fill="#EF6B2B"/><path d="M33.02 29.75L28 38l8.68-4c-.4-2.13-2.62-3.73-3.66-4.25zM23 29.76L28 38l-8.67-4c.41-2.13 2.63-3.72 3.67-4.24z" fill="#E32D22"/><path d="M28 38h9.58a5.55 5.55 0 00-.81-4.05L28 38zm0 0h-9.53a5.51 5.51 0 01.81-4.03L28 38z" fill="#A8191D"/></svg>