<svg width="56" height="56" viewBox="0 0 56 56" xmlns="http://www.w3.org/2000/svg"><path fill="#F0F3FA" d="M0 0h56v56H0z"/><path fill-rule="evenodd" d="m31 16.36 1.38-5.15a.15.15 0 0 0-.02-.12.15.15 0 0 0-.12-.06l-2.5-.03a.15.15 0 0 0-.1.04.15.15 0 0 0-.05.1l-.55 4.9c0 .04 0 .08.03.11.02.03.06.05.1.06l1.66.26c.04 0 .07 0 .1-.02a.15.15 0 0 0 .06-.09Zm-6.76.22-1.8-5a.14.14 0 0 0-.1-.1.14.14 0 0 0-.12.03l-1.93 1.56a.14.14 0 0 0-.03.18l2.25 4.08c.02.03.04.05.08.07h.1l1.47-.64a.14.14 0 0 0 .08-.18Zm3.14-3.01-.28 2.49c0 .02-.01.05-.03.07a.12.12 0 0 1-.07.03l-1.23.15c-.03 0-.06 0-.08-.02a.12.12 0 0 1-.05-.07L25 13.59a.12.12 0 0 1 .02-.1.12.12 0 0 1 .09-.05h2.17a.12.12 0 0 1 .09.03.12.12 0 0 1 .02.1Zm6.58 4 1.55-2.13a.14.14 0 0 0-.01-.18.14.14 0 0 0-.06-.03l-2.02-.78a.14.14 0 0 0-.1 0 .14.14 0 0 0-.07.08l-1.1 2.23a.14.14 0 0 0 .08.2l1.56.66a.14.14 0 0 0 .17-.04Zm6.63-1.4-3.98 3.63a.11.11 0 0 1-.15 0l-1.34-1.2a.12.12 0 0 1-.01-.16l3.06-3.78a.11.11 0 0 1 .15-.03L40.57 16a.11.11 0 0 1 .06.08.12.12 0 0 1-.04.1ZM19.06 20.3l2.03-1.8a.18.18 0 0 0 .03-.23l-1.52-2.19a.18.18 0 0 0-.21-.06.18.18 0 0 0-.07.04l-2.1 2.34a.19.19 0 0 0 .01.25l1.59 1.64a.18.18 0 0 0 .24 0Zm10.15 1.17 6.74-.35a.16.16 0 0 1 .14.08 83.18 83.18 0 0 0 1.64 2.73v.02a.05.05 0 0 1-.05.03l-6.72-.67c-.23-.02-.3.08-.18.29l2.3 4.21c.13.24.07.3-.17.18a495.6 495.6 0 0 0-3.4-1.73c-.6-.3-1.02-.65-1.25-1.05a251.69 251.69 0 0 1-.94-1.61.18.18 0 0 0-.18 0 .2.2 0 0 0-.07.07l-.82 1.45a.17.17 0 0 1-.18.08.18.18 0 0 1-.06-.02l-1.47-.86a.5.5 0 0 0-.4-.05l-.6.17c-.2.06-.24 0-.16-.18l.87-1.71c.25-.5.66-.96 1.23-1.4a159.98 159.98 0 0 0 4.53-3.64h.09a31.48 31.48 0 0 1 2.64.95.05.05 0 0 1-.02.04l-3.6 2.72c-.24.18-.2.26.1.25Zm-11.25.18L13.3 19.1a.12.12 0 0 0-.1-.01.12.12 0 0 0-.07.07l-.88 2.5a.13.13 0 0 0 0 .1c.01.03.04.05.06.06l4.62 1.93a.12.12 0 0 0 .16-.06l.9-1.87a.13.13 0 0 0-.04-.16Zm16.22-2.38.75.64c.08.08.07.11-.04.12l-2.27.11-.06-.01a.09.09 0 0 1-.03-.05v-.05l.04-.04 1.28-.75a.27.27 0 0 1 .33.03Zm4.45 3.27 2-1.06a.2.2 0 0 0 .09-.26l-.87-1.85a.2.2 0 0 0-.2-.1.2.2 0 0 0-.08.03l-2.03 1.44a.2.2 0 0 0-.05.27l.88 1.46a.2.2 0 0 0 .26.07Zm6.26 2.93-5.12.97c-.03 0-.06 0-.1-.02a.13.13 0 0 1-.05-.08l-.47-1.98a.14.14 0 0 1 .01-.1.14.14 0 0 1 .09-.07l4.6-1.19.09.01.06.07.99 2.2a.14.14 0 0 1-.1.2Zm-28.46 0-2.64-.34a.13.13 0 0 0-.1.03.13.13 0 0 0-.04.1l.03 2.34c0 .03.02.06.04.09.02.02.05.04.09.04l2.39.08c.03 0 .06 0 .09-.03a.13.13 0 0 0 .04-.09l.21-2.07c0-.03 0-.07-.03-.1a.13.13 0 0 0-.08-.04Zm17.2-.37 2.58.06a.12.12 0 0 1 .12.08.13.13 0 0 1-.03.13l-1.57 1.45a.12.12 0 0 1-.14.01.12.12 0 0 1-.04-.03l-1.03-1.5a.13.13 0 0 1 0-.13.12.12 0 0 1 .1-.07Zm1.7 6.22c.24-.19.31-.14.24.15l-1.24 4.58c-.11.41-.02.47.27.15l1.45-1.55c.45-.45.85-1.03 1.21-1.74.54-1.07.92-2.14 1.13-3.2.17-.8.09-1.76 0-2.7a23.76 23.76 0 0 1-.1-1.23.09.09 0 0 0-.03-.03l-.05-.01a.1.1 0 0 0-.05.02l-5.32 4.38a.32.32 0 0 1-.39.02l-5.18-3.56c-.09-.06-.13-.04-.13.07v4.15c0 .12-.04.24-.12.34L25 33.82a.5.5 0 0 1-.3.2l-4.5.98a.06.06 0 0 0-.04.04.06.06 0 0 0 .02.06l1.68 1.57.08.04H22l5.12-1.3a.49.49 0 0 0 .3-.24l2.01-3.53c.12-.2.26-.22.42-.04l2.1 2.3c.08.08.16.09.24.02l3.14-2.59Zm-11.42-5.56-2.97.15c-.16 0-.21-.06-.16-.22l.98-2.67c.23-.65.53-1.13.89-1.44 1.17-1.01 2.67-2.36 4.5-4.03.11-.1.1-.13-.05-.12A10.14 10.14 0 0 0 20.05 21a6.22 6.22 0 0 0-1.15 1.93c-.1.26-.24.57-.39.9-.42.93-.93 2.07-.88 3.04.02.44.02.86.01 1.28 0 .9-.02 1.77.28 2.66.14.43.38 1.09.7 1.97.05.13.14.2.27.24l.4.1c.64.17 1.16.31 1.91.08.88-.27 1.94-.6 3.2-.96.12-.03.22-.1.3-.21l.69-.99c.22-.3.32-.75.31-1.33v-2.65a.3.3 0 0 0-.14-.26l-1.4-.96a.4.4 0 0 0-.25-.07Zm-3.65 2.44a.1.1 0 0 0-.01.07l.27 2.56a.1.1 0 0 0 .11.09l1.28-.15c.36-.04.7-.22.92-.5.23-.28.33-.63.3-.99l-.01-.08a1.32 1.32 0 0 0-.98-1.14 1.38 1.38 0 0 0-.53-.04l-1.28.14a.1.1 0 0 0-.07.04Zm19.2 2.54 2.52.55a.13.13 0 0 0 .14-.07l.02-.05.21-2.56a.14.14 0 0 0-.03-.1.13.13 0 0 0-.09-.04l-2.48-.14a.13.13 0 0 0-.09.03.14.14 0 0 0-.04.09l-.27 2.14c0 .03 0 .07.03.1.01.02.04.04.08.05Zm-22.75.98-4.44 1.57a.16.16 0 0 1-.2-.1L11 30.67a.17.17 0 0 1 0-.14.17.17 0 0 1 .13-.09l5.06-.95c.04 0 .09 0 .12.03.04.02.06.06.07.1l.43 1.91c0 .04 0 .09-.02.12a.17.17 0 0 1-.1.08Zm21.47 2.48 3.95 3.38a.14.14 0 0 0 .14.03.14.14 0 0 0 .1-.1l.74-3.12a.15.15 0 0 0-.08-.17l-4.05-1.83a.14.14 0 0 0-.16.03.15.15 0 0 0-.03.05l-.65 1.56a.15.15 0 0 0 .04.17ZM15 34.47l2.33-1.26a.15.15 0 0 1 .2.06l.8 1.37a.15.15 0 0 1-.03.19l-2.03 1.72a.15.15 0 0 1-.22-.04l-1.1-1.83a.15.15 0 0 1 0-.17.15.15 0 0 1 .05-.04Zm17.55 1.2-1.36.5a.26.26 0 0 1-.3-.06l-1.16-1.18a.18.18 0 0 0-.28.04l-1.05 1.83a.48.48 0 0 1-.33.25l-3.52.74c-.3.06-.3.14-.02.24 2.42.85 4.92.8 7.5-.16.12-.04.2-.11.23-.22l.6-1.65c.13-.34.03-.45-.3-.32Zm2.8 1.51 1.56-1.56a.15.15 0 0 1 .22 0l1.7 1.71a.16.16 0 0 1 .01.22l-1.86 2.09a.15.15 0 0 1-.25-.02l-1.4-2.24a.16.16 0 0 1 .03-.2Zm-16.06-1.1-4.08 3.4a.13.13 0 0 0-.05.11c0 .03 0 .05.02.06 0 .02.02.04.04.05l2.48 1.5a.13.13 0 0 0 .17-.03l3.03-3.62a.14.14 0 0 0-.02-.19l-1.42-1.28a.13.13 0 0 0-.17 0Zm1.36 4.28 1.46-2.05a.11.11 0 0 1 .15-.03l1.49.8c.02 0 .04.03.05.06v.08l-1.16 2.44a.12.12 0 0 1-.07.06.11.11 0 0 1-.1-.01l-1.8-1.19a.11.11 0 0 1-.04-.07.12.12 0 0 1 .02-.1Zm11.55-1.19 1.47 5.22a.13.13 0 0 0 .08.08.12.12 0 0 0 .12-.01l2.21-1.59a.13.13 0 0 0 .04-.16l-2.07-4.39a.13.13 0 0 0-.07-.06.12.12 0 0 0-.1 0l-1.61.76a.13.13 0 0 0-.06.07.13.13 0 0 0 0 .08Zm-2.98 3.12-.1-2.3c0-.04.02-.09.04-.12a.18.18 0 0 1 .11-.07l1.48-.3c.05-.01.1 0 .14.02.04.03.07.07.08.11l.68 2.5a.19.19 0 0 1-.09.21.18.18 0 0 1-.07.02l-2.08.11a.18.18 0 0 1-.13-.05.19.19 0 0 1-.06-.13Zm-4-2.62-1.3 5.1a.18.18 0 0 0 .04.16.18.18 0 0 0 .14.07h3c.05 0 .1-.02.12-.05a.18.18 0 0 0 .06-.12l.26-4.84a.18.18 0 0 0-.04-.13.18.18 0 0 0-.11-.06l-1.97-.26c-.04 0-.09 0-.12.03a.18.18 0 0 0-.08.1Z" fill="#F46F21"/></svg>