<svg width="56" height="56" viewBox="0 0 56 56" xmlns="http://www.w3.org/2000/svg"><path fill="#F0F3FA" d="M0 0h56v56H0z"/><path d="M19.28 21.04a5.02 5.02 0 0 0-.61-.04h-7.75L8 35h9.58a5.13 5.13 0 0 0 4.88-4.3c.43-2.16-.54-3.24-1.09-3.24.79-.39 1.48-.95 1.61-2.25-2.57-1.54-3.49-3.14-3.7-4.17ZM15.9 33H12.5l.83-4h3.77c.54 0 2.1.62 1.57 2.23C18.26 32.46 16.8 33 15.9 33Zm1.07-6h-3.23l.83-4h2.51c1.27 0 2.12.48 2.12 1.77 0 1.3-1.15 2.23-2.23 2.23Z" fill="#231F20"/><path d="M20.05 21.32a16 16 0 0 0 3.3 3.15c0-1.05-.67-3.15-3.3-3.15Z" fill="#00914B"/><path fill-rule="evenodd" d="M25.25 25.34 23 35h19.64c2.15 0 4.29-1.62 4.82-4.3.43-2.16-.53-3.24-1.07-3.24.86-.43 1.61-1.08 1.61-2.7 0-3-2.86-3.76-4.29-3.76H35.68l-2.3 12H26.8l2.13-9.4a13.13 13.13 0 0 1-3.68 1.74Zm11.88 7.68h3.82c.9 0 2.36-.56 2.76-1.79.54-1.61-1.05-2.23-1.58-2.23H37.9l-.77 4.02ZM38.28 27h3.8c1.08 0 2.17-.94 2.17-2.23 0-1.3-.9-1.77-2.14-1.77h-3.06l-.77 4Z" fill="#231F20"/><path d="M24.99 25c2.19-1.05 6.68-4.53 7.12-10-2.37 1.05-7.12 4.53-7.12 10Z" fill="#00914B"/></svg>