<svg xmlns="http://www.w3.org/2000/svg" width="56" height="56"><path d="M0 28a28 28 0 1156 0 28 28 0 01-56 0z" fill="#F0F3FA"/><path fill="#264796" d="M23 17h3v13h-3zm4 4h3v9h-3zm5.8 2.15c0-1.19.97-2.15 2.16-2.15H40v3h-3.07l2.17 2.38A2.16 2.16 0 0137.5 30H31v-3h4.6l-2.22-2.38c-.37-.4-.57-.92-.57-1.47z"/><path d="M24.8 32.15c0-1.19.97-2.15 2.16-2.15H32v3h-3.07l2.17 2.38A2.16 2.16 0 0129.5 39H23v-3h4.6l-2.21-2.38c-.38-.4-.58-.92-.58-1.47z" fill="#009846"/><path d="M41.8 23.15c0-1.19.97-2.15 2.16-2.15H49v3h-3.07l2.17 2.38A2.16 2.16 0 0146.5 30H40v-3h4.6l-2.22-2.38c-.37-.4-.57-.92-.57-1.47zM27 17h3v3h-3zm-8 0h-6v3h5.5a1 1 0 110 2H13v3h5.5a1 1 0 110 2H13v3h6a3.5 3.5 0 001.8-6.5A3.5 3.5 0 0019 17z" fill="#264796"/><path d="M7 33a6 6 0 015.5-5.98v3.02A3 3 0 1016 33h-3v-2.5h6v4.75l5-4.57v4.07L19.35 39H16v-.8A6 6 0 017 33z" fill="#009846"/></svg>