<svg width="56" height="56" viewBox="0 0 56 56" xmlns="http://www.w3.org/2000/svg"><path fill="#F0F3FA" d="M0 0h56v56H0z"/><path fill="#FB9002" d="M20.57 17.47 28 10l7.44 7.46L28 24.92zM20.57 38.5 28 31.03l7.44 7.45L28 45.95zM10 27.96l7.44-7.45 7.43 7.45-7.43 7.46zM31 28l7.57-7.49L46 27.96l-7.43 7.46L31 28Z"/><path d="m28 24.9-7.43-7.45.98 4.09 6.45 6.5V24.9Z" fill="#FAB802"/><path d="m28 24.9 7.44-7.41-.95 4.07L28 28v-3.1Z" fill="#FCD403"/><path d="m24.87 27.96-7.44 7.47 4.1-1.03L28 27.96h-3.13Z" fill="#FAB802"/><path d="m24.86 27.96-7.44-7.45 4.11 1.03 6.45 6.42h-3.12Z" fill="#FCD403"/><path d="m28 31.08 7.44 7.41-1.03-4.06L28 27.95v3.13Z" fill="#FAB802"/><path d="m28 31.08-7.43 7.42.96-4.1 6.45-6.45.02 3.13Z" fill="#FCD403"/><path d="m31.11 28.02 7.4-7.45-4.07.98-6.46 6.47h3.13Z" fill="#FAB802"/><path d="m31.11 28 7.47 7.44-4.19-1L28 28h3.11Z" fill="#FCD403"/><path d="m19.97 23.24-.2.2-.18-.17.2-.2.18.17Zm-.6.6-.4.41-.18-.17.4-.4.18.17Zm-.81.81-.4.4-.18-.17.4-.4.18.17Zm-.8.81-.4.4-.18-.17.4-.4.17.17Zm-.81.81-.4.4-.18-.17.4-.4.18.17Zm-.8.8-.4.41-.18-.17.4-.4.17.17Zm-.93.93.12.11-.18.18-.16-.17h-.26v-.24H15l.16-.17.18.18-.12.11Zm-4.81.12h-.31v-.24h.3v.24Zm1.24 0h-.62v-.24h.62v.24Zm1.23 0h-.62v-.24h.62v.24Zm1.24 0h-.62v-.24h.62v.24Zm1.85.98-.4-.4.17-.18.4.4-.17.18Zm.8.8-.4-.4.18-.17.4.4-.18.18Zm.8.81-.4-.4.18-.18.4.4-.17.18Zm.82.81-.4-.4.17-.18.4.4-.17.18Zm.8.8-.4-.4.17-.17.4.4-.17.18Zm.6.61-.2-.2.18-.17.2.2-.18.17ZM36.13 23.24l.2.2.17-.17-.2-.2-.17.17Zm.6.6.4.41.18-.17-.4-.4-.18.17Zm.8.81.41.4.18-.17-.4-.4-.18.17Zm.81.81.4.4.18-.17-.4-.4-.18.17Zm.8.81.41.4.18-.17-.4-.4-.18.17Zm.81.8.4.41.18-.17-.4-.4-.18.17Zm.92.93-.11.11.18.18.16-.17h.26v-.24h-.26l-.16-.17-.18.18.11.11Zm4.82.12H46v-.24h-.3v.24Zm-1.24 0h.62v-.24h-.62v.24Zm-1.23 0h.61v-.24h-.61v.24Zm-1.24 0h.62v-.24h-.62v.24Zm-1.85.98.4-.4-.17-.18-.4.4.17.18Zm-.8.8.4-.4-.18-.17-.4.4.17.18Zm-.81.81.4-.4-.17-.18-.4.4.17.18Zm-.8.81.4-.4-.18-.18-.4.4.17.18Zm-.81.8.4-.4-.17-.17-.4.4.17.18Zm-.6.61.2-.2-.18-.17-.2.2.17.17ZM32.8 19.9l-.2-.2.17-.18.2.2-.18.18Zm-.6-.6-.41-.41.17-.18.4.4-.17.18Zm-.81-.81-.4-.4.17-.18.4.4-.17.18Zm-.81-.81-.4-.4.17-.18.4.4-.17.18Zm-.8-.81-.4-.4.17-.18.4.4-.18.18Zm-.81-.8-.4-.41.17-.18.4.4-.17.18Zm-.92-.93-.11.11-.18-.17.17-.17v-.26h.24v.26l.17.17-.18.17-.11-.11Zm-.12-4.83V10h.24v.31h-.24Zm0 1.24v-.62h.24v.62h-.24Zm0 1.24v-.62h.24v.62h-.24Zm0 1.24v-.62h.24v.62h-.24Zm-.98 1.86.4-.4.18.17-.4.4-.18-.17Zm-.8.8.4-.4.18.18-.4.4-.18-.18Zm-.8.81.4-.4.17.17-.4.4-.18-.17Zm-.81.81.4-.4.18.17-.4.4-.18-.17Zm-.8.8.4-.4.17.18-.4.4-.18-.17Zm-.61.61.2-.2.17.18-.2.2-.17-.18ZM32.8 36.1l-.2.2.17.18.2-.2-.18-.18Zm-.6.6-.41.41.17.18.4-.4-.17-.18Zm-.81.81-.4.4.17.18.4-.4-.17-.18Zm-.81.81-.4.4.17.18.4-.4-.17-.18Zm-.8.81-.4.4.17.18.4-.4-.18-.18Zm-.81.8-.4.41.17.18.4-.4-.17-.18Zm-.92.93-.11-.11-.18.17.17.17v.26h.24v-.26l.17-.17-.18-.17-.11.11Zm-.12 4.83V46h.24v-.31h-.24Zm0-1.24v.62h.24v-.62h-.24Zm0-1.24v.62h.24v-.62h-.24Zm0-1.24v.62h.24v-.62h-.24Zm-.98-1.86.4.4.18-.17-.4-.4-.18.17Zm-.8-.8.4.4.18-.18-.4-.4-.18.18Zm-.8-.81.4.4.17-.17-.4-.4-.18.17Zm-.81-.81.4.4.18-.17-.4-.4-.18.17Zm-.8-.8.4.4.17-.18-.4-.4-.18.17Zm-.61-.61.2.2.17-.18-.2-.2-.17.18Z" fill="#FFD572"/></svg>