<svg width="56" height="56" viewBox="0 0 56 56" xmlns="http://www.w3.org/2000/svg"><path fill="#F0F3FA" d="M0 0h56v56H0z"/><path fill-rule="evenodd" d="M13 17h-2v14.61c.88-.36 1.89-.76 3-1.17V27h3a2 2 0 0 1 1.98 1.7l2.71-.84c-.43-1.1-1.3-2-2.38-2.48A4.74 4.74 0 0 0 16.25 17H13Zm9 12.53A87.72 87.72 0 0 0 11.14 34H17.5c2.47 0 4.48-2 4.5-4.47Zm3-1c1-.32 2-.63 3-.92V31h5v3h-8v-5.47Zm3-2.3c-1.01.22-2.01.46-3 .72V17h3v9.22Zm9.07-.95c1.25-.26 2.42-.47 3.48-.63-1.3 0-2.64.07-4 .19a4.16 4.16 0 0 1-1.26-3.11c0-2.95 2.07-4.73 5.35-4.73 2.79 0 4.29 1.5 4.79 2.26l-1.93 1.65a3.3 3.3 0 0 0-2.64-1.3c-.89 0-1.87.42-2.19 1.3-.6 1.71 1.23 2.54 2.64 3.17l.55.25c2.71 1.3 4.14 2.34 4.14 4.8 0 2.68-2.07 4.87-5.79 4.87C37 34 35.5 32.42 35 31.53l1.79-2.05c.38.68 1.5 2.05 3.21 2.05 1.79 0 2.64-1.37 2.64-2.05v-.06c0-.56 0-1.62-2-2.41l-.51-.2c-.99-.38-2.13-.82-3.06-1.53ZM14 20v4h2.5a2 2 0 1 0 0-4H14Z" fill="#828587"/><path fill-rule="evenodd" d="M11 36h.53v3H11v-3Zm22.27 0h.53v3h-.53v-3Zm11.14 0h.53v2.5H46v.5h-1.59v-3Zm-32.35 0h.53l1.6 2.15V36h.52v3h-.53l-1.59-2.13V39h-.53v-3Zm13.05 0h-.53v3h.53v-2.13L26.7 39h.53v-3h-.53v2.15L25.1 36Zm12.94 0h.53l1.59 2.15V36h.53v3h-.53l-1.6-2.13V39h-.52v-3Zm-20.16 0v.5h-1.06V39h-.53v-2.5h-1.06V36H17.9Zm15.01.5V36H30.25v.5h1.06V39h.53v-2.5h1.06ZM20.55 36v.5h-1.6v.75h1.6v.5h-1.6v.75h1.6v.5h-2.13v-3h2.13Zm.8 0h1.69c.5 0 .9.38.9.85 0 .37-.25.68-.6.8.48.53.92 1.35.92 1.35h-.64c-.12-.28-.5-.88-.87-1.3h-.88V39h-.53v-3Zm1.69 1.2h-1.17v-.7h1.17c.2 0 .37.16.37.35 0 .2-.17.35-.37.35Zm5.85-1.2-1.24 3h.57l.42-1h1.1l.4 1h.56l-1.24-3h-.57Zm.67 1.54-.38-.94-.38.94h.76ZM41.53 39h-.57l1.25-3h.56L44 39h-.56l-.4-1h-1.1l-.42 1Zm.96-2.4.38.94h-.76l.38-.94Zm-5.66.9c0 .62-.45 1-.85 1-.4 0-.85-.38-.85-1s.45-1 .85-1c.4 0 .85.38.85 1Zm.53 0c0 .83-.62 1.5-1.38 1.5-.76 0-1.38-.67-1.38-1.5s.62-1.5 1.38-1.5c.76 0 1.38.67 1.38 1.5Z" fill="#BA962E"/></svg>