<svg width="56" height="56" viewBox="0 0 56 56" xmlns="http://www.w3.org/2000/svg"><path fill="#F0F3FA" d="M0 0h56v56H0z"/><path fill-rule="evenodd" d="M9 19h6a5 5 0 0 1 3.47 8.6 5.05 5.05 0 0 1 2.23 2.64c-1.25.36-2.5.75-3.7 1.14A2.5 2.5 0 0 0 14.5 29H13v3.75c-1.61.58-3 1.12-4 1.52V19Zm0 18h6.97a5.03 5.03 0 0 0 5.02-4.7c-2.05.76-4.24 1.63-6.6 2.57-1.71.68-3.5 1.4-5.39 2.12Zm15-5.8V37h10v-3h-6v-4.07a125.3 125.3 0 0 0-4 1.27Zm13.12-3.5c2.05-.38 3.5-.56 4.34-.62-1.3 0-2.75.08-4.7.28a4.6 4.6 0 0 1-1.38-3.41c0-2.63 1.77-4.95 5.67-4.95 3.12 0 4.92 1.64 5.43 2.46l-2.25 1.87c-.83-.87-1.41-1.33-2.79-1.33-1.37 0-2.44.45-2.44 1.75s.95 1.93 3.31 2.94c2.36 1.02 4.69 2.66 4.69 4.67 0 3.06-1.97 5.64-6.26 5.64-3.44 0-5.26-1.63-5.74-2.44l2.06-2.24c.4.68 1.65 1.68 3.41 1.68 2.2 0 2.53-1 2.53-2.25 0-1.26-1.56-2.07-3.75-2.88-.8-.3-1.52-.68-2.13-1.17Zm-9.12.87-.4.06c-1.12.17-2.34.43-3.6.73V19h4v9.57ZM13 22h2a2 2 0 1 1 0 4h-2v-4Z" fill="#818588"/></svg>