<svg xmlns="http://www.w3.org/2000/svg" width="56" height="56"><path fill="#F0F3FA" d="M0 0h56v56H0z"/><path d="M47.4 31.91c.01.04-.02.09-.07.09h-2.18c-.12 0-.19-.04-.24-.15-.21-.47-.43-1.37-.65-1.84-.06-.14-.26-.21-.26-.01v1.77c0 .25.02.23-.23.23h-1.6c-.17 0-.17 0-.17-.18V27.3c0-.27-.29-.34-.5-.43-.07-.02-.09-.06-.07-.12.14-.55.28-1.1.4-1.65.03-.1.09-.1.16-.1h2.77c.85.02 1.56.34 2.1 1 .4.48.52 1.06.45 1.69a3.38 3.38 0 01-.9 1.87c-.23.26-.21.16-.05.45.33.61.69 1.3 1.03 1.9zm-2.63-3.9c.23 0 .44-.21.44-.5 0-.3-.21-.5-.44-.5h-.68c-.06 0-.09.03-.09.1v.78c0 .08.04.11.11.11h.66z" fill="#2FA64C"/><path d="M5.1 32a.1.1 0 01-.1-.1V27.29c0-.1-.02-.15-.1-.2-.12-.06-.4-.17-.36-.34L5 25.1c.02-.1.08-.09.15-.09h2.81c.19 0 .38.03.56.1a1.69 1.69 0 01.85 2.7c-.13.18-.3.32-.47.47-.11.1-.12.1 0 .17.43.25.78.57.97 1.04.41 1-.46 2.51-1.62 2.52H5.1zm1.53-5.06v.44c0 .09.03.13.12.12h.55a.67.67 0 00.25-.06c.21-.1.31-.36.26-.6-.07-.25-.28-.33-.55-.34h-.52c-.08 0-.11.04-.11.11v.33zm0 3.03v.44c0 .08.03.11.12.11h.42c.1 0 .22 0 .32-.03.23-.07.37-.33.33-.57-.04-.27-.28-.41-.55-.42h-.51c-.1 0-.13.03-.13.12v.35z" fill="#0055AE"/><path d="M40.97 31.88a.1.1 0 01-.1.12h-1.94c-.1 0-.15-.03-.18-.13-.07-.27-.16-.49-.23-.75-.02-.1-.08-.12-.17-.12H36.6c-.08 0-.13.03-.16.1l-.26.74c-.04.11-.1.16-.23.16h-1.82a.1.1 0 01-.1-.13l.9-3.25.38-1.34c.05-.15 0-.28-.14-.37-.2-.12-.21-.29-.14-.5.14-.41.26-.83.37-1.24.04-.13.09-.17.23-.17h3.24c.11 0 .16.03.19.14l.8 2.8c.37 1.32.77 2.62 1.1 3.94zm-3.51-4.71c-.01-.03-.03-.03-.04 0-.04.11-.35 1.16-.49 1.71-.02.1.02.12.1.12h.87c.1 0 .12-.04.1-.13a38.91 38.91 0 00-.54-1.7zm-9.92-.2a.1.1 0 01-.05-.11l.5-1.72c.02-.1.06-.13.16-.13 0 0 1.85-.02 1.97 0 1.22.06 2.72.4 3.33 1.57 1.01 1.9 0 5.42-2.45 5.42h-2.89c-.1 0-.11-.05-.11-.13v-4.5c0-.22-.27-.31-.46-.4zm2.46 2.9c0 .07 0 .13.09.13.97 0 1.78-.55 1.75-1.52-.04-.95-.74-1.48-1.7-1.48-.14 0-.14.05-.14.15v2.73z" fill="#2FA64C"/><path d="M19.9 25a.1.1 0 01.1.1v4.23c0 1.67-.67 2.87-2.5 2.87-1.68 0-2.5-1.2-2.5-2.87v-2.11a.22.22 0 00-.15-.22c-.19-.07-.39-.09-.31-.33l.46-1.53c.03-.11.08-.14.2-.14h1.68c.1 0 .12.03.12.12v4.1c0 .4.1.85.5.85.43 0 .51-.5.51-.85v-4.1c0-.08.02-.12.1-.12h1.79zm5.48 0a.1.1 0 01.1.12l-.34 1.76c-.02.1-.06.12-.15.12h-1.77c-.2 0-.22 0-.22.21v.42c0 .16.06.17.19.17h2.05a.1.1 0 01.1.12l-.33 1.2a.1.1 0 01-.1.08H23.2c-.17 0-.19 0-.19.15v.47c0 .12.08.18.19.18h2.06c.06 0 .1.05.09.1a4.74 4.74 0 01-.02.08l-.38 1.7c-.02.1-.07.12-.16.12a608.1 608.1 0 00-3.65 0c-.13 0-.13-.06-.13-.16v-4.51c0-.15-.03-.21-.18-.25-.37-.1-.36-.1-.27-.47.12-.47.24-.95.34-1.42.03-.14.08-.2.23-.19h4.26z" fill="#0055AE"/><path d="M47.9 26.86c.13-.57.25-1.18.36-1.74.02-.09.05-.12.14-.12h3.85c.14 0 .12.03.1.15l-.09.43-.26 1.3c-.02.1-.07.12-.16.12h-.68c-.15 0-.16.02-.16.17v4.68c0 .13-.04.15-.15.15h-1.68c-.13 0-.17-.03-.17-.16v-4.67c0-.16 0-.17-.16-.17H48c-.07 0-.12-.01-.1-.14z" fill="#2FA64C"/><path d="M14.37 30a.1.1 0 01.1.13 63.9 63.9 0 00-.45 1.75c-.02.09-.06.12-.16.12h-2.71c-.11 0-.15-.03-.15-.14v-4.58c0-.11-.03-.18-.14-.23-.31-.16-.31-.16-.23-.49l.34-1.44c.02-.1.06-.12.16-.12h1.72c.13 0 .15.04.15.14v4.66c0 .2 0 .2.2.2h1.17z" fill="#0055AE"/></svg>