<svg width="56" height="56" viewBox="0 0 56 56" xmlns="http://www.w3.org/2000/svg"><path fill="#F0F3FA" d="M0 0h56v56H0z"/><path d="M47 32v-8h2v6h3v2h-5ZM43 32v-8h2v8h-2ZM39.43 32c-.57 0-1.12-.08-1.65-.23a4.15 4.15 0 0 1-1.28-.62l.64-1.6c.32.22.67.4 1.08.55.4.14.81.2 1.22.2.27 0 .48-.02.65-.07a.8.8 0 0 0 .36-.22.5.5 0 0 0 .12-.33.48.48 0 0 0-.22-.42c-.15-.1-.34-.18-.57-.25l-.77-.2a7.77 7.77 0 0 1-.84-.25c-.28-.1-.54-.23-.77-.4a1.96 1.96 0 0 1-.56-.64 2.14 2.14 0 0 1-.22-1.03c0-.46.11-.87.34-1.25.23-.37.57-.67 1.03-.9a3.81 3.81 0 0 1 1.7-.34 5.14 5.14 0 0 1 2.52.67l-.6 1.62a4.25 4.25 0 0 0-1.93-.6c-.27 0-.49.04-.65.1a.71.71 0 0 0-.36.24.6.6 0 0 0-.1.35c0 .17.06.3.2.41.15.1.33.18.57.24l.77.19a7 7 0 0 1 .84.25c.29.1.54.23.78.4.23.16.41.38.55.65.15.26.22.6.22 1a2.35 2.35 0 0 1-1.37 2.14c-.45.23-1.02.34-1.7.34ZM32 32c-2.25 0-4-1.75-4-4s1.75-4 4-4c2.24 0 4 1.76 4 4 0 2.25-1.75 4-4 4Zm0-2c1.2 0 2-.87 2-2s-.8-2-2-2c-1.21 0-2 .86-2 2 0 1.14.78 2 2 2ZM16 32c-2.25 0-4-1.75-4-4s1.75-4 4-4c2.24 0 4 1.76 4 4 0 2.25-1.75 4-4 4Zm0-2c1.2 0 2-.87 2-2s-.8-2-2-2c-1.21 0-2 .86-2 2 0 1.14.78 2 2 2ZM21 32v-8h2.98A2.93 2.93 0 0 1 27 27c0 1.2-.61 2.06-1.49 2.53-.43.23-.94.47-1.53.47h-1.96l.98-1.07V32h-2Zm4.03 0-1.62-2.91h1.96L27 32h-1.97ZM23 29.17 22.02 28h1.85c.77 0 1.13-.27 1.13-1 0-.74-.36-1-1.13-1h-1.85l.98-1.26v4.43ZM4 32v-8h3.76c1.33 0 2.88.52 2.88 2.1 0 .8-.4 1.44-1.14 1.8-.36.18-.79.27-1.29.27l.21-.55c.52 0 .98.09 1.36.27.77.33 1.22.98 1.22 1.92C11 31.47 9.39 32 7.97 32H4Zm2-2h1.97c.45 0 1.03.04 1.03-.5 0-.55-.46-.5-1.03-.5H6l-.09-2H7.5c.48 0 1.01 0 1.01-.5S8 26 7.49 26H6v4Z" fill="#00AEEF"/></svg>