<svg width="56" height="56" xmlns="http://www.w3.org/2000/svg"><path fill="#EA0016" d="M0 0h56v56H0z"/><path fill-rule="evenodd" d="M43 28c0 8.284-6.716 15-15 15-8.284 0-15-6.716-15-15 0-8.284 6.716-15 15-15 8.284 0 15 6.716 15 15zm2 0c0 9.389-7.611 17-17 17s-17-7.611-17-17 7.611-17 17-17 17 7.611 17 17zM33 18h2c3.331 2.197 5 6.01 5 10s-2.054 7.803-5.385 10H33v-5H23v5h-2c-3.133-2.066-5-6.33-5-10s1.867-7.934 5-10h2v5h10v-5zM18 28c0 2.986.77 5.563 3 7.544V20.527c-2.23 1.98-3 4.487-3 7.473zm17 4.485v3.059c2.204-1.98 3-4.581 3-7.544 0-2.963-.782-5.494-2.986-7.473L35 23.482v9.003zM23 31h10v-6H23v6z" fill="#fff"/></svg>