<svg width="56" height="56" xmlns="http://www.w3.org/2000/svg"><path fill="#FFD807" d="M0 0h56v56H0z"/><path fill-rule="evenodd" d="M28 43c-6.803 0-12-5.058-12-11.8C16 24.46 21.362 19 28.166 19 34.969 19 40 24.459 40 31.2 40 37.942 34.804 43 28 43zm0 1c-8.813 0-16-7.187-16-16 0-8.811 7.187-16 16-16 8.812 0 16 7.189 16 16 0 8.813-7.188 16-16 16z" fill="#007DC6"/><path d="M28 42c-6.058 0-11-4.94-11-11s4.942-11 11-11 11 4.94 11 11-4.942 11-11 11z" fill="#007DC6"/><path d="M23.93 34.997c2.29-.069 2.96-2.501 3.067-4.982.107-2.483 2.422-4.549 6.003-4.436-5.753-3.697-12.472-.303-12.934 4.025-.46 4.328 1.575 5.46 3.865 5.393z" fill="#FFD807"/><path d="M32.07 28.003c-2.29.069-2.961 2.5-3.067 4.982-.108 2.483-2.423 4.547-6.003 4.434 5.752 3.7 12.473.306 12.934-4.023.461-4.329-1.575-5.462-3.864-5.393z" fill="#FFD807"/></svg>