<svg width="56" height="56" viewBox="0 0 56 56" xmlns="http://www.w3.org/2000/svg"><path fill="#F0F3FA" d="M0 0h56v56H0z"/><path fill-rule="evenodd" d="M28 45a17 17 0 1 0 0-34 17 17 0 0 0 0 34Zm13-14h-3.21l1.42-8h-3.33L34 33h6.55l.45-2Zm-6.58-4.57a4 4 0 0 1-2.38 2.94c-.66.3-1.42.45-2.28.45h-1.33l-.6 3.18H24.5l1.88-10h4.65c1.13 0 2 .24 2.58.72.6.48.89 1.14.89 1.98 0 .2-.02.45-.08.73Zm-4.57.92c.68 0 1.08-.3 1.2-.92l.03-.24c0-.45-.3-.68-.89-.68h-.95l-.34 1.84h.95Zm-5.63-.27a2.83 2.83 0 0 0 .78-2c0-.68-.26-1.2-.78-1.54a3.74 3.74 0 0 0-2.17-.54h-5.24L15 33h5.38c1.12 0 2.01-.24 2.69-.7a3.01 3.01 0 0 0 1.3-2.52c0-.46-.13-.86-.4-1.2a1.95 1.95 0 0 0-1.15-.7c.54-.14 1-.4 1.4-.8Zm-2.65-1.06-.01.19a.75.75 0 0 1-.3.52c-.17.11-.4.17-.69.17h-1.24l.26-1.41h1.24c.26 0 .44.04.56.12.12.09.18.22.18.41Zm-.43 3.59c0 .08 0 .14-.02.18a.76.76 0 0 1-.3.54c-.15.1-.38.16-.67.16H18.7l.24-1.42h1.47c.5 0 .74.18.74.54Z" fill="#2AABE2"/><path fill-rule="evenodd" d="M28 44a16 16 0 1 0 0-32 16 16 0 0 0 0 32Zm0 1a17 17 0 1 0 0-34 17 17 0 0 0 0 34Z" fill="#EB2227"/></svg>