<svg xmlns="http://www.w3.org/2000/svg" width="56" height="56"><path fill="#F0F3FA" d="M0 0h56v56H0z"/><path d="M39.5 12a6.5 6.5 0 110 13 6.5 6.5 0 010-13z" fill="#FFC10E"/><path d="M40 31.9c-2.06 2.38-4.2 4.73-6.26 7.1h-15.8A2 2 0 0116 37h17.8c2-1.67 4.14-3.36 6.2-5.1zm0-3.97c-2.06 2.37-4.2 4.7-6.26 7.07h-15.8A2 2 0 0116 33h17.8c2-1.67 4.14-3.34 6.2-5.07zm0-3.98c-2.06 2.38-4.2 4.68-6.26 7.05h-15.8A2 2 0 0116 29h17.8c2-1.67 4.14-3.38 6.2-5.05zm0-3.97c-2.06 2.37-4.2 4.65-6.26 7.02h-15.8A2 2 0 0116 25h17.8c2-1.67 4.14-3.35 6.2-5.02zm0 15.9L33.74 43h-15.8A2 2 0 0116 41h17.8l6.2-5.12zM40 16l-6.26 7h-15.8A2 2 0 0116 21h17.8l6.2-5z" fill="#006CB6"/></svg>