<svg width="56" height="56" viewBox="0 0 56 56" xmlns="http://www.w3.org/2000/svg"><path fill="#F0F3FA" d="M0 0h56v56H0z"/><path fill-rule="evenodd" d="M19 30v6h3v-6h1.33l2.17 6H29l-2.43-6.73L28.09 25l-2.15-5H19v10Zm5.85-5.4-.78-1.6H22v4h1.9l.95-2.4Z" fill="#E5322C"/><path d="m30 20 7 10.5V20l3 3v13h-3l-4-5.5V36h-3V20ZM45 22.64 42 20v16h9l-3.3-3H45V22.64Z" fill="#E5322C"/><path fill-rule="evenodd" d="M11 20H8v16h7v-.08h.42L18 30.9H18v-.02h-.01l-1.93-3.75 1.35-2.59v-.02L15.08 20H11Zm3.65 10.88L13.55 29H11v4h2.41l1.21-2.12h.03Zm-.34-6.35L13.44 26H11v-3h2.42l.89 1.53Z" fill="#E5322C"/></svg>