<svg width="56" height="56" viewBox="0 0 56 56" xmlns="http://www.w3.org/2000/svg"><path fill="#F0F3FA" d="M0 0h56v56H0z"/><path fill-rule="evenodd" d="M26.9 44c5.22-9.14 12.96-11.1 16.3-11 .12-.32.21-.66.3-1-4.47.04-14.38 2.55-19.73 11.47 1 .28 2.05.46 3.13.53Zm-5.8-1.53c2.73-4.11 11.05-11.36 22.62-11.46.07-.34.12-.68.16-1.02-9.69-.2-18.91 3.62-25.18 11.06.75.54 1.55 1.02 2.4 1.42Zm-4.9-3.64a16 16 0 1 1 27.77-9.81c-12.58.21-19.37 2.5-27.77 9.81Zm26.64-4.82A16.03 16.03 0 0 1 29.23 44c1.75-3.55 6.45-9.51 13.61-9.98Zm.14-6v.02c-3.48-.1-9.78.1-14.76 1.88-5.04 1.8-9.68 5.16-12.13 7.22A15 15 0 1 1 42.97 28Z" fill="#3E4094"/></svg>