<svg width="56" height="56" viewBox="0 0 56 56" xmlns="http://www.w3.org/2000/svg"><path fill="#F0F3FA" d="M0 0h56v56H0z"/><path fill-rule="evenodd" d="M4 24h6.74a2.26 2.26 0 0 1 1.44 4 2.25 2.25 0 0 1-1.44 4H4v-8Zm2 1.45h4a1 1 0 1 1 0 2H6v-2Zm0 3.25h4a1 1 0 1 1 0 2H6v-2Z" fill="#ED4393"/><path d="M24 24h-7.6a2.38 2.38 0 0 0-2.4 2.38 2.38 2.38 0 0 0 2.4 2.38h4.73c.48 0 .87.38.87.86s-.39.88-.87.88H14V32h7.6a2.38 2.38 0 1 0 0-4.76h-4.73a.87.87 0 0 1-.87-.86c0-.48.39-.88.87-.88H24V24Z" fill="#ED4393"/><path d="M44 24h-7.6a2.38 2.38 0 0 0-2.4 2.38 2.38 2.38 0 0 0 2.4 2.38h4.73c.48 0 .87.38.87.86s-.39.88-.87.88H34V32h7.6a2.38 2.38 0 1 0 0-4.76h-4.73a.87.87 0 0 1-.87-.86c0-.48.39-.88.87-.88H44V24Z" fill="#04B9FD"/><path d="M25 24h1.5v3h5v-3H33v8h-1.5v-3.37h-5V32H25v-8Z" fill="#EF9837"/><path d="M46.5 24H45v6.07c0 1.07.88 1.93 1.96 1.93H52v-1.5h-4.94a.56.56 0 0 1-.56-.55V24Z" fill="#04B9FD"/></svg>