<svg width="56" height="56" viewBox="0 0 56 56" xmlns="http://www.w3.org/2000/svg"><path fill="#F0F3FA" d="M0 0h56v56H0z"/><path fill-rule="evenodd" d="M18 13a5 5 0 0 0-5 5v20a5 5 0 0 0 5 5h20a5 5 0 0 0 5-5V18a5 5 0 0 0-5-5H18Zm-2 5h5c2 0 4 1 4 3s-1.67 2.67-2.5 3c1.5 0 3 .9 3 2.5 0 2-1 3.5-3.5 3.5h-6v-1h.5c.17 0 .5-.1.5-.5v-9c0-.17-.1-.5-.5-.5H16v-1Zm3 11h2c2 0 2.5-1.2 2.5-2 0-1 0-2.5-1.5-2.5h-3V29Zm0-5.5h2.5c1 0 1.5-1.3 1.5-2.5s-1-2-2-2h-2v4.5ZM37 18h-6v1c1.2 0 2 .67 2 1v8.5c0 .4-.33.5-.5.5-.26-.18-.6-.38-.98-.61C29.72 27.29 27 25.65 27 24c0-1.6 1-2 1.5-2 1.65.07 2.02 2.03 2 3h1v-4h-1v.5c-.5-.5-1.2-.5-2-.5-1 0-3 1-3 3s1 3.5 3 5 3.5 3 3.5 5-1.5 4-4 4-4-1.5-4-4c0-2 1.33-3.17 2-3.5v-1c-3 .5-4 2.5-4 4.5s2 5 6 5 6-2.5 6-5c0-2-1-3.5-1.5-4H38c.8 0 1 .33 1 .5h1V25h-1c0 3.2-1.33 4-2 4h-2v-9c0-.77 1.5-1 2-1v-1Z" fill="#DC222A"/></svg>