<svg width="56" height="56" xmlns="http://www.w3.org/2000/svg"><path fill="#F0F3FA" d="M0 0h56v56H0z"/><path d="M8.385 32.8C7.33 32.8 6 32.015 6 31.15v-1.778c0-.964 1.356-1.876 2.399-1.876.661 0 1.291.304 1.464.877.108.362.137.703.137 1.587v.644c0 .599-.082 1.211-.204 1.523-.166.422-.812.674-1.411.674zm-.028-5.698c-.848 0-1.885.373-2.357 1.11v-5.45s0 .642-.584.642H4v.358h1.079v8.829H4V33h2v-.79c.41.637 1.417.972 2.23.972 1.62 0 3.041-1.414 3.041-3.026 0-1.57-1.416-3.054-2.914-3.054zM14 26.767s-.195.642-.649.642H12v.41h1v4.771h-1.014V33H15v-.41h-1v-5.823zm-.699-1.749a.738.738 0 10-.744-.744c0 .41.334.744.744.744zm6.846 3.037c0-.528-.412-.883-1.024-.883-.705 0-1.288.432-1.623 1.18v-1.454s-.145.511-.657.511h-1.294v.353h.951v4.829h-.95V33h2.95v-.41h-1v-2.322c0-.662.026-.874.15-1.261.156-.47.327-.733.55-.987.16-.18.494-.468.63-.468l.18.028a.689.689 0 00-.21.489c0 .399.288.688.687.688.382 0 .66-.295.66-.702zm2.44-5.275s-.105.624-.736.624h-1.43v.358H21.5v8.828h-1.078V33h3.229v-.41h-1.064v-9.81zm3.919 9.941c-.785 0-1.063-.318-1.063-1.217 0-.497.105-.79.342-.952.367-.258 1.14-.418 2.203-.418H28v1.716c-.244.522-.774.871-1.494.871zm3.442-.588l-.042.069c-.207.335-.393.49-.586.49-.152 0-.232-.067-.265-.222-.027-.162-.027-.162-.055-1.176v-2.408c0-1.092-1.238-1.71-2.214-1.71-1.267 0-2.298.723-2.298 1.612 0 .424.302.743.702.743.39 0 .674-.289.674-.687 0-.245-.077-.38-.315-.56-.11-.083-.12-.116-.12-.154 0-.32.596-.56 1.385-.56.7 0 1.186.133 1.186.938v1.244c-.987 0-2.015.183-2.726.453a1.667 1.667 0 00-1.124 1.551c0 .877.706 1.444 1.992 1.444.912 0 1.536-.291 1.947-.806.157.497.297.778.895.778.555 0 .976-.265 1.252-.788l.04-.075-.328-.176z" fill="#47464B"/><path d="M34.026 29.36h-.896c-.862 0-1.357-.321-1.357-.88 0-.595.549-.98 1.399-.98.988 0 1.574.479 1.694 1.383l.01.074h.373l-.062-1.796h-.379v.184c0 .065 0 .215-.006.235l-.009.003-.022-.008a.27.27 0 00-.034-.012c-.604-.309-1.042-.43-1.565-.43-1.21 0-1.99.743-1.99 1.892 0 .927.636 1.599 1.514 1.599h.966c.826 0 1.245.334 1.245.992 0 .742-.553 1.203-1.441 1.203-1.037 0-1.799-.708-1.988-1.847l-.013-.072h-.34v2.188h.354v-.197c0-.265.07-.265.096-.265.043 0 .144.017.337.13.658.357.946.444 1.47.444 1.358 0 2.27-.856 2.27-2.13 0-1.055-.623-1.71-1.626-1.71zm6.981 1.808c0 .565-.077.93-.25 1.184-.207.297-.579.48-1.193.48-.513 0-.917-.147-1.139-.342-.3-.26-.433-.677-.433-1.35v-2.094c0-1.161.531-1.679 1.572-1.679.53 0 .855.16 1.132.437.26.259.311.472.311 1.27v2.094zm.474-3.42c-.59-.49-1.243-.748-1.889-.748-1.627 0-3.092 1.619-3.092 3.16 0 1.541 1.409 3.04 3.036 3.04 1.635 0 2.893-1.42 2.893-3.04 0-.886-.203-1.796-.948-2.412zM45 25.268c0-.799.039-1.108.173-1.376.125-.25.356-.387.652-.387.305 0 .545.11.545.251 0 .045 0 .073-.101.084-.373.081-.586.316-.586.644 0 .39.278.674.66.674.413 0 .702-.312.702-.758 0-.751-.496-1.276-1.206-1.276-1.21 0-1.839 1.502-1.839 3.419v.81h-1.078v.409H44v4.828h-1.078V33h3.31v-.41H45v-4.828h1.613v-.41H45v-2.084zm5.92 6.682l-.03.066c-.228.523-.493.747-.887.747-.262 0-.503-.087-.503-.713v-4.242h1.779v-.41H49.5V25.58H49c0 1.027.144 1.82-1.198 1.82h-.136v.409h.834v4.032c0 .677.513 1.36 1.236 1.36.756 0 1.215-.317 1.536-1.06l.04-.093-.393-.098z" fill="#EA1F28"/></svg>