<svg width="56" height="56" viewBox="0 0 56 56" xmlns="http://www.w3.org/2000/svg"><path fill="#F0F3FA" d="M0 0h56v56H0z"/><path d="M33.18 23.86c-.2-.84-.12-1.61.24-2.33.3-.55.8-.99 1.52-1.3 1.07-.47 2.08-.22 3.03.75.05.04.1.07.16.08.05 0 .11 0 .16-.03.74-.4 1.48-.37 2.22.11.36.24.6.7.71 1.4.01.07.05.12.11.14 1.03.35 1.59 1.21 1.66 2.57.1 1.61-.67 2.53-2.3 2.73h-.05a.08.08 0 0 1-.04-.02l-.05-.05a.18.18 0 0 1-.06-.15c0-.02.01-.05.03-.07a.1.1 0 0 1 .05-.04c.9-.26 1.61-.42 1.92-1.5.22-.77.13-1.5-.26-2.22a1.66 1.66 0 0 0-1.2-.87c-.1-.02-.16-.08-.16-.2-.06-1.7-1.8-2.13-2.84-1.19-.05.05-.1.04-.14-.01a.16.16 0 0 1-.04-.09.37.37 0 0 0-.06-.15c-.77-1.06-1.87-1.12-2.94-.63-.47.21-.85.55-1.13 1-.4.66-.45 1.4-.15 2.2.02.05.03.1.01.16a.23.23 0 0 1-.1.13c-.92.6-1.27 1.45-1.06 2.58.07.37.22.69.46.96.65.77 1.25.7 2.16.74.03 0 .07.01.1.03.04.02.07.05.09.08.03.05.05.09.04.13 0 .07-.04.1-.1.12-.94.2-1.7.03-2.28-.52-1.22-1.15-1.22-3.44.23-4.37a.15.15 0 0 0 .06-.07.17.17 0 0 0 0-.1ZM22.22 28.9l.02.01a.04.04 0 0 0 .04 0v-.03c.25-2 .26-3.8.03-5.42a6.75 6.75 0 0 0-.55-1.75c-.11-.25-.04-.44.2-.58l.15-.08c.19-.1.3-.05.35.14.62 2.47.6 4.8.45 7.45-.05.8-.02 1.7.09 2.76.02.2-.08.31-.3.31h-.14c-.2 0-.3-.1-.28-.28.06-1.14-.05-1.85-.32-2.11a4.83 4.83 0 0 0-1.17-.88c-.8-.38-1.51-.32-2.11.18a4.8 4.8 0 0 0-.99 1.08c-.18.29-.35.93-.18 1.26.54 1.06 3.06-.08 3.9-.4a.2.2 0 0 1 .17.01c.03.02.05.04.06.07.02.02.03.05.03.08v.08c0 .06-.02.12-.06.17a.32.32 0 0 1-.13.11c-1.07.46-4.1 1.7-4.41.2-.4-1.91.97-3.48 3-3.48 1.02 0 1.49.4 2.15 1.1Z" fill="#F32B43"/><path d="M23.78 30.21c0 .25.07.27.2.06.57-1 1.71-2.13 2.93-1.76.22.07.4.25.53.54.17.37.25.62.26.75.02.74.11 1.42.29 2.04.03.1 0 .16-.12.16h-.35a.15.15 0 0 1-.1-.04.16.16 0 0 1-.05-.11 23.5 23.5 0 0 0-.14-2.05c-.08-.68-.58-1.03-1.2-.8-1.16.4-1.49 1.28-2.04 2.35a.18.18 0 0 1-.16.1c-.74 0-.78-.74-.73-1.4.05-.74.13-1.5.1-2.24a568.6 568.6 0 0 0-.2-5.52c0-.16.06-.25.21-.29h.08c.05.02.1.05.12.09.03.03.05.08.06.13.19 3.19.3 5.85.31 8ZM12.02 31.16a.13.13 0 0 0 .02.15c.02.02.03.03.05.03a3.93 3.93 0 0 1 2.58 2.13c.35.72.42 1.4.21 2.04-.13.4-.43.55-.9.47a.18.18 0 0 1-.14-.1c-.55-1-1.43-1.43-2.65-1.3-.69.06-1.2.32-1.53.75-.05.07-.1.07-.13 0a.25.25 0 0 1 0-.2c.16-.52.92-.75 1.42-.84 1.36-.26 2.4.17 3.09 1.28.2.32.34.3.41-.08a2.99 2.99 0 0 0-.9-2.86 2.83 2.83 0 0 0-1.6-.85c-.29-.04-.67-.01-1.13.1-.63.15-1.66.27-2.15-.03a.22.22 0 0 1-.1-.26c.03-.17.1-.32.2-.47.05-.08.11-.09.18-.01.58.63 1.52.44 2.27.22.62-.2.66-1.06.48-1.57-.3-.82-1.4-1.15-2.18-1.18-.72-.03-2.06.38-2.31 1.21a1.8 1.8 0 0 0 0 1.11c.07.2.17.4.3.62.09.12.06.2-.09.22-1.53.26-2.48 1.12-2.85 2.59-.1.41-.02.97-.07 1.32-.01.06-.05.1-.11.12-.1.02-.18 0-.23-.08a.75.75 0 0 1-.15-.6c.1-.42.15-.7.17-.84a3.49 3.49 0 0 1 2.31-2.67c.08-.03.1-.09.09-.17-.1-.44-.16-.74-.1-1.18.24-2.11.26-4.04.08-5.77-.1-1-.16-1.67-.14-2.03 0-.1.04-.2.1-.29a.36.36 0 0 1 .25-.13h.06c.23-.04.33.06.31.29l-.07.98c-.03.38-.04.71-.03 1a131 131 0 0 1 .08 4.58l.04.03a.08.08 0 0 0 .09-.01 3.39 3.39 0 0 1 2.89-.67c.9.18 1.74.63 2.03 1.53.16.48.1.95-.15 1.42ZM36.13 26.15h.6c.11 0 .2.07.24.2l.02.06a.23.23 0 0 1 0 .15l-.04.07a.2.2 0 0 1-.06.05.8.8 0 0 1-.7.07.1.1 0 0 0-.1 0 .14.14 0 0 0-.04.05.18.18 0 0 0-.02.06c-.37 1.75-.58 4.1.36 5.61.06.1.06.2-.02.29l-.14.17c-.07.09-.15.1-.22 0-.6-.7-.68-2-.66-3 .01-.77.06-2.14.14-2.93.01-.1-.03-.16-.11-.16h-1.13c-.14 0-.22-.1-.24-.27v-.05c-.02-.15.03-.23.16-.23l1.33-.05c.04 0 .08-.03.11-.06.03-.04.05-.1.05-.15.03-.9.12-1.14.26-1.88a.2.2 0 0 1 .05-.1.14.14 0 0 1 .1-.04h.11c.02 0 .04.02.06.04a.2.2 0 0 1 .03.07l.01.07c-.02.73-.1.95-.23 1.85 0 .07.02.11.08.11ZM30.12 26.28l-.38.14a.16.16 0 0 1-.17-.03.18.18 0 0 1-.05-.17l.06-.27c0-.04.03-.07.06-.1a.17.17 0 0 1 .1-.04h.4l.08.01.07.07a.18.18 0 0 1 0 .18l-.07.13a.17.17 0 0 1-.1.08Z" fill="#F32B43"/><path d="M14.22 27.41c.2.26.53.42.73.68.52.68 1.21 2 1.02 2.94-.21 1.01-1.21 1.18-1.98.75-.82-.46-1.13-1.24-.94-2.35a9.44 9.44 0 0 1 .78-2.4.16.16 0 0 1 .24.05c.05.1.08.24.15.33Zm1.35 2.95a4.35 4.35 0 0 0-1.65-2.5c-.02-.01-.04 0-.07 0a.14.14 0 0 0-.05.03 6.31 6.31 0 0 0-.36 1.92 2 2 0 0 0 .47 1.43c.24.26.58.31.9.31.68 0 .9-.57.76-1.2ZM38.23 29.16c.42-.57.5-1.61 1.49-1.5.2.02.3.16.28.4 0 .07-.04.11-.11.12-.4.06-.74.33-1.02.79a3.93 3.93 0 0 0-.5 2.93.13.13 0 0 1-.08.09.14.14 0 0 1-.06.01h-.4c-.05 0-.09-.03-.1-.09l-.04-.33c-.04-1-.04-1.75-.32-2.7-.2-.65-.32-1.2-.37-1.65-.01-.15.06-.23.22-.23h.27c.1 0 .15.05.15.14a6.53 6.53 0 0 0 .4 2.05.13.13 0 0 0 .14.02l.05-.05ZM40.84 29.72a3.75 3.75 0 0 0-.74-.2c-.07-.02-.1-.06-.1-.12v-.28c0-.08.05-.13.14-.12.2 0 .4.1.6.26l.16.1.17.03c.06 0 .1-.01.15-.04a.2.2 0 0 0 .09-.09c.05-.11.1-.2.16-.28.35-.52 1.18-.81 1.94-.94a1.8 1.8 0 0 1 1.74.55l.08.13a.35.35 0 0 1-.04.3.4.4 0 0 1-.1.11 2.4 2.4 0 0 1-.79.35c-.78.2-1.67.3-2.67.33-.18 0-.3.1-.34.3-.1.41-.23.7.1 1.08.83.95 3.49-.17 4.3-.67a.22.22 0 0 1 .11-.04c.05 0 .1.01.13.04.02 0 .03.02.05.04l.02.05a.12.12 0 0 1-.04.12c-.27.23-.51.4-.73.5-.93.42-2.02.67-3.26.77a.91.91 0 0 1-.74-.25c-.56-.55-.68-1.17-.33-1.87a.11.11 0 0 0 0-.1.12.12 0 0 0-.06-.06Zm1.16-.23 2.57-.62a.02.02 0 0 0 .01 0v-.03a.39.39 0 0 0-.15-.2.84.84 0 0 0-.3-.13 1.62 1.62 0 0 0-.41-.04c-.15 0-.3.03-.46.06l-.3.08c-.16.03-.3.09-.44.15a1.5 1.5 0 0 0-.34.22.74.74 0 0 0-.19.25.36.36 0 0 0-.02.24v.02H42ZM29.98 27.58l-.49-.02a.05.05 0 0 0-.05.04l-.16 4.48c0 .03.02.05.04.05l.5.02c.02 0 .04-.02.04-.05l.17-4.47a.05.05 0 0 0-.05-.05Z" fill="#F32B43"/><path d="M46.84 29.91c-.43.5-.37 1.2.43 1.46.42.13.88.15 1.38.07 1.12-.19 2.14-.51 3.08-.97.08-.04.15-.03.2.04l.03.05a.2.2 0 0 1 .03.17.24.24 0 0 1-.12.14c-1.29.67-2.7 1.05-4.26 1.13-.4.02-.81-.04-1.1-.32-.48-.48-.62-.97-.42-1.47.54-1.32 1.62-2.05 3.24-2.2.32-.03.6 0 .83.07.35.11 1.36.59.88 1-.13.11-.25.18-.37.22-1.14.35-2.32.51-3.53.49-.05 0-.11 0-.17.03a.35.35 0 0 0-.13.1Zm.75-.45 2.83-.58h.01v-.02a.4.4 0 0 0-.16-.22.99.99 0 0 0-.34-.13c-.13-.03-.29-.05-.45-.05-.17 0-.34.02-.5.06l-.32.06c-.34.07-.65.2-.86.36-.2.16-.3.34-.24.5l.01.02h.02ZM35.75 33.44c-.15-.05-.42-.04-.8.06-.31.07-.58.1-.8.1-1.28.01-2.6-.02-3.93-.1a34.82 34.82 0 0 0-5.28.27c-1.74.19-3.25.2-4.53.05a51.61 51.61 0 0 0-4.58-.38c-.39-.01-.4-.03 0-.06.31-.02.77-.02 1.38 0l4.96.32c.52.03 2.01-.07 4.49-.3.84-.08 1.6-.13 2.27-.16l2.29-.04c.95-.02 2.57.15 3.7 0 .26-.04.65-.06 1.15-.05.17 0 .56-.02 1.16-.08.66-.07 1.63-.06 2.92.02 1.86.1 3.53.29 5.58.36l6.13.19c.05 0 .08.03.1.09l.03.13c.02.07 0 .1-.07.1-4.5-.04-9-.23-13.51-.57-.32-.02-1.08.03-2.26.14-.08.01-.21-.02-.4-.09Z" fill="#F32B43"/></svg>