<svg xmlns="http://www.w3.org/2000/svg" width="56" height="56"><path fill="#FFCB05" d="M0 0h56v56H0z"/><path d="M13.8 31c-.35 0-.8.03-.8-.42 0-.19.1-.28.25-.37.11-.09.15-.2.2-.49.08-.56.13-1.45.13-2.66 0-.33-.03-.56-.1-.67-.1-.24-.48-.2-.48-.53 0-.21.16-.4.52-.4h.35a14.57 14.57 0 001.94 0h.52c.45 0 .8.04 1.04.15.29.12.5.3.62.56a1.28 1.28 0 01-.3 1.51c-.1.08-.14.15-.14.2 0 .07.06.13.17.18.22.09.42.24.6.44.18.22.27.48.27.78 0 .41-.14.78-.42 1.1-.37.42-.95.62-1.67.62h-2.7zm1.63-4.4v.83c0 .15.02.25.07.3.03.03.08.05.16.05.18 0 .31-.04.4-.13.11-.12.17-.33.17-.62 0-.31-.07-.53-.21-.67a.5.5 0 00-.34-.12.25.25 0 00-.17.06c-.05.04-.08.14-.08.3zm0 2.31v.38c0 .41.04.66.1.76.06.08.15.12.29.12.4 0 .6-.24.6-.72 0-.37-.08-.62-.25-.75a.67.67 0 00-.43-.14c-.1 0-.17.02-.22.06-.06.04-.09.14-.09.3zM21 27.2v2.12c0 .47.14.68.45.68.34 0 .53-.27.55-.58a6.88 6.88 0 00-.03-1.34.32.32 0 00-.09-.18.55.55 0 00-.12-.07c-.15-.08-.23-.19-.23-.32 0-.12.08-.21.25-.3A5.01 5.01 0 0123.3 27c.27.01.4.14.4.42v.39l-.02.27v1.73c0 .09.08.17.24.24.13.07.2.16.2.29 0 .24-.3.42-.86.55-.33.08-.66.12-.98.12-.15 0-.25-.03-.3-.1a.29.29 0 01-.03-.12c-.01-.16-.07-.25-.15-.25-.04 0-.15.07-.33.19a1.5 1.5 0 01-.87.28c-.5 0-.86-.15-1.08-.45-.13-.17-.2-.4-.23-.65a6.83 6.83 0 01-.03-1.12v-.2c0-.19-.02-.34-.05-.46a.46.46 0 00-.24-.3.79.79 0 01-.2-.12.24.24 0 01-.04-.14c0-.15.1-.27.3-.35a7.62 7.62 0 011.74-.2c.15-.01.23.04.23.18zm5.74.81v1.29c0 .16.04.29.11.38.08.11.19.17.31.17a.9.9 0 00.41-.15.24.24 0 01.12-.04c.07 0 .12.04.18.12.05.08.08.16.08.25 0 .17-.1.33-.28.48a2 2 0 01-1.36.49c-.41 0-.75-.12-1.01-.35-.27-.24-.3-.57-.3-.97v-1.79c0-.06 0-.1-.03-.12l-.1-.01h-.42c-.08 0-.13-.02-.14-.04-.02-.02-.03-.08-.04-.18v-.18c0-.08.04-.14.1-.17l1.71-1.15a.3.3 0 01.17-.04h.32c.07 0 .1.01.13.03.03.04.04.1.04.2v.58c0 .08.01.13.04.15.03.03.08.04.16.04h.74c.1 0 .16.02.2.06.02.04.03.07.03.18v.24c0 .13-.02.21-.05.26-.04.05-.1.08-.2.08h-.73c-.07 0-.13.01-.15.04-.03.03-.04.08-.04.15zm3.84.02v1.27c0 .16.04.29.11.38.08.11.19.17.3.17a.9.9 0 00.42-.15.24.24 0 01.12-.04c.06 0 .12.04.17.12a.4.4 0 01.08.25c0 .17-.09.33-.27.48a2 2 0 01-1.37.49c-.4 0-.74-.12-1-.35a1.24 1.24 0 01-.41-.97v-1.72c0-.07-.01-.1-.03-.12l-.1-.02h-.42c-.08 0-.13-.01-.15-.04a.44.44 0 01-.03-.18v-.17c0-.08.04-.14.1-.18l1.82-1.21c.04-.03.1-.04.16-.04h.33c.06 0 .1.01.12.03.03.04.04.1.04.2v.58c0 .08.02.13.05.15.02.03.08.04.16.04h.74c.1 0 .16.02.2.06a.6.6 0 01.03.23v.2c0 .13-.02.22-.05.27-.04.05-.11.08-.21.08h-.72c-.08 0-.13.01-.15.04-.03.03-.04.08-.04.15zm5.03 1.13h-1.87c-.09 0-.13.04-.13.1 0 .14.06.2.19.34.19.22.42.32.69.32a1.5 1.5 0 00.82-.25c.1-.07.16-.1.2-.1.08 0 .15.04.21.13.07.09.1.18.1.26 0 .2-.11.38-.35.56-.43.32-.91.48-1.47.48-.55 0-1.02-.16-1.4-.49a2 2 0 01-.46-.58 1.89 1.89 0 01.55-2.45c.4-.32.87-.48 1.4-.48a1.97 1.97 0 011.72.91c.13.22.19.45.19.67 0 .17-.04.32-.13.45a.3.3 0 01-.26.13zm-1.77-.75h.4c.17 0 .26-.08.26-.23a.5.5 0 00-.13-.36.42.42 0 00-.32-.14.41.41 0 00-.35.18.58.58 0 00-.12.33c0 .07.02.13.06.17.03.04.1.05.2.05zM38.13 27c.14 0 .22.03.26.08.02.04.04.16.07.37.01.11.05.17.12.17.05 0 .1-.04.15-.11.21-.34.49-.51.84-.51a.79.79 0 01.77.53c.05.12.08.24.08.36a1 1 0 01-.16.5.86.86 0 01-.79.46.78.78 0 01-.43-.13 2.34 2.34 0 01-.27-.23c-.05-.06-.1-.09-.16-.09-.07 0-.11.04-.14.13-.02.07-.03.26-.03.57 0 .46.02.7.06.8.03.06.05.1.08.11.02.02.09.05.2.08.23.07.35.2.35.38 0 .19-.1.32-.3.41-.18.08-.6.12-1.25.12-.64 0-1.05-.07-1.24-.21-.1-.09-.16-.18-.16-.3 0-.14.08-.27.24-.38.13-.08.2-.19.22-.3.04-.26.06-.65.06-1.3 0-.12-.01-.2-.04-.27-.02-.05-.07-.09-.15-.12-.2-.07-.29-.18-.29-.33 0-.14.1-.27.28-.38.25-.15.63-.27 1.13-.35.22-.04.38-.06.5-.06zm4.91.7h.5c.1 0 .17.04.2.1l.02.07-.04.48c0 .1-.02.15-.04.17-.03.04-.09.06-.18.06-.03 0-.06 0-.11-.02a.57.57 0 00-.1 0c-.12 0-.2.03-.24.1-.05.07-.07.23-.07.46 0 .24.03.42.1.63.02.1.06.17.12.21l.2.08c.24.07.36.2.36.39 0 .12-.06.22-.18.32-.21.17-.73.25-1.56.25-.94 0-1.4-.18-1.4-.55 0-.1.03-.19.1-.25l.2-.11a.43.43 0 00.27-.36c.04-.31.07-.55.07-.8 0-.12-.03-.2-.08-.27-.04-.05-.12-.08-.24-.08-.17 0-.26 0-.28-.02-.05-.02-.07-.05-.07-.07v-.03l.04-.51c0-.1.02-.15.06-.17a.56.56 0 01.16-.02c.1 0 .16-.06.16-.15a.87.87 0 00-.11-.25 1.4 1.4 0 01-.19-.67c0-.33.12-.6.34-.8.33-.3.8-.45 1.4-.45.51 0 .91.12 1.21.35.24.19.35.4.35.64 0 .2-.07.35-.21.48-.1.1-.24.14-.39.14a.87.87 0 01-.54-.2 3.69 3.69 0 01-.31-.32c-.12-.12-.23-.19-.34-.19a.24.24 0 00-.2.1.3.3 0 00-.07.18c0 .21.2.44.6.68.14.1.24.17.29.23.02.03.05.07.07.13.02.03.06.05.13.05zm3.34.08v1.29c0 .53 0 .8.02.91.02.12.09.2.2.25.1.05.17.09.2.12.03.05.05.1.05.17 0 .14-.08.26-.23.34-.16.1-.53.14-1.1.14-.5 0-.86-.04-1.07-.12a.64.64 0 01-.22-.14.36.36 0 01-.1-.25c0-.08.03-.14.1-.2a1 1 0 01.16-.07c.1-.05.17-.17.2-.38a13.76 13.76 0 00.02-2.62.78.78 0 00-.14-.37.59.59 0 00-.16-.13.77.77 0 01-.2-.16.37.37 0 01-.09-.23c0-.13.07-.25.2-.36.21-.16.64-.3 1.28-.41.31-.06.53-.08.66-.08.21 0 .32.12.32.38l-.04.6-.06 1.32zm4.52 1.17l-.52 1.44a3.95 3.95 0 01-.98 1.48c-.35.33-.76.5-1.25.5-.4 0-.71-.11-.96-.32a.76.76 0 01-.28-.61c0-.2.07-.38.2-.53.13-.14.3-.2.48-.2a.6.6 0 01.46.2c.08.07.13.17.16.28l.04.16c.01.07.05.12.1.16.04.02.06.02.1.02.08 0 .16-.04.22-.12a.42.42 0 00.07-.25c0-.13-.07-.34-.2-.64l-.98-2.04c-.12-.24-.2-.38-.26-.44a1.43 1.43 0 00-.3-.16.33.33 0 01-.14-.12.34.34 0 01-.06-.2.3.3 0 01.08-.2c.14-.16.42-.26.84-.3.3-.04.6-.06.87-.06.4 0 .67.06.81.18.12.09.17.19.17.3 0 .07-.03.15-.09.24a.42.42 0 00-.09.23c0 .1.05.23.14.41.15.28.26.43.34.43.19 0 .36-.12.45-.35a1 1 0 00.07-.38.44.44 0 00-.1-.3c-.1-.12-.15-.22-.15-.3 0-.14.08-.24.23-.31.2-.1.48-.15.78-.15.57 0 .85.14.85.42 0 .09-.03.16-.08.23a.78.78 0 01-.32.17.58.58 0 00-.23.14c-.13.16-.3.5-.48 1z" fill="#C1242C"/><path d="M7.64 26.81l.94-.7 1.34-.77.62-.3h.67l.47.38.24.9-.15.4-.26.36-.44-.12-.88-.3-.73-.35-.38.18.14.65.09.74v.7l-.26.16-.56.17-.47-.17-.23-.24-.06-.15-.24-.47.1-.45.05-.62z" fill="#C42E20"/><path fill-rule="evenodd" d="M9.05 23.53c.25-1.4.57-2.3.87-2.48.16-.1.42-.04.55.12.14.2.34.89.36 1.24 0 .15.06.4.12.56a4 4 0 01.15.71l.09.65c.04.22.02.24-.19.43l-.23.19h.29c.21 0 .32.04.45.14.12.18.16.29.2.38.03.1.07.18.16.3.02.02.02.07.01.12v.14c.1.14.16.37.1.44a.54.54 0 00-.12.25c-.02.1-.04.18-.11.25l-.08.1c-.04.07-.08.13-.17.13a5.42 5.42 0 01-1.8-.67c-.02.02 0 .05.03.06.04.01.08.05.08.08s.08.18.17.33c.19.3.22.46.12.52-.11.07-.4-.15-.71-.55-.06-.08-.13-.13-.15-.1-.02.01 0 .07.05.13.1.12.13 1.58.04 1.75-.03.06-.12.1-.21.1a.54.54 0 00-.28.1c-.11.08-.47.06-.58-.04a.23.23 0 00-.14-.06.59.59 0 01-.48-.67c.01-.03-.05-.08-.1-.12a.56.56 0 01-.08-.07c-.06-.07-.06-.15 0-.4.1-.44.07-.5-.19-.28-.28.23-.52.28-.7.16a.5.5 0 00-.23-.1c-.05 0-.29-.13-.53-.3l-.77-.51c-.45-.29-1.03-.85-1.03-1 0-.42.76-.6 1.87-.43 1.62.23 2.27.4 2.5.65.17.2.2.13.04-.15-.17-.31-.32-.42-.86-.65-.46-.2-.74-.4-.74-.55 0-.09.02-.08.1.02a2 2 0 00.79.5c.18.07.43.22.54.33.11.11.24.2.27.2.14 0 0-.48-.29-1.07-.28-.55-.36-.82-.25-.82.03 0 .07.08.09.17.02.1.13.37.24.6.12.25.25.58.3.75.05.16.14.35.21.41.13.11.13.11.08-.04a5.3 5.3 0 01.15-1.95zm1.4-1.03c.03-.3.06-.58-.05-.65-.39-.24-.61.26-.8.75l-.18.6-.14.48c-.05.15-.15 1.5-.14 1.46.02-.07.05-.13.08-.13.07 0 .15-.44.19-.68 0-.07.02-.12.02-.13.14-.49.23.17.09.47-.1.22-.18.43-.16.47.01.04.04 0 .07-.09.02-.08.07-.16.11-.16a5.07 5.07 0 00.47-.12c.11 0 .24-.09.36-.18l.22-.14a.33.33 0 00.15-.26c0-.23-.07-.44-.15-.64-.08-.2-.16-.4-.16-.62 0-.14.01-.29.03-.43zm-.4 2.66c.03.03.6-.37.84-.57.18-.16-.5.04-.74.21-.13.1-.1.1.17 0 .06-.03.01.04-.1.14-.1.1-.18.2-.16.22zm-4.84.16c2 .11 2.8.68 2.73.7-.18.07-1.15-.14-1.2-.12-.09.03.03.14.28.2.19.05.5.04.56.14.03.04-.37.33-.37.36-.25 0-.4 0-.62.12-.96.45-3.27-1.37-1.38-1.4zm2.23 1.35c-.03 0-.02-.04.02-.1.06-.06.06-.08 0-.08-.11 0-.61.35-.7.5-.08.12-.04.1.3-.14.16-.11.15-.1-.06.1-.29.26-.28.33.02.12.25-.18.48-.4.42-.4zm2.6.7c.02.24-.9-.72-.8-.82.12-.12.8.62.8.83zm-1.13-.57c.05-.19-.25-.4-.38-.3a.68.68 0 00-.07.64c.14.39.37.02.45-.34zm.2.55c0-.1-.08-.32-.12-.42-.09.12-.12.5-.06.5a.2.2 0 00.12-.05.55.55 0 01.05-.03zm-.77-.71c-.04-.1-.23.02-.32.08 0 .25-.14.62-.27.84-.09.14-.23.37-.17.35.28-.1.27.15.26.36 0 .12-.01.23.03.26.46.3.96.08 1.23-.06a3.44 3.44 0 00-.35-1.04c-.2 0-.48-.02-.46-.3l.03-.18c.03-.13.05-.26.02-.31zm2.03-.74a.66.66 0 00-.62-.12c-.13.1-.02.44.18.46.36.02.77-.1.44-.34zm-.35.45c.09.06.27.2.36.23.01-.03.04-.05.07-.07.03-.02.06-.04.07-.07.01-.06-.36-.14-.5-.1zm.34-.92c-.1-.03-.64 0-.43.2.05.05.18.07.3.08.22.02.48.1.39.39l-.05.17c-.02.05.63.53.88.64.53-.57.44-1.77-.56-1.58-.14.02-.26.05-.26.09-.02.2-.17.23-.27.01z"/></svg>