<svg width="56" height="56" viewBox="0 0 56 56" xmlns="http://www.w3.org/2000/svg"><path fill="#F0F3FA" d="M0 0h56v56H0z"/><path d="M20 44V25h-.5L15 44h5Z" fill="#2E3293"/><path d="M20 25h-.5l.5-2.5V25Z" fill="#F11E25"/><path d="M33.67 44H31c1.6-.53 3.33-2.89 4-4l-1.33 4Z" fill="#2E3293"/><path d="M25 38v-5h2.5c.83 0 2.5.5 2.5 2.5S28.33 38 27.5 38H25ZM25 27v-5h2.5c.83 0 2.5.5 2.5 2.5S28.33 27 27.5 27H25Z" fill="#EC1D25"/><path d="M22.67 12 21 19.2c1.67-2.4 4.83-3.2 6.5-3.2 4.9 0 8.5 4.4 8.5 8 0 2.88-1.11 4.8-1.67 6 1.11 1.2 1.67 4.2 1.67 6l5-24H22.67Z" fill="#EC1D25"/></svg>