<svg xmlns="http://www.w3.org/2000/svg" width="56" height="56"><path fill="#F0F3FA" d="M0 0h56v56H0z"/><path fill-rule="evenodd" d="M44 28.02V28c0-1.02-.1-2-.28-2.97-1.88-1.25-3.56-1.4-4.59-1.12-.29.08-.52.2-.7.32-.42.3-.76.96-.31 1.36.31.28 1.02.7 2.52 1.06 1.45.34 2.55.8 3.36 1.37zm-1.46 6.66l-.3.1c-1.87.5-4.2.16-6.46-1.17-.69-.4-.8-1.28-.3-1.89.48-.6 1.39-.7 2.08-.33 1.6.86 3 .94 3.9.7.29-.08.52-.2.7-.32.42-.3.75-.96.3-1.36-.3-.28-1.02-.7-2.52-1.06-1.71-.41-3.8-1.12-4.6-2.79-1.12-2.3.7-4.7 3-5.33a7.59 7.59 0 014.24.16 16 16 0 00-29.41.6A6.12 6.12 0 0116.5 21c2.02 0 3.83 1 5.02 2.56.46.6.22 1.42-.42 1.81-.75.47-1.75.12-2.4-.48a3.3 3.3 0 00-2.2-.89c-1.73 0-3.5 1.58-3.5 4s1.77 4 3.5 4a3.3 3.3 0 002.2-.9c.6-.54 1.44-.88 2.18-.56.78.34 1.13 1.27.61 1.95A6.31 6.31 0 0116.5 35a6.12 6.12 0 01-3.33-.99 16 16 0 0029.37.67zM25.45 21c-.8 0-1.45.65-1.45 1.45V33.5a1.5 1.5 0 003 0V30h4.5a1.5 1.5 0 000-3H27v-3h5.5a1.5 1.5 0 000-3h-7.05z" fill="url(#aef0heoqf)"/><defs><linearGradient id="aef0heoqf" x1="28.5" y1="12" x2="28.5" y2="44" gradientUnits="userSpaceOnUse"><stop stop-color="#F38D2C"/><stop offset="1" stop-color="#ED2324"/></linearGradient></defs></svg>