<svg width="56" height="56" viewBox="0 0 56 56" xmlns="http://www.w3.org/2000/svg"><path fill="url(#a0laecbgz)" d="M0 0h56v56H0z"/><path d="M50.67 29.08a.7.7 0 0 0-.39-.26c-.53-.14-1.03-.3-1.52-.49-1.6-.6-1.6-2.63.02-3.18a3.16 3.16 0 0 1 3.11.73c.02.02.03.04 0 .07l-.82.92a.04.04 0 0 1-.03.01.04.04 0 0 1-.03 0c-.47-.44-1.48-.83-2.02-.36a.32.32 0 0 0-.03.45c.03.04.08.07.13.1l1.6.52c.72.23 1.14.67 1.27 1.32.12.6-.04 1.1-.47 1.5-1.18 1.08-3.09.53-4.12-.52a.05.05 0 0 1 0-.07l.81-.87c.03-.04.06-.04.09 0 .59.56 1.65 1.07 2.35.49a.26.26 0 0 0 .05-.36Z" fill="#fff"/><path d="M10.74 27.78a.27.27 0 0 0-.43-.15c-1.24.99-2.45 1.93-3.64 2.83-1.04.8-2.43.25-2.63-1.03a3.45 3.45 0 0 1 2.44-3.69.32.32 0 0 1 .4.28c.01.09 0 .17-.04.25l-.63 1.28c-.17.35-.07.61.3.79a.2.2 0 0 0 .18 0c.2-.08.38-.18.57-.28l4.69-2.78c.14-.09.3-.12.46-.11a.28.28 0 0 1 .25.36c-.18.57-.39 1.1-.62 1.6a.54.54 0 0 0 .02.52.35.35 0 0 0 .45.15c1.76-.8 3.57-1.62 5.43-2.49a.48.48 0 0 1 .25-.04c.08.01.16.04.23.1a.1.1 0 0 1 .03.03c.09.17.05.31-.12.41l-6.7 4.05c-.22.13-.45.24-.67.32a.3.3 0 0 1-.16.02c-.45-.08-.7-.51-.55-.96.13-.38.27-.72.4-1.03.09-.17.11-.31.09-.43Z" fill="#E83636"/><path d="M22.04 29.46c.48.3 1.37.18 1.92.17a.04.04 0 0 1 .03.01v.02l.01.02v1.26c0 .04-.02.06-.05.06h-1.1c-3.18.11-3.93-4.7-1.07-5.83.66-.26 1.47-.14 2.17-.16.03 0 .05.02.05.05v1.26c0 .03-.01.04-.04.04-.59.04-1.42-.12-1.93.2a1.7 1.7 0 0 0 0 2.9ZM27.76 28.19a.08.08 0 0 0-.02-.04.07.07 0 0 0-.09 0 .08.08 0 0 0-.03.04l-1.18 2.77-.02.03a.06.06 0 0 1-.04 0l-1.35.01h-.01a.02.02 0 0 1 0-.03l2.5-5.85a.2.2 0 0 1 .07-.09.19.19 0 0 1 .2 0 .2.2 0 0 1 .08.09l2.5 5.83v.03l-.02.02h-1.34c-.02 0-.03 0-.04-.02a.08.08 0 0 1-.03-.03l-1.18-2.76ZM32.24 31h-1.18l-.04-.02a.06.06 0 0 1-.02-.05V25.04a.06.06 0 0 1 .04-.03h.02l.85-.01.03.02.02.02 1.79 2.36a.06.06 0 0 0 .04.02.06.06 0 0 0 .05-.02l1.81-2.37.02-.01.03-.02h.82c.02 0 .03 0 .04.02l.02.04v5.88c0 .01 0 .03-.02.04a.06.06 0 0 1-.04.02H35.4c-.02 0-.03-.02-.05-.03a.06.06 0 0 1-.01-.04V27.8l-.01-.04a.06.06 0 0 0-.03-.02h-.04a.06.06 0 0 0-.03.02l-1.39 1.82-.02.02a.06.06 0 0 1-.05 0l-.02-.02-1.34-1.78a.06.06 0 0 0-.03-.02h-.03a.06.06 0 0 0-.03.02l-.01.04v3.08c0 .02 0 .04-.02.05a.06.06 0 0 1-.04.02ZM38.75 29.12v1.79c0 .06-.03.09-.08.09h-1.08c-.06 0-.1-.12-.1-.18v-3.14c0-.07.04-.1.1-.1h2.18c1.08 0 1.07-1.2 0-1.21h-2.26c-.04 0-.05-.07-.05-.1v-1.25l.04-.01h2.4c2.69.04 2.6 4.05-.24 3.99h-.78c-.09 0-.13.03-.13.12Z" fill="#fff"/><path d="M43.77 28.53c.01 1.6 1.9 1.62 1.9.07v-3.52c0-.05.03-.08.08-.08h1.14c.06 0 .11.03.11.09v3.25c.03 3.55-4.53 3.5-4.5.11.02-1.16.02-2.28.01-3.36 0-.06.03-.09.09-.09h1.09a.08.08 0 0 1 .06.03.09.09 0 0 1 .02.06v3.44Z" fill="#fff"/><defs><linearGradient id="a0laecbgz" x1="10.42" y1="9.71" x2="68.15" y2="76.02" gradientUnits="userSpaceOnUse"><stop stop-color="#1A1E21"/><stop offset="1" stop-color="#06060A"/></linearGradient></defs></svg>