<svg xmlns="http://www.w3.org/2000/svg" width="56" height="56"><path fill="#F0F3FA" d="M0 0h56v56H0z"/><path d="M5.05 26.85c.3-2.88 1.98-5.64 5.14-5.85 2.32.03 4.08 1.77 4.56 4h-1.6a3.22 3.22 0 00-3.05-2.54c-2.43 0-3.44 2.89-3.5 4.84 0 2.07.74 5.17 3.37 5.2H10c1.91 0 3.28-1.7 3.4-3.5H15c-.35 2.4-1.98 5-4.7 5-3.84.12-5.62-3.74-5.25-7.15z" fill="#0B509D"/><path d="M21.5 23.24L18.06 34h-1.78l4.21-13h1.92l4.33 13h-1.78L21.5 23.24z" fill="#80807C"/><path d="M28.03 21h2.45l3.56 10.9L37.59 21h2.47v13h-1.7V23.65L34.85 34h-1.64l-3.48-10.21V34h-1.7V21zm15.25 8.57c0 1 .31 1.75.94 2.23.59.47 1.32.74 2.08.78h.12c1.3 0 2.95-.72 2.95-2.18 0-.8-.4-1.35-1.02-1.62-.68-.3-1.39-.53-2.12-.68l-.26-.05-.26-.06c-.9-.2-1.77-.55-2.56-1.03-.76-.47-1.1-1.38-1-2.76.06-.86.44-1.62 1.12-2.26.7-.63 1.69-.95 3-.94 1.3 0 2.34.32 3.13.97.79.64 1.15 1.57 1.09 2.76H49v-.18c0-.7-.28-1.24-.83-1.62a3.42 3.42 0 00-1.83-.6h-.09c-.63 0-1.24.18-1.76.53-.54.34-.82.88-.85 1.62a1.52 1.52 0 00.95 1.27c.62.27 1.27.47 1.93.62l.4.1.4.1c.84.21 1.64.54 2.38.98.74.44 1.17 1.2 1.3 2.29.06 1.35-.4 2.37-1.37 3.07A5.58 5.58 0 0146.41 34h-.05a5.21 5.21 0 01-3.19-1.08c-.96-.72-1.43-1.84-1.4-3.35h1.5zm-16.65-4.72a.32.32 0 00-.24-.03l-1.63.2a.24.24 0 00.02.45c.06.03.12.03.18.01l.77-.07-1.05 1.19-1.95.12-.07.13-.68 1.15h-2.23l-.07.1-.68.9h-2.25l-.08.13-.82 1.31a.24.24 0 00.25.38.25.25 0 00.16-.1l.75-1.2h2.24l.08-.1.67-.92h2.27l.07-.12.68-1.17 1.89-.15.06-.06 1.22-1.32-.03 1a.25.25 0 00.32.25.25.25 0 00.17-.21l.09-1.65a.25.25 0 00-.1-.22z" fill="#0B509D"/></svg>