<svg width="56" height="56" xmlns="http://www.w3.org/2000/svg"><path fill="#00ADEF" d="M0 0h56v56H0z"/><path d="M32.58 13.782L43.492 33.66c1.312 2.143-.052 4.341-2.542 3.956-.786-.122-5.849-.808-12.247-1.655l1.825-2.435 8.665.937c.718.085 1.052-.121.639-.89 0 0-8.16-16.246-8.24-16.433-.274-.505-.578-.342-.826.111 0 0-8.015 14.388-8.12 14.572-.297.565-.182.843.675.925l3.15.34-1.814 2.214-4.113-.64c-1.027-.132-1.362-.773-.797-1.822.426-.791 9.993-18.053 9.993-18.053.19-.33.353-.584.548-.924.57-.992 1.606-1.258 2.292-.08z" fill="#fff"/><path d="M8.913 29.033l14.32-2.496-1.22 2.196-9.885 1.64c-.505.113-.46.335-.14.544 0 0 8.622 5.892 9.456 6.434.672.45 1.032.631 1.597-.084 0 0 7.003-8.492 7.367-9.064.533-.707.772-.988-.083-.84l-4.861.804 1.245-2.222 6.52-1.173c1.488-.248 2.079.775 1.35 1.858-.626.885-10.959 14.63-10.959 14.63-.668.966-1.17.927-1.954.246-.965-.793-13.19-10.81-13.19-10.81-.801-.656-.548-1.483.437-1.663z" fill="#FFD600"/></svg>