<svg width="56" height="56" fill="none" xmlns="http://www.w3.org/2000/svg"><path fill="#0193DE" d="M0 0h56v56H0z"/><path d="M23 28.064V33h18v-3.187l-12.757-3.582L23 28.064zm18 5.338H23V38h18v-4.598z" fill="#fff"/><path d="M27 35.624v1.85h2v-1.85c0-.477-.162-1.292-.963-1.304-.851-.012-1.037.827-1.037 1.304z" fill="#0193DE"/><path d="M21.128 28.207c-.922.012-1.081.803-1.046 1.197h2.182c.005-.404-.215-1.21-1.136-1.197z" stroke="#fff" stroke-width=".5"/><path d="M28.558 28.706c-.837.01-.982.73-.95 1.088h1.983c.005-.367-.195-1.1-1.033-1.088zm4.069 0c-.838.01-.983.73-.95 1.088h1.983c.004-.367-.196-1.1-1.033-1.088z" fill="#0193DE"/><path d="M44.554 31.386c0 2.386-1.374 4.605-3.723 6.364H14.799c-2.35-1.759-3.723-3.978-3.723-6.364 0-2.748 1.823-5.276 4.856-7.13 3.03-1.852 7.23-3.006 11.883-3.006 4.653 0 8.853 1.154 11.882 3.005 3.034 1.855 4.857 4.383 4.857 7.13z" stroke="#fff" stroke-width=".5"/><path d="M15.168 38v-7.96m0 0l-3.107 1.26m3.107-1.26l3.188-1.236m0 0v4.37m0-4.37v-1.97m0-1.97H17m1.356 0h6.667m-6.667 0v1.97m8.154-1.97h-1.487m0 0v1.68m0 0L22.26 27.57m2.763-1.025l3.16-1.077 15.352 4.414m-25.18 3.293h-4.78m4.78 0H23m-4.644-6.341H17m3.328 3.308h1.673v1.673h-1.673z" stroke="#fff" stroke-width=".5"/><path fill="#0193DE" d="M27.608 30h1.923v2h-1.923zm4.069 0h2v2h-2zM32 34.32h5.003v3.154H32z"/><path d="M15.405 33.402H23V38h-7.595v-4.598z" fill="#AADCFD"/><path d="M34.261 25.959c-.462-.989-1.312-1.057-1.679-.968.892-.773 1.599-.322 1.84 0 1.043-.45 1.563-.017 1.693.256-1.064-.162-1.679.407-1.854.712zm4.234.119c-.122-.474-.49-.575-.66-.565.457-.268.731-.01.811.152.497-.113.69.121.725.252-.456-.159-.774.04-.876.16zm.721 1.8c-.122-.474-.49-.574-.66-.565.457-.267.731-.01.81.152.498-.113.69.121.726.252-.456-.159-.774.041-.876.16zm-2.072-1.024c-.174-.677-.701-.82-.943-.807.653-.382 1.044-.014 1.159.217.71-.16.986.174 1.035.361-.65-.227-1.105.058-1.251.23z" fill="#fff"/><path d="M8 30.153l.97.227m.972.226l-.971-.227m0 0l.263-1.297m0 0l-.98-.29m.98.29l1.016.272m6.31-8.927l.31.948m.31.947l-.31-.947m0 0l1.255-.514m0 0l-.27-.923m.27.923l.347 1.002m23.958.561l-.644.76m-.644.762l.644-.761m0 0l1.096.8m0 0l.644-.715m-.644.715l-.672.82m-31.724 3.932l-.543-.582m0 0l-.945-1.015h1.488m-.543 1.015l.543-1.015m.708 0h-.708m4.159-3.325l-.083-.792m0 0l-.09-1.305 1.135.822m-1.045.483l1.045-.483m.564.427l-.564-.427m10.7-2.238l.299-.68m0 0l.479-1.096.587 1.075m-1.066.02l1.066-.02m.335.59l-.335-.59m3.517.861l.373-.562m0 0l.75-1.105.35 1.256m-1.1-.15l1.1.15m.166.598l-.167-.598M9.578 25.637l1.867.51-.887-1.726m1.979-1.454l-1.035.961.6.654m1.56-.182l-.962.835-.599-.653m0 0l.944-.817m12.015-5.239l-1.301.07.061.813m1.237.79l-1.175.023-.062-.813m0 0l1.152-.02M47.46 30.443l-.28-1.384-.87.17m-.66 1.425l-.21-1.256.87-.17m0 0l.204 1.232M20.49 20.325c0 .473-.368.842-.805.842-.437 0-.806-.37-.806-.842 0-.473.369-.842.806-.842.437 0 .805.369.805.842zm24.015 5.685c-.403.248-.91.128-1.14-.244-.228-.372-.107-.88.296-1.127.403-.249.91-.128 1.14.244.228.372.107.88-.296 1.127zm-23.074-5.04l-.288-2.036 1.063 1.413.39-1.748.55 1.97m21.107 6.687L46 26.171l-.856 1.53 1.749-.337-1.58 1.298m-14.547-9.784c-.035-.172-.23-.52-.729-.527-.623-.011-.781.665-.77.94.01.274.157.886.77.908.49.016.648-.324.665-.497m2.755 1.086l.492-1.541.829 1.408.43-1.515m3.448 3.389l.787-1.334.506 1.512.81-1.343m-4.514.259l.404-1.043m1.312-.393l-.987-.448-.325.84m0 0l.897.416m1.189-.65l-.785 1.872" stroke="#fff" stroke-width=".5"/></svg>