<svg width="56" height="56" viewBox="0 0 56 56" xmlns="http://www.w3.org/2000/svg"><path fill="#F0F3FA" d="M0 0h56v56H0z"/><path fill-rule="evenodd" d="M26.11 22.62a4.48 4.48 0 0 0-.63-1.03c-.2-.23-.16-.27.1-.1.23.14.45.2.66.18.11-.01.13-.05.04-.12a.33.33 0 0 0-.1-.05.26.26 0 0 1-.11-.07l-1.3-1.33a1.2 1.2 0 0 1-.36-.78 1 1 0 0 0-.17-.5c-.25-.38-.53-.7-.82-.93-.21-.18-.39-.4-.52-.7a.32.32 0 0 1-.03-.17c.06-.44-.12-.76-.52-.97-.07-.04-.1-.02-.07.05.1.3.07.61-.09.95a.19.19 0 0 1-.09.1 2.7 2.7 0 0 1-.2.1 1.5 1.5 0 0 0-.35.18c-.31.25-.64.48-.99.69-.2.12-.48.33-.83.64-.21.2-.38.33-.5.42a2.9 2.9 0 0 1-.54.33L17 20.3a.69.69 0 0 0-.29.26.98.98 0 0 0-.14.37c0 .06 0 .12.03.17.03.06.07.1.12.13.28.14.52.32.74.52.04.04.09.06.14.07.06 0 .11-.01.16-.05l.4-.28a.3.3 0 0 1 .17-.06h.82c.08 0 .14.03.2.07.25.2.5.34.74.42.27.1.55.13.85.1.02 0 .05 0 .07.02.02.02.03.04.03.07-.02.5-.05.9-.1 1.16-.07.43-.2.78-.39 1.06a.3.3 0 0 1-.12.1c-.54.26-.9.5-1.06.74-.28.4-.57.83-.86 1.28-.2.32-.52.47-.96.45-.5-.01-.98-.03-1.44-.06a.37.37 0 0 1-.2-.06l-.02-.02c-.2-.14-.36-.25-.48-.3-.21-.12-.38-.17-.53-.16a.3.3 0 0 0-.2.08c-.14.13-.3.2-.48.19-.08 0-.13.03-.13.11-.1.87-.1 1.74-.04 2.6.01.13.06.24.16.34.06.07.17.14.32.24l.26.2a.5.5 0 0 1 .16.24c.1.4.35.77.75 1.13a.2.2 0 0 0 .15.05l.3-.02c.1 0 .13.04.1.13a.27.27 0 0 0 .01.2c.03.07.09.12.16.14.3.1.56.26.75.48.24.28.36.24.36-.12v-1c0-.04-.02-.07-.06-.09l-1.13-.38a.19.19 0 0 1-.13-.16l-.02-.09c0-.07.02-.1.1-.08l.34.07c.06.01.1-.01.09-.08l-.06-.94c0-.05-.03-.08-.09-.09h-.26a.16.16 0 0 1-.12-.07c-.15-.2-.1-.34.14-.44a.3.3 0 0 1 .33.04c.4.33.86.53 1.4.62a.47.47 0 0 1 .4.35c.03.14.1.3.19.45l.28.4.33.5c.24.43.6.82 1.06 1.17.48.35.98.58 1.5.68l1.16.24c.13.03.32.1.55.2.3.13.54.2.71.22.1.01.17.06.2.15.12.23.3.36.56.38.07 0 .12.04.15.1.03.05.04.1.01.16a3.02 3.02 0 0 0-.12 2.08c.14.5.44 1.15.91 1.93.05.07.12.14.22.22l.15.13c.04.06.08.13.11.21.18.58.26 1.16.25 1.76 0 .23-.05.44-.13.62-.1.2-.16.39-.22.6a6 6 0 0 1-.51 1.12c-.15.25-.25.44-.31.58a.4.4 0 0 0-.04.19c.01.22-.1.34-.32.37a.88.88 0 0 0-.7.52 3.5 3.5 0 0 0-.27.95c-.01.07.02.11.1.11l1.6.02c.06 0 .1-.02.13-.08.23-.4.19-.78-.12-1.12a.09.09 0 0 1-.03-.09.1.1 0 0 1 .07-.06l.95-.33c.07-.02.1-.07.1-.15-.1-1.38.38-2.4 1.43-3.05.2-.12.31-.33.34-.61.02-.17.01-.43-.03-.77l-.02-.26c0-.05.02-.1.1-.13.05-.03.1-.02.14.02.29.32.6.6.94.85.1.07.14.16.15.28 0 .12-.03.21-.12.3-.5.45-.94.87-1.35 1.27a2.6 2.6 0 0 0-.52.77.22.22 0 0 0 0 .16l.07.21c.02.06 0 .1-.07.13-.53.2-.82.62-.85 1.27 0 .04.02.07.07.07h1.51c.16 0 .27-.08.32-.22a.43.43 0 0 0-.03-.38 3.5 3.5 0 0 1-.21-.41c-.03-.07 0-.12.07-.13.23-.04.4-.13.5-.27a.33.33 0 0 0 .07-.2v-.47c0-.05 0-.1.04-.14A5.37 5.37 0 0 1 31.28 41c.15-.07.22-.24.2-.5 0-.23.07-.26.24-.09.06.07.13.13.22.2.07.05.14.06.22.02.06-.02.07-.06.04-.1a1.94 1.94 0 0 1-.14-1.48c.02-.07.07-.1.14-.08.06 0 .1.04.1.1.09 1.1.45 1.93 1.1 2.51.21.2.46.35.73.46.26.1.52.15.8.14a2.03 2.03 0 0 0 1.45-.72v-.04l-.05-.03c-.04-.04-.08-.03-.12.01-.22.28-.56.4-1.02.36a2.13 2.13 0 0 1-1.05-.38c-.45-.34-.63-.8-.55-1.4.14-.95.56-1.61 1.26-2a.08.08 0 0 1 .09 0c.02.02.04.04.04.07l.02.25c0 .03.02.05.05.06.03.02.06.01.09 0 .16-.12.3-.3.41-.53a2.26 2.26 0 0 0 .14-1.51c-.08-.25-.2-.43-.37-.56a.84.84 0 0 1-.3-.39.73.73 0 0 0-.16-.24 2.66 2.66 0 0 0-.32-.27c-.04-.03-.04-.07 0-.1l.04-.03c.03-.03.06-.03.1 0l.46.3c.1.07.13.05.09-.06a1.5 1.5 0 0 0-.42-.6 10.16 10.16 0 0 0-2.48-1.6.26.26 0 0 1-.16-.21v-.08c-.02-.2-.06-.34-.12-.44a7.8 7.8 0 0 0-.93-1.23.18.18 0 0 1-.05-.16l.06-.34c.05-.37.11-.63.18-.8.12-.25.32-.47.6-.63a.24.24 0 0 0 .09-.1.16.16 0 0 0-.02-.17.1.1 0 0 0-.08-.04l-.08-.01c-.1-.01-.1-.04-.03-.1.15-.1.27-.23.36-.4.05-.1.12-.26.19-.48.1-.3.2-.5.29-.64.32-.47.55-.95.68-1.43.06-.26.23-.38.5-.35.05 0 .1.03.13.07l7.68 9.39c.08.1.17.12.28.07.07-.02.1-.1.1-.24 0-.06-.02-.1-.05-.15a904.2 904.2 0 0 0-7.78-9.47.83.83 0 0 1-.15-.47 4.17 4.17 0 0 1 .02-.63c0-.07.04-.1.1-.1.13-.02.25-.05.36-.1l.28-.19c.11-.09.2-.15.28-.19.22-.12.44-.26.65-.4a.47.47 0 0 0 .18-.27c.03-.08.04-.19.04-.33 0-.06.03-.09.1-.06l.4.14c.12.04.18.12.19.23 0 .11-.04.2-.14.26a.86.86 0 0 0-.4.45.26.26 0 0 1-.08.12c-.21.16-.44.28-.7.36-.09.03-.13.1-.13.19v.45c0 .06.01.12.06.16l.38.45c.04.05.1.07.17.05a.52.52 0 0 1 .4.06c.1.06.1.04.05-.04-.1-.16-.17-.31-.18-.46a.57.57 0 0 1 .07-.37.6.6 0 0 1 .3-.24c.15-.06.31-.08.5-.06.35.03.65 0 .88-.11a.68.68 0 0 0 .42-.69c0-.4-.15-.78-.44-1.14a1.2 1.2 0 0 1-.25-.55.1.1 0 0 1 0-.06l.05-.04c.04-.02.07 0 .09.03.05.13.15.27.3.42l.23.3c.1.15.15.14.18-.04a.33.33 0 0 0-.06-.25c-.1-.12-.13-.36-.13-.71 0-.26-.1-.5-.32-.69-.2-.18-.44-.28-.72-.32a.18.18 0 0 1-.1-.06.15.15 0 0 1-.05-.1c0-.2-.11-.33-.31-.4-.34-.1-.67-.13-.97-.08-.37.06-.61.25-.72.55a.96.96 0 0 0-.01.35v.14c.01.06-.02.09-.08.08a3.66 3.66 0 0 1-.64-.12.9.9 0 0 0-.61.06 3.36 3.36 0 0 0-.7.45c-.11.07-.28.13-.5.17l-.12.02a.22.22 0 0 0-.15.11.2.2 0 0 0-.01.19l.15.35c.04.07.01.1-.06.08l-.67-.13a.21.21 0 0 1-.12-.08l-.92-1.1a.59.59 0 0 1-.12-.25 1.57 1.57 0 0 1-.02-.26v-.14c-.05-.6-.37-.86-.98-.81a.15.15 0 0 1-.14-.06l-5.45-6.66a.31.31 0 0 1-.07-.16 4.33 4.33 0 0 1-.05-.68.3.3 0 0 0-.1-.24 1408.9 1408.9 0 0 1-3.51-3.1c-.18-.16-.21-.13-.09.07l2.38 4c.04.07.1.11.17.13l.77.18c.06.02.11.05.15.1l5.8 7.05c.03.03.04.07.02.12-.07.2 0 .34.22.44.07.04.12.09.14.16.02.07.01.14-.03.2-.18.3-.22.6-.1.87a.46.46 0 0 1 .04.24c0 .26 0 .46.02.6.03.23.12.4.25.5.13.1.26.22.37.33.04.04.05.09.03.14a.13.13 0 0 1-.11.1c-.3.05-.43.22-.39.5.02.07 0 .14-.06.2-.14.14-.25.3-.32.5a4 4 0 0 1-.36.64l-.29.49a.21.21 0 0 1-.12.1l-.98.37a.31.31 0 0 1-.16.02l-.46-.08c-.03 0-.05 0-.06.04l-.01.05.02.02c.08.02.15.06.22.1.04.04.06.08.04.13-.01.05-.05.07-.1.07a.89.89 0 0 0-.67.31c-.05.05-.1.06-.15.02a1.4 1.4 0 0 1-.5-.86l.03-.06a.07.07 0 0 1 .07-.01c.18.06.37.06.55.01.21-.06.2-.11 0-.17a2.51 2.51 0 0 1-.68-.27c-.1-.06-.12-.14-.08-.24.04-.1.16-.15.37-.13l.06.02c.15.05.3.1.45.12.19.02.2-.01.04-.11-.14-.09-.29-.15-.46-.2a.22.22 0 0 1-.16-.22v-.05c0-.08.05-.11.13-.1.15.02.28.06.42.12.26.13.34.06.23-.2a3.28 3.28 0 0 0-.28-.53.31.31 0 0 0-.14-.12.82.82 0 0 1-.49-.6c0-.06.01-.07.06-.06.22.07.45.11.7.13.1.01.12-.02.04-.08a2.79 2.79 0 0 1-.35-.3 1 1 0 0 1-.2-.28Zm4.33-1.52c0 .05.02.1.05.13.03.19.13.31.3.38.09.02.1 0 .06-.07a3.1 3.1 0 0 0-.34-.47c-.05-.06-.08-.05-.07.03Z"/></svg>