<svg width="56" height="56" xmlns="http://www.w3.org/2000/svg"><path fill="#E3000F" d="M0 0h56v56H0z"/><path fill-rule="evenodd" d="M44 28.008c0 8.505-6.63 15.46-15 15.977V29h1.403c.142-.027.427-.28.436-1.07l.181-.007c.061.623.253 1.077.48 1.077.232 0 .427-.473.483-1.114l4.846-.188c.082 0 .16-.063.17-.174.01-.112-.078-.21-.17-.21l-4.845-.188C31.93 26.478 31.734 26 31.5 26c-.229 0-.421.46-.48 1.088l-.18-.007c.03-.252-.012-.82-.437-1.081H29V12.03c8.37.517 15 7.473 15 15.978zM26 26V12.124c-7.893.984-14 7.72-14 15.884 0 8.163 6.107 14.9 14 15.884V29h3v-3h-3zm0 0v3h-3v-3h3zm5.174 10.711c3.41 0 8.644-.302 10.22-7.711.353 3.634-.357 10.45-10.22 13v-5.289z" fill="#fff"/></svg>