<svg xmlns="http://www.w3.org/2000/svg" width="56" height="56"><path fill="#F0F3FA" d="M0 0h56v56H0z"/><path d="M11 21.98v-.58l-3 4.58v.57l3-4.57zm0 1.16v-.59l-3 4.59v.56l3-4.56zm2-1.76v-.59l-5 7.58v.57l5-7.57zM16 25s2.48-.06 2.44 2.02c-.02 1.15-.7 1.4-.69 1.46 0 .02.13.01.47.01.05 0 .1.05.1.1V31h-2.6v-1.69H13.3l-.3-.43V27.7h.1a42.61 42.61 0 001.36 0H16s.46-.08.46-.64c0-.47-.46-.57-.46-.57h-3V25h3zm-2.7 1.19H16c.46 0 .79.39.79.83.01.47-.26.99-.8.99H13.3v1H16v1.69h2v-1.9h-.54c-.15 0-.31-.06-.31-.16 0-.17.07-.21.22-.33.08-.05.18-.12.3-.23.23-.2.44-.45.44-1.06 0-.83-.48-1.34-1-1.53-.64-.23-.9-.23-2.25-.22l-1.56.01v.9z" fill="#0160A8"/><path fill-rule="evenodd" d="M11.9 30l.76 1h2.01l-4.14-6-.97 1.37 1.53 2.3H10V30h1.9zm-1.57-.34h1.65s.57.69.83 1.05h1.31l-3.79-5.41-.6.8c.33.43 1.99 2.9 1.99 2.9h-1.39v.66z" fill="#0160A8"/><path d="M8 25v1s-1.6.12-1.4 1.85C6.9 30.09 10 30 10 30v1H8.81C7.33 30.96 5 30.5 5 27.74c0-2.41 1.86-2.72 2.65-2.74H8z" fill="#0160A8"/><path fill-rule="evenodd" d="M23.7 25.3h-4.4v.9h4.4v-.9zM19 25v1.5h5V25h-5z" fill="#0160A8"/><path d="M20.7 29.8v-1.6h3v-.9h-4.4v3.4h4.4v-.9h-3zm3.3-.3V31h-5v-4h5v1.5h-3v1h3zm7.54 1.14c-.22.24-.59.36-.9.36-.37 0-.63-.23-.83-.53a12.8 12.8 0 01-.89-1.73c-.07-.18-.2-.43-.4-.5a.93.93 0 00-.27-.02h-.6v1.25c0 .26-.04.74.18.94.2.2.8.17.8.42 0 .14-.19.17-.29.17h-2.12c-.1 0-.22-.07-.22-.17s.2-.19.27-.21c.38-.13.36-.38.36-.74v-3.79c0-.97-.63-.58-.63-.93 0-.15.15-.16.27-.16h2.53c.9 0 1.79.51 1.79 1.56 0 .34-.12.66-.32.93-.18.25-.5.44-.77.58l.15.11c.15.12.28.4.37.56l.51.9.24.4c.08.14.23.39.42.39.1 0 .2-.07.3-.07.06 0 .12.04.12.12 0 .07-.02.11-.07.16zM27 26.5V26c0-.18-.06-.48-.19-.6-.1-.1-.4-.12-.54-.12.38.15.46.29.49.7l.02.5v3.44c0 .4.02.55-.3.8.46-.1.52-.3.52-.75V26.5zm1.3-1.1c-.44 0-.65.22-.65.67v1.22c0 .51 0 .61.52.61.15 0 .3 0 .44-.02.57-.05.88-.42.88-1.01 0-.75-.43-1.47-1.2-1.47zm.46-.06c.57.3.88.84.88 1.52 0 .4-.16.7-.46.95.49-.22.68-.59.68-1.13 0-.71-.43-1.23-1.1-1.34zm1.76 5.35c-.07-.05-.14-.08-.2-.14a9.74 9.74 0 01-1.07-1.91c-.04-.08-.08-.17-.13-.24-.1-.14-.19-.15-.34-.14.23.36.4.73.6 1.12.08.18.18.35.27.53.22.42.54.96 1.06.96.15 0 .21.03.34-.06-.25 0-.32.01-.53-.12zm4.26.31c-.37 0-.5-.26-.65-.55-.41.34-.74.55-1.3.55-.63 0-1.03-.26-1.03-.96 0-1.04.9-1.12 1.68-1.28l.52-.13v-.37c0-.42-.13-.91-.6-.91-.4 0-.48.3-.5.65-.12.03-.69.23-.78.23-.1 0-.12-.15-.12-.23 0-.24.03-.41.2-.57.34-.3.92-.43 1.34-.43.8 0 1.44.31 1.46 1.22v2c0 .13.1.22.23.22.1 0 .17-.06.27-.06.07 0 .1.04.1.1 0 .27-.6.52-.82.52zm-2.6-1c0-.4.18-.63.43-.89-.45.2-.66.4-.66.93 0 .54.3.8.8.83-.35-.24-.58-.4-.58-.87zm-.03-1.97l.16-.06c.1-.36.14-.38.39-.66-.4.16-.48.27-.55.72zM34 29c-.5.14-1.22.26-1.22.95 0 .34.2.5.52.5.43 0 .7-.25.7-.72V29zm.46 1v-1.4c0-.37-.06-1.03-.47-1.19l-.22-.07.2.2c.27.3.25.7.25 1.07V30c0 .44.1.7.52.86a1.21 1.21 0 01-.28-.85zm3.12.87c-.22.08-.44.13-.67.13-.49 0-.9-.31-.91-.82v-2.47h-.29c-.1 0-.24 0-.24-.13 0-.11.12-.2.2-.25.13-.1.26-.22.38-.34l.45-.51.44-.48h.03c.04.02.03.06.03.1v1.09h.71c.22 0 .27-.19.4-.19.06 0 .12.03.12.1 0 .14-.09.34-.15.48-.03.08-.27.1-.34.1H37v2.16c0 .3.09.6.45.6.3 0 .52-.21.7-.21.08 0 .13.05.13.12 0 .25-.5.46-.7.52zm-.52-.09c-.66-.09-.65-.6-.65-1.12v-2.74c-.18.13-.25.23-.25.46v2.5c0 .32.01.65.3.85.13.1.29.14.45.14.15 0 .28-.02.43-.06l-.28-.03zm3.45.22h-1.84c-.1 0-.18-.06-.18-.16 0-.33.5-.13.51-.57l.01-.6v-1.51c-.02-.18-.06-.37-.27-.41l-.24-.05c-.07-.02-.1-.03-.1-.11 0-.1.12-.13.2-.15.49-.1.65-.13 1.1-.37.03-.02.1-.07.15-.07.2 0 .15.27.15.4v2.27c0 .17 0 .35.02.53 0 .19.09.32.27.38l.3.1c.08.03.14.09.14.18 0 .11-.12.14-.22.14zm-.32-5.23c-.05.1-.52.54-.62.64-.03.03-.08.06-.12.06a.22.22 0 01-.13-.06c-.12-.13-.5-.5-.57-.63v-.08a5.89 5.89 0 01.74-.7c.1.02.54.51.63.6.03.03.08.07.08.13l-.01.04zm-.78 2.77c0-.26.06-.96-.37-.96a.97.97 0 00-.28.05c.33.09.4.18.4.53v1.98c0 .3-.05.42-.3.58l.12.01c.33 0 .42-.33.43-.6v-1.59zm0-3.33l-.51.53.48.51.11-.1-.38-.4.42-.42-.12-.12zM45.79 31h-1.87c-.1 0-.15-.05-.15-.16 0-.14.22-.2.32-.24.15-.07.18-.3.18-.45l.01-.46v-.72c0-.59-.07-1.42-.83-1.42-.28 0-.66.2-.78.46a1.4 1.4 0 00-.06.47v1.66c0 .41.3.46.62.54.08.02.12.06.12.14 0 .15-.1.18-.24.18H41.3c-.12 0-.18-.05-.18-.17 0-.13.2-.17.3-.2.17-.07.2-.33.2-.48v-1.96c0-.18-.05-.37-.25-.42-.1-.02-.34-.01-.36-.16 0-.02 0-.03.02-.05.02-.05.14-.09.2-.1.48-.1.66-.17 1.1-.4a.49.49 0 01.15-.06h.06l.04.03c.05.09.05.42.05.53l.18-.16c.28-.24.83-.4 1.2-.4 1.17 0 1.27 1.04 1.27 1.97v1.17c.03.67.73.39.73.69 0 .14-.1.17-.21.17zM42 28.17c0-.24-.04-.58-.35-.58-.1 0-.19.03-.27.05.32.09.4.2.4.54v1.97c0 .3-.06.42-.3.58h.11c.34 0 .41-.3.41-.59v-1.97zm2.68.79l-.02-.46c-.02-.5-.23-1.08-.83-1.08h-.2l.16.08c.62.26.65.87.65 1.46v1.19c0 .24-.03.35-.22.5.33-.05.46-.15.46-.5v-1.2zM47.66 33c-.53 0-1.66-.12-1.66-.87 0-.48.35-.57.72-.67-.2-.18-.44-.43-.44-.73 0-.4.35-.7.6-.94-.44-.29-.76-.64-.76-1.22 0-1 1-1.44 1.83-1.44.52 0 .74.12 1.14.44.57-.12.42-.57.69-.57.07 0 .12.06.12.14 0 .08-.01.15-.03.22a2 2 0 00-.05.34c-.03.33-.06.47-.37.61.02.1.02.2.02.3 0 .91-.77 1.39-1.74 1.39-.18 0-.36-.04-.54-.07-.1.08-.28.23-.28.37 0 .28.32.3.52.32l.78.01c.3.01.6.02.91.05.54.04.88.3.88.89 0 1.18-1.47 1.43-2.34 1.43zm-1.25-.94c0-.15.08-.28.15-.4-.23.1-.4.18-.4.48 0 .55.81.65 1.2.69-.35-.14-.95-.27-.95-.77zm-.13-3.5c0 .58.31.92.82 1.11a1.38 1.38 0 01-.57-1.1c0-.64.28-.86.75-1.2-.56.2-1 .52-1 1.2zm2.98 2.84a.86.86 0 00-.48-.2c-.25-.03-.52-.02-.78-.03-.45 0-1.31.05-1.31-.62v-.36c-.12.14-.25.33-.25.52 0 .21.09.35.23.48.15.12.3.19.49.21.33.05.69.04 1.02.05.37 0 1.06-.06 1.06.52 0 .23-.17.43-.34.57.32-.1.58-.3.58-.67 0-.2-.07-.35-.22-.47zm-.62.23c-.27-.02-.55-.01-.81-.01s-.44-.03-.7-.05A.86.86 0 0047 32c0 .56.57.63.98.63.4 0 1.02-.1 1.02-.63 0-.27-.15-.35-.36-.37zm-.9-4.13c-.48 0-.59.44-.59.86 0 .46.07 1.26.67 1.26.5 0 .62-.48.62-.9 0-.5-.1-1.22-.7-1.22zm.68.03c-.08-.06-.24-.16-.34-.16h-.22c.6.18.73.77.73 1.34 0 .48-.06.76-.48 1 .55-.1.73-.55.73-1.09 0-.41-.1-.83-.42-1.1zm.8.22l.17.3c.22-.18.25-.39.28-.66-.14.22-.2.26-.45.36zm3.31 2.92c-.3.25-.7.33-1.07.33a3 3 0 01-.48-.05l-.47-.09c-.08-.01-.21-.06-.21-.16v-.23c0-.27-.05-.55-.05-.82 0-.11.03-.22.16-.22.11 0 .16.13.19.22l.07.22c.12.4.46.78.91.78.3 0 .65-.16.65-.5a.48.48 0 00-.1-.31c-.22-.3-.93-.59-1.2-.72-.43-.21-.7-.53-.7-1.02 0-.74.78-1.1 1.43-1.1.24 0 .48.03.71.08.38.08.33.12.35.46l.02.3c0 .07-.03.16-.12.16-.08 0-.16-.13-.2-.19a1.2 1.2 0 00-.96-.46c-.2 0-.47.14-.47.36 0 .23.33.42.52.51l.68.32c.48.23.81.62.81 1.16 0 .39-.17.72-.47.97zm-.81-1.56l-.6-.3a.85.85 0 01-.5-.82c0-.22.08-.44.19-.63a.95.95 0 00-.43.8c0 1.13 2 .96 2 2l-.07.28c.16-.1.32-.28.32-.48 0-.44-.57-.7-.91-.85zm-1.34.7c.03.25.06.53.06.8.15.05.34.1.5.11-.35-.34-.37-.46-.56-.92zm2.14-2.4a1.2 1.2 0 00-.8-.24h-.2c.47.13.7.23 1.02.58l-.02-.34z" fill="#0160A8"/></svg>