<svg xmlns="http://www.w3.org/2000/svg" width="56" height="56"><path fill="url(#a0yhslwbo)" d="M0 0h56v56H0z"/><path d="M34.5 15a1.5 1.5 0 100-3 1.5 1.5 0 000 3zm-16 23a1.5 1.5 0 100-3 1.5 1.5 0 000 3zM32 13v1s-15-.28-17.6 8.31c-.25.92-.4 1.8-.4 2.99 0 .73.3 1.85.72 2.73C17.33 33.48 27 33 27 33v10h2V19.5c1.13-.5 2.5-.5 3.78-.5 3.36 0 7.22 2.5 7.22 6 0 5.8-4.63 8.38-10 9.5V36c5.13-.47 12-4.26 12-10.9 0-4.6-4.5-8.1-10-8.1-2.25 0-4.06.6-5 1v13c-2 0-8.13 0-10.28-3.6a6.15 6.15 0 01-.72-2.9c-.03-.85.1-1.7.38-2.48C17.94 17.75 25.31 15 31 15c7.31 0 13 3.62 13 10.28 0 7.46-8.96 11.4-14 11.72v7h-4v-7h-5v-1h5v-1c-3.4 0-7.79-.79-10.75-2.97A8.6 8.6 0 0112 25.69c0-3.07 1.01-5.68 3.25-7.69C19.7 14 27.6 12.96 32 13z" fill="#fff"/><defs><linearGradient id="a0yhslwbo" x1="10.42" y1="9.71" x2="68.15" y2="76.02" gradientUnits="userSpaceOnUse"><stop stop-color="#1A1E21"/><stop offset="1" stop-color="#06060A"/></linearGradient></defs></svg>