<svg width="56" height="56" viewBox="0 0 56 56" xmlns="http://www.w3.org/2000/svg"><path fill="#F0F3FA" d="M0 0h56v56H0z"/><path d="M25.8 40H13.06l3.42-3h4.97l4.33 3Z" fill="url(#amipg4455)"/><path d="m23 33 2.8 7-4.43-3L23 33Z" fill="#735F58"/><path d="M23 33h-5.6c-.29.57-.87 1.71-.87 1.78L16.3 37h5.06L23 33Z" fill="url(#bmipg4455)"/><path d="m28.24 40-7.57-13.53 2.1-2.76 8.08 13.12-2.6 3.17Z" fill="url(#cmipg4455)"/><path d="M18 32.13c-1.17 2.05-1.7 4.3-1.5 4.87l-1.15-1.6 1.21-3.47 3.86-7.24 2.39-.5-2.02 2.63c-.45.9-1.62 3.25-2.8 5.3Z" fill="#826D70"/><path d="M12 38.26 23 18v5.66l7.87 13.4-8.1-12.85c-1.65.58-2.94 2.43-3.38 3.28-.98 1.69-3.3 6.17-3.3 7.32 0 1.16.2 1.87.45 2.17L13.07 40 12 38.26Z" fill="#DFDEE2"/><path d="M36 40 23 18v5.7l7.8 13.18L36 40Z" fill="#74635D"/><path d="M36 40h-7.73l2.5-3.22L36 40Z" fill="#6B5D58"/><path d="m32 18-3 7h3v-7Z" fill="#DFDEE2"/><path d="M44 40 32 18v7.04l7.46 11.78L44 40Z" fill="#836E68"/><path d="M37.5 40H44l-4.53-3.18L37.51 40Z" fill="#6E5E5C"/><path d="M37.52 40 29 25h3l7.5 11.8-1.98 3.2Z" fill="url(#dmipg4455)"/><path d="M28 21.03 25 15h3v6.02Z" fill="#CD2015"/><path d="m28 9-3 6.01h3V9Z" fill="#DD2C1F"/><path d="m28 21 3-6h-3v6Z" fill="#6A1D07"/><path d="m28 9 3 6h-3V9Z" fill="#9B2719"/><defs><linearGradient id="amipg4455" x1="19.43" y1="37" x2="19.43" y2="40" gradientUnits="userSpaceOnUse"><stop stop-color="#918485"/><stop offset="1" stop-color="#63524F"/></linearGradient><linearGradient id="bmipg4455" x1="19.63" y1="33" x2="19.63" y2="37" gradientUnits="userSpaceOnUse"><stop stop-color="#DBD7DD"/><stop offset=".51" stop-color="#BAB6B6"/><stop offset="1" stop-color="#DBD7DD"/></linearGradient><linearGradient id="cmipg4455" x1="22.83" y1="31.94" x2="27.86" y2="28.77" gradientUnits="userSpaceOnUse"><stop stop-color="#B1A9A9"/><stop offset="1" stop-color="#D0CED3"/></linearGradient><linearGradient id="dmipg4455" x1="32.5" y1="32.15" x2="35.8" y2="30.28" gradientUnits="userSpaceOnUse"><stop stop-color="#ABA3A5"/><stop offset="1" stop-color="#D7D5DB"/></linearGradient></defs></svg>