<svg width="56" height="56" xmlns="http://www.w3.org/2000/svg"><path fill="#F0F3FA" d="M0 0h56v56H0z"/><path d="M20.549 26.478c0-.061.027-.12.076-.163a.28.28 0 01.185-.067h.632a.28.28 0 01.184.067.217.217 0 01.077.163.22.22 0 01-.077.163.28.28 0 01-.184.067h-.632a.28.28 0 01-.185-.067.217.217 0 01-.076-.163zm2.177-.752h.623a.28.28 0 00.184-.068.217.217 0 00.076-.162.217.217 0 00-.076-.163.28.28 0 00-.184-.067h-.623a.28.28 0 00-.184.067.217.217 0 00-.077.163c0 .06.028.12.077.162a.28.28 0 00.184.068zm4.546-.717H26.27a.617.617 0 00-.217.035.564.564 0 00-.184.107.487.487 0 00-.121.162.468.468 0 00.125.541.602.602 0 00.397.146h.762l.341-.982-.1-.01zm-3.833 1.469c0 .044.01.087.029.127.02.04.047.077.083.108a.416.416 0 00.269.093h1.004a.398.398 0 00.262-.097.309.309 0 00.109-.231.31.31 0 00-.109-.232.398.398 0 00-.262-.096H23.82a.41.41 0 00-.266.096.319.319 0 00-.115.232zm.873 2.991c0 .131.059.258.164.35a.602.602 0 00.398.146h.803l.35-.992h-1.153a.603.603 0 00-.394.143.47.47 0 00-.168.344v.009zm.712-1.991c0 .13.058.256.16.35a.61.61 0 00.392.154h.763l.331-.964h-1.104a.612.612 0 00-.369.14.482.482 0 00-.173.32zm-3.01 1.77h-.622a.268.268 0 00-.151.08.214.214 0 00-.06.145c0 .054.022.105.06.146a.26.26 0 00.15.08h.623a.293.293 0 00.216-.048.236.236 0 00.07-.08.207.207 0 000-.196.236.236 0 00-.07-.08.293.293 0 00-.216-.048zm.933-1.77a.197.197 0 00-.016-.088.22.22 0 00-.054-.074.256.256 0 00-.082-.05.282.282 0 00-.099-.018h-.682a.274.274 0 00-.181.066.213.213 0 00-.075.16c0 .06.027.117.075.159a.274.274 0 00.18.066h.643a.282.282 0 00.2-.048.229.229 0 00.066-.073.201.201 0 00.025-.091v-.01zm1.596.982a.319.319 0 00-.112-.229.408.408 0 00-.26-.098h-1.003a.398.398 0 00-.263.096.31.31 0 00-.108.231c0 .087.039.17.108.232.07.061.164.096.263.096h1.003a.407.407 0 00.247-.095.322.322 0 00.115-.215l.01-.018zm-4.927-2.743h.622a.28.28 0 00.184-.068.217.217 0 00.077-.162.217.217 0 00-.077-.163.28.28 0 00-.184-.067h-.632a.28.28 0 00-.185.067.217.217 0 00-.076.163c0 .06.027.12.076.162a.28.28 0 00.185.068h.01zM44 27.903c-.002.702-.013 1.403-.132 2.097H26.871a.614.614 0 00.34-.173.49.49 0 00.141-.323.435.435 0 00-.04-.19.487.487 0 00-.121-.163.565.565 0 00-.184-.107.617.617 0 00-.217-.035h-.762l.32-.983h1.165a.613.613 0 00.404-.147.476.476 0 00.168-.357.476.476 0 00-.168-.357.613.613 0 00-.404-.147h-.823l.341-1.027h1.104a.6.6 0 00.39-.148.467.467 0 00.162-.347.471.471 0 00-.117-.31.588.588 0 00-.305-.186H43.67c.224.955.335 1.928.33 2.903zm-11.59-1.425a.26.26 0 00.09.194.34.34 0 00.22.08h.703a.353.353 0 00.255-.06.28.28 0 00.083-.093.248.248 0 000-.233.28.28 0 00-.083-.094.353.353 0 00-.255-.06h-.702a.334.334 0 00-.217.078.26.26 0 00-.094.188zm-1.435-.938a.26.26 0 00.091.194c.058.051.137.08.22.08h.702a.352.352 0 00.255-.06.283.283 0 00.083-.094.248.248 0 000-.232.283.283 0 00-.083-.094.35.35 0 00-.255-.06h-.702a.335.335 0 00-.217.078.26.26 0 00-.094.188zm-2.469.938c0 .05.011.098.033.144a.374.374 0 00.094.122.473.473 0 00.305.106h1.104a.428.428 0 00.223-.134.345.345 0 00.087-.225.34.34 0 00-.087-.225.428.428 0 00-.223-.133h-1.114a.454.454 0 00-.288.1.356.356 0 00-.134.245zm.913 2.363c.11 0 .216-.038.295-.106a.352.352 0 00.127-.257c0-.1-.044-.195-.123-.266a.461.461 0 00-.299-.115h-1.143a.462.462 0 00-.306.112.36.36 0 00-.126.269.335.335 0 00.036.141.377.377 0 00.095.12.471.471 0 00.301.103h1.143zm1.556.584a.261.261 0 00-.095-.189.334.334 0 00-.216-.077h-.693a.334.334 0 00-.216.078.26.26 0 00-.095.188.26.26 0 00.091.194c.059.051.138.08.22.08h.693a.343.343 0 00.217-.083.269.269 0 00.094-.191zm.662-1.947a.259.259 0 00-.091-.194.333.333 0 00-.22-.08h-.702a.339.339 0 00-.121.018.308.308 0 00-.102.06.265.265 0 00-.068.09.238.238 0 00-.02.106.23.23 0 00.02.105.258.258 0 00.068.089.3.3 0 00.103.056.303.303 0 00.12.015h.702c.08 0 .157-.028.213-.077a.25.25 0 00.088-.188h.01zm1.415 1a.238.238 0 00-.02-.107.265.265 0 00-.068-.09.308.308 0 00-.102-.06.339.339 0 00-.121-.018h-.692a.355.355 0 00-.235.086.276.276 0 00-.097.207c0 .077.035.151.097.206a.355.355 0 00.235.086h.702a.335.335 0 00.126-.027.31.31 0 00.103-.07.267.267 0 00.062-.1.242.242 0 00.01-.113zm1.435.956a.24.24 0 00-.024-.104.268.268 0 00-.068-.087.337.337 0 00-.22-.075h-.702a.337.337 0 00-.219.075.267.267 0 00-.068.087.239.239 0 00-.024.104.26.26 0 00.092.194c.058.051.137.08.22.08h.702a.349.349 0 00.124-.02.318.318 0 00.106-.06.274.274 0 00.07-.093.245.245 0 00.021-.11l-.01.009zm.662-1.947a.26.26 0 00-.09-.194.334.334 0 00-.22-.08h-.703a.331.331 0 00-.214.083.259.259 0 00-.087.19.25.25 0 00.088.188.32.32 0 00.213.078h.702a.338.338 0 00.124-.015.308.308 0 00.106-.059.265.265 0 00.07-.091.237.237 0 00.021-.11l-.01.01zm.652-1.938a.237.237 0 00-.02-.105.265.265 0 00-.064-.089.303.303 0 00-.099-.06.337.337 0 00-.117-.02h-.703a.322.322 0 00-.183.094.255.255 0 00-.072.175c0 .064.025.127.072.176.047.05.111.083.183.094h.703a.34.34 0 00.12-.018.31.31 0 00.103-.06.266.266 0 00.067-.09.237.237 0 00.02-.106l-.01.009zm-16.908 3.699h-.622a.292.292 0 00-.188.06.234.234 0 00-.06.074.209.209 0 00-.023.087c.003.062.032.12.083.163a.29.29 0 00.188.067h.622a.278.278 0 00.178-.07.217.217 0 00.073-.16.209.209 0 00-.073-.156.269.269 0 00-.178-.065zm1.866-1.01h-.622a.27.27 0 00-.15.08.214.214 0 00-.06.147c0 .053.021.104.06.146a.27.27 0 00.15.08h.622a.295.295 0 00.217-.049.238.238 0 00.07-.079.208.208 0 000-.197.238.238 0 00-.07-.08.295.295 0 00-.216-.048zm-1.194-.973h-.632a.274.274 0 00-.18.067.213.213 0 00-.076.16c0 .059.027.116.075.159a.274.274 0 00.181.066h.632a.274.274 0 00.181-.066.213.213 0 00.075-.16.213.213 0 00-.075-.16.274.274 0 00-.18-.066z" fill="#F00023"/><path d="M17.887 15.599A15.97 15.97 0 0012 28c0 8.837 7.16 16 15.994 16 7.088 0 13.099-4.612 15.198-11H17.5a3.415 3.415 0 01-3.281-4.338L17.887 15.6z" fill="url(#paint0_radial)"/><path d="M42.825 22H19.577l2.48-8.861A15.945 15.945 0 0127.994 12c6.712 0 12.459 4.136 14.831 10z" fill="url(#paint1_radial)"/><defs><radialGradient id="paint0_radial" cx="0" cy="0" r="1" gradientUnits="userSpaceOnUse" gradientTransform="matrix(24.2088 0 0 24.2179 31.6 20.643)"><stop offset=".33" stop-color="#028D40"/><stop offset=".74" stop-color="#077E38"/><stop offset="1" stop-color="#0B7031"/></radialGradient><radialGradient id="paint1_radial" cx="0" cy="0" r="1" gradientUnits="userSpaceOnUse" gradientTransform="matrix(24.2088 0 0 24.2179 31.6 20.643)"><stop stop-color="#009343"/><stop offset=".33" stop-color="#028D40"/><stop offset=".74" stop-color="#077E38"/></radialGradient></defs></svg>