<svg width="56" height="56" viewBox="0 0 56 56" xmlns="http://www.w3.org/2000/svg"><path fill="url(#a)" d="M0 0h56v56H0z"/><path d="M30.37 17.7c2.5 1.69 3.9 3.9 4.2 6.66a7.93 7.93 0 0 1-2.81 6.95l-.1-.01-.13-.05c-.06-.02-.07-.06-.03-.1a6.37 6.37 0 0 0 1.4-6.05 4.9 4.9 0 0 0-1.74-2.7c-2.57-2.03-6.2-1.88-9.12-.55a8.5 8.5 0 0 0-4.59 4.65 8.57 8.57 0 0 0-.4 5.77 8.18 8.18 0 0 0 4.36 5.25 8.96 8.96 0 0 0 8.32-.5c1.45-.88 2.93-1.86 4.58-1.39.9.26 2 .7 3.3 1.33a5.5 5.5 0 0 0 3.85-.04l1.27-.52c.11-.05.2-.04.25.04a.1.1 0 0 1 .02.07 5.98 5.98 0 0 1-4.17 1.52c-1.03-.04-2.31-.68-3.43-1.17a3.75 3.75 0 0 0-3.6.13l-2.17 1.28c-1.48.9-3.12 1.45-4.92 1.66-4.43.5-9.01-1.68-11.54-5.12a10.83 10.83 0 0 1-1.9-8.98c.14-.71.33-1.42.55-2.11a12.22 12.22 0 0 1 7.2-6.78 14 14 0 0 1 6.7-.84c1.6.2 3.15.73 4.65 1.6Z" fill="#FFCB01"/><path d="M44.9 33.72c.06.03.1.07.1.1 0 .07-.03.13-.1.18a8.32 8.32 0 0 1-5.9 2.06 3.33 3.33 0 0 1-1.39-.4 19.27 19.27 0 0 0-2.92-1.22c-2.14-.65-3.47.45-5.36 1.6-.65.39-1.54.67-2.68.85-2.3.36-4.15-.14-5.56-1.5a7.01 7.01 0 0 1-1.13-8.52c1.77-2.87 6.1-4.65 9.37-3.54 2.41.82 3.44 3.33 2.77 5.65a4.91 4.91 0 0 1-5.76 3.54.15.15 0 0 1-.12-.14c0-.08.03-.15.09-.2a.38.38 0 0 1 .2-.1c.9-.17 1.95-.4 2.49-1.2.24-.36.33-.75.26-1.17-.38-2.35-3.54-2.2-5-1.2a3.83 3.83 0 0 0-.8 5.66 3.84 3.84 0 0 0 2.18 1.36c1.33.27 2.44.14 3.32-.4 2.26-1.36 4-2.54 6.5-1.47.72.32 1.33.61 1.84.88a4.6 4.6 0 0 0 1.89.62c1.1.07 2.13-.08 3.1-.44l2.6-1Z" fill="#F07D00"/><defs><linearGradient id="a" x1="16" y1="6" x2="38" y2="51.5" gradientUnits="userSpaceOnUse"><stop stop-color="#8CD3E9"/><stop offset=".53" stop-color="#F2F5FC"/><stop offset="1" stop-color="#8CD3E9"/></linearGradient></defs></svg>