<svg xmlns="http://www.w3.org/2000/svg" width="56" height="56"><path fill="#F26B32" d="M0 0h56v56H0z"/><path d="M20.85 13c-3.03.14-8.85 2.72-8.85 11.9 0 7.5 5 11.5 7.37 11.52a24.32 24.32 0 001.85-7.74 51.1 51.1 0 00-.7-3.35l-.23-.99A24.07 24.07 0 0120.85 13zm1.7 16.35c1.03-1.38 4.02-4.5 7.8-5.9-.18-2.68-1.71-8.33-7.23-10.08-.7.58-1.57 2.75-1.9 6.77-.1 1.01.06 2.88.69 4.6.39 1.07.65 3.62.65 4.61zm16.15 11.4c5.13-3.34 5.68-9.5 5.13-12.21-.38-.34-.96-.14-1.2 0l-13.77 9.14 1.66 2.72-3.06 1.98-1.78-2.7-2.63 1.84c3.98 2.65 9.01 3.54 15.65-.78zm3.55-14.58c-2.26-1.64-8.12-3.7-13.31-.45-6.72 4.2-8 9.11-7.22 13.8l2.88-1.72-1.6-2.78 3.07-1.88 1.6 2.74 14.1-8.63c.22-.16.64-.6.5-1.08z" fill="#fff"/></svg>