<svg width="56" height="56" xmlns="http://www.w3.org/2000/svg"><path fill="#00529C" d="M0 0h56v56H0z"/><path d="M23 18.195V23h3v-5h4v5h3v-4.805L30.077 15h-3.968L23 18.195zm0 19.61V33h3v5h4v-5h3v4.805L30.077 41h-3.968L23 37.805zM37.805 33H33v-3h5v-4h-5v-3h4.805L41 25.923v3.968L37.805 33zm-19.61 0H23v-3h-5v-4h5v-3h-4.805L15 25.923v3.968L18.195 33z" fill="#fff"/><circle cx="28" cy="12" r="2" fill="#A7A9AC"/><circle cx="44.003" cy="28" r="2" fill="#A7A9AC"/><circle cx="12" cy="28" r="2" fill="#A7A9AC"/><circle cx="28" cy="44" r="2" fill="#A7A9AC"/><circle cx="28" cy="28" r="3" fill="#A7A9AC"/></svg>