<svg width="56" height="56" viewBox="0 0 56 56" xmlns="http://www.w3.org/2000/svg"><path fill="#EF1F27" d="M0 0h56v56H0z"/><path fill="#fff" d="M29 21h4v13h-4zM34 21h4v13h-4z"/><path fill-rule="evenodd" d="M50 29v-.03c0-2.75-1.93-4.97-5.5-4.97-3.57 0-5.5 2.22-5.5 4.97v.06c0 2.75 1.83 4.97 5.5 4.97s5.5-2.22 5.5-4.97V29Zm-3.85 0v-.02c0-1.34-.58-2.43-1.65-2.43-1.07 0-1.65 1.09-1.65 2.43v.04c0 1.34.55 2.43 1.65 2.43 1.1 0 1.65-1.09 1.65-2.43V29Z" fill="#fff"/><path d="M16.82 30c-.39 2.28-2.18 4-5.37 4C7.82 34 6 31.78 6 29.03v-.06C6 26.22 7.91 24 11.45 24c3.1 0 4.96 1.72 5.36 4h-3.84c-.22-.85-.74-1.45-1.52-1.45-1.06 0-1.64 1.09-1.64 2.43v.04c0 1.34.55 2.43 1.64 2.43.8 0 1.32-.6 1.53-1.45h3.84ZM28.2 29v-.03c0-2.75-1.91-4.97-5.45-4.97-3.53 0-5.45 2.22-5.45 4.97v.06c0 2.75 1.82 4.97 5.45 4.97 2.71 0 4.4-1.24 5.1-3h-4.07c-.26.28-.6.45-1.03.45-.8 0-1.31-.6-1.52-1.45h6.89c.06-.31.08-.64.08-.97V29Zm-5.45-2.45c.79 0 1.3.6 1.53 1.45h-3.05c.22-.85.74-1.45 1.52-1.45Z" fill="#fff"/></svg>