<svg width="56" height="56" viewBox="0 0 56 56" xmlns="http://www.w3.org/2000/svg"><path fill="#F0F3FA" d="M0 0h56v56H0z"/><path fill-rule="evenodd" d="M28 39a11 11 0 1 0 0-22 11 11 0 0 0 0 22Zm0-.5a10.5 10.5 0 1 0 0-21 10.5 10.5 0 0 0 0 21Z" fill="#A62B32"/><path fill-rule="evenodd" d="M28 45a17 17 0 1 0 0-34 17 17 0 0 0 0 34Zm0-.7a16.3 16.3 0 1 0 0-32.6 16.3 16.3 0 0 0 0 32.6Z" fill="#A62B32"/><path d="m28 42.88.48-1.1h1.54l-1.25-.69.48-1.1-1.25.68-1.25-.68.48 1.1-1.25.68h1.54l.48 1.1ZM34.45 21c.09.68.11 1.39.4 2.02.3.69.68 1.36.93 2.08.13.35.22.7.22 1 0 1.27-.6 2.13-.98 2.48.18.48.3.92.3 1.24 0 1.5-.56 3-1.18 4.07-.33.58-.96 1-1.5 1.34-.64.4-1.32.76-1.76.96-1.41.65-3.59.64-4.95-.2a6.38 6.38 0 0 1-3.8-5.25c0-.65.17-1.33.3-1.72A13.35 13.35 0 0 1 19 28.1c.58-.45 1.26-.7 1.94-.92-.4-1.11-.5-2.34-.5-3.52.41 0 .77.11 1.04.46.08.1.16.23.22.37v-1.95c.79.08 1.33.64 1.36 1.49.09-.29.16-.63.32-.88.34-.5.84-.83 1.3-1.18.17.44.33.9.41 1.37.24-.23.56-.5.9-.45.45.06.85.33 1.22.58-.26.17-.76.46-.74.85.03.44-.01.92-.17 1.34.4-.12.8-.15 1.16.08-.3 1.12-.77 2.1-1.83 2.61.14.24.25.45.34.67.1.28.16.58.16.97v.17h-.16c-.37 0-.79-.41-1.05-.64h-1.18l-1-.42c-.13.36-.3 1.02-.3 1.64 0 2.19 1.85 4.15 3.63 4.96 1.16.72 3.45.28 4.7.18.43-.2 1.1-.54 1.7-.94.5-.31 1.1-.69 1.4-1.22a8.18 8.18 0 0 0 1.14-3.9c0-.26-.1-.65-.29-1.13h-1.1c-.67 0-1.21-.35-1.62-.77-.41-.43-.7-.93-.83-1.26-.17-.42-.66-.73-1-.98a8.15 8.15 0 0 0-1.51-.84 3.91 3.91 0 0 1 2-1.5c-.02-.29-.02-.69 0-1.06.02-.24.04-.97.3-1.09a.4.4 0 0 1 .2-.02c.24.02.47.14.68.24.3.15.64.33.86.48.54-.4 1.18-.58 1.75-.89Zm-1.92 1.19a9.2 9.2 0 0 0-.82-.48c-.18-.09-.38-.2-.58-.21h-.01c-.11.23-.12.54-.14.8-.02.37-.02.76-.01 1.05l1.48.55c.11-.24.13-.53.14-.79 0-.34-.03-.68-.06-.92Zm-.11 2.05-1.61-.6a3.6 3.6 0 0 0-1.65 1.06c.33.16.77.42 1.18.7.4.29.92.64 1.12 1.13.12.3.38.76.76 1.15.37.39.85.68 1.4.68h.97a32.67 32.67 0 0 0-2.17-4.12Zm2.47 4.01c.33-.34.8-1.08.8-2.16 0-.23-.08-.54-.2-.88-.25-.7-.62-1.37-.93-2.05-.25-.55-.3-1.1-.37-1.7-.45.2-.95.4-1.35.7.04.25.07.6.06.96 0 .33-.04.7-.2.98.63 1.01 1.63 2.77 2.2 4.15Zm-8.82-2.16-.97 1.3-.25-.21 1-1.33c.3-.4.33-1.03.3-1.51-.02-.35.24-.65.48-.85a1.94 1.94 0 0 0-.68-.27c-.78-.1-.94 1.27-1.08 1.77-.15.53-.33 1.09-.45 1.44l-.3-.12c.12-.34.3-.9.45-1.41.1-.37.27-.8.25-1.2a4.43 4.43 0 0 0-.28-1.21c-.32.25-.67.52-.9.86-.24.34-.31.89-.41 1.28-.16.6-.28 1.2-.43 1.79l-.3-.09c.15-.73.25-1.47.25-2.22 0-.53-.25-1.02-.73-1.18v3.16l-.32.01c-.03-.96-.24-1.49-.46-1.77a.83.83 0 0 0-.48-.32c.02 1.14.15 2.34.61 3.38-.57.17-1.15.36-1.68.63.96.36 1.98.58 3 .7l1.11.47h1.23l.05.04c.22.2.46.4.73.53a2.1 2.1 0 0 0-.13-.62c-.1-.24-.23-.47-.42-.77l-.1-.18.18-.07c1.27-.52 1.62-1.7 1.75-2.2-.32-.1-.72.04-1.02.17Z" fill="#A62B32"/><path d="M28.87 27c.64.4 2.36 1.35 2.65 1.95.03.23.01 1.04 0 1.46.34.38.7.88.7 1.36 0 .46-.24.89-.24 1.35 0 .44.24.84.24 1.27 0 .88-1.5 1.61-2.46 1.61h-1.52c-1.22-.07-2.63-.65-2.63-1.75 0-.38.14-.75.14-1.13 0-.39-.14-.77-.14-1.16 0-.57.74-.94.74-1.5v-1.65L28.87 27Zm.02.44-2.12 1.52v1.5c0 .57-.74.95-.74 1.5 0 .4.14.77.14 1.16 0 .38-.14.75-.14 1.13 0 .91 1.25 1.35 2.23 1.41h1.5c.72 0 2.04-.58 2.04-1.27 0-.43-.25-.83-.25-1.27 0-.46.25-.9.25-1.35 0-.52-.52-.85-.7-1.3 0-.41.02-1.24 0-1.47-.5-.51-1.51-1.13-2.2-1.56Z" fill="#A62B32"/><path d="M27.94 36.7c.23.07.42.9.5 1.3.07-.44.7-1.3 1.01-1.3.32 0 1.4.11 2.78 0a7.08 7.08 0 0 0-3.61-.97c-1.6 0-2.65.17-3.85.45.8.36 2.88.44 3.17.52Z" fill="#A62B32"/><path d="M28.84 28.95c.1-.1.12-.68.11-.95h.09c.03.17.09.6.09.88 0 .37.26.37.26.83 0 .45-.3 1.13-.3 1.74 0 .6.37 1.03.23 1.49-.2.68-.22 2.03-.24 2.8-.1.2-.33.47-.33 0 0-2.2-.3-2.68-.3-3.17 0-.48.3-.42.3-1.5 0-1.06-.2-1.03-.2-1.42 0-.4.16-.58.3-.7ZM20.64 37.87c.3-.05.6.02.9.21.36.24.58.54.64.91.05.37-.05.76-.31 1.18-.29.44-.62.71-1.02.8-.34.08-.67.01-.99-.2-.42-.27-.65-.61-.67-1.02 0-.23.04-.43.13-.6l.53.35a.87.87 0 0 0-.04.36c.03.18.13.32.32.45.2.12.4.14.6.06.22-.09.42-.27.6-.56.18-.29.26-.54.23-.76a.67.67 0 0 0-.3-.5c-.2-.12-.38-.15-.55-.1-.1.04-.2.1-.32.22l-.53-.34c.22-.25.48-.4.78-.46Zm-3.25-1.73.96 1.11.6-.51-1.1-1.27.4-.36 1.5 1.74-2.28 1.99-1.45-1.68.4-.36 1.05 1.22.49-.42-.96-1.12.4-.34Zm-.72-3.96.29.57-1.35 2.08 1.91-.98.27.53-2.69 1.38-.3-.6 1.33-2.03-1.88.96-.27-.52 2.69-1.39Zm-3.6-2.6.53-.09.15.9 2.45-.44.11.63-2.44.44.16.9-.53.09-.43-2.42Zm1.92-3.17-1.85-.14.04-.64 1.85.14c.32.03.57.1.74.2.31.22.45.59.41 1.11-.04.53-.23.87-.57 1.03-.19.09-.44.12-.76.1L13 28.05l.05-.64 1.85.14c.2.02.36 0 .46-.04.17-.06.27-.22.29-.48.02-.25-.05-.43-.22-.52-.09-.05-.24-.09-.44-.1Zm.8-3.16-.24.6 1.1.45-.23.57-2.8-1.11.54-1.39c.08-.2.16-.34.25-.42a.75.75 0 0 1 .3-.2c.1-.03.2-.05.3-.05.1 0 .2.02.31.06a.9.9 0 0 1 .36.26c.1.12.15.27.14.44.1-.1.21-.17.33-.18.12-.02.27.01.47.09l.19.07.27.1c.07 0 .14-.01.2-.05l.07.03-.26.64c-.07 0-.12 0-.16-.02a1.52 1.52 0 0 1-.25-.07l-.27-.1c-.18-.07-.3-.08-.4-.04-.08.04-.15.15-.22.32Zm-.37-.56c0-.14-.1-.24-.25-.3-.17-.07-.3-.06-.4.03a.7.7 0 0 0-.17.27l-.27.69.75.3.27-.67a.8.8 0 0 0 .07-.32Zm1.27-4.55.95 1.92.92.66-.36.52-.93-.66-2.14-.25.43-.6 1.44.25-.73-1.26.42-.58ZM24.1 15.3l-1.36.54.29.73 1.55-.62.2.51-2.13.84-1.1-2.82 2.06-.82.2.5-1.5.6.24.6 1.37-.55.19.5Zm4.26.73-.63.04-1.4-2.05.17 2.15-.59.04-.23-3.02.66-.05 1.36 2.02-.16-2.12.59-.04.23 3.03Zm3.86.72-.8-.19-.6-1.5-.37.24-.22.99-.6-.14.67-2.96.6.14-.27 1.22 1.41-.96.8.19-1.49.93.87 2.04Zm2.76.8-.96-.55-.5.44-.56-.33L35.4 15l.61.36-.57 3.17-.6-.34.14-.64Zm.11-.53.27-1.23-.93.84.66.39ZM41.3 21.17l.27.57-2.26 1.03.62 1.37-.5.22-.87-1.94 2.75-1.25Zm1.21 3.25.14.61-2.94.68-.14-.61 2.94-.68Zm-2.59 2.8-.01-.6 3.02-.07.02.92-2.36.62 2.39.48.02.91-3.02.08-.01-.59 2.04-.05a18.44 18.44 0 0 1 .49-.01l-2.55-.51-.01-.62 2.52-.63a18.35 18.35 0 0 0-.5.02l-2.04.05Zm2.74 3.9-.14.61-2.94-.68.14-.61 2.94.68Zm-1.45 4.11-.49-.22.37-.83-2.26-1.03.26-.58 2.27 1.03.37-.83.49.22-1.01 2.24Zm-3.38 1.86.9-1.16-.6-.48-1.04 1.32-.42-.34 1.4-1.8 2.38 1.87-1.37 1.75-.42-.34 1-1.26-.51-.4-.9 1.16-.42-.32ZM35 37.8l1.06-.75 1.75 2.47-1.06.76c-.15.1-.3.18-.42.22a1 1 0 0 1-.64-.02 1.34 1.34 0 0 1-.46-.27 2.33 2.33 0 0 1-.73-1.35 1.1 1.1 0 0 1 .5-1.06Zm.92 2.12c.18.08.38.03.61-.13l.48-.34-1.14-1.62-.48.34c-.24.18-.32.42-.25.73.04.16.13.34.26.52.17.25.35.42.52.5Z" fill="#A62B32"/></svg>