<svg xmlns="http://www.w3.org/2000/svg" width="56" height="56" viewBox="0 0 56 56"><path fill="#F0F3FA" d="M0 0h56v56H0z"/><path fill-rule="evenodd" d="M5.94 32h1.62c1.2 0 1.72-1.14 1.84-1.71h-.5l-.03.06c-.08.21-.25.65-1.47.65-1.34 0-1.53-1.17-1.46-1.61a24 24 0 0 1 1.1-3.21c.35-.67.92-1.16 1.15-1.18h1.48c.59 0 1-.59 1.12-1H7.93c-2.28 0-3.8 4.1-3.92 6-.1 1.53 1.24 1.97 1.93 2zm6.32-7.25c.13-.4-.24-.67-.44-.75H17l-.56 1h-2.46l-.73 2h2.55l-.37 1H13l-1.01 3h2.68c.23 0 .46-.24.65-.43l.12-.12c.04-.04.13 0 .12.06l-.5 1.49H10l2.26-7.25zM24.82 24c.2.08.57.34.44.75L23 32h5.06l.5-1.49c.01-.05-.08-.1-.12-.06l-.04.04c-.2.2-.54.51-.8.51H24.9l1.03-3h2.5l.36-1h-2.55l.7-2h2.64l.41-1h-5.18zm-3.1 0h-3.9c.3 0 .4.4.41.61L15.97 32h2.43c-.54 0-.56-.5-.5-.74l.77-2.77h.65l.83 3.51h1.64l.45-1.28c-.22-.02-.73-.17-.89-.66-.12-.35-.29-1.04-.41-1.57.88-.03 1.65-.6 1.92-1.41l.36-1.13c.32-.97-.44-1.95-1.5-1.95zm-2.02 1l-.64 2.27h.89c.66 0 1.25-.43 1.48-1.08l.03-.1c.19-.53-.2-1.09-.74-1.09H19.7zm18.49-.99h3.9c1.06 0 1.81.99 1.5 1.96l-.36 1.12a2.08 2.08 0 0 1-1.92 1.41c.12.53.29 1.22.4 1.58.17.48.67.63.9.65l-.45 1.28h-1.64l-.83-3.5h-.65l-.77 2.76c-.06.25-.04.74.5.74h-2.43l2.26-7.38c0-.2-.1-.62-.41-.62zm1.24 3.28l.64-2.28h1.02c.55 0 .93.56.74 1.1l-.03.1a1.58 1.58 0 0 1-1.48 1.08h-.9zM34.75 24h-3.9c.31 0 .4.4.41.61L29 32h4.68c.73-.1 2.19-.86 2.19-3.04 0-.04-.1-.75-.4-1.16.19-.2.33-.45.42-.72l.36-1.13c.32-.97-.44-1.95-1.5-1.95zm-.96 4.49H31.7L31 31h1.65c.9 0 1.57-1.35 1.57-1.95 0-.33-.22-.5-.43-.56zM32.73 25l-.56 2h.81c.66 0 1.26-.38 1.48-.95l.04-.1c.18-.46-.2-.95-.74-.95h-1.03zM43 31.7c0 .21.12.3.18.31h1.84c-.36 0-.43-.42-.42-.63l.9-1.44H48v1.36c0 .52.25.7.39.71H50c-.33 0-.48-.42-.51-.63v-6.97c0-.3-.22-.39-.32-.4h-2.34c.45.01.42.49.34.72C45.78 26.97 43 31.48 43 31.7zm5-2.76h-1.89L48 25.89v3.05z" fill="#018DD9"/></svg>