<svg width="56" height="56" xmlns="http://www.w3.org/2000/svg"><path fill="url(#paint0_linear)" d="M0 0h56v56H0z"/><path fill="#fff" d="M25 22.715h6v.74h-6z"/><path fill-rule="evenodd" d="M26 35.554V46h2V25h1v21h1V35.554h1.785c0-.698.503-.991.754-1.05H39v-.902h-9v-.384h9V32h.397v-1H40v-1h-5v1h.623v1h.376v.99H30V25h1v-1h-6v1h1v7.99h-6V32h.485v-1H21v-1h-5v1h.601v1H17v1.218h9v.384h-9v.901c1.707-.046 5.55-.11 6.226 0 .676.111.907.747.938 1.051H26zM18 31h1v2h-1v-2zm20 .004h-1v2h1v-2z" fill="#fff"/><path fill-rule="evenodd" d="M16.594 28.583c.32.798 1.185.914 1.577.872h2.254c.875 0 2.341-4.167 1.773-5.774-.568-1.608-1.939-1.9-2.675-1.852v-.673h.902l-1.753-1.595-1.778 1.595h.727v.673c-1.883.24-2.07 1.728-1.928 2.443.167 1.104.58 3.514.901 4.311zM18 28.64v-5.483c-1.306 0-1.522.808-1.475 1.212.132 3.725 1.032 4.4 1.475 4.27zm1-5.483v5.483c.776.128 2.377-.546 2.61-4.27.08-.405-.322-1.213-2.61-1.213zm16.264 5.426c.321.798 1.186.914 1.578.872h2.253c.875 0 2.342-4.167 1.773-5.774-.568-1.608-1.938-1.9-2.674-1.852v-.673h.901l-1.752-1.595-1.778 1.595h.726v.673c-1.883.24-2.07 1.728-1.928 2.443.167 1.104.581 3.514.901 4.311zM37 28.64v-5.483c-1.59 0-1.86.808-1.804 1.212.162 3.725 1.265 4.4 1.804 4.27zm1-5.483v5.483c.674.128 2.079-.546 2.281-4.27.07-.405-.293-1.213-2.281-1.213zm-12.78-2.204c.39.969 1.439 1.11 1.915 1.06h2.736c1.063 0 2.843-5.06 2.153-7.012s-2.354-2.306-3.248-2.248v-.816h1.095L27.743 10l-2.158 1.937h.881v.816c-2.286.29-2.513 2.098-2.34 2.966.202 1.341.705 4.266 1.094 5.234zm1.73.069v-6.656c-1.586 0-1.87.98-1.814 1.471.161 4.523 1.277 5.34 1.815 5.185zm1.182-6.656v6.656c.941.156 2.895-.662 3.177-5.185.098-.49-.4-1.471-3.177-1.471z" fill="#fff"/><defs><linearGradient id="paint0_linear" x1="28" y1="0" x2="28" y2="56" gradientUnits="userSpaceOnUse"><stop stop-color="#00AEEF"/><stop offset="1" stop-color="#005DAC"/></linearGradient></defs></svg>