<svg width="56" height="56" viewBox="0 0 56 56" xmlns="http://www.w3.org/2000/svg"><path fill="#F0F3FA" d="M0 0h56v56H0z"/><path d="m26 19-3 2.78 1.43-.25c-1 2.21-2.85 6.36-4.07 9.15-.68 1.58-1.98 2.93-3.7 2.93a5.45 5.45 0 0 1-5.33-5.57c0-3.07 2.4-5.64 5.34-5.64.57 0 1.12.17 1.64.35l.25-.35a6.45 6.45 0 0 0-3.9-1.31C10.99 21.09 8 24.2 8 28.04 8 31.9 10.98 35 14.67 35h.02c.35 0 .7-.03 1.03-.09a6.71 6.71 0 0 0 5.25-3.94 994.4 994.4 0 0 1 4.15-9.33l.88 1.53V19ZM23.32 29.67l-.32.66h2.84L27.11 33H29l-3.79-8-.95 2 1.27 2.67h-2.21ZM46 24h2v9h-2z" fill="#51286E"/><path fill-rule="evenodd" d="M32 24h-2v9h2v-4h1.67c.66 0 2.33-.36 2.33-2.5 0-1.71-1.56-2.38-2.33-2.5H32Zm0 .71v3.58h.67c.44 0 1.33-.36 1.33-1.79 0-1.43-.89-1.79-1.33-1.79H32ZM38 24h3.67c.77.12 2.33.79 2.33 2.5 0 2.14-1.67 2.5-2.33 2.5h.2L45 33h-1.88L40 29v4h-2v-9Zm2 4.29V24.7h.67c.44 0 1.33.36 1.33 1.79 0 1.43-.89 1.79-1.33 1.79H40Z" fill="#51286E"/></svg>