<svg xmlns="http://www.w3.org/2000/svg" width="56" height="56"><path fill="#F0F3FA" d="M0 0h56v56H0z"/><path d="M19.7 14.36A16.16 16.16 0 0128 12v7a8.97 8.97 0 00-8.82 7.37 8.79 8.79 0 00.52 5.03A8.94 8.94 0 0028 37v7a16.18 16.18 0 01-9.25-2.98 16.12 16.12 0 01-4.5-4.87 15.78 15.78 0 01-2.24-7.6 15.87 15.87 0 011.57-7.47 16.13 16.13 0 016.11-6.72z" fill="#0059A9"/><path d="M29 12.05a16.31 16.31 0 016.34 1.8 17.23 17.23 0 017.6 8.54c.1.21.18.39.23.61h-7.32c-.16-.01-.38.04-.48-.13A9.3 9.3 0 0029.01 19c-.01-2.4 0-4.54 0-6.95zM29 26h14.8c1.37 9.02-5.89 17.32-14.8 17.94V37a9.25 9.25 0 006.5-4H29v-7z" fill="#81C240"/></svg>