<svg xmlns="http://www.w3.org/2000/svg" width="56" height="56"><path d="M0 28a28 28 0 1156 0 28 28 0 01-56 0z" fill="#F0F3FA"/><path d="M13 24h1v3h4v-3h1v7h-1v-3h-4v3h-1v-7zm-2.97.72A3.9 3.9 0 007.75 24C5.68 24 4 25.57 4 27.5S5.68 31 7.75 31a3.9 3.9 0 002.28-.72V29A2.76 2.76 0 015 27.5c0-1.5 1.23-2.7 2.75-2.7.95 0 1.79.47 2.28 1.19v-1.27z" fill="#2D478C"/><path d="M25.1 22l-3.7 9h1.07l2.63-6.31L27.77 31h1.07l-3.74-9z" fill="#089A42"/><path d="M32 24h-1v7h5v-1h-4v-6zm8 0h-1v7h4v-1h-3v-2h3v-1h-3v-2h3v-1h-3zm12 0h-6v1h2.5v6h1v-6H52v-1z" fill="#2D478C"/><path d="M20.68 34.97h-.3v-.9h-1.1v.9H19v-1.94h.29v.83h1.1v-.83h.29v1.94zm3.6-.91c0 .2-.04.36-.1.5a.76.76 0 01-.31.33.92.92 0 01-.47.11.92.92 0 01-.45-.11.79.79 0 01-.31-.32c-.08-.14-.11-.3-.12-.49v-.14c0-.19.04-.35.11-.5a.77.77 0 01.31-.32.9.9 0 01.46-.12c.18 0 .33.04.46.11.14.08.24.19.31.33s.11.31.11.5v.12zm-.29-.12a.8.8 0 00-.15-.53.54.54 0 00-.44-.19.53.53 0 00-.43.19c-.1.12-.16.3-.16.51v.14c0 .23.05.4.16.53.1.13.25.2.43.2.19 0 .33-.07.44-.19a.8.8 0 00.15-.52v-.14zm3.6-.7h-.7v1.73h-.29v-1.73h-.7v-.21h1.69v.2zm2.97.83h-.95v.7h1.1v.2h-1.38v-1.94h1.37v.2h-1.1v.63h.95v.21zm2.21.69h1.04v.21h-1.33v-1.94h.3v1.73zm3.42-.66a1.44 1.44 0 01-.54-.23.43.43 0 01-.17-.34c0-.15.07-.28.2-.38.15-.1.33-.15.55-.15.14 0 .28.03.4.08.11.05.2.12.27.21.06.1.1.2.1.3h-.3a.33.33 0 00-.12-.28.55.55 0 00-.35-.1.57.57 0 00-.34.09.27.27 0 00-.12.23c0 .08.04.14.12.2.07.05.2.1.38.15.18.04.33.1.43.15.1.05.18.12.22.2.05.06.08.15.08.25 0 .16-.07.28-.2.38a.96.96 0 01-.56.14c-.15 0-.29-.03-.42-.08a.71.71 0 01-.3-.2.48.48 0 01-.1-.31h.28c0 .12.05.21.15.28.1.07.23.1.39.1.15 0 .27-.03.35-.08a.26.26 0 00.12-.23c0-.1-.04-.17-.11-.22-.08-.05-.21-.1-.41-.15z" fill="#089A42"/></svg>