<svg xmlns="http://www.w3.org/2000/svg" width="56" height="56"><path fill="#F0F3FA" d="M0 0h56v56H0z"/><path d="M27.72 12c3.95 0 7.49 1.49 10.28 3.92v6.24A11.8 11.8 0 0027.72 16C21.26 16 16 21.4 16 28.02 16 34.6 21.26 40 27.72 40c4.42 0 8.26-2.49 10.28-6.14v6.27A15.5 15.5 0 0127.72 44C19.04 44 12 36.8 12 28.02 12 19.2 19.04 12 27.72 12z" fill="#009853"/><path d="M28 18a10 10 0 11.02 19.98A10 10 0 0128 18z" fill="#EE1C25"/><path d="M31.47 31.76c-2.85.27-4.31 3.46-3.87 4.86 1.11-1.98 2.89-2.34 6.35-2.39 2.8-.04 5.78-2.07 6.05-6.3-1.38 3.65-5.69 3.56-8.53 3.83zm1.02-4.6c-2.05.41-3.25 2.7-2.9 3.79.85-1.49 2.19-1.71 4.85-1.76 2.14-.04 4.85-1.53 5.03-4.77-1.2 2.8-4.94 2.34-6.98 2.75m1.42-4.1c-1.42.32-2.7 2.03-2.49 2.8.62-1.09 2.98-1.18 4.71-1.18 1.7-.04 3.07-1.12 3.03-3.42-.8 2.25-3.78 1.53-5.25 1.8z" fill="#009853"/></svg>