<svg xmlns="http://www.w3.org/2000/svg" width="56" height="56" viewBox="0 0 56 56"><path fill="#F0F3FA" d="M0 0h56v56H0z"/><path d="M10 34l18.47-24L47 34H33.7c1.27-.66 2.3-1.68 2.3-3.2 0-3.08-3.35-3.94-4.74-4.3a3.81 3.81 0 0 1-.55-.16h-.02c-.57-.3-2.69-1.35-2.69-2.9 0-1.56 1.69-1.97 3.08-1.97l-.07.05c-.4.34-1.01.86-1.01 1.98 0 1.48 1.87 2.5 3.4 2.5H35v-5h-9.83c-1.4.06-4.17.78-4.17 3.12 0 2.55 3.02 3.75 4.34 4.28l.46.19h.02c.8.4 3.24 1.57 3.24 3.26 0 1.7-2.9 1.94-3.9 1.94.64-.17 1.9-.9 1.9-2.52 0-1.6-1.26-2.22-1.9-2.27H21v5H10z" fill="#0072BB"/><path fill-rule="evenodd" d="M31.03 35H28.5v5H30v-3.6l1.4 3.6H33.07l1.43-3.7V40H36v-5H33.43l-1.2 3.1-1.2-3.1zm-7.33 0h-2.2v5H23v-3.82L25.35 40h2.15v-5H26v3.75L23.7 35zm-11.27 1.52h1.78c-.1-.5-.77-1.52-2.68-1.52-1.9 0-2.48 1.02-2.53 1.52-.03.3.4 1.03 2.33 1.51 2.4.6 1.1 1.2.48 1.14-.6-.05-1.57-.23-1.57-.8H9C9 38.9 9.48 40 11.54 40c2.56 0 2.67-1.23 2.67-1.47 0-.25-.02-.83-2.24-1.56-2.22-.73-.63-1.04-.44-1.06.2-.02.9 0 .9.61zm4.3-1.52l-2.57 5h1.54l.48-.97h2.55l.44.97h1.87l-2.32-5h-1.99zm1.55 3.03h-1.6l.83-1.7.77 1.7zM36.5 40l2.58-5h1.99l2.32 5H41.5l-.45-1h-2.52l-.5 1H36.5zm2.54-2h1.57l-.75-1.67-.82 1.67zm4.46-3h3.92c.85 0 1.53.63 1.53 1.4 0 .47-.25.89-.64 1.14.43.37.69.9.69 1.48V40h-1.5v-1c0-.56-.3-1-.9-1H45v2h-1.5v-5zm1.5 1h1.42c.32 0 .58.22.58.5s-.26.5-.58.5H45v-1z" fill="#85868A"/></svg>