<svg width="56" height="56" viewBox="0 0 56 56" xmlns="http://www.w3.org/2000/svg"><path fill="#F0F3FA" d="M0 0h56v56H0z"/><path d="M11 35.72 23.05 44l5.09-3.72L32.99 44 45 35.72V30h-2v4.54l-10 6.87-2.9-2.26 4.9-3.43V30h-2v4.54l-4.86 3.39L23 34.54V21.32l5-3.34 5 3.34V26h2v-5.76l-4.9-3.4 2.9-2.11 10 6.59V25h2v-4.76L33 12l-5 3.62L23.05 12 11 20.24v15.48ZM23.07 15 26 17.04l-5 3.24v15.78l5 3.52-2.93 1.86L13 34.38V21.56L23.07 15ZM32 26h-2v-2.77l-2-1.48-2 1.48V27h6v6.47L28 36l-4-2.53V30h2v2.62l2 1.2 2-1.2V29h-6v-6.7l4-2.72 4 2.72V26Z" fill="#035AA2"/></svg>