<svg width="56" height="56" viewBox="0 0 56 56" xmlns="http://www.w3.org/2000/svg"><path fill="#F0F3FA" d="M0 0h56v56H0z"/><path d="M38.18 31H41v-9h2v9h8v2H36.86l-5.36-8.5-4.62 7.24c-.38.76-.92 1.26-1.7 1.26h-6.37c-1 0-1.81-.88-1.81-1.96V30l-2.49 2.38c-.33.38-.8.62-1.32.62H6.8c-1 0-1.81-.88-1.81-1.96v-7.08C5 22.88 5.81 22 6.81 22h6.38c1 0 1.81.88 1.81 1.96V26l-2 .02V24H7v7h6l4-4.44v-2.6c0-1.08.81-1.96 1.81-1.96h6.38c1 0 1.81.88 1.81 1.96V26l-2 .02V24h-6v7h5.57L30 22.88c.4-.59.95-.88 1.5-.88s1.1.3 1.5.88L38.18 31Z" fill="#0095DA"/></svg>