<svg width="56" height="56" viewBox="0 0 56 56" xmlns="http://www.w3.org/2000/svg"><path fill="#F0F3FA" d="M0 0h56v56H0z"/><path fill-rule="evenodd" d="M45.06 19.1c-2.36.24-4.53.5-6.5.77-2.26.31-4.4.68-6.42 1.08a69.75 69.75 0 0 0-6.25 1.58c-.83.27-1.61.55-2.36.84-1.15.46-2.15.96-3 1.49-.64.4-1.19.82-1.63 1.27A4.1 4.1 0 0 0 18 27.5a2.64 2.64 0 0 0-.02 1.93c.1.28.26.56.46.84.32.45.74.9 1.28 1.32.37.3.77.58 1.2.84.74.44 1.54.85 2.4 1.23.7.3 1.39.57 2.04.8 1.3.45 2.66.85 4.05 1.2 2.32.59 4.81 1.07 7.48 1.45a101.53 101.53 0 0 0 9 .9h-.12l-1.9-.04a170.24 170.24 0 0 1-10.98-.62 126.35 126.35 0 0 1-9.73-1.26 70.5 70.5 0 0 1-6.56-1.5 33.17 33.17 0 0 1-4.84-1.84c-.45-.23-.87-.48-1.28-.73a8.78 8.78 0 0 1-1.2-.92 5.15 5.15 0 0 1-.6-.66 3.6 3.6 0 0 1-.46-.76 2.43 2.43 0 0 1-.12-1.64c.18-.66.63-1.3 1.36-1.94.53-.46 1.18-.9 1.95-1.32l.9-.45a30.9 30.9 0 0 1 4.38-1.63c1.2-.36 2.4-.67 3.64-.95 1.54-.34 3.1-.64 4.7-.9 1.74-.3 3.5-.54 5.29-.75 2.18-.25 4.44-.47 6.77-.64a199.13 199.13 0 0 1 8.92-.44l-.94.09ZM13.52 26l2.46 1.49.02.03v2.96c0 .01 0 .03-.02.03L13.52 32h-.04l-2.46-1.47a.04.04 0 0 1-.02-.04v-2.96c0-.02 0-.03.02-.04l2.46-1.47h.04Zm33.68.43a263.66 263.66 0 0 0-.02.97.99.99 0 0 0-.43-.35c-.17-.06-.36-.1-.57-.08-.25.01-.46.1-.64.24-.23.18-.39.43-.47.73a2.39 2.39 0 0 0-.05.86c.02.18.07.34.14.48.07.16.17.29.28.4.12.11.26.2.42.25.16.06.34.08.54.07.17-.02.32-.06.45-.14.12-.07.23-.17.34-.3.01-.02.02-.02.02 0l.01.11.02.1c.03.07.08.12.15.15a.5.5 0 0 0 .24.03c.08 0 .16-.03.22-.07a.3.3 0 0 0 .11-.14.45.45 0 0 0 .04-.17v-3.18a.4.4 0 0 0-.08-.26.37.37 0 0 0-.28-.13c-.07 0-.13 0-.2.02a.33.33 0 0 0-.16.1.33.33 0 0 0-.07.15.72.72 0 0 0-.01.16Zm-.47 1.23a.78.78 0 0 0-.4-.02.54.54 0 0 0-.22.1.61.61 0 0 0-.16.18.88.88 0 0 0-.1.28 1.46 1.46 0 0 0 0 .62c.03.1.07.2.13.28.07.11.18.19.32.22.12.04.25.04.4 0 .12-.03.23-.1.3-.21.08-.1.12-.21.15-.35a1.73 1.73 0 0 0-.02-.63.76.76 0 0 0-.13-.28.55.55 0 0 0-.27-.19Zm-22.9-.29c0 .01 0 .01 0 0 .17-.18.38-.3.63-.35a1.37 1.37 0 0 1 .75.06c.12.05.23.11.31.2.1.08.15.19.18.31.03.1.04.2.04.3v1.7c0 .14-.04.25-.12.32-.08.07-.2.1-.36.08-.22-.02-.26-.16-.26-.43V28.3c0-.44-.22-.73-.7-.65a.59.59 0 0 0-.21.08.5.5 0 0 0-.15.13.56.56 0 0 0-.1.17.67.67 0 0 0-.02.2v1.38c0 .08-.02.14-.05.2a.31.31 0 0 1-.15.15c-.1.04-.2.05-.31.03a.33.33 0 0 1-.25-.16.6.6 0 0 1-.06-.3v-3.16l.04-.17a.3.3 0 0 1 .1-.13.41.41 0 0 1 .2-.07l.19.01.15.07c.04.03.08.07.1.12.02.05.04.11.04.18a51.9 51.9 0 0 1 0 .99Zm-2.56.34a.63.63 0 0 0-.38-.07.47.47 0 0 0-.35.18c-.07.1-.12.21-.15.35a1.9 1.9 0 0 0 .01.69c.04.13.09.23.15.31.08.1.18.15.3.17.12.02.22.01.3-.02a.53.53 0 0 0 .25-.16l.15-.17a.46.46 0 0 1 .12-.1.4.4 0 0 1 .14-.05l.15.01c.05.02.1.04.15.08.05.04.08.1.1.15v.18a.74.74 0 0 1-.19.32c-.18.18-.39.3-.62.36-.23.06-.48.08-.75.04a1.34 1.34 0 0 1-.47-.15 1.2 1.2 0 0 1-.34-.3c-.1-.1-.17-.23-.22-.38a1.63 1.63 0 0 1-.1-.45c-.04-.46.04-.83.23-1.12.2-.3.5-.5.9-.55a2.06 2.06 0 0 1 .75.02c.26.06.47.18.64.34l.11.15c.04.06.06.12.07.18 0 .06 0 .12-.02.17a.31.31 0 0 1-.13.15.38.38 0 0 1-.27.06.44.44 0 0 1-.25-.13 3.17 3.17 0 0 1-.16-.17.75.75 0 0 0-.12-.09Zm9.04-.31a.38.38 0 0 0-.12-.24.38.38 0 0 0-.25-.11c-.15 0-.26.03-.34.11a.46.46 0 0 0-.1.32v2.1c0 .12.03.22.09.29.06.08.16.12.29.13.21 0 .35-.06.42-.2a.79.79 0 0 0 .04-.3v-1.33c0-.08.02-.16.05-.23a.47.47 0 0 1 .15-.18c.04-.03.1-.06.16-.07a.69.69 0 0 1 .38.01c.07.02.11.06.15.1.07.08.1.17.1.27v1.46c0 .12.02.22.05.3.06.09.14.15.26.16.1.01.19 0 .27-.02a.3.3 0 0 0 .19-.14.5.5 0 0 0 .06-.22v-1.38c0-.08 0-.15.02-.21.03-.1.07-.17.14-.24.08-.06.17-.1.27-.11h.2a.5.5 0 0 1 .18.06c.1.06.17.16.19.3V29.57c0 .2.08.33.23.39l.14.03h.16c.05-.02.1-.03.14-.06a.28.28 0 0 0 .1-.1.42.42 0 0 0 .06-.21v-1.58c0-.19 0-.32-.03-.4a.82.82 0 0 0-.22-.37.91.91 0 0 0-.4-.23 1.4 1.4 0 0 0-.31-.04c-.4-.02-.72.11-.96.4l-.02-.01a.93.93 0 0 0-.65-.38 1.27 1.27 0 0 0-.6.04c-.18.06-.34.18-.49.34Zm12.07.08a.38.38 0 0 0 .04-.05 1.17 1.17 0 0 1 .75-.41 1.7 1.7 0 0 1 .8.08c.19.07.33.2.42.38.07.15.11.33.11.54v1.57c0 .1-.02.17-.06.24a.34.34 0 0 1-.2.15.72.72 0 0 1-.26.02.47.47 0 0 1-.23-.08.33.33 0 0 1-.12-.15.47.47 0 0 1-.03-.18v-1.43a.74.74 0 0 0-.05-.26.33.33 0 0 0-.13-.16.46.46 0 0 0-.2-.07 1.01 1.01 0 0 0-.36.02.6.6 0 0 0-.34.2.53.53 0 0 0-.12.34v1.33c0 .15-.04.27-.12.34-.09.08-.22.1-.4.1-.14-.01-.24-.06-.3-.15a.5.5 0 0 1-.08-.3 323.18 323.18 0 0 0 0-2.16c.01-.06.03-.12.06-.17a.33.33 0 0 1 .13-.12.49.49 0 0 1 .17-.05h.21c.11.02.19.08.24.16.04.08.06.16.06.26 0 .02 0 .02.01 0ZM26.85 28.7c0 .16.04.29.1.4.08.11.2.2.34.23.12.04.24.04.37.02a.69.69 0 0 0 .33-.14l.2-.14a.44.44 0 0 1 .22-.07c.05 0 .1.01.14.03a.3.3 0 0 1 .1.07c.03.03.05.07.06.1a.3.3 0 0 1 .01.14c-.02.11-.1.22-.23.32a1.29 1.29 0 0 1-.37.21c-.3.11-.62.15-.95.1a1.4 1.4 0 0 1-.44-.14 1.23 1.23 0 0 1-.57-.58c-.06-.13-.1-.26-.13-.4a2.09 2.09 0 0 1-.03-.38c0-.4.1-.72.29-.97.21-.28.5-.44.88-.5a2.08 2.08 0 0 1 .86.08 1.23 1.23 0 0 1 .83.92c.04.18.05.35.03.5-.01.08-.05.13-.12.15a.84.84 0 0 1-.27.04 728.56 728.56 0 0 1-1.65.01Zm.02-.5-.01-.01v-.03a.53.53 0 0 1 .16-.38.55.55 0 0 1 .4-.16h.08a.55.55 0 0 1 .56.54v.03h-1.19Zm11.58-.84a1.32 1.32 0 0 0-.44.9c-.03.29 0 .55.07.79.09.27.24.48.46.65.21.15.46.24.76.28h.45c.16-.01.3-.04.44-.09a1.28 1.28 0 0 0 .8-.72 2.08 2.08 0 0 0 .1-1.05 1.37 1.37 0 0 0-.41-.75 1.6 1.6 0 0 0-.82-.36 2.37 2.37 0 0 0-.53-.01c-.17.02-.33.05-.48.11-.15.06-.28.14-.4.25Zm.6.46c-.1.1-.17.24-.2.42l-.02.32c0 .12.03.23.06.33.04.12.1.21.17.28.08.09.19.14.31.17.1.02.19.02.28.01.1 0 .19-.03.26-.08a.67.67 0 0 0 .32-.42 1.5 1.5 0 0 0-.04-.82.67.67 0 0 0-.14-.22.6.6 0 0 0-.24-.15.84.84 0 0 0-.32-.03.64.64 0 0 0-.44.19Zm-3.57 1.71c0 .1-.01.24-.05.3a.33.33 0 0 1-.2.16H35a.34.34 0 0 1-.23-.15.61.61 0 0 1-.07-.3V26.4c0-.14.04-.24.13-.3.08-.08.2-.1.34-.09.12.02.2.07.26.15.04.07.07.16.07.28a442.77 442.77 0 0 1 .01.96c.21-.29.52-.4.92-.39.32 0 .6.08.8.3.1.11.2.23.26.37.06.12.1.26.14.4a2.04 2.04 0 0 1-.13 1.23c-.06.11-.13.22-.22.31a1.17 1.17 0 0 1-.68.37 1.07 1.07 0 0 1-1.1-.44c-.01-.02-.02-.02-.02 0Zm.65-.2a.62.62 0 0 1-.36-.12.62.62 0 0 1-.2-.27c-.04-.1-.06-.22-.07-.35 0-.11 0-.22.02-.34a.84.84 0 0 1 .13-.37c.08-.12.18-.2.31-.24a.78.78 0 0 1 .33-.02.6.6 0 0 1 .44.3c.05.1.08.18.1.29.03.17.02.35 0 .54a.72.72 0 0 1-.22.43.64.64 0 0 1-.48.15Z" fill="#F37D35"/></svg>