<svg width="56" height="56" fill="none" xmlns="http://www.w3.org/2000/svg"><path fill="#F0F3FA" d="M0 0h56v56H0z"/><path fill-rule="evenodd" clip-rule="evenodd" d="M12 27.995c0 8.835 7.165 16 16 16s16-7.165 16-16-7.165-16-16-16-16 7.165-16 16zm16 15c-8.283 0-15-6.717-15-15 0-8.283 6.717-15 15-15 8.283 0 15 6.717 15 15 0 8.283-6.717 15-15 15z" fill="#231F20"/><path fill-rule="evenodd" clip-rule="evenodd" d="M10.5 24.5h35v7h-35v-7z" fill="#F0F3FA"/><path fill-rule="evenodd" clip-rule="evenodd" d="M10 32h36v-8H10v8zm1-7h34v6H11v-6z" fill="#231F20"/><path fill-rule="evenodd" clip-rule="evenodd" d="M28 14c5.924 0 11.003 3.748 13 9H15c1.997-5.252 7.076-9 13-9z" fill="#ED1C24"/><path fill-rule="evenodd" clip-rule="evenodd" d="M28 42c5.924 0 11.003-3.748 13-9H15c1.997 5.252 7.076 9 13 9z" fill="#002561"/><path d="M22.305 29.246a4.874 4.874 0 01-1.864.418c-1.484 0-2.069-.67-1.75-1.623.277-.82 1.22-1.707 2.82-1.707.626 0 1.171.212 1.427.514h.135c.142-.196.263-.385.414-.575-.5-.178-1.238-.273-1.874-.273-2.1 0-4.057.664-4.547 2.12-.383 1.142.93 1.88 2.992 1.88.646 0 1.352-.067 1.989-.241l.372-.48-.114-.033zm3.034-.998c1.734 0 3.1-.313 3.433-1.306.212-.63-.406-.942-1.746-.942h-2.37l-1.332 4c.246-.01 1.205 0 1.445 0l.57-1.752zM26 26.3h.598c.5 0 .797.296.647.742-.114.34-.493.758-1.153.859a6.177 6.177 0 01-.65.039L26 26.3zm8.09 2.945a4.874 4.874 0 01-1.865.418c-1.484 0-2.068-.67-1.749-1.623.277-.82 1.22-1.707 2.819-1.707.626 0 1.172.212 1.427.514h.135c.144-.196.264-.385.415-.575-.5-.178-1.238-.273-1.874-.273-2.1 0-4.057.664-4.547 2.12-.384 1.142.93 1.88 2.992 1.88.645 0 1.352-.067 1.988-.241l.373-.48-.114-.033zM37.934 26c-.241 0-1.208.01-1.446 0l-1.3 3.999h3.651c.007-.078.007-.162.032-.24.028-.078.084-.162.129-.24-.668.04-1.394.078-2.232.078L37.934 26z" fill="#231F20"/></svg>