<svg width="56" height="56" viewBox="0 0 56 56" xmlns="http://www.w3.org/2000/svg"><path fill="#F0F3FA" d="M0 0h56v56H0z"/><path d="M12.4 25.06a3.94 3.94 0 0 0-2.78-.87c-2.44.2-3.94 2.73-3.22 5a3.74 3.74 0 0 0 6.01 1.72.45.45 0 0 1 .62.05c.28.29.55.52.84.84.19.22.17.5-.05.7a5.87 5.87 0 0 1-9.46-2.43 6 6 0 0 1 4.34-7.94c1.86-.39 3.8.1 5.16 1.43a.45.45 0 0 1 .02.63c-.3.33-.57.55-.85.83-.2.2-.41.21-.63.04ZM34 24a1 1 0 1 0 0-2 1 1 0 0 0 0 2ZM17 26.33c0 .14.04.15.11.04.5-.77 1.12-1.21 1.85-1.3 1.94-.27 3.02 1.43 3.04 3.49v5.05c0 .26-.13.39-.35.39h-1.38a.29.29 0 0 1-.2-.1c-.07-.07-.07-.15-.07-.25v-4.38c.01-.99-.47-2.47-1.76-2.03-.46.15-.82.5-1.08 1.04-.11.25-.16.56-.16.95v4.45c0 .21-.1.32-.29.32H15.4c-.26 0-.39-.15-.39-.45V22.41c0-.28.12-.41.35-.41h1.45c.03 0 .05.01.08.03a.2.2 0 0 1 .06.05l.05.07.01.1v4.08ZM38.1 30.17c.42 1.77 2.58 2.4 4.06 1.12.23-.2.47-.2.7.01.28.25.45.43.73.74a.4.4 0 0 1 0 .54A4.38 4.38 0 0 1 36 29.5c.02-2.6 1.95-4.62 4.56-4.5 1 .05 1.9.42 2.7 1.12.14.12.25.26.34.4a.33.33 0 0 1-.03.4c-.28.31-.5.5-.76.76-.24.23-.5.24-.76.02-2.06-1.68-4.52.1-3.95 2.47ZM34.7 25h-1.4c-.16 0-.3.17-.3.38v8.24c0 .21.14.38.3.38h1.4c.16 0 .3-.17.3-.38v-8.24c0-.21-.14-.38-.3-.38Z" fill="#211F20"/><path fill-rule="evenodd" d="M45.79 30.5c-.03-.1 0-.14.1-.14h5.36c.34 0 .67-.03.72-.45.25-2.43-1.1-4.72-3.67-4.9a4.23 4.23 0 0 0-4.6 3.94c-.28 2.79 1.56 4.98 4.35 5.05a4.47 4.47 0 0 0 3.09-1.12c.15-.13.22-.3.2-.5a.2.2 0 0 0-.05-.13l-.62-.64a.44.44 0 0 0-.55-.06c-1.33.88-3.8.8-4.33-1.05Zm-.02-1.5h4.18v-.01l.01-.02v-.01a1.85 1.85 0 0 0-.6-1.38 2.1 2.1 0 0 0-1.48-.57h-.03c-.56 0-1.09.2-1.48.57-.39.37-.6.87-.6 1.39v.02Z" fill="#211F20"/><path d="M25.77 33.65a4.5 4.5 0 1 0 3.46-8.3 4.5 4.5 0 0 0-3.46 8.3Zm1.77-1.63a2.5 2.5 0 1 1-.04-5 2.5 2.5 0 0 1 .04 5Z" fill="#211F20"/></svg>