<svg width="56" height="56" xmlns="http://www.w3.org/2000/svg"><path fill="#F0F3FA" d="M0 0h56v56H0z"/><path d="M26.44 43.133c-1.112-2.579-.782-5.016 1.525-7.508 2.867-3.073 5.541-6.129 4.059-8.791 1.18.492 1.954 1.119 2.263 1.935 1.712 4.529-4.91 7.704-6.788 10.786-.61.997-.86 2.317-1.06 3.578z" fill="#E40911"/><path d="M29.124 46c-1.087-2.577-.734-5.015 1.596-7.508 2.9-3.073 5.6-6.127 4.142-8.79 1.176.493 1.944 1.12 2.244 1.934 1.671 4.53-4.98 7.704-6.89 10.788-.62.996-.88 2.314-1.092 3.576z" fill="#E40911"/><path d="M43.13 29.604c-2.576 1.108-5.015.781-7.508-1.527-3.072-2.87-6.128-5.54-8.79-4.059.493-1.182 1.12-1.953 1.934-2.263 4.531-1.713 7.705 4.907 10.787 6.79.997.608 2.317.858 3.578 1.06z" fill="#123C86"/><path d="M46 26.92c-2.578 1.083-5.015.73-7.508-1.598-3.073-2.898-6.127-5.597-8.792-4.141.495-1.175 1.121-1.943 1.934-2.243 4.529-1.67 7.704 4.98 10.788 6.889.996.617 2.316.88 3.578 1.092z" fill="#123C86"/><path d="M29.64 12.87c1.11 2.578.78 5.015-1.526 7.507-2.868 3.075-5.54 6.127-4.057 8.791-1.18-.494-1.954-1.12-2.264-1.935-1.713-4.529 4.908-7.702 6.789-10.786.608-.997.857-2.315 1.059-3.578z" fill="#E40911"/><path d="M26.956 10c1.083 2.577.733 5.015-1.596 7.508-2.9 3.073-5.6 6.127-4.143 8.789-1.175-.494-1.943-1.12-2.243-1.935-1.67-4.53 4.982-7.704 6.891-10.786.615-.998.877-2.314 1.09-3.576z" fill="#E40911"/><path d="M12.87 26.481c2.578-1.11 5.015-.78 7.508 1.525 3.073 2.87 6.127 5.54 8.791 4.06-.494 1.178-1.12 1.953-1.935 2.26-4.53 1.714-7.704-4.908-10.787-6.788-.999-.607-2.315-.857-3.577-1.057z" fill="#123C86"/><path d="M10 29.164c2.577-1.083 5.015-.732 7.508 1.598 3.073 2.9 6.127 5.597 8.79 4.143-.494 1.176-1.12 1.942-1.936 2.243-4.528 1.67-7.704-4.98-10.786-6.89-.997-.618-2.314-.881-3.576-1.094z" fill="#123C86"/></svg>