<svg width="56" height="56" viewBox="0 0 56 56" xmlns="http://www.w3.org/2000/svg"><path fill="#F0F3FA" d="M0 0h56v56H0z"/><path d="M26.44 43.13c-1.11-2.58-.78-5.01 1.52-7.5 2.87-3.08 5.55-6.13 4.06-8.8 1.18.5 1.96 1.12 2.27 1.94 1.7 4.53-4.91 7.7-6.8 10.78a10 10 0 0 0-1.05 3.58Z" fill="#E40911"/><path d="M29.12 46c-1.08-2.58-.73-5.02 1.6-7.5 2.9-3.08 5.6-6.13 4.14-8.8 1.18.5 1.95 1.12 2.25 1.94 1.67 4.53-4.98 7.7-6.9 10.78-.61 1-.87 2.32-1.09 3.58Z" fill="#E40911"/><path d="M43.13 29.6c-2.58 1.11-5.01.79-7.5-1.52-3.08-2.87-6.14-5.54-8.8-4.06.5-1.18 1.12-1.96 1.94-2.26 4.53-1.72 7.7 4.9 10.78 6.79 1 .6 2.32.85 3.58 1.05Z" fill="#123C86"/><path d="M46 26.92c-2.58 1.08-5.02.73-7.5-1.6-3.08-2.9-6.14-5.6-8.8-4.14.5-1.17 1.12-1.94 1.93-2.24 4.53-1.67 7.7 4.98 10.8 6.89.99.61 2.3.88 3.57 1.09Z" fill="#123C86"/><path d="M29.64 12.87c1.11 2.58.78 5.01-1.53 7.5-2.86 3.08-5.54 6.13-4.05 8.8-1.18-.5-1.96-1.12-2.27-1.94-1.71-4.53 4.91-7.7 6.8-10.78.6-1 .85-2.32 1.05-3.58Z" fill="#E40911"/><path d="M26.96 10c1.08 2.58.73 5.02-1.6 7.5-2.9 3.08-5.6 6.13-4.14 8.8-1.18-.5-1.95-1.12-2.25-1.94-1.67-4.53 4.99-7.7 6.9-10.78.61-1 .87-2.32 1.09-3.58Z" fill="#E40911"/><path d="M12.87 26.48c2.58-1.11 5.02-.78 7.5 1.53 3.08 2.87 6.13 5.54 8.8 4.06-.5 1.17-1.12 1.95-1.94 2.26-4.53 1.71-7.7-4.91-10.78-6.8-1-.6-2.32-.85-3.58-1.05Z" fill="#123C86"/><path d="M10 29.16c2.58-1.08 5.02-.73 7.5 1.6 3.08 2.9 6.14 5.6 8.8 4.14-.5 1.18-1.12 1.95-1.94 2.25-4.53 1.67-7.7-4.98-10.78-6.9-1-.61-2.32-.87-3.58-1.09Z" fill="#123C86"/></svg>