<svg xmlns="http://www.w3.org/2000/svg" width="56" height="56"><path fill="#F0F3FA" d="M0 0h56v56H0z"/><path d="M18.48 27.65c0-.35-.29-.65-.62-.65h-1.64c-.12 0-.17.06-.24.16l-.4.59h1.9c.16 0 .28.17.28.33V30h.72v-2.35z" fill="#D0202D"/><path d="M14.86 26h.72v4h-.72v-4zm8.79 1h-3v3h.73v-2.25h1.87c.17 0 .3.17.3.33V30h.72v-2.35a.64.64 0 00-.62-.65zM9.07 26H4v4h.72v-3.26h1.64c.1 0 .17.06.17.17V30h.73v-3.08c0-.1.1-.18.2-.18h1.31c.16 0 .3.11.3.28V30h.72v-3.26a.73.73 0 00-.72-.74zm10.13 2.02V30h.73v-2.9s-.34.3-.57.53a.55.55 0 00-.16.4zm0-2.02h.73v.74l-.73.7V26zm10.59 1a.44.44 0 00-.45.44V30h.72v-1.91c0-.17.15-.34.32-.34h1.15c.12 0 .22-.05.28-.14l.43-.61h-2.45zm-1.89-1v3.27h-2c-.1 0-.18-.08-.18-.16v-1.1c0-.15.13-.26.29-.26h1.26c.11 0 .22-.08.27-.15l.35-.6h-2.3c-.33 0-.6.3-.6.62v1.9c0 .3.26.48.5.48h3.13v-4h-.73zm7.36 1h-2.32a.34.34 0 00-.28.16l-.4.59h2.61c.15 0 .26.17.26.33v1.17h-2.17v-.27c0-.07.03-.1.1-.1h1.35v-.55c0-.1-.06-.2-.15-.2h-1.65c-.2 0-.37.22-.37.44v1.15c.02.16.15.28.3.28h3.32v-2.35c0-.36-.27-.65-.6-.65zm-21.72 0h-2.32a.34.34 0 00-.28.16l-.39.59h2.6c.14 0 .26.17.26.33v1.17h-2.17v-.26c0-.06.03-.12.1-.12h1.35v-.6c0-.1-.06-.14-.14-.14h-1.66a.38.38 0 00-.37.39v1.2c.02.16.15.28.3.28h3.32v-2.35c0-.36-.27-.65-.6-.65z" fill="#D0202D"/><path d="M42.17 26c1.29.02 1.15 1.03.92 1.53h-1.13c.03-.39-.26-.53-.4-.53h-1.42c-.42-.01-.65.36-.72.53l-.25.8c-.17.53.26.67.5.67h1.42c.4.01.64-.37.71-.56h1.13C42.68 29.7 41.91 30 41.56 30h-2.79c-1.15-.07-1.09-.97-.91-1.41l.42-1.45c.37-.98 1.14-1.14 1.52-1.14h2.37zm4.07 0h-1.2l-1.07 4h1.2l1.07-4zm1.6 0H52l-.3 1h-2.95l-.17.5h2.9l-.26 1h-2.87l-.14.5h3.09l-.3 1h-4.2l1.04-4z" fill="#192A58"/></svg>