<svg xmlns="http://www.w3.org/2000/svg" width="56" height="56" viewBox="0 0 56 56"><path fill="#F0F3FA" d="M0 0h56v56H0z"/><path d="M46.96 23 45 21l1.1-1.06.86.88L49.72 18l1.08 1.1-3.84 3.9Z" fill="#F47721"/><path d="M16 23a1 1 0 1 0 0-2 1 1 0 0 0 0 2Zm-1 1v9h2v-9h-2Zm-1-2.31v2.21a5.3 5.3 0 0 0-2.84-.9C9.65 23 8 24.37 8 27s1.46 4 3 4c1.24 0 2.52-.63 3-.88v2c-.46.3-1.67.88-2.84.88C9.71 33 6 32.28 6 26.81 6 21.35 9.82 21 11.16 21a7.8 7.8 0 0 1 2.84.69ZM38 22a1 1 0 1 1-2 0 1 1 0 0 1 2 0Zm-2 11v-9h2v9h-2Zm-11.37-8.84-.63.36a5 5 0 0 0-2.48-.52c-1.7 0-3.52 1-3.52 3 0 1.6.6 2.01.82 2.07-.05.05-.11.1-.18.14-.28.22-.64.49-.64 1.18 0 .57.41.86.65 1.03l.05.03c-.23.35-.7 1.22-.7 1.99 0 .95.61 2.56 3.52 2.56 2.9 0 4.06-1.55 4.06-2.56s-.4-2.94-4.06-2.94H20.1a.27.27 0 0 1-.26-.27c0-.15.11-.23.26-.23H22c.96-.09 3-.94 3-3 0-.3-.15-1-.37-1.31l.68-.36a.7.7 0 0 0 .16-1 .65.65 0 0 0-.84-.17ZM23 26.9c0 .78-.67 1.4-1.5 1.4s-1.5-.62-1.5-1.4c0-.78.67-1.41 1.5-1.41s1.5.63 1.5 1.4Zm.86 6.32c0 .58-.97 1.06-2.17 1.06s-2.17-.48-2.17-1.06c0-.58.97-1.06 2.17-1.06s2.17.48 2.17 1.06ZM27 33v-7.8c.82-.4 2.84-1.2 4.29-1.2C33.1 24 35 25.05 35 26.98V33h-2v-5.78c0-.96-.9-1.72-1.94-1.72h-.3A1.7 1.7 0 0 0 29 27.22V33h-2Zm13-7v5.16c0 1.02 1.02 1.84 2.27 1.84h.87a6.16 6.16 0 0 0 1.86-.39v-1.5c-.37.1-1.26.33-1.86.33-.76 0-1.14-.64-1.14-1.2V26h2v-2h-2v-3l-2 .5V24h-1v2h1Zm6 7h2v-9h-2v9Z" fill="#005D99"/></svg>