<svg width="56" height="56" viewBox="0 0 56 56" xmlns="http://www.w3.org/2000/svg"><path fill="#F0F3FA" d="M0 0h56v56H0z"/><path d="M7.5 27H9v-.22C9 25.06 8.46 24 6.97 24 5.47 24 5 25.2 5 26.87v2.24C5 30.9 5.48 32 7.02 32 8.55 32 9 30.76 9 29.06V29H7.5v.53c0 .3-.13.97-.5.97-.36 0-.5-.58-.5-.9v-3.17c0-.33.13-.93.51-.93.36 0 .49.56.49.87V27Zm4-3v8H10v-8h1.5Zm16 0v8H26v-8h1.5Zm4.5 2.48h-1.5v-.56c0-.21-.2-.59-.5-.59-.22 0-.5.16-.5.56 0 .57.22.71.63.99l.1.06c1.18.8 1.77 1.47 1.77 2.94 0 1.27-.57 2.12-1.94 2.12-1.53 0-2.06-1.05-2.06-2.4V29h1.5v1.02c0 .25.14.68.5.68.23 0 .5-.21.5-.62 0-.79-.3-1-.8-1.34l-.34-.24c-.88-.66-1.36-1.2-1.36-2.34 0-1.27.53-2.16 1.9-2.16 1.46 0 2.1.84 2.1 2.18v.3Zm4.5-.98V24H33v1.5h1V32h1.5v-6.5h1ZM40 24l1 8h-1.5l-.08-1.44h-.83L38.5 32H37l1-8h2Zm-.74 5-.24-3.21-.3 3.21h.54ZM45 24l1 8h-1.5l-.08-1.44h-.83L43.5 32H42l1-8h2Zm-.74 5-.24-3.21-.3 3.21h.54Zm5.24-2.52H51v-.3c0-1.34-.64-2.18-2.1-2.18-1.37 0-1.9.89-1.9 2.16 0 1.14.48 1.68 1.36 2.34l.33.24c.51.35.81.55.81 1.34 0 .4-.27.62-.5.62-.36 0-.5-.43-.5-.68V29H47v.6c0 1.35.53 2.4 2.06 2.4 1.37 0 1.94-.85 1.94-2.12 0-1.47-.59-2.14-1.78-2.94l-.09-.06c-.41-.28-.63-.42-.63-.99 0-.4.28-.56.5-.56.3 0 .5.38.5.59v.56ZM24 32l1-8h-1.5l-.48 5.59L22.5 24H21l1 8h2Zm-7-8h3v1.5h-1.5v1.62h1v1.52h-1v1.76H20V32h-3v-8Zm-1 8v-8h-1.5v3.6l-1-3.6H12v8h1.5v-3.64l.93 3.64H16Z" fill="url(#a)"/><defs><linearGradient id="a" x1="2.98" y1="24.52" x2="45" y2="24.47" gradientUnits="userSpaceOnUse"><stop stop-color="#1E5282"/><stop offset=".49" stop-color="#39A1FD"/><stop offset=".84" stop-color="#276BAD"/></linearGradient></defs></svg>