<svg xmlns="http://www.w3.org/2000/svg" width="56" height="56" viewBox="0 0 56 56"><path fill="#F0F3FA" d="M0 0h56v56H0z"/><path fill-rule="evenodd" d="M37.67 13H18.92L9 28.2 18.92 43h18.75L47 28.2 37.67 13zm-2.51 1H21.14l-9.72 15.49L18.32 40h19.9l6.56-10.86L35.16 14zM18.69 32c1.22 0 2.25-.91 2.58-2.16l-1.02-.11c-.25.74-.86 1.27-1.57 1.27-.93 0-1.68-.9-1.68-2s.75-2 1.68-2c.67 0 1.25.46 1.52 1.13l.88-.5a2.67 2.67 0 0 0-2.4-1.63C17.2 26 16 27.34 16 29s1.2 3 2.69 3zM22 24h1v8h-1v-8zm7.22 6a2.73 2.73 0 0 1-2.53 2C25.2 32 24 30.66 24 29s1.2-3 2.69-3c1.48 0 2.68 1.34 2.68 3v.25H25c.1.98.82 1.75 1.68 1.75.63 0 1.18-.4 1.47-1h1.06zm-4.13-1.64h3.2c-.22-.8-.85-1.36-1.6-1.36-.74 0-1.37.57-1.6 1.36zM37 26.84a2.24 2.24 0 0 1 4 1.4V32h-1v-3.5a1.5 1.5 0 0 0-3 0V32h-1v-6h1v.84zM32.75 26c-1.8.01-2.58 1.2-2.75 1.8l1.06.15c.13-.34.6-.99 1.69-.95 1.07.04 1.33.95 1.25 1.4-4.02.16-4 1.47-4 2.05v.07c0 .54.47 1.48 1.95 1.48 1.18 0 1.94-.5 2.18-.76l.11.76h1.15a2.7 2.7 0 0 1-.39-1.17V27.8c0-.61-.45-1.82-2.25-1.81zm-.46 5c1.59-.03 1.79-1.23 1.69-1.83-.44.1-1.5.3-2.31.44-.99.16-.97 1.41.62 1.39z" fill="#A5D036"/></svg>