<svg width="56" height="56" viewBox="0 0 56 56" xmlns="http://www.w3.org/2000/svg"><path fill="#F0F3FA" d="M0 0h56v56H0z"/><path d="M15.51 24.23c-.27.06-.48.2-.65.45-.32.47-.32 1.32-.23 1.9.13.84.46 1.66 1 2.48.03.05.05.04.05-.02.12-1.33.66-2.61 2-3.1a4 4 0 0 1 1.44-.17h1.52c.05 0 .08.02.08.07l-.03 3.9 1.13-.02c.02 0 .03-.01.03-.03-.04-.99-.06-2.1-.05-3.31 0-.64.05-1.2.12-1.64.12-.74.57-1.2 1.35-1.38.28-.06.56-.08.85-.07l1.55.1c.05 0 .06.02.03.06l-1.23 1.32a.18.18 0 0 1-.17.05 1.28 1.28 0 0 0-.52 0v1.75c0 .04.05.06.07.04l.44-.38c.56-.46 1.37-.74 1.88-.04.16.24.26.5.3.81.02.25.05.46.05.73 0 .11.02.11.07 0 .52-1.38 1.6-1.93 3.03-1.9h1.72V27c.46-.6 2.13-1.76 2.59-.4 0 .04.26.04.29 0 .05-.05.09-.1.12-.1a2.7 2.7 0 0 1 1.13-.54c.5-.03.87.08 1.09.32.13.14.19.3.19.6-.01.48-.31.9-.55 1.2-.3.4-.62.75-.97 1.07l-.53.51c-.04.04-.06.03-.05-.02l.15-1.75c0-.03-.04-.04-.06-.02l-.68.7v.31l-.01 1.49c-.4.47-.89.8-1.44.9-.1.02-.2 0-.34 0-.04.02-.1-.01-.1-.06v-.63a.56.56 0 0 0-.02-.25c-.01-.03-.03-.04-.06-.02-.22.2-.45.39-.7.56-.3.21-.64.28-1 .19a1.49 1.49 0 0 1-.77-.6v-.24c0-.04-.06-.06-.08-.03-.4.42-.84.7-1.33.84-.28.08-.54.03-.83.03-.12-.06-.56-.3-.6-.26-.2.23-.41.35-.6.37-.23.03-.48.05-.74.06a2.58 2.58 0 0 1-.6-.4.82.82 0 0 1-.2-.52c0-.44 0-.87.04-1.32.02-.36.02-.72 0-1.09.02-.1 0-.17-.05-.22-.03-.03-.06-.03-.08 0-.26.23-.5.48-.7.75-.14.36-.07 1.3-.14 1.73-.15.3-.27.54-.47.73-.26.24-.59.32-.99.24-.08-.03-.4-.09-.4-.22-.02-.28.07-.67-.02-.88-.01-.03-.04-.04-.07-.02-.68.4-1.02 1.2-1.98 1.08a1.3 1.3 0 0 1-.81-.87c-.02-.04-.04-.05-.07-.02-.27.27-.8.7-1.17.78a9.2 9.2 0 0 1-.21.04c-.05 0-.06.03-.03.07.3.5 1.54 1.14 2.19 1.51.17.1-1.23.38-1.48.4a4.76 4.76 0 0 1-4.17-2.2 7.56 7.56 0 0 1-1.13-2.72c-.02-.03-.04-.03-.06 0-.37.92-.98 1.94-1.2 2.87-.03.08-.05.08-.08 0L10.3 27.9a.93.93 0 0 0-.15-.26.04.04 0 0 0-.06.02 10.1 10.1 0 0 1-1.86 4.01c-.35.42-.86.8-1.36.98-.32.11-.73.13-1.22.05-.34-.16-.6-.32-.78-.47-.34-.29-.6-.69-.76-1.2-.15-.45-.1-1.06-.1-1.51.2.17.44.35.63.53a2.2 2.2 0 0 0 2.42.5c.55-.2.96-.59 1.21-1.15.5-1.07.81-2.1.97-3.1.07-.42.2-1.9-.47-1.96-1.37-.12-3.13.42-3.25 2.06-.02.19.06.64.14.82.23.5.55.85.92 1.25.11.12.03.38.1.54-.18.48-.54.7-1.08.65-.14-.06-.31-.11-.4-.24-.78-1.03-1.21-2.23-.91-3.5.4-1.71 2.13-2.58 3.74-2.84 1.84-.3 3.04.35 3.64 2.13.17.48.3.93.43 1.36.03.07.05.08.08 0 .27-.62.5-1.17.73-1.65.12-.26.43-.6.9-1.03.8-.71 1.94-1.1 2.88-.47.24.15.48.42.72.8l.73 1.08c.05.06.04.08-.03.03l-1.05-.63c-.42-.25-1.07-.57-1.55-.46Z" fill="#9D861E"/><path d="M15.91 29.75a3.8 3.8 0 0 1 .08-1.51c.38-1.54 1.4-2.32 2.91-2.28h1.58c.04 0 .07.02.07.07l.02 3.9c0 .02.01.04.04.04l.9-.05c.07 0 .08.01.03.05-.28.24-.54.46-.8.64-.25.2-.6.34-.93.26-.3-.08-.6-.3-.63-.63l-.06-.44c0-.03-.03-.04-.05-.02-.3.28-.6.53-.92.75a1.82 1.82 0 0 1-1.21.33l-.01.01v.02c.7.64 1.46 1.18 2.27 1.63.1.05.1.1-.02.1-.44.07-.9.19-1.34.17a4.54 4.54 0 0 1-3.66-2.1 7.02 7.02 0 0 1-1.16-3.29c-.02-.15-.05-.16-.11-.02l-1.3 3.1c0 .03-.04.03-.05 0L10.12 27c-.03-.07-.05-.07-.07 0l-.34 1.23c-.44 1.5-1.73 4.55-3.76 4.28a2.1 2.1 0 0 1-1.71-1.8 4.02 4.02 0 0 1-.02-.74c0-.05.03-.05.07-.02.32.31.61.58 1.03.76.96.4 2 .12 2.71-.63.35-.36.53-.87.7-1.33.44-1.1.78-2.24.74-3.4-.02-.48-.23-1.24-.81-1.26-1.28-.07-2.85.4-3.27 1.76-.28.93.24 1.92.91 2.56.08.08.13.18.14.28.06.67-.47.82-1 .69a.18.18 0 0 1-.1-.06c-.84-1.06-1.28-2.5-.73-3.8.56-1.36 2.03-2.07 3.44-2.27.35-.05.68-.11 1.03-.07.18.02.36.05.53.09 1.16.26 1.68 1.26 2 2.32l.46 1.48c.03.07.06.07.09 0 .25-.56.49-1.11.7-1.66.15-.35.33-.65.54-.89.65-.75 1.7-1.49 2.76-1.17.7.22.99.8 1.36 1.35.07.1.05.11-.04.05-.66-.45-1.43-.98-2.21-.68-.76.3-.97 1.2-.9 1.94.1 1.41.68 2.61 1.52 3.75.02.03.03.03.02 0ZM23.6 27.16c.45-.54 1.68-1.82 2.39-.9.18.22.28.52.28.82v2.95c0 .03.01.04.04.03a.52.52 0 0 1 .26-.01c.02 0 .04-.02.04-.05-.1-.36-.13-.73-.1-1.11.04-.34.11-.67.2-.97a2.64 2.64 0 0 1 2.83-1.96 34.02 34.02 0 0 0 1.6.01l.01.03c.03.4.05.73.05 1.01.02.96.02 1.92 0 2.9 0 .04.03.06.08.06.29-.03.57-.05.85-.05.08 0 .09.02.03.07-.61.47-1.34 1.36-2.17.62a.47.47 0 0 1-.16-.29 13.4 13.4 0 0 1-.07-.49.05.05 0 0 0-.08-.03c-.57.52-1.14 1.05-1.94 1.07-.37 0-.71-.14-.91-.45-.01-.02-.04-.02-.05 0-.22.4-.6.6-1.14.58-.44-.01-.83-.3-.82-.76l.08-2.36a.66.66 0 0 0-.17-.46c-.02-.03-.05-.04-.08-.02-.4.15-.76.61-1.03.96a.18.18 0 0 0-.04.1c-.03.5-.1 1.03-.06 1.53 0 .13-.04.27-.12.4-.3.46-.77.7-1.31.46a.08.08 0 0 1-.05-.07c.03-.73-.03-1.48-.04-2.2v-2.86c.04-1 .13-1.95 1.28-2.18.4-.08.83-.09 1.27-.04.24.03.46.02.69.03.09 0 .1.03.04.1l-.9.92a.15.15 0 0 1-.1.04c-.28.03-.45-.06-.72.1a.1.1 0 0 0-.05.1v2.34c0 .07.03.08.08.03Z" fill="#F0F3FA"/><path d="M33.8 27.39c0 .02.03.03.05.01.46-.67 1.13-1.35 2.01-1.25.25.03.44.12.56.26.62.71-.98 2.25-1.45 2.7-.06.04-.08.03-.07-.04l.08-.54a3.89 3.89 0 0 0 .01-.94.12.12 0 0 0-.17-.02c-.35.27-.68.57-1 .9a.15.15 0 0 0-.04.1v1.68c0 .05-.01.1-.04.13-.35.39-.8.6-1.32.65-.04 0-.06-.01-.06-.05.03-.56.02-1.12 0-1.68-.04-.61-.04-1.22-.04-1.83 0-.08-.08-.12-.15-.09-.32.19-.51.42-.78.66-.02.02-.03.02-.03-.02a2.3 2.3 0 0 1 1.36-1.75c.46-.23.97-.12 1.02.47l.07.65Z" fill="#F0F3FA"/><path d="M32.04 27.72c-.16.12-.41.28-.53.44a.14.14 0 0 0-.03.09l-.01 1.5c0 .02 0 .03.03.02.22-.04.43-.05.63-.02.03 0 .05-.01.05-.04v-1.63c0-.06-.05-.43-.14-.36Z" fill="#F0F3FA"/><path d="M13.14 26.43c0-.02-.04-.03-.05 0l-1.48 3.56h-.04l-1.51-3.65c-.03-.08-.06-.08-.08 0-.34 1.72-.9 3.52-1.92 4.87-.64.84-1.66 1.5-2.68.9a2 2 0 0 1-.97-1.68c0-.05.02-.05.06-.02.7.59 1.47.8 2.32.6.87-.18 1.5-.7 1.87-1.54.5-1.11.93-2.38 1.02-3.62.05-.7-.12-1.97-1.09-1.97-1.12 0-2.31.28-2.99 1.16a2.23 2.23 0 0 0-.3 2.3c.18.46.52.89.86 1.23a.3.3 0 0 1 .09.21c0 .32-.17.47-.5.46a.41.41 0 0 1-.36-.2 4.44 4.44 0 0 1-.77-1.76c-.36-2.23 1.4-3.5 3.36-3.82 1.17-.2 2.21-.09 2.88.92.22.34.4.76.55 1.25.21.7.43 1.36.65 1.95 0 .03.07.07.09.02l1.08-2.48c.1-.21.35-.51.77-.9.83-.77 2.03-1.12 2.86-.15.05.06.04.07-.03.04-.19-.08-.36-.2-.55-.25-.94-.23-1.6.09-1.96.96-.14.34-.2.73-.16 1.19.18 2.74 2.23 5.06 4.5 6.42.08.05.08.08-.03.1a4.16 4.16 0 0 1-3.19-.78c-1.61-1.19-2.27-3.41-2.3-5.32Z" fill="#ED1B24"/><path d="m20.44 30.2.34-.05c.23-.05.26 0 .08.15-.43.35-.93.6-1.4.13a.18.18 0 0 1-.06-.1l-.13-.85c-.01-.05-.07-.07-.1-.04-.32.28-.64.56-.97.82-.4.33-.86.46-1.34.38-.5-.08-.74-.65-.78-1.1-.03-.46.02-.92.14-1.37.35-1.29 1.25-2.02 2.54-2h1.54c.03 0 .05.02.05.05v3.9c0 .06.03.08.1.08ZM23.38 27.7c.18-.25.39-.48.62-.71a3.2 3.2 0 0 1 1.18-.83c.6-.2.89.53.88.99v3.08c0 .06.06.1.12.08.1-.05.2-.07.32-.07a.1.1 0 0 1 .07.16c-.28.4-1.05.6-1.43.18a.38.38 0 0 1-.1-.28c0-.83.03-1.62.06-2.36a.86.86 0 0 0-.33-.73.12.12 0 0 0-.1-.03c-.5.15-.96.75-1.26 1.12a.15.15 0 0 0-.04.1c0 .48-.02 1.03-.06 1.63 0 .11-.05.21-.12.3-.21.29-.52.52-.9.39-.03-.02-.05-.04-.05-.08.03-.75-.05-1.48-.04-2.22l.01-2.51c.01-.64.05-1.07.13-1.3.23-.7.79-.92 1.48-.93.34 0 .67 0 .97.04.07 0 .08.04.03.09l-.5.53a.18.18 0 0 1-.17.06.86.86 0 0 0-.8.23.12.12 0 0 0-.04.09v2.95c0 .07.03.08.07.02ZM31.07 30.19c.11 0 .23-.01.35-.04.23-.05.26 0 .08.14-.4.32-.86.6-1.34.22-.09-.07-.14-.18-.16-.34a9.05 9.05 0 0 0-.1-.72.06.06 0 0 0-.1 0l-.84.71c-.42.37-.89.53-1.4.5-.57-.05-.82-.68-.84-1.2-.05-1.27.38-2.59 1.62-3.12.3-.13.7-.19 1.15-.18.48.02.95.02 1.42 0 .05 0 .09.04.09.09v3.87c0 .04.02.07.07.07ZM33.63 27.83c.02.09.05.1.1.02.51-.68 1.33-1.84 2.35-1.43.88.35-.56 1.85-.85 2.15-.06.06-.08.05-.07-.04.07-.27.09-.54.07-.82-.01-.15-.1-.38-.28-.37-.37 0-1.07.8-1.33 1.06a.1.1 0 0 0-.03.08v1.71c0 .04-.01.07-.04.1a1.77 1.77 0 0 1-.92.51.05.05 0 0 1-.04-.02v-.02l-.07-3.4-.02-.04c-.19-.24-.43-.11-.63.02-.12.09-.14.07-.05-.05.26-.35.57-.62.93-.82.41-.23.77-.14.8.38l.08.98Z" fill="#ED1B24"/><path d="M19.2 28.94c-.43.23-1.05.5-1.52.38-.69-.17-.48-1.41-.31-1.81.3-.73 1.08-.94 1.82-.96.03 0 .05.01.05.05v2.27c0 .03-.01.05-.04.07ZM29.83 29.07c-.5.3-1.65.82-1.95.02a1.24 1.24 0 0 1-.08-.68c.02-.1.04-.2.04-.27.07-1.04 1.07-1.46 1.96-1.41.04 0 .06.02.06.05v2.25a.05.05 0 0 1-.03.04Z" fill="#F0F3FA"/><path d="M19.04 26.8v1.94c0 .03-.02.06-.05.08-.38.2-1.47.69-1.56-.1-.13-1.22.33-1.87 1.57-1.96a.04.04 0 0 1 .04.04ZM29.59 28.99c-.4.16-.72.33-1.13.32-.64-.01-.46-1.07-.36-1.42.18-.67.85-.96 1.52-.96.02 0 .03.01.03.04v1.93c0 .04-.02.07-.06.09Z" fill="#9D861E"/><path d="M18.85 27.17c0-.1-.02-.14-.06-.14-.53.01-.9.25-1.08.73-.1.22-.06.5-.06.78 0 .14 0 .2.03.3a.2.2 0 0 0 .2.14c.32-.03.63-.12.92-.26a.08.08 0 0 0 .05-.08v-1.47ZM29.47 27.34c0-.07-.01-.12-.03-.16-.02-.03-.05-.04-.09-.03-.43.12-.82.23-1.01.68-.14.34-.17.68-.1 1.03 0 .06 0 .12.03.17.15.29.97-.07 1.16-.17a.09.09 0 0 0 .05-.09l-.01-1.43Z" fill="#F0F3FA"/><path d="M50.59 25.04c-.09.35-.27.64-.55.85-.03.02-.04.05-.02.08.02.06.09.08.2.07.37.72.51 1.5.42 2.35-.05.37-.03.73-.04 1.1 0 .02.03.04.05.02l1.32-1.1c.03-.02.04-.02.02.02l-.63 1.27a2 2 0 0 1-1.03 1.16c-.14.06-.33.14-.71.14-.5 0-.7-.57-.77-1.04a9.65 9.65 0 0 1-.1-2.45v-.16c-.02-.04-.05-.05-.08-.03l-.48.23-.9.44a.08.08 0 0 0-.04.06l-.1 1.5c-.01.04 0 .05.03.05l.85-.11c.06-.01.08.01.04.06l-.39.54c-.07.12-.2.28-.4.47-.31.3-.68.45-1.09.44-.27-.1-.44-.2-.5-.28-.3-.4-.45-.86-.46-1.34a21.79 21.79 0 0 1 .06-1.58c-.02-.06-.1-.09-.15-.05-.29.22-.55.5-.78.84-.19.27.01 1.1 0 1.47-.3.62-.75.88-1.35.8-.42-.19-.34-.15-.45-.47-.01-.05-.03-.05-.07-.02a2.4 2.4 0 0 1-.86.58c-.22.08-.41.03-.63.04-.3-.11-.56-.3-.77-.57a.42.42 0 0 0-.03-.21c0-.03-.03-.04-.05-.02l-.46.36c-.4.3-.89.44-1.51.44-.45 0-.94-.58-1.04-.95a2.58 2.58 0 0 1-.12-.86c.09-1.28.58-2.5 1.88-3 .34-.13.6-.18 1.26-.18h1.69c.04 0 .06.1.06.14 0 .32.1.51.1.83-.01-.01 0 0 0 0 .01.02.05.05.07.03.25-.27.53-.51.84-.74.17-.13.4-.26.6-.26.14 0 .27.06.39.15.23.18.32.56.34.83.01.1.05.11.11.03.22-.28.5-.51.86-.72.25-.13.52-.28.78-.29.38-.01.73.2.95.6.17.31.16.7.24 1.01.02.06.05.07.09.02a7.3 7.3 0 0 1 1.5-1.4c.03-.01.04-.04.02-.07a.2.2 0 0 0-.07-.07.16.16 0 0 1-.06-.06c-.47-.81-.46-2.18.89-2.02.65.08 1 .42 1.03 1.03Z" fill="#9D861E"/><path d="M48.74 25.81c-.3-.6-.35-1.68.63-1.64.6.02 1.25.4.93 1.07a2 2 0 0 1-.76.78c-.3.2-.64.1-.8-.2Z" fill="#F0F3FA"/><path d="M48.88 27.06c-.23 0-.4.11-.6.22l-.81.44-.04-.01.01-.04c.66-.55 1.23-1.48 2.2-1.55.34-.03.63.2.68.51.05.33.07.65.05.97-.05.71-.03 1.43-.03 2.15 0 .04.02.06.06.06.1 0 .19-.04.27-.1l.67-.56c.1-.1.13-.08.06.05-.14.3-.3.59-.47.86-.19.3-.45.51-.79.64-.5.2-.93-.02-1.06-.54a8.64 8.64 0 0 1-.12-3.04.08.08 0 0 0-.02-.03.09.09 0 0 0-.06-.03ZM41.8 27.5c.3-.3.6-.59.91-.87.34-.32 1.05-.76 1.27-.05.08.27.13.55.15.83 0 .08.04.09.09.03l.3-.35c.36-.45 1.1-.98 1.72-.84.48.1.67.55.7 1 .03.6.02 1.1-.02 1.5l-.1.96c0 .08.04.1.12.1l.72-.12c.06 0 .08.01.04.06-.34.48-.85 1.1-1.48 1.04-.8-.1-.87-1.47-.8-2.06l.06-.99c0-.03 0-.07-.02-.1a.19.19 0 0 0-.07-.07c-.39-.22-1.05.68-1.24.95a13.09 13.09 0 0 0-.02 1.23c.03.65-.68 1.13-1.3.84a.08.08 0 0 1-.05-.08v-3.09a.06.06 0 0 0-.05-.06l-.03.01-.9.36a.1.1 0 0 0-.05.09v2.06c0 .04.02.05.06.06.28.02.54 0 .78-.03.16-.03.17 0 .05.1-.34.26-.64.57-1.04.72a.92.92 0 0 1-1.05-.2.44.44 0 0 1-.13-.26l-.06-.45c0-.05-.02-.06-.06-.03-.61.54-1.27 1.1-2.14.98-.61-.1-.9-.65-.95-1.2-.04-.52.03-1.04.22-1.57.32-.9.92-1.45 1.81-1.68.3-.07.7-.1 1.22-.1.42.02.83.02 1.23 0 .03 0 .06.04.06.07v1.2c0 .04.02.05.06.01Z" fill="#F0F3FA"/><path d="M42.58 27.87a.29.29 0 0 0 0-.17c-.01-.03-.04-.04-.07-.04-.4.11-.57.25-.51.43l.03 1.62c0 .04.01.05.05.05h.47l.03-.02v-1.87Z" fill="#F0F3FA"/><path d="M48.88 25.66c-.25-.69-.18-1.62.9-1.23.36.13.53.45.32.8-.17.26-.42.5-.76.69a.2.2 0 0 1-.12.03c-.16-.02-.28-.12-.34-.3ZM49.1 26.94a.73.73 0 0 0-.58.02c-.07.03-.08.01-.03-.04.16-.16.35-.31.58-.44.43-.25 1-.32 1.07.3.04.33.05.65.03.95-.05.72-.03 1.44-.03 2.14 0 .03.01.06.03.08l.08.04c.14.01.3.02.43-.07a.8.8 0 0 1 .13-.08c.04-.02.05-.01.03.03-.18.32-.45.54-.8.68-.37.14-.68-.09-.77-.42a7.7 7.7 0 0 1-.15-2.45c.02-.22.03-.45.03-.67 0-.04-.02-.06-.05-.07ZM44.02 27.95c0 .04.02.04.04 0 .25-.34.51-.65.78-.93.3-.32 1-.79 1.49-.55.23.11.36.33.4.65.04.51.04 1.03-.01 1.54-.04.45-.08.89-.1 1.31 0 .04.02.06.06.05l.54-.08c.07 0 .09.02.04.07-.12.15-.27.29-.42.41-.3.23-.72.3-.95-.06-.31-.47-.33-1.17-.27-1.7.04-.3.02-.58.05-.88a.4.4 0 0 0-.08-.27c-.47-.64-1.43.66-1.65.97a20.3 20.3 0 0 0-.02 1.31c0 .17-.04.3-.13.42-.17.22-.5.38-.77.25-.03-.02-.05-.04-.05-.07.01-.93.02-1.91.01-2.95 0-.23-.22-.3-.42-.2l-.28.1c-.07.03-.08.01-.02-.04.29-.28.8-.8 1.18-.91a.27.27 0 0 1 .18 0c.06.03.1.08.13.13.04.1.08.21.1.33l.17 1.1ZM40.5 29.49c0-.04-.06-.06-.09-.03-.34.3-.68.57-1.03.83-.37.26-.97.44-1.4.23-.91-.44-.56-2.06-.24-2.74.45-.96 1.28-1.34 2.37-1.37.5-.01.97 0 1.4.01.03 0 .04.02.04.04 0 1.27-.05 2.48.04 3.65 0 .03.02.04.05.04l.47-.02c.06 0 .07.01.03.05-.38.34-.87.63-1.35.3a.37.37 0 0 1-.17-.25l-.11-.74Z" fill="#ED1B24"/><path d="M40.42 29.14c-.61.31-1.93.86-1.95-.38-.03-1.23.67-1.84 1.95-1.81.03 0 .05.02.05.05v2.06c0 .04-.02.07-.05.08Z" fill="#F0F3FA"/><path d="M38.9 29.3c-.2-.09-.26-.45-.25-.64l.06-.45c.13-.8.76-1.01 1.52-1.08.02 0 .04.01.04.03l-.01 1.8c0 .04-.01.06-.04.07-.34.18-.95.43-1.31.27Z" fill="#9D861E"/><path d="M40.05 27.39a.07.07 0 0 0-.05-.02c-.52.02-.86.24-1.03.67-.06.15-.1.4-.15.77-.02.19-.02.4.3.38.32-.02.63-.1.91-.26a.08.08 0 0 0 .05-.07c0-.26.13-1.35-.03-1.47Z" fill="#F0F3FA"/></svg>