<svg width="56" height="56" viewBox="0 0 56 56" xmlns="http://www.w3.org/2000/svg"><path fill="#F0F3FA" d="M0 0h56v56H0z"/><path d="m25.5 29.46-4.1-5.4-.03-.06H19v12h2.58v-7.85l3.77 4.87h.33l3.8-4.93V36H32V24h-2.37l-4.13 5.46ZM13.63 24a7.4 7.4 0 0 0-3.47.8A5.81 5.81 0 0 0 7 30.1c.03 1.1.34 3.87 3.18 5.26 1 .45 2.13.65 3.22.62.63.03 1.26-.03 1.86-.11h.06l1.52-2.1-.32.05a14.09 14.09 0 0 1-3.99-.06 3.62 3.62 0 0 1-3.1-3.32v-.14c-.08-1.65.84-3.6 3.14-3.98a7.1 7.1 0 0 1 3.44.34l.08.03 1.24-1.73.14-.2-.14-.06a10.32 10.32 0 0 0-3.7-.7ZM42.72 31.61c-.54-1.9-2.43-2.3-4.1-2.65l-.46-.09c-1.72-.37-1.8-1.22-1.78-1.56.09-.83.78-1.26 2.1-1.29h.08c.78.03 1.52.17 2.24.43l1.26-1.77a11 11 0 0 0-3.81-.68c-.32 0-.63.03-.98.06-2.87.4-3.5 2.42-3.41 3.56.17 2.42 1.95 2.96 4.13 3.4 2.18.42 2.15 1.25 2.12 1.59-.03.65-.43 1.45-2.18 1.45h-.05a6.7 6.7 0 0 1-2.79-.71l-1.23 1.74c1.35.6 2.78.91 4.24.91.66 0 1.32-.09 1.98-.23A3.9 3.9 0 0 0 42.41 34c.46-.74.54-1.6.31-2.39Z" fill="#180956"/><path d="M38.49 17.65a6.9 6.9 0 0 1-5.4-1.1l-3.42 4.69s1.69 1.3 7.02-.75c5.42-2.07 9.01 1.43 9.01 1.43l4.3-5.87A4.89 4.89 0 0 0 46.94 15c-3.31-.05-6.54 2.3-8.45 2.65Z" fill="url(#av52evxjk)"/><defs><linearGradient id="av52evxjk" x1="34.62" y1="14.63" x2="44.97" y2="22.87" gradientUnits="userSpaceOnUse"><stop stop-color="#034EA2"/><stop offset=".05" stop-color="#164A9B"/><stop offset=".25" stop-color="#563A83"/><stop offset=".44" stop-color="#8C2E70"/><stop offset=".61" stop-color="#B62460"/><stop offset=".77" stop-color="#D41D55"/><stop offset=".9" stop-color="#E6194E"/><stop offset="1" stop-color="#ED174C"/></linearGradient></defs></svg>