<svg width="56" height="56" xmlns="http://www.w3.org/2000/svg"><path fill="#E8F5E9" d="M0 0h56v56H0z"/><path d="M26.706 10.015c-2.198.252-4.106.947-5.897 2.151a13.317 13.317 0 00-3.238 3.082 13.37 13.37 0 00-2.147 4.396c-.158.583-.302 1.282-.348 1.697-.011.115-.032 2.735-.049 6.613L15 34.376l.05.343a13.228 13.228 0 002.445 5.954 14.483 14.483 0 001.997 2.16 13.029 13.029 0 006.973 3.081c1.07.127 2.309.112 3.366-.04a13.104 13.104 0 009.022-5.744c1.027-1.55 1.694-3.232 2.032-5.13.052-.296.054-.346.071-1.535.008-.677.023-3.654.03-6.615L41 21.462l-.044-.292a13.307 13.307 0 00-2.493-5.954 14.648 14.648 0 00-1.791-1.946c-2.013-1.778-4.346-2.841-7.04-3.217-.324-.046-.428-.049-1.552-.053a29.323 29.323 0 00-1.374.015zm2.485.515c1.21.123 2.347.4 3.48.852.435.174 1.342.625 1.742.867a12.76 12.76 0 013.687 3.349 12.54 12.54 0 012.31 5.457l.066.393-.013 6.453c-.012 6.314-.014 6.46-.054 6.75a12.7 12.7 0 01-4.014 7.552 12.256 12.256 0 01-2.873 1.965c-.772.383-1.393.625-2.192.85-.964.273-2.183.453-3.053.453h-.281l-.002.11-.003.113-.024-.106-.026-.106-.199-.005c-2.898-.067-5.607-1.102-7.862-3a17.14 17.14 0 01-1.424-1.425 12.657 12.657 0 01-2.886-6.348l-.052-.35.031-6.453c.036-7.11.021-6.51.168-7.255a12.7 12.7 0 012.684-5.61 16.315 16.315 0 011.531-1.55c2.125-1.784 4.562-2.778 7.32-2.986a19.126 19.126 0 011.94.03z" fill="#000"/><path d="M30.869 11.592c-.218.062-.38.157-.539.318-.214.22-.331.483-.384.856a1.265 1.265 0 01-.03.165 1.29 1.29 0 01-.213-.023c-.514-.078-.958-.106-1.697-.106-.57-.002-.807.007-1.07.037a25.58 25.58 0 00-1.094.15 2.26 2.26 0 00.097.358 1.34 1.34 0 00.287-.027 11.12 11.12 0 011.535-.143l.508-.012v.072a.6.6 0 00.012.116c.013.045.01.045-.761.06-.424.008-.806.025-.85.036a.562.562 0 00-.404.536c.002.244.14.447.392.575l.149.073h.713c.776 0 .843.01.929.113.102.122.09.243-.034.326-.251.172-.68.161-1.363-.034l-.22-.063-.185.186-.186.187.52.442c.285.245.535.454.553.469.03.021.055 0 .17-.138.216-.258.206-.235.117-.311a.465.465 0 01-.077-.079c0-.006.088-.012.197-.012.607-.007 1.017-.29 1.101-.759a.72.72 0 00-.37-.765l-.12-.06-.79.009-.792.006-.052-.053c-.063-.063-.067-.095-.026-.154.03-.039.072-.04.94-.054.5-.008.925-.014.946-.016.031-.002.036-.034.036-.342v-.339l.048.009c.025.006.126.017.225.023.173.013.754.09.767.102a85.7 85.7 0 01-.298 1.2c-.233.913-.3 1.2-.279 1.212.05.031.466.127.48.11.009-.009.06-.193.111-.41.248-.995.504-1.983.517-1.998.012-.013.396.062.419.083.002.002-.07.238-.164.521-.19.576-.207.69-.128.856.09.187.344.363.617.431.058.015.185.025.281.027.405 0 .576-.201.824-.97l.11-.344.075.032c.4.168 1.105.553 1.545.846.3.199.722.517.722.544 0 .043-.133.187-.162.176a18.091 18.091 0 01-.555-.372c-.29-.2-.57-.384-.624-.412-.49-.248-.979.021-.972.538.004.335.388.878 1.057 1.497.098.091.144.15.154.201.016.066.01.077-.085.161a1.15 1.15 0 01-.215.146c-.2.102-.46.045-.651-.144-.116-.114-.185-.263-.41-.862a9.785 9.785 0 00-.188-.483 3.994 3.994 0 00-.49.154c-.024.017.402 1.123.49 1.274.097.168.258.341.417.45.49.33 1.057.256 1.468-.194.163-.177.229-.313.229-.472 0-.244-.117-.413-.537-.78-.54-.468-.776-.789-.72-.967.017-.055.099-.078.187-.05.036.01.39.243.787.515.394.27.73.493.746.496.015 0 .128-.12.252-.27l.225-.269.146.132c.432.386 1.118 1.216 1.17 1.415.053.195-.025.583-.178.903-.138.29-.264.394-.474.394-.247 0-.377-.203-.331-.527.01-.073.042-.244.071-.38a5.62 5.62 0 00.053-.254c0-.024-.162-.002-.346.044-.573.147-.921.469-.997.927-.088.52.267 1.308.776 1.716.076.06.143.117.153.123.009.009-.098.047-.237.087-.138.04-.252.08-.252.093 0 .011.032.125.07.255.05.167.08.23.1.229.017-.004.653-.193 1.412-.42a77.29 77.29 0 011.407-.413c.032 0 .072.19.145.695.006.036-.007.055-.038.066-.023.01-.652.163-1.397.34a48.39 48.39 0 00-1.367.338c-.013.013.09.477.111.5.01.009 2.532-.587 2.71-.638.031-.01.035.008.035.201v.214h.384l-.012-.398c-.066-2.069-.94-4.025-2.503-5.59-1.291-1.298-2.977-2.241-4.846-2.714l-.405-.102v-.076c0-.25.112-.534.265-.676.159-.15.251-.182.532-.182.21 0 .265.008.413.059.194.068.443.212.642.371.288.231.728.752.927 1.096a.49.49 0 00.099.137c.012 0 .12-.055.239-.12l.218-.12-.054-.097a5.3 5.3 0 00-.84-1.08c-.36-.341-.713-.566-1.088-.693-.216-.075-.25-.079-.524-.087-.216-.005-.325.002-.409.025zm.681 2.151c.139.047.263.09.277.096.017.006-.006.1-.075.311-.178.538-.265.674-.426.674a.378.378 0 01-.264-.125c-.08-.1-.076-.118.082-.59a16.3 16.3 0 01.155-.45s.115.037.251.084zm5.663 5.044c.18.416.316.78.297.797-.008.009-.383.128-.836.266l-.825.248-.115-.064c-.587-.331-.942-.795-1.006-1.316-.024-.18-.005-.282.07-.399.066-.097.097-.106.097-.025.003.112.063.352.124.483.33.712 1.273.64 1.636-.123a1.59 1.59 0 00.15-.613v-.112l.129.255c.069.14.195.41.279.603zm-13.076-5.321a9.888 9.888 0 00-1.151.498c-1.015.515-1.963 1.212-2.683 1.973l-.212.223-.977.103c-.539.057-.983.11-.99.117a8.04 8.04 0 00-.148.782c.004.025.067.066.188.12.101.045.187.077.191.069a4.08 4.08 0 00.086-.25l.078-.236.499-.046a9.42 9.42 0 01.53-.043c.024.006-.01.068-.123.231a9.077 9.077 0 00-.969 1.844 7.848 7.848 0 00-.478 2.283l-.013.282h.376l.025-.35a9.1 9.1 0 01.077-.661c.05-.3.175-.855.19-.855.003 0 .123.043.266.096l.282.106c.017.004-.014.087-.085.229-.17.339-.212.508-.21.894 0 .288.006.335.056.488.076.226.19.415.334.55.224.21.453.276.753.217.398-.079.707-.32.885-.693.113-.233.15-.386.184-.71a4.17 4.17 0 01.028-.238c.002-.002.163.055.358.13.197.074.359.131.363.129.008-.008.189-.485.185-.492l-.881-.333a39.481 39.481 0 01-.89-.34 2.325 2.325 0 01-.02-.293c-.017-.509.09-.818.317-.903a.911.911 0 01.393-.002c.255.072.445.356.475.703.014.168.002.164.272.1.28-.066.256-.05.235-.153-.088-.404-.306-.796-.55-.985a1.093 1.093 0 00-.767-.229c-.604.06-.904.492-.904 1.3 0 .243-.002.264-.035.25-.021-.009-.23-.085-.46-.174l-.424-.16.074-.182c.105-.264.36-.794.501-1.036.202-.35.604-.94.64-.94.008 0 .579.37 1.267.819.69.452 1.266.82 1.283.823.015 0 .088-.094.164-.21l.134-.212-.227-.149c-.123-.082-.683-.449-1.245-.816a23.202 23.202 0 01-1.022-.686c0-.038.66-.685.925-.905a9.583 9.583 0 012.127-1.359l.251-.12.13.205c.074.112.132.212.132.22 0 .006-.058.02-.13.028a.883.883 0 00-.513.273 1.264 1.264 0 00-.258.535l-.026.127-.117-.043a.887.887 0 00-.34-.045c-.205 0-.228.005-.333.064-.124.07-.24.19-.363.38-.384.598-.09 1.4.602 1.646.178.064.533.087.878.062.162-.013.296-.024.298-.028a5.427 5.427 0 00-.077-.51 1.323 1.323 0 00-.235.006c-.602.042-.873-.051-1.003-.348a.627.627 0 01.106-.65c.085-.1.192-.121.377-.072.2.053.224.076.266.262.02.09.036.166.038.168.006.006.478-.14.488-.15a1.312 1.312 0 00-.027-.206c-.063-.367-.014-.691.124-.841a.747.747 0 01.566-.187c.072.013.086.036.489.733.23.397.426.72.434.72.012 0 .329-.194.43-.266.004-.002-.308-.505-.697-1.115a60.659 60.659 0 01-.714-1.143c-.011-.027.04-.05.247-.123l.262-.088-.03-.1-.052-.18c-.012-.053-.03-.078-.056-.078-.02 0-.21.065-.424.146zm-3.991 6.648l.382.142.025.12a1.41 1.41 0 01-.096.87.877.877 0 01-.336.327c-.229.097-.52-.024-.641-.266-.124-.245-.08-.722.1-1.089.057-.114.147-.243.17-.243.009 0 .187.063.396.14zM25.5 23h5.041l-2.491-6.186L25.5 23zm.261.363L28 25.186l2.28-1.823h-4.52zm-.549.28c-.004.015-.463 1.115-1.017 2.443-1.374 3.3-1.393 3.343-1.384 3.35.004.003 3.322-2.684 3.624-2.936l.09-.077-.634-1.386a79.056 79.056 0 00-.65-1.405c-.01-.01-.023-.004-.029.01zm5.117 1.207c-.296.634-.59 1.264-.652 1.4l-.116.247 1.808 1.493a257.2 257.2 0 001.833 1.504c.013.009 0-.044-.03-.116-.029-.074-.21-.526-.404-1.003-.193-.479-.642-1.585-.996-2.458l-.768-1.895a7.42 7.42 0 00-.132-.314c-.004-.004-.248.511-.543 1.143zm-1.024-.118c-.511.416-.93.763-.93.772 0 .03.832.703.849.684.025-.03 1.03-2.196 1.021-2.204-.006-.004-.428.333-.94.748zm-3.367-.636c.006.01.213.466.465 1.015.25.547.46 1.003.468 1.012.015.012.763-.582.776-.617.004-.015-1.653-1.401-1.701-1.42-.01-.005-.015 0-.009.01zM28 25.783l-1 .859 1 2.045 1-2.045-1-.859zm-2.302 1.878l-2.137 1.736c-.616.5-1.121.922-1.121.937 0 .015 5.362 7.666 5.362 7.666v-8.785l-.493-1.077c-.273-.591-.516-1.127-.545-1.189l-.05-.11-1.016.822zm3.646-.85l-1.06 2.433V38s5.273-7.596 5.276-7.611c.003-.013-.937-.804-2.09-1.755l-2.126-1.823zm-9.231 8.425c-.527.096-1.174.492-1.46.9-.39.55-.392 1.144-.01 1.745.203.323.497.543.838.632.252.066.665.036.896-.061l.069-.03-.19-.32-.19-.318-.13.03c-.352.084-.643-.06-.807-.397-.05-.102-.057-.142-.057-.318 0-.178.007-.216.06-.322.119-.248.394-.48.78-.665.564-.272 1.017-.161 1.23.299.122.264.101.474-.07.705l-.102.134.17.29c.095.16.185.303.2.32.023.026.05.009.18-.127.172-.176.287-.383.344-.612a1.6 1.6 0 00-.04-.757c-.248-.71-.743-1.115-1.388-1.14-.116-.005-.26 0-.323.012zm15.506.102c-.323.08-.721.602-.828 1.087-.038.174-.02.43.042.56.083.173.392.468.44.42.01-.01.077-.149.153-.306l.134-.288-.05-.038c-.143-.108-.166-.267-.071-.469.117-.254.276-.334.415-.214.084.073.073.166-.059.575-.103.318-.109.354-.111.561-.002.204.002.234.056.344.135.277.519.49.817.455.333-.04.629-.37.69-.777a.774.774 0 00-.011-.337 1.11 1.11 0 01-.025-.187c.004-.004.031.003.063.015a.45.45 0 00.12.022c.056 0 .068-.018.217-.319.086-.173.158-.324.158-.334 0-.039-.116-.06-.179-.034-.088.035-.144.012-.92-.371-.75-.371-.86-.412-1.051-.365zm.893 1.064c.21.114.334.286.334.466 0 .08-.063.276-.111.346-.097.137-.292.14-.426.004-.105-.106-.11-.186-.031-.498a2.64 2.64 0 00.064-.327c0-.071.02-.071.17.01zm-3.16.548a2.556 2.556 0 00-.208.28c0 .011.107.111.24.22l.238.196.217-.267c.119-.148.217-.276.217-.282 0-.017-.432-.377-.47-.392-.016-.006-.108.09-.234.246zm.692.573a4.32 4.32 0 00-.214.274 84.435 84.435 0 001.906 1.587c.032.023.059-.002.23-.212.108-.131.206-.254.223-.273.025-.03-.004-.06-.239-.255-.149-.12-.579-.474-.956-.788-.378-.312-.7-.572-.715-.578-.02-.007-.107.084-.235.245zm-1.235.13c-.139.103-.26.199-.269.207-.01.011.118.204.294.439.172.233.319.432.325.443.008.015-.053.023-.178.021-.175 0-.208.006-.336.068-.16.076-.367.263-.449.405-.224.386-.165.877.162 1.373.296.447.688.687 1.122.687.444 0 .868-.363.908-.78l.015-.142.08.106a.5.5 0 00.096.106c.033 0 .524-.384.518-.405a142.61 142.61 0 00-2.02-2.72c-.01 0-.13.088-.268.192zm.677 1.653c.298.148.587.625.54.883-.047.255-.288.448-.527.422-.15-.014-.273-.093-.438-.273-.22-.24-.336-.538-.286-.73a.507.507 0 01.474-.368c.08 0 .145.017.237.066zm-11.861-1.041c-.508.138-.95.598-1.087 1.123a1.3 1.3 0 00.01.655c.095.274.307.528.605.725.218.144.358.193.58.206.232.012.372-.017.59-.123.602-.293.988-1.041.839-1.622-.075-.288-.304-.58-.623-.79-.302-.197-.614-.257-.914-.174zm.568.676a.713.713 0 01.279.263c.086.165.05.398-.096.627-.2.31-.479.505-.699.486-.323-.028-.56-.324-.499-.626.03-.157.13-.339.269-.494.262-.292.494-.373.746-.256zm3.957 2.196c-.13.926-.232 1.689-.226 1.695.006.007.132.03.281.054l.327.05c.049.009.057.003.067-.047.046-.218.474-3.318.46-3.33a7.907 7.907 0 00-.657-.107c-.006 0-.12.759-.251 1.685zm2.276-1.585c-.162.016-.3.038-.307.044-.006.009.066.774.158 1.7.153 1.5.176 1.685.207 1.691a8.26 8.26 0 00.699-.066c.004-.002-.072-.77-.166-1.706l-.17-1.7-.065.003c-.034.002-.195.016-.356.034zm-4.226.224a.762.762 0 00-.398.23c-.09.095-.225.306-.206.325.004.005.143.062.306.125l.298.119.1-.106c.093-.097.11-.105.2-.105.134 0 .316.073.415.167.101.1.113.205.03.288-.072.074-.202.07-.533-.015a1.671 1.671 0 00-.506-.068c-.218-.002-.251.002-.356.054-.214.1-.375.326-.44.61-.09.387.17.744.64.881.152.047.406.034.578-.027l.12-.042-.01.13c-.01.103-.005.137.016.145.516.204.652.252.662.242.017-.017.015-.13-.003-.22-.02-.086-.007-.124.303-.936.137-.358.258-.705.269-.773.036-.23-.027-.403-.212-.579-.344-.328-.912-.528-1.273-.445zm.21 1.52c.132.023.266.042.297.042h.057l-.059.142c-.08.191-.207.337-.322.369a.728.728 0 01-.426-.04c-.122-.064-.162-.134-.151-.263.012-.123.065-.203.166-.255.09-.048.142-.046.438.005zm6.387-1.418c-.35.06-.606.233-.708.48a.41.41 0 01-.057.111.443.443 0 01-.05-.127c-.019-.07-.048-.127-.063-.127s-.16.045-.323.1l-.298.101.382 1.198c.207.659.381 1.202.386 1.206.008.012.656-.193.656-.206 0-.006-.1-.326-.222-.712-.294-.924-.304-1.051-.103-1.24a.53.53 0 01.413-.133c.072.004.176.093.225.193.02.042.149.417.28.837.135.417.248.765.257.771.018.02.66-.193.66-.22 0-.056-.543-1.723-.596-1.827a.693.693 0 00-.526-.405.658.658 0 00-.313 0z" fill="#000"/></svg>