<svg width="56" height="56" viewBox="0 0 56 56" xmlns="http://www.w3.org/2000/svg"><path fill="#F0F3FA" d="M0 0h56v56H0z"/><path d="M37 27h5v.21h-4.73v.58H42V28h-5v-1ZM21 27h-7v.21h6.74v.58H14V28h7v-1ZM21.48 19.41 26 25.8l-.33.21-4.08-5.76.66 5.02-.4.04-.69-5.25-2.82 4.57-.34-.19 3.08-5-.14-1.4.4-.03.14 1.41ZM24 20l8 1.27v1.04h-1.36l.2 4.69h-1.96l.18-4.73L24 21.1V20Zm.42.43v.39L29.5 22l-.18 4.64h1.09l-.22-4.68h1.39v-.39l-7.16-1.14Z" fill="#A61E23"/><path d="M37.3 20h1.4v.37h.3v.42h-.6l.27 6.21h-.8v-6.21l-.25 6.08h-.26l.25-6.08H37v-.42h.3V20Zm.83.79v5.95h.27l-.26-5.95h-.01Z" fill="#A61E23"/><path d="m27.1 13.7-.64.06c-.8.09-1.58.24-2.33.45l-.61.17-.74-1.84-1.69.68.74 1.84-.56.3c-.79.42-1.53.91-2.23 1.47l-.5.4-1.4-1.41-1.29 1.28 1.41 1.41-.4.5c-.5.62-.94 1.27-1.33 1.97l-.31.55-1.84-.78-.71 1.67 1.83.79-.18.6c-.26.85-.44 1.74-.54 2.65l-.06.63H11.7v1.82h2l.08.63c.1.9.28 1.8.54 2.64l.19.6-1.85.8.71 1.67 1.86-.8.31.56c.4.69.84 1.34 1.33 1.96l.4.5-1.43 1.43 1.3 1.28 1.42-1.44.5.4c.69.55 1.43 1.04 2.22 1.46l.56.3-.76 1.88 1.69.68.75-1.88.61.17c.75.2 1.53.35 2.32.44l.63.07v2.03h1.82v-2.03l.63-.07c.8-.09 1.57-.23 2.32-.44l.6-.17.76 1.88 1.69-.68-.76-1.88.56-.3c.79-.42 1.53-.9 2.22-1.46l.5-.4 1.43 1.44 1.29-1.28-1.43-1.44.4-.5c.5-.6.94-1.26 1.33-1.95l.31-.55 1.86.8.71-1.68-1.85-.8.19-.6c.26-.85.44-1.73.54-2.64l.07-.63h2.01v-1.82h-2l-.07-.63c-.1-.91-.28-1.8-.54-2.65l-.18-.6 1.83-.8-.71-1.66-1.84.78-.3-.55c-.4-.7-.85-1.35-1.34-1.97l-.4-.5 1.4-1.4-1.28-1.3-1.4 1.42-.5-.4c-.7-.56-1.44-1.05-2.23-1.47l-.56-.3.74-1.84-1.69-.68-.74 1.84-.6-.17c-.76-.21-1.54-.36-2.34-.45l-.63-.07v-1.98h-1.82v1.98Zm5.73-2.08 3 1.2-.77 1.91c.83.45 1.61.96 2.34 1.55l1.46-1.46 2.29 2.28-1.46 1.46c.52.65.99 1.34 1.4 2.07l1.9-.81 1.27 2.97-1.9.82c.27.89.46 1.82.56 2.77H45v3.24h-2.08c-.1.95-.3 1.88-.58 2.77l1.92.82L43 36.18l-1.92-.82c-.41.72-.88 1.41-1.4 2.05l1.48 1.49-2.3 2.28-1.48-1.49c-.72.58-1.5 1.1-2.32 1.53l.78 1.96-3 1.2-.78-1.95c-.79.22-1.6.37-2.43.46V45h-3.24v-2.1c-.83-.1-1.64-.25-2.43-.47l-.78 1.95-3-1.2.78-1.96c-.82-.43-1.6-.95-2.32-1.53l-1.49 1.5-2.29-2.3 1.49-1.48c-.53-.64-1-1.33-1.4-2.05l-1.93.82-1.27-2.97 1.92-.82c-.28-.9-.47-1.82-.58-2.77H11v-3.24h2.08c.1-.95.29-1.88.56-2.77l-1.9-.82L13 19.82l1.9.81c.41-.73.88-1.42 1.4-2.07l-1.46-1.46 2.3-2.28 1.45 1.46c.73-.59 1.5-1.1 2.34-1.55l-.77-1.9 3-1.21.77 1.9c.79-.21 1.6-.37 2.44-.46V11h3.24v2.06c.83.09 1.65.24 2.44.47l.77-1.91Z" fill="#0D73BA"/><path d="M35.66 39.7a13.29 13.29 0 0 1-15.06-.24l.79-1.11a11.93 11.93 0 0 0 13.52.21l.75 1.14Z" fill="#A61E23"/><path d="M35 24h1.53l.47 2.93-.18.07-.43-2.72h-1.2v2.54H35V24ZM33.88 27.28v2.14l-1.16-1.02c-.31-.27-.74.14-.5.47l1.67 2.26c.27.36.01.87-.43.87H27v-2.03a.2.2 0 0 1 .3-.16L28.94 31c.18.13.4-.1.27-.28l-1.92-2.55a1.39 1.39 0 0 1-.28-.83v-.64c0-.41.35-.73.75-.69l5.52.6c.34.03.6.33.6.68ZM35 27v5h3.33c.7 0 .93-.92.32-1.26l-.7-.39a1.1 1.1 0 0 1-.58-.96V27H35ZM26.35 25.7c-3.32-.66-8.9-1.74-8.97-1.7-.13 0-.38.13-.38.52 0 .9 1.72 2.35 3.4 3.87.94.83 1.58 1.89 1.95 2.7.25.52.76.91 1.35.91h3.02v-2.17l-.52.2a1.3 1.3 0 0 1-1.7-.81c-.22-.7.2-1.43.91-1.61l.98-.24a.8.8 0 0 0 .61-.78v-.12a.8.8 0 0 0-.65-.78Z" fill="#F9AE1C"/><path fill="#F9AE1C" d="M34 26h4v1h-4z"/></svg>