<svg xmlns="http://www.w3.org/2000/svg" width="56" height="56" viewBox="0 0 56 56"><path fill="#F0F3FA" d="M0 0h56v56H0z"/><path fill-rule="evenodd" d="M8 19.45v6.1c0 .8.65 1.45 1.44 1.45h3.62c.8 0 1.44-.65 1.44-1.45V23H12v1.18c0 .34-.44.82-.78.82-.33 0-.72-.48-.72-.82v-3.5c0-.33.39-.68.72-.68.34 0 .78.35.78.69V22h2.5v-2.55c0-.8-.65-1.45-1.44-1.45H9.44c-.8 0-1.44.65-1.44 1.45Zm7 6.07v-6.04c0-.82.65-1.48 1.45-1.48h3.6c.8 0 1.45.66 1.45 1.48v6.04c0 .82-.65 1.48-1.45 1.48h-3.6c-.8 0-1.45-.66-1.45-1.48Zm2.5-4.76v3.45c0 .33.34.79.75.79s.75-.46.75-.8v-3.44c0-.33-.34-.76-.75-.76s-.75.43-.75.76ZM22 27v-7.53c0-.81.66-1.47 1.48-1.47h4.02v2.5h-2.15c-.2 0-.35.08-.35.28v.72h2V24h-2.5v3H22Zm6-7.53V27h2.5v-3H33v-2.5h-2v-.72c0-.2.15-.28.35-.28h2.15V18h-4.02c-.82 0-1.48.66-1.48 1.47ZM38.7 24h-2.2v.5H40V27h-4.17A1.83 1.83 0 0 1 34 25.18v-5.72c0-.8.66-1.46 1.47-1.46h3.24c1.01 0 1.83.82 1.83 1.82v2.4c0 1.01-.82 1.78-1.83 1.78Zm-2.2-3.55c0-.25.2-.45.44-.45h.62c.24 0 .44.2.44.45v1.1c0 .25-.2.45-.44.45h-.62a.44.44 0 0 1-.44-.45v-1.1ZM43.98 24h2.2c1 0 1.82-.77 1.82-1.78v-2.4c0-1-.82-1.82-1.82-1.82h-3.22c-.8 0-1.46.65-1.46 1.46v5.72c0 1 .82 1.82 1.82 1.82h4.14v-2.5h-3.48V24Zm.44-4c-.24 0-.44.2-.44.45v1.1c0 .25.2.45.44.45h.62c.24 0 .43-.2.43-.45v-1.1c0-.25-.19-.45-.43-.45h-.62ZM19.5 32h-2.18c-1 0-1.82.77-1.82 1.78v2.4c0 1 .82 1.82 1.82 1.82H22v-7.18c0-1-.82-1.82-1.82-1.82H16v2.5h3.5v.5Zm-.44 4c.24 0 .44-.2.44-.45v-1.1c0-.25-.2-.45-.44-.45h-.62c-.24 0-.44.2-.44.45v1.1c0 .25.2.45.44.45h.62ZM8 38v-9h4.33A2.6 2.6 0 0 1 15 31.52v3.96A2.6 2.6 0 0 1 12.33 38H8Zm3.25-7h-.75v5h.75c.69 0 1.25-.37 1.25-.84v-3.32c0-.47-.56-.84-1.25-.84ZM23 29v4.01c0 1.02.73 1.99 1.64 1.99h1.79v.5H24V38h3.04c1.08 0 1.96-.99 1.96-2.2V29h-2.5v3.5h-1V29H23Z" fill="#EE2E24"/></svg>