<svg width="56" height="56" viewBox="0 0 56 56" xmlns="http://www.w3.org/2000/svg"><path fill="#1A60AB" d="M0 0h56v56H0z"/><path fill-rule="evenodd" d="M12 30.58A4.67 4.67 0 0 1 8.62 32 4.56 4.56 0 0 1 4 27.5C4 25.01 6.07 23 8.62 23c1.32 0 2.5.53 3.34 1.38l-1.38 1.37a2.76 2.76 0 0 0-1.9-.75C7.2 25 6 26.12 6 27.5S7.2 30 8.67 30c.8 0 1.5-.32 1.99-.83l1.34 1.4ZM16.5 32a3.5 3.5 0 1 0 0-7 3.5 3.5 0 0 0 0 7Zm0-2a1.5 1.5 0 1 0 0-3 1.5 1.5 0 0 0 0 3ZM32 28.5a3.5 3.5 0 1 1-7 0 3.5 3.5 0 0 1 7 0Zm-2 0a1.5 1.5 0 1 1-3 0 1.5 1.5 0 0 1 3 0Zm20.02.95c-.3.42-.8.54-1.55.55a1.6 1.6 0 0 1-1.48-1H51.96a3.5 3.5 0 1 0-3.5 3c1.85.04 2.62-.9 2.98-1.33l.03-.03-1.45-1.2Zm0-1.45a1.6 1.6 0 0 0-1.52-1c-.7 0-1.3.42-1.51 1H50ZM21 25.3v.2h-1V27h1v5h2v-5h1.5v-1.5H23v-.2c0-.42.23-.83.7-.83.36 0 .66.16.76.25l.48-1.31a2.43 2.43 0 0 0-1.36-.4A2.41 2.41 0 0 0 21 25.3Zm14-.3h-2v7h2v-4.04c.23-.64.8-1.3 2-1.1V25a2.62 2.62 0 0 0-2 .79V25Zm5 7c.77 0 1.47-.34 2-.89l-.01.1c-.03.49-.07 1.24-1.24 1.24-1.3 0-2.14-.44-2.4-.66l-.75 1.34a5.5 5.5 0 0 0 3.15.87C42.8 34 44 32.74 44 30.74V25h-2v.9a2.76 2.76 0 0 0-2-.9c-1.66 0-3 1.57-3 3.5s1.34 3.5 3 3.5Zm.5-2a1.5 1.5 0 1 0 0-3 1.5 1.5 0 0 0 0 3Z" fill="#fff"/><path d="M16.5 25a3.5 3.5 0 1 0 0 7v-2a1.5 1.5 0 0 1 0-3v-2Zm-7.88 7c1.34 0 2.54-.55 3.38-1.42l-1.34-1.4c-.49.5-1.2.82-1.99.82C7.2 30 6 28.88 6 27.5S7.2 25 8.67 25c.75 0 1.42.29 1.9.75l1.4-1.37A4.67 4.67 0 0 0 8.61 23 4.56 4.56 0 0 0 4 27.5C4 29.99 6.07 32 8.62 32Z" fill="#F68B1E"/><path d="M17 25.5h-1v1h1v-1Zm0 5h-1v1h1v-1Z" fill="#fff"/></svg>