<svg width="56" height="56" viewBox="0 0 56 56" xmlns="http://www.w3.org/2000/svg"><path fill="#F0F3FA" d="M0 0h56v56H0z"/><path d="M32 32.19c0 1.04-.82 1.81-1.64 1.81h-.78c-.84 0-1.58-.92-1.58-1.92V22h1.5v11h1V22H32v10.19ZM27 28.44c0 1.02-.83 1.56-1.63 1.56h-.87v4H23V23.8c0-1 .84-1.8 1.64-1.8h.74c.83 0 1.62.84 1.62 1.86v4.58Zm-1.5.56v-6h-1v6h1ZM22 34h-1.5V23h-1v11H18V23h-1v11h-1.5V23.92c0-.91.7-1.92 1.65-1.92h3.13c.9 0 1.72.86 1.72 1.8V34ZM49.5 34H48V23h-1v11h-1.5V23h-1v11H43V23.92c0-.91.7-1.92 1.65-1.92h3.13c.9 0 1.72.86 1.72 1.8V34ZM15 32.19c0 1.04-.82 1.81-1.64 1.81h-.78c-.84 0-1.58-1.06-1.58-1.92V23.8c0-1 .84-1.8 1.64-1.8h.74c.83 0 1.62.84 1.62 1.86v8.33Zm-1.5.81V23h-1v10h1ZM10 32.19C10 33.2 9.17 34 8.36 34h-.8C6.75 34 6 33.07 6 32.08V23.8c0-1.01.83-1.8 1.63-1.8h.75c.82 0 1.62.85 1.62 1.86v1.74H8.5V23h-.93v10h.93v-2.6H10v1.79ZM42 32.19c0 1.04-.82 1.81-1.64 1.81h-.78c-.84 0-1.58-1.06-1.58-1.92V23.8c0-1 .84-1.8 1.64-1.8h.74c.83 0 1.62.84 1.62 1.86v8.33Zm-1.5.81V23h-1v10h1ZM37 32.19c0 1.02-.83 1.81-1.64 1.81h-.8c-.82 0-1.56-.93-1.56-1.92V23.8c0-1.01.83-1.8 1.63-1.8h.75c.82 0 1.62.85 1.62 1.86v1.74h-1.5V23h-.93v10h.93v-2.6H37v1.79Z" fill="#2A1967"/></svg>