<svg width="56" height="56" viewBox="0 0 56 56" xmlns="http://www.w3.org/2000/svg"><path fill="#F0F3FA" d="M0 0h56v56H0z"/><path d="M50.86 31c-.28 0-.56-.12-.77-.34l-3.59-3.68V31H45v-4.73c0-.7.51-1.27 1.14-1.27.28 0 .56.12.77.34l3.58 3.68V25H52v4.73c0 .7-.51 1.27-1.14 1.27Z" fill="#373435"/><path fill="#FFCC28" d="M12 26h5v4h-5z"/><path d="M37.15 25h1.67l1.83 2.67L42.83 25h1.67l-3 4.01V31H40v-1.99L37.15 25ZM35.2 31H29v-1.48h6.15c.12 0 .2-.08.2-.2v-.42c0-.11-.08-.19-.2-.19h-4.36c-1.13 0-1.79-.57-1.79-1.57v-.56c0-1.04.82-1.58 1.8-1.58h5.73v1.48h-5.68c-.1 0-.2.07-.2.2v.41c0 .12.1.19.2.19h4.36c.96 0 1.79.54 1.79 1.57v.59c0 1.04-.83 1.56-1.8 1.56ZM16.41 29.01V27a.49.49 0 0 0-.49-.5h-2.85a.45.45 0 0 0-.34.14c-.1.09-.14.21-.14.36V29c0 .15.05.27.14.37.09.1.2.14.34.14h2.85c.14 0 .26-.05.35-.14.1-.1.14-.22.14-.37ZM18 26.74v2.52c0 .5-.16.93-.49 1.25-.32.33-.73.49-1.24.49h-3.53c-.51 0-.93-.16-1.25-.49a1.7 1.7 0 0 1-.49-1.25v-2.52c0-.5.16-.93.49-1.25.32-.33.74-.49 1.25-.49h3.53A1.66 1.66 0 0 1 18 26.74ZM22.92 31l-2.42-4v4H19v-4.68c0-.73.56-1.32 1.25-1.32.42 0 .8.22 1.04.59l2.21 3.52 2.21-3.52c.23-.37.62-.59 1.04-.59.7 0 1.25.6 1.25 1.32V31h-1.5v-4l-2.42 4h-1.16ZM6.05 29.5H10V31H5.72A1.7 1.7 0 0 1 4 29.26v-2.52c0-.98.73-1.74 1.72-1.74H10v1.5H6.05c-.27 0-.48.2-.48.5v2c0 .29.2.5.48.5Z" fill="#373435"/></svg>