<svg width="56" height="56" xmlns="http://www.w3.org/2000/svg"><path fill="#F0F3FA" d="M0 0h56v56H0z"/><path d="M44 39.004H26.176l.824 1h17v-1zM27 16h17v1h-9.118l-.754.544h-4.574l-.815.456h-3.416L27 16zm-2.504 3H44v1H32.35l-.859 1h-4.52l-1.156 1h-3.819l2.5-3zm-3.326 4H44v1H29.861l-.696 1h-4.557l-.96 1h-4.985l2.508-3zm-3.343 4H44v1H28.943l.591 1h-5.821l.654 1h-5.703L17 27.996l.827-.996zm1.686 4H44v1H31.09l.512 1h-5.703l.565.998h-4.462L19.512 31zm3.31 4H44v1H33.44l.54 1h-5.758l.467 1h-3.352l-2.514-3z" fill="#1589DE"/><path d="M12 16h13v1c-14.773 0-14.44 22 0 22v1.004H12V16z" fill="#682C27"/></svg>