<svg width="56" height="56" viewBox="0 0 56 56" xmlns="http://www.w3.org/2000/svg"><path fill="#F0F3FA" d="M0 0h56v56H0z"/><path d="M46 32.75V31c0-.6-.19-.75-.77-.8V30h2.53v.18c-.17.02-.31.04-.42.07-.37.07-.34.43-.34.74v4.03c0 .33-.02.65.35.75.1.03.24.05.41.06V36h-2.53v-.17c.18 0 .32-.02.42-.04.4-.1.35-.55.35-.88v-1.76h-3v1.87c0 .33.01.66.38.75.1.03.24.05.42.06V36h-2.55v-.17c.19 0 .33-.02.44-.04.4-.1.31-.55.31-.88V31c0-.3.04-.67-.32-.74-.1-.03-.25-.05-.43-.07V30h2.55v.18c-.18.02-.32.04-.43.07-.37.07-.37.42-.37.74v1.76h3ZM40.7 31.96a3.71 3.71 0 0 0-.26-.65c-.04-.09-.09-.16-.15-.23a2.18 2.18 0 0 0-.19-.2 1.96 1.96 0 0 0-1.36-.53 1.94 1.94 0 0 0-1.59.7c-.18.23-.33.5-.43.82-.1.32-.15.67-.15 1.07 0 .5.07.95.21 1.33.15.38.35.68.62.9a2.63 2.63 0 0 0 2.48.25c.32-.14.65-.37.99-.68l.16.15c-.28.36-.63.63-1.07.82-.42.2-.9.29-1.42.29-.45 0-.86-.07-1.24-.21a2.74 2.74 0 0 1-1.58-1.52 3.23 3.23 0 0 1-.21-1.21c0-.5.09-.96.27-1.36.18-.4.44-.75.8-1.02.27-.21.59-.38.93-.5.35-.12.7-.18 1.05-.18.45 0 .9.07 1.34.21.15.05.27.08.36.08.1 0 .17-.03.23-.08a.4.4 0 0 0 .15-.21h.19l.09 1.96h-.21ZM34.73 36h-4.92v-.17c.16 0 .3-.03.4-.05.1-.03.19-.07.24-.13.06-.06.1-.14.12-.24.02-.1.03-.23.03-.39V31c0-.16-.01-.29-.03-.39a.42.42 0 0 0-.11-.23.52.52 0 0 0-.25-.13c-.1-.03-.24-.05-.4-.06V30h4.84l.02 1.3h-.22c-.04-.2-.09-.37-.14-.5a.65.65 0 0 0-.23-.28.85.85 0 0 0-.4-.14 4.92 4.92 0 0 0-.62-.03h-1.23c-.12 0-.2.02-.25.05-.03.04-.05.13-.05.26v2h1.4c.18 0 .33 0 .45-.03a.59.59 0 0 0 .28-.11.57.57 0 0 0 .17-.27c.04-.1.07-.26.1-.44h.22v2.1h-.22c-.03-.19-.06-.34-.1-.45a.55.55 0 0 0-.16-.26.55.55 0 0 0-.28-.13 2.72 2.72 0 0 0-.46-.03h-1.4v2.24l.01.2c.01.04.03.07.06.1.04.02.14.04.3.06.17.02.36.03.59.03h.25c.33 0 .6-.02.82-.05.22-.03.41-.1.56-.18.16-.1.3-.22.42-.37s.23-.35.34-.6h.27L34.73 36ZM25.54 30.38c-.25 0-.47.01-.63.04a.85.85 0 0 0-.4.17c-.1.08-.18.2-.25.35a3.9 3.9 0 0 0-.17.6h-.22l.06-1.54h5.14l.06 1.54h-.22a3.28 3.28 0 0 0-.18-.6.85.85 0 0 0-.24-.35.8.8 0 0 0-.4-.17 4.2 4.2 0 0 0-.64-.04H27v4.64c0 .35-.03.67.38.77l.45.04V36h-2.65v-.17c.19 0 .34-.02.45-.04.44-.1.37-.52.37-.88v-4.53h-.46ZM20.66 30a3 3 0 0 1 2.23.98c.23.26.4.56.52.9.13.35.19.72.19 1.12 0 .44-.08.84-.23 1.22a2.71 2.71 0 0 1-1.55 1.56c-.37.15-.77.22-1.2.22-.45 0-.85-.07-1.22-.22a2.74 2.74 0 0 1-1.55-1.58 3.37 3.37 0 0 1 0-2.43 2.73 2.73 0 0 1 1.58-1.55c.38-.15.79-.22 1.23-.22Zm-.08.3a1.81 1.81 0 0 0-1.57 1 3.77 3.77 0 0 0-.34 1.69c0 .52.08.99.22 1.4.14.4.34.7.6.9.32.27.7.4 1.13.4a1.72 1.72 0 0 0 1.2-.47c.5-.46.74-1.22.74-2.27 0-.5-.08-.95-.23-1.34a1.8 1.8 0 0 0-1.75-1.3ZM15 31c0-.35 0-.7-.4-.77a3.93 3.93 0 0 0-.47-.05V30h2.71v.18c-.19 0-.34.02-.46.05-.4.07-.38.42-.38.76v4.03c0 .36 0 .68.39.77.11.02.27.04.45.04V36h-2.7v-.17c.18 0 .34-.02.46-.04.38-.08.4-.42.4-.77V31ZM10.73 30c.8 0 1.4.13 1.8.39.4.26.6.64.6 1.15 0 .18-.04.36-.1.52a.99.99 0 0 1-.28.4 2.85 2.85 0 0 1-.35.22 8.61 8.61 0 0 1-.54.17 5.08 5.08 0 0 1 .69.2 1.37 1.37 0 0 1 .44.3c.3.26.44.6.44 1.02 0 .26-.05.48-.15.69-.1.2-.25.37-.44.51s-.42.24-.7.32a3.5 3.5 0 0 1-.91.11H8.17v-.17c.2 0 .34-.02.45-.04.4-.09.38-.41.38-.77V31c0-.34.03-.69-.37-.76a3.65 3.65 0 0 0-.46-.05V30h2.56ZM10 35.3c0 .14.01.24.1.3.07.04.22.07.43.07a9.92 9.92 0 0 0 .77-.05 1.87 1.87 0 0 0 .53-.2c.37-.2.56-.55.56-1.04 0-.57-.27-.96-.8-1.16a1.93 1.93 0 0 0-.61-.12 8.22 8.22 0 0 0-.98-.05v2.24Zm.85-2.62c.43 0 .76-.09 1-.28.23-.19.34-.46.34-.82 0-.41-.13-.72-.4-.93-.28-.2-.68-.3-1.21-.3h-.4c-.14 0-.18.08-.18.26v2.07h.85ZM44.7 22c0-.18-.01-.31-.03-.41a.38.38 0 0 0-.11-.23.43.43 0 0 0-.24-.12l-.43-.06V21h2.47c.57 0 1.08.07 1.53.2.45.14.83.33 1.14.59.32.25.56.56.72.93.17.37.25.8.25 1.26 0 .46-.09.89-.26 1.28-.18.4-.43.73-.75 1-.28.23-.64.42-1.1.55-.43.13-.9.19-1.41.19h-2.59v-.17a3 3 0 0 0 .42-.04c.1-.03.19-.07.24-.13.06-.06.1-.15.11-.25.02-.1.03-.23.03-.39V22Zm.92 4.3c0 .14.03.24.1.3.07.04.19.07.36.07.41 0 .76-.03 1.04-.08.28-.06.54-.16.77-.3.75-.42 1.12-1.17 1.12-2.25 0-.5-.1-.94-.29-1.33a2.33 2.33 0 0 0-1.6-1.27c-.3-.06-.64-.1-1.04-.1-.18 0-.3.03-.36.07-.07.05-.1.14-.1.28v4.6ZM43.68 27H42.2l-2.18-2.8-.5.03v1.8c0 .15 0 .28.03.38.02.1.06.19.12.25.05.06.14.1.24.13.1.02.25.03.43.04V27h-2.53v-.17c.17-.01.3-.03.4-.06.12-.03.2-.07.25-.14a.51.51 0 0 0 .1-.26c.02-.11.03-.27.03-.46V22c0-.16-.01-.28-.03-.38a.45.45 0 0 0-.1-.24.47.47 0 0 0-.24-.12c-.1-.03-.24-.05-.4-.07V21h2.5c.46 0 .86.06 1.2.18.36.12.63.28.8.48.11.12.2.26.25.43.05.16.08.33.08.51 0 .42-.13.74-.4.98-.25.24-.67.41-1.25.53l1.88 2.3c.13.15.25.25.36.31.11.06.26.1.43.11V27Zm-4.15-3.1a12.9 12.9 0 0 0 .97-.07 2.55 2.55 0 0 0 .65-.24c.16-.1.29-.22.38-.4.09-.18.14-.38.14-.61 0-.43-.14-.74-.41-.94-.27-.2-.7-.3-1.28-.3-.18 0-.3.03-.36.07-.06.04-.09.13-.09.26v2.23ZM34.42 21a3 3 0 0 1 2.23.98c.23.26.4.56.52.9.13.35.19.72.19 1.12 0 .44-.08.84-.23 1.22a2.71 2.71 0 0 1-1.55 1.56c-.37.15-.77.22-1.2.22-.45 0-.85-.07-1.22-.22a2.74 2.74 0 0 1-1.55-1.58 3.37 3.37 0 0 1 .01-2.43 2.73 2.73 0 0 1 1.57-1.55c.38-.15.79-.22 1.23-.22Zm-.08.3a1.81 1.81 0 0 0-1.57 1 3.77 3.77 0 0 0-.33 1.69c0 .52.07.99.21 1.4.14.4.34.7.6.9.32.27.7.4 1.13.4a1.72 1.72 0 0 0 1.2-.47c.5-.46.74-1.22.74-2.27 0-.5-.08-.95-.22-1.34-.15-.4-.35-.7-.61-.9a1.8 1.8 0 0 0-1.15-.4ZM30.45 22.96a3.69 3.69 0 0 0-.26-.65c-.04-.09-.1-.16-.15-.23a2.18 2.18 0 0 0-.2-.2 1.96 1.96 0 0 0-1.36-.53 1.94 1.94 0 0 0-1.59.7c-.18.23-.32.5-.42.82a3.77 3.77 0 0 0 .06 2.4c.14.38.35.68.61.9.4.3.88.45 1.44.45.37 0 .72-.07 1.04-.2.32-.14.65-.37 1-.68l.15.15c-.27.36-.63.63-1.06.82-.43.2-.9.29-1.42.29-.46 0-.87-.07-1.24-.21a2.74 2.74 0 0 1-1.58-1.52 3.23 3.23 0 0 1-.22-1.21c0-.5.1-.96.27-1.36.18-.4.45-.75.8-1.02.28-.21.59-.38.94-.5.34-.12.7-.18 1.04-.18.46 0 .9.07 1.35.21.15.05.27.08.36.08.09 0 .16-.03.23-.08a.4.4 0 0 0 .14-.21h.2l.08 1.96h-.2ZM23.84 27l-4.03-4.9v3.49c0 .23.01.41.03.56.03.14.07.25.14.34.06.08.15.14.26.17.11.04.26.06.43.07V27h-2.14v-.27c.19-.01.34-.03.45-.07.11-.03.2-.1.26-.18.07-.08.1-.19.13-.33.02-.15.03-.33.03-.56v-3.92l-.23-.25a.68.68 0 0 0-.2-.15.57.57 0 0 0-.2-.07 1.14 1.14 0 0 0-.24-.02V21h1.56l3.5 4.31v-3c0-.54-.08-.87-.26-1a.69.69 0 0 0-.23-.08c-.08-.02-.2-.04-.37-.05V21h2.13v.18c-.17.01-.3.03-.38.05a.77.77 0 0 0-.21.1c-.18.12-.27.45-.27.98V27h-.16ZM15.17 21a3 3 0 0 1 2.23.98c.23.26.4.56.52.9.13.35.19.72.19 1.12 0 .44-.08.84-.23 1.22a2.71 2.71 0 0 1-1.56 1.56c-.36.15-.76.22-1.2.22-.44 0-.84-.07-1.2-.22a2.74 2.74 0 0 1-1.56-1.58 3.37 3.37 0 0 1 0-2.43 2.73 2.73 0 0 1 1.58-1.55c.38-.15.79-.22 1.23-.22Zm-.08.3a1.81 1.81 0 0 0-1.57 1 3.74 3.74 0 0 0-.3 1.08 4.68 4.68 0 0 0 .18 2 1.75 1.75 0 0 0 1.73 1.3 1.72 1.72 0 0 0 1.2-.46c.49-.46.74-1.22.74-2.27 0-.5-.08-.95-.23-1.34a1.8 1.8 0 0 0-1.75-1.3ZM11.2 22.96a3.71 3.71 0 0 0-.26-.65c-.04-.09-.1-.16-.15-.23a2.18 2.18 0 0 0-.2-.2 1.96 1.96 0 0 0-1.36-.53 1.94 1.94 0 0 0-1.59.7c-.18.23-.32.5-.43.82-.1.32-.15.67-.15 1.07 0 .5.07.95.22 1.33.14.38.35.68.61.9a2.63 2.63 0 0 0 2.48.25c.32-.14.65-.37 1-.68l.15.15c-.28.36-.63.63-1.06.82-.43.2-.9.29-1.42.29-.46 0-.87-.07-1.24-.21a2.74 2.74 0 0 1-1.58-1.52A3.23 3.23 0 0 1 6 24.05c0-.5.1-.96.27-1.36.18-.4.45-.75.8-1.02.28-.21.59-.38.94-.5.34-.12.7-.18 1.04-.18.46 0 .9.07 1.35.21.14.05.26.08.35.08a.4.4 0 0 0 .38-.29h.2l.08 1.96h-.2Z" fill="#DD0916"/></svg>