<svg width="56" height="56" viewBox="0 0 56 56" xmlns="http://www.w3.org/2000/svg"><path fill="#BBB062" d="M0 0h56v56H0z"/><path d="M51 22v12h-2v-4.98h-6V34h-2V22h2v5h6v-5h2ZM20 24v3h5v2h-5v5h-2V22h8v2h-6ZM10.95 34C7.38 34 5 31.55 5 28c0-3.6 2.47-6 6.05-6 1 0 2.06.18 2.95.63v2.1a5.62 5.62 0 0 0-2.77-.73C8.78 24 7 25.59 7 28c0 2.36 1.72 4 4.13 4 .94 0 2-.32 2.87-.87v2.1c-.86.51-1.88.77-3.05.77ZM32.38 22c-1.65 0-3.27.84-3.27 2.68 0 1.08.62 1.88 1.31 2.66-1.37.79-2.42 1.71-2.42 3.36 0 2.27 1.89 3.3 3.95 3.3 1.51 0 2.9-.32 4.06-1.24L37.36 34H40l-2.67-2.47A8 8 0 0 0 39 28h-1.96a5.8 5.8 0 0 1-1 2.33l-2.78-2.7c1.11-.67 2.22-1.59 2.22-2.99 0-1.74-1.49-2.64-3.1-2.64ZM31 24.66c0-.75.66-1.08 1.33-1.08.65 0 1.24.37 1.24 1.06 0 .91-.84 1.44-1.54 1.84-.5-.5-1.03-1.07-1.03-1.82Zm.62 3.88 3.13 2.71c-.8.62-1.75.75-2.75.75-1.03 0-2.01-.22-2.01-1.35 0-1.03.81-1.64 1.63-2.11Z" fill="#F9F9F9"/></svg>