<svg xmlns="http://www.w3.org/2000/svg" width="56" height="56" viewBox="0 0 56 56"><path fill="#F0F3FA" d="M0 0h56v56H0z"/><path fill-rule="evenodd" d="M9.36 23.36l-.37-.53 1.9-1.22v-.81c-.04-.37-.32-1.04-1.16-.82-1.04.27-2.65 1.63-3.34 3.8-.7 2.18.32 4.14 1.87 4.14s3.37-1.68 4.78-3.81c-.28-.26-.72-.92-.29-1.56.55-.78 1.06-.7 1.19-.63.13.08.36.67-.35 1.33.06.15.51.41 1.84.33-.55 1.2-1.52 3.6-1 3.63.36.02.81-.52 1.38-1.2.46-.56 1-1.2 1.6-1.68 1.09-.86 2.95-.95 3.75-.88L19.86 27c-.07.22-.06.57.5.29a3.26 3.26 0 0 0 1.22-1.37l.97-3.1c.23-.8 1-2.6 2.23-3.36 1.24-.76 1.55-.13 1.55.27.07 1-.52 3.69-3.44 6.4-.1.37-.12 1.08.51 1.08.64 0 1.25-.57 1.47-.85l1.89-5.19c.27-.28.97-.82 1.59-.75.06.06.12.34-.17.96-.3.62-.64 1.42-.78 1.74l1.7-.5c-.06.37-.37 1.15-1.08 1.28l-.87.22-1.02 2.73c0 .24.12.67.68.44.56-.23 1.62-1.43 2.08-2-.07-.48-.07-1.58.45-2.17.65-.73 1.91-1.26 2.34-.84.43.43-.2 1.62-1.4 1.62-.05.11-.06.45.35.9.5.57.66 1.1.63 2.2.29-.06.93-.44 1.19-1.43.32-1.24.64-1.92 1.22-2.02.59-.1 1.19-.18 1.03.16-.13.27-.3.76-.38.98.44-.43 1.46-1.3 2.03-1.3.72 0 .85.45.72 1.42.61-.53 1.97-1.58 2.51-1.58.54 0 .5.74.42 1.11l-.59 2.37c-.05.26-.02.65.59.15.6-1.2 2.62-3.58 5.8-3.46a7.33 7.33 0 0 1-.48 1.8c-.37 1-.97 2.67.2 1.82l.67-.69.64-1.99c.05-.22.33-.69 1.08-.8.75-.12.85-.05.8 0l-.5 1.15c.02.15.22.3.9-.35.85-.8 1.38-1.09 1.86-.94.48.14.26 1.03.13 1.4l-.1.26c-.3.68-.96 2.22-.15 1.96l.98-.83.08.67c-.64.68-2.11 2.05-2.9 2.19-.8.13-.47-1.25-.21-1.95l.51-2.04c-.18.01-.73.26-1.43 1.2l-.85 2.85h-1.6l.43-1.53c-.64.55-2.06 1.62-2.58 1.47-.52-.15-.45-.72-.35-.98-.5.34-1.61 1.04-2.02 1.04-.5 0-.91-.26-.91-1.43-.54.43-1.73 1.32-2.14 1.37-.52.06-.52-.56-.4-1.37.1-.65.54-1.89.75-2.42.05-.21.07-.59-.26-.37a7.78 7.78 0 0 0-1.24 1.54l-.88 2.62h-1.56l.95-3.14c.08-.41.18-1.18-.1-.97l-.04.03c-.4.3-1.69 1.24-2.02 4.08v.06h-1.64l.41-1.43c0-.14-.08-.33-.4 0-.41.4-1.82 1.43-2.97 1.43-1.15 0-1.21-.47-1.23-.7-.02-.23.79-1.1 1.05-1.05.1.03.2.16.31.32.18.24.4.54.7.51.51-.04.56-.56.56-.77 0-.2-.51-1.45-.7-1.57-.97 1.08-3.17 3.26-4.19 3.26-.32-.01-.88-.35-.49-1.63-.37.24-1.2.73-1.53.82.25 1.96.33 6-1.36 6.5-.4-.24-1.24-1.22-1.45-3.28l1.03-4.04c-.62.5-2 1.54-2.48 1.63-.5.09-.57-.68-.54-1.08-.47.36-1.52 1.1-2.04 1.13-.65.05-.96-.78-.96-1.58-.48.5-1.59 1.53-2.1 1.53-.64 0-.68-1.17-.53-1.53l1.3-3.3h-.3c-.87 1.69-3.4 5.07-6.56 5.07-3.15 0-3.02-3.17-2.55-4.75.53-1.84 2.54-5.51 6.26-5.51.8.02 2.27.52 1.84 2.37l-3.14 1.9zm14.04 1.2c.2-1.21.88-3.78 1.85-4.38 1.23-.74-.9 3.76-1.85 4.38zm-4.13-.12l-.77 2.62c-1.6 1.21-1.71.31-1.56-.29a3.51 3.51 0 0 1 2.33-2.33zm24.77 0l-.77 2.62c-1.6 1.21-1.71.31-1.56-.29a3.51 3.51 0 0 1 2.33-2.33zm-21.7 4.02c.04 1.48-.07 4.5-.78 4.75-.72.25.23-3.06.79-4.75z" fill="#49545A"/><path d="M6.2 21.2a5.84 5.84 0 0 1 4.4-2.09c.41.01 1 .14 1.44.52.44.38.7 1 .48 1.96v.04l-3.25 1.96-.46-.68 1.93-1.24v-.76c-.02-.17-.1-.4-.25-.57-.16-.16-.4-.27-.8-.16-.5.13-1.15.52-1.76 1.16a6.64 6.64 0 0 0-1.52 2.58 3.9 3.9 0 0 0 .1 2.82c.35.74.96 1.2 1.7 1.2s1.56-.4 2.38-1.08c.8-.67 1.58-1.6 2.28-2.63-.14-.14-.3-.36-.39-.62-.1-.3-.1-.65.14-1 .56-.8 1.12-.76 1.3-.65.06.03.1.1.14.19.03.09.05.2.05.33a1.4 1.4 0 0 1-.47.9l.06.03c.06.04.16.08.3.11.27.08.7.12 1.37.08l.15-.01-.07.13c-.27.6-.65 1.5-.9 2.25-.12.38-.2.71-.23.95a.7.7 0 0 0 0 .26l.03.05h.03c.06 0 .14-.01.23-.07.1-.05.2-.13.31-.24.23-.22.48-.52.76-.86.46-.55 1-1.2 1.62-1.7a4.52 4.52 0 0 1 2.02-.8 7.62 7.62 0 0 1 1.79-.09l.11.01-1.34 3.66a.5.5 0 0 0-.02.15c0 .05 0 .08.02.1.01.01.03.03.1.03.06 0 .15-.03.29-.1.27-.13.52-.38.73-.64a4 4 0 0 0 .44-.68l.97-3.09c.11-.4.36-1.06.74-1.71.38-.65.89-1.3 1.52-1.7.63-.39 1.05-.44 1.33-.31.27.13.36.43.36.65.07 1.03-.54 3.73-3.45 6.45-.04.18-.06.41-.01.6.02.1.07.19.14.25.06.06.16.1.3.1.3 0 .59-.14.84-.31.24-.17.44-.37.55-.5l1.9-5.2v-.01c.15-.15.4-.36.7-.52.28-.17.63-.3.97-.26h.03l.02.03c.03.03.05.08.06.13.02.05.02.12.01.2-.01.17-.07.4-.22.72-.25.53-.54 1.2-.7 1.58l1.65-.5-.02.14c-.04.2-.13.5-.31.77-.19.27-.46.51-.84.59l-.82.2-1 2.68c0 .1.03.24.1.32.04.04.09.07.16.07a.6.6 0 0 0 .3-.05c.12-.05.29-.16.47-.32.18-.15.38-.34.58-.53.37-.39.74-.82.97-1.1a4.1 4.1 0 0 1 0-1.02c.06-.42.2-.86.47-1.17.33-.38.83-.7 1.29-.88.23-.1.46-.15.66-.15s.4.05.52.18a.6.6 0 0 1 .16.5c-.02.2-.1.4-.24.58-.26.36-.72.67-1.3.69-.03.11 0 .38.33.76.26.29.43.57.54.93.1.32.13.7.12 1.2.3-.11.79-.49 1.01-1.33.16-.62.33-1.11.52-1.46.2-.35.45-.57.77-.63.3-.05.6-.1.82-.08.1 0 .2.02.27.08a.2.2 0 0 1 .07.13c0 .05 0 .1-.03.15-.08.17-.17.42-.25.64a8.23 8.23 0 0 1 1.29-.92c.18-.1.37-.15.53-.15.19 0 .35.03.47.1a.6.6 0 0 1 .29.3c.1.2.1.5.07.88.3-.25.72-.57 1.12-.84.24-.17.49-.32.7-.43.22-.1.42-.18.58-.18.16 0 .28.06.37.15.09.1.13.21.16.34.05.25.02.54-.03.73l-.58 2.37a.63.63 0 0 0-.02.17c0 .06.02.1.03.1.01 0 .03.02.1 0s.18-.08.32-.2c.62-1.22 2.65-3.6 5.87-3.5l.1.01-.01.1c-.02.2-.12.77-.38 1.52l-.1.3a8.6 8.6 0 0 0-.48 1.59.82.82 0 0 0 0 .25c.02.06.04.08.06.09.02 0 .06.01.15-.02.08-.03.19-.09.33-.19l.64-.66.63-1.97c.06-.26.38-.75 1.16-.87a3.64 3.64 0 0 1 .8-.05.2.2 0 0 1 .07.03c.02.02.04.05.04.09 0 .03 0 .05-.02.06l-.49 1.12.02.02s.02.02.08 0c.1-.01.31-.12.65-.44.42-.4.77-.68 1.08-.84.32-.16.6-.2.86-.13.16.05.25.15.3.28.05.13.07.28.06.43a2.94 2.94 0 0 1-.28 1.07c-.14.34-.38.9-.48 1.32-.02.1-.04.2-.04.29 0 .08 0 .14.02.19.02.04.04.06.07.06.03.01.09.02.17-.01l1.09-.92.1.87-.03.03a16 16 0 0 1-1.4 1.3c-.28.23-.56.44-.82.6-.26.16-.52.28-.73.32a.55.55 0 0 1-.3-.03.41.41 0 0 1-.2-.16c-.09-.15-.11-.35-.1-.56.01-.43.16-.96.3-1.32l.47-1.89c-.08.04-.2.1-.35.2-.24.18-.54.46-.88.92l-.86 2.9h-1.8l.4-1.37c-.32.26-.73.57-1.13.82-.25.16-.5.3-.72.4-.22.08-.43.13-.6.08a.63.63 0 0 1-.46-.51 1.04 1.04 0 0 1 0-.35 13.63 13.63 0 0 1-1.43.8 1.3 1.3 0 0 1-.45.12c-.27 0-.53-.06-.72-.3-.16-.21-.26-.54-.28-1.03a18 18 0 0 1-1.58 1.1c-.17.09-.34.16-.46.18a.45.45 0 0 1-.37-.1.58.58 0 0 1-.17-.33c-.05-.27-.02-.64.05-1.05.1-.66.54-1.89.74-2.43a1 1 0 0 0 .03-.15l-.01-.14a.07.07 0 0 0-.02-.02s-.04 0-.12.04c-.07.05-.17.14-.28.26l-.34.42c-.23.3-.45.62-.6.83l-.89 2.67H34.1l.98-3.25a3.86 3.86 0 0 0 .08-.83.24.24 0 0 0-.02-.06l-.02.01-.04.03c-.2.15-.6.45-1.01 1.06-.4.62-.8 1.55-.98 2.95v.14h-1.83l.43-1.52-.01-.06-.01-.02h-.02l-.04.01a6.27 6.27 0 0 1-1.4 1.02c-.55.31-1.2.57-1.8.57-.58 0-.91-.11-1.1-.28a.69.69 0 0 1-.22-.49c0-.05.02-.1.04-.16a2.97 2.97 0 0 1 .77-.86.92.92 0 0 1 .17-.1.3.3 0 0 1 .17-.02.4.4 0 0 1 .2.13l.17.21c.1.13.18.26.29.35.1.1.21.15.34.13a.45.45 0 0 0 .4-.27c.06-.14.07-.31.07-.41a7.35 7.35 0 0 0-.61-1.44c-.5.54-1.25 1.32-2.02 1.97-.4.34-.8.65-1.17.88-.37.22-.72.36-1 .36a.69.69 0 0 1-.59-.38c-.13-.24-.17-.6-.04-1.14-.18.11-.39.24-.6.35-.25.15-.51.28-.7.34.13.99.2 2.45.04 3.75a5.96 5.96 0 0 1-.45 1.77c-.23.5-.56.87-1.02 1l-.03.01-.04-.02c-.42-.25-1.27-1.27-1.49-3.34v-.01l.97-3.8a23.06 23.06 0 0 1-1.79 1.24c-.2.12-.4.2-.53.23a.42.42 0 0 1-.37-.1.72.72 0 0 1-.19-.31 2 2 0 0 1-.09-.57 10.93 10.93 0 0 1-1.44.89c-.18.08-.35.14-.5.15-.37.03-.64-.2-.8-.52-.14-.26-.22-.6-.24-.94-.24.24-.57.55-.9.81-.2.16-.41.3-.6.42-.19.1-.37.17-.52.17a.55.55 0 0 1-.44-.22c-.1-.13-.17-.3-.2-.47a2.16 2.16 0 0 1-.05-.53c0-.17.03-.32.08-.42.1-.29.85-2.17 1.25-3.19h-.12c-.44.86-1.29 2.1-2.41 3.15-1.15 1.06-2.59 1.92-4.2 1.92-.8 0-1.4-.2-1.85-.53-.44-.34-.71-.8-.87-1.3a5.63 5.63 0 0 1 .08-3.02c.27-.93.91-2.32 1.96-3.48zm-1.78 3.53a5.45 5.45 0 0 0-.08 2.92c.15.48.4.91.81 1.22.4.3.97.5 1.74.5 1.55 0 2.95-.83 4.08-1.88a12.24 12.24 0 0 0 2.4-3.14l.03-.05h.47l-.04.12-1.3 3.3a1.99 1.99 0 0 0-.03.85c.04.16.1.3.17.4.08.1.18.16.3.16.11 0 .26-.05.44-.16a11.15 11.15 0 0 0 1.6-1.35l.16-.15v.22c0 .4.08.78.22 1.07.15.28.36.44.64.42.11 0 .27-.05.44-.13a10.72 10.72 0 0 0 1.55-.98l.15-.12v.2c-.02.19 0 .47.07.68.03.11.08.2.14.25.05.05.12.07.22.05.1-.02.27-.1.48-.21l.68-.43c.48-.33.97-.72 1.29-.97l.2-.16-1.1 4.28c.22 1.97 1 2.92 1.38 3.17.37-.12.65-.44.87-.9a5.8 5.8 0 0 0 .44-1.71c.16-1.31.08-2.8-.04-3.78l-.01-.07.07-.02c.15-.04.43-.18.72-.35.3-.16.6-.35.79-.46l.2-.13-.07.23c-.2.63-.15 1-.03 1.22.11.21.3.29.43.29.23 0 .54-.13.9-.34.36-.22.76-.52 1.16-.86a22.8 22.8 0 0 0 2.06-2.03l.05-.06.06.04c.04.03.08.07.11.12l.11.19a6.15 6.15 0 0 1 .53 1.34c0 .1-.01.3-.1.48a.63.63 0 0 1-1 .2c-.13-.1-.23-.25-.32-.37l-.16-.2c-.05-.05-.08-.08-.1-.08l-.07.02a2.42 2.42 0 0 0-.48.38 2.8 2.8 0 0 0-.37.49.19.19 0 0 0-.02.07c0 .1.02.25.16.37s.42.24.98.24c.55 0 1.17-.25 1.72-.55.54-.3.98-.66 1.18-.86a.88.88 0 0 1 .22-.17c.07-.03.14-.04.2-.02.06.03.1.08.11.12l.03.14-.38 1.34h1.43a6.88 6.88 0 0 1 1-3.01c.42-.64.85-.96 1.06-1.11l.03-.03c.05-.03.1-.05.15-.05.06 0 .1.04.13.08.02.04.04.09.04.13l.01.16c0 .23-.05.53-.09.74l-.91 3.03h1.37l.87-2.56v-.01a14.89 14.89 0 0 1 .96-1.28c.11-.13.22-.23.31-.3.09-.05.17-.08.25-.07.09.02.13.09.15.15.02.06.03.13.02.2 0 .06-.01.13-.03.19v.01c-.2.54-.64 1.76-.74 2.4-.06.4-.09.75-.04.98.02.12.06.2.11.24.05.04.12.06.23.05.08 0 .22-.06.4-.16l.58-.36c.41-.28.84-.61 1.11-.83l.14-.12v.19c0 .58.1.91.25 1.1.15.18.34.24.58.24.08 0 .22-.04.38-.1a13.71 13.71 0 0 0 1.59-.92l.24-.16-.1.26a.97.97 0 0 0-.06.48c.03.17.12.32.35.38.1.03.26 0 .47-.08.21-.08.45-.22.7-.38.5-.31 1-.71 1.32-.99l.22-.19-.48 1.7h1.43l.83-2.8v-.01c.36-.48.68-.78.94-.97.25-.18.45-.26.57-.26h.12l-.55 2.14c-.13.36-.27.87-.29 1.27 0 .2.02.36.09.46.03.05.06.08.11.1.05.02.11.03.2.01.18-.03.4-.13.67-.29.25-.16.53-.36.8-.58.52-.43 1.03-.92 1.35-1.26l-.05-.47-.86.74h-.02a.49.49 0 0 1-.3.02.28.28 0 0 1-.17-.17.63.63 0 0 1-.04-.26c0-.1.03-.2.05-.32.1-.44.34-1 .49-1.34l.1-.27c.07-.17.15-.48.17-.75 0-.14-.01-.26-.05-.35a.28.28 0 0 0-.19-.18c-.2-.06-.44-.03-.72.11a4.9 4.9 0 0 0-1.05.81c-.34.33-.58.47-.74.5-.09.01-.16 0-.22-.04a.23.23 0 0 1-.09-.16v-.02l.49-1.11c-.1-.01-.31 0-.69.05-.71.11-.96.55-1 .74l-.65 2.02-.68.7h-.01c-.15.12-.28.2-.38.23-.1.04-.2.05-.3 0-.08-.04-.12-.12-.14-.2a.98.98 0 0 1 0-.31c.05-.45.3-1.13.47-1.63l.11-.3a7.9 7.9 0 0 0 .36-1.39c-3.08-.06-5.03 2.25-5.62 3.42l-.01.02-.02.01c-.15.13-.28.2-.38.24-.1.03-.2.03-.27-.04-.07-.05-.09-.14-.1-.21 0-.08 0-.16.02-.23l.59-2.37c.04-.18.07-.44.03-.66a.51.51 0 0 0-.12-.25.31.31 0 0 0-.24-.1c-.11 0-.28.06-.5.17-.2.1-.44.25-.68.41-.48.33-.97.72-1.27.98l-.18.15.03-.23c.07-.48.06-.81-.03-1.02a.43.43 0 0 0-.2-.21.86.86 0 0 0-.4-.08c-.12 0-.28.05-.46.14-.17.08-.36.2-.55.33-.38.27-.74.59-.96.8l-.14-.09a12.92 12.92 0 0 1 .39-1.07c-.02-.02-.07-.03-.17-.04-.2 0-.48.04-.77.09-.26.04-.47.21-.65.54-.19.32-.35.8-.5 1.41-.28 1.02-.94 1.43-1.26 1.5l-.1.03v-.12c0-.55-.03-.95-.12-1.27-.1-.33-.25-.59-.5-.87-.42-.46-.43-.84-.35-1l.02-.05h.06c.56 0 .99-.28 1.23-.6.12-.17.18-.35.2-.5.02-.16-.02-.28-.1-.36-.09-.09-.22-.13-.4-.13-.17 0-.38.05-.6.13-.44.17-.9.48-1.22.83-.24.28-.37.68-.42 1.08-.05.4-.03.78 0 1.01v.04l-.02.03a16.51 16.51 0 0 1-1.6 1.69c-.18.15-.36.28-.52.34a.78.78 0 0 1-.39.07.42.42 0 0 1-.26-.13.66.66 0 0 1-.14-.46v-.02l1.03-2.78.92-.24c.33-.06.56-.27.73-.51.12-.19.2-.39.25-.55l-1.74.51.07-.17.79-1.75c.14-.3.2-.52.2-.66a.5.5 0 0 0 0-.18c-.27-.01-.57.09-.83.24-.27.15-.5.34-.64.48L24.9 26.5l-.01.01c-.12.15-.33.37-.6.55-.27.19-.6.34-.94.34a.62.62 0 0 1-.42-.14.64.64 0 0 1-.2-.33c-.06-.24-.02-.53.03-.71v-.03l.02-.02c2.9-2.7 3.48-5.36 3.41-6.33 0-.2-.07-.41-.26-.5-.19-.1-.54-.08-1.15.3-.6.37-1.1 1-1.47 1.64a7.79 7.79 0 0 0-.72 1.67l-.98 3.1c-.09.18-.25.46-.47.73-.2.27-.48.54-.78.69a.95.95 0 0 1-.37.11c-.1 0-.18-.03-.24-.1a.33.33 0 0 1-.06-.2c0-.07.02-.14.04-.2l1.26-3.45c-.4-.02-1-.01-1.63.1-.7.12-1.42.35-1.94.77-.6.47-1.13 1.1-1.6 1.67-.28.33-.53.64-.77.87-.11.1-.23.2-.34.26a.6.6 0 0 1-.33.1.22.22 0 0 1-.14-.06.27.27 0 0 1-.07-.12.86.86 0 0 1-.02-.33c.03-.26.12-.6.25-.98.23-.71.57-1.54.84-2.14-.59.03-1-.01-1.28-.09a1.28 1.28 0 0 1-.34-.13.38.38 0 0 1-.17-.16l-.02-.06.05-.04c.34-.32.45-.61.46-.83 0-.1-.01-.2-.04-.26-.02-.07-.05-.1-.06-.1-.07-.05-.53-.16-1.06.6-.2.3-.2.59-.12.85.09.26.26.47.39.6l.05.04-.04.07a12.65 12.65 0 0 1-2.35 2.72c-.83.7-1.7 1.13-2.5 1.13-.82 0-1.48-.52-1.86-1.3a4.07 4.07 0 0 1-.1-2.95c.35-1.1.94-2 1.56-2.65A4.29 4.29 0 0 1 9.65 20c.45-.12.76 0 .96.21.2.2.29.48.3.68v.87l-1.86 1.2.27.38 3.04-1.83c.2-.88-.06-1.43-.44-1.76-.4-.34-.94-.46-1.32-.47-1.83 0-3.24.9-4.26 2.03a9.3 9.3 0 0 0-1.92 3.41zM25.4 20.3a.46.46 0 0 0-.16.07c-.23.13-.44.4-.64.73-.2.34-.38.75-.54 1.18a15.2 15.2 0 0 0-.6 2.16 6.82 6.82 0 0 0 .66-.87c.32-.49.63-1.08.88-1.63.25-.56.42-1.06.46-1.38a.73.73 0 0 0 0-.18c0-.05-.01-.07-.02-.07 0 0-.01-.02-.04-.01zm-1.6 4.03c-.14.18-.29.33-.42.41l-.17.11.04-.2c.1-.6.33-1.56.64-2.43.16-.44.35-.86.55-1.2.2-.36.44-.64.7-.8a.63.63 0 0 1 .23-.1c.07 0 .14 0 .2.06a.3.3 0 0 1 .07.18v.23c-.04.34-.23.86-.48 1.42a13.87 13.87 0 0 1-1.35 2.32zm-4.46.1l-.82 2.8-.02.01c-.4.3-.73.48-.97.57-.25.08-.44.07-.58-.03-.14-.1-.2-.26-.2-.42-.02-.16 0-.34.04-.5a3.6 3.6 0 0 1 2.4-2.4l.15-.03zm24.77 0l-.82 2.8-.02.01c-.4.3-.73.48-.97.57-.25.08-.44.07-.58-.03-.14-.1-.2-.26-.2-.42-.02-.16 0-.34.04-.5a3.6 3.6 0 0 1 2.4-2.4l.15-.03zM16.96 26.9c-.03.14-.05.3-.04.44.01.13.06.23.13.29.07.05.2.07.42 0 .22-.07.5-.23.9-.52l.7-2.43c-.63.22-1.75.9-2.1 2.22zm24.77 0c-.03.14-.05.3-.04.44.01.13.06.23.13.29.07.05.2.07.42 0 .22-.07.5-.23.9-.52l.7-2.43c-.63.22-1.75.9-2.1 2.22zm-20.32 6.33h.05c.07-.02.13-.08.2-.18.07-.1.13-.24.18-.4.1-.34.19-.78.24-1.26.09-.76.12-1.6.12-2.28-.25.78-.53 1.76-.7 2.57-.11.5-.18.94-.17 1.23 0 .15.02.24.05.3l.03.02zm-.08-1.59c.21-1 .6-2.26.87-3.1l.17.02c.02.74 0 1.87-.11 2.85-.06.48-.14.94-.25 1.29a1.9 1.9 0 0 1-.2.44.6.6 0 0 1-.29.25.26.26 0 0 1-.17.01.24.24 0 0 1-.13-.1.8.8 0 0 1-.07-.39c0-.3.07-.76.18-1.27z"/><path d="M6.27 21.1a5.84 5.84 0 0 1 4.39-2.1c.41.01 1 .14 1.44.52.44.38.7 1 .48 1.96v.04l-3.25 1.95-.46-.67 1.93-1.24v-.76c-.02-.17-.1-.4-.25-.57-.16-.16-.4-.27-.8-.17-.5.14-1.14.53-1.76 1.17a6.64 6.64 0 0 0-1.52 2.58 3.9 3.9 0 0 0 .1 2.82c.35.74.96 1.2 1.7 1.2s1.56-.4 2.38-1.08c.8-.67 1.59-1.6 2.28-2.63-.14-.14-.3-.36-.39-.62-.1-.3-.1-.65.14-1 .56-.8 1.12-.76 1.3-.65.06.03.1.1.14.19.03.08.06.2.05.33a1.4 1.4 0 0 1-.47.9 1.11 1.11 0 0 0 .35.15c.28.06.72.11 1.38.07l.15-.01-.07.13c-.27.6-.65 1.5-.9 2.25-.12.38-.2.7-.23.95a.7.7 0 0 0 0 .26l.03.04.03.01c.06 0 .14-.01.23-.07.1-.05.2-.13.31-.24a11 11 0 0 0 .76-.86c.46-.55 1-1.2 1.62-1.7a4.52 4.52 0 0 1 2.02-.8 7.62 7.62 0 0 1 1.79-.09h.11l-1.34 3.67a.5.5 0 0 0-.02.15c0 .05 0 .08.02.1.01 0 .04.03.1.02.06 0 .15-.02.29-.09.27-.13.52-.38.73-.64.2-.25.36-.52.44-.68l.97-3.09c.11-.4.36-1.06.74-1.71.38-.65.89-1.3 1.52-1.7.63-.39 1.05-.44 1.33-.31.27.13.36.43.36.65.07 1.03-.54 3.73-3.45 6.45-.04.17-.06.41-.01.6.02.1.07.19.14.25.06.05.16.1.3.1.3 0 .59-.14.84-.31.25-.17.44-.37.55-.5l1.9-5.2v-.01c.15-.15.4-.36.7-.52.28-.17.63-.3.97-.26h.03l.02.03c.03.03.05.08.07.13v.2c-.01.17-.07.4-.22.72-.25.53-.54 1.2-.7 1.58l1.65-.5-.02.14c-.04.2-.13.5-.31.77-.19.27-.46.51-.84.59l-.82.2-1 2.68c0 .1.03.24.1.32.04.04.09.06.16.07a.6.6 0 0 0 .3-.05c.13-.05.29-.16.47-.32a16.33 16.33 0 0 0 1.55-1.63 4.11 4.11 0 0 1 0-1.02c.06-.42.2-.86.47-1.17.34-.38.83-.7 1.29-.89.23-.08.46-.14.66-.14s.4.05.52.18a.6.6 0 0 1 .16.5c-.02.2-.1.4-.24.58-.26.36-.72.67-1.3.69-.03.11 0 .38.33.76.26.29.43.57.54.93.1.32.13.7.12 1.2.3-.12.8-.49 1.01-1.33.16-.63.33-1.11.52-1.46.2-.35.45-.57.78-.63.29-.05.6-.1.8-.08.11 0 .22.02.29.08a.2.2 0 0 1 .06.13c0 .05 0 .1-.03.15-.08.17-.17.42-.25.64a8.25 8.25 0 0 1 1.29-.92c.18-.1.37-.15.53-.15.19 0 .35.03.47.1a.6.6 0 0 1 .29.29c.1.22.1.52.07.9.3-.26.72-.58 1.12-.85.24-.17.49-.32.7-.43.22-.1.42-.18.58-.18.16 0 .28.05.37.15.09.09.14.21.16.34.05.25.02.54-.03.73l-.58 2.37a.64.64 0 0 0-.02.17c0 .06.02.1.03.1.01 0 .03.02.1 0s.18-.08.32-.2c.62-1.22 2.66-3.6 5.88-3.5l.09.01-.01.1a7.4 7.4 0 0 1-.49 1.81 8.61 8.61 0 0 0-.47 1.6.81.81 0 0 0 0 .24c.02.06.04.09.06.1.02 0 .06.01.15-.02.08-.03.19-.09.33-.19l.65-.66.63-1.97c.05-.26.37-.75 1.15-.87a3.65 3.65 0 0 1 .8-.05l.07.03c.02.02.04.05.04.09 0 .03 0 .05-.02.06l-.49 1.12.02.02s.02.02.08 0c.1-.02.31-.12.65-.44.42-.4.77-.69 1.09-.84.3-.17.59-.2.86-.13.15.05.24.15.3.28.05.13.06.28.05.42 0 .3-.1.63-.17.81l-.1.27c-.15.34-.39.9-.49 1.32l-.04.29c0 .08 0 .14.02.19.02.04.04.05.07.06.03.01.09.01.17-.01l1.09-.92.1.87-.03.03a16 16 0 0 1-1.4 1.3c-.28.23-.56.44-.82.6-.26.16-.52.28-.73.31a.54.54 0 0 1-.3-.02.41.41 0 0 1-.2-.16 1 1 0 0 1-.1-.57c.01-.42.16-.95.3-1.31l.47-1.89c-.08.03-.2.1-.35.2-.24.18-.54.46-.88.92l-.86 2.9h-1.8l.4-1.37c-.32.26-.73.57-1.13.82-.25.16-.5.3-.72.4-.22.08-.43.13-.6.08a.63.63 0 0 1-.46-.52 1.04 1.04 0 0 1 0-.34 13.65 13.65 0 0 1-1.43.8 1.3 1.3 0 0 1-.45.12c-.27 0-.53-.06-.72-.3-.16-.21-.26-.54-.28-1.03a17.92 17.92 0 0 1-1.58 1.1c-.17.09-.34.16-.46.18a.45.45 0 0 1-.37-.1.58.58 0 0 1-.17-.33c-.05-.27-.02-.64.05-1.05.1-.66.54-1.89.74-2.43l.03-.15-.01-.14a.07.07 0 0 0-.02-.02s-.04 0-.12.04c-.07.05-.17.14-.28.26l-.34.42c-.23.3-.45.62-.6.83l-.89 2.67h-1.74l.98-3.25a3.87 3.87 0 0 0 .08-.83.24.24 0 0 0-.02-.06l-.02.01-.04.03c-.2.15-.6.45-1.01 1.06-.4.62-.8 1.55-.98 2.95v.14h-1.83l.43-1.53-.01-.05v-.02h-.01-.02-.04a6.28 6.28 0 0 1-1.4 1.02c-.55.32-1.2.58-1.8.58-.58 0-.91-.11-1.1-.28a.69.69 0 0 1-.22-.5c0-.04.02-.1.04-.15l.1-.17a2.97 2.97 0 0 1 .67-.69.92.92 0 0 1 .17-.1.3.3 0 0 1 .17-.02.4.4 0 0 1 .2.13l.17.21c.1.13.18.26.29.35.1.1.21.14.34.13a.45.45 0 0 0 .4-.27c.06-.15.07-.31.07-.41a7.43 7.43 0 0 0-.61-1.44c-.5.54-1.25 1.32-2.02 1.97-.4.34-.8.65-1.17.87-.37.23-.72.37-1 .37a.69.69 0 0 1-.59-.38c-.13-.24-.17-.6-.04-1.14a18.17 18.17 0 0 1-1.29.7c.12.98.2 2.44.03 3.74a5.96 5.96 0 0 1-.45 1.77c-.23.5-.56.86-1.02 1l-.03.01-.04-.02c-.42-.25-1.27-1.27-1.49-3.34v-.02l.97-3.8a23.01 23.01 0 0 1-1.79 1.25c-.2.12-.39.2-.53.23a.42.42 0 0 1-.37-.1.72.72 0 0 1-.19-.31 2 2 0 0 1-.09-.57 10.94 10.94 0 0 1-1.43.89c-.19.08-.36.14-.5.15-.38.03-.64-.2-.81-.52-.14-.26-.22-.6-.24-.94-.24.24-.57.55-.9.81-.2.16-.41.3-.6.42-.19.1-.37.17-.52.17a.55.55 0 0 1-.44-.22c-.1-.13-.17-.3-.2-.47a2.16 2.16 0 0 1-.05-.53c0-.17.03-.32.08-.43l1.25-3.18h-.11c-.45.85-1.3 2.1-2.42 3.15-1.14 1.06-2.59 1.92-4.2 1.92-.8 0-1.4-.2-1.84-.53-.45-.34-.72-.8-.88-1.3a5.62 5.62 0 0 1 .08-3.02c.27-.93.91-2.32 1.96-3.48zm.13.11a9.3 9.3 0 0 0-1.92 3.41 5.45 5.45 0 0 0-.08 2.92c.15.48.4.9.81 1.22.4.3.97.5 1.74.5 1.55 0 2.95-.83 4.08-1.88a12.23 12.23 0 0 0 2.4-3.14l.03-.05h.48l-.05.12-1.3 3.3c-.03.08-.06.2-.06.36 0 .16 0 .33.04.5.03.15.09.3.17.4.07.1.17.15.3.15.1 0 .25-.05.43-.16a11.17 11.17 0 0 0 1.6-1.35l.16-.15v.22c0 .4.08.78.23 1.07.14.28.35.44.63.42.11 0 .27-.05.44-.13a10.77 10.77 0 0 0 1.55-.98l.15-.12v.2c-.02.19 0 .47.07.68.03.11.08.2.14.25.06.04.12.07.22.05.1-.02.27-.1.48-.21l.68-.43c.48-.33.97-.72 1.29-.97l.2-.16-1.1 4.28c.22 1.97 1 2.92 1.38 3.17.37-.12.65-.44.87-.9.22-.46.36-1.06.44-1.71.16-1.31.08-2.8-.04-3.78l-.01-.07.07-.02c.15-.04.43-.19.72-.35.3-.16.6-.35.79-.46l.2-.13-.07.23c-.2.63-.15 1-.03 1.22.11.21.3.29.43.29.23 0 .54-.13.9-.35.36-.21.76-.51 1.16-.85.79-.68 1.58-1.5 2.06-2.03l.05-.06.06.04c.04.03.08.07.11.12l.12.18a6.16 6.16 0 0 1 .52 1.35c0 .1-.01.3-.1.48a.63.63 0 0 1-1 .2c-.13-.1-.23-.25-.32-.37a2.4 2.4 0 0 0-.16-.2c-.05-.06-.08-.08-.1-.08l-.07.01a2.42 2.42 0 0 0-.48.38 2.79 2.79 0 0 0-.37.5.18.18 0 0 0-.02.07c0 .1.03.25.16.37.14.12.42.24.98.24.55 0 1.17-.25 1.72-.55.54-.3.98-.66 1.18-.86a.88.88 0 0 1 .23-.17c.06-.03.13-.04.2-.02.05.03.09.08.1.12l.03.14-.38 1.34h1.43a6.88 6.88 0 0 1 1-3.01 4.07 4.07 0 0 1 1.1-1.14c.04-.03.09-.05.14-.05.06 0 .1.04.13.08.02.04.04.09.04.13l.01.16c0 .23-.04.53-.09.73l-.91 3.04h1.38l.86-2.56v-.01a14.93 14.93 0 0 1 .96-1.29c.11-.12.22-.22.31-.28.09-.06.17-.1.25-.08.09.02.13.08.15.15.02.06.03.13.02.2 0 .06-.01.13-.03.19v.01c-.2.54-.64 1.76-.74 2.4-.06.4-.09.75-.04.98.02.12.06.2.11.24.05.04.12.06.23.05.08 0 .22-.06.4-.16l.58-.36c.41-.28.84-.61 1.11-.83l.15-.12v.19c0 .58.1.91.24 1.1.15.18.34.24.58.24.08 0 .22-.04.38-.1a13.7 13.7 0 0 0 1.59-.92l.24-.16-.1.26a.97.97 0 0 0-.06.48c.03.17.12.32.35.38.1.03.26 0 .47-.08.21-.09.45-.22.7-.38.5-.31 1-.71 1.32-.99l.22-.2-.48 1.7h1.43l.83-2.79.01-.01c.35-.48.67-.78.93-.97.25-.18.45-.26.57-.26h.12l-.55 2.14c-.13.36-.27.87-.29 1.27 0 .2.02.36.09.46.03.05.06.08.11.1.05.02.11.03.2.01.18-.03.4-.13.67-.29.25-.16.53-.36.8-.58.53-.43 1.04-.92 1.35-1.26l-.05-.47-.86.74h-.02a.49.49 0 0 1-.3.02.28.28 0 0 1-.17-.17.63.63 0 0 1-.03-.26c0-.1.02-.2.04-.32.1-.44.34-1 .49-1.35.05-.12.09-.2.1-.26.07-.17.16-.48.17-.75 0-.14-.01-.26-.05-.35a.28.28 0 0 0-.19-.18c-.2-.06-.44-.04-.72.11a4.9 4.9 0 0 0-1.05.81c-.34.33-.58.47-.74.5a.27.27 0 0 1-.22-.04.23.23 0 0 1-.09-.16v-.02l.49-1.12c-.1 0-.31 0-.69.06-.7.11-.96.55-1 .74l-.65 2.02-.68.7c-.16.12-.29.19-.4.23-.1.04-.2.05-.28 0-.09-.04-.13-.12-.15-.2a.98.98 0 0 1 0-.31c.05-.45.3-1.13.47-1.63l.11-.3a7.9 7.9 0 0 0 .36-1.39c-3.08-.06-5.03 2.25-5.62 3.42l-.01.02-.02.01c-.15.13-.28.2-.38.24-.1.03-.2.03-.27-.04-.07-.05-.09-.14-.1-.21l.02-.23.6-2.37c.03-.18.06-.44.02-.66a.51.51 0 0 0-.12-.25.31.31 0 0 0-.24-.1c-.11 0-.28.06-.5.17-.2.1-.44.25-.68.41-.48.33-.97.72-1.27.98l-.18.15.03-.23c.07-.48.06-.81-.03-1.02a.43.43 0 0 0-.2-.21.86.86 0 0 0-.4-.08c-.12 0-.28.05-.46.14-.17.08-.36.2-.55.33-.38.27-.74.59-.96.8l-.14-.09a12.98 12.98 0 0 1 .39-1.07c-.02-.02-.07-.03-.17-.04-.2 0-.48.03-.77.09-.26.04-.47.21-.65.54-.19.32-.34.79-.5 1.41-.28 1.02-.94 1.43-1.26 1.5l-.1.02v-.1c0-.56-.03-.96-.12-1.28-.1-.33-.25-.59-.5-.87-.42-.46-.43-.84-.35-1l.02-.05h.06c.56 0 .99-.28 1.23-.61.12-.17.19-.34.2-.5.02-.15-.02-.27-.1-.36-.09-.08-.22-.12-.4-.12-.17 0-.38.05-.6.13-.44.17-.9.47-1.22.83-.24.28-.37.68-.42 1.08-.05.4-.03.78 0 1.01v.04l-.02.03a16.47 16.47 0 0 1-1.6 1.69c-.18.15-.36.28-.52.34a.78.78 0 0 1-.38.07.42.42 0 0 1-.27-.14.66.66 0 0 1-.14-.45v-.02l1.03-2.78.92-.24c.33-.06.56-.27.73-.51.13-.19.2-.39.25-.55l-1.74.51.08-.17c.13-.32.49-1.13.78-1.75.14-.3.2-.52.2-.66a.5.5 0 0 0 0-.18c-.27-.02-.57.09-.83.24-.27.15-.5.34-.63.48l-1.89 5.18v.01a2.9 2.9 0 0 1-.61.55c-.27.19-.6.34-.94.34a.62.62 0 0 1-.42-.14.64.64 0 0 1-.2-.33c-.06-.24-.02-.53.03-.71v-.03l.02-.02c2.9-2.7 3.48-5.36 3.41-6.33 0-.2-.07-.41-.26-.5-.19-.1-.54-.08-1.15.3-.6.37-1.1 1-1.47 1.63a7.79 7.79 0 0 0-.72 1.68l-.98 3.1c-.09.18-.25.46-.46.73-.22.27-.49.54-.8.69a.95.95 0 0 1-.36.11c-.1 0-.18-.03-.24-.1a.33.33 0 0 1-.06-.2c0-.07.02-.14.04-.2l1.26-3.45c-.4-.03-1-.01-1.63.1-.7.12-1.42.35-1.94.77-.6.47-1.13 1.1-1.6 1.66-.28.34-.53.65-.77.87-.11.12-.23.2-.34.27a.6.6 0 0 1-.33.1.22.22 0 0 1-.14-.06.27.27 0 0 1-.07-.12.86.86 0 0 1-.02-.33c.03-.26.12-.6.25-.99.23-.7.57-1.53.84-2.13-.59.03-1-.02-1.28-.09a1.29 1.29 0 0 1-.34-.13.39.39 0 0 1-.17-.16l-.02-.06.05-.04c.34-.32.45-.62.46-.83 0-.1-.01-.2-.03-.26-.03-.07-.06-.1-.07-.1-.07-.05-.53-.16-1.06.6-.2.3-.2.59-.12.84.09.26.26.48.39.6l.05.05-.04.06a12.64 12.64 0 0 1-2.35 2.73c-.83.7-1.7 1.13-2.5 1.13-.81 0-1.48-.52-1.85-1.3a4.07 4.07 0 0 1-.1-2.95c.34-1.1.93-2 1.55-2.65a4.29 4.29 0 0 1 1.85-1.21c.45-.12.76 0 .96.2.2.21.29.5.3.69h.01v.87l-1.86 1.2.26.38 3.04-1.83c.2-.88-.06-1.43-.44-1.76-.4-.34-.94-.47-1.32-.47-1.83 0-3.24.9-4.26 2.03zm19.06-1.02a.46.46 0 0 0-.16.07c-.23.13-.44.4-.64.73-.2.34-.38.75-.54 1.18a15.2 15.2 0 0 0-.6 2.16 6.78 6.78 0 0 0 .66-.87c.32-.49.63-1.08.88-1.64.25-.55.42-1.05.47-1.37a.73.73 0 0 0 0-.18c0-.05-.02-.07-.03-.07 0 0-.01-.02-.04-.01zm-1.6 4.03c-.14.18-.28.33-.41.41l-.17.11.03-.2c.1-.6.33-1.56.64-2.43.16-.44.35-.86.55-1.2.21-.36.44-.64.7-.8a.63.63 0 0 1 .23-.1c.07 0 .14 0 .2.06a.3.3 0 0 1 .07.17.9.9 0 0 1 0 .24c-.04.34-.23.86-.48 1.42a13.87 13.87 0 0 1-1.35 2.32zm-4.46.1l-.82 2.8-.02.01c-.4.3-.73.48-.97.56-.25.09-.44.08-.58-.02-.14-.1-.2-.26-.2-.42-.02-.16 0-.34.04-.5a3.6 3.6 0 0 1 2.4-2.4l.15-.03zm24.77 0l-.82 2.8-.02.01c-.4.3-.73.48-.97.56-.25.09-.44.08-.58-.02-.14-.1-.2-.26-.2-.42-.02-.16 0-.34.04-.5a3.6 3.6 0 0 1 2.4-2.4l.15-.03zM17.02 26.8c-.03.14-.05.3-.04.43.01.14.06.24.13.3.07.05.2.07.42 0 .22-.07.51-.23.9-.52l.7-2.43c-.63.22-1.75.9-2.1 2.22zm24.77 0c-.03.14-.05.3-.04.43.01.14.06.24.13.3.07.05.2.07.42 0 .22-.07.51-.23.9-.52l.7-2.43c-.63.22-1.75.9-2.1 2.22zm-20.32 6.33h.06c.06-.03.13-.08.2-.18.06-.1.12-.24.17-.4.1-.34.19-.78.24-1.26.1-.76.12-1.6.12-2.29-.25.8-.53 1.77-.7 2.58-.1.5-.18.94-.17 1.23 0 .15.02.24.05.3l.03.02zm-.08-1.59c.21-1 .6-2.26.87-3.1l.17.02c.02.74 0 1.87-.11 2.85-.06.48-.14.94-.25 1.29a1.9 1.9 0 0 1-.2.44.6.6 0 0 1-.29.25.26.26 0 0 1-.17 0 .24.24 0 0 1-.12-.1.79.79 0 0 1-.08-.38c0-.31.07-.76.18-1.27z" fill="url(#ax3gl2y10)"/><path fill-rule="evenodd" d="M37.7 35h-.63l.79-3.42h-.57l.23-.58h1.47v.58h-.56L37.7 35zm-8.85 0h-.66l.82-3.42h-.59l.24-.58h1.53v.58h-.58L28.85 35zm-4.08-3.7L24 35h.52l.33-1.56h.5L25.03 35h.57l.73-3.51c.05-.25-.12-.49-.35-.49h-.87c-.16 0-.3.13-.34.3zm.67 1.7h-.5l.26-1.2c.02-.08.09-.14.17-.14h.12c.12 0 .2.11.18.24l-.23 1.1zm6.24 2l.77-3.7c.04-.17.18-.3.34-.3H34.72c.22 0 .4.24.34.49L34.34 35h-.57l.63-3.1c.02-.13-.06-.24-.17-.24h-.13a.17.17 0 0 0-.15.1L33.28 35H32.71l.63-3.1c.03-.13-.05-.24-.17-.24h-.12c-.08 0-.15.06-.17.15L32.2 35h-.52zm10.76-3.7l-.77 3.7h.52l.68-3.2c.01-.08.08-.14.17-.14h.12c.11 0 .2.11.17.24L42.7 35h.57l.72-3.51c.05-.25-.11-.49-.34-.49h-.87c-.17 0-.3.13-.34.3zM28.3 31l-.77 3.7c-.04.17-.18.3-.34.3h-.87c-.23 0-.4-.24-.35-.49l.73-3.51h.57l-.64 3.1c-.02.13.06.24.17.24h.13c.08 0 .15-.06.17-.15l.68-3.19h.52zm6.37 4l.77-3.7c.04-.17.18-.3.35-.3h.87c.22 0 .4.24.34.49L36.29 35h-.57l.32-1.56h-.5L35.2 35h-.53zm.95-2h.5l.22-1.1c.03-.13-.06-.24-.17-.24h-.13c-.08 0-.15.06-.17.15L35.63 33zm-3.58-1.51c.06-.25-.11-.49-.34-.49h-.88c-.16 0-.3.13-.34.3l-.66 3.21c-.05.25.12.49.34.49h.88c.16 0 .3-.13.34-.3l.66-3.21zm-.6.36c.03-.13-.05-.25-.16-.25h-.15c-.08 0-.15.07-.17.16l-.48 2.34c-.02.13.06.24.17.24h.13c.08 0 .15-.06.17-.15l.5-2.34zM41.67 31c.23 0 .4.24.34.49l-.67 3.2c-.04.18-.18.31-.34.31h-.87c-.23 0-.4-.24-.34-.49l.66-3.2c.03-.18.18-.31.34-.31h.88zm-.43.6c.11 0 .2.12.17.25l-.5 2.34c-.02.1-.09.15-.17.15h-.12c-.12 0-.2-.11-.17-.24l.48-2.34c.01-.1.08-.16.17-.16h.14zM38.6 35h.66l.88-4h-.6l-.94 4zM4.22 33L4 34h14.88l.12-1H4.22zM45 34l.17-1H50l-.22 1H45z" fill="#49545A"/><defs><linearGradient id="ax3gl2y10" x1="28.03" y1="19" x2="28.03" y2="34.89" gradientUnits="userSpaceOnUse"><stop stop-color="#EBECEE"/><stop offset=".49" stop-color="#A6A7A9"/><stop offset="1" stop-color="#99A0A6"/></linearGradient></defs></svg>