<svg width="56" height="56" viewBox="0 0 56 56" xmlns="http://www.w3.org/2000/svg"><path fill="#F0F3FA" d="M0 0h56v56H0z"/><path d="M19 40.5a3.5 3.5 0 1 1-7 0 3.5 3.5 0 0 1 7 0ZM32.07 12c5.38.95 9.98 4.87 11.45 10.41.34 1.28.48 2.56.48 3.81.01 4.2-1.76 8.14-5 10.78 2.34-2.44 2.68-5.4 1.85-8.58-.07-.26-.37-.33-.6-.28l-4.72.99c-.32.08-.44.27-.37.56a5.37 5.37 0 0 1-.43 3.98 4.84 4.84 0 0 1-3.1 2.13c-.57.14-1.11.21-1.63.2a4.44 4.44 0 0 1-2.15-.58c-1.1-.62-1.81-1.97-2.17-3.33l-2.49-9.48a4.59 4.59 0 0 1 .43-3.68 4.87 4.87 0 0 1 3.13-2.13 4.87 4.87 0 0 1 3.75.39 4.65 4.65 0 0 1 2.18 3.01c.08.3.25.4.52.34l4.69-1.48c.3-.14.42-.32.36-.56a9.16 9.16 0 0 0-2.55-4.45A8.84 8.84 0 0 0 32.07 12Zm-12.3 21.1a9.85 9.85 0 0 0 2.5 4.55c.53.53 1.1.98 1.73 1.35a13.84 13.84 0 0 1-5.65-22 8.43 8.43 0 0 0-.89 2.04 9.75 9.75 0 0 0 .03 5.2l2.29 8.86Z" fill="#FBB81B"/></svg>