<svg width="56" height="56" viewBox="0 0 56 56" xmlns="http://www.w3.org/2000/svg"><path fill="#F0F3FA" d="M0 0h56v56H0z"/><path d="M28.49 29v-2H30v.25h-1.15v.62h1.06v.25h-1.06v.63H30V29h-1.51ZM28 27.66h-.35a.41.41 0 0 0-.08-.17.51.51 0 0 0-.13-.12.63.63 0 0 0-.18-.08.83.83 0 0 0-.57.06.62.62 0 0 0-.25.25.81.81 0 0 0-.1.4c0 .16.04.3.1.4.06.11.14.2.25.25a.85.85 0 0 0 .56.06.65.65 0 0 0 .18-.08.5.5 0 0 0 .14-.12c.04-.05.06-.1.08-.16H28a.72.72 0 0 1-.11.26.78.78 0 0 1-.2.2 1 1 0 0 1-.3.14c-.1.03-.22.05-.35.05-.2 0-.38-.04-.53-.12a.91.91 0 0 1-.38-.34A1.02 1.02 0 0 1 26 28c0-.2.05-.39.14-.54a.9.9 0 0 1 .37-.34 1.27 1.27 0 0 1 .88-.08c.1.03.2.08.29.13.08.06.15.13.2.21.06.08.1.18.12.28Z" fill="#82C402"/><path fill-rule="evenodd" d="M30.8 25.15a4.02 4.02 0 0 0-.8-.62v-.15c0-1.17-.93-1.66-1.8-2.13-.75-.4-1.45-.77-1.45-1.53 0-1.18 1.99-1.48 2.83-1.6l.06-.01c.8-.13 3.38-1.1 3.38-3.74 0-2.65-2.45-4.37-3.7-4.37-.34 0-1.25.03-1.18.6.03.2.37.37.7.53l.39.2a3.25 3.25 0 0 1 1.64 2.9c0 2.22-1.84 3.05-3.01 3.25-1.18.2-2.47.75-2.47 2.06s.87 1.88 2.08 2.37c.96.38 1.38.85 1.51 1.21a4 4 0 0 0-.96-.12 2.56 2.56 0 0 0-.07-.13c-.58-1.02-1.64-1-2.62-.96-.85.02-1.64.04-2.02-.62-.59-1.03 1-2.27 1.67-2.8l.05-.03c.64-.5 2.4-2.62 1.08-4.92-1.3-2.3-4.28-2.59-5.37-1.97-.3.17-1.07.64-.72 1.1.11.17.5.15.86.12.15 0 .3-.02.44-.01.98.04 2.12.4 2.86 1.7 1.1 1.93-.1 3.56-1.01 4.31-.92.76-1.78 1.87-1.13 3.01.65 1.15 1.69 1.2 2.98 1.03 1.03-.14 1.62.07 1.91.31-.31.1-.62.22-.9.38a2.6 2.6 0 0 0-.13-.08c-1-.6-1.91-.05-2.75.46-.73.45-1.4.86-2.06.48-1.02-.6-.26-2.47.06-3.26l.02-.06c.3-.75.78-3.46-1.5-4.8-2.28-1.35-5.01-.12-5.65.96-.17.28-.6 1.08-.07 1.32.18.08.5-.13.8-.33a3.26 3.26 0 0 1 3.7-.18c1.92 1.13 1.7 3.13 1.27 4.25-.42 1.1-.6 2.5.52 3.17 1.14.67 2.07.2 3.1-.59.82-.63 1.44-.75 1.82-.68-.23.24-.44.5-.6.78h-.16c-1.17-.02-1.68.91-2.15 1.78-.4.74-.79 1.44-1.55 1.43-1.18-.01-1.46-2-1.58-2.85v-.06c-.12-.8-1.06-3.39-3.7-3.42-2.66-.03-4.4 2.4-4.42 3.65 0 .34.02 1.25.6 1.18.2-.02.36-.36.53-.68l.2-.4a3.26 3.26 0 0 1 2.92-1.6c2.22.02 3.03 1.87 3.22 3.04.19 1.18.72 2.48 2.04 2.5 1.31 0 1.89-.85 2.39-2.06.4-.96.87-1.37 1.23-1.5-.08.32-.13.65-.13.98l-.14.08c-1.02.57-1 1.63-.97 2.61.02.85.04 1.64-.63 2.02-1.03.58-2.27-1.01-2.79-1.69l-.03-.04c-.5-.65-2.61-2.41-4.92-1.11s-2.61 4.27-2 5.36c.16.29.64 1.07 1.1.73.17-.12.14-.5.12-.87 0-.15-.02-.3 0-.44.04-.97.4-2.11 1.7-2.85 1.94-1.09 3.57.11 4.32 1.04.75.92 1.86 1.78 3 1.14 1.16-.65 1.22-1.68 1.05-2.98-.13-1.02.08-1.62.33-1.9.09.32.22.64.38.93a2.6 2.6 0 0 0-.08.13c-.6 1.01-.03 1.91.48 2.75.45.72.87 1.4.48 2.05-.6 1.03-2.47.28-3.26-.04l-.05-.02c-.76-.3-3.47-.77-4.81 1.52-1.34 2.28-.1 5 .99 5.64.28.16 1.09.6 1.32.06.08-.18-.13-.5-.34-.8l-.23-.37a3.25 3.25 0 0 1 .04-3.33c1.12-1.92 3.13-1.7 4.25-1.28 1.11.42 2.5.6 3.17-.54.66-1.13.2-2.06-.6-3.09-.64-.82-.76-1.43-.69-1.81.24.24.52.44.81.62v.15c0 1.17.93 1.66 1.8 2.13.75.4 1.45.77 1.45 1.53 0 1.18-1.99 1.48-2.83 1.6l-.06.01c-.8.13-3.38 1.1-3.38 3.74 0 2.65 2.45 4.37 3.7 4.37.34 0 1.25-.03 1.18-.6-.03-.2-.37-.37-.7-.53a3.25 3.25 0 0 1-2.04-3.1c0-2.22 1.85-3.05 3.02-3.25 1.18-.2 2.47-.75 2.47-2.06s-.87-1.88-2.08-2.37c-.96-.38-1.38-.85-1.51-1.21a4 4 0 0 0 .96.12l.07.13c.58 1.02 1.64 1 2.62.96.85-.02 1.64-.04 2.02.62.59 1.03-1 2.27-1.67 2.8l-.05.03c-.64.5-2.4 2.62-1.08 4.92 1.3 2.3 4.28 2.59 5.37 1.97.3-.17 1.07-.64.73-1.1-.13-.17-.5-.15-.87-.12-.15 0-.3.02-.44.01a3.26 3.26 0 0 1-2.86-1.7c-1.1-1.93.1-3.56 1.01-4.31.92-.76 1.78-1.87 1.13-3.01-.65-1.15-1.69-1.2-2.98-1.03-1.03.14-1.62-.07-1.91-.31.31-.1.62-.22.9-.38l.13.08c1 .6 1.91.05 2.75-.46.73-.45 1.4-.86 2.06-.48 1.02.6.26 2.47-.06 3.26l-.02.06c-.3.75-.78 3.46 1.5 4.8 2.28 1.35 5.01.12 5.65-.96.17-.28.6-1.08.07-1.32-.18-.08-.5.13-.8.33a3.26 3.26 0 0 1-3.7.18c-1.92-1.13-1.7-3.13-1.27-4.25.42-1.1.6-2.5-.52-3.17-1.14-.67-2.07-.2-3.1.59-.82.63-1.44.75-1.82.68.23-.24.44-.5.6-.78h.16c1.17.02 1.68-.91 2.15-1.78.4-.74.79-1.44 1.55-1.43 1.18.01 1.46 2 1.58 2.85v.06c.12.8 1.06 3.39 3.7 3.42 2.66.03 4.4-2.4 4.42-3.65 0-.34-.02-1.25-.6-1.18-.2.02-.36.36-.53.68l-.2.4a3.26 3.26 0 0 1-2.92 1.6c-2.22-.02-3.03-1.87-3.22-3.04-.19-1.18-.72-2.48-2.04-2.5-1.31 0-1.89.85-2.39 2.06-.4.96-.87 1.37-1.23 1.5a4 4 0 0 0 .13-.98l.14-.08c1.02-.57 1-1.63.97-2.61-.02-.85-.04-1.64.63-2.02 1.03-.58 2.27 1.01 2.79 1.69l.03.04c.5.65 2.61 2.41 4.92 1.11s2.61-4.27 2-5.36c-.16-.29-.64-1.07-1.1-.73-.17.12-.14.5-.12.87v.44c-.04.97-.4 2.11-1.7 2.85-1.94 1.09-3.57-.11-4.32-1.04-.75-.92-1.86-1.78-3-1.14-1.16.65-1.22 1.68-1.05 2.98.13 1.02-.08 1.62-.33 1.9a3.98 3.98 0 0 0-.38-.93l.08-.13c.6-1.01.03-1.91-.48-2.75-.45-.72-.87-1.4-.48-2.05.6-1.03 2.47-.28 3.26.04l.05.02c.76.3 3.47.77 4.81-1.52 1.34-2.28.1-5-.99-5.64-.28-.16-1.09-.6-1.32-.06-.08.18.13.5.34.8l.23.37c.46.87.72 2.04-.04 3.33-1.12 1.92-3.13 1.7-4.25 1.28-1.11-.42-2.5-.6-3.17.54-.66 1.13-.2 2.06.6 3.09.64.82.76 1.43.69 1.81ZM28 31c1.72 0 3-1.28 3-3s-1.28-3-3-3-3 1.28-3 3 1.28 3 3 3Z" fill="#82C402"/></svg>