<svg xmlns="http://www.w3.org/2000/svg" width="56" height="56"><path fill="#F0F3FA" d="M0 0h56v56H0z"/><path d="M5.23 25.95c.07-.24-.03-.94-.06-1.19l-.4 1.59c.12-.04.39-.17.46-.4zm2.81 10.73c-.42-.09-.48-.41-.45-.56.15.07.47.24.57.38.1.14-.04.18-.12.18zm-2.85-6.49c-.02-.13-.24-.25-.32-.28l.23 1c.07.02.2.06.2 0s-.14-.4-.2-.57c.03 0 .1-.02.09-.15zm10.54 8.36l-.95-.06-.04.25h.41c-.03.04-.02.11.26.1.34-.01.5-.29.32-.29zm.57.05c-.09.02-.17.2-.2.28.07.03.2.06.2-.03 0-.1.21-.1.31-.08.06-.01.16-.06.16-.17 0-.1-.1-.21-.16-.25h.45v-.08h-.5c-.04 0-.1.11-.1.2 0 .08.1.12.15.13h-.3zm1.04-.4c.05.03.1.13 0 .24-.13.13-.08-.25 0-.25zm.68-.1a.47.47 0 00-.07.07l-.01.02h-.36v-.09h.32a.56.56 0 01.06-.06.22.22 0 01.12-.06v.09s-.03 0-.06.03zm.03.22l-.18.04-.02-.08a2.31 2.31 0 00.29-.08l.07.05-.03.03a.8.8 0 01-.12.04zm.25-.47a.34.34 0 00-.05.07l-.07-.04a.43.43 0 01.05-.08.23.23 0 01.05-.04.11.11 0 01.06-.02v.08l-.02.01-.03.02zm.3.12c.17-.16.37-.3.45-.36l.05.07c-.08.05-.28.19-.43.35l-.06-.06zm.61-.05l-.02.08c0 .03-.04.05-.07.07a.4.4 0 01-.1.03h-.2v-.07l.19-.01.08-.03c.02 0 .02-.01.02-.02a1.34 1.34 0 00.02-.07l.02-.07.02-.06a.09.09 0 01.06-.05l.01.08-.01.05-.02.07zm.04-.12zm-1.61.14l.17-.12.06.06a2.43 2.43 0 01-.3.2.37.37 0 01-.09.03l-.01-.08a.3.3 0 00.07-.03l.1-.06zm2.49-.83c.05-.05.08-.1.1-.14l.07.03a.85.85 0 01-.1.16.36.36 0 01-.18.13l-.02-.08c.04 0 .09-.05.13-.1zm1.23-.57l.05.07-.52.39.08.07-.06.06-.15-.13.6-.46z" fill="#517E39"/><path fill-rule="evenodd" d="M14.53 17.01c.05.1.22.22.55 0 2.87.02 5.48 1.14 7.42 2.96-.04.18-.11.56-.06.9l-.2-.2c.09-.06.14-.14.07-.2-.08-.07-.5-.39-.97-.73l-.95-.7a6.45 6.45 0 00-1.9-.78.313.313 0 00-.31-.08 10.28 10.28 0 00-8.78 1.14c-.16-.09-.25.06-.26.18a10.28 10.28 0 00-3.41 12.96c.11.39.32.93.56 1.12a.4.4 0 01.12.3c.03.03.12.1.19.13.02.1.08.3.19.38.05.04.18.16.3.3.19.18.38.38.44.38v-.01c.39.4.8.78 1.26 1.12.14.21.47.6.7.49.62.4 1.29.72 2 .98.08.06.21.13.35.15.11.01.21.07.32.14.17.1.34.2.6.18.2.04.64.09.82.05h.05c.15.1.47.3.67.32h.49V39c-.57-.01-1.12-.06-1.66-.16l-.1-.16a.6.6 0 01.36 0c.16.07.44.04.3-.11-.1-.12-.41-.05-.55 0-.28 0-.42-.1-.45-.15-.44-.05-.72.06-.81.14l-.2-.07-.93-.5c-.06-.16-.38-.12-.54-.08l-.58-.3.2-.18c-.06-.16-.21-.48-.34-.44-.1.03-.18.24-.23.4l-.9-.6c.08.03.14.03.14-.04-.01-.18-.32-.28-.48-.3-.03 0-.02.03.02.08l-.34-.3h.61a.5.5 0 00-.27-.23h-.6l-.14-.14c.27-.18-.06-.27-.3-.3-.25-.27-.48-.54-.7-.82.06-.02.15-.07.15-.12-.01-.06-.17-.03-.25 0l-.3-.43c.13-.1.35-.27.31-.32-.04-.06-.34-.21-.48-.29a3.02 3.02 0 01-.06-.03 10.6 10.6 0 01-.54-.8 2.23 2.23 0 00-.57-1.25l-.18-.58c.1.13.25.3.34.38.14.13.2 0 .19-.04 0-.03-.26-.38-.46-.66l-.14-.2v-.69c.06.03.18.05.16-.07a.37.37 0 00-.16-.24c-.05-.2-.2-.4-.28-.5L4 28.63l.05-.12c.09-.2.2-.45.19-.52-.01-.09-.16-.29-.24-.4.04-1.01.2-1.99.5-2.9.04.13.1.24.15.14.08-.15.03-.35 0-.43.27-.36.43-.85.47-1.05l-.32.49a11.03 11.03 0 013.56-4.62c.07.05.2.06.28-.2l.44-.3c.07.03.3 0 .7-.37-.01-.01-.03-.02-.06-.01.27-.15.55-.29.84-.42.1.04.29.04.4-.16a10.9 10.9 0 012.1-.6c.14.1.46.27.75.09-.1 0-.3-.04-.42-.14.37-.06.75-.1 1.14-.1zm-2.79.54c.06.09.2.24.36.2a.3.3 0 00.23-.24c-.06-.03-.18-.05-.27.1-.08.14-.24.02-.32-.06zM4.61 29.67a.2.2 0 010 .27c-.05-.05-.12-.16 0-.27z" fill="#517E39"/><path d="M14.36 25.18v1.16h-.71l-.15-.79c-1.5.05-1.86.79-1.98 2.01a1.65 1.65 0 001.65 1.83c.58 0 1.04-.13 1.2-.19v.57c-.16.16-1.04.23-1.2.23-.17 0-2.46 0-2.46-2.44 0-2.22 1.83-2.56 2.56-2.56.52 0 .95.12 1.1.18zm1.75.9h-1.15v.6l.54.17v2.44l-.54.28V30h1.92v-.43l-.62-.28v-2.05s.14-.2.3-.33c.18-.15.4-.23.4-.23l.19.56h.58v-1.16c-.01-.06-.23-.08-.33-.08-.54-.01-1.09.45-1.29.68v-.6zm5.1 1.87c.09-.61-.17-1.95-1.5-1.95-1.49 0-1.68 1.27-1.7 1.95-.04.69.35 2.05 1.9 2.05.36 0 .94-.09 1.19-.28l-.19-.53a2.3 2.3 0 01-1 .17c-.63-.02-1.17-.5-1.1-1.4h2.4zm-2.38-.5c.02-.3.2-.94.84-.94.6 0 .74.6.72.94h-1.55zm26.53.5c.08-.61-.18-1.95-1.5-1.95-1.49 0-1.69 1.27-1.71 1.95-.03.69.36 2.05 1.91 2.05.36 0 .94-.09 1.18-.28l-.18-.53a2.3 2.3 0 01-1 .17c-.63-.02-1.18-.5-1.11-1.4h2.4zm-2.38-.5c.01-.3.2-.94.83-.94.61 0 .75.6.72.94h-1.55z" fill="#0E4A86"/><path fill-rule="evenodd" d="M24.9 25v4.43l.49.2V30h-1.05v-.57c-.11.2-.42.57-1.09.57-.83 0-1.53-.6-1.52-1.7 0-1.1.7-1.86 1.65-1.92h.83v-.75l-.59-.22V25h1.29zm-.74 1.98v1.45c0 .33-.2 1.05-.78 1.05-.73 0-.91-.88-.88-1.2v-.01c.03-.33.1-1.2 1-1.29h.66z" fill="#0E4A86"/><path d="M26.96 24.6h-.83v.8h.83v-.8zm0 4.77V26h-1.3v.53l.56.23v2.6l-.5.27V30h1.75v-.37l-.51-.26zm2.14-3.43V25h-.49l-.27.94h-.59v.59h.6c-.01.37-.02 1.32 0 2.2 0 1.09.74 1.27 1.08 1.27.37 0 .62-.1.78-.17v-.59c0 .05-.11.14-.55.12-.44-.02-.56-.43-.57-.64v-2.19h1.12v-.59h-1.12z" fill="#0E4A86"/><path fill-rule="evenodd" d="M33.3 25l1.41 4.2c.03.11.18.34.5.35V30H33.5v-.45c.16-.02.46-.12.38-.36l-.28-.86h-1.8l-.3.91c-.05.1-.04.3.36.3V30h-1.54v-.45c.13 0 .42-.1.52-.48.1-.39.97-2.87 1.4-4.07h1.06zM32 27.77l.71-2.18.75 2.18H32z" fill="#0E4A86"/><path d="M38.25 26.16v1.06h-.6l-.2-.68h-.18c-.4 0-1.18.4-1.16 1.54.02 1.13.96 1.3 1.33 1.3.3-.01.67-.1.81-.13v.56c-.07.1-.6.19-.9.19-.72 0-2.02-.3-2.02-1.92 0-1.93 1.46-2.07 1.94-2.08.38 0 .82.1.98.16zm3.4 0v1.06h-.62l-.2-.68h-.17c-.4 0-1.18.4-1.16 1.54.03 1.13.96 1.3 1.33 1.3.3-.01.67-.1.82-.13v.56c-.08.1-.62.19-.91.19-.72 0-2.02-.3-2.02-1.92 0-1.93 1.46-2.07 1.94-2.08.39 0 .82.1.99.16zm6.9.01v1h-.56l-.17-.53c0-.04-.18-.14-.44-.13-.32 0-.63.13-.63.46 0 .3.46.48.72.6.38.15 1.19.5 1.2 1.23 0 .92-.9 1.2-1.46 1.2-.44 0-1-.1-1.22-.15V28.8h.6l.23.68h.4c.23-.01.71-.14.73-.54.02-.39-.68-.64-1.08-.8-.32-.12-.84-.46-.84-1.1 0-.74.7-1.06 1.44-1.04.59.02.96.12 1.08.17zm3.4 0v1h-.56l-.17-.53c0-.04-.19-.14-.44-.13-.32 0-.63.13-.63.46 0 .3.46.48.72.6.38.15 1.19.5 1.2 1.23 0 .92-.9 1.2-1.46 1.2-.44 0-1-.1-1.22-.15V28.8h.6l.23.68h.39c.24-.01.72-.14.74-.54.02-.39-.68-.64-1.08-.8-.32-.12-.84-.46-.84-1.1 0-.74.7-1.06 1.44-1.04.59.02.96.12 1.08.17z" fill="#0E4A86"/><path d="M37.33 32.82h-.7v.33l.33.1v1.35l-.33.16V35h1.17v-.24l-.38-.16v-1.14s.08-.1.18-.18c.11-.08.24-.13.24-.13l.12.31h.35v-.64c0-.03-.14-.05-.2-.05-.33 0-.66.25-.78.38v-.33zm9.53 1.08c.05-.36-.11-1.13-.94-1.13-.95 0-1.07.73-1.09 1.12-.02.4.23 1.17 1.21 1.17.22 0 .59-.05.74-.16l-.11-.3c-.08.03-.3.1-.63.1-.4-.02-.74-.3-.7-.8h1.52zm-1.5-.3c0-.17.12-.54.52-.54.39 0 .47.35.46.54h-.98zm3.81.3c.06-.36-.1-1.13-.94-1.13-.94 0-1.07.73-1.08 1.12-.02.4.23 1.17 1.2 1.17.23 0 .6-.05.75-.16l-.12-.3c-.07.03-.3.1-.63.1-.4-.02-.74-.3-.7-.8h1.52zm-1.5-.3c0-.17.12-.54.53-.54.38 0 .47.35.45.54h-.98zm-11.71-1.42v.62h-.4l-.16-.35c-.02-.06-.2-.08-.27-.09-.63.02-1.15.33-1.15 1.2 0 .95.73 1.18 1.02 1.18.3 0 .4-.04.47-.06v-1.12h.8v.28l-.31.14v.97c-.17.04-.6.11-.96.11-.46 0-1.55-.19-1.55-1.5 0-1.32 1.24-1.5 1.68-1.5.35 0 .7.08.83.12z" fill="#517E39"/><path fill-rule="evenodd" d="M38.6 32.98c.13-.08.48-.24.92-.24.54 0 .79.35.79.5v1.4l.32.12V35h-.7v-.3a.9.9 0 01-.68.36c-.43 0-.76-.27-.78-.68-.02-.41.36-.66.78-.68.33-.02.56 0 .64 0 .02-.2-.05-.59-.49-.58-.44.02-.58.13-.63.18l-.16-.3zM39.86 34c.04.2-.02.61-.51.67-.12.01-.36-.04-.38-.3-.01-.28.25-.37.48-.37h.41z" fill="#517E39"/><path d="M41.5 32.8h-.72v.28l.36.16v1.37l-.36.14V35h1.13v-.25l-.3-.14v-1.18c0-.08.22-.32.58-.32.28 0 .35.22.35.32v1.18l-.28.14V35h1.02v-.25l-.27-.14v-1.18c.02-.08.24-.32.57-.32.26 0 .33.18.33.27v1.23l-.27.14V35h1.07v-.25l-.34-.14v-1.37c0-.16-.2-.48-.67-.48-.37 0-.67.21-.77.32a.72.72 0 00-.67-.32c-.38.02-.66.24-.76.35v-.31zm8.7 0h-.72v.32l.37.14v1.34l-.31.14V35h1.05v-.25l-.3-.14v-1.16c.02-.13.25-.32.57-.32.26 0 .36.14.37.21v1.27l-.29.14V35H52v-.25l-.31-.14v-1.27c0-.21-.17-.6-.72-.58a1 1 0 00-.77.37v-.32z" fill="#517E39"/></svg>