<svg xmlns="http://www.w3.org/2000/svg" width="56" height="56"><path fill="#D60029" d="M0 0h56v56H0z"/><path d="M9.66 31c1.31 0 2.23-.86 2.34-2h2c0 2.4-2.2 4-4.37 4C6.46 33 5 30.3 5 27.5 5 24.77 6.34 22 9.63 22 11.9 22 14 23.83 14 26h-2a2.3 2.3 0 00-2.34-2C7.57 24 7 25.84 7 27.48c0 1.6.53 3.52 2.66 3.52zm24.97-4.52l.61.09A3.12 3.12 0 0138 29.66c0 2.15-1.63 3.34-4 3.34-2.03 0-4-1.37-4-3.57h2c0 1.18.95 1.57 2.06 1.57 1 0 1.94-.34 1.94-1.28s-1.2-1.32-2.12-1.4c-1.81-.17-3.88-.94-3.88-3.1 0-1.97 1.8-3.22 4.06-3.22 2.27 0 3.86 1.46 3.94 3.44h-2c0-1-1.1-1.44-2-1.44-.9 0-2 .37-2 1.15 0 1 1.52 1.2 2.63 1.33zM51 33v-2h-5v-9h-2v11h7zm-33-6h2.42c1.01 0 1.58-.55 1.58-1.5s-.69-1.5-1.61-1.5H18v3zm4.09 1.49l1.9 4.51h-2.03l-1.74-4H18v4h-2V22h4.39c2.17 0 3.6 1.39 3.6 3.4 0 1.28-.64 2.62-1.9 3.09zM28 22h-2v11h2V22zm12 0h2v11h-2V22z" fill="#fff"/></svg>