<svg width="56" height="56" viewBox="0 0 56 56" xmlns="http://www.w3.org/2000/svg"><path fill="#F0F3FA" d="M0 0h56v56H0z"/><path d="M6 26.51c-.2.44-.25.9-.18 1.4.1.75.5 1.27 1.15 1.56.78.34 1.77.18 2.56-.15.02 0 .04 0 .04.03l.08 1.36-.01.02c-.68.2-1.37.29-2.05.27-2.18-.06-3.78-1.47-3.57-3.85.13-1.5.88-2.49 2.25-2.94a5.37 5.37 0 0 1 3.34.13c.02 0 .03.02.03.05l-.14 1.4a.01.01 0 0 1-.01.02c-1.14-.68-2.87-.76-3.5.7ZM38.72 26h1.24c.01 0 .02 0 .03.02l.01.03v1.2l-.01.01H38.7v1.72c0 .87.48.9 1.15.76.02 0 .03 0 .04.04l.05 1.1v.02h-.03c-.66.1-1.32.17-1.94-.02-.7-.22-.96-.87-.97-1.58v-2.03H36.03l-.03-.02v-1.22c0-.02 0-.03.02-.03H37l.01-.02v-1.4c0-.03.04-.04.06-.05l1.6-.53h.02a.02.02 0 0 1 0 .01h.01v1.96c0 .02.01.03.03.03ZM12 26.97c0 .05.01.05.04 0 .41-.86.9-1.1 1.82-.92.02 0 .03.02.03.04l-.08 1.34c0 .02-.01.03-.03.03a2.1 2.1 0 0 0-.83-.02c-.7.14-.95.8-.95 1.45v2.08a.03.03 0 0 1-.02.03h-1.66V26.02a.01.01 0 0 1 0-.02h1.66c.02 0 .02.01.02.03v.94ZM22.26 26.97c.38-.72 1.11-1.02 1.92-.96.64.04 1.1.34 1.35.88.01.03.03.03.04 0 .42-.65 1.08-.95 1.97-.88 1.12.08 1.45.88 1.46 1.87V31h-1.67a.01.01 0 0 1-.02-.01v-2.61c0-.4-.11-.94-.62-.97-.73-.04-.98.69-1 1.28l.01 2.3h-.01l-.01.01H24v-.01L24 28.3c0-.57-.32-1.07-.97-.84-.55.19-.65.92-.65 1.45a3144.04 3144.04 0 0 0-.02 2.09h-1.64c-.02 0-.03 0-.03-.03v-4.94c0-.02.01-.03.03-.03h1.48c.02 0 .03.01.03.03v.94c0 .04.01.04.03 0ZM48.5 26.98c.27-.51.69-.83 1.27-.94 1.27-.23 2.22.5 2.23 1.86v3.08l-.01.01-.02.01h-1.56l-.02-.01-.02-.03v-2.5c0-.46-.17-1.04-.72-1.05-.84-.01-1.02.76-1.02 1.46A592.56 592.56 0 0 0 48.6 31h-1.58c-.02 0-.03 0-.03-.03v-4.94c0-.02.01-.03.03-.03h1.42l.02.01v.96c0 .05.02.05.04.01Z" fill="#004B88"/><path fill-rule="evenodd" d="M19.7 28.32c-.12-1.8-1.73-2.53-3.26-2.27a2.37 2.37 0 0 0-2.07 2.5c.01 1.3.86 2.2 2.07 2.4 1.7.29 3.38-.64 3.25-2.63ZM17 27.16c-.85.02-1.06.92-.97 1.63.04.33.15.6.33.78a1 1 0 0 0 1.15.16c.68-.38.7-1.67.26-2.23a.9.9 0 0 0-.77-.34ZM40.74 28.2c-.22 2.2 1.75 3.16 3.52 2.68A2.3 2.3 0 0 0 46 28.94c.2-1.45-.56-2.59-1.92-2.87-1.5-.3-3.16.36-3.33 2.14Zm2.21-.95c-.6.29-.68 1.18-.53 1.78.12.47.4.74.82.8.75.1 1.12-.52 1.15-1.21.03-.63-.17-1.32-.82-1.44a.99.99 0 0 0-.62.07ZM31.7 32.97v-2.74c0-.04 0-.05.03 0 .31.53.93.78 1.54.77 1-.01 1.72-.6 2.03-1.5.2-.59.19-1.7-.09-2.28a2 2 0 0 0-1.7-1.22c-.78-.03-1.53.26-1.92.97-.02.03-.03.03-.03-.01v-.93c0-.02 0-.03-.03-.03h-1.5c-.02 0-.03.01-.03.03v6.94c0 .02.01.03.03.03h1.64c.02 0 .02 0 .02-.03Zm.6-5.56c-.53.26-.68.96-.57 1.5.1.53.55.99 1.11.91.38-.05.65-.26.8-.65.24-.66.12-1.63-.67-1.83a.92.92 0 0 0-.67.07Z" fill="#004B88"/></svg>