<svg width="56" height="56" viewBox="0 0 56 56" xmlns="http://www.w3.org/2000/svg"><path fill="#F0F3FA" d="M0 0h56v56H0z"/><path fill-rule="evenodd" d="M28 44a16 16 0 1 0 0-32 16 16 0 0 0 0 32Zm0-1a15 15 0 1 0 0-30 15 15 0 0 0 0 30Z" fill="#AAA8AA"/><path fill-rule="evenodd" d="M28 39a11 11 0 1 0 0-22 11 11 0 0 0 0 22Zm0-1a10 10 0 1 0 0-20 10 10 0 0 0 0 20Z" fill="#AAA8AA"/><path fill="#AAA8AA" d="m20.56 19.02.89-.67 13.48 17.9-.89.68zM15.96 12.9l.89-.67 2.25 2.99-.89.66zM37.08 40.95l.89-.67 1.79 2.38-.89.67z"/><circle cx="28" cy="28" r="6" fill="#015099"/><path d="M36.24 17.76A13.22 13.22 0 0 0 28.13 15a13.08 13.08 0 0 0-13.17 13c0 7.18 5.9 13 13.17 13 3.41 0 6.53-1.29 8.87-3.4l-2.96-2.92a9 9 0 1 1-.77-13.98l2.97-2.94Z" fill="#B02118"/></svg>