<svg width="56" height="56" viewBox="0 0 56 56" xmlns="http://www.w3.org/2000/svg"><path fill="#F0F3FA" d="M0 0h56v56H0z"/><path d="M30.75 25.73c.54-.52 1.4-.52 1.94 0l10.9 10.66c.54.53.54 1.37 0 1.9l-1.34 1.32a1.4 1.4 0 0 1-1.94 0l-10.9-10.66a1.32 1.32 0 0 1 0-1.9l1.34-1.32Z" fill="#61C6E0"/><path d="m30.75 25.73-1.35 1.32a1.32 1.32 0 0 0 0 1.9l1.35 1.32c.54.52 1.4.52 1.94 0L35 28l8.59-8.4c.53-.52.53-1.36 0-1.89l-1.35-1.32a1.39 1.39 0 0 0-1.94 0l-9.55 9.34Z" fill="#008BAE"/><path d="M27.05 26.6c.53.53 1.37.53 1.9 0L39.6 15.69c.52-.54.52-1.4 0-1.94l-1.32-1.35a1.32 1.32 0 0 0-1.9 0L25.73 23.31c-.52.54-.52 1.4 0 1.94l1.32 1.35Z" fill="#B7D378"/><path d="M30.27 25.25c.52-.54.52-1.4 0-1.94L19.6 12.41a1.32 1.32 0 0 0-1.9 0l-1.32 1.34c-.52.54-.52 1.4 0 1.94l10.66 10.9c.53.54 1.37.54 1.9 0l1.32-1.34Z" fill="#6C972E"/><path d="M30.27 23.31c.52.54.52 1.4 0 1.94l-1.32 1.35c-.07.07-.14.12-.21.17a1.31 1.31 0 0 1-1.69-.17l-1.32-1.35a1.39 1.39 0 0 1 0-1.94L28 21l2.27 2.32Z" fill="#4E9033"/><path d="M28.95 29.4a1.32 1.32 0 0 0-1.9 0L16.4 40.31c-.52.53-.52 1.4 0 1.94l1.32 1.35c.53.53 1.37.53 1.9 0l10.66-10.91c.52-.53.52-1.4 0-1.94l-1.32-1.35Z" fill="#F58057"/><path d="M25.73 30.75c-.52.54-.52 1.4 0 1.94l10.66 10.9c.53.54 1.37.54 1.9 0l1.32-1.34c.52-.54.52-1.4 0-1.94l-10.66-10.9a1.32 1.32 0 0 0-1.9 0l-1.32 1.34Z" fill="#EF5518"/><path d="M28 29c.34 0 .69.13.95.4l1.32 1.35c.52.54.52 1.4 0 1.94L28 35l-2.27-2.32a1.39 1.39 0 0 1 0-1.94l1.32-1.35c.27-.27.61-.4.95-.4Z" fill="#EA3518"/><path d="M26.6 27.05c.53.53.53 1.37 0 1.9L15.69 39.6c-.54.52-1.4.52-1.94 0l-1.35-1.33a1.32 1.32 0 0 1 0-1.89l10.91-10.66c.54-.52 1.4-.52 1.94 0l1.35 1.32Z" fill="#DD2A54"/><path d="M25.25 30.27a1.4 1.4 0 0 1-1.94 0L12.41 19.6a1.32 1.32 0 0 1 0-1.9l1.34-1.32c.54-.52 1.4-.52 1.94 0l10.9 10.66c.54.53.54 1.37 0 1.9l-1.34 1.32Z" fill="#EA6B93"/><path d="m25.24 30.27 1.36-1.32c.53-.53.53-1.37 0-1.9l-1.36-1.32a1.39 1.39 0 0 0-1.93 0L21 28l2.32 2.27c.53.52 1.4.52 1.93 0Z" fill="#DC104A"/></svg>