<svg width="56" height="56" viewBox="0 0 56 56" xmlns="http://www.w3.org/2000/svg"><path fill="#F0F3FA" d="M0 0h56v56H0z"/><path fill-rule="evenodd" d="M36 14.39c.16-.36.07-.62-.25-.8a17.26 17.26 0 0 0-3.32-1.38 16.03 16.03 0 0 0-14.84 2.94 16.79 16.79 0 0 0-5.98 14.87l1.14-.49c-.27-2.97.23-5.75 1.5-8.32a14.94 14.94 0 0 1 20.97-6.52c.35.2.6.1.75-.25l.02-.05ZM11.1 30.14l.03.08-.03.01c.59 3.67 1.67 5.51 3.59 8.5h.02l.03.03c3.34 3.85 7.96 6.2 12.97 6.24 1.59.01 2.97-.12 4.14-.38 2-.45 3.8-1.23 5.4-2.35 2.88-2.01 5-4.84 6.35-8.5.23-.59.12-.99-.17-1.52-.75-1.4-1.8-1.94-3.18-1.59-.47.12-.8.22-.97.3-.34.18-.58.45-.72.83-1.62 4.38-5.23 7.25-9.77 7.61-3 .24-5.74-.6-8.2-2.55a20.95 20.95 0 0 0-.53-.4l1.3-.55a10.13 10.13 0 0 0 8.61 1.8 9.77 9.77 0 0 0 6.55-5.27c.32-.63.49-1.08.48-1.36-.02-.67-.32-1.03-.91-1.07-.45-.02-.73.1-.87.39a11 11 0 0 1-2.45 3.47 7.95 7.95 0 0 1-9.56 1.26L45 25.85l-3.46-8.55-21.4 9.09c1.05-3.43 3.2-5.57 6.45-6.41a8.1 8.1 0 0 1 4.48.36c.43.14.74-.05.92-.56v-.1c.05-.54-.17-.9-.64-1.07-5.59-1.96-11.75.86-13.11 7.56-.06.29-.12.65-.17 1.1l-1.07.46c.06-.72.12-1.22.18-1.52.83-4.1 3.04-6.92 6.62-8.47 2.69-1.16 5.62-1.05 8.8.34.49.22.92.09 1.3-.4a.15.15 0 0 0 .03-.03c.17-.58.03-.98-.43-1.2a13.13 13.13 0 0 0-9.29-1.02c-4.1 1.1-7.24 4.3-8.57 8.5-.45 1.44-.67 3-.64 4.65l-1.8.76v-.03c-.2-4.66 1.22-8.8 4.5-12a14.1 14.1 0 0 1 3.95-2.72 14.16 14.16 0 0 1 11.19-.45c.59.22 1.07.46 1.53.69.29.14.56.28.86.41.58.26.97.08 1.17-.54l.08-.24c.2-.62.01-1.08-.56-1.38-4.96-2.56-10.51-2.84-15.48-.4a16.33 16.33 0 0 0-6.74 6.07 17.41 17.41 0 0 0-2.6 11.39Zm11.54 5.22-.73.3c1.12.81 2.4 1.36 3.85 1.65a9.4 9.4 0 0 0 4.37-.18 9.35 9.35 0 0 0 5.9-4.86c.24-.44.4-.85.47-1.22a.45.45 0 0 0-.06-.34.43.43 0 0 0-.28-.18c-.3-.06-.52.12-.66.4-1.73 3.58-4.96 5.9-8.83 5.74a8.89 8.89 0 0 1-4.03-1.31Zm-3.05 1.3-1.15.48c3 2.74 6.49 3.95 10.49 3.62a13.14 13.14 0 0 0 9.6-5.32 9.1 9.1 0 0 0 1-1.71c.4-.82.9-1.87 1.7-1.71.8.15.87 1.04.69 1.7-.15.53-.47 1.2-.96 1.98a15.1 15.1 0 0 1-12.36 7.28c-4.71.21-8.83-1.43-12.35-4.9l-1.03.43.05.04c3 3.39 6.64 5.33 10.9 5.83a15.7 15.7 0 0 0 13.13-4.65 17.27 17.27 0 0 0 3.83-6.1c.16-.44.03-.77-.2-1.19-.75-1.37-1.83-1.72-3.27-1.05l-.1.04c-.26.12-.37.17-.5.52a11.85 11.85 0 0 1-9.84 7.94 12.06 12.06 0 0 1-9.63-3.24Zm-2.81 1.19 1.13-.48a14.22 14.22 0 0 0 15.36 2.85 13.6 13.6 0 0 0 7.13-7c.13-.29.34-.5.63-.66a.25.25 0 0 1 .29.03l.06.08c.19.41.09.93-.1 1.33a14.43 14.43 0 0 1-7.53 7.28 15.24 15.24 0 0 1-16.97-3.43Zm7.73-17.66c-2.5 1.27-4.15 3.42-4.92 6.44l-1 .42.02-.2c.04-.24.07-.48.12-.7 1.37-6.27 7.27-9.06 12.55-7 .14.05.23.18.26.37l.01.07v.12a.24.24 0 0 1-.07.1.22.22 0 0 1-.1.06.2.2 0 0 1-.1 0 16.37 16.37 0 0 0-2.4-.52 7.69 7.69 0 0 0-4.37.84Zm-9.04 8.19 1.05-.45a12.06 12.06 0 0 1 2.7-7.37 11.17 11.17 0 0 1 13.54-2.93c.23.11.47.06.72-.14l.02-.02c.08-.28.02-.47-.19-.57-3.86-1.89-8.2-1.95-11.91.26a11.18 11.18 0 0 0-3.38 3.12 13.67 13.67 0 0 0-2.55 8.1Zm25.32-2.86.53-.22c.18-.08.26-.16.22-.24-.02-.06-.08-.11-.17-.17l-2.82-1.67.78-2.88c.03-.11.03-.2.01-.24-.03-.09-.14-.09-.33-.01l-.39.16c-.18.08-.3.16-.37.23a.96.96 0 0 0-.16.4l-.46 1.88-1.63-1a.94.94 0 0 0-.38-.16c-.1 0-.24.03-.43.11l-.5.22c-.2.08-.27.16-.23.24.02.05.08.1.18.17l2.6 1.53L36.4 27c-.03.12-.04.2-.02.25.04.08.15.09.33 0l.38-.15c.18-.08.3-.15.37-.23a1 1 0 0 0 .17-.4l.52-2.14L40 25.47c.16.1.29.16.38.16.1.01.24-.03.42-.1Zm-5 1.65v.02c.06.15.07.27.04.35-.04.08-.14.15-.3.22l-2.9 1.23c-.16.07-.28.1-.37.06-.08-.03-.15-.13-.22-.28l-1.8-4.48c-.07-.15-.08-.27-.05-.35.04-.09.14-.16.31-.23l2.85-1.22c.16-.06.28-.08.37-.05.08.03.15.12.2.27l.02.02c.06.16.07.27.04.35-.04.08-.14.16-.3.23l-2.14.9.54 1.33 1.9-.8c.16-.07.28-.09.36-.06.07.03.15.12.2.27l.02.02c.06.15.07.27.03.35-.03.08-.13.15-.29.22l-1.9.8.63 1.54 2.18-.93c.16-.07.28-.08.36-.05.08.03.15.11.21.27Zm-8.75-2-1.55.67c-.17.07-.27.15-.31.23-.04.08-.03.2.04.35l1.81 4.48c.06.16.14.25.22.28.08.03.2.01.38-.06l1.62-.7a3.22 3.22 0 0 0 1.07-.75c.14-.16.25-.33.33-.5a1.56 1.56 0 0 0 0-1.2 1.22 1.22 0 0 0-.99-.76 1.4 1.4 0 0 0-.74.07.87.87 0 0 0 .25-.26 1.68 1.68 0 0 0 .3-.83c0-.16-.02-.31-.07-.44a1.21 1.21 0 0 0-.75-.7 2.43 2.43 0 0 0-1.6.13Zm.03.94c.62-.27 1.02-.2 1.18.2.05.12.06.22.06.32-.01.1-.04.2-.08.28a1.39 1.39 0 0 1-.43.42c-.08.06-.18.1-.28.15l-.44.2-.55-1.34.54-.23Zm.31 2.33.46-.2c.88-.35 1.42-.27 1.63.25.06.13.07.26.06.4a.75.75 0 0 1-.15.34 1.7 1.7 0 0 1-.63.47l-.73.31-.64-1.57Zm-3.28 1.85-1.17-2.9c-.06-.15-.08-.27-.04-.35.04-.08.14-.16.3-.23l.22-.1c.17-.06.29-.08.37-.05.09.03.16.12.22.28l1.22 3c.13.33.2.64.2.94-.01.3-.08.57-.22.81-.13.25-.32.47-.57.67-.24.2-.54.38-.9.53-.47.2-.9.3-1.3.3s-.76-.1-1.07-.32a2.05 2.05 0 0 1-.72-.95l-1.23-3.03c-.06-.16-.07-.27-.03-.36.03-.08.13-.16.3-.23l.29-.12c.16-.07.29-.09.37-.06.09.03.16.13.22.28l1.17 2.87c.16.41.38.7.67.84.28.14.62.13 1.02-.04s.65-.4.76-.72c.1-.3.09-.66-.08-1.06Zm-4.6 4.08c.27-.34.46-.72.55-1.17.03-.1.03-.18 0-.24a.18.18 0 0 0-.1-.1.63.63 0 0 0-.2-.03h-.03c-.11 0-.2 0-.26.03a.28.28 0 0 0-.12.1.93.93 0 0 0-.1.2c-.2.52-.56.9-1.08 1.12-.28.11-.55.17-.82.16-.27-.01-.5-.08-.71-.2-.21-.12-.4-.27-.56-.47a2.7 2.7 0 0 1-.56-1.27 2.07 2.07 0 0 1 .15-1.16c.08-.18.2-.34.37-.5.16-.14.36-.26.59-.36.46-.2.93-.2 1.4 0l.21.08c.06 0 .11 0 .17-.02a.69.69 0 0 0 .2-.17l.02-.02c.13-.14.18-.25.14-.34a.44.44 0 0 0-.17-.18 2.37 2.37 0 0 0-1.13-.38c-.41-.04-.83.04-1.26.22-.43.18-.8.42-1.1.72a2.82 2.82 0 0 0-.62 3.24c.16.39.37.72.64 1a2.66 2.66 0 0 0 2.03.81 3.41 3.41 0 0 0 2.34-1.07Z" fill="#B05B30"/></svg>