<svg width="56" height="56" viewBox="0 0 56 56" xmlns="http://www.w3.org/2000/svg"><path fill="#F0F3FA" d="M0 0h56v56H0z"/><path fill-rule="evenodd" d="M23.4 23.31c-.2-.19-.34-.34-.45-.46a.97.97 0 0 1-.27-.8c.05-.38-.06-.43-.3-.14l-.12.17c-.03.07-.09.08-.15.05-.06-.02-.08-.07-.08-.14 0-.13.08-.26.16-.38.09-.14.17-.27.14-.38l-.08-.26c-.1-.26-.18-.52-.1-.89.01-.08.06-.1.14-.08l.33.08h.09a.14.14 0 0 0 .07-.06c.24-.4.43-.7.72-.91.28-.22.75-.48 1.4-.79.5-.23.66-.6.49-1.13-.02-.06 0-.12.05-.16a.16.16 0 0 1 .12-.03 17.81 17.81 0 0 1 1.2 1.12c.07.07.28.24.64.5.26.2.46.46.59.81.06.16.18.28.3.4.15.16.3.31.34.55.12.64.06 1.26-.16 1.87-.03.07 0 .1.07.1.32-.06.63-.16.93-.32a.4.4 0 0 0 .16-.15.36.36 0 0 0 .05-.21l-.08-1.2c-.01-.13-.16-.21-.28-.28a1.83 1.83 0 0 1-.07-.04c-.62-.39-.43-1.4.44-1.22.07.01.14.05.18.1.26.28.52.46.91.46.85 0 1.63.26 2.35.77a.2.2 0 0 0 .13.03l1.03-.06c.06 0 .11-.03.16-.1.13-.13.21-.23.26-.3.28-.38.75-.37 1.15-.18.12.06.16.15.13.28-.17.56-.6.8-1.28.7-.23-.03-.33.07-.3.3.05.32.03.7-.04 1.16l-.3 1.92c-.04.32-.38.92-1.02 1.8-.08.1.05.22.17.22.06 0 .13.03.18.08.27.32.27.6 0 .87-.6.56-1.48-.07-1.53-.77-.01-.29.18-.68.36-1.02l.14-.3a.13.13 0 0 0-.06-.17c-.45-.2-.76-.43-.95-.68-.13-.17-.26-.2-.4-.1l-.68.48c-.2.14-.23.3-.1.45.37.5.24 1.9.1 2.3l-.28.74c-.08.23-.12.48-.12.75 0 .28-.01.74-.06 1.38-.01.2.07.38.15.56l.1.24c.3.92-.02 1.51-.72 2.08-.23.2-.4.42-.48.68a.23.23 0 0 1-.13.14c-.07.03-.16.07-.27.1-.35.13-.86.3-.9.55-.1.45-.24.75-.64 1.05-.62.47-.92.83-.99 1.58-.04.49.08.92.37 1.3.14.2.07.48-.14.58-.24.13-.55.13-.94.02a.8.8 0 0 1-.44-.36c-.24-.38-.5-.66-.77-.86-.66-.47-.41-.82-.15-1.2.12-.17.24-.34.28-.53.14-.65.24-1.26.29-1.81.02-.22-.04-.25-.19-.08l-.63.72c-.19.2-.31.18-.38-.1l-.48-2.02a.33.33 0 0 0-.23-.24l-.99-.26a.12.12 0 0 1-.05-.2l2.73-2.51c.04-.03.02-.1-.03-.1a3.62 3.62 0 0 0-1.94.32.27.27 0 0 0-.13.12l-.48.8c-.07.12-.24.13-.32.03-.56-.67-.2-1.48.18-2.25.22-.46.04-.79-.25-1.23a3.2 3.2 0 0 1-.48-1.2c0-.06.06-.11.12-.09l.7.27c.29.13.6.16.91.2.25.02.5.05.73.13.43.13.83.14 1.31.15l.63.03c.48.03.54-.1.17-.42a3.26 3.26 0 0 1-.75-1.05c-.04-.07-.08-.07-.12 0-.2.29-.65.83-1.08.76-.66-.1-1.27-.23-1.83-.35-.5-.12-.97-.33-1.4-.64-.24-.18-.21-.28.1-.3a4.4 4.4 0 0 0 2.44-.93c.16-.11.45-.3.68-.33.06 0 .07-.03.02-.08Zm1.06-.68a.54.54 0 0 0-.36.04c-.02.02-.02.06 0 .07.5.21.74.41.75.6 0 .2-.1.27-.29.21a3.17 3.17 0 0 1-1.34-.71c-.38-.37-.35-.59-.28-1.1l.02-.12c.01-.11-.07-.16-.16-.21-.08-.05-.16-.1-.17-.19-.02-.18.03-.3.16-.36.17-.08.15-.35.12-.5a.28.28 0 0 1 .03-.2c.34-.58.65-.95.93-1.09.76-.38 1.24-.64 1.46-.77a.14.14 0 0 1 .18.01c.07.06.14.08.2.06a.1.1 0 0 0 .07-.1.1.1 0 0 0-.01-.04c-.1-.19-.15-.35-.15-.48 0-.11.05-.13.13-.07.57.44.43.69.23 1.05l-.19.38c-.02.07-.07.09-.14.05-.41-.25-.94-.26-1.27.1-.08.08 0 .16.07.21.05.04.09.03.12-.02l.08-.14a.2.2 0 0 1 .17-.1c.23-.02.45.04.66.18.05.04.08.1.06.16-.07.29-.1.52-.1.7.01.12-.02.12-.07.02a1.64 1.64 0 0 1-.15-.44.14.14 0 0 0-.05-.07.14.14 0 0 0-.09-.03h-.4a.22.22 0 0 0-.2.1c-.22.34-.37.74-.43 1.2-.03.19.09.36.27.42l.9.28c.24.09.27.26.08.5-.03.05-.03.09 0 .12.04.04.1.08.13.02.04-.08.1-.13.15-.16.08-.03.18.01.21.1.14.36.04.64-.3.84a.38.38 0 0 1-.53-.13c-.07-.12-.04-.17.1-.17h.33c.07 0 .1-.04.09-.1-.04-.18-.13-.27-.28-.27a.17.17 0 0 1-.16-.1c-.13-.29-.27-.5-.42-.66-.08-.07-.2.08-.15.15l.46.78c.04.07-.01.17-.1.17a.23.23 0 0 1-.21-.1.27.27 0 0 0-.16-.1Zm1.9-3.16c-.07-.02-.08-.06-.04-.12a4 4 0 0 0 .21-.29c.2-.4.1-.48-.28-.25-.21.13-.25.3-.13.53.03.05.03.1 0 .16-.24.43-.37.84-.39 1.24 0 .08-.05.12-.13.1l-.33-.1c-.15-.03-.21-.12-.2-.27.02-.16 0-.3-.03-.42-.06-.15-.26-.2-.37-.07-.29.33-.4.72-.36 1.19 0 .03.01.06.04.09l.08.05.94.25c.05.01.1.04.14.09l.5.51c.05.06.08.13.08.2v.29c0 .21.22.37.43.31.65-.2 1.19-.43 1.6-.72.22-.14.25-.37.25-.6 0-.2-.08-.24-.24-.13-.18.13-.4.23-.65.3-.1.03-.21-.17-.1-.22l.26-.13c.15-.09.27-.23.38-.37.09-.1.17-.2.27-.27a.44.44 0 0 0 .1-.57c-.11-.2-.29-.39-.52-.56-.06-.05-.1-.04-.14.02a.71.71 0 0 1-.56.39.13.13 0 0 1-.14-.08.6.6 0 0 1-.03-.25c0-.08.03-.14.08-.18.3-.28.31-.54.02-.8a.19.19 0 0 0-.3.1l-.14.5c-.04.14-.17.11-.28.08h-.02Zm3.54.02c.22.1.69.19 1.4.26.69.06 1.33.36 1.93.88.07.05.06.1-.02.13l-.04.02a.4.4 0 0 1-.2.07.24.24 0 0 1-.1-.04 4.93 4.93 0 0 0-2.97-.71c-.52.03-.76-.19-.78-.67-.01-.2.22-.33.4-.22l.18.14c.07.07.14.11.2.14Zm5.81.38c.07.16-.08.38-.34.49-.26.11-.53.07-.6-.09-.07-.16.08-.38.34-.49.26-.11.53-.07.6.09Zm-5.86.57c0-.08.08-.1.15-.1.67 0 1.32.06 1.8.17.48.11.75.27.75.42V21c0 .43-1.05.5-1.47.54h-.1c-.32.04-.65.05-.99.05-.06 0-.14-.03-.14-.1v-1.04Zm4.34 1.75.04-1.08c0-.14-.15-.23-.27-.17l-.62.31a.18.18 0 0 0-.1.18l.1.94c.01.12.13.2.24.15l.49-.16a.18.18 0 0 0 .12-.17Zm-2.7-.1 1.27-.66a.2.2 0 0 1 .28.15l.08.9c0 .08-.04.15-.1.19l-1.28.64a.2.2 0 0 1-.27-.15l-.08-.9c-.01-.07.03-.14.1-.18Zm-2.83 2.78c.03-.25.1-.26.2-.03l.03.18c0 .06.07.11.13.1.23 0 .43-.1.58-.28.36-.43.64-.72.83-.87.1-.07.12-.13.16-.23l.03-.09c.03-.06.08-.1.14-.14.66-.33.48-.99.1-1.5a.2.2 0 0 0-.22-.07l-.65.16a.2.2 0 0 0-.15.25c.1.26.07.43-.08.52-.22.13-.54.28-.96.43-.21.08-.53.33-.95.77a.17.17 0 0 1-.17.04c-.7-.17-1.15-.3-1.37-.36a1 1 0 0 0-.99.23c-.57.5-.65 1.05-.22 1.67.1.15.24.29.4.4.14.1.31.13.53.12h.1c.45-.03 1.62-.1 2-.42.32-.27.5-.56.53-.88Zm-.82-1.84.1-.1c.15-.12.28-.24.46-.3.42-.12.74-.23.98-.32.14-.06.21 0 .21.14v.1a.3.3 0 0 1-.06.18c-.05.05-.1.1-.17.11-.57.16-1.1.48-1.56.96a.2.2 0 0 1-.17.07 2.9 2.9 0 0 1-.66-.16 4.51 4.51 0 0 0-1.3-.25.11.11 0 0 1-.05-.1l.01-.05.04-.06a.2.2 0 0 1 .09-.08.2.2 0 0 1 .12-.02c.54.08 1 .01 1.36-.19a.58.58 0 0 1 .22-.07c.11-.01.19.03.24.11.04.07.08.08.14.03Zm5.42 3.4a.4.4 0 0 0-.3-.01.14.14 0 0 1-.16-.07.55.55 0 0 1 .02-.6 7.4 7.4 0 0 0 1.02-1.72l.2-1.25c0-.1-.03-.13-.13-.09l-.24.12c-.07.03-.1.08-.1.16.03.48-.07.88-.32 1.21-.63.87-1 1.43-1.1 1.7-.27.7.43 1.28 1.1.96a.23.23 0 0 0 .01-.4Zm-.01-2.63-.59.77a.16.16 0 0 1-.22.03l-.93-.71a.16.16 0 0 1 .03-.27l1.63-.76c.12-.05.25.05.23.17l-.12.7-.03.07Zm-11.07 1.35a.8.8 0 0 1 .32-.19c.1-.02.11 0 .06.08a.62.62 0 0 1-.32.22c-.09.03-.09.06 0 .1.26.1.5.08.72-.07.2-.13.18.2.16.29-.01.07.01.11.08.14.17.05.3.04.4-.03.32-.24.55-.45.69-.63.3-.39.22-.54-.25-.45h-.35c-.16-.02-.3.03-.44.08-.1.03-.2.07-.3.08-.25.03-.47-.5-.2-.43.39.09.63.11.74.08.3-.1.59-.1.86 0 .06.02.11 0 .15-.04l.42-.54a.07.07 0 0 0 .02-.05c0-.06-.08-.08-.12-.05-.3.27-.63.26-.99-.04-.18-.15-.37-.18-.57-.07-.18.1-.36.23-.55.36-.24.17-.48.34-.75.45-.5.2-.82.32-.96.35-.59.13-.59.26 0 .38.26.05.59.07 1 .05.07 0 .13-.02.18-.07Zm4.16 2.13a.99.99 0 0 0-.27-.36c-.45-.3-.43-.48.07-.52.46-.04 1.02-.1 1.68-.22.18-.03.49-.25.91-.65.05-.05.1-.08.18-.1.35-.1.65-.25.9-.41.14-.1.23-.07.27.1.19.77.15 1.53-.12 2.25-.29.78-1.2 1.16-2.06 1.06-.47-.05-.9-.13-1.28-.23a.33.33 0 0 1-.25-.32v-.34a1 1 0 0 0-.03-.26Zm-2.37.37c-.08 0-.14-.18-.05-.19a6.63 6.63 0 0 1 1.75.04c.08.02.16.07.25.16.06.05.1.05.11-.03.06-.22.08-.4-.16-.53-.48-.26-1-.28-1.54-.3a5.08 5.08 0 0 1-1.14-.11c-.35-.1-.7-.15-1.08-.18-.14 0-.3-.04-.49-.11a6.64 6.64 0 0 0-.48-.16c-.07-.02-.1 0-.07.07.05.23.2.46.35.7.16.24.31.49.37.71.06.28.03.55-.1.8-.23.46-.66 1.54-.3 1.82a.1.1 0 0 0 .03.02.1.1 0 0 0 .12-.05l.07-.17c.12-.3.26-.61.59-.7l.03-.01c.66-.19 1.3-.36 2-.34.45 0 .86-.05 1.09-.4.05-.09-.01-.2-.11-.2h-1.15c-.07 0-.08-.15 0-.17.43-.08.91-.1 1.44-.03.26.03.77-.33.36-.5-.4-.18-.9-.17-1.38-.15h-.51Zm3.98 1.05c.14.02.4-.01.76-.09.08-.02.11.02.1.1a.27.27 0 0 1-.14.17c-.26.16-.6.22-1 .17-.66-.07-1.3-.1-1.92-.1-.16 0-.2-.07-.13-.21a.72.72 0 0 1 .19-.22c.17-.14.34-.18.5-.15.78.19 1.32.3 1.64.33Zm-5.96 3.37.73.2c.07.01.12.06.14.12.25.66.41 1.27.5 1.86.05.39.18.41.39.07l1.02-1.74a.3.3 0 0 0 .04-.19.78.78 0 0 1 .2-.61l.03-.04c.44-.53 1.13-1.38 1.73-1.53.91-.23 1.55-.41 1.91-.54.6-.22.91-.64.94-1.26 0-.09-.03-.1-.1-.04l-.27.27c-.34.37-.65.7-1.36.65-.98-.06-1.77-.09-2.36-.08a1.88 1.88 0 0 0-.85.22c-1 .82-1.91 1.65-2.73 2.5-.04.04-.02.12.04.14Zm6.81-1.21c-.7.12-1.4.27-2.02.63-.54.3-1.1.59-1.66.86-.14.06-.18.03-.12-.11.21-.49.66-.76 1.24-1.12a9.2 9.2 0 0 1 1.73-.78l.5-.2c.41-.15.68-.34.98-.65.13-.13.19-.1.17.07a1.6 1.6 0 0 1-.82 1.3Zm.17.35-.04 1.32c-.01.22.29.33.42.15l.53-.69c.14-.19.07-.59.02-.9a3.3 3.3 0 0 1-.04-.3c-.02-.2-.27-.29-.4-.15l-.14.12c-.16.13-.35.29-.35.45Zm-3.38 2.48-.18-.74a.33.33 0 0 0-.09-.14.41.41 0 0 1-.08-.1c-.03-.08-.01-.13.06-.17l1.5-.82a5.7 5.7 0 0 1 1.78-.58c.07-.02.1.01.11.09.02 1.1 0 1.73-.05 1.88-.18.49-.5.76-.99.83a.33.33 0 0 0-.27.26c-.07.37-.16.73-.5.98l-.16.13c-.47.34-.9.66-.97 1.26-.03.3-.04.67 0 1.1.01.27.15.47.28.65l.08.11c.1.16-.01.37-.2.37-.36 0-.63-.05-.81-.16a.32.32 0 0 1-.13-.15l-.03-.05c-.07-.16-.2-.47-.36-.58a5.32 5.32 0 0 1-.7-.59.27.27 0 0 1 0-.39c.29-.28.51-.59.56-1.04a4.8 4.8 0 0 1 .35-1.47.35.35 0 0 1 .15-.16l.57-.33c.06-.03.1-.11.08-.19Zm-.61-.86c-.25.18-.34.4-.28.63a.5.5 0 0 1-.1.47c-.07.09.06.12.13.14.06.02.12 0 .15-.06.16-.27.26-.5.33-.67a.56.56 0 0 0-.07-.47c-.04-.07-.1-.09-.16-.04Z" fill="#040405"/><path d="M27.44 20.56c.1-.08.16-.13.2-.14.05-.02.09-.03.11 0 .03 0 .04.03.05.07a.1.1 0 0 1 0 .06c0 .03-.02.04-.04.06-.17.14-.3.28-.39.43-.04.07-.08.07-.12 0-.1-.23-.17-.39-.2-.49-.08-.22-.01-.26.2-.13l.06.1c.03.08.07.1.13.04ZM26.04 20.76c-.07.2.01.42.2.48.18.07.4-.04.47-.24.08-.2-.01-.42-.2-.48-.18-.07-.4.04-.47.24Z" fill="#040405"/><path fill-rule="evenodd" d="M28 41a13 13 0 1 0 0-26 13 13 0 0 0 0 26Zm0-1a12 12 0 1 0 0-24 12 12 0 0 0 0 24Z" fill="#040405"/><path fill-rule="evenodd" d="M28 45a17 17 0 1 0 0-34 17 17 0 0 0 0 34Zm0-3a14 14 0 1 0 0-28 14 14 0 0 0 0 28Z" fill="url(#a)"/><defs><linearGradient id="a" x1="39.16" y1="15.15" x2="16.41" y2="41.52" gradientUnits="userSpaceOnUse"><stop stop-color="#D1922F"/><stop offset=".24" stop-color="#F4B918"/><stop offset=".53" stop-color="#C88F26"/><stop offset=".68" stop-color="#F5AB1F"/><stop offset="1" stop-color="#CF9130"/></linearGradient></defs></svg>