<svg xmlns="http://www.w3.org/2000/svg" width="56" height="56"><path fill="#F0F3FA" d="M0 0h56v56H0z"/><path d="M10 33.35L12.36 29H16v3.14h12v-.35H17v-.35h5.11a7.6 7.6 0 01-.14-.24H28v-.36H17v-.35h4.62a7.5 7.5 0 01-.12-.3H28v-.34H17v-.35h4.27l-.07-.29H28v-.35H17v-.35h4.07l-.04-.3H28v-.35H17v-.35h4V27.3h7v-.35H17v-.35h4.05l.05-.34H28v-.35H17v-.35h4.25l.09-.3H28v-.35H17v-.35h4.6l.11-.26h6.3v-.35H17v-.35h5.1l.2-.33H28v-.36H17v-.35h5.85l.4-.42H28v-.35h-4.36A7.5 7.5 0 0135.85 26H29v3h6.85A7.5 7.5 0 0123 32.6v7.8l-13-7.05zm16.51 8.95l6.83 3.7 2-3.7h-8.83zm9.03-.37L42.56 29h-6.58l-.44 12.93zM37.42 18h-19.1l4.34-8 14.76 8zM43 28.19v-7.17l3 1.63-3 5.54z" fill="#982871"/></svg>