<svg width="56" height="56" viewBox="0 0 56 56" xmlns="http://www.w3.org/2000/svg"><path fill="#F0F3FA" d="M0 0h56v56H0z"/><path d="M27.72 12C26.26 13.8 24 17.04 24 20.25c0 3.77 2.64 6.75 3.83 7.75.14-2.64 1.18-8.74 4.21-11 .95.8 2.92 7.24 3.8 10.06.6-2.54 2.2-8.4 3.82-10 0 1.08 1.62 3.91 3.26 6.53a6.76 6.76 0 0 1 1.07 3.47L44 28a16 16 0 1 1-16.28-16Z" fill="url(#a)"/><defs><linearGradient id="a" x1="39.83" y1="17.64" x2="20.41" y2="44" gradientUnits="userSpaceOnUse"><stop stop-color="#F2EA4F"/><stop offset=".92" stop-color="#65B559"/></linearGradient></defs></svg>