<svg width="56" height="56" viewBox="0 0 56 56" xmlns="http://www.w3.org/2000/svg"><path fill="#F0F3FA" d="M0 0h56v56H0z"/><path d="M36.58 16.99a.5.5 0 0 0 .49-.5.5.5 0 0 0-.49-.49.5.5 0 0 0-.49.5c0 .27.22.49.49.49ZM40.29 17.43c.3 0 .54-.24.54-.55 0-.3-.24-.54-.54-.54-.3 0-.54.24-.54.54 0 .3.24.55.54.55ZM32.93 17.74c.26 0 .46-.2.46-.46s-.2-.47-.46-.47-.46.21-.46.47c0 .25.2.46.46.46ZM43.7 19.02a.6.6 0 0 0 .6-.6.6.6 0 0 0-.6-.61.6.6 0 0 0-.6.6c0 .34.27.6.6.6ZM29.7 19.59c.24 0 .43-.2.43-.43 0-.24-.2-.43-.43-.43-.23 0-.42.19-.42.43s.19.43.42.43ZM46.47 21.59c.36 0 .65-.3.65-.66 0-.36-.3-.66-.65-.66-.36 0-.65.3-.65.66 0 .36.3.66.65.66Z" fill="#0097D5"/><path d="M10.6 23.97a1.89 1.89 0 0 0-2.5-.43c-.44.28-.74.77-.8 1.27-.08.78.38 1.52 1.12 1.82a1.92 1.92 0 0 0 2.22-.65h.04l.88.79a.06.06 0 0 1 0 .09 3.2 3.2 0 0 1-2.3 1.13c-1.2.1-2.4-.57-2.93-1.63a2.94 2.94 0 0 1-.25-2.04A3.05 3.05 0 0 1 9.04 22c.94-.02 1.89.38 2.49 1.09a.06.06 0 0 1 0 .08l-.89.8a.03.03 0 0 1-.02.01.03.03 0 0 1-.02 0ZM15.38 24.33l1.51-2.32.02-.01h1.43a.02.02 0 0 1 .02.01v.03l-2.37 3.49.01.01v2.44l-.02.01-.01.01h-1.24a.02.02 0 0 1-.02-.02v-2.46l-2.36-3.49a.02.02 0 0 1 0-.03h1.48l.01.01 1.51 2.32a.02.02 0 0 0 .02.01h.01ZM24.3 23.3v3.42c0 .01 0 .02.02.03l.02.01h2.62l.03.01v.03l.01 1.16-.01.03-.03.01h-3.92l-.03-.01-.01-.03v-5.92l.01-.03.03-.01h3.92l.03.01v1.22l-.03.02h-2.62a.04.04 0 0 0-.02.01.04.04 0 0 0-.02.03ZM32.94 25.73c.04.03.06.03.06-.03v-3.67l.03-.03h1.15c.02 0 .03.02.04.03l.02.04v5.9a.03.03 0 0 1-.04.03h-1.03a.13.13 0 0 1-.1-.06 3768.3 3768.3 0 0 1-2.77-3.81c0-.03-.02-.03-.03 0a1112.3 1112.3 0 0 1-.02 3.84c0 .02-.02.03-.04.03h-1.15c-.04 0-.06-.02-.06-.06v-5.88c0-.08.07-.06.12-.06h1.06l.04.02.03.03c.89 1.2 1.79 2.41 2.66 3.63l.03.05ZM37.84 23.25H36.2l-.12.01a.05.05 0 0 1-.05 0l-.02-.02v-.03L36 22.06c0-.06.12-.06.17-.06h4.8l.02.03.01.03v1.18l-.03.01h-1.82l-.02.01-.01.03v4.67c0 .03-.02.04-.04.04H37.9c-.02 0-.03-.01-.03-.03v-4.71h-.03ZM20.97 22h-1.21a.03.03 0 0 0-.03.03v5.94c0 .02.01.03.03.03h1.21c.02 0 .03-.01.03-.03v-5.94a.03.03 0 0 0-.03-.03Z" fill="#393B41"/><path d="M48.34 24.96a.77.77 0 0 0 0-1.55.77.77 0 0 0-.77.78c0 .43.34.77.77.77Z" fill="#0097D5"/><path d="M26.02 25.83c.46 0 .83-.38.83-.85a.84.84 0 0 0-.83-.86.84.84 0 0 0-.83.86c0 .47.37.85.83.85Z" fill="#393B41"/><path d="M49.11 28.76c.5 0 .89-.4.89-.9 0-.49-.4-.89-.89-.89a.9.9 0 0 0-.89.9c0 .5.4.9.9.9ZM48.73 32.38a.77.77 0 0 0 0-1.55.77.77 0 0 0-.77.78c0 .43.34.77.77.77ZM32.33 31.58v2.6l-.02.01h-.6V31.03c0-.02 0-.03.02-.03l1.64.01c.29.01.63.07.9.17.94.34 1.27 1.11 1.22 2.03-.07 1.15-1.01 1.78-2.23 1.79a121.84 121.84 0 0 1-1.56-.02v-.49a67.12 67.12 0 0 1 1.46-.02c.76 0 1.47-.3 1.62-1.04.08-.37.06-.72-.07-1.05-.35-.93-1.49-.86-2.34-.84-.03 0-.04.01-.04.04ZM37.02 34.48h2.21l.01.01v.49a.02.02 0 0 1 0 .01.02.02 0 0 1-.02.01h-2.86V31h.02l.6-.01h.01v3.46l.01.02h.02ZM41.6 33.6l.28.43a.02.02 0 0 0 .03 0L43.25 32a.02.02 0 0 1 .03 0v.01l.14 2.96V35l.02.01h.6v-.02l-.2-3.96V31l-.01-.01h-.57l-.01.01-1.64 2.58a.02.02 0 0 0 0 .02ZM40.41 35l.15-2.96c0-.02 0-.02.02 0 .27.42.54.85.84 1.29a118.45 118.45 0 0 0 .33-.54l-1.11-1.74c-.03-.04-.06-.04-.1-.04h-.46s-.03 0-.05.02h-.01v.02l-.2 3.95h.59ZM26.08 33.17c.2 0 .35-.16.35-.36 0-.2-.16-.35-.35-.35a.35.35 0 0 0 0 .7ZM47.2 35.7a.65.65 0 1 0 0-1.31c-.35 0-.64.3-.64.66 0 .36.29.65.65.65ZM27.95 36.45c.2 0 .37-.17.37-.38 0-.2-.17-.38-.37-.38-.2 0-.38.17-.38.38 0 .2.17.38.38.38ZM44.71 38.45a.6.6 0 0 0 .6-.6.6.6 0 0 0-.6-.61.6.6 0 0 0-.6.6c0 .34.27.6.6.6ZM30.72 39.02c.23 0 .43-.2.43-.43 0-.24-.2-.43-.43-.43-.24 0-.43.19-.43.43 0 .23.2.43.43.43ZM41.49 40.27c.3 0 .54-.24.54-.55 0-.3-.24-.54-.54-.54-.3 0-.55.24-.55.54 0 .3.24.55.55.55ZM34.13 40.58c.25 0 .46-.2.46-.46s-.2-.47-.46-.47-.47.2-.47.47c0 .25.21.46.47.46ZM37.84 41a.5.5 0 0 0 .49-.5.5.5 0 0 0-.5-.49.5.5 0 0 0-.48.5c0 .27.22.49.49.49Z" fill="#0097D5"/></svg>