<svg width="56" height="56" xmlns="http://www.w3.org/2000/svg"><path fill="#F0F3FA" d="M0 0h56v56H0z"/><path d="M32.054 37.275c-.228-.245-.569-.273-.892-.273-.341 0-.659.05-1.093.339.543-1.334 1.372-3.31 1.38-3.33l.043-.089-.1.01c-.004 0-.523.053-1.57.296l-.03.007-.076.207-2.152 5.685s-.16.34-.637.613c-.249.142-.389.16-.472.171a.074.074 0 01-.092-.087l.24-.648c.529-1.46.857-2.34 1.004-2.69L27.8 37h-1.44s-.051.108-.06.124c-.167-.098-.433-.124-.602-.124-.32 0-.692.117-1.256.504a6.727 6.727 0 00-1.483 1.388c-.505.658-.761 1.317-.761 1.957 0 .295.07.55.207.762.113.177.338.389.76.389.549 0 1.079-.201 1.578-.587a.665.665 0 00.28.364c.204.145.493.216.61.222.115.005.544-.015.924-.208a1.76 1.76 0 00.703-.648c.093.223.216.412.369.561.199.197.45.296.744.296.825 0 1.69-.401 2.573-1.19.952-.851 1.436-1.7 1.436-2.669 0-.338-.11-.629-.327-.866zm-1.952 2.846c-.562.824-.748.873-.946.888a.338.338 0 01-.262-.082.222.222 0 01-.074-.185s.013-.107.023-.15c.012-.042.167-.581.423-1.152.257-.572.36-.717.556-.946.33-.384.695-.544.877-.444.358.195-.168 1.44-.597 2.071zm-6.24.797c-.295-.141-.064-.775.445-1.682.415-.74.828-1.112 1.219-1.112.048 0 .103.01.17.085.063.07.092.136.092.209 0 .203-.11.617-.637 1.427-.463.712-1.047 1.188-1.288 1.073zm17.851-3.592c-.197-.208-.476-.324-.828-.324-.266 0-.593.127-.874.325.032-.09.103-.325.103-.325l-1.5-.002-1.169 3.483a2.55 2.55 0 01-.45.374c-.188.108-.456.208-.682.118 0 0-.109-.055-.084-.12l.425-1.236a44.81 44.81 0 01.79-2.17l.181-.453h-1.519l-.083.214a20.55 20.55 0 01-.681 1.624c-.298.62-.597 1.1-.887 1.424-.267.294-.505.53-.808.529-.024 0-.051 0-.074-.005-.042-.01-.074-.062-.059-.095a757.29 757.29 0 011.455-3.691h-1.552s-1.484 3.726-1.51 4.056c-.02.272.123.501.314.68a.97.97 0 00.688.268c.493 0 1.053-.287 1.699-.849a.303.303 0 01-.005.014l-.03.151c0 .143.08.348.463.52.247.109.48.164.69.164.367 0 .67-.052 1.057-.312a1.55 1.55 0 00.37-.34l-.221.652h1.497l.071-.236c.183-.61.364-1.138.54-1.569.245-.62.494-1.12.738-1.489.281-.42.493-.478.629-.532 0 0 .101-.049.295-.068a.42.42 0 01.375.205c.052.105-.014.285-.074.433-.055.134-.094.23-.051.293.013.02.04.043.092.043.296 0 .545-.11.72-.316.16-.194.236-.425.236-.688a1.04 1.04 0 00-.287-.75zm-21.727-3.393l.003.001c-.015-.009-1.47-.85-2.875-.923-1.666-.088-4.618.624-5.114 3.85l.111.022c.391-1.437 1.801-2.796 3.352-3.233.938-.264 1.989-.161 2.957.288 1.161.562 2.103 1.885 2.239 3.145.078.733-.07 1.792-1.228 2.678-.967.753-2.634 1.043-3.243.564-.285-.223-.206-.577-.033-1.087l1.906-4.663-.018-.024c-.037-.05-.907-1.204-1.738-.833-.267.12-2.045 5.779-2.584 7.51l-.015.05.05.017c2.548.905 4.764.94 6.589.099 1.365-.546 2.336-1.904 2.414-3.378.085-1.636-.926-3.123-2.773-4.083zm-4.231-10.987c-.083-.173-.454-.815-1.074-.988-.634-.177-1.214.075-1.493.276l2.567.712z" fill="#1B5C29"/><path d="M14.356 23.23c.578.164 1.191-.147 1.4-.284l-2.568-.713c.184.307.446.792 1.168.997z" fill="#52B12F"/><path d="M16.246 21.626c.03-.23.045-.94-.373-1.409a1.727 1.727 0 00-1.393-.569l1.766 1.978z" fill="#1B5C29"/><path d="M14.921 21.122c.409.436 1.074.514 1.325.504l-1.767-1.978c-.003.356-.068.93.442 1.474zm3.236 7.014c-.266-.096-1.258-.274-1.89.164-.65.448-.846 1.202-.888 1.602l2.778-1.766z" fill="#52B12F"/><path d="M17.266 29.722c.659-.422.878-1.263.89-1.586l-2.777 1.766c.493.14 1.25.227 1.887-.18z" fill="#1B5C29"/><path d="M17.996 27.24c-.164-.254-1.034-1.16-1.996-1.242-.929-.08-1.76.313-2.123.613l4.119.629z" fill="#52B12F"/><path d="M15.77 27.83c.948.169 1.9-.328 2.226-.59l-4.119-.629c.412.505.994 1.059 1.893 1.219z" fill="#1B5C29"/><path d="M25.084 19.372c-.108-.25-.635-1.146-1.479-1.463-.926-.347-1.798-.098-2.197.129l3.676 1.334z" fill="#52B12F"/><path d="M22.91 19.504c.834.335 1.808.048 2.174-.132l-3.676-1.334c.286.535.712 1.148 1.502 1.466z" fill="#1B5C29"/><path d="M20.271 29.429c.02-.292-.004-.937-.428-1.418-.458-.518-1.07-.621-1.396-.64l1.824 2.058z" fill="#52B12F"/><path d="M18.909 28.824c.423.483 1.094.63 1.363.605l-1.824-2.058c-.031.355.05.987.46 1.453z" fill="#1B5C29"/><path d="M20.486 26.872c-.09-.23-.404-.854-.997-1.104-.64-.271-1.232-.118-1.535 0l2.532 1.104z" fill="#52B12F"/><path d="M18.926 26.86c.641.314 1.327.148 1.56.012l-2.532-1.103c.14.328.413.817.972 1.091zm-1.036-2.21c-.153-.19-.657-.73-1.347-.78-.74-.054-1.26.377-1.504.614l2.852.167z" fill="#1B5C29"/><path d="M16.475 25.272c.653.036 1.241-.444 1.416-.621l-2.852-.167c.246.26.687.747 1.436.788z" fill="#52B12F"/><path d="M26.839 16.496c.147-.246.53-1.008.292-1.768-.256-.816-.948-1.186-1.318-1.346l1.026 3.114z" fill="#1B5C29"/><path d="M25.572 15.255c.238.715.995 1.13 1.267 1.241l-1.026-3.114c-.185.375-.515 1.052-.241 1.873zm4.19-.215c.167-.215.605-.894.463-1.63-.153-.791-.758-1.223-1.09-1.41l.627 3.04z" fill="#52B12F"/><path d="M28.694 13.72c.175.773.878 1.19 1.068 1.32L29.135 12c-.222.304-.62.934-.442 1.72z" fill="#1B5C29"/><path d="M30.046 18.678c.213-.166.779-.808.743-1.525-.033-.665-.613-1.246-.931-1.463l.188 2.988z" fill="#52B12F"/><path d="M29.154 17.267c.069.754.714 1.263.893 1.41l-.189-2.987c-.276.262-.775.809-.704 1.577z" fill="#1B5C29"/><path d="M31.092 20.567c.24-.107.907-.494 1.07-1.267.135-.639-.259-1.329-.5-1.61l-.57 2.877z" fill="#52B12F"/><path d="M30.616 19.015c-.12.684.348 1.37.477 1.552l.569-2.877c-.321.182-.917.58-1.046 1.325z" fill="#1B5C29"/><path d="M33.916 24.215c.269.03 1.067.024 1.613-.576.451-.494.464-1.313.394-1.687l-2.007 2.263z" fill="#52B12F"/><path d="M34.294 22.59c-.453.55-.4 1.397-.378 1.625l2.007-2.263c-.325-.028-1.098-.006-1.629.638z" fill="#1B5C29"/><path d="M39.541 22.573c.276.02 1.076-.035 1.667-.621.491-.49.548-1.335.506-1.712l-2.173 2.333z" fill="#52B12F"/><path d="M40.005 20.902c-.515.57-.48 1.435-.464 1.671l2.173-2.333c-.336-.036-1.197.094-1.71.662z" fill="#1B5C29"/><path d="M34.736 19.688c.252-.058 1.009-.334 1.325-.967.3-.601.15-1.33-.007-1.66l-1.318 2.627z" fill="#52B12F"/><path d="M34.71 18.088c-.313.646-.049 1.394.026 1.6l1.318-2.628c-.353.092-1.017.356-1.344 1.028z" fill="#1B5C29"/><path d="M34.093 16.88c.257-.031 1.052-.228 1.445-.833.374-.574.294-1.315.204-1.677l-1.649 2.51z" fill="#52B12F"/><path d="M34.264 15.254c-.393.618-.221 1.41-.171 1.627l1.648-2.51c-.364.056-1.068.239-1.477.883z" fill="#1B5C29"/><path d="M36.886 18.205c.215.04.904.085 1.372-.3.443-.367.563-.983.58-1.297l-1.952 1.597z" fill="#52B12F"/><path d="M37.428 16.94c-.47.397-.529 1.078-.542 1.265l1.952-1.597c-.307-.048-.92-.08-1.41.332z" fill="#1B5C29"/><path d="M39.467 19.93c.225-.05.92-.227 1.239-.856.31-.615.157-1.198.05-1.512l-1.29 2.368z" fill="#52B12F"/><path d="M39.495 18.46c-.302.581-.109 1.232-.028 1.47l1.29-2.367c-.319.078-.947.292-1.262.897z" fill="#1B5C29"/><path d="M37.592 23.195c.232-.054.945-.248 1.262-.9.31-.638.142-1.235.027-1.557l-1.289 2.457z" fill="#52B12F"/><path d="M37.597 21.683c-.301.603-.09 1.269-.005 1.512l1.289-2.457c-.326.086-.97.316-1.284.945z" fill="#1B5C29"/><path d="M41.72 22.002c.2.067.826.25 1.378-.091.539-.334.701-.859.77-1.153l-2.147 1.244z" fill="#52B12F"/><path d="M42.454 20.872c-.517.311-.68.907-.733 1.13l2.147-1.244c-.285-.086-.877-.211-1.414.114z" fill="#1B5C29"/><path d="M40.74 24.145c.18.12.75.45 1.402.276.65-.173.898-.665 1.087-.947l-2.49.67z" fill="#52B12F"/><path d="M41.782 23.21c-.602.174-.928.726-1.042.935l2.49-.671c-.263-.163-.821-.446-1.448-.264zm1.132 1.41c.174.192.743.737 1.547.728.823-.01 1.273-.466 1.54-.792l-3.087.064z" fill="#1B5C29"/><path d="M44.397 23.822c-.746.031-1.29.586-1.483.798L46 24.556c-.256-.266-.826-.766-1.603-.734z" fill="#52B12F"/><path d="M40.595 24.531c-.016.215-.008.89.471 1.36.47.46 1.063.438 1.381.442l-1.852-1.802z" fill="#1B5C29"/><path d="M41.961 24.963c-.451-.43-1.126-.437-1.366-.432l1.852 1.802c.013-.305-.015-.922-.486-1.37zm-6.047 1.843c.21-.065.85-.317 1.101-.94.245-.608.044-1.132-.082-1.422l-1.019 2.362z" fill="#52B12F"/><path d="M35.815 25.38c-.24.575.004 1.206.1 1.426l1.018-2.362c-.296.1-.867.335-1.118.936z" fill="#1B5C29"/><path d="M39.213 27.737c.085-.217.164-.932-.179-1.421-.357-.512-.946-.66-1.257-.714l1.436 2.135z" fill="#52B12F"/><path d="M37.994 27.078c.34.465.983.617 1.219.659l-1.436-2.135c-.086.28-.169.948.217 1.476z" fill="#1B5C29"/><path d="M36.549 16.93c.25-.05.987-.296 1.337-.919.33-.588.188-1.317.072-1.666l-1.41 2.586z" fill="#52B12F"/><path d="M36.587 15.321c-.341.636-.117 1.383-.038 1.61l1.409-2.586c-.354.08-1.017.314-1.371.976zm-12.297-.534c.128-.245.33-.838.123-1.379-.233-.612-.808-.887-1.114-.99l.99 2.37z" fill="#1B5C29"/><path d="M23.224 13.903c.233.512.83.795 1.066.884l-.991-2.37c-.136.318-.365.848-.075 1.486z" fill="#52B12F"/><path d="M28.427 17.304c.202-.209.574-.743.524-1.343-.056-.678-.562-1.116-.843-1.306l.32 2.65z" fill="#1B5C29"/><path d="M27.597 16.124c.085.578.618 1.026.83 1.18l-.318-2.649c-.232.28-.618.748-.512 1.47zm3.713.424c.233-.148.696-.564.79-1.13.107-.642-.25-1.169-.462-1.407l-.328 2.537z" fill="#52B12F"/><path d="M30.83 15.262c-.057.554.324 1.095.48 1.286l.33-2.537c-.277.206-.739.559-.81 1.251z" fill="#1B5C29"/><path d="M32.368 17.722c.21-.084.654-.357.824-.797.203-.528-.024-1.009-.157-1.234l-.667 2.031z" fill="#52B12F"/><path d="M32.176 16.616c-.125.44.095.929.192 1.106l.667-2.03c-.255.124-.695.345-.859.924z" fill="#1B5C29"/><path d="M33.035 20.512c.234-.091.732-.376.918-.859.222-.577-.019-1.111-.168-1.358l-.75 2.217z" fill="#52B12F"/><path d="M32.823 19.31c-.137.482.104 1.007.212 1.202l.75-2.217c-.282.135-.783.38-.962 1.015zm-8.278-1.624c.091-.65-.059-1.25-.424-1.681-.46-.544-1.27-.708-1.623-.682l2.047 2.363z" fill="#1B5C29"/><path d="M22.922 16.987c.38.416.842.652 1.623.7l-2.047-2.364c-.042.338-.052 1.146.424 1.664z" fill="#52B12F"/><path d="M26.56 22.765c.272-.567.357-1.197.141-1.691-.323-.738-1.02-1.011-1.35-1.087l1.208 2.778z" fill="#1B5C29"/><path d="M25.246 21.634c.227.487.613.865 1.314 1.13l-1.209-2.777c-.137.296-.388 1.038-.105 1.647z" fill="#52B12F"/><path d="M33.04 15.14c.525-.208.955-.54 1.136-1.006.226-.577-.03-1.303-.208-1.565l-.929 2.572z" fill="#1B5C29"/><path d="M32.819 13.587c-.182.469-.09.934.22 1.554l.93-2.572c-.324.099-.926.438-1.15 1.018z" fill="#52B12F"/><path d="M28.466 20.995c.343-.55.562-1.198.426-1.717-.227-.867-.974-1.238-1.294-1.37l.868 3.087z" fill="#1B5C29"/><path d="M27.203 19.733c.164.546.632.984 1.263 1.262l-.867-3.088c-.278.392-.602 1.144-.396 1.826zm7.787 1.52c.687.264 1.491.293 2.068.031.926-.421 1.22-1.349 1.354-1.71l-3.422 1.679z" fill="#52B12F"/><path d="M36.22 19.604c-.599.31-1.007.934-1.23 1.649l3.422-1.68c-.504-.195-1.39-.383-2.192.031z" fill="#1B5C29"/><path d="M37.407 25.22c.69.187 1.496.141 2.034-.155.862-.476 1.077-1.353 1.175-1.72l-3.21 1.875z" fill="#52B12F"/><path d="M38.454 23.566c-.556.342-.895.932-1.047 1.654l3.209-1.874c-.515-.137-1.442-.222-2.162.22z" fill="#1B5C29"/><path d="M42.11 28.942c.189-.739.082-1.462-.239-1.933-.504-.74-1.373-.936-1.738-1.003l1.977 2.936z" fill="#52B12F"/><path d="M40.435 28.05c.354.48.968.754 1.675.892l-1.977-2.936c-.155.51-.199 1.36.302 2.043zm-14.263-8.942c.297-.531.39-1.155.207-1.637-.26-.689-.894-1.033-1.21-1.146l1.003 2.783z" fill="#1B5C29"/><path d="M24.957 17.929c.195.523.537.873 1.215 1.179l-1.004-2.783c-.155.286-.443.979-.21 1.604zm-6.245 2.987c.021-.228.043-.945-.384-1.379a1.658 1.658 0 00-1.39-.471l1.774 1.85z" fill="#52B12F"/><path d="M17.424 20.487c.416.402 1.042.455 1.288.429l-1.773-1.85c-.022.288-.035.92.485 1.421zm4.211-1.005c-.078-.226-.264-.862-.951-1.216-.567-.292-1.319-.14-1.633.02l2.584 1.196z" fill="#1B5C29"/><path d="M20.116 19.556c.561.241 1.285.033 1.52-.074l-2.585-1.195c.105.284.364.966 1.065 1.269zm1.987-2.52a2.434 2.434 0 00-.777-1.678c-.518-.492-1.233-.482-1.58-.413l2.357 2.091z" fill="#52B12F"/><path d="M20.44 16.502c.47.414 1.109.573 1.663.534l-2.357-2.09c.022.3.094 1.03.694 1.556zm1.743 4.688c-.115-.21-.492-.882-1.145-1.053a1.974 1.974 0 00-1.603.29l2.748.764z" fill="#1B5C29"/><path d="M20.712 21.505c.623.148 1.257-.17 1.47-.314l-2.747-.764c.15.262.497.893 1.277 1.078z" fill="#52B12F"/><path d="M24.787 22.262c-.033-.216-.25-.915-.71-1.205-.506-.318-1.138-.205-1.421-.089l2.131 1.294z" fill="#1B5C29"/><path d="M23.457 22.227c.486.267 1.116.127 1.33.035l-2.131-1.294c.069.252.215.937.801 1.26zm-4.125 2.374c.105-.353.153-1.304-.216-1.949-.578-1.004-1.55-1.262-1.889-1.32l2.105 3.27z" fill="#52B12F"/><path d="M17.542 23.425c.474.781 1.475 1.145 1.79 1.176l-2.105-3.269c-.094.407-.175 1.288.315 2.093z" fill="#1B5C29"/><path d="M23.636 24.206c-.047-.368-.388-1.297-.995-1.752-.945-.71-1.968-.57-2.304-.494l3.299 2.246z" fill="#52B12F"/><path d="M21.457 23.808c.782.557 1.9.488 2.179.398l-3.3-2.246c.054.402.367 1.31 1.122 1.848z" fill="#1B5C29"/><path d="M30.993 26.905c-.266.626-.22 1.17.11 1.197.33.027.8-.471 1.046-1.095.238-.604.177-1.103-.132-1.133-.31-.029-.765.425-1.024 1.03zm-1.539-4.535c-.308.501-.352.97-.09 1.03.261.063.716-.304 1.008-.804.283-.485.305-.918.06-.98-.245-.06-.68.271-.978.755zm-2.984 4.685c.344-.126.208-.664-.292-1.188-.485-.507-1.129-.809-1.45-.687-.323.12-.219.62.244 1.132.478.527 1.154.867 1.498.743z" fill="#F4711F"/><path d="M27.53 26.314c-1.204-1.666-1.473-2.239-3.05-3.558.362.657 6.119 8.2.752 4.257 0 0-3.086-2.108-7.122-1.889 0 0 7.86.82 9.24 6.041.013.048.032.317.025.403-.053.702-.3 1.29-.51 1.679a4.972 4.972 0 01-.599.821c-.496.515-1.37.712-1.704.866.38.268 1.668.041 2.246.001l2.144.09c.059-.004.272.01.38.01l.338-.953s.957-.192 1.324-.256c.367-.063.779-.107.779-.107l-.614 1.35c.677.09 2.717.313 3.092.084-.426-.172-1.66-.303-2.163-1.011-.072-.071-.576-1.789-.559-2.396a.91.91 0 01.005-.086c.95-6.252 7.43-8.513 7.43-8.513-4.195.938-6.457 4.185-6.457 4.185-4.254 5.244-1.303-2.47-.425-3.381-1.584 1.208-2.165 2.996-2.165 2.996.484-5.073 4.828-5.558 4.828-5.558-2.238-.061-3.96 1.784-3.96 1.784-3.675 3.912-2.303-1.693-.741-2.492-.14.073-3.049 1.289-2.514 5.633z" fill="#F4711F"/></svg>