<svg width="56" height="56" viewBox="0 0 56 56" xmlns="http://www.w3.org/2000/svg"><path fill="#F0F3FA" d="M0 0h56v56H0z"/><path fill-rule="evenodd" d="M32.15 11.87c-.37.54-1.68 1.75-4 2.22-2.9.6-4.65 2.28-4.65 4.78 0 2 1.6 3.47 2.5 3.95V33h-.75l-3.12-1.45c.57-.7 1.87-2.52 1.87-4.17a5.23 5.23 0 0 0-5.15-4.94c-3.23 0-4.85 2.93-4.85 5.54 0 2.08 1.7 3.75 2.66 4.33l-4.82 2.93 2.63 2.66 4.65-3.69 1.86 1.41-3.83 4.4 2.63 2.33L25.25 35H26v8h12.5V22.82c.9-.48 2.5-1.96 2.5-3.95 0-2.5-1.96-4.18-4.86-4.78-2.32-.47-3.63-1.68-4-2.22ZM20.98 27.6c0 1.08-.84 2.22-1.2 2.65-.66-.32-2.03-1.19-2.03-2.5 0-1.3 1.04-1.75 1.48-1.75.44 0 1.75.24 1.75 1.6Zm9.95-1.95c.02.18.1.36.24.54.3.37.5.63.6.8.05.07.15.14.3.23.59.8 1.36 1.37 2.32 1.68.59.2 1.07.09 1.43-.32.06-.07.1-.06.1.04l.04.5c.01.1-.02.16-.1.22-.25.2-.9.27-1.13.2a1.9 1.9 0 0 0-.35-.14c-.02-.01-.03 0-.04.02v.05c-.01.03 0 .04.02.05.46.17.96.17 1.5 0 .17-.06.24 0 .22.18-.02.13-.06.25-.18.33-.31.19-.74.27-1.28.24a1.84 1.84 0 0 1-1-.41 8.08 8.08 0 0 1-1.08-.95 20.35 20.35 0 0 1-2.23-2.98.1.1 0 0 0-.05-.01h-.04a.06.06 0 0 0-.02.04l-.02.07c0 .02-.02.05-.06.07-.35.26-.75.4-1.2.43a.11.11 0 0 1-.1-.07 2.7 2.7 0 0 1 .05-1.68c.03-.1.1-.14.21-.12.2.04.43.04.7 0a.18.18 0 0 1 .2.11v.08l-.13.85c0 .06.02.1.08.13.07.03.13.04.17.03.05 0 .07-.03.05-.09-.08-.24-.1-.45-.04-.65a.16.16 0 0 1 .12-.11.17.17 0 0 1 .16.05l.54.6c-.13-.27-.33-.51-.61-.73-.17-.14-.2-.3-.1-.5.13-.27.48-.13.63.05.03.03.04.02.06 0l.02-.05c-.11-.07-.21-.16-.31-.28a.12.12 0 0 1-.01-.14l.25-.43c.02-.03 0-.1-.04-.05-.16.19-.3.4-.43.62-.07.14-.19.04-.26-.02a.21.21 0 0 1-.05-.26c.04-.1.1-.2.19-.32.02-.04.02-.04-.01 0l-.39.37a.04.04 0 0 0 0 .05l.03.1a.2.2 0 0 1-.12.25c-.3.08-.52.06-.7-.05-.05-.04-.06-.1-.06-.16v-.03c0-.1.03-.12.12-.08.15.06.37.12.51.1.12-.03.1-.05-.03-.09-.49-.12-.68-.44-.58-.95 0-.05-.04-.1-.1-.1l-1.6.12c-.04 0-.07-.02-.07-.07 0-.07 0-.16.1-.17l1.4-.1c.1 0 .28.03.55.08.26.05.45-.02.57-.22.26.04.5.03.73-.04.04 0 .05-.04.03-.07l-.25-.58c-.04-.09-.08-.1-.13-.01l-.39.57-.11.04c-.26.09-.81.3-.84.09-.02-.19 0-.37.05-.56.04-.11.07-.11.12 0 .1.2.26.4.51.28.06-.03.1-.07.14-.12.12-.2.28-.37.47-.53a.11.11 0 0 0 .03-.13 4.64 4.64 0 0 1 .51-3.95 3.55 3.55 0 0 1 1.8-1.5c1.9-.71 3.78.5 4.47 2.29.6 1.53.38 3.3-.73 4.63-.08.1-.24.06-.27-.06-.07-.31-.2-.55-.37-.72a.05.05 0 0 0-.03 0c-.03 0-.14 0-.1.04.18.14.29.34.34.6.03.12.1.2.23.27.06.03.1.1.13.2v.22c0 .1-.04.12-.12.06a1.13 1.13 0 0 0-.5-.21.21.21 0 0 1-.17-.23c.02-.24-.03-.48-.14-.72 0-.01-.02-.02-.03-.01h-.05v.02c.13.5.16.98.11 1.43-.02.2-.13.45-.34.73-.01.03 0 .04.01.04h.04c.25-.29.38-.6.38-.92 0-.29.12-.36.35-.21l.27.16c.25.16.4.37.43.63.06.5-.07.93-.4 1.33a.09.09 0 0 1-.14-.01c-.2-.35-.53-.57-.98-.69-.12-.03-.21-.03-.29.01l-.27.12a.12.12 0 0 0-.06.05.12.12 0 0 0-.02.08c.02.14-.03.24-.15.28-.05.02-.09 0-.1-.06-.02-.33.05-.58.21-.74.25-.25.44-.48.58-.7a.05.05 0 0 0 0-.04l-.03-.07a11.32 11.32 0 0 1-.55.66c-.17.21-.27.38-.3.52-.02.14-.03.34-.04.6 0 .05.02.06.06.04l.47-.2c.05-.02.1-.02.15 0 .32.07.6.23.81.48a.33.33 0 0 1 0 .45c-.1.1-.25.2-.43.31-.37.21-.72.37-1.06.49-.05.02-.07.05-.06.1.09.34.12.7.09 1.1-.01.12-.07.16-.2.1-.19-.1-.37-.19-.37-.42l.02-.63c0-.07.02-.12.04-.18.03-.1.06-.18-.04-.3a62.25 62.25 0 0 1-1.67-2 .24.24 0 0 1 .1-.27.63.63 0 0 1 .25-.09c.12-.02.23.01.31.1l.12.16c.07.1.14.2.25.27a6.18 6.18 0 0 1 1.2 1.08l.03-.03v-.05a4.8 4.8 0 0 0-1.08-1.04c-.22-.16-.24-.3-.21-.56 0-.06-.02-.1-.07-.13l-.18-.1a.15.15 0 0 1-.09-.12l-.05-.63c0-.07-.01-.07-.03 0a1.7 1.7 0 0 0-.05.5v.12c0 .05-.02.1-.07.11l-.62.26a.15.15 0 0 0-.1.14c0 .25.03.5.14.73l-.05.78c-.01.13-.06.14-.14.04-.17-.19-.26-.4-.27-.61a4.99 4.99 0 0 1 .04-1.15.57.57 0 0 1 .03-.04.36.36 0 0 0 .05-.07 289.42 289.42 0 0 0 .1-1.88c0-.21.13-.37.36-.5.06-.03-.04-.13-.08-.11-.24.08-.37.27-.4.55-.1.8-.14 1.42-.14 1.86 0 .05-.02.1-.04.15a.36.36 0 0 0-.04.26c.07.31.04.62-.08.91Zm4.87.11a1.35 1.35 0 0 0-.93-.66c-.14-.03-.25-.02-.32.02-.2.13-.2.2.05.24a1.32 1.32 0 0 1 1.03.73c.11.22.2.22.25-.02.02-.08 0-.18-.08-.31Zm-3.73 1.38a1.55 1.55 0 0 1-.32-.4.93.93 0 0 1-.07-.5v-.75c.07-.1.16-.1.29.03.15.16.26.34.32.54.02.07.07.07.12.07.05 0 .1 0 .12.03.22.24.41.48.58.72.2.26.16.74.13 1.08l-.01.15c0 .06-.08.09-.12.05-.22-.2-.44-.42-.65-.64-.08-.09-.12-.22-.1-.38.02-.26.01-.52-.04-.77-.03-.16-.05-.16-.06 0-.02.17-.03.38-.02.63a.2.2 0 0 1-.03.12c-.04.04-.08.05-.14.02Zm-2.7 4.36c0-.04.02-.14.07-.28.02-.04.08-.1.18-.19.1-.08.15-.15.15-.22.03-.38.08-.71.15-1.01.1-.39.13-.72.11-1l-.15-2.26c0-.06-.04-.09-.1-.07-.14.04-.28.1-.42.17-.08.05-.16.19-.23.42-.2.68-.49 1.53-1 1.96-.3.25-.75.51-1.35.8-.2.1-.21.22-.04.36.16.14.3.32.42.55.02.04.03.08.02.13l-.08.53a.16.16 0 0 0 .1.18c.03 0 .05.01.07 0 .36-.01.62.12.79.4a.26.26 0 0 0 .26.13c.28-.04.58-.14.89-.3a.31.31 0 0 0 .16-.3Zm4.76-4.2.73-.34a.1.1 0 0 1 .15.08l.05.54a.1.1 0 0 1-.06.1l-.79.34a.1.1 0 0 1-.14-.09v-.54a.1.1 0 0 1 .06-.09Zm-4 4.6c-.03.25-.06.5-.11.73-.02.08.06.13.15.18.06.04.12.08.14.12l.41.74a.2.2 0 0 0 .09.09c.13.07.3 0 .39-.1l.1-.12c.22-.24.48-.53.49-.86v-.16c.02-.19.04-.38-.07-.6a2.37 2.37 0 0 1-.26-.94c-.04-.85-.04-1.74 0-2.65.01-.23 0-.4-.06-.52a1.8 1.8 0 0 0-.3-.46c-.06-.06-.16-.03-.17.05a23.99 23.99 0 0 1-.65 3.62c-.08.28-.12.58-.15.88Zm4.13-3.74.8-.27c.11-.04.25 0 .33.1.16.18.47.55.08.71a2.1 2.1 0 0 0-.1.05c-.13.06-.27.13-.4.1l-.66-.1c-.3-.06-.34-.5-.05-.6Zm-.93 3.06c-.22.62-1.06.62-1.1-.05-.06-.73-.06-1.4-.01-2.03a.8.8 0 0 0-.17-.56l-.32-.42c-.07-.08-.2-.03-.2.08.04.68.05 1.42.04 2.21-.01.42.05.8.18 1.16.15.42.4.69.73.8a.9.9 0 0 0 .93-.18c.54-.45.59-1.18.52-1.86a.37.37 0 0 0-.15-.27 1.27 1.27 0 0 0-.29-.19c-.06-.01-.09.01-.09.07-.01.3-.02.58-.01.85 0 .15-.02.28-.06.4Zm-.14-1.52c.04.04.07.12.07.22-.01.6-.03 1-.05 1.18a.73.73 0 0 1-.28.48.16.16 0 0 1-.15.03c-.26-.1-.4-.25-.4-.44l-.03-1.98c0-.16.07-.18.22-.04l.62.55Zm.46 3.49c.05.11.01.2-.1.26-.06.03-.08.01-.09-.05 0-.26-.08-.5-.22-.7a.28.28 0 0 0-.44-.03c-.1.1-.19.26-.3.5-.06.14.05.3.2.3h.64c.06 0 .08.17.01.17h-.7a.05.05 0 0 0-.05.05l.01.03 1.77 2.75c.04.05.13.02.13-.05-.09-.7-.1-1.36-.06-1.98.02-.29.18-1 .36-1.21.17-.22.29-.45.35-.68.04-.14 0-.16-.1-.06-.24.2-.51.36-.83.46-.12.05-.2.04-.23 0s-.03-.07 0-.1c.05-.06.15-.1.32-.12.2-.03.43-.17.64-.3l.25-.16a.22.22 0 0 0 .1-.1c.26-.52.43-1.1.5-1.74a.08.08 0 0 0-.07-.09h-.03c-.42.07-.9.08-1.45.01-.13-.01-.19.05-.17.18.09.84-.12 1.48-.63 1.92a.12.12 0 0 0-.04.15c.08.24.16.43.23.59Zm.9 5.46c.32-.19.33-.9.28-1.2-.03-.14.01-.16.1-.06l.07.06c.14.13.28.27.26.48-.03.24-.11.48-.24.71a.58.58 0 0 1-.26.25.2.2 0 0 1-.14.01c-.06-.01-.1-.05-.1-.12-.02-.06-.05-.08-.1-.07a.24.24 0 0 1-.19-.05c-.35-.3-.69-.58-1.02-.83-.25-.2-.22-.3.1-.31.2 0 .66-.02.81-.22.06-.08.05-.1-.05-.06-.2.1-.48.16-.82.17a.9.9 0 0 1-.63-.2c-.13-.1-.35-.25-.67-.42-.26-.14-.25-.24.05-.29 1.19-.2 1.06-.36-.11-.08-.19.04-.33.02-.42-.07a3.66 3.66 0 0 1-1.27-2.9c0-.06.04-.09.1-.1.07 0 .12.05.17.13.06.1.1.25.15.42.01.05.07.09.13.07.85-.23 1.26-.74 1.24-1.52 0-.12.05-.15.16-.1l.29.15c.09.04.12.15.06.23-.26.4-.34.68-.22.84l.1.14c.8 1.1 1.66 2.25 2.33 3.42.03.04.04.09.03.14a7.73 7.73 0 0 1-.24 1.33c-.02.07 0 .08.06.05Zm-2.94 1.01c.15.08.28.05.38-.09 1.1-1.47.25-.18-.28.54-.04.05 0 .12.06.12.4.03.85.03 1.35 0a.2.2 0 0 0 .18-.12l.09-.18c.03-.06.02-.11-.04-.15-.24-.15-.3-.3-.35-.46-.03-.08-.06-.17-.12-.26-.1-.14-.15-.27-.18-.37-.1-.47-.14-.86-.1-1.18.02-.16-.04-.27-.17-.35l-.38-.22c-.17-.1-.26-.07-.27.1l-.05.77c-.02.3-.11.45-.32.65-.24.23-.44.4-.59.53-.14.11-.13.22.04.3l.75.37Zm1.45-1.85c.04.07.27.27.7.6.06.05.1.13.1.22-.01.17-.1.27-.28.3-.3.04-.51.02-.66-.28a2.02 2.02 0 0 1-.18-1.14c0-.05.07-.08.11-.05.06.04.1.1.14.2a.9.9 0 0 0 .07.15Zm2.3 1.5c.08-.2.26-.53.54-.98a.2.2 0 0 0 .02-.12.24.24 0 0 0-.04-.12l-.18-.23c-.04-.04-.12-.02-.13.04-.13.73-.45 1.17-.95 1.32-.26.08-.37.21-.53.4l-.03.04a.12.12 0 0 0 0 .14l.25.4a.19.19 0 0 0 .25.06c.2-.1.37-.24.52-.4.06-.08.16-.26.28-.55Zm-1.78-.15.18-.07c.06-.03.09-.01.09.06-.01.21-.1.39-.27.53-.05.04-.1.04-.14 0-.18-.12-.3-.26-.4-.44-.03-.05-.01-.1.05-.11.06-.02.18 0 .34.04.05.01.1 0 .15-.01Zm1.31-20.08h.01a1.02 1.02 0 0 1-.38-.62.32.32 0 0 0-.07-.14c-.2-.25-.3-.55-.3-.9a.24.24 0 0 0-.13-.2.24.24 0 0 0-.25.01.53.53 0 0 0-.23.59.17.17 0 0 1-.03.14 1.44 1.44 0 0 0-.33.8l.01.01h.03l.06-.04.02-.02c.07-.27.18-.5.34-.7a.14.14 0 0 0 .02-.13c-.05-.18-.06-.3-.04-.36.05-.12.14-.2.25-.21.05-.01.1 0 .12.06.08.16.09.33.03.5-.01.05 0 .1.04.14.22.2.36.43.4.67.01.06.04.1.08.13a3.64 3.64 0 0 1 .35.27Zm-1.97.95a.7.7 0 0 0-.37.53c0 .05-.03.1-.07.13-.12.12-.21.29-.27.5-.02.06-.04.06-.07 0-.04-.06-.03-.12.02-.18.24-.3.34-.62.29-.98a2.08 2.08 0 0 1 .25-.8l.05.02c.02.01.02.02.01.04a.91.91 0 0 0-.07.67c.01.06.04.07.09.03a.12.12 0 0 0 .04-.07c.29-.11.53-.33.72-.66.09-.17.27-.29.54-.36a.14.14 0 0 1 .14.04c.12.11.26.22.42.33.07.04.15.22.23.52.02.06 0 .07-.05.05-.12-.07-.2-.19-.21-.37a.2.2 0 0 0-.07-.13.35.35 0 0 0-.14-.08.14.14 0 0 1-.1-.1.26.26 0 0 0-.16-.16.22.22 0 0 0-.2.03c-.17.1-.29.23-.33.37a.9.9 0 0 1-.7.63Zm1.3-.7a.04.04 0 0 1 .03.01v.01l.01.02v.03a2 2 0 0 1-.09.49c-.04.13-.1.2-.14.2h-.08c-.02-.01-.04-.03-.06-.07a.54.54 0 0 1-.06-.15 2.4 2.4 0 0 1-.03-.5v-.03a.04.04 0 0 1 .02-.02.04.04 0 0 1 .03-.01l.37.02Zm-.7 3.48c-.08 0-.12.04-.11.08.36.25.74.2 1.13-.11.05-.05.1-.04.13.02.04.06.05.16.02.28-.01.03 0 .05.04.05h.06l.01-.02a.53.53 0 0 0-.01-.39.16.16 0 0 1 0-.14c.1-.16.24-.33.45-.52.2-.18.27-.43.2-.74a8.14 8.14 0 0 1-.2-1.63l-.02-.03h-.05v.02l.02.33c0 .08-.03.1-.1.08a.33.33 0 0 1-.13-.1c-.02-.02-.04-.01-.04.02s.02.07.07.11a2.1 2.1 0 0 0 .17.16l.01.03.06.8c0 .06.02.11.05.16.13.2.14.36.03.5-.31.36-.52.61-.63.76-.1.11-.21.2-.36.26-.1.04-.25.1-.41.19a.14.14 0 0 1-.15-.01l-.24-.16Zm.09-2.15c.31.16.28.5.24.85v.06a.07.07 0 0 1-.07.06H33.7c.06-.18.08-.36.06-.56-.02-.23-.2-.36-.54-.38-.2-.01-.2-.04 0-.07a.6.6 0 0 1 .38.04Zm1.29-.01c0 .03-.14.07-.32.07-.17 0-.32-.02-.32-.06 0-.04.14-.07.32-.07.17 0 .32.02.32.06Zm-1.6.3c.1-.02.18.02.25.1.03.05.02.08-.04.1l-.18.03-.17.01c-.07 0-.1-.04-.07-.09.05-.1.12-.15.22-.16Zm1.52.13c0 .06-.13.1-.3.12-.16.01-.3-.02-.3-.08 0-.05.13-.1.3-.11.16-.01.3.02.3.07Zm-2.2.28c.01.11.09.3.22.55l.02.07a.1.1 0 0 1-.02.04c-.01.02-.03.03-.06 0-.23-.18-.32-.45-.27-.8.02-.15.08-.17.17-.05.01.01 0 .03-.03.07a.17.17 0 0 0-.03.12Zm.94 2.24-.52-.62a.09.09 0 0 1-.02-.07l.02-.1c0-.06-.02-.09-.07-.08-.02 0-.04 0-.06.02-.03.03-.04.06-.02.1.14.31.35.57.61.78h.06v-.03Zm-.73-4.57L32.8 19a.08.08 0 0 1-.03-.03.07.07 0 0 1-.01-.03c-.02-.13 0-.3.08-.5a.23.23 0 0 0 0-.15c-.2-.58-.7-.83-1.26-1.11l-.1-.05a.07.07 0 0 0-.06 0 .06.06 0 0 0-.03.04c-.07.42-.07.78 0 1.1.07.27.2.45.4.53a20.7 20.7 0 0 0 1.04.31l.03-.02v-.04a.05.05 0 0 0-.02-.03Zm-.43-1.12-.65-.48a.17.17 0 0 0-.24.05.16.16 0 0 0-.03.09l.03.76a.16.16 0 0 0 .06.12l.18.14a.16.16 0 0 0 .22-.01l.44-.42a.16.16 0 0 0-.01-.25Zm1.75 4.22v.04c0 .03-.02.06-.05.07a.12.12 0 0 1-.08.02c-.21-.03-.32-.07-.32-.11 0-.05.1-.1.31-.14a.11.11 0 0 1 .14.09v.03Z" fill="#DA251C"/><path fill-rule="evenodd" d="M19.65 29.66a3.6 3.6 0 0 0 .73-1.93c0-.98-.8-1.22-1.1-1.22-.29 0-.98.4-.98 1.34 0 .94.91 1.57 1.35 1.8Zm-.13-.65c.14-.2.42-.71.42-1.2 0-.61-.46-.76-.63-.76-.17 0-.57.25-.57.83 0 .59.53.98.78 1.13Z" fill="#DA251C"/><path fill-rule="evenodd" d="M32.15 10c-1.18 1.53-2.13 2.54-4.23 2.97-2.92.6-5.47 2.78-5.47 5.95 0 1.92.98 3.59 2.53 4.63v3.82c0-3.18-2.97-5.91-6.13-5.91-4.07 0-5.85 3.56-5.85 6.57 0 1.66.9 3.06 2 4.24l-5 2.81 4.38 4.3 4.73-3.7.23.2-3.8 4.35L20 44l4.98-6.55V44h14.57V23.55A5.48 5.48 0 0 0 42 18.92c0-1.55-.57-2.83-1.6-3.85a8.01 8.01 0 0 0-4.02-2.1c-2.1-.44-3.06-1.44-4.23-2.97Zm-7.17 17.38v4.41l-1.17-.53a8.06 8.06 0 0 0 1.17-3.88Zm7.17-16.49a6.62 6.62 0 0 1-4.12 2.6c-2.66.55-5.03 2.52-5.03 5.43a5.12 5.12 0 0 0 2.53 4.34v9.32h-.13l-2.38-1.08c.8-1.2 1.41-2.67 1.41-4.12 0-2.89-2.72-5.38-5.58-5.38-3.67 0-5.3 3.22-5.3 6.03 0 1.64 1.08 3.32 2.34 4.34l-5 2.82 3.53 3.47 4.71-3.69.98.87-3.8 4.34 3.6 3.03 5.62-7.37v7.62H39v-20.2a5.05 5.05 0 0 0 2.45-4.34 4.7 4.7 0 0 0-1.44-3.47 7.47 7.47 0 0 0-3.74-1.95 6.62 6.62 0 0 1-4.12-2.6Z" fill="#DA251C"/></svg>