<svg width="56" height="56" viewBox="0 0 56 56" xmlns="http://www.w3.org/2000/svg"><path fill="#F0F3FA" d="M0 0h56v56H0z"/><circle cx="28" cy="28" r="17" fill="url(#a)"/><path fill-rule="evenodd" d="M28 45a17 17 0 1 0 0-34 17 17 0 0 0 0 34Zm0-.31a16.69 16.69 0 1 0 0-33.38 16.69 16.69 0 0 0 0 33.38Z"/><path fill-rule="evenodd" d="M28 39a11 11 0 1 0 0-22 11 11 0 0 0 0 22Zm0-.48a10.52 10.52 0 1 0 0-21.04 10.52 10.52 0 0 0 0 21.04Z"/><path d="M26.42 23.08c-.42-.7-.89-1.39-1.4-2.08-.09-.1-.22-.24-.41-.4l-.14-.12c-.12-.1-.1-.14.05-.1.29.09.76.6 1.43 1.53.02.04.05.07.09.1.07.04.11.04.13-.02v-.03c-.46-1.08-.9-2.02-1.34-2.85a1.42 1.42 0 0 0-.34-.39.23.23 0 0 1 .06-.07c.06-.04.1-.03.14.03.03.07.1.15.19.26.1.11.17.2.2.28l1.1 2.05c.15.29.27.6.36.96 0 .06 0 .12-.03.17a.08.08 0 0 1-.06.04c-.03 0-.04.02-.03.05l.5.9c.04.05.02.09-.04.11l-.06.03c-.06.02-.1 0-.13-.05a1.01 1.01 0 0 0-.27-.4ZM29.47 21.84c-.19.2-.32.43-.4.7-.03.06-.07.08-.13.06l-.07-.03a.12.12 0 0 1-.07-.08.13.13 0 0 1 0-.1l.4-.78a.25.25 0 0 0 .03-.2.88.88 0 0 1-.04-.37c.06.04.1.1.14.17.03.06.07.07.12.01l.52-.63a7.64 7.64 0 0 1 1-.95c.02 0 .04 0 .05.03.02.01.02.03 0 .04a6.76 6.76 0 0 0-1.55 2.13ZM27.04 21.92c.22.23.28.2.18-.1a16.5 16.5 0 0 0-.72-1.78c-.06-.12-.03-.14.08-.08.07.05.13.1.17.18.35.6.64 1.24.86 1.9.03.1.01.18-.05.25-.08.1-.13.2-.17.32a.1.1 0 0 1-.07.06c-.04.01-.07 0-.1-.04l-.88-1.2c-.03-.04-.03-.08 0-.12l.1-.12c.02-.04.05-.04.08 0 .14.27.32.51.52.73ZM28.43 20.22a.21.21 0 0 1 .03-.16c.06-.08.08-.07.09.02 0 .36-.06.67-.18.93-.06.13-.09.12-.1-.02 0-.2.05-.4.14-.61.02-.05.03-.1.02-.16Z" fill="#C3DE6A"/><path d="M29.2 21.04c-.04-.11-.08-.14-.13-.08-.32.4-.61.82-.86 1.25-.23.42-.48.84-.74 1.26-.5.81-.87 1.72-1.14 2.71-.03.13 0 .16.12.1a.5.5 0 0 0 .23-.3.55.55 0 0 1 .12-.2l1.33-1.46c.05-.06.05-.12-.03-.16a.92.92 0 0 1-.44-.58.3.3 0 0 1 .04-.26.8.8 0 0 1 .09-.12c.07-.08.12-.07.15.02l.15.42c.03.09.06.09.1.01.05-.1.08-.2.1-.31 0-.08.04-.13.1-.17.09-.06.15-.04.17.07.05.24-.04.42-.27.54-.05.03-.08.07-.06.14l.04.12c.01.07.05.09.12.05l.35-.23a.2.2 0 0 0 .1-.16.88.88 0 0 0-.12-.52c-.06-.1-.12-.27-.2-.5a3.42 3.42 0 0 0-.11-.36c-.02-.03-.01-.06.02-.08.02-.03.06-.04.1-.04a103.1 103.1 0 0 1 .61 1.25c0 .03.03.04.06.04s.05-.01.07-.04l.29-.5c.06-.13.12-.12.17 0 .1.23.04.42-.18.55l-.79.54c-.23.16-.46.35-.67.58a14.86 14.86 0 0 0-2.06 2.87l-.57 1.1c-.14.26-.27.26-.4 0-.32-.68-.68-1.2-1.07-1.54a2.38 2.38 0 0 0-1.7-.64c-.32 0-.57.07-.77.2-.13.08-.3.24-.52.48l-.15.16c-.12.14-.2.3-.26.47a9.2 9.2 0 0 0-.23 4.04c-.1.02-.17 0-.22-.05a9.4 9.4 0 0 1-.13-2.76c.13-1.17.48-1.97 1.07-2.4a2.3 2.3 0 0 1 2.2-.3c.65.25 1.22.75 1.72 1.5.03.19.1.34.2.47.05.05.08.05.12-.01l.74-1.42a.38.38 0 0 0 .02-.37.14.14 0 0 1 .02-.16.6.6 0 0 0 .1-.38c0-.17.1-.55.28-1.12.26-.8.86-1.85 1.8-3.16.1-.07.18-.16.26-.27.2-.3.46-.55.78-.75.07-.04.09-.03.05.05l-.18.41Z" fill="#C3DE6A"/><path d="M24.43 22.8c.09.4.18.8.3 1.2.02.1.06.17.12.2.07.05.15.08.25.08.08 0 .12-.03.14-.1l.1-.5a.2.2 0 0 0-.04-.18l-.67-.75c-.02-.06-.03-.11-.01-.15.02-.07.06-.09.12-.04l.2.17c.12.1.15.07.1-.08-.06-.2-.16-.4-.28-.6a.07.07 0 0 1 0-.09l.08-.08c.06-.07.1-.07.14.01l.52 1.05c.03.07.08.08.13 0 .07-.1.11-.22.11-.36 0-.04.02-.06.06-.07.05-.02.08-.01.1.03.06.15.05.29-.03.42a.97.97 0 0 0-.09.74c.06.25.18.48.35.68.19.17.22.32.1.44a.28.28 0 0 0-.08.2l-.01.2c-.05.29-.12.3-.22.01a9.79 9.79 0 0 1-.29-1.04c-.03-.14-.07-.14-.13-.02-.09.19-.12.37-.11.55 0 .07.03.14.09.2.16.17.28.34.35.5.12.25.12.45 0 .6l-.4-.7c-.1-.17-.15-.16-.17.03l-.17 1.48c-.19-.13-.26-.38-.2-.74.02-.19-.04-.3-.18-.36a.3.3 0 0 1-.15-.13l-.16-.27a2.4 2.4 0 0 0 0-.98l-.17-.87c-.1-.88-.3-1.75-.56-2.6-.01-.04 0-.06.03-.07l.06-.02c.02 0 .03 0 .04.02l.63 1.99ZM33.98 21.52a2 2 0 0 0-.71.51c-.99.6-1.7 1.42-2.13 2.47-.2.48-.4.96-.58 1.44-.03.07-.01.13.06.16l.05.03c.03.01.06 0 .08-.03l.6-1.1.72-.46c-.1.2-.23.39-.41.54-.13.03-.21.1-.24.2-.06.17-.12.31-.2.43-.2.3-.37.7-.52 1.22-.08.27-.02.3.19.12l.7-.63.2-.08c.6-.21 1.05-.33 1.35-.36.5-.05.93.07 1.28.36.06.05.1.12.1.2 0 .13-.03.18-.1.15a.49.49 0 0 1-.1-.06c-.57-.38-1.04-.54-1.4-.48-.73.12-1.43.52-2.07 1.2-.14.02-.24.12-.32.3-.03.06-.08.08-.15.04-.06-.04-.08-.1-.08-.2.01-.06 0-.12-.03-.17l-.37-.69a.08.08 0 0 0-.07-.04.08.08 0 0 0-.07.05c-.05.1-.07.2-.07.33 0 .06-.03.1-.09.1h-.06c-.05.01-.08-.01-.09-.06l-.22-2.09c-.02-.13-.06-.14-.14-.04l-.1.14a.46.46 0 0 0-.1.3c0 .2-.05.4-.15.59-.04.07-.02.1.06.1.02 0 .04 0 .06-.02.06-.03.12-.03.18.02s.08.1.07.18a.21.21 0 0 1-.1.15c-.33.22-.53.46-.59.72l-.24.06c-.07.02-.1 0-.11-.07v-.1l.36-.55c.13-.2.15-.4.06-.62l-.35-.89a.16.16 0 0 1 .03-.18c.05-.05.11-.07.18-.05.12.03.18.14.17.32-.01.17.03.18.13.05a.44.44 0 0 0 .03-.06.2.2 0 0 1 .14-.11c.17-.05.3-.15.4-.3a.1.1 0 0 1 .1-.06c.06 0 .09.04.1.08.13.35.17.72.13 1.1-.02.21.06.37.24.48.18.1.32.24.44.4l.04.02c.01 0 .02 0 .03-.02l.06-.07a.2.2 0 0 0 .04-.18c-.08-.32-.08-.56 0-.74.2-.5.41-1 .64-1.49.54-.85.9-1.37 1.08-1.55.33-.35 1-.79 1.97-1.33.22 0 .4-.08.57-.2a.29.29 0 0 1 .2-.07c.17 0 .33.02.49.04.03 0 .06.02.09.04l.03.05c0 .04-.01.06-.05.07a.68.68 0 0 1-.34-.03.25.25 0 0 0-.2 0l-.9.42ZM28.27 21.6a.8.8 0 0 1-.6-.48c-.02-.07 0-.1.07-.07.3.09.47.27.53.55ZM31.14 21.23l-.89 1.13c-.05.06-.1.03-.16-.09.23-.48.57-.86 1.03-1.16a.05.05 0 0 1 .06 0c.02.01.02.03.02.05 0 .07-.02.1-.06.07ZM31.75 21.35c-.3.23-.53.53-.67.9a1.96 1.96 0 0 1-.43.67c-.05.04-.1.05-.14.03-.08-.03-.1-.08-.05-.15l.8-1.31c.14-.11.26-.2.4-.25.05-.02.08 0 .08.05v.06Z" fill="#C3DE6A"/><path d="m33.98 21.52-1.7 2.45c-.03.03-.02.06 0 .09.03.03.06.03.1 0a6.59 6.59 0 0 1 2.86-1.32c.05 0 .1 0 .13.03.06.05.06.08-.02.1l-.2.03a8.39 8.39 0 0 0-3.08 1.64l-.72.46 1.92-2.97a2 2 0 0 1 .7-.51Z" fill="#7A9B3C"/><path d="m31.67 21.8-.3.78c-.11.01-.15-.05-.11-.2.02-.1.11-.31.27-.64.03-.06.06-.07.1-.02.02.02.04.05.04.08Z" fill="#C3DE6A"/><path d="M31 23.18a9.2 9.2 0 0 0-2.19 1.43c-.07.06-.12.05-.17-.02l-.04-.04a.11.11 0 0 1 .03-.16c.47-.3.94-.61 1.4-.93.22-.16.46-.3.71-.43l.74-.37.1-.02c.05-.01.09-.04.1-.1.13-.33.35-.6.66-.79.15-.09.18-.06.09.1-.35.59-.83 1.04-1.44 1.33ZM29.94 22.28c.05.25.15.49.3.72.02.03.01.06-.02.07l-.09.05c-.03.02-.05 0-.07-.03l-.5-1.24c.07-.07.12-.1.17-.1.03 0 .06.05.09.12.03.14.07.28.12.41Z" fill="#C3DE6A"/><path d="M21.17 22.01c.45.23.9.49 1.31.78.02.01.05.05.09.12.02.05.05.09.1.12.71.56 1.3 1.33 1.73 2.3l.16.27c.04.06.09.1.15.13.14.05.2.17.17.36-.05.36.02.6.21.74.05.12.06.28.05.48-.17.02-.34-.14-.51-.49a3.41 3.41 0 0 0-1.03-2.17 6.74 6.74 0 0 0-2.15-2.3 1.8 1.8 0 0 0-.79-.26.05.05 0 0 1-.03-.03l-.06-.1c-.02-.04-.01-.05.03-.05l.57.1Z" fill="#7A9B3C"/><path d="M22.85 22.9c-.02-.01-.02-.02-.01-.04.04-.05.12-.06.26-.02.14.04.3.12.46.23l.05.03c.16.1.29.22.38.33.1.12.12.2.09.25-.01.02-.03.02-.04 0l-1.2-.79ZM30.96 23.97l-.88 1.93a.11.11 0 0 1-.09.06c-.04 0-.07 0-.1-.03a.45.45 0 0 1-.12-.26 7.22 7.22 0 0 1-.05-1.09.22.22 0 0 0-.09-.18.08.08 0 0 1-.03-.08c0-.07.04-.11.1-.13a.89.89 0 0 0 .44-.3c.05-.06.1-.08.18-.05l.05.03c.05.02.06.05.03.1-.1.16-.18.34-.2.52-.02.04 0 .07.05.09.03.01.06 0 .08-.03l.73-1.27a.53.53 0 0 0 .19-.1c.04-.04.07-.03.1.01v.07a.1.1 0 0 1-.02.06c-.16.2-.28.42-.37.65Z" fill="#C3DE6A"/><path d="M35.21 23.37c.04-.01.07 0 .1.02.04.02.05.05.04.09a.1.1 0 0 1-.06.08c-.66.24-1.29.58-1.88 1-.05.04-.1.1-.12.17l-.61.03c.77-.56 1.62-1.03 2.53-1.4Z" fill="#7A9B3C"/><path d="M27.8 24.17c.03 0 .05.03.05.05 0 .25-.1.32-.32.21a.07.07 0 0 0-.08.01.06.06 0 0 0-.02.07c.02.11 0 .2-.08.3-.07.07-.12.06-.16-.03-.08-.24-.03-.42.16-.55a.11.11 0 0 0 .05-.08l.04-.34c0-.04.03-.07.07-.07.04-.01.07 0 .09.05l.1.3c.03.04.06.07.1.08ZM23.6 24.65c.64.67.98 1.4 1.03 2.17a16.8 16.8 0 0 0-.9-1.5 2.45 2.45 0 0 0-.85-.75c-.42-.22-.73-.15-.94.2-.23.38-.42.8-.57 1.29a.24.24 0 0 1-.1.13c-.07.05-.12.05-.16 0a11.12 11.12 0 0 1 .35-1.1c.18-.44.36-.7.53-.79.39-.19.74-.17 1.06.04.26.17.45.28.55.3ZM33.29 24.73c.07.05.19.1.35.13.14.03.23.07.3.1 1.02.56 1.29 1.56.8 3a7.87 7.87 0 0 1-3.87 3.92h-.02l-.04-.05c-.02-.02-.02-.04 0-.05a6.62 6.62 0 0 0 2.13-1.64 9.3 9.3 0 0 0 1.49-2.2c.09-.18.15-.46.2-.82l.1-.56a.34.34 0 0 0 0-.2c-.38-1.07-1.08-1.48-2.12-1.22-.47.05-.77.22-.89.5-.16.37-.24.35-.25-.04 0-.12.1-.24.29-.38.25-.22.56-.38.92-.46l.6-.03Z" fill="#C3DE6A"/><path d="M31.66 25.08c.02.06.06.11.1.14-.2.14-.29.26-.29.38 0 .4.1.41.25.05.12-.29.42-.46.89-.51-.46.41-.8.84-1.02 1.28l-.7.63c-.21.19-.27.15-.2-.12.16-.52.34-.93.53-1.22.08-.12.14-.26.2-.43.03-.1.1-.17.24-.2Z" fill="#7D7B6D"/><path d="M27.07 27.32c-.04-.08-.1-.13-.15-.14a.62.62 0 0 1-.12-.46c0-.06.04-.09.1-.08l.06.01c.03 0 .05 0 .07-.04.19-.52.49-.99.9-1.4.04-.04.08-.04.11 0l.05.06c.03.05.03.1 0 .14-.46.56-.8 1.2-1.02 1.91Z" fill="#C3DE6A"/><path d="M27.81 27c.04.07.05.15.05.23 0 .08-.05.12-.13.13a.13.13 0 0 1-.1-.04.13.13 0 0 1-.04-.1v-.56c.01-.07.04-.1.1-.11.03 0 .05 0 .06.02l.02.03c.01.06.02.11 0 .18 0 .07 0 .15.04.22Z" fill="#958696"/><path d="M28.07 26.96v.09c0 .06.04.09.1.07l.25-.06c-.44.7-.63 1.3-.58 1.8.03.36.04.65.02.88-.02.14-.02.28 0 .4l.03.43c.02.39.03.77.02 1.15 0 .05-.02.1-.06.14a.34.34 0 0 0-.05.32c.1.26.11.53.05.8-.07.29-.1.58-.08.87l.03.74c0 .06.03.12.06.17.04.04.08.05.13.02.05-.04.1-.03.11.04l.17.5c.07.22.14.22.2 0a.67.67 0 0 0 .03-.38c-.02-.07-.07-.11-.15-.12a.25.25 0 0 1-.16-.07.15.15 0 0 1-.05-.12l.12-3.82c0-.22.07-.23.2-.05.14.21.17.45.1.7-.05.2-.07.42-.06.64.02.69 0 1.34-.07 1.95a.6.6 0 0 0 .21.52c.06.06.13.06.19 0a.2.2 0 0 1 .12-.05c.09 0 .13.04.14.12 0 .18.04.33.11.47.2.06.31-.08.32-.42.18.13.35.18.52.16a.1.1 0 0 1 .04 0c.02.01.03.03.02.05 0 .02-.02.03-.03.04-.4.12-.61.4-.65.83.05.07.03.15-.05.23a.45.45 0 0 0-.09-.2c-.06-.07-.1-.06-.12.02a.68.68 0 0 0 0 .43c.02.06 0 .11-.04.16l-.47.48c-.05.04-.05.1 0 .14.05.05.11.05.19.02.03.05.04.08 0 .1l-.31.22a6.49 6.49 0 0 0-1.59-.09c-.1.03-.17 0-.22-.1a.1.1 0 0 0-.07-.05.1.1 0 0 0-.08.02.32.32 0 0 1-.24.06 29.1 29.1 0 0 1-1.57-.26c-.17-.04-.18-.1-.03-.18h.13c.31-.03.6.01.86.12.05.02.1.02.12.01a.1.1 0 0 0 .04-.05c.02-.04.02-.08-.02-.1a2.4 2.4 0 0 0-2-.5c-.04 0-.06-.02-.05-.06l.04-.12a.09.09 0 0 1 .07-.06 2.1 2.1 0 0 1 1.91.33c.06.05.11.03.14-.04a.22.22 0 0 0-.02-.2c-.04-.08-.01-.18.1-.29.08.23.18.44.32.62.07.1.06.18-.03.25-.07.06-.06.13.01.21.15.16.22.13.23-.08 0-.2.07-.38.2-.53.06-.07.12-.07.17 0l.22.3c.03.05.05.1.05.16v.17c0 .01 0 .02.02.02.01 0 .02 0 .03-.02.02-.1.07-.16.13-.2 0 .03.03.05.06.05.05 0 .08-.01.1-.06.1-.25.1-.53.04-.81-.06-.22.02-.3.24-.27.05.01.1 0 .15-.04.06-.05.08-.11.08-.18a.22.22 0 0 0-.1-.17c-.35-.26-.48-.58-.39-.96.05-.2.06-.38.05-.57a8.1 8.1 0 0 1 .03-1.47c.02-.16 0-.4-.03-.72a4.51 4.51 0 0 1-.04-.57c.02-.82.01-1.64-.02-2.45 0-.28.16-.8.5-1.53Z" fill="#7D7B6D"/><path d="M30.29 29.38c-.02-.29.03-.46.14-.52a8.78 8.78 0 0 1 2.65-1.8c.05-.02.08 0 .1.03l.02.06-.01.02a7.22 7.22 0 0 0-2.9 2.21Z" fill="#7A9B3C"/><path d="M26.92 27.18c.06.01.1.06.15.14.1.34.14.7.09 1.06-.02.2-.02.4 0 .65.01.19 0 .4-.01.66-.03.28 0 .59.1.91.02.08.02.15-.02.22-.1.25-.08.49.07.73.04.05.06.12.05.19-.02.75 0 1.54.07 2.35.02.21 0 .4-.03.6a.6.6 0 0 0 .15.54c.06.07.06.13 0 .2l-.09.07a.23.23 0 0 0-.07.16l-.04.77-.79-.85-.5-6.66c.15-.09.15-.24 0-.46l.05-.93c0-.02 0-.03-.02-.03a.13.13 0 0 0-.05-.01c.1-.1.14-.16.13-.2.16.1.2.26.14.47-.03.09 0 .15.06.21.06.05.07.1.04.17a.34.34 0 0 0-.02.16c.1 1.39.16 2.32.16 2.8 0 .27.02.53.07.75.05.27.08.51.08.73 0 .54.03 1.06.06 1.57.02.23 0 .45-.04.66-.06.25.01.5.2.74.05.05.1.07.16.08.07 0 .12-.05.14-.15v-.09a2.86 2.86 0 0 1-.08-.78l-.01-.5c-.09-.85-.13-1.66-.11-2.43 0-.46-.01-.94-.06-1.44a8.86 8.86 0 0 1-.04-1.5.98.98 0 0 0-.09-.47.36.36 0 0 1-.02-.2l.12-.9Z" fill="#958696"/><path d="M21.1 29.25h-.01c-.06 0-.11-.08-.16-.26a2.63 2.63 0 0 1-.06-.63v-.14c0-.24.03-.45.07-.63.04-.17.1-.26.15-.26h.01v1.92ZM25.17 29.29c.04.05.04.1 0 .15l-.04.08c-.04.06-.08.06-.12 0a5.78 5.78 0 0 0-2.25-1.72c-.05-.02-.06-.06-.04-.11l.03-.06c.01-.03.04-.04.08-.03.9.38 1.69.94 2.34 1.69Z" fill="#7A9B3C"/><path d="M33.92 31.76c-.33.6-.74 1.15-1.21 1.65h-.05c-.02-.02-.02-.03 0-.05a10.1 10.1 0 0 0 2.33-4.98c-.04-.28 0-.47.1-.56.06-.06.09-.05.1.04.01.88-.18 1.75-.58 2.6-.27.56-.5 1-.69 1.3Z" fill="#C3DE6A"/><path d="M30.4 28.06c-.07.33-.07.6.03.8-.11.06-.16.23-.14.52-.18.39-.24.8-.2 1.24.01.07 0 .14-.03.2a.95.95 0 0 0-.07.54c.02.15.02.3 0 .46l-.21 1.24-.07.82a3 3 0 0 1-.19.8c0 .35-.12.5-.32.43.2-1.82.44-3.61.73-5.39.02-.12.05-.23.1-.34a.28.28 0 0 0 0-.27.35.35 0 0 1-.04-.24l.15-.82c.01-.08.06-.11.14-.09.05.02.1.05.13.1ZM28.5 28.16a.16.16 0 0 0-.18.16l-.08 2.09c0 .09.06.17.15.17h.02c.09 0 .16-.07.17-.16l.08-2.1a.16.16 0 0 0-.16-.16Z" fill="#958696"/><path d="M26.06 28.46c.14.22.14.37 0 .46-.2.15-.35.32-.44.5-.03.07-.08.08-.14.06l-.06-.03c-.06-.03-.08-.08-.03-.14l.67-.85Z" fill="#7D7B6D"/><path d="M26.11 34.5c-.2.03-.31-.13-.33-.48l-.47-4.06c0-.08.02-.1.1-.08l.07.02c.03.01.04.03.04.05l.6 4.56Z" fill="#958696"/><path d="M20.14 31.71c.05.05.12.07.22.05l.7 2.14a3.6 3.6 0 0 1-.92-2.19Z" fill="#C3DE6A"/><path d="M25.78 34.02c.02.35.13.51.33.49.06.22.1.46.12.7 0 .1.02.2.05.26.08.18.17.21.27.11l.8.85c.07.06.1.16.05.29-.06.03-.1.1-.13.2l-.03.01c-.02 0-.02 0-.02-.02v-.17c0-.06-.02-.11-.05-.16l-.22-.3c-.05-.07-.1-.07-.17 0a.81.81 0 0 0-.2.53c0 .21-.08.24-.23.08-.07-.08-.08-.15-.01-.21.09-.07.1-.16.03-.25a1.97 1.97 0 0 1-.32-.62 5.45 5.45 0 0 0-1.76-1.59v-.06c.02-.01.04-.02.06 0 .43.2.82.43 1.18.72.08.06.16.08.26.06h.07c.09-.02.1-.06.04-.13-.17-.16-.2-.42-.12-.8ZM29.72 36.07a3.1 3.1 0 0 1 1.28-.9c.02-.02.04-.01.06 0l.04.05c.02.02.03.04.02.07 0 .03-.01.05-.04.06-.46.23-.88.53-1.26.9-.02.03-.03.03-.05 0l-.04-.03c-.05-.05-.05-.1 0-.15Z" fill="#7A9B3C"/><path d="M28.86 35.88c.04.04.05.09.03.13 0 .03-.03.05-.06.06-.03 0-.06 0-.08-.03a.34.34 0 0 1-.06-.35c.02-.06.05-.06.09-.01.03.03.05.07.05.11l.03.09Z" fill="#958696"/><path d="m29.37 36-.03.1c-.02.07 0 .12.07.14.12.04.16.1.12.16l-.69.65c-.08.03-.14.03-.19-.02-.05-.05-.05-.1 0-.14l.47-.48c.05-.05.06-.1.04-.16a.68.68 0 0 1 0-.43c.02-.08.06-.1.12-.03.04.05.07.11.09.21Z" fill="#C3DE6A"/><path d="M28.07 36.09c.02.13.13.22.24.2.11-.03.18-.15.15-.28-.03-.14-.14-.23-.25-.2-.1.02-.17.14-.14.28Z" fill="#958696"/><path d="M29.53 36.4c.04-.03.08-.03.12 0 .04.02.05.05.02.1l-.24.36c-.06.1-.04.12.07.08a.32.32 0 0 0 .17-.13.3.3 0 0 1 .16-.12 4.06 4.06 0 0 1 2.28-.12l-.01.05c0 .03-.03.05-.06.05a4.1 4.1 0 0 0-2.63.52c-.17.15-.35.14-.56-.04.02-.02.02-.05-.01-.1l.7-.65Z" fill="#7A9B3C"/><path fill-rule="evenodd" d="m26.3 15.11-.06-.5c0-.07.02-.1.08-.1l1.28-.1c.06-.01.09-.04.08-.1l-.02-.32c0-.07-.04-.1-.1-.09l-1.26.14c-.06 0-.1-.02-.1-.07l-.07-.46c0-.06.02-.1.08-.1l1.4-.13c.07-.01.1-.04.09-.1l-.02-.35c0-.06-.04-.1-.1-.09l-2.06.21c-.06 0-.09.04-.08.1l.26 2.66c0 .06.04.08.1.08l2.05-.2c.05 0 .08-.04.08-.1l-.01-.34a.09.09 0 0 0-.03-.06.08.08 0 0 0-.07-.02l-1.43.13c-.06 0-.1-.03-.1-.09Zm5.38.4.12-.48a.1.1 0 0 1 .05-.06.09.09 0 0 1 .08 0l1.2.38c.05.01.1 0 .12-.06l.11-.26a.1.1 0 0 0-.06-.14l-1.24-.4a.09.09 0 0 1-.06-.06.1.1 0 0 1 0-.08l.17-.4c.02-.06.06-.08.12-.06l1.29.43c.06.01.1 0 .13-.06l.12-.3a.1.1 0 0 0 0-.07.1.1 0 0 0-.06-.06l-1.97-.63c-.06-.02-.1 0-.12.07l-.8 2.53c-.02.06 0 .1.07.12l1.95.62c.06.02.1 0 .12-.06l.1-.3a.09.09 0 0 0 0-.08.1.1 0 0 0-.06-.06l-1.32-.4c-.06-.02-.08-.06-.06-.13Zm-7.96.95c-.86.05-1.39-.4-1.58-1.33-.1-.53.03-.95.4-1.27.21-.17.47-.32.8-.44.72-.15 1.22.02 1.5.51a.1.1 0 0 1 0 .08.09.09 0 0 1-.06.06l-.4.15c-.08.03-.14 0-.19-.06a.58.58 0 0 0-.36-.21.88.88 0 0 0-.44.02.91.91 0 0 0-.4.24.65.65 0 0 0-.18.4c-.02.2 0 .4.07.6.06.2.15.35.28.48.14.13.3.2.47.22a1 1 0 0 0 .62-.21.64.64 0 0 0 .29-.55.12.12 0 0 0-.05-.1.11.11 0 0 0-.11-.02l-.7.24c-.13.04-.2 0-.2-.13l-.01-.1c0-.1.03-.17.13-.2l1.23-.4c.05-.02.1-.01.14 0 .04.03.07.07.09.12l.36 1.18c.02.08 0 .13-.09.16l-.27.07c-.08.02-.14 0-.18-.08a.31.31 0 0 1-.03-.14c0-.16-.03-.17-.11-.03-.23.42-.57.67-1.02.74Zm5.66-3.63h.06c.32.02.57.06.73.1.28.07.48.19.58.35.2.33.16.65-.12.97a.41.41 0 0 1-.23.14.13.13 0 0 0-.06.02c-.06.06-.06.1 0 .14.09.05.16.1.21.17.05.06.07.12.08.18.02.34 0 .65-.08.95l-.5-.1c-.1-.02-.13-.08-.12-.17l.06-.47c.04-.27-.08-.43-.35-.47l-.45-.07c-.14-.02-.21.04-.23.18l-.07.72c-.02.12-.08.18-.2.17l-.3-.03c-.12 0-.17-.07-.16-.19l.25-2.52c0-.08.05-.12.14-.12l.76.05Zm-.29.6a.1.1 0 0 1 .04-.08.1.1 0 0 1 .08-.02l.62.07c.1.01.19.06.25.14.07.08.1.17.08.27v.03a.35.35 0 0 1-.14.25.38.38 0 0 1-.28.07l-.62-.07a.1.1 0 0 1-.07-.03.1.1 0 0 1-.02-.08l.06-.56Zm-7.65 3.13c.17.11.2.08.1-.09l-1.05-1.64c-.03-.05-.02-.1.03-.13l.39-.24c.05-.04.1-.03.13.03l1.38 2.23c.06.08.04.15-.04.2l-.7.42a.2.2 0 0 1-.22 0l-1.8-1.2c-.14-.1-.16-.07-.07.08l1.04 1.64c.03.05.02.1-.03.13l-.32.25c-.07.06-.14.05-.19-.04L18.72 16c-.06-.08-.04-.16.05-.21l.67-.42a.22.22 0 0 1 .25 0l1.75 1.19Zm15.63-.95a1.92 1.92 0 0 0-1-.58c-.53-.04-.85.2-.96.71-.03.2.03.4.2.6a3.62 3.62 0 0 0 .66.63c.07.07.11.14.12.24 0 .13-.05.24-.16.32a.33.33 0 0 1-.36.02c-.23-.12-.4-.27-.53-.46a.16.16 0 0 1-.02-.16c.12-.27 0-.46-.34-.58-.1-.04-.17 0-.21.1-.13.36-.07.69.17.97.4.48.89.72 1.45.73a1.14 1.14 0 0 0 .63-.58c.13-.3.07-.58-.16-.82a7.24 7.24 0 0 0-.7-.64.26.26 0 0 1-.1-.22c0-.11.05-.2.15-.26.1-.06.2-.07.3-.03.38.14.55.37.52.69-.01.08.01.14.07.18l.31.24c.08.05.13.04.17-.05.15-.38.08-.73-.2-1.05Zm.38 2.73c-.24.24-.25.5 0 .74l.14.14c.23.24.47.24.71.01l1.24-1.2a.14.14 0 0 1 .1-.03c.04 0 .07 0 .1.03l.3.27c.02.02.04.05.04.08l-.03.09c-.52.54-1 1-1.45 1.36-.26.22-.56.25-.91.1-.3-.13-.55-.34-.77-.63-.39-.53-.36-1.01.1-1.45l1.21-1.2c.05-.05.1-.05.15 0l.33.32c.05.04.05.09 0 .13l-1.26 1.24Zm-19.87-1.17 2.32 1.1c.04.03.06.06.07.1 0 .05 0 .08-.04.12l-.22.2a.28.28 0 0 1-.34.05l-.22-.12c-.08-.05-.16-.04-.22.03l-.74.74c-.06.06-.07.13-.01.2l.15.25c.05.06.05.13 0 .2-.08.16-.22.3-.4.42l-1.26-2.6a.17.17 0 0 1 .03-.22l.52-.5c.06-.07.14-.08.22-.04l.14.07Zm-.16.62.98.47c.04.02.06.05.06.1.01.04 0 .07-.03.1l-.44.4c-.07.07-.13.06-.17-.03l-.47-.96c-.05-.1-.02-.12.07-.08Zm-1.86 1.26 1.76 2.11c.08.09.08.18.02.28l-.34.55c-.06.1-.13.12-.23.1l-2.72-.63c0-.21.11-.4.31-.55a.16.16 0 0 1 .14-.03l2.07.5c.1.03.12 0 .05-.07l-1.38-1.64a.18.18 0 0 1-.04-.16c.06-.25.18-.4.36-.46Zm23.54 2.99c.13.15.31.23.53.23.1 0 .13.04.07.13-.03.03-.06.04-.1.04a.1.1 0 0 0-.1.03.1.1 0 0 0-.02.08c.02.13.07.26.16.38.06.07.12.08.2.04l1.06-.64a.16.16 0 0 0 .07-.1.15.15 0 0 0-.02-.12l-.7-1.15c-.06-.08-.12-.1-.2-.07a.36.36 0 0 0-.11.07c-.1.08-.12.18-.04.29l.36.54c.04.04.04.1.01.15a.14.14 0 0 1-.12.08c-.42 0-.7-.2-.88-.63-.1-.25-.06-.5.14-.72.17-.2.38-.34.66-.43.5-.19.88.01 1.1.58.09.22.06.41-.09.57-.07.08-.08.16-.02.25l.2.29c.07.1.14.1.23.02a1 1 0 0 0 .3-.9 2 2 0 0 0-.4-.9 1.4 1.4 0 0 0-.99-.61c-.39-.05-.75.06-1.1.33-.84.65-.91 1.37-.2 2.17Zm-22.78.92a.46.46 0 0 0-.2 0l-2.56.02a.22.22 0 0 0-.22.16l-.22.66c-.03.1-.01.17.07.23l2.1 1.64c.17.12.28-.02.35-.42a.18.18 0 0 0-.08-.18l-.3-.21c-.06-.05-.07-.1-.05-.17l.34-1c.03-.09.09-.12.18-.12l.3.03c.09 0 .15-.03.19-.11l.17-.38c.03-.08 0-.13-.07-.15Zm-1.52 1.37.2-.58c.04-.1 0-.15-.1-.15h-1.09c-.12 0-.13.04-.03.11l.87.66c.07.06.12.04.15-.04Zm25.7-.53-.45-.02a.13.13 0 0 1-.12-.1l-.12-.35a.14.14 0 0 1 .02-.13.14.14 0 0 1 .12-.06l2.73.09c.06 0 .1.03.13.1l.26.76c.02.06 0 .11-.05.16l-2.2 1.65a.13.13 0 0 1-.13.02.13.13 0 0 1-.1-.09l-.11-.37c-.03-.07 0-.12.05-.16l.34-.23c.06-.04.08-.09.06-.15l-.31-1.02a.13.13 0 0 0-.13-.1Zm.73.35-.09-.18c-.05-.1-.02-.16.1-.16l1.03.02c.17 0 .18.06.05.16l-.84.63c-.08.06-.13.04-.14-.06l-.03-.17a.88.88 0 0 0-.08-.24ZM15.37 27.1c.03-.44-.13-.8-.48-1.12a1.84 1.84 0 0 0-1.4-.25c-.23.06-.43.16-.6.3-.16.17-.27.39-.32.64-.09.49-.14 1-.17 1.52 0 .06.03.09.08.1l2.73.25c.08-.47.13-.95.16-1.44Zm-2.4.46c0 .06.02.1.08.1l1.62.17c.07 0 .1-.02.1-.08l.06-.53a.73.73 0 0 0-.17-.56.73.73 0 0 0-.51-.28l-.29-.03a.73.73 0 0 0-.56.17.74.74 0 0 0-.27.52l-.06.52Zm29.08.52a.51.51 0 0 1-.34.31c-.1.04-.27.07-.5.1l-.24.02c-.07.01-.12-.02-.12-.1L40.8 28c0-.04 0-.07.03-.1a.12.12 0 0 1 .08-.05l.54-.06c.26-.04.38-.18.38-.44v-.47c0-.12-.07-.18-.19-.16l-.8.07c-.1 0-.14-.03-.15-.12l-.04-.37c0-.11.04-.17.15-.18l2.6-.22c.05 0 .08.02.09.08.05.5.1 1.01.13 1.52a.9.9 0 0 1-.07.46.73.73 0 0 1-.26.31c-.25.17-.54.17-.85.01a.42.42 0 0 1-.14-.11l-.08-.1c-.08-.1-.13-.1-.17.02Zm.92-1.5c.04 0 .07.02.07.06l.06.7c0 .09-.02.17-.07.24a.3.3 0 0 1-.21.11l-.14.02a.28.28 0 0 1-.23-.08.33.33 0 0 1-.11-.23l-.06-.7c0-.04.02-.06.06-.07l.63-.05Zm-28.06 3.59.12.05c.06.02.06.05 0 .08l-.05.03a1 1 0 0 0-.59.12.56.56 0 0 0-.3.47c0 .12-.03.23-.08.33-.04.11-.08.1-.09-.01-.03-.3-.1-.52-.2-.65-.14-.16-.36-.25-.68-.26-.3-.02-.31-.06-.01-.14.34-.08.56-.17.67-.28.12-.12.2-.34.23-.68.02-.14.04-.14.07 0 .15.63.45.94.9.94Zm28.22.02-.7-.16c-.02 0-.04-.03-.05-.06l-.16-.69c0-.04-.03-.06-.07-.06-.04 0-.06.02-.07.06l-.16.7c0 .02-.02.04-.05.05l-.7.15c-.04.01-.05.04-.05.08s.01.06.05.07l.7.16c.02 0 .04.02.05.05l.16.7c0 .03.03.05.07.05.04 0 .06-.02.07-.05l.16-.7c0-.03.03-.05.06-.05l.69-.16c.04 0 .06-.03.06-.07 0-.04-.02-.06-.06-.07Zm-28.25 4.09.02-.28c.08-.2.2-.35.36-.47.15-.12.32-.2.5-.22.18-.02.35 0 .51.09.17.09.31.23.42.44.13.26.1.5-.08.75-.05.07-.11.08-.18.03l-.04-.03c-.03-.02-.03-.04-.02-.07l.15-.29a.25.25 0 0 0 0-.22c-.18-.46-.5-.58-.96-.37a.78.78 0 0 0-.34.3.6.6 0 0 0-.1.39c.02.13.08.25.18.34.1.1.25.16.43.18.03 0 .05.01.07.04.01.02.02.05 0 .08l-.01.05c-.03.07-.08.1-.16.08-.43-.12-.69-.4-.75-.82Zm24.09.13a.12.12 0 0 1-.07-.08.12.12 0 0 1 0-.1l.24-.46a.8.8 0 0 1 .5-.42.82.82 0 0 1 .65.05l.1.06c.21.1.35.27.43.49.07.22.06.44-.05.64l-.24.47a.12.12 0 0 1-.07.06.13.13 0 0 1-.1 0l-1.4-.71Zm.32-.1a.15.15 0 0 1-.08-.1.15.15 0 0 1 0-.12l.1-.2c.08-.16.2-.26.37-.31a.6.6 0 0 1 .47.03l.16.08c.15.08.25.2.3.36a.6.6 0 0 1-.02.47l-.1.2a.14.14 0 0 1-.1.08.16.16 0 0 1-.12 0l-.98-.5Zm-1.88 2.37-.14-.02c.2-.4.45-.73.78-1 .11-.09.15-.06.1.08a.5.5 0 0 1-.14.23c-.1.08-.09.16 0 .23l1.07.87c.06.04.06.09 0 .14l-.05.05c-.03.03-.06.03-.08 0l-1.15-.94c-.02-.02-.05-.02-.07 0l-.32.36ZM18 36.05c.34.22.52.48.56.76.04.3-.1.58-.4.87-.56.3-.97.24-1.26-.15a.9.9 0 0 1-.07-1c.2-.41.6-.57 1.17-.48Zm0 1.42c.33-.24.42-.67.2-.96-.21-.3-.65-.34-.97-.1-.32.24-.41.67-.2.96.22.3.65.33.98.1Zm1.86 1.39c.05-.3-.01-.31-.17-.07l-.48.74a.13.13 0 0 1-.17.04l-.05-.02c-.05-.03-.06-.07-.02-.11l.76-1.1c.3-.42.44-.37.41.15a5 5 0 0 1-.13.9c0 .03 0 .06.03.08.03.02.06.02.1 0l.98-.54a.2.2 0 0 1 .13-.01l.06.01c.05.02.07.05.08.1.02.04.01.08-.02.12l-.9 1.3c-.04.05-.07.05-.11.01l-.06-.04a.1.1 0 0 1-.04-.08c0-.03 0-.06.03-.08.2-.27.4-.54.6-.84.1-.14.07-.16-.08-.08l-.76.45a.18.18 0 0 1-.21 0 .18.18 0 0 1-.09-.2l.11-.73Zm17.35.01-.55.45c-.03.02-.05.01-.07-.01l-.98-1.16c-.02-.03-.05-.03-.07 0l-.09.1v.05l1.08 1.32c.02.03.04.03.07 0l.73-.6c.03-.02.03-.04 0-.07l-.05-.07c-.02-.03-.04-.03-.07 0Zm-5.1 1.89.04-.69c0-.06.04-.1.1-.1h.08c.07-.02.1.01.1.08-.04.3-.1.6-.17.9a.67.67 0 0 0 0 .33 2 2 0 0 0 .12.3l.04.12a.12.12 0 0 1-.07.15l-.06.02c-.04.01-.07 0-.09-.04a3 3 0 0 1-.05-.16 1.42 1.42 0 0 0-.3-.58l-.68-.68c-.02-.02-.02-.04 0-.07l.04-.06c.04-.05.08-.05.12-.01l.59.56c.12.12.18.09.2-.07Zm-9.45.14-.21.52c-.02.04-.04.05-.08.05l-.1-.02c-.06 0-.08-.04-.06-.09l.59-1.5c.03-.08.08-.11.16-.09.52.16.81.38.88.68a.3.3 0 0 1-.04.21c-.24.4-.56.47-.98.19-.07-.05-.13-.03-.16.05Zm.56-.81.3.19c.05.04.08.09.1.15a.2.2 0 0 1-.06.18l-.12.12a.2.2 0 0 1-.22.07l-.26-.08a.21.21 0 0 1-.15-.27l.08-.25a.21.21 0 0 1 .14-.13.2.2 0 0 1 .19.02Zm6.51.62.13 1.73a.34.34 0 0 1-.11.02.18.18 0 0 1-.15-.07l-.88-1.1c-.1-.12-.15-.1-.13.06l.13 1.13c0 .03-.01.05-.05.06l-.06.01a.1.1 0 0 1-.09-.02.1.1 0 0 1-.04-.07c-.08-.5-.13-1-.13-1.5 0-.3.1-.34.29-.1l.81 1.02c.13.16.18.14.16-.07l-.14-1.04c0-.07.02-.1.09-.11.04-.01.1 0 .17.05Zm-4.62 1.6c-.07-.08.38-.86.65-1.34l.07-.11c.2-.36.34-.34.43.06l.32 1.5c0 .05-.01.07-.06.08l-.1.01h-.02l-.18-.47c-.03-.08-.09-.1-.17-.09a.54.54 0 0 1-.36-.04c-.08-.03-.14-.02-.19.05-.06.08-.1.16-.14.25a.2.2 0 0 1-.09.1c-.05.03-.1.03-.16 0Zm.65-.56c-.03 0-.05-.02-.05-.05v-.03c.03-.17.07-.31.12-.43.06-.1.12-.16.18-.15.06 0 .1.07.13.2.03.11.03.26.01.43v.03c0 .03-.02.05-.06.04l-.33-.04Z"/><defs><linearGradient id="a" x1="12.69" y1="29.64" x2="44.3" y2="29.64" gradientUnits="userSpaceOnUse"><stop stop-color="#0499AE"/><stop offset="1" stop-color="#78D65A"/></linearGradient></defs></svg>