<svg xmlns="http://www.w3.org/2000/svg" width="56" height="56"><path fill="#F0F3FA" d="M0 0h56v56H0z"/><path d="M22.75 30.53a1.9 1.9 0 00-.52-.42c-.41-.22-.96-.19-1.28.19-.37.44-.37.94 0 1.39.31.37.83.38 1.24.19.19-.1.39-.24.6-.43l-.05 2.27c-.39.18-.82.28-1.24.28a2.4 2.4 0 01-1.31-.38 3.06 3.06 0 01-1.19-3.7c.27-.78.8-1.4 1.46-1.7a2.55 2.55 0 012.29.08v2.23zm2.6 1.77c.12 0 .22-.05.3-.16.08-.1.12-.24.12-.42a.68.68 0 00-.12-.42.36.36 0 00-.3-.16.37.37 0 00-.32.16.7.7 0 00-.11.42c0 .18.03.32.11.43.08.1.18.15.32.15zm2.1-.58a2.45 2.45 0 01-.67 1.7 2.01 2.01 0 01-1.44.59c-.28-.01-.54-.06-.78-.16s-.46-.24-.65-.44a2.26 2.26 0 01-.5-.76 2.5 2.5 0 01.5-2.61 1.96 1.96 0 011.44-.6 2.01 2.01 0 011.44.6c.21.21.37.46.5.76.1.3.17.6.17.92zm.55-2V34h2v-1.72a.9.9 0 01.18-.6c.13-.14.3-.21.52-.21.14 0 .3.06.5.18V29.6c-.26-.05-.54.04-.75.17-.19.12-.35.3-.5.55v-.6H28zm6.1 2.75c.27 0 .45-.25.45-.62 0-.38-.18-.63-.45-.63s-.45.25-.45.63c0 .37.18.62.45.62zM31.7 36v-6.29h1.95v.57c.3-.48.68-.7 1.12-.7 1.14 0 1.46 1.4 1.46 2.3 0 .87-.35 2.24-1.46 2.22-.4 0-.81-.24-1.07-.69V36h-2zM8 32.16c.41 0 .71-.1.9-.28.2-.2.29-.48.29-.88s-.1-.68-.28-.87c-.18-.2-.45-.29-.83-.29H8v2.32zM6 34v-6h1.67c.47 0 .87.03 1.2.1.33.05.56.15.76.28.44.27.78.63 1.02 1.08.23.45.35.96.35 1.54 0 .57-.12 1.08-.35 1.53-.23.44-.57.8-1.02 1.08a2.1 2.1 0 01-.77.29c-.33.06-.86.1-1.33.1H6zm7.5-2.45v.96h.3c.19 0 .33-.04.43-.13.1-.08.15-.2.15-.35 0-.16-.05-.28-.15-.36a.64.64 0 00-.42-.12h-.31zm0-2.13v.84h.24c.15 0 .26-.03.34-.1.08-.08.12-.18.12-.32s-.04-.24-.12-.31c-.08-.07-.2-.1-.34-.1h-.24zm-2 4.57V28h2.72c.52 0 .93.14 1.22.43.3.29.44.69.44 1.2 0 .33-.07.6-.21.82a.95.95 0 01-.59.42c.35.09.6.25.78.48.17.23.25.55.25.94 0 .56-.16.99-.48 1.27-.32.29-.8.43-1.42.43H11.5zM39 34v-6h2v4h1.42v2H39zm4 0v-3h-.5v-1.6h.5V28h2v1.4h.5V31H45v3h-2zm4.77-2.57a.4.4 0 01.33-.16c.13 0 .24.05.32.16.09.12.13.27.13.45 0 .19-.04.34-.13.46a.38.38 0 01-.32.18.38.38 0 01-.33-.18.77.77 0 01-.12-.46c0-.18.04-.33.12-.45zM50.5 34v-6h-2v1.6a11.76 11.76 0 00.03.75c-.14-.25-.3-.43-.49-.55-.18-.12-.39-.19-.62-.19-.42 0-.77.21-1.04.63-.28.42-.42.96-.42 1.62 0 .7.14 1.25.4 1.67.27.42.63.63 1.06.63.24 0 .46-.06.65-.2.2-.12.37-.32.52-.59V34h1.91z"/><path d="M28 14l.25 1.6.43-1.56.07 1.63.6-1.51-.11 1.62.78-1.43-.3 1.6.93-1.33-.49 1.55 1.08-1.22-.65 1.5 1.2-1.1-.82 1.41 1.33-.94-.98 1.3 1.43-.78-1.12 1.18 1.5-.62-1.24 1.05 1.57-.44-1.36.9 1.6-.26-1.45.73 1.63-.07-1.53.56 1.63.12-1.58.38 1.6.3-1.62.2 1.56.48-1.63.02 1.5.66-1.63-.17 1.41.82-1.59-.35 1.3.97-1.53-.53 1.18 1.12-1.47-.7 1.05 1.24-1.38-.86.9 1.35-1.27-1.02.75 1.45-1.15-1.15.57 1.52-1-1.27.39 1.58-.86-1.39.21 1.62-.7-1.48.03 1.63-.52-1.54-.16 1.62-.34-1.6-.34 1.6-.16-1.62-.52 1.54.02-1.63-.69 1.48.21-1.62-.86 1.39.4-1.58-1.01 1.27.57-1.52-1.15 1.15.75-1.45-1.28 1.02.9-1.35-1.37.86 1.05-1.24-1.47.7 1.18-1.12-1.54.53 1.3-.97-1.58.35 1.4-.82-1.61.17 1.49-.66-1.63-.02 1.56-.47-1.62-.2 1.6-.3-1.58-.4 1.63-.1-1.53-.57 1.63.07-1.46-.73 1.61.25-1.36-.9 1.57.45-1.25-1.05 1.51.62-1.12-1.18 1.43.78-.98-1.3 1.33.94-.83-1.4 1.21 1.08-.65-1.49 1.08 1.22-.49-1.55.94 1.33-.3-1.6.77 1.43-.12-1.62.61 1.5.07-1.62.43 1.57L28 14z" fill="#F99D1C"/></svg>