<svg width="56" height="56" viewBox="0 0 56 56" xmlns="http://www.w3.org/2000/svg"><path fill="#F0F3FA" d="M0 0h56v56H0z"/><path d="M42 28c-2.92-.04-3.17 2.3-2.93 3.47l3.1-1.94-2.4 2.47h1.33c2.48 0 2.96-1.82 2.9-2.73V28.1c-.32-.04-1.17-.11-2-.11Z" fill="#52A141"/><path fill-rule="evenodd" d="M14.65 20H8v16h6.65c3.5 0 6.35-2.57 6.35-7.08v-1.54c0-4.84-2.84-7.38-6.35-7.38Zm-.07 3H11v10h3.58c1.89 0 3.42-1.6 3.42-4.42v-.97C18 24.6 16.47 23 14.58 23Z" fill="#053B15"/><path d="M38.56 26.02 38.07 32c-.95-.47-2.07-2.33-2.07-3.88 0-1.55 1.4-3.18 2.56-4.12.9.6 2.44 2.91 2.44 3.51-1.67.34-2.1 1.9-2.12 2.63l-.32-4.12Z" fill="#52A141"/><path fill-rule="evenodd" d="M28 20h-8v1.4c1 .9 2.34 2.91 2.34 6.15 0 4.3-.99 5.97-2.34 6.98V36h8.59a4.41 4.41 0 0 0 1.47-8.57A4 4 0 0 0 28 20Zm-.5 3H23v3h4.5a1.5 1.5 0 0 0 0-3Zm.5 6h-5v4h5a2 2 0 1 0 0-4Z" fill="#053B15"/><path fill-rule="evenodd" d="M32.04 27.06a3.9 3.9 0 0 0 1.52-3.83 8 8 0 1 1 .49 10.13 4.4 4.4 0 0 0-2.06-5.71l.05-.6ZM45 28a5 5 0 1 1-10 0 5 5 0 0 1 10 0Z" fill="#053B15"/></svg>