<svg width="56" height="56" viewBox="0 0 56 56" xmlns="http://www.w3.org/2000/svg"><path fill="#F0F3FA" d="M0 0h56v56H0z"/><path fill="#7ACAC9" d="M4 22h48v12H4z"/><path fill-rule="evenodd" d="M6 26v4h4.48c.84 0 1.52-.59 1.52-1.31V27.3c0-.72-.68-1.31-1.52-1.31H6Zm1.5 1v2h2.38c.34 0 .62-.26.62-.58v-.84c0-.32-.28-.58-.62-.58H7.5Zm9.13-1H12.5v4h4.4c.29 0 1.1-.27 1.1-1.05 0-.62-.45-.93-.68-1 .4-.28.52-.67.52-.83 0-.87-.8-1.11-1.21-1.12ZM14 27.5V27h2.18c.18 0 .32.11.32.25s-.14.25-.32.25H14Zm0 1.5v-.5h2.36c.19 0 .34.11.34.25s-.15.25-.34.25H14Z" fill="#fff"/><path d="M21 30v-4h3.5a1 1 0 0 1 1 1v.15c0 .51-.2.9-.52 1.12.28.04.52.28.52.56V30H25v-1.14c0-.23-.26-.36-.5-.36h-3V30H21Zm.5-3.5V28h2.86c.36 0 .64-.27.64-.6v-.3c0-.33-.28-.6-.64-.6H21.5ZM31 30h-4v-4h4v.5h-3.5v1.25h3.3v.5h-3.3v1.25H31v.5ZM34 26h.67l2.4 4h-.6l-.6-1h-3.01l-.6 1h-.6l2.34-4Zm-.85 2.5h2.43l-1.22-2.04-1.2 2.04Zm4.87-2.5h-.5v4H41v-.5h-3V26Zm2.49 0v.5h2V30h.5v-3.5h2V26h-4.5Zm4.82 0h.66l1.8 1.83L49.65 26h.67L48 28.3V30h-.5v-1.7L45.32 26Z"/><path fill="#fff" d="M19.5 23h.5v10h-.5z"/></svg>