<svg width="56" height="56" viewBox="0 0 56 56" xmlns="http://www.w3.org/2000/svg"><path fill="#F0F3FA" d="M0 0h56v56H0z"/><path d="M27.96 16.38c1.52 0 2.75-1.2 2.75-2.69 0-1.48-1.23-2.69-2.75-2.69a2.72 2.72 0 0 0-2.74 2.7c0 1.48 1.23 2.68 2.74 2.68Z" fill="#A2ACB5"/><path d="M31.74 23.04a52.52 52.52 0 0 0-3.59 3.57c-.06.07-.09.17-.09.3-.08-.01-.15 0-.2.06a12.66 12.66 0 0 0-2.14 3.92 8.05 8.05 0 0 0-.28 3.38 10.3 10.3 0 0 0 2.55 6c-.31.26-.61.44-.9.55-3.06-1.78-4.94-4.2-5.64-7.23a11.47 11.47 0 0 1 1.43-8.68c.23-.39.7-1.03 1.4-1.93l3.68-3.19c.05.02.13-.01.24-.1 2.87-2.38 5.25-4.32 7.15-5.83.06-.04.08-.1.05-.17a3.83 3.83 0 0 0-.13-.26 2.78 2.78 0 0 1-.24-.58c-.05-.21 0-.38.13-.5.18-.15.35-.15.52.01l.52.47a28.3 28.3 0 0 1 2.9 2.91c.2.27.25.54.13.83-.07.18-.24.41-.52.7-.53.55-1.18 1.13-1.94 1.74-1.7 1.34-3.37 2.68-5.03 4.03Z" fill="#D27929"/><path d="m27.96 19.8-3.68 3.18A161.5 161.5 0 0 1 19.2 19a22.8 22.8 0 0 1-2.1-1.95c-.48-.51-.48-1.03 0-1.56.72-.8 1.67-1.74 2.82-2.79.28-.25.56-.39.82-.4.1-.01.2.02.26.1.07.09.1.18.06.28-.09.34-.24.66-.45.94-.08.11-.06.21.05.3l7.31 5.87Z" fill="#1D508F"/><path d="M28.1 41.27c.35-.28.63-.43.83-.45a8.32 8.32 0 0 0 5.65-1.48c4.05-2.86 5.58-6.75 4.57-11.67a7.55 7.55 0 0 0-2.72-4.4c-.33-.27-.82-.6-1.46-1.01-.23-.15-.3-.35-.2-.61v-.02c.09-.25.27-.32.54-.2 1.27.57 2.53 1.27 3.8 2.11 3.68 2.46 5.29 5.88 4.8 10.25a9.81 9.81 0 0 1-1.19 3.76 10.22 10.22 0 0 1-2.58 3.02 11.34 11.34 0 0 1-6.32 2.42c-.4.03-.88-.04-1.44-.2a37.56 37.56 0 0 1-4.28-1.52Z" fill="#D27929"/><path d="M27.1 40.82c.28-.1.58-.3.89-.56a9.49 9.49 0 0 0 2.22-4.03c.35-1.22.48-2.47.4-3.75-.11-1.78-.96-3.64-2.55-5.57 0-.13.03-.23.1-.3a52.5 52.5 0 0 1 3.58-3.57c2.09 2.37 3.12 5 3.1 7.93-.02 4.29-1.99 7.57-5.91 9.85-.2.02-.48.17-.83.45-1.89.7-3.46 1.22-4.71 1.6-.5.14-1.09.17-1.76.08a11.4 11.4 0 0 1-4.8-1.7 9.88 9.88 0 0 1-4.68-7.1c-.22-1.47-.2-2.86.08-4.16a9.57 9.57 0 0 1 3.04-5.15 20.94 20.94 0 0 1 5.17-3.3.9.9 0 0 1 .67-.04c.2.06.28.19.22.39a.58.58 0 0 1-.25.33c-.64.42-1.11.75-1.4.98a7.98 7.98 0 0 0-2.96 5.19A10.5 10.5 0 0 0 20 38.23a9.17 9.17 0 0 0 7.1 2.6Z" fill="#1D508F"/></svg>