<svg xmlns="http://www.w3.org/2000/svg" width="56" height="56"><path fill="url(#ajif2pis3)" d="M0 0h56v56H0z"/><path d="M38.08 32c-1.54 0-2.97-.81-4.87-2.47-3.55-3.08-8.92-7.76-11.56-5.93-.6.41-1.27 1.14-2.04 1.98-2.37 2.58-5.63 6.1-11.25 6.1H4v-.18h4.36c5.57 0 8.78-3.5 11.13-6.05.79-.84 1.46-1.59 2.07-2.01 2.74-1.9 8.16 2.82 11.76 5.94 3.49 3.03 5.37 3.17 9.2.66.64-.42 1.25-.88 1.84-1.38 1.35-1.12 2.32-1.9 5.55-2.4.65-.1 1.31-.15 1.98-.14H52v.19h-.12c-.65 0-1.3.04-1.95.14-3.18.48-4.14 1.27-5.47 2.36-.6.5-1.2.97-1.85 1.4C40.77 31.4 39.4 32 38.08 32z" fill="#E73337"/><path d="M36.85 31.31c-1.41 0-2.84-.54-4.6-1.79l-1.53-1.1c-3.5-2.56-7.5-5.46-9.81-4.22-.68.36-1.4 1.08-2.26 1.9-2.2 2.16-5.23 5.1-10.38 5.1H4v-.18h4.16c5.16.04 8.18-2.9 10.38-5.04a11.6 11.6 0 012.3-1.94c2.4-1.3 6.43 1.64 9.98 4.23.52.38 1.03.75 1.54 1.1 3.58 2.56 5.8 2.09 9.41.07l.91-.52c1.96-1.12 2.86-1.64 7.01-2.18.72-.1 1.45-.14 2.18-.13H52v.19h-.12c-.72-.01-1.44.03-2.16.12-4.12.54-5 1.05-6.95 2.16-.28.16-.57.34-.91.52-1.92 1.08-3.45 1.71-5 1.71z" fill="#D94745"/><path d="M8.2 30.73h-.26c-1.6-.02-3.28-.02-3.84-.02H4v-.19h.12c.55 0 2.23 0 3.83.03 4.79.09 7.61-2.36 9.67-4.14.92-.8 1.71-1.48 2.48-1.78 2.2-.84 5.37 1.12 8.46 3.05.93.58 1.9 1.18 2.82 1.68 3.58 1.97 6.14 1.07 9.65-.54 2.14-.98 3.1-1.08 5.96-1.36l2.49-.26c.79-.08 1.59-.12 2.38-.11h.12v.18h-.12c-.79 0-1.58.03-2.37.12l-2.48.25c-2.92.29-3.8.38-5.91 1.36-3.55 1.62-6.14 2.54-9.8.52-.92-.5-1.89-1.12-2.83-1.7-3.04-1.88-6.2-3.84-8.31-3.01-.75.28-1.54.96-2.44 1.75-2.04 1.77-4.82 4.18-9.53 4.18z" fill="#CC5754"/><path d="M8.14 30.26h-.4c-1.54-.04-3.1-.04-3.63-.04H4v-.19h.11c.51 0 2.1 0 3.63.04 4.44.12 6.95-1.76 8.98-3.28.97-.73 1.8-1.36 2.65-1.56 2.02-.5 4.55.84 7.23 2.27 1.24.7 2.51 1.3 3.81 1.85 3.22 1.27 5.76.35 8.98-.81l.9-.31a9.1 9.1 0 013.9-.42c1.69.08 3.39.04 5.08-.12 1.18-.1 2.13-.1 2.6-.1h.1v.18h-.1c-.47 0-1.42 0-2.59.1-1.7.17-3.4.21-5.11.12-1.45-.05-2.41-.08-3.84.42l-.89.32c-3.12 1.12-5.82 2.1-9.1.81a38.72 38.72 0 01-3.83-1.86c-2.64-1.41-5.14-2.76-7.1-2.27-.81.2-1.64.82-2.6 1.54-1.88 1.4-4.42 3.3-8.67 3.3z" fill="#BE6463"/><path d="M8.14 29.79h-.6c-1.47-.06-2.89-.05-3.43-.05H4v-.2h.11c.54 0 1.97 0 3.43.06 4.09.16 6.42-1.3 8.3-2.47 1.01-.64 1.88-1.19 2.8-1.3 1.85-.2 3.96.75 6.19 1.77 1.51.69 3.07 1.4 4.62 1.77 2.61.61 4.93-.13 7.38-.93.88-.28 1.8-.58 2.73-.8 1.21-.3 2.17-.11 3.38.13 2.01.45 4.08.59 6.13.4 1.25-.09 2.34-.09 2.8-.09H52v.19h-.12c-.5 0-1.53 0-2.79.09-2.06.19-4.15.05-6.18-.41a7.07 7.07 0 00-3.32-.13c-.93.22-1.84.52-2.72.8-2.47.8-4.8 1.55-7.47.93-1.55-.37-3.12-1.09-4.65-1.78-2.2-1-4.3-1.96-6.1-1.75-.88.1-1.74.64-2.74 1.27-1.78 1.11-4 2.5-7.76 2.5z" fill="#AD6F72"/><path d="M29.14 29.57c-.23 0-.45 0-.68-.03-1.99-.16-3.94-.88-5.81-1.57-1.67-.62-3.25-1.2-4.75-1.36-1-.1-1.9.35-3.04.93-1.73.86-3.87 1.96-7.54 1.76-1.38-.07-2.7-.06-3.2-.06H4v-.2h.12c.5 0 1.82 0 3.2.07a13.4 13.4 0 007.47-1.74c1.16-.59 2.08-1.05 3.13-.94 1.51.15 3.1.74 4.78 1.36 1.87.7 3.8 1.4 5.77 1.56 2.18.17 4.26-.53 6.27-1.22 1.4-.48 2.73-.93 4.1-1.11 1.08-.14 1.98.18 3.12.58 2.21.87 4.56 1.22 6.9 1.04 1.32-.08 2.5-.08 3.01-.08h.11v.19h-.11c-.51 0-1.69 0-3 .07-2.36.2-4.74-.16-6.97-1.04-1.12-.4-2-.71-3.06-.58-1.34.18-2.66.63-4.05 1.1-1.82.63-3.7 1.27-5.65 1.27z" fill="#9B7880"/><path d="M26.84 29.56c-1.95 0-3.8-.63-5.6-1.24-1.4-.48-2.73-.93-4.1-1.1-1.04-.14-1.93.17-3.06.55a15.73 15.73 0 01-6.98 1.04 47.2 47.2 0 00-3-.08H4v-.18h.12c.5 0 1.68 0 3 .08 2.35.18 4.7-.17 6.92-1.03 1.15-.4 2.05-.72 3.14-.58 1.37.17 2.7.62 4.1 1.12 2 .68 4.06 1.38 6.22 1.21 1.75-.14 3.48-.84 5.16-1.54 1.91-.79 3.73-1.53 5.43-1.4.93.07 1.77.49 2.75.97 1.74.84 3.92 1.92 7.8 1.72 1.4-.06 2.73-.06 3.22-.06h.12v.18h-.12c-.5 0-1.82 0-3.2.07-3.94.2-6.14-.88-7.9-1.74a7.65 7.65 0 00-2.68-.95c-1.67-.14-3.46.6-5.37 1.38-1.69.7-3.43 1.4-5.2 1.55-.22.03-.45.03-.67.03z" fill="#857F8E"/><path d="M47.84 29.78c-3.77 0-5.98-1.4-7.77-2.52-1-.62-1.86-1.16-2.74-1.26-1.79-.21-3.88.74-6.1 1.75-1.53.7-3.1 1.4-4.66 1.78-2.64.62-4.95-.12-7.39-.9-.9-.29-1.82-.6-2.77-.82a7.26 7.26 0 00-3.32.13c-2.04.45-4.12.58-6.19.4-1.24-.1-2.28-.09-2.78-.09H4v-.19h.12c.46 0 1.55 0 2.8.1 2.06.17 4.12.04 6.14-.4a7.3 7.3 0 013.4-.14c.95.23 1.88.53 2.77.82 2.42.79 4.7 1.53 7.3.91 1.54-.36 3.12-1.08 4.64-1.77 2.24-1.02 4.35-1.98 6.18-1.76.92.1 1.79.65 2.81 1.28 1.86 1.18 4.2 2.64 8.28 2.49 1.46-.06 2.89-.05 3.42-.05h.12v.18h-.12c-.53 0-1.96 0-3.41.05l-.61.01z" fill="#6C839C"/><path d="M47.84 30.25c-4.25 0-6.8-1.9-8.67-3.31-.96-.72-1.79-1.34-2.59-1.54-1.95-.48-4.47.84-7.13 2.27-1.24.69-2.52 1.31-3.83 1.86-3.24 1.28-5.77.38-8.97-.77l-.99-.35c-1.43-.5-2.4-.47-3.86-.42-1.7.08-3.41.04-5.11-.12-1.17-.1-2.12-.1-2.58-.1H4v-.2h.12c.46 0 1.41 0 2.59.11 1.69.16 3.39.2 5.09.13 1.48-.05 2.46-.09 3.91.42l1 .35c3.16 1.13 5.65 2.03 8.85.77 1.3-.54 2.58-1.16 3.82-1.85 2.69-1.43 5.23-2.79 7.24-2.29.84.21 1.68.84 2.65 1.57 2.02 1.51 4.53 3.4 8.96 3.28 1.54-.04 3.06-.04 3.63-.04h.12v.19h-.12c-.57 0-2.1 0-3.62.03l-.4.01z" fill="#4886A9"/><path d="M47.78 30.72c-4.7 0-7.48-2.4-9.52-4.17a9.65 9.65 0 00-2.43-1.75c-2.12-.83-5.28 1.13-8.33 3.03-.94.58-1.9 1.19-2.83 1.7-3.61 2-6.2 1.08-9.75-.52-2.16-.98-3.07-1.07-6.06-1.37l-2.37-.25a20.9 20.9 0 00-2.37-.12H4v-.18h.12c.8-.01 1.59.03 2.38.11l2.37.25c3.01.3 3.93.4 6.11 1.39 3.61 1.63 6.06 2.47 9.62.51.91-.5 1.88-1.12 2.8-1.68 3.1-1.92 6.28-3.9 8.48-3.05.76.3 1.56.99 2.48 1.78 2.04 1.78 4.85 4.22 9.66 4.14 1.6-.03 3.28-.03 3.83-.03h.11v.19h-.1c-.56 0-2.24 0-3.84.03h-.24z" fill="#0088B6"/><path d="M19.14 31.3c-1.53 0-3.07-.64-4.97-1.69l-.96-.54c-1.95-1.12-2.84-1.62-6.93-2.15-.72-.1-1.44-.14-2.16-.13H4v-.18h.12c.72-.01 1.45.03 2.18.13 4.12.53 5.02 1.04 6.99 2.17l.96.54c3.68 2.02 5.8 2.46 9.4-.1.49-.35 1-.72 1.5-1.1 3.55-2.58 7.6-5.52 10-4.22.69.37 1.43 1.1 2.3 1.93 2.19 2.14 5.17 5.06 10.27 5.06h4.27v.19h-4.16c-5.23.05-8.27-2.92-10.5-5.1-.84-.82-1.57-1.54-2.24-1.9-2.34-1.27-6.33 1.64-9.85 4.21l-1.52 1.1c-1.74 1.23-3.16 1.77-4.58 1.77z" fill="#008AC2"/><path d="M17.93 32c-1.3 0-2.68-.61-4.5-1.8a20.2 20.2 0 01-1.88-1.4c-1.35-1.1-2.3-1.89-5.48-2.37-.65-.1-1.3-.14-1.95-.14H4v-.18h.12c.66 0 1.32.04 1.97.14 3.21.49 4.26 1.33 5.56 2.4.6.5 1.22.98 1.86 1.4 3.86 2.5 5.66 2.37 9.16-.67 3.57-3.13 9-7.85 11.76-5.95.61.43 1.27 1.16 2.06 2.01 2.36 2.56 5.58 6.06 11.13 6.06H52v.18h-4.4c-5.62 0-8.87-3.53-11.25-6.1a13.92 13.92 0 00-2.04-1.99c-2.64-1.83-8 2.84-11.55 5.93-1.91 1.66-3.33 2.47-4.84 2.47z" fill="#008ACD"/><defs><linearGradient id="ajif2pis3" x1="10.42" y1="9.71" x2="68.15" y2="76.02" gradientUnits="userSpaceOnUse"><stop stop-color="#1A1E21"/><stop offset="1" stop-color="#06060A"/></linearGradient></defs></svg>