<svg width="56" height="56" viewBox="0 0 56 56" xmlns="http://www.w3.org/2000/svg"><path fill="#02B1E6" d="M0 0h56v56H0z"/><path d="M20.78 36.98H8V26h6v6h6.78a4.34 4.34 0 0 0 3.5-1.85 7.97 7.97 0 0 0 2.41 4.76 8.91 8.91 0 0 1-5.91 2.07Zm10.2-11.1a7.56 7.56 0 0 0-2.54-4.65 9.14 9.14 0 0 1 6-2.23H48l-3.42 5h-9.2c-2.12 0-3.52.78-4.4 1.87ZM8 24h13.12c.73.02 2.36.16 2.98 2.03.1.26.19.6.3 1 .91 3.17 2.85 9.94 9.1 9.94h14.4L44.36 32H34.36c-.94 0-3.01-.4-3.8-3.15l-.32-1.24c-.89-3.53-2.14-8.51-8.41-8.51H11.48L8 24Z" fill="#FFE300"/></svg>