<svg width="56" height="56" viewBox="0 0 56 56" xmlns="http://www.w3.org/2000/svg"><path fill="#F0F3FA" d="M0 0h56v56H0z"/><path fill-rule="evenodd" d="M19 21H5v14h14V21Zm16 0H21v14h14V21Zm2 0h14v14H37V21ZM8 23.5h4.52A3.4 3.4 0 0 1 16 26.83v2.34a3.4 3.4 0 0 1-3.48 3.33H8v-9Zm2 1.5h1.76A2.2 2.2 0 0 1 14 27.15v1.7c0 1.19-1 2.15-2.24 2.15H10v-6Zm18.13 7.5c2.32 0 3.48-1.12 3.85-3h-1.76c-.24.9-.8 1.5-2.03 1.5-1.85 0-2.19-1.34-2.19-3s.66-3 2.19-3c1.02 0 1.65.6 1.96 1.5h1.78c-.5-1.88-1.96-3-3.8-3-2.28 0-4.13 2.01-4.13 4.5s1.25 4.5 4.13 4.5Zm10.87 0h2v-7.45l1.87 7.45h2.11L47 25.05v7.45h2v-9h-3.15l-1.8 7.03-1.9-7.03H39v9Z" fill="#C42126"/></svg>