<svg width="56" height="56" viewBox="0 0 56 56" xmlns="http://www.w3.org/2000/svg"><path fill="#F0F3FA" d="M0 0h56v56H0z"/><path fill-rule="evenodd" d="M15.5 34a3.5 3.5 0 1 0 0-7 3.5 3.5 0 0 0 0 7Zm0-1a2.5 2.5 0 1 0 0-5 2.5 2.5 0 0 0 0 5Z" fill="#636466"/><path d="M8.5 27A2.54 2.54 0 0 0 6 29.57v4.03c0 .22.28.4.5.4.22 0 .5-.18.5-.4v-3.84c0-.97.55-1.76 1.5-1.76s1.5.79 1.5 1.76v3.84c0 .22.28.4.5.4.22 0 .5-.18.5-.4v-4.03A2.54 2.54 0 0 0 8.5 27ZM22.5 34a2.54 2.54 0 0 1-2.5-2.57V27.4c0-.22.28-.4.5-.4.22 0 .5.18.5.4v3.84c0 .97.55 1.76 1.5 1.76s1.5-.79 1.5-1.76V27.4c0-.22.28-.4.5-.4.22 0 .5.18.5.4v4.03A2.54 2.54 0 0 1 22.5 34ZM31.52 27c-.16 0-.4.18-.46.33L29 32.23l-2.04-4.9c-.06-.15-.27-.33-.43-.33-.28 0-.6.3-.5.56l2.57 6.17c.15.36.65.36.8 0l2.57-6.17c.1-.27-.17-.56-.45-.56ZM40.5 33c-1 0-1.5-.56-1.5-1.53V27.4c0-.22-.27-.4-.5-.4-.23 0-.5.18-.5.4v4.03A2.49 2.49 0 0 0 40.5 34c.25 0 .5-.18.5-.5s-.25-.5-.5-.5ZM44.5 33c-1 0-1.5-.56-1.5-1.53V27.4c0-.22-.27-.4-.5-.4-.23 0-.5.18-.5.4v4.03A2.49 2.49 0 0 0 44.5 34c.25 0 .5-.18.5-.5s-.25-.5-.5-.5ZM36.32 28.13a1.85 1.85 0 0 0-.68-.13c-1 0-1.64.56-1.64 1.53V30h1.56c.23 0 .44.26.44.48 0 .22-.21.52-.44.52H34v.47c0 .97.64 1.53 1.64 1.53.24 0 .47-.05.68-.13.24-.1.55-.01.63.22.29.77-.82.91-1.3.91A2.6 2.6 0 0 1 33 31.43v-1.86A2.6 2.6 0 0 1 35.64 27c.5 0 1.6.14 1.31.9-.08.24-.39.32-.63.23ZM49.32 28.13a1.85 1.85 0 0 0-.68-.13c-1 0-1.64.56-1.64 1.53V30h1.56c.23 0 .44.26.44.48 0 .22-.21.52-.44.52H47v.47c0 .97.64 1.53 1.64 1.53.24 0 .47-.05.68-.13.24-.1.55-.01.63.22.29.77-.82.91-1.3.91A2.6 2.6 0 0 1 46 31.43v-1.86A2.6 2.6 0 0 1 48.64 27c.5 0 1.6.14 1.31.9-.08.24-.39.32-.63.23Z" fill="#636466"/><circle cx="9" cy="23" r="3" fill="#DA2128"/><circle cx="16" cy="23" r="3" fill="#DA2128"/><circle cx="23" cy="23" r="3" fill="#DA2128"/><path d="M22.23 22h.53l.25 1.22.24-1.22h.45l.3 2h-.4l-.1-1.07-.31 1.07h-.36l-.3-1.15-.14 1.15H22l.23-2ZM16.44 23.18l.56.15a.94.94 0 0 1-.18.37.76.76 0 0 1-.3.22c-.12.05-.27.08-.45.08-.22 0-.4-.03-.55-.1a.86.86 0 0 1-.37-.31c-.1-.16-.15-.35-.15-.6 0-.31.09-.56.27-.73.18-.17.44-.26.77-.26.26 0 .46.05.6.15.16.1.27.25.34.45l-.56.12a.44.44 0 0 0-.06-.13.36.36 0 0 0-.13-.1.4.4 0 0 0-.18-.04.38.38 0 0 0-.33.16c-.05.08-.08.2-.08.38 0 .22.03.36.1.44.07.08.17.12.3.12.11 0 .2-.03.27-.1.06-.06.1-.15.13-.27ZM8 22h1c.2 0 .35.02.47.07.13.05.23.12.3.22.08.09.14.2.18.32.03.12.05.25.05.38 0 .22-.03.38-.08.5a.83.83 0 0 1-.22.3c-.1.08-.2.13-.3.16-.15.03-.28.05-.4.05H8v-2Zm.67.45v1.1h.17c.14 0 .24-.02.3-.05a.3.3 0 0 0 .14-.15.88.88 0 0 0 .05-.34c0-.22-.04-.36-.12-.44-.07-.08-.2-.12-.37-.12h-.17Z" fill="#F0F3FA"/></svg>