<svg width="56" height="56" viewBox="0 0 56 56" xmlns="http://www.w3.org/2000/svg"><path fill="#F0F3FA" d="M0 0h56v56H0z"/><circle cx="28" cy="28" r="17" fill="#012F59"/><path d="M12.18 25.87a12.73 12.73 0 0 1 .22-1.12l.1-.53c.38-1.47.93-2.85 1.65-4.15a15.18 15.18 0 0 1 3.84-4.46c1.13-.88 2.27-1.6 3.42-2.12 1.04-.48 2.1-.82 3.18-1.03.7-.13 1.55-.25 2.54-.36a11.1 11.1 0 0 1 3.12.12 27.34 27.34 0 0 1 2.41.56c.36.1.62.19.8.25a16.37 16.37 0 0 1 7.05 4.98 16.4 16.4 0 0 1 3.17 13.46 16.39 16.39 0 0 1-1.6 4.32 16.35 16.35 0 0 1-2.1 2.97A16.13 16.13 0 0 1 27.08 44a22.28 22.28 0 0 1-2.75-.38 15.8 15.8 0 0 1-4.59-1.86l-.76-.5a16.62 16.62 0 0 1-5.99-7.66 15.16 15.16 0 0 1-.8-7.74Z" fill="#014586"/><path d="M38.64 17.44a11.13 11.13 0 0 1 2.01 2.48 15.43 15.43 0 0 1 2.02 4.94l.14.76a17.72 17.72 0 0 1 .18 1.85c.04 1.41-.08 2.74-.37 4a15.68 15.68 0 0 1-1.58 4.07c-.13.24-.46.73-.99 1.49a8.43 8.43 0 0 1-.65.8 12.58 12.58 0 0 1-1.79 1.72 22.31 22.31 0 0 1-.97.75 15.66 15.66 0 0 1-5.1 2.3 10.2 10.2 0 0 1-1.99.32l-.9.06c-.33.02-.62.02-.88.02a17.42 17.42 0 0 1-4.83-.84 14.89 14.89 0 0 1-4.07-2.25 19.8 19.8 0 0 1-1.2-1.04 11.91 11.91 0 0 1-2.23-2.69 14.96 14.96 0 0 1-1.9-4.08 13.83 13.83 0 0 1-.33-1.5c-.16-.83-.23-1.8-.2-2.9a13.05 13.05 0 0 1 .26-2.42 31.18 31.18 0 0 1 .4-1.58 14.57 14.57 0 0 1 5.78-7.98 13.51 13.51 0 0 1 5.41-2.33 38.4 38.4 0 0 1 2.18-.32 8.99 8.99 0 0 1 2.6.03 17.68 17.68 0 0 1 4.42 1.2 12.53 12.53 0 0 1 1.85.99l.41.26a9.96 9.96 0 0 1 1.32.97c.28.22.61.53 1 .92Z" fill="#0252A7"/><path d="M31.37 21.72a3.05 3.05 0 0 1-2.25.6c-.3-.05-.48.13-.55.52-.1.34-.15.66-.16.95a30.3 30.3 0 0 0 .06 2.42v.4c.03.16.1.25.2.27.14.02.28 0 .42-.09 1-.6 2.03-1.18 3.07-1.72l.38-.28c.12-.09.2-.18.25-.28a.39.39 0 0 0-.03-.36 3.3 3.3 0 0 0-.24-.34 4.1 4.1 0 0 1-.2-.26c-.06-.1-.1-.2-.14-.29a2.42 2.42 0 0 1 .02-1.56c.22-.24.5-.41.8-.53.33-.13.7-.19 1.1-.19.35 0 .73.05 1.12.15l1.58.4c.4.11.8.14 1.2.08h.26c.09.02.16.05.2.1.06.04.09.1.09.17 0 .08-.04.17-.1.27-.15.23-.28.44-.39.64-.12.22-.22.52-.3.88-.11.5-.22.95-.33 1.35a2.52 2.52 0 0 1-1.68 1.94c-.2.07-.39.1-.55.06-.31-.07-.59-.2-.82-.4-.1-.09-.19-.2-.26-.35a5.27 5.27 0 0 1-.25-.54.9.9 0 0 0-.2-.26c-.16-.14-.38-.14-.64.02h-.01c-.13.07-.23.1-.3.12-.13.02-.26.07-.39.14-.85.51-1.79 1-2.8 1.48a.6.6 0 0 0-.27.22.4.4 0 0 0-.05.27c0 .09.04.18.1.27.06.09.14.17.23.24.2.15.42.3.67.43l.18.1a48.3 48.3 0 0 1 2.1 1.17l.55.22c.27.13.48.1.62-.13.05-.06.1-.18.19-.33l.2-.37c.31-.43.73-.76 1.27-1 .06.02.16 0 .32-.06.06 0 .16.03.28.07.83.28 1.37.92 1.65 1.92.12.46.22.96.3 1.51.06.35.14.63.25.83.1.19.22.37.34.56.16.24.12.4-.12.51-.09.04-.2.07-.33.07a3.71 3.71 0 0 1-.6 0c-.14-.01-.3.01-.46.05-.45.1-.94.26-1.47.46-.24.1-.6.17-1.07.24a3.07 3.07 0 0 1-1.89-.33.95.95 0 0 1-.32-.3 2.17 2.17 0 0 1-.05-1.24c.03-.16.1-.3.19-.43a3.38 3.38 0 0 1 .38-.44c.14-.16.2-.3.15-.45-.03-.12-.14-.24-.32-.35l-.25-.16a2.8 2.8 0 0 0-.39-.28l-2.7-1.6c-.26-.14-.47-.1-.65.15a.38.38 0 0 0-.06.24c.02 1.18 0 2.06-.04 2.62v.51a7 7 0 0 0 .2 1.06c.07.15.19.25.33.28.1.03.2.04.32.05a4.33 4.33 0 0 0 .6-.01c.1 0 .2 0 .28.02.42.09.8.29 1.14.6l.2.2.02.06v.7c.02.32 0 .55-.05.72-.08.27-.22.53-.43.8-.17.23-.39.46-.64.68l-1.07.9a2.81 2.81 0 0 0-.84 1.05.47.47 0 0 1-.19.21.3.3 0 0 1-.28 0 .62.62 0 0 1-.21-.24l-.28-.46a4.02 4.02 0 0 0-.64-.77l-1.17-1.17a4 4 0 0 1-.83-1.21 1.97 1.97 0 0 1-.07-1.46c.42-.5.92-.76 1.5-.79a3.73 3.73 0 0 1 .76.13c.25.04.42-.04.51-.24.04-.09.06-.19.08-.31v-.34l.05-1.13a2.79 2.79 0 0 0-.04-2.63.57.57 0 0 0-.2-.31c-.13-.1-.24-.11-.37-.06-.1.04-.22.12-.4.23l-.23.15c-.82.47-1.48.85-2 1.13-.15.09-.29.2-.4.32a.71.71 0 0 1-.13.12l-.14.11c-.3.22-.34.48-.1.78l.24.3c.18.23.3.52.36.87.04.3.04.62-.02.94-.06.14-.17.28-.35.42-.42.33-.9.53-1.44.6-.47.06-1 .02-1.58-.12-.55-.14-1.15-.3-1.81-.5a2.1 2.1 0 0 0-.74-.1l-.48.04c-.24.01-.36-.09-.34-.3.02-.14.08-.3.2-.5a4.55 4.55 0 0 0 .56-1.53l.21-.85c.09-.31.18-.59.27-.82.38-.99 1.04-1.56 1.96-1.74.44.09.8.23 1.07.42.25.17.41.37.5.59.08.22.17.4.26.56.16.27.39.33.69.18.33-.13.68-.3 1.07-.5.23-.12.58-.32 1.03-.59.58-.34 1.03-.59 1.33-.74a.67.67 0 0 0 .18-.13l.14-.2a.32.32 0 0 0 .02-.21c-.02-.08-.08-.14-.16-.18-1-.54-1.96-1.05-2.9-1.53a10.04 10.04 0 0 0-.9-.4.44.44 0 0 0-.48.06c-.1.07-.18.17-.27.29l-.22.33a5.4 5.4 0 0 1-.2.3c-.07.11-.15.2-.23.27-.3.26-.66.44-1.09.55a2 2 0 0 1-1.33-.55 3.43 3.43 0 0 1-1-1.83l-.36-1.46c-.03-.1-.07-.22-.13-.33a5.33 5.33 0 0 0-.28-.5.82.82 0 0 1-.11-.28c-.02-.12.01-.2.1-.26.1-.07.24-.1.39-.1a5.95 5.95 0 0 0 2.54-.46c.29-.08.55-.15.78-.19.59-.11 1.1-.13 1.55-.05.53.09.95.34 1.27.74.12.4.13.78.04 1.13-.06.23-.15.4-.26.52-.13.12-.25.25-.38.4-.12.12-.16.25-.11.37.03.1.13.2.27.3.13.11.25.2.37.26l.84.44.73.41c.67.37 1.16.66 1.47.85.15.1.29.15.42.17.17.03.28-.05.33-.26.04-.12.05-.28.04-.48a40.38 40.38 0 0 1-.1-3.06l-.02-.19-.03-.18a.6.6 0 0 0-.16-.35.5.5 0 0 0-.35-.14l-.26.01a5.31 5.31 0 0 0-.55.1c-.12.01-.22.02-.31 0-.26-.02-.5-.11-.73-.25-.16-.1-.32-.23-.5-.39-.21-.45-.24-.9-.1-1.37.12-.35.3-.69.55-1.02.2-.27.47-.55.8-.85l.97-.9c.26-.24.53-.61.83-1.1a.53.53 0 0 1 .14-.16.41.41 0 0 1 .17-.08.3.3 0 0 1 .18.02c.06.03.11.08.15.15a7.74 7.74 0 0 1 .25.44c.06.1.12.18.18.24.18.2.4.4.65.61a27.27 27.27 0 0 0 1.1.9 3.2 3.2 0 0 1 .67.74c.4.64.47 1.35.2 2.11a.72.72 0 0 1-.16.23Z" fill="#F0F3FA"/><path d="M31.37 21.72c.01-.01.02-.02.04-.01l.02.04-.01.05a10.35 10.35 0 0 1-.49.48h-.04l-.23.15a.09.09 0 0 1-.07.01c-.01 0-.03 0-.04.02a.08.08 0 0 1-.06.02.35.35 0 0 0-.18.06.48.48 0 0 1-.17.07l-.18.02c-.06 0-.12 0-.17.02-.29.05-.57.06-.84.01-.12-.02-.24.04-.38.18.07-.4.25-.57.55-.53a3.06 3.06 0 0 0 2.25-.6ZM32.2 21.7a2.43 2.43 0 0 0-.02 1.56c.03.1.08.2.15.3l.19.25c.11.14.2.26.24.34.07.12.08.24.03.36-.05.1-.13.2-.25.28a4.6 4.6 0 0 1-.03-.25.55.55 0 0 0-.08-.24l-.32-.43a.89.89 0 0 1-.16-.28 2.44 2.44 0 0 1 .05-1.7c.06-.1.13-.16.2-.2ZM24.79 21.76c.18.16.35.29.5.39.23.14.47.22.73.25.1.02.2.01.3 0a4.16 4.16 0 0 0 .56-.1l.26-.01a.5.5 0 0 1 .35.14c.09.09.14.2.16.35v.04h-.03a.03.03 0 0 0-.03-.03.42.42 0 0 1-.14-.08.42.42 0 0 0-.13-.07.53.53 0 0 0-.24-.03c-.2.05-.42.09-.64.12a.84.84 0 0 1-.31.02c-.36-.1-.6-.19-.75-.27-.1-.07-.27-.21-.5-.44-.1-.16-.14-.25-.1-.28Z" fill="#012F59"/><path d="M32 21.88a2.44 2.44 0 0 0-.05 1.7c.03.1.09.2.16.29.12.15.23.29.32.43.04.06.07.14.08.24 0 .08.01.17.03.25l-.38.28c0-.06.02-.16.06-.32.02-.08 0-.15-.05-.21-.2-.24-.37-.46-.5-.68a1.02 1.02 0 0 1-.13-.42 3.9 3.9 0 0 1-.01-.46v-.09c0-.15.04-.3.1-.47.1-.2.22-.38.37-.54ZM24.89 22.04c.22.23.39.37.5.44.13.08.38.17.74.27.06.01.16 0 .31-.02.22-.03.43-.07.64-.12.06 0 .14 0 .24.03.04 0 .08.03.13.07l.14.08c.01 0 .02 0 .02.02l.01.02h.02c.01-.01.02-.03.01-.05l.03.18v.15c0 .15-.02.16-.08.02a.48.48 0 0 0-.07-.1.22.22 0 0 0-.1-.08 1.19 1.19 0 0 0-.66.01c-.17.04-.34.06-.5.05a1.17 1.17 0 0 1-.56-.16 4.13 4.13 0 0 1-.4-.24 1.4 1.4 0 0 1-.42-.57Z" fill="#014586"/><path d="M23.6 24.81c-.14-.09-.24-.19-.27-.3-.05-.11 0-.24.11-.37l.38-.4c.11-.1.2-.28.26-.5.09-.36.08-.74-.04-1.14.03 0 .05 0 .07.02.02.01.04.03.04.06 0 .04.02.08.05.11.03.04.05.09.07.16a2.08 2.08 0 0 1 .07.4l.02.15v.23l-.01.08c-.02.17-.07.33-.14.5-.04.1-.12.19-.22.27-.12.1-.24.23-.35.38a.07.07 0 0 0-.02.05.6.6 0 0 1-.02.3ZM35.2 27.02c0 .06-.03.1-.1.1a1.77 1.77 0 0 1-1.16-.47.55.55 0 0 1-.16-.23 1.64 1.64 0 0 0-.07-.15 1.22 1.22 0 0 1-.08-.2.9.9 0 0 0-.23-.4.18.18 0 0 0-.08-.05.59.59 0 0 1-.16-.07.09.09 0 0 0-.06-.01c-.05 0-.07-.01-.07-.05.27-.16.48-.16.65-.02a.9.9 0 0 1 .19.26 4.02 4.02 0 0 1 .25.54c.07.15.16.26.26.34.23.2.5.34.82.41ZM23.1 25.57c.01.06-.01.1-.07.11a.14.14 0 0 0-.06.03.44.44 0 0 1-.11.07.33.33 0 0 0-.12.09 4.14 4.14 0 0 1-.51.88c-.08.12-.18.2-.3.28a14.1 14.1 0 0 1-.53.29c-.04 0-.07 0-.1.02a4.13 4.13 0 0 1-.42.08c-.07.01-.16 0-.26-.05.43-.1.8-.29 1.09-.55.08-.07.16-.16.24-.27l.2-.3.21-.33c.09-.12.18-.22.27-.3.14-.1.3-.12.47-.05Z" fill="#012F59"/><path d="M35.64 28.26c-.16.06-.26.08-.32.06-.34-.02-.66.08-.96.3-.44.31-.75.71-.95 1.2-.05.12-.18.23-.37.33l-.56-.22c.26-.03.42-.11.49-.26.1-.22.2-.4.3-.54.1-.16.22-.3.36-.44a1.6 1.6 0 0 1 1.17-.5c.08 0 .19 0 .3-.03a.7.7 0 0 1 .54.1Z" fill="#014586"/><path d="M23.3 30.05c-.3.15-.53.09-.69-.18-.1-.16-.18-.34-.27-.56a1.26 1.26 0 0 0-.49-.59c-.28-.19-.63-.33-1.07-.42.15-.05.28-.06.36-.03l.1.03c.14.03.26.07.37.13.1.04.19.08.28.1l.04.03c.08.1.18.16.3.2.07.01.12.06.16.14l.04.04c.05.02.1.07.13.15a13.06 13.06 0 0 1 .2.4h.01c.02.01.03.02.03.04.06.14.12.26.2.35.05.06.11.08.2.07.02 0 .04 0 .06.02.03.02.05.05.04.08ZM35.32 28.32c-.54.24-.96.57-1.26 1l-.21.37c-.08.15-.14.27-.19.33-.14.22-.35.26-.62.13.2-.1.32-.21.37-.34.2-.48.51-.88.95-1.2.3-.21.62-.31.96-.3Z" fill="#012F59"/><path d="m32.3 30.78.25.16-.02.02h-.02V31c.1.17.1.32-.01.47a3.2 3.2 0 0 1-.33.39l-.12.18c-.11.22-.17.4-.19.56v.8a.65.65 0 0 1-.25-.4c-.04-.19-.06-.37-.07-.54a1.63 1.63 0 0 1 .35-1c.18-.18.3-.3.34-.4a.86.86 0 0 0 .06-.27Z" fill="#014586"/><path d="M23.84 30.81c-.03.29.06.5.25.67.02 0 .03.03.03.04a.6.6 0 0 0 .13.21l.1.14c.01.05.04.1.06.14.07.1.1.22.12.36l.04.7c0 .18-.04.37-.1.55a.2.2 0 0 1-.08.1c-.03.02-.06.01-.07-.02.06-.32.06-.63.02-.94a1.83 1.83 0 0 0-.36-.87l-.24-.3c-.24-.3-.2-.56.1-.78ZM32.55 30.94c.18.11.29.23.32.35.04.14-.01.3-.15.45a35.09 35.09 0 0 0-.38.44 1.3 1.3 0 0 0-.2.43c-.1.41-.08.82.06 1.24-.01.06-.05.04-.11-.06a9.15 9.15 0 0 1-.22-.4 7.2 7.2 0 0 1 0-.8 1.62 1.62 0 0 1 .45-.91l.18-.22c.1-.15.1-.3 0-.47v-.03h.03l.02-.02ZM28.56 33.03c.1.23.23.37.36.42.16.05.35.07.6.05.21-.02.37-.02.46-.01.18.01.32.05.44.1a4.13 4.13 0 0 1 .75.5l.1.1c.16.13.18.21.06.23a2.33 2.33 0 0 0-1.14-.6 5.52 5.52 0 0 0-.88-.01c-.12 0-.22-.02-.32-.05a.52.52 0 0 1-.33-.28 1 1 0 0 1-.1-.45Z" fill="#012F59"/></svg>