<svg xmlns="http://www.w3.org/2000/svg" width="56" height="56" viewBox="0 0 56 56"><path fill="#FA9A35" d="M0 0h56v56H0z"/><path fill-rule="evenodd" d="M22.1 32.04c-2.35-2-6.1-5.2-6.1-10.34 0-5.64 4.83-9.7 12.19-9.7C35.54 12 40 17 40 21.7c0 4.7-4.53 8.88-6.44 10.53l-2.75-1.31c1.17-1.45 3.53-5.31 3.53-9.22 0-4.88-4.33-5.7-6.15-5.7-2.19 0-6.58.75-6.58 5.7 0 3.8 2.36 7.73 3.54 9.22l-2.83 1.3-.22-.18zm5.78-17.37c.62 0 1.13-.24 1.13-.52 0-.29-.5-.52-1.13-.52-.63 0-1.14.23-1.14.52 0 .28.5.52 1.14.52zM20.12 19c.28-.47.27-.99-.02-1.15-.3-.16-.75.09-1.03.56-.28.47-.27.98.02 1.14.29.17.75-.08 1.03-.55zm-1.05 5.93c.29-.16.75.08 1.03.55.28.47.27.99-.02 1.15-.3.16-.75-.09-1.03-.56-.28-.47-.27-.98.02-1.14zM35.5 19c-.28-.47-.27-.99.02-1.15.29-.16.75.09 1.03.56.28.47.27.98-.02 1.14-.29.17-.75-.08-1.03-.55zm1.05 5.93c-.29-.16-.75.08-1.03.55-.28.47-.27.99.02 1.15.3.16.75-.09 1.03-.56.28-.47.27-.98-.02-1.14zM23 34.15v4.75l1.14 1.1H30v-1l-.5-1H26v-3h3.5l.5-1v-1h-5.22L23 34.15zM31 33v5.17L32.93 40h7.02L42 38.17V33h-3v5h-1v-5h-3v5h-1v-5h-3zm-17 0v7h6.48L22 38.46v-3.6L20.17 33H14zm3.05 2h2v3h-2v-3z" fill="#fff"/></svg>