<svg width="56" height="56" viewBox="0 0 56 56" xmlns="http://www.w3.org/2000/svg"><path fill="#F0F3FA" d="M0 0h56v56H0z"/><path fill="#010101" d="M13 13h30v30H13z"/><path d="M42.93 43c.05-.66.07-1.33.07-2v2h-.07ZM15 13h28v28a28 28 0 0 0-28-28Zm-2 .07V13h2c-.67 0-1.34.02-2 .07Z" fill="#E3A33F"/><path d="M19 29c0-2 2-4.83 3-6 .5 3 3.5 3 3.5 6S23 32.5 22 32.5s-3-1-3-3.5Z" fill="#DCA749"/><path d="M19.5 28.5c0 1.2.67 1.83 1 2V29c0-.5.5-2 0-2.5s-1 .5-1 2Z" fill="#FEF9F2"/><circle cx="34.5" cy="17.5" r=".5" fill="#D41912"/><path d="M35.56 18.56A1.5 1.5 0 0 0 34.5 16a1.5 1.5 0 0 0-1.14 2.48l-.8.6a2.5 2.5 0 1 1 3.7.19l-.7-.7Z" fill="#D41912" fill-opacity=".5"/><path fill-rule="evenodd" d="M35.3 18h-1.6l-.67 1.32L31.75 24H30.5v1h.98l-4.36 16H25v1h17.5v-1h-.62l-4.36-16h.98v-1h-1.25l-1.28-4.68L35.3 18Zm-3.85 10.92.95-3.48.6.56v1.46l-1.55 1.46Zm2.43-.92-2.56 2.42L33.86 32H34v-4h-.12Zm-3.07 3.28L33 32.65v.69l-3.32 2.06 1.13-4.12Zm-.84 5.12 3.85-2.4H34v4l-4.03-1.6ZM35 38v-4h.18l3.85 2.4L35 38Zm4.32-2.6L36 33.34v-.7l2.2-1.36 1.12 4.12Zm-1.64-4.98L35.14 32H35v-4h.12l2.56 2.42ZM36 27.46l1.55 1.46-.95-3.48-.6.56v1.46Zm-7.75 13.2.95-3.49 3.8 1.5v.12l-4.75 1.88Zm4.75-.8L30.12 41H34v-1h-1v-.14Zm2 .14v1h3.88L36 39.86V40h-1Zm1-1.21 4.75 1.88-.95-3.5-3.8 1.5v.12ZM35.6 25l-.6.57V25h.6Zm-2.2 0h.6v.57l-.6-.57Zm-.6-1h3.4l-1.17-4.32-.34-.68h-.38l-.34.68L32.79 24Z" fill="#EBEBEB"/></svg>