<svg width="56" height="56" xmlns="http://www.w3.org/2000/svg"><path fill="url(#paint0_linear)" d="M0 0h56v56H0z"/><path d="M8 31.99c.038-3.612 1.934-6.558 3-7.58V34h30V13.004c3.517-.03 7.058 3.491 7 8.095-.048 3.684-2.555 7.132-3.849 8.442-1.146 1.161-.885 4.583-1.146 6.173-.968 5.884-5.146 7.087-7.745 7.27-2.078.147-4.365-1.023-5.249-1.626-.587-.402-2.091-1.345-3.41-1.902-1.65-.695-4.247-.765-6.573-.301a26.11 26.11 0 01-4.527.462c-4.232-.17-7.548-3.114-7.5-7.628z" fill="#fff"/><path fill-rule="evenodd" d="M12 32.996v-9.323c3.669-2.665 6.046-2.911 8.078-2.911 1.068 0 2.106.153 3.092.298.891.131 1.74.256 2.53.256.236 0 .478.005.726.01 2.426.046 5.357.101 7.298-4.049 1.712-3.66 4.889-4.353 6.276-4.243v19.962H12zm3-5.995V31h1.56c.654-.01 1.953-.434 1.92-2.05-.035-1.615-1.295-1.972-1.92-1.949H15zM16 28v2h.44c.361-.003 1.074-.208 1.038-1.005-.035-.796-.707-.995-1.038-.995H16zm3-1v4h3v-1h-2.004v-.5H22v-1h-2.004V28H22v-1h-3zm4 4v-4h3v1h-2.004v.5H26v1h-2.004v.5H26v1h-3zm4 0v-4h1.74c.415 0 1.247.298 1.26 1.49.013 1.192-.834 1.513-1.26 1.51H28v1h-1zm1.611-2h-.61v-1h.61c.123 0 .374.097.39.487.016.39-.253.504-.39.513zm1.532 2h1.049l.374-1h1.347l.377 1h1.049l-1.574-4h-1.049l-1.573 4zm1.673-2h.84l-.415-1-.425 1zM36 27h-1v4h1v-.83l.596-.638L37.723 31H39l-1.713-2.228L38.851 27h-1.255L36 28.772V27z" fill="#fff"/><defs><linearGradient id="paint0_linear" x1="50.684" y1="7.079" x2="4.28" y2="47.724" gradientUnits="userSpaceOnUse"><stop stop-color="#EFEA3B"/><stop offset=".396" stop-color="#00ABDA"/><stop offset=".686" stop-color="#0755A7"/></linearGradient></defs></svg>