<svg width="56" height="56" viewBox="0 0 56 56" xmlns="http://www.w3.org/2000/svg"><path fill="url(#auafkd5ok)" d="M0 0h56v56H0z"/><path d="M12.5 29v1H15v1.98l-.02.02H11.4l-.02-.01-.86-.9v-.02l-.01-6.13v-.02l.87-.91h.01l3.6-.01.01.01.01.02V26h-2.5v1H14v2h-1.5ZM38 29v1h2.5v2h-3.61l-.88-.91v-.02L36 24.94v-.01l.87-.92a.02.02 0 0 1 .02 0H40.49l.01.02V26H38v1h1.5v2H38ZM44 26v6h-1.99l-.01-.02v-7.06l.84-.91.02-.01h3.13l.01.02V26h-2ZM50 25.84h2v1.94l-.03.06-1.42 1.97a.1.1 0 0 0-.02.06v2.1c0 .02-.01.03-.04.03h-1.95c-.03 0-.04-.01-.04-.04v-2.09a.1.1 0 0 0-.02-.07l-1.46-1.96a.1.1 0 0 1-.02-.07v-3.72c0-.03.01-.05.04-.05H49v3.12l.48.7a.02.02 0 0 0 .02.02h.01l.01-.01.48-.71v-1.28Z" fill="#fff"/><path d="M52 26h-2v-1.98a.02.02 0 0 1 0-.01h.01V24h1.95c.03 0 .04.01.04.04V26Z" fill="#ED4136"/><path d="M18 30h2v1.99l-.02.01h-3.13l-.84-.92-.01-.01V24l.02-.01H18v6ZM24 29h-1v3h-1.99l-.01-.02v-7.96a.02.02 0 0 1 .01-.01V24H23v3h1v-3h2v8h-2v-3ZM28.98 24h-1.96c-.01 0-.02 0-.02.02v7.96l.02.02h1.96c.01 0 .02 0 .02-.02v-7.96l-.02-.02ZM32.52 29.78 33 29v-5h1.99l.01.02v5.7L33.2 32l-.02.01H31.8L30 29.71v-5.7a.02.02 0 0 1 .02-.02H32v5l.48.78a.02.02 0 0 0 .03 0ZM4 24h4.43l.03.02c.01 0 .02 0 .03.02l1.01 1v5.98l-1 .94-.07.04H5.74v-1.79l-.01-.04a.06.06 0 0 0-.05-.02H4V24Zm3.5 2H6v4h1.5v-4Z" fill="#fff"/><path d="M4 30h1.93c.02 0 .04 0 .05.02l.02.05V32H4v-2Z" fill="#ED4136"/><defs><linearGradient id="auafkd5ok" x1="10.42" y1="9.71" x2="68.15" y2="76.02" gradientUnits="userSpaceOnUse"><stop stop-color="#1A1E21"/><stop offset="1" stop-color="#06060A"/></linearGradient></defs></svg>