<svg width="56" height="56" viewBox="0 0 56 56" xmlns="http://www.w3.org/2000/svg"><path fill="#5B9BD5" d="M0 0h56v56H0z"/><path d="M20.9 23.3c-.05 0-.07.05-.06.15-.22-.14-.36-.16-.41-.06H13.6l-.04.01a.06.06 0 0 0-.02.03v.04l.01.03c.27.28.77.58.78.99.01.68 0 1.42-.02 2.22 0 .1-.05.16-.14.21-.1.06-.26.08-.46.05-.02-.05.09-.15.32-.29l.03-.03v-2.19a.25.25 0 0 0-.08-.17 3.45 3.45 0 0 0-1.06-.81c-.12-.3 0-.45.35-.46 1.75-.03 4.25-.03 7.51 0 .07 0 .11.04.12.1v.18Z" fill="#1E53AF"/><path d="M4.54 23.03c.12 0 .14.08.06.21a.19.19 0 0 0-.02.17c.05.13.15.2.3.24.3.22.45.43.45.64a724.6 724.6 0 0 0 0 6.79c0 .06-.03.12-.06.17a1.5 1.5 0 0 1-.65.48c-.03-.04-.1-.02-.17.07-.1.12-.12.21-.04.29-.03.03-.1.03-.21 0 0-.44.33-.57.57-.84.04-.05.07-.1.07-.17l-.01-6.2a.3.3 0 0 0-.08-.21c-.17-.18-.3-.39-.41-.63a.75.75 0 0 1-.02-.5c.05-.22.13-.4.22-.5Z" fill="#101E33"/><path d="M4.54 23.03c1.26.03 2.45.03 3.57 0 1.19-.05 2.04.5 2.96 1.04l.7.94-.15-.02c-.07-.01-.1.02-.07.08.63 1.41.73 2.9.3 4.47-.49 1.8-2.19 2.63-4.08 2.6a70.2 70.2 0 0 0-2.84.01.08.08 0 0 0-.02.02l-.02.03v.04l.02.07c.02.1.09.15.2.15l3.4.01c-1.15.13-2.3.2-3.44.18-.43 0-.58-.2-.66-.56-.08-.08-.06-.17.04-.3.08-.08.14-.1.17-.05.1.1.21.15.33.16.91.04 1.89.03 2.92 0a5.7 5.7 0 0 0 1.65-.29c1.74-.6 2.27-2.37 2.26-4.06 0-1.73-.74-3-2.22-3.8a2.71 2.71 0 0 0-1.17-.3c-1.14-.06-2.3-.08-3.48-.06-.07 0-.1.04-.09.1 0 .05.03.1.07.16-.16-.04-.26-.11-.3-.24a.19.19 0 0 1 0-.17c.1-.13.07-.2-.05-.2ZM25.96 23.51c-.05.15-.1.2-.14.15-.2-.22-.4-.31-.56-.27h-2.67c-.15 0-.18.06-.08.17l.52.6c.05.05.08.12.07.19l-.06 3.23c-.04-.8-.06-1.6-.06-2.4 0-.1-.02-.23-.07-.37a1.78 1.78 0 0 1-.09-.38.31.31 0 0 0-.07-.17l-.78-.87a.34.34 0 0 1-.04-.27c.02-.07.07-.1.14-.1h3.54c.06 0 .1.02.13.08.05.16.12.3.22.41Z" fill="#1E53AF"/><path d="M30.13 23.02c.16.43.4.83.75 1.2.04.04.06.1.07.16 0 .35.09.68.23 1l.02 1.83-.03.09a.16.16 0 0 1-.1.05l-.79.2c-.33.06-.54.29-.63.7-.03.09 0 .17.06.24l.37.38c.06.06.13.09.22.07.13-.02.26-.07.37-.12a.19.19 0 0 1 .18 0c.03.02.05.04.06.07.02.02.03.05.02.08 0 .36.07.68.23.96.03.3.03.62 0 .95-.02.4-.23.61-.58.8-.21.1-.41.07-.6-.11a5.8 5.8 0 0 1-1.05-1.84c-.42.03-.63-.03-.65-.16.26.04.57-.08.74 0 .12.04.19.13.2.27 0 .06.03.12.06.17l.9 1.45c.08.13.19.16.32.07.1-.06.18-.14.24-.23a.3.3 0 0 0 .05-.18l-.04-1.3a.27.27 0 0 0-.1-.21.3.3 0 0 0-.22-.08c-.5.02-.86-.24-1.08-.8a.17.17 0 0 1 0-.14c.13-.24.2-.48.24-.74 0-.06.03-.11.07-.16.15-.19.34-.35.59-.48a.4.4 0 0 1 .19-.05h.22c.08 0 .12-.04.11-.11a8.18 8.18 0 0 1-.02-1.44c.04-.68-.31-1.17-.74-1.66a.18.18 0 0 1-.04-.17l.16-.76Z" fill="#101E33"/><path d="m42.68 23.64-.84.9a.19.19 0 0 0-.05.12l-.08 2.03c0 .06.02.12.07.18.11.13.23.13.36 0l1.33-.06c.04.1.11.14.22.12.07 0 .11-.05.11-.11l.06-1.91.13 2.17c-.72.1-1.48.1-2.26.01-.07 0-.1-.04-.1-.11-.68.94-1.3 2.59-2.1-2.18a2.65 2.65 0 0 0-1.05-1.36c-.02-.1 0-.2.06-.33a.14.14 0 0 1 .14-.09h3.44c.08 0 .14.03.17.1.11.22.24.4.4.52Z" fill="#1E53AF"/><path d="M47 23.71a.75.75 0 0 1-.24.37c-.23.2-.47.34-.48.69-.06 1.87-.08 3.7-.06 5.5 0 .18-.06.34-.07.52 0 .1.04.22.11.35.1.16.17.33.24.5-.03.03-.1-.01-.21-.13-1.97.13-1.01.13-2.3-4.43l-.13-2.17c0-.41-.13-.74-.37-.99a9.1 9.1 0 0 1-.45-.5.44.44 0 0 1-.06-.3c.01-.07.05-.1.12-.1h3.39c.22 0 .4.23.5.7ZM20.84 23.45c.16.1.28.23.36.38.03.06.02.11-.02.17l-.53.62.2-.52c.03-.06.03-.1 0-.15-.04-.06-.08-.07-.14-.02-.45.44-.78.96-1 1.55a.13.13 0 0 0 0 .1c.02.03.04.06.07.07l.07.03a.07.07 0 0 0 .08-.02l.01-.02a.65.65 0 0 1 .29-.42c-.08.28-.21.5-.4.67-.06.04-.11.04-.16-.01a6.03 6.03 0 0 0-1.31-.97c-.51-.29-1.03-.19-1.57-.18a.23.23 0 0 0-.15.07.2.2 0 0 0-.07.14l-.07 1.63-.1-1.71c0-.05-.02-.1-.05-.15l-.05-.1c.04-.05.07-.08.1-.09a8.29 8.29 0 0 1 1.65 0c.44.05.77.41 1.14.62a.2.2 0 0 0 .26-.06l1.04-1.58c.02-.03.02-.06-.01-.09a.07.07 0 0 0-.05-.02c.05-.1.19-.08.41.06Z" fill="#2E60B0"/><path d="M37.58 24.31c.58.73.61 1.57.33 2.4-.09.27-.05 1.39-.13 1.55-.76.44-1.67.36-2.4.33l-1.98.03c-.07 0-.11.03-.13.1l-.02.09-.04 2.34c0 .07.02.12.07.17l.33.35c.09.08.02.22-.1.22l-2.78.02-.06-.01c-.1-.04-.09-.14-.09-.23.35-.18.56-.39.59-.79.02-.33.02-.64-.01-.95l.06-1.24c0-.1-.04-.15-.15-.13l-.64.1a.1.1 0 0 1-.1-.02v-.01c-.04-.07-.02-.12.06-.15.22-.1.45-.14.7-.15.03 0 .06 0 .08-.03.05-.04.05-.09.05-.14.02-.1-.03-.14-.13-.14-.31 0-.64.06-.98.17-.21.07-.26 0-.14-.17l.3-.47.8-.2c.04 0 .07-.03.1-.05a.15.15 0 0 0 .03-.1l-.02-1.82c.06-.43.16-1.08-.12-1.43a5.95 5.95 0 0 0-.4-.48v-.04l.02-.02.04-.02a56 56 0 0 1 4.33.1c.75.04 1.95.46 2.53.82ZM43.99 27.08c.05-.94.06-1.8.04-2.57 0-.5-.23-.63-.55-.94-.11-.12-.09-.18.08-.18h2.56c.05 0 .09.07.05.11l-.63.7a.3.3 0 0 0-.08.2c0 .63-.03 6.87.1 6.87h.13c.03 0 .05-.02.05-.06l.03-6.73c0-.05.02-.1.05-.13a4.37 4.37 0 0 1 .75-.6l.03.05c.02.02.02.05 0 .07-.27.23-.65.51-.66.87-.03 2.25 0 4.37.06 6.35 0 .06.03.11.07.16l.22.26c-.03.1-.02.16 0 .14a.66.66 0 0 1-.54.26l-2.19-.01c-.17 0-.25-.08-.25-.22a.8.8 0 0 0 .24-.17c.3-.11.46-.28.46-.49 0-.72 0-1.44-.02-2.16a.79.79 0 0 0-.03-.41c-.06-.1-.06-.17-.01-.23.05-.08.07-.14.05-.2a.1.1 0 0 0-.05-.05 17.07 17.07 0 0 1-2.74 0 .16.16 0 0 0-.15.1l-.01.06v3.08c.04.08.14.07.22.06.07 0 .1-.03.11-.1l.03-2.75c0-.06.03-.11.08-.15l.07-.04.07.06a.1.1 0 0 1 .05.1l-.01.22v1.37l-.12 1.14a.17.17 0 0 0 .07.16l.37.27c.03.07.06.1.1.07-.03.17-.17.27-.43.28-.44.02-1.3.02-2.56 0-.08 0-.15-.06-.22-.18.24-.14.44-.3.61-.52.04-.05.06-.1.06-.17v-2.68l-.13-.15a.58.58 0 0 0-.04-.24c-.03-.07-.08-.1-.16-.06-.21.1-.4.2-.56.3-.19.12-.25.08-.2-.12.14-.45.5-.78 1.08-1v-2.26c.17-.74-.2-.8-.59-1.29-.05-.06 0-.14.08-.14h2.64c.06 0 .09.07.05.11l-.6.68a.35.35 0 0 0-.09.23l.03 2.59c0 .08.1.07.17.07.08 0 .12-.04.12-.12.03-.78.04-1.56.05-2.36a.6.6 0 0 1 .16-.4c.16-.19.33-.32.52-.4.13-.06.16-.03.07.08-.11.16-.26.3-.44.41a.24.24 0 0 0-.08.1.23.23 0 0 0-.03.12c.05.82.06 1.65.03 2.48 0 .07.03.1.1.11.78.09 1.54.08 2.26-.01ZM20.43 23.4l.05.01c.03.03.03.06.01.09l-1.04 1.58a.2.2 0 0 1-.26.06c-.37-.2-.7-.57-1.14-.62a8.28 8.28 0 0 0-1.64 0c-.04 0-.07.04-.1.1l-.05.08c-.03.1-.08.1-.13.01l-.07-.1.06-.18c.02-.06.07-.1.14-.1a5.2 5.2 0 0 1 2.13.1c.08.03.12 0 .14-.07v-.05c.03-.11-.02-.18-.13-.2a6.6 6.6 0 0 0-2.6-.08c-.07.01-.1.05-.1.11v2.66c0 .06.03.1.09.14.06.04.12.03.2-.03l1.26.05c.36-.1.69-.38.98-.84.14 0 .21.05.22.13v2.13c0 .07-.11.11-.17.05l-.28-.28c-.25-.07-.38-.16-.4-.27.05-.1.04-.2-.03-.28a.23.23 0 0 0-.18-.07h-1.55c-.08 0-.13.04-.13.12v3.48c0 .07.04.12.1.14.1.05.2.03.3-.07.08-.03.18-.01.32.05 1.1.04 2.28-.04 2.87-1.04l.17-.28c.1-.16.19-.16.26.02a5.65 5.65 0 0 0 1.21 1.85v.02l-.02.02-.03.01c-2.3 0-4.64 0-7.01.02-.29 0-.4-.08-.35-.24.18-.17.45-.24.63-.45.12-.14.18-.35.17-.64a99.11 99.11 0 0 0-.07-2.78c.07-.16.01-.23-.16-.22-.46.02-.76.15-.92.38-.05.1-.2.08-.23-.02a.42.42 0 0 1-.02-.17c.2-.3.47-.55.79-.76.2.03.35.01.46-.05a.25.25 0 0 0 .14-.21c.03-.8.03-1.54.02-2.22 0-.41-.5-.7-.78-1a.06.06 0 0 1 .01-.09h6.86ZM25.26 23.39c-1.62 5.35-2.19 2.57.25.43.03-.02.06-.02.09 0l.04.04-.01.02c-.53.32-.7.79-.5 1.4l-.01 5.97c0 .07.03.1.1.11 1.13.09 2.35-.16 2.63-1.4l.05-.11c.02-.06.07-.08.13-.05a.2.2 0 0 1 .1.1 11.35 11.35 0 0 0 1.12 1.93l-.01.04-.03.03a663.38 663.38 0 0 1-6.53 0c-.18 0-.27-.08-.26-.23.2-.1.35-.21.47-.36a.8.8 0 0 0 .15-.52c.02-1.07.02-2.15 0-3.21l.06-3.23a.28.28 0 0 0-.07-.2l-.52-.6c-.1-.1-.07-.16.08-.16h2.67ZM50.56 25.37c0 1.93 0 3.86.02 5.8 0 .2.17.4.5.55a.61.61 0 0 1-.42.18c-.51.02-1.42.01-2.7 0-.15 0-.2-.06-.17-.16.14-.15.34-.3.6-.42l.2-6.93a.25.25 0 0 0-.08-.18l-.63-.68c-.08-.09-.06-.13.06-.13h2.62c.58 0 .1 0 .48.4l.03.05c.02.02.01.04 0 .05-.56.35-.73.84-.51 1.47Z" fill="#fff"/><path d="M13.72 26.97c-.34.22-.56.54-.85.79v-.01c.08-.28-.02-.44-.07-.57l.73-.35c.12-.06.2-.18.2-.3l-.02-1.41c-.01-.42-.27-.4-.46-.7-.22-.3-.48-.52-.32-.94.38.18.74.45 1.06.8.05.05.07.11.07.18l.02 2.16a.08.08 0 0 1-.04.06c-.23.14-.34.24-.32.3ZM38.48 23.44c.46.28.81.74 1.06 1.38v2.27c-.24.06-.37-.07-.41-.4V25a.23.23 0 0 0-.07-.17c-.17-.17-.4-.45-.7-.85-.15-.2-.11-.39.12-.55Z" fill="#0D0C0D"/><path d="M25.95 23.7c.14.19.21.37.21.54 0 .16-.07.33-.24.5-.2.21-.31.47-.31.76a226.29 226.29 0 0 1-.02 5.61.2.2 0 0 0 .21.12c.5-.05.94-.22 1.34-.52a.4.4 0 0 0 .11-.14l.46-.9c.08-.05.13.05.14.29-.28 1.24-1.5 1.49-2.63 1.4-.07 0-.1-.04-.1-.11l.01-5.97c.05-.14.1-.27.12-.41a.99.99 0 0 1 .43-.67.4.4 0 0 0 .14-.21c.02-.1.07-.2.13-.3Z" fill="#101E33"/><path d="M16.06 24.6 16 26.91c-.08.06-.14.07-.2.03a.16.16 0 0 1-.1-.14v-2.66c0-.06.04-.1.1-.11a6.6 6.6 0 0 1 2.6.07c.12.03.17.1.15.2l-.01.06c-.02.07-.06.1-.14.08a5.2 5.2 0 0 0-2.13-.12.15.15 0 0 0-.14.1l-.06.18Z" fill="#2E60B0"/><path d="m20.65 24.62-.42.6a.65.65 0 0 0-.28.42l-.02.02c-.06.07-.2-.03-.22-.08a.13.13 0 0 1 0-.1c.22-.6.55-1.1 1-1.55.06-.05.1-.04.14.02.03.04.03.1 0 .15l-.2.52Z" fill="#4691CC"/><path d="M37.05 23.92c.33 0 .63.11.75.4.1.26.35.42.45.7.25.67.3 1.4.15 2.19l-.1.73-.07.17-.12.22c-.03.06-.02.12.03.16l.38.37a.24.24 0 0 0 .17.06c.2 0 .34-.1.4-.3l.46-.27v2.68c0 .07-.02.12-.06.17-.17.21-.37.38-.61.52l-.38.2a.7.7 0 0 1 .42-.5.42.42 0 0 0 .19-.15.38.38 0 0 0 .06-.22l-.02-1.16a.33.33 0 0 0-.11-.25.37.37 0 0 0-.27-.1c-.53.02-.86-.26-.98-.84a.16.16 0 0 0-.04-.07.18.18 0 0 0-.08-.05.19.19 0 0 0-.18.04c-.29.27-.63.46-1.01.55-.84.2-1.7.33-2.58.37-.08 0-.12.04-.12.11v1.56c0 .05.02.1.06.16l.68.85c.04.05.06.1.06.16 0 .1.03.2.1.27.22.23.17.35-.15.35-7.03-.02-13.98-.02-20.84 0-.34 0-.82-.45-.82-.76 0-.14.03-.24.1-.3.38.07.59.21.63.42l.14.18c.05.04.12.06.22.06 2.47-.05 4.95-.05 7.42-.02.2 0 .31-.1.35-.33.07-.16.15-.21.24-.15.14.1.27.26.4.46l3.97.01c1.12.04 2.24.05 3.35.03.24 0 .37-.12.42-.33.01-.05.04-.1.1-.12.05-.03.1-.03.15 0 .29.17.16.5.66.5a733.6 733.6 0 0 1 3.41-.02.1.1 0 0 0 .03-.03l.02-.04-.01-.04-.19-.39a1.05 1.05 0 0 0-.23-.3c-.16-.16-.3-.32-.43-.5-.14-.2-.22-.44-.22-.72 0-.51.01-1.01.05-1.5 0-.14-.06-.24-.2-.3l.02-.09c.02-.07.06-.1.13-.1l1.98-.03c.81.04 1.27-.24 1.94-.58.06-.03.1-.08.12-.13l.22-.52c.08-.16.16-.38.25-.64.28-.84.13-1.62-.45-2.35l-.4-.45Z" fill="#0D0C0D"/><path d="M11.07 24.07a4.6 4.6 0 0 1 1.84 3.08c.01.03-.15 1 .22.82a.13.13 0 0 0 .05-.05c.16-.23.46-.36.92-.38.17-.01.23.06.16.22v.15c-.4 0-.74.11-1 .34-.05.05-.05.1-.02.16.07.09.2.13.39.11l-.36.16a.14.14 0 0 1-.16-.03c-.3-.3-.51-.38-.63-.22-.03-.42-.03-.87-.02-1.34a3.26 3.26 0 0 0-.7-2.08l-.7-.94Z" fill="#183667"/><path d="M43.5 23.92a9.1 9.1 0 0 1-.46-.5c-.07.12-.19.2-.36.22l-.84.9a.18.18 0 0 0-.05.12l-.08 2.03c0 .06.02.12.07.17.11.14.23.14.36 0l.02-1.74c0-.09.04-.16.1-.2.24-.19.4-.4.5-.67.02-.04.04-.06.06-.07.03 0 .06 0 .1.04l.45.42c.05.05.08.12.09.2l.01 1.97c.04.1.11.14.22.12.07 0 .11-.05.11-.11l.06-1.91c0-.41-.13-.74-.37-.99Z" fill="#0D0C0D"/><path d="m48.18 24.24-.79-.83-.4.3a.75.75 0 0 1-.23.37l-.09.07c-.2.17-.38.32-.4.62-.05 1.87-.07 3.7-.05 5.5 0 .1-.02.18-.04.27-.01.08-.03.16-.03.25 0 .1.04.22.11.35.1.16.17.33.24.5l.72.72.05-.25c.06-.01.03-.04-.07-.1l-.48-.41a.32.32 0 0 1-.1-.15v-.01a2.92 2.92 0 0 0-.05-.13 1 1 0 0 1-.07-.35 147.92 147.92 0 0 0 0-5.4c.01-.2.1-.34.18-.5l.01-.02.11-.23c.03-.09.1-.16.17-.22a.64.64 0 0 0 .05-.03c.1-.08.15-.18.15-.29 0-.11.05-.13.13-.05l.53.54c.07.07.11.17.11.27l.02 6.06c0 .07-.03.14-.08.19l-.52.52v.08l.01.04.03.02a.07.07 0 0 0 .07 0l.32-.2c.14-.15.34-.3.6-.42l-.14-6.92a.24.24 0 0 0-.07-.16Z" fill="#101E33"/><path d="m16.06 24.6.07.11c.05.09.1.08.13 0l.04-.1.05.1c.03.05.04.1.04.15l.1 1.7c.14.24.26.26.37.07a.1.1 0 0 0 .01-.05l.03-1.04c0-.07.04-.1.12-.11.33-.03.66-.01.98.05.04 0 .08.02.1.04.04.03.06.06.07.09a.21.21 0 0 1 0 .2c-.24.37-.55.7-.95 1-.04.02-.04.06-.02.1l.05.05-1.26-.05.07-2.3Z" fill="#4691CC"/><path d="M11.77 25.01c.48.65.71 1.34.69 2.08-.01.47 0 .92.02 1.34a4.58 4.58 0 0 1-1.6 3.3c-.56.49-1.65.72-2.38.74l-3.4-.01c-.1 0-.17-.05-.2-.15v-.07l-.01-.04s0-.02.02-.03l.02-.02a70.2 70.2 0 0 1 2.83-.02c1.9.04 3.6-.78 4.1-2.6a6.52 6.52 0 0 0-.3-4.46c-.04-.06-.02-.1.06-.08l.15.02Z" fill="#A7C9F0"/><path d="m19.01 27.58-.06-1.5v-.02l-.03-.03a.08.08 0 0 0-.06 0h-.05c-.09.01-.13.06-.13.15l-.01 2.91-.95-.8c.07-.1.16-.15.28-.14l.28.28a.1.1 0 0 0 .1.02.1.1 0 0 0 .05-.03 59.88 59.88 0 0 0 .02-2.17c0-.08-.08-.13-.22-.13.02-.16.09-.3.2-.44.05-.05.12-.07.19-.04.19.06.35.16.5.3.04.05.06.1.06.17L19 27.58Z" fill="#1E53AF"/><path d="M19.01 27.58v1.56c0 .06-.03.08-.1.06l-.24-.1v-2.92c0-.09.05-.14.14-.15h.05a.08.08 0 0 1 .06 0 .07.07 0 0 1 .03.06l.06 1.49Z" fill="#fff"/><path d="M39.13 26.69c.04.33.17.46.4.4-.58.2-.93.54-1.06.99-.06.2 0 .24.19.12.16-.1.35-.2.56-.3.08-.03.13-.01.16.06.03.07.04.16.04.24-.22-.08-.44.03-.66.35a.07.07 0 0 0 0 .07s0 .02.02.02l.03.02c.07 0 .17 0 .29-.04-.08.2-.21.3-.4.3a.25.25 0 0 1-.18-.06l-.38-.37c-.05-.04-.06-.1-.03-.16l.12-.22a.54.54 0 0 0 .06-.17l.1-.73c.39-.1.63-.28.74-.52Z" fill="#2E60B0"/><path d="m17.6 27.88-1.41.04a.14.14 0 0 0-.1.04.13.13 0 0 0-.04.1l-.01 2.9c0 .09.04.16.08.24-.11.1-.22.12-.31.07a.15.15 0 0 1-.1-.14v-3.48c0-.08.05-.12.13-.12h1.55c.08 0 .14.02.18.07.07.08.08.17.03.28Z" fill="#1E53AF"/><path d="m30.28 27.55-.31.47c-.12.18-.07.24.14.17.34-.1.67-.16.98-.17.1 0 .15.05.13.14v.07c0 .02-.02.05-.05.07a.14.14 0 0 1-.08.03c-.25.01-.48.06-.7.15-.08.03-.1.08-.06.15v.01c.03.02.06.03.1.03l.64-.11c.1-.02.16.03.15.13l-.06 1.24c-.16-.28-.24-.6-.23-.96 0-.03 0-.06-.02-.08a.17.17 0 0 0-.06-.07.18.18 0 0 0-.18 0c-.11.05-.24.1-.37.12a.24.24 0 0 1-.22-.07l-.37-.38a.25.25 0 0 1-.06-.24c.09-.41.3-.64.63-.7Z" fill="#2E60B0"/><path d="M14.27 27.9c.03.87.05 1.74.06 2.64 0 .29-.05.5-.17.64-.14.17-.35.32-.62.43l.42-.7a.77.77 0 0 0 .14-.44v-1.98c0-.07-.04-.1-.11-.1a.8.8 0 0 0-.36.13c-.2.02-.32-.02-.39-.11-.03-.06-.03-.11.02-.16.26-.23.6-.34 1-.34Z" fill="#4691CC"/><path d="M17.6 27.88c.02.11.15.2.4.27a.32.32 0 0 0-.28.14h-.95c-.21.01-.32.1-.32.3l-.02 2.66c-.14-.06-.24-.08-.31-.05-.04-.08-.08-.15-.08-.24a194.25 194.25 0 0 0 .02-2.96.13.13 0 0 1 .07-.07l.06-.01 1.41-.04Z" fill="#A7C9F0"/><path d="M43.95 28.22h-2.39l-.07.05a.17.17 0 0 0-.08.15l-.03 2.75c0 .07-.04.1-.11.1h-.1a.13.13 0 0 1-.09-.02.1.1 0 0 1-.04-.08v-3.04l.02-.06c0-.02.02-.04.03-.05a.15.15 0 0 1 .12-.04 17.07 17.07 0 0 0 2.74 0 .1.1 0 0 1 .05.05c.02.05 0 .11-.05.2Z" fill="#4777BF"/><path d="m39.42 28.2.14.15-.46.27a.72.72 0 0 1-.29.04l-.03-.02-.02-.02a.06.06 0 0 1 0-.07c.22-.32.44-.43.66-.35ZM43.95 28.22c-.05.06-.05.14 0 .23l-.27.14a.37.37 0 0 1-.18.04l-1.84-.02.02-.22a.1.1 0 0 0-.05-.1.14.14 0 0 1-.07-.06h2.39Z" fill="#A7C9F0"/><path d="M13.63 28.52a.8.8 0 0 1 .36-.13c.08 0 .11.03.11.1v1.98c0 .16-.05.31-.13.44a7.81 7.81 0 0 0-.44.72l-.54.2c.11-.25.27-.44.48-.56a.54.54 0 0 0 .18-.2.5.5 0 0 0 .07-.24v-1.3c0-.1-.05-.15-.14-.17-.4-.08-.8-.05-.88.4a4.32 4.32 0 0 1-2.22 3.03c-.25.14-.51.21-.8.21H4.56c-.18 0-.29-.17-.4-.28-.23-.2-.17-.46.05-.64.11.04.18.04.21 0 .08.37.23.56.66.57 1.14.01 2.29-.05 3.43-.18 2.37-.07 3.86-1.84 3.98-4.04.12-.16.33-.09.63.22.05.04.1.05.16.03l.36-.16Z" fill="#0D0C0D"/><path d="M33.25 28.8c.14.07.2.17.2.3-.04.5-.05 1-.05 1.5 0 .29.08.53.22.72.13.19.27.35.43.5.1.1.18.2.23.31l.19.39a.08.08 0 0 1 0 .08.1.1 0 0 1-.04.03 733.64 733.64 0 0 0-3.4.02c-.5 0-.38-.33-.67-.5a.15.15 0 0 0-.16 0 .19.19 0 0 0-.1.12c-.04.2-.17.32-.4.33-1.12.02-2.24.01-3.36-.03l2.9-.02c.06 0 .11-.01.16-.05a.47.47 0 0 1 .27-.08c.07 0 .13-.03.16-.09.15-.24.2-.49.15-.76.19.18.39.21.6.1v.1a.14.14 0 0 0 .04.1.15.15 0 0 0 .11.04l2.78-.02c.03 0 .06 0 .08-.02a.13.13 0 0 0 .05-.06.13.13 0 0 0 .01-.07.13.13 0 0 0-.03-.07l-.34-.35a.23.23 0 0 1-.07-.17l.04-2.34ZM44 28.86v2.16c0 .21-.14.38-.45.5-.02-.1 0-.18.06-.27.07-.1.12-.17.13-.21a3 3 0 0 0 .18-1.52l.02-.6c.02-.04.03-.06.05-.06Z" fill="#2E60B0"/><path d="M28.28 29.57c.02.13.23.19.65.16-.13 0-.22.01-.28.04-.06.02-.07.06-.05.12.16.43.37.82.64 1.16.19.23.35.47.5.74.06.13-.02.29-.17.31-.45.08-.9 0-1.36 0l-5.42.05c-.14 0-.24.03-.3.09-.07.07-.11.18-.11.32-.14-.2-.27-.35-.41-.46-.09-.06-.17-.01-.24.15l.01-.57c.23.12.45.12.68 0 0 .14.08.22.26.22h6.49c.06 0 .1-.06.06-.1-.42-.6-.79-1.23-1.1-1.9a.2.2 0 0 0-.1-.1c-.06-.03-.1-.01-.13.05l-.05.1c-.01-.23-.06-.33-.14-.28.06-.06.07-.15.05-.25-.02-.07 0-.13.06-.17a.4.4 0 0 1 .25-.07c.07 0 .11.04.12.1.01.11.04.2.1.3ZM20.06 29.85c.29.77.68 1.36 1.17 1.78.39.33.32.5-.2.5l-7.01.03a.37.37 0 0 0-.2.06l-.22.14c-.04-.2-.25-.35-.63-.42-.02 0-.01-.04.02-.1l.54-.21c-.05.16.06.24.35.24a694.19 694.19 0 0 1 7.04-.03l.02-.02a.04.04 0 0 0-.01-.05c-.5-.5-.9-1.12-1.2-1.82-.07-.18-.16-.18-.26-.02l-.18.28c-.05-.28 0-.47.16-.6a.19.19 0 0 1 .18-.02c.24.08.38.16.43.26Z" fill="#1E53AF"/><path d="M28.93 29.73c.24.68.59 1.3 1.05 1.84.05.27 0 .52-.15.76a.19.19 0 0 1-.16.1c-.1 0-.2.02-.27.07a.28.28 0 0 1-.16.05l-2.9.02h-3.96c0-.15.04-.26.11-.33.06-.06.16-.09.3-.09l5.42-.04c.45 0 .9.07 1.36 0l.1-.05a.22.22 0 0 0 .06-.07.2.2 0 0 0 0-.2c-.14-.27-.3-.51-.49-.74a4.19 4.19 0 0 1-.64-1.16c-.02-.06 0-.1.05-.12a.64.64 0 0 1 .28-.04ZM20.06 29.85c.3.06.53.28.7.66.13.3.46.7.98 1.17l-.01.57c-.04.22-.16.33-.35.33-2.47-.03-4.95-.03-7.42.02-.1 0-.17-.02-.22-.06a.88.88 0 0 1-.14-.18l.22-.14a.37.37 0 0 1 .2-.06l7-.03c.53 0 .6-.17.21-.5a4.29 4.29 0 0 1-1.17-1.78Z" fill="#A7C9F0"/><path d="M41.67 29.98c.05.26.08.53.09.8.01.3.16.47.23.77l-.37-.27a.17.17 0 0 1-.07-.16l.12-1.14Z" fill="#4691CC"/><path d="M46.29 31.5c.1.13.18.17.21.14l.72.72c.07.04.1.09.13.14.02.06 0 .1-.07.1h-3.66a.36.36 0 0 1-.31-.2c.04-.07.1-.14.18-.18a.42.42 0 0 1 .22-.07 68.54 68.54 0 0 1 2.81-.04.1.1 0 0 0 .04-.03.08.08 0 0 0 0-.1l-.26-.33c-.03.02-.04-.03-.01-.14Z" fill="#A7C9F0"/><path d="M42.08 31.62c.15.16.33.29.54.39.06.03.1.07.13.13l.18.32c.05.1.02.15-.1.15l-3.74-.04c-.28-.1-.31-.37-.58-.51a.15.15 0 0 1-.01-.13l.38-.21c.07.12.14.18.22.18 1.26.02 2.12.02 2.56 0 .26-.01.4-.1.42-.28Z" fill="#2E60B0"/><path d="M43.31 31.68c0 .14.08.21.25.22.41.01 1.14.02 2.18 0 .25 0 .43-.08.56-.25l.25.34a.08.08 0 0 1-.03.12 68.55 68.55 0 0 0-2.81.04.42.42 0 0 0-.22.07.58.58 0 0 0-.18.18l-.32-.36c-.05-.05-.05-.1-.01-.16a.5.5 0 0 1 .33-.2ZM47.8 31.74c-.04.1.01.15.16.16 1.28.01 2.19.02 2.7 0 .17 0 .3-.06.42-.18.19.12.3.25.34.4h-3c-.33 0-.53.13-.59.36a1.08 1.08 0 0 1-.2-.29c-.05-.1-.17-.13-.36-.08.06-.01.03-.04-.07-.1.03.02.06.02.1.01.02 0 .04-.02.05-.06a.48.48 0 0 0 0-.16l.01.09.01.03.03.02a.07.07 0 0 0 .07 0l.32-.2Z" fill="#1E53AF"/><path d="M39.17 32.54c.02.02 0 .03-.08.03-.05-.3.07-.44.34-.44h2.95c.07 0 .1.03.1.1v.11c0 .08-.03.12-.11.12-.21 0-.45.1-.65.1-.85 0-1.7 0-2.55-.02ZM51.42 32.12c.13.14.2.26.25.38.02.06 0 .1-.07.1h-3.5c-.13 0-.22-.05-.27-.12.06-.23.26-.35.6-.36h2.99Z" fill="#A7C9F0"/><path fill-rule="evenodd" d="m21.2 23.59-.3-.29c-.05 0-.07.05-.06.15.16.1.28.23.36.38.03.06.02.11-.02.17l-.53.62-.43.6c-.07.28-.2.5-.4.67-.05.04-.1.04-.15-.01a6.04 6.04 0 0 0-1.31-.97c-.42-.23-.84-.21-1.28-.19l-.3.02a.23.23 0 0 0-.14.06.2.2 0 0 0-.07.14l-.07 1.63c.13.23.25.25.36.06a.1.1 0 0 0 .01-.05l.03-1.04c0-.07.04-.1.12-.11.33-.03.66-.01.98.05.04 0 .08.02.1.04.04.03.06.06.07.09a.21.21 0 0 1 0 .2c-.24.37-.55.7-.95 1-.04.02-.04.06-.02.1l.05.05c.36-.1.69-.38.98-.84.02-.16.09-.3.2-.44.05-.05.11-.07.19-.04.19.06.35.16.5.3.04.05.06.1.05.17l-.16 1.47v1.56c0 .06-.03.08-.1.06l-.24-.1-.95-.8h-.95c-.21 0-.32.1-.32.3l-.02 2.65c1.1.04 2.28-.04 2.86-1.04-.05-.28 0-.47.16-.6a.19.19 0 0 1 .18-.02c.24.08.38.16.43.26.3.06.53.28.7.66.13.3.46.7.98 1.17.23.12.45.12.68 0 .2-.1.35-.22.47-.37a.8.8 0 0 0 .15-.52c.01-1.07.01-2.15 0-3.21-.04-.8-.06-1.6-.06-2.4 0-.1-.02-.23-.07-.37a1.78 1.78 0 0 1-.09-.38.3.3 0 0 0-.07-.17l-.78-.87c-.3.2-.36.4-.2.57.25.29.45.52.6.72.14.2.22.4.22.62-.03 1.86-.02 3.77 0 5.72.01.25-.16.42-.38.54a.3.3 0 0 1-.32-.04 4.92 4.92 0 0 1-.97-1.16c-.1-.2-.2-.38-.38-.49-.34-.2-.7-.38-1.05-.53-.07-.03-.1-.08-.1-.15v-2.18c0-.27.14-.43.42-.47a.62.62 0 0 0 .48-.31c.27-.47.58-.92.92-1.36.2-.26.32-.62.1-.9a.28.28 0 0 1-.05-.2.2.2 0 0 0-.06-.18ZM17 31.03c.42.01.81-.06 1.18-.2.32-.11.58-.33.77-.65.11-.2.05-.3-.18-.32-.37-.02-.55-.24-.75-.47a6.29 6.29 0 0 0-.1-.12c-.27-.31-1.01-.34-1.02.2a39 39 0 0 0-.02 1.44c0 .03.01.06.04.09.02.02.05.03.09.03ZM51.48 23.82c0-.21-.1-.38-.33-.52-.03 0-.04 0-.06.04-.01.04 0 .07.03.1.13.1.21.23.25.38.02.06 0 .11-.04.16l-.42.42a.38.38 0 0 0-.1.16l-.25.8c0 1.94 0 3.87.02 5.8 0 .22.17.4.5.56.19.12.3.25.34.4.13.14.2.26.25.38.02.06 0 .1-.07.1h-3.5c-.13 0-.22-.05-.27-.12a1.08 1.08 0 0 1-.2-.29c-.05-.1-.17-.13-.36-.08l-.05.25c.06.04.1.09.13.14.02.06 0 .1-.07.1h-3.66a.36.36 0 0 1-.31-.2l-.32-.36c-.05-.05-.05-.1-.01-.16a.5.5 0 0 1 .33-.2.8.8 0 0 0 .24-.17c-.02-.08 0-.17.06-.26.07-.1.12-.17.13-.21a3 3 0 0 0 .18-1.52c-.08-.17-.1-.34-.1-.53 0-.03.02-.04.06-.05.02 0 .04 0 .06-.03.02-.03.03-.05.05-.05a.79.79 0 0 0-.03-.41l-.28.14a.37.37 0 0 1-.18.04l-1.84-.02.01 1.37c.05.26.08.53.09.8 0 .18.06.32.12.46.04.1.08.2.1.3.04.08.07.1.1.08.15.16.33.29.53.39.06.03.11.07.14.13l.18.32c.05.1.02.15-.1.15l-1.64-.02c-.77-.01-1.54-.03-2.1-.02-.15-.05-.23-.15-.31-.26a.8.8 0 0 0-.27-.25c-.15.08-.23.2-.24.33-.02.18.1.29.22.4l.11.1c.06.07.13.1.22.1h13.04c.07 0 .11-.04.13-.1a.6.6 0 0 0-.12-.5c-.25-.33-.52-.66-.81-.97a.21.21 0 0 1-.07-.15l.02-5.98c0-.05.02-.1.04-.14l.59-.88a.17.17 0 0 0-.03-.22l-.06-.05a.23.23 0 0 1-.07-.18Zm-8.9 5.52c-.29 0-.43.12-.44.4l-.02 1.46c0 .09.03.17.1.23l.44.45.03.02a.09.09 0 0 0 .1-.03c.15-.22.34-.4.57-.54a.26.26 0 0 0 .09-.1.25.25 0 0 0 .03-.11l-.03-1.34c0-.26-.14-.4-.42-.41l-.45-.03Z" fill="#0D0C0D"/><path d="m33.04 24.57.02 2.57c0 .04-.02.1-.06.13a.2.2 0 0 1-.13.06h-.1c-.08.02-.12-.02-.12-.1l.03-2.9c0-.16.08-.24.24-.26a4.8 4.8 0 0 1 2.03.2c.1.02.12.09.1.18-.02.06-.07.09-.13.08l-1.7-.12c-.1 0-.19.07-.18.16Z" fill="#4777BF"/><path d="M34.35 27.21c-.08.01-.15 0-.22-.03a.09.09 0 0 1-.04-.04c-.02-.05 0-.11.07-.12.54-.12.93-.33 1.18-.62.24-.28.31-.61.21-1-.11-.43-1.95-.53-2.3-.56a.1.1 0 0 1 0-.07c0-.05.03-.08.09-.09a5.23 5.23 0 0 1 1.62.09c.4.08.78.27.84.7.12.95-.36 1.53-1.45 1.74Z" fill="#1E53AF"/><path fill-rule="evenodd" d="M5.26 31.25a1.5 1.5 0 0 1-.64.48c.1.11.21.16.33.17.91.04 1.89.03 2.92 0a5.69 5.69 0 0 0 1.65-.3c1.74-.6 2.27-2.36 2.26-4.05 0-1.73-.74-3-2.22-3.8a2.71 2.71 0 0 0-1.18-.3c-1.13-.06-2.29-.08-3.47-.06-.07 0-.1.04-.09.1 0 .05.03.1.07.16.3.22.44.43.44.64a724.6 724.6 0 0 0 0 6.79c0 .06-.03.12-.07.17Zm2.67-.15c.65-.12 1.2-.33 1.42-.93.48-1.32.5-2.7.09-3.95a.96.96 0 0 0-.38-.51c-.2-.14-1.2-.51-1.2.02v5.3c0 .06.02.08.07.07Z" fill="#fff"/><path d="M33.26 24.84c.09 0 .13.04.13.1.36.97-.07.16 1.28.69.68.15.64.43.68.77-.26.3-.65.5-1.2.62-.21.04.08.2.2.2l-.95.1c-.1 0-.16-.04-.16-.14l.02-2.34Z" fill="#4691CC"/><path d="m7.1 24.5-.01 6.73c0 .12-.12.12-.2.12-.08 0-.11-.04-.11-.1v-7.12l.01-.06a.15.15 0 0 1 .15-.08l1.42.08.05.01c.1.06.05.29-.08.26a2.71 2.71 0 0 0-1.07-.01c-.1.02-.16.07-.16.17Z" fill="#1E53AF"/><path d="M7.77 24.59c.46-.04.9 0 1.31.13.3.1.52.25.65.48.13.22.2.49.23.8a3.14 3.14 0 0 0-.54-.8 1.27 1.27 0 0 0-.67-.3 5.37 5.37 0 0 1-.98-.31Z" fill="#1E53AF"/><path d="M33.92 32.14H31c-.08 0-.15.07-.15.14 0 .08.07.15.15.15h2.93c.08 0 .15-.07.15-.14 0-.08-.07-.15-.15-.15Z" fill="#A7C9F0"/><path fill-rule="evenodd" d="M8.75 24.9a5.37 5.37 0 0 1-.98-.31.48.48 0 0 0-.27-.02c-.06.02-.09.05-.09.1v6.56c0 .03.01.05.03.07.02.02.05.04.08.04 1.68.07 2.38-1.27 2.54-2.66a7.96 7.96 0 0 0-.1-2.68 3.14 3.14 0 0 0-.54-.8 1.27 1.27 0 0 0-.67-.3Zm-.82 6.2c.38-.07.7-.2.92-.36.2-.14.37-.36.48-.66a5.7 5.7 0 0 0 .1-3.86.96.96 0 0 0-.37-.51c-.13-.09-.27-.1-.41-.13-.23-.03-.6-.26-.76.01a.26.26 0 0 0-.03.14v5.3c0 .06.02.08.07.07Z" fill="#0D0C0D"/><path d="M35.34 26.4c-.03-.34-.17-.57-.43-.67-.35-.14-.7-.18-1.03-.12-.08.01-.12.06-.11.13.01.4 0 .82-.05 1.27 0 .1-.1.17-.2.14a.17.17 0 0 1-.1-.04c-.02-.03-.04-.1-.03-.21l.02-1.88c0-.1.05-.17.16-.18a3 3 0 0 1 1.8.34l.12.1c.03.03.05.08.06.12.1.39.03.72-.2 1Z" fill="#0D0C0D"/><path d="M51.15 23.3c-.03 0-.04 0-.06.04-.01.04 0 .07.03.1.13.1.21.23.25.38.02.06 0 .11-.04.16l-.42.42a.38.38 0 0 0-.1.16l-.25.8c-.22-.62-.06-1.11.5-1.46.02-.01.03-.03.01-.05l-.03-.04a.1.1 0 0 0-.07-.04.1.1 0 0 0-.08.03l-.46.44a.36.36 0 0 0-.12.26l-.04 6.67c0 .06-.03.1-.1.1h-.1a.13.13 0 0 1-.09-.02.11.11 0 0 1-.03-.08l-.07-6.13c-.01-.42 0-.76.33-1.08.15-.15.29-.3.4-.44.07-.08.05-.12-.05-.12h-2.62c-.12 0-.14.04-.06.13l.63.68c.05.05.07.11.07.18l-.19 6.93-.14-6.92a.24.24 0 0 0-.07-.16l-.79-.83c-.11-.06-.15-.17-.1-.3.03-.08.08-.11.16-.11l3.6.02c.06 0 .1.03.1.1v.18Z" fill="#4777BF"/><path d="m37.06 23.92.4.45c.02.28.08.55.17.82.12.32.17.57.16.76-.12 1.22-1 2.1-2.29 2.32a7.9 7.9 0 0 1-2.34.08.15.15 0 0 0-.1.08v2.74a.1.1 0 0 1 0 .05.12.12 0 0 1-.07.06h-.13c-.14 0-.2-.07-.2-.2l.02-2.9a.17.17 0 0 1 .05-.13.19.19 0 0 1 .14-.04c.81.02 1.97.1 2.73-.23.27-.12.52-.24.76-.38 1.44-.79 1.3-2.76-.07-3.49-.5-.26-.92-.4-1.24-.42-.41-.03-4.43-.2-4.4-.02l.02.04c.14.14.27.29.39.44.28.35.18 1 .12 1.43a2.69 2.69 0 0 1-.23-1 .24.24 0 0 0-.07-.16c-.34-.37-.6-.77-.75-1.2h4.23a5.82 5.82 0 0 1 2.7.9Z" fill="#2E60B0"/><path d="M25.96 23.51c-.02.1-.02.17 0 .18a.87.87 0 0 0-.14.3.4.4 0 0 1-.14.2.99.99 0 0 0-.43.68c-.02.14-.06.27-.12.4-.2-.6-.03-1.07.5-1.4.01 0 .01 0 0 0l-.03-.05c-.03-.02-.06-.02-.08 0l-.53.45a.23.23 0 0 0-.1.17l-.08 6.84c0 .03-.01.05-.03.07a.13.13 0 0 1-.08.04h-.08c-.08.01-.12-.02-.12-.09.02-2.43.02-4.7 0-6.83 0-.18.06-.32.17-.4.28-.22.47-.45.59-.68.17-.04.36.05.56.27.04.05.09 0 .14-.15Z" fill="#4777BF"/></svg>