<svg width="56" height="56" viewBox="0 0 56 56" xmlns="http://www.w3.org/2000/svg"><path fill="#F0F3FA" d="M0 0h56v56H0z"/><path d="M18.52 30.05v-1.73C14.27 31.9 13 36.09 13 38.8c0 2.73 1.93 5.2 4.88 5.2 5.53 0 9.37-5.28 10.6-7.92l3.52.5v-1.2l-5.13-5.83-6.87 4.2v1.17c.61.1 2.17.34 3.11.45a6.54 6.54 0 0 1-4.98 3.16c-1.08 0-2.81-.36-2.81-3.16 0-2.23 2.13-4.48 3.2-5.32Z" fill="url(#a22uuxm3r)"/><path d="M18.52 28.77V28C14.27 31.57 13 34.8 13 37.52c0 2.73 1.93 5.2 4.88 5.2 5.53 0 9.37-5.28 10.6-7.92l3.52.5-5.13-7.02L20 33.73c.61.1 2.06.24 3 .36-1.47 2.38-3.8 3.15-4.87 3.15-1.08 0-2.81-.35-2.81-3.15 0-2.24 2.13-4.48 3.2-5.33Z" fill="url(#b22uuxm3r)"/><path d="M37.48 25.95v1.72C41.73 24.1 43 19.92 43 17.2c0-2.72-1.93-5.2-4.88-5.2-5.53 0-9.37 5.28-10.6 7.92l-3.52-.5v1.2l5.13 5.83 6.87-4.2v-1.18c-.61-.1-2.17-.33-3.11-.45a6.54 6.54 0 0 1 4.98-3.14c1.08 0 2.81.34 2.81 3.14 0 2.24-2.13 4.49-3.2 5.33Z" fill="url(#c22uuxm3r)"/><path d="M37.48 27.23V28c4.25-3.57 5.52-6.8 5.52-9.52 0-2.73-1.93-5.2-4.88-5.2-5.53 0-9.37 5.28-10.6 7.92L24 20.7l5.13 7.03L36 22.25c-.61-.1-2.06-.23-3-.35 1.47-2.38 3.8-3.15 4.87-3.15 1.08 0 2.81.35 2.81 3.15 0 2.24-2.13 4.48-3.2 5.33Z" fill="url(#d22uuxm3r)"/><path d="M18.32 18.17c0 2.22 1.85 4.37 2.88 5.17l.41-3.01 4.93 5.76v1L19.9 32v-1.12c.08-.75.32-1.87.4-2.4a12.16 12.16 0 0 1-7.3-10.7c0-2.1 1.3-4.7 4.83-4.7 4.35 0 8.56 3.75 9.17 5.88h-.7c-1.06-1.14-3.54-3.32-5.1-3.32-1.96 0-2.88 1.22-2.88 2.53Z" fill="url(#e22uuxm3r)"/><path d="M18.12 17.1c0 2.22 2.05 4.37 3.08 5.16l.41-3.01 4.93 6.77-6.64 4.9c.08-.78.26-2.58.4-3.51A12.16 12.16 0 0 1 13 16.7c0-2.1 1.3-4.71 4.83-4.71 4.35 0 7.93 3.83 9.17 5.74v1.34h-.7v-1.34c-1.06-1.14-3.54-3.42-5.1-3.42-1.96 0-3.08 1.46-3.08 2.78Z" fill="url(#f22uuxm3r)"/><path d="M37.68 37.83c0-2.22-1.85-4.37-2.88-5.17l-.41 3.01-4.93-5.76v-1L36.1 24v1.12c-.08.75-.32 1.87-.4 2.4a12.16 12.16 0 0 1 7.3 10.7c0 2.1-1.3 4.7-4.83 4.7-4.35 0-8.56-3.75-9.17-5.88h.7c1.06 1.14 3.54 3.32 5.1 3.32 1.96 0 2.88-1.22 2.88-2.53Z" fill="url(#g22uuxm3r)"/><path d="M37.88 38.9c0-2.22-2.05-4.37-3.08-5.16l-.41 3.01-4.93-6.77 6.64-4.9c-.08.78-.26 2.58-.4 3.51A12.16 12.16 0 0 1 43 39.3c0 2.1-1.3 4.71-4.83 4.71-4.35 0-7.93-3.83-9.17-5.74v-1.34h.7v1.34c1.06 1.14 3.54 3.42 5.1 3.42 1.96 0 3.08-1.46 3.08-2.78Z" fill="url(#h22uuxm3r)"/><defs><linearGradient id="a22uuxm3r" x1="31.54" y1="36.18" x2="12.98" y2="36.18" gradientUnits="userSpaceOnUse"><stop stop-color="#909090"/><stop offset="1" stop-color="#CDC9CA"/></linearGradient><linearGradient id="b22uuxm3r" x1="31.54" y1="35.38" x2="12.98" y2="35.38" gradientUnits="userSpaceOnUse"><stop stop-color="#CDC9CA"/><stop offset="1" stop-color="#909090"/></linearGradient><linearGradient id="c22uuxm3r" x1="24.46" y1="19.82" x2="43.02" y2="19.82" gradientUnits="userSpaceOnUse"><stop stop-color="#2A7CBC"/><stop offset="1" stop-color="#7EC7E7"/></linearGradient><linearGradient id="d22uuxm3r" x1="24.46" y1="20.63" x2="43.02" y2="20.63" gradientUnits="userSpaceOnUse"><stop stop-color="#7EC7E7"/><stop offset="1" stop-color="#2A7CBC"/></linearGradient><linearGradient id="e22uuxm3r" x1="20" y1="13.08" x2="20" y2="32" gradientUnits="userSpaceOnUse"><stop stop-color="#F39600"/><stop offset="1" stop-color="#E85804"/></linearGradient><linearGradient id="f22uuxm3r" x1="20" y1="12" x2="20" y2="30.92" gradientUnits="userSpaceOnUse"><stop stop-color="#E85804"/><stop offset="1" stop-color="#F39600"/></linearGradient><linearGradient id="g22uuxm3r" x1="36" y1="42.92" x2="36" y2="24" gradientUnits="userSpaceOnUse"><stop stop-color="#57BC20"/><stop offset="1" stop-color="#1E963D"/></linearGradient><linearGradient id="h22uuxm3r" x1="36" y1="44" x2="36" y2="25.08" gradientUnits="userSpaceOnUse"><stop stop-color="#1E963D"/><stop offset="1" stop-color="#57BC20"/></linearGradient></defs></svg>