<svg xmlns="http://www.w3.org/2000/svg" width="56" height="56" viewBox="0 0 56 56"><path fill="url(#amufpe04o)" d="M0 0h56v56H0z"/><path d="M49.4 16.08c.06.4.18 1.93-1.45 3.15a3.68 3.68 0 0 0-1.62 2.6c.6.1 1.88.2 3.02-1.5 1.3-1.92.3-3.84.05-4.25z" fill="#62813B"/><path d="M49.4 16.09l-.02-.03a3.41 3.41 0 0 1-1.66 2.87 4.09 4.09 0 0 0-1.86 3.03l.4.04v-.17c.03-.46.29-1.64 1.65-2.6 1.7-1.2 1.54-2.75 1.48-3.14z" fill="#88AD4C"/><path d="M47.65 18.53c1.57-1.18 1.71-2.37 1.72-2.48l-.04-.05c-.39 1.27-2.67.86-3.85 2.49-.9 1.25-.33 2.34.09 2.88.1-.6.5-1.67 2.08-2.84z" fill="#AFD138"/><path d="M15.5 27.62h2.94v-1.3H15.5V24.3h3.11V23H14v8h4.79v-1.3H15.5v-2.08zM8.3 23c-.77 0-1.54.05-2.3.16v7.73c.65.08 1.3.11 1.95.11 1.55 0 2.8-.36 3.6-1.07a4.05 4.05 0 0 0 1.23-3.13c0-1.34-.47-2.27-1.24-2.89-.73-.6-1.75-.91-3.23-.91zm-.05 6.7H7.5v-5.4h.94c1.81 0 2.82.81 2.8 2.55 0 2-1.1 2.86-3 2.85zM21.58 31L19 23h1.58l1.1 3.63c.3 1.01.56 1.95.77 2.92h.03c.21-.95.5-1.92.81-2.9L24.45 23H26l-2.75 8h-1.67zm6.92-3.34V31H30v-3.37L32.68 23h-1.66l-1.69 3.64L27.67 23H26l2.5 4.66zm5.08 1.07L32.9 31h-1.5l2.54-8h1.85l2.58 8H36.8l-.71-2.27h-2.52zm2.27-1.1l-.62-1.97c-.13-.4-.24-.82-.33-1.22l-.07-.28h-.03l-.12.5c-.08.34-.16.69-.25 1l-.62 1.97h2.04zM39 23v8h1.5v-5.48L43.95 31h1.55v-8H44v5.33L40.7 23H39zm9 0v8h-1.5v-8H48zM26.15 34.47c0 1-.6 1.53-1.32 1.53-.74 0-1.27-.6-1.27-1.47 0-.93.56-1.53 1.32-1.53.77 0 1.27.6 1.27 1.47zm-2.2.05c0 .62.33 1.17.9 1.17.58 0 .91-.54.91-1.2 0-.58-.3-1.18-.9-1.18-.6 0-.9.57-.9 1.2zM6.37 33v3H6v-3h.37zm.57 3v-3h.4l.9 1.52c.2.31.37.64.52.97-.03-.4-.04-.77-.04-1.23V33h.35v3H8.7l-.9-1.52c-.2-.32-.37-.66-.53-1h-.01c.02.38.03.74.03 1.24V36h-.35zm2.38-2.67h.86V36h.37v-2.67h.87V33h-2.1v.33zm3.82 1.26h-1.1v1.08h1.22V36h-1.59v-3h1.53v.33h-1.16v.94h1.1v.32zM14.38 33c-.24 0-.47.02-.7.06V36h.36v-1.29h.35c.33.01.48.17.56.58.04.24.1.48.2.71h.37c-.1-.26-.17-.54-.22-.82-.07-.3-.2-.52-.41-.6v-.01c.15-.05.29-.15.38-.29.1-.13.15-.3.15-.47a.78.78 0 0 0-.22-.57c-.18-.16-.43-.24-.82-.24zm.03 1.42h-.37v-1.09c.12-.03.24-.04.36-.03.39 0 .65.17.65.55 0 .34-.24.57-.64.57zM15.87 36v-3h.4l.91 1.52c.19.31.36.64.5.97h.02c-.04-.4-.05-.77-.05-1.23V33H18v3h-.37l-.9-1.52a9.7 9.7 0 0 1-.53-1h-.01c.02.38.03.74.03 1.24V36h-.35zm2.87 0l.3-.94h1l.3.94h.4l-.97-3h-.45l-.96 3h.38zm.95-2.1l.27.85h-.85l.28-.86.14-.55.02.04.13.51zm1.6-.57h-.85V33h2.1v.33h-.87V36h-.37v-2.67zM23.2 36v-3h-.37v3h.37zm3.37-3v3h.35v-1.28c0-.5-.01-.86-.03-1.24.17.34.34.68.54 1l.9 1.52h.37v-3h-.35v1.26c0 .46.01.83.05 1.23h-.01a8.65 8.65 0 0 0-.51-.97l-.9-1.52h-.4zm3.16 2.06l-.3.94h-.37l.96-3h.44l.97 3h-.4l-.3-.94h-1zm.93-.3l-.28-.87a6.9 6.9 0 0 1-.14-.51v-.04h-.01l-.14.55-.28.86h.85zM32.14 33h-.37v3h1.58v-.33h-1.21V33zm2.38 0h.37v2.67h1.2V36h-1.57v-3zm2.29 3v-3h-.37v3h.37zm2.96-1.32c-.02-.42-.04-.92-.04-1.3h-.01c-.1.36-.22.73-.36 1.15l-.5 1.45h-.28l-.46-1.43c-.13-.42-.24-.8-.32-1.16h-.01l-.06 1.32-.07 1.29h-.35l.2-3h.46l.49 1.45c.11.37.21.7.28 1.01h.01l.3-1 .5-1.46h.47l.18 3h-.36l-.07-1.32zm1.3 1.32v-3h-.37v3h.37zm1.11-2.67h-.86V33h2.1v.33h-.87V36h-.37v-2.67zm1.85 1.26h1.1v-.32h-1.1v-.95h1.17V33h-1.53v3h1.6v-.33h-1.24V34.6zm1.64-1.53c.26-.04.52-.06.78-.06.53 0 .9.13 1.15.37a1.37 1.37 0 0 1 .4 1.06 1.62 1.62 0 0 1-.41 1.15c-.26.27-.7.42-1.25.42-.22 0-.45-.01-.67-.04v-2.9zm.37 2.61c.12.02.25.03.37.02.78 0 1.2-.45 1.2-1.25 0-.7-.37-1.14-1.14-1.14a2 2 0 0 0-.43.04v2.33z" fill="#fff"/><defs><linearGradient id="amufpe04o" x1="10.42" y1="9.71" x2="68.15" y2="76.02" gradientUnits="userSpaceOnUse"><stop stop-color="#1A1E21"/><stop offset="1" stop-color="#06060A"/></linearGradient></defs></svg>