<svg xmlns="http://www.w3.org/2000/svg" width="56" height="56" fill="none"><path fill="#F0F3FA" d="M0 0h56v56H0z"/><circle cx="9.5" cy="30.5" r="2" stroke="#376F56"/><circle cx="21.5" cy="30.5" r="2" stroke="#376F56"/><circle cx="37.5" cy="30.5" r="2" stroke="#376F56"/><path d="M12 30.5v-5.64L11 24v4.5l1 2zM43.5 32a1.5 1.5 0 01-1.5-1.5V28h-1v2.5a2.5 2.5 0 005 0V28h-1v2.5c0 .83-.67 1.5-1.5 1.5zM25 30.5a2.5 2.5 0 014.5-1.5 2.5 2.5 0 014.5 1.5V33h-1v-2.5a1.5 1.5 0 00-3 0V33h-1v-2.5a1.5 1.5 0 00-3 0V33h-1v-2.5zM13 25v8h1v-2.5a1.5 1.5 0 013 0V33h1v-2.5a2.5 2.5 0 00-4-2V25h-1zm10 7.44l1-1.94V33h-1v-.56zm12-1.94l1 1.91V35h-1v-4.5zm12-.24a2.25 2.25 0 014-1.42l-.67.76a1.26 1.26 0 00-2.33.66V33h2.07H47v-2.74z" fill="#376F56"/><path d="M9.46 19.27c.11 2.05 1.76 3.56 2.57 4.06l.56-6.52.5 3.45a3.7 3.7 0 012.42-1.99A7.17 7.17 0 0012.6 15c-1.08.57-3.23 2.22-3.13 4.27z" fill="#4AA139"/><path d="M18.4 19.46c-4.63-.8-5.03 2.22-4.66 3.83l3.11-2.28-2.47 2.93c4.26.53 4.45-2.77 4.02-4.48z" fill="#343434"/></svg>