<svg width="56" height="56" xmlns="http://www.w3.org/2000/svg"><path fill="#17AB47" d="M0 0h56v56H0z"/><path d="M50.044 29.065l-.797-.35c-.242-.105-.392-.27-.392-.542 0-.35.304-.634.749-.634.706 0 .908.504.908.906l1.455-.277c-.043-.729-.505-1.906-2.315-1.906-1.429 0-2.377.98-2.377 2.104 0 .775.379 1.369 1.327 1.782l.696.31c.369.167.466.386.466.62 0 .322-.238.632-.77.632-.606 0-.986-.453-.986-.994 0-.027 0-.064.012-.117l-1.43.274c.004.7.368 2.127 2.432 2.127 1.617 0 2.401-1.109 2.401-2.078 0-.774-.417-1.433-1.379-1.857zM46.987 18.332l-3.04 14.475h1.67L48.723 18l-1.736.332zM44.412 18.825l-2.921 13.982h1.668l3.011-14.318-1.758.336zM42.035 26.452l-1.04 5.064a5.36 5.36 0 00-.136 1.15v.14h-1.606c-.014-.075-.014-.218-.014-.27 0-.103 0-.194.014-.389-.331.53-.987.815-1.558.815-1.327 0-2.036-.89-2.036-2.078 0-.232.024-.477.127-.942l.664-3.16 1.74-.334-.723 3.44c-.063.286-.089.478-.089.61 0 .567.29.955.936.955.697 0 1.116-.583 1.267-1.305l.714-3.364 1.74-.332zM32.925 26.314c-.708 0-1.327.27-1.669.658l1.224-5.867-1.694.324-1.017 4.857-1.371 6.52h1.63l.19-.891c.215.518.898 1.047 1.871 1.047 1.875 0 3.265-1.665 3.265-3.988 0-1.473-.822-2.66-2.43-2.66zm-1 5.125c-.733 0-1.266-.555-1.266-1.46 0-1.21.736-2.156 1.684-2.156.773 0 1.315.479 1.315 1.423 0 1.444-.935 2.193-1.732 2.193zM29.028 26.46l-1.7.324-.083.394c-.05-.101-.129-.222-.248-.34-.275-.272-.758-.537-1.56-.537-1.797 0-3.176 1.64-3.176 3.795 0 1.563.899 2.827 2.427 2.827.836 0 1.38-.45 1.67-.89a7.796 7.796 0 00-.023.477c0 .09 0 .195.012.297h1.555c-.012-.117-.012-.194-.012-.245 0-.362.037-.775.114-1.148l1.024-4.955zm-3.883 4.979c-.746 0-1.215-.528-1.215-1.408 0-1.033.57-2.195 1.645-2.195.747 0 1.188.52 1.188 1.357 0 1.405-.759 2.246-1.618 2.246zM20.997 26.721l-.34.063-1.259 6.023h1.669l1.33-6.356-1.4.27zm1.121-3.632c-.621 0-1.137.515-1.137 1.148 0 .528.39.931.922.931.594 0 1.151-.48 1.151-1.15a.907.907 0 00-.936-.93zM20.657 23.364l-1.765.338-.705 3.426c-.204-.363-.718-.827-1.77-.827-1.796 0-3.175 1.64-3.175 3.795 0 1.574.9 2.814 2.43 2.827.835 0 1.377-.45 1.668-.89a5.881 5.881 0 00-.026.45c0 .104 0 .208.014.324h1.53a1.554 1.554 0 01-.013-.272c.013-.297.053-.721.142-1.122l1.67-8.049zm-4.53 8.075c-.747 0-1.216-.528-1.216-1.408 0-1.033.572-2.195 1.645-2.195.747 0 1.19.52 1.19 1.357 0 1.405-.76 2.246-1.62 2.246zM11.032 26.287c-.645 0-1.341.232-1.747.815.035-.247.038-.518.038-.632l-1.659.317c.028.2-.05.52-.099.752l-1.087 5.266h1.67l.784-3.677c.151-.71.593-1.317 1.315-1.317.62 0 .948.375.948.942 0 .116-.012.246-.039.375l-.77 3.677h1.683l.81-3.845a3.2 3.2 0 00.075-.67c0-1.15-.683-2.003-1.922-2.003M5.813 24.06L4 32.802h1.77l1.887-9.098-1.844.354z" fill="#fff"/></svg>