<svg width="56" height="56" viewBox="0 0 56 56" xmlns="http://www.w3.org/2000/svg"><path fill="#F0F3FA" d="M0 0h56v56H0z"/><path d="m28.45 12.04-1.88 7.9-.03.04a.08.08 0 0 1-.05.02h-1.03c-.06 0-.08-.03-.08-.09l.68-7.75c0-.03.02-.05.04-.05a17.52 17.52 0 0 1 2.35-.1v.03ZM31.81 14.65c-.93 1.74-1.87 3.48-2.83 5.23a.2.2 0 0 1-.18.11h-1.22l-.02-.01v-.03l2.81-7.74c0-.02.02-.03.05-.03.78.12 1.57.3 2.36.54.04.01.05.03.03.06a141.42 141.42 0 0 0-1 1.87ZM24.26 12.5l.21 7.42c0 .02 0 .04-.02.05a.07.07 0 0 1-.05.03h-1.03l-.05-.02a.07.07 0 0 1-.02-.05l-1.2-6.77.01-.05.04-.03 2.02-.64h.06l.03.06ZM34.78 13.5c.85.4 1.57.81 2.17 1.23l.04.05c0 .02 0 .04-.02.06L31.6 20.5a.06.06 0 0 1-.07.02 9.05 9.05 0 0 0-1.42-.42v-.04l4.58-6.54c.01-.02.02-.03.04-.03h.04ZM21.02 19.96 18.71 15v-.04c0-.02 0-.03.02-.03l1.72-1.08a.05.05 0 0 1 .05 0c.02 0 .03.02.04.03l1.8 6.03-.01.05a.05.05 0 0 1-.04.02h-1.22a.05.05 0 0 1-.05-.03ZM19.7 19.7l.13.24c.01.04 0 .05-.03.05h-1.6a.16.16 0 0 1-.14-.06l-2.02-2.4a.11.11 0 0 1-.03-.08c0-.03.01-.06.03-.08a15.64 15.64 0 0 1 1.37-1.33 23270.1 23270.1 0 0 0 2.29 3.67ZM40.48 18.1l-6.4 3.93c-.02.02-.05.02-.07 0a8.66 8.66 0 0 0-1.27-.94c0-.02 0-.04.02-.05a11447.8 11447.8 0 0 1 5.92-4.94l.05.01c.64.57 1.23 1.2 1.77 1.89.02.01.02.03.02.05 0 .02-.02.04-.04.05ZM15.04 18.7l1.28 1.21c.02.02.02.04.01.06 0 .02-.02.03-.05.03h-2.06c-.02 0-.04-.02-.05-.03a.05.05 0 0 1 0-.06l.79-1.2c0-.02.02-.02.03-.03.02 0 .03 0 .05.02ZM35.13 22.94a3195.3 3195.3 0 0 1 6.65-3.08l.04.04a16.15 16.15 0 0 1 1.15 2.42c0 .02 0 .04-.03.04l-7.01 2.1a.06.06 0 0 1-.08-.03 9.44 9.44 0 0 0-.87-1.41c0-.02.01-.03.03-.04a.63.63 0 0 0 .12-.04Z" fill="#9EC73E"/><path d="M17.35 23.4a10.62 10.62 0 0 0 .18 9.55c0 .03 0 .04-.03.04a459.18 459.18 0 0 1-4.4 0 .11.11 0 0 1-.07-.07 12.3 12.3 0 0 1 .03-9.89.12.12 0 0 1 .09-.03 15754.65 15754.65 0 0 1 4.37.01v.02l-.17.38ZM33.97 27.45a4.55 4.55 0 0 1-1.15 3.64c-.43.5-.96.92-1.56 1.24a5.84 5.84 0 0 1-3.14.67h-.16a1135102.87 1135102.87 0 0 0-7.38-.02.07.07 0 0 1-.05-.03 8.76 8.76 0 0 1 0-9.89.13.13 0 0 1 .1-.06h7.92a5.82 5.82 0 0 1 3.62 1.27c.5.4.9.87 1.2 1.41.32.55.52 1.14.6 1.77Z" fill="#00984B"/><path d="m36.45 26.07-.06-.28c0-.03.01-.05.04-.06l7.15-1.26h.04l.03.04a16 16 0 0 1 .34 2.73.05.05 0 0 1-.04.01l-7.23.22-.03-.01-.01-.03a8.57 8.57 0 0 0-.23-1.36Z" fill="#9EC73E"/><path d="M25.41 26.63a.28.28 0 0 0-.32.08c-.07.08-.08.19-.09.32v1.98c.02.16.06.28.19.35.09.05.18.05.27 0a.34.34 0 0 0 .16-.24c.05-.24.08-.46.08-.68 0-.02.01-.03.04-.03h.78c.02 0 .03.01.03.04.01.2 0 .4-.04.59a1.4 1.4 0 0 1-.2.49c-.22.3-.54.46-.96.47-.65.01-1.05-.22-1.2-.68a2.52 2.52 0 0 1-.1-.5 7.32 7.32 0 0 1 .02-1.84c.1-.62.47-.95 1.12-.98.45-.02.79.07 1 .25.14.12.24.3.3.53.04.2.06.4.04.61 0 .02-.01.03-.03.03h-.78c-.04 0-.05-.02-.05-.05 0-.21-.03-.39-.07-.54a.28.28 0 0 0-.19-.2ZM28.7 28.62h-.34c-.02 0-.03-.01-.04-.03a.05.05 0 0 1-.02-.03l.01-.53c0-.03.02-.03.04-.03h1.18c.02 0 .03 0 .03.02v1.91c.01.05-.01.07-.06.07h-.45c-.04 0-.05-.04-.05-.08v-.25c0-.08-.04-.09-.08-.02-.16.25-.47.37-.84.35-.54-.02-.86-.3-.97-.85a6.06 6.06 0 0 1-.07-1.87c.04-.37.13-.65.27-.85a.97.97 0 0 1 .75-.42c.28-.02.53 0 .74.05.26.07.46.21.58.43.12.2.17.45.15.72l-.01.03-.03.02h-.76l-.03-.01v-.04a.99.99 0 0 0-.06-.35c-.05-.14-.12-.22-.23-.23-.46-.14-.4.74-.41 1.08v1.2c.02.23.1.51.37.47a.36.36 0 0 0 .3-.24c.05-.19.07-.25.06-.48v-.03l-.04-.01ZM21 26.09c0-.03.01-.05.03-.06a.07.07 0 0 1 .06-.03h1.37c.13 0 .27.04.4.11.12.07.24.17.33.3.1.13.18.29.23.46.05.17.08.35.08.53v1.2c0 .19-.03.37-.08.54-.06.17-.13.32-.23.45s-.21.23-.34.3a.82.82 0 0 1-.4.11h-1.37l-.06-.03a.09.09 0 0 1-.02-.06v-3.82ZM31 29.2v.02H31.95c.02 0 .03 0 .04.02l.02.05v.65c0 .04-.02.06-.06.06h-1.9c-.01 0-.02 0-.03-.02l-.01-.03v-3.9l.01-.03a.04.04 0 0 1 .04-.02h.9c.02 0 .05.01.05.03V29.19Z" fill="#fff"/><path d="m22 27.05.01-.04.03-.01h.15a.2.2 0 0 1 .12.04c.04.03.07.06.1.11.06.1.09.22.09.37v.96a.7.7 0 0 1-.1.37.35.35 0 0 1-.1.11.2.2 0 0 1-.11.04h-.15l-.03-.01a.05.05 0 0 1-.01-.04v-1.9Z" fill="#00984B"/><path d="M36.33 30.35a8.48 8.48 0 0 0 .34-1.5 720.27 720.27 0 0 0 7.21.6c.05 0 .07.03.07.08a15.89 15.89 0 0 1-.51 2.7.08.08 0 0 1-.06 0l-7.05-1.67c-.02 0-.04-.02-.03-.04l.03-.17ZM42.7 34.38a16.8 16.8 0 0 1-1.33 2.4c-.02 0-.04 0-.05-.02l-6.53-3.52a.04.04 0 0 1-.03-.03l.01-.03a8.1 8.1 0 0 0 .95-1.36h.05l6.9 2.5c.02 0 .02.01.03.02v.04ZM32.75 34.87a6.76 6.76 0 0 0 1.03-.7l.05.01 6.14 4.28c.06.04.07.09.02.14a15.36 15.36 0 0 1-1.9 1.8c-.03 0-.04-.01-.05-.02l-5.58-5.26a.04.04 0 0 1-.01-.04 5.31 5.31 0 0 1 .3-.22ZM36.28 41.69c-.7.42-1.45.8-2.23 1.11-.05.02-.09 0-.11-.04l-4.19-6.78v-.04a8.6 8.6 0 0 0 1.49-.35.1.1 0 0 1 .05.04l5 5.95c.02.02.03.03.02.06 0 .02-.01.04-.03.05ZM14.23 35.99h.61c.03 0 .04.01.05.03 0 .02 0 .04-.02.05l-.41.35a.04.04 0 0 1-.04 0 .04.04 0 0 1-.03-.01l-.2-.35V36c0-.02.02-.02.04-.02ZM18.92 36.1l-2.2 3.14a.06.06 0 0 1-.06.03c-.02 0-.04-.01-.05-.03l-1.26-1.43a.06.06 0 0 1-.02-.05c0-.02 0-.03.02-.04l1.59-1.7a.06.06 0 0 1 .05-.02l1.87-.01c.03 0 .05 0 .06.03.01.03.01.05 0 .07ZM21.71 36.08 19.7 41.6c0 .02-.02.03-.04.04l-.06-.01-1.66-1.18a.06.06 0 0 1-.02-.04v-.04l2.35-4.34a.06.06 0 0 1 .05-.03l1.33-.01c.02 0 .04 0 .05.03.01.01.02.03.01.06ZM28.58 36.08l3.42 7.3c.03.07 0 .1-.06.12a17.16 17.16 0 0 1-2.4.4.07.07 0 0 1-.03-.04l-2.33-7.8c-.01-.04 0-.06.05-.06h1.21c.07 0 .11.02.14.08ZM24 36.08l-.63 7.14c0 .03-.01.05-.04.06a.08.08 0 0 1-.07.01l-1.98-.76a.08.08 0 0 1-.04-.04.08.08 0 0 1-.01-.06l1.52-6.37c0-.02.01-.03.03-.05a.08.08 0 0 1 .05-.01h1.08c.02 0 .04 0 .06.02.02.02.03.04.02.06ZM25.16 43.68l-.21-7.59c0-.02 0-.05.03-.07a.1.1 0 0 1 .06-.03h1.04a.1.1 0 0 1 .06.02.1.1 0 0 1 .04.06l1.38 7.82c0 .03 0 .06-.02.08a.09.09 0 0 1-.08.03l-2.21-.23a.1.1 0 0 1-.06-.03.1.1 0 0 1-.03-.06Z" fill="#9EC73E"/></svg>