<svg width="56" height="56" viewBox="0 0 56 56" xmlns="http://www.w3.org/2000/svg"><path fill="#F0F3FA" d="M0 0h56v56H0z"/><path fill-rule="evenodd" d="M8.36 22H5v10h3.36c2.56 0 4.64-2.24 4.64-5s-2.08-5-4.64-5Zm-.15 1.5H6.63v7H8.2a3.46 3.46 0 0 0 3.42-3.5c0-1.93-1.53-3.5-3.42-3.5ZM14 32h1.5v-4.96c.33-.36.86-.72 1.53-.72.95 0 .96.83.97 1.3V32h1.5v-4.83c0-.93-.42-2.17-1.98-2.17-.9 0-1.6.53-2.02 1v-4H14v10Zm8.63 0c.8 0 1.44-.41 1.87-.84V32H26v-7h-1.5v5.04c-.33.25-.8.46-1.37.46-1 0-1.12-.72-1.13-1.17V25h-1.45v4.33c0 .93.52 2.67 2.08 2.67ZM27 25v7h1.5v-5.1c.34-.3.81-.58 1.4-.58 1 0 1.1.9 1.1 1.35V32h1.5v-4.33c0-.93-.53-2.67-2.1-2.67-.82 0-1.47.42-1.9.85V25H27Zm6 4.8v1.56c.23.21.95.64 2.06.64 1.38 0 2.44-.95 2.44-1.83 0-1.19-.99-1.77-1.72-2.04s-1.26-.6-1.26-1.1c0-.5.4-.76 1.09-.76.55 0 1.05.38 1.23.57l.51-1.24c-.3-.2-1.05-.6-1.74-.6-.87 0-2.61.33-2.61 2.24 0 1.03.82 1.39 1.58 1.72.66.29 1.27.55 1.27 1.2 0 1.42-2.47.49-2.85-.35Zm6.45-.8h4.66c.1-1.36-.36-4-2.9-4-2.53 0-3.2 2.29-3.21 3.43-.02 1.2.6 3.57 3.15 3.57 1.2 0 2.31-.44 2.73-.65v-1.5c-.45.34-1.57.95-2.43.95-1.07 0-1.83-.82-2-1.8Zm.18-1.36h2.87c-.04-.49-.36-1.48-1.33-1.48-.97 0-1.43 1-1.54 1.48ZM48.18 25c.15 0 .3.02.42.05l-.24 1.72c-.17-.12-.4-.2-.68-.2-.78 0-1.37.5-1.68.91V32h-1.5v-7H46v1.2a2.82 2.82 0 0 1 2.18-1.2Zm1.32 7v-7H51v7h-1.5Zm.75-8.5a.75.75 0 1 0 0-1.5.75.75 0 0 0 0 1.5Z" fill="url(#asxpdjvgx)"/><defs><linearGradient id="asxpdjvgx" x1="16.75" y1="22" x2="16.75" y2="32" gradientUnits="userSpaceOnUse"><stop stop-color="#0B1600"/><stop offset="1" stop-color="#3E7C00"/></linearGradient></defs></svg>