<svg width="56" height="56" viewBox="0 0 56 56" xmlns="http://www.w3.org/2000/svg"><path fill="#F0F3FA" d="M0 0h56v56H0z"/><path d="M45 23.15a1.6 1.6 0 0 0-1.6-.57c-.63.1-1.08.83-1.08 1.4-.47.27-.77.67-.9 1.2l-.83.85c-.04.04-.11.02-.14-.03-.12-.27-.25-.6-.5-.79-.88 0-1.76.48-3.58.28-.73.66-3.19-.54-4.12.88-.04.06-1.14.96-1.16.9-.35-.9-.28-2.29-1.62-1.7-.27.11-1 .34-1.16.56-1.42-.46-2-.56-2.4.24-.13.02-.5-.35-.59-.4-.57-.28-1.76.29-2.56.3-.63 0-1.17.08-1.8.1-.69.02-1.15-.04-1.67.3-.06.05-.1.03-.1-.03a.2.2 0 0 1 .03-.16c.33-.47.4-1.02.4-1.62.02-1.03-.16-1.86-1.49-1.78-1.1.08-1.43.56-1.47 1.57 0 .22-.65.52-.8.36-.43-.52-.99-.86-1.68-1-.3-.07-.2-.52-.11-.93.07-.05.19-.1.34-.16 4.35-1.67 8.87-3.1 13.54-4.3a88.5 88.5 0 0 1 13.15-2.4 52.12 52.12 0 0 1 7.1-.16c.32.03.35.14.08.32-.38.25-.83.49-1.34.71-1.15.5-5.94 2.45-5.32 3.75.42.88 1.53.76 2.35.52l2.8-.83c.73-.23 2.12-.42 2.22.68.08.8-.84 1.18-1.51 1.4-.82.24-1.64.43-2.47.54ZM10.15 24.67c.09.32.09.62 0 .9a49.36 49.36 0 0 1-2.97.55c-.23 0-.24-.04-.03-.13l3-1.32ZM45.32 25.9c1.45-.1.56 2.2-.2 2.18-.13-.14-.17-.32-.1-.55l.13-.49.17-1.14ZM44.32 30.68c.87.14 1.72.34 2.55.59.07.02.13.05.18.08l.03.03v.04c0 .02 0 .03-.02.04A154.46 154.46 0 0 0 11.93 44c-.02 0-.03 0-.04-.02v-.04a34.31 34.31 0 0 0 4.49-3.15c.63-.54 1.44-1.33 1.55-2.16.05-.44-.17-.68-.68-.74a5.78 5.78 0 0 0-1.28.01c-.85.1-1.84.28-3 .54-.9.2-1.77.32-2.67.43-.44.06-1.6.07-1.54-.58.05-.57.57-1.01 1.04-1.32.67-.44 2.11-1.13 4.3-2.05.43-.18 1.37-.64 2.82-1.36.09.15.18.3.29.44.13.17.26.27.4.3.33.08.71.05.93-.23.25-.3.4-.64.45-1.02.04-.22.1-.23.21-.03.47.87 1.5 1.35 2.45.74.18-.12.35-.05.52.03.65.3 1.23-.18 1.36-.77l.24-.99c.02-.1.05-.1.07 0 .1.38.24.8.46 1.12.29.41.87.44 1.29.19.18-.11.3-.26.43-.42.04-.05.09-.05.13 0 .34.43.77.57 1.3.42.32-.09.53-.33.84-.46a.11.11 0 0 1 .12.02c.64.56 1.51.3 1.94-.29a8.83 8.83 0 0 0 .5-.74.1.1 0 0 1 .12.02c.4.58.83.97 1.57 1 .9.03 1.64-.29 2.24-.94.24-.26.48-.54.7-.83.15-.19.23-.16.23.06 0 .48.12.82.38 1.03.5.4 1.22.07 1.5-.41.03-.07.08-.07.14-.02.06.05.11.12.16.2.03.06.09.12.16.16.96.53 1.75-.26 2.13-1.05.1-.22.2-.21.28.01.28.78.98 1.03 1.74.76.2-.07.42-.1.64-.1.27 0 .6.03.83-.14.31-.24.53-.55.65-.94Z" fill="#F42C36"/><path d="M30.25 22.02c.12.74.08 1.51-.12 2.3-.04.15-.3.26-.31.05l-.16-2.19c.15-.1.35-.15.59-.16ZM29.15 24.52c-.1.05-.17.04-.23-.01l-.21-2.08c-.02-.22.18-.29.36-.32.23-.04.35.05.34.28-.01.83-.1 1.54-.26 2.13ZM25.71 24.82c-.16 0-.25-.07-.27-.21.07-.13.2-.38.14-.53-.2-.55-.65-.76-.56-1.44a.4.4 0 0 1 .18-.3c.14-.1.34-.03.4.12.07.22.21.66.41.79.07.04.16 0 .18-.06.08-.26.17-.52.27-.77.07-.18.18-.23.35-.17.1.04.17.16.15.27-.09.5-.3.98-.64 1.46-.1.15-.06.22.12.2.21 0 .49.25.28.42-.24.2-.57.27-1 .22ZM31.58 22.76c.13.03.2.1.24.2.05.13-.23.07-.3.06-.26-.04-.45.17-.38.42.01.08.06.13.14.16.18.07.34.05.46-.08.1-.1.07-.3.09-.43 0-.04.05-.07.09-.05.08.02.14.08.16.15.09.29.12.63-.06.88-.32.44-1.03.54-1.36.02a.86.86 0 0 1 .11-1.04c.23-.24.5-.3.8-.3ZM33.33 23.37a3.36 3.36 0 0 1 0-.49c0-.16.16-.29.32-.22.18.06.25.42.33.56.13.24.22.23.26-.04.03-.16.06-.31.11-.45.03-.1.1-.13.2-.1.05.02.07.05.07.1-.02.47-.16.92-.4 1.33-.15.24-.45.2-.54-.06-.03-.1-.17-.11-.23-.02l-.14.2c-.1.16-.23.17-.38.05-.37-.32-.81-1.06-.39-1.48.1-.1.27-.07.33.05l.27.56c.04.06.2.12.19 0ZM27.78 23.3a.2.2 0 0 0-.16.1c-.13.22-.13.41 0 .57.19.24.57.12.8 0 .11-.05.15-.02.1.09-.11.3-.27.55-.64.62-.28.05-.5 0-.64-.18-.5-.57-.1-1.42.66-1.5.17-.03.52.03.55.24.05.33-.11.55-.5.64-.25.07-.25-.08-.02-.43.06-.1-.07-.16-.15-.15Z" fill="#FDEA43"/><path d="M13.27 27.6c.26 0 .53.24.7.67.17.44.25 1.02.22 1.62v.1c-.03.6-.17 1.17-.38 1.58-.2.42-.5.63-.76.62l.22-4.6ZM21.04 30.56c-.29 0-.52-.5-.51-1.1 0-.61.25-1.1.54-1.1.3 0 .52.5.52 1.1-.01.61-.26 1.1-.55 1.1ZM34.65 27.28l-.68-.23a.33.33 0 0 0-.42.18l-.29.79c-.04.1-.06.22-.07.33-.01.29.1.62.4.72.18.06.38.03.56-.09.18-.11.33-.3.4-.52l.3-.79a.3.3 0 0 0-.2-.4Zm-.77 1.23c-.1-.02-.14-.25-.08-.52.06-.26.2-.45.3-.43.1.02.14.25.08.51-.06.26-.2.46-.3.44ZM42.04 27.83c-.05.49.15.9.43.93.3.03.56-.35.6-.84.05-.5-.15-.91-.43-.94-.29-.02-.56.36-.6.85Z" fill="#3A3572"/><path fill-rule="evenodd" d="m45 23.15.18.42c.27.65.22 1.63.14 2.33l-.17 1.14-.14.5c-.08.3 0 .45-.05.67l-.65 2.47c-.11.4-.33.7-.64.94-.2.14-.46.14-.71.13-.26 0-.51.03-.76.11-.76.27-1.46.02-1.74-.76-.09-.22-.18-.23-.28-.01-.38.8-1.17 1.58-2.13 1.05-.15-.08-.2-.25-.33-.36-.05-.05-.1-.05-.13.02-.28.48-1 .8-1.5.4-.26-.2-.39-.54-.39-1.02 0-.22-.07-.25-.21-.06-.23.29-.47.57-.72.83-.59.65-1.34.97-2.23.94-.74-.03-1.18-.42-1.57-1-.04-.05-.12-.05-.15 0-.15.27-.31.5-.47.72-.43.59-1.3.85-1.94.29a.11.11 0 0 0-.12-.02c-.14.06-.26.14-.38.22-.14.1-.28.2-.46.24-.53.15-.96.01-1.3-.42-.07-.08-.12 0-.17.05-.12.14-.22.27-.4.37-.41.25-1 .22-1.28-.2a3.69 3.69 0 0 1-.46-1.1c-.02-.1-.05-.1-.07 0-.09.32-.17.65-.24.98-.13.59-.7 1.07-1.36.77-.18-.08-.34-.15-.52-.03-.95.6-1.98.13-2.45-.74-.1-.2-.18-.2-.2.03-.06.38-.21.72-.46 1.02-.22.28-.6.3-.93.24-.33-.08-.54-.48-.69-.75l-.38-1.62c-.4 1.3-1.3 2.55-2.76 2.83-1.58.3-3.32-1.11-3.25-2.63.01-.42.22-.8.62-1a.1.1 0 0 0 .03-.17c-.3-.33-.24-.64-.17-.97.03-.19.07-.38.05-.58-.09-.68-.13-1.37-.14-2.07 0-.21-.25-.43-.39-.57-.24-.24-.37-.64-.37-1.2.08-.29.08-.6 0-.91.12-.15.23-.32.34-.52.22-.42.4-.67.86-.78l.19-.04c.16-.02.3-.05.44-.16.55-.46 1.27-.57 1.86-.08.04.02.08.03.12.02l.1-.03c-.1.41 0 .65.3.7.7.16 1.26.5 1.7 1.01.14.17.21.15.22-.07.04-1 .82-1.97 1.92-2.04.56-.04.99.14 1.28.54.37.51.4 1.05.4 1.66 0 .6-.34 1.13-.67 1.6-.05.06-.06.29.07.2.52-.35.88-.65 1.57-.67.26-.01.5.08.75.12h.13c.3-.11.56-.27.88-.28.26 0 .51.05.75.15.07.03.15.02.2-.02.63-.46 1.21-.65 1.96-.28.09.04.17.2.29.17.14-.02.27-.23.4-.3.75-.47 1.4-.36 1.96.35.08.1.18 0 .23-.06.15-.2.29-.38.53-.49.87-.37 1.52-.18 1.97.6.15.26.2.57.31.86.03.06.06.07.1 0 .93-1.41 2.45-2.12 4.1-1.17a.2.2 0 0 0 .24-.04c.37-.4.82-.6 1.33-.6.3 0 .53.17.76.33.1.06.22.17.33.07.51-.48 1.29-.68 1.88-.2.21.16.33.43.45.68.02.06.1.22.18.13l.83-.85.87-.15c.05 0 .08-.04.08-.09l-.05-.95c0-.37.15-.72.46-1.06.18-.2.39-.32.63-.35a1.6 1.6 0 0 1 1.6.57Zm-32.97 8.58c-.4-1.6-.51-3.17-.58-4.84a.19.19 0 0 0-.08-.15c-.87-.62-.82-1.7-.3-2.51.2-.31.46-.3.8-.27.08 0 .15 0 .2-.07.24-.3.48-.49.9-.5.46-.02.66.33.68.71 0 .12.07.2.2.22 1.38.22 2.24 1.04 2.56 2.45.06.28.06.6-.02.95-.06.32-.1.65-.1 1 0 .76.12 1.51-.07 2.25-.35 1.45-1.25 3.53-3.22 3.2-.95-.15-1.97-1.09-1.9-2.12.03-.35.35-.54.68-.35.03.02.25.04.25.03Zm26.63-6.13c-.34.26-.58.67-.76 1.05-.06.1-.1.1-.11-.02-.09-.56-.46-1.25-1.17-1.05-.91.25-.83 1.34-.78 2.08v.03c.1 1.2.24 2.43.44 3.7.03.22.17.47.44.47.1 0 .2-.06.27-.14.12-.15.2-.33.26-.52.2-.71.43-1.44.68-2.18.04-.11.25-.13.26 0a16 16 0 0 1 .04 2.14c-.01.19.04.36.14.52a.2.2 0 0 0 .13.1c.84.19 1.27-1 1.43-1.58.1-.33.13-.67.1-1.04-.05-.6-.03-1.16.07-1.68.1-.57-.06-1.1-.33-1.6-.22-.43-.71-.59-1.11-.28Zm-10.24 4.14-.08 1.14c-.03.6-.34 1.79-1.02 1.95-.49.12-.76-.09-.81-.61-.02-.23-.15-2.57-.43-2.42-.42.23-.45 2.23-.52 2.68-.05.4-.51.67-.8.3a2 2 0 0 1-.32-.74c-.36-1.31-1.4-5.08-.28-5.8.41-.28.8-.27 1.17.03.21.17.25.42.34.66.05.15.1.15.16 0 .2-.54 1-1.6 1.7-.9.28.3.43.68.55 1.06.07.24.14.24.21 0 .16-.54.57-1.2 1.16-1.37.94-.25 1.23 1.18 1.32 1.76a2 2 0 0 1-.04.84c-.2.71-.27 1.38-.2 2 .03.35 0 .7-.1 1.05-.14.48-.47 1.11-.96 1.3-.4.14-.7-.13-.73-.5l-.04-.72c-.02-.58-.04-1.18-.21-1.72-.04-.1-.06-.1-.07.01Zm-9.9 1.62a5.69 5.69 0 0 1 .15-3.65c.12-.28.21-.49-.04-.83a.63.63 0 0 0-.44-.27c-1.1-.13-1.35.96-1.38 1.74-.06 1.66.15 3.28.61 4.87.07.22.24.58.53.56.37-.01.44-.45.5-.71.1-.57.22-1.12.07-1.7Zm3.4 1.24c.07-.15.13-.15.18 0 .1.26.16.71.5.75.31.03.45-.5.5-.7.13-.68.24-1.38.3-2.09.03-.3 0-.6-.06-.9a8.08 8.08 0 0 1-.14-2.88.33.33 0 0 0-.26-.35c-.43-.1-1.15.57-1.26.47-.9-.7-1.97-.15-2.41.75-.36.74-.51 1.52-.44 2.33.1 1.1.36 1.98.78 2.64.22.33.55.7.94.82.63.18 1.17-.32 1.37-.84Zm9.62-5.09c.55-1.23 1.85-2.2 3.26-1.55.18.08.57.3.53.53-.05.33-.07.55-.06.67l.24 2.65c.01.06 0 .12-.03.18-.3.7-.72 1.27-1.23 1.73-.52.47-1.07.72-1.8.6-.8-.12-1.26-1.06-1.34-1.73-.13-1.13 0-2.16.43-3.08Zm-14.7-2.95c-.2.89.18 1.72.86 1.86.68.15 1.4-.45 1.6-1.34.2-.88-.18-1.71-.86-1.86-.68-.14-1.4.46-1.6 1.34Zm26.07 6.37c-.02-.15-.07-.16-.15-.03-.26.42-.9.8-1.38.48-.52-.33-.77-1.4-.82-1.91-.12-1.16-.1-3.66 1.55-3.94.24-.04.46 0 .65.13.15.1.21.06.2-.1-.08-.62-.4-2.2.46-2.47.73-.22 1.28.37 1.38 1.01.07.45.08.9.05 1.32a25.57 25.57 0 0 1-1.15 5.47.76.76 0 0 1-.3.41.3.3 0 0 1-.15.05c-.27.02-.32-.22-.34-.42Z" fill="#3A3572"/></svg>