<svg xmlns="http://www.w3.org/2000/svg" width="56" height="56"><path fill="#F0F3FA" d="M0 0h56v56H0z"/><circle cx="19.58" cy="30.21" r="1.57" fill="#393185"/><circle cx="44.85" cy="30.21" r="1.1" fill="#78B833"/><circle cx="11.11" cy="30.21" r="1.1" fill="#78B833"/><circle cx="6.83" cy="30.21" r=".83" fill="#78B833"/><circle cx="49.17" cy="30.21" r=".83" fill="#78B833"/><circle cx="40.57" cy="30.21" r="1.27" fill="#78B833"/><circle cx="15.39" cy="30.21" r="1.27" fill="#78B833"/><circle cx="36.61" cy="30.21" r="1.57" fill="#78B833"/><circle cx="23.92" cy="21.21" r="1.79" fill="#393185"/><circle cx="19.58" cy="21.21" r="1.57" fill="#393185"/><circle cx="15.39" cy="21.21" r="1.27" fill="#78B833"/><circle cx="11.11" cy="21.21" r="1.1" fill="#78B833"/><circle cx="6.83" cy="21.21" r=".83" fill="#78B833"/><circle cx="28.1" cy="21.21" r="1.79" fill="#393185"/><circle cx="32.41" cy="21.21" r="1.79" fill="#78B833"/><circle cx="36.61" cy="25.79" r="1.57" fill="#78B833"/><circle cx="40.57" cy="25.79" r="1.27" fill="#78B833"/><circle cx="44.85" cy="25.79" r="1.1" fill="#78B833"/><circle cx="11.11" cy="25.79" r="1.1" fill="#78B833"/><circle cx="6.83" cy="25.79" r=".83" fill="#78B833"/><circle cx="49.17" cy="25.79" r=".83" fill="#78B833"/><circle cx="15.39" cy="25.79" r="1.27" fill="#78B833"/><circle cx="19.58" cy="25.79" r="1.57" fill="#393185"/><circle cx="23.92" cy="25.79" r="1.79" fill="#78B833"/><circle cx="28.1" cy="25.79" r="1.79" fill="#78B833"/><circle cx="32.41" cy="25.79" r="1.79" fill="#393185"/><circle cx="23.92" cy="30.21" r="1.79" fill="#78B833"/><circle cx="28.1" cy="30.21" r="1.79" fill="#78B833"/><circle cx="32.41" cy="30.21" r="1.79" fill="#393185"/><circle cx="36.61" cy="34.79" r="1.57" fill="#78B833"/><circle cx="44.85" cy="34.79" r="1.1" fill="#78B833"/><circle cx="11.11" cy="34.79" r="1.1" fill="#78B833"/><circle cx="6.83" cy="34.79" r=".83" fill="#78B833"/><circle cx="49.17" cy="34.79" r=".83" fill="#78B833"/><circle cx="40.57" cy="34.79" r="1.27" fill="#78B833"/><circle cx="15.39" cy="34.79" r="1.27" fill="#78B833"/><circle cx="19.58" cy="34.79" r="1.57" fill="#393185"/><circle cx="23.92" cy="34.79" r="1.79" fill="#393185"/><circle cx="28.1" cy="34.79" r="1.79" fill="#393185"/><circle cx="32.41" cy="34.79" r="1.79" fill="#78B833"/></svg>