<svg width="56" height="56" viewBox="0 0 56 56" xmlns="http://www.w3.org/2000/svg"><path fill="#F0F3FA" d="M0 0h56v56H0z"/><path d="M13.95 23.58c-.51.45-.92.83-1.22 1.14a2.9 2.9 0 0 0-.56.86.11.11 0 0 1-.07.07l-.1.04c.29-1.79.81-3.47 1.58-5.06a13.94 13.94 0 0 1 4.88-5.67 16.05 16.05 0 0 1 7.35-2.83c2.23-.28 4.45-.1 6.66.51l.06.05v.08c-.4 1.08-1.4 2.16-2.98 3.22a23.9 23.9 0 0 1-6.67 3.03c-2.2.73-4.28 1.63-6.25 2.7a15.8 15.8 0 0 0-2.68 1.86Z" fill="#E02428"/><path d="m39.69 16.93-.14.2a9.1 9.1 0 0 1-1.55 1.8c-.5.45-1.12.93-1.84 1.44a16.5 16.5 0 0 1-3.74 1.95c-2.05.77-4.2 1.35-6.45 1.74-.1.02-.11 0-.05-.08a25.73 25.73 0 0 1 10.4-6.8 8.01 8.01 0 0 1 3.11-.37c.07 0 .16.05.26.12Z" fill="#293894"/><path d="M39.69 16.93c1.08.88 1.95 1.92 2.64 3.12.44.78.66 1.54.66 2.3a3.7 3.7 0 0 1-.73 2.27 10.84 10.84 0 0 1-3.1 2.82 20.8 20.8 0 0 1-3.86 1.8c-.91.33-1.96.69-3.14 1.07a310.04 310.04 0 0 1-5.63 1.76 21.68 21.68 0 0 0-6.84 3.44c-.79.62-1.48 1.32-2.1 2.1-.28.3-.54.64-.77 1l-.27.4-.49-.37c-.4-.32-.8-.72-1.2-1.21-.34-.43-.66-.9-.96-1.42a4.9 4.9 0 0 1-.6-2.18 4.45 4.45 0 0 1 .97-3.22c.33-.41.83-.84 1.48-1.29a22.97 22.97 0 0 1 4.88-2.56c.82-.31 1.6-.58 2.32-.81 2.51-.79 5.2-1.62 8.06-2.5.32-.1.7-.24 1.12-.43a34.26 34.26 0 0 0 1.48-.74c1.17-.58 2.3-1.3 3.39-2.12.8-.6 1.48-1.3 2.05-2.08.21-.28.38-.6.5-.94l.14-.2Z" fill="#E02428"/><path d="m12 25.69.1-.04a.11.11 0 0 0 .07-.07c.15-.34.34-.63.56-.86.3-.31.7-.7 1.22-1.14.56-.41 1.13-.8 1.72-1.14.6-.35 1.16-.64 1.7-.86 1.35-.53 2.6-.94 3.78-1.2a9.52 9.52 0 0 1 1.5-.2l-.01.03a22.07 22.07 0 0 1-6.3 4.8c-.75.38-1.44.66-2.09.81-.83.21-1.56.22-2.17.03a.1.1 0 0 1-.06-.05.18.18 0 0 1-.02-.11ZM43.99 30.4 43 31.54a15.96 15.96 0 0 1-4.65 3.09c-.79.3-1.48.54-2.08.73-.75.23-1.45.4-2.11.52a6.04 6.04 0 0 1-.89.08v-.04l.36-.39a24.98 24.98 0 0 1 4.03-3.3c1.91-1.29 3.64-1.97 5.18-2.03.18-.01.36 0 .55.04l.56.09c.03 0 .04.02.05.05l-.01.04Z" fill="#293894"/><path d="M43.99 30.4a17.9 17.9 0 0 1-1.72 5.28 13.73 13.73 0 0 1-3.41 4.37 17.35 17.35 0 0 1-4.03 2.53 15.83 15.83 0 0 1-4.57 1.27c-.76.1-1.35.14-1.78.15a17.4 17.4 0 0 1-4.95-.65.08.08 0 0 1-.05-.04.08.08 0 0 1 0-.07c.3-.86 1-1.73 2.13-2.61.72-.56 1.51-1.08 2.4-1.56a19.4 19.4 0 0 1 4.67-1.94c2-.65 3.9-1.43 5.73-2.35a20.34 20.34 0 0 0 4.07-2.67c.18-.15.36-.35.52-.58l.99-1.12Z" fill="#E02428"/><path d="m16.55 39 .27-.39c.23-.36.5-.7.78-1a19 19 0 0 1 3.2-2.57 19.3 19.3 0 0 1 3.95-1.78c1.76-.6 3.58-1.07 5.48-1.41.14-.03.17.01.07.12a24.11 24.11 0 0 1-3.89 3.42 26.69 26.69 0 0 1-4.5 2.58c-1.24.56-2.43.93-3.56 1.11-.6.1-1.2.07-1.8-.07Z" fill="#293894"/></svg>