<svg width="56" height="56" viewBox="0 0 56 56" xmlns="http://www.w3.org/2000/svg"><path fill="#F0F3FA" d="M0 0h56v56H0z"/><path d="M6 36V20h9l-3.03 7.1 2.91 8.9H6Zm44 0V20h-9l3.03 7.1-2.91 8.9H50Z" fill="#FCA933"/><path fill="#091C47" d="M7 21h42v14H7z"/><path fill-rule="evenodd" d="M10 25h2.62c1.44 0 2.61 1.26 2.61 2.81v.38c0 1.55-1.17 2.81-2.6 2.81H10v-6Zm1.6 1.26h.66c.66 0 1.19.58 1.19 1.28v.92c0 .7-.53 1.28-1.2 1.28h-.65v-3.48ZM16 25v6h4.77v-1.36h-3v-1.19h2.66V27.3h-2.67v-1h3.01V25H16Zm6 0h3.43c.74 0 1.35.66 1.35 1.48a1.5 1.5 0 0 1-.7 1.29c.54.26.92.85.92 1.54 0 .93-.7 1.69-1.55 1.69H22v-6Zm1.58 1.1h.98c.33 0 .6.3.6.66 0 .37-.27.66-.6.66h-.98V26.1Zm0 2.2h1.2c.35 0 .64.3.64.7 0 .38-.29.7-.64.7h-1.2v-1.4Zm9.7-.3c0 1.66-1.3 3-2.92 3a2.97 2.97 0 0 1-2.94-3c0-1.66 1.32-3 2.94-3a2.97 2.97 0 0 1 2.93 3Zm-1.72 0c0 .95-.54 1.71-1.2 1.71-.67 0-1.21-.76-1.21-1.7 0-.95.54-1.72 1.2-1.72.67 0 1.21.77 1.21 1.71Zm7.8 1.06a2.89 2.89 0 0 1-2.7 1.94 2.94 2.94 0 0 1-2.87-3c0-1.66 1.29-3 2.88-3 1.17 0 2.17.73 2.62 1.77l-1.6.46c-.2-.55-.6-.94-1.08-.94-.67 0-1.2.77-1.2 1.71 0 .95.53 1.71 1.2 1.71.55 0 1.02-.52 1.16-1.24l1.59.59ZM41.7 25H40v6h1.7v-1.29l.99-1.1 1.2 2.39H46l-2.12-3.73L45.91 25h-2.29l-1.92 2.27V25Z" fill="#F0F3FA"/></svg>