<svg width="56" height="56" xmlns="http://www.w3.org/2000/svg"><path fill="#D92310" d="M0 0h56v56H0z"/><path d="M50 28c0-3.928-2.509-7.46-6.56-9.992C39.477 15.532 34.016 14 28 14c-6.02 0-11.483 1.532-15.442 4.008-4.019 2.514-6.519 6.01-6.558 9.9v.184c.039 3.89 2.539 7.388 6.56 9.9C16.52 40.467 21.982 42 28 42c6.018 0 11.478-1.533 15.44-4.008C47.49 35.461 50 31.928 50 28z" fill="#fff"/><path d="M28.927 23c.463 0 1.2 0 1.037.577l-.337.948c-.13.325-.09.466-.43.474h-.86c-.444.01-.351-.092-.266-.408l.416-1.042c.114-.293.204-.549.44-.549zm9.025 0c.463 0 1.2 0 1.037.577l-.336.948c-.131.325-.09.466-.43.474h-.86c-.444.01-.352-.092-.266-.408l.415-1.042c.115-.293.205-.549.44-.549zm-10.404 3.206l-1.487 3.98c-1.435 2.474 1.581 2.156 2.717.605.14-.186.141-.418-.157-.331-.554.167-1.02.329-.776-.544l1.368-3.437c.07-.525-.704-.477-1.097-.479-.303-.005-.43.026-.568.206zm9.026 0l-1.488 3.98c-1.434 2.474 1.582 2.156 2.718.605.14-.186.14-.418-.158-.331-.553.167-1.019.329-.775-.544l1.368-3.437c.07-.525-.704-.477-1.097-.479-.303-.005-.43.026-.568.206zm-4.816.254c-.15.893-.972 3.978.036 4.516 1.523-1.485 3.612-5.496 1.49-7.286.092-.296.115-.707.513-.69h1.806c.42.02.453.24.432.525-.217 2.91-1.487 6.356-3.566 8.251-2.266 1.277-2.096-3.364-2.019-4.57-.04-.21-.04-.182-.234-.221-.636-.093-.509-.563-.27-.985.435.014 1.899-.054 1.812.46z" fill="#D92310"/><path d="M42.566 28.17c.55-.304.514-1.201.24-1.7-1.58-1.326-5.233.374-4.018 2.366.395 1.07 1.037 1.926 1.298 3.093-.018.82-.624 1.03-1.344 1.071l-14.356-.002-.192.004c-.376.033-.457.2-.761.429-.108.08-.254.19-.335.269-.19.182-.085.264.148.3h17.087c1.373-.171 2.041-1.883 1.438-2.949-.383-.977-.819-1.89-1.293-2.833l-.271-.525c-.775-1.032 1.34-1.385 1.255-.534-.228.942.03 1.16 1.104 1.011z" fill="#D92310"/><path d="M17.915 25.194c.128.009.211.014.202.056-.391 1.742-1.837 2.606-2.77 1.54-.66-.75-.612-1.543-.262-2.466 1.419-3.74 7.939-4.583 10.187-1.192 2.645 5.122-2.47 10.74-6.449 10.866-1.073.034-1.664-.329-2.375-.766a30.83 30.83 0 00-.297-.18c-3.367 1.635-3.808-.814-2.394-2.404.819-.921 1.935-1.78 3.255-.461a31.373 31.373 0 002.524-6.092L21.492 24c-.411 1.807-2.36 5.58-3.197 7.017-.159.272-.167.463.095.64 2.833 1.902 5.348-1.538 5.576-4.313.697-8.41-9.497-3.752-6.664-2.287.207.108.447.125.613.137zm-3.482 5.984c-.072.078-.113.198-.11.357.045.848.688.993.96.713.19-.196.201-.599-.297-1.114-.237-.1-.437-.083-.553.044z" fill="#D92310"/></svg>