<svg width="56" height="56" viewBox="0 0 56 56" xmlns="http://www.w3.org/2000/svg"><path fill="#F0F3FA" d="M0 0h56v56H0z"/><path d="M41.35 14.56V15c0 .02 0 .03-.03.03a.78.78 0 0 1-.81-.29c-.02-.02-.02-.04.01-.05.1-.05.21-.13.34-.23a.13.13 0 0 0 .05-.12.13.13 0 0 0-.06-.1c-.39-.23-.75-.47-1.09-.71a1.06 1.06 0 0 0-.36-.1 1.76 1.76 0 0 1-.7-.3c-.08-.07-.07-.1.03-.1.17-.02.46-.02.88-.01.17 0 .33.04.48.1.3.15.6.34.9.57.1.06.22.1.38.11a1 1 0 0 0 .33-.12c.1-.05.23-.07.37-.07.04 0 .04 0 .01.02l-.2.12a.1.1 0 0 0-.06.1c0 .05.03.08.08.1.09.03.24.05.45.06l.17.02c.1 0 .2.03.27.06.1.06.19.1.25.16a17.04 17.04 0 0 0 .79.65c-.3-.01-.49-.03-.54-.05-.15-.08-.3-.14-.45-.2a1.2 1.2 0 0 0-.48-.09c-.18 0-.5 0-.97-.03-.03 0-.04.02-.04.04ZM35.46 15.85a.79.79 0 0 0-.18-.15c-.56-.34-1.12-.71-1.7-1.11-.15-.1-.38-.18-.7-.23a2.45 2.45 0 0 1-1.33-.68l.01-.01a9.53 9.53 0 0 1 2.26.05c.31.06.63.2.95.42l.93.63c.17.12.4.15.68.12.04 0 .17-.07.38-.19.22-.12.47-.16.75-.12a204.87 204.87 0 0 1-.33.28c-.1.07-.15.14-.15.2 0 .03 0 .06.03.08.05.05.14.08.26.1l.98.07c.13.01.29.06.46.14.12.06.25.15.38.26.53.45 1 .82 1.4 1.1.03.02.03.03 0 .03-.47.05-.89 0-1.26-.15a1.91 1.91 0 0 1-.27-.15c-.23-.14-.4-.22-.52-.22-.63 0-1.35-.04-2.18-.11-.05 0-.07.01-.07.06v.74c0 .05-.03.08-.08.09-.17.02-.34.02-.5.02-.17-.01-.35-.08-.54-.21-.16-.12-.3-.26-.43-.42-.02-.03-.02-.05.01-.06l.14-.07c.33-.17.53-.31.63-.45v-.06Z" fill="#727377"/><path d="M21.34 37.35c-.08 0-.15.02-.2.07-.01.03 0 .04.03.04.05 0 .1-.03.16-.08 0 .02.02.04.04.05a12.72 12.72 0 0 1 1.54-.05c1.25.05 2.37.08 3.36.1 1.03.02 1.96-.08 2.8-.29 1.63-.4 3-1.2 4.09-2.4a7.52 7.52 0 0 0 1.96-4.24c0-.03.02-.05.04-.06a48.44 48.44 0 0 0 6.25-3.8 18.1 18.1 0 0 0 2.71-2.38 6 6 0 0 0 .76-1.04 2.8 2.8 0 0 0 .45-1.51c-.02-.53-.24-1-.67-1.4-.45-.43-1-.76-1.66-.99-.86-.3-1.81-.5-2.85-.62-.18-.02-.18-.03 0-.05a18 18 0 0 1 3.35.01c1.09.13 1.92.4 2.5.83.48.36.8.81.93 1.36.13.53.08 1.08-.16 1.64-.15.38-.34.71-.54 1-.53.77-1.22 1.51-2.07 2.25a38.2 38.2 0 0 1-5.58 3.92.15.15 0 0 0-.08.12l-.12.89a11.46 11.46 0 0 1-8.18 9.3c-1.92.56-3.85.63-5.81.2a11.67 11.67 0 0 1-4.84-2.3c-.05-.03-.12-.04-.2-.01a52 52 0 0 1-8.5 1.4c-.14 0-.14 0 0-.03 2.46-.53 4.85-1.1 7.17-1.73.57-.15 1.09-.3 1.57-.45a85 85 0 0 0 5.91-2.11c2.09-.84 4.48-1.91 7.17-3.22.03-.02.05 0 .04.02a6.68 6.68 0 0 1-1 2.36 5.33 5.33 0 0 1-3.29 2.17c-1 .22-2.01.3-3.05.2l-1-.1c-.1-.02-.2 0-.3.03a87.02 87.02 0 0 1-2.7.87.19.19 0 0 0-.03.03Z" fill="#303B79"/><path fill-rule="evenodd" d="m15.3 28.49-.03.66c0 .03-.01.05-.03.06a27.36 27.36 0 0 0-4.45 2.73c-.4.3-.81.67-1.26 1.1a5.81 5.81 0 0 0-1.21 1.66c-.18.37-.28.71-.31 1.01-.04.37.03.7.2 1.03.44.84 1.35 1.3 2.71 1.36.9.04 1.97-.08 3.23-.37a72.24 72.24 0 0 0 3.6-.98l-.01-.02c-1.41.25-2.66.4-3.76.49-.68.05-1.32.06-1.93.03a4.33 4.33 0 0 1-1.7-.4c-.42-.2-.68-.51-.8-.94-.11-.4-.09-.82.07-1.27.13-.36.28-.65.46-.87.66-.8 1.45-1.58 2.4-2.34.9-.72 1.8-1.4 2.72-2.02a.05.05 0 0 1 .05 0c.02 0 .03.02.03.03.01.48.05.94.12 1.41 0 .05-.01.1-.06.12-.73.37-1.35.85-1.86 1.46-.2.24-.36.5-.49.78-.14.33-.19.62-.15.86.08.47.37.78.85.95.5.16 1.05.21 1.64.15.6-.07 1.1-.16 1.5-.27.03-.01.05 0 .07.02.33.55.75 1.12 1.25 1.7.01.02.04.03.06.02l3.31-1.42.04-.05c.04-.9.07-1.75.07-2.55v-6.15c0-.44-.03-1.04-.09-1.8-.01-.19-.06-.47-.14-.83-.04-.14-.13-.23-.3-.27a9.4 9.4 0 0 0-1.42-.22c-.05 0-.08-.04-.08-.1v-.55c0-.05.02-.08.08-.08a209.49 209.49 0 0 0 7.73 0c1.08 0 2.08.12 3.01.35 1.1.27 2.05.78 2.85 1.52a5.9 5.9 0 0 1 1.79 3.33c0 .02.01.03.03.02 1.11-.79 2.1-1.64 2.96-2.57.32-.35.6-.69.83-1.03.46-.68.69-1.33.69-1.95 0-.76-.39-1.28-1.16-1.57-.26-.1-.55-.16-.85-.17a7.3 7.3 0 0 0-2.53.35.15.15 0 0 1-.17-.04c-.2-.21-.43-.4-.66-.6a11.76 11.76 0 0 0-16.28 1.63 11.2 11.2 0 0 0-2.63 6.6Zm.17 2.75a11 11 0 0 0 1.32 3.55l-.04.02c-.42.01-.88.01-1.37 0-.37-.01-.7-.07-1-.17-.49-.17-.76-.5-.83-.97-.05-.4.1-.81.45-1.23a7.1 7.1 0 0 1 1.37-1.24c.06-.04.09-.03.1.04Zm19.7-10.13a11.01 11.01 0 0 1 2.47 3.65c.02.03.04.04.07.01.38-.34.68-.71.9-1.1.26-.47.38-.91.35-1.34a1.32 1.32 0 0 0-.38-.88c-.2-.22-.5-.37-.86-.47a3.86 3.86 0 0 0-1.06-.11 7.31 7.31 0 0 0-1.5.2c0 .01 0 .03.02.04Z" fill="#EC3237"/><path d="M32.87 29.33c-1.6 1-3.25 1.94-4.95 2.81-1.22.63-2.62 1.32-4.18 2.06-.03.01-.04 0-.04-.03-.02-2.16-.02-4.95 0-8.39 0-.6.03-1.23.1-1.9 0-.06.03-.1.1-.1a20.1 20.1 0 0 1 1.78-.2c1.46-.1 2.76.08 3.89.51a4.89 4.89 0 0 1 2.99 3.24 7.14 7.14 0 0 1 .31 2Z" fill="#EC3237"/><path d="M27.59 14.8c-.02.07-.09.11-.16.1-.08-.01-.13-.08-.12-.14.02-.07.09-.12.16-.1.08 0 .13.07.12.14Zm2.32.88c0-.03.02-.04.05-.04l.14.02c.03 0 .06 0 .08-.03.03-.03.02-.06 0-.09l-.03-.02-.11-.03c-.07-.02-.1-.06-.08-.12 0-.02 0-.04.02-.07.04-.14.03-.23-.02-.28a.1.1 0 0 0-.1-.04.1.1 0 0 0-.09.08l-.08.28c0 .02-.02.04-.04.05l-.14.06c-.04.01-.04.03 0 .06.05.03.08.06.1.1.02.01.03.03.02.06-.05.24-.1.48-.13.73-.02.1.04.18.17.23.1.04.21.06.32.05a.1.1 0 0 0 .08-.04.3.3 0 0 0 .02-.03c.03-.06.02-.09-.05-.1l-.2-.02c-.03 0-.05-.02-.05-.06v-.13l.12-.62Zm-3.37-.26c-.04.17-.05.42-.04.75 0 .1-.04.15-.12.18h-.01c-.1.02-.15-.02-.16-.11l-.01-1.02c0-.02 0-.03.02-.05.07-.08.15-.07.24.04.03.04.06.04.1 0 .14-.12.29-.12.45 0 .02.01.03.03.03.06a.1.1 0 0 1-.06.08h-.08a.83.83 0 0 0-.3.01.07.07 0 0 0-.06.06Zm.9-.3c.08 0 .14.05.14.13l-.02.96c0 .08-.06.13-.13.13h-.01a.13.13 0 0 1-.14-.13l.02-.97c0-.07.06-.13.14-.13Zm.84.15c.03.02.06.03.1.02l.2-.07a.4.4 0 0 1 .36.05c.1.07.16.17.17.3.01.16-.01.43-.08.82 0 .06-.04.08-.1.08l-.05-.01c-.06 0-.1-.04-.09-.1l.04-.72c.01-.17-.07-.25-.24-.23h-.01c-.18 0-.28.1-.3.27l-.06.6c-.01.08-.06.11-.15.1-.1 0-.13-.05-.12-.14l.1-1c0-.03.02-.06.05-.07a.1.1 0 0 1 .1.03l.08.07Zm-3.3 1.57-.04-.44c0-.04.02-.05.06-.04l.23.07c.2.05.36 0 .47-.16a.7.7 0 0 0 .12-.5.64.64 0 0 0-.23-.46c-.14-.12-.33-.13-.54-.03a.47.47 0 0 0-.09.06.7.7 0 0 1-.06.05c-.03.01-.05 0-.07-.02-.06-.08-.12-.11-.2-.09-.05.02-.07.05-.07.1l.15 1.48c0 .04.02.07.05.1a.1.1 0 0 0 .1.01c.08 0 .12-.05.11-.13Zm.52-.73a.3.3 0 0 1-.23.15.3.3 0 0 1-.25-.1.47.47 0 0 1-.13-.29.47.47 0 0 1 .06-.31.3.3 0 0 1 .23-.15.3.3 0 0 1 .25.1c.07.07.12.17.13.29.01.12 0 .22-.06.31Zm-3.87-.24c.07 0 .13-.06.13-.13a.13.13 0 0 0-.13-.13.13.13 0 0 0-.13.13c0 .07.06.13.13.13Zm1.25.73c-.05-.03-.1-.11-.14-.25-.05-.14-.05-.23-.03-.29.06-.12.13-.19.23-.22s.2-.02.3.04l.15.08c.04.02.07.02.1-.01.04-.05.04-.1 0-.16-.13-.14-.3-.2-.5-.16-.22.03-.37.13-.46.28a.6.6 0 0 0-.05.52c.07.2.18.33.34.4.16.08.34.07.54-.02.2-.1.3-.23.31-.42.01-.07-.02-.11-.08-.12-.04-.01-.07 0-.09.04l-.07.14a.38.38 0 0 1-.23.21c-.1.03-.2.01-.32-.06Zm-1.1-.54-.05.02a.1.1 0 0 0-.06.13l.37.95a.1.1 0 0 0 .14.06l.05-.02a.1.1 0 0 0 .06-.13l-.38-.95a.1.1 0 0 0-.13-.06Zm-.4 1.34c.03 0 .06.02.08.05.06.13.06.25 0 .35-.1.15-.3.18-.6.1a.1.1 0 0 0-.1.05c-.03.04-.03.08 0 .12.03.04.1.07.17.08.22.02.44-.05.65-.22.16-.12.22-.27.17-.42a8.26 8.26 0 0 0-.56-1.17.08.08 0 0 0-.09-.05.08.08 0 0 0-.08.06l-.04.1c0 .03-.02.05-.05.05h-.1l-.18.02c-.2.07-.33.18-.38.35-.05.16-.01.32.1.5.1.14.17.22.22.25.3.14.53.08.7-.18a.09.09 0 0 1 .09-.04Zm-.14-.17a.3.3 0 0 1-.17.22.3.3 0 0 1-.27-.01.47.47 0 0 1-.22-.23.46.46 0 0 1-.04-.32.3.3 0 0 1 .16-.21.3.3 0 0 1 .28 0c.1.05.17.13.22.24.05.1.06.2.04.31Zm-1.55.2a.18.18 0 0 0-.17-.08c-.21 0-.33.13-.36.37-.01.06-.03.1-.06.12a.07.07 0 0 1-.07.02.07.07 0 0 1-.05-.05c-.05-.13-.03-.23.03-.31.1-.12.2-.22.34-.3.24-.13.44-.08.59.14.22.34.37.53.43.58.02.02.02.05.02.07-.02.05-.04.07-.08.09l-.1-.01c-.1-.03-.18.02-.24.12a.58.58 0 0 1-.3.27c-.14.06-.27.04-.37-.06-.15-.16-.14-.32.03-.5l.34-.32c.05-.04.06-.1.02-.15Zm.25.4c0-.06-.03-.1-.1-.13a.13.13 0 0 0-.15.03l-.2.22a.13.13 0 0 0-.04.08l-.02.09c0 .05.01.09.05.12.04.04.09.04.14.03l.2-.06c.06-.02.1-.06.1-.13l.02-.25Zm-2.4.7c-.11.1-.19.2-.22.34-.01.03-.03.04-.06.03-.12-.01-.2.02-.23.1-.01.03 0 .06.01.08l.67.76c.06.06.12.07.2.01.06-.05.07-.1.02-.16l-.45-.54c-.1-.11-.09-.22.01-.33l.02-.02c.1-.1.2-.1.3 0l.5.55c.05.06.11.06.17.01.07-.05.08-.1.02-.17l-.4-.47a.31.31 0 0 1-.03-.38c.09-.14.19-.14.31-.01l.52.55c.04.04.08.04.13 0l.04-.02c.05-.05.06-.1.01-.16a5.29 5.29 0 0 0-.38-.43l-.05-.06a.88.88 0 0 0-.27-.21c-.1-.04-.2 0-.32.1a.59.59 0 0 0-.18.35c0 .03-.02.04-.05.04h-.02c-.12-.02-.2 0-.26.04Zm-.71 2.24a5.4 5.4 0 0 1-.1.31.46.46 0 0 1-.23.25.33.33 0 0 1-.34-.03c-.13-.08-.16-.21-.1-.4l.22-.45a.1.1 0 0 0 0-.1.1.1 0 0 0-.1-.06c-.15-.01-.26.04-.3.17-.03.07-.04.2-.03.38 0 .03-.01.05-.04.07a.07.07 0 0 1-.08 0c-.1-.07-.13-.15-.11-.25.06-.3.22-.5.48-.63a.12.12 0 0 1 .08 0c.12.02.22.07.3.13.2.16.4.3.6.4.05.02.05.06.02.1-.04.05-.1.07-.2.07-.04 0-.06.01-.07.04Zm-.46-.19-.14.42c-.02.05 0 .1.05.1l.02.02c.08.02.15.01.22-.02a.27.27 0 0 0 .13-.17l.02-.05a.27.27 0 0 0-.01-.21.26.26 0 0 0-.16-.14h-.02c-.06-.02-.1 0-.11.05Zm-1.04 1.86c0 .02-.02.04-.04.05a.19.19 0 0 1-.11 0 6.94 6.94 0 0 0-.72-.14c-.08-.01-.13.02-.14.08v.03c-.01.05.01.09.07.1.2.05.55.11 1.04.19.1 0 .18.05.24.13.06.07.07.16.03.25a.88.88 0 0 1-.08.15c-.02.02-.02.04 0 .06l.05.03c.03 0 .05 0 .09-.03.24-.2.26-.43.05-.7l-.85-1.03c-.04-.04-.08-.04-.12 0h-.01c-.06.06-.07.11-.02.17l.5.6c.02.02.02.04.02.06Zm-.2.92-1.32-.66a.13.13 0 0 0-.17.05v.01c-.03.06-.01.14.05.17l1.33.66c.06.03.13 0 .16-.06h.01a.12.12 0 0 0-.05-.17Zm-.4 1.05v-.2c0-.02.02-.04.04-.05.16-.03.2-.1.15-.18a.07.07 0 0 0-.03-.03l-1-.38c-.07-.03-.12 0-.14.08v.02c-.02.06 0 .1.06.12l.56.24c.16.07.23.18.21.35v.02c-.02.17-.12.22-.29.17l-.7-.24c-.07-.03-.11 0-.15.07v.03c-.01.06 0 .1.05.12l.68.28c.28.1.46.03.54-.22a.62.62 0 0 0 .02-.2Zm-1.46.9a.27.27 0 0 0-.05-.1.09.09 0 0 1-.02-.07c.01-.12.05-.21.14-.28a.09.09 0 0 1 .08-.02c.03 0 .06.03.08.05.02.03.02.05 0 .08-.15.25-.12.4.1.48.16.06.38.13.64.2a.1.1 0 0 1 .07.08.1.1 0 0 1-.01.1l-.02.02c-.04.05-.08.06-.13.05l-1.02-.3a.08.08 0 0 1-.06-.07c0-.04 0-.07.04-.09l.13-.07c.02-.01.03-.03.03-.06Zm-.26.67-.04.15c-.01.03-.03.04-.07.04l-.32-.05h-.04c-.12.05-.12.13-.02.22.04.03.08.05.13.05.15 0 .23.06.22.2 0 .04.02.06.06.05.04-.01.07-.05.1-.1s.07-.06.12-.05h.02c.45.14.75.18.88.12a.1.1 0 0 0 .05-.05.9.9 0 0 0 .1-.35.1.1 0 0 0-.07-.11l-.04-.02a.05.05 0 0 0-.05 0 .05.05 0 0 0-.03.04l-.02.2a.1.1 0 0 1-.05.08.11.11 0 0 1-.1.01l-.68-.2c-.02 0-.03-.01-.03-.04l.02-.14c0-.02 0-.04-.03-.06l-.04-.02c-.03-.02-.06 0-.07.03Z" fill="#303B79"/><path d="M41 31.38c.08 0 .14-.06.14-.14a.14.14 0 0 0-.14-.14.14.14 0 0 0-.14.14c0 .08.06.14.14.14Zm-.12.77c.09 0 .16-.06.15-.13 0-.07-.07-.12-.16-.12s-.15.07-.15.14.08.12.16.11Zm-.06.62c0 .08-.07.14-.15.14a.14.14 0 0 1-.14-.14c0-.08.06-.14.14-.14.08 0 .15.06.15.14Zm-.36.95c.03.15.03.26 0 .35-.13.37-.4.53-.8.48a.55.55 0 0 1-.33-.17c-.25-.25-.28-.53-.08-.84a.64.64 0 0 1 .1-.11.61.61 0 0 0 .08-.1c.04-.05.03-.08-.03-.1l-.43-.17c-.04-.02-.06-.05-.04-.1l.03-.06c.02-.04.05-.05.1-.04l1.54.6c.06.02.07.06.03.11a.2.2 0 0 1-.14.1c-.03 0-.04.02-.03.05Zm-.14.32a.42.42 0 0 0-.04-.36.54.54 0 0 0-.3-.25.56.56 0 0 0-.4 0 .43.43 0 0 0-.22.63c.06.12.17.2.3.24.14.05.28.05.4 0a.43.43 0 0 0 .26-.26Zm-1.18 1.8c-.06 0-.14-.02-.22-.09-.03-.02-.03-.04-.01-.06l.55-.94a.09.09 0 0 0 0-.09.1.1 0 0 0-.07-.05c-.45-.1-.76.07-.93.48-.12.3-.08.54.13.73.36.32.7.29 1.02-.09.18-.2.24-.45.18-.74a.12.12 0 0 0-.06-.09c-.04-.02-.07-.01-.09.01l-.05.08a.06.06 0 0 0 0 .08c.06.08.08.17.06.27-.05.29-.22.45-.5.5Zm.09-.99-.46.8h-.02a.36.36 0 0 1-.18-.26.47.47 0 0 1 .06-.33l.01-.02c.07-.11.15-.19.27-.23a.36.36 0 0 1 .31.02l.01.02Zm-1.26 2.34c.19.06.36.04.5-.04.16-.1.23-.24.23-.44 0-.04 0-.1-.02-.18 0-.08.02-.14.1-.19.02-.01.04 0 .06.02.1.16.1.35-.02.57-.1.19-.24.33-.41.43-.23.13-.46.1-.7-.1-.22-.17-.3-.38-.24-.63a.94.94 0 0 1 .17-.33c.1-.12.19-.2.29-.24.2-.1.42-.08.64.06.03.01.03.03.02.05l-.66.91a.06.06 0 0 0-.01.07c0 .02.02.03.05.04Zm-.16-.17.53-.75v-.02h-.01a.36.36 0 0 0-.3-.05c-.12.03-.22.1-.29.2l-.02.03c-.07.1-.1.2-.1.32.02.12.07.2.16.27h.03Zm-.6 1.6c.01-.02.03-.04.06-.05a.63.63 0 0 0 .48-.39c.11-.27.06-.51-.16-.73-.23-.21-.48-.25-.75-.12a.7.7 0 0 0-.38.52c0 .02-.02.03-.04.03-.1 0-.17.02-.21.07-.03.03-.03.05 0 .07l1.2 1.13c.03.02.05.02.07.01l.1-.04c.02 0 .03-.02.03-.04l-.01-.04-.36-.34a.07.07 0 0 1-.03-.07Zm.4-.57a.43.43 0 0 1-.17.33c-.1.08-.23.1-.37.08a.56.56 0 0 1-.34-.22.55.55 0 0 1-.13-.38.43.43 0 0 1 .18-.33c.1-.08.22-.1.36-.08.14.03.26.1.35.22.09.12.13.24.12.38Zm-16.27-.7v.03c-.07.05-.12.08-.17.08-.04 0-.04-.01-.02-.04.04-.05.1-.07.2-.07Zm15.05 1.63c.05.03.07.06.08.11a.3.3 0 0 1-.04.2.63.63 0 0 1-.23.24.47.47 0 0 1-.32.07.36.36 0 0 0-.16 0c-.15.05-.16.1 0 .15.15.06.33.02.53-.1.18-.13.3-.27.36-.43.08-.22.02-.37-.18-.45a.12.12 0 0 0-.08 0c-.18.04-.3.08-.34.12-.16.1-.32.18-.49.23a.14.14 0 0 1-.12-.02.13.13 0 0 1-.06-.1c0-.05.01-.11.06-.18a.6.6 0 0 1 .57-.27c.05 0 .1-.02.12-.06.02-.02.02-.04 0-.06-.1-.08-.23-.08-.37-.01-.23.11-.4.25-.5.42-.1.18-.08.32.05.4.12.1.27.1.43 0l.55-.26c.05-.02.1-.02.14 0Zm-1.93 1.76a.66.66 0 0 1-.52.4.6.6 0 0 1-.46-.1.8.8 0 0 1-.3-.39c-.07-.2-.03-.39.13-.56a.7.7 0 0 1 .61-.26c.02 0 .04 0 .05-.02a.05.05 0 0 0 0-.05l-.26-.44c-.02-.04-.01-.07.03-.09l.08-.04c.03-.02.06-.02.08.02l.85 1.44v.05a.06.06 0 0 1-.05.04c-.07 0-.13 0-.18-.02-.02-.01-.05 0-.06.02Zm-.3.17a.43.43 0 0 0 .2-.3.54.54 0 0 0-.1-.4.55.55 0 0 0-.32-.23.44.44 0 0 0-.56.37c-.02.13 0 .26.1.38.07.13.18.2.32.24.13.03.26.02.37-.06Zm-13.87.39c.17.32.44.46.82.42.02 0 .04 0 .05.03 0 .04.04.1.1.15.05.04.09.03.11-.02l.48-1.05c.01-.03 0-.05-.02-.06l-.11-.05c-.04-.01-.06 0-.08.03-.08.22-.19.44-.3.65a.57.57 0 0 1-.12.16.25.25 0 0 1-.18.06.59.59 0 0 1-.4-.13c-.1-.1-.13-.23-.06-.4.08-.22.2-.46.32-.7.01-.02 0-.04-.02-.05l-.13-.06c-.03 0-.05 0-.06.03l-.4.87a.12.12 0 0 0 0 .12Zm11.69.15c0 .11.04.18.12.2.43.16.7.04.84-.33a.21.21 0 0 1 .07-.1l.03-.02c.02-.02.05-.02.08 0 .02.02.03.04.03.07-.05.24-.21.42-.49.53-.36.16-.65.11-.84-.13-.16-.2-.2-.4-.15-.6a.73.73 0 0 1 .37-.43.8.8 0 0 1 .56-.1c.2.04.35.16.44.37.01.02 0 .04-.02.05l-1 .43c-.03.01-.05.03-.04.06Zm-.06-.15.85-.39v-.01a.36.36 0 0 0-.24-.2.5.5 0 0 0-.35.03l-.02.01a.48.48 0 0 0-.25.24c-.05.1-.05.21 0 .3v.01Zm-1.65.02a.09.09 0 0 1-.06-.07 2.63 2.63 0 0 0-.12-.44c0-.02-.01-.03-.03-.02l-.17.05c-.01 0-.02 0-.01.02l.46 1.6c.02.05.05.07.1.06l.08-.03c.04 0 .06-.03.04-.08-.09-.28-.15-.5-.19-.67-.03-.16-.01-.28.08-.34.14-.1.27-.16.39-.18.15-.01.25.06.3.22.07.18.14.43.22.74.01.06.05.08.1.06l.09-.02c.04-.01.06-.04.04-.08l-.2-.7c-.07-.25-.22-.37-.45-.38-.2 0-.4.08-.57.24a.1.1 0 0 1-.1.02Zm-7.78-.26h.16c.2 0 .36.06.5.14.17.11.23.25.17.43-.06.23-.15.5-.27.82-.01.04-.04.05-.08.04l-.08-.03c-.05-.02-.07-.05-.05-.1l.26-.72c.07-.2 0-.33-.21-.39l-.17-.04c-.22-.06-.36.02-.44.23l-.24.67c-.01.04-.04.05-.08.04l-.05-.02c-.07-.02-.09-.06-.07-.12l.38-1.06c0-.03.03-.04.05-.03l.15.1.07.04Zm5.94 1.69-.21-.03c-.02 0-.03-.01-.04-.04l-.09-.88c0-.03.01-.04.04-.04l.22-.03c.02 0 .04-.01.04-.04v-.04c.01-.02 0-.03-.02-.03h-.25c-.03 0-.05-.02-.05-.05v-.32c0-.05-.02-.06-.07-.04l-.09.05a.12.12 0 0 0-.06.12v.2c0 .03-.01.05-.04.06a.32.32 0 0 1-.14.04c-.02 0-.03 0-.03.03v.03c0 .02.02.03.04.03h.13c.04 0 .05.02.06.05l.1.91c0 .1.06.16.16.16h.32c.03 0 .05-.02.05-.06v-.02c0-.04-.03-.06-.07-.06Zm-4.5-1.22.1-.03a.76.76 0 0 1 .18-.04c.26-.01.46.06.6.23.02.04.05.04.08.01.14-.11.34-.14.6-.08.15.03.24.11.27.23a1 1 0 0 1 0 .39l-.07.62c0 .04-.02.06-.06.05l-.13-.01c-.03 0-.04-.02-.04-.06l.1-.82c.02-.18-.06-.27-.25-.28h-.19c-.19 0-.3.09-.32.27l-.09.77c0 .02 0 .03-.03.02l-.16-.02c-.03 0-.04-.01-.04-.04l.1-.8c.02-.22-.07-.33-.3-.34h-.03c-.23-.02-.36.08-.4.3-.06.23-.1.47-.1.72 0 .04-.03.05-.06.05l-.13-.02c-.04 0-.06-.02-.06-.07l.14-1.12c0-.05.03-.07.08-.06.05 0 .1.04.14.1.02.03.04.04.07.03ZM29 42.54c-.08-.05-.14-.16-.18-.33-.03-.17-.03-.3.02-.37.13-.2.3-.28.53-.26a.6.6 0 0 1 .24.1l.15.09c.05.02.08 0 .08-.05v-.03c-.03-.07-.05-.1-.08-.13-.16-.11-.36-.14-.6-.1a.71.71 0 0 0-.47.28.62.62 0 0 0-.08.52c.04.2.14.34.3.43.15.09.33.1.54.06.24-.06.4-.17.5-.34.02-.03.02-.08.02-.15l-.01-.02c-.03-.05-.06-.06-.1-.02a.88.88 0 0 0-.1.14.58.58 0 0 1-.17.2c-.2.11-.39.1-.59-.02Zm-1.85.34c-.05 0-.1.04-.18.11h-.42a.64.64 0 0 1-.3-.07.41.41 0 0 1-.19-.25c-.03-.1 0-.18.1-.27a.62.62 0 0 1 .3-.13l.17-.01c.23 0 .4-.03.52-.08a.08.08 0 0 0 .05-.05c.06-.17-.02-.27-.23-.3a1.1 1.1 0 0 0-.46.02c-.05.01-.1.06-.16.13a.09.09 0 0 1-.08.03h-.1c-.03-.01-.04-.03-.02-.05.07-.12.15-.2.26-.24.09-.03.22-.05.39-.05.16 0 .28 0 .37.03.2.06.29.2.28.4a10.82 10.82 0 0 0 0 .79l.04.06c.02.03 0 .04-.02.04h-.5c.07-.07.13-.1.18-.1Zm-.02-.56-.8.15c-.04.01-.05.03-.04.06v.04c.02.1.07.17.16.22a.4.4 0 0 0 .3.05l.13-.02a.4.4 0 0 0 .25-.16.33.33 0 0 0 .06-.27v-.03c0-.03-.03-.04-.06-.04Z" fill="#EC3237"/></svg>