<svg width="56" height="56" xmlns="http://www.w3.org/2000/svg"><path fill="url(#paint0_linear)" d="M0 0h56v56H0z"/><path d="M27.984 12c.358.571.681 1.165 1.004 1.759.202.37.403.74.612 1.103l1.51 2.723v.002h.001v.001c.63 1.136 1.26 2.272 1.889 3.41-2.667.003-5.334.002-8 0h-2c.902-1.636 1.808-3.27 2.715-4.902v-.002A2285.44 2285.44 0 0027.984 12zM23.5 22.001H28L32.5 22c-.715 1.274-1.432 2.547-2.148 3.82v.002l-.002.001c-.784 1.392-1.567 2.784-2.348 4.177-1.507-2.663-3.005-5.33-4.502-7.999zm-3.473 3.775c-.832 1.406-1.663 2.813-2.498 4.217 2.024.009 4.047.007 6.071.006H27c-.83-1.397-1.656-2.795-2.483-4.193v-.001L22.262 22c-.746 1.258-1.49 2.516-2.235 3.775v.001zm11.3.285v-.003h.001v-.001c.799-1.353 1.597-2.706 2.398-4.057 1.578 2.666 3.153 5.332 4.727 8-1.321-.002-2.643-.001-3.965 0-1.83 0-3.659.001-5.488-.004.776-1.31 1.55-2.62 2.324-3.932l.001-.002.001-.002zM20.781 37.8c-1.259-2.27-2.517-4.539-3.786-6.801l-2.498 4.499C13.665 37 12.83 38.498 12 40c3.333.002 6.666.002 10 0l-1.218-2.197zM18 30.998c1.765.003 3.53.003 5.294.002H27c-.64 1.148-1.28 2.294-1.922 3.44v.001h-.001c-.835 1.493-1.67 2.985-2.5 4.48-.046.174-.167.01-.19-.068-.833-1.5-1.67-2.996-2.508-4.493l-.001-.001c-.627-1.12-1.254-2.24-1.878-3.36zM35.749 31H29c.815 1.452 1.632 2.903 2.449 4.354v.002l.002.002A6510.17 6510.17 0 0133.5 39l1.193-2.12L38 30.999h-2.251zm4.68 2.561c.302.551.603 1.102.913 1.647.884 1.597 1.77 3.193 2.656 4.788l.002.003h-2c-2.667.002-5.334.003-8 0 .708-1.28 1.417-2.56 2.127-3.838l.001-.003a1987.8 1987.8 0 002.856-5.157c.502.84.974 1.7 1.445 2.56zm-9.033 3.542A575.733 575.733 0 0027.995 31c-.957 1.742-1.924 3.478-2.891 5.214A1384.61 1384.61 0 0023 39.999h10c-.536-.964-1.07-1.93-1.604-2.897z" fill="#fff"/><defs><linearGradient id="paint0_linear" x1="10.418" y1="9.712" x2="68.147" y2="76.017" gradientUnits="userSpaceOnUse"><stop stop-color="#1A1E21"/><stop offset="1" stop-color="#06060A"/></linearGradient></defs></svg>