<svg xmlns="http://www.w3.org/2000/svg" width="56" height="56"><path fill="#3F85A5" d="M0 0h56v56H0z"/><path d="M5.14 24a.1.1 0 01-.1-.13l.24-.8a.1.1 0 01.1-.07h5.87c.73 0 1.24.18 1.52.54l1.64 2.03c.9 1.12 1 2.41.15 3.59l-1.38 1.9c-.3.4-.56.66-.8.77-.23.11-.6.17-1.1.17H5.14a.1.1 0 01-.1-.13l.22-.8a.1.1 0 01.1-.07h.4c.25 0 .24-.22.24-.55v-6.11c0-.22-.1-.33-.28-.34h-.57zm7.24 3.43c0-.14-.08-.35-.24-.63a16.7 16.7 0 00-1.22-1.74c-.35-.43-.7-1.06-1.3-1.06H9.1a.1.1 0 00-.1.1v6.8c0 .06.04.1.1.1h.5c.57.02.85-.58 1.16-.96a24.51 24.51 0 001.33-1.87c.2-.32.3-.57.3-.74zm6.7-.43a.1.1 0 01.1.14l-.4.8a.1.1 0 01-.1.06h-2.54a.1.1 0 01-.08-.15l.45-.8a.1.1 0 01.09-.05h2.48zM23 24.32v5.96c0 .53.35.72.67.72h1.03c1 0 1.27-1.45 1.3-2.26a.1.1 0 01.08-.1l.8-.19a.1.1 0 01.12.1v3.35a.1.1 0 01-.1.1h-7.76a.1.1 0 01-.1-.13l.23-.8a.1.1 0 01.1-.07h.42c.21 0 .21-.21.21-.53v-6.1c0-.2 0-.37-.24-.37h-.62a.1.1 0 01-.1-.13l.24-.8a.1.1 0 01.1-.07h4.93a.1.1 0 01.1.13l-.24.8a.1.1 0 01-.1.07h-.64c-.33 0-.4.1-.43.32zm6.82 1.2c-.69.22-2.72.42-2.09-.87.47-.96 2.38-1.82 3.05-.65.43.75-.3 1.33-.96 1.53zM31 30.69c0 .43.35.64.7.68.06.01.1.08.09.14l-.13.43a.1.1 0 01-.1.07h-4.3a.1.1 0 01-.1-.13l.13-.42a.11.11 0 01.09-.08.7.7 0 00.62-.7v-2.89c0-.28-.04-.37-.22-.4a8.12 8.12 0 00-.53-.07.1.1 0 01-.08-.13l.18-.63a.1.1 0 01.1-.07c.6.02 1.1-.2 1.67-.36.74-.2 1.88-.12 1.88-.11v4.67zm5-2.31v2.32c0 .42.26.64.67.68.07 0 .12.07.1.13l-.13.43a.1.1 0 01-.1.07h-4.28a.1.1 0 01-.1-.13l.13-.42a.1.1 0 01.1-.07c.41-.04.61-.31.61-.7v-2.9c0-.24-.07-.37-.22-.41-.13-.04-.3-.06-.52-.07a.1.1 0 01-.1-.13l.2-.63a.1.1 0 01.08-.07c.51-.04.98-.13 1.4-.29.29-.1 1.86-.58 2.15-.2l.01.05v1c0 .05.04.07.08.05.62-.38 4.92-2.86 4.92.03v3.5c0 .52.63.66.93.7.08.01.13.1.09.16l-.28.48a.1.1 0 01-.08.05h-2.94c-.48.01-.72-.18-.72-.59v-3.04c0-.97-2-.87-2 0zm9.89-5.35a.1.1 0 01.11.1v4.41c0 .09.1.13.17.08l1.8-1.59a.1.1 0 01.07-.02h2.66a.1.1 0 01.1.13l-.13.44a.1.1 0 01-.1.08c-.48 0-.73.05-.87.18l-1.78 1.47a.1.1 0 00-.01.15l2.3 2.46c.27.27.84.29 1.5.29a.1.1 0 01.1.13l-.18.6a.1.1 0 01-.1.07h-2.7a1 1 0 01-.76-.35l-1.9-2.24a.1.1 0 00-.17.06v1.26c0 .43.47.58.7.62.06.02.1.08.09.14l-.13.44a.1.1 0 01-.1.07h-4.3a.1.1 0 01-.1-.13l.13-.42a.11.11 0 01.08-.08c.18-.03.63-.17.63-.7V24.8c0-.34-.5-.44-.73-.47a.1.1 0 01-.1-.14l.18-.62a.1.1 0 01.09-.07l3.45-.48z" fill="#fff"/></svg>