<svg width="56" height="56" xmlns="http://www.w3.org/2000/svg"><path fill="#206B33" d="M0 0h56v56H0z"/><path d="M8.483 24c.292.012.55.023.774.058 2.372.257 3.743 2.296 3.743 4.58 0 1.973-.943 3.976-2.768 4.871-.527.269-1.11.468-1.749.491v-1.14C9.963 32.45 11 31.265 11 28.742c0-2.488-1.228-3.296-2.517-3.611V24zM4 24v10h4.483v-1.14c-.336.093-.695.14-1.087.14H6v-7.997h1.295c.404 0 .807.035 1.188.129V24H4zm19.131 9.296l.154-.879.285-2.168.405-3.271.164-1.395c.077-.516.143-1.055.209-1.583.383.047.756.035 1.14 0l3.067 6.905c1.052-2.274 2.082-4.619 3.144-6.905.373.035.8.07 1.162 0 .384 3.33.745 6.683 1.139 10-.712-.047-1.435-.094-2.147 0l-.625-6.659L28.248 34h-.504l-2.97-6.647c-.196 2.204-.394 4.443-.58 6.647A5.827 5.827 0 0023 34l.131-.704zM43 27h2l.021 1.885c.533-1.115.443-1.862 1.979-1.885-.085.644-.053 1.356 0 2l-.192.058c.032-.046-1.605-.621-1.808 1.022V34h-2v-7zm-4 3.26c-.233.121-.696.21-1.057.364v-.585c1.501-.485 1.048-1.61 0-1.919v-1.114c.396-.021.803.012 1.222.122 1.174.297 1.835 1.29 1.835 2.349v2.8c0 .41 0 .893.336 1.016.094.034.12.01.283 0l-.046.342c-2.187 1.125-2.618-.717-2.7-.607a2.226 2.226 0 01-.93.739v-.76c1.07-.078.976-1.38 1.057-2.747zm-1.057.364v-.585c-.198.055-.43.11-.698.154-1.117.155-2.245.706-2.245 1.92 0 .827.43 1.543 1.396 1.764.535.122 1.07.1 1.547-.11v-.76c-.035.01-.058.01-.093.01-.581 0-.873-.375-.85-1.125.023-.728.455-1.059.943-1.268zm0-3.618c-.86.067-1.675.43-2.454.905l.174.849.14-.022c.732-.695 1.535-.794 2.14-.618v-1.114zM49 27v-2.13l2-.874V27c.394-.012.715 0 .996 0a3.1 3.1 0 000 1.002l-.996-.04v3.821c0 .525.011.906.131 1.097.263.394.443.385.869.182l-.044.609-.273.107c-1.126.441-2.53.239-2.683-1.252-.016-.15 0-.381 0-.596v-4.036c-.306.036-.694.108-1 .108A3.055 3.055 0 0048 27h1zm-35.82 6.583h8.64L22 34h-9l.18-.417zm.45-1.044h7.74l.16.37h-8.06l.16-.37zm.432-1h6.877l.14.326h-7.158l.14-.326zm.418-.97h6.04l.128.296h-6.296l.127-.295zm.404-.938h5.232l.114.264h-5.46l.114-.264zm.392-.908h4.449l.1.234h-4.65l.1-.234zm.378-.877h3.692l.088.203h-3.868l.088-.203zm.365-.846h2.963l.074.172h-3.112L16.02 27zm1.493-4c-.384 1.902-.122 1.532-1.999 1.374 1.846.824 1.674.427.764 2.223.8-.63 1.2-1.136 1.235-1.693.034.557.434 1.063 1.235 1.693-.91-1.796-1.083-1.399.763-2.223-1.877.158-1.614.528-1.998-1.374z" fill="#fff"/><path d="M18.483 23.72a.288.288 0 00-.387.056.254.254 0 00.059.367c.123.086.297.06.387-.056a.253.253 0 00-.059-.367zm-1.943 0a.288.288 0 01.387.056.254.254 0 01-.058.367.288.288 0 01-.388-.056.253.253 0 01.059-.367z" fill="#fff"/></svg>