<svg xmlns="http://www.w3.org/2000/svg" width="56" height="56" viewBox="0 0 56 56"><path fill="#F0F3FA" d="M0 0h56v56H0z"/><path fill-rule="evenodd" d="M44 26.5c0 4.7-7.16 8.5-16 8.5s-16-3.8-16-8.5S19.16 18 28 18s16 3.8 16 8.5Zm-1.05 0c0 4.38-6.7 7.93-14.95 7.93-8.26 0-14.95-3.55-14.95-7.93 0-2.7 2.55-5.09 6.44-6.52.03-.16.1-.32.2-.38.11-.07.3.03.44.15A25.43 25.43 0 0 1 28 18.57c7.5 0 13.7 2.93 14.79 6.75-1.81 3.21-4.67 3.86-5.9 3.78l.11.43c1.2.05 4.02-.6 5.91-3.62.03.2.04.4.04.59Zm-29.63.06c0 .52.22 1.78 1.03 2.64.45-.34 1.68-1 2.95-.99 1.6.03 4.04.36 6.76 1.5 0-.24-.1-.8-.51-1.1-.4-.32-.7-1.11-.79-1.47l-.94-1.76a8.75 8.75 0 0 0-2.85-.7c-1.22 0-2.15.03-5.65 1.88Zm22.8 5.76c0-.25-.03-.8-.08-.95.13.18.46.54.74.54.28 0 .37-.47.38-.7 1.04-.14 3.56-1 5.3-3.31-1.47 2.86-4.84 4.14-6.34 4.42Zm-20.23-1.58c2.29 1.9 10.36 4.78 18.92 2.49-.36.09-.62-.04-.7-.12-2.79.35-5.81-.8-6.98-1.4.04.24.04.83-.23 1.17-.17.2-.27.2-.45.16-.17-.03-.42-.08-.9.07-.94.3-1.31.12-1.75-.1-.45-.21-.52-.8 0-1.3.4-.41.4-1.05.35-1.32-3.84-1.23-7.1-.28-8.26.35Zm11.22-2.06.61.1c1.09.6 3.53 1.81 4.62 1.95-.28.36-.75 1.24-.42 1.85-1.09-.13-3.59-.64-4.87-1.57l-.09-.17.15-2.16Z" fill="#01874C"/><path fill-rule="evenodd" d="M20.17 20.64c-.29-.22-.22-.59-.15-.74.08-.07.09-.02.11.1l.04.13c.06.21.42.54.7.55.14.01.26-.02.42-.07.15-.04.33-.1.61-.13.49-.05.49.06.49.13v.03c0 .05-.2.06-.4.07l-.21.01c-.18.03-.51.1-.54.28-.03.17-.12.28-.31.47l-.09.08c-.18.17-.37.34-.22.5.13.13.2.3.22.37 0 .41-.5.86-.74 1.04-.11.07-.33.24-.33.4 0 .17.14.26.21.29.27.02.65.12.81.17.16.05.29 0 .36-.1a.53.53 0 0 0 .06-.19c.03-.15.06-.3.16-.25.17.1-.08.41-.14.49-.05.06-.02.1 0 .11.32.03.47.13.5.18.04.1.13.3.2.27.07-.01.07-.16.06-.23.1 0 .33-.07.5-.35.18-.3.43-.48.54-.54.06-.3.3-.5.41-.56-.02-.1-.04-.36.05-.6.09-.23.06-.34.04-.37-.24-.08-.32.24-.32.41 0 .1-.01.29-.07.35-.08.07-.34.36-.38.46l-.03.15c0 .04 0 .08-.02.1l-.02.02c-.07.05-.23.17-.38.36-.17.21-.3.33-.4.33-.1 0-.25-.05-.25-.2l.03-.17c.02-.1.05-.23.05-.42 0-.29-.25-.28-.4-.27h-.05c-.12 0-.27 0-.27-.19 0-.15.15-.25.22-.29.45-.32.44-.5.44-.73V22c0-.23.13-.3.22-.35.02 0 .04-.02.05-.03.07-.04.1-.1.1-.11.06-.52.33-.72.48-.82.05-.04.09-.06.1-.09.04-.08-.08-.2-.17-.3l-.04-.05-.2-.16c-.07-.04-.13-.08-.12-.09.01-.02.19-.1.65.18.46.27.34.57.21.86-.12.29-.2.67-.2.83 0 .13.08.07.13.03 0-.18.1-.4.14-.5.27-.46.95-.35 1.16-.3.17.04.14.18.11.25-.2.2-.6.65-.63.75-.05.13.33.17.8.19.3 0 .9.05 1.34.08l.51.03c1.33.32 5.22.35 7.3.33 1.66-.01 2.13.92 2.15 1.38l.33 3.9c.81 3.41.55 3.84.44 3.84-.1 0-.2-.05-.44-.4-.2-.29-.5-.2-.62-.11.06.1.18.4.18.8 0 .51-.14 1.04-1.03 1.04-.64 0-.84-.24-.96-.39-.05-.06-.1-.1-.14-.11-.07-.02-.15.03-.27.1-.17.1-.42.23-.8.23-.63 0-.57-1.02-.17-1.56.31-.44.28-1.21.23-1.54-.68-.13-.8-.42-.78-.56a.98.98 0 0 1-.83-.22c-.23-.23-.63-.18-1.04-.12-.2.03-.39.05-.57.05-.33 0-.63-.12-.89-.22a1.6 1.6 0 0 0-.54-.16c-.28 0-.79-.1-1-.16l-.12 2.62c.15.48.15.6.13.88l-.01.43c0 .55-.23.53-.48.5l-.17-.02c-.18 0-.56.1-.9.2a3.9 3.9 0 0 1-.59.12c-.18 0-.53 0-.8-.32-.24-.26-.09-.53.02-.63.13-.16.41-.55.54-.87a3.3 3.3 0 0 0-.05-1.35c.01-.34-.05-1.09-.44-1.4-.4-.32-.46-.48-.6-.82l-.1-.23c-.22-.52-1-2.04-1.43-2.63-.34-.47-.78-.5-.95-.45l-.03.02c-.1.06-.19.12-.47.12-.24 0-.31-.14-.32-.21h-.19c-.12 0-.14-.17-.13-.26-.07 0-.2-.06-.2-.33 0-.28.2-.42.3-.46.17-.11.54-.4.61-.69.08-.32.02-.36-.3-.58l-.12-.07c-.43-.3-.77-.84-.72-.99.04-.12.12-.07.15-.02.03.15.27.46.41.64l.08.11c.07.1.3.18.36.09.06-.1-.07-.21-.24-.35a3.37 3.37 0 0 0-.09-.06c-.17-.13-.37-.29-.24-.46.15-.2.58 0 .77.1h.04c.17.09.27.13.31.05.02-.05-.11-.13-.3-.26a5.72 5.72 0 0 1-.43-.3Zm-.07 3.8a.1.1 0 0 0 .1-.1.1.1 0 0 0-.1-.12.1.1 0 0 0-.1.11c0 .06.04.11.1.11Zm.39.14a.13.13 0 0 0 0-.27.13.13 0 0 0-.13.14c0 .07.06.13.13.13Zm-.4-.6c.1 0 .18-.05.18-.12 0-.07-.07-.13-.17-.13s-.18.06-.18.13.08.12.18.12Zm.7.02c0 .09-.08.16-.18.16-.1 0-.17-.07-.17-.16 0-.08.07-.15.17-.15s.18.07.18.15Zm2.38-1.81v-.01c0 .03 0 .02 0 0Zm0-.01c-.01-.04-.02-.13-.02-.32 0-.42.5-.55.6-.55.1 0 .18.04.18.1 0 .06-.06.1-.09.1a.44.44 0 0 0-.5.35c.24-.04.3.06.3.12l.48-.67c-.2-.14-.65-.32-.95.1-.33.5-.07.71 0 .77Zm-.99-.18c-.09.1-.22-.05-.27-.13-.37.38.05.33.3.26.12-.07.32-.24.26-.3-.06-.07-.2-.08-.25-.08a.2.2 0 0 1-.04.25Zm2.14.94a.54.54 0 0 0-.05.38c.03.1-.01.12-.06.15-.05.04-.12.08-.11.26 0 .15.11.37.24.62.16.32.34.7.34 1 0 .27-.14.48-.28.68-.13.2-.26.38-.26.6 0 .1.05.26.22.26.1 0 .14-.12.17-.26.04-.15.08-.3.23-.3.1 0 .19.08.28.18.13.16.29.33.57.19.25-.12.06-.46-.18-.86-.21-.36-.46-.78-.47-1.16 0-.48.12-.7.21-.86.07-.12.13-.22.11-.39 0-.04-.06-.13-.2-.16v-.02c.01-.08.03-.42-.24-.42-.13 0-.14.02-.15.04-.02.03-.04.07-.37.07Zm-1.11 2.7c.04-.02.17.02.33.3l.05.09a3.55 3.55 0 0 1 .6 1.49l.06.23c.02.16-.01.27-.09.27s-.18-.15-.18-.49c-.04-.02-.1-.12-.1-.32a.99.99 0 0 0-.22-.63c-.12-.14-.68-.79-.45-.95Zm4.16-2.73a.9.9 0 0 0-.91.78c0 .07.02.2.12.2.13 0 .36-.3.36-.45 0-.15.06-.32.37-.32.18 0 .56.1.88.2.24.06.46.12.53.12.18 0 .35-.06.35-.16 0-.08-.12-.1-.18-.1-.25 0-.42-.06-.6-.12a2.69 2.69 0 0 0-.92-.15Zm.22.95c.06-.06.2-.17.34-.17.13 0 .13.2.11.3-.04.07-.16.23-.35.23-.23 0-.16-.27-.1-.36Zm-1.3 3.13c.1.23.4.39.54.44.1.06-.01.28-.08.38h-.9c-.02 0-.13-.2-.13-.44 0-.2.15-.3.23-.32V27c0-.15 0-.29.06-.29.07 0 .15 0 .28.28Zm-1.75 1.1c.3.04.9.27.9.9v.71c-.14 0-.41.07-.41.38 0 .3.2.4.3.4l-.04 1.76h-.41l-.04-2.1c-.09-.01-.26-.21-.26-.95 0-.73-.03-1.03-.04-1.1Zm1.66 0h-.56c0 .2-.03.72-.03 1.12 0 .51.07.65.2.85.1.16.13.28.13.32v1.07h-.14c0-.9-.1-1.16-.19-1.2-.08-.05-.12.17-.12.3l-.02.4-.02.6c0 .18.26.2.4.2 0 .2.25.3.37.34.1.01.28-.02.28-.2 0-.17-.13-.44-.2-.55.02-.23.06-.81.06-1.4 0-.5-.19-.61-.33-.69-.06-.03-.12-.06-.14-.13-.05-.15.19-.75.31-1.02Zm.83-.22c-.02.04-.01.15.22.22.3.09 2.84.82 3.34.1 0-.08.04-.23.14-.23s.23.26.28.39c.08.14.4.43 1.1.43-.01.18.02.53.21.53s.17-.26.14-.38c.12-.08.4-.18.6.07.02.1.08.3.23.3.14 0 .14-.25.13-.37.1-.02.3-.1.3-.24 0-.14-.35-.39-.52-.5 0-.06-.04-.24-.14-.5-.12-.31-.63-.56-.96-.61-.05-.02-.16-.1-.16-.23 0-.15.73-.21 1.39.88.53.88.81 1.32.9 1.43v.22c.06.13.22.43.33.56.12.12.12.57.1.78v1.14l-.2.46c-.03.1-.03.32.2.32s.5-.03.61-.04c.04-.11.09-.35 0-.44-.1-.1-.18-.55-.18-.96v-1.17l.27-.37c.02-.35.03-1.1-.16-1.31a1.75 1.75 0 0 1-.48-1.27c0-.21.02-.42.04-.6.04-.36.07-.61-.11-.63-.22-.02-.2.33-.16.51-.2.1-.61.31-.77.3-.17-.02-.41-.3-.52-.44-.15-.16-.52-.45-.8-.37-.03.03-.05.13.06.27.13.17-.02.41-.27.41s-.86-.04-.86-.41c0-.3.34-.53.52-.6.23-.14.67-.44.55-.57-.05-.05-.11-.1-.17-.13-.1-.07-.2-.13-.2-.28.02-.02.14-.1.43-.2.28-.11.16-.29.07-.36.1-.02.3-.1.3-.4v-.09a6.48 6.48 0 0 1-1.8-.26c-.1.04-.27.14-.07.26l.04.03c.26.16.82.51.82.87v.15c0 .3.02.55-.42.55h-.17c-.4 0-.59 0-.59.16 0 .09.07.25.14.42.09.2.18.41.18.55 0 .25-.19.25-.25.19-.07-.07-.18-.16-.29-.05a.52.52 0 0 0-.07.1c-.03.05-.05.07-.12.07a.31.31 0 0 1-.12-.04c-.09-.04-.17-.08-.17.1v.07c0 .25 0 .58-.23.58-.2 0-.2.11-.17.17.23.07.7.27.7.5 0 .23-.41.28-.62.28-.27.01-.87-.02-1.04-.23a.87.87 0 0 0-.32.06c-.12.06-.67-.08-.94-.15-.05-.03-.19-.08-.29 0Zm5.47 4.09c0-.2.26-.79.4-1.06.05-.37-.03-.68-.1-.91a2.28 2.28 0 0 1-.05-.23c-.04-.26.14-.4.25-.3l.23.18c.1-.02.3-.1.3-.27 0-.22.17-.3.22-.3.04 0 .19.02.19.23 0 .2-.25 1-.38 1.36-.1.3-.26.43-.33.46v.62c0 .5-.14.57-.4.57s-.33-.11-.33-.35Zm1.89-.42-.05-1.4c0-.03-.04-.09-.15-.09-.13 0-.16.17-.19.37v.03c-.04.21-.2.72-.27.8-.08.1-.08.3 0 .3.06 0 .22-.2.3-.3 0 .15.04.44.2.44.15 0 .17-.1.16-.15Zm1.3-1.79c.04-.2.05-.65.05-.86.02-.09.07-.11.09-.1.02-.01.07.02.07.2 0 .21.1.35.15.4.04.04.03.08.02.13l-.02.07c0 .03.03.06.06.1.05.05.1.13.1.22 0 .16-.18.33-.23.34l-.02.01c-.02.01-.03.01-.08-.1a.35.35 0 0 0-.1-.13c-.06-.06-.13-.12-.1-.28Zm-.57-2.24-.04.36c0 .09.04.14.14.14.08 0 .06-.09.04-.26l-.01-.08a2.43 2.43 0 0 1 0-.5c0-.04-.03-.12-.14-.12-.1 0-.04.17 0 .28l.03.09c0 .04 0 .08-.02.1Zm.57.68c.04.12-.05.18-.1.2-.08 0-.12-.1-.13-.13v-.01c-.02-.04-.04-.26.04-.3.07-.03.13.09.19.24Z" fill="#2E3192"/><path fill-rule="evenodd" d="M48 35H9v5h39v-5Zm-37.1 3.83V39h1.46c1.46 0 2.24-.96 2.24-1.47 0-.5-.1-1.53-1.75-1.53-1.66 0-2.25 1.25-2.25 1.53s.34.45.5.46h.15c.1-.03.14-.12.12-.21-.02-.1-.05-.23-.05-.32 0-.18.29-1.14 1.65-1.13 1.1.01 1.06.88.9 1.3a2.2 2.2 0 0 1-1.88 1.16c.17-.1.35-.46.59-.93l.21-.4c.28-.53.48-.69.55-.7.08 0 .23 0 .23-.09 0-.08-.14-.11-.2-.12-1.05 0-1.37.93-1.6 1.6-.19.54-.43.68-.52.68h-.35Zm27.75-2.48-.9 2.4h-.3l-.12.25h1.4l.08-.26h-.39l.86-2.22a.59.59 0 0 1 .37-.38c.03 0 .06-.04.06-.07a.07.07 0 0 0-.07-.07h-1.06c-.89 0-1.32.62-1.32 1.09 0 .31.27.45.47.5.06 0 .1-.04.1-.1v-.61c0-.37.5-.67.65-.67.12 0 .16.1.17.14ZM18.29 39v-.17h.34c.1 0 .33-.14.5-.68.23-.67.53-1.6 1.54-1.6.07 0 .2.04.2.13 0 .08-.15.09-.22.08-.07.01-.26.17-.53.7l-.2.4c-.24.47-.41.82-.58.93a2.1 2.1 0 0 0 1.82-1.15c.15-.43.19-1.3-.87-1.3-1.3-.02-1.6.94-1.6 1.12l.06.32c.02.09-.02.18-.12.2-.04.01-.1.02-.14.01-.15 0-.48-.18-.48-.46S18.58 36 20.18 36s1.69 1.02 1.69 1.53S21.1 39 19.7 39h-1.4Zm11.66-.17V39h1.4c1.42 0 2.17-.96 2.17-1.47 0-.5-.1-1.53-1.69-1.53-1.6 0-2.16 1.25-2.16 1.53s.32.45.47.46h.15c.1-.03.14-.12.12-.21-.03-.1-.05-.23-.05-.32-.01-.18.28-1.14 1.6-1.13 1.04.01 1 .88.86 1.3A2.1 2.1 0 0 1 31 38.8c.17-.1.34-.46.57-.93l.2-.4c.28-.53.47-.69.54-.7.07 0 .22 0 .22-.09 0-.08-.13-.11-.2-.12-1.01 0-1.32.93-1.54 1.6-.18.54-.4.68-.5.68h-.34Zm-12.56-.61c-.53.73-1.45 1-2.05.6-.6-.4-.65-1.31-.12-2.04.54-.73 1.45-1 2.05-.6.6.4.65 1.31.12 2.04Zm-.42-.38c-.33.59-.88.92-1.23.74-.35-.18-.37-.8-.03-1.39.33-.59.88-.91 1.23-.73.35.18.37.8.03 1.38Zm6.95-1.64.04-.2h-1.38v.26h.4a7.49 7.49 0 0 1-1.5 2.66h.36l.12-.1c.09-.08.19-.08.23-.08.26.09.85.26 1.12.26.27 0 .52-.24.61-.35l.04-.46h-.09c-.16.13-.54.4-.84.4-.3 0-.45-.17-.49-.25.36-.29.68-1.08.87-1.52l.09-.23a.7.7 0 0 1 .42-.4Zm.72 2.37c-.22 0-.29-.18-.29-.27-.23-.02-.3.22-.32.34 0 .12.07.36.48.36.42 0 .78-.3.9-.45l.7-.76h.55l-.27.73h-.34v.29h1.23l.12-.29h-.23c-.07 0-.12-.06-.1-.12l.72-2.17c.06-.17.01-.23-.02-.23h-1.61c-.56 0-1.1.63-1.08.81.03.15.26.3.38.36.4-.74.9-.92 1.16-.92.2 0 .22.07.2.1-1.51 2-1.91 2.22-2.18 2.22Zm2.12-1.07h-.38l.63-.69-.25.69Zm6.85.8c0 .09.07.27.29.27.27 0 .67-.22 2.18-2.22.02-.03 0-.1-.2-.1-.26 0-.75.18-1.16.92-.11-.06-.35-.21-.37-.36-.03-.18.52-.81 1.07-.81h1.61c.04 0 .09.05.02.23l-.71 2.17c-.02.06.02.12.09.12h.24l-.12.29h-1.23v-.29h.34l.26-.73h-.54l-.7.76c-.13.15-.5.45-.9.45-.41 0-.5-.24-.48-.36 0-.12.09-.36.31-.34Zm2.03-.8h.39l.24-.69-.63.69Zm4.3.1v-.64c.02-.23.2-.7.74-.69l-.87 2.42h-.33l-.03.28c.45.01 1.34.03 1.34 0 0-.04.05-.2.08-.28h-.39l.39-1.03H41c.07.68.37 1.97 1.12 1.97.15 0 .49 0 .63-.4 0-.03 0-.1-.1-.1-.05 0-.08.03-.1.06-.03.02-.05.05-.13.05-.13 0-.75-.49-.83-1.6.42-.07.76-.4.83-.83a.69.69 0 0 0-.67-.81H40.7c-.42 0-1.26.2-1.26 1.04 0 .18.12.55.5.55Zm1.03-.22.4-1.1c.02 0 .1-.03.17-.03.1 0 .27.1.26.4-.02.41-.5.8-.7.8-.15 0-.15-.05-.13-.07Zm2.2-.82c-.12.08-.2.08-.22.07 0-.2.17-.51.82-.62.53-.1.7.61.63.92h.05c.3-.42.8-.92 1.2-.92.39 0 .3.28.16.47-.11.16-.22.2-.27.2-.06-.1-.17-.12-.2-.12-.55 0-1.2 1.48-1.45 2.22h.35l-.02.22H42.9l.04-.22h.32c.19-.5.57-1.57.57-1.9 0-.41-.2-.47-.32-.47s-.22.06-.36.15Z" fill="#ED1B24"/><path d="M13.48 17.76a19.24 19.24 0 0 0-5.4 2.05l.1.1 1.8.79-.81 2.15.1.1c5.62-2.78 6.73-2.4 7.39-2.62.52-.17.59-.46.55-.58l-.34-1.35c-.21-.39-1.18-1.05-3.4-.64Z" fill="#FEF200"/><path d="M16.82 18.41c-.2-.35-1.14-1.01-3.33-.6a19.2 19.2 0 0 0-5.33 2.01l.05.04 1.84.81-.82 2.16.05.05a30.73 30.73 0 0 1 5.53-2.25 9.45 9.45 0 0 1 1.36-.26c.2-.03.35-.05.47-.09.51-.16.55-.43.52-.52l-.34-1.35Zm-3.35-.7c2.22-.41 3.22.25 3.44.66v.01l.35 1.36c.05.15-.04.46-.58.64-.14.04-.3.06-.5.09-.05 0-.1 0-.15.02-.29.03-.66.1-1.19.23-1.06.28-2.74.88-5.55 2.26l-.03.02-.15-.14.82-2.14-1.78-.77L8 19.8l.05-.03a19.3 19.3 0 0 1 5.42-2.06Z" fill="#D82732"/><path d="m16.96 18.39.33 1.42-.1.03c0-.03-.06-.1-.19-.14a1.51 1.51 0 0 0-.62-.06l-.75.11-.25.05-.68.11c-.3.05-.58.08-.79.08-.1 0-.2 0-.26-.03a.2.2 0 0 1-.08-.05.12.12 0 0 1-.03-.1c0-.18.06-.38.14-.54a.99.99 0 0 1 .14-.21c.05-.06.1-.1.16-.13l.4-.08a85.68 85.68 0 0 1 2.53-.46h.05Zm-2.55.55-.4.08a.29.29 0 0 0-.12.1.9.9 0 0 0-.12.19 1.4 1.4 0 0 0-.13.51v.02l.05.03c.05.02.12.02.22.02.2 0 .47-.03.78-.08a34.6 34.6 0 0 0 .93-.15c.3-.06.56-.1.76-.11.3-.02.51 0 .66.06l.11.05-.27-1.16a279.17 279.17 0 0 0-2.47.44Z" fill="#D82732"/><path d="M19 17.6c.33.02.4.2.4.29-.1.28-.4.4-.52.43-1.33.18-4.12.61-4.62.82-.5.2-.66.56-.67.71-.22-.6-.68-1.94-.78-2.48-.1-.55.32-.87.53-.97l2.59-.87c.89.68 2.74 2.06 3.07 2.08Z" fill="#FEF200"/><path d="m15.94 15.47.02.02a49.74 49.74 0 0 0 2.58 1.84 3.71 3.71 0 0 0 .46.23c.18 0 .3.06.36.13.07.06.1.14.1.2v.02a.8.8 0 0 1-.57.45 106.09 106.09 0 0 0-3.87.64c-.35.07-.62.13-.74.18-.48.2-.63.55-.64.68l-.1.01c-.22-.6-.68-1.94-.78-2.5-.1-.57.33-.91.56-1.01l2.62-.89Zm-2.58.98c-.2.09-.6.4-.5.91.09.5.49 1.68.72 2.33.08-.19.27-.43.66-.6.13-.05.4-.12.76-.19l1.25-.23 2.62-.4a.7.7 0 0 0 .48-.39.2.2 0 0 0-.06-.13c-.05-.04-.14-.09-.29-.1-.03 0-.06 0-.1-.02a15.99 15.99 0 0 1-1.26-.78c-.6-.42-1.28-.93-1.72-1.27l-2.56.87Z" fill="#D82732"/><path d="m19.42 17.81-.46-1.36c-.47.09-1.22.37-1.54.5-.16.07-.54.24-.81.54-.33.38 1.75.08 2.25.12.4.03.54.15.56.2Z" fill="#FEF200"/><path d="m19 16.4.47 1.4-.1.03c0-.01-.03-.05-.11-.09-.08-.03-.2-.07-.4-.08a5.75 5.75 0 0 0-.77.03l-.66.04a3.78 3.78 0 0 1-.8-.05.2.2 0 0 1-.08-.05.1.1 0 0 1-.03-.08c0-.04.03-.06.05-.1.28-.3.67-.48.83-.54a9.42 9.42 0 0 1 1.55-.5l.05-.01Zm-.07.11c-.47.1-1.18.36-1.5.49a2.12 2.12 0 0 0-.8.56v.01l.04.02.09.03c.15.02.39.02.66.01a25.52 25.52 0 0 0 .83-.05c.26-.02.49-.03.61-.02a1.26 1.26 0 0 1 .45.1l-.38-1.15Z" fill="#D82732"/><path d="M42.52 17.67c2.22.41 4.53 1.54 5.4 2.05l-.1.1-1.8.78.81 2.15-.1.1c-5.62-2.78-6.73-2.4-7.39-2.61-.52-.18-.59-.46-.55-.59l.34-1.35c.21-.38 1.18-1.05 3.4-.63Z" fill="#FEF200"/><path d="M39.18 18.32c.2-.36 1.14-1.02 3.33-.6 2.17.4 4.42 1.48 5.33 2l-.05.05-1.84.8.82 2.17-.05.05a30.73 30.73 0 0 0-5.53-2.26c-.54-.14-.92-.2-1.2-.23l-.16-.03c-.2-.02-.35-.04-.47-.08-.51-.17-.55-.43-.52-.52l.34-1.35Zm3.35-.7c-2.22-.42-3.22.25-3.44.66l-.35 1.36c-.05.16.04.46.58.64.14.05.3.07.5.1l.15.01c.29.04.66.1 1.19.24 1.06.28 2.74.87 5.55 2.26l.03.02.15-.14-.82-2.14 1.78-.78.15-.14-.05-.04a19.3 19.3 0 0 0-5.42-2.05Z" fill="#D82732"/><path d="m39.04 18.3-.33 1.41.1.03c0-.03.06-.08.19-.13.12-.05.32-.08.62-.06a8.69 8.69 0 0 1 1 .15l.68.12c.3.04.58.08.79.08.1 0 .2-.01.26-.03a.2.2 0 0 0 .08-.06.12.12 0 0 0 .03-.09 1.5 1.5 0 0 0-.14-.55.98.98 0 0 0-.14-.2.39.39 0 0 0-.16-.13l-.4-.09a82.39 82.39 0 0 0-2.53-.45h-.05Zm2.55.55.4.08c.03.01.07.04.12.1.04.04.08.1.12.18.07.16.12.35.13.52v.02l-.05.03a.72.72 0 0 1-.22.02c-.2 0-.47-.03-.78-.08l-.67-.11-.26-.05c-.3-.05-.57-.1-.76-.1-.3-.03-.51 0-.66.06a.69.69 0 0 0-.11.05l.27-1.17a279.17 279.17 0 0 1 2.47.45Z" fill="#D82732"/><path d="M37 17.51c-.33.02-.4.2-.4.29.1.28.4.4.52.42 1.33.2 4.12.62 4.62.83.5.2.66.56.67.71.22-.6.68-1.94.78-2.49.1-.54-.32-.87-.53-.96l-2.59-.88c-.89.69-2.74 2.07-3.07 2.08Z" fill="#FEF200"/><path d="m40.06 15.38-.02.01a49.9 49.9 0 0 1-2.58 1.85 3.74 3.74 0 0 1-.46.22c-.18.01-.3.06-.36.13a.28.28 0 0 0-.1.2v.02c.13.3.43.43.57.46a106.06 106.06 0 0 1 3.87.63c.35.08.62.14.74.19.48.2.63.54.64.68h.1c.22-.6.68-1.94.78-2.49.1-.57-.33-.92-.56-1.02l-2.62-.88Zm2.58.97c.2.1.59.4.5.92-.09.5-.49 1.67-.72 2.33a1.17 1.17 0 0 0-.66-.6 5.2 5.2 0 0 0-.76-.2l-1.25-.22c-.93-.16-1.96-.31-2.62-.4a.7.7 0 0 1-.48-.4.2.2 0 0 1 .06-.12c.05-.05.14-.1.29-.1.03 0 .06 0 .1-.02l.11-.05a15.9 15.9 0 0 0 1.14-.73c.61-.42 1.29-.93 1.73-1.27l2.56.86Z" fill="#D82732"/><path d="m36.58 17.72.46-1.36c.47.08 1.22.37 1.54.5.16.06.54.23.81.54.33.38-1.75.08-2.25.11-.4.03-.54.15-.56.2Z" fill="#FEF200"/><path d="m37 16.3-.47 1.4.1.03s.03-.04.11-.08.2-.07.4-.09c.12 0 .34 0 .6.02l.17.01.66.04a3.76 3.76 0 0 0 .8-.04.2.2 0 0 0 .08-.05.1.1 0 0 0 .03-.09.18.18 0 0 0-.05-.09 2.22 2.22 0 0 0-.83-.54 9.4 9.4 0 0 0-1.55-.5L37 16.3Zm.07.12c.47.09 1.18.36 1.5.49a2.12 2.12 0 0 1 .8.56l-.04.03a3.7 3.7 0 0 1-.75.04l-.66-.04a76.27 76.27 0 0 0-.78-.03 1.26 1.26 0 0 0-.45.1l.38-1.15Z" fill="#D82732"/><path d="m15.55 14.63 1.02 2.94c.3-.6 2.99-1.96 11.4-2.05 7.53-.08 11.11 1.28 11.42 2.05l1.08-2.94c.32-.67-1.24-1.24-2.06-1.45a49.23 49.23 0 0 0-20.95 0c-1.6.36-1.94 1.12-1.91 1.45Z" fill="#FEF200"/><path d="M38.4 13.23a49.18 49.18 0 0 0-20.93 0c-1.58.35-1.9 1.09-1.87 1.39l.99 2.83c.04-.05.1-.12.18-.18.12-.1.29-.2.5-.3a9.31 9.31 0 0 1 1.95-.67c1.76-.42 4.54-.79 8.75-.83 3.76-.04 6.55.28 8.43.71.94.21 1.65.45 2.15.69.25.12.45.24.6.35.1.08.17.15.23.23l1.04-2.84c.07-.15.04-.29-.06-.43-.11-.14-.3-.28-.52-.4a6.38 6.38 0 0 0-1.45-.55Zm-20.95-.1c2-.44 10.91-2.31 20.97 0 .41.1 1.01.3 1.47.56.23.13.43.27.55.43.12.16.16.34.07.53L39.4 17.7l-.05-.13a.77.77 0 0 0-.26-.29 3.1 3.1 0 0 0-.57-.33c-.5-.23-1.2-.47-2.14-.68a37.34 37.34 0 0 0-8.4-.71c-4.2.04-6.97.4-8.73.83a9.2 9.2 0 0 0-1.92.65c-.21.1-.37.2-.48.3a.78.78 0 0 0-.22.24l-.05.1-1.07-3.05c-.04-.38.33-1.15 1.95-1.5Z" fill="#D82732"/><path d="m17.56 14.38.81-.16c.08-.02.15.03.15.1v.13c0 .04-.04.08-.1.1l-.59.12.25.11v.15l.26-.06a.1.1 0 0 1 .12.1v.13a.1.1 0 0 1-.07.1l-.3.08.02.58c0 .02-.06.08-.2.08s-.18-.06-.19-.08l-.02-.48a.1.1 0 0 1-.12-.1v-.15a.1.1 0 0 1 .07-.1h.04l-.02-.3.02-.02-.08.01c-.07.02-.15-.03-.15-.1v-.15c0-.04.04-.08.1-.1Z" fill="#2C3098"/><path fill-rule="evenodd" d="M19.16 14.02c-.05-.06-.5.13-.5.9s.56.77.61.77c.04 0 .53-.06.53-.98 0-.18-.06-.58-.3-.72l-.26.23a.65.65 0 0 0-.08-.2Zm.13.29a.98.98 0 0 0-.24.6c0 .35.14.4.19.4.05 0 .2-.13.2-.46 0-.28-.1-.48-.15-.54ZM20.59 14.15c-.09 0-.23.04-.36.1l.28.08v.28c.19-.08.3-.2.3-.27s-.03-.2-.22-.2Zm-.6.21.15-.07v1.13c0 .01.05.03.17.03.1 0 .18-.04.2-.06V15l.05-.02.43.48c.04.04.1.04.15 0l.12-.11a.1.1 0 0 0 0-.14l-.38-.4a.76.76 0 0 0 .34-.63c-.03-.17-.29-.58-.87-.37l-.41.18a.5.5 0 0 0 .05.36Z" fill="#2C3098"/><path d="m22.9 14.34-.03.74c.09.02.29.04.39-.08.04-.8.09-1.15.1-1.3l.02-.1c0-.05-.02-.13-.19-.13-.13 0-.2.04-.22.07l-.05.62-.32.01a11.37 11.37 0 0 1 .06-.5c0-.05-.02-.12-.18-.12-.14 0-.2.04-.23.06l-.05.6c-.11.02-.15.06-.16.08l-.02.32a.84.84 0 0 1 .16-.03l-.03.58c.09.02.29.03.39-.08 0-.2.02-.39.03-.54l.18-.01.16-.19ZM23.65 13.55l-.02.25.13-.02-.03.29c-.08.03-.13.08-.14.11l-.02.25.12-.02-.04.34c0 .06.05.2.22.2l.62-.03c.03-.04.1-.13.1-.2 0-.09-.03-.18-.15-.18-.1 0-.29.03-.37.05l.02-.2.47-.02c.05-.05.09-.26.1-.36l-.53.02.02-.2-.2-.06.67-.03c.06-.05.1-.25.1-.35l-.8.03c-.17 0-.25.1-.27.13ZM24.97 14.17c.12-.3.27-.63.44-.88h.38c.07.22.2.83.18 1.47a.31.31 0 0 1-.2.07.32.32 0 0 1-.18-.05v-.49l-.14.19h-.22l-.1.35c0 .02-.06.05-.17.05-.1 0-.19-.05-.21-.07.02-.08.05-.19.1-.3h-.1c0-.23.14-.32.22-.34Zm.38-.02.23-.01-.01-.5-.22.5ZM26.17 14.45c.07-.42.25-.98.33-1.21.15-.02.44-.01.41.1l-.24 1.07h.5l-.14.35h-.65l-.21-.31ZM34.12 14.76c.16-.4.45-.91.57-1.13.15.02.43.08.38.2l-.45.99.5.1-.22.3-.63-.12-.15-.34ZM27.76 13.56l.53.01c.06-.1.16-.32.11-.33-.05-.02-.7 0-1.03 0-.03 0-.12.06-.16.31l.43.01-.33 1.1c0 .03.02.09.13.09h.22c.03 0 .1-.04.13-.24.04-.19.18-.59.24-.76l-.27-.19ZM28.55 13.84l.24-.62h.2c.12 0 .15.11.15.17l-.14.45h.3l.25-.62h.2c.12 0 .15.11.15.17l-.4 1.25c0 .03-.05.1-.23.1s-.21-.09-.2-.13c.04-.2.11-.42.19-.63l-.18.2h-.2l-.14.46c0 .03-.05.1-.23.1s-.21-.09-.2-.13l.12-.43c-.1-.01-.1-.07-.06-.17a.4.4 0 0 1 .08-.17h.1ZM30.34 13.3c.1-.06.33 0 .44.03l-.56 1.46c-.01 0-.07 0-.22-.04s-.17-.1-.17-.13a6.7 6.7 0 0 1 .51-1.32ZM31.04 13.46l-.1.21.18.01-.1.26h-.03c-.1 0-.14.08-.16.11l-.09.22h.15l-.1.24c-.01.04 0 .16.16.26l.67.06.13-.32h-.4a.1.1 0 0 1-.09-.14l.03-.07.45.03c.08-.05.14-.25.16-.34l-.48-.03.03-.07a.1.1 0 0 0-.04-.12l-.13-.08.67.04c.08-.05.14-.24.16-.33l-.91-.05c-.1 0-.15.07-.16.1ZM37.52 14.37l-.12.2.17.04-.14.24h-.02a.18.18 0 0 0-.18.08l-.12.2.14.03-.12.22c-.02.04-.02.15.12.28l.65.15.18-.3-.4-.06a.1.1 0 0 1-.07-.14l.04-.07.45.1c.08-.05.16-.23.2-.32l-.47-.1.04-.07a.1.1 0 0 0-.03-.12l-.11-.1.65.14c.09-.04.17-.22.2-.31l-.88-.18a.18.18 0 0 0-.18.1Z" fill="#2C3098"/><path fill-rule="evenodd" d="M32.48 13.77c.28-.03.58 0 .57.18 0 .2-.2.23-.39.22l.11-.25-.3-.15Zm-.07 0-.25.05c.01-.14.1-.28.14-.34.05-.01.2-.05.43-.05.28 0 .75.16.75.52 0 .3-.4.45-.6.49.1.12.24.4.29.54-.15.12-.29.13-.34.11l-.27-.58h-.05l-.18.4c-.02 0-.09.02-.2-.02-.13-.05-.16-.09-.16-.1a27.2 27.2 0 0 1 .44-1.01Z" fill="#2C3098"/><path d="M35.83 13.87c-.19.26-.56 1-.72 1.35.06.07.26.12.36.14l.73-1.4a2.04 2.04 0 0 0-.37-.1ZM36.53 14.05l.9.15c-.05.09-.16.28-.21.3-.04.02-.36-.04-.6-.1l.21.16-.08.15.4.07c-.04.09-.15.28-.2.3-.03.01-.2-.01-.38-.05l-.25.47c-.05.02-.16.05-.24.03a.24.24 0 0 1-.13-.13l.22-.45-.1-.03c-.02 0 .12-.3.18-.3l.08.02.13-.27a3.13 3.13 0 0 1-.11-.03c-.02 0 .12-.3.18-.3Z" fill="#2C3098"/></svg>