<svg xmlns="http://www.w3.org/2000/svg" width="56" height="56"><path fill="#E01F30" d="M0 0h56v56H0z"/><path d="M5.42 24.23v-.52c0-.2.2-.64 1.05-.7 1.48-.1 3.76.7 4.05 3.13v3.35l-.7.57v-3.92c0-.62-.67-2.21-2.66-2.43h-.69c-.12 0-.35.04-.34.21v.3h-.71zm3.1.26h-3.7c-.27-.02-.8.13-.82.79v5.41c-.01.29.13.87.82.9h.3v-.7h-.19a.29.29 0 01-.24-.3v-5.13c0-.11 0-.28.24-.28h4.24l-.64-.7zm-3.1 1.01v6.58c-.01.28.13.86.86.92h.98c.47 0 1.64-.26 2.53-1.34-.19.04-.68.13-1.16.13-.23.16-.83.48-1.37.5h-.78c-.13 0-.35 0-.35-.21V25.5h-.7zm3.1 5.33H6.43v.76H8.5c2-.1 3.46-1.64 3.49-3.5a3.56 3.56 0 00-1.39-2.84c.17.35.19.93.17 1.18.44.51.55 1.32.55 1.66 0 2.05-1.99 2.77-2.82 2.74z" fill="#fff"/><path fill-rule="evenodd" d="M13 24h3a4 4 0 010 8h-3v-8zm2 2h1a2 2 0 110 4h-1v-4zm13.5 2a4 4 0 11-8 0 4 4 0 018 0zm-2 0a2 2 0 11-4 0 2 2 0 014 0zm4.5-4h-2v8h4v-2h-2v-6zm3 0h2v6h2l-.75 2H34v-8zm4 8l2.82-8h1.95l2.73 8h-2l-.54-1.38h-2.38L40 32h-2zm3.78-5.4l-.76 2.4h1.54l-.78-2.4zM46 24h3a2.5 2.5 0 01.84 4.86L52 32h-2.32L48 29.14V32h-2v-8zm2 3.52v-1.8h.66a.9.9 0 010 1.8H48z" fill="#fff"/></svg>