<svg width="56" height="56" viewBox="0 0 56 56" xmlns="http://www.w3.org/2000/svg"><path fill="#F0F3FA" d="M0 0h56v56H0z"/><path fill="#E3000F" d="M6 21h44v7H6z"/><path fill="#0068B4" d="M6 28h44v7H6zM6 21l7 7H6v-7Z"/><path d="m6 35 7-7H6v7Z" fill="#E3000F"/><path d="M45 33V23h1.45c1.58 0 1.99 1.07 1.99 2.5 0 1.63-.57 2.5-1.66 2.5h-.13L49 33h-.93l-2.25-5h-.1v5H45Zm.72-9v3.12h.56c1.09 0 1.44-.57 1.44-1.6 0-1.05-.31-1.52-1.44-1.52h-.56ZM41 25.53 39.94 29h2.1L41 25.53ZM41 23l3 10h-.85l-.86-3h-2.58l-.86 3H38l3-10ZM34 33V23h3v1h-2.32v3H37v1h-2.32v4H37v1h-3ZM28 33V23l4.33 7.41V23H33v10l-4.33-7.33V33H28ZM24 32c1.77 0 2.3-2.67 2.3-4s-.52-4-2.3-4c-1.78 0-2.3 2.66-2.3 4 0 1.33.53 4 2.3 4Zm3-4c0 1.74-.7 5-3 5-2.28 0-3-3.27-3-5 0-1.74.7-5 3-5s3 3.26 3 5ZM15.73 32h.47c2.44 0 3.04-1.7 3.04-4 0-2.08-.64-4-3.04-4h-.47v8ZM15 33V23h1.17c2.99 0 3.83 2.45 3.83 5 0 2.52-.72 5-3.57 5H15Z" fill="#fff"/></svg>