<svg width="56" height="56" viewBox="0 0 56 56" xmlns="http://www.w3.org/2000/svg"><path fill="#6F1F3C" d="M0 0h56v56H0z"/><path fill-rule="evenodd" d="M43 13H13v30h30V13Zm-1 1H14v28h28V14Z" fill="url(#afb4fvjfq)"/><path d="M16 21.62V21h7.48c3.9 0 7.06 3.13 7.06 7s-3.16 7-7.06 7H16v-.47h1.35c.47 0 .65-.38.65-.84V22.46c0-.47-.18-.84-.65-.84H16Zm5 .35v10.94c0 .7.66 1.27 1.47 1.27h.72c1.27-.12 3.81-1.62 3.81-6.65 0-5.04-4-5.8-6-5.56Z" fill="#F3CC8B"/><path d="M36.2 21h-8.15v.59h.84c.47 0 1.11.38 1.11.84v1.98a8.1 8.1 0 0 1 .81 3.59 8.1 8.1 0 0 1-.81 3.59v2c0 .47-.64.85-1.1.85h-.85V35h7.03v-.56h-1.14a.85.85 0 0 1-.84-.84V29h3.1c2.11 0 3.8-2.1 3.8-4.2S38.31 21 36.2 21ZM33 22c3.24 0 4 1.36 4 3s-1 3-4 3v-6Z" fill="#F3CC8B"/><defs><linearGradient id="afb4fvjfq" x1="11.61" y1="14.07" x2="36.45" y2="46.63" gradientUnits="userSpaceOnUse"><stop stop-color="#FFEAE9"/><stop offset=".17" stop-color="#FFCFA7"/><stop offset=".25" stop-color="#FFDFE0"/><stop offset=".4" stop-color="#FABFA1"/><stop offset=".59" stop-color="#DEA771"/><stop offset=".79" stop-color="#FFE2D8"/><stop offset="1" stop-color="#F3CC8B"/></linearGradient></defs></svg>