<svg width="56" height="56" viewBox="0 0 56 56" xmlns="http://www.w3.org/2000/svg"><path fill="#F0F3FA" d="M0 0h56v56H0z"/><path fill-rule="evenodd" d="M11.1 29.83c.27 2.07.81 3.94 1.63 5.62a16.55 16.55 0 0 0 8.22 7.97 16.3 16.3 0 0 0 11.44.96c2.96-.81 5.49-2.26 7.58-4.33a17.4 17.4 0 0 0 4.43-7.54c.08-.25.16-.63.25-1.14l.14-.73a17.25 17.25 0 0 0 .17-4.15 9.11 9.11 0 0 0-.21-1.4l-.13-.63a16.72 16.72 0 0 0-5.48-9.29A17 17 0 0 0 11.1 29.83Zm5.12 9.63a15.94 15.94 0 0 0 11.61 4.93c4.56.05 8.46-1.51 11.72-4.68a15.77 15.77 0 0 0 4.95-11.55 15.76 15.76 0 0 0-4.7-11.65 15.94 15.94 0 0 0-11.62-4.93 15.94 15.94 0 0 0-11.72 4.69 15.77 15.77 0 0 0-4.95 11.54 15.76 15.76 0 0 0 4.7 11.65Z" fill="#0668C1"/><path d="M27.92 14.73a.81.81 0 0 0-.02.5c.03.1.1.14.2.15l.66.03c.19.01.28.11.28.3v.07c.01.2-.09.3-.3.3l-1.46-.04c-.11 0-.17-.07-.17-.19v-3.1c0-.15.07-.22.22-.23h1.43c.23 0 .34.1.33.33v.09c0 .16-.09.24-.25.25l-.68.03a.24.24 0 0 0-.2.11c-.08.12-.09.25-.04.4.03.07.08.11.16.12l.73.09c.12.01.18.08.18.2v.15c0 .17-.09.27-.26.29l-.69.05c-.06.01-.1.04-.12.1ZM30.72 14.77c.02.16.06.16.12.02l.67-1.63c.07-.19.2-.25.4-.19l.21.06c.2.07.26.2.17.38l-1.21 2.64c-.17.36-.47.45-.9.26a.37.37 0 0 1-.23-.35l-.07-3.03c-.01-.29.13-.4.41-.31l.11.03c.23.06.33.21.3.45-.06.6-.05 1.16.02 1.67ZM23.8 13.33c-.04-.17.02-.27.2-.3l.86-.19c.3-.06.57-.01.83.15.25.16.41.39.47.68l.3 1.38c.06.3.01.57-.16.82-.16.25-.4.4-.69.46l-.86.19c-.18.03-.28-.04-.32-.2l-.64-2.99Z" fill="#005CBC"/><path d="m24.98 13.5-.02.01a.3.3 0 0 0-.23.35l.34 1.59c.03.16.2.26.36.23h.01a.3.3 0 0 0 .23-.36l-.34-1.59a.3.3 0 0 0-.35-.22Z" fill="#F0F3FA"/><path d="M34.38 16.7c-.13.27-.34.46-.63.56-.3.1-.58.1-.85-.03l-.14-.07a1.07 1.07 0 0 1-.58-.62c-.1-.29-.09-.57.04-.85l.65-1.36c.13-.28.34-.47.63-.57.29-.1.57-.1.85.03l.14.07c.28.13.47.34.57.62.1.29.1.57-.04.85l-.64 1.36Z" fill="#005CBC"/><path d="M34.14 14.44h-.03a.35.35 0 0 0-.46.16l-.7 1.52c-.09.17-.01.37.16.45l.03.02c.17.08.38 0 .46-.17l.7-1.52a.34.34 0 0 0-.16-.46Z" fill="#F0F3FA"/><path d="m36.85 16.41-1.35 1.9c-.15.2-.32.23-.51.07l-.06-.04c-.2-.17-.23-.35-.08-.56.43-.61.84-1.16 1.24-1.66.2-.25.16-.47-.11-.66-.14-.1-.16-.22-.06-.35l.08-.1c.1-.16.24-.18.4-.07l1.34.98c.09.06.13.15.12.26a.31.31 0 0 1-.24.3.3.3 0 0 1-.18 0l-.4-.13c-.08-.02-.14 0-.19.06ZM21.33 17.02c.51 0 .93-.41.93-.92a.93.93 0 0 0-.93-.93.93.93 0 0 0-.94.93c0 .5.42.92.94.92ZM18.26 18.72c-.1.11-.09.21.01.31l.24.24c.11.11.23.11.34 0l.5-.5c.07-.07.16-.09.27-.05.08.03.14.08.18.14.12.18.1.34-.04.5l-.93.98c-.1.1-.2.1-.3 0l-2.26-2.08c-.13-.13-.14-.26-.02-.4.3-.33.6-.66.91-.97.12-.11.25-.15.38-.12.11.02.19.09.23.2.04.1.02.2-.05.28-.02.04-.07.1-.15.18-.29.3-.38.55-.26.74.13.21.29.23.47.05l.37-.37c.14-.13.28-.14.42-.01l.05.04c.15.13.16.27.03.42l-.39.42ZM38.92 16.96l-.16-.15a.3.3 0 0 0-.42 0L36.22 19a.3.3 0 0 0 0 .42l.16.15a.3.3 0 0 0 .43 0l2.12-2.18a.3.3 0 0 0-.01-.42Z" fill="#005CBC"/><path d="m28.93 34.95.03.05 1.55-.48c.22-.07.31.01.28.24l-.04.14a.81.81 0 0 0-.04.2c-.03 1.07-.06 2.1-.07 3.1a.3.3 0 0 1-.07.2.66.66 0 0 1-.47.23c-.21.03-.37-.04-.46-.2a3.7 3.7 0 0 1-.62-2.13c.02-.2-.07-.28-.26-.28h-.82c-.18 0-.28.09-.28.27l-.01.82c0 .09-.04.14-.13.16-.12.04-.2 0-.27-.11a4.8 4.8 0 0 1-.33-2.25v-.02c0-.13-.06-.2-.2-.2l-1.36-.06c-.39-.01-.55.17-.49.55.1.59.05 1.15-.14 1.7-.07.19-.18.21-.33.07-.16-.16-.25-.52-.28-1.09v-.2c-.02-.14-.09-.22-.21-.25l-.48-.14c-.1-.02-.11-.07-.04-.14l1.38-1.3c.17-.15.16-.28-.04-.4l-1.08-.64c-.14-.08-.27-.06-.39.06l-.47.53c-.16.17-.16.35 0 .52l.03.03c.38.42.53.83.44 1.22a.21.21 0 0 1-.13.15c-.23.1-.36.41-.38.96-.01.4-.07.68-.16.82-.1.15-.23.18-.39.08a11.12 11.12 0 0 1-3.9-4.13 10.6 10.6 0 0 1-1.3-5.14c0-1.82.43-3.53 1.3-5.13a11.1 11.1 0 0 1 3.9-4.13c1.9-1.2 4.02-1.74 6.38-1.61a10.85 10.85 0 0 1 8.78 5.1 10.64 10.64 0 0 1 1.62 6.52c-.12 1.91-.71 3.65-1.77 5.23a11.73 11.73 0 0 1-4.18 3.76.82.82 0 0 1-.53.1c-.07-.02-.1-.06-.1-.12a24.58 24.58 0 0 1-.06-1.17h-.1c-.02-.01-.04 0-.05.03-.07.4-.1.79-.06 1.17.02.24-.09.4-.32.49l-.27.1c-.22.07-.35 0-.38-.23a4.88 4.88 0 0 1 .04-1.71.3.3 0 0 0-.02-.18 2.15 2.15 0 0 1-.13-.76 3.17 3.17 0 0 0-.06-.6c-.04-.15.02-.22.17-.21.5.02.9.23 1.17.63.04.05.1.06.15.02l.14-.1c.17-.12.16-.23-.03-.31l-1.25-.57a.45.45 0 0 1-.3-.43l-.01-1.66c0-.07-.04-.1-.12-.09l-.05.01c-.03.01-.05.03-.05.07L30.7 34c0 .08-.05.14-.13.17l-1.59.67c-.05.02-.07.05-.05.1Z" fill="#F7030B"/><path d="M40.64 18.9c.18.23.25.49.2.78a1 1 0 0 1-.4.69l-1.28.96c-.24.17-.5.24-.79.2a1.02 1.02 0 0 1-.7-.4l-.15-.2c-.17-.23-.24-.5-.2-.78a1 1 0 0 1 .41-.7l1.28-.95c.23-.18.5-.25.78-.2.3.03.53.17.7.4l.15.2Z" fill="#005CBC"/><path d="m39.54 19.13-1.35 1a.34.34 0 0 0-.07.47l.02.02c.11.15.33.19.48.07l1.34-.99a.34.34 0 0 0 .07-.47l-.01-.02a.35.35 0 0 0-.48-.08Z" fill="#F0F3FA"/><path d="M16.63 21.2c-.56-.18-.6-.1-.11.22l.88.57c.14.1.19.22.13.38a.39.39 0 0 1-.06.11c-.14.18-.31.21-.51.1l-2.5-1.53c-.22-.13-.25-.3-.1-.5l.04-.05c.23-.3.52-.37.87-.21.26.12.5.2.75.25.41.07.44 0 .1-.22l-.93-.59c-.17-.1-.2-.24-.1-.42l.07-.1c.1-.17.25-.2.42-.1l2.6 1.64c.1.07.14.15.11.26-.12.48-.4.64-.85.47-.26-.1-.53-.2-.81-.28Z" fill="#005CBC"/><path d="M25.58 19h.14c.16 0 .28.13.28.29v2.42c0 .16-.12.29-.27.29h-.15a.28.28 0 0 1-.27-.29V19.3c-.01-.16.11-.29.27-.29Zm4.07 2.08c0 .1.05.16.15.2.1.03.17 0 .23-.07.12-.15.26-.28.42-.38a.24.24 0 0 1 .25-.01c.09.04.13.1.14.2.03.61-.26.94-.88.98-.62.04-.97-.27-1.03-.92v-.03c-.1-.87 0-1.44.25-1.72.3-.33.65-.41 1.05-.25.4.16.6.45.61.86a.2.2 0 0 1-.12.2.23.23 0 0 1-.24-.01l-.5-.32a.21.21 0 0 0-.22 0 .19.19 0 0 0-.11.17v1.1Zm-5.6.23c.07-.03.1-.07.09-.14a.36.36 0 0 0-.13-.21 4.94 4.94 0 0 0-.53-.39c-.58-.36-.63-.77-.17-1.23.46-.46.94-.45 1.44.03.14.13.2.29.18.46-.03.22-.15.27-.38.17l-.51-.24c-.05-.02-.09-.01-.1.03l-.03.04c-.03.06-.02.12.04.16.27.18.53.38.78.6.3.25.35.55.16.9A.93.93 0 0 1 24 22c-.61 0-.94-.29-.98-.85 0-.09.03-.15.11-.2a.25.25 0 0 1 .24 0c.18.08.35.19.5.32.05.04.11.06.18.04Zm3.52-1.38c.07.38.12.38.15 0 .02-.2.02-.38.02-.56 0-.24.11-.36.35-.37h.06c.18 0 .28.09.28.27v2.48c0 .13-.07.21-.2.23-.43.08-.68-.14-.76-.67l-.03-.18c-.07-.38-.13-.38-.19 0-.03.21-.05.43-.05.64-.01.13-.08.2-.2.2h-.2c-.16.01-.23-.06-.23-.2l.03-2.56c0-.1.05-.16.15-.19.42-.1.7.2.82.9Zm5.3 1.46a.92.92 0 0 1-.63-.11c-.16-.1-.2-.23-.1-.4a.2.2 0 0 1 .16-.11l.43-.07c.25-.05.31-.19.19-.4a.17.17 0 0 0-.16-.1 1 1 0 0 1-.5-.12c-.2-.12-.2-.24 0-.35.16-.08.31-.11.47-.1.18.03.27-.05.27-.23v-.1c0-.2-.1-.3-.3-.3l-1.11.01c-.12 0-.19.07-.19.19v2.58c0 .14.07.21.22.21l1.18.01c.13 0 .2-.07.2-.2v-.3c0-.08-.05-.12-.14-.1Z" fill="#F0F3FA"/><path d="M40.98 22.8c.32-.12.63-.26.94-.43.19-.1.37-.1.55.02.11.07.13.22.06.43a.32.32 0 0 1-.19.2l-2.74 1.16c-.1.04-.2.02-.27-.06-.3-.3-.28-.6.05-.9l.83-.74c.25-.23.22-.28-.1-.14l-.9.43c-.24.12-.43.07-.59-.14-.07-.1-.05-.23.06-.4a.26.26 0 0 1 .12-.09c.82-.37 1.66-.75 2.52-1.12.3-.13.5-.1.62.08.2.32.12.6-.22.86-.33.24-.6.5-.81.75-.1.12-.07.15.07.1ZM16.37 24.01c.18-.08.17-.16-.01-.23l-2.59-1.02c-.25-.1-.32-.27-.19-.5l.06-.1c.1-.2.25-.26.46-.17l2.62 1.08c.27.11.35.3.23.57-.05.1-.14.19-.26.24a.15.15 0 0 0-.1.15 6.55 6.55 0 0 1-.29 1.72c-.05.16-.16.22-.32.18l-2.92-.72c-.23-.05-.3-.2-.22-.41l.04-.13c.09-.23.25-.3.48-.24l1.95.52c.25.07.42-.02.5-.26l.13-.39a.24.24 0 0 1 .13-.15l.3-.14Z" fill="#005CBC"/><path d="M30 26.2c0-.15-.01-.2-.17-.2h-.89c-.06 0-.11 0-.14-.06-.14-.27-.17-.32-.08-.62a.2.2 0 0 1 .17-.14l.3-.06c.23-.03.4-.07.5-.1.36-.14.64-.4.85-.75.05-.1.12-.16.23-.2.26-.09.53-.1.82-.02.2.05.41.37.41.53v6.25c0 .1-.05.17-.16.17h-1.53c-.09 0-.15-.04-.18-.12-.04-.11-.13-.25-.13-.42V26.2ZM21 26.2c0-.15-.01-.2-.17-.2h-.89c-.06 0-.11 0-.14-.06-.14-.27-.17-.32-.08-.62a.2.2 0 0 1 .17-.14l.3-.06c.23-.03.4-.07.5-.1.36-.14.64-.4.85-.75.05-.1.12-.16.23-.2.26-.09.53-.1.82-.02.2.05.41.37.41.53v6.25c0 .1-.05.17-.16.17h-1.53c-.09 0-.15-.04-.18-.12-.04-.11-.13-.25-.13-.42V26.2ZM26.03 28.47c-1.08.24-1.81.1-2.18-.43-.26-.37-.38-1.05-.34-2.04.02-.8.38-1.38 1.07-1.73a2.51 2.51 0 0 1 2.23-.02c.63.27.99.8 1.08 1.6.1.84.13 1.71.1 2.62-.06 1.44-.6 2.25-1.6 2.44-1.62.3-2.56-.15-2.82-1.36-.04-.2.05-.31.28-.32l.12-.01c.78-.06 1.24.06 1.37.36.08.18.22.26.42.23.19-.03.31-.13.37-.3.1-.29.13-.6.1-.9-.01-.12-.08-.16-.2-.14ZM35.23 28.56c0-.08-.05-.1-.14-.09-1.32.37-2.1.08-2.34-.87-.2-.83-.2-1.61.03-2.34.24-.76.82-1.17 1.74-1.25.92-.07 1.59.23 2.02.9.32.5.45 1.57.39 3.21l-.02.54c-.02 1.46-.64 2.24-1.86 2.33-1.39.1-2.18-.37-2.36-1.4-.03-.23.07-.35.32-.36h.08c.75-.04 1.18.08 1.3.37.1.3.3.36.57.17.25-.17.34-.58.27-1.21Z" fill="#F0F3FA"/><path d="M25.18 26.12c.01.67.26 1.21.55 1.2.3 0 .53-.54.52-1.21 0-.67-.25-1.21-.55-1.2-.3 0-.52.54-.52 1.21ZM34.23 26.12c0 .67.25 1.2.54 1.2.3 0 .52-.55.51-1.21-.01-.67-.25-1.2-.54-1.2-.3 0-.52.55-.51 1.21Z" fill="#F7030B"/><path d="M41.59 26.97c.51 0 .93-.42.93-.93a.93.93 0 0 0-.93-.93.93.93 0 0 0-.94.93c0 .51.42.93.94.93ZM14.9 27.66l.84.04c.2.02.32.12.34.32l.01.06c.04.3-.1.45-.4.44l-2.89-.1c-.18 0-.27-.1-.27-.27-.03-.66.02-1.13.13-1.4.2-.45.6-.63 1.23-.54.48.07.77.48.86 1.22v.1c.02.08.06.12.14.13Z" fill="#005CBC"/><path d="M13.32 27.6c-.1 0-.13-.05-.12-.14v-.1c.02-.26.16-.38.4-.36h.07c.25.02.37.16.34.42v.1c0 .09-.06.13-.15.12l-.54-.04Z" fill="#F0F3FA"/><path d="M43.22 28.64c.2.02.29.12.27.32l-.11.95a.93.93 0 0 1-.4.67c-.25.17-.52.24-.83.21l-1.3-.14c-.31-.04-.56-.16-.76-.38a.92.92 0 0 1-.25-.75l.1-.95c.03-.2.14-.28.34-.26l2.94.33ZM15.87 29.08l-3.03.36a.28.28 0 0 0-.25.31l.03.25c.02.15.16.26.32.24l3.02-.36a.28.28 0 0 0 .25-.31l-.03-.25a.28.28 0 0 0-.31-.24Z" fill="#005CBC"/><path d="m42.44 29.37-1.59-.2a.3.3 0 0 0-.33.26v.03a.3.3 0 0 0 .26.33l1.58.2a.3.3 0 0 0 .33-.26v-.03a.3.3 0 0 0-.25-.33Z" fill="#F0F3FA"/><path d="M13.8 32.35c.06.08.13.1.22.1 1.2-.14 1.87-.39 2-.75a.2.2 0 0 0-.02-.2.26.26 0 0 0-.2-.1c-.2-.01-.4-.04-.59-.09a.2.2 0 0 1-.13-.09.44.44 0 0 1 .01-.5.22.22 0 0 1 .14-.1c.88-.22 1.38.14 1.53 1.07.1.7-.67 1.22-2.32 1.55-.69.14-1.14-.1-1.36-.74-.23-.63-.02-1.12.61-1.45a.3.3 0 0 1 .32 0c.13.08.2.2.22.34a.38.38 0 0 1-.16.36c-.3.23-.39.43-.26.6ZM40.04 32l-.3.69c-.05.13-.16.19-.3.16-.51-.08-.45-.7.2-1.82.04-.08.1-.1.2-.07l2.94.98c.16.06.21.16.16.32l-.45 1.28c-.06.17-.18.24-.36.22a.47.47 0 0 1-.17-.04c-.12-.06-.16-.15-.12-.28l.17-.66c.05-.2-.03-.33-.24-.4-.16-.05-.29 0-.36.15l-.31.6c-.07.15-.17.18-.31.11l-.05-.02c-.18-.09-.23-.22-.18-.4l.16-.5c.04-.12 0-.22-.11-.3a.97.97 0 0 0-.4-.12c-.08 0-.14.03-.17.1Z" fill="#005CBC"/><path d="m25.13 32.71.6-.6c.07-.08.15-.1.25-.04l1.18.67c.16.1.17.2.04.34l-1.12 1.08c-.13.13-.24.12-.33-.04l-.65-1.16c-.05-.09-.04-.17.03-.25Z" fill="#F0F3FA"/><path d="M14.94 35.2c.08.08.17.1.28.04.2-.1.31-.38.33-.83.02-.48.14-.81.35-.98.6-.47 1.1-.48 1.51-.05.57.61.56 1.16-.05 1.63-.1.08-.22.1-.35.06-.25-.09-.31-.25-.18-.48l.2-.37a.24.24 0 0 0 .02-.2c-.05-.14-.17-.2-.37-.18-.15.02-.24.11-.26.27l-.12.93c-.05.32-.24.6-.56.82-.35.24-.67.27-.95.07-.5-.34-.69-.8-.55-1.38.05-.23.19-.37.41-.44a.36.36 0 0 1 .17 0c.2.03.28.15.25.34-.02.2-.08.38-.17.57-.03.07-.02.13.04.18ZM41.72 34.75c.14.08.17.2.09.33l-.52.84a.96.96 0 0 1-.64.45c-.27.07-.53.02-.78-.13l-1.27-.76a1 1 0 0 1-.48-.63.95.95 0 0 1 .11-.77l.52-.84c.08-.14.2-.17.34-.08l2.63 1.59Z" fill="#005CBC"/><path d="m40.68 35.04-1.4-.84a.3.3 0 0 0-.42.1l-.01.01a.3.3 0 0 0 .1.42l1.4.84a.3.3 0 0 0 .42-.1v-.01a.3.3 0 0 0-.1-.42Z" fill="#F0F3FA"/><path d="m18.1 35.08-2.4 1.86a.3.3 0 0 0-.06.4l.13.17c.1.13.3.16.42.06l2.4-1.86a.3.3 0 0 0 .05-.42l-.13-.16a.3.3 0 0 0-.42-.05ZM39.97 37.41l-2.34-1.96a.3.3 0 0 0-.4.04l-.16.18c-.1.12-.1.3.03.4l2.34 1.96c.12.1.3.09.41-.03l.15-.18c.1-.12.1-.3-.03-.4Z" fill="#005CBC"/><path d="M32.27 36.3c-.16.01-.33.01-.5-.01-.1-.02-.12-.06-.04-.13.17-.15.31-.32.42-.53.05-.1.1-.1.11.01.05.26.25.47.6.64l.16.09c.1.05.09.07-.02.06-.2-.03-.38-.07-.56-.12a.43.43 0 0 0-.17-.01Z" fill="#F0F3FA"/><path d="M18.38 39.88c-.1.1-.2.1-.3.01l-.75-.7a.94.94 0 0 1-.3-.7c-.01-.29.09-.54.29-.75l1-1.06c.2-.21.44-.33.73-.34.28-.02.53.06.73.25l.76.7c.1.1.1.2 0 .3l-2.16 2.3ZM36.12 37.46a.77.77 0 0 0 .07.6c.16.34.07.55-.28.63a.3.3 0 0 1-.32-.1c-.63-.78-.44-1.42.56-1.92.28-.15.57-.1.85.13.8.66 1.34 1.29 1.6 1.9.19.43-.03.84-.67 1.24-.38.24-.77.23-1.18-.04-.22-.15-.27-.34-.15-.59.1-.18.24-.23.43-.16l.41.16c.27.1.39 0 .37-.27-.03-.39-.5-.94-1.4-1.67-.13-.1-.23-.08-.29.09Z" fill="#005CBC"/><path d="m19.43 37.15-.02-.01a.3.3 0 0 0-.41.01l-1.14 1.23a.3.3 0 0 0 .01.41l.02.02c.12.1.3.1.42-.02l1.14-1.23a.3.3 0 0 0-.02-.41Z" fill="#F0F3FA"/><path d="M34.15 38.94c.02-.15.02-.31-.02-.48-.05-.23.03-.37.26-.44l.07-.02c.2-.06.32.01.38.2l.83 2.7c.12.39-.02.66-.43.8-.24.1-.45.04-.62-.16l-1.73-2.05a1 1 0 0 1-.18-.31.23.23 0 0 1 .02-.21c.16-.25.42-.25.79.01.1.08.19.13.24.15.21.1.34.03.39-.2ZM33.1 41.82h.37c.13.01.22.07.27.2.07.2 0 .34-.2.42-.5.2-1.04.37-1.6.5-.1.03-.19 0-.27-.07-.12-.13-.15-.25-.07-.38a.7.7 0 0 1 .26-.22c.1-.05.17-.1.21-.16a.2.2 0 0 0 .05-.21l-.73-2.1c-.1-.3 0-.5.32-.55l.05-.01c.21-.04.35.04.41.24l.71 2.18c.04.1.1.16.22.16ZM21.66 41.24c.52 0 .93-.4.93-.92a.93.93 0 0 0-.93-.92.93.93 0 0 0-.93.92c0 .51.42.92.93.92ZM25.22 41.02c.04.27.09.27.13 0 .06-.36.14-.7.25-1.03.08-.24.24-.33.49-.27.11.02.18.16.21.4v.1L25.66 43c-.05.21-.18.3-.4.28-.33-.04-.5-.23-.52-.57a9.2 9.2 0 0 0-.11-1.17c0-.03-.02-.04-.04-.04h-.02a.06.06 0 0 0-.03.05c-.1.84-.33 1.3-.67 1.35a.31.31 0 0 1-.3-.1.3.3 0 0 1-.08-.3l.66-2.81c.06-.25.21-.35.46-.3.3.06.46.24.48.55.02.38.07.74.13 1.08Z" fill="#005CBC"/><path d="M34.36 40.16c.16.26.36.42.44.37.09-.05.02-.3-.14-.56-.16-.25-.36-.42-.45-.37-.08.06-.02.3.15.56Z" fill="#F0F3FA"/><path d="m30.11 39.67-.23.03a.3.3 0 0 0-.25.34l.47 3a.3.3 0 0 0 .33.25l.24-.03a.3.3 0 0 0 .24-.34l-.46-3a.3.3 0 0 0-.34-.25ZM29.11 42.44c0 .3-.12.57-.34.78-.22.21-.49.31-.8.3h-.17c-.3 0-.57-.12-.78-.34a1.06 1.06 0 0 1-.31-.79l.03-1.5c0-.3.12-.56.34-.77.22-.21.49-.32.8-.31h.17c.31 0 .57.12.79.34.2.22.31.49.3.8l-.03 1.5Z" fill="#005CBC"/><path d="M27.97 40.46h-.04a.38.38 0 0 0-.39.38l-.03 1.6c0 .2.17.38.38.38h.04c.2 0 .38-.16.39-.37l.03-1.6a.38.38 0 0 0-.38-.39Z" fill="#F0F3FA"/></svg>