<svg width="56" height="56" viewBox="0 0 56 56" xmlns="http://www.w3.org/2000/svg"><path fill="#F0F3FA" d="M0 0h56v56H0z"/><path fill-rule="evenodd" d="M44 17H12v21h32V17Zm-28.12 3-1.9 15h8.34a6.07 6.07 0 0 0 5.12-2.51l1.04-6.73c.59-4.5-3.5-5.72-5.62-5.76h-6.98Zm4.4 3-1.43 9h1.85c2.85 0 3.32-1.94 3.76-5.54.34-2.88-1.59-3.5-2.6-3.46h-1.59Zm7.15 12 2.1-15h7.84c3.27 0 4.1 2.86 4.1 4.3 0 3.99-3.32 4.67-4.98 4.7h-3.42L32 35h-4.57Zm6.35-12-.43 3h.97c1.06 0 2.68-.33 2.68-1.7 0-1.1-.88-1.33-1.4-1.3h-1.82Zm-.93 8h1.41v.17h-.22a.27.27 0 0 0-.27.27v2.2l1.09-2.04v-.16a.27.27 0 0 0-.27-.27h-.08V31h1.31v.17h-.17a.27.27 0 0 0-.26.27v2.2l1.08-2.06c.1-.19-.03-.41-.23-.41h-.08V31h1.02v.17h-.23L34.98 35h-.2v-2.76L33.36 35h-.18v-3.56a.27.27 0 0 0-.27-.27h-.06V31Zm5.2.38c0 .21-.14.39-.3.39-.17 0-.3-.18-.3-.39 0-.2.13-.38.3-.38.16 0 .3.17.3.38Zm-1.23 2-.16-.08c.09-.27.37-.8.86-.8.62 0 .22 1.04.12 1.27-.1.23-.31.83-.12.83.16 0 .35-.3.42-.46l.1.08c-.08.26-.36.78-.79.78-.43 0-.43-.42-.38-.63.1-.3.3-.95.38-1.14.1-.25.04-.36-.05-.36-.07 0-.13.07-.16.1l-.22.4Zm1.62.05-.17-.07c.1-.28.38-.86.72-.86.35 0 .34.45.3.68.1-.23.36-.68.63-.68.33 0 .4.24.4.36s-.1.41-.29.41c-.09 0-.14-.06-.18-.13-.04-.06-.09-.12-.17-.12-.13 0-.27.3-.32.46L38.93 35h-.59l.44-1.6c.07-.27.13-.52-.05-.52-.14 0-.25.37-.29.55Zm3.7-.44c0 .58-.83.91-1.24 1-.09.28-.1.7.26.7.29 0 .56-.35.65-.52l.16.07c-.1.25-.42.76-.98.76-.57 0-.7-.5-.7-.76 0-.91.66-1.74 1.23-1.74.46 0 .6.33.61.5Zm-.99.07c-.13.23-.18.57-.2.72.15-.09.48-.3.63-.49.19-.23.19-.46.04-.5-.15-.05-.3 0-.47.27Z" fill="#2A166F"/><path d="M39.51 41v-3.1l.3 1.6h4.69v-23h-33v23h4.73l.29-1.6V41l-.29-1H11V16h34v24h-5.19l-.3 1Z" fill="gray"/><path opacity=".5" fill="#2A166F" d="M18 39h20v1H18z"/></svg>