<svg width="56" height="56" viewBox="0 0 56 56" xmlns="http://www.w3.org/2000/svg"><path fill="#181B1E" d="M0 0h56v56H0z"/><path d="M40.29 13H15.7A2.74 2.74 0 0 0 13 15.71V40.3A2.74 2.74 0 0 0 15.71 43H40.3A2.74 2.74 0 0 0 43 40.29V15.7A2.74 2.74 0 0 0 40.29 13Zm-7.52 23C29 36 29 32.01 29 32.01 29 30.5 30 23 30 23h-4.03c.02 4.07-.47 7.29-1.51 11.22-.54 2.01-2.2 1.78-2.2 1.78-.76 0-1.73-.64-1.76-1.6.12-1.4 1.1-2.33 1.78-3.51 1.94-2.91 2.2-7.9 2.2-7.9h-1.56C20.81 23 19.57 25 19.57 25H19c.26-1.13.73-2.32 1.37-3.28 1.1-1.62 4.73-1.74 4.73-1.74H37V23h-4.5l-.48 6.7-.02.56C32 33 33.97 33 33.97 33c1.88 0 2.03-2 2.03-2h.6c-.59 4.8-3.83 5-3.83 5" fill="#fff"/></svg>