<svg width="56" height="56" viewBox="0 0 56 56" xmlns="http://www.w3.org/2000/svg"><path fill="#F0F3FA" d="M0 0h56v56H0z"/><circle cx="37.5" cy="28.5" r="2.5" fill="url(#a0h4xopjq)"/><path d="M23 31v-5h.68v.84h.06c.19-.53.63-.84 1.22-.84.6 0 1 .3 1.23.84h.05c.23-.52.71-.84 1.37-.84.97 0 1.39.82 1.39 1.7V31h-.7v-3.3c0-.57-.33-1.02-.93-1.02-.63 0-1.01.5-1.01 1.1V31h-.72v-3.38c0-.52-.37-.94-.9-.94-.54 0-1.04.5-1.04 1.24V31H23ZM19.7 31c-.88 0-1.7-.53-1.7-1.48 0-1.08 1.07-1.31 1.94-1.42.61-.08.99-.1 1.16-.2.09-.04.13-.12.13-.24v-.03c0-.61-.34-.98-1.05-.98-.54 0-1.07.23-1.3.73l-.74-.25c.36-.8 1.18-1.13 2.01-1.13 1.02 0 1.85.61 1.85 1.7V31h-.77v-.77h-.04c-.27.55-.91.77-1.48.77Zm.12-.67c.7 0 1.41-.43 1.41-1.19v-.68c-.24.28-1 .24-1.33.28-.48.06-1.13.21-1.13.82 0 .57.56.77 1.05.77ZM15.12 31c-1.4 0-2.12-1.2-2.12-2.48 0-1.23.68-2.52 2.05-2.52C16.4 26 17 27.21 17 28.42v.31h-3.5v-.64h2.79c0-.73-.46-1.42-1.24-1.42-.83 0-1.35.76-1.35 1.53v.43c0 .88.46 1.7 1.42 1.7.51 0 .96-.25 1.13-.75l.68.2c-.24.8-1.01 1.22-1.81 1.22ZM10 31v-5h.6v.82h.04c.13-.46.54-.82 1.04-.82l.32.01v.77a1.54 1.54 0 0 0-.38-.05c-.63 0-1 .57-1 1.15V31H10ZM5.97 31H4v-7h2.05C8.04 24 9 25.66 9 27.49 9 29.37 8 31 5.97 31Zm-1.2-.75h1.15c1.61 0 2.33-1.28 2.33-2.76 0-1.43-.67-2.74-2.25-2.74H4.77v5.5ZM51.9 27.24l-.86.16a1 1 0 0 0-.18-.32.85.85 0 0 0-.31-.24c-.13-.06-.3-.1-.5-.1-.27 0-.5.07-.68.19-.18.11-.27.27-.27.45 0 .16.06.3.18.4.13.1.32.17.6.24l.77.17c.46.1.8.26 1.02.48.22.21.33.5.33.83 0 .3-.09.55-.26.78-.16.22-.4.4-.7.53-.3.13-.65.19-1.05.19-.55 0-1-.12-1.35-.35a1.46 1.46 0 0 1-.64-.99l.93-.14c.05.24.17.42.35.54.18.12.41.18.7.18.32 0 .57-.06.76-.2.18-.12.28-.28.28-.47a.5.5 0 0 0-.18-.38c-.1-.1-.28-.18-.52-.23l-.83-.18c-.46-.1-.8-.27-1.02-.5-.22-.22-.33-.5-.33-.85 0-.28.09-.53.25-.75.16-.21.38-.38.67-.5.29-.12.61-.18.98-.18.53 0 .95.11 1.26.34.3.23.5.53.6.9ZM44 29.25V28l.22-.03L46.16 26h1.34l-2.27 2.28h-.17l-1.05.97ZM43 31v-7h1.03v7H43Zm3.63 0-2.06-2.5.77-.7L48 31h-1.37ZM42 24v7h-1v-7h1ZM30 31v-7h4v1h-3v2h2.71v1H31v3h-1Z"/><defs><linearGradient id="a0h4xopjq" x1="37.5" y1="26" x2="37.5" y2="31" gradientUnits="userSpaceOnUse"><stop stop-color="#F4AF18"/><stop offset="1" stop-color="#EA7725"/></linearGradient></defs></svg>