<svg width="56" height="56" viewBox="0 0 56 56" xmlns="http://www.w3.org/2000/svg"><path fill="#F0F3FA" d="M0 0h56v56H0z"/><path fill-rule="evenodd" d="M38.5 18.67a1.06 1.06 0 0 1-.16-.12c-.26-.24-.51-.47-.77-.68l-5.84-4.8c-.46-.39-.94-.76-1.42-1.12a4.38 4.38 0 0 0-1.66-.86 5.24 5.24 0 0 0-1.62-.05c-.65.08-1.16.27-1.53.58a938.37 938.37 0 0 0-15.44 13.32c-.49.43-.85.76-1.07 1-.38.42-.64.82-.78 1.22-.23.62-.27 1.2-.12 1.73.1.34.3.64.6.9 5.4 4.81 10.69 9.38 15.86 13.71.95.8 1.88 1.28 2.78 1.44 1.07.2 2.05-.07 2.95-.8 5.8-4.65 11.18-9.19 16.14-13.6a4.88 4.88 0 0 0 1.46-1.8c.21-.7.14-1.35-.21-1.95a7.66 7.66 0 0 0-1.73-2.06 1233.93 1233.93 0 0 0-7.43-6.06Zm-6.54-4.1-1.7-1.38c-1.26-1.3-2.64-1.56-4.16-.79-.27.14-.64.44-1.1.9-.22.22-.38.38-.5.48-3.03 2.63-6.05 5.28-9.07 7.93a225.16 225.16 0 0 0-4.64 4.2c-.41.38-.78.8-1.12 1.28-.34.78-.16 1.6.56 2.47l.72.73.74.7c3.25 2.78 6.55 5.58 9.9 8.38 1.67 1.39 3.36 2.72 5.1 4 .7.53 1.42.6 2.15.24.72-.36 1.41-.81 2.06-1.36l5.01-4.18c3.45-2.88 6.56-5.53 9.33-7.94.26-.22.6-.59 1.03-1.1.5-.74.57-1.45.2-2.13a3.8 3.8 0 0 0-.72-.83l-.34-.33-1.62-1.45c-.22-.12-.4-.28-.55-.5l-11.28-9.31Z" fill="#202161"/><path d="M35.23 19.8c-.17.43-.43.76-.78.97-.36.22-.72.28-1.1.19a1.5 1.5 0 0 1-.9-.68 2.15 2.15 0 0 1-.34-1.23c0-.5.14-.93.41-1.31.28-.38.61-.62 1.01-.7.26-.06.5-.05.75.04 1.02.36 1.31 1.81.95 2.72ZM19.64 23.07a88.4 88.4 0 0 1-.21 6.67.1.1 0 0 1-.05.08.1.1 0 0 1-.08.02l-.08-.01c-.13-.03-.2-.1-.2-.24-.02-2.06-.03-4-.01-5.81v-.02c0-.49.04-.83.12-1.02.13-.33.39-.53.79-.59 1.48-.23 3-.2 4.58.09.16.03.25.12.28.28.07.34.1.68.13 1.02.13 2.4.12 4.57-.04 6.54-.08 1.09-.7 1.69-1.87 1.8-.8.09-1.42.13-1.85.12a4.43 4.43 0 0 1-1.77-.33.12.12 0 0 1-.07-.11c0-.05.02-.1.06-.12.45-.25.92-.4 1.43-.42.86-.05 1.8-.14 2.78-.28a.8.8 0 0 0 .5-.28c.14-.16.21-.34.21-.55l.03-6.86c0-.12-.06-.19-.18-.19h-4.3c-.13 0-.2.07-.2.2ZM32.7 23.08c-.08 2.02-.08 4.33-.02 6.93.01.43.16.73.44.88.17.09.49.15.95.17.32.02.56.05.7.08.26.06.45.16.6.31.17.18.14.3-.1.38-.71.21-1.45.23-2.2.04-.61-.16-.93-.64-.97-1.44-.1-2.08-.12-4.44-.08-7.07 0-.29.06-.56.16-.8.14-.36.56-.54 1.25-.56a4.49 4.49 0 0 1 1.4.2c.3.1.3.22.03.38-.18.09-.43.16-.74.2a10.14 10.14 0 0 1-1.23.08c-.12.01-.19.09-.2.22ZM30.85 24.28c.07-.56.04-.95-.1-1.17-.13-.24-.44-.38-.92-.42-.96-.07-1.93-.03-2.92.11a.39.39 0 0 0-.22.12.47.47 0 0 0-.13.24c-.07.39-.12.77-.14 1.15-.07 1.64-.06 3.37.04 5.19.05.96.48 1.46 1.29 1.5.94.04 1.84.1 2.7.2.22.02.4.13.53.32.05.09.04.15-.04.19-.25.13-.51.2-.8.23-1.13.1-2.09.07-2.89-.09-.43-.08-.75-.36-.96-.84a3.7 3.7 0 0 1-.27-1.44c-.04-2.53-.02-4.86.07-6.98a.5.5 0 0 1 .12-.31.39.39 0 0 1 .26-.15c.87-.11 1.9-.15 3.06-.12.76.02 1.27.19 1.51.48.28.34.33.94.14 1.8a.16.16 0 0 1-.08.12.13.13 0 0 1-.13 0l-.07-.03c-.04-.02-.05-.05-.05-.1Z" fill="#202161"/><path d="M43.24 23.9c.28.02.46.2.55.5-.22-.13-.4-.3-.55-.5ZM45.41 25.84c.41.28.8.6 1.14.99.18.2.27.44.28.72.02.5-.01.87-.1 1.1a.9.9 0 0 1-.46.48c.5-.74.57-1.45.2-2.13a3.8 3.8 0 0 0-.72-.83l-.34-.33ZM9.67 27.19c-.34.78-.16 1.6.56 2.47a2.05 2.05 0 0 1-.98-1.54c-.06-.44.08-.75.42-.93Z" fill="#696868"/><path d="m33.97 32.46.13.02c.39.06.67.13.85.2.31.13.5.33.59.59a.37.37 0 0 1-.25.46c-1.6.45-2.65-.13-3.16-1.74a.82.82 0 0 1-.01-.46c.02-.06.06-.1.12-.12.07-.01.12.01.17.07.41.56.93.89 1.56.98ZM31.22 33.09c.17.37.04.59-.38.64-1.04.14-2.1.16-3.15.06a2.12 2.12 0 0 1-1.25-.59c-.34-.31-.6-.7-.76-1.14-.16-.45-.06-.53.32-.24.58.43 1.29.66 2.12.67.93.02 1.84.12 2.72.3.18.03.3.13.38.3ZM18.95 33.28c-.06-.16-.01-.28.15-.35.3-.15.74-.25 1.32-.33a22.23 22.23 0 0 1 1.73-.13 4.82 4.82 0 0 0 2.3-.7c.18-.1.23-.06.17.14-.14.43-.35.8-.6 1.1-.32.36-.67.58-1.08.65-1.27.22-2.37.28-3.3.2-.33-.04-.56-.23-.69-.58Z" fill="#202161"/><path d="M34.88 36.67a2.75 2.75 0 0 1-1.4-.29 1.28 1.28 0 0 1-.48-.36 4.48 4.48 0 0 1-.9-2.14c-.04-.5.1-.56.43-.2.6.64 1.39 1 2.38 1.08.08.01.16.03.23.08.53.3.5 1.76-.26 1.83ZM19.16 36.06l-.04-1c.16-.41.45-.62.87-.63.96 0 1.91-.02 2.86-.05a2.22 2.22 0 0 0 1.5-.64.17.17 0 0 1 .2-.03c.11.05.16.12.13.2-.5 1.63-1.28 2.5-2.31 2.6-.96.1-1.94.1-2.93-.04a.25.25 0 0 1-.2-.14.88.88 0 0 1-.08-.27ZM30.95 36.26a.5.5 0 0 1-.38.24 13 13 0 0 1-2.9 0c-.53-.06-1-.4-1.43-1.02a6.3 6.3 0 0 1-.78-1.68c-.02-.06 0-.1.06-.1.15-.04.28 0 .4.09.5.4 1.02.6 1.58.64l2.7.16c.35.02.63.13.85.34.07.06.1.13.11.21.05.46-.02.83-.2 1.12Z" fill="#202161"/><path d="m19.12 35.05.04 1c-.26-.27-.27-.6-.04-1Z" fill="#696868"/></svg>