<svg width="56" height="56" viewBox="0 0 56 56" xmlns="http://www.w3.org/2000/svg"><path fill="#F0F3FA" d="M0 0h56v56H0z"/><path d="M27.5 13.5 25 12l-1.73 3L23 35.5l2.37 1.5 2.13-23.5Z" fill="#79232C"/><path d="m25 12-2.85.36L20.5 32.5l2.5 3L25 12Z" fill="#DB2845"/><path d="m27.33 17.94-1.2-1.99c.19-.38 4.86-1.49 6.03-1.44 1.16.06 6.33 6.02 4.32 4.7a11.1 11.1 0 0 0-6.13-1.86c-1.57 0-2.74.4-3.02.6Z" fill="#AD1F3A"/><path d="m16.32 21.43 1.28-2.48c-2.37 1.7-4.66 5.5-4.66 11.74C12.94 39.6 21.2 44 26.93 44 32.97 44 44 39.03 44 26.94c0-12.46-11.07-13.29-13.14-13.29-1.65 0-2.67.24-2.97.36 0 .62 1.13.04 1.13 1.08 4.9-1.3 11.62 4.13 11.62 11.85s-7.61 13.94-14.12 13.94c-6.5 0-11.73-5.93-11.73-10.83 0-3.92.46-7.37 1.53-8.62Z" fill="#AD213B"/><path d="M18.11 30c0-3.46 1.82-7.14 2.89-8.5l-2.7-2.01-2.66 2.87c-.54.6-2.13 7.24-1.96 11.24.13 3.2 6.1 6.13 9.05 7.19 2.89-.14 7.53-.22 3.05-.79-5.6-.72-7.67-5.67-7.67-10Z" fill="#AE213B"/><path d="m18.5 20 .5-4.05c-2.36 1.7-7 6.64-7 12.9C12 38.5 19.02 43 24.75 43S42 38.2 42 25.74c0-12.47-10.84-13.3-12.91-13.3-1.66 0-2.79.25-3.09.37v3.14c4.9-1.3 13 2.07 13 9.79C39 33.46 32.05 40 25.54 40 19.04 40 15 34.5 15 28.84c0-3.92 2.43-7.59 3.5-8.84Z" fill="url(#a45amklk5)"/><path d="M21.42 17.48 19 16l-.5 4 2.5 1.5.42-4.02Z" fill="#7B212E"/><defs><linearGradient id="a45amklk5" x1="27.11" y1="12.45" x2="27.11" y2="42.46" gradientUnits="userSpaceOnUse"><stop stop-color="#E31B4A"/><stop offset="1" stop-color="#EB641E"/></linearGradient></defs></svg>