<svg width="56" height="56" viewBox="0 0 56 56" xmlns="http://www.w3.org/2000/svg"><path fill="#F0F3FA" d="M0 0h56v56H0z"/><path d="M32.24 33.62c-.18.47-.28.45-.3-.05-.17-2.9-.4-5.37-.7-7.4-.05-.38-.09-.75-.11-1.14-.02-.34 0-.72.07-1.13.44-2.76-.22-5.35-1.98-7.75a16.78 16.78 0 0 0-6.43-5.11c-.16-.08-.22-.03-.18.15.39 1.56.84 3.47 1.35 5.75a22.8 22.8 0 0 0 3.27 7.4c.22.33.9.75 2.04 1.23a.5.5 0 0 1 .27.27 7 7 0 0 1 .48 1.57c.55 3.04.8 6.33.76 9.86 0 .3-.07.32-.2.05-.33-.63-.69-1.25-1.09-1.85a5.94 5.94 0 0 1-.72-1.99c-1.21-5.61-3.21-8.65-6-9.1-1.13-.2-2.46.19-3.98 1.13a15.9 15.9 0 0 0-3.34 2.81c-1.1 1.2-2.1 2.4-3 3.6-.67.89-.59.97.24.24l3.02-2.63c2.8-2.35 5.65-2.5 8.52-.44 1.77 1.27 3 3 3.68 5.17.33 1.03.52 1.9.58 2.6.05.6.24 1.2.57 1.78.45.8.74 1.6.87 2.44.16.96.07 1.8-.25 2.54-.12.25-.04.38.24.38h.28c.42 0 .7-.2.85-.6.37-.96 1.13-2.75 2.3-5.35 1.46-3.23 1.96-6.18 1.51-8.83-.27-1.63-.5-2.93-.7-3.9 0-.05-.04-.07-.1-.07-.08 0-.12.03-.12.12-.1 2.7-.67 5.44-1.7 8.25Zm3.63-1.35c-.17 1.88-.73 3.9-1.67 6.06a.37.37 0 0 0-.02.24c.02.05.04.06.09.03 3.85-2.69 5.35-6.41 4.5-11.18-.59-3.28-2.3-7.3-5.13-12.04-.25-.42-.36-.38-.3.11.16 1.7.6 4.37 1.35 8l.53 2.67c.54 2.94.76 4.98.65 6.11Zm-10.68-9.7c.12.24.06.3-.18.2a9.85 9.85 0 0 1-5.1-5.2c-.26-.59-.06-.9.6-.92l1.62-.08c.56-.03.92.26 1.06.85a24.1 24.1 0 0 0 2 5.15Zm1.93 13.29c.27.3.37.26.27-.14a11.86 11.86 0 0 0-1.56-3.77 7.63 7.63 0 0 0-2.93-2.65 5.48 5.48 0 0 0-5.2-.04c-1.03.5-2.46 1.64-4.28 3.38l-.07.07c-.43.41-.38.5.16.23a26.1 26.1 0 0 1 3.85-1.5c3.3-.99 6.03-.17 8.17 2.46l1.59 1.96Z" fill="#0AB04A"/></svg>