<svg width="56" height="56" viewBox="0 0 56 56" xmlns="http://www.w3.org/2000/svg"><path fill="#F0F3FA" d="M0 0h56v56H0z"/><ellipse cx="27.5" cy="30" rx="16.5" ry="12" fill="url(#aib3gbe1u)"/><path d="M45.5 22h2.34v7h-2.36l-1.66-2.5V29H41v-7h2.86l1.64 2.59V22Z" fill="#F0F3FA"/><path d="M45.83 22.34H48v6.32h-2.35c-.72-1.1-1.43-2.13-2.16-3.3v3.3h-2.16v-6.32h2.35c.74 1.13 1.43 2.24 2.15 3.43v-3.43Z" fill="#204DDF"/><path d="M36.5 22c1.9 0 3.5 1.34 3.5 3.5 0 2.15-1.6 3.5-3.5 3.5S33 27.65 33 25.5c0-2.16 1.6-3.5 3.5-3.5Zm.67 2.63a.76.76 0 0 0-.67-.33.76.76 0 0 0-.67.32c-.14.21-.23.51-.23.88 0 .35.09.66.23.87.14.2.35.33.67.33.33 0 .53-.13.67-.33s.23-.51.23-.87-.09-.67-.23-.87Z" fill="#F0F3FA"/><path d="M36.5 28.67a3.06 3.06 0 0 1-3.19-3.17 3.06 3.06 0 0 1 3.19-3.17 3.06 3.06 0 0 1 3.19 3.17 3.07 3.07 0 0 1-3.19 3.17Zm0-1.64c.84 0 1.2-.72 1.2-1.53 0-.82-.37-1.53-1.2-1.53-.84 0-1.2.7-1.2 1.53 0 .8.36 1.53 1.2 1.53Z" fill="#204DDF"/><path d="m31.88 24.78-2.76.38-.09-.28c-.13-.44-.52-.58-.96-.58-.76 0-1.08.47-1.08 1.18 0 .68.38 1.22 1.11 1.22.55 0 .99-.35 1.1-.74l.08-.28 2.72.44-.13.37C31.31 28.17 29.58 29 28 29 25.96 29 24 27.74 24 25.48c0-1.16.51-2.04 1.3-2.63.77-.57 1.79-.85 2.82-.85 1.64 0 3.14.72 3.65 2.4l.1.38Z" fill="#F0F3FA"/><path d="M28 28.67c-1.92 0-3.66-1.17-3.66-3.19 0-2.1 1.83-3.15 3.78-3.15 1.54 0 2.87.67 3.32 2.17l-2.08.29c-.17-.55-.6-.83-1.29-.83-.94 0-1.41.51-1.41 1.52 0 .9.5 1.56 1.44 1.56.69 0 1.27-.44 1.42-.98l2.03.33c-.5 1.5-2.07 2.28-3.56 2.28Z" fill="#204DDF"/><path d="M16 22h2.85v4.19c0 .4.33.47.65.47s.65-.07.65-.47V22H23v4.24c0 1.99-1.87 2.76-3.5 2.76-1.62 0-3.5-.77-3.5-2.76V22Z" fill="#F0F3FA"/><path d="M19.5 28.66c-1.48 0-3.18-.6-3.18-2.42v-3.9h2.2v3.85c0 .54.33.8.98.8.65 0 .97-.26.97-.8v-3.85h2.2v3.9c0 1.83-1.69 2.42-3.17 2.42Z" fill="#204DDF"/><path d="M8.16 22h3.11c2.14 0 3.73 1.17 3.73 3.5 0 1.12-.3 2.01-.97 2.62-.65.6-1.6.88-2.79.88H8.16v-7Zm2.97 4.82c.65 0 .87-.43.87-1.32 0-.9-.39-1.15-.87-1.15h-.52v2.47h.52Z" fill="#F0F3FA"/><path d="M8 22.34h3.27c2.26 0 3.4 1.06 3.4 3.16s-1.15 3.16-3.43 3.16H8v-6.32ZM10.2 27h.93c.93 0 1.26-.6 1.26-1.49 0-.9-.33-1.49-1.26-1.49h-.93V27Z" fill="#204DDF"/><defs><linearGradient id="aib3gbe1u" x1="44" y1="30" x2="11" y2="30" gradientUnits="userSpaceOnUse"><stop offset=".42" stop-color="#A8FCFE"/><stop offset=".79" stop-color="#131514"/></linearGradient></defs></svg>