<svg width="56" height="56" viewBox="0 0 56 56" xmlns="http://www.w3.org/2000/svg"><path fill="#F0F3FA" d="M0 0h56v56H0z"/><path fill-rule="evenodd" d="M39.03 29.37c.16 3.72-.96 6.8-3.35 9.26a10.69 10.69 0 0 1-5.88 2.97c-2.72.5-5.11.3-7.18-.61a10.84 10.84 0 0 1-5.07-4.9c-1.39-2.48-1.68-5.35-.87-8.6.7-2.82 2.08-5.47 4.14-7.94.17-.22.17-.43-.03-.62l-.26-.26c-.32-.33-.65-.33-.97-.01a19.1 19.1 0 0 0-3.75 5.26c-.96 2-1.54 4.03-1.74 6.1-.2 2.19.04 4.24.72 6.17a13.12 13.12 0 0 0 8.55 8.21c1.78.54 3.63.72 5.56.52a15.27 15.27 0 0 0 9.86-5.03 12.8 12.8 0 0 0 2.84-5.48c.46-1.89.52-3.88.2-5.99a21.65 21.65 0 0 0-5.35-10.85 169.11 169.11 0 0 1-7.31-8.5c-.07-.08-.16-.1-.24-.02l-.2.13c-.02.02-.03.05 0 .08 3.41 4.58 5.81 8.03 7.2 10.36a20.75 20.75 0 0 1 3.13 9.75Zm-19.19-1.8c1.71-3.84 4.2-8.32 7.44-13.46a.22.22 0 0 1 .2-.11c.09 0 .16.04.2.11 2.7 4 5.14 8.34 7.32 13 .61 1.28.94 2.56 1 3.82a7.41 7.41 0 0 1-.65 3.43 7.1 7.1 0 0 1-2.14 2.7 9.17 9.17 0 0 1-3.53 1.66c-1.62.4-3.21.37-4.77-.06a8.3 8.3 0 0 1-3.82-2.25 7.26 7.26 0 0 1-1.98-3.88 8.52 8.52 0 0 1 .73-4.97Zm1.93-.04c.83-2.11 2.49-5.16 4.97-9.15.34-.55.5-.5.46.14-.2 3.58-.44 7.1-.71 10.55-.08.95-.44 1.63-1.1 2.03-.58.36-1.23.43-1.97.22a2.58 2.58 0 0 1-1.62-1.3c-.39-.73-.4-1.56-.03-2.5Z" fill="#005395"/></svg>