<svg width="56" height="56" viewBox="0 0 56 56" xmlns="http://www.w3.org/2000/svg"><path fill="#F0F3FA" d="M0 0h56v56H0z"/><path d="M5.36 32.95V31h2.31v-1H5.36v-2H8v-1H4v7h4v-1l-2.64-.05Zm3.86-2.64c.33-.2.79-.34 1.25-.34.75 0 .93.17.93.68-1.64 0-2.8.59-2.8 1.86 0 .8.59 1.49 1.53 1.49.57 0 1.07-.22 1.36-.61h.03l.08.61h1.22c-.05-.3-.07-.84-.07-1.27v-1.81c0-1.09-.53-1.92-2.03-1.92-.8 0-1.43.26-1.78.45l.28.86Zm2.2 1.88c0 .63-.51.88-.85.88-.34 0-.64-.2-.64-.68 0-.73.76-.9 1.5-.9v.7Zm2.24 1.48c.35.2.89.33 1.45.33 1.27 0 2.01-.62 2.01-1.57 0-.69-.4-1-1.27-1.35-.59-.24-.78-.38-.78-.66 0-.27.22-.47.64-.47.38 0 .75.14.97.26l.26-.93c-.3-.15-.75-.28-1.27-.28-1.14 0-1.88.68-1.88 1.57 0 .54.38 1.12 1.33 1.33.57.23.72.33.72.64 0 .3-.24.5-.72.5-.41 0-.93-.19-1.19-.34l-.27.97ZM22.12 32c.03-.14.06-.52.06-.7 0-1.61-.8-2.3-2.05-2.3-1.5 0-2.35 1.06-2.35 2.49 0 1.54.9 2.51 2.48 2.51.64 0 1.23-.1 1.67-.29l-.2-.91c-.35.12-.74.2-1.24.2-.74 0-1.36-.16-1.4-1h3.03Zm-3.04-1c.04-.48.32-1.08.97-1.08.68 0 .89.56.88 1.08h-1.85Zm8.89-4-.8 2.55c-.25.82-.45 1.64-.63 2.42h-.02a33.8 33.8 0 0 0-.6-2.42L25.16 27h-1.7L23 34h1.26l.14-2.81a87 87 0 0 0 .11-2.73h.03c.16.84.39 1.77.62 2.54l.78 3h1.04l.87-3.05c.24-.77.49-1.67.7-2.49h.03c-.01.7.04 1.8.07 2.7l.13 2.84h1.3l-.4-7h-1.7Zm5.39 4.45c-.08.3-.16.67-.21.94h-.03l-.24-.94-.76-2.45h-1.49l1.73 4.42c.04.1.06.17.06.22 0 .1-.24.6-.69.93-.24.16-.49.3-.72.35l.34 1.08c.3-.05.83-.2 1.32-.65.58-.56 1.02-1.44 1.59-3.04L35.4 29H34l-.64 2.45ZM35.58 27v1h1.75v6h1.35v-6h1.76v-1h-4.86Zm6.64 2.81-.05-.81H41c.02.44.04.89.04 1.5L41 34h1.4v-2.65c0-.85.46-1.25 1.08-1.25.14 0 .25.01.35.03v-1.26c-.1-.02-.17-.02-.3-.02-.48 0-1.04.33-1.27.97h-.04Zm3.89-2.3c0-.41-.3-.72-.74-.72-.42 0-.73.3-.73.71 0 .4.3.7.73.7.43.02.74-.27.74-.7ZM44.71 34H46v-5h-1.3v5Zm3.73-5h-1.18c.01.45.03.99.03 1.62V36h1.37v-2.53h.02c.22.34.66.58 1.21.58 1.05 0 2.11-.8 2.11-2.63 0-1.52-.83-2.54-1.95-2.54-.67 0-1.18.28-1.52.8h-.02l-.07-.68Zm.22 2.04c0-.6.4-1.08.95-1.08.67 0 1.02.64 1.02 1.52 0 .9-.36 1.55-1.05 1.55-.46 0-.92-.35-.92-1.06v-.93ZM29.84 22.67l.67.72c.33.36.24.36-.14.59l-2.15 1c-.26.15-.43.02-.24-.27l1.37-2.17c.13-.26.27-.12.49.13Z" fill="#005B9B"/><path d="M12.8 29.32c3.75-7.51 14-1.77 19.67-6.78-5.66 5.86-16.86.91-19.67 6.78Z" fill="#005B9B"/><path d="m26.04 18.02 13.3 1.09c.64.04.54.17.21.46l-6.48 6.3c-.36.4-.44.28-.88-.19l-2.53-2.84c-.33-.35-.39-.43.18-.63l6.31-2-7.1 1.24c-.52.11-.45.18-.83-.34l-2.36-2.68c-.3-.33-.27-.49.18-.41Z" fill="#00A4D5"/></svg>