<svg width="56" height="56" xmlns="http://www.w3.org/2000/svg"><path fill="url(#paint0_linear)" d="M0 0h56v56H0z"/><path fill-rule="evenodd" d="M11.426 31.293C11.708 30.088 10.847 27 7.982 27 4.91 27 4 29.582 4 30.948 4 32.16 4.782 35 7.982 35c.823 0 2.383-.201 3.444-1.666l-.704-.646c-.313.435-1.404 1.324-2.74 1.312-1.67-.015-2.952-1.266-2.982-2.707h6.426zm-.926-.87C10.416 29.626 9.825 28 8 28c-2.298 0-2.956 1.657-3 2.422h5.5zm26.47.87c.282-1.205-.579-4.293-3.445-4.293-3.072 0-3.981 2.582-3.981 3.948 0 1.212.782 4.052 3.981 4.052.823 0 2.383-.201 3.445-1.666l-.704-.646c-.314.435-1.405 1.324-2.74 1.312-1.671-.015-2.953-1.266-2.982-2.707h6.426zm-.926-.87c-.084-.796-.675-2.423-2.5-2.423-2.298 0-2.956 1.657-3 2.422h5.5zM24.252 32.94a6.5 6.5 0 11-.05-8.931l-.71.709a5.5 5.5 0 10.042 7.52l.718.702z" fill="#fff"/><path fill="#fff" d="M26 22h1v13h-1zm13 5.17V35h.995v-4.338c0-1.994 1.337-2.575 2.005-2.616V27c-1.032.037-1.766.713-2.005 1.046v-.877H39zM50.33 27h1.498l-6.35 8H44l6.33-8z"/><path d="M47.262 30.863L44.167 27h1.488l2.349 2.938-.742.925z" fill="#0E76BC"/><path d="M48.76 30.86L52 35h-1.487l-2.505-3.194.752-.945z" fill="#A1C8E7"/><path d="M47.999 31.816l-.744-.952.744-.93.759.93-.759.952z" fill="#4292CC"/><defs><linearGradient id="paint0_linear" x1="28" y1="0" x2="28" y2="56" gradientUnits="userSpaceOnUse"><stop stop-color="#0A4B81"/><stop offset="1" stop-color="#112E54"/></linearGradient></defs></svg>