<svg xmlns="http://www.w3.org/2000/svg" width="56" height="56"><path fill="#034EA2" d="M0 0h56v56H0z"/><path d="M42.4 35a16 16 0 110-14h-2.27a14 14 0 00-26.1 6h9.6l-1.18-.26a1.81 1.81 0 111.68-3.05l3.25 3.13a1.37 1.37 0 01.07-.03l-1.2-4.3a1.81 1.81 0 113.49-.02l-1.22 4.3.13.07 3.27-3.15a1.82 1.82 0 111.68 3.05l-4.28.96a1.37 1.37 0 01.03.53l4.25.95a1.81 1.81 0 11-1.68 3.05l-3.16-3.05-.2.12 1.18 4.16a1.81 1.81 0 11-3.48-.01l1.15-4.16a1.39 1.39 0 01-.14-.08l-3.14 3.02a1.81 1.81 0 11-1.68-3.05l.82-.18h-9.23a14 14 0 0026.09 6h2.26z" fill="#fff"/></svg>