<svg width="56" height="56" viewBox="0 0 56 56" xmlns="http://www.w3.org/2000/svg"><path fill="#F0F3FA" d="M0 0h56v56H0z"/><path d="m38.5 13-2.6 1.39.12 1.32 2.48-.6V13Z" fill="#0F4E8C"/><path d="M28.68 19.74 29 47l10-8.2V14.5l-10.32 5.24Z" fill="#0F4E8C"/><path d="M19.51 13 17 14.5h19.15L38.5 13H19.51Z" fill="#022662"/><path d="M21 35V17.62L19.15 17v20.58h8.35V35H21Z" fill="#0C4A8D"/><path d="M26 47h3V20h-3v16.52h-5.99V18h9.69l6.72-3.49H17V41h9v6Z" fill="#6CC067"/><path d="M36.27 14.5 26 20h3l10-5.5h-2.73Z" fill="#022662"/></svg>