<svg width="56" height="56" xmlns="http://www.w3.org/2000/svg"><path fill="#E62F32" d="M0 0h56v56H0z"/><path d="M21.467 28.244c.116-.257.327-.384.498-.375.625.039 1.05 1.416 1.602 3.203.721 2.335 1.659 5.37 3.54 7.03l.027.03c.095.097.238.247.238.402a.461.461 0 01-.45.466l-8.215-.002C13.046 38.998 8 34.409 8 27.93 8 21.457 13.042 17 19.267 17H37.47c.287 0 .529.203.529.5 0 .291-.242.5-.529.5H27.44c-.53 0-1.78.288-2.303.513-.427.194-.607.216-.727.167-.215-.088-.256-.356-.164-.49.138-.218.107-.99-.767-.273-.093.087-6.455 5.026-6.494 5.055-.446.322-.587.633-.547 1.022l-4.064 3.628c-.31.238-.746.797-.584 1.473.056.216.087.428.117.623.052.351.097.652.258.845 0 0 .078.13.203.065.047-.023 1.588-1.166 1.588-1.166a.302.302 0 01.43.081c.091.147.062.344-.028.41 0 0-1.025.65-1.051.679-.045.054-.141.408.414.368.218-.005.6-.002.776 0h.087c.567 0 .665-.368.665-.368.029-.078.094-.207.185-.266.108-.071 1.542-.662 2.217-.917.381-.14.818-.14 1.277-.14.415-.001.848-.001 1.277-.105.7-.17 1.096-.601 1.262-.96zM42.505 19c.273 0 .495.223.495.501 0 .28-.222.496-.495.496L28.493 20a.495.495 0 01-.493-.499c0-.275.224-.497.493-.497L42.505 19zm3.98 4c.285 0 .515.218.515.5 0 .273-.23.494-.516.494L34.511 24a.508.508 0 01-.511-.5c0-.275.229-.5.51-.5h11.974zM48 25.495c0-.267-.241-.495-.536-.495H36.535c-.292 0-.535.228-.535.502 0 .28.243.498.535.498h10.929c.295 0 .536-.222.536-.505zM47.48 27c.288 0 .52.222.52.5 0 .274-.232.5-.52.5h-8.954a.516.516 0 01-.526-.5c0-.276.238-.5.526-.5h8.954zm.01 2h-6.977c-.28 0-.513.23-.513.5 0 .278.232.5.513.5l6.977-.006c.282 0 .51-.216.51-.494s-.227-.5-.51-.5zm-4.96 2.004L47.47 31c.29 0 .53.228.53.502s-.24.498-.53.498h-4.94c-.291 0-.53-.22-.53-.498 0-.274.239-.498.53-.498zm2.472-9.506a.501.501 0 00-.505-.498H31.51a.506.506 0 00-.511.498c0 .277.232.502.511.502l12.986-.002c.28 0 .505-.225.505-.5z" fill="#fff"/></svg>