<svg xmlns="http://www.w3.org/2000/svg" width="56" height="56"><path fill="#0093DD" d="M0 0h56v56H0z"/><path d="M20.98 16h-8.63l-1.08 3.21-.19.56 2.27-.01h1.06c.33.01.67-.03 1-.07l.39-.04a8.74 8.74 0 003.31-1.05c.4-.26.79-.53 1.08-.91.38-.44.63-.99.78-1.55V16zm2.6.17a3.12 3.12 0 00-.65-.1c-.09.5-.34.93-.6 1.33l-.14.17c-.21.28-.43.56-.71.77a8.22 8.22 0 01-3.04 1.62l-.18.04c-.5.17-1.04.21-1.58.26l-.26.02H8c-.1.2-.16.42-.23.63l-.04.13H18.8l.42-.04c.33-.03.67-.06 1-.13l.23-.03c.24-.04.48-.07.72-.14a10.54 10.54 0 002.35-.84 5.93 5.93 0 002.76-2.68 6.91 6.91 0 00-1.83-.8 2.26 2.26 0 00-.46-.12 4.02 4.02 0 01-.26-.06l-.16-.03zm3.46 3.08c.26-.25.5-.51.75-.77l.02-.02c.4.53.75 1.1.94 1.74l.11.4c.1.54.16 1.08.13 1.63H7.33l.03-.11c.07-.21.14-.42.23-.61.04-.04.1-.04.16-.03a.4.4 0 00.09 0h13.29c.16 0 .33 0 .48-.03l.52-.08c.3-.04.62-.08.91-.18a8.82 8.82 0 004-1.94zm1.88 3.28H7.22l-.11.37c-.05.14-.1.27-.13.4h14.39c.19 0 .37.04.56.07l.47.07.44.09c.2.04.42.08.62.15a8.46 8.46 0 013.96 2.27 5.7 5.7 0 001.23-2.03l.05-.17c.12-.4.24-.8.22-1.21zm-22.08 1.2h11.63c.51-.02 1.02.06 1.53.13l.47.07c1.33.26 2.66.67 3.8 1.44a5.53 5.53 0 011.71 1.75c-.89.55-1.85.96-2.86 1.22a1.77 1.77 0 01-.32.1 4.32 4.32 0 00-1.28-1.92 8.18 8.18 0 00-3.7-1.86c-.3-.08-.59-.1-.88-.13a8.86 8.86 0 01-.41-.04H6.59c.06-.26.15-.52.25-.77zm6.25 1.19H9.34a755.17 755.17 0 01-1.9 5.67L6 34.9v.1h8.41c.18-.43.33-.87.48-1.31l.28-.82.8-2.28.7-2.04h4.56a3.1 3.1 0 00-.58-1.37 4.83 4.83 0 00-1.79-1.42 8.59 8.59 0 00-2.16-.67l-.35-.04-.48-.07a4.71 4.71 0 01-.38-.03l-.36-.03h-2.04z" fill="#fff"/><path fill-rule="evenodd" d="M16.06 35l1.6-5h3.45c.41.01 1.23.33 1.23 1.47a1.72 1.72 0 01-1.55 1.8h-3.2l-.6 1.73h-.93zm2.3-4h2.68c.14.02.4.18.4.55-.01.47-.42.7-.68.77h-2.89l.5-1.32zm8.45 4l1.6-5h3.46c.4.01 1.22.33 1.22 1.47 0 1.43-1.2 1.74-1.54 1.75h-.63L32.04 35h-1.12l-1.11-1.78h-1.44L27.75 35h-.94zm2.3-4h2.69c.13.02.4.17.39.53-.01.45-.41.68-.67.74h-2.89l.49-1.27zm3.38 4l1.6-5h3.46c.41.01 1.23.33 1.23 1.47 0 1.43-1.2 1.74-1.55 1.75h-.62L37.72 35h-1.11l-1.12-1.78h-1.44L33.43 35h-.94zm2.31-4h2.68c.13.02.4.17.4.53-.02.45-.42.68-.68.74h-2.9l.5-1.27zm-14.41 4l4.22-5h.96l1.07 5h-.95l-.26-1h-2.98l-.9 1h-1.17zm2.91-2l1.52-1.82h.09l.35 1.82H23.3z" fill="#fff"/><path d="M40.25 33.3L38.78 30h.95l1.14 2.47L43.58 30h1.37l-3.76 3.48-.48 1.52h-.98l.52-1.7zM50 30.88v.49h-1c0-.34-.2-.36-.3-.36h-2.53c-.23 0-.51.07-.61.5-.08.33.2.5.38.5h2.22c.45-.01 1.36.26 1.37 1.34.02 1.08-1 1.66-1.33 1.66h-3.32c-.85-.2-.95-1-.88-1.38h1c0 .36.25.38.37.38h2.47c.22-.02.61-.03.71-.55.08-.37-.2-.44-.35-.45h-2.47c-.08 0-1.23-.28-1.18-1.5.04-.97.93-1.5 1.26-1.5h3.1c.8.01 1.06.58 1.09.86z" fill="#fff"/></svg>