<svg width="56" height="56" viewBox="0 0 56 56" xmlns="http://www.w3.org/2000/svg"><path fill="#F0F3FA" d="M0 0h56v56H0z"/><path d="M44.56 20.15h-.2c-.07 0-.11.03-.14.09-.06.13-.16.25-.27.35-.26.22-.53.4-.84.57-.83.44-1.65.77-2.48 1-1.39.37-2.87.54-4.46.5a9.25 9.25 0 0 0-1.97.39 1.9 1.9 0 0 0-.6.37c-.05.05-.09.03-.09-.05 0-.12.03-.23.1-.33a4.8 4.8 0 0 1 1.36-2.42c.25-.23.56-.43.93-.6.07 0 .12-.02.16-.06a.18.18 0 0 1 .14-.06c.48.01.85-.09 1.1-.3l1.17-.08.02-.02a.1.1 0 0 0 .01-.04c.02.04.08.06.18.07l1.48.03c.28.08.5.08.67 0 .57.15 1.07.16 1.5.05a6.5 6.5 0 0 0 3.1-.69c.05-.02.06-.01.05.04a.75.75 0 0 1-.21.34c-.33.29-.56.57-.7.85Z" fill="#76BE46"/><path d="m35.08 19.7.58.17c.05.01.08.05.08.1 0 .08-.05.12-.14.13-.55.06-1.09.02-1.62-.1a2.56 2.56 0 0 0-.37-.05l-.28-.03a25.41 25.41 0 0 0-6.87-.24c-.73.07-1.59.17-2.57.3-.85.12-1.68.29-2.5.5-.43.17-.87.3-1.32.4-.26.05-.52.13-.75.25l-.74.31c-.19.03-.36.1-.53.17l-.43.19a2.2 2.2 0 0 0-.5.26c-1.07.5-2.03 1.16-2.9 1.96-.21.2-.4.41-.55.63-.15.24-.31.46-.48.68a.38.38 0 0 0-.08.21c0 .07-.03.11-.09.15a.23.23 0 0 0-.1.12c-.07.19-.18.35-.33.5a.2.2 0 0 0-.05.1l-.12.45c0 .03 0 .07.04.09.03.02.06.03.1 0a1 1 0 0 1 .48-.11c.39 0 .76-.12 1.11-.35.1-.07.25-.14.45-.21l.26-.11a.4.4 0 0 0 .14-.1l.12-.13c.08-.08.13-.07.14.04.02.11.02.23 0 .35-.58 1.52-1.16 3.05-1.72 4.58-.1.25-.17.5-.2.75-.1.34-.04.59.16.75l.23.2c.15.14.28.24.37.3.15.08.32.13.51.14.95.07 1.9.06 2.84 0 .11-.02.2-.01.25.02.05.03.04.04-.01.04-.08 0-.16 0-.23.02s-.15.02-.22.02l-2.77.01a.59.59 0 0 1-.48-.21.23.23 0 0 0-.05-.05c-.06-.03-.07-.02-.03.03l.09.1v.04h-.02c-.04 0-.05.01-.02.04.19.19.41.34.67.46.17.09.32.2.46.33.03.04.07.06.11.07a.8.8 0 0 1 .4.24c.03.04.04.03.02-.02l-.01-.05c0-.03.02-.04.05-.02l2.4 1.12.16.04c.16.02.32.06.47.14.14.07.28.11.43.13.17.03.32.08.46.16.1.06.2.09.3.08.08 0 .2.02.35.09l.29.1c.36.04.71.1 1.05.18.37.08.72.13 1.06.14.35.02.7.05 1.07.1.34.05.84.07 1.51.07l.92.02a22.22 22.22 0 0 0 2.5-.03c.4 0 .81-.04 1.26-.1a3.42 3.42 0 0 1 .8-.02l.03-.03a.15.15 0 0 1 .1-.05l1.01-.1c.13-.02.25-.02.38-.01a.8.8 0 0 0 .35-.06.18.18 0 0 1 .13 0c.23.05.44.04.62-.06.15-.08.3-.14.46-.17l2.41-.6c.06-.02.11-.04.15-.09a.24.24 0 0 1 .24-.06c.06.02.11 0 .16-.05a.9.9 0 0 1 .54-.28c.16-.02.32-.07.48-.15.54-.26 1.05-.5 1.53-.75.2-.1.4-.23.58-.37.1-.08.22-.15.36-.2.12-.06.24-.12.36-.2-.3.38-.65.66-1.05.84-.22.1-.43.24-.66.42-.1.08-.21.15-.33.2-.12.04-.24.1-.36.16a.43.43 0 0 1-.17.05.62.62 0 0 0-.37.16.36.36 0 0 1-.16.08 7.06 7.06 0 0 0-.91.25c-.05 0-.1.01-.14.04-.15.1-.38.2-.68.28a106 106 0 0 1-1.62.45.88.88 0 0 1-.2.02c-.1 0-.18.01-.23.03-.68.22-1.35.33-2.01.34-.31 0-.64.02-.99.05-.32.03-.65.04-1 .02-.06 0-.13 0-.18.03a.67.67 0 0 1-.4.05c-.03 0-.06 0-.08.04a.08.08 0 0 1-.09.05c-.4-.02-.8-.02-1.19.01-.32.03-.8.02-1.43-.02a15.09 15.09 0 0 0-1.36-.03 6.69 6.69 0 0 1-1.82-.15c-.37-.02-.78-.06-1.23-.1a2.57 2.57 0 0 1-.51-.1 2.18 2.18 0 0 0-.55-.1 2.31 2.31 0 0 1-.75-.17c-.2-.08-.4-.14-.6-.17a1.56 1.56 0 0 1-.42-.14 1.63 1.63 0 0 0-.45-.15c-.37-.06-.72-.2-1.07-.4a.57.57 0 0 0-.17-.06.75.75 0 0 1-.16-.04c-.03-.02-.04-.01-.03.03 0 .01 0 .03.02.05.02.01.01.02 0 0l-.56-.26a3.24 3.24 0 0 1-.5-.31c-.2-.14-.4-.25-.61-.31-.08-.03-.1-.01-.03.05l.37.3c.02 0 .02.02 0 .04h-.02a.37.37 0 0 0-.28-.14l-.64-.51c-.1-.08-.19-.16-.27-.26a1.05 1.05 0 0 0-.43-.24 1.42 1.42 0 0 1-.36-.17l-.5-.38a.28.28 0 0 1-.1-.12 2.5 2.5 0 0 0-.28-.54.72.72 0 0 0-.16-.15.57.57 0 0 1-.19-.21.48.48 0 0 0-.23-.24.21.21 0 0 1-.1-.12 6.77 6.77 0 0 0-.3-.68.53.53 0 0 0-.15-.17.18.18 0 0 1-.07-.13c0-.06-.03-.1-.08-.13a.4.4 0 0 1-.23-.42c0-.05 0-.1-.02-.14a2 2 0 0 1-.1-.77c0-.18-.03-.36-.1-.53a.06.06 0 0 0-.05-.04h-.05c-.05 0-.08.03-.08.08a5.45 5.45 0 0 0 .15 1.85c0 .09.01.15.03.2.32.88.79 1.66 1.41 2.33.32.35.67.69 1.05 1.02.33.3.7.57 1.14.83.8.5 1.55.89 2.29 1.2l.32.1c.1.02.23.07.4.15.17.1.31.15.42.17a6.21 6.21 0 0 1 1.16.35c.04 0 .04-.02 0-.03a.3.3 0 0 1-.17-.1c.3.15.6.23.88.24.14 0 .28.05.41.13h.02c.02 0 .01.01 0 0a4.14 4.14 0 0 0-.55-.08c-.09-.01-.1.01-.03.06.08.05.16.08.24.1a176.6 176.6 0 0 1 1.08.14c.04.03.1.04.14.05.36.03.76.1 1.2.2.67.16 1.39.23 2.16.19 1.32.13 2.67.16 4.02.1.35.03.7.03 1.05.02a.2.2 0 0 0 .16-.09c.84 0 1.67-.1 2.49-.27.1-.02.19-.03.29-.03.17 0 .44-.05.81-.17.15-.04.15-.06 0-.07h-.41c-.12.01-.25.04-.4.1-.23.1-.49.14-.76.1.13-.04.27-.05.42-.04.05 0 .1 0 .15-.03.03 0 .06-.02.1-.04a.86.86 0 0 1 .32-.1c.57-.03 1.14-.09 1.69-.17 1.3-.33 2.28-.62 2.94-.86.82-.3 1.78-.76 2.9-1.37.34-.18.65-.38.92-.58.3-.23.6-.43.9-.62.31-.2.57-.4.77-.63l.93-1.08a.6.6 0 0 0 .1-.16.3.3 0 0 1 .08-.12c.14-.12.24-.26.3-.43.02-.05.05-.1.09-.14a6.38 6.38 0 0 0 .82-1.78c.16-.29.21-.59.16-.9-.07-.44-.12-.89-.17-1.33a.15.15 0 0 0-.07-.11l-.08-.07c-.05-.03-.06-.08-.03-.12.14-.23.13-.44-.03-.63a.25.25 0 0 1-.05-.14 1.88 1.88 0 0 0-.36-.87l-.3-.41a2.5 2.5 0 0 0-.53-.63c-.35-.22-.6-.5-.73-.85a6.75 6.75 0 0 1 2.27 2.77 6.2 6.2 0 0 1 .1 3.88l-.38 1.17c-.04.17-.16.37-.35.62a13.36 13.36 0 0 1-4.18 3.59c-.52.29-1.06.55-1.62.79a.3.3 0 0 0-.12.09.29.29 0 0 1-.24.11c-.05 0-.1.02-.15.04-.75.32-1.52.6-2.31.83-1.75.51-3.53.86-5.35 1.04l-.94.1c-2.42.19-4.83.11-7.23-.23-.57-.1-1.14-.2-1.7-.32-.33-.06-.72-.16-1.15-.29l-1.14-.31-.76-.24a.25.25 0 0 1-.12-.07.34.34 0 0 0-.24-.12.48.48 0 0 1-.15-.03l-.36-.14a.47.47 0 0 1-.15-.1.38.38 0 0 0-.22-.08.5.5 0 0 1-.15-.04l-.86-.4a2.84 2.84 0 0 1-.54-.3 1.5 1.5 0 0 0-.38-.2.94.94 0 0 1-.33-.2c-.22-.2-.47-.37-.75-.53a4.68 4.68 0 0 1-.77-.5c-.41-.37-.8-.76-1.16-1.19-.2-.23-.37-.48-.5-.74a6.1 6.1 0 0 1-.56-1.08c-.5-1.3-.51-2.6-.03-3.9a7.65 7.65 0 0 1 2.08-2.93c.94-.87 1.88-1.55 2.83-2.05.6-.32 1.27-.63 2-.95.16-.07.33-.13.52-.18.17-.05.34-.11.5-.2a14.2 14.2 0 0 1 2.8-.9c2.39-.54 4.76-.86 7.1-.94.78-.03 1.68 0 2.68.11l2.76.3c.38.04.71.11.98.21Z" fill="#D82B26"/><path d="m35.08 19.7.73.12c.05 0 .09.04.1.1a.2.2 0 0 1 0 .1c-.38.17-.7.37-.94.6a4.8 4.8 0 0 0-1.37 2.42l.07-.82c0-.06-.02-.09-.08-.09a6.84 6.84 0 0 0-1.6.19v.04a.12.12 0 0 1-.1.03c-1.15.01-2.23.07-3.24.16-.55.05-1.1.1-1.64.13-.27.01-.56.04-.86.09l-.92.12c-.46.05-.92.12-1.38.2-.52.1-1.02.2-1.52.27-.5.08-1 .19-1.5.32l-1.57.4a3.1 3.1 0 0 0-.68.26c-.23.12-.47.2-.72.25-.06 0-.1.03-.14.06a.54.54 0 0 1-.18.11.84.84 0 0 1-.17.04.86.86 0 0 0-.23.05c-.28.1-.33.16-.16.16-.22.04-.4.05-.52.03-.38-.07-.4-.19-.06-.37.27-.14.53-.29.77-.45a4.65 4.65 0 0 1 1.45-.64c.08-.05.15-.07.2-.09.6-.17 1.2-.34 1.78-.53.34-.1.67-.18 1-.23.35-.05.69-.12 1.01-.22.24-.07.47-.12.7-.17.72-.15 1.3-.25 1.73-.3.46-.04.9-.1 1.3-.18.6-.12 1.06-.4 1.38-.82l.04-.02h.01c.03.02.06.02.08 0 .11-.14.19-.28.22-.44.01-.05 0-.1-.01-.16l-.17-.4a.11.11 0 0 0-.1-.07 8.91 8.91 0 0 1-.42-.06c0-.02 0-.02-.02-.03a7.24 7.24 0 0 0-1.36.04c-.24.02-.48.04-.72.04s-.48.03-.72.08c-.45.08-.9.14-1.34.2-.22.02-.52.07-.9.15-.3.06-.6.1-.91.12.81-.22 1.65-.39 2.5-.5.98-.14 1.83-.24 2.56-.31a25.41 25.41 0 0 1 7.15.27c.16 0 .29.02.37.04.54.13 1.08.17 1.62.11.1 0 .14-.05.14-.13 0-.05-.02-.09-.08-.1l-.58-.17Z" fill="#F36826"/><path d="M16.98 25.01c.8.05 1.6.05 2.37-.02.67-.05 1.3-.08 1.87-.07.05 0 .09.02.11.07.03.04.03.08 0 .12a.4.4 0 0 0-.05.22c0 .06.03.1.1.1l.37.02h-.46c-.06 0-.09-.04-.09-.1v-.14c.03-.08.03-.13 0-.17a.16.16 0 0 0-.12-.04 687.01 687.01 0 0 0-2.95.08c-.89.06-1.83.1-2.83.12a.19.19 0 0 0-.16.09.18.18 0 0 0-.02.18c.03.08.08.15.15.2.05.04.07.09.08.14.02.13 0 .25-.05.36.05-.29-.07-.46-.34-.51a.94.94 0 0 1-.17-.05c-.09-.04-.15-.01-.2.07a.12.12 0 0 1-.12.05l-.62-.07a.14.14 0 0 1-.11-.08c-.04-.07-.1-.08-.15-.04-.06.04-.07.03-.03-.02a.13.13 0 0 0 .02-.1c-.01-.04 0-.08.04-.1.1-.08.17-.18.2-.31 0-.05.03-.09.07-.1.08-.04.11-.1.1-.18a.15.15 0 0 1 .04-.15c.22-.2.43-.4.62-.6a.88.88 0 0 1 .24-.18c.1-.05.18-.12.24-.2.1-.13.2-.24.32-.33.8-.59 1.36-.96 1.71-1.11.49-.21.96-.45 1.42-.72l.74-.31c.24-.12.49-.2.75-.26.45-.09.9-.22 1.33-.38.3-.02.61-.06.91-.12.37-.08.68-.13.9-.16.45-.05.9-.11 1.33-.2.25-.04.5-.06.73-.07.24 0 .48-.02.71-.04a7.24 7.24 0 0 1 1.39-.01 8.9 8.9 0 0 0 .42.05c.05.01.08.04.1.08l.17.4c.02.06.02.1 0 .16-.02.16-.1.3-.21.43-.03.03-.05.03-.08.02h-.05c-.33.44-.78.71-1.38.83-.41.08-.85.14-1.3.19a17.71 17.71 0 0 0-2.43.46c-.32.1-.66.17-1 .22a6.1 6.1 0 0 0-1.01.23c-.58.19-1.18.36-1.79.53l-.2.09a.9.9 0 0 1-.22.1 4.66 4.66 0 0 0-1.22.55c-.24.15-.5.3-.77.44-.33.18-.32.3.06.37.12.02.3.01.52-.03Z" fill="#F88E43"/><path d="M18.42 23.18a.4.4 0 0 1-.18.06c-.05 0-.09.02-.12.06a.36.36 0 0 1-.2.12.67.67 0 0 0-.2.08l-.4.24c-.14.08-.28.14-.42.2-.23.09-.45.2-.67.31a1.4 1.4 0 0 1-1.03.15.17.17 0 0 1-.12-.1.17.17 0 0 1 0-.14c.15-.34.34-.6.55-.78.67-.56 1.3-.98 1.87-1.26l.95-.47c.32-.16.65-.29 1-.4l1.24-.37a14.21 14.21 0 0 1 2.37-.39l.04-.03a.17.17 0 0 1 .09-.03l.73-.04c.17-.01.33 0 .48.05.08.03.2.05.38.06.15.02.26.03.32.05.12.02.2.06.26.11.15.13.17.3.07.55a.21.21 0 0 1-.1.11c-.18.09-.36.17-.55.24-.13.06-.27.1-.41.12-.1.01-.21.04-.32.08l-.3.09c-1.15.23-2.35.49-3.6.77a.51.51 0 0 0-.2.09.3.3 0 0 1-.15.06c-.3.04-.58.11-.83.23-.13.06-.26.1-.41.13a.42.42 0 0 0-.14.05Z" fill="#FDB57A"/><path d="m20.1 21.27.01-.02.02-.01a4.07 4.07 0 0 1 1.97-.09c.1.05.1.17.02.35a.26.26 0 0 1-.14.13 8.1 8.1 0 0 1-1.86.56c-.52.1-1.04.26-1.56.46a.26.26 0 0 0-.1.08.15.15 0 0 1-.15.05c-.06 0-.11 0-.16.03-.13.07-.27.13-.41.17a.16.16 0 0 0-.09.04.19.19 0 0 0-.03.06.1.1 0 0 1-.06.07l-.95.42c-.16.07-.25.02-.28-.15-.03-.17.07-.36.3-.55.17-.15.37-.27.58-.36a.2.2 0 0 0 .11-.1c.03-.06.08-.1.14-.13.65-.25 1.27-.51 1.88-.79.1-.05.26-.1.48-.13l.25-.05c.02 0 .03-.02.03-.04Z" fill="#FFDCB4"/><path d="M18.58 21.44c-.46.27-.93.5-1.42.72-.35.15-.92.52-1.7 1.11-.13.1-.24.2-.33.32a.72.72 0 0 1-.24.21.87.87 0 0 0-.24.18c-.19.2-.4.4-.62.6a.15.15 0 0 0-.05.15c.02.08 0 .14-.09.17a.13.13 0 0 0-.08.11.44.44 0 0 1-.19.3.1.1 0 0 0-.04.11c0 .04 0 .07-.02.1-.04.05-.03.06.03.02.06-.04.1-.03.15.04.02.04.06.07.11.08l.62.07c.05 0 .09-.01.12-.05.05-.08.11-.1.2-.07l.17.05c.27.05.39.22.34.51 0 .06-.02.12-.04.16a1.1 1.1 0 0 0 0-.35c-.01-.11-.06-.12-.14-.04l-.12.13a.41.41 0 0 1-.14.1c-.05.03-.14.06-.26.1-.2.08-.35.15-.44.22-.36.23-.73.35-1.12.35a1 1 0 0 0-.48.12.08.08 0 0 1-.1-.01.08.08 0 0 1-.03-.1l.11-.45a.2.2 0 0 1 .05-.09c.15-.15.26-.31.32-.5.02-.05.06-.1.11-.12a.17.17 0 0 0 .09-.15c0-.08.03-.15.08-.21.17-.22.33-.44.49-.68.14-.22.33-.43.54-.63a11.67 11.67 0 0 1 2.96-2c.16-.1.3-.18.44-.22l.44-.19c.16-.08.33-.14.52-.17Z" fill="#F36826"/><path d="M33.6 23.04c-.06.1-.09.21-.09.33 0 .08.04.1.1.05l.06-.05c.21-.17.39-.28.53-.32l.3-.1-.31 1.09c-.01.02 0 .05.02.07.03.02.05.02.08 0 .68-.41 1.49-.64 2.41-.69 1-.04 1.9-.11 2.74-.2.57-.06 1.51-.27 2.8-.64.11-.03.22-.02.33.03.07.02.16.08.28.17l.1.07c.17.12.31.24.4.36.14.35.38.63.73.85.12.07.3.28.54.63l.29.4c.2.31.33.6.36.88 0 .05.02.1.05.14.16.2.17.4.03.63-.03.04-.02.09.03.12l.08.07c.04.02.06.06.07.1.05.45.1.9.17 1.34.05.31 0 .61-.16.9l-.01-1.58a.17.17 0 0 0-.08-.15.26.26 0 0 1-.11-.2.1.1 0 0 0-.05-.08.1.1 0 0 0-.1 0c-.33.16-.58.43-.73.8-.07.16-.15.32-.24.46-.09.16-.17.32-.24.5-.15.34-.27.59-.36.74l-.83 1.29c-.03.04-.08.1-.15.16a.8.8 0 0 0-.19.25c-.04.1-.1.2-.19.29a7.17 7.17 0 0 1-2.04 1.55c-.14.06-.26.13-.36.21-.18.14-.37.26-.58.37-.48.24-.99.5-1.52.75a1.6 1.6 0 0 1-.48.15.9.9 0 0 0-.55.28.16.16 0 0 1-.16.05.24.24 0 0 0-.24.06.33.33 0 0 1-.14.09l-2.41.6c-.16.03-.32.1-.47.17-.18.1-.39.11-.62.05a.18.18 0 0 0-.12 0 .8.8 0 0 1-.36.07h-.38c-.33.05-.67.08-1 .11a.15.15 0 0 0-.1.05l-.05.03-.02.01a3.42 3.42 0 0 0-.77.01c-.45.06-.87.1-1.26.1l-.7.02c-.8.03-1.39.03-1.8.01l-.92-.02c-.67 0-1.17-.02-1.5-.07-.37-.05-.73-.08-1.08-.1-.34-.01-.7-.06-1.06-.14-.33-.08-.68-.14-1.05-.19-.06 0-.16-.04-.29-.09a.83.83 0 0 0-.35-.1.5.5 0 0 1-.3-.07 1.16 1.16 0 0 0-.45-.15c-.16-.03-.3-.07-.44-.14-.15-.08-.3-.12-.47-.14a.53.53 0 0 1-.15-.04l-2.41-1.12c-.03-.02-.04 0-.05.02a.1.1 0 0 0 0 .05c.03.05.02.06-.02.02a.8.8 0 0 0-.38-.24.25.25 0 0 1-.12-.07 1.7 1.7 0 0 0-.46-.33 2.54 2.54 0 0 1-.67-.46c-.03-.03-.02-.04.02-.04h.01c.02-.01.02-.02 0-.04a2.64 2.64 0 0 1-.08-.1c-.04-.05-.03-.06.03-.03l.05.05c.12.14.28.21.48.21a4502.37 4502.37 0 0 0 3-.03l.22-.02c.05 0 .06-.01.01-.04-.05-.03-.13-.04-.25-.03.51.03.99-.04 1.44-.2.25-.1.45-.23.6-.42.15-.16.26-.38.36-.65l.46-1.32a.08.08 0 0 0-.02-.08.08.08 0 0 0-.08-.03.4.4 0 0 0-.32.23.13.13 0 0 1-.14.08.13.13 0 0 1-.13-.1v-.04l.18-.53c.02-.06 0-.1-.06-.1h-.05a.24.24 0 0 0-.18.09c-.2.27-.51.44-.93.49-.5.06-.96.06-1.35 0l.13-.51c.03-.1.09-.15.19-.15l2.54-.1a.47.47 0 0 0 .44-.31l.35-1.06a.1.1 0 0 0-.02-.1.1.1 0 0 0-.1-.03c-.1.01-.19.01-.28 0-.05-.02-.09-.05-.1-.1l-.02-.19c.03-.03.04-.07.04-.1 0-.06-.03-.09-.09-.09H18.63c-.3-.01-.32-.1-.08-.25.11-.07.3-.12.56-.14.6-.05 1.19-.09 1.75-.11.16 0 .28-.08.35-.22.26-.48.44-1 .54-1.55l-.37-.02c-.07 0-.1-.04-.1-.1a.4.4 0 0 1 .05-.22.12.12 0 0 0 0-.12.12.12 0 0 0-.1-.07c-.58 0-1.2.02-1.88.07-.77.07-1.57.08-2.37.02-.17 0-.12-.05.16-.16a.86.86 0 0 1 .23-.05c.07-.01.13-.02.17-.04a.54.54 0 0 0 .18-.1.26.26 0 0 1 .14-.07c.25-.05.5-.13.72-.25.21-.1.44-.2.68-.26l1.58-.4c.48-.13.98-.24 1.49-.32.5-.08 1-.16 1.52-.26.46-.09.92-.16 1.38-.21l.92-.12c.3-.05.59-.08.86-.1l1.64-.12c1-.1 2.1-.15 3.25-.16.03 0 .06 0 .09-.03v-.04a6.83 6.83 0 0 1 1.59-.19c.07 0 .1.03.09.09l-.07.82Z" fill="#EB2228"/><path d="M37.86 24.28c-.53.41-1.11.85-1.73 1.3a2.92 2.92 0 0 1-1.7.66c-.21.01-.37.02-.46.04a1.15 1.15 0 0 0-1.02.78c-.39.97-.88 2.29-1.49 3.96a.25.25 0 0 0 .01.2c.02.05.07.1.15.18l.11.12a.3.3 0 0 1 .05.19c0 .08-.05.12-.13.12l-2.7.08a1 1 0 0 1-.34-.16.14.14 0 0 1-.06-.13c.02-.23.07-.47.17-.71.78-2.05 1.48-3.92 2.09-5.61.07-.19.01-.33-.16-.41a.36.36 0 0 1-.14-.12.12.12 0 0 1-.01-.12.16.16 0 0 1 .1-.1 46.48 46.48 0 0 1 2.84-.13c.07 0 .13.01.18.05.05.04.09.1.1.16.06.21.03.41-.1.6 0 .02 0 .03.02.04l.03.02c.26-.38.6-.67 1-.87.34-.17.77-.28 1.3-.34l2.3-.25c.2-.02.22.02.06.13l-.47.32Z" fill="#FFFFFE"/><path d="M37.87 24.28c.23.08.5.11.8.1.06 0 .11.04.14.1l.03.05c.02.06.06.08.12.08l1.72-.05c-.23.06-.67.1-1.31.09-.17 0-.52.04-1.07.14-.42.07-.75.18-1.01.33-.65.37-1.14.9-1.47 1.6.02-.1-.07-.13-.26-.05a.75.75 0 0 1-.23.05 23 23 0 0 1-.77.04c-.18.03-.34.06-.47.12-.3.12-.53.38-.69.76-.52 1.32-1.01 2.6-1.46 3.87-.08.22-.02.36.2.43.03.01.06.04.07.08.05.1.04.17-.03.24a.19.19 0 0 1-.14.06l-2.61.03a.47.47 0 0 1-.49-.44l2.7-.08c.1 0 .14-.04.14-.12a.3.3 0 0 0-.05-.19.8.8 0 0 0-.11-.12.71.71 0 0 1-.15-.18.25.25 0 0 1 0-.2c.6-1.67 1.1-2.99 1.48-3.96a1.15 1.15 0 0 1 1.02-.78 7.25 7.25 0 0 1 .78-.07c.4-.03.86-.24 1.38-.63.62-.45 1.2-.89 1.74-1.3Z" fill="#D9A572"/><path d="m40.69 24.56 1.38.12c.3.14.53.34.68.6.1.18.14.42.14.72 0 .27-.04.52-.1.73a20.62 20.62 0 0 1-1.4 3.48c-.1.2-.24.37-.41.55a8.7 8.7 0 0 0-.48.52.3.3 0 0 1-.13.08.67.67 0 0 0-.29.2.67.67 0 0 1-.25.19c-.57.24-1.14.35-1.7.34-.06 0-.12 0-.18.03a.79.79 0 0 1-.24.05c-.94.05-1.83.03-2.65-.08-.62-.35-.85-.87-.7-1.57.28-1.25.77-2.51 1.46-3.8.33-.7.82-1.23 1.47-1.6.26-.15.6-.26 1.01-.33.55-.1.9-.15 1.07-.14.64 0 1.08-.03 1.32-.09Z" fill="#FFFFFE"/><path d="M42.07 24.68c.23-.02.4.03.5.15l.74.9c.03.04.05.07.05.11.07.44.05.87-.06 1.3-.31 1.2-.78 2.37-1.4 3.53a5.2 5.2 0 0 1-.6.85c-.26.32-.52.54-.79.67-.43.21-.87.35-1.32.41-1.33.19-2.5.19-3.5 0a.86.86 0 0 1-.63-.5c.82.1 1.7.12 2.65.07.1-.01.17-.02.24-.05a.46.46 0 0 1 .19-.03c.55.01 1.12-.1 1.7-.34.09-.04.17-.1.24-.19a.66.66 0 0 1 .3-.2c.04-.01.09-.04.12-.08.15-.18.31-.36.48-.52.17-.18.31-.36.42-.55a20.6 20.6 0 0 0 1.4-3.48c.05-.21.08-.46.09-.73 0-.3-.05-.54-.14-.72a1.39 1.39 0 0 0-.68-.6Z" fill="#D9A572"/><path d="m29.45 24.98-.17.56-.18.56-1.8 4.82-.02.08c-.08.2-.12.34-.11.43 0 .15.09.26.25.34.04.02.07.05.08.09a.17.17 0 0 1-.04.2.17.17 0 0 1-.11.04l-2.73.08c0 .02-.05.02-.13 0-.25-.03-.34-.14-.28-.36l.12-.43c.02-.1 0-.1-.07-.04a1.9 1.9 0 0 0-.2.26c-.12.17-.22.28-.3.34-.44.29-.81.43-1.13.43-.6-.02-1.22.01-1.82.08-.48-.39-.65-.78-.52-1.18a101.64 101.64 0 0 1 1.97-5.32c.12-.33.07-.54-.15-.63a.15.15 0 0 1-.1-.14c0-.11.04-.17.14-.18l1.38-.07 1.1-.04.27-.01c.2 0 .31.11.36.35-.5 1.5-1.06 3-1.64 4.49-.07.17-.1.34-.1.51 0 .06.03.1.07.14.09.07.22.1.38.1.46.03.79-.2.98-.68.53-1.36 1.05-2.76 1.56-4.2.07-.2 0-.35-.2-.44a.17.17 0 0 1-.1-.1.18.18 0 0 1 0-.15.14.14 0 0 1 .13-.08c1.18-.09 2.13-.12 2.86-.1.13.01.22.1.25.25Z" fill="#FFFFFE"/><path d="M29.45 24.98a.5.5 0 0 0 .28.26.32.32 0 0 1 .2.42 480.5 480.5 0 0 1-2.18 5.8c-.07.18-.11.36-.13.54 0 .05.01.09.05.12l.25.2c.04.05.06.1.03.15-.02.06-.06.09-.12.09-.88.01-1.8.05-2.74.11a.36.36 0 0 1-.25-.07.3.3 0 0 1-.12-.2.86.86 0 0 0-.1-.22l2.73-.08c.04 0 .08-.01.1-.04a.17.17 0 0 0 .05-.2.17.17 0 0 0-.08-.09c-.16-.08-.25-.2-.25-.34 0-.09.03-.23.1-.43l.04-.08c.6-1.65 1.2-3.26 1.79-4.82l.18-.56c.05-.2.11-.38.17-.56Z" fill="#D9A572"/><path d="M21.2 25.2c-.04.11-.1.27-.16.49l-.16.46c-.07.17-.15.31-.24.43a.26.26 0 0 1-.18.1c-.58.06-1.15.1-1.7.13-.6.03-1 .3-1.21.84-.04.1 0 .17.1.18.62.05 1.25.02 1.9-.1h.76c.06 0 .1.02.1.08 0 .03-.02.07-.05.1l-.4 1.15a.14.14 0 0 1-.1.1c-.15.03-.29.05-.43.05l-2.28.1c-.16 0-.26.08-.3.23-.05.13-.07.26-.07.38 0 .16.03.27.1.35.09.09.2.15.35.19.4.06.84.06 1.35 0 .42-.05.72-.22.93-.5.04-.05.1-.08.18-.09h.04c.07.02.09.05.06.11l-.18.53c-.1.39-.24.77-.4 1.14-.16.37-.48.62-.96.77-.32.1-.75.15-1.3.16l-2.62.02a1.1 1.1 0 0 1-.72-.25.72.72 0 0 1-.28-.7c.04-.24.11-.49.2-.74a464.13 464.13 0 0 1 1.77-4.74.64.64 0 0 0 .05-.36c0-.05-.03-.1-.08-.14a.52.52 0 0 1-.15-.2.18.18 0 0 1 .02-.18c.03-.06.09-.09.16-.1a66.4 66.4 0 0 0 3.08-.12l2.7-.07c.05 0 .09.01.12.04.03.04.03.1 0 .17Z" fill="#FFFFFE"/><path d="M21.2 25.2v.16c0 .05.03.08.1.08h.45c-.1.57-.29 1.08-.54 1.56a.39.39 0 0 1-.35.22c-.56.02-1.15.06-1.75.11-.27.02-.45.07-.56.14-.24.16-.22.24.08.24l.92.02c-.65.12-1.28.15-1.9.1-.1-.01-.14-.07-.1-.18.22-.53.62-.81 1.2-.84.56-.02 1.13-.07 1.71-.13.07 0 .13-.04.18-.1.1-.12.17-.26.24-.43.04-.1.1-.25.16-.46.06-.22.12-.38.16-.48ZM25.26 25.24l.36.22c.04.03.07.07.08.12a.8.8 0 0 1-.02.44c-.38 1.05-.95 2.53-1.71 4.46a.55.55 0 0 1-.38-.1.17.17 0 0 1-.06-.14c0-.17.03-.34.1-.51.58-1.5 1.12-3 1.63-4.5Z" fill="#D9A572"/><path d="M45.62 25.98c.86 1.7.77 3.38-.28 5.05l.38-1.17a6.2 6.2 0 0 0-.1-3.88Z" fill="#6E0C0A"/><path d="M39.97 26.93c-.46-.21-.84-.02-1.14.59-.4.81-.75 1.8-1.07 2.94-.1.04-.21 0-.33-.12-.14-.13-.18-.3-.12-.5.27-.92.6-1.84.99-2.75.23-.56.68-.81 1.32-.77.14 0 .24.06.32.16.1.12.11.27.03.45Z" fill="#D9A572"/><path d="M39.97 26.93c-.3 1.01-.65 1.94-1.03 2.8-.22.48-.61.73-1.18.73.32-1.15.68-2.13 1.07-2.94.3-.6.68-.8 1.14-.59Z" fill="#D82B26"/><path d="M45.54 29.27a6.37 6.37 0 0 1-.9 1.92c-.07.17-.17.31-.3.43a.3.3 0 0 0-.1.12.6.6 0 0 1-.09.16l-.93 1.08c-.2.23-.45.44-.77.63-.3.19-.6.4-.9.62-.27.2-.58.4-.92.58a22.11 22.11 0 0 1-2.9 1.37c-.66.24-1.64.53-2.94.86.3-.19.5-.29.65-.3.2-.02.4-.07.58-.16.13-.06.25-.1.37-.1a.9.9 0 0 0 .3-.1c.1-.05.19-.08.26-.1.12-.01.24-.05.35-.11a.18.18 0 0 1 .11-.02c.1 0 .2-.02.26-.08.05-.05.11-.07.18-.07a.3.3 0 0 0 .27-.15c.04-.07.02-.11-.06-.13a.31.31 0 0 0-.23.02c-.13.06-.26.11-.4.14-.25.05-.5.12-.77.2a2.9 2.9 0 0 1-.34.09l-.34.09c-.79.27-1.74.48-2.86.63a13.67 13.67 0 0 0-1.84.37 1.6 1.6 0 0 1-.5.02 4.8 4.8 0 0 0-.83 0 384.47 384.47 0 0 0-4.96.03c-.4 0-.78-.04-1.16-.1-.4-.09-.77-.12-1.11-.1a.29.29 0 0 1-.16-.05.58.58 0 0 0-.36-.08c-.06 0-.11 0-.16-.03a.48.48 0 0 0-.18-.04c-.28 0-.54-.05-.8-.14a2.46 2.46 0 0 0-.38-.1 2.46 2.46 0 0 1-.32-.06c-.55-.17-1.1-.37-1.67-.58a6.2 6.2 0 0 0-.62-.2c-.2-.05-.4-.14-.6-.26-.2-.12-.4-.22-.62-.3l-.51-.26-.74-.5c.12 0 .2.04.28.13h.03v-.04a2.65 2.65 0 0 1-.38-.3c-.06-.06-.05-.08.03-.05.21.06.42.17.61.3.22.17.38.27.5.32a20.3 20.3 0 0 1 .56.26.11.11 0 0 1-.02-.05c-.01-.04 0-.05.03-.03l.17.05c.07.01.13.03.16.05.35.2.7.34 1.07.4.16.03.31.08.45.15.15.07.29.11.42.14.2.03.4.09.6.17.24.1.5.15.76.16.18.01.36.05.54.1.16.06.34.1.52.11.44.04.85.08 1.22.1a6.68 6.68 0 0 0 1.82.14 14.08 14.08 0 0 1 1.36.04c.63.04 1.11.05 1.43.02.39-.03.79-.03 1.2 0 .03 0 .06-.02.08-.06.02-.03.05-.05.09-.04.13.02.26 0 .39-.05a.38.38 0 0 1 .18-.03c.35.02.69.01 1-.02.35-.03.68-.05.99-.05.66 0 1.33-.12 2.01-.34a.73.73 0 0 1 .22-.03c.1 0 .16 0 .2-.02a106 106 0 0 0 1.63-.45c.3-.08.53-.18.68-.28a.22.22 0 0 1 .14-.04c.06 0 .12 0 .17-.03l.16-.07.58-.15a.36.36 0 0 0 .16-.08c.11-.1.23-.15.37-.16.06 0 .12-.02.17-.05l.36-.17c.12-.04.23-.1.34-.2.22-.17.44-.31.65-.41.4-.18.75-.46 1.05-.84a7.17 7.17 0 0 0 1.68-1.36c.09-.1.15-.2.2-.3a.8.8 0 0 1 .18-.24c.07-.06.12-.12.15-.16.3-.45.57-.88.82-1.29.1-.15.22-.4.36-.75l.25-.49c.09-.14.17-.3.24-.46.15-.37.4-.64.73-.8a.1.1 0 0 1 .1 0 .1.1 0 0 1 .05.08c0 .09.04.15.11.2.05.04.08.09.08.15l.01 1.58Z" fill="#A21A1D"/><path d="m20.36 27.91.02.18c.01.06.05.1.1.1.09.02.18.02.28.01a.1.1 0 0 1 .1.04.1.1 0 0 1 .02.1l-.36 1.05a.47.47 0 0 1-.43.32l-2.54.09c-.1 0-.16.05-.19.15l-.14.5a.7.7 0 0 1-.34-.18c-.07-.08-.1-.2-.1-.35 0-.12.02-.25.06-.38.05-.15.15-.23.31-.23l2.28-.1c.14 0 .28-.02.42-.05.06-.01.1-.04.11-.1l.4-1.15Z" fill="#D9A572"/><path d="m15.6 34.5.74.51a1.29 1.29 0 0 1-.59-.24c-.32-.27-.33-.26-.03.04.22.21.6.37 1.13.46.21.08.42.18.62.3s.4.2.6.26c.2.05.4.12.62.2.56.21 1.12.4 1.67.58l.32.07c.16.03.3.06.38.09.26.09.52.14.8.14.04 0 .1.01.18.04.05.03.1.04.16.03.13-.01.25.02.36.08.05.03.1.04.16.04.34-.01.7.02 1.11.1.38.07.77.11 1.17.1h4.43c.11 0 .29 0 .52-.02.37-.02.65-.02.83 0 .16.02.32 0 .5-.02l.51-.11c.43-.1.87-.2 1.33-.26a15.89 15.89 0 0 0 3.2-.72 8.36 8.36 0 0 1 1.1-.29c.15-.03.28-.08.41-.14a.32.32 0 0 1 .23-.02c.08.02.1.06.05.13a.3.3 0 0 1-.26.15.27.27 0 0 0-.18.07.32.32 0 0 1-.26.08c-.04-.01-.08 0-.11.02-.11.06-.23.1-.35.12-.07 0-.16.04-.27.09a.9.9 0 0 1-.3.1c-.1 0-.23.04-.36.1-.18.09-.38.14-.58.16-.14.01-.36.11-.65.3-.55.08-1.12.14-1.7.18-.09 0-.2.03-.3.09l-.1.04a.31.31 0 0 1-.16.03c-.15-.01-.29 0-.42.04-.44-.02-.74 0-.89.04a3.8 3.8 0 0 1-.82.15c-.05 0-.1.02-.14.04l-.17.11-1.2.07c-1.36.06-2.7.03-4.03-.1a17.03 17.03 0 0 0-2.57-.38.06.06 0 0 1-.01-.05c0-.02-.01-.03-.03-.03l-1-.2a.04.04 0 0 1-.04-.02 67.73 67.73 0 0 1-1.33-.28.08.08 0 0 1-.06-.04.14.14 0 0 0-.08-.05l-1-.22a.51.51 0 0 1-.16-.06.36.36 0 0 0-.23-.06c-.08.01-.08.03 0 .05l.96.31c.04.05.1.08.17.1.04.01.04.02 0 .03h-.07a6.2 6.2 0 0 0-1.09-.35 1.86 1.86 0 0 1-.43-.17c-.16-.08-.3-.13-.4-.16a1.8 1.8 0 0 1-.31-.1c-.74-.3-1.5-.7-2.3-1.19a8.3 8.3 0 0 1-1.13-.83c-.38-.33-.73-.67-1.05-1.02a6.9 6.9 0 0 1-1.41-2.33.77.77 0 0 1-.03-.2l-.02-.18a5.45 5.45 0 0 1-.13-1.67c0-.05.03-.08.08-.09h.05c.03.01.04.03.05.05.07.17.1.35.1.53a2 2 0 0 0 .1.77c.02.05.02.1.02.14a.4.4 0 0 0 .23.42c.05.03.08.07.08.13 0 .05.03.1.07.13.06.04.1.1.14.17.12.24.22.46.3.68.02.05.06.1.11.12.12.07.2.14.23.24.03.07.1.14.2.21l.15.15c.11.17.21.35.28.54.02.05.05.09.1.12l.5.38c.08.05.2.11.36.17.21.08.35.16.43.24.08.1.17.18.27.26l.64.51Z" fill="#6E0C0A"/><path d="M17.45 33.04c-.94.07-1.89.08-2.84.01-.2-.01-.36-.06-.5-.15-.1-.05-.22-.15-.38-.3a5.3 5.3 0 0 0-.23-.19c-.2-.16-.25-.41-.17-.75-.04.28.05.51.28.7.2.16.44.24.73.24l2.6-.02c.56-.01 1-.07 1.31-.16.48-.15.8-.4.96-.77a9.27 9.27 0 0 0 .41-1.1c.02.06.06.1.13.1.06.01.11-.02.14-.08a.4.4 0 0 1 .32-.23c.04 0 .06 0 .08.03.02.03.03.05.02.08l-.46 1.32c-.1.27-.21.49-.35.65-.16.19-.36.32-.6.42-.46.16-.94.23-1.45.2ZM24.5 32.17a.18.18 0 0 1-.06.03.17.17 0 0 0-.09.05c-.21.23-.48.4-.8.48-1.14.3-2.05.21-2.74-.27.6-.07 1.21-.1 1.82-.08.32 0 .7-.14 1.13-.43.08-.06.18-.17.3-.34l.2-.26c.07-.07.09-.06.07.04l-.12.43c-.06.22.03.33.28.35Z" fill="#D9A572"/><path d="m16.34 35.01.51.26c-.53-.1-.9-.25-1.13-.46-.3-.3-.3-.3.03-.04.14.11.34.2.59.24Z" fill="#A21A1D"/><path fill-rule="evenodd" d="M40.83 19.57c.57.14 1.07.15 1.5.04-1.69-.8-3.4-1.38-5.15-1.74a12.7 12.7 0 0 1-1.58-.42 26.7 26.7 0 0 0-15.48-.56c-1 .27-1.95.62-2.87 1.05-.98.46-1.87.98-2.68 1.58a10.14 10.14 0 0 0-3.72 4.72c-.1.27-.23.5-.4.7a9.76 9.76 0 0 0-2.18 3.86 6.48 6.48 0 0 0 .21 4.3 9.38 9.38 0 0 0 3.7 4.24c1.48.97 3.24 1.73 5.29 2.27 2.34.62 4.92.93 7.74.92.46 0 .96.04 1.51.13 3.9.61 7.64.4 11.22-.65a17.2 17.2 0 0 0 4.21-1.86 12.55 12.55 0 0 0 3.4-2.98 8.45 8.45 0 0 0 1.8-4.68 3 3 0 0 1 .17-.82c.91-2.5.52-4.82-1.18-6.97a8.47 8.47 0 0 0-1.45-1.44.12.12 0 0 1 0-.18c.48-.4.9-.86 1.27-1.36.1-.14.08-.17-.08-.08-.39.22-.9.4-1.52.5l-.2.01c-.07 0-.11.03-.14.09-.06.13-.16.25-.27.35-.26.22-.53.4-.84.57-.83.44-1.65.77-2.48 1-1.39.37-2.87.54-4.46.5-.25 0-.81.1-1.68.29l-.3 1.09c-.01.02 0 .05.02.07.02.02.05.02.08 0 .68-.41 1.49-.64 2.41-.69 1-.04 1.9-.11 2.74-.2.57-.06 1.5-.27 2.8-.64.11-.03.22-.02.33.03.07.02.16.08.28.17l.1.07c.17.12.3.24.4.36a6.75 6.75 0 0 1 2.27 2.77c.86 1.7.77 3.38-.28 5.05-.04.17-.16.37-.35.62a13.36 13.36 0 0 1-4.18 3.59c-.52.29-1.06.55-1.62.79a.3.3 0 0 0-.12.09.29.29 0 0 1-.24.11c-.05 0-.1.02-.15.04-.74.32-1.51.6-2.3.83-1.76.51-3.54.86-5.36 1.04-.28.13-.6.16-.94.1-2.42.19-4.83.11-7.23-.23a8.07 8.07 0 0 1-1.33-.17c-.44-.1-.83-.17-1.2-.23-.43-.06-.85-.19-1.25-.39-.02 0-.02-.01 0-.03l.04-.01c.01 0 .01 0 0 0-.11 0-.2-.02-.25-.09l-.76-.24a.25.25 0 0 1-.12-.07.34.34 0 0 0-.24-.12.48.48 0 0 1-.15-.03l-.36-.14a.47.47 0 0 1-.15-.1.38.38 0 0 0-.21-.08.5.5 0 0 1-.16-.04l-.86-.4a2.84 2.84 0 0 1-.54-.3 1.5 1.5 0 0 0-.38-.2.94.94 0 0 1-.33-.2c-.22-.2-.47-.37-.75-.53a4.68 4.68 0 0 1-.76-.5c-.42-.37-.81-.76-1.17-1.19-.2-.23-.37-.48-.5-.74a6.1 6.1 0 0 1-.56-1.08c-.5-1.3-.51-2.6-.03-3.9a7.65 7.65 0 0 1 2.08-2.93c.94-.87 1.88-1.55 2.83-2.05.6-.32 1.27-.63 2-.95.16-.07.33-.13.52-.18.17-.05.34-.11.5-.2a14.2 14.2 0 0 1 2.8-.9c2.4-.54 4.76-.86 7.1-.94.78-.03 1.68 0 2.69.11l2.75.3c.39.04.71.11.98.21l.73.12c.05 0 .09.04.1.1a.2.2 0 0 1 0 .1c.06 0 .11-.02.15-.06a.18.18 0 0 1 .14-.06c.48.01.84-.09 1.09-.3a28.65 28.65 0 0 0-7.44-1.06c-1.18 0-2.36.04-3.55.13-2.02.16-3.98.51-5.89 1.07a25.13 25.13 0 0 0-5.5 2.32c-.28.17-.55.36-.78.58-.07.07-.2.14-.36.22a2.86 2.86 0 0 0-.23.1c.1-.11.23-.23.38-.34a27.42 27.42 0 0 1 9.09-4.1 32.63 32.63 0 0 1 8-.95 13 13 0 0 1 2.93.36 26.4 26.4 0 0 1 4.43 1.44c.05.02.1.05.13.09.02.04.08.06.18.07l1.48.03-.9-.56c-.07-.05-.1-.07-.1-.09l.13.02a9.5 9.5 0 0 1 1.54.64ZM29.2 17.29c0-.03 0-.05-.04-.05-3-.19-5.94.1-8.8.85a18.38 18.38 0 0 0-4.5 1.82c-1.5.86-2.71 1.89-3.63 3.07-.35.45-.3.5.14.14a24.61 24.61 0 0 1 7.9-4.17 33.39 33.39 0 0 1 8.91-1.62l.02-.04Zm14.4 4.83a12.21 12.21 0 0 1 3.13 4.45c.05.12.08.12.1-.01.01-.15 0-.3-.03-.46a8.04 8.04 0 0 0-2.6-4.37.12.12 0 0 0-.14-.03c-.17.07-.32.17-.46.3a.07.07 0 0 0-.02.06c0 .03 0 .05.02.06ZM23.78 40.04c.08.14-.03.18-.32.13a23.26 23.26 0 0 1-7.75-1.7 14.27 14.27 0 0 1-4.05-2.54A7.92 7.92 0 0 1 10 33.87a7 7 0 0 1-.74-4.82c.18-.84.5-1.66.96-2.45.03-.05.07-.06.12-.03l.05.02v.03a5.86 5.86 0 0 0 .01 5.06c.48 1 1.2 1.93 2.18 2.78.88.77 1.9 1.41 3.05 1.95.44.2.9.45 1.37.74a23.78 23.78 0 0 0 6.77 2.9Zm20.2-4.45a10.08 10.08 0 0 0 2.46-3.13c.2-.4.35-.81.46-1.25.07-.24.03-.26-.1-.05a16.86 16.86 0 0 1-6.23 5.58 29.27 29.27 0 0 1-7.98 2.95c0 .02.01.03.03.03 1.35-.1 2.67-.3 3.97-.6 1.42-.34 2.74-.79 3.95-1.34a14.4 14.4 0 0 0 3.44-2.19Zm-20.41 3 1.4.15c1.39.12 2.78.14 4.16.05l1.01-.07.02-.02 1.5-.14a26.23 26.23 0 0 0 9.7-2.98h.05v.01c.01.02 0 .03-.01.05a27.22 27.22 0 0 1-9.86 3.96c-.72.16-1.45.22-2.19.2a28.4 28.4 0 0 1-8.5-1.58c-.01 0-.02-.01-.01-.03v-.04l.02-.01 2.7.46Z" fill="#CFA96C"/><path d="M24.86 37.73a7.64 7.64 0 0 1-2.17-.19c-.43-.1-.83-.17-1.18-.2a.39.39 0 0 1-.15-.05 177.76 177.76 0 0 0-1.07-.15.53.53 0 0 1-.25-.1c-.06-.04-.06-.06.03-.05a4.14 4.14 0 0 1 .56.08h-.03a.83.83 0 0 0-.41-.13 2.24 2.24 0 0 1-.88-.24l-.97-.3c-.07-.03-.07-.05 0-.06.09 0 .16.01.24.06l.16.06 1 .22c.03 0 .06.02.08.05.02.02.03.04.06.04a67.74 67.74 0 0 0 1.33.28l.03.03 1 .19c.03 0 .04.01.04.03l.01.05.05.02c.85.06 1.69.18 2.52.36Z" fill="#A21A1D"/><path d="m18.86 37.09 1.14.31c.43.13.82.23 1.15.3l1.7.31a8.08 8.08 0 0 1-1.33-.17c-.44-.1-.84-.17-1.2-.23-.43-.06-.85-.19-1.25-.39-.02 0-.02-.01 0-.03l.04-.01c.01 0 .01 0 0 0-.11 0-.2-.02-.25-.09Z" fill="#F88E43"/><path d="m30.1 37.76.16-.1c.04-.03.09-.05.14-.05.28-.02.56-.07.83-.15.14-.05.44-.06.88-.04.27.04.53 0 .76-.1.15-.06.28-.09.4-.1h.4c.16 0 .16.03.02.07-.38.12-.65.17-.82.17-.1 0-.2 0-.29.03-.82.18-1.65.27-2.49.27Z" fill="#A21A1D"/><path d="M30.1 37.76a.2.2 0 0 1-.17.1c-.35 0-.7 0-1.05-.03l1.21-.07Z" fill="#A21A1D"/></svg>