<svg xmlns="http://www.w3.org/2000/svg" width="56" height="56"><path fill="#1B409B" d="M0 0h56v56H0z"/><path d="M8.5 35c1 0 1.9-.39 2.11-1.2l2.47-10.25a6.86 6.86 0 00.2-1.5c0-.38-.14-.65-.4-.8A3.18 3.18 0 0011.5 21v-1h11l-.69 3.95-.45-.05a12.5 12.5 0 00.05-.94c.02-.8-.24-1.33-.77-1.58-.52-.25-1.5-.38-3.14-.38a4.9 4.9 0 00-1.42.12c-.2.08-.32.26-.4.53L14.44 27c1.94-.07 3.9-.06 4.3-.26.4-.2.81-.86 1.26-1.97h.44L19 30.44h-.54l.13-.87a2.56 2.56 0 00.02-.35c0-.52-.16-.85-.5-1-.33-.16-1.96-.22-2.85-.22h-1.03l-1.15 5.18a8.83 8.83 0 00-.1.47 3 3 0 00-.04.44c0 .26.06.45.18.58.23.22.66.33 1.31.33 1.97 0 3.18-.24 4.02-.7a5.58 5.58 0 002.28-2.3h.66l-1.41 4H8.5v-1zM22 35c.52-.05.98-.15 1.17-.31.3-.24.55-.74.74-1.5l1.94-9.64c.15-.62.45-1.9-.08-2.26A2.97 2.97 0 0024.5 21v-1H30v1c-.58.09-.98.23-1.2.42-.22.18-.42.65-.6 1.39l-1.94 9.64c-.35 1.42-.42 2.47 1.24 2.55v1H22v-1zm6.95 0c.55 0 1.53-.13 1.8-1.2l2.21-10.84c.16-.77.22-1.25.03-1.54-.19-.3-.63-.4-1.49-.42v-1h6v1c-1.5 0-2.05.48-2.37 1.96L34.25 27h7.85l.88-4.37c.28-1.2-.18-1.63-1.48-1.63v-1h5.55v1c-1 0-1.52.07-1.8 1.2l-2.36 10.85c-.32 1.47-.23 1.88 1.61 1.95v1h-6v-1c1 0 1.85-.48 2.04-1.2L41.9 28h-7.85l-1.16 5.99C32.7 35.22 34.5 35 34.5 35v1h-5.55v-1z" fill="#fff"/></svg>