<svg width="56" height="56" viewBox="0 0 56 56" xmlns="http://www.w3.org/2000/svg"><path fill="#F0F3FA" d="M0 0h56v56H0z"/><path d="m12.33 35.36.05-.45c.28-2.14.6-4.28.94-6.44.45-2.82.9-5.6 1.33-8.43l.08-.53a7.52 7.52 0 0 1 1.58-3.36c1.93-2.35 3.97-2.25 6.83-2.15H35.6c.4-.08 1-.67 1.27-.98.53-.56 1.06-1.02 1.85-1.02l.02.01c.3.54.46 1.15.35 1.75-.17.96-1.12 1.24-2.22 1.24H22.52c-1.75-.01-3.38-.12-3.7 1.91-.44 2.72-.95 5.64-1.43 8.3-.63 3.45-1.16 6.7-1.85 10.25l-.05.4c-.03.33 0 .7.25.9.23.2.58.23.87.24h15.27c.14.01.28.03.4.06.17.03.32.11.37.28a1 1 0 0 1 0 .47c-.1.43-.37 1.21-.5 1.62a66.03 66.03 0 0 0-.29 1.4l6.95-7.93c.05-.05.1-.13.14-.22.44-.83-.8-.68-1.2-.68H22.88c-.12.01-.25-.09-.38-.1-.44-.07-.6-.45-.63-.86-.07-1.28.6-2.05 1.84-2.04h15.42c1.47 0 2.94.15 3.54-1.43a14.77 14.77 0 0 0 .57-1.92 24.59 24.59 0 0 1 .22-.6c.26.36.46.8.51 1.24.12.95-.41 1.73-.9 2.47a82.24 82.24 0 0 1-4.4 6 731.12 731.12 0 0 1-4.67 5.77A3261.85 3261.85 0 0 1 31.08 44h-.6l-.02-.02a1.54 1.54 0 0 1-.35-1.07c0-.16.05-.33.07-.5.06-.47-.01-.96-.46-1.2-.33-.18-.77-.2-1.15-.21H14c-.16 0-.35-.02-.58-.07-2.13-.44-1.29-3.95-1.1-5.57Z" fill="#007ECB"/><path d="M23.8 22.93c-.38-.1-.46-.49-.43-.85l.06-.64c.04-.57.16-1.16.75-1.35.22-.07.43-.09.65-.09h14.8l.33.01c.35 0 .7.13 1 .3.51.29.95.66 1.3 1.12.25.34.45.73.45 1.16 0 .46-.37.45-.68.41H24.35c-.18.01-.38-.02-.56-.07Z" fill="#007ECB"/></svg>