<svg xmlns="http://www.w3.org/2000/svg" width="56" height="56"><path fill="url(#aze1egu5s)" d="M0 0h56v56H0z"/><path d="M51 22h-4v3h4v-3z" fill="#EE2E24"/><path d="M24 22h-4v3h4v-3zm27 13v-7h-4v7h4zM5 25h13v-3H5v3zm15 10h11v-3h-7v-6h-4v9zm-3-8H9v-1H5v9h13v-3H9v-2h8v-3zm17.81-5c-1.5 0-2.53 1.26-2.81 3h13v-3H34.81zM42 30v2h-4.53c-.8 0-1.47-.6-1.47-1.4v-3.18c0-.8.67-1.42 1.47-1.42H32v5.91A3 3 0 0035 35h10v-7h-5v2h2z" fill="#fff"/><defs><linearGradient id="aze1egu5s" x1="10.42" y1="9.71" x2="68.15" y2="76.02" gradientUnits="userSpaceOnUse"><stop stop-color="#1A1E21"/><stop offset="1" stop-color="#06060A"/></linearGradient></defs></svg>