<svg width="56" height="56" viewBox="0 0 56 56" xmlns="http://www.w3.org/2000/svg"><path fill="#499D50" d="M0 0h56v56H0z"/><path fill-rule="evenodd" d="M19.17 17H21l-9.45 8h9.06l-7.65 7H21l-3.17 4h-7.68c-1.37 0-1.96-1.82-.9-2.72L14.73 29H9.44c-1.36 0-1.96-2.1-.9-3l10.63-9Zm3.99 3.94L22 34.5c.01.87.56 2.28 2.64.93l3.48-2.76c-.64.47-1.91 1.03-1.88-.46l.29-3.87c1.82-1.29 5.47-4.8 5.47-8.52-.13-.96-1.1-2.58-3.88-1.44l-4.96 2.55Zm3.98-1-.43 5.69a8.54 8.54 0 0 0 1.52-3.83c.11-1.87-.03-2.22-1.09-1.87Zm.8 11.03 4-4.46c.48-.5 1.39-1.09 1.21.7-.17 1.78-.35 3.86-.42 4.68-.08.55.1 1.43 1.35.54l-3.5 3.41c-.61.27-1.83.39-1.75-1.3.09-1.7.25-3.09.33-3.57h-1.22Zm10.08-4.46L34 30.97h1.22c-.07.48-.24 1.88-.32 3.57-.09 1.69 1.13 1.57 1.75 1.3l2.8-3 2.42-2.45c0 .8-.09 1.6-.17 2.41-.07.58-.13 1.16-.16 1.74-.08 1.69 1.14 1.57 1.76 1.3L47 31.9c-1.26.89-1.62.55-1.55 0l.43-4.68c.18-1.79-.74-1.2-1.22-.7l-.04.05-5.76 4.74.38-4.1c.17-1.78-.74-1.2-1.22-.69ZM32.79 21h2.65l-1.12 2.57L38.79 19H36.8l.87-2-4.88 4Z" fill="#fff"/></svg>