<svg width="56" height="56" xmlns="http://www.w3.org/2000/svg"><path fill="url(#paint0_linear)" d="M0 0h56v56H0z"/><path fill-rule="evenodd" d="M29.352 41.968C39.767 41.483 48 35.414 48 28c0-7.732-8.954-14-20-14S8 20.268 8 28c0 7.642 8.747 13.854 19.616 13.998l-8.464-9.358s-1.25-.981-1.963-3.212c-.714-2.23.223-4.014 1.115-5.04.892-1.026 9.724-10.26 9.724-10.26 1.963 1.83 1.74 4.461.848 5.844 0 0-7.583 7.538-8.43 8.386-.848.848-1.607 2.096-.447 3.39 1.034 1.153 7.875 8.61 9.354 10.22zm-6.364-13.565c.936-1.428 9.278-9.724 9.278-9.724 3.624 4.087.4 6.781-3.766 10.264l-.002.002c-.243.203-.49.409-.738.618-4.505 3.791-3.256 6.11-3.256 6.11-2.944-1.427-2.453-5.843-1.516-7.27zm13.337-5.175s-8.342 8.297-9.278 9.724c-.937 1.428-1.428 5.844 1.517 7.271 0 0-1.25-2.32 3.256-6.11.249-.21.496-.417.74-.62 4.166-3.483 7.389-6.177 3.765-10.265z" fill="#fff"/><defs><linearGradient id="paint0_linear" x1="28" y1="0" x2="28" y2="56" gradientUnits="userSpaceOnUse"><stop stop-color="#EE312B"/><stop offset=".239" stop-color="#FDE402"/><stop offset=".505" stop-color="#43B73B"/><stop offset=".672" stop-color="#48C5DD"/><stop offset=".848" stop-color="#38388A"/><stop offset="1" stop-color="#B04C87"/></linearGradient></defs></svg>