<svg width="56" height="56" viewBox="0 0 56 56" xmlns="http://www.w3.org/2000/svg"><path fill="#F0F3FA" d="M0 0h56v56H0z"/><path d="M50.34 21.73c-.1.13-.31.2-.4 0a.15.15 0 0 1 0-.12c.12-.26.23-.5.35-.72.11-.22.09-.43-.08-.64-.36-.47-1.17-.23-1.13.36 0 .1.02.2.06.28l.31.67c.04.08.03.14-.03.2-.13.14-.28.13-.42-.04l-.17-.2c-.26-.36-.57-.77-1.12-.53a.51.51 0 0 0-.28.3c-.2.56.31.85.86.85l.46.01c.16 0 .26.08.29.2.03.13-.1.2-.22.21l-.69.1c-.3.04-.5.17-.59.4-.13.35.1.72.5.75.49.04.75-.35.99-.7l.08-.11c.04-.06.1-.1.15-.15.15-.09.28.05.28.17 0 .08-.03.17-.07.25l-.04.1c-.13.26-.28.55-.23.82.06.34.29.49.67.45.54-.06.61-.6.4-.96l-.02-.05c-.12-.2-.28-.48-.26-.69l.03-.06a.16.16 0 0 1 .06-.05.18.18 0 0 1 .15 0c.1.04.2.11.27.21l.04.05c.15.21.3.42.55.55.85.43 1.4-.92.28-1.06l-.82-.1a.3.3 0 0 1-.2-.1.07.07 0 0 1-.02-.05c0-.1.08-.17.2-.18l.66-.05c.47-.03.9-.34.78-.8-.05-.22-.18-.35-.37-.4a.77.77 0 0 0-.82.27c-.15.17-.3.35-.44.56ZM48.5 25H51v8h-2.5v-8ZM13 25h2.5v.82c.44-.4 1.36-.82 2.12-.82 1.1 0 2 .89 2.3 1.33.31-.44 1.2-1.33 2.31-1.33 1.39 0 2.77.89 2.77 2.22V33h-2.5v-5.33c0-.3-.45-.9-1.2-.9-.73 0-.92.6-.92.9V33h-2.76v-5.33c0-.3-.19-.9-.93-.9-.37 0-.95.16-1.19.35V33H13v-8Zm24.5 0H35v8h2.5v-5.88c.24-.19.82-.34 1.2-.34.73 0 .92.59.92.89V33h2.76v-5.33c0-.3.19-.9.93-.9s1.19.6 1.19.9V33H47v-5.78C47 25.9 45.62 25 44.23 25c-1.1 0-2 .89-2.3 1.33-.31-.44-1.2-1.33-2.31-1.33-.76 0-1.68.41-2.12.82V25ZM5.14 28.65c-1-.28-1.26-1.33-.83-2.11.42-.78 1.33-1.2 2.25-1.38.73-.14 1.4-.19 2.02-.14 1.52.11 3.2.94 2.85 2.6-.1.46-.55.74-1.06.82-.4.06-.86-.09-1.13-.35-.36-.35-.46-.75-.3-1.2a.98.98 0 0 1 .5-.55l.1-.04a.63.63 0 0 0 .1-.03c.04-.02.05-.04.02-.07-.28-.33-.66-.5-1.16-.54-.91-.07-1.55.19-1.78 1.08-.04.18-.07.36-.05.54.02.22.1.43.3.62.36.35.88.54 1.46.59l.01.01v.44c0 .01 0 .02-.02.02-1.4-.07-1.9.72-1.75 1.82.12.93.63 1.56 1.66 1.5.97-.07 1.67-1.2 1.29-1.99-.07-.14-.2-.26-.3-.38a9 9 0 0 1-.06-.06c-.1-.1-.1-.21.04-.29a.14.14 0 0 1 .11 0l2.52.81a.1.1 0 0 1 .06.05v.06c-.5 1.54-1.82 2.38-3.54 2.5a7.6 7.6 0 0 1-2.4-.2c-.9-.23-1.8-.76-2-1.6-.04-.22-.06-.5-.05-.86.03-.75.41-1.3 1.15-1.63.03-.01.03-.03 0-.04Zm22.93 4.33c1.07.12 1.69-.28 2.36-1.09.02-.03.04-.02.05 0 .27.75 1.31 1.17 2.12 1.1a4.93 4.93 0 0 0 1.38-.43.13.13 0 0 0 .02-.08v-.26h-.01l-.02-.02h-.02c-.6.03-.84-.15-.84-.72v-4.23c.01-1.53-1.55-2.14-2.9-2.24a5.35 5.35 0 0 0-3.6 1.05 40.85 40.85 0 0 0 .2.95c.02.03.04.04.08.03.01 0 .02 0 .03-.02.52-.7 1.85-1.23 2.75-.86.6.24.8.74.77 1.36-.04.78-1.24 1.01-2.07 1.18-.22.04-.42.08-.55.12-.77.23-1.5.63-1.72 1.39a2.4 2.4 0 0 0 .07 1.56c.32.73 1.05 1.12 1.9 1.21Zm1.49-1.09c-.9 0-.9-1.11-.9-1.56 0-.88.93-1.34 1.75-1.62.01 0 .03 0 .03.03a163.48 163.48 0 0 1 0 1.29v.12c.01.8.02 1.68-.88 1.74Z" fill="#1A5EAA"/></svg>