<svg width="56" height="56" viewBox="0 0 56 56" xmlns="http://www.w3.org/2000/svg"><path fill="#F0F3FA" d="M0 0h56v56H0z"/><path fill-rule="evenodd" d="M46.03 21.94a15.8 15.8 0 0 0-5.53-4.87 23 23 0 0 0-6.47-2.43c-8.48-1.86-20.17.15-24.75 8.42-.5.94-.88 1.96-1.14 3.04-.2 1.22-.19 2.54.02 3.97.28 1.14.76 2.31 1.46 3.51 3.7 5.54 11.2 8.63 17.78 8.39.08 0 .1-.03.04-.1l-6.96-7.75a36.29 36.29 0 0 1-2-2.19 6.82 6.82 0 0 1-1.54-3.74 5.17 5.17 0 0 1 1.3-3.76c.52-.62 1.5-1.65 2.91-3.08.53-.56 1.33-1.4 2.4-2.5 1.81-1.88 3.15-3.3 4.03-4.28.15-.17.32-.24.5-.23.18.02.33.12.46.3a5.05 5.05 0 0 1 .75 4.46c-.1.33-.3.7-.64 1.09-2.38 2.85-5.31 5.35-7.96 7.93a4.17 4.17 0 0 0-1.23 1.77c-.17.67.04 1.33.63 2l1.48 1.63c2.46 2.75 4.97 5.5 7.55 8.22.1.12.22.2.34.23.1.03.23.04.4.03 8.4-.64 20-6.02 17.89-16.3a11.83 11.83 0 0 0-1.72-3.76Zm-18.4 7.77 2.76-2.35c.84-.72 1.5-1.37 2-1.97a6.44 6.44 0 0 0 1.34-2.42c.33-1.28-.1-2.65-1.31-4.12-.11-.14-.23-.14-.35 0-.92.98-1.85 1.94-2.79 2.86-2.21 2.18-4.23 4.3-6.05 6.34-.34.38-.6.95-.76 1.7a6.67 6.67 0 0 0-.03 3.2c.28 1.14.88 2 1.8 2.57.06.05.1.03.1-.06a5.2 5.2 0 0 1 .95-3.22c.49-.74 1.26-1.58 2.33-2.53Zm8.28.83c-.61.6-1.52 1.41-2.74 2.45-.76.65-1.32 1.13-1.68 1.46-.6.54-1.11 1.05-1.55 1.53-.5.54-.88 1.16-1.18 1.88a3.63 3.63 0 0 0-.3 2.18c.05.19 0 .22-.16.12a4.6 4.6 0 0 1-1.97-3.56c-.12-1.53.2-2.86.99-4.02.24-.36.96-1.13 2.15-2.33l6.73-6.87a.15.15 0 0 1 .12-.05c.05 0 .09.02.12.06 2.08 2.35 1.9 4.74-.53 7.15Z" fill="url(#abdfztx24)"/><defs><linearGradient id="abdfztx24" x1="28" y1="14" x2="28" y2="42" gradientUnits="userSpaceOnUse"><stop offset=".05" stop-color="#E2251B"/><stop offset=".14" stop-color="#FDF600"/><stop offset=".25" stop-color="#FEF600"/><stop offset=".4" stop-color="#019F44"/><stop offset=".52" stop-color="#00A360"/><stop offset=".65" stop-color="#74C6DB"/><stop offset=".86" stop-color="#332A81"/><stop offset="1" stop-color="#A1518E"/></linearGradient></defs></svg>