<svg width="56" height="56" viewBox="0 0 56 56" xmlns="http://www.w3.org/2000/svg"><path fill="#F0F3FA" d="M0 0h56v56H0z"/><path d="m5.5 33 3.93-13h9.82l-.92 3h-5.89l-.64 2h5.55l-.83 3H10.9l-.66 2h5.96l-.88 3S5.3 32.93 5.5 33ZM33.47 33l3.85-13h4.07l-3.8 13h-4.12ZM16.06 33l4.07-13h5.82l.47 6.27L31.1 20h5.35l-3.86 13h-4.13l2.5-8.05L25 33h-1.7l-.67-7.99L20.2 33h-4.14Z" fill="#2B2A29"/><path d="m37.73 36 4.74-16L51 28.23 37.73 36Z" fill="#E31E24"/><path d="M5.43 34 5 36h32.03l.43-2H5.43Z" fill="#2B2A29" fill-opacity=".8"/></svg>