<svg width="56" height="56" viewBox="0 0 56 56" xmlns="http://www.w3.org/2000/svg"><path fill="#F0F3FA" d="M0 0h56v56H0z"/><path d="M12 32.35C12 20.32 24.67 12 31 12c-9.96 2.5-16 12.18-16 19.39C15 38.59 20.63 42 25.48 42c4.84 0 9.66-2.94 11.52-4-1.05 1.29-6.53 6-13.83 6S12 38.87 12 32.35Z" fill="#754196"/><path d="M35.73 13c-5.26 0-10.01 3.27-11.73 5 2.33-1.58 6.33-3 9.64-3 3.32 0 7.36 1.81 7.36 7.78C41 33.72 31.5 38.44 28 40c11.31-2.46 16-12.89 16-18.16 0-5.26-3.6-8.84-8.27-8.84Z" fill="#AD77B5"/><path fill-rule="evenodd" d="M29.64 20c-3.21.1-9.64 2.15-9.64 9.61C20 32.5 21.24 36 27.02 36c5.79 0 7.98-3.05 7.98-4.12 0-.55-.45-.88-1.16-.88-.49 0-1.2.42-1.95.93a8.16 8.16 0 0 1-4.72 1.6c-.86 0-3.18-.76-3.18-4.08l.01-.43h8c1.34 0 4-.31 4-3.09 0-3.46-2-5.93-6.36-5.93ZM32 27c0-2.78-.85-4-3.05-4-2.25 0-3.89 1.7-4.6 4H32Z" fill="#68A143"/></svg>