<svg width="56" height="56" viewBox="0 0 56 56" xmlns="http://www.w3.org/2000/svg"><path fill="#F0F3FA" d="M0 0h56v56H0z"/><path d="M32 18.48a6 6 0 0 0-3-1v21.04c4 0 7.01-3.84 8.02-5.51H32V18.48ZM20.99 26h-3c.4-6.01 6.17-8.18 9-8.52v3.5c-3.6.4-5.5 3.51-6 5.02ZM20.99 29.5h-3.5c.8 6.41 6.67 8.68 9.5 9.02v-3.5c-3.6 0-5.5-3.68-6-5.52Z" fill="#E70000"/><path d="M11 27c.5-8.6 7.4-15.5 16-16v1c-8.06.5-14.5 6.94-15 15h-1Zm3.01 0A14.03 14.03 0 0 1 27 14v4.02c-4.4.44-7.95 3.71-8.82 7.97H24v4h-5.8a10.02 10.02 0 0 0 8.8 7.97v4.01A14.03 14.03 0 0 1 14.02 29h1A13.03 13.03 0 0 0 26 40.87v-2.03A11.03 11.03 0 0 1 17.03 29h5.96v-2h-5.96A11.02 11.02 0 0 1 26 17.16v-2.03A13.03 13.03 0 0 0 15.02 27h-1Zm15-12.99v4.02c4.72.47 8.49 4.24 8.96 8.97h1A11.03 11.03 0 0 0 30 17.16v-2.03A13.03 13.03 0 0 1 40.98 27h1A14.03 14.03 0 0 0 29 14Zm0 23.96c4.72-.47 8.49-4.24 8.96-8.97h1A11.02 11.02 0 0 1 30 38.84v2.03A13.03 13.03 0 0 0 40.98 29h1A14.03 14.03 0 0 1 29 42v-4.02ZM29 44c8.05-.5 14.49-6.94 14.99-15h1c-.5 8.6-7.4 15.5-16 16v-1Zm0-33c8.6.5 15.5 7.4 15.99 16h-1a16.03 16.03 0 0 0-15-15v-1ZM27 44v1c-8.6-.5-15.5-7.4-16-16h1c.5 8.06 6.94 14.5 15 15Z" fill="#040404"/></svg>