<svg width="56" height="56" xmlns="http://www.w3.org/2000/svg"><path fill="#2957A4" d="M0 0h56v56H0z"/><path fill-rule="evenodd" d="M43.003 28c0 8.284-6.716 15-15 15-8.284 0-15-6.716-15-15 0-8.284 6.716-15 15-15 8.284 0 15 6.716 15 15zm1 0c0 8.837-7.163 16-16 16s-16-7.163-16-16 7.163-16 16-16 16 7.163 16 16zM27.109 14.01c-.5.041-1.127.116-1.496.178a13.871 13.871 0 00-5.984 2.565c-.554.415-1.64 1.432-2.082 1.95a16.941 16.941 0 00-1.203 1.656c-.156.256-.344.6-.344.626 0 .009 5.402.015 12 .015 6.602 0 12-.006 12-.015 0-.027-.188-.37-.344-.626a16.926 16.926 0 00-1.203-1.656c-.442-.518-1.528-1.535-2.082-1.95-1.999-1.494-4.303-2.398-6.86-2.69-.39-.045-2.055-.08-2.402-.054zM15.35 22.338c-.725 1.825-1.341 3.444-1.341 6.026 0 2.261.483 3.355 1.044 4.625.14.319.286.648.43 1.01h24.945c.132-.294.267-.56.399-.82C41.445 31.96 42 30.867 42 27.5c0-2.657-1.589-5.517-1.589-5.517l-.417.027c-.546.035-16.543.035-21.022 0l-3.48-.027-.142.356zM39.656 23c1.658 2.232 1.949 7.105 0 10H16.272c-2.19-4.484-1.005-7.467-.092-9.769l.092-.231h23.384zM17 25v-1h7v2.53h-1v-.404l-.006-.147c-.022-.582-.032-.846-.77-.979H20v2.5h3v1h-3V31h2.437c.546 0 .563-.625.563-1.143v-.372h1V32h-7v-1c.682-.033 1-.274 1-.767v-3.43c-.004-.148-.001-.294.001-.434.013-.763.023-1.363-1.001-1.369zm9 0c.533 0 1 .088 1 .634v4.782c0 .423-.17.584-1 .584v1h4v-1c-.563 0-1-.119-1-.584v-4.731c0-.498.536-.685 1-.685v-1h-4v1zm6 0c-.011-.321 0-1 0-1h4v1a3.469 3.469 0 01-.175.001c-.233-.002-.381-.003-.603.194-.194.174-.21.375-.222 2.805-.006 1.215-.01 2.85 0 3h2.749c.256-.19.253-.478.25-.77A3.8 3.8 0 0138 30h1v2h-7v-1a5.55 5.55 0 01.102 0c.284.004.526.007.744-.225.165-.177.164-.471.155-2.373l-.001-.12V25.64c0-.444-.425-.639-1-.639zM16 35.024c0 .012.115.215.258.453 2.83 4.76 8.444 7.274 14.13 6.325 3.564-.594 6.795-2.609 8.826-5.504.254-.364.786-1.226.786-1.274 0-.015-5.398-.024-12-.024-6.598 0-12 .009-12 .024z" fill="#fff"/></svg>