<svg width="56" height="56" viewBox="0 0 56 56" xmlns="http://www.w3.org/2000/svg"><path fill="url(#aloaly2lj)" d="M0 0h56v56H0z"/><path d="M36 14a3 3 0 1 1-6 0 3 3 0 0 1 6 0Zm-11.92 1.23.87 2.19 2.38-4.65-4.87-1.65.5 1.27A16.73 16.73 0 0 0 11 28.32C11 37.53 18.61 45 28 45c5.97 0 11.21-3.02 14.25-7.58l-2.81-1.2A14.09 14.09 0 0 1 28 42c-7.73 0-14-6.11-14-13.66 0-6.21 4.26-11.46 10.08-13.11Zm13.84-.46-1.36 2.77a13.52 13.52 0 0 1 4.61 15.44l2.75 1.22a16.56 16.56 0 0 0-6-19.42ZM19 31v4.66c.42.88 1.84 2.97 5 4.3V31h.58l-3.1-2.6-3.15 2.6H19Zm18 4.66V26h1.08l-3.32-3L31 26h1v13.95c3.16-1.32 4.58-3.4 5-4.29ZM25.5 29v11.73c.44.12 1.33.36 2.6.36a6.9 6.9 0 0 0 2.4-.36V29h.6l-3.12-2.96L24.72 29h.78Z" fill="url(#bloaly2lj)"/><defs><linearGradient id="aloaly2lj" x1="28" y1="0" x2="28" y2="56" gradientUnits="userSpaceOnUse"><stop stop-color="#F9EC3E"/><stop offset="1" stop-color="#F9C62D"/></linearGradient><linearGradient id="bloaly2lj" x1="27.99" y1="11" x2="27.99" y2="45" gradientUnits="userSpaceOnUse"><stop stop-color="#0498DE"/><stop offset=".81" stop-color="#2B5585"/><stop offset="1" stop-color="#363980"/></linearGradient></defs></svg>