<svg width="56" height="56" viewBox="0 0 56 56" xmlns="http://www.w3.org/2000/svg"><path fill="#F0F3FA" d="M0 0h56v56H0z"/><ellipse rx="5.96" ry="8.12" transform="matrix(.83839 .54507 -.55545 .83155 16.5 24.08)" fill="#DCDDDE"/><ellipse rx="4.54" ry="6.64" transform="matrix(.8906 .45478 -.46459 .88553 16 22.88)" fill="#00A651"/><path fill="#fff" d="m16.88 22.45.79.53-5.88 8.4-.79-.54zM20.8 17.77l.73.6-2.7 3.23-.73-.59zM15.34 16.7l.86-.41 1.83 3.79-.86.4zM19.64 21.95l.31-.88 4.02 1.4-.32.88z"/><circle cx="12" cy="31" r="3" fill="#0C4DA2"/><circle cx="12.21" cy="31.79" r=".79" fill="#fff"/><circle cx="18" cy="22" r="2" fill="#0C4DA2"/><circle cx="17.36" cy="22.26" r=".99" fill="#fff"/><circle cx="21.5" cy="17.5" r="1.5" fill="#0C4DA2"/><circle cx="21.15" cy="17.56" r=".68" fill="#fff"/><circle cx="15" cy="15" r="2" fill="#0C4DA2"/><circle cx="14.61" cy="15.44" r=".61" fill="#fff"/><circle cx="24.25" cy="23.25" r="1.75" fill="#0C4DA2"/><circle cx="24.71" cy="23.75" fill="#fff" r=".68"/><path d="m17.9 36.05-.49.95h1.71v-.95l1.86-7.47L22.13 37h2l5.18-8.42-1.77 7.76-.32.66h3.05l-.15-.95 2.06-8.68.43-.37h-3.64l-4.47 7.28L23.46 27h-3.35l-2.2 9.05Zm16.35.95h-3.03l2.43-10h7.64l-.18 1.66-.55-.66h-4.34l-.7 3h4.15l.47-.1-.43 1.43-.4-.33h-4l-1.06 4.53V37Zm7.7-10h3.17l-2.25 9h4.51l.62-.46-.62 1.46h-7.7l2.27-10Z" fill="#0C4DA2"/></svg>