<svg xmlns="http://www.w3.org/2000/svg" width="56" height="56"><path fill="#F0F3FA" d="M0 0h56v56H0z"/><path d="M45 31h2v9c-1.61 0-2-1.13-2-1.58V31zm-28.55 9H25c0-7.34-3.43-8-6.87-8H10c0 7.45 3.79 8 6.45 8z" fill="#1E3B77"/><path d="M33.45 22H42c0-7.34-3.43-8-6.87-8H27c0 7.45 3.79 8 6.45 8z" fill="url(#aqsfduoyw)"/><path d="M18.55 22H10c0-7.34 3.43-8 6.87-8H25c0 7.45-3.79 8-6.45 8z" fill="url(#bqsfduoyw)"/><path d="M35.55 31H27c0-7.34 3.43-8 6.87-8H42c0 7.45-3.79 8-6.45 8z" fill="url(#cqsfduoyw)"/><path d="M10 31h15c0-7.34-3.43-8-6.87-8H10v8z" fill="url(#dqsfduoyw)"/><path fill-rule="evenodd" d="M44 36a4 4 0 01-6 3.46v2.4c0 .56-.39 1.14-2 1.14V32h2v.53A4 4 0 0144 36zm-6 .02v-.04a2 2 0 110 .04zm-3.3 1.5A4 4 0 0127 36a4 4 0 117.87 1H29c.15.34.94 1.01 2 1a3.2 3.2 0 001.75-.48h1.95zM31.03 34c-1.21-.01-1.86.66-2.03 1h4c-.15-.33-.76-.99-1.97-1z" fill="#1E3B77"/><defs><linearGradient id="aqsfduoyw" x1="40.13" y1="15.53" x2="29.91" y2="20.61" gradientUnits="userSpaceOnUse"><stop offset=".24" stop-color="#1E3B77"/><stop offset="1" stop-color="#6CB648"/></linearGradient><linearGradient id="bqsfduoyw" x1="12.08" y1="15.74" x2="23.52" y2="20.11" gradientUnits="userSpaceOnUse"><stop offset=".21" stop-color="#1E3B77"/><stop offset="1" stop-color="#6CB648"/></linearGradient><linearGradient id="cqsfduoyw" x1="28.98" y1="24.77" x2="40.77" y2="28.56" gradientUnits="userSpaceOnUse"><stop stop-color="#6CB648"/><stop offset=".74" stop-color="#1E3B77"/></linearGradient><linearGradient id="dqsfduoyw" x1="23.13" y1="24.35" x2="9.71" y2="30.35" gradientUnits="userSpaceOnUse"><stop stop-color="#6CB648"/><stop offset=".72" stop-color="#1E3B77"/></linearGradient></defs></svg>