<svg xmlns="http://www.w3.org/2000/svg" width="56" height="56" viewBox="0 0 56 56"><path fill="#F0F3FA" d="M0 0h56v56H0z"/><path d="M35 35v-3H24v-7.98h8V27l-5 .01V30h8v-9H21v14h14z" fill="#17467B"/><path d="M45 27.7C45 18.31 37.31 11 28.07 11c-4.99 0-9.5 2.18-12.56 5.7 3-2.9 7.66-4.7 12.13-4.7C36.87 12 44 19.68 44 28.5c0 5.76-2.38 9.5-2.38 9.5S45 33.86 45 27.7z" fill="#C91B34"/><path d="M25.84 44c.44 0 1 0 1.39-.15.66-.24.93-.61 1.22-1.02.19-.27.39-.55.72-.82.49-.4 2.3-.9 3.6-1.23 1.3-.33 2.25-1.48 2.25-1.48s.22-.3.5-.3.48.22.48.52a.7.7 0 0 1-.17.4c-1.5 1.9-2.83 2.05-2.83 2.52 0 .23 2.2-.82 2.9-1.38 1.39-1.14 1.56-1.91 2.25-3.6 0 0 .22-.46.52-.46.26 0 .33.37.33.6 0 .3-.36 1.64-.85 2.48C36.23 43.45 31.4 45 27.73 45 18.53 45 11 37.76 11 28.42c0-4.55 1.96-9.03 4.84-12.07A17.43 17.43 0 0 0 12 27.5c0 8.62 5.7 15.11 13.84 16.5z" fill="#009C52"/></svg>