<svg xmlns="http://www.w3.org/2000/svg" width="56" height="56"><path fill="#005FA9" d="M0 0h56v56H0z"/><path d="M18.93 23.73l-.33.23-1.15-2.33c-.2-.41-.72-.6-.95-.65a124.2 124.2 0 00-4.2-.48c-.3 0-.43.22-.45.34l-.21 6.03 6.06.14-.14.48-5.6.4c-.4.01-.5.24-.5.36V34c.02.27.27.36.39.36A37.2 37.2 0 0016.5 34c.94-.1 1.37-.48 1.47-.65l1.44-2.11.29.31-.73 3.45H6c0-.35.3-.48.46-.5L8 34.36V21.3c0-.36-.3-.5-.48-.53l-1.3-.26-.1-.5H18.6l.33 3.73zm6.73.27l-5.24.59c-.33.07-.17.4 0 .4l1.1.11c.37.07.47.3.48.46.05 2.72-.01 8.21 0 8.43.01.22-.15.34-.36.4l-1.22.24-.09.37h8.01l-.14-.37c-.57-.06-1.78-.18-2.18-.24-.37-.05-.37-.26-.36-.4.16-1.8.54-3.27.7-3.78C27.8 26.15 28.8 26 29.64 26c.84 0 1.64 1.35 2.04 2.17l.35-.22-.24-3.67a2.4 2.4 0 00-1.03-.28c-3.03 0-4.55 4.38-4.93 6.58h-.16c.1-2 .33-6.05.36-6.3.03-.25-.23-.29-.36-.28z" fill="#fff"/><path d="M37.5 22a1.5 1.5 0 100-3 1.5 1.5 0 000 3zm-4.24 3.82l3.32-2.87c.25-.21.73-.44.99.15l.51 2.86c.03.19.18.65.56.97-.28 0-.92-.26-1.22-1.33L35.83 33c-.15.61-.52 1.86-.81 2-.3.12-.27-1.66-.22-2.57l.39-5.97c-.19.1-.67.28-1.09.28-.63 0-1.38-.35-.84-.92z" fill="#FFA04B"/><path d="M49.32 24.56l.21 2.73-.37.19-1-1.71c-.53-.98-2.1-1.22-2.9-1.21-.85.03-2.59.42-2.67 1.76-.09 1.35 2.74 1.9 3.96 2.07 1.23.16 3.42.86 3.45 2.51.03 2.07-2.45 3.83-6.07 4.06-2.9.18-4.37-.26-4.74-.5l-.2-2.79.38-.16c.87 2.68 2.52 3.03 3.95 2.94 1.42-.09 2.9-.44 3.08-1.85.14-1.13-2.22-1.67-3.41-1.8-3.54-.4-4.13-1.98-3.99-2.83.56-3.5 5.24-3.97 7.55-3.97 1.22 0 2.56.34 2.77.56z" fill="#fff"/></svg>