<svg width="56" height="56" xmlns="http://www.w3.org/2000/svg"><path fill="#ED1C24" d="M0 0h56v56H0z"/><path d="M34.003 31H43l-5.259 9.254s-.864 1.82-2.085 2.278c-.335.126-.7.468-4.348.468-.387-.013-8.482 0-8.482 0s-2.426.105-3.688-.688c-.71-.445-1.894-2.18-2.393-3.238-.455-.967-4.882-8.559-4.882-8.559s-1.06-1.833-.83-2.941c.174-.85.341-1.625.966-2.509.258-.366 5.085-8.75 5.085-8.75s1.292-2.132 1.864-2.483c.573-.35 1.41-.832 2.716-.832h11.433s3.254.004 4.649 2.652C38.948 17.935 43 25 43 25h-9s-2.275-4.878-8.233-3.868c-1.107.188-3.772 1.07-3.772 2.302 0 .775.637 1.478 1.624 1.566h2.61s1.617-.29 1.771 1.106v3.513s-.038 1.403-2.056 1.381c-.671-.007-2.72 0-2.72 0s-1.229.233-1.229 1.328 1.75 2.432 5.282 2.672c1.225.083 4.269-.096 6.462-3.37.176-.261.264-.63.264-.63z" fill="#fff"/></svg>