<svg width="56" height="56" viewBox="0 0 56 56" xmlns="http://www.w3.org/2000/svg"><path fill="#F0F3FA" d="M0 0h56v56H0z"/><path d="M18 20h1v3.9c0 .02.02.04.03.05.02.02.04.05.07.05h2.22c.04 0 .07.01.07.05v.89c0 .03-.02.06-.06.06h-2.2a.13.13 0 0 0-.09.03c-.02.03-.04.06-.04.09v8.84l-.02.03h-.03l-.9.01-.04-.01-.01-.04v-8.84a.1.1 0 0 0 0-.04.1.1 0 0 0-.07-.06h-.04L16.25 25l-.06-.03a.08.08 0 0 1-.02-.06v-.82c0-.04.03-.1.08-.09h1.53c.15 0 .22-.16.22-.28V20ZM23 20h1v5.83c0 .16.06.17.16.05 1.46-1.93 4.5-2.62 6.5-1.04.48.38.87.98 1.03 1.56.2.75.31 1.52.31 2.31v5.18c0 .06-.03.11-.08.11h-.84c-.03 0-.05-.04-.06-.06-.02-.01-.02-.03-.02-.05v-5.74c-.02-2.05-1.52-3.4-3.64-3.1-2 .3-3.34 2.36-3.36 4.2v4.66c0 .07-.08.09-.15.09h-.77a.1.1 0 0 1-.07-.06.1.1 0 0 1-.01-.05V20Z"/><path d="M12.95 21h-7.9c-.03 0-.05.02-.05.04v.92c0 .02.02.04.05.04h7.9c.03 0 .05-.02.05-.04v-.92c0-.02-.02-.04-.05-.04Z" fill="#9B1A1D"/><path d="M48.2 25.32c-.75.57-.9 1.46-.24 2.07.37.33.71.66 1.14.84 1.14.5 2.7 1.33 2.87 2.6.16 1.19-.32 2.12-1.43 2.81-.26.17-.54.27-.83.3-1.47.22-2.7-.19-3.68-1.2-.04-.05-.04-.09 0-.13l.62-.69.03-.02a.09.09 0 0 1 .07 0l.03.03c.53.66 1.2 1.1 2.23 1.07 1.03-.02 1.73-.66 1.92-1.39.14-.55-.1-1.15-.55-1.49-1.11-.82-2.68-1.1-3.5-2.22a2.39 2.39 0 0 1-.4-1.73c.26-1.42 1.4-2.25 2.87-2.16a4.43 4.43 0 0 1 2.61 1.27v.03l-.01.01-.64.67c-.02.02-.05.02-.08 0-.68-.71-2.11-1.36-3.04-.67Z"/><path fill-rule="evenodd" d="M9.84 32.94c-2.16.42-4.8-1.36-4.76-3.75 0-.07.03-.19.1-.19h8.94c.05 0 .1-.04.09-.1-.03-.14-.05-.3-.06-.44A4.92 4.92 0 0 0 10 24.08a5.02 5.02 0 0 0-6 5.04c.07 2.15 1.58 4.37 3.87 4.78.73.14 1.52.13 2.35-.01a4.92 4.92 0 0 0 3.62-2.7c.01-.03 0-.05-.02-.07l-.86-.5a.06.06 0 0 0-.08.03 4.47 4.47 0 0 1-3.04 2.29Zm-.41-7.9a3.82 3.82 0 0 0-4.12 2.8c-.03.1 0 .16.12.16h7.36c.07 0 .1-.04.08-.11a3.8 3.8 0 0 0-3.44-2.85Z"/><path d="M43.62 30.91a5 5 0 1 0-9.24-3.82 5 5 0 0 0 9.24 3.82ZM43 29a4 4 0 1 1-8 0 4 4 0 0 1 8 0Z"/></svg>