<svg width="56" height="56" viewBox="0 0 56 56" xmlns="http://www.w3.org/2000/svg"><path fill="#F0F3FA" d="M0 0h56v56H0z"/><path fill-rule="evenodd" d="m33.25 14.5.43-.87c.3-.6 1-1.55 1.8-1.62.3-.03 1.1 0 2.45.07.98.06 1.84 2.2 2.05 2.85.07.21-.02.48-.25.78l-1.32 1.76a.23.23 0 0 0-.02.27c.17.34.38.68.62 1.02.3.42.46.77.5 1.04.2 1.48-.44 2.3-1.12 3.2-.37.48-.75.98-1.02 1.6-1.27 2.9-1.8 6.38-1.01 9.49.44 1.76.81 3.7.76 5.31-.09 2.64-1.42 4.81-4.56 4.58-1.07-.07-2-.23-2.78-.48a90 90 0 0 1-3.17-1.03c-.14-.05-.24-.06-.31-.01l-.8.49a.56.56 0 0 1-.65-.05 1.8 1.8 0 0 1-.69-1.21.52.52 0 0 0-.11-.28 2.6 2.6 0 0 0-.65-.58c-4.82-2.35-9.65-5.73-12.03-10.15a3.62 3.62 0 0 1-.35-2.05c.13-1.58 2.61-3 3.97-3.47.56-.2 1.38-.44 2.45-.74a21.29 21.29 0 0 0 9.4-5.35c.51-.52 1.19-1.44 2.02-2.77.44-.7 1.13-1.2 2.08-1.5.43-.14.93-.14 1.4-.13l.67-.01c.11-.01.19-.06.24-.16Zm2.15 2.84c.83.5 1.63 1.23 2.42 2.2a2 2 0 0 1 .4.82c.06.3.06.6-.02.9l-.03.06-.13.27c-.24.52-.59.59-1.03.2-.4-.34-.93-.87-1.6-1.58a8 8 0 0 0-1.36-1.05 8.1 8.1 0 0 0-1.52-.84c-.94-.34-1.65-.63-2.13-.86-.53-.25-.59-.58-.15-.98l.28-.26a2.3 2.3 0 0 1 1.84-.25c1.23.35 2.25.81 3.03 1.37Zm-.53 16.63c-.32-.2-.55-.35-.7-.48a42.89 42.89 0 0 0-5.62-4.04l-3.75-1.99a21.99 21.99 0 0 0-5.68-2.03 1.08 1.08 0 0 1-.36-.14.13.13 0 0 1-.05-.05.12.12 0 0 1 .01-.13.13.13 0 0 1 .06-.05c1.83-.7 3.68-1.52 5.55-2.45 1.2-.6 2.32-1.67 3.55-2.86l.68-.65c.21-.2.54-.37.97-.5.1-.04.2-.03.31 0 2.43.8 4.5 2.1 6.23 3.9.32.33.4.7.24 1.1-.1.3-.22.58-.34.87-.36.88-.74 1.81-.96 2.86-.3 1.46-.4 2.94-.28 4.44l.22 2.16a.05.05 0 0 1-.01.03l-.01.01a.05.05 0 0 1-.06 0ZM14.4 26.61c-.5.2-.88.5-1.18.88-.06.08-.05.17.03.25l.08.07.1.02c4.12.33 8.5 1.89 12.1 4.25.64.43 1.28.82 1.9 1.2a25.7 25.7 0 0 1 3.81 2.65A61.6 61.6 0 0 1 35.3 40a.3.3 0 0 0 .13.07.31.31 0 0 0 .28-.04.28.28 0 0 0 .09-.11c.13-.3.18-.66.13-1.1a6.33 6.33 0 0 0-2.21-4.15 42.64 42.64 0 0 0-9.47-6.28 30.93 30.93 0 0 0-5.31-2 6.76 6.76 0 0 0-4.55.22ZM19.16 33c1.4 1 2.63 1.92 3.68 2.8a.87.87 0 0 1 .3.9l-.59 2.29-.03.06a.18.18 0 0 1-.06.05.2.2 0 0 1-.16 0 12.9 12.9 0 0 1-1.92-1.03 26.69 26.69 0 0 1-7.04-6.39c-.46-.61-1.17-1.74-.8-2.4.49-.84 1.9-.32 2.58.07.28.15.6.43.96.82A20.22 20.22 0 0 0 19.16 33Zm-.54-1.87c.36.4.95.9 1.79 1.51.79.58 1.81 1.3 3.07 2.14.15.1.35.17.58.2.22.01.46 0 .7-.07l1.13-.45c.44-.18.47-.41.09-.69a28.47 28.47 0 0 0-7.28-3.71c-.37-.13-.54-.01-.5.36.03.19.17.42.42.71Zm5.53 6.82a2.78 2.78 0 0 0 2.38 3.2 2.9 2.9 0 0 0 3.27-2.42 2.78 2.78 0 0 0-2.39-3.19 2.9 2.9 0 0 0-3.26 2.4Zm7.16.99a15.96 15.96 0 0 1-2.19 2.66.23.23 0 0 0-.02.3l.09.07a7.43 7.43 0 0 0 4.38.9c.56-.04.93-.2 1.12-.45.86-1.2-1.12-3-2.09-3.58-.4-.24-1.02-.3-1.3.1Zm-3.06-12.75-.73.68c-.12.12-.29.2-.47.23a.92.92 0 0 1-.53-.08l-.71-.34c-.32-.15-.35-.33-.08-.55a18.95 18.95 0 0 0 4.07-4.55c.08-.12.27-.26.57-.41.2-.1.41-.1.66-.02 1.93.67 3.62 2.54 2.1 4.47-.74.94-2.05 1.63-3.33 1a6.56 6.56 0 0 0-1.25-.5.3.3 0 0 0-.3.07Zm1.88-2.46c-.36.6-.21 1.31.32 1.59.52.27 1.24.01 1.6-.59.35-.6.2-1.3-.33-1.58s-1.24-.02-1.6.58Z"/></svg>