<svg xmlns="http://www.w3.org/2000/svg" width="56" height="56" viewBox="0 0 56 56"><path fill="#E40011" d="M0 0h56v56H0z"/><path d="M24.72 25.62 19.38 20l-3 2.97 4.9 5.22-5.32 4.29 3.3 3.52 4.44-5.62L29.06 36l2.79-3.12-5.56-5.77 5.56-6.86-7.13 5.37Z" fill="#9D9B9E"/><path d="m26.95 27.7-.6-.65-1.61 2.19 2.2-1.54Z" fill="#1D2124"/><path fill-rule="evenodd" d="M11.97 28c.17-1.74-.35-5-3.78-5-3.44 0-4.22 3.06-4.19 4.59 0 1.47.85 4.4 4.19 4.4.76.02 2.45-.1 3.1-.69v-1.92c-.44.25-1.56.74-2.47.74-1.13 0-2.32-1.04-2.32-2.12h5.47Zm-5.41-1.74v.24h3.09v-.24c0-.7-.7-1.26-1.55-1.26-.85 0-1.54.56-1.54 1.26Zm22.16-.46v-1.95a7.92 7.92 0 0 1 3.26-.85c1.65 0 3.02 1.34 3.02 2.8V32h-2.26v-1.17c-.22.39-1.01 1.17-2.42 1.17-1.76 0-2.32-1.4-2.32-2.5s.55-2.93 4.74-3.09c0-.84-.6-1.52-1.36-1.52h-.09c-.41 0-1.5.17-2.57.91Zm4.04 2.2v.9c0 .6-.51 1.1-1.14 1.1h-.46a.94.94 0 0 1-.96-.92c0-.36.51-1.08 2.56-1.08ZM37 32v-9h2.39v1.72c.07-.57.7-1.72 2.61-1.72v2.5a2.19 2.19 0 0 0-1-.33c-.46 0-1.61.22-1.61 1.96V32H37Zm10.24-9c-2.07 0-3.74 1.8-3.74 4.02v.96c0 2.22 1.67 4.02 3.74 4.02h1.02c2.07 0 3.74-1.8 3.74-4.02v-.96C52 24.8 50.33 23 48.26 23h-1.02Zm.5 7.02c.97 0 1.76-1.13 1.76-2.51 0-1.39-.79-2.51-1.75-2.51-.97 0-1.75 1.12-1.75 2.5 0 1.4.78 2.52 1.75 2.52ZM12.39 23h2.9l1.36 3.15L18.22 23h2.7l-2.62 4.36L20.9 32h-2.88l-1.39-3.27L15.11 32h-2.73l2.49-4.64-2.5-4.36Z" fill="#F6FEFF"/></svg>