<svg width="56" height="56" viewBox="0 0 56 56" xmlns="http://www.w3.org/2000/svg"><path fill="#F0F3FA" d="M0 0h56v56H0z"/><path d="M4 34V21h12c1.65 0 3 1.32 3 2.95v7.1A2.98 2.98 0 0 1 16 34H4Zm14-11H5v9h13v-9Z" fill="#0094DE"/><path fill-rule="evenodd" d="M6 28.1a.93.93 0 0 1-.15-.43c.03-.11.1-.23.2-.34.2-.23.57-.46 1.22-.57l.7 1.1-1.44.78c-.09-.06-.32-.26-.52-.55Zm-.34 1c-.35-.34-.45-1.2.04-1.7.04-.08.1-.16.16-.23.26-.3.7-.55 1.43-.66.1-.1.25-.26.36-.4.12-.16.43-.21.8-.28.24-.04.5-.1.76-.18.23-.08.23-.38.23-.72 0-.57 0-1.27 1.08-1.27v.55c-.17-.04-.53 0-.53.44 0 .12.02.24.04.37.07.46.14.94-.65 1.17 0 .29.18.69.83 0 .01.23-.17.67-1 .67l-.45.58c.04.16.08.62 0 1.1-.08.48.27.71.45.77h-.87v-.59c-.1-.1-.35-.24-.59 0-.23.23-.47.28-.74.33l-.28.06c-.37.1-.37.1-.37.4v.81h1.25v-.62h1.83V27h3.55V29.7h1.84V30.32h1.24v-.8c0-.31 0-.31-.37-.41l-.27-.06c-.28-.05-.52-.1-.75-.33-.24-.24-.49-.1-.58 0v.59h-.87c.18-.06.52-.3.44-.77a3.42 3.42 0 0 1 0-1.1l-.44-.58c-.84 0-1.02-.44-1-.67.65.69.82.29.83 0-.8-.23-.73-.71-.66-1.17.02-.13.04-.25.04-.37 0-.44-.35-.48-.53-.44v-.55c1.08 0 1.08.7 1.08 1.27 0 .34 0 .64.24.72.25.09.52.14.76.18.36.07.68.12.8.28.1.14.25.3.36.4.72.1 1.17.36 1.43.66.06.07.11.15.15.22.5.52.4 1.37.04 1.72-.3.3-.13.94 0 1.21h.3v1.25H5.37v-1.25h.29c.13-.27.31-.9 0-1.21Zm10.77-1c.1-.14.14-.29.16-.43a.98.98 0 0 0-.2-.34c-.2-.23-.58-.46-1.23-.57l-.7 1.1 1.44.78c.09-.06.32-.26.53-.55Zm.4 2.47H5.6v.75h11.21v-.75ZM7.84 30h6.73v.28H7.85V30Zm4.9-2.66H9.69v2.32H10V28h2.5v1.66h.25v-2.32Zm-.5 2.32h-2v-.42l.07-.1c.08-.1-.01-.2-.08-.25v-.41c.22.03.6.06.77-.08.13-.12.23-.09.36-.05.07.02.16.05.27.05a.7.7 0 0 0 .4-.16h.21v1.42Z"/><path fill-rule="evenodd" d="M23.14 21A3.17 3.17 0 0 0 20 24.2v6.6c0 1.77 1.4 3.2 3.14 3.2H52V21H23.14ZM23 23v.6h.28c.4 0 .72.36.72.8v6.2c0 .44-.32.8-.72.8H23v.6h3.66v-.6h-.36c-.4 0-.72-.36-.72-.8v-2.98h1.73c.35 0 .65.28.7.66l.05.33h.34l-.23-2.7h-.25v.35a.7.7 0 0 1-.72.74h-1.62v-2.6c0-.44.33-.8.72-.8h1.26c.79 0 1.12.88 1.19 1.32h.44L29 23h-6Zm5 9h2.5v-.54h-.71c-.36 0-.6-.4-.43-.75l.54-1.12v.02h2.87l.47 1.13c.14.34-.09.72-.44.72h-.15V32H36v-.54h-.73L31.87 24l-3.37 7.46H28V32Zm4.52-3-1.08-2.62L30.18 29h2.34Zm2.73-.95c.07-1.35.93-4.05 3.83-4.05.48.02 1.58.19 2.13.69l.12-.48h.42l.3 2.2h-.42c-.22-.62-1.03-1.83-2.55-1.83-1.9 0-2.33 1.9-2.33 2.96 0 1.05.15 3.5 2.92 3.5a2.98 2.98 0 0 0 2.23-1.44l.41.17c-.42.74-1.7 2.23-3.41 2.23-2.15 0-3.65-1.57-3.65-3.95ZM42.79 24l-.25 1.84h.25l.59-1.05a.47.47 0 0 1 .4-.25h1.76v5.93c0 .43-.33.78-.72.78H44V32h4.49v-.75h-.73a.78.78 0 0 1-.76-.78v-5.93h1.87c.2 0 .36.12.44.3l.41 1h.36L49.72 24H42.8Z" fill="#0094DE"/></svg>