<svg width="56" height="56" viewBox="0 0 56 56" xmlns="http://www.w3.org/2000/svg"><path fill="#F0F3FA" d="M0 0h56v56H0z"/><path d="M20.6 36.92c1.35 2.36 3.57 4.65 6.68 6.86.28.2.25.27-.09.18-3.3-.78-6.06-2-8.28-3.64-2.97-2.2-4.25-5.07-3.84-8.62a26 26 0 0 1 1.6-6.2c.51-1.33 1.39-3.32 2.63-5.94l.91-1.96a21.21 21.21 0 0 0 1.6-5.25c.08-.43.24-.46.48-.1a34.7 34.7 0 0 0 5.48 6.28c.09.07.13.17.13.28 0 .11-.04.2-.13.28a39.88 39.88 0 0 0-5.96 6.69 12.45 12.45 0 0 0-2.31 5.45 8.8 8.8 0 0 0 1.1 5.69Z" fill="#0094DA"/><path d="M29.54 43.44a22.16 22.16 0 0 0 4.67-4.04 11.64 11.64 0 0 0 2.8-5.23c.5-2.52-.23-5.28-2.19-8.27a31.84 31.84 0 0 0-6.25-6.79.37.37 0 0 1-.13-.28c0-.12.04-.21.13-.29a28.88 28.88 0 0 0 5.3-6.15c.23-.36.4-.33.5.08.65 2.73 1.54 5.2 2.68 7.43a44.57 44.57 0 0 1 3.18 7.58c.81 2.84.98 5.49.5 7.95-.4 2.1-1.81 3.95-4.23 5.52a22.38 22.38 0 0 1-6.8 2.86c-.78.2-.84.08-.16-.37Z" fill="#FFCA08"/><path d="m23.48 24.89-.07.12c-.04.07-.02.12.05.15l4.48 2.14c.06.03.1.09.1.16.05 1.58.05 3.14.02 4.67 0 .06-.03.08-.09.05a419.7 419.7 0 0 0-7.09-3.41c-.19-.1-.23-.23-.13-.4l.15-.3c.38-.72.69-1.25.91-1.6a6.6 6.6 0 0 1 1.1-1.39c.15-.12.3-.33.45-.62.12-.25.24-.44.35-.56a82.99 82.99 0 0 1 4.03-4.29.2.2 0 0 1 .22-.04c.08.03.12.1.12.18v7.02c0 .05-.02.1-.07.12a.15.15 0 0 1-.15.01l-4.23-2.06c-.07-.03-.11-.02-.15.05ZM33.03 24.73l-4.58 2.18a.07.07 0 0 1-.08 0 .08.08 0 0 1-.04-.07l.02-7.02c0-.08.04-.14.12-.17a.17.17 0 0 1 .2.03 47.94 47.94 0 0 1 4.42 4.56.4.4 0 0 1 .1.19c.02.12.07.22.16.31a10.6 10.6 0 0 1 2.3 3.61c.08.17.03.3-.14.38l-7.05 3.4a.08.08 0 0 1-.08 0 .08.08 0 0 1-.03-.07c0-1.46 0-2.99-.02-4.57 0-.09.04-.15.12-.19l4.7-2.26c.07-.03.08-.08.05-.13l-.06-.14c-.02-.05-.06-.07-.11-.04Z" fill="#8EC63F"/><path d="m20.42 33.8-.06.12c-.05.1-.02.18.08.24l7.25 3.5c.23.11.36.3.36.56a194.32 194.32 0 0 1 .04 5.03h.14c.08 0 .12-.04.12-.12 0-1.64-.03-3.2-.08-4.7a.81.81 0 0 1 .5-.81l7.5-3.62c.25-.12.34-.05.27.22a13.27 13.27 0 0 1-2.98 5.25 20.8 20.8 0 0 1-4.68 3.94c-.23.14-.49.21-.76.2-.28 0-.53-.08-.75-.24-3.95-2.7-6.4-5.69-7.32-8.94a.49.49 0 0 1 .07-.42l.09-.11c.04-.07.03-.13-.03-.18-.39-.32-.51-1.03-.37-2.12.1-.7.28-1.48.56-2.33.03-.09.1-.15.18-.2.1-.03.19-.03.28.02l6.94 3.37c.15.08.23.2.24.37a48.71 48.71 0 0 1 .05 4.1h.17c.1 0 .14-.04.14-.13l-.04-3.92c0-.2.08-.33.26-.42l7.07-3.4c.2-.1.35-.05.41.16.45 1.38.69 2.6.72 3.64a.73.73 0 0 1-.45.73l-7.42 3.57c-.48.23-.95.23-1.43 0l-7-3.36c-.04-.02-.06-.01-.07 0Z" fill="#8EC63F"/></svg>