<svg xmlns="http://www.w3.org/2000/svg" width="56" height="56"><path fill="#F47A20" d="M0 0h56v56H0z"/><path d="M21.55 35.32c-.06 3.57-5 6.6-7.47 7.68 17.46-.95 24-12.72 25.22-15.42.98-2.17 3.53-3.44 5.7-3.69-2.42-3.84-5.34-2.75-6.92-1.65a18.86 18.86 0 01-6.11 2.85c-1.67.35-3.62-1.07-4.38-1.83-7.53-8.89-12.86-8.87-14.59-7.75l2.16 2.2c-.03.58-.11 1.45 0 2.34.05.46.93 1.26 1.36 1.6a2.4 2.4 0 000 2.49c.43.74 1.08 1.2 1.51 1.46-.02.44-.06 1.45 0 1.98.06.52.6 1.04.86 1.24.18 1 .55 1.39.72 1.46a9.57 9.57 0 011.94 5.04z" fill="#fff"/></svg>