<svg width="56" height="56" viewBox="0 0 56 56" xmlns="http://www.w3.org/2000/svg"><path fill="#F0F3FA" d="M0 0h56v56H0z"/><path d="M5 34h14.57l.94-3.4a1.5 1.5 0 1 1-.85-2.6 2.8 2.8 0 0 0-2.62-1.76 2.78 2.78 0 0 0-2.8 2.76 2.78 2.78 0 0 0 3.13 2.74L17 31h2l-1 2-.52-1.03A3.02 3.02 0 0 1 14 29c0-1.66 1.36-3 3.04-3 1.36 0 2.5.87 2.9 2.07.48.14.85.52 1 1L24 18 5 34Zm15.56-4.5a1.06 1.06 0 1 1-2.12 0 1.06 1.06 0 0 1 2.12 0Z" fill="#2E3191"/><circle cx="16" cy="26" r="1" fill="#E1242C"/><circle cx="15" cy="31" r="1" fill="#50B948"/><path d="M49.31 25a1.7 1.7 0 0 1 1.63 2.15l-.2.85h-2.42c.15-.58-.28-1-.86-1h-3.7c-.45 0-.84.18-.97.62l-.1.24c-.1.36.16.73.54.73h5.5c.94 0 1.61.9 1.35 1.82l-.53 1.86A2.37 2.37 0 0 1 47.28 34h-6.59a1.7 1.7 0 0 1-1.63-2.15l.2-.85h2.42c-.15.58.28 1 .86 1h3.84c.45 0 .84-.07.97-.5l.1-.36a.57.57 0 0 0-.54-.73h-5.5c-.94 0-1.61-.9-1.35-1.82l.53-1.86A2.37 2.37 0 0 1 42.86 25h6.45Z" fill="#2E3191"/><path d="m37.7 28.26.08-.38a.71.71 0 0 0-.7-.88h-3.8c-.63 0-1.19.43-1.34 1.04l-.72 3.08c-.1.45.23.88.7.88h4.17c.63 0 1.18-.4 1.33-1h2.91l-.3.93A2.75 2.75 0 0 1 37.38 34h-8c-.89 0-1.54-.83-1.33-1.68l1.29-5.24A2.75 2.75 0 0 1 32 25h7.62c.9 0 1.55.83 1.34 1.69l-.39 1.57H37.7Z" fill="#2E3191"/><path d="M22.49 25H32l-.63 2h-6.55l-.55 2H30l-.55 2h-5.73l-.83 3H20l2.49-9Z" fill="#2E3191"/></svg>