<svg width="56" height="56" viewBox="0 0 56 56" xmlns="http://www.w3.org/2000/svg"><path fill="#F0F3FA" d="M0 0h56v56H0z"/><path fill-rule="evenodd" d="M50 28c0 6.08-9.85 11-22 11S6 34.08 6 28s9.85-11 22-11 22 4.92 22 11Zm-2 0c0 4.97-8.95 9-20 9S8 32.97 8 28s8.95-9 20-9 20 4.03 20 9Zm-25-6.38v12.73c1.07.06 3.32.18 3.79.18.59 0 6.21-.94 6.21-6.82 0-4.71-4.14-6.08-6.21-6.18l-3.79.1Zm2 10.78v-8.88c2.25 0 6 .47 6 4.19 0 4.1-4 4.84-6 4.7Zm-10-.07 2 .94V29h4v-1.99h-4v-1.67l4-1.3V21.9l-6 1.85v8.6Zm27-8.7v2.1c-.7-.6-1.28-.85-2.38-.85-1.1 0-2.62.84-2.62 3.1 0 2.26 1.33 3.1 2.62 3.1A4.2 4.2 0 0 0 42 30.2v2.11a4.8 4.8 0 0 1-2.71.87c-1.6 0-4.29-.9-4.29-5.19s2.76-5.22 4.29-5.22c1.22 0 2.32.58 2.71.87Z" fill="#296D48"/></svg>