<svg xmlns="http://www.w3.org/2000/svg" width="56" height="56"><path fill="#F0F3FA" d="M0 0h56v56H0z"/><path d="M9.44 22.01c.22 1.07.65 3.9.72 7.4v3.26a.84.84 0 00.23 1.65c.46 0 .83-.38.83-.84 0-.33-.19-.62-.47-.75v-3.31c.07-1.6.3-5.3.73-7.42.53.08 1.04.23 1.51.42a22.69 22.69 0 00-1.27 6.25.84.84 0 00-.82.84c0 .46.37.83.83.83.46 0 .84-.37.84-.83a.84.84 0 00-.46-.75c.58-3.07 2.01-4.75 2.67-5.22.4.36.77.77 1.08 1.23a10.35 10.35 0 00-3.24 6.45.84.84 0 00-1.15.77c0 .46.37.84.83.84a.84.84 0 00.6-1.43 9.56 9.56 0 013.75-5.07A6.56 6.56 0 0110.5 35a6.52 6.52 0 01-6.16-8.63A9.35 9.35 0 018 31.3a.84.84 0 00.46 1.54c.46 0 .83-.38.83-.84a.84.84 0 00-1-.82 10.2 10.2 0 00-3.18-6.36c.3-.46.67-.87 1.08-1.24.66.51 2.04 2.17 2.61 5.14a.84.84 0 00.24 1.63c.46 0 .84-.37.84-.83 0-.41-.3-.75-.68-.83-.08-1.26-.42-4.1-1.26-6.23.47-.2.97-.35 1.5-.44z" fill="#4DB848"/><path fill-rule="evenodd" d="M19 22h33v13H19V22zm11.75 5a1.5 1.5 0 100-3 1.5 1.5 0 000 3zm0 0h-1.5v6h3v-6h-1.5zm0-.59a.91.91 0 100-1.82.91.91 0 000 1.82zM24 33v-1.93h2.55v-2.53H24c0-.69.09-1.77.88-1.76.8.02.9.94.86 1.4h2.92c.05-1.4-.65-4.18-3.78-4.18-3.14 0-3.9 2.55-3.9 3.82V33H24zm-1.34-7a2.8 2.8 0 00-.52 1.62v4.85h-.5v-4.85c0-.5.14-1.26.62-1.91.5-.66 1.33-1.17 2.67-1.17 1.03 0 1.8.45 2.3 1.06.5.6.75 1.37.75 2.02h-.5c0-.53-.2-1.19-.63-1.7a2.4 2.4 0 00-1.92-.88c-1.2 0-1.87.44-2.27.97zm.47.54c.32-.5.87-.9 1.8-.9.7 0 1.2.33 1.5.75.29.4.4.9.4 1.24h-.5c0-.25-.08-.64-.3-.95-.23-.3-.57-.54-1.1-.54-.76 0-1.15.31-1.37.67-.24.37-.3.82-.3 1.09v1.16h2.76v.5h-3.25V27.9c0-.32.06-.87.36-1.36zm-.36 3.53h3.25v.5h-2.75v1.9h-.5v-2.4zm7.12 2.42v-5.06h.5v5.06h-.5zm1.16-5.06v5.06h.5v-5.06h-.5zm9.45 1.24V33H43v-3.77c0-.29.17-.63.55-.63.37 0 .48.42.48.63V33h2.5v-3.77c0-.32.22-.63.56-.63.34 0 .48.4.48.63V33H50v-4.33c0-1.69-1.71-2.67-2.9-2.67-.85 0-1.55.41-1.8.61a2.88 2.88 0 00-1.75-.6 2.91 2.91 0 00-3.05 2.66zm2.98-2.18c.37 0 1.18.16 1.8.71.32-.32.92-.71 1.87-.71.72 0 1.32.36 1.73.83.4.48.65 1.1.65 1.65v3.52h-.5v-3.52c0-.42-.2-.92-.53-1.32-.34-.4-.8-.66-1.35-.66-1 0-1.5.51-1.65.73l-.19.26-.2-.24c-.51-.58-1.3-.75-1.62-.75-.82.04-1.3.39-1.6.8-.3.43-.4.94-.4 1.27v3.43h-.5v-3.43c0-.42.12-1.03.5-1.55a2.46 2.46 0 011.98-1.02h.01zm-1.22 1.68c.24-.35.64-.61 1.25-.61.56 0 .94.28 1.18.61.23.33.32.73.32 1v3.32h-.5v-3.31c0-.19-.07-.48-.23-.72a.89.89 0 00-.77-.4c-.45 0-.7.18-.84.39-.15.22-.2.51-.2.73v3.31h-.5v-3.31c0-.28.06-.68.3-1.01zm3.56 0c.24-.35.64-.61 1.26-.61.55 0 .93.28 1.17.61.23.33.32.73.32 1v3.32h-.5v-3.31c0-.19-.07-.48-.23-.72a.89.89 0 00-.76-.4c-.45 0-.7.18-.84.39-.16.22-.21.51-.21.73v3.31h-.5v-3.31c0-.28.06-.68.3-1.01zm-14.8-2.67a.28.28 0 11-.55 0 .28.28 0 01.55 0zm7.8 4.53l.95 2.3a5.9 5.9 0 01-2.67.67c-1.54 0-4.1-.77-4.1-3.49s2.57-3.53 3.84-3.51A3.9 3.9 0 0140 27.66l-2.31 2.77c.21-.01.73-.1 1.12-.4zM37.23 32c-1.42.03-3.05-.84-3.05-2.42 0-1.99 1.76-2.55 2.65-2.55.67 0 1.34.23 1.8.73l-.32.4a2.1 2.1 0 00-2.96-.08c-.38.37-.6.9-.6 1.5 0 .53.23.94.52 1.22.28.28.62.46.86.54h.02c.49.12 1.44.33 2.51-.17l-.21-.45c-.69.32-1.32.3-1.79.22l2.62-3.17-.12-.16a2.85 2.85 0 00-2.33-1.06c-1.2 0-3.15.72-3.15 3.03 0 1.86 1.86 2.95 3.56 2.92.8-.01 1.5-.28 1.81-.4l-.19-.47c-.3.12-.93.36-1.63.37zm-.4-3.99c.53 0 .95.3 1.16.53l-1.86 2.26a1.8 1.8 0 01-.5-.35 1.2 1.2 0 01-.38-.87c0-.48.17-.87.45-1.14a1.6 1.6 0 011.13-.43zm-.83 2.1l1.27-1.51c-.15-.1-.78-.26-1.22.3-.44.55-.24 1.02-.05 1.2z" fill="#F36F21"/></svg>