<svg xmlns="http://www.w3.org/2000/svg" width="56" height="56"><path fill="#0BB2F4" d="M0 0h56v56H0z"/><path d="M4 22h7v2H6v2h4v2H6v5H4V22zm29 1h2v10h-2V23zm-12.4 2a2.44 2.44 0 012.4 2.46V33h-2v-4.5c0-.79-.28-1.38-1.13-1.48-1.12-.1-1.88.67-1.87 1.77V33h-2v-8h2v1.35c.81-.9 1.39-1.38 2.6-1.34zM40 25c2.94 0 4 2.06 4 4.54h-6c.1 1.12 1.35 1.69 2.33 1.61.52-.04 1.41-.31 1.57-.78h2A3.6 3.6 0 0140.44 33c-2.77.09-4.44-1.5-4.44-4 0-2.84 2-4 4-4zm-2 3.24c1.15.02 2.85 0 4 .01 0-.8-1-1.41-2-1.41s-2 .62-2 1.4zM12 25h2v8h-2v-8zm32 0h2.65l1.38 2.33s.01 0 0 0L49.4 25h2.5l-2.68 3.94L52 33h-2.63l-1.43-2.4-1.39 2.4H44l2.7-4.07S44.89 26.31 44 25z" fill="#fff"/><circle cx="13" cy="23" r="1" fill="#fff"/><path fill-rule="evenodd" d="M28 31a2 2 0 100-4 2 2 0 000 4zm0 2a4 4 0 100-8 4 4 0 000 8z" fill="#fff"/></svg>