<svg xmlns="http://www.w3.org/2000/svg" width="56" height="56" viewBox="0 0 56 56"><path fill="#F0F3FA" d="M0 0h56v56H0z"/><path d="M26.96 33.53a1.99 1.99 0 0 1 1.21-.28c.43-.02.86.1 1.23.35l6.43 4.39c.9.62 1.13 1.86.49 2.76-.65.9-1.9 1.12-2.82.5l-3.5-2.4V43a2 2 0 1 1-4 0v-4l-3.8 2.6c-.91.63-2.17.4-2.82-.5-.64-.9-.42-2.13.5-2.76l6.8-4.65.28-.16z" fill="url(#avbncncom)"/><path d="M20.15 39.55c-.48 1.57 1.34 2.34 2.07 2.05-.67.47-2.74.9-4.65-.47-1.92-1.4-1.72-3.27-1.44-4.34l1.89-6.35-5.6-4c-.65-.66-.37-1.17-.3-2.3.05-.9 2.2-1.11 3.27-1.1l5.63 4.06c1.96 1.43 2 3.26 1.6 4.31l-2.47 8.14z" fill="url(#bvbncncom)"/><path d="M13.78 23.5c-1.7.05-1.92 2.3-1.4 2.88a4.37 4.37 0 0 1-1.15-4.56 4.09 4.09 0 0 1 3.8-2.82h6.95l2.13-6.5c.44-.8.9-.76 2.03-1.04.9-.23 1.81 1.7 2.16 2.7l-2.17 6.51c-.76 2.27-2.56 2.87-3.72 2.84h-8.63z" fill="url(#cvbncncom)"/><path d="M27.05 12.8c-.57-1.56-2.52-.97-2.93-.3a4.5 4.5 0 0 1 4.05-2.5c2.39 0 3.37 1.65 3.8 2.69L34.27 19h7.5c.92.15.46.7 1.09 1.65.5.77-1.1 2.22-1.96 2.85h-7c-2.44 0-3.58-1.49-3.9-2.57l-2.96-8.12z" fill="url(#dvbncncom)"/><path d="M35.96 39.55c.48 1.57-1.34 2.21-2.07 1.92a4.37 4.37 0 0 0 4.64-.34c1.93-1.4 1.73-3.27 1.45-4.34l-1.89-6.35 5.39-3.96A4.04 4.04 0 0 0 45 23.14C45 20.8 42.76 19 41.73 19c.82.83.93 2.45-.2 3.26L35.1 27.1c-1.97 1.43-2 3.26-1.6 4.31l2.47 8.14z" fill="#F03C3C"/><defs><linearGradient id="avbncncom" x1="37.75" y1="38.99" x2="18.07" y2="38.99" gradientUnits="userSpaceOnUse"><stop stop-color="#251E4C"/><stop offset=".5" stop-color="#3C3273"/><stop offset="1" stop-color="#251E4C"/></linearGradient><linearGradient id="bvbncncom" x1="19.91" y1="28.69" x2="15.33" y2="24.04" gradientUnits="userSpaceOnUse"><stop stop-color="#F03C3C"/><stop offset="1" stop-color="#8B2126"/></linearGradient><linearGradient id="cvbncncom" x1="23.94" y1="20.1" x2="26.46" y2="11.79" gradientUnits="userSpaceOnUse"><stop stop-color="#F03C3C"/><stop offset="1" stop-color="#8B2126"/></linearGradient><linearGradient id="dvbncncom" x1="33.53" y1="21.02" x2="41.75" y2="22.05" gradientUnits="userSpaceOnUse"><stop stop-color="#F03C3C"/><stop offset="1" stop-color="#8B2126"/></linearGradient></defs></svg>