<svg xmlns="http://www.w3.org/2000/svg" width="56" height="56"><path fill="#0095DA" d="M0 0h56v56H0z"/><path d="M8.2 24h3.25L11 26H7.77l-.62 3H5l1.67-8h6.02l-.4 2H8.43l-.23 1zm4.84-1h2l-1.2 6h-2.05l1.25-6zm.12-.57l.3-1.43h2.05l-.3 1.43h-2.05zm5.2.57l-.13.64c.46-.56 1.1-.83 1.88-.83.57 0 1.01.1 1.32.32.38.27.57.66.57 1.17 0 .26-.04.57-.13.94L21.12 29h-2.04l.69-3.45c.06-.3.1-.53.1-.68 0-.2-.07-.37-.2-.49a.8.8 0 00-.49-.13c-.3 0-.56.1-.78.33-.22.22-.38.55-.48.98L17.24 29H15.2l1.21-6h1.95zm16.09-2h2.05l-1.68 8h-2.04l1.67-8zm6.09 6.22h2.02c-.2.65-.6 1.14-1.2 1.46a4.3 4.3 0 01-2 .4c-1 0-1.73-.22-2.21-.68a2.47 2.47 0 01-.72-1.88c0-1.08.34-1.96 1.02-2.63a3.67 3.67 0 012.65-.94c.97 0 1.7.21 2.18.65.46.43.69 1.01.69 1.76 0 .34-.05.7-.14 1.1h-4.29c-.03.1-.04.22-.04.38 0 .3.09.54.26.7.18.18.43.27.76.27.28 0 .5-.05.67-.15.16-.1.28-.25.35-.44zm-1.78-1.8h2.18c.05-.16.05-.33.01-.53a.79.79 0 00-.2-.45c-.15-.15-.37-.22-.66-.22-.37 0-.66.11-.88.34-.2.2-.35.5-.45.86zm8.1-.66L48 22.99h2.22l-2.49 2.94L49.24 29h-2.17l-.72-1.79-1.4 1.79h-2.23l2.8-3.12L43.85 23h2.2l.8 1.76zM21.38 32H5.13v-1h16.25v1zm28.75 0h-17.5v-1h17.5v1z" fill="#fff"/><path fill-rule="evenodd" d="M23.91 30.54c2 1.67 5.28 1.04 7.34-1.41 2.07-2.46 2.13-5.8.13-7.48-1.99-1.67-5.27-1.04-7.34 1.41-2.06 2.46-2.12 5.8-.13 7.48zm2.67-1.46c1.05.36 2.36-.68 2.94-2.33.58-1.65.2-3.28-.84-3.65-1.04-.37-2.36.68-2.94 2.33-.58 1.65-.2 3.28.84 3.65z" fill="#fff"/><path d="M13 38h-.66l.68-4h.66L13 38zm4.1 0h-.64l-1.22-2.9-.49 2.9h-.66l.68-4h.64l1.22 2.9.49-2.9h.66l-.68 4zm1.05 0l.68-4h1.05c1.1 0 1.57 1 1.45 1.95l-.03.21c-.15 1.04-.96 1.84-2.02 1.84h-1.13zm1.25-3.45l-.5 2.9.4.01c.84 0 1.27-.7 1.36-1.46.07-.6.03-1.43-.77-1.45h-.5zm5.97-.55l-.44 2.7a1.53 1.53 0 01-1.62 1.36c-.39 0-.7-.13-.92-.36a1.13 1.13 0 01-.31-.9v-.1l.45-2.7h.66l-.44 2.7c-.03.26 0 .45.1.6.11.13.28.2.5.21.24 0 .44-.06.6-.2a.97.97 0 00.3-.59l.46-2.72h.66zm7.12.55H31.3L30.72 38h-.66l.59-3.45h-1.17l.1-.55h3l-.1.55zm1.95 1.85h-.75l-.35 1.6h-.67l.77-4h1.24c.42 0 .75.1.97.3.23.21.32.5.3.86-.03.25-.11.47-.26.66-.15.18-.36.33-.62.43l.48 1.71V38h-.7l-.41-1.6zm-.66-.54h.64c.23 0 .43-.06.58-.18a.72.72 0 00.28-.49c.02-.2-.01-.36-.11-.46-.1-.11-.25-.17-.45-.18H34l-.23 1.3zm3.2 2.14h-.66l.77-4h.66l-.77 4zm3.61-1.84h-1.56l-.21 1.3h1.82l-.1.54h-2.48l.68-4h2.47l-.1.55h-1.8l-.19 1.08h1.56l-.1.53zm-12.43.81c.04-.27-.1-.47-.42-.6l-.22-.08c-.4-.15-.7-.33-.86-.53a.97.97 0 01-.23-.7c.01-.24.08-.44.22-.62.14-.17.32-.3.54-.4.23-.1.47-.15.72-.14.24 0 .46.06.65.17.19.1.33.25.43.44.1.19.15.4.14.64h-.66c.01-.21-.03-.38-.14-.5-.1-.12-.25-.18-.46-.18-.2 0-.39.05-.53.15a.62.62 0 00-.25.43c-.04.24.11.43.45.57l.2.07c.41.15.7.34.86.54.17.2.24.45.22.74-.02.23-.1.43-.22.6-.13.17-.3.3-.53.4-.22.09-.47.13-.74.13a1.5 1.5 0 01-.7-.17 1.17 1.17 0 01-.63-1.12h.66c-.01.23.04.4.17.53.12.13.3.2.53.2a.9.9 0 00.54-.14.6.6 0 00.26-.43zm15.37 0c.03-.27-.1-.47-.43-.6l-.21-.08c-.4-.15-.7-.33-.87-.53a.97.97 0 01-.23-.7c.02-.24.1-.44.23-.62.14-.17.32-.3.54-.4.22-.1.46-.15.72-.14.24 0 .46.06.65.17.19.1.33.25.43.44.1.19.15.4.14.64h-.66c.01-.21-.03-.38-.14-.5-.1-.12-.25-.18-.46-.18-.21 0-.39.05-.53.15a.62.62 0 00-.26.43c-.03.24.12.43.46.57l.2.07c.41.15.7.34.86.54a1.14 1.14 0 010 1.34c-.13.17-.3.3-.53.4-.22.09-.47.13-.74.13a1.5 1.5 0 01-.7-.17 1.17 1.17 0 01-.63-1.12h.66c-.01.23.04.4.17.53.12.13.3.2.53.2a.9.9 0 00.53-.14.6.6 0 00.27-.43z" fill="#fff"/></svg>