<svg width="56" height="56" viewBox="0 0 56 56" xmlns="http://www.w3.org/2000/svg"><path fill="#F0F3FA" d="M0 0h56v56H0z"/><path d="M13 19.44V15l10.06 5.8A7.66 7.66 0 0 1 27 27.32v9.02l-.26.43c-.37.6-.88 1.43-.88 1.7C27.22 38.92 28 43 28 47c-.73-3.02-4.55-7.04-6.36-8.67l1.36-.3V34l-10-6.11v-4.45l10 6.12v-4.2l-10-5.92ZM28 47c0-4 .78-8.09 2.14-8.53 0-.28-.5-1.1-.88-1.7l-.26-.44v-9.02a7.66 7.66 0 0 1 3.94-6.5L43 15v4.44l-10 5.92v4.2l10-6.12v4.45L33 34v4.03l1.36.3C32.2 40.1 28.73 43.98 28 47Z" fill="#EF3438"/></svg>