<svg width="56" height="56" viewBox="0 0 56 56" xmlns="http://www.w3.org/2000/svg"><path fill="#F0F3FA" d="M0 0h56v56H0z"/><path fill="#9D9E9E" d="M26 23h2v2h-2zM6 29v4H4V23h5v2H6v2h3v2H6ZM11 23h2v10h-2zM26 26h2v7h-2zM20 33l1.49-3.8-1.43-3.2h1.82l.8 1.8.7-1.8h1.46l-1.41 3.45L25 33h-1.83l-.89-2.02-.75 2.02H20ZM16.55 33c-.56 0-1.03-.09-1.4-.27a1.92 1.92 0 0 1-.86-.8c-.2-.37-.29-.8-.29-1.3v-2.27c0-.51.1-.94.29-1.28.2-.35.48-.62.86-.8.39-.19.85-.28 1.4-.28.57 0 1.04.1 1.4.28.36.19.62.46.79.82.17.36.26.8.26 1.31v1.18h-3.04v1.31c0 .2.02.36.06.48.05.13.12.22.21.27.09.05.2.07.33.07.12 0 .23-.02.31-.07.1-.05.17-.13.21-.24.05-.11.07-.26.07-.44v-.64h1.84v.56c0 .69-.21 1.21-.63 1.57-.42.36-1.03.54-1.81.54Zm-.6-4.25h1.2v-.67c0-.2-.02-.35-.07-.46a.42.42 0 0 0-.2-.26.64.64 0 0 0-.35-.08.6.6 0 0 0-.33.08.54.54 0 0 0-.18.3c-.04.12-.06.31-.06.56v.53Z"/><path d="M30 25v-2h6v2h-2v8h-2v-8h-2ZM38 26h-2v5.5c0 1 1 1.5 2 1.5.8 0 1.67-.67 2-1v1h2v-7h-2v5c0 .17-.2.5-1 .5s-1-.67-1-1V26ZM44.5 28v5h2v-5h2v5h2v-5H52v-2h-1.5c0-.8.33-1 .5-1h1v-2h-1.5c-1.6 0-2 1.33-2 2v1h-2c0-.8.33-1 .5-1h1v-2h-1.5c-1.6 0-2 1.33-2 2v1H43v2h1.5Z" fill="#C56335"/></svg>