<svg xmlns="http://www.w3.org/2000/svg" width="56" height="56"><path d="M0 28a28 28 0 1156 0 28 28 0 01-56 0z" fill="#F0F3FA"/><path d="M10 21h10v2h-8v4h7v2h-7v7h-2V21z" fill="#232A8F"/><path d="M36 21h10v2h-8v4h7v2h-7v7h-2V21z" fill="#27278B"/><path d="M25 21h-2v15h10v-2h-8V21z" fill="#1A2087"/><path d="M20.97 38V20h.47v18h-.47zm13.56 0V20H35v18h-.47z" fill="#686965"/><path d="M47.72 21.07l-.68.93c1.21-.13 1.75-.53 2.29-1.47.15-.26.67-.53.67-.53l-.5-.17-.44.3-.54.14c-.28-.57-1.26-1.33-1.48-1.27-.17.06.17 1.7.68 2.07z" fill="#F16A0B"/></svg>