<svg width="56" height="56" viewBox="0 0 56 56" xmlns="http://www.w3.org/2000/svg"><path fill="#F0F3FA" d="M0 0h56v56H0z"/><path d="m22.5 36 3.05-16h11.88l-.65 3h-8.46l-.54 3h8.43l-.58 3h-8.4l-1.38 7H22.5Zm17.1-16-3.13 16H46l1-3h-6.47l2.69-13h-3.63Z" fill="#1279BE"/><path fill-rule="evenodd" d="M30.76 38.2c10.14-2.3 17.35-8.7 16.1-14.33-1.25-5.63-10.48-8.34-20.62-6.06-10.14 2.28-17.35 8.7-16.1 14.32 1.25 5.63 10.48 8.34 20.62 6.06Zm-.49-2c9.32-2.12 16-7.85 14.91-12.8-1.08-4.94-9.52-7.23-18.83-5.1-9.32 2.11-16 7.84-14.92 12.8 1.09 4.94 9.52 7.23 18.84 5.1Z" fill="#899589"/><path d="m21.38 23 .66-3h-4.16C7.4 19.78 6 27.75 6 28.9c0 .92.09 1.56.13 1.76 1.4.84 3.97 1.18 5.08 1.25a4.35 4.35 0 0 1-1.52-3.67c.42-3.05 3.4-4.93 4.83-5.24h6.86Z" fill="#1279BE"/><path d="M13.13 32.58c-4 0-6.24-.82-6.86-1.23 0 .3 1.66 4.65 6.1 4.65 3.57 0 6.11-1.59 6.94-2.38L18.9 36h2.3l1.99-10h-8.37l-.67 3h4.53c-.18.98-1.52 3.58-5.54 3.58Z" fill="#38A44D"/></svg>