<svg width="56" height="56" viewBox="0 0 56 56" xmlns="http://www.w3.org/2000/svg"><path fill="#F0F3FA" d="M0 0h56v56H0z"/><path d="M18.7 37.3c-4.26-10.01 2.26-16.09 5.8-17.77l2.47 4.63c-2.02.86-5.64 4.1-3.97 10.18 3.45 6.99 9.68 5.94 12.36 4.54l2.64 4.8c-4.83 2.11-15.42 2.75-19.3-6.37Z" fill="url(#abckwanrb)"/><path d="m28.45 26.87-1.5-2.7c2.16-1.25 7.41-2.56 11.15 2.19 4.48 5.76 0 11.62-2.74 12.69L33.9 36.4c.84-.7 4.49-3.72 1.87-7.84-2.1-3.29-5.74-2.5-7.3-1.7Z" fill="url(#bbckwanrb)"/><path d="m29.52 28.7-1.06-1.91a5.22 5.22 0 0 0-2.32 6.82c2.02 4.22 6.04 3.65 7.8 2.83l-1.05-1.92c-1.13.43-3.66.74-4.81-1.5-1.15-2.22.48-3.81 1.44-4.32Z" fill="url(#cbckwanrb)"/><path d="m30.3 29.98-.86-1.45c1.06-.45 3.47-.85 4.64 1.12 1.64 2.35-.1 4.3-1.17 4.97l-.87-1.48c.36-.4 1.39-1.54.65-2.6-.6-.86-1.84-.73-2.4-.56Z" fill="url(#dbckwanrb)"/><path d="M20.78 13.87c0 2.43 2.56 4.6 3.84 5.38.45-.77 1.32-2.93 1.21-5.38-.1-2.46-2.43-4.27-3.58-4.87a7.97 7.97 0 0 0-1.47 4.87Z" fill="url(#ebckwanrb)"/><path d="M24.03 19.44c-6.35.88-8-3.61-8.03-5.97.83-.2 2.83-.3 4.2.75.28 2.9 2.67 4.69 3.83 5.22Z" fill="url(#fbckwanrb)"/><defs><linearGradient id="abckwanrb" x1="18.02" y1="34.38" x2="33.78" y2="32.58" gradientUnits="userSpaceOnUse"><stop stop-color="#FDC010"/><stop offset="1" stop-color="#D50707"/></linearGradient><linearGradient id="bbckwanrb" x1="27.24" y1="24.96" x2="39.4" y2="29.98" gradientUnits="userSpaceOnUse"><stop stop-color="#F0C516"/><stop offset="1" stop-color="#FD8F00"/></linearGradient><linearGradient id="cbckwanrb" x1="25.42" y1="31.33" x2="32.35" y2="31.38" gradientUnits="userSpaceOnUse"><stop stop-color="#F0DE5E"/><stop offset="1" stop-color="#FE9625"/></linearGradient><linearGradient id="dbckwanrb" x1="29.84" y1="28.86" x2="34.74" y2="31.32" gradientUnits="userSpaceOnUse"><stop stop-color="#15A9E7"/><stop offset="1" stop-color="#415EA4"/></linearGradient><linearGradient id="ebckwanrb" x1="20.78" y1="15.31" x2="25.71" y2="13.62" gradientUnits="userSpaceOnUse"><stop stop-color="#ADD10B"/><stop offset="1" stop-color="#71A540"/></linearGradient><linearGradient id="fbckwanrb" x1="16" y1="16.45" x2="24.02" y2="18.75" gradientUnits="userSpaceOnUse"><stop stop-color="#A6C70D"/><stop offset="1" stop-color="#367E3F"/></linearGradient></defs></svg>