<svg xmlns="http://www.w3.org/2000/svg" width="56" height="56"><path fill="#176FC1" d="M0 0h56v56H0z"/><path fill-rule="evenodd" d="M28 42a14 14 0 100-28 14 14 0 000 28zm0 2a16 16 0 100-32 16 16 0 000 32z" fill="#fff"/><path d="M29 19c-1.53 0-2.94.86-3.63 2.23l-8.06 15.46c-.08.14.03.31.19.31h4c.54 0 1.03-.3 1.28-.78l5.12-9.98.5-1A4.07 4.07 0 0132.03 23h4.47l2.13-4H29z" fill="#fff"/><path d="M27.68 28.41a.75.75 0 01.67-.41h6.15c.11 0 .18.12.13.21l-1.22 2.58a.37.37 0 01-.34.21h-6.44a.15.15 0 01-.13-.22l1.18-2.37z" fill="#fff"/></svg>