<svg width="56" height="56" viewBox="0 0 56 56" xmlns="http://www.w3.org/2000/svg"><path fill="#F0F3FA" d="M0 0h56v56H0z"/><path d="M29.6 39c4.8-.58 8.7-4.14 9.4-9h2l1-4h-3.27a10.92 10.92 0 0 0-21.51 0H14l1 4h2c.7 4.96 4.59 8.4 9.42 9l-.18-1.23c-.16-.93-.08-2.11-1.63-2.81-.04.05-.07.06-.1.11l-.43-.13.18-.26-.3-.27-.3.35-.52-.21.5-.46-.23-.33-.74.54-.58-.33 1.06-.62-.16-.37-.87.32-.68.2-.57-.47.84-.3 1.13-.27-.06-.4-1.28.02-1.52-.1-.31-.49 1.8-.08 1.33.08.06-.4-1.15-.33-2.66-1.2-.02-.3 2.8.73 1.23.51.18-.38-1.1-.7-2.7-2.37.07-.17 3.12 1.9 1 .83.27-.3-1.09-1.2-1.96-3.03.06-.1 2.6 2.64.92 1.23.32-.22-.69-1.23-1.39-3.65.1-.07 2.12 3.34.53 1.27.38-.15-.47-1.33-.63-3.89.1-.04 1.5 3.7.27 1.33.38-.06-.23-1.6.13-3.75h.12l.8 3.72.05 1.55h.39l.06-1.48.78-3.8.12.03.13 3.93-.22 1.36.38.08.28-1.38 1.47-3.63.09.06-.6 3.83-.47 1.35.35.17.59-1.35 2.1-3.24.07.07-1.42 3.73-.65 1.12.34.22.85-1.18L35.1 25l.08.11-1.97 2.98-1.06 1.23.25.32 1.07-.89 3.05-1.86.03.14L34 29.35l-1.21.8.18.36 1.26-.52 2.8-.71-.03.28-2.67 1.19-1.16.34.05.4 1.39-.08 1.75.1-.26.47-1.55.1-1.32-.01-.05.38 1.19.3.74.29-.5.46L33 33l-.15.35 1.08.59-.55.36-.78-.53-.23.3.46.46-.46.25-.33-.36-.27.25.17.25-.4.19-.14-.15c-1.14.48-1.44 1.22-1.6 2.8L29.6 39ZM42 31h-2v10H29.23l-.27 2H42V31Zm0-6h-2V15H16v10h-2V13h28v12Zm-28 6h2v10h10.73l.27 2H14V31Z" fill="#DA2423"/></svg>