<svg xmlns="http://www.w3.org/2000/svg" width="56" height="56"><path fill="#F0F3FA" d="M0 0h56v56H0z"/><path fill-rule="evenodd" d="M12.69 20a3 3 0 00-2.9 2.2L6.7 33.47A2 2 0 008.63 36h34.73a3 3 0 002.9-2.21l3.06-11.26A2 2 0 0047.38 20h-34.7zM22 24h-6.92L13 32h2.76l.79-3.05h3.9l.44-1.62h-3.95l.42-1.8h4.28L22 24zm5.64-.26c3.38-.1 3.6 1.68 3.23 2.59h-2.64c0-.3-.11-.98-1.11-.98-1.06 0-1.32.54-1.3.81.01.28.5.72 1.7.85s3.01.67 2.9 2.01c-.1 1.35-1.1 2.89-5.09 2.98-3.19.07-3.5-1.82-3.27-2.77h2.65c0 .5.13 1.24 1.3 1.24 1.11 0 1.5-.67 1.5-.95 0-.27-.07-.55-2.18-.96-2.1-.4-2.45-1.23-2.45-1.94 0-.66.45-2.75 4.76-2.88zm14.27 2.6c.34-.87-.13-2.6-3.77-2.6-4.8 0-6.14 3.3-6.14 5.12 0 2 1 3.14 3.81 3.14 2.77 0 4.72-1 5.52-3h-2.86a2.57 2.57 0 01-2.11 1.45c-1.27.09-1.53-1.02-1.5-1.6 0-1.1.57-3.37 2.8-3.63.67 0 1.44.16 1.41 1.12h2.84z" fill="#483526"/><path d="M45.57 24.72A3.55 3.55 0 0142.79 26c.13-.03.44-.16.74-.47.3-.32.13-.67 0-.8-.23-.18-.27-.5-.26-.64-.14-.05-.2-.34-.2-.48-.12-.05-.14-.25-.13-.34-.15-.04-.26-.2-.3-.27.93-.03 1.49.48 1.65.74.08.2.42.49 1.11.12.7-.36 1-.1 1.06.08-.41.1-.77.56-.9.78z" fill="#F4762B"/></svg>