<svg width="56" height="56" xmlns="http://www.w3.org/2000/svg"><path fill="#F37F36" d="M0 0h56v56H0z"/><path d="M8.01 31.807c.392-5.094 7.478-9.314 10.972-10.788-6.387 3.916-8.02 7.895-7.856 9.47.78 7.456 23.116 5.669 30.885 1.318-17.76 9.946-34.49 6.368-34 0z" fill="#172B57"/><path d="M38.325 21.248c-11.413 1.015-12.811 4.195-12.084 5.66-.705.075-2.048-.565-2.048-1.757 0-2.384 6.94-6.001 13.025-5.854 5.398.13 6.165 2.504 5.874 3.675-.564-1.535-3.413-1.79-4.767-1.724z" fill="#172B57"/><path d="M23.527 25.198c-.205 2.18 4.074 2.527 6.24 2.428-7.513 4.565-13.182 2.9-13.182 1.051 0-4.777 13.468-10.625 22.572-10.677 7.282-.041 8.837 3.428 8.837 4.849 0 9.3-16.702 12.544-24.467 12.369-4.035-.043-12.018-1.132-11.67-5.15.35-4.018 5.548-7.64 8.104-8.948-6.169 4.558-7.188 7.499-6.927 8.4-.104 3.646 5.383 4.254 8.14 4.102 16.243-1.11 21.804-7.994 22.554-11.298.256-1.14-.624-3.419-6.188-3.419-6.956 0-13.758 3.568-14.013 6.293z" fill="#fff"/></svg>