<svg width="56" height="56" viewBox="0 0 56 56" xmlns="http://www.w3.org/2000/svg"><path fill="#F0F3FA" d="M0 0h56v56H0z"/><path d="M28.39 8h-.25a10 10 0 0 1 .79 2.14c.25.86.38 1.72.39 2.6-.05 1.02-.13 1.8-.24 2.33-.02.12-.08.34-.17.65-.07.23-.16.44-.28.62l-.04.07c-.24.37-.55.87-.96 1.04-1.02.44-2.1.74-3.2.92l-.82.13c-.62.11-1.23.22-1.87.28l-2.48.22c-.66.05-1.3.12-1.93.2-.15.02-.32.06-.49.13a.35.35 0 0 0-.13.15c-.02.05 0 .07.05.07h.08a23 23 0 0 1 2.91.21c.54.08 1.04.08 1.57.08h.18c.35 0 .74.02 1.17.04l1.17.04c.63 0 1.6.08 2.93.2.26-.02.58.09.98.31.86.49 1.1 1.22 1.28 2.16.13.74.16 1.57.07 2.48l-.38 2.38a.1.1 0 0 0 .03.1l.03.02 1.4-2.67c.38-.77.68-1.54.91-2.3l.38-1.35.23-1.33c.2-.81.17-1.62.15-2.5v-.37c-.02-.72-.08-1.34-.17-1.86a16 16 0 0 0-1.7-4.8L28.63 8.2a.12.12 0 0 0-.05-.04.5.5 0 0 1-.18-.16Zm.22 7.09c-.16 2.8-3.94 2.76-4.1.1-.16-2.83 3.89-2.78 4.1-.1Zm6.05 2.7c.35.88.7 1.76 1.07 2.64.2.48.42.94.65 1.41l.26.55c.3.62.7 1.22 1.07 1.78.32.48.75.75 1.3.83.91.13 1.86.11 2.83-.07l.1-.02a4.5 4.5 0 0 0 1.28-.41c.31-.13.62-.25.92-.43.64-.38 1.28-.81 1.92-1.29.1-.07.23-.2.38-.37.1-.12.23-.24.39-.36a.49.49 0 0 0 .07-.1l.05-.05c.05-.06.06-.05.04.02l-.08.19a12 12 0 0 1-.92 1.45c-.37.43-.73.87-1.08 1.32a15.08 15.08 0 0 1-3.63 2.88c-.65.37-1.3.67-1.94.88-.7.25-1.4.43-2.07.55-.92.17-1.87.32-2.8.27-.5-.03-1.38-.14-2.65-.34-.7-.16-1.42-.35-2.16-.58-.14-.04-.3-.05-.47-.05-.26-.09-.37.06-.5.22l-.12.14a.1.1 0 0 1-.11.02l-.35-.16a.13.13 0 0 1-.07-.09l-.13-.5.7-.34c.1.16.21.3.35.4.05.04.08.06.1.06.49.04.97.01 1.45-.08l1.13-.19a5.72 5.72 0 0 0 2.63-1.14c.32-.24.55-.52.7-.87.16-.36.26-.66.3-.9.05-.38.02-.75-.06-1.1l-.3-1.24-1.98-8.95a.1.1 0 0 1 .05-.1c.03 0 .05-.01.07 0 .1.03.16.07.17.11l.88 2.52c.18.5.36 1 .56 1.49Zm4.15 6.67c.63.2 1.21.17 1.76-.11 1.64-.84 1.23-3.42-.41-3.97-2.34-.78-3.77 3.26-1.35 4.08Zm-14.59-.58c.72.63 1.4 1.33 2.04 2.08.16.2.4.47.73.84.27.3.51.68.71 1.13-.93-.66-1.92-1.21-2.97-1.66a5.13 5.13 0 0 0-2.38-.33c-.17.01-.43.08-.76.21-.5.28-.87.73-1.13 1.35l-.86 2.28-1.94 4.92-.93 2.44a.05.05 0 0 1-.04.03.05.05 0 0 1-.04-.01l-.15-.13c0-.21.03-.44.1-.7l.2-.66c.06-.32.15-.64.24-.96.08-.28.16-.55.21-.8l.3-1.3c.5-1.97.82-3.96.98-5.98.04-.5 0-.93-.12-1.26a4.45 4.45 0 0 0-.77-1.2c-.27-.33-.6-.62-1-.87a8.7 8.7 0 0 0-1.8-.93c-.97-.33-2.09-.5-3.36-.51l-1.31.02c-.22 0-.23-.03-.02-.1l1.85-.65c.74-.2 1.5-.34 2.27-.41a39.3 39.3 0 0 1 1.88-.02 10.16 10.16 0 0 1 3.86.74l.39.15c1.35.49 2.58 1.31 3.82 2.29Zm-9.85.86-.12.32c-.19.4-.23.9-.13 1.46.04.19.13.4.28.62a2 2 0 0 0 1.96.92c.25-.03.48-.11.7-.26.88-.58 1.17-1.6.64-2.52l-.18-.32c-.26-.51-.57-1.12-1.23-1.15a2 2 0 0 0-1.92.93Zm24.45 19.34 1.3.82v.09h-.05c-.1.01-.2.02-.29-.03-.19-.1-.4-.16-.62-.2a4.22 4.22 0 0 1-1.08-.34 49.4 49.4 0 0 1-1.9-.9 13.66 13.66 0 0 1-4.31-3.7c-.1-.04-.17-.13-.23-.26a17.27 17.27 0 0 1-2.9-7.18l-.3-2.44v-.73a.04.04 0 0 1 0-.04h.05l.02.01a.13.13 0 0 1 .08.1c.04.24.11.44.23.59.09.1.16.23.2.39.06.18.13.37.22.55.51.99 1.05 1.82 1.79 2.6.15.14.3.24.46.35l.27.19c.6.46 1.56.46 2.17.17.36-.17.9-.54 1.3-.84.5-.4 1.04-.75 1.57-1.11l.98-.67 1.01-.7c.48-.33.95-.66 1.41-1l1.14-.83.6-.4c.3-.18.57-.36.84-.58.04-.03.07-.02.08.03.04.2-.03.37-.21.53a105.39 105.39 0 0 0-4.76 4.47c-.25.25-.48.5-.7.77l-.52.6c-.24.28-.48.56-.7.84-.45.58-.9 1.2-1.03 1.9-.09.52-.07 1.2.07 1.72.24.84.56 1.58.96 2.2a11.42 11.42 0 0 0 2.85 3.03ZM26.59 29.95a.63.63 0 0 0 .2-.22l1-.83c.1-.07.09-.1-.02-.05l-.8.29-.76.3a13 13 0 0 0-1.5.73l-.47.24c-.36.2-.72.42-1.1.7l-1.19.88-.8.7a15.34 15.34 0 0 0-3.23 4.71c-.3.78-.56 1.55-.78 2.31-.11.4-.2.83-.26 1.29l-.15 1.3c.01.42 0 .77-.06 1.07-.06.31-.09.54-.1.68 0 .1.02.18.07.23.03.03.07.03.1 0 .05-.05.1-.09.16-.12a.14.14 0 0 0 .08-.09l.62-1.92c.3-.66.64-1.32 1.06-1.98.13-.2.26-.35.4-.47a8.91 8.91 0 0 1 1.26-1.32c.39-.32.86-.59 1.4-.79.38-.13.76-.18 1.14-.12.54.08 1.03.19 1.49.5.61.42 1.25.8 1.91 1.16.44.24.92.54 1.47.9.49.33.96.65 1.43.95l1.38.95 1.36 1c.19.14.34.21.47.2l.06-.04a.12.12 0 0 0 0-.18c-.95-.9-1.82-1.71-2.6-2.42L28.22 39c-.74-.69-1.5-1.39-2.26-2.06a13.7 13.7 0 0 1-1.26-1.22 2.16 2.16 0 0 1-.46-1.02c-.08-.29-.08-.58-.02-.88.1-.5.24-.95.42-1.36.12-.24.23-.43.35-.6.49-.67 1.02-1.31 1.6-1.91Zm12.65 7.34c.04.43.03.81-.04 1.14-.04.2-.14.42-.29.64l-.24.32c-.37.32-.67.51-.88.58-.23.07-.57.07-1.02.02a1.54 1.54 0 0 1-.91-.69 2.5 2.5 0 0 1-.27-1.86l.07-.24c.11-.43.22-.82.54-1.18.39-.43 1.16-.5 1.68-.28.7.3 1.19.81 1.36 1.55Zm-17.95 4.53c.6.57 1.6.48 2.28.16 1.44-.68 1.2-2.55.22-3.41-.3-.27-.58-.3-.97-.32-2.15-.07-3.04 2.13-1.53 3.57Z" fill="#C75D21"/></svg>