<svg xmlns="http://www.w3.org/2000/svg" width="56" height="56"><path fill="#F0F3FA" d="M0 0h56v56H0z"/><path d="M14 14h25v1H14v-1zm31.16 19l.94-1H14v1h31.16zm3.74-4H14v-1h35.83l-.93 1zm.57-2H14v-1h34.54l.93 1zm-1.5 3H14v1h33.03l.93-1zM39 18H14v1h25v-1zM14 36h25v1H14v-1zm28.41-1h.88l.94-1H42.9l-.49 1zM39 34H14v1h25v-1zm0-18H14v1h25v-1zm8.62 9H14v-1h32.7l.92 1zm-2.77-3H14v1h31.77l-.92-1zM43 20h-.8l.37 1h1.35L43 20zm-29 0h25v1H14v-1zm0 18h25v1H14v-1zm0 2h25v1H14v-1z" fill="#8FAF50"/><path d="M26.5 38.78c2 0 3.87-.48 5.5-1.33V39h6V29h-6.62v.07c0 2.86-2.68 5.18-6 5.18-3.3 0-5.99-2.32-5.99-5.18 0-1.46.7-2.77 1.81-3.71.9-.94 3.55-3.96 4.19-6.8.6 2.55 3.34 5.9 4.18 6.8.56.46 1 1.02 1.32 1.64h7.07c-.47-5.6-5.42-10-11.46-10C20.15 17 15 21.87 15 27.89c0 6.01 5.15 10.89 11.5 10.89z" fill="#1C2967"/></svg>