<svg width="56" height="56" xmlns="http://www.w3.org/2000/svg"><path fill="#FDFE00" d="M0 0h56v56H0z"/><path d="M26.795 20.007l3.967.002 3.446 6.976-4.035-.004-3.378-6.974zm4.77.036h5.06L40.004 27h-4.975l-3.463-6.957z" fill="#E31E24"/><path d="M26.162 15.1c.175-.079.349.043.486.14.314.243.588.535.92.755l.295-.086.094.101-.08.353c.938.056 1.88.025 2.813.143.856.094 1.71.214 2.558.361.175.03.346.085.51.15l-.095.333c-.161-.02-.322-.034-.483-.056-.055.767-.161 1.528-.21 2.294-.292.02-.584.023-.876.017-.025-.404.044-.803.051-1.205.008-.269-.36-.466-.57-.288-.238.193-.197.534-.243.806a3.977 3.977 0 01-.9-.029c0-.337.038-.755-.27-.98-.252-.223-.626-.074-.822.149-.282.326-.097.927.338 1.006.199-.002.385-.087.574-.142a10.94 10.94 0 01-.018.544c-.474.217-1.074.2-1.476-.155-.508-.42-.546-1.293-.043-1.733.368-.39.958-.442 1.455-.32.312.067.543.304.792.488.186-.127.37-.292.604-.312.227 0 .444.08.662.136.005-.14.01-.28.013-.42-.866-.19-1.755-.274-2.64-.304-.61.02-1.217-.137-1.827-.044-.048.933.008 1.868-.014 2.802a28.49 28.49 0 01-.966-.001c-.022-.896-.037-1.792-.081-2.686a4.434 4.434 0 00-.756.02c.113.398.205.827.074 1.233-.258.824-1.163 1.383-2.017 1.221a1.365 1.365 0 01-.82-.477c-.357-.454-.065-1.224.497-1.343.335-.079.733-.024.983.23.117.19-.032.411-.086.6-.157-.131-.33-.454-.568-.289-.27.213-.037.66.276.667.659.14 1.23-.697.877-1.262-.087-.181-.311-.162-.478-.194l-.01-.262c-.645.02-1.271.2-1.907.298l-.072-.35c.765-.212 1.566-.25 2.343-.401.527-.111 1.07-.056 1.597-.167-.225-.26-.468-.539-.815-.632-.112.108-.229.21-.34.319a.842.842 0 01-.244-.393c.29-.23.57-.489.915-.635zm-7.096 5.388c1.345-.377 2.747-.412 4.133-.488.984.01 1.97-.014 2.955 0 .136.217.244.431.347.667.797 1.668 1.616 3.326 2.396 5.003.204.465.462.85.634 1.33-1.722.043-3.444-.019-5.166 0-1.323-.03-3.217.209-3.738 1.654-.56 1.262.1 2.61.923 3.582.336.358.699.704 1.13.939.196.109.407.232.494.458.293.648.633 1.275.893 1.938-.494-.053-.96-.24-1.414-.434a17.096 17.096 0 01-3.015-1.533c-.93-.667-1.756-1.476-2.511-2.342-.99-1.145-1.807-2.703-1.961-4.232-.147-2.718 1.1-5.725 3.9-6.542z" fill="#232425"/><path d="M23.776 28h13.508l3.877 7.895c-1.54.003-3.083.027-4.623.003C35.82 34.419 33.696 30 33.696 30h-.537s.284.757.38 1.128c.256.949.129 2.035-.487 2.814-.834 1.11-2.19 1.598-3.48 1.868-.707.166-1.434.165-2.154.212-.877.003-1.75-.113-2.613-.263-.26-.019-.324-.318-.432-.511-.217-.519-.485-1.014-.678-1.542.984.318 2.035.505 3.063.322.65-.118 1.289-.473 1.634-1.068.286-.447.322-1.038.132-1.53-.34-.864-1.242-1.38-2.12-1.43h-1.92l-.708-2zm-.258 9.69c.722-.25 1.64-.107 2.138.51.151.171.208.396.23.618-.223-.02-.454-.025-.661-.116-.155-.139-.217-.37-.415-.46-.371-.19-.89-.18-1.176.156-.348.421-.346 1.15.106 1.499.299.218.732.282 1.067.111.142-.066.197-.216.234-.357-.35-.057-.709-.079-1.052-.175a2.41 2.41 0 01.076-.52c.58.067 1.158.163 1.73.282.043.395-.158.767-.399 1.064-.305.35-.816.397-1.25.348a1.673 1.673 0 01-1.143-.602c-.59-.714-.37-1.988.515-2.358zm7.637.085c.22-.052.446-.085.672-.093.125.74.236 1.485.357 2.226l.047.045c.502-.027.985-.195 1.488-.231.02.184.033.37.037.556-.73.135-1.456.297-2.194.39-.166-.573-.177-1.174-.287-1.757-.058-.376-.138-.752-.12-1.136zm-4.07.075c.24-.012.481-.007.72.017.328.687.573 1.41.869 2.111.118.274.225.553.299.841-.244.026-.49.023-.73-.02-.081-.192-.168-.38-.255-.569a9.33 9.33 0 00-1.141-.029c-.089.19-.178.378-.261.57a6.198 6.198 0 01-.707.005 2.5 2.5 0 01.176-.539c.362-.787.668-1.6 1.03-2.388zm-.032 1.824c.264.013.528.016.792.01a7.992 7.992 0 00-.38-.997 4.396 4.396 0 00-.412.987zm2.541-1.747h.691l.061 2.918s-.457.004-.672 0l-.08-2.918z" fill="#232425"/><path fill-rule="evenodd" d="M41.542 37.807C44.972 35.234 47 31.757 47 28c0-3.757-2.028-7.234-5.458-9.807C38.112 15.621 33.327 14 28 14s-10.112 1.62-13.542 4.193C11.028 20.766 9 24.243 9 28c0 3.757 2.028 7.234 5.458 9.807C17.888 40.379 22.673 42 28 42s10.112-1.62 13.542-4.193zM28 43c11.046 0 20-6.716 20-15 0-8.284-8.954-15-20-15S8 19.716 8 28c0 8.284 8.954 15 20 15z" fill="#E31E24"/></svg>