<svg width="56" height="56" viewBox="0 0 56 56" xmlns="http://www.w3.org/2000/svg"><path fill="#F0F3FA" d="M0 0h56v56H0z"/><path fill-rule="evenodd" d="M27.5 45C36.06 45 43 37.39 43 28s-6.94-17-15.5-17C18.94 11 12 18.61 12 28s6.94 17 15.5 17Zm-1.88-2C33.15 43 39 36.28 39 28c0-8.28-5.85-15-13.38-15C18.1 13 12 19.72 12 28c0 8.28 6.1 15 13.62 15Z" fill="#45B75A"/><path fill-rule="evenodd" d="M22 41c5.52 0 10-5.6 10-12.5S27.52 16 22 16s-10 5.6-10 12.5S16.48 41 22 41Zm-1.5-3c4.14 0 7.5-4.25 7.5-9.5S24.64 19 20.5 19c-4.14 0-7.5 4.25-7.5 9.5s3.36 9.5 7.5 9.5Z" fill="#45B75A"/><path d="M41.76 35.79c-2.78 4.8-6.33 7.08-7.76 7.62 4.13-2.67 4.3-6.02 3.85-7.36L34 36.5l5.71-3.5L45 35.12c-.73.13-2.4.44-3.24.67ZM22 16v.17c3.58 1.62 4.64 4.3 4.45 5.88l-4.07-.42L28.53 25 34 22.65c-.78-.1-2.49-.35-3.37-.53-3.1-5.98-7-6.05-8.63-6.12Z" fill="#97989A"/><path d="M22.78 30.9c.14-.03.23-.07.27-.13.04-.05.06-.2.06-.43v-2.68c0-.22-.02-.36-.06-.42-.04-.07-.13-.11-.27-.13V27h1.07v.11c-.14.01-.24.05-.28.11-.05.06-.07.2-.07.4v2.9c0 .07 0 .12.02.16.01.04.04.06.1.07l.08.01h.18c.33 0 .56-.04.68-.13s.23-.31.34-.68h.1L24.81 31h-2.03v-.1Z" fill="#45B75A"/><path d="M20.67 29.76c.08.26.18.46.3.62.19.27.43.4.72.4.16 0 .3-.05.41-.17a.67.67 0 0 0 .18-.5.75.75 0 0 0-.18-.48 3.14 3.14 0 0 0-.48-.4l-.42-.31c-.13-.1-.23-.2-.3-.29a.98.98 0 0 1-.21-.6c0-.3.08-.54.25-.74.16-.2.38-.29.66-.29.1 0 .24.03.4.1l.27.1c.07 0 .1-.02.13-.06a.39.39 0 0 0 .06-.14h.1l.1 1.24h-.11c-.08-.38-.21-.64-.4-.78a.83.83 0 0 0-.52-.22.5.5 0 0 0-.35.14.5.5 0 0 0-.15.39c0 .14.04.27.11.38.08.1.2.22.36.34l.44.31c.27.2.46.38.57.54.11.17.17.36.17.6 0 .3-.1.55-.3.75-.2.2-.44.31-.75.31-.15 0-.31-.03-.48-.1a1.6 1.6 0 0 0-.28-.1c-.06 0-.1.02-.12.06a.46.46 0 0 0-.04.13h-.1l-.16-1.23h.12ZM18.33 30.9c.14-.03.23-.07.27-.13.05-.05.07-.2.07-.43v-2.68c0-.22-.02-.36-.06-.42-.04-.07-.14-.11-.28-.13V27h2.02l.01.87h-.1c-.03-.27-.07-.44-.14-.52-.06-.08-.2-.12-.43-.12h-.51c-.06 0-.1.02-.1.04a.45.45 0 0 0-.03.16v1.35h.59c.16 0 .26-.04.3-.11.05-.08.09-.23.11-.47h.1v1.4h-.1a1.38 1.38 0 0 0-.1-.46c-.05-.08-.15-.12-.31-.12h-.59v1.5c0 .12.03.19.07.21.05.02.2.03.43.03.26 0 .45-.04.57-.13.12-.09.23-.3.33-.65h.1L20.39 31h-2.05v-.1ZM16.7 27c.19 0 .37.03.56.1l.31.09c.07 0 .12-.02.15-.05a.38.38 0 0 0 .08-.14h.1l.05 1.22h-.12c-.1-.28-.2-.49-.3-.63a.92.92 0 0 0-.76-.36c-.32 0-.6.14-.83.43-.24.28-.36.74-.36 1.4 0 .53.12.95.36 1.25a1.08 1.08 0 0 0 1.09.43 1.12 1.12 0 0 0 .44-.18c.03-.03.04-.08.04-.15v-.92c0-.23-.02-.37-.08-.42-.05-.06-.17-.1-.35-.1v-.11h1.25v.1c-.12.02-.2.04-.24.08-.07.06-.1.18-.1.37v1.15c0 .07-.14.16-.42.27-.28.11-.55.17-.81.17-.48 0-.89-.17-1.22-.5a2 2 0 0 1-.54-1.47c0-.54.14-1 .43-1.4A1.5 1.5 0 0 1 16.7 27Z" fill="#45B75A"/></svg>