<svg width="56" height="56" viewBox="0 0 56 56" xmlns="http://www.w3.org/2000/svg"><path fill="#F0F3FA" d="M0 0h56v56H0z"/><path d="M44.57 17.03V17a.02.02 0 0 1 .03 0l.08.02.03.02c.4.59.4 1.16.03 1.72-.2.31-.56.66-1.06 1.04-.55.41-1.04.76-1.47 1.04-.84.54-1.81 1.29-2.13 2.3-.18.59-.06 1.14.35 1.64.36.44.8.83 1.3 1.17.02.02.03.03.03.06l-.01.04h-.02c-.52-.21-1-.52-1.46-.92-1.04-.92-1.18-1.96-.41-3.1.18-.28.5-.59.97-.93.47-.36 1.19-.78 2.16-1.29.46-.23.94-.59 1.44-1.06.51-.5.56-1.07.14-1.73Z" fill="#EE0207"/><path d="M45.67 19.7c.2.54.08.98-.33 1.34-.3.25-.58.44-.86.57-1.17.56-2.19.98-2.74 2.04-.45.86.01 1.8.73 2.32l.01.02-.03.03c-.02.02-.03.02-.05 0-.57-.37-.95-.8-1.17-1.27-.66-1.51.67-2.41 1.85-2.88a22.8 22.8 0 0 0 1.84-.8c.16-.09.35-.24.55-.45.21-.23.15-.61.2-.93v.01Z" fill="#EE0207"/><path d="M51.13 24.55c.29-.07.54-.22.77-.43.03-.02.05-.02.07.02l.02.03v.04c-.57.7-1.3.7-2.11.43-.6-.2-1.36-.58-1.97-.96-1.57-1-4.09-2.06-4.68.71a7 7 0 0 0-.16 1.41h-.05c-.01 0-.02 0-.02-.02-.08-.79-.03-1.51.14-2.18.4-1.49 1.93-1.8 3.17-1.3.57.22 1 .43 1.3.62.86.57 1.54.98 2.02 1.25.38.21 1.07.49 1.5.38Z" fill="#EE0207"/><path d="M10.7 29.39c-.02.42-.03 1.08-.01 2 0 .18-.13.31-.4.4a3.56 3.56 0 0 1-2.86-.2c-1.15-.6-1.7-2.21-1.3-3.54.49-1.6 1.69-2.16 3.13-2.04a57.44 57.44 0 0 1 1.41.24.1.1 0 0 1 .02.07v1.07c0 .08-.03.1-.1.07-.03-.03-.06-.07-.08-.14-.07-.26-.11-.51-.36-.65-1.2-.63-2.9-.52-3.38 1.08-.3 1-.1 2.15.5 2.92.61.8 1.45 1.08 2.52.85.2-.04.31-.18.31-.4 0-.67-.01-1.18-.03-1.54 0-.17-.08-.28-.22-.33l-.3-.11c-.04-.02-.06-.06-.03-.1 0-.02 0-.03.02-.05.02-.03.04-.04.07-.03.5.08.97.08 1.42-.02.05 0 .07.01.07.07v.05c0 .04-.02.06-.05.08l-.26.12a.14.14 0 0 0-.06.05.16.16 0 0 0-.03.08ZM26.32 29.46l.01 1.73c0 .15 0 .27-.03.36a.2.2 0 0 1-.04.06 3.4 3.4 0 0 1-3.2-.05 2.4 2.4 0 0 1-.97-.94c-.27-.47-.4-.96-.42-1.45-.04-1.65.65-2.68 2.08-3.1.33-.09.75-.1 1.27-.03l1.25.18c.05.01.08.05.08.1 0 .49 0 .82-.02 1-.02.26-.07.26-.15.02-.1-.27-.09-.53-.4-.69a2.83 2.83 0 0 0-2.03-.24c-1.18.3-1.65 1.62-1.4 2.88.3 1.56 1.2 2.33 2.68 2.3.23 0 .45-.07.65-.22a.16.16 0 0 0 .06-.06.19.19 0 0 0 .02-.08l-.04-1.78c0-.06-.03-.1-.07-.13a.97.97 0 0 0-.37-.16c-.06 0-.08-.05-.06-.1l.02-.07c.01-.04.04-.06.07-.05.42.1.84.1 1.26 0 .06 0 .1.02.1.08l.01.05c0 .05-.02.09-.06.11l-.23.16a.14.14 0 0 0-.05.05.16.16 0 0 0-.02.07ZM35 26.56v4.84c0 .07 0 .14.04.2s.1.1.16.13l.43.17v.07c-.01.02-.02.03-.04.03h-1.56c-.05 0-.07-.03-.05-.08l.01-.05c.01-.03.03-.04.05-.05.22-.03.36-.29.37-.71v-4.58a.11.11 0 0 0-.03-.07l-.03-.03h-.03l-1.39.04c-.02 0-.05 0-.07.02a26.57 26.57 0 0 1-.23.35c-.12.17-.17.15-.18-.07 0-.18.06-.42.16-.7.02-.06.05-.08.1-.07.11.03.3.05.56.05 1.47.05 2.63.05 3.47.01.06 0 .1.03.1.1l.01.73c0 .07-.03.1-.1.1-.04 0-.07-.02-.08-.08-.1-.46-.37-.42-.77-.45-.3-.02-.58-.03-.82-.01a.1.1 0 0 0-.07.03l-.01.08ZM32.5 29.05c.04-.8-.23-1.56-.72-2.13a2.68 2.68 0 0 0-.86-.67 2.5 2.5 0 0 0-2.1-.05c-.33.15-.64.36-.9.64a3.2 3.2 0 0 0-.14 4.24 2.5 2.5 0 0 0 2.95.71c.34-.14.64-.36.9-.63a3.2 3.2 0 0 0 .88-2.1Zm-2.4 2.59c-1.13.17-2.19-.9-2.37-2.36-.18-1.47.6-2.8 1.73-2.96 1.13-.17 2.2.89 2.38 2.36.17 1.47-.6 2.8-1.73 2.96Z"/><path fill-rule="evenodd" d="M38.2 31.23c-.04-.97-.05-1.52-.02-1.68.01-.05.04-.08.1-.08.18 0 .41 0 .7.02.11 0 .23.1.34.26l1.02 1.54c.33.5.7.71 1.26.71h1.81l.03-.01.02-.03.02-.05c0-.05 0-.07-.05-.07-.36-.03-.54-.18-.55-.64a126.64 126.64 0 0 1 .03-4.81.14.14 0 0 1 .05-.06l.29-.19a.07.07 0 0 0 .03-.06.1.1 0 0 0-.02-.06c-.02-.02-.05-.03-.07-.02-.42.1-.84.11-1.26 0-.02 0-.04 0-.06.02a.18.18 0 0 0-.03.05c-.02.06 0 .1.04.12l.23.08c.03.01.05.03.06.05l.04.07c.05.2.07.4.07.58.01 2.3 0 3.78-.04 4.45-.01.28-.14.4-.37.37-.32-.06-.7-.4-.94-.73a52.73 52.73 0 0 0-1.25-1.74l.01-.05a2.69 2.69 0 0 0 .63-.99c.42-1.03 0-2-1.01-2.19-.28-.05-.6-.07-.96-.04a4.28 4.28 0 0 1-1.2-.03c-.03 0-.04.01-.04.04v.06l.02.05.04.02c.44.07.45.32.45.7v.08c.03 1.36.02 2.85-.02 4.49 0 .05-.02.1-.05.15a.77.77 0 0 1-.3.22c-.04.02-.05.04-.05.08 0 .02 0 .04.02.06.02.02.04.03.07.03h1.45c.02 0 .04 0 .05-.02l.03-.03c.02-.05 0-.08-.04-.1l-.21-.07c-.23-.07-.34-.1-.37-.55Zm0-4.68a.36.36 0 0 0-.03.12l-.02 2.21c0 .09.03.17.09.23.05.06.12.1.2.1h.4c.27 0 .54-.13.74-.37.2-.23.3-.55.31-.89v-.33a1.3 1.3 0 0 0-.3-.9c-.1-.11-.2-.2-.33-.27a.9.9 0 0 0-.4-.1h-.4c-.04 0-.08 0-.12.02a.28.28 0 0 0-.09.07.33.33 0 0 0-.06.1ZM20.32 26.44l.1 4.3c0 .07-.03.08-.08.03-.49-.58-1.75-2.12-3.78-4.61a.48.48 0 0 0-.22-.16.07.07 0 0 0-.07.01.1.1 0 0 0-.02.04 3138.28 3138.28 0 0 0 0 5.17c0 .21-.04.37-.1.48a.33.33 0 0 1-.18.13.3.3 0 0 1-.21-.01 1.1 1.1 0 0 1-.58-.67 772.75 772.75 0 0 1-1.73-5.08.09.09 0 0 0-.03-.04c-.08-.06-.14-.03-.18.09l-1.7 5.16c-.07.25-.2.32-.35.41l-.14.08c-.26.18-.2.23.06.23h1.01c.24 0 .27-.07.07-.23a2.76 2.76 0 0 0-.21-.13c-.06-.03-.07-.08-.06-.14l.54-1.76c.01-.05.05-.08.1-.08h1.4c.05 0 .08.03.1.08.31.78.53 1.55.67 2.18.01.05.04.08.09.08h2.44l.02-.03a.1.1 0 0 0 0-.06c0-.02 0-.03-.03-.04l-.37-.14a.29.29 0 0 1-.13-.12.35.35 0 0 1-.06-.18l-.08-4c0-.16.03-.18.12-.06a79.31 79.31 0 0 0 3.92 4.62h.06a.1.1 0 0 0 .04-.04.12.12 0 0 0 .02-.07v-5.41c0-.06.02-.1.05-.15.09-.1.2-.16.35-.18l.02-.02V26.01l-.03-.01h-1.4l-.02.02-.01.05c-.02.04 0 .06.04.07.18 0 .34.05.47.14.05.04.08.1.08.16Zm-7.12.87-.6 1.96a.08.08 0 0 0 0 .06l.03.03h1.26l.02-.03.01-.03v-.03l-.6-1.96a.07.07 0 0 0-.03-.04.06.06 0 0 0-.03 0h-.04a.07.07 0 0 0-.02.04Z"/></svg>