<svg width="56" height="56" viewBox="0 0 56 56" xmlns="http://www.w3.org/2000/svg"><path fill="#F0F3FA" d="M0 0h56v56H0z"/><path d="M15.48 21c-.09.25-.36.39-.63.57-.15.1-.28.21-.39.35a.15.15 0 0 1-.1.05.15.15 0 0 1-.11-.04c-.25-.24-.46-.52-.78-.68l-.4-.2a4.13 4.13 0 0 0-2.3-.37c-.9.1-1.63.54-2.18 1.3a3.6 3.6 0 0 0-.56 1.2 5.23 5.23 0 0 0 .13 3.11 3.8 3.8 0 0 0 4.3 2.48c.29-.06.55-.18.78-.36.12-.09.2-.22.28-.33a.8.8 0 0 1 .23-.2.12.12 0 0 1 .08-.01c.03 0 .06.02.08.04.19.26-.13.77-.33 1.05a4.25 4.25 0 0 1-2.25 1.62 3.88 3.88 0 0 1-3.34-.42 4.65 4.65 0 0 1-1.82-2.8 7.08 7.08 0 0 1-.15-2.08 5.47 5.47 0 0 1 4.76-5.18 7.5 7.5 0 0 1 4.7.84V21ZM47.53 30.7c-.18.1-.32.15-.4.18-.4.1-.82.13-1.26.12l-1.39-.05c-.31-.01-.55.02-.93.05-.02 0-.03 0-.05-.02a.1.1 0 0 1-.04-.04.4.4 0 0 1 0-.24.1.1 0 0 1 .02-.05c.21-.18.4-.39.58-.62l.2-.23.03-.01h.04c.44.36.93.56 1.46.61.78.08 1.87-.36 1.39-1.47a1.5 1.5 0 0 0-.62-.66l-1.33-.84c-.58-.36-1.1-.87-1.09-1.65.02-.8.44-1.31 1.1-1.57.5-.2 1.04-.23 1.58-.2l1.23.07c.05 0 .08.02.09.07v.2a545.3 545.3 0 0 1-.14.89l-.03.02a.08.08 0 0 1-.07 0 146.27 146.27 0 0 0-.84-.52 1.4 1.4 0 0 0-1.09-.19c-.1.02-.21.1-.27.2-.17.29-.13.54.12.78.22.22.45.4.68.56.46.3.84.58 1.13.81.4.33.81.91.94 1.46.22.96-.3 1.86-1.04 2.33ZM25.25 24.59v.01l.02.01h.03a3.89 3.89 0 0 1 3.04-.47c.24.08.45.08.65.16.15.05.13.33.12.49a12.27 12.27 0 0 0-.03 2.84c.06.77.23 1.5.49 2.16.12.33.22.52.29.6a7.1 7.1 0 0 1 .36.4v.04c-.02.08-.07.13-.16.14-.45.05-.9.04-1.37-.06-.15-.03-.3-.08-.42-.14a.8.8 0 0 1-.41-.56 8.2 8.2 0 0 1-.2-2.32c-.01-.93-.06-1.84-.16-2.74-.04-.3-.2-.47-.47-.52-.6-.11-1.13.1-1.68.45a.16.16 0 0 0-.09.13 40.58 40.58 0 0 0 .1 4.82c0 .12.02.22.05.28a2.68 2.68 0 0 0 .14.3.13.13 0 0 1-.02.1.1.1 0 0 1-.03.02.41.41 0 0 1-.2.05h-1.32a.84.84 0 0 1-.3-.04.08.08 0 0 1-.04-.04c-.05-.11.06-.4.1-.5.02-.07.03-.17.03-.32v-3c-.01-.49-.03-1-.08-1.52a.86.86 0 0 0-.08-.34.68.68 0 0 0-.23-.26 4.83 4.83 0 0 1-.52-.38.1.1 0 0 1 .02-.09.08.08 0 0 1 .03-.03 7.4 7.4 0 0 0 1.48-.24c.27-.04.74-.07.79.29.01.1.04.2.07.28Z" fill="#E86424"/><path fill-rule="evenodd" d="M15.9 28.58c.01-.05.02-.05.03 0a3.16 3.16 0 0 0 1.81 2.2c.57.22 1.18.25 1.84.13l.92-.18a2.31 2.31 0 0 1 1.7.25l.04-.01.03-.03a.1.1 0 0 0 .01-.04.3.3 0 0 0-.03-.18 3.89 3.89 0 0 1-.44-2.15v-2.53c.01-.45.08-.82.22-1.1.03-.07.05-.12.04-.16a.22.22 0 0 0-.12-.16c-.37-.17-.76-.32-1.18-.45-.18-.06-.33-.03-.45.09l-.06.06-.02.01h-.03c-.47-.2-.98-.3-1.55-.28-1.2.04-2.07.66-2.59 1.85-.07.17-.13.42-.2.75 0 .04 0 .04-.02 0l-.03-.12-.04-.14c-.24-.6-.6-1.09-1.1-1.45l-.34-.24a10.1 10.1 0 0 0-.42-.3c-.67-.44-1.31-.86-1.88-1.36a.4.4 0 0 1-.12-.2l-.03-.1c-.04-.16-.08-.35-.23-.33-.5.05-.65 1.62-.66 2.04a3 3 0 0 0 .18 1.13c.05.13.17.33.31.29.05-.01.11-.05.2-.1.13-.1.22-.09.38-.08h.07c.9.06 1.87.48 2.43 1.29.37.54.47 1.2.37 1.86-.09.62-.37 1.08-.86 1.34-.09.05-.23.09-.4.13l-.2.04a.88.88 0 0 0-.31.09.13.13 0 0 0-.04.05.16.16 0 0 0 0 .13c0 .02.02.04.04.05.29.21.92.04 1.26-.1.79-.33 1.28-1.07 1.47-2Zm1.68-.37c.2.93.7 1.8 1.55 2 .3.08.58.07.81-.02.04-.02.12-.07.23-.17.06-.04.06-.13.06-.19v-4.65c0-.1-.02-.18-.09-.24a1.24 1.24 0 0 0-.79-.39c-.69-.06-1.19.25-1.51.92a4.42 4.42 0 0 0-.26 2.74ZM42.2 30.6c.36-.2.66-.43.9-.68.07-.1.12-.22.15-.33v-.06a.31.31 0 0 0-.2-.18.05.05 0 0 0-.05.01l-.28.23c-.29.22-.62.36-1 .43-.76.12-1.62.02-2.15-.6-.19-.22-.31-.53-.37-.92-.08-.65.1-1.28.68-1.5.28-.11.6-.15.97-.13l1.15.07c.22.01.46 0 .74-.05.16-.02.3-.07.42-.14.05-.03.08-.07.08-.14a2.2 2.2 0 0 0-.85-1.96 3.09 3.09 0 0 0-3.1-.4c-.76.35-1.3.91-1.64 1.7-.26.6-.35 1.29-.3 1.95.04.71.26 1.33.65 1.83a3.32 3.32 0 0 0 4.2.87Zm-3.13-3.58c0 .04.02.04.04.02.32-.32.7-.53 1.12-.64.2-.05.41-.04.64 0 .26.06.43.03.5-.27.06-.32.03-.59-.08-.82-.28-.54-.86-.61-1.34-.41-.74.3-.88 1.38-.88 2.12ZM34.55 30.08v.01c.05.19.06.4.05.62a2.4 2.4 0 0 1-1.21 2.06c-.4.24-.79.36-1.13.38-.4.03-.75-.03-1.02-.17l-.69-.33c-.08-.04-.15-.05-.2-.03a.35.35 0 0 0-.15.18c-.1.24-.18.4-.22.47a.99.99 0 0 1-.26.25 2.11 2.11 0 0 0-.13.12.08.08 0 0 0 .02.1c.08.04.16.07.26.08.85.08 1.64.06 2.36-.06a5.75 5.75 0 0 0 1.64-.55c.23-.11.55-.3.95-.55.38-.23.7-.5.95-.83.4-.51.5-1.2.51-1.85 0-.45-.02-1-.07-1.67a14.6 14.6 0 0 1 .05-2.6c.03-.23.07-.5.15-.8a2.63 2.63 0 0 1 .26-.68v-.03c-.03-.08-.07-.11-.13-.1-.35.08-.62.12-.79.13-.21 0-.48-.01-.79-.06l-1.1-.14c-.83-.1-1.69.07-2.34.67a3.64 3.64 0 0 0-1.16 2.3c-.15 1.15.15 2.28 1.04 2.94.9.67 2.12.53 3.1.13a.03.03 0 0 1 .04 0Zm.28-5.05c0-.03 0-.05-.03-.07a2.12 2.12 0 0 0-1.09-.4c-.71-.06-1.27.31-1.65.97-.55.97-.5 2.27.1 3.18.23.35.52.6.86.76.37.18.76.22 1.17.15a.96.96 0 0 0 .31-.17.07.07 0 0 0 .03-.05l.03-.3v-2.22c.01-.63.1-1.25.27-1.85Z" fill="#E86424"/><path d="M41.78 34.78a2.6 2.6 0 0 0 1.88-.31l.8-.46a3.54 3.54 0 0 1 2.34-.58c-.34.02-.6.02-.85.09-.49.12-.88.27-1.16.46l-.78.52c-.25.16-.46.29-.64.36-.27.12-.52.18-.75.18-.23 0-.48-.02-.75-.08a21.82 21.82 0 0 1-1.26-.4h.13a6.81 6.81 0 0 0 1.03.21Z" fill="#BED864"/><path d="M39.67 36.8c.8-.13 1.56-.38 2.28-.75a34.72 34.72 0 0 0 1.35-.78l.37-.25c.92-.58 1.36-.9 2.12-1.2.28-.1.56-.16.85-.18.28-.02.56 0 .85.08.29.07.56.17.83.3.4.2.74.39 1.02.56.55.35 1.08.66 1.57.93.3.17.69.32 1.02.48.1.04.1.06-.01.06l-1-.05c-.15-.01-.28-.04-.37-.08a6.33 6.33 0 0 1-.51-.27l-1.51-.86a5.42 5.42 0 0 0-1.46-.57 2.37 2.37 0 0 0-.69-.04c-.83.06-1.58.42-2.32.85-.23.13-.56.34-.98.63a53 53 0 0 1-1.38.9c-.24.16-.48.28-.75.33l-.54.1a.96.96 0 0 1-.38 0 1.21 1.21 0 0 1-.37-.17v-.01a.02.02 0 0 1 .01-.02ZM28.41 34.63h.27a9.75 9.75 0 0 1 2.7-.51 17.9 17.9 0 0 1 3.62.18c.47.08 1.22.24 1.87.34.2.03.2.05 0 .07l-.8.02c-.18 0-.34-.03-.5-.06l-.65-.14a10.45 10.45 0 0 0-5.08-.15c-.22.05-.53.14-.7.2-.23.06-.39.1-.47.14l-1.2.46c-.08.04-.08.06 0 .09l.17-.01c.47-.12.93-.24 1.4-.38.32-.1.67-.16.92-.21a5.83 5.83 0 0 1 2.09-.08c.68.1 1.44.23 2.05.28.73.05 1.48.02 2.25-.08.15-.03.15 0 .01.04-.75.3-1.27.51-1.92.65-.5.1-1.02.11-1.54.02a51.5 51.5 0 0 1-1.37-.28 4.98 4.98 0 0 0-2.07 0l-.8.17c-.18.03-.34.05-.5.03a5.7 5.7 0 0 1-.75-.13c-.08-.02-.08-.05-.01-.1.32-.17.66-.32.99-.45.02 0 .03-.02.03-.04v-.07ZM44.14 34.11c-.36.2-.65.35-.87.44-.34.14-.65.2-.95.2a66.64 66.64 0 0 0-.54-.01l.02-.03h.01l.01-.01a6.27 6.27 0 0 0 2.28-.63l.02.01.03.02v.01Z" fill="#BED864"/><path d="m43.36 35.18-.39.22a.51.51 0 0 1-.23.04 5.8 5.8 0 0 1-.8-.12c-.32-.08-.71-.18-1.08-.3a7.1 7.1 0 0 0-2.8-.49l.02-.01c.5-.1 1-.12 1.51-.08.57.06 1.04.24 1.67.47.71.26 1.44.44 2.16.18.06-.02.07-.01.02.04a.53.53 0 0 1-.08.05ZM42.2 35.61a23.18 23.18 0 0 1-3-.5c-.3-.06-.63-.1-.96-.13a4.54 4.54 0 0 0-2.64.58c-.5.27-.91.5-1.27.68-.22.12-.53.27-.82.31l-.35.07c-.15.04-.4.04-.77 0a7.27 7.27 0 0 1-1.51-.42c-.51-.2-1-.37-1.44-.5-.12-.04-.12-.07 0-.07.55-.03 1.12.03 1.69.17l1.13.32a2.9 2.9 0 0 0 1.84-.06c.23-.08.5-.2.8-.36l1.04-.55c.15-.08.4-.18.75-.3.27-.1.54-.15.79-.17.5-.03 1 0 1.48.07.4.07.9.19 1.35.3.97.26 1.54.4 2.23.49.06 0 .06.02.01.05-.12.08-.22.03-.34.02ZM42.11 36.7h-.09c-.08.01-.08 0-.01-.04.68-.4 1.4-.79 2.12-1.15.17-.08.46-.2.87-.34a4.35 4.35 0 0 1 2.84.03c.46.19.94.41 1.46.69.08.04.07.06-.01.06a28.63 28.63 0 0 0-1.23-.03 4.3 4.3 0 0 0-3.27.02l-1.05.43c-.1.05-.24.08-.36.1l-1.27.22Z" fill="#BED864"/><path d="M42.19 35.67c.1.01.1.03 0 .06l-.72.2a7.23 7.23 0 0 1-2.74.25l-1.35-.1a5.92 5.92 0 0 0-1.13.04 21.47 21.47 0 0 0-2.15.33l1.1-.48c.32-.14.72-.27.96-.35.4-.12.87-.2 1.4-.22.54-.03 1.08-.01 1.63.04a233.33 233.33 0 0 1 2.3.23 51.46 51.46 0 0 0 .7 0ZM49.23 36.14a8.1 8.1 0 0 0-2.12.66 35.2 35.2 0 0 1-4.32 1.85 9.9 9.9 0 0 1-2.89.32c-.1-.01-.1-.03 0-.04a17.6 17.6 0 0 0 4-1.1c.7-.3 1.58-.75 2.24-1.02.33-.14.73-.28 1.2-.4a7.8 7.8 0 0 1 1.9-.29v.02Z" fill="#BED864"/><path d="M46.83 36.31v.02l-.64.2c-.2.06-.41.14-.63.24l-1.42.68a19.3 19.3 0 0 1-2.43.9c-.5.15-.98.26-1.44.33a6.68 6.68 0 0 1-1.5.04c-.06-.02-.06-.03 0-.03a13.88 13.88 0 0 0 4.94-1.46 10.96 10.96 0 0 1 3.12-.92ZM44.93 36.54a128.22 128.22 0 0 0-2.9.98c-1.2.47-2.4.74-3.61.83a9.89 9.89 0 0 1-5-1.04c1.22.33 2.4.5 3.55.48a59.4 59.4 0 0 0 2.15-.04c.44-.03.87-.09 1.3-.19.57-.12 1.34-.32 2.34-.59a29.55 29.55 0 0 1 2.17-.46v.02ZM33.29 36.67a11.3 11.3 0 0 1 2.55-.13c.29.02.55.06.8.13.1.03.1.05-.01.07-.25.05-.52.1-.8.18a.87.87 0 0 1-.44.01 8.3 8.3 0 0 0-2.1-.23v-.02Z" fill="#BED864"/><path d="M38.52 36.77a4.4 4.4 0 0 0-1.07-.15c-.11 0-.11-.01 0-.03.18-.04.37-.06.56-.07.16 0 .35.02.56.07a4.04 4.04 0 0 1 1.1.47l.01.01a.02.02 0 0 1 0 .03h-.02c-.2.03-.3.04-.48-.04-.3-.16-.53-.25-.66-.29ZM35.29 37.24a36.95 36.95 0 0 1 1.36-.38c.5-.1 1.05-.07 1.57.01.28.04.56.13.84.26.08.04.07.06-.01.07a25.98 25.98 0 0 1-3.76.08c-.05-.01-.06-.02 0-.04ZM33.59 37.08c.48.09.87.13.87.1.01-.04-.37-.15-.85-.24a2.9 2.9 0 0 0-.88-.1c0 .04.38.14.86.24Z" fill="#BED864"/></svg>