<svg width="56" height="56" viewBox="0 0 56 56" xmlns="http://www.w3.org/2000/svg"><path fill="#F0F3FA" d="M0 0h56v56H0z"/><path d="M38.93 36c.04 0 .07-.01.07-.06l-.01-.04-6.68-11.85a.15.15 0 0 0-.13-.08c-.03 0-.06 0-.08.02a.15.15 0 0 0-.05.06l-2.1 3.75c-.1.16-.06.28.1.38l3.55 2.11c.09.05.1.12.05.21l-2.2 3.92a.16.16 0 0 1-.09.07.14.14 0 0 1-.1-.01l-3.5-2.08c-.2-.12-.36-.07-.47.13l-.66 1.1A.68.68 0 0 1 26 34h-4.62c-.26 0-.32-.1-.2-.33l7.57-13.42a.43.43 0 0 1 .4-.25h6.08c.08 0 .15.03.22.07.07.04.12.1.16.17 1.91 3.41 4.6 8.14 8.03 14.17.92 1.62 1.38 2.73 1.37 3.33-.02 1.11-.48 2-1.4 2.67-.53.38-1.38.58-2.57.58H16.06c-1.86.01-3.03-.13-3.51-.42A3.13 3.13 0 0 1 11 37.88a5.2 5.2 0 0 1 .88-2.66 8848.6 8848.6 0 0 0 12.47-22.04c.87-1.54 1.56-2.46 2.09-2.76.86-.5 1.8-.56 2.83-.15.58.23 1.15.85 1.71 1.84 2.03 3.57 2.97 5.13 3.14 5.41.17.31.09.48-.26.48H29.4a.85.85 0 0 1-.78-.47l-.47-.77c-.13-.23-.26-.23-.39 0L17 35.87a.09.09 0 0 0 .03.12l.04.01h21.86Z" fill="#ED1C24"/></svg>