<svg width="56" height="56" viewBox="0 0 56 56" xmlns="http://www.w3.org/2000/svg"><path fill="#F0F3FA" d="M0 0h56v56H0z"/><path d="M26.78 21.5a.4.4 0 0 1 .08.1l.01.05v1.88c0 .02.01.03.04.03h.45c.01 0 .02 0 .02-.02v-1.85a.23.23 0 0 0-.04-.13.43.43 0 0 0-.13-.13 7.67 7.67 0 0 1-.84-.57.66.66 0 0 1-.24-.21h-.01l-.15.26v.02l.35.24c.16.1.31.2.46.33ZM24.96 21.6a.4.4 0 0 0-.14-.16 7.29 7.29 0 0 1-.74-.52v-.01a.03.03 0 0 1 0-.02 1.05 1.05 0 0 0 .13-.23.03.03 0 0 1 .03 0h.01c.09.14.29.27.42.35h.01c.2.12.38.26.56.4l.06.04c.05.04.09.08.11.12.03.04.04.08.04.12a111.32 111.32 0 0 1-.03 1.87h-.41c-.02 0-.03 0-.03-.03v-.43a119.78 119.78 0 0 0-.02-1.5ZM28.01 21a10.22 10.22 0 0 1 .8.64v1.91l.02.01h.42c.02 0 .03-.01.03-.03v-1.89l-.01-.03c-.1-.16-.28-.28-.44-.37-.27-.18-.45-.3-.66-.47a.44.44 0 0 1-.1-.1v-.02a.03.03 0 0 0-.04.01v.01a.3.3 0 0 1-.16.2v.01a.03.03 0 0 0 0 .04v.01l.14.08ZM29.93 20.67v-.01a.02.02 0 0 1 .03 0c.1.12.24.22.36.3a4.8 4.8 0 0 1 .68.47l.13.11.05.05a.1.1 0 0 1 .03.07 45.91 45.91 0 0 1-.01 1.9h-.46c-.02 0-.03-.01-.03-.03V21.7c0-.14-.11-.24-.23-.31a5.93 5.93 0 0 1-.68-.5l.13-.23ZM22.28 21.01l.12.08.52.38c.08.06.13.15.13.26a490.8 490.8 0 0 0 0 1.82.04.04 0 0 0 .03.01h.44l.02-.01V21.67c0-.14-.18-.27-.28-.33a9.32 9.32 0 0 1-.82-.57l-.05-.06a.57.57 0 0 0-.03-.03.06.06 0 0 0-.04-.02l-.03.01-.02.02-.12.2a.03.03 0 0 0 0 .05l.13.07Z" fill="#ED1D24"/><path fill-rule="evenodd" d="M35.43 16.23c0 .03-.01.05-.04.05H20.36c-.04 0-.05-.02-.05-.05v-2.2c0-.04-.01-.08-.03-.1l-1.85-2.91c-.02-.03-.03-.03-.05 0l-1.8 2.88c-.05.05-.04.1.04.1h3.06c0-.02.02 0 0 0v2.27l-.03.01H17c-.02 0-.03 0-.03.03v.68L17 17h2.67c.01 0 .02.01.02.03V22.98l-.02.02H10c0 .01 0 0 0 0v.69h9.67l.01.01V35.33H18L18 35.3v-6.56a.08.08 0 0 0-.03-.06l-3.57-2.63a.03.03 0 0 0-.04 0l-.18.28a4.43 4.43 0 0 1-.26.4l.01.02.02.01 2.62 1.9a.1.1 0 0 1 .04.03l.01.05v6.58h-6.6l-.01.01v.02l-.01.61V36l.03.01H46V23h-9.96c-.02 0-.04-.03-.04-.05v-5.93l.01-.01h2.47c.02 0 .02-.01.02-.03v-.69l-.01-.01a251.2 251.2 0 0 1-2.45 0c-.02 0-.04-.02-.04-.05v-2.18a.37.37 0 0 0-.06-.2c-.62-.94-1.31-1.88-1.9-2.83l-.01-.01a.03.03 0 0 0-.03 0h-.01l-1.78 2.92v.04l.02.03h3.2v2.23Zm-15.1.77h15.09l.01.02v2.52l-.01.02h-15.1l-.01-.02v-2.52l.01-.02Zm7.62 8.03c-.03-.02-.04-.04-.02-.07.05-.13.13-.23.22-.34.06-.09.13-.17.18-.28a.06.06 0 0 1 .04-.03.05.05 0 0 1 .05.01c.7.57 1.45 1.1 2.19 1.63A81.18 81.18 0 0 1 32 27v8.34h3.41c.01 0 .02 0 .02-.02v-15c0-.01 0-.02-.02-.02H20.32l-.01.01v15.02l.02.02H30.6l.02-.01v-8.37a.05.05 0 0 0-.03-.02 17.38 17.38 0 0 0-2.64-1.9Zm11.79 1.04c0-.01.01-.02.02 0l3.47 2.5.16.12a.09.09 0 0 1 .03.07V35.33h1.86V23.68H36v11.62l.02.02h5.96c.02 0 .02 0 .02-.02v-6.56a.08.08 0 0 0-.03-.07l-1.13-.82c-.5-.36-1-.72-1.5-1.1v-.03c.12-.23.4-.66.4-.66Z" fill="#ED1D24"/><path d="m13.3 41.56.02-.01v-.97c0-.1 0-.2-.03-.3-.04-.19-.31-.26-.47-.25-.03 0-.04-.01-.04-.05v-.06c-.01-.04 0-.06.04-.06h2.09c.03 0 .04.02.04.05l-.01.09-.01.02-.02.01c-.17.02-.36.05-.44.24a.69.69 0 0 0-.03.24 227.06 227.06 0 0 0-.02 1.05c-.1.08-.22.14-.35.18a4.33 4.33 0 0 1-2.38.15A2.46 2.46 0 0 1 10 39.84a3 3 0 0 1 .08-1c.4-1.5 2-2.15 3.36-1.68l.44.16c.18.07.35-.13.41-.28l.03-.03a.1.1 0 0 1 .08 0c.02 0 .03.01.03.03v1.63l-.03.03h-.08a.05.05 0 0 1-.03-.04c-.04-.12-.12-.2-.17-.32a1.6 1.6 0 0 0-.64-.77c-.11-.07-.23-.16-.35-.2a1.34 1.34 0 0 0-1.74.92c-.23.82-.23 1.76.01 2.55.05.15.12.29.22.4.16.22.47.37.72.45.16.05.33.06.53.02.14-.03.28-.1.42-.15ZM21.95 37.3h-.46c-.17 0-.34.11-.46.24-.12.14-.22.35-.3.52a.68.68 0 0 0-.06.27c0 .04-.02.06-.05.06h-.04c-.01 0-.02 0-.03-.02l-.01-.03v-1.32c0-.01 0-.02.02-.02h3.92V38.39h-.09c-.02 0-.03 0-.04-.03-.03-.27-.15-.68-.37-.84-.13-.1-.26-.2-.42-.21a10.98 10.98 0 0 0-.56 0v3.88c0 .4.18.7.63.68h.01l.01.01.01.01V42h-.03L21.4 42c-.02 0-.03 0-.04-.02a.07.07 0 0 1-.02-.04v-.02c0-.03 0-.05.04-.06.1-.01.23 0 .32-.03.24-.1.29-.35.29-.6v-3.9c0-.03-.03-.04-.05-.04ZM27 39.63v1.73c0 .1.07.16.13.2a.4.4 0 0 0 .2.1c.12.02.28.02.48.01.33-.01.59-.08.83-.27l.17-.13a.8.8 0 0 0 .23-.34 6.59 6.59 0 0 0 .19-.52l.03-.02h.05c.02 0 .04.02.03.05l-.18 1.54v.01H25.4c-.03 0-.05-.01-.05-.05v-.05l.01-.02.02-.01h.02c.13 0 .32 0 .4-.08.12-.11.2-.25.2-.43v-3.7c0-.07-.03-.15-.04-.23-.05-.28-.36-.29-.56-.28-.03 0-.05-.02-.05-.06v-.02c0-.04.02-.06.05-.06h3.64v1.45c0 .03 0 .05-.04.05h-.02c-.02 0-.04 0-.06-.02a.1.1 0 0 1-.02-.06 1.1 1.1 0 0 0-.09-.38c-.04-.1-.1-.2-.17-.3a.76.76 0 0 0-.2-.22l-.29-.16a.74.74 0 0 0-.32-.07 43.33 43.33 0 0 0-.83.02v2l.07.02c.18 0 .42-.02.56-.2.2-.28.28-.62.32-.96l.01-.03.03-.02.08-.01h.03l.01.02v2.59l-.01.02H28c-.03 0-.05-.02-.05-.06a3.1 3.1 0 0 0-.19-.69c-.13-.33-.4-.4-.7-.39-.01 0-.06.01-.06.03ZM32.68 40.26l.01.01h.03l.1-.16a19.83 19.83 0 0 1 .57-1.63 6.37 6.37 0 0 0-.44-1.16c-.08-.16-.29-.17-.44-.19-.03 0-.04-.01-.04-.04v-.04c0-.03.02-.05.05-.05h2.12c.03 0 .04.02.05.04v.05a.05.05 0 0 1-.01.03.05.05 0 0 1-.03.02c-.25 0-.4.04-.43.13-.18.36.63 2.1.76 2.42l.14.45.02.02h.04l.01-.02c.28-.7.87-2.76.87-2.76-.03-.17-.28-.24-.4-.24-.03 0-.05-.02-.06-.05v-.02c0-.05.01-.07.06-.07a67.72 67.72 0 0 1 1.13.03.05.05 0 0 1 .02.05l-.01.02-.02.02c-.12.04-.24.07-.3.18l-.09.2a70.06 70.06 0 0 0-1.6 4.47.09.09 0 0 1-.12 0 .1.1 0 0 1-.02-.04c-.38-1-.69-2.03-1.06-3.03l-.01-.02h-.04v.01c-.49.94-.8 2.05-1.17 3.04a.1.1 0 0 1-.04.05.09.09 0 0 1-.1 0 .1.1 0 0 1-.04-.04c-.62-1.52-1.06-3.13-1.74-4.62a.23.23 0 0 0-.15-.13 30.92 30.92 0 0 0-.2-.08v-.09l.04-.02h1.91c.03 0 .04.01.04.04v.05l-.01.04-.04.01c-.3 0-.43.12-.33.45.22.72.52 1.43.79 2.13.07.18.11.37.18.54ZM43.82 39.56c.04.05.07.06.1 0 .15-.22 1.41-2.21 1.06-2.35-.1-.04-.2-.06-.33-.06h-.02l-.02-.02-.01-.03v-.05c0-.03.01-.05.04-.05h1.3c.04 0 .05.02.06.05 0 .05-.01.08-.05.1-.12.03-.3.08-.37.19a39.1 39.1 0 0 0-1.51 2.52c-.02.04-.07.07-.07.11v1.44c0 .23.3.42.5.44l.34.02c.03 0 .05.02.05.05v.04l-.01.02-.02.01h-.02l-2.46.01c-.04 0-.06-.02-.07-.06v-.02l.02-.04a.05.05 0 0 1 .04-.02c.14 0 .4.02.5-.08.1-.1.13-.23.13-.37v-1.17c0-.1 0-.23-.07-.37-.43-.81-.77-1.69-1.25-2.47a.55.55 0 0 0-.42-.26c-.03 0-.05-.03-.04-.06v-.03c0-.03.01-.05.05-.05h2.08c.04 0 .05.02.05.06v.02c0 .04-.01.06-.05.06-.14 0-.48-.01-.4.27.18.7.53 1.5.87 2.15Z" fill="#144E8C"/><path fill-rule="evenodd" d="M16.6 40.7a.18.18 0 0 1 .07-.09.13.13 0 0 1 .07-.01h1.43a.1.1 0 0 1 .06.01l.05.05.08.22c.04.15.1.3.16.44 0 .03.02.05.03.08.03.09.04.16.03.24-.04.21-.25.22-.41.22h-.1c-.02 0-.03.02-.03.04v.04c0 .04.02.06.05.06h2.11c.04 0 .05-.02.05-.06v-.02c0-.04-.02-.06-.05-.06-.13-.02-.2-.1-.28-.18a2.22 2.22 0 0 0-.06-.06l-1.92-4.57a.08.08 0 0 0-.05-.05h-.02l-.02.02-1.89 4.49a.63.63 0 0 1-.2.19l-.13.1-.08.04c-.04.01-.07.02-.09.05a.1.1 0 0 0 0 .07c0 .01 0 .02.02.03l.03.01h1.43a.04.04 0 0 0 .03-.01v-.02l.01-.02v-.04c0-.03-.01-.05-.04-.05a8.3 8.3 0 0 0-.25-.03.31.31 0 0 1-.2-.11.42.42 0 0 1-.1-.43l.2-.58Zm.82-1.99-.6 1.57v.03l.01.02h1.24l.01-.01v-.04l-.59-1.57-.01-.02h-.04l-.02.02ZM37.56 40.7a.18.18 0 0 1 .08-.09.13.13 0 0 1 .06-.01h1.44a.1.1 0 0 1 .06.01l.04.05.08.22.16.44.03.08c.03.09.04.16.03.24-.03.21-.24.22-.41.22h-.1c-.01 0-.03.02-.03.04v.04c0 .04.02.06.05.06h2.11c.04 0 .06-.02.06-.06v-.02c0-.04-.02-.06-.06-.06-.13-.02-.2-.1-.28-.18a2.22 2.22 0 0 0-.05-.06l-1.93-4.57a.08.08 0 0 0-.05-.05h-.02l-.02.02-1.89 4.49a.63.63 0 0 1-.2.19l-.13.1-.08.04c-.03.01-.07.02-.08.05a.1.1 0 0 0 0 .07l.01.03.03.01h1.43a.04.04 0 0 0 .03-.01l.01-.02v-.06c0-.03 0-.05-.04-.05a8.34 8.34 0 0 0-.25-.03.31.31 0 0 1-.2-.11.42.42 0 0 1-.09-.43l.2-.58Zm.82-1.99-.6 1.57v.03l.01.02h1.24l.01-.01v-.04l-.59-1.57-.01-.02h-.04l-.02.02Z" fill="#144E8C"/></svg>