<svg xmlns="http://www.w3.org/2000/svg" width="56" height="56" viewBox="0 0 56 56"><path fill="#006CB5" d="M0 0h56v56H0z"/><path d="M16 27h-5v2h3v1.23c-.17.2-1.13.77-2.68.77C9.38 31 8 29.4 8 27.5c0-2.16 1.77-3.5 3.5-3.5 1.39 0 2.37.96 2.67 1.34l1.48-1.84c-.82-.78-2.14-1.5-4.33-1.5C8.95 22 6 24 6 27.5c0 3.11 1.9 5.5 5.32 5.5 2.74 0 4.26-1.21 4.68-1.82V27ZM29 25h-2v8h2v-4.54c0-.78.76-1.46 1.51-1.46.76 0 1.49.68 1.49 1.46V33h2v-5.24c0-1.52-1.2-2.76-2.68-2.76h-.2c-.86 0-1.63.42-2.12 1.08V25Zm11 8h2v-8h-2v4.55c0 .77-.76 1.45-1.51 1.45-.76 0-1.49-.68-1.49-1.46V25h-2v5.24c0 1.52 1.2 2.76 2.68 2.76h.2c.86 0 1.63-.42 2.12-1.08V33Zm8.85-5.48.94-1.56A5.46 5.46 0 0 0 46.6 25c-2 0-3.25 1.25-3.25 2.52s1.42 1.96 2.4 2.29l.77.22c.7.2 1.3.35 1.3.72 0 .5-.8.55-1.38.55a8.9 8.9 0 0 1-2.34-.9L43 31.86A6.72 6.72 0 0 0 46.6 33c2.06 0 3.4-.9 3.4-2.6 0-1.38-1.78-2.07-2.67-2.24-.7-.15-2-.59-1.57-1.13.55-.69 2.37-.04 3.09.5Z" fill="#fff"/><path fill-rule="evenodd" d="M19.24 30h5.72c.21-1.6-.28-5-3.96-5-3.68 0-4.17 3.2-3.96 4.79A3.76 3.76 0 0 0 21 33c1.17 0 2.54-.4 3.55-1.43l-1.35-1.1c-.34.25-1.23.77-2.11.77A1.9 1.9 0 0 1 19.24 30Zm.3-2h3c-.17-.35-.71-1-1.53-1-.83 0-1.32.65-1.47 1Z" fill="#fff"/><path fill-rule="evenodd" d="M19.24 30h-2.16a2.83 2.83 0 0 1-.04-.21c-.21-1.6.28-4.79 3.96-4.79 3.68 0 4.17 3.4 3.96 5h-5.72Zm3.3-2h-3c.15-.35.64-1 1.47-1 .82 0 1.36.65 1.52 1Z" fill="#F3803D"/><path d="M23.33 22.7a.47.47 0 0 0-.18-.64.47.47 0 0 0-.64.17l-.4.67a.47.47 0 0 0 .18.64c.23.13.52.06.65-.17l.39-.67Zm2.5 2.06a.47.47 0 0 0 .13-.65.47.47 0 0 0-.65-.13l-.65.42a.47.47 0 0 0-.13.65c.14.22.43.28.65.14l.65-.43Zm-7.11-2.06a.47.47 0 0 1 .17-.64.47.47 0 0 1 .64.17l.4.67a.47.47 0 0 1-.82.47l-.4-.67Zm-2.5 2.06a.47.47 0 0 1-.14-.65.47.47 0 0 1 .65-.13l.65.43c.22.14.28.43.13.64a.47.47 0 0 1-.65.14l-.65-.43Z" fill="#F3803D"/></svg>