<svg width="56" height="56" viewBox="0 0 56 56" xmlns="http://www.w3.org/2000/svg"><path fill="#F0F3FA" d="M0 0h56v56H0z"/><path fill-rule="evenodd" d="M45 28a17 17 0 1 1-34 0 17 17 0 0 1 34 0Zm-1 0a16 16 0 1 1-32 0 16 16 0 0 1 32 0Zm-6.98 12.09a15.02 15.02 0 0 1-13.31 2.37c2.04.35 4.17.36 4.86.05.4-.18.78-.48 1.11-.8.46-.41.45-1.12.05-1.6a1.18 1.18 0 0 0-1.54-.25c-.24.15-.52.35-.84.59-.85.65-2.07.86-2.57.88-3.71-.06-6.8-2.16-8.54-3.88a15.02 15.02 0 0 1-2.48-14.43c-.5 2.26-.56 4.9-.2 5.67.17.4.47.78.78 1.12.43.45 1.13.44 1.6.05.46-.39.6-1.05.26-1.55-.15-.24-.35-.51-.59-.83a5.03 5.03 0 0 1-.87-2.57c.06-4.48 3.1-8.03 4.87-9.45a15.01 15.01 0 0 1 14.42-1.29c-2.42-.74-5.78-.88-6.68-.47-.4.18-.78.48-1.11.8-.46.42-.45 1.12-.05 1.6.38.45 1.04.58 1.54.25.24-.15.52-.35.84-.59a5.03 5.03 0 0 1 2.57-.87c4.74.06 8.44 3.47 9.67 5.17l-.08-.16a15.01 15.01 0 0 1 1.72 12.45c.37-2.1.39-4.3.07-5-.18-.4-.48-.79-.8-1.12-.41-.46-1.12-.45-1.6-.05a1.18 1.18 0 0 0-.25 1.54c.15.24.35.52.59.84.65.85.86 2.07.87 2.57-.05 4.03-2.52 7.31-4.3 8.96Zm-17.3-15.25a3.5 3.5 0 0 1-.35-2.87c.1-.24.49-.75.98-.75.38 0 .42.3.4.45-.24.47-.3 1.09-.3 1.34 0 1.12.75 1.44 1.13 1.46 0-.57.15-1.93.78-3.25.64-1.32 2.77-3.08 3.94-2.19 1.16.9.89 2.75-.5 4.45a6.3 6.3 0 0 1-2.77 2.1c.06.26.32.8.88.8.57 0 1.5-.81 1.9-1.21.3-1.47 1.29-2.57 1.95-2.41.66.16.56.92.26 1.46a7.46 7.46 0 0 1-1.14 1.35l-.18 1.47c.18 0 2.62-1.64 3.82-2.46a5.16 5.16 0 0 1 .57-3.71c1.1-2.12 2.82-2.17 3.5-1.81.66.36 1.45 1.74.36 3.13a18.46 18.46 0 0 1-2.83 2.74l.68.88c.1-.08.47-.24 1.22-.24.94 0 1.54.41 1.54.8 0 .39-.68.8-1.54.8-.7 0-1.1-.09-1.22-.13a4.51 4.51 0 0 0-2.98 4.25c0 2.34 1.53 4.07 3.18 4.07a2.96 2.96 0 0 0 2.95-2.9c0-1.51-.7-2.25-1.58-2.25-.9 0-1.29.73-1.29 1.08 0 .34.1.54.47.95.38.4.47 1.24-.29 1.24s-1.81-.64-1.81-2.09c0-1.44 1.63-2.62 2.95-2.62 1.32 0 3.17.96 3.17 3.6 0 2.65-2.44 4.4-4.49 4.4-2.05 0-4.98-1.16-4.98-5.09 0-3.14 2.23-4.9 3.35-5.38l-.47-.56c-1.09.71-3.41 2.1-4.44 2.7-.02 1.09-.23 3.82-1.22 5.8-.99 1.97-4.2 3.8-5.83 1.92-1.63-1.89-.54-3.86.7-5.25.98-1.12 3.83-2.62 5.13-3.23l.1-.82c-.65.5-1.46.62-1.78.61-1.3 0-1.92-1.16-2.07-1.73-1.14-.15-1.6-.63-1.77-.82-.04-.05-.07-.08-.09-.08Zm12.85-3.54c-.46.75-.71 1.6-.71 2.29.36-.2 1.3-1.12 1.63-1.54.33-.42 1.06-1.67.52-1.9-.54-.23-1.06.53-1.44 1.15Zm-8.75.23a5.5 5.5 0 0 0-.85 2.74 10.7 10.7 0 0 0 1.95-1.83c.4-.5 1.27-2.01.63-2.28-.65-.27-1.27.63-1.73 1.37Zm1.34 7.68c-.22 1.29-.9 4.14-1.87 5.21-1.21 1.35-2.69.87-2.9.5-.2-.38-1.07-2.66 4.77-5.71Z" fill="#026CB6"/></svg>