<svg width="56" height="56" viewBox="0 0 56 56" xmlns="http://www.w3.org/2000/svg"><path fill="#F0F3FA" d="M0 0h56v56H0z"/><path d="M43.93 21H40.2L37 37h11.16l.84-3h-7.68l2.6-13ZM26.85 21H38l-.74 3h-7.64l-.53 3H37l-.8 3h-7.65l-1.25 7H24l2.85-16Z" fill="#187ABD"/><path fill-rule="evenodd" d="M31.93 37.4c9.88-1.9 17.03-7.63 15.96-12.82-1.06-5.19-9.94-7.86-19.82-5.97-9.88 1.89-17.03 7.63-15.96 12.81 1.06 5.19 9.94 7.86 19.82 5.97ZM25.22 36c6.72.08 20.86-2.72 20.78-11.26 0-6.74-13.3-6.67-17.81-5.81-9 1.72-15.55 6.75-14.63 11.23.7 3.4 5.44 5.84 11.66 5.84Z" fill="#889588"/><path d="M22.33 24s.45-1.92.67-3h-6.23c-3.83 0-6.98 2.4-8.6 4.97a8.19 8.19 0 0 0-1.07 5.35 14 14 0 0 0 5.17 1.18 4.3 4.3 0 0 1-1.62-3.52c0-2.95 3.23-4.63 4.85-4.98h6.83Z" fill="#187ABD"/><path d="M21.26 27h-5.41L15 31h3.97a6.82 6.82 0 0 1-5.54 2.45c-2.77 0-5.3-.86-6.23-1.3.56 2.12 2.99 4.85 6.64 4.85a9.9 9.9 0 0 0 5.6-1.96L19 37h2.75L24 27h-2.74Z" fill="#3EA44B"/></svg>