<svg xmlns="http://www.w3.org/2000/svg" width="56" height="56"><path fill="#CE8F57" d="M0 0h56v56H0z"/><path d="M32.27 26.66V25H30.8v.64h.59v.56c-.09.03-.2.04-.28.06h-.01l-.25.02c-.35 0-.64-.1-.86-.3a.99.99 0 01-.33-.77c0-.3.11-.55.34-.75.23-.2.52-.3.88-.3.2 0 .38.04.56.11.18.07.37.19.55.34l.1-.83a2.5 2.5 0 00-1.27-.32c-.6 0-1.11.17-1.51.5-.4.34-.6.76-.6 1.28 0 .5.2.92.6 1.26.39.33.88.5 1.48.5a4.56 4.56 0 001.5-.34zm.9-3.2V27h.86v-1.43h1.37V27h.89v-3.54h-.89v1.42h-1.37v-1.42h-.85zm6.6 1.16a1.55 1.55 0 00-.43-.33 1 1 0 00-.45-.1c-.27 0-.5.1-.67.29-.17.19-.26.44-.26.74s.09.55.26.74c.17.19.4.28.67.28.17 0 .33-.03.49-.1.16-.07.32-.18.49-.32l-.05.88a1.62 1.62 0 01-.96.3 1.64 1.64 0 01-1.5-.98 1.96 1.96 0 01-.05-1.48 1.7 1.7 0 01.9-.95 1.71 1.71 0 011.64.18l-.08.85zm.99-1.04V27H43v-.73h-1.35v-2.7h-.9z" fill="#fff"/><path d="M29.15 10v10.37L20.62 28l7.63 7.52.97-.96-6.7-6.56H46L28.25 46 10 27.46 29.15 10z" fill="#fff"/></svg>