<svg xmlns="http://www.w3.org/2000/svg" width="56" height="56"><path fill="#1B3988" d="M0 0h56v56H0z"/><path fill="#fff" d="M20 29l7.99-7.99L35.98 29l-7.99 7.99z"/><path d="M27.47 11L14.42 23.49a11.25 11.25 0 00-1.46 14.42C15.13 41.09 19.07 43 22.98 43h10.05c3.9 0 7.84-1.91 10.01-5.09a11.25 11.25 0 00-1.46-14.43L28.53 11v8.83l8.24 8.07a5.36 5.36 0 01.63 6.73 5.33 5.33 0 01-4.41 2.31H22.94a5.33 5.33 0 01-4.4-2.3 5.37 5.37 0 01.7-6.74l8.23-8.07V11z" fill="#fff"/><path fill="#1B3988" d="M24 25h8v8h-8z"/></svg>