<svg width="56" height="56" viewBox="0 0 56 56" xmlns="http://www.w3.org/2000/svg"><path fill="#F0F3FA" d="M0 0h56v56H0z"/><path fill-rule="evenodd" d="m45.97 40.36-8.63-24.8A3.79 3.79 0 0 0 33.77 13H19.66c-1.7 0-3.2 1.16-3.65 2.83l-5.93 22.15A2.39 2.39 0 0 0 12.36 41h18.22a3.8 3.8 0 0 0 3.67-2.94l1.7-7.16c.26-1.06-.53-1.9-1.6-1.9H23.73c-.95 0-1.63-1.1-1.36-2.02l3.03-9.96c.18-.6.73-1.02 1.36-1.02h5.8c.6 0 1.13.37 1.34.94l8.75 23.75c.07.18.25.31.44.31h2.44c.32 0 .55-.33.44-.64ZM22.43 32c-.6 0-1.13.4-1.33 1l-1 2.94c-.34 1 .35 2.06 1.33 2.06h4.69c.58 0 1.1-.39 1.32-.97l1.06-2.94c.37-1-.32-2.09-1.32-2.09h-4.75Z" fill="#0A408B"/><path d="M17.77 28.5a.8.8 0 0 1 .75-.5h2.7c.57 0 .95.54.75 1.05l-.6 1.46a.8.8 0 0 1-.76.49h-2.65c-.56 0-.95-.53-.76-1.03l.57-1.47Z" fill="#959392"/></svg>