<svg width="56" height="56" viewBox="0 0 56 56" xmlns="http://www.w3.org/2000/svg"><path fill="#F0F3FA" d="M0 0h56v56H0z"/><path fill-rule="evenodd" d="M28 10a8 8 0 0 1 7.65 10.35 8 8 0 1 1 0 15.3 8 8 0 1 1-15.3 0 8 8 0 1 1 0-15.3A8 8 0 0 1 28 10Zm-1 15.94a8.07 8.07 0 0 0 2 0v4.12a8.09 8.09 0 0 0-2 0v-4.12ZM28 24c.34 0 .67-.03 1-.08V18h2v5.2a6 6 0 1 0-3 .8Zm-3 8.8V37h2v-4.92a6 6 0 1 1-2 .72ZM24 28a6 6 0 1 1-1.53-4h-4.39v2h5.58c.22.63.34 1.3.34 2Zm20 0a6 6 0 0 1-10.47 4H37v-2h-4.66A5.99 5.99 0 1 1 44 28Z" fill="#ED033A"/></svg>