<svg width="56" height="56" viewBox="0 0 56 56" xmlns="http://www.w3.org/2000/svg"><path fill="#F0F3FA" d="M0 0h56v56H0z"/><path d="M37 14 18 28h6.73c.1-.59.42-1.26 1.26-1.26.47 0 .68.1.94.36 0-.46 0-2.1 1.34-2.1.73 0 1.2.97 1.35 1.74.12.58.56 1.1.96 1.58l.39.47.23.3c.4.5.93 1.19 1.22 1.84L40 25H29.5L37 14ZM22.83 38.44V35.9a1.13 1.13 0 0 0-.34-.42L17 43l5.83-4.56Z" fill="#219ED9"/><path d="M30.54 38.87a7.68 7.68 0 0 0-.9 4.2l.04.93h-6.16c.34-.88.72-1.78.89-2.71.1-.6.06-1.24-.36-1.73-.17-.21-.36-.4-.5-.64-.48-.85-.4-1.87-.33-2.82.49.45 1.09.8 1.74.78.58-.01.97-.4.9-.97.58.25 1.2-.16 1.36-.7.09-.28.08-.59-.04-.9.83-.07 1.27-.86 1.04-1.6.37.12.93.1 1.21-.22a6.04 6.04 0 0 1-.31 1.76 2.97 2.97 0 0 1-.85 1.36c-.2.15-.32.38-.24.62.1.32.51.07.65-.07a5.11 5.11 0 0 0 1.23-3.31c.01-.7-.14-1.47-.53-2.06-.22-.33-.51-.6-.77-.9-.8-.93-1.3-2.1-1.23-3.33.03-.48.22-1.01.78-1.04.25-.02.43.09.56.3.1.15.16.3.21.47.15.48.28 1.01.57 1.45.22.35.46.68.73 1 .54.61 1.07 1.23 1.47 1.95.24.43.4.9.49 1.41a7.93 7.93 0 0 1-.23 3.32 15.23 15.23 0 0 1-1.42 3.45Z" fill="#2E2A27"/><path d="M27.38 28.87c.33.77.75 1.41 1.26 1.93.3.3.55.68.45 1.1-.08.35-.29.49-.62.4-.1-.02-.26-.1-.47-.22a6.12 6.12 0 0 1-2.82-3.78c-.07-.36.02-.64.29-.85.4-.3 1.06-.25 1.33.19.24.38.4.82.58 1.23Z" fill="#2E2A27"/><path d="M25.04 29.16c.28.92.76 1.7 1.5 2.36.25.24.54.48.83.71.44.34.65.97.2 1.39a.72.72 0 0 1-.82.1c-1.4-.77-2.37-2.42-2.81-3.9a1.1 1.1 0 0 1 .03-.75c.24-.56.9-.45 1.07.1Z" fill="#2E2A27"/><path d="M24.34 31.8a5.72 5.72 0 0 0 2.02 2.34c.34.22.53.5.43.92-.06.28-.3.48-.6.42a2.3 2.3 0 0 1-.92-.58 9.98 9.98 0 0 1-2.01-2.51c-.23-.41-.52-.95-.4-1.43.12-.5.7-.69.97-.16l.5 1ZM24.42 36.36A6.35 6.35 0 0 1 22 34.1c-.25-.45-.43-1.06-.09-1.5a.7.7 0 0 1 .61-.28c.48.02.75 1.03.92 1.36.4.78 1.01 1.37 1.75 1.87.09.05.15.13.18.21.11.35-.07.75-.48.74a.93.93 0 0 1-.48-.15Z" fill="#2E2A27"/><path d="m17.14 37.02-.32.27-.6-.67.77-.65c.14 0 .3.04.46.11.17.07.31.17.42.3.14.15.22.32.25.5.02.18-.01.37-.1.57-.1.2-.24.38-.45.56-.21.18-.43.3-.64.36-.2.06-.4.06-.57.02a.95.95 0 0 1-.47-.3.87.87 0 0 1-.24-.57c0-.2.07-.38.23-.57l.35.24a.52.52 0 0 0-.12.32c0 .11.04.2.12.3.11.13.26.19.44.18.18 0 .38-.1.6-.29.23-.2.36-.39.4-.58a.48.48 0 0 0-.11-.44.65.65 0 0 0-.21-.15.84.84 0 0 0-.28-.08l-.25.21.32.36Zm-2.35-.39-.23-.35 1.16-.73c.18-.1.3-.19.35-.23a.41.41 0 0 0 .14-.25.4.4 0 0 0-.07-.27.4.4 0 0 0-.18-.17.33.33 0 0 0-.22 0c-.08.02-.22.1-.44.23l-1.19.75-.22-.35 1.12-.71c.3-.18.51-.3.66-.35.15-.05.3-.05.44.01.15.06.28.17.4.34.11.18.17.34.17.49 0 .14-.04.27-.13.39-.1.12-.3.28-.62.48l-1.14.72Zm-1.67-3.05-.15-.39 1.5-.58c.24-.1.43-.14.57-.14.14 0 .26.04.36.11.1.07.18.18.23.31.08.19.07.35-.02.5-.08.16-.26.29-.51.39l-.2-.34a.77.77 0 0 0 .27-.17c.07-.07.08-.15.05-.23-.03-.08-.09-.13-.16-.15-.07-.01-.2.02-.4.1l-1.54.59Zm1.56-3.68.1.44-.52.3.18.8.6.04.1.42-2.66-.21-.1-.43 2.3-1.36Zm-.81.97-.86.48.99.06-.13-.54Zm.75-1.36-2.54.19-.07-.87c-.02-.22 0-.38.03-.48.04-.1.11-.18.22-.25.1-.07.24-.11.4-.12.2-.02.36.02.49.1.13.09.21.21.26.38.06-.1.12-.17.2-.23a3 3 0 0 1 .39-.27l.48-.28.03.49-.53.34-.35.24a.33.33 0 0 0-.1.13.55.55 0 0 0-.01.21v.09l1.07-.08.03.4Zm-1.5-.3-.03-.3c-.01-.2-.03-.31-.05-.36a.23.23 0 0 0-.1-.12.39.39 0 0 0-.22-.03.36.36 0 0 0-.19.06.24.24 0 0 0-.09.14v.33l.03.33.65-.05Zm1.54-3.78-.04.45-.59.14-.06.81.56.21-.03.44-2.48-.98.03-.44 2.6-.63Zm-1.07.69-.96.2.92.35.04-.55Zm1.26-1.32-2.07-.46-.14.59-.42-.1.38-1.58.42.1-.14.59 2.06.46-.1.4ZM16.39 20.98l-2.15-1.34.23-.35 2.15 1.35-.23.34Zm.56-.87-2-1.54.25-.32 1.87.37-1.34-1.03.24-.3 2 1.54-.25.33-1.83-.36 1.3 1-.24.3Zm-.18-3.65.58-.5c.15-.12.28-.2.38-.22.1-.04.22-.04.35-.02.13.02.27.08.41.17.15.1.3.23.46.41.14.16.25.32.32.48.07.15.1.28.1.4a.7.7 0 0 1-.06.34c-.05.1-.14.21-.27.32l-.6.5-1.67-1.88Zm.6.05 1.1 1.25.25-.2c.1-.09.16-.16.2-.22a.34.34 0 0 0 .03-.18.63.63 0 0 0-.09-.24 2 2 0 0 0-.26-.35 1.99 1.99 0 0 0-.32-.3.6.6 0 0 0-.26-.12.4.4 0 0 0-.23.04c-.06.02-.15.1-.27.2l-.15.12Zm1.5-1.72.35-.22.74 1.14.24.33c.08.09.16.14.25.15.1.01.19-.01.29-.07a.4.4 0 0 0 .16-.18.31.31 0 0 0 .01-.22c-.02-.07-.1-.21-.24-.42l-.76-1.17.36-.22.72 1.1c.18.29.3.5.35.64a.6.6 0 0 1 0 .44.82.82 0 0 1-.36.39.96.96 0 0 1-.49.17.67.67 0 0 1-.4-.13 2.45 2.45 0 0 1-.5-.6l-.73-1.13Zm2.98.22.36-.2c.17.29.37.38.6.29.13-.05.2-.12.25-.2a.3.3 0 0 0 .01-.27.26.26 0 0 0-.09-.12.28.28 0 0 0-.14-.05l-.4.02c-.2.01-.34 0-.44-.02a.67.67 0 0 1-.27-.16.75.75 0 0 1-.2-.28.72.72 0 0 1-.05-.37.6.6 0 0 1 .15-.33.9.9 0 0 1 .36-.22.8.8 0 0 1 .6-.03c.18.08.32.22.42.45l-.39.17c-.06-.12-.13-.2-.21-.22a.4.4 0 0 0-.28.02c-.1.04-.17.1-.21.16a.2.2 0 0 0-.03.2c.03.06.08.1.15.12.07.03.2.03.41 0 .22-.01.39 0 .5.02.11.03.21.08.3.16a.9.9 0 0 1 .21.33c.08.2.09.4.02.58-.08.19-.25.33-.52.44-.47.18-.84.02-1.11-.5Zm2.9-.13-.48-2.02-.6.14-.1-.42 1.62-.36.1.41-.6.14.47 2.02-.41.09Zm1.51-.3-.2-2.49.9-.06c.22-.02.39-.01.49.03.1.03.18.1.25.21.07.1.12.24.13.4.01.19-.02.35-.1.47a.64.64 0 0 1-.4.26c.1.05.18.12.24.19.07.07.16.2.27.38l.3.47-.5.04-.35-.52c-.13-.19-.21-.3-.26-.35a.33.33 0 0 0-.13-.1.59.59 0 0 0-.21 0h-.09l.08 1.04-.42.03Zm.31-1.47.31-.02c.2-.01.31-.03.36-.05a.23.23 0 0 0 .12-.11.36.36 0 0 0 .04-.2.34.34 0 0 0-.07-.19.25.25 0 0 0-.14-.09 1.7 1.7 0 0 0-.34 0l-.33.03.05.63Zm2.01 1.38.2-2.49.41.03-.19 2.49-.42-.03Zm1.05.06.45-2.45 1.53.26-.08.42-1.11-.2-.1.55 1.04.18-.08.41-1.03-.18-.13.67 1.15.2-.07.42-1.57-.28Zm2.3-.37.4.08c-.06.32.04.52.28.6.12.04.23.04.32 0s.15-.1.18-.2c.02-.05.02-.1.01-.15a.27.27 0 0 0-.08-.13 3.3 3.3 0 0 0-.31-.24c-.16-.1-.26-.2-.32-.28a.65.65 0 0 1-.11-.3.74.74 0 0 1 .04-.33.73.73 0 0 1 .2-.32c.1-.09.21-.14.34-.15.12-.02.26 0 .41.05.24.07.4.2.49.36.08.17.1.37.02.6l-.4-.11c.02-.13.01-.23-.03-.3-.04-.07-.11-.13-.22-.16a.43.43 0 0 0-.27-.02.21.21 0 0 0-.12.33c.03.06.14.15.3.26.19.13.31.23.38.33.07.09.11.2.12.3.02.12 0 .25-.05.4-.07.2-.2.35-.37.45-.18.1-.4.1-.68 0-.49-.16-.66-.51-.53-1.07ZM36.72 17.54l1.76-1.8.5.45c.18.17.29.29.33.36.06.11.08.24.05.39a.9.9 0 0 1-.26.43.94.94 0 0 1-.4.26.62.62 0 0 1-.37 0 1.35 1.35 0 0 1-.44-.3l-.2-.19-.66.68-.3-.28Zm1.77-1.22-.5.51.17.16.25.2c.06.02.12.02.18 0a.39.39 0 0 0 .19-.11c.06-.06.1-.12.1-.19a.27.27 0 0 0-.01-.18c-.03-.05-.1-.13-.23-.25l-.15-.14Zm.62 1.77c.24-.18.46-.3.67-.35.21-.05.4-.05.56 0 .17.06.31.16.44.32.19.23.25.49.19.77-.07.29-.27.56-.6.81-.33.26-.66.38-.97.37a.88.88 0 0 1-.69-.35.85.85 0 0 1-.2-.74c.07-.3.27-.58.6-.83Zm.28.32c-.23.18-.37.36-.42.53a.48.48 0 0 0 .09.45c.1.13.24.2.42.19.18 0 .4-.1.63-.28.23-.18.37-.35.42-.52a.48.48 0 0 0-.1-.45.5.5 0 0 0-.42-.2c-.18.01-.39.1-.62.28Zm.33 2.6 2.04-1.58.2.38-1.42 1.05 1.74-.45.23.44-1.42 1.11 1.73-.5.2.36-2.5.7-.21-.4 1.5-1.21-1.88.49-.21-.4Zm1.08 2.23 2.45-.68.43 1.46-.42.12-.3-1.07-.55.15.29 1-.42.1-.28-.98-.67.18.32 1.1-.41.12-.44-1.5Zm.54 1.9 2.53-.3.1.86c.04.22.04.38 0 .48-.03.1-.1.18-.2.26a.84.84 0 0 1-.4.14c-.2.03-.36 0-.5-.08a.63.63 0 0 1-.27-.37c-.05.1-.11.18-.18.25-.07.06-.2.16-.38.28l-.47.31-.06-.49.51-.36c.19-.13.3-.22.35-.27a.33.33 0 0 0 .09-.13.55.55 0 0 0 0-.21l-.01-.09-1.06.14-.05-.41Zm1.51.23.04.3c.02.2.05.31.07.36.02.05.06.09.12.11.05.03.12.03.2.02a.36.36 0 0 0 .2-.07.24.24 0 0 0 .08-.14c0-.04 0-.15-.03-.33l-.04-.33-.64.08ZM42.13 31l-.22.36a1.15 1.15 0 0 1-.56-.41.77.77 0 0 1-.1-.56.8.8 0 0 1 .42-.59c.28-.14.62-.18 1.02-.11.43.07.75.23.95.46.18.2.25.44.2.72a.78.78 0 0 1-.34.52c-.13.09-.31.14-.54.15l-.05-.42c.14 0 .26-.04.34-.1a.4.4 0 0 0 .16-.25.43.43 0 0 0-.13-.4c-.12-.12-.33-.2-.63-.26-.32-.05-.55-.04-.7.02a.43.43 0 0 0-.27.33c-.02.1 0 .2.08.3.07.09.2.17.37.24Zm.1.95c.28.1.5.24.65.39.15.15.24.31.28.48a.9.9 0 0 1-.06.53.9.9 0 0 1-.59.54c-.28.1-.62.06-1.01-.1-.4-.14-.67-.35-.82-.62a.84.84 0 0 1-.03-.77c.1-.27.3-.45.55-.54.3-.1.64-.06 1.03.09Zm-.14.4a1.1 1.1 0 0 0-.68-.09.5.5 0 0 0-.36.3c-.06.15-.04.3.06.46.1.15.28.28.56.39.28.1.5.13.67.09a.5.5 0 0 0 .35-.3.48.48 0 0 0-.05-.47c-.09-.15-.28-.27-.55-.38Zm-1.94 1.27.43.22-.18.35-.44-.22.19-.35ZM37.87 36.83l1.75 1.79-.3.28-1.45-1.48-.76.7-.3-.3 1.06-1Zm-1.5 1.32 1.3 1.63.49-.38.26.34-1.3 1-.27-.33.49-.38-1.31-1.63.33-.25Zm.2 2.91-.67.38c-.17.1-.3.15-.41.16-.11.01-.23 0-.35-.05a1.13 1.13 0 0 1-.37-.25 2.2 2.2 0 0 1-.37-.48 1.9 1.9 0 0 1-.22-.53c-.04-.16-.05-.3-.03-.42a.7.7 0 0 1 .13-.32c.07-.09.18-.18.33-.26l.69-.39 1.27 2.16Zm-.58-.16-.84-1.43-.28.16a.82.82 0 0 0-.23.17.34.34 0 0 0-.08.17c0 .07 0 .15.04.26.03.1.1.23.19.39.1.16.18.28.26.36a.6.6 0 0 0 .23.16.4.4 0 0 0 .23 0c.06-.01.17-.06.31-.14l.17-.1Zm-2.56-1.04.18.45-.37.14-.18-.44.37-.15Z" fill="#2B2B2A"/></svg>