<svg width="56" height="56" viewBox="0 0 56 56" xmlns="http://www.w3.org/2000/svg"><path fill="#F0F3FA" d="M0 0h56v56H0z"/><path fill-rule="evenodd" d="M43 43V13H13v30h30Zm-23.01-6 .01.01v1.16c0 .02 0 .03-.02.05-.01.03-.03.04-.04.05-.3.21-.65.27-1.02.28-.55.02-1.07-.1-1.42-.54-.31-.4-.43-1-.45-1.54-.02-.37-.02-.73 0-1.07.03-.5.18-1.1.5-1.46.27-.33.64-.5 1.11-.5.36 0 .78.1 1.04.37.18.2.3.52.35.8l.01.03.02.01h1.9l.01-.02c-.14-1.23-.75-2.03-1.84-2.4a5.1 5.1 0 0 0-1.9-.22 3.26 3.26 0 0 0-3.01 2.24c-.24.69-.25 1.39-.23 2.14.03 1.36.55 2.53 1.7 3.16.9.49 1.96.52 2.96.38a4.25 4.25 0 0 0 2.32-1v-3.17c0-.02 0-.03-.02-.03H18.6V37H19.97l.01.01H20Zm8.54-1.45 3.03 4.42v.01a.02.02 0 0 1 0 .01h-2.57l-1.9-2.95h-.03l-1.05.85v2.09L26 40h-.01l-1.97.01a.02.02 0 0 1-.02-.01V32l.02-.01h1.97l.01.01V35.47a.02.02 0 0 0 .01.02.02.02 0 0 0 .02-.01l2.84-3.46a.02.02 0 0 1 .02-.01h2.65a.02.02 0 0 1 .01.03l-3.02 3.5v.02ZM37.67 32a85.6 85.6 0 0 1-1.53.01l-.01.02-1.02 4.86c-.02.09-.03.09-.05 0l-.84-4.86-.01-.02H32.4a.03.03 0 0 0 0 .02l1.6 7.94.01.02H35.9a2427.8 2427.8 0 0 0 1.02-4.48l.02.02a2281.6 2281.6 0 0 0 1 4.47H39.82l.01-.03 1.61-7.94a.03.03 0 0 0 0-.02h-1.81l-.01.02-.85 4.86c-.01.09-.03.09-.05 0l-1.02-4.86-.01-.02h-.02Z" fill="#000058"/><path d="M33.5 13c.07 0 .06.05-.03.15l-.08.11-7.36 11c-.02.04-.03.03-.03 0v-2.94c0-.05.01-.1.04-.14L31.51 13h2ZM36.22 13c.04 0 .04.03 0 .06a17600.48 17600.48 0 0 1-10.2 15.23c-.01.04-.02.03-.02 0v-2.94c0-.05.01-.1.04-.14L34.21 13h2.01Z" fill="#FD8B04"/></svg>