<svg xmlns="http://www.w3.org/2000/svg" width="56" height="56"><path fill="#F0F3FA" d="M0 0h56v56H0z"/><path fill-rule="evenodd" d="M44 15H16a4 4 0 00-4 4v18a4 4 0 004 4h24a4 4 0 004-4v-8a4 4 0 00-4-4H17v4h22a1 1 0 011 1v6a1 1 0 01-1 1H17a1 1 0 01-1-1V24a1 1 0 011-1h27v-8zM19.77 36c.81-.02 1.5-.32 1.73-.47v-2.25h-1v1.86c-.23.15-.48.23-.75.23-.97 0-1.75-1.06-1.75-2.37s.78-2.37 1.75-2.37c.56 0 1.06.35 1.38.91l.37-.58v-.01c-.07-.32-.66-.95-1.73-.95-1.43 0-2.77.96-2.77 3.15A2.7 2.7 0 0019.77 36zm3.73-6h-1v6H25v-.77h-1.5V30zm3.98 0l-1.88 6h.65l.52-1.72h1.48l.54 1.72h1.1l-1.86-6h-.55zm.05 1.71l-.57 1.95h1.15l-.58-1.95zM30.36 30v6H31v-4.04L33.66 36h.69v-6h-.6v3.99L31 30h-.64zM35 30h2a2.5 2.5 0 012.5 2.5v1A2.5 2.5 0 0137 36h-2v-6zm1 .55h.5a2 2 0 012 2v.9a2 2 0 01-2 2H36v-4.9z" fill="#F47D35"/></svg>