<svg width="56" height="56" viewBox="0 0 56 56" xmlns="http://www.w3.org/2000/svg"><path fill="#F0F3FA" d="M0 0h56v56H0z"/><path d="M35.1 26h2.81c.03 0 .05.02.07.03.02.02.02.05.02.07v1.75c0 .02-.06.15-.09.15h-2.85c-.05 0-.06.09-.06.14v1.7c0 .03-.05.16-.1.16h-2.77a.1.1 0 0 1-.07-.03c-.02-.02-.06-.04-.06-.07v-6.8a.1.1 0 0 1 .03-.07.1.1 0 0 1 .06-.03h6.81a.1.1 0 0 1 .09.06.1.1 0 0 1 0 .04l.01 1.75c0 .03-.06.15-.1.15h-3.8l-.04.02a.1.1 0 0 0-.05.06.1.1 0 0 0-.01.03v.8l.04.07a.1.1 0 0 0 .07.02ZM11.03 29.24a1.3 1.3 0 0 0-.35.17c-.53.34-1.17.53-1.91.57a6.3 6.3 0 0 1-2.65-.3 3.1 3.1 0 0 1-1.87-1.77 3.88 3.88 0 0 1-.04-2.63c.41-1.1 1.45-1.73 2.61-2.04.48-.13 1.03-.2 1.65-.23.72-.03 1.42.03 2.09.18.41.1.85.3 1.3.62a2.44 2.44 0 0 1 .98 1.46.07.07 0 0 1-.04.05h-.03c-.72.03-1.5.04-2.37.04-.3 0-.5-.47-.7-.57a1.91 1.91 0 0 0-1.08-.22c-.6.06-1.21.16-1.48.8a3.27 3.27 0 0 0-.25 1.68c.1.86.6 1.32 1.44 1.43.61.07 1.14-.03 1.59-.31.23-.15.39-.24.49-.46a.1.1 0 0 0-.08-.14c-.32-.03-.8-.04-1.23-.02-.03 0-.1-.04-.1-.08v-1.15c0-.04.02-.06.06-.06h3.84c.03 0 .1.03.1.06v3.51c0 .03-.04.07-.06.09-.03.02-.06.08-.1.08h-1.5c-.02 0-.05-.03-.07-.05a.13.13 0 0 1-.05-.07l-.1-.58a.09.09 0 0 0-.1-.06ZM22.12 28h3.73c.03 0 .06.02.08.05.02.02.07.05.07.08v1.63l-.12.24h-6.73a.11.11 0 0 1-.11-.07c0-.02-.04-.03-.04-.05v-6.73c0-.05.07-.15.13-.15h2.75a.11.11 0 0 1 .09.03.12.12 0 0 1 .03.09v4.76l.03.09.09.03ZM48.12 28h3.73c.03 0 .06.02.08.05.02.02.07.05.07.08v1.63l-.12.24h-6.73a.11.11 0 0 1-.08-.03.12.12 0 0 1-.03-.04c0-.02-.04-.03-.04-.05v-6.72c0-.06.07-.16.13-.16h2.75a.11.11 0 0 1 .11.07l.01.05v4.76l.03.09.09.03ZM44.35 23.08l-.05-.04c-.09-.07-.2-.05-.27.05l-4.28 6.53c-.06.1-.04.23.04.3l.05.04c.09.07.2.05.27-.05l4.28-6.53a.23.23 0 0 0-.04-.3ZM31.23 23.06l-.02-.02c-.09-.07-.22-.05-.28.05l-4.27 6.53c-.06.1-.04.24.05.32l.02.02c.09.07.22.05.28-.05l4.27-6.53a.24.24 0 0 0-.05-.32ZM18.29 23.11l-.1-.08c-.07-.05-.18-.04-.23.04l-4.3 6.56a.2.2 0 0 0 .04.26l.1.08c.06.05.17.04.22-.04l4.3-6.56a.2.2 0 0 0-.03-.26Z" fill="#E54544"/></svg>