<svg width="56" height="56" viewBox="0 0 56 56" xmlns="http://www.w3.org/2000/svg"><path fill="#F0F3FA" d="M0 0h56v56H0z"/><path d="M15.92 18c.45.01.85.1 1.18.28.43.23.7.59.82 1.08.04.18.08.37.08.58v.52h-1.33l-.02-.02v-.52c-.01-.37-.17-.75-.61-.81a1.26 1.26 0 0 0-.48.01c-.24.06-.4.18-.47.37-.05.1-.09.28-.09.53v4.16c0 .13.05.25.1.36.06.11.13.2.23.25.2.13.51.15.75.1.46-.11.54-.53.54-.92a269.66 269.66 0 0 0-.02-1.3H16V21.6a.02.02 0 0 1 .01-.02h1.94c.02 0 .05 0 .05.02v2.25c0 .37-.04.64-.08.8-.15.62-.59 1.04-1.3 1.25-.16.04-.38.07-.67.09h-.31c-.44-.01-.82-.1-1.13-.27a1.55 1.55 0 0 1-.84-1.17l-.04-.3V19.7l.04-.28c.1-.5.37-.88.8-1.13.34-.18.73-.28 1.18-.29h.27ZM28.33 18c.36.02.7.1 1 .23.39.18.67.47.85.87.12.27.17.52.17.76a5862.94 5862.94 0 0 1-.02 4.53c-.1.64-.47 1.16-1.1 1.42-.28.11-.6.18-.95.19h-.2l-.3-.03a1.91 1.91 0 0 1-1.57-.99c-.13-.26-.2-.55-.2-.87v-3.95c0-.3 0-.53.03-.66.12-.58.46-1.04 1.02-1.28.3-.13.62-.2.96-.22h.31Zm-.98 4v2.05c0 .24.06.43.18.59.16.2.4.27.65.27s.5-.07.65-.27a.92.92 0 0 0 .17-.59v-4.1a.92.92 0 0 0-.17-.59c-.16-.2-.4-.27-.65-.27s-.5.07-.65.27a.93.93 0 0 0-.18.59V22ZM47.97 29c.34.02.64.06.95.19.54.22.87.62.98 1.16a2.5 2.5 0 0 1 .02.65l-1.3.1h-.01a.02.02 0 0 1-.01 0c0-.17 0-.33-.02-.48-.05-.3-.23-.47-.53-.52-.3-.04-.65.02-.8.3a.72.72 0 0 0-.06.3v.32c.03.2.12.38.28.56.17.2.35.37.55.53l.66.54c.23.18.44.38.64.6.41.45.67.96.68 1.54v.6a1.54 1.54 0 0 1-1.1 1.45c-.27.1-.55.15-.85.16h-.33l-.27-.03c-.94-.1-1.65-.67-1.7-1.59a7.26 7.26 0 0 1 0-.67l1.3-.1.02.01v.56c0 .31.15.61.5.7.24.05.46.04.65-.03.4-.16.4-.52.4-.86 0-.35-.12-.66-.4-.93a5.13 5.13 0 0 0-.41-.39l-.69-.56a5.02 5.02 0 0 1-.97-1.02 2 2 0 0 1-.34-.89c-.01-.12-.02-.3-.01-.52 0-.3.07-.55.19-.79.25-.51.84-.8 1.44-.86l.33-.03h.21ZM21.4 25H24l.01.02v.97l-.01.01H20V18l.02-.01h1.37v7h.01ZM35.4 36H38l.01.02v.97l-.01.01H34l-.01-.01V29l.02-.01h1.37v7h.01ZM35.75 21.8c-.04.01-.04.03 0 .04.8.2 1.12.76 1.19 1.5.02.28.03.55 0 .83-.05.75-.39 1.35-1.13 1.64-.3.11-.64.18-.99.18a234.63 234.63 0 0 1-2.21 0V18a.01.01 0 0 1 0-.01h2.03c.28 0 .65.06.91.15.69.24 1.08.73 1.18 1.47.05.37.04.74-.02 1.1-.1.55-.42.9-.96 1.08ZM34 19v2.27a.02.02 0 0 0 .01.02h.55c.21 0 .42-.08.57-.23a.78.78 0 0 0 .24-.55v-.74a.8.8 0 0 0-.8-.78H34L34 19Zm0 3.43V25h.7c.43 0 .86-.55.86-.96v-.77a.82.82 0 0 0-.25-.6.87.87 0 0 0-.61-.24H34l-.01.01ZM40.42 22.52V25H43l.01.02v.97l-.02.01H39V18l.02-.01H42.99l.01.02v.97l-.02.01h-2.55V21.39H42.5v1.12h-2.07v.01ZM41.42 33.52V36H44l.01.02v.97l-.02.01H40V29l.02-.01H43.99l.01.02v.97l-.02.01h-2.55V32.39H43.5v1.12h-2.07v.01ZM13.42 33.52V36H16l.01.02v.97l-.02.01H12V29l.02-.01H15.99l.01.02v.97l-.02.01h-2.55V32.39H15.5v1.12h-2.07v.01ZM26.3 29a22085.64 22085.64 0 0 0 2.31.01v.97c0 .02 0 .02-.02.02h-1.57l-.02.02v6.95c0 .02 0 .02-.02.03a23.13 23.13 0 0 1-1.37-.03v-6.95c0-.01 0-.02-.02-.02h-1.57L24 30V29l.01-.01h2.3ZM8.3 29a22087.68 22087.68 0 0 0 2.31.01v.97c0 .02 0 .02-.02.02H9.02l-.02.02v6.95C9 37 9 37 8.98 37a23.13 23.13 0 0 1-1.37-.03v-6.95c0-.01 0-.02-.02-.02H6.02L6 30V29l.01-.01h2.3ZM20.13 31.54h.02l.98-2.52.02-.02h1.41a.01.01 0 0 1 0 .02l-1.62 3.85v.06l1.73 4.05V37l-.01.01h-1.43c-.01 0-.02 0-.03-.02l-1.12-2.76c-.01-.04-.03-.04-.04 0l-1.06 2.76c0 .01-.01.02-.03.02h-1.39c-.02 0-.02 0-.02-.02l1.74-4.1v-.05l-1.63-3.81V29h1.44l.02.01a930.92 930.92 0 0 0 1.02 2.53ZM31.98 29h-1.35c-.01 0-.02 0-.02.02v7.96c0 .01 0 .02.02.02h1.35c.01 0 .02 0 .02-.02v-7.96c0-.01 0-.02-.02-.02Z" fill="#1D2B55"/></svg>