<svg xmlns="http://www.w3.org/2000/svg" width="56" height="56"><path fill="#00529B" d="M0 0h56v56H0z"/><path d="M25.3 13.05c-.03-2.5 1.77-2.2 2.7-1.74V19h-4v-1h.53c-.55-.7-1.48-.33-1.9-.17.02.45-.18 1.35-1.14 1.38a1.32 1.32 0 01-1.4-1.11 6 6 0 00-2.34 1.47l-1.06-1.74a6.3 6.3 0 013.81-2.1 3.89 3.89 0 01-1.03-2.28c.19-1.51 1.54-1.83 2.46-1.92.91-.08 1.75.9 1.86 1.92a1.6 1.6 0 01-.76 1.52c-.33-1.07-.87-1.25-1.1-1.2-1.12.1-.61 1.17-.22 1.7.2-.1.92-.05 2.27.84a8.38 8.38 0 003.3 1.3 5.92 5.92 0 01-1.98-4.56zm5.49 0c.03-2.5-1.86-2.2-2.79-1.74V19h4v-1h-.44c.54-.76 1.47-.33 1.9-.17-.03.45.17 1.35 1.13 1.38.97.04 1.33-.73 1.4-1.11a6 6 0 012.34 1.47l1.06-1.74a6.3 6.3 0 00-3.8-2.1 3.89 3.89 0 001.02-2.28c-.19-1.51-1.54-1.83-2.46-1.92-.91-.08-1.75.9-1.86 1.92a1.6 1.6 0 00.77 1.52c.32-1.07.86-1.25 1.1-1.2 1.1.1.6 1.17.21 1.7-.2-.1-.92-.05-2.27.84a8.38 8.38 0 01-3.29 1.3 5.92 5.92 0 001.98-4.56z" fill="#FEFEDD"/><ellipse rx=".83" ry="2.17" transform="matrix(.61501 .78852 -.65292 .75743 14.17 17.75)" fill="#C7B28A"/><ellipse rx=".83" ry="2.17" transform="matrix(-.61501 .78852 .65292 .75743 41.91 17.75)" fill="#C7B28A"/><path d="M18.27 22.9a12.63 12.63 0 00-4.93-3.1 6.12 6.12 0 002.59-2.71c.85 2.09 1.92 3.5 2.34 3.93v1.89zm19.53 0a12.63 12.63 0 014.94-3.1 6.12 6.12 0 01-2.58-2.71c-.86 2.09-1.92 3.5-2.35 3.93v1.89zm-21.63 6.15c-1.7-2.4-1.47-6.39-1.15-8.07l1.67 1.01c-.04.54-.19 1.63.38 1.63.47 0 .65-.2.68-.27.12.06.35.41.38 1.4.04.97-.57 1.36-.88 1.44.17.23.53.82.62 1.27.1.45-.37.74-.62.83.15.16.45.82.5 2.13.06 1.64-1.14 1.86-1.44 1.88-.3.03-1.45-.2-1.5-1.56-.05-1.1.88-1.58 1.36-1.7zm23.74 0c1.7-2.4 1.48-6.39 1.15-8.07l-1.67 1.01c.04.54.19 1.63-.38 1.63-.46 0-.65-.2-.68-.27-.11.06-.35.41-.38 1.4-.03.97.57 1.36.88 1.44-.17.23-.52.82-.62 1.27-.1.45.37.74.62.83-.15.16-.45.82-.5 2.13-.06 1.64 1.14 1.86 1.44 1.88.3.03 1.45-.2 1.5-1.56.06-1.1-.88-1.58-1.36-1.7z" fill="#FEFEDD"/><path fill-rule="evenodd" d="M19 20h18v14.31l-8.75 7.26L19 34.31V20zm1 1h16v12.76l-7.78 6.48L20 33.76V21z" fill="#FEFEDD"/><path fill-rule="evenodd" d="M33.23 26.6a16.5 16.5 0 01-.8-5.16c-.46.24-1.8.66-3.53.37-2.15-.37-7.53-.37-7.98 7.53-.1 2.55 1.08 7.68 6.6 7.78a8.89 8.89 0 003.73-1.07c1.2-.76 2-.8 2.25-.73v-.61c-.12-.08-.49-.32-.5-.7v-3.09c.04-.39.53-1.2 1.62-1.3V29h-6.15v.63c.65-.05 2.05.13 2.37 1.3V34c-.09.84-.83 2.51-3.05 2.47-2.76-.05-4.53-3.27-4.43-7.33.1-4.06 1.04-6.78 3.86-7.01 2.83-.23 5.15 3.5 5.54 4.76l.47-.3zm-3.1-4.06c.33.21 1.14.83 1.67 1.6l-.3-1.6h-1.37zm2.79 7.15h-2.19l.58.7c.28.28.12.66 0 .81v2.84c.02.55-.3 1.35-.46 1.69l1.67-.88c-.2-.2-.3-.62-.32-.8.01-.58.03-1.95 0-2.85-.04-.9.46-1.38.72-1.51zm-8.83-6.51c-.93.64-2.79 2.78-2.7 6.16.1 4.24 2.38 6.2 3.87 6.85-.98-.67-3-2.97-3-6.85 0-3.08 1.2-5.72 1.83-6.16z" fill="#C7B28A"/><path d="M18.05 36.05c-1.3-2.04-2.8-1.83-3.15-1.39l-1.9 2.8c-.6.76-1.34 1.92-.83 3.1.6 1.42 1.9.92 2.47.5l1.43-1.9c.2.15.83.86 1.73 2.47.9 1.61 1.97 2.18 2.4 2.26l-.93-2.84 1.78-1.67c-.43-.28-1.4-.79-3-3.33zm19.9 0c1.3-2.04 2.8-1.83 3.15-1.39l1.9 2.8c.6.76 1.34 1.92.83 3.1-.6 1.42-1.9.92-2.48.5l-1.42-1.9c-.2.15-.83.86-1.73 2.47-.9 1.61-1.97 2.18-2.4 2.26l.93-2.84-1.78-1.67c.43-.28 1.4-.79 3-3.33z" fill="#FEFEDD"/><path d="M14.62 37.97l-.53.65c.77.15 1.03.87 1.06 1.2l.64-.89c-.37-.5-.93-.85-1.17-.96zm26.76 0l.53.65c-.77.15-1.03.87-1.06 1.2l-.64-.89c.37-.5.93-.85 1.17-.96z" fill="#C7B28A"/><path d="M12.4 39.58a1.62 1.62 0 011.75-1.63c-.5.4-.52.8-.47.96.4.02 1.18.26 1.08 1.1-.1.86-.87 1.04-1.25 1.03-1.05-.15-1.1-1.02-1.1-1.46zm31.2 0a1.62 1.62 0 00-1.75-1.63c.5.4.52.8.47.96-.4.02-1.18.26-1.08 1.1.1.86.87 1.04 1.25 1.03 1.05-.15 1.1-1.02 1.1-1.46z" fill="#C7B28A"/><path d="M19.78 41.3l.89 2.55 1.43-1c1.27 1 3.72 2.2 6.15 2.15 2.44-.05 4.8-1.45 5.67-2.15l1.36 1 .89-2.55-2.74-2.6c-.75.98-2.84 3-5.18 3.13-2.33.15-4.8-2.03-5.73-3.14l-2.74 2.61z" fill="#FEFEDD"/><path d="M20.85 43.34l-.69-1.93 1.63 1.24-.94.69zm14.32 0l.69-1.93-1.63 1.24.94.69z" fill="#C7B28A"/></svg>