<svg width="56" height="56" viewBox="0 0 56 56" xmlns="http://www.w3.org/2000/svg"><path fill="#F0F3FA" d="M0 0h56v56H0z"/><path d="M34.96 20.17c-.2-.82-.5-1.5-.91-2.05a11.32 11.32 0 0 0-3.09-2.87A35.68 35.68 0 0 1 27.68 13a5.9 5.9 0 0 1-.79-.84 4.43 4.43 0 0 0-.83-.8c.07-.11.16-.18.26-.2 2.43-.44 4.5.04 6.21 1.44a7.6 7.6 0 0 1 2.73 6.6c-.02.28-.12.6-.3.97ZM25.71 11.33l-.01 1.3c0 .14.03.27.1.4.51.92 1 1.58 1.49 1.99.55.46 1.7 1.34 3.43 2.65a5.7 5.7 0 0 1 2.28 3.5v.21a.38.38 0 0 1-.12.21.12.12 0 0 1-.1.03.11.11 0 0 1-.08-.06c-1.29-2.36-3.05-3.5-5.45-5.47a6.42 6.42 0 0 1-1.8-2.29.35.35 0 0 0-.3-.2.34.34 0 0 0-.32.19c-.2.36-.3.74-.31 1.11a.7.7 0 0 0-.34-.33c-.14-.07-.2-.03-.17.13.04.25.04.5-.02.76-.03.12-.1.17-.22.15-.2-.03-.43.06-.66.27-.8.74-.9 1.63-.3 2.68.7 1.23 1.43 2.04 2.6 3.08 1 .88 1.95 1.83 2.85 2.84.05.05.11.08.19.08.17-.01.25-.1.22-.26.4.35.63.74.69 1.18-3.81.45-6.5-1-8.09-4.36-.7-1.5-.78-3.2-.23-5.08.65-2.23 2.21-3.8 4.67-4.71Z" fill="#96C42D"/><path d="M26.06 11.36c.3.21.57.48.83.8.35.42.61.7.8.84a35.7 35.7 0 0 0 3.27 2.25c1.12.68 2.14 1.63 3.09 2.87.41.55.72 1.23.9 2.05-.73 2.75-2.6 4.52-5.6 5.31a1.82 1.82 0 0 0-.68-1.18 7.12 7.12 0 0 0-.9-1.19c-1.66-1.45-3.49-2.88-4.53-4.88-.19-.37-.22-.83-.1-1.4.01-.08.09-.2.22-.37.29-.35.52-.32.71.1.8 1.76 2.36 2.75 4.29 4.31.9.74 1.75 1.68 2.54 2.83.08.1.17.16.27.2a.11.11 0 0 0 .12-.04.11.11 0 0 0 .02-.12c-.58-1.65-1.4-2.63-2.8-3.92a70.1 70.1 0 0 1-2.6-2.48 5.12 5.12 0 0 1-1.4-2.44c.02-.37.13-.75.32-1.11a.35.35 0 0 1 .31-.2.35.35 0 0 1 .31.21c.4.87 1 1.63 1.8 2.3 2.4 1.96 4.16 3.1 5.45 5.46a.12.12 0 0 0 .08.06.11.11 0 0 0 .1-.03c.05-.05.1-.12.11-.2a.45.45 0 0 0 0-.22 5.7 5.7 0 0 0-2.27-3.5c-1.74-1.3-2.88-2.2-3.43-2.65a7.27 7.27 0 0 1-1.5-2 .74.74 0 0 1-.1-.38l.02-1.31c.04.07.15.08.35.03Z" fill="#013A91"/><path d="M24.52 14.9c.22.93.69 1.75 1.39 2.44.84.85 1.7 1.68 2.6 2.48 1.4 1.29 2.22 2.27 2.8 3.92a.11.11 0 0 1-.02.12.11.11 0 0 1-.12.03.46.46 0 0 1-.27-.2 13.4 13.4 0 0 0-2.54-2.82c-1.93-1.56-3.5-2.55-4.29-4.32-.19-.41-.42-.44-.7-.09-.14.17-.22.3-.23.38-.12.56-.09 1.02.1 1.39 1.04 2 2.87 3.43 4.53 4.88.18.17.48.57.9 1.2.03.15-.05.24-.22.25a.23.23 0 0 1-.2-.08c-.89-1-1.83-1.96-2.84-2.84a11.38 11.38 0 0 1-2.6-3.08c-.6-1.04-.5-1.94.3-2.68.23-.21.45-.3.66-.27.12.02.2-.03.22-.15.06-.25.06-.51.02-.76-.03-.16.03-.2.17-.13a.7.7 0 0 1 .34.33Z" fill="#D7F70F"/><path fill-rule="evenodd" d="M16.72 24.64c.12.03.15.1.09.21a12.42 12.42 0 0 0-.74 10.99 13.02 13.02 0 0 0 5.46 6.37c7.9 4.77 18.13-.5 19.23-9.67.27-2.28-.08-4.52-1.06-6.71a4.25 4.25 0 0 0-.55-.91.24.24 0 0 1 .12-.38l8.57-2.21c.12-.03.17-.11.16-.24-.01-.07-.05-.15-.14-.23a.13.13 0 0 0-.1-.04H37.3a1.04 1.04 0 0 0-.9.5l-8.12 13.33a.19.19 0 0 1-.16.09.19.19 0 0 1-.16-.1l-8.6-13.38a1.13 1.13 0 0 0-.97-.51c-1.97.05-3.95.04-5.96-.03-.8-.03-1.5-.02-2.08.04a8.25 8.25 0 0 1-2.17-.08.24.24 0 0 0-.16.13.25.25 0 0 0-.02.1v.15c.02.24.14.37.38.39.66.05 1.4.2 2.18.43.95.28 3 .87 6.16 1.76Zm11.29 11.73a.27.27 0 0 1-.1-.09 939.9 939.9 0 0 1-6.64-10.4c-.6-.95-1.38-2.1-2.35-3.45a.7.7 0 0 0-.6-.29c-2.3.09-4.5.06-6.62-.07-1.92-.11-1.97.13-.15.74.49.17 1.2.35 2.14.56.5.12 1.22.3 2.14.57.8.23 2.1.59 3.89 1.07a1.36 1.36 0 0 1 .87.72c.64 1.3 1.29 2.7 1.93 4.2 2.1 4.9 3.77 8.74 5 11.53.07.19.12.33.12.43.02.48.22.54.6.18a.33.33 0 0 0 .06-.1l6.79-16.19c.17-.4.46-.67.88-.78 2.8-.77 5.54-1.47 8.23-2.1.36-.09.83-.25 1.41-.5.32-.13.3-.22-.03-.27-.65-.09-1.29-.03-1.95.03-.42.04-.84.08-1.28.08-2.15.01-3.74.02-4.78.01a1.03 1.03 0 0 0-.86.46c-1.14 1.7-2.26 3.46-3.34 5.28a769.84 769.84 0 0 1-5 8.28.27.27 0 0 1-.23.13.27.27 0 0 1-.13-.03Zm1.65 5.16a.19.19 0 0 0 0 .32c.04.02.09.02.13.01 2.57-.5 4.67-1.71 6.3-3.63a10.4 10.4 0 0 0 2.32-9.5c-.18-.85-.43-1.41-.72-1.68-.13-.1-.15-.23-.06-.36l.7-1.16a.21.21 0 0 1 .2-.1.21.21 0 0 1 .17.12 12.49 12.49 0 0 1 1.35 5.9c-.06 1.93-.6 3.8-1.61 5.63-1.67 2.98-4.3 4.92-7.9 5.8a6.7 6.7 0 0 1-2.04.22.24.24 0 0 1-.22-.16.25.25 0 0 1 .06-.26c.4-.4.72-.87.96-1.38l.5-1.02c1.62-2.84 4.1-7.15 7.47-12.94.15-.25.26-.24.35.03.66 1.92.93 3.74.46 5.88a10.28 10.28 0 0 1-5.81 7.4c-.36.17-.78.32-1.26.45-.74.19-1.19.33-1.35.43Zm-3.26.05.15.23.01.05a.1.1 0 0 1-.01.05.1.1 0 0 1-.1.04 10.66 10.66 0 0 1-5.98-3.04c-2.88-2.96-3.82-6.5-2.84-10.64.1-.38.22-.59.38-.85l.09-.15c.12-.2.15-.43.1-.66-.1-.4-.34-.77-.7-1.12a.17.17 0 0 0-.28.05c-1.5 3.33-1.7 6.53-.58 9.61a12.11 12.11 0 0 0 10.24 7.97c.23.02.44 0 .64-.08a.35.35 0 0 0 .22-.3.36.36 0 0 0-.16-.34l-.58-.36a.45.45 0 0 1-.2-.3 4.53 4.53 0 0 0-.31-1 798.65 798.65 0 0 0-7.88-13.38.16.16 0 0 0-.22.07c-.39.81-.6 1.64-.66 2.5-.32 4.95 1.68 8.52 6 10.71.34.18 1.2.47 2.58.87.04.02.07.04.09.07Z" fill="#013A91"/></svg>