<svg width="56" height="56" viewBox="0 0 56 56" xmlns="http://www.w3.org/2000/svg"><path fill="#F0F3FA" d="M0 0h56v56H0z"/><path d="M45 28a17 17 0 1 1-34 0 17 17 0 0 1 34 0ZM28 44a16 16 0 1 0 0-32 16 16 0 0 0 0 32Zm0-1a15 15 0 1 0 0-30 15 15 0 0 0 0 30Zm14-15a14 14 0 0 1-10.92 13.66l-1.32-3.78c6.82-2.16 8.36-7.34 8.27-9.66L28 34.76l-10.42-6.54c0 6.1 5.76 8.99 8.65 9.66l-1.06 3.83a14 14 0 0 1-10.32-18.5l13.14 8.66 13.34-8.2c.44 1.36.68 2.82.68 4.33Zm-14.02 2.3L15.4 21.89A14 14 0 0 1 39.5 20h-4.72a8.7 8.7 0 0 0-6.62-3c-4.77 0-7.75 2.66-8.65 4.1l8.65 5.81L32.29 24H26v-2h14.33v.63L27.98 30.3Z" fill="#D24607"/></svg>