<svg width="56" height="56" xmlns="http://www.w3.org/2000/svg"><path fill="#3185C5" d="M0 0h56v56H0z"/><path d="M49.858 22.997H48.11a1 1 0 00-.893.552l-.993 1.977a1 1 0 00-.004.891l.998 2.023a1 1 0 00.897.557h1.738a1 1 0 00.892-.548l1.024-2.022a1 1 0 00-.003-.91l-1.02-1.978a1 1 0 00-.888-.542zM6.36 27c1.561.017 2.08 1.092 2.145 1.694H7.432c-.189-.586-.771-.702-1.072-.694-.923.025-1.38.695-1.36 1.561.02.866.555 1.439 1.36 1.439.643 0 1.072-.419 1.072-1H6.22v-1h2.285v3h-.957v-.547c-.17.419-.88.554-1.188.547C4.508 32 4 30.432 4 29.56c0-.818.493-2.581 2.36-2.56zM9 27v5h1v-2.517L10.977 31h.592l.931-1.517V32h1v-5h-1l-1.224 2.233L10 27H9zm5.003 0v5h1v-2.517L15.98 31h.592l.93-1.517V32h1v-5h-1l-1.224 2.233L15.003 27h-1z" fill="#fff"/><path d="M20 27.001V32h1v-1.28h1.04c.522-.035 1.545-.476 1.545-1.956 0-1.397-1.143-1.791-1.65-1.763H20zM21 28h.917c.206 0 .59.315.606.84.018.524-.378.846-.606.846H21V28z" fill="#fff"/><path d="M47.442 25.006v2.346h.488v-.6h.458c.242-.017.717-.224.717-.918 0-.656-.53-.841-.766-.828h-.897zm.566.52h.394c.093 0 .265.097.273.343.008.246-.17.358-.273.358h-.394v-.701z" fill="#3185C5"/><path d="M24.5 29v3.001h1V29h1.157v-1H25.5v-.37c.029-.57.782-.548 1.098-.466l.143-.97c-.18-.155-.566-.194-.736-.194-1.185.083-1.525 1-1.505 1.449V28h-.676v1h.676z" fill="#fff"/><path d="M49.557 26.15v1.183h.478V26.15h.484v-.473h-.484v-.267c.014-.25.31-.24.457-.205l.066-.426c-.084-.069-.262-.086-.341-.086-.55.037-.669.44-.66.637v.347h-.352v.473h.352z" fill="#3185C5"/><path d="M31 30.442v-2.438h1c-.007.709 0 2.16 0 2.297 0 .441.315.71.765.699.36-.008.735-.236.735-.558v-2.438h1V32h-1v-.379c-.311.355-.879.383-1.104.383-1.146 0-1.382-1.068-1.396-1.562z" fill="#fff"/><path d="M38.5 27v5h-1v-.265c-.119.092-.381.281-.991.265-.61-.016-1.509-.483-1.509-2 0-1.448.81-1.997 1.586-1.997.38 0 .807.184.914.276V27h1zm-1 2.404a.82.82 0 00-.708-.404c-.508-.009-.816.482-.79 1.035.024.552.282.982.79.965.407-.015.641-.252.708-.369v-1.227zm-7-1.326v3.86h-1v-.246c-.1.098-.43.298-.9.308-.588.012-1.6-.458-1.6-2s1-1.96 1.54-1.996c.54-.037.844.213.96.333v-.26h1zm-1 1.326a.82.82 0 00-.708-.404c-.508-.009-.816.483-.79 1.035.024.552.283.982.79.965.407-.015.641-.252.708-.369v-1.227z" fill="#fff"/><path fill="#fff" d="M39 27h1v5h-1z"/><path d="M43.655 30.347c.098-.737-.142-2.3-1.628-2.346-1.485-.045-1.88 1.282-1.859 1.991-.012.664.338 1.983 1.86 1.983.489 0 1.3-.151 1.627-1.228h-1.139a.761.761 0 01-.538.28c-.312.009-.716-.17-.742-.68h2.42zm-2.401-.722a.687.687 0 01.724-.625.62.62 0 01.644.625h-1.368z" fill="#fff"/><path d="M44 32.006V28h1.004v.488c.32-.434.797-.501.996-.48v1.237c-.667.049-.942.368-.996.521v2.24H44z" fill="#fff"/></svg>