<svg width="56" height="56" viewBox="0 0 56 56" xmlns="http://www.w3.org/2000/svg"><path fill="#F0F3FA" d="M0 0h56v56H0z"/><path d="M17 33.78A5.9 5.9 0 0 1 13.43 35C9.02 35 7 31.75 7 27.75s2.28-7.25 6.43-7.25c4.8 0 6.08 2.34 6.36 5.5h-3.66c-.47-1.2-1.36-2-2.38-2-1.52 0-2.75 1.8-2.75 4s1.23 4 2.75 4c1.02 0 1.9-.8 2.38-2H14v-3h6v8h-3v-1.22ZM22 21v14h4v-6.97L30.04 35H34V21h-4v7.34L25.78 21H22Zm22.37 0h-4.43L35 35h4.12l.63-2h4.55l.64 2H49l-4.63-14Zm-1.03 9H40.7L42 25.83 43.34 30Z" fill="#FC2930"/></svg>