<svg xmlns="http://www.w3.org/2000/svg" width="56" height="56"><path fill="#F0F3FA" d="M0 0h56v56H0z"/><path d="M14.53 15.03c-1.7.07-1.77 3.15-1.6 4.68.21-.28 1.05-1.12 2.72-2.26 1.68-1.15 1.74-2.78 1.56-3.45-.18.31-.98.95-2.68 1.03zm26.94 0c1.7.07 1.77 3.15 1.6 4.68-.21-.28-1.05-1.12-2.72-2.26-1.68-1.15-1.74-2.78-1.56-3.45.18.31.98.95 2.68 1.03zm-29.64 1.25c-.64.08-1.94.67-2.03 2.46-.1 1.8 1.12 3.77 1.75 4.53.32-.62.9-2.2.55-3.54-.44-1.68-.54-2.09-.27-3.45zm34.37 2.46c-.09-1.8-1.39-2.38-2.03-2.46.27 1.36.17 1.77-.27 3.45a5.53 5.53 0 00.55 3.54c.63-.76 1.85-2.73 1.75-4.53zm-33.4 4.69c-.24-1.18-.19-3.56 1.94-3.68 2-.12 2.24-.37 2.4-.55l.03-.03c.07.61-.24 2-1.95 2.63-1.72.64-2.33 1.35-2.42 1.63zm28.46-3.68c2.13.12 2.18 2.5 1.94 3.68-.09-.28-.7-1-2.42-1.63-1.71-.63-2.02-2.02-1.95-2.63l.03.03c.16.18.4.43 2.4.55zm-32.15.72c-.36.75-1.1 2.55-1.11 3.8-.02 1.58 1.3 3.67 4.35 4.8-.16-1.27-.84-4.14-2.1-5.64-1.14-1.39-1.3-2.58-1.14-2.96zM48 24.27a10.88 10.88 0 00-1.11-3.8c.16.38 0 1.57-1.15 2.96-1.25 1.5-1.93 4.37-2.09 5.65 3.05-1.14 4.37-3.23 4.35-4.8zm-31.29-2.44a7.08 7.08 0 01-2.55 2.03c-1.83.93-1.66 3.17-.78 5.1.13-.57.65-1.88 1.7-2.66a5.18 5.18 0 001.72-2.2c.06-.41.12-1.45-.09-2.27zm25.13 2.03a7.08 7.08 0 01-2.55-2.03c-.2.82-.15 1.86-.1 2.28.15.4.68 1.4 1.73 2.19a5.03 5.03 0 011.7 2.65c.88-1.92 1.05-4.16-.78-5.09zm-33.57 3.3c-.05 1.25.14 3.93 1.68 5.26 1.54 1.33 4.2 1.45 5.31 1.27a12.5 12.5 0 00-3.05-3.39c-.52-.36-1-.65-1.44-.92-1.09-.65-1.94-1.17-2.5-2.23zm37.78 5.26c1.54-1.33 1.73-4.02 1.68-5.27-.56 1.06-1.41 1.58-2.5 2.23-.44.27-.92.56-1.44.92a12.5 12.5 0 00-3.05 3.39c1.1.18 3.77.06 5.3-1.27zm-28.97-7.2c.21.67.48 2.5-.13 4.35-.76 2.32-1.1 3.5-1.1 3.9-.61-.68-1.82-2.42-1.8-3.9.02-.36.25-1.28 1.09-2.03.84-.74 1.64-1.86 1.94-2.33zm21.97 4.35a7.86 7.86 0 01-.13-4.36c.3.47 1.1 1.59 1.94 2.33a3.12 3.12 0 011.08 2.03c.03 1.48-1.18 3.22-1.78 3.9 0-.4-.35-1.58-1.11-3.9zm-28.53 4.28c.48 1.49 2.33 4.46 5.89 4.42.77-.01 2.64-.21 3.95-.88-.8-.65-3.08-2.17-5.9-2.54-2.83-.36-3.13-.53-3.9-.98l-.04-.02zm29.07 4.42c3.56.04 5.41-2.93 5.9-4.42l-.05.02c-.77.45-1.07.62-3.9.98-2.82.37-5.1 1.9-5.9 2.54 1.31.67 3.18.87 3.95.88zm-21.67-9.64c0 .46-.07 1.67-.43 2.75a4.84 4.84 0 00-.35 1.75c0 .86.78 2.67 3.73 3.18-.3-.12-.91-.63-.91-1.6 0-.18.02-.67.1-1.13.11-.57.54-3-2.14-4.95zm20.6 2.75a9.05 9.05 0 01-.44-2.75c-2.68 1.95-2.25 4.38-2.15 4.95.09.46.11.95.11 1.14 0 .96-.6 1.47-.91 1.6 2.95-.52 3.73-2.33 3.73-3.19.02-.1.02-.67-.35-1.75zm-18.06-.72c1.1.36 3.4 1.54 3.83 3.34.55 2.25 2 4.04 2.4 4.16C24.9 38.02 21.26 37 20.9 34c0-.82-.1-2.63-.44-3.34zM31.71 34c.44-1.8 2.73-2.98 3.83-3.34-.34.71-.44 2.52-.44 3.34-.36 3-4 4.02-5.79 4.16.4-.12 1.85-1.9 2.4-4.16zm-17.1 4.97c.29.04 1.48.03 3.9-.36 3.02-.48 6.85-.43 8.51.66-.86.88-3.24 2.67-5.92 2.73-2.67.06-5.44-2-6.5-3.03zm22.88-.36c2.42.39 3.61.4 3.9.36-1.05 1.04-3.82 3.1-6.5 3.03-2.67-.06-5.05-1.85-5.91-2.73 1.66-1.1 5.49-1.14 8.51-.66zm-6.1-14.07H32v.08a4.02 4.02 0 01-8-.62 4.01 4.01 0 016.69-3l.86-1.84a6 6 0 10.45 9.31V30h2v-8h-2.47l-.36.5-.32-.5H29v4h2v-.98h.15v-.28h.24v-.2z" fill="#E9641F"/></svg>