<svg xmlns="http://www.w3.org/2000/svg" width="56" height="56" viewBox="0 0 56 56"><path fill="#F0F3FA" d="M0 0h56v56H0z"/><path fill-rule="evenodd" d="M25.82 24c-2.4 0-3.51 2.01-3.77 3.02-.39 1.36-.2 3.98 2.03 3.98 2.25 0 3.38-1.99 3.66-2.98.36-1.34.47-4.02-1.92-4.02zm-.3.69c-1.6 0-2.36 1.6-2.53 2.4-.26 1.1-.14 3.18 1.37 3.18 1.5 0 2.26-1.58 2.45-2.37.24-1.07.31-3.21-1.3-3.21zM9.68 27.02c.26-1 1.37-3.02 3.77-3.02s2.28 2.68 1.93 4.02c-.29 1-1.42 2.98-3.66 2.98s-2.42-2.62-2.04-3.98zm.95.07c.17-.81.92-2.43 2.52-2.43s1.53 2.15 1.3 3.23c-.2.8-.96 2.4-2.46 2.4s-1.62-2.11-1.36-3.2zm18.62-2.78c-.3 1.8-.87 4.99-1.23 6.1a.46.46 0 0 0 .04.37c.08.14.23.22.4.22h2.78a.6.6 0 0 0 .44-.19l.25-.28a.26.26 0 0 0 .07-.2v-.04a.23.23 0 0 0-.2-.2c-.05 0-.1 0-.13.02-.16.07-.43.16-.56.16h-1.47a.38.38 0 0 1-.38-.44l1.12-5.5a.28.28 0 0 0-.28-.33h-.46c-.2 0-.36.13-.39.31zm13.59 6.65a.56.56 0 0 1-.5-.6c0-.44.53-.3.8-.18.74.2 2.26.22 2.38-1.17 0-.25-.27-.88-1.34-1.4a1.7 1.7 0 0 1-.96-1.98c.2-.67 1.16-1.93 3.34-1.56.16.03.47.2.44.52-.04.32-.35.33-.5.3-.15-.08-.57-.21-1.05-.21-.6 0-1.39.5-1.39 1.16 0 .52.76 1.08 1.13 1.3.44.23 1.32.83 1.32 1.56 0 1.74-2.12 2.5-3.67 2.26zM31.9 27.02c.26-1 1.37-3.02 3.77-3.02s2.28 2.68 1.92 4.02c-.28 1-1.41 2.98-3.65 2.98-2.25 0-2.42-2.62-2.04-3.98zm.94.07c.18-.81.92-2.43 2.53-2.43 1.6 0 1.53 2.15 1.3 3.23-.2.8-.96 2.4-2.46 2.4s-1.62-2.11-1.37-3.2zm-25.08-2.4c.42-.03.65.04.95.24.2.14.5.12.65-.09.13-.2.06-.47-.16-.56-.4-.16-.82-.28-1.27-.28-.8 0-2.9.2-3.75 3.33-.85 3.14 1.55 3.63 2.02 3.67.29.02 1.11-.1 1.74-.2a.7.7 0 0 0 .57-.55l.36-1.88a.52.52 0 0 0-.5-.62.52.52 0 0 0-.51.43l-.35 2.05c-.79.27-2.4.2-2.4-1.8 0-2.49 1.11-3.6 2.65-3.73zm13.2 0c.42-.03.66.04.96.24.2.14.5.12.64-.09.14-.2.07-.47-.15-.56-.4-.16-.82-.28-1.27-.28-.8 0-2.9.2-3.75 3.33-.86 3.13 1.55 3.62 2.01 3.66a8.46 8.46 0 0 0 1.71-.08l.44-.57a.17.17 0 0 0-.03-.22.18.18 0 0 0-.2-.03 3.6 3.6 0 0 1-1.02.28c-.84.09-1.99-.27-1.99-1.94 0-2.5 1.12-3.6 2.65-3.73zm16.78 5.48l-.17.59c-.03.12.05.24.17.24h.71c.09 0 .16-.07.18-.16l.43-2.84h.87c.04.27.23 1.11.6 1.94.37.83.8 1.05.96 1.06h.41c.12 0 .22-.1.22-.23a.25.25 0 0 0-.08-.18 5.04 5.04 0 0 1-1.21-2.64c.81-.27 1.9-1.03 1.9-2.42 0-1.1-.93-1.48-1.4-1.53h-2.1c-.3 0-.53.25-.53.56v.4l-.96 5.2zm1.9-5.5l-.46 2.66h.95c.83 0 1.52-.7 1.56-1.58.03-.67-.5-1.22-1.13-1.16l-.91.08z"/><ellipse cx="48.34" cy="30.04" rx=".97" ry=".95" fill="#8EC43F"/><path d="M48.9 28.43l-.34-.13.23-3.33c.06-1.18.28-3.15 1.57-2.96 1.62.24-.33 3.67-.55 4.16a65.2 65.2 0 0 0-.91 2.26z" fill="#EC4697"/><path d="M49.78 26.24l-.27.5-.83-.2.1-1.57c.03-.33.06-.73.12-1.12l1.75.5c-.23.62-.54 1.22-.71 1.57l-.13.25-.03.07z" fill="#1776BB"/><path d="M48.56 28.3l.34.13c.19-.5.56-1.43.78-1.95l-.98-.28-.14 2.1z" fill="#FCC125"/></svg>