<svg width="56" height="56" viewBox="0 0 56 56" xmlns="http://www.w3.org/2000/svg"><path fill="#094A7F" d="M0 0h56v56H0z"/><path fill-rule="evenodd" d="M31.65 12h-7.34c-2.02.01-3.24.05-3.65.14a5.69 5.69 0 0 0-3.87 2.85c-2 3.37-4 6.75-5.98 10.14-.54.92-.81 1.89-.81 2.89 0 1 .27 1.96.81 2.88l6 10.14a5.68 5.68 0 0 0 3.88 2.84c.42.08 1.64.12 3.66.12h7.33c2.02-.01 3.24-.05 3.66-.14a5.68 5.68 0 0 0 3.87-2.85c2-3.37 4-6.75 5.98-10.14.54-.92.81-1.89.81-2.89 0-1-.27-1.96-.81-2.88l-6-10.14a5.68 5.68 0 0 0-3.88-2.84 28.7 28.7 0 0 0-3.66-.12Zm2.36 19.22c.04.52-.06.96-.31 1.3-.34.48-.82.48-1.35.48h-5.79a4.2 4.2 0 0 1-3.34-1.38 5.58 5.58 0 0 1-.19-7.02 4.07 4.07 0 0 1 1.85-1.37 7.06 7.06 0 0 1 2.2-.23h8.61c1.19-.01 1.92-.45 2.2-1.32.2-.68.13-1.27-.24-1.8s-1-.8-1.88-.8L28.02 19c-1.69-.01-2.87.08-3.53.27a8.31 8.31 0 0 0-5.88 5.43 9.34 9.34 0 0 0 3.06 10.74A8.57 8.57 0 0 0 26.68 37h6.01a5.51 5.51 0 0 0 4.02-2.06A5.47 5.47 0 0 0 32.46 26h-5.32c-.55 0-.96.12-1.2.32-1.14.97-1.04 2.48.2 3.3.24.18.65.39 1.2.38h5.1c.92.06 1.5.26 1.57 1.22Z" fill="#fff"/></svg>