<svg width="56" height="56" xmlns="http://www.w3.org/2000/svg"><path fill="#F0F3FA" d="M0 0h56v56H0z"/><path d="M11.721 29.544c0 1.273 1.202 1.433 1.83 1.433 1.66 0 2.398-.758 2.725-.758.327 0-.195.77-.688 1.079-4.114 2.464-7.496 4.586-7.496 6.55 0 .887.828.946 1.458.946s3.707-.39 8.42-7.628c.22-.34.584-.536.933-.785.348-.248 1.471-1.062 1.694-1.064.221 0 .214.096.205.194-.012.143-.163.458-.163.842 0 .385.395.83 1.037.83 1.432 0 2.476-1.01 3.334-1.92a41.2 41.2 0 01-.968-.215c-.34.287-.674.501-.851.505-.328.008-.43-.177-.443-.344-.012-.137.02-.292.084-.458a54.746 54.746 0 01-2.164-.61c-.207.128-.426.225-.585.203-.05-.007-.08-.053.03-.21l.098-.134a57.26 57.26 0 01-1.775-.588c-1.194 1.086-2.568 2.175-3.322 2.175-.3 0-.582-.2-.582-.676 0-.316.421-1.343 1.253-2.502a54.624 54.624 0 01-1.911-.822c-1.472 1.55-2.153 2.956-2.153 3.957zm-1.653 7.467c0-.87 3.055-3.157 3.418-3.16.093-.002.118.035.118.11.004.697-2.228 3.468-3.124 3.468-.284 0-.412-.153-.412-.418zm27.214-7.102c-.004.51.124 1.33 1 1.33 1.73 0 3.882-2.173 3.984-2.189.072-.011.084.018.084.088 0 .077-.244.937-2.773 3.98-2.53 3.044-3.755 4.238-3.755 4.895 0 .656.562.895.823.895.261 0 1.365-.06 3.995-4.297 1.877-3.025 2.764-4.891 3.76-6.394-1.799.776-4.061 1.282-7.118 1.692zm-10.51-.272c0 .61.204 1.484 1.636 1.484.794 0 1.518-.423 2.137-1.036a36.1 36.1 0 01-3.772-.494l-.001.046zm5.317.53c-.187.282-.346.521-.456.69 0 0-.133.16.067.16h1.874c.08 0 .16-.067.228-.16l.459-.694c-.7.025-1.424.028-2.172.005z" fill="url(#paint0_radial)"/><path d="M46.17 23.799c0 .318.49.537.654.537.25 0 1.084-.537 1.084-1.273 0-.269-.191-.567-.472-.567-.391 0-1.265.875-1.265 1.303zm-2.217 2.556c-1.184 1.273-2.61 2.984-3.895 2.984-.475 0-.622-.298-.622-.597 0-.218.173-.42.502-.517 1.211-.354 3.112-1.919 3.112-2.984 0-.279-.14-.579-.502-.579-.525 0-1.988.242-3.81 2.401-.205.242-.425.406-.587.406-.17 0-.371-.318-.371-.955 0-.067.002-.131.007-.193a28.77 28.77 0 01-4.028 1.115c-.446.87-1.16 1.962-1.67 2.733.748.023 1.472.02 2.172-.005l1.173-1.786c.054-.08.134-.133.214-.133.295 0-.066.743 1.03.743.309 0 .614-.156.694-.156.08 0 .09.07.09.13 0 .118-.15.392-.174.775a3.2 3.2 0 00-.006.173c3.057-.41 5.32-.916 7.118-1.693.4-.603.983-1.4 1.4-1.802.783-.756.983-1.154.983-1.333 0-.232-.14-.458-.421-.458-.281 0-1.225.458-2.41 1.731zm-3.842.946c0-.35 1.182-1.477 1.579-1.477.055 0 .132.044.132.11 0 .448-1.18 1.51-1.557 1.51-.077 0-.154-.055-.154-.143zm-26.237-1.713c.649.294 1.287.567 1.91.822.106-.148.219-.297.338-.447a52.517 52.517 0 01-1.935-.696c-.109.108-.212.215-.313.321zm4.562 1.825c.616.215 1.21.411 1.774.588a163 163 0 01.54-.739 40.603 40.603 0 01-1.706-.416c-.194.185-.398.376-.608.567zm2.811.285c-.094.091-.328.29-.579.444.786.24 1.512.44 2.164.61.119-.308.352-.654.639-1-.652-.09-1.3-.2-1.94-.326l-.284.272zm9.772.16c-.451.815-1.092 1.561-1.863 1.563-.24 0-.393-.128-.4-.354-.009-.274.18-.673.434-1.067a30.63 30.63 0 01-2.138.032c-.042.211-.267 1.007-.28 1.56 1.312.241 2.57.402 3.773.494.669-.664 1.214-1.55 1.587-2.369-.372.054-.743.1-1.113.14zm-6.977 1.191c.36.084.684.155.967.214.486-.517.912-1.002 1.313-1.254a31.455 31.455 0 01-1.274-.081c-.163.312-.589.77-1.006 1.121z" fill="url(#paint1_radial)"/><path d="M16.577 23.265a19.82 19.82 0 00-2.39 2.002 52.51 52.51 0 001.935.696c.362-.459.786-.926 1.27-1.369 1.898-1.73 4.096-2.576 5.461-2.576.573 0 1.257.112 1.359.126.07.01.093-.003.124-.053.041-.069 1.064-1.87 1.064-1.87.017-.027.008-.05-.017-.058s-.204-.071-.576-.071c-1.532 0-4.87.753-8.23 3.173zm9.68-1.436c0 .955.576 2.263 3 3.064.06.02.12.027.12.077 0 .102-1.143 1.634-2.177 1.813-.119.02-.201-.08-.201-.19 0-.108.16-.427.16-.914 0-.488-.15-1.174-1.083-1.174-.902 0-1.935.427-4.545 2.92.64.127 1.288.238 1.94.328.811-.977 2.055-1.939 2.37-1.947.194-.005.274.077.28.16.03.345-.469.585-.778.807-.362.259-.478.34-.442.557.02.12.195.151.216.362a.461.461 0 01-.069.236c.42.035.846.062 1.274.081.181-.114.358-.18.532-.18.149 0 .204.064.204.157a.274.274 0 01-.006.046c.705.014 1.418.003 2.138-.032.374-.577.89-1.143 1.136-1.29.415-.249.642-.494.638-.633-.005-.14-.3-.328-.33-.465-.035-.16.095-.245.383-.173.413.104.713.117.723.418.008.245-.256 1.16-.721 2 .37-.04.741-.086 1.112-.14.358-.784.558-1.504.558-1.902 0-.087.028-.191.188-.191s.606.047.803.067c.215.021.496.193.496.591 0 .25-.167.668-.417 1.154a28.77 28.77 0 004.027-1.115c.057-.842.475-1.185.475-1.462 0-.19-.078-.265-.303-.265-.512 0-1.514 1.214-1.694 1.214-.147 0-.316-.556-.482-.776-.241-.318-.572-.398-1.516-.398-.471 0-.742.04-1.164.04-.48 0-.592-.02-.683-.229-.09-.209-1.495-3.88-4.697-3.88-.713 0-1.466.31-1.466 1.264zm1.605.448c0-.422.29-.666.699-.666 1.94 0 2.907 2.735 2.907 2.908 0 .087-.052.136-.192.136-.708 0-3.414-1.046-3.414-2.378zm-7.277 3.053c-.217.208-.809.82-1.54 1.516.559.149 1.128.289 1.705.416.52-.706 1.191-1.61 1.37-1.812.292-.328.442-.488.442-.597 0-.126-.18-.229-.401-.229-.191 0-.974.13-1.576.707z" fill="url(#paint2_radial)"/><path d="M21.183 27.633a3.46 3.46 0 01-.633.473l.234.071c.288-.188.524-.41.528-.414.113-.11.222-.214.33-.316a22.61 22.61 0 01-.22-.044c-.08.075-.158.15-.24.23z" fill="#63BBEB"/><path d="M35.357 28.327l-.403.614-.806 1.227.225-.008.735-1.12.403-.611c.038-.056.091-.092.137-.092.023 0 .033.01.067.133.064.228.17.61.964.61.219 0 .432-.072.573-.12a1.19 1.19 0 01.115-.035.193.193 0 01.003.036c0 .031-.023.1-.046.174a2.33 2.33 0 00-.135.787l.185-.025a2.167 2.167 0 01.126-.706c.031-.098.055-.17.055-.23 0-.199-.128-.22-.183-.22a.657.657 0 00-.18.046c-.13.043-.325.11-.513.11-.653 0-.726-.264-.785-.476-.034-.119-.075-.267-.246-.267a.363.363 0 00-.29.173z" fill="url(#paint3_linear)"/><path d="M30.909 27.869a4.39 4.39 0 01-.659.905c-.358.368-.726.554-1.094.555-.112 0-.3-.034-.308-.265-.008-.27.19-.674.454-1.07l-.227.012c-.244.39-.42.781-.411 1.064.008.273.197.443.492.442.42 0 .833-.206 1.227-.61.288-.296.54-.67.75-1.057l-.224.024z" fill="url(#paint4_linear)"/><path d="M22.742 28.728l.18.047c.111-.285.334-.627.656-1.008l-.215-.03c-.254.31-.495.662-.62.991z" fill="#3777C5"/><path d="M18.337 27.378l.196.069c.204-.187.41-.38.613-.574l-.206-.055c-.193.183-.395.372-.603.56zm6.612.541a2.791 2.791 0 01-.346.459 6.112 6.112 0 01-.675.645l.225.052c.221-.191.432-.4.589-.576.198-.223.332-.41.405-.563a19.156 19.156 0 01-.198-.017z" fill="#63BBEB"/><path d="M25.14 28.989l-.236.252.21.044.161-.172c.448-.48.85-.912 1.22-1.097a31.562 31.562 0 01-.325-.014c-.327.232-.664.593-1.03.987z" fill="#4980CA"/><path d="M15.695 26.373l.177.073c.108-.15.222-.3.343-.452l-.187-.063a12.18 12.18 0 00-.333.442z" fill="#2F67AB"/><path d="M42.957 25.241c0 1.034-1.9 2.561-3.046 2.896-.355.104-.568.33-.568.605h.185c0-.189.163-.35.436-.43 1.197-.35 3.178-1.93 3.178-3.071h-.185z" fill="url(#paint5_linear)"/><path d="M38.667 27.004c-.195.23-.392.374-.516.374-.094 0-.28-.261-.28-.864 0-.08.004-.156.01-.227l-.189.068a2.57 2.57 0 00-.005.16c0 .718.24 1.046.464 1.046.25 0 .519-.275.657-.44.232-.274.458-.517.677-.732l-.079-.182a11.18 11.18 0 00-.74.797z" fill="url(#paint6_linear)"/><path d="M39.406 26.207l.078.182c1.531-1.505 2.706-1.636 3.064-1.636.389 0 .409.407.409.488h.184c0-.334-.183-.67-.593-.67-.474 0-1.64.176-3.142 1.636z" fill="url(#paint7_linear)"/><path d="M40.018 27.301c0 .146.126.234.247.234.435 0 1.65-1.098 1.65-1.602 0-.118-.119-.2-.225-.2-.438 0-1.672 1.158-1.672 1.568zm.185 0c0-.31 1.153-1.386 1.487-1.386.014 0 .037.013.04.021 0 .392-1.135 1.416-1.465 1.416-.026 0-.062-.016-.062-.05z" fill="url(#paint8_linear)"/><path d="M46.079 23.799c0 .378.53.628.744.628.285 0 1.177-.566 1.177-1.364 0-.318-.227-.66-.564-.66-.457 0-1.357.926-1.357 1.396zm.184 0c0-.363.822-1.212 1.173-1.212.223 0 .38.25.38.476 0 .679-.785 1.181-.993 1.181-.137 0-.56-.2-.56-.445z" fill="url(#paint9_linear)"/><path d="M31.98 30.165l.217.007c.525-.793 1.238-1.89 1.676-2.76l-.23.047c-.46.88-1.182 1.982-1.663 2.706z" fill="#72C1ED"/><path d="M13.783 25.547l.176.08c.102-.107.21-.216.32-.325l-.187-.071c-.106.106-.21.211-.309.316z" fill="#63BBEB"/><path d="M20.653 27.24l-.535.732.185.058c.12-.165.32-.439.547-.747a31.281 31.281 0 01-.197-.043z" fill="#326CB3"/><path d="M26.913 28.22c-.078.323-.22.911-.232 1.355l.184.034c.006-.426.15-1.023.228-1.347a4.6 4.6 0 00.052-.229l-.187-.003-.044.19z" fill="#63BBEB"/><path d="M32.023 27.732a9.404 9.404 0 01-.624 1.135c-.227.352-.56.806-.978 1.208l.236.02c.668-.681 1.212-1.573 1.582-2.395l-.216.032z" fill="#4980CA"/><path d="M43.885 26.293l-.367.398c-1.1 1.198-2.346 2.557-3.46 2.557-.438 0-.53-.275-.53-.506h-.184c0 .397.226.646.612.683.398.009.655-.061 1.095-.274.888-.468 1.786-1.445 2.604-2.337l.365-.397c1.185-1.273 2.104-1.701 2.342-1.701v-.183c-.325 0-1.284.478-2.477 1.76z" fill="url(#paint10_linear)"/><path d="M46.361 24.716c.228 0 .33.184.33.366 0 .08-.07.41-.956 1.267-.445.43-1.057 1.274-1.486 1.932l.31-.133c.367-.544.925-1.3 1.305-1.668.662-.639 1.012-1.122 1.012-1.398 0-.273-.177-.55-.514-.55v.184z" fill="url(#paint11_linear)"/><path d="M22.655 29.217c.024.276.225.437.538.428.227-.005.606-.265.96-.57l-.224-.052c-.315.257-.604.436-.74.44-.217.005-.334-.083-.35-.26a.973.973 0 01.083-.428l-.18-.046a1.13 1.13 0 00-.087.488z" fill="url(#paint12_linear)"/><path d="M20.038 28.083c-.085.12-.11.204-.08.272.02.044.06.073.112.08.208.029.478-.104.714-.258a51.64 51.64 0 01-.234-.071c-.148.084-.292.143-.402.148a.562.562 0 01.04-.066l.115-.158-.185-.058-.08.111z" fill="url(#paint13_linear)"/><path d="M13.485 33.76c-.242.002-1.176.664-1.904 1.276-.6.505-1.606 1.433-1.606 1.976 0 .329.18.51.505.51.417 0 1.01-.504 1.434-.926.844-.84 1.785-2.146 1.783-2.636a.2.2 0 00-.053-.148c-.036-.035-.086-.052-.154-.052h-.005zm-3.325 3.252c0-.807 2.978-3.06 3.327-3.07l.024.003.001.016v.002c0 .394-.855 1.633-1.729 2.504-.556.554-1.031.872-1.303.872-.221 0-.32-.101-.32-.327z" fill="url(#paint14_linear)"/><path d="M14.44 28.912c0 .566.363.768.675.768.768 0 2.077-1.006 3.418-2.233l-.195-.069c-1.172 1.064-2.504 2.118-3.223 2.118-.307 0-.49-.218-.49-.584 0-.319.43-1.332 1.248-2.466l-.177-.073c-.832 1.162-1.256 2.195-1.256 2.538z" fill="url(#paint15_linear)"/><path d="M8 37.848h.185c0-1.864 3.088-3.858 7.45-6.471l-.096-.156C11.125 33.864 8 35.888 8 37.848z" fill="url(#paint16_linear)"/><path d="M11.629 29.545c0 .969.7 1.524 1.923 1.524v-.182c-.65 0-1.738-.175-1.738-1.342 0-.913.603-2.303 2.145-3.918l-.176-.08c-1.548 1.64-2.154 3.059-2.154 3.998z" fill="url(#paint17_linear)"/><path d="M15.635 31.377c.41-.255.901-.868.827-1.123-.023-.079-.092-.126-.186-.126-.123 0-.27.076-.475.181-.42.216-1.122.577-2.25.577v.183c1.173 0 1.9-.374 2.335-.597.174-.09.32-.164.39-.164.01 0 .014.007.014.018 0 .133-.33.633-.751.895" fill="#AF0A55"/><path d="M21.676 31.093c-.617 0-.945-.43-.945-.739h-.184c0 .445.453.922 1.129.922 1.49 0 2.568-1.063 3.439-1.991l-.211-.044c-.833.882-1.857 1.852-3.228 1.852z" fill="url(#paint18_linear)"/><path d="M18.93 30.25l-.081.058-.214.147c-.287.194-.557.377-.743.663-4.701 7.22-7.774 7.585-8.342 7.585-.82 0-1.365-.145-1.365-.855H8c0 1.038 1.047 1.038 1.55 1.038.34 0 1.287-.109 2.732-1.116 1.822-1.27 3.76-3.475 5.765-6.553.166-.255.421-.428.692-.611l.218-.15.082-.058c1.14-.816 1.457-.974 1.558-.988.082-.012.1.008.108.013l.13-.13c-.058-.058-.113-.066-.238-.066-.17 0-.638.286-1.666 1.022z" fill="url(#paint19_linear)"/><path d="M26.68 29.638c0 1.03.597 1.576 1.727 1.576.837 0 1.602-.46 2.25-1.12l-.236-.018c-.543.522-1.23.955-2.014.955-1.038 0-1.543-.456-1.543-1.393v-.029l-.184-.034v.063z" fill="url(#paint20_linear)"/><path d="M34.148 30.168c-.226.343-.401.608-.422.637-.064.089-.12.12-.152.12h-1.876l.007-.009.002-.004.311-.47.18-.27-.217-.007-.117.176-.307.465a.257.257 0 00-.06.15c0 .02.004.04.014.06.02.042.069.093.19.093h1.873c.105 0 .21-.069.302-.198.025-.034.22-.328.497-.75l-.225.007z" fill="url(#paint21_linear)"/><path d="M37.19 29.922l-.001.012c0 .375.07.816.343 1.105.184.193.436.292.75.292v-.183c-.26 0-.467-.08-.615-.235-.25-.263-.296-.703-.293-1.016l-.185.025z" fill="url(#paint22_linear)"/><path d="M20.77 29.356l-.065.066c.013.014.015.033.014.056-.001.024-.009.049-.014.071a2.955 2.955 0 01-.047.181c-.047.158-.111.373-.111.624h.184c0-.225.058-.417.104-.572.03-.102.046-.164.057-.238l.004-.05c0-.072-.005-.144-.06-.2l-.065.062z" fill="url(#paint23_linear)"/><path d="M39.505 33.061c-.673.81-1.242 1.474-1.744 2.06-1.395 1.632-2.032 2.377-2.032 2.892a.97.97 0 00.206.619l.116-.15a.8.8 0 01-.137-.469c0-.448.665-1.225 1.989-2.773.501-.587 1.07-1.252 1.744-2.063.902-1.085 1.513-1.891 1.926-2.485l-.191-.048a38.253 38.253 0 01-1.877 2.417z" fill="url(#paint24_linear)"/><path d="M44.249 28.282c-.47.72-.76 1.276-1.33 2.28a115.257 115.257 0 01-2.358 4.001c-2.297 3.701-3.44 4.254-3.916 4.254a.805.805 0 01-.594-.336l-.116.15c.203.256.51.369.71.369.903 0 2.311-1.501 4.074-4.34a115.404 115.404 0 002.36-4.008c.634-1.114.966-1.745 1.48-2.504l-.31.134z" fill="url(#paint25_linear)"/><path d="M42.252 28.961c-.038.012-.072.03-.288.215-.63.54-2.3 1.972-3.683 1.972v.183c1.451 0 3.16-1.465 3.804-2.017.061-.052.119-.102.161-.136-.038.118-.202.522-.864 1.466l.191.048c.854-1.226.869-1.55.869-1.554 0-.036 0-.104-.053-.148a.149.149 0 00-.097-.034.147.147 0 00-.04.005z" fill="url(#paint26_linear)"/><path d="M32.596 25.815c0 .4-.206 1.129-.573 1.918l.216-.032c.348-.77.542-1.478.542-1.886 0-.077.022-.1.096-.1.134 0 .49.036.701.057l.093.01c.153.015.413.137.413.5 0 .247-.178.676-.44 1.177l.23-.046c.237-.473.394-.879.394-1.13 0-.43-.3-.656-.579-.683l-.092-.01a10.66 10.66 0 00-.72-.058c-.176 0-.28.106-.28.283z" fill="url(#paint27_linear)"/><path d="M27.77 22.277c0 1.419 2.773 2.469 3.506 2.469.247 0 .284-.142.284-.227 0-.18-.964-3-3-3-.48 0-.79.298-.79.758zm.184 0c0-.354.233-.574.607-.574 1.84 0 2.8 2.634 2.814 2.818 0 .02 0 .042-.099.042-.65 0-3.322-1.027-3.322-2.286z" fill="url(#paint28_linear)"/><path d="M26.17 28.002l.326.014a.808.808 0 01.358-.096c.112 0 .112.038.112.066a.405.405 0 01-.008.044c.063 0 .125.002.187.003a.283.283 0 00.006-.047c0-.058-.022-.249-.297-.249-.227 0-.453.1-.684.265z" fill="url(#paint29_linear)"/><path d="M30.604 25.398c-.059.057-.08.14-.06.233.02.09.099.173.183.26.054.056.143.15.145.189.002.074-.157.29-.593.551-.27.16-.82.764-1.204 1.375l.227-.011c.362-.544.845-1.071 1.072-1.207.433-.26.688-.527.682-.714-.003-.11-.096-.206-.195-.309-.054-.056-.128-.133-.137-.172-.006-.03-.003-.052.009-.063.025-.025.11-.04.261-.002l.186.043c.349.08.462.119.467.288.007.215-.254 1.155-.738 2.01l.223-.024c.453-.835.708-1.726.7-1.991-.01-.325-.289-.388-.61-.461l-.182-.043a.844.844 0 00-.205-.028c-.12 0-.19.038-.23.076z" fill="url(#paint30_linear)"/><path d="M20.52 25.265l-.338.336c-.3.3-.739.74-1.242 1.217l.207.055a66.38 66.38 0 001.167-1.144l.335-.333c.584-.56 1.353-.68 1.512-.68.181 0 .309.078.309.137h.185c0-.2-.249-.32-.494-.32-.185 0-1.006.124-1.64.732z" fill="url(#paint31_linear)"/><path d="M22.47 24.853c0 .066-.146.23-.348.456l-.07.08c-.186.21-.877 1.14-1.4 1.85.066.016.132.03.197.044.515-.7 1.168-1.578 1.341-1.773l.071-.08c.27-.303.393-.442.393-.577h-.184z" fill="url(#paint32_linear)"/><path d="M17.33 24.527a11.72 11.72 0 00-1.301 1.404l.186.063a11.283 11.283 0 013.403-2.885l-.083-.163c-.731.4-1.485.925-2.204 1.581z" fill="url(#paint33_linear)"/><path d="M21.421 27.403l.22.044c2.49-2.373 3.525-2.85 4.435-2.85.396 0 .675.132.834.394.105.173.157.402.157.688 0 .317-.07.56-.117.72a.773.773 0 00-.043.195c0 .088.038.172.101.225l.12-.14a.112.112 0 01-.037-.085c0-.022.019-.084.036-.144.05-.17.125-.428.125-.771a1.6 1.6 0 00-.134-.685c-.179-.379-.534-.58-1.042-.58-.968 0-2.052.496-4.655 2.989z" fill="url(#paint34_linear)"/><path d="M29.267 24.992c-.16.267-1.165 1.542-2.083 1.7a.066.066 0 01-.057-.013l-.119.14a.251.251 0 00.208.054c1.074-.186 2.254-1.737 2.254-1.903l-.203.022z" fill="url(#paint35_linear)"/><path d="M36.677 25.361c-.154.143-.341.317-.41.35-.052-.035-.147-.233-.205-.356a2.334 2.334 0 00-.206-.378c-.258-.34-.6-.434-1.59-.434-.245 0-.436.01-.62.02l.01.183c.182-.01.37-.02.61-.02.929 0 1.225.074 1.442.361.06.08.125.215.187.346.124.26.221.466.369.466.096 0 .21-.098.54-.404.346-.322.87-.809 1.154-.809.192 0 .211.05.211.173 0 .083-.057.19-.128.326-.13.245-.318.605-.349 1.17l.19-.069c.04-.478.2-.784.323-1.016.083-.158.149-.283.149-.411a.377.377 0 00-.067-.238c-.063-.08-.172-.118-.329-.118-.358 0-.87.476-1.281.858z" fill="url(#paint36_linear)"/><path d="M32.334 24.481c.119.274.31.284.768.284l.553-.019-.01-.182-.543.018c-.487 0-.533-.024-.598-.173l-.17.072z" fill="url(#paint37_linear)"/><path d="M25.838 25.715c-.325.008-1.35.795-2.123 1.621a8.844 8.844 0 00-.352.401l.215.03a8.429 8.429 0 01.37-.41c.786-.816 1.679-1.454 1.895-1.46.11-.002.183.028.187.077v.02c0 .217-.29.407-.547.574l-.194.13-.01.008c-.322.23-.477.341-.477.551a.54.54 0 00.008.088c.013.08.065.13.11.174.042.041.08.078.097.139h.188a.455.455 0 00-.155-.27c-.034-.032-.055-.053-.058-.073-.025-.15.026-.197.395-.461l.01-.007.187-.126c.309-.201.658-.429.63-.762-.01-.114-.11-.245-.358-.245h-.018z" fill="url(#paint38_linear)"/><path d="M25.017 27.658a.244.244 0 01.008.054.481.481 0 01-.076.207l.198.017a.5.5 0 00.062-.253l-.004-.025h-.188z" fill="#90C643"/><path d="M26.27 21.26a1.46 1.46 0 00-.106.57c0 .798.398 2.269 3.064 3.15l.034.01.005.002.203-.022c0-.11-.101-.14-.156-.155l-.027-.009c-2.557-.844-2.938-2.228-2.938-2.977 0-.204.035-.373.096-.513.254-.584.944-.659 1.277-.659 2.812 0 4.23 2.9 4.598 3.79l.014.034.17-.072-.013-.031c-.379-.916-1.842-3.904-4.77-3.904-.731 0-1.241.285-1.45.785z" fill="url(#paint40_linear)"/><path d="M25.123 20.201c.069.01.123.02.165.03-.363.64-1 1.761-1.032 1.813l-.007.011-.024-.002-.042-.006c-.533-.08-.98-.12-1.33-.12-.844 0-2.048.323-3.318 1.019l.083.162c1.242-.681 2.415-.998 3.235-.998.34 0 .778.04 1.303.118l.043.007a.23.23 0 00.123-.01.195.195 0 00.093-.087c.041-.069 1.024-1.8 1.066-1.873a.13.13 0 00.012-.113.127.127 0 00-.082-.076 1.505 1.505 0 00-.288-.059v.184z" fill="url(#paint41_linear)"/><path d="M16.631 23.339c3.458-2.491 6.766-3.156 8.176-3.156.129 0 .229.004.317.019v-.184a2.17 2.17 0 00-.317-.018c-1.432 0-4.788.672-8.285 3.19a20.125 20.125 0 00-2.43 2.04l.187.072a19.98 19.98 0 012.352-1.963z" fill="#90C643"/><defs><linearGradient id="paint3_linear" x1="35.547" y1="29.249" x2="36.636" y2="30.171" gradientUnits="userSpaceOnUse"><stop stop-color="#4980CA"/><stop offset="1" stop-color="#63BBEB"/></linearGradient><linearGradient id="paint4_linear" x1="30.541" y1="28.962" x2="29.247" y2="28.186" gradientUnits="userSpaceOnUse"><stop stop-color="#82C7EF"/><stop offset="1" stop-color="#3777C5"/></linearGradient><linearGradient id="paint5_linear" x1="39.343" y1="26.992" x2="43.142" y2="26.992" gradientUnits="userSpaceOnUse"><stop stop-color="#2F67AB"/><stop offset="1" stop-color="#2D61A2"/></linearGradient><linearGradient id="paint6_linear" x1="39.103" y1="26.787" x2="38.06" y2="26.922" gradientUnits="userSpaceOnUse"><stop stop-color="#63BBEB"/><stop offset="1" stop-color="#3777C5"/></linearGradient><linearGradient id="paint7_linear" x1="42.064" y1="25.565" x2="42.706" y2="25.619" gradientUnits="userSpaceOnUse"><stop stop-color="#63BBEB"/><stop offset="1" stop-color="#2D61A2"/></linearGradient><linearGradient id="paint8_linear" x1="41.12" y1="26.817" x2="40.799" y2="26.411" gradientUnits="userSpaceOnUse"><stop stop-color="#5AAAD7"/><stop offset="1" stop-color="#2F67AB"/></linearGradient><linearGradient id="paint9_linear" x1="46.84" y1="23.297" x2="47.321" y2="23.499" gradientUnits="userSpaceOnUse"><stop stop-color="#63BBEB"/><stop offset="1" stop-color="#2B5C99"/></linearGradient><linearGradient id="paint10_linear" x1="46.072" y1="25.458" x2="44.513" y2="26.346" gradientUnits="userSpaceOnUse"><stop stop-color="#63BBEB"/><stop offset="1" stop-color="#2F67AB"/></linearGradient><linearGradient id="paint11_linear" x1="44.987" y1="25.732" x2="45.157" y2="25.99" gradientUnits="userSpaceOnUse"><stop stop-color="#63BBEB"/><stop offset="1" stop-color="#2B5C99"/></linearGradient><linearGradient id="paint12_linear" x1="22.653" y1="29.187" x2="24.153" y2="29.187" gradientUnits="userSpaceOnUse"><stop stop-color="#AF0A55"/><stop offset="1" stop-color="#DB4990"/></linearGradient><linearGradient id="paint13_linear" x1="19.946" y1="28.205" x2="20.784" y2="28.205" gradientUnits="userSpaceOnUse"><stop stop-color="#A2094D"/><stop offset="1" stop-color="#D73585"/></linearGradient><linearGradient id="paint14_linear" x1="11.744" y1="35.416" x2="12.101" y2="35.937" gradientUnits="userSpaceOnUse"><stop stop-color="#AF0A55"/><stop offset="1" stop-color="#DB4990"/></linearGradient><linearGradient id="paint15_linear" x1="15.332" y1="27.518" x2="16.794" y2="28.649" gradientUnits="userSpaceOnUse"><stop stop-color="#A2094D"/><stop offset="1" stop-color="#DB4990"/></linearGradient><linearGradient id="paint16_linear" x1="14.261" y1="33.099" x2="15.673" y2="32.239" gradientUnits="userSpaceOnUse"><stop stop-color="#DB4990"/><stop offset="1" stop-color="#AF0A55"/></linearGradient><linearGradient id="paint17_linear" x1="13.912" y1="29.379" x2="14.256" y2="29.859" gradientUnits="userSpaceOnUse"><stop stop-color="#DB4990"/><stop offset="1" stop-color="#AF0A55"/></linearGradient><linearGradient id="paint18_linear" x1="21.949" y1="29.735" x2="21.329" y2="29.472" gradientUnits="userSpaceOnUse"><stop stop-color="#A2094D"/><stop offset="1" stop-color="#DF5E9C"/></linearGradient><linearGradient id="paint19_linear" x1="11.548" y1="32.295" x2="12.128" y2="32.618" gradientUnits="userSpaceOnUse"><stop stop-color="#DB4990"/><stop offset="1" stop-color="#A2094D"/></linearGradient><linearGradient id="paint20_linear" x1="28.435" y1="30.463" x2="27.331" y2="30.382" gradientUnits="userSpaceOnUse"><stop stop-color="#A2094D"/><stop offset="1" stop-color="#DF5E9C"/></linearGradient><linearGradient id="paint21_linear" x1="33.112" y1="30.787" x2="32.454" y2="30.022" gradientUnits="userSpaceOnUse"><stop stop-color="#A2094D"/><stop offset="1" stop-color="#DB4990"/></linearGradient><linearGradient id="paint22_linear" x1="38.216" y1="31.224" x2="37.918" y2="30.923" gradientUnits="userSpaceOnUse"><stop stop-color="#C01F6E"/><stop offset="1" stop-color="#D63384"/></linearGradient><linearGradient id="paint23_linear" x1="20.778" y1="30.211" x2="20.66" y2="29.541" gradientUnits="userSpaceOnUse"><stop stop-color="#DF5E9C"/><stop offset="1" stop-color="#A2094D"/></linearGradient><linearGradient id="paint24_linear" x1="38.951" y1="34.273" x2="41.155" y2="31.519" gradientUnits="userSpaceOnUse"><stop stop-color="#DF5E9C"/><stop offset="1" stop-color="#A2094D"/></linearGradient><linearGradient id="paint25_linear" x1="38.199" y1="32.767" x2="38.706" y2="32.945" gradientUnits="userSpaceOnUse"><stop stop-color="#DF5E9C"/><stop offset="1" stop-color="#A2094D"/></linearGradient><linearGradient id="paint26_linear" x1="38.281" y1="30.143" x2="42.442" y2="30.143" gradientUnits="userSpaceOnUse"><stop stop-color="#C01F6E"/><stop offset="1" stop-color="#A2094D"/></linearGradient><linearGradient id="paint27_linear" x1="33.306" y1="26.954" x2="33.585" y2="27.175" gradientUnits="userSpaceOnUse"><stop stop-color="#5FB233"/><stop offset="1" stop-color="#90C643"/></linearGradient><linearGradient id="paint28_linear" x1="30.019" y1="23.078" x2="30.56" y2="22.876" gradientUnits="userSpaceOnUse"><stop stop-color="#5FB233"/><stop offset="1" stop-color="#90C643"/></linearGradient><linearGradient id="paint29_linear" x1="26.649" y1="27.914" x2="26.898" y2="28.049" gradientUnits="userSpaceOnUse"><stop stop-color="#5FB233"/><stop offset="1" stop-color="#90C643"/></linearGradient><linearGradient id="paint30_linear" x1="30.822" y1="26.996" x2="31.142" y2="27.157" gradientUnits="userSpaceOnUse"><stop stop-color="#5FB233"/><stop offset="1" stop-color="#90C643"/></linearGradient><linearGradient id="paint31_linear" x1="21.961" y1="26.015" x2="21.29" y2="25.846" gradientUnits="userSpaceOnUse"><stop stop-color="#5FB233"/><stop offset="1" stop-color="#90C643"/></linearGradient><linearGradient id="paint32_linear" x1="20.652" y1="26.068" x2="22.654" y2="26.068" gradientUnits="userSpaceOnUse"><stop stop-color="#529B2B"/><stop offset=".83" stop-color="#5FB233"/></linearGradient><linearGradient id="paint33_linear" x1="16.029" y1="24.47" x2="19.619" y2="24.47" gradientUnits="userSpaceOnUse"><stop offset=".04" stop-color="#529B2B"/><stop offset=".831" stop-color="#5AAB30"/></linearGradient><linearGradient id="paint34_linear" x1="21.421" y1="25.93" x2="27.252" y2="25.93" gradientUnits="userSpaceOnUse"><stop stop-color="#90C643"/><stop offset="1" stop-color="#56A32E"/></linearGradient><linearGradient id="paint35_linear" x1="27.6" y1="26.6" x2="28.951" y2="25.396" gradientUnits="userSpaceOnUse"><stop stop-color="#56A32E"/><stop offset=".5" stop-color="#83B43C"/><stop offset="1" stop-color="#5AAB30"/></linearGradient><linearGradient id="paint36_linear" x1="38.015" y1="25.47" x2="34.984" y2="24.538" gradientUnits="userSpaceOnUse"><stop stop-color="#56A32E"/><stop offset=".299" stop-color="#90C643"/><stop offset=".665" stop-color="#59A72F"/><stop offset="1" stop-color="#90C643"/></linearGradient><linearGradient id="paint37_linear" x1="32.334" y1="24.587" x2="33.655" y2="24.587" gradientUnits="userSpaceOnUse"><stop stop-color="#5FB233"/><stop offset="1" stop-color="#90C643"/></linearGradient><linearGradient id="paint38_linear" x1="24.681" y1="26.677" x2="25.287" y2="27.486" gradientUnits="userSpaceOnUse"><stop stop-color="#56A32E"/><stop offset=".495" stop-color="#90C643"/></linearGradient><linearGradient id="paint40_linear" x1="27.495" y1="21.095" x2="27.088" y2="20.606" gradientUnits="userSpaceOnUse"><stop stop-color="#5FB233"/><stop offset=".813" stop-color="#9BCB52"/></linearGradient><linearGradient id="paint41_linear" x1="22.588" y1="21.718" x2="22.462" y2="21.424" gradientUnits="userSpaceOnUse"><stop stop-color="#5AAB30"/><stop offset="1" stop-color="#90C643"/></linearGradient><radialGradient id="paint0_radial" cx="0" cy="0" r="1" gradientUnits="userSpaceOnUse" gradientTransform="matrix(29.0558 0 0 28.7939 28.01 30.122)"><stop stop-color="#C11566"/><stop offset=".994" stop-color="#AF0A55"/></radialGradient><radialGradient id="paint1_radial" cx="0" cy="0" r="1" gradientUnits="userSpaceOnUse" gradientTransform="matrix(12.3416 0 0 12.2304 30.89 26.34)"><stop stop-color="#63BBEB"/><stop offset="1" stop-color="#3777C5"/></radialGradient><radialGradient id="paint2_radial" cx="0" cy="0" r="1" gradientUnits="userSpaceOnUse" gradientTransform="matrix(15.657 0 0 15.5159 31.805 27.35)"><stop stop-color="#90C643"/><stop offset=".831" stop-color="#5FB233"/></radialGradient></defs></svg>