<svg xmlns="http://www.w3.org/2000/svg" width="56" height="56"><path fill="#F0F3FA" d="M0 0h56v56H0z"/><path d="M11.72 29.54c0 1.28 1.2 1.44 1.83 1.44 1.66 0 2.4-.76 2.73-.76.32 0-.2.77-.7 1.08-4.1 2.46-7.49 4.58-7.49 6.55 0 .88.83.94 1.46.94s3.7-.39 8.42-7.62c.22-.34.58-.54.93-.79.35-.25 1.47-1.06 1.7-1.06.22 0 .21.1.2.2-.01.13-.16.45-.16.83 0 .39.4.83 1.04.83 1.43 0 2.47-1 3.33-1.92l-.97-.21c-.34.28-.67.5-.85.5-.33.01-.43-.17-.44-.34-.01-.14.02-.3.08-.46a54.75 54.75 0 01-2.16-.6c-.2.12-.43.22-.59.2-.05-.01-.08-.06.03-.22l.1-.13a57.26 57.26 0 01-1.77-.59c-1.2 1.09-2.57 2.18-3.33 2.18-.3 0-.58-.2-.58-.68 0-.32.42-1.34 1.25-2.5a55 55 0 01-1.9-.82c-1.48 1.55-2.16 2.95-2.16 3.95zm-1.65 7.47c0-.87 3.05-3.16 3.42-3.16.09 0 .11.04.11.11 0 .7-2.22 3.47-3.12 3.47-.28 0-.41-.15-.41-.42zm27.21-7.1c0 .5.13 1.33 1 1.33 1.73 0 3.88-2.17 3.99-2.19.07-.01.08.02.08.09 0 .08-.24.94-2.77 3.98-2.53 3.04-3.76 4.24-3.76 4.9 0 .65.56.89.82.89.27 0 1.37-.06 4-4.3 1.88-3.02 2.76-4.89 3.76-6.4-1.8.78-4.06 1.29-7.12 1.7zm-10.5-.27c0 .6.2 1.48 1.63 1.48.8 0 1.52-.42 2.13-1.03a36.05 36.05 0 01-3.77-.5v.05zm5.3.53l-.45.69s-.13.16.07.16h1.87c.08 0 .16-.07.23-.16l.46-.7c-.7.03-1.42.03-2.17 0z" fill="url(#alhh5mgwi)"/><path d="M46.17 23.8c0 .32.49.54.65.54.25 0 1.09-.54 1.09-1.28 0-.27-.2-.56-.47-.56-.4 0-1.27.87-1.27 1.3zm-2.22 2.55c-1.18 1.28-2.6 2.99-3.9 2.99-.47 0-.61-.3-.61-.6 0-.22.17-.42.5-.52 1.2-.35 3.11-1.91 3.11-2.98 0-.28-.14-.58-.5-.58-.53 0-1.99.24-3.81 2.4-.2.25-.43.4-.59.4-.17 0-.37-.3-.37-.95v-.19a28.77 28.77 0 01-4.02 1.12 32.2 32.2 0 01-1.67 2.73c.75.02 1.47.02 2.17 0l1.17-1.8c.06-.07.14-.13.22-.13.3 0-.07.75 1.03.75.3 0 .61-.16.7-.16.07 0 .08.07.08.13 0 .12-.15.4-.17.78a3.2 3.2 0 000 .17c3.05-.41 5.31-.92 7.11-1.7.4-.6.98-1.4 1.4-1.8.78-.75.98-1.15.98-1.33 0-.23-.14-.46-.42-.46-.28 0-1.22.46-2.4 1.73zm-3.84.95c0-.35 1.18-1.48 1.58-1.48.06 0 .13.05.13.11 0 .45-1.18 1.51-1.55 1.51-.08 0-.16-.05-.16-.14zm-26.24-1.7c.65.3 1.3.57 1.91.82l.34-.45a52.52 52.52 0 01-1.93-.7l-.32.33zm4.57 1.82c.61.22 1.2.41 1.77.6a163 163 0 01.54-.75 40.6 40.6 0 01-1.7-.41 36.98 36.98 0 01-.61.56zm2.8.29c-.09.09-.32.29-.57.44.78.24 1.51.44 2.16.61.12-.3.35-.65.64-1-.65-.09-1.3-.2-1.94-.32a36.65 36.65 0 00-.28.27zm9.78.16c-.45.81-1.1 1.56-1.86 1.56-.24 0-.4-.13-.4-.35-.01-.28.18-.68.43-1.07-.72.04-1.43.05-2.14.03-.04.21-.26 1-.28 1.56 1.31.24 2.57.4 3.78.5a8.22 8.22 0 001.58-2.37l-1.11.14zm-6.98 1.19l.97.21c.49-.51.91-1 1.31-1.25a31.45 31.45 0 01-1.27-.08c-.16.31-.6.77-1 1.12z" fill="url(#blhh5mgwi)"/><path d="M16.58 23.27c-.94.67-1.74 1.35-2.4 2a52.51 52.51 0 001.94.7c.36-.47.79-.93 1.27-1.38 1.9-1.73 4.1-2.57 5.46-2.57.58 0 1.26.11 1.36.12.07.01.1 0 .13-.05l1.06-1.87c.02-.03 0-.05-.02-.06s-.2-.07-.57-.07c-1.53 0-4.87.75-8.23 3.17zm9.68-1.44c0 .95.57 2.26 3 3.06.06.02.12.03.12.08 0 .1-1.15 1.63-2.18 1.81-.12.02-.2-.08-.2-.19 0-.1.16-.42.16-.91 0-.49-.15-1.17-1.08-1.17-.9 0-1.94.42-4.55 2.92.64.12 1.29.23 1.94.32.81-.97 2.06-1.94 2.37-1.94.2 0 .28.07.28.16.03.34-.47.58-.78.8-.36.26-.47.34-.44.56.02.12.2.15.22.36a.46.46 0 01-.07.24l1.27.08c.18-.12.36-.18.53-.18.15 0 .2.06.2.16a.27.27 0 010 .04A31.52 31.52 0 0029.2 28a5.1 5.1 0 011.14-1.29c.41-.25.64-.5.63-.63 0-.14-.3-.33-.33-.47-.03-.16.1-.24.39-.17.41.1.71.12.72.42 0 .24-.26 1.16-.72 2l1.11-.14c.36-.79.56-1.5.56-1.9 0-.1.03-.2.19-.2s.6.05.8.07c.21.02.5.2.5.6 0 .24-.17.66-.42 1.15a28.78 28.78 0 004.03-1.12c.05-.84.47-1.18.47-1.46 0-.2-.08-.27-.3-.27-.51 0-1.52 1.22-1.7 1.22-.14 0-.31-.56-.48-.78-.24-.32-.57-.4-1.51-.4-.47 0-.75.04-1.17.04-.48 0-.59-.02-.68-.22-.1-.21-1.5-3.88-4.7-3.88-.71 0-1.46.3-1.46 1.26zm1.6.45c0-.42.3-.67.7-.67 1.94 0 2.9 2.74 2.9 2.9 0 .1-.04.15-.18.15-.71 0-3.42-1.05-3.42-2.38zm-7.27 3.05c-.22.2-.81.82-1.54 1.52.55.15 1.12.29 1.7.41l1.37-1.81c.3-.33.44-.49.44-.6 0-.12-.18-.23-.4-.23-.19 0-.97.13-1.57.71z" fill="url(#clhh5mgwi)"/><path d="M21.18 27.63a3.46 3.46 0 01-.63.48l.23.07a4.24 4.24 0 00.86-.73 26.04 26.04 0 01-.22-.05l-.24.23z" fill="#63BBEB"/><path d="M35.36 28.33l-.4.61-.81 1.23.22-.01.74-1.12.4-.61c.04-.06.1-.1.14-.1.02 0 .03.02.07.14.06.23.17.61.96.61.22 0 .43-.07.57-.12a1.19 1.19 0 01.12-.04.2.2 0 010 .04l-.05.18a2.33 2.33 0 00-.13.78l.18-.02.01-.16c.01-.22.08-.41.12-.55.03-.1.06-.17.06-.23 0-.2-.13-.22-.19-.22-.04 0-.1.02-.18.05-.13.04-.32.1-.51.1-.65 0-.73-.26-.79-.47-.03-.12-.07-.27-.24-.27a.36.36 0 00-.3.18z" fill="url(#dlhh5mgwi)"/><path d="M30.9 27.87c-.18.33-.4.65-.65.9-.36.37-.73.56-1.1.56-.1 0-.3-.03-.3-.27-.01-.27.19-.67.45-1.07l-.23.02a2.2 2.2 0 00-.4 1.06c0 .27.2.44.49.44.42 0 .83-.2 1.22-.6.3-.3.54-.68.75-1.06l-.22.02z" fill="url(#elhh5mgwi)"/><path d="M22.74 28.73l.18.05c.11-.29.34-.63.66-1.01l-.22-.03c-.25.3-.5.66-.62.99z" fill="#3777C5"/><path d="M18.34 27.38l.2.07.6-.58-.2-.05-.6.56zm6.6.54a2.8 2.8 0 01-.34.46 6.11 6.11 0 01-.67.64l.22.06c.22-.2.44-.4.6-.58.19-.22.32-.41.4-.56a19.16 19.16 0 01-.2-.02z" fill="#63BBEB"/><path d="M25.14 28.99l-.24.25.21.05.17-.18c.44-.48.85-.9 1.22-1.1a31.56 31.56 0 01-.33 0c-.33.22-.66.58-1.03.98z" fill="#4980CA"/><path d="M15.7 26.37l.17.08.35-.46-.2-.06-.33.44z" fill="#2F67AB"/><path d="M42.96 25.24c0 1.04-1.9 2.56-3.05 2.9-.35.1-.57.33-.57.6h.19c0-.19.16-.35.43-.43 1.2-.35 3.18-1.93 3.18-3.07h-.18z" fill="url(#flhh5mgwi)"/><path d="M38.67 27c-.2.23-.4.38-.52.38-.1 0-.28-.26-.28-.87l.01-.22-.19.06a2.57 2.57 0 000 .16c0 .72.24 1.05.46 1.05.25 0 .52-.27.66-.44.23-.27.46-.52.67-.73l-.07-.18c-.24.23-.49.5-.74.8z" fill="url(#glhh5mgwi)"/><path d="M39.4 26.2l.08.19c1.54-1.5 2.71-1.64 3.07-1.64.39 0 .4.41.4.5h.2c0-.34-.2-.68-.6-.68-.48 0-1.64.18-3.14 1.64z" fill="url(#hlhh5mgwi)"/><path d="M40.02 27.3c0 .15.12.23.24.23.44 0 1.66-1.1 1.66-1.6 0-.11-.12-.2-.23-.2-.44 0-1.67 1.16-1.67 1.57zm.18 0c0-.3 1.16-1.39 1.49-1.39l.04.03c0 .39-1.13 1.41-1.46 1.41-.03 0-.07-.01-.07-.05z" fill="url(#ilhh5mgwi)"/><path d="M46.08 23.8c0 .38.53.63.74.63.29 0 1.18-.57 1.18-1.37 0-.31-.23-.66-.56-.66-.46 0-1.36.93-1.36 1.4zm.18 0c0-.36.83-1.21 1.18-1.21.22 0 .38.25.38.47 0 .68-.79 1.18-1 1.18-.13 0-.56-.2-.56-.44z" fill="url(#jlhh5mgwi)"/><path d="M31.98 30.16l.22.01c.52-.8 1.23-1.89 1.67-2.76a8.5 8.5 0 01-.23.05c-.46.88-1.18 1.98-1.66 2.7z" fill="#72C1ED"/><path d="M13.78 25.55l.18.08.32-.33a62.55 62.55 0 01-.19-.07l-.3.32z" fill="#63BBEB"/><path d="M20.65 27.24l-.53.73.18.06.55-.75a31.28 31.28 0 01-.2-.04z" fill="#326CB3"/><path d="M26.91 28.22c-.07.32-.22.91-.23 1.35l.19.04c0-.43.15-1.02.22-1.35l.06-.23a58.56 58.56 0 01-.2 0l-.04.19z" fill="#63BBEB"/><path d="M32.02 27.73a9.4 9.4 0 01-.62 1.14c-.23.35-.56.8-.98 1.2l.24.02a8.47 8.47 0 001.58-2.39l-.22.03z" fill="#4980CA"/><path d="M43.88 26.3l-.36.4c-1.1 1.19-2.35 2.55-3.46 2.55-.44 0-.53-.28-.53-.5h-.19c0 .39.23.64.62.67.4.01.65-.06 1.1-.27a11.3 11.3 0 002.6-2.34l.36-.4c1.19-1.27 2.1-1.7 2.34-1.7v-.18c-.32 0-1.28.48-2.47 1.76z" fill="url(#klhh5mgwi)"/><path d="M46.36 24.72c.23 0 .33.18.33.36 0 .08-.07.41-.96 1.27-.44.43-1.05 1.27-1.48 1.93l.3-.13c.38-.55.93-1.3 1.31-1.67.67-.64 1.02-1.12 1.02-1.4 0-.27-.18-.55-.52-.55v.19z" fill="url(#llhh5mgwi)"/><path d="M22.66 29.22c.02.27.22.43.53.42.23 0 .6-.26.96-.57l-.22-.05c-.32.26-.6.44-.74.44-.22 0-.33-.08-.35-.26a.97.97 0 01.08-.42l-.18-.05a1.13 1.13 0 00-.08.49z" fill="url(#mlhh5mgwi)"/><path d="M20.04 28.08c-.09.12-.11.2-.08.28.02.04.06.07.11.07.2.03.48-.1.71-.25a51.64 51.64 0 01-.23-.07 1 1 0 01-.4.14.57.57 0 01.04-.06l.11-.16-.18-.06-.08.11z" fill="url(#nlhh5mgwi)"/><path d="M13.48 33.76c-.24 0-1.17.66-1.9 1.28-.6.5-1.6 1.43-1.6 1.97 0 .33.17.51.5.51.42 0 1.01-.5 1.43-.92.85-.84 1.79-2.15 1.79-2.64 0-.04 0-.1-.06-.15-.03-.03-.08-.05-.15-.05zm-3.32 3.25c0-.8 2.98-3.06 3.33-3.07h.02v.02c0 .4-.85 1.64-1.73 2.5-.55.56-1.03.88-1.3.88-.22 0-.32-.1-.32-.33z" fill="url(#olhh5mgwi)"/><path d="M14.44 28.91c0 .57.36.77.68.77.76 0 2.07-1 3.41-2.23l-.2-.07c-1.16 1.06-2.5 2.12-3.21 2.12-.31 0-.5-.22-.5-.59 0-.32.44-1.33 1.25-2.46l-.17-.08a6.48 6.48 0 00-1.26 2.54z" fill="url(#plhh5mgwi)"/><path d="M8 37.85h.18c0-1.87 3.1-3.86 7.46-6.47l-.1-.16C11.13 33.86 8 35.9 8 37.85z" fill="url(#qlhh5mgwi)"/><path d="M11.63 29.55c0 .96.7 1.52 1.92 1.52v-.18c-.65 0-1.74-.18-1.74-1.34 0-.92.6-2.3 2.15-3.92l-.18-.08c-1.54 1.64-2.15 3.06-2.15 4z" fill="url(#rlhh5mgwi)"/><path d="M15.63 31.38c.41-.26.9-.87.83-1.13-.02-.08-.09-.12-.18-.12-.13 0-.27.07-.48.18-.42.21-1.12.58-2.25.58v.18c1.17 0 1.9-.38 2.34-.6.17-.09.32-.16.39-.16l.01.02c0 .13-.33.63-.75.9" fill="#AF0A55"/><path d="M21.68 31.1c-.62 0-.95-.44-.95-.75h-.18c0 .45.45.93 1.13.93 1.49 0 2.56-1.07 3.43-2l-.2-.04c-.84.88-1.86 1.85-3.23 1.85z" fill="url(#slhh5mgwi)"/><path d="M18.93 30.25l-.08.06-.22.15c-.28.19-.55.37-.74.66-4.7 7.22-7.77 7.58-8.34 7.58-.82 0-1.36-.14-1.36-.85H8c0 1.04 1.05 1.04 1.55 1.04.34 0 1.29-.11 2.73-1.12 1.82-1.27 3.76-3.48 5.77-6.55.16-.26.42-.43.69-.61l.22-.15.08-.06a6.78 6.78 0 011.56-.99c.08-.01.1 0 .1.01l.14-.13c-.06-.05-.12-.06-.24-.06-.17 0-.64.28-1.67 1.02z" fill="url(#tlhh5mgwi)"/><path d="M26.68 29.64c0 1.03.6 1.57 1.73 1.57.83 0 1.6-.46 2.25-1.12l-.24-.01c-.54.52-1.23.95-2.01.95-1.04 0-1.55-.46-1.55-1.4v-.02l-.18-.04v.07z" fill="url(#ulhh5mgwi)"/><path d="M34.15 30.17l-.42.63c-.07.1-.12.12-.16.12H31.7l.32-.48.18-.27h-.22l-.12.17-.3.47a.26.26 0 00-.06.15l.01.06c.02.04.07.09.2.09h1.86c.1 0 .21-.07.3-.2l.5-.75h-.22z" fill="url(#vlhh5mgwi)"/><path d="M37.19 29.92v.01c0 .38.07.82.34 1.1.19.2.44.3.75.3v-.18a.81.81 0 01-.61-.24c-.25-.26-.3-.7-.3-1.01l-.18.02z" fill="url(#wlhh5mgwi)"/><path d="M20.77 29.36l-.07.06c.02.02.02.03.02.06l-.02.07a2.97 2.97 0 01-.04.18c-.05.16-.11.37-.11.62h.18c0-.22.06-.41.1-.57l.06-.24v-.05c0-.07 0-.14-.05-.2l-.07.07z" fill="url(#xlhh5mgwi)"/><path d="M39.5 33.06c-.67.81-1.24 1.47-1.74 2.06-1.4 1.63-2.03 2.38-2.03 2.9a.97.97 0 00.2.61l.12-.15a.8.8 0 01-.14-.47c0-.44.67-1.22 2-2.77l1.74-2.06c.9-1.09 1.51-1.9 1.92-2.49l-.19-.05a38.25 38.25 0 01-1.88 2.42z" fill="url(#ylhh5mgwi)"/><path d="M44.25 28.28c-.47.72-.76 1.28-1.33 2.28-.66 1.15-1.4 2.45-2.36 4-2.3 3.7-3.44 4.26-3.91 4.26a.8.8 0 01-.6-.34l-.11.15c.2.26.5.37.7.37.9 0 2.32-1.5 4.08-4.34a115.24 115.24 0 002.36-4c.63-1.12.97-1.75 1.48-2.51l-.31.13z" fill="url(#zlhh5mgwi)"/><path d="M42.25 28.96c-.04.01-.07.03-.29.22-.63.54-2.3 1.97-3.68 1.97v.18c1.45 0 3.16-1.46 3.8-2.02l.17-.13c-.04.12-.2.52-.87 1.46l.2.05c.85-1.22.86-1.55.86-1.55 0-.04 0-.1-.05-.15a.15.15 0 00-.1-.03.15.15 0 00-.04 0z" fill="url(#aalhh5mgwi)"/><path d="M32.6 25.82c0 .4-.21 1.12-.58 1.91l.22-.03c.35-.77.54-1.48.54-1.88 0-.08.02-.1.1-.1l.7.05.1.01c.14.02.4.14.4.5 0 .25-.17.68-.44 1.18l.23-.05c.24-.47.4-.88.4-1.13 0-.43-.3-.65-.58-.68l-.1-.01c-.22-.02-.57-.06-.71-.06-.18 0-.28.1-.28.28z" fill="url(#ablhh5mgwi)"/><path d="M27.77 22.28c0 1.42 2.77 2.47 3.5 2.47.25 0 .29-.15.29-.23 0-.18-.96-3-3-3-.48 0-.79.3-.79.76zm.18 0c0-.36.24-.58.61-.58 1.84 0 2.8 2.64 2.82 2.82 0 .02 0 .04-.1.04-.65 0-3.33-1.02-3.33-2.28z" fill="url(#aclhh5mgwi)"/><path d="M26.17 28l.33.02a.8.8 0 01.35-.1c.12 0 .12.04.12.07a.4.4 0 01-.01.04h.19a.28.28 0 000-.04c0-.06-.02-.25-.3-.25-.22 0-.45.1-.68.26z" fill="#90C643"/><path d="M30.6 25.4c-.06.06-.08.14-.06.23.02.1.1.17.19.26.05.06.14.15.14.19 0 .07-.16.29-.6.55-.26.16-.81.77-1.2 1.38l.23-.02c.36-.54.85-1.07 1.07-1.2.44-.26.7-.53.69-.72 0-.1-.1-.2-.2-.3a.65.65 0 01-.14-.18l.01-.06c.03-.03.11-.04.26 0l.19.04c.35.08.46.12.47.29 0 .21-.26 1.15-.74 2l.22-.01c.45-.84.71-1.73.7-2 0-.32-.29-.38-.6-.46l-.19-.04a.85.85 0 00-.2-.03c-.13 0-.2.04-.24.08z" fill="url(#adlhh5mgwi)"/><path d="M20.52 25.27l-.34.33-1.24 1.22.2.05a66.38 66.38 0 001.17-1.14l.34-.33a2.58 2.58 0 011.51-.68c.18 0 .31.07.31.13h.19c0-.2-.25-.32-.5-.32-.18 0-1 .13-1.64.74z" fill="url(#aelhh5mgwi)"/><path d="M22.47 24.85c0 .07-.15.23-.35.46l-.07.08c-.18.2-.88 1.14-1.4 1.85l.2.04c.51-.7 1.17-1.57 1.34-1.77l.07-.08c.27-.3.4-.44.4-.58h-.19z" fill="url(#aflhh5mgwi)"/><path d="M17.33 24.53a11.72 11.72 0 00-1.3 1.4l.18.06a11.28 11.28 0 013.4-2.88l-.08-.16c-.73.4-1.48.92-2.2 1.58z" fill="url(#aglhh5mgwi)"/><path d="M21.42 27.4l.22.05c2.5-2.38 3.53-2.85 4.44-2.85.4 0 .67.13.83.4.1.16.16.4.16.68 0 .32-.07.56-.12.72a.77.77 0 00-.04.2c0 .08.03.17.1.22l.12-.14a.11.11 0 01-.04-.09l.04-.14c.05-.17.12-.43.12-.77a1.6 1.6 0 00-.13-.69c-.18-.38-.54-.58-1.04-.58-.97 0-2.06.5-4.66 3z" fill="url(#ahlhh5mgwi)"/><path d="M29.27 25c-.16.26-1.17 1.53-2.09 1.7a.07.07 0 01-.05-.02l-.12.14a.25.25 0 00.2.05c1.08-.18 2.26-1.73 2.26-1.9l-.2.02z" fill="url(#ailhh5mgwi)"/><path d="M36.68 25.36c-.16.14-.34.32-.41.35a1.43 1.43 0 01-.2-.35 2.38 2.38 0 00-.21-.38c-.26-.34-.6-.44-1.6-.44l-.61.02v.19l.62-.02c.92 0 1.22.07 1.44.36.06.08.12.21.18.34.13.26.23.47.37.47.1 0 .21-.1.54-.4.35-.33.87-.81 1.16-.81.19 0 .2.05.2.17 0 .08-.05.19-.12.32-.13.25-.32.61-.35 1.17l.2-.06c.03-.48.2-.79.31-1.02.09-.16.15-.28.15-.41a.38.38 0 00-.06-.24c-.07-.08-.18-.12-.33-.12-.36 0-.87.48-1.28.86z" fill="url(#ajlhh5mgwi)"/><path d="M32.33 24.48c.12.28.31.29.77.29l.56-.02-.01-.19-.55.02c-.48 0-.53-.02-.6-.17l-.17.07z" fill="url(#aklhh5mgwi)"/><path d="M25.84 25.71c-.33.01-1.35.8-2.12 1.63a9.64 9.64 0 00-.36.4l.22.03a8.43 8.43 0 01.37-.41c.78-.82 1.68-1.46 1.9-1.46.1 0 .18.02.18.07V26c0 .22-.29.41-.55.58l-.2.13c-.32.24-.48.35-.48.56l.01.08c.01.08.07.13.11.18.04.04.08.08.1.14h.18a.46.46 0 00-.15-.27c-.03-.03-.06-.06-.06-.08-.02-.15.03-.2.4-.46l.2-.13c.3-.2.65-.43.62-.76 0-.12-.1-.25-.35-.25h-.02z" fill="url(#allhh5mgwi)"/><path d="M25.02 27.66a.24.24 0 010 .05.48.48 0 01-.07.2l.2.03a.5.5 0 00.06-.26v-.02H25z" fill="url(#amlhh5mgwi)"/><path d="M26.27 21.26c-.07.17-.1.36-.1.57 0 .8.4 2.27 3.06 3.15l.03.01.21-.02c0-.11-.1-.14-.16-.15l-.02-.01c-2.56-.85-2.94-2.23-2.94-2.98 0-.2.03-.37.1-.51.25-.59.94-.66 1.27-.66 2.81 0 4.23 2.9 4.6 3.79l.01.03.17-.07v-.03c-.39-.92-1.85-3.9-4.78-3.9-.73 0-1.24.28-1.45.78z" fill="url(#anlhh5mgwi)"/><path d="M25.12 20.2l.17.03-1.03 1.81-.01.02h-.03l-.04-.01a9.3 9.3 0 00-1.33-.12 7.4 7.4 0 00-3.32 1.02l.09.16c1.24-.68 2.41-1 3.23-1 .34 0 .78.04 1.3.12h.18a.2.2 0 00.1-.1l1.06-1.87a.13.13 0 00.01-.1.13.13 0 00-.08-.08 1.5 1.5 0 00-.29-.06v.18z" fill="#5AAB30"/><path d="M16.63 23.34c3.46-2.5 6.77-3.16 8.18-3.16.13 0 .23 0 .31.02v-.18a2.17 2.17 0 00-.31-.02c-1.43 0-4.8.67-8.29 3.19-.97.7-1.77 1.39-2.43 2.04l.19.07a19.99 19.99 0 012.35-1.96z" fill="#90C643"/><defs><linearGradient id="dlhh5mgwi" x1="35.55" y1="29.25" x2="36.64" y2="30.17" gradientUnits="userSpaceOnUse"><stop stop-color="#4980CA"/><stop offset="1" stop-color="#63BBEB"/></linearGradient><linearGradient id="elhh5mgwi" x1="30.54" y1="28.96" x2="29.25" y2="28.19" gradientUnits="userSpaceOnUse"><stop stop-color="#82C7EF"/><stop offset="1" stop-color="#3777C5"/></linearGradient><linearGradient id="flhh5mgwi" x1="39.34" y1="26.99" x2="43.14" y2="26.99" gradientUnits="userSpaceOnUse"><stop stop-color="#2F67AB"/><stop offset="1" stop-color="#2D61A2"/></linearGradient><linearGradient id="glhh5mgwi" x1="39.1" y1="26.79" x2="38.06" y2="26.92" gradientUnits="userSpaceOnUse"><stop stop-color="#63BBEB"/><stop offset="1" stop-color="#3777C5"/></linearGradient><linearGradient id="hlhh5mgwi" x1="42.06" y1="25.57" x2="42.71" y2="25.62" gradientUnits="userSpaceOnUse"><stop stop-color="#63BBEB"/><stop offset="1" stop-color="#2D61A2"/></linearGradient><linearGradient id="ilhh5mgwi" x1="41.12" y1="26.82" x2="40.8" y2="26.41" gradientUnits="userSpaceOnUse"><stop stop-color="#5AAAD7"/><stop offset="1" stop-color="#2F67AB"/></linearGradient><linearGradient id="jlhh5mgwi" x1="46.84" y1="23.3" x2="47.32" y2="23.5" gradientUnits="userSpaceOnUse"><stop stop-color="#63BBEB"/><stop offset="1" stop-color="#2B5C99"/></linearGradient><linearGradient id="klhh5mgwi" x1="46.07" y1="25.46" x2="44.51" y2="26.35" gradientUnits="userSpaceOnUse"><stop stop-color="#63BBEB"/><stop offset="1" stop-color="#2F67AB"/></linearGradient><linearGradient id="llhh5mgwi" x1="44.99" y1="25.73" x2="45.16" y2="25.99" gradientUnits="userSpaceOnUse"><stop stop-color="#63BBEB"/><stop offset="1" stop-color="#2B5C99"/></linearGradient><linearGradient id="mlhh5mgwi" x1="22.65" y1="29.19" x2="24.15" y2="29.19" gradientUnits="userSpaceOnUse"><stop stop-color="#AF0A55"/><stop offset="1" stop-color="#DB4990"/></linearGradient><linearGradient id="nlhh5mgwi" x1="19.95" y1="28.2" x2="20.78" y2="28.2" gradientUnits="userSpaceOnUse"><stop stop-color="#A2094D"/><stop offset="1" stop-color="#D73585"/></linearGradient><linearGradient id="olhh5mgwi" x1="11.74" y1="35.42" x2="12.1" y2="35.94" gradientUnits="userSpaceOnUse"><stop stop-color="#AF0A55"/><stop offset="1" stop-color="#DB4990"/></linearGradient><linearGradient id="plhh5mgwi" x1="15.33" y1="27.52" x2="16.79" y2="28.65" gradientUnits="userSpaceOnUse"><stop stop-color="#A2094D"/><stop offset="1" stop-color="#DB4990"/></linearGradient><linearGradient id="qlhh5mgwi" x1="14.26" y1="33.1" x2="15.67" y2="32.24" gradientUnits="userSpaceOnUse"><stop stop-color="#DB4990"/><stop offset="1" stop-color="#AF0A55"/></linearGradient><linearGradient id="rlhh5mgwi" x1="13.91" y1="29.38" x2="14.26" y2="29.86" gradientUnits="userSpaceOnUse"><stop stop-color="#DB4990"/><stop offset="1" stop-color="#AF0A55"/></linearGradient><linearGradient id="slhh5mgwi" x1="21.95" y1="29.73" x2="21.33" y2="29.47" gradientUnits="userSpaceOnUse"><stop stop-color="#A2094D"/><stop offset="1" stop-color="#DF5E9C"/></linearGradient><linearGradient id="tlhh5mgwi" x1="11.55" y1="32.3" x2="12.13" y2="32.62" gradientUnits="userSpaceOnUse"><stop stop-color="#DB4990"/><stop offset="1" stop-color="#A2094D"/></linearGradient><linearGradient id="ulhh5mgwi" x1="28.43" y1="30.46" x2="27.33" y2="30.38" gradientUnits="userSpaceOnUse"><stop stop-color="#A2094D"/><stop offset="1" stop-color="#DF5E9C"/></linearGradient><linearGradient id="vlhh5mgwi" x1="33.11" y1="30.79" x2="32.45" y2="30.02" gradientUnits="userSpaceOnUse"><stop stop-color="#A2094D"/><stop offset="1" stop-color="#DB4990"/></linearGradient><linearGradient id="wlhh5mgwi" x1="38.22" y1="31.22" x2="37.92" y2="30.92" gradientUnits="userSpaceOnUse"><stop stop-color="#C01F6E"/><stop offset="1" stop-color="#D63384"/></linearGradient><linearGradient id="xlhh5mgwi" x1="20.78" y1="30.21" x2="20.66" y2="29.54" gradientUnits="userSpaceOnUse"><stop stop-color="#DF5E9C"/><stop offset="1" stop-color="#A2094D"/></linearGradient><linearGradient id="ylhh5mgwi" x1="38.95" y1="34.27" x2="41.16" y2="31.52" gradientUnits="userSpaceOnUse"><stop stop-color="#DF5E9C"/><stop offset="1" stop-color="#A2094D"/></linearGradient><linearGradient id="zlhh5mgwi" x1="38.2" y1="32.77" x2="38.71" y2="32.95" gradientUnits="userSpaceOnUse"><stop stop-color="#DF5E9C"/><stop offset="1" stop-color="#A2094D"/></linearGradient><linearGradient id="aalhh5mgwi" x1="38.28" y1="30.14" x2="42.44" y2="30.14" gradientUnits="userSpaceOnUse"><stop stop-color="#C01F6E"/><stop offset="1" stop-color="#A2094D"/></linearGradient><linearGradient id="ablhh5mgwi" x1="33.31" y1="26.95" x2="33.59" y2="27.18" gradientUnits="userSpaceOnUse"><stop stop-color="#5FB233"/><stop offset="1" stop-color="#90C643"/></linearGradient><linearGradient id="aclhh5mgwi" x1="30.02" y1="23.08" x2="30.56" y2="22.88" gradientUnits="userSpaceOnUse"><stop stop-color="#5FB233"/><stop offset="1" stop-color="#90C643"/></linearGradient><linearGradient id="adlhh5mgwi" x1="30.82" y1="27" x2="31.14" y2="27.16" gradientUnits="userSpaceOnUse"><stop stop-color="#5FB233"/><stop offset="1" stop-color="#90C643"/></linearGradient><linearGradient id="aelhh5mgwi" x1="21.96" y1="26.02" x2="21.29" y2="25.85" gradientUnits="userSpaceOnUse"><stop stop-color="#5FB233"/><stop offset="1" stop-color="#90C643"/></linearGradient><linearGradient id="aflhh5mgwi" x1="20.65" y1="26.07" x2="22.65" y2="26.07" gradientUnits="userSpaceOnUse"><stop stop-color="#529B2B"/><stop offset=".83" stop-color="#5FB233"/></linearGradient><linearGradient id="aglhh5mgwi" x1="16.03" y1="24.47" x2="19.62" y2="24.47" gradientUnits="userSpaceOnUse"><stop offset=".04" stop-color="#529B2B"/><stop offset=".83" stop-color="#5AAB30"/></linearGradient><linearGradient id="ahlhh5mgwi" x1="21.42" y1="25.93" x2="27.25" y2="25.93" gradientUnits="userSpaceOnUse"><stop stop-color="#90C643"/><stop offset="1" stop-color="#56A32E"/></linearGradient><linearGradient id="ailhh5mgwi" x1="27.6" y1="26.6" x2="28.95" y2="25.4" gradientUnits="userSpaceOnUse"><stop stop-color="#56A32E"/><stop offset=".5" stop-color="#83B43C"/><stop offset="1" stop-color="#5AAB30"/></linearGradient><linearGradient id="ajlhh5mgwi" x1="38.02" y1="25.47" x2="34.98" y2="24.54" gradientUnits="userSpaceOnUse"><stop stop-color="#56A32E"/><stop offset=".3" stop-color="#90C643"/><stop offset=".67" stop-color="#59A72F"/><stop offset="1" stop-color="#90C643"/></linearGradient><linearGradient id="aklhh5mgwi" x1="32.33" y1="24.59" x2="33.66" y2="24.59" gradientUnits="userSpaceOnUse"><stop stop-color="#5FB233"/><stop offset="1" stop-color="#90C643"/></linearGradient><linearGradient id="allhh5mgwi" x1="24.68" y1="26.68" x2="25.29" y2="27.49" gradientUnits="userSpaceOnUse"><stop stop-color="#56A32E"/><stop offset=".49" stop-color="#90C643"/></linearGradient><linearGradient id="amlhh5mgwi" x1="24.39" y1="26.89" x2="25" y2="27.7"><stop offset="1" stop-color="#90C643"/></linearGradient><linearGradient id="anlhh5mgwi" x1="27.5" y1="21.09" x2="27.09" y2="20.61" gradientUnits="userSpaceOnUse"><stop stop-color="#5FB233"/><stop offset=".81" stop-color="#9BCB52"/></linearGradient><radialGradient id="alhh5mgwi" cx="0" cy="0" r="1" gradientUnits="userSpaceOnUse" gradientTransform="matrix(29.0558 0 0 28.7939 28.01 30.12)"><stop stop-color="#C11566"/><stop offset=".99" stop-color="#AF0A55"/></radialGradient><radialGradient id="blhh5mgwi" cx="0" cy="0" r="1" gradientUnits="userSpaceOnUse" gradientTransform="matrix(12.3416 0 0 12.2304 30.89 26.34)"><stop stop-color="#63BBEB"/><stop offset="1" stop-color="#3777C5"/></radialGradient><radialGradient id="clhh5mgwi" cx="0" cy="0" r="1" gradientUnits="userSpaceOnUse" gradientTransform="matrix(15.657 0 0 15.5159 31.8 27.35)"><stop stop-color="#90C643"/><stop offset=".83" stop-color="#5FB233"/></radialGradient></defs></svg>