<svg xmlns="http://www.w3.org/2000/svg" width="56" height="56" viewBox="0 0 56 56"><path fill="#F0F3FA" d="M0 0h56v56H0z"/><path d="M25 17.08V15h5v2.46c1.67-2.08 4.7-2.5 6.07-2.46 4.9 0 7.31 3.18 7.9 4.77L44 33H31c0 3.4 2.3 4.5 4.5 4.5 1.76 0 3.41-.95 3.82-1.5H44c0 2.38-2.78 5-8.1 5-4.26 0-6.8-1.69-7.53-2.53a14.9 14.9 0 0 1-7.8 2.53c-5.56 0-7.72-3.21-8.1-5h4.87c0 1.2 2.15 1.45 3.23 1.5h.84c2 0 3.59-1.8 3.59-3.78v-1.8A7.23 7.23 0 0 1 20 34c-4.42 0-8-2.96-8-9.5s3.58-9.5 8-9.5c1.9 0 3.63.78 5 2.08ZM25 25c0-3.31-1.8-6-4-6s-4 2.69-4 6 1.8 6 4 6 4-2.69 4-6Zm6-2.06V31h9v-8.06c0-2.17-2.01-3.94-4.5-3.94S31 20.77 31 22.94Z" fill="#CE1F26"/></svg>