<svg width="56" height="56" viewBox="0 0 56 56" xmlns="http://www.w3.org/2000/svg"><path fill="#F0F3FA" d="M0 0h56v56H0z"/><path d="M28 31.14V20h1.2c.44 0 .8.39.8.86v5.85l4.03-3.62c.19-.08.55-.21.9.15.7.7.45 1.3.2 1.52l-3.11 2.56 3.21 3.03c.24.16.58.63 0 1.29-.58.65-1.36.27-1.67 0L30 27.89V32h-1.2c-.44 0-.8-.39-.8-.86Zm-12-7.48v1.82l-1.73 1.83c-.34-1.07-1.15-2.31-2.63-2.31A2.64 2.64 0 0 0 9 27.51C9 28.8 10 30 11.64 30c1.04 0 2.33-.87 2.78-1.26l2.6-2.9c.62-.95 2.47-2.84 5-2.84 3.15 0 4.98 2.38 4.98 4.5S24.96 32 22.01 32a5.23 5.23 0 0 1-4.36-2.5l1.58-2.08c0 1.21 1.4 2.58 2.78 2.58C23.4 30 25 28.81 25 27.6s-.98-2.6-2.99-2.6c-1.77 0-3.3 1.86-4.98 3.93l-.7.85A5.93 5.93 0 0 1 11.75 32 4.55 4.55 0 0 1 7 27.6C7 23.9 10.29 23 11.76 23c1.17 0 1.6.32 1.82.48 0-.35.36-.47.54-.48h1.01c.64 0 .84.44.87.66Zm-1.96 9.4v-.56c1.24-.73 1.68-1.31 1.89-1.59l.07-.1v1.69c0 2.57-1.43 4.5-4.28 4.5a4.71 4.71 0 0 1-4.01-2l1.43-.71c.27-.14.6-.07.87.07.54.28 1.31.62 1.71.64 1.7 0 2.25-1.37 2.32-1.94ZM46 31.14V20h1.2c.44 0 .8.39.8.86V32h-1.2c-.44 0-.8-.39-.8-.86Zm-9-7.98v5.96c-.03.96.72 2.88 3.94 2.88 2.57 0 3.78-.92 4.06-1.37V23.8c-.06-.27-.38-.81-1.2-.81-.79 0-.8.1-.8.15v6.33c-.14.13-.9.55-1.77.55-1.09 0-2.23-.78-2.23-1.8v-4.42l-.02-.08c-.08-.29-.2-.73-.84-.73-.7 0-1.05.1-1.14.16Z" fill="url(#as3ojmll5)"/><defs><linearGradient id="as3ojmll5" x1="7" y1="26.84" x2="47.45" y2="26.84" gradientUnits="userSpaceOnUse"><stop stop-color="#F5AD37"/><stop offset=".54" stop-color="#D72A2E"/><stop offset="1" stop-color="#AD1E22"/></linearGradient></defs></svg>