<svg width="56" height="56" viewBox="0 0 56 56" xmlns="http://www.w3.org/2000/svg"><path fill="#F0F3FA" d="M0 0h56v56H0z"/><path d="M13 17.14c0-1.38.83-4.14 4.17-4.14H31c.35 0 1.04.2 1.04 1.03 0 .4 0 1.07-.02 1.78L32 18c0 .14-.17 1-1 1h-8.63c-1.04 0-3.37.83-3.37 3.31v14.48A4.2 4.2 0 0 0 23 40c2.5 0 3.65-1.97 4-3-.17.34-.75 1-2 1-1.56 0-2 0-2-2V26c0-.69.33-2 2-2h11c.7 0 2 .8 2 2.45V36c0 4.5-.94 7-4.69 7H17.17c-1.4 0-4.17-.83-4.17-4.14V17.14ZM22 42h9.83c1.55 0 4.76-2.1 5.17-10.48-.34-.17-1.14-.1-1.55 1.58l-.08.32c-.55 2.31-1.8 7.53-8.2 7.53 1.38 0 4.45-.63 5.7-3.14.63-1.29 1.09-2.66 1.48-3.83.57-1.7 1-2.98 1.62-2.98-2.25 0-6.94.63-7.76 3.14-.22.67-.35 1.3-.47 1.92-.45 2.3-.84 4.29-5.74 5.94Z" fill="#252883"/><path d="M32 14.03c0-.82-.65-1.03-1-1.03h7.83c3.34 0 4.17 3.45 4.17 5.17v20.7c0 2.89-2.78 3.96-4.17 4.13H33c3.34-.41 5-5 5-6.2V26.44c0-1.66-1.6-2.45-2.3-2.45H25.26C23.6 24 23 25.76 23 26.45V36.5c0 .7.75 1.5 2 1.5s1.83-.66 2-1c-.17 1.03-1.08 3-4 3s-4-2.17-4-3.2V21.27c0-1.66 2.3-2.28 3-2.28h9c.5 0 1-.5 1-1v-3.97Z" fill="#92C22B"/></svg>