<svg width="56" height="56" viewBox="0 0 56 56" xmlns="http://www.w3.org/2000/svg"><path fill="#F0F3FA" d="M0 0h56v56H0z"/><path d="M15.12 29.36a12 12 0 0 1 2.33-9.98c1.91-2.44 4.67-3.97 7.7-4.84.9-.27 1.84-.43 2.8-.51.19-.02 1.13-.02 2.84-.03l13.09.01c.14 0 .16.04.04.13l-8.97 6.77c-.11.09-.24.1-.38.09h-4.18a9.35 9.35 0 0 0-3.27.41c-3.91 1.52-4.89 7.33-1.23 9.74a8.38 8.38 0 0 0 4.08 1.3.07.07 0 0 0 .03-.05v-3.78c0-.1.04-.18.13-.24l7.73-5.06a.09.09 0 0 1 .1 0 .1.1 0 0 1 .05.08v11.95c-.01.16.07.25.23.25.73 0 2.43-.11 2.9-.69.54-.64-.26-1.42-.67-1.92-.1-.13-.09-.15.05-.07.69.4 1.6 1.33 1.25 2.16-.65 1.56-3.94 1.7-5.22 1.66a37.18 37.18 0 0 1-5.67-.64 92.68 92.68 0 0 1-8.16-1.9c-3.94-1.11-8-2.76-12.2-4.94-1.03-.54-3.74-2.04-3.5-3.37.09-.53.4-.92.95-1.16a7.04 7.04 0 0 1 4.8-.42c.16.04.16.09 0 .14-.2.06-.46.07-.65.16-1 .44-1.32 1.16-.94 2.14.53 1.38 2.4 2.36 3.84 2.7.08.03.12 0 .1-.09Z" fill="#712341"/><path d="M34.17 38.65c-4.23.22-8.44-.1-12.62-.93-1.6-.35-3.2-.8-4.77-1.37-3.1-1.1-5.81-2.84-8.14-5.2-.03-.04-.04-.08-.01-.12.02-.04.04-.06.06-.05a38.7 38.7 0 0 0 9.62 4.57 72.4 72.4 0 0 0 15.86 3.1Z" fill="#FC9D2D"/><path d="m34.17 38.65 3.7.02c.03 0 .07.02.1.05.03.03.03.07.03.1v6.14l-.03.03a.09.09 0 0 1-.09 0c-4.63-2.8-6.82-4.36-7.36-4.68a2.95 2.95 0 0 0-1.24-.4c-.63-.08-1.63-.2-3-.4a10.94 10.94 0 0 1-4.73-1.8c4.18.85 8.39 1.16 12.62.94Z" fill="#712341"/></svg>