<svg width="56" height="56" xmlns="http://www.w3.org/2000/svg"><path fill="#F0F3FA" d="M0 0h56v56H0z"/><path d="M44 19.5a7.5 7.5 0 10-15.002.001 7.5 7.5 0 0015.002 0z" fill="url(#paint0_linear)"/><path d="M28 12a15.486 15.486 0 00-14.209 9.91l-.836.023a16.045 16.045 0 00-.955 5.47c0 4.919 2.236 9.244 5.724 12.211l-.268.652C20.356 42.703 24.105 44 28.202 44c1.835 0 3.69-.361 5.341-.906l.43.597a17.379 17.379 0 006.382-3.898L43 42V28c-.477 7.675-6.898 14.076-14.749 14.076-8.16 0-14.777-6.57-14.777-14.673 0-8.026 6.47-14.548 14.525-14.67V12z" fill="#0295DA"/><path d="M28 16.528c-6.072.031-10.961 4.928-10.961 10.964 0 6.056 4.944 10.965 11.044 10.965 5.911 0 10.739-4.658 11.029-10.457h2.856c-.314 6.114-4.642 11.35-10.42 12.812l-.509-.595c-.95.217-1.94.331-2.956.331a13.155 13.155 0 01-9.239-3.765l.466-.908a12.005 12.005 0 01-3.403-8.383c0-1.878.431-3.655 1.2-5.24l.662-.028A11.568 11.568 0 0128 15.98v.548z" fill="#0295DA"/><path d="M28 20.223c-4.082.07-7.4 3.377-7.4 7.448 0 4.113 3.359 7.447 7.503 7.447 3.977 0 7.231-3.232 7.485-7.118h2.517c-.222 4.696-3.728 8.688-8.291 9.468l-.333-.607c-.45.067-.91.1-1.378.1-2.907 0-5.547-1.239-7.264-3.304l.358-.652c-1.195-1.506-1.95-3.25-1.95-5.315 0-1.673.41-3.256 1.222-4.59l.76.171A8.21 8.21 0 0128 19.553v.67z" fill="#0295DA"/><path d="M34.595 28c-.298 3.018-2.69 5.571-5.716 5.917l-.22-.711a5.69 5.69 0 01-5.2-2.265l.585-.44a4.865 4.865 0 01-.957-2.905c0-1.088.356-2.094.96-2.907l.704.165A4.216 4.216 0 0128 23.334v.72a3.521 3.521 0 00-3.528 3.542c0 1.956 1.596 3.541 3.566 3.541.998 0 1.9-.407 2.548-1.062L28.739 28h5.856z" fill="#0295DA"/><defs><linearGradient id="paint0_linear" x1="45.441" y1="13.166" x2="29.619" y2="22.403" gradientUnits="userSpaceOnUse"><stop offset=".027" stop-color="#fff"/><stop offset="1" stop-color="#ED1C24"/></linearGradient></defs></svg>