<svg xmlns="http://www.w3.org/2000/svg" width="56" height="56"><path fill="#0B0590" d="M0 0h56v56H0z"/><path d="M45 28a17 17 0 11-34 0 17 17 0 0134 0z" fill="#DF070C"/><path fill-rule="evenodd" d="M28 44a16 16 0 100-32 16 16 0 000 32zm0 1a17 17 0 100-34 17 17 0 000 34z" fill="#fff"/><path d="M30 26v-5h-.38c-.3 1.2-1.12 1.04-1.5.82a7.3 7.3 0 00-3.2-.82C20.55 21 17 23.78 17 28.6c0 4.84 4 7.4 7.93 7.4 2.6 0 4.4-.88 5.07-1.24v-5.94c0-1.38 1.45-1.38 2-1.38V27h-7v.44c1.48 0 2 .73 2 1.38v5.84c-.84.36-1.52.34-2.07.34-3.06 0-4.93-3.22-4.93-6.18 0-3.57 1.54-6.82 5-6.82 2.76 0 4.17 2.58 4.63 4H30z" fill="#fff"/><path d="M38 21h-7v.5h.77c.9 0 1.23.98 1.23 1.52V34.1c.02.96-.86 1.38-1.23 1.4H31v.5h7v-.5h-.7c-.86 0-1.3-.81-1.3-1.4V23.02c0-1.25.85-1.52 1.3-1.52h.7V21z" fill="#fff"/></svg>