<svg width="56" height="56" xmlns="http://www.w3.org/2000/svg"><path fill="#F0F3FA" d="M0 0h56v56H0z"/><path d="M28 34h-9.525c-.363-1.76.386-3.286.805-3.83L28 34zm.005 0h9.572c.363-1.76-.39-3.299-.81-3.843L28.005 34z" fill="#A8191D"/><path d="M22.998 26.169L28 34l-8.668-3.8c.41-2.027 2.627-3.535 3.666-4.031zm10.022-.009L28 34l8.68-3.797c-.41-2.026-2.621-3.547-3.66-4.043z" fill="#E32D22"/><path d="M28 24.844V34l-4.984-7.801c1.5-1.562 3.945-1.555 4.984-1.354z" fill="#EF6B2B"/><path d="M28 24.844V34l5.005-7.807c-1.5-1.561-3.966-1.549-5.005-1.348zm-12.222-9.843H12V27l4.43 1.902 4.747-5.648-5.399-8.253zM40.222 15H44v12l-4.384 1.916-4.803-5.678L40.221 15z" fill="#A8191D"/><path d="M28 15H15.753l5.424 8.27L28 15zm0 0h12.247l-5.434 8.246L28 15z" fill="#EF6B2B"/><path d="M28 24.856V15l-6.82 8.25 1.849 2.99c1.38-1.049 3.934-1.384 4.971-1.384z" fill="#E32D22"/><path d="M28 24.86V15l6.82 8.253-1.849 2.991C31.334 25.17 29.037 24.86 28 24.86z" fill="#F2DA52"/><path d="M16.431 28.896l4.75-5.67 1.847 2.99c-1.965 1.214-3.31 3.184-3.7 3.995l-2.896-1.315zm23.171-.009l-4.783-5.657-1.854 3.016c1.965 1.215 3.317 3.166 3.707 3.977l2.93-1.336z" fill="#EF6B2B"/><path d="M12 34v-7.001l4.432 1.897L12 34zm32 0v-6.997L39.568 28.9 44 34z" fill="#EF6B2B"/><path d="M18.467 34H12l4.426-5.11 2.906 1.323c-.73 1.322-.88 3.05-.865 3.787zm19.066 0H44l-4.41-5.105-2.923 1.322c.73 1.322.882 3.046.866 3.783z" fill="#F2DA52"/><path fill="#2BA81C" d="M12 35h32v6H12z"/><path d="M22.081 37.856c0 .61-.181 1.114-.543 1.513-.38.42-.88.631-1.5.631-.576 0-1.06-.196-1.451-.588A1.964 1.964 0 0118 37.979c0-.41.114-.78.342-1.107.229-.328.537-.569.924-.722.25-.1.516-.15.799-.15.413 0 .788.109 1.125.326.34.214.578.506.712.877h-.913a1.095 1.095 0 00-.951-.492c-.352 0-.647.125-.886.375-.24.246-.359.541-.359.887 0 .364.116.676.348.936.236.257.535.385.897.385.54 0 .92-.258 1.14-.775h-1.472v-.663h2.375zM25.387 40h-.923l-1.098-1.642V40h-.772v-4h1.326c.431 0 .774.107 1.027.32.265.229.397.625.397 1.038 0 .307-.098.573-.293.797a1.102 1.102 0 01-.75.374L25.388 40zm-.798-2.615c0-.228-.085-.469-.256-.572-.134-.082-.326-.123-.576-.123h-.391v1.273h.391c.28 0 .477-.032.593-.097.159-.085.239-.246.239-.481zM29.238 40h-.848l-.31-.91h-1.45l-.316.91h-.837l1.549-4h.668l1.544 4zm-1.391-1.562l-.484-1.417-.495 1.417h.979zm1.488.295h.782c0 .16.04.296.12.406a.452.452 0 00.375.182.5.5 0 00.375-.145.531.531 0 00.14-.38c0-.17-.1-.322-.303-.454a3.2 3.2 0 00-.533-.246c-.569-.224-.853-.567-.853-1.026 0-.34.123-.606.37-.803.224-.178.512-.267.863-.267.355 0 .638.1.848.3.21.196.315.467.315.812h-.755c-.026-.296-.17-.444-.435-.444-.293 0-.44.13-.44.39 0 .208.161.38.484.52.297.124.516.231.657.32.25.154.417.321.5.503.047.11.07.239.07.385 0 .378-.119.676-.358.893-.235.214-.547.321-.935.321-.394 0-.708-.114-.94-.342-.231-.228-.347-.537-.347-.925zM33.21 40h-.787v-4h.788v4zM38 36v4h-.723v-3l-1.054 3h-.532l-1.055-3v3h-.722v-4H35l.957 2.866.956-2.866H38z" fill="#fff"/></svg>