<svg xmlns="http://www.w3.org/2000/svg" width="56" height="56" viewBox="0 0 56 56"><path fill="#F0F3FA" d="M0 0h56v56H0z"/><path d="M11.11 20.95c.03-.79 1.47-3.02 5.43-1.86a5.23 5.23 0 0 1-5.43 1.86z" fill="#4B9365"/><path d="M11.27 21c-.74.28-3.38-.14-3.86-4.2a5.15 5.15 0 0 1 3.86 4.2z" fill="#76AF8E"/><path d="M11.21 20.77c.6.51 1.45 3.02-1.95 5.34a5.11 5.11 0 0 1 1.95-5.34z" fill="#469E6C"/><path fill-rule="evenodd" d="M21 37c4.97 0 9-3 9-8s-4.03-8-9-8-9 3-9 8 4.03 8 9 8zm0-1.56c3.96 0 7.17-2.88 7.17-6.44 0-3.56-3.21-6.44-7.17-6.44s-7.17 2.88-7.17 6.44c0 3.56 3.21 6.44 7.17 6.44z" fill="#A2D016"/><path d="M31.74 37c1.53 0 2.98-.3 4.26-.85l-.01-.15H36v-6h1v-1h-3v5.97c-.84.3-1.76.47-2.73.47-4 0-7.27-2.2-7.25-6.44 0-4.24 3.24-6.44 7.25-6.44 1.6 0 3.08.46 4.28 1.24l-.07-2.15a10.95 10.95 0 0 0-3.74-.65C26.5 21 22 24 22 29s4.5 8 9.74 8z" fill="#087136"/><path d="M37 37V21h5.48c2.48 0 5.52 2.04 5.52 4.56 0 2.52-3.04 4.44-5.52 4.44H39v7h-2zm4.74-15H39v7h2.74c1.8 0 4.26-.98 4.26-3.5 0-2.36-2.46-3.5-4.26-3.5z" fill="#A2D016"/></svg>