<svg width="56" height="56" viewBox="0 0 56 56" xmlns="http://www.w3.org/2000/svg"><path fill="#F0F3FA" d="M0 0h56v56H0z"/><path d="M42 42H14V23.77C14 16.17 20.34 10 28 10s14 6.17 14 13.77V42Z" fill="#BFD630"/><path d="M15 41V24.05C15 16.85 20.88 11 28 11s13 5.84 13 13.05V41H15Zm25-16.95C40 17.39 34.57 12 28 12s-12 5.4-12 12.05V40h24V24.05Z" fill="#105F30"/><path d="M26.04 34h-7.82c.75-.5 5.4-3.15 6.61-3.15.96 0 1.27.95 1.3 1.43-.2.5-.15 1.35-.1 1.72ZM29.49 34h7.81c-.75-.5-5.4-3.15-6.6-3.15-.97 0-1.28.95-1.3 1.43.2.5.14 1.35.09 1.72Z" fill="#105F30"/><path d="M27.5 34.8v5.48h1V34.8c0-.28.25-.6.4-.72.65-.58.52-1.36.38-1.67-.33-1.12-1.26-3.44-1.37-3.8-.14-.46-.23-1.23-.58-1.23-.28 0-.65.23-.8.35.47.06.77.52.87.74-.3 1.26-.93 3.8-.95 3.94-.04.16-.36 1.2.33 1.55.55.27.71.67.72.84Z" fill="#105F30"/><path d="M24.12 30.73c-.37.1-1.2.45-1.57.62l-4.44-3.15a1.67 1.67 0 0 1-.16-2.6 1.7 1.7 0 0 1 2.5.23l3.67 4.9Z" fill="#EB088D"/><path d="M31.2 30.73c.37.1 1.2.45 1.56.62l4.44-3.15c.88-.62.96-1.88.16-2.6a1.7 1.7 0 0 0-2.5.23l-3.67 4.9Z" fill="#672F90"/><path d="M25.83 30.85c-.43-.3-1.2-.28-1.52-.24l-5.72-7.64a1.87 1.87 0 0 1 .52-2.72 1.9 1.9 0 0 1 2.76.89l3.96 9.7Z" fill="#F36F24"/><path d="M29.47 31c.41-.31 1.17-.32 1.5-.3l5.38-7.88c.62-.91.33-2.16-.64-2.7a1.9 1.9 0 0 0-2.72 1.02L29.47 31Z" fill="#19499D"/><path d="m26.82 29.46-.44 2.02-4.88-12.1a1.92 1.92 0 1 1 3.68-1l1.37 9-.45.27.6.6.12 1.21ZM28.66 29.66l.52 1.9 4.07-12.36a1.92 1.92 0 1 0-3.75-.7l-.84 11.16Z" fill="#F8F035"/><path d="m25.51 18.17 1.21 9.13c1.18-.67 1.55.77 1.58 1.57l1.1-10.76A1.94 1.94 0 0 0 27.47 16a1.93 1.93 0 0 0-1.95 2.17Z" fill="#22B25D"/></svg>