<svg xmlns="http://www.w3.org/2000/svg" width="56" height="56"><path fill="#F0F3FA" d="M0 0h56v56H0z"/><path fill-rule="evenodd" d="M12.15 20L5 36h38.6L51 20H12.15zM10 31h1.3l1.7-3.7.63 3.7h1.08l2.83-6h-1.25l-1.8 3.59-.36-3.59h-1.26L10 31zm27.51 0h1.25l1.83-3.7L41 31h1.18L45 25h-1.24L42 28.59 41.6 25h-1.26l-2.83 6zm-11.55-6h1.63c.8 0 1.16.16 1.18.56a4.95 4.95 0 01-.63 1.82c-.24.56-.69 1.62-1.39 1.62h-.6l.67 2h-1.14l-.75-2H24l-.96 2h-1.22l2.82-6h1.32zm.84 2.43c-.16.3-.3.57-.66.57h-1.67l.9-2h1.54c.41 0 .52.17.26.69a13.07 13.07 0 01-.37.74zM29.7 31h-1.24l2.3-5h-1.43l.51-1h4.06l-.53 1h-1.36l-2.3 5zm-7.43-3.83c.42-.87.68-1.55.48-1.87-.2-.31-.85-.3-1.46-.3h-.24c-1.18 0-1.78.06-2.06.27-.4.3-.65.85-.96 1.52l-.71 1.5-.27.54c-.4.84-.6 1.48-.42 1.8.22.38 1.02.38 1.54.37h.19c.43 0 .9 0 1.34-.1.23-.05.45-.13.64-.25.41-.27.65-.78.94-1.4l.7-1.47.3-.61zm-2 1.75l.91-1.92c.38-.78.41-1-.62-1-.8 0-1.08.3-1.43 1l-.92 1.92c-.4.88-.29 1.08.52 1.08.86 0 1.19-.34 1.54-1.08zm17.76-1.75c.42-.87.67-1.55.47-1.87-.19-.31-.85-.3-1.45-.3h-.25c-1.17 0-1.77.06-2.05.27-.4.3-.65.85-.96 1.52l-.18.38-.8 1.66c-.4.84-.6 1.48-.43 1.8.17.33 1.06.37 1.55.37h.18c.45 0 .91 0 1.35-.1.83-.11 1.32-1.13 1.72-1.97l.05-.1.8-1.66zm-2 1.75l.9-1.92c.38-.78.41-1-.61-1-.94 0-.98.08-1.4.95h-.01l-.03.05-.91 1.92c-.4.88-.3 1.08.51 1.08h.08c.82 0 1.13-.39 1.46-1.08z" fill="#1F70B7"/></svg>