<svg xmlns="http://www.w3.org/2000/svg" width="56" height="56" viewBox="0 0 56 56"><path fill="#F0F3FA" d="M0 0h56v56H0z"/><path d="M27.1 25H10.15l1.58 2h12.14l3.21-2z" fill="url(#az1m3qqnc)"/><path d="M45.85 25H33.47l-2.88 2h13.47l1.8-2z" fill="url(#bz1m3qqnc)"/><path d="M25 28H12.5l1.58 2h7.7l3.23-2z" fill="url(#cz1m3qqnc)"/><path d="M43.36 28H29.29l-2.88 2h15.15l1.8-2z" fill="url(#dz1m3qqnc)"/><path d="M22.92 31H14.9l1.58 2h5.3l1.14-2z" fill="url(#ez1m3qqnc)"/><path d="M41.14 31H27.9l-1.49 2h12.94l1.8-2z" fill="url(#fz1m3qqnc)"/><path d="M38.61 34H25.37l-1.49 2h12.94l1.79-2z" fill="url(#gz1m3qqnc)"/><path d="M36.18 37H22.93l-1.48 2h12.93l1.8-2z" fill="url(#hz1m3qqnc)"/><path d="M33.79 40H21.94l2 2h8.05l1.8-2z" fill="url(#iz1m3qqnc)"/><path d="M31.42 43h-7.05l2 2h3.26l1.8-2z" fill="url(#jz1m3qqnc)"/><path d="M17.59 40.46l-2.38-2.52c3.41-6.08 9.35-14.37 17.15-14.24-2.3.6-8.46 4.8-14.77 16.76zm.78.94l3.31 3.6c2.29-6.94 8.09-20.02 13.5-19.56-.44-.52-1.57-1.6-2.51-1.7-2.69.87-9.32 5.63-14.3 17.66z"/><path fill-rule="evenodd" d="M42 16h1v4.94c0 .78.3 1.06 1.06 1.06H46v1h-2.5c-1.15 0-1.5-.72-1.5-1.9V16zm-26 1v-1h-3.25A2.79 2.79 0 0 0 10 18.84v1.54c0 1.56 1.21 2.62 2.75 2.62H16v-4h-3v1h2v2h-1.73c-1.15 0-2.27-.63-2.27-1.8V19c0-1.17 1.12-2 2.27-2H16zm6-1h3.97c1.12 0 2.03.9 2.03 2a2 2 0 0 1-1.2 1.82c.5.32.84.85.94 1.47L28 23h-1.17l-.2-1.6c-.1-.8-.75-1.4-1.52-1.4H23v3h-1v-7zm1 1h2.65c.75 0 1.35.45 1.35 1s-.6 1-1.35 1H23v-2zm11-1h1v7h-1v-7z" fill="#005BAA"/><defs><linearGradient id="az1m3qqnc" x1="28.01" y1="25" x2="28.01" y2="27" gradientUnits="userSpaceOnUse"><stop offset=".18" stop-color="#0687C0"/><stop offset="1" stop-color="#A9D2F0"/></linearGradient><linearGradient id="bz1m3qqnc" x1="28.01" y1="25" x2="28.01" y2="27" gradientUnits="userSpaceOnUse"><stop offset=".18" stop-color="#0687C0"/><stop offset="1" stop-color="#A9D2F0"/></linearGradient><linearGradient id="cz1m3qqnc" x1="28.01" y1="28" x2="28.01" y2="30" gradientUnits="userSpaceOnUse"><stop offset=".08" stop-color="#0489BA"/><stop offset="1" stop-color="#9CCCEE"/></linearGradient><linearGradient id="dz1m3qqnc" x1="28.01" y1="28" x2="28.01" y2="30" gradientUnits="userSpaceOnUse"><stop offset=".08" stop-color="#0489BA"/><stop offset="1" stop-color="#9CCCEE"/></linearGradient><linearGradient id="ez1m3qqnc" x1="28.01" y1="31" x2="28.01" y2="33" gradientUnits="userSpaceOnUse"><stop offset=".06" stop-color="#0396CC"/><stop offset="1" stop-color="#A7D2F0"/></linearGradient><linearGradient id="fz1m3qqnc" x1="28.01" y1="31" x2="28.01" y2="33" gradientUnits="userSpaceOnUse"><stop offset=".06" stop-color="#0396CC"/><stop offset="1" stop-color="#A7D2F0"/></linearGradient><linearGradient id="gz1m3qqnc" x1="25.48" y1="34" x2="25.48" y2="36" gradientUnits="userSpaceOnUse"><stop offset=".15" stop-color="#0285B5"/><stop offset="1" stop-color="#AED5F1"/></linearGradient><linearGradient id="hz1m3qqnc" x1="23.04" y1="37" x2="23.04" y2="39" gradientUnits="userSpaceOnUse"><stop stop-color="#018CBF"/><stop offset="1" stop-color="#ACD4F1"/></linearGradient><linearGradient id="iz1m3qqnc" x1="20.66" y1="40" x2="20.66" y2="42" gradientUnits="userSpaceOnUse"><stop stop-color="#008CBF"/><stop offset="1" stop-color="#87C3EB"/></linearGradient><linearGradient id="jz1m3qqnc" x1="20.66" y1="43" x2="20.66" y2="45" gradientUnits="userSpaceOnUse"><stop stop-color="#0089BC"/><stop offset="1" stop-color="#5AB1DD" stop-opacity=".22"/></linearGradient></defs></svg>