<svg width="56" height="56" viewBox="0 0 56 56" xmlns="http://www.w3.org/2000/svg"><path fill="#F0F3FA" d="M0 0h56v56H0z"/><path fill-rule="evenodd" d="M39.31 39.31A16 16 0 1 0 16.7 16.7 16 16 0 0 0 39.3 39.3ZM25.83 15.2c.27-.54.45-1.02.66-1.55a1.64 1.64 0 0 0-.9.06c-2.03.64-3.7 1.6-5.1 3.13a16 16 0 0 0-1.4 1.7 16.14 16.14 0 0 0-2.5 6.2c-.85 4.69.11 9.7 3.07 13.48 1.4 1.8 2.93 2.89 5.09 3.81.56.24 1.2.4 1.93.48.73.08 1.51.09 2.34.03.76-.05 1.5-.23 2.26-.54 1.12-.47 2-.95 2.66-1.44a13.59 13.59 0 0 0 4.48-5.97c.8-2.03 1.24-3.94 1.33-5.74.13-2.84-.46-5.65-1.78-8.46-1.01-2.14-2.7-4.07-4.57-5.32a9.42 9.42 0 0 0-6.19-1.58c0 .37-.06.7-.16 1-.16.45-.25.74-.27.86-.14.9-.2 1.77-.16 2.62.07 2.11.5 4.2 1.3 6.27.33.87 1.05 2.6 2.16 5.18.8 1.87 1.23 3.58 1.3 5.15.1 2.38-.55 4.62-1.93 6.73-.12.18-.24.49-.36.92a.35.35 0 0 1-.34.27h-.05c-.18-.02-.24-.12-.19-.32a4 4 0 0 1 .21-.56c.12-.28.24-.56.3-.9.35-2.29.24-4.38-.31-6.28-.27-.91-.68-2.15-1.1-3.18-.55-1.37-1.13-2.88-1.74-4.51a19.35 19.35 0 0 1-1.23-5.07c-.22-2.26.17-4.42 1.19-6.47Z" fill="#F49B4B"/><path d="M27.21 13.48c0 .37-.06.7-.16 1-.16.45-.25.74-.27.86-.14.9-.2 1.77-.16 2.62.07 2.11.5 4.2 1.3 6.27.33.87 1.05 2.6 2.16 5.18.8 1.87 1.23 3.58 1.3 5.15.1 2.38-.55 4.62-1.93 6.73-.12.18-.24.49-.36.92a.35.35 0 0 1-.34.27h-.05c-.18-.02-.24-.12-.19-.32.12-.46.42-.89.5-1.46.36-2.29.25-4.38-.3-6.28a38.4 38.4 0 0 0-1.1-3.18c-.55-1.37-1.13-2.88-1.74-4.51a19.33 19.33 0 0 1-1.23-5.07c-.22-2.26.17-4.42 1.19-6.47.27-.54.45-1.02.66-1.55.22-.16.46-.21.72-.16Z" fill="#1EAC31"/></svg>