<svg xmlns="http://www.w3.org/2000/svg" width="56" height="56"><path fill="#2B3896" d="M0 0h56v56H0z"/><path d="M37.2 33.68a15.53 15.53 0 00.14-1.82v-.12a168.98 168.98 0 002.09 0v.04l-.02.13v.15l-.01.1a18.99 18.99 0 00-1.26 0l-.03.33a26.52 26.52 0 001.07 0l-.03.43a53.67 53.67 0 00-1.08 0l-.02.35h.62l.38-.01.29-.01-.04.43h-2.1zm-3.45-.03a5.7 5.7 0 00-.06-.48 2.45 2.45 0 00.66.12c.11 0 .2 0 .26-.03.07-.03.1-.06.1-.1l-.01-.06a.17.17 0 00-.04-.05.46.46 0 00-.07-.06l-.35-.23a5.19 5.19 0 01-.33-.25.4.4 0 01-.08-.13.38.38 0 01.01-.3c.03-.06.07-.11.13-.16a.7.7 0 01.2-.13c.1-.03.2-.06.3-.07l.3-.02c.22 0 .44.02.7.06v.18l.04.28a2.24 2.24 0 00-.56-.09c-.1 0-.18.01-.24.04s-.1.06-.1.1l.02.06c0 .02.03.04.06.06.02.03.06.05.1.08l.22.13.13.08a2.03 2.03 0 01.25.2.6.6 0 01.08.1l.04.08v.1c0 .08-.02.16-.07.24a.6.6 0 01-.23.19c-.1.05-.2.08-.32.1a5.52 5.52 0 01-1.14-.04zm-4 .03a11.8 11.8 0 00.13-1.94 20.5 20.5 0 001.16-.01 5.5 5.5 0 01.68.05l.2.08c.05.03.1.06.13.1a.4.4 0 01.1.3.48.48 0 01-.13.34l-.16.12c-.07.03-.17.07-.3.1l.1.19.09.15.25.42.06.1a52.72 52.72 0 00-.86 0l-.1-.27-.06-.13-.13-.28-.2-.4h.2a.9.9 0 00.25-.03.34.34 0 00.17-.1.2.2 0 00.06-.13.15.15 0 00-.05-.1.26.26 0 00-.13-.08 4.25 4.25 0 00-.58-.02 18.44 18.44 0 00-.07 1.54 55.41 55.41 0 00-.8 0zm-2.8-1.13a41.87 41.87 0 001.11 0 10.35 10.35 0 00-.08 1.1 8.66 8.66 0 01-1.05.07 3.9 3.9 0 01-.94-.13.93.93 0 01-.32-.2.85.85 0 01-.08-1.16c.13-.16.3-.29.54-.38.24-.1.55-.15.92-.15.27 0 .58.03.9.08l.03.46a8.06 8.06 0 00-.62-.1l-.18-.01c-.14 0-.27.01-.4.04a.92.92 0 00-.3.14.6.6 0 00-.27.5c0 .1.03.18.08.26.05.07.13.13.23.17.11.04.23.06.37.06.1 0 .23-.01.36-.04l.02-.3h-.34l.01-.18v-.09l.01-.14zm14.67-3.97a.2.2 0 00-.07-.14.25.25 0 00-.16-.06c-.06 0-.1.01-.14.05a.18.18 0 00-.05.13c0 .07.01.14.05.21.04.08.1.15.18.23h-.17c-.1-.1-.17-.2-.22-.3a.63.63 0 01-.08-.29.3.3 0 01.1-.22c.07-.06.15-.1.24-.1.06 0 .12.02.18.05a.45.45 0 01.23.24c.02.06.04.12.04.18l-.13.02zm-.04.72v.44h-.7a.21.21 0 00-.15.06.18.18 0 00-.06.15c0 .02 0 .05.02.06 0 .02.02.03.04.03.09 0 .17-.01.25-.04a.9.9 0 01.26-.04c.04 0 .09.02.14.05l.14.11.12.15c.03.05.04.1.04.14 0 .06-.01.12-.04.17a.55.55 0 01-.13.16.76.76 0 01-.2.12l-.26.07.27.4-.19.1-.2-.47a.76.76 0 01-.37-.08.34.34 0 01-.1-.1.19.19 0 01-.05-.11c0-.05.02-.09.05-.12a.16.16 0 01.12-.05c.1 0 .19.04.26.13a.9.9 0 00.39-.09.37.37 0 00.11-.1.2.2 0 00.05-.12l-.01-.04a.04.04 0 00-.04-.02.45.45 0 00-.18.04.43.43 0 01-.17.03.46.46 0 01-.2-.05.8.8 0 01-.33-.32.4.4 0 01-.07-.2c0-.08.04-.14.1-.2a.37.37 0 01.24-.08h.47v-.18h-1.04l-.19-.3h1.92l.2.3h-.51zm-2.85 0v1.55l-.38-.18V29.3h-.36l-.19-.3h1.29l.19.3h-.55zm-1.29 0v.57a2.5 2.5 0 00.44.07 1.18 1.18 0 00.37-.06.22.22 0 00.08-.04v.3a.3.3 0 01-.08.04 1.69 1.69 0 01-.3.04l-.1-.01a1.23 1.23 0 01-.3-.13.72.72 0 01-.13-.1.42.42 0 01-.1.2.38.38 0 01-.2.12l.6.51-.17.1-.62-.61a1.33 1.33 0 01-.18-.23.4.4 0 01-.07-.18.1.1 0 01.04-.08.13.13 0 01.09-.03c.06 0 .13.02.2.06.02 0 .03-.01.04-.03l.01-.09v-.42h-.51l-.2-.3h1.83l.2.3h-.94zm-1.08 0v.74c0 .04-.02.07-.04.1a.35.35 0 01-.12.1.9.9 0 01-.37.08l-.13-.23c.07.03.13.02.2 0 .05-.03.08-.07.08-.13v-.66h-.51v.85c0 .06.02.13.07.19.04.06.1.12.18.16l.64.33c.1.06.16-.14.22-.1.05.06.07.1.07.14 0 .07-.07.4-.2.49l-.35-.47c.09-.05.13-.1.13-.15 0-.03-.03.2-.08.15a.88.88 0 00-.21-.13l-.55-.24a.6.6 0 01-.22-.16.28.28 0 01-.08-.17v-.9h-.29l-.19-.29h2l.2.3h-.45zm-3 0v.57c0 .08-.03.16-.09.23a.55.55 0 01-.23.16l.6.55-.22.12-.64-.7a2.02 2.02 0 01-.17-.23.292.292 0 01-.06-.15c0-.03.02-.05.05-.08a.18.18 0 01.1-.03c.1 0 .18.03.23.08.03-.06.05-.1.05-.15v-.37h-.55l-.2-.3h1.54l.19.3h-.6zm-1.23 0v1.55l-.38-.18V29.3h-.36l-.19-.3h1.29l.19.3h-.55zm-1.03 0v1.55l-.38-.18V29.3h-.36l-.19-.3h1.29l.19.3h-.55zm-1.03 0v1.55l-.39-.18v-.52a.3.3 0 01-.16.04.74.74 0 01-.43-.17.44.44 0 01.05.47.45.45 0 01-.16.18.49.49 0 01-.27.07.8.8 0 01-.27-.05.816.816 0 01-.26-.14 1.76 1.76 0 01-.44-.53l.13-.07c.08.15.18.27.3.35.13.09.26.13.4.13.05 0 .1 0 .14-.02a.36.36 0 00.2-.18.3.3 0 00.04-.14.24.24 0 00-.09-.18c-.15.07-.29.12-.42.13l-.15-.28a.95.95 0 01.22-.06h.18c.07 0 .12-.03.17-.09a.32.32 0 00.06-.2c0-.05-.02-.1-.07-.13a.3.3 0 00-.18-.05.64.64 0 00-.26.05c-.09.03-.18.08-.27.15l-.19-.24c.08-.06.17-.1.26-.14a.7.7 0 01.5 0c.09.03.16.07.23.12.07.05.13.1.17.17.05.06.07.12.07.18s-.02.12-.05.18a.42.42 0 01-.14.14l.16.05c.07.02.15.02.24.02.05 0 .1-.01.15-.04l.14-.1v-.47h-.25l-.17-.3h1.17l.19.3h-.55zm-3.88 0v1.55l-.38-.18V29.3h-.36l-.2-.3h.65c-.11-.16-.26-.29-.46-.38-.2-.09-.4-.13-.64-.13-.07 0-.12 0-.18.02a.49.49 0 00-.14.07.36.36 0 00-.1.1.21.21 0 00-.04.11c0 .07.02.13.05.2h-.2a.67.67 0 01-.13-.36c0-.06.02-.11.05-.16a.5.5 0 01.12-.15.63.63 0 01.18-.1.93.93 0 01.24-.05 1.5 1.5 0 01.8.23 1.94 1.94 0 01.64.6h.46l.2.3h-.56zm-1.04 0v1.55l-.38-.18V29.3h-.35l-.2-.3h1.3l.18.3h-.55zm-2.35 0l-.2-.3h2.1l.18.3H22.8zm1.28.6c.14.14.2.27.2.4 0 .04 0 .08-.03.12a.34.34 0 01-.09.1.51.51 0 01-.3.1.52.52 0 01-.25-.08 1.86 1.86 0 01-.54-.52c-.07-.1-.12-.21-.16-.31l.15-.06c.08.17.17.31.3.42.12.1.25.15.38.15.05 0 .09-.01.12-.04a.15.15 0 00.06-.12.37.37 0 00-.08-.24.64.64 0 00-.23-.19l.04-.07h1.19v.33h-.76zM18.48 12h18.93l4.73 8L47 27.79 42.14 36l-4.73 8H18.48l-4.73-8L9 27.73 13.75 20l4.73-8zm-7.7 15h6.29l6.8-12h3.72l-3.4 6h5.21l4.6-8H19.22L10.8 27zm26.47-12.98L29.96 27H34v-3.88l.46-.83.54.47v-1.51l1 .78v-3.95l1 .8v2.06l1 .36v-4.57l1 .99v4.1l.57-.2L41 23.06V27h4.24l-7.99-12.98zM45.63 28h-25.7l3.99 6h18.16l3.55-6zm-4.75 8h-5.46l-2.67 4h-9.04l-7.49-12H10.5l8.72 15h17.59l4.07-7z" fill="#fff"/></svg>