<svg xmlns="http://www.w3.org/2000/svg" width="56" height="56"><path fill="#E67B10" d="M0 0h56v56H0z"/><path d="M16.14 20.2h2.45v-.63h-1.04v-.88h-.43v.88h-.47v-1h-.51v1.63zm0-2.54l.34-1.63.5.08-.24 1.17.4.09.22-1.02.51.12-.18.98.47.12.29-1.1.47.05-.31 1.66-2.47-.52zM26.8 8.04h1.77v.47l-1.24.02v.39l1.08-.01v.5h-1.08v.51h1.24v.5h-1.76V8.03zm13.05 12.83l.03 1.7h-.49l-.03-1.2h-.4l.02 1.05h-.53l-.01-1.03-.53.01.01 1.19h-.5l-.03-1.69 2.46-.03zM35.14 46.4l-1.5.88-.25-.4 1.04-.63-.2-.34-.92.55-.27-.43.91-.54-.28-.43-1.05.62-.27-.42 1.5-.89 1.3 2.03zM16.13 24.07v-1.7h.48l.02 1.2h.41l-.01-1.05h.52v1.04l.54-.01-.01-1.19h.5l.02 1.7h-2.47zm.69-9.07l2.2 1.08.27-.47-.9-.42.2-.41 1.22-.12.12-.4-1.18.1c.03-.22 0-.68-.5-.8-.48-.13-.83.22-.94.4L16.8 15zm.65-.24c.07-.25.3-.75.6-.7.32.04.03.6-.16.89l-.44-.19zm11.61-6.7v2.36h.59v-.9h.37l.57.96h.58l-.58-1c.22-.05.64-.28.56-.76-.08-.47-.56-.64-.78-.66h-1.3zm.6.48c.25-.04.77-.04.85.23.08.27-.53.25-.84.2l-.01-.43zM16.61 40.73l2.36-.65-.16-.54-.9.25-.1-.35.8-.79-.16-.54-.84.81c-.11-.18-.45-.5-.9-.3-.46.2-.5.69-.45.9l.35 1.2zm.32-.69c-.1-.22-.25-.7 0-.85.25-.14.39.42.43.72l-.43.13zm2.3-28.91l-1.21 1.5.46.32.46-.55 1.55 1.15.29-.39-1.5-1.13.43-.55-.48-.35zm-3.14 16.89l.02 1.91h.59v-.74h1.92v-.48h-1.95v-.69h-.58zm0-3.67l.02 1.91h.59v-.74h1.92v-.48h-1.95v-.69h-.58zm.05 9.61l.03 1.91h.58v-.73h1.93v-.49h-1.95v-.69h-.59zm19.77 11.98l1.35-1.4-.43-.4-.52.55-1.4-1.27-.35.35 1.42 1.28-.5.5.43.4zm-14.47-33.4l-1.67-1.78.44-.34 1.63 1.76-.4.36zm2.43-1.57l-.8-2.27.55-.15.77 2.25-.52.17zm16.01 15.15h-2.46v-.52h2.45v.52zm-.26 13.85l-2.42-.4.1-.52 2.42.4-.1.52zm-2.02 4.19l-2-1.38.32-.43 2 1.38-.32.43zm2.27-12.92v.53h-2v1.1h-.45v-1.63h2.45zm-.04 5.96l-.02.52-2-.1-.05 1.1-.47-.03.1-1.62 2.44.12zM22.2 11.88l-1.4-1.92.53-.3 1.05 1.6.9-.57.26.35-1.34.84zm3.93-3.86l-1.75.27.1.44 1.03-.13-.95 1.6.1.46 1.86-.24v-.5l-1.2.12.91-1.58-.1-.44zm7.4.98c.4.34.32.64.24.75-.16.15-.41-.1-.41-.1s-.16-.3-.33-.44c-.22-.17-.72-.03-.2.44h.01c.33.3.63.55.63.88 0 .24-.32.7-.8.69a1.53 1.53 0 01-1.1-.61c-.1-.15-.16-.47.13-.57.21-.06.25.21.48.5.26.19.47.2.66.07.18-.14-.2-.43-.4-.57-.59-.52-.41-.9-.26-1.13.14-.21.86-.35 1.35.08zM16.16 30.6c.25-.46.58-.47.71-.42.19.1 0 .41 0 .41s-.26.22-.35.42c-.12.24.15.67.48.06.21-.38.4-.72.73-.8.24-.07.79.1.89.55.1.45-.12.96-.33 1.18-.13.13-.44.27-.6.03-.12-.18.15-.28.37-.57.13-.3.1-.5-.1-.63-.18-.14-.38.28-.46.51-.38.68-.8.62-1.07.53-.25-.08-.58-.7-.27-1.28zm23.72 3.66c-.12.5-.44.58-.58.56-.2-.06-.1-.4-.1-.4s.2-.27.24-.48c.05-.27-.32-.63-.5.04V34c-.1.41-.2.79-.5.95-.21.11-.79.07-1-.34-.21-.41-.12-.96.03-1.22.09-.15.35-.36.57-.17.17.15-.07.31-.21.64-.06.32.03.5.24.6.22.09.3-.37.33-.61.2-.75.63-.78.9-.76.27.01.74.55.58 1.18z"/><path fill-rule="evenodd" d="M36.01 13.68v.5h.47v-.5h.4v-.49h-.25v-.3c.51.22 1.24-.34.75-.95-.44-.57-1.06-.07-1.26.21-.74-.32-1.04.2-1.08.47 0 .85.62 1.08.97 1.06zm.24-.82c0 .17-.15.31-.33.31a.32.32 0 01-.33-.31c0-.18.15-.32.33-.32.18 0 .33.14.33.32zm.64-.32a.2.2 0 00.21-.2.2.2 0 00-.2-.2.2.2 0 00-.22.2c0 .1.1.2.21.2zM18.65 28.32l-2.49-.8v-.6l2.49-.96v.56l-.6.28v.71l.6.25v.56zm-1.79-1.13l.75-.33v.6l-.75-.27zM18.65 38l-2.49-.8v-.6l2.49-.96v.56l-.6.28v.71l.6.25V38zm-1.79-1.13l.75-.33v.59l-.75-.26zm3.26 5.53l-2.6.23-.25-.54 1.86-1.85.24.51-.43.5.3.64h.65l.23.5zm-2.1-.34l.55-.6.24.55-.8.05zm19.44-11.14l2.48-.8v-.6l-2.48-.96v.56l.6.28v.72l-.6.24v.56zm1.79-1.13l-.76-.33v.6l.76-.27z"/><path d="M39.97 27.45c0 .77-.7 1-.97 1.02v-.49c.3-.1.42-.3.42-.53 0-.23-.23-.52-.8-.52-.49 0-.79.24-.8.57 0 .27.25.43.39.48v.49c-.78-.1-.98-.68-.95-.97.06-.97.88-1.08 1.37-1.08.48 0 1.34.27 1.34 1.03zm-.17-10.83c.18.74-.45 1.11-.7 1.2l-.12-.48c.27-.16.34-.38.29-.6-.05-.23-.35-.46-.9-.34-.48.1-.72.4-.65.72.05.26.33.37.48.39l.12.47c-.79.08-1.12-.45-1.15-.74-.16-.96.61-1.24 1.08-1.35.48-.1 1.38-.02 1.55.73zm-2.4 1.87h2.48v.53h-.93v.8h.93v.56h-2.47v-.57h1.03v-.79h-1.03v-.53zM39.86 23h-2.48v.44h1.57l-1.57.44v.43l1.57.43h-1.57v.47h2.48v-.8l-1.34-.32 1.34-.44v-.66zm-.52 17.86l-2.3-.91-.17.42 1.44.57-1.62-.17-.17.4 1.28.97-1.45-.57-.18.43 2.29.9.31-.73-1.1-.8 1.4.1.27-.61zm-19.61 2.11L18.4 44.1l.41.43.92-.8c.17-.15.52-.47.73-.33.22.14.01.42-.11.55l.33.3c.16-.07.63-.65.17-1.15a.83.83 0 00-1.12-.12zm1.45 1.48l-1.13 1.33.48.35.75-.94c.28-.35.55-.5.76-.36.16.1.24.36-.1.75 0 0-.66.87-.72.97l.45.32 1.05-1.34c.34-.5-.16-.97-.31-1.08-.46-.35-1.07-.21-1.23 0zm2.96 3.42a1.13 1.13 0 01-1.27-.98h.5c.13.46.57.53.77.5.32-.04.62-.35.64-.77.02-.51-.29-.74-.64-.79-.28-.03-.45.19-.5.3l.56.23-.18.35-.97-.35c-.06-.4.31-1.12 1.09-1.03 1.01.11 1.22.91 1.2 1.3-.02.38-.29 1.17-1.2 1.24z"/><ellipse cx="27.8" cy="46.86" rx="1.19" ry="1.14"/><path fill-rule="evenodd" d="M31.8 45.41l.84 2.22c-.6.36-1.93.74-2.34-.33-.54-1.42 1.3-1.89 1.5-1.89zm-.29.71l.46 1.13c-.3.19-.96.39-1.16-.17-.27-.75.6-.96.7-.96z"/><path d="M28 12a8 8 0 00-8 8v16a8 8 0 1016 0V25h-9v5h4v6a3 3 0 11-6 0V20a3 3 0 116 0v3h5v-3a8 8 0 00-8-8z" fill="#fff"/></svg>