<svg xmlns="http://www.w3.org/2000/svg" width="56" height="56"><path fill="#FCBA29" d="M0 0h56v56H0z"/><path d="M19.96 16h20.4c1.52 0 3.36.64 4.83 1.81A7.17 7.17 0 0148 23.5a7.12 7.12 0 01-2.84 5.83 8.25 8.25 0 01-4.8 1.67H37v7a2 2 0 01-4 0V27h7.35c.62 0 1.6-.25 2.39-.85A3.12 3.12 0 0044 23.5c0-1.1-.52-1.93-1.3-2.56a4.24 4.24 0 00-2.35-.94H20.04A8.01 8.01 0 0012 28c0 1.62.5 3.67 1.72 5.25C14.87 34.77 16.78 36 20 36c2.47 0 4.07-.9 5.11-2.04a7.32 7.32 0 001.6-2.96h-8.84a2 2 0 110-4H28a2.92 2.92 0 012.93 3.22 11.58 11.58 0 01-2.87 6.45C26.25 38.64 23.57 40 20 40c-4.43 0-7.52-1.8-9.45-4.3A12.9 12.9 0 018 28c0-5.45 4.05-11.72 11.93-12h.04z"/></svg>