<svg width="56" height="56" viewBox="0 0 56 56" xmlns="http://www.w3.org/2000/svg"><path fill="#F0F3FA" d="M0 0h56v56H0z"/><path d="M36.11 20.33c-5.71-1.28-10.16.57-13.34 5.55-.29.45-.44.4-.46-.13-.07-1.98.27-3.9 1.02-5.75 2.03-5 5.67-7.32 10.92-6.96a7.8 7.8 0 0 1 5.77 2.85c1.17 1.44 1.16 2.64-.04 3.6-.5.4-1.1.67-1.83.82a4.8 4.8 0 0 1-2.04.02Z" fill="#891D78"/><path d="M22.18 29.59c.07.2 0 .27-.2.18-.33-.15-.8-.54-1.38-1.15a12.01 12.01 0 0 1-3.34-6.66c-.62-4.06.92-6.82 4.6-8.3a4.56 4.56 0 0 1 2.93-.1c.24.07.43.2.55.42.12.22.15.45.08.69-.08.29-.26.6-.54.91-3.45 3.94-4.35 8.61-2.7 14Z" fill="#252075"/><path d="M21.78 31.16c1.13.8 2.42 1.5 3.85 2.1.4.17.38.27-.04.32-3.52.42-6.57-.15-9.16-1.7a9.49 9.49 0 0 1-2.97-2.62A8 8 0 0 1 12.01 25c-.09-1.67.3-3.08 1.2-4.21.5-.66 1.1-.78 1.77-.36.29.19.54.6.75 1.22a28.05 28.05 0 0 0 2.25 5.32c1 1.7 2.27 3.1 3.8 4.18Z" fill="#2F63A4"/><path d="M41.67 33.75c-3.01-3.43-6.93-4.65-11.75-3.65-.33.07-.38-.02-.15-.26a11.26 11.26 0 0 1 4.1-2.84 8 8 0 0 1 4.86-.48c1.23.29 2.24.94 3.02 1.94.78 1 1.2 2.16 1.25 3.5.02.68-.07 1.23-.26 1.65a.61.61 0 0 1-.5.36.62.62 0 0 1-.57-.22Z" fill="#DA241C"/><path d="m33.43 41.89.44-.84c.8-1.5 1.26-2.66 1.38-3.47a9.7 9.7 0 0 0-.83-6.19c-.18-.33-.09-.45.28-.33 1.17.37 2.3.92 3.35 1.65a5.88 5.88 0 0 1 2.5 3.46 4.44 4.44 0 0 1-.96 4.07 5.36 5.36 0 0 1-2.74 1.74c-1.05.31-2.14.38-3.27.2-.19-.03-.23-.13-.15-.3Z" fill="#F6B900"/><path d="M15.13 32.52a13.86 13.86 0 0 0 7.47 2.38c2.2.08 4.86-.24 7.96-.97.47-.1.54.01.2.36a13.22 13.22 0 0 1-7.06 4.04 12 12 0 0 1-6.61-.29 6.95 6.95 0 0 1-4.36-4.5c-.2-.61-.23-1.23-.08-1.85.04-.18.14-.3.3-.36a.5.5 0 0 1 .48.04l1.7 1.15Z" fill="#4AAF32"/><path d="M23.68 39.5c4.17-.79 7.3-2.83 9.41-6.14.35-.54.56-.5.63.15.23 1.88 0 3.57-.67 5.08a8.13 8.13 0 0 1-3.47 3.77c-.7.4-1.72.62-3.07.63-1.8.02-2.85 0-3.16-.08a9.14 9.14 0 0 1-3.77-1.84.54.54 0 0 1-.19-.6.53.53 0 0 1 .49-.42c1.4-.15 2.67-.34 3.8-.55Z" fill="#DDE700"/></svg>