<svg width="56" height="56" viewBox="0 0 56 56" xmlns="http://www.w3.org/2000/svg"><path fill="#F0F3FA" d="M0 0h56v56H0z"/><path d="M27.14 21.31c-.87.38-1.68.86-2.43 1.44a6.86 6.86 0 0 1-3.86 1.5l7.66-12.16c.06-.1.14-.12.24-.03.65.63 1.1 1.34 1.32 2.16.24.86.2 1.7-.12 2.5-.3.78-1.24 2.3-2.8 4.6Z" fill="#F3AE00"/><path d="M14.87 27.96c0 .83.23 1.62.7 2.37 3.92 6.29 6.66 10.66 8.21 13.12.05.08.03.1-.06.08A16.34 16.34 0 0 1 13.7 35.2a15.35 15.35 0 0 1-1.7-7.25c0-2.66.58-5.07 1.72-7.24a16.33 16.33 0 0 1 10.04-8.3c.1-.02.11 0 .06.08-1.56 2.46-4.3 6.82-8.24 13.1-.48.75-.71 1.54-.71 2.36Z" fill="#E66F15"/><path d="M31.74 28.13a4.45 4.45 0 0 0-1.04 2.59c0 .73-.06 1.49-.18 2.28a15.06 15.06 0 0 1-2.23-3.7 3.94 3.94 0 0 1-.08-2.23c.12-.52.43-1.17.93-1.96 2.3-3.63 4.6-7.25 6.9-10.84.1-.15.22-.16.34-.02.48.58.86 1.18 1.12 1.8.32.77.4 1.44.25 2.02-.24.88-.61 1.7-1.13 2.47l-4.73 7.22a.49.49 0 0 0-.07.18.4.4 0 0 1-.08.19Z" fill="#91C81F"/><path d="M43.3 23.2a4.72 4.72 0 0 0-.43 2c-.02 1.1-.05 1.76-.1 2a20.33 20.33 0 0 1-2.23 6.33c-.18.32-.4.44-.69.36a72.26 72.26 0 0 1-2.09-3.36 4.91 4.91 0 0 1-.8-3.12c.09-.65.42-1.41 1-2.29.36-.56 1.5-2.34 3.4-5.35.14-.22.27-.21.4 0a16.39 16.39 0 0 1 1.54 3.43Z" fill="#2F6EAD"/><path d="m27.14 21.31-4.25 6.76a5.02 5.02 0 0 0-.99 2.35 21.52 21.52 0 0 1-.31 2.5l-1.2-1.87a7.78 7.78 0 0 1-.97-1.98c-.24-.89-.19-1.76.14-2.62.26-.66.69-1.4 1.3-2.2a6.86 6.86 0 0 0 3.85-1.5c.75-.58 1.56-1.06 2.43-1.44Z" fill="#EF9B11"/><path d="M43.3 23.2c1.33 4.73.77 9.14-1.68 13.21a.15.15 0 0 1-.14.08.15.15 0 0 1-.14-.08l-1.49-2.52c.28.08.51-.04.69-.36 1.13-2.1 1.88-4.2 2.24-6.34.04-.23.07-.9.09-2 0-.76.15-1.42.43-2Z" fill="#005CA1"/><path d="M21.59 32.91c.08-.34.19-1.17.31-2.49.07-.72.4-1.5.99-2.35 2.18 3.48 4.33 6.95 6.44 10.42.64 1.03.95 2 .94 2.89a2.98 2.98 0 0 1-1.43 2.54c-.21.14-.38.1-.52-.12L21.6 32.91Z" fill="#E9811A"/><path d="M31.74 28.13c2.63 4.1 4.48 7.08 5.57 8.93.2.36.36.78.44 1.27.11.64 0 1.28-.33 1.95-.3.6-.72 1.1-1.28 1.54-.08.06-.14.05-.2-.03l-5.42-8.8c.12-.78.18-1.54.18-2.27.01-.81.36-1.67 1.04-2.59Z" fill="#00A161"/></svg>