<svg width="56" height="56" viewBox="0 0 56 56" xmlns="http://www.w3.org/2000/svg"><path fill="#F0F3FA" d="M0 0h56v56H0z"/><path d="M22 17H12v20h10V17Zm-2 10.86V29h-2.5v-.7c0-.32 0-.57-.3-.57h-.33c-.33 0-.37.3-.37.66v5.32c0 .36.04.66.37.66h.33a.6.6 0 0 0 .55-.4v-2.25h-.77v-1.65H20V36h-1.57l-.33-.88c-.3.53-.83.88-1.45.88h-.94c-.95 0-1.71-.83-1.71-1.86v-6.28c0-1.03.76-1.86 1.7-1.86h2.56c.94 0 1.74.83 1.74 1.86ZM12 38h32v2H12z" fill="#0172B6"/><path d="M33 17H23v20h10V17Zm-8.5 9h7v2h-2v8h-3v-8h-2v-2Z" fill="#ED9438"/><path fill-rule="evenodd" d="M44 17H34v20h10V17Zm-7 19h5v-1.87h-2V26h-3v10Z" fill="#D9271B"/></svg>