<svg width="56" height="56" viewBox="0 0 56 56" xmlns="http://www.w3.org/2000/svg"><path fill="#F0F3FA" d="M0 0h56v56H0z"/><path fill="#0071B7" d="M12 38h32v2H12z"/><path d="M44 16h-9v20h9V16Zm-7 9h2v8h3v2h-5V25Z" fill="#DA251C"/><path fill-rule="evenodd" d="M21 16h-9v20h9V16Zm-3 12h2v-1c0-1.1-.97-2-2.16-2h-2.68c-1.2 0-2.16.9-2.16 2v6.51c0 .82.72 1.49 1.6 1.49h1.77c.36-.03 1.13-.24 1.43-.87l.46.87H20v-6h-3v2h1v1.21c0 .44-.2.79-1.5.79s-1.5-.35-1.5-.79v-4.43c0-.43.5-.78 1.5-.78s1.5.35 1.5.78V28Z" fill="#0071B7"/><path d="M33 16H23v20h10V16Zm-8 9h6v2h-2v8h-2v-8h-2v-2Z" fill="#ED9438"/></svg>