<svg xmlns="http://www.w3.org/2000/svg" width="56" height="56" viewBox="0 0 56 56"><path fill="#F0F3FA" d="M0 0h56v56H0z"/><path d="M19.76 28.78c0-8.27 6.52-15.97 9.78-18.78l-4.8.66C21.17 13.66 14 21.5 14 28.78c0 7.28 6.4 13.85 9.6 16.22h9.5c2.3-2.21 6.9-7.4 6.9-10.43 0-3.02-3.34-6-5.05-7.54l-.03-.03h-5.38c1.8 1.42 5.38 4.3 5.38 7.57 0 3.26-4.29 7.93-6.43 9.86-2.91-1.77-8.73-7.38-8.73-15.65z" fill="url(#ayydwmlrl)"/><circle cx="32" cy="21" r="4" fill="url(#byydwmlrl)"/><path d="M35.96 20.46c-.2-.1-.45-.24-.7-.43-.6-.44-1.11.63-1.3 1.23-.13-.37-.55-1.14-1.17-1.23-.63-.09-1.08 1.11-1.23 1.72-.2.7-.7 2.05-1.17 1.91-.48-.14-.7-.96-.75-1.35A2.87 2.87 0 0 0 28 20.68c.03-.3.09-.6.18-.9.88-.8 2.17-.48 2.82-.15l-1.02-1.14c.6-.43 2.42-.84 3.76-1.09a4 4 0 0 1 2.21 3.06z" fill="url(#cyydwmlrl)"/><path d="M27.4 15.11c.64-.87 2.42-2.61 4.4-2.61 1.96 0 3.88 1.74 4.6 2.61-.82-.52-2.87-1.55-4.6-1.55-1.75 0-3.67 1.03-4.4 1.55zm1.21 1.39c.47-.63 1.75-1.88 3.17-1.88s2.8 1.25 3.31 1.88a7.17 7.17 0 0 0-3.31-1.12c-1.26 0-2.64.75-3.17 1.12z" fill="#003F8F"/><defs><linearGradient id="ayydwmlrl" x1="35.76" y1="17.12" x2="15.37" y2="31.87" gradientUnits="userSpaceOnUse"><stop offset=".29" stop-color="#D9530D"/><stop offset=".51" stop-color="#EFAE20"/><stop offset=".8" stop-color="#E26B2B"/></linearGradient><linearGradient id="byydwmlrl" x1="28.35" y1="24.46" x2="35.41" y2="19.09" gradientUnits="userSpaceOnUse"><stop stop-color="#0170AC"/><stop offset="1" stop-color="#00398C"/></linearGradient><linearGradient id="cyydwmlrl" x1="28.01" y1="22.92" x2="35.96" y2="19.06" gradientUnits="userSpaceOnUse"><stop stop-color="#FF0"/><stop offset="1" stop-color="#C8DD1A"/></linearGradient></defs></svg>