<svg width="56" height="56" xmlns="http://www.w3.org/2000/svg"><path fill="#F0F3FA" d="M0 0h56v56H0z"/><path d="M23.304 12.713c.018 1.402-.323 4.581-1.847 6.454C19.531 21.535 18 24.825 18 28.195s1.199 6.761 5 8.094v-4.392c0-.83.313-2.371 2.043-2.371 1.814 0 1.957 1.526 1.957 2.18v12.276c-8.37-.517-15-7.469-15-15.97 0-7.202 4.759-13.293 11.304-15.3zm9.617.07c.17 3.462 1.236 5.59 1.884 6.384 2.84 3.488 3.245 7.377 3.195 9.028.03 5.465-3.199 7.673-5 8.094v-4.837c0-.738-.521-1.927-2.002-1.927-1.481 0-1.998 1.335-1.998 1.927v12.53c8.37-.517 15-7.469 15-15.97 0-7.12-4.65-13.153-11.08-15.229z" fill="#4BB033"/><path d="M23.445 22.927c-.064 1.618 1.062 3.39 1.633 4.073-.08-.503.026-1.861 1.08-3.264 1.053-1.403 1.351-2.868 1.369-3.426 2.76-.021 3.274 4.091 3.186 6.15 4.299-5.416.088-11.23-2.554-13.46-.148 2.072-1.642 4.244-2.37 5.071-.755.944-2.281 3.237-2.344 4.856z" fill="#00A3D1"/><path d="M29.872 25.429c.03-2.064-1.07-3.332-1.625-3.707 0 1.547-2.066 3.324-2.025 4.853.041 1.53 1.266 2.013 1.873 1.892.606-.121 1.739-.459 1.777-3.038z" fill="#E77817"/></svg>