<svg xmlns="http://www.w3.org/2000/svg" width="56" height="56"><path fill="#F0F3FA" d="M0 0h56v56H0z"/><path d="M14.64 17.48A17.07 17.07 0 0128 11a16.91 16.91 0 0113.36 6.48l-.79.62A16.08 16.08 0 0028 12a15.91 15.91 0 00-12.57 6.1 15.97 15.97 0 00-2.24 3.82l-.35.1c-.85.26-1.94.58-2.19 1.48A17.5 17.5 0 0010 28c0 1.5.26 3 .64 4.46.27.94 1.4 1.28 2.3 1.55l.26.08a15.97 15.97 0 005.66 7.05A15.91 15.91 0 0028 44c3.29 0 6.45-.99 9.14-2.86l.57.82A16.9 16.9 0 0128 45a16.91 16.91 0 01-13.35-6.47 16.98 16.98 0 01-2.19-3.61 8.17 8.17 0 01-1.22-.47c-.59-.3-1.3-.8-1.56-1.71v-.03A18.5 18.5 0 019 28c0-1.63.28-3.23.69-4.75.25-.94.99-1.45 1.58-1.73.39-.18.83-.32 1.19-.43.57-1.28 1.3-2.5 2.18-3.6zm25.93 20.43a16.07 16.07 0 01-3.43 3.23l.57.82a17.07 17.07 0 005.83-7.04c.37-.12.83-.26 1.23-.46.6-.3 1.33-.8 1.6-1.72v-.03c.4-1.52.63-3.1.63-4.71 0-1.59-.18-3.29-.67-4.87a2.17 2.17 0 00-.7-1 4.26 4.26 0 00-.88-.55c-.4-.2-.84-.35-1.2-.47-.58-1.3-1.31-2.51-2.2-3.63l-.78.62a15.97 15.97 0 012.24 3.82l.03.01c.84.26 2.29.72 2.53 1.5.45 1.46.63 3.05.63 4.57 0 1.5-.22 3-.6 4.46-.27.93-1.4 1.27-2.3 1.54l-.3.1a15.97 15.97 0 01-2.23 3.8z" fill="#05278A"/><path d="M14.34 22.16A14.85 14.85 0 0128 13c6.15 0 11.43 3.78 13.68 9.16A84.68 84.68 0 0028 21.12c-5.02 0-9.7.38-13.67 1.04zM28 34.88c-5.02 0-9.7-.38-13.67-1.05A14.85 14.85 0 0028 43c6.15 0 11.43-3.78 13.68-9.17A84.68 84.68 0 0128 34.88z" fill="#F96302"/><path d="M20 25.83S18.63 25 17.29 25c-.73 0-3.29.16-3.29 3.12S16.79 31 16.79 31c1.27-.06 1.21-.3 1.21-.3V29h-2v-2h5v6h-3v-.52s-.58.52-2.06.52S11 32.23 11 27.83c0-3.17 2.83-4.83 5.23-4.83 2.6 0 3.77.94 3.77.94v1.89zM33 24v9h3v-9h-3zm9 9v-3.5h1v-2h-1v-1.02c0-.62.55-.45.55-.45.5.12.95.45.95.45v-1.7s-.84-.8-2.93-.8C39 23.98 39 25.24 39 25.24v2.26h-1v2h1V33h3zm-19-6v3.94c0 .36 0 2.06 2.82 2.06 0 0 .91 0 2.18-.56V33h3v-6h-3v3.78s-2 .81-2-.65V27h-3z" fill="#05278A"/></svg>