<svg width="56" height="56" viewBox="0 0 56 56" xmlns="http://www.w3.org/2000/svg"><path fill="#F0F3FA" d="M0 0h56v56H0z"/><path d="M16.22 28.63C17.5 24 24.68 17.68 28 14l3 3-9.54 10.04A5.65 5.65 0 0 0 20 31a8 8 0 1 0 14.36-4.86L29.5 31H24l10-10.5c3.56 2.08 6 6.08 6 10.5a12 12 0 1 1-23.78-2.37Z" fill="#2F6EB5"/><path d="M20 19.15c-8.88 9.6-5.1 17.9-2.11 20.85-10.57-6.25-8.28-17.9-5.82-22.93A11.4 11.4 0 0 1 20 19.15ZM36 19.15c8.88 9.6 5.1 17.9 2.11 20.85 10.57-6.25 8.28-17.9 5.82-22.93A11.4 11.4 0 0 0 36 19.15Z" fill="#009FE3"/></svg>