<svg width="56" height="56" viewBox="0 0 56 56" xmlns="http://www.w3.org/2000/svg"><path fill="#F0F3FA" d="M0 0h56v56H0z"/><path fill="#FD0" d="M15 16h26v26H15z"/><path d="M14.84 27.63c.35.57.6 1.47 1.46 2.78 1.46 2.23 4.52 4.83 7.34 5.47.01.9-1.68 4.8-1.9 6.12H34.3l-1.97-6.02c.23-.17 1.17-.46 1.5-.61 1.5-.64 2.82-1.63 3.9-2.6 1.08-.98 2.1-2.33 2.77-3.68.22-.43.49-1.16.7-1.46.27-.46 1.98-.47 2.8-.91a8.43 8.43 0 0 0-.38-2.69c-.68 0-1.67.45-2.4.54-1.43.6-2.74.36-3.05 1.08-.14.33-.2.57-.35.92A10.56 10.56 0 0 1 28 33a10.74 10.74 0 0 1-9.82-6.5c-.46-1.07-.06-1.06-1.27-1.37-.64-.16-1.56-.34-2.1-.56L12.4 24c-.21.75-.38 1.88-.39 2.76.46.1 1 .24 1.47.37.6.15 1.21.2 1.37.5Z" fill="#50B848"/><path d="M23.02 25.41a5 5 0 1 0 4.58-5.4 5.03 5.03 0 0 0-4.58 5.4ZM27 18h2v-7h-2v7ZM21.95 20.95l1.41-1.41-4.95-4.95L17 16l4.95 4.95ZM34.05 20.95l-1.41-1.41 4.95-4.95L39 16l-4.95 4.95Z" fill="#50B848"/></svg>