<svg width="56" height="56" viewBox="0 0 56 56" xmlns="http://www.w3.org/2000/svg"><path fill="#F0F3FA" d="M0 0h56v56H0z"/><path d="M20 37.9c0-7.4 15.33-16.35 23-19.9-12.27 7-18 13.48-18 18.69 0 5.2 5.22 8.92 8 10.31-5.17-1-13-4.11-13-9.1Z" fill="#303F99"/><path d="M19 33.58C19 25.92 34.33 16.67 42 13c-12.27 7.24-18 13.94-18 19.33 0 5.4 5.22 9.23 8 10.67-5.17-1.04-13-4.26-13-9.42Z" fill="#00AB4E"/><path d="M18 29.19C18 21.68 33.42 12.6 41.12 9 28.8 16.1 23 22.74 23 28.03c0 5.29 5.2 8.56 8 9.97-5.2-1.02-13-3.75-13-8.81Z" fill="#DB2128"/></svg>