<svg xmlns="http://www.w3.org/2000/svg" width="56" height="56"><path fill="#F0F3FA" d="M0 0h56v56H0z"/><path d="M5 30l2.4-7h2.26l-1.03 2.8c.29-.26.58-.45.86-.58.29-.13.58-.22.88-.22.5 0 .84.18 1.03.47.2.3.2.7.02 1.2L10.32 30h-2.3l.78-2.4c.09-.24.12-.4.1-.48-.02-.08-.09-.12-.2-.12a.5.5 0 00-.36.15c-.1.1-.2.24-.26.44L7.29 30H5zm9.07-2.46c-.06.2-.07.35 0 .47.07.11.19.17.36.17.18 0 .34-.05.5-.17.14-.12.25-.28.32-.47.07-.2.07-.36 0-.48-.06-.12-.18-.18-.36-.18a.77.77 0 00-.49.18c-.15.12-.26.28-.33.48zm.44 2.46l.25-.86c-.34.3-.65.51-.95.65-.3.14-.6.21-.9.21-.54 0-.91-.22-1.12-.67-.2-.45-.17-1.03.07-1.74a4.7 4.7 0 011.18-1.91 2.4 2.4 0 011.61-.68c.3 0 .54.06.73.18.2.13.35.31.46.57l.2-.75h2.14l-1.63 5H14.5zm3.2 0l1.08-3h-.72l.65-2h.65l.4-1h2.28l-.4 1h.66l-.65 2h-.58l-1.09 3h-2.28zm3.59 0l2.4-7h2.26l-1.02 2.77c.3-.26.58-.46.87-.59.28-.12.57-.18.87-.18.5 0 .85.14 1.04.43.19.3.2.7.01 1.2L26.61 30h-2.3l.8-2.4c.09-.23.12-.38.1-.47-.02-.08-.08-.13-.2-.13a.51.51 0 00-.36.16c-.1.1-.19.25-.26.44l-.8 2.4h-2.3zm7.3 0l-.25-5h2.41l-.37 2.8 1.53-2.8h1.5l-.32 2.8 1.49-2.8H37l-3.63 5h-1.8l.19-2.3-1.31 2.3h-1.86z" fill="#19468A"/><path d="M46.37 29.68L45.26 31h-3.42c-.7.37-1.5.75-2.42.75-.91 0-1.75-.33-2.44-.75H4.63L4 33h42.3l5.7-8h-2.36l-1.54 2.75.2-2.75h-2.52l.59 4.68z" fill="#19468A"/><path d="M36.78 26.44c-2.99 5.5 2.67 6.8 6.05 4.43l.02-.01-.28-.78h-.01c-2.49 1.55-5.97 1.18-5.47-1.6a5.55 5.55 0 012.86-3.8c4.67-2.27 5.94 1.61 2.91 3.86-.39.28-.42-.01-.43-.07l.96-3.08h-1.75l-.17.53c-.2-.48-.5-.66-.95-.66-.88 0-1.78.83-2.21 2.17-.42 1.3 0 2.12.84 2.12.48 0 .95-.24 1.47-.75-.37 1.05.62 1.22 1.08 1.13a4.72 4.72 0 003.77-5.01c-.33-2.51-5.67-3.08-8.69 1.52zm3.3.94c.1-.35.37-.58.65-.58s.39.23.28.58c-.11.35-.37.58-.65.58s-.4-.23-.29-.58z" fill="#CE000C"/></svg>