<svg xmlns="http://www.w3.org/2000/svg" width="56" height="56"><path fill="#5C6771" d="M0 0h56v56H0z"/><path d="M8 20a3 3 0 013 3v3h6v-6a3 3 0 013 3v10a3 3 0 01-3 3v-7h-6v4a3 3 0 01-3 3V20zm14 15.73l5.86-14.57c.2-.48.86-1.2 1.8-1.16a1.9 1.9 0 011.7 1.16l3.35 8.57a6.31 6.31 0 00-3.34-.83l-1.7-4.4-4.2 10.28c-.4.74-1.25 1.7-3.47.95zm7.64-6.35c1.48-.14 4.96.09 5.56 1.6L37 35.7c-.87.33-2.8.54-3.55-1.3l-.36-.9c-.74-1.9-1.34-3.44-3.45-4.12zM41 36v-5.63c.68.24 2.24.7 3.62.63 1.66-.08 5.38-1.14 5.38-5.52 0-4.54-4.5-5.46-6.33-5.44-1.82.02-5.67.5-5.67 3.7v10.3c.01.66.88 1.96 3 1.96zm0-7.9v-4.02c0-.55.53-1.66 2.75-1.66 2.68 0 3.27 1.93 3.25 3.18-.02 1.25-.57 3.17-2.9 3.17-1.1 0-2.67-.37-3.1-.66z" fill="#fff"/></svg>