<svg width="56" height="56" xmlns="http://www.w3.org/2000/svg"><path fill="#F61B29" d="M0 0h56v56H0z"/><path d="M40.745 17.61c2.08 2.952 3.235 6.612 3.253 10.303H44v.088c0 3.675-1.128 7.334-3.175 10.3-1.654 2.393-3.803 4.241-6.295 5.438-.159.076-.319.147-.48.218-.197.051-.398.06-.597.01-.582-.14-.994-.7-1.132-1.423a50.355 50.355 0 01-.05-.628v-.003a87.225 87.225 0 01-.11-1.725l-.01-.212-.01-.21-.002-.065c-.026-.55-.059-1.268-.092-1.525-.167-1.276-.836-2.475-1.887-3.378-.993-.854-2.266-1.372-3.492-1.419a147.83 147.83 0 01-4.604-.246 111.351 111.351 0 01-3.563-.303 4.221 4.221 0 00-.441-.025 2.53 2.53 0 00-.693.089c-.823.222-1.44.825-1.74 1.699-.13.384-.193.772-.193 1.187 0 .529.104 1.036.212 1.51.175.773.426 1.753.802 2.69C13.602 36.803 12 32.567 12 28.086v-.339a18.411 18.411 0 011.704-7.395 17.35 17.35 0 013.146-4.618c-.377.856-.643 1.743-.835 2.449-.104.385-.224.895-.224 1.427 0 .412.069.788.21 1.15.317.815.986 1.357 1.835 1.487.122.019.25.028.39.028.208 0 .409-.021.602-.042l.084-.009a102.42 102.42 0 013.397-.296c1.413-.1 2.894-.182 4.403-.243 2.212-.09 4.763-1.749 5.204-4.368.049-.297.077-1.053.096-1.566v-.023l.005-.128a90.435 90.435 0 01.076-1.47 3.006 3.006 0 01.041-.605c.136-.785.58-1.391 1.203-1.52.167-.034.825.151 1.02.23 2.523 1.16 4.705 2.987 6.388 5.375zm-22.518 3.97a1.95 1.95 0 01-.293-.02 1.636 1.636 0 01-1.312-1.061 2.404 2.404 0 01-.161-.89c0-.449.106-.898.2-1.239.503-1.858 1.08-3.162 1.763-3.99.13-.158.263-.294.394-.405l.041-.03.043-.034.005-.004c.252-.19.495-.281.73-.282.562 0 1.158.53 1.682 1.495.546 1.001 1.018 2.46 1.37 4.22.118.594.22 1.2.308 1.846l-.25.017-.484.034c-.822.059-1.582.12-2.324.189-.364.035-.73.07-1.093.108l-.085.009c-.186.02-.361.038-.534.038zm.96 20.595h-.002c-.244 0-.494-.101-.743-.3l-.008-.008-.018-.014-.017-.014-.017-.015-.006-.004-.005-.004a3.063 3.063 0 01-.402-.433c-.68-.883-1.23-2.275-1.678-4.252-.098-.434-.194-.897-.194-1.351a2.9 2.9 0 01.157-.956c.222-.65.675-1.098 1.275-1.26.163-.044.333-.065.525-.065.115 0 .232.007.373.021a121.71 121.71 0 003.587.305l.59.04.297.02a33.45 33.45 0 01-.416 2.285c-.399 1.82-.919 3.34-1.501 4.394-.566 1.023-1.22 1.611-1.797 1.611z" fill="#fff"/></svg>