<svg width="56" height="56" viewBox="0 0 56 56" xmlns="http://www.w3.org/2000/svg"><path fill="#722A40" d="M0 0h56v56H0z"/><path d="M6 21v3h1v7H6v3h7v-3h-1v-2h3v2h-1v3h7v-3h-1v-7h1v-3h-7v3h1v2h-3v-2h1v-3H6Zm18 3h-1v-3h11.28c1.86 0 3.37 1.5 3.37 3.35 0 .68-.49 2.18-2.32 2.74.89.36 2.67 1.52 2.67 3.18A3.74 3.74 0 0 1 34.25 34H23v-3h1v-7Zm5 0v3h2.04c.8 0 1.46-.67 1.46-1.5s-.66-1.5-1.46-1.5H29Zm0 4v3h2.04c.8 0 1.46-.67 1.46-1.5s-.66-1.5-1.46-1.5H29Zm10-7h7v3h-1v7h3v-2h3v5H39v-3h1v-7h-1v-3Z" fill="#fff"/></svg>