<svg xmlns="http://www.w3.org/2000/svg" width="56" height="56" viewBox="0 0 56 56"><path fill="#F0F3FA" d="M0 0h56v56H0z"/><path d="M47.87 22h-9.05c-1.27.01-1.78 1.22-1.82 2.35v7.25c.01 1.1.5 2.35 1.76 2.4h9.52c.35 0 .67 0 .72-.42v-3.06c-.02-.38-.25-.52-.6-.52h-6.28c-.63 0-1.08-.5-1.12-1.05v-1.91A1.1 1.1 0 0 1 42.13 26h6.32c.25 0 .55-.16.55-.47V22.5c0-.52-.43-.5-.84-.49h-.29zm-24.05 0h9.34c.4-.01.85-.03.84.5v3.03c0 .3-.3.47-.55.47h-6.32c-.64 0-1.1.45-1.13 1.04v1.91c.04.56.49 1.05 1.12 1.05h6.28c.35 0 .58.14.6.52v3.06c-.05.41-.37.42-.72.42h-9.52c-1.26-.05-1.75-1.3-1.76-2.4v-7.25c.04-1.13.55-2.34 1.82-2.35zM7.55 22h2.97c.44.03.47.27.48.67V26h4v-3.5c0-.38.19-.5.53-.5h2.97c.4.01.48.19.5.55v10.9c0 .36-.13.53-.5.55h-2.97c-.3 0-.54-.15-.53-.49V30h-4v3.58c0 .28-.22.43-.5.42H7.5c-.31.01-.5-.18-.49-.49v-5.24L9.95 26H7v-3.56c0-.36.24-.44.55-.44z" fill="#0D5E8B"/></svg>