<svg width="56" height="56" xmlns="http://www.w3.org/2000/svg"><path fill="#006CB7" d="M0 0h56v56H0z"/><path d="M27.696 25.447c2.43-.559 4.94-.55 7.394-.214 1.015.15 2.07.304 2.965.918.522.346.926 1.141.945 1.849h-5c-.5-.669-1.33-.962-2.065-1-1.897-.073-4.075.496-4.52 2.612-.138 1.306 1.743 1.352 2.587 1.388 1.094-.012 2.264-.075 2.998-1 1.692-.007 3.308-.009 5 0-.583.747-1.345 1.533-2.152 1.896-1.011.455-2.085.695-3.159.859-1.191.162-2.39.262-3.59.242-1.623-.01-3.265-.13-4.83-.651-.722-.258-1.45-.654-1.922-1.358-.392-.558-.447-1.368-.19-2.012.334-.847.986-1.46 1.67-1.92 1.196-.789 2.521-1.292 3.869-1.609zM7 25h5l-1.117 3h4.987L17 25h5l-3 8h-5l1.13-3h-4.996L9 33H4l3-8zm35 0h5l-2.198 6H52l-1 1.996H39L42 25z" fill="#fff"/></svg>