<svg xmlns="http://www.w3.org/2000/svg" width="56" height="56"><path fill="#F0F3FA" d="M0 0h56v56H0z"/><path d="M15.89 33.79V20.2L28 13.4V9l-16 9.01V36l3.89-2.2z" fill="#fff"/><path d="M14.25 22.85l4.85-2.64 9.18-2.8 7.95 4.29s5.18 4.94 5.07 5.44c-.12.5.9 6.76.9 6.76l-14.26 8.96-11.04-6s-3.66-4.56-3.38-5.05c.34-.6.73-8.96.73-8.96z" fill="#fff"/><path d="M16 33.79v-13.3l12-6.86V9l-16 9.24V36l4-2.2zm24 0V20.47l-12-6.84V9l16 9.01V36l-4-2.2z" fill="#fff"/><path d="M16 20.4v13.43l12 6.55V45l-16-8.79V18.24l4 2.15z" fill="#2390BF"/><path d="M40 20.48v13.25l-12 6.7V45l16-8.78V18.28l-4 2.2z" fill="#6EB6DC"/><path d="M28 27.04V35l-7-3.96v-7.85l7 3.85z" fill="#288DB9"/><path d="M28 27.04V35l7-3.96v-7.82l-7 3.82z" fill="#3AA8D7"/><path d="M28 13.64V19l-7 4.2v7.84l-5 2.75V20.37l12-6.73z" fill="#6EB6DC"/><path d="M28 13.62V19l7 4.2v7.84l5 2.75V20.46l-12-6.84z" fill="#2390BF"/></svg>