<svg width="56" height="56" viewBox="0 0 56 56" xmlns="http://www.w3.org/2000/svg"><path fill="#A6A3A3" d="M0 0h56v56H0z"/><path fill-rule="evenodd" d="M36.82 25c.12-1.03-.3-3-2.93-3-.96-.04-2.89.46-2.89 2.78-.01.62.27 2.08 1.5 2.98 1.54 1.13 2.5 2.16 2.5 3.12 0 .97-.36 1.34-1 1.34-.65 0-1-.33-1-.79v-1.1l-2 .35c-.05 1.11.47 3.32 3 3.32 2.63 0 3.09-2.21 2.99-3.32 0-.1-.3-2.27-1.91-3.33-1.6-1.07-2.08-1.64-2.08-2.57 0-.92.5-1.26.89-1.26.38 0 1.11.1 1.11 1.48h1.82ZM4 22h2v5h2v-5h2v12H8v-5H6v5H4V22Zm7.43 0H11v12h5v-2h-3v-3h2.5v-2H13v-3h3v-2h-4.57Zm7.17 12h-2.1l2.3-12h2.42l2.28 12h-2.04l-.31-2h-2.24l-.3 2Zm1.42-9.28.82 5.28h-1.62l.8-5.28ZM27.15 22H24v12h3.15A2.79 2.79 0 0 0 30 31.28v-6.56c0-1.5-1.27-2.72-2.85-2.72Zm-.33 2H26v8h.82c.65 0 1.18-.5 1.18-1.12v-5.76c0-.62-.53-1.12-1.18-1.12ZM41 22h-2v9.22c0 1.54 1.3 2.78 2.9 2.78h.2c1.6 0 2.9-1.24 2.9-2.78V22h-2v8.96c0 .57-.45 1.04-1 1.04s-1-.47-1-1.04V22Zm5 0v12h2v-5h1.12c1.6 0 2.88-1.18 2.88-2.68v-1.6A2.8 2.8 0 0 0 49.12 22H46Zm2 2h.96c.57 0 1.04.42 1.04.93v1.14c0 .51-.47.93-1.04.93H48v-3Z" fill="#DBDBDB"/></svg>