<svg width="56" height="56" viewBox="0 0 56 56" xmlns="http://www.w3.org/2000/svg"><path fill="#F0F3FA" d="M0 0h56v56H0z"/><path fill-rule="evenodd" d="M4 23v8h1v-4h3v4h1v-8H8v3H5v-3H4Zm7 5.5h3.98c.1-1.07 0-3.5-2.39-3.5-2.16 0-2.62 1.93-2.59 3-.02.93.52 3 2.84 3 .4-.03 1.3-.14 1.83-.42l-.3-1.04-.04.03c-.21.12-.72.43-1.49.43-1.03 0-1.84-.53-1.84-1.5Zm.07-.98h2.89c-.04-.5-.36-1.52-1.37-1.52-1 0-1.43 1.02-1.52 1.52Zm28.43.98h3.98c.1-1.07 0-3.5-2.4-3.5-2.15 0-2.62 1.93-2.58 3-.02.93.52 3 2.84 3 .39-.03 1.3-.14 1.82-.42l-.3-1.04-.04.03c-.2.12-.72.43-1.48.43-1.03 0-1.84-.53-1.84-1.5Zm.07-.98h2.89c-.04-.5-.37-1.52-1.38-1.52-1 0-1.43 1.02-1.51 1.52Zm12.4.98H48c0 .97.8 1.5 1.83 1.5.77 0 1.28-.3 1.49-.43l.04-.03.3 1.04c-.52.28-1.44.4-1.83.42-2.31 0-2.85-2.07-2.83-3-.03-1.07.43-3 2.59-3 2.38 0 2.49 2.43 2.38 3.5Zm-1.02-.98h-2.88c.09-.5.5-1.52 1.51-1.52s1.34 1.02 1.37 1.52ZM17 31h-1v-6h1v1.13l.01-.03c.13-.39.38-1.1 1.37-1.1 1.01 0 1.36.75 1.4 1.13.2-.38.78-1.13 1.57-1.13 1 0 1.65.85 1.65 1.7V31h-1v-4.07c-.05-.36-.14-.93-.86-.93-.71 0-1.05.57-1.14.93V31h-1v-4.07c-.08-.36-.28-.93-.96-.93-.68 0-.91.8-1.04 1.28V31Zm30-6h-.17c-1.21 0-1.67.52-1.83.9V25h-1v6h1v-3.72c.16-.48.62-1.44 1.43-1.44.22 0 .4.05.57.14V25Zm-18.68.35-.36 1.01c-.12-.11-.5-.34-1.02-.34-.65 0-.93.25-.93.47 0 .23.13.58.93.97l.14.06c.74.36 1.41.69 1.41 1.79 0 1.17-1.2 1.69-2.07 1.69-.62 0-1.1-.4-1.33-.58a5.28 5.28 0 0 0-.06-.05l.24-.81c.16.15.64.46 1.23.46.75 0 1.07-.17 1.07-.71 0-.43-.92-.97-1.38-1.18-.36-.14-1.19-.67-1.19-1.7 0-1.27 1.6-1.43 2.09-1.43.39 0 .98.23 1.23.35ZM29 25h1v.5c.36-.31.79-.5 1.25-.5 1.24 0 2.25 1.34 2.25 3s-1 3-2.25 3c-.46 0-.9-.19-1.25-.5V33h-1v-8Zm3.5 3c0 1.1-.56 2-1.25 2S30 29.1 30 28s.56-2 1.25-2 1.25.9 1.25 2Zm2.5-5h-1v8h1v-4.1c.16-.37.48-.9 1.11-.9.8 0 .89.54.89 1.12V31h1v-4.1c-.08-.62-.52-1.9-1.7-1.9-.3 0-.83.22-1.3 1v-3Z" fill="#5986B0"/><path d="M24.26 22.5h.98c-.09.19-.21.55-.33 1.09H24c.1-.47.18-.85.25-1.09Zm-.47 2.53c-.09.76-.15 1.6-.15 2.48 0 .99.12 1.94.28 2.77h.88c-.16-.75-.27-1.67-.27-2.77 0-.96.06-1.78.14-2.48h-.88Zm1.43 6.69h-.95l.26.8h1.1a3.54 3.54 0 0 1-.41-.8Z" fill="#838383"/></svg>