<svg xmlns="http://www.w3.org/2000/svg" width="56" height="56" viewBox="0 0 56 56"><path fill="#F0F3FA" d="M0 0h56v56H0z"/><path fill-rule="evenodd" d="M28 11.22l-15 8.4v16.76l15 8.4 15-8.4V19.62l-15-8.4zM44 19l-16-9-16 9v18l16 9 16-9V19z"/><path fill-rule="evenodd" d="M20.22 35.14l3.17-17.94L25 26.37a4.2 4.2 0 0 1 2.86-.96c1.38 0 2.56.5 3.09 1.22l1.67-9.43 3.16 17.94a3.22 3.22 0 1 1-6.33 0l1.14-6.45c-.62.5-1.61.83-2.73.83-.94 0-1.8-.23-2.4-.61l1.1 6.23a3.22 3.22 0 1 1-6.34 0zM30.88 27l-.17 1h-1.22c-.26.34-.77.57-1.36.57-.85 0-1.55-.5-1.55-1.1 0-.62.7-1.11 1.55-1.11.63 0 1.16.26 1.41.64h1.34z" fill="#1D8835"/></svg>