<svg width="56" height="56" viewBox="0 0 56 56" xmlns="http://www.w3.org/2000/svg"><path fill="#FC0" d="M0 0h56v56H0z"/><path fill-rule="evenodd" d="M25.5 26.54c.01.1-.04.17-.13.2-1.2.3-2.44.7-3.73 1.18-.92.35-1.58.71-1.98 1.1-.95.9-1.27 2.29-.9 3.58a138 138 0 0 1 2.49 10.32c.1.48-.81 1.05-1.15 1.23a.72.72 0 0 1-.49.08L18.25 44a.54.54 0 0 0-.33.05.29.29 0 0 0-.14.17.3.3 0 0 0 .02.22l.32.52c.03.04-.01.1-.06.1H16.1c-.05 0-.1.04-.11.1v.75c0 .04.04.08.08.08l23.81.01c.07 0 .1-.04.11-.1v-.73c0-.08-.03-.12-.1-.12h-1.16c-.04 0-.07.01-.1-.01a.14.14 0 0 1-.04-.1l-.08-1.04a3.2 3.2 0 0 0-.38-1.1l-2.24-4.44a19.68 19.68 0 0 0-.99-1.85c-.44-.59-1.04-1-1.78-1.22-.66-.2-.36-1.29-.1-1.67 1.38-2.09 2.83-4.23 4.34-6.41a43.22 43.22 0 0 0 2.21-3.5c.5-.92.55-1.84.14-2.76a40.45 40.45 0 0 0-5.03-8.27c-.29-.36-.7-.7-1.24-1A13.05 13.05 0 0 0 28.26 10a.71.71 0 0 0-.6.21 14.34 14.34 0 0 0-2.62 3.76.96.96 0 0 0-.1.48l.57 12.1Zm6-1.82a84.5 84.5 0 0 0-2.5-5.51c-.02-.05-.06-.06-.1-.03-.24.15-.37.34-.38.58a6869.32 6869.32 0 0 0-.3 6.12.07.07 0 0 0 .04.03h.03l3.03-.82a.27.27 0 0 0 .18-.14.27.27 0 0 0 0-.23Zm1.74 20.17c-.1-.21-.33-.5-.26-.71.02-.08.08-.08.16-.08h1.78c.19 0 .44-.06.57-.18.38-.34.62-.73.23-1.2-1.7-2.07-3.6-4-5.67-5.71a3.13 3.13 0 0 1-1.2-2.12c-.07-.44 0-.99.21-1.66a48.74 48.74 0 0 1 .87-2.6.09.09 0 0 0-.06-.08h-.05l-1.88.35a.19.19 0 0 0-.15.18l-.13 2.51c0 .07.02.12.05.17.32.42.55.79.62 1.33.12.89.15 1.86.1 2.91-.04 1-.46 1.7-1.24 2.1a.24.24 0 0 0-.13.2l.03 1.3a.13.13 0 0 0 .09.11c1 .31 1.35 1.49 1.34 2.48v.7c0 .09.03.16.11.16h4.55l.04-.04a.08.08 0 0 0 .04-.07l-.01-.04-.01-.01Zm-7.64-3.16c-.73.16-1.19.76-1.2 1.53-.02.6-.03 1.06-.03 1.67a.1.1 0 0 1-.03.07c-.02.02 0 .05-.03.05h-.68c-.06 0-.09-.03-.09-.08-.08-2.85-.16-5.49-.22-8.24-.03-1.47-.25-2.71-1.22-3.8-.35-.4.13-.85.5-.97a13.09 13.09 0 0 1 2.96-.54c.03.01.06.03.07.06a.2.2 0 0 1 .03.19l-.18.37c-.24.52-.5 1.07-.33 1.63.02.06 0 .11-.05.15-.86.62-.86 1.79-.86 2.76v.3c-.01.8.06 1.51.22 2.16.15.61.52.98 1.1 1.1a.2.2 0 0 1 .11.08.2.2 0 0 1 .05.13v1.23c0 .03-.01.07-.03.1a.15.15 0 0 1-.09.05Zm.17-3.21c.01-.4.16-.66.43-.78.32-.13.83.08.79.51 0 .07.02.13.07.19.09.07.13.05.13-.06.02-.86.01-1.7-.01-2.56a2.39 2.39 0 0 0-.2-.87.14.14 0 0 0-.1-.05c-.03 0-.04 0-.06.02a1 1 0 0 1-.85 0 .2.2 0 0 0-.22.03.2.2 0 0 0-.04.06c-.07.15-.1.3-.1.48-.02 1.05-.02 2.04-.01 2.97 0 .05.03.08.08.09h.05c.02 0 .04 0 .04-.03Zm.4 5.63c.57.2.76-.21.93-.66.08-.21.14-.2.19.02.1.49.13.86.08 1.44 0 .07-.03.1-.1.1h-1.6c-.07 0-.1-.03-.1-.1v-1.42c0-.18.05-.2.13-.03l.07.15c.08.21.18.43.4.5Z" fill="#2D3270"/></svg>