<svg xmlns="http://www.w3.org/2000/svg" width="56" height="56"><path fill="#F0F3FA" d="M0 0h56v56H0z"/><path d="M45.6 18.02a4.5 4.5 0 00-5.14.48c7.55 2.63 9.51 7.2 9.56 9.16-.17 7.51-11.06 10.69-16.49 11.34C45.48 37.94 52 32.72 52 27.17c0-3.85-3.48-7.57-6.4-9.15zM10.4 37.98a4.5 4.5 0 005.14-.48C8 34.87 6.03 30.3 5.98 28.34 6.15 20.83 17.04 17.65 22.47 17 10.52 18.06 4 23.28 4 28.83c0 3.85 3.48 7.57 6.4 9.15z" fill="#EA2734"/><path fill-rule="evenodd" d="M49 28c0 6.08-9.4 11-21 11S7 34.08 7 28c0-6.07 9.4-11 21-11s21 4.93 21 11zm-34.7-4h-3.09l-.11.41h.8l-1.5 6.14h-.64L9.6 31h2.87l.18-.45h-.75l.7-2.82h2.49l-.79 2.82h-.55l-.15.45h2.93l.14-.45h-.83l1.65-6.14h.61l.2-.41h-3.05l-.1.41h.83l-.83 2.9h-2.5l.83-2.9h.69l.13-.41zm5.06 6.34a1.61 1.61 0 001.23-.71c.4-.09.32.2.23.37-.47.86-1.46 1.03-1.9 1-1.48-.06-1.73-1.3-1.67-1.9.25-2.5 2.05-3.16 2.83-3.1.46.04 1.37.31 1.33 1.16-.05 1.06-.82 1.35-1.83 1.46-.8.1-.98.71-.97 1-.02.26.1.75.75.72zm.87-3.18a1.2 1.2 0 01-1.34 1.15l.56-1.42c.13-.36.9-.75.78.27zm25.35 2.47a1.6 1.6 0 01-1.23.71c-.64.03-.77-.46-.75-.71-.01-.3.17-.92.97-1 1-.12 1.78-.4 1.83-1.47.04-.85-.87-1.12-1.32-1.15-.79-.07-2.59.58-2.84 3.09-.06.6.19 1.84 1.68 1.9.43.03 1.42-.14 1.9-1 .08-.16.16-.46-.24-.37zm-1.7-1.32a1.2 1.2 0 001.35-1.15c.1-1.02-.66-.63-.8-.27-.07.22-.4 1.04-.55 1.42zm-22.33 2.7l.83-2.88c.05-.21.02-.62-.53-.55.1-.18.4-.53.89-.5.48.04.73.55.8.8.22-.61.9-1.84 1.85-1.88.25.02.72.18.74.79.02.61-.47.79-.74.79a.92.92 0 01-.73-.5c-.16-.35-.56.38-.74.8l-1 3.12h-1.37zm1.91-3.94c-.03-.36-.28-1.18-.74-.83-.4.3.27.64.74.83zm4.77-.64a3 3 0 01-1.48.4l-.69 2.68c-.16.47-.18 1.43 1.04 1.49.45 0 1.02-.32 1.3-.92.02-.1 0-.28-.25-.12-.1.07-.2.14-.28.22-.14.13-.27.24-.47.24-.3 0-.2-.54-.1-.79.08-.2.66-2.21.93-3.2zm.17-.8a.72.72 0 11-1.44 0 .72.72 0 011.44 0zm3.28-.63c-.11.1-.55.34-1.4.46l-.34 1.1h-.82l-.11.36h.93l-.74 2.48c-.2.5-.08 1.6 1.18 1.6.24 0 .8-.16 1.14-.8.05-.13.06-.35-.24-.2-.15.09-.25.18-.33.25-.13.12-.23.21-.44.2-.36 0-.15-.83 0-1.4v-.02l.66-2.11h.9l.17-.35h-.96l.4-1.57zm5.21 1.03c-.1 0-.3.03-.38.17-.1.18-.8.48-1.32 0-.53-.48-2.48-.22-2.92 2.3-.32 1.89.63 2.5 1.41 2.5.35 0 .8-.19 1.06-.94.12.31.53.94 1.25.94.44 0 .88-.45 1.2-.94.03-.13-.05-.45-.3-.2l-.15.19c-.14.19-.3.39-.49.34-.26-.07-.28-.3-.16-1.14.05-.36.24-1.05.42-1.73.16-.56.3-1.12.38-1.5zm-3.05 4.38c.34.1.84-.68 1.12-1.76.28-1.08.24-2.04-.1-2.15-.33-.1-.83.69-1.1 1.77-.29 1.08-.25 2.04.08 2.14zm7.89-4.22c.08-.13.28-.16.38-.16-.17.77-.8 3-.8 3l-.75 2.49C40 33 38.61 33 38.16 33c-.23 0-1.49-.27-1.49-.94 0-.45.29-.66.61-.66.49 0 .57.45.64.78.03.17.05.31.13.32 1.4.2 1.46-1.6 1.41-1.73 0 0-.3.23-.65.23-.78 0-1.65-.9-1.32-2.66.44-2.36 2.39-2.6 2.91-2.15.52.45 1.23.16 1.33 0zm-1.64 2.42c-.28 1-.78 1.75-1.12 1.65-.33-.1-.37-1-.09-2 .28-1.01.78-1.75 1.12-1.65.33.1.37 1 .09 2z" fill="#259821"/></svg>