<svg width="56" height="56" viewBox="0 0 56 56" xmlns="http://www.w3.org/2000/svg"><path fill="#F0F3FA" d="M0 0h56v56H0z"/><path fill-rule="evenodd" d="m39 41 5-8.5-5-8.5H29l-5 8.5 5 8.5h10Zm-1-2 4-6.5-4-6.5h-8l-4 6.5 4 6.5h8Z" fill="#224595"/><path fill-rule="evenodd" d="m27 41 5-8.5-5-8.5H17l-5 8.5 5 8.5h10Zm-1-2 4-6.5-4-6.5h-8l-4 6.5 4 6.5h8Z" fill="#1D1D1B"/><path fill-rule="evenodd" d="m32.76 30 4.92-8.5-4.92-8.5h-9.84L18 21.5l4.92 8.5h9.84ZM32 28l4-6.5-4-6.5h-8l-4 6.5 4 6.5h8Z" fill="#E4550F"/></svg>