<svg xmlns="http://www.w3.org/2000/svg" width="56" height="56"><path d="M0 28a28 28 0 1156 0 28 28 0 01-56 0z" fill="#F0F3FA"/><path d="M26.42 11.61c1.21 1 2.84 2.4 4.56 3.6 1.8 1.26 3.73 2.27 5.98 2.3 3.27.04 2.54-1.76-.37-3.14 2.6 2.37-.44 2.31-2.53 1.52-2.26-.87-5.42-2.8-7.64-4.28z" fill="#818284"/><path d="M41.26 22.87c1.65-1.09.69-2.68-.61-3.45.91 1.7-.41 2.29-2 2.44-3.9.39-9.5-2.47-12.55-4.58-2.1-1.45-3.78-3.24-5.6-5.1 1.61 2.11 3.1 4 4.68 5.4 3.52 3.15 11.82 7.92 16.08 5.3z" fill="#818284"/><path d="M33.75 28.77c-8.15-2.2-15.9-9.03-17.87-15.45 3.3 5.6 10.41 11.47 18.1 13.45 1.84.48 10.6 2.26 9.27-1.76 4.43 5.63-5.82 4.75-9.5 3.76z" fill="#818284"/><path d="M34.06 35.35c6.84 1.37 10.34-.53 9.27-4.6-.54 2.92-3.03 3-5.6 3-8.54.11-19.44-7.43-24.42-14.4 2.3 5.82 12.2 14.3 20.75 16z" fill="#818284"/><path d="M12.08 26.7c11.8 16.08 29.15 17.38 29.15 9.97-2.88 4.04-8.29 2.54-12.45 1.12-6.56-2.23-13.36-7.29-16.7-11.1zm1.07 7.58c7.28 11.8 16.4 11.8 18.84 9.42-2.58.35-4.76.13-6.97-.63-4.67-1.62-8.77-5-11.87-8.8z" fill="#818284"/><path fill="#0268B9" d="M19 19h9v10h-9z"/><path d="M22.95 19.65c.33.27.77.65 1.23.97.48.34 1 .61 1.6.62.89.01.64-.54.08-.82.3.61-.5.48-1.28.14-.54-.24-1.16-.6-1.63-.9z" fill="#F0F3FA"/><path d="M26.86 21.64c.1.2.14.5-.16.65-1.11.57-2.84-.5-3.79-1.17-.56-.38-1.06-.81-1.55-1.31a10 10 0 001.29 1.4c.94.84 2.98 2.2 4.27 1.43.44-.3.17-.76-.06-1z" fill="#F0F3FA"/><path d="M26.32 23.94c-2.54-.03-4.98-2.03-6.2-3.83.94 2.18 3.63 4.48 6.28 4.4.78-.02 1.5-.32 1.15-1.26-.12.6-.72.7-1.23.7z" fill="#F0F3FA"/><path d="M25.02 26c1.84.38 2.68-.37 2.53-1.22-.39.62-.85.76-1.53.76-2.3.03-5.06-1.95-6.44-3.82.62 1.46 3.14 3.83 5.44 4.29z" fill="#F0F3FA"/><path d="M19.2 23.64c1.55 1.76 5.74 4.59 7.73 2.75-.3 1.84-4.51 1.69-7.73-2.75zm.23 2.06c1.78 3.07 4.21 2.99 4.98 2.53a4.78 4.78 0 01-2.76-.59c-1-.56-1.78-1.4-2.22-1.94z" fill="#F0F3FA"/><path d="M19.23 32.39V30h.44v.91h.85V30h.44v2.39h-.44v-1.07h-.85v1.07h-.44zM21.82 30h1.53v.42h-1.09v.55h.95v.42h-.95v1h-.44V30zm2.16 1.21c0-.41.1-.73.3-.96.18-.2.4-.3.67-.3.36 0 .63.14.8.4a1 1 0 01.15.45h-.45a.7.7 0 00-.12-.26.44.44 0 00-.36-.16c-.17 0-.3.07-.39.22-.1.15-.14.35-.14.62a1 1 0 00.15.6c.1.14.23.2.38.2.16 0 .28-.05.36-.17a.78.78 0 00.12-.28h.44a1.1 1.1 0 01-.3.64.83.83 0 01-.61.24.89.89 0 01-.74-.33 1.42 1.42 0 01-.26-.9zM26.66 30h.45v1.96h1.07v.43h-1.52V30zm4.45-.02c.12 0 .23.02.34.06l.2.05c.04 0 .07 0 .09-.03a.23.23 0 00.04-.08h.07l.02.73h-.07a1.4 1.4 0 00-.19-.37.57.57 0 00-.46-.22c-.19 0-.36.08-.5.25-.15.17-.22.45-.22.84 0 .32.07.57.21.75a.67.67 0 00.67.26.69.69 0 00.27-.1c.02-.03.03-.06.03-.1v-.55c0-.14-.02-.22-.05-.25-.03-.04-.1-.06-.21-.06v-.07h.76v.07a.27.27 0 00-.15.04c-.04.04-.06.11-.06.22v.69c0 .04-.09.1-.26.16-.17.07-.34.1-.5.1-.29 0-.53-.1-.74-.3a1.18 1.18 0 01-.33-.87c0-.33.09-.6.27-.84.2-.25.45-.38.77-.38zm2.07 1.15c.22 0 .37-.03.47-.08.16-.07.24-.21.24-.42 0-.2-.08-.34-.22-.42a.66.66 0 00-.3-.06c-.09 0-.14.01-.16.03-.02.01-.03.04-.03.1v.85zm-.56 1.13c.12-.01.19-.04.22-.08s.04-.13.04-.27V30.4c0-.12-.02-.2-.05-.24-.03-.04-.1-.06-.2-.07v-.07h.82c.18 0 .32.03.43.08.22.1.33.27.33.53 0 .17-.05.3-.14.4-.1.1-.23.15-.4.18l.62.88c.04.06.07.1.11.12.04.03.09.04.15.05v.06h-.48l-.72-1.07-.17.01v.69c0 .13.02.2.05.24.04.04.11.06.23.07v.06h-.84v-.06zm2.82-1.09c0 .37.06.64.18.82.13.17.28.26.46.26s.33-.09.45-.26c.13-.17.2-.44.2-.82 0-.38-.07-.65-.2-.82-.12-.17-.27-.25-.45-.25s-.33.09-.46.26c-.12.18-.18.45-.18.81zm-.34 0c0-.37.1-.67.3-.89.18-.2.41-.3.68-.3.27 0 .5.1.68.3.2.22.3.52.3.9 0 .37-.1.67-.3.9-.2.2-.42.3-.68.3a.88.88 0 01-.7-.34 1.3 1.3 0 01-.28-.87zm3.39-1.15v.07c-.12 0-.2.03-.23.06-.03.04-.05.12-.05.25v1.11c0 .18.03.33.07.43.08.18.23.28.45.28.25 0 .41-.1.5-.29.04-.1.07-.27.07-.5v-.9c0-.19-.02-.3-.06-.35-.04-.05-.11-.08-.22-.1v-.06h.7v.07c-.13.01-.2.04-.24.1-.03.04-.05.16-.05.34v.9c0 .25-.03.44-.1.57-.11.25-.34.37-.66.37-.33 0-.55-.12-.67-.36a1.2 1.2 0 01-.1-.52v-1.1c0-.12 0-.2-.04-.23-.04-.04-.1-.06-.22-.07v-.07h.85zm2.99.63c0-.2-.08-.36-.23-.43a.71.71 0 00-.33-.07c-.06 0-.1 0-.11.02l-.02.1v.9a3.45 3.45 0 00.15.02c.14 0 .25-.03.33-.07.14-.09.21-.24.21-.47zm-1.25 1.61c.12-.01.19-.04.22-.08s.04-.13.04-.27V30.4c0-.12-.02-.2-.05-.24-.03-.04-.1-.06-.2-.07v-.07h.78c.26 0 .45.06.59.17.13.12.2.27.2.46 0 .23-.08.4-.22.51a.94.94 0 01-.57.16 6.03 6.03 0 01-.23 0v.63c0 .13.02.21.05.24.03.04.11.06.23.07v.06h-.84v-.06z" fill="#1A1A18"/></svg>