<svg xmlns="http://www.w3.org/2000/svg" width="56" height="56" viewBox="0 0 56 56"><path fill="#F0F3FA" d="M0 0h56v56H0z"/><path fill-rule="evenodd" d="M28 44.5c9.22 0 16.5-7.28 16.5-16.5 0-9.22-7.28-16.5-16.5-16.5-9.22 0-16.5 7.28-16.5 16.5 0 9.22 7.28 16.5 16.5 16.5zm0 .5a17 17 0 1 0 0-34 17 17 0 0 0 0 34z" fill="#2A2C8A"/><path fill-rule="evenodd" d="M32.38 25h-1.6L23 29.1v2.45l.67-.47.34.45-.68.47H30v-1.34c0-2.3 3-4.66 3-4.66l-.26-.56-.47.32-.34-.45.45-.31zm-1.71 1.2l.85-.6.33.45-.85.6-.33-.45zm-.42.29l-.92.64.33.45.93-.64-.34-.45zm-1 1.38l-.34-.45-.88.61.34.46.88-.62zm-2.5 1.07l.87-.61.33.45-.87.6-.34-.44zm-.43.29l-.9.63.34.45.9-.63-.34-.45zm-2.23 1.56l.91-.64.34.45-.92.64-.33-.45z" fill="#2A2C8A"/><circle cx="41.25" cy="31.75" r="1.25" fill="#2A2C8A"/><path d="M21.83 19l-.53.41V20h13.93c-.37-.36-.76-.7-1.18-1H21.83zm-2.09 2c-.2.25-.38.5-.56.76V22h17.66c-.21-.35-.45-.68-.7-1h-16.4zm-1.27 2c-.16.32-.3.66-.43 1h19.8c-.13-.34-.28-.68-.44-1H18.47zM23 25h-5.29c-.09.33-.16.66-.22 1H23v-1zm10 1v-1h5.16c.1.33.17.66.23 1H33zm-10 1h-5.64c-.03.33-.05.66-.05 1H23v-1zm10 1v-1h5.52c.03.33.04.66.04 1H33zm-10 1h-5.57v.66l.06.34H23v-1zm10 1v-1h5.52c-.03.34-.07.67-.13 1H33zm-10 1h-5.29c.1.34.2.67.33 1H23v-1zm10 1h4.72l.12-1H33v1zm-14.53 1c.17.34.36.68.56 1h17.81c.2-.32.4-.66.56-1H18.47zm1.27 2c.28.35.58.69.9 1h14.59c.32-.31.62-.65.9-1H19.74zm2.09 2c.52.38 1.08.72 1.68 1h8.86c.6-.28 1.15-.62 1.68-1H21.83zm6.1-20c-1.58 0-3.09.36-4.44 1h8.9c-1.36-.64-2.87-1-4.45-1z" fill="#C8A65F"/><path fill-rule="evenodd" d="M28 38.3c5.84 0 10.3-4.46 10.3-10.3 0-5.84-4.46-10.3-10.3-10.3-5.84 0-10.3 4.46-10.3 10.3 0 5.84 4.46 10.3 10.3 10.3zm0 .7a11 11 0 1 0 0-22 11 11 0 0 0 0 22z" fill="#2A2C8A"/><path fill-rule="evenodd" d="M28.53 13l-.27 2.68 2.06.2.05-.45-1.51-.15.07-.73 1.35.14.05-.45-1.36-.14.06-.6 1.46.15.05-.45-2.01-.2zm-1.35 2.68l-.6.1-.33-.56-1.07.19-.12.64-.5.09-.6.25-.59-.4c-.13-.1-.27-.18-.42-.25a.42.42 0 0 0-.2-.04.9.9 0 0 0-.26.07l-.1.04.43 1.04-.51.21-1.04-2.5 1.07-.43a2 2 0 0 1 .62-.17c.14 0 .27.04.39.12.12.09.21.2.27.35.08.16.09.35.03.53a.86.86 0 0 1-.4.43c.12.02.24.05.35.1.16.08.32.18.46.29l.44.3.56-2.77.57-.1 1.55 2.47zM26 14.81l-.55-.92-.18 1.04.73-.12zm-3.4.45l-.38.15-.26-.62.4-.17.37-.14a.35.35 0 0 1 .23.02c.07.04.12.1.15.17s.04.14.03.21a.3.3 0 0 1-.1.16 2.1 2.1 0 0 1-.45.22zm-2.15 3l-1.51-2.23L20.49 15l.26.38-1.1.72.36.53.95-.62.25.38-.94.62.64.96-.46.3zm-3.83-.09l1.92 1.9.36-.35-1.25-1.24 2.03.47.38-.4-1.92-1.9-.36.36 1.28 1.28-2.07-.5-.37.38zm1.35 2.73l-2.2-1.6.33-.44 2.2 1.6-.33.44zm-1.5 1.5l.47.24.23-.46-.46-.23-.24.46zm-1.09 1.42l-.43-.14.37-1.11 1.03.33a1.8 1.8 0 0 1 .04 1.23c-.08.24-.21.46-.4.64-.18.16-.4.26-.64.3-.24.02-.5 0-.73-.08a1.56 1.56 0 0 1-.67-.4c-.17-.17-.28-.4-.32-.64-.03-.22 0-.45.07-.66.1-.32.25-.54.45-.68s.43-.2.67-.17l-.07.54a.58.58 0 0 0-.37.11c-.11.08-.2.2-.23.34a.74.74 0 0 0 .04.6c.1.19.3.32.58.41.3.1.56.1.75.02a.72.72 0 0 0 .4-.46.94.94 0 0 0 .05-.34c0-.11-.03-.22-.06-.33l-.33-.1-.2.59zm-.07 2.4l.52.07.08-.51-.52-.08-.08.51zM13 28.98l2.72.01v-.54l-1.2-.01.02-1.07h1.18v-.53L13 26.83v.55h1.08l-.01 1.07H13v.54zm17.68-13.03l.82-2.57.5.16.52 2.05.55-1.72.49.15-.82 2.57-.53-.16-.51-2-.54 1.67-.48-.15zm4.32.2l-.23.4.54.3-.17.3a1.18 1.18 0 0 1-.67-.12.71.71 0 0 1-.37-.49c-.04-.2.02-.45.18-.73.15-.25.32-.41.53-.47a.75.75 0 0 1 .6.1.56.56 0 0 1 .31.68l.52.17a.94.94 0 0 0-.02-.68c-.09-.22-.28-.4-.57-.58a1.4 1.4 0 0 0-.63-.2 1.2 1.2 0 0 0-.7.16c-.23.14-.41.33-.54.56-.13.21-.2.45-.23.7-.02.24.03.47.15.68.14.22.33.4.56.52a1.82 1.82 0 0 0 1.21.22l.55-.93-1.02-.59zm2.2 2.22l.32-.33.86.8-.74.78a1.81 1.81 0 0 1-1.13-.49c-.2-.17-.35-.39-.43-.63a1.12 1.12 0 0 1 0-.7c.09-.23.22-.44.39-.62.18-.2.4-.34.65-.43.23-.07.49-.08.72 0 .22.06.41.18.57.33.24.23.39.46.43.7.04.23 0 .47-.14.67l-.46-.3a.57.57 0 0 0 .06-.37.64.64 0 0 0-.21-.36.74.74 0 0 0-.57-.22c-.21.01-.42.13-.62.34-.22.23-.34.46-.35.67a.7.7 0 0 0 .25.56 1.18 1.18 0 0 0 .63.27l.23-.25-.46-.42zm.82 1.57l-.41.32.31.4.41-.3-.31-.42zm.75 1.98l2.44-1.14.24.5-2.03.94.58 1.22-.41.2-.82-1.72zm3.28 1.64l-2.17.62.15.52 2.17-.62.23.77.44-.12-.6-2.07-.44.13.22.77zm.95 2.11v1.03c0 .35-.07.71-.33.95-.14.12-.3.2-.48.26-.23.07-.46.08-.7.07-.21 0-.42-.01-.63-.07-.2-.06-.37-.17-.52-.3a1.4 1.4 0 0 1-.35-.9v-1.06l3.01.02zm-.51.56l-1.96-.02v.42c0 .12 0 .23.03.34.02.09.07.17.13.23.08.08.17.13.28.15.18.05.36.07.54.07.18 0 .36-.02.53-.06.1-.03.2-.08.28-.16a.51.51 0 0 0 .14-.26c.03-.15.04-.3.03-.46v-.25zm-1.66 2.25h-.55V29h.52l.03-.51z" fill="#2A2C8A"/><circle cx="14.75" cy="31.75" r="1.25" fill="#2A2C8A"/><path d="M16.36 34.99l-1.03 1.29.2.27 1.12-.44-.75.94.2.27 1.48-.62-.2-.26-1 .46.7-.87-.22-.3-1.03.4.72-.82-.2-.32zm1.35 1.82l-1.13 1.09.83.86.19-.19-.6-.63.3-.3.54.57.19-.18-.54-.57.24-.24.59.61.19-.18-.8-.84zm.6 2.75l.91-1.26.38.28-.4 1.03.86-.7.38.29-.92 1.26-.24-.18.73-1-.98.81-.24-.17.48-1.18-.73 1-.24-.18zm2.57 1.7l.3.16.22-1.67-.3-.16-1.28 1.06.29.17.28-.25.55.3-.06.38zm.2-1.28l-.1.62-.37-.21.46-.4zm.44 1.6l.6-1.45.28.12-.26.64.85-.4.4.16-.78.34.2 1.12-.37-.15-.12-.85-.33.15-.18.43-.3-.12zm2.07-.87l-.45 1.5 1.14.34.07-.25-.83-.25.12-.4.75.22.08-.26-.75-.22.1-.33.8.24.08-.25-1.11-.34zm1.86 2.08l.2-1.56.5.07c.12.01.25.03.37.07.08.03.15.1.2.18.05.1.07.2.05.31 0 .09-.04.17-.08.24a.43.43 0 0 1-.33.18l-.32-.01-.2-.03-.08.59-.3-.04zm.48-1.25l-.06.44.17.02c.08.01.17.02.25 0a.22.22 0 0 0 .11-.06.21.21 0 0 0 .05-.11c0-.05 0-.1-.03-.15a.21.21 0 0 0-.12-.09 1.36 1.36 0 0 0-.22-.04l-.15-.01zm1.19-.16v1.6h1.17v-.25l-.87-.01v-.44l.79.01v-.27l-.78-.01v-.36l.84.01v-.27l-1.15-.01zm1.47.83a1 1 0 0 1 .03-.4.73.73 0 0 1 .13-.23.6.6 0 0 1 .18-.16c.1-.06.22-.09.33-.1a.73.73 0 0 1 .57.16.82.82 0 0 1 .27.57.82.82 0 0 1-.15.61.72.72 0 0 1-.52.27.73.73 0 0 1-.57-.15.8.8 0 0 1-.27-.57zm.32-.04c0 .14.07.28.17.39a.4.4 0 0 0 .32.1.4.4 0 0 0 .3-.16.6.6 0 0 0 .08-.42.59.59 0 0 0-.16-.39.4.4 0 0 0-.32-.1.4.4 0 0 0-.3.16.6.6 0 0 0-.08.42zm1.36-.95l.34 1.53.3-.06-.12-.58.2-.04.32-.1.14-.1a.44.44 0 0 0 .1-.19.52.52 0 0 0 0-.25.5.5 0 0 0-.16-.28.4.4 0 0 0-.25-.1c-.13 0-.25.03-.37.06l-.5.1zm.46.62l-.1-.43.16-.03.22-.04c.05 0 .1.01.14.04a.2.2 0 0 1 .08.13l-.01.13a.2.2 0 0 1-.08.09.82.82 0 0 1-.24.08l-.17.03zm1.48.52l-.49-1.47.3-.1.4 1.23.75-.25.08.25-1.04.34zm.78-1.92l.64 1.43 1.08-.5-.1-.23-.8.36-.18-.4.72-.32-.1-.24-.72.33-.15-.32.77-.35-.1-.24-1.06.48zm2.77.36l-.87-1.3.4-.26.82.73-.36-1.05.39-.26.87 1.3-.24.16-.68-1.02.42 1.2-.25.17-.94-.85.68 1.02-.24.16zm.9-2.05a1 1 0 0 0 .2.35.8.8 0 0 0 .55.3.73.73 0 0 0 .55-.2.73.73 0 0 0 .27-.53.82.82 0 0 0-.23-.58.82.82 0 0 0-.54-.31.73.73 0 0 0-.56.2.87.87 0 0 0-.21.27.73.73 0 0 0-.03.5zm.8.35a.58.58 0 0 1-.35-.23.59.59 0 0 1-.18-.38.4.4 0 0 1 .15-.3.4.4 0 0 1 .32-.11c.14.02.27.1.35.22.1.1.17.24.18.39a.4.4 0 0 1-.15.3.4.4 0 0 1-.32.1zm1.62-1.04l-1.52-.63.23-.26 1.12.49-.6-1.07.22-.24.78 1.46-.23.25zm-.44-1.86l1.26.92.7-.97-.22-.16-.5.72-.35-.25.46-.64-.21-.16-.46.64-.28-.2.5-.69-.22-.15-.68.94z" fill="#2A2C8A"/></svg>