<svg width="56" height="56" viewBox="0 0 56 56" xmlns="http://www.w3.org/2000/svg"><path fill="#011C3F" d="M0 0h56v56H0z"/><path d="M27.32 17.23 12.49 28.59a1.04 1.04 0 0 0-.19 1.48 1.04 1.04 0 0 0 1.49.19l14.85-11.37a1.04 1.04 0 0 0 .18-1.47 1.12 1.12 0 0 0-1.5-.2ZM30.03 21.53a1.05 1.05 0 0 0-1.5-.18L12.5 33.63a1.05 1.05 0 0 0 .12 1.76 1.04 1.04 0 0 0 1.18-.09l16.08-12.29a1.08 1.08 0 0 0 .16-1.48Z" fill="#00B0F0"/><path d="M12.21 25.05a1.04 1.04 0 0 0 1.49.19l14.2-10.86 8.1 6.18-6.01 4.6a1.05 1.05 0 0 0 1.15 1.77.5.5 0 0 0 .12-.1l7.1-5.43.07-.08.11-.11a1.08 1.08 0 0 0-.18-1.48l-9.82-7.52a.96.96 0 0 0-.51-.21h-.25c-.19.02-.37.1-.51.21L12.42 23.57a1.07 1.07 0 0 0-.2 1.48ZM42.23 25.74 27.4 37.11a1.05 1.05 0 0 0 .12 1.75 1.05 1.05 0 0 0 1.18-.1l14.84-11.35a1.04 1.04 0 0 0-.52-1.87c-.27-.03-.55.04-.78.2ZM25.97 34.47a1.04 1.04 0 0 0 1.48.18l16.08-12.28a1.06 1.06 0 1 0-1.3-1.69l-16.05 12.3a1.06 1.06 0 0 0-.21 1.49Z" fill="#00B0F0"/><path d="M43.79 30.97a1.05 1.05 0 0 0-1.49-.18L28.1 41.64l-8.1-6.2 6.02-4.6a1.05 1.05 0 1 0-1.3-1.67l-7.1 5.43-.07.08-.12.11a1.08 1.08 0 0 0 .19 1.47l9.83 7.53c.15.12.33.19.51.21h.28c.19-.02.37-.1.51-.21L43.6 32.43a1.06 1.06 0 0 0 .19-1.46Z" fill="#00B0F0"/></svg>