<svg xmlns="http://www.w3.org/2000/svg" width="56" height="56"><path fill="#00406F" d="M0 0h56v56H0z"/><path d="M26.47 28.15A470.82 470.82 0 0024.62 34h-2.57l3.23-10h2.53l-1.31 4.06h.02l.08-.06c1.45-1.31 3.1-2.7 4.55-4h2.94l-4.93 4.29L31.1 34h-2.73s-1.23-3.84-1.85-5.71l-.05-.14zm22.71-4.14l-1.69 5.93L44.7 32H51l-.43 2h-6.45l2.86-10h2.2zM9.01 28l.11.01h3.26L13.63 24l2.4.01L12.9 34h-2.54l1.34-4H9.9s-.63-1.36-.86-1.92L9.01 28z" fill="#fff"/><path d="M7.64 34H5l3.41-10.02 2.6.03L7.65 34zm11.45-7.45l1.94 1.62L19.1 34h-2.48l2.47-7.45z" fill="#fff"/><path d="M19.34 24.58h-.42c-.1 0-.14.04-.16.13l-.04.2a.48.48 0 01-.5.4c-.17-.03-.25-.2-.2-.4a.4.4 0 01.37-.32h.15c.14.02.2-.02.23-.17l.15-.72c.05-.26.1-.52.17-.78.06-.28.25-.42.5-.46.11-.02.23-.02.35-.02h.21c.27-.02.4-.15.46-.45l.04-.33c.06-.35.3-.51.6-.59.32-.08.65-.06.99-.03.2.02.51.03.6-.16l.14-.46c.13-.34.48-.45.7-.41.15.02.26.11.3.27.08.4-.06.68-.49.73l-.48.04c-.13 0-.22.1-.26.22-.04.13-.06.27-.09.4-.15.8-.68.75-1.29.73-.34-.01-.6.15-.8.44-.2.31-.3.67-.32 1.05-.03.36 0 .68.47.68h1.47c.22 0 .33.15.34.39.02.26-.03.42-.08.67-.04.22.03.33.24.33h.52c.2-.01.27.18.28.39.02.35-.18.6-.51.64h-.34c-.26-.01-.38-.2-.33-.47a5 5 0 01.04-.2c.04-.2-.03-.35-.22-.35-.63-.02-1.26 0-1.88-.01-.27 0-.44-.12-.42-.4.02-.23.08-.4.12-.62l.01-.08c.04-.17-.04-.28-.2-.28h-.43z" fill="#0ED1BE"/><path d="M32.76 34l2.95-5 1.47 1.45L35.37 34h-2.61z" fill="#fff"/><path d="M35.7 29h2.28l1.42-2.64.26 7.64h2.48l-.84-10h-2.61a365.75 365.75 0 01-1.5 2.51 373.74 373.74 0 00-1.5 2.49z" fill="#fff"/></svg>