<svg xmlns="http://www.w3.org/2000/svg" width="56" height="56"><path d="M0 28a28 28 0 1156 0 28 28 0 01-56 0z" fill="#F0F3FA"/><path d="M23.96 21.24V12h2.02v4h4.04v-4h2.02v9.24l7.91-4.7 1.04 1.72-3.48 2.06 1.95 3.36L43 21.72l.99 1.75-8.06 4.45L44 32.54l-1 1.73-3.5-2-2 3.4 3.5 2.08-1.04 1.72-7.91-4.7V44h-2.02v-4h-4.04v4h-2.02v-9.24l-7.91 4.7-1.04-1.72 3.48-2.06-1.95-3.36L13 34.28l-1-1.75 8.06-4.45L12 23.46l1-1.73 3.5 2 2-3.4-3.5-2.08 1.04-1.72 7.91 4.7zm-3.74.1l-1.97 3.4 5.91 3.37-5.86 3.24 1.92 3.3 5.76-3.41V38h4.04v-6.76l5.76 3.41 1.97-3.38-5.91-3.38 5.86-3.24-1.92-3.3-5.76 3.41V18h-4.04v6.76l-5.76-3.41z" fill="#DC390E"/></svg>