<svg width="56" height="56" viewBox="0 0 56 56" xmlns="http://www.w3.org/2000/svg"><path fill="#F0F3FA" d="M0 0h56v56H0z"/><path d="M15 20a8.5 8.5 0 0 0 0 16.97v-3A5.5 5.5 0 0 1 15 23V20Z" fill="#FE7D15"/><path d="M42 25v-5h.48l1.03 3.47V20H44v5h-.49l-1.02-3.5V25H42ZM38 25l1.18-5h.64L41 25h-.55l-.24-.98h-1.38l-.23.98H38Zm1.5-4.12-.54 2.58h1.13l-.59-2.58ZM36 25v-4.5h-.73V20h2v.5h-.73V25H36ZM31 37v-4.5h-.73V32h2v.5h-.73V37H31ZM32.11 24.08c.27.19.5.28.71.28.36 0 .59-.25.59-.64 0-.47-.29-.69-.71-1.09-.46-.41-.7-.78-.7-1.34 0-.76.48-1.29 1.09-1.29.26 0 .5.07.76.22v.66a1.06 1.06 0 0 0-.65-.27c-.38 0-.61.27-.61.67 0 .45.3.68.73 1.07.47.43.68.8.68 1.36 0 .74-.46 1.29-1.13 1.29-.25 0-.5-.08-.76-.25v-.67ZM29 23.62V20h.5v3.68c0 .47.16.69.5.69.34 0 .5-.22.5-.7V20h.5v3.62c0 .95-.3 1.38-1 1.38s-1-.43-1-1.38ZM26 25v-5h.65c1 0 1.35.67 1.35 2.5s-.35 2.5-1.35 2.5H26Zm.5-.65h.25c.58 0 .75-.53.75-1.86s-.17-1.86-.75-1.86h-.25v3.72ZM36 37v-5h.65c1 0 1.35.67 1.35 2.5s-.35 2.5-1.35 2.5H36Zm.5-.65h.25c.58 0 .75-.53.75-1.86s-.17-1.86-.75-1.86h-.25v3.72ZM23 25v-5h.48l1.03 3.47V20H25v5h-.49l-1.02-3.5V25H23ZM21 25v-5h.62v5H21ZM18 25v-5h.53v1.9h.94V20H20v5h-.53v-2.47h-.94V25H18ZM33 37v-5h2v.5h-1.5V34h1.39v.5H33.5v2H35v.5h-2ZM29 37v-5h.62v5H29ZM25 37l.37-5h.54l.59 3.46.6-3.46h.52l.38 5h-.54l-.18-3.5-.58 3.5h-.4l-.58-3.5-.18 3.5H25ZM23 37v-5h.62v5H23ZM20 37v-5h.64v4.38H22V37h-2ZM46.55 29.17c.42.33.82.5 1.2.5.13 0 .24-.03.32-.08.08-.06.12-.12.12-.2a.2.2 0 0 0-.03-.14c-.03-.03-.08-.06-.16-.08-.07-.03-.2-.05-.36-.08a2.3 2.3 0 0 1-1.1-.46c-.24-.2-.36-.51-.36-.92 0-.5.2-.9.59-1.23.39-.32.89-.48 1.5-.48.28 0 .54.03.79.1.24.07.5.18.8.34l-.5 1.22a1.59 1.59 0 0 0-1-.37.57.57 0 0 0-.3.07c-.07.04-.1.1-.1.18 0 .07.02.12.08.16a.9.9 0 0 0 .3.09l.33.07c.46.1.8.27 1.01.49.21.22.32.52.32.92 0 .52-.2.94-.59 1.26-.39.31-.9.47-1.54.47s-1.27-.16-1.87-.5l.55-1.33Z"/><path d="M43 31v-5h2.96v1.35H44.6v.47h1.24v1.31H44.6v.47H46V31h-3ZM39 26h3.5v1.58h-1V31H40v-3.39h-1V26ZM37 26h1.5v5H37v-5ZM33.55 29.17c.42.33.82.5 1.2.5.13 0 .24-.03.32-.08.08-.06.12-.12.12-.2a.2.2 0 0 0-.03-.14c-.03-.03-.08-.06-.16-.08-.07-.03-.2-.05-.36-.08a2.3 2.3 0 0 1-1.1-.46c-.24-.2-.36-.51-.36-.92 0-.5.2-.9.59-1.23.39-.32.89-.48 1.5-.48.28 0 .54.03.79.1.24.07.5.18.8.34l-.5 1.22a1.59 1.59 0 0 0-1-.37.57.57 0 0 0-.3.07c-.07.04-.1.1-.1.18 0 .07.02.12.08.16a.9.9 0 0 0 .3.09l.33.07c.46.1.8.27 1.01.49.21.22.32.52.32.92 0 .52-.2.94-.59 1.26-.39.31-.9.47-1.54.47s-1.27-.16-1.87-.5l.55-1.33ZM28 28.5c0-.5.1-.93.31-1.3.21-.39.5-.68.88-.89.39-.2.82-.31 1.31-.31.5 0 .93.1 1.3.31.38.2.68.5.89.88.2.38.31.82.31 1.31 0 .5-.1.93-.31 1.3-.21.39-.5.68-.88.9-.38.2-.82.3-1.3.3-.5 0-.93-.1-1.32-.31-.37-.21-.67-.5-.88-.88A2.64 2.64 0 0 1 28 28.5Zm1.68 0c0 .28.08.5.23.69.16.18.36.27.6.27.23 0 .43-.1.58-.27.15-.19.23-.42.23-.7 0-.27-.08-.5-.24-.68a.73.73 0 0 0-.58-.27c-.23 0-.43.1-.59.27-.15.18-.23.41-.23.69ZM24 31v-5h2.25c1.02 0 1.75.8 1.75 1.8 0 .89-.54 1.7-1.49 1.7H25.5V31H24Zm2.04-2.77c.3 0 .46-.18.46-.48 0-.23-.16-.4-.4-.4h-.6v.88h.54ZM18.74 26h1.62l.47 1.8c.07.23.12.55.16.96l.01.1a5.78 5.78 0 0 1 .17-1.06l.47-1.8h1.62l.74 5h-1.52l-.21-2.13-.03-.43a5.18 5.18 0 0 1-.03-.36c-.02.3-.05.54-.1.69L21.5 31h-1l-.61-2.23c-.06-.2-.09-.43-.1-.7 0 .14-.03.45-.07.95l-.2 1.98H18l.74-5ZM13 28.5c0-.5.1-.93.31-1.3.21-.39.5-.68.88-.89.39-.2.82-.31 1.31-.31.5 0 .93.1 1.3.31.38.2.68.5.88.88.21.38.32.82.32 1.31 0 .5-.1.93-.32 1.3-.2.39-.5.68-.87.9-.38.2-.82.3-1.3.3-.5 0-.93-.1-1.32-.31-.37-.21-.67-.5-.88-.88A2.64 2.64 0 0 1 13 28.5Zm1.68 0c0 .28.08.5.23.69.16.18.36.27.6.27.23 0 .43-.1.58-.27.15-.19.23-.42.23-.7 0-.27-.08-.5-.24-.68a.73.73 0 0 0-.58-.27c-.23 0-.43.1-.59.27-.15.18-.23.41-.23.69Z"/></svg>