<svg width="56" height="56" xmlns="http://www.w3.org/2000/svg"><path fill="#F0F3FA" d="M0 0h56v56H0z"/><path d="M28 34h-9.525c-.363-1.76.386-3.286.805-3.83L28 34zm.005 0h9.572c.363-1.76-.39-3.299-.81-3.843L28.005 34z" fill="#A8191D"/><path d="M22.998 26.169L28 34l-8.668-3.8c.41-2.027 2.627-3.535 3.666-4.031zm10.022-.009L28 34l8.68-3.797c-.41-2.026-2.621-3.547-3.66-4.043z" fill="#E32D22"/><path d="M28 24.844V34l-4.984-7.801c1.5-1.562 3.945-1.555 4.984-1.354z" fill="#EF6B2B"/><path d="M28 24.844V34l5.005-7.807c-1.5-1.561-3.966-1.549-5.005-1.348zm-12.222-9.843H12V27l4.43 1.902 4.747-5.648-5.399-8.253zM40.222 15H44v12l-4.384 1.916-4.803-5.678L40.221 15z" fill="#A8191D"/><path d="M28 15H15.753l5.424 8.27L28 15zm0 0h12.247l-5.434 8.246L28 15z" fill="#EF6B2B"/><path d="M28 24.856V15l-6.82 8.25 1.849 2.99c1.38-1.049 3.934-1.384 4.971-1.384z" fill="#E32D22"/><path d="M28 24.86V15l6.82 8.253-1.849 2.991C31.334 25.17 29.037 24.86 28 24.86z" fill="#F2DA52"/><path d="M16.431 28.896l4.75-5.67 1.847 2.99c-1.965 1.214-3.31 3.184-3.7 3.995l-2.896-1.315zm23.171-.009l-4.783-5.657-1.854 3.016c1.965 1.215 3.317 3.166 3.707 3.977l2.93-1.336z" fill="#EF6B2B"/><path d="M12 34v-7.001l4.432 1.897L12 34zm32 0v-6.997L39.568 28.9 44 34z" fill="#EF6B2B"/><path d="M18.467 34H12l4.426-5.11 2.906 1.323c-.73 1.322-.88 3.05-.865 3.787zm19.066 0H44l-4.41-5.105-2.923 1.322c.73 1.322.882 3.046.866 3.783z" fill="#F2DA52"/><path fill="#1E429B" d="M12 35h32v6H12z"/><path d="M18 40h-1v-1.5h-1V40h-1v-4h1v1.5h1V36h1v4zm1.5 0h-1.002v-4H19.5v4zm1.497-2v2H20v-4h1l1 2v-2h1v4h-1l-1.003-2zm2.503 2v-4h1.626c1.112 0 1.874.93 1.874 2 0 1.157-.901 2-2.055 2H23.5zm2.5-2c.016-.5-.287-1-1.055-1H24.5v2h.477c.768 0 1.007-.5 1.023-1zm4.5 2h-1l-.251-.91h-.937l-.31.91H27l1.36-4h.956l1.184 4zm-1.332-1.562L28.832 37l-.376 1.438h.712zM33 40h-2v-4h1v3h1v1zm3.883-1.567c0 .76-.766 1.567-1.876 1.567A2.01 2.01 0 0133 38c0-1.102.89-2 1.991-2 1.01 0 1.892.767 1.892 1.588H36c-.228-.392-.566-.588-1-.588-.689 0-1 .562-1 1 0 .438.352 1 1 1 .438 0 .786-.189 1-.567h.883zM41 38c0 1.108-.885 2-1.997 2A2.014 2.014 0 0137 38c0-1.1.903-2 2-2 1.096 0 2 .903 2 2zm-1 0c0-.62-.453-1-.997-1A.987.987 0 0038 38a.99.99 0 001 1c.536 0 1-.38 1-1z" fill="#fff"/></svg>