<svg width="56" height="56" viewBox="0 0 56 56" xmlns="http://www.w3.org/2000/svg"><path fill="#F0F3FA" d="M0 0h56v56H0z"/><path d="M20 29.8V22c.2.85 1.45 1.62 2.05 1.9 3.68 1.57 11.3 4.83 12.33 5.25A2.8 2.8 0 0 1 36 30.67V39a3.09 3.09 0 0 0-1.62-1.74l-12.8-5.43c-1.28-.54-1.59-1.58-1.58-2.03Z" fill="url(#aranjbkar)"/><path d="M20 37.5V46l13.48-6c.7-.31.7-1.34-.01-1.64L25.56 35 20 37.5Z" fill="url(#branjbkar)"/><path d="M36 23v-8.5l-13.48 6c-.7.31-.7 1.34.01 1.64l7.91 3.36L36 23Z" fill="url(#cranjbkar)"/><circle cx="33.5" cy="11.5" r="2.5" fill="#EB2441"/><defs><linearGradient id="aranjbkar" x1="18.16" y1="32.28" x2="38.12" y2="32.28" gradientUnits="userSpaceOnUse"><stop offset=".26" stop-color="#112655"/><stop offset=".48" stop-color="#07568E"/><stop offset=".66" stop-color="#112655"/></linearGradient><linearGradient id="branjbkar" x1="33.31" y1="39.11" x2="21.05" y2="40.05" gradientUnits="userSpaceOnUse"><stop stop-color="#F14038"/><stop offset="1" stop-color="#F8951E"/></linearGradient><linearGradient id="cranjbkar" x1="27.39" y1="22.52" x2="34.98" y2="20.52" gradientUnits="userSpaceOnUse"><stop stop-color="#F14038"/><stop offset="1" stop-color="#F8951E"/></linearGradient></defs></svg>