<svg width="56" height="56" xmlns="http://www.w3.org/2000/svg"><path fill="#F0F3FA" d="M0 0h56v56H0z"/><path d="M20.001 17H24v2h-1v1.5h3V19h-1v-2l3.999.003L29 19h-1v5h.996v2H25v-2h1v-1.5h-3V24h1v2h-3.997v-2H21v-5h-1l.001-2zm10.004 0h5.156c1.664 0 2.84 1.334 2.84 3 0 1.539-1.093 2.66-2.19 2.9-.806.177-2.81.1-2.81.1v1h1v2h-3.997L30 24h1v-5h-1l.005-2zM33 19c.004.6.007 1.4 0 2 .618.015 1.25-.006 1.868 0 .343.036 1.132-.221 1.132-1 0-.516-.398-1.018-1.132-1-.596.003-1.272-.006-1.868 0z" fill="#F83546"/><path d="M24.686 12.343a16.123 16.123 0 016.949.073 15.957 15.957 0 016.213 2.974 16.164 16.164 0 014.047 4.674 15.894 15.894 0 012.066 8.982c-2.655-.137-5.35.299-7.804 1.333-2.02.86-3.847 2.2-5.195 3.94-1.502 1.914-2.25 4.243-2.667 6.626-.14.75-.209 1.512-.295 2.27-.062-1.355-.306-2.7-.666-4.007-.616-2.233-1.882-4.344-3.515-6-1.486-1.523-3.373-2.625-5.384-3.3a17.692 17.692 0 00-4.2-.854c-.735-.047-1.474-.09-2.21-.03-.06-1.252-.02-2.512.201-3.748a15.936 15.936 0 013.65-7.719 15.992 15.992 0 018.81-5.214zM13 25.805c.873.053 1.574.142 2.435.3 2.2.385 4.346 1.184 6.187 2.464a14.284 14.284 0 014.52 5.139c.994 1.895 1.694 4.002 1.858 6.13.446-2.958 1.223-5.904 3.014-8.334a12.868 12.868 0 015.068-4.122c2.214-1.027 4.492-1.438 6.918-1.498-.92-6.662-6.246-11.904-12.96-12.765-.95-.14-1.924-.144-2.881-.119-7.05.354-13.115 5.755-14.159 12.805z" fill="#073C86"/><path d="M41.503 29.696a19.414 19.414 0 012.398-.063c-.012.522-.123 1.037-.218 1.55-.764 3.873-3.046 7.414-6.236 9.733a16.162 16.162 0 01-2.668 1.59c-1.987.922-4.01 1.443-6.2 1.494.105-2.389.542-4.79 1.575-6.96.92-1.952 2.205-3.674 3.999-4.877 2.167-1.475 4.757-2.235 7.35-2.467zm-6.763 4.821c-1.12.612-1.956 1.465-2.753 2.46-1.452 1.82-2.136 3.77-2.601 6.031 2.14-.15 3.805-.73 5.694-1.75 3.247-1.73 5.695-4.499 6.984-7.947-2.564-.374-5.023-.062-7.324 1.206zM12.072 29.62c2.463-.096 4.957.314 7.234 1.27 1.993.845 3.796 2.18 5.092 3.924 1.368 1.805 2.175 3.982 2.578 6.197.178.985.28 1.982.324 2.981a15.902 15.902 0 01-6.858-1.88 16.024 16.024 0 01-8.37-12.491zm1.89 3.662c1.133 3.088 3.32 5.755 6.085 7.525 2.007 1.287 3.99 1.965 6.365 2.193-.114-1.527-.387-2.824-1.072-4.203-.522-1.059-1.302-1.974-2.208-2.723-.8-.652-1.623-1.292-2.542-1.771a9.103 9.103 0 00-3.373-1.021c-1.186-.147-2.073-.138-3.254 0z" fill="#073C86"/></svg>