<svg width="56" height="56" xmlns="http://www.w3.org/2000/svg"><path fill="url(#paint0_linear)" d="M0 0h56v56H0z"/><path fill-rule="evenodd" d="M41.776 16.137l.287.328-5.213 4.382c.273.327.53.668.764 1.024l3.05-1.866c.077.12.155.24.228.36l-3.051 1.865c.13.211.25.427.365.646l4.532-2.171c.065.125.127.253.19.382l-4.533 2.17c.115.245.22.49.319.742l3.379-1.192c.05.133.099.267.145.4l-3.379 1.19c.06.174.115.351.167.528l6.627-1.713.11.417-6.627 1.713c.103.419.184.845.237 1.28l3.572-.364c.016.139.03.28.044.421l-3.572.365c.022.244.035.489.038.736l5.04-.003c.002.075.004.148.004.222 0 .068-.003.136-.003.201l-5.04.005c-.005.27-.019.538-.043.803l3.57.383c-.014.14-.028.28-.048.422l-3.569-.383c-.024.185-.051.37-.084.553l6.72 1.314-.084.423-6.723-1.314c-.096.435-.217.86-.363 1.275l3.372 1.216c-.048.134-.097.267-.148.398l-3.374-1.216c-.09.23-.189.455-.294.679l4.528 2.178c-.06.128-.123.253-.189.38l-4.53-2.177c-.125.24-.256.474-.398.703l3.036 1.887a9.537 9.537 0 01-.23.359l-3.04-1.888c-.118.174-.241.348-.369.518l5.425 4.125-.27.341-5.426-4.125c-.253.31-.522.605-.807.886l2.497 2.54c-.102.099-.205.197-.31.293L35.81 36.24a10.9 10.9 0 01-.567.485l3.113 3.899-.338.261-3.114-3.898c-.216.163-.441.316-.669.462l1.895 2.998a7.61 7.61 0 01-.367.222l-1.895-2.995c-.21.123-.423.24-.642.352l3.007 6.054-.394.19-3.009-6.056c-.366.168-.742.315-1.129.447l1.096 3.364c-.136.044-.272.086-.41.128l-1.096-3.364c-.239.069-.48.132-.725.189l1.034 4.85c-.141.03-.28.06-.42.087l-1.038-4.85c-.266.047-.535.088-.81.12l.351 3.518c-.143.015-.285.03-.43.042l-.348-3.518c-.225.017-.452.027-.68.031V46h-.44v-6.742a10.53 10.53 0 01-.715-.035l-.36 3.515a17.381 17.381 0 01-.43-.044l.362-3.512c-.252-.03-.498-.067-.743-.112l-1.02 4.854a20.957 20.957 0 01-.422-.084l1.018-4.855c-.267-.06-.53-.128-.792-.206l-1.104 3.359a16.378 16.378 0 01-.41-.13l1.105-3.359a12.61 12.61 0 01-.618-.228l-2.721 6.184-.404-.171 2.723-6.185c-.378-.17-.744-.358-1.098-.567l-1.892 3.006c-.123-.073-.245-.149-.366-.223l1.891-3.005a10.95 10.95 0 01-.615-.42l-3.082 3.922a21.61 21.61 0 01-.34-.26l3.08-3.924a9.746 9.746 0 01-.62-.526l-2.492 2.545c-.105-.096-.21-.192-.312-.292l2.494-2.546c-.157-.154-.31-.315-.457-.478l-5.213 4.382-.286-.329 5.212-4.382a11.235 11.235 0 01-.763-1.023l-3.053 1.866c-.076-.119-.153-.24-.226-.36l3.05-1.865a12.53 12.53 0 01-.365-.644l-4.53 2.168a10.834 10.834 0 01-.189-.382l4.531-2.17c-.115-.243-.22-.49-.318-.74l-3.38 1.19c-.05-.13-.1-.264-.146-.396l3.38-1.192c-.06-.175-.113-.35-.167-.529l-6.628 1.716-.113-.42 6.63-1.714a10.91 10.91 0 01-.237-1.281l-3.573.366a12.21 12.21 0 01-.044-.42l3.573-.368a10.765 10.765 0 01-.04-.735l-5.038.004-.003-.223c0-.068 0-.134.002-.203l5.04-.001c.006-.272.02-.54.045-.805l-3.573-.383c.014-.14.03-.281.048-.422l3.57.383c.023-.185.053-.37.086-.553l-6.724-1.314.084-.425 6.725 1.314c.097-.433.218-.857.363-1.272l-3.373-1.217c.048-.134.098-.267.15-.399l3.371 1.218c.093-.23.192-.457.296-.678l-4.529-2.179c.062-.128.124-.256.19-.38l4.53 2.177c.125-.238.258-.474.4-.702l-3.038-1.89c.074-.12.153-.24.23-.359l3.039 1.89c.119-.175.242-.35.37-.519l-5.425-4.123.27-.343 5.424 4.126c.253-.31.522-.607.81-.887l-2.499-2.54c.102-.099.206-.197.31-.293l2.497 2.538c.183-.167.37-.33.565-.485l-3.112-3.898c.112-.09.225-.175.339-.262l3.113 3.897c.216-.162.44-.315.668-.462l-1.895-2.997c.12-.077.244-.151.367-.223l1.895 2.996c.21-.124.424-.241.643-.35l-3.005-6.056.393-.19 3.008 6.056c.367-.168.741-.318 1.128-.447l-1.095-3.363c.137-.045.273-.088.411-.13l1.095 3.365c.239-.071.48-.133.726-.189l-1.035-4.85c.14-.03.28-.059.422-.085l1.035 4.85c.266-.05.537-.09.81-.122l-.35-3.517c.142-.016.287-.03.43-.04l.349 3.516c.226-.018.452-.027.68-.032V10h.44v6.74c.24.005.477.017.714.035l.361-3.512c.145.011.287.025.429.043l-.36 3.512c.25.03.498.067.743.111l1.019-4.854c.141.028.283.056.422.086l-1.02 4.853c.268.058.533.128.793.205l1.104-3.357c.138.04.275.083.41.129l-1.103 3.358c.208.071.413.147.617.23l2.721-6.186.405.173-2.724 6.184c.377.169.744.358 1.097.565l1.892-3.003.367.224-1.892 3.002c.21.134.417.274.617.424l3.082-3.925c.114.086.228.172.34.26l-3.08 3.923c.212.169.418.343.618.526L38.29 17.2c.106.098.209.195.311.294l-2.495 2.545c.158.155.31.315.459.478l5.21-4.38zM29.967 33c1.327 0 2.411.81 2.501 2h-1.865c-.066-.322-.326-.564-.636-.564s-.57.242-.635.564h-1.866c.09-1.19 1.174-2 2.501-2zm2.691-11.388L26.305 34H27v1h-3.495l6.517-12.24c-.768.357-1.513.832-2.635.722-1.585-.155-2.547-1.03-2.765-3.066.95.76 2.107 1.312 3.248 1.273 1.16-.039 1.57-.475 2.45-.857.552-.237 1.775.04 2.338.78zM28.003 18C33.511 17.974 38 22.414 38 28c0 2.891-.846 5.216-2.824 7.059-1.83 1.651-4.627 2.808-7.306 2.808-2.68 0-5.206-1.157-7.037-2.808C18.873 33.216 18 30.874 18 28c0-5.586 4.496-9.974 10.003-10z" fill="#fff"/><path d="M23 35h-2V22h2v5h3.725l-.99 2H23v6zm12-13v13h-2v-6h-3.328l.989-2H33v-5h2z" fill="#fff"/><defs><linearGradient id="paint0_linear" x1="10.418" y1="9.712" x2="68.147" y2="76.017" gradientUnits="userSpaceOnUse"><stop stop-color="#1A1E21"/><stop offset="1" stop-color="#06060A"/></linearGradient></defs></svg>