<svg width="56" height="56" viewBox="0 0 56 56" xmlns="http://www.w3.org/2000/svg"><path fill="#F0F3FA" d="M0 0h56v56H0z"/><path d="M15 37V17h-1v-3h.6v-.88l.92-1.12 1.06 1.12V14h.96v-.88L18.5 12l.91 1.12V14h.94v-.88l.92-1.12 1.09 1.12V14H23v3h-1v7h.94v-1.47l1.45-1.32 1.45 1.32V24h.68v-1.47l1.45-1.32 1.45 1.32V24h.9v-1.47l1.45-1.32 1.44 1.32V24H34v-7h-1v-3h.64v-.88l1.1-1.12.9 1.12V14h.95v-.88L37.5 12l.97 1.12V14h.95v-.88L40.48 12l.93 1.12V14H42v3h-.6v20H43v5H32v-5h.5v-1.93c-1.3-1.69-4-4.57-4-4.57h-1.06s-2.63 2.88-3.94 4.57V37h.46v5H13v-5h2Z" fill="#BE2327"/><path fill-rule="evenodd" d="M21 25h-2v5h2v-2.12h1V30h2v-5h-2v2h-1v-2Zm5.5 0h-2v5h2v-5Zm.5 0v5h1.63v-2l1.52 2h1.35v-5h-1.53v2.08L28.42 25H27Zm5 0h4.22c.43 0 .78.28.78.62v3.76c0 .34-.35.62-.78.62H32v-5Zm2 1.33h.6c.22 0 .4.2.4.46v1.63c0 .26-.18.46-.4.46H34v-2.55Z" fill="#F0F3FA"/></svg>