<svg xmlns="http://www.w3.org/2000/svg" width="56" height="56"><path fill="#F0F3FA" d="M0 0h56v56H0z"/><circle cx="28" cy="33" r="1"/><path fill-rule="evenodd" d="M30 35.89c7.25-.83 13-6.08 13-12.39C43 16.62 36.16 11 28 11s-15 5.62-15 12.5c0 6.31 5.75 11.56 13 12.39V40h-3v3h3v3h4v-3h3v-3h-3v-4.11zM44 23.5c0 6.59-5.6 12.08-13 13.26V39h3v5h-3v3h-6v-3h-3v-5h3v-2.24c-7.4-1.18-13-6.67-13-13.26C12 16.05 19.16 10 28 10s16 6.05 16 13.5zm-27.44 6.14l-.35-.32c0 .12.02.27.04.44l.01.15c.03.25.1.53.2.86.1.33.26.59.46.77.22.2.46.31.71.34.26.02.48-.05.68-.21a.96.96 0 00.24-.26l.28.23.04-.02.06.05.3-.23-.03-.03.08-.04-.35-.28 1.86-1.46-.36-.32-1.86 1.46c-.6-.55-1.11-1.13-1.54-1.73l.3-.16.63.84c.04.05.1.1.18.11.08.02.16.01.22-.03.12-.06.21-.17.28-.33.06-.17.08-.26.07-.28.08.03.18.06.3.08.1.02.22 0 .35-.07.24-.13.35-.4.3-.8-.03-.4-.14-.63-.33-.69l-.3.06c.11.18.21.38.3.58.07.2.02.35-.16.44a.46.46 0 01-.4.03.77.77 0 01-.34-.28c-.08-.1-.12-.19-.12-.25s.03-.1.07-.12c.12-.06.22-.06.3 0l.01-.36a.74.74 0 00-.28-.07.6.6 0 00-.29.08c-.16.08-.23.2-.22.38 0 .16.07.33.2.5a1.2 1.2 0 00.26.26l-.01.11a.92.92 0 01-.05.17c-.02.04-.04.07-.06.08-.03.02-.06.02-.07.01a.32.32 0 01-.06-.03l-.7-.94-.62.33a9.63 9.63 0 01-.4-.66l-.31-.64-.07-.15a8.98 8.98 0 01-.64-2.31l.05-.16.43-.04.1.66c.02.14.11.27.26.38.16.12.33.16.52.14.34-.03.58-.15.71-.36.14-.2.2-.39.2-.56 0-.16 0-.32-.02-.47a66.41 66.41 0 00.28-.13l.05.13c.05.1.1.18.16.25l.16-.12.16-.12-.13-.16a.28.28 0 01-.06-.18c0-.06.04-.11.1-.15a.31.31 0 01.2-.06c.13 0 .23.05.3.15.06.1.09.21.08.34 0 .21-.07.39-.2.53-.12.14-.25.26-.37.36l.26.21c.11-.02.25-.16.42-.4.16-.26.25-.49.26-.7a.97.97 0 00-.16-.6c-.12-.17-.3-.26-.56-.27-.19 0-.35.04-.48.14a7.74 7.74 0 01-.2.19l-.02.01a113.33 113.33 0 01-.46.25.35.35 0 00-.17-.11.52.52 0 00-.25-.03.36.36 0 00-.23.11.25.25 0 00-.07.22c.01.13.1.22.23.26.14.04.24.05.31.02.02.02.04.05.05.11a.64.64 0 01-.13.44.59.59 0 01-.46.27c-.1.01-.19 0-.25-.05a.26.26 0 01-.11-.18l-.08-.5-.07-.51-.82.08-.07-.46c-.01-.42 0-.84.05-1.27.05-.15.1-.3.18-.38l.66.07.02.01.1.03c.07 0 .09.06.07.15-.01.07-.07.13-.19.17-.11.04-.22.08-.33.1l.2.36a22.61 22.61 0 00.98-.37l.6-.27.07-.03.44-.21-.25-.37-.18.1-.09.06a4.65 4.65 0 01-.84.4v-.17a.66.66 0 00-.08-.23c-.05-.08-.17-.14-.38-.16l-.73-.09.02-.1c.27-.8.62-1.6 1.05-2.36l.39.13-.49 1c-.03.08-.02.18.04.31s.18.23.37.3c.26.08.55.08.86 0 .31-.08.6-.17.86-.27l-.13-.37c-.02.04-.2.12-.55.22-.36.1-.64.11-.85.04-.1-.04-.16-.08-.17-.13 0-.05 0-.1.02-.15l.4-.83 1.6.55.2-.41-2.32-.79c.21-.36.45-.7.7-1.03l2.09 1.28.3-.35-2.1-1.3.17-.2h-.02a9.66 9.66 0 011.68-1.59l.5.43-1.13.9a.48.48 0 00-.07.1c-.02.04 0 .08.05.13.06.05.23.1.53.13.3.04.47.03.53-.02.04-.03.06-.06.05-.1a.29.29 0 00-.07-.12l-.26-.24.66-.52 1.05.95.38-.3-1.78-1.6.17-.13.05-.04-.28-.26h-.01a10.96 10.96 0 00-5.2 7.52c-.41 2.93.6 6.05 3.36 8.6l-.03.05a.74.74 0 01-.17.17.65.65 0 01-.4.15.62.62 0 01-.43-.18c-.13-.12-.24-.3-.33-.54a4.7 4.7 0 01-.21-.67l-.1-.48zm22.58-.94c.22-.4.42-.82.6-1.27l-.73-.16.3-.9a.26.26 0 00-.06-.26.54.54 0 00-.3-.17.86.86 0 00-.62.1c-.2.11-.34.25-.39.42-.03.1-.02.2.02.33.05.12.12.23.23.3l-.37.27c-.29-.3-.38-.63-.26-1 .1-.29.3-.52.6-.68.31-.17.64-.21.97-.13.23.05.39.15.5.3.1.16.12.33.06.51l-.18.59.39.09c.26-.75.46-1.56.56-2.4L38 24.7l-.02-.43 1.32-.04-.03-.74-.34.01a.42.42 0 01-.15-.03c-.03-.02-.05-.05-.06-.1 0-.06.11-.18.33-.36.23-.19.37-.28.44-.28.06 0 .1.02.11.05l.04.11.01.16.86-.02a8.95 8.95 0 00-.12-1.04l-.08-.23-2.53.53-.12-.43 2.53-.53-.12-.41.06-.01a7.76 7.76 0 00-.03-.1h-.03l-.1-.23-2.47.72-.16-.41 2.46-.72-.34-.84-.03-.04-.94-1.37a10 10 0 00-.38-.45l-.03.02-.19-.19-2.02 1.38-.33-.34 2.03-1.38-.21-.21-.12-.1.01-.01.32-.22.04-.03.32.3.06-.08a1 1 0 01.19-.16c.21-.14.44-.2.7-.16.24.04.47.16.68.38.18.19.31.45.4.79.07.33.11.62.12.87v.6l-.32-.35-.07-.48c-.03-.2-.08-.43-.15-.68a1.33 1.33 0 00-.29-.56.6.6 0 00-.4-.2.67.67 0 00-.43.12.76.76 0 00-.17.16h-.01l-.01.02c.5.5.92 1.03 1.29 1.57l.04-.01.08.2c.5.8.86 1.62 1.1 2.45h.01c.07-.04.15-.06.25-.08.26-.06.5-.02.7.1.22.12.36.32.44.58.07.24.06.53-.04.86-.1.33-.2.61-.32.84l-.3.54-.12-.43.18-.46c.08-.2.15-.42.2-.67.06-.25.07-.45.02-.6a.5.5 0 00-.26-.34.7.7 0 00-.45-.04 1 1 0 00-.21.07c.5 2.12.24 4.28-.55 6.13l1.32-.47.1.36-1.54.39a9.03 9.03 0 01-2.2 2.99l-.36-.23.14-.13.1-.15-.62-.33.6-.8a.1.1 0 00.02-.05c0-.02-.01-.03-.03-.04l-.12-.01c-.06 0-.15.01-.25.04-.11.03-.18.06-.2.1a.83.83 0 00-.12.26.82.82 0 01-.1.24c-.07.1-.17.14-.3.13a.91.91 0 01-.41-.1c-.28-.15-.43-.33-.43-.54-.01-.2.05-.39.17-.56.15-.2.38-.36.7-.46a4.04 4.04 0 011.37-.22l.08.38h-.39c-.3.02-.6.06-.87.13s-.47.19-.59.35c-.16.21-.08.4.22.56.1.06.18.06.22 0l.03-.03a1.54 1.54 0 01.15-.42c.07-.1.25-.17.54-.23.3-.05.53-.03.7.05.06.04.1.1.13.16a.2.2 0 01-.03.19l-.51.69.3.16 1.03-1.38zm1.38-5.25l-.85.03.03.74.8-.03.02-.74zM38.69 20c.07.03.14.08.2.12l.33-.16a3.92 3.92 0 01-.25-.22 2.43 2.43 0 00-.25-.11.75.75 0 00.03-.33.8.8 0 00-.15-.4.9.9 0 00-.56-.36 1.02 1.02 0 00-.7.07c-.23.11-.4.33-.49.65-.1.32-.1.56 0 .7l.44.02a2.59 2.59 0 010-.57c.01-.19.12-.34.33-.44a.6.6 0 01.36-.05.4.4 0 01.29.17c.05.09.09.17.1.25 0 .08-.02.15-.06.21l-.19.01-.23.03.05.38a.94.94 0 01.2-.04h.31c.09.01.17.04.24.07zm-4.2-5.25l.32.15.04.01.18-.31a14.7 14.7 0 00-11.72-1.04l-.06.02h-.01l.05.14.06.19 1.68-.38.35 1.12-.12.19a.45.45 0 01-.26.13.41.41 0 01-.31-.05.42.42 0 01-.2-.24c-.04-.14-.02-.25.06-.33a.7.7 0 01.47-.18l-.22-.31a2.5 2.5 0 00-.63.29c-.2.12-.24.34-.14.65.06.21.2.37.4.46.2.09.42.1.65.05a.95.95 0 00.44-.22l.18.56.5-.11-.38-1.2.13-.24a.36.36 0 01.23-.15c.11-.02.2 0 .29.05a.4.4 0 01.16.21c.05.15.04.3-.03.42-.07.13-.14.24-.22.34l.44.15c.1-.14.19-.3.27-.47a.75.75 0 00.03-.56.69.69 0 00-.37-.42.88.88 0 00-.61-.06.66.66 0 00-.3.13l-.16.16-.15-.46c.76-.12 1.52-.2 2.27-.21h.4l-.04 2.2h.52l.05-2.19h.18l.82.07.23.05-.2.75c-.05.18 0 .36.13.53.14.18.32.29.54.33.2.04.39.03.56-.02l-.22.82.5.1.58-2.15.13.03.72.22-.01.01 1.34.58-.3.5a.53.53 0 01-.1.1c-.05.02-.11.02-.2-.02a.354.354 0 01-.23-.26 1.82 1.82 0 01-.04-.34l-.47.05a14.66 14.66 0 00.27 1.56l.15.5.46-.08a31.34 31.34 0 01-.21-.61 5.29 5.29 0 01-.1-.52c.04.03.12.06.25.08.12.03.22.04.28.03.07-.01.14-.04.21-.1.08-.06.13-.1.15-.14l.34-.56zm-3.14-1.12l-.24.89a.53.53 0 01-.22.12.64.64 0 01-.35.03c-.14-.03-.23-.08-.27-.16a.36.36 0 01-.03-.28l.22-.78.9.18zm-2.49-1.13c.18-.12.3-.3.34-.53l-.51-.03a.42.42 0 01-.17.3.55.55 0 01-.38.1.54.54 0 01-.37-.14.4.4 0 01-.12-.32l-.49-.03c.01.24.1.43.26.57.16.15.4.23.71.25.31.02.55-.04.73-.17zm-12.02 9.18l.08-.46-.37-.04-.11.68.4-.18zm.2 5.12l-.28-.73-.4.1.24.63.24.62.08.1c.03.03.09.03.16.01.08-.02.2-.13.36-.34.17-.2.24-.35.21-.42a.109.109 0 00-.08-.08.4.4 0 00-.16 0l-.19.06-.18.05zm6.21-7.55a4.6 4.6 0 00-2.38 4.17c0 2.06.85 3.09 1.7 4.11.05.06.1.1.13.16l.4-.67c.11-.22.24-.43.37-.66a4.75 4.75 0 01-.77-1.92h1.21v3.84c.4.62 1.08.96 2.06 1.02V17.76a2.67 2.67 0 00-2.02.8v4.05H22.7c.06-.82.48-1.47 1.03-2.04l-.24-.67-.24-.66zm2.18 9.53h.02V18.24l-.04.01-.05.01-.05.01-.05.02-.05.01-.04.02-.05.02-.05.02-.05.02-.05.02-.05.03-.05.03-.05.03-.05.03-.05.03-.06.04-.05.04-.05.04-.05.04-.04.03v4.32h-2.33l.05-.56v-.08l.02-.09.02-.08.01-.08.02-.08.02-.08.03-.08.02-.08.03-.08.03-.08.03-.07.03-.08.04-.07.03-.07.04-.07.04-.07.04-.07.04-.07.04-.07.05-.07.04-.06.05-.07.05-.06.05-.07.05-.06.05-.06.05-.06.05-.05-.03-.08-.01-.04-.02-.04-.03-.08-.01-.04-.02-.04-.01-.05-.02-.04-.01-.04-.02-.04-.05.04-.11.09-.1.1-.1.1-.1.1-.1.1-.1.1-.08.1-.08.11-.08.12-.07.1-.07.13-.06.11-.07.13-.05.12-.06.13-.05.13-.04.13-.04.14-.04.13-.03.15-.03.14-.02.15-.02.15-.02.15-.01.15-.01.16v.53l.02.18.02.17.02.16.03.16.02.15.04.15.04.14.04.14.04.13.05.13.05.13.05.12.06.12.06.11.06.12.06.1.07.12.07.1.07.1.07.11.07.1.08.1.07.1.08.1.01-.04.03-.04.02-.04.02-.04.03-.04.02-.04.02-.04.03-.04.02-.04.03-.04.02-.05.01-.02-.02-.03-.03-.06-.04-.07-.03-.06-.04-.06-.03-.06-.03-.06-.03-.06-.03-.07-.03-.06-.03-.06-.03-.07-.03-.06-.03-.07-.02-.06-.03-.07-.02-.06-.03-.07-.02-.07-.02-.06-.02-.07-.02-.07-.01-.07-.02-.07-.02-.07v-.07l-.02-.07-.01-.07-.08-.55h2.31v4.15l.04.05.03.04.03.04.04.03.04.04.03.03.04.04.04.03.04.03.04.03.05.03.04.03.05.02.05.03.05.02.05.02.05.02.05.02.06.02.06.02.06.02.06.01zm5.25-8.5h-2.03l-.01-.5-.02-.49c-.1-.23-.22-.23-.33 0v8.67c.14.16.3.16.5 0v-1.43h1.9v1.33c.06.87-.39 1.3-1.07 1.6l-.85.01-.86.02c-.98-.1-1.47-.71-1.63-1.67v-8.58c.32-.97 1.04-1.47 2.18-1.48 1.16-.08 1.86.45 2.2 1.22l.01.65.01.64zM28.3 18.2h.09l.1-.01h.42l.07.01.07.01.07.01.06.02.06.02.06.01.06.02.05.03.05.02.06.03.04.03.05.03.05.03.04.03.05.04.04.04.04.04.04.04.04.04.04.05.03.05.04.05.03.05.04.06.03.05.02.05.01.53v.24h-1v-.62l-.07-.13-.04-.06-.04-.06-.05-.06-.07-.07-.1-.07-.14-.05-.18-.03-.18.03-.14.05-.1.07-.07.07-.06.06-.04.06-.03.06-.07.14v8.9l.16.17.05.05.07.05.07.04.09.04.1.03.1.02h.21l.1-.01.09-.03.08-.03.07-.04.06-.03.06-.05.23-.16v-1.2h.85v1l.01.06v.18l-.02.05v.06l-.02.04v.05l-.02.04-.02.05-.02.04-.02.04-.02.03-.02.04-.02.03-.02.03-.03.04-.03.03-.03.03-.03.02-.03.03-.04.03-.03.03-.04.02-.04.03-.04.03-.05.02-.04.02-.05.03H27.9l-.06-.02-.06-.01-.06-.01-.06-.02-.05-.02-.05-.02-.05-.02-.04-.02-.05-.03-.04-.02-.04-.03-.04-.03-.04-.03-.04-.04-.03-.03-.04-.04-.03-.04-.03-.05-.03-.04-.03-.05-.03-.06-.03-.05-.03-.06-.02-.06-.02-.06-.03-.07-.02-.07-.02-.07-.01-.07-.02-.08v-8.57l.03-.07.03-.07.03-.07.03-.06.04-.06.03-.06.04-.06.04-.05.04-.05.04-.04.04-.05.05-.04.04-.04.05-.04.05-.03.05-.03.05-.03.05-.03.06-.03.06-.02.06-.02.06-.02.06-.02.07-.02.07-.02h.07l.08-.02h.08l.08-.01zm2.64 0c.67.12 1.27.49 1.76 1.2v6.47c.47-.39.76-.93.88-1.61h1.56c-.48 2.12-1.98 3.64-4.2 4.74V18.2zm3 6.73l.02-.07.02-.06.02-.07v-.04h.49v.03l-.07.17-.07.18-.07.16-.08.17-.08.16-.09.16-.09.15-.1.16-.1.15-.1.14-.12.15-.12.14-.12.14-.13.13-.13.13-.14.13-.14.13-.14.13-.16.12-.15.12-.16.12-.17.12-.17.11-.17.11-.16.1v-9.34h.01l.05.03.04.03.05.03.04.03.05.04.04.03.04.04.05.04.04.04.04.04.05.05.04.04.04.05.04.05.05.05.04.06.01.01v7.43l.94-.81.05-.05.05-.04.05-.05.04-.05.05-.05.04-.05.04-.05.05-.05.04-.06.04-.05.03-.06.04-.05.03-.06.04-.06.03-.05.03-.06.03-.06.03-.06.03-.07.02-.06.03-.06.02-.06z"/><path fill-rule="evenodd" d="M28 30c4.26 0 7.5-3.02 7.5-6.5S32.26 17 28 17s-7.5 3.02-7.5 6.5S23.74 30 28 30zm0 1c4.7 0 8.5-3.36 8.5-7.5 0-4.14-3.8-7.5-8.5-7.5s-8.5 3.36-8.5 7.5c0 4.14 3.8 7.5 8.5 7.5z"/></svg>