<svg width="56" height="56" viewBox="0 0 56 56" xmlns="http://www.w3.org/2000/svg"><path fill="#F0F3FA" d="M0 0h56v56H0z"/><path d="M31.03 19.01c0-2.89 1.82-5.85 2.7-6.85-.1-.05-.33.05-.7.2-.7.3-1.86.8-3.35.8-1.81 0-2.6-.36-3.3-.68a3.97 3.97 0 0 0-1.9-.48c-1.97 0-3.17 1.38-3.17 2.03 0 .65.29 1.27.94 1.27 1.06 0 1.32-.94 1.32-1.27 0-.18-.07-.28-.14-.38-.06-.08-.12-.15-.12-.27 0-.26.18-.47.42-.47.44 0 1.14.5 1.84.99 1.43.96 2.13 1.16 3.04 1.16.52 0 .87-.1 1.07-.18.11-.05.23-.06.31.02.08.08.1.23.02.32-.79.97-1.11 2.53-1.11 4.08 0 .8.15 1.28.31 1.78.17.51.34 1.04.34 1.96a5.9 5.9 0 0 1-1.32 3.98 1 1 0 0 0-.34-.03c.21-3.33-1.19-4.66-3.14-6.53l-.98-.95c-2.05-2.03-2.86-5.42-2.95-6.75-.1.04-.2.28-.34.64-.28.7-.75 1.89-1.8 2.95-1.28 1.28-2.1 1.58-2.82 1.84-.57.21-1.07.4-1.68 1.01-1.4 1.4-1.26 3.22-.8 3.68.46.46 1.1.7 1.56.23.75-.75.27-1.6.03-1.83a.56.56 0 0 0-.36-.16c-.1-.02-.2-.03-.28-.12-.18-.18-.2-.46-.04-.62.31-.32 1.16-.46 2-.61 1.7-.34 2.33-.69 2.98-1.33.36-.37.54-.68.62-.9.04-.1.12-.2.24-.2.11 0 .22.1.23.22.14 1.24 1 2.57 2.1 3.66.57.57 1.03.8 1.49 1.04.48.24.98.5 1.63 1.14a5.91 5.91 0 0 1 1.89 3.74 1 1 0 0 0-.26.22c-2.2-2.5-4.13-2.46-6.84-2.4l-1.36.01c-2.89 0-5.85-1.82-6.85-2.7-.05.1.05.34.2.7.3.7.8 1.86.8 3.35 0 1.81-.36 2.6-.68 3.3a3.97 3.97 0 0 0-.48 1.9c0 1.97 1.38 3.17 2.03 3.17.65 0 1.27-.29 1.27-.94 0-1.06-.94-1.32-1.27-1.32-.18 0-.28.07-.38.14-.08.06-.15.12-.27.12-.26 0-.47-.18-.47-.42 0-.44.5-1.14.99-1.84.96-1.43 1.16-2.13 1.16-3.04 0-.52-.1-.87-.18-1.07-.05-.11-.06-.23.02-.31.08-.08.23-.1.32-.02.97.79 2.53 1.11 4.08 1.11.8 0 1.28-.15 1.78-.31a5.66 5.66 0 0 1 1.96-.34c2.06 0 3.4.78 3.98 1.32a.99.99 0 0 0-.01.34c-3.34-.22-4.68 1.18-6.55 3.14l-.95.98c-2.03 2.05-5.42 2.86-6.75 2.95.04.1.28.2.64.34.7.28 1.89.75 2.95 1.8 1.28 1.28 1.58 2.1 1.84 2.82.21.57.4 1.07 1.01 1.68 1.4 1.4 3.22 1.26 3.68.8.46-.46.7-1.1.23-1.56-.75-.75-1.6-.27-1.83-.03a.56.56 0 0 0-.16.36c-.02.1-.03.2-.12.28-.18.18-.46.2-.62.04-.32-.31-.46-1.16-.61-2-.34-1.7-.69-2.33-1.33-2.98a2.7 2.7 0 0 0-.9-.62c-.1-.04-.2-.12-.2-.24 0-.11.1-.22.22-.23 1.24-.14 2.57-1 3.66-2.1.57-.57.8-1.03 1.04-1.49.24-.48.5-.98 1.14-1.63a5.87 5.87 0 0 1 3.77-1.89 1 1 0 0 0 .22.23c-2.54 2.21-2.5 4.15-2.44 6.87l.02 1.36c0 2.89-1.82 5.85-2.7 6.85.1.05.34-.05.7-.2.7-.3 1.86-.8 3.35-.8 1.81 0 2.6.36 3.3.68.55.25 1.03.48 1.9.48 1.97 0 3.17-1.38 3.17-2.03 0-.65-.29-1.27-.94-1.27-1.06 0-1.32.94-1.32 1.27 0 .18.07.28.14.38.06.08.12.15.12.27 0 .26-.18.47-.42.47-.44 0-1.14-.5-1.84-.99-1.43-.96-2.13-1.16-3.04-1.16-.52 0-.87.1-1.07.18-.11.05-.23.06-.31-.02a.24.24 0 0 1-.02-.32c.79-.97 1.11-2.53 1.11-4.08 0-.8-.15-1.28-.31-1.78a5.66 5.66 0 0 1-.34-1.96c0-2.1.8-3.45 1.36-4.02a1 1 0 0 0 .3.01c-.23 3.37 1.17 4.71 3.14 6.59l.98.95c2.05 2.03 2.86 5.42 2.95 6.75.1-.04.2-.28.34-.64.28-.7.75-1.89 1.8-2.95 1.28-1.28 2.1-1.58 2.82-1.84.57-.21 1.07-.4 1.68-1.01 1.4-1.4 1.26-3.22.8-3.68-.46-.46-1.1-.7-1.56-.23-.75.75-.27 1.6-.03 1.83.12.13.25.15.36.16.1.02.2.03.28.12.18.18.2.46.04.62-.31.32-1.16.46-2 .61-1.7.34-2.33.69-2.98 1.33a2.7 2.7 0 0 0-.62.9c-.04.1-.12.2-.24.2a.24.24 0 0 1-.23-.22c-.14-1.24-1-2.57-2.1-3.66a5.16 5.16 0 0 0-1.49-1.04c-.48-.24-.98-.5-1.63-1.14a5.85 5.85 0 0 1-1.89-3.8.99.99 0 0 0 .22-.2c2.22 2.55 4.16 2.5 6.88 2.45l1.36-.02c2.89 0 5.85 1.82 6.85 2.7.05-.1-.05-.33-.2-.7-.3-.7-.8-1.86-.8-3.35 0-1.81.36-2.6.68-3.3.25-.55.48-1.03.48-1.9 0-1.97-1.38-3.17-2.03-3.17-.65 0-1.27.29-1.27.94 0 1.06.94 1.32 1.27 1.32.18 0 .28-.07.38-.14.08-.06.15-.12.27-.12.26 0 .47.18.47.42 0 .44-.5 1.14-.99 1.84-.96 1.43-1.16 2.13-1.16 3.04 0 .52.1.87.18 1.07.05.11.06.23-.02.31a.24.24 0 0 1-.32.02c-.97-.79-2.53-1.11-4.08-1.11-.8 0-1.28.15-1.78.31-.51.17-1.04.34-1.96.34-2.1 0-3.44-.8-4.01-1.35a.99.99 0 0 0 .02-.31c3.36.23 4.7-1.18 6.57-3.14l.95-.98c2.03-2.05 5.42-2.86 6.75-2.95-.04-.1-.28-.2-.64-.34a8.24 8.24 0 0 1-2.95-1.8c-1.28-1.28-1.58-2.1-1.84-2.82-.21-.57-.4-1.07-1.01-1.68-1.4-1.4-3.22-1.26-3.68-.8-.46.46-.7 1.1-.23 1.56.75.75 1.6.27 1.83.03a.56.56 0 0 0 .16-.36c.02-.1.03-.2.12-.28.18-.18.46-.2.62-.04.32.31.46 1.16.61 2 .34 1.7.69 2.33 1.33 2.98.37.36.68.54.9.62.1.04.2.12.2.24 0 .11-.1.22-.22.23-1.24.14-2.57 1-3.66 2.1-.57.57-.8 1.03-1.04 1.49-.24.48-.5.98-1.14 1.63a5.88 5.88 0 0 1-3.77 1.89 1 1 0 0 0-.2-.25c2.52-2.2 2.48-4.14 2.42-6.85l-.02-1.36Z"/></svg>