<svg width="56" height="56" viewBox="0 0 56 56" xmlns="http://www.w3.org/2000/svg"><path fill="#F0F3FA" d="M0 0h56v56H0z"/><path fill-rule="evenodd" d="M21.23 13.92c2.68-2.07 6.13-2.6 9.93-2.44l.02-.05A12.02 12.02 0 0 0 16 23a12 12 0 0 0 8.67 11.53l.1-.04a12 12 0 0 1-.25-.11l-.18-.19a11.16 11.16 0 0 1-3.16-5.9l5.07 1.54.2-.66-5.4-1.63c-.22-1.69-.15-3.72.46-6.16l6.46 1.93.2-.65-6.49-1.94c.13-.47.28-.96.46-1.46v-.02c.35-.86.92-2.32 1.96-3.74l5.48 1.66.2-.66-5.23-1.58a9.37 9.37 0 0 1 6.6-3.44 9.84 9.84 0 0 0-7.42 3.2l-2.5-.76Zm-.34 6.56c.13-.52.28-1.05.46-1.6a11.47 11.47 0 0 1 1.9-3.64l-2.64-.8a12.16 12.16 0 0 0-3.22 5l3.5 1.04Zm-3.7-.39c-.53 2.07-.4 4.28.27 6.37l2.85.86c-.24-1.79-.13-3.83.41-6.17l-3.53-1.06Zm3.24 7.98-2.68-.8c1.2 2.98 3.52 5.62 6.59 7.03a10.15 10.15 0 0 1-3.9-6.23ZM31.01 12.1c1.27.87 3.02 2.8 3.77 5.78l-4.93-1.53 1.16-4.25Zm6.25 7.31-1.57-.46c.25 1.67.2 3.6-.32 5.78l1 .3 2.98 1.13-3.33-.48-.83-.24a13.93 13.93 0 0 1-2.77 5.42l.24.07 2.99 1.13-3.33-.48-.45-.13c-.84.85-1.73 1.47-2.61 1.93a11 11 0 0 1-4.38 1.21v.01A12.02 12.02 0 0 0 40 23a12 12 0 0 0-8.69-11.54 10.8 10.8 0 0 1 4.23 6.64l3.74 1.16-2.02.14Zm-2.73 5.85a13.06 13.06 0 0 1-2.83 5.38l-5.3-1.6 1.54-5.67 6.59 1.89Zm-9.46 8.63 1.1-4.07 4.94 1.42a10.33 10.33 0 0 1-6.04 2.65Zm9.64-9.36c.53-2.21.54-4.14.25-5.8l-5.33-1.56-1.47 5.4 6.55 1.96Z" fill="#ED1B24"/><path d="M41 44h-2.66v-.1c.39 0 .56-.37.56-.7 0-1-1.12-1.84-2.1-2.14-.52-.16-1.26-.06-1.3-.06l-.64 1.88c-.19.5 0 .98.56 1V44H33v-.13c.47-.07.76-.4.93-.82l2.27-5.35c.1-.28.02-.58-.33-.6V37h2.66v.1c-.35.06-.4.33-.3.63l2.19 5.71c.14.26.3.4.58.46v.1Zm-2.8-2.84-1.28-3.35-1.22 2.62s.7-.1 1.32.08c.32.1.78.33 1.19.65ZM32.8 37.14c-.62.06-.8.52-.8 1.09v4.9c0 .43.38.7.77.74V44h-3.03v-.13c.42-.02.76-.3.76-.73V37.7l-2.48 3.8L26 37.66v5.48c0 .42.38.68.77.73V44H24v-.13c.42-.02 1-.3 1-.73v-4.9c0-.57-.37-1-.98-1.11V37h3.36v.14c-.14-.01-.26.05-.3.16-.03.1.04.16.07.24L28.4 40l1.34-2.35c.01 0 .27-.29.16-.44a.37.37 0 0 0-.12-.09V37h3.02v.14ZM23 37.14c-.8.06-1 .52-1 1.09v4.9c0 .45.59.69.98.74V44h-3.24v-.13c.4-.02.76-.31.76-.73v-3.66h-3v3.66c0 .44.36.68.77.73V44H15v-.13c.42 0 1-.32 1-.73v-4.9c0-.58-.12-1-.98-1.11V37h3.27v.14c-.6.06-.79.52-.79 1.09V39h3v-.76c0-.57-.12-1-.74-1.11V37H23v.14Z" fill="#ED1B24"/></svg>