<svg width="56" height="56" viewBox="0 0 56 56" xmlns="http://www.w3.org/2000/svg"><path fill="#F0F3FA" d="M0 0h56v56H0z"/><path d="M5 25v-1h8v1h-.56a9.17 9.17 0 0 1-.3 7H11c.24-.34.52-.9.73-1.61-.22.08-.53.14-.9.14-.8 0-1.4-.44-1.6-.66l-1.45.9-.57-1.01a2.89 2.89 0 0 0 2.3-1.4c.07.44.45 1.34 1.32 1.34.55 0 .94-.35 1.19-.73a8.27 8.27 0 0 0-.56-3.97H9v1.53c-.05.6-.62 1.95-2.5 2.47v-.72c.56-.3 1.68-1.12 1.68-2.02V25H6.46A8.2 8.2 0 0 0 7 32H5.87a9.77 9.77 0 0 1-.39-7H5Zm9 7v-8h4v2h6v4h2v-4h6.22l1.41 1.51L35.04 26H42v4h2v-6h4v2h3v2h-3v2h3v2H38v-4h-2v4h-4v-4h-2v4H20v-4h-2v4h-4Z" fill="#141414"/></svg>