<svg width="56" height="56" viewBox="0 0 56 56" xmlns="http://www.w3.org/2000/svg"><path fill="#F0F3FA" d="M0 0h56v56H0z"/><path fill-rule="evenodd" d="M4.97 24h-.55L4 25h1v6h2v-6h4v1H8.9c-.3 0-.9.2-.9.92 0 .52.47.92.9 1.16-.56.35-.9.87-.9 1.52 0 1.37 1.87 1.9 3.63 1.9a7 7 0 0 0 1.29-.14c.08-.07.24-.3.24-.64-.24.05-.9.15-1.58.15-.85 0-1.8-.45-1.8-1.4 0-.94.72-1.35 1.6-1.35.88 0 1.06.45 1.06.77s-.03.76-1.19.59v.36c.12.04.56.1 1.31.1.94 0 1.44-.62 1.44-1.23s-.69-1.21-2.62-1.21a6.1 6.1 0 0 0-1.46.16c-.17-.12-.4-.33-.4-.57 0-.3.35-.43.52-.46H13V25h11v1h-1.98c-.68-.02-2.02.38-2.02 2-.02.68.44 2 2.44 2h.1c.42-.02 1.05-.04 1.46-.43v.93h2V28h-2v.77c-.14.21-.41.61-1.17.61-.97 0-1.13-.88-1.13-1.38 0-.5.43-1.28 1.35-1.28H26V25h3.14c.37.27.78.73.7 1.3-.07.48-.36.83-.64 1.05H27.6v.96c0 1.8 1.62 2.34 2.43 2.39h1.93l.33-.7h-1.47c-1.47 0-1.68-1.35-1.6-2h3.24l.2-.65h-1.51a1.67 1.67 0 0 0 0-2.35H38v1h-1.91c-.38 0-2.81.12-2.81 2.38S35.1 31 35.79 31c.55 0 .83-.07.9-.1v-.51c-.57-.06-1.72-.51-1.72-1.84s1-1.54 1.5-1.55H38v4h2v-6h1v6h2v-6h6v1h-3.29c-.75.07-2.26.59-2.26 2.06 0 1.83 2.17 1.94 2.55 1.94.38 0 2.43-.05 2.07-2.34h-1.48l.22.25v.71a.81.81 0 0 1-.8.67c-.7 0-.78-.71-.78-1.23 0-.53.36-.8.97-1.06H49v4h2v-6h1l-.35-1H10.96c.3-.2.57-.53.57-.95 0-.88-.48-2.05-3.26-2.05s-3.55 1.13-3.55 1.78c0 .49.1 1 .25 1.22Zm2.22 0H9.7c.19-.17.38-.47.38-.95 0-.92-1.07-1.05-1.82-1.05s-1.61.32-1.61 1.05c0 .42.28.76.53.95Zm13.07 2.5-.48.62h-2.26c-.38.02-1.15.32-1.15 1.37 0 .44.17 1.31.86 1.31.7 0 .86-.61.86-.92v-.64l-.15-.21h1.37c.05.13.16.5.16.85 0 .45-.47 1.62-2.24 1.62-1.76 0-2.38-1.01-2.38-2.13 0-1.12.96-1.87 2.16-1.87h3.25Zm1.75 5.31-.51.72A5.47 5.47 0 0 0 25.37 34c1.62 0 2.1-1.1 2.13-1.64-.02-.46-.47-1.36-2.06-1.36-.9 0-1.52.44-1.72.66l.46.48c.16-.22.62-.67 1.2-.67.71 0 .86.5.86.89 0 .38-.69 2.28-4.23-.55Z" fill="#B72935"/></svg>