<svg xmlns="http://www.w3.org/2000/svg" width="56" height="56" viewBox="0 0 56 56"><path fill="#F0F3FA" d="M0 0h56v56H0z"/><path d="M32 21.52l.38-1.29.12.04c.1.04.22.09.39.09.21 0 .4-.08.61-.17.24-.09.48-.19.8-.19.22 0 .58.23.58.23l-.34 1.32s-.35-.2-.64-.22c-.27 0-.5.07-.73.14-.21.06-.42.13-.67.13-.17 0-.5-.08-.5-.08zm2.44.34L34 23.32s.38.08.58.08c.28 0 .52-.07.77-.15.26-.08.53-.16.84-.15.32 0 .73.24.73.24l.39-1.48s-.4-.26-.67-.26c-.36 0-.64.11-.91.22-.24.1-.46.18-.7.18-.2 0-.34-.05-.46-.1a1.9 1.9 0 0 0-.13-.04zm2.54 1.99l-.46 1.53s.41.12.62.12c.3 0 .54-.07.79-.15.25-.08.51-.16.84-.15.35.01.87.2.87.2l.36-1.55s-.38-.24-.67-.24c-.38 0-.68.1-.97.21-.25.1-.49.18-.75.18-.2 0-.35-.05-.47-.1l-.16-.05z" fill="#10B698"/><path fill-rule="evenodd" d="M30.7 31l1.19-3h-.9l.51-1.3h.9s.36-.97.64-1.6c.15-.37.27-.56.6-.8.34-.25.94-.3 1.24-.3H36.27l-.43 1.4s-.33-.1-.74-.1c-.4 0-.56.37-.56.37l-.38 1.03H35l-.44 1.3h-.91l-1.18 3H30.7zm20.64-6.5c-.6.14-1.82.48-1.9.5l-.27.7h-.97l-.5 1.3h.96l-1.04 2.58s-.12.29-.12.6c0 .39.22.82.97.82 1 0 1.52-.23 1.52-.23l.51-1.17s-.39.1-.69.1c-.4 0-.37-.37-.28-.6.28-.74.83-2.1.83-2.1h1.12l.52-1.3h-1.13l.47-1.2zM37.5 31l1.97-5h1.76l-.26.66C41.69 26 42.25 26 43 26l-.55 1.3c-.64.05-1.84.36-2.2 1.28L39.3 31h-1.8zm-3.05 0l1.97-5h1.76l-1.93 5h-1.8zm12.85-4.7l-.41 1.2s-.46-.2-.86-.2c-.4 0-1.03.06-1.03.37 0 .13.19.3.42.49.38.33.89.76.8 1.32-.2 1.26-1.61 1.6-2.75 1.51-.7-.05-1.47-.33-1.47-.33l.44-1.36s.5.4 1.14.4c.51 0 .92-.11.92-.44 0-.1-.14-.21-.32-.36-.44-.37-1.14-.96-.6-1.96.42-.8 1.26-.94 2.17-.94.68 0 1.55.3 1.55.3zM18 26l-2 5h1.68l.98-2.45s.36-1.25 1.08-1.25c.73 0 .24 1.17.24 1.17L19 31h1.64l1-2.53s.36-1.17 1.01-1.17.4.79.25 1.17l-1 2.53h1.64l1.37-3.45c.04-.09.1-.3.1-.43 0-.4-.16-1.12-1.2-1.12-1.1 0-1.8.6-1.8.6s-.29-.6-1.15-.6c-.86 0-1.41.66-1.41.66l.22-.66H18zM6.75 24L4 31h1.89l1.02-2.55s.4-1.15 1.23-1.15.67.87.56 1.15L7.68 31h1.85l1.4-3.5s.07-.22.07-.4c-.01-.87-.74-1.1-1.5-1.1-1.03 0-1.94.8-1.94.8l1.1-2.8h-1.9zm8.19 6.26c1.36-.98 1.94-2.56 1.28-3.54-.67-.97-2.3-.96-3.68.02-1.36.98-1.94 2.56-1.28 3.54.67.97 2.3.96 3.68-.02zm-1.64-.56c.35 0 .78-.26 1.11-.7.45-.61.52-1.31.16-1.6a.54.54 0 0 0-.36-.1c-.35 0-.78.24-1.1.67-.45.61-.52 1.32-.16 1.6.1.08.21.13.35.13zm15.39 1c-.51.22-.97.3-1.9.3-.68 0-1.27-.21-1.6-.69-.13-.23-.2-.51-.2-.83 0-.9.54-2.02 1.59-2.75 1.41-1 3.08-.95 3.73 0 .37.52.11 1.4-.28 1.97H26.8c-.17.62.08 1.02 1 1a5.1 5.1 0 0 0 1.51-.3c-.1.25-.3.68-.45 1l-.15.3zM27.1 28h1.65c.17-.54-.12-.8-.44-.8-.48 0-1 .5-1.22.8z" fill="#1579BD"/></svg>