<svg width="56" height="56" viewBox="0 0 56 56" xmlns="http://www.w3.org/2000/svg"><path fill="#F0F3FA" d="M0 0h56v56H0z"/><path d="m47.73 25.25 3.83-.24c.09-1.34-.89-4.01-5.5-4.01-4.63 0-5.65 2.67-5.59 4.01.03.92.6 2.9 2.69 3.47.5.18 1.73.59 2.62.8 1.1.28 2.27.67 2.27 1.69 0 1.01-1.06 1.37-1.9 1.37-.84 0-2.01-.26-2.27-2.27l-3.87.2c-.12 1.57.95 4.73 6.14 4.73 6.5 0 5.92-4.76 5.77-5.72-.16-.95-1.16-2.21-3.12-2.84-.56-.18-1.16-.32-1.75-.46-1.47-.35-2.8-.67-2.8-1.4 0-1.02 1.04-1.12 1.53-1.12h.03c.5 0 1.55 0 1.92 1.79ZM31 28c0 2.03-.76 3.88-2 5.3V35h4.31l6.02-8.68a5.2 5.2 0 0 1 .2-2.91 4.89 4.89 0 0 1 1.9-2.41H38.9l-5.85 8.65V21H29v1.7a7.97 7.97 0 0 1 2 5.3Zm-16 0c0-2.03.76-3.88 2-5.3V21h-4v5H8v-5H4v14h4v-6h5v6h4v-1.7a7.97 7.97 0 0 1-2-5.3Z" fill="#364A87"/><path fill-rule="evenodd" d="M23 35a7 7 0 1 0 0-14 7 7 0 0 0 0 14Zm0-4.12a2.88 2.88 0 1 0 0-5.76 2.88 2.88 0 0 0 0 5.76Z" fill="url(#a)"/><defs><linearGradient id="a" x1="23" y1="21" x2="23" y2="35" gradientUnits="userSpaceOnUse"><stop stop-color="#88D4F6"/><stop offset=".96" stop-color="#079BDB"/></linearGradient></defs></svg>