<svg xmlns="http://www.w3.org/2000/svg" width="56" height="56"><path fill="#F0F3FA" d="M0 0h56v56H0z"/><path d="M27.64 28s-.18 4.2-4.17 7.98c-3.08 2.89-8.12 6.52-11.51 4.37-1.4-1.04-4.06-6.1 15.68-12.35zm0-.03s.47-3.84 4.13-7.9c2.59-2.88 8.06-6.46 11.43-4.33 1.38 1.02 4.03 6.03-15.56 12.23z" fill="#E44232"/><path d="M27.64 28s-.18-4.2-4.17-7.98c-3.08-2.89-8.12-6.52-11.51-4.37-1.4 1.04-4.06 6.1 15.68 12.35z" fill="#F6D809"/><path d="M27.54 27.97a70.23 70.23 0 00-2.64 0c-13.42-.43-13.02-4.12-12.63-5.22.23-.66.65-1.06 1.2-1.27 2.3 1.88 6.55 4.1 14.06 6.49zm.06.03h.04-.04z" fill="#FFC95D"/><path d="M27.6 27.97h-.07c-7.52-2.4-11.76-4.61-14.07-6.5.34-.12.72-.18 1.14-.18 1.8 0 4.17 1.08 5.79 1.92a61.22 61.22 0 017.2 4.76zm.03.03l-.02-.01h.03z" fill="#F8C018"/><path d="M27.64 27.97s.18 4.19 4.34 7.96c3.22 2.88 8.48 6.5 12.02 4.36 1.46-1.03 4.23-6.07-16.36-12.32z" fill="#F6D809"/><path d="M42.16 34.28c-2.47-1.84-6.9-4-14.52-6.31h.1c.6 0 1.18 0 1.73-.02C43.24 28 43.45 31.9 43 33.21c-.16.5-.46.85-.84 1.07z" fill="#FFC95D"/><path d="M40.73 34.6c-1.7 0-3.98-.93-5.85-1.85a42.45 42.45 0 01-7.25-4.78c7.64 2.31 12.06 4.47 14.53 6.3-.39.24-.88.33-1.43.33z" fill="#F8C018"/><path d="M13.53 34.47a1.87 1.87 0 01-1.27-1.26c-.44-1.3-.24-5.05 12.64-5.25.82.03 1.69.04 2.62.04h.08l-.03.02c-7.47 2.37-11.72 4.57-14.04 6.45z" fill="#E38748"/><path d="M14.54 34.6c-.36 0-.7-.04-1-.13 2.31-1.88 6.57-4.08 14.03-6.45-.48.4-3.75 3.03-7.19 4.74-1.86.92-4.14 1.85-5.84 1.85z" fill="#DF6728"/><path d="M27.64 27.97c7.71-2.44 11.98-4.7 14.23-6.6.5.24.9.67 1.13 1.36.4 1.13.81 4.94-13.53 5.22h-.21c-.53 0-1.06 0-1.62.02zm0 0z" fill="#E38748"/><path d="M27.64 27.97a60.9 60.9 0 017.24-4.79c1.63-.84 4-2.05 5.79-2.05.44 0 .85.07 1.2.24-2.25 1.9-6.52 4.16-14.23 6.6z" fill="#DF6728"/><path d="M27.63 28s14.27 3.58 14.27-.02c0-1.76-3.5-2.49-14.27.03z" fill="#AB4680"/><path d="M27.64 28s-14.27 3.58-14.27-.02c0-1.76 3.5-2.49 14.27.03z" fill="#AB4680"/></svg>