<svg xmlns="http://www.w3.org/2000/svg" width="56" height="56"><path fill="#F0F3FA" d="M0 0h56v56H0z"/><path d="M31 27v12h1V27h-1zm-12.67-.7l-.37 1.13H16.7l1.02.78-.4 1.25 1.01-.78 1.03.75-.38-1.22 1-.78h-1.27l-.38-1.12zM25 27v12h1V27h-1zm-2 1v11h1V28h-1zm10 0v11h1V28h-1zm2 1v9h1v-9h-1zm-14 0v9h1v-9h-1zm6 1v9h1v-9h-1zm2 0v9h1v-9h-1z" fill="#1EA271"/><path d="M26 16.56l-1 .65V26h1v-9.44zm5 .1V26h1v-8.68l-1-.65zm-7 1.15l-1 .62V27h1v-9.19zm9 .14V27h1v-8.46l-1-.6zm-11 1.07l-1 .64V28h1v-8.98zm13 .12V28h1v-8.27l-1-.6zm-6.66 1.54c-.6 0-.89.9-.89.9h.62l-1.07.96V29h3v-6.8l-1.14-1.34s-.16-.18-.52-.18zm10.53 5.71l-.37 1.14h-1.26l1.02.76-.41 1.26 1.02-.78 1.02.74-.37-1.22 1.02-.76h-1.3l-.37-1.14zM26.95 11l-1.5.2.3 2.17 1.53-.2-.03-.24-1.26.16-.08-.74 1.15-.16-.04-.25-1.16.16-.09-.7 1.21-.16-.03-.24zM28 11l-.03 2.2h.29l.02-1.73 1.06 1.76h.32l.04-2.19h-.28l-.03 1.77-1.04-1.8H28zm2.34.06l-.04.23.7.12-.29 1.94.29.05.3-1.93.67.1.04-.24-1.67-.27zm-5.83.3l-.4.11-.07 1.94-1.09-1.59-.41.11.61 2.1.3-.08-.5-1.65L24 13.78l.27-.08.07-1.83.5 1.67.28-.1-.61-2.09zm9.15.54l-.16.03-.1.02-.14.08-.12.07-.12.1-.13.15-.08.11-.07.17-.06.25V13l-.02.23.03.23.05.15.1.16.06.09.08.06.08.07.1.05.17.06.13.04.17.02h.2l.15-.03.25-.1.2-.16.12-.18.1-.14.04-.09.02-.06.02-.06.04-.28.01-.13-.01-.2-.02-.1-.06-.15-.07-.14-.13-.14-.1-.1-.12-.07-.21-.1-.24-.04h-.16zm-11.74.2l-1.55.72.11.22.66-.31.82 1.76.27-.13-.82-1.76.61-.3-.1-.2zm11.71.08h.21l.14.01.1.06.08.03.09.07.11.14.08.16.03.07.02.17-.02.26-.05.13-.06.16-.09.14-.1.12-.16.13-.1.06-.09.02-.16.02h-.08l-.15-.04-.04-.02-.12-.07-.11-.08-.07-.06-.06-.1-.05-.09-.01-.08-.03-.11V13l.03-.15.04-.11.05-.1.08-.13.09-.11.13-.1.06-.05.11-.06.1-.01zm2 .54l-1.02 1.92.25.13.46-.87.9.5.12-.23-.9-.49.33-.62 1.02.56.12-.2-1.28-.7zm-15.95.53l-.15.03-.12.07-.92.58 1.16 1.85.23-.14-.51-.8.61-.39.16-.05h.07l.07.01.07.04.09.08.3.42.06.06.03.03.3-.2-.06-.06h-.05l-.04-.03-.1-.06-.13-.21-.11-.18-.13-.12-.15-.05h-.13l.06-.12.01-.12v-.19l-.02-.06-.08-.14-.09-.09-.2-.12-.12-.04h-.11zm.04.3h.08l.07.04.04.05.04.04.06.09.02.06v.15l-.04.12-.04.05-.04.05-.04.01-.62.4-.38-.6.56-.38.11-.05.1-.02.08-.01zm18.29.5l-1.28 1.77.24.17.55-.8.9.66-.58.8.24.16 1.26-1.76-.23-.17-.54.74-.87-.65.52-.75-.21-.17zm-20.92.99l-.27.22.75 2.2.26-.23-.24-.63.63-.51.6.34.24-.2-1.97-1.2zm.1.39l.82.51-.52.42-.3-.93zm22.94.77l-.15.02-.14.04-.18.08-.03.02-.05.04-.13.11-.14.15-.07.1-.14.24-.05.1-.03.13-.02.09v.25l.03.1.06.15.05.1.07.09.07.08.11.1.1.08.2.1.22.07h.16l.16-.01.15-.03.05-.03.2-.1.16-.11.09-.1.14-.17.07-.11.08-.17.04-.11.03-.16v-.11l-.02-.15-.03-.1-.05-.14-.04-.09-.07-.1-.12-.14-.18-.16-.16-.07-.14-.05-.16-.03h-.14zm-24.35.12l-.16.04-.08.05-.1.11-.64.77 1.67 1.4.17-.21-.71-.6.47-.59.07-.08.03-.1.02-.1-.01-.1-.03-.09-.07-.16-.1-.14-.07-.06-.12-.08-.15-.05h-.19zm24.36.16h.15l.2.04.14.08.08.07.03.02.1.12.07.14.03.1.02.14v.11l-.04.15-.02.1-.08.14-.07.07-.19.18-.13.1-.19.08-.17.04h-.13l-.16-.02-.15-.06-.08-.08-.06-.06-.03-.02-.09-.13-.04-.12-.04-.12v-.25l.04-.09.07-.2.15-.2.17-.15.18-.1.13-.05.1-.03zm-24.3.13l.1.02.08.04.05.01.06.08.07.11.01.07v.22l-.47.58-.54-.48.42-.53.04-.04.02-.02.05-.03.12-.03zM14.1 18l-.72 1.33 1.9 1.04.74-1.37-.23-.1-.6 1.1-.64-.35.57-1.02-.23-.13-.56 1.03-.6-.34.58-1.07-.21-.12zm28.15.06l-1.26.88-.07.06-.1.14-.07.14-.03.14v.16l.02.15.09.2.13.2.16.16.18.12.14.04.15.02.13-.02.07-.02.15-.08 1.25-.89-.15-.24-1.27.88-.16.06-.14.01h-.05l-.13-.05-.08-.06-.08-.06-.08-.13-.05-.09-.03-.09-.01-.16.03-.13.03-.06.08-.1.06-.05 1.27-.87-.18-.26zM13.3 20.28l-.15.03-.14.04-.11.05-.11.07-.12.12-.08.13-.06.1-.31.81 2.03.78.31-.8.05-.24v-.15l-.03-.15-.03-.09-.08-.12-.1-.11-.22-.2-.35-.18-.18-.05-.17-.04h-.15zm29.93.14l-.14.04-.15.08-.06.04-.07.1-.05.1-.03.19v.13l.15.58.03.11-.02.16-.03.08-.06.08-.06.04-.05.02-.09.01h-.07l-.14-.06-.1-.08-.1-.12-.07-.12-.02-.1-.03-.15v-.1l.04-.15.07-.08.11-.12.06-.03-.13-.25-.08.05-.07.05-.12.12-.05.06-.06.15-.04.16v.08l.02.15.05.16.06.16.09.14.1.12.12.11.13.08.14.05.14.03.08-.02.15-.04.08-.04.1-.08.06-.1.06-.1.02-.19v-.23l-.14-.64v-.14l.01-.08.05-.08.05-.01.1-.04h.07l.08.02.12.07.07.06.08.1.06.14.05.18-.02.13-.02.08-.02.03-.05.06-.07.06-.04.02.14.26.09-.06.08-.06.06-.08.05-.08.04-.1v-.31L44 21.1l-.07-.21-.05-.08-.14-.18-.08-.08-.11-.07-.09-.04-.17-.02h-.06zm-29.94.2h.14l.16.03.28.1.13.07.11.09.14.15.05.1.04.1v.07l-.02.11-.23.6-1.53-.57.2-.54.07-.12.1-.1.1-.05.12-.03.14-.01zm31.38 2.03l-2.08.62.07.26 2.08-.62-.07-.26zm-31.24.86l-.07.32.3.09.1-.33-.33-.08zm-1.44.17l-.13.03-.12.05-.12.1-.13.2-.09.23v.04l-.03.15v.29l.02.1.08.14.1.1.14.1.04.01.16.04h.15l.1-.04.1-.07.1-.08.07-.1.2-.4.05-.14.1-.14.12-.08.09-.04h.04l.12.02.07.04.06.06.05.08.03.08.01.15v.2l-.07.15-.05.08-.05.08-.13.1-.08.03-.11.02h-.1l-.06-.02-.06.27.17.05h.1l.14-.05.08-.02.13-.1.12-.1.04-.07.11-.22.07-.24.01-.16-.01-.17-.03-.15-.07-.13-.09-.12-.1-.1-.08-.05-.15-.05h-.14l-.06.03-.16.06-.06.03-.12.12-.07.1-.22.44-.11.2-.1.1-.03.01-.08.04-.04.02-.04-.02-.08-.04-.08-.05-.04-.07-.05-.07-.02-.1.02-.18.02-.14.04-.1.06-.06.06-.07.06-.05.08-.04.08-.02.08.01.05.01.06-.27-.07-.02-.15-.02zm33.03.25l-2.13.41.06.28 1.69-.33-1.49 1.42.05.32 2.14-.4-.06-.28-1.7.33 1.5-1.4-.06-.35zm-32.12 2.2l-.03.32.34.03.01-.32-.32-.03zm-1.8.28l-.01.3 1.53.1.16.05.08.05.08.06.05.07.03.1.04.1v.1l-.01.15-.04.1-.04.09-.06.06-.06.07-.09.05-.1.04-1.64-.1-.01.31 1.52.1.18-.01.15-.06.08-.05.12-.1.12-.19.03-.07.06-.22.01-.22v-.15l-.03-.08-.05-.14-.03-.06-.1-.13-.04-.05-.1-.08-.07-.04-.14-.04-.09-.01-1.53-.1zm33.3 0l-.4.07-.25.11-.14.09-.16.16-.1.13-.06.13-.04.22-.02.15.03.14.03.17.06.15.16.2.12.12-.25.07.02.2 1.15-.1-.09-.93-.25.01.06.7h-.28l-.08-.04-.13-.07-.05-.05-.1-.14-.03-.05-.07-.17-.02-.13v-.2l.02-.09.05-.12.07-.14.05-.05.1-.08.24-.1.28-.05h.3l.24.09.14.1.08.08.06.1.05.13.04.11.02.1v.1l-.03.16-.03.09-.08.12-.1.11-.11.08h-.02l.02.28.1-.03.07-.02.12-.08.06-.04.09-.14.07-.1.06-.13.04-.24v-.17l-.02-.12-.07-.23-.05-.1-.09-.13-.13-.15-.1-.08-.17-.1-.23-.06-.24-.03zm-1.14 3.7l-.34 1.68.22.05.15-.71 1.9.4.06-.31-1.9-.4.14-.67-.23-.04zm-31.93.14l.08.33.66.05.19.8-.54.38.08.32 1.9-1.3-.08-.34-2.29-.24zm1 .39l.97.1-.8.54-.17-.64zM13.65 32l-2.03.75.11.27 1.6-.59-1.21 1.64.1.31 2.02-.77-.09-.25-1.64.62 1.27-1.66-.13-.32zm29.13.16l-.1.27 1.66.55-1.98.5-.1.32 2.05.68.09-.27-1.64-.54 1.97-.52.1-.3-2.05-.69zm-28.39 1.96l-1.85 1.1.43.76.07.1.1.13.13.09.08.04.15.03h.35l.18-.06.14-.05.05-.01.03-.03.14-.07.15-.11.16-.14.07-.09.05-.1.08-.17.04-.2v-.1l-.02-.16-.03-.07-.06-.15-.44-.74zm27.55.23l-.69 1.34 1.93 1 .7-1.4-.23-.1-.57 1.12-.64-.32.54-1.06-.25-.11-.53 1.05-.61-.33.55-1.08-.2-.11zm-27.62.15l.28.48.02.07.02.07.03.12v.06l-.05.12-.06.12-.14.17-.24.19-.27.13-.21.06h-.12l-.12-.03-.1-.03-.09-.07-.03-.06-.32-.58 1.4-.82zm26.54 1.67l-.27.3 1 1.66-1.77-.71-.27.32 1.65 1.4.2-.22-1.3-1.1 1.67.65.18-.23-.95-1.56 1.32 1.11.2-.22-1.66-1.4zm-24.6.88l-1.18 1.01-.1.15-.04.07-.05.15-.02.08v.15l.02.06.04.17.08.13.07.13.12.1.17.15.13.07.14.03h.22l.12-.02.08-.03.12-.1 1.17-1.02-.19-.23-1.18 1.02-.13.1-.1.02h-.09l-.1-.01-.04-.03-.13-.06-.04-.04-.1-.1-.08-.13-.01-.06-.03-.15v-.09l.03-.1.05-.07.07-.1 1.17-1.02-.2-.23zm23.05 1.21l-.1.04-.04.02-.11.08h-.01l-.75.67 1.42 1.65.2-.18-.6-.71.56-.5.1-.1.05-.11.02-.1v-.17l-.04-.13-.07-.12-.08-.13-.15-.12-.1-.04-.16-.05h-.14zm.05.31h.08l.08.03.12.06.07.1.04.11v.18l-.04.1v.03l-.54.48-.47-.55.49-.45.05-.05.12-.04zm-21.46.23l-1.43 1.63.2.2.61-.7.55.48.07.11.04.13-.02.12-.05.12-.3.36-.06.12.25.24.05-.04-.01-.1.03-.1.04-.06.22-.25.07-.11.05-.08.01-.15-.01-.17.06.03h.12l.1-.02.1-.04.09-.08.1-.09.06-.1.04-.12.03-.11v-.1l-.03-.1-.04-.11-.05-.1-.08-.07-.81-.74zm.04.39l.5.46.12.17.04.08v.12l-.01.07-.02.03-.08.12-.08.05-.06.02-.1.02h-.1l-.06-.04-.05-.04h-.02l-.56-.52.48-.54zm19.61.59l-.23.05-.04.02-.05.01-.04.03-.15.07-.14.12-.1.08-.09.13-.05.1-.06.14-.04.1v.39l.02.1.04.13.04.08.04.09.08.1.16.2.09.09.16.13.14.07.21.06h.3l.15-.04.17-.07.04-.03.15-.12.1-.1.07-.08.07-.1.09-.2.02-.1.02-.17v-.09l-.02-.2-.04-.12-.14-.3-.19-.23-.1-.08-.13-.11-.15-.08-.1-.03-.1-.01-.2-.03zm-.03.29h.15l.1.02.17.08.08.07.1.08.08.1.1.16.1.27.02.1.01.15v.07l-.06.21-.06.1-.04.08-.09.07-.12.09-.1.05-.13.03h-.12l-.2-.03-.1-.04-.1-.05-.15-.14-.13-.13-.01-.04-.1-.14-.05-.16-.02-.09-.02-.13.02-.14v-.07l.04-.1.05-.1.1-.15.14-.1.14-.09h.04l.16-.03zm-17.75.22l-1.13 1.87.88.54.04.03.1.03h.08l.02.01h.19v-.02h.07l.07-.04.1-.06.07-.07.04-.06.06-.1.05-.1.03-.1v-.16l-.03-.08-.1-.15h.05l.09-.01.1-.04.04-.01.1-.07.02-.04.1-.15.03-.1v-.16l-.03-.18-.1-.15-.11-.13-.83-.5zm.11.34l.44.26.09.06.06.07.05.08.01.07.02.08v.06l-.02.06-.05.1-.1.09-.05.03h-.19l-.05-.02-.04-.05-.5-.3.33-.59zm15.47.47l-.27.13.96 1.95 1.2-.6-.11-.23-.93.47-.85-1.72zm-15.96.36l.61.38.09.09.02.07.02.06.01.06v.06l-.03.11-.05.07-.04.05-.1.06h-.18l-.07-.01-.65-.4.37-.6zm2.64.05l-1.56 1.71.3.12.45-.48.75.31-.04.67.3.14.13-2.33-.33-.14zm12.3.03l-1.37.58.82 2.03 1.43-.6-.11-.25-1.16.5-.28-.69 1.08-.44-.1-.24-1.07.45-.26-.65 1.1-.46-.09-.23zm-12.27.4l-.09.96-.59-.26.68-.7zm1.12.04l-.58 2.1.27.09.46-1.7.6 2 .3.08.59-2.11-.28-.08-.47 1.7-.55-2-.34-.08zm9.16.3l-.3.07-.22 1.93-.99-1.68-.28.07 1.2 1.98.3-.07.29-2.3zm-2.14.42l-1.5.12.18 2.18 1.55-.12-.03-.25-1.25.1-.07-.73 1.17-.1-.02-.25-1.16.08-.07-.7 1.22-.1-.02-.23zm-3.8.05l-.07 2.19.86.03h.12l.22-.06.12-.06.08-.06.1-.1.05-.08.07-.14.05-.13.06-.26.02-.24v-.24l-.03-.12-.05-.14-.08-.17-.09-.12-.13-.1-.17-.12-.15-.04-.11-.02-.86-.02zm.28.26l.56.02.13.02.1.06.1.1.08.1.05.13.04.13.02.16v.14l-.02.25-.03.14-.05.13-.06.12-.07.08-.1.07-.1.04-.72-.04.07-1.65z" fill="#097EC4"/></svg>