<svg width="56" height="56" viewBox="0 0 56 56" xmlns="http://www.w3.org/2000/svg"><path fill="#F0F3FA" d="M0 0h56v56H0z"/><path d="M9.5 21a5.5 5.5 0 1 0 0 11H13v-1H9.5a4.5 4.5 0 1 1 0-9H13v-1H9.5Z" fill="#0F2D58"/><path d="M9.5 23a3.5 3.5 0 1 0 0 7H13v-1H9.5a2.5 2.5 0 0 1 0-5H13v-1H9.5Z" fill="#0F2D58" fill-opacity=".5"/><path d="M12.5 25a5.5 5.5 0 1 1 0 11H9v-1h3.5a4.5 4.5 0 1 0 0-9H9v-1h3.5Z" fill="#0F2D58"/><path d="M12.5 27a3.5 3.5 0 1 1 0 7H9v-1h3.5a2.5 2.5 0 0 0 0-5H9v-1h3.5Z" fill="#0F2D58" fill-opacity=".5"/><path d="M51.53 25.57v1.97a7.61 7.61 0 0 0-2.4-.57c-.39 0-1.13.05-1.13.3s.74.36 1.56.41c1.6.14 2.44.87 2.44 1.7C52 31.2 49.29 32 47.5 32a8.67 8.67 0 0 1-3.25-.68v-2.08c1.17.76 2.4.76 2.76.76.36 0 1.02 0 1.02-.3s-.55-.27-1.13-.32c-1.48-.11-2.9-.72-2.9-1.97 0-1.67 2.27-2.41 4.25-2.41 1.57 0 2.85.38 3.28.57ZM20 25h4v7h-4z" fill="#0F2D58"/><path fill-rule="evenodd" d="M39.27 25H34v7h5.27C41 32 43 30.43 43 28.5S41 25 39.27 25Zm-.42 2H37v3h1.85c.63 0 1.15-.8 1.15-1.5s-.52-1.5-1.15-1.5Z" fill="#0F2D58"/><path d="M33 25.52a7.28 7.28 0 0 0-2.75-.52c-2.9 0-5.25 1.57-5.25 3.5s2.35 3.5 5.25 3.5c1 0 1.95-.19 2.75-.52v-2.04c-.4.34-1.05.56-1.78.56C30 30 29 29.27 29 28.5s1-1.5 2.22-1.5c.73 0 1.37.22 1.78.56v-2.04Z" fill="#0F2D58"/></svg>