<svg width="56" height="56" viewBox="0 0 56 56" xmlns="http://www.w3.org/2000/svg"><path fill="#F0F3FA" d="M0 0h56v56H0z"/><path d="M4 24.1C4 22.94 5.02 22 6.28 22h43.44c1.26 0 2.28.94 2.28 2.1v7.8c0 1.16-1.02 2.1-2.28 2.1H6.28C5.02 34 4 33.06 4 31.9v-7.8Z" fill="#00ADFC"/><path d="M4.5 24.31c0-1 .88-1.81 1.97-1.81h8.56c1.09 0 1.97.81 1.97 1.81v7.38c0 1-.88 1.81-1.97 1.81H6.47c-1.09 0-1.97-.81-1.97-1.81V24.3Z" fill="#FC3727"/><path d="m8.68 22.6-3.01 4.74 3.01 4.88 2.77-4.27V31H13v-2.25c.03-.3.1-.75.8-.75.7 0 .72.57.7.92V31h1.43v-2.67c0-.41-.36-1.33-1.7-1.33-.78 0-1.4.52-1.61.74-.03-.23-.27-.67-1-.73L8.68 22.6Z" fill="#F0F3FA"/><path d="M8.75 26.5a.75.75 0 1 0 0-1.5.75.75 0 0 0 0 1.5ZM8 27v4h1.5v-2.76c.28-.24.76-.6 1.1-.6.37 0 .66.26.76.38l.5-.62c-.07-.12-.32-.37-.86-.37-.62 0-1.18.3-1.5.53V27H8Z" fill="#00A6EB"/><path fill="#F0F3FA" d="M18 26h1.5v4H18zM24.22 27.15l-1.26.32c-.12-.36-.38-.62-.77-.62-.56 0-.84.52-.84 1.15 0 .63.32 1.15.84 1.15.45 0 .74-.37.82-.86l1.26.4c-.27.76-1 1.31-2.08 1.31-1.37 0-2.19-.9-2.19-2s.73-2 2.2-2c1.05 0 1.73.47 2.02 1.15ZM25 30v-4h3.65v1H26.5v.5h1.85v1H26.5v.5h2.15v1H25ZM46.5 30v-4H50v1h-2v.5h1.71v1H48v.5h2v1h-3.5ZM30.5 26v4H32v-2.5l.77 2.5h.96l.77-2.5V30H36v-4h-1.93l-.8 2.29-.72-2.29H30.5Z"/><path fill-rule="evenodd" d="M36.53 30h1.34l.17-.5h1.6l.15.5h1.41l-1.59-4h-1.47l-1.6 4Zm2.78-1.5-.44-1.4-.49 1.4h.93Z" fill="#F0F3FA"/><path d="M41.5 30v-4H43v1.45L44.37 26h1.73l-1.6 1.54L46.13 30H44.5l-.94-1.57-.56.54V30h-1.5Z" fill="#F0F3FA"/></svg>