<svg width="56" height="56" xmlns="http://www.w3.org/2000/svg"><path fill="#F0F3FA" d="M0 0h56v56H0z"/><path d="M36.233 26.004l1.597 4.762.01-4.762h.7v4.385H40v.601h-2.801l-.483-1.42h-.8v-.577h.652l-.558-1.932-.093-1.057h.316zm-.316 3.554l-.764.013-.485 1.42h-1.355v-4.987h.75v4.848l1.666-4.848h.188l.093 1.057-.7 1.92h.607v.577zM17.848 30.99v-.452l.24.452h-.24zm0-.93c.306.704.987.917 1.53.93.68.012 1.281-.427 1.479-.766.335-.616.227-2.637.227-3.655 1.124-.1 2.258.126 2.12 1.997-.138 1.708-.872 1.814-2.095 1.75-.08.19-.413.529-.61.642 2.949.289 3.139-.96 3.454-1.877v1.91h3.068v-3.618l2.347 3.617h.572v-4.42h1.292v4.42h.76v-4.408l1.321-.013v-.565h-3.945v3.53l-2.347-3.53h-.533v4.48h-1.903v-1.843h1.607v-.514h-1.607l.01-1.57h1.676v-.553h-2.377v1.658a5.018 5.018 0 00-.355-.804c-.611-.967-1.775-.854-3.126-.854v2.487c0 .816-.06 1.934-1.026 1.946-.838.013-1.006-.628-1.035-1.695.01-.716-.02-1.96-.02-2.738h-.483v4.056zm0-4.056v4.056c-.118-.25-.167-.552-.167-.929v-3.127h.168zm0 4.534l-.897-1.67c.483-.34.73-1.005.572-1.809-.158-.741-.561-1.042-1.291-1.055l-.05.44h.227c.425 0 .562 1.645.187 1.934-.089.088-.237.113-.404.125v.565h.078l1.03 1.922h.55v-.452zm-1.616-4.534l-.05.44h-.631l.01 2.047c.147 0 .404.025.63.012v.565h-.63v1.922h-.76v-4.986h1.431zm-2.89 3.023c.167 0 .345-.013.492-.05a2.28 2.28 0 00.365-.189c.632-.502.632-1.968 0-2.47a1.605 1.605 0 00-.858-.314v.502h.227c.513.1.562 1.164.335 1.68-.098.225-.335.313-.562.338v.503zm0-3.023v.502h-.7v2.006c.167.012.443.037.7.012v.503c-.139 0-.277 0-.405-.013h-.296v1.976H12v-4.986h1.341z" fill="#ED1D24"/><path d="M42.428 27.361s.02.044.129.133c.109.089.148.1.148.1s-.03.133-.03.344c0 .221.08.632.08.62 0-.01-.119-.166-.228-.52-.118-.4-.099-.677-.099-.677zm-.652 1.063s.049-.077.069-.177c.02-.1.02-.177.02-.177s.089-.01.207-.121c.12-.11.198-.21.198-.21s-.03.243-.168.431c-.188.277-.326.254-.326.254zm.514-.219c.099 0 .099.743.099.732 0-.011.406.244.406.477 0 .31-.505.521-.505.521s-.03.256-.08.5c-.049.244-.098.566-.098.566s-.03-.245-.03-.489v-.377s-.267.1-.267.322.07.155.07.277c0 .122-.07.266-.07.266s.03-.221-.148-.343c-.178-.122-.13-.344.01-.433.138-.089.395-.2.395-.2s.01-.21.01-.488c0-.277.01-.41.01-.41s-.475-.078-.485-.267c0-.044.129-.066.277-.066.11 0 .238.033.238.033s.109-.621.168-.621zm.089.976s-.02.222-.04.388c-.02.167-.04.256-.04.256s.288-.1.298-.355c.02-.233-.218-.289-.218-.289zm1.296-2.309v.398s.03-.1.456-.255c.425-.166.692-.177.692-.177l-1.148.034zm.297.643v-.243s.178-.033.346-.033c.297 0 .485.066.485.066s-.089-.01-.168-.01c-.08 0-.099.021-.099.021s.05.155-.05.2c-.098.043-.108.032-.148.043-.04.011-.099.011-.099.011l.06-.066s.02-.01-.02-.055c-.04-.044-.02-.11-.02-.11s-.04.033-.139.077c-.079.055-.148.1-.148.1zm.465 1.577h.287s.149-.188.198-.188c.07 0 .099.133.178.133.02 0 .08-.1.129-.1.079 0 .079.155.109.155h.079v.022h-.248s-.02.055-.069.055c-.05 0-.109-.066-.109-.066h-.554v-.011zm.851.123s-.08.121-.287.121c-.178 0-.257-.088-.307-.121-.01-.011-.03-.011-.05-.011-.019 0-.01.022.01.022s.02.01.03.01c.01.023.02.045.05.09.07.099.208.165.267.165.06 0 .129-.022.238-.133.079-.088.049-.143.049-.143z" fill="#757668"/><path d="M43.388 29.501s.99.522 1.465.522c.277 0 .297-.056.386-.178.089-.122.623-.943.722-1.509l.138-.72s.04.598-.148 1.175c-.178.588-.604 1.198-.693 1.298-.089.1-.227.122-.504.089s-.782-.233-1.01-.422a3.114 3.114 0 00-.356-.255zm2.533 1.899v-.355c0-.144.08-.288.198-.388.119-.1.218-.11.218-.422 0-.3-.01-.266-.01-.399s.089-.266.208-.266c.118 0 .247.177.247.177s-.237 0-.277.333c-.04.333-.04.433-.148.644-.11.2-.208.288-.287.41a1.42 1.42 0 00-.149.266zm.792-1.199l.168.122s.01-.089.1-.199c.088-.11.128-.144.128-.144s-.06-.033-.218.045c-.148.088-.178.176-.178.176zm-.218.622l.218.167s.04-.155.178-.333c.129-.166.208-.2.208-.2s-.158-.033-.346.1c-.198.145-.258.267-.258.267zm1.375-3.607s.01-.544-.207-.544c-.158 0-.416.255-.762 1.509-.208.765.01 1.21.01 1.21s.06-.844.178-1.132c.109-.289.416-1.154.643-1.154.1 0 .139.11.139.11z" fill="#757668"/><path d="M45.99 27.028s-.573-.066-.613.566c-.01.166.02.155.02.444v.366c0 .067.03.166-.138.166h-.584c-.06 0-.09.034-.03.056.07.022.1.033.149.055.05.034.089.045.138.011.04-.022.05-.044.139-.044.089 0 .079 0 .108.033.03.034.04.034.09.034.049 0 .079-.023.138-.1.06-.067.099-.255.109-.577.02-.322.03-.6.138-.777.13-.155.337-.233.337-.233z" fill="#757668"/><path d="M45.97 27.394c0-.088-.059-.155-.138-.155-.079 0-.138.067-.138.155 0 .045.02.089.06.122 0 .011-.01.011-.01.022-.03.034-.08.056-.08.056s.04.022.099-.011a.638.638 0 00.08-.034c.01 0 .019 0 .029-.01.06-.012.099-.067.099-.145zm.04-.745v-.387l-.296-.067s.158.067.227.21c.07.111.07.244.07.244z" fill="#757668"/><path d="M46.169 26.028c0 .066-.02.1-.08.188-.059.09-.079.211-.168.145-.089-.067-.356-.267-1.553-.267-.782 0-1.237.167-1.395.167a.364.364 0 01-.367-.389c0-.277.07-.332.09-.332.01 0 .118.432.544.432.425 0 1.019-.321 1.81-.321.634.01 1.119.343 1.119.377z" fill="#ED1D24"/><path d="M44.655 25.561s-.07-.62-.337-.62c-.089 0-.148.055-.217.055-.188 0-.356-.41-.624-.41-.118 0-.197.044-.267.044-.109 0-.188-.144-.188-.144s0 .432.455.432c.11 0 .228-.011.347.067.475.321.83.576.83.576zm-.198-1.141s-.099.177.247.421c.347.244.376.156.465.355.09.189.09.222.09.222s.079-.11.079-.277c0-.178-.09-.289-.317-.366-.228-.078-.257-.078-.346-.144-.04-.034-.07-.078-.11-.122a.476.476 0 00-.108-.09zm1.148.543s.05.144.099.255c.05.11.119.332.237.332.11 0 .129-.222 0-.288a1.04 1.04 0 01-.217-.155c-.07-.066-.12-.144-.12-.144z" fill="#757668"/><path d="M42.745 26.494s-.564-.632-.98-.632c-.474 0-.514.31-1.058.31h-.01c-.505 0-.525-.332-.525-.332s-.128.155-.178.321c-.06.189-.03.4.218.4.267 0 .663-.378 1.257-.378h.247s.109.156.297.222c.188.067.317.078.346.078.03 0 .03.088-.01.088s-.198.023-.326.023c-.129 0-.366-.056-.614-.056-.247 0-.475.011-.633.111-.158.1-.168.166-.178.277-.01.111.03.333.03.333s.168-.31.514-.31c.247 0 .376.088.554.088.683 0 1.05-.543 1.05-.543z" fill="#EE322D"/><path d="M40 33H12v4h28v-4z" fill="url(#paint0_linear)"/><path d="M17.75 24l1.093-5h1.381l-1.083 5h-1.39zm7.105 0l1.088-5h1.376l-1.079 5h-1.385zm7.105 0l1.093-5h1.38l-1.083 5h-1.39z" fill="#005B76"/><path d="M23.569 20.704h1.385c.188-1.128-.406-1.704-1.762-1.704-1.573 0-2.631.952-2.998 2.594-.326 1.491.317 2.406 1.791 2.406 1.495 0 2.375-.576 2.751-1.855h-1.385c-.198.564-.554.865-1.049.865-.673 0-.93-.526-.722-1.479.217-.99.722-1.528 1.395-1.528.425-.013.623.225.593.701zm7.104 0h1.386c.188-1.128-.406-1.704-1.762-1.704-1.573 0-2.632.952-2.998 2.594-.326 1.491.317 2.406 1.791 2.406 1.494 0 2.375-.576 2.75-1.855h-1.384c-.198.564-.555.865-1.05.865-.672 0-.93-.526-.722-1.479.218-.99.723-1.528 1.396-1.528.425-.013.623.225.593.701z" fill="#005B76"/><path d="M13.698 18.528c1.483-1.594 3.284-2.004 4.005-.914.72 1.09.084 3.268-1.399 4.85-1.483 1.594-3.284 2.004-4.005.914-.72-1.078-.095-3.257 1.399-4.85z" fill="#F99D28"/><path d="M14.672 17.683a4.367 4.367 0 00-.487.457c-1.303 1.382-1.844 3.28-1.197 4.229.657.949 2.267.61 3.591-.797.71-.75 1.197-1.616 1.388-2.425.064-.597-.02-1.125-.275-1.523-.572-.855-1.79-.785-3.02.059z" fill="#AF2A30"/><path d="M15.413 23.247c-.699.563-1.42.844-2.119.727.297.011.53-.34.731-.809a7.98 7.98 0 00.414-1.359c.137-.668.148-1.136.074-1.242-.117-.164-.392-.128-.7.059-.148.082-.339.023-.106-.27.234-.304 1.155-1.03 1.494-1.148.371-.117.784.036.647.469-.106.328-1.388 3.948-.435 3.573zm1.05-5.611c.169.187.063.597-.223.913-.297.317-.689.434-.858.246-.18-.187-.075-.597.222-.925.297-.317.689-.422.858-.235z" fill="#fff"/><path d="M13.041 34.529h.386v.952h.485v.285h-.87v-1.237zm1.716 0h-.386v1.236h.386V34.53zm.459 0h.86v.266h-.484v.223h.455v.258h-.455v.49h-.376v-1.237zm1.32 0h.87v.266h-.494v.223h.465v.258h-.465v.214h.495v.276h-.871v-1.237zm2.56 0h-.386v1.236h.386V34.53zm.459 0h.376l.663.857v-.849h.347v1.229h-.366l-.644-.817v.817h-.376v-1.237zm2.359.989c.109 0 .178-.051.178-.12 0-.093-.079-.119-.237-.153-.258-.06-.376-.145-.376-.333 0-.221.188-.383.485-.383a.82.82 0 01.415.102l-.119.23a.51.51 0 00-.267-.094c-.099 0-.158.043-.158.103 0 .085.099.102.227.128.248.06.386.136.386.35 0 .247-.207.418-.544.418a.776.776 0 01-.505-.171l.179-.239c.108.11.217.162.336.162zm1.369-.989v.657c0 .216.05.303.248.303.237 0 .247-.121.247-.38v-.58h.386v.717c0 .364-.178.52-.633.52-.238 0-.406-.044-.505-.148-.109-.112-.119-.25-.119-.44v-.65h.376zm1.35 0h.425c.198 0 .347 0 .465.08a.367.367 0 01.159.302c0 .196-.109.312-.317.356l.386.498h-.435l-.327-.489v.49h-.366v-1.237h.01zm.435.596c.159 0 .238-.054.238-.16 0-.134-.07-.17-.238-.17h-.079v.33h.08zm1.627-.596h.485l.485 1.236h-.386l-.07-.222h-.544l-.069.223h-.386l.485-1.237zm.435.774l-.148-.41c-.01-.017-.02-.07-.05-.169-.03.09-.04.152-.05.17l-.138.409h.386zm.994-.774h.376l.663.857v-.857h.346v1.236h-.366l-.663-.848v.849h-.356v-1.237zm2.932.431a.454.454 0 00-.326-.143c-.228 0-.376.144-.376.339 0 .177.148.33.376.33a.424.424 0 00.326-.144v.347a.908.908 0 01-.366.077c-.415 0-.722-.263-.722-.619s.297-.618.722-.618a.91.91 0 01.366.076v.356zm.459-.431h.871v.266h-.495v.223h.465v.258h-.465v.214h.495v.276h-.87v-1.237z" fill="#fff"/><defs><linearGradient id="paint0_linear" x1="12.001" y1="34.998" x2="39.999" y2="34.998" gradientUnits="userSpaceOnUse"><stop offset=".227" stop-color="#39569B"/><stop offset=".321" stop-color="#7B5278"/><stop offset=".477" stop-color="#F04C3B"/><stop offset=".621" stop-color="#F47C53"/><stop offset=".675" stop-color="#F47F57"/><stop offset=".725" stop-color="#F58862"/><stop offset=".775" stop-color="#F69675"/><stop offset=".824" stop-color="#F8AB90"/><stop offset=".872" stop-color="#FAC5B3"/><stop offset=".919" stop-color="#FDE5DC"/><stop offset=".953" stop-color="#fff"/></linearGradient></defs></svg>