<svg width="56" height="56" xmlns="http://www.w3.org/2000/svg"><path fill="url(#paint0_linear)" d="M0 0h56v56H0z"/><ellipse rx="9.977" ry="16.558" transform="matrix(.72922 .68428 -.67789 .73517 28 28)" fill="#FA841F"/><ellipse rx="8.907" ry="14.035" transform="matrix(.72922 .68428 -.67789 .73517 28.93 25.413)" fill="#9A0E17"/><path d="M29.597 39.488c-3.322 1.98-6.706 2.828-9.436 2.333 1.295-.417 2.836-1.689 3.85-4.755 1.57-4.754 1.792-7.835 1.792-8.784 0-1.205-1.465-1.171-2.732-.258-1.195.861-1.755.43-1.793.344-.597-1.377 6.062-6.114 9.049-5.683 1.195.172 1.23 1.016-.683 6.114-1.143 3.049-3.002 10.567-.047 10.689zm-.259-18.592c.828.777 2.483.34 3.695-.975 1.213-1.315 1.525-3.011.697-3.788-.828-.777-2.482-.34-3.695.974-1.213 1.316-1.525 3.012-.697 3.789z" fill="#fff"/><defs><linearGradient id="paint0_linear" x1="28" y1="0" x2="28" y2="56" gradientUnits="userSpaceOnUse"><stop stop-color="#E0823B"/><stop offset="1" stop-color="#A53D35"/></linearGradient></defs></svg>