<svg xmlns="http://www.w3.org/2000/svg" width="56" height="56"><path fill="#FFFBDB" d="M0 0h56v56H0z"/><path fill-rule="evenodd" d="M28 43.5c9.73 0 17.5-7 17.5-15.5S37.73 12.5 28 12.5c-9.72 0-17.5 7-17.5 15.5S18.28 43.5 28 43.5zm0 .5c9.95 0 18-7.17 18-16 0-8.84-8.05-16-18-16-9.94 0-18 7.16-18 16 0 8.83 8.06 16 18 16z" fill="#C89011"/><path fill-rule="evenodd" d="M28 43.5c9.16 0 16.53-6.97 16.53-15.5 0-8.53-7.37-15.5-16.53-15.5-9.15 0-16.53 6.97-16.53 15.5 0 8.53 7.38 15.5 16.53 15.5zm0 .5c9.4 0 17.03-7.17 17.03-16 0-8.84-7.62-16-17.03-16-9.4 0-17.03 7.16-17.03 16 0 8.83 7.63 16 17.03 16z" fill="#C89011"/><path fill-rule="evenodd" d="M28 43.5a15.49 15.49 0 100-30.99 15.49 15.49 0 000 30.98zm0 .5a15.99 15.99 0 100-31.99 15.99 15.99 0 000 31.98z" fill="#C89011"/><path fill-rule="evenodd" d="M28.03 43.5c7.88 0 14.33-6.9 14.33-15.5S35.9 12.5 28.03 12.5 13.71 19.4 13.71 28s6.45 15.5 14.32 15.5zm0 .5c8.2 0 14.83-7.16 14.83-16 0-8.83-6.64-16-14.83-16-8.18 0-14.82 7.17-14.82 16 0 8.84 6.64 16 14.82 16z" fill="#C89011"/><path fill-rule="evenodd" d="M28 43.5c7.2 0 13.18-6.87 13.18-15.5 0-8.64-5.97-15.5-13.18-15.5-7.2 0-13.17 6.86-13.17 15.5 0 8.63 5.97 15.5 13.17 15.5zm0 .5c7.55 0 13.68-7.17 13.68-16 0-8.84-6.13-16-13.68-16s-13.67 7.16-13.67 16c0 8.83 6.12 16 13.67 16z" fill="#C89011"/><path fill-rule="evenodd" d="M36.2 39c2.13-2.8 3.46-6.69 3.46-11 0-4.32-1.33-8.21-3.46-11.01-2.13-2.8-5.03-4.49-8.2-4.49-3.17 0-6.07 1.69-8.2 4.49a18.28 18.28 0 00-3.45 11c0 4.32 1.33 8.22 3.45 11.02 2.13 2.8 5.03 4.48 8.2 4.48 3.17 0 6.07-1.68 8.2-4.48zM28 44c6.71 0 12.16-7.17 12.16-16 0-8.84-5.45-16-12.16-16s-12.15 7.16-12.15 16c0 8.83 5.44 16 12.15 16z" fill="#C89011"/><path fill-rule="evenodd" d="M35.28 39.03c1.9-2.8 3.08-6.7 3.08-11.03 0-4.33-1.19-8.23-3.08-11.03-1.9-2.8-4.47-4.46-7.25-4.46-2.77 0-5.34 1.66-7.24 4.46-1.9 2.8-3.09 6.7-3.09 11.03 0 4.33 1.2 8.23 3.09 11.03 1.9 2.8 4.47 4.47 7.24 4.47 2.78 0 5.35-1.66 7.25-4.47zM28.03 44c5.98 0 10.83-7.16 10.83-16 0-8.83-4.85-16-10.83-16S17.2 19.18 17.2 28c0 8.84 4.85 16 10.83 16z" fill="#C89011"/><path fill-rule="evenodd" d="M34.25 39.06c1.65-2.8 2.7-6.71 2.7-11.06 0-4.34-1.05-8.25-2.7-11.05-1.65-2.82-3.87-4.44-6.22-4.44-2.34 0-4.56 1.62-6.22 4.44-1.65 2.8-2.68 6.7-2.68 11.05 0 4.35 1.03 8.26 2.68 11.06 1.66 2.82 3.88 4.44 6.22 4.44 2.35 0 4.57-1.62 6.22-4.44zM28.03 44c5.2 0 9.41-7.16 9.41-16 0-8.83-4.21-16-9.4-16-5.2 0-9.41 7.17-9.41 16 0 8.84 4.2 16 9.4 16z" fill="#C89011"/><path fill-rule="evenodd" d="M32.98 39.1c1.35-2.82 2.2-6.74 2.2-11.1 0-4.36-.85-8.28-2.2-11.1-1.37-2.84-3.16-4.4-4.98-4.4-1.82 0-3.61 1.56-4.98 4.4-1.35 2.82-2.2 6.74-2.2 11.1 0 4.36.85 8.28 2.2 11.1 1.37 2.85 3.16 4.4 4.98 4.4 1.82 0 3.61-1.55 4.98-4.4zM28 44c4.24 0 7.68-7.16 7.68-16 0-8.83-3.44-16-7.68-16s-7.68 7.17-7.68 16c0 8.84 3.44 16 7.68 16z" fill="#C89011"/><path fill-rule="evenodd" d="M31.52 39.14c1-2.83 1.63-6.77 1.63-11.14 0-4.38-.63-8.32-1.63-11.15a10.8 10.8 0 00-1.7-3.27c-.63-.75-1.25-1.08-1.82-1.08-.57 0-1.19.33-1.81 1.08a10.8 10.8 0 00-1.71 3.27c-1 2.83-1.63 6.77-1.63 11.15 0 4.37.63 8.31 1.63 11.14a10.8 10.8 0 001.7 3.28c.63.75 1.25 1.07 1.82 1.07.57 0 1.19-.32 1.81-1.07a10.8 10.8 0 001.71-3.28zM28 44c3.12 0 5.65-7.16 5.65-16 0-8.83-2.53-16-5.65-16-3.12 0-5.65 7.16-5.65 16 0 8.83 2.53 16 5.65 16z" fill="#C89011"/><path fill-rule="evenodd" d="M30.07 39.2A54.01 54.01 0 0031.11 28c0-4.4-.4-8.36-1.04-11.2a13.9 13.9 0 00-1.09-3.3c-.2-.39-.39-.65-.56-.8-.18-.16-.3-.2-.39-.2-.08 0-.2.04-.38.2-.17.15-.37.41-.57.8-.4.74-.77 1.87-1.09 3.3A54.02 54.02 0 0024.96 28c0 4.39.4 8.35 1.03 11.2.32 1.43.7 2.55 1.1 3.3.2.38.39.64.56.8.17.16.3.2.38.2.09 0 .21-.04.39-.2.17-.16.36-.42.56-.8.4-.75.77-1.87 1.1-3.3zM28.03 44c1.98 0 3.58-7.17 3.58-16 0-8.84-1.6-16-3.58-16-1.97 0-3.57 7.16-3.57 16 0 8.83 1.6 16 3.57 16z" fill="#C89011"/><path fill-rule="evenodd" d="M28.38 39.27c.24-2.87.38-6.86.38-11.27 0-4.4-.14-8.39-.38-11.27-.11-1.44-.25-2.59-.4-3.37l-.01-.07-.01.07c-.15.78-.3 1.93-.4 3.37-.24 2.88-.38 6.86-.38 11.27 0 4.41.14 8.4.37 11.27.12 1.45.26 2.6.4 3.38l.02.06.01-.06c.15-.78.29-1.93.4-3.38zM27.97 44c.71 0 1.3-7.16 1.3-16 0-8.83-.59-16-1.3-16-.72 0-1.3 7.17-1.3 16 0 8.84.58 16 1.3 16z" fill="#C89011"/><path d="M38.57 15.63H17.41v-.5h21.16v.5zM37.8 41.3H18.22v-.5h19.56v.5zm2.77-24.18H15.31v-.5h25.26v.5zm-.83 22.7H16v-.5h23.74v.5zm2.15-21.25H13.92v-.5H41.9v.5zm-.21 19.79H14.33v-.5h27.35v.5zm1.6-18.18H12.72v-.5h30.56v.5zm-.42 16.58H12.98v-.5h29.88v.5zm1.34-14.74H11.8v-.5h32.4v.5zm0 12.39H11.8v.5h32.4v-.5zm.83-10.35H10.82v-.5h34.21v.5zm0 8.31H10.82v.5h34.21v-.5zM24 12.61h8V14h-8zM24 42h8v1.41h-8V42z" fill="#C89011"/><path d="M10 24.57h36V32H10v-7.43z" fill="#FFFBDB"/><path d="M10.55 27.2H10v2.3h.76c-.17 0-.21-.4-.21-.54V27.2zm1.96 0h-.6v1.92c0 .2-.12.39-.12.39h.72v-1.54l1.84 1.54h.59v-2.3h-.59v1.49l-1.84-1.5zm27.49 0h-.6v1.92c0 .2-.13.39-.13.39h.72v-1.54l1.84 1.54h.59v-2.3h-.59v1.49L40 27.2zm-12.32 0a1 1 0 00-1 1v.3a1 1 0 001 1h1.12a1 1 0 00.8-.39h-2.33v-1.45h2.36a1 1 0 00-.83-.45h-1.12z" fill="#E3000F"/><path fill-rule="evenodd" d="M18.17 27.2h-1.94v2.3h1.94a1.15 1.15 0 000-2.3zm-.15.43H16.8v1.45h1.22a.73.73 0 100-1.45zm2.43.73c0-.64.51-1.15 1.15-1.15h.82c.17 0 .33.03.47.1.22 0 .48-.03.61-.07v.73a1.15 1.15 0 01-1.08 1.54h-.82c-.64 0-1.15-.52-1.15-1.15zm.56-.03c0-.4.32-.73.72-.73h.56a.73.73 0 110 1.45h-.56a.73.73 0 01-.72-.72zm9.64.03c0-.64.51-1.15 1.15-1.15h.82c.17 0 .33.03.47.1.22 0 .48-.03.61-.07v.73a1.15 1.15 0 01-1.08 1.54h-.82c-.64 0-1.15-.52-1.15-1.15zm.55-.03c0-.4.33-.73.73-.73h.55a.73.73 0 110 1.45h-.55a.73.73 0 01-.73-.72z" fill="#E3000F"/><path d="M35.14 27.62c0-.17-.15-.34-.23-.41h.79v1.83l1.68-.06V27.2h.84c-.14.07-.2.3-.2.4v1.5c0 .28-.26.38-.39.4H35.7c-.44-.01-.56-.27-.56-.4v-1.5zM46 27.2h-3v.45h1.21v1.86h.7v-1.86H46v-.44z" fill="#E3000F"/></svg>