<svg width="56" height="56" viewBox="0 0 56 56" xmlns="http://www.w3.org/2000/svg"><path fill="#F0F3FA" d="M0 0h56v56H0z"/><ellipse cx="28" cy="28" rx="18" ry="17" fill="#FFC732"/><ellipse cx="28" cy="28" rx="12" ry="17" fill="#0028A1"/><path d="M23 16h6v.46c-.7.02-2 .13-2 .41v5.16c1.72.13 3.34.68 4 .97v1.93h-.71A4.47 4.47 0 0 0 27 22.56v3.4c.16.17.7.52 2 .52V27h-6v-.52c.64-.01 1.76-.13 2-.52v-3.32c-2.39.57-4 2.8-4 5.86 0 2.2 2.41 5 5 5h.3l2.49-5.5 4.58 9.47a4.02 4.02 0 0 0 1.71 1.94h.42V40H30v-.59h1.66c.4 0 .58-.46.62-.7l-2.58-5.1c-.78.15-1.81.31-2.78.37a85.5 85.5 0 0 0-2.1 4.73c-.07.4.37.63.6.7h1.08V40H22v-.59h1.07c.22-.06.67-.5.86-.7L26.07 34c-2.08-.04-7.07-.73-7.07-5.56 0-4.5 3.44-6 6-6.35v-5.22c-.3-.13-.93-.4-2-.4V16Zm4.18 17.4c.8-.13 1.52-.36 2.12-.6l-.96-1.9-1.16 2.5ZM28.75 20h4.46c2.47 0 4.29.81 4.29 3 0 1.77-1.54 2.99-3.11 2.99l3.34 5.17 1.27.32V32h-2.67l-3.59-5.54-.74-.47v-.49h1.81c.58 0 2.19-.48 2.19-2.5s-1.99-2.46-2.79-2.5h-4.46V20Z" fill="#fff"/></svg>