<svg xmlns="http://www.w3.org/2000/svg" width="56" height="56"><path fill="#77787B" d="M0 0h56v56H0z"/><path d="M6 21h10v2a2 2 0 00-2 2v7a2 2 0 002 2v2H6v-2a2 2 0 002-2v-7a2 2 0 00-2-2v-2zm11 0h8v11a2 2 0 002 2v2H17v-2a2 2 0 002-2v-7a2 2 0 00-2-2v-2zm15 0h8v15h-8v-2a2 2 0 002-2v-7a2 2 0 00-2-2v-2zm-1 0h-5v2h1a2 2 0 012 2v2h2v-6z" fill="#fff"/><path d="M28 25h-2v1.5a.5.5 0 01-.5.5v2a.5.5 0 01.5.5V31h2v-6zm13-4h5c2.21 0 3.56 1.79 3.56 4a4 4 0 01-2.06 3.5c1.23.68 2.5 2 2.5 3.5a4 4 0 01-4 4h-5v-2h1a2 2 0 100-4h-1v-3h.5a2 2 0 100-4H41v-2z" fill="#fff"/></svg>