<svg width="56" height="56" viewBox="0 0 56 56" xmlns="http://www.w3.org/2000/svg"><path fill="#104094" d="M0 0h56v56H0z"/><path d="M24.08 16.19 22.17 16a.22.22 0 0 0-.18.06.22.22 0 0 0-.08.17l-.01 1.16a.23.23 0 0 0 .21.23l1.73.16c.06.01.11 0 .16-.04a.23.23 0 0 0 .09-.15l.2-1.14a.22.22 0 0 0-.05-.17.22.22 0 0 0-.16-.1ZM19.45 17.89l1.7-.24c.07-.01.12-.04.16-.09.04-.05.06-.1.05-.16l-.06-1.14a.23.23 0 0 0-.09-.17.23.23 0 0 0-.19-.05l-1.9.27a.23.23 0 0 0-.16.1.22.22 0 0 0-.03.19l.25 1.1c.02.06.05.11.1.14.05.04.11.05.17.05ZM25.18 16.41l1.83.62c.07.02.11.06.14.12.03.06.03.12 0 .18l-.46 1.05a.22.22 0 0 1-.11.12.22.22 0 0 1-.17 0l-1.64-.53a.22.22 0 0 1-.13-.1.22.22 0 0 1-.02-.17l.27-1.12a.22.22 0 0 1 .1-.15.22.22 0 0 1 .2-.02ZM16.92 18.74l1.6-.61c.05-.03.1-.07.12-.12a.23.23 0 0 0 .02-.17l-.32-1.1a.23.23 0 0 0-.13-.14.23.23 0 0 0-.2 0l-1.77.69a.23.23 0 0 0-.13.13.23.23 0 0 0 0 .2l.5 1c.04.06.08.1.14.12.06.02.11.02.17 0ZM28.02 17.5l1.66 1c.05.04.09.09.1.15.01.06 0 .12-.04.17l-.69.94a.2.2 0 0 1-.14.09.22.22 0 0 1-.16-.03l-1.48-.91a.22.22 0 0 1-.09-.3l.53-1.03c.03-.06.07-.1.13-.11.07-.02.13-.01.18.02ZM14.64 20.16l1.43-.98a.21.21 0 0 0 .1-.13c0-.05 0-.1-.03-.16l-.57-1.02a.21.21 0 0 0-.15-.1.22.22 0 0 0-.18.03l-1.6 1.1a.21.21 0 0 0-.09.15c0 .06.01.12.05.17l.74.9c.04.04.08.07.14.08.06 0 .11 0 .16-.04ZM20.89 17.94l1.59-.04c.06 0 .12.02.16.07.05.05.07.1.07.17l-.07 1.18c0 .06-.03.11-.07.15a.23.23 0 0 1-.15.06l-1.4.03a.22.22 0 0 1-.16-.06.21.21 0 0 1-.07-.14l-.12-1.17c0-.07.01-.12.06-.17.04-.05.1-.08.16-.08ZM25.07 18.35l-1.6-.34a.2.2 0 0 0-.15.03.2.2 0 0 0-.09.14l-.15 1.2c0 .05 0 .1.04.14a.2.2 0 0 0 .12.08l1.4.3c.05 0 .1 0 .15-.03a.19.19 0 0 0 .09-.11l.34-1.15a.2.2 0 0 0-.02-.16.2.2 0 0 0-.13-.1ZM20.2 19.66l-1.39.36c-.05.02-.1.01-.14-.01a.19.19 0 0 1-.1-.1l-.4-1.16a.19.19 0 0 1 0-.16.19.19 0 0 1 .13-.1l1.6-.4c.06-.02.11 0 .16.02.05.03.08.08.09.13l.2 1.2c0 .05-.01.1-.04.14a.19.19 0 0 1-.11.08ZM27.46 19.34l-1.45-.67a.21.21 0 0 0-.17 0 .21.21 0 0 0-.13.12l-.4 1.1a.2.2 0 0 0 0 .16c.02.05.05.09.1.11l1.28.6c.05.02.1.02.16 0 .05-.01.1-.05.12-.1l.6-1.01a.2.2 0 0 0 0-.18.2.2 0 0 0-.1-.13ZM18.06 20.3l-1.3.68a.18.18 0 0 1-.23-.07l-.67-1.04a.17.17 0 0 1-.02-.14.18.18 0 0 1 .09-.12l1.48-.77c.05-.02.1-.03.15-.01.05.02.08.05.1.1l.48 1.14c.02.04.02.09 0 .13a.17.17 0 0 1-.08.1ZM29.49 20.4l1.24 1.23c.04.04.09.06.14.06.06 0 .11-.01.16-.05l.9-.76c.04-.04.07-.1.07-.16a.2.2 0 0 0-.07-.16l-1.38-1.37a.2.2 0 0 0-.17-.06.21.21 0 0 0-.16.08l-.75.89a.21.21 0 0 0-.05.15c0 .06.03.1.07.15ZM11.62 21.02l1.17-1.26a.2.2 0 0 1 .15-.07.2.2 0 0 1 .15.06l.71.76a.2.2 0 0 1 0 .28l-1.05 1.15a.2.2 0 0 1-.14.06.2.2 0 0 1-.14-.04l-.82-.63a.2.2 0 0 1-.08-.15.2.2 0 0 1 .05-.16ZM23.43 19.93l-1.39-.13c-.04 0-.08 0-.12.04a.15.15 0 0 0-.05.11v1.31c0 .04.01.08.04.1.03.04.06.05.1.06l1.16.09c.04 0 .08-.01.1-.04a.15.15 0 0 0 .06-.09l.23-1.27c.01-.04 0-.08-.03-.12a.15.15 0 0 0-.1-.06ZM28.3 19.86l1.3 1.02c.05.04.07.08.07.14 0 .06 0 .1-.05.14l-.83.9a.19.19 0 0 1-.13.06.18.18 0 0 1-.13-.05l-1.14-.9a.19.19 0 0 1-.07-.12c0-.05 0-.1.03-.13l.68-1.01a.18.18 0 0 1 .13-.09c.06 0 .1 0 .15.04ZM20.23 21.6l1.14-.18c.04 0 .08-.02.1-.06a.16.16 0 0 0 .04-.1l-.08-1.28a.16.16 0 0 0-.07-.12.16.16 0 0 0-.12-.03l-1.35.2a.16.16 0 0 0-.11.07.16.16 0 0 0-.03.13l.3 1.25c0 .04.03.07.06.1.04.02.08.03.12.02ZM16.13 21.4l-1.12.97a.16.16 0 0 1-.12.04.16.16 0 0 1-.12-.05l-.9-.88a.17.17 0 0 1-.06-.12c0-.06.03-.1.07-.13l1.28-1.1a.16.16 0 0 1 .13-.04c.05 0 .1.03.12.07l.75 1.02c.03.03.04.07.03.12 0 .04-.02.08-.06.1ZM25.5 20.5l-1.3-.41a.16.16 0 0 0-.13.01.17.17 0 0 0-.08.11l-.3 1.23c0 .04 0 .08.02.12.02.04.05.06.1.08l1.08.36a.17.17 0 0 0 .2-.1l.51-1.17a.16.16 0 0 0 0-.13.16.16 0 0 0-.1-.1ZM19.6 21.75l-1.07.43a.15.15 0 0 1-.12 0 .15.15 0 0 1-.08-.08l-.58-1.16a.15.15 0 0 1 0-.12.15.15 0 0 1 .09-.09l1.28-.49a.15.15 0 0 1 .12.01c.04.02.07.05.08.1l.37 1.21c.01.04 0 .08-.01.11a.15.15 0 0 1-.08.08ZM27.39 21.55l-1.15-.7a.17.17 0 0 0-.14-.02.16.16 0 0 0-.1.09l-.57 1.13a.16.16 0 0 0 0 .13c0 .04.03.07.07.1l.96.58c.04.02.08.03.12.02.05 0 .08-.03.1-.07l.76-1.01c.03-.04.04-.09.03-.14a.16.16 0 0 0-.08-.1ZM17.95 22.48l-.95.67a.15.15 0 0 1-.1.02.15.15 0 0 1-.1-.05l-.83-1a.15.15 0 0 1-.04-.12c.01-.05.03-.08.07-.1l1.13-.8a.15.15 0 0 1 .13-.01c.04 0 .07.03.1.07l.64 1.12c.01.04.02.07.01.11 0 .04-.03.07-.06.1ZM22.27 23.22l.08-1.23c0-.05-.01-.1-.04-.13a.16.16 0 0 0-.13-.05l-.98.02c-.05 0-.1.02-.13.06a.16.16 0 0 0-.04.13l.15 1.23c0 .04.02.08.05.1.04.04.07.05.12.05l.76-.02a.17.17 0 0 0 .16-.16ZM10.25 23.29l.8-1.36a.17.17 0 0 1 .11-.08c.05-.01.1 0 .14.03l.78.53c.03.03.06.06.07.1 0 .05 0 .1-.02.13l-.72 1.25a.16.16 0 0 1-.1.08.17.17 0 0 1-.13-.01l-.86-.43a.17.17 0 0 1-.1-.1c0-.05 0-.1.03-.14ZM13.24 21.92l-.97 1.33c-.03.05-.04.1-.03.15.01.06.04.1.09.13l1.05.63c.04.02.09.03.14.02a.18.18 0 0 0 .11-.08l.86-1.16a.18.18 0 0 0 .03-.14.18.18 0 0 0-.06-.12l-.94-.8a.19.19 0 0 0-.15-.04c-.05 0-.1.03-.13.08ZM19.86 23.57l-.43-1.17a.15.15 0 0 1 0-.13.15.15 0 0 1 .1-.08l.97-.26a.16.16 0 0 1 .2.13l.2 1.24c0 .04 0 .08-.02.11a.15.15 0 0 1-.1.07l-.73.2a.15.15 0 0 1-.11-.02.15.15 0 0 1-.08-.09ZM15.39 22.42l-.9 1a.17.17 0 0 0 .02.25l1.02.76c.04.03.08.04.12.04.04 0 .08-.03.11-.06l.75-.83a.17.17 0 0 0 0-.23l-.87-.94a.17.17 0 0 0-.13-.05c-.05 0-.1.02-.12.06ZM18.65 24.21l-.72-1.1a.12.12 0 0 1-.02-.1.12.12 0 0 1 .06-.08l.93-.5a.13.13 0 0 1 .1 0c.04 0 .06.03.08.06l.52 1.2a.13.13 0 0 1-.05.16l-.73.4a.13.13 0 0 1-.1.01.12.12 0 0 1-.07-.05ZM16.65 24.17l.93.9.1.04c.04 0 .07-.02.1-.04l.6-.51a.14.14 0 0 0 .04-.1c0-.04 0-.07-.02-.1l-.76-1.04a.15.15 0 0 0-.22-.02l-.76.65a.14.14 0 0 0-.05.11c0 .05.01.08.04.11ZM11.16 25.6l.65-1.51a.19.19 0 0 1 .1-.1c.06-.03.12-.02.17 0l1.08.57c.04.02.07.06.09.1.02.05.01.1 0 .14l-.57 1.32a.2.2 0 0 1-.24.11l-1.16-.37a.18.18 0 0 1-.11-.1.18.18 0 0 1 0-.16ZM14.02 24.06l-.67 1.2a.15.15 0 0 0-.01.13c.01.04.04.07.08.1l1.2.52c.03.01.07.02.1 0a.15.15 0 0 0 .1-.07l.55-1a.15.15 0 0 0 .01-.1.15.15 0 0 0-.06-.1l-1.08-.73a.14.14 0 0 0-.12-.02.15.15 0 0 0-.1.07ZM9.44 25.5l.46-1.32a.15.15 0 0 1 .1-.1.15.15 0 0 1 .12 0l.79.35c.04.01.06.04.08.08.02.04.02.08 0 .12l-.43 1.2a.15.15 0 0 1-.08.1.15.15 0 0 1-.12 0l-.82-.23a.15.15 0 0 1-.1-.08.16.16 0 0 1 0-.13ZM17.4 25.27l-.99-.83a.14.14 0 0 0-.11-.04.14.14 0 0 0-.1.06l-.6.82a.14.14 0 0 0-.03.12c.01.04.03.07.07.1l1.12.64c.04.02.07.03.1.02.05 0 .08-.03.1-.06l.46-.63a.14.14 0 0 0 .02-.1.14.14 0 0 0-.05-.1ZM15.5 25.8l1.11.6a.16.16 0 0 1 .08.19l-.3.7a.16.16 0 0 1-.2.1L15 27a.15.15 0 0 1-.1-.08.15.15 0 0 1 0-.13l.38-.93a.15.15 0 0 1 .1-.08.15.15 0 0 1 .12 0ZM13.04 26.02l-.36 1.3c-.02.04-.01.08.02.12.02.05.06.07.11.08l1.25.24c.05 0 .09 0 .13-.02a.16.16 0 0 0 .07-.1l.3-1.09a.16.16 0 0 0-.01-.12.16.16 0 0 0-.1-.08l-1.18-.44a.16.16 0 0 0-.14 0 .16.16 0 0 0-.09.11ZM9.06 27.56l.21-1.22c0-.04.03-.07.06-.1a.15.15 0 0 1 .12-.02l.74.17c.04 0 .07.03.1.06l.02.11-.2 1.13c0 .04-.03.07-.06.1a.14.14 0 0 1-.1.02l-.76-.08a.15.15 0 0 1-.13-.17ZM10.95 26.65l-.24 1.39a.2.2 0 0 0 .04.16.2.2 0 0 0 .14.08l1.05.1c.05 0 .1-.01.14-.05a.2.2 0 0 0 .08-.12l.21-1.25c0-.05 0-.1-.03-.14a.2.2 0 0 0-.12-.09l-1.02-.24a.2.2 0 0 0-.25.16ZM14.9 27.34l1.21.3c.04.02.08.04.1.08.03.04.04.08.03.12l-.12.75c0 .04-.03.08-.07.1a.17.17 0 0 1-.12.04l-1.24-.09a.16.16 0 0 1-.12-.07.16.16 0 0 1-.03-.13l.15-.96c.01-.05.03-.09.08-.11a.17.17 0 0 1 .13-.03ZM12.55 28.1l-.05 1.38c0 .04.01.08.04.11.04.04.08.05.12.05l1.29-.06c.04 0 .07-.02.1-.04a.15.15 0 0 0 .05-.1l.06-1.16c0-.04 0-.08-.04-.1a.15.15 0 0 0-.1-.06l-1.3-.17c-.05 0-.09 0-.12.04a.14.14 0 0 0-.05.11ZM9 29.44l.03-1.1c0-.05.02-.08.05-.1a.13.13 0 0 1 .1-.04l.68.05c.03 0 .07.02.1.05.02.02.03.06.03.1l-.02 1.02c0 .04-.02.07-.04.1a.14.14 0 0 1-.1.04l-.68.02a.14.14 0 0 1-.1-.04.14.14 0 0 1-.05-.1ZM12.09 30.2l-.06-1.2a.14.14 0 0 0-.05-.1.14.14 0 0 0-.1-.04l-1-.01a.14.14 0 0 0-.1.04.14.14 0 0 0-.05.11l.06 1.33c0 .04.02.08.05.1.03.03.07.05.11.04l1-.11c.05 0 .08-.02.1-.05a.15.15 0 0 0 .04-.1ZM16 30.09l-1.26.18c-.04.01-.08 0-.11-.03a.14.14 0 0 1-.06-.1l-.06-1c0-.05 0-.08.04-.11a.14.14 0 0 1 .1-.05l1.29.03c.04 0 .07.01.1.04.02.02.04.06.04.1l.05.78a.15.15 0 0 1-.12.16ZM14.36 31.19l-.22-1.11a.16.16 0 0 0-.18-.14l-1.26.14a.16.16 0 0 0-.12.06.16.16 0 0 0-.03.13l.26 1.33c0 .05.03.09.07.11.05.03.09.03.14.02l1.22-.35a.16.16 0 0 0 .1-.07.16.16 0 0 0 .02-.12ZM9.8 29.95l-.6.06a.13.13 0 0 0-.11.15l.1.95c.02.07.08.12.15.12l.6-.07c.07-.01.12-.07.11-.14l-.1-.96a.13.13 0 0 0-.15-.11ZM15.22 31.87l1.16-.49a.16.16 0 0 0 .08-.08.15.15 0 0 0 .01-.1l-.23-.74a.15.15 0 0 0-.07-.09.15.15 0 0 0-.11-.02l-1.23.27a.15.15 0 0 0-.1.07.15.15 0 0 0-.02.13l.3.95c.01.04.04.07.08.1h.13ZM12.12 30.92l.25 1.04-.01.1a.13.13 0 0 1-.08.06l-.86.27a.13.13 0 0 1-.11-.01.13.13 0 0 1-.07-.09l-.27-1.16c0-.04 0-.07.02-.1a.14.14 0 0 1 .1-.07l.87-.14c.04 0 .07 0 .1.02s.05.05.06.08ZM9.43 31.62l.55-.13a.1.1 0 0 1 .13.07l.2.87a.1.1 0 0 1-.07.12l-.55.13a.1.1 0 0 1-.12-.07l-.21-.87a.1.1 0 0 1 .07-.12ZM15.35 32.2l1.15-.56a.14.14 0 0 1 .1 0c.04 0 .07.02.09.06l.4.68c.02.03.03.06.02.1 0 .04-.03.07-.06.09l-1.04.74a.14.14 0 0 1-.12.02.14.14 0 0 1-.1-.07l-.5-.86a.13.13 0 0 1-.01-.12.13.13 0 0 1 .07-.08ZM13.16 32.4l.5 1.12c0 .03.04.06.07.07h.11l1.04-.57a.12.12 0 0 0 .06-.08.13.13 0 0 0 0-.1l-.44-.95a.13.13 0 0 0-.17-.07l-1.1.4a.13.13 0 0 0-.07.07.13.13 0 0 0 0 .1ZM12.53 32.61l.37.86c.02.04.02.07 0 .1a.13.13 0 0 1-.06.08l-.7.35a.13.13 0 0 1-.11 0 .13.13 0 0 1-.08-.07l-.42-.96a.13.13 0 0 1 0-.1.13.13 0 0 1 .08-.08l.75-.25a.13.13 0 0 1 .1 0l.07.07ZM17.22 32.81l-.98.77a.16.16 0 0 0-.07.13c0 .04.02.09.05.12l.68.7c.04.04.08.05.13.05s.09-.02.12-.05l.82-.93a.16.16 0 0 0 .04-.12.16.16 0 0 0-.05-.1l-.52-.55a.16.16 0 0 0-.1-.05c-.05 0-.1 0-.12.03ZM15.2 33.43l.58.8a.1.1 0 0 1 .02.07.1.1 0 0 1-.04.06l-.85.71a.1.1 0 0 1-.08.02.1.1 0 0 1-.07-.04l-.67-.93a.1.1 0 0 1-.01-.07.1.1 0 0 1 .04-.07l.94-.57a.1.1 0 0 1 .07-.02.1.1 0 0 1 .06.04ZM18.47 35.4l.56-1.02a.13.13 0 0 0-.04-.17l-.61-.4a.12.12 0 0 0-.1-.02.13.13 0 0 0-.08.05l-.71.92a.12.12 0 0 0-.03.1c0 .04.03.07.06.09l.77.5c.03.01.06.02.1.01.04 0 .06-.03.08-.06ZM12.98 33.97l-.65.4a.09.09 0 0 0-.03.13l.5.82c.03.04.09.05.13.02l.65-.4a.09.09 0 0 0 .03-.12l-.5-.82a.09.09 0 0 0-.13-.03ZM19.28 34.57l-.46.94a.1.1 0 0 0 0 .1c.01.02.03.04.06.05l.78.3h.09a.11.11 0 0 0 .06-.07l.3-1a.11.11 0 0 0-.06-.14l-.63-.24a.12.12 0 0 0-.08 0 .1.1 0 0 0-.06.06ZM15.96 36.16l-.7-.65a.13.13 0 0 1-.04-.1c0-.03.02-.06.05-.09l.65-.6a.13.13 0 0 1 .1-.04c.03 0 .06 0 .08.03l.62.55a.13.13 0 0 1 .01.19l-.58.7a.13.13 0 0 1-.09.05c-.04 0-.07-.01-.1-.04ZM21.07 36.1l.1-.93a.1.1 0 0 0-.08-.11l-.6-.13a.1.1 0 0 0-.11.07l-.24.93.01.08a.1.1 0 0 0 .07.04l.73.13a.1.1 0 0 0 .08-.02.1.1 0 0 0 .04-.07ZM13.72 35.21l-.52.42a.1.1 0 0 0-.01.14l.52.64c.04.04.1.05.14.02l.52-.42a.1.1 0 0 0 .01-.13l-.53-.65a.1.1 0 0 0-.13-.02ZM16.5 36.51l.7.47a.12.12 0 0 0 .18-.04l.41-.7a.12.12 0 0 0 .01-.09.11.11 0 0 0-.05-.07l-.62-.42a.12.12 0 0 0-.09-.01.12.12 0 0 0-.08.04l-.48.65a.12.12 0 0 0-.02.1c0 .03.02.05.05.07ZM21 34v-6.54a5.88 5.88 0 0 1 2-1.1V34h-2Z" fill="#fff"/><path d="M21 25v1.84c.65-.54 1.71-1.45 2.22-1.84H21Z" fill="#E25A32"/><path d="M25 25v9h2v-3h3v-2h-3v-2h4v-2h-6ZM37 29v2h1v.09c-.08.35-.25.91-1.76.91-.64 0-2.24-.38-2.24-2.54 0-1.2.75-2.46 2.36-2.46 1.22 0 1.38.6 1.64 1h2.43c-.48-2.08-2.21-3-4.19-3A4.27 4.27 0 0 0 32 29.46C32 32.4 34.3 34 36.24 34c1.56 0 2.52-.76 2.76-1.14V34h1.5v-5H37ZM42 34v-9h2v6.95h4V34h-6Z" fill="#fff"/></svg>