<svg width="56" height="56" viewBox="0 0 56 56" xmlns="http://www.w3.org/2000/svg"><path fill="#F0F3FA" d="M0 0h56v56H0z"/><path d="M8 24v8h2v-8H8Zm16 3v-1H13.7c-.94 0-1.7.74-1.7 1.66V32h11.48c.72 0 1.52-1.03 1.52-2 0-1.21-1.06-2-1.52-2H18v1h3.99c.39 0 1.01.17 1.01 1 0 1-.62 1-1.01 1H14v-2.7c0-.74.3-1.3 1.05-1.3H24Zm3 5h2v-5h6.54c.86 0 1.48.5 1.68 1H31v1h9v-.74c-1.47-2.2-3.9-2.25-4.95-2.26H27v6Zm14-6v4.04c0 1.13.93 1.96 2.08 1.96H51v-1h-6.9c-.76 0-1.1-.52-1.1-1.27V26h-2Z" fill="#007C66"/><path d="M7 20.6c0 .91 1.34 1.98 2.02 2.4.65-.37 1.98-1.37 1.98-2.4 0-1.3-1.98-2.75-1.98-4.6 0 2.04-2.02 3.45-2.02 4.6Z" fill="#E40006"/><path d="M7.59 20.81c0 .56.95 1.21 1.42 1.47.46-.23 1.4-.84 1.4-1.47 0-.78-1.4-1.67-1.4-2.8 0 1.25-1.42 2.1-1.42 2.8Z" fill="#FFEF00"/></svg>