<svg width="56" height="56" viewBox="0 0 56 56" xmlns="http://www.w3.org/2000/svg"><path d="M0 28a28 28 0 1 1 56 0 28 28 0 1 1-56 0Z" fill="#F0F3FA"/><circle cx="28" cy="28" r="14" fill="#E00"/><path d="M20 12.5c0-.28.2-.5.47-.5h15.06c.26 0 .47.22.47.5 0 .27-.2.5-.47.5H20.47c-.26 0-.47-.23-.47-.5ZM20 43.5c0-.28.2-.5.47-.5h15.06c.26 0 .47.22.47.5s-.2.5-.47.5H20.47c-.26 0-.47-.22-.47-.5ZM10.23 27.46a.47.47 0 0 1-.16-.65l8.18-13.04a.5.5 0 0 1 .67-.16c.23.14.3.43.16.65L10.9 27.3a.5.5 0 0 1-.67.16ZM10.23 28.68a.46.46 0 0 0-.16.64l8.18 12.9a.5.5 0 0 0 .67.16c.23-.14.3-.42.16-.64l-8.18-12.9a.5.5 0 0 0-.67-.16ZM45.77 27.46c.23-.13.3-.43.16-.65l-8.2-13.04a.5.5 0 0 0-.66-.16.47.47 0 0 0-.16.65L45.1 27.3c.14.23.44.3.67.16ZM45.77 28.68c.23.14.3.42.16.64l-8.2 12.9a.5.5 0 0 1-.66.16.46.46 0 0 1-.16-.64l8.19-12.9a.5.5 0 0 1 .67-.16Z" fill="#ADADAD"/></svg>