<svg width="56" height="56" viewBox="0 0 56 56" xmlns="http://www.w3.org/2000/svg"><path fill="#F0F3FA" d="M0 0h56v56H0z"/><path d="M28 12c-3.95 0-7.77 1.46-10.7 4.11l10.28 13.8L38.3 15.74A15.94 15.94 0 0 0 28 12Z" fill="#56A150"/><path d="M20.87 42c2.21 1.32 4.66 2 7.13 2 2.48 0 4.92-.68 7.14-2H20.87Z" fill="#FAD131"/><path d="M29.95 35.34c-.4.52-.79.85-1.16 1a3.6 3.6 0 0 1-2.62-.08 3.7 3.7 0 0 1-1.27-1.2L13.93 20.53A16.57 16.57 0 0 0 14.47 37h27.06a16.54 16.54 0 0 0 .25-17L29.95 35.34Z" fill="#27743C"/></svg>