<svg width="56" height="56" viewBox="0 0 56 56" xmlns="http://www.w3.org/2000/svg"><path fill="#F0F3FA" d="M0 0h56v56H0z"/><path d="m37 21.22-3.33-.06-1.15-3.06-1.16 3.1-3.3.09.26.67 2.27 1.75-.8 2.78.2.51 2.69-1.79L35.37 27l-.07-.51-.77-2.62L37 21.93v-.7Z" fill="url(#ape54olob)"/><path d="m34.37 23.27.93 3.22-2.78-1.85-2.76 1.85.9-3.2-2.63-2.03 3.33-.16 1.12-3.1 1.19 3.1 3.33.12-2.63 2.05Z" fill="url(#bpe54olob)"/><path d="m32.52 19.02.86 2.27.06.16h.16l2.44.1-1.92 1.5-.13.09.03.16.67 2.33-2.01-1.34-.13-.1-.13.1-2.02 1.34.64-2.33.03-.16-.12-.1-1.93-1.5 2.44-.1h.16l.06-.15.84-2.27ZM32.48 18l-1.15 3.13-3.33.16 2.63 2.04-.9 3.2 2.75-1.86 2.79 1.82-.93-3.2 2.6-2.07-3.34-.12-1.12-3.1Z" fill="url(#cpe54olob)"/><path d="m39 18.71-1.48-.29-.24-1.4-.77 1.23-1.48-.2.06.28.86.93-.58 1.1.06.23 1.32-.55 1.05.96.03-.2-.12-1.2 1.23-.6.06-.29Z" fill="url(#dpe54olob)"/><path d="m37.18 17.46.19.99v.06h.06l1.05.2-.96.5-.06.02v.06l.1 1.01-.78-.72-.06.03-.98.4.46-.9.03-.05-.03-.06-.7-.75 1.07.14h.06l.03-.06.52-.87Zm.1-.46-.77 1.22-1.51-.2 1.02 1.07-.65 1.27 1.38-.58 1.08.99-.15-1.42 1.32-.67-1.48-.29-.24-1.39Z" fill="url(#epe54olob)"/><path d="M50.92 31.17v-.72c0-1-.3-1.7-.86-2.16-.54-.44-1.32-.64-2.4-.64a4.4 4.4 0 0 0-2.45.64 2.8 2.8 0 0 0-.6.58 1.9 1.9 0 0 0-.5-.58c-.54-.44-1.32-.64-2.4-.64a4.4 4.4 0 0 0-2.44.64l-.3.23-.45-.35a4.09 4.09 0 0 0-2.12-.55 4 4 0 0 0-2.48.82c-.3-.56-.9-.85-1.7-.85h-.13c-.62.03-1.13.26-1.43.67-.06-.06-.12-.11-.12-.14a3.78 3.78 0 0 0-2.66-.88c-.93 0-1.76.26-2.42.76-.39.3-.69.64-.87 1.05a2.41 2.41 0 0 0-.63-.82c-.53-.43-1.31-.64-2.39-.64a4.4 4.4 0 0 0-2.45.64.8.8 0 0 0-.24.2c-.06-.05-.09-.11-.15-.14a2.62 2.62 0 0 0-1.79-.67h-.03c-.5 0-.99.12-1.43.38a2.7 2.7 0 0 0-1.44-.38c-.45 0-.9.12-1.28.3-.27-.18-.63-.3-1.02-.3h-.39c-.15 0-.3.03-.45.06.06-.15.06-.3.06-.44v-.17c0-.76-.6-1.55-1.9-1.55H5.9C4.6 25.55 4 26.34 4 27.1v.17c0 .67.48 1.37 1.52 1.52v2.36c-1.04.17-1.52.87-1.52 1.54v.17c0 .76.6 1.55 1.91 1.55h3.11c.5 0 .9-.12 1.23-.32.3.2.65.32 1.07.32h.27c.57 0 1.05-.24 1.38-.61.26.29.6.43.77.5.27.08.54.1.78.1.63 0 1.1-.23 1.43-.63.4.5 1.02.64 1.59.64h.09c.48 0 .87-.18 1.2-.44.38.26.89.4 1.46.4.6 0 1.07-.14 1.43-.31.33.2.78.32 1.4.32h.6c.15 0 .27 0 .4-.03-.04.7.26 1.43.86 1.86.48.35 1.02.59 1.76.7.33.06.7.09 1.05.09.2 0 .42 0 .66-.03a4.66 4.66 0 0 0 2.18-.64 2.67 2.67 0 0 0 1.2-1.9v-.05c.14.03.26.03.38.03.78 0 1.35-.3 1.68-.82.62.53 1.5.82 2.48.82.77 0 1.52-.2 2.12-.56l.24-.14c.42.44 1.04.7 1.8.7.59 0 1.07-.15 1.43-.32.32.2.77.32 1.4.32h.6c.48 0 .9-.12 1.2-.32.35.2.8.32 1.3.32.6 0 1.08-.15 1.44-.32.33.2.78.32 1.4.32h.6c1.17 0 1.8-.58 1.8-1.66v-.15a1.47 1.47 0 0 0-.78-1.43Z" fill="url(#fpe54olob)"/><path d="M51.25 30.65v-.73c0-.99-.3-1.69-.87-2.15A3.67 3.67 0 0 0 48 27c-1.1 0-2.37.41-3.06 1.35-.51-1-1.92-1.35-2.94-1.35-.93 0-2 .32-2.7 1-.8-.63-1.76-1-2.8-1-.99 0-1.63.42-2.26.91-.3-.55-.93-.91-1.74-.91h-.12c-.63.03-1.1.33-1.4.74-.79-.78-1.92-.74-2.98-.74-1.27 0-2.54.29-3.08 1.52C24.4 27.42 23.16 27 22 27c-.76 0-2.29.08-2.79.82a2.77 2.77 0 0 0-1.97-.82c-.5 0-.99.12-1.44.38a2.7 2.7 0 0 0-1.43-.38c-.45 0-.9.12-1.29.3-.26-.18-.62-.3-1.01-.3-.33 0-.53.1-.84.16.06-.15.06-.3.06-.44v-.18c0-.75-.6-1.54-1.91-1.54H6.24c-1.31 0-1.91.79-1.91 1.54v.18c0 .67.48 1.37 1.52 1.51v2.36c-1.04.15-1.52.85-1.52 1.52v.17c0 .76.64 1.72 1.95 1.72H9.4c.51 0 .9-.12 1.23-.32.3.2.66.32 1.07.32.63 0 1.22-.11 1.65-.61.4.43.98.61 1.55.61.63 0 1.1-.23 1.44-.64.4.51 1.05.64 1.67.64.48 0 .87-.17 1.2-.44.38.27.9.44 1.46.44.6 0 1.08-.17 1.43-.35.33.2.78.32 1.4.32.33 0 .64-.13.95-.2-.08 1.96 2.07 2.65 3.68 2.65.2 0 .42 0 .66-.03a4.66 4.66 0 0 0 2.18-.64c.59-.4 1.07-1.04 1.07-1.78.12.03.24.03.36.03.77 0 1.34-.3 1.67-.82.63.53 1.5.82 2.48.82.78 0 1.53-.2 2.12-.55l.24-.15c.42.44 1.05.7 1.8.7.6 0 1.07-.15 1.43-.32.33.2.78.32 1.4.32h.6c.48 0 .9-.12 1.2-.32.36.2.8.32 1.31.32.6 0 1.08-.15 1.44-.32.33.2.77.32 1.4.32h.6c1.17 0 1.92-.76 1.92-1.84v-.14c.03-.61-.24-1.1-.75-1.37Z" fill="url(#gpe54olob)"/><path d="M31.99 28h-.09c-.56.03-.87.34-.9.92v3.16c.03.63.37.92 1.01.92.65 0 .96-.32.99-.92V29.1c0-.81-.28-1.1-1.01-1.1Z" fill="url(#hpe54olob)"/><path fill-rule="evenodd" d="M28.88 34.99c.88-.06 1.78-.52 2.04-1.39.13-.4.1-.84-.08-1.22-.27-.7-1.14-.8-1.78-.85-.38-.02-.8-.02-1.18-.05-.05 0-.08 0-.13-.03-.16-.05-.18-.23-.08-.33.03-.02.05-.02.08-.02.18.02.39.02.62.02 1.2 0 2.11-.4 2.11-1.56v-.05c-.13-1.12-1.13-1.51-2.14-1.51-1.24 0-2.21.72-2.21 1.71 0 .46.18.82.51 1.05-.33.18-.57.41-.62.8a.9.9 0 0 0 .36.94c-.07.1-.18.2-.23.34-.26.46-.08 1.15.23 1.45.64.64 1.66.76 2.5.7Zm1.16-2.1.03.25c-.15.6-.92.95-1.47.95-.63 0-1.55-.45-1.55-1.2.42.41.85.71 1.47.71.63 0 1.07-.26 1.52-.71Zm-2.08-3.35c0 .23.18.4.4.4.24 0 .42-.15.42-.4a.4.4 0 0 0-.41-.41c-.23 0-.41.15-.41.4Z" fill="url(#ipe54olob)"/><path d="M20.08 29.4c0-.57.62-1.4 2.16-1.4 1.47 0 2.06.55 2.06 1.93v1.37c.4 0 .7.15.7.78v.14c0 .5-.13.78-.77.78h-.52c-.49 0-.93-.11-1.13-.57-.2.25-.7.57-1.34.57-.57 0-1.24-.29-1.24-1.2 0-1.1.93-1.39 1.65-1.59l.06-.01c.44-.14.82-.26.82-.53 0-.18-.1-.35-.4-.35-.29 0-.45.18-.63.37-.18.2-.38.4-.75.4-.47-.02-.67-.28-.67-.68Zm1.57 1.88c0 .17.1.28.26.28.07 0 .15-.03.2-.05.13-.1.26-.23.34-.38.04-.07.06-.16.09-.23l.01-.06.01-.08a.4.4 0 0 0 .02-.09c0-.03 0-.11-.05-.08l-.06.04-.05.04a.56.56 0 0 0-.06.05 1.9 1.9 0 0 1-.48.24c-.1.06-.23.14-.23.32Z" fill="url(#jpe54olob)"/><path d="M40.08 29.4c0-.57.62-1.4 2.16-1.4 1.47 0 2.06.55 2.06 1.93v1.37c.4 0 .7.15.7.78v.14c0 .5-.13.78-.77.78h-.52c-.49 0-.93-.11-1.13-.57-.2.25-.7.57-1.34.57-.57 0-1.24-.29-1.24-1.2 0-1.1.93-1.39 1.65-1.59l.06-.01c.44-.14.82-.26.82-.53 0-.18-.1-.35-.4-.35-.29 0-.45.18-.63.37-.18.2-.38.4-.75.4-.47-.02-.67-.28-.67-.68Zm1.57 1.88c0 .17.1.28.26.28.07 0 .15-.03.2-.05.13-.1.26-.23.34-.38.04-.07.06-.16.09-.23l.01-.06.01-.08a.4.4 0 0 0 .02-.09c0-.03 0-.11-.05-.08l-.06.04-.05.04a.56.56 0 0 0-.06.05 1.9 1.9 0 0 1-.48.24c-.1.06-.23.14-.23.32Z" fill="url(#kpe54olob)"/><path d="M46.08 29.4c0-.57.62-1.4 2.16-1.4 1.47 0 2.06.55 2.06 1.93v1.37c.4 0 .7.15.7.78v.14c0 .5-.13.78-.77.78h-.52c-.49 0-.93-.11-1.13-.57-.2.25-.7.57-1.34.57-.57 0-1.24-.29-1.24-1.2 0-1.1.93-1.39 1.65-1.59l.06-.01c.44-.14.82-.26.82-.53 0-.18-.1-.35-.4-.35-.29 0-.45.18-.63.37-.18.2-.38.4-.75.4-.47-.02-.67-.28-.67-.68Zm1.57 1.88c0 .17.1.28.26.28.07 0 .15-.03.2-.05.13-.1.26-.23.34-.38.04-.07.06-.16.09-.23l.01-.06.01-.08a.4.4 0 0 0 .02-.09c0-.03 0-.11-.05-.08l-.06.04-.05.04a.56.56 0 0 0-.06.05 1.9 1.9 0 0 1-.48.24c-.1.06-.23.14-.23.32Z" fill="url(#lpe54olob)"/><path d="M12.28 28c.47 0 .73.29.79.6.44-.43.96-.6 1.49-.6.52 0 1.05.23 1.4.63.37-.4.81-.63 1.4-.63.9 0 1.6.63 1.63 1.52.03.87 0 1.73 0 2.59-.03.52-.38.86-.9.86-.85 0-1.17-.29-1.17-1.12v-1.7c0-.2-.2-.43-.47-.43-.23 0-.47.23-.47.46V31.9c0 1.04-.7 1.24-1.45 1.01-.47-.11-.59-.51-.59-.94v-1.79c0-.23-.2-.43-.43-.43-.24 0-.44.2-.44.43v1.96c-.06.57-.44.86-.9.86h-.27c-.5 0-.9-.34-.9-1v-3c0-.68.4-1 .9-1h.38Z" fill="url(#mpe54olob)"/><path d="M5 26.63c0-.37.34-.63 1-.63h3c.68 0 1 .29 1 .66v.17c0 .37-.34.66-1 .66h-.47v3.99H9c.7 0 1.01.29 1.01.66v.2c0 .37-.34.66-1 .66H6c-.66 0-1-.29-1-.72v-.17c0-.37.34-.66 1-.66h.47v-3.99H6c-.7 0-1.01-.28-1.01-.66v-.17Z" fill="url(#npe54olob)"/><path d="M34 30.49c0 1.47 1.13 2.51 2.69 2.51 1.15 0 2.31-.55 2.31-1.56 0-.32-.23-.7-.72-.7-.81 0-.9.67-1.56.67-.47 0-.7-.46-.7-.92 0-.47.23-.9.7-.9.66 0 .75.66 1.56.66.49 0 .72-.34.72-.69 0-1.01-1.13-1.56-2.31-1.56-1.6 0-2.69 1.04-2.69 2.49Z" fill="url(#ope54olob)"/><defs><linearGradient id="cpe54olob" x1="28.88" y1="24.79" x2="36.75" y2="20.73" gradientUnits="userSpaceOnUse"><stop offset=".01" stop-color="#E5C151"/><stop offset=".13" stop-color="#F6F0BF"/><stop offset=".26" stop-color="#DFB427"/><stop offset=".42" stop-color="#F2EAAB"/><stop offset=".59" stop-color="#F3E07B"/><stop offset=".71" stop-color="#DFB427"/><stop offset=".85" stop-color="#F6F0BF"/><stop offset="1" stop-color="#DFB427"/></linearGradient><linearGradient id="dpe54olob" x1="35.13" y1="19.71" x2="38.94" y2="18.48" gradientUnits="userSpaceOnUse"><stop offset=".27" stop-color="#162A51"/><stop offset=".53" stop-color="#2D5C94"/></linearGradient><linearGradient id="epe54olob" x1="36.55" y1="20.29" x2="37.45" y2="16" gradientUnits="userSpaceOnUse"><stop offset=".03" stop-color="#E5C151"/><stop offset=".17" stop-color="#F6F0BF"/><stop offset=".27" stop-color="#DFB427"/><stop offset=".39" stop-color="#F2EAAB"/><stop offset=".51" stop-color="#F3E07B"/><stop offset=".68" stop-color="#DFB427"/><stop offset=".81" stop-color="#F2E591"/></linearGradient><linearGradient id="fpe54olob" x1="2.4" y1="31.29" x2="53.32" y2="31.29" gradientUnits="userSpaceOnUse"><stop offset=".1" stop-color="#FBA91C"/><stop offset=".51" stop-color="#F37821"/><stop offset=".97" stop-color="#EB6C25"/></linearGradient><linearGradient id="gpe54olob" x1="5.69" y1="24.31" x2="49.99" y2="37.65" gradientUnits="userSpaceOnUse"><stop offset=".01" stop-color="#E6C558"/><stop offset=".11" stop-color="#F3E07B"/><stop offset=".22" stop-color="#F6F0BF"/><stop offset=".31" stop-color="#DFB427"/><stop offset=".42" stop-color="#F2EAAB"/><stop offset=".54" stop-color="#F2DE7A"/><stop offset=".63" stop-color="#F3E07B"/><stop offset=".73" stop-color="#DFB427"/><stop offset=".85" stop-color="#F6F0BF"/><stop offset="1" stop-color="#DFB427"/></linearGradient><linearGradient id="hpe54olob" x1="27.99" y1="38.19" x2="27.8" y2="26.09" gradientUnits="userSpaceOnUse"><stop offset=".35" stop-color="#162A51"/><stop offset=".67" stop-color="#2D5C94"/><stop offset="1" stop-color="#2B5C95"/></linearGradient><linearGradient id="ipe54olob" x1="28.43" y1="37.28" x2="28.26" y2="26.5" gradientUnits="userSpaceOnUse"><stop offset=".35" stop-color="#162A51"/><stop offset=".67" stop-color="#2D5C94"/><stop offset="1" stop-color="#2B5C95"/></linearGradient><linearGradient id="jpe54olob" x1="27.79" y1="38.19" x2="27.58" y2="26.09" gradientUnits="userSpaceOnUse"><stop offset=".35" stop-color="#162A51"/><stop offset=".67" stop-color="#2D5C94"/><stop offset="1" stop-color="#2B5C95"/></linearGradient><linearGradient id="kpe54olob" x1="47.79" y1="38.19" x2="47.58" y2="26.09" gradientUnits="userSpaceOnUse"><stop offset=".35" stop-color="#162A51"/><stop offset=".67" stop-color="#2D5C94"/><stop offset="1" stop-color="#2B5C95"/></linearGradient><linearGradient id="lpe54olob" x1="53.79" y1="38.19" x2="53.58" y2="26.09" gradientUnits="userSpaceOnUse"><stop offset=".35" stop-color="#162A51"/><stop offset=".67" stop-color="#2D5C94"/><stop offset="1" stop-color="#2B5C95"/></linearGradient><linearGradient id="mpe54olob" x1="28.12" y1="38.16" x2="27.94" y2="26.06" gradientUnits="userSpaceOnUse"><stop offset=".35" stop-color="#162A51"/><stop offset=".67" stop-color="#2D5C94"/><stop offset="1" stop-color="#2B5C95"/></linearGradient><linearGradient id="npe54olob" x1="27.19" y1="38.21" x2="27.01" y2="26.13" gradientUnits="userSpaceOnUse"><stop offset=".35" stop-color="#162A51"/><stop offset=".67" stop-color="#2D5C94"/><stop offset="1" stop-color="#2B5C95"/></linearGradient><linearGradient id="ope54olob" x1="28.55" y1="38.25" x2="28.36" y2="26.08" gradientUnits="userSpaceOnUse"><stop offset=".35" stop-color="#162A51"/><stop offset=".67" stop-color="#2D5C94"/><stop offset="1" stop-color="#2B5C95"/></linearGradient><radialGradient id="ape54olob" cx="0" cy="0" r="1" gradientUnits="userSpaceOnUse" gradientTransform="matrix(4.02942 -2.0665 2.06222 4.02109 32.95 23.04)"><stop offset=".1" stop-color="#FBA91C"/><stop offset=".96" stop-color="#F37821"/></radialGradient><radialGradient id="bpe54olob" cx="0" cy="0" r="1" gradientUnits="userSpaceOnUse" gradientTransform="matrix(3.93744 -2.01932 2.01515 3.9293 32.82 22.77)"><stop offset=".1" stop-color="#FBA91C"/><stop offset=".51" stop-color="#F37821"/></radialGradient></defs></svg>