<svg width="56" height="56" viewBox="0 0 56 56" xmlns="http://www.w3.org/2000/svg"><path fill="#F0F3FA" d="M0 0h56v56H0z"/><path d="M36.33 25.95c3.87.58 7.4 2.71 8.67 3.7-4.82-.35-11.5 2.55-14.69 4.27.7-3.05 2.16-8.55 6.02-7.97Z" fill="url(#a)"/><path d="M23 24.68c0-5.3-2.66-9.94-4-11.6 5.3 1 12.32 6.53 12.32 10.33 0 9.56-8.88 12.14-13.32 12.23 1.67-1.45 5-5.67 5-10.96Z" fill="url(#b)"/><path d="M23.02 36c-2.34 0-4.32-.24-5.02-.36 4.4-3.08 13-9.15 13-15.85 0-2.76-1.6-5.95-2.51-8.79 3.68 1.51 11.04 5.71 11.04 11 0 10.6-13.6 14-16.51 14Z" fill="url(#c)"/><path d="M17.19 38.45a.41.41 0 0 0-.16.4c.03.15.15.28.3.3 1 .2 1.64.34 1.95.43.67.2 1.18.76.87 1.56a2.5 2.5 0 0 1-1.32 1.35c-.62.3-1.42.5-2.22.51-.93 0-1.84-.26-2.45-.94-.24-.27-.21-.5.09-.69l.32-.2c.27-.17.54-.15.8.06.22.18.48.36.8.55.6.36 1.1.2 1.78-.1.25-.1.57-.33.56-.66 0-.21-.15-.4-.34-.44a15.6 15.6 0 0 1-2.02-.47c-.62-.22-1.13-1-.67-1.7a3.38 3.38 0 0 1 2.86-1.4c.89-.03 1.79.2 2.49.6.1.07.18.21.17.35-.03.42-.79.54-1.07.52a1.2 1.2 0 0 1-.49-.13c-.8-.43-1.55-.4-2.25.1Z" fill="#030302"/><path d="M26.61 39.39c-.1.07-.1.15 0 .22.58.43.9.87.94 1.32.03.3-.07.68-.3 1.4-.15.47-.46.7-.93.67h-.44c-.48-.03-.6-.26-.35-.7.56-1 .49-1.5-.2-1.67-.81-.2-1.47 0-1.97.59-.13.15-.33.58-.62 1.27-.15.34-.39.5-.73.5h-.63c-.33 0-.46-.17-.33-.5.7-1.86 1.16-3.2 1.84-5 .16-.32.4-.49.74-.49h.53c.33 0 .44.17.35.5L24 39.3c-.04.12.07.25.19.22.36-.09.63-.21.81-.36.63-.49 1.13-.92 1.51-1.3.57-.55 1.2-.85 1.85-.85.18 0 .36.02.54.06.06.01.1.08.09.14l-.03.06a15 15 0 0 1-2.36 2.13Z" fill="#791811"/><path d="M30.3 41.26a.27.27 0 0 0-.18.05.32.32 0 0 0-.12.15l-.4 1.13a.6.6 0 0 1-.59.41h-.7c-.28-.02-.37-.18-.27-.47l1.82-5.2a.5.5 0 0 1 .15-.22c.07-.05.15-.09.24-.1.66-.07 1.24.16 1.85.07.69-.1 1.31-.09 1.88.06.75.2 1.21.62.94 1.57a3.42 3.42 0 0 1-1.9 2.32c-.8.36-1.76.32-2.73.23Zm2.24-3.16c-.74-.04-1.78.53-1.79 1.45 0 .45.38.73.73.73.77 0 1.77-.65 1.77-1.53 0-.44-.33-.63-.71-.65Z" fill="#030302"/><defs><linearGradient id="a" x1="45" y1="29.91" x2="30.31" y2="29.91" gradientUnits="userSpaceOnUse"><stop stop-color="#C6C6C6"/><stop offset=".4" stop-color="#524C4E"/></linearGradient><linearGradient id="b" x1="24.66" y1="13.08" x2="24.66" y2="35.64" gradientUnits="userSpaceOnUse"><stop stop-color="#8E8E8E"/><stop offset="1" stop-color="#B5ADB8"/></linearGradient><linearGradient id="c" x1="28.76" y1="11" x2="28.76" y2="36" gradientUnits="userSpaceOnUse"><stop offset=".16" stop-color="#fff"/><stop offset="1" stop-color="#B2AAB5"/></linearGradient></defs></svg>