<svg width="56" height="56" viewBox="0 0 56 56" xmlns="http://www.w3.org/2000/svg"><path fill="#F0F3FA" d="M0 0h56v56H0z"/><path d="M4 26h1v5H4v-5Z" fill="#204D9C"/><path d="M4 24h1v1H4v-1Z" fill="#D93076"/><path d="M18 23h-1.5v2.88a2.48 2.48 0 0 0-1.87-.88C13.18 25 12 26.34 12 28s1.18 3 2.63 3c.73 0 1.4-.34 1.87-.88V31H18v-8Zm-1.5 5c0 1.03-.6 1.87-1.53 1.87-.94 0-1.47-.84-1.47-1.87 0-1.03.53-1.87 1.47-1.87s1.53.84 1.53 1.87ZM40 25h1.5v.79c.37-.4.88-.76 1.45-.76 1.8 0 2.05 1.77 2.05 2.7V31h-1.5v-3.27c0-.7 0-1.5-1-1.5-.5 0-.82.28-1 .6V31H40v-6Z" fill="#204D9C"/><path fill-rule="evenodd" d="M28.63 25c.73 0 1.4.32 1.87.84V25H32v4.92c.05 1.02-.51 3.08-3.2 3.08-1.17 0-2.2-.49-2.57-.73l.5-1a4 4 0 0 0 2.07.62c1.16 0 1.7-.62 1.7-1.97v-.08c-.48.52-1.14.84-1.87.84-1.45 0-2.63-1.27-2.63-2.84 0-1.57 1.18-2.84 2.63-2.84Zm.33 1.07c.94 0 1.54.8 1.54 1.77 0 .98-.6 1.77-1.54 1.77-.93 0-1.46-.8-1.46-1.77 0-.98.53-1.77 1.46-1.77ZM24 28.53h1v-.03c0-.7 0-3.5-3-3.5a3 3 0 0 0 0 6c1.01 0 2.17-.27 2.71-1.03-.36-.38-.85-.74-.85-.74-.34.49-1.1.7-1.72.7-.77 0-1.4-.59-1.58-1.4H24Zm-.53-.93c-.13-.84-.64-1.47-1.44-1.47-.79 0-1.35.63-1.5 1.47h2.94Z" fill="#204D9C"/><path d="M10 26h1v5h-1v-5ZM8 28h1v3H8v-3Z" fill="#D93076"/><path d="M6 28h1v3H6v-3Z" fill="#204D9C"/><path d="M11 26v1H6v-1h5ZM9 28v1H6v-1h3Z" fill="#56BDEE"/><path d="M10 26h1v1h-1v-1ZM8 28h1v1H8v-1Z" fill="#204D9C"/><path fill-rule="evenodd" d="M51 28.53h1v-.03c0-.7 0-3.5-3-3.5a3 3 0 0 0 0 6c1.01 0 2.17-.27 2.71-1.03-.36-.38-.85-.74-.85-.74-.34.49-1.1.7-1.72.7-.77 0-1.4-.59-1.58-1.4H51Zm-.53-.93c-.13-.84-.64-1.47-1.44-1.47-.79 0-1.35.63-1.5 1.47h2.94ZM38 28.53h1v-.03c0-.7 0-3.5-3-3.5a3 3 0 0 0 0 6c1.01 0 2.17-.27 2.71-1.03-.36-.38-.85-.74-.85-.74-.34.49-1.1.7-1.72.7-.77 0-1.4-.59-1.58-1.4H38Zm-.53-.93c-.13-.84-.64-1.47-1.44-1.47-.79 0-1.35.63-1.5 1.47h2.94Z" fill="#204D9C"/></svg>