<svg width="56" height="56" viewBox="0 0 56 56" xmlns="http://www.w3.org/2000/svg"><path fill="#F0F3FA" d="M0 0h56v56H0z"/><path d="m21.37 27.17.3-.13c.51-.35.56.3.64-.43l.1-1.1c.09-.91.22-1.56-.46-2.1-.33-.27-.94-.62-1.36-.54-.2.04-.34.19-.34.54 0 .64-.1 1.76.36 2.3.01 0 1.25-1.01 1.43-1.1.25 1.1-.46 1.66-.67 2.56Zm4.7-4.88c.14-1.38.66-2.3 1.18-3.3a5.45 5.45 0 0 0-3.43.29 5.62 5.62 0 0 1 1.24 5.4c-.27 1.12-.68 2.1-.68 3.24 0 1.1 1.5 2.04 2.1 2.86.4.57.65.68 1.1 1.35.6.64.48 1.27 1.06 1.48L28.5 33c0-2.78-2.63-3.33-2.63-6.38v-2.26l.2-2.06Zm-5.5 6.88c1.14 0 1.89-.2 2.12-1.06-.6-.02-1.08-.25-1.43-.1-.42.17-.66.57-.7 1.16Zm-2.02 4.76c.28-1.01 2-2.63 3.2-2.63 1.13 0 1.98 1 2.07 2.07-.68-.45-1.33-.94-2.45-.94-1.38 0-1.9 1.26-2.82 1.5Zm4.33-8.64.26 2.97c.03.67-1.12 1.31-1.58 1.54-.95.47-1.06.38-1.7 1.13a4.54 4.54 0 0 1 .25-2.33c.47-1.19 1.13-.94 1.29-3.15-.61.98-.75 1.2-1.11 1.74-.85 1.28-1.17 3.2-1.54 4.12-.66 1.43-2.64 3.63-2.64 5.44 0 1.26 1.11 2.75 2.74 2.65.6.32 1.7.38 2.33-.58-1.14.34-1.66.4-2.23-.17-.21.1-1 .06-1.15-.4 0-.35.38-.12.38-.75 0-.91-.57-1.07-.57-1.31 0-1.1 2.56-3 3.76-3 1.07 0 1.84.83 2.07 1.68-.34-.23-1.24-.94-1.7-.94-1.54 0-3.07.83-3.19 2.26.66-.44 1.37-1.32 2.45-1.32 1.03 0 1.79 1.4 1.88 2.45.35-.24 3.38-2.48 3.38-2.63 0-.06-1.41-2.26-1.63-2.7-.29-.58-1.53-2.6-1.57-2.75 1.56.13 3.19 4.88 3.95 4.88.26 0 .38-.25.38-.56 0-2.37-3.57-3.53-3.57-5.45v-.19c0-1.37.56-2 .56-3.38v-1.32c0-1.69-.9-2.72-2.04-3.32l-1.3 1.68c1.53 1.03 2.2 1.92 1.84 3.71Zm-2.26 11.65c.67 0 .89.67.94 1.32l1-.68c-.31-.55-.9-1.58-1.56-1.58h-.57c-.56 0-1.2.41-1.88.56.22.3.04.38.57.38h1.5Z" fill="#1B1918"/><path d="M35.93 20.95a60.96 60.96 0 0 1-1.85 5.58c-.11.3-.54 1.09-.73 1.78-.3 1.09-.3 1.98-.87 2.26-.2-.16-.2-.9-.2-1.33 0-.56.88-2.86 1.04-4.16.17-1.45.74-3.53 1.6-4.4-1.11-.48-2.99-.74-3.67-.96 0 1.8-.77 3.06-1.3 4.47-.5 1.32-.36 2.18-.36 3.47 0 .8.66 1.43 1.14 2.3 0-1.29.06-2.62.26-3.89.1-.67.23-2.02.73-2.66.48-.6.74-.3.61.34-.4 2-.93 4.08-1 5.97-.06 1.4.12 2.72.2 4.21l.2 1.7 2.06 1.55c-.13-.78-.22-1.46-.27-2.06a9.8 9.8 0 0 1 .81-5.2c.27-.57.65-1.12.98-1.74.43-.81.76-1.6 1.12-2.67.46-1.04 1.45-2.57 1.45-3.93-.63-.13-1.32-.5-1.95-.63Z" fill="#FAB000"/><path d="m43.4 23.91-1.17-.59c-1.63 2.6-1.4 4.35-1.64 7.13a40.16 40.16 0 0 1-.97 6.3l2.77-6.59a9.1 9.1 0 0 1 1-6.25ZM28.51 26.98c0-1.51 1.32-3.87 1.32-6.2v-1.27c-.6-.15-1.24-.38-1.89-.36-.17.47-.31 1.04-.48 1.51-.23.81-.64 2.48-.64 3.32v1.5l.17 1.88c.22 1.68 2.65 3.62 2.65 6.39 0 .57.47.8.94.94v-1.7c0-3.82-2.07-4.28-2.07-5.82v-.19Z" fill="#E30016"/><path d="M36.22 33.37c0-1.57.9-3.22 1.83-3.85-.18 1.65-.34 3.6-.58 5.25-.08.46-.2 1.42-.69 1.42-.45 0-.56-1.33-.56-1.88v-.94Zm3-6.01c0-1.62 1.17-3.4 1.77-4.55l-1.69-.76c-.1.74-2.25 5.31-2.63 5.94-1.51 2.44-2.25 4.88-1.59 7.65.24.96.45 1.91.27 2.54l1.18.93c.06-.42.22-.76.45-1.08.56-.78 1.31-.57 1.81-2.3.19-.65.5-1.87.59-3.23l-.15-5.14Z" fill="#B4007B"/><path d="M28 12a16 16 0 1 1 0 32 16 16 0 0 1 0-32Zm17 16a17 17 0 1 0-34 0 17 17 0 0 0 34 0Z" fill="#1B1918"/></svg>