<svg width="56" height="56" xmlns="http://www.w3.org/2000/svg"><path fill="#F0F3FA" d="M0 0h56v56H0z"/><path d="M19.766 9.734a.85.85 0 011.087.514l6.954 19.392a.85.85 0 11-1.6.574L19.253 10.82a.85.85 0 01.513-1.087z" fill="#FFCC2C"/><path d="M32.086 19.954a.85.85 0 01.371 1.143l-4.692 9.215a.85.85 0 01-1.515-.771l4.692-9.215a.85.85 0 011.144-.372z" fill="#EC8440"/><path d="M26.17 29.787a.85.85 0 01.977-.699l14.587 2.431a.85.85 0 01-.28 1.677l-14.586-2.43a.85.85 0 01-.699-.98z" fill="#90CA58"/><path d="M44.686 21.886a.85.85 0 01-.422 1.125l-16.905 7.69a.85.85 0 11-.703-1.548l16.904-7.69a.85.85 0 011.126.423z" fill="#95559C"/><path d="M27.319 29.136a.85.85 0 01.48 1.102l-6.163 15.66a.85.85 0 01-1.582-.622l6.163-15.66a.85.85 0 011.102-.48z" fill="#48C9E8"/><path d="M27.844 29.78a.85.85 0 01-.69.984l-8.989 1.583a.85.85 0 11-.294-1.674l8.989-1.583a.85.85 0 01.984.69z" fill="#EE1D97"/><circle cx="27.242" cy="29.654" r="1.615" fill="#5B2823"/></svg>