<svg xmlns="http://www.w3.org/2000/svg" width="56" height="56"><path fill="#F0F3FA" d="M0 0h56v56H0z"/><ellipse cx="28.01" cy="31.53" rx="11.85" ry="17.65" transform="rotate(-68.1 28 31.53)" fill="#C4C2C4"/><ellipse cx="27.92" cy="30.88" rx="11.85" ry="17.56" transform="rotate(-68.1 27.92 30.88)" fill="url(#afkcu4bxe)"/><ellipse cx="32.41" cy="14.02" rx="3.22" ry="4.03" transform="rotate(-8.13 32.41 14.02)" fill="url(#bfkcu4bxe)"/><ellipse cx="19.35" cy="13.84" rx="2.22" ry="2.72" fill="url(#cfkcu4bxe)"/><circle cx="30.8" cy="12.15" r=".67" fill="#FFE9FB"/><circle cx="18.36" cy="12.19" r=".53" fill="#FFE9FB"/><path d="M11.56 26.37c.99-4.82 5.83-6.85 8.13-7.26.43 1.07.97 3.93-1 6.25-1.94 2.3-5.5 1.68-7.13 1z" fill="url(#dfkcu4bxe)"/><path d="M17.42 23.26c.07-.85.57-2.57 2.1-2.65.3-.04 1.02.19 1.58 1.44.18.41.48 1.23.85 2.24a73.68 73.68 0 002.75 6.82v4.1c-1.55-1.68-3-5.58-3.96-8.16l-.53-1.4-.7 14.22s-1.74-1.07-3-2.23l.91-14.38zm8.03 7.9c.33-.39 1.3-2.13 2.56-5.98 1.27-3.86 3.64-4.52 4.67-4.37.9.05 2.87.91 3.5 3.95a525.28 525.28 0 012.9 17.66s-2.6 1.38-7.02 1.28c0 0-.82-14.77-1.11-17.32l-2.07 4.78c-1.48 3.4-2.9 4.4-3.43 4.48v-4.48z" fill="#F0F3FA"/><defs><linearGradient id="afkcu4bxe" x1="32.36" y1="14.86" x2="24.94" y2="48.94" gradientUnits="userSpaceOnUse"><stop stop-color="#D91E3E"/><stop offset=".45" stop-color="#DA241C"/><stop offset="1" stop-color="#64130F"/></linearGradient><linearGradient id="bfkcu4bxe" x1="31.11" y1="11.95" x2="34.22" y2="17.67" gradientUnits="userSpaceOnUse"><stop stop-color="#E4698B"/><stop offset=".51" stop-color="#DA241C"/><stop offset="1" stop-color="#64130F"/></linearGradient><linearGradient id="cfkcu4bxe" x1="18.17" y1="12.51" x2="21.57" y2="16.57" gradientUnits="userSpaceOnUse"><stop stop-color="#E4698B"/><stop offset=".48" stop-color="#DA241C"/><stop offset="1" stop-color="#64130F"/></linearGradient><linearGradient id="dfkcu4bxe" x1="14.54" y1="20.37" x2="17.58" y2="24.11" gradientUnits="userSpaceOnUse"><stop offset=".11" stop-color="#FFD1DB"/><stop offset=".94" stop-color="#DE244D"/></linearGradient></defs></svg>