<svg width="56" height="56" xmlns="http://www.w3.org/2000/svg"><path fill="#083F88" d="M0 0h56v56H0z"/><circle cx="28.069" cy="27.671" r="13.46" fill="#fff"/><path d="M23.715 31.012v.191H20.28v-.19s.43-.02.616-.472c.046-.1.069-.362.069-.787v-5.311c0-.434-.023-.704-.069-.812-.092-.218-.616-.406-.616-.406v-.232h3.436v.191s-.496.132-.646.472c-.046.1-.069.362-.069.787v5.311c0 .433.023.704.069.812.198.428.646.446.646.446z" fill="#083F88"/><path d="M17.927 16.127a.327.327 0 00-.279-.13c-.108.005-.27.052-.486.141a3.335 3.335 0 01-.543.178c-.395.082-.697 0-.906-.248a.754.754 0 01-.182-.436.935.935 0 01.112-.501 1.55 1.55 0 01.387-.473c.17-.144.348-.24.534-.291a.935.935 0 01.53-.001.89.89 0 01.435.29l-.492.414a.418.418 0 00-.317-.167c-.12-.003-.243.048-.368.153a.588.588 0 00-.215.314.311.311 0 00.069.284c.065.078.159.11.28.097a1.75 1.75 0 00.471-.144c.35-.152.642-.22.875-.204a.815.815 0 01.585.304.754.754 0 01.176.684c-.057.249-.218.485-.482.708a1.606 1.606 0 01-.586.323c-.208.06-.401.065-.58.015a.93.93 0 01-.46-.306l.493-.416c.222.263.49.262.805-.004a.607.607 0 00.214-.302.307.307 0 00-.07-.282zm3.962-2.307l-1.02.48.08.674-.619.291-.28-3.319.54-.254 2.387 2.325-.618.292-.47-.49zm-1.086-.065l.706-.333-.853-.89.147 1.223zm6.259-.55l-.636.102-1.56-1.83.324 2.027-.635.102-.493-3.083.635-.101 1.564 1.834-.325-2.032.633-.102.493 3.083zm3.058-1.235l-.373.319-.103.886-.639-.074.358-3.101.639.074-.162 1.405.325-.353.908-.929.786.09-1.26 1.252.935 1.854-.76-.088-.654-1.336zm5.015 2.129l-1.037-.443-.45.508-.629-.269 2.294-2.415.548.234-.15 3.33-.63-.268.054-.677zm-.673-.854l.718.307.098-1.23-.816.923zm4.293 2.745l-.391-.33-.737.873-.492-.415 2.014-2.385.886.748c.282.238.446.484.493.739.047.255-.026.496-.22.726a.96.96 0 01-.45.318.94.94 0 01-.539-.01l-.307 1.41-.019.023-.528-.446.29-1.25zm-.055-.728l.396.335c.124.104.246.153.366.148a.444.444 0 00.321-.175.47.47 0 00.128-.347c-.01-.118-.08-.232-.212-.344l-.395-.333-.604.716zM17.403 40.396c-.228.247-.49.377-.786.388-.295.012-.585-.096-.872-.324-.313-.249-.476-.55-.488-.904-.011-.354.13-.715.423-1.083l.119-.149c.187-.235.393-.409.618-.522.225-.113.452-.156.681-.13.231.028.448.122.652.284.282.224.448.48.5.769.053.288-.017.579-.207.873l-.503-.4c.113-.168.16-.317.14-.448-.018-.132-.104-.258-.259-.381-.168-.134-.341-.174-.521-.12-.178.054-.37.206-.572.457l-.147.185c-.21.264-.324.489-.342.674-.017.186.061.347.234.484.155.124.299.18.43.171.135-.01.267-.085.396-.225l.504.4zm4.136 2.392l-1.073-.611-.414.726 1.26.718-.257.45-1.818-1.037 1.546-2.712 1.815 1.034-.258.453-1.256-.716-.368.646 1.072.612-.249.438zm3.514-.68l.61 2.323.984-2.19.842.07-.26 3.112-.643-.054.071-.85.187-1.463-1.034 2.248-.44-.036-.644-2.386-.058 1.47-.071.851-.641-.054.26-3.11.837.07zm6.662 1.698l-1.23.12.082.832 1.442-.14.05.514-2.082.203-.303-3.107 2.078-.203.05.519-1.438.14.073.74 1.229-.12.049.502zm5.853-1.085l-.558.32-2.109-1.158 1.022 1.782-.558.32-1.553-2.708.558-.32 2.112 1.161-1.024-1.785.556-.32 1.553 2.709zm1.977-5.261l-.628.721 1.96 1.71-.423.485-1.96-1.71-.62.711-.393-.342 1.672-1.917.392.343z" fill="#fff"/><path d="M38.606 28.912c-.64 1.363-1.912 2.291-3.378 2.291-2.108 0-3.818-1.923-3.818-4.296 0-2.372 1.71-4.295 3.818-4.295.689 0 1.334.204 1.892.563.257.165.781-.372.781-.372h.191v1.909h-.19c0-.191-.5-.556-.782-.647a2.433 2.433 0 00-.746-.117c-1.476 0-2.673 1.325-2.673 2.96 0 1.634 1.197 2.959 2.673 2.959.778 0 1.478-.368 1.966-.955h.266zM27.703 16.933C27.15 16.47 27.406 15.58 28 15c.594.58.851 1.47.297 1.933v.387c.198 0 .495.097.495.484 0 .29-.297.386-.495.386v.29c.297 0 .396.194.396.387h.791c.43-.29.935-1.073.297-2.32-.297-.58.198-1.45.495-1.45.042.612.239 1.145.417 1.627.243.658.451 1.22.177 1.756-.132.258-.535.774-1.089.774h-1.088c0 .193-.1.386-.396.386h-.594c-.297 0-.396-.193-.396-.386H26.22c-.554 0-.957-.516-1.089-.774-.274-.536-.066-1.098.177-1.756.178-.482.375-1.015.417-1.627.297 0 .792.87.495 1.45-.639 1.247-.132 2.03.297 2.32h.791c0-.193.1-.387.396-.387v-.29c-.198 0-.495-.096-.495-.386 0-.387.297-.484.495-.484v-.387zM28 21.187c.383 0 .693-.346.693-.773 0-.427-.31-.774-.693-.774a.634.634 0 00-.336.097.791.791 0 00-.357.677c0 .284.138.533.343.667a.635.635 0 00.35.106z" fill="#083F88"/><path d="M28 21.187h.297S29 39.363 29 39.556c0 .58-2 .604-2 0 0-.097.703-18.369.703-18.369H28z" fill="#083F88"/><path d="M15.339 19.836l.331.19a14.278 14.278 0 00-2.206 7.645c0 2.774.788 5.365 2.156 7.564l-.332.19a14.657 14.657 0 01-2.206-7.754c0-2.877.826-5.563 2.257-7.835z" fill="#fff"/><path d="M14.626 35.806a15.418 15.418 0 01-2.308-8.135c0-3.016.863-5.831 2.358-8.216l-.332-.19a15.798 15.798 0 00-2.408 8.406c0 3.051.863 5.902 2.358 8.325l.332-.19zm26.897.397l-.326-.2a15.418 15.418 0 002.432-8.332c0-3.03-.871-5.857-2.378-8.248l.326-.2a15.797 15.797 0 012.434 8.448c0 3.138-.912 6.065-2.488 8.532z" fill="#fff"/><path d="M13.632 36.377a16.558 16.558 0 01-2.46-8.706c0-3.223.919-6.234 2.51-8.787l-.497-.285A17.127 17.127 0 0010.6 27.67c0 3.294.927 6.372 2.535 8.992l.497-.286zm29.031.523l-.488-.299a16.56 16.56 0 002.6-8.93c0-3.248-.933-6.28-2.547-8.846l.489-.3a17.127 17.127 0 012.63 9.146c0 3.394-.984 6.56-2.684 9.23z" fill="#fff"/><path d="M12.694 36.916a17.307 17.307 0 01-2.667-9.245c0-3.42.995-6.617 2.718-9.325l-.829-.476a18.253 18.253 0 00-2.843 9.801c0 3.563 1.02 6.892 2.792 9.72l.83-.475zm31.351.83l-.815-.499a17.315 17.315 0 002.88-9.576 17.31 17.31 0 00-2.825-9.493l.815-.499a18.257 18.257 0 012.965 9.992c0 3.713-1.109 7.171-3.02 10.075zm-3.499-2.142l-.326-.2a14.279 14.279 0 002.263-7.733c0-2.81-.81-5.432-2.21-7.65l.327-.199a14.658 14.658 0 012.265 7.849c0 2.919-.85 5.64-2.319 7.933z" fill="#fff"/></svg>