<svg width="56" height="56" viewBox="0 0 56 56" xmlns="http://www.w3.org/2000/svg"><path fill="#F0F3FA" d="M0 0h56v56H0z"/><path d="M12.3 26H6.02l.69-2.18c.1-.33-.14-.68-.48-.68V23h6.09c.47 0 .8.47.66.94L12.3 26ZM5.86 26.43h6.3l-1.86 5.75c-.1.33.14.68.48.68V33H4.69c-.47 0-.8-.47-.66-.94l1.83-5.63ZM33.57 24.02c.18-.6.7-1.02 1.3-1.02H45.4l.59.62.3-.62H52l-1.5 5h-6.07l.32-1.24c.12-.37-.15-.76-.52-.76H33.05l.52-1.98Z" fill="#3579AF"/><path d="M39.13 26.43h-6.22l-1.88 5.63c-.14.47.19.94.65.94H47c.96 0 1.82-.9 2.16-1.84l.93-2.52A2.55 2.55 0 0 1 47.86 30h-8.73c-.65 0-1.1-.66-.9-1.31l.9-2.26ZM14.57 24.02c.18-.6.7-1.02 1.3-1.02H26.4l.59.62.3-.62H33l-1.5 5h-6.07l.32-1.24c.12-.37-.15-.76-.52-.76H14.05l.52-1.98Z" fill="#3579AF"/><path d="M20.13 26.43h-6.22l-1.88 5.63c-.14.47.19.94.65.94H28c.96 0 1.82-.9 2.16-1.84l.93-2.52A2.55 2.55 0 0 1 28.86 30h-8.73c-.65 0-1.1-.66-.9-1.31l.9-2.26Z" fill="#3579AF"/></svg>