<svg width="56" height="56" viewBox="0 0 56 56" xmlns="http://www.w3.org/2000/svg"><path fill="#3C6867" d="M0 0h56v56H0z"/><path fill-rule="evenodd" d="M28 43a15 15 0 1 0 0-30 15 15 0 0 0 0 30Zm0 2a17 17 0 1 0 0-34 17 17 0 0 0 0 34ZM18 18h2v2h-2v-2Zm0 3h2v16h-2V21Zm3-3h2v7.37A9.2 9.2 0 0 1 29 23c2.43 0 4.62.67 6.23 1.72C36.81 25.76 38 27.27 38 29v8h-2v-8c0-.77-.56-1.76-1.86-2.6A9.53 9.53 0 0 0 29 25c-2.92 0-5.13 2.07-6 3.3V37h-2V18Zm8.5 17a3.5 3.5 0 1 0 0-7 3.5 3.5 0 0 0 0 7Zm0 2a5.48 5.48 0 0 1-3.5-1.26V37h-2v-7c0-.92.22-1.65.59-2.27.34-.57.8-1.03 1.17-1.4l.03-.04.64.64A5.5 5.5 0 1 1 29.5 37Z" fill="#F0F3FA"/></svg>