<svg xmlns="http://www.w3.org/2000/svg" width="56" height="56"><path fill="#0060AA" d="M0 0h56v56H0z"/><path d="M22.07 17.3c-1.19 0-3.54-3.26-2.99-4.28.5-.91 1.89-1.15 3-.96.6.23 1.31.92 1.98 1.58l.54.53c1.07-.38 2.38-.68 3.83-.92-.92 1.71-4.18 4.05-6.36 4.05zm1.95 2.7h-5.5c.31 1.9-2.62 6.64-4.52 8.41l.3 2 3.77-.6-.3 8.5c0 7.29 6.25 7.81 7.67 7.67 2.94-.28 3.56-2.9 3.56-4.07 0-1.36-.3-3.3-1.83-3.3-.82 0-1.4 1.04-1.4 2.2 0 1.16-.5 1.97-1.3 1.93-2.92 0-3.7-2.8-3.47-4.42L24.02 20zm7.68 6.57c-.66-.39-1.91.77-2.34 1.75 0 0-.52-2.16-1.28-2.4l-.1-.04c-.65-.2-1.98-.63-1.98-1.83 0 0 .2-2.77 2.2-3.38 1.1-.34 2.4 1.28 3.59 2.75.96 1.2 1.84 2.3 2.45 2.13.44-.12.32-.98.17-2-.08-.58-.17-1.21-.17-1.8 0-2.11 1-4.75 3.33-4.75s3.39 3.3 1.75 4.76c-1.65 1.45-1.73 2.91.68 4.8 0 0 1.03.57 2 .95a4.98 4.98 0 01-3.3 1.5c-1.32 0-2.09-.23-2.7-.7v8.39s-.41.82-1.4 1.69C33.62 39.26 32 40 32 40V28.67s.06-1.9-.3-2.1z" fill="#fff"/></svg>