<svg width="56" height="56" viewBox="0 0 56 56" xmlns="http://www.w3.org/2000/svg"><path fill="#F0F3FA" d="M0 0h56v56H0z"/><path fill-rule="evenodd" d="M19.07 38H14V19h10.94l5.96 6.02L19.07 38ZM18 22h2v2h2v2h-2v2h-2v-2h-2v-2h2v-2Zm2 16.19V44l5.52-6h3.41l1.05-4H31v-8L20 38.19Zm8.36-8.1h1.45l-.8.84-.65-.84ZM25.84 44 36 31.91V33h5v4h-4.22l-5.28 7h-5.66ZM37 28.6V32h4v-3.4l2-3.6h-8.22s1.47 2.53 2.22 3.6Zm0 9.4h4v4.34L38.96 44 37 42.34V38Z" fill="#008094"/><path d="M32.4 21c-2.9-.84-3.85-3.95-3.96-5.4 3.04 2.22 7.03 1.3 9.53 3.06 2 1.41 1.62 4.22 1.19 5.44 1.48-1.34 1.38-5-1.02-6.8-2.4-1.82-5.05-1.7-6.68-2.07-1.31-.3-3.34-1.1-4.33-2.16a8.42 8.42 0 0 1 0-5.07c-.35 3.68 5.42 5.57 7.27 5.86 1.86.3 6.51 2.07 6.51 6.17 0 3.28-1.48 4.53-2.22 4.74-.13-2.23-2.68-2.73-6.3-3.77Z" fill="#FDB817"/></svg>