<svg width="56" height="56" viewBox="0 0 56 56" xmlns="http://www.w3.org/2000/svg"><path fill="#F0F3FA" d="M0 0h56v56H0z"/><path d="M16.15 18.47c.24.19.44.4.62.63.15.2.35.3.58.3a.16.16 0 0 1 .15.15v.08l-.15.39-2.1-.27c-.06 0-.07-.03-.04-.07l.94-1.21ZM17.48 21.82a.96.96 0 0 1-.45 1.25.23.23 0 0 1-.15.02c-.03 0-.05 0-.08.02a.1.1 0 0 0-.05.11c.08.7.14 1.62-.5 2.1-.09.06-.15.04-.18-.06a5.5 5.5 0 0 1-.33-2.03h-.04c-.08.34-.18.66-.22 1-.13 1.1-.17 2.2-.13 3.3.01.15-.03.16-.11.03-.58-.87-1.42-1.24-2.51-1.1.1-1.12.3-2.14.61-3.05.25-.7.63-1.58 1.16-2.62.02-.04.06-.05.1-.03l2.88 1.06ZM41.84 21.72c.47 1 .81 2 1.02 2.99 0 .6-.02 1.15-.04 1.65a.98.98 0 0 1-1.92.3 5.36 5.36 0 0 1 .37-4.67c.09-.13.28-.22.57-.27ZM12.66 27.28l.03.2c0 .05.03.08.09.09.28.02.49.13.63.31.31.4.69.76.9 1.21.37.8.42 1.58.47 2.42 0 .06-.02.1-.08.1-.64.12-.78-1.8-.8-2.19-.02-.21-.06-.22-.14-.02l-.37 1.01c-.18.49-.3.47-.34-.04a20.6 20.6 0 0 1-.07-1.68c0-.3-.1-.45-.33-.49v-.92ZM36.2 40.7c-.24.18-.46.33-.67.45-1.61.9-3.26 1.5-4.94 1.8-.46.08-1.04.13-1.75.15a2.72 2.72 0 0 0-1.74 0l-1.23-.1c.09 0 .14-.02.15-.05a.13.13 0 0 0 0-.08.14.14 0 0 0-.04-.07c-.75-.6-1.6-1.16-2.57-1.7a4 4 0 0 0-.48-.22c-.1-.04-.12-.02-.05.06.22.23.44.46.7.7.3.28.51.62.62 1.02-.3-.05-.5-.1-.62-.13a15.5 15.5 0 0 1-6.24-3.61 7.03 7.03 0 0 0-1.2-1.82 9.09 9.09 0 0 1-.68-.83c-.1-.15-.07-.19.1-.14l.5.16a.06.06 0 0 0 .06-.02l.02-.03-.01-.04a5.76 5.76 0 0 1-.68-2c-.02-.17-.12-.23-.28-.18-.33.1-.75.2-.87-.24-.1-.32-.08-.66.03-1.02a.16.16 0 0 1 .09-.1.17.17 0 0 1 .13 0c.32.1.64.25.98.1.27-.13.92-.41 1.21-.28.14.06.27.14.37.25a.13.13 0 0 1-.04.2l-.48.26c-.1.06-.08.09.02.1.31.03.61-.01.9-.12a.12.12 0 0 1 .12.01c.15.11.27.28.2.48-.1.25-.22.48-.34.7a.2.2 0 0 1-.23.07c-.11-.04-.22-.06-.33-.06a.16.16 0 0 0-.15.1.16.16 0 0 0 .03.18l1.08 1a.18.18 0 0 0 .22.01c.22-.13.15-.42.07-.61a1.67 1.67 0 0 1-.12-.92.29.29 0 0 1 .16-.23.3.3 0 0 1 .28.01c.3.18.59.2.86.04.5-.29 1.04.2 1.36.51a.08.08 0 0 1 0 .11l-.03.02c-.2.08-.4.18-.57.3-.42.34-.08.97.4 1.02.05 0 .1.02.14.04.05.02.08.05.08.1.03.41-.01.82-.12 1.22a.22.22 0 0 1-.14.16.22.22 0 0 1-.2-.04c-.13-.09-.25-.26-.3-.4a3.55 3.55 0 0 0-.84-1.21.21.21 0 0 0-.33.05c-.24.46.01 1.08.35 1.43.2.22.48.42.8.6a4.5 4.5 0 0 1 1.6 1.43c.2.31.14.4-.21.25-.46-.18-1.09-.45-1.48-.03-.22.23-.04.6.18.75.65.43 1.73.13 2.42-.14.3-.12.59-.11.88.02 1 .46 1.98 1.05 2.91 1.76.66.5 1.66.27 2.32-.08.37-.2.76-.36 1.15-.49.62-.2 1.23-.46 1.8-.78.36-.2.6-.45.84-.76.23-.3.82-.25 1.1-.12.43.19 1 .02 1.35-.22.7-.48 1.5-.77 2.37-.86a.1.1 0 0 1 .08.01c.04.04.06.08.04.12l-.02.04c-.1.1-.2.2-.3.27-.8.55-1.64 1.07-2.5 1.56a.5.5 0 0 0-.26.39c-.01.05.01.08.05.1.17.08.33.08.48-.02.46-.27.94-.39 1.43-.35ZM35.55 18.94c-.01.35-.23.6-.64.74a.1.1 0 0 1-.07 0 .1.1 0 0 1-.05-.05 1.8 1.8 0 0 0-1.03-1.09c-.31-.12-.66.1-.65.44.02.5-.25.93-.8 1.3-.14.08-.31.05-.47.03a.23.23 0 0 0-.23.15.23.23 0 0 0-.01.1c.03.41-.04.78-.21 1.12a.27.27 0 0 1-.26.14.27.27 0 0 1-.23-.17c-.37-.99-.82-1.87-1.35-2.66a.94.94 0 0 0-.25-.25.27.27 0 0 0-.15-.05l-.57-.02a.3.3 0 0 1-.24-.15c-.3-.55-.41-.96-1-1.3a.34.34 0 0 0-.42.04 3.53 3.53 0 0 1-3.5.99 2.2 2.2 0 0 1-.75-.34.21.21 0 0 1-.08-.26c.16-.42.39-.82.68-1.19.19-.25.53-.15.8-.14a.23.23 0 0 0 .22-.16c.23-.7.78-1.23 1.31-1.73.08-.07.14-.07.2.02l.3.44a.16.16 0 0 0 .2.05l1.94-1.1a.2.2 0 0 0 .08-.09.12.12 0 0 0 0-.1.12.12 0 0 0-.07-.07 2.46 2.46 0 0 0-.79-.15v-.04c0-.02.01-.04.04-.04.82-.1 1.63-.05 2.42.16.93.25.7 1.2.35 1.81-.07.13-.16.15-.28.07a1.69 1.69 0 0 0-1.33-.21.28.28 0 0 0-.22.17.25.25 0 0 0 .11.32c.6.34 1.77.27 2.37 0a.43.43 0 0 0 .24-.29c.08-.32.2-.6.39-.87.22-.32.81-.81 1.19-.38.26.32.56.6.88.83l2.03 1.5c.69.5 1.4 1.16 1.6 2a2.12 2.12 0 0 1-.12 1.23l-.03.02a.06.06 0 0 1-.05-.03c-.23-.42-.95-.65-1.4-.8a.08.08 0 0 0-.1.03v.03ZM19.1 16.47a4.1 4.1 0 0 0-.68.9c-.18.3-.45.5-.72.68-.14.1-.18.23-.27.37-.1.15-.14.14-.14-.04 0-1.1.93-1.81 1.88-2.2.26-.11.3-.06.1.14a2.5 2.5 0 0 1-.18.15Z" fill="#C0B9E1"/><path d="M22.84 36.82c.21.5.38 1.04.5 1.59.13.6-.58.79-.92.4-.65-.77-.7-1.72-.9-2.68-.06-.24-.08-.5-.08-.75 0-.16-.09-.3-.12-.46a.28.28 0 0 1 .16-.32c.14-.06.28-.02.36.11.4.7.7 1.39 1 2.1Z" fill="#C0B9E1"/><path fill-rule="evenodd" d="M28 44a16 16 0 1 0 0-32 16 16 0 0 0 0 32Zm0-1a15 15 0 1 0 0-30 15 15 0 0 0 0 30Z" fill="#2005A2"/><path d="M25.77 21.14C23.6 20.62 16.35 20.16 13 20c.42.38 2.25 1.4 6.16 2.4 4.88 1.27 6.84 2.65 6.84 4.36 0 2.7-4.43 4.9-6.6 5.67h3.2a5.6 5.6 0 0 1-1.55 1.67c2.25-.45 2.7-1.23 3.4-1.67.7-.45 2.1-.86 2.96-1.19.86-.32 1.93-1.24 2.34-1.24 5.13 1.34 6.4 4.42 8.05 7.76C39.1 40.44 40.48 41.7 41 42c-.75-2.42-2.41-7.72-3.04-9.57a8.25 8.25 0 0 0-4.3-4.97c-1.86-.78-1.66-.9-1.66-1.06 0-.17.04-.29.12-.37A23 23 0 0 0 34 23.54c-.5-.16-1.25-.57-1.66-.57-1.32 0-2.11 1.06-2.34 1.6h-.45c-.92-1.04-2.96-3.17-3.78-3.43Z" fill="#2005A2"/></svg>