<svg width="56" height="56" viewBox="0 0 56 56" xmlns="http://www.w3.org/2000/svg"><path fill="#F0F3FA" d="M0 0h56v56H0z"/><path d="M31.01 26.93c.02-.88.38-1.63 1.35-1.84.24-.05.48-.08.72-.08h2.56c.53 0 1.2.05 1.64.32.38.22.6.6.64 1.14a3.89 3.89 0 0 1-.02.82l-.04.02h-.83c-.03 0-.04-.02-.04-.05.01-.36.05-1.04-.36-1.18a1.85 1.85 0 0 0-.6-.08h-2.96c-.64 0-1.08.52-1.07 1.07v2c0 .56.64.93 1.15.93h2.8c.42 0 1.02-.26 1.05-.76v-.63c0-.03 0-.05.04-.05h.9c.02 0 .04.02.04.05.03.52.05 1.04-.15 1.5-.25.58-.84.81-1.45.84-.75.05-1.7.06-2.84.04-.4 0-.75-.03-1.05-.07-1.12-.17-1.47-.98-1.48-1.98v-2Z" fill="#DA2128"/><path d="M20.8 30.03c-.38.88-1.34.95-2.13.97H15.8c-.25-.01-.5-.1-.74-.19-.77-.28-1.05-1.01-1.06-1.8v-1.87c0-.88.24-1.74 1.17-2 .3-.09.58-.14.86-.14h2.75c.2 0 .4.02.62.04 1.17.15 1.59.9 1.6 2.05V29c0 .37-.08.71-.2 1.03Zm-.8-.94v-2.21c0-.41-.55-.88-.95-.88H16c-.42 0-.99.43-.99.86v2.23c0 .43.57.91.99.91h3.06c.4 0 .95-.5.95-.91Z" fill="#006CB7"/><path d="m26.2 26.16-.93.84-1.93-1.92c-.05-.05-.04-.08.03-.08h1.6a.1.1 0 0 1 .08.03l1.14 1.13Z" fill="#DA2128"/><path d="M4.98 25h-.96C4 25 4 25 4 25.02v5.96c0 .01 0 .02.02.02h.96C5 31 5 31 5 30.98v-5.96c0-.01 0-.02-.02-.02ZM12 29.77V25h.96c.03 0 .04.01.04.04v5.92l-.01.03-.03.01h-1.24c-.03 0-.04 0-.06-.02a5.34 5.34 0 0 1-.25-.24L7 26.14V31h-.96C6 31 6 30.99 6 30.96v-5.92c0-.03.01-.04.04-.04h1.33c.02 0 .04 0 .05.02L12 29.77Z" fill="#006CB7"/><path d="m28.12 28.02 3.15 2.94c.03.03.02.04-.02.04H29.6a.12.12 0 0 1-.09-.03l-2.27-2.13.87-.82ZM26.98 29l2 1.97a.02.02 0 0 1 0 .03H27.3a.1.1 0 0 1-.08-.03L26.1 29.9l.89-.9ZM25.05 27.27l-.9.83-3.14-3.05c-.04-.03-.03-.05.02-.05h1.64a.1.1 0 0 1 .07.03l2.3 2.24Z" fill="#DA2128"/><path d="M24.11 28c.32-.24.61-.52.88-.82l.28-.27.88-.83 1.07-1.04a.16.16 0 0 1 .11-.04h1.6c.05 0 .06.02.02.06l-6.2 5.92a.08.08 0 0 1-.06.02H21c-.03 0-.03 0-.01-.02L24.1 28ZM28.16 28l-.87.83-.28.26-.87.84-1.09 1.04a.1.1 0 0 1-.07.03h-1.65c-.04 0-.04-.01-.02-.04l6.23-5.93a.1.1 0 0 1 .07-.03h1.64c.04 0 .05.02.02.05L28.17 28Z" fill="#006CB7"/><path d="m42.23 29.9 2.7-4.9h1.18a.02.02 0 0 1 .01.04l-3.3 5.95h-.01l-.01.01h-1.17a.03.03 0 0 1-.03-.01l-3.3-5.95a.02.02 0 0 1 0-.03.02.02 0 0 1 .02-.01h1.22l2.69 4.9ZM45.8 29.81 45.1 31h-.02l-1.22.01h-.02a.02.02 0 0 1 0-.04l3.45-5.95h.02l1.2-.01.02.01L52 30.96V31a.02.02 0 0 1-.02 0L50.8 31h-.01l-.01-.01-.7-1.18-.09-.01H45.8v.01Zm.66-1.15a.02.02 0 0 0 .01.03H49.4a.03.03 0 0 0 .02-.02v-.02l-1.47-2.51v-.01a.02.02 0 0 0-.04 0l-1.45 2.53Z" fill="#DA2128"/></svg>