<svg xmlns="http://www.w3.org/2000/svg" width="56" height="56" viewBox="0 0 56 56"><path fill="#F0F3FA" d="M0 0h56v56H0z"/><path fill-rule="evenodd" d="M24.7 33l-1.5-3.93L20.52 32H18.8l3.9-4.22L20.86 23H4v10h20.7zm1.46 0H28V23h-5.54l1.33 3.6 2.4-2.6h1.61l-3.53 3.89 1.9 5.11zM5.58 32H4l2.56-8H8l-2.42 8zm3.01-8l-2.3 8h1.6l1.83-6.66h1.64c.53 0 .92.47.77.94L10.61 32h1.67l1.65-6.12c.3-.94-.46-1.88-1.53-1.88H8.6zm11.5 5.43c-1.32 2.06-3.63 3.1-5.15 2.3-1.52-.78-1.68-3.1-.35-5.16s3.64-3.1 5.16-2.3c1.52.78 1.67 3.1.35 5.16zm-1.11-.58c-.95 1.48-2.44 2.31-3.32 1.86-.88-.46-.83-2.03.13-3.52.95-1.48 2.44-2.3 3.32-1.85.88.45.82 2.03-.13 3.5z" fill="#104C9B"/><path fill-rule="evenodd" d="M52 23H28v10h24V23zm-11.88 1l-2.6 8h1.6l2.13-6.66h1.64c.53 0 .91.47.76.94L41.85 32h1.66l1.95-6.12c.3-.94-.47-1.88-1.54-1.88h-3.8zm-2.04 0l-2.76 8h1.7l2.6-8h-1.54zM29 24h1.26l.33 4.5 2.88-4.16.7 4.3 2.6-4.64H38l-4.53 8-.6-4.73-3.13 4.62L29 24zm14.91 8l2.55-8h2.45c1.94 0 3.35 1.73 2.84 3.48l-.14.48A5.84 5.84 0 0 1 45.93 32h-2.02zm1.86-1.33L47.46 25h1c1.23 0 2.1 1.1 1.75 2.2l-.15.5a4.45 4.45 0 0 1-4.29 2.97z" fill="#00A651"/></svg>