<svg width="56" height="56" viewBox="0 0 56 56" xmlns="http://www.w3.org/2000/svg"><path fill="#F0F3FA" d="M0 0h56v56H0z"/><path d="M17.19 26a6.5 6.5 0 1 0-.42 5h.56a7 7 0 1 1 .38-5h-.52Zm-1 5a6 6 0 1 1 .47-5h-.53a5.5 5.5 0 1 0-.52 5h.59ZM15 31a5 5 0 1 1 .58-5h-.55a4.5 4.5 0 1 0-.68 5H15Zm-.54-5a4 4 0 1 0-.81 5h-.85a3.5 3.5 0 1 1 1.07-5h.6Z" fill="#CF2127"/><path d="M11.5 25.75a.75.75 0 1 1-1.5 0 .75.75 0 0 1 1.5 0ZM11 27h-.5a.5.5 0 0 0-.5.5v3c0 .28.22.5.5.5h.5a.5.5 0 0 0 .5-.5v-3a.5.5 0 0 0-.5-.5Z" fill="#231F20"/><path d="M47.22 31H47v-3h.22c0 .75.24 1.42.73 1.95.5.52 1.1.79 1.8.79.29 0 .52-.1.7-.28.17-.19.27-.44.27-.75 0-.35-.21-.65-.63-.9-.22-.13-.6-.33-1.16-.6a6.38 6.38 0 0 1-1.17-.7 1.7 1.7 0 0 1-.6-1.52c.06-.63.28-1.12.66-1.46.37-.35.8-.53 1.27-.53.48 0 .91.07 1.29.22.38.13.6.2.65.2.15 0 .22-.14.22-.42h.22v1.99h-.22c0-.58-.2-.84-.58-1.2a2.06 2.06 0 0 0-1.48-.55.8.8 0 0 0-.63.26.82.82 0 0 0-.23.57c0 .2.02.36.08.47.05.12.13.22.26.31a7.2 7.2 0 0 0 1.22.65 33.7 33.7 0 0 1 1.02.53c.14.08.24.15.3.21l.28.24c.1.1.19.2.24.3.05.1.1.2.15.34.1.25.14.55.11.9a2.16 2.16 0 0 1-.66 1.48c-.38.33-.9.5-1.54.5-.58 0-1.16-.16-1.73-.5-.2-.1-.34-.16-.44-.16-.27 0-.4.34-.4.66ZM45.74 31h-2.32v-.25h.4v-2.64l-1.8-3.86h-.52V24h2.82v.25h-.5l1.41 3.15 1.31-3.15h-.8V24h1.76v.25h-.7l-1.46 3.52v2.98h.4V31ZM37.22 31H37v-2.97h.22c0 .75.24 1.39.73 1.92.5.52 1.1.79 1.8.79.29 0 .52-.1.7-.28.17-.19.27-.44.27-.75 0-.35-.21-.65-.63-.9-.22-.13-.6-.33-1.16-.6a6.38 6.38 0 0 1-1.17-.7 1.7 1.7 0 0 1-.6-1.52c.06-.63.28-1.12.66-1.46.37-.35.8-.53 1.27-.53.48 0 .91.07 1.29.22.38.13.6.2.65.2.15 0 .22-.14.22-.42h.22v1.99h-.22c0-.58-.2-.84-.58-1.2a2.06 2.06 0 0 0-1.48-.55.8.8 0 0 0-.63.26.82.82 0 0 0-.23.57c0 .2.02.36.08.47.05.12.13.22.26.31a7.2 7.2 0 0 0 1.22.65 33.7 33.7 0 0 1 1.02.53c.14.08.24.15.3.21l.28.24c.1.1.19.2.24.3.05.1.1.2.15.34.1.25.14.55.11.9a2.16 2.16 0 0 1-.66 1.48c-.38.33-.9.5-1.54.5-.58 0-1.16-.16-1.73-.5-.2-.1-.34-.16-.44-.16-.27 0-.4.34-.4.66Z" fill="#CF2127"/><path d="M18.17 30.87H18v-1.99h.17c0 .54.2 1 .59 1.37.4.37.87.56 1.44.56.23 0 .41-.06.55-.2a.7.7 0 0 0 .22-.53c0-.25-.16-.47-.5-.64-.17-.1-.49-.24-.93-.43-.44-.2-.75-.37-.93-.5a1.15 1.15 0 0 1-.48-1.1c.05-.44.22-.79.52-1.03.3-.25.65-.38 1.02-.38.39 0 .73.05 1.03.15.31.1.48.15.53.15.11 0 .17-.1.17-.3h.17v1.56h-.17c0-.4-.15-.74-.46-1-.31-.26-.7-.39-1.19-.39a.67.67 0 0 0-.5.19.55.55 0 0 0-.19.4c0 .15.02.26.06.34.05.08.11.16.21.22a5.85 5.85 0 0 0 .98.47 28.78 28.78 0 0 1 .82.37c.11.06.2.11.24.16l.22.17c.09.07.15.14.2.21l.12.24c.08.18.1.4.08.64-.04.46-.22.82-.53 1.06-.3.24-.71.36-1.23.36-.46 0-.93-.12-1.38-.35a.9.9 0 0 0-.35-.12c-.22 0-.33.11-.33.34ZM36 30.8h.5v.2H34v-.2h.5v-4.32h-.4v-.2H36v4.51Zm.09-5.89c0 .25-.09.46-.26.64a.83.83 0 0 1-.62.26.88.88 0 0 1-.88-.9.9.9 0 0 1 .26-.64.84.84 0 0 1 .62-.27c.25 0 .45.09.62.27.17.18.26.4.26.64ZM32.3 31H30v-.21h.5V26.2H30V26h2v1.39c.11-.7.28-1.14.62-1.28.18-.07.35-.11.51-.11.17 0 .32.04.47.1.15.07.27.2.34.4.08.2.08.4.01.61a.7.7 0 0 1-.36.43c-.16.08-.32.1-.46.03a.64.64 0 0 1-.3-.26c-.07-.1-.1-.22-.13-.31-.07-.27-.15-.4-.25-.4-.5 0-.45 1.85-.45 2.16v2.03h.3V31ZM29 30.8h.5v.2H27v-.2h.5v-4.32h-.4v-.2H29v4.51Zm.09-5.89c0 .25-.09.46-.26.64a.83.83 0 0 1-.62.26.88.88 0 0 1-.88-.9.9.9 0 0 1 .26-.64.84.84 0 0 1 .62-.27c.25 0 .45.09.62.27.17.18.26.4.26.64ZM24 28.37v1.7c.17.36.29.55.56.55.27 0 .51-.17.7-.51.2-.35.3-.9.3-1.65 0-.76-.08-1.29-.23-1.59-.15-.3-.38-.46-.69-.46-.9 0-.64 1.38-.64 1.96Zm0-1.77c.21-.4.5-.6 1.05-.6s1.02.22 1.4.66c.36.43.55 1.05.55 1.85s-.18 1.43-.55 1.88c-.37.45-.93.61-1.45.61-.36 0-.79-.14-1-.63v2.42h.37V33H22.5v-6.8H22V26h2v.6ZM17.5 30.79h.5V31h-2.6v-.21h.6v-2.97c0-.6-.25-1.4-.96-1.4-.4 0-.8.22-1.04.64v3.73h.6V31H12v-.21h.4V26H14v.67c.13-.19.42-.34.7-.47.29-.13.6-.2.92-.2 1.24 0 1.88.68 1.88 2.05v2.74Z" fill="#231F20"/></svg>