<svg xmlns="http://www.w3.org/2000/svg" width="56" height="56" fill="none"><path fill="#F0F3FA" d="M0 0h56v56H0z"/><path fill="#000" d="M6 20h2v2H6zm0 3h2v7H6zm21-2h2v9h-2zm3 0h2v9h-2zm-17 9v-4.4c0-.37-.07-1.08-.74-1.05-.53.03-1 .34-1.26.58V30H9v-7h2v.56a3.28 3.28 0 011.89-.56c1.27.02 2.11.92 2.11 2.44V30h-2z"/><path d="M31.43 35v-1.84c0-.13-.16-.38-.45-.38-.22 0-.35.2-.43.31V35h-.41v-2.52h.4v.17a.98.98 0 01.64-.22c.4 0 .68.34.68.9V35h-.43z" fill="#A5A6A7"/><path d="M16.55 23v-2h2v2h1v1.5h-1v3.54c0 .46.55.4 1 .2v1.6c-.34.11-.97.16-1.4.16-1.47-.06-1.6-1.17-1.6-1.76V24.5h-1V23h1zM47 23v-2h2v2h1v1.5h-1v3.54c0 .46.55.4 1 .2v1.6a5.5 5.5 0 01-1.4.16c-1.47-.06-1.6-1.17-1.6-1.76V24.5h-1V23h1zm-21.03 4c.15-1.28-.22-3.98-2.86-4-2.64-.02-3.11 2.33-3.11 3.58 0 1.26.72 3.42 3.11 3.42.78 0 2.06-.2 2.86-1.5l-1.35-.87c-.22.3-.8.88-1.4.88-.73 0-1.17-.49-1.22-1.51h3.97zM22 25.55c.01-.37.23-1.13.98-1.13.75-.01 1 .75 1.02 1.13h-2zM38.97 27c.15-1.28-.21-3.98-2.85-4-2.65-.02-3.12 2.33-3.12 3.58 0 1.26.73 3.42 3.12 3.42.77 0 2.05-.2 2.85-1.5l-1.35-.87c-.22.3-.8.88-1.39.88-.74 0-1.18-.49-1.23-1.51h3.97zM35 25.55c.02-.37.23-1.13.98-1.13.75-.01 1 .75 1.02 1.13h-2zm10.68 2.59A3 3 0 0143.02 30C41.35 30 40 28.43 40 26.5s1.35-3.5 3.02-3.5c1.18 0 2.2.78 2.7 1.92l-1.61.68c-.2-.64-.6-1.08-1.06-1.08-.66 0-1.2.89-1.2 1.98 0 1.1.54 1.98 1.2 1.98.48 0 .9-.48 1.09-1.18l1.54.84z" fill="#000"/><rect x="6" y="32" width="3" height="3" rx=".5" fill="#DA4732"/><rect x="10" y="32" width="3" height="3" rx=".5" fill="#FFDE00"/><rect x="14" y="32" width="3" height="3" rx=".5" fill="#008FD4"/><path fill-rule="evenodd" d="M20.7 31.58h-.39V35h.4a1.7 1.7 0 000-3.42zm1.28 1.63c0-.72-.58-1.3-1.3-1.3v2.75c.72 0 1.3-.58 1.3-1.29v-.16zm17.88-1.62h-.39V35h.4a1.7 1.7 0 000-3.41zm1.28 1.62c0-.72-.58-1.3-1.29-1.3v2.75c.71 0 1.3-.58 1.3-1.29v-.16zm-5.57-.78c-.49 0-.88.4-.88.88v.8a.89.89 0 101.77 0v-.8c0-.48-.4-.88-.89-.88zm0 .3a.51.51 0 00-.51.52v.93a.51.51 0 101.02 0v-.93a.51.51 0 00-.5-.51zm-11.93-.41c-.49 0-.89.4-.89.88v.91a.89.89 0 101.77 0v-.01h-.41v.14a.47.47 0 01-.94 0v-.54h1.35v-.5c0-.49-.4-.88-.88-.88zm0 .3a.47.47 0 00-.46.48v.3h.94v-.3a.47.47 0 00-.47-.47z" fill="#A5A6A7"/><path d="M26.4 33.13v-.23c0-.14-.13-.43-.56-.43-.53 0-.64.42-.63.58 0 .15.07.46.72.56.48.08.57.49.54.72-.03.2-.18.5-.63.52a.56.56 0 01-.63-.52v-.23" stroke="#A5A6A7" stroke-width=".3"/><path fill="#A5A6A7" d="M27.02 31.7h.41v.45h-.41zm15.09-.01h.41v.45h-.41zm3.21 0h.41v.45h-.41zm-18.3.76h.41V35h-.41zm15.09 0h.41V35h-.41zm3.21 0h.41V35h-.41zm4.26-.86h.41v3.42h-.41z"/><path fill-rule="evenodd" d="M29.3 34.6c-.15.24-.36.39-.6.39-.45 0-.82-.58-.82-1.28 0-.7.37-1.28.83-1.28.23 0 .44.15.6.38v-.3h.36v2.68c-.01.27-.19.8-.85.81-.66 0-.87-.44-.89-.66h.42c.01.11.12.33.47.33s.47-.32.48-.48v-.59zm-.02-.87c0 .5-.25.92-.55.92-.3 0-.56-.42-.56-.92 0-.51.25-.92.56-.92.3 0 .55.4.55.92zm15.12.87c-.16.24-.37.39-.6.39-.46 0-.83-.58-.83-1.28 0-.7.37-1.28.83-1.28.23 0 .44.15.6.38v-.3h.36v2.68c0 .27-.19.8-.85.81-.66 0-.87-.44-.89-.66h.42c.01.11.12.33.47.33s.47-.32.48-.48v-.59zm-.03-.87c0 .5-.24.92-.55.92-.3 0-.55-.42-.55-.92 0-.51.24-.92.55-.92.3 0 .55.4.55.92z" fill="#A5A6A7"/><path d="M33.67 32.76V35h.4v-2.24h.44v-.33h-.45v-.3c0-.17.15-.22.22-.23h.23v-.36h-.32c-.42.03-.52.35-.52.5v.4h-.39v.32h.39zm12.72-.27v-.95h.4v.95h.44v.33h-.45v1.58c0 .18.15.23.22.24h.23V35h-.32c-.42-.03-.52-.35-.52-.5v-1.68H46v-.33h.39zm-9.05.75V35h-.4v-2.54h.4v.36c.2-.4.57-.42.73-.37v.38c-.43-.02-.65.22-.73.41z" fill="#A5A6A7"/><path fill-rule="evenodd" d="M47.43 33.14c-.02-.28.14-.86.9-.85.24 0 .72.1.74.67v1.53c.01.08.07.23.24.17v.28c-.2.05-.6.05-.61-.28-.09.11-.33.35-.62.34a.69.69 0 01-.7-.71c-.01-.47.34-.7.7-.81.35-.12.62-.22.62-.47 0-.25-.2-.4-.37-.4-.13 0-.5.04-.5.53h-.4zm1.25.4v.64c-.02.16-.14.5-.5.5-.34 0-.41-.32-.4-.5 0-.1.15-.37.48-.45.33-.07.42-.15.42-.18z" fill="#A5A6A7"/></svg>