<svg width="56" height="56" viewBox="0 0 56 56" xmlns="http://www.w3.org/2000/svg"><path fill="#F0F3FA" d="M0 0h56v56H0z"/><path d="M7.18 33.68 7 32.95c.9-.32 4-.95 9.24-.95 6.55 0 19.76 1.63 24.53 1.63 3.83 0 9.08-1.05 11.23-1.57-1.66.64-5.68 1.94-11.69 1.94-7.5 0-13.73-1.31-22.03-1.31-6.64 0-10.17.66-11.1.99Z" fill="#E6883B"/><path d="M8.8 22.25 8.5 19l-.33 3.25-1.1-2.98.5 3.04-1.79-2.27 1.28 2.71-2.3-1.5 1.92 2.1-2.58-.59 2.39 1.31-2.49.36c.9.1 3.21.4 4.51.57l4.49-.57-2.5-.36 2.38-1.3-2.58.59 1.92-2.11-2.3 1.5 1.28-2.71-1.79 2.27.5-3.04-1.1 2.98Z" fill="url(#a)"/><path d="M9.92 24.82c.1-.21.16-.46.16-.71 0-.9-.7-1.62-1.58-1.62a1.6 1.6 0 0 0-1.58 1.62c0 .25.06.5.16.7l1.43.19 1.4-.18Z" fill="url(#b)"/><path d="M49 27c.33.02.62.07.84.15.2-.06.42-.1.66-.12a10 10 0 0 1 1.14 0c.05.02.07.06.07.12s-.02.12-.07.2a3.03 3.03 0 0 1 .04.6h-.19a.9.9 0 0 0-.07-.36.32.32 0 0 0-.2-.17 1.2 1.2 0 0 0-.38-.04h-.46l-.02.79v.59h.4c.17 0 .3-.03.37-.08.08-.05.12-.16.13-.33h.2c0 .2-.03.4-.09.58.06.22.1.42.1.6h-.2c-.01-.13-.03-.21-.06-.27a.23.23 0 0 0-.15-.11 1.16 1.16 0 0 0-.3-.03h-.4v.8c0 .2.01.35.04.44.02.1.08.16.16.19s.21.05.4.05c.18 0 .33-.02.44-.06.11-.03.2-.1.26-.2s.1-.24.12-.43H52c-.02.24-.06.46-.13.67.04.08.05.15.05.2 0 .1-.05.16-.14.18-.1.03-.27.04-.53.04h-.4a4.78 4.78 0 0 1-1.01-.15c-.28.08-.56.13-.84.15v-.19c.15-.02.25-.06.32-.14.06-.08.1-.2.12-.33.02-.15.03-.36.03-.65v-1.34c0-.3 0-.51-.03-.66a.66.66 0 0 0-.12-.34c-.07-.09-.17-.14-.32-.16V27ZM45.6 28.96c.11.31.23.58.33.8.22.44.45.75.68.9.12.07.24.1.37.1H47v.2a2.72 2.72 0 0 1-.9 0c-.56-.09-.8-.63-.97-1.1a46.02 46.02 0 0 0-.21-.52.21.21 0 0 0-.1-.07 130.6 130.6 0 0 0-.44-.04v.41c-.01.29 0 .55.01.7.04.28.15.43.44.47V31c-.26 0-.56-.06-.89-.15-.35.1-.7.14-.94.15v-.19c.29-.04.45-.18.48-.47.02-.14.03-.4.03-.68v-1.34c0-.3-.01-.51-.03-.65-.04-.29-.17-.44-.48-.48v-.18c.34 0 .62.05.84.13.31-.1.65-.14 1.02-.14.67 0 1.37.23 1.37 1a1 1 0 0 1-.63.96Zm-1.23.02c.1.02.18.02.24.02.44 0 .67-.28.67-.82 0-.59-.25-.92-.69-.92l-.21.02-.01.8v.9ZM38 27c.21 0 .5.06.87.15.34-.1.63-.14.87-.15v.19c-.14.01-.23.06-.3.13a.6.6 0 0 0-.12.32l-.02.63v.28c0 .35 0 .65.03.9.02.24.05.42.1.56.06.18.16.31.3.41.13.1.3.14.48.14.38 0 .64-.17.8-.5.06-.13.1-.3.12-.5.02-.2.03-.48.03-.83v-.53c0-.27-.01-.46-.03-.6a.48.48 0 0 0-.13-.28c-.07-.07-.19-.11-.34-.13V27c.2.01.43.05.68.12.28-.07.5-.1.66-.12v.19c-.14 0-.24.04-.3.1a.47.47 0 0 0-.13.28c-.02.12-.03.29-.03.51v.86c0 .24 0 .44-.02.6-.01.18-.04.33-.09.48a1.21 1.21 0 0 1-.5.71c-.11.1-.26.16-.43.2-.16.05-.34.07-.54.07-.49 0-.86-.13-1.12-.4a1.2 1.2 0 0 1-.26-.4c-.06-.15-.1-.33-.13-.51-.02-.2-.03-.43-.03-.7v-.87l-.01-.43c0-.1-.02-.19-.05-.26a.32.32 0 0 0-.12-.17.47.47 0 0 0-.24-.07V27ZM33.07 27h.16c0 .05.03.08.09.1.2.05.44.02.65.02h1.1c.2 0 .42.03.61-.02.06-.02.09-.05.1-.1h.16c0 .12-.03.24-.06.38.06.27.1.52.12.76h-.18c-.02-.17-.06-.3-.1-.4a.47.47 0 0 0-.19-.22.72.72 0 0 0-.3-.1H35v2.7c.02.39 0 .62.42.7V31c-.26 0-.49-.06-.92-.15-.18.05-.42.08-.57.11-.16.03-.22.04-.35.04v-.18c.36-.06.4-.22.43-.57v-1.81L34 27.42h-.23c-.18 0-.31.06-.4.17-.09.1-.15.3-.2.55H33c.02-.24.06-.5.12-.76a1.64 1.64 0 0 1-.05-.38ZM30.14 29.68v-1.42c0-.28 0-.49-.03-.63a.56.56 0 0 0-.13-.32c-.07-.07-.17-.11-.32-.12v-.18c.26.01.48.05.68.12.19-.06.4-.1.66-.12v.18c-.11 0-.2.04-.26.1a.56.56 0 0 0-.15.28 2.6 2.6 0 0 0-.06.47v2.06l.01.9-.2-.06-.33.03a123.58 123.58 0 0 0-2.14-2.89v.77a33.83 33.83 0 0 0 .04 1.33c.01.14.02.23.04.3.05.2.2.31.47.33V31a4.33 4.33 0 0 1-.74-.12c-.25.07-.47.11-.68.12v-.19c.15 0 .26-.05.33-.14a.75.75 0 0 0 .14-.4c.02-.17.03-.43.03-.77v-1.05c0-.33-.01-.58-.03-.73a.67.67 0 0 0-.13-.37c-.07-.09-.18-.14-.34-.16v-.18c.19 0 .4.04.63.1.2-.07.35-.11.42-.11.05 0 .11.06.2.17a58.04 58.04 0 0 0 1.89 2.51ZM22 27c.33.02.61.07.84.15.2-.06.42-.1.66-.12a10 10 0 0 1 1.14 0c.05.02.07.06.07.12s-.02.12-.07.2a3.03 3.03 0 0 1 .04.6h-.19a.9.9 0 0 0-.07-.36.32.32 0 0 0-.2-.17 1.2 1.2 0 0 0-.38-.04h-.46l-.02.79v.59h.4c.17 0 .3-.03.37-.08.08-.05.12-.16.13-.33h.2c0 .2-.03.4-.09.58.06.22.1.42.1.6h-.2c-.01-.13-.03-.21-.06-.27a.23.23 0 0 0-.15-.11 1.16 1.16 0 0 0-.3-.03h-.4v.8c0 .2.01.35.04.44.02.1.08.16.16.19s.21.05.4.05c.18 0 .33-.02.44-.06.11-.03.2-.1.26-.2s.1-.24.12-.43H25c-.02.24-.06.46-.13.67.04.08.06.14.06.19 0 .1-.05.16-.15.19a24.83 24.83 0 0 1-1.28.02 3.9 3.9 0 0 1-.66-.13c-.28.08-.56.13-.84.15v-.19c.15-.02.25-.06.32-.14.06-.08.1-.2.12-.33.02-.15.03-.36.03-.65v-1.34c0-.3 0-.51-.03-.66a.66.66 0 0 0-.12-.34c-.07-.09-.17-.14-.32-.16V27ZM16 27c.36.03.65.08.87.15.29-.08.59-.13.9-.15v.2c-.1 0-.18.04-.22.08-.04.04-.06.1-.06.2s.06.37.2.77c.13.4.33.9.58 1.53.24-.67.41-1.17.52-1.53.1-.35.16-.6.16-.73 0-.1-.02-.18-.07-.23-.05-.05-.13-.08-.25-.1V27c.2.01.44.05.7.12.23-.06.46-.1.67-.12v.2c-.1 0-.2.04-.27.1a.76.76 0 0 0-.2.22l-.18.4a525.44 525.44 0 0 1-.42 1.1 77.65 77.65 0 0 0-.68 1.98l-.2-.05-.27.05a1943.1 1943.1 0 0 0-1.1-2.87 4.26 4.26 0 0 0-.36-.7c-.1-.16-.2-.24-.3-.24H16V27ZM14.14 29.68v-1.42c0-.28 0-.49-.03-.63a.56.56 0 0 0-.13-.32c-.07-.07-.17-.11-.32-.12v-.18c.26.01.48.05.68.12.19-.06.4-.1.66-.12v.18c-.11 0-.2.04-.26.1a.56.56 0 0 0-.15.28 2.6 2.6 0 0 0-.06.47v2.06l.01.9-.2-.06L14 31c-.18-.26-.37-.56-.57-.83a49.4 49.4 0 0 0-1.57-2.09v.77a28.42 28.42 0 0 0 .04 1.33c.01.14.02.23.04.3.05.2.2.31.47.33V31a4.33 4.33 0 0 1-.74-.12c-.25.07-.47.11-.68.12v-.19c.15 0 .26-.05.33-.14a.75.75 0 0 0 .14-.4c.02-.17.03-.5.03-.83v-.99c0-.33-.01-.58-.03-.73a.67.67 0 0 0-.13-.37c-.07-.09-.18-.14-.34-.16v-.18c.19 0 .4.04.63.1.2-.07.35-.11.42-.11.05 0 .11.06.2.17a57.48 57.48 0 0 0 1.89 2.51ZM7 24.82c.38.02.88.08 1.5.18.6-.1 1.1-.16 1.5-.18v.22c-.85.07-.78.8-.78 1.34v3c0 .54-.06 1.3.78 1.4V31c-.4-.01-.9-.07-1.5-.18-.62.11-1.12.17-1.5.18v-.22c.83-.07.77-.76.77-1.3v-3.1c0-.53.06-1.24-.77-1.34v-.22Z" fill="#25529F"/><defs><linearGradient id="a" x1="8.5" y1="19" x2="8.5" y2="25" gradientUnits="userSpaceOnUse"><stop offset=".2" stop-color="#F0B14A"/><stop offset="1" stop-color="#FDF150"/></linearGradient><linearGradient id="b" x1="8.5" y1="22.49" x2="8.5" y2="25" gradientUnits="userSpaceOnUse"><stop stop-color="#EDA640"/><stop offset="1" stop-color="#FCE94E"/></linearGradient></defs></svg>