<svg xmlns="http://www.w3.org/2000/svg" width="56" height="56"><path d="M0 28a28 28 0 1156 0 28 28 0 01-56 0z" fill="#06329F"/><path d="M19.3 37.98L11 29.66v-1.42l8.3 8.32 8.2-8.22v1.42l-8.2 8.22zM11 32.67l8.3 8.32 8.2-8.22v-1.42l-8.2 8.22-8.3-8.32v1.42zm0 3L19.3 44l8.2-8.22v-1.42l-8.2 8.22-8.3-8.32v1.42zm25.8 2.31l-8.3-8.32v-1.42l8.3 8.33 8.2-8.22v1.41l-8.2 8.22zm-8.3-5.31l8.3 8.32 8.2-8.22v-1.42l-8.2 8.22-8.3-8.32v1.42zm0 3L36.8 44l8.2-8.22v-1.42l-8.2 8.22-8.3-8.32v1.42zm-2.3-7.48l.7-.7-7.72-7.76-7.6 7.63.7.7 6.9-6.91 7.02 7.04z" fill="#fff"/><path d="M25.4 28.98l-6.22-6.24-6.1 6.12.7.7 5.4-5.4 5.52 5.53.7-.7z" fill="#fff"/><path d="M23.9 30.49l-4.72-4.74-4.6 4.61.7.7 3.9-3.9 4.02 4.03.7-.7zm19.86-2.39l.7-.7-7.64-7.67-7.68 7.7.7.71 6.98-7 6.94 6.96z" fill="#fff"/><path d="M42.97 28.9l-6.15-6.16-6.18 6.2.7.7 5.48-5.48 5.44 5.45.7-.71z" fill="#fff"/><path d="M41.47 30.4l-4.65-4.65-4.68 4.69.71.7 3.97-3.98 3.94 3.95.7-.71zm-6.15-10.64l.71-.7L28 11l-8.03 8.05.7.71L28 12.42l7.32 7.34zm-.79.8L28 14l-6.53 6.55.7.7L28 15.43l5.82 5.83.71-.7zm-1.5 1.5L28 17.02l-5.03 5.04.7.7L28 18.44l4.32 4.34.7-.71z" fill="#fff"/></svg>