<svg width="56" height="56" xmlns="http://www.w3.org/2000/svg"><path fill="#F0F3FA" d="M0 0h56v56H0z"/><path d="M26.067 33.832C24.61 36.27 21.787 39 18.279 39c-4.427 0-3.72-4.87-2.32-7.352 1.307-2.342 4.48-5.055 7.703-5.055 4.251 0 3.789 4.9 2.405 7.24zm-2.548-7.022c-3.11 0-5.379 3.998-6.19 6.14-.609 1.655-2.034 5.833 1.145 5.833 2.992 0 5.022-3.526 5.884-5.493.667-1.512 2.642-6.48-.839-6.48z" fill="url(#paint0_linear)"/><path d="M17.544 27.124c0 .093-.071.14-.214.14-.154 0-.307-.016-.462-.016-.51 0-.825.082-.944.248-.178.237-.439.76-.783 1.524l-4.51 9.174c-.154.402.124.574.622.574.155 0 .338.005.552.015.154.01.231.047.231.109 0 .072-.083.108-.249.108H7.142c-.095-.01-.142-.072-.142-.124 0-.072.16-.108.48-.108 1.14-.027 1.367-.403 1.745-1.224l4.404-8.788c.344-.754.516-1.188.516-1.26 0-.176-.184-.264-.552-.264h-.712c-.13 0-.196-.04-.196-.124 0-.072.066-.108.196-.108h4.503c.106 0 .16.041.16.124z" fill="url(#paint1_linear)"/><path d="M35 35.964c-.32.752-1.388 3.036-1.388 3.036h-9.214c-.166 0-.254-.041-.254-.124 0-.093.149-.14.445-.14 1.106 0 1.453-.218 1.833-1.022l4.96-9.444c.202-.423.303-.692.303-.805 0-.18-.303-.236-.726-.236h-.72c-.109 0-.16-.03-.16-.124 0-.045.049-.105.16-.105h4.738c.119 0 .178.052.178.155 0 .093-.11.108-.211.108h-.59c-.415 0-.676.031-.783.093-.095.052-.314.455-.658 1.209L28.13 37.9c-.129.266-.222.47-.267.589 0 .165.243.248.73.248 1.66 0 2.8-.073 3.416-.217.902-.207 1.643-.785 2.225-1.735a6.95 6.95 0 00.445-.821c.035-.093.089-.14.16-.14.107 0 .16.047.16.14z" fill="url(#paint2_linear)"/><path fill-rule="evenodd" d="M41.352 23.236c-4.328 4.748-13.685 4.316-16.024-.431-1.17-3.021-.239-4.825 1.17-6.043 2.69-2.325 8.022-2.026 9.941-.95l-.233.519c-4.28-1.836-10.294 0-9.709 3.453.827 1.83 2.823 1.504 4.955 1.155 3.239-.529 7.924-.827 9.9 2.297zm-12.515 0c.974.432 3.743 1.036 7.018 0 2.25-.712 4.093-.431 4.093 0-2.144 1.151-7.368 2.763-11.111 0z" fill="#63AB53"/><path d="M41.103 25.72c0-.886-.305-1.708-.831-2.385l.654-.508a4.694 4.694 0 011.005 2.893c0 2.776-2.443 4.966-5.38 4.966a5.695 5.695 0 01-2.831-.742L29.6 38h-.95l4.75-9.261.39.272a4.83 4.83 0 002.76.847c2.55 0 4.553-1.886 4.553-4.138z" fill="#63AB53"/><path d="M42.342 23.65c-.686 0-1.34.109-1.94.306l-.259-.787a7.054 7.054 0 012.199-.347c1.675 0 3.146.474 4.208 1.342 1.068.873 1.697 2.128 1.697 3.625 0 1.497-.63 2.752-1.697 3.625-1.062.868-2.533 1.341-4.208 1.341-2.07 0-3.918-.877-5.051-2.25l.638-.527c.965 1.169 2.573 1.95 4.413 1.95 1.525 0 2.799-.431 3.684-1.155.877-.717 1.394-1.738 1.394-2.984s-.517-2.267-1.394-2.985c-.885-.723-2.16-1.154-3.684-1.154z" fill="#63AB53"/><defs><linearGradient id="paint0_linear" x1="28.864" y1="27.428" x2="28.864" y2="38.551" gradientUnits="userSpaceOnUse"><stop stop-color="#F3D87D"/><stop offset="1" stop-color="#EEAD2B"/></linearGradient><linearGradient id="paint1_linear" x1="28.864" y1="27.428" x2="28.864" y2="38.551" gradientUnits="userSpaceOnUse"><stop stop-color="#F3D87D"/><stop offset="1" stop-color="#EEAD2B"/></linearGradient><linearGradient id="paint2_linear" x1="28.864" y1="27.428" x2="28.864" y2="38.551" gradientUnits="userSpaceOnUse"><stop stop-color="#F3D87D"/><stop offset="1" stop-color="#EEAD2B"/></linearGradient></defs></svg>