<svg width="56" height="56" xmlns="http://www.w3.org/2000/svg"><path fill="#0FAFF0" d="M0 0h56v56H0z"/><path d="M30.728 32.631c.527-.062.956-.204 1.34-.331.583-.193 1.06-.351 1.618-.143 0 0 .914.371 1.173.482.708.284.87.693 1.077 1.215.104.26.218.55.418.865.232.356.534.661.886.895a3.068 3.068 0 002.416.425c.41-.1.795-.284 1.132-.54 1.879-1.393 1.041-3.591.934-3.827a3.146 3.146 0 00-1.55-1.485 3.091 3.091 0 00-2.13-.133c-.532.147-.89.433-1.212.69-.456.366-.84.673-1.545.447l-1.231-.558s-1.978-.944-.896-3.652l1.151-2.824.01-.021c.162-.35.581-1.248 2.383-1.842 2.096-.693 4.02-2.196 3.214-5.43-.806-3.234-4.73-3.579-6.602-1.788-1.534 1.47-1.582 3.606-.722 5.342a4.06 4.06 0 01.176 3.263l-1.038 2.596c-.35.85-.728.945-1.477 1.133-.105.026-.218.055-.338.087a2.578 2.578 0 00-1.514 1.098 2.638 2.638 0 00.55 3.473 2.553 2.553 0 001.776.562l.001.001zm-2.94-6.42l-.018-.057c-.402-1.29-1.798-5.762-7.497-7.99-4.284-1.675-8.235-1.65-9.703-.046-.717.784-.865 2.473.186 4.592.542 1.095.858 2.17 1.164 3.21.35 1.19.686 2.334 1.332 3.41 1.417 2.354 4.99 2.075 5.628 1.973 0 0 4.663-.482 6.1-.56 2.15-.12 2.088-1.023 1.308-1.458-.442-.246-.76-.41-1.243-.661-.304-.157-.672-.348-1.178-.615l-.018-.008c-.343-.162-1.234-.583-2.996.137-2.047.836-4.471.937-5.908-2.065-1.436-3.001 1.352-5.822 3.922-5.667 2.11.126 3.502 1.731 3.944 3.62a4.037 4.037 0 001.936 2.616s1.146.616 1.816.986c.671.369 1.741.213 1.225-1.416zm.524 17.738c2.436-.478 3.4-6.183 2.274-9.41-.33-.95-1.22-.704-1.409-.353a58.343 58.343 0 01-.345.677c-.362.679-.227 1.099-.054 1.633.087.267.183.563.23.934a3.176 3.176 0 01-.71 2.378 3.101 3.101 0 01-.984.784c-.377.19-.789.3-1.21.324-2.325.157-3.077-2.074-3.146-2.326a3.214 3.214 0 01.246-2.147 3.154 3.154 0 011.544-1.49c.5-.234.956-.247 1.366-.259.581-.017 1.072-.031 1.467-.664 0 0 .178-.358.303-.629.212-.462-.265-1.528-1.877-.835-.26.112-.51.219-.754.322-1.849.79-3.238 1.382-4.465 2.265-1.389.998-1.671 1.928-1.692 2.693-.095 3.413 6.699 6.596 9.216 6.103z" fill="#fff"/></svg>