<svg width="56" height="56" viewBox="0 0 56 56" xmlns="http://www.w3.org/2000/svg"><path fill="#F0F3FA" d="M0 0h56v56H0z"/><path fill="#1B456F" d="M7 20h7v16H7z"/><path fill="#D13731" d="M7 20h2v16H7z"/><path d="M15 20h10.83c2.45 0 6.17 1.45 6.17 4.5 0 1.96-1.84 3.62-3.82 4.24A4.6 4.6 0 0 1 32 33.36V36h-6v-2.8c0-1.45-1.13-2.2-2.51-2.2H22v-4h2.16c1.27 0 1.84-.56 1.84-1.5s-.65-1.5-1.92-1.5H21v12h-6V20ZM33 20h9.71c2.1 0 5.29 1.38 5.29 4.5 0 1.25-.65 2.39-1.56 3.2 1.42.8 2.56 2.2 2.56 3.8 0 2.49-2.22 4.5-4.5 4.5H40v-3h1.87c1.21 0 2.13-.67 2.13-1.5s-.55-1.5-1.76-1.5H40v-3h1.53c1.01 0 1.47-.67 1.47-1.5s-.77-1.5-1.78-1.5H39v12h-6V20Z" fill="#1B456F"/></svg>