<svg width="56" height="56" viewBox="0 0 56 56" xmlns="http://www.w3.org/2000/svg"><path fill="#F0F3FA" d="M0 0h56v56H0z"/><path d="M28.1 11h.93c1.37.16 2.67.75 3.67 1.65 1.73 1.52 2.48 3.75 2.86 5.9l.03.45h-3.93a8.35 8.35 0 0 0-1.46-3.02 5.59 5.59 0 0 0-4.27-2.05 5.21 5.21 0 0 0-3.2 1.13 15.38 15.38 0 0 0-2.88 3c.8-1.61 1.84-3.13 3.13-4.44A8.48 8.48 0 0 1 28.1 11ZM32.12 23c-.97 0-1.94 0-2.91.02l.34.24c.25.16.5.32.7.53 1.37 1.23 1.53 3.46.23 4.77a5.6 5.6 0 0 1-2.66 1.35l1.98 1.85 2.38 2.22c.38.03.77.02 1.15.02H34v-3.67L33.99 23h-1.87Zm-9.49 0H22v11h7.76c.21 0 .43 0 .64-.03a136.2 136.2 0 0 0-2.2-1.98c-.8-.7-1.6-1.41-2.37-2.14l.03-.25.04-.25.14-.04c.87-.26 1.75-.52 2.55-.94.45-.24.9-.55 1.12-1 .37-.9.23-1.96-.4-2.73a5.98 5.98 0 0 0-2.38-1.63h-4.31ZM15.64 26.95l.03-.02c.66 1.19 1.34 2.36 1.98 3.56h-.03c-.17.03-.29.17-.4.28a8.48 8.48 0 0 0-1.8 2.51 5.14 5.14 0 0 0-.21 3.34 4.62 4.62 0 0 0 2.06 2.88c1.53.95 3.35 1.21 5.09 1.5-2.41.1-4.9-.1-7.15-1.03a6.8 6.8 0 0 1-3.74-3.45 6.03 6.03 0 0 1-.07-4.49c.76-2.12 2.45-3.75 4.24-5.08ZM40.97 27.24c1.5 2.15 2.8 4.55 3.03 7.18v1.3a5.85 5.85 0 0 1-1.5 3.56 6.77 6.77 0 0 1-3.9 1.97c-2.07.3-4.14-.19-6.07-.88l.07-.16c.57-1.12 1.21-2.22 1.82-3.32l.04-.02c1.18.32 2.44.46 3.66.26a5.52 5.52 0 0 0 3.6-2.48c.51-.8.73-1.75.68-2.68-.07-1.67-.8-3.2-1.43-4.73Z" fill="#000075"/><path d="M35.65 19h3.2c.02 2.71-.2 5.4-.73 8.06-.67 3.4-1.89 6.68-3.6 9.7.28-1.05.67-2.06.93-3.11a29.8 29.8 0 0 0 .2-14.65ZM24.96 19.72a29.95 29.95 0 0 1 6.75-.7c-1.6.33-3.21.67-4.77 1.2-2.1.68-4.13 1.58-6.02 2.71a32.85 32.85 0 0 0-5.2 3.83l-.03.02c-.5-.92-1.12-1.8-1.59-2.74a38 38 0 0 1 10.86-4.32ZM17.77 30.45c1.04 1.05 1.98 2.19 3.1 3.15a31.21 31.21 0 0 0 11.3 6.55c.15.06.32.1.48.03l-.07.16c-.48.86-.99 1.72-1.48 2.58-.07.16-.24.04-.34-.01a36.08 36.08 0 0 1-11.95-10.77c-.35-.56-.75-1.1-1.04-1.69Z" fill="#CCC7D2"/></svg>