<svg width="56" height="56" viewBox="0 0 56 56" xmlns="http://www.w3.org/2000/svg"><path fill="#F0F3FA" d="M0 0h56v56H0z"/><path d="M29.56 28.85c.33-.03.63-.04.89-.03l2.55.06.4.02c.21.02.43.04.65.02.1-.01.1 0 .01.04a21.71 21.71 0 0 1-2.53.4c-.8.06-1.52.14-2.17.26a.4.4 0 0 0-.18.08c-.03.03-.03.05.02.05 1.4.07 2.8.22 4.22.46a2.62 2.62 0 0 0 .47.04l.01.02c-.22.04-.39.06-.5.06a354.99 354.99 0 0 0-11.25.19v-.03h.01l.63-.09c.44-.05.87-.1 1.3-.2a22.7 22.7 0 0 1 2.95-.44c.2-.02.2-.05.01-.1l-.29-.06c-.89-.11-1.93-.2-3.14-.27-.24 0-.48-.04-.73-.07a9.3 9.3 0 0 0-.96-.1l-.01-.03a.03.03 0 0 1 .03-.03c1.11-.17 2.23-.28 3.36-.34l.54-.06a4.55 4.55 0 0 1 .75-.09c0-.01 0-.02-.02-.03a4.95 4.95 0 0 0-.57-.05 259.19 259.19 0 0 1-4-.2 15.3 15.3 0 0 1 1.17-.12 27.85 27.85 0 0 0 2.76-.32 4.8 4.8 0 0 1 .6-.07 138.69 138.69 0 0 1-4.5-.57v-.01h.05c.52-.01 1.04-.02 1.56-.07l2.9-.26c.2-.02.37-.05.54-.11l.02-.02v-.01l-.01-.01c-.36.02-.6.03-.71 0l-.79-.14a21 21 0 0 0-2.25-.35 20.8 20.8 0 0 1-1.16-.14v-.03a241.6 241.6 0 0 1 4.83-.01h3.8l3.05-.02c.02 0 .04.02.04.04v.03l-.8.08c-.55.06-1.09.1-1.61.2l-.1.03c-.74.14-1.56.3-2.35.33-.04 0-.05.01-.02.04l.04.02a660.39 660.39 0 0 0 4.95.03v.02a.02.02 0 0 1-.01.01 9.4 9.4 0 0 1-1.56.36 6 6 0 0 0-.93.19 15.48 15.48 0 0 1-2.15.48c0 .02 0 .02.02.02 1.58 0 3.1-.01 4.54-.03.33 0 .34.03.02.1-.51.12-1.03.18-1.54.25-.37.04-.74.09-1.1.15a32.1 32.1 0 0 0-1.78.4v.02s.02.02.03.01Z" fill="#2B418E"/><path fill-rule="evenodd" d="M14.34 18.3c-.2.26-.34.62-.34 1.06v17.16c0 .53.18 1 .56 1.38l6.12 6.59.03.02c.18.19.38.4.64.44.2.03.4.05.58.05h12.71c.35 0 .5-.16.7-.38l6.5-6.88c.1-.11.16-.25.16-.4v-18.8l-.01-.78a.33.33 0 0 0-.1-.23l-6.55-6.34c-.16-.15-.36-.2-.57-.19H20.7l-.03.03a.1.1 0 0 1-.03.03.13.13 0 0 0-.05.05l-6.25 7.2Zm18.73-1.19h-.02c-.32-.08-.6-.2-.85-.34-.11-.07-.23-.11-.35-.16-.13-.04-.26-.1-.4-.17-.2-.13-.41-.22-.65-.29a3.54 3.54 0 0 1-.6-.24 2.42 2.42 0 0 0-.87-.3c-.38-.02-1.15-.07-1.44.17l-.14.1a.77.77 0 0 0-.32.32.9.9 0 0 0-.08.36c-.01.67.3 1.16.91 1.48l.32.14c.15.06.3.13.45.22.17.1.34.19.51.26.2.08.38.18.56.29.17.1.35.2.54.28.14.06.26.14.39.21l.3.18c.16.08.33.18.5.29l.64.41c.42.27.88.59 1.37.96.37.29.7.58 1 .89a4.26 4.26 0 0 1 .75 1.1 4.3 4.3 0 0 0 1.11 1.33c.39.27.8.46 1.24.58.43.11.95.2 1.54.26.32.03.62.13.93.23.18.06.36.12.54.16H41l.01-.02v-7.56c0-.17-.12-.31-.23-.42a377.37 377.37 0 0 1-5.36-5.38c-.36-.37-.66-.65-1.17-.65-1.48.02-3.1.02-4.87.01-.21 0-.37.14-.52.27a540.25 540.25 0 0 1-3.17 2.78c-.6.52-1.1 1.02-1.47 1.47-.4.51-.89 1.2-1.44 2.06-.08.13-.15.27-.21.41a.22.22 0 0 0 .07.26c.3.22 1.13.09 1.42-.03.33-.13.68-.27 1.05-.4.16-.07.29-.16.42-.25l.21-.14c.15-.1.3-.21.44-.35.3-.3.53-.57.68-.8.23-.34.44-.77.62-1.29 0-.02.02-.05.04-.06.62-.46 1.28-.5 1.98-.34l.07-.01.15-.07.22-.1c.51-.18 1.03-.35 1.54-.5.26-.08.75.25.95.4.03.02.05.05.07.09l.6 1.87a.03.03 0 0 1-.01.03h-.01ZM22.86 38.78c-.04-.02-.05-.01-.04.03l.25.9c.03.14.08.27.13.39l.08.21c.08.22.16.44.34.58.33.24.75.2 1.14.15.4-.07.71-.24 1.05-.43l.12-.07c.19-.1.4-.13.62-.1.38.06.8.06 1.27 0 .32-.03.6-.41.72-.68.14-.32.3-.63.45-.91.1-.17.2-.31.33-.44l.2-.24.3-.31c.3-.26.64-.49 1.03-.68.23-.12.47-.18.71-.24.15-.04.29-.07.43-.12.37-.13.93-.2 1.25.06a.1.1 0 0 1 .04.08c0 .11-.03.22-.1.32-.5.8-.92 1.45-1.27 1.92-.27.37-.67.8-1.18 1.28l-.74.67c-.35.31-.7.63-1.02.95-.72.72-1.43 1.38-2.2 1.98-.06.06-.2.08-.4.08-1.35-.01-2.72 0-4.13.02h-.06c-.27 0-.58.01-.8-.2-.56-.61-.95-1.04-1.15-1.3-.37-.47-.74-.91-1.11-1.32l-.85-.94-2.16-2.36c-.3-.32-.58-.64-.84-.95-.23-.27-.27-.74-.27-1.1v-5.98a.03.03 0 0 1 .01-.03h.03l.03.02c.35.16.66.31 1.06.35l.95.07c.14.01.28.04.41.09.4.14.76.25 1.1.35.08.02.15.05.22.1a4.7 4.7 0 0 1 1.65 1.91c.2.42.45.67.74.96l.18.18c.17.17.36.33.58.49a28.83 28.83 0 0 0 3.66 2.34l.3.13.36.18c.15.1.3.16.46.24.16.07.32.14.47.23l.54.3c.5.23.72.68.74 1.24.02.31-.06.65-.34.84-.57.4-1.1.33-1.75.24a1.15 1.15 0 0 1-.33-.1c-.12-.05-.23-.1-.35-.13-.15-.05-.3-.1-.45-.19l-.09-.05c-.16-.1-.33-.19-.5-.26-.28-.1-.54-.22-.8-.34-.15-.08-.3-.13-.46-.18a2.7 2.7 0 0 1-.56-.23Zm11.58-10.71c0 4.27-2.86 7.73-6.39 7.73s-6.39-3.46-6.39-7.73c0-4.27 2.86-7.73 6.4-7.73 3.52 0 6.38 3.46 6.38 7.73Z" fill="#2B418E"/></svg>