<svg width="56" height="56" viewBox="0 0 56 56" xmlns="http://www.w3.org/2000/svg"><path fill="#F0F3FA" d="M0 0h56v56H0z"/><path d="M20 28.76V18h-.84A10.04 10.04 0 0 1 8 29.16V30h10.74A1.7 1.7 0 0 1 20 28.76Z" fill="url(#ax40usovg)"/><path d="M18.74 31H8v.84A10.04 10.04 0 0 1 19.16 43H20V32.23A1.7 1.7 0 0 1 18.74 31Z" fill="url(#bx40usovg)"/><path d="M22.2 31a1.7 1.7 0 0 1-1.2 1.22V43h.84A10.04 10.04 0 0 1 33 31.84V31H22.2Z" fill="url(#cx40usovg)"/><path d="M22 18c0-.56.43-1 1-1 .57 0 1 .41 1 .96 0 .59-.41 1.04-1 1.04-.57 0-1-.44-1-1ZM24 21h-2v8h2v-8ZM32.9 29l-2.16-3H28v3h-2V18h4.33C33.1 18 35 19.48 35 21.91c0 1.67-1 3.1-2.42 3.68l2.42 3.4h-2.1V29Zm-2.65-9H28v4h2.25c1.71 0 2.75-.7 2.75-2.08 0-1.39-1.04-1.92-2.75-1.92ZM36 18h2v11h-2V18ZM40 27.71l.64-1.88c.8.68 2.08 1.17 3.31 1.17 1.56 0 2.05-.25 2.05-1.05 0-2.3-6-.79-6-4.76 0-1.72 1.5-3.19 4.25-3.19 1.2 0 2.46.34 3.33.95L47 20.84a5.3 5.3 0 0 0-2.77-.84c-1.54 0-2.23.3-2.23 1.1 0 2.28 6 .8 6 4.72 0 1.71-1.3 3.18-4.05 3.18A6.22 6.22 0 0 1 40 27.71Z" fill="#005BAA"/><defs><linearGradient id="ax40usovg" x1="19.89" y1="29.24" x2="14.94" y2="23.89" gradientUnits="userSpaceOnUse"><stop stop-color="#319745"/><stop offset="1" stop-color="#005BAA"/></linearGradient><linearGradient id="bx40usovg" x1="19.49" y1="31.99" x2="14.94" y2="36.15" gradientUnits="userSpaceOnUse"><stop stop-color="#319745"/><stop offset="1" stop-color="#005BAA"/></linearGradient><linearGradient id="cx40usovg" x1="21.85" y1="31.79" x2="25.81" y2="36.35" gradientUnits="userSpaceOnUse"><stop stop-color="#319745"/><stop offset="1" stop-color="#005BAA"/></linearGradient></defs></svg>