<svg width="56" height="56" viewBox="0 0 56 56" xmlns="http://www.w3.org/2000/svg"><path fill="#0061A2" d="M0 0h56v56H0z"/><path d="M24 29.83v-9.71c.2-2.37 1.67-7.12 7.32-7.12s7.48 4.75 7.68 7.12v.48c0 .84-.7 1.52-1.56 1.52-.86 0-1.56-.68-1.56-1.52v-.48A4.38 4.38 0 0 0 31.32 16C27.07 16 27 19.91 27 20.48v6.25c.58-.3 2.02-.73 4.1-.73 2.6 0 7.56.73 7.56 5.17 0 4.31-4.84 4.6-6.86 4.73l-.17.01-.79.04c-1.78.06-3.84.14-3.84 1.93 0 2.05 2.82 2.12 4.35 2.12 1.3 0 3.13-.42 4.6-1.67.46-.39 1.1-.55 1.67-.33.46.18.79.58.88 1.06l.02.14a1.4 1.4 0 0 1-.45 1.35A11.22 11.22 0 0 1 31.1 43C26.33 43 24 41.21 24 37.28c0-3.83 4.44-4.04 6.91-4.16l.2-.01c2.41-.12 4.89-.36 4.89-2.26C36 30 34.12 29 31.1 29c-2.06 0-3.55.51-4.45 1.25-.6.48-1.37.8-2.13.63-.5-.12-.52-.55-.52-1.05Zm-5.44-16.8c-.86 0-1.56.67-1.56 1.5v9.67c0 .83.7 1.5 1.56 1.5.85 0 1.55-.67 1.55-1.5v-9.67c0-.83-.7-1.5-1.55-1.5Zm0 17.29c-.86 0-1.56.67-1.56 1.5v9.68c0 .83.7 1.5 1.56 1.5.85 0 1.55-.67 1.55-1.5v-9.68c0-.83-.7-1.5-1.55-1.5Zm1.55-2.55c0 .83-.7 1.5-1.55 1.5-.86 0-1.56-.67-1.56-1.5s.7-1.5 1.56-1.5c.85 0 1.55.67 1.55 1.5Z" fill="#fff"/></svg>