<svg width="56" height="56" viewBox="0 0 56 56" xmlns="http://www.w3.org/2000/svg"><path fill="#F0F3FA" d="M0 0h56v56H0z"/><path d="M28.2 17a.5.5 0 0 0-.21 0L8.25 21.44A1.6 1.6 0 0 0 6.99 23H6a2.6 2.6 0 0 1 2.03-2.53l19.74-4.43c.21-.05.44-.05.66 0l19.54 4.43A2.6 2.6 0 0 1 50 23h-1c0-.75-.51-1.4-1.25-1.57L28.21 17ZM28.2 39a.5.5 0 0 1-.21 0L8.25 34.56A1.6 1.6 0 0 1 6.99 33H6a2.6 2.6 0 0 0 2.03 2.53l19.74 4.43c.21.05.44.05.66 0l19.54-4.43A2.6 2.6 0 0 0 50 33h-1c0 .75-.51 1.4-1.25 1.57L28.21 39Z" fill="#0A90CD"/><path d="M9.05 23h38l-1.78-.47H10.82L9.05 23Zm4-1.06h29.97l-2.15-.56H15.19l-2.14.56Zm4.37-1.15h21.2l-1.9-.5H19.3l-1.88.5Zm4.12-1.09h12.93l-1.89-.5h-9.17l-1.87.5Zm4.11-1.08 2.33-.62 2.35.62h-4.68ZM9 33h38l-1.78.47H10.77L9 33Zm4 1.06h29.97l-2.15.56H15.14L13 34.06Zm4.37 1.15h21.2l-1.9.5H19.26l-1.88-.5Zm4.12 1.09h12.93l-1.89.5h-9.17l-1.87-.5Zm4.11 1.08 2.33.62 2.35-.62H25.6Z" fill="#0A90CD"/><path d="M6 24v8h2v-8H6Zm26 0v8h8v-2h-6v-1h5.5v-2H34v-1h6v-2h-8Zm-15.5 2.5h2v-.6c0-1-.62-1.9-1.51-1.9h-5.37c-.9 0-1.62.9-1.62 1.9v1.22c0 1 .73 1.88 1.62 1.88h4.68c.4 0 .7.06.7.5s-.3.5-.7.5h-3.46c-.43 0-.84-.05-.84-.52h-2v.64c0 1 .73 1.88 1.62 1.88h5.85c.9 0 1.53-.71 1.53-1.7v-1.51c0-1-.63-1.79-1.53-1.79H12.8c-.4 0-.79-.08-.79-.52s.39-.48.79-.48h2.97c.4 0 .74.05.74.5Zm13.5 0h-2c0-.25-.17-.5-.55-.5h-3.88c-.3 0-.57.25-.57.58v2.83c0 .33.28.59.57.59h3.88c.3 0 .55-.26.55-.59V29h-3v-2h5v3.21c0 .99-.7 1.79-1.58 1.79h-5.84c-.87 0-1.58-.8-1.58-1.79V25.8c0-.99.7-1.79 1.58-1.79h5.84c.87 0 1.58.92 1.58 1.9v.6ZM42.63 32h5.74c.9 0 1.63-.8 1.63-1.8V29h-2v.54c0 .34-.29.46-.59.46H43.6c-.3 0-.59-.12-.59-.46v-3.06c0-.34.29-.48.59-.48h3.82c.3 0 .59.14.59.48V27h2v-1.2c0-1-.73-1.8-1.63-1.8h-5.74c-.9 0-1.63.8-1.63 1.8v4.4c0 1 .73 1.8 1.63 1.8Z" fill="#C12121"/></svg>