<svg xmlns="http://www.w3.org/2000/svg" width="56" height="56"><path fill="#F0F3FA" d="M0 0h56v56H0z"/><path fill-rule="evenodd" d="M9 15h29l5 5h-4v25l-4-4v-3s-2.92 3-7.84 3C22.26 41 17 37.31 17 31.99V20h-3l-5-5zm26 9v3.15S34.35 26 33 26s-2 1-2 2.1v3.27c0 1.46.52 2.63 2 2.63s2-1.5 2-1.5c-.42 2.57-2 4.5-5.28 4.5-1.77 0-3.64-.96-4.17-2.06-.53-1.1-.55-3.05-.55-3.74v-3.1c0-1.16-.65-2.1-2-2.1s-2 1.15-2 1.15V24s2.14.31 4.39-1.39C27.63 20.91 28 19 28 19s.65 1.96 2.8 3.61c2.16 1.66 4.2 1.4 4.2 1.4z" fill="#95292B"/></svg>