<svg xmlns="http://www.w3.org/2000/svg" width="56" height="56"><path fill="#F0F3FA" d="M0 0h56v56H0z"/><path fill-rule="evenodd" d="M28 10a18 18 0 100 36 18 18 0 000-36zm0 35c-9.35 0-17-7.66-17-17s7.66-17 17-17 17 7.66 17 17-7.65 17-17 17zm8-24v3h-3v12h-3V24h-3v-3h9zm-8 20a13 13 0 10-3-25.65v25.3c.96.23 1.97.35 3 .35zm-7.88-23.34a13 13 0 011.88-1.2v23.08c-.76-.4-1.48-.87-2.15-1.4l-2.11 2.14A16 16 0 1018 15.5l2.12 2.15zm-4.28-.06A15.94 15.94 0 0012 28c0 3.85 1.36 7.38 3.63 10.15L17.75 36a12.95 12.95 0 01.21-16.25l-2.12-2.15z" fill="#F4821E"/></svg>