<svg xmlns="http://www.w3.org/2000/svg" width="56" height="56"><path fill="#016EB8" d="M0 0h56v56H0z"/><path d="M43 25v8.24L46 36V25h-3zm-10 0v3h3v5.24L39 36v-8h3v-3h-9zm-4 0v7.98L32 36V25h-3z" fill="#fff"/><path d="M15.08 16H9.3l3.11 3h5.52a3.4 3.4 0 012.19.9l1.34 1.1h-5.62c-2.05-.14-6.3 1.1-6.79 5.87-.49 4.76 3.3 9.34 5.27 11.04 1.53 1.39 5.73 4.15 10.23 4.09 4.5-.06 6.55-3.17 7-4.72L28.4 34.2c-.76 5.34-5.2 5.97-7.3 5.61-1.77-.33-5.71-1.8-7.45-5.02-2.17-4.04-1.03-7.18.46-9.02 1.18-1.48 5.23-1.98 6.9-1.77v2h-3.08c-4.23 1.39-4 5.39-3.37 6.98.77 2.02 3.42 5.98 7.88 5.61 4.46-.36 5.18-3.71 4.99-5.34l-2.76-2.74c.03 2.3-.75 6.68-4.17 6.54a4.1 4.1 0 01-4.17-4.07c0-2.06 1.98-3.68 2.82-3.98H24v-5h3.15c-1.87-1.63-5.97-4.7-7.47-6.16a7.17 7.17 0 00-4.6-1.84z" fill="#fff"/></svg>