<svg width="56" height="56" viewBox="0 0 56 56" xmlns="http://www.w3.org/2000/svg"><path fill="#F0F3FA" d="M0 0h56v56H0z"/><path d="M48 32a.98.98 0 0 1-.71-.29A.96.96 0 0 1 47 31c0-.28.1-.52.29-.71.2-.2.43-.29.72-.29.27 0 .5.1.7.29.2.19.29.43.29.71 0 .28-.1.52-.29.71-.2.2-.43.29-.7.29Z"/><path d="M7.5 24a.49.49 0 0 1-.36-.14.48.48 0 0 1-.14-.36c0-.14.05-.26.14-.36.1-.1.22-.14.36-.14.14 0 .26.05.36.14.1.1.14.22.14.36 0 .14-.05.26-.14.36-.1.1-.22.14-.36.14Z" fill="#C80000"/><path d="M35 23v9h-1v-9h1Z"/><path fill-rule="evenodd" d="M46 23h-1v3.05a3.49 3.49 0 0 0-6 2.45 3.5 3.5 0 0 0 6 2.45V32h1v-9Zm-1 5.5a2.5 2.5 0 1 0-5 0 2.5 2.5 0 0 0 5 0Z"/><path d="M38 25v-2h-1v2h-1v1h1v6h1v-6h1v-1h-1Z"/><path d="M22.46 25c1.65 0 2.54 1.4 2.54 2.94V32h-1v-4.19c0-.96-.73-1.91-1.8-1.91-1.1 0-1.7.94-1.7 1.91V32h-1v-4.19c0-.96-.42-1.81-1.5-1.81s-2 .84-2 1.81V32h-1v-7h1v.9c.42-.57 1.37-.9 2.1-.9.98 0 1.8.48 2.21 1.36A2.38 2.38 0 0 1 22.46 25ZM10.75 31H14v1H9l3.25-6H9v-1h5l-3.25 6ZM8 25v7H7v-7h1Z" fill="#C80000"/><path fill-rule="evenodd" d="M29.5 31a2.5 2.5 0 1 0 0-5 2.5 2.5 0 0 0 0 5Zm0 1a3.5 3.5 0 1 0 0-7 3.5 3.5 0 0 0 0 7Z" fill="#C80000"/></svg>