<svg width="56" height="56" viewBox="0 0 56 56" xmlns="http://www.w3.org/2000/svg"><path fill="#E21D24" d="M0 0h56v56H0z"/><path fill-rule="evenodd" d="M45 28a16.97 16.97 0 0 1-13.68 16.67 16.97 16.97 0 0 1-19.03-10.16 16.95 16.95 0 0 1 3.69-18.53A16.91 16.91 0 0 1 28 11a16.97 16.97 0 0 1 16.67 13.68c.22 1.1.33 2.2.33 3.32Zm-1.5 0A15.47 15.47 0 0 1 28 43.5 15.47 15.47 0 0 1 12.5 28 15.47 15.47 0 0 1 28 12.5 15.47 15.47 0 0 1 43.5 28Zm-17.6-5.93c-.48.62-1.03 1.29-1.65 2-.28.3-.52.53-.74.67a3.5 3.5 0 0 1-.98.43c-.5.14-.79.06-.86-.25a1.65 1.65 0 0 1-.04-.55c.01-.2.07-.39.16-.54.3-.53.59-1 .88-1.4.23-.3.56-.66.99-1.04l2.42-2.16c.14-.13.25-.3.3-.5a.14.14 0 0 0-.02-.11.14.14 0 0 0-.1-.07.9.9 0 0 0-.65.11l-3.11 2.08c-.6.4-1.17.69-1.71.84-.12.03-.26.05-.4.05-.18 0-.31-.03-.39-.08-.12-.1-.16-.3-.12-.6.04-.22.1-.43.19-.64.09-.2.21-.4.38-.58a34.03 34.03 0 0 1 3.71-3.5 10.24 10.24 0 0 1 4.62-2.16 2.02 2.02 0 0 1 1.18.13c.2.1.34.21.46.36.12.16.2.35.22.56.02.28-.01.6-.1.98a12.35 12.35 0 0 1-.39 1.2l.01.04c.01.02.03.02.05.02.13-.04.25-.06.39-.06l.78-.05a19.44 19.44 0 0 1 2.2-.04 6.9 6.9 0 0 1 4.66 2.33c.57.62 1 1.15 1.3 1.59a5.59 5.59 0 0 1 .95 3.62 7.24 7.24 0 0 1-.4 1.93c-.24.65-.57 1.2-.99 1.66l-.8.9a9.96 9.96 0 0 1-2.53 2.08c-.63.36-1.29.72-2 1.06a.14.14 0 0 0-.07.15c.16.74.26 1.38.33 1.91.08.68.1 1.32.09 1.93a4.1 4.1 0 0 1-.98 2.62c-.37.42-.77.77-1.21 1.05-.49.31-.98.5-1.47.59-.28.04-.57.07-.88.08a3.51 3.51 0 0 1-2.37-.8c-.06-.04-.12-.04-.18 0-.6.44-1.16.75-1.7.95a4.15 4.15 0 0 1-3.4-.2 5.14 5.14 0 0 1-1.37-.93 5.6 5.6 0 0 1-1.6-2.47 8.68 8.68 0 0 1 .07-4.58c.13-.48.37-.9.75-1.22.31-.28.74-.53 1.27-.73.04-.02.05 0 .03.04a5.81 5.81 0 0 0-.24 4.73 5.3 5.3 0 0 0 1.68 2.48c.26.23.56.36.91.41.34.05.67.01 1-.11.16-.07.32-.17.47-.3.15-.14.27-.3.38-.47.1-.18.17-.36.2-.55.04-.2.04-.38-.02-.56l-.49-1.65c-.01-.04 0-.06.04-.03.2.1.41.18.62.23a7.28 7.28 0 0 1 .98.26.04.04 0 0 0 0-.04 2.47 2.47 0 0 1-.06-.5c-.01-.58-.05-1.1-.1-1.55v-.31c0-.18 0-.32-.02-.4a.6.6 0 0 0-.18-.34l-.83-.74a.76.76 0 0 1-.2-.28.11.11 0 0 1 0-.12.12.12 0 0 1 .1-.05c.41 0 .77-.03 1.08-.1.03-.01.05-.03.06-.06.03-.12.05-.24.05-.36 0-.56-.03-1.14-.1-1.74l-.13-1.12c-.14-1.1-.23-1.92-.28-2.46-.05-.64-.08-1.13-.09-1.47-.01-.52.01-1.01.07-1.47.02-.12-.01-.13-.09-.03Zm11.38 3.33c.05-.77-.06-1.5-.31-2.22a8.84 8.84 0 0 0-.36-.88 3.3 3.3 0 0 0-.51-.8 5.45 5.45 0 0 0-2.4-1.52 8.27 8.27 0 0 0-1.87-.3 5.8 5.8 0 0 0-2.48.39c-.3.11-.55.35-.73.7-.15.31-.23.65-.24 1.02v.29c-.02.6-.02 1.04-.02 1.35 0 .52.03.98.06 1.38l.07.89c0 .17.03.44.07.8.05.4.08.7.08.9.04 1 .19 2 .46 3.03.05.23.16.4.3.5.18.1.37.1.57-.04.14-.09.19-.21.16-.38L29.75 28a9.37 9.37 0 0 1 .25-4.05c.21-.73.59-1.45 1.13-2.16.09-.12.21-.2.37-.25a.2.2 0 0 1 .17.02.2.2 0 0 1 .1.13c.04.23.05.44.01.63a44 44 0 0 1-.23 1.27 6.76 6.76 0 0 0-.01 2.6c.25 1.35.58 2.57.98 3.65.13.36.37.55.71.56.15 0 .3-.02.47-.08.14-.06.29-.14.43-.24.39-.26.76-.54 1.14-.83.56-.43 1.03-1 1.41-1.7.36-.64.56-1.36.6-2.15Zm-7.52 7.45a1 1 0 0 0-.16.45c-.06.55-.1 1.04-.11 1.47-.02.36-.06.75-.13 1.18l-.21 1.17-.03.15c-.05.24.03.4.25.5.37.17.77.21 1.19.13.19-.03.34-.19.48-.46a1.93 1.93 0 0 0 .18-.69 10.16 10.16 0 0 0-.3-3.02c-.1-.27-.22-.52-.4-.73a.5.5 0 0 0-.31-.19 1.54 1.54 0 0 0-.37 0 .1.1 0 0 0-.08.04Z" fill="#FDFDFD"/></svg>