<svg xmlns="http://www.w3.org/2000/svg" width="56" height="56"><path fill="#F0F3FA" d="M0 0h56v56H0z"/><path d="M14.58 37C10.35 37 8 33.87 8 30c0-3.7 2.6-7 6.45-7 1.1 0 2.11.34 3.08.71.32 0 .4-.44.47-.71h.5l.19 4h-.5c-.52-1.98-1.72-3-3.61-3-3 0-4.58 3.03-4.58 6 0 3.22 1.7 6 4.58 6 1.85 0 3.02-.36 3.72-1.97l.46.24c-.72 2-2.09 2.73-4.18 2.73zm9.44 0C21.57 37 20 35.56 20 32.5c0-2.59 1.48-4.5 4.04-4.5 2.43 0 3.96 1.44 3.96 4.5 0 3.08-1.53 4.5-3.98 4.5zm.02-1c1.33 0 1.96-.89 1.96-3.5 0-2.73-.75-3.5-1.98-3.5-1.6 0-2.02 1.7-2.02 3.5 0 2.66.85 3.5 2.04 3.5zm10.77-8c.88 0 1.4.67 1.4 1.53 0 .37-.08.67-.26.88-.17.21-.44.32-.8.32-.31 0-.56-.08-.73-.25a.86.86 0 01-.24-.63c0-.16.02-.28.07-.38.05-.1.13-.2.23-.32.1-.11.15-.2.15-.26 0-.11-.09-.17-.25-.17-.64 0-1.38 2.4-1.38 3.08v3.74c0 .98.16.97 1 .97V37h-4v-.5c.87 0 1-.11 1-1v-5.6c0-.71-.33-.9-1-.9v-.52l2.44-.48H33v1.85c.02-.82.74-1.85 1.81-1.85zm7.79 0c2.52 0 3.4 2.27 3.4 4.45C46 35 44.86 37 42.06 37a3.1 3.1 0 01-2.06-.81v3.23c0 .95.18 1.01 1 1.01V41h-4.03v-.57c.82 0 1.03-.08 1.03-1v-9.58c0-.82-.3-.85-1-.85v-.52l2.27-.48H40v1c.76-.64 1.6-1 2.6-1zm-.76 8c1.4 0 2.16-1.11 2.16-3.3 0-1.07-.04-3.7-2.02-3.7-.72 0-1.27.14-1.98.77v5.4a2.2 2.2 0 001.84.83z"/><path d="M20.96 27c-.64 0-1.15-.28-1.55-.6-.41-.33-.62-.71-.62-1.17 0-.38.1-.68.3-.9.19-.21.46-.32.8-.32a1 1 0 01.7.25c.18.16.28.4.28.68 0 .16-.02.28-.06.37-.04.08-.1.17-.17.26a.5.5 0 00-.11.29c0 .12.06.22.17.28a.7.7 0 00.43.12c1.46 0 1.87-2 1.87-3.26v-7.29c0-1-.03-1.16-1-1.16V14h4v.55c-.93 0-1 .13-1 1.16v5.68C25 25.3 23.67 27 20.96 27zm13.54-.51c-.52.33-1.09.51-1.7.51-1.02 0-1.63-.48-1.8-1.24A4.2 4.2 0 0128.19 27c-1.2 0-2.19-.58-2.19-1.9 0-2.49 3.06-3.4 5-3.71v-.8c0-1.14-.5-1.92-1.7-1.92-.4 0-1.7.15-1.7.74 0 .09.05.18.16.28a1 1 0 01.28.29c.07.09.11.23.11.42 0 .26-.07.48-.22.65-.15.15-.36.22-.64.22a.93.93 0 01-.69-.26 1.06 1.06 0 01-.24-.75c0-1.7 2.05-2.26 3.44-2.26 1.9 0 3.2.57 3.2 2.65v4.2c0 .82.48 1.56 1.37 1.16l.13.48zM28 24.56c0 1.82 2 1.33 3 .57V22a4.76 4.76 0 00-2.19.96 1.9 1.9 0 00-.81 1.61zm8 .86c0 .98-.14 1.03-1 1.03V27h4v-.55c-.74 0-1-.25-1-1.03V18h-.53l-2.47.42V19h.47c.5 0 .53.36.53.8v5.62zM37 16a1 1 0 100-2 1 1 0 000 2z" fill="#149CCD"/></svg>