<svg xmlns="http://www.w3.org/2000/svg" width="56" height="56"><path fill="#DB261D" d="M0 0h56v56H0z"/><path d="M11.41 22.88L27.22 17l.1.26-9.5 6.06c-.33.19-.77.56-.82 1.05-.05.5.44.92.68 1.1l9.64 6.3-.1.23-16.11-6c-.43-.16-1.17-.61-1.1-1.56.06-.95.93-1.4 1.4-1.56zm33.18 0L28.78 17l-.1.26 9.52 6.06c.33.19.75.56.8 1.05.05.5-.41.92-.66 1.1l-9.66 6.3.1.23 16.11-6c.43-.16 1.17-.61 1.1-1.56-.06-.95-.92-1.4-1.4-1.56z" fill="#fff"/><path d="M24 22h-2v3.42c-.03.04-.2.1-.5.1s-.9-.06-1.16-.1l.22 1.1c.23.17.93.5 1.91.48A1.6 1.6 0 0024 25.95V22zm2.84 0l-2.13 5h2.13l1.07-2.7 1.24 2.7h2.12l-2.28-5h-2.15zM32 22h2v5h-2z" fill="#fff"/><path fill-rule="evenodd" d="M7.28 32.54a1.28 1.28 0 100-2.56 1.28 1.28 0 000 2.56zm0-.83a.44.44 0 100-.89.44.44 0 000 .89zm41.44.91a1.28 1.28 0 110-2.56 1.28 1.28 0 010 2.56zm0-.84a.44.44 0 110-.88.44.44 0 010 .88z" fill="#fff"/><path d="M11.01 32.88c-1.56-.21-2.7-.5-3.07-.62-.36.3-.92.2-1.16.12.77.39 3.08.86 4.14 1.04l.1-.54zm33.98.07c1.56-.2 2.7-.5 3.07-.62.36.3.92.2 1.16.12-.77.4-3.08.87-4.14 1.05l-.09-.55zm-34.08.93a15.7 15.7 0 01-2.11-.35l-.17.5c.61.2 1.75.34 2.23.38l.05-.53zm34.18.08c1.06-.11 1.85-.28 2.11-.35l.17.49a12 12 0 01-2.23.4l-.05-.54zm-32.95-1.43l-.56-.06-.28 2.4.58.07.26-2.41zm31.72.08l.56-.06.28 2.4-.58.06-.26-2.4zm-27.79.66a27.39 27.39 0 01-3.47-.29l-.1.54c1.01.2 2.8.28 3.57.3v-.55zm23.86.08a27.38 27.38 0 003.47-.29l.1.54c-1.01.2-2.8.28-3.57.3v-.55zm-23.94 1.03a27.34 27.34 0 01-3.47-.28l-.1.54c1.01.2 2.8.28 3.57.3v-.56zm24.02.08a27.36 27.36 0 003.47-.28l.1.53c-1.01.2-2.8.29-3.57.3v-.55zm-24.12.98a27.37 27.37 0 01-3.47-.29l-.11.54c1.02.2 2.8.28 3.58.3v-.55zm24.22.07a27.38 27.38 0 003.47-.28l.11.53c-1.02.2-2.8.29-3.58.3v-.55zm-22.7-2.3l-.7-.04-.27 3.27.72.06.24-3.28zm21.19.09l.68-.05.28 3.27-.72.06-.24-3.28zm-.51.18c-6.55.67-16.2.28-20.2 0v.54a139 139 0 0020.2 0v-.54zm-.06 1.12c-6.55.66-16.18.27-20.18 0v.53c9.94.64 17.6.27 20.18 0v-.54zm0 .99c-6.55.66-16.18.27-20.18 0v.53c9.94.64 17.59.27 20.18 0v-.53zm-.88.99c-6.51.84-14.12.53-18.46 0v.53c9.55.99 15.57.34 18.46 0v-.53z" fill="#fff"/><path d="M27.59 32.92h-.83v.43h.3v.46h.25v-.46h.28v-.43zm1.33 0h-.83v.43h.3v.46h.26v-.46h.27v-.43zm-.12 5.2h-1.64v.42h.6V39h.5v-.46h.54v-.42z" fill="#fff"/></svg>