<svg width="56" height="56" viewBox="0 0 56 56" xmlns="http://www.w3.org/2000/svg"><path fill="#F0F3FA" d="M0 0h56v56H0z"/><path fill-rule="evenodd" d="M37.16 11.6A34.12 34.12 0 0 0 30 14.5l.48.3c2.7 1.8 6.86 5.58 8.44 10.26-1.44-4.25-5-7.75-7.66-9.7a15 15 0 1 1-7.48 29.04 19.34 19.34 0 0 1-3.28.1c.5-.13 1.04-.29 1.61-.48 4.75-1.58 11.72-5.31 13.14-11.31-1.4 5.87-8.11 9.58-12.84 11.21a15.05 15.05 0 0 1-6.32-4.8c1-6.89 9.13-13.17 13.41-15.62-9.03 2.67-13.33 9.03-14.88 13.28a15 15 0 0 1 8.7-21.03c-4.03 3.04-5.8 6.92-6.24 9.65.09-.53.22-1.1.41-1.7 1.57-4.89 6.86-11.69 19.58-12.6.94-.06 1.91-.1 2.93-.1-.6.07-1.59.25-2.84.6ZM17.03 25.74 17 26c0-.09.02-.17.03-.26ZM39 29.94c-.83 7.54-7.52 12.96-15.03 13.93 2.08-.83 4.4-2.02 6.42-3.57 3.22-2.46 5.82-5.89 5.6-10.32C35.6 21.24 28.2 17.7 24.6 17l-.2-.04-.17.12a31.84 31.84 0 0 0-5.55 5c.8-1.68 2.06-3.47 3.9-5.09 2.65-2.35 6.55-4.36 12.12-5.14-1.51.54-3.2 1.26-4.93 2.2l-.75.41.73.46a24.4 24.4 0 0 1 6.22 5.73c2 2.65 3.42 5.86 3.04 9.28Z" fill="#0072BB"/><path d="M24.8 13.14c-.6 1.04-2.33 1.15-3.88.25-1.54-.9-2.31-2.48-1.72-3.53.6-1.04 2.33-1.15 3.88-.25 1.54.9 2.31 2.48 1.72 3.53Z" fill="#0072BB"/></svg>