<svg xmlns="http://www.w3.org/2000/svg" width="56" height="56"><path fill="#F0F3FA" d="M0 0h56v56H0z"/><path d="M13 43V13h30v29.99L13 43zm22.54-4.66A318.03 318.03 0 0040 18c.45-2.53-.5-3-2-3H18c-1.5 0-2.2 1.5-1.95 3 0 0 1.5 7.26 2 9.5l2.44 10.84v.02c.47 2.08.57 2.55 2.77 2.64a112.05 112.05 0 005.24 0H33c1.5 0 2.1-.9 2.54-2.66zm-13.4-17.86a9.72 9.72 0 012.31-1.7c.55-1.28 2.05-1.28 2.64 0 0 0 1.11.55 1.61.98.7.58.7.59 1.49.27 1-.4 2.01-.23 2.53.45.4.5 1.28.52 1.28 0 0-.27.79-1.12 1.09-1.12.08 0 .21.33.28.72.12.62.19.7.58.6.6-.16.68.04.43 1.05-.15.62-.15.9.02 1.07.3.32.27 1.19-.07 1.65-.16.22-.28.28-.29.14-.02-.76-1.67-1.39-2.04-.8v5.02c0 5.28-.38 5.54-1.97 6.66l-.2.15c-.86.6-1.03.82-1.03 1.33 0 .45.17.77.63 1.18l.63.56-.79-.11c-.64-.1-.9-.02-1.45.39-.52.4-.67.44-.72.2a.5.5 0 00-.36-.35c-.2-.04-.03-.26.5-.66.58-.44.78-.74.79-1.14 0-.54-.02-.55-1.16-.55-1.1 0-1.16.03-1.16.48 0 .29.2.66.5.9l.52.41h-.61a4.7 4.7 0 00-1.6.5c-.86.46-.94.47-.77.13.24-.44.11-.62-.44-.64-.26 0-.04-.18.59-.48.86-.4.98-.52.9-.95-.06-.33-.3-.56-.77-.73a5.4 5.4 0 01-2.67-2.3c-.29-.65-.36-1.32-.36-3.48v-2.67c-.2-.36-.45-.68-.7-1-.26-.36-.52-.71-.73-1.1-.3-.57-.58-.76-1.57-1.08a4.24 4.24 0 01-1.2-.51c0-.06.41-.36.9-.67l.9-.56-.75-.8-.75-.82 1.17.12 1.17.12.7-.86zm5.86 0c0-.45-1.6-.98-1.6-.98.1-1-1.4-1-1.25 0 0 0-1.35.46-1.35.98 0 .7 4.2.7 4.2 0zm3.35 3.45c1.24-1 1.53-2.25.72-3.08a1.22 1.22 0 00-1.68-.11c-.58.48-.36.72.4.45.47-.17.65-.15.88.09.5.51.35 1.26-.38 1.98-.98.95-.93 1.47.06.67zm3.05-2.36c.17.28.47 0 .47-.43 0-.2-.07-.38-.17-.38-.23 0-.44.58-.3.81zm-6.3.1a5.77 5.77 0 01-4.53-.12l-.33-.18c-.36-.2-.36-.2-.56.18-.15.29-.4.4-.91.4h-.7l.46.51c.46.5.46.52.1.8l-.67.47.27.14c.55.29 1.04.53 1.42 1.23.25.47.8 1.1 1.24 1.39 1.7 1.16 4.26.5 5.17-1.35.46-.93.51-2.37.1-3.18-.28-.56-.29-.56-1.06-.29zm2.9.68c.21 0 .39-.13.39-.3 0-.3-.41-.4-.65-.17-.24.26-.13.47.26.47zm4.35-.2c.15 0 .33-.09.4-.2.06-.1-.06-.2-.28-.2-.22 0-.4.1-.4.2 0 .11.12.2.28.2zm.67 1.55c.15.05.22-.02.17-.17a.61.61 0 00-.34-.35c-.14-.05-.21.03-.17.18.05.14.2.3.34.34zM27 30v.94c0 1.31 2 1.53 2 0V27s-.38.5-1 .9c-.5.32-1 .54-1 .54V30zm-3.5-7a.5.5 0 100-1 .5.5 0 000 1z" fill="#CF1623"/></svg>