<svg width="56" height="56" viewBox="0 0 56 56" xmlns="http://www.w3.org/2000/svg"><path fill="#F0F3FA" d="M0 0h56v56H0z"/><path d="M17.27 41.19a17.03 17.03 0 0 1 4.4-28.99 17.04 17.04 0 0 1 7.77-1.15.46.46 0 0 1 .38.25c.08.16.1.3.05.45-.09.28-.27.4-.56.4-5.26-.26-9.6 1.48-13.04 5.2a15.9 15.9 0 0 0 1.7 22.94c.3.25.33.53.1.84a.45.45 0 0 1-.14.12.55.55 0 0 1-.66-.06ZM35.03 12.48a16.63 16.63 0 0 1 5.2 3.7c.08.08.12.19.12.3.01.33-.15.54-.48.62a.5.5 0 0 1-.48-.14c-1.69-1.72-3.63-3-5.83-3.84-.32-.12-.46-.35-.4-.69a.57.57 0 0 1 .41-.45c.07 0 .14 0 .2.02.42.12.84.28 1.26.48Z" fill="#A11A20"/><path d="M32.33 19.76c.17-.12.15-.19-.05-.21-1.59-.2-3.4.02-4 1.75a5.23 5.23 0 0 0-.28 1.78V37.2c0 1.28 0 2.96-.42 4.38-.68.97-1.8 1.15-2.92.88-12.46-3.06-15.56-19-5.16-26.58.72-.53 2.63-1.54 3.3-.63.13.19.2.4.2.63v13.47c0 1.3 0 6.5-3.52 6.4-.26-.15-.24-.26.05-.32 1.23-.28 1.69-1.49.82-2.4-.98-1.02-2.85-.27-2.84 1.18 0 1.75 1.75 2.23 3.2 2.06a6.7 6.7 0 0 0 3.72-1.69c1.53-1.34 1.6-2.55 1.57-4.41V15.8c.03-2.02 1.44-2.75 3.3-2.55 4.14.45 7.5 2.19 10.04 5.22a14.85 14.85 0 0 1-4.63 22.77c-1.85.94-3.9 1.46-6.16 1.58-.03 0-.05-.02-.05-.05l-.01-.05v-.02c.74-.1 1.4-.45 1.99-1.03.36-.6.52-1.34.52-2.16v-2.38c0-.1.1-.13.19-.13h4.44c1.09-.15 1.5-.4 2.08-.7 1.47-.73 2.46-2.61 2.5-4.3.03-2.5-1.98-4-4.36-4.4-.26-.03-.26-.08-.01-.14a5.25 5.25 0 0 0 2.38-1.24c1.32-1.23 1.37-3.51.2-4.88-1.29-1.52-3.4-1.87-5.35-1.82-.11 0-.2.04-.26.12a.08.08 0 0 0 .01.12l.04.01c.59.1 1.13.29 1.64.55a3.82 3.82 0 0 1 1.69 4.98c-.78 1.78-3.24 2.21-5.04 2.3-.1 0-.15-.04-.15-.14v-7.11a.5.5 0 0 1 .05-.2.48.48 0 0 1 .47-.29c.15.01.7-.02.81-.1Z" fill="#A11A20"/><path d="M42.16 35.06a15.82 15.82 0 0 0-1.23-16.25.45.45 0 0 1-.07-.37c.05-.2.16-.32.31-.4.33-.14.6-.06.8.24a17.1 17.1 0 0 1 .02 19.4 17.05 17.05 0 0 1-9.4 6.74.51.51 0 0 1-.5-.13.62.62 0 0 1-.18-.68.43.43 0 0 1 .29-.27 15.92 15.92 0 0 0 9.96-8.28Z" fill="#A11A20"/><path d="M34.94 28.46a4.07 4.07 0 0 1 2.65 3.42c.18 3.1-2.77 4.52-5.81 4.2-.45-.04-.78-.38-.78-.78v-7.14c0-.1.06-.15.16-.15a8.6 8.6 0 0 1 3.78.45ZM21.35 42.4c1.52.77 3.42 1.26 5.7 1.45.34.03.54.22.59.57 0 .06 0 .12-.03.18a.62.62 0 0 1-.65.4c-2.53-.15-4.91-.84-7.14-2.07-.3-.17-.4-.42-.28-.74a.38.38 0 0 1 .17-.2c.2-.13.42-.15.64-.05.34.13.67.28 1 .45Z" fill="#A11A20"/></svg>