<svg xmlns="http://www.w3.org/2000/svg" width="56" height="56" viewBox="0 0 56 56"><path fill="#F0F3FA" d="M0 0h56v56H0z"/><path d="M24.58 12.92c-.6 1.16-2.3 1.47-3.77.7-1.47-.77-2.17-2.33-1.56-3.5.6-1.15 2.3-1.47 3.76-.7 1.47.77 2.18 2.34 1.57 3.5zm-3.08 3.56h-.01a26.8 26.8 0 0 1 2.92-1.64c1-.45 2.29-.85 3.8-1.26 3.03-.83 6.72-1.5 11.46-1.19-2.2.2-5.58 1.2-8.34 2.98a15 15 0 1 1-9.05 28.5c-.9.1-2.38.2-2.9.1.47-.1 1.36-.3 2.04-.49a15.06 15.06 0 0 1-5.63-4.76c2.76-7.86 10.25-13.4 13.74-15.22-8.23 1.94-13.37 8.92-15.2 12.7a15 15 0 0 1 7.17-19.72zm.65-.03c-3.8 3.57-4.93 8.05-5 10.08a19.5 19.5 0 0 1 7.18-8.84c1.7.14 10.8 2.89 10.73 12.44-.06 7.65-8.15 12.03-12.2 13.27 4.39-.07 16.23-4.46 15.98-14.66-.16-6.66-4.42-11.1-7.7-13.25l-.37-.22a19.06 19.06 0 0 1 5.86-2.6c-3.2.14-6 .64-8.28 1.26-1.5.41-2.76.76-3.74 1.2-.97.43-1.6.78-2.46 1.32z" fill="#0072BC"/></svg>