<svg width="56" height="56" viewBox="0 0 56 56" xmlns="http://www.w3.org/2000/svg"><path fill="#F0F3FA" d="M0 0h56v56H0z"/><path d="m25.52 25-1.46 9h-1.83l1.46-9h1.83ZM28 25l-.25 1.56H21l.26-1.56H28ZM18.8 32.44 18.54 34H14.2l.25-1.56h4.35ZM16.28 25l-1.45 9H13l1.45-9h1.83Zm2.57 3.5L18.6 30h-3.79l.25-1.5h3.78ZM20 25l-.25 1.56H15.4l.26-1.56H20ZM10.02 31.12 11.06 25H13l-1.05 6.12a3.4 3.4 0 0 1-.57 1.51c-.3.44-.7.78-1.17 1.02s-1 .36-1.58.35a3.07 3.07 0 0 1-1.47-.35c-.4-.23-.69-.55-.89-.96-.2-.41-.29-.9-.27-1.47h1.96c-.02.22-.01.42.02.6.03.2.1.34.22.46s.3.18.56.18c.25.01.47-.05.64-.18.17-.13.3-.3.4-.51.1-.2.18-.43.22-.65ZM48.58 30l-.79 4h-.58l.8-4h.57ZM50 30l-.09.43H46.5l.09-.43H50ZM45.2 31.57l-.1.43h-2.28l.08-.43h2.3ZM43.31 30l-.76 4H42l.76-4h.56ZM46 30l-.76 4h-.55l.75-4H46ZM41.56 32l-.26 1.43c-.12.15-.27.26-.44.35-.18.08-.37.14-.57.17-.2.04-.4.05-.58.05-.3 0-.54-.06-.74-.17-.2-.1-.36-.24-.48-.42-.11-.18-.2-.37-.23-.6a2.07 2.07 0 0 1 0-.66l.04-.3c.04-.25.11-.48.21-.7.1-.23.24-.43.4-.6a1.98 1.98 0 0 1 1.42-.55c.28 0 .52.06.72.16.2.1.36.23.47.4.12.18.18.4.2.64h-.56a.96.96 0 0 0-.12-.4.67.67 0 0 0-.28-.27c-.12-.07-.27-.1-.45-.1-.23-.01-.43.02-.6.1-.16.09-.3.2-.42.33-.11.14-.2.3-.27.47-.07.17-.12.34-.15.51l-.05.31c-.02.15-.03.31-.02.48.02.16.05.32.12.46.06.14.16.26.29.35.13.09.3.13.52.14.12 0 .24 0 .36-.02s.23-.05.34-.09c.11-.04.21-.1.3-.17l.18-.87h-.98L40 32h1.55ZM38.14 30l-.86 4h-.64l.86-4h.64ZM35.84 33.57l-.08.43h-2.3l.08-.43h2.3ZM34.35 30l-.77 4H33l.78-4h.57Zm1.54 1.72-.08.43h-2l.1-.43h1.98ZM36.5 30l-.09.43h-2.26l.09-.43h2.26ZM29.77 30h1.4c.27 0 .51.05.72.14a1 1 0 0 1 .47.4c.12.16.16.38.13.64-.02.2-.08.38-.2.53-.1.15-.24.28-.41.38-.17.1-.36.18-.57.23l-.17.06h-1.39l.08-.43h.99c.18 0 .34-.03.5-.09.16-.06.3-.14.4-.26.1-.11.17-.25.2-.42.02-.16 0-.3-.05-.4a.56.56 0 0 0-.27-.25 1.08 1.08 0 0 0-.44-.1h-.9L29.59 34H29l.77-4Zm1.77 4-.7-1.81h.57l.75 1.77V34h-.62ZM27.37 30l-.78 4H26l.78-4h.59Zm1.48 1.8-.08.43H26.8l.09-.43h1.96Zm.65-1.8-.09.43h-2.26l.09-.43h2.26Z"/><path d="M27.75 21.5a13.2 13.2 0 0 0-6.25 2c2.56-.43 4.4.24 5.81.76l.69.24c.33.1.86.36 1.57.68C32.09 26.36 36.7 28.5 41 28.5c4.4 0 7.83-2.33 9-3.5-.83.33-3.2 1-6 1-1.55 0-4.17-.88-6.92-1.86a11.44 11.44 0 0 0 4.94 2.1c3.18.4 5.27-.16 5.9-.47l.2.33c-1.03.86-4.08 2.44-8.14 2.04-5.04-.5-8.6-2.51-10.64-5.05-.42-.52-.97-1.06-1.59-1.59Zm.3 0c1.77.02 4.86 1.14 7.95 2.25l.36.13c1.75 1.24 3.56 2.3 5.64 2.57 2.45.3 4.27.04 5.29-.24.31-.1.55-.18.71-.26a5.6 5.6 0 0 1-.63.44A12.12 12.12 0 0 1 40 27.94c-5-.5-8.5-2.49-10.5-4.97-.4-.49-.9-.99-1.44-1.47Z" fill="#A4CD41"/><path d="M31.5 20.48C28.7 18.9 24.67 18.17 23 18c1.5.83 4.9 2.98 6.5 4.97 2 2.48 5.5 4.47 10.5 4.97 4 .4 7-1.16 8-2-.67.34-2.8.9-6 .5-4-.5-7-3.97-10.5-5.96Z" fill="#20C0F4"/></svg>