<svg width="56" height="56" viewBox="0 0 56 56" xmlns="http://www.w3.org/2000/svg"><path fill="#F0F3FA" d="M0 0h56v56H0z"/><circle cx="16" cy="19" r="4" fill="url(#a)"/><path d="M29 24h-1c0-2.66 1.67-5 4.48-5 2.65 0 4.3.63 4.96.93.75-.4 2.33-.93 4.51-.93 3.46 0 5.46 2.74 4.98 6.07l-.13.97c-.28 2-.74 5.34-1.37 8.3a26.36 26.36 0 0 1-1.34 4.63c-.26.6-.55 1.12-.89 1.48-.34.36-.8.64-1.35.53-1.2-.25-2.16-1.27-2.86-2.3a13.21 13.21 0 0 1-1.38-2.7h-.77c-.52 1.58-1.71 5-3.86 5a3.13 3.13 0 0 1-2.99-2h1c.1.33.64 1 2 1 1.63 0 2.68-3.57 3-4.63l.11-.36h2.23l.1.34c.25.72.73 1.82 1.38 2.79.67.99 1.45 1.72 2.24 1.88.07.01.2 0 .43-.23.22-.24.46-.64.7-1.2.48-1.1.9-2.7 1.28-4.44.62-2.92 1.07-6.2 1.35-8.22l.13-.98c.4-2.74-1.13-4.93-3.99-4.93-2.36 0-5.09 1.09-7.47 1.5l1.64-1c-.8-.25-2.01-.5-3.64-.5-2.26 0-3.48 1.88-3.48 4Z" fill="#00ADE6"/><path d="M18 24h-3v7c0 1.6-1.33 2-2 2H9v2h5c3.2 0 4-2 4-3v-8ZM22 24h-3v11h3v-4h4v4h3V24h-3v5h-4v-5ZM30 33v2h8c1 0 3-.6 3-3s-2-3-3-3h-4c-.8 0-1-1-1-1.5 0-1.2.67-1.5 1-1.5h7v-2h-7c-1.33 0-4 .7-4 3.5s2 3.5 3 3.5h4c.33 0 1 .2 1 1s-.67 1-1 1h-7Z" fill="#0067B3"/><defs><linearGradient id="a" x1="15" y1="16" x2="18" y2="22" gradientUnits="userSpaceOnUse"><stop stop-color="#62B5E6"/><stop offset="1" stop-color="#0054A6"/></linearGradient></defs></svg>