<svg xmlns="http://www.w3.org/2000/svg" width="56" height="56"><path fill="#F0F3FA" d="M0 0h56v56H0z"/><path fill-rule="evenodd" d="M26.94 17.02L27.7 15h.54l.8 2.02h-.5l-.14-.39h-.84l-.14.39h-.5zm.75-.77l.29-.76.28.76h-.57zm-2.88-1.1l.16 2.02.45-.04-.06-.78.53-.04c.1 0 .3.06.31.31.02.32.1.44.16.44h.45v-.08c-.05-.04-.15-.15-.15-.26v-.22c0-.11-.06-.35-.3-.39.12-.06.35-.25.3-.55-.06-.38-.34-.5-.63-.5l-1.22.1zm.49.33l.66-.04c.07 0 .2.04.21.25a.25.25 0 01-.2.27l-.63.05-.04-.53zm-2.63-.06l1.76-.21.04.37-.64.1.22 1.58-.44.06-.24-1.59-.64.09-.06-.4zM7 28c0-2.65 1.49-5.14 4.12-7.19 2.62-2.04 6.34-3.59 10.66-4.32l-.16-.99c-4.45.76-8.34 2.36-11.12 4.52C7.72 22.2 6 24.95 6 28c0 3.05 1.72 5.81 4.5 7.98 2.78 2.16 6.67 3.76 11.12 4.52l.16-.99c-4.32-.73-8.04-2.28-10.66-4.32C8.49 33.14 7 30.65 7 28zm27.21-11.51c4.33.73 8.05 2.28 10.67 4.32C47.51 22.86 49 25.35 49 28c0 2.65-1.5 5.14-4.12 7.19-2.62 2.04-6.34 3.59-10.67 4.32l.17.99c4.45-.76 8.33-2.36 11.11-4.52C48.27 33.8 50 31.05 50 28c0-3.05-1.72-5.81-4.5-7.98-2.78-2.16-6.66-3.76-11.11-4.52l-.17.99zM28.58 41l-.05-2.01 1.22-.02c.3.01.57.14.6.52.04.3-.2.49-.32.54.24.05.28.29.28.4l-.01.22c-.01.11.08.23.13.27V41h-.45c-.06 0-.13-.15-.14-.47 0-.26-.2-.32-.3-.33l-.52.01.02.79h-.46zm1.09-1.66H29l.02.53.62-.01c.07 0 .22-.08.22-.26 0-.2-.13-.26-.2-.26zM26.82 39L26 40.96l.5.01.14-.38.84.02.14.39h.5l-.76-1.98h-.54zm.26.45l-.3.76h.56l-.26-.76zm3.14-24.42L29.4 15l-.07 2.03.82.03a1.01 1.01 0 10.07-2.03zm-.03.37l-.42-.02-.04 1.3h.41a.64.64 0 10.05-1.28zm1.88.57l.05-.38 1.16.15.05-.41-1.22-.15-.35-.04-.24 1.98.4.05 1.17.14.05-.4-1.16-.15.04-.38 1.16.14.05-.4-1.16-.15zm-8.66 22.74l-.27 1.98.44.06.23-1.54.28 1.58.52.05.66-1.5-.2 1.53.46.06.25-2-.7-.05-.67 1.38-.25-1.48-.75-.07zm7.45.22l.25 1.99.47-.05-.09-.69.25-.2.88.81.57-.08-1.13-1.06.83-.9-.62.06-.83.9-.1-.84-.48.06zM18.56 25c.14 0 .44.04.44.32 0 .23-.21.34-.31.37-.07.02-.2.13-.2.33v4.14c0 .61-.43 1.84-2.27 1.84-2.25 0-2.66-1.77-2.66-3h-.14a.42.42 0 110-.84h1.7a.42.42 0 110 .84h-.06v.57c0 .46.22 1.38.98 1.33.22.02.68-.13.69-.9v-3.98c0-.09-.05-.27-.3-.33-.3-.08-.42-.21-.42-.37 0-.12.03-.32.5-.32h2.04zm1.9.78a.69.69 0 000 1.38h.42a.69.69 0 100-1.38h-.42zm1.05 5.31v-2.86c0-.5-.24-.57-.45-.54-1.3.21-1.52.45-1.52.61 0 .13.08.17.2.24l.04.03c.12.07.15.17.16.21v2.31c-.01.3-.06.37-.16.42-.07.03-.24.13-.24.28 0 .15.2.2.3.21h1.67c.33-.01.36-.13.36-.21 0-.12-.07-.2-.2-.28-.12-.08-.16-.3-.16-.42zm20.03-5.44v5.38c0 .12 0 .3.12.43.03.04.08.07.13.1.09.05.18.1.18.22 0 .07-.03.2-.28.22h-1.74c-.13 0-.32-.04-.32-.22 0-.11.05-.18.2-.3.15-.1.17-.27.17-.41v-4.58c0-.1-.05-.3-.23-.4l-.13-.08c-.13-.08-.18-.1-.18-.22 0-.14.33-.49 1.54-.56.18 0 .54.07.54.42zm-18.17-7.39v.29h.34l.2.23.32.06-.12.16.27.1v.23l-.42.36.15.97.72.25.03.27c.36.06.47.19.48.25-.28 0-.51.23-.6.34l-.06.38.18.13-.53.52v-.18c-.1.03-.32.1-.38.1.03.2-.2.57-.33.72-.31.14-.42.34-.43.42l-.4.41c-.17-.03-.5.1-.64.16-.02-.08-.1-.25-.28-.23-.16.01-.23.2-.28.3-.01.04-.03.07-.04.07-.42.39-.25.57-.1.62.34.05.28.3.2.41 0 .2.25.27.38.28l.29.67c-.03.13-.1.39-.24.4-.12.01-.2-.1-.21-.14-.29.43-.79.56-1 .57.61-.01.78.23.79.35h.32l-.23.33v1.05l.41.27.51-.2v2.12c-.14.05-.4.22-.4.45 0 .3.28.43.4.44h1.12c.02.6.3 1.01.45 1.2.1.12.34.46.43.89.09.42.34 1 .46 1.23.3.33.45.65.49.78l.45.92-.08.2.74.89.44-.32c.04-.36.42-.46.6-.47a.42.42 0 01.2-.49.26.26 0 01.22-.24h.21l-.08-.91c.31-.36.4-.84.4-1.04-.19-.11-.13-.27-.07-.34-.1-.1-.05-.33 0-.42a.62.62 0 01-.16-.42c.08-.58.5-.59.7-.51.1-.03.18-.29.21-.41h.43l.24-.22c-.01-.18.1-.27.14-.29.64.03 1.22-.12 1.4-.26.04.2.26.25.37.26h1.24c.25-.01.5-.15.5-.47 0-.25-.3-.46-.45-.54V29.6l.08-.1v-.16a1.22 1.22 0 01-.08-.26c-.02-.11.12-.28.38-.3a.5.5 0 00.4-.24.82.82 0 01.54-.88v-.22c-.18-.1-.07-.24 0-.3v-.28h-.26c-.34-.18-.14-.4 0-.48l.06-.17h.25v-.17c-.1.02-.25-.12-.31-.2l-.23-.1.33-.33-.14-.06.14-.12.3.27v-.18h.15v.18l.25.17.1-.17.13.17v.46l1.15.15c.52-.06.69.04.71.1v.13h-.12l-.42.54-.22.03-.17.27.54.1v-.18h.27v.17l.7.32v-.68h.45l.07.1.45-.84c-.03 0-.22-.23 0-.33.19-.07.24-.35.25-.48-.1-.31.18-.44.33-.46l.7-.42.2.18.13-.06-.19-.28.35-.23v-.28l-.63-.06-.11-.1.26-.22-.15-.18-.11.08-.12-.08.12-.13-.12-.14c-.44.29-.87.18-1.02.1-.39.42-.74.47-.86.45-.07.23-.31.36-.42.4-.04.18-.25.2-.34.19l-.4.13v.16h.26v.54h-1.02l-.16-.1c-.17.13-.47.08-.6.05a.64.64 0 01-.48-.2v-.45c.05-.26-.06-.32-.11-.32-.46.11-.43.6-.35.83v.42h-.93c-.08-.18-.3-.3-.4-.33h-.87a.26.26 0 01-.22-.3l-.84-.12v.13h-.2v-.15h-.24l-.07-.14h-.18l-.25-.25-.07.11-1.4-.77.26-.26V23l.06-.25-.43-.37h-.21l-.3-.35-.16.11-.14-.6c-.3-.4-.1-.5.04-.5-.08.08.09.2.18.24.07-.11.31-.17.43-.2-.2-.08-.2-.32-.17-.43-.26-.01-.33-.23-.34-.35h.13v-.15h-.13v-.2h.39c.04-.27.3-.44.43-.49l.24-.63-.17.1-.55-.43-.4.04-.55.3h-.5a.91.91 0 01-.47-.3h-.3l-.17-.23a.38.38 0 00-.1-.42h-.25l-.04-.29h-.5c-.09.07-.41.13-.56.16v.13h-.52a.9.9 0 01-.34.36zm2.34 9.5c-.92 0-1.41.44-1.55.66 0-.7-.22-.7-.42-.7-.72.1-1.33.45-1.33.61 0 .09.07.13.25.22.14.08.18.25.18.32v2.27c0 .24-.12.36-.18.4-.07.03-.21.15-.2.28 0 .13.13.18.2.18h1.75c.28 0 .35-.1.35-.18 0-.12-.04-.19-.2-.28-.13-.08-.16-.33-.15-.44v-1.81c0-.3.2-.84.76-.83.44 0 .54.46.54.7v1.98c0 .27-.13.4-.2.43a.26.26 0 00-.14.25c0 .13.18.18.21.18h1.78c.14 0 .3-.04.3-.18 0-.15-.09-.22-.25-.31a.36.36 0 01-.16-.3v-1.92c0-.64-.39-1.51-1.54-1.52zm7.31 3.27v-5.4c0-.34-.35-.41-.53-.4-1.22.06-1.55.4-1.55.54 0 .11.06.14.19.21l.13.08c.18.1.24.3.24.39v1.37c-.28-.18-.7-.22-.87-.22a2.26 2.26 0 00-2.32 2.36c0 1.4 1.03 2.02 1.96 2.04.75.02 1.3-.3 1.48-.52v.28c0 .17.2.23.31.24h1.12c.25-.01.3-.17.3-.24a.35.35 0 00-.23-.28c-.18-.06-.23-.32-.23-.45zm-1.5-.68v-1.4c0-.52-.41-.7-.65-.7-.73 0-.9.77-.94 1.5-.04.74.32 1.47.94 1.4.5-.04.63-.55.64-.8zm6.8-1.17c-.02-1.36-1.43-1.63-2.14-1.6-1.48 0-1.9.53-1.9.78-.01.24.17.42.47.42.23-.01.38-.1.43-.14.42-.39.77-.4.93-.4.59 0 .64.48.65.7-1.92.02-2.8.8-2.79 1.7.02.9.8 1.36 1.68 1.36.7 0 1.2-.27 1.36-.45-.01.36.22.46.34.45h1.15c.19.02.3-.16.3-.24 0-.17-.07-.25-.25-.33-.17-.08-.22-.28-.23-.37v-1.88zm-1.52 1.44V29.6c-.96.07-1.2.74-1.21.98-.01.24.08.75.63.68a.65.65 0 00.58-.63z" fill="#ED1A1E"/></svg>