<svg width="56" height="56" xmlns="http://www.w3.org/2000/svg"><path fill="#F0F3FA" d="M0 0h56v56H0z"/><path d="M35.096 23.855c-.834 2.22.507 1.198 4.711-1.382 4.808-2.95 9.728-4.444 11.196-.568-2.797-1.508-6.77.698-12.44 4.545-4.102 2.783-5.675 3.2-5.242 1.563.247-.93.458-1.568.659-2.145-.011.033.012-.034.001 0 .568-1.053.782-1.377 1.115-2.013z" fill="#4FA941"/><path d="M31.846 20.951c.705-.234 1.646-.456 2.57-.667 2.59-.59 1.699 1.455.664 3.619-.32.67-.533.915-1.101 1.967.404-1.29.885-2.018-.057-1.861-.97.162-2.018.474-2.86.743" fill="#F47920"/><path d="M9.397 32.495c2.728.687 2.89-.929 3.063-1.664.174-.74 1.011-4.831 1.011-4.831h2.095l-1.06 5.157c-.367 1.711-1.633 2.994-3.887 2.829-.66-.05-1.21-.28-1.474-.482l-.172-.127.266-.92c.02.006.118.029.158.038z" fill="#58595B"/><path fill-rule="evenodd" d="M23.5 26l-1.837 8h2.11l.903-3.582h1.878c.48 0 1.865-.56 2.025-2.588.05-.61-.165-1.83-1.427-1.83H23.5zm1.893 1.252l-.442 1.728c.59.072 1.791-.01 1.888-.908.096-.898-.924-.921-1.446-.82z" fill="#58595B"/><path d="M19.896 26c.79 0 1.709.473 2.07.71l-.574 1.387c-.573-.29-1.019-.355-1.496-.42-.478-.064-.873.205-.873.592 0 .31.115.594.47.733.659.258 1.849 1.056 1.9 2.45C21.455 33.193 19.64 34 18.334 34c-1.044 0-2.07-.516-2.452-.774l.86-1.58c.35.45 1.067.644 1.592.644.533 0 .975-.393 1.02-.838.043-.446-.208-.727-.545-.796-.679-.14-1.85-.746-1.876-2.269C16.902 26.484 18.908 26 19.896 26zm8.327 8l1.767-8h1.847l-1.305 6.35h2.53L32.46 34h-4.237z" fill="#58595B"/></svg>