<svg width="56" height="56" viewBox="0 0 56 56" xmlns="http://www.w3.org/2000/svg"><path fill="#F0F3FA" d="M0 0h56v56H0z"/><path d="M44 28a16 16 0 1 0-32 0 16 16 0 0 0 32 0Zm-21.51-7h.53c1.04 0 1.59.58 1.59 1.73v6.22c0 3.47-1.62 5.05-4.7 5.05-2.54 0-3.91-.91-3.91-2.4 0-1.37 1.15-1.93 1.2-1.86.56.71 1.28 1.1 2.15 1.1 1.11 0 1.65-.5 1.65-1.94v-6.17c0-1.15.5-1.73 1.49-1.73Zm8.21 8.06c0-2.89 2.07-4.97 5.19-4.97 3.08 0 5.11 2.04 5.11 5 0 2.94-2.02 4.91-5.15 4.91-3.14 0-5.15-2.05-5.15-4.94Zm3.1.16c0 1.26.84 2.18 2.06 2.18 1.17 0 2.03-.93 2.03-2.18s-.85-2.27-2.04-2.27c-1.2 0-2.05 1.01-2.05 2.27Zm-6.17-4.68h.38c.99 0 1.64.4 1.64 1.74v5.98c0 1.29-.66 1.74-1.6 1.74h-.38c-.98 0-1.67-.41-1.67-1.74v-5.98c0-1.31.7-1.74 1.63-1.74Zm-1.69-2.86c0-1.03.74-1.68 1.92-1.68 1.21 0 1.97.64 1.97 1.68s-.7 1.69-1.91 1.69-1.98-.66-1.98-1.69Z" fill="url(#asm2mjtb2)"/><defs><linearGradient id="asm2mjtb2" x1="12" y1="12" x2="44" y2="44" gradientUnits="userSpaceOnUse"><stop offset=".15" stop-color="#F2BE75"/><stop offset=".85" stop-color="#E0A039"/></linearGradient></defs></svg>