<svg xmlns="http://www.w3.org/2000/svg" width="56" height="56"><path fill="#F0BF01" d="M0 0h56v56H0z"/><path d="M8.85 27h-1.8L5.8 30.95c-.15.44-.6.53-.84.53h-.63L4 33h1.98c.82 0 1.4-.66 1.49-1l1.38-5zm2.26 0h-1.7l-1.03 4h1.7l.46-1.59.74 1.59h2.1l-1.16-2.04L14.24 27h-2.02l-1.5 1.6.4-1.6zm15.43 0h1.7l-.4 1.6 1.5-1.6h2.02l-2.02 1.96L30.5 31h-2.1l-.74-1.59L27.2 31h-1.7l1.05-4zm-8.34 0h-1.82l-1.14 4h3.59l.37-1.3h-1.76l.76-2.7zm4.12 0l-2.94 4h1.94l.31-.47h1.39V31h1.96l-.67-4h-2zm-.1 2.55l.68-1.19.07 1.2h-.75zM34.18 27c.63 0 1.32.23 1.59.34l-.86.98c-.17-.1-.5-.29-.88-.29-.4 0-.81.35.2.5.88.13 1.03.58.98.85-.19 1.1-1.46 1.6-2.6 1.62-.9.02-1.65-.27-1.9-.41l.9-1.08c.56.46 1 .41 1.2.38.18-.03.73-.35-.2-.47-.9-.12-1.08-.65-1.05-.89.15-1.25 1.84-1.54 2.62-1.53zm2.67 0h1.8l-.34 1.3h1.05l.43-1.3h1.81l-1.14 4h-1.8l.38-1.4h-1.1l-.4 1.4H35.7l1.15-4zm6.43 0l-1.98 4h1.77l.9-2.12.22 2.12h1.1l1.4-2.12-.3 2.12h1.78l.34-4h-1.9l-1.32 2.1-.16-2.1h-1.85zm6.88 0H52l-1.14 4H49l1.16-4z" fill="#D72C2B"/></svg>