<svg xmlns="http://www.w3.org/2000/svg" width="56" height="56"><path fill="#0066B3" d="M0 0h56v56H0z"/><path d="M24.62 10.65a3.13 3.13 0 012.96-.46c.6.21 1.25.24 1.87.07 1.03-.27 2.12 0 2.91.71.47.43 1.06.7 1.7.78 1.05.14 1.96.81 2.41 1.77.27.58.71 1.06 1.26 1.37.93.54 1.51 1.5 1.56 2.56.04.64.26 1.25.65 1.75.64.85.82 1.96.46 2.96-.22.6-.24 1.25-.08 1.87.27 1.03 0 2.12-.7 2.91-.43.47-.7 1.06-.8 1.7a3.13 3.13 0 01-1.76 2.41c-.57.27-1.05.71-1.37 1.26-.53.93-1.5 1.51-2.56 1.56-.63.04-1.25.26-1.75.65-.85.64-1.96.82-2.96.46a3.13 3.13 0 00-1.86-.08c-1.03.27-2.13 0-2.92-.7a3.13 3.13 0 00-1.69-.8 3.13 3.13 0 01-2.42-1.76 3.13 3.13 0 00-1.26-1.37 3.13 3.13 0 01-1.56-2.56 3.13 3.13 0 00-.64-1.75A3.13 3.13 0 0115.6 23c.21-.6.24-1.25.07-1.86-.27-1.03 0-2.13.71-2.92.43-.47.7-1.06.78-1.69.14-1.05.81-1.96 1.77-2.42a3.13 3.13 0 001.37-1.26c.54-.92 1.5-1.5 2.56-1.56a3.14 3.14 0 001.75-.64z" fill="#fff"/><path d="M24.42 12.7a2.16 2.16 0 014.07-.64 2.16 2.16 0 013.99.97 2.16 2.16 0 013.32 2.42 2.16 2.16 0 012.14 3.51c2.07.33 2.5 3.12.63 4.06a2.16 2.16 0 01-.97 4 2.16 2.16 0 01-2.42 3.31 2.16 2.16 0 01-3.51 2.14 2.16 2.16 0 01-4.06.63 2.16 2.16 0 01-4-.96 2.16 2.16 0 01-3.31-2.43 2.16 2.16 0 01-2.14-3.5 2.16 2.16 0 01-.64-4.07 2.16 2.16 0 01.97-3.99 2.16 2.16 0 012.43-3.32 2.16 2.16 0 013.5-2.14z" fill="#0066B3"/><path d="M27.52 18.15c.33-.19.73-.19 1.05 0 .2.13.44.17.68.14.37-.06.74.1.96.4.14.19.34.33.57.38.37.1.65.38.74.74.06.23.2.43.39.57.3.23.45.6.4.97-.04.23 0 .47.13.68.2.32.2.72 0 1.04-.12.2-.17.44-.13.68.05.37-.1.74-.4.96-.2.14-.33.35-.39.58-.09.36-.37.65-.74.74-.23.05-.43.19-.57.38-.22.3-.6.46-.96.4-.24-.04-.48.01-.68.13-.32.2-.72.2-1.05 0a.984.984 0 00-.67-.13c-.37.06-.75-.1-.97-.4a.928.928 0 00-.57-.38 1.01 1.01 0 01-.74-.74 1 1 0 00-.38-.58.998.998 0 01-.4-.96c.03-.24-.02-.47-.14-.68-.2-.32-.2-.72 0-1.04.12-.2.17-.45.14-.68-.06-.37.1-.74.4-.97a1 1 0 00.38-.57c.09-.36.37-.65.74-.74.23-.05.43-.19.57-.38.22-.3.6-.46.97-.4.23.03.47-.01.67-.14z" fill="#fff"/><path d="M28.2 24.14c-.01-.16.22-.2.27-.05l.61 1.83a.38.38 0 11-.74.15l-.14-1.93zm.1-3.12c0 .16.23.2.28.05l.61-1.83a.38.38 0 10-.74-.15l-.14 1.93zm-.45 3.12c0-.16-.22-.2-.28-.05l-.6 1.83a.38.38 0 10.73.15l.15-1.93zm.17-3.14c0 .15-.22.2-.27.05l-.62-1.84a.38.38 0 11.75-.15l.14 1.93zm-.84 2.96c.08-.15-.11-.29-.22-.17l-1.36 1.38a.38.38 0 10.6.46l.98-1.67zm.27-2.88c.08.14-.1.28-.22.16l-1.36-1.38a.38.38 0 11.6-.46l.98 1.68zm1.44 0c-.09.14.1.28.22.16l1.35-1.38a.38.38 0 10-.6-.46l-.97 1.68zm-.05 2.88c-.08-.15.1-.29.22-.17l1.36 1.38a.38.38 0 11-.6.46l-.98-1.67zm-2.22-.52c.13-.1 0-.3-.15-.24l-1.75.83a.38.38 0 10.4.64l1.5-1.23zm.28-2c.12.1 0 .3-.16.24L25 20.85a.38.38 0 11.4-.64l1.5 1.23zm2.36.06c-.12.11 0 .31.15.24l1.75-.82a.38.38 0 10-.4-.64l-1.5 1.23zm.08 1.98c-.13-.1 0-.3.14-.23l1.75.82a.38.38 0 11-.4.64l-1.5-1.23zm-2.85-.68c.15-.05.1-.28-.06-.27l-1.93.16a.38.38 0 10.16.74l1.83-.63zm3.01-.01c-.16-.06-.11-.29.05-.27l1.93.16a.38.38 0 11-.16.74l-1.83-.63zm-2.95-.85c.16.06.1.29-.06.27l-1.92-.16a.38.38 0 11.15-.74l1.83.63zm2.93.06c-.15.06-.1.29.06.28l1.93-.17a.38.38 0 10-.16-.74l-1.83.64z" fill="#0066B3"/><circle cx="27.98" cy="22.58" r="1.23" fill="#0066B3"/><path d="M27.45 41V26.82h.84v14.16h-.84z" fill="#fff"/><path d="M32.47 26.44l-.15.52a26.87 26.87 0 00-.76 3.7l-.14.85c-.06.3-.13.56-.24.75a8.16 8.16 0 01-1.4 1.7c-.54.5-1.09.93-1.42 1.11l-.37.2V31.7l.01-.03a7.75 7.75 0 013.98-5.01l.49-.23zm-3.98 5.32v2.63A10.11 10.11 0 0030.75 32c.06-.1.12-.3.18-.6a21.88 21.88 0 00.17-1.09c.12-.76.28-1.74.59-2.93a7.33 7.33 0 00-3.2 4.37zm-5.28-5.32l.17.53a21.94 21.94 0 01.79 3.77l.11.76c.06.3.12.57.23.76.32.56.87 1.18 1.4 1.7.54.5 1.1.93 1.42 1.11l.37.2v-3.59a7.75 7.75 0 00-3.98-5.01l-.5-.23zm4 5.32v2.63A10.1 10.1 0 0124.94 32c-.07-.1-.12-.3-.17-.6a21.7 21.7 0 01-.17-1.1c-.1-.77-.27-1.74-.59-2.9a7.33 7.33 0 013.18 4.35zM26 36h-2.79v.83H24v1.65c0 .58-.44.64-.66.6.05-.12.1-.47-.13-.87-.27-.5-1.07-.44-1.3 0-.28.54-.15 1.92 1.58 1.78 1.39-.12 1.8-.97 1.84-1.39v-1.77H26V36zm5.89 0h-2.73v.5l.51.52v2.1l-.42.3V40h2.4v-.59l-.37-.28v-.75l1.02 1.03h-.14V40h2.64v-.69s-.46-.06-.62-.18l-1.23-1.36 1.85-1.26V36h-2.37v.5h.6l-1.75 1.12v-.6c0-.25.4-.44.6-.51V36zM15 41h3.38c.3.01.97.26.97 1.2 0 .91-.81 1.24-1.33 1.24h-1.2V44h-1.81v-3zm1.78.87v.74h.5a.4.4 0 00.27-.4c0-.27-.2-.34-.27-.34h-.5zM25.2 41h3.37c.3.01.96.26.96 1.2 0 .91-.8 1.24-1.33 1.24h-1.19V44h-1.82v-3zm1.76.87v.74h.5a.4.4 0 00.28-.4c0-.27-.21-.34-.28-.34h-.5z" fill="#fff"/><path fill-rule="evenodd" d="M19.35 44l1.48-3h2.1l1.48 3h-2.17l-.38-.46h-1.22l-.27.46h-1.02zm1.52-1l.44-.66.37.66h-.81z" fill="#fff"/><path d="M30.48 44v-3h3.65v.65h-1.48v.5h1.48v.6h-1.48v.44h1.48V44h-3.65zm4.73-3h3.65a.9.9 0 01.83.91c.01.6-.33.95-.5.97L40.22 44h-2.2l-.97-.76V44H35.2v-3zm1.76.76v.65h.42c.05-.01.23-.1.23-.35 0-.24-.18-.3-.23-.3h-.42z" fill="#fff"/></svg>