<svg width="56" height="56" viewBox="0 0 56 56" xmlns="http://www.w3.org/2000/svg"><path fill="#F0F3FA" d="M0 0h56v56H0z"/><path d="M31.32 19.96c.37-1.17.66-2.48.73-3.73.12-2.18-.42-4.4-2.73-5.23l-.35.85c1.68.6 2.23 2.24 2.11 4.33-.12 2.07-.89 4.34-1.57 5.81l.83.46a21.17 21.17 0 0 1 4.06-3.89c.74-.5 1.37-.76 1.84-.77.21 0 .38.04.52.14s.3.28.42.6l.9-.3a2.17 2.17 0 0 0-.74-1.03 1.84 1.84 0 0 0-1.13-.32c-.77.02-1.6.42-2.37.94-.85.57-1.73 1.35-2.52 2.14Z" fill="#7A8285"/><path d="M25.37 28.62C20.3 27.15 12.1 22 19.85 13.2c4.98 1.51 13.07 6.72 5.52 15.42Z" fill="url(#ab145ixfy)"/><path d="M24.39 30.48C20.7 28.93 13.26 28.02 13 36.7c3.66 1.48 11.06 2.3 11.39-6.22Z" fill="url(#bb145ixfy)"/><path d="M27.7 32.24c3.84 1.15 10.04 5.12 4.08 11.76-3.78-1.19-9.88-5.2-4.08-11.76Z" fill="url(#cb145ixfy)"/><path d="M28.64 29.4C30.14 24.6 35.52 16.84 45 24c-1.55 4.7-6.98 12.35-16.36 5.4Z" fill="url(#db145ixfy)"/><defs><linearGradient id="ab145ixfy" x1="22.56" y1="13.2" x2="22.56" y2="28.62" gradientUnits="userSpaceOnUse"><stop stop-color="#F8C50B"/><stop offset="1" stop-color="#FFED0E"/></linearGradient><linearGradient id="bb145ixfy" x1="14.55" y1="37.97" x2="22.19" y2="28.67" gradientUnits="userSpaceOnUse"><stop stop-color="#1DA3D1"/><stop offset="1" stop-color="#D5F1FE"/></linearGradient><linearGradient id="cb145ixfy" x1="29.72" y1="43.98" x2="29.82" y2="32.26" gradientUnits="userSpaceOnUse"><stop stop-color="#1DA3D1"/><stop offset="1" stop-color="#D5F1FE"/></linearGradient><linearGradient id="db145ixfy" x1="45.04" y1="26.54" x2="28.61" y2="26.78" gradientUnits="userSpaceOnUse"><stop stop-color="#F8C50B"/><stop offset="1" stop-color="#FFED0E"/></linearGradient></defs></svg>