<svg xmlns="http://www.w3.org/2000/svg" width="56" height="56"><path fill="#083A98" d="M0 0h56v56H0z"/><path d="M11.94 25h.81l-.72 3.91-.1.4-.16.29a1.1 1.1 0 01-.46.36c-.19.08-.4.12-.66.12a1.7 1.7 0 01-.72-.14l.14-.75.25.09a1.1 1.1 0 00.5 0 .57.57 0 00.35-.29.93.93 0 00.09-.27l.68-3.72zm3.36 3.64c.15-.38.5-1.09 1.01-2.13l.77-1.51h1.1l-.92 5h-.81l.47-2.4.3-1.4h-.02c-.22.52-.65 1.4-1.28 2.66L15.34 30h-.54l-.36-2.7-.13-1.1h-.02c-.03.36-.09.8-.18 1.3l-.44 2.5h-.81l.92-5h1.04l.2 1.4c.08.57.17 1.32.26 2.24h.02zM19.68 30l.92-5h2.72l-.14.76h-1.9L21.02 27h1.66l-.14.82H20.9L20.5 30h-.8zm3.41 0l.92-5h.8l-.91 5h-.81zm4.73 0l-.91-2.22a17.6 17.6 0 01-.53-1.44h-.02c-.05.41-.12.89-.22 1.42l-.4 2.24h-.82l.92-5h.79l.91 2.2c.22.54.4 1.02.54 1.45h.02c.02-.33.1-.8.2-1.43l.42-2.22h.81l-.92 5h-.79zm4.51-1.28h-1.58L30.13 30h-.9l2.48-5h.76l.9 5h-.83l-.21-1.28zm-1.2-.72h1.07l-.09-.59a25.1 25.1 0 01-.18-1.2h-.02c-.15.4-.32.78-.5 1.16l-.29.63zm5.8 2l-.9-2.22a17.6 17.6 0 01-.54-1.44h-.02c-.05.41-.12.89-.22 1.42l-.4 2.24h-.82l.92-5h.79l.91 2.2c.23.54.4 1.02.54 1.45h.02c.03-.33.1-.8.2-1.43l.42-2.22h.81l-.92 5h-.79zm4.61-4.32a1.51 1.51 0 00-.98.35c-.13.1-.25.24-.35.38a2.93 2.93 0 00-.44 1.62c0 .26.03.47.09.63a1 1 0 00.25.4c.1.09.23.15.37.2a2.58 2.58 0 001 0c.2-.04.38-.1.57-.17l-.15.8a2.5 2.5 0 01-.57.15c-.2.03-.4.04-.56.04-.27 0-.51-.03-.74-.1a1.49 1.49 0 01-.94-.98 2.65 2.65 0 01-.13-.88 4.57 4.57 0 01.26-1.49c.09-.23.2-.46.34-.67.13-.2.3-.4.49-.55a2.3 2.3 0 011.46-.5 3.44 3.44 0 011.1.19l-.14.74a3.65 3.65 0 00-.93-.16zM42.68 30l.92-5h.8l-.91 5h-.81zm4.52-1.28h-1.57L45.02 30h-.9l2.47-5h.76l.9 5h-.83l-.21-1.28zM46 28h1.08l-.09-.59c-.07-.43-.13-.82-.17-1.2h-.02c-.16.4-.33.78-.52 1.16L46 28zm3.86 1.22h2.1l-.14.78h-2.9l.91-5h.81l-.78 4.22z" fill="#fff"/><path d="M11.5 20c-2 4-2.3 8-2.3 10.3-1.6-.4-4.7 0-5.2.7.4-1.2 5.5-8 7.5-11z" fill="#ED3123"/></svg>