<svg width="56" height="56" viewBox="0 0 56 56" xmlns="http://www.w3.org/2000/svg"><path fill="#F0F3FA" d="M0 0h56v56H0z"/><path d="M47 18v15.38c0 1.5.43 2.16 2 2.16V36h-6v-.46c1.48 0 2-.65 2-2.04V22.97c0-1.4-.29-3.68-1.78-3.1l-.22-.45L46.23 18H47ZM41 25h-2v9.75c0 .42.2 1.25 1 1.25s1-.83 1-1.25V25ZM38 23.33c.8 0 1 .45 1 .67v-1h-1v.33ZM42 23.33c-.8 0-1 .45-1 .67v-1h1v.33Z" fill="#04B41F"/><path d="M39 20.88c0 .9.77 1.12 1.15 1.12.39 0 1.08-.52.77-1.13-.3-.6-.38-1.5-.38-1.87-.51.25-1.54.98-1.54 1.88Z" fill="#FD8701"/><path d="M38 31.35a5.95 5.95 0 0 1-2.07 3.45 5.41 5.41 0 0 1-7.28-.42A5.84 5.84 0 0 1 27 30.01c0-1.78.6-3.23 1.82-4.34a6.32 6.32 0 0 1 4.4-1.67c1.29 0 2.34.3 3.17.89.83.58 1.24 1.2 1.24 1.83 0 .31-.12.57-.36.77-.22.18-.55.28-.97.28-.56 0-.98-.16-1.26-.47-.17-.17-.27-.5-.33-.99a1.51 1.51 0 0 0-.57-1.11c-.33-.25-.8-.37-1.38-.37-.95 0-1.72.3-2.3.91a4.45 4.45 0 0 0-1.15 3.2 5.9 5.9 0 0 0 1.14 3.59 3.68 3.68 0 0 0 3.1 1.54 4.1 4.1 0 0 0 2.51-.83 5.6 5.6 0 0 0 1.53-2.06l.41.17Z" fill="#04B41F"/><path d="M21.51 24c1.73 0 3.11.65 4.16 1.95A5.97 5.97 0 0 1 27 29.78c0 1.02-.24 2.04-.73 3.08a5.32 5.32 0 0 1-2.03 2.35c-.86.53-1.81.79-2.86.79a4.84 4.84 0 0 1-4.1-2.04A6.29 6.29 0 0 1 16 30.1c0-1.03.26-2.06.77-3.08A5.28 5.28 0 0 1 21.51 24Zm-.38.8c-.44 0-.89.14-1.33.4-.44.25-.8.7-1.07 1.36a6.53 6.53 0 0 0-.42 2.5c0 1.65.33 3.08.99 4.27.66 1.2 1.53 1.8 2.61 1.8.8 0 1.47-.34 2-1 .51-.66.78-1.79.78-3.4 0-2-.44-3.59-1.31-4.74a2.7 2.7 0 0 0-2.25-1.19ZM9.3 19.45V19H16v.45h-.57C13.9 19.45 14 20.75 14 22v8.13c0 2.5-.83 5.87-4 5.87-.72 0-1.96-.19-2.38-.56A1.75 1.75 0 0 1 7 34.12c0-.4.1-.7.29-.9.25-.26.55-.38.89-.38.24 0 .46.08.65.26.2.17.45.62.75 1.37.18.44.64.53.92.53.74 0 1.5-1.16 1.5-1.68V21.98c0-1.26-.56-2.53-2.14-2.53H9.3Z" fill="#04B41F"/><path d="M29.77 27.66 32.6 26l.4.72-2.83 1.66-.4-.72Zm-.91-1.15.62.53L28.25 29H30v1h-3.72l2.58-3.49Zm-3.21 1.22.85.77-2 2H27v1h-4.87l3.52-3.77ZM22 29l.5.75-2 2.25h3.01v1H18.5l3.5-4Z" fill="#FD8701"/></svg>