<svg width="56" height="56" viewBox="0 0 56 56" xmlns="http://www.w3.org/2000/svg"><path fill="#F0F3FA" d="M0 0h56v56H0z"/><path d="M6.12 24h2.54v.3h-.24c-.26 0-.42.22-.42.5v3.95C8 29.17 7.47 30 6.43 30c-.38-.02-1.13-.25-1.13-1-.01-.24.1-.71.62-.71s.55.4.5.6a.92.92 0 0 1-.38.5c.06.08.24.25.46.25.26 0 .5-.28.5-.89V24.8c0-.28-.2-.5-.46-.5h-.42V24Zm2.16 5.68V30H10v-.32h-.86l.69-2.18h1.3l.77 2.18H11V30h2.28v-.32h-.47L11.01 24h-.43L8.7 29.68h-.42ZM10.94 27H10l.45-1.42.5 1.42Zm14.4 3v-.32h.42L27.64 24h.43l1.8 5.68h.46V30h-2.18v-.32h.8l-.77-2.18h-1.3l-.69 2.18H27V30h-1.67Zm1.7-3H28l-.5-1.42-.46 1.42ZM36 29.68V30h1.7v-.32h-.84l.69-2.18h1.3l.77 2.18h-.8V30H41v-.32h-.47L38.73 24h-.43l-1.88 5.68H36ZM38.67 27h-.96l.45-1.42.5 1.42ZM15.5 24h-2v.33h.34c.11 0 .15.12.15.26v4.84c0 .15-.04.26-.15.26h-.34V30h2v-.3h-.34c-.12 0-.17-.12-.17-.27V24.6c0-.14.05-.26.17-.26h.34V24Zm.92 0v.28h.34c.12 0 .23.12.23.26v4.85c0 .14-.1.25-.23.25h-.34V30h2.06v-.36h-.3c-.11 0-.19-.11-.19-.25v-2.15h1.02c.78 0 1.4-.72 1.4-1.62 0-.9-.62-1.62-1.4-1.62h-2.6Zm1.85 2.8H18v-2.12c0-.21.17-.39.37-.39.63 0 1.13.52 1.13 1.16v.1c0 .7-.55 1.25-1.22 1.25Zm2.08-2.8v.28h.37c.13 0 .27.12.27.26v4.85c0 .14-.14.25-.27.25h-.37V30h2.2v-.36h-.31a.25.25 0 0 1-.25-.25v-2.15h1.11c.84 0 1.5-.72 1.5-1.62 0-.9-.66-1.62-1.5-1.62h-2.75Zm1.92 2.8H22v-2.12c0-.21.17-.39.37-.39.63 0 1.13.52 1.13 1.16v.1c0 .7-.55 1.25-1.22 1.25Zm-.1.45c.25 0 .77.2.88.85l.34 1.9h1.51v-.25c-.19-.04-.57-.19-.65-.5-.02-.07-.03-.18-.04-.32-.05-.6-.15-1.68-1.16-1.68h-.88Zm8.32-2.97V24h2.01v.28h-.28c-.12 0-.23.11-.23.25v2.52l1.75-2.43c.12-.17 0-.41-.2-.41h-.26V24h2.21v.2h-.25a.97.97 0 0 0-.73.35l-1.81 2.09c.17-.07.44-.14.79-.14.65 0 1.03.53 1.08 1.24l.02.31c.03.71.07 1.66.7 1.66V30h-1.5c-.07-1-.35-3.03-1.01-3.07-.11 0-.28.03-.43.11l-.35.4-.01.04v1.97c0 .14.1.25.23.25h.28v.3h-2v-.3h.28c.12 0 .21-.11.21-.25v-4.92c0-.14-.1-.25-.21-.25h-.29Zm11 3.56V30h.22v-.65c.25.54 1.07.66 1.45.65 1.3 0 1.67-1.31 1.67-1.89 0-.57-.16-1.3-1.32-1.85-.93-.45-1.28-.9-1.33-1.08-.03-.29.1-.86.89-.86.78 0 1.15.83 1.23 1.24h.28L44.45 24h-.36v.32c-.34-.25-.79-.32-.97-.32-1.23 0-1.6 1-1.62 1.5 0 1.2.81 1.7 1.22 1.8.46.14 1.37.6 1.37 1.34 0 .72-.62.97-.92 1-1.08 0-1.42-1.2-1.45-1.8h-.22ZM48.37 24h2.27v.3h-.14a.5.5 0 0 0-.5.5v4.35c0 .28.23.5.5.5h.14V30h-2.27v-.35h.15a.5.5 0 0 0 .48-.5v-1.9h-2v1.9c0 .28.27.5.53.5h.15V30h-2.27v-.35h.14c.27 0 .45-.22.45-.5v-4.38c0-.28-.18-.5-.45-.5h-.14V24h2.27v.27h-.15c-.26 0-.53.22-.53.5v1.98h2v-1.94a.5.5 0 0 0-.48-.5h-.15V24Z" fill="#00296A"/><path d="M52 32H4v-1h48v1Z" fill="#F7725F"/></svg>