<svg width="56" height="56" viewBox="0 0 56 56" xmlns="http://www.w3.org/2000/svg"><path fill="#D8177F" d="M0 0h56v56H0z"/><path d="M35 13h4v1.5h-2.5v19.15c0 1.35-.18 3.3-1.13 5.06l.2-.23a7.98 7.98 0 0 0 1.98-4.83V16H39v17.65C39 39.62 33.46 43 28 43c-4.24 0-7-1.23-8.72-2.88A7.4 7.4 0 0 1 17 35h1.5c0 .94.47 2.54 1.72 3.82a7.84 7.84 0 0 1-.72-3.71V32H21v3.1c0 2.03.66 3.42 1.68 4.37-.69-1.43-.68-3.12-.68-4.28V35h1.5c0 1.66.55 3.6 1.5 5-.3-.98-.5-2.5-.5-4H26c0 4.9 1.63 5.5 2 5.5 1.9 0 1.98-5.81 2-7.62V15h4v1.5h-2.48v17.59c-.02 1.49-.05 3.72-.52 5.43.81-1.18 1.5-3.13 1.5-6V18H34v15.53c0 2.34-.12 4.17-.76 5.57l.4-.54A9.24 9.24 0 0 0 35 33.65V13ZM19 33a1 1 0 1 1-2 0 1 1 0 0 1 2 0Zm1.5-1.5a1 1 0 1 0 0-2 1 1 0 0 0 0 2ZM24 33a1 1 0 1 1-2 0 1 1 0 0 1 2 0Zm1.5 2a1 1 0 1 0 0-2 1 1 0 0 0 0 2Z" fill="#FBAD10"/></svg>