<svg width="56" height="56" xmlns="http://www.w3.org/2000/svg"><path fill="#17469E" d="M0 0h56v56H0z"/><path d="M29.984 18.328l-3.446 2.29c7.456.21 12.522-2.11 12.522-2.11-5.402 2.563-11.107 2.796-13.502 2.762L21.453 24s12.832-.311 21-8c0 0-5.048 3.65-12.47 2.328z" fill="#ED1C24"/><path d="M45.003 24s.153.265-.06.583l-2.845 3.934.344-3.746c.067-.48.44-.771.44-.771h-4.277l-3.242 4.517.342-3.721.005-.011c.063-.487.441-.785.441-.785h-4.275c-.203-.01-9.973-.434-11.434 2.216.6-1.23 1.008-2.177 1.032-2.216h-7.09c.074.023.466.288.333.665-.37 1.282-1.27 4.252-2.275 6.452-1.315 2.881-4.281 3.937-6.317 4.674-.186.067-.157.207.038.207 5.007.034 9.12-.374 12.229-5.855a72.237 72.237 0 001.984-3.794 1.396 1.396 0 00-.084.262c-.64 2.957 4.793 3.146 4.712 3.852-.07.623-3.308.432-5.445-.284-.01-.003-.018-.008-.029-.012-.408-.138-.581-.383-.581-.383l.017.17h-.001l.005.026.086.788c.085.83.199 2.001.199 2.001s11.315 1.455 11.523-2.286c.158-2.83-5.291-3.17-5.232-3.79.056-.582 2.709-.655 4.318-.413a.087.087 0 00.013.004c.72.114.822.51.822.51l.117-.276h.002c.002-.012.975-2.322 1.058-2.518l-.734 8.254v.002a1.159 1.159 0 01-.443.748h.764L34.971 33l3.25-4.754-.347 4.015a1.16 1.16 0 01-.441.743h.372v.002l3.901-.002L48 24h-2.997z" fill="#fff"/></svg>