<svg width="56" height="56" viewBox="0 0 56 56" xmlns="http://www.w3.org/2000/svg"><path fill="#F0F3FA" d="M0 0h56v56H0z"/><path d="M14.94 40.11c-.93-1.26-1.73-7.71-2.22-9.66-.5-1.95-1.06-4.46-1.35-5.35-.47-1.45-1.56-4.41-1.34-5.97l.11-1.08.1.06c-.04.6 1.16 4.5 1.4 5.36 1.12 4.1 1.75 6.76 2.58 10.95.18.91.97 4.98 1.24 5.54l2.82-.4c.98-.1 1.95-.19 2.94-.25 4.72-.3 11.73-.25 16.39.95.41.1.86.27 1.26.36.1-.16.55-2.71.64-3.16 1.16-5.72 2.9-12.3 5.18-17.61.26-.6.98-2.14 1.31-2.52l-2.7 8.48c-.03.14-.1.4-.17.53l-.19.74c-.2.5-.88 2.9-1.02 3.4-.9 3.23-1.83 6.32-2.6 9.6-.06.27-.12.68-.2.92l-2.11-.45c-5.04-.9-12.75-.79-17.63-.24-1.02.12-2.76.5-3.61.33a1.14 1.14 0 0 1-.83-.53Z" fill="#89BE5C"/><path d="M26.98 33.21c-.11-.11-.05-.05-.09-.17-.1-.03-.23-.15-.27-.16-.11-.03-.14.09-.36-.02-.3-.16-.2-.41-.16-.8.33-2.97-.6-6.2-3.58-7.03-.85-.24-3.14-.56-3.53.28-.05.65 3.08 1.44 2.34 2.47-.22.3-.86.44-.99.7.2.35 1.4.73 2.04 1.15 1.38.89-.28 1.4-.39 1.7-.12.31.53.8.93 1.32.18.24.83 1.16.63 1.57-.31.16-.81-.64-.97-.81-.88-.93-2.05-1.05-1.35-2.05.28-.4.68-.56.96-.92-.38-.85-3.1-1.17-2.56-2.35.22-.49.77-.46.94-.8.02-.27-1.24-.83-1.7-1.17-.4-.28-1.01-.77-.57-1.27.66-.73 1.77-.85 2.79-.82 1.09.04 1.5.24 2.42.46l-.28-.2c-1.5-.87-4.24-1.62-5.83-1.32-1.58.3-1.17 1.63-.6 2.34.87 1.06 1.86 1.3 2.17 1.76l-.04.03-.1.06c-.3.15-.76.3-.85.87-.09.6.42 1.04.67 1.28.6.57.93.81 1.6 1.28 1.03.72-.23.67-.29 1.72-.03.5.17.72.4.97.1.11.11.17.18.28a4.86 4.86 0 0 0 1.82 1.79c.94.46 1.87-.06 2.71-.42.75-.32 1.94-.53 1.91-1.72Z" fill="#7DC7F5"/><path d="M35.03 22.85c.64-.3 2.03-1.14 2.73-.39.1.58-.81 1.47-1.06 1.74-1.06 1.19-1.47 1.17-1.9 2.27-.4 1-.63 1.4-1.3 2.18-.69.8-1.85 2.24-2.57 2.98l-.32.34c-.4.47-2.24 2.45-2.87 2.68-.26-.14.07-.07-.27-.13-.12.24-.27.5-.27.84 0 1.5 1.45.3 1.92-.11.4-.35 3.39-3.3 4.03-4.06l1.08-1.27c.53-.58.47-1.57 1.08-2.45l.46-.66c.8-1.18.9-1.08 1.57-1.95.68-.87 1.38-1.63 2.01-2.67.4-.66.56-1.03-.04-1.53-.88-.76-2.46.37-3.1 1-.43.41-.74.62-1.18 1.2Z" fill="#89BE5C"/><path d="M26.9 33.04c.43-.65.71-1.24 1.02-2.14.25-.7.46-1.9.77-2.44.13-.8.8-1.65.87-1.85-.28-.4-.34-.2-.63.04-1.22 1.01-1.3 2.61-1.61 4.03 0 .03-.48 1.83-.56 1.67l-.03.03c.1-1.17.23-2.1.07-3.3-.2-1.54-.43-1.6-.87-2.64-.1-.1-.12-.16-.2-.28a5.35 5.35 0 0 0-2.22-1.67c-.93-.22-1.33-.42-2.42-.46-1.02-.03-2.13.08-2.79.82-.44.5.18.99.57 1.27.46.33 1.72.9 1.7 1.16-.16.34-.72.32-.94.8-.55 1.2 2.18 1.5 2.56 2.36-.28.35-.68.52-.96.92-.7 1 .47 1.12 1.35 2.05.16.16.66.97.97.81.2-.42-.45-1.33-.63-1.58-.4-.51-1.05-1-.93-1.32.11-.29 1.77-.8.4-1.7-.66-.41-1.85-.79-2.05-1.15.13-.25.77-.4 1-.7.73-1.02-2.4-1.82-2.35-2.46.4-.84 2.68-.52 3.53-.29 2.99.84 3.91 4.07 3.58 7.04-.04.39-.14.64.16.8.22.1.25 0 .36.02.04.01.17.13.27.16Z" fill="#4D64AA"/><path d="M28.69 28.46c-.3.54-.52 1.74-.77 2.44-.31.9-.6 1.5-1.03 2.14.04.11-.02.06.1.17.32.16.39.03.59-.12-.05.17-.12.31-.14.51-.02.26.07.4.06.66.09-.14.15-.27.24-.4.26-.35 1.89-2.02 2.24-2.39.45-.46.85-.89 1.28-1.36.43-.47.84-.9 1.24-1.4.66-.85.4-1.56 2.1-3.23l2.02-1.93c.17-.16.55-.47.49-.82-.67-.24-2 .85-2.42 1.15l-2.09 1.61c-.74.7-2.77 2.8-3.31 3.2-.33.24-.35.18-.63-.01l.03-.22Z" fill="#A1C55A"/><path d="M35.03 22.85c-1.07.66-1.95 1.36-2.87 2.08-.48.38-.9.75-1.33 1.16l-1.31 1.25c-.09.14-.32.42-.41.53-.18.23-.26.32-.42.59l-.03.22c.28.19.3.25.63 0 .54-.39 2.57-2.5 3.31-3.19l2.1-1.61c.42-.3 1.74-1.39 2.4-1.15.07.35-.31.66-.48.82l-2.02 1.93c-1.7 1.67-1.44 2.38-2.1 3.22a88.64 88.64 0 0 1-2.52 2.77c-.35.37-1.98 2.04-2.24 2.4-.09.12-.15.25-.24.4l-.03.25c.34.06.01 0 .27.13.63-.23 2.46-2.2 2.87-2.68l.32-.34c.72-.74 1.88-2.18 2.57-2.98.67-.78.9-1.18 1.3-2.18.43-1.1.84-1.08 1.9-2.27.25-.28 1.15-1.16 1.06-1.74-.7-.75-2.09.09-2.73.4Z" fill="#4D64AA"/><path d="M10.33 18.16c1.68-.58 2.33-.85 4.21-1.07a25.7 25.7 0 0 1 11.47 1.5c.63.25 1.02.42 1.58.77l.12.07c.11.02.05.02.12-.01a9.74 9.74 0 0 0-2.58-1.79 16.04 16.04 0 0 0-4.43-1.3c-.4-.07-.89-.15-1.29-.17-.27-.02-.4-.06-.64-.06-.63 0-1.54-.1-2.02-.03-.71.12-1.36.03-2.59.26-1.15.22-2.22.51-3.21 1.07l-.45.28c-.1.09-.22.34-.3.48ZM28.18 19.32c.33.13 3.46-1.01 4.03-1.2 1.36-.44 2.73-.83 4.19-1.12 2.43-.48 4.73-.63 7.2-.35.8.09 1.58.31 2.31.4-.12-.11-.32-.16-.47-.21l-1.64-.45c-1-.22-2.16-.35-3.33-.39H38.8c-.9.03-1.77.1-2.55.23-.81.13-1.56.22-2.31.41-1.58.4-2.68.7-4.14 1.43-.64.32-1.22.67-1.63 1.25Z" fill="#89BE5C"/><path d="M27.16 26.37c-.18-.77.59-1.64 1.32-1.65.86-.01.98.65 1.09.81.1.16.36.33.35.7-.31.08-.66-.13-.85-.29-.26-.2-.2-.43-.65-.51-.83-.15-.94.47-1.26.94Zm-1.23.07c.44 1.04.67 1.1.87 2.64.16 1.2.02 2.13-.07 3.3.01-.01.02-.04.03-.03.08.16.55-1.64.56-1.67.3-1.42.4-3.02 1.6-4.03.3-.24.36-.44.64-.04-.06.2-.74 1.06-.87 1.85.16-.27.24-.36.42-.58.09-.12.32-.4.4-.53.15-.32.46-.55.67-.8.19-.2.7-.48.5-.87-.15-.31-.56-.4-.73-.7-.7-1.19-2.04-1.21-2.83-.31-.24.26-.35.62-.5.98-.2.44-.56.54-.7.79Z" fill="#F2C244"/><path d="M27.16 26.37c.32-.47.43-1.09 1.27-.94.45.08.38.3.64.51.2.16.54.37.85.3 0-.38-.26-.55-.35-.7-.1-.17-.22-.83-1.08-.82-.74.01-1.51.88-1.33 1.65Z" fill="#4D64AA"/></svg>