<svg width="56" height="56" xmlns="http://www.w3.org/2000/svg"><path fill="#F0F3FA" d="M0 0h56v56H0z"/><path d="M9 23.238C8.972 22.257 8.578 22 8 22c-.931 0-1 .826-1 1.238v7.66c0 .583-.493 1.098-1.174 1.098-.796 0-1.36-.578-1.856-.59-.757-.019-.969.515-.973.835-.034.583.515 1.75 2.986 1.759 2.472.01 3.028-1.986 2.998-2.986L9 23.238zm3 3.838c-.018-.798-.487-1.076-1-1.076-.84.054-.998.74-.998 1.076v4.01c-.038.976.64 2.923 3.498 2.914 2.857-.009 3.51-1.946 3.5-2.913v-4.011c.014-.359-.208-1.076-1-1.076s-1.015.717-1 1.076v3.616c0 .381-.428 1.308-1.5 1.308-1.027 0-1.493-.908-1.5-1.308.007-1.004.018-2.819 0-3.616zm6.232 1.284c.097-1.91 1.808-2.36 2.895-2.36 1.088 0 2.76.6 2.664 1.45-.108.977-.865 1.018-1.237.828-.371-.19-1.23-.49-1.633-.502-.503-.013-.789.258-.775.583.01.26.376.506.557.597l1.851.68c.643.277 1.518.969 1.441 2.032C23.9 32.997 22.731 34 21.127 34c-1.577 0-2.705-.773-2.895-.963-.19-.19-.409-.697 0-1.247.318-.43.996-.276 1.332-.122.321.18 1.084.545 1.563.556.598.013.819-.163.873-.434.078-.388-.207-.705-2.042-1.288-1.468-.467-1.763-1.623-1.726-2.143z" fill="#1274C0"/><path d="M25 23.026V24h-.608c-.305 0-.901.337-.892 1 .009.663.54 1 .79 1H25v6.643c0 .478.197 1.377 1 1.357.803-.02 1.023-.916 1-1.357L26.993 26h.691c.279-.012.834-.268.816-1-.018-.732-.552-.988-.816-1h-.691l.007-.974c-.008-.35-.222-1.026-1-1.026-.785 0-1 .766-1 1.026z" fill="#1274C0"/><path d="M34 26.777v-3.671c0-.387.2-1.092 1-1.106.8-.013 1 .719 1 1.106V33c0 .41-.193 1-1 1-.719 0-.85-.495-.933-.803A.843.843 0 0034 33c-.243.33-1.232 1-2.293 1-1.326 0-3.695-.772-3.707-4-.012-3.228 2.25-4.002 3.695-4.002 1.156 0 2.096.52 2.305.78zM32 32.5c1.105 0 2-1.088 2-2.502 0-1.413-.895-2.498-2-2.498s-2 1.085-2 2.498c0 1.414.895 2.502 2 2.502zm14-5.645c0-.297.224-.855 1-.855.574 0 1 .398 1 .76v6.126C48 33.27 47.806 34 47 34c-.662 0-.827-.468-.928-.752a.903.903 0 00-.072-.173c-.243.308-1.232.925-2.293.925-1.327 0-3.695-.976-3.707-4-.012-3.024 2.25-4 3.695-4 1.258 0 2.096.611 2.305.855zM44 32.5c1.105 0 2-1.12 2-2.5s-.895-2.5-2-2.5-2 1.12-2 2.5.895 2.5 2 2.5z" fill="#FF6C00"/><circle cx="38" cy="24" r="1" fill="#FF6C00"/><rect x="37" y="26" width="2" height="8" rx="1" fill="#FF6C00"/><rect x="49" y="22" width="2" height="12" rx="1" fill="#FF6C00"/></svg>