<svg width="56" height="56" viewBox="0 0 56 56" xmlns="http://www.w3.org/2000/svg"><path fill="#F0F3FA" d="M0 0h56v56H0z"/><path d="M30.49 12.17a15.95 15.95 0 0 1 11.15 7.46 15.98 15.98 0 0 1-.36 17.27 15.95 15.95 0 0 1-25.46 1.43 16.3 16.3 0 0 1-3.74-8.86c-.22-1.96.03-3.88.54-5.72a15.96 15.96 0 0 1 13.03-11.6 18.6 18.6 0 0 1 4.84.02Zm4.54 7.53a7.13 7.13 0 0 0-4.33-6.54 6.97 6.97 0 0 0-7.65 1.54 7.11 7.11 0 0 0 0 10.01 6.99 6.99 0 0 0 11.45-2.3c.35-.86.53-1.78.53-2.7ZM26.2 35.12c3.84.58 7.65-.68 10.38-3.46a11.32 11.32 0 0 0 .94-14.74 11.51 11.51 0 0 0-3.84-3.3c-.16-.08-.17-.07-.02.04l.38.27a10.22 10.22 0 0 1 1.1 16.17 10.5 10.5 0 0 1-6.1 2.66 10.63 10.63 0 0 1-10.45-5.6 10.24 10.24 0 0 1 3.73-13.46c.02-.01.02-.02.01-.04 0-.02-.02-.02-.04-.01-4.97 2.77-7.36 8.52-5.37 14a11.75 11.75 0 0 0 9.28 7.47Zm.23-7.04a8.38 8.38 0 0 0 6.6-1.5 7.79 7.79 0 0 0-.17-12.69v.05a7.53 7.53 0 0 1 2.62 4.8 7.6 7.6 0 0 1-5.55 8.38 7.55 7.55 0 0 1-9.43-6.67 7.58 7.58 0 0 1 2.66-6.5l-.03-.02h-.02a7.84 7.84 0 0 0-3.29 7.18 8.06 8.06 0 0 0 6.61 6.97Zm-.87 12.73c4.78.8 9.6-.78 12.97-4.27a14.25 14.25 0 0 0-2.7-21.96 12.86 12.86 0 0 1-1 21.25 13.01 13.01 0 0 1-14.58-.64 12.85 12.85 0 0 1 0-20.68 14.74 14.74 0 0 0-5.05 5.37 14.24 14.24 0 0 0-.88 11.57c1.8 4.95 6.1 8.48 11.24 9.36Zm-1.99-10.74a9.8 9.8 0 0 0 10.66-1.16 9.2 9.2 0 0 0 .82-13.52v.05a8.72 8.72 0 0 1 1.73 6.85 8.9 8.9 0 0 1-16.72 2.45 8.71 8.71 0 0 1 .95-9.33v-.04h-.03a9.23 9.23 0 0 0 2.59 14.7Z" fill="#007DC7"/><path d="M25.66 16.42c-.05 0-.07-.03-.05-.07a8.42 8.42 0 0 1 2.1-3.03c.11-.1.17-.08.17.07v2.94c0 .06-.03.08-.09.08h-2.13ZM30.44 16.35c.02.04 0 .07-.04.07h-2.15c-.06 0-.1-.04-.1-.1V13.3l.01-.02a.05.05 0 0 1 .04-.03l.02.01c.94.56 1.75 1.98 2.22 3.09ZM23.2 16.33a.15.15 0 0 1-.15.09h-.64c-.06 0-.07-.03-.04-.08a6.7 6.7 0 0 1 3.9-3.03v.03a6.6 6.6 0 0 0-3.08 2.99Z" fill="#007DC7"/><path d="M25.31 16.33a.13.13 0 0 1-.12.09h-1.65c-.06 0-.08-.03-.04-.09a6.31 6.31 0 0 1 3.74-3.04c.09-.03.1 0 .03.06a8.64 8.64 0 0 0-1.96 2.98ZM28.8 13.35a.06.06 0 0 1-.01-.04.03.03 0 0 1 .01-.03.03.03 0 0 1 .03 0 6.43 6.43 0 0 1 3.7 3.08c.03.04.02.06-.03.06h-1.63a.13.13 0 0 1-.13-.09 7.8 7.8 0 0 0-1.93-2.98Z" fill="#007DC7"/><path d="M29.73 13.3h-.02v-.01h.02c1.7.5 3 1.52 3.93 3.05.03.05.01.08-.05.08h-.64a.15.15 0 0 1-.14-.1 6.71 6.71 0 0 0-3.1-3.01ZM22.98 16.73a6.91 6.91 0 0 0-.67 2.73c0 .06-.03.08-.09.08h-.66c-.05 0-.07-.02-.07-.08a6.56 6.56 0 0 1 .72-2.75l.03-.01h.71a.03.03 0 0 1 .03.02v.01ZM25.15 16.76c-.33.9-.5 1.8-.54 2.7 0 .05-.03.08-.09.08h-1.85c-.06 0-.09-.03-.09-.09.06-.96.29-1.85.7-2.68a.12.12 0 0 1 .12-.07h1.73a.05.05 0 0 1 .02.06ZM24.9 19.47a10.13 10.13 0 0 1 .57-2.75.13.13 0 0 1 .08-.02h2.23c.07 0 .1.03.1.1v2.65c0 .06-.03.09-.1.09h-2.83c-.04 0-.06-.02-.06-.07ZM30.6 16.8a8.76 8.76 0 0 1 .51 2.74H28.22c-.04 0-.06-.02-.06-.07V16.71l.03-.01h2.29c.06 0 .1.03.13.1ZM33.85 16.74c.45.96.68 1.87.7 2.74 0 .04-.03.07-.07.07l-.68-.01c-.05 0-.08-.03-.08-.08a6.66 6.66 0 0 0-.69-2.74c0-.02 0-.02.02-.02h.73a.07.07 0 0 1 .07.04ZM32.73 16.76a6.42 6.42 0 0 1 .7 2.76.07.07 0 0 1-.06.02H31.5c-.05 0-.08-.03-.08-.08-.02-.9-.2-1.8-.5-2.68-.02-.05 0-.08.06-.08h1.66a.1.1 0 0 1 .1.06ZM22.24 22.8a7.28 7.28 0 0 1-.75-2.92c0-.04.02-.06.06-.06h.7c.03 0 .05.02.05.06.04 1.02.3 2 .77 2.91.01.02 0 .04-.02.04l-.75.02a.06.06 0 0 1-.06-.04ZM23.37 22.77a6.43 6.43 0 0 1-.78-2.86c0-.06.02-.09.08-.09h1.89s.02 0 .03.02l.02.03a8.8 8.8 0 0 0 .58 2.88c.02.05 0 .08-.06.08h-1.65a.12.12 0 0 1-.1-.06ZM25.49 22.76a9.06 9.06 0 0 1-.6-2.87c0-.04.02-.07.07-.07h2.86a.05.05 0 0 1 .04.02.06.06 0 0 1 .02.04v2.87c0 .06-.03.08-.08.08h-2.21c-.05 0-.09-.02-.1-.07ZM31.14 19.89c-.03.97-.27 1.9-.62 2.88-.01.04-.04.06-.1.06h-2.2c-.04 0-.06-.02-.06-.07V19.9c0-.05.03-.08.08-.08h2.83a.06.06 0 0 1 .07.07ZM32.66 22.78a.1.1 0 0 1-.09.05H30.9c-.06 0-.08-.03-.06-.08a8.73 8.73 0 0 0 .6-2.9.08.08 0 0 1 .05-.03h1.88a.07.07 0 0 1 .05.03.08.08 0 0 1 .02.05c-.04 1-.3 1.95-.78 2.88ZM32.97 22.8a6.58 6.58 0 0 0 .76-2.95.07.07 0 0 1 .05-.03h.72c.03 0 .04.02.04.05-.03 1.02-.28 2-.77 2.94-.02.05-.05.06-.1.05-.19-.04-.4-.04-.67-.02-.04 0-.05 0-.03-.05ZM26.28 26.07a6.6 6.6 0 0 1-3.78-2.9l.72.01c.03 0 .05.01.07.04a6.7 6.7 0 0 0 3 2.82v.02s0 .01 0 0Z" fill="#007DC7"/><path d="M25.4 23.25a8.03 8.03 0 0 0 1.79 2.7c.14.13.12.16-.06.1a6.23 6.23 0 0 1-3.5-2.82c-.03-.04-.02-.05.02-.05h1.64a.11.11 0 0 1 .1.07ZM25.97 23.86l-.29-.59c-.03-.06 0-.1.06-.1l2.05.01c.06 0 .09.03.09.09v2.67c0 .19-.07.22-.2.1a7.31 7.31 0 0 1-1.7-2.18ZM30.32 23.28a7.35 7.35 0 0 1-2.1 2.83h-.04a.05.05 0 0 1-.02-.05v-2.8c0-.05.02-.08.07-.08h2.03c.07 0 .1.03.06.1ZM28.79 26a8.66 8.66 0 0 0 1.9-2.8.12.12 0 0 1 .06-.02h1.63c.04 0 .05.02.03.06a6.27 6.27 0 0 1-3.58 2.83c-.11.03-.12 0-.04-.07Z" fill="#007DC7"/><path d="M29.73 26.05a6.94 6.94 0 0 0 3.02-2.83.07.07 0 0 1 .06-.04h.7a.01.01 0 0 1 .02 0v.02a6.68 6.68 0 0 1-3.8 2.87v-.02Z" fill="#007DC7"/></svg>