<svg width="56" height="56" fill="none" xmlns="http://www.w3.org/2000/svg"><path fill="#F0F3FA" d="M0 0h56v56H0z"/><path fill-rule="evenodd" clip-rule="evenodd" d="M17.554 36.864C14.449 36.638 12 34.01 12 30.8a6.095 6.095 0 013.07-5.312c-.71-1-1.13-2.227-1.13-3.555 0-3.358 2.682-6.081 5.99-6.081.828 0 1.616.17 2.333.479C23.004 13.825 25.293 12 28 12c2.709 0 4.997 1.825 5.737 4.33a5.891 5.891 0 012.334-.479c3.308 0 5.99 2.723 5.99 6.081a6.117 6.117 0 01-1.13 3.556 6.095 6.095 0 013.07 5.31c0 3.242-2.498 5.891-5.646 6.072.058.34.089.691.089 1.049 0 3.358-2.682 6.081-5.99 6.081-1.793 0-3.402-.8-4.5-2.069a5.937 5.937 0 01-4.5 2.069c-3.308 0-5.99-2.723-5.99-6.081 0-.36.031-.712.09-1.055zM29 17.116a1 1 0 10-2 0v3.538a1 1 0 002 0v-3.538zm1.963 17.727a.985.985 0 011.334.442l1.563 3.163c.245.495.045 1.1-.447 1.35a.985.985 0 01-1.334-.442l-1.564-3.162a1.015 1.015 0 01.448-1.35zm-7.248.442a.985.985 0 011.334-.442c.492.251.692.856.448 1.35l-1.564 3.163a.985.985 0 01-1.334.442 1.015 1.015 0 01-.448-1.35l1.564-3.163zm13.654-14.55a1.018 1.018 0 01-.088 1.422L34.669 24.5a.982.982 0 01-1.4-.087 1.018 1.018 0 01.087-1.422l2.612-2.343a.982.982 0 011.4.087zm-18.757 1.422a1.018 1.018 0 01-.088-1.422.982.982 0 011.401-.087l2.612 2.343c.41.369.45 1.005.088 1.422a.982.982 0 01-1.401.087l-2.612-2.343zm-2.514 9.25a.991.991 0 001.208.724l3.38-.859c.536-.136.863-.681.73-1.217a.991.991 0 00-1.208-.725l-3.38.86a1.009 1.009 0 00-.73 1.217zm22.627.724a.991.991 0 001.209-.724 1.009 1.009 0 00-.73-1.218l-3.38-.859a.991.991 0 00-1.21.725 1.009 1.009 0 00.73 1.217l3.38.86z" fill="#004DA7"/><path fill-rule="evenodd" clip-rule="evenodd" d="M28 16.116a1 1 0 011 1v3.538a1 1 0 01-2 0v-3.538a1 1 0 011-1zM30.963 34.843a.985.985 0 011.334.442l1.563 3.163c.245.495.045 1.1-.447 1.35a.985.985 0 01-1.334-.442l-1.564-3.162a1.015 1.015 0 01.448-1.35zM25.049 34.843a.985.985 0 00-1.334.442l-1.564 3.163c-.244.495-.044 1.1.448 1.35a.985.985 0 001.334-.442l1.564-3.162c.244-.495.044-1.1-.448-1.35zM37.369 20.735a1.018 1.018 0 01-.088 1.422L34.669 24.5a.982.982 0 01-1.4-.087 1.018 1.018 0 01.087-1.422l2.612-2.343a.982.982 0 011.4.087zM18.524 20.735a1.018 1.018 0 00.088 1.422l2.612 2.343a.982.982 0 001.4-.087 1.019 1.019 0 00-.087-1.422l-2.612-2.343a.982.982 0 00-1.4.087zM16.098 31.407a.991.991 0 001.208.724l3.38-.859c.536-.136.863-.681.73-1.217a.991.991 0 00-1.208-.725l-3.38.86a1.009 1.009 0 00-.73 1.217zM39.934 31.407a.991.991 0 01-1.21.724l-3.38-.859a1.009 1.009 0 01-.73-1.217.991.991 0 011.21-.725l3.38.86c.535.136.862.68.73 1.217z" fill="#FED602"/></svg>