<svg width="56" height="56" viewBox="0 0 56 56" xmlns="http://www.w3.org/2000/svg"><path fill="#F0F3FA" d="M0 0h56v56H0z"/><path d="M19 13.97v3.59c0 .15.17.22.35.26.23.03.45-.08.68-.15 3.31-.97 8.72-.56 11.4 1.98.26.22.49.48.67.78.19-.18.53-.6.53-.88.93-2.72-2.54-4.92-4.77-5.55-2.43-.75-5.43-.7-7.86-.03-.22.04-.33.1-.48.14-.15.03-.25.14-.29-.05.04-.11-.23-.05-.23-.1 0 .05 0 .05 0 0ZM44.89 27.6l-3.1-1.79c-.1-.07-.22-.07-.33.04-.11.15-.15.41-.22.67-.83 3.37-3.92 7.85-7.46 8.9-.34.11-.67.19-1 .19 0 .32.33.72.55.93 1.9 2.17 5.33.19 6.97-1.42a14.7 14.7 0 0 0 4.03-6.69c.07-.22.07-.41.15-.52.04-.15.15-.34.33-.3 0-.04.04-.04.08 0-.04-.04-.04-.04 0 0Z" fill="#6D6E71"/><path d="M19.17 23.12c.37.2.78.38 1.15.56a19.42 19.42 0 0 0 7.72 1.61c2.68.04 5.89-.45 8.35-1.83-.15.11-.34.22-.49.34a19.03 19.03 0 0 0-5.25 5.9c-1.42 2.36-2.65 5.46-2.61 8.37a19.6 19.6 0 0 0-3.35-9.46 17.62 17.62 0 0 0-5.52-5.49Zm23.82-2.39c-1.9.11-3.92 1.01-5.67 2.06.26-.19.52-.41.78-.64 2.02-1.9 1.98-4.33.08-6.35-2.39-2.36-6.04-3.4-9.17-3.7-3.1-.3-6.11.07-8.87 1.16l-.75.33c-.15.08-.45.27-.37.45.03.19.37.15.52.15.15-.04.34-.11.52-.15 2.46-.67 5.37-.63 7.8.11 2.23.64 5.66 2.62 4.73 5.35-.93 2.73-5.33 3.55-8.1 3.47-2.97-.07-7.48-1.56-9.57-4.22-.15-.19-.26-.33-.41-.41-.23-.11-.52.04-.52.3 0 .15.03.3.15.45 1 1.5 2.6 2.73 4.28 3.7a8.35 8.35 0 0 0-2.05-.71c-2.72-.67-4.66.75-5.22 3.47-.6 3.3.64 6.92 2.17 9.65a19.26 19.26 0 0 0 6 6.69c.22.14.44.3.7.4.15.08.38.16.49 0 .11-.14 0-.33-.11-.44a2.32 2.32 0 0 0-.45-.34 14.91 14.91 0 0 1-4.32-6.46c-.75-2.2-1.08-6.13 1.71-6.96 2.76-.78 5.93 2.4 7.46 4.71 1.64 2.5 2.98 7.07 1.93 10.32-.07.22-.14.41-.1.56.03.26.33.41.51.26a.69.69 0 0 0 .27-.37c.55-1.39.7-3 .67-4.56.03.33.07.63.15.97.63 2.73 2.75 3.89 5.44 3.25 3.2-.86 5.96-3.55 7.79-6.1a19.1 19.1 0 0 0 3.47-8.29c.03-.26.07-.52.07-.82 0-.15-.04-.41-.22-.45-.19-.04-.3.15-.34.3-.04.15-.07.34-.15.52a14.9 14.9 0 0 1-4.02 6.7c-1.6 1.6-5.04 3.58-6.94 1.41-1.9-2.16-.37-6.42 1.08-8.78 1.57-2.54 5.11-5.72 8.47-6.17.22-.03.44-.03.55-.14a.35.35 0 0 0 0-.6 1.39 1.39 0 0 0-.44-.08Z" fill="#FAA61A"/><path d="m20.47 42.33 2.95-2.01c.1-.08.15-.2.1-.34-.1-.19-.29-.34-.48-.49-2.75-2.16-5.47-6.87-4.92-10.54.04-.33.12-.67.27-1h-.63c-.05 0-.08 0-.12.03-.04 0-.07 0-.11.04-.04 0-.08.04-.11.04-2.76.78-2.62 4.58-1.92 6.78.79 2.43 2.51 5.13 4.45 6.74.19.15.27.25.38.32.11.11.29.18.18.33-.08.04-.04.07-.04.1 0-.03 0-.03 0 0ZM24.65 28.54a19.01 19.01 0 0 1 3.05 7.3c.15.66.28 1.68.35 2.43-.04-2.92 1.24-6.2 2.66-8.59 1.38-2.35 3.4-4.5 5.53-6.06l.48-.34c-2.46 1.42-6.03 1.97-8.72 1.94a19.28 19.28 0 0 1-9.07-2.24 19.37 19.37 0 0 1 5.72 5.56Z" fill="#6D6E71"/></svg>