<svg xmlns="http://www.w3.org/2000/svg" width="56" height="56"><path fill="#15508B" d="M0 0h56v56H0z"/><path d="M14.91 23l-3.84 3.34L13.8 32h-2.97l-1.67-3.97-1.93 1.66L6.76 32H4l1.9-9h2.76l-.72 3.32.02.03L11.31 23h3.6zm.13 3.96a2.22 2.22 0 011.01-1.4 4.7 4.7 0 012.47-.56c1.26 0 2.11.22 2.56.53.44.32.66.78.66 1.39 0 .4-.12 1.3-.34 2.23-.21.88-.31 1.49-.31 1.83 0 .29.05.72.15 1.02h-2.4a4.73 4.73 0 01-.08-.87 3.1 3.1 0 01-2.16.87c-.81 0-1.4-.17-1.75-.55a1.87 1.87 0 01-.53-1.32c0-.57.15-1 .47-1.3.32-.3.7-.5 1.17-.6.47-.12 1.1-.2 1.9-.29a9.32 9.32 0 001.43-.23c.05-.19.08-.58.08-.68 0-.16-.08-.29-.24-.38-.17-.1-.38-.15-.65-.15-.29 0-.51.05-.69.14-.18.09-.33.28-.46.57l-2.3-.25zM19.02 29c-1.14.2-1.8.36-2 .5-.2.15-.3.32-.3.52a.6.6 0 00.22.49.8.8 0 00.54.18c.31 0 .62-.13.92-.38.3-.25.51-.69.62-1.3zm7.74-6l-.4 2H23.9l.4-2h2.46zm-.56 3l-1.33 5.87c-.12.6-.4 1.6-.56 1.95a1.92 1.92 0 01-.74.86c-.34.21-.82.32-1.43.32a7.14 7.14 0 01-1.72-.24l.35-1.73c.23.04.44.06.63.06.27 0 .48-.06.61-.19a6 6 0 00.52-1.61L23.77 26h2.43zm1.24.9a2.22 2.22 0 011.02-1.4c.53-.33 1.35-.5 2.46-.5 1.26 0 2.12.16 2.56.47.44.32.66.78.66 1.39 0 .4-.14 1.37-.36 2.3-.2.87-.3 1.47-.3 1.82 0 .29.05.72.15 1.02h-2.4a4.74 4.74 0 01-.08-.87 3.1 3.1 0 01-2.16.87c-.81 0-1.4-.17-1.75-.55a1.87 1.87 0 01-.53-1.32c0-.57.15-1 .47-1.3.32-.3.7-.5 1.17-.6.47-.12 1.1-.2 1.9-.29a9.3 9.3 0 001.43-.23 5.2 5.2 0 00.1-.73c0-.16-.08-.3-.25-.39-.16-.1-.38-.15-.65-.15-.28 0-.51.05-.69.14-.17.09-.33.28-.46.57l-2.3-.24zM31.4 29c-1.14.18-1.8.35-2 .5-.2.14-.3.31-.3.51a.6.6 0 00.21.49c.15.12.33.18.55.18.31 0 .62-.13.92-.38.3-.25.51-.69.62-1.3zm9.53-3.81l-.9 1.9a2.2 2.2 0 00-.51-.07c-.47 0-.85.17-1.15.5-.3.35-.52 1.2-.68 1.95l-.5 2.53h-2.47l1.37-7h2.3l-.28 1.4.02.03c.38-.57.72-.95 1.01-1.15.3-.2.61-.28.96-.28.26 0 .54.06.84.19zm3.7-2.19l-.41 2h-2.46l.4-2h2.47zm-.59 3l-1.3 5.87h-2.47l1.3-5.87h2.47zm1.25.9a2.21 2.21 0 011.01-1.4c.53-.33 1.35-.5 2.47-.5 1.26 0 2.11.16 2.55.47.44.32.67.78.67 1.39a12 12 0 01-.33 2.3c-.2.87-.31 1.48-.31 1.82 0 .29.05.72.15 1.02h-2.4a4.73 4.73 0 01-.08-.87 3.1 3.1 0 01-2.16.87c-.81 0-1.4-.17-1.75-.55a1.87 1.87 0 01-.53-1.32c0-.57.16-1 .47-1.3.32-.3.71-.5 1.17-.6.47-.12 1.1-.2 1.9-.29a9.34 9.34 0 001.43-.23c.05-.19.07-.63.07-.73 0-.16-.08-.3-.25-.39-.16-.1-.38-.15-.65-.15-.28 0-.5.05-.68.14-.18.09-.33.28-.47.57l-2.29-.24zm3.99 2.1c-1.13.18-1.8.35-2 .5-.2.14-.3.31-.3.51a.6.6 0 00.22.49.8.8 0 00.54.18c.31 0 .62-.13.93-.38.3-.25.5-.69.6-1.3z" fill="#fff"/></svg>