<svg width="56" height="56" viewBox="0 0 56 56" xmlns="http://www.w3.org/2000/svg"><path fill="#F0F3FA" d="M0 0h56v56H0z"/><path d="M23.2 36.1c-2.15.17-3.05-.24-3.24-.47-.19-.13-.42-3.2-.51-4.7l10.85-.36c-1.47 1.77-4.94 5.35-7.1 5.52Z" fill="url(#a4z22y0zz)"/><path d="M24.64 29.5c-1.55 0-2.16-.3-2.27-.45L19.7 31.6c.36.33 1.58 1 3.58 1 2.01 0 4.39-.76 5.33-1.13l6.6-2.43c-.21-.75-.78-2.25-1.32-2.33-.67-.09-1.66.3-3.1 1.1-1.44.8-4.22 1.67-6.16 1.67Z" fill="url(#b4z22y0zz)"/><path d="M38 17.06c0-2.68-1.4-6.49-2.1-8.06-2.31 3.74-5.1 5.8-11.15 8.26-6.05 2.47-8.75 5.56-8.75 10 0 4.42 2.76 7.55 4.07 8.5-1.52-5.62 4.58-7.77 10.93-10.68 6.34-2.92 7-4.67 7-8.02Z" fill="url(#c4z22y0zz)"/><path d="M35.96 9.13c.58 3-.36 9.08-8.53 11.86-7.03 2.26-11 5.68-10.81 9.83.89 2.52 2.53 4.27 3.45 4.94-1.39-5.13 3.57-7.36 9.27-9.93l1.66-.75c6.34-2.92 7-4.67 7-8.02 0-2.6-1.33-6.29-2.04-7.93Z" fill="url(#d4z22y0zz)"/><path d="M34.17 26.64a3.2 3.2 0 0 0-1.2.2c.87-.12 1.37.3 1.37.72 0 1.86-2.76 2.66-6.16 4.13-3.4 1.47-6.2 4.12-6.2 8.21 0 4.09 2.75 6.3 3.8 7.1-.15-2.43 1.56-6.12 5.8-8.88 4.24-2.77 5.75-5.02 5.75-7.36 0-3.52-2.4-4.12-3.16-4.12Z" fill="url(#e4z22y0zz)"/><path d="M33.75 26.66c.87.13 1.73.56 1.71 1.63-.02 2.04-1.74 3.24-5.98 4.94-4.24 1.7-6.21 4.75-6.13 7.55a9.94 9.94 0 0 0 1.84 5.75 8.55 8.55 0 0 1-3.22-6.63c0-4.1 2.82-6.74 6.21-8.2l1.55-.66c2.65-1.1 4.61-1.9 4.61-3.48 0-.42-.5-.84-1.37-.71.1-.06.39-.14.78-.19Z" fill="url(#f4z22y0zz)"/><path d="M35.6 27.07a3.65 3.65 0 0 1 1.14 2.72c0 2.28-.63 3.82-5.5 6.02-4.88 2.2-6.3 4.66-6.3 7.59 0 1.55.39 2.76.77 3.55l.07.05c-.15-2.43 1.56-6.12 5.8-8.88 4.24-2.77 5.75-5.02 5.75-7.36 0-2.13-.88-3.19-1.73-3.7Z" fill="url(#g4z22y0zz)"/><defs><linearGradient id="a4z22y0zz" x1="19.45" y1="34.36" x2="29.6" y2="34.34" gradientUnits="userSpaceOnUse"><stop stop-color="#322042"/><stop offset="1" stop-color="#D14255"/></linearGradient><linearGradient id="b4z22y0zz" x1="34.26" y1="27.78" x2="20.59" y2="27.79" gradientUnits="userSpaceOnUse"><stop offset=".06" stop-color="#6F2E4C"/><stop offset=".47" stop-color="#ED4756"/><stop offset=".95" stop-color="#5B2949"/></linearGradient><linearGradient id="c4z22y0zz" x1="38.34" y1="13.59" x2="15.28" y2="26.32" gradientUnits="userSpaceOnUse"><stop offset="0" stop-color="#F3E323"/><stop offset=".84" stop-color="#F2A636"/></linearGradient><linearGradient id="d4z22y0zz" x1="38.95" y1="16.88" x2="16.35" y2="30.88" gradientUnits="userSpaceOnUse"><stop stop-color="#F3E720"/><stop offset=".64" stop-color="#F18C34"/></linearGradient><linearGradient id="e4z22y0zz" x1="34.99" y1="36.84" x2="26.19" y2="34.59" gradientUnits="userSpaceOnUse"><stop offset="0" stop-color="#2FB2AD"/><stop offset=".94" stop-color="#33275A"/></linearGradient><linearGradient id="f4z22y0zz" x1="21.96" y1="38" x2="35.09" y2="38.62" gradientUnits="userSpaceOnUse"><stop stop-color="#3A2F67"/><stop offset="1" stop-color="#34ADAC"/></linearGradient><linearGradient id="g4z22y0zz" x1="37.31" y1="30.5" x2="27.93" y2="28.69" gradientUnits="userSpaceOnUse"><stop stop-color="#2BB8B1"/><stop offset=".75" stop-color="#332659"/></linearGradient></defs></svg>