<svg width="56" height="56" viewBox="0 0 56 56" xmlns="http://www.w3.org/2000/svg"><path fill="#D32026" d="M0 0h56v56H0z"/><path d="M19.86 30.42 17 36.92c0 7.36 13.86 7.36 15.65 7.36 1.8 0 6.35.72 6.35.72-1.27-12.49-11.32-18.1-11.32-18.1l-7.82 3.52Z" fill="url(#ar4z510vk)"/><path d="M17.05 19.3v18.27s1.06-2.47 3.97-4.01C25.72 31.14 37.73 25.19 39 11c0 0-4.81.88-7.35 1.32-2.43.39-14.54.5-14.6 6.99Z" fill="url(#br4z510vk)"/><defs><linearGradient id="ar4z510vk" x1="34.57" y1="52.03" x2="19.61" y2="26.1" gradientUnits="userSpaceOnUse"><stop stop-color="#FFDE00"/><stop offset=".18" stop-color="#FED600"/><stop offset=".55" stop-color="#FFCD0A"/><stop offset=".84" stop-color="#956B29"/></linearGradient><linearGradient id="br4z510vk" x1="46.68" y1="24.63" x2="13.38" y2="24.07" gradientUnits="userSpaceOnUse"><stop stop-color="#FFDE00"/><stop offset=".63" stop-color="#FFCD0A"/><stop offset="1" stop-color="#B16B28"/></linearGradient></defs></svg>