<svg width="56" height="56" viewBox="0 0 56 56" xmlns="http://www.w3.org/2000/svg"><path fill="#F0F3FA" d="M0 0h56v56H0z"/><path fill-rule="evenodd" d="m23.14 21.85-.28.84c-1.05-.2-1.56-.29-2.12.58-.66 1.03-.16 1.96 1.2 2.51-1.12 4.07-1.93 8.24-1.93 11.8-.11 2.8 1.08 8.42 6.74 8.42 4.55 0 7.26-1.52 8.05-2.28-3.9 1.49-11.35 1.96-10-8.05a54.2 54.2 0 0 1 2.84-9.72c2.75-.92 5-3.32 6.05-5.15-.96.45-2.77 1.17-4.62 1.67l.53-1.18a13.72 13.72 0 0 0 6.4-5.74c-1.01.59-2.72 1.2-4.46 1.68A85.64 85.64 0 0 1 35 11h-7.6a92.14 92.14 0 0 0-2.84 6.81h-.03c-2.22-.23-3.52-.37-4 1.44-.35 1.34 1.1 2.19 2.6 2.6Zm2.27-.34c4.83 0 8.04-3.14 9.03-4.71-1.53.75-4.95 1.56-7.01 1.76-1.04 0-1.95-.08-2.72-.15-1.88-.17-2.98-.26-3.38 1.03-.46 1.48 2.72 2.12 4.08 2.07Zm-.02 1.98c2.17.05 5.38-.94 6.7-1.43-1.14 1.62-3.88 3.86-7.01 3.8-3.13-.06-4.76-1.09-3.85-2.26.49-.61.92-.53 1.82-.37.56.1 1.3.24 2.34.26Z" fill="#9F3235"/></svg>