<svg width="56" height="56" viewBox="0 0 56 56" xmlns="http://www.w3.org/2000/svg"><path fill="#A10B0F" d="M0 0h56v56H0z"/><path d="M13.34 23.43c.62-.62 1.8-1.32 3.95-1.75 3.16-.63 7.5-.44 12.2.91 4.7 1.36 8.56 3.53 11.02 5.8.4.37.75.73 1.05 1.07L44.1 28l-.84-1.5c-2.87-2.92-7.46-5.55-12.9-7.12-7.62-2.2-14.74-1.69-18.37.9l1.35 3.15Z" fill="#373435"/><path d="m37.62 29.05 2.65.26a13.52 13.52 0 0 0 0-2.62l-2.65.26c-.07-.7-.21-1.39-.41-2.05l2.55-.77c-.25-.85-.59-1.65-1-2.42l-2.35 1.26c-.33-.62-.72-1.2-1.16-1.74l2.06-1.69a13.4 13.4 0 0 0-1.85-1.85l-1.7 2.06c-.53-.44-1.11-.83-1.73-1.16l1.26-2.35c-.77-.41-1.57-.75-2.42-1l-.77 2.55c-.66-.2-1.35-.34-2.05-.4l.26-2.66a13.48 13.48 0 0 0-2.62 0l.26 2.65c-.7.07-1.39.21-2.05.41l-.77-2.55c-.84.25-1.65.59-2.42 1l1.26 2.35c-.62.33-1.2.72-1.74 1.16l-1.69-2.06c-.67.56-1.3 1.18-1.85 1.85l2.06 1.7c-.44.53-.83 1.11-1.16 1.73l-2.35-1.26c-.41.77-.75 1.57-1 2.42l2.55.77c-.2.66-.34 1.35-.4 2.05l-2.66-.26a13.48 13.48 0 0 0 0 2.62l2.65-.26c.07.7.21 1.39.41 2.05l-2.55.77c.25.85.59 1.65 1 2.42l2.35-1.26c.33.62.72 1.2 1.16 1.74l-2.06 1.69c.56.67 1.18 1.3 1.85 1.85l1.7-2.06c.53.44 1.11.83 1.73 1.16l-1.26 2.35c.77.41 1.58.75 2.42 1l.77-2.55c.66.2 1.35.34 2.05.4l-.26 2.66a13.48 13.48 0 0 0 2.62 0l-.26-2.65c.7-.07 1.39-.21 2.05-.41l.77 2.55c.85-.25 1.65-.59 2.42-1l-1.26-2.35c.62-.33 1.2-.72 1.74-1.16l1.69 2.06c.67-.56 1.3-1.18 1.85-1.85l-2.06-1.7c.44-.53.83-1.11 1.16-1.73l2.35 1.26c.41-.77.75-1.57 1-2.42l-2.55-.77c.2-.66.34-1.35.4-2.05Z" fill="#FFE34A"/><path d="M27 14.67V28l-9.23 5.35-.18-.32-2.35 1.26c-.41-.77-.75-1.57-1-2.42l2.55-.77c-.2-.66-.34-1.35-.4-2.05l-2.66.26a13.48 13.48 0 0 1 0-2.62l2.65.26c.07-.7.21-1.39.41-2.05l-2.55-.77c.25-.85.59-1.65 1-2.42l2.35 1.26c.33-.62.72-1.2 1.16-1.74l-2.06-1.69c.56-.67 1.18-1.3 1.85-1.85l1.7 2.06c.53-.44 1.11-.83 1.73-1.16l-1.26-2.35c.77-.41 1.58-.75 2.42-1l.77 2.55c.66-.2 1.35-.34 2.05-.4l-.26-2.66c.43-.04.87-.06 1.31-.06Z" fill="#1F51A1"/><path d="M38.8 34.21 27 28l-9.33 5.18c.32.56.68 1.1 1.08 1.59l-2.06 1.69c.56.67 1.18 1.3 1.85 1.85l1.7-2.06c.53.44 1.11.83 1.73 1.16l-1.26 2.35c.77.41 1.57.75 2.42 1l.77-2.55c.66.2 1.35.34 2.05.4l-.26 2.66a13.51 13.51 0 0 0 2.62 0l-.26-2.65c.7-.07 1.39-.21 2.05-.41l.77 2.55c.84-.25 1.65-.59 2.42-1l-1.26-2.35c.62-.33 1.2-.72 1.74-1.16l1.69 2.06c.67-.56 1.3-1.18 1.85-1.85l-2.06-1.7c.44-.53.83-1.11 1.16-1.73l2.35 1.26.04-.08Z" fill="#FE1D23"/><path d="m40.87 30.04-2.67-.26c-.05.29-.1.58-.18.87l2.57.78-.19.64c-.27.88-.62 1.73-1.05 2.53l-.32.59-2.36-1.27-.5.74 2.08 1.7-.43.52c-.58.71-1.23 1.36-1.94 1.94l-.51.43-1.7-2.08-.75.5 1.27 2.36-.59.32c-.8.43-1.65.78-2.53 1.05l-.64.2-.78-2.58c-.29.07-.58.13-.87.17l.26 2.68-.67.06a14.18 14.18 0 0 1-2.74 0l-.67-.06.26-2.67c-.29-.05-.58-.1-.87-.18l-.78 2.57-.64-.19c-.88-.27-1.73-.62-2.53-1.05l-.59-.32 1.27-2.36-.74-.5-1.7 2.08-.52-.43c-.71-.58-1.36-1.23-1.94-1.94l-.43-.51 2.08-1.7-.5-.75-2.36 1.27-.32-.59c-.43-.8-.78-1.65-1.05-2.53l-.2-.64 2.58-.78-.18-.87-2.67.26-.06-.67a14.18 14.18 0 0 1 0-2.74l.06-.67 2.67.26c.05-.29.1-.58.18-.87l-2.57-.78.19-.64c.27-.88.62-1.73 1.05-2.53l.32-.59 2.36 1.27.5-.74-2.08-1.7.43-.52c.58-.71 1.23-1.36 1.94-1.94l.51-.43 1.7 2.08.75-.5-1.27-2.36.59-.32c.8-.43 1.65-.78 2.53-1.05l.64-.2.78 2.58.87-.18-.26-2.67.67-.06a14.18 14.18 0 0 1 2.74 0l.67.06-.26 2.67c.29.05.58.1.87.18l.78-2.57.64.19c.88.27 1.73.62 2.53 1.05l.59.32-1.27 2.36.74.5 1.7-2.08.52.43c.71.58 1.36 1.23 1.94 1.94l.43.51-2.08 1.7.5.75 2.36-1.27.32.59c.43.8.78 1.65 1.05 2.53l.2.64-2.58.78c.07.29.13.58.17.87l2.68-.26.06.67a14.18 14.18 0 0 1 0 2.74l-.06.67Zm-3.25-3.09c-.07-.7-.21-1.39-.41-2.05l2.55-.77a13.32 13.32 0 0 0-1-2.42l-2.35 1.26c-.33-.62-.72-1.2-1.16-1.74l2.06-1.69a13.44 13.44 0 0 0-1.85-1.85l-1.7 2.06a10.69 10.69 0 0 0-1.73-1.16l1.26-2.35a13.2 13.2 0 0 0-2.42-1l-.77 2.55c-.66-.2-1.35-.34-2.05-.4l.26-2.66a13.25 13.25 0 0 0-2.62 0l.26 2.65c-.7.07-1.39.21-2.05.41l-.77-2.55a13.32 13.32 0 0 0-2.42 1l1.26 2.35c-.62.33-1.2.72-1.74 1.16l-1.69-2.06a13.5 13.5 0 0 0-1.85 1.85l2.06 1.7a10.69 10.69 0 0 0-1.16 1.73l-2.35-1.26a13.2 13.2 0 0 0-1 2.42l2.55.77c-.2.66-.34 1.35-.4 2.05l-2.66-.26a13.25 13.25 0 0 0 0 2.62l2.65-.26c.07.7.21 1.39.41 2.05l-2.55.77a13.32 13.32 0 0 0 1 2.42l2.35-1.26c.33.62.72 1.2 1.16 1.74l-2.06 1.69a13.5 13.5 0 0 0 1.85 1.85l1.7-2.06c.53.44 1.11.83 1.73 1.16l-1.26 2.35a13.2 13.2 0 0 0 2.42 1l.77-2.55c.66.2 1.35.34 2.05.4l-.26 2.66a13.38 13.38 0 0 0 2.62 0l-.26-2.65c.7-.07 1.39-.21 2.05-.41l.77 2.55a13.32 13.32 0 0 0 2.42-1l-1.26-2.35c.62-.33 1.2-.72 1.74-1.16l1.69 2.06a13.5 13.5 0 0 0 1.85-1.85l-2.06-1.7a10.69 10.69 0 0 0 1.16-1.73l2.35 1.26a13.2 13.2 0 0 0 1-2.42l-2.55-.77c.2-.66.34-1.35.4-2.05l2.66.26a13.38 13.38 0 0 0 0-2.62l-2.65.26Z" fill="#fff"/><path d="M41.56 29.46c1.66 1.87 1.84 3.21 1.68 3.84-.17.68-1.16 2-4.53 2.69-3.16.63-7.5.44-12.2-.92-4.7-1.35-8.56-3.52-11.02-5.79-2.63-2.42-2.91-4.17-2.73-4.9.06-.27.25-.63.65-1.02l-.75-3.5a6.01 6.01 0 0 0-3.02 3.68c-1.3 5.22 5.87 11.82 16 14.74 10.15 2.93 19.42 1.07 20.72-4.15.6-2.42-.61-5.13-3.1-7.64L44.1 28l-2.54 1.46Z" fill="#373435"/><path d="M17.34 18.29c-4.1.67-7.01 2.49-7.7 5.25-1.3 5.22 5.87 11.82 16 14.74 10.15 2.93 19.42 1.07 20.72-4.15.83-3.33-1.78-7.2-6.4-10.35l-.1-.67c1.15.76 2.2 1.57 3.11 2.41 2.94 2.7 4.58 5.84 3.86 8.73-.72 2.9-3.61 4.74-7.42 5.5-3.84.77-8.77.5-13.9-.99-5.12-1.47-9.52-3.89-12.48-6.62-2.94-2.7-4.58-5.84-3.86-8.72.72-2.9 3.61-4.74 7.42-5.5.4-.08.81-.15 1.23-.2l-.48.57Zm-3.95 5.1c-.39.37-.57.72-.63.98-.19.74.1 2.49 2.73 4.91 2.46 2.27 6.32 4.44 11.02 5.8 4.7 1.35 9.04 1.54 12.2.9 3.37-.67 4.36-2 4.53-2.68.17-.69-.06-2.25-2.22-4.42l.13.62-.17.05c1.81 1.94 1.9 3.21 1.79 3.62-.1.4-.85 1.66-4.16 2.33-3.06.61-7.33.43-11.97-.91-4.64-1.34-8.43-3.48-10.82-5.68-2.59-2.38-2.7-3.96-2.59-4.41.02-.09.07-.2.16-.34v-.77Z" fill="#fff"/></svg>