<svg width="56" height="56" viewBox="0 0 56 56" xmlns="http://www.w3.org/2000/svg"><path fill="#F0F3FA" d="M0 0h56v56H0z"/><path fill-rule="evenodd" d="M48 18H8v20h40V18Zm-1 10-19-9-19 9 19 9 19-9Z" fill="#02418A" fill-opacity=".5"/><path d="M36 32h-2v-8h2v8ZM29.5 32c-2.04 0-3.5-1.71-3.5-4.02 0-2.42 1.54-3.98 3.61-3.98 1.72 0 3.07 1.03 3.39 3h-2c-.16-.7-.77-.94-1.43-.94-.9 0-1.57.64-1.57 1.92 0 1.3.71 1.96 1.6 1.96.65 0 1.26-.25 1.4-.94H33c-.3 1.93-1.85 3-3.5 3ZM26 32h-2.33l-1.73-3-.94 1.12V32h-2v-8h2v3.13L23.44 24H26l-2.43 3.27L26 32Z" fill="#02418A"/></svg>