<svg xmlns="http://www.w3.org/2000/svg" width="56" height="56"><path fill="#E7E514" d="M0 0h56v56H0z"/><path d="M28.82 31.65l-2.75-6.26a2.28 2.28 0 00-.6-.8c-.16-.1-.51-.13-.51-.36 0-.15.15-.23.35-.23a17.44 17.44 0 002.92.03c.2-.02.59-.07.59.2 0 .17-.14.22-.28.28-.2.08-.4.23-.4.46 0 .12.08.34.2.63l1.4 3.6c.05.18.25.14.32 0l1.43-3.27c.15-.34.31-.85.04-1.17-.21-.22-1-.25-1-.58 0-.06.03-.11.08-.15.05-.04.37-.03.46-.02.7.06 1.27.07 1.86-.01h.14c.19 0 .23.04.23.18 0 .23-.3.33-.45.44-.32.28-.46.73-.64 1.1L29.82 31c-.14.29-.24.61-.44.86-.08.1-.16.14-.25.14-.13 0-.2-.07-.31-.35zm9.43-7.64v.6c-.17-.06-.36-.1-.58-.1-.71 0-.67.43-.67 1.08v1.09c0 .58.24.73.76.73.18 0 .34-.02.49-.04v.72c-.28-.05-.85-.09-1.08.09-.06.06-.17.22-.17.5v1.87c0 .4.14.65.29.76.25.2.65.13.96.1V32h-3.76a.24.24 0 01-.24-.24c0-.29.38-.33.54-.54.07-.1.12-.22.15-.36.04-.15.06-.42.06-.8v-4.2c0-.33-.03-.58-.08-.75-.13-.43-.37-.56-.78-.64-.07-.02-.14-.1-.14-.21 0-.2.22-.24.37-.21l.74.05c.68.04 1.37 0 2.05-.06a15.14 15.14 0 011.09-.03zM17 30.06v-4.28c0-.34-.04-.59-.08-.75-.13-.44-.36-.53-.77-.61-.08-.02-.15-.13-.15-.2 0-.15.12-.22.31-.22l.2.02c.45.04.87.04 1.28.04.44 0 .88 0 1.34-.04.17-.02.42-.04.46.01.05.04.07.1.07.16 0 .27-.25.25-.41.4a.6.6 0 00-.18.29c-.04.1-.07.32-.07.64v1.9c0 .22.18.19.3.07l1.88-1.83c.23-.2.4-.37.5-.5.09-.14.14-.27.14-.38 0-.25-.25-.3-.44-.33-.18-.05-.27-.13-.27-.24 0-.15.07-.2.27-.21l.33.02.96.03c.38 0 .77-.05 1.15-.05.11 0 .2.01.24.04.04.03.07.08.07.16 0 .29-.34.27-.54.38-.55.24-1.08.65-1.5 1.07l-.91.89c-.2.15-.2.28-.07.5l2.35 3.81c.23.32.41.48.63.58.16.07.49.09.49.3 0 .2-.23.27-.5.27H22.3c-.1 0-.22-.06-.35-.17a3.45 3.45 0 01-.46-.6l-1.71-2.92c-.07-.1-.2-.22-.33-.1l-.27.24c-.12.11-.17.2-.17.37v1.55c0 .3.04.5.1.64.14.27.24.4.53.48.16.03.41.09.41.29 0 .31-.36.22-.6.23H16.9l-.4-.01c-.12 0-.24-.08-.24-.2 0-.16.05-.23.15-.31a.7.7 0 00.38-.27c.26-.3.22-.8.22-1.16zM38.25 32v-.6c.8-.1 1.22-.9 1.22-1.63 0-.75-.44-1.53-1.22-1.68v-.72c.58-.12.83-.62.83-1.2 0-.64-.2-1.29-.83-1.55V24c.8.02 1.43.18 1.88.48.5.33.73.79.73 1.37 0 .44-.13.8-.4 1.08-.28.27-.68.47-1.23.6.76.03 1.32.32 1.69.62.36.3.55.75.55 1.34 0 .84-.3 1.45-.92 1.85-.52.35-1.29.6-2.3.65z"/><path d="M21.39 15.61c6.5-5 15.93-3.83 21 2.6a14.68 14.68 0 01-2.63 20.73l-.57.42c6-5.09 6.97-14.05 2.06-20.28a15.11 15.11 0 00-20.41-3.01c.17-.16.36-.3.55-.46z" fill="#00854A"/><path d="M17.11 13.83a18.51 18.51 0 0123.23.54 16.98 16.98 0 00-20.57.1 16.42 16.42 0 00-3.05 23.18c5.63 7.15 16.19 8.4 23.5 2.78 2.85-2.19 4.8-5.11 5.78-8.28a18.14 18.14 0 01-6.57 10.02c-7.98 6.12-19.5 4.76-25.64-3.05a17.92 17.92 0 013.32-25.29z" fill="#00854A"/></svg>