<svg width="56" height="56" viewBox="0 0 56 56" xmlns="http://www.w3.org/2000/svg"><path fill="#F0F3FA" d="M0 0h56v56H0z"/><path d="M32.28 33.13 35.18 23H38l-4.34 13.12c-.1.29-.23.6-.39.92a3.9 3.9 0 0 1-.61.94 2.98 2.98 0 0 1-2.4 1.02c-.23 0-.45-.02-.63-.05a7.6 7.6 0 0 1-.6-.14v-2.09l.24.02a3.27 3.27 0 0 0 1.2-.14c.25-.1.45-.24.6-.45.17-.2.3-.48.4-.8l.8-2.22ZM30.85 23l2.44 8.4.43 2.93-1.81.35L28 23h2.85ZM24 31.5v-4.82c0-1.04-.44-1.68-1.5-1.68-.84 0-1.75.38-1.75 1.3h-2.52c0-2.22 2.4-3.3 4.31-3.3 2.24 0 3.96 1.32 3.96 3.68v4.62c0 .84.13 1.94.5 2.7h-2.5c-.3-.69-.5-1.76-.5-2.5Zm.42-4.16.02 1.54c-.85 0-1.79-.1-2.62.13-.78.2-1.3.8-1.3 1.62 0 .85.66 1.38 1.48 1.38.95 0 2.17-.65 2.22-1.73l.73 1.12c-.1.27-.22.55-.4.85A3.53 3.53 0 0 1 21.49 34C19.67 34 18 32.74 18 30.83c0-3.46 3.88-3.49 6.42-3.49ZM45 31.5v-4.82c0-1.04-.44-1.68-1.5-1.68-.84 0-1.75.38-1.75 1.3h-2.52c0-2.22 2.4-3.3 4.31-3.3 2.24 0 3.96 1.32 3.96 3.68v4.62c0 .84.13 1.94.5 2.7h-2.5c-.3-.69-.5-1.76-.5-2.5Zm.42-4.16.02 1.54c-.85 0-1.79-.1-2.62.13-.78.2-1.3.8-1.3 1.62 0 .85.66 1.38 1.48 1.38.95 0 2.17-.65 2.22-1.73l.73 1.12c-.1.27-.22.55-.4.85A3.53 3.53 0 0 1 42.49 34C40.67 34 39 32.74 39 30.83c0-3.46 3.88-3.49 6.42-3.49ZM10.5 19v15H8V19h2.5Zm6.5 4-4.72 5.6-2.32 2.53-.76-2 1.8-2.42L14.1 23H17Zm-2.78 11-3.16-4.92 1.6-1.67L17 34h-2.78Z" fill="#B17358"/></svg>