<svg xmlns="http://www.w3.org/2000/svg" width="56" height="56" viewBox="0 0 56 56"><path fill="#F0F3FA" d="M0 0h56v56H0z"/><path fill-rule="evenodd" d="M27.8 13H13v30h30V13H27.8zm-5.08 1H14v9.57a15.3 15.3 0 0 1 3.63-6.18A14.6 14.6 0 0 1 22.72 14zM14 28v.5h14V42c1.84 0 3.58-.35 5.28-1.03 1.7-.68 3.24-1.67 4.53-2.92a13.48 13.48 0 0 0 3.04-4.38c.63-1.49.99-3.07 1.05-4.67a.49.49 0 0 0-.49-.5H28V28H14zm14 0h13.46c.28 0 .5-.22.5-.5a14.15 14.15 0 0 0-4.1-9.44 14.03 14.03 0 0 0-9.86-4.1V28zm-14 4.77V42h8.63A14.61 14.61 0 0 1 14 32.77z" fill="#EE3124"/></svg>