<svg xmlns="http://www.w3.org/2000/svg" width="56" height="56"><path fill="#F0F3FA" d="M0 0h56v56H0z"/><path d="M21.73 18L19 27.03 22 38h-5l-2-8.57V38h-5V18h5v7.77L17 18h4.74zM23 18h5v20h-5V18z" fill="#0A1C63"/><path d="M33 26h-7v4h7v-4z" fill="#FFE406"/><path d="M33 34h-7v4h7v-4z" fill="#3C7FBE"/><path d="M33 18h-7v4h7v-4z" fill="#ED0400"/><path d="M41 31v1.3c0 .75.14 2.7-1 2.7-1.1 0-1-1.76-1-2.51v-8.9c0-.8-.12-2.59 1.04-2.59 1.08 0 .96 1.69.96 2.43V25h5c0-2.38-.06-4.8-2.38-6.15a7.28 7.28 0 00-3.7-.85c-1.8 0-3.79.55-4.91 2.06-1.1 1.48-1.01 3.36-1.01 5.11v5.6c0 4.16 1.3 7.23 6.07 7.23 2.12 0 4.74-.92 5.5-3.13.27-.78.42-2.06.43-3.87h-5z" fill="#0A1C63"/></svg>