<svg width="56" height="56" viewBox="0 0 56 56" xmlns="http://www.w3.org/2000/svg"><path fill="#F0F3FA" d="M0 0h56v56H0z"/><path fill="#8EA6A6" d="M16 15h24v29H16z"/><path d="M40 27.45v.8a6.4 6.4 0 0 1-1.82 1.07 109139.93 109139.93 0 0 0-20.12 8.09v-.03l1-2.74a.13.13 0 0 1 .09-.08 2486.14 2486.14 0 0 0 18.24-5.7c.48-.16.95-.34 1.42-.54.5-.2.9-.5 1.19-.87Z" fill="#F0F3FA"/><path d="M16 12v20.8c.15 0 .62-.1 1.25-.48.63-.39.72-1.57.68-2.1l1.52-1.06.74 1.74 1.07 1.2c.52-.17 1.67-.54 2.14-.75.48-.2.67-1.4.71-1.96l1.1-.43-.45 1.94c.72-.23 2.32-.72 2.93-.86.77-.17.88 0 1.27-.23.32-.18.45-.99.5-1.25L31.1 28h1.13c.2.2.63.65.76.83.14.18.9.07 1.27 0l.54-1.11.79-1.4.79.22.17 1.63.82-.6.43-2.01h1.34l-.7 2.01L40 26.53V12H16Z" fill="#002671"/><path fill-rule="evenodd" d="M40 27.14v-.64c-.31.12-.6.3-.89.56-.03.02-.07.03-.11.02a.12.12 0 0 1-.1-.07c-.05-.14 0-.37.15-.7.11-.26.23-.48.36-.65a.47.47 0 0 1 .15-.1l.03-.03c.04-.02.05-.05.03-.1l-.21-.45c-.03-.04-.06-.06-.11-.05l-.75.19c-.04.01-.07 0-.09-.05a.17.17 0 0 1-.01-.08c0-.05-.02-.07-.08-.05-.22.07-.45.12-.7.12-.05 0-.07.03-.08.08-.1.46-.18.9-.28 1.32-.1.47-.25.86-.43 1.18-.02.04-.05.05-.1.04a.11.11 0 0 1-.06-.05.12.12 0 0 1-.02-.08v-.02c.05-.37.1-.64.14-.8l.35-1.15c.02-.06 0-.09-.07-.08l-.9.12a.06.06 0 0 0-.05.04.07.07 0 0 0 0 .06c.04.06.05.12.05.19 0 .06-.03.08-.08.05a.82.82 0 0 0-.7-.02c-.21.08-.4.23-.56.46-.4.54-.59 1.1-.59 1.68a.2.2 0 0 1-.04.12c-.33.42-.7.45-1.12.08a.09.09 0 0 1-.03-.1c.01-.03.03-.05.07-.06l.07-.02c.05 0 .1-.03.13-.05.42-.3.67-.68.74-1.17a.77.77 0 0 0-.03-.4.41.41 0 0 0-.2-.23.57.57 0 0 0-.32-.05.97.97 0 0 0-.37.13c-.12.07-.14.04-.07-.08.46-.77.57-1.57.33-2.41-.03-.11-.1-.18-.19-.21-.1-.03-.18 0-.27.07a.77.77 0 0 0-.2.28c-.2.5-.38 1-.54 1.52a9.22 9.22 0 0 0-.33 1.88c0 .04-.02.07-.06.08l-.4.14c-.02.01-.04 0-.06-.01a.06.06 0 0 1-.01-.06c.05-.22.23-.51.52-.87v-.02c0-.01 0-.02-.02-.02l-.93-.04-.01.01c-.1.18-.17.37-.22.56-.06.25-.18.45-.35.61a1.3 1.3 0 0 1-.64.3c-.04.02-.06 0-.07-.03a.55.55 0 0 0-.21-.32.37.37 0 0 0-.3-.05c-.1.02-.2.08-.29.17-.08.1-.14.21-.18.34-.07.31.03.53.3.66.06.02.07.06.06.11a1.6 1.6 0 0 1-.21.46.17.17 0 0 1-.24.04c-.15-.11-.23-.3-.23-.55 0-.22.04-.42.13-.6l.27-.46c.04-.06.04-.12 0-.17a.16.16 0 0 0-.2-.06c-.67.36-1 .92-1 1.7a.2.2 0 0 1-.03.13c-.09.12-.18.21-.28.28-.13.1-.25.13-.35.1a.4.4 0 0 1-.22-.22.35.35 0 0 1 0-.31c.44-.94.71-1.92.82-2.93.02-.23 0-.45-.06-.66a.24.24 0 0 0-.14-.16.24.24 0 0 0-.2 0 .58.58 0 0 0-.22.2 2.45 2.45 0 0 0-.2.33 5.38 5.38 0 0 0-.72 3.13c0 .18-.04.32-.08.44-.1.25-.28.47-.56.64a.09.09 0 0 1-.1 0 .09.09 0 0 1-.04-.1c.05-.33.17-.62.36-.86.04-.05.05-.1.02-.16l-.25-.55c-.02-.06-.06-.07-.12-.05-.16.07-.33.1-.52.12a.2.2 0 0 1-.08 0c-.03-.01-.05-.03-.05-.06a.07.07 0 0 0-.02-.05.07.07 0 0 0-.06-.02l-.8.15c-.05 0-.08.04-.08.1a6.1 6.1 0 0 1-.55 2.34c-.02.04-.04.05-.08.05a.09.09 0 0 1-.09-.06.46.46 0 0 1-.02-.23c.1-.63.2-1.24.32-1.83.01-.06-.01-.08-.07-.07l-1.07.27c-.07.02-.08.05-.02.1l.09.07c.03.03.05.07.04.11l-.2 1.43a.62.62 0 0 1-.13.33.4.4 0 0 1-.3.16c-.42 0-.71-.2-.88-.61l-.46-1.27a.21.21 0 0 0-.08-.1l-.12-.08c-.05-.03-.05-.07 0-.1.27-.24.51-.48.71-.73l1.24-1.56a4.6 4.6 0 0 1 1.04-1c.45-.29.88-.44 1.32-.44.05 0 .1.02.14.05.04.04.06.08.07.13l.06.3c.01.05.04.09.07.1.15.1.31.1.49.02a.64.64 0 0 0 .2-.15c.06-.07.1-.14.13-.22.2-.75-.02-1.24-.67-1.48a1.34 1.34 0 0 0-.52-.07c-.19 0-.36.04-.52.1l-.23.09c-.35.12-.6.23-.74.32-.45.28-.83.65-1.15 1.11-.46.66-.92 1.33-1.37 2.02-.22.33-.5.66-.82.97-.19.18-.41.3-.67.37l-.06-.01a.06.06 0 0 1-.02-.06l.51-3.13c.01-.04 0-.06-.05-.06l-.48-.02c-.05 0-.1.02-.12.06-.24.31-.45.5-.64.6-.24.1-.51.08-.82-.08-.05-.02-.08-.01-.09.04l-.34 1.5c-.01.07.02.11.1.1a2.2 2.2 0 0 0 1.36-.6c.08-.06.12-.04.1.07a20.2 20.2 0 0 1-.67 3.08c-.29.93-.8 1.4-1.53 1.4v2.04a2.9 2.9 0 0 0 2.02-1.95c.12-.37.3-1.1.52-2.19.02-.05.05-.08.1-.07.28.03.52-.04.72-.2.04-.04.06-.03.08.01.1.2.18.44.25.7a13.54 13.54 0 0 1 .22.99c.06.3.17.57.32.8.2.28.42.42.69.43.23 0 .43-.04.62-.15.16-.1.32-.24.46-.44.04-.04.07-.05.11-.02.31.24.65.22 1-.05.15-.1.28-.24.42-.42.1-.15.2-.3.3-.48.2-.43.4-.97.57-1.62a.12.12 0 0 1 .09-.1l.14-.04c.06-.02.08 0 .05.06-.27.44-.44.93-.5 1.46-.02.16 0 .3.05.42s.13.2.23.26c.1.05.22.07.35.06a.84.84 0 0 0 .38-.14c.3-.2.57-.48.78-.81.05-.08.09-.08.11.01.07.22.19.35.37.4.22.05.47-.02.72-.23.21-.16.39-.37.52-.61.03-.05.05-.05.07 0l.05.13a.3.3 0 0 0 .08.11c.12.1.24.15.36.16.35.02.65-.1.89-.33.22-.21.37-.5.46-.87 0-.02.02-.02.03-.02.02 0 .03.01.03.03-.02.29.07.49.27.6.1.06.2.09.3.1.12 0 .24-.02.36-.06.34-.12.59-.37.73-.74.12-.31.16-.67.13-1.08 0-.04 0-.07.04-.09a.6.6 0 0 1 .2-.08c.05 0 .08.01.07.07l-.2 1.55c-.01.02 0 .04.01.06.02.01.04.02.06 0l.78-.26c.02 0 .04-.02.05-.04a.08.08 0 0 0 0-.07l-.1-.3c-.03-.08 0-.1.07-.05.12.07.23.13.35.16.68.22 1.23.06 1.64-.48.03-.03.05-.03.08 0a.9.9 0 0 0 .74.26.93.93 0 0 0 .39-.13 1 1 0 0 0 .31-.29c.04-.05.08-.05.12 0 .15.19.35.24.6.16.12-.04.25-.16.4-.38.48-.71.77-1.47.88-2.28a.1.1 0 0 1 .07-.08l.35-.1c.03 0 .04 0 .06.02v.06a2.54 2.54 0 0 0-.5 1.53c.01.22.06.38.16.5.09.11.2.17.35.18.14.02.28-.01.43-.08.15-.07.28-.16.4-.29.23-.25.48-.48.74-.68Zm-7.2-1.53c-.08.2-.1.38-.07.4.03 0 .12-.15.18-.36.07-.2.1-.38.07-.4-.04 0-.12.15-.19.36Zm2.86 1.38c.09.02.17.02.27 0 .02-.01.04 0 .06.02v.06c-.15.25-.37.44-.66.55a.14.14 0 0 1-.13 0 .15.15 0 0 1-.07-.12c-.04-.31.08-.59.38-.82.08-.05.12-.04.15.05.01.05 0 .1-.04.13-.06.07-.05.11.04.13Zm-9.06 1.14c-.04 0-.03-.24.02-.51.05-.28.13-.5.17-.49.04.01.03.24-.02.52-.06.27-.13.5-.17.48Zm6.12-.67a.35.35 0 0 0-.1.06c-.02.02-.04.02-.05 0l-.02-.03a.7.7 0 0 1 .27-.16c.18-.06.25.01.2.2 0 .05-.04.08-.09.08-.04 0-.08-.02-.1-.06l-.01-.05a.07.07 0 0 0-.04-.04h-.06Zm-3.42.8c-.03-.04-.06-.05-.1-.02-.04.03-.04.06 0 .08.02.03.05.03.08.01.03-.01.04-.03.02-.06Zm.85.58c-.11-.02-.2 0-.27.05a2 2 0 0 0-.18.27c-.04.08-.05.07-.04-.01l.06-.44c0-.05.04-.09.08-.11l.6-.24c.08-.03.12 0 .12.08 0 .3-.04.54-.12.74a.13.13 0 0 1-.1.08c-.05.01-.07 0-.07-.06v-.27c0-.05-.03-.08-.08-.09Z" fill="#F0F3FA"/></svg>