<svg xmlns="http://www.w3.org/2000/svg" width="56" height="56"><path fill="url(#a3mzny2nc)" d="M0 0h56v56H0z"/><path d="M15.53 23h-4.4L7 33h4.43l1.8-4.33 4.4 4.33h5.5l-5.24-4.98L26 23h-5.65l-6.47 4 1.65-4z" fill="#fff"/><path d="M33.65 23.01H41L40.05 25h-5.86c-2.92.04-4.18 1.52-4.44 2h9.7l-.93 2h-9.8c-.53 1.11.71 2 1.49 2h7.63l-.93 2h-8.19c-2.17 0-6.13-1.45-4.21-5.4 1.91-3.94 6.9-4.7 9.14-4.59zM48 23h-4.54l-4.1 10h4.52L48 23z" fill="#fff"/><defs><linearGradient id="a3mzny2nc" x1="28" y1="0" x2="28" y2="56" gradientUnits="userSpaceOnUse"><stop stop-color="#1660AB"/><stop offset=".51" stop-color="#26B8EB"/><stop offset="1" stop-color="#1660AB"/></linearGradient></defs></svg>