<svg width="56" height="56" viewBox="0 0 56 56" xmlns="http://www.w3.org/2000/svg"><path d="M0 28a28 28 0 1 1 56 0 28 28 0 1 1-56 0Z" fill="#F0F3FA"/><path d="M12.69 22a.54.54 0 0 0-.43.21l-4.12 5.43a.53.53 0 0 0-.13.26.52.52 0 0 0 .12.44l4.13 5.45c.1.13.26.21.43.21h2.55c.29 0 .46-.32.29-.55L11.5 28l4.03-5.44c.17-.23 0-.55-.29-.55h-2.55Z" fill="#312783"/><path d="M5.48 22c-.26 0-.48.23-.48.52v10.96c0 .29.22.52.48.52h2.04c.26 0 .48-.23.48-.52v-3.92c-.33-.4-.75-.97-.75-1.41 0-.43.43-.94.75-1.3v-4.33c0-.29-.22-.52-.48-.52H5.48Z" fill="#DF1723"/><path d="m14.6 31 1.17-5h1.73l-.33 1.37.96-1.37H20l-1.7 2.06.75 2.94h-2l-.12-1.3c0-.26-.15-.24-.22-.2l-.33 1.5H14.6ZM24.6 26h-4.18l-1.15 5h4.18l.27-1H21.3l.27-1h2.04l.25-1H21.8l.23-1h2.23l.34-1ZM27.35 25.85c.8.03 1.46.2 1.68.27l-.4 1.05c-1.6-.53-2.05.24-1.03.89.82.51.98 1.07.96 1.29.03 1.17-1.4 1.62-2.6 1.65a7.38 7.38 0 0 1-2.19-.3l.37-1.16c1.13.65 1.82.35 1.98 0 .07-.15.02-.5-.54-.9-.68-.5-.76-.96-.76-1.23.08-1.25 1.54-1.6 2.53-1.56Z" fill="#312783"/><path fill-rule="evenodd" d="M29.2 30.18c.84 1.04 2.66 1.1 4.05.13 1.4-.97 1.84-2.6 1-3.64-.85-1.04-2.67-1.1-4.06-.13-1.4.97-1.84 2.6-1 3.64Zm1.9-.42c.6.23 1.34-.18 1.68-.92.33-.74.13-1.52-.45-1.75-.58-.23-1.33.18-1.67.92-.34.74-.14 1.52.45 1.75Z" fill="#312783"/><path d="m35.32 26-1.08 5h1.82l.74-3.73c.31-.05.94-.04 1 .37.05.42-.53.56-.8.59V31h1.98l-.53-2.23a1.46 1.46 0 0 0 1.12-1.31c-.05-1.16-1.02-1.46-1.5-1.46h-2.75ZM39.31 31l2.66-5h1.84l.65 5h-1.8v-1.3h-1.02L41.1 31H39.3Zm2.82-2.44h.52v-1.22l-.52 1.22ZM45.85 26l-1.08 5h1.57l.37-1.8.32 1.8h1.53l1.07-1.8-.36 1.8h1.58L52 26h-1.96l-1.76 2.67-.55-2.67h-1.88Z" fill="#312783"/></svg>