<svg width="56" height="56" viewBox="0 0 56 56" xmlns="http://www.w3.org/2000/svg"><path fill="#F0F3FA" d="M0 0h56v56H0z"/><path fill-rule="evenodd" d="M4.59 24.3H4V24h3v.3h-.74c-.2 0-.26.18-.26.4v2.62l2.78-2.92V24h1.78v.28h-.27c-.37 0-.72.16-.99.45L6.6 27.6l3.35 3.66c.24.26.57.41.91.41V32H9.32L6 28.33v3c0 .21.06.39.26.39H7V32H4v-.28h.59c.2 0 .41-.18.41-.39v-6.64c0-.21-.22-.39-.41-.39Zm6.41 0V24h5.4l-.32 1.8h-.3v-.82c0-.38-.27-.68-.61-.68H13v3.3h1.76c.29 0 .52-.26.52-.59v-.56h.25v2.7h-.25v-.53c0-.33-.23-.62-.52-.62H13v3.7h2.3c.28 0 .53-.22.6-.53l.23-1.17h.37l-.17 2H11v-.3h.54c.24 0 .46-.22.46-.5v-6.42c0-.27-.22-.48-.46-.48H11Zm34.96-.3v.3h.6c.26 0 .44.21.44.48v6.43c0 .27-.18.48-.45.48h-.59V32h5.86l.18-1.92h-.4l-.26 1.1a.68.68 0 0 1-.66.51H48V28h2.14c.33 0 .59.28.59.6v.53h.28v-2.7h-.28V27c0 .32-.26.58-.6.58H48V24.3h2.54c.37 0 .67.3.67.68v.82h.33l.35-1.8h-5.93Zm-23.93 8h-2.98v-.37h.6c.24 0 .35-.21.35-.48V28.7l-1.68-3.52a1 1 0 0 0-.9-.6h-.2v-.3l1.56-.29 1.85 4.17L22.8 24h.86v.29h-.2L21 28.4v2.75c0 .27.2.48.43.48h.6V32Zm2.2 0h2.25v-.32h-.58c-.19 0-.4-.17-.4-.38v-6.03L30.13 32H31v-7.3c0-.21.18-.38.37-.38h.49V24H29.7v.32h.46c.19 0 .33.17.33.38v6.02L25.9 24h-1.68v.32h.44c.2 0 .34.17.34.38v6.6c0 .21-.15.38-.34.38h-.44V32Zm11.52 0c2.07 0 3.75-1.8 3.75-4s-1.68-4-3.75-4C33.68 24 32 25.8 32 28s1.68 4 3.75 4Zm.87-.57c1.44-.41 2.22-2.27 1.74-4.17-.48-1.89-2.04-3.1-3.48-2.69-1.44.41-2.22 2.27-1.74 4.17.48 1.89 2.04 3.1 3.48 2.69Zm3-5.65V24h5.73v1.78h-.3v-.46a.86.86 0 0 0-.84-.88H43v6.67c0 .32.27.58.58.58h.38V32h-2.92v-.31h.43c.31 0 .53-.26.53-.58v-6.67h-1.25c-.47 0-.85.4-.85.88v.46h-.28Z" fill="#EE2024"/></svg>