<svg width="56" height="56" viewBox="0 0 56 56" xmlns="http://www.w3.org/2000/svg"><path fill="#F0F3FA" d="M0 0h56v56H0z"/><path fill-rule="evenodd" d="M30.25 23.63a.38.38 0 0 1-.31-.2.37.37 0 0 1-.03-.38c.18-.37.1-.67-.23-.89a.87.87 0 0 0-.44-.15c-.18 0-.32.06-.4.18-.25.34-.5.4-.76.18a1.42 1.42 0 0 1-.14-.13c-.13-.15-.27-.23-.41-.24a.77.77 0 0 0-.43.11.77.77 0 0 0-.32.32c-.06.13-.06.29 0 .48.03.07.05.14.05.18.06.33-.12.52-.53.56-.16.02-.28.1-.36.26a.86.86 0 0 0-.1.46c.03.4.25.61.67.64.13.01.23.08.3.2.08.14.09.26.03.38-.18.37-.1.67.23.89.14.1.29.14.44.15.18 0 .32-.05.41-.18.24-.34.5-.4.75-.18l.14.14c.13.15.27.22.41.23.15 0 .3-.03.43-.11a.78.78 0 0 0 .32-.32c.06-.13.06-.29 0-.47a1.25 1.25 0 0 1-.05-.19c-.06-.33.12-.52.53-.56.16-.01.28-.1.36-.26.07-.14.1-.29.1-.46-.03-.4-.25-.61-.66-.64Zm-1.08 1.5c.23-.22.34-.49.34-.8 0-.32-.11-.58-.34-.8a1.1 1.1 0 0 0-.8-.34c-.31 0-.58.12-.8.34-.22.22-.33.48-.33.8 0 .31.1.58.33.8.22.22.49.33.8.33.32 0 .58-.11.8-.33Zm-.8.07a.88.88 0 1 0 0-1.75.88.88 0 0 0 0 1.75Zm11.46 5.09-.17.08c-.66.3-1.36.63-2.1.63a2.6 2.6 0 0 1-1.76-.73c-.04-.04-.09-.04-.14 0-.54.39-1.14.73-1.8.73-.73 0-1.32-.41-1.91-.83l-.27-.18c-.09-.06-.17-.06-.25.01-.63.6-1.3 1-2.01 1-.45 0-.92-.27-1.34-.51a10.3 10.3 0 0 0-.33-.19c-.13-.07-.32-.05-.55.07l-.32.17c-.43.23-.83.46-1.34.46-.56 0-1.1-.26-1.6-.63-.08-.06-.2-.05-.37.01l-.44.2c-.43.21-.85.42-1.33.42-.56 0-1.06-.26-1.54-.52l-.26-.14c-.1-.05-.23-.04-.37.02-.15.07-.3.16-.44.25-.3.2-.62.39-.97.39-.65 0-1.16-.58-1.62-1.1-.16-.19-.3-.36-.46-.5a1.13 1.13 0 0 0-.72-.35c-.38-.01-.68.2-.9.65 0 .03-.14.3-.4.82-.16.32-.43.48-.82.48h-.95c-.09 0-.18-.06-.27-.18-.1-.14-.19-.26-.24-.36a.25.25 0 0 0-.15-.13.26.26 0 0 0-.2.02l-.39.2c-.4.22-.83.45-1.25.45-.83 0-1.41-.63-1.95-1.22l-.34-.36c-.07-.07-.18-.08-.32 0-.16.07-.3.21-.45.41a.15.15 0 0 0-.03.09c-.01.25-.03.43-.05.55-.1.39-.37.53-.74.53H4.82c-.43 0-.81-.2-.81-.68v-5.55c0-.34.18-.77.56-.77h1.74c.47 0 .71.3.69.75V26.93c0 .06 0 .1.05.12.07.03.13.03.19 0 .43-.28.86-.57 1.3-.88l.01-.02c.09-.06.2-.15.35-.15h1.84c.17 0 .28.11.33.18.05.07.06.16.02.29-.02.06-.08.13-.17.2a72.19 72.19 0 0 0-1.28 1.05c-.1.12-.1.23.03.33l.61.5c.29.2.54.3.75.28.25-.03.43-.12.53-.27.1-.16.16-.37.16-.62l.08-3.25a1 1 0 0 1 .18-.48c.1-.15.26-.22.5-.2h.92l.24-.01c.31 0 .54.08.67.16.17.11.24.3.24.6l-.08 1.89c0 .05.02.09.05.13.03.03.08.05.13.06.08 0 .15-.02.2-.06.2-.15.43-.3.7-.48.34-.2.7-.3 1.07-.26.25.02.5.15.78.39.24.2.42.44.56.69.23.44.4.92.53 1.42.03.11.08.24.16.37.04.06.1.1.17.09a.18.18 0 0 0 .18-.1.51.51 0 0 0 .06-.2c.02-.4.15-.78.4-1.13a3.1 3.1 0 0 1 1.41-1.17c.59-.24 1.2-.37 1.85-.4a45.1 45.1 0 0 1 2.1 0c.22 0 .42.04.62.12.23.09.39.22.48.38.04.08.06.23.07.46l.03 1.58c0 .18.03.3.08.37.09.11.22.16.4.17.22 0 .37-.08.46-.23a.96.96 0 0 0 .07-.43v-.1c0-.22 0-.38.03-.47.03-.16.1-.29.21-.38.07-.07.21-.1.41-.1.89-.02 1.45-.01 1.7.03.21.03.32.18.33.43v.57c0 .14.03.25.1.32.12.1.22.18.31.2.48.15.82.03 1-.35.06-.12.1-.34.12-.66v-.08c.02-.2-.09-.32-.32-.36a12.7 12.7 0 0 1-.37-.06c-.14-.03-.2-.1-.2-.24 0-.21.02-.42.03-.62 0-.19.04-.35.11-.48a.09.09 0 0 1 .08-.05h.53c.07 0 .13-.02.17-.07.05-.05.07-.1.07-.17l.01-.63c.03-.3.15-.47.38-.54.06-.02.26-.03.6-.05.44-.02.86 0 1.23.05.24.04.36.19.37.45l.03.73c0 .12.06.18.18.19l.64.03c.1 0 .17.04.23.1a.3.3 0 0 1 .08.24l-.05.8a.3.3 0 0 1-.09.2.32.32 0 0 1-.2.1l-.6.03c-.2-.01-.32.1-.34.31-.06.87.1 1.34.5 1.4.32.06.6-.04.84-.29.09-.1.15-.23.18-.4 0-.08.04-.22.1-.42.24-.84.8-1.42 1.67-1.76.44-.16.86-.3 1.26-.3 1.1-.02 1.99-.02 2.83-.02.42 0 .66.23.82.57.06.12.1.35.1.68 0 .15 0 .38.02.71.01.3.05.5.12.61.15.23.4.3.73.21.2-.06.32-.2.33-.42.01-.2.02-.68.01-1.44 0-.26.08-.5.24-.7.1-.15.24-.2.43-.22h1.38c.43.02.65.18.66.6 0 .08.02.16.04.22.02.04.05.07.1.09.06 0 .1 0 .14-.04.49-.45.9-.73 1.22-.83.6-.19 1.16-.05 1.67.4.44.4.69.95.94 1.5.24.52.47 1.03.85 1.41.08.09.21.13.38.14.1 0 .26 0 .46-.02.06-.01.1 0 .14.05.03.04.04.1.02.14-.12.29-.27.53-.43.72-.32.37-.71.58-1.18.62-.46 0-.88-.09-1.24-.41l-1.05-.96c-.32-.3-.68-.52-1.07-.48-.53.05-.62.47-.71.89-.06.26-.12.53-.3.72a.74.74 0 0 1-.33.18c-.13.04-.27.06-.42.06-.67 0-1.17-.02-1.5-.07-.09 0-.2-.19-.33-.4l-.05-.08a2.04 2.04 0 0 0-.05-.08.1.1 0 0 0-.08-.04.49.49 0 0 0-.28.03l-.3.16c-.4.24-.82.48-1.29.48-.45 0-.86-.25-1.22-.54-.06-.06-.14-.11-.23-.17a.1.1 0 0 0-.1 0Zm-1-1.33c.35-.07.6-.3.74-.67.06-.17.09-.37.06-.61-.01-.2-.08-.3-.19-.33-.59-.14-1.04.02-1.37.46a.9.9 0 0 0-.18.47c-.02.23.03.4.16.5a.9.9 0 0 0 .77.18ZM23.3 28.5c.12-.26.15-.54.07-.84a.17.17 0 0 0-.12-.14 1.3 1.3 0 0 0-1.08.13c-.34.2-.5.47-.52.8-.02.37.14.58.47.65.55.1.94-.1 1.18-.6Z" fill="#F33"/></svg>