<svg width="56" height="56" viewBox="0 0 56 56" xmlns="http://www.w3.org/2000/svg"><path fill="#F0F3FA" d="M0 0h56v56H0z"/><path d="m29.24 15.04-15.1 18.83c-.02.03-.05.04-.08.03-.04-.01-.05-.03-.05-.07V15.07c0-.04.02-.07.07-.07h15.13c.02 0 .04 0 .06-.03l3.69-4.76c.03-.04.02-.07-.02-.1l-1.06-.6c-.02 0-.03-.03-.03-.06s.02-.05.05-.06l3.88-1.38c.05-.02.08 0 .1.06l.54 3.96c0 .03 0 .05-.03.07a.07.07 0 0 1-.08 0l-1.1-.68c-.03-.02-.06-.02-.09.02l-2.67 3.54a.07.07 0 0 1-.06.03h-3.1c-.02 0-.04 0-.05.03Z" fill="#085B9A"/><path d="M26.83 22.11c1.11-1.46 2.94-3.78 5.5-6.99a.31.31 0 0 1 .25-.12h6.8c.4 0 .42.06.02.19a37.76 37.76 0 0 0-6.05 2.49 27.44 27.44 0 0 0-5.97 3.97c-.17.16-.34.34-.5.56-.03.02-.05.02-.06-.01a.08.08 0 0 1 0-.09Z" fill="#085B9A"/><path d="M34.86 41.76a14.35 14.35 0 0 0 3.44-3.9c.34-.56.6-1.17.76-1.8.17-.7.21-1.32.12-1.87a3.58 3.58 0 0 0-1.25-2.33 10.29 10.29 0 0 0-3.24-1.59c-.77-.23-1.93-.5-3.5-.8l-1.59-.3a9.46 9.46 0 0 1-1.03-.34c-.85-.31-1.43-.77-1.73-1.36-.32-.63-.28-1.34.12-2.13a8.17 8.17 0 0 1 2.18-2.55 28.89 28.89 0 0 1 5.12-3.29 66.08 66.08 0 0 1 7.62-3.35c.08-.03.12 0 .12.08v25.68c0 .05-.02.07-.07.07h-6.98c-.25 0-.28-.07-.09-.22Z" fill="#E0242D"/><path d="M25.14 24.07c.01-.02.02-.02.04-.01.01.01.02.02 0 .04-.11.2-.28.55-.5 1.05a3.4 3.4 0 0 0 .14 3.11c.64 1.17 2 2.01 4.05 2.52l1.32.32c1.2.29 2.07.51 2.6.66.82.24 1.6.52 2.36.84.9.38 1.5.83 1.77 1.32.68 1.18.3 2.67-1.15 4.47-.96 1.2-2.2 2.36-3.73 3.47a.97.97 0 0 1-.6.14c-1.17-.02-3.8-.03-7.86-.02a.77.77 0 0 1-.47-.15l-7.55-5.45c-.06-.05-.07-.1-.02-.16l9.6-12.15ZM14.13 38.51l4.92 3.32c.04.03.05.06.04.1-.02.03-.04.05-.08.05h-4.9c-.06 0-.1-.04-.1-.09v-3.31c0-.04 0-.06.04-.07a.08.08 0 0 1 .08 0Z" fill="#085B9A"/></svg>