<svg width="56" height="56" viewBox="0 0 56 56" xmlns="http://www.w3.org/2000/svg"><path fill="#F0F3FA" d="M0 0h56v56H0z"/><path d="M34.47 14h6.93l-2.3 2.53s1.27 1.31 1.94 2.96c.68 1.65.96 2.6.96 3 0 .39-.17 1.51-.17 1.51h-3.61s.05-3.82-.02-4.51c-.2-2.13-1.6-4.6-3.73-5.49Zm6.83 13h-5.23l.67-1.35V25h4.97l-.4 2Zm-.45 3h-5.63l.52-2h5.34l-.14 1.51-.1.49Zm-.62 3 .2-1.07.17-.93h-5.86l-.64 2h6.13Zm-.77 3 .52-1.44.13-.56h-6.26l-.58 2h6.19Zm-.96 3 .52-1.26.13-.74H32.9l-.58 2h6.19Zm-1.48 3 1.12-2h-6.18l-.6 2h5.66Zm-6.55 0H13l12.04-15.84s2.25 2.17 4.62 2.21a9.67 9.67 0 0 0 4.75-1.1c.72-.38 1.1-.64 1.1-.64L30.48 42Zm-2.5-25-1.54-2h5.13l-3.6 2Zm-2.92 7.56a6.78 6.78 0 0 0 5.53 2.87 6.84 6.84 0 0 0 6.83-6.84A7.14 7.14 0 0 0 32.98 14H26.1c-.1.14-.58 1-.27 1H15c-.63.45-1.09 1.46-1.46 2.15a1.89 1.89 0 1 1 .18 3.65s.18-.01.4.55c.22.57 1.28 1.57 1.28 1.57l2.57-.9 7.08 2.54Z" fill="#A40003"/></svg>