<svg width="56" height="56" viewBox="0 0 56 56" xmlns="http://www.w3.org/2000/svg"><path fill="#F0F3FA" d="M0 0h56v56H0z"/><circle cx="31.5" cy="15.5" r="5.5" fill="#C37B5A"/><path d="M31.66 23H23.5c-1.96-.04-2.85 2.19-1.43 3.54l2.74 2.48-9.18 9.24c-.85.85-.84 2.22.01 3.06l4.13 4.06c.84.83 2.2.82 3.02-.02l14.59-14.8c.84-.85.83-2.22-.03-3.06l-4.04-3.8a2.44 2.44 0 0 0-1.65-.7Z" fill="#26988A"/><path d="m24.81 29.02-9.18 9.24c-.85.85-.84 2.22.01 3.06l4.13 4.06c.84.83 2.2.82 3.02-.02l7.08-7.18a2.78 2.78 0 0 0 .02-3.87l-5.08-5.29Z" fill="url(#a1q2kblbm)"/><defs><linearGradient id="a1q2kblbm" x1="28.18" y1="32.72" x2="17.56" y2="43.13" gradientUnits="userSpaceOnUse"><stop stop-color="#0A3936"/><stop offset="1" stop-color="#26988A"/></linearGradient></defs></svg>