<svg xmlns="http://www.w3.org/2000/svg" width="56" height="56"><path d="M0 28a28 28 0 1156 0 28 28 0 01-56 0z" fill="url(#ahpqz0rk4)"/><path d="M35.07 20.93a15.65 15.65 0 00-.8 3.37c-.03.28-.07.52-.08.53-.03.03-.71.25-.76.25-.03 0 .03-.33.1-.49.08-.19.43-.69.6-.86l.12-.13-.2-.02-.73-.04c-.52-.02-.54-.02-.61.06-.08.08-.24.44-.37.83a1.92 1.92 0 01-1.32 1.29c-.35.11-.35.11-.37 0-.04-.14-.24-.4-.39-.48-.44-.26-.89.09-1.09.47-.23.45-.09 1 .4 1.2.15.07.15.09.05.4-.1.34-.33.57-.54.57-.17 0-.27-.07-.37-.25-.06-.11-.07-.21-.07-.62 0-.59.09-.92.3-1.17.3-.36.35-.45.35-.54 0-.58-.94.12-1.06.24a3.01 3.01 0 00-.94 2.06c0 .46-.75 1.1-1.19.73a.66.66 0 01-.14-.81 9.45 9.45 0 001.21-4.62c0-.45 0-.55-.08-.72-.38-.93-1.18.53-1.36.89a8.93 8.93 0 00-.96 3.84l-.06 1.13c-.07.4-.9 1.22-1.14 1.13-.18-.07.13-1.05.48-1.5a.49.49 0 00.09-.15c0-.06-.44-1-.48-1.01l-.47.1c-.72.17-.65.04-.65.04v-.14l-1.52.24-.07.35c-.25 1.81-.41 2.48-.71 3.09-.13.26-.2.34-.3.34-.22 0-.2-.41.14-2.02.14-.67.25-1.32.23-1.34a37.9 37.9 0 00-1.85.45c-.02.02.02.08.08.15.06.07.11.17.11.21 0 .04-.07.6-.17 1.25-.2 1.38-.22 1.44-.54 1.6-.44.23-.96.12-1.3-.27a3.59 3.59 0 01-.62-1.22 9.65 9.65 0 00-.53-1.28c-.11-.19-.36-.34-.36-.34l.34-.34c.47-.44 1.1-1.15 2.54-2.88 1.17-1.4 2.43-2.28 3.59-2.5.56-.1.73 0 .82.44.08.4.22.55.57.55.36 0 .84-.39 1-.8.42-1.1-.55-2.15-1.63-2.18a5.26 5.26 0 00-3.59 1.39c-.64.6-1.13 1.22-2.28 2.9-.77 1.13-1.75 3-3.25 3.24-.14.02-.15.02-.13-.06l.25-1.4.4-2.33.2-1.17h-1c-.26.41-.6.78-1.08.95-.31.11-.76.1-1.12-.02l-.28-.08c-.02.02-.57 2.4-.57 2.45 0 .04.06.04.32.02.7-.06 1.25-.27 1.85-.73.2-.15.35-.24.33-.2-.04.09-.2.9-.39 1.88-.5 2.62-.94 3.83-1.67 4.55-.35.35-.8.55-1.2.55h-.23l-.25.86a75.38 75.38 0 00-.67 2.4l.35-.06c1.68-.37 2.75-1.11 3.4-2.35.33-.64.49-1.14 1-3.2l.2-.82.04-.14h.27c.32 0 .59-.08.87-.27l.2-.13s.1.2.18.45c.16.43.4 1.33.6 2.22.13.56.28.93.5 1.24.49.68 1.15.86 1.89.52.28-.13.46-.25.8-.59l.28-.25c.2.25.46.36.8.3.8-.13 1.52-.79 2.07-1.9.28-.58.55-1.32.76-2.08l.08-.3.44-.1s0 .06-.05.12c-.25.4-.57 1.2-.7 1.77-.15.68-.04 1.24.31 1.46.88.57 1.98-.72 2.4-1.28l.2-.25.03.15c.09.49.52.76 1.04.66.17-.03.3-.08.51-.22.38-.26.8-.68.96-.97l.13-.24.04.17c.06.22.1.3.26.42.31.27.85.25 1.5-.05.75-.35 1.2-1.18 1.34-2.49.02-.2.05-.39.07-.4.01-.02.3-.12.62-.23l.58-.2.04.23c.04.28-.02.73-.13.93a.94.94 0 01-.2.24l-.11.1-.03-.3c-.02-.19-.05-.47-.3-.47-.47 0-.6.77-.6 1.1 0 1.43 2.08.94 2.57-.05.06-.13.14-.33.17-.45.08-.31.14-.98.12-1.28l-.03-.26.26-.08c.3-.08.3-.08.28-.02l-.13.82a466.87 466.87 0 01-.25 1.73c.01.01 1.17-.35 1.42-.44.03 0 .02-.12-.04-.37-.04-.2-.08-.36-.07-.37l.24.12c.4.2.67.28 1.15.3.74.04 1.14-.11 1.63-.61l.33-.32.08.13c.17.26.6.4 1.1.34.56-.07.91-.3 1.27-.72 0 0 .13.34.66.34 1.15 0 1.73-1.57 2.02-2.43.2-.57.34-1.16.45-1.75l.33-.08c.48-.12.49-.12.3.2-.45.73-1.05 1.84-.61 2.68.3.57.9.7 1.55.35.19-.1.39-.27.87-.75.35-.34.66-.63.7-.64.16-.06.18.15.05.43-.19.4-.68.77-1.56 1.2-1.18.58-2.22.94-4.98 1.75a1152.36 1152.36 0 00-3.95 1.16 2947.96 2947.96 0 00-22.33 6.64l-.43.13-.84 2.14a77.84 77.84 0 00-.83 2.16c.02.01.42-.14 2.7-1a1760.15 1760.15 0 016.55-2.51 4389.8 4389.8 0 0110.05-3.83c2.28-.87 3.8-1.46 6.31-2.47 2.47-1 3.84-1.53 5-1.96 1.8-.67 2.55-1 3.3-1.47a5.24 5.24 0 001.65-1.48c.38-.62.4-1.3.04-1.65-.36-.36-.94-.25-1.63.3-.49.39-.7.44-.76.17-.07-.3.27-1.19.65-1.74.14-.2.39-.45.48-.48.04-.01 0-.12-.15-.44-.2-.42-.2-.42-.32-.42-.1 0-1.03.2-1.28.27-.04.01-.06 0-.06-.03 0-.08-.04-.16-.07-.23l-1.18.19c-.11.02-.11.02-.22.48a37 37 0 01-.63 2.5c-.18.52-.31.8-.46.94-.1.1-.12.1-.18.04-.05-.05-.06-.12-.05-.34 0-.36.06-.61.38-1.61.23-.75.34-1.35.34-1.35l-1.59.23.05.3.02.2-.22-.08c-.27-.09-.7-.1-.96 0-.6.2-1.17.84-1.54 1.74a5.27 5.27 0 00-.35 1.38c-.02.29-.02.29-.2.46-.39.37-.82.45-1.24.25-.2-.1-.54-.38-.5-.42l.27-.15c.56-.29.96-.69 1.21-1.2.24-.48.28-.92.12-1.24-.25-.47-.74-.52-1.57-.17-.05.02-.03-.05.08-.22.35-.59.57-1.33.64-2.15.07-.82-.03-1.4-.3-1.67-.67-.71-1.36 1.52-1.45 1.79zm.91.68c-.03.23-.2.69-.36 1l-.11.2.02-.22c.04-.47.3-1.17.43-1.17.03 0 .04.06.02.2zm4.18 2.25c-.03.11-.05.22-.03.25.01.02.12.03.3.02.18 0 .29 0 .3.03.02.08-.3.49-.52.66-.43.3-.73.38-.83.2-.09-.18-.06-.48.06-.73.13-.24.37-.53.54-.63.21-.13.24 0 .18.2zm-14.42 2.17c-.28.4.2-1.75.35-1.75.12 0-.26 1.62-.35 1.75zm10.27-1.34c.04.07 0 .3-.08.4-.1.12-.2.07-.2-.11 0-.17-.05-.2-.28-.1l-.23.1-.1.04c.18-.19.47-.42.74-.4.06 0 .13.04.15.07zm-16.9.57l-.17 1.15 1.27-.14.17-1.12-1.28.11zm10.93.8c.04.03-.04.15-.1.15-.06 0-.1-.1-.08-.15.03-.04.14-.04.18 0z" fill="#fff"/><defs><linearGradient id="ahpqz0rk4" x1="10.42" y1="9.71" x2="68.15" y2="76.02" gradientUnits="userSpaceOnUse"><stop stop-color="#1A1E21"/><stop offset="1" stop-color="#06060A"/></linearGradient></defs></svg>