<svg width="56" height="56" viewBox="0 0 56 56" xmlns="http://www.w3.org/2000/svg"><path fill="#F0F3FA" d="M0 0h56v56H0z"/><path d="M5.03 24h-.57c-.25 0-.46.2-.46.45v7.1c0 .25.2.45.46.45h.57c.26 0 .46-.2.46-.45v-7.1c0-.25-.2-.45-.46-.45ZM7.57 29.03l-.77-.36a.97.97 0 0 1-.34-.32c-.27-.37-.14-.74.16-1.04.07-.06.13-.1.21-.14l6.45-3.02c.21-.1.45-.15.71-.15.28 0 .52.06.71.19.39.24.2.66-.14.82l-5.51 2.51c-.14.07-.63.3-.45.5.07.08.16.15.27.2l5.88 2.73c.33.16.56.55.2.82a.94.94 0 0 1-.44.22c-.33.04-.65-.02-.98-.17l-5.96-2.79ZM16.52 31.55v-7.1a.44.44 0 0 1 .14-.32.46.46 0 0 1 .32-.13h.57c.12 0 .24.05.33.13.09.09.12.2.12.32v7.1c0 .12-.04.23-.12.32a.47.47 0 0 1-.33.13h-.57a.47.47 0 0 1-.32-.13.45.45 0 0 1-.14-.32ZM22 28.48l5.29 2.45c.18.08.34.18.4.37.08.19.01.37-.15.49a.97.97 0 0 1-.39.19c-.33.06-.68 0-1.04-.17-1.83-.86-4.05-1.9-6.67-3.11a.86.86 0 0 1-.22-.15c-.42-.39-.4-.85 0-1.24.06-.06.13-.11.2-.14 2.1-.98 4.26-1.98 6.46-3.02.2-.1.43-.15.7-.15.41 0 1.14.2.87.74-.07.15-.23.24-.37.3l-5.55 2.54c-.1.05-.2.1-.28.18-.2.18-.03.34.14.42l.62.3ZM38.14 25.9c-.12-.3-.3-.5-.63-.5h-1.47a1102.54 1102.54 0 0 1-3.89-.01c-.4 0-1.61.02-1.6.64l.02 3.85c0 .34.4.5.68.56.43.1.88.13 1.36.12l.2.01a803.31 803.31 0 0 1 3.88.01c.3 0 .65.03.92 0 .18-.01.36-.25.46-.4l.36-.6c.07-.1.17-.24.31-.25.43-.03.82.05.9.53.01.05 0 .14-.04.26-.25.89-1 1.88-2.04 1.88a20708.73 20708.73 0 0 0-5.84-.02 3.82 3.82 0 0 1-1.87-.55c-.54-.32-.85-.75-.85-1.4V26.1c0-.2.02-.36.06-.5.1-.29.28-.55.56-.78a3.29 3.29 0 0 1 2.25-.81h5.29c.4 0 .68.07.84.1.99.2 1.77 1.07 1.63 2.11-.03.24-.15.33-.3.5a.25.25 0 0 1-.14.07c-.2.04-.46.05-.62-.1a.86.86 0 0 1-.2-.27l-.23-.52ZM43 24.4v5.58c-.03.25.03.62.23.62h8.18c.1 0 .17.01.22.03.07.03.13.09.16.17.09.19.12.4.1.65.01.12 0 .24-.04.36-.04.14-.14.19-.28.19h-8.83c-.57-.03-1.07-.18-1.18-.83a2.48 2.48 0 0 1-.03-.5v-5.8c-.01-.4.15-.86.62-.87h.4c.21.02.45.15.45.4Z" fill="#1A1A1A"/><path d="M51.9 31.57a1.4 1.4 0 0 0-.1-.66.32.32 0 0 0-.17-.17.58.58 0 0 0-.22-.04h-7.96c-.32 0-.45-.16-.45-.44v-5.9c0-.12-.23-.33-.43-.36h8.62c.32 0 .65.17.77.49.02.08.04.2.04.38v6.4c0 .1-.04.2-.1.3Z" fill="#F05A22"/></svg>