<svg xmlns="http://www.w3.org/2000/svg" width="56" height="56"><path fill="#F0F3FA" d="M0 0h56v56H0z"/><path d="M11 22H6v14h5v-4h1v-5h-1v-5z"/><path d="M21 18c-4.5 1.32-7.88 3.15-9 4.02v2.62c1.12-2.21 6.56-5.32 9-6.64z" fill="#0062AA"/><path fill-rule="evenodd" d="M11.44 28.83c-.24 6.22 3.04 9.17 4.79 10.09h6.2L21.2 38h2.58l1.48.92h9.59c-5.67-1.83-16.23-5.45-16.23-12.55 0-1.79 1.05-5.53 7.99-8.95l-1.02-.36c-6.64 2.53-13.94 6.15-14.15 11.77zm6.41-6.86a12.02 12.02 0 00-2.52 3.2h.74a35.8 35.8 0 011.78-3.2zm-2.7 3.61l.75.16c-.08.24-.23.78-.23.93h-.94c.05-.27.21-.86.42-1.1zm.44 1.7l-.94-.14c-.15.23-.14.78-.12 1.02l1.06.1v-.98zm-1.1 1.53l1.21.11c.1.23.31.77.5 1.09l-1.59-.11a7.51 7.51 0 01-.13-1.09zm2.14 1.94l-1.84-.22c.1.31.38.94.5 1.2h2.03c-.25-.3-.56-.78-.69-.98zm-1 1.45l2.1.12c.18.28.65.9.99 1.22H16.5a6.09 6.09 0 01-.88-1.34zm3.63 1.94l-2.32-.08c.41.55 1.13 1.26 1.44 1.55l2.43.06a17.05 17.05 0 01-1.55-1.53zM19 36.18l2.54.08c.33.3 1.09.96 1.51 1.25h-2.48c-.3-.2-1.02-.75-1.57-1.33z"/><path d="M20 27.79v3l1 1.38v-8.18c-.9.18-1.37 2.27-1.5 3.3l.5.5zm3 .17v-7c-.8.42-1.36 1.5-1.53 2.04H22v6l1-1.04zm2-2.56v-6.13a2.9 2.9 0 00-1.54 1.42l.54.3v5.45l1-1.04zm2-3.15v-4.36c-.76.3-1.28.86-1.56 1.42H26v2.94h1z"/><path d="M29 22h-3v13h3v-6.5l2 6.5h3V22h-3v5.78L29 22z" fill="#0062AA"/><path fill-rule="evenodd" d="M35 22h5.4c.65.13 2.2 1.3 2.2 4.38.03.96-.51 2.73-1.75 3.61L43 35h-3.66L38 31.02V35h-3V22zm3 3h1.12c.19.13.55.61.52 1.5-.04.89-.36 1.37-.52 1.5H38v-3z" fill="#0062AA"/><path d="M50 22.37a5.35 5.35 0 00-2.18-.37c-1.19-.02-4.82.81-4.82 6.48 0 5.66 3.63 6.52 4.82 6.52 1.02 0 1.9-.35 2.18-.53V30h-.55c-.31.6-.81 1-1.37 1-.95 0-1.72-1.12-1.72-2.5s.77-2.5 1.72-2.5c.56 0 1.06.4 1.37 1H50v-4.63z" fill="#0062AA"/></svg>