<svg xmlns="http://www.w3.org/2000/svg" width="56" height="56"><path fill="#F0F3FA" d="M0 0h56v56H0z"/><path d="M39.48 25.67a10.87 10.87 0 11-21.74 0 10.87 10.87 0 0121.74 0z" fill="url(#ag2nvpgfi)"/><path fill-rule="evenodd" d="M28.6 36.2a10.53 10.53 0 100-21.07 10.53 10.53 0 000 21.07zm0 .34a10.87 10.87 0 100-21.75 10.87 10.87 0 000 21.75z" fill="#24201D"/><path d="M39.94 25.67c0-2.03-.54-3.93-1.46-5.57l.59-.8a12.22 12.22 0 01-2.9 15.98H34.6c3.21-2 5.35-5.56 5.35-9.61zm-17.32 9.62a11.32 11.32 0 01-2.23-17.42l-.45-.85a12.22 12.22 0 001.1 18.26h1.58z" fill="#24201D"/><path d="M21.9 15.42v2.45h.28l-.4 1.14v1.2l1.36 2.1-.68 1.48c-.13-.4-.47-1.31-.74-1.77-.51.6-1.76 1.31-2.62.17.17-.41.9-1.15 2.45-.5a32.63 32.63 0 00-1.88-2.97l-.45-.74.74-.91.8 1.42.4-.5v-2.02l.73-.55zm-2 6.59c.23-.06.65-.16.85-.16-.4-.28-1.08-.18-1.3.23.18.3.74.73 1.47 0l-.05-.11-.93.2a.08.08 0 01-.1-.08c0-.04.03-.07.06-.08zm6.26-1.7c-.28.14-.89.43-1.02.29-.18-.17.45-.68 1.02-.29z" fill="#24201D"/><path fill-rule="evenodd" d="M18.06 27.57c1.74-1 2.96-2.17 3.57-2.96.5-.6.92-1.48 1.34-2.36.93-2 1.87-4 3.93-2.73l.17.1.76-.22-.35.5.52.34h-.76c-.11.13-.33.5-.29.95.02.2.1.64.18 1.16.1.6.21 1.32.28 1.87.3 2.26-.35 4.88-3.03 5.31-1.54.25-3.37-.03-4.23-.67-.43-.18-1.4 1.79-1.91 2.83-.14.27-.24.47-.3.56-.51.88-1.05 1.71-1.33 1.98-.64.62-2.73-.84-2.79-.9a4.72 4.72 0 010-1.56 40.78 40.78 0 012.37-1.58c.9-.57 1.82-1.14 2.51-1.94h2.2l-.6-.7.22-.12.52.57h.4l-.63-.68.23-.12.74.8h.28l-.8-.91c.57-.13 1.76-.63 1.94-1.86h.17c-.06.38-.2 1.1-.28 1.23.22-.05.7-.46.8-1.65h.78v.91c0 .17.25.33.34.06.1-.97-.1-3.02-1.65-3.47l-.05-.05c-.74 1.68-1.61 3.37-3 4.53-.52.45-1.11.77-1.77 1.13-.1.05-.13.1-.15.16-.03.05-.06.1-.16.17l-.18-.68zm5.79-6.53c-.05.3-.06.74.15 1.08.09.15.22.27.35.39.12.1.25.22.34.37.46.68.82 1.83.56 3.07-.3 1.45-1.59 2.17-2.81 2.4l-.54.02c-.29.12-.53.28-.64.38l.52.06c1.18.15 2.48.3 3.26-.68.6-.76.98-.95.98-.33 1.57-1 .93-4.7.88-4.98-.05-.22-.23-1.2-.26-1.72-.01-.17.05-.3.1-.43a.96.96 0 00.11-.28c.1-.41-.13-.74-.6-.95-1.16-.52-1.95.6-2.4 1.6zm-9.86 11.68l.64-.5c-.04-.36.49-.6.76-.67l-.3-.4-1.1.79v.78zm.47-.17c-.7.28-.74.59-.23.9-.08-.11-.24-.45.23-.9zm.93.4l-.58.72c.37.45.97.49 1.22.45l-.4-.5c-.38-.4.03-.36.28-.28v-.4h-.52zm.35-1.96l.29.05 1.04-.72-.23-.28-1.1.95zm-.4 1.06v.23h-.24v-.34h.23v-.11h.23v-.34h.24v.23h.29v-.45h.29v.45h.7v.55h-.18v.12h-1.34v-.34h-.23zm-.3 1h-.64c-.02.14-.01.42.18.51l.46-.5zm-.52-.22c.11-.18.44-.4.81 0h-.81z" fill="#24201D"/><path d="M37.6 17.3l-.57-.46.23 4.73-.46.5-.17 1.12h.69l.05-.54.23-.23v-.68h.4l1.48-2.4-.29-.22-1.19 1.6-.23-.35.74-1.14-.17-.17.46-.45-.17-.23-1.14 1.6.11-2.68zm-6.54 9.22h-.23v.23h.23v-.23zm-1.37.57h.23v.23h-.23v-.23zm-2.28 3.19v-.17h1.03v.17h.68v.34H28.1v-.34h-.69zm.86.57h.5v.1h.46v-.1c.27-.04.9-.14 1.09-.23h.22v.11l-.68.23h.28v.11h-1.87v-.22zm3.87 0h-.29v.22H33l.23-.22v-.12l-.8.12v.1h-.28v-.1zm-1.88-1.37v-.11h1.25v.1h.11v.12h-.56v.23h.8v.11h.45v.12h-.46v.11h-.8v-.11h-.22v-.23a1 1 0 00-.57-.34zm2.04-1.94h-.23v.23h.23v-.23z" fill="#24201D"/><path fill-rule="evenodd" d="M39.6 19.8l.22.29-1.93 2.67c.3-.05.93-.16 1.02-.11.1.04.11.25.11.34l-.74.8-.05.07c.69-.1 1.6-.13 1.02.44a2.1 2.1 0 01-1.6.64 6.35 6.35 0 00-.45 1.98c.06.05.17.26.17.62l.15.02c.37.03 1 .1.7 1.12-.33 1.2-.5 1.48-.73 1.65l-.23 1.26c-.43-.29-1.23-.47-1.6.4h-.28c.04.41-.37 1.38-1.78 1.38H33v1.93l-.86.44c.07-.38.12-1.22-.29-1.54h-.57v-.17h.57v-.4l-1.02-.05c-.15.07-.37.48 0 1.48 0 0-.25.02-.4 0v.45h-.17v.23h-.23l-.68-1.93h-.4l.63 2.39-1.31.11.05-1.25c.17-.27.39-1-.11-1.82h-1.08v-.46h.4c0-.28-.86-.76-1.09-.17 0 0-.45 1.4-.74 1.48-.39.11-1.42-.91-1.42-.91v1.2h-.57v-.28h.12v-1.03c-.4.22-1.34.46-1.88-.4.02-.46.28-1.44 1.2-1.71.24-.08.74-.24.79-.29.06-.05 0-.4-.97-.28-.77.1-.43-.46-.17-.74l2.1-.51 1.72-1.37.56-1.6.18-1.3h.85c.06.06.2.17.34.17l.3-.04c.26-.05.61-.11.84-.07.15.02.22.1.3.19.1.1.21.23.5.26.4.05 1.2.06 1.53.06l.06.28h.23c.02-.15.23-.42.9-.28.57.11.96.05 1.2.01a.73.73 0 01.29-.01c.07.02.15.08.25.14.15.1.32.22.49.26l.07.03c.24-.66.5-1.1.69-1.39h-.04c-.38.03-.82.07-1.06-.18-.36-.37-.46-1.25-.46-1.65 1.41-.1 1.96.45 2 .74-.16.24-.2.55-.2.8.07-.08.12-.12.14-.12.59-.27.96-1.02 1.08-1.36l1.88-2.45-.12-.06-1.3 1.7-.12-.1 1.6-2zm-2 4.21c0 .16.06.4.29 0 .19-.34.28-.45.4-.61l.22-.3c.25-.34-.2-.12-.37-.03-.54.28-.54.75-.54.94zm-1.42-.1l-1.03-.98c.3-.07.96-.08 1.14.52v.45h-.11zm-1.03-.46c.04.24.23.72.69.68v-.23a1.23 1.23 0 01-.57-.45h-.12zm3.7.8c-.27.31-.76.35-.96.33l.09-.12c.15-.21.27-.38.56-.44.26-.05.52-.02.31.22zM26.4 29.36c.13-.14.54-.38 1.14-.29.59.1 0 .4-.17.46l1.02.17c.04-.12.17-.34.4-.34.28 0 .57.22.51.34l-.1.1c-.2.14-.46.34.61.3l.74-.23v-.17c-.62 0-.9-.21-1-.35h-.02c-.03 0-.08-.03-.12-.05a.88.88 0 00-.28-.12c-.11 0-.03-.8.17-1.2.17-.33 0-.79-.17-.79 0 0 .06-.11.17-.17a.27.27 0 010-.23c.04.02.14.06.23.06h.07c.21 0 .36 0 .52.19.07.08.13.18.2.32.16.3.33.73.46 1.07l.17.41h.17l-.57-1.42c-.03-.08-.07-.27.12-.46v-.22l-.29-.06.17-.17-.11-.23h.34c.5-.25.94.28 1.14.68l-.51.4.34.34c-.47.73-.46 1.13-.46 1.5v.09h.69v.3h1.13c.04.14.27.4.86.22a7.5 7.5 0 001.42-.63v-.17c-.43.08-1.34.23-1.48.23v-.23h-.51v.23h-1.9c-.06-.9.46-1.54.46-1.54l-.23-.34.4.06c.06-.1.26-.18.45.01.25.25.44.63.61.99.08.17.16.34.25.48v.06c.22.02.73.04 1.3-.12.24-.06.49-.16.73-.25.42-.16.83-.32 1.15-.32.23.41.02.9-.11 1.09h-.74v.62h.28l-.22.68h-.63c-.02.2-.2.59-.74.63-.55.05-.57.4-.51.57H32.3V32h-1.82v-.19c0-.14.3-.21.3-.21v-.27h-.96v.27s.37-.03.37.27V32h-.57v-.59h-.85c-.83 0-1.1-.33-1.2-.46l-.05-.05c-.96-.04-.6-.43-.29-.62h-.85v-.17h.45v-.35l-.85-.05v-.17h.4v-.17zm6.37 0v-.07h.34v.07h-.34zm3.89-2.1c-.17.16-.5.4-.5 0 0-.28.24-.88.45-1.4.1-.24.2-.48.25-.64 0 0 .2.5 0 1.01s-.2 1.02-.2 1.02zm-12.72 4.16l.05.12-1.77 1.06c.07-.45.24-1.27 1.72-1.18zm-1.66 1.26c1.1.6 2.02-.14 1.74-1.04l-1.74 1.04zm2.75-.34h-.07c-.4.3-.32 1.08.4 1.3l-.33-1.3zm.1 0c1.24.1.37 1.27.34 1.32l-.33-1.31z" fill="#24201D"/><path d="M22.48 14.37l.67 1.15-.18.1-.67-1.16a3.07 3.07 0 00-.08-.14l-.07-.15c-.04-.1-.06-.23.03-.34.08-.1.23-.15.45-.18.23-.03.55-.03 1.01-.01h.06l.7 1.3-.18.1-.64-1.2a5.46 5.46 0 00-.92.01c-.22.03-.3.08-.33.11-.01.02-.02.06 0 .14l.07.12.02.04.06.1z" fill="#24201D"/><path d="M23.98 13.64l-1.83 1.06-.1-.18 1.83-1.06.1.18zm-.58.67c.17-.06.38-.1.53-.1v.21c-.13 0-.32.03-.47.08-.16.06-.2.13-.2.16s.02.08.1.11c.12.07.39.06.57-.3l.18.09c-.22.45-.6.52-.85.4-.12-.06-.21-.18-.2-.32.02-.15.14-.26.33-.33zm1.27-.04a2.7 2.7 0 00-.08.1l-.17-.11.1-.12.08-.11.02-.02h-.04c-.18-.06-.3-.13-.35-.21l-.01-.01a.26.26 0 01-.01-.2.32.32 0 01.11-.15c.1-.08.23-.11.36-.12.17 0 .3.04.36.17a.3.3 0 010 .18.73.73 0 01-.07.18c.11 0 .24 0 .39-.02l.02.2a2.7 2.7 0 01-.54.02 3.84 3.84 0 01-.17.22zm.07-.44l.06-.09a.54.54 0 00.04-.12v-.06s0-.04-.16-.03a.45.45 0 00-.24.07.12.12 0 00-.04.05v.04a.5.5 0 00.23.11l.11.03zm1.5-.78l.29 1.34-.2.05-.29-1.35.2-.04z" fill="#24201D"/><path d="M25.56 13.47c.22-.05.5-.02.72.08l-.09.19a.93.93 0 00-.58-.07.39.39 0 00-.2.1.15.15 0 00-.04.14c.02.07.08.15.23.16.14.01.37-.05.67-.3l.13.14c-.32.28-.6.38-.82.37-.22-.02-.37-.16-.4-.33a.36.36 0 01.08-.32.59.59 0 01.3-.16zm5.28-.3c-2.77-.58-5 0-5.62.28l-.08-.19c.66-.3 2.93-.87 5.74-.3l-.04.2z" fill="#24201D"/><path d="M26.81 14.33l-.2-1.34.2-.03.2 1.34-.2.03z" fill="#24201D"/><path d="M28.25 13.35v-.57h.2v1.44h-.2v-.67h-.9l.6.6-.15.14-.94-.94h.62v-.47h.2v.47h.57zm.68.87v-1.44h.2v1.44h-.2zm1.54-1.25c0-.4-.29-.62-.42-.67l.08-.2c.18.08.54.36.54.87 0 .2-.06 1.17-.1 1.46l-.2-.03.04-.47a.72.72 0 01-.27.05.44.44 0 01-.33-.14.7.7 0 01-.15-.3 1.15 1.15 0 01-.03-.23l-.24-.05.04-.2.97.2-.04.2-.52-.1.02.13a.5.5 0 00.1.2c.05.06.1.09.19.1.07 0 .16-.03.28-.09l.04-.73zm4.03 1.4c-.84-.41-1.85-.82-2.8-1.01l.04-.2c.98.2 2 .6 2.85 1.03.84.43 1.52.86 1.82 1.11l-.13.16c-.28-.24-.95-.67-1.79-1.09z" fill="#24201D"/><path fill-rule="evenodd" d="M33.66 13.37c-.05.01-.13.07-.2.3l-.48 1.45-.2-.06.48-1.45c.08-.24.2-.4.36-.44.17-.03.32.07.45.18.25.24.49.66.59.9l.01.05-.54 1.31-.19-.08.34-.82a.69.69 0 00-.37-.15c-.09 0-.15.05-.2.13a.98.98 0 00-.07.6l-.19.06a1.18 1.18 0 01.1-.76.42.42 0 01.35-.23.8.8 0 01.46.16l.1-.22c-.1-.24-.32-.6-.53-.8-.12-.1-.2-.14-.27-.13zm-1.74.36a.74.74 0 01.21-.45l.15.15a.54.54 0 00-.16.31c0 .12.03.26.23.4l.1.03.24-.65.19.06-.48 1.35-.2-.07.19-.5-.08-.03-.63.37-.1-.18.54-.31a.58.58 0 01-.2-.48zm2.9 1.38c-.06.02-.1.05-.11.1-.02.09 0 .14.02.18a.3.3 0 00.17.1c.14.05.32.05.44.04l.03-.07a.31.31 0 00-.09-.17.63.63 0 00-.23-.15.43.43 0 00-.24-.03zm.68.13a.83.83 0 00-.39-.3.63.63 0 00-.35-.02.33.33 0 00-.25.24.4.4 0 00.06.35c.06.09.16.14.26.18.13.03.26.05.38.05l-.26.45.17.1.37-.62c.13.02.2.06.23.1.04.04.05.09.04.15a.46.46 0 01-.1.19.66.66 0 01-.14.15l.11.17a.86.86 0 00.2-.2.66.66 0 00.13-.28c.02-.1 0-.22-.1-.32a.59.59 0 00-.26-.15l.25-.44-.17-.1-.18.3z" fill="#24201D"/><path d="M29.32 37.95a.92.92 0 11-1.83 0 .92.92 0 011.83 0zM12.9 36.43v.1c.13.01.19.1.19.24v1.89c0 .14-.06.23-.18.23V39h1.01v-.1c-.11-.01-.17-.1-.17-.24v-.9l.14-.17c.27.52.37.95.37 1.13 0 .12-.04.17-.13.17V39h1.05v-.1c-.2-.01-.2-.13-.26-.35a4.27 4.27 0 00-.62-1.46l.14-.15c.25-.28.45-.4.59-.4v-.1h-.81v.1c.06 0 .09.03.09.08s-.05.1-.1.18l-.46.55v-.58c0-.15.06-.23.17-.23v-.1h-1.01zm2.82 1.32c0 .78.45 1.25 1.16 1.25.3 0 .6-.12.82-.35.21-.23.34-.56.34-.93 0-.81-.45-1.29-1.13-1.29-.7 0-1.2.52-1.2 1.32zm1.13-1.09c.33 0 .49.43.49 1.3 0 .54-.14.8-.44.8-.33 0-.5-.42-.5-1.29 0-.54.15-.8.45-.8zm1.91-.23v.1c.11.01.18.09.18.24v1.89c0 .14-.07.23-.18.23V39h1.37c.06 0 .12 0 .17.05l.24-1.04h-.04c-.18.5-.44.77-.7.77-.16 0-.2-.1-.2-.3v-1.71c0-.15.05-.23.17-.24v-.1h-1.01zm2.04-.06l-.14.81.04.01c.1-.34.3-.52.6-.53v2c0 .14-.06.23-.18.23V39h1.01v-.1c-.11-.01-.17-.1-.17-.24v-2c.3 0 .5.2.6.53l.03-.01-.12-.8c-.05.05-.1.05-.18.05h-1.33c-.07 0-.12 0-.17-.06zm3.3.76v-.21c0-.2 0-.28.23-.28.33 0 .58.2.67.57l.05-.01-.12-.83c-.05.05-.11.06-.2.06h-1.48v.1c.12.01.18.1.18.24v1.89c0 .14-.06.23-.18.23V39h1.4c.17 0 .27 0 .32.06l.25-.93-.04-.01c-.2.45-.49.67-.83.67-.25 0-.26-.11-.26-.36v-1.08h.1c.27 0 .4.11.46.38h.05l-.09-.87h-.05c-.01.2-.1.27-.3.27h-.17zm8.14-.71v.1c.12 0 .18.09.18.23v1.9c0 .15-.06.24-.18.24V39h1.02v-.1c-.12-.01-.17-.1-.17-.24v-.96c.77-.16 1.15-.46 1.15-.87 0-.34-.2-.41-.64-.41h-1.36zm.85 1.05v-.6c0-.17.03-.24.2-.24.2 0 .3.09.3.28 0 .28-.18.49-.5.56zm2.01-1.01v.1c.04 0 .07.03.07.08l-.03.16-.47 1.67c-.08.26-.13.41-.27.42V39h.67v-.1c-.1-.01-.14-.06-.14-.16 0-.06.01-.12.03-.17l.15-.63c.45.02.76.4.76.78 0 .12-.05.17-.13.17V39h.96v-.1c-.12-.01-.15-.1-.2-.28l-.45-1.83a.78.78 0 01-.02-.14c0-.06.02-.1.07-.1v-.1h-1zm.32.34l.27 1.1a.67.67 0 00-.5-.19h-.02l.25-.91zm1.7-.44l-.13.81.04.01c.1-.34.3-.52.6-.53v2c0 .15-.06.24-.18.24V39h1.01v-.1c-.11-.01-.17-.1-.17-.24v-2.01c.3 0 .5.2.59.53l.04-.01-.13-.8c-.04.05-.1.05-.17.05h-1.33c-.07 0-.13 0-.17-.06zm2.47.06v.1c.11.01.17.1.17.24v1.9c0 .14-.06.23-.18.23V39h1.01v-.1c-.11-.01-.17-.1-.17-.24v-1.9c0-.15.06-.23.18-.23v-.1h-1.01zm1.81 0v.1c.11.01.17.1.17.24v1.9c0 .14-.06.23-.18.23V39h1.37c.07 0 .12 0 .17.05l.25-1.04h-.04c-.18.5-.45.77-.7.77-.17 0-.2-.1-.2-.3v-1.72c0-.15.05-.23.17-.23v-.1h-1.02z" fill="#24201D"/><path d="M21.44 34.44h-9.42c-.56 0-1.02.45-1.02 1V40c0 .56.46 1.01 1.02 1.01H44A1 1 0 0045 40v-4.55a1 1 0 00-1-1h-8.17c-.44.37-1.01.7-1.5 1H44v4.57H12v-4.56h10.93c-.5-.3-1.05-.64-1.49-1.02z" fill="#24201D"/><defs><linearGradient id="ag2nvpgfi" x1="28.61" y1="14.79" x2="28.61" y2="36.54" gradientUnits="userSpaceOnUse"><stop stop-color="#FFD904"/><stop offset="1" stop-color="#F26720"/></linearGradient></defs></svg>