<svg width="56" height="56" viewBox="0 0 56 56" xmlns="http://www.w3.org/2000/svg"><path fill="#F0F3FA" d="M0 0h56v56H0z"/><path fill-rule="evenodd" d="M6.31 22 4 32h2.86l.64-2.85.98-.93L9.78 32h3.06l-2.16-5.88L15 22h-3.38l-3.25 3.32.76-3.32H6.3Zm10.36 10c-1.14.05-3.53-.55-3.4-2.91.17-3.08 2.66-4.09 4.7-4.09 2.46 0 3.3 1.85 3.3 2.92 0 1.07-.89 4.08-4.6 4.08Zm.1-2.01c-.33-.03-.97-.38-.71-1.4.33-1.33 1.14-1.66 1.73-1.58.71.1.79.94.69 1.4-.1.46-.63 1.73-1.7 1.58Zm5.07.18.93-3.67h-.99l.36-1.5h1l.5-2h2.59l-.5 2h1.03l-.37 1.5h-1.05l-.76 3c-.07.25.14.5.41.5h.64l-.48 1.87c-.25.04-.9.13-1.42.13-1.9 0-2.05-1.22-1.89-1.83Zm6.1-7.17-2.32 9h2.64l1.1-4.3c.24-.35.61-.68 1.1-.68.82 0 .82.74.72 1.1l-1 3.88h2.67l.85-3.58c.4-2.16.15-3.42-1.65-3.42-1.1 0-1.86.52-2.25.97l.75-2.97h-2.62Zm9.38 4h-2.56c.12-.74 1.07-2 3.95-2 3.15 0 3.3 1.65 2.98 2.47l-.93 3.3c-.21.76.09 1.13.27 1.23h-2.78v-.85a5.4 5.4 0 0 1-2.5.85c-1.62 0-2.04-1.07-2.05-1.6 0-2.34 2.74-2.6 4.17-2.73l.5-.05c1.14-.16.96-1.1 0-1.1-.78 0-1.02.25-1.05.48Zm-.16 3.44c1.19 0 1.53-1.04 1.56-1.56l-.97.2-.1.03c-.5.13-1.24.31-1.24.82 0 .44.5.52.75.51Zm10.49-5.39-.65 2.5c-.59-.18-1.78-.2-2.33.97l-.8 3.48h-2.56l1.76-7h2.4l-.27 1.2c.48-.64 1.32-1.41 2.45-1.15Zm.72-.05-1.9 7h2.8l1.66-7h-2.56Z" fill="#2E2F7A"/><path fill-rule="evenodd" d="M48 24h3.17l.83-3h-3.2l-.8 3Zm3.65-2.74h-2.63l-.71 2.5h2.68l.66-2.5Z" fill="#737070"/><path d="M48.79 19c.26.96.94 1.76 1.87 2.2a3.5 3.5 0 0 0-2.28 1.8 3.43 3.43 0 0 0-1.87-2.2 3.5 3.5 0 0 0 2.28-1.8Z" fill="#84C125"/></svg>