<svg xmlns="http://www.w3.org/2000/svg" width="56" height="56"><path fill="#F0F3FA" d="M0 0h56v56H0z"/><path d="M9 26.37v-4c-.04-.63-.2-.93-.81-1.06a1.8 1.8 0 00-.46-.05c-.07 0-.23-.04-.23-.11 0-.11.18-.15.38-.15h3.82c.2 0 .3.04.3.15 0 .07-.07.1-.15.1-.13 0-.4.03-.62.06-.5.1-.65.41-.69 1.06-.04.6-.04 1.11-.04 4v1.11h.08c.31-.35 3.67-3.76 4.33-4.48.52-.54 1-1.02 1-1.33 0-.23-.1-.34-.24-.4-.1-.03-.17-.07-.17-.14 0-.1.1-.13.23-.13h3c.2 0 .27.04.27.13 0 .1-.03.13-.18.13-.28 0-.5.1-.87.26-.76.33-1.17.8-2 1.6-.46.44-3.69 3.58-4.07 4.05.48.53 4.33 4.52 5.09 5.22 1.55 1.44 1.87 1.74 2.76 2.11a3 3 0 001.04.24c.13 0 .23.04.23.11 0 .1-.07.15-.38.15h-2.13c-.99-.1-1.45-.54-2.24-1.17a95.22 95.22 0 01-5.65-6.02h-.1v1.82c0 1.78 0 3.24.1 4.02.05.54.16.94.72 1.02.15.04.68.02.68.18 0 .1-.09.15-.29.15H7.77c-.2 0-.27-.05-.27-.14 0-.1.19-.07.36-.1.17-.02.24 0 .53-.1.3-.08.47-.47.54-1.01.1-.78.07-2.24.07-4.02v-3.26z" fill="url(#agwz0usik)"/><path d="M24.43 26.37c0-2.9.04-3.37 0-4-.04-.63-.17-.93-.78-1.06a2.04 2.04 0 00-.49-.05c-.07 0-.16-.04-.16-.11 0-.11.11-.15.31-.15h4.28C29.9 21 32 22 32 24.58 32 27.5 30.22 29 27.6 29c-.12 0-.6.03-.6-.16 0-.15.11-.17.5-.17 1.8 0 3.02-1.63 3.02-3.34 0-.6-.06-1.85-1.04-2.85s-2.1-.92-2.53-.92c-.32 0-.63.03-.8.1-.11.04-.15.16-.15.34v7.63c0 1.78 0 3.24.1 4.02.05.54.16.94.72 1.02.26.03.87.07 1.04.07.1 0 .14.11.14.11 0 .1-.09.15-.3.15h-4.4c-.2 0-.3-.04-.3-.15 0-.05.04-.1.15-.1.17 0 .47-.05.63-.08.37-.08.5-.48.58-1.02.1-.78.07-2.15.07-4.02v-3.26z" fill="url(#bgwz0usik)"/><path d="M38 26.37v-4c0-.62-.22-.92-.83-1.05a2.25 2.25 0 00-.5-.05c-.08 0-.17-.04-.17-.11 0-.12.11-.16.31-.16h4.04c1.15 0 2.49.12 3.46.82a3.24 3.24 0 011.27 2.52c0 1.37-.57 2.74-2.23 4.27 1.51 1.94 2.76 3.59 3.83 4.74 1 1.05 1.39 1.25 1.85 1.33.35.05.7.05.8.05.1 0 .17.06.17.11 0 .11-.32.16-.66.16H48c-.92 0-1.03-.1-1.41-.36a15.78 15.78 0 01-2.48-2.72c-.78-1.02-1.64-2.26-2-2.74-.08-.07-.14-.18-.25-.18H39.6c-.1 0-.13.1-.13.18v.45a45 45 0 00.1 4.01c.05.54.16.94.71 1.02.26.04.4.07.57.07.11 0 .15.06.15.11 0 .1-.1.16-.3.16h-3.84c-.2 0-.36-.05-.36-.16 0-.05.1-.1.21-.1.17 0 .5-.04.66-.08.37-.07.46-.48.54-1.02.09-.78.09-2.24.09-4.01v-3.26zm1.47 1.61c0 .1.04.17.13.22.28.17 1.12.3 1.93.3.44 0 .96-.06 1.38-.35.65-.45 1.09-1.45 1.09-2.85 0-2.31-1.18-3.7-3.15-3.7-.55 0-1.05.05-1.23.11-.1.04-.15.18-.15.29v6-.02z" fill="url(#cgwz0usik)"/><defs><linearGradient id="agwz0usik" x1="14.26" y1="23.88" x2="14.26" y2="33.33" gradientUnits="userSpaceOnUse"><stop stop-color="#4D90D0"/><stop offset="1" stop-color="#1575CB"/></linearGradient><linearGradient id="bgwz0usik" x1="27.42" y1="31.13" x2="27.42" y2="22.38" gradientUnits="userSpaceOnUse"><stop stop-color="#1575CB"/><stop offset=".79" stop-color="#4D90D0"/></linearGradient><linearGradient id="cgwz0usik" x1="44.44" y1="31.62" x2="44.57" y2="22.74" gradientUnits="userSpaceOnUse"><stop stop-color="#1575CB"/><stop offset="1" stop-color="#4D90D0"/></linearGradient></defs></svg>