<svg xmlns="http://www.w3.org/2000/svg" width="56" height="56"><path fill="#F5F0D0" d="M0 0h56v56H0z"/><path d="M28.13 13L14.5 24.9c1.76.39 3.9 1.27 4.74 1.67H36.9a16.4 16.4 0 014.58-1.66L28.13 13z" fill="#007338"/><path d="M37.52 26.23c-5.03 3.46-7.4 5.75-9.53 13.85-.37-4.86-4.16-10.8-9.53-13.85a9.9 9.9 0 019.53-7.15 9.9 9.9 0 019.53 7.15z" fill="#E1781C"/><path d="M13.05 26.18L6 32.58 26.6 41c-.8-11.29-9.37-14.58-13.55-14.82zm29.9 0l7.05 6.4L29.4 41c.8-11.29 9.37-14.58 13.55-14.82z" fill="#007338"/><path fill-rule="evenodd" d="M26.56 34.5c.02-.92.36-2.84 1.61-3.2.42.16 1.47.67 2.24 1.49.12-.3.16-1.05-.7-1.62h-1.16c-.2-.32-.78-.73-1.59.13-.14.2-.45.73-.56 1.35a5.8 5.8 0 01.4-3.65c.16-.27.6-.9 1.2-1.22h2.1c.2-.06.73-.28 1.2-.73.27.01.84-.01.9-.15.36.3 1.24.88 1.87.88.14-.24.08-.92-1.32-1.7.26-.02.8-.13.83-.4.04-.33-1.03-.51-1.74-.4.14-.24.4-.79.22-1.02-.18-.23-.78.32-1.05.62l-.27-.42c-.13-.02-.5.06-1.03.58-.55.55-.76.95-.87 1.15l-.04.09-.25-.6A6.54 6.54 0 0026.4 29a12.26 12.26 0 00-.53 2.68l-.47-.5v-3.84c.07-.32.46-1.06 1.4-1.5h.77v-.3c.3.05 1.06.06 1.54-.26.2-.13.6-.48.6-.82.43-.04 1.3-.34 1.3-1.2-.21-.02-.71-.04-1.05.12-.05-.14-.28-.4-.85-.27.54-.2 1.67-.7 1.9-1.06a.7.7 0 01.83.22c.35.44 1.11.69 1.43.55.03-.1 0-.37-.34-.55.25-.07.8-.27 1-.55.22-.29-1.07-.62-1.74-.76.08-.09.2-.29.12-.37-.12-.11-1.35.02-2.49 1.13.12-.21.29-.7 0-.96-.27 0-.94.22-1.43 1.11.08-.31.18-.96 0-1.1-.22-.18-1.18 1.08-1.58 1.9.01.46-.02 1.45-.25 1.8.02-.5 0-1.52-.16-1.65-.2-.15-.69.98-.85 2.22-.21-.45-.78-1.38-1.31-1.5-.22.55-.37 1.89.76 2.74v4.14a11.2 11.2 0 01-1.64-3.66 7.86 7.86 0 000 2.7l3.2 5.03zm-.54-1.45c-.87-1.07-2.6-3.46-2.5-4.38.84 1.22 2.5 3.82 2.5 4.38zm.85-1.2c.17-.21.6-.68.96-.79-.2.22-.69.7-.96.8zm2.15-.44c.27 0 .86.15 1.1.71l-1.1-.7zm-4-5.7c-.26-.2-.74-.82-.58-1.67.31.31.86 1.08.58 1.66zm.87-.8a4.3 4.3 0 01.31-1.47c.09.29.14.99-.31 1.46zm1.34-2.18c.23.38.1.84 0 1.02a.87.87 0 00.45-1.02c.26-.3.33-1.04.33-1.37-.57.6-.76 1.17-.78 1.37zm2.16-1.63c-.1.19-.41.66-.76.98l.2.2c.36-.35.69-.85.8-1.05l-.24-.13zm-.34 1.33a8.64 8.64 0 01-.85.9c-.1.08-.18.14-.24.17l.1.24c.1-.04.22-.12.32-.2l.33-.32c.22-.22.43-.47.55-.62l-.21-.17zm-1.42 1.76c-.12.1-.32.29-.55.47-.22.17-.47.34-.67.43l.12.25c.23-.1.5-.29.72-.47.24-.18.45-.37.57-.49l-.2-.2zm-1.65 1.34l-.4.56.22.16.4-.56-.22-.16zm1.63-.16c.21-.2.78-.63 1.4-.64-.07.21-.47.64-1.4.64zm.45-.95c.17-.3.64-.88 1.16-.91-.04.21-.34.7-1.16.9zm1.85-2.37c.26-.29.97-.92 1.81-1.15-.1.25-.63.83-1.8 1.15zm1.81-.53c.23-.06.85-.13 1.57 0-.21.1-.82.26-1.57 0zm-1.16 2.08c-.24.06-.83.25-1.3.53.36.04 1.12-.02 1.3-.53zm1.3-1.48c.09.06.36.2.76.32l.08-.26a3.51 3.51 0 01-.7-.3l-.15.24zm-4.54 5.8a4.3 4.3 0 01.94-1.53c.07.26-.03.92-.94 1.53zm2.12-1.84c.12-.32.48-.99.94-1.13 0 .27-.2.88-.94 1.13zm-.73 1.17c.3-.12 1.09-.32 1.7-.18-.1.2-.58.52-1.7.18zm2.66-1.55c.3-.09 1.06-.21 1.54 0-.33.11-1.1.27-1.54 0zm.98.62c.34.12 1.09.48 1.32.98-.34-.07-1.07-.36-1.32-.98zm-.87-1.6c-.17.13-.55.49-.72.75l.23.15c.15-.23.5-.56.67-.7l-.18-.2zm-.94 1.68c.2.1.7.36 1.16.45l.05-.26a4.3 4.3 0 01-1.08-.43l-.13.23z" fill="#fff"/></svg>