<svg width="56" height="56" viewBox="0 0 56 56" xmlns="http://www.w3.org/2000/svg"><path fill="#F0F3FA" d="M0 0h56v56H0z"/><path d="M18.2 18 8 28l10.2 10 2.8-2.75L13.6 28l7.4-7.25L18.2 18Z" fill="url(#aezdep3ml)"/><path d="M37.8 18 48 28 37.8 38 35 35.26 42.4 28 35 20.75 37.8 18Z" fill="url(#bezdep3ml)"/><path fill-rule="evenodd" d="M28 15 15 28l13 13 13-13-13-13Zm6 16h1v-6h-1v6Zm-2-.3c-.9.2-1.68.3-2.35.3-2 0-3.65-.97-3.65-3 0-2 1.67-3 3.65-3 .75 0 1.53.09 2.34.26v.5c-1.02-.27-1.8-.4-2.35-.4A2.6 2.6 0 0 0 27 28c0 1.5 1.27 2.65 2.82 2.65.29 0 .63-.09.97-.17l.21-.05V28h.99l.01 2.7ZM19 28c0 1.76 1.24 3 3 3s3-1.24 3-3c0-1.75-1.25-3-3-3-1.76 0-3 1.24-3 3Zm5 0c0 1.41-.62 2.65-2 2.65S20 29.4 20 28s.63-2.65 2-2.65 2 1.24 2 2.65Z" fill="url(#cezdep3ml)"/><defs><linearGradient id="aezdep3ml" x1="9" y1="28" x2="20.2" y2="27.59" gradientUnits="userSpaceOnUse"><stop stop-color="#90281F"/><stop offset=".5" stop-color="#E04337"/><stop offset="1" stop-color="#EC8C86"/></linearGradient><linearGradient id="bezdep3ml" x1="47.8" y1="28.59" x2="35.8" y2="29" gradientUnits="userSpaceOnUse"><stop stop-color="#862620"/><stop offset=".48" stop-color="#DF463E"/><stop offset="1" stop-color="#E58A85"/></linearGradient><linearGradient id="cezdep3ml" x1="16.8" y1="28.8" x2="36.6" y2="28.2" gradientUnits="userSpaceOnUse"><stop stop-color="#136D92"/><stop offset=".48" stop-color="#1D93C3"/><stop offset="1" stop-color="#138FC2"/></linearGradient></defs></svg>