<svg width="56" height="56" viewBox="0 0 56 56" xmlns="http://www.w3.org/2000/svg"><path fill="#F0F3FA" d="M0 0h56v56H0z"/><path fill="#E31E24" d="M43 24h5v12h-5zM43 20h5v3h-5zM30 24h5v12h-5zM8 20h5v5.35L16.77 20h4.9l-4.38 5.73L24 39h-4.65l-4.87-9.65-.74.96c-.7.92-.74 2.05-.74 3.2V36H8V20Z"/><path d="M26 23h-5v13h5v-5.98c.16-2.42 1.44-3 2.06-3 .5 0 .83.06.94.08V23c-1.77-.09-2.65.72-3 1.1V23ZM30 20h5v3h-5zM36 20h5v3h1v3h-1v7c0 .53.3.84.66.95.18.06.33-.1.34-.27V36h-2.38c-2 0-3.62-1.65-3.62-3.7V20Z" fill="#E31E24"/></svg>