<svg width="56" height="56" viewBox="0 0 56 56" xmlns="http://www.w3.org/2000/svg"><path fill="#F0F3FA" d="M0 0h56v56H0z"/><path d="M6 25H5v6h1v-6Zm3.68.01H11l-3.48 3.02L11 31H9.68l-3.56-2.97 3.56-3.02ZM12 31v-6h4.81c1.21 0 2.19.82 2.19 2 0 1.17-.96 1.98-2.15 2L19 31h-1.34l-2.12-2H14v-1h2.85c.62 0 1.13-.4 1.13-1s-.5-1-1.13-1H13v5h-1ZM20 28c.64-.05 2.11-.3 2.88-.9.67-.54.94-1.46 1.05-2.24L24 24v.05V24l.07.86c.11.78.38 1.7 1.05 2.23.77.6 2.24.86 2.88.9l-.03.01H28c-.64.05-2.11.3-2.88.9-.68.54-.94 1.46-1.05 2.24L24 32v-.05.05l-.07-.86c-.11-.78-.37-1.7-1.05-2.23-.77-.6-2.24-.86-2.88-.9l.03-.01H20Zm2.99 3A3 3 0 0 1 20 28.3c.36.03.71.07 1.05.13.23.9 1.17 1.57 2.3 1.57h.1c.07.17.12.36.16.56l.04.44H23Zm.35-5h.02c.13-.29.23-.62.28-1H23A3 3 0 0 0 20 27.7c.38-.03.73-.08 1.06-.14.23-.9 1.17-1.56 2.28-1.56Zm1.35 0c1.1.01 2.03.68 2.26 1.57.32.07.67.1 1.05.14A3 3 0 0 0 25.01 25h-.59c.05.38.14.71.27 1Zm-.03 4h-.11c-.07.17-.13.36-.16.56l-.04.44H25a3 3 0 0 0 3-2.71c-.37.03-.72.07-1.06.13-.23.9-1.17 1.58-2.3 1.58Z" fill="#293A80"/><path fill-rule="evenodd" d="M39 25a3 3 0 1 0 0 6h2a3 3 0 1 0 0-6h-2Zm.34 1c-1.3 0-2.34.9-2.34 2s1.05 2 2.34 2h1.32c1.3 0 2.34-.9 2.34-2s-1.05-2-2.34-2h-1.32Z" fill="#293A80"/><path d="M24 29c-.34 0-.63-.33-.63-.66 0-.5.4-.94.64-1.34.22.39.62.87.62 1.34 0 .29-.28.66-.62.66Z" fill="#01B5F0"/><path d="M29 25v6h1v-4.7l3.97 4.7H35v-6h-1v4.6L30.18 25H29ZM47.5 28.7l2.17 2.3H51l-2.83-3L51 25h-1.37l-2.13 2.27L45.37 25H44l2.83 3L44 31h1.33l2.17-2.3Z" fill="#293A80"/></svg>