<svg xmlns="http://www.w3.org/2000/svg" width="56" height="56" viewBox="0 0 56 56"><path fill="#F0F3FA" d="M0 0h56v56H0z"/><path d="M21.36 42.15c-.02-.22-.43-1.18-.62-2.41-.35-2.3.78-5.43 2.5-6.57-.18-.28-.44-.48-.7-.73a6.85 6.85 0 0 1-1.61-2.68 7.72 7.72 0 0 1 .05-4.95c1-2.89 3.88-4.81 7.02-4.81 3 0 5.99 1.82 6.97 4.64a7.5 7.5 0 0 1-.8 6.91 4.8 4.8 0 0 1-1.44 1.51c.2.3.33.53.6.8a7.7 7.7 0 0 1 1.71 3.01c.88 2.74-.38 4.94-.41 5.36 4.2-2.2 6.65-4.77 8.38-9.18a16.89 16.89 0 0 0 .62-9.27 15.93 15.93 0 0 0-2.7-6.06c-.25-.37-.5-.65-.78-1A16.06 16.06 0 0 0 28.08 11c-2.22 0-4.29.5-5.9 1.14A16.43 16.43 0 0 0 12.22 30c.3 1.9.99 3.88 1.78 5.28.51.9 1.5 2.4 2.22 3.1.34.33.5.63.86.92.37.29.6.52.96.81.79.62 2.4 1.82 3.3 2.03z" fill="#14BBC0"/><path d="M28 45a6.41 6.41 0 0 0 6.57-6.45 6.4 6.4 0 0 0-3.8-5.91 6.58 6.58 0 0 0-7.47 1.32 6.46 6.46 0 0 0 1.82 10.38c.77.37 1.78.66 2.88.66z" fill="#1C904C"/></svg>