<svg width="56" height="56" xmlns="http://www.w3.org/2000/svg"><path fill="#00A651" d="M0 0h56v56H0z"/><path d="M46 28c0 9.941-8.059 18-18 18-8.566 0-15.735-5.984-17.554-14h3.093C15.29 38.342 21.101 43 28 43c7.606 0 13.89-5.661 14.868-13H39v6H24v-6H10.11a18.196 18.196 0 01-.11-2c0-9.941 8.059-18 18-18 8.919 0 16.323 6.487 17.751 15H42.7c-1.39-6.847-7.443-12-14.7-12-7.948 0-14.453 6.182-14.967 14H24v-3h15v3h6.973c.018.331.027.664.027 1z" fill="#fff"/><path d="M27.475 23.361v.673h.483v-.673l1.563-1.72c3.243.412 3.59-2.57 3.359-4.112-3.49-.11-3.925 2.524-3.706 3.855l-1.216 1.305v-3.104c2.424-2.072.778-4.448-.348-5.377-2.795 2.594-1.255 4.666-.135 5.377v3.104l-1.139-1.305c.278-3.574-2.368-4.059-3.725-3.855-.402 3.954 2.084 4.39 3.378 4.112l1.486 1.72z" fill="#fff"/><circle cx="27.5" cy="39.5" r="2.5" fill="#fff"/><path d="M29 25h-2v10h2v-4.957c.903 1.085 2.866 3.428 3.498 4.126.63.699 1.699.845 2.154.83H38l-4.393-5.152L37.424 25h-3.22c-1.194 0-1.918.744-2.197 1.135L29 30.043V25z" fill="#00A651"/></svg>