<svg width="56" height="56" viewBox="0 0 56 56" xmlns="http://www.w3.org/2000/svg"><path fill="#F0F3FA" d="M0 0h56v56H0z"/><path d="M31 13.55c0-.51.48-.7.97-.42l7.67 4.43c.48.28.48.74-.01 1.01l-7.74 4.3c-.5.28-.9.08-.89-.43v-8.89Z" fill="#E32235"/><path d="M42.12 23.13c.48-.28.88-.09.88.42v8.89c0 .51-.4.7-.89.44l-7.74-4.3c-.49-.27-.5-.72-.01-1l7.76-4.45Z" fill="#444"/><path d="M31 33.55c0-.5.4-.7.88-.42l7.76 4.45c.48.28.48.73 0 1l-7.75 4.3c-.49.27-.89.07-.89-.44v-8.89Z" fill="#E32235"/><path d="M23.95 17.37c1.13-.76 2.05-.31 2.05 1v19.26c0 1.3-1 1.76-2.13 1.01L9.86 29.47c-1.14-.75-1.15-1.97-.01-2.73l14.1-9.37Z" fill="#444"/></svg>