<svg width="56" height="56" viewBox="0 0 56 56" xmlns="http://www.w3.org/2000/svg"><path fill="#F0F3FA" d="M0 0h56v56H0z"/><path d="m26.12 12 .39.12c.2.06.2.13 0 .2-2.7.93-4.9 2.33-6.59 4.2a9.77 9.77 0 0 0-2.71 7.07c.04 1.38.25 2.74.63 4.08.02.08.06.13.12.14.1.03.16-.02.17-.13.05-2.62.4-4.8 1.04-6.53a12.06 12.06 0 0 1 3.86-5.28c4.19-3.35 8.62-3.9 13.3-1.66a13.03 13.03 0 0 1 5.65 5.36c.05.08.05.16.01.24l-.1.2c-.02.07-.06.08-.1.02a13.24 13.24 0 0 0-3.26-3.23 9.93 9.93 0 0 0-6.85-1.88c-5.34.5-8.67 3.2-9.98 8.1a9.88 9.88 0 0 0-.28 4.44c.32 1.63 1.14 2.74 2.48 3.32 1.07.47 2.1.53 3.11.18a5.26 5.26 0 0 0 2.5-1.96c.11-.14.26-.38.46-.71.51-.9 1-1.4 1.48-1.52.54-.15 1.16-.1 1.86.11.2.06.2.14.04.24-.69.4-1.08.99-1.17 1.74a14.67 14.67 0 0 1-2.24 5.97 7.26 7.26 0 0 1-4.9 3.34c-3.36.7-6.28.03-8.75-1.99-3.27-2.67-4.67-6.3-4.2-10.89.24-2.3.87-4.37 1.9-6.24.03-.05.07-.08.14-.09l.04.03a.3.3 0 0 1 .03.07 19.51 19.51 0 0 0-.64 6.09c.14 2.29.74 4.21 1.82 5.77.02.03.05.04.08.04a.2.2 0 0 0 .1-.02c.05-.03.07-.06.05-.1-.85-3.25-1.12-5.96-.79-8.14.84-5.54 4.17-9.1 10-10.7h1.3Z" fill="#D0AE6C"/><path d="m37.97 27.65-.09.07-.01.02c-.03 2.66-.4 4.89-1.1 6.67a12.31 12.31 0 0 1-4.03 5.29c-4.17 3.22-8.6 3.68-13.28 1.35a12.06 12.06 0 0 1-5.5-5.5c-.02-.05 0-.1.06-.12a.21.21 0 0 1 .1-.01c.04 0 .08.03.12.09a29.16 29.16 0 0 0 2.14 2.23c3.59 3.04 7.64 3.6 12.17 1.66a8.97 8.97 0 0 0 4.64-4.17 12.12 12.12 0 0 0 1.47-6.99c-.2-1.77-1.08-3-2.64-3.69-1.58-.7-3.07-.46-4.46.73a8.63 8.63 0 0 0-1.52 1.77c-.52.78-.96 1.25-1.32 1.41-.5.21-1.23.17-2.16-.14-.07-.03-.1-.07-.1-.14s.03-.12.1-.14c.67-.23 1.07-.65 1.18-1.25.17-.88.39-1.75.65-2.63a13.05 13.05 0 0 1 1.92-3.94 6.65 6.65 0 0 1 3.38-2.65c5.17-1.55 9.27-.18 12.3 4.1A10.8 10.8 0 0 1 44 28.09c0 2.92-.58 5.52-1.75 7.8-.36.72-.46.7-.3-.1 1-4.86.55-8.64-1.32-11.34a.07.07 0 0 0-.07-.03h-.15c-.04 0-.05.02-.04.06.68 2.2.97 4.4.88 6.62-.15 3.85-1.48 6.9-3.97 9.18-2.34 2.13-5.46 3.37-9.36 3.7-.65.06-.66-.01-.04-.21a20.8 20.8 0 0 0 6.27-3.32c4.2-3.21 5.52-7.44 3.98-12.7-.03-.1-.08-.14-.16-.1Z" fill="#D0AE6C"/><path d="M31.58 25.81a6.57 6.57 0 0 0-2.15 2.16c-.5.7-.89 1.15-1.16 1.37-1.01.77-2.2.86-3.57.27-.22-.1-.23-.21-.02-.34a8.94 8.94 0 0 0 2.96-3.1c.18-.3.5-.55.94-.74.71-.32 1.69-.37 2.93-.15.58.1.6.28.07.53Z" fill="#3D418A"/></svg>