<svg width="56" height="56" viewBox="0 0 56 56" xmlns="http://www.w3.org/2000/svg"><path fill="#F0F3FA" d="M0 0h56v56H0z"/><path fill="#E30B21" d="M11 25h9v9h-9z"/><path d="M15 25.75a4.5 4.5 0 0 0-.01-.55H6.01a4.57 4.57 0 0 0 0 .55h8.98Zm-.07.55H6.07c.04.2.08.38.14.56h8.58c.06-.18.1-.37.14-.56Zm-.35 1.1H6.42c.1.21.21.41.34.6h7.48c.13-.19.24-.39.34-.6Zm-.73 1.1h-6.7c.16.18.33.35.52.5h5.66c.19-.15.36-.32.52-.5Zm-1.29 1H8.44a4.48 4.48 0 0 0 4.12 0Zm-6.48-4.85h8.84c-.04-.22-.1-.44-.18-.65H6.26c-.08.21-.14.43-.18.65Zm.39-1.15h8.06a4.48 4.48 0 0 0-.29-.5H6.76l-.3.5Zm.73-1.05h6.6c-.14-.16-.3-.31-.47-.45H7.67c-.17.14-.33.29-.47.45Zm1.24-.95h4.12a4.48 4.48 0 0 0-4.12 0Z" fill="#EB5436"/><path d="M16 33V23h3v7.5h4V33h-7ZM24 33V23h4.98c2.01 0 3.52 1.7 3.52 3.8 0 2.1-1.5 3.7-3.52 3.7H27V33h-3Zm4.2-7.5H27V28h1.2c.72 0 1.3-.56 1.3-1.25s-.58-1.25-1.3-1.25ZM35.78 30H33c0 2.75 2.4 3 3.96 3 1.55 0 4.04-.47 4.04-3.01s-2.93-2.95-4.25-3.28c-1.33-.32-1.2-1.71.1-1.71 1.06 0 1.3.63 1.28 1h2.7c-.02-2.21-2.04-3-3.74-3-1.7 0-4.03.53-4.03 2.87 0 2.35 2.61 2.97 3.8 3.17.95.16 1.3.7 1.35.95.03.26-.2 1.01-1.25 1.01-1.06 0-1.23-.63-1.18-1Z" fill="#00004D"/><path fill-rule="evenodd" d="M47.46 24.87a.11.11 0 0 0-.03-.12c-.03-.03-.07-.04-.11-.02-1.82.78-3.4 1.8-4.73 3.05-.28.27-.52.59-.71.96-.23.45-.13.8.3 1.04.32.19.71.28 1.18.27.18 0 .43 0 .75-.03.04 0 .05 0 .03.04l-.04.07a4.2 4.2 0 0 1-1.62-.06c-.88-.22-1.16-.69-.81-1.4.22-.47.64-.96 1.26-1.47a18.28 18.28 0 0 1 3.92-2.46c.28-.13.54-.2.76-.17.06 0 .1.03.14.08.04.05.04.1.03.17-.2.62-.42 1.22-.67 1.8a295.13 295.13 0 0 0-2.82 6.64 2.2 2.2 0 0 1-.26.48c-.1.13-.14.12-.12-.05.02-.15.08-.35.17-.59.33-.9 1.39-3.45 3.17-7.66l.21-.57Zm2.5 5.24c-.07.11-.1.22-.05.25.04.03.13-.04.2-.16.06-.11.08-.22.04-.25-.04-.02-.12.05-.2.16Zm-3.57.83c.2-.17.38-.26.52-.28.13-.02.2.03.23.14.01.04 0 .07-.02.1a.48.48 0 0 0-.12.37c0 .03.01.05.03.06.03.02.05.02.08 0 .13-.08.22-.13.29-.15.09-.04.18-.14.29-.3.1-.16.19-.26.26-.3.2-.11.4-.15.6-.13.1 0 .2-.04.25-.14l1.02-1.84c.02-.04.05-.05.09-.04l.06.01c.05.01.06.04.04.09a27.67 27.67 0 0 0-1.07 2.6c0 .13.06.19.17.18l.02-.01.65-.68c.02-.02.05-.03.08 0 .03.02.03.05.01.08l-.26.47a.11.11 0 0 0 0 .12.1.1 0 0 0 .1.05.7.7 0 0 0 .4-.14 2.49 2.49 0 0 0 .4-.4 1 1 0 0 1 .74-.35c.04 0 .07.01.1.05.04.05.04.1.02.14-.02.04-.05.05-.09.02-.1-.07-.24-.04-.43.1-.18.14-.28.22-.3.25-.2.39-.14.45.21.18l.4-.3c.14-.1.18-.07.15.1l-.05.2c0 .05 0 .09.04.12.03.04.06.05.1.04.13-.02.29-.13.47-.32.13-.13.16-.1.1.07-.07.17-.3.3-.7.4-.03 0-.07 0-.1-.03a.12.12 0 0 1-.04-.1.16.16 0 0 0-.04-.1c-.03-.04-.06-.05-.1-.02l-.1.07c-.15.1-.25.15-.32.17-.1.02-.23 0-.39-.06a.17.17 0 0 0-.11 0l-.35.1c-.15.03-.24 0-.28-.1-.03-.1-.09-.12-.17-.08-.26.12-.43.13-.5.04-.04-.05-.05-.11-.04-.2.02-.1.03-.17.02-.2 0-.15-.05-.17-.14-.04-.14.22-.3.4-.51.52-.27.18-.46.13-.55-.13-.03-.06-.06-.08-.12-.05-.22.13-.4.2-.54.2a.12.12 0 0 1-.12-.07.14.14 0 0 1 0-.13.7.7 0 0 0 .08-.27c0-.16-.05-.2-.18-.1-.19.13-.43.33-.72.58-.13.12-.16.1-.1-.07.1-.27.24-.52.4-.77.03-.05.07-.05.1 0l.04.03.01.03-.06.18c-.02.07 0 .08.05.04Zm1.5.54h-.03l-.03-.03c-.06-.07-.09-.15-.07-.26a.53.53 0 0 1 .14-.3l.13-.14a.5.5 0 0 1 .28-.17c.1-.01.19 0 .25.07l.03.03v.03l-.7.77Z" fill="#292A69"/></svg>