<svg width="56" height="56" viewBox="0 0 56 56" xmlns="http://www.w3.org/2000/svg"><path fill="#F0F3FA" d="M0 0h56v56H0z"/><path d="M40.5 28.02c.48-.12.93-.31 1.35-.6.05-.03.1-.03.13.02l.13.13c.04.05.06.1.06.16s0 .12-.04.17a5.3 5.3 0 0 1-1.7 1.61.75.75 0 0 0-.37.59l-.14 1.25a.58.58 0 0 1-.2.39l-1.3 1.07a.4.4 0 0 0-.11.15c-.89 1.68-2.64 1.03-3.28 2.37a.8.8 0 0 1-.37.37.77.77 0 0 1-.52.06c-1.04-.25-1.84-.08-2.4.52a.62.62 0 0 0-.14.58.6.6 0 0 0 .41.43l2.13.63c.1.03.2.09.27.17a.6.6 0 0 1-.11.88l-2.66 1.84a1.07 1.07 0 0 1-1.38-.14c-.76-.8-1.59-1.6-2.68-1.85-1.8-.41-5.63-.86-7.01.6-.25.25-.37.2-.37-.16 0-1.23 1.08-2.35 1.98-3.1.1-.08.2-.2.23-.35a.8.8 0 0 0 .02-.43 3.1 3.1 0 0 0-1.2-1.8 87.65 87.65 0 0 1-4.04-3.15c-2.91-2.39-4.27-5.92-5.35-9.51-.4-1.3-1.21-2.52-1.82-3.76a.17.17 0 0 1 .05-.2.15.15 0 0 1 .2.02 8.44 8.44 0 0 1 1.8 2.64c.18.44.46.78.83 1.01a.27.27 0 0 0 .38-.1c.03-.05.04-.1.03-.15l-.13-2.36c-.01-.12.04-.17.16-.15l.25.03c.08.01.12.05.13.12.17 1.19.4 2.14.67 2.86.31.81.51.79.6-.08.07-.68.17-1.38.31-2.1.08-.4.16-.4.24 0 .34 1.7-.37 3.57.34 5.21.26.62.4.6.4-.09l-.02-2.22c0-.12.05-.18.16-.18l.2-.01c.04 0 .08 0 .12.03a.2.2 0 0 1 .07.12l.89 4.36a.4.4 0 0 0 .32.33.39.39 0 0 0 .4-.18c.07-.1.15-.18.24-.23.2-.12.34-.07.45.13a7.56 7.56 0 0 0 2.4 2.59c2.29 1.54 4.32 3.52 5.01 6.35a.53.53 0 0 0 .63.4.52.52 0 0 0 .24-.14c1.2-1.17 2-2.63 3.52-3.42 2.55-1.33 4.85-2.5 6.21-5.25.73-1.46 1.86-2.44 2.25-4.08.48-2.08.73-4.22.75-6.41.01-1.31.22-1.35.63-.1.5 1.56.6 3.37.16 5-.14.5-.22 1-.25 1.5-.02.33.07.37.26.1.71-.96 1.26-2.07 1.65-3.32a.62.62 0 0 1 .23-.32l.15-.1c.15-.1.23-.06.22.13-.1 2.57-1.01 3.99-2.25 6-.4.63-.28.74.32.33a7.08 7.08 0 0 0 2.17-2.67c.03-.05.08-.1.14-.12a.25.25 0 0 1 .17 0l.15.05a.2.2 0 0 1 .11.1c.02.05.03.11 0 .16-.8 2.24-2.15 3.32-3.66 4.96-.28.3-.22.4.17.3Z" fill="#1F1A19"/></svg>