<svg width="56" height="56" xmlns="http://www.w3.org/2000/svg"><path fill="#FECC4E" d="M0 0h56v56H0z"/><path d="M35.907 12c.47.996.6 2.062.458 3.181-4.148 2.614-8.841 5.026-13.119 7.853-1.25-.263-2.544-.794-3.144-1.959C25.215 17.7 30.852 15.49 35.907 12zM20.102 27.78c4.16-2.49 11.57-4.223 13.916-7.697.902.503 1.536 1.462 1.851 2.898-3.702 3.428-8.278 3.659-12.425 6.676-1.5-.218-2.742-.72-3.342-1.877zm0 6.844c3.438-2.057 7.014-3.268 10.423-4.675 1.507-.622 2.645-1.79 3.493-3.05.894.502 1.515 1.465 1.851 2.898-1.419 1.313-3.102 2.387-5.998 3.391-2.246.778-4.459 1.828-6.486 3.3-1.474-.238-2.586-.785-3.283-1.864zm.613 8.059c-.323-.383-.294-.868.16-1.099l9.785-4.898c1.39-.695 2.493-1.798 3.442-3.033.999.568 1.578 1.585 1.771 2.848-1.72 1.206-3.496 2.38-5.465 3.4-2.418 1.251-4.828 2.498-6.88 4.1-1.21-.198-2.205-.594-2.813-1.318z" fill="#A7282E"/><path d="M20.102 14.26c1.347 2.057 4.575 2.14 7.296 2.11 2.72-.028 4.13-.255 6.762.482 2.628.737 3.926 4.264 1.713 6.129-.554-2.383-1.86-3.511-4.559-3.466-2.699.041-5.587.395-8.941-.218-3.354-.613-4.391-3.103-2.271-5.038zm0 6.815c1.347 2.054 4.575 2.14 7.296 2.111 2.72-.024 4.13-.255 6.762.482 2.628.737 3.926 4.264 1.713 6.128-.554-2.383-1.86-3.51-4.559-3.465-2.699.041-5.587.4-8.941-.218-3.354-.618-4.391-3.108-2.271-5.038zm0 6.705c1.347 2.054 4.575 2.14 7.296 2.111 2.72-.025 4.13-.255 6.762.482 2.628.736 3.926 4.264 1.713 6.128-.554-2.383-1.86-3.51-4.559-3.465-2.699.04-5.587.395-8.941-.218-3.354-.614-4.391-3.108-2.271-5.038zm0 6.844c1.347 2.054 4.575 2.14 7.296 2.111 2.72-.024 4.13-.255 6.762.482 2.628.737 3.926 4.264 1.713 6.128-.554-2.383-1.86-3.51-4.559-3.47-2.699.042-5.587.4-8.941-.217-3.354-.614-4.391-3.104-2.271-5.034z" fill="#E3212C"/></svg>