<svg width="56" height="56" viewBox="0 0 56 56" xmlns="http://www.w3.org/2000/svg"><path fill="#F0F3FA" d="M0 0h56v56H0z"/><path d="M21 15h-3.78L14 28.63 17.22 41H31v-3H21V15Z" fill="#9FA3AC"/><path d="M35 41h3.78L42 27.37 38.78 15H25v3h10v23Z" fill="#E83B2D"/><path d="m21.5 10 1.86 3h9.28l1.86-3h-13ZM21.5 46l1.86-3h9.28l1.86 3h-13Z"/><path fill-rule="evenodd" d="M29.85 33.43c.05-.11.12-.13.22-.05.63.57 1.46.76 2.48.56.3-.06.46-.25.48-.55.02-.3-.07-.57-.26-.83a4.87 4.87 0 0 0-.81-.82.52.52 0 0 1-.18-.4c0-.17.06-.3.19-.41.44-.38.74-.66.9-.83.33-.34.48-.75.45-1.22a2.4 2.4 0 0 0-.47-1.26c-.12-.17-.2-.4-.2-.68-.02-.32.01-.55.1-.69l.41-.65a.7.7 0 0 0 .12-.56c-.2-.77-.62-1.02-1.23-.77-.37.16-.72.32-1.05.51a.4.4 0 0 1-.42 0 .38.38 0 0 1-.2-.38c.09-1.18-.3-1.99-1.14-2.43-.84-.43-1.63-.42-2.35.05a2.58 2.58 0 0 0-1.17 2.06c-.02.18-.11.24-.28.2l-1.04-.24c-.39-.09-.66.05-.81.42-.21.52-.13.94.24 1.26.32.27.61.51.9.72.12.09.18.2.17.35a.4.4 0 0 1-.18.34c-.58.4-.97.77-1.16 1.11-.26.45-.3.99-.1 1.6.03.1.11.26.25.49.22.36.34.64.36.83.01.22-.03.39-.11.51-.36.5-.57.9-.64 1.17-.1.46.13.76.69.9.43.11.76-.03.97-.41.07-.12.14-.22.23-.3a.72.72 0 0 1 .57-.2c.23.01.4.1.54.28l.4.5c.07.09.16.13.27.13.35 0 .78.07 1.31.22.42.13.73.16.94.1.25-.06.45-.28.61-.63Zm-2.68-6.39c-.37-.23-.65-.39-.83-.48-.14-.06-.13-.1.02-.13.6-.1 1.13-.1 1.6-.02.11.02.17.09.17.2v1.31c0 .1-.03.12-.1.04a6.51 6.51 0 0 0-.86-.92Zm2.54 1.35a5.2 5.2 0 0 0 1.2-1.46c.08-.13.13-.12.14.03.07.52.06 1.01 0 1.48-.02.1-.07.14-.16.14h-1.11a.1.1 0 0 1-.1-.07c-.02-.05 0-.09.03-.12Zm-3.62 2.28c.22-.42.6-.86 1.15-1.3.02-.02.03-.05.02-.07-.01-.03-.03-.04-.06-.04h-1.07c-.14 0-.2.06-.21.2l-.05 1.16c-.02.37.06.38.22.05Zm2.38-.44c.29.4.53.68.73.83.21.17.52.32.9.45.32.1.31.17-.02.18-.45.01-.97 0-1.55-.02-.12 0-.18-.07-.18-.18v-1.23c0-.12.04-.13.12-.03Z"/></svg>