<svg width="56" height="56" viewBox="0 0 56 56" xmlns="http://www.w3.org/2000/svg"><path fill="#F0F3FA" d="M0 0h56v56H0z"/><path d="M7 34V23h2.13v9.32H12V34H7ZM22 23v11h2v-6.06L26.4 34H29V23h-2v6.4L24.57 23H22ZM30 25.74A2.7 2.7 0 0 1 32.65 23h.7A2.7 2.7 0 0 1 36 25.74V27h-2v-1.15c0-.47-.45-.85-1-.85s-1 .38-1 .85v5.3c0 .47.45.85 1 .85s1-.38 1-.85V30h2v1.26A2.7 2.7 0 0 1 33.35 34h-.7A2.7 2.7 0 0 1 30 31.26v-5.52Z" fill="#1D4999"/><path fill-rule="evenodd" d="M39.65 23A2.7 2.7 0 0 0 37 25.74v5.52A2.7 2.7 0 0 0 39.65 34h.7A2.7 2.7 0 0 0 43 31.26v-5.52A2.7 2.7 0 0 0 40.35 23h-.7Zm.35 2c-.55 0-1 .38-1 .85v5.3c0 .47.45.85 1 .85s1-.38 1-.85v-5.3c0-.47-.45-.85-1-.85Z" fill="#1D4999"/><path d="m13 34 3.93-17L21 34h-2.39l-.36-1.97h-2.58L15.32 34H13Zm3-3.85h1.9l-.97-5.24-.93 5.24Z" fill="#E9222C"/><path d="M44 23v11h2v-5L48 34H50l-1.97-5.16a2.36 2.36 0 0 0 1.48-2.27v-1.15A2.34 2.34 0 0 0 47.15 23H44Zm2 2h.87c.35 0 .63.3.63.65v.7c0 .36-.28.65-.63.65H46v-2Z" fill="#1D4999"/></svg>