<svg width="56" height="56" viewBox="0 0 56 56" xmlns="http://www.w3.org/2000/svg"><path fill="#F0F3FA" d="M0 0h56v56H0z"/><path d="M29.67 11.03c1.49.3 2.75.79 3.97 1.62.4.26.69.63.75 1.08.1.73.28 1.4.75 2.02.4.52.88 1.06 1.44 1.6.14.15.27.3.37.47.1.16.05.22-.15.16a2.5 2.5 0 0 1-.53-.23c-.7-.4-1.37-.82-2-1.27-.56-.4-.9-1-1.17-1.58-.83-1.72-2.4-2.71-4.06-3.71-.07-.05-.05-.15.04-.16.2-.04.39-.04.59 0Z" fill="#121326"/><path d="M18.1 16.77c.6-.24 1.34-.68 2.21-1.34 1.08-.83 2.1-1.77 3.33-2.42a9.2 9.2 0 0 1 2.74-.9c3.02-.52 5.73.77 6.6 3.85.02.08.07.6-.17.48a11.58 11.58 0 0 0-9.85-.43c-.63.25-1.27.5-1.91.77-1.42.6-2.78.94-4.25 1.16-.5.08-1.05.08-1.67 0-.15-.02-.18-.25-.03-.28a18.5 18.5 0 0 0 3.01-.9Z" fill="#121326"/><path d="M20.7 23.31c-1.26.82-2.4 1.56-3.3 2.76a19.13 19.13 0 0 0-2.59 4.83c-.46 1.25-.75 2.63-1.35 3.82-.2.4-.31.37-.35-.07a22.9 22.9 0 0 1-.07-3.5c.2-2.46.98-4.74 2.34-6.83.18-.28.44-1.07-.15-1.09-.81-.01-1.32.4-2.03.69-.18.06-.06-.26 0-.31a29 29 0 0 1 6.87-4.88 14.29 14.29 0 0 1 9.63-1.43c.37.08.4.22.07.41-.82.5-1.37 1.21-1.9 2.05-.15.25-.4.48-.66.63-.49.27-.98.51-1.44.83-2.89 1.99-4.18 5.06-4.3 8.54 0 .28-.1.3-.26.08a2.89 2.89 0 0 1-.42-.84 10.8 10.8 0 0 1-.09-5.69ZM34.75 20c-.6.02-1.14-.05-1.65-.21-.16-.06-.11-.35.03-.4l1-.35c.27-.1.48-.01.64.26.15.25.44.67-.02.7ZM41.28 21.23c.1.05.9.25.68.5-.46.5-.73 1.09-.8 1.78a22.2 22.2 0 0 0-.12 3.1c0 .15-.16.12-.23.05-.25-.3-.55-.65-.98-.58-1.54.24-3.15.44-4.66.9-.4.13 0-.55.2-.63.74-.29 1.55-.5 2.43-.66.49-.08.95-.26 1.38-.55a2.27 2.27 0 0 0 1.06-2.05c0-.56-.49-.97-.87-1.31a.38.38 0 0 1 .12-.64 2.3 2.3 0 0 1 1.79.09Z" fill="#121326"/><path d="M31.24 28.15c.42-.69.73-1.17 1.68-1.27.63-.07.76.22 1.09.67.33.46 1.24.61 1.75.73 1.14.27 2.07 1.2 3.19 1.6.4.14.78.08 1.1-.2.3-.26.4-.6.66-.87.1-.09.26-.03.27.11.07.93.02 1.89-1.05 2.12-.38.08-.75.22-1.1.4a.3.3 0 0 1-.41-.17c-.06-.17-.09-.44-.25-.54-.8-.46-2.42-1.04-3.17-.24-.58.61-.34 1.43.04 2.07.39.65.78 1.28 1.18 1.88.44.7.76 1.28.94 1.77a5.4 5.4 0 0 1-1.4 5.79c.08-.95-.11-2.02-.32-3.09a4.23 4.23 0 0 0-2.4-3.25c-.58-.27-1.22-.55-1.92-.84a20.03 20.03 0 0 1-4.69-2.83 6.07 6.07 0 0 1-2.32-6.18c.43-2.58 1.87-4.94 4.68-4.8.82.03 1.55.38 2.37.47.16.02.24.23.14.36-.53.67-1.07 1.26-1.36 2.12-.58 1.68.16 3.05 1.3 4.19Z" fill="#121326"/><path d="M28.01 34.64c2.41.95 5.17 2.53 6.48 4.77.73 1.27.62 2.6.02 3.91-.19.41-.27.85-.24 1.32.03.41.15.98.32 1.36-.3-.08-.61-.18-.92-.29-.7-.24-1.25-1.52-1.46-2.17a9.9 9.9 0 0 0-3.52-4.94c-.86-.66-1.87-1.17-2.64-1.9-1.92-1.8-2.37-3.97-1.85-6.7.24.84.3 1.8.74 2.54.73 1.23 1.8 1.61 3.07 2.1Z" fill="#121326"/><path d="M26.56 38.79c1.79.68 3.26 1.9 3.42 3.76.07.7-.07 1.38-.07 2.08 0 .44-.14.49-.43.13-.46-.58-.75-1.46-1.03-2.15-.43-1.03-1.68-1.55-2.59-2.16a4.06 4.06 0 0 1-1.4-1.66c-.41-.86-.42-1.83-.46-2.79.65 1.21 1.16 2.26 2.56 2.79Z" fill="#121326"/></svg>