<svg width="56" height="56" viewBox="0 0 56 56" xmlns="http://www.w3.org/2000/svg"><path fill="#F0F3FA" d="M0 0h56v56H0z"/><path d="M35 19a1 1 0 1 0 0-2 1 1 0 0 0 0 2ZM3 27.91c12.59 2.26 38.9 5.87 43.37 1.81 2.98-2.38-5.26-8.41-10.53-11.16.56.4 1.16.8 1.8 1.22 1.93 1.3 4.09 2.73 5.76 4.9 2.77 3.59 1 5.8-10.1 5.8-8.89 0-23.9-1.7-30.3-2.57Z" fill="#F13138"/><path d="M10 25v6.7c0 1.27 1.04 2.3 2.32 2.3H16v-2h-3.33c-.37 0-.67-.19-.67-.56V25h-2Zm7 9h1.98l2.23-6.77a.32.32 0 0 1 .61 0L24 34H26l-2.48-7.56a2.08 2.08 0 0 0-3.93-.03L17 34Zm20.98 0H36l2.59-7.59a2.08 2.08 0 0 1 3.93.03L45 34h-2l-2.18-6.75c-.04-.13-.16-.25-.3-.25-.15 0-.27.11-.31.25L37.98 34ZM27 34v-2h5.22c.47 0 .78-.3.78-.78 0-.49-.3-.72-.78-.72h-2.58c-1.46 0-2.64-1.35-2.64-2.83A2.66 2.66 0 0 1 29.64 25H35v2h-5.25c-.46 0-.75.28-.75.74 0 .47.29.76.75.76h2.53c1.5 0 2.72 1.24 2.72 2.76A2.73 2.73 0 0 1 32.28 34H27Z" fill="#3F3F98"/></svg>