<svg xmlns="http://www.w3.org/2000/svg" width="56" height="56" viewBox="0 0 56 56"><path fill="#F0F3FA" d="M0 0h56v56H0z"/><path d="M10.62 29.43L28 22.63v4.67l-12.62 5.54-4.76-3.4z" fill="url(#agqlli3ti)"/><path d="M45.68 28.98L28 22.62v4.68l12.92 5.31 4.76-3.63z" fill="url(#bgqlli3ti)"/><path d="M28 15L9.03 20.57l6.78 4.16L28 20.25V15z" fill="url(#cgqlli3ti)"/><path d="M28 15l19 5.25-6.74 4.23L28 20.25V15z" fill="url(#dgqlli3ti)"/><path d="M29 29.02L9 20.53l1.08 6.27L29 36.18v-7.16z" fill="#538ECA"/><path d="M29 29.1l18-8.92-.9 6.17L29 36.2V29.1z" fill="#A5C6E9"/><path d="M11.38 34.56l-.8-5.2L29 39.09V45L11.38 34.56z" fill="#538ECA"/><path d="M44.81 34.38l.88-5.33L29 39.1V45l15.81-10.62z" fill="#A5C6E9"/><defs><linearGradient id="agqlli3ti" x1="28.06" y1="25.04" x2="12.1" y2="31.06" gradientUnits="userSpaceOnUse"><stop stop-color="#0E53A1"/><stop offset=".26" stop-color="#307ABE"/><stop offset="1" stop-color="#3177BC"/></linearGradient><linearGradient id="bgqlli3ti" x1="28.06" y1="25.14" x2="43.95" y2="30.96" gradientUnits="userSpaceOnUse"><stop stop-color="#1358A4"/><stop offset=".33" stop-color="#3079BD"/><stop offset="1" stop-color="#2F78BC"/></linearGradient><linearGradient id="cgqlli3ti" x1="27.86" y1="17.51" x2="9.79" y2="23.44" gradientUnits="userSpaceOnUse"><stop stop-color="#0F5DA8"/><stop offset=".42" stop-color="#357EC2"/><stop offset="1" stop-color="#3075B8"/></linearGradient><linearGradient id="dgqlli3ti" x1="27.82" y1="17.51" x2="45.4" y2="23.05" gradientUnits="userSpaceOnUse"><stop stop-color="#16509B"/><stop offset=".47" stop-color="#256FB6"/><stop offset="1" stop-color="#226AB2"/></linearGradient></defs></svg>