<svg width="56" height="56" viewBox="0 0 56 56" xmlns="http://www.w3.org/2000/svg"><path fill="#F0F3FA" d="M0 0h56v56H0z"/><path fill-rule="evenodd" d="m20.75 34.45.64.42c.03.02.19.13.15.13h-8.53l-.01.01v5.97c0 .01 0 .02.02.02h28.96c.01 0 .02 0 .02-.03V35h-8.99c-.04 0 .1-.11.14-.13 1.31-.8 2.43-1.82 3.35-3.07.05-.06.09-.09.12-.09 1.4.01 2.62-.11 3.65-.37a6.79 6.79 0 0 0 1.48-.55c.38-.2.7-.41.95-.66.76-.75 1-1.67.74-2.75a4.9 4.9 0 0 0-.59-1.36c-.42-.7-.98-1.38-1.66-2.05v-.04c.65-.48 1.26-.99 1.8-1.53.35-.34.68-.72.99-1.12.6-.8.94-1.57 1-2.3.05-.5-.04-.96-.26-1.39-.2-.4-.52-.75-.94-1.03a6.8 6.8 0 0 0-2.61-1c-.78-.14-1.58-.23-2.39-.25-1.41-.04-2.83.04-4.26.23-.05.01-.08 0-.1-.02a11.37 11.37 0 0 0-13.75-.42.2.2 0 0 1-.13.03c-1.35-.16-2.7-.2-4.05-.13-.8.05-1.58.17-2.32.36-.52.14-1.01.33-1.46.57-.38.2-.7.43-.95.7-.67.71-.9 1.56-.68 2.55.1.45.27.88.5 1.3.32.55.7 1.07 1.13 1.55.59.66 1.24 1.27 1.96 1.84.02.02.02.03 0 .05-.42.4-.79.83-1.11 1.28a4.66 4.66 0 0 0-.88 1.96c-.12.77.06 1.45.54 2.03.4.5 1 .88 1.76 1.17.75.28 1.55.46 2.4.55.04 0 .08.03.11.08a11.6 11.6 0 0 0 3.26 3.46Zm-5.84-10.83c-.49-.4-.96-.81-1.41-1.26-.46-.45-.86-.92-1.22-1.42a5.9 5.9 0 0 1-.73-1.36 3.4 3.4 0 0 1-.18-.7 2.3 2.3 0 0 1 .33-1.6c.27-.43.68-.79 1.22-1.07.43-.23.9-.4 1.4-.52.62-.16 1.26-.26 1.94-.32a21.1 21.1 0 0 1 3.93.1 11.73 11.73 0 0 0-4.3 7.32c0 .03-.02.06-.04.08-.32.25-.6.5-.87.75-.02.02-.04.02-.07 0Zm25.99.07a20.97 20.97 0 0 0-2.48-2 11.86 11.86 0 0 0-3.57-5.83c1-.13 2.03-.2 3.08-.2.78-.01 1.56.03 2.33.12.58.07 1.17.19 1.75.36.53.15 1.02.37 1.46.64.18.11.36.26.55.45.42.42.63.93.63 1.52 0 .62-.25 1.3-.76 2.03-.34.5-.74.97-1.21 1.43a16.49 16.49 0 0 1-1.78 1.48Zm-.3.2a20 20 0 0 0-2.04-1.62l.09.53a11.8 11.8 0 0 1 .16 2.28h.02c.6-.36 1.2-.74 1.76-1.14.02-.02.02-.03 0-.05Zm-25.36-.03.55-.49h.01v.01l-.06.85c0 .01-.01.02-.02 0l-.48-.35v-.02Zm.47.82-.72-.55h-.04c-.46.45-.87.93-1.22 1.46-.5.72-.74 1.39-.74 2.02 0 .57.2 1.05.6 1.46.3.3.64.55 1.03.74.5.24 1.06.43 1.7.56a11.06 11.06 0 0 0 .89.14 11.86 11.86 0 0 1-1.5-5.83Zm21.15 6.6a11.82 11.82 0 0 0 1.92-5.73c0-.02.01-.04.03-.05a25.37 25.37 0 0 0 2.09-1.32c.71.7 1.27 1.38 1.67 2.04.16.27.3.54.4.82.11.3.18.6.21.87a2.3 2.3 0 0 1-.66 1.9c-.42.44-1.01.78-1.76 1.03-.43.14-.85.24-1.29.31-.86.15-1.73.22-2.62.2-.03 0-.03 0-.02-.02l.03-.04Z" fill="#7F7BAE"/><path d="M27.42 15.2h-.35c-.09 0-.15.08-.2.22-.01.07-.06.1-.13.09h-.01c-.08-.03-.1-.08-.07-.16.1-.33.22-.65.34-.97.03-.09.08-.14.15-.15.09-.02.16.02.2.12.11.24.25.56.4.95.04.07.02.12-.04.16h-.11a.12.12 0 0 1-.07-.06l-.08-.17a.05.05 0 0 0-.03-.03ZM26.06 15.58c-.24.03-.4-.03-.49-.2a1.01 1.01 0 0 1-.08-.3l-.07-.59c0-.07.03-.11.1-.12h.01c.08 0 .12.04.13.11l.1.68c.02.17.12.24.28.22.16-.02.23-.12.22-.28l-.08-.69c0-.07.03-.12.1-.13.08-.02.12.01.14.09l.08.58c.01.13 0 .23-.01.31-.04.18-.18.29-.43.32ZM28.23 15.27c0 .03.01.05.05.05.15 0 .3.03.45.06.06.01.08.05.07.1v.03c-.01.05-.05.08-.1.07-.19-.01-.4-.04-.64-.08a.12.12 0 0 1-.08-.05.13.13 0 0 1-.03-.09l.13-.99c.01-.08.06-.11.14-.1.09.02.12.07.1.15l-.09.85ZM29.3 14.44a.12.12 0 0 0-.15.1l-.18.99c0 .07.04.13.1.14.07.01.14-.03.15-.1l.17-1a.12.12 0 0 0-.1-.13Z" fill="#1A191C"/><path d="m27.04 14.97.12-.4.02-.02c.01 0 .02 0 .02.02l.15.38c0 .02 0 .03-.02.03l-.27.02c-.02 0-.03-.01-.02-.03Z" fill="#7F7BAE"/><path d="m30.17 14.66.4.13c.06.02.08.06.07.12-.03.06-.07.08-.12.07l-.25-.06c-.02 0-.04 0-.04.02a50.67 50.67 0 0 1-.26.87c-.03.06-.07.07-.13.05-.07-.01-.1-.05-.09-.11l.04-.2.2-.68c0-.02 0-.03-.03-.04l-.25-.08c-.05-.02-.07-.06-.06-.12.02-.06.06-.09.11-.08l.41.11ZM25.22 15.53c0 .02 0 .03.02.03l.13.06c.02 0 .03.02.04.04 0 .05-.01.08-.04.1-.03.02-.07.02-.11 0a.37.37 0 0 0-.17-.01 4.49 4.49 0 0 1-.29.1c-.22.06-.4.03-.56-.11a.73.73 0 0 1-.22-.55c0-.16.05-.29.15-.4.1-.12.22-.18.37-.2a.6.6 0 0 1 .4.09c.1.05.16.14.21.26.04.1.07.21.07.33v.26Z" fill="#1A191C"/><path d="m24.65 15.53.1.05c.05.02.05.03 0 .05-.14.05-.26.01-.35-.1a.54.54 0 0 1-.12-.44c.03-.15.11-.24.25-.27.13-.03.23 0 .3.11.1.13.15.28.13.45 0 .05-.03.08-.09.06-.16-.03-.24-.02-.24.06 0 0 0 .02.02.03Z" fill="#7F7BAE"/><path d="M31.1 15.48c0 .01 0 .02.02 0l.38-.27c.06-.05.12-.04.17.03.02.08 0 .12-.03.15l-.33.24a.62.62 0 0 0-.24.29l-.1.24c-.03.06-.08.08-.15.06-.07-.04-.1-.09-.07-.15l.1-.28a.45.45 0 0 0 .01-.23l-.08-.54c-.01-.08.02-.12.09-.12.03-.01.06 0 .08.01A.1.1 0 0 1 31 15l.1.49ZM23.08 15.7l.13.6a.2.2 0 0 1 0 .14c-.02.03-.05.05-.1.07-.06 0-.12-.01-.16-.06a27.84 27.84 0 0 1-.49-.54v.03l.31.6c.02.06 0 .1-.05.16-.08 0-.14-.02-.17-.07l-.42-.84c-.02-.05-.03-.1 0-.14a.39.39 0 0 1 .1-.1c.1-.06.2-.04.3.08l.37.43c.03.04.04.03.03-.02l-.11-.53c-.03-.14 0-.24.09-.3.07-.06.13-.07.18-.03.04.02.08.08.12.16l.4.78c.02.07 0 .12-.05.15-.07.04-.12.03-.16-.04l-.28-.54c-.04-.07-.06-.07-.04.01ZM32.94 16.45c0-.26-.1-.4-.29-.42-.08 0-.16.02-.24.1a.68.68 0 0 0-.16.23c-.1.23-.05.39.17.48.06.02.17 0 .3-.09h.02a.08.08 0 0 1 .07-.01c.02 0 .04.02.04.04.03.06.02.1-.01.15a.36.36 0 0 1-.36.14c-.23-.04-.38-.14-.47-.33-.08-.18-.06-.37.05-.58.17-.31.4-.42.7-.31.12.03.2.1.27.17s.11.16.13.26c.02.12-.02.2-.1.25h-.04c-.06-.03-.08-.05-.08-.08ZM22 17.18c-.2.14-.35.18-.47.12a.68.68 0 0 1-.21-.2l-.38-.55c-.05-.07-.03-.12.03-.16.07-.05.13-.04.18.03l.41.58a.2.2 0 0 0 .15.08c.06 0 .11-.02.17-.06.06-.04.1-.09.11-.14a.2.2 0 0 0-.02-.17l-.4-.6c-.05-.06-.04-.12.02-.17.06-.05.12-.04.17.02.16.22.29.4.38.55.07.1.1.2.11.27.02.13-.07.27-.26.4Z" fill="#1A191C"/><path d="M34.05 20.08a5.36 5.36 0 0 1 .34 2.65l.01.07c.29.5.52 1.03.69 1.58.02.07.04.07.06 0a5.1 5.1 0 0 0 .15-1.24c0-.02.02-.02.04-.02.07.27.1.54.1.81-.05.26-.1.51-.18.76a.47.47 0 0 0-.02.26 5.33 5.33 0 0 1 .14.51l.1-.02c-.02.32-.06.63-.12.94 0 .05-.03.12-.07.21a1.53 1.53 0 0 0-.1.32c0 .03-.02.05-.04.06l-.36.16a7.56 7.56 0 0 0 .46-1.18c-.03-.26-.08-.5-.13-.74 0-.04-.02-.04-.04 0a3.6 3.6 0 0 0-.2.44 7.58 7.58 0 0 1-1.39 1.9.17.17 0 0 0-.05.15l-.63.24v-.04l.36-.3c.05-.04.07-.07.07-.1a11.71 11.71 0 0 0-.3-1.9l-.02.01a6.18 6.18 0 0 1-1.56 1.22 8.86 8.86 0 0 1-1.3.58c-.05.01-.08.04-.08.1l.02 1.4-.2.06a21.17 21.17 0 0 0 0-1.43c-.01-.02-.03-.03-.05-.02a8.72 8.72 0 0 1-5.15-.04c-.05.46-.07.91-.06 1.36l-.19-.08.06-1.32c0-.04-.01-.07-.05-.08a7.54 7.54 0 0 1-2.52-1.56 2.65 2.65 0 0 0-.2-.18c-.02-.02-.03-.02-.04.02-.1.53-.16 1.09-.17 1.66v.23a10 10 0 0 0-.33-.13 1.32 1.32 0 0 1-.41-.25c-.51-.61-.9-1.27-1.19-1.96-.01-.03-.03-.03-.04 0l-.02.06-.11.69a.43.43 0 0 0 0 .22l.12.3c.02.06 0 .09-.03.09l-.25-.14a.09.09 0 0 1-.05-.07 8.35 8.35 0 0 1-.14-1.64l.19.86c0 .04.02.04.03 0l.03-.18.03-.13.08-.37a.31.31 0 0 0 0-.14l-.27-1.25.16-.84a.4.4 0 0 1 .04.2 5.15 5.15 0 0 0 .16 1.52c.01.07.03.07.05 0a9.8 9.8 0 0 1 .7-1.67c-.13-1 .03-1.97.48-2.88a1 1 0 0 0 .07-.24c.35-.46.74-.88 1.19-1.26a.87.87 0 0 1-.26.37l-.02.02c0 .02.01.02.03.02.15-.04.26-.08.35-.13a.3.3 0 0 0 .1-.08c.38-.44.8-.8 1.26-1.07a12.83 12.83 0 0 1 .95-.51l.01-.08a6.62 6.62 0 0 0 .64-.2 7.64 7.64 0 0 1 2.83-.28c.65.03 1.34.17 2.06.4.05.03.13.05.25.07.07 0 .16.04.28.09.72.3 1.32.65 1.8 1.07.47.4.9.82 1.31 1.27.23.27.41.54.54.8Z" fill="#F0F3FA"/><path d="M29.2 17.04a6.29 6.29 0 0 0-1.85-.27c-.04 0-.07-.02-.07-.07v-.07c0-.04.02-.06.07-.06.72 0 1.43.1 2.12.3.08.02.08.06.01.1l-.08.05a.24.24 0 0 1-.2.02ZM27.12 16.63v.07c.01.04 0 .06-.05.07a7 7 0 0 0-1.71.26.23.23 0 0 1-.2-.02l-.06-.05c-.06-.03-.06-.06 0-.08.64-.2 1.29-.3 1.96-.3.04 0 .06.01.06.05Z" fill="#B9DFF0"/><path d="M33.25 17.76a.58.58 0 0 1-.23-.41.65.65 0 0 1 .14-.48c.1-.14.24-.22.41-.25.17-.03.32 0 .45.11.14.1.21.24.23.42a.65.65 0 0 1-.13.47.63.63 0 0 1-.42.25.56.56 0 0 1-.45-.1ZM20.48 16.8a.13.13 0 0 0-.02.18l.65.76c.05.05.12.06.18.01a.13.13 0 0 0 .01-.18l-.64-.76a.12.12 0 0 0-.18-.01Z" fill="#1A191C"/><path d="M33.39 17.02c-.16.18-.17.42-.03.55.14.12.38.08.53-.1.16-.18.17-.43.02-.55-.14-.12-.37-.08-.52.1Z" fill="#7F7BAE"/><path d="M24.34 16.86a.2.2 0 0 0-.01.08s0 .02-.02.02c-.39.2-.7.35-.93.5-.46.27-.88.62-1.25 1.06a.3.3 0 0 1-.1.08c-.1.05-.21.09-.36.13-.02 0-.03 0-.03-.02l.02-.02c.12-.1.2-.23.26-.37a7.75 7.75 0 0 1 2.42-1.46ZM26.15 17.73c-.2-.17-.4-.34-.62-.5a.04.04 0 0 1-.02-.04 7.79 7.79 0 0 1 1.58-.24c.01 0 .02.01.02.03v.65c0 .02 0 .03-.02.05a.07.07 0 0 1-.05.02c-.26 0-.51.03-.76.09-.03 0-.08-.01-.13-.06ZM27.29 17.64V17c0-.04.02-.06.06-.06a6.8 6.8 0 0 1 1.72.25v.02a.5.5 0 0 1-.1.08c-.17.1-.37.25-.58.44-.03.03-.09.04-.17.02-.3-.04-.6-.06-.9-.07-.02 0-.03-.01-.03-.04ZM32.02 18.4l-.65-.1a.32.32 0 0 1-.2-.1 3.26 3.26 0 0 0-.75-.61 4.93 4.93 0 0 0-.83-.41c-.05-.02-.05-.05 0-.08l.14-.08c.05-.03.1-.04.15-.02.59.21 1.12.49 1.6.83.21.16.41.33.61.54.02.01.01.03 0 .04h-.07Z" fill="#B9DFF0"/><path d="m24.83 17.02.13.07c.05.03.05.05 0 .07a4.66 4.66 0 0 0-1.6 1.03l-.08.09a.17.17 0 0 1-.1.05 103.86 103.86 0 0 0-.76.13v-.01c.4-.4.84-.75 1.34-1.01.3-.17.6-.3.9-.42a.2.2 0 0 1 .17 0Z" fill="#B9DFF0"/><path d="M20.24 18.07c.02 0 .02 0 .01-.02a24.11 24.11 0 0 1-.34-.6c0-.06.02-.13.06-.19.06-.06.12-.08.18-.06a35.84 35.84 0 0 1 .76.71c.05.05.06.1 0 .16-.05.06-.1.06-.15.01l-.5-.49h-.03v.02l.32.53c.05.07.07.15.06.23 0 .05-.03.08-.08.1-.03 0-.07 0-.12-.03l-.5-.28c-.17-.1-.18-.08-.03.06l.38.37a.1.1 0 0 1 .03.08c0 .03-.01.05-.03.08-.06.05-.12.05-.17 0-.25-.23-.48-.46-.68-.67-.06-.05-.06-.1-.02-.17a.4.4 0 0 1 .12-.13c.05-.03.1-.03.16 0a16.44 16.44 0 0 0 .57.29Z" fill="#1A191C"/><path d="M23.56 18.23a4.12 4.12 0 0 1 1.64-.96l.05.01.7.52v.04l-.01.02c-.3.08-.58.2-.83.36a4.85 4.85 0 0 1-.63.02 6.1 6.1 0 0 0-.9.03c-.04 0-.05-.02-.02-.04ZM28.61 17.76a174.16 174.16 0 0 1 .72-.48l.1.01.6.28c.33.16.63.37.9.63v.06h-.03c-.4-.03-.81-.03-1.23 0-.04 0-.07 0-.1-.03a3.24 3.24 0 0 0-.95-.4.04.04 0 0 1-.02-.03l.01-.04Z" fill="#B9DFF0"/><path d="M34.93 17.65c.1.1.19.2.28.32.04.04.04.09 0 .13-.05.05-.1.05-.14.01l-.19-.18c-.01-.02-.03-.02-.05 0l-.6.57c-.07.07-.13.07-.19.01-.06-.06-.05-.12.02-.2l.6-.57c.02-.02.02-.04 0-.05a1.65 1.65 0 0 1-.17-.2c-.03-.05-.03-.1.01-.14.05-.04.1-.04.14 0l.3.3Z" fill="#1A191C"/><path d="m27.65 18.4-.33-.05c-.03 0-.04-.02-.04-.04l.01-.41c0-.03.02-.05.04-.04l.75.04c.02 0 .03.01.04.03l-.01.04-.43.41-.03.01ZM27.11 17.9v.43c0 .02 0 .03-.03.04l-.2.05-.03-.01-.41-.42a.03.03 0 0 1-.01-.04c0-.01.01-.02.03-.02l.61-.06c.03 0 .04 0 .04.03ZM29.23 18.3c-.36.04-.77.12-1.23.23-.05 0-.1 0-.12-.05v-.04l.46-.44a.1.1 0 0 1 .1-.02 6 6 0 0 1 .8.29l-.01.02ZM26.21 18.03l.44.45v.03h-.06c-.37-.1-.75-.16-1.14-.2-.07-.01-.07-.03 0-.06.17-.09.37-.16.58-.22.04-.02.1-.02.14-.02l.04.02Z" fill="#B9DFF0"/><path d="m35.7 18.61.24.34c.03.05.02.1-.02.14-.05.04-.09.04-.13 0a1.54 1.54 0 0 1-.16-.21c-.02-.03-.03-.03-.06-.02-.25.2-.48.36-.68.5-.07.05-.13.04-.18-.03-.05-.07-.04-.13.03-.18l.69-.5c.02-.01.02-.03 0-.05-.04-.07-.1-.14-.14-.23-.02-.05-.01-.1.04-.13.05-.02.1-.01.13.03l.25.34ZM19.28 19.25l.19.15c.03.02.05.01.07-.02l.33-.44c.03-.04.07-.04.12 0 .04.04.04.08.01.13a9.43 9.43 0 0 1-.44.62.05.05 0 0 1-.04.01c-.04 0-.07 0-.1-.02a37.9 37.9 0 0 0-.79-.6.11.11 0 0 1-.03-.08 31.17 31.17 0 0 1 .42-.63c.04-.05.08-.06.13-.02.05.04.06.08.02.13l-.3.44c0 .02 0 .03.02.05l.15.12c.03.02.05.01.07-.01l.29-.4c.04-.05.08-.05.11 0l.01.02c.03.04.03.09 0 .14l-.25.36c-.02.02-.01.04 0 .05Z" fill="#1A191C"/><path d="m24.8 18.45-.16.22a.78.78 0 0 0-.11.32c-.01.05-.04.09-.1.1a8.5 8.5 0 0 0-1.53.76.03.03 0 0 1-.02-.03c-.02-.43.11-.85.4-1.26a.18.18 0 0 1 .13-.08 7.47 7.47 0 0 1 1.39-.03ZM30.1 18.89a1.1 1.1 0 0 0-.25-.42v-.03l.02-.01c.42-.02.84 0 1.26.03.03 0 .07.03.1.09.08.11.15.22.2.33.1.19.17.4.2.65.02.09.02.17 0 .26l-.01.03h-.03a10.98 10.98 0 0 0-1.45-.75.27.27 0 0 1-.02-.1l-.01-.08ZM24.8 18.97a.22.22 0 0 1-.06.01c-.02 0-.03 0-.02-.03a1 1 0 0 1 .36-.48c.02-.02.06-.02.1-.02a10.52 10.52 0 0 1 1.05.16c.05.02.04.04 0 .04-.5.06-.98.17-1.44.32ZM28.42 18.63c.25-.08.6-.13 1.04-.17.06 0 .1 0 .13.02.16.12.28.29.36.5V19h-.04a8.01 8.01 0 0 0-1.52-.38h.03ZM31.55 18.5a6.1 6.1 0 0 1 .84.2c.15.16.3.4.46.71.26.52.38 1.08.36 1.68 0 .01-.01.02-.03.02-.01 0-.03 0-.04-.03a7.34 7.34 0 0 0-1.3-1.1.08.08 0 0 1-.04-.08c.03-.25.01-.49-.06-.73-.06-.21-.16-.42-.3-.63v-.03a3.27 3.27 0 0 0 .1 0ZM21.44 21.08h-.02c-.02-.02-.03-.04-.03-.08 0-.8.23-1.52.7-2.16.06-.06.1-.1.16-.12a8.73 8.73 0 0 1 .78-.17h.02v.03l-.06.1a2.06 2.06 0 0 0-.27 1.25c0 .04-.01.07-.04.09a9.3 9.3 0 0 0-1.24 1.06Z" fill="#B9DFF0"/><path d="M32.71 18.83c-.03-.04-.03-.06 0-.07l.3.1c.05.02.1.05.13.1l.02.03.4.55a4.82 4.82 0 0 1 .65 2.89l-.03-.01c-.23-.37-.5-.72-.79-1.06a.1.1 0 0 1-.03-.08 3.5 3.5 0 0 0-.65-2.45ZM26.63 19l-.01.03c-.47.2-.92.47-1.38.78-.03.02-.07 0-.12-.03a1.01 1.01 0 0 1-.42-.55l.01-.03a7.96 7.96 0 0 1 1.78-.39l.14.18ZM27.99 18.96c.06-.11.14-.16.23-.15l.44.06c.39.07.8.18 1.26.33.02.01.03.03.02.06-.09.24-.25.43-.47.55a.09.09 0 0 1-.1 0c-.42-.3-.88-.57-1.36-.79-.03-.01-.03-.03-.02-.06ZM21.78 18.88c.05-.02.07 0 .04.04l-.2.36a3.44 3.44 0 0 0-.38 1.98 9 9 0 0 0-.86 1.16c-.03.04-.04.04-.04 0-.05-.43-.03-.86.06-1.3.14-.7.42-1.34.85-1.93.06-.1.12-.15.18-.18.1-.05.22-.1.35-.13ZM27.03 19.15c-.25.35-.49.7-.7 1.06-.02.03-.06.04-.13.02a4.44 4.44 0 0 1-.8-.29v-.02l.4-.26c.32-.18.67-.36 1.05-.55a.16.16 0 0 1 .17.02v.02ZM27.7 19.48a20.64 20.64 0 0 0-.2-.33l.02-.02c.1-.03.2-.03.29 0a8.76 8.76 0 0 1 1.41.82l-.02.02a4.55 4.55 0 0 0-.3.13l-.66.18c-.02 0-.04 0-.05-.02-.14-.25-.3-.5-.49-.78ZM27.24 20.35a5.23 5.23 0 0 1-.74-.09 8.7 8.7 0 0 1 .76-1.07 8.68 8.68 0 0 1 .7 1.11c-.24.04-.48.05-.72.05ZM24.89 19.83l.1.1c.03.01.03.03 0 .05-.49.37-.94.78-1.34 1.22-.03.03-.06.03-.09 0-.3-.3-.5-.65-.64-1.06-.01-.03 0-.06.03-.08a25.34 25.34 0 0 1 .48-.3 11.68 11.68 0 0 1 1.08-.48l.03.03c.06.2.18.36.35.52ZM29.7 19.87c.19-.16.29-.27.31-.32l.1-.21c0-.04.03-.05.06-.03.5.2.97.43 1.38.7.04.03.06.06.04.11-.1.43-.32.79-.64 1.08h-.04a8.62 8.62 0 0 0-1.29-1.2c-.02-.02-.02-.03 0-.05a2 2 0 0 1 .08-.08Z" fill="#B9DFF0"/><path d="M36.42 19.7c.09.14.1.3.05.47a.64.64 0 0 1-.3.38.62.62 0 0 1-.48.07.57.57 0 0 1-.37-.28.6.6 0 0 1-.05-.48c.05-.16.15-.3.3-.38a.62.62 0 0 1 .48-.07c.17.04.29.14.37.29ZM18.63 20.34l.01.03.33.19c.07.04.08.1.05.16-.05.08-.1.1-.17.06l-.84-.44c-.09-.04-.11-.1-.07-.2.1-.23.18-.4.26-.5a.33.33 0 0 1 .35-.14.3.3 0 0 1 .16.1c.04.04.07.1.08.18l.01.1c0 .02.01.02.03.02.15-.02.3-.04.44-.04.07 0 .1.03.11.11 0 .08-.04.13-.12.14l-.36.04c-.14 0-.23.07-.27.2Z" fill="#1A191C"/><path d="M20.73 19.58a1 1 0 0 1-.07.24c-.45.91-.6 1.87-.47 2.88l-.03.1a9.8 9.8 0 0 0-.68 1.57c-.02.07-.04.07-.05 0l-.03-.14a5.13 5.13 0 0 1-.13-1.38.4.4 0 0 0-.04-.2 8.38 8.38 0 0 1 1.5-3.07Z" fill="#B9DFF0"/><path d="M36.04 20.31c.2-.11.3-.34.2-.5-.1-.17-.33-.21-.53-.1-.2.12-.3.35-.2.51.1.17.33.2.53.1ZM18.2 20.15c-.03-.02-.04-.03-.02-.06l.08-.18c.03-.06.07-.1.11-.13.05-.03.09-.03.12-.02l.04.02c.03.02.05.05.05.1 0 .06 0 .12-.03.18l-.1.18c0 .02-.02.03-.04.01l-.22-.1Z" fill="#7F7BAE"/><path d="m26.2 20.45-.1.18a18.52 18.52 0 0 0-.66 1.55c0 .03-.03.05-.06.04a4.8 4.8 0 0 1-1.61-.83c-.02-.01-.02-.03 0-.05.43-.48.9-.9 1.4-1.26a.08.08 0 0 1 .08 0c.29.15.6.26.94.33.02 0 .02.02.01.04ZM28.34 20.43c.37-.06.72-.17 1.05-.34a.06.06 0 0 1 .06 0l.17.12c.4.3.77.66 1.14 1.07.04.04.03.08 0 .11a4.8 4.8 0 0 1-1.67.85c-.03 0-.04 0-.05-.04a14.14 14.14 0 0 0-.73-1.75l.03-.02ZM35.34 23.13h-.04a.6.6 0 0 0-.01.2v.18c-.03.3-.07.58-.14.87-.02.07-.04.07-.06 0a8.35 8.35 0 0 0-.7-1.65v-.08c.1-.85-.01-1.71-.34-2.57.12.13.24.3.36.52a8.32 8.32 0 0 1 .93 2.52ZM31.1 21.3c.32-.31.53-.67.65-1.08 0-.02.02-.03.03-.04l.05.01c.46.33.89.71 1.3 1.15.03.03.04.08.02.14a3.89 3.89 0 0 1-.87 1.68c-.01 0-.02 0-.03-.02a9.67 9.67 0 0 0-1.16-1.75c-.02-.03-.02-.06 0-.09ZM22.78 20.23c.03.12.07.23.11.32.15.3.34.57.57.8.02.02.02.04 0 .06a9.2 9.2 0 0 0-1.18 1.71h-.02a3.5 3.5 0 0 1-.82-1.67c0-.06 0-.11.03-.14a8.17 8.17 0 0 1 1.29-1.1l.02.02ZM27.24 20.53c.27 0 .54-.02.8-.05.03 0 .05 0 .06.03.3.57.56 1.15.75 1.75.01.03 0 .05-.03.06a7.48 7.48 0 0 1-1.94.16c-.4-.02-.82-.09-1.24-.18-.03-.01-.05-.03-.03-.06.2-.6.45-1.17.77-1.74 0-.03.03-.04.05-.03.27.04.54.06.81.06Z" fill="#B9DFF0"/><path d="M36.5 21c-.12.03-.32.1-.6.23-.07.03-.12 0-.15-.07-.04-.07-.02-.12.05-.15.45-.2.75-.31.92-.37.1-.03.16 0 .18.13.01.04 0 .1-.06.17l-.44.64c-.03.04-.02.05.03.03l.6-.24c.07-.02.12 0 .16.08v.03a.1.1 0 0 1-.07.1l-.93.38c-.08.02-.14 0-.18-.08-.02-.06-.01-.11.03-.17l.47-.69c.02-.02.01-.03-.01-.02ZM18.2 21.47l.3.13c.08.03.1.08.08.16-.03.08-.08.1-.16.08l-.88-.35c-.1-.04-.12-.1-.1-.18l.14-.37c.07-.18.17-.27.28-.28a.4.4 0 0 1 .34.1c.1.09.13.2.1.34l-.1.33v.04Z" fill="#1A191C"/><path d="M17.7 21.27c-.02 0-.02-.02-.02-.04l.06-.15c.02-.06.05-.1.1-.13.04-.03.08-.04.12-.02l.04.02c.04.01.07.05.08.1.01.05 0 .1-.02.16l-.05.15c0 .02-.02.02-.04.02l-.27-.11Z" fill="#7F7BAE"/><path d="M30.9 21.49h.04c.46.55.85 1.15 1.19 1.8l-.01.07a6.26 6.26 0 0 1-2.38 1.44c-.02 0-.04 0-.06-.02a17.16 17.16 0 0 0-.55-2.26l.01-.1c.01-.02.04-.03.08-.05a4.6 4.6 0 0 0 1.69-.88ZM23 23.83c-.18-.14-.36-.3-.55-.5a.06.06 0 0 1-.01-.08 8.89 8.89 0 0 1 1.16-1.73c.02-.02.04-.02.06 0a5.1 5.1 0 0 0 1.64.86c.04 0 .05.04.04.08a21.57 21.57 0 0 0-.6 2.29 6.55 6.55 0 0 1-1.73-.92ZM20.87 22.02a7.77 7.77 0 0 1 .4-.46l.02.02c.15.65.45 1.22.9 1.72v.04a9.63 9.63 0 0 0-.69 1.82c-.01 0-.03 0-.04-.02a5.51 5.51 0 0 1-1.07-2.28c0-.06 0-.12.05-.19l.43-.65ZM33.34 21.58c.28.33.54.67.76 1.05.05.07.07.14.07.19 0 .04 0 .11-.03.2a5.24 5.24 0 0 1-1.05 2.14c-.03.03-.05.02-.07-.02a10.48 10.48 0 0 0-.65-1.78l.3-.36a4.04 4.04 0 0 0 .65-1.43l.02.01Z" fill="#B9DFF0"/><path d="M17.9 22.65c-.03 0-.06.03-.09.07-.11.21-.19.34-.22.38a.28.28 0 0 1-.27.11.3.3 0 0 1-.25-.17.51.51 0 0 1-.04-.28.6.6 0 0 1 .1-.28.37.37 0 0 1 .24-.15c.05-.01.1 0 .12.06l.02.02c.03.05.01.09-.04.11l-.05.02c-.08.03-.13.07-.16.1a.26.26 0 0 0-.03.25c.02.06.06.08.1.08.05 0 .09-.03.12-.08l.16-.3c.1-.18.24-.24.43-.18.14.05.22.16.24.33a.6.6 0 0 1-.21.55.27.27 0 0 1-.13.07c-.14.03-.22-.01-.22-.13l.03-.06a.09.09 0 0 1 .06-.03c.18-.02.27-.12.27-.3 0-.12-.05-.18-.17-.19ZM37.06 22.93h.01l.46.21c.06.03.08.08.06.15-.03.06-.08.08-.14.06a7.67 7.67 0 0 1-.44-.19.78.78 0 0 0-.49 0 .2.2 0 0 1-.11-.01c-.06-.02-.09-.05-.1-.09 0-.03.02-.07.06-.11a.2.2 0 0 1 .11-.05c.2-.02.36-.08.46-.17l.35-.33c.05-.04.1-.04.15 0v.01c.05.06.04.11 0 .16a9.73 9.73 0 0 1-.38.36Z" fill="#1A191C"/><path d="M24.95 24.82v-.14c.14-.73.33-1.46.56-2.18.01-.03.04-.05.07-.04a6.9 6.9 0 0 0 3.28.02c.05 0 .08 0 .1.06.23.73.4 1.49.54 2.28 0 .04 0 .06-.04.07a8.04 8.04 0 0 1-4.5-.07ZM34.35 23.06a8.64 8.64 0 0 1 .67 1.78c-.1.28-.2.5-.27.67a6.72 6.72 0 0 1-1.31 1.83c-.01.02-.02.01-.03 0a9.92 9.92 0 0 0-.3-1.88l.01-.06c.05-.07.1-.15.18-.23a5.27 5.27 0 0 0 1.03-2.12h.02ZM21.24 27.4a6.08 6.08 0 0 1-1.66-2.51.35.35 0 0 1 0-.22 15.9 15.9 0 0 1 .34-.97 20.88 20.88 0 0 1 .3-.62h.03l.01.01a5.67 5.67 0 0 0 1.17 2.29c.02.02.03.05.02.08a8.26 8.26 0 0 0-.21 1.93ZM21.85 24.67a8.41 8.41 0 0 1 .48-1.18l.04.01a6.1 6.1 0 0 0 2.3 1.42c.04.01.05.04.04.08a21.72 21.72 0 0 0-.28 2.17h-.04a6.88 6.88 0 0 1-2.7-1.79c-.02-.03-.02-.08 0-.14l.16-.57ZM18.98 24.7c-.02-.4.02-.8.1-1.2l.26 1.24c.01.04.01.09 0 .14a59.02 59.02 0 0 0-.17.68l-.2-.86Z" fill="#B9DFF0"/><path d="M37.68 24c0 .07-.03.13-.1.17-.2.12-.52.28-.93.48-.07.03-.11 0-.14-.06l-.01-.02c-.03-.06-.01-.11.05-.14l.15-.09c.05-.03.07-.12.05-.25a1.08 1.08 0 0 1 0-.04c0-.13-.04-.21-.1-.24a2.4 2.4 0 0 0-.15-.06c-.07-.02-.1-.07-.07-.13v-.03c.02-.07.06-.1.13-.07.44.13.77.23 1 .32.07.03.11.08.12.16Z" fill="#1A191C"/><path d="M31.47 24.14a6.02 6.02 0 0 0 .75-.61c.02 0 .02 0 .03.02.27.58.48 1.17.64 1.77 0 .04-.01.09-.07.14a7.03 7.03 0 0 1-2.84 1.77l-.01-.02c-.06-.72-.14-1.43-.25-2.15 0-.04.02-.07.06-.09.6-.19 1.16-.47 1.7-.83Z" fill="#B9DFF0"/><path d="M17.13 24.23c.08.02.14-.03.18-.15l.01-.04c.05-.15.1-.26.14-.32a.3.3 0 0 1 .27-.15c.16 0 .28.08.33.23.05.13.07.24.04.34a.76.76 0 0 1-.1.25.44.44 0 0 1-.22.15c-.05.02-.09.02-.11 0-.08-.08-.08-.15 0-.2l.11-.06c.06-.03.1-.08.12-.14a.3.3 0 0 0 0-.2c-.03-.08-.08-.12-.17-.1-.06 0-.1.05-.14.14-.04.13-.08.24-.13.34-.06.11-.16.17-.3.16-.13-.01-.22-.1-.27-.24a.57.57 0 0 1 .06-.52.28.28 0 0 1 .23-.13c.04 0 .07.01.1.04.02.04.02.07 0 .1-.01.03-.05.06-.1.1a.3.3 0 0 0-.08.04.25.25 0 0 0-.03.3l.06.06Z" fill="#1A191C"/><path d="m36.95 23.89.4.11.02.02-.01.01-.38.19c-.01 0-.02 0-.02-.02l-.03-.3c0-.01 0-.02.02-.01Z" fill="#7F7BAE"/><path d="M35.44 23.93a7.36 7.36 0 0 1 .06 1.1c.01.14 0 .28-.02.41l-.1.02-.03-.01-.1-.5a.47.47 0 0 1 0-.26c.08-.25.14-.5.19-.76Z" fill="#B9DFF0"/><path d="M17.78 25.28v.2l.05.06.2.08c.04.04.06.09.04.16-.05.06-.1.08-.16.06l-.87-.32c-.13-.05-.2-.12-.2-.21s.06-.16.2-.22c.13-.07.42-.19.84-.37.06-.02.11 0 .16.05.03.07.01.12-.04.16l-.18.1a.07.07 0 0 0-.04.06v.2ZM37 25.14c0-.02 0-.03-.02-.03l-.37-.02c-.08 0-.12-.04-.11-.12v-.01c0-.08.04-.12.12-.12h.7c.1 0 .21.02.32.04.04.01.06.04.07.08 0 .17 0 .35-.02.55 0 .1-.03.18-.07.22-.09.12-.2.16-.32.13-.12-.02-.2-.1-.26-.23 0-.03-.02-.03-.03-.02-.14.1-.27.18-.39.24-.07.03-.12.01-.15-.06-.03-.08 0-.13.06-.17a5.36 5.36 0 0 0 .3-.18.32.32 0 0 0 .18-.3Z" fill="#1A191C"/><path d="M27.22 25.36a7.85 7.85 0 0 0 2.3-.3c.02 0 .03 0 .04.03.1.73.18 1.46.23 2.18 0 .03-.01.05-.04.06a8.61 8.61 0 0 1-5.1-.05c-.03 0-.05-.03-.04-.06.06-.72.16-1.45.27-2.18 0-.02.02-.03.04-.02l.51.12c.57.14 1.16.21 1.79.22Z" fill="#B9DFF0"/><path d="m37.5 25.12.01.01v.27l-.05.14c-.03.04-.06.06-.1.06h-.04c-.03 0-.07-.03-.1-.07a.25.25 0 0 1-.03-.14l.01-.27h.31ZM17.55 25.45l-.39-.13-.01-.02v-.02l.4-.15c.01 0 .02 0 .02.02v.28c0 .02 0 .03-.02.02Z" fill="#7F7BAE"/><path d="M20.69 27.15c-.15-.04-.3-.1-.46-.18l-.8-.42c.03 0 .04-.03.01-.1a8.08 8.08 0 0 0-.1-.3.43.43 0 0 1-.01-.21 51.5 51.5 0 0 0 .13-.76c.01-.02.03-.02.04 0 .28.7.68 1.36 1.19 1.97ZM34.8 27.13l-1.36.57c-.01-.06 0-.11.05-.16a14.2 14.2 0 0 0 .65-.71 7.58 7.58 0 0 0 .94-1.62c.02-.04.03-.04.04 0a7.78 7.78 0 0 1 .11.82c-.1.36-.26.73-.44 1.1ZM24.35 28.76a42.1 42.1 0 0 1-2.93-1.23v-.23c.02-.57.08-1.13.18-1.66 0-.04.02-.04.05-.02l.19.18.13.13a6.82 6.82 0 0 0 2.39 1.43c.04.01.06.04.05.08l-.06 1.32ZM32.81 27.94c-.92.36-1.86.68-2.81.97l-.02-1.4c0-.06.03-.09.08-.1a8.87 8.87 0 0 0 1.95-1 6.18 6.18 0 0 0 .94-.8l.01.01c.14.61.24 1.24.28 1.87 0 .04-.02.07-.07.1a5.8 5.8 0 0 0-.36.34v.01Z" fill="#B9DFF0"/><path d="m17.98 26.52-.07-.42c-.01-.05 0-.1 0-.14l.04-.04H18c.05.02.09.05.1.1a4.79 4.79 0 0 1 .1.68v.03a.2.2 0 0 1-.1.05c-.32.07-.63.12-.95.17-.08.02-.12-.02-.14-.1-.01-.08.02-.13.1-.15l.85-.16c.02 0 .02 0 .02-.02ZM36.72 26.92c.26.05.5.09.67.14.08.02.1.06.1.13l-.06.07a.1.1 0 0 1-.08.02c-.4-.07-.72-.12-.93-.17a.23.23 0 0 1-.12-.07c-.04-.04-.04-.08-.02-.12a.3.3 0 0 1 .14-.14l.68-.3c.06-.02.06-.04 0-.05l-.6-.11c-.08-.01-.1-.06-.1-.13.02-.08.06-.11.13-.1.34.05.65.1.95.17.11.02.16.1.12.22a41.22 41.22 0 0 1-.89.45Z" fill="#1A191C"/><path d="M19.47 26.98a7.76 7.76 0 0 0 2.03 2.64 2.65 2.65 0 0 1 .13.47l.14.5-.42.03c-.03 0-.05 0-.07-.03a8.47 8.47 0 0 1-2.04-3.7c-.01-.04 0-.05.04-.03l.2.12Z" fill="#B9DFF0"/><path d="m19.47 26.98.36.19c-.02.05-.02.09 0 .12.41.74.92 1.38 1.52 1.94.05.05.08.04.06-.04-.08-.44-.14-.89-.17-1.34l.2.1c.02.49.08.96.18 1.43a.3.3 0 0 0 .1.18c.38.3.82.6 1.31.88l-.33.04a.7.7 0 0 0-.11-.1 8.55 8.55 0 0 1-.8-.53c-.03-.03-.05-.02-.04.03.05.19.11.39.2.6l.05.08-.23.02a11.67 11.67 0 0 0-.33-1.03 7.76 7.76 0 0 1-1.97-2.57Z" fill="#F0F3FA"/><path d="M18.2 27.76c.02-.02.03-.05.03-.1.02-.17-.03-.29-.16-.34a.9.9 0 0 0-.14-.04.11.11 0 0 1-.07-.05.1.1 0 0 1-.02-.08c.01-.03.04-.06.09-.08a.2.2 0 0 1 .1 0c.13.01.23.08.3.2.08.1.12.21.12.35 0 .16-.05.3-.17.4-.1.1-.25.17-.42.2a.58.58 0 0 1-.66-.6c0-.1.02-.18.07-.26.06-.1.13-.15.2-.15.05 0 .09.02.1.06.01.04 0 .08-.02.11v.01a.82.82 0 0 0-.12.2.26.26 0 0 0 .02.21c.05.1.14.16.26.16.2 0 .36-.07.49-.2Z" fill="#1A191C"/><path d="M21.24 27.85c.03.45.09.9.17 1.34.02.08 0 .09-.06.04-.6-.56-1.1-1.2-1.52-1.94-.02-.03-.02-.07 0-.12l1.41.68ZM32.99 30.77a.27.27 0 0 1 0-.19 17.4 17.4 0 0 0 .1-.26l.08-.33.13-.56c.01-.05.03-.09.07-.12a8.34 8.34 0 0 0 1.4-1.76l.24-.12c.04-.02.05 0 .04.03a8.38 8.38 0 0 1-2.06 3.31ZM29.8 28.97c-.79.24-1.64.47-2.56.7-.1.02-.2.02-.28 0-.8-.26-1.61-.53-2.42-.83-.01-.45 0-.9.06-1.36 0-.02 0-.03.03-.02l.11.04c1.67.5 3.34.5 5.01.02.02 0 .04 0 .05.02l.01.05v1.38Z" fill="#B9DFF0"/><path d="M34.77 27.55a8.34 8.34 0 0 1-1.4 1.76.25.25 0 0 0-.07.12 17.1 17.1 0 0 0-.21.89 7.62 7.62 0 0 0-.1.26.27.27 0 0 0 0 .2.68.68 0 0 0-.13.17c-.05.08-.11.1-.2.06.18-.45.32-.9.42-1.37 0-.04 0-.05-.04-.02a11.45 11.45 0 0 1-1.66 1.1.45.45 0 0 1-.14.05l-.26-.07a7.95 7.95 0 0 0 2.17-1.47c.06-.35.1-.7.08-1.06l.19-.07v.39l-.05.51c0 .02 0 .03.02.02l.03-.01a7.21 7.21 0 0 0 1.03-1.32l.32-.14Z" fill="#F0F3FA"/><path d="M34.45 27.69a6.09 6.09 0 0 1-1.06 1.33c-.01 0-.02 0-.02-.02l.05-.51v-.4l1.03-.4Z" fill="#B9DFF0"/><path d="m36.25 28.66.02.03a.2.2 0 0 1 .04.13c0 .04-.01.06-.05.08a.08.08 0 0 1-.09-.01l-.02-.02a.6.6 0 0 0-.12-.09.16.16 0 0 0-.13 0l-.07.03c-.04.02-.07.02-.1 0-.02-.01-.03-.04-.03-.08s.04-.1.13-.16a.6.6 0 0 0 .04-.03c.01 0 .02-.02.01-.03-.03-.24.01-.44.14-.58.06-.06.13-.1.2-.1.08-.02.15 0 .22.03.05.03.1.07.12.12l.05.14.02.07c.01.03.03.04.06.03a.4.4 0 0 1 .19-.01c.06.01.12.06.16.14.04.07.05.14.04.2-.03.16-.1.26-.2.3-.13.06-.23.04-.3-.05a.58.58 0 0 1-.1-.23c0-.02-.01-.03-.03-.02l-.19.06c-.03 0-.03.02-.01.05Z" fill="#1A191C"/><path d="M21.74 28.08c.07.08.16.16.25.22a11.25 11.25 0 0 0 1.69.93l.66.24c.03 0 .05.03.05.07l.04.7-1.4.2c-.5-.28-.93-.57-1.31-.88a.3.3 0 0 1-.1-.18c-.1-.46-.16-.94-.18-1.43l.3.13Z" fill="#B9DFF0"/><path d="M36.16 28.4c-.04.02-.06 0-.08-.03a.26.26 0 0 1 0-.18c.01-.05.04-.1.1-.11.05-.02.1-.02.15.01.05.03.09.07.11.13v.01c.02.04 0 .06-.03.07l-.25.1Z" fill="#7F7BAE"/><path d="m21.74 28.08 1.18.52c.04.05.08.09.14.11a1.2 1.2 0 0 1 .24.15 8.18 8.18 0 0 0 1.04.4c.02 0 .03-.03.02-.05l-.02-.03v-.02h.02l.2.08.01.1s0 .02.02.02a8.2 8.2 0 0 1 .5.08l1.27.41c.04.01.04.02 0 .03l-.31.04a.28.28 0 0 0-.18-.09c-.41-.06-.82-.15-1.24-.27-.05-.01-.07 0-.06.05l.06.6-.2.03-.04-.7a.07.07 0 0 0-.05-.07 10.27 10.27 0 0 1-1.3-.54c-.36-.19-.71-.4-1.05-.63-.1-.06-.18-.14-.25-.22Z" fill="#F0F3FA"/><path d="M33.23 28.17c.01.36-.02.71-.08 1.06 0 .02-.02.04-.04.06a7.95 7.95 0 0 1-2.13 1.41l-1.17-.25.12-.84c0-.03.02-.05.05-.06.7-.2 1.36-.48 1.99-.85.05-.03.09-.06.12-.1l1.14-.43Z" fill="#B9DFF0"/><path d="M36.73 28.44h.13l.03.06v.06c.02.04 0 .07-.04.09l-.06.01c-.04.02-.08 0-.1-.04l-.02-.07a.07.07 0 0 1 0-.07.07.07 0 0 1 .06-.04Z" fill="#7F7BAE"/><path d="M32.08 28.6a.33.33 0 0 1-.11.1c-.63.37-1.3.65-1.99.85a.07.07 0 0 0-.05.06l-.12.84-.18-.04.1-.75v-.02h-.06c-.5.12-1.02.21-1.54.27-.04 0-.06.03-.07.08l-.24-.07c-.04-.01-.04-.02 0-.03a90.75 90.75 0 0 0 2.34-.64 39.16 39.16 0 0 0 1.92-.65Z" fill="#F0F3FA"/><path d="M24.36 29.15h-.02v.03l.02.03c0 .02 0 .04-.02.05h-.04a8.19 8.19 0 0 1-1.25-.55.38.38 0 0 1-.13-.1l1.44.54Z" fill="#B9DFF0"/><path d="M18.29 30.01a.12.12 0 0 1-.1 0 .12.12 0 0 1-.08-.06l-.17-.34a.53.53 0 0 1-.03-.42.55.55 0 0 1 .28-.33l.09-.04a.53.53 0 0 1 .42-.04c.14.05.25.14.32.27l.17.34c.02.04.02.07 0 .1a.13.13 0 0 1-.06.08l-.84.44Z" fill="#1A191C"/><path d="M18.29 29.72c-.04.02-.07 0-.09-.03l-.07-.14a.29.29 0 0 1 0-.25.4.4 0 0 1 .2-.2l.05-.03a.4.4 0 0 1 .27-.04c.1.02.16.07.2.14l.07.15c.02.03.01.06-.03.08l-.6.32Z" fill="#7F7BAE"/><path d="M35.53 30.38c-.13.06-.24.07-.34 0a.32.32 0 0 1-.15-.18.35.35 0 0 1 .02-.25c.07-.16.17-.34.3-.53.03-.06.09-.07.16-.03a38.89 38.89 0 0 1 .88.54v.03c0 .03-.01.08-.04.14-.11.22-.2.37-.26.44-.1.12-.22.16-.35.1-.09-.03-.15-.11-.2-.25 0-.02 0-.02-.02-.01Z" fill="#1A191C"/><path d="M26.04 29.92a24.93 24.93 0 0 1-1.42.29l-.05-.6c0-.05.01-.06.06-.05.41.12.83.21 1.24.27.07.01.13.04.17.1ZM32.65 31.01l-1.4-.24.13-.05a13.26 13.26 0 0 1 .42-.24c.44-.26.85-.55 1.24-.86.03-.03.04-.02.04.02-.1.46-.25.92-.43 1.37ZM29.63 30.4 28.06 30c0-.05.03-.08.07-.08a12.9 12.9 0 0 0 1.6-.27l.01.02-.11.75Z" fill="#B9DFF0"/><path d="M35.7 29.8c.02.01.03.03.02.05l-.1.18a.38.38 0 0 1-.12.14c-.05.03-.09.03-.12.01l-.07-.04c-.03-.01-.04-.05-.04-.1 0-.06.02-.12.05-.18l.1-.18c.02-.02.03-.03.05-.01l.23.13Z" fill="#7F7BAE"/><path d="M19.45 30.3v-.03l-.24-.44c-.03-.04-.02-.08.02-.1l.02-.03a.08.08 0 0 1 .07-.01c.02 0 .04.01.06.04a14.48 14.48 0 0 0 .34.57c.03.06.02.11-.03.15-.32.22-.58.39-.79.51-.07.05-.14.05-.2 0a.09.09 0 0 1-.03-.05l.01-.07c.03-.05.08-.1.14-.13l.63-.41Z" fill="#1A191C"/><path d="m22.7 30.48-.7.08a.23.23 0 0 1-.05-.08 3.82 3.82 0 0 1-.2-.6c0-.05 0-.06.05-.03.25.2.52.37.79.53a.7.7 0 0 1 .1.1Z" fill="#B9DFF0"/><path d="M36.13 30.05c.02 0 .02.02.01.04l-.08.14a.43.43 0 0 1-.12.14c-.04.03-.07.04-.1.02l-.06-.03c-.03-.02-.04-.05-.04-.1 0-.06.03-.12.06-.18l.08-.14c.01-.02.03-.02.05-.01l.2.12Z" fill="#7F7BAE"/><path d="m29.56 30.76-.08.43c0 .02-.01.03-.02.03a9.26 9.26 0 0 1-4.64-.06.06.06 0 0 1-.05-.04 2.82 2.82 0 0 1-.08-.56c.78-.13 1.55-.29 2.3-.47a.34.34 0 0 1 .18.01c.8.25 1.6.47 2.4.66Z" fill="#B9DFF0"/><path d="M35.48 31.46c-.04.06-.1.08-.15.07a11.9 11.9 0 0 1-1.03-.3c-.07-.02-.1-.07-.08-.14.02-.08.06-.1.13-.09.15.04.24.05.26.02a1.9 1.9 0 0 0 .24-.3c.01-.03-.02-.12-.09-.26-.03-.06-.02-.11.05-.15.07-.04.12-.02.16.05.28.45.46.76.54.94.02.05.01.1-.03.16Z" fill="#1A191C"/><path d="M24.69 30.56c0 .19.03.38.08.56 0 .03.02.04.04.05a9.26 9.26 0 0 0 4.65.05l.02-.03.08-.43.17.04-.07.35c0 .01 0 .02.01.01.23-.03.44-.1.63-.22l.4.08c-.34.14-.7.26-1.04.35a.1.1 0 0 0-.09.08c-.13.52-.29 1.01-.48 1.5-.07.07-.14.08-.22.05.1-.23.19-.48.28-.74a6.45 6.45 0 0 0 .22-.8c-.08 0-.25.03-.52.08l-.53.09a9.66 9.66 0 0 1-3.45-.26c-.04-.01-.05 0-.04.05.13.52.28 1.03.45 1.52a.34.34 0 0 1-.22-.07 10.62 10.62 0 0 1-.45-1.57 6.81 6.81 0 0 1-1.3-.52l.34-.05h.06c.01 0 .02 0 .03.02a8.4 8.4 0 0 0 .82.32l.01-.02c0-.15-.04-.3-.1-.45l.22-.04Z" fill="#F0F3FA"/><path d="M19.65 31.1c.01.01.02 0 .03-.01.03-.15.07-.29.12-.43.03-.08.08-.1.15-.07.07.04.1.09.08.16l-.11.36c-.04.12-.02.23.06.32.02.02.04.02.07 0l.26-.23c.06-.05.12-.05.18.02a.1.1 0 0 1 .04.09c0 .03-.02.05-.04.08-.2.2-.45.4-.73.64-.07.06-.13.06-.18.01-.17-.16-.3-.32-.39-.47a.33.33 0 0 1 .06-.42c.1-.1.24-.12.4-.04Z" fill="#1A191C"/><path d="M24.48 30.6c.05.15.08.3.1.45l-.02.02h-.03a8.38 8.38 0 0 1-.79-.32.04.04 0 0 0-.03-.02h-.06l.83-.13ZM23.3 30.78a6.81 6.81 0 0 0 1.31.52 10.62 10.62 0 0 0 .45 1.57 7.82 7.82 0 0 1-2.69-1.31l-.25-.65 1.19-.13ZM30.3 30.94c-.19.12-.4.2-.63.22-.01 0-.02 0-.01-.01l.07-.35.57.14Z" fill="#B9DFF0"/><path d="m35 30.88.23.37v.02h-.01l-.4-.14c-.02 0-.02 0-.02-.02l.18-.23h.03Z" fill="#7F7BAE"/><path d="m22.12 30.91.25.65c-.16-.11-.3-.22-.4-.34.03-.07 0-.16-.08-.28l.23-.03Z" fill="#F0F3FA"/><path d="M21.89 30.94c.08.12.11.21.08.27l-.3-.23v-.01l.01-.01.21-.02ZM29.1 32.95c.18-.49.34-.98.47-1.5.02-.04.04-.07.09-.08.35-.1.7-.21 1.05-.35l1.64.3v.03a8.17 8.17 0 0 1-3.26 1.6Z" fill="#B9DFF0"/><path d="M19.67 31.77c-.03.02-.05.02-.08 0l-.1-.12a.46.46 0 0 1-.1-.16c0-.06 0-.1.02-.12l.07-.06c.02-.02.06-.02.1 0 .06.03.1.07.15.12l.1.12c.03.03.02.05 0 .07l-.16.15Z" fill="#7F7BAE"/><path d="M34.04 31.62c-.02-.02-.03-.02-.05 0l-.35.34c-.05.04-.1.04-.13 0v-.01c-.05-.05-.05-.1 0-.14a7.53 7.53 0 0 1 .52-.49c.02-.01.06 0 .11.05l.68.72a.1.1 0 0 1 .03.08.12.12 0 0 1-.05.09c-.05.06-.1.06-.17 0l-.6-.64Z" fill="#1A191C"/><path d="M28.87 33a8.6 8.6 0 0 1-3.6-.06c-.16-.5-.31-1-.44-1.52-.01-.04 0-.06.04-.05a9.87 9.87 0 0 0 3.45.26l.53-.09a6.69 6.69 0 0 1 .53-.07c-.05.26-.13.53-.23.8l-.28.73Z" fill="#B9DFF0"/><path d="M21.21 31.93c.1.11.16.24.16.4 0 .15-.06.28-.17.4l-.1.1c-.11.1-.24.16-.4.16a.52.52 0 0 1-.38-.17l-.06-.06a.54.54 0 0 1-.16-.4c0-.15.06-.29.17-.4l.1-.1c.11-.1.24-.16.4-.16.15 0 .27.06.38.17l.06.06Z" fill="#1A191C"/><path d="M20.48 32.12c-.15.18-.17.42-.03.55.14.12.38.08.54-.1.15-.18.17-.42.03-.55-.14-.12-.38-.08-.54.1Z" fill="#7F7BAE"/><path d="M33.59 32.76c-.02-.02-.03-.02-.05 0l-.34.26a.14.14 0 0 1-.13.02h-.02c-.06-.04-.06-.08-.02-.12.11-.11.24-.22.38-.32.03-.02.03-.04.01-.06l-.15-.2c-.02-.02-.04-.02-.06 0l-.43.33a.09.09 0 0 1-.06.02.1.1 0 0 1-.07-.04c-.05-.04-.05-.09.01-.14l.55-.44c.07-.05.14-.05.2.03l.56.73c.06.08.05.16-.03.22l-.52.41c-.04.04-.09.03-.13-.01-.04-.05-.03-.1.01-.14l.4-.33c.03-.02.03-.04.01-.06l-.12-.16ZM22.38 33.35c0-.02 0-.02-.02 0l-.44.4c-.12.1-.23.13-.3.07-.06-.04-.06-.14-.02-.29l.17-.53c.02-.07 0-.08-.04-.03l-.46.48c-.06.05-.11.05-.17 0l-.02-.02a.11.11 0 0 1 0-.14l.71-.69c.1-.09.2-.08.27.03.01.01.02.02.01.04 0 .08-.02.14-.03.18a5.48 5.48 0 0 0-.18.65l.5-.46c.07-.06.13-.1.19-.1s.11.05.15.13v.04l-.34 1c-.02.07-.07.1-.14.1v-.01c-.09-.03-.11-.07-.09-.15l.25-.7ZM32.71 33.57a.18.18 0 0 0-.16-.03c-.21.06-.34.1-.39.1a.3.3 0 0 1-.28-.1.36.36 0 0 1-.08-.32c.01-.1.07-.18.15-.26a.73.73 0 0 1 .27-.16c.1-.03.23 0 .38.1.03.01.05.04.05.07l-.01.08a.1.1 0 0 1-.07.05c-.03 0-.06 0-.1-.02l-.03-.02c-.08-.05-.14-.07-.19-.05a.38.38 0 0 0-.17.1c-.06.07-.07.13-.04.2.02.05.06.07.1.08.03 0 .08 0 .14-.02l.06-.02c.16-.05.28-.08.35-.07.13 0 .21.08.26.22.03.1.02.2-.05.3a.6.6 0 0 1-.23.2.44.44 0 0 1-.39 0c-.08-.03-.11-.07-.1-.13.02-.06.05-.1.08-.1l.12.03.08.04c.08 0 .14-.01.2-.06a.2.2 0 0 0 .07-.18c0-.01 0-.02-.02-.03Z" fill="#1A191C"/><path d="M25.7 35.12c.41 0 .75-.34.75-.76a.75.75 0 0 0-.75-.76.75.75 0 0 0-.75.76c0 .42.34.76.75.76ZM28.94 35.12c.41 0 .75-.34.75-.76a.75.75 0 0 0-.75-.76.75.75 0 0 0-.74.76c0 .42.33.76.74.76ZM17.88 37.3l.12.13c.23.2.34.45.34.74a.8.8 0 0 1-.2.5 1.1 1.1 0 0 1-.43.34l-.01.01.01.01a4.99 4.99 0 0 1 1.1.15l-.11.5-.03.02-.4-.08a3.2 3.2 0 0 0-3.02 1.19c-.02.02-.04.02-.06 0a2.83 2.83 0 0 1-.36-.3c-.01 0-.02-.02 0-.04.25-.35.61-.66 1.07-.95.07-.04.06-.05-.01-.05a.88.88 0 0 1-.59-.17c-.17-.13-.25-.32-.22-.56 0-.03 0-.04-.03-.03-.42.07-.77 0-1.03-.2a.86.86 0 0 1-.33-.43.58.58 0 0 1 .1-.53c.11-.16.27-.29.47-.39l.01-.02v-.02a1.65 1.65 0 0 1-.21-.19.7.7 0 0 1-.2-.4.59.59 0 0 1 .13-.42c.2-.27.44-.42.73-.46.23-.03.47 0 .7.07h.04a1.36 1.36 0 0 1 1.3-.1c.12.04.21.07.28.07.26-.02.49.03.7.13.2.1.37.27.48.5.09.18.1.36.02.54a.87.87 0 0 1-.36.41v.03ZM39.6 36h-1.1v-.48l.01-.02h1.1v.5ZM34.68 39.76c-.01-.02-.02-.02-.02 0-.1.35-.28.57-.57.66a.77.77 0 0 1-.56-.03.84.84 0 0 1-.4-.39c-.02-.03-.04-.03-.06 0-.18.33-.45.48-.78.45-.29-.02-.5-.17-.67-.46h-.04a.82.82 0 0 1-.19.26.77.77 0 0 1-.81.16.76.76 0 0 1-.42-.35l-.01-.01h-.02a.8.8 0 0 1-1.38.1l-.5-.68h-.03l-.49.68a.81.81 0 0 1-.6.35.83.83 0 0 1-.65-.25h-.04a.76.76 0 0 1-.83.2.77.77 0 0 1-.4-.28 1.8 1.8 0 0 1-.2-.45c-.02-.02-.03-.04-.06-.04h-.9c-.03 0-.05.02-.06.04l-.09.2a.97.97 0 0 1-.26.38c-.1.1-.23.15-.36.18a.74.74 0 0 1-.4-.02.83.83 0 0 1-.36-.25h-.04a.96.96 0 0 1-.5.24l-.53.01h-1.29c-.44 0-.72-.23-.84-.68a2.27 2.27 0 0 1-.03-.46v-2.84c0-.12.02-.23.05-.34a.82.82 0 0 1 .16-.3.79.79 0 0 1 1.26.03c.13.17.2.37.2.6v2.18c0 .02.01.03.03.03l.6-.01h.06c.21 0 .36.02.45.04.13.03.25.1.36.21h.03l.02-.01.39-.98c.08-.2.16-.33.24-.41.22-.23.5-.3.84-.22l.02-.01v-.02a7.58 7.58 0 0 1-.16-.4 1.4 1.4 0 0 1-.11-.42.89.89 0 0 1 .24-.69c.21-.22.47-.3.77-.23.27.05.47.25.6.59a5636.63 5636.63 0 0 1 1.16 2.8l.02-.01.63-.87c.03-.03.03-.06 0-.08a26.25 26.25 0 0 1-.82-1.18.91.91 0 0 1-.1-.38.87.87 0 0 1 .74-.89c.16-.02.3 0 .44.07.12.06.23.17.35.31a18.2 18.2 0 0 1 .48.64l.02-.01.39-.54c.14-.19.25-.31.35-.37.2-.11.41-.14.62-.07.22.06.38.2.51.4h.03c.1-.16.23-.27.4-.33.09-.04.24-.06.47-.06h2.47c.33 0 .55.02.67.06.24.1.4.3.49.62 0 .04.02.04.03 0a.88.88 0 0 1 .25-.46.8.8 0 0 1 1-.08c.18.12.3.29.35.5.02.07.03.2.03.38v2.83c0 .23-.02.4-.06.5a.84.84 0 0 1-.47.5.73.73 0 0 1-.58 0 .8.8 0 0 1-.44-.4 2.56 2.56 0 0 1-.1-.24Z" fill="#F0F3FA"/><path d="M24.07 36.3a.5.5 0 0 1 .33-.28c.2-.05.37-.01.5.1.06.06.14.2.23.4l1.1 2.46c.1.24.16.4.16.46.03.19-.06.35-.25.49-.1.07-.22.09-.38.06a.5.5 0 0 1-.38-.3 10.2 10.2 0 0 1-.17-.37.1.1 0 0 0-.1-.07h-1.23a.1.1 0 0 0-.1.07l-.16.35c-.1.2-.25.32-.47.33a.51.51 0 0 1-.4-.16.47.47 0 0 1-.15-.4c.01-.1.05-.2.1-.31l.45-1.03c.08-.17.15-.3.21-.35.1-.1.24-.14.39-.13a.5.5 0 0 1 .37.17c.09.1.13.23.13.37 0 .02.02.04.04.04h.37l.03-.02v-.03a141.3 141.3 0 0 0-.65-1.48.73.73 0 0 1 .02-.35l.01-.01ZM28.92 38v.01a86.71 86.71 0 0 0 .9 1.15c.06.09.1.17.1.24a.48.48 0 0 1-.12.43.53.53 0 0 1-.43.16.53.53 0 0 1-.4-.22 228.73 228.73 0 0 0-.72-.9l-.03.01-.64.81a.94.94 0 0 1-.3.27.52.52 0 0 1-.45-.02.48.48 0 0 1-.28-.35.54.54 0 0 1 .13-.47c.44-.56.7-.9.8-1.01l.05-.1c0-.04-.02-.08-.05-.11l-.8-1.02a.54.54 0 0 1-.13-.47.48.48 0 0 1 .28-.35.53.53 0 0 1 .45-.02c.08.04.18.12.3.27a53.83 53.83 0 0 1 .66.82l.03-.03.7-.87c.11-.14.24-.21.4-.22.17-.01.32.04.43.16.11.12.15.26.13.43a.67.67 0 0 1-.1.24l-.18.23a88.76 88.76 0 0 0-.73.93ZM20.68 39h1.2c.52 0 .76.67.28.93a.87.87 0 0 1-.4.07h-1.48c-.18 0-.3-.02-.38-.05a.46.46 0 0 1-.25-.25c-.04-.1-.06-.22-.06-.38v-2.66c0-.15.02-.27.05-.35a.5.5 0 0 1 .22-.24.51.51 0 0 1 .28-.07c.12 0 .21.03.28.09.16.11.23.27.24.48a230.04 230.04 0 0 1 .02 2.43ZM32.35 36h1.36c.18 0 .3.02.38.06.2.1.29.27.29.5v2.77c0 .18-.03.3-.07.4a.48.48 0 0 1-.23.22c-.1.04-.2.06-.3.04a.53.53 0 0 1-.29-.13.5.5 0 0 1-.16-.28A986.53 986.53 0 0 1 33.3 37h-.39l-.02.03v2.24c0 .15 0 .26-.02.32a.5.5 0 0 1-.13.25.5.5 0 0 1-.38.16.5.5 0 0 1-.38-.16.5.5 0 0 1-.13-.25 1.8 1.8 0 0 1-.02-.35A3234.02 3234.02 0 0 0 31.8 37h-.4l-.02.03a924.6 924.6 0 0 1-.01 2.55.5.5 0 0 1-.16.28.53.53 0 0 1-.28.13c-.11.02-.21 0-.3-.04a.48.48 0 0 1-.24-.22.88.88 0 0 1-.07-.4v-2.77c0-.23.1-.4.29-.5.08-.04.2-.06.38-.06h1.36ZM35.5 36h-.02a.51.51 0 0 0-.51.51v2.98c0 .28.23.51.51.51h.03c.29 0 .51-.23.51-.51V36.5a.51.51 0 0 0-.51-.51Z" fill="#DD332D"/><path d="M39.6 36h.76c.03.01.04.02.04.05l.01.18a912.58 912.58 0 0 1 .37 3.76 207.78 207.78 0 0 1-1.16.01h-1.13l-.04-.01a396.75 396.75 0 0 1-1.13-.02 860.77 860.77 0 0 1 .44-3.97h1.85Z" fill="#EFE720"/><path d="m30 38.75-.7-.92v-.01l.7-.92H30l.01 1.84v.01H30Z" fill="#7F7BAE"/><path d="M16.4 38.51c.01.05.02.05.02 0-.02-.31.02-.59.12-.82.11-.28.3-.47.55-.59.02-.01.04 0 .05.02.14.31.13.67-.02 1.06-.12.31-.3.62-.51.9a.07.07 0 0 1-.08.03 2.6 2.6 0 0 1-.9-.47c-.24-.2-.42-.43-.53-.7a1.53 1.53 0 0 1-.1-.88c.01-.01.02-.02.03-.01.05 0 .1.02.16.04.3.12.54.31.75.57.16.22.32.5.45.85Z" fill="#2E8E3E"/><path d="M39.5 40v.48c0 .02 0 .02-.02.02h-.96l-.02-.01V40h1Z" fill="#F0F3FA"/></svg>