<svg xmlns="http://www.w3.org/2000/svg" width="56" height="56"><path fill="#F0F3FA" d="M0 0h56v56H0z"/><path d="M25.19 38v-4h-.45v1.74h-1.62V34h-.44v4h.44v-1.9h1.62V38h.45zm4.08-2c0 .6-.09 1.64-.9 1.64-.8 0-.9-1.04-.9-1.64 0-.61.1-1.63.9-1.63.81 0 .9 1.02.9 1.63zm.48 0c0-.94-.24-2-1.37-2-1.14 0-1.38 1.06-1.38 2 0 .93.25 2 1.38 2 1.12 0 1.37-1.08 1.37-2zm3.8-1.63V34h-2.33v.37h.94V38h.45v-3.63h.94zM37 38v-.38h-1.54v-1.53H37v-.37h-1.54v-1.34H37V34h-2v4h2zm4 0v-.38h-1.51V34H39v4h2zm3.58-1.1c0-.58-.36-.81-.8-1.06l-.35-.2c-.27-.13-.64-.32-.64-.68 0-.4.35-.58.71-.58.28 0 .58.06.83.16v-.43a3.5 3.5 0 00-.8-.11c-.61 0-1.22.27-1.22 1 0 .56.4.76.82 1l.34.2c.33.18.63.34.63.77 0 .48-.41.66-.82.66a2.4 2.4 0 01-.92-.2v.45c.28.07.57.12.87.12.72 0 1.35-.28 1.35-1.1zM31.73 23.95c.55 0 1.1-.18 1.52-.54.6-.5.88-1.27.83-2.06a2.06 2.06 0 00-2.35 2.6zM28 19.5c0-1.28.37-2.46 1-3.46.18.28.42.53.71.7a2.4 2.4 0 002.23.15 2.04 2.04 0 00-2.23-1.78 6.5 6.5 0 0110 .5l-.27.26a2.7 2.7 0 00-.63 2.4c.66.04 1.34-.2 1.82-.72l.06-.06c.2.63.31 1.3.31 2.01v.16a2.29 2.29 0 00-3.16.4 2.56 2.56 0 002.98.99 6.53 6.53 0 01-2.72 3.87 2.28 2.28 0 00-.38-.67c-.5-.61-1.26-.9-2.05-.87a2.05 2.05 0 001.05 2.24c-.6.22-1.24.35-1.92.38l-1.27-.07a6.51 6.51 0 01-4.46-2.85c.29-.04.57-.13.82-.27a2.7 2.7 0 001.38-2.06 2.26 2.26 0 00-2.88 1A7 7 0 0128 19.5zm4.76-5.97a2.3 2.3 0 00-.54 1.52c.02.79.43 1.49 1.1 1.95a2.05 2.05 0 00-.55-3.46z" fill="#71BF44"/><path d="M34.6 17.57a1.7 1.7 0 113.42 0 1.7 1.7 0 01-3.41 0z" fill="#FFF200"/><path d="M31.4 18.78a1.38 1.38 0 112.75-.05 1.38 1.38 0 01-2.76.05z" fill="#FDB833"/><path d="M35.3 21.52a1.24 1.24 0 112.49-.04 1.25 1.25 0 01-2.5.04z" fill="#FFF200"/><path d="M36 29h-1v2.1c0 .53.14.9.85.9H36v1h-.42c-.94 0-1.58-.38-1.58-1.15V29h-1v-1h1v-3.7l1-.55V28h1v1zM8 24H7v9h1v-9zm4 5.6h-2c0-.52.5-.9 1.06-.9.55 0 .94.39.94.9zm1 .6v-.23c0-1.1-.6-1.97-1.88-1.97-1.5 0-2.12.98-2.12 2.27 0 1.58.73 2.73 2.57 2.73.45 0 1-.07 1.43-.16v-.72c-.32.12-.76.18-1.1.18-1.3 0-1.9-1.03-1.9-2.1h3zm35-.6h-2c0-.52.5-.9 1.06-.9.55 0 .94.39.94.9zm1 .6v-.23c0-1.1-.6-1.97-1.88-1.97-1.5 0-2.12.98-2.12 2.27 0 1.58.73 2.73 2.57 2.73.45 0 1-.07 1.43-.16v-.72c-.32.12-.76.18-1.1.18-1.3 0-1.9-1.03-1.9-2.1h3zm-6-.6h-2c0-.52.5-.9 1.06-.9.55 0 .94.39.94.9zm1 .6v-.23c0-1.1-.6-1.97-1.88-1.97-1.5 0-2.12.98-2.12 2.27 0 1.58.73 2.73 2.57 2.73.45 0 1-.07 1.43-.16v-.72c-.32.12-.76.18-1.1.18-1.3 0-1.9-1.03-1.9-2.1h3zM21 33v-3.39c0-.86-.38-1.61-1.48-1.61-.74 0-1.28.45-1.54 1.04h-.03c-.1-.66-.64-1.04-1.38-1.04-.79 0-1.32.38-1.57 1v-1h-1v5h1v-2.07c0-.6.36-1.93 1.27-1.93.51 0 .7.31.73.77V33h1v-2.34c0-.56.43-1.66 1.22-1.66.47 0 .76.29.78.77V33h1zm4-2.5c0 .76-.14 1.74-1 1.74s-1-.98-1-1.74c0-.77.14-1.75 1-1.75s1 1 1 1.75zm1 0c0-1.4-.54-2.5-2-2.5-1.45 0-2 1.1-2 2.5s.55 2.5 2 2.5 2-1.12 2-2.5zm5 2.5v-3.39c0-.85-.35-1.61-1.38-1.61-.82 0-1.32.46-1.62 1.16V28h-1v5h1v-2.07c0-.72.39-1.93 1.33-1.93.44 0 .64.26.67.73V33h1zm8.5-4v-1c-.73 0-1.27.43-1.5 1.1V28h-1v5h1v-2.07c0-1.06.3-1.93 1.5-1.93z" fill="#71BF44"/></svg>