<svg xmlns="http://www.w3.org/2000/svg" width="56" height="56"><path fill="#F0F3FA" d="M0 0h56v56H0z"/><path fill-rule="evenodd" d="M52 28.5c0 5.25-10.75 9.5-24 9.5S4 33.75 4 28.5 14.75 19 28 19s24 4.25 24 9.5zm-.4 0c0 4.31-10.56 7.8-23.6 7.8-13.04 0-23.6-3.49-23.6-7.8 0-4.3 10.56-7.8 23.6-7.8 13.04 0 23.6 3.5 23.6 7.8zM12 25h5v6h3v1h-8v-7zm15.5 7.46c3.04 0 5.5-1.78 5.5-3.97 0-.17-.01-.33-.04-.49H27.5v1h.5v1.5a.5.5 0 01-1 0v-4a.5.5 0 111 0v.5h4.6c-.82-1.45-2.8-2.48-5.1-2.48-3.04 0-5.5 1.78-5.5 3.97 0 2.2 2.46 3.97 5.5 3.97zM42.72 25H35v7h8a2 2 0 00.9-3.79A1.82 1.82 0 0042.72 25zm-2.42 1h-1.53v2h1.53a.7.7 0 00.7-.7v-.6a.7.7 0 00-.7-.7zm0 3h-1.53v2h1.53a.7.7 0 00.7-.7v-.6a.7.7 0 00-.7-.7z" fill="#C30001"/></svg>