<svg width="56" height="56" viewBox="0 0 56 56" xmlns="http://www.w3.org/2000/svg"><path fill="#F0F3FA" d="M0 0h56v56H0z"/><path d="M13 29h1.33v-.87l.49-.5.5.5v.38h.52l.16-.38V30h1v-.7h.28V27.2l.53-1.55.53 1.55v2.11H20v.7h1v-3.7l.33-1.6.42 1.23v2.09h.23V15.27A15.19 15.19 0 0 0 13 29Zm29.96 1c.02-.27.02-.55.02-.82a15.09 15.09 0 0 0-16.13-15.14V30h1.42v-.7H29v.7h.49v-1h2.99v-1.98l.65-.67V24.8h.24v1.55l.63.67V29h1v-1.54h1v.9l.75-.76v.76h.75v-.41l.74.75v.84h.79l.41-.54H40v-.3h1v.84h.5V27h.5v3h.96Z" fill="#E3D1AB"/><path d="M26 31.05V7l2 2.72v19.84c0 1.6 1.18 2.44 2.81 2.44h12.31L46 34H29.42c-1.8 0-3.42-1.18-3.42-2.95Z" fill="#4C4D4F"/><path d="M24 29.64v-15.1c.65-.16 1.31-.3 2-.4v15.5c0 2.58 2.43 4.36 5.13 4.36H43.1c-.26.7-.57 1.36-.92 2H14.34c-.35-.64-.66-1.3-.92-2h5.4c2.7 0 5.18-1.78 5.18-4.36ZM14.95 37c.23.34.47.68.72 1h25.18c.25-.32.5-.66.72-1H14.95Zm25.49 1.5H16.08c.3.35.61.68.94 1H39.5c.32-.32.64-.65.94-1ZM38.96 40h-21.4c.4.35.82.69 1.26 1H37.7c.44-.31.86-.65 1.26-1Zm-2 1.5h-17.4c2.5 1.58 5.48 2.5 8.7 2.5 3.22 0 6.2-.92 8.7-2.5Z" fill="#E09D26"/></svg>