<svg width="56" height="56" viewBox="0 0 56 56" xmlns="http://www.w3.org/2000/svg"><path fill="url(#a)" d="M0 0h56v56H0z"/><path fill-rule="evenodd" d="M4 24.03V28h.7v-1.3h.62L6.1 28h.79l-.8-1.36c.5-.18.91-.68.91-1.28 0-.76-.65-1.37-1.32-1.36L4 24.03Zm1.72.67H4.7V26h1.02c.32 0 .58-.3.58-.65 0-.36-.26-.65-.58-.65ZM9 24h.7v4H9v-4Zm1.97 0 1.33 2.42V28h.7v-1.58L14.46 24h-.9l-.9 1.69-.88-1.69h-.81Zm4.12 4h.8l.35-1h1.4l.36 1h.83l-1.52-4h-.73l-1.49 4Zm2.3-1.7-.44-1.24-.45 1.24h.9ZM32.86 28H32l1.6-4h.78L36 28h-.88l-.38-1h-1.5l-.4 1Zm1.14-2.94.48 1.24h-.96l.48-1.24ZM20 24.7V24h3v.68l-1.98 2.62H23v.7h-3v-.68l1.97-2.62H20Zm10.25-.15-.51.64c-.13-.13-.49-.4-.87-.4-.48 0-1.05.41-1.05 1.27 0 .86.63 1.17 1.05 1.17.33 0 .62-.15.73-.22v-.56h-.78v-.74h1.53v1.68c-.18.2-.75.61-1.53.61-.97 0-1.82-.8-1.82-1.94S27.74 24 28.87 24c.78 0 1.2.36 1.38.55Zm14.49.64.5-.64c-.17-.19-.59-.55-1.37-.55-1.13 0-1.87.92-1.87 2.06 0 1.14.85 1.94 1.82 1.94.78 0 1.35-.4 1.53-.61V25.7h-1.53v.74h.78V27c-.1.07-.4.22-.73.22-.42 0-1.05-.3-1.05-1.17 0-.86.57-1.27 1.05-1.27.38 0 .74.27.87.4ZM37.3 28v-4h.75L40 26.6V24h.7v4h-.76L38 25.24V28h-.7Zm11-1.47V24h.7v2.56c0 .77-.38 1.44-1.24 1.44-.68 0-1.07-.4-1.18-.61l.48-.51c.1.14.37.42.65.42.42 0 .6-.55.59-.77ZM52 24h-.7v4h.7v-4Z" fill="#FFBA33"/><path d="m31.31 29.9-.96 2c-.02.03-.07.09-.13.09-.09 0-.22-.08-.22-.25 0-.14.04-.25.06-.29l1.1-2.22c.13-.27.5-.34.67 0l1.1 2.22.01.02c.03.05.06.1.06.23 0 .19-.08.3-.21.3-.1 0-.15-.06-.16-.1l-.98-2c-.06-.13-.27-.13-.34 0ZM18 31.63v-2.4c0-.12.09-.22.2-.22.1 0 .2.1.2.21v2.1h2.4c.07-.01.2.03.2.32 0 .3-.13.37-.2.37h-2.45c-.2 0-.35-.17-.35-.38Zm5.17.38c-.12 0-.17-.19-.17-.28v-2.43c0-.1.03-.29.17-.29s.19.19.2.28v2.44c-.02.09-.07.28-.2.28ZM25 32v-3h2.66c.26 0 .33.33.34.5v.62c0 .22-.1.34-.15.38.05.03.15.21.15.64 0 .75-.26.88-.39.86H25Zm.65-2.33c-.1 0-.17.11-.17.26 0 .14.08.26.17.26h1.75c.1 0 .17-.12.17-.26 0-.15-.08-.26-.17-.26h-1.75Zm0 1.08c-.1 0-.17.12-.17.26 0 .15.08.26.17.26h1.75c.1 0 .17-.11.17-.26 0-.14-.08-.26-.17-.26h-1.75ZM37.77 29h-2.32c-.15.01-.45.22-.45 1 0 .69.3.88.45.89h2.15c.03 0 .1.05.1.18s-.07.16-.1.17h-2.26c-.07 0-.22.1-.22.4 0 .3.15.36.22.36h2.26c.14 0 .4-.22.4-1 0-.68-.26-.86-.4-.86h-2.04c-.06 0-.17-.03-.17-.19s.11-.2.17-.2h2.2c.06.01.16-.06.16-.36s-.1-.39-.15-.39Z" fill="#FFBA33"/><defs><linearGradient id="a" x1="10.42" y1="9.71" x2="68.15" y2="76.02" gradientUnits="userSpaceOnUse"><stop stop-color="#1A1E21"/><stop offset="1" stop-color="#06060A"/></linearGradient></defs></svg>