<svg xmlns="http://www.w3.org/2000/svg" width="56" height="56"><path fill="#ED1C24" d="M0 0h56v56H0z"/><path fill-rule="evenodd" d="M11 32h2v-8h-2v8zm-5-7.98H4V32h5v-2H6v-5.98zM28 24v2h-3v1h2.01L27 29h-2v1h3v2h-5v-8h5zm8 7.52l-.03-1.95a1.81 1.81 0 00-.8-1.48c.5-.46.83-.85.83-1.59a2.5 2.5 0 00-2.5-2.5H30v8h2v-3h1.1s.9-.02.9.98v1.83s0 .2.21.2l1.8-.01c.1 0 .08-.1.04-.23a.91.91 0 01-.05-.25zM40 26h-2v-1.98h6V26h-2v5.99h-2V26zm12.3-2l-2.3.01-1 2.6L48 24h-2.21L48 28.98v3h2v-3.02L52.3 24zm-18.8 2H32v1h1.5a.5.5 0 000-1zm-14.95-2H15v8h3.75a2.25 2.25 0 001.3-4.08 2.24 2.24 0 00-1.5-3.92zM17 29h1.7a.5.5 0 010 1H17v-1zm1.5-3H17v1h1.5a.5.5 0 000-1z" fill="#fff"/></svg>