<svg width="56" height="56" xmlns="http://www.w3.org/2000/svg"><path fill="#00529C" d="M0 0h56v56H0z"/><path d="M15.028 22.445v19.49c0 .83.417 1.055.626 1.063h24.272c.89.036 1.067-.532 1.074-.82v-19.06c-.017-.958.131-1.118.296-1.118h1.985c.966 0 .885-.96.194-1.411l-4.724-3.081c-.599-.32-.765-.829-.751-1.043V13.7c.034-.6-.526-.72-.833-.701h-1.441c-.582-.036-.739.456-.726.701v1.117c0 .257-.327.341-.68.12-1.734-1.089-5.002-3.33-5.592-3.68-.609-.362-1.503-.325-2.005 0-3.898 2.523-12.115 7.877-13.795 9.104-1.68 1.227-.7 1.457 0 1.638h1.384c.65 0 .748.297.716.445z" fill="#fff"/><path d="M31.67 22.922c.04.163.113.326.178.492v.578c0 .331.021.69.093 1.002.041.2.09.412.155.601.021.056.09.161.09.224-.025.106-.137.184-.204.268-.065.125-.16.27-.2.414a.925.925 0 00-.113.439c0 .104.041.25-.021.334-.094.126-.182.246-.277.371-.2.225-.378.457-.581.703-.224.316-.475.622-.702.937-.221.245-.406.521-.608.786-.247.33-.492.685-.677 1.053a2.892 2.892 0 00-.246 1.125c.048.703.516 1.259 1.194 1.532.044.265.115.537.184.788 0 .037.02.058.064.082.022.023.045.023.065.023h.024c.904 0 1.802 0 2.706.018h.045c.29 0 .564-.018.876-.018.207 0 .41.018.587-.047 0-.058-.133-.204-.178-.268-.27-.43-.565-.891-.833-1.326-.024-.04-.047-.1-.024-.144.044-.186.27-.413.383-.579l1.014-1.427a44.64 44.64 0 001.377-2.1c.042-.061.069-.119.114-.167.268-.476.559-.95.693-1.488.342-1.102.183-2.405-.09-3.484-.132-.52-.358-.997-.603-1.47-.229-.436-.476-.868-.613-1.33-.09-.267-.178-.56-.201-.851 0-.125.023-.241.023-.35.02-.059.045-.146.02-.186-.043-.146-.468.019-.562.065-.604.346-.225 1.2-.046 1.678.2.58.565 1.117.837 1.673.023.106.044.213.085.293.162.434.249.853.344 1.303.068.318.156.753.021 1.06a.09.09 0 01-.087-.084c-.094-.205-.094-.492-.115-.703-.046-.287-.118-.56-.181-.83a10.39 10.39 0 00-.496-1.348c-.134-.308-.342-.597-.52-.885a4.78 4.78 0 01-.361-.892 4.685 4.685 0 01-.152-1.389c.018-.13.018-.248.042-.375h-.024c0-.038-.067-.018-.09-.018-.107.04-.25.085-.363.123a.83.83 0 00-.424.43c-.222.5.157 1.311.334 1.748.181.373.363.743.568 1.115.16.31.334.6.47.912a7.32 7.32 0 01.474 1.783c.068.35.091.828-.066 1.138-.043 0-.095-.042-.095-.083-.04-.185-.014-.415-.014-.601 0-.164-.027-.31-.047-.454a18.735 18.735 0 01-.074-.5c-.087-.352-.178-.703-.335-1.056-.088-.25-.25-.474-.382-.726-.136-.293-.296-.577-.454-.867-.249-.501-.404-1.018-.602-1.516-.117-.314-.162-.643-.203-.954-.026-.12-.026-.244-.047-.347 0-.022 0-.022-.024-.022-.021-.025-.095-.025-.142-.025a.772.772 0 00-.712.54c-.024.108-.024.21-.024.327 0 .05 0 .152.043.167h.274v.022h.018c0 .187.068.332.11.522.093.375.205.768.29 1.139.048.147.095.31.143.457.086.227.178.453.274.665.108.209.198.414.31.617.18.46.316.934.405 1.41.07.291.138.58.187.914.017.33.088.662-.09.955-.026 0-.052-.02-.075-.045-.065-.097-.022-.292-.022-.418a15.442 15.442 0 01-.177-1.072c-.07-.309-.113-.645-.228-.96-.203-.43-.385-.868-.585-1.303-.183-.475-.366-.952-.498-1.466-.063-.254-.136-.544-.18-.81 0-.082 0-.272-.046-.334-.04-.038-.13-.038-.223-.017-.41.098-.541.556-.541.95 0 .15.046.317.064.458.027.371.164.743.3 1.101zm-3.947 9.8c.356-1.052-.36-1.988-.901-2.779-.182-.226-.336-.453-.517-.68-.158-.207-.318-.393-.476-.599-.088-.132-.201-.255-.292-.397-.268-.31-.518-.647-.791-.953-.087-.124-.022-.352-.041-.496l-.068-.251a1.799 1.799 0 00-.268-.498c-.047-.083-.116-.144-.14-.228-.022 0 0-.106 0-.123.157-.375.229-.765.273-1.186 0-.063.022-.123.022-.19 0-.16 0-.323.023-.493 0-.138-.023-.308 0-.455.09-.243.177-.47.268-.726.18-.6.657-2.238-.493-2.276v.02c-.024 0-.024.12-.045.144-.024.232-.047.458-.07.666-.044.227-.11.457-.18.66-.135.395-.273.765-.405 1.158-.044.061-.067.126-.095.188-.2.501-.47.973-.606 1.514-.092.332-.113.664-.179.993-.046.147-.067.311-.09.458-.022.181.023.475-.07.645-.36 0-.064-1.455-.023-1.66.137-.52.249-1.039.454-1.522.09-.281.249-.532.36-.797.091-.212.155-.439.248-.65.022-.079.045-.16.093-.266.04-.146.087-.31.129-.478.07-.265.138-.537.21-.808.043-.147.043-.373.134-.498 0 0 0-.022.02-.022.046 0 .223.022.25.022v-.022c.045 0 .022-.144.022-.167 0-.328-.094-.557-.273-.702a1.087 1.087 0 00-.315-.14.658.658 0 00-.27-.025s-.024 0-.024.025c-.043.022-.043.06-.043.102 0 .12 0 .246-.027.37-.064.479-.242.932-.38 1.397-.045.119-.11.246-.16.39a12.82 12.82 0 01-.538 1.136c-.205.35-.403.705-.562 1.077-.364.742-.453 1.725-.453 2.653h-.023c-.136 0-.136-.141-.157-.228-.09-.58.021-1.283.18-1.804.111-.31.201-.642.338-.935.16-.345.36-.7.543-1.052.178-.352.36-.722.514-1.094a3.78 3.78 0 00.341-1.043c.023-.078.048-.162.023-.245-.047-.476-.451-.792-.949-.847-.022.085 0 .167 0 .247v.37c0 .397-.022.724-.113 1.059a7.319 7.319 0 01-.38.998 3.336 3.336 0 00-.317.513c-.202.33-.381.704-.517 1.094a13.78 13.78 0 00-.341 1.311c-.021.207-.066.412-.084.642-.024.085-.024.206-.069.29-.294 0-.026-1.14 0-1.308.02-.186.088-.392.132-.578.09-.269.16-.558.274-.81.291-.577.605-1.138.851-1.718.071-.166.136-.352.185-.539.045-.164.09-.356.045-.54a.712.712 0 00-.567-.623c-.11 0-.265-.015-.357.024-.026 0 .021.06.021.084.07.264.046.575 0 .847-.021.23-.135.44-.201.645-.18.518-.477 1.013-.72 1.526-.07.107-.114.213-.157.333a6.262 6.262 0 00-.545 2.165v.926c0 .432.067.874.181 1.266.094.271.227.54.364.808l.4.684c.317.52.632 1.06.995 1.539.45.643.874 1.3 1.351 1.945.11.144.227.308.338.453.043.063.111.127.111.209.023.043.023.101 0 .166-.268.412-.541.825-.809 1.26-.07.103-.183.233-.201.38h.38c.383 0 .743.019 1.127.019h1.78c.136 0 .295-.018.427-.018h.204c.09 0 .204.018.273 0h.064c.182-.088.161-.708.296-.875.11-.059.223-.124.336-.208.335-.228.607-.497.722-.869z" fill="#00529C"/><path d="M26.039 27.881c-.147.215.06.66.178.85.116.175.263.354.44.516.102.084.207.164.31.246.368.242.779.417 1.189.444.137 0 .251-.015.386-.04.322-.07.617-.191.895-.366.429-.284.766-.707.929-1.194.043-.12.103-.348.015-.47-.062-.08-.178-.122-.266-.165-.206-.107-.441-.15-.678-.19h-.058a6.364 6.364 0 00-1.031-.108c.03-.067.059-.148.09-.23a3.35 3.35 0 00.147-.551c.073-.624-.22-1.1-.429-1.614v-.015c-.012-.064-.042-.12-.058-.189-.027-.055-.042-.202-.087-.24 0 .038-.013.077-.013.12-.047.15-.077.298-.118.448-.062.218-.165.418-.24.625-.16.377-.235.928-.056 1.338.045.092.074.213.162.295 0 .054-.117.04-.148.054-.074 0-.162-.013-.205.013-.029 0-.045 0-.074.014-.029 0-.06 0-.087.012-.09 0-.177 0-.236.027h-.028a.333.333 0 00-.162.042c-.047 0-.09 0-.15.017-.086.025-.19.05-.263.078-.119.043-.294.11-.354.233zm2.28-.328c.162.017.678.042 1.118.11.413.082.78.188.737.366-.043.162-.484.269-.649.309-.03.013-.057.013-.088.028-.028 0-.043 0-.058.015a.418.418 0 00-.19.039c-.294 0-.915 0-.99-.296-.055-.202.06-.406.12-.57zm-2.102.436c.03-.108.22-.202.44-.26.102-.026.207-.054.31-.066l.397-.068c.116-.016.265 0 .367-.042.134.055.34.436.34.585a.214.214 0 01-.045.134.55.55 0 01-.221.148c-.042 0-.074.014-.12.028h-.087a3.49 3.49 0 01-.63-.067c-.104-.015-.209-.043-.312-.066-.263-.072-.468-.177-.439-.326z" fill="#00529C"/><path d="M25.995 25.676v1.965c.254-.217 1.043-.501 1.365-.542a1.548 1.548 0 01-.095-.446c-.016-.255.02-.653.291-1.098.217-.357.39-1.16.422-1.516.207.764.374.879.613 1.515.191.51.186 1.243.16 1.545.687.038 1.36.377 1.611.542v-1.965h1.24l-3.414-3.547-3.375 3.547h1.182z" fill="#00529C"/><path fill-rule="evenodd" d="M18 37.3v.502h.62c.137.168.24.535-.43.662-.08.146-.16.457.159.536.32.08.314.642.272.913h.767c.004-.183-.067-.658-.378-1.09.126-.173.378-.62.378-1.021h1.027c-.328.091-.992.423-1.027 1.02-.034.598.67.715 1.027.698v.393h.534v-2.111h.843c-.234.108-.697.463-.674 1.02a.677.677 0 00.674.698c.197-.095.585-.57.562-1.718h.281v1.718c-.243.13-.72.497-.674.92.045.425.468.494.674.475.094-.075.225-.303 0-.614-.28-.388.562-.638.815-.388.253.249.59.11.59-.142 0-.166-.16-.235-.318-.304-.204-.088-.407-.175-.272-.467.06-.13.46-.255.59.303.06.073.235.217.458.217v.393h.49v-2.111h.638v.235c-.163.058-.484.297-.458.786.033.61.54.697.933.697v.393h.621v-2.111H27V37.3h-9zm8.22.537v1.03c-.198.119-.555.184-.642-.132-.086-.317.255-.469.47-.457v-.441h.172zm-5.77.915c0 .146-.12.264-.267.264a.265.265 0 01-.266-.264.266.266 0 01.532 0zm1.198.264a.265.265 0 00.266-.264.265.265 0 00-.266-.265.265.265 0 00-.267.265c0 .146.12.264.267.264zm2.836-.159v-1h-.34v.362h-.491l.831.638zm-1.13-1.038h-.382v1.083h.158c-.018-.312 0-.965.224-1.083zm5.171-.526c-.466-.037-.645.513-.676.792h.465c.05-.186.32-.121.32 0 0 .143-.106.253-.18.33l-.022.023s.344.022.389.236c.045.215 0 .643-.296.643-.345 0-.363-.526-.33-.79h-.346c-.1.818.194 1.347.676 1.347.385 0 .564-.54.605-.81h.282v.81h.406v-.81h.169v-.626h-.17v-.626h.474v.273c-.19.15-.214.557-.203.742 0 .593.721.731 1.082.726v.321h.54v-.81c.271.08.305.574.288.81h.608c-.135-.189-.146-.62-.135-.81h.558v.81h.558v-.456c.013.284.23.423.338.456h.574v-.22c-.419-.175-.4-.467-.338-.59.379-.15.473.264.473.49h.39v.32h.472v-.81h.186v-.626h-.186v-.626h.778v.273c-.392 0-.502.393-.507.59-.014.689.659.873.997.878v.321h.456v-2.062h.355v-.519h-6.05c-.014-.307.242-.728.372-.9h-.626c-.365.122-.467.65-.473.9H29.13v.52h.35v.715c-.205 0-.319-.171-.35-.256-.007-.311-.14-.942-.605-.979zm3.09 1.284v-.734c.194 0 .58.066.569.33-.012.263-.385.38-.57.404zm5.245-.717v1.03c-.197.119-.552.184-.638-.132-.085-.317.253-.469.466-.457v-.441h.172zm-5.707 1.027v-1.03h-.172v.441c-.212-.012-.551.14-.465.456.086.317.44.251.637.133zm4.006-1.027v1l-.826-.637h.488v-.363h.338zm-1.658-.041h.38c-.223.118-.241.771-.223 1.083h-.157V37.82zm-.928.716c-.006-.234.028-.707.211-.721.183-.014.252.475.264.721h-.475z" fill="#00529C"/><circle cx="37.723" cy="38.404" r=".27" fill="#00529C"/><circle cx="37.723" cy="39.604" r=".27" fill="#00529C"/></svg>