<svg width="56" height="56" viewBox="0 0 56 56" xmlns="http://www.w3.org/2000/svg"><path fill="#F0F3FA" d="M0 0h56v56H0z"/><path d="M4 20h16v16H4V20Z" fill="#00529C"/><path d="M20 20h32v16H20V20Z" fill="#FFCB08"/><path d="M39.01 25.59c0-1.98 1.91-3.59 4.07-3.59 2.17 0 3.92 1.6 3.92 3.58V26h-2v-.42c0-.97-.86-1.75-1.92-1.75s-2.07.79-2.07 1.76v4.83c0 .97 1.01 1.75 2.07 1.75 1.06 0 1.92-.78 1.92-1.75V30h2v.42C47 32.4 45.25 34 43.08 34c-2.16 0-4.07-1.6-4.07-3.58V25.6ZM24 22h2v10h5v2h-7V22Zm10 12V22h2v12h-2Z" fill="#00529C"/><path fill-rule="evenodd" d="M16.5 29v-2a4.5 4.5 0 1 0-9 0v2a4.5 4.5 0 1 0 9 0ZM12 22a5 5 0 0 0-5 5v2a5 5 0 0 0 10 0v-2a5 5 0 0 0-5-5Z" fill="#fff"/><path d="M12.36 29.06c-.4.45.19 1.64.52 1.94h1.38c-.02-.17-.03-.1-.06-.57-.02-.49.51-.94.78-1.1.35-.4.93-1.46.53-2.62-.5-1.46-1.38-1.99-1.98-1.6-.6.4.29 1.32.21 2.55-.02.33-.88.83-1.38 1.4ZM11.51 29.06c.4.45-.18 1.64-.51 1.94H9.6c.02-.17.03-.1.06-.57.03-.49-.5-.94-.78-1.1a2.81 2.81 0 0 1-.53-2.62c.5-1.46 1.38-1.99 1.98-1.6.6.4-.28 1.32-.2 2.55.01.33.88.83 1.37 1.4Z" fill="#fff"/></svg>