<svg width="56" height="56" viewBox="0 0 56 56" xmlns="http://www.w3.org/2000/svg"><path fill="url(#apy2lkjne)" d="M0 0h56v56H0z"/><path d="M27 41.96V27H12c.47-8.58 6.93-15.45 15-15.97V9h2v2.03c6.41.43 11.8 4.86 13.97 10.97h-3.22c-1.97-4.47-6.07-7.56-10.75-7.96V25h14.75c.16.97.25 1.98.25 3 0 9.03-6.63 16.41-15 16.97V47h-2v-2.03c-7.76-.5-14.02-6.86-14.92-14.97h3.03C15.97 36.55 21 41.47 27 41.96Zm2 0c6.57-.56 12-6.44 12-13.96 0-.34-.01-.67-.03-1H29v14.96Zm-2-27.92c-5.68.47-10.5 4.91-11.73 10.96H27V14.04Z" fill="#fff"/><defs><linearGradient id="apy2lkjne" x1="10.42" y1="9.71" x2="68.15" y2="76.02" gradientUnits="userSpaceOnUse"><stop stop-color="#1A1E21"/><stop offset="1" stop-color="#06060A"/></linearGradient></defs></svg>