<svg xmlns="http://www.w3.org/2000/svg" width="56" height="56" viewBox="0 0 56 56"><path fill="#F0F3FA" d="M0 0h56v56H0z"/><path d="M6 25h4v.8H6V25zm0 1.3h4v.79H6v-.79zm4 1.3H6v.79h4v-.8zm-4 1.3h4v.8H6v-.8zm4 1.3H6v.8h4v-.8z" fill="#6E7071"/><path d="M13.5 25H12v6h6v-1.5h-4.5V25z" fill="#9B802E"/><path fill-rule="evenodd" d="M20.97 25A2.98 2.98 0 0 0 18 28c0 1.66 1.33 3 2.97 3h2.06A2.98 2.98 0 0 0 26 28c0-1.66-1.33-3-2.97-3h-2.06zm.28 1c-.97 0-1.75.9-1.75 2s.78 2 1.75 2h1.5c.97 0 1.75-.9 1.75-2s-.78-2-1.75-2h-1.5zM31.52 25H27v6h4.52a2.99 2.99 0 0 0 2.98-3c0-1.66-1.33-3-2.98-3zm-.3 1H28.5v4h2.71c.99 0 1.79-.9 1.79-2s-.8-2-1.79-2z" fill="#9B802E"/><path d="M35.5 25H37v2h4v-2h1.5v6H41v-2.5h-4V31h-1.5v-6z" fill="#9B802E"/><path fill-rule="evenodd" d="M43 31h1.5l.68-1.35h3.62l.7 1.35H51l-3.2-6h-1.65L43 31zm2.8-2.5h2.4L47 26l-1.2 2.5z" fill="#9B802E"/></svg>