<svg width="56" height="56" viewBox="0 0 56 56" xmlns="http://www.w3.org/2000/svg"><path fill="#F0F3FA" d="M0 0h56v56H0z"/><path d="M7.3 26c2.01-1.94 4.13-3.6 6.37-4.99a28.03 28.03 0 0 1 5.93-2.78c4-1.33 8.08-1.58 12.24-.76 5.58 1.1 11.28 4.2 17.11 9.27.04.04.06.08.05.13a.12.12 0 0 1-.1.1c-.84.21-1.47.36-1.9.44-.71.12-1.3.14-1.77.07a6.72 6.72 0 0 1-3.4-1.76 26 26 0 0 0-5.2-3.59 22.7 22.7 0 0 0-13.22-2.57c-2.07.22-4.16.7-6.27 1.45a39.24 39.24 0 0 0-8.28 4.09 24.08 24.08 0 0 1-1.56.93V26ZM7.03 29.17c-.04-.04-.04-.06.02-.08.94-.32 1.89-.51 2.84-.58.94-.08 1.83.13 2.66.61.66.39 1.34.88 2.04 1.48a25.28 25.28 0 0 0 6.2 3.94 22.53 22.53 0 0 0 12.54 1.81c2.09-.28 4.12-.8 6.11-1.56a41.9 41.9 0 0 0 9.33-4.96c.02-.02.04-.01.06.01l.02.05a47.3 47.3 0 0 1-3.26 2.83 29.9 29.9 0 0 1-8.17 4.71 24.42 24.42 0 0 1-17.9-.27 40.47 40.47 0 0 1-12.5-7.99Z" fill="#0299DB"/><path d="M35 27.99a6.95 6.95 0 0 1-4.31 6.47 6.92 6.92 0 0 1-5.36.01 6.9 6.9 0 0 1-3.8-3.78 6.92 6.92 0 0 1 0-5.36 6.93 6.93 0 0 1 3.78-3.8 6.92 6.92 0 0 1 5.36 0 6.9 6.9 0 0 1 3.8 3.78c.35.86.53 1.75.53 2.68Z" fill="#BABABE"/><path d="M29.02 24.72c.08 0 .13-.04.15-.12.04-.23.13-.37.27-.45.38-.2.79-.28 1.22-.22.13.01.23.06.28.15.04.06.06.18.07.37a8 8 0 0 1-.05 1.52c-.02.16.04.25.2.26.36.02.67.1.94.24.39.2.51.47.38.8-.13.31-.3.58-.51.8-.14.14-.38.33-.72.57a.16.16 0 0 0-.07.13c0 .06.03.1.08.14l.16.1c.06.03.09.08.1.14l.27 1.04c.05.2-.01.34-.2.42l-1.3.52a.4.4 0 0 1-.16.03h-.37c-.06 0-.1.04-.12.1-.1.26-.29.55-.59.87-.23.25-.47.33-.71.23a2.13 2.13 0 0 1-.6-.51c-.17-.19-.3-.3-.39-.37a.34.34 0 0 0-.18-.06c-.48-.01-1 .03-1.58.14a1 1 0 0 1-.46-.02.18.18 0 0 1-.12-.13 3.14 3.14 0 0 1-.02-1.92c.01-.05 0-.1-.03-.13a.12.12 0 0 0-.12-.05c-.57.07-1.06-.16-1.47-.72-.13-.18-.1-.37.08-.58.37-.4.62-.8.74-1.2.08-.25.1-.5.03-.74-.1-.4-.14-.71-.14-.95 0-.16.08-.25.23-.28a3.59 3.59 0 0 1 1.8.12c.1.03.18 0 .25-.07s.1-.16.06-.26l-.05-.18c0-.05 0-.11.03-.19.16-.45.35-.82.58-1.12.15-.2.33-.21.55-.05.41.3.67.5.76.6.2.23.35.51.44.85.03.12.13.18.29.18Z" fill="#F38EB9"/><path fill-rule="evenodd" d="M27.63 24.92c.6.1.97.49 1.08.67.63-.17 1.88-.3 1.8.53-.07.83-.2 1.18-.25 1.26.25.29.74.93.69 1.2-.05.27-1.05.65-1.55.81-.12.54-.5 1.66-1.06 1.9-.57.22-1.29-1.17-1.58-1.9-.42.17-1.37.4-1.83 0-.45-.4.31-1.16.75-1.5-.42-.44-1.18-1.37-.85-1.58.32-.22 1.08-.07 1.44 0 .22-.52.79-1.5 1.36-1.4Zm.67 1.43-.96-.7c-.38.41-.73 1.66-.39 1.16.28-.4 1.01-.48 1.35-.46Zm.25.07Zm.04-.02c.4-.2 1.12-.46 1.22-.09.1.39-.15.94-.3 1.17-.04.05-.17 0-.36-.58-.17-.52-.42-.56-.56-.5Zm-1.24 2.77c.01.29.14.93.56 1.24.43.31.77-.74.89-1.3-.16.23-.68.57-1.45.06Zm1.8-1.5Zm.05.01h.02c.21.07.89.25 1.12.6.22.32-.7.52-1.19.58.27-.32.64-.98.05-1.18Zm-2.93.13c-.21.22-.66.74-.77 1.03-.1.3.87.24 1.37.17-.32-.1-.9-.5-.6-1.2Zm-.94-1.16c.25-.09.93.04 1.24.12-.59.15-.51.65-.4.89-.39-.3-1.1-.91-.84-1Z" fill="#F4BED5"/></svg>