<svg width="56" height="56" viewBox="0 0 56 56" xmlns="http://www.w3.org/2000/svg"><path fill="#00A54F" d="M0 0h56v56H0z"/><path d="M16.5 19h23c-1.04-2.33-4.74-7-11.25-7-6.5 0-10.54 4.67-11.75 7Zm-1.2 2c-.45 0-.8.45-.8 1s.35 1 .8 1h25.4c.45 0 .8-.45.8-1s-.35-1-.8-1H15.3ZM13 26c0-.55.35-1 .8-1h28.4c.45 0 .8.45.8 1s-.35 1-.8 1H13.8c-.45 0-.8-.45-.8-1Zm.8 13c-.45 0-.8.45-.8 1s.35 1 .8 1h28.4c.45 0 .8-.45.8-1s-.35-1-.8-1H13.8ZM18 28v10h-3V28h3Zm8 0h-3v10h3V28Zm4 0h3v10h-3V28Zm11 10V28h-3v10h3Z" fill="#fff"/></svg>