<svg width="56" height="56" xmlns="http://www.w3.org/2000/svg"><path fill="#003E72" d="M0 0h56v56H0z"/><path fill-rule="evenodd" d="M28 14.62c-3.468 0-6.852 1.42-9.303 3.886a13.39 13.39 0 00-2.884 4.344A13.52 13.52 0 0014.797 28c0 1.769.345 3.52 1.016 5.15a13.39 13.39 0 002.884 4.344 13.196 13.196 0 004.282 2.88 13.13 13.13 0 0010.042 0 13.196 13.196 0 004.282-2.88 13.39 13.39 0 002.884-4.344A13.522 13.522 0 0041.203 28c0-1.769-.345-3.52-1.016-5.15a13.39 13.39 0 00-2.884-4.344 13.196 13.196 0 00-4.282-2.88A13.05 13.05 0 0028 14.62zM44 28A15.996 15.996 0 0021.843 13.23 15.997 15.997 0 0012 28m32 0a16 16 0 01-9.843 14.769A16.01 16.01 0 0116.65 39.28 15.992 15.992 0 0112 28" fill="#fff"/><path d="M27.195 13.93L20.071 26H28l-2.684 5h-11.48l9.094-16.065 4.265-1.005zM30 26h11.703l-2.63 5h-4.376l-6.466 10.754-3.306-.208L31.5 31h-4.314L30 26z" fill="#fff"/></svg>