<svg width="56" height="56" xmlns="http://www.w3.org/2000/svg"><path fill="#FFCC01" d="M0 0h56v56H0z"/><path d="M27.994 10C37.886 10 46 18.076 46 27.981 46 37.911 37.886 46 27.994 46 18.076 46 10 37.911 10 27.981 10 18.076 18.076 10 27.994 10zm-2.49 33.8L33.188 30h-5.193l2.577-4h12.19l-2.577 4h-4.419L28 44.003c8.66 0 16-7.33 16-16.003 0-8.635-7.34-16-16-16a14.6 14.6 0 00-1.86.124L18.394 26h9.6l-2.604 4H13.213l9.93-17.215C16.832 14.829 12 21.04 12 28c0 7.835 6 14.593 13.505 15.8z" fill="#000"/></svg>