<svg xmlns="http://www.w3.org/2000/svg" width="56" height="56" viewBox="0 0 56 56"><path fill="#F0F3FA" d="M0 0h56v56H0z"/><path d="M14.8 32.16 10 24h16.07l-1.7 4.5h4.42L31 33l-14.52-.01c-.75.09-1.4-.28-1.69-.83Z" fill="#F99E20"/><path d="m22.87 28 10.13.63L40.92 14h-9.25c-.64 0-1.27.38-1.54.95L22.87 28Z" fill="#A0237E"/><path d="M20.27 24h4.85l2.56-4.67L22.83 10l-4.66 8.48a1.8 1.8 0 0 0 0 1.9l2.1 3.62Z" fill="#E12826"/><path d="M15.17 42h9.25c.63 0 1.26-.37 1.54-.92l2.08-3.58L25.5 33h-5.16l-5.17 9Z" fill="#A0237E"/><path d="m25.41 33 7.7 13 4.63-8.13c.37-.55.37-1.28 0-1.83l-2.08-3.56-5.16-8.98-2.55 4.5 2.55 5h-5.09Z" fill="#E12826"/><path d="M35.97 33H46.3l-4.62-8.1c-.37-.54-.9-.9-1.54-.9h-4.7l-2.3 4.26L35.97 33Z" fill="#F99E20"/><path d="m22.87 28 7.63-4.5L28 28h-5.13Z" fill="#712878"/><path d="M30.5 33v-9.5L28 28l2.5 5Z" fill="#AC1F2D"/><path d="m22.87 28 7.63 5-2.46-5h-5.17Z" fill="#F05023"/></svg>