<svg width="56" height="56" xmlns="http://www.w3.org/2000/svg"><path fill="#489D50" d="M0 0h56v56H0z"/><path d="M28.151 41.144h-.242l-1.441-2.34c-.45-.725-.678-1.318-.678-1.777 0-.488.194-.873.58-1.158.381-.282.911-.424 1.585-.424.692 0 1.245.14 1.658.419.408.275.613.651.613 1.128 0 .302-.088.633-.262 1-.175.366-.775 1.416-1.813 3.152zm0 1.156h-.242l-1.441 2.34c-.45.726-.678 1.319-.678 1.778 0 .487.194.874.58 1.158.381.282.911.424 1.585.424.692 0 1.245-.14 1.658-.419.408-.275.613-.652.613-1.128 0-.302-.088-.633-.262-1-.175-.365-.775-1.416-1.813-3.152zm.199-.402l-.123.204c.89 1.018 2.105 3.026 3.196 3.675.398.238.81.262 1.235.074.422-.185.768-.457 1.106-1.025.349-.584.513-1.117.494-1.6-.019-.478-.224-.833-.612-1.064-.246-.146-.56-.234-.944-.264-.386-.031-2.417-.033-4.353 0zm0-.385l-.123-.205c.89-1.018 2.105-3.026 3.196-3.675a1.277 1.277 0 011.235-.074c.422.185.768.458 1.106 1.025.349.584.513 1.117.494 1.6-.019.478-.224.833-.612 1.064-.246.147-.56.234-.944.265-.386.03-2.417.032-4.353 0zm-.717.385l.121.204c-.889 1.018-2.104 3.026-3.196 3.675a1.275 1.275 0 01-1.233.074c-.422-.185-.768-.457-1.107-1.025-.349-.584-.513-1.117-.494-1.6.019-.478.224-.833.612-1.064.246-.146.559-.234.945-.264.386-.031 2.416-.033 4.352 0zm0-.385l.121-.205c-.889-1.018-2.104-3.026-3.196-3.675a1.275 1.275 0 00-1.233-.074c-.422.185-.768.458-1.107 1.025-.349.584-.513 1.117-.494 1.6.019.478.224.833.612 1.064.246.147.559.234.945.265.386.03 2.416.032 4.352 0zm8.57-7.419h-.15l-.897-1.455c-.28-.45-.421-.82-.421-1.104a.85.85 0 01.36-.72c.238-.176.567-.264.987-.264.43 0 .774.087 1.03.26a.807.807 0 01.381.702c0 .188-.055.394-.162.622-.108.226-.483.879-1.128 1.959zm0 .718h-.15l-.897 1.455c-.28.45-.421.82-.421 1.104 0 .303.12.544.36.72.238.176.567.264.987.264.43 0 .774-.086 1.03-.26a.807.807 0 00.381-.702 1.48 1.48 0 00-.162-.622c-.108-.226-.483-.879-1.128-1.959zm.124-.252l-.077.127c.553.634 1.31 1.882 1.987 2.285a.798.798 0 00.768.046c.261-.116.477-.284.688-.637.217-.363.318-.694.306-.994a.756.756 0 00-.38-.662 1.363 1.363 0 00-.588-.164c-.239-.019-1.5-.02-2.704 0zm0-.238l-.077-.126c.553-.633 1.31-1.882 1.987-2.285a.798.798 0 01.768-.046c.261.116.477.284.688.637.217.362.318.694.306.994a.756.756 0 01-.38.662 1.34 1.34 0 01-.588.164c-.239.019-1.5.02-2.704 0zm-.446.238l.075.127c-.553.634-1.309 1.882-1.987 2.285a.798.798 0 01-.767.046c-.262-.116-.478-.284-.688-.637-.217-.363-.319-.694-.306-.994a.753.753 0 01.379-.662c.153-.091.348-.145.588-.164.24-.019 1.501-.02 2.706 0zm0-.238l.075-.126c-.553-.633-1.309-1.882-1.987-2.285a.798.798 0 00-.767-.046c-.262.116-.478.284-.688.637-.217.362-.319.694-.306.994.01.297.138.518.379.662.153.091.348.145.588.164.24.019 1.501.02 2.706 0zm-15.885-.228h-.151l-.896-1.455c-.281-.45-.422-.82-.422-1.104a.85.85 0 01.36-.72c.238-.176.567-.264.987-.264.43 0 .774.087 1.03.26a.807.807 0 01.381.702c0 .188-.054.394-.162.622-.108.226-.483.879-1.127 1.959zm0 .718h-.151l-.896 1.455c-.281.45-.422.82-.422 1.104 0 .303.12.544.36.72.238.176.567.264.987.264.43 0 .774-.086 1.03-.26a.807.807 0 00.381-.702 1.48 1.48 0 00-.162-.622c-.108-.226-.483-.879-1.127-1.959zm.123-.252l-.076.127c.552.634 1.309 1.882 1.986 2.285a.798.798 0 00.768.046c.261-.116.477-.284.688-.637.217-.363.319-.694.306-.994a.755.755 0 00-.379-.662 1.363 1.363 0 00-.588-.164c-.24-.019-1.502-.02-2.705 0zm0-.238l-.076-.126c.552-.633 1.309-1.882 1.986-2.285a.798.798 0 01.768-.046c.261.116.477.284.688.637.217.362.319.694.306.994a.755.755 0 01-.379.662 1.349 1.349 0 01-.588.164c-.24.019-1.502.02-2.705 0zm-.445.238l.076.127c-.553.634-1.31 1.882-1.987 2.285a.798.798 0 01-.768.046c-.261-.116-.477-.284-.688-.637-.216-.363-.318-.694-.306-.994a.756.756 0 01.38-.662 1.34 1.34 0 01.588-.164c.239-.019 1.5-.02 2.704 0zm0-.238l.076-.126c-.553-.633-1.31-1.882-1.987-2.285a.798.798 0 00-.768-.046c-.261.116-.477.284-.688.637-.216.362-.318.694-.306.994a.756.756 0 00.38.662c.152.091.347.145.588.164.239.019 1.5.02 2.704 0zm8.301-5.229c-.225.014-.547.184-.632.285-.61.722-1.77 1.333-2.57.83-.163-.101-.368-.264-.456-.437-.204-.393-.176-.702.081-1.042.144-.188.219-.283.218-.288-.005-.036-.144-.21-.366-.522l-.101-.228c-.19-.951 1.2-1.726 1.988-1.33.216.107.488.222.683.386.434.359.755.803 1.267.839.466.03 1.066-.962 1.788-1.266.852-.355 2.14.32 1.97 1.33l-.101.23c-.222.312-.36.485-.365.521 0 .006.072.1.217.289.256.339.284.648.081 1.042-.089.173-.294.335-.454.437-.803.504-2.02-.009-2.613-.772a.75.75 0 00-.635-.304zm0-4.569c-.225.013-.547.183-.632.284-.61.723-1.77 1.335-2.57.83-.163-.101-.368-.264-.456-.437-.204-.393-.176-.701.081-1.041.144-.189.219-.284.218-.29-.005-.035-.144-.209-.366-.52l-.101-.23c-.19-.95 1.2-1.725 1.988-1.33.216.109.488.224.683.387.434.36.755.804 1.267.839.466.03 1.066-.962 1.788-1.266.852-.355 2.14.32 1.97 1.33l-.101.23c-.222.312-.36.486-.365.522 0 .005.072.1.217.288.256.34.284.648.081 1.042-.089.173-.294.336-.454.437-.803.504-2.02-.008-2.613-.771a.75.75 0 00-.635-.304zm0-4.684c-.225.012-.547.183-.632.283-.61.723-1.77 1.334-2.57.831-.163-.102-.368-.264-.456-.437-.204-.394-.176-.702.081-1.042.144-.188.219-.283.218-.289-.005-.036-.144-.21-.366-.521l-.101-.23c-.19-.95 1.2-1.725 1.988-1.33.216.11.488.224.683.388.434.359.755.802 1.267.837.466.031 1.066-.96 1.788-1.264.852-.356 2.14.32 1.97 1.33l-.101.23c-.222.311-.36.485-.365.521 0 .006.072.1.217.289.256.339.284.648.081 1.041-.089.173-.294.336-.454.438-.803.503-2.02-.009-2.613-.772a.749.749 0 00-.635-.304zm0-4.629c-.225.014-.547.184-.632.285-.61.722-1.77 1.333-2.57.83-.163-.101-.368-.264-.456-.437-.204-.393-.176-.702.081-1.04.144-.19.219-.285.218-.29-.005-.036-.144-.21-.366-.522l-.101-.23c-.19-.95 1.2-1.725 1.988-1.329.216.108.488.223.683.387.434.359.755.804 1.267.838.466.03 1.066-.961 1.788-1.265.852-.356 2.14.32 1.97 1.33l-.101.23c-.222.311-.36.485-.365.521 0 .006.072.1.217.289.256.339.284.648.081 1.042-.089.173-.294.335-.454.437-.803.503-2.02-.009-2.613-.772a.749.749 0 00-.635-.304zM27.98 11c-.163.009-.398.133-.46.208-.445.526-1.29.972-1.876.605-.117-.074-.265-.193-.33-.319-.148-.286-.127-.511.06-.758.104-.138.157-.208.157-.211-.004-.027-.105-.154-.265-.38l-.074-.168c-.138-.692.873-1.257 1.448-.969.158.079.356.163.5.282.316.26.55.585.922.61.34.023.777-.7 1.305-.921.619-.26 1.558.234 1.434.97l-.073.167c-.163.227-.263.354-.267.38 0 .003.054.073.158.21.188.247.208.472.06.76-.064.125-.214.245-.332.318-.585.367-1.472-.006-1.904-.562A.544.544 0 0027.98 11zm-.005 22.778c-.225.013-.547.184-.632.284-.61.723-1.77 1.334-2.57.831-.163-.102-.368-.264-.456-.437-.204-.394-.176-.703.081-1.042.144-.188.219-.283.218-.289-.005-.036-.144-.21-.366-.521l-.101-.23c-.19-.95 1.2-1.725 1.988-1.33.216.11.488.224.683.388.434.358.755.803 1.267.837.466.03 1.066-.96 1.788-1.265.852-.355 2.14.32 1.97 1.33l-.101.23c-.222.312-.36.486-.365.522 0 .005.072.1.217.288.256.34.284.649.081 1.042-.089.173-.294.336-.454.438-.803.504-2.02-.009-2.613-.772a.749.749 0 00-.635-.304z" fill="#fff"/><path d="M28.191 35.425L28.107 8h-.209l.084 27.426h.21z" fill="#fff"/></svg>