<svg xmlns="http://www.w3.org/2000/svg" width="56" height="56"><path fill="#F0F3FA" d="M0 0h56v56H0z"/><path d="M14 25h4v4.18h1V25h4v6.18a.8.8 0 01-.78.82H14.8a.81.81 0 01-.8-.82V25zm.24.25v5.93c0 .32.25.59.56.59h7.42c.3 0 .56-.27.56-.59v-5.93h-3.53v4.16h-1.46v-4.16h-3.55z" fill="#EE1718"/><path d="M24 25h4.6l.9.86.93-.86H35l-3.14 3.38L34.7 32h-4.15l-1.04-.73-1.02.73H24.3l2.84-3.62L24 25zm.5.23l2.93 3.15-2.64 3.38h3.61l1.1-.8 1.1.8h3.62l-2.65-3.38 2.93-3.15h-4l-1.01.95-1-.95h-4z" fill="#E71919"/><path d="M17.5 25.5h-3v5.6c0 .22.18.4.4.4h7.2a.4.4 0 00.4-.4v-5.6h-3v4a.2.2 0 01-.2.2h-1.6a.2.2 0 01-.2-.2v-4zm10.9 0h-3.3l2.7 2.87-2.5 3.13h2.93l1.27-.9 1.2.9h3l-2.5-3.13 2.7-2.87h-3.3l-1.1 1-1.1-1z" fill="#EE1718"/><path d="M5 25h3.78v3.5H13V32H5v-7zm.23.24v6.53h7.53v-3.05H8.54v-3.48h-3.3z" fill="#E71919"/><path d="M8.3 25.5H5.5v6h7V29H8.3v-3.5z" fill="#EE1718"/><path d="M41.5 23l5.5 5.5-5.5 5.5-5.5-5.5 5.5-5.5z" fill="#112D52"/><path d="M51 28.5L45.5 23l-.8.82 4.6 4.68-4.6 4.66.8.84 5.5-5.5z" fill="#EE1718"/><path d="M49 28.5L43.5 23l-.8.84 4.6 4.66-4.6 4.68.8.82 5.5-5.5z" fill="#EE1718"/></svg>