<svg width="56" height="56" viewBox="0 0 56 56" xmlns="http://www.w3.org/2000/svg"><path fill="#F0F3FA" d="M0 0h56v56H0z"/><path d="M13.46 18c-2.84 0-3.83 7.99-3.34 12 .27-4.5 1.7-8.16 3.45-8.16 2.07 0 2.9 4.27 3.43 5.86-.5-8.46-2.67-9.74-3.54-9.7Z" fill="#969593"/><path d="M8.58 20C5.64 20 4.62 28 5.12 32c.29-4.5 1.76-8.16 3.58-8.16 1.44 0 2.36 2.65 2.63 3.66.06.09.28.2.67 0-.58-5.6-2.52-7.54-3.42-7.5Z" fill="#005CA1"/><path d="M51 26.9v-.77c0-.08.04-.13.12-.13h.75c.09 0 .13.04.13.13v1.78c0 .06-.03.1-.1.09h-.62c-.18.02-.28.13-.28.31v3.58c0 .06.03.1.08.11h.21c.06.01.2.04.21.09v.81c0 .05-.03.1-.08.1H49.1c-.07 0-.1-.03-.1-.1v-.79c0-.07.03-.1.1-.11h.33c.07 0 .1-.04.1-.1v-3.6c0-1.08.47-1.33 1.38-1.3.06 0 .1-.03.1-.1ZM11.4 27c.78 0 1.6.31 1.6 1.17v3.77c0 .04.03.06.07.06h.29c.07 0 .13.05.13.12v.76c0 .08-.05.12-.13.12h-1.8c-.04 0-.07-.03-.07-.06V28.3c0-.2-.09-.29-.29-.3h-.43c-.2 0-.28.07-.28.25v4.66c0 .05-.04.1-.1.1L9.08 33c-.04 0-.07-.03-.07-.06v-4.7c0-.15-.08-.22-.23-.24h-.55c-.22 0-.22.03-.22.17v4.76c0 .04-.03.07-.07.07H6.08c-.06 0-.1-.03-.1-.09l.02-.83c0-.05.03-.08.08-.08h.36c.06 0 .11-.04.11-.1l.01-3.83c0-.04-.03-.07-.08-.07H6.1c-.08 0-.11-.04-.11-.1v-.8c0-.06.03-.1.1-.1h3.09c.32 0 .53.24.7.18A5.67 5.67 0 0 1 11.4 27ZM23.5 28h.35c.1 0 .15.05.15.14v.74c0 .08-.04.12-.14.12h-1.75c-.07 0-.1-.03-.11-.1v-.65c0-.15-.09-.23-.25-.25h-1.02c-.13.02-.23.12-.23.24v3.46c0 .18.1.28.3.3h1.03c.1-.02.17-.12.17-.2v-.59c0-.03.04-.05.07-.05h1.12c.04 0 .08.03.08.07 0 1.14-.08 1.77-1.43 1.77h-1.7c-.88 0-1.14-.63-1.14-1.34V28.2c0-1 .65-1.2 1.67-1.19h1.4c.82.01 1.26.3 1.32.92 0 .04.06.08.1.08ZM38.95 30.03l-.9 2.85a.18.18 0 0 1-.17.12h-.57a.12.12 0 0 1-.11-.08l-1.58-4.82a.15.15 0 0 0-.14-.1h-.35c-.09 0-.13-.04-.13-.12v-.79c0-.06.03-.09.1-.09h1.63c.06 0 .12.04.13.1l.98 3.26c.03.1.06.1.1 0l.9-2.78c.02-.06.07-.09.13-.09h.47c.07 0 .14.05.16.12l1.01 2.8c.04.09.07.09.1-.01l.76-2.31c.02-.06 0-.1-.08-.1l-.23.01c-.12 0-.17 0-.17-.18v-.7c0-.12.02-.12.11-.12h1.81c.06 0 .1.03.09.09v.82c0 .06-.03.1-.1.09h-.38c-.07 0-.13.03-.15.1l-1.56 4.74c-.04.1-.11.16-.23.16h-.49a.16.16 0 0 1-.15-.1l-.91-2.87c-.03-.08-.06-.08-.08 0ZM16.49 28.18l.01 1.73c0 .06-.03.09-.08.09H14.9c-.73 0-.9.37-.91 1.15V32c.04.73.32 1 .91 1h3.48c.04 0 .08-.04.08-.09v-.81c0-.07-.04-.1-.1-.1h-.27c-.05 0-.09-.03-.09-.08v-3.69c0-.84-.5-1.23-1.12-1.23h-1.46c-.92 0-1.42.7-1.42 1.51v.44c0 .03.02.05.05.05h1.34c.06 0 .1-.03.1-.1l-.01-.63c0-.13.09-.25.2-.27h.7c.06.02.1.12.1.18ZM15.16 31h1.19c.08 0 .15.08.15.17v.66c0 .1-.07.17-.15.17h-1.2c-.08 0-.15-.08-.15-.17v-.66c0-.1.07-.17.16-.17ZM24.52 28h.37c.07 0 .11.04.11.1v6.78c0 .04-.03.07-.07.09-.1.03-.02.03-.36.03-.17 0-.16.05-.17.13v.71c0 .09.07.16.16.16h2.34c.05 0 .1-.04.1-.1v-.8c0-.07-.04-.1-.12-.1h-.27c-.06 0-.11-.04-.12-.1v-1.84c0-.03.03-.06.06-.06h1.26c.9 0 1.66-.05 1.67-.97.02-1.21.02-2.5 0-3.85 0-.8-.55-1.18-1.46-1.18h-3.5c-.08 0-.12.03-.12.1v.8c0 .06.05.1.12.1Zm2.22 0h1.07c.1 0 .19.08.19.18v3.64c0 .1-.09.18-.19.18h-1.07c-.1 0-.2-.08-.2-.18v-3.64c0-.1.1-.18.2-.18ZM34 31.95v-3.93c0-.56-.5-1.02-1.07-1.02h-1.9c-.57 0-1.03.47-1.03 1.03v3.93c0 .56.48 1.04 1.05 1.04h1.89c.57 0 1.07-.49 1.07-1.05ZM31.8 28h.37c.18 0 .32.14.32.3v3.4c0 .16-.14.3-.32.3h-.37a.31.31 0 0 1-.31-.3v-3.4c0-.16.14-.3.31-.3Z" fill="#E61E2A"/><path fill-rule="evenodd" d="M45.51 31.77v-1.7c0-.04.03-.07.09-.07h2.7c.06 0 .1-.03.1-.08v-1.76c0-.68-.41-1.17-1.2-1.16h-1.45c-.76 0-1.75-.01-1.75 1.12v3.72c.01.9.61 1.16 1.51 1.15h1.7c.7 0 1.04-.34 1.18-.9.02-.06.05-.09.12-.09h.34c.08 0 .15-.06.15-.13v-.74c0-.09-.05-.13-.14-.13H47.1c-.07 0-.1.03-.1.08v.72c0 .1-.1.18-.2.2h-1.07c-.12-.02-.22-.12-.22-.23Zm.06-2.77h1.34c.05 0 .09-.04.09-.08v-.6c-.03-.19-.19-.32-.5-.32h-.62c-.2 0-.4.14-.4.33v.6c0 .04.05.07.1.07Z" fill="#E61E2A"/></svg>