<svg width="56" height="56" viewBox="0 0 56 56" xmlns="http://www.w3.org/2000/svg"><path fill="#F0F3FA" d="M0 0h56v56H0z"/><path d="M24.44 46.38c-1-2.38-3.17-7.6-3.79-9.44-.16-.5-.35-1.04-.55-1.6V35H26v-7h2v5h3v-5h1v-2.56h1.08L35 22.67V19H23v7h-5v4.17a69.45 69.45 0 0 1-2.54-9.06c-.65-3.2-.77-4.24.74-4.74a36.6 36.6 0 0 1 4.66-.71c2.63-.32 5.82-.7 8.27-1.26 4.46-1.02 13.57-1.58 13.84-1.35.22.2-.82 1.1-1.51 1.71l-.37.32c-.6.54-3.57 4.36-4.16 5.2-.6.83-.87 1.25-.99 1.52-.1.21-1.78 2.97-2.62 4.33-.06 1.26-.29 4.03-.74 5.01-.46.99-.62 2.5-.72 3.37l-.06.48-.06.69c-.08.97-.2 2.54-.59 3.31a23.4 23.4 0 0 1-1.13 1.89c-.28.44-.5.78-.5.86l-.02.19c-.02.42-.07 1.33-.43 1.63l-.38.26c-.5.34-1.24.82-1.68 1.7-.56 1.14-1.27 2.19-2.57.86Z" fill="#02893D"/><path d="M19 34.15V27h1.36l1.66 5.2L24 26.96V20h4v1h-3v2h2.45v1H25v10.15h-1v-4.57l-1.64 4.57h-.82L20 29.58v4.57h-1Zm11.72-9.77c-.08.63-.25 1.96-.32 2.3l-.03.27c-.04.35-.08.68-.45.68h-.1c-.42 0-.78 0-.81-.78-.04-.84.48-3.07.64-3.34.16-.28 1.65-1.5 1.91-1.39.27.11.98 1.59 1 1.8.03.2-.1.75-.37.81-.26.07-.72-.27-.79-.54l-.23-.87-.45 1.06Z" fill="#02893D"/></svg>