<svg width="56" height="56" viewBox="0 0 56 56" xmlns="http://www.w3.org/2000/svg"><path fill="#F0F3FA" d="M0 0h56v56H0z"/><path d="M44.46 24.5H11.67v.5h32.79v-.5Zm-.52 8.5H12.19v.5h31.75V33Z" fill="#9A6513"/><path d="M28.3 11.42v5.36c0 .03 0 .06.03.08.02.03.05.04.08.04h.95a.1.1 0 0 0 .07-.03.1.1 0 0 0 .03-.08l-.67-5.36c.1.02.2.02.31 0l.7 5.35c.01.07.06.11.13.11l6.7-.01.02.01v.03a10.81 10.81 0 0 0-1.58 4.38c-.05.36-.06.74-.03 1.14a14.67 14.67 0 0 0 .21 1.5c0 .04.03.08.08.1.05.03.1.02.14 0a16.54 16.54 0 0 0 5.8-6l.22.28a.54.54 0 0 0-.23.26l-.07.14a16.7 16.7 0 0 1-2.5 3.2 13.52 13.52 0 0 1-3.26 2.44.41.41 0 0 0-.12.1.14.14 0 0 1-.13 0 6.43 6.43 0 0 1-.34-3.66c.2-1.25.62-2.41 1.25-3.5a.06.06 0 0 0 0-.06.06.06 0 0 0-.05-.04H20.93a.27.27 0 0 0-.2.09 5.56 5.56 0 0 0-1.6 3.2 7.86 7.86 0 0 0 .34 3.62c.03.1.04.21.01.34l-.18.06a13.4 13.4 0 0 1-4.05-7.04c-.04-.06.02-.15.19-.25l.44 1.38a13.64 13.64 0 0 0 2.87 4.96c.26.3.34.25.25-.13a6.48 6.48 0 0 1 1.56-6.45c.07-.06.15-.1.24-.1l5.46.02c.07 0 .12-.04.13-.11l.71-5.34.3-.02-.66 5.33c-.01.1.03.16.14.16l.9-.01c.06 0 .1-.02.13-.05a.17.17 0 0 0 .05-.12l-.05-5.32a.6.6 0 0 1 .39 0Z" fill="#96B0FB"/><path d="M27.4 11.43c.2-.04.37-.04.5-.01l.06 5.32c0 .04-.02.09-.05.12a.16.16 0 0 1-.12.05h-.91c-.1 0-.15-.04-.14-.15l.66-5.33ZM28.3 11.42c.16-.03.32-.03.49 0l.67 5.37a.1.1 0 0 1-.03.08.1.1 0 0 1-.07.03h-.95a.12.12 0 0 1-.08-.04.12.12 0 0 1-.04-.08v-5.36ZM27.1 11.45l-.71 5.34c-.01.07-.06.11-.13.11l-5.46-.02c-.1 0-.17.04-.24.1A6.48 6.48 0 0 0 19 23.43c.1.38.01.42-.25.13a13.64 13.64 0 0 1-2.87-4.96l-.44-1.38c.07-.14.17-.27.3-.4a16.5 16.5 0 0 1 11.36-5.37ZM29.1 11.43a16.5 16.5 0 0 1 12.16 6.61 16.54 16.54 0 0 1-5.8 6 .14.14 0 0 1-.13 0 .13.13 0 0 1-.08-.1l-.06-.4c-.08-.49-.13-.85-.15-1.1-.03-.4-.02-.78.03-1.14a10.82 10.82 0 0 1 1.58-4.4.03.03 0 0 0-.02-.02l-6.7.01c-.08 0-.12-.04-.13-.11l-.7-5.35Z" fill="#F4EEB2"/><path d="M40.67 38.74c-.05 0-.1.05-.14.15a4.07 4.07 0 0 1-1.62-.94l-.66-.67c-.16-.17-.23-.14-.22.1a3.54 3.54 0 0 1-1.55 3.27.35.35 0 0 1-.2.07l-6.34.29c-.09 0-.14.04-.15.13l-.67 3.4-.34.03.66-3.42c.02-.1-.03-.16-.14-.15l-.81.07c-.05 0-.1.03-.13.06a.18.18 0 0 0-.05.13l-.02 3.32a.73.73 0 0 1-.39 0l.05-3.31c0-.11-.05-.16-.16-.16l-.92.03a.11.11 0 0 0-.09.05.1.1 0 0 0-.02.1c.15.64.28 1.3.4 1.99 0 .09.04.22.08.4.09.34.12.62.1.8 0 .04.01.05.04.06l.04.04c-.12 0-.25 0-.36-.04l-.63-3.22a.23.23 0 0 0-.08-.14.22.22 0 0 0-.16-.05c-2.16.13-4.18.23-6.06.3a.19.19 0 0 1-.15-.07.16.16 0 0 1 .01-.24 7.6 7.6 0 0 0 2.07-2.63 6.2 6.2 0 0 0 .36-3.4.08.08 0 0 0-.04-.05.08.08 0 0 0-.08 0 18.9 18.9 0 0 0-5.6 5.12.56.56 0 0 0-.18-.17 15.5 15.5 0 0 1 3.19-3.48c.9-.72 1.84-1.37 2.82-1.95a.09.09 0 0 1 .08 0c.02 0 .04.02.05.05a6.3 6.3 0 0 1-2.06 6.36c-.1.1-.09.14.05.14L36 40.45a.8.8 0 0 0 .49-.17c1.12-.9 1.5-2.16 1.12-3.76a.2.2 0 0 1 .02-.14.17.17 0 0 1 .15-.1c.08 0 .13.03.17.1a6.07 6.07 0 0 0 2.72 2.36Z" fill="#96B0FB"/><path d="M27.06 44.54c-.32.01-.64 0-.97-.04a16.41 16.41 0 0 1-9.4-4.34 18.9 18.9 0 0 1 5.61-5.12.08.08 0 0 1 .08 0c.02 0 .04.03.04.06a6.2 6.2 0 0 1-.36 3.39A7.6 7.6 0 0 1 20 41.12a.16.16 0 0 0-.01.24c.04.04.1.06.15.06 1.88-.06 3.9-.16 6.06-.29.06 0 .11.02.16.05.04.04.07.08.08.14l.63 3.22ZM40.53 38.89a16.36 16.36 0 0 1-10.16 5.56c-.4.06-.82.09-1.25.09l.67-3.4c.02-.09.06-.13.15-.13l6.33-.3c.08 0 .15-.02.2-.06a3.54 3.54 0 0 0 1.57-3.27c-.02-.24.05-.27.21-.1l.66.67c.45.43 1 .74 1.62.94ZM28.78 44.57l-.5.01.03-3.32c0-.05.02-.09.05-.13a.19.19 0 0 1 .13-.06l.82-.07c.1 0 .15.04.13.15l-.66 3.42ZM27.9 44.58c-.16.03-.32.03-.48 0a.12.12 0 0 0-.04-.04c-.03 0-.04-.02-.04-.05.02-.2-.01-.47-.1-.82l-.09-.4c-.1-.68-.24-1.34-.39-1.99 0-.04 0-.07.02-.1a.11.11 0 0 1 .09-.04l.92-.03c.11 0 .16.05.16.16l-.05 3.31Z" fill="#F4EEB2"/><path fill-rule="evenodd" d="M14 32v-6h1.56l.9 4.13L17.5 26H19v6h-1v-4.52L16.97 32h-1.01L15 27.48V32h-1Zm24 0h-1v-6h1.56l.9 4.13L40.5 26H42v6h-1v-4.52L39.97 32h-1.01L38 27.48V32Zm-18.43 0h1l.2-1h1.58l.21 1h1.01l-1.48-6h-1.06l-1.46 6Zm2.57-2-.59-2.77-.57 2.77h1.16ZM24 28.95c-.03 1.01.27 3.05 1.8 3.05 1.14 0 1.56-.47 1.7-.71V29H26v1h.5v.74c-.06.11-.12.26-.6.26-.62 0-.9-.55-.9-2.05 0-1.51.35-1.95.85-1.95.4 0 .65.6.74.9l.98-.26c-.06-.66-.56-1.64-1.66-1.64-1.38 0-1.9 1.24-1.9 2.95ZM28.5 32h1v-3.62L31 32h1v-6h-1v3.76L29.53 26H28.5v6Zm4.5-6v4.35c0 .91.67 1.65 1.5 1.65s1.5-.74 1.5-1.65V26h-1v4.38c0 .39-.15.7-.5.7-.34 0-.5-.31-.5-.7V26h-1Z" fill="#F60034"/><path fill-rule="evenodd" d="M28 44.3a16.3 16.3 0 1 0 0-32.6 16.3 16.3 0 0 0 0 32.6Zm0 .7a17 17 0 1 0 0-34 17 17 0 0 0 0 34Z" fill="#F60034"/></svg>