<svg width="56" height="56" viewBox="0 0 56 56" xmlns="http://www.w3.org/2000/svg"><path fill="#F0F3FA" d="M0 0h56v56H0z"/><path fill-rule="evenodd" d="m38.2 25.03-.1-.38c-.03-.12-.08-.13-.15-.02l-5.1 8.13a.17.17 0 0 1-.16.09h-.86c-.06 0-.08-.03-.05-.08l6.86-11.96c.06-.1.03-.13-.08-.11l-.5.08a.34.34 0 0 0-.25.18l-6.7 11.99a.25.25 0 0 1-.1.1l-.17.1c-.03 0-.06 0-.08-.02-.02-.02-.03-.04-.01-.07l6.6-12.1c.06-.1.07-.2.05-.3l-.04-.18a.08.08 0 0 0-.08-.07c-.04 0-.07.01-.09.05l-6.93 12.7a.26.26 0 0 1-.25.15H24.6a.18.18 0 0 1-.18-.11l-5.76-12.45c-.05-.11-.1-.11-.14.01-.57 1.75-1.83 2.48-3.76 2.2-.07-.02-.08 0-.04.06l7.87 11.24c.05.06.03.1-.04.12l-.08.03c-.07.02-.13 0-.17-.06l-7.9-11.27c-.18-.26-.4-.5-.67-.74a2.9 2.9 0 0 1-1.03-1.85c-.1-.76.07-1.44.53-2.04.36-.47.8-.81 1.32-1.02a2.9 2.9 0 0 1 2.93.46c.43.36.75.82.95 1.38l.25.59c1.45 3.2 3.32 7.28 5.6 12.21.02.05.06.06.1.04a1.5 1.5 0 0 1 1.09-.15c.08.02.1 0 .08-.09l-1.43-4.35c-.01-.05 0-.07.06-.07h1.65c.05 0 .09-.02.12-.06a.15.15 0 0 0 .03-.13l-1.53-5.75a2.53 2.53 0 0 1-.08-.66V16.1c0-.06.03-.09.1-.09h5.22c.05 0 .08.03.08.08.02.83.02 2.22.02 4.16 0 .71-.1 1.48-.28 2.31l-.95 4.73c-.02.11.02.17.14.17h1.52c.1 0 .12.04.1.13l-1.32 4.2c-.03.1.01.15.12.15h.85c.08 0 .12.04.12.12v.57c0 .17.05.18.13.03l7.07-12.95c.03-.07.09-.1.16-.12l3.47-.6c.2-.03.3.05.34.24l.13.72c.03.18-.05.28-.24.29-.2 0-.48.06-.86.15-.09.03-.13.08-.11.18l.53 3.02c0 .03.02.04.05.04l1.07-.19c.07 0 .12.01.16.06.04.06.09.17.15.33l.03.1c.13.35.14.59.02.73l-7.2 8.39a.12.12 0 0 1-.1.05h-.05a.12.12 0 0 1-.11-.08.12.12 0 0 1 .01-.14l6.54-7.84c.1-.12.07-.17-.09-.14l-2.3.4a.43.43 0 0 0-.3.2l-4.72 7.5c-.05.09-.12.12-.21.09l-.1-.03c-.1-.03-.12-.1-.07-.19l4.66-7.4c.08-.14.1-.28.06-.43Zm-13.38-8.68h4.5c.06 0 .11.06.11.12v4.28c0 .06-.05.11-.11.11h-4.5a.11.11 0 0 1-.12-.12v-4.28c0-.06.06-.11.12-.11Zm4.87 15.7-1.8.05c-.1 0-.16-.05-.16-.17v-3.27c0-.1.06-.16.17-.16l1.71.03c.1 0 .16-.04.17-.14l.07-.62c0-.12-.04-.18-.17-.18h-4.9c-.12 0-.18.06-.17.18l.05.61c0 .1.06.15.17.15l1.72-.02c.11 0 .17.06.17.17v3.24c0 .1-.05.16-.16.16l-1.7-.02c-.1 0-.16.05-.16.16v.7c0 .11.05.17.16.17h4.85c.12 0 .17-.06.17-.17l-.03-.7c0-.12-.05-.17-.16-.16ZM15.62 22.7a2.6 2.6 0 0 0 2.6-2.58 2.6 2.6 0 0 0-2.6-2.58 2.6 2.6 0 0 0-2.6 2.58 2.6 2.6 0 0 0 2.6 2.58Zm24.65 2.05c-.49.08-.99.18-1.5.28-.17.04-.27-.03-.3-.2l-.04-.19c-.04-.16.03-.25.19-.28l1.14-.24c.02 0 .03-.02.02-.04l-.77-3.66c-.02-.1-.07-.13-.16-.1l-.84.17c-.16.03-.27-.03-.35-.17-.12-.23-.09-.37.1-.42l1.5-.3c.9-.17 1.41-.27 1.52-.28.19-.02.27.1.24.36-.01.16-.1.25-.26.28l-.84.15c-.1.01-.13.07-.11.16l.66 3.68c0 .02.01.03.04.03l1.14-.2c.16-.03.26.03.29.19l.03.2c.03.16-.04.26-.2.28l-1.5.3ZM44.84 31.17h2.6c.28 0 .3.08.04.2l-10.87 5.71c-.08.05-.1.11-.02.18l.06.06c.04.05.1.06.16.03l10.55-5.53.56-.32c.33-.2.64-.3.92-.3.15 0 .2-.08.13-.21l-.47-1.03a.27.27 0 0 0-.27-.17h-2.2c-.07 0-.1-.03-.1-.1v-3.36c0-.17.07-.25.24-.26l2.09-.07c.1 0 .16-.06.16-.17l-.03-.77c0-.09-.05-.13-.14-.13l-3.48.12a.45.45 0 0 0-.3.13l-10.2 9.63c-.07.06-.06.1.02.14l1.62.7c.14.06.28.06.41-.02 3.17-1.72 5.75-3.14 7.73-4.23.28-.15.55-.23.8-.23Zm3.44-1.04h-2.6c-.08 0-.12-.03-.12-.1l-.03-4.05c0-.07.04-.1.11-.11l2.4-.14c.09 0 .12-.05.1-.13l-.04-.28c-.01-.07-.05-.1-.12-.1l-3.23.2c-.07 0-.1.04-.1.11l-.04 5.28c0 .07.04.11.11.11l3.78.04c.11 0 .15-.05.1-.15l-.22-.6c-.01-.06-.05-.08-.1-.08ZM8.42 31.33c-.16-.09-.15-.13.03-.13l2.71-.02c.25 0 .51.07.8.22l7.72 4.24c.13.08.27.09.42.02l1.6-.73c.07-.03.08-.08.02-.14l-9.83-9.27a2.64 2.64 0 0 1-.34-.5c-.04-.06-.09-.08-.15-.04l-1.09.57a.3.3 0 0 0-.17.28v3.88c0 .09-.04.14-.13.14H7.64c-.07 0-.1.02-.13.08L7 31.04c-.03.09 0 .14.09.15.27.02.47.06.57.12l11.5 6.03c.06.03.12.02.17-.02l.06-.07c.07-.07.06-.13-.03-.18L8.42 31.33Zm2-5.39v4.1c0 .06-.03.1-.1.1H7.71a.1.1 0 0 0-.1.08l-.2.59c-.04.1 0 .14.09.14l3.78-.02c.07 0 .1-.03.1-.1l-.04-5.3a.1.1 0 0 0-.05-.1.1.1 0 0 0-.1 0l-.71.42a.1.1 0 0 0-.05.1Z" fill="#221F20"/><path d="M30.08 36.05c0-.12-.06-.2-.2-.2-.1-.01-.23 0-.35.03-.14.03-.18.11-.14.23.08.2.18.33.32.38a7.73 7.73 0 0 1 1.63.74c.38.26.63.56.73.93.18.66.02 1.12-.48 1.37-.4.21-.96.26-1.65.16-.8-.12-1.48-.27-2.06-.45-.09-.03-.14-.1-.14-.19l-.04-1.07c0-.13.06-.2.2-.2h1.22c.17 0 .27.08.3.23l.08.36c.04.14.12.23.26.27a.6.6 0 0 0 .4-.04c.2-.07.26-.2.18-.39a.82.82 0 0 0-.5-.45c-.12-.05-.3-.1-.58-.17a4.41 4.41 0 0 1-1.38-.56 1 1 0 0 1-.4-.77c-.03-.32.05-.59.22-.82.4-.53 1.05-.72 1.95-.58.62.1 1.31.34 2.06.73.07.03.1.08.12.15.05.29.05.6.02.9-.01.07-.05.1-.12.08-.38-.07-.82-.16-1.32-.28-.14-.03-.23-.07-.26-.12a.45.45 0 0 1-.07-.27ZM22.7 37.8c-.09-.2-.14-.2-.14.03-.01.62.09 1.27.3 1.95.07.21 0 .36-.21.45l-1.44.62a.15.15 0 0 1-.16-.02c-.04-.04-.06-.08-.05-.13.24-1.06.31-2.14.2-3.25 0-.08-.03-.22-.08-.41a2.4 2.4 0 0 1-.1-.66c.03-.18.15-.31.37-.39l1.8-.54c.11-.03.19 0 .22.11l.5 1.41c.03.1.06.1.1 0l.57-1.73c.04-.1.11-.16.22-.18.64-.11 1.33-.18 2.08-.2.11 0 .15.05.13.16a7.74 7.74 0 0 0 .05 4.26c.01.06 0 .1-.03.16a.2.2 0 0 1-.16.07l-1.97.07c-.04 0-.05-.02-.05-.05l.12-1.99c0-.04-.02-.05-.06-.03l-.1.04a.11.11 0 0 0-.07.08c-.1.46-.24 1.07-.44 1.84-.05.2-.2.36-.43.45-.2.07-.34.02-.4-.17-.3-.79-.55-1.44-.77-1.95ZM35 40.94c-.23-.96-.33-2-.29-3.14 0-.18.05-.4.14-.66l.1-.36c.05-.21-.04-.37-.25-.46l-1.95-.79a.16.16 0 0 0-.17.02.14.14 0 0 0-.06.15c.01.13.06.32.15.58.1.34.16.6.17.77v1.66c-.01.13-.06.32-.15.56-.1.3-.15.53-.12.7.01.07.05.1.11.13.62.2 1.37.49 2.24.9l.06-.01c.02-.02.02-.03.02-.05Z" fill="#3E6098"/></svg>