<svg width="56" height="56" viewBox="0 0 56 56" xmlns="http://www.w3.org/2000/svg"><path fill="#F0F3FA" d="M0 0h56v56H0z"/><path d="m20.03 20.47-5.8 17.49-.06.04c-.02 0-.04 0-.06-.03a17.17 17.17 0 0 1 2.06-22.14 17.1 17.1 0 0 1 12.98-4.8c.05 0 .06.03.04.08L20.9 32.23c-.04.11-.07.11-.08-.01l-.67-11.74c-.01-.2-.05-.2-.12-.01ZM44.36 23.48a16.98 16.98 0 0 1-4.9 17.22c-.03.03-.05.02-.07-.03a33801.01 33801.01 0 0 0-8.2-29.27c-.01-.05 0-.07.06-.06 4.78 1 8.5 3.57 11.18 7.73.83 1.3 1.47 2.76 1.93 4.4Z" fill="#AF0D15"/><path d="M18.97 25.53c-.01 3.48-.05 7.08-.1 10.8-.01.25.08.45.27.62.19.18.4.25.65.21a.91.91 0 0 0 .56-.25c.11-.11.22-.3.31-.57l.26-.67 8.6-20.8c.04-.08.07-.08.1 0l7.9 27.1c0 .02 0 .03-.02.04a16.7 16.7 0 0 1-6.47 2.7 16.8 16.8 0 0 1-9.17-.82 16.78 16.78 0 0 1-7.2-5.2.15.15 0 0 1-.02-.16 15918.29 15918.29 0 0 1 4.33-13.02v.02Z" fill="#231E1F"/></svg>