<svg xmlns="http://www.w3.org/2000/svg" width="56" height="56"><path fill="#DD1D37" d="M0 0h56v56H0z"/><path d="M23.02 34v-4h.77v3.35h1.75V34h-2.52z" fill="#fff"/><path fill-rule="evenodd" d="M26.8 30a1 1 0 00-1 1v2a1 1 0 001 1h1.68a1 1 0 001-1v-2a1 1 0 00-1-1H26.8zm.23.6a.5.5 0 00-.5.5v1.8c0 .27.22.5.5.5h1.22a.5.5 0 00.5-.5v-1.8a.5.5 0 00-.5-.5h-1.22z" fill="#fff"/><path d="M30.8 30a1 1 0 00-1 1v2a1 1 0 001 1h1.5a1 1 0 001-1v-1.14h-1.74v.6h1.06v.44a.5.5 0 01-.5.5H31a.5.5 0 01-.5-.5v-1.8c0-.27.22-.5.5-.5h1.12c.27 0 .5.23.5.5v.15h.68V31a1 1 0 00-1-1h-1.5zm3.03 0h.78v4h-.78zm8.01 0h.78v4h-.78zm-2.33 0h-1.15v.67h1.15V34h.78v-3.33h1.14V30h-1.92zm3.63 1a1 1 0 011-1h1.37a1 1 0 011 1v.31h-.66v-.2a.5.5 0 00-.5-.5H44.3a.5.5 0 00-.5.5v1.79c0 .27.22.5.5.5h1.04a.5.5 0 00.5-.5v-.31h.66V33a1 1 0 01-1 1h-1.37a1 1 0 01-1-1v-2zm-5.95-1c.78.02.9.76.87 1.13h-.75c0-.4-.2-.52-.3-.52h-.8c-.16-.02-.5.05-.5.52 0 .47.27.55.4.56h1.2c.29 0 .83.24.83 1.15 0 .93-.52 1.16-.83 1.16h-1.34c-.88 0-1.04-.85-1.01-1.27h.76c0 .53.2.65.3.65h1c.13 0 .4-.1.4-.54 0-.44-.27-.6-.4-.6h-1c-.35-.02-1.06-.25-1.06-1.11 0-.86.5-1.1.76-1.12.16 0 .68-.02 1.47 0zm11.78 0c.79.02.92.76.88 1.13h-.75c0-.4-.2-.52-.3-.52H48c-.16-.02-.5.05-.5.52 0 .47.27.55.4.56h1.2c.28 0 .83.24.83 1.15 0 .93-.52 1.16-.83 1.16h-1.34c-.89 0-1.04-.85-1.01-1.27h.75c0 .53.21.65.32.65h.99c.13 0 .4-.1.4-.54 0-.44-.27-.6-.4-.6h-1c-.35-.02-1.06-.25-1.06-1.11 0-.86.5-1.1.75-1.12.17 0 .69-.02 1.47 0zm-29.79-5h-3.2c-.16 0-.3.08-.39.2l-.54.8h3.58c.2.01.37.23.37.45V28h-3v-.34c0-.1.05-.16.13-.16H18v-.8c0-.14-.08-.2-.2-.2h-2.28a.51.51 0 00-.52.52v1.6c.04.22.22.38.43.38H20v-3.14a.84.84 0 00-.82-.86zm30 0h-3.2c-.16 0-.3.08-.4.2l-.53.8h3.6c.2.01.35.23.35.45V28h-3v-.37c0-.08.05-.13.13-.13H48v-.72c0-.14-.08-.28-.2-.28h-2.28c-.3 0-.52.3-.52.6v1.52c.04.22.22.38.43.38H50v-3.14a.84.84 0 00-.82-.86zM39 24v4h-2.76c-.14 0-.24-.11-.24-.21v-1.43c0-.21.18-.36.4-.36h1.75c.15 0 .3-.1.37-.2L39 25h-3.19a.83.83 0 00-.81.82v2.52c0 .43.35.66.67.66H40v-5h-1zm2.62 1a.6.6 0 00-.62.58V29h1v-2.55c0-.22.2-.45.43-.45h1.6c.16 0 .3-.07.38-.2L45 25h-3.38zM27 24h1v.92l-1 .89V24zm0 2.53V29h1v-3.62l-.8.66c-.12.1-.2.28-.2.49zM13 24H6v5h1v-4h2.26c.15 0 .24.09.24.22V29h1v-3.77c0-.14.13-.23.28-.23h1.81c.22 0 .4.15.4.35V29H14v-4.08c0-.51-.45-.92-1-.92zm20.14 1H29v4h1v-3h2.6c.22 0 .4.22.4.45V29h1v-3.14a.86.86 0 00-.86-.86zM21 24h1v5h-1v-5zm5 1.87c0-.48-.4-.87-.85-.87h-2.27c-.16 0-.24.08-.33.22L22 26h2.63c.2.01.37.23.37.45V29h1v-3.13z" fill="#fff"/></svg>