<svg xmlns="http://www.w3.org/2000/svg" width="56" height="56"><path fill="#F0F3FA" d="M0 0h56v56H0z"/><path fill-rule="evenodd" d="M28 33c5.02 0 9-3.85 9-8.5S33.02 16 28 16s-9 3.85-9 8.5 3.98 8.5 9 8.5zm0 1c5.52 0 10-4.25 10-9.5S33.52 15 28 15s-10 4.25-10 9.5S22.48 34 28 34z" fill="#0680DE"/><path fill-rule="evenodd" d="M28 35.5c6.4 0 11.5-4.97 11.5-11s-5.1-11-11.5-11-11.5 4.97-11.5 11 5.1 11 11.5 11zm0 1c6.9 0 12.5-5.37 12.5-12s-5.6-12-12.5-12-12.5 5.37-12.5 12 5.6 12 12.5 12z" fill="#0680DE"/><path fill-rule="evenodd" d="M28 38c7.76 0 14-6.08 14-13.5S35.76 11 28 11s-14 6.08-14 13.5S20.24 38 28 38zm0 1c8.28 0 15-6.5 15-14.5S36.28 10 28 10c-8.28 0-15 6.5-15 14.5S19.72 39 28 39z" fill="#0680DE"/><path fill-rule="evenodd" d="M26 19h-3v10h10V19h-3l-2 2.7-2-2.7zm-.23.5H23.5v9h9v-9h-2.27l-2.23 3-2.23-3zm4.73.5l-2.25 3.06V28H32v-8h-1.5zm-5 0l2.25 3.06V28H24v-8h1.5z" fill="#0381D7"/><path d="M18 41h3.21l.8 2.65.81-2.65H26v5h-2v-3.5L22.8 46h-1.57L20 42.5V46h-2v-5zm12.46 3.22c.25.04.33.2.33.34 0 .24-.15.41-.73.41-.29 0-.5-.04-.63-.1a.4.4 0 01-.2-.37H27c0 1.49 1.56 1.7 2.99 1.7 2.08 0 3.01-.58 3.01-1.8 0-.86-.58-1.33-1.51-1.48l-2.21-.35c-.19-.03-.25-.12-.25-.26 0-.22.2-.36.75-.36.2 0 .41.02.57.1.18.07.29.2.29.4h2.15c-.07-1.06-.93-1.65-3.01-1.65-1.53 0-2.71.35-2.71 1.66 0 .7.37 1.27 1.28 1.42l2.1.34zM34 46h5v-1.53h-3V41h-2v5z" fill="#050505"/></svg>