<svg width="56" height="56" viewBox="0 0 56 56" xmlns="http://www.w3.org/2000/svg"><path fill="#F0F3FA" d="M0 0h56v56H0z"/><path d="m19.24 34.29-.05-7.78c0-.1-.05-.13-.13-.07-.16.12-.26.32-.3.6-.3 2.43-.36 4.72-.16 6.87.01.1 0 .21-.02.33-.11.09-.2.13-.28.13-.86.03-1.77.04-2.74.02-.1 0-.14-.06-.14-.15l.31-5.3c.13-2.07.46-4.03 1.02-5.88.31-1.05.76-2.06 1.33-3.05.06-.1.16-.16.28-.18l3.46-.49c.1-.02.16.03.17.13l.3 3.88c.03.23.07.23.15.02l1.48-4.2a.35.35 0 0 1 .28-.23c1.36-.28 2.75-.59 4.15-.91.13-.03.36-.06.67-.08.08 0 .1.02.06.09a12.99 12.99 0 0 0-1.93 5.7c-.14 1.5-.18 3.07-.1 4.7l.28 5.34c0 .09-.03.13-.12.13h-3.17c-.08 0-.13-.04-.13-.12a15 15 0 0 1 0-1.68c.08-1.43.11-2.7.11-3.8 0-.29-.04-.3-.11-.02a780.38 780.38 0 0 0-1.16 4.29 15.3 15.3 0 0 1-.43 1.6.22.22 0 0 1-.23.16l-2.85-.05Z" fill="#E36715"/><path fill-rule="evenodd" d="M29.2 33.85c0-.07.04-.12.1-.13a1077.47 1077.47 0 0 0 7.4-1.88c.39-.13.7-.22.93-.26a6.62 6.62 0 0 0 3.77-1.9 8.86 8.86 0 0 0 1.33-10.83 7.58 7.58 0 0 0-3-2.92c-1.48-.8-3.43-1.08-5.84-.86-2.88.26-5.85.73-8.92 1.41a267.5 267.5 0 0 0-7.35 1.7c-.29.06-.52.2-.72.4a7.78 7.78 0 0 0-1.62 2.92c-.5 1.56-.87 3.24-1.1 5.04a94.9 94.9 0 0 0-.7 10.65c0 .08-.03.12-.11.1-1.26-.16-2.03.35-2.3 1.56-.14.56-.06 1.12.2 1.68.05.08.12.12.2.12 2 0 6.54.01 13.6.06.18 0 .44.05.77.15.31.1.55.14.7.14 1.17 0 1.95-.96 2.37-2.9.26-1.21.36-2.63.3-4.25Zm-15.15 3.41h11.84c.1 0 .16.05.2.13a.2.2 0 0 1-.04.24c-.19.2-.34.38-.46.55a1.7 1.7 0 0 0-.29 1.2c.06.46.29.78.68.96.6.25 1.15.08 1.7-.54.43-.5.72-1.09.86-1.75.15-.74.25-1.72.3-2.93.03-.65-.04-1.52-.22-2.6a30.42 30.42 0 0 1-.36-5.98c.08-2.21.53-4.34 1.35-6.38a7.99 7.99 0 0 1 4.48-4.65c.46-.19.44-.26-.05-.2-2.01.2-4.28.55-6.8 1.06a262.98 262.98 0 0 0-9.34 2.09c-.3.07-.52.16-.62.27-.17.16-.32.34-.46.54-.92 1.35-1.6 3.3-2.03 5.85a45.78 45.78 0 0 0-.51 4.03c-.2 2.54-.33 5.19-.4 7.94 0 .12.05.17.17.17Zm-2.5 2.97a3.2 3.2 0 0 1-.1-1.4c.08-.5.33-.86.72-1.06.18-.08.54-.13 1.1-.13l11.82.04c.1 0 .11.04.07.12-.44.76-.5 1.55-.16 2.35.05.1.01.15-.1.15H11.65c-.05 0-.09-.02-.1-.07Zm24.93-9.07c-.96 0-1.88-.2-2.76-.6a7.13 7.13 0 0 1-2.33-1.72 7.92 7.92 0 0 1-1.56-2.57 8.5 8.5 0 0 1 1.58-8.61 7.11 7.11 0 0 1 2.34-1.71 6.6 6.6 0 0 1 5.5.01c.9.4 1.67.98 2.34 1.72.68.74 1.2 1.6 1.56 2.56a8.5 8.5 0 0 1-1.58 8.61 7.11 7.11 0 0 1-2.34 1.71c-.88.4-1.8.6-2.75.6Zm0-.58a6.1 6.1 0 0 1-2.56-.55 6.6 6.6 0 0 1-2.17-1.59 7.4 7.4 0 0 1-1.95-5.17 7.4 7.4 0 0 1 1.95-5.17 6.6 6.6 0 0 1 2.17-1.59 6.1 6.1 0 0 1 5.1 0c.82.37 1.54.9 2.17 1.59a7.4 7.4 0 0 1 1.95 5.17 7.4 7.4 0 0 1-1.95 5.17 6.6 6.6 0 0 1-2.17 1.59 6.1 6.1 0 0 1-2.55.55Zm.02-.25c-1.78 0-3.3-.68-4.56-2.06a7.16 7.16 0 0 1-1.9-4.99c-.01-1.95.6-3.62 1.86-5a5.94 5.94 0 0 1 4.55-2.08c1.78-.01 3.3.67 4.56 2.05a7.16 7.16 0 0 1 1.9 4.99c.02 1.95-.6 3.62-1.86 5a5.94 5.94 0 0 1-4.55 2.09Zm-4.2-2.47a5.45 5.45 0 0 0 4.17 1.9c1.64-.01 3.03-.65 4.18-1.91a6.57 6.57 0 0 0 1.72-4.6c0-1.78-.58-3.31-1.74-4.57a5.45 5.45 0 0 0-4.18-1.9c-1.63 0-3.02.64-4.17 1.91a6.57 6.57 0 0 0-1.73 4.59c0 1.79.58 3.32 1.74 4.58Zm.16-.18a5.24 5.24 0 0 0 4.02 1.82c1.57 0 2.9-.62 4.01-1.84a6.31 6.31 0 0 0 1.66-4.4c0-1.73-.56-3.2-1.67-4.41a5.24 5.24 0 0 0-4.02-1.82c-1.57 0-2.91.61-4.02 1.83a6.31 6.31 0 0 0-1.65 4.41c0 1.72.56 3.2 1.67 4.4Zm4 1.24a4.75 4.75 0 0 1-3.65-1.65 5.72 5.72 0 0 1-1.51-4c0-1.55.5-2.88 1.5-3.99 1-1.1 2.22-1.66 3.64-1.66s2.64.55 3.64 1.65c1.01 1.1 1.52 2.43 1.52 4 0 1.55-.5 2.88-1.5 3.99a4.76 4.76 0 0 1-3.64 1.66Zm0-.26a4.54 4.54 0 0 1-3.48-1.58 5.46 5.46 0 0 1-1.44-3.82c0-1.49.48-2.76 1.44-3.81a4.54 4.54 0 0 1 3.48-1.59c1.35 0 2.51.53 3.47 1.59a5.46 5.46 0 0 1 1.45 3.81c0 1.5-.49 2.76-1.45 3.82a4.54 4.54 0 0 1-3.47 1.58Zm-3.12-2c.85.95 1.89 1.42 3.1 1.42 1.22 0 2.25-.47 3.1-1.41a4.87 4.87 0 0 0 1.3-3.4c0-1.34-.44-2.47-1.3-3.41a4.05 4.05 0 0 0-3.1-1.41c-1.21 0-2.24.47-3.1 1.4a4.87 4.87 0 0 0-1.29 3.41c0 1.33.43 2.47 1.29 3.4Zm.16-.18c.81.89 1.79 1.34 2.94 1.34s2.13-.44 2.94-1.33a4.62 4.62 0 0 0 1.23-3.22 4.6 4.6 0 0 0-1.22-3.23 3.84 3.84 0 0 0-2.94-1.34c-1.14 0-2.13.44-2.94 1.33a4.62 4.62 0 0 0-1.22 3.22c0 1.26.4 2.34 1.21 3.23Zm2.95.77c-1 0-1.85-.38-2.57-1.15a4.03 4.03 0 0 1-1.08-2.81c0-1.1.35-2.04 1.05-2.82a3.35 3.35 0 0 1 2.56-1.18c1 0 1.86.38 2.57 1.15a4.03 4.03 0 0 1 1.08 2.81c0 1.1-.34 2.04-1.05 2.82a3.35 3.35 0 0 1-2.56 1.18Zm-.03-.27c-.94 0-1.74-.37-2.4-1.1a3.76 3.76 0 0 1-.98-2.64c0-1.03.34-1.9 1-2.63a3.14 3.14 0 0 1 2.42-1.08c.94 0 1.74.37 2.4 1.1.66.74.98 1.62.98 2.64 0 1.03-.34 1.9-1.01 2.63a3.14 3.14 0 0 1-2.41 1.08ZM34.4 25.5c.56.62 1.24.92 2.03.92.79 0 1.46-.32 2.02-.94.55-.61.83-1.36.83-2.22 0-.87-.3-1.61-.86-2.22a2.64 2.64 0 0 0-2.03-.91c-.79 0-1.46.31-2.02.93a3.19 3.19 0 0 0-.82 2.22c0 .87.28 1.61.85 2.22Zm.15-.2c.5.57 1.13.85 1.86.85.73 0 1.35-.28 1.86-.84.52-.56.78-1.25.78-2.04 0-.8-.26-1.48-.77-2.05a2.43 2.43 0 0 0-1.86-.85c-.73 0-1.35.28-1.87.84a2.93 2.93 0 0 0-.77 2.05c0 .8.25 1.48.77 2.04Zm1.87.28c-.58 0-1.08-.22-1.5-.66-.4-.45-.62-1-.62-1.64 0-.63.2-1.18.6-1.64.4-.45.9-.68 1.48-.69.59 0 1.08.22 1.5.67.41.44.63.99.63 1.63 0 .64-.2 1.18-.6 1.64-.4.46-.9.69-1.49.69Zm-.01-.26c-.52 0-.96-.2-1.33-.6-.37-.4-.55-.89-.55-1.45 0-.57.18-1.06.54-1.46.37-.4.81-.6 1.33-.6s.96.2 1.33.6c.37.4.55.88.55 1.45s-.18 1.05-.55 1.46c-.36.4-.8.6-1.32.6Zm-.98-1.01c.27.29.58.44.96.44.37 0 .7-.15.96-.44.26-.29.4-.63.4-1.04 0-.41-.14-.76-.4-1.05a1.25 1.25 0 0 0-.96-.43c-.37 0-.7.14-.96.43s-.4.64-.4 1.04c0 .41.14.76.4 1.05Zm.15-.21c.2.24.46.37.77.38.3.02.57-.1.8-.32.22-.23.34-.51.36-.85.01-.34-.08-.63-.3-.87a1.02 1.02 0 0 0-1.57-.06c-.22.22-.34.5-.35.84-.02.34.08.63.29.88Zm1.3-.84a.5.5 0 0 1-.5.5.5.5 0 0 1-.5-.5c0-.27.22-.5.5-.5.27 0 .5.23.5.5Z" fill="#1E1919"/></svg>