<svg width="56" height="56" xmlns="http://www.w3.org/2000/svg"><path fill="url(#paint0_linear)" d="M0 0h56v56H0z"/><path d="M26.07 10.004l-3.687 1.14 1.264 2.73 3.15-.985-.726-2.885zm4.055 0l3.687 1.14-1.264 2.73-3.15-.985.727-2.885zm6.731 3.092l2.66 2.793-2.439 1.767-2.268-2.396 2.047-2.164zm-17.501 0l-2.66 2.793 2.439 1.767 2.268-2.396-2.047-2.164zm-4.371 6.081l-.55 3.814 3.014.031.46-3.263-2.924-.582zm26.032.291l.55 3.813-3.014.032-.46-3.264 2.924-.581zm.237 7.401l-1.618 3.498-2.545-1.61 1.393-2.987 2.77 1.099zm-26.458 0l1.618 3.498 2.545-1.61-1.393-2.987-2.77 1.099zm3.617 6.121l3.044 2.37 1.524-2.595-2.61-2.02-1.958 2.244zm19.062.096l-3.044 2.37-1.524-2.595 2.61-2.02 1.958 2.245z" fill="#000"/><path fill-rule="evenodd" d="M16.005 28.754l2.549-.02-.243-.686-.443.032-.331-.909.364-.315-.189-.717-1.998 1.841.29.774zm.82-.618c.187.009.416.02.563.023l-.24-.68-.633.645a6.89 6.89 0 01.31.012z" fill="#F49F44"/><path fill-rule="evenodd" d="M28.017 34c6.084 0 11.017-4.925 11.017-11S34.1 12 28.017 12C21.932 12 17 16.925 17 23s4.932 11 11.017 11zm.007-1c5.536 0 10.024-4.477 10.024-10S33.56 13 28.024 13C22.488 13 18 17.477 18 23s4.488 10 10.024 10z" fill="#000"/><path fill-rule="evenodd" d="M17.872 15.02l1.257 2.213.483-.545-.244-.37.634-.732.453.165.536-.514-2.583-.847-.536.63zm.94.415c.083.168.185.373.253.502l.478-.54-.871-.24c.008.01.067.13.14.278z" fill="#F9C661"/><path fill-rule="evenodd" d="M40.365 28.03l-1.9-1.697-.283.67.35.274-.367.896-.482-.012-.343.657 2.72-.02.305-.769zm-1.024-.094a24.805 24.805 0 00-.4-.395l-.28.665.902-.052c-.01-.007-.104-.1-.222-.218z" fill="#F4A145"/><path d="M35.739 15.043l1.316-1.17.474.522-1.084.957c-.084.1-.201.4 0 .633.202.231.49.15.61.101l1.123-1.043.523.608-1.269 1.063c-.235.123-.84.228-1.374-.328-.534-.557-.435-1.128-.32-1.343z" fill="#F9C561"/><path d="M17.147 22.532l-2.223-.364v-.573l1.522-.837-1.24-.2v-.674l2.333.41-.082.636-1.485.756 1.258.245-.083.6z" fill="#F6B555"/><path fill-rule="evenodd" d="M40.73 20.366l-2.25.392.066.665.928-.165v.361l-.786.523.11.763 1.003-.763c.055.091.24.266.546.24.382-.033.579-.25.579-.414 0-.13-.131-1.123-.197-1.602zm-.387.697l-.514.11c.021.25.143.72.458.605.261-.096.169-.525.056-.715z" fill="#F6B353"/><path d="M19.244 33.074l1.331-1.817.49.45-.678.966.841-.125.063.802.666-1.028.628.351-1.357 1.843-.477-.364v-.99l-1.038.34-.47-.428z" fill="#F19037"/><path d="M36.589 33.216l-1.332-1.818-.49.451.678.966-.841-.126-.063.803-.666-1.028-.628.35 1.357 1.843.477-.363v-.99l1.038.34.47-.428z" fill="#F2943A"/><path fill-rule="evenodd" d="M23.532 11.18l.681 2.109.656-.21-.241-.736c.392-.063 1.18-.372 1.027-1.075-.16-.738-.892-.611-1.264-.473l-.86.384zm.736.235l.182.492c.245-.056.693-.244.534-.54-.132-.244-.544-.091-.716.048z" fill="#FAD06A"/><path fill-rule="evenodd" d="M30.858 10.723l-.602 2.133.663.189.207-.748c.36.165 1.188.343 1.45-.327.276-.703-.404-1.002-.79-1.093l-.928-.154zm.482.603l-.12.511c.234.088.712.18.742-.154.026-.277-.401-.377-.622-.357z" fill="#FACE68"/><path fill-rule="evenodd" d="M24.84 36.64c.945-1.434.002-2.873-.547-3.332h7.563c-1.468.983-.876 2.685-.437 3.332h-1.241c.775.61.448 1.662.188 2.111L37 41.276v4.728h-1.898c-.852-.627-3.423-1.891-6.889-1.934-3.466-.043-6.163 1.271-7.078 1.934H19v-4.728l6.899-2.525c-.84-.752-.35-1.72 0-2.11H24.84zm-5.228 5.123l6.648-2.456c.354 0 .354.461.175.55L20 42.2V45h.907c.917-.615 3.638-1.913 7.187-1.961 3.55-.049 6.376 1.276 7.346 1.961H36v-2.8l-6.167-2.291c-.25-.485.104-.603.312-.602l6.346 2.542v3.641h-1.144c-1.338-.632-4.662-1.909-7.253-1.96-2.59-.052-5.87 1.17-7.187 1.788h-1.295v-3.555zM29 36.998c0 .37-.201.692-.5.864V41.5a.5.5 0 01-1 0v-3.638A.997.997 0 0128 36a1 1 0 011 .998zM37 23a9 9 0 11-18 0 9 9 0 0118 0zm-10.79-7.152l-.39-1.28.175-.054.39 1.28-.176.054zm-1.869-.701l.51 1.237.169-.07-.51-1.237-.169.07zm-.635 1.964l-.69-1.147.157-.095.69 1.147-.157.095zm-1.86-.17l.96.93.127-.131-.96-.93-.128.132zm.098 1.986l-1.133-.712.098-.155 1.133.712-.098.155zm-1.946.792l1.266.433.06-.174-1.267-.433-.059.174zm.846 1.711l-1.336-.063.009-.184 1.335.064-.008.183zm-1.463 1.496l1.337-.011-.002-.184-1.337.011.002.184zm1.414 1.47l-1.334.075-.01-.183 1.334-.076.01.183zm-.877 1.774l1.236-.51-.07-.17-1.236.51.07.17zm1.967.746l-1.117.735-.1-.153 1.116-.736.101.154zm-.13 2.09l.937-.954-.13-.129-.939.954.131.129zm2.024-.01l-.796 1.076-.148-.11.796-1.075.148.109zm.61 1.932l.511-1.238-.17-.07-.51 1.238.17.07zm1.798-.778l-.25 1.314-.18-.034.25-1.314.18.034zm1.431 1.515l.01-1.339-.183-.001-.01 1.339h.183zm1.498-1.342l.042 1.338-.184.006-.041-1.338.183-.006zm1.68.942l-.328-1.297-.178.045.329 1.298.177-.046zm.937-1.855l.563 1.214-.166.078-.563-1.215.166-.077zm2.056.23l-.93-.96-.132.128.931.96.131-.129zm.007-2.03l1.064.81-.111.145-1.064-.81.11-.146zm1.946-.546l-1.186-.62-.085.163 1.186.62.085-.163zm-.661-1.908l1.304.296-.04.18-1.305-.297.04-.179zm1.616-1.383l-1.337.015.002.184 1.337-.015-.002-.184zm-1.338-1.47l1.337-.033.004.184-1.336.033-.005-.184zm1.017-1.742l-1.266.43.059.174 1.266-.43-.06-.174zm-1.802-.937l1.21-.568.078.166-1.21.568-.078-.166zm.33-2.015l-1.027.857.117.141 1.028-.857-.118-.14zm-2.022-.182l.894-.996.136.123-.893.996-.137-.123zm-.475-2.004l-.682 1.151.158.094.682-1.152-.158-.093zm-1.97.666l.362-1.288.177.05-.363 1.287-.176-.05zm-1.271-1.787l-.027 1.336.183.003.027-1.336-.183-.003zm-1.578 1.336l.027-1.336.183.003-.027 1.336-.183-.003zm-1.935.378c.12-.07.151-.2.15-.322a1.363 1.363 0 00-.082-.399 4.413 4.413 0 00-.283-.63l-.162.087c.05.092.186.349.271.602.043.128.071.247.072.342.002.097-.024.141-.058.161-.035.02-.074.02-.134-.022a.895.895 0 01-.203-.234 5.024 5.024 0 01-.294-.546 10.17 10.17 0 00-.062-.126l-.164.082.057.118c.082.17.191.393.31.573.074.113.158.218.25.283.096.067.214.1.332.03zm-1.12.22c.012.122-.007.255-.12.335-.11.08-.231.06-.333.001a1.065 1.065 0 01-.276-.257 5.21 5.21 0 01-.362-.542 9.74 9.74 0 00-.069-.112l.156-.097.073.12c.098.16.218.358.345.515.08.1.157.175.225.214.063.036.102.032.135.009.032-.023.053-.07.043-.166-.01-.094-.05-.21-.105-.333a4.205 4.205 0 00-.326-.574l.152-.102c.059.088.226.341.342.6.058.13.106.267.12.39zm-1.23 1.125c.098-.097.097-.23.066-.349a1.36 1.36 0 00-.177-.366 4.4 4.4 0 00-.428-.542l-.136.124c.071.077.265.292.41.517.073.114.13.223.153.314.025.094.01.143-.017.17-.03.029-.067.038-.135.012a.89.89 0 01-.254-.177c-.15-.137-.298-.314-.419-.458a11.676 11.676 0 00-.09-.107l-.14.12c.026.029.054.063.085.1.121.144.28.335.44.48.1.092.207.173.312.214.109.041.231.044.33-.052zm-.848.503c.06.106.096.235.025.354-.07.118-.19.147-.305.134a1.065 1.065 0 01-.356-.126 5.205 5.205 0 01-.549-.351 13.2 13.2 0 00-.107-.075l.104-.152.115.08c.154.109.343.242.522.336.114.06.214.097.29.106.074.008.108-.011.128-.046.02-.034.021-.085-.026-.17a1.182 1.182 0 00-.229-.263 4.208 4.208 0 00-.529-.395l.1-.155c.088.057.342.223.553.414.104.095.203.202.264.31zm-.757 1.467c.044-.13-.017-.25-.098-.341a1.36 1.36 0 00-.323-.248 4.404 4.404 0 00-.628-.291l-.065.171c.098.038.369.143.6.278.116.068.216.14.278.212.065.072.074.122.061.16-.012.038-.042.063-.115.07a.893.893 0 01-.307-.043 4.938 4.938 0 01-.58-.22l-.13-.055-.07.17.12.05c.174.075.403.173.61.232.13.036.263.06.375.05.117-.012.227-.065.272-.195zm-.756.962c.1.07.186.172.173.31-.013.137-.109.214-.22.252a1.066 1.066 0 01-.375.038c-.216-.01-.46-.053-.646-.085l-.13-.023.03-.181.139.024c.185.032.413.072.615.081a.891.891 0 00.308-.028c.07-.024.092-.056.096-.096.004-.039-.017-.086-.096-.142a1.183 1.183 0 00-.319-.142 4.217 4.217 0 00-.646-.132l.024-.183c.104.014.405.056.676.14.135.041.27.096.371.167zm-.204 1.748c-.007-.138-.108-.226-.217-.28a1.356 1.356 0 00-.39-.111 4.383 4.383 0 00-.69-.038l.003.184c.104-.002.394-.005.659.036.132.02.252.05.336.093.086.043.114.086.116.126.002.04-.016.075-.08.109a.891.891 0 01-.302.073 4.92 4.92 0 01-.62.01l-.14-.002-.002.183.13.003c.189.005.437.012.652-.011a1.08 1.08 0 00.366-.093c.103-.054.186-.145.18-.282zm-.282 1.235c.108.055.21.143.216.281.008.137-.075.228-.179.282a1.08 1.08 0 01-.366.093c-.214.023-.463.016-.651.011a9.667 9.667 0 00-.131-.003l.002-.183.14.003c.189.004.42.01.62-.011a.89.89 0 00.301-.073c.066-.034.083-.069.081-.11-.002-.038-.03-.082-.116-.125a1.182 1.182 0 00-.336-.093 4.198 4.198 0 00-.659-.036l-.003-.184a4.37 4.37 0 01.69.038c.139.021.28.055.39.11zm.504 1.693c-.031-.135-.146-.204-.262-.239a1.352 1.352 0 00-.405-.04 4.376 4.376 0 00-.685.083l.035.18c.103-.02.387-.073.655-.08a1.15 1.15 0 01.347.034c.093.027.127.065.136.104.01.039-.002.076-.06.12a.892.892 0 01-.284.125c-.194.057-.422.091-.608.12l-.139.02.03.182.129-.02c.186-.028.432-.065.64-.125.129-.038.254-.087.343-.155.093-.072.159-.175.128-.309zm.205 1.093c.12-.005.252.022.326.14.072.116.044.235-.02.333a1.066 1.066 0 01-.275.26c-.176.124-.396.24-.563.327a9.894 9.894 0 00-.116.062l-.087-.162.124-.066a4.91 4.91 0 00.536-.311.895.895 0 00.227-.211c.04-.062.04-.1.018-.135-.02-.033-.066-.058-.162-.053a1.182 1.182 0 00-.34.083c-.25.093-.501.237-.592.29l-.092-.16c.091-.052.354-.203.62-.303.133-.05.273-.089.396-.094zm1.047 1.382c-.094-.101-.228-.103-.346-.075a1.35 1.35 0 00-.37.168 4.393 4.393 0 00-.552.416l.121.138c.079-.069.298-.258.526-.398a1.18 1.18 0 01.318-.146c.093-.022.142-.006.17.022.027.03.035.068.008.136a.894.894 0 01-.183.25c-.14.145-.32.29-.467.407l-.11.088.117.142.101-.081c.148-.119.342-.274.491-.43.093-.097.177-.202.22-.306.045-.108.05-.231-.044-.331zm.556 1.055c.11-.053.241-.079.355 0 .112.079.133.2.112.315-.02.11-.08.231-.15.346a5.309 5.309 0 01-.39.523l-.083.101-.144-.114.089-.11c.119-.145.265-.324.371-.496a.895.895 0 00.126-.283c.014-.072-.003-.108-.036-.13-.032-.023-.084-.028-.17.014-.086.04-.183.116-.28.209a4.215 4.215 0 00-.432.5l-.147-.11c.063-.085.246-.327.452-.523a1.36 1.36 0 01.327-.242zm1.499.879c-.123-.063-.25-.019-.351.049a1.356 1.356 0 00-.29.285 4.39 4.39 0 00-.375.58l.16.09c.051-.092.192-.346.359-.556.083-.105.169-.194.247-.246.08-.054.132-.056.167-.038.036.018.057.05.055.124a.896.896 0 01-.086.298 4.87 4.87 0 01-.298.545l-.073.12.159.093.067-.112a5.01 5.01 0 00.313-.572c.054-.124.097-.252.101-.364.005-.117-.033-.234-.155-.296zm.871.697c.082-.09.194-.164.33-.133.133.03.198.134.222.249.023.11.013.245-.01.378-.035.213-.109.45-.164.631l-.038.126-.177-.052.041-.135c.056-.18.124-.401.157-.6a.894.894 0 00.01-.31c-.014-.072-.043-.099-.082-.108-.038-.009-.088.006-.153.078-.064.07-.125.177-.18.3-.11.244-.186.524-.212.625l-.178-.046c.027-.102.105-.396.222-.655.059-.13.13-.256.212-.348zm1.656.207c-.138-.002-.233.093-.295.197a1.358 1.358 0 00-.137.383c-.062.278-.08.58-.085.686l.183.01a4.21 4.21 0 01.081-.656c.03-.131.068-.248.116-.33.05-.082.094-.107.134-.106.04 0 .073.02.102.088a.875.875 0 01.052.305 4.95 4.95 0 01-.032.62l-.013.14.183.015.012-.13c.018-.188.042-.436.034-.652a1.065 1.065 0 00-.067-.371c-.047-.107-.131-.196-.268-.199zm1.196.312c.051-.11.136-.214.274-.226.136-.011.23.069.286.17.055.099.086.23.105.363.03.214.031.463.032.651v.001c0 .048 0 .092.002.13l-.184.004-.001-.14a4.964 4.964 0 00-.031-.62.896.896 0 00-.083-.299c-.036-.064-.07-.08-.111-.077-.04.004-.082.033-.122.12-.04.086-.066.206-.082.34-.032.265-.02.555-.014.66l-.184.009a4.388 4.388 0 01.016-.691c.016-.14.046-.283.097-.395zm1.7-.368c-.135.032-.204.147-.238.264a1.362 1.362 0 00-.037.405c.008.285.067.583.087.686l.18-.036a4.23 4.23 0 01-.084-.655 1.186 1.186 0 01.03-.349c.028-.092.065-.127.104-.136.039-.01.076.002.121.06a.86.86 0 01.126.282c.058.194.094.423.123.61l.022.138.181-.031-.02-.13c-.03-.186-.069-.432-.13-.639a1.065 1.065 0 00-.157-.343c-.072-.093-.175-.158-.309-.126zm1.142-.167c.008-.122.05-.25.174-.31.124-.059.24-.018.33.057.086.072.162.183.227.302.104.188.195.42.263.596l.049.122-.17.069-.052-.13c-.069-.176-.153-.392-.25-.569a.895.895 0 00-.185-.249c-.056-.046-.095-.05-.132-.032-.035.017-.064.06-.07.156-.007.094.011.216.044.346.066.26.181.526.224.622l-.168.074a4.4 4.4 0 01-.233-.65 1.358 1.358 0 01-.05-.404zm1.391-.963c-.111.082-.129.215-.114.336.014.122.065.259.124.387.12.258.29.51.35.597l.15-.104a4.227 4.227 0 01-.333-.57 1.184 1.184 0 01-.109-.332c-.011-.096.01-.143.041-.166.033-.024.071-.029.135.007a.893.893 0 01.227.21c.13.156.252.353.352.512.026.043.051.083.075.119l.154-.1-.07-.11c-.1-.16-.232-.371-.37-.538a1.064 1.064 0 00-.279-.254c-.102-.056-.223-.076-.333.006zm.996-.52c-.054-.11-.08-.24-.003-.355.077-.113.198-.135.313-.115.11.02.232.078.347.148.185.111.379.267.526.385l.102.081-.113.145-.11-.087a4.94 4.94 0 00-.5-.367.893.893 0 00-.283-.124c-.073-.012-.108.004-.13.038-.023.032-.027.084.016.17.041.085.118.181.212.278.186.192.418.365.503.427l-.109.148a4.39 4.39 0 01-.526-.447 1.356 1.356 0 01-.245-.325zm.864-1.474c-.06.124-.014.25.055.35.07.102.178.2.29.285.227.173.495.316.588.365l.085-.163a4.224 4.224 0 01-.56-.348 1.185 1.185 0 01-.252-.243c-.055-.08-.058-.13-.041-.166.018-.037.05-.058.123-.057a.92.92 0 01.3.08c.186.078.386.194.548.289l.122.07.09-.16a10.159 10.159 0 01-.113-.066c-.163-.094-.378-.22-.577-.302a1.062 1.062 0 00-.366-.095c-.117-.002-.233.038-.292.161zm.783-.869c-.085-.087-.152-.203-.114-.336.038-.132.146-.19.262-.208.111-.016.245.002.377.032.21.048.443.136.62.202l.123.045-.063.173-.131-.049a4.965 4.965 0 00-.59-.192.895.895 0 00-.31-.029c-.072.011-.1.038-.111.077-.011.038.001.088.069.157.066.068.169.135.288.198.237.124.512.216.612.248l-.057.175a4.4 4.4 0 01-.64-.26 1.357 1.357 0 01-.335-.233zm.264-1.656c-.003.139.092.234.196.297.106.063.245.107.383.138.277.063.58.082.685.088l.01-.184a4.195 4.195 0 01-.655-.083 1.181 1.181 0 01-.329-.117c-.082-.05-.107-.095-.106-.135.001-.04.021-.073.089-.102a.893.893 0 01.306-.052c.201-.006.432.016.62.035.05.005.096.01.139.013l.016-.183-.13-.013a5.187 5.187 0 00-.651-.035 1.065 1.065 0 00-.373.066c-.107.046-.196.13-.2.267zm.446-1.15c-.11-.052-.213-.139-.223-.276-.01-.137.071-.23.173-.286.1-.054.23-.083.364-.1.214-.028.463-.027.651-.026h.131l.002.183h-.14a4.92 4.92 0 00-.62.025.893.893 0 00-.3.08c-.064.035-.08.07-.078.11.003.04.032.082.119.124.085.04.205.068.338.085.265.035.555.025.66.021l.007.184a4.388 4.388 0 01-.69-.023 1.355 1.355 0 01-.394-.101zm-.395-1.694c.026.135.14.208.254.246.117.04.262.052.403.053.284.002.584-.045.688-.062l-.03-.181c-.103.016-.389.061-.656.06a1.18 1.18 0 01-.347-.044c-.091-.03-.125-.07-.132-.108-.008-.04.005-.077.064-.12a.893.893 0 01.287-.115 4.93 4.93 0 01.612-.1l.14-.017-.024-.183c-.039.006-.082.01-.13.016-.187.023-.434.052-.643.106-.13.033-.258.078-.349.144-.095.069-.164.17-.137.305zm-.077-1.135c-.122-.008-.25-.05-.31-.174-.06-.123-.018-.24.056-.33.072-.086.183-.162.301-.228.188-.105.42-.196.595-.265l.122-.049.069.17-.13.053a5 5 0 00-.567.252.893.893 0 00-.248.185c-.047.056-.05.095-.032.132.017.035.06.064.155.07a1.18 1.18 0 00.346-.045c.26-.067.525-.183.62-.225l.075.168a4.388 4.388 0 01-.65.235c-.136.035-.28.059-.402.051zm-.906-1.5c.074.117.205.144.326.138.123-.006.263-.046.395-.096.266-.1.529-.252.62-.305l-.093-.159c-.09.053-.341.198-.592.293-.125.047-.244.08-.338.084-.097.004-.142-.02-.163-.053-.022-.035-.023-.074.017-.135a.894.894 0 01.227-.211c.164-.118.368-.226.535-.314l.123-.066-.088-.162c-.033.019-.072.04-.115.062a5.183 5.183 0 00-.562.33 1.05 1.05 0 00-.273.26c-.064.098-.092.218-.02.334zm-.468-.997c-.115.036-.25.043-.35-.051-.1-.094-.104-.216-.067-.327.036-.107.112-.218.199-.322a5.19 5.19 0 01.46-.46l.096-.09.125.134c-.03.03-.065.061-.102.095a4.947 4.947 0 00-.438.44.892.892 0 00-.166.261c-.023.07-.012.107.018.135.029.026.079.038.17.01.09-.029.197-.09.307-.168.218-.155.424-.359.498-.433l.13.13c-.075.075-.29.288-.522.453a1.38 1.38 0 01-.358.193zm-1.4-1.014c.113.08.245.053.354 0a1.38 1.38 0 00.327-.242c.205-.197.388-.439.45-.523l-.146-.11a4.21 4.21 0 01-.431.5 1.185 1.185 0 01-.28.21c-.086.041-.138.037-.17.014-.033-.023-.05-.058-.037-.13a.894.894 0 01.126-.283c.106-.172.252-.352.37-.498l.09-.11-.145-.114-.082.102c-.119.147-.276.34-.389.523-.07.115-.13.236-.15.347-.02.115 0 .236.112.314zm-.866-.806c-.098.073-.222.124-.348.069-.126-.055-.17-.17-.172-.286a1.068 1.068 0 01.08-.37 5.2 5.2 0 01.278-.59c.023-.042.044-.081.061-.116l.164.085-.065.124a5.086 5.086 0 00-.267.56.893.893 0 00-.068.303c.002.074.025.105.062.121.036.016.087.01.164-.047.076-.057.156-.15.233-.261.154-.22.28-.48.325-.575l.166.079a4.401 4.401 0 01-.34.602 1.36 1.36 0 01-.273.302zm-1.557-.42c.137.015.24-.07.313-.168.073-.1.13-.234.173-.368.089-.27.136-.57.151-.674l-.181-.027a4.21 4.21 0 01-.144.644 1.18 1.18 0 01-.148.316c-.056.078-.104.098-.143.094-.04-.005-.071-.028-.094-.098a.893.893 0 01-.022-.308 4.87 4.87 0 01.092-.614l.026-.138-.18-.032-.025.128c-.036.185-.084.43-.097.645-.008.134-.003.269.031.376.036.111.112.208.248.223zm-1.187-.438c-.055.11-.143.21-.281.217-.137.007-.227-.076-.28-.18a1.065 1.065 0 01-.093-.366 5.21 5.21 0 01-.01-.651c0-.049.002-.093.003-.131l.183.002-.003.14c-.005.188-.012.42.01.62a.891.891 0 00.072.302c.034.065.069.083.109.08.04-.001.083-.029.126-.115.043-.084.073-.204.093-.337.041-.264.039-.554.037-.659l.184-.003c.001.105.004.409-.039.69-.021.14-.055.281-.111.392zm-1.747.25c.136-.027.208-.14.246-.257.038-.117.05-.262.05-.403a4.313 4.313 0 00-.064-.688l-.181.031c.017.103.063.39.062.657 0 .135-.012.257-.042.347-.03.092-.069.126-.107.133-.04.009-.077-.004-.12-.063a.89.89 0 01-.117-.287 4.898 4.898 0 01-.102-.611l-.018-.14-.182.026.016.13c.023.187.054.434.108.642.034.13.08.257.147.348.068.095.17.163.304.135z" fill="#000"/><path d="M24.59 21.292h1v3h-1v-3zm6.222 0h1v3h-1v-3zm-.809 2.714c.33.38.53.2.589.062v-2.312l-1.948-.02c-.818-.859-1.73-.936-2.149-.867-.1.014-.297.078-.289.227.008.148.15.171.209.202.504-.025.888.259 1.03.366.715.622 2.228 1.963 2.558 2.342z" fill="#F6B051"/><path d="M26.794 21.556H25.8v2.575c.451.331.724.072 1.092-.168.295-.192.456-.08.5 0l1.36 1.354c.094.076.26.138.34.048.068-.075.07-.181.023-.244-.174-.137-.505-.444-.55-.533-.048-.092.048-.231.186-.14l.565.512c.054.053.17.07.236 0 .062-.066.066-.159 0-.24a5.232 5.232 0 01-.586-.59c-.12-.156.049-.241.156-.16l.458.486c.15.159.273.16.338.067.052-.075-.042-.232-.124-.32-1.386-1.489-2.577-2.385-3-2.647zm2.473-.604a1.416 1.416 0 00-.758.24c.06.145.31.436.819.43.637-.006.629-.245.621-.351-.007-.106-.235-.326-.682-.319z" fill="#F6B051"/><rect x="26.374" y="24.675" width="1.044" height=".472" rx=".236" transform="rotate(-43.054 26.374 24.675)" fill="#F5AA4C"/><rect x="26.781" y="25.081" width="1.044" height=".472" rx=".236" transform="rotate(-43.054 26.78 25.08)" fill="#F5AA4C"/><rect x="27.238" y="25.463" width="1.044" height=".472" rx=".236" transform="rotate(-43.054 27.238 25.463)" fill="#F5AA4C"/><rect x="27.901" y="25.616" width=".679" height=".472" rx=".236" transform="rotate(-43.054 27.901 25.616)" fill="#F5AA4C"/><path d="M23.233 19.068c-.31.147-.95.6-1.045 1.237-.027.178.225.715.783.178.245-.235.332-1.058.262-1.415zm10.608 1.493c-.095-.637-.736-1.09-1.045-1.236-.07.357.017 1.18.261 1.415.559.536.81 0 .784-.179zm-8.449 7.183a.393.393 0 00-.425 0 .41.41 0 000 .375c.034.054 1.67.91 2.54.961 0 0-.83.557-.87.598.064.283.36.293.475.263l.89-.668.749.668c.3.073.394-.145.404-.263l-.647-.598c1.457-.172 2.327-.597 2.478-.688a.253.253 0 00.071-.375c-.064-.08-.236-.033-.313 0-.604.18-1.896.563-2.236.669-.34.105-.648.044-.759 0-.711-.267-2.179-.828-2.357-.942zm6.912-7.048c.25.017.81.152 1.047.56.067.115.04.55-.486.334-.23-.094-.513-.631-.56-.894zm1.169 1.634c-.259-.446-.87-.594-1.143-.612.053.287.36.873.612.976.574.235.603-.239.53-.364zm-1.161.51c.29.04.93.24 1.175.735.068.139.003.642-.593.35-.26-.127-.547-.776-.582-1.085zm.975 1.848c-.182-.52-.793-.799-1.076-.873-.003.311.202.99.446 1.148.555.362.681-.13.63-.275zm-1.237.053c.254.145.773.573.813 1.123.011.153-.238.596-.68.102-.194-.217-.216-.925-.133-1.225zm.1 2.142c.092-.544-.311-1.082-.524-1.283-.151.272-.298.965-.16 1.221.312.585.66.215.684.062zm-1.147-.431c.18.169.518.621.441 1.08-.021.127-.313.44-.576-.053-.116-.215.008-.799.135-1.027zm.777 1.889c.464.003.857-.405.996-.609-.246-.09-.84-.119-1.035.03-.444.339-.09.578.04.579zm1.757-1.5c-.138.205-.531.612-.995.61-.13-.001-.483-.24-.04-.58.195-.148.79-.12 1.035-.03zm-.241-.355c.445-.128.707-.63.783-.864-.261-.017-.84.122-.985.32-.33.45.077.58.202.544zm1.321-2.15c-.036.244-.212.782-.63.982-.118.056-.54-.006-.289-.504.11-.219.659-.452.919-.478zm-.493-.235c.419-.2.595-.738.631-.982-.26.026-.809.26-.919.478-.251.498.171.56.288.504zm.657-2.17c-.024.245-.174.79-.582 1.01-.114.062-.539.022-.312-.488.099-.224.635-.484.894-.523zm-.603-.06c.294-.359.224-.92.152-1.156-.224.135-.62.58-.627.825-.015.558.393.432.475.331zm-11.5-.87c.236-.41.796-.545 1.046-.562-.048.263-.33.8-.56.895-.526.215-.553-.22-.487-.334zm1.02.46c-.273.019-.883.166-1.142.612-.073.125-.043.599.53.364.252-.102.56-.69.613-.975zm-1.156 1.857c.244-.494.885-.696 1.175-.735-.035.31-.322.958-.583 1.085-.595.292-.66-.211-.592-.35zm1.276.24c-.283.074-.895.352-1.076.873-.051.146.075.637.63.275.244-.158.449-.837.446-1.148zm-.652 2.049c.04-.55.559-.978.813-1.123.083.3.061 1.009-.133 1.225-.442.494-.692.052-.68-.102zm1.236-.263c-.212.2-.615.739-.524 1.283.026.152.372.522.686-.062.137-.256-.01-.95-.162-1.221zm.182 1.93c-.077-.457.262-.91.44-1.08.128.23.252.813.136 1.028-.263.492-.555.18-.576.052zm-1.33.201c.138.204.53.612.994.61.13-.002.483-.24.04-.58-.195-.149-.79-.12-1.035-.03zm.232-.281c-.463.003-.856-.405-.995-.61.246-.09.84-.118 1.035.03.443.34.09.579-.04.58zm-1.536-1.83c.075.236.337.738.783.866.124.035.53-.095.2-.545-.144-.197-.723-.337-.983-.32zm.091-.303c-.418-.2-.594-.738-.63-.982.26.026.808.26.918.478.252.499-.17.56-.288.504zm-.768-2.199c.035.244.212.783.63.982.117.056.54-.005.288-.504-.11-.218-.658-.452-.918-.478zm.555-.177c-.408-.22-.557-.766-.58-1.012.258.04.794.3.893.523.226.51-.199.55-.313.489zm-.13-2.226c-.072.235-.142.796.151 1.156.082.1.49.226.475-.332-.006-.244-.402-.69-.626-.824z" fill="url(#paint1_linear)"/><defs><linearGradient id="paint0_linear" x1="28" y1="0" x2="28" y2="56" gradientUnits="userSpaceOnUse"><stop stop-color="#FFF385"/><stop offset="1" stop-color="#E94E04"/></linearGradient><linearGradient id="paint1_linear" x1="28.014" y1="19.068" x2="28.014" y2="29.955" gradientUnits="userSpaceOnUse"><stop stop-color="#F7B958"/><stop offset="1" stop-color="#F39B40"/></linearGradient></defs></svg>