<svg width="56" height="56" viewBox="0 0 56 56" xmlns="http://www.w3.org/2000/svg"><path fill="#F0F3FA" d="M0 0h56v56H0z"/><path d="M20.5 38H11l9.13-17.77.24-.44 5.54 6.66-5.41 6.25V38Z" fill="url(#a)"/><path d="M11 19.83V38l.42-.38H20V32.4l5.28-5.95-5.15-6.19h-8.7l-.43-.42Z" fill="url(#b)"/><path d="m22.19 34.63-1.41-1.62h.67l.74.83L36.8 16.46l1.19-.46-15.8 18.63ZM24.13 36.7l-1.4-1.7h.66l.74.92 15.9-18.86 1.2-.46-17.1 20.1Z" fill="#151F29"/><path d="M35.9 16.48 21.44 33l.76.86 14.62-17.4h-.9Z" fill="url(#c)"/><path d="M39.21 17.02 23.42 35.01l.7.91 16-18.9h-.9Z" fill="url(#d)"/><path d="m25.86 39.04-1.3-1.6h.71l.6.76L42.5 18.56v-1.47l.49-1.03v2.7L25.86 39.03Z" fill="#151F29"/><path d="M42.56 16.94 25.26 37.5l.61.82 16.7-19.75v-1.64Z" fill="url(#e)"/><path d="m27.58 41-1.3-1.6h.71l.6.77L42.5 22.59v-1.47L43 20.1v2.7L27.58 41Z" fill="#151F29"/><path d="M42.53 21 26.99 39.48l.6.83 14.94-17.64V21Z" fill="url(#f)"/><path d="M33.69 38v-3.15l.58.46 8.4-10.1v12.8h-8.98Z" fill="url(#g)"/><path d="m33.99 37.6-.35.4H43V24.18l-.56 1.2v12.21h-8.45Z"/><defs><linearGradient id="a" x1="18.45" y1="19.79" x2="18.45" y2="38.06" gradientUnits="userSpaceOnUse"><stop offset=".37" stop-color="#345E76"/><stop offset=".38" stop-color="#151F28"/></linearGradient><linearGradient id="b" x1="18.14" y1="19.83" x2="18.14" y2="38.04" gradientUnits="userSpaceOnUse"><stop offset=".09" stop-color="#68ABD5"/><stop offset=".76" stop-color="#2772AB"/></linearGradient><linearGradient id="c" x1="29.14" y1="16.48" x2="29.14" y2="33.83" gradientUnits="userSpaceOnUse"><stop stop-color="#5DA7D8"/><stop offset="1" stop-color="#2772AB"/></linearGradient><linearGradient id="d" x1="31.09" y1="18.55" x2="31.09" y2="35.9" gradientUnits="userSpaceOnUse"><stop stop-color="#5DA7D8"/><stop offset="1" stop-color="#2772AB"/></linearGradient><linearGradient id="e" x1="33.72" y1="17.23" x2="33.72" y2="38.33" gradientUnits="userSpaceOnUse"><stop stop-color="#66ADD7"/><stop offset="1" stop-color="#2A75AE"/></linearGradient><linearGradient id="f" x1="35.44" y1="19.2" x2="35.44" y2="40.3" gradientUnits="userSpaceOnUse"><stop stop-color="#66ADD7"/><stop offset="1" stop-color="#2A75AE"/></linearGradient><linearGradient id="g" x1="38.18" y1="25.21" x2="38.18" y2="38.13" gradientUnits="userSpaceOnUse"><stop stop-color="#4A8DBA"/><stop offset="1" stop-color="#2272AD"/></linearGradient></defs></svg>