<svg width="56" height="56" viewBox="0 0 56 56" xmlns="http://www.w3.org/2000/svg"><path fill="#F0F3FA" d="M0 0h56v56H0z"/><path fill-rule="evenodd" d="M40.54 19.8c0 .11 0 .21-.02.32A42 42 0 0 0 40.1 23l-.04.65a38.67 38.67 0 0 0 .57 10.65l.38 1.52c.06.26.14.53.24.8l.27.82c.14.39.3.75.47 1.1.02.03 0 .05-.03.06-.4.1-.83.24-1.21.42l-.3.09c-.2.02-.4.1-.59.19l-.37.14c-.2.06-.37.14-.55.22-.14.07-.28.14-.43.19l-.6.27-.6.3c-.84.4-1.7.9-2.6 1.48-.19.12-.36.24-.53.38l-.1.06A24.93 24.93 0 0 0 28.04 48a.06.06 0 0 1-.05 0l-.03-.02-.82-1.03c-.29-.35-.58-.68-.89-.98l-1.23-1.22a.13.13 0 0 0-.08-.04l-.04-.01c-.29-.3-.57-.55-.86-.79-.47-.38-.95-.76-1.45-1.14a.08.08 0 0 0-.07-.01.06.06 0 0 1-.06-.02 1.07 1.07 0 0 0-.31-.28 2.3 2.3 0 0 1-.43-.26l-.4-.28a28.84 28.84 0 0 0-2.54-1.44 14.59 14.59 0 0 0-2.04-.91l-.89-.38a1.85 1.85 0 0 0-.35-.1c-.1-.02-.21-.05-.31-.1a6.46 6.46 0 0 0-1.16-.38c-.03-.01-.04-.03-.02-.06.2-.4.36-.76.47-1.09l.34-1a14.13 14.13 0 0 0 .39-1.47c.1-.43.22-.87.29-1.32l.28-1.74c.05-.31.08-.63.1-.95 0-.06 0-.1.02-.14a42.22 42.22 0 0 0 0-7.74.57.57 0 0 1-.03-.18c0-.3-.01-.59-.06-.86l-.35-2.22-.05-.13c-.02-.06-.04-.1-.04-.17 0-.17-.03-.33-.08-.5l-.12-.47c-.06-.27-.13-.54-.21-.8l-.06-.25a1.92 1.92 0 0 0-.05-.25l-.4-1.23c-.1-.34-.24-.68-.4-1.04a.13.13 0 0 1-.02-.1 40.67 40.67 0 0 0 1.1-.8l.42-.23c.1-.04.2-.1.29-.17.14-.1.29-.19.45-.23.13-.04.24-.1.35-.16l.19-.1c.82-.37 1.62-.68 2.4-.94.47-.15 1.17-.35 2.1-.61a.74.74 0 0 1 .2-.02.8.8 0 0 0 .17-.02c.74-.18 1.47-.3 2.2-.39a35.84 35.84 0 0 1 8.94.1c.44.07.93.16 1.45.27.06.02.13.02.2.02a.9.9 0 0 1 .21.03l2.1.63a19.1 19.1 0 0 1 2.98 1.21h.02l.54.32c.05.04.15.08.28.14.1.04.2.1.29.16v.05l.02.02a11.5 11.5 0 0 1 1.05.73v.05a31.59 31.59 0 0 0-.47 1.21v.04l-.41 1.25c-.03.09-.06.2-.08.33a18.65 18.65 0 0 0-.48 2.02c0-.01 0 0 0 0Zm-9.4 24.12c-.15.15-.31.3-.49.44-.17.15-.34.3-.48.45l-.37.37-.38.38a42.94 42.94 0 0 0-1.5 1.66 20.13 20.13 0 0 0-2.32-2.5 102.13 102.13 0 0 0-1.47-1.32 26.62 26.62 0 0 0-5.07-3.29h-.02c-1.2-.6-2.48-1.25-3.8-1.6a8.03 8.03 0 0 1-.61-.19c-.04 0-.05-.03-.03-.06l.22-.52c.31-.69.54-1.5.7-2.23 1.36-6.14 1.61-14.4-.97-20.41-.01-.03 0-.05.02-.07a20.66 20.66 0 0 1 8.66-3.24l.02.03v.02c0 .02 0 .03-.02.04a22.84 22.84 0 0 0-7.85 3.38.08.08 0 0 0-.03.06c1.04 2.46 1.36 5.02 1.6 7.5a35.3 35.3 0 0 1-.98 13.3l-.03.05a7.92 7.92 0 0 1-.15.65l.02.02h.02c.2.05.41.11.62.2l.47.18.47.16c.58.23 1.15.47 1.73.72.05.03.07.07.04.12l-.14.27a.05.05 0 0 0 .02.07 21.71 21.71 0 0 1 1.6 1l.13.07c1.13.8 2.12 1.62 2.98 2.45a31.73 31.73 0 0 1 3.08 3.35 60.34 60.34 0 0 1 1.11 1.32l.03-.01.02-.01c.77-.98 1.57-1.94 2.4-2.87l.61-.65a27.46 27.46 0 0 1 3.56-3.18c.63-.47 1.37-.95 2.22-1.44.05-.03.07-.07.04-.12l-.1-.22a.13.13 0 0 1 0-.1.13.13 0 0 1 .07-.07 72.9 72.9 0 0 1 1.91-.8l.14-.03a10.3 10.3 0 0 1 1.27-.45.07.07 0 0 0 0-.06l-.44-1.29a.6.6 0 0 1-.03-.17c0-.06 0-.11-.02-.17-.8-2.64-.96-5.52-.93-8.27.03-2.06.21-4.1.5-6.15.23-1.72.63-3.7 1.35-5.31.03-.06.02-.11-.04-.15a22.35 22.35 0 0 0-8.01-3.42v-.03a20.33 20.33 0 0 1 8.81 3.24c.03.02.04.04.03.07a34.68 34.68 0 0 0-.78 21.1c.12.41.26.83.43 1.26v.1c0 .03 0 .05.02.06.08.22.18.43.27.64.02.03.01.05-.02.07a8.1 8.1 0 0 1-.7.24c-.28.08-.52.16-.73.25-3.25 1.33-6.1 2.83-8.67 5.1Zm-1.18-21.06.4-.55c.34-.46.74-.86 1.2-1.2a2.7 2.7 0 0 1 1.03-.46c1.01-.15 1.73.19 2.15 1.01 1.26 2.43-.03 5.28-1.4 7.36a9.12 9.12 0 0 1-2.3 2.43c-.45.33-.94.63-1.45.9-.04.01-.05.04-.03.08l2.19 3.7a.05.05 0 0 0 .01.02h.06c2.13-1.81 3.13-3.9 3.94-6.36l.01-.15c0-.04 0-.09.02-.13.5-2.3.83-4.92.22-7.25-.45-1.73-1.2-3.44-2.88-4.42-.8-.46-1.6-.58-2.43-.36-.86.23-1.57.69-2.12 1.37-.13.15-.21.3-.28.49-.02.05-.05.05-.08.01a1.34 1.34 0 0 1-.1-.11.9.9 0 0 0-.14-.16l-1.09-.9a6.85 6.85 0 0 0-1.28-.6 2.07 2.07 0 0 0-1-.13c-.98.12-1.87.57-2.66 1.33a7.73 7.73 0 0 0-2.1 4.37c-.18 1.13-.3 2.32-.24 3.48.02.5.07.96.16 1.39.53 2.85 1.9 5.4 4.02 7.54.29.3.62.57.99.8.16.11.33.18.5.2.4.06.48-.38.43-.65a.95.95 0 0 0-.18-.44 15.1 15.1 0 0 1-2.95-7.8 14 14 0 0 1 .06-2.36c.04-.34.12-.76.26-1.24.3-1.1.77-2.24 1.76-2.93.16-.1.34-.18.55-.2.5-.08.98-.04 1.4.3.18.15.02.67-.17 1.28-.13.42-.28.87-.32 1.27-.22 1.8-.25 3.67-.11 5.62 0 .03.01.06.04.09.2.22.43.44.67.66l1.7 1.57a.1.1 0 0 0 .07.03c.03 0 .04 0 .03-.03a.34.34 0 0 1-.04-.15 42.46 42.46 0 0 0 .04-1.25.4.4 0 0 0 .02-.1v-.1c.1-2.38.22-5.12 1.42-7.27Z" fill="#E37739"/></svg>