<svg width="56" height="56" xmlns="http://www.w3.org/2000/svg"><path fill="#F0F3FA" d="M0 0h56v56H0z"/><path d="M15.003 20.09c1.898 1.72 3.328 3.574 5.01 5.57.324.423.667.808.987 1.233-.002 4.7 0 9.401 0 14.102-2.13.002-3.87.007-6 0 .004-6.968-.002-13.936.003-20.904zM34 26.662a59.574 59.574 0 016.997-7.394c.006 7.242 0 14.486.002 21.729-2.331.005-4.663.003-6.996 0-.002-4.778.005-9.556-.003-14.335z" fill="#0060AA"/><path d="M47.565 14.103c.811-.045 1.622-.137 2.435-.09-.78.451-1.53.955-2.286 1.446a75.07 75.07 0 00-6.9 5.158 57.97 57.97 0 00-7.093 6.935c-2.683 3.041-5.094 6.34-7.068 9.898-.192.393-.422.766-.605 1.163-.268.465-.453.973-.696 1.451-.122.297-.255.591-.347.9-.004-.636.105-1.264.143-1.897.114-.778.162-1.567.339-2.335.113-.753.257-1.5.415-2.245.148-.489.228-.997.37-1.487.163-.495.282-1.002.439-1.497.4-1.218.85-2.42 1.393-3.581.198-.37.343-.77.56-1.13 1.803-3.503 4.46-6.57 7.732-8.732 1.145-.78 2.378-1.415 3.634-1.988.733-.293 1.46-.604 2.22-.823.557-.223 1.15-.33 1.72-.514.712-.169 1.43-.312 2.154-.421.471-.129.962-.127 1.441-.211zM10 17.385c1.117.013 2.245.047 3.337.304.93.152 1.828.451 2.71.782.441.212.908.374 1.328.63a13.41 13.41 0 012.496 1.725c2.23 1.918 3.822 4.498 4.894 7.233.23.576.438 1.162.605 1.76.185.507.301 1.036.426 1.56.14.661.335 1.317.357 1.998a2.694 2.694 0 00-.292-.469c-.812-1.269-1.758-2.441-2.726-3.59a46.49 46.49 0 00-1.888-2.056c-.355-.414-.751-.79-1.11-1.201a60.291 60.291 0 00-5.987-5.427A160.724 160.724 0 0010 17.385z" fill="#AFCE4C"/></svg>