<svg xmlns="http://www.w3.org/2000/svg" width="56" height="56"><path fill="#E2001A" d="M0 0h56v56H0z"/><path d="M17.43 20.57L10 28l7.34 7.34c.68-.08 2.4-.44 2.61-2.29.35-3.14.71-8.86.78-10.37.06-1.45-1.98-2.07-3.3-2.11zM18 20h4.28L28 31.83c.08.18.27.41.52 0 .54-.84 4.19-7.59 6.02-11.83H38L28 10 18 20zm20.58.57c-.8.09-2.6.68-2.58 2.11V33.6c0 .56.5 1.74 2.65 1.75L46 28l-7.42-7.43zM38 36h-5.6c-.13-.01-.38-.1-.38-.29 0-.2.25-.32.38-.36.48-.11 1.57-.62 1.59-1.75.02-1.13 0-6.84 0-9.86l-1.04 1.9c-2 3.64-4.55 8.29-5.12 10.07l-.01.02c-.08.15-.14.27-.34.27-.22 0-.34-.14-.39-.29a95.85 95.85 0 00-5.47-12.02c-.26 2.33-.4 6.68-.42 9.66a1.9 1.9 0 001.84 2c.1.02.33.13.34.36 0 .23-.33.3-.5.3H18L28 46l10-10z" fill="#fff"/></svg>