<svg width="56" height="56" xmlns="http://www.w3.org/2000/svg"><path fill="#F0F3FA" d="M0 0h56v56H0z"/><path d="M49.56 25.042c-1.216.997-4.862 2.42-7.078.997l-5.148-3.56-.858.5 13.084 9.038c-3.289 1.281-7.078 3.844-9.795 6.121l-9.724-6.904c1.43-1.067 4.79-2.348 7.007-.925l5.22 3.63.714-.498-13.084-9.11c2.789-.997 7.865-4.129 9.795-6.193l9.867 6.904z" fill="#E20A17"/><path d="M9 33.486v2.594c0 1.044.81 1.92 1.845 1.92h2.428L9 33.486zm9-4.009c-.032-1.044-1.133-1.92-1.133-1.92L9 19v2.358c0 .708.097 1.516.356 2.19.353.943 4.274 4.649 4.274 4.649.29.303.064.438.064.438-.162.168-.453-.236-.453-.236L9 24.019v2.898c.032.336.13.707.227 1.044.194.809 1.133 1.482 1.683 2.055.402.418 2.622 2.762 2.622 2.762.292.304.065.438.065.438-.162.169-.453-.236-.453-.236L9 28.668v3.605c0 .168.032.505.227.809L13.81 38H18v-8.523zM28 33.52L23.73 38h2.426C27.159 38 28 37.158 28 36.08v-2.56zM19 38h4.097l4.644-4.952a1.56 1.56 0 00.259-.809v-3.57l-4.174 4.311s-.29.405-.453.236c0 0-.226-.134.065-.438 0 0 2.207-2.293 2.62-2.762.55-.573 1.489-1.246 1.715-2.055a5.94 5.94 0 00.187-1.048c.032-.27.04-.535.04-.838V24.02l-4.238 4.379s-.292.404-.453.236c0 0-.227-.135.064-.438l3.01-3.133c.42-.438 1.035-.91 1.261-1.516.259-.674.356-1.482.356-2.19V19l-7.895 8.557s-1.04.91-1.105 1.92V38z" fill="#143C84"/></svg>