<svg xmlns="http://www.w3.org/2000/svg" width="56" height="56"><path fill="#F0F3FA" d="M0 0h56v56H0z"/><path d="M48 28.01c0 6.63-8.95 12-20 12s-20-5.37-20-12S16.95 16 28 16s20 5.38 20 12.01z" fill="#F3E7B4"/><path fill-rule="evenodd" d="M41.88 36.07c3.54-2.12 5.62-4.99 5.62-8.06 0-3.07-2.08-5.94-5.62-8.06-3.52-2.12-8.43-3.45-13.88-3.45-5.45 0-10.36 1.33-13.88 3.45C10.58 22.07 8.5 24.94 8.5 28c0 3.07 2.08 5.94 5.62 8.06 3.52 2.12 8.43 3.45 13.88 3.45 5.45 0 10.36-1.33 13.88-3.45zM28 40c11.05 0 20-5.36 20-11.99S39.05 16 28 16 8 21.38 8 28.01 16.95 40 28 40z" fill="#1B2966"/><path d="M42 28c0 4.43-6.5 8.01-14.5 8.01s-14.5-3.58-14.5-8C13 23.58 19.5 20 27.5 20S42 23.58 42 28z" fill="#F0F3FA"/><path fill-rule="evenodd" d="M37.51 33.23c2.56-1.41 3.99-3.28 3.99-5.22 0-1.95-1.43-3.82-3.99-5.23-2.54-1.4-6.07-2.28-10.01-2.28-3.94 0-7.47.88-10.01 2.28-2.56 1.41-3.99 3.28-3.99 5.23 0 1.94 1.43 3.81 3.99 5.22 2.54 1.4 6.07 2.28 10.01 2.28 3.94 0 7.47-.88 10.01-2.28zM27.5 36.01c8 0 14.5-3.58 14.5-8C42 23.58 35.5 20 27.5 20S13 23.58 13 28c0 4.43 6.5 8.01 14.5 8.01z" fill="#1B2966"/><path fill-rule="evenodd" d="M23.22 23.86v3.52h.16v-1.52h.59v1.43c.13.44.6.77.83.88l.7-.88c-.52-.02-.68-.37-.7-.54v-2.8l.7-.56h-.7l-.4-.22-1.02.46v-.55h-.16v.5l-.97-.41-1.3.47a1.33 1.33 0 00-1.22 1.58h-.65c-.42.2-.26 1.06 0 .95.22-.1.37-.25.42-.31h.32c0 .65-.21 1.07-.32 1.2-.4-.03-1.21.18-1.27 1.26-.05 1.09 1.48 1.1 2.25.97-1.23 0-1.94-.26-1.93-.97.02-.56.64-.45.95-.32.13.19.37.2.48.17.9-.12 1.02-.63.97-.88-.81.19-1.1-.07-1.13-.22.58-.19.8-.57.85-.74v-2.39l.36-.14v3.58h.16v-3.64l.26-.1.52.41v1.17h-.77v.64h.77v1.2l-.52.7h.52l.75.41.63-.71c-.5-.09-.62-.3-.63-.4v-3.12c.14-.06.32-.08.5-.08zm.16 0v1.36h.59v-1.28a3.24 3.24 0 00-.59-.08z" fill="#E0167A"/><path d="M27.74 29.06c-.7.18-2.1.28-2.12-.72-.03-1 .78-1.2 1.2-1.18l.92-2.11c-.12-.18-.47-.42-.93 0-.02-.3.23-.9 1.4-.96-.07-.25-.42-.64-1.3-.24.14-.26.6-.79 1.3-.84.69-.06.97.57 1.03.89l1.6 3.26h.82l-.83 1.18a2.33 2.33 0 01-.83-.86l-.6-1.08h-1.86l-.34.76h1.23l-.69 1a3.2 3.2 0 00-1.11-.28c-.4 0-.62.3-.68.46-.07.24.2.72 1.8.72zm.77-4.62l-.6 1.3h1.3l-.7-1.3z" fill="#E0167A"/><path fill-rule="evenodd" d="M36.31 23.51c-.25-.16-.97-.5-1.85-.5-1.1 0-1.84.72-1.81 1.18.03.47.72.87 1.81.97.15 0 .29.02.43.03.91.06 1.67.12 1.7.7.03.55-.72 1.13-1.1 1.34l-1.03-.3.47-.69c.28-.03.82 0 .82.37.25-.25.52-.81-.41-1.11-.77-.04-2.43-.25-2.88-.72-.19.26-.3.85.72 1.12.32.06 1.07.19 1.5.19l-.65.83c-.81.05-2.47.42-2.6 1.58-.16 1.44 2.04-.35 2.41-.7l1.1.4 2.24-1.96c.25-.47.46-1.46-.74-1.67l.74-.8-.35-.11-.76.75c-.95.08-2.82.09-2.71-.48.1-.56.69-.6.97-.55.3.05.97.27 1.17.81l.81-.68zm-2.81 4.16c-.52-.02-1.6.14-1.72.9.08.18.52.24 1.72-.9z" fill="#E0167A"/><path d="M11.74 26.77l-.01.91-1.64-.02.01-.9h.18v.7h.5l.01-.65h.18v.66h.58v-.7h.19zm2.01-3.33l-.66.63-1.14-1.17.66-.63.13.13-.51.49.35.36.48-.46.13.13-.48.46.4.42.51-.5.13.14zm3.21-2.14l-.84.36-.65-1.5.84-.35.07.16-.65.28.2.47.61-.27.08.16-.62.27.24.53.65-.28.07.16zm4.3-1.36l-.9.07-.15-1.61.91-.08.02.18-.7.06.04.5.66-.05.02.17-.67.06.05.58.7-.06.02.18zm13.91-.11l-.9-.13.24-1.6.9.13-.02.18-.7-.1-.08.5.66.1-.02.17-.66-.1-.1.57.7.1-.02.18zm4.13 1.55l-.8-.41.75-1.44.8.41-.07.16-.63-.32-.24.45.6.3-.09.16-.6-.3-.26.51.63.32-.08.16zm-27.25 3.95l-.07.22-.8.22.56.61-.07.21-.66-.76-.9.27.07-.22.73-.2-.5-.57.06-.2.6.7.98-.28zm-.67-1.49a.5.5 0 00-.1.43c.04.15.14.29.3.4.17.13.33.18.48.18.15-.01.28-.09.39-.24l.1-.17.08-.18.14.1a.98.98 0 01-.07.19 1.4 1.4 0 01-.12.19c-.1.13-.2.22-.33.27a.65.65 0 01-.39.03 1.04 1.04 0 01-.4-.19 1 1 0 01-.3-.33.67.67 0 01-.09-.38.8.8 0 01.17-.41 1 1 0 01.34-.3l.1.16-.15.1a.7.7 0 00-.15.15zm7.82-4.97a.52.52 0 00-.35.27.7.7 0 00-.02.5c.05.2.13.34.25.43.13.1.28.11.46.07l.2-.07.16-.1.05.18a1 1 0 01-.17.1l-.22.07a.79.79 0 01-.43 0 .64.64 0 01-.32-.21 1.1 1.1 0 01-.2-.41.98.98 0 01-.02-.44.67.67 0 01.18-.35c.1-.1.23-.17.39-.21a1 1 0 01.46-.03l-.03.2c-.06-.02-.12-.02-.18-.02a.7.7 0 00-.2.02zM45 27.84a.4.4 0 01-.35-.14.67.67 0 01-.15-.41v-.25l.05-.2.2-.01a1.2 1.2 0 00-.07.46c0 .12.04.2.09.27.05.06.11.08.2.08.05 0 .1-.02.13-.04a.3.3 0 00.1-.13l.08-.23c.04-.14.1-.25.17-.33a.42.42 0 01.29-.12c.09 0 .16.02.23.06.06.04.11.1.15.17.04.08.06.16.07.27a1.11 1.11 0 01-.07.45l-.18-.06.05-.18a.82.82 0 00.02-.2.41.41 0 00-.08-.23.21.21 0 00-.18-.07c-.06 0-.1.02-.14.04a.3.3 0 00-.09.12 1.6 1.6 0 00-.08.21c-.03.1-.06.18-.1.25a.41.41 0 01-.14.16.4.4 0 01-.2.06zm-1.97-6.12l-1.45.93-.17-.12.53-1.64.17.13-.34 1.05a2.75 2.75 0 01-.14.34 2.24 2.24 0 01.3-.22l.93-.6.17.13zm-2.19.46l.04-.54-.59-.27-.39.37-.19-.09 1.28-1.2.17.08-.13 1.74-.19-.09zm.1-1.25a2.34 2.34 0 01.04-.25 2.1 2.1 0 01-.17.19l-.38.36.47.22.05-.52zM38.67 20c-.08.27-.21.44-.4.54a.9.9 0 01-.66.02l-.43-.13.45-1.55.49.14c.16.04.29.11.38.2.1.1.17.2.2.34.03.13.02.28-.03.44zm-.21-.05c.06-.2.05-.38-.02-.5a.63.63 0 00-.4-.27l-.26-.08-.36 1.22.22.06c.42.13.7-.02.82-.43zm-7.42-1.59h.56v.8a1.69 1.69 0 01-.58.08.85.85 0 01-.43-.1.67.67 0 01-.26-.3 1.03 1.03 0 01-.09-.44c0-.17.04-.32.1-.44a.7.7 0 01.3-.29c.13-.07.28-.1.46-.1a1.28 1.28 0 01.49.1l-.08.17a1.2 1.2 0 00-.42-.1.6.6 0 00-.46.18.68.68 0 00-.17.48c0 .13.02.24.06.34.04.1.1.18.2.24.09.05.2.08.35.08a1.25 1.25 0 00.32-.04v-.48h-.35v-.18zm-1.09.21c0 .11-.02.22-.07.3a.5.5 0 01-.2.22.73.73 0 01-.37.08c-.2 0-.36-.06-.46-.17a.6.6 0 01-.16-.43v-1.05h.2v1.05c0 .14.04.24.11.31s.18.11.32.11c.15 0 .26-.04.33-.12.06-.07.1-.18.1-.3v-1.05h.2v1.05zM44.3 24.9c-.1.05-.2.08-.3.1-.1 0-.2-.02-.3-.08a.72.72 0 01-.25-.26c-.1-.17-.14-.33-.1-.48a.61.61 0 01.3-.36l.9-.54.1.18-.9.54a.43.43 0 00-.21.25c-.03.1 0 .2.07.33.08.12.16.2.27.2.1.03.2 0 .3-.06l.92-.54.1.17-.9.54zm-15.9-6.57c0 .17-.03.32-.08.44a.65.65 0 01-.26.3.77.77 0 01-.41.1.8.8 0 01-.43-.1.64.64 0 01-.25-.3 1.1 1.1 0 01-.08-.44c0-.17.03-.31.08-.44a.64.64 0 01.25-.29.8.8 0 01.43-.1c.16 0 .3.03.41.1.12.07.2.17.26.3.05.12.08.26.08.43zm-1.29 0c0 .2.04.37.13.49.09.11.22.17.4.17.2 0 .33-.06.42-.17a.81.81 0 00.13-.49c0-.2-.05-.36-.13-.48-.09-.12-.22-.17-.4-.17-.2 0-.33.05-.42.17a.78.78 0 00-.13.48zm16.56 5.13a.93.93 0 01-.38.24.66.66 0 01-.38.03.77.77 0 01-.37-.22.78.78 0 01-.22-.38.63.63 0 01.04-.38.97.97 0 01.26-.36c.12-.12.24-.2.37-.25a.65.65 0 01.38-.03c.13.03.26.11.38.23.11.12.18.24.21.37.03.12.02.25-.03.38s-.14.25-.26.37zm-.9-.92a.8.8 0 00-.26.43c-.02.15.03.28.16.41.13.14.27.2.41.17.15-.02.3-.1.44-.25a.8.8 0 00.26-.42c.02-.14-.03-.28-.16-.41-.13-.13-.27-.19-.41-.17a.8.8 0 00-.44.24zm-17.69-3.26h-.21l-.04-.75-.84.05.04.75-.2.01-.1-1.62h.21l.04.68.84-.05-.04-.68.2-.01.1 1.62zm8.19.17l-.2-.02.05-.76-.83-.06-.06.75-.21-.02.13-1.61.21.01-.06.69.84.07.06-.69.2.02-.13 1.62zm-7.38-1.85c.2 0 .35.03.45.1.1.08.14.2.14.35 0 .09-.01.16-.04.22a.4.4 0 01-.13.14.69.69 0 01-.15.08l.45.72h-.25l-.4-.67h-.32v.67h-.2V17.6h.45zm-.01.17h-.24v.6h.25c.13 0 .23-.03.29-.08.06-.05.1-.13.1-.23s-.04-.18-.1-.22c-.07-.05-.17-.07-.3-.07zm19.86 7.66c.06.2.07.34.02.46-.04.11-.14.2-.29.24a.4.4 0 01-.4-.06.68.68 0 01-.11-.12l-.57.64-.07-.22.53-.58-.1-.3-.65.2-.06-.2L45.6 25l.14.43zm-.18.04l-.07-.22-.58.18.08.23c.04.13.1.21.16.25.07.05.15.05.25.02.1-.03.16-.08.19-.16a.56.56 0 00-.03-.3zm-22.51-5.98l-.2.02-.12-1.44-.51.04-.02-.18 1.23-.1.01.18-.5.04.1 1.44zm-4.43 1.11l-.22.1-1.3-.96h-.01a432.78 432.78 0 00.17.4l.33.86-.18.06-.58-1.52.22-.08 1.3.95a120.4 120.4 0 00-.16-.4l-.33-.85.18-.07.58 1.52zm18.24-.31l-.24-.06-.51-1.52h-.01l-.04.2-.05.23-.23.88-.18-.05.4-1.57.23.06.52 1.51.02-.1a7.01 7.01 0 00.07-.31l.23-.89.19.05-.4 1.57zm-22.64 2.79l-1.12-1.2.16-.13.98 1.06.53-.49.12.14-.67.62zm.98-.88l-.98-1.29.16-.12.88 1.14.57-.42.11.14-.73.55z" fill="#1B2966"/><path d="M28.7 30.2c-8.62.16-16.9 1.36-19.96 1.94-.99.17-1.37.77-1.44 1.04-.02.18-.06.8 0 1.86.06 1.05.98 1.13 1.44 1.04a87.82 87.82 0 0119.96-2.13c10.5.2 17.24 1.4 18.64 1.78 1.12.31 1.4-.33 1.4-.7.02-.48.06-1.58 0-2.04a1.2 1.2 0 00-.59-.85A85.59 85.59 0 0028.7 30.2z" fill="#F0F3FA"/><path d="M48.04 32.37c-2.9-.7-10.8-2.07-19.36-1.92a135.9 135.9 0 00-19.92 1.93c-.87.16-1.18.67-1.23.85-.02.17-.06.77 0 1.8.03.43.22.63.43.73.23.11.51.11.7.08a88.08 88.08 0 0120.02-2.14c10.52.2 17.28 1.4 18.7 1.79.52.14.78.05.9-.05a.5.5 0 00.19-.4v-.02c.02-.5.06-1.56 0-2a.96.96 0 00-.43-.65zm-19.37-2.42A85.82 85.82 0 0148.2 31.9l.04.01.02.02c.21.11.64.46.71 1.03.07.5.03 1.6 0 2.1 0 .23-.08.55-.37.78-.29.23-.73.31-1.34.14-1.36-.38-8.08-1.57-18.58-1.77a87.58 87.58 0 00-19.9 2.12 1.7 1.7 0 01-1.02-.1c-.38-.19-.68-.56-.72-1.17a11.6 11.6 0 010-1.9v-.02l.01-.01c.1-.38.56-1.04 1.63-1.23 3.08-.58 11.37-1.78 20-1.94z" fill="#1B2966"/><path d="M9.56 34.81l-.03-.07-.33.07-.28-.7.55-.13-.03-.07-.55.11-.26-.66.36-.08c.15-.03.3.03.42.2l.13.16.07-.01-.21-.51-1.37.3.03.07.22-.05.57 1.45-.23.05.03.07.9-.2zm1.67-.32c-.03-.04-.06-.06-.1-.06l-.15.03-.53-1.47.23-.04-.03-.07-.8.15.03.08.22-.05.53 1.47-.23.04.03.08.8-.16zm1.22-1.86l.23-.04.36 1.1-1.4-1-.46.09.03.07.22-.04.48 1.49-.23.04.03.07.58-.1c-.03-.05-.06-.07-.1-.06l-.16.03-.38-1.18 1.5 1.07.14-.06-.5-1.54.23-.04-.02-.07-.57.1.02.07zm3.05 1.17c-.01-.04-.03-.06-.06-.06h-.03l-.09.01-1.1-1.47-.18.02-.19 1.68-.18.02.02.08.52-.08c-.01-.04-.03-.07-.06-.07h-.03l-.15.03.06-.56.57-.09.36.5-.2.03.03.07.71-.1zm-.96-.57l-.5.08.07-.68.43.6zm2.12-1.21l.24-.03.26 1.13-1.31-1.07-.46.06.02.07.23-.02.35 1.51-.22.03.01.08.6-.08c-.03-.04-.06-.07-.1-.06l-.17.02-.28-1.2 1.41 1.14.14-.04-.37-1.58.23-.03-.02-.08-.57.08.01.07zm2.67 1.23c.01.08.04.12.07.12a.2.2 0 00.05 0l-.1-.54h-.09c-.02.3-.14.47-.36.53a.84.84 0 01-.1.01c-.34.03-.57-.21-.67-.74-.08-.4-.01-.67.2-.78a.52.52 0 01.18-.05c.22-.03.4.06.53.26l.09.15h.09l-.11-.55c-.05 0-.08.03-.08.06l.01.08a1.1 1.1 0 00-.58-.08.8.8 0 00-.66.4.83.83 0 00-.07.56c.05.24.17.44.36.58.2.16.44.22.7.2.2-.03.38-.1.54-.2zm1.3.01c-.02-.04-.05-.07-.1-.07l-.14.02-.25-1.54.23-.02-.01-.08-.82.07.02.08.23-.02.24 1.54-.23.02.02.07.8-.07zm2.27-.16c0-.04-.02-.06-.05-.07h-.03l-.1.01-.87-1.58-.18.02-.42 1.66-.19.01.01.08.52-.04c0-.04-.02-.06-.04-.07h-.04l-.15.01.14-.55.58-.04.29.52-.2.02v.07l.73-.05zm-.86-.65l-.52.04.18-.68.34.64zm2.55.58l-.04-.6h-.08l-.05.25c-.03.13-.08.22-.15.26a.32.32 0 01-.14.04l-.33.01-.13-1.55.24-.01v-.08l-.83.04v.08l.23-.01.14 1.55-.23.01v.08l1.37-.07zm2.81-.53c0-.16-.1-.3-.28-.4l-.31-.15a.82.82 0 01-.32-.23.29.29 0 01-.03-.13c0-.12.05-.2.16-.24a.39.39 0 01.14-.03c.16 0 .28.06.36.17a.4.4 0 01.09.27h.1l-.01-.52c-.06 0-.09.02-.1.06v.05a1.1 1.1 0 00-.49-.1c-.22 0-.39.06-.5.18a.38.38 0 00-.1.28c0 .16.1.29.27.4.03 0 .14.06.33.15.17.07.27.15.32.23.02.04.03.08.03.13 0 .13-.05.22-.18.27a.42.42 0 01-.16.04c-.23 0-.38-.1-.46-.33a.96.96 0 01-.05-.2h-.1l.02.6c.04 0 .07-.02.08-.05a.4.4 0 000-.08c.16.1.33.14.54.14a.7.7 0 00.53-.2.38.38 0 00.13-.3zm1.9-.7v-.53l-1.41-.01v.08h.23l-.02 1.56h-.23v.07h1.4l.02-.53h-.07l-.06.18c-.05.15-.13.23-.23.26a.38.38 0 01-.1.02h-.37v-.76h.57v-.09h-.57v-.71h.38c.15 0 .25.08.31.23l.02.05.05.18h.08zm1.22 1.2v-.07h-.22l.03-.71h.18l.4.8h.49c0-.03-.01-.06-.04-.07a.2.2 0 00-.03 0h-.06l-.42-.75c.2-.05.33-.15.39-.3l.03-.14a.39.39 0 00-.18-.35.67.67 0 00-.38-.11l-.92-.02v.07H30l-.07 1.56h-.23v.08l.81.02zm.05-1.63c.15 0 .25.08.3.22.02.05.02.11.02.17 0 .15-.06.26-.16.33a.31.31 0 01-.18.05h-.22l.04-.77h.2zm1.97 1.73l.74-1.62h.14v-.07l-.48-.02v.07l.22.01-.55 1.23-.4-1.27.23.01.01-.08-.74-.03v.08h.15l.44 1.45c.04.12.07.18.1.2.02.02.05.03.09.03h.05zm1.9.09c0-.05-.03-.08-.07-.08l-.15-.01.18-1.55.23.02.01-.08-.81-.05-.01.07.23.02-.18 1.54-.23-.01-.01.08.81.05zm2.03.04c0 .07 0 .12.03.13a.2.2 0 00.05 0l.08-.54h-.08c-.12.27-.3.42-.53.43h-.1c-.34-.04-.48-.32-.4-.85.06-.4.22-.65.47-.72a.56.56 0 01.19-.02c.21.02.35.14.42.36l.03.16.1.01.06-.54c-.04 0-.07 0-.09.04l-.02.08a1 1 0 00-.53-.2.91.91 0 00-.77.28.95.95 0 00-.26.53.8.8 0 00.77.95c.2.01.4-.02.58-.1zm2.07-.85l.09-.53-1.4-.15-.01.08.23.02-.3 1.53-.22-.02-.02.08 1.4.14.11-.52-.07-.01-.1.17c-.07.14-.16.22-.27.24a.4.4 0 01-.1 0l-.37-.04.14-.75.57.06.01-.08-.56-.06.13-.7.37.04c.14.01.23.1.27.25v.06l.03.18h.07zm1.67.92c.04-.17-.02-.31-.18-.44a9.21 9.21 0 00-.27-.19c-.15-.1-.23-.2-.25-.27a.26.26 0 010-.13c.02-.11.1-.18.21-.2a.4.4 0 01.15-.02c.15.02.26.1.31.21.04.08.05.17.02.28l.1.01.12-.5c-.05 0-.09 0-.1.04l-.02.05a.88.88 0 00-.46-.17.75.75 0 00-.54.1.42.42 0 00-.18.26c-.03.16.03.3.18.43l.28.2c.15.1.24.18.26.27v.12a.3.3 0 01-.24.25.45.45 0 01-.18 0c-.22-.02-.35-.15-.37-.37a.9.9 0 010-.21l-.1-.01-.13.58c.05 0 .08 0 .1-.03a.4.4 0 00.02-.08c.13.12.29.19.49.21.23.03.43 0 .58-.11a.5.5 0 00.2-.29zm2.77.87l.18-.58-.08-.02-.14.23c-.07.12-.15.2-.24.22a.35.35 0 01-.15 0l-.32-.05.43-1.5.24.04.02-.07-.82-.13-.02.07.23.04-.43 1.5-.23-.04-.02.07 1.35.22zm1.49.25c0-.05-.02-.08-.05-.09l-.2-.03.49-1.48.09.01c.13.03.2.11.22.26v.31l.1.01.16-.57-1.44-.26-.2.57.09.01.14-.2c.1-.14.2-.21.3-.22h.1l.1.02-.49 1.48-.27-.05-.02.07.88.16zm1.22-1.5l-.03.07.23.05-.54 1.46-.23-.05-.02.08.82.16c.26.05.5.02.72-.1a.94.94 0 00.46-.52c.1-.3.07-.55-.11-.74a.9.9 0 00-.48-.25l-.82-.16zm.8.24c.22.04.33.18.32.4 0 .12-.03.26-.1.42-.14.4-.34.63-.59.65l-.17-.01-.25-.05.53-1.46.25.05zm1.07 1.7c.03-.07.02-.13-.03-.17a.16.16 0 00-.08-.04.2.2 0 00-.2.06.2.2 0 00-.05.07c-.03.07-.01.13.04.18l.07.03a.2.2 0 00.2-.05.2.2 0 00.05-.08z" fill="#1B2966"/></svg>