<svg width="56" height="56" viewBox="0 0 56 56" xmlns="http://www.w3.org/2000/svg"><path fill="#252A4F" d="M0 0h56v56H0z"/><path d="M45.85 35c-.06 0-.09-.03-.09-.09v-5.38c0-.04-.01-.05-.05-.05h-1.63c-.05 0-.08-.03-.08-.1v-.3c0-.05.03-.08.08-.08h3.84c.05 0 .08.03.08.09v.3c0 .06-.03.09-.08.09h-1.63c-.04 0-.05.01-.05.05v5.38c0 .06-.03.09-.09.09h-.3ZM39 29.09c0-.06.03-.09.09-.09h.32c.07 0 .11.03.14.09l2.93 4.93h.03V29.1c0-.06.03-.09.08-.09h.32c.06 0 .09.03.09.09v5.82c0 .06-.03.09-.09.09h-.33a.16.16 0 0 1-.15-.09l-2.9-4.94h-.04v4.94c0 .06-.03.09-.08.09h-.32c-.06 0-.09-.03-.09-.09V29.1ZM35 29.09c0-.06.02-.09.07-.09h2.86c.05 0 .07.03.07.09v.3c0 .06-.02.09-.07.09h-2.47c-.03 0-.04.01-.04.05v2.13c0 .04.01.06.04.06h2.12c.05 0 .08.03.08.09v.3c0 .05-.03.08-.08.08h-2.12c-.03 0-.04.02-.04.06v2.22c0 .04.01.05.04.05h2.47c.05 0 .07.03.07.1v.3c0 .05-.02.08-.07.08h-2.86c-.05 0-.07-.03-.07-.09V29.1ZM29 29.09c0-.06.03-.09.09-.09h.33c.07 0 .11.03.14.09l1.94 5.09h.04l1.9-5.1c.03-.05.07-.08.13-.08h.34c.06 0 .09.03.09.09v5.82c0 .06-.03.09-.09.09h-.32c-.06 0-.1-.03-.1-.09v-4.7h-.02l-1.73 4.6a.22.22 0 0 1-.06.08c-.02.02-.05.02-.1.02h-.17a.15.15 0 0 1-.15-.1l-1.73-4.6h-.03v4.7c0 .06-.03.09-.09.09h-.32c-.06 0-.09-.03-.09-.09V29.1ZM25.85 35c-.06 0-.09-.03-.09-.09v-5.38c0-.04-.01-.05-.05-.05h-1.63c-.05 0-.08-.03-.08-.1v-.3c0-.05.03-.08.08-.08h3.84c.05 0 .08.03.08.09v.3c0 .06-.03.09-.08.09h-1.63c-.04 0-.05.01-.05.05v5.38c0 .06-.03.09-.09.09h-.3ZM17 29.09c0-.06.02-.09.07-.09h2.86c.05 0 .07.03.07.09v.3c0 .06-.02.09-.07.09h-2.47c-.03 0-.04.01-.04.05v2.13c0 .04.01.06.04.06h2.12c.05 0 .08.03.08.09v.3c0 .05-.03.08-.08.08h-2.12c-.03 0-.04.02-.04.06v2.22c0 .04.01.05.04.05h2.47c.05 0 .07.03.07.1v.3c0 .05-.02.08-.07.08h-2.86c-.05 0-.07-.03-.07-.09V29.1ZM13.87 35c-.04 0-.07-.03-.09-.09l-1.77-5.79c-.03-.08 0-.12.06-.12h.27c.06 0 .1.03.12.09l1.55 5.07h.02l1.5-5.07c.02-.06.06-.09.11-.09h.29c.06 0 .09.04.06.12l-1.76 5.8c-.02.05-.05.08-.1.08h-.26ZM7 29.09c0-.06.03-.09.09-.09h.32c.07 0 .11.03.14.09l2.93 4.93h.03V29.1c0-.06.03-.09.08-.09h.32c.06 0 .09.03.09.09v5.82c0 .06-.03.09-.09.09h-.33a.16.16 0 0 1-.15-.09l-2.9-4.94h-.04v4.94c0 .06-.03.09-.08.09h-.32c-.06 0-.09-.03-.09-.09V29.1ZM5 29.13c0-.05.03-.08.09-.08h.31c.06 0 .09.03.09.08v5.78c0 .06-.03.09-.09.09H5.1c-.06 0-.09-.03-.09-.09v-5.78ZM21 21.09c0-.06.03-.09.09-.09h.31c.06 0 .09.03.09.09v3.46l2.77-3.47c.05-.05.1-.08.14-.08h.4c.03 0 .05.01.06.04l-.02.06L23 23.36l1.98 3.54c.02.03.02.06.01.07 0 .02-.02.03-.05.03h-.38c-.05 0-.1-.03-.13-.08l-1.75-3.15-1.2 1.47v1.67c0 .06-.02.09-.08.09h-.31c-.06 0-.09-.03-.09-.09V21.1ZM18.47 27c-.54 0-1.07-.26-1.44-.68-.04-.04-.04-.08 0-.12l.14-.25c.03-.05.06-.05.1-.01.33.35.77.6 1.24.6.64 0 1.04-.5 1.04-1.23 0-.7-.38-1-.96-1.1l-.2-.03c-.75-.13-1.25-.67-1.25-1.54 0-.92.52-1.64 1.37-1.64.44 0 .9.16 1.24.49.04.03.04.07.01.12l-.12.26c-.03.04-.06.05-.1.02a1.7 1.7 0 0 0-1.05-.43c-.6 0-.89.52-.89 1.18 0 .69.37.97.93 1.07l.2.03c.76.14 1.27.68 1.27 1.57 0 1.02-.63 1.69-1.53 1.69ZM22.47 35c-.54 0-1.07-.26-1.44-.68-.04-.04-.04-.08 0-.12l.14-.25c.03-.05.06-.05.1-.01.33.35.77.6 1.24.6.64 0 1.04-.5 1.04-1.23 0-.7-.38-1-.96-1.1l-.2-.03c-.75-.13-1.25-.67-1.25-1.54 0-.92.52-1.64 1.37-1.64.44 0 .9.16 1.24.49.04.03.04.07.01.12l-.12.26c-.03.04-.06.05-.1.02a1.7 1.7 0 0 0-1.05-.43c-.6 0-.89.52-.89 1.18 0 .69.37.97.93 1.07l.2.03c.76.14 1.27.68 1.27 1.57 0 1.02-.63 1.69-1.53 1.69ZM50.47 35c-.54 0-1.07-.26-1.44-.68-.04-.04-.04-.08 0-.12l.14-.25c.03-.05.06-.05.1-.01.33.35.77.6 1.24.6.64 0 1.04-.5 1.04-1.23 0-.7-.38-1-.96-1.1l-.2-.03c-.75-.13-1.25-.67-1.25-1.54 0-.92.52-1.64 1.37-1.64.44 0 .9.16 1.24.49.04.03.04.07.01.12l-.12.26c-.03.04-.06.05-.1.02a1.7 1.7 0 0 0-1.05-.43c-.6 0-.89.52-.89 1.18 0 .69.37.97.93 1.07l.2.03c.76.14 1.27.68 1.27 1.57 0 1.02-.63 1.69-1.53 1.69ZM13.23 21.09c.02-.06.06-.09.11-.09h.34c.05 0 .1.03.11.09l2.2 5.82c.02.06 0 .09-.06.09h-.37c-.06 0-.1-.03-.12-.09l-.56-1.47h-2.76l-.56 1.47c-.03.06-.07.09-.12.09h-.37c-.06 0-.08-.03-.06-.09l2.22-5.82Zm1.47 3.86-1.18-3.14h-.03l-1.2 3.14h2.41ZM5 21.09c0-.06.03-.09.09-.09h.33c.07 0 .11.03.14.09l1.94 4.3h.04l1.9-4.3c.03-.06.07-.09.13-.09h.34c.06 0 .09.03.09.09v5.82c0 .06-.03.09-.09.09H9.6c-.06 0-.1-.03-.1-.09v-4.7h-.02l-1.73 3.81a.22.22 0 0 1-.06.08l-.1.02h-.17a.15.15 0 0 1-.15-.1l-1.73-3.8H5.5v4.7c0 .05-.03.08-.09.08H5.1c-.06 0-.09-.03-.09-.09V21.1Z" fill="#FEFEFF"/></svg>