<svg width="56" height="56" xmlns="http://www.w3.org/2000/svg"><path fill="#F0F3FA" d="M0 0h56v56H0z"/><path d="M5.442 32.005H4l.577-8h1.915l1.977 5.884 2.163-5.884h1.936l.432 8h-1.442l-.33-6.45-2.326 6.45H7.83l-2.059-6.43-.33 6.43zm9.931-5.995s2.678-.205 2.93 1.173c.253 1.377.11 4.36.652 4.337 0 0-.753.92-1.652-.17 0 0-2.83 1.941-3.566-.888a1.111 1.111 0 01-.037-.46c.355-2.065 3.494-1.84 3.494-1.84s-.04-1.154-.787-1.162h-1.034v-.99z" fill="#24346C"/><path d="M15.148 29.97c.077-.433.511-.9 2.086-.784 0 0 .089.75-.147 1.117-.061.101-.576.764-1.25.636a.847.847 0 01-.69-.97z" fill="#fff"/><path d="M19.699 31.692v-1.176s1.762 1.032 2.49.104c0 0 .585-.81-1.032-1.157-1.587-.34-2.305-2.984.192-3.444.62-.054 1.246.01 1.842.188v1.227s-2.15-1.062-2.159.326c0 0-.027.522 1 .64 1.159.135 2.202 1.564 1.028 3.084-.165.213-1.161.923-3.361.207zM24.32 27v-1h.94v-.773L26.586 25v1H28v1h-1.427l.032 3.18s.07 1.373 1.395.568v1.123s-2.729.72-2.729-1.243S25.25 27 25.25 27h-.93zm8.322 4.967s-4.406.761-3.779-3.893c0 0 .4-2.397 3.273-2.034.09.011.176.032.26.062.41.144 1.451.665 1.771 2.285 0 0 .134.917-.276 1.042h-3.8S29.814 31 32.642 31v.967zm3.775-1.837l.507-.396 1.769 2.279h1.879l-2.601-3.097L40.026 27h-1.789l-1.82 1.8v-4.787l-1.427.213v7.787h1.41l.018-1.883zm11.827-5.148l-2.477 1.597a1.123 1.123 0 00-.336 1.551l1.597 2.477c.335.521 1.03.672 1.551.336l2.477-1.596a1.122 1.122 0 00.336-1.552l-1.597-2.477a1.123 1.123 0 00-1.551-.336z" fill="#24346C"/><path d="M44.655 23.206l-1.322-1.027a.806.806 0 00-1.131.143l-1.027 1.321a.806.806 0 00.142 1.131l1.322 1.027a.806.806 0 001.131-.142l1.027-1.322a.806.806 0 00-.142-1.13z" fill="#0099A8"/><path d="M45.981 31.889l-1.377-.127a.53.53 0 00-.576.479l-.127 1.377a.53.53 0 00.479.576l1.376.127a.53.53 0 00.577-.479l.127-1.376a.53.53 0 00-.479-.577z" fill="#98999A"/><path d="M32.8 28.404h-2.67c0-.496.242-1.404 1.324-1.404 1.081 0 1.347.97 1.347 1.404z" fill="#F7F7F7"/></svg>