<svg xmlns="http://www.w3.org/2000/svg" width="56" height="56"><path fill="#F0F3FA" d="M0 0h56v56H0z"/><rect x="13" y="14" width="23.47" height="28" rx="3" fill="#299D48"/><path d="M29.56 14H40a3 3 0 013 3v22a3 3 0 01-3 3H18.88l10.68-28z" fill="#F47422"/><path d="M22.78 21.7a3.76 3.76 0 002.77 1.76c-2.1-.14-3.99.19-4.98.5-3.74 2.55-5.9 13.09-6.52 18.04h5.5c2.34-8.48 7.85-15.16 10.3-17.43a11.02 11.02 0 00-3.51-1.03c1.22.04 2.6-.28 3.9-.97 2.97-1.59 4.43-4.55 3.28-6.61-1.16-2.07-4.5-2.45-7.47-.87-2.96 1.59-4.43 4.54-3.27 6.6zm9.75 11a7.3 7.3 0 004.29-.89c2.83-1.51 4.23-4.34 3.13-6.31-1.1-1.98-4.3-2.35-7.13-.83-2.84 1.51-4.24 4.34-3.14 6.31.48.86 1.35 1.41 2.41 1.64a11.73 11.73 0 00-3.8.04c-2.7.46-4.57 4.57-6.71 9.34h7.17c2-3.58 5.39-7.01 6.84-8.28a12.2 12.2 0 00-3.06-1.02z" fill="#F0F3FA"/></svg>