<svg width="56" height="56" viewBox="0 0 56 56" xmlns="http://www.w3.org/2000/svg"><path fill="#F0F3FA" d="M0 0h56v56H0z"/><path fill-rule="evenodd" d="M28 44a16 16 0 1 0 0-32 16 16 0 0 0 0 32Zm0 1a17 17 0 1 0 0-34 17 17 0 0 0 0 34Z" fill="#FFE800"/><path fill-rule="evenodd" d="M28 43a15 15 0 1 0 0-30 15 15 0 0 0 0 30Zm0 .5a15.5 15.5 0 1 0 0-31 15.5 15.5 0 0 0 0 31Z" fill="#FFE800"/><path fill-rule="evenodd" d="M28 42a14 14 0 1 0 0-28 14 14 0 0 0 0 28Zm0 .5a14.5 14.5 0 1 0 0-29 14.5 14.5 0 0 0 0 29Z" fill="#FFE800"/><path d="M40.5 28a12.5 12.5 0 1 1-25 0 12.5 12.5 0 0 1 25 0Z" fill="#FFC20E"/><path d="M26.5 27 25 28c-.17-.67-.6-2.8-1-6-.1-.82-.08-1.57.04-2.25-1.8-1-4.41-1.75-8.04-1.75a11.4 11.4 0 0 1 8.4.4A5.78 5.78 0 0 1 26 16c-.4.9-.62 1.9-.71 2.92a9.5 9.5 0 0 1 3.21 3.58l-1 1c-.22-.8-.9-1.93-2.26-2.97.06 2.59.74 5.12 1.26 6.47ZM27 31v-3.5L25 29v2h2ZM25 40.5v-9h2v9h-2Z" fill="#614D3A"/><path d="m28 24 1.5 1.5c.52-1.43 1.87-3.73 3.77-3.92.22.69.32 1.75-.27 2.92.42-.28 1.05-1.21.77-2.92.4.04.8.18 1.23.42.5 1.5 1.2 4.9 0 6.5.5-.5 1.5-1.9 1.5-3.5s-1-2.67-1.5-3c0-.67-.3-2-1.5-2-.08 0-.17.01-.27.04-.46-.69-1.27-1.54-2.23-1.54-1.2 0-2.5 1.67-3 2.5l1 1c.73-1.17 2.34-2.91 3.54-1.68-1.42.75-3.49 2.63-4.54 3.68ZM19.5 31.5c-1.2-1.6-.5-5.33 0-7 .33-.5.8-1.4 0-1-1 .5-2 1-1.5 4.5.4 2.8 1.17 3.5 1.5 3.5ZM22 26l1.5-1.5c-.67-.33-2.2-.9-3-.5l1.5 2ZM24 28.5h-2V27l2-1.5v3ZM22 37h2v-7.5h-2V37ZM22 39v-1h2v2l-2-1ZM27.5 40.5v-16l2 1.5v14.5h-2Z" fill="#614D3A"/><path d="M41 28a13 13 0 1 1-21.6-9.75l.64.11a12.5 12.5 0 1 0 1.2-.88c-.26-.03-.52-.06-.78-.07A13 13 0 0 1 41 28Z" fill="#FFE800"/></svg>