<svg xmlns="http://www.w3.org/2000/svg" width="56" height="56"><path fill="#F0F3FA" d="M0 0h56v56H0z"/><path d="M41 13v23.8a3.53 3.53 0 01-1.43 2.83l-6.45 4.71c-.59.43-1.3.66-2.01.66h-6.2c-.72 0-1.43-.23-2.02-.66l-6.46-4.71A3.44 3.44 0 0115 36.8V13h26z" fill="#004084"/><path d="M31.55 28.1h-7.1a4.6 4.6 0 00-3.33 1.43L17 34h6v5.43L28 34l5 5.43V34h6l-4.12-4.47a4.7 4.7 0 00-3.33-1.42zm-7.1-.37h7.1a4.6 4.6 0 003.33-1.42L39 22h-6v-5.57L28 22l-5-5.57V22h-6l4.12 4.32c.88.9 2.08 1.41 3.33 1.4z" fill="#45C0BE"/><path d="M32 27h-3v-3h-2v3h-3v2h3v3h2v-3h3v-2z" fill="#F0F3FA"/></svg>