<svg width="56" height="56" viewBox="0 0 56 56" xmlns="http://www.w3.org/2000/svg"><path fill="#F0F3FA" d="M0 0h56v56H0z"/><path d="M34.4 39.32 40 44l-3.58-1.42a5.22 5.22 0 0 0-4.07-.02l-4.86 2.02a5.4 5.4 0 0 1-5.7-.98L16 38.5l3.45 1.7c1.35.69 2.92.77 4.33.2l5.1-2.02a5.4 5.4 0 0 1 5.52.94Z" fill="#03387E"/><path d="M29.73 13.37 25 9c.2.64 1 2.3 1 3.78 0 1.86-.3 3.68-2.8 7.14-2.5 3.45-3.2 5.16-3.2 6.95 0 1.42.77 2.77 1.16 3.27l6.59 5.17c.41.23 1.45.69 2.31.69C34.8 36 36 31.74 36 30.58c0-.93-.46-1.97-.7-2.37L30.07 24c.43.63.94 2.34.94 4 0 3-1.8 3.8-2.87 4H25.4c-.3-.2-.89-.88-.89-2.37 0-1.85.82-4.07 3.25-6.47 2.43-2.4 3.25-4.19 3.25-6.2a6.4 6.4 0 0 0-1.27-3.6Z" fill="#F67823"/></svg>