<svg width="56" height="56" viewBox="0 0 56 56" xmlns="http://www.w3.org/2000/svg"><path fill="#F0F3FA" d="M0 0h56v56H0z"/><path d="M14.51 27.55H6v1h8.51v-1Zm26.98 1H50v-1h-8.51v1Z" fill="#DC8E7F"/><path d="M19.32 18 10 28l9.32 10L22 35.12 15.37 28 22 20.88 19.32 18Z" fill="url(#ahtqasnzz)"/><path d="M18.82 18.54 10 28l9.32 10 1.38-1.49a11.5 11.5 0 0 0-.4-.35c-.25-.21-.45-.39-.53-.52-.21-.41-3.69-3.91-5.88-6.12l-1.77-1.8c-.2-.26.47-.98 1.97-2.38l1.1-1.02c1.25-1.15 2.55-2.35 3.4-3.26.93-1 .63-1.73.23-2.52Z" fill="#8A2820"/><path d="M36.68 38 46 28l-9.32-10L34 20.88 40.63 28 34 35.12 36.68 38Z" fill="url(#bhtqasnzz)"/><path d="M40.63 28 34 35.12l.46.49c2.14-2.1 5.3-5.19 6.31-6.07 1.5-1.32 1.15-1.95.6-2.67-.41-.54-4.34-4.44-6.67-6.74l-.7.75L40.63 28Z" fill="#7F251D"/><path transform="rotate(135 40 28)" fill="url(#chtqasnzz)" d="M40 28h16.97v16.97H40z"/><path d="M27.43 16.57c.1.47.1 1.02-.2 1.38-.61.7-8.98 9.06-9.42 9.5-.38.38-.41 1-.43 1.36l-.02.17c0 .05-.04.15-.1.28L16 28l11.43-11.43Z" fill="#115C7B"/><path fill-rule="evenodd" d="M23.25 31c1.8 0 3.25-1.34 3.25-3s-1.46-3-3.25-3c-1.8 0-3.25 1.34-3.25 3s1.46 3 3.25 3Zm0-.25c1.87 0 2.75-1.23 2.75-2.75s-.97-2.72-2.75-2.75c-1.78-.03-2.75 1.23-2.75 2.75s.88 2.75 2.75 2.75Zm7.6.25a3.6 3.6 0 0 0 2.15-.69V28.3h-.5v1.78a2.6 2.6 0 0 1-1.86.67C28.84 30.74 28 29.5 28 28c0-1.51.93-2.77 2.64-2.74.98.02 1.7.42 2.15 1.05l.17-.65a3.6 3.6 0 0 0-2.1-.66c-1.86 0-3.36 1.34-3.36 3s1.5 3 3.36 3Zm4.65-6H35v6h.5v-6Z" fill="#fff"/><defs><linearGradient id="ahtqasnzz" x1="23.49" y1="22.84" x2="13.7" y2="31.96" gradientUnits="userSpaceOnUse"><stop stop-color="#EA8480"/><stop offset=".11" stop-color="#E05047"/><stop offset=".7" stop-color="#E35C56"/><stop offset="1" stop-color="#D0382D"/></linearGradient><linearGradient id="bhtqasnzz" x1="34.97" y1="36.78" x2="45.79" y2="27.25" gradientUnits="userSpaceOnUse"><stop offset=".07" stop-color="#7F251D"/><stop offset=".2" stop-color="#D1372D"/><stop offset=".82" stop-color="#D03830"/><stop offset="1" stop-color="#EA8B85"/></linearGradient><linearGradient id="chtqasnzz" x1="39.9" y1="38.36" x2="56.84" y2="38.36" gradientUnits="userSpaceOnUse"><stop stop-color="#61B5D9"/><stop offset=".09" stop-color="#1D92C4"/><stop offset=".88" stop-color="#1991C5"/><stop offset="1" stop-color="#325D6D"/></linearGradient></defs></svg>