<svg width="56" height="56" viewBox="0 0 56 56" xmlns="http://www.w3.org/2000/svg"><path fill="#F0F3FA" d="M0 0h56v56H0z"/><path d="M24.32 15.66 24.6 14C18.03 15.03 13 20.87 13 27.92 13 35.7 19.13 42 26.69 42c.44 0 .88-.02 1.31-.06v-1.5a12 12 0 0 1-1.03.05c-6.74 0-12.21-5.62-12.21-12.56 0-6 4.09-11.02 9.56-12.27Z" fill="url(#a)"/><path d="m24.47 14.78-.15.88a12.5 12.5 0 0 0-9.56 12.27c0 6.94 5.47 12.56 12.21 12.56.35 0 .7-.01 1.03-.04v.83c-.34.03-.68.05-1.03.05-7.2 0-13.02-6-13.02-13.4 0-6.52 4.52-11.95 10.52-13.15Z" fill="url(#b)"/><path d="M24.72 14 28 24.57 31.28 14l4.59 14.74L52 29.93l-17.97 2.64-2.1-5.98L28 41.82l-3.93-15.23-2.1 5.98L4 29.93l16.13-1.19L24.73 14ZM28 35.94l3.8-13.32 2.63 7.8 13.3-.63H34.96l-3.67-11.34L28 30.85l-3.28-12.4-3.67 11.34H8.26l13.31.62 2.63-7.79L28 35.94Z" fill="#7B2C24"/><defs><linearGradient id="a" x1="20.5" y1="14" x2="20.5" y2="42" gradientUnits="userSpaceOnUse"><stop stop-color="#A14B4B"/><stop offset="1" stop-color="#B05252"/></linearGradient><linearGradient id="b" x1="20.97" y1="14.78" x2="20.97" y2="41.33" gradientUnits="userSpaceOnUse"><stop stop-color="#A14C4C"/><stop offset=".55" stop-color="#5C302E"/><stop offset="1" stop-color="#8E4544"/></linearGradient></defs></svg>