<svg width="56" height="56" viewBox="0 0 56 56" xmlns="http://www.w3.org/2000/svg"><path fill="#F0F3FA" d="M0 0h56v56H0z"/><path d="M45 29a17 17 0 0 1-17 16 17 17 0 0 1-17-16h.4a16.63 16.63 0 0 0 33.2 0h.4Zm0-2a17.02 17.02 0 0 0-34 0h.4a16.63 16.63 0 0 1 33.2 0h.4Z"/><path d="M43 29a15.02 15.02 0 0 1-30 0h4.04a11 11 0 0 0 21.9 0H43Zm-.01-2A15.02 15.02 0 0 0 13 27h4.04a11 11 0 0 1 21.9 0H43Z"/><path d="m20.58 25.47-.95.48a.19.19 0 0 0-.08.25v.01c.05.1.16.13.25.09l.95-.49c.1-.04.13-.16.09-.25v-.01a.18.18 0 0 0-.26-.08Z"/><path fill-rule="evenodd" d="M22.57 24.84c0 .03-.02.06-.07.1-.5.43-1.03.82-1.64 1.1-.43.2-.87.44-1.31.7a.12.12 0 0 0 .02.21c.51.2 1.37-.33 1.92-.67l.22-.13c.2-.12.24-.08.14.13-.17.36-.67.65-1.05.83-.22.1-.22.31-.22.52l-.01.17c-.03.35-.49.7-.76.8-.17.06-.35.1-.54.13-.3.05-.28.48-.26.69.08.93 2.26-.82 2.43-1.17.27-.6.52-1.2.75-1.83.15-.43.4-.8.76-1.09a.15.15 0 0 1 .11-.03c.14.02.27.06.39.12.83.44 1.13 1.1.89 1.98-.07.24-.17.46-.28.69-.11.24-.22.47-.29.73-.23.91.05 1.56.4 2.35.03.08.04.2-.09.2a.61.61 0 0 1-.4-.14c-.22-.18-.44-.3-.68-.38-.2-.06-.26 0-.16.2.06.13.1.27.1.43.02.2-.33.13-.42.07a1.03 1.03 0 0 0-.87-.13.14.14 0 0 1-.18-.15c.02-.19-.11-.45-.34-.34l-.39.2c-.1.05-.2-.03-.28-.07-.24-.12-.54-.27-.76-.24-.1 0-.16.14-.1.22.42.58.9 1.23 1.1 1.93.1.31-.2.67-.1.93.2.47.72.3.71 1.03 0 .12.1.23.22.23l.5-.01c.58-.05 1 .31 1.41.65.38.32.88-.06 1.35.1.4.14.69-.16.96-.4.21-.18.6.08.82.22.26.17.49 0 .74-.1.24-.1.42.05.59.19.18.14.35.28.58.11.17-.12.32-.27.45-.43.3-.4.76.26 1.08.25.25 0 .53-.28.72-.42.11-.08.2.05.24.13.12.18.26.38.47.42.42.07.87-.15 1.22-.37.15-.1.4-.02.55 0 .4.07.7.12.87-.56.05-.2.2-.27.38-.27.06 0 .11-.03.15-.07.52-.51 1.22-1.05 1.52-1.74.14-.32.26-.6.72-.55.1 0 .17-.1.13-.18l-.23-.58c-.06-.14-.59-.3-.74-.21l-.47.27a.1.1 0 0 1-.15-.07 5.08 5.08 0 0 1-.05-.82c.01-.66 0-1.34-.02-2.04 0-.28-.14-.52-.28-.76-.14-.25-.29-.5-.3-.8 0-1.23-.04-2.68-1.2-3.41a18.2 18.2 0 0 1-.76-.52 10.3 10.3 0 0 0-6.07-2.02c-.55 0-.94-.3-1.33-.59-.35-.27-.7-.55-1.18-.57-1.04-.06-1.92.25-2.15 1.39l-.27 1.34c-.16.78-.58 1.48-.72 2.26l-.05.23c-.03.13.02.18.15.13.45-.16.88-.35 1.29-.57.05-.02.1 0 .12.05Zm2.95-3.25c.47.17.88.4 1.23.67.31.25.08.94-.03 1.25-.08.2-.21.4-.4.57-.3.28-.57.57-.8.86-.32.4-.9.26-1.17-.1-.04-.06 0-.15.08-.15.2 0 .4.17.59.15.4-.05.92-.8 1.2-1.07.33-.3.44-.71.35-1.24-.02-.13-.14-.24-.25-.3-.24-.1-.49-.24-.74-.38a.32.32 0 0 1-.14-.17c-.01-.05.03-.1.08-.09Zm-1.78 1.07c.23-.17.36-.38.3-.47-.07-.09-.3-.01-.53.16-.23.17-.36.39-.3.47.07.09.3.02.53-.16Zm10.33 4.49a29.8 29.8 0 0 1-.04-.9c0-.12-.2.13-.2.19-.07.57-.15 1.2.08 1.72.11.25.44.4.67.52.11.05.14.02.08-.1-.27-.48-.56-.85-.6-1.43Zm-8.5.1c.19.4.34.82.55 1.2.43.79.7 1.7.9 2.6.05.16-.01.24-.17.25-.34.03-1.09.12-1.37-.09-.2-.14-.27-.58-.37-.82-.22-.55.03-.9.27-1.25.23-.33.45-.64.27-1.09a2.56 2.56 0 0 0-.5-.78c-.05-.05-.17-.3-.02-.3.21.01.36.1.44.28Zm4.56 1.42c-.05-.09-.06-.26.08-.27.45-.03.88-.14 1.27-.34.1-.05-.03-.2-.12-.17a8.54 8.54 0 0 1-3.42.18c.14 1.06.48 2.02.85 3.02.04.12.12.2.24.24.22.08 1.32.35 1.37-.09.1-.82.13-1.8-.27-2.57Zm2.5 2.79-.6-.22c-.08-.04-.12-.1-.1-.2.1-.59.36-1.31.22-1.92-.04-.16 0-.2.14-.1.38.28.76.58 1.13.9.17.15.29.29.27.54l-.03.78c0 .1-.1.16-.19.13l-.34-.14c-.2-.08-.3.3-.5.23Z"/></svg>