<svg width="56" height="56" xmlns="http://www.w3.org/2000/svg"><path fill="#F0F3FA" d="M0 0h56v56H0z"/><path d="M41.325 28.693L36.984 23h5.324l1.556 2.744L45.584 23h5.243l-4.423 5.693L51.401 35h-5.53l-2.007-3.358L41.776 35h-5.53l5.08-6.307zM5 23h6.098l1.925 7.25L15.112 23H21v12h-4v-9.502L14.5 35h-3L9 25.498V35H5V23z" fill="#00377B"/><path d="M30 22.5c-4.5 0-7.5 2.91-7.5 6.5s3 6.5 7.5 6.5c4.234 0 6.387-1.889 7.19-4.5H32.6a2.999 2.999 0 01-2.6 1.5c-1.657 0-3-1.5-3-3.5s1.343-3.5 3-3.5a3 3 0 012.599 1.5h4.592c-.804-2.611-2.957-4.5-7.191-4.5z" fill="#ED1C24"/></svg>