<svg width="56" height="56" viewBox="0 0 56 56" xmlns="http://www.w3.org/2000/svg"><path fill="#F0F3FA" d="M0 0h56v56H0z"/><path d="M12 31h13v13h-1.35V32.37H12V31Zm18.33 13V30.35l-1.35-.68V44h1.35ZM33 31.26l-1.35-.3V44H33V31.26ZM27.66 44V28.35H12v1.35h14.31V44h1.35Zm-1.12-16.98-.55-.62-.39-.73H12v1.35h14.54Zm-1.64-2.67-.36-.67-.1-.68H12v1.35h12.9Z" fill="#6D6E71"/><path d="M44 32.4h-8.24c-3.58 0-6.62-1.16-8.78-3.33-2.06-2.07-3.2-4.95-3.3-8.34V12H25v8.25c0 3.24 1 5.97 2.9 7.89 1.92 1.92 4.63 2.86 7.86 2.86H44v1.4Zm-7.25-3.91c-.97 0-1.95-.08-2.9-.25a7.56 7.56 0 0 1-4.4-2.23c-1.1-1.27-1.57-3-1.76-4.64-.08-.7-.13-1.4-.13-2.11V12h-1.3v7.26c0 .7.04 1.4.11 2.09.18 1.69.6 3.39 1.56 4.82.25.39.54.74.87 1.07a8.78 8.78 0 0 0 4.24 2.18c1.2.29 2.48.38 3.7.38H44V28.5h-7.25Zm-.99-5.18c-1.18 0-1.95-.21-2.4-.66-.44-.45-.64-1.21-.64-2.4V12H31.4v8.25c0 1.56.33 2.62 1.04 3.33s1.76 1.05 3.32 1.05H44V23.3h-8.24Zm1.97 2.7-.35-.01c-1.93-.05-4.35-.02-5.83-1.52-1.6-1.6-1.55-4.16-1.55-6.21V12h-1.28v5.6l.01 1.19c.06 2.25.2 4.93 1.9 6.62 1.77 1.8 4.74 1.91 7.1 1.91H44V26h-6.26Z" fill="#F04E30"/></svg>