<svg width="56" height="56" viewBox="0 0 56 56" xmlns="http://www.w3.org/2000/svg"><path fill="#F0F3FA" d="M0 0h56v56H0z"/><path fill-rule="evenodd" d="M44 28a16 16 0 1 1-32 0 16 16 0 0 1 32 0Zm-19.1-7.15c-.35 1.92-1.48 3.33-2.53 3.13-1.04-.2-1.61-1.9-1.27-3.83.35-1.92 1.48-3.33 2.53-3.13 1.04.2 1.61 1.9 1.27 3.83ZM15 37c.5-4.33 2.77-13 7.85-13 3.85 0 7.36 6.3 8.15 10-.24-.29-.51-.65-.8-1.04-1.51-2-3.74-4.96-7.05-4.96-3.17 0-6.75 5.94-8.15 9Zm21.9-9c-2.52 0-4.9 3.17-5.9 6 .5-3 2.37-9 5.9-9 2.63 0 5.9 4.74 6.1 7-1.38-1.57-3.57-4-6.1-4Zm-1.14-3.06c1.02-.3 1.5-1.62 1.09-2.97-.42-1.35-1.59-2.2-2.6-1.91-1.03.3-1.52 1.62-1.1 2.97.42 1.35 1.59 2.2 2.6 1.91Z" fill="#DD202A"/></svg>