<svg width="56" height="56" viewBox="0 0 56 56" xmlns="http://www.w3.org/2000/svg"><path fill="#C00415" d="M0 0h56v56H0z"/><path d="M45.26 23h5.48c.7 0 1.26.57 1.26 1.26v5.48c0 .7-.57 1.26-1.26 1.26h-5.48c-.7 0-1.26-.57-1.26-1.26v-5.48c0-.7.57-1.26 1.26-1.26Z" fill="#fff"/><path d="M47 24v2h-2v2h2v2h2v-2h2v-2h-2v-2h-2Z" fill="#25A62D"/><path d="M10.4 31H12l-.39-7.99H9.46l-.76 3.11c-.25.83-.5 1.78-.69 2.63h-.04c-.16-.86-.38-1.77-.62-2.6L6.65 23H4.47L4 31h1.52l.14-2.77.11-3.03h.03c.18.97.42 2 .65 2.86L7.23 31H8.5l.88-2.97c.28-.85.58-1.9.81-2.83h.03c0 1.07.03 2.13.06 3l.12 2.8ZM39.5 30.59c.4.23 1.02.41 1.71.41 1.52 0 2.29-.79 2.29-1.87-.01-.83-.42-1.4-1.43-1.76-.65-.24-.86-.39-.86-.67s.23-.46.63-.46c.45 0 .91.2 1.15.32l.28-1.22A3.28 3.28 0 0 0 41.8 25c-1.31 0-2.16.8-2.16 1.89-.01.67.41 1.33 1.52 1.71.6.23.77.37.77.67 0 .3-.2.47-.7.47-.5 0-1.13-.22-1.43-.42l-.29 1.27ZM39 25h-1.67v3.5c0 .15-.02.28-.06.39-.1.29-.37.63-.82.63-.58 0-.82-.51-.82-1.37V25H34v3.44c0 1.81.77 2.56 1.84 2.56.94 0 1.44-.6 1.64-.96h.03l.08.96H39v-6ZM31 31h1.6v-8H31v8ZM26.56 31H25v-7.85a12.3 12.3 0 0 1 2.13-.15c.97 0 1.67.2 2.14.6.44.37.73.98.73 1.7C30 27 28.69 28 27.1 28c-.21 0-.4-.03-.54-.06V31Zm.65-6.52c-.32 0-.54.03-.65.06v2.18c.14.04.3.05.53.05.83 0 1.35-.45 1.35-1.2 0-.68-.43-1.09-1.23-1.09ZM14.55 27.35c.04-.47.32-1.17 1.02-1.17.74 0 .91.74.91 1.17h-1.93Zm3.4 1.23a5 5 0 0 0 .05-.72c0-1.42-.64-2.86-2.34-2.86-1.82 0-2.66 1.6-2.66 3.06 0 1.81 1.02 2.94 2.8 2.94.72 0 1.37-.12 1.91-.37l-.22-1.2a4 4 0 0 1-1.45.24c-.76 0-1.43-.35-1.48-1.1l3.39.01ZM22.34 28.47c0 .13-.01.27-.03.38-.1.47-.48.8-.95.8-.67 0-1.1-.74-1.1-1.65 0-.85.37-1.67 1.11-1.67.5 0 .85.36.95.82.02.1.02.2.02.3v1.02Zm0-5.47v2.64h-.02c-.23-.37-.72-.64-1.37-.64-1.25 0-2.34 1.1-2.33 2.91 0 1.69.99 3.09 2.22 3.09.67 0 1.31-.31 1.63-.91h.03l.06.91H24v-8h-1.66Z" fill="#fff"/></svg>