<svg width="56" height="56" viewBox="0 0 56 56" xmlns="http://www.w3.org/2000/svg"><path fill="#005BAA" d="M0 0h56v56H0z"/><path fill-rule="evenodd" d="M8 31h2v-6.94c0-1.35.48-4.06 3.95-4.06 1.56 0 2.76.62 3.16.93.3-.31 1.35-.93 3.25-.93 2.37 0 4.64 1.67 4.64 4.06v6.5l2-1.45v-5.05c-.04-1.35.45-4.06 4.44-4.06 3.57 0 4.6 2.1 4.56 3.16v2.5c0 .31-.46 1.5-1.5 2.15L30 30.56c.06.15.47.44 1.53.44h5.72c.25-.05.75-.22.75-.59v-7.5c-.12-.97-.16-2.91 2.88-2.91 3.8 0 6.12 1.03 6.12 4.73V30c-.09 1.3-.93 3.99-3.6 3.99H41v6h-3v-5.64A4.32 4.32 0 0 1 41.72 31h.69c.87 0 1.59-.68 1.59-1.56V24.5c0-.88-.72-1.49-1.6-1.49H41v4.81c-.06 2.03-1.66 6.19-7.26 6.19h-2.91c-.9-.1-2.87-.69-3.49-1.8l-2.4 1.42h-.01c-.18.11-.62.38-1.13.38-.65 0-1.77-.51-1.8-2.2v-7.61c0-.44-.45-1.19-1.64-1.19-1.2 0-1.34.75-1.36 1.19v9.3c0 .23-.24.51-.47.51h-2.18c-.23 0-.35-.28-.35-.5v-9.31c-.02-.44-.35-1.19-1.53-1.19-1.18 0-1.46.75-1.47 1.19v6.97A2.85 2.85 0 0 1 10.24 34H8v-3Zm22-3.66v-3.31c0-.34.23-1.03 1.07-1.03h1.14c.26.02.79.25.79 1.03v1.28c0 .06-.03.12-.07.15L30 27.34Z" fill="#fff"/></svg>