<svg xmlns="http://www.w3.org/2000/svg" width="56" height="56"><path fill="#05964B" d="M0 0h56v56H0z"/><path d="M4 25v7h1v-4.7l2 3.36 2-3.37V32h1v-7H9l-2 3.51L5 25H4zm42.25 0h1v7h-1zm-31.92 0v1.02h1.38V32h1v-5.98h1.46V25h-3.84zm-2.83 1v2H14v1h-2.5v2H14v1h-3.5v-7H14v1h-2.5zM44 25h-1v7h3v-1h-2v-6z" fill="#fff"/><path fill-rule="evenodd" d="M18.5 25h2.25a2.25 2.25 0 01.48 4.45L23 32h-1.3l-1.74-2.5h-.46V32h-1v-7zm1 1h1.25a1.25 1.25 0 010 2.5H19.5V26zm10.85-1h2.25a2.25 2.25 0 010 4.5h-1.25V32h-1v-7zm1 1h1.25a1.25 1.25 0 110 2.5h-1.25V26z" fill="#fff"/><path fill-rule="evenodd" d="M26.5 32a3.5 3.5 0 100-7 3.5 3.5 0 000 7zm0-1a2.5 2.5 0 100-5 2.5 2.5 0 000 5z" fill="#fff"/><path d="M49 28c-.59-.24-1-.79-1-1.42 0-.87.77-1.58 1.72-1.58.8 0 1.47.5 1.66 1.2l-.98.39a.7.7 0 10-1.27.51 1.05 1.05 0 00.17.17c.2.15.54.31 1.31.62A2.14 2.14 0 0152 29.87c0 1.17-1 2.13-2.25 2.13a2.21 2.21 0 01-2.25-1.94l1-.34a1.25 1.25 0 101.75-1.15l-.03-.01-.03-.02-.1-.03c-.33-.13-.74-.29-1.1-.5z" fill="#fff"/><path d="M41.72 28.48a2.9 2.9 0 11-5.8 0 2.9 2.9 0 015.8 0z" fill="#302725"/><path d="M38.73 26.64c0 .22-.18.48-.27.58l-.48-1.44.34-.1c.22.26.4.68.4.96zm1.63.9a.89.89 0 11-1.78 0 .89.89 0 011.78 0z" fill="#E39E33"/><path d="M40.55 29.3a1.1 1.1 0 11-2.19 0 1.1 1.1 0 012.2 0z" fill="#E39E33"/><path d="M40.1 27.56a.66.66 0 11-1.31 0 .66.66 0 011.31 0zm.13 1.77a.8.8 0 11-1.62 0 .8.8 0 011.62 0z" fill="#A35D2C"/><path d="M39.77 27.59a.34.34 0 11-.67 0 .34.34 0 01.67 0zm.1 1.71a.44.44 0 11-.9 0 .44.44 0 01.9 0z" fill="#FBB956"/><path d="M39.7 31.24a2.9 2.9 0 11-1.66-5.55l1.65 5.55z" fill="url(#ansfp3tkb)"/><path d="M39.7 31.21l-1.64-5.46c-.34.34-.85 1.68-.48 2.96a4.23 4.23 0 002.11 2.5z" fill="url(#bnsfp3tkb)"/><path d="M38.06 25.72c.02.02.02.05 0 .07a1.5 1.5 0 00-.27.41 3.64 3.64 0 00-.21 2.5c.2.66.59 1.24 1 1.66.41.43.84.71 1.09.8a.05.05 0 11-.04.1c-.27-.1-.7-.4-1.12-.83a4.2 4.2 0 01-1.02-1.71 3.74 3.74 0 01.21-2.56c.1-.2.2-.35.29-.44a.05.05 0 01.07 0z" fill="#E7E2DE"/><path d="M39.08 26.24a.74.74 0 01-.57-.59c.56-.06 1.14.09 1.37.17-.1.17-.41.5-.8.42zm.94.69c-.31-.46 0-.86.16-.98.55.29.91.77 1.02.98-.03.2-.78.58-1.18 0z" fill="#E39E33"/><path d="M40.27 26.78c-.23-.27-.03-.61.11-.73.42.22.65.58.71.73-.07.09-.52.34-.82 0z" fill="#A35D2C"/><path d="M40.47 26.68c-.15-.18 0-.4.1-.48.19.1.34.32.4.41-.1.1-.37.21-.5.07z" fill="#FBB956"/><path d="M42.34 28.04a1 1 0 11-1.98 0 1 1 0 011.98 0z" fill="#E39E33"/><path d="M42.05 28.06a.73.73 0 11-1.46 0 .73.73 0 011.46 0z" fill="#A35D2C"/><path d="M41.72 28.03a.4.4 0 11-.8 0 .4.4 0 01.8 0zm-.05-.79a.35.35 0 11-.7 0 .35.35 0 01.7 0z" fill="#FBB956"/><path d="M40.45 29.47c.41-.42 1-.33 1.25-.23a2.93 2.93 0 01-1.5 1.78c-.09-.28-.26-1.02.25-1.55z" fill="#E39E33"/><path d="M40.7 29.82c.22-.26.63-.35.85-.34-.13.56-.74 1.08-1.03 1.27a.87.87 0 01.18-.93z" fill="#A35D2C"/><path d="M40.73 30.3c.08-.07.25-.08.34-.08-.03.15-.27.38-.4.46-.03-.08-.05-.28.06-.38z" fill="#FBB956"/><path fill-rule="evenodd" d="M38.84 31.34a2.84 2.84 0 100-5.68 2.84 2.84 0 000 5.68zm0 1a3.84 3.84 0 100-7.68 3.84 3.84 0 000 7.68z" fill="#fff"/><defs><linearGradient id="ansfp3tkb" x1="39" y1="28.29" x2="36.1" y2="29.18" gradientUnits="userSpaceOnUse"><stop stop-color="#4C4541"/><stop offset=".85" stop-color="#E5E0DD"/></linearGradient><linearGradient id="bnsfp3tkb" x1="38.99" y1="28.48" x2="37.66" y2="28.88" gradientUnits="userSpaceOnUse"><stop stop-color="#ECE7E4"/><stop offset=".38" stop-color="#9F9793"/><stop offset="1" stop-color="#C9C1BC"/></linearGradient></defs></svg>