<svg width="56" height="56" viewBox="0 0 56 56" xmlns="http://www.w3.org/2000/svg"><path fill="#F0F3FA" d="M0 0h56v56H0z"/><path fill-rule="evenodd" d="M31 22v9.1c0 1.05.81 1.9 1.81 1.9H35v-2h-1.24c-.43 0-.76-.03-.76-.48V26h2v-2h-2v-2h-2Zm-8.76 7H29c.04-1.6-.8-5-4.49-5-4.53 0-4.51 4.12-4.51 4.6v.02c0 .84.29 4.38 4.51 4.38.83.03 3.8-.3 4.25-2.56h-2.38c-.29.37-1.16.56-1.87.56-1.14 0-2.27-.82-2.27-2Zm.26-1.55h4a7.84 7.84 0 0 1-.04-.1c-.2-.51-.53-1.35-2.1-1.35-1.23 0-1.75.95-1.86 1.45ZM5 33v-7.07C5 24.87 5.9 24 7.03 24h3.94c.38 0 .73.1 1.03.27.3-.17.65-.27 1.03-.27h3.94c1.12 0 2.03.87 2.03 1.93V33h-2v-6.07c0-.61-.33-.93-.97-.93h-2.04c-.64 0-.99.32-.99.93V33h-2v-6.07c0-.61-.5-.93-1.15-.93H8.11c-.64 0-1.11.32-1.11.93V33H5Zm32-6.53V33h2v-6.3c0-.46.39-.7.82-.7H42v-2h-2.68C38.04 24 37 25.1 37 26.47Zm14 2.03a4.5 4.5 0 1 1-9 0 4.5 4.5 0 0 1 9 0Zm-2 0a2.5 2.5 0 1 1-5 0 2.5 2.5 0 0 1 5 0Z" fill="#56575B"/><path d="M33 24h-5c2.65 1.15 4.44 3.81 5 5v-5Z" fill="#E4032D"/></svg>