<svg width="56" height="56" viewBox="0 0 56 56" xmlns="http://www.w3.org/2000/svg"><path fill="#F0F3FA" d="M0 0h56v56H0z"/><path d="M49.42 30c-.96 0-1.39-.72-1.28-1.36.12-.76.8-1.73.98-2 .52-.76.48-1.22.04-1.22-.64 0-1.66 1.11-2.38 2.31L45.79 30h-1.05l1.53-3.31c.52-.85.51-1.27.07-1.27-.68 0-1.74 1.18-2.46 2.43L42.95 30H42l1.22-2.63c.44-1.18.33-1.86.64-2 .32-.17.73.37.37 1.24.68-.92 1.5-1.61 2.19-1.61.84 0 1.1.57 1.04 1.12.59-.67 1.22-1.12 1.78-1.12.92 0 1.16.68 1.02 1.27-.18.77-1.04 1.7-1.16 2.41-.08.47.04.82.48.82.56 0 1.34-.76 2.06-2.13l.36.2c-.77 1.47-1.6 2.43-2.58 2.43Z" fill="#102694"/><path d="M38.27 30c-1.09 0-1.72-1.48-1-2.86.56-1.1 1.63-2.03 2.64-2.13.78-.07 1.21.25 1.3.66l.26-.43h1.08c-.48.76-.95 1.63-1.43 2.69-.44.97-.45 1.58-.01 1.58.56 0 1.39-.76 2.11-2.13l.36.2c-.77 1.46-1.66 2.42-2.63 2.42-.57 0-.94-.34-1.04-.89-.45.57-.96.89-1.64.89Zm.04-2.7c-.66 1.39-.38 2.16.12 2.2.61.06 1.06-.37 1.53-1.15.04-.17.1-.35.18-.54.22-.5.43-.95.66-1.38.1-.46.08-.86-.2-.98-.62-.3-1.74.74-2.3 1.86ZM30.03 30c-1.09 0-1.72-1.48-1-2.86.56-1.1 1.63-2.03 2.65-2.13.77-.07 1.2.25 1.3.66l.25-.43h1.08c-.48.76-.95 1.63-1.43 2.69-.44.97-.45 1.58-.01 1.58.56 0 1.1-.84 1.83-2.2l.36.2c-.78 1.46-1.38 2.49-2.35 2.49-.57 0-.94-.34-1.03-.89-.46.57-.97.89-1.65.89Zm.04-2.7c-.66 1.39-.38 2.16.12 2.2.62.06 1.06-.37 1.53-1.15.04-.17.1-.35.18-.54.22-.5.43-.95.66-1.38.1-.46.08-.86-.2-.98-.62-.3-1.74.74-2.3 1.86ZM23 30c-.96 0-1.37-.72-1.28-1.35.12-.76.8-1.72 1-2 .52-.75.48-1.23.03-1.23-.68 0-1.74 1.2-2.46 2.44L19.35 30h-.95l1.22-2.62c.44-1.17.33-1.85.64-1.99.32-.17.74.37.38 1.24.68-.92 1.5-1.63 2.2-1.63.92 0 1.16.7 1.01 1.3-.17.75-1.04 1.68-1.16 2.39-.08.46.04.82.48.82.56 0 1.35-.76 2.07-2.13l.37.2C24.8 29.05 24 30 23 30Z" fill="#102694"/><path d="M14.7 30c-1.09 0-1.71-1.48-1-2.86.56-1.1 1.63-2.03 2.65-2.13.77-.07 1.2.25 1.3.66l.25-.43h1.09c-.49.76-.96 1.63-1.44 2.69-.44.97-.45 1.58-.01 1.58.56 0 1.35-.76 2.08-2.13l.34.2c-.77 1.46-1.6 2.42-2.58 2.42-.56 0-.94-.34-1.03-.89-.46.57-.97.89-1.65.89Zm.04-2.7c-.66 1.39-.38 2.16.12 2.2.62.06 1.06-.37 1.53-1.15.04-.17.1-.35.18-.54.22-.5.43-.95.66-1.38.1-.46.08-.86-.2-.98-.62-.3-1.74.74-2.3 1.86Z" fill="#102694"/><path d="M11.45 30c-.97 0-1.4-.72-1.29-1.35.12-.76.8-1.72.98-2 .52-.75.48-1.2.04-1.2-.64 0-1.66 1.1-2.39 2.3L7.8 30H6.75l1.54-3.3c.52-.84.5-1.25.06-1.25-.68 0-1.74 1.17-2.46 2.4L4.95 30H4l1.22-2.62c.44-1.17.33-1.85.64-1.99.32-.17.74.37.38 1.24.68-.92 1.5-1.63 2.2-1.63.84 0 1.1.59 1.04 1.14.59-.67 1.22-1.14 1.78-1.14.77 0 1.07.5 1.06 1 0 .1 0 .2-.03.3-.19.75-1.04 1.68-1.16 2.39-.09.46.04.82.48.82.56 0 1.34-.76 2.06-2.13l.36.2c-.78 1.46-1.6 2.42-2.58 2.42ZM36.24 23.95c1.35-2.3 4.78-6.95 9.4-6.95 1.76 0 3.36.62 3.36 2.62C49 21.6 47.03 22 45.8 22c-1.25 0-2.76-.67-2.8-2 .44.74 1.27 1.45 2.8 1.45 1.52 0 2.52-.82 2.52-1.83 0-1.02-.64-2.27-2.53-2.27-3.37 0-6.1 3.17-8.54 6.56-.9 1.24-1.9 3.3-1.9 3.3-.96 1.82-.8 2.41-.23 2.41.77 0 1.53-.74 2.22-1.97l.35.2c-.75 1.3-1.67 2.15-2.61 2.15-1.02 0-1.41-1.35-.76-2.58 0 0 .57-1.17 1.92-3.47ZM24.65 28.5c.26-1.34 1.28-3.5 3.3-3.5.69 0 1.05.71 1.05 1.38 0 .54-.32 1.13-.91 2.23-.14.25-.3.53-.46.85l-.26.51C26.18 32.34 22.84 39 17.25 39 15.04 39 14 37.79 14 36.07c0-1.7 1.6-2.66 3.25-2.66S20 35 20 35.5l-.15-.2c-.39-.53-.95-1.29-2.44-1.29-1.69 0-2.77 1.11-2.77 2.28 0 1.17.84 2.3 2.61 2.3s4.43-1.08 6.48-4.14a32.46 32.46 0 0 0 2.4-4.17l.13-.27h-.6c-.36 0-1-.33-1-1.5Zm1.24.78c.44.2 1.26-.5 1.82-1.55.56-1.06.65-2.08.2-2.28-.44-.2-1.25.5-1.81 1.55-.56 1.06-.66 2.08-.21 2.28Z" fill="#102694"/></svg>