<svg width="56" height="56" viewBox="0 0 56 56" xmlns="http://www.w3.org/2000/svg"><path fill="#F0F3FA" d="M0 0h56v56H0z"/><path d="M44.99 26.29h-3.13c0-.32-.18-.93-1.14-.93-1.56 0-2.02 1.92-2.02 2.9 0 1 .28 1.74 1.24 1.74.77 0 1.15-.49 1.25-.68h3.12c-.24.57-1.28 2.68-4.62 2.68S35 30.28 35 28.43c0-1.86 1.14-5.43 5.72-5.43 3.67 0 4.38 2.2 4.27 3.29Z" fill="#243C82"/><path d="M30.1 39c10.03 0 16.78-4.24 18.9-6.36h-.45C46.95 34.33 41.16 37 30.83 37c-15.48 0-20.33-5.29-20.33-9.03 0-7.2 13.11-9.33 20.01-9.49l1.82-.48H28.7C15.76 18 7 22.67 7 28.62 7 34.57 17.56 39 30.1 39Z" fill="#92B0D4"/><path d="M31.51 23H35l-1.51 9H30l1.51-9ZM24.52 24.76c-.2-.9-.78-1.76-2.21-1.76-1.2 0-2.07.55-2.65 1.21l.2-1.21h-3.31L15 32h3.3l1.05-6c.15-.3.5-.7 1.07-.7.88 0 .81.68.74 1.23a.1.1 0 0 0 .01.06L20.26 32h3.3l1-5.89c.11-.3.46-.81 1.12-.81.86 0 .9.65.85 1.2L25.5 32h3.3l1.05-5.67c.44-1.63-.09-3.33-2.3-3.33-1.52 0-2.5.89-3.04 1.76Z" fill="#243C82"/><circle cx="32" cy="19" fill="#4EA74A" r="2"/><circle cx="31.5" cy="19.5" fill="#fff" r=".5"/><circle cx="35" cy="19" fill="#DB2825" r="2"/><path d="M35.5 17a2 2 0 1 1-4 0 2 2 0 0 1 4 0Z" fill="#263B7F"/><path d="M33.5 20.32a2 2 0 0 0 0-2.64 2 2 0 0 0 0 2.64Z" fill="#FFEA00"/><path d="M33 18.94a2 2 0 0 1 2.5-1.88 2 2 0 0 1-2.5 1.88Z" fill="#B4A0AC"/><path d="M31.5 17.06a2 2 0 0 1 2.5 1.88 2 2 0 0 1-2.5-1.88Z" fill="#037FBC"/><path d="M33.76 18.98a2.01 2.01 0 0 1-.76-.04 2 2 0 0 1 .5-1.26 2 2 0 0 1 .5 1.26 1.97 1.97 0 0 1-.24.04Z" fill="#fff"/><circle cx="35.5" cy="19.5" fill="#fff" r=".5"/><circle cx="33.5" cy="16.5" fill="#fff" r=".5"/></svg>