<svg width="56" height="56" xmlns="http://www.w3.org/2000/svg"><path fill="#2E3094" d="M0 0h56v56H0z"/><path d="M47 26h1v4h-1v-4zm-5 0h1l2 2.358V26h1v4h-1l-2-2.316V30h-1v-4zm-2.405 2.654L39 27l-.564 1.654h1.159zm.21.917h-1.66l-.203.429H37l1.436-4h1.159L41 30h-1.022l-.173-.43zM32 26h1v1.5h2V26h1v4h-1v-1.5h-2V30h-1v-4zm-4 1v2c1.161 0 1.993-.03 2-1 .007-.97-.774-1-2-1zm-1-1h1.848c1.336 0 2.124.711 2.152 2.103.028 1.392-.841 1.897-2.152 1.897H27v-4zm-2 0h1v4h-1v-4zm-6 0h1.63l.876 2.55.905-2.55H24v4h-1v-3.067L22 30h-1l-1-3.067V30h-1v-4zm5-10h4v8h-4v-2.785l-4.035 2.922L16 20.968V24h-3.17l3.681 4.07-3.68 3.93H16v2.903L19.965 32 24 35.256V32h4v8h-4.5l-3.535-3.513L16 40l-4-.039V35.99H8v-4.633l3.592-3.513L8.016 24 8 20h4v-4h4l3.965 3.67L24 16z" fill="#fff"/></svg>