<svg xmlns="http://www.w3.org/2000/svg" width="56" height="56"><path fill="#019DD8" d="M0 0h56v56H0z"/><path fill="#fff" d="M18 23h3v11h-3zM5.2 34l1-11h3.67l.81 6.69.82-6.69h3.7l1 11h-3l-.28-6.14-.75 6.14H9.2l-.73-5.93L8.2 34h-3zM23 23h3l2 5.55v-5.5h3V34h-3l-2-5.11V34h-3V23z"/><path fill-rule="evenodd" d="M36 23h-3v11h3c3.11 0 5-2.6 5-5.5S39.11 23 36 23zm1.7 5.47c0-.61 0-3.47-2-3.47v7c2 0 2-2.91 2-3.48v-.05zM44.02 23L41.2 34h3.07l.43-2h2.57l.43 2h3.07l-2.75-11h-4zm2.82 7l-.85-3.96-.86 3.96h1.7z" fill="#fff"/></svg>