<svg width="56" height="56" viewBox="0 0 56 56" xmlns="http://www.w3.org/2000/svg"><path fill="#03304F" d="M0 0h56v56H0z"/><path d="M51 32.01c-8.54-.3-25.56 5.45-33 8.35.41.2 1.56.82 2.84 1.64 7.54-5.6 25.04-9.1 30.16-9.99Z" fill="#ED2121"/><path d="m44.54 20 .23 4h-.23c-.43-1.68-1.41-3.4-3.34-3.4-2.87 0-3.7 3.33-3.7 5.6 0 2.34 1.16 4.8 3.92 4.8 1.6 0 2.55-.85 3.35-2.12l.23.17c-.83 1.69-2.16 2.95-4.14 2.95C37.7 32 36 29.05 36 26.18c0-2.94 1.82-6.18 5.09-6.18.72 0 1.43.2 2.13.6.21.13.36.2.45.2.13 0 .24-.06.34-.17.13-.15.22-.36.27-.63h.26Z" fill="#FFFCFF"/><path d="M41 38c-4.8-3.62-6.75-7.06-10.3-12h-1.2v3.92c0 .76 0 1.76 1 1.76h.38V32h-4.26v-.32h.36c1 0 1.02-1 1.02-1.76v-7.84c0-.77 0-1.76-1.02-1.76h-.36V20h3.5c2 0 3.88.66 3.88 3.03 0 1.36-.72 2.36-2.06 2.73C34.37 30.2 37.5 34 41 38ZM29.5 25.44h.4c1.56 0 2.6-.68 2.6-2.3 0-1.22-.54-2.48-1.9-2.48-.26 0-.63.06-1.1.17v4.61ZM25.84 31.67V32h-4.18v-.33c1.2 0 1.34-.69 1.34-1.8v-7.75c0-1.1-.12-1.8-1.34-1.8V20h4.18v.33c-1.2 0-1.34.69-1.34 1.8v7.75c0 1.11.12 1.8 1.34 1.8ZM14 32l-4-10.1v8.02c0 .83.03 1.75 1.07 1.75h.36V32H7.91v-.33h.36c1.03 0 1.07-.94 1.07-1.75v-7.84c0-1.07-.17-1.75-1.34-1.75V20h2.86l3.67 9.39 3.6-9.39h2.8v.33c-1.2 0-1.43.6-1.43 1.75v7.84c0 .83.04 1.75 1.08 1.75h.35V32h-4.36v-.33h.36c1.03 0 1.07-.94 1.07-1.75V21.9L14.24 32h-.25Z" fill="#FFFCFF"/></svg>