<svg xmlns="http://www.w3.org/2000/svg" width="56" height="56"><path fill="#F0F3FA" d="M0 0h56v56H0z"/><path d="M39.16 20h-5.9L24.5 38h1.38l7.82-16h6.33l-.87-2z" fill="#1C1B18"/><path d="M28.33 38H26.9l7.35-15h6.27l.92 2H34.6l-6.27 13z" fill="#1C1B18"/><path d="M30.64 38h-1.26l5.72-12h6.67l5.12 12h-1.08l-4.4-10h-1.08l4.4 10h-1.3l-4.4-10H38l4.4 10h-1.2l-4.4-10a1.8 1.8 0 00-1.65 1c-1.57 2.97-3 6-4.5 9z" fill="#1C1B18"/><path d="M36 28c0 7.19-5.74 13-13 13-3.2 0-6.1-1.13-8.34-3h.84L22 25h6.02l-.89-2h-5.38l-7.43 14.71c-.25-.22-.5-.46-.73-.7L21.13 22h5.53l-.89-2h-4.94L12.8 36.1A12.99 12.99 0 0110 28c0-7.19 5.74-13 13-13 5.07 0 9.4 2.84 11.55 7h1.1a14 14 0 101.2 4h-1c.1.65.15 1.32.15 2zm-.34-3h1.02c-.15-.69-.35-1.35-.6-2h-1.06c.26.64.48 1.31.64 2zm-13.03 1h5.75l.89 2h-6.36L17.8 38h-1.31l6.14-12z" fill="#1C1B18"/></svg>