<svg width="56" height="56" viewBox="0 0 56 56" xmlns="http://www.w3.org/2000/svg"><path fill="#F0F3FA" d="M0 0h56v56H0z"/><path d="M38 29.85c0-9.12-9.33-17.5-14-20.85 2.85 2.61 6.28 5.89 6.28 10.7 0 7.17-4.28 9.28-4.28 12.7s2.83 5.6 5.85 5.6c3.02 0 6.15-3.58 6.15-8.15Z" fill="#FFD403"/><path d="M25.1 9.82c2.43 2.15 5.9 6.13 5.9 10.94 0 3.34-1.36 5.7-2.48 7.7C27.7 29.88 27 31.12 27 32.4c0 2.34 1.33 4.8 4.74 5.6-2.98-.05-5.74-2.23-5.74-5.6 0-1.4.51-2.58 1.4-3.97 1.3-2.02 2.6-4.5 2.6-8.73 0-4.77-3.09-8.03-5.93-10.63v-.02l1.03.77Z" fill="#FABB19"/><path d="M22.6 9c1.96 2.2 5.86 7.58 5.86 11.55 0 4.95-4.75 7.27-4.75 12.3 0 5.02 3.26 8.42 8.46 8.42 4.98 0 7.66-4.3 7.82-7C39.91 36.77 38.84 45 28.46 45 22.26 45 16 39.2 16 32.84c0-7.6 9-10.52 9-17.21 0-2.29-1.44-5.37-2.4-6.63Z" fill="#0E763E"/><path d="M23.64 10.24c2.04 2.6 4.86 6.96 4.86 10.3 0 2.47-1.22 4.29-2.4 6.1-1.19 1.84-2.1 3.68-2.1 6.2 0 5.03 2.97 8.43 8.17 8.43 1.1 0 2.1-.22 2.97-.57-1.29.68-3.2 1.3-5.77 1.3C23.9 42 21 36.7 21 32.3c0-2.08 1.08-3.85 2.5-5.72 1.6-2.09 3.5-4.29 3.5-7.17 0-3.58-2.13-7.31-3.36-9.17Z" fill="#138E46"/></svg>