<svg width="56" height="56" viewBox="0 0 56 56" xmlns="http://www.w3.org/2000/svg"><path fill="#F0F3FA" d="M0 0h56v56H0z"/><path d="M21.25 43.66a15.97 15.97 0 0 0 5.72 1.31 18.6 18.6 0 0 0 4.07-.22 16.54 16.54 0 0 0 3.74-1.1 16.73 16.73 0 0 0 5.09-3.48c.7-.69 1.33-1.42 1.92-2.2a16.41 16.41 0 0 0 2.32-4.4c.3-.87.51-1.74.65-2.61a18.48 18.48 0 0 0-.03-6.13 15.93 15.93 0 0 0-3.05-6.95 19.03 19.03 0 0 0-4.22-4.04 15.6 15.6 0 0 0-7.22-2.7 19.22 19.22 0 0 0-6.13.27 15.88 15.88 0 0 0-7.71 4.15 22.64 22.64 0 0 0-2.32 2.63 16.1 16.1 0 0 0-2.9 7.23 19.25 19.25 0 0 0 .2 6.3 15.9 15.9 0 0 0 2.93 6.38 19.69 19.69 0 0 0 2.68 2.86 16.02 16.02 0 0 0 4.26 2.7Zm19.48-23.18a13.64 13.64 0 0 1 1.81 5.82c.09.97.09 1.96 0 2.98a14.37 14.37 0 0 1-1.58 5.37 15.74 15.74 0 0 1-5.16 5.63 13.56 13.56 0 0 1-6.32 2.19 15.54 15.54 0 0 1-4.08-.15 13.53 13.53 0 0 1-4.85-1.8A14.98 14.98 0 0 1 17.44 38a15.18 15.18 0 0 1-1.91-2.44 13.86 13.86 0 0 1-2.05-5.84 17.07 17.07 0 0 1 .16-4.94 13.57 13.57 0 0 1 1.21-3.6 14.73 14.73 0 0 1 3.32-4.33 14.9 14.9 0 0 1 3.45-2.4 10.98 10.98 0 0 1 3.2-1.1 18.03 18.03 0 0 1 2.52-.3 20.98 20.98 0 0 1 2.32.07 14.67 14.67 0 0 1 2.88.6c1.4.45 2.71 1.13 3.92 2.02a15.95 15.95 0 0 1 4.27 4.74Zm-9.25 6.5v-4.04L35 27.46h.03l3-3.6h.01c.18.37.33.76.46 1.16.3.94.54 1.9.51 2.9-.1 3-1.8 5.77-3.63 8.05-.01.01 0 .02.01.02h2.73c.02 0 .03 0 .03-.02.47-.68.9-1.38 1.28-2.11a15.22 15.22 0 0 0 1.41-4.15c.21-1.23.23-2.47.04-3.7-.17-1.11-.5-2.22-1-3.32a17.05 17.05 0 0 0-1.74-3.02h-.01L34.87 24h-.01l-5.8-8.94A.9.9 0 0 0 29 15H29v12h2.46l.02-.01Zm-6.97-4.04-3.5 4.53H21l-3-3.6h-.01a8.77 8.77 0 0 0-.98 4.16c.13 2.97 1.8 5.7 3.64 7.96V36H17.86c-.59-.84-1.1-1.71-1.53-2.62a14.85 14.85 0 0 1-1.25-4.1 11.48 11.48 0 0 1-.08-1.97c.05-1.15.26-2.29.63-3.4a14.92 14.92 0 0 1 2.25-4.24L21.13 24h.02l5.83-8.98c.01-.03.02-.02.02 0V27h-.02l-2.43.01c-.02 0-.03 0-.03-.02v-4.04c0-.02 0-.02 0 0ZM30 35.97v-2.82c.73.06 1.18.2 1.85.4l.06.02a5.78 5.78 0 0 1 1.89.92l1.49-1.86v-.02a10.06 10.06 0 0 0-6.13-2.26 5.21 5.21 0 0 0-.5-.01 27.56 27.56 0 0 0-.87.01 17.52 17.52 0 0 0-3.56.61l.7 2.18.02.02h.02a23.83 23.83 0 0 1 2.03-.08v7.9c0 .02 0 .02.02.02h2.96l.02-.01V38h2.98l.02-.02v-1.92l-.02-.06H30v-.02Z"/></svg>