<svg width="56" height="56" viewBox="0 0 56 56" xmlns="http://www.w3.org/2000/svg"><path fill="#F0F3FA" d="M0 0h56v56H0z"/><path d="M6.64 23.3 4 32.99l2.9.02 1.62-6.7 2.83 5.6a2 2 0 0 0 3.6-.05l2.62-5.55 1.76 6.7h4.42l1.71-6.7 2.78 5.63a1.9 1.9 0 0 0 3.42 0l2.76-5.63 1.7 6.7H42v-3h5.98C50.2 30 52 28.43 52 26.19S50.2 22 47.98 22h-4.7c.14.15.43.76.43 1.45s-.3 1.32-.44 1.55h4.46c.7 0 1.27.3 1.27 1s-.58 1-1.27 1H39v5.03l-2.66-8.73a1.66 1.66 0 0 0-3.08-.27l-3.24 6.5-3.52-6.64a1.66 1.66 0 0 0-3.07.32l-1.96 6.91-1.88-6.8a1.66 1.66 0 0 0-3.08-.31l-3.35 6.52-3.44-6.56a1.66 1.66 0 0 0-3.08.34Z" fill="#004481"/><circle cx="40.5" cy="23.5" r="2.5" fill="#838280"/></svg>