<svg width="56" height="56" viewBox="0 0 56 56" xmlns="http://www.w3.org/2000/svg"><path fill="#F0F3FA" d="M0 0h56v56H0z"/><path fill-rule="evenodd" d="M11 40V16h34v24H11Zm13-22L13 38h30L32 18l-4 6-4-6Zm4 6 3.55 7.05c.3.6.45 1.27.45 1.95 0 2.21-2.06 4-4 4h-.03A4.15 4.15 0 0 1 24 33.04c0-.7.16-1.4.48-2L28 24Zm-.57 6.04c-.56.1-1.07.37-1.47.74.23.23.74.58 1.47.7v-1.44Zm-1.92 1.26a3 3 0 0 0-.51 1.33h2.43v-.46a3.45 3.45 0 0 1-1.92-.87Zm-.49 2.21a3 3 0 0 0 .45 1.13c.34-.35 1.02-.8 1.96-.91v-.22h-2.4Zm.89 1.67c.41.4.94.67 1.52.78v-1.54c-.79.13-1.31.53-1.52.76Zm2.4.82a3.01 3.01 0 0 0 1.68-.73 2.82 2.82 0 0 0-1.67-.86V36Zm2.14-1.24a3 3 0 0 0 .53-1.25h-2.66v.2c1.02.12 1.76.66 2.13 1.05Zm.55-2.13a3 3 0 0 0-.59-1.45c-.38.4-1.1.9-2.1 1v.45H31Zm-1.07-1.95c-.27.29-.83.7-1.61.8V30c.6.06 1.17.3 1.61.68Z" fill="#0067B3"/></svg>