<svg xmlns="http://www.w3.org/2000/svg" width="56" height="56"><path fill="#2E3192" d="M0 0h56v56H0z"/><path d="M28 12c6.61 0 12.09 4.7 13 11H15c.91-6.3 6.39-11 13-11zM16.06 31.54c0-.54.76-.54 1.12-.54h1.32v1.19c-.23 1.12-2.44.97-2.44-.16v-.5zm4.23-6.5v.17c0 .84 1.62 1.82 2.64 1.82h.24c1.98 0 3.28-2.38 2.08-2.38h-.08c-.45 0-.84 1.35-2 1.35h-.24c-1.33 0-1.51-1.35-2.16-1.35h-.08c-.18 0-.4.21-.4.4zM26 31.09c1.22 0 3.02-.56 3.02-1.75 0-.32.23-.32.63-.33h.1c.11.02.25.12.25.49v2.7c0 .8-3.65 1.6-4-.84v-.27zM21 29v.49c0 .21 0 .51-.35.51H19.5v-1H21zm-5.66-.54c0 .37.31.54.72.54h2.44v1h-1.8c-2.59 0-2.06 4 .48 4h.56c.95 0 1.76-.87 1.76-1.9V31H21v2.66c.04.97.08 1.34.47 1.34.4 0 .53-.24.53-1.54v-3.9c0-.69.2-.56.53-.56H23v5.14c0 .67.17.86.5.86.5 0 .5-.38.5-1.77V29c1 .01 3.1-.14 3.53.33.24.26.1.4-.16.58-.21.14-1.37.21-1.76.21L25 30v.28c0 1.97.45 3.72 3.14 3.72.7 0 1.44-.42 1.86-.7v1.05c0 .48.17.65.52.65s.48-.21.48-1.63v-4.36l6.55-.01c.2-.01.45 0 .45.17v.64c0 .24-.87.6-1.08.71a2.3 2.3 0 00-1.84-1.11h-.64c-1.27 0-2.07 1.21-2.07 2.4 0 1.93 1.49 3.19 3.43 3.19.49 0 .78-.11.84-.44 0-.25.02-.5-.62-.57-.46 0-.78.04-1.22-.14-.6-.22-1.37-1.13-1.37-1.9v-.4c0-.68.73-1.11 1.18-1.11h.4c.4 0 .79.31.87.71-.24.37-.56.3-.56.8 0 1.55 2.18-.35 2.68-.48v2.54c0 .66.13.99.52.99.43 0 .47-.4.48-1.15.02-1.69 0-3.16 0-4.85.14.06 2 .2 2-.52 0-.48-.32-.48-.8-.48H15.98c-.36 0-.64.13-.64.46z" fill="#fff"/><path fill-rule="evenodd" d="M28.5 43a2.5 2.5 0 100-5 2.5 2.5 0 000 5zm0 1a3.5 3.5 0 100-7 3.5 3.5 0 000 7z" fill="#fff"/><rect x="33" y="37" width="1" height="7" rx=".5" fill="#fff"/><rect x="16" y="37" width="1" height="7" rx=".5" fill="#fff"/><rect x="23" y="37" width="1" height="7" rx=".5" fill="#fff"/><path d="M23.57 37c.29.1.42.44.26.7l-3.38 5.98a.5.5 0 01-.04.06.5.5 0 01-.86 0L16.2 37.7a.5.5 0 01.86-.48l2.93 5.28 2.99-5.28a.5.5 0 01.59-.22zm11.93 0a.5.5 0 00-.5.5v6c0 .28.22.5.5.5h4a.5.5 0 000-1H36v-5.5a.5.5 0 00-.5-.5z" fill="#fff"/></svg>