<svg xmlns="http://www.w3.org/2000/svg" width="56" height="56" viewBox="0 0 56 56"><path fill="#F0F3FA" d="M0 0h56v56H0z"/><path d="M36.91 32.48A10.7 10.7 0 0 1 33.67 35H45l.99-4h-5.12l2.44-10h-6.36c.21.14.42.3.62.47 2.81 2.48 2.52 7.4-.67 11.01zm-10.85 2.05c.2.17.4.33.62.47h-6.55L22 29.03 17.66 35h-3.03l-.96-5.97L12.01 35H8l3.32-14h5.43l.7 6.27L22 21h7.97a10.7 10.7 0 0 0-3.25 2.52c-3.18 3.6-3.47 8.53-.66 11zm4.45-3.12c1.17.48 2.75-.67 3.52-2.57s.45-3.82-.73-4.3c-1.17-.48-2.75.68-3.52 2.57-.77 1.9-.45 3.83.73 4.3z" fill="#113977"/><path d="M28.42 35.73a28.63 28.63 0 0 0 3.41-8.65c.58-2.66 1-5.27 1.24-6.75l.12-.75a2.59 2.59 0 0 1-.37-1.07c.01-.13.1-.34.21-.6.2-.5.48-1.14.35-1.61.4.6 1.01 2.1.17 3.28l-.17.1a48.98 48.98 0 0 1-.87 6.1c.27-.56.75-.75 1.24-.84.29-.06.74-.33 1.14-.57.25-.16.49-.3.64-.36-.11 1.23-1.47 3-3.16 2.44-.8 3.66-2.04 7.43-3.7 9.73h-.5l.25-.45zm5.05-13.52c1.45.25 2.27-1.38 2.17-2.38l-.45.38c-.27.25-.59.53-.8.62-.44.17-.83.44-.9 1.1l-.02.28zm-2.8-2.37c.05.81.53 2.41 2 2.3v-.28c0-.67-.37-.97-.8-1.18-.33-.17-.94-.63-1.2-.84zm.98 6.24c-1.83.15-2.43-1.85-2.5-2.87.32.26 1.1.83 1.51 1.05.53.27 1 .64 1 1.48v.34zm-.9 3.92c-2.02.17-2.7-2.06-2.78-3.19.37.29 1.23.93 1.7 1.17.57.3 1.09.7 1.09 1.63V30zm-1.6 3.68c-2.07.18-2.75-2.3-2.83-3.55.37.32 1.24 1.03 1.71 1.3.6.33 1.11.79 1.11 1.82v.43zM34.08 32c-.29 1.27-2.26 3.29-4 2.18l.2-.38c.47-.92 1.14-1.09 1.82-1.11.33-.01.8-.22 1.24-.4.29-.13.55-.24.74-.29zm-2.61-1.64c1.9.72 3.16-1.23 3.55-2.3-.43.18-1.43.56-1.94.66-.64.12-1.25.38-1.5 1.27l-.11.37zM29.5 20h-18v-1h18v1zM27.5 37H8v-1h19.5v1zM48 20H36.5v-1H48v1zM44.5 37h-15v-1h15v1z" fill="#1CA728"/></svg>