<svg xmlns="http://www.w3.org/2000/svg" width="56" height="56" viewBox="0 0 56 56"><path fill="#242F6D" d="M0 0h56v56H0z"/><path d="M8.78 33.7l14.04-19.18L46.87 33.7H14.95l5.5-5.64c.09-.09.22-.03.22.1 0 .02 0 .04-.02.07l-2.1 3.24a.4.4 0 0 0 .08.52c.15.11.36.09.48-.06l2.95-3.48a.13.13 0 0 1 .19 0c.04.04.05.1.02.16l-1.75 3.42c-.1.2-.04.44.14.56.15.1.34.09.46-.04.25-.23.6-.61.92-1.05a4.8 4.8 0 0 1 1.54-1.25c-.43 1.03-.9 3.08.69 3.08 1.58 0 4.48-2.66 5.73-3.99l-.4-.3a8.9 8.9 0 0 1-1.76 1.4c-2.3 1.19-2.64.87-2.76.75-.13-.12-.35-1.26 2.2-3.81 2.03-2.04 5.32-2.84 6.72-3-4.9-1.45-8.77 2.64-10 5.13-.08-.29-.65-.12-.99 0 .1-.2.23-.42.37-.66.84-1.51 2.05-3.67 1.7-3.8-.62-.2-1.24.29-1.66.81l-.36.36c-.07.07-.19-.02-.14-.11.4-.83.66-1.7.3-2-.34-.27-3.1 2.53-4.52 4.09a.13.13 0 0 1-.1.04c-.1 0-.17-.12-.12-.22 1.76-2.98 1.53-3.6 1.18-3.54-.99.18-4.38 2.3-6.19 3.51a.35.35 0 0 0-.14.36c.04.23.3.35.49.23 1.42-.9 3.66-2.18 3.75-1.69.09.54-.83 2.42-1.3 3.3l-2.03 3.51H8.78zm14.36-20.55a.67.67 0 0 0-.97.13L7.15 33.67c-.36.48-.03 1.33.55 1.33h40.52c.75 0 1.07-1 .47-1.48L23.14 13.15z" fill="#EAEDE8"/></svg>