<svg xmlns="http://www.w3.org/2000/svg" width="56" height="56"><path fill="#00AEEE" d="M0 0h56v56H0z"/><path d="M31 22.52v.5h-4V26h2v-1h4v-.83l-2-1.65zM31 27v-.42l2 1.66V29h-4v1h-2v-3h4zm0 4v-.29l2 1.66V33h-4.5L27 31h4zm11.4-8.46V23h-4v3h2v-1h4v-.8l-2-1.66zm0 4.46v-.42l2 1.66V29h-4v1h-2v-3h4zm0 4v-.28l2 1.66V33h-4.5l-1.5-2h4zM9.3 23l1.76 1.48 1.25 8.45-.6.05-1.72-1.5.51-.04L9.3 23zm-2.99 1.81l.89 5.25-.95 2.87-.51.05L4 31.48l.53-.04 1.78-6.63zm3.75 5.3L9 24.26l-1.49 7.21-.51.03L8.72 33l.6-.05.74-2.84zm-3.61-7.08l1.01 6.18 1.04-4.65-2.05-1.53zm15.05-.41v5.75c.64.08 1.51-.16 2-.74v-2.9l.54.26c-.28-1.33-1.24-2.37-2.54-2.37zm.91 6.23c.57-.06 3.54-1.93 1.54-5.54 1.16.55 3.9 4.6.3 7.21L26 33h-.6l-1.6-1.71h.52l-1.9-2.44zm-.91.04l2 1.84V33h-.71l-1.73-1.89h.44V28.9zm12-.55v-5.78c1.3 0 1.97.42 2.44 1.9h-.44v2.53c-.47.58-1.36 1.26-2 1.35zm2.37-5.16c2.81 2.15 3.05 6.69-.37 7.5V33h-.78L33 31.1h.5v-2.14c3.14-1.28 3.53-3.31 2.37-5.78zM45 23l2 4.37V33h-.61l-1.85-1.82H45V23zm4 0l2 1.55V33h-.68l-1.96-1.82H49V23zm-.28 7.22L45.38 23l1.1 1.14 2.25 4.45-.01 1.63zm-34.83.02c-5.05-4.2 1.96-10.7 4.7-5.01l-.53-.23c-2-.89-5.04 1.38-4.32 4.64l.15.6zm4.23-6.54c7.15 5.87-1.3 13.93-5.53 5.97l.5.46c2.96 2.94 8.4-1 5.24-6l-.21-.43z" fill="#fff"/></svg>