<svg width="56" height="56" xmlns="http://www.w3.org/2000/svg"><path fill="#DA2020" d="M0 0h56v56H0z"/><path d="M36.255 13.03a3.614 3.614 0 00-1.566 1.32c-.384.582-.681 1.263-.689 1.96V40h3.833A2.17 2.17 0 0040 37.825V11l-3.745 2.03zm-10.057 7.25a3.623 3.623 0 00-1.566 1.32c-.384.581-.621 1.262-.63 1.96V40h3.873c.575 0 1.127-.23 1.533-.637.407-.408.592-.961.592-1.538V18.25l-3.802 2.03zm-10.032 7.251a3.615 3.615 0 00-1.565 1.32A3.635 3.635 0 0014 30.81V40h4.334C19.531 40 20 39.026 20 37.825V25.5l-3.834 2.03z" fill="#fff"/></svg>