<svg width="56" height="56" viewBox="0 0 56 56" xmlns="http://www.w3.org/2000/svg"><path fill="#F0F3FA" d="M0 0h56v56H0z"/><path d="M10.92 35H6v-1h.35c.9 0 1.65-.65 1.65-1.64V22H6V21h5.24l3.01 9.32 2.9-9.32h5.26v1H20.5v10.96c0 .66.41 1.04 1.01 1.04h.9v1h-6.53v-1h.86c.6 0 1.26-.38 1.26-1.04V21.99L13.7 35h-.8L9 22v10.36c0 1 .66 1.64 1.57 1.64h.35v1Zm24.3-14h-.84c-.05.3-.27 1-.69 1.3a4.43 4.43 0 0 0-3.18-1.3C26.64 21 24 23.95 24 28.06c0 4.1 2.72 6.94 6.08 6.94 2.69 0 3.73-1.56 3.92-2.34L35.1 35H36v-5.28c0-.47.17-.72.63-.72h.79v-.94H31V29h1.45c.45 0 1.05.25 1.05.72v1.79a2.95 2.95 0 0 1-2.99 2.56c-2.73 0-3.49-3-3.51-4.5v-2.5c0-1.65.36-5.15 3.51-5.15 2.52 0 3.78 3.04 4.1 4.56h.75L35.22 21Zm2.9 0v1h1.38c.47 0 1 .38 1 .87V33.3c0 .49-.53.7-1 .7h-1.39v1h7.27v-1h-1.45c-.48 0-.93-.21-.93-.7V28h.8a2.3 2.3 0 0 1 2.27 2.36v.55h.95V24h-.95v.65A2.3 2.3 0 0 1 43.8 27H43v-4.13c0-.5.45-.9.93-.9h2.5c1.57 0 2.57 1.34 2.57 3V26h1v-5H38.11Z" fill="#2E388F"/></svg>