<svg width="56" height="56" xmlns="http://www.w3.org/2000/svg"><path fill="#F0F3FA" d="M0 0h56v56H0z"/><path d="M37.443 20.656L27.102 10a5.128 5.128 0 00-.163 7.292l6.9 7.084" fill="url(#paint0_linear)"/><path opacity=".64" d="M35.01 18.122l2.434 2.534-3.6 3.72-2.511-2.607c1.224-1.217 2.448-2.43 3.677-3.647z" fill="url(#paint1_linear)"/><path d="M27.838 30.568l9.606-9.912c2.113 2.189 2.075 5.738-.086 7.885l-5.748 5.69a2.655 2.655 0 01-3.734 0 2.599 2.599 0 01-.038-3.663z" fill="#D61360"/><path d="M18.567 36.173l9.5 9.827a5.128 5.128 0 00.163-7.292l-6.063-6.254" fill="url(#paint2_linear)"/><path opacity=".64" d="M21 38.708l-2.433-2.535 3.6-3.719 2.51 2.607c-1.224 1.217-2.452 2.43-3.677 3.647z" fill="url(#paint3_linear)"/><path d="M18.653 28.29l6.335-6.278a2.645 2.645 0 013.72 0 2.596 2.596 0 01.038 3.653L18.562 36.174c-2.114-2.195-2.07-5.738.09-7.884z" fill="url(#paint4_linear)"/><defs><linearGradient id="paint0_linear" x1="37.443" y1="17.188" x2="25.496" y2="17.188" gradientUnits="userSpaceOnUse"><stop stop-color="#9055A2"/><stop offset=".186" stop-color="#9D4D98"/><stop offset=".545" stop-color="#BB3182"/><stop offset=".692" stop-color="#C81A78"/></linearGradient><linearGradient id="paint1_linear" x1="33.722" y1="20.551" x2="36.351" y2="23.038" gradientUnits="userSpaceOnUse"><stop stop-color="#B13B8A" stop-opacity="0"/><stop offset="1"/></linearGradient><linearGradient id="paint2_linear" x1="18.567" y1="39.227" x2="29.672" y2="39.227" gradientUnits="userSpaceOnUse"><stop stop-color="#0B9DD4"/><stop offset=".848" stop-color="#A4CE49"/></linearGradient><linearGradient id="paint3_linear" x1="22.286" y1="36.277" x2="19.657" y2="33.79" gradientUnits="userSpaceOnUse"><stop stop-color="#4BB29B" stop-opacity="0"/><stop offset="1"/></linearGradient><linearGradient id="paint4_linear" x1="15.624" y1="35.188" x2="32.801" y2="23.298" gradientUnits="userSpaceOnUse"><stop stop-color="#A7DEEE"/><stop offset="1" stop-color="#0B9DD4"/></linearGradient></defs></svg>