<svg xmlns="http://www.w3.org/2000/svg" width="56" height="56"><path fill="#F0F3FA" d="M0 0h56v56H0z"/><path fill-rule="evenodd" d="M9.83 20L8 35h3.06l1.19-10.2 3.5 10.2h1.62l3.33-10.2L21.98 35H25l-1.94-15H19.2l-2.69 8.68L13.77 20H9.83zM27 20h5.5a4.5 4.5 0 110 9H30v6h-3V20zm3 2.6h2.1a1.9 1.9 0 010 3.8H30v-3.8zm17.13-1.02A5.92 5.92 0 0043 20c-2.74-.02-4.52 2.05-4.5 4.08a4.24 4.24 0 002.99 4.12c1.8.63 3.02 1.52 3.02 2.25 0 .72-.55 1.55-1.85 1.55-.86 0-1.75-.57-2.58-1.45L38 32.82c.55.74 2.26 2.2 4.65 2.18 2.99-.03 4.9-2.44 4.85-4.55-.05-1.8-1.23-3.15-2.8-4-.36-.2-.73-.38-1.09-.55-1.14-.54-2.07-.99-2.11-1.82-.04-.88.97-1.08 1.5-1.08h.02c.52 0 1.3 0 2.25.85l1.86-2.27z" fill="#E7060C"/></svg>