<svg xmlns="http://www.w3.org/2000/svg" width="56" height="56"><path fill="#507726" d="M0 0h56v56H0z"/><path fill-rule="evenodd" d="M10 28a18 18 0 0117.5-18v31.38a4.69 4.69 0 011 0V10a18 18 0 0116.47 24h-12.7c-.12 0-.36-.11-.48-.57L30 19.56V35h14.59l-.46 1H32.9l.33.24c1.3.99 4.37 3.28 5.6 6.13-.39.3-.8.59-1.22.85-1.86-3.9-5.11-5.77-6.52-6.22H30v1.76a8.34 8.34 0 015.67 5.53c-.43.2-.87.39-1.31.55A7.49 7.49 0 0030 40.22v1.58a4.1 4.1 0 012.38 3.68s-.63.16-1.62.3a18.13 18.13 0 01-5.52 0c-.99-.14-1.62-.3-1.62-.3 0-1.6.97-3 2.38-3.68v-1.58a7.57 7.57 0 00-4.36 4.62c-.44-.16-.86-.34-1.28-.54A8.26 8.26 0 0126 38.76V37h-1.06c-1.4.45-4.67 2.32-6.52 6.24-.43-.27-.83-.55-1.23-.85 1.3-3.01 4.54-5.47 5.67-6.32l.1-.07h-11.1a17.8 17.8 0 01-.46-1H26V19.56l-1.92 13.9c-.12.46-.36.54-.5.54H11.04A17.98 17.98 0 0110 28zm12.66 5h-10.8a16.84 16.84 0 01-.64-4.64c0-8.9 6.92-16.22 15.8-17.13L22.67 33zm21.3 0H33.18L28.8 11.23c8.89.9 15.81 8.23 15.81 17.13 0 1.6-.22 3.16-.64 4.64z" fill="#fff"/></svg>