<svg width="56" height="56" viewBox="0 0 56 56" xmlns="http://www.w3.org/2000/svg"><path fill="#F0F3FA" d="M0 0h56v56H0z"/><path d="M8 25v7h2v-5l3.5 5h2l3.5-5v5h2v-7h-3l-3.5 5-3.5-5H8ZM34 25h7c1.46 0 3 .89 3 2.5 0 1.61-1.54 2.5-3 2.5h-5v2h-2v-7Zm2 3h5c.3 0 1-.08 1-.5s-.7-.5-1-.5h-5v1Z" fill="#383785"/><path d="M41 23c0 .4.5 1 1 1h6c0-1.6-1.33-2-2-2h-4c-.5 0-1 .5-1 1Z" fill="#A52827"/><path d="M46 28v-4h2v4c0 .33-.2 1-1 1s-1-.67-1-1Z" fill="#E51D27"/><path d="M23 27c0-1.3 1.23-2 2.5-2h5c1.4 0 2.5 1.1 2.5 2.5h-2c0-.03 0-.1-.03-.17-.07-.24-.22-.33-.47-.33h-5c-.28 0-.43.06-.5.1.03.49.58.4 1 .4h4c.45 0 1.12.1 1.73.42A2.3 2.3 0 0 1 33 30c0 1.05-.95 2-2 2h-6.5c-1.3 0-2-1.23-2-2.5h2c0 .29.06.44.1.5h6.36c.06-.04.04-.11 0-.17-.19-.27-.67-.33-.96-.33h-4c-1.6 0-3-.74-3-2.5Z" fill="#383785"/></svg>