<svg xmlns="http://www.w3.org/2000/svg" width="56" height="56" viewBox="0 0 56 56"><path fill="#F0F3FA" d="M0 0h56v56H0z"/><path fill-rule="evenodd" d="M33.77 21.15c0 .86-.82 1.62-2.08 2.09.28.38.63.97.92 1.7 1.33-.53 2.17-1.33 2.17-2.22 0-.6-.37-1.15-1.01-1.61v.04zm-4.63 2.58a8.95 8.95 0 0 0 1.85-.27c.25.39.58 1 .85 1.75-.8.23-1.72.37-2.7.4v-1.88zm-.84 0a9.08 9.08 0 0 1-1.64-.22 9.5 9.5 0 0 0-.84 1.76c.75.2 1.59.32 2.48.35v-1.9zm0 2.76c-.98-.02-1.91-.15-2.75-.35-.1.44-.18.9-.2 1.36h2.95v-1zm0 2.01h-2.92c.05.45.14.9.25 1.33.81-.2 1.72-.31 2.67-.34v-.99zm.84 1v-1h3.17c-.05.47-.15.94-.27 1.39-.87-.23-1.86-.37-2.9-.4zm-.84.87c-.86.03-1.68.14-2.4.33.22.64.47 1.21.68 1.64.53-.13 1.11-.2 1.72-.23v-1.74zm.84 1.74v-1.74c.95.03 1.85.17 2.63.39-.23.65-.48 1.22-.7 1.64a8.88 8.88 0 0 0-1.93-.3zm0-4.61v-1c1.07-.04 2.09-.18 2.98-.42.12.45.2.93.22 1.42h-3.2zm5.76 1h-1.77a8.38 8.38 0 0 1-.32 1.62c1.75.6 2.89 1.6 2.89 2.7 0 .93-.77 1.76-2.02 2.36-.45 1.2-2.5 2.1-4.96 2.1 2.16 0 3.95-.79 4.32-1.83-1.2.45-2.7.72-4.32.72-1.63 0-3.13-.27-4.32-.72.37 1.04 2.16 1.83 4.32 1.83-2.46 0-4.51-.9-4.96-2.1-1.25-.6-2.02-1.43-2.02-2.35 0-1.16 1.24-2.19 3.12-2.79-.14-.48-.25-1-.3-1.54h-1.68v-1h1.65c.02-.56.11-1.1.24-1.59-1.83-.6-3.03-1.6-3.03-2.75 0-.9.75-1.73 1.96-2.33.3-1.28 2.44-2.27 5.02-2.27 2.58 0 4.7 1 5.01 2.27 1.22.6 1.97 1.42 1.97 2.33 0 1.1-1.1 2.06-2.8 2.67.14.52.23 1.08.26 1.67h1.74v1zm-1.13 6.19c0-.87-.84-1.65-2.13-2.11.25-.36.57-.9.85-1.59 1.4.54 2.3 1.36 2.3 2.28 0 .6-.39 1.15-1.04 1.62l.02-.2zm-8.6-3.78c-1.53.53-2.52 1.39-2.52 2.36 0 .6.38 1.15 1.03 1.62a1.35 1.35 0 0 1-.01-.2c0-.92.93-1.72 2.33-2.18a8.6 8.6 0 0 1-.84-1.6zm-.12-5.88c.28-.73.62-1.32.9-1.72-1.38-.46-2.28-1.26-2.28-2.16v-.04c-.64.46-1.02 1.01-1.02 1.6 0 .95.94 1.8 2.4 2.32zm3.67-6.47c-2.25 0-4.11.87-4.36 1.99 1.2-.46 2.7-.73 4.36-.73-1.73 0-3.28.34-4.39.9v.09c0 1.24 1.96 2.25 4.39 2.25 2.42 0 4.39-1 4.39-2.25v-.1c-1.11-.55-2.67-.9-4.4-.9 1.66 0 3.17.28 4.37.74-.26-1.12-2.11-2-4.36-2zm4.36 16.72c.02-.07.03-.14.03-.22 0-1.22-1.97-2.21-4.4-2.21-2.42 0-4.38.99-4.38 2.21 0 .08 0 .15.02.22 1.1.55 2.65.9 4.37.9 1.71 0 3.26-.35 4.36-.9z" fill="#837FBC"/><path d="M26.44 12H27v5h17v10.5h-9.12c-.39-3.17-2.91-5.62-5.97-5.62-3.06 0-5.59 2.45-5.98 5.62H12v-.63C12 18.66 18.46 12 26.44 12zm-3.56 16.5H12V39h16v5h1.93C37.7 44 44 37.51 44 29.5v-1h-9.07a6.04 6.04 0 0 1-6.02 5.9 6.04 6.04 0 0 1-6.03-5.9z" fill="#2A3390"/><path d="M26.5 28c0-.83.67-1.5 1.5-1.5h2a1.5 1.5 0 0 1 0 3h-2a1.5 1.5 0 0 1-1.5-1.5z" fill="url(#a5qivc2ci)"/><path d="M32.67 31.4A4.99 4.99 0 0 1 24 28a5 5 0 0 1 10-.25v.5h-3v-.5h2.5a4.5 4.5 0 1 0-1.21 3.32l-.08-.06.63-.27-.1.72-.07-.06z" fill="#2A3392"/><rect x="29.52" y="27.86" width="1.15" height=".18" rx=".09" fill="#fff"/><path fill-rule="evenodd" d="M28 13h4v.46h-.28v2.86h-.35V15h-.7V15.48c0 .18-.2.27-.3.15l-.15-.15c-.1-.1-.18-.23-.24-.36l-.05-.08c-.06-.14.02-.3.16-.3h.22v-1.28h-.68v1.42c0 .27-.15.5-.35.5-.17 0-.25-.05-.28-.08v-.5l.08.11c.03.03.06.04.1.04.07 0 .13-.07.13-.15v-1.34h-.62v1.6c0 .14.06.27.15.34l.74.59c.24.19.3.57.14.85l-.1.16-.24-.28.06-.1c.05-.1.03-.22-.05-.28l-.88-.7a.43.43 0 0 1-.15-.34v-1.84H28V13zm2.67.46h.7v1.26h-.7v-1.26zM32.3 13h4v.46H36v2.86h-.34v-1.43h-.71l-.15.1c.1.21.36.72.68 1.05l-.21.37a4.99 4.99 0 0 1-1.05-1.99l.26-.21c0 .1.06.32.23.36.17.03.15-.4.13-.62l-.14-.5H34v1.47c0 .27-.14.5-.34.5a.45.45 0 0 1-.29-.08v-.51l.1.12c.03.03.06.04.1.04.07 0 .13-.07.13-.16v-1.37H33v1.6c0 .14.03.27.13.34l.7.59c.24.19.3.57.14.85l-.09.16-.23-.28.05-.1c.05-.1.03-.22-.04-.28l-.86-.7a.44.44 0 0 1-.14-.34v-1.84h-.35V13zm2.72.46h.63v1.04h-.53a2.8 2.8 0 0 0-.1-1.04zM38.77 13c-.1-.2-.12-.42.09-.5.3-.13.45.22.53.5h-.62zm-.36 0l-.03-.1c-.06-.29-.03-.85.58-.85.5 0 .72.54.8.95h.3v.43h-.27v2.9h-.37v-2.9h-.58v1.1h-.67c-.12 0-.37.15-.37.57 0 .52.4.7.57.7.16 0 .36-.04.61-.3v.48c-.1.07-.35.22-.61.22-.34 0-.91-.36-.91-1.1 0-.75.46-.97.71-.97h.3v-.7h-1.32V13h1.26zM42.6 13c-.08-.2-.11-.42.1-.5.3-.13.45.22.53.5h-.62zm-.34 0l-.04-.1c-.06-.29-.02-.85.58-.85.5 0 .72.54.8.95h.4v.43h-.37v2.9h-.37v-2.9h-.45v2.9h-.33v-1.35h-.86l-.17.1c.11.2.4.67.76.99l-.24.34c-.4-.34-1.15-1.5-1.15-1.87l.29-.2c0 .1.06.3.25.33.18.03.17-.37.14-.58l-.23-.66h-.68V13h1.67zm.22.43h-.85c.08.22.25.82.2 1.18h.65v-1.18z" fill="#2A3390"/><path d="M13.65 44H13l.6-4h.68l.84 2.69L16 40h.63l.61 4h-.66l-.4-2.46-.76 2.46h-.59l-.75-2.46-.42 2.46zM18.86 40.73c.25-.14.57.18.7.36l.52-.47a1.42 1.42 0 0 0-.99-.61.94.94 0 0 0-1.04.72c-.18.72.73 1.42.95 1.6.21.17.47.46.46.58-.01.12-.05.39-.42.39-.3 0-.52-.34-.6-.5l-.58.39c.36.7.83.76 1.1.8.28.05.93-.13 1.14-.8.17-.54-.18-1-.37-1.15l-.76-.73c-.15-.13-.42-.4-.11-.58zM21.62 40H21v.73h.62V44h.76v-3.27H23V40h-1.38zM26.97 43.28c-.36.44-.9.72-1.51.72-1.08 0-1.96-.9-1.96-2s.88-2 1.96-2c.62 0 1.18.3 1.54.77l-.49.52a1.26 1.26 0 0 0-2.31.71c0 .72.56 1.3 1.26 1.3.43 0 .81-.23 1.04-.56l.47.54z" fill="#293392"/><defs><linearGradient id="a5qivc2ci" x1="29" y1="26.5" x2="29" y2="29.5" gradientUnits="userSpaceOnUse"><stop stop-color="#1E66AF"/><stop offset=".5" stop-color="#273490"/><stop offset="1" stop-color="#1567B2"/></linearGradient></defs></svg>