<svg width="56" height="56" viewBox="0 0 56 56" xmlns="http://www.w3.org/2000/svg"><path fill="#F0F3FA" d="M0 0h56v56H0z"/><path d="M14.49 39c-4.58-1.3-7.94-5.74-7.94-11s3.36-9.7 7.94-11C9.09 17.93 5 22.5 5 28s4.1 10.07 9.49 11Z" fill="#05A499"/><path d="M9 34s.95-8.05 1.34-12h4.85l1.19 7.36L19.1 22h3.51l-.46 3.5h1.28L22.42 34h-2.9l.93-9.02L17.08 34h-2.65l-1.45-9.02L11.93 34H9Zm14.05-12-.38 3h3.7l-.9 9h3.57l1.01-9h3.76l.39-3H23.05Zm6.4 12 .38-3.58 2.7-5.06h1.51L34.7 22h3.25l3.11 12h-3.63L37 32h-4.23l-.87 2h-2.46Zm4.63-5h2.32l-.75-3.64L34.08 29Zm6.84 2.86L38.5 22h7c.62 0 3.49.09 3.49 2.9 0 2.26-2.05 3.55-3.07 3.9.73 0 1.3 1.06 1.48 1.58l1.4 3.62h-4.03c-.2-.48-.73-1.8-1.32-3.2-.59-1.42-1.13-1.82-1.32-1.8h-.75l-.47 2.86ZM41.96 25l-.23 2h2.36c.62 0 1.14-.38 1.2-.9.09-.58-.48-1.1-1.2-1.1h-2.13Z" fill="#292929"/></svg>