<svg width="56" height="56" viewBox="0 0 56 56" xmlns="http://www.w3.org/2000/svg"><path fill="#F0F3FA" d="M0 0h56v56H0z"/><path d="M17.87 36.87 9 28h38l-9.44 9.44a4.7 4.7 0 0 1-2.03-.48l-.3-.17c-.33-.19-.63-.36-1.08-.36-.47 0-.72.16-.98.32l-.18.1c-.33.2-.81.4-1.91.4a4.1 4.1 0 0 1-2.33-.61 2.9 2.9 0 0 0-1.53-.47c-.38 0-.66.07-.9.18-.2.08-.36.2-.52.3a2.82 2.82 0 0 1-1.96.6 5.12 5.12 0 0 1-2.5-.63c-.5-.23-.97-.45-1.56-.45-.53 0-1.04.19-1.46.42l-.45.28Zm.15.15 2.5 2.5c.27.08.54.2.82.33l.21.1c.6.27 1.27.53 2.29.53a2.83 2.83 0 0 0 1.86-.53l.1-.06c.16-.11.33-.22.52-.31.24-.11.52-.18.9-.18.68 0 1.1.23 1.53.47l.16.08c.5.27 1.08.53 2.17.53 1.1 0 1.58-.2 1.91-.39l.18-.1c.26-.17.5-.32.98-.32.37 0 .64.11.92.26l2.3-2.3a4.75 4.75 0 0 1-1.93-.49l-.33-.18a1.8 1.8 0 0 0-.96-.32c-.4 0-.6.13-.86.29l-.2.11c-.36.21-.88.42-2.01.42a4.3 4.3 0 0 1-2.27-.55l-.16-.09a2.69 2.69 0 0 0-1.43-.44c-.35 0-.6.06-.81.16a3.2 3.2 0 0 0-.49.29l-.1.07a3.03 3.03 0 0 1-1.98.56 5.33 5.33 0 0 1-2.38-.55l-.21-.1c-.5-.24-.93-.43-1.47-.43-.48 0-.95.17-1.36.39l-.4.25Zm16.9 3.07a1.52 1.52 0 0 0-.77-.21c-.4 0-.6.12-.86.28l-.2.11c-.36.22-.88.42-2.01.42a4.3 4.3 0 0 1-2.43-.64 2.69 2.69 0 0 0-1.43-.44c-.35 0-.6.06-.81.16-.18.08-.32.18-.49.29l-.1.07a3.03 3.03 0 0 1-1.98.56 5.33 5.33 0 0 1-2.38-.55l-.21-.1-.38-.17 2.62 2.62.35.01a2.83 2.83 0 0 0 1.86-.53l.1-.06c.16-.11.33-.23.52-.31.24-.11.52-.18.9-.18.68 0 1.1.23 1.53.47l.16.08c.5.27 1.08.53 2.17.53.88 0 1.37-.13 1.7-.28l2.13-2.13Zm-2.49 2.48a5.2 5.2 0 0 1-1.35.14 4.3 4.3 0 0 1-2.27-.55l-.16-.09a2.69 2.69 0 0 0-1.43-.44c-.35 0-.6.06-.81.16-.18.08-.32.18-.49.29l-.1.07a3.03 3.03 0 0 1-1.98.56h-.13l1.38 1.38a2.93 2.93 0 0 0 .71-.4c.16-.11.33-.23.52-.31.24-.11.52-.18.9-.18.68 0 1.1.23 1.53.47l.16.08c.44.24.95.47 1.82.52l1.7-1.7Zm-1.9 1.9a4.14 4.14 0 0 1-1.88-.62 2.69 2.69 0 0 0-1.43-.44c-.35 0-.6.06-.81.16-.18.08-.32.18-.49.29l-.1.07c-.17.11-.35.22-.57.32L28 47l2.53-2.53Z" fill="#009DE2"/><path d="M47 28H9L28 9l19 19Z" fill="#C2CEC2"/><path d="M27 33V15l12 18H27Zm-7.45-.17c2.17-1.77 5.67.71 5.96.93-1.36-1.26-4.09-4.72-4.09-8.47 0-4.56 2.87-8.13 4.3-9.34-5.67 2.48-9.3 7.19-9.3 10.86 0 2.94 2.08 5.24 3.13 6.02ZM21 34h13c-.22.47-1.06 1.41-2.65 1.41-1.05 0-1.72-.34-2.35-.66-.57-.29-1.1-.56-1.84-.56a3.3 3.3 0 0 0-1.75.57c-.57.32-1.16.65-2.15.65-1.52 0-2.14-.94-2.26-1.41Z" fill="#F0F3FA"/><path d="M23.17 30h-1.42l.39-.37.58-3.22-.38-.41h1.74l.72 2.02.77-2.02h1.73l-.37.48.48 3.15.35.29.24-.36v-3.22l-.3-.34h2.61c.34.01 1.14.25 1.14 1.1 0 .95-.57 1.18-.85 1.17h-1v-.21c.3 0 .71-.06.71-.73 0-.67-.96-.84-1.31-.83v2.99l.3.51H26v-2.63L24.91 30h-.52l-1.22-2.74V30Zm8.45-4 .38.45v3.19l-.38.36h2.86l.52-1.15-.4.45H33v-2.85l.45-.45h-1.83Z" fill="#F20413"/><path d="M32.54 35.12c.75.24 1.51.5 2.3.8.61.22 1.01.61 1.2 1.18-.03.15 0 .28.1.37l-.09.44c-.07.3-.24.38-.51.24a8.07 8.07 0 0 1-1.12-.71.34.34 0 0 0-.25-.07.82.82 0 0 0-.4.17c-.25.19-.46.28-.62.27-.2 0-.4-.14-.57-.42-.05-.07-.11-.1-.2-.06-.35.16-.58.41-.68.75-.02.06 0 .11.04.15l.08.06c.08.12.09.24.03.37a.32.32 0 0 1-.29.2c-.43.02-.84.06-1.23.11-.06.01-.16.1-.29.28-.06.1-.04.15.06.18.38.13.63.35.76.66.09.23.2.47.31.7-.07.02-.12.08-.17.2-.13.1-.25.12-.37.03l-.56-.42a.39.39 0 0 0-.46-.04c-.36.19-.68.2-.95.02a.28.28 0 0 0-.25-.04c-.1.04-.16.1-.19.19l-.25.7a.17.17 0 0 1-.16.13c-.22.02-.42.09-.59.2l-.68.06c.04-.21.12-.38.25-.52.06-.06.1-.13.11-.21.05-.29.19-.53.4-.71a.45.45 0 0 0 .15-.32.47.47 0 0 0 .13-.28c.27-.2.49-.42.63-.67.1-.18.26-.24.45-.17l.75.27c.17.06.29 0 .34-.16l.58-1.63.18-.13c.2-.02.34-.15.41-.38.13-.41.42-.77.86-1.07.17-.12.2-.28.13-.5.11-.13.32-.2.63-.22Z" fill="#040304"/><path d="M33.6 36.78c.1-.15.05-.24-.16-.3a.23.23 0 0 0-.12 0 3.26 3.26 0 0 0-2.18 1.81.16.16 0 0 1-.13.1l-.44.05c-.04 0-.05-.01-.04-.04.23-.56.51-1.1.85-1.6.15-.23.45-.5.91-.83l.36-.26c.12-.08.2-.12.25-.1.05.02.1.04.14.08.07.07.15.1.24.1.62-.04 1.27.17 1.97.65.39.26.57.65.54 1.17 0 .08-.04.14-.1.19a.23.23 0 0 1-.22.02 1.46 1.46 0 0 1-.87-.83.27.27 0 0 0-.24-.18.27.27 0 0 0-.28.12c-.13.2-.36.39-.69.6-.1.06-.16.03-.19-.08-.06-.26.06-.47.34-.62a.15.15 0 0 0 .06-.05Z" fill="#fff"/><path d="m25.97 36.51.6.2c.56.35.8.8.74 1.35a.32.32 0 0 1-.24.28.31.31 0 0 1-.36-.1c-.31-.37-.66-.45-1.04-.24-.17.09-.3.13-.38.12a.36.36 0 0 1-.3-.22c-.04-.08-.1-.11-.19-.1-.11.02-.23.1-.35.26-.05.08-.07.16-.05.25.05.27-.1.44-.46.52-.3.07-.55.14-.76.22-.22.08-.29 0-.2-.21l.47-1.15c.12.02.21-.06.29-.23l.85-1.1c.1-.12.21-.15.35-.1.37.16.72.24 1.03.25Z" fill="#040304"/><path d="M25.58 37.39c.11-.2.06-.27-.17-.2-.67.2-1.18.62-1.52 1.26a.2.2 0 0 1-.12.1l-.14.06c-.09.03-.12 0-.1-.09.17-.6.5-1.13 1-1.58.3-.27.67-.36 1.11-.27.93.2 1.43.59 1.51 1.2a.21.21 0 0 1-.08.2.21.21 0 0 1-.22.04.82.82 0 0 1-.5-.53.21.21 0 0 0-.19-.14.22.22 0 0 0-.22.09.95.95 0 0 1-.44.35.14.14 0 0 1-.13-.01.13.13 0 0 1-.06-.06.1.1 0 0 1 .02-.11l.25-.31ZM29.25 40.15c.06-.07.07-.13.02-.21-.05-.08-.12-.1-.2-.07-.62.23-1.07.61-1.37 1.15a.48.48 0 0 1-.19.2.51.51 0 0 1-.16.05c-.1.02-.14-.03-.1-.12.26-.78.71-1.38 1.34-1.79a.36.36 0 0 1 .25-.05c.45.05.77.11.98.18.54.16.9.5 1.1.98a.2.2 0 0 1-.06.24c-.09.09-.2.1-.34.02a2.05 2.05 0 0 1-.56-.54.19.19 0 0 0-.16-.07.18.18 0 0 0-.15.1.62.62 0 0 1-.42.3c-.03.02-.06 0-.09-.02l-.06-.06c-.04-.04-.04-.09 0-.13l.17-.16Z" fill="#fff"/><path d="M28.73 43.42a.92.92 0 0 0-.74.23c-.4.35-.67.74-.8 1.18-.03.09 0 .12.1.08l.17-.06.04-.04c.26-.48.63-.8 1.11-.97a.1.1 0 0 1 .1.03c.05.04.06.09.01.14-.13.15-.15.28-.04.38.03.04.04.07.02.1-.01.04-.04.05-.08.04l-.38-.14c-.13-.04-.22 0-.26.12l-.17.47c-.06.17-.18.25-.35.25h-.7c-.06 0-.08-.02-.05-.08l.7-1.3.24-.3c.39-.48.75-.52 1.08-.13Z" fill="#040304"/><path d="M28.73 43.42c.22.13.48.21.8.26.14.15.27.3.38.45.12.16.12.29.01.4-.06.06-.12.07-.2.03a.85.85 0 0 1-.21-.2.9.9 0 0 0-.21-.2c-.24-.13-.37-.1-.38.13-.03.06-.11.1-.24.1-.1-.1-.1-.23.04-.38.05-.05.04-.1-.01-.14a.1.1 0 0 0-.1-.03c-.48.17-.85.49-1.11.97l-.04.04-.18.06c-.09.04-.12.01-.1-.08.14-.44.4-.83.8-1.18a.92.92 0 0 1 .75-.23Z" fill="#fff"/><path d="M30.17 44.18c-.02.09-.01.16.02.2.05.06.1.07.16.04a.8.8 0 0 1-.35.3.29.29 0 0 1-.24-.02l-.84-.4c.01-.23.14-.27.38-.13.06.03.13.1.2.19.1.1.17.17.23.2.07.04.13.03.2-.03.1-.11.1-.24-.02-.4-.1-.15-.24-.3-.38-.45.21.02.43.19.64.5Z" fill="#040304"/></svg>