<svg width="56" height="56" viewBox="0 0 56 56" xmlns="http://www.w3.org/2000/svg"><path fill="#F0F3FA" d="M0 0h56v56H0z"/><path fill-rule="evenodd" d="M10.3 19.74 8 27h2.05l1.84-5.68c.05-.18.22-.32.4-.32h.2c.15 0 .26.17.22.32L10.97 27h2.06l1.95-6h.44c.2 0 .33.2.27.38L14.03 27h2l2.53-8h-7.23c-.47 0-.89.3-1.03.74Zm7.1 5.83L19.48 19h2.12l-1.88 6h.8c.42 0 .78-.31.9-.7l1.74-5.3h2.03l-2.1 6.6a2.02 2.02 0 0 1-1.92 1.4h-2.71a1.1 1.1 0 0 1-1.08-1.43Zm6.25 1.32L26.16 19h2.67a2.16 2.16 0 0 1 2.13 2.73l-1.46 5.16h-2.14l1.48-4.9a.77.77 0 0 0-.76-.99h-.46l-1.93 5.9h-2.04Zm9.88-2.53L35.3 19h1.98l-2.2 6.66A1.97 1.97 0 0 1 33.2 27h-2.88l.65-2h1.66c.4 0 .77-.26.9-.64Zm3.91-3.06L35.63 27h1.94l.72-2h2.09l-.62 2h1.98l2.13-6.74a.97.97 0 0 0-.94-1.26h-2.3c-1.46 0-2.75.93-3.19 2.3ZM41 23H39l.42-1.15c.15-.43.56-.85 1.02-.85h1.17L41 23Zm1.75 4 2.37-8h2.05l-1.7 6H48l-.64 2h-4.61Zm-22.7 7-.94 3h2.17l2.5-8h-2.15l-.94 3h-1.97l.54-1.64a1.01 1.01 0 0 0-.95-1.34h-5.9a2.6 2.6 0 0 0-2.49 1.89l-.34 1.16c-.3 1.07.56 1.93 1.66 1.93h1.16c.15 0 .26.16.21.3l-.11.3c-.12.33-.43.4-.77.4H8.67L8 37h4.64c.43.02 1.41-.3 1.87-1.77.57-1.85.45-3.23-.74-3.23h-1.92l.16-.52c.08-.27.33-.48.6-.48h4.25l-1.89 6h2.13l.97-3h1.98Zm19.34 3 1.89-5.7a3.45 3.45 0 0 1 3.3-2.3h2.4c.69 0 1.18.63.97 1.26L45.75 37h-2.07l.68-2h-2.18l-.77 2H39.4Zm3.55-4h2.1l.67-2h-1.22c-.47 0-.9.28-1.05.7l-.5 1.3Zm-18.52-2.7-1.79 5.1c-.27.78.3 1.6 1.12 1.6h3.56c.82 0 1.55-.53 1.82-1.32l1.69-5.1A1.2 1.2 0 0 0 29.7 29h-3.48c-.81 0-1.53.52-1.8 1.3Zm2.92 4.12 1.2-3.42h-1.5a.82.82 0 0 0-.79.58L25.05 35h1.5c.37 0 .68-.23.8-.58ZM34.38 29h-2.23l-1.84 6.35c-.24.82.38 1.65 1.23 1.65h6.94l2.47-8h-2.26l-1.15 3.74-.57 1.85c-.1.32-.34.4-.45.41h-.57l1.69-6h-2.25l-.89 2.93-.84 2.75c-.07.17-.17.32-.56.32-.32 0-.36-.14-.34-.21L34.38 29Z" fill="#EB1D24"/></svg>