<svg xmlns="http://www.w3.org/2000/svg" width="56" height="56"><path fill="#F3F3F3" d="M0 0h56v56H0z"/><path d="M30.24 22.44c-2.77-.5-11.13 13.2-12.04 15.36a2.1 2.1 0 01-1.78 1.2c-.76.03-1.6-.05-2.13-.51-.43-.38-.56-1.17-.56-1.91 0-1.31.53-2.51 1-3.63.39-.91 1.54-3.85 2.14-6.26.6-2.41.84-3.23.84-3.23-.5.02-1.7.22-2.99.21-1.55-.01-4.62-.33-5.4-1.56-.24-.4-.34-.84-.32-1.27.05-.92.45-1.51 1.66-1.72 1.24-.31 4.26.16 5.82-.25 1.34-.36 2.35-2.92 4.92-2.86 3.22.07.56 4.05 2.15 5.3.38.3.79 0 1-.32 2.48-3.77 4.46-5.11 6.43-4.98 2.78.18 2.06 3.54 2.3 5.7.18 1.72.86 1.77 1.34 1.4 1.5-.91 1.73-3.41 4.92-3.27 3.18.14 4.04 2.82 4.3 5.74a68.12 68.12 0 01-.14 10.66c-.3 2.3-1.65 2.75-2.39 2.75-.73 0-2.7-1.09-2.57-2.75-.1-1.43 1.52-9.05.64-9.34-1.65-.55-4.25 4.35-7.36 8.91-.55.8-1.74 3.2-3.81 3.18-2.7-.03-2.61-1.92-1.88-3.69.74-1.76 6.68-12.35 3.91-12.86z" fill="#260104"/><path d="M17.34 37.29c-.72 1.06-1.58 1.23-2.85.68-.53-.23-.76-.74-.76-1.39 0-1.28.68-3.06 1.17-4.22a42.2 42.2 0 002-5.73c.57-2.32.7-3.69.22-3.84-.24-.08-1.37-.08-2.79-.08h-.1c-1.48.03-4.34-.19-5.03-1.24-.13-.2-.18-.44-.18-.68 0-1.1.64-1.9 1.85-1.9s4.16.28 5.66-.11c1.28-.34 2.44-2.77 4.62-2.77 2.62 0 .05 4.03 1.6 5.22.38.3 1.25.2 1.55-.07 2.28-2.75 3.99-4.7 5.87-4.89 2.81-.27 1.95 3.46 2.17 5.54.18 1.65 1.58 1.64 2.04 1.3.49-.16.93-.7 1.28-1.15.83-1.02 1.52-2.12 3.53-2.12 2.54.05 3.78 4.49 3.83 6.61.02.8.05 2.27.03 3.83 0 4.78-.15 6.23-.35 6.74-.32.8-1.08 1.34-2.45.84-1.68-.6-1.49-1.44-1.49-2.33.11-.67.16-1.69.16-3.8 0-.73.39-5.2-1.01-5.19-1.61.02-4.2 4.9-6.92 9.03-.5.78-1.4 2.95-3.4 2.95s-1.99-1.7-1.26-3.45c.73-1.76 4.51-11.87 1.86-12.36-2.66-.48-9.95 13.25-10.85 14.58z" fill="#FF000D"/><path d="M18.66 34.27c-.65 1.07-1.86 4.9-4 3.26-1.18-1.2.22-4.52.95-6.23v-.01c.36-.85 1.27-3.1 1.83-5.35.56-2.26.4-3.45 0-3.83-.4-.37-7.52 1.33-8.24-1.41-.32-1.22 1.28-1.87 2.2-1.64.91.23 3.48.24 5.15-.03 1.07-.18 3.46-3.4 5.09-2.75.98.39-.52 4.26 1.14 5.17.43.23.83.3 1.17.3.57 0 .98-.37 1.19-.57.33-.32 3.3-4.55 5.15-4.48 2.35.08 1.39 3.77 1.9 5.4.48 1.55 1.16 1.57 2.04 1.57 1.91-.1 1.96-3.44 4.75-3.5 2.33-.06 3.51 3.36 3.63 6.22.12 2.87.14 8.86-.06 9.65-.2.8-.68 2.5-2.7 1.32-1.47-.86-1.03-1.42-1.03-4.18s.15-6.8-.9-6.9c-1.04-.1-2 .72-5.04 5.42-2.7 4.18-3.52 6.96-5.79 6.38-2.27-.59-.61-3.02 1.35-7.74 1.97-4.71 1.83-8.28-.33-8.28-2.83 0-7.39 8.78-9.45 12.2z" fill="#D82731"/><path d="M35.6 23.07c1.06-1 .96-1.68 2.07-2.51 1.1-.84 2.68.04 2.68.04s-.29-.76-1.44-.76c-1.92 0-2.48 1.08-3.78 2.66-.25.31-.96.77-1.23.77-.48.34-.4.35-.4.35s.23.05.58.05c.4 0 .97-.13 1.53-.6z" fill="url(#azthgney3)"/><path d="M25.35 21.1c1.42-1.38 2.45-3.26 3.62-3.98 1.17-.73 2.07-.25 2.07-.25s.6-.64-.75-.67c-2.1-.05-3.31 1.36-5.2 3.94-.99 1.33-1.99 1.45-1.99 1.45s.31.16.8.16c.4 0 .9-.16 1.45-.65z" fill="url(#bzthgney3)"/><path d="M39.47 37.56c-.1-.05-.64-.26-.76-1.49-.06-.62.09-3.24.1-4.9.01-1.64-.04-3.32-.27-4.05-.12-.6-1-.83-1-.83s1.09-.26 1.39.44c.78 1.77-.15 9.82.8 10.52.46.31 1.53.76 1.53.76s-.92.07-1.8-.45z" fill="url(#czthgney3)"/><path d="M26.05 37.6c-.4-.75-.16-1.45.16-2.27 0 0 1.88-5.34 2.4-7.45.8-3.2.6-5.34.6-5.34s1.27 1.2.5 4.46c-.76 3.26-3 8.7-3.2 9.94-.18 1.25.97 1.19.97 1.19s-1.02.21-1.43-.54z" fill="url(#dzthgney3)"/><path d="M13.85 37c-.1-.23-.12-.54-.1-.85.03-.8.36-1.73.6-2.36 0 0 1.83-5.06 2.47-7.33 1.44-5.08-.5-4.26-.5-4.26s2.9-1.22 1.82 3.36c-1.08 4.57-3.38 9.34-3.61 10.7-.23 1.35.85 1.63.85 1.63s-1.2-.05-1.53-.89z" fill="url(#ezthgney3)"/><path d="M13.73 19.45c-2.06-.1-1.58-.08-2.57-.1-1.13-.01-1.31 1.98-1.48 2.12-.18.14-.68.18-.68-.79 0-.96.66-1.58 1.26-1.73.3-.08.48-.07.68-.07.22 0 .45 0 .8.02 1.14 0 2.22.1 3.14.05.59-.04 1.14-.04 1.66-.19s1-.6 1.58-1.2c1.12-1.17 2.14-1.57 3.11-1.55.97.02.7.63.7.63s-.64-.82-3.32 1.36c-2.2 1.78-2.57 1.55-4.88 1.45z" fill="url(#fzthgney3)"/><defs><linearGradient id="azthgney3" x1="33.71" y1="23.86" x2="39.9" y2="21.08" gradientUnits="userSpaceOnUse"><stop offset=".05" stop-color="#FF000D"/><stop offset=".13" stop-color="#FE655E" stop-opacity=".88"/><stop offset=".3" stop-color="#FEDBC2" stop-opacity=".8"/><stop offset=".44" stop-color="#FAC3A2"/><stop offset=".56" stop-color="#FAC5A4"/><stop offset=".78" stop-color="#FDD4B9"/><stop offset=".86" stop-color="#F6AE91"/><stop offset=".96" stop-color="#FF000D"/></linearGradient><linearGradient id="bzthgney3" x1="23.39" y1="21.91" x2="32.11" y2="18.07" gradientUnits="userSpaceOnUse"><stop offset=".04" stop-color="#FF000D"/><stop offset=".1" stop-color="#FF8875"/><stop offset=".18" stop-color="#FEDAC2"/><stop offset=".44" stop-color="#FED0AF"/><stop offset=".56" stop-color="#FCCEB2"/><stop offset=".74" stop-color="#FEDEC7"/><stop offset=".83" stop-color="#FBDFD1"/><stop offset=".86" stop-color="#FCD1B6"/><stop offset=".96" stop-color="#FF000D"/></linearGradient><linearGradient id="czthgney3" x1="38.7" y1="26.91" x2="41.05" y2="36.62" gradientUnits="userSpaceOnUse"><stop stop-color="#FF000D" stop-opacity=".82"/><stop offset=".07" stop-color="#FF9F85"/><stop offset=".27" stop-color="#FACCAD"/><stop offset=".48" stop-color="#FED8BF"/><stop offset=".73" stop-color="#FAC4A3"/><stop offset=".83" stop-color="#F7B999"/><stop offset=".9" stop-color="#F4A289"/><stop offset=".95" stop-color="#FF413F" stop-opacity=".76"/><stop offset="1" stop-color="#FF000D"/></linearGradient><linearGradient id="dzthgney3" x1="28.44" y1="23.09" x2="31.43" y2="37.27" gradientUnits="userSpaceOnUse"><stop offset=".04" stop-color="#FF000D"/><stop offset=".09" stop-color="#FF6F61"/><stop offset=".13" stop-color="#FF7667"/><stop offset=".18" stop-color="#FFC8A8"/><stop offset=".38" stop-color="#FEDDC5"/><stop offset=".74" stop-color="#FAC2A2"/><stop offset=".93" stop-color="#F9977F"/><stop offset="1" stop-color="#FF000D"/></linearGradient><linearGradient id="ezthgney3" x1="15.81" y1="22.46" x2="17.13" y2="37.82" gradientUnits="userSpaceOnUse"><stop offset=".04" stop-color="#FF000D"/><stop offset=".16" stop-color="#FFC3A0"/><stop offset=".3" stop-color="#FEDEC7"/><stop offset=".41" stop-color="#FDD3B3"/><stop offset=".49" stop-color="#FFD5B4"/><stop offset=".67" stop-color="#F7B999"/><stop offset=".9" stop-color="#F7B999"/><stop offset=".97" stop-color="#FF000D"/></linearGradient><linearGradient id="fzthgney3" x1="8.88" y1="22.99" x2="25.48" y2="21.25" gradientUnits="userSpaceOnUse"><stop offset=".03" stop-color="#FFD4B2"/><stop offset=".11" stop-color="#FBC5A5"/><stop offset=".17" stop-color="#FF000D" stop-opacity=".71"/><stop offset=".25" stop-color="#FF8351" stop-opacity=".65"/><stop offset=".37" stop-color="#FFC4A3"/><stop offset=".42" stop-color="#FFEBC0" stop-opacity=".88"/><stop offset=".56" stop-color="#FEDBC2"/><stop offset=".69" stop-color="#FFC6A5"/><stop offset=".8" stop-color="#FF000D"/></linearGradient></defs></svg>