<svg width="56" height="56" viewBox="0 0 56 56" xmlns="http://www.w3.org/2000/svg"><path fill="#F0F3FA" d="M0 0h56v56H0z"/><path fill-rule="evenodd" d="M30.07 33.49a4.83 4.83 0 0 0 5.1 1.37c.06-.01.11 0 .15.07.3.53.69.97 1.16 1.32a3.81 3.81 0 0 0 4.7-.12c.18-.13.39-.13.6-.13H47.91c.09 0 .1 0 .05-.07l-19.9-23.9A.08.08 0 0 0 28 12a.09.09 0 0 0-.07.03l-19.9 23.9c-.05.06-.04.09.04.09h6.51c.05 0 .1 0 .13.04.49.4 1.02.67 1.6.82a3.71 3.71 0 0 0 3.18-.62c.48-.35.88-.8 1.2-1.34.02-.05.06-.07.12-.06 1.95.55 3.65.1 5.12-1.37a.12.12 0 0 1 .13-.04c1.3.36 2.6.36 3.87 0 .05-.02.1 0 .14.04Zm8.39-4.35a5.09 5.09 0 0 0-1.32-2.4 4.65 4.65 0 0 0-2.38-1.3.18.18 0 0 1-.14-.13 6.67 6.67 0 0 0-2.3-3.66 6.75 6.75 0 0 0-7.66-.68 6.91 6.91 0 0 0-3.3 4.33.2.2 0 0 1-.14.14 4.9 4.9 0 0 0-3.7 3.73c-.02.07-.06.1-.13.1a3.78 3.78 0 0 0-3.42 1.8 3.66 3.66 0 0 0-.59 1.94c-.01.7.14 1.3.48 1.92v.05l-.05.02h-3.78c-.06 0-.07-.02-.03-.06L27.92 13.5a.1.1 0 0 1 .07-.03.1.1 0 0 1 .08.03l17.91 21.44c.01.01.02.03.01.04l-.03.02h-3.74c-.08 0-.08-.02-.05-.09.65-1.32.6-2.53-.1-3.75a3.63 3.63 0 0 0-1.44-1.42 3.88 3.88 0 0 0-2-.47c-.09 0-.15-.04-.17-.13ZM26.6 32.48c.35-.75.53-1.49.55-2.23.02-.79-.15-1.53-.52-2.22a4.8 4.8 0 0 0-4.15-2.7c-.07 0-.1-.04-.07-.1a5.84 5.84 0 0 1 11.17 0c.03.07 0 .11-.08.12a4.86 4.86 0 0 0-4.12 7.12c.03.06.01.1-.05.12-.88.2-1.77.2-2.67 0-.07 0-.09-.04-.06-.1Zm-1.12-.3c.1.05.18.03.23-.08a3.94 3.94 0 0 0-3.4-5.8c-.07 0-.1.03-.11.1a5.75 5.75 0 0 0 3.28 5.78Zm4.85-.01a4.11 4.11 0 0 1-.53-2.04c0-.66.18-1.27.5-1.84.34-.57.78-1.02 1.35-1.37a4.3 4.3 0 0 1 2-.62c.08 0 .13.03.14.13a5.49 5.49 0 0 1-.76 3.4 6.3 6.3 0 0 1-2.58 2.38.09.09 0 0 1-.07 0 .1.1 0 0 1-.05-.04Zm-9.26-5.67a4.04 4.04 0 0 0-2.6 2.85c-.02.04 0 .08.05.1 1.88.83 2.73 2.27 2.54 4.31 0 .12.05.19.16.21 1.43.32 2.65.03 3.67-.88.04-.03.04-.06 0-.09a6.85 6.85 0 0 1-3.71-6.42c0-.08-.04-.1-.11-.08Zm16.4 2.97a4.06 4.06 0 0 0-2.04 1.66 4.17 4.17 0 0 0-.5 2.62c.02.11-.03.18-.14.21a3.9 3.9 0 0 1-3.71-.88.06.06 0 0 1-.02-.05c0-.02.01-.04.03-.05a7.07 7.07 0 0 0 2.8-2.69 6.66 6.66 0 0 0 .9-3.8 4.01 4.01 0 0 1 2.72 2.9c.01.03 0 .06-.05.08Zm-23.1 3.34c-.05.48.02.96.22 1.45.2.51.55.93 1.03 1.25a2.9 2.9 0 0 0 4.14-.98c.04-.06.02-.11-.03-.15a4.87 4.87 0 0 1-2.33-4.03c0-.09-.06-.13-.15-.13-.52.03-1 .17-1.42.4-.42.24-.75.54-1 .92-.27.38-.42.8-.47 1.27Zm21.85 1.58a4.86 4.86 0 0 0 2.36-4.07c0-.06.03-.08.09-.08a2.96 2.96 0 0 1 2.66 1.63 2.8 2.8 0 0 1-.35 3.05A2.76 2.76 0 0 1 38.52 36c-.96-.06-1.73-.56-2.32-1.49-.03-.05-.02-.08.03-.11Zm-16.5-2.7c-.3-.5-.71-.9-1.24-1.17a.06.06 0 0 0-.07 0 .06.06 0 0 0-.02.06 4.01 4.01 0 0 0 1.62 2.8c.06.05.1.03.1-.05a2.8 2.8 0 0 0-.4-1.64Zm16.15 1.62a2.87 2.87 0 0 1 1.58-2.77.08.08 0 0 1 .09.01c.02.02.04.05.03.08A4.03 4.03 0 0 1 36 33.37c-.07.05-.11.03-.12-.06Z" fill="#005096"/></svg>