<svg width="56" height="56" viewBox="0 0 56 56" xmlns="http://www.w3.org/2000/svg"><path fill="#F0F3FA" d="M0 0h56v56H0z"/><path d="M43 42.17c0 .75-.3 1.47-.85 2-.54.53-1.27.83-2.04.83H15.9c-.77 0-1.5-.3-2.04-.83a2.8 2.8 0 0 1-.85-2V13.83c0-.75.3-1.47.85-2a2.92 2.92 0 0 1 2.04-.83H40.1c.77 0 1.5.3 2.04.83.55.53.85 1.25.85 2v28.34Z" fill="#009846"/><path d="M42 42.2c0 .48-.2.94-.54 1.27-.34.34-.81.53-1.3.53H15.84c-.49 0-.96-.19-1.3-.53-.35-.33-.54-.8-.54-1.27V13.8c0-.48.2-.94.54-1.27.34-.34.81-.53 1.3-.53h24.32c.49 0 .96.19 1.3.53.35.33.54.8.54 1.27v28.4Z" fill="#FFF7B2"/><path d="m35.78 15.92-1.1 4.49c-.02.07-.04.08-.08 0l-.65-1.3a.29.29 0 0 1-.02-.2l.83-3.34a.1.1 0 0 0-.06-.11c-.45-.14-.77-.37-1.27-.35a.07.07 0 0 0-.07.06c-.05.25-.1.55.01.8.42.97.68 2.4-.49 3.02-.6.32-1.56.42-2.14-.04-.72-.57-1.75-1.85-.91-2.76a.07.07 0 0 0 0-.1c-.54-.48-.65-1-.35-1.56.03-.05.01-.09-.05-.1a.4.4 0 0 0-.17-.01c-.07 0-.1-.02-.09-.1l.1-.86c0-.05.04-.08.1-.07l4.8.79c.26.04.4.17.63.25l2.02.68c.02 0 .03.02.02.04l-.24.93v.01h-.01l-.7-.24c-.06-.02-.1 0-.11.07ZM25.8 14.72a.07.07 0 0 0-.04.03.07.07 0 0 0-.01.05l.78 4.63a.03.03 0 0 1-.03.04h-.01l-1.15-.88a.14.14 0 0 1-.06-.11v-.11c-.01-.08-.05-.1-.1-.04-1 .79-1.97-.1-2.45-.96-.2-.36-.4-.71-.58-1.07-.04-.08-.02-.1.06-.05.15.08.27.24.46.24.16 0 .31-.03.47-.1.05-.02.08-.07.07-.13l-.12-.83c0-.07-.05-.1-.11-.08l-.92.21c-.07.02-.1 0-.12-.07l-.13-.82c0-.05.02-.09.07-.1l4.38-.98c.08-.02.14 0 .15.1l.13.74c.02.08-.02.13-.1.15l-.63.14Z" fill="#E31E24"/><path d="M31.54 17.1c.1.06.13.04.08-.06l-.5-1.02a.18.18 0 0 0-.14-.1l-.42-.05a.35.35 0 0 1-.23-.12.33.33 0 0 1-.07-.25c.05-.33.18-.6.42-.8.04-.03.1-.05.15-.04l1.37.22c.07.01.1.05.1.12l-.04.3a.1.1 0 0 1-.03.06.1.1 0 0 1-.06.03c-.44.05-.66.3-.69.72-.03.55.53 1.41.82 1.87a.04.04 0 0 1 0 .04v.01l-.02.01c-.45.17-.87.2-1.29.1-.54-.14-.92-.96-.14-1.14a.98.98 0 0 1 .7.1ZM23.67 17.33c.28-.09.57-.27.57-.6 0-.41-.05-.8-.14-1.14a.21.21 0 0 0-.07-.12l-.23-.18c-.08-.06-.07-.1.02-.12l.78-.18c.06-.02.09 0 .1.06l.3 1.76c.01.05 0 .1-.03.16-.2.33-.49.56-.84.7a.39.39 0 0 1-.4-.07l-.1-.08c-.12-.08-.1-.15.04-.2Z" fill="#FFF7B2"/><path d="m20.92 16.49 1.59 4.31a.05.05 0 0 1-.02.05.05.05 0 0 1-.05 0l-1.27-.57a.05.05 0 0 1-.02-.03l-1.2-3.28-.02-.02a.05.05 0 0 0-.06-.01l-.5.27h-.01a.05.05 0 0 1-.04-.01l-.01-.02-.3-.86a.05.05 0 0 1 .02-.06l2.25-1.1a.05.05 0 0 1 .07.02l.3.84a.05.05 0 0 1-.02.06l-.69.35a.05.05 0 0 0-.02.02v.04ZM40.18 18.03l-1.62 4.23c-.03.1-.07.1-.1 0l-.49-1.4a.2.2 0 0 1 0-.14l.22-.52a.08.08 0 0 0 0-.08.09.09 0 0 0-.07-.04c-.4-.02-.83-.16-1-.54a7.81 7.81 0 0 1-.52-1.66.49.49 0 0 1 .02-.27l.45-1.16a.13.13 0 0 0-.06-.17l-.2-.09c-.03-.02-.05-.05-.03-.1l.3-.8c.03-.05.06-.06.1-.04l4.05 2.1c.08.03.1.08.07.15l-.29.75c-.02.07-.06.08-.12.05l-.57-.32c-.07-.03-.11-.02-.14.05ZM17.54 18.39l-.68.53c-.14.11-.12.17.06.2.12 0 .21.03.28.14l.82 1.43c.67 1.16-.54 1.32-1.3 1.09-.58-.17-.63-.86-.03-1.06a.06.06 0 0 0 .04-.03.06.06 0 0 0 0-.06l-.6-1.02c-.03-.05-.07-.06-.12-.02l-.83.65a.03.03 0 0 1-.03 0l-.01-.01-.46-.8c-.02-.02-.01-.04.01-.06l3.9-3.06c.06-.04.1-.03.14.03l.39.7c.03.05.02.1-.03.14l-.54.41c-.04.04-.05.08-.02.13a601.36 601.36 0 0 0 2.26 3.91h-.01l-1.37-.27a.1.1 0 0 1-.06-.04l-1.7-2.9c-.03-.06-.07-.07-.11-.03Z" fill="#E31E24"/><path d="M32.82 16.4a.1.1 0 0 1 .07.02.1.1 0 0 1 .04.07v.03a2.79 2.79 0 0 1-.01.64.66.66 0 0 1-.07.2c-.03.05-.06.08-.1.08-.08 0-.16-.08-.22-.24a2.3 2.3 0 0 1-.15-.62v-.04a.1.1 0 0 1 .05-.09.1.1 0 0 1 .03-.01l.36-.04ZM39.22 17.5l-.5 1.34a.17.17 0 0 1-.12.1c-.37.11-.7.09-.98-.07a.34.34 0 0 1-.16-.17.33.33 0 0 1 0-.24l.6-1.58a.05.05 0 0 1 .02-.03.05.05 0 0 1 .04 0l1.06.56c.04.02.05.05.04.1Z" fill="#FFF7B2"/><path d="M22.2 28.42c-.03.1-.02.18.03.26.03.05.03.09.01.13-.04.1-.05.2-.03.31.02.05 0 .1-.03.14a.2.2 0 0 1-.07.05c-.05.02-.07.06-.06.11.05.28-.05.71.43.69.04 0 .07-.02.08-.06a2.64 2.64 0 0 0 .18-.94l.03-.01.05-.01c.03 0 .05.01.04.04-.04.42-.1.83-.15 1.24-.05.35.14.69.58 1.01.05.04.07.03.06-.03l-.1-1.32c0-.01.01-.02.03-.02h.04c.02 0 .04 0 .04.03.05.32.15.62.18.94.05.44.27.85.18 1.3-.07.33.02.63.1.95.02.13.03.28.01.45-.07.65-.1 1.28-.07 1.9 0 .1-.03.19-.07.28a.81.81 0 0 1-.16.2c-.16.16-.29.35-.39.57-.04.1-.01.17.08.22.23.12.45.13.67.03.04-.02.05-.04.04-.08 0-.03-.03-.05-.07-.05a.68.68 0 0 1-.55-.21c-.04-.05-.03-.07.03-.06.1.01.18.04.27.1a.24.24 0 0 0 .36-.13l.07-.27a.23.23 0 0 1 .08-.11l.16-.13a.18.18 0 0 0 .08-.14l.03-2.14a.1.1 0 0 0-.05-.08.16.16 0 0 1-.06-.07.13.13 0 0 1-.02-.08l.33-2.62a.06.06 0 0 1 .08-.05c.1.02.16.09.16.2 0 .05-.02.09-.07.12l-.04.02a.1.1 0 0 0-.05.08c-.11.7-.17 1.38-.17 2.06 0 .05.01.05.05.01.19-.23.16-.58.19-.87.02-.17.06-.35.13-.54l.49-1.3c.15-.4.2-.81.13-1.24.04 0 .06-.01.05-.06a.3.3 0 0 1 .1.04c.03.01.05.05.06.09.1.39.08.77-.04 1.15-.04.02-.05.07-.05.12a.1.1 0 0 1-.07.1l-.13.05a.12.12 0 0 0-.07.09l-.38 1.29c-.1.4-.1.84-.27 1.22-.1.23-.16.43-.17.6-.02.56-.03 1.14-.02 1.74 0 .2-.07.36-.21.46a.13.13 0 0 0-.06.1v.25c0 .06-.02.11-.07.15a.2.2 0 0 0-.08.16.15.15 0 0 1-.1.13.97.97 0 0 1-.95-.08.17.17 0 0 1-.06-.07.16.16 0 0 1 0-.1c.08-.32.24-.58.45-.8a.63.63 0 0 0 .17-.39c-.01-.52.01-1.02.07-1.5.03-.21.02-.42-.03-.63a4.2 4.2 0 0 1-.06-1.37.3.3 0 0 0-.16-.3c-.36-.2-.65-.5-.84-.84a2.5 2.5 0 0 0-.48-.62c-.23-.22-.14-.52-.27-.78-.18-.36-.3-.74-.37-1.14 0-.06-.04-.11-.08-.15-.19-.14-.4-.25-.64-.31a.28.28 0 0 0-.18.01c-.49.2-.91.07-1.26-.37-.1-.14-.11-.29 0-.43l-.01-.07c-.07-.07-.07-.15 0-.23.04-.07.1-.13.17-.19a.17.17 0 0 0 .06-.12c0-.21.02-.43.05-.66.04-.28-.06-.47-.29-.54a.32.32 0 0 1-.13-.1 4.7 4.7 0 0 0-.64-.59c-.15-.11-.18-.25-.1-.42a.74.74 0 0 1 .05-.08c.04-.06.1-.1.17-.12a.3.3 0 0 1 .2.02 4.53 4.53 0 0 1 .66.39.1.1 0 0 0 .09-.02.1.1 0 0 0 .02-.03l.11-.2c.03-.06.02-.1-.05-.11-.33-.08-.53-.27-.6-.57-.05-.26.07-.46.12-.7 0-.06.03-.08.08-.07a.1.1 0 0 1 .08.05c.11.17-.07.4.14.63.18.2.4.23.64.1l.14-.03c.27.02.53 0 .79.08.18.07.38.1.58.11.07 0 .12.02.18.05.55.34.83-.35 1.13-.66a.1.1 0 0 1 .05-.03.1.1 0 0 1 .05.01c.04.02.08.04.1.08.03.04.03.08.01.12l-.34.82c-.1.27-.39.36-.66.29a.06.06 0 0 0-.05 0 .06.06 0 0 0-.03.05v.09l.04.02c.14.02.29.03.44.02.12 0 .14-.01.06-.03-.03 0-.05-.03-.04-.07 0-.03.02-.05.05-.05l.84-.15c.05-.01.09 0 .12.03.1.1.15.2.18.31 0 .06.04.08.1.09.18 0 .38-.03.56.01.47.1.96.18 1.49.25.21.03.44.03.67.02 1.74-.11 2.91-.13 3.52-.05.55.06 1.08.12 1.58.16.58.04 1.15-.09 1.68-.06.69.03 1.39.07 2.1.13.6.04 1.37.29 1.57.85l.18.5c.07.18.09.36.07.54l-.13 1.27-.32 2.52c-.1.73.46.7.6 1.22.02.13.03.26 0 .39a6.84 6.84 0 0 0 .26 3.1l-.05.01h-.04a7.06 7.06 0 0 1-.33-2.98l-.03-.12a.17.17 0 0 0-.1-.06c-.4-.09-.5-.45-.6-.77-.03-.08 0-.1.07-.06.06.02.1.07.12.13.02.04.06.08.1.11l.33.23c.05.03.07.07.05.13 0 .04 0 .07.04.1.06.03.07.02.06-.04l-.07-.28a.23.23 0 0 0-.1-.13 1.74 1.74 0 0 1-.7-.97 4.15 4.15 0 0 1 .02-2.15c.25-.84.59-2.42-.63-2.76a1.81 1.81 0 0 1-.35-.14c-.02-.01-.03-.03-.03-.06l.02-.04h.03c1 .22 1.45.82 1.36 1.82-.03.45-.05.9-.05 1.35 0 .16-.07.3-.08.46l-.04.79c0 .12-.03.25-.06.37a.74.74 0 0 0 .04.5c.01.04.03.04.04 0a.43.43 0 0 0 0-.22.27.27 0 0 1-.01-.14c.04-.2.1-.36.12-.57l.3-2.72c.06-.53-.1-1.26-.52-1.67-.21-.22-.5-.22-.78-.3-.1-.04-.22-.06-.33-.07-.57-.02-.96-.04-1.16-.08-.6-.1-1.15-.11-1.66-.05-.42.05-.79.06-1.09.04a62.3 62.3 0 0 1-1.77-.2c-.35-.04-1.46 0-3.33.1a7.46 7.46 0 0 1-1.83-.24c-.33-.08-.63-.05-.96-.06l-.06.02a.1.1 0 0 0-.05.05l-.04.13a.3.3 0 0 1-.12.15c-.34.21-.72.37-1.15.46-.04 0-.08 0-.12-.02a.66.66 0 0 1-.2-.2v-.01h.01c.37-.05.7.03 1.02-.21l.53-.4a.19.19 0 0 0 .08-.17.19.19 0 0 0-.04-.1.2.2 0 0 0-.1-.05.98.98 0 0 0-.58 0c-.08.02-.08.04 0 .05.13.02.25.02.38 0 .06 0 .08.03.08.08v.04a.03.03 0 0 1 0 .02.03.03 0 0 1-.02 0c-.37.02-.74.18-1.11.48a.2.2 0 0 1-.3-.05c-.06-.11-.03-.2.11-.23l.36-.1c.1-.03.1-.05 0-.05a7.1 7.1 0 0 0-.18-.02.19.19 0 0 1-.13-.05c-.16-.15-.4-.42-.3-.65a.1.1 0 0 0 0-.1.1.1 0 0 0-.09-.05c-.24 0-.46-.05-.67-.13a.49.49 0 0 0-.18-.04h-.64a.18.18 0 0 0-.18.11c-.2.48-.23.95-.1 1.43.02.06.04.06.08 0l.4-.7a.08.08 0 0 1 .12-.02l.02.04c.06.15.12.3.2.43.14.3.02.57.07.87.01.06 0 .1-.06.11-.03.02-.06 0-.07-.02a.52.52 0 0 1-.05-.4.6.6 0 0 0-.11-.63c-.03-.04-.06-.04-.08 0l-.24.23-.01.03-.42 1.4c-.01.05 0 .08.04.1.21.13.4.13.56.01.04-.03.08-.02.11.02l.21.26a.19.19 0 0 1 .04.14.59.59 0 0 1-.23.4c-.05.03-.05.07-.02.12.18.3.53.27.63-.08.01-.07 0-.08-.07-.05a.4.4 0 0 0-.13.12c-.02.03-.05.04-.08.02h-.03c-.02-.02-.03-.04-.02-.06.04-.1.1-.16.17-.22a.12.12 0 0 0 .04-.14c-.07-.14-.04-.26.09-.37a.17.17 0 0 0 .06-.12l.03-.27c0-.04.02-.05.06-.04l.07.01v.01a3.8 3.8 0 0 1-.14.97l.04.02c.03.02.05 0 .05-.03a.47.47 0 0 1 .17-.33.9.9 0 0 0 .33-.82c0-.03.01-.04.03-.04l.05-.01c.04-.01.06 0 .06.05.04.48-.13.89-.52 1.23a.17.17 0 0 0-.06.11l-.03.4c0 .03.02.06.04.08l.05.03c.06 0 .09-.03.09-.08 0-.04 0-.06.03-.09.06-.08.13-.08.2 0 .08.12.09.21.02.29l-.04.01-.03-.01c-.02-.01-.03-.02-.05 0-.05.01-.06.04-.02.08.06.05.1.12.1.2.04.28.11.55.22.81.03.07.05.07.07 0l.19-.68c0-.03.02-.05.04-.07l.03-.03Z" fill="#03030A"/><path d="M22.83 23.42c0-.13.04-.22.12-.28a.06.06 0 0 1 .06 0 .06.06 0 0 1 .03.05c0 .13-.08.2-.21.23ZM19.78 23.64c.07.04.09.09.07.16a.3.3 0 0 1-.06.1.13.13 0 0 1-.08.04l-.1-.01a.87.87 0 0 1-.37-.48.05.05 0 0 1 .01-.05.05.05 0 0 1 .06 0l.47.24ZM22.83 23.42c.1.53-.29.95-.85.84a.18.18 0 0 1-.12-.08.18.18 0 0 1-.02-.13l.01-.06c.02-.07.06-.1.13-.1.45.06.58-.3.85-.47Z" fill="#FFF7B2"/><path d="M20.56 24.02c.06 0 .12-.06.12-.12a.12.12 0 0 0-.12-.12.12.12 0 0 0-.13.12c0 .06.06.12.13.12ZM20.12 23.9a.16.16 0 0 1 .11-.02c.04.01.05.04.03.07a.17.17 0 0 1-.14.1.06.06 0 0 1-.05-.02l-.02-.02v-.03c.01-.04.03-.07.07-.08ZM21.35 24.22c.1.05.2.03.22-.03.04-.06 0-.15-.1-.2-.08-.04-.18-.02-.22.04-.03.06.02.15.1.2Z" fill="#03030A"/><path d="M18.8 24.35c.03.04.07.07.12.08.04.01.07.04.1.07l.45.61c.08.11.05.15-.08.13a.4.4 0 0 1-.21-.11l-.64-.65a.1.1 0 0 1-.02-.12c.05-.1.12-.18.21-.23.06-.02.1-.02.15.01l.6.39c.03.01.04.03.04.06l-.02.07-.02.02-.02.02a.05.05 0 0 1-.05-.01c-.17-.15-.35-.32-.57-.4-.07-.03-.09 0-.05.06Z" fill="#FFF7B2"/><path d="m21.13 24.97.38-.44a.16.16 0 0 1 .16-.05.16.16 0 0 1 .12.1c.04.14-.06.28-.19.32a8 8 0 0 0-.42.14c-.1.04-.12.02-.05-.07ZM21.46 25.03a.08.08 0 0 1 .11 0l.04.04a.3.3 0 0 1 .07.09c.02.03.02.07.03.1a.26.26 0 0 1-.07.2l-.03.03a.26.26 0 0 1-.2.07.3.3 0 0 1-.2-.08l-.04-.04a.08.08 0 0 1 0-.1l.3-.3Z" fill="#03030A"/><path d="M19.72 26.25h-.07c-.02 0-.03-.02-.03-.04a1.4 1.4 0 0 0-.01-.76c-.02-.04 0-.07.05-.08l.05-.01c.02 0 .04 0 .05.03.07.26.05.54-.04.86Z" fill="#FFF7B2"/><path d="M25.54 29.24c.01.05 0 .07-.05.06l-.35-.44a.14.14 0 0 1-.02-.13l.2-.7c.01-.05 0-.07-.05-.07h-.7c-.05 0-.08.03-.1.07l-.07.31a.15.15 0 0 1-.12.11.15.15 0 0 1-.15-.05c-.15-.2-.34-.5-.15-.72.1-.1.22-.16.38-.15.37.02.72.02 1.02 0 .04 0 .06-.01.07-.05l.15-.46a.04.04 0 0 0 0-.04.04.04 0 0 0-.04-.02L24 26.95c-.02 0-.03-.01-.03-.04a1 1 0 0 1 .09-.31.05.05 0 0 1 .04-.03h4.25c.06 0 .07-.03.05-.09-.22-.57.05-1.33.8-1.06.05.02.08.06.08.1a.1.1 0 0 1-.03.1.1.1 0 0 1-.08.03c-.5-.06-.64.45-.53.82.02.06.06.1.13.1h3.88c.04 0 .06.02.05.06l-.07.26c0 .02-.02.03-.03.05a.1.1 0 0 1-.06.01h-.35a.1.1 0 0 0-.1.08l-.58 2.17c-.01.06-.04.06-.07.02l-.22-.3a.25.25 0 0 1-.04-.22l.45-1.68a.04.04 0 0 0 0-.04h-.02l-.02-.01-.64-.01a.1.1 0 0 0-.1.07l-.18.69c-.01.05-.04.07-.1.07-.3-.04-.93-.1-1.1.21-.11.18-.08.36.09.52a.22.22 0 0 0 .2.06.22.22 0 0 0 .16-.13l.09-.25a.14.14 0 0 1 .05-.07.14.14 0 0 1 .1-.02c.2.01.35.14.44.38.02.05.01.1-.02.15a.61.61 0 0 1-.32.25c-.05.02-.07.05-.04.1l.18.32a.1.1 0 0 1 .01.07.1.1 0 0 1-.03.06l-.15.12c-.07.05-.12.04-.14-.04l-.07-.34c0-.12-.1-.21-.23-.2-.06.01-.1 0-.16-.03-.46-.29-.63-.67-.53-1.15.1-.47.67-.46 1.06-.42.09 0 .14-.03.17-.11l.07-.22c.02-.06 0-.1-.08-.1l-1.54.01a.1.1 0 0 0-.06.02.1.1 0 0 0-.03.05l-.55 2.1c-.03.12-.08.13-.16.03l-.18-.25a.26.26 0 0 1-.04-.24l.13-.39c.02-.07 0-.1-.08-.1h-.53a.1.1 0 0 0-.1.06l-.08.23a.22.22 0 0 1-.16.14.22.22 0 0 1-.2-.06 2.4 2.4 0 0 1-.36-.46.23.23 0 0 1 .08-.32.24.24 0 0 1 .12-.03h.19c.04 0 .07-.02.08-.06l.17-.63c.01-.06-.01-.09-.07-.09h-.8c-.06 0-.1.04-.12.1a78.74 78.74 0 0 0-.54 2c0 .04 0 .1.04.18Z" fill="#11171D"/><path d="M21.57 25.64a.51.51 0 0 1 .2-.19c.08-.04.11-.02.1.07-.04.23-.19.33-.46.32-.07 0-.09-.04-.05-.1.03-.04.07-.06.11-.05a.1.1 0 0 0 .1-.05ZM22.81 26a.6.6 0 0 1 .15-.27c.07-.08.1-.07.07.03-.04.18-.08.36-.1.55-.05.34-.38.64-.57.95l-.04-.02c-.02-.01-.02-.03-.01-.05.24-.4.41-.8.5-1.2ZM20.55 26.1c-.05.05-.07.12-.04.15.03.03.1.01.16-.04.06-.06.08-.13.04-.16-.03-.03-.1-.01-.16.04Z" fill="#03030A"/><path d="M19.7 27.12c0-.14-.06-.24-.22-.28-.02 0-.03-.02-.03-.04l.01-.04.01-.01c.25.02.51.05.78.1.1 0 .1.03.01.08-.13.06-.2.15-.18.27.01.06.04.08.1.07h.13c.05-.01.08 0 .07.06v.09a.08.08 0 0 1-.03.06.09.09 0 0 1-.06.02l-.75-.06a.2.2 0 0 1-.13-.05c-.09-.08-.11-.16-.06-.23a.07.07 0 0 1 .08-.02c.01 0 .02 0 .03.02.03.04.08.06.14.06a.1.1 0 0 0 .07-.03.1.1 0 0 0 .02-.07Z" fill="#FFF7B2"/><path d="M35.49 27.1c0-.05 0-.1-.02-.16-.02-.02 0-.04.02-.05l.04-.02c.03 0 .05 0 .06.03l.07.27c.05.2-.07.36-.1.56l-.01.07a.17.17 0 0 1-.06.05.84.84 0 0 0-.31.35c-.07.08-.12.11-.17.08v-.01l-.01-.02a.85.85 0 0 1 .29-.55.17.17 0 0 0 .06-.12 107.16 107.16 0 0 1 .07-.44.07.07 0 0 1 .06-.02l.01-.01Z" fill="#03030A"/><path d="m27.34 27.63.18-.6a.1.1 0 0 1 .09-.07h.52a.1.1 0 0 1 .07.04.1.1 0 0 1 .02.08l-.17.57a.1.1 0 0 1-.08.07l-.54.03a.1.1 0 0 1-.08-.04.1.1 0 0 1-.01-.08Z" fill="#FFF7B2"/><path d="M32.21 28.82a.31.31 0 0 1 .1-.3.15.15 0 0 0 .03-.14.32.32 0 0 1 .1-.31.21.21 0 0 0 .07-.15 1.78 1.78 0 0 1 .2-.7h.02a.04.04 0 0 1 .03 0l.04.02c.02 0 .03.03.04.05v.06a2.9 2.9 0 0 0-.17 2.03.1.1 0 0 1-.07.07l-.05.01c-.12 0-.21.04-.27.15a.12.12 0 0 1-.1.06.73.73 0 0 0-.4.16.5.5 0 0 1-.44.1c-.06-.01-.1 0-.11.07a.25.25 0 0 1-.22.18.29.29 0 0 0-.26.17c0 .02 0 .03-.02.03a.06.06 0 0 1-.07 0l-.02-.04a.19.19 0 0 1 .07-.17.17.17 0 0 1 .12-.05c.12 0 .2-.04.22-.16.02-.05.05-.1.1-.11.22-.1.41-.22.6-.38a.2.2 0 0 0 .06-.11c0-.05.03-.08.08-.08h.04l.03.04c0 .02.01.03.03.04.06.01.08 0 .07-.06l-.05-.22a.13.13 0 0 1 .12-.15c.07 0 .1-.04.08-.1Z" fill="#03030A"/><path d="M19.97 27.84c.24.05.45.02.47-.05.01-.08-.17-.18-.42-.22-.24-.04-.45-.02-.47.06-.01.07.17.17.42.21Z" fill="#FFF7B2"/><path d="m21.76 27.82-.02-.2c-.01-.07.02-.1.08-.07a.1.1 0 0 1 .06.08c.02.1 0 .16-.08.21h-.03a.03.03 0 0 1-.01-.02ZM22.2 28.42l-.02-.16c.05-.18.1-.18.16 0 .03.08-.02.14-.15.16Z" fill="#03030A"/><path d="M36.64 29c-.07.38-.05.81-.1 1.18a.04.04 0 0 1-.01.03.05.05 0 0 1-.04 0 .08.08 0 0 1-.03-.01l-.01-.03c-.1-.54-.08-1.08.15-1.58.03-.07.06-.07.06.02.01.13 0 .26-.02.38Z" fill="#FFF7B2"/><path d="m34.94 31.45-.24.03a.58.58 0 0 0-.18-.2c-.95-.7-2.5-1.16-3.53-.4-.05.05-.09.04-.1-.03v-.05c-.02-.06 0-.11.06-.14.95-.55 1.85-.4 2.86-.03.24.1.28.04.1-.16-.34-.39-.73-.6-1.22-.74-.06-.02-.07-.05-.06-.1l.01-.04c.01-.04.04-.05.09-.04.6.17 1.07.42 1.4.74.23.22.5.6.81 1.16ZM24.6 30.5c.17-.26.25-.5.25-.72 0-.04.02-.06.06-.05.03.01.04.03.05.06.05.31-.02.56-.2.75a.08.08 0 0 1-.1.01l-.05-.03v-.03ZM30.39 30.47a.14.14 0 0 1-.1.1.06.06 0 0 1-.06-.02l-.01-.03v-.03c.03-.1.1-.2.2-.26h.04a.07.07 0 0 1 .06.03l.01.03c0 .05-.03.1-.08.11a.12.12 0 0 0-.06.07ZM29.96 30.66c.05-.05.07-.11.04-.15-.04-.04-.1-.03-.16.01-.05.04-.06.11-.03.15.03.04.1.03.15-.01ZM34.68 30.87c.13.17.27.3.31.26.04-.02-.03-.2-.15-.37-.13-.18-.27-.3-.31-.27-.04.03.03.2.15.38Z" fill="#03030A"/><path d="M25.66 30.52v.26c0 .05.03.09.08.11.13.07.28.1.44.1a5.01 5.01 0 0 1 2.1.21c.25.12.49.26.76.32.44.1.88.07 1.31-.1.37-.13.8-.4 1.21-.36.1.01.1-.01.04-.08l-.05-.05a.1.1 0 0 1-.03-.1c0-.03.05-.04.14-.02.03 0 .05.02.07.04l.02.09c-.02.1 0 .2.03.29.12.34.13.58.46.8.05.03.07.02.07-.03s0-.09.02-.13c.03-.05.06-.06.1-.03.1.06.16.14.15.25l-.06.67c-.01.1.02.1.1.06a.67.67 0 0 1 .2-.1c.08-.03.1 0 .07.07-.12.26-.34.32-.66.18-.07-.02-.1-.07-.07-.14l.12-.43c.02-.06 0-.1-.06-.14a1.2 1.2 0 0 1-.57-.86.19.19 0 0 0-.1-.14.2.2 0 0 0-.17 0c-.53.24-1.08.5-1.67.54a2.6 2.6 0 0 1-.74-.09 20.1 20.1 0 0 0-1.96-.36c-.28-.04-.52.03-.79-.04a.18.18 0 0 0-.15.02.18.18 0 0 0-.08.14l-.02.4c-.02-.03-.05-.04-.1 0a.32.32 0 0 0-.26.22c-.02.08-.07.1-.16.08a1.63 1.63 0 0 1-.18-.12.14.14 0 0 0-.08-.03c.02.07 0 .12-.09.14a.82.82 0 0 0-.1.03l-.04-.02.38-1.3a.12.12 0 0 1 .07-.08l.13-.04a.1.1 0 0 0 .07-.1c0-.06.01-.1.05-.13Z" fill="#11171D"/><path d="m29.53 30.82-.17.04a.04.04 0 0 1-.04 0v-.02l-.01-.02c.02-.14.1-.18.23-.12a.06.06 0 0 1 .03.06l-.01.04-.03.02Z" fill="#11171D"/><path d="M36.17 31.06c0-.06 0-.11.02-.16.03-.09.05-.08.07 0a2.2 2.2 0 0 1-.13 1.2.1.1 0 0 1-.1.03l-.17-.08c-.06-.02-.07-.06-.04-.12.12-.2.35-.63.35-.87ZM23.84 31.62c-.13-.12-.14-.27-.05-.46.03-.07.06-.07.08 0 .05.12.08.25.1.4 0 .13-.04.15-.13.06ZM34.35 31.5a.47.47 0 0 1 .12-.14.06.06 0 0 1 .07 0l.02.02c.08.4-.18.52-.47.68-.3.16-.34.11-.1-.13.14-.14.28-.24.36-.42Z" fill="#03030A"/><path d="m34.94 31.45.4.54c-.08 0-.13.07-.12.18-.04.02-.06.08-.07.18a.13.13 0 0 1-.01-.04c-.01-.03-.03-.03-.05-.02a.79.79 0 0 0-.21.2c-.23 0-.36.04-.38.14l-.1-.07c0-.04-.03-.06-.08-.07a.51.51 0 0 1-.08-.34.73.73 0 0 0 .46-.67l.24-.03Z" fill="#11171D"/><path d="M25.97 31.86c.09.23.18.45.3.67.16.32-.02.48.03.78.1.7.27 1.4.5 2.07.01.06 0 .1-.05.15-.06.04-.1.1-.13.16a.17.17 0 0 0 .01.14c.05.1.07.19.08.29 0 .05 0 .09-.04.12-.32.28-.67.38-1.06.29a.26.26 0 0 1-.18-.15.24.24 0 0 1 .02-.23c.17-.26.47-.67.4-.98-.1-.44-.17-.9-.22-1.37-.03-.25-.11-.52-.24-.8a48 48 0 0 0-.38-.8.84.84 0 0 1 .1-.04c.07-.02.1-.06.07-.13l.01-.01c.03 0 .06 0 .08.03l.18.12a.52.52 0 0 0-.17.05.08.08 0 0 0-.04.04.08.08 0 0 0 0 .07l.43.85c.19.42.11.86.26 1.3.1.33.2.76.02 1.1l-.36.62c-.07.1-.04.16.07.2.23.08.41.06.54-.04.12-.1.1-.14-.06-.11a.65.65 0 0 1-.34-.01c-.2-.09-.2-.12.03-.11a18.11 18.11 0 0 1 .43 0 .18.18 0 0 0 .06-.05c.09-.1.08-.19-.03-.28a.1.1 0 0 1-.03-.06.1.1 0 0 1 .03-.07c.07-.08.14-.15.23-.2.13-.1.12-.16-.03-.21a.16.16 0 0 1-.11-.14 139.4 139.4 0 0 0-.17-.9.27.27 0 0 1 .04-.08.16.16 0 0 0 .04-.13c-.08-.44-.12-.86-.4-1.22a.07.07 0 0 1 0-.09c.02-.02.04-.04.08-.04a.08.08 0 0 1 .07.02l.05.03c.04.03.06.02.07-.03 0-.06 0-.1-.03-.14a.98.98 0 0 1-.25-.68c.04-.03.07-.02.09 0ZM36.66 32.48c.04.04.05.08.04.13-.01.07-.04.08-.1.03a.75.75 0 0 1-.22-.6c0-.12.05-.13.12-.04a.4.4 0 0 1 .1.3c0 .07.02.13.06.18ZM35.35 32c.1.18.26.32.45.42a.2.2 0 0 1 .07.06.2.2 0 0 1 .04.08c.07.38.22.7.45.97.17.2.22.51.24.76.04.63.1 1.21.21 1.75a.29.29 0 0 1-.12.29 1 1 0 0 0-.35.47c-.02.07 0 .1.07.1h.66l.02-.01.02-.02a.06.06 0 0 0 0-.05c-.1-.3-.05-.52.15-.7a.21.21 0 0 0 .07-.1.4.4 0 0 1 .15-.23c.07-.05.09-.03.06.05-.05.16-.12.31-.2.45a.28.28 0 0 0-.04.12l-.07.8c0 .04-.03.07-.08.07l-.85.1a.24.24 0 0 1-.2-.07.23.23 0 0 1-.06-.21c.09-.4.46-.67.5-1.04.05-.6.07-1.85-.36-2.42a2.3 2.3 0 0 1-.4-.79c-.07-.29-.34-.47-.56-.68 0-.11.04-.17.13-.18ZM34.24 32.15c-.02.1 0 .21.08.34-.1 0-.2 0-.3-.02-.02 0-.03 0-.03.02a18.78 18.78 0 0 1 .4.08l.11.06c-.05.13-.25.18-.58.16-.06 0-.1.03-.13.09a6.88 6.88 0 0 1-.97 1.78c-.11.14-.2.3-.26.46-.1.28-.3.5-.59.7-.07.04-.07.08.01.12l.56.26c.05.03.08 0 .08-.05l.02-.16a.3.3 0 0 1 .08-.18l.4-.43a.2.2 0 0 1 .13-.07h.07c.05 0 .08-.04.09-.09.05-.24.16-.53.33-.87.36-.71.75-1.31 1.16-1.8.04-.04.03-.06-.02-.06a.79.79 0 0 1 .21-.2c.02-.01.04 0 .05.02l.01.04c0 .55-.55.81-.81 1.24-.25.4-.48.82-.67 1.24-.1.23-.08.44-.08.68 0 .1-.06.15-.17.11-.47-.13-.66.36-.62.73a.18.18 0 0 1-.05.14.2.2 0 0 1-.15.06l-1.08-.05c-.07 0-.09-.04-.07-.1.1-.3.27-.56.52-.77.36-.3.4-.73.69-1.08.32-.4.58-.83.77-1.28.03-.08 0-.12-.08-.12l-.26-.01a.11.11 0 0 1-.08-.04.1.1 0 0 1-.02-.08l.05-.35c.02-.09-.02-.12-.1-.08l-.06.02c-.05.03-.1.01-.11-.04-.1-.18-.07-.34.06-.48a.13.13 0 0 1 .12-.04c.16.03.29.1.38.2.04.04.06.09.06.14l-.02.45c0 .1.03.18.1.23.08.06.11.04.1-.05l-.01-.28c0-.08.01-.16.05-.23a.4.4 0 0 1 .18-.15l.45-.21Z" fill="#03030A"/><path d="M33.8 32.55c.03.06.03.12 0 .18a.07.07 0 0 1-.1.02.06.06 0 0 1-.02-.03c-.03-.06-.02-.12.03-.18a.05.05 0 0 1 .05-.02.05.05 0 0 1 .04.02Z" fill="#FFF7B2"/><path d="m36.96 32.87.08-.04c.08-.04.1-.01.08.06l-.01.06c-.02.07-.07.1-.13.06a.14.14 0 0 0-.05-.02c-.05 0-.07.02-.05.06.03.11.05.26.02.37-.05.23-.05.46.03.69a4.64 4.64 0 0 1 .2 1.24.05.05 0 0 1-.03.03h-.03l-.03-.02a.15.15 0 0 1-.1-.12c-.06-.6-.15-1.17-.27-1.7-.01-.07.01-.1.08-.13a.1.1 0 0 0 .05-.03.1.1 0 0 0 .02-.1.1.1 0 0 0-.04-.05l-.25-.14a.15.15 0 0 1-.07-.1.17.17 0 0 1 .07-.2.14.14 0 0 1 .07-.01c.08 0 .16.02.22.08.04.03.09.04.14.01ZM33.53 34.06a6.4 6.4 0 0 1 .6-1.1.19.19 0 0 1 .1-.02c.03 0 .06 0 .1.02a.07.07 0 0 1 .04.05.07.07 0 0 1-.03.06c-.24.2-.41.46-.53.75a.66.66 0 0 1-.2.29c-.1.08-.13.06-.08-.05ZM24.18 34.54c.05.34.01.7-.1 1.06l-.03.05a.07.07 0 0 1-.04 0c-.02 0-.03 0-.02-.02l.07-1.63.03-.04.04-.02c.03-.02.05 0 .06.03.03.2-.03.38 0 .57ZM32.95 35.17l-.02-.01a.07.07 0 0 0-.1.02l-.33.52a.07.07 0 0 0 .02.1h.02c.03.03.07.02.1-.02l.33-.52a.07.07 0 0 0-.02-.1Z" fill="#03030A"/><path d="M26.44 36v-.03c0-.01 0-.02.02-.03a.12.12 0 0 1 .1-.02.1.1 0 0 1 .09.11c-.01.05-.04.08-.09.1-.05.03-.09.02-.1-.04l-.02-.1Z" fill="#FFF7B2"/><path d="M23.75 35.96c.08-.07.13-.05.13.06v.2a.08.08 0 0 1-.06.07.08.08 0 0 1-.09-.02c-.11-.12-.1-.22.02-.31Z" fill="#03030A"/><path d="m31.88 36 .54.27c.02 0 .03.01.03.03v.04c0 .01 0 .02-.02.03a.06.06 0 0 1-.04.02h-.69l-.03-.02-.02-.02a.06.06 0 0 1 0-.06l.14-.27.04-.03h.05ZM36.92 37l-.62.04a.1.1 0 0 0-.09.1v.02c0 .05.05.1.1.09l.63-.05a.1.1 0 0 0 .09-.1v-.02a.1.1 0 0 0-.11-.09Z" fill="#FFF7B2"/><path d="m23.34 42.15-.44-.4a.13.13 0 0 1-.04-.1V38.9a.08.08 0 0 0-.03-.06.09.09 0 0 0-.06-.03h-.44a.07.07 0 0 1-.06-.03l-.01-.03v-.52a.1.1 0 0 1 .03-.07.1.1 0 0 1 .07-.03h1.95c.07 0 .1.04.1.1v.52c0 .05-.02.07-.07.07l-.58-.02c-.07 0-.1.03-.1.1v3.26c0 .05.02.09.08.1.8.18 1.16 1.18.1 1.44a1.9 1.9 0 0 1-1.55-.27 5.43 5.43 0 0 1-.93-.77v-.07l.03-.02.2-.15c.06-.04.07-.08.03-.13l-.69-.95a.17.17 0 0 0-.13-.07 1.3 1.3 0 0 1-.97-.49c-.15-.19-.14-.37.02-.53.26-.27.69-.07.91.15.08.08.17.08.25.01.12-.1.2-.2.26-.33.04-.07.01-.13-.06-.17a3.4 3.4 0 0 1-.8-.56c-.46-.43-.44-1.28.37-1.29.4 0 .73.18 1 .55.34.47.43 1.03.27 1.65a1.25 1.25 0 0 1-.7.89l-.02.02a.05.05 0 0 0 .01.05l.83.9c.04.05.03.09-.01.12l-.3.26c-.04.04-.04.08 0 .12.58.55 1.3.7 2.16.46.03 0 .05-.02.07-.05a.11.11 0 0 0 .02-.07c-.02-.1-.07-.14-.16-.16-.31-.06-.58 0-.8.14-.02.02-.04.02-.05 0l-.44-.45v-.02c.2-.15.42-.22.64-.23.1 0 .1-.03.04-.1ZM27.68 40.02c-.07.05-.08.1-.02.17.3.31.42.65.38 1.01-.06.54-.61.8-1.1.66-.68-.18-1.18-.81-1.52-1.4a.1.1 0 0 1 .02-.12l.2-.19c.01-.02.03-.02.04.01.23.54.8 1.16 1.44.99.39-.1.38-.55.2-.84a.13.13 0 0 0-.12-.06c-.21.02-.43 0-.64-.08a.26.26 0 0 1-.15-.15l-.19-.48c-.02-.07 0-.1.08-.08.43.1.77.09 1-.02a.34.34 0 0 0 .2-.24.33.33 0 0 0-.09-.3c-.3-.3-.91-.08-1.23.08a.04.04 0 0 1-.05-.01l-.48-.59c-.02-.02-.02-.03 0-.05 1.22-.53 1.98-.2 2.3.98.09.3 0 .54-.27.7ZM18.28 41.17c0-.1-.05-.13-.14-.1-.43.2-.77.2-1.03-.02a6.8 6.8 0 0 1-.9-.95.19.19 0 0 1-.05-.13V38.9a.1.1 0 0 0-.04-.07.1.1 0 0 0-.09-.02.38.38 0 0 1-.17.01c-.04 0-.06-.03-.06-.06l.02-.53c0-.06.03-.08.09-.08h3.86c.04 0 .05.01.05.04v.57c0 .04-.02.07-.07.07l-.58-.02a.1.1 0 0 0-.1.09v3.43c0 .1-.03.1-.1.04l-.59-.56a.33.33 0 0 1-.1-.24v-.4Z" fill="#E31E24"/><path d="M34.96 38.89v1c0 .05-.03.08-.08.08h-1.42c-.1 0-.15.06-.15.16v.05c0 .11.06.16.17.14.36-.06.99-.07 1.26.22.15.17.29.35.43.56.28.42-.01.85-.39 1.08a.13.13 0 0 1-.15-.02l-.89-.83v-.04c.02-.02.03-.02.05 0 .12.1.25.2.39.27.04.03.09.04.14.03.19-.03.31-.1.38-.22.1-.16.07-.28-.11-.36-.45-.2-1.36-.03-1.31.62.05.58.83.97 1.34 1.08h.01a.02.02 0 0 1 0 .03l-.41.3a.07.07 0 0 1-.07.01 3.6 3.6 0 0 1-1.16-.87c-.4-.45-.59-1.23-.03-1.63.06-.03.06-.08.03-.13a7.1 7.1 0 0 0-.15-.2c-.3-.36-.16-.84.33-.9.13-.02.42-.02.89 0 .06.01.1-.02.1-.08l-.02-.35c0-.06-.02-.08-.08-.08H31.7c-.06 0-.1.03-.1.08a220.54 220.54 0 0 0 0 3.56 31.15 31.15 0 0 1-.8-.8V38.9c0-.06-.03-.09-.09-.09h-.97c-.05 0-.08.02-.08.07v3.48c0 .08-.03.09-.08.03l-.63-.64a.29.29 0 0 1-.09-.2v-.67c0-.06-.03-.1-.09-.1-.4 0-.7-.22-.88-.65-.06-.13-.02-.16.1-.07.3.22.9.25.88-.29-.02-.31-.02-.6-.01-.87 0-.06-.03-.1-.1-.1l-.32.01c-.1 0-.2-.03-.26-.11l-.4-.46c-.07-.07-.05-.1.05-.1h12.3c.05 0 .08.02.08.07v.54c0 .04-.03.06-.07.06l-1.08-.02c-.1 0-.11.04-.04.1l.16.17c.04.04.06.1.06.15v.95c-.01.35-.22.56-.62.62h-.01a.03.03 0 0 0-.01.04v.02l1.24 1.1c.05.05.05.1.02.14l-.21.3c-.04.05-.08.05-.13 0l-1.84-1.9c-.16-.15-.25-.37-.16-.58a.3.3 0 0 1 .2-.18.32.32 0 0 1 .25.03l.32.19a.15.15 0 0 0 .2-.06.14.14 0 0 0 .03-.07v-.95c0-.02 0-.03-.02-.04a.06.06 0 0 0-.04-.02l-1.73.01c-.02 0-.04 0-.05.02a2225.5 2225.5 0 0 1-.03 3.62 24.2 24.2 0 0 1-.8-.79V38.9c0-.05-.03-.08-.08-.08h-.73c-.04 0-.07.03-.07.08Z" fill="#E31E24"/><path d="M21.43 38.9v.54c0 .05-.02.07-.07.06-.26-.08-.42-.2-.5-.39-.08-.21 0-.36.25-.44a.26.26 0 0 1 .22.04.25.25 0 0 1 .1.2ZM18.2 40.21c-.29.2-.58.36-.92.34a.35.35 0 0 1-.23-.1.33.33 0 0 1-.1-.24v-1.35c0-.04.02-.05.06-.05h1.22c.03 0 .05.01.05.04v1.23c0 .06-.03.1-.07.13Z" fill="#FFF7B2"/></svg>