<svg width="56" height="56" xmlns="http://www.w3.org/2000/svg"><path fill="#F0F3FA" d="M0 0h56v56H0z"/><path fill-rule="evenodd" d="M52 27.996c0-4.957-10.782-9-24-9s-24 4.043-24 9 10.782 9 24 9 24-4.043 24-9zM45 28c0-4.406-7.637-8-17-8s-17 3.594-17 8c0 4.406 7.637 8 17 8s17-3.594 17-8z" fill="#045CA6"/><path d="M15 32v-8h1.968L18 28v-4h2v8h-1.897L17 28v4h-2zm8.248-3h.504l-.256-3.703L23.248 29zM21 32l1.378-8h2.263L26 32h-1.92l-.17-1.439h-.858L22.884 32H21zm6 0v-6.453h-1V24h4v1.547h-1V32h-2zm8-2.405c0 .8-.208 1.4-.623 1.803-.418.404-1.042.606-1.875.606-.825 0-1.449-.202-1.87-.607-.42-.405-.632-1.005-.632-1.802V26.4c0-.797.21-1.395.63-1.797.42-.401 1.044-.602 1.872-.602.837 0 1.462.199 1.876.597.414.398.622 1 .622 1.802v.6h-2v-.887c0-.508-.1-.725-.507-.725-.395 0-.493.22-.493.725v3.77c0 .509.094.721.502.721.404 0 .498-.212.498-.722V29h2v.595zm1-3.198c0-.796.21-1.395.63-1.796.42-.402 1.043-.603 1.872-.603.836 0 1.462.2 1.876.598.414.398.622.998.622 1.801v3.197c0 .8-.208 1.401-.624 1.805-.417.403-1.04.603-1.874.603-.824 0-1.448-.202-1.87-.606-.42-.405-.632-1.006-.632-1.802v-3.197zm2-.284v3.77c0 .505.09.72.502.72.408 0 .498-.217.498-.72v-3.77c0-.51-.1-.726-.507-.726-.393 0-.493.217-.493.726z" fill="#DD2F2D"/></svg>