<svg xmlns="http://www.w3.org/2000/svg" width="56" height="56"><path fill="#F0F3FA" d="M0 0h56v56H0z"/><path d="M31.5 17.5a3.5 3.5 0 00-3-3.46V9h-1v5.04a3.5 3.5 0 104 3.46zM28 36a3.5 3.5 0 00.5-6.96V24h-1v5.04A3.5 3.5 0 0028 36zm9-11.5a3.5 3.5 0 11-1-2.45V15h1v9.5zM22.5 28a3.5 3.5 0 01-3.5-3.5V15h1v7.05a3.49 3.49 0 016 2.45 3.5 3.5 0 01-3.5 3.5zM15 32.5a3.5 3.5 0 004 3.46v4.54a3.5 3.5 0 101-2.45v-2.39a3.5 3.5 0 10-4-5.6V23h-1v9.5zM37.5 36a3.5 3.5 0 003.5-3.5V23h-1v7.05a3.49 3.49 0 00-6 2.45c0 1.4.82 2.6 2 3.16v2.4a3.49 3.49 0 00-6 2.44 3.5 3.5 0 107 0v-4.54c.16.03.33.04.5.04z" fill="#008A57"/></svg>