<svg width="56" height="56" xmlns="http://www.w3.org/2000/svg"><path fill="#9F2221" d="M0 0h56v56H0z"/><path d="M40.683 37.755a16.03 16.03 0 01-.746.9 9.39 9.39 0 01-.439-.287c-1.124-.772-1.909-2.017-2.335-3.47l-4.095-13.949a5.281 5.281 0 00-10.136 0l-4.095 13.949c-.426 1.453-1.211 2.698-2.335 3.47a9.39 9.39 0 01-.44.286c-.259-.29-.507-.59-.745-.899a5.867 5.867 0 002.723-3.438l4.083-13.835a6.128 6.128 0 0111.754 0l4.083 13.835a5.867 5.867 0 002.723 3.438z" fill="#fff"/><path d="M42.048 35.664A15.928 15.928 0 0044 28c0-8.837-7.163-16-16-16s-16 7.163-16 16c0 2.777.707 5.388 1.952 7.664a3.378 3.378 0 001.701-2.051l4.083-13.835a8.617 8.617 0 0116.528 0l4.083 13.835a3.378 3.378 0 001.701 2.051z" fill="#fff"/><path d="M28 44c3.825 0 7.336-1.342 10.089-3.58-1.712-1.177-2.772-2.972-3.314-4.821L30.68 21.65a2.793 2.793 0 00-5.36 0L21.226 35.6c-.542 1.849-1.602 3.644-3.314 4.82A15.934 15.934 0 0028 44zm3.5-11.5a3.5 3.5 0 11-7 0 3.5 3.5 0 017 0z" fill="#fff"/></svg>