<svg width="56" height="56" xmlns="http://www.w3.org/2000/svg"><path fill="url(#paint0_linear)" d="M0 0h56v56H0z"/><path d="M6.5 25v7H6v-7h.5zm1.498 0H8.5v1c.253-.559 1.333-1 2.185-1C12.079 25 13 26.06 13 27.401V32h-.5v-4.423c0-.958-.417-2.077-1.916-2.077-1.498 0-2.084 1.023-2.084 2.077V32h-.502v-7zM17 25v.5h-1.5V32H15v-6.5h-1V25h1v-.507c0-.968.455-1.493 1.432-1.493.159 0 .418.003.568.029v.515a3.756 3.756 0 00-.43-.045c-.33.026-1.07.045-1.07 1.296V25H17zm4 0c1.84 0 3.001 1.715 3.001 3.5 0 1.79-1.133 3.5-3 3.5-1.87 0-3-1.72-3-3.5 0-1.793 1.158-3.5 3-3.5zm0 .5c-1.526.038-2.5 1.227-2.5 3.03 0 1.8.938 2.947 2.5 2.97 1.562.023 2.5-1.462 2.5-2.97 0-1.51-.974-3.068-2.5-3.03zm10.013 3.256h-4.56c0 1.087.53 2.01 1.67 2.01.744 0 1.505-.332 1.579-.677l1.03.457c-.423.826-1.069 1.454-2.61 1.454C26.142 32 25 30.428 25 28.53c0-1.888 1.106-3.53 3-3.53s3.013 1.53 3.013 3.41c0 .084.008.22 0 .346zM29.6 27.64c0-.858-.72-1.43-1.6-1.425-.882.005-1.547.595-1.547 1.425H29.6zM38 23v9h-1.5v-.902c-.401.584-.86.902-1.67.902-1.852 0-2.848-1.649-2.83-3.5.018-1.851.95-3.5 2.83-3.5.81 0 1.26.367 1.67.985V23H38zm-3.035 3.214c-1.062 0-1.63 1.137-1.607 2.286.023 1.149.538 2.266 1.607 2.266 1.06 0 1.535-1.166 1.535-2.355 0-1.19-.472-2.197-1.535-2.197zM43.5 25H45v6.774C45 33.976 43.556 35 41.77 35c-1.165 0-1.906-.643-2.262-1.279L40.63 33c.285.41.524.721 1.2.721.89 0 1.67-.874 1.67-1.746v-.99c-.503.622-.906 1.015-1.73 1.015-1.81 0-2.783-1.622-2.77-3.45.013-1.828.907-3.5 2.77-3.5.719 0 1.27.163 1.73.592V25zm-1.511 1.406c-1.06 0-1.63 1.11-1.613 2.144.017 1.034.583 2.216 1.613 2.216 1.054 0 1.511-1.214 1.511-2.216 0-1.002-.439-2.144-1.511-2.144zM6 23h.5v1H6zm45.996 5.756H47.45c0 1.087.528 2.01 1.665 2.01.743 0 1.501-.332 1.575-.677l1.027.457C51.295 31.372 50.65 32 49.114 32 47.14 32 46 30.428 46 28.53c0-1.888 1.103-3.53 2.992-3.53s3.004 1.53 3.004 3.41c0 .084.009.22 0 .346zm-1.408-1.117c0-.858-.718-1.43-1.596-1.425-.879.005-1.542.595-1.542 1.425h3.138z" fill="#fff"/><defs><linearGradient id="paint0_linear" x1="10.418" y1="9.712" x2="68.147" y2="76.017" gradientUnits="userSpaceOnUse"><stop stop-color="#1A1E21"/><stop offset="1" stop-color="#06060A"/></linearGradient></defs></svg>