<svg xmlns="http://www.w3.org/2000/svg" width="56" height="56"><path fill="#F0F3FA" d="M0 0h56v56H0z"/><path d="M21.39 18.47l3.47 2.71-.03-4.87 2.27 3.6 1.28-5.39 1 4.38 2.53-5.73-.3 5.02 3.71-5.9-1.6 5.5 4.77-5.87-2.84 5.8 5.68-5.66-4 5.91 6.4-5.25-5 5.83 6.9-4.68-5.87 5.56 7.21-3.96-6.55 5.12 7.28-3.11-7.01 4.51 7.1-2.17-7.25 3.76 6.7-1.15L40 25.3l6.09-.1-7.02 1.92 5.28.96-6.57.89 4.3 1.98-5.9-.17 3.18 2.95-5.05-1.22 1.96 3.8-4.03-2.22.68 4.55-2.88-3.17-.63 5.16-1.64-4.01-1.91 5.58-.35-4.72-3.14 5.84.96-5.28-4.26 5.9 2.22-5.66-5.24 5.78 3.43-5.87-6.06 5.47 4.52-5.9-6.68 5 5.46-5.73-7.09 4.34 6.24-5.36-7.27 3.55 6.8-4.84-7.21 2.66 7.16-4.16L8.4 34.9l7.27-3.33-6.42.63 7.17-2.42-5.7-.42 6.81-1.42-4.8-1.47 6.26-.36-3.76-2.47 5.5.69-2.58-3.4 4.55 1.74-1.32-4.2z" fill="#E85E23"/></svg>