<svg width="56" height="56" viewBox="0 0 56 56" xmlns="http://www.w3.org/2000/svg"><path fill="#F0F3FA" d="M0 0h56v56H0z"/><ellipse cx="28" cy="28.5" rx="20" ry="11.5" fill="url(#axa4khhlr)"/><ellipse cx="28" cy="27.92" rx="17.95" ry="10.41" fill="url(#bxa4khhlr)"/><ellipse cx="28" cy="27.04" rx="17.95" ry="9.53" fill="url(#cxa4khhlr)"/><path d="M28.1 17.5h-.2c-6.16 0-16.81 2.11-17.9 8.85v.29c0 1.36 0 2.7 3.54 2.7 1.77 0 3.94-.19 6.25-.4 2.63-.23 5.44-.49 8.1-.5 2.64.01 5.46.27 8.09.5 2.31.21 4.47.4 6.24.4 3.54 0 3.8-1.42 3.78-2.7v-.3c-1.09-6.73-11.83-8.84-17.9-8.84Z" fill="url(#dxa4khhlr)"/><path d="M28 20.19c-4.9-.05-15.15 1.35-17.85 7.33 0-1.46 1.94-8.98 17.85-9.52 15.91.54 18.86 8.65 16.93 9.77 0-6.24-12.03-7.63-16.93-7.58Z" fill="url(#exa4khhlr)"/><path d="M28.03 18.63H28c-10 .3-13.43 2.88-15.47 5.16 3.2-3.33 11.53-4.11 15.47-4.08h.03c3.94-.03 12.27.75 15.48 4.08-2.05-2.28-5.47-4.85-15.48-5.16Z" fill="url(#fxa4khhlr)"/><path d="M44.78 29.98v.1c0 .13.01.23.13.33.1.08.24.13.24.3 0 .24-.2.29-.68.29h-1.4c-.3 0-.44-.1-.44-.28 0-.2.15-.24.3-.34.06-.05.07-.18.07-.41v-3.35l-.14-.01c-.28 0-.47.07-.62.23-.17.21-.2.46-.53.46-.19 0-.32-.12-.32-.28 0-.45.13-.8.21-.9.1-.11.23-.12.46-.12h3.58c.26 0 .4 0 .5.07.1.1.25.46.25.95 0 .16-.13.28-.32.28-.32 0-.35-.25-.53-.46-.14-.16-.33-.23-.62-.23h-.14v3.37ZM32.38 31c-.25 0-.37-.1-.37-.28 0-.2.12-.24.24-.34.06-.05.07-.18.07-.41v-2.98c0-.15 0-.26-.06-.33-.1-.11-.26-.15-.26-.38s.18-.28.59-.28h2.64c.65 0 .59.04.59.73 0 .3-.07.45-.28.45-.1 0-.15-.22-.32-.37s-.41-.2-.76-.2c-.4 0-.46.17-.46.64V28h.6c.23 0 .37-.03.4-.06.1-.08.13-.22.3-.22.19 0 .28.12.28.36v.44c0 .24-.1.36-.28.36-.17 0-.2-.14-.3-.22-.03-.02-.17-.06-.4-.06H34v1.05c0 .51.06.7.46.7h.3c.3 0 .48-.06.59-.18.18-.2.08-.44.34-.44.21 0 .31.11.31.36 0 .74-.1.91-.57.91h-3.05ZM37.38 31c-.25 0-.37-.1-.37-.28 0-.2.12-.24.24-.34.06-.05.07-.18.07-.41v-2.98c0-.15 0-.26-.06-.33-.1-.11-.26-.15-.26-.38s.18-.28.59-.28h2.64c.65 0 .59.04.59.73 0 .3-.07.45-.28.45-.1 0-.15-.22-.32-.37s-.41-.2-.76-.2c-.4 0-.46.17-.46.64V28h.6c.23 0 .37-.03.4-.06.1-.08.13-.22.3-.22.19 0 .28.12.28.36v.44c0 .24-.1.36-.28.36-.17 0-.2-.14-.3-.22-.03-.02-.17-.06-.4-.06H39v1.05c0 .51.06.7.46.7h.3c.3 0 .48-.06.59-.18.18-.2.08-.44.34-.44.21 0 .31.11.31.36 0 .74-.1.91-.57.91h-3.05ZM25.7 29.6v-3.72c0-.58-.02-.9-.18-.98-.29-.16-.52-.16-.52-.48 0-.32.2-.42.61-.42h1.52c.6 0 .77.1 1.12.66l2.05 3.22v-2.4c0-.36-.02-.55-.25-.72-.14-.1-.32-.13-.32-.42 0-.25.17-.34.55-.34h1.2c.34 0 .52.14.52.39 0 .22-.1.29-.28.38-.26.15-.32.2-.32.6v4.6c0 .79-.01 1.03-.8 1.03-.54 0-.78-.05-1.13-.6l-2.68-4.23v3.4c0 .29 0 .46.12.55.26.17.52.21.52.53 0 .32-.22.35-.68.35h-1.24c-.36 0-.51-.09-.51-.33 0-.24.1-.32.28-.42.25-.16.41-.26.41-.65ZM20.45 26h1.29c.33 0 .5.08.5.27 0 .13-.08.19-.19.25-.12.09-.19.14-.19.34 0 .22.29 1.25 1.06 2.96.67-1.6.86-2.6.86-2.82 0-.24-.08-.32-.26-.41-.17-.1-.26-.15-.26-.3 0-.2.14-.29.43-.29h.84c.3 0 .47.09.47.28 0 .12-.06.2-.15.3-.21.2-.24.47-.32.79a12.05 12.05 0 0 1-1.23 3.3c-.16.22-.44.33-.85.33a.98.98 0 0 1-.63-.19c-.24-.2-.77-1.16-1.25-2.87-.18-.62-.23-1.07-.35-1.28-.05-.1-.22-.16-.22-.34 0-.21.15-.32.45-.32ZM20.32 31h-1.09c-.29 0-.42-.04-.42-.26 0-.2.23-.24.23-.42 0-.1-.07-.39-.2-.86h-1.49c-.13.42-.22.67-.22.76 0 .09.04.16.13.24.08.06.21.1.21.27 0 .2-.16.27-.5.27h-.63c-.23 0-.34-.05-.34-.24 0-.2.1-.23.2-.3.2-.2.23-.58.4-1.12.52-1.73 1-2.74 1.2-3.03.16-.26.34-.31.71-.31.28 0 .48.07.57.2.23.32.5 1.01.88 2.06.43 1.18.6 1.9.8 2.12.12.12.24.18.24.35 0 .24-.2.27-.68.27Zm-1.67-2.22c-.13-.41-.3-.93-.53-1.56-.22.57-.41 1.1-.55 1.56h1.08ZM11.5 30v-2.66c0-.41-.02-.64-.13-.7-.2-.1-.37-.1-.37-.34 0-.23.14-.3.44-.3h1.08c.43 0 .55.07.8.47l1.47 2.3v-1.71c0-.26-.02-.4-.18-.51-.1-.08-.23-.1-.23-.3 0-.19.12-.25.39-.25h.86c.24 0 .37.1.37.28 0 .16-.07.2-.2.27-.19.1-.23.14-.23.43v3.29c0 .56 0 .73-.57.73-.38 0-.55-.03-.8-.44l-1.92-3.01V29.98c0 .2 0 .33.08.4.19.12.38.14.38.37 0 .23-.16.25-.49.25h-.89c-.25 0-.36-.06-.36-.23 0-.18.07-.23.2-.3.18-.12.3-.19.3-.47Z" fill="#fff"/><defs><linearGradient id="axa4khhlr" x1="28" y1="17" x2="28" y2="40" gradientUnits="userSpaceOnUse"><stop stop-color="#00A1E4"/><stop offset=".38" stop-color="#2C3393"/></linearGradient><linearGradient id="bxa4khhlr" x1="16.05" y1="20.87" x2="42.29" y2="33.36" gradientUnits="userSpaceOnUse"><stop stop-color="#084FA3"/><stop offset="1" stop-color="#1B449D"/></linearGradient><linearGradient id="cxa4khhlr" x1="11.65" y1="22.73" x2="44.32" y2="30.52" gradientUnits="userSpaceOnUse"><stop stop-color="#006FBA"/><stop offset="1" stop-color="#1D439C"/></linearGradient><linearGradient id="dxa4khhlr" x1="11.21" y1="29.35" x2="44.02" y2="22.01" gradientUnits="userSpaceOnUse"><stop stop-color="#1397D5"/><stop offset="1" stop-color="#2371B9"/></linearGradient><linearGradient id="exa4khhlr" x1="30.48" y1="17.58" x2="28.38" y2="27.04" gradientUnits="userSpaceOnUse"><stop stop-color="#ABC2E5"/><stop offset="1" stop-color="#1497D5"/></linearGradient><linearGradient id="fxa4khhlr" x1="28.94" y1="22.21" x2="29.08" y2="19.04" gradientUnits="userSpaceOnUse"><stop offset=".15" stop-color="#1197D5" stop-opacity="0"/><stop offset="1" stop-color="#F0F6FC"/></linearGradient></defs></svg>