<svg width="56" height="56" viewBox="0 0 56 56" xmlns="http://www.w3.org/2000/svg"><path fill="#F0F3FA" d="M0 0h56v56H0z"/><path d="M46 34c0-.28.09-.52.26-.71.18-.2.43-.29.74-.29s.56.1.73.29c.18.2.27.43.27.72a1 1 0 0 1-.27.7.94.94 0 0 1-.73.29.96.96 0 0 1-.74-.29 1 1 0 0 1-.26-.7ZM43 21v14h-2V21h2ZM36 34c0-.28.09-.52.26-.71.18-.2.43-.29.74-.29s.56.1.73.29c.18.2.27.43.27.72a1 1 0 0 1-.27.7.94.94 0 0 1-.73.29.96.96 0 0 1-.74-.29 1 1 0 0 1-.26-.7ZM29.2 29h-2.67v-2h2.35c1.15 0 1.72-1 1.72-2.07 0-1.15-.48-1.93-1.71-1.93h-1.87v12H25V21h3.89c2.36 0 3.89 1.39 3.89 3.79a3.19 3.19 0 0 1-3 3.29l-.59.92Zm-.09 6h-3.3l.9-2H29c1.21 0 1.82-1.01 1.82-2.1 0-1.08-.36-1.9-1.63-1.9H27l.03-2h2.8l.5.59c1.82.03 2.68 1.67 2.68 3.32 0 2.4-1.43 4.09-3.89 4.09ZM20 34c0-.28.09-.52.26-.71.18-.2.43-.29.74-.29s.56.1.73.29c.18.2.27.43.27.72a1 1 0 0 1-.27.7.94.94 0 0 1-.73.29.96.96 0 0 1-.74-.29 1 1 0 0 1-.26-.7ZM17 21v14h-2l-5-9.7V35H8V21h2l5 9.76V21h2Z"/></svg>