<svg width="56" height="56" viewBox="0 0 56 56" xmlns="http://www.w3.org/2000/svg"><path fill="#293277" d="M0 0h56v56H0z"/><path d="m43.95 26.48.05.66a5.32 5.32 0 0 1-3.2 1.52 9 9 0 0 1-3.28-.65 8.84 8.84 0 0 0-3.11-.5 6.8 6.8 0 0 1 5.1-2.2 7.8 7.8 0 0 1 4.44 1.17Zm-2.5-7.19a5.25 5.25 0 0 1-2.95 1.12c-.56 0-1.13-.05-1.7-.11-1.53-.16-3.15-.33-4.97.58-2.01 1-3.07 3.1-3.35 4.03-.6 1.12-2.4 3.41-4.67 3.69l-.92.1c-2.79.3-6.36.68-7.58 3.6.91-.91 3.36-2.69 5.88-2.43-.45.17-1.5.72-2.06 1.61.79-.53 2.8-1.61 4.58-1.61 1.78 0 3.13.42 3.58.63-.87.8-3.13 2.42-5.18 2.42-1.3 0-2.05-.16-2.81-.31-.74-.15-1.48-.3-2.7-.3-1.44 0-2.73.74-3.55 1.4a16 16 0 0 1 28.4-14.42Zm2.18 12.27c-.64.25-1.5.46-2.45.46-1.65 0-3.85-.94-4.74-1.41-.68-.34-2.4-1.02-3.85-1.02-1.46 0-3.35 1.26-4.11 1.9-.82.78-3.08 2.35-5.61 2.35-1.76 0-2.93-.29-3.97-.54-.84-.2-1.59-.38-2.5-.38-1.47 0-2.69.63-3.25 1.04a16.02 16.02 0 0 0 30.48-2.4Zm-17.49-2.54c.99.07 3.34-.09 4.86-1.25.76-.58 1.38-1.32 2-2.06.93-1.11 1.85-2.21 3.22-2.73a5.29 5.29 0 0 0-4.93 1.24c-.98.86-1.63 1.62-2.2 2.3-.86 1-1.56 1.81-2.95 2.5Z" fill="#fff"/></svg>