<svg width="56" height="56" viewBox="0 0 56 56" xmlns="http://www.w3.org/2000/svg"><path fill="#C8D9F3" d="M0 0h56v56H0z"/><path fill="#fff" d="M15 12h26v32H15z"/><path fill-rule="evenodd" d="M40 13H16v30h24V13Zm-25-1v32h26V12H15Z" fill="#F50C1C"/><path fill-rule="evenodd" d="M39 14h-3v10.33a10.49 10.49 0 0 0-19 6.17 10.5 10.5 0 0 0 19 6.17V41h3V14Zm-3 17a8 8 0 1 0-16 0 8 8 0 0 0 16 0Z" fill="#3490EF"/><path d="M25 31v5l5-6.5c-.4-1.2-1.5-1.5-2-1.5-2.4 0-3 2-3 3ZM31.5 33v-5l-5 6.5c.4 1.2 1.5 1.5 2 1.5 2.4 0 3-2 3-3Z" fill="#F4081F"/></svg>