<svg width="56" height="56" viewBox="0 0 56 56" xmlns="http://www.w3.org/2000/svg"><path fill="#F0F3FA" d="M0 0h56v56H0z"/><path fill-rule="evenodd" d="M25.33 23 28 18l2.67 5H36l-2.76 4.83L36 33h-5.71L28 37l-2.29-4H20l2.76-5.17L20 23h5.33Zm-.3.58H21l2.08 3.65 1.94-3.65Zm-1.6 4.25 2.26-4.25h4.62l2.27 4.25-2.6 4.55h-3.96l-2.6-4.55Zm-.33.6L21 32.38h4.36l-2.26-3.95ZM26.38 33 28 35.84 29.62 33h-3.24Zm4.26-.63H35l-2.1-3.94-2.26 3.95Zm2.28-5.14L35 23.58h-4.02l1.94 3.65ZM30 23h-4l2-3.75L30 23Z" fill="#77471C"/><path fill-rule="evenodd" d="M28 38a10 10 0 1 0 0-20 10 10 0 0 0 0 20Zm0-.54a9.46 9.46 0 1 0 0-18.92 9.46 9.46 0 0 0 0 18.92Z" fill="#77471C"/><path fill-rule="evenodd" d="M28 45a17 17 0 1 0 0-34 17 17 0 0 0 0 34Zm0-.54a16.46 16.46 0 1 0 0-32.92 16.46 16.46 0 0 0 0 32.92Z" fill="#111"/><path fill-rule="evenodd" d="M21.04 37.71c-.03.36 0 .71.1 1.04.03.1-.12.1-.18.11-.26.05-.57.1-.72.3-.3.42-.32.81-.08 1.2.29.45.72.66 1.31.63a.63.63 0 0 0 .54-.31c.09-.14.05-.2-.11-.14-.59.17-.97 0-1.17-.5-.2-.57.45-.87.89-.6.16.1.29.24.37.43.31.69.72 1.25 1.23 1.68.83.71 2.3.62 2.67-.57.3-.97-.04-1.75-1.04-2.33-.1-.06-.18.06-.16.15 0 .09.05.16.13.2.57.39.75.9.54 1.53-.23.69-1.01 1.22-1.76.87a2.14 2.14 0 0 1-1.06-1.19c-.15-.35.08-.72.36-.92a.4.4 0 0 1 .62.2c.04.15 0 .31-.04.47l-.04.15c-.03.15.2.22.26.08.1-.21.17-.43.22-.67.06-.24-.07-.44-.2-.63-.17-.26-.44-.32-.8-.19-.11.04-.18 0-.22-.1-.29-.84-.7-1.15-1.47-1.54a.55.55 0 0 0-.34-.05.1.1 0 0 0-.06.15c.13.16.23.34.2.55Zm1.33.7-.56-.75c-.09-.12-.29-.04-.26.11l.17 1c0 .02 0 .03.02.05l.31.54c.07.12.27.08.28-.06l.07-.79c0-.03 0-.07-.03-.1ZM35.96 37.71c.03.36 0 .71-.1 1.04-.03.1.12.1.18.11.26.05.57.1.72.3.3.42.32.81.08 1.2-.29.45-.72.66-1.31.63a.63.63 0 0 1-.54-.31c-.09-.14-.05-.2.11-.14.59.17.97 0 1.17-.5.2-.57-.45-.87-.89-.6a.94.94 0 0 0-.37.43c-.31.69-.72 1.25-1.23 1.68-.83.71-2.3.62-2.67-.57-.3-.97.04-1.75 1.04-2.33.1-.06.18.06.16.15a.28.28 0 0 1-.13.2c-.57.39-.75.9-.54 1.53.23.69 1.01 1.22 1.76.87.47-.22.82-.61 1.06-1.19.15-.35-.08-.72-.36-.92a.4.4 0 0 0-.62.2c-.04.15 0 .31.04.47l.04.15c.03.15-.2.22-.26.08-.1-.21-.17-.43-.22-.67-.06-.24.07-.44.2-.63.17-.26.44-.32.8-.19.11.04.18 0 .22-.1.29-.84.7-1.15 1.47-1.54a.55.55 0 0 1 .34-.05c.08 0 .11.1.06.15-.13.16-.23.34-.2.55Zm-1.33.7.56-.75c.09-.12.29-.04.26.11l-.17 1c0 .02 0 .03-.02.05l-.31.54c-.07.12-.27.08-.28-.06l-.07-.79c0-.03 0-.07.03-.1ZM28.07 39.24l-.16.01c-.22.01-.32.02-.52.25a.17.17 0 0 0-.05.1c0 .16 0 .34-.1.48-.09.1-.16.23-.21.35-.14.29.3.48.28.8-.02.3.21.46.48.43.14-.02.26.04.35.18.03.05.08.1.14.12.28.1.4 0 .56-.15.07-.06.14-.15.24-.15.15.01.3 0 .44-.06a.21.21 0 0 0 .1-.08.23.23 0 0 0 .04-.13v-.32c0-.05.02-.1.05-.13l.2-.2a.29.29 0 0 0 .03-.37 1.65 1.65 0 0 1-.29-.69c-.03-.2-.27-.41-.47-.44a.66.66 0 0 1-.3-.1.81.81 0 0 0-.6-.13c-.12.02-.09.22-.21.23Zm1.15.21c-.2.06-.38.02-.52-.1a.44.44 0 0 0-.4-.12c-.05.01-.07.04-.06.08.01.06.05.1.1.11.33.07.69.27 1.02.3.02 0 .05-.01.05-.04a.2.2 0 0 0-.07-.2.13.13 0 0 0-.12-.03Zm-1.45.25c.05-.04.06-.12.03-.16-.04-.05-.11-.05-.16 0-.05.04-.06.12-.02.16.03.05.1.05.15 0Zm1.02.77c0 .18-.14.32-.31.32a.32.32 0 0 1-.32-.32c0-.19.14-.33.32-.33.17 0 .31.14.31.33Zm.83.03c.07.04.14.03.16-.01.03-.05 0-.12-.07-.16-.06-.04-.14-.03-.16.02-.03.04 0 .11.07.15Zm-2.25.02c-.02.04-.07.06-.12.04-.06-.02-.09-.08-.07-.12.01-.04.07-.06.12-.03.05.02.08.07.07.11Z" fill="#111"/><path d="M29.24 15.54a.16.16 0 0 0-.15.03c-.45.03-.75-.17-.9-.58a.22.22 0 0 0-.11-.13.38.38 0 0 0-.36.01.2.2 0 0 0-.1.15l-.05.31c-.01.1-.05.11-.13.06-.28-.21-.43-.48-.45-.8v-.05a.12.12 0 0 1 .08-.07l.05-.01 1.1.04c.05 0 .1-.02.15-.06a.86.86 0 0 1 .68-.2c.01 0 .03 0 .05-.02a.09.09 0 0 0 .03-.04l.03-.09a.08.08 0 0 0 0-.07.07.07 0 0 0-.08-.03c-.2.04-.38.03-.56-.04-.07-.02-.13-.03-.2-.02l-1.36.15a.18.18 0 0 1-.15-.05.19.19 0 0 1-.05-.14v-.08c0-.03.02-.06.04-.09a.13.13 0 0 1 .08-.04 14 14 0 0 1 2.96.05c.13.02.18.1.15.23 0 .07-.05.1-.11.11l-.2.02a.18.18 0 0 0-.11.05.2.2 0 0 0-.06.1l-.07.35c-.02.06-.06.09-.12.07-.29-.06-.59-.01-.89.14-.05.03-.07.07-.05.12.08.21.23.31.44.3.08 0 .15-.04.2-.1a.96.96 0 0 1 .22-.21.23.23 0 0 1 .35.11c.02.04.02.1.01.14-.04.2-.16.33-.36.38ZM22.9 15.26c-.05-.1-.13-.15-.24-.13l-.25.05c-.15.03-.18.11-.12.24l.74 1.5c.07.15.03.22-.12.23h-.1a.28.28 0 0 1-.28-.17l-.54-1.14c-.08-.18-.21-.23-.39-.15l-.1.05c-.17.09-.2.2-.1.36.33.46.44.76.35.92-.04.06-.1.09-.17.06l-.47-.13a.2.2 0 0 1-.1-.3.44.44 0 0 0-.02-.54c-.03-.06-.08-.07-.14-.04l-.3.17c-.1.05-.15.02-.14-.1.01-.13.01-.28.15-.35l2.3-1.12c.06-.03.07-.07.03-.13-.23-.34-.51-.43-.83-.28a.14.14 0 0 1-.06.02c-.19 0-.23-.36-.03-.4.77-.2.84.59 1.46.7.06 0 .07.03.03.07-.14.12-.22.31-.15.5l.57 1.46c.06.14.01.2-.13.2-.16-.01-.31-.06-.37-.23l-.49-1.32ZM30.35 14.4c-.05.15 0 .31.13.36.13.05.27-.03.33-.18.05-.15 0-.3-.13-.36-.13-.04-.28.04-.33.19ZM30.54 15.83c.12-.1.14-.28.05-.4-.1-.1-.27-.1-.39.01-.12.1-.14.29-.05.4.1.1.27.1.4 0ZM16.52 35.27a.88.88 0 0 0 .04-.04.18.18 0 0 0 0-.24l-.45-.48c-.05-.05-.11-.06-.17-.02l-.48.3c-.06.04-.1.1-.12.17-.02.06 0 .14.03.2l1.18 2.13c.09.15-.16.36-.25.22a17.28 17.28 0 0 1-1.54-3.03.35.35 0 0 1 0-.24c.04-.11.1-.12.16-.04.06.06.12.1.19.13.05.02.1.02.14 0l1.5-.7c.05-.03.1-.01.12.04.05.08.05.16 0 .24-.08.1-.16.21-.26.3-.06.06-.07.13-.03.2l.3.49c.04.05.04.1.01.16l-.3.55a.25.25 0 0 0-.03.17c.05.24.17.45.36.64.06.05.12.07.2.04.22-.1.36-.3.4-.61.01-.02.02-.03.04-.02h.1c.03 0 .04.02.04.04 0 .55-.23.92-.71 1.1a.21.21 0 0 1-.24-.07 3.15 3.15 0 0 1-.55-1.02.38.38 0 0 0-.11-.17 1.6 1.6 0 0 1-.47-.78.14.14 0 0 1 .12-.17c.24-.01.39.3.5.47.08.11.18.13.28.04Z" fill="#111"/><path fill-rule="evenodd" d="M25 15.44c.32.4.68.42 1.09.08.07-.06.1-.05.11.05 0 .28.13.43.39.45a.1.1 0 0 0 .1-.12l-.32-1.62c-.03-.11.07-.21.16-.26.17-.1.05-.33-.12-.32a.97.97 0 0 0-.35.07.42.42 0 0 1-.23.02.68.68 0 0 1-.44-.28.45.45 0 0 0-.2-.15c-.57-.22-1.6-.52-1.8.32a.27.27 0 0 0 .05.23c.13.19.18.38.14.59-.01.07.02.11.09.13.1.02.18.09.21.2.14.42.26.88.36 1.37.03.13.14.24.28.26l.08.01c.11.02.16-.03.13-.14l-.43-1.66c-.03-.12.01-.2.14-.23l1.27-.3c.2-.03.29.04.29.24V15c0 .07-.03.12-.1.16l-.43.25c-.13.07-.2.03-.23-.1l-.01-.07c-.03-.12.01-.2.13-.26l.35-.16c.12-.05.09-.18.05-.27-.08-.17-.2-.2-.35-.1l-.46.28a.27.27 0 0 0-.13.21c0 .18.05.35.17.5Zm-.95-1.23 1.2-.34.06-.02c.09-.08.05-.24-.07-.26l-1.06-.14c-.04 0-.08 0-.11.03l-.24.22a.15.15 0 0 0-.04.15l.1.27c0 .03.03.06.06.07.03.02.07.02.1.02ZM34.63 16.1a.2.2 0 0 1-.12-.03 3.7 3.7 0 0 0-.9-.39.35.35 0 0 0-.28.03.37.37 0 0 0-.17.22c-.12.42-.07.79.15 1.1.06.09.1.08.11-.03.02-.2.02-.4-.02-.6a.26.26 0 0 1 .09-.24.24.24 0 0 1 .25-.04l.64.28c.1.04.06.15.02.23-.16.35-.4.86-.8.84-.07 0-.11.02-.13.09-.19.48.08.67.36.88.4.3 1.06.46.53-.57a.2.2 0 0 1 0-.2l.74-1.46a.23.23 0 0 1 .17-.12l.12-.02c.24-.05.25-.14.04-.26-.6-.37-1.23-.7-1.87-.97-.08-.04-.12.04-.16.1-.04.08-.03.14.05.19l1.32.74.03.02c.08.1-.1.2-.17.21Zm-.89 1.82c.09.2.22.34.4.46l.02.03c.01.04.04.05.1.02a.06.06 0 0 0 .02-.07l-.27-.6a.12.12 0 0 0-.2-.02l-.05.06a.11.11 0 0 0-.02.12ZM37.07 19.37c-.5-.11-.68-.43-.56-.95a.15.15 0 0 0-.07-.17l-.4-.27c-.06-.03-.1-.02-.14.03-.08.1-.26.2-.34.05-.13-.23-.2-.46-.2-.7a.2.2 0 0 1 .1-.2.15.15 0 0 1 .11 0c.08.01.13.06.13.15a.07.07 0 0 0 .01.03c.07.1.12.09.13-.04.02-.2.1-.27.19-.35.06-.05.12-.1.16-.2a.15.15 0 0 0 0-.1c-.04-.12-.11-.14-.21-.06a.46.46 0 0 0-.16.27c-.04.2-.1.21-.18.02a.7.7 0 0 1-.04-.35c.02-.17.12-.27.3-.29.4-.04.48.2.55.51.08.31-.04.46-.21.67l-.03.03c-.05.06-.04.12.01.18.23.23.47.4.72.5.15.08.26.03.33-.13.05-.14-.15-.43-.6-.86-.05-.06-.07-.35.02-.28.4.3.74.63 1.08.95.25.24.5.49.79.72.47.38.94 1.38 1.27 1.9.04.08.16.08.2 0 .15-.25.15-.54-.01-.86-.13-.26.33-.44.38-.07.18.95-.5 1.32-.3 1.53.1.1.18.2.24.32.3.6.6 1.17.9 1.73.06.1-.03.22-.14.2a.35.35 0 0 1-.17-.1.18.18 0 0 0-.23-.05l-1.36.79c-.1.06-.25-.02-.26-.14-.02-.22.08-.37.3-.45.09-.03.1-.07.02-.12-.4-.26-.46-.65-.18-1.15.37-.68 1 .07.98.55-.01.4-.47-.23-.52-.3a.21.21 0 0 0-.23-.07c-.12.04-.16.13-.11.26.07.2.2.36.42.47.08.04.16.05.24 0l.45-.22a.15.15 0 0 0 .08-.2l-.66-1.6c-.02-.04-.06-.05-.1-.03-.5.31-.98.67-1.4 1.06-.1.09-.16.07-.2-.05l-.05-.18a.2.2 0 0 1 .06-.22l.4-.35a.16.16 0 0 0 .04-.19.7.7 0 0 0-.18-.28.19.19 0 0 0-.18-.05.47.47 0 0 1-.2 0 .17.17 0 0 1-.12-.14.84.84 0 0 1 .06-.63.14.14 0 0 1 .14-.08c.09 0 .16.04.22.1.04.06.09.07.14.01.05-.06.12-.1.2-.14.06-.03.1-.1.09-.18l-.1-.57a.25.25 0 0 0-.3-.2.24.24 0 0 0-.12.06c-.44.43-.82.86-1.15 1.3a.12.12 0 0 1-.2-.03c-.12-.3-.06-.52.17-.7.07-.04.06-.07-.02-.1Zm.19-.85.3-.3c.06-.08.13-.08.2 0l.09.09c.09.1.1.2.01.31-.34.48-.72.53-1.13.15a.2.2 0 0 1-.07-.15c0-.08.07-.16.16-.14l.25.08c.07.03.13 0 .19-.04Zm1.48 1.7.25-.16a.16.16 0 0 1 .22.05l.19.3c.05.07.02.18-.05.23l-.25.16a.16.16 0 0 1-.22-.05l-.19-.3a.17.17 0 0 1 .05-.23ZM16.77 22.73c.03.39-.18.66-.61.8a.46.46 0 0 1-.22.02.48.48 0 0 1-.4-.48c.01-.33.15-.61.4-.85.07-.06.02-.14-.03-.2-.06-.06-.12-.06-.18 0-.22.27-.4.58-.53.92a.51.51 0 0 1-.12.18.57.57 0 0 1-.18.13c-.03.01-.07.02-.1.01a.09.09 0 0 1-.07-.12 22 22 0 0 1 .9-1.77c.12-.18.25-.37.27-.6.01-.07.04-.13.08-.18.25-.3.48-.64.67-.99.24-.44.57-.78.9-1.13l.55-.6c.2-.27.3-.23.3.1-.01.18.03.34.16.46.37.33.73.68 1.07 1.05.05.05.1.08.18.08l.25.02c.07 0 .1.04.11.1.03.67-.34 1.04-1.1 1.12-.16.02-.15-.27 0-.29.42-.06.68-.26.77-.59.04-.16-.26-.18-.31-.04a.36.36 0 0 1-.25.24c-.11.02-.16-.02-.15-.13l.02-.28a.17.17 0 0 0-.08-.16 1.68 1.68 0 0 1-.47-.43c-.07-.1-.14-.1-.22 0l-.43.5a.27.27 0 0 0-.01.33l.08.07c.15.09.33.12.52.11.12 0 .11.24 0 .25-.2.02-.38-.02-.57-.1-.08-.04-.12-.02-.15.06a.83.83 0 0 1-.44.5c-.25.13-.03.4.19.38.2-.01.4-.04.6-.07.14-.03.13.26-.02.27l-1.26.1a.22.22 0 0 1-.23-.25l.06-.3c.04-.2-.18-.35-.35-.25a.87.87 0 0 0-.46.72c0 .09.03.15.11.2l1.43.76c.1.05.1.11.03.2-.2.19-.4.21-.6.06-.08-.05-.11-.03-.1.07Zm.72-2.93c.14.3.06.57-.25.78a.1.1 0 0 1-.13 0l-.43-.26a.06.06 0 0 1 0-.1.5.5 0 0 0 .2-.43c0-.05.02-.1.06-.14l1.04-1.09c.06-.06.29-.05.26.07l-.01.02c-.22.3-.45.59-.7.86a.27.27 0 0 0-.04.3Zm-1.42 3.53c-.11-.02-.15-.28-.09-.56.07-.29.2-.5.32-.48.1.03.15.28.08.57-.06.29-.2.5-.31.47Z" fill="#111"/><path d="M15.15 26.96c-.04.11-.06.23-.05.34 0 .06.03.1.09.1.2.04.27.16.19.36a.68.68 0 0 1-.45.4.16.16 0 0 1-.2-.1c-.05-.21-.2-.31-.45-.31a.32.32 0 0 0-.2.07c-.05.05-.09.1-.1.18-.13.5.02.73.44.7.5-.04 1-.06 1.45-.06.08 0 .11.04.1.11-.05.24-.2.35-.44.34-.1 0-.15.05-.13.16.07.54.1 1.1-.59 1.2a.18.18 0 0 1-.17-.08l-.25-.32c-.07-.1-.24-.05-.25.08l-.05.48c-.02.2-.35.12-.35-.07.03-.76.03-1.49.01-2.17-.03-.86.12-1.6.28-2.4.02-.08.06-.18.17-.14.02 0 .04.02.05.04.1.16.2.3.4.32l1.32.21c.27.05.3.16.07.33-.17.12-.41.16-.72.12-.04 0-.08 0-.1.02a.16.16 0 0 0-.07.09Zm-.45-.29-.28-.05a.14.14 0 0 0-.16.12l-.07.4c-.01.08.04.16.12.17l.28.05c.08 0 .15-.04.16-.12l.07-.4a.14.14 0 0 0-.12-.17Zm-.48 3.08c.14-.15.5-.23.56.05.02.08.05.16.1.22.09.1.14.08.17-.05.05-.23.02-.48-.1-.74a.17.17 0 0 0-.17-.12h-.56c-.06 0-.1.02-.1.08-.04.17-.05.35-.02.53.02.1.06.1.12.03Z" fill="#111"/><path fill-rule="evenodd" d="M40.93 30.38c-.34.22-.45.5-.32.82.02.07 0 .1-.07.1h-.51c-.11 0-.17.05-.18.16l-.02.1c0 .1.04.17.15.17l.27.02c.48.02 1.08.05 1.4.33.04.04.1.06.16.06.2-.02.6-.04.7.2.04.1.05.21.04.32-.02.26.05.28.2.06.16-.24.17-.48.01-.71a.22.22 0 0 0-.17-.1l-.5-.04a.15.15 0 0 1-.14-.18c.1-.55.17-1.14.25-1.76.02-.2.02-.4.02-.61 0-.26 0-.52.05-.77.05-.26.05-.51.01-.76l-.3-1.8c-.01-.15-.28-.21-.33-.05v.05l.05.47c.01.09-.03.13-.12.1a.34.34 0 0 0-.2.02c-.09.03-.16 0-.21-.09a.5.5 0 0 1-.06-.28c0-.1-.12-.17-.2-.11-.37.28-.66.62-.88 1.03a.16.16 0 0 0 0 .14c.04.1.08.1.14.01l.27-.42c.06-.09.14-.12.24-.1.16.03.37.14.28.34a.83.83 0 0 0-.07.55.15.15 0 0 1-.1.17l-.49.1a.28.28 0 0 0-.21.26l-.01.1c-.01.14.05.2.19.15.44-.13.94-.22 1.5-.28.2-.02.3.08.3.3 0 .12-.03.24-.08.36a.43.43 0 0 1-.4.29c-.2.01-.35-.08-.44-.28-.05-.1-.11-.12-.19-.02l-.33.4a.15.15 0 0 0 .07.24.3.3 0 0 1 .17.11c.04.07.06.2.07.33 0 .12.02.23.05.32.03.08.01.14-.06.18Zm.27-3.28-.02.52c0 .07.06.13.12.13h.5c.06 0 .12-.07.1-.14-.01-.1-.01-.88-.28-.76l-.35.15a.12.12 0 0 0-.07.1Zm.01 2.48c0-.01 0-.03.02-.04a.05.05 0 0 1 .03-.01h.32c.05 0 .1 0 .16.02.13.05.24.17.24.32v.04c0 .1-.04.19-.11.26a.43.43 0 0 1-.28.1h-.32a.05.05 0 0 1-.06-.05v-.64Zm.56 1.25a.12.12 0 0 0-.06-.13.11.11 0 0 0-.06-.02l-.63.03c-.05 0-.1.04-.1.1l-.06.33.01.08.07.05.54.2c.25.09.27-.54.29-.64ZM14.32 31.77c-.02-.1.02-.16.11-.17l1.3-.24a.43.43 0 0 0 .37-.4c0-.12-.05-.17-.18-.13-.64.2-1.3.27-2 .24-.08 0-.15.08-.13.17.01.06 0 .11-.02.17a.34.34 0 0 1-.11.14c-.39.27-.56.63-.53 1.08.04.56.54.61.9.25.14-.13.22-.11.27.07l.06.28c.05.3.1.6.37.8.07.04.1.03.1-.06 0-.38-.08-.75-.23-1.12-.02-.05.1-.12.14-.06l.07.14c.19.35.44.81.88.51.4-.27.51-.63.33-1.08-.02-.07 0-.11.05-.15.12-.06.2-.15.25-.26.05-.1.01-.15-.1-.13a.55.55 0 0 0-.26.1.3.3 0 0 1-.29.05.2.2 0 0 0-.17 0c-.26.15-.25.54.02.67.02.01.08 0 .17-.01.09-.02.14.01.16.1a.5.5 0 0 1-.02.28.26.26 0 0 1-.43.1 1.14 1.14 0 0 1-.32-.65.17.17 0 0 0-.16-.14.72.72 0 0 0-.26.05c-.07.02-.12 0-.16-.06-.1-.15-.15-.34-.18-.54Zm-.18.67-.12-.7c-.01-.13-.18-.16-.24-.06l-.24.38a.14.14 0 0 0-.03.07l-.01.41c0 .07.04.13.1.14h.06l.37-.08c.04-.01.07-.03.09-.06a.14.14 0 0 0 .02-.1Z" fill="#111"/><path fill-rule="evenodd" d="M39 36.06a.72.72 0 0 0 0-.54.3.3 0 0 1 .15-.37c.35-.16.58-.07.68.27.05.14.2.24.35.2a.3.3 0 0 0 .13-.06l.28-.23a.28.28 0 0 0-.07-.47l-1.49-.6a.14.14 0 0 1-.06-.05c-.08-.12-.1-.2-.05-.24.12-.1.26-.13.41-.07l1.26.5a.3.3 0 0 0 .4-.16l.03-.06c.1-.2.04-.33-.2-.36-.4-.05-1.01-.22-.78-.78.27-.65.58-.57.88-.5.19.05.37.1.55-.03.2-.16.28-.1.23.15-.11.5-.22 1.03-.44 1.52l-.31.75c-.19.44-.37.88-.59 1.3l-.62 1.2c-.06.11-.24.09-.27-.04l-.04-.19a.3.3 0 0 0-.11-.16c-.24-.18-.9-.64-1.2-.65-.04 0-.07.01-.1.03-.11.05-.14.02-.09-.1a.5.5 0 0 0 .05-.23c-.01-.16.16-.28.3-.2l.53.25c.07.03.16 0 .19-.08Zm2.13-2.66a.08.08 0 0 1-.1.05l-.21-.07a1.38 1.38 0 0 1-.35-.17c-.08-.07-.12-.13-.1-.17l.01-.06c.06-.16.45-.02.57.02l.21.07c.02.01.04.02.04.04.01.02.02.04 0 .06l-.07.23Zm-1.46 2.48.23.14a.2.2 0 0 1 .06.27l-.16.26a.19.19 0 0 1-.26.07l-.23-.15a.2.2 0 0 1-.06-.27l.16-.26c.05-.1.17-.12.26-.06Z" fill="#111"/><path d="M30.62 28.97v-1.94h.4v1.65H32v.3h-1.38ZM30.26 27.68h-.4a.41.41 0 0 0-.19-.27.51.51 0 0 0-.16-.07.7.7 0 0 0-.5.06.55.55 0 0 0-.22.23.8.8 0 0 0-.08.37c0 .15.02.27.08.38.05.1.12.17.21.23.1.05.2.07.32.07.07 0 .13 0 .19-.02a.54.54 0 0 0 .16-.07.44.44 0 0 0 .11-.11.4.4 0 0 0 .07-.15h.4a.7.7 0 0 1-.1.26.8.8 0 0 1-.19.21.94.94 0 0 1-.28.15c-.11.03-.23.05-.36.05-.2 0-.37-.04-.52-.12a.88.88 0 0 1-.37-.34 1.04 1.04 0 0 1-.13-.54c0-.21.05-.39.14-.54.08-.15.2-.26.36-.34a1.24 1.24 0 0 1 .86-.07c.1.03.2.07.29.13a.74.74 0 0 1 .3.5ZM26.54 28.97h-.43l.78-1.94h.5l.78 1.94h-.43l-.59-1.54h-.02l-.59 1.54Zm.02-.76h1.16v.28h-1.16v-.28ZM25.82 27.03v1.94h-.36l-1.04-1.32h-.02v1.32H24v-1.94h.36l1.04 1.32h.02v-1.32h.4Z" fill="#77471C"/></svg>