<svg width="56" height="56" viewBox="0 0 56 56" xmlns="http://www.w3.org/2000/svg"><path fill="#9A0000" d="M0 0h56v56H0z"/><path fill-rule="evenodd" d="M5 32v-8h3.35c.64.04 2.14.47 2.93 1.87l1.62 2.9.01.04c.13.3.37.86 1.09.99V24h3v8h-3.17a3.8 3.8 0 0 1-3-1.8l-1.71-3.03c-.13-.3-.4-.92-1.12-.92V32H5Zm13-8H41.23l3.55 5.9 3.31-5.9H51l-4.57 8h-3.31l-3.6-6H36v6h-3v-6h-3.2c.13.33.2.68.2 1.04v1.92c0 1.68-1.54 3.04-3.44 3.04H18v-8Zm3 2h4.78c.67 0 1.22.48 1.22 1.08v1.84c0 .6-.55 1.08-1.22 1.08H21v-4Z" fill="#fff"/><circle cx="17.5" cy="28" r="1.5" fill="#FF2A35"/></svg>