<svg width="56" height="56" viewBox="0 0 56 56" xmlns="http://www.w3.org/2000/svg"><path fill="#F0F3FA" d="M0 0h56v56H0z"/><path d="M21.77 26.36c1.25-.46 2.4-1.11 3.39-2.02.9-.82 2.1-1.2 3.25-1.23.05 0 .08.03.09.07v.07c.01.02 0 .04-.02.04-.96.1-1.95.5-2.63 1.24a7.4 7.4 0 0 1-2.49 1.87c-.57.25-1.22.15-1.83.17-.22.01-.22-.02-.02-.1.08-.04.17-.08.26-.1Z" fill="#D8251E"/><path d="M23.19 25.5c-.02.01-.03 0-.04-.01v-.04c.54-.4.96-.78 1.26-1.14.6-.72 1.34-1.18 2.25-1.15.16 0 .16.03.01.1-.63.24-1.19.4-1.7.91-.53.54-1.13.98-1.78 1.33ZM25.64 26.01c.02.1.03.18 0 .24-.01.07-.06.11-.13.12-.48.05-.61.5-.92.83-.96 1-2.12 1.49-3.5 1.45-.1 0-.2.04-.26.13a4.65 4.65 0 0 1-2.16 1.52c-.1.03-.11.01-.04-.07l.53-.5c.03-.02.03-.05 0-.07l-.06-.06c-.02-.02-.04-.02-.06 0a3.66 3.66 0 0 1-.83.63.2.2 0 0 1-.09 0c-.59-.2-1.11-.61-1.63-.96-.14-.08-.12-.13.03-.12a6.55 6.55 0 0 0 3.6-1.03.1.1 0 0 0 .05-.08.07.07 0 0 0-.02-.06.07.07 0 0 0-.05-.02c-.8.08-1.54-.07-2.25-.43a1.17 1.17 0 0 0-.56-.14 4.3 4.3 0 0 0-1.75.39l-.02-.06c-.01-.03 0-.05.01-.06a7.38 7.38 0 0 1 2.13-.75 6.02 6.02 0 0 1 2.13.1c.86.16 1.69.3 2.46.42.21.04.23 0 .04-.12-.27-.17-.6-.25-.98-.25-.27 0-.54-.03-.8-.1-1.53-.39-3.2-.6-4.6.3-.5.32-1.07.53-1.74.64-.04 0-.05-.01-.06-.05v-.06c.01-.01.03-.03.05-.03.87-.35 1.56-.99 2.44-1.32.53-.2 1.01-.28 1.47-.26.81.04 1.71.2 2.54.46.4.13.98.18 1.74.16a3.35 3.35 0 0 0 1.94-.61.3.3 0 0 0 .18-.01.24.24 0 0 0-.06.18c0 .04.02.07.06.08.03.02.07.01.1-.02a.28.28 0 0 0 .08-.12.2.2 0 0 0 0-.13.4.4 0 0 0-.1-.03c.03-.06.07-.1.12-.12l.28.05c.25-.08.48-.1.7-.06Z" fill="#D8251E"/><path d="M37.98 25 40 23h-6.57c-2.53 0-5.05 0-7.07 5-1.62 4 2.7 5 4.54 5h5.06l2.02-2H30.9c-1 0-1.92-.6-1.51-3 .4-2.4 2.52-3 3.54-3h5.05Z" fill="#29176D"/><path d="M49.98 25 52 23h-6.57c-2.53 0-5.05 0-7.07 5-1.62 4 2.7 5 4.54 5h5.06l2.02-2H42.9c-1 0-1.92-.6-1.51-3 .4-2.4 2.52-3 3.54-3h5.05ZM10.5 23h-3L4 33h2.5l2-6 1.5 6h3.5l1.5-5h-2c1.2-.4 2.17-.83 2.5-1l1.5-4h-2.5L12 29.5 10.5 23ZM19.5 26c-.8-.4-2-.17-2.5 0l1-3h7.5c-.8.4-2 1.5-2.5 2h-3l-.5 1ZM19 28h-1c-.8-.4-1.33-.17-1.5 0l-2 5H23l2-2h-6c-1 0-4-2-2.5-2a6.2 6.2 0 0 0 2.5-.5V28Z" fill="#29176D"/></svg>