<svg width="56" height="56" viewBox="0 0 56 56" xmlns="http://www.w3.org/2000/svg"><path d="M0 28a28 28 0 1 1 56 0 28 28 0 1 1-56 0Z" fill="#F0F3FA"/><path fill-rule="evenodd" d="m14.83 12.53.5.66c.3.42.71 1 1.15 1.7a16.93 16.93 0 0 1 2.2 4.76c.6 2.53.26 3.96-.28 4.77a2.34 2.34 0 0 1-1.15.91l-.09.03-2.43 1.37c.93-.48 1.78-.76 2.48-.91a6.48 6.48 0 0 1 2.4-.15l.3-.76c.15-.36.3-.72.47-1.07.28-.6.66-1.34 1.04-1.84.4-.52.84-.76 1.25-.78.41-.01.75.2.95.46l.13.17L19.5 26l.04-.13-8.1 8.14-.17-.2a3.37 3.37 0 0 1-.32-.49c-.17-.3-.35-.74-.42-1.27-.13-1.08.24-2.49 2.04-3.92.44-.34.87-.64 1.29-.9L11 28.82l-.13-.1a4.96 4.96 0 0 1-.92-1.01c-.42-.61-.79-1.5-.43-2.46.17-.47.5-.89.87-1.3l.59-.62.01-.01.64-.67c.86-.94 1.7-2.1 2-3.84a58.25 58.25 0 0 0 .72-5.69L14.4 12l.42.53Zm-3.77 15.7c2.08-1.17 4.17-2.34 6.27-3.47.19-.1.44-.28.66-.6.43-.66.79-1.94.21-4.4a16.47 16.47 0 0 0-2.15-4.61c-.46-.75-.9-1.37-1.2-1.78l-.1 1.06c-.1 1.1-.3 2.65-.61 4.46m-3.08 9.34a4.32 4.32 0 0 1-.7-.8c-.37-.55-.64-1.26-.36-2 .14-.39.41-.75.77-1.15l.58-.61h.01l.65-.7a7.87 7.87 0 0 0 2.13-4.08m-2.65 14.36 7.1-7.14a7.7 7.7 0 0 0-1.27.19c-1.14.25-2.72.85-4.44 2.2-1.49 1.19-1.87 2.3-1.87 3.16l3.36-2.68.32.38-3.6 2.87-.02-.02a3.12 3.12 0 0 0 .42 1.04Zm9.38-9.28 2.2-2.14a.6.6 0 0 0-.38-.11c-.22 0-.53.13-.87.58-.34.43-.68 1.09-.95 1.67Zm-5.25-7.94.32 1.38-.5.11-.3-1.38.48-.11Zm-1 3.76.75-1.27.43.24-.74 1.28-.43-.25Zm-1.32 2.07 1.06-.96.34.37-1.06.95-.34-.36Zm7.9 3.64a9.63 9.63 0 0 1 1.02-.75c.45-.25 1.04-.36 1.43.06l.04.05-2.48.64Zm3.04-.7c-.05-.1-.12-.2-.22-.32a1.47 1.47 0 0 0-1.13-.45c-.3 0-.63.13-.92.3-.3.17-.6.39-.87.6-.26.23-.5.44-.66.6-.3.3-.57.6-.85.9l4.78-1.24c-.04-.13-.07-.27-.14-.4ZM10.5 29.38 9.8 31.8a2.34 2.34 0 0 1-1.82 1.44c-1.24.17-2.52.2-3.7-.25-.23-.08-.35-.3-.2-.54l1.16-.43a10.15 10.15 0 0 0 2.8-1.92l.2-.16c.41-.36.91-.5 1.3-.56.33-.05.65-.03.98 0Zm-5.63 3.3.07.01c.95.26 1.98.2 2.95.06a1.8 1.8 0 0 0 1.41-1.1l.54-1.81-.25.02c-.33.05-.73.17-1.05.45l-.2.17c-.73.64-1.83 1.6-2.95 2l-.52.2ZM7 31.92l.85-.43.23.44-.85.43-.23-.44Z" fill="#F25218"/><path d="M43 34v-4h-.7v-1h.7v-.76c0-1.11.58-1.67 1.74-1.67.18 0 .4.03.67.08v1.3a1 1 0 0 0-.37-.1c-.3 0-.49.2-.49.6V29h.86v1h-.86v4M41.57 34H40v-5h1.57v5Zm-1.68-6.1a.9.9 0 0 1 .25-.63.82.82 0 0 1 .62-.27c.24 0 .45.09.61.26a.9.9 0 0 1 .26.65.9.9 0 0 1-.26.64.82.82 0 0 1-.61.27.81.81 0 0 1-.62-.27.91.91 0 0 1-.25-.64ZM35 34v-7h2v5.4h2V34h-4ZM34 30.69a1.4 1.4 0 0 0-.92-.41c-.69 0-1.08.56-1.08 1.2 0 .65.44 1.17 1.11 1.17.33 0 .63-.13.89-.4v1.43c-.39.21-.8.32-1.2.32-1.43 0-2.38-1.11-2.38-2.5 0-1.4.99-2.5 2.4-2.5.45 0 .87.08 1.18.3v1.39ZM28.41 31c-.05-.52-.34-1-.91-1-.54 0-.85.41-.94 1h1.85ZM30 32h-3.48a1 1 0 0 0 1.03 1c.49 0 .82-.24 1-.62l1.22.5c-.3.75-1.01 1.12-2.13 1.12-1.45 0-2.64-.95-2.64-2.46A2.5 2.5 0 0 1 27.55 29c1.58 0 2.45 1.25 2.45 2.74V32ZM49.41 31c-.05-.52-.34-1-.91-1-.54 0-.85.41-.94 1h1.85ZM51 32h-3.48a1 1 0 0 0 1.03 1c.49 0 .82-.24 1-.62l1.22.5c-.3.75-1.01 1.12-2.13 1.12-1.45 0-2.64-.95-2.64-2.46A2.5 2.5 0 0 1 48.55 29c1.58 0 2.45 1.25 2.45 2.74V32ZM17 34v-7h1.89l2.6 3.6c.11.15.33.56.65 1.24-.08-.58-.14-1.04-.14-1.38V27h2v7h-1.87l-2.59-3.61a10 10 0 0 1-.65-1.23c.08.58.11 1.04.11 1.38V34h-2Z" fill="#03027C"/></svg>