<svg width="56" height="56" viewBox="0 0 56 56" xmlns="http://www.w3.org/2000/svg"><path fill="#F0F3FA" d="M0 0h56v56H0z"/><path fill-rule="evenodd" d="M32 34a3 3 0 0 0 3 3h5.68a47.82 47.82 0 0 0-3.44-5A3 3 0 0 0 32 34Zm12.2 3c-1.48-2.44-3.54-5.67-4.73-7A5.98 5.98 0 0 0 29 34a6 6 0 0 0 6 6h11s-.76-1.3-1.8-3ZM24 34a3 3 0 0 1-3 3h-5.68a47.82 47.82 0 0 1 3.44-5A3 3 0 0 1 24 34Zm-12.2 3c1.48-2.44 3.54-5.67 4.73-7A5.98 5.98 0 0 1 27 34a6 6 0 0 1-6 6H10s.76-1.3 1.8-3Z" fill="#663040"/><path fill-rule="evenodd" d="M28 26a3 3 0 0 0 3-3l-.02-.18c-.03-.13-.06-.3-.13-.52-.12-.43-.3-.97-.56-1.6A47.8 47.8 0 0 0 28 16l-.35.66a47.8 47.8 0 0 0-1.94 4.05 15.34 15.34 0 0 0-.69 2.11L25 23a3 3 0 0 0 3 3Zm-1.73-13.06C24.5 16.07 22 20.86 22 23a6 6 0 0 0 12 0c0-2.14-2.5-6.93-4.27-10.06A95.97 95.97 0 0 0 28 10s-.76 1.22-1.73 2.94Z" fill="#663040"/></svg>