<svg xmlns="http://www.w3.org/2000/svg" width="56" height="56" viewBox="0 0 56 56"><path fill="#F0F3FA" d="M0 0h56v56H0z"/><path d="M17.34 25A4.9 4.9 0 0 0 16 28h24a4.9 4.9 0 0 0-1.34-3l-.96-1H18.3l-.96 1zM24 18h8l-3.06-2.92L34 10.04 32.96 9 28 13.93 23.04 9l-1.05 1.04 5.07 5.04L24 18zM16 29c.1.82.54 1.62 1.34 2.24l.96.76h19.4l.96-.76A3.34 3.34 0 0 0 40 29H16zM32 38h-8l3.06 2.92L22 45.96 23.04 47 28 42.07 32.96 47l1.05-1.04-5.07-5.04L32 38zM22.95 19l-3.84 4H36.9l-3.84-4h-10.1zM33.05 37l3.84-4H19.1l3.84 4h10.1z" fill="#802F84"/><path d="M23.71 21L32 32V21h2v14h-1.7L24 24v11h-2V21h1.71z" fill="#F0F3FA"/></svg>