<svg xmlns="http://www.w3.org/2000/svg" width="56" height="56"><path fill="#F0F3FA" d="M0 0h56v56H0z"/><path d="M37.76 24.7l-.3.35c-.52.64-.93 1.51-.93 2.1-.16 0-.66.11-1.4.53-.28.16-.55.43-.85.72-2.52 2.48-.55 1.39-.55 1.39l1.86-2.1c.47-.53 1.03-.43 1.4 0 0 0 0-1.43.8-2.93l-.03-.06zm3.7 9.3h-1.2c-.39-.84-1.4-1.58-2.33-2.1 1.98 2.23 1.58 1.53-.47 0 2.24 2.52-1.14 2.77-1.44.47-.03-.23-.05-.37.04-.47.11.06.42.35.65.58l.28.26c.13 0-.09-.22-.35-.5l-.3-.31c-.26-.3-.28-.47-.28-.56 0-.23.11-.1.28.07.18.2.42.45.65.45-.74-.84-.62-1.4-.46-1.58l.93.53A1.76 1.76 0 0137 29.8l1.4.53a2.7 2.7 0 01-.67-.36c-.56-.43-.73-.96-.73-1.22l.92.51c-.73-.42-.6-1.22-.45-1.57 0 .85 1.25 1.76 1.87 2.1l1.4 1.06s-.19-.57-.44-.84c-.19-.2-.53-.36-.75-.44-.07-.03-.09-.13-.06-.2.1-.24-.09-.52-.15-.62-.43-.74-1.09-.9-.9-1.24.15-.25.83.56.9.18.03-.18-.9-.68-.94-1.57.62.8 1.2 1.04 1.4 1.05-1.11-1.26-1.4-2.1-1.4-3.16.47 0 2.03 2.98 2.8 4.74a6.44 6.44 0 012.8 2.63c.47.17 1.36.46 1.73.88.19.2 1.18.5 2.13.65 1.45.21 3.15.47 3.15 1.1h-7.56c-1.04 0-1.86-.61-2.61-1.17-.2-.14-.38-.28-.57-.4 0 0 .54.9 1.2 1.57z" fill="#83A52D"/><path d="M24.72 20.04c-.17.18-.35.36-.5.54-.9.96-1.6 2.26-1.6 3.16a6.6 6.6 0 00-3.84 1.86l-.4.35.66.95 1.7-1.9c.8-.79 2.04-1.1 2.68-.47 0 0 0-2.14 1.36-4.39l-.06-.1zM31.04 34h-2.06c-.66-1.26-2.38-2.37-3.97-3.16.92.92 1.59 1.58 2.33 2.68.75 1.1-1.6-1.67-3.13-2.68.9.89.98 1.23.73 1.29-.66-.1-2.88-1.9-2.8-2.13.03-.07.4.23.93.5.21.1.54.34.54.34-1.27-1.26-1.26-2.1-.99-2.37l1.85 2.03c-.64-.63-.46-2.82-.46-2.82l1.8.8a4.84 4.84 0 01-1.15-.55c-.97-.63-.65-1.43-.65-1.43s.8.3.97.38c-1.24-.63-1.03-1.83-.77-2.35 0 1.26 2.12 2.63 3.18 3.15l2.39 1.58-.8-2.37c-.63-.63-1.32-.89-1.59-.89H25.8c0-1.9 1.06-1.74 1.6-1.47a2.8 2.8 0 01-1.6-2.37c1.04 1.21 2.03 1.56 2.39 1.58-1.91-1.9-2.39-3.16-2.39-4.74.8 0 3.45 4.47 4.77 7.1 1.6.8 3.18 1.59 4.78 3.95.8.27 2.54.95 3.18 1.58.31.32 1.76.5 3.39.72 2.47.32 5.36.7 5.36 1.65H34.4c-1.78 0-3.18-.92-4.46-1.76-.32-.21-.64-.42-.96-.6 0 0 .92 1.36 2.06 2.36z" fill="#0B3479"/><path d="M16.86 25.16l-.3.34a3.64 3.64 0 00-.93 2c-.16 0-.65.1-1.4.5-.28.15-.55.4-.85.68-.5.47-1.07 1-1.94 1.32-.36.2-.71.56-1.09.95-.6.61-1.26 1.3-2.17 1.55C6.7 32.9 5 34 5 34h2.98c.2-.4.56-.8 1.13-1l1.4-1c.3-.17.93-.7.93-1.5.16.17.65.3 1.4-.5l-.93 1h.46l2.33-3c.46-.5 1.02-.4 1.4 0 0 0 0-1.35.8-2.77l-.04-.07z" fill="#E15231"/><path d="M20.55 34h-1.2c-.39-.8-1.4-1.5-2.33-2 .54.58.93 1 1.37 1.7.44.7-.94-1.06-1.83-1.7.63.68.96 1.32 1.3 2H13.3c.37-.8.78-1.5.93-1.5.07.02.14.23.2.4l.09.22c.18.38.64.28.64-.12 0-.23-.02-.4-.04-.55-.03-.21-.05-.35.04-.45.11.06.42.34.65.55l.28.25c.13 0-.09-.21-.35-.46l-.3-.3c-.26-.29-.28-.45-.28-.54 0-.21.11-.1.28.07.18.18.41.43.65.43-.74-.8-.62-1.33-.46-1.5l.93.5c-.37-.4-.47-.83-.47-1l1.4.5a2.75 2.75 0 01-.67-.34c-.57-.4-.73-.9-.73-1.16l.92.5c-.73-.41-.6-1.17-.45-1.5 0 .8 1.24 1.67 1.86 2l1.4 1-.47-1.5c-.37-.4-.77-.5-.93-.5h-.93c0-1.2.62-1.17.93-1a1.8 1.8 0 01-.93-1.5c.6.77 1.18.99 1.4 1-1.12-1.2-1.4-2-1.4-3 .46 0 2.02 2.83 2.8 4.5.92.5 1.85 1 2.78 2.5a6 6 0 011.86 1c.19.2 1.04.32 1.99.45 1.44.2 3.13.45 3.13 1.05h-7.53c-1.04 0-1.86-.58-2.6-1.11l-.57-.39s.54.86 1.2 1.5z" fill="#E15231"/></svg>