<svg xmlns="http://www.w3.org/2000/svg" width="56" height="56"><path d="M0 28a28 28 0 1156 0 28 28 0 01-56 0z" fill="#F0F3FA"/><path fill-rule="evenodd" d="M36.9 14.7a16 16 0 10-17.8 26.6 16 16 0 0017.8-26.6zm-4.73 8.54a1.72 1.72 0 00-2.2 2.56 1.72 1.72 0 102.2-2.56zm1.6-2.53a1.4 1.4 0 11.2 2.8 1.4 1.4 0 01-.2-2.8zm2.9-1.82a1.08 1.08 0 10-1.07 1.88 1.08 1.08 0 001.07-1.88zm.98-1.24a.64.64 0 11.07 1.28.64.64 0 01-.07-1.28zm1.33-.77a.25.25 0 10-.25.44.25.25 0 00.25-.44zm-16.04 14.4a1.72 1.72 0 103.43.16 1.72 1.72 0 00-3.43-.15zm-2.19 3.47a1.4 1.4 0 011.27-2.12 1.4 1.4 0 11-1.27 2.12zm-1.99 1.44a1.08 1.08 0 102.17.1 1.08 1.08 0 00-2.17-.1zm-1.07 2.03a.64.64 0 111.1-.65.64.64 0 01-1.1.65zm-.8.74a.26.26 0 00.24.27.25.25 0 10-.24-.27zm11.8-18.72c-.25-.15-.54-.21-.83-.2a1.46 1.46 0 10.83.2zm1.93-2.5a1.03 1.03 0 11.14 2.05 1.03 1.03 0 01-.14-2.05zm7.06 6.68a1.03 1.03 0 10-1.01 1.8 1.03 1.03 0 001.01-1.8zm-4.99-8.5a.72.72 0 11.11 1.44.72.72 0 01-.11-1.45zM29.73 29a2 2 0 10-3.46-2 2 2 0 003.46 2zm-1.1-12.88a.63.63 0 11-1.27.06.63.63 0 011.27-.06zm11.74 12.31a.63.63 0 10-1.09-.64.63.63 0 001.09.64zm-.41-5.27a.63.63 0 11-1.26.07.63.63 0 011.26-.07zm-13.8-3.88a1 1 0 10-1.75-1 1 1 0 001.74 1zm-6.33 6.05a1 1 0 11-2.01.14 1 1 0 012-.14zm4-8.25a.68.68 0 10-1.18-.67.68.68 0 001.18.67zm-6.46 6.07a.68.68 0 11-1.35.1.68.68 0 011.35-.1zm-.61 5.3a.68.68 0 10-1.18-.67.68.68 0 001.18.68zm5.07-13.43a.38.38 0 11-.4-.35.38.38 0 01.4.35zm4.29-.8a.38.38 0 00-.04-.54.38.38 0 00-.53.04.38.38 0 00.57.5zM42.33 30.2a.38.38 0 01-.62.31.39.39 0 01-.13-.25.38.38 0 01.75-.05v-.01zm.02-4.12a.38.38 0 00-.02-.28.38.38 0 00-.71.19.38.38 0 00.73.1zm-.97-4.53a.38.38 0 11-.76.05.38.38 0 01.76-.05zm-26.12.27c.06-.07.1-.17.09-.27a.38.38 0 00-.76.05.39.39 0 00.4.35c.1 0 .2-.05.27-.13zm-1 4.05a.38.38 0 11-.75.05.38.38 0 01.76-.05zm.02 4.48c.02-.05.02-.1.02-.15a.38.38 0 10-.76.06.38.38 0 00.54.3.38.38 0 00.2-.21zm16.26-16.37a.38.38 0 11-.76.05.38.38 0 01.76-.05zm4.18 1.2a.38.38 0 10-.66-.37.38.38 0 00.66.37zm-1.87 16.1a1.72 1.72 0 11-3.43.24 1.72 1.72 0 013.43-.23zm-3.6 4.16a1.48 1.48 0 10-2.56-1.47 1.48 1.48 0 002.56 1.47zm-.59 4.52a.7.7 0 01-.65.74.7.7 0 11-.1-1.39.69.69 0 01.74.65h.01zm2.86-2.15a1.01 1.01 0 10-1.76-1.01 1.01 1.01 0 001.76 1zm1.87 1.65a.66.66 0 11-1.3.09.66.66 0 011.3-.09zm1.2 1.9a.34.34 0 10-.23.12c.09 0 .17-.05.23-.12zm-4.11.72a.34.34 0 11-.6-.2.34.34 0 01.23-.12.34.34 0 01.35.3l.02.02zm-4.44.23a.34.34 0 00.03-.2.33.33 0 00-.36-.3.34.34 0 10.33.5zm-4.24-1.23a.34.34 0 11-.67.05.34.34 0 01.67-.05zm1.9-1.25a.66.66 0 10-1.13-.66.66.66 0 001.14.66zm2.44-2.55a.94.94 0 11-1.88.13.94.94 0 011.88-.13zm8.94-2.57a1.4 1.4 0 10-2.43-1.4 1.4 1.4 0 002.43 1.4zm1.98 1.37a1.06 1.06 0 11-2.12.15 1.06 1.06 0 012.12-.15zm1.15 2.05a.63.63 0 10-1.09-.65.63.63 0 001.1.65zm.9.8a.26.26 0 01-.24.28.26.26 0 01-.27-.24.25.25 0 01.5-.03zm2.03-4.19a.26.26 0 00.06-.18.26.26 0 00-.27-.24.25.25 0 10.04.5c.06 0 .13-.03.17-.08zm-1.16-1.84a.63.63 0 11-1.26.06.63.63 0 011.26-.06zm-2.06-1.66a.93.93 0 10-1.62-.93.93.93 0 001.62.93zm-2.23-3.15a1.22 1.22 0 11-.4-.83c.23.21.38.51.4.84v-.01zm-11.92-4.75a1.72 1.72 0 111.77 2.95 1.72 1.72 0 01-1.77-2.95zm-1.7-2.6a1.4 1.4 0 10-.14 2.8 1.4 1.4 0 00.14-2.8zm-2.83-1.76a1.08 1.08 0 111.11 1.86 1.08 1.08 0 01-1.1-1.86zm-1.08-1.4a.64.64 0 10-.07 1.28.64.64 0 00.07-1.27zm-1.29-.64a.25.25 0 11.35.37.25.25 0 01-.35-.37zm4.7 12.6zm-3.38 2.14a1.04 1.04 0 101.02-1.8 1.04 1.04 0 00-1.02 1.8zm-1.52 2a.72.72 0 11-.12-1.44.72.72 0 01.12 1.44zm-1.91 1.16a.33.33 0 10.32-.57.33.33 0 00-.32.57z" fill="#F17A12"/></svg>