<svg xmlns="http://www.w3.org/2000/svg" width="56" height="56"><path fill="#F0F3FA" d="M0 0h56v56H0z"/><path fill-rule="evenodd" d="M43 28H13v7h30v-7zm-2.2 1.69h.86V29H33v.69h.55v2.37c0 1 .64 1.92 1.62 1.94.13 0 .6 0 .98-.14v-1.03c-.64.15-1.62.18-1.67-.7V29.7h.95v1.34c-.09.28-.27.35-.52.15v1.14l.19.02c.08 0 .16.02.24.01.62-.04.91-.47 1.01-1.03V29.7h3.52v.46a.98.98 0 00-.27-.04c-.36 0-.59.38-.7.67-.24-.46-.57-.68-1-.67-.91.02-1.25 1.18-1.25 1.93 0 .71.32 1.96 1.23 1.96.37 0 .53-.04.68-.15v-1.04c-.18.15-.33.17-.44.19h-.01c-.42.06-.5-.6-.49-.86v-.05c0-.33.02-1 .44-.98.42.01.4.43.4.76V32h.86v-.06c0-.33 0-.9.41-.92.3-.02.46.37.44.98-.02.63-.17.98-.46 1-.12 0-.48-.06-.53-.19v1.04c.14.1.42.15.75.15 1.4 0 1.53-2.71.87-3.5v-.81zm-10.6 1.44c.34 0 .52.2.52.58 0 .41-.37.64-.72.44v.9c.3.41 1.02.08 1.27-.2.52-.58.48-1.68.02-2.27a1.16 1.16 0 00-1.63-.18v-.71H32V29h-8.57v.69H24v2.37c0 1 .44 1.92 1.41 1.94.13 0 .46-.04.98-.14v-1.03c-.64.15-1.34.18-1.39-.7V29.7h.67v1.34c-.09.28-.27.35-.52.15v1.14l.19.02c.08 0 .16.02.24.01.62-.04.92-.47 1.01-1.03V29.7H27v1.46c0 .63.32 1.57 1.07 1.6.28 0 .5-.06.68-.2v1.03h.91v-2.1c.14-.23.32-.35.53-.35zm-1.45-1.44v1.63c0 .21-.19.36-.4.35-.23-.01-.37-.22-.35-.68v-1.3h.75zm-7.75 0v.41h-2.02c-.76.03-1.06.74-1.08 1.43-.03.71.4 1.46 1.19 1.48.73 0 1.16-.74 1.16-1.4 0-.2-.02-.6-.2-.76h-.77c.13.12.2.35.18.71 0 .25-.12.38-.34.39-.19 0-.3-.3-.3-.45-.03-.46.11-.7.43-.7H21v2.78h1v-3.89h.2V29h-7.68v.69H15v2.37c0 1 .53 1.92 1.5 1.94.13 0 .46-.04.98-.14v-1.03c-.64.15-1.43.18-1.48-.7V29.7h.76v1.34c-.1.28-.27.35-.53.15v1.14l.2.02c.07 0 .15.02.23.01.62-.04.92-.47 1.02-1.03V29.7H21z" fill="#136B39"/><path d="M28.14 8c2.37 3.8 2.37 7.6 0 11.41-1.94-3.85-2.27-7.66 0-11.41zm9.25 6.17c-1.35 4.3-4.19 6.7-8.51 7.18 1.65-4 4.29-6.67 8.5-7.18zm-.27 5.14c-1.35 4.31-4.19 6.7-8.51 7.18 1.65-4 4.29-6.66 8.5-7.18zm-17.87-5.3c1.35 4.3 4.18 6.7 8.5 7.18-1.64-4-4.28-6.67-8.5-7.18zm.27 5.14c1.35 4.31 4.18 6.7 8.5 7.18-1.64-4-4.28-6.66-8.5-7.18z" fill="#136B39"/><path fill-rule="evenodd" d="M44 36H12v8h32v-8zm-6 1h-2v6h4v-1.5h-2V37zm-6 0h-5v6h2v-2h2v-1.5h-2v-1h3V37zm-13 0h-2v6h2v-3l2 3h2v-6h-2v3l-2-3z" fill="#B7322D"/></svg>