<svg width="56" height="56" viewBox="0 0 56 56" xmlns="http://www.w3.org/2000/svg"><path fill="#F0F3FA" d="M0 0h56v56H0z"/><path fill-rule="evenodd" d="M28 44a16 16 0 1 0 0-32 16 16 0 0 0 0 32Zm0 1a17 17 0 1 0 0-34 17 17 0 0 0 0 34Z" fill="#BF3B3A"/><path d="m40 30-9-11-3 6-1 5h13Z" fill="#F37021"/><path d="M22.5 30H16l12-15 1.5 2.5c-4 6-2.97 11.3-3 11.5 1.2-7.6 5.17-11.5 7-12.5-6.5 8-6.58 15.36-6.5 15.5-3.2-5.2-2-9.5-1-11-3.2 2.8-3.67 7.17-3.5 9Z" fill="#ED1D24"/><path d="M38.77 36c-.24 0-.46-.04-.65-.13-.2-.1-.34-.23-.45-.39-.11-.16-.17-.35-.17-.56h.51c.02.18.1.34.21.46.13.13.31.19.55.19.23 0 .41-.06.54-.18.14-.12.2-.28.2-.47a.55.55 0 0 0-.11-.37.74.74 0 0 0-.3-.21c-.11-.05-.27-.1-.46-.16a4.1 4.1 0 0 1-.59-.2.99.99 0 0 1-.38-.31 1 1 0 0 1-.15-.59c0-.21.05-.4.15-.56.1-.17.25-.3.43-.39.19-.09.4-.13.64-.13.35 0 .63.1.85.27.22.19.34.43.37.73h-.53a.6.6 0 0 0-.22-.39.75.75 0 0 0-.52-.17c-.2 0-.36.05-.49.17a.57.57 0 0 0-.19.46c0 .14.04.25.11.34.08.1.17.16.28.21l.47.16c.25.07.44.14.6.21.14.07.27.18.37.32.1.14.16.34.16.58a1.08 1.08 0 0 1-.57.95c-.18.1-.4.16-.66.16ZM36.25 35h-1.5l-.28 1H34l1.24-4h.52L37 36h-.47l-.28-1Zm-.13-.32-.62-2.03-.62 2.03h1.24ZM32.1 32c.4 0 .73.08 1.02.25.28.16.5.39.65.7.15.3.23.65.23 1.06 0 .4-.08.76-.23 1.07-.15.3-.37.52-.65.68-.29.16-.62.24-1.01.24H31v-4h1.1Zm0 3.57c.47 0 .82-.14 1.06-.4.24-.28.36-.67.36-1.16 0-.5-.12-.89-.36-1.17-.25-.28-.6-.42-1.05-.42h-.64v3.15h.64ZM28.5 36a1.93 1.93 0 0 1-2-2c0-.38.09-.72.26-1.03A2.02 2.02 0 0 1 28.5 32c.37 0 .71.09 1.02.26.3.17.54.4.72.7.17.31.26.65.26 1.04s-.09.73-.26 1.03c-.18.3-.42.54-.72.72-.3.17-.65.25-1.02.25Zm0-.44c.28 0 .53-.07.75-.2.22-.12.4-.3.52-.54.13-.24.2-.5.2-.82 0-.31-.07-.59-.2-.82-.12-.24-.3-.42-.52-.55-.22-.12-.47-.19-.75-.19s-.53.07-.75.2c-.23.12-.4.3-.53.54-.13.23-.19.5-.19.82 0 .31.06.58.19.82a1.38 1.38 0 0 0 1.28.74ZM25.28 36l-1.73-1.83V36H23v-4h.55v1.85L25.29 32h.7l-1.92 2L26 36h-.72ZM21.75 35h-1.5l-.28 1h-.47l1.24-4h.52l1.24 4h-.47l-.28-1Zm-.13-.32L21 32.65l-.62 2.03h1.24ZM19 36l-2.5-2.75V36H16v-4l2.5 2.75V32h.5v4Z"/></svg>