<svg xmlns="http://www.w3.org/2000/svg" width="56" height="56"><path fill="#312A88" d="M0 0h56v56H0z"/><path fill-rule="evenodd" d="M45.8 28a17.8 17.8 0 10-35.6 0 17.8 17.8 0 0035.6 0zm.2 0a18 18 0 10-36 0 18 18 0 0036 0zm-32.07-3.6l.04-.18.34-1.07.25.08-.15.44c-.05.23-.08.48.2.57.5.18.85-.5.74-.93l.34.03.06-.33-.64-.06-.1.3c.16.06.15.26.1.4-.07.21-.2.29-.37.23-.13-.04-.13-.17-.09-.29l.21-.6-.44-.16.12-.33-.26-.08-.24.69a1.1 1.1 0 00-.64.2.96.96 0 00-.35.52c-.1.37.01.64.32.73l.23.02-.1.41.26.07.08-.3 1.16.3.1-.36-1.17-.3zm0-.95l-.22.7c-.06.25-.38.03-.43-.14.04-.2.1-.38.29-.5.13-.06.25-.09.36-.06zm1.76-2.34s.2-.25.32-.18c.12.06.14.22.07.33-.06.11-.2.16-.3.1-.1-.05-.11-.15-.09-.25zm-1 .15l.3.17.74-1.29.23-.3s.15-.15.25.02c.1.17.04.28-.08.42L16 20.2l-.53.92c-.09.2-.12.4.1.53.26.15.49.06.69-.29.2-.35.16-.55-.07-.69l-.22-.04.15-.26c.11.06.2.09.28.1.45.05.85-.45.78-.89l.3.24.02-.02c-.22.27-.24.5-.05.67.14.12.33.08.52-.1a12.6 12.6 0 10.6-.73c-.28-.12-.6-.2-.85-.05l.03-.03-.98-.8.12-.14-.29-.21-1.9 2.85zm3.69-1.4a.77.77 0 00-.31-.11.37.37 0 00-.37.12s-.15.27-.04.34c.12.08.3-.2.3-.2l.22.06-.1.15.3-.35zm-1.52-.55h-.01zm0 .02c.04.05.07.18.08.34.02.25-.13.45-.34.5h-.13c.18-.14.16-.44 0-.57l-.2-.07h-.1l.36-.47.34.27zm1.93-2.55l.29-.24-.17-.2-1.4 1.17.16.2.87-.72.15.19-.36.3-.03.03c-.12.13-.28.29-.14.46.13.15.35.1.52-.04l.4-.35s.13-.1.2 0c.08.08-.07.33-.18.43-.18.15-.31.17-.53.13l-.19.38c.21.03.4-.04.57-.18.09-.07.2-.08.37-.01.07.02.14.06.22.12l.3-.26-.58-.1c.22-.16.54-.47.3-.74-.1-.13-.31-.13-.43-.03l-.51.43s-.12.04-.16 0c-.04-.05.02-.15.02-.15l.59-.5-.28-.32zm1.6.26l-.7-.99 1.34-.82.22-.13.84-.38.08.17-.47.21c-.14.07-.23.13-.26.2l-.01.1-.04-.06-.92.53c-.09.06-.14.1-.16.13-.09.12-.1.25-.02.38.08.14.19.2.32.22.12.01.26-.03.42-.12a.84.84 0 00.31-.27c.06-.11.05-.24-.03-.37l-.16-.14.31-.19c.05.1.13.16.24.17.09 0 .19-.01.3-.07l.48-.2s.18-.07.18.04c0 .1-.11.25-.29.32-.24.11-.43.09-.67.02l-.18.27c.31.1.6.02.9-.1v-.01c.23-.1.71-.32.56-.66-.1-.23-.33-.18-.52-.1l-.44.2s-.17.06-.22 0c-.06-.1.17-.2.17-.2l.58-.26-.16-.35.34-.15s.68-.16.73 0c.05.17-.05.22-.22.28l-.18.03c.07.14.14.24.2.3.19.17.41.2.67.12l.08-.04c.15-.08.3-.17.39-.32l.09.32.35-.1-.3-1.16.36-.09.25 1.18.37-.08-.25-1.17.18-.04-.05-.27-.84.18v.01l-.74.2-.59.2-.6.2-.8.37.04-.03-.52-.06c-.25-.04-.88.06-1.02.1-.51.12-1.1.33-1.25.88-.06.24.08.4.24.55l-.33.23.15.22.25-.17.69.98.3-.21zm1.38-2.47c-.25.11-.51.12-.77.13-.22.01-.44.02-.66.08-.3.09-.85.3-.91.57-.07.26.16.45.16.45l1.28-.82.9-.4zm-1.1 1.4c.1-.1.3-.11.37 0 .07.12 0 .27-.11.33s-.26.05-.32-.07c-.05-.09-.01-.18.06-.26zm3.15-1.6l-.2-.22.54-.18.17.57-.05-.14c.07.2-.22.47-.39.53-.15.05-.27-.01-.4-.1a.5.5 0 00.26-.13c.08-.1.1-.2.07-.32zm4.16-.89h.14v-.27l-1.58.03v.27h.22l.01.87c0 .36.22.79.7.78a.9.9 0 00.6-.23l-.28-.25c-.08.11-.15.22-.3.22-.3 0-.35-.3-.36-.53l-.01-.88h.5l.02.61-.14.23.3.16.19-.32-.01-.69zm1.18.74c.27-.04.5-.16.52-.46.03-.39-.4-.55-.72-.57-.4-.03-.64.1-.66.3 0 .11.06.2.2.25.2.08.36.06.56.02L29 13.6s-.32.04-.32-.08.1-.17.25-.16c.14.01.37.13.36.33-.02.23-.18.31-.42.3l-.63-.06-.01.22.2.01c.04.3.28.5.58.52l.59.05.01-.27-.55-.03c-.15-.01-.18-.1-.22-.22l-.01-.02.34.02zm1.65-.23c.04-.2-.06-.29-.06-.29l.56.15-.11.49.02-.11c-.04.2-.43.32-.6.29-.16-.03-.24-.14-.3-.28.19.1.46-.04.5-.25zm-.26.75c.2.04.4.01.58-.1l-.09.38.36.08.28-1.15.34.1-.31 1.16.35.1.31-1.17.29.08.82.32c.1.09.13.17.08.3-.07.16-.2.13-.33.1l-.6-.23-.09.25.23.09s-.01.3.09.44c.06.1.22.19.22.19l.5.2.1-.27-.44-.17a.88.88 0 01-.14-.27c.13.05.28.1.43.08.18-.02.3-.1.36-.26s0-.3 0-.3l.37.2s1.66.85 1.72.96v.01c.06.1.14.24.06.36-.09.12-.35.02-.35.02l-.34-.24-.15.21.2.14c-.1.24-.08.41.09.63l.52.36.15-.21-.41-.29c-.12-.12-.04-.28-.04-.28.2.15.45.14.58-.05a.43.43 0 00.08-.28l-.02-.12.4.3.24.18-.24.3-.47-.33-.15.22.45.33-.33.42.29.23.74-.94.15.11.16-.2s-1.34-1.08-2.3-1.62c-.35-.2-.9-.47-.9-.47l-1.64-.66-.21-.07a3.37 3.37 0 00-.21-.63c-.1-.18-.23-.34-.38-.48l-.27.26c.17.11.28.2.32.24l.02.02c.09.13.28.39.33.52l-1.2-.31-1.23-.25-.05.27.52.09s.16.06.08.24c-.07.17-.28.15-.5.08 0 .15.01.27.04.36.09.23.26.37.54.42zm4.12.85s.23.1.15.28c-.07.19-.19.16-.32.1-.14-.07-.17-.2-.12-.3.05-.1.19-.13.3-.08zm.45.22l.35.17.08-.17-.95-.47c-.2-.07-.41-.1-.52.14-.13.27-.03.5.33.67.37.18.56.12.68-.12l.03-.22zm3.23 1.62l-.2.18.8.88-.53.47a.58.58 0 01-.33-.16s-.15-.25-.04-.36c.15-.15.38.1.38.1l.1.16.13-.12-.2-.29c-.25-.26-.5-.3-.68-.12-.2.18-.15.46.07.69.07.07.17.14.29.2l.11.04-.18.16.24.28.46-.4.18.09.2.16c.1.15.11.25.01.37-.11.08-.23.04-.35-.12l-.1-.2-.14.1c.02.13.06.24.14.35.2.28.44.35.66.2.34-.26.04-.72-.2-.93l-.23-.17.26-.22.8 1.05.22-.16-1.87-2.23zm1.93 5.32l1.09-.5.54 1.46.08.28-.25.07-.28-.3.07-.14c.1-.36-.23-.93-.65-.78-.42.14-.35.6-.23.92l.2-.06c-.06-.17-.12-.42.1-.5.15-.05.3.05.35.2.03.12 0 .23-.11.31-.06.04-.17.06-.17.06l.07.22.18-.06.26.2-.73.21.1.36 1.19-.36.05.19.27-.08-.16-.57-.16-.47c.16-.17.3-.34.36-.57a.96.96 0 00-.04-.62.69.69 0 00-.3-.37.46.46 0 00-.4 0l-.18.1-.2-.42-.24.1.12.28-1.09.5.16.34zm1.69.3l-.3-.8.02-.02c.1-.07.21-.14.34-.08 0 0 .1.04.15.2.07.15.07.3.01.43a.54.54 0 01-.22.28zm-27.52 5.71l-1.75.12.02.35 1.75-.12.04.51.35-.02-.1-1.38-.35.03.04.51zm.42.93l-2.08.37.06.34.91-.16.12.67-.9.16.05.35 2.08-.37-.06-.34-.82.14-.12-.67.82-.15-.06-.34zm.35 1.65l-2.04.54.34 1.27.34-.09-.25-.93.56-.15.22.84.35-.1-.23-.83.45-.13.25.9.34-.08-.33-1.24zm.62 1.88l-1.9.92.15.3 1.24-.6-.94 1.22.16.32 1.9-.93-.15-.29-1.26.62.95-1.26-.15-.3zm.73 1.45l-1.8 1.11.7 1.12.3-.19-.5-.82.48-.3.46.73.3-.18-.46-.74.4-.25.5.8.3-.2-.68-1.08zm.72 1.15l-1.33 1.7.25.28 1.42-.78-.97 1.3.25.28 1.87-1.07-.23-.26-1.3.76.92-1.2-.27-.3-1.3.7.92-1.14-.23-.27zm2.02 2.1l-1.38 1.6.26.23 1.38-1.6-.26-.23zm.44.42l-1.24 1.7.27.2.8-1.12-.24 1.53.28.2 1.24-1.7-.26-.2-.83 1.14.26-1.55-.28-.2zm1.92 1.27l-.54-.33-1.1 1.81.57.34c.12.07.23.11.33.13.1 0 .2 0 .29-.04.1-.03.2-.1.3-.2a1.86 1.86 0 00.51-.84.93.93 0 00.03-.36.6.6 0 00-.1-.28.97.97 0 00-.29-.23zm-1.15 1.36l.72-1.2.14.08c.12.07.2.13.23.16l.09.17c.01.07 0 .15-.02.24-.03.09-.09.2-.17.33-.07.13-.15.23-.21.3l-.17.13-.16.02a.67.67 0 01-.23-.1l-.22-.13zm2.02-.93l-.9 1.92.32.14.9-1.91-.32-.15zm.93 2.61l.36.13.03-2.23-.35-.12-1.33 1.78.36.12.29-.4.65.22-.01.5zm.05-1.7l-.03.83-.45-.16.48-.66zm2.25 2.23l.37.07-.27-2.2-.37-.07-1.06 1.94.36.07.23-.44.68.13.06.5zm-.18-1.69l.08.82-.46-.1.38-.72zm1.16 1.04h-.35c0 .5.22.75.64.8.24.01.42-.04.55-.15.12-.11.2-.26.2-.45a.76.76 0 00-.03-.32.54.54 0 00-.16-.24 1.3 1.3 0 00-.36-.19.99.99 0 01-.3-.16l-.06-.15.09-.14a.35.35 0 01.22-.04c.1.01.16.04.2.09.05.05.08.13.09.25h.35a.66.66 0 00-.14-.48.66.66 0 00-.46-.2.75.75 0 00-.35.03c-.1.04-.17.1-.23.2a.62.62 0 00-.1.3c-.02.1 0 .19.03.28.03.09.08.16.14.22.07.06.17.12.32.17.16.07.26.11.3.14l.09.1.02.12c0 .08-.04.14-.1.2a.36.36 0 01-.26.05c-.22-.02-.33-.16-.34-.43zm1.62.06l-.34.05c.07.48.31.72.73.7.24 0 .42-.08.53-.2.1-.13.16-.29.15-.47a.77.77 0 00-.07-.32.55.55 0 00-.19-.21c-.08-.06-.2-.1-.39-.15a.97.97 0 01-.32-.12l-.07-.14.07-.15a.34.34 0 01.21-.07c.1 0 .17.02.22.06.06.04.1.12.11.24l.35-.04a.66.66 0 00-.2-.46.66.66 0 00-.48-.15.75.75 0 00-.34.08.52.52 0 00-.2.22c-.06.1-.08.2-.08.31 0 .1.03.2.08.28.04.08.1.15.17.2.07.05.18.1.33.13l.32.1.1.08.03.12c0 .08-.02.15-.08.2a.35.35 0 01-.25.1c-.21 0-.34-.12-.39-.39zm1.42-1.49l-.34.07.21 1.1c.06.31.13.52.2.63.06.1.15.18.26.22.11.05.26.05.44.02.17-.03.3-.1.39-.2.09-.1.13-.2.14-.34 0-.13-.02-.33-.07-.6l-.22-1.1-.34.07.22 1.15c.04.2.06.34.05.4l-.07.17a.34.34 0 01-.18.1c-.1.01-.18 0-.24-.04a.35.35 0 01-.15-.19 2.88 2.88 0 01-.08-.34l-.22-1.12zm1.3-.23l.58 2.03.33-.1-.24-.84.07-.02a.47.47 0 01.17-.03l.13.06.26.24.37.38.4-.12-.31-.34a2.56 2.56 0 00-.29-.27.88.88 0 00-.23-.12.52.52 0 00.28-.28.63.63 0 000-.41.69.69 0 00-.17-.3.44.44 0 00-.24-.14c-.09-.01-.23 0-.4.06l-.71.2zm.83.69l-.25.07-.15-.51.26-.08.28-.06.13.05.08.14.01.18-.08.1a1.3 1.3 0 01-.28.11zm2.6.31l.34-.16-1.52-1.62-.34.16.29 2.2.33-.16-.07-.5.63-.29.34.37zm-1.14-1.25l.54.6-.42.2-.12-.8zm.64-.84l1.09 1.8.28-.16-.71-1.18 1.3.82.3-.18-1.08-1.81-.28.17.73 1.2-1.34-.84-.29.18zm3.4-.54l-.34.11c.07.14.1.26.1.36-.01.1-.05.18-.12.23-.1.08-.21.1-.35.07-.13-.04-.28-.16-.45-.37-.16-.2-.24-.37-.25-.5 0-.14.04-.25.14-.33a.33.33 0 01.24-.08c.09 0 .18.05.27.12l.2-.3a.88.88 0 00-.42-.19.66.66 0 00-.5.15.69.69 0 00-.28.57c0 .26.12.53.34.8.22.27.45.43.7.49.22.04.42 0 .6-.15a.67.67 0 00.24-.4.96.96 0 00-.12-.58zm-.73-1.27l1.47 1.52.94-.91-.24-.26-.7.67-.4-.41.63-.6-.25-.26-.63.6-.32-.33.67-.65-.25-.26-.92.9zm3.48-1.71l-.31.18c.1.12.16.23.17.33.02.1 0 .18-.06.25a.36.36 0 01-.32.14c-.14 0-.3-.1-.52-.26-.2-.15-.32-.3-.36-.43a.37.37 0 01.06-.35.33.33 0 01.22-.13c.09-.01.18 0 .28.06l.14-.33a.87.87 0 00-.46-.1.66.66 0 00-.45.26c-.15.19-.2.4-.15.61.06.26.24.5.52.72.27.2.53.3.79.3.22 0 .4-.09.54-.27.11-.14.16-.3.15-.46a.96.96 0 00-.24-.52zm-.69-.82c.1.14.27.28.49.4.3.18.57.24.83.2.22-.04.4-.17.52-.38a.72.72 0 00.07-.65 1.25 1.25 0 00-.6-.62c-.3-.18-.57-.25-.81-.2a.75.75 0 00-.55.38.78.78 0 00-.12.43c.01.15.07.3.17.44zm1.2.24a.9.9 0 01-.55-.15c-.21-.13-.35-.26-.4-.4a.42.42 0 01.02-.38c.07-.13.17-.2.32-.21.15-.02.32.03.54.15.21.13.35.26.4.4.07.14.06.27 0 .38a.42.42 0 01-.33.21zm.79-1.28l.37.16.13-.3-.37-.17-.13.3zm-1.05-1.83l2 .65.37-1.16-.34-.11-.27.82-1.65-.53-.1.33zm.78-1.45l1.71.4.08-.35-1.7-.4.1-.5-.34-.07-.31 1.34.35.08.11-.5zm-.06-1.62l-.07.64 2.1.22.07-.66a.87.87 0 00-.02-.35.61.61 0 00-.16-.24.94.94 0 00-.3-.2 1.49 1.49 0 00-.46-.1c-.2-.03-.38-.02-.52 0a.93.93 0 00-.34.13.6.6 0 00-.2.2.95.95 0 00-.1.36zm1.71.47l-1.39-.14.02-.16c.02-.14.03-.23.05-.28l.12-.16a.49.49 0 01.22-.07h.37c.15.02.27.04.36.07.1.03.15.07.2.1l.08.14v.24l-.03.26zm.07-1.48h.4v-.32l-.4-.01v.33zM28 15.6a12.4 12.4 0 110 24.82 12.4 12.4 0 010-24.82zm0-4.21a16.62 16.62 0 110 33.24 16.62 16.62 0 010-33.24zm0-.62a17.24 17.24 0 110 34.48 17.24 17.24 0 010-34.48zM43.82 28a15.82 15.82 0 10-31.64 0 15.82 15.82 0 0031.64 0zm.2 0a16.02 16.02 0 10-32.04 0 16.02 16.02 0 0032.03 0zM28 16.78a11.22 11.22 0 110 22.44 11.22 11.22 0 010-22.44zm0-.6a11.83 11.83 0 110 23.65 11.83 11.83 0 010-23.66zM38 28a10 10 0 10-20 0 10 10 0 0020 0zm-15-8.5v-.17h.86l.08-.17h.35l.08.26.34.34h.35l.42.43h.26l.6-.43h.34l.17.34H27v.34l-.58.77v.51l.26.17v.6l.08.69h.34l.17.17v.42l-.08.26v.34l.77.6 3.07.51.26-.08v-.77l.17-.17h.34l.26.54h1.36l-.08-.63 1.45-1.1h.51l.17-.26h.17l.17.6h.52l.08.08v.34l-.94.6v.6l-.34.42v.77l-.51.26v.17h.08v.77l-.17.34h-.17l-.43-.77h-.08l-.09.34h-.17l-.17-.26v-.68l.34-.25v-.18h-1.1l-.35-.6h-.6l.18.69-.26.17v.17l.34.26v.5l.43.6v.52h-.6v-.09h-.17l-4.1 4.1v.94h.09v1.2h-.09v.17l-.17.08v1.03l-.43.42v.43l-.6.26-.08.25-.26.09h-.25l-.68-1.11v-.43L23 30.51v-1.78l-.25.08v.26l-.43.34h-.51l-.94-.86v-.34l.51-.08v-.09h-.42l-.35-.25-.17-.6h.77l.77-.26v-.17l-.34-.34v-.34l-.43-.43v-.25l.34-.4h.94l1.71-2.76-.68-.52-.17-.93h.08v-.6h-.17l-.26-.17v-.52zm-9.76 6.4l.56.36.55-.37-.04.66.6.3-.6.3.05.66-.56-.37-.55.37.04-.66-.6-.3.6-.3-.05-.65zm28.88.36l-.55-.36.04.66-.59.3.6.29-.04.66.55-.37.55.37-.04-.66.6-.3-.6-.3.04-.66-.56.37zm-.51-1.09a.3.3 0 11-.59 0 .3.3 0 01.59 0zm-2.08-4.12a.3.3 0 100-.58.3.3 0 000 .58zm.36-2.83a.22.22 0 11-.45 0 .22.22 0 01.45 0zM18.44 16.4a.22.22 0 100-.45.22.22 0 000 .45z" fill="#fff"/></svg>