<svg width="56" height="56" viewBox="0 0 56 56" xmlns="http://www.w3.org/2000/svg"><path fill="#F0F3FA" d="M0 0h56v56H0z"/><path fill-rule="evenodd" d="M47.2 38V27.29H52L30.4 13 4 28.48h6V38h37.2Zm-35.7-3.35a.8.8 0 0 1-.26-.13c-.06-.05-.05-.1.02-.14 1.41-.86 2.37-1.6 2.57-3.1.23-1.77.44-3.66.63-5.68.09-1 .3-1.97.88-2.86.1-.17.27-.25.5-.26.09 0 .17.02.25.05.07.03.13.08.18.15a34.98 34.98 0 0 1 4.27 7.73c.24.61.39.6.43-.05l.67-8.7c.23-.29.53-.39.9-.29.1.03.15.08.15.17 0 .42-.02.83-.07 1.25-.24 2.27-.43 4.56-.58 6.89-.03.53-.09 1.04-.16 1.54-.08.53-.12 1.06-.12 1.61 0 .15-.02.29-.08.43-.05.14-.17.23-.35.25-.3.03-.52-.07-.63-.3a268.12 268.12 0 0 0-4.51-8.49c-.29-.52-.48-.5-.58.07-.18 1-.22 2.04-.27 3.07-.06 1.32-.12 2.63-.45 3.9a3.89 3.89 0 0 1-1.96 2.52c-.17.1-.65.22-1.43.37Zm32-8.2c.42 0 .77-.29.77-.64 0-.35-.35-.63-.78-.63-.43 0-.78.28-.78.63s.35.64.78.64Zm-10.24 1.68c-.58.15-1.1.4-1.56.76-.1.07-.13.05-.11-.05a.82.82 0 0 1 .16-.36.17.17 0 0 0 .02-.18.2.2 0 0 0-.07-.08.27.27 0 0 0-.1-.04c-.46-.09-.77.04-.94.37a334.22 334.22 0 0 1-2.2 4.24c0 .02.02.03.03.05l.06.03c.02.01.05.01.07 0l.87-.11c.16-.02.26-.1.3-.22.36-.9.73-1.63 1.1-2.2.34-.5 1-.93 1.98-1.26a.86.86 0 0 0 .54-.46l.12-.26c.1-.23.01-.3-.27-.23Zm-9.17 2.56c.35-.4.29-.45-.2-.15a3.5 3.5 0 0 0-.73.6c-.1.12-.23.13-.38.05l-.1-.04a.19.19 0 0 1-.05-.05.15.15 0 0 1-.03-.06v-.06l.03-.06c.17-.2.33-.36.5-.45l2.36-1.4a3.2 3.2 0 0 1 1.75-.48c.04 0 .08 0 .11.02.04.02.06.05.08.08.02.03.02.06.01.1 0 .03-.02.06-.05.08a19.54 19.54 0 0 0-3.46 3.72.2.2 0 0 0 .02.27.3.3 0 0 0 .14.08h.17l.1-.02c.34-.08.67-.15.93-.34.9-.65 1.88-1.3 2.94-1.97a.27.27 0 0 1 .32.03c.09.08.09.16 0 .24-.98.93-2.65 2.32-4.1 2.58-.75.14-1.49-.22-1.46-.88.04-.7.58-1.3 1.08-1.87l.02-.02Zm21.7-1.08a13.77 13.77 0 0 1-4.64 2.62c-.27.1-.33.03-.2-.18a82.23 82.23 0 0 1 3.37-5c.06-.07.03-.12-.09-.13-1-.07-1.91.2-2.75.85a61.06 61.06 0 0 0-4.62 3.9.62.62 0 0 1-.56.16c-.33-.06-.43-.36-.29-.9a.57.57 0 0 1 .11-.22c.43-.52.92-1.03 1.46-1.52.41-.37.65-.82.15-1.25-.7-.6-2.12-.05-2.7.4-1 .77-1.8 1.56-2.41 2.37a1.6 1.6 0 0 0-.26 1.4c.03.12.12.23.25.3.13.08.3.11.45.1a3.66 3.66 0 0 0 1.87-.95c.12-.1.2-.08.24.05.02.05.02.09.01.13v.1l.06.09c1.08.97 2.28-.22 3.15-1.08l.09-.09c.78-.78 1.73-1.56 2.84-2.33.17-.13.36-.22.57-.29.37-.11.46-.03.29.25a58.72 58.72 0 0 0-2.55 4.68.44.44 0 0 1-.2.2 6.97 6.97 0 0 0-2.76 2.49 1 1 0 0 0-.15.68c.03.17.19.32.39.36h.2a2.6 2.6 0 0 0 2.08-1.35c.41-.76.84-1.53 1.29-2.31a.48.48 0 0 1 .2-.2c1.05-.5 2.14-1.04 3.26-1.63.8-.42 1.5-.95 2.05-1.58v-.05l-.06-.06c-.04-.05-.09-.05-.14 0ZM34.9 31.12c.74-.77 1.5-1.58 2.29-2.43.44-.47.3-.66-.43-.55-1.54.23-3.31 2.34-3.82 3.44a.3.3 0 0 0-.02.21c.02.07.07.14.14.19a.54.54 0 0 0 .5.06c.5-.2.95-.51 1.34-.92Zm4.59 2.84-1.14 2.03c-.3.51-1.05.76-1.36.55-.29-.2-.16-.82.44-1.34l1.7-1.44c.16-.15.46.02.36.2Z" fill="red"/><path d="M26.5 26.5c0-.53.67-1.28 1-1.5.33.22 1 .97 1 1.5 0 1-.67 1-1 1-.33 0-1 0-1-1Z" fill="#E0A000"/><path d="M20.2 19 4 28.5h6V38h21.6v-8.3c-.3.2-.54.42-.7.66-.38.56-.75 1.3-1.1 2.2-.05.12-.15.19-.3.21l-.88.12h-.07a.14.14 0 0 1-.06-.04.1.1 0 0 1-.03-.05 332.97 332.97 0 0 0 2.2-4.22c.17-.34.48-.46.94-.38.04 0 .07.02.1.04a.2.2 0 0 1 .07.08.17.17 0 0 1-.02.18h.6c.28-.15.59-.26.9-.35.3-.07.39 0 .28.24l-.05.11h1.38l.15-.12L20.2 19Zm11.4 9.95v-.15l-.01.06c-.01.05 0 .08.01.09ZM26 26.67C26 26 27.5 24 27.5 24s1.5 2 1.5 2.67c0 .66-.3 1.33-1.5 1.33s-1.5-.67-1.5-1.33Zm-14.5 7.98a.8.8 0 0 1-.26-.12c-.06-.05-.05-.1.02-.14 1.41-.86 2.37-1.6 2.57-3.09.23-1.77.44-3.65.63-5.67.09-.99.3-1.97.88-2.85.1-.17.27-.26.5-.26.09 0 .17.02.25.05.07.03.13.08.18.14a34.87 34.87 0 0 1 4.27 7.71c.24.62.39.6.43-.04l.67-8.68c.23-.29.53-.39.9-.29.1.03.15.08.15.17 0 .42-.02.83-.07 1.25-.24 2.26-.43 4.55-.58 6.87-.03.53-.09 1.04-.16 1.54-.08.52-.12 1.06-.12 1.6 0 .15-.02.29-.08.43-.05.15-.17.23-.35.25-.3.03-.52-.07-.63-.3a267.05 267.05 0 0 0-4.51-8.46c-.29-.52-.48-.5-.58.06-.18 1-.22 2.04-.27 3.06-.06 1.32-.12 2.63-.45 3.9a3.88 3.88 0 0 1-1.96 2.5c-.17.11-.65.23-1.43.37Zm12.59-3.94c.35-.4.29-.45-.2-.16a3.5 3.5 0 0 0-.73.6c-.1.12-.23.14-.38.06l-.1-.05a.19.19 0 0 1-.05-.04.15.15 0 0 1-.03-.06V31c0-.03.02-.05.03-.06.17-.2.33-.36.5-.45l2.36-1.4a3.21 3.21 0 0 1 1.75-.48c.04 0 .08.01.11.03.04.02.06.04.08.07.02.03.02.07.01.1 0 .03-.02.06-.05.08a19.51 19.51 0 0 0-3.46 3.71.2.2 0 0 0-.04.14c0 .05.02.1.06.13a.3.3 0 0 0 .14.08c.06.02.12.02.17 0l.1-.02c.34-.08.67-.15.93-.34.9-.65 1.88-1.3 2.94-1.96a.27.27 0 0 1 .32.02c.09.08.09.16 0 .25-.98.92-2.65 2.31-4.1 2.57-.75.14-1.49-.22-1.46-.88.04-.7.58-1.3 1.08-1.87l.02-.01Z" fill="#E0A000"/><path d="M46.7 26.79h3.64l-19.96-13.2L5.84 27.98h4.66v9.52h36.2V26.79ZM47.2 38H10v-9.52H4L30.4 13 52 27.29h-4.8V38Z" fill="#B75017"/></svg>