<svg xmlns="http://www.w3.org/2000/svg" width="56" height="56"><path fill="#0000D4" d="M0 0h56v56H0z"/><path d="M29.53 10.7h-3.04l.46 3.34c-.26.02-.52.05-.77.09L25.6 10h4.82l-.57 4.11a13.9 13.9 0 00-.79-.07l.47-3.33zm-5.37-.46l.85 4.1c-.25.05-.5.11-.74.18l-.68-3.23-1.43.52-1.43.52 1.54 2.92c-.23.1-.47.22-.7.34l-1.94-3.68 2.27-.84 2.26-.83zm-5.78 2.4l2.19 3.53-.65.43-1.73-2.78-2.33 1.97 2.41 2.19-.54.55-3.05-2.77 1.85-1.56 1.85-1.56zm-4.64 4.25l3.22 2.54-.46.62-2.53-2-1.52 2.67 2.96 1.2c-.12.23-.23.47-.33.7l-3.74-1.51 2.4-4.22zm-2.9 5.6l3.83 1.25-.22.74-3.01-.99-.26 1.51-.26 1.52 3.15.1c-.03.26-.05.52-.06.79L10 27.27l.42-2.4.42-2.39zM10 28.72l4.01-.14c.01.26.03.52.06.77l-3.15.11.53 3.03 3-.98.22.74-3.83 1.26-.84-4.79zm1.33 6.16l3.75-1.52c.1.24.2.47.32.7l-2.96 1.21 1.52 2.66 2.54-2c.15.22.3.43.46.63l-3.22 2.54-2.41-4.22zm3.33 5.34l3.06-2.77c.18.2.36.38.55.56l-2.42 2.18 1.16.99 1.17.99 1.73-2.8c.2.15.42.3.64.44l-2.19 3.53-1.85-1.56-1.85-1.56zm4.97 3.86l1.94-3.68c.23.11.46.23.7.33l-1.55 2.92 2.86 1.05.69-3.23.75.19-.86 4.08-4.53-1.66zM25.59 46l.57-4.13c.26.04.52.06.77.08l-.46 3.35h3.04l-.45-3.33.77-.08.57 4.11h-4.8zm6.25-.25l-.85-4.06.75-.18.67 3.2 1.43-.52 1.43-.52-1.53-2.88c.24-.1.47-.22.7-.34l1.93 3.64-4.53 1.66zm5.79-2.4l-2.16-3.49.64-.43 1.7 2.76 2.33-1.98-2.38-2.16c.19-.18.37-.36.54-.55l3.03 2.73-1.85 1.56-1.85 1.56zm4.62-4.26l-3.18-2.5c.16-.2.31-.42.46-.63l2.5 1.98.75-1.33.77-1.33-2.93-1.2.32-.7 3.72 1.5-2.41 4.21zm2.9-5.57l-3.8-1.26.2-.74 3 .99.53-3.03-3.15-.1c.03-.26.05-.53.06-.79l4 .14-.84 4.79zm.85-6.26l-4.01.14-.06-.78 3.16-.1-.27-1.51-.26-1.52-3 1-.22-.76 3.82-1.26.42 2.4.42 2.39zm-1.34-6.15l-3.72 1.51-.32-.7 2.93-1.2-.76-1.33-.76-1.33-2.5 1.98c-.15-.22-.3-.43-.46-.63l3.19-2.52 1.2 2.11 1.2 2.1zm-3.33-5.32l-3.01 2.73-.54-.56 2.36-2.16-1.16-.99-1.17-.98-1.7 2.74c-.2-.15-.42-.3-.64-.43l2.16-3.48 1.85 1.57 1.85 1.56zm-4.96-3.86l-1.92 3.62c-.23-.11-.46-.23-.7-.33l1.52-2.88-1.43-.52-1.43-.52-.67 3.2c-.24-.07-.5-.14-.75-.19l.85-4.05 2.26.83 2.27.84zM19 34l9-18 9 18H19zm16.5-1L28 18l-7.5 15h15z" fill="#fff"/><path d="M28 20l6 12H22l6-12zm.78 2.72h-1.45v.1s.35.02.38.23l.04 1.97h-.08l-.54-1.21h-.88v.1l.36.02v1.32c-.97.35-1.7 1.07-1.6 2.23.07.86.76 1.42 1.6 1.73v.85c0 .15-.33.23-.33.23h.97s-.31-.12-.25-.23v-.73c.26.07.53.12.8.15v.68c0 .23-.18.42-.42.53-.17.08-.34.12-.48.15l-.1.02c-.14.04-.34.11-.3.17.02.03.3.04.63.04a9 9 0 01.87.04l.37.09c.47.12 1.13.3 1.89.06 1.23-.38 1.63-1.3 1.58-1.25-.68.8-1.77.84-2.12.84-.64 0-1.27-.3-1.27-.73v-.6l.2-.02.33.79h.8v-.07l-.15-.07v-.92a3 3 0 001.24-.96s-.61.47-1.07.65a4.1 4.1 0 01-.17.07V25.4c.14.02.23.05.26.07l.66.44c.16.08.15-.04.13-.1l-.52-.66-.53-.07v-.88s0-.18.02-.28c.02-.05.14-.12.14-.12h-.8s.1.02.18.1c.07.06.07.33.07.33v.8l-.8-.04.01-1.95c.02-.15.22-.2.33-.22v-.1zM27 25.67l.78 1.82.02 1.66a2.9 2.9 0 01-.8-.25v-3.23zm1.51 3.53h-.06v-.14l.06.14zm.73-.52l-.8-1.84V25.3c.3 0 .57.02.8.05v3.33zm-2.63-2.9c-.02 0-.04.02-.05.03-.47.43-.55.8-.55 1.44 0 .35.1.97.6 1.4v-2.88zM28 35h-.5v2h.5v-2zm5.77 0h-.5v2h.5v-2zm-10.73 0h-.54v2H24v-.5h-.96V35zm2.03.44c.39 0 .43.25.43.25h.5c-.07-.35-.3-.69-.93-.69-.72 0-.92.62-.92 1 0 .33.14 1 .92 1 .67 0 .9-.43.93-.67h-.5c-.1.2-.27.26-.43.26-.15 0-.46-.07-.46-.58 0-.34.2-.57.46-.57zM20 35h.6l.85 1.17V35H22v2h-.6l-.85-1.04V37H20v-2zm8.48 0h.61l.91 1.17V35h.5v2h-.61L29 35.9V37h-.52v-2zm3.41 0H31v2h.9c.12 0 .25-.02.4-.06a.7.7 0 00.3-.15c.1-.08.16-.18.22-.3a1.67 1.67 0 00.03-.89.77.77 0 00-.48-.52 1.3 1.3 0 00-.48-.08zm-.34 1.54v-1.08h.3c.18 0 .3.04.38.12.07.07.1.21.1.42 0 .16-.01.28-.05.35a.34.34 0 01-.13.14.69.69 0 01-.3.05h-.3zm3.19.09h.64l.1.37H36l-.68-2h-.49l-.7 2h.52l.09-.37zm.32-1.07l.21.73h-.42l.21-.73z" fill="#fff"/></svg>