<svg width="56" height="56" xmlns="http://www.w3.org/2000/svg"><path fill="#2D4C9C" d="M0 0h56v56H0z"/><path d="M28.108 9.437l-2.023.252-1.245 23.25h4.116l-.848-23.502zm-2.172-.01l2.29-.285a.139.139 0 01.155.121v.022l.858 23.788a.138.138 0 01-.133.143H29.1v.001h-4.407a.14.14 0 01-.139-.14v-.018l1.26-23.5a.139.139 0 01.122-.131z" fill="#fff"/><path d="M29.609 9.693a.14.14 0 01.077.18.14.14 0 01-.181.077l-1.343-.541a.139.139 0 01-.078-.181.14.14 0 01.181-.077l1.344.542z"/><path d="M31.443 33.067a.14.14 0 01-.279.021L29.42 9.833a.139.139 0 11.277-.02l1.747 23.254zM28.075 9.285a.139.139 0 11.277-.01l.886 23.798a.138.138 0 01-.133.142.138.138 0 01-.144-.132l-.886-23.798z" fill="#fff"/><path d="M28.098 8.31l-2.603.518-.135.579 2.717-.281.02-.817zm-2.745.263l2.861-.57a.139.139 0 01.166.15l-.028 1.101a.14.14 0 01-.125.135l-3.033.314a.14.14 0 01-.15-.17l.2-.855a.138.138 0 01.11-.105z" fill="#fff"/><path d="M28.174 8.079a.14.14 0 01.185-.065l-.185.065zm.185-.065l2.031.97a.14.14 0 01.08.12l.027.877c.003.02 0 .04-.008.06a.138.138 0 01-.178.083l-2.031-.742a.14.14 0 01-.092-.128l-.027-1.108.198-.132zm1.836 1.183l-1.752-.836.02.792 1.75.639-.018-.595zm-2.621.29a.138.138 0 11.134-.243l1.974 1.084a.141.141 0 01.055.189.14.14 0 01-.188.054l-1.975-1.084zm-1.562 1.265a.138.138 0 01-.192.041.138.138 0 01-.042-.19l.772-1.198a.139.139 0 01.192-.042c.065.04.084.127.042.192l-.772 1.197z" fill="#fff"/><path d="M29.523 9.745a.14.14 0 01.197.015.14.14 0 01-.017.196l-1.342 1.14a.14.14 0 01-.196-.016.137.137 0 01.016-.194l1.342-1.14z" fill="#fff"/><path d="M25.907 9.71a.137.137 0 01-.043-.19.14.14 0 01.191-.044l3.7 2.32c.066.04.085.127.044.191a.138.138 0 01-.191.044l-3.701-2.32z" fill="#fff"/><path d="M25.954 12.323a.14.14 0 01-.194.038.138.138 0 01-.038-.192l1.975-2.937a.138.138 0 01.193-.038.14.14 0 01.038.192l-1.974 2.938z" fill="#fff"/><path d="M25.835 10.883a.139.139 0 11.141-.239l3.91 2.31a.14.14 0 01.049.19.14.14 0 01-.191.048l-3.91-2.31z" fill="#fff"/><path d="M25.811 16.09a.14.14 0 11-.232-.153l2.633-3.965a.139.139 0 11.23.153l-2.63 3.966z" fill="#fff"/><path d="M25.685 13.31a.138.138 0 11.135-.242l4.234 2.34a.139.139 0 01.055.188.14.14 0 01-.19.053l-4.234-2.338zm-.144 2.796a.138.138 0 11.136-.241l4.606 2.595a.138.138 0 01.053.19.14.14 0 01-.189.052l-4.606-2.596zm-.172 3.11a.14.14 0 01-.052-.19.14.14 0 01.19-.05l4.992 2.867a.137.137 0 01.05.189.137.137 0 01-.189.05l-4.991-2.866zm-.144 2.911a.139.139 0 01.138-.24l5.385 3.073a.14.14 0 01.053.19.141.141 0 01-.191.052l-5.385-3.075zm-.113 3.161a.139.139 0 01.135-.242l5.746 3.193a.138.138 0 01.055.189.142.142 0 01-.19.054l-5.746-3.194z" fill="#fff"/><path d="M25.812 14.377a.14.14 0 01-.193.04.139.139 0 01-.04-.191l2.546-3.909a.139.139 0 01.233.151l-2.546 3.91zm-.2 3.937a.14.14 0 01-.193.041.137.137 0 01-.04-.19l2.888-4.452a.14.14 0 01.193-.041.138.138 0 01.04.192l-2.888 4.45zm-.116 2.027a.139.139 0 01-.232-.152l3.09-4.68a.139.139 0 01.233.153l-3.09 4.68z" fill="#fff"/><path d="M25.624 14.506a.138.138 0 01-.048-.19.14.14 0 01.19-.048l4.408 2.624c.066.04.087.125.047.19a.138.138 0 01-.19.049l-4.407-2.625zm-.171 3.082a.139.139 0 11.14-.239l4.792 2.838a.14.14 0 01.05.19.14.14 0 01-.191.05l-4.791-2.839z" fill="#fff"/><path d="M25.353 22.766a.14.14 0 01-.193.04.14.14 0 01-.039-.193l3.29-4.936a.14.14 0 01.194-.039.139.139 0 01.038.193l-3.29 4.935zm-.086 2.542a.14.14 0 01-.194.038.138.138 0 01-.037-.193l3.462-5.107a.14.14 0 01.194-.038c.064.043.08.129.036.193l-3.461 5.107zm-.412 3.497a.138.138 0 01-.054-.189.14.14 0 01.19-.054l4.091 2.282a.139.139 0 01-.134.242l-4.093-2.281zM28.5 9.312a.14.14 0 01.168.221l-.313.236a.138.138 0 11-.167-.22l.312-.237zm1.06 2.173a.14.14 0 01.197.018.137.137 0 01-.018.195l-1.294 1.083a.14.14 0 01-.178-.213l1.294-1.083zm.162 1.77a.139.139 0 11.181.211l-1.427 1.225a.14.14 0 01-.197-.015.138.138 0 01.015-.195l1.428-1.226zm.115 1.371a.14.14 0 01.197.012.14.14 0 01-.013.195l-1.516 1.34a.138.138 0 11-.184-.206l1.516-1.341zm.258 3.167a.14.14 0 01.197.013.138.138 0 01-.014.195l-1.6 1.399a.139.139 0 01-.196-.013.137.137 0 01.012-.196l1.601-1.398zm.089 1.625a.138.138 0 11.179.212l-1.687 1.426a.14.14 0 01-.197-.016.14.14 0 01.017-.196l1.688-1.426zm.172 2.988a.14.14 0 01.196.02.139.139 0 01-.02.195l-1.66 1.348a.138.138 0 01-.194-.02.137.137 0 01.02-.196l1.658-1.347z" fill="#fff"/><path d="M25.215 9.563l.66.536.01-.487-.67-.049z" fill="#fff"/><path d="M25.788 10.207l-.653-.531a.138.138 0 01.09-.251l.67.048a.14.14 0 01.13.141l-.01.483a.14.14 0 01-.227.11zm-.142-.474l.097.08.001-.073-.098-.007z" fill="#fff"/><path d="M30.363 9.992l-.805-.17.058.467.747-.297z" fill="#fff"/><path d="M29.587 9.686l.805.17v.001c.044.01.081.04.1.085a.137.137 0 01-.078.179l-.734.292a.163.163 0 01-.047.014.137.137 0 01-.156-.121l-.058-.467a.14.14 0 01.168-.153zm.298.347l-.165-.035.012.095.153-.06zm-.218 2.309a.138.138 0 01.18.21l-1.344 1.141a.14.14 0 01-.196-.016.138.138 0 01.016-.195l1.344-1.14zm.077 1.654a.139.139 0 01.177.214l-1.276 1.054a.14.14 0 01-.197-.019.14.14 0 01.02-.195l1.276-1.054zm-.25-3.386a.14.14 0 01.197.018.138.138 0 01-.018.195l-1.285 1.073a.139.139 0 11-.178-.213l1.284-1.072zm-.496-1.12a.138.138 0 01.181.21l-.79.682a.139.139 0 11-.181-.209l.79-.683z" fill="#fff"/><path d="M25.772 12.16a.138.138 0 11.134-.242l3.995 2.214a.14.14 0 01-.136.243l-3.993-2.214zm4.206 4.065a.14.14 0 01.197.01.138.138 0 01-.01.195L28.65 17.8a.139.139 0 01-.187-.205l1.516-1.37z" fill="#fff"/><path d="M27.942 46h-2.003l-1.002-3.538a14.766 14.766 0 01-6.295-2.968l-3.549 1.456-2.403-2.94 2.289-2.91a13.521 13.521 0 01-1.516-6.049L10 27.453l.745-3.653 3.833-.285c.916-2.083 2.347-3.91 4.179-5.364l-.916-3.567 3.405-1.769 2.718 2.71a15.188 15.188 0 013.978-.542v3.91c-5.666 0-10.302 4.48-10.302 10.015S22.276 38.98 27.942 38.98V46zm.028-31.017c1.517 0 2.946.2 4.322.628l2.573-2.653 3.434 1.77-.886 3.594c1.803 1.483 3.234 3.367 4.12 5.507l3.748.257.715 3.652-3.491 1.628a13.33 13.33 0 01-1.686 5.991l2.23 3.053-2.517 2.853-3.462-1.57c-1.775 1.398-3.921 2.37-6.238 2.825L29.829 46h-1.887v-7.02c5.693 0 10.328-4.537 10.328-10.072 0-5.536-4.635-10.015-10.329-10.015v-3.91h.029z" fill="#fff"/><path d="M24.864 22.93l4.007.024h2.515V20.87h-6.422c-.134 0-.075.823-.075.992 0 .369-.025.74-.025 1.067zm2.002 13.507h2.977L29.849 34h-2.983v2.437z" fill="#fff"/><path d="M17.918 31.82v.073c.094.108.208.39.264.556.065.198.24.47.258.537h.2l.107-.208c.036.024.638 1.162.729 1.31.279.458.531.773.831 1.183.45.61 1.448 1.48 2.092 1.912v-.125l.766.394v-3.82l10.363-.048.05 3.284.422-.286V33.16h-2.73l-2.665-1.156.864-1.304c1.024.54 2.545.994 4.11.994h.224c1.8 0 3.325-.593 4.506-1.216l-.26-.49c-.065 0-.772.363-.942.432-.347.139-.65.258-1.033.36a9.235 9.235 0 01-2.446.344 8.94 8.94 0 01-2.102-.264 7.013 7.013 0 01-.91-.284c-.177-.073-.694-.317-.822-.347l.334-.507c.73.388 2.247.781 3.35.781h.5c.838 0 1.874-.224 2.492-.443a9.077 9.077 0 001.035-.435c.18-.09.865-.489.954-.513v-.074l-.283-.416c-.08.014-.749.407-.913.49a7.587 7.587 0 01-.992.4c-.645.215-1.509.419-2.368.419h-.3a7.405 7.405 0 01-1.708-.21c-.251-.062-.538-.127-.757-.212-.106-.04-.621-.241-.696-.248l.352-.543.543.345c.339-.637.683-1.28 1.038-1.921.172-.308.345-.678.526-.965.153-.242.06-.26.364-.382.183-.074.327-.149.488-.234.018.066.069.15.15.15h.05c.157 0 .87-.383.87-.473 0-.077-.116-.248-.2-.248-.102 0-1.25.52-1.393.596l1.507-2.8.137.067 1.07.028c-.078-.116-.821-.707-.821-.771 0-.107.337-.59.373-.745l-.845.33-.998-.901h-.05c.006.263.07 1.084.175 1.241l-2.84 1.113-.172-.095c-.134.09-.133.21-.313.284-.155.063-.277.11-.433.166-.274.102-.57.222-.857.337-.202.082-1.617.653-1.71.653-.048 0-1.598-1.051-1.817-1.167l-.051 1.043-1.368-.87c-.468.11-1.136.42-1.628.588-.54.183-1.072.385-1.606.584-.586.217-.99.369-1.265.923-.192.39-.153.372-.242.852-.085.457.159.5.403.659.882.574 1.78 1.178 2.68 1.723.402.246 2.136 1.546 2.356 1.606l-.193 2.726h-1.999v3.65l-.32-.23c-.004-1.418.007-3.243-.234-4.433-.071-.353-.102-.61-.408-.76-.274-.133-.694-.077-1.004-.014-.352.07-1.696.569-1.77.569h-.074l-.995-.123zm11.354-6.134c.141-.268.492-.737.687-1.003.12-.165.228-.331.344-.501.214-.314.126-.212.487-.358.403-.164.806-.314 1.216-.475.36-.141.86-.305 1.2-.468.063.094.547.456.547.496 0 .14-.904 1.553-.97 1.838l-1.32-.722-.98 1.958-1.211-.765zm-8.94 1.019c-.67-.157-.39-.784-.093-1.137.307-.362.698-.502 1.198-.667.349-.115 2.65-1.002 2.755-1.002.128 0 1.204.836 1.42.893l.113.623-1.68-1.023c-.316.076-.75.277-1.083.39-.357.122-.72.26-1.07.398-.341.133-.769.239-1.03.438-.251.192-.53.512-.53.937v.15zm6.225 2.954c.037-.155 1.138-1.713 1.196-1.713.002 0 1.377.84 1.494.918l-1.406 2.75-.533-.251.605-.928-1.356-.776zm-7.32 2.806c.095-.008 1.126-.388 1.379-.462.742-.22.967-.336 1.062.46.127 1.069.148 2.34.148 3.527-.246-.065-1.28-1.317-1.464-1.594-.2-.3-.428-.614-.593-.947-.148-.297-.359-.726-.532-.984z" fill="#fff"/><path d="M26.159 38.846h.149c.044-.19-.005-.356.213-.314.105.02.377.041.484.041.365-.002.676.003 1.02-.001a9.759 9.759 0 001.934-.208 10.949 10.949 0 001.655-.483c.208-.082 1.386-.577 1.386-.723V34h-2.653v2.438H32v.52h-7v-.52h1.383V34h-2.618v3.778c.109.025.34.128.452.175.083.033.423.105.423.198v.073l-.028.225c.219.05.512.155.747.227.085.025.79.163.8.17z" fill="#fff"/></svg>