<svg xmlns="http://www.w3.org/2000/svg" width="56" height="56"><path fill="#0C6EAF" d="M0 0h56v56H0z"/><path fill-rule="evenodd" d="M18.34 25.03a.5.5 0 01.56.17L21 28v-2.5a.5.5 0 011 0v4a.5.5 0 01-.9.3L19 27v2.5a.5.5 0 01-1 0v-4a.5.5 0 01.34-.47zM25 29.25c.51 0 1.25-.59 1.25-1.75s-.74-1.75-1.25-1.75-1.25.59-1.25 1.75.74 1.75 1.25 1.75zm0 1c1.24 0 2.25-1.23 2.25-2.75s-1-2.75-2.25-2.75-2.25 1.23-2.25 2.75 1 2.75 2.25 2.75zm4.39-4.04c-.23.3-.39.76-.39 1.29s.16.98.39 1.3c.23.3.5.45.77.45.31 0 .66-.2.9-.66a.5.5 0 11.88.48c-.36.66-1 1.18-1.78 1.18-.66 0-1.2-.36-1.58-.86A3.2 3.2 0 0128 27.5c0-.72.21-1.39.58-1.89s.92-.86 1.58-.86c.79 0 1.42.52 1.78 1.18a.5.5 0 11-.88.48c-.24-.45-.59-.66-.9-.66-.26 0-.54.14-.77.46zM33.5 25a.5.5 0 01.5.5v4a.5.5 0 01-1 0v-4a.5.5 0 01.5-.5zm2 0a.5.5 0 01.5.5v4a.5.5 0 01-1 0v-4a.5.5 0 01.5-.5z" fill="#fff"/><path d="M38 29.5a.5.5 0 01-.5.5h-2a.5.5 0 010-1h2a.5.5 0 01.5.5z" fill="#fff"/><path d="M27 5h2v3.84l-1-.7-1 .7V5zm0 3.84l-14 8.93V27h-3v2h3v8.4l14 8.8V50h2v-3.8l14-8.8V29h3v-2h-3v-9.23L29 8.84v6.67c5.8.5 10.4 5.42 10.64 11.49H43v2h-3.44A11.83 11.83 0 0129 39.5v6.7l-1 .66-1-.66v-6.71A11.83 11.83 0 0116.44 29H13v-2h3.36C16.6 20.93 21.2 16.02 27 15.5V8.85z" fill="#fff"/></svg>