<svg width="56" height="56" viewBox="0 0 56 56" xmlns="http://www.w3.org/2000/svg"><path fill="#F0F3FA" d="M0 0h56v56H0z"/><path fill-rule="evenodd" d="M27.78 27.68c.01-1.63-1.35-5.45-6.97-7.68.23-.65 5.26-.15 6.67 4.08l.41-.46c.2-.2.36-.38.39-.49.03-.1-.06-.58-.14-1.07-.07-.4-.14-.8-.16-1.04-.02-.41.42.25.64.63.17-.05.48-.24.38-.63-.05-.2-.14-.36-.22-.5-.12-.2-.23-.38-.23-.67 0-.5 1.52-1.68 1.94-1.85 0 .47-.74 4.08-1.94 6h4.36c1.64 0 2.5.93 2.5 2.08 0 1.24-.67 1.65-1.57 1.97l.22.05c.14.03.3.05.41.09.96.3 1.53 1.1 1.53 2.2 0 1.45-1.11 2.61-3.18 2.61h-4.48c-.17 0-.34-.01-.34-.2 0-.14.1-.2.19-.26l.04-.03c.8-.48.79-.68.77-1.06V25.72c0-.26 0-.77-.5-1.08l-.29-.17a3.1 3.1 0 0 1-.23.25v.57c.02.9.04 1.93-.2 2.39Zm15.6 2.17-.87 2.89v.01c-.01.18-.03.42-.22.42-.07 0-.13-.03-.21-.06-.13-.06-.29-.12-.54-.12h-.08l-.07.01h-5.06c-.16 0-.33-.01-.33-.2 0-.13.1-.19.19-.24l.03-.02.01-.01c.8-.47.79-.66.77-1.04v-5.82c0-.25 0-.77-.51-1.04-.35-.19-.49-.28-.49-.43 0-.19.17-.2.33-.2h4.81c.48 0 .66-.06.77-.1a.4.4 0 0 1 .14-.03c.2 0 .22.18.22.35l.73 2.64c0 .17-.01.35-.17.35-.07 0-.17-.03-.21-.12-.63-1.62-1.22-2.07-2.61-2.07-1.25 0-1.63.1-1.63.75v1.9h.8c.8 0 .96-.28 1.25-1l.07-.18c.1-.26.16-.42.3-.42.11 0 .2.1.2.24v3.52c0 .16-.05.29-.2.29-.1 0-.17-.12-.2-.21-.38-1.02-.54-1.33-1.42-1.33h-.8v2.45c0 .7.38 1.08 1.77 1.08 1.38 0 2.14-.94 2.85-2.39.03-.1.11-.12.2-.12.13 0 .2.1.18.25Zm-9.43-3.7c0-.66-.56-1.2-1.68-1.2h-.45c-1.05 0-1.13.35-1.13 1.08v1.6h1.37c1.27 0 1.9-.41 1.9-1.48Zm.42 4.15c0-.46-.13-.88-.42-1.18-.42-.44-.91-.46-1.6-.46h-1.66v2.5c0 .54 0 .8.84.8h.7c1.43 0 2.14-.57 2.14-1.66ZM16.53 33c2 0 3.47-1.8 3.47-4.69 0-2.07-1.23-4.31-3.5-4.31-2.01 0-3.5 1.84-3.5 4.5 0 2.14 1.09 4.5 3.53 4.5Zm-.04-8c1.37 0 2.01 1.45 2.01 3.38 0 1.4-.14 3.62-1.97 3.62-1.38 0-2.03-1.2-2.03-3.5 0-2.05.64-3.5 2-3.5Zm-3.2 7.8c0 .19-.17.2-.34.2h-2.89c-.17 0-.34-.01-.34-.2 0-.14.1-.2.2-.26l.04-.03c.58-.35.58-.4.6-.54v-.04L6 25.5v5.77c0 .26.03.65.82 1.08.35.2.5.29.5.45 0 .19-.17.2-.34.2H4.35c-.17 0-.34-.01-.34-.2 0-.13.1-.2.18-.25l.06-.04c.75-.49.75-.62.75-1.17V25.74c0-.6 0-.8-.86-1.3-.11-.08-.14-.16-.14-.26s.1-.18.18-.18h3.05c.2 0 .47 0 .47.19 0 .08-.07.21-.14.26h-.02c-.06.04-.1.07-.1.14v.03c0 .18 0 .32.06.38l3.5 5.3v-4.59c0-.25 0-.64-.78-1.06-.35-.2-.5-.29-.5-.45 0-.19.17-.2.34-.2h2.9c.16 0 .33.01.33.2 0 .14-.1.2-.2.26l-.04.03c-.9.55-1.05.72-1.05 1.24v5.56c0 .25 0 .64.78 1.06.35.2.5.29.5.45Zm38.37.2c.17 0 .34-.01.34-.2 0-.16-.16-.26-.5-.45-.64-.34-.58-.66-.52-.9a.85.85 0 0 0 .02-.18v-5.73c-.02-.38-.03-.57.77-1.05l.04-.03c.1-.06.19-.12.19-.26 0-.19-.17-.2-.34-.2h-2.6c-.17 0-.34.01-.34.2 0 .16.15.26.5.45.78.42.78.8.78 1.06v4.59L46.5 25c-.06-.06-.06-.2-.06-.38v-.03c0-.07.04-.1.1-.14h.02c.07-.05.14-.18.14-.26 0-.19-.26-.19-.47-.19h-3.05c-.09 0-.18.08-.18.18 0 .1.03.18.14.25.86.5.86.72.86 1.31V31.34c0 .55 0 .68-.75 1.17l-.06.04c-.08.06-.18.12-.18.25 0 .19.17.2.34.2h2.63c.17 0 .33-.01.33-.2 0-.16-.14-.26-.49-.45-.8-.43-.82-.82-.82-1.08V25.5l4.57 6.43v.04c-.03.14-.03.2-.61.54l-.02.02-.03.01c-.09.06-.19.12-.19.26 0 .19.17.2.34.2h2.6ZM27.6 34c.8 0 1.4-.21 1.4-.46 0-.2-.25-.2-.43-.2a3 3 0 0 1-.05 0c-1.2-.04-2.22-1.53-3.46-3.35l-.04-.05-.8-1.07c1.64-.18 2.55-1.29 2.55-2.44 0-2.05-2.03-2.43-3.64-2.43h-3.78c-.18 0-.35.01-.35.2 0 .16.15.26.5.44.82.43.82.82.82 1.08v5.56c0 .51-.15.69-1.08 1.24l-.04.02c-.1.06-.2.12-.2.26 0 .19.17.2.35.2h3.62c.18 0 .35-.01.35-.2 0-.16-.16-.26-.52-.44-.8-.43-.8-.81-.8-1.06v-2.4l.17-.01c.2-.02.45-.04.55.1l1 1.3.42.59C25.4 32.66 26.36 34 27.6 34Zm-4.35-6c.97 0 1.77-.4 1.77-1.59 0-.85-.53-1.4-1.79-1.4-1.08 0-1.23 0-1.23.92V28h1.26Z" fill="#18B454"/></svg>