<svg xmlns="http://www.w3.org/2000/svg" width="56" height="56"><path fill="url(#a11x1d1rx)" d="M0 0h56v56H0z"/><path fill-rule="evenodd" d="M11 32.92l-.33.34A5.97 5.97 0 019 29.16h.4a5.58 5.58 0 001.6 3.76zm.15-.14a5.37 5.37 0 01-1.54-3.63H11c0 .92.47 1.95 1.06 2.72l-.91.9zm-1.54-3.93h1.4a4.13 4.13 0 011.65-3.02.76.76 0 01-.8-1.22 5.39 5.39 0 00-2.25 4.24zm4.4-3.69c-.35.1-.67.25-.97.42a.76.76 0 00-.81-1.2c.44-.27.93-.48 1.45-.6a.76.76 0 00.32 1.38zm.22-1.5a.76.76 0 01.27 1.4l.35-.05v-1.4c-.2 0-.41.02-.62.05zm-2.13 8.16a5.54 5.54 0 01-.94-2.67h3.61l-2.67 2.67zm.5.63a4.45 4.45 0 01-.48-.5l-.9.9a5.4 5.4 0 003.63 1.54v-5.17l-2.69 2.7c.14.2.28.38.43.53zm2.25-7.3a4.07 4.07 0 00-3.68 3.7h3.68v-3.7zm.31 3.61v-3.62h.01c.52 0 1.6.17 2.64.97l-2.65 2.65zm3.2-2.17c-.15-.15-.3-.29-.46-.41l-2.67 2.67h5.16a5.37 5.37 0 00-1.54-3.63l-.9.9c.16.15.3.3.4.47zM15.17 25c.85 0 1.98.42 2.7 1.05l.9-.9a5.37 5.37 0 00-3.6-1.54V25zm-4.09 8l-.34.33A5.97 5.97 0 0014.85 35v-.4a5.58 5.58 0 01-3.77-1.6zm4.08 1.6v.4A5.8 5.8 0 0021 29.15h-.4a5.6 5.6 0 01-5.44 5.44zm5.23-5.45a5.4 5.4 0 01-5.23 5.24v-5.24h5.23zm.2-.3h.4a5.97 5.97 0 00-1.66-4.11l-.34.34c.96.98 1.56 2.3 1.6 3.77zM18.92 25l.34-.34a5.97 5.97 0 00-4.1-1.67v.4c1.46.05 2.78.65 3.76 1.6zm-4.07-1.6a5.6 5.6 0 00-5.44 5.44H9A5.8 5.8 0 0114.84 23v.4zm-4.9 10.44L8 34.57l.68.68L7 36.92l.08.08 1.67-1.68.68.68.72-1.95a6.98 6.98 0 004.7 1.95v2h.31v-2A7 7 0 0022 29.15h2v-.3h-2a6.98 6.98 0 00-2.01-4.76L23 21.08l-.08-.08-3 3.01a6.98 6.98 0 00-4.76-2V20h-.3v2A7 7 0 008 28.85H6v.3h2a6.98 6.98 0 001.95 4.7z" fill="#FFFEFE"/><path d="M11.13 28.08a.76.76 0 11-1.52 0 .76.76 0 011.52 0zm.77-1.65a.76.76 0 11-1.53 0 .76.76 0 011.52 0z" fill="#FFFEFE"/><path fill-rule="evenodd" d="M42 23v6h6.06S50 29 50 27.34c0-1.5-1.4-1.64-1.4-1.64s.9-.17.9-1.32c0-1.57-1.81-1.38-1.81-1.38H42zm3 1.76v.63h1.68a.32.32 0 100-.63H45zm0 2.57v-.63h1.68a.32.32 0 110 .63H45zM25 29h3v-2.5l1.63 2.5H33v-6h-3v2l-1.5-2H25v6zm9-6v6h3v-1.75L38.43 29h3.07l-1.88-2.48s1.78-.2 1.78-1.77c0-1.69-2.15-1.75-2.15-1.75H34zm3 2.3h1.7a.3.3 0 100-.6H37v.6z" fill="#FFFEFE"/><path d="M26.4 30H25v4h1.52c.19 0 .36 0 .5-.06.16-.05.29-.12.4-.22a1.13 1.13 0 00.33-.86c0-.12-.02-.23-.04-.33a.78.78 0 00-.35-.5c-.1-.06-.2-.1-.34-.13.13-.1.23-.2.3-.34.06-.13.1-.29.1-.5 0-.32-.1-.58-.26-.75a1.04 1.04 0 00-.75-.31zm-.28 1.6H26v-.77h.12c.3 0 .44.13.44.39s-.15.38-.44.38zm.04 1.62H26v-.84h.16c.23 0 .4.03.5.1.1.06.15.17.15.32 0 .14-.05.25-.15.32-.1.06-.27.1-.5.1zM29 31h1v-1h-2v4h2v-1h-1v-.56h1v-.88h-1V31zm3.65 2.32h-1.3l-.2.68h-.96l1.32-4h.98l1.32 4h-.96l-.2-.68zm-.25-.79L32 31.2l-.4 1.33h.8zM35.87 34h1.2l-1.16-1.61a1 1 0 00.6-.38c.13-.19.2-.44.2-.74 0-.17-.03-.32-.08-.47a1.15 1.15 0 00-.22-.4 1 1 0 00-.38-.26 1.36 1.36 0 00-.54-.14H34v4h1v-1.51l.87 1.51zm-.73-2.18H35v-.98h.14c.19 0 .33.04.43.12.1.09.15.21.15.37s-.05.28-.15.36a.67.67 0 01-.43.13zM38.5 30v4h-1v-4h1zm.5 0v4h1v-2.45L41.96 34H43v-4h-1v2.42L40.08 30H39zm6.35 2h1.87c0 .18 0 .24-.02.37v.05c-.08.47-.34.99-.77 1.27a1.9 1.9 0 01-1.08.31 1.92 1.92 0 01-1.36-.55 2.17 2.17 0 01-.52-1.46c0-.29.04-.56.13-.8a1.72 1.72 0 01.99-1.04 2.09 2.09 0 011.76.1c.28.18.5.44.67.8l-.88.39a.96.96 0 00-.32-.45.76.76 0 00-.45-.14.85.85 0 00-.67.32c-.08.1-.15.23-.2.37a1.75 1.75 0 000 .93c.04.14.1.26.18.36.08.1.17.18.29.23.12.06.25.09.4.09.1 0 .19-.02.27-.04.22-.05.43-.2.49-.44h-.78V32zm3.86-1.12c.1.04.2.1.3.2l.35-.77a2.1 2.1 0 00-1.07-.31c-.18 0-.35.03-.5.08-.14.07-.27.15-.37.26-.1.1-.18.24-.23.4-.06.15-.09.31-.09.5 0 .2.03.34.08.47.06.12.12.22.21.3a1 1 0 00.3.2 4.79 4.79 0 00.59.23l.17.1.09.12c.02.04.03.09.03.15 0 .09-.04.17-.11.25-.07.07-.18.1-.33.1a.88.88 0 01-.38-.09 1.67 1.67 0 01-.4-.3l-.38.8c.37.29.77.43 1.2.43.21 0 .4-.03.57-.1a1.07 1.07 0 00.68-.67c.05-.15.08-.32.08-.51 0-.29-.06-.52-.2-.7a1.38 1.38 0 00-.64-.43l-.22-.08a1.16 1.16 0 01-.2-.08.55.55 0 01-.15-.12.27.27 0 01-.05-.16c0-.1.04-.18.1-.24a.46.46 0 01.29-.09c.09 0 .18.02.28.06zM19.77 24.3l.74-2.3L22 23.36l-2.23.94z" fill="#FFFEFE"/><defs><linearGradient id="a11x1d1rx" x1="48.25" y1="1.75" x2="0" y2="57.75" gradientUnits="userSpaceOnUse"><stop offset=".36" stop-color="#1A2D45"/><stop offset=".89" stop-color="#36516F"/></linearGradient></defs></svg>