<svg width="56" height="56" viewBox="0 0 56 56" xmlns="http://www.w3.org/2000/svg"><path fill="#58B240" d="M0 0h56v56H0z"/><path d="M30.71 13.5 29.55 12A16.07 16.07 0 0 1 44 26.48l-1.5 1.16-1.6-1.22A13 13 0 0 0 29.5 15.08l1.22-1.58ZM40.88 29.8a13 13 0 0 1-11.3 11.1l-1.26 1.64L29.44 44A16.11 16.11 0 0 0 44 29.91l-1.5 1.13-1.62-1.24ZM26.19 40.88a13 13 0 0 1-11.06-11.05l-1.63-1.25-1.5 1.15c.8 7.4 6.62 13.29 13.98 14.2l-1.08-1.39 1.29-1.66ZM26.02 15.15A13 13 0 0 0 15.1 26.4l-1.6-1.22-1.5 1.15a16.08 16.08 0 0 1 14.16-14.3l1.14 1.47-1.28 1.65ZM28 23v10h-1.76l-5.17-6.81h-.09V33H19V23h1.78l5.15 6.82h.1V23H28ZM30 23h2.93c1.7 0 3.07 1.45 3.07 3.25s-1.37 3.25-3.07 3.25h-.45L36 33h-2.48L30 29.5v-2h2.72c.7 0 1.28-.5 1.28-1.25S33.43 25 32.72 25H30v-2Z" fill="#FDFCFF"/></svg>