<svg width="56" height="56" viewBox="0 0 56 56" xmlns="http://www.w3.org/2000/svg"><path fill="#F0F3FA" d="M0 0h56v56H0z"/><path fill-rule="evenodd" d="M41.84 28.32a.26.26 0 0 1 .1-.1l2.9-1.33c.1-.05.17-.17.16-.29-.12-1.2-.37-2.33-.75-3.4a.19.19 0 0 0-.1-.1.2.2 0 0 0-.08-.03l-3.26-.09a.21.21 0 0 1-.2-.13c-1-2.12-2.45-3.95-4.38-5.5a.31.31 0 0 1-.1-.3l.56-2.96c.05-.24-.04-.42-.26-.53L33.8 12.3a.48.48 0 0 0-.58.12l-1.93 2.39a.38.38 0 0 1-.38.13l-.94-.22a.22.22 0 0 1-.17-.2l-.45-4.65c-.02-.2.09-.4.26-.5l.33-.2c.1-.05.16-.14.16-.25V7.79a.19.19 0 0 0-.15-.18l-2.23-.58a1 1 0 0 0-.56.02l-2.07.65c-.1.03-.14.09-.13.18l.02 1.1c0 .1.04.16.12.21l.66.42c.07.04.1.11.1.19l-.15 4.79c0 .09-.05.14-.13.16l-1.54.4a.2.2 0 0 1-.22-.07l-2-2.36a.47.47 0 0 0-.59-.1l-2.7 1.49a.44.44 0 0 0-.22.48l.75 2.96a.5.5 0 0 1-.15.48 15.46 15.46 0 0 0-3.68 5.1.3.3 0 0 1-.26.17l-3.02.03a.4.4 0 0 0-.39.32l-.56 3a.6.6 0 0 0 .33.65l2.72 1.37c.07.04.11.1.12.18a16.6 16.6 0 0 0 1.61 6.27.4.4 0 0 1-.02.41L14 38c-.12.17-.1.4.02.56l2.03 2.4c.13.15.35.2.53.1l2.65-1.32a.37.37 0 0 1 .39.04 12.84 12.84 0 0 0 5.76 2.66c.06.01.11.06.13.12l.72 3.08a.4.4 0 0 0 .34.3c1.14.11 2.3.09 3.47-.07a.3.3 0 0 0 .24-.22l.66-2.96a.48.48 0 0 1 .35-.35c2-.45 3.81-1.36 5.42-2.74a.18.18 0 0 1 .2-.02l2.89 1.6c.05.03.12.02.16-.03.87-.86 1.63-1.8 2.28-2.8a.27.27 0 0 0 0-.3l-1.81-2.57a.45.45 0 0 1-.04-.44 14.18 14.18 0 0 0 1.41-6.57c0-.05.01-.1.04-.14ZM25.46 8.34c.6-.04 1.16-.09 1.71-.15a5 5 0 0 1 2.17.3c.06.02.12.02.17 0 .1-.04.27-.27.1-.34-.89-.33-1.6-.49-2.15-.46-.48.02-1.13.15-1.96.4-.12.03-.2.26-.04.25Zm1.9.81.29.45c.09.15.13.13.13-.04v-.61c-.01-.14-.07-.17-.2-.11l-.15.07c-.11.06-.14.14-.07.24Zm-.24.43.38.38a.2.2 0 0 1 0 .3l-.26.23a.21.21 0 0 1-.32-.03l-.29-.43a.2.2 0 0 1 .02-.26l.17-.18a.21.21 0 0 1 .3 0Zm1.61.6c-.11.05-.28-.05-.37-.24-.09-.18-.07-.38.04-.43.12-.06.28.05.38.23.09.19.07.38-.05.44Zm-2.26.38c.1.1.33.4.18.54-.06.06-.29.35-.32.14a2.23 2.23 0 0 1 0-.63c.01-.12.06-.13.14-.05Zm1.06.4.17.35c.07.15.13.14.16-.02a1.3 1.3 0 0 0 0-.59c-.01-.03-.03-.06-.05-.06-.02-.01-.04 0-.07.02l-.16.1c-.08.05-.1.12-.05.2Zm.97.24c-.1.18-.07.38.05.45.13.06.31-.03.4-.21.1-.18.08-.38-.04-.45-.13-.07-.31.02-.41.2Zm-1.84.38.26-.24a.2.2 0 0 1 .27 0l.37.4c.08.08.07.2 0 .27l-.26.24a.2.2 0 0 1-.27 0l-.38-.4a.19.19 0 0 1 0-.27Zm.07.92c.13.12.12.34-.02.44l-.2.14c-.13.1-.2.07-.2-.1l-.05-.78c0-.2.42.26.47.3Zm1.16.46.04-.52c.01-.1-.03-.13-.11-.07a.75.75 0 0 0-.2.18c-.06.08-.07.16 0 .24l.14.2c.07.1.12.1.13-.03Zm.7.22c-.02-.08-.2-.84.12-.72.14.05.25.13.34.23.06.08.05.2-.01.28-.08.1-.17.17-.25.25-.1.1-.16.08-.2-.04Zm-1.9.23c0 .03 0 .07.03.1l.62.8.05.04c.38.17.42-.6.27-.79l-.13-.17c-.16-.2-.8-.34-.84.02Zm2.57.63a.87.87 0 0 1-.2-.39c-.03-.14.18-.24.25-.09s.09.3.06.45c0 .05-.07.06-.1.03Zm-2.53.43c-.07-.2-.18-.35-.33-.48-.13-.1-.18-.08-.18.08l.01.32c0 .13.07.2.2.18l.24-.01c.04 0 .07-.05.06-.09Zm1.82-.08c.04-.19.15-.25.31-.17.16.07.14.33-.06.3l-.17-.02a.1.1 0 0 1-.08-.11Zm-.28 5.15c.2-.08.26-.2.2-.38a.2.2 0 0 0-.2-.14l-.63-.02c-.15 0-.17.04-.05.15l.39.33c.08.07.2.1.3.06Zm-3.7 2.35.85.18c.08.02.13.07.13.16v1.7c0 .12-.14.18-.23.1-.44-.41-.88-.85-1.32-1.3-.16-.17-.36-.3-.6-.38a.33.33 0 0 0-.2 0 6.22 6.22 0 0 0-3 1.87c-.42.5-.62 1.06-.57 1.66.03.46.45.81.79 1.08a56.9 56.9 0 0 0 3.86 2.8c.28.18.36.53.44.87l.08.32c.03.09.08.14.17.17.37.13.54.44.5.9-.01.1-.06.14-.14.15l-1.83.17a.14.14 0 0 0-.12.13l-.05 3.27c0 .14-.07.18-.19.1l-.07-.04a.34.34 0 0 1-.18-.32l.03-.72c.04-1.22.08-2.55-.2-3.66a.13.13 0 0 0-.1-.1c-.78-.03-1.82.1-2.35.74-.17.2-.57.1-.8.1-.1 0-.16-.05-.19-.14-1.68-5.35.79-10.53 6.12-12.35.1-.03.2.05.2.15l-.05.62c0 .07-.04.1-.11.11l-.89.08c-.09 0-.13.05-.13.15l.05 1.32c0 .06.04.1.1.11Zm6.44-1.4.18 1.47c.02.26-.42.22-.48.5-.01.07.06.14.14.12l1.12-.35a.2.2 0 0 0 .16-.16c.06-.29.2-.54.44-.76a.33.33 0 0 0 .1-.28l-.07-.68a.23.23 0 0 0-.13-.18 8.62 8.62 0 0 0-2.03-.8c-.03 0-.04.04-.03.1l.1.65c.03.27.46.1.5.37Zm-4.45-.62c.01-.12.07-.25.18-.33.1-.1.23-.14.37-.13.16 0 .3.05.4.16.1.1.15.23.15.36 0 .03-.02.06-.05.05l-1-.04c-.04 0-.05-.04-.05-.07Zm2.2.5h.9c.04 0 .05-.03.05-.06 0-.22-.3-.29-.47-.29h-.06c-.06 0-.12 0-.18.02-.13.03-.29.12-.29.27 0 .03 0 .06.04.06Zm5.08 5.32c.2-.28.26-.44.18-.5a.4.4 0 0 0-.22-.06.37.37 0 0 0-.22.07c-.22.16-.45.29-.69.39-.22.09-.28.02-.18-.2l1.06-2.31c.1-.24.15-.46.13-.67l-.07-.74c0-.25.31-.31.47-.16a9.57 9.57 0 0 1 2.94 6.26.2.2 0 0 1-.1.19 6.78 6.78 0 0 1-5.5 1.36c-.08-.02-.13-.07-.13-.15l-.1-1.43c0-.1.03-.2.1-.28l.98-1.2a.54.54 0 0 1 .24-.16l1.04-.36a.17.17 0 0 0 .07-.05ZM26 23.44c.03.1.08.11.15.03.24-.28.45-.56.6-.82.13-.23.07-.38-.18-.45l-.35-.09c-.18-.05-.29.02-.3.21-.05.37-.02.74.08 1.12Zm2.45-.32c.1.05.1.11.01.18a2 2 0 0 1-.8.33.12.12 0 0 1-.13-.08c-.09-.25-.12-.5-.1-.74.01-.12.07-.15.18-.1l.84.41Zm2.37.37.12 1.23c.01.08.06.13.14.14.35.02.61.14.8.35.12.14.22.13.3-.04a19.62 19.62 0 0 1 .8-1.63.34.34 0 0 0-.17-.4l-.52-.26a.36.36 0 0 0-.3 0l-1.05.42c-.09.04-.13.1-.12.2Zm-4.65 2.77a.23.23 0 0 0-.05-.3 93.84 93.84 0 0 1-2.51-2.25c-.3-.28-.64-.16-.99-.03-.88.32-1.5.83-1.86 1.54-.07.13-.2-.07-.22-.15v-.12c.43-1.15 1.36-1.59 2.42-1.96a.62.62 0 0 1 .63.13l2.9 2.74c.07.06.1.14.1.24-.05.33-.24.58-.59.72-.15.07-.18.03-.1-.11l.27-.45Zm.14-2.25c.37 0 .55-.16.56-.5l-.01-.05a.12.12 0 0 0-.19-.06c-.2.14-.33.32-.4.53-.02.05 0 .07.04.08Zm3.95-.41c.06-.02.1 0 .12.06.05.14.07.3.05.45-.01.14-.06.16-.16.05-.08-.1-.17-.2-.26-.28-.07-.07-.07-.13.02-.18l.23-.1Zm-1 .4.06 1.45c0 .1.1.14.18.1l.77-.53a.12.12 0 0 0 .03-.18l-.84-.92c-.07-.08-.21-.03-.2.08Zm-.8 1.65-.77-.62c-.12-.1-.16-.32-.21-.44a.16.16 0 0 1 .1-.22l.86-.28c.1-.04.21.03.22.14l.07 1.3c.01.13-.16.2-.26.12Zm1.07.96c.3-.2.57-.45.8-.74.08-.12.06-.15-.08-.1-.27.12-.54.3-.81.56-.09.08-.09.4.1.28Zm-1.79-.78c.23.08.43.2.64.33.15.08.3.17.46.24.18.09.15.3.14.46 0 .1-.05.14-.14.08a3.5 3.5 0 0 1-1.19-.98c-.1-.14-.07-.18.1-.13Zm2.97 2.5a.55.55 0 0 0-.16.3c-.03.14.03.25.2.33.1.05.17.01.17-.11 0-.17-.02-.32-.06-.48-.03-.09-.08-.1-.15-.03Zm-4.13.37c.04-.25.2-.38.45-.37.12 0 .14.04.05.13l-.33.33c-.15.14-.2.11-.17-.1Zm10.67.25c-.05-.15-.13-.18-.26-.1a6.94 6.94 0 0 1-5.25 1.12c-.08-.02-.12.02-.1.1l.02.18c.01.08.06.13.15.14 1.87.25 3.64-.1 5.3-1.04a.3.3 0 0 0 .16-.3V29l-.01-.02v-.02l-.01-.01Zm-9 1.5a.38.38 0 0 1-.26.13.34.34 0 0 1-.38-.3c-.02-.27-.01-.56.07-.82a.43.43 0 0 1 .72-.15c.37.4.14.8-.15 1.14Zm-2.05-1.13c.04.06-.05.19-.2.27-.14.09-.3.1-.33.03-.04-.07.04-.2.2-.28.14-.08.3-.1.33-.02Zm3.9-.08.52.34c.07.04.57.34.5.46l-.1.15c-.08.12-.58-.22-.63-.25l-.53-.34c-.03-.02-.04-.06-.02-.1l.16-.24a.07.07 0 0 1 .1-.02Zm1.75 2.86 2.31-.06c.13 0 .2.06.2.18.02.67.05 1.43.1 2.26 0 .1-.03.2-.1.28-2.32 2.46-5.08 3-8.4 2.65-.1-.01-.16.2-.06.22 2.02.39 3.81.26 5.38-.38 3.08-1.26 5.03-3.6 5.85-7.03a.13.13 0 0 0-.06-.13l-.01-.01a.13.13 0 0 0-.1 0c-.2.06-.38.14-.56.21-.71.3-1.4.57-2.2.67-.8.1-1.62.13-2.41.11a.1.1 0 0 0-.1.1l.07.84c0 .05.05.09.1.09Zm-2.54-.58c.01.14-.04.16-.14.07l-.61-.54a.26.26 0 0 1-.06-.31c.12-.25.32-.45.57-.58.08-.04.19.02.2.11l.04 1.25Zm.67.07.63-.8a.08.08 0 0 0-.03-.12l-.73-.34c-.06-.02-.12.02-.11.08l.1 1.14c.01.07.1.1.14.04Zm1.1-.48c.1-.06.14-.04.14.07l.02.81c0 .1-.05.16-.15.17l-.85.07c-.09 0-.15-.1-.1-.17.23-.37.55-.68.95-.95Zm-8.7 2.8c.07-.64.05-1.25-.04-1.82a.44.44 0 0 0-.42-.36c-.65-.02-1.08.28-1.27.9a.4.4 0 0 0 .01.28c.3.68.68 1.35 1.6 1.15.08-.02.12-.07.13-.15Zm1.14 2.3.14-2.74c.01-.23.14-.35.37-.35l9.4-.3c.12 0 .18.06.2.16.06.51.09 1.02.06 1.52 0 .24-.05.24-.14.03a8.87 8.87 0 0 1-.36-1.12.13.13 0 0 0-.12-.1l-2.94.12a.14.14 0 0 0-.12.12l-.04 1.58c0 .1-.22.01-.23-.07l-.14-1.4c0-.1-.05-.14-.14-.15-.78-.08-1.58-.1-2.41-.07-.13 0-.2.07-.2.2v2.08c0 .13.06.2.2.2h2.5c.5 0 .9.03 1.6.07.04 0 .06.02.07.06l.01.08c.01.07-.02.1-.1.1l-5.5.12h-.03c-.1-.06.02-.26.08-.3a.15.15 0 0 1 .08-.02h.52c.1 0 .16-.06.16-.16l-.09-2.2c0-.05-.02-.07-.07-.07l-2.01.08-.05.01c-.04.02-.05.05-.05.1l.13 2.78a.24.24 0 0 0 .14.2 2 2 0 0 1 .4.24c.32.24.29.32-.1.24a9.5 9.5 0 0 1-4.99-4.54c-.01-.11.2-.19.25-.08.23.4 3.5 4.03 3.52 3.58Z" fill="#0044F6"/><path fill-rule="evenodd" d="M28 40c6.08 0 11-5.15 11-11.5S34.08 17 28 17s-11 5.15-11 11.5S21.92 40 28 40Zm0-.96c5.57 0 10.08-4.72 10.08-10.54 0-5.82-4.51-10.54-10.08-10.54S17.92 22.68 17.92 28.5c0 5.82 4.51 10.54 10.08 10.54Z" fill="#fff" fill-opacity=".5"/></svg>