<svg width="56" height="56" viewBox="0 0 56 56" xmlns="http://www.w3.org/2000/svg"><path fill="#F0F3FA" d="M0 0h56v56H0z"/><path d="m47.4 33.85-1.79.05a.62.62 0 0 0-.15-.33.81.81 0 0 0-.32-.22 1.14 1.14 0 0 0-.46-.08c-.22 0-.41.04-.57.13-.16.08-.24.2-.23.35 0 .1.04.2.14.29.1.08.28.15.54.2l1.17.21c.61.11 1.06.3 1.36.56.3.25.45.6.45 1.02 0 .4-.12.74-.37 1.04-.24.3-.58.52-1 .69-.42.16-.9.24-1.45.24-.88 0-1.56-.17-2.07-.51a1.9 1.9 0 0 1-.85-1.38l1.91-.04c.05.2.16.37.33.48.18.11.4.17.68.17.25 0 .46-.05.61-.14.16-.08.24-.2.24-.35a.37.37 0 0 0-.18-.31 1.5 1.5 0 0 0-.56-.2l-1.07-.18c-.6-.11-1.06-.3-1.36-.6-.3-.28-.45-.64-.45-1.09 0-.39.1-.72.33-1 .22-.27.53-.48.93-.63.4-.15.89-.22 1.44-.22.82 0 1.48.17 1.95.5.48.32.74.78.8 1.35ZM37.5 38v-6h1.93v1.16h.06A1.45 1.45 0 0 1 40.94 32a2.16 2.16 0 0 1 .56.07v1.64a3.48 3.48 0 0 0-.78-.1c-.23 0-.45.05-.64.15a1.11 1.11 0 0 0-.6 1.03V38H37.5ZM22.75 38l-1.63-6h2l.84 3.84H24l.9-3.84h1.95l.93 3.82h.05l.81-3.82h2l-1.63 6H26.9l-.98-3.5h-.07l-.97 3.5h-2.13ZM8.65 31.57V30h6.76v1.57H13V38h-2v-6.43H8.65ZM44 22.62V26h-2v-6h2v1.16c.14-.36.32-.64.66-.85.33-.2.72-.31 1.18-.31.44 0 .82.1 1.14.28.32.19.57.45.75.78.18.33.27.72.27 1.16V26h-2v-3.4c0-.33-.06-.6-.24-.78a.96.96 0 0 0-.74-.27c-.2 0-.39.04-.55.13a.89.89 0 0 0-.36.36c-.08.16-.1.36-.11.58ZM38 26c-.62 0-1.16-.12-1.6-.37-.45-.26-.8-.6-1.04-1.06A3.3 3.3 0 0 1 35 23c0-.6.12-1.12.36-1.57.24-.45.59-.8 1.03-1.05.45-.25.99-.38 1.61-.38.62 0 1.16.13 1.6.38.45.25.8.6 1.04 1.05.24.45.36.97.36 1.57 0 .6-.12 1.12-.36 1.57-.24.45-.59.8-1.04 1.06-.44.25-.98.37-1.6.37Zm.01-1.4c.23 0 .42-.07.58-.2.15-.14.27-.33.36-.57.08-.24.12-.52.12-.84 0-.32-.04-.6-.12-.85-.09-.24-.2-.43-.36-.57a.85.85 0 0 0-.58-.2.9.9 0 0 0-.6.2c-.15.14-.28.33-.36.57-.08.24-.12.53-.12.85 0 .32.04.6.12.84.08.24.2.43.37.57.16.14.36.2.6.2ZM18 38c-.62 0-1.16-.12-1.6-.37-.45-.26-.8-.6-1.04-1.06A3.3 3.3 0 0 1 15 35c0-.6.12-1.12.36-1.57.24-.45.59-.8 1.03-1.05.45-.25.99-.38 1.61-.38.62 0 1.16.13 1.6.38.45.25.8.6 1.04 1.05.24.45.36.97.36 1.57 0 .6-.12 1.12-.36 1.57-.24.45-.59.8-1.04 1.06-.44.25-.98.37-1.6.37Zm.01-1.4c.23 0 .42-.07.58-.2.15-.14.27-.33.36-.57.08-.24.12-.52.12-.84 0-.32-.04-.6-.12-.85-.09-.24-.2-.43-.36-.57a.85.85 0 0 0-.58-.2.9.9 0 0 0-.6.2c-.15.14-.28.33-.36.57-.08.24-.12.53-.12.85 0 .32.04.6.12.84.08.24.2.43.37.57.16.13.36.2.6.2ZM26 23.37V20h2v6h-2v-1.18c-.14.36-.33.65-.66.86-.33.21-.73.32-1.2.32-.42 0-.8-.1-1.12-.28-.64-.37-1.01-1.05-1.02-1.94V20h2v3.4c0 .65.36 1.04.97 1.04.2 0 .37-.04.53-.12.16-.09.29-.2.38-.37.1-.16.12-.35.12-.58ZM18.6 26c-.64 0-1.2-.12-1.66-.36a2.55 2.55 0 0 1-1.07-1.03 3.27 3.27 0 0 1-.37-1.6c0-.6.12-1.13.37-1.58.25-.45.6-.8 1.06-1.05.45-.25.99-.38 1.6-.38.44 0 .84.06 1.2.2a2.59 2.59 0 0 1 1.55 1.5c.15.37.22.8.22 1.27v.46h-5.32v-1.08h3.5a.98.98 0 0 0-.54-.89 1.19 1.19 0 0 0-.56-.12c-.22 0-.42.04-.59.14a1.02 1.02 0 0 0-.57.9v1.1c0 .24.05.44.15.62.1.18.24.32.42.42.18.1.4.14.64.14.17 0 .33-.02.47-.06.14-.05.26-.12.36-.2.1-.1.18-.2.23-.33l1.79.05c-.07.38-.24.71-.49 1-.25.27-.58.5-.98.65-.41.15-.88.23-1.41.23ZM31.6 26c-.64 0-1.2-.12-1.66-.36a2.55 2.55 0 0 1-1.07-1.03 3.27 3.27 0 0 1-.37-1.6c0-.6.12-1.13.37-1.58.25-.45.6-.8 1.06-1.05.45-.25.99-.38 1.6-.38.44 0 .84.06 1.2.2a2.59 2.59 0 0 1 1.55 1.5c.15.37.22.8.22 1.27v.46h-5.32v-1.08h3.5a.98.98 0 0 0-.54-.89 1.19 1.19 0 0 0-.56-.12c-.22 0-.42.04-.59.14a1.02 1.02 0 0 0-.57.9v1.1c0 .24.05.44.15.62.1.18.24.32.42.42.18.1.4.14.64.14.17 0 .33-.02.47-.06.14-.05.26-.12.36-.2.1-.1.18-.2.23-.33l1.79.05c-.07.38-.24.71-.49 1-.25.27-.58.5-.98.65-.41.15-.88.23-1.41.23ZM33.6 38c-.64 0-1.2-.12-1.66-.36a2.55 2.55 0 0 1-1.07-1.03 3.27 3.27 0 0 1-.37-1.6c0-.6.12-1.13.37-1.58.25-.45.6-.8 1.06-1.05.45-.25.99-.38 1.6-.38.44 0 .84.06 1.2.2a2.59 2.59 0 0 1 1.55 1.5c.15.37.22.8.22 1.27v.46h-5.32v-1.08h3.5a.98.98 0 0 0-.54-.89 1.19 1.19 0 0 0-.56-.12c-.22 0-.42.04-.59.14a1.02 1.02 0 0 0-.57.9v1.1c0 .24.05.44.15.62.1.18.24.32.42.42.18.1.4.14.64.14.17 0 .33-.02.47-.06.14-.05.26-.12.36-.2.1-.1.18-.2.23-.33l1.79.05c-.07.38-.24.71-.49 1-.25.27-.58.5-.98.65-.41.15-.88.23-1.41.23ZM15 18v8h-1.69l-3.27-4.62H10V26H8v-8h1.71l3.24 4.6H13V18h2Z"/></svg>