<svg width="56" height="56" xmlns="http://www.w3.org/2000/svg"><path fill="#007DC4" d="M0 0h56v56H0z"/><path fill-rule="evenodd" d="M12.212 20h31.83c1.422 0 1.958.824 1.958 2.23v11.596C46 35.097 45.336 36 44.042 36h-31.83C10.603 36 10 35.1 10 33.953V22.23c0-1.177.485-2.229 2.212-2.229zm13.874 2.998l.095-.257c.032-.064.095-.064.193-.064h.479c.063 0 .161.127.161.127v.194h-.928zm2.464 0l.226-1.09c0-.289-.415-.908-.798-.908-.865-.063-1.696-.095-2.43 0-.384.032-.768.17-.898.556l-.447 1.442h-1.02L22.91 24h1.82l-.143.88c-1.984 0-2.957 1.623-2.827 2.653.159 1.232 1.696 1.67 3.68 1.467l.288-1.496h-1.569c-.513 0-.412-.615-.032-.586l1.728-.029.532-2.889h.387l-.935 5h1.664l.84-5h.522l.276-.996h-.591v-.006zm5.09 0l.096-.257c.032-.064.095-.064.193-.064h.479c.063 0 .158.127.158.127l-.025.194h-.9zm7.917 0l.095-.257c.032-.064.095-.064.194-.064h.478c.064 0 .159.127.159.127l-.026.194h-.9zm-9.71 2.624c-.475.193-.795.044-.672-.32l.21-1.302h.754l-.292 1.622zm-2.269-1.625c-.19.982-.618 2.487-.32 2.978.257.44.799.469 1.376.352.297-.029.57-.184.944-.371L31.283 29h1.664l.922-5h.412l-.859 5h1.6l.923-5h.31l.276-1h-.291l.091-1.09c0-.288-.415-.91-.801-.91a30.703 30.703 0 00-2.431 0c-.383 0-.767.172-.897.559L31.922 23h-2.398l-.266.999h.32v-.003zm10.05 2.493h-1.939l1.167 1.014L38.043 29l-2.494-2.218.478-.91c.957-.352 1.31-1.286.77-1.872h-.123l.276-1.002h2.85l.315-1.442c.127-.387.514-.556.897-.556a30.969 30.969 0 012.43 0c.384 0 .8.62.8.907l-.2 1.09h.428L44.194 24h-.298l-.922 5h-1.6l.858-5h-.412l-.922 5h-1.664l.393-2.51zM38.597 25h1.296l.202-1h-1.083l-.416 1zm-16.144 5h5.765l-.416 1.5H25.84l-.793 3.5h-1.983l.684-3.5h-1.711l.418-1.5zm8.114 1.645l-.2.777h1.154c.244 0 .666-.17.666-.463 0-.2-.2-.314-.685-.314h-.935zM28.846 30h3.315c.919 0 2.223.525 2.223 1.485 0 1.636-.908 2.515-2.42 2.515h-2.018l-.308 1h-1.98l1.188-5zm-13.665 0h2.33l1.552 2.536.609-2.536h2.126l-1.33 5H18.1l-1.512-2.58-.463 2.58H13.98l1.201-5zm26.804 3c-.288 1.207-1.765 2-3.514 2-2 0-3.471-1.06-3.471-2.578C35 30.9 36.47 30 38.47 30c1.766 0 3.28.694 3.569 2h-2.434c-.161-.33-.611-.515-1.134-.515-.704 0-1.186.372-1.186.937 0 .56.482.908 1.186.908.377 0 .738-.099.973-.33h2.541zm-29.824-9l-.536 3.235 2.976 1.673.767-1.233-1.727-1.293.434-2.382h.834c.107.957-.118 1.843-.65 2.357l.897.646c.817-.462 1.388-1.552 1.65-3.003h3.392l-.247 1h-3.014l-.257 1.49c.257.469.545.88 1.087.998.225.06.64-.117.865-.529.064-.117.127-.323.159-.47h.817L19.118 29h1.793l1.08-5h.514l.276-1.002H12.15L11.88 24h.282zm-1.071-6h33.836C46.625 18 48 19.426 48 21.052v13.915C48 36.574 46.555 38 44.926 38H11.09C9.445 38 8 36.644 8 34.967V21.052C8 19.372 9.391 18 11.09 18z" fill="#fff"/></svg>