<svg xmlns="http://www.w3.org/2000/svg" width="56" height="56" viewBox="0 0 56 56"><path fill="#F0F3FA" d="M0 0h56v56H0z"/><path fill-rule="evenodd" d="M40.64 29.02l-.21.18a4.5 4.5 0 0 0-.83 1.18H38.6v-.02l-.49-.83a1.46 1.46 0 0 0-.44-.45 2.5 2.5 0 0 1-1.17-2.1c0-1.4 1.17-2.54 2.61-2.54.76 0 1.44.31 1.91.8l1.13-.93A4.15 4.15 0 0 0 39.1 23a4.04 4.04 0 0 0-4.1 3.97c0 1.21.56 2.3 1.44 3.03a3.07 3.07 0 0 1 1.09 1.82h3.24c0-.49.17-1.03.75-1.64.27-.2.52-.41.73-.66l-1.13-.94c-.14.16-.3.31-.48.44zm-3 3.21c0-.13.1-.23.25-.23h2.48c.14 0 .25.1.25.23v.04c0 .13-.11.23-.25.23h-2.48c-.14 0-.25-.1-.25-.23v-.04zm.5.5c-.13 0-.24.1-.24.24v.04c0 .13.1.24.24.24h2.03c.14 0 .25-.1.25-.24v-.04a.24.24 0 0 0-.25-.24h-2.03zm-.09 1c0-.13.11-.23.25-.23h1.65c.14 0 .25.1.25.23v.04c0 .13-.1.23-.25.23H38.3c-.14 0-.25-.1-.25-.23v-.04zM28 24h5.5v1.5h-4V27H33v1h-3.5v1.5h4V31H28v-7zM5 31v-7h1.32L10 28.6V24h1.5v7h-1.2l-3.8-4.39V31H5zm8-7h1.5v4.04c0 .94.77 1.73 1.75 1.73s1.75-.8 1.75-1.73V24h1.5v3.9c0 1.71-1.46 3.1-3.25 3.1A3.18 3.18 0 0 1 13 27.9V24zm11.75 0H21v7h1.5v-2.5h.82l2.34 2.5h1.84l-2.36-2.53a2.27 2.27 0 0 0 1.9-2.22 2.28 2.28 0 0 0-2.3-2.25zm-2.25 1.5V27h2.37c.52 0 .78-.34.78-.75s-.26-.75-.78-.75H22.5zM46.15 24H47.85L51 31h-1.64l-.67-1.5H45.3l-.68 1.5H43l3.15-7zm1.86 4L47 25.75 45.99 28H48z" fill="#F59331"/></svg>