<svg xmlns="http://www.w3.org/2000/svg" width="56" height="56" viewBox="0 0 56 56"><path fill="#F0F3FA" d="M0 0h56v56H0z"/><path d="M24.16 26H22l2.55 5h1.7l-2.09-5Z" fill="#009159"/><path d="M27.84 21H30l-3.74 10h-1.71l3.29-10Z" fill="#42BB52"/><path d="M6 24v7h2v-4.22L10.9 31H13v-7h-2v4.3L7.88 24H6Z"/><path d="M14 24v4.83c0 1.2 1.07 2.17 2.4 2.17h2.18c1.33 0 2.4-.97 2.4-2.17V26h-1.97v2.34c0 .65-.76 1.18-1.49 1.18-.72 0-1.5-.53-1.5-1.18V24H14Zm5 1.5h2l-.98-1.5-1.01 1.5Z" fill="#ED2F42"/><path fill-rule="evenodd" d="M32.5 31a3.5 3.5 0 1 0 0-7 3.5 3.5 0 0 0 0 7Zm0-1.5c.83 0 1.5-.9 1.5-2s-.67-2-1.5-2-1.5.9-1.5 2 .67 2 1.5 2ZM46.5 31a3.5 3.5 0 1 0 0-7 3.5 3.5 0 0 0 0 7Zm0-1.5c.83 0 1.5-.9 1.5-2s-.67-2-1.5-2-1.5.9-1.5 2 .67 2 1.5 2Z" fill="#231F20"/><path d="M42 24.15c-.36-.1-.74-.15-1.14-.15-2.13 0-3.86 1.57-3.86 3.5s1.73 3.5 3.86 3.5c.4 0 .78-.05 1.14-.15v-1.9c-.32.34-.75.55-1.23.55-.98 0-1.77-.9-1.77-2s.8-2 1.77-2c.48 0 .91.21 1.23.55v-1.9Z" fill="#231F20"/><path d="M24.67 14.88c-.41.09-.82.2-1.22.3 5.26-.95 11.42.74 17.27 7.82h-1.34c-5.55-6.34-11.23-7.67-15.99-6.72-4.54.9-8.3 3.88-10.4 6.72h-1.25c2.32-3.78 6.99-7.95 12.73-9.16 5.92-1.24 12.87.68 19.48 9.16h-1.31C36.4 15.36 30 13.76 24.67 14.88ZM43.15 33h.8l.28.18a20.67 20.67 0 0 1-12.96 9c-5.98 1.18-13.04-.7-19.72-8.95l.29-.23h.82c6.38 7.67 12.94 9.28 18.42 8.2.41-.09.82-.18 1.22-.3-5.34.92-11.6-.73-17.53-7.66l.28-.24h.83c5.7 6.44 11.58 7.8 16.48 6.88 4.84-.9 8.8-4.05 10.79-6.88Z" fill="#42BB52"/></svg>