<svg xmlns="http://www.w3.org/2000/svg" width="56" height="56"><path fill="#F0F3FA" d="M0 0h56v56H0z"/><path fill-rule="evenodd" d="M22.47 20.07c.4-.04.73-.18 1-.42.5-.42.61-1.3.08-1.74-.23-.2-.6-.3-1.1-.3-1.2 0-2.65.47-4 1.23-2.34 1.32-4.4 3.51-4.4 5.67 0 1 .48 1.49 1.44 1.49 2.2 0 4.03-1.7 5.3-3.36.44-.57.8-1.15 1.1-1.73.3-.58.46-1.1.46-1.52 0-.34-.07-.6-.22-.77-.14-.17-.38-.26-.72-.26-.48 0-1.03.18-1.65.53a6.5 6.5 0 00-1.7 1.4c-.5.57-.85 1.19-1.05 1.86h.25c.22-.6.52-1.13.9-1.57a6.5 6.5 0 012.41-1.8c.36-.15.64-.22.84-.22a.66.66 0 01.63.4c.07.12.1.26.1.41 0 .44-.22 1.04-.67 1.81-1.2 2.08-3.45 4.62-6.03 4.62-.61 0-1-.39-1-.91 0-2.9 4.05-6.14 6.72-6.88.66-.2 1.56-.34 2.17.07.54.33.43.97.02 1.37-.23.23-.53.36-.88.4v.22zm-.64 5.44a17.45 17.45 0 001.73-1.35l.34-.25c-.64.67-.96 1.25-.96 1.7 0 .14.03.24.09.3.05.06.14.09.26.09.24 0 .55-.13.92-.38.28-.19.63-.46 1.06-.82-.03.12-.04.25-.04.38 0 .3.05.5.17.63.12.13.3.19.54.19.5 0 .95-.13 1.37-.4.41-.26.95-.67 1.62-1.23l.07-.07c.33-.33.93-.92 1.36-.92.03 0 .05 0 .05.03 0 .04-.11.18-.34.41L28.15 26H29l.05-.05c.28-.28.6-.6 1-.91a20.45 20.45 0 012.03-1.44c.28-.15.46-.22.56-.22.04 0 .06.02.06.06 0 .06-.05.14-.16.25l-.41.38-.4.35c-.19.19-.33.4-.44.62-.1.2-.16.4-.16.56 0 .27.14.4.41.4.21 0 .46-.08.75-.24.28-.17.56-.38.85-.6l.72-.63v.01l.75-.64c.38-.33.66-.55.84-.68l-.55.63c-.19.2-.36.4-.53.63-.16.21-.28.42-.36.6a1.2 1.2 0 00-.13.52c0 .16.03.27.1.32.08.05.2.08.36.08.25 0 .5-.07.78-.2.26-.13.54-.32.83-.54l.57-.46c-.04.14-.06.29-.06.44 0 .5.2.76.57.76.15 0 .29-.03.43-.08.14-.06.3-.16.47-.28.17-.12.37-.29.58-.46-.06.23-.1.4-.1.52 0 .2.11.3.32.3.15 0 .33-.07.56-.2a6.8 6.8 0 001.14-.82l.53-.44 1.35-1.18c-.96 1.02-1.45 1.77-1.45 2.22 0 .15.03.26.1.33.05.06.15.09.3.09.16 0 .33-.05.5-.14.17-.1.36-.22.55-.38l.57-.48.74-.63v-.34a58.12 58.12 0 01-.94.8l-.45.39a5.3 5.3 0 01-.54.39c-.2.11-.33.17-.42.17-.06 0-.1-.02-.1-.06 0-.1.23-.4.67-.87l5.14-5.64h-.84a311.35 311.35 0 01-2.28 2.46 23.3 23.3 0 01-1.36 1.23 166.38 166.38 0 01-2.07 1.74l-.19.15c-.35.27-.67.5-.95.69-.28.18-.45.27-.51.27-.03 0-.05-.02-.05-.05 0-.06.08-.18.23-.35l1.95-2.2-.92.07-.32.36c0-.16-.03-.26-.1-.33-.07-.06-.2-.1-.41-.1-.33 0-.7.09-1.13.25a2.97 2.97 0 00-1.18.8c-.4.35-.83.69-1.3 1.01-.54.37-.93.55-1.18.55-.1 0-.14-.02-.14-.07 0-.04.09-.17.27-.39l2.67-2.96h.98l.23-.24h-1l1.28-1.44-.92.06-1.25 1.38h-.58l-.24.24h.52c-.6.37-1.32.94-2.14 1.7v-.01c-.54.5-1.04.94-1.51 1.26-.46.33-.8.49-.98.49a.23.23 0 01-.12-.03c-.03-.02-.04-.04-.04-.06 0-.1.17-.29.53-.55.36-.28.57-.47.65-.55.31-.3.47-.64.47-.98 0-.17-.02-.28-.07-.35-.05-.07-.14-.1-.28-.1-.19 0-.41.06-.68.2-.26.13-.52.29-.79.47l-.92.66.18-.27c.09-.14.15-.25.18-.35.04-.1.05-.2.05-.33 0-.15-.02-.25-.07-.3-.4-.43-1.31.4-1.65.72l-.07.07c-1.31 1.17-2.3 1.75-2.96 1.75a.57.57 0 01-.27-.07c-.08-.04-.13-.1-.13-.19 0-.08.07-.23.2-.43.12-.2.25-.36.4-.49.5-.01.9-.07 1.24-.16.34-.1.6-.22.76-.37.17-.16.26-.33.26-.5 0-.16-.04-.27-.13-.33-.08-.07-.21-.1-.4-.1a4.23 4.23 0 00-1.6.49c-.28.15-.52.34-.71.58-.39.34-.8.67-1.25 1-.52.37-.86.55-1.03.55-.07 0-.11-.02-.11-.06 0-.04.1-.17.3-.38l1.93-2.15h-.93a9.7 9.7 0 00-1.18.88c-.61.52-1.14.91-1.58 1.23-.45.31-.76.47-.94.47-.05 0-.07-.02-.07-.05 0-.07.27-.4.83-.97.56-.59.84-.94.84-1.06a1 1 0 00-.07-.34c-.04-.13-.1-.19-.17-.19a1 1 0 00-.36.07.3.3 0 01-.16-.05c-.05-.04-.08-.08-.08-.13l.02-.04c.02.04.1.06.25.06.2 0 .29-.1.29-.28 0-.19-.1-.28-.3-.28-.3 0-.46.22-.46.65-.38.25-.83.6-1.37 1.06v.34c.44-.42.94-.81 1.48-1.16.08.04.22.06.42.06-.51.5-.88.9-1.09 1.23-.2.31-.31.63-.31.99 0 .23.1.34.28.34.24 0 .6-.16 1.06-.49zm3.98-3.32c-.4 0-.32-.6.05-.6.4 0 .3.6-.05.6zm2.28 1.22c.03.03.05.06.05.1 0 .15-.17.32-.5.51-.34.2-.74.3-1.22.32.23-.27.5-.5.82-.7.31-.18.55-.28.7-.28.06 0 .11.02.15.05zm11.32.17c0-.07-.02-.12-.07-.16a.24.24 0 00-.17-.06c-.23 0-.53.15-.92.44-.38.29-.71.61-1 .97-.29.36-.44.64-.44.8 0 .14.07.21.22.21.17 0 .45-.14.85-.42.39-.29.75-.62 1.06-.96.32-.35.47-.62.47-.82zm-16.59 5.26a46.22 46.22 0 00-5.35 5.33c-.55.68-1.1 1.38-1.64 2.12.18 0 .36-.04.54-.1a6.23 6.23 0 001.74-.98c.54-.46 1-.81 1.37-1.06 0-.43.15-.65.46-.65.2 0 .3.1.3.28 0 .19-.1.28-.29.28-.14 0-.22-.02-.25-.06a.12.12 0 00-.02.05c0 .04.03.08.08.12a.3.3 0 00.16.05l.13-.04a1 1 0 01.24-.03c.07 0 .13.07.17.2a1 1 0 01.07.33c0 .12-.28.47-.85 1.06a5.4 5.4 0 00-.83.96c0 .03.02.05.08.05.18 0 .49-.16.93-.47.44-.32.97-.72 1.58-1.24.28-.25.6-.45.95-.6.43-.2.8-.29 1.11-.29.42 0 .62.18.62.55 0 .3-.1.6-.31.87.27-.03.58-.2.93-.53.73-.7 1.1-.87 1.5-.89.23 0 .34.12.34.34 0 .2-.08.46-.25.78.52-.4.92-.68 1.19-.85.27-.17.55-.25.83-.25.23 0 .35.1.35.3 0 .29-.13.62-.38 1 .55-.4 1.01-.72 1.4-.95.39-.24.7-.35.94-.35.23 0 .34.13.34.4a1.5 1.5 0 01-.66 1.2l-.27.2c-.23.18-.42.33-.55.45-.13.13-.2.22-.2.28 0 .04.04.06.14.06.34 0 1.12-.5 2.34-1.55l.09-.1c.3-.3.67-.54 1.1-.7.42-.16.8-.24 1.12-.24.2 0 .35.03.41.1.07.06.1.17.1.32l.32-.35.92-.09-1.95 2.2c-.15.17-.22.3-.22.35 0 .03.01.05.04.05.07 0 .24-.1.51-.27a14.63 14.63 0 001.74-1.33c.88-.8 1.63-1.4 2.26-1.8h-.52l.24-.24h.58l1.26-1.38.92-.06-1.29 1.44h1l-.22.24h-.99l-2.67 2.95a1.4 1.4 0 00-.27.39c0 .05.05.07.14.07.25 0 .64-.18 1.18-.55l.07-.05c.5-.34.8-.55 1.23-.95.53-.44.99-.79 1.37-1.03h.93l-1.94 2.14c-.2.21-.3.34-.3.38 0 .04.04.06.12.06.17 0 .51-.18 1.03-.56a17.33 17.33 0 001.36-1.1 3 3 0 011.11-.7c.42-.17.8-.25 1.1-.25.2 0 .34.03.42.1.07.07.11.17.11.33a.6.6 0 01-.15.4c-.21.22-.7.25-.7-.15 0-.16.12-.28.34-.28.1 0 .2.04.26.12 0-.2-.09-.3-.26-.3-.25 0-.56.15-.93.44-.37.29-.7.62-.99.98-.28.36-.42.62-.42.8 0 .12.13.19.4.19.82-.02 2.2-1.07 2.94-1.74l.41-.35a30.65 30.65 0 001.02-.85c.09-.08.17-.19.26-.31s.15-.2.19-.23c.04-.05.1-.07.18-.07.06 0 .11.02.14.07a.2.2 0 01.06.14.3.3 0 01-.1.23.96.96 0 01-.28.17 2.15 2.15 0 01.42 1.71c.3 0 .63-.17 1-.51v.34c-.18.17-.34.28-.5.33-.15.05-.35.07-.6.07-.15.34-.46.6-.95.86-.48.24-.9.36-1.28.36-.5 0-.75-.17-.75-.5 0-.17.04-.3.14-.38a.5.5 0 01.36-.13c.24 0 .36.1.36.31a.3.3 0 01-.1.24.32.32 0 01-.21.09.45.45 0 01-.2-.05c0 .11.12.17.36.17.25 0 .52-.12.82-.36.3-.24.55-.5.76-.84.2-.35.3-.65.3-.93 0-.2-.06-.39-.17-.57l-1.64 1.33c-.41.36-.8.67-1.14.91-.34.24-.67.4-.99.53-.3.12-.6.18-.88.18-.46 0-.7-.25-.7-.76 0-.16.02-.3.06-.44-.43.36-.79.63-1.07.82-.37.25-.68.38-.92.38-.12 0-.21-.03-.26-.1-.06-.05-.09-.15-.09-.29 0-.45.32-1.02.95-1.7-.36.3-.62.5-.76.64-.54.46-1.1.93-1.73 1.25-.27.13-.53.2-.78.2a.62.62 0 01-.35-.08c-.07-.05-.11-.16-.11-.32s.04-.33.13-.52c.08-.18.2-.38.36-.6.17-.21.34-.42.53-.62l.55-.62a9.7 9.7 0 00-.84.67l-.75.64-.83.68c-.33.26-.6.44-.84.57-.22.13-.4.2-.55.2-.21 0-.32-.1-.32-.3 0-.12.03-.28.1-.5-.21.16-.4.32-.58.44-.17.12-.33.22-.47.28-.14.05-.28.08-.43.08-.38 0-.57-.25-.57-.76 0-.15.02-.3.06-.43l-.41.33c-.4.3-.71.5-.96.65-.25.14-.46.21-.64.21a.51.51 0 01-.3-.08.38.38 0 01-.1-.28c0-.4.25-.8.72-1.27l.33-.3.41-.4c.1-.1.15-.18.15-.22 0-.03-.03-.05-.08-.05-.1 0-.37.14-.83.41a14.54 14.54 0 00-2.8 2.19h-.88l1.87-2.05c.27-.3.4-.47.4-.52 0-.03-.01-.04-.05-.04-.25 0-.74.28-1.46.83-.71.56-1.4 1.17-2.02 1.78h-.91l1.97-2.15c.22-.23.34-.37.34-.42 0-.02-.02-.03-.05-.03-.47 0-1.13.66-1.44.98a1.46 1.46 0 01-1.12.39 4.9 4.9 0 01-1.1.9c-.38.21-.73.33-1.04.33-.47 0-.7-.24-.7-.72 0-.14.02-.28.07-.42-.31.24-.6.45-.9.65-.46.32-.81.49-1.05.49-.2 0-.3-.12-.3-.35 0-.35.11-.66.33-.97.2-.32.57-.73 1.09-1.23-.2 0-.35-.02-.43-.06-.38.25-.75.56-1.08.84l-.4.32c-.37.26-1.52 1.02-2.5 1.02l-.31.43h-.91l.4-.55a3.52 3.52 0 01-1.66-.75A6.8 6.8 0 019.46 37c-.55 0-.93-.1-1.14-.28a.86.86 0 01-.32-.66c0-.2.06-.36.18-.5.12-.16.3-.24.52-.24.25 0 .37.1.37.31 0 .18-.11.27-.34.27a.38.38 0 01-.34-.17.5.5 0 00-.15.36c0 .19.1.35.3.48.22.13.52.2.9.2 1.19 0 2.53-.63 3.49-1.3a3.3 3.3 0 01-1.06-2.38c0-.33.05-.63.14-.89.1-.27.27-.49.5-.65.24-.17.53-.25.9-.25.32 0 .64.08.95.25.3.16.56.4.77.71.22.3.37.67.46 1.08a38.27 38.27 0 014.94-3.68 8.63 8.63 0 012.14-.96l.15.14zm-.72.28c-.7.3-1.38.69-2.07 1.16a45.6 45.6 0 00-4.37 3.35l.04.54c0 .44-.08.93-.25 1.48.56-.65 1.09-1.24 1.57-1.76 1.11-1.2 2.34-2.3 3.56-3.39.5-.46 1.02-.91 1.52-1.38zm-6.7 4.38a2.7 2.7 0 00-.78-1.42 1.73 1.73 0 00-1.2-.55c-.26 0-.48.07-.68.2-.2.14-.34.33-.44.55-.1.23-.15.47-.15.73 0 .33.09.72.27 1.16.17.44.42.82.75 1.14a46 46 0 002.23-1.8zm.05.31l-1 .82c-.48.4-.84.7-1.08.88.44.38.97.62 1.58.73.17-.38.3-.74.38-1.08a4.1 4.1 0 00.12-1.34zm8.12.58c.2 0 .3.09.3.26 0 .14-.08.32-.22.53a4.8 4.8 0 01-1.4 1.3c-.31.2-.57.3-.76.3-.19 0-.28-.07-.28-.2 0-.15.14-.4.44-.77s.63-.7 1-.98c.37-.3.68-.44.92-.44zm10.72.04c.05.04.08.1.08.16 0 .2-.16.47-.47.82-.32.34-.67.66-1.06.95-.4.28-.68.42-.85.42-.15 0-.22-.07-.22-.21 0-.16.14-.43.43-.79.3-.36.63-.68 1-.97.39-.3.7-.44.93-.44.06 0 .11.02.16.06zm7.28-1.23c-.4 0-.31-.6.06-.6.4 0 .3.6-.06.6z" fill="#E10613"/></svg>