<svg xmlns="http://www.w3.org/2000/svg" width="56" height="56"><path fill="#EF831F" d="M0 0h56v56H0z"/><path d="M7 27.78a1 1 0 01.3-.7l8.8-8.78a1 1 0 01.69-.29l.8-.01a1 1 0 01.72.3l10.2 10.18-10.23 10.23a1 1 0 01-.7.29h-.77a1 1 0 01-.7-.3l-8.82-8.8a1 1 0 01-.29-.7v-1.42zm3.12.7l7.07 7.08 7.07-7.07-7.07-7.08-7.07 7.07z" fill="#fff"/><path d="M35.5 18a1.5 1.5 0 00-1.06.44l-13.1 13.1 6.39-1.83 7.95-8.25a1.5 1.5 0 011.08-.46h6.5l-3.45 3.54a1.5 1.5 0 01-1.08.46H33.2l-2.9 3H40a1.5 1.5 0 001.08-.46l6.8-7A1.5 1.5 0 0046.8 18H35.5z" fill="#fff"/><path d="M35.17 39a1.5 1.5 0 01-1.08-.46L21 25l6.38 1.89 8.05 8.63a1.5 1.5 0 001.1.48H43l-3.48-3.55a1.5 1.5 0 00-1.07-.45H33l-2.8-3h9.66a1.5 1.5 0 011.08.47l6.65 7c.91.95.23 2.53-1.08 2.53H35.17z" fill="#fff"/></svg>