<svg width="56" height="56" viewBox="0 0 56 56" xmlns="http://www.w3.org/2000/svg"><path fill="#F0F3FA" d="M0 0h56v56H0z"/><path fill-rule="evenodd" d="M22.07 16A12.04 12.04 0 0 0 10 28c0 6.63 5.4 12 12.07 12h11.86C40.59 40 46 34.63 46 28s-5.4-12-12.07-12H22.07ZM22 39a11 11 0 1 0 0-22 11 11 0 0 0 0 22Z" fill="#1259A0"/><path d="M30 21.72A9 9 0 0 0 24.66 20C19.91 20 16 23.58 16 28s3.9 8 8.66 8A9 9 0 0 0 30 34.28 10.15 10.15 0 0 1 22.12 38 10.06 10.06 0 0 1 12 28c0-5.52 4.53-10 10.12-10 3.18 0 6.02 1.45 7.88 3.72Z" fill="#1259A0"/><path d="M22 25v9h5v-9h3v-2H19v2h3Z" fill="#1259A0"/></svg>