<svg xmlns="http://www.w3.org/2000/svg" width="56" height="56" viewBox="0 0 56 56"><path fill="#14599C" d="M0 0h56v56H0z"/><path d="M10 39.22l2-.7c.92-.31 5.42-1.66 6.37-1.78.33.3.55.58.88.87A13.15 13.15 0 0 0 37 37.47l.64-.66.22-.25c.44-.04 3.67.99 4.24 1.18L46 39.23c-.99-1.11-1.97-2.17-2.89-3.3a197.29 197.29 0 0 1-2.8-3.38c-.15-.19.09-.65.2-1.14.7-2.98.63-6.43-.9-9.1-1.69-3.55-4.84-5.66-7.71-6.67-1.96-.7-1.63-.1-2-1.03L28.1 9c-.07.16-.78 2.13-.82 2.25-.45 1.23-.67 1.98-1.2 3.16l-.34.8c-.06.13-.07.11-.25.15-3.36.8-6.5 2.22-8.94 6.63-1.6 2.9-1.77 6.72-.83 9.97.1.36.18.39 0 .58-.92 1.14-1.8 2.3-2.78 3.4-.4.43-1.07 1.25-1.46 1.65l-.37.4L10 39.21zm3.8-2.46l-.07.04c-.01-.13-.01-.03.05-.07a88.46 88.46 0 0 0 6.24-8.13 78.1 78.1 0 0 0 7.3-14.2c.22-.55.42-1.13.68-1.68.3.68.57 1.71.73 2.1a75.8 75.8 0 0 0 5.25 10.82 71.54 71.54 0 0 0 3.87 5.6c.67.9 2.3 3 3.15 3.97.37.42.73.86 1.07 1.27.07.06.05-.08.06.08l-.08-.05a7.7 7.7 0 0 1-.81-.24l-2.4-.67c-6.48-1.67-11.8-1.74-18.41-.45a68.91 68.91 0 0 0-6.64 1.6z" fill="#fff"/></svg>