<svg width="56" height="56" viewBox="0 0 56 56" xmlns="http://www.w3.org/2000/svg"><path fill="#F0F3FA" d="M0 0h56v56H0z"/><path fill-rule="evenodd" d="M12 24H4v8h8v-8Zm-7.7 3.07v-2.75h3.51v3.45H4.6v.38h3.22v3.57h-3.5v-2.8h.28v2.5h2.95v-3H4.3v-.93h3.24v-2.9H4.59v2.48H4.3Zm4.12.7h-.34v-3.45h3.6v3.45h-.13l-3.13-2.89v2.89Zm2.95-3.16H8.64l2.73 2.52V24.6Zm-2.61 2.87h2.14v.29H8.76v-.29Zm.95-.69c0 .27-.21.5-.48.5a.48.48 0 0 1-.47-.5c0-.27.21-.49.47-.49.27 0 .48.22.48.5Zm-.2 0c0 .16-.12.29-.28.29a.28.28 0 0 1-.28-.29c0-.16.13-.28.28-.28.16 0 .28.12.28.28Zm-1.39 1.36v.3h3.25v2.95H8.4v-2.58h-.28v2.9h3.51v-3.57h-3.5Z" fill="#D9241D"/><path fill-rule="evenodd" d="M52 24H13v8h39v-8Zm-31 4c0 1.66-.87 3-3.5 3S14 29.66 14 28s1.1-3 3.5-3 3.5 1.34 3.5 3Zm-2 0c0 .97-.37 1.75-1.5 1.75S16 28.97 16 28s.47-1.75 1.5-1.75S19 27.03 19 28Zm5 3h-2v-6h2.9l1.13 3.61L27.15 25H30v6h-2v-4.47L26.85 31h-1.66L24 26.53V31Zm6.24 0h2.08l.33-1h2.29l.33 1h4.42l1.3-1.92L42.32 31h2.25l-2.25-3.1 2.06-2.9h-2.24L41 26.8 39.84 25h-2.22l2.07 2.9-2.3 3.03L34.95 25H32.7l-2.46 6Zm4.2-2.5-.64-1.96-.65 1.96h1.3ZM45 25h5.5v1.28H47v1.02h2.96v1.45H47v.9h3.5V31H45v-6Z" fill="#00448F"/></svg>