<svg width="56" height="56" viewBox="0 0 56 56" xmlns="http://www.w3.org/2000/svg"><path fill="#F0F3FA" d="M0 0h56v56H0z"/><path fill-rule="evenodd" d="m28.45 24 .68-.1a.1.1 0 0 1 .11.08l.2.79a.1.1 0 0 0 .04.06.1.1 0 0 0 .08 0l.52-.14a.1.1 0 0 0 .06-.12l-.21-.79a.1.1 0 0 1 .05-.12l.64-.24a.1.1 0 0 1 .12.04l.4.71a.1.1 0 0 0 .1.05.1.1 0 0 0 .04-.01l.46-.28a.1.1 0 0 0 .03-.13l-.42-.69a.1.1 0 0 1 .02-.13l.55-.44a.1.1 0 0 1 .13.01l.57.58a.1.1 0 0 0 .13 0l.4-.36a.1.1 0 0 0 .02-.07.1.1 0 0 0-.03-.07l-.57-.58a.1.1 0 0 1-.01-.13l.42-.55a.1.1 0 0 1 .13-.02l.68.4a.1.1 0 0 0 .08.02.1.1 0 0 0 .06-.05l.27-.45a.1.1 0 0 0 0-.08.1.1 0 0 0-.04-.06l-.7-.38a.1.1 0 0 1-.04-.13l.26-.65a.1.1 0 0 1 .12-.06l.77.24a.1.1 0 0 0 .12-.07l.13-.53a.1.1 0 0 0-.07-.12l-.76-.19a.1.1 0 0 1-.08-.1l.08-.7a.1.1 0 0 1 .1-.1l.8.01a.1.1 0 0 0 .08-.03.1.1 0 0 0 .03-.07v-.5a.1.1 0 0 0-.1-.1l-.82-.03a.1.1 0 0 1-.1-.08l-.07-.68a.1.1 0 0 1 .07-.11l.78-.2a.1.1 0 0 0 .06-.04.1.1 0 0 0 0-.08l-.13-.52a.1.1 0 0 0-.09-.07.1.1 0 0 0-.04 0l-.77.23a.1.1 0 0 1-.12-.05l-.25-.64a.1.1 0 0 1 .04-.12l.7-.4a.1.1 0 0 0 .05-.07.1.1 0 0 0-.01-.07l-.27-.46a.1.1 0 0 0-.13-.03l-.69.42a.1.1 0 0 1-.12-.02l-.43-.56a.1.1 0 0 1 0-.13l.58-.57a.1.1 0 0 0 0-.14l-.37-.38a.1.1 0 0 0-.14 0l-.58.57a.1.1 0 0 1-.13.01l-.54-.42a.1.1 0 0 1-.03-.12l.41-.7a.1.1 0 0 0-.03-.14l-.44-.27a.1.1 0 0 0-.11 0 .1.1 0 0 0-.03.03l-.4.72a.1.1 0 0 1-.13.05l-.63-.26a.1.1 0 0 1-.06-.11l.2-.8a.1.1 0 0 0-.08-.12l-.48-.13a.1.1 0 0 0-.08.01.1.1 0 0 0-.04.06l-.21.78a.1.1 0 0 1-.11.08l-.68-.1a.1.1 0 0 1-.09-.09l-.01-.8a.1.1 0 0 0-.1-.1h-.52a.1.1 0 0 0-.07.03.1.1 0 0 0-.03.07l.01.79a.1.1 0 0 1-.08.1l-.69.1a.1.1 0 0 1-.1-.07l-.2-.8a.1.1 0 0 0-.08-.07.1.1 0 0 0-.04 0l-.52.15a.1.1 0 0 0-.07.12l.22.76a.1.1 0 0 1-.06.12l-.63.27a.1.1 0 0 1-.13-.04l-.4-.71a.1.1 0 0 0-.1-.05.1.1 0 0 0-.04.01l-.46.28a.1.1 0 0 0-.03.14l.41.7a.1.1 0 0 1-.02.13l-.56.41a.1.1 0 0 1-.13 0l-.55-.59a.1.1 0 0 0-.07-.03.1.1 0 0 0-.08.03l-.38.39a.1.1 0 0 0 0 .14l.6.55a.1.1 0 0 1 0 .13l-.43.55a.1.1 0 0 1-.12.02l-.7-.4a.1.1 0 0 0-.12 0 .1.1 0 0 0-.02.03l-.26.46a.1.1 0 0 0 .04.13l.68.39a.1.1 0 0 1 .05.12l-.25.65a.1.1 0 0 1-.12.06l-.76-.23a.1.1 0 0 0-.08.01.1.1 0 0 0-.05.06l-.14.54a.1.1 0 0 0 0 .07.1.1 0 0 0 .07.05l.76.19a.1.1 0 0 1 .07.1l-.1.7a.1.1 0 0 1-.09.07h-.77a.1.1 0 0 0-.1.1l-.01.52a.1.1 0 0 0 .06.1.1.1 0 0 0 .04 0h.8a.1.1 0 0 1 .1.09l.1.68a.1.1 0 0 1-.08.11l-.78.2a.1.1 0 0 0-.07.12l.15.52a.1.1 0 0 0 .12.06l.77-.22a.1.1 0 0 1 .11.06l.26.66a.1.1 0 0 1-.04.12l-.7.4a.1.1 0 0 0-.04.05.1.1 0 0 0 .01.08l.27.45a.1.1 0 0 0 .14.04l.67-.42a.1.1 0 0 1 .13.03l.43.57a.1.1 0 0 1-.01.13l-.58.54a.1.1 0 0 0-.03.07.1.1 0 0 0 .03.07l.38.4a.1.1 0 0 0 .15-.01l.53-.6a.1.1 0 0 1 .13-.01l.57.45a.1.1 0 0 1 .02.13l-.4.67a.1.1 0 0 0 .03.13l.45.28a.1.1 0 0 0 .14-.03l.4-.7a.1.1 0 0 1 .12-.05l.65.27a.1.1 0 0 1 .06.11l-.22.76a.1.1 0 0 0 0 .08.1.1 0 0 0 .06.05l.51.14a.1.1 0 0 0 .1-.03.1.1 0 0 0 .03-.04l.19-.79a.1.1 0 0 1 .11-.07l.7.1a.1.1 0 0 1 .08.1l-.01.8a.1.1 0 0 0 .1.1h.51a.1.1 0 0 0 .1-.1l.01-.81a.1.1 0 0 1 .09-.1Zm4.17-4.07a4.98 4.98 0 0 0-4.62-6.9 5 5 0 0 0-3.54 8.51 5 5 0 0 0 8.16-1.61Z" fill="#6F6259"/><path d="M29.68 14.75c-.23.2-.49.34-.77.4-.1.03-.1.02-.02-.04.28-.18.38-.42.29-.71-.17-.58-1.19-.52-1.24.11-.03.34.12.55.46.64.24.06.23.1 0 .13a3.2 3.2 0 0 1-2.07-.46c-.17-.1-.3-.07-.37.11l-.09.2c-.07.16-.03.28.13.38a4.52 4.52 0 0 0 3.88.01c.4-.18.59-.47.17-.78-.13-.1-.25-.1-.37.01Zm-.8 3.56c-.39.06-.47-.07-.25-.38.12-.16.2-.25.2-.28.11-.14.25-.26.4-.34.17-.08.34-.12.53-.13.8-.02 1.31.45 1.53 1.42.03.13.12.21.27.23.06 0 .12 0 .17-.02.2-.04.29-.16.27-.35-.1-1.05-.72-1.68-1.85-1.9-.47-.1-.99.13-1.38.37a.12.12 0 0 1-.1 0 .1.1 0 0 1-.04-.02.1.1 0 0 1-.02-.04l-.01-.05c-.06-.2-.12-.4-.3-.53-.9-.68-2.28.01-2.86.74a.3.3 0 0 0-.05.1c-.05.18-.03.3.07.38a.18.18 0 0 0 .23-.02c.37-.4 1.34-1.2 1.94-.73.5.37.71 1.1.16 1.53a113.74 113.74 0 0 0-.92.73.13.13 0 0 0 .02.14l.07.04c.39.14.67-.01.97-.16.19-.1.38-.2.6-.22.43-.04.75.13.97.53.6 1.1-.17 1.91-1.37 1.93-1.2.03-2.61-.47-3.28-1.42a1.02 1.02 0 0 0-.55-.39.24.24 0 0 0-.2.03.22.22 0 0 0-.07.08.2.2 0 0 0-.03.1c0 .32.12.62.37.87a5.03 5.03 0 0 0 4.9 1.24c1.41-.49 1.42-1.89.8-2.93-.25-.44-.65-.63-1.19-.55Z" fill="#057BC1"/><path d="M35.65 11h-.68c.88 1.11 1.5 2.3 1.87 3.58.25.87.34 1.71.27 2.53a9.7 9.7 0 0 1-.6 2.6c-.41 1.09-1 2.23-1.75 3.44a328.1 328.1 0 0 1-3.39 5.29 49.03 49.03 0 0 0-3.5 6.5c-.02.04-.03.04-.05 0a16.2 16.2 0 0 0-1.5-3.56c-.95-1.65-2.03-3.21-3.11-4.78-1.05-1.51-2.1-3.03-3.02-4.64-1-1.73-1.81-3.72-1.79-5.67a6.78 6.78 0 0 1 2.74-5.14c.13-.1.11-.13-.04-.12-2.12.16-4.07 1.04-5 3.01a7.83 7.83 0 0 0 .09 6.2c.03.06 0 .09-.06.08a3.53 3.53 0 0 0-3.02.85c-.53.47-.9 1.06-1.11 1.78v.12c.03.27.12.5.43.48a3.5 3.5 0 0 0 1.67-.66l.2-.12c1.13-.67 1.75.28 2.22 1.12.15.26.21.54.2.83a53.5 53.5 0 0 0-.03 2.75l-.08 9.52c0 .07-.04.11-.11.12-.82.05-1.91 0-2.33-.8-.18-.35-.58-.51-.92-.29-.25.17-.2.45-.14.7.61 2.45 2.69 2.75 4.8 2.5a.13.13 0 0 1 .14.09 7.93 7.93 0 0 0 4.56 4.9c.9.4 1.79.66 2.67.78.74.1.87-.79.2-1.06-.49-.19-.96-.39-1.42-.6-3.23-1.45-4.34-4.46-4.73-7.85-.25-2.17-.28-4.4-.3-6.63l-.01-.66.01-3.48.01-.02.02-.02a.04.04 0 0 1 .04.01 27.77 27.77 0 0 1 5.25 6.96c1.44 2.77 2.48 5.75 3.51 8.68l.08.22c.05.13.08.13.1 0a20.8 20.8 0 0 1 1.41-4.58c1-2.3 2.18-4.5 3.55-6.6a70.06 70.06 0 0 1 3.12-4.55c.17-.22.42-.3.77-.27.05 0 .08.03.08.08l.02 1.65c.03 2.51-.01 5-.14 7.49-.1 1.51-.32 2.95-.68 4.3a7.56 7.56 0 0 1-4.88 5.46c-.33.11-.65.23-.93.42-.6.4-.11 1.05.51.93 3.29-.66 6.02-2.4 7.1-5.7.02-.06.06-.08.11-.07 2.16.3 4.24-.09 4.84-2.55.05-.2.1-.4-.06-.56-.23-.22-.5-.24-.8-.06-.12.07-.2.2-.27.33-.07.1-.14.22-.24.3-.53.45-1.38.48-2.04.42a.1.1 0 0 1-.09-.1l-.05-2.7-.04-7.52c0-.72 0-1.44-.05-2.16 0-.2.05-.41.18-.66.43-.82 1.11-1.81 2.12-1.25l.33.2c.53.3 1.07.62 1.7.64.1 0 .19-.03.25-.1a.37.37 0 0 0 .13-.22c.1-.69-.52-1.47-1.03-2-.78-.8-2.27-1.06-3.27-.77-.07.02-.08 0-.04-.06.28-.42.47-.86.58-1.34.49-2.18.07-4.73-1.45-6.44a4.15 4.15 0 0 0-2.23-1.3c-.3-.08-.6-.14-.9-.2Z" fill="url(#ad5kxivs0)"/><defs><linearGradient id="ad5kxivs0" x1="28" y1="11" x2="28" y2="45" gradientUnits="userSpaceOnUse"><stop stop-color="#0E6BBA"/><stop offset="1" stop-color="#213189"/></linearGradient></defs></svg>