<svg width="56" height="56" viewBox="0 0 56 56" xmlns="http://www.w3.org/2000/svg"><path fill="#F0F3FA" d="M0 0h56v56H0z"/><path fill-rule="evenodd" d="M27.46 41.72c6.97 0 12.62-5.66 12.62-12.65s-5.65-12.65-12.62-12.65a12.63 12.63 0 0 0-12.62 12.65c0 6.99 5.65 12.65 12.62 12.65Zm0-.63a12 12 0 0 0 12-12.02 12 12 0 0 0-12-12.02 12 12 0 0 0-11.99 12.02 12 12 0 0 0 12 12.02Z"/><ellipse cx="27.46" cy="29.07" rx="11.99" ry="12.02" fill="#C8C8C8" fill-opacity=".5"/><path d="m37 31.97-.24.03-.11-.21a9.39 9.39 0 0 0-2.62.07l-.01-.24c.04-.02.14-.03.3-.06a14.27 14.27 0 0 0-.05-3.26l-.27-.03.02-.22c.4.03.72.05.96.05.34 0 .68-.03 1.03-.1l.02.22-.32.06c-.04.22-.07.44-.08.68l-.01 1.74c.46-.05.8-.13 1.06-.24l.08-.32.24.02a3.88 3.88 0 0 0 0 1.8ZM32 31.5l-.1.16a2.69 2.69 0 0 1-.27-.17c-.29.18-.53.3-.75.38-.24.09-.51.13-.8.13-.6 0-1.1-.2-1.5-.57a1.78 1.78 0 0 1-.58-1.35c0-.58.2-1.05.62-1.42.41-.37.93-.56 1.56-.56.27 0 .6.05.96.13l.16-.23.18.1a3.34 3.34 0 0 0-.39 1.52h-.21v-.33a1.42 1.42 0 0 0-.67-.16c-.27 0-.5.08-.68.24a.82.82 0 0 0-.26.64c0 .25.08.46.26.63.17.16.4.25.67.25.24 0 .47-.08.7-.24l-.14-.27.2-.1c.27.49.62.9 1.04 1.22ZM26 29.5l-.2.01a5.15 5.15 0 0 1-.1-.28 2.17 2.17 0 0 0-.33-.04c-.33 0-.5.14-.5.4l.05.5c.04.22.05.37.05.46 0 .36-.14.65-.44.87-.3.22-.68.33-1.17.33 0 .06-.03.15-.07.25l-.2-.02c.05-.2.07-.36.07-.49 0-.3-.05-.63-.16-1.02l.19.02c.03.06.06.14.08.23.05.02.1.03.17.03.27 0 .4-.1.4-.3 0-.07-.02-.2-.08-.4-.06-.19-.08-.37-.08-.53 0-.43.18-.76.54-1 .24-.16.71-.25 1.4-.28l.03-.24.18.02c0 .68.05 1.18.17 1.49ZM22 30a1.94 1.94 0 0 1-2.04 2A1.93 1.93 0 0 1 18 30.04c0-.62.2-1.12.58-1.5.38-.36.88-.54 1.5-.54.53 0 1 .2 1.36.59.37.38.56.86.56 1.42Zm-1.22 0a.78.78 0 0 0-.2-.57.73.73 0 0 0-.57-.22.8.8 0 0 0-.57.22.73.73 0 0 0-.24.55c0 .22.08.4.24.56.16.16.35.23.57.23.22 0 .4-.07.55-.23a.77.77 0 0 0 .22-.55Z" fill="#4B4B4D"/><path d="M28.12 12.02V9.43l7.22 4.33-6.9 4.97v-1.96c-11.4 0-13.13 9.54-13.25 11.78 0-11.3 8.62-15.73 12.93-16.53Z" fill="#FEF512"/><path d="m27.88 9 7.9 4.75-7.59 5.45v-2.18c-5.46.06-8.6 2.38-10.4 4.94a13.61 13.61 0 0 0-2.36 6.6l-.48-.01c0-11.29 8.49-15.82 12.93-16.73V9Zm.49.86v2.36l-.2.04c-3.72.7-10.7 4.12-12.37 12.45.37-.98.88-2.03 1.58-3.03 1.92-2.73 5.28-5.15 11.06-5.15h.24v1.72l6.21-4.47-6.52-3.92Z"/><path d="m43.1 35.95 2.41.95-6.66 5.15-2.08-8.26 1.81.72c4.17-10.64-4.05-15.74-6.08-16.67a16.3 16.3 0 0 1 10.6 18.11Z" fill="#056B3B"/><path d="m46 36.83-7.3 5.64-2.29-9.08 2.03.8c1.94-5.13.94-8.9-.78-11.52a13.57 13.57 0 0 0-5.27-4.6l.2-.46a16.55 16.55 0 0 1 10.8 18.19L46 36.83Zm-.98.14-2.19-.86.04-.2c.72-3.72.08-11.49-7.03-16.1.77.7 1.55 1.56 2.23 2.59 1.83 2.79 2.85 6.8.74 12.2l-.09.22-1.6-.63 1.87 7.43 6.03-4.65Z"/><path d="M13.09 38.48 10.99 40l-.71-8.4 8.05 2.7-1.58 1.14c6.67 9.27 15.4 5.08 17.28 3.87a16.22 16.22 0 0 1-20.94-.83Z" fill="#DA1F3C"/><path d="m10.8 40.45-.8-9.2 8.86 2.97-1.77 1.28c3.26 4.4 6.97 5.6 10.1 5.56 3.18-.04 5.79-1.37 6.7-1.96l.28.4a16.47 16.47 0 0 1-21.1-.7l-2.28 1.65Zm.4-.9 1.91-1.38.15.14c2.73 2.6 9.6 6.26 17.3 2.75-1 .28-2.14.47-3.37.49-3.33.04-7.25-1.27-10.64-5.96l-.14-.2 1.4-1.01-7.26-2.43.65 7.6Z"/></svg>