<svg width="56" height="56" viewBox="0 0 56 56" xmlns="http://www.w3.org/2000/svg"><path fill="#5866A7" d="M0 0h56v56H0z"/><path d="M8 24v1l2-1v10h1V23h-1l-2 1ZM48 24v1l-2-1v10h-1V23h1l2 1Z" fill="#FEFFFB"/><path fill-rule="evenodd" d="M22.5 31a2.5 2.5 0 1 0 0-5 2.5 2.5 0 0 0 0 5Zm0 1a3.5 3.5 0 1 0 0-7 3.5 3.5 0 0 0 0 7Z" fill="#FFFEFF"/><path fill="#FFFEFF" d="M27 25h1v7h-1zM13 25h2.5c.41 0 1.02.12 1.54.5.55.39.96 1.04.96 2s-.41 1.61-.96 2c-.52.38-1.13.5-1.54.5H14v2h-1v-7Zm1 4h1.5c.25 0 .64-.08.96-.3.29-.21.54-.56.54-1.2 0-.64-.25-.99-.54-1.2-.32-.22-.7-.3-.96-.3H14v3ZM40 26h-2v-1h5v1h-2v6h-1v-6ZM30 25v7h1v-4.5l5 4.5v-7h-1v4.5L30 25Z"/></svg>