<svg width="56" height="56" xmlns="http://www.w3.org/2000/svg"><path fill="#8C0005" d="M0 0h56v56H0z"/><path d="M27 40V13.481L23.237 33H13.73c-1.02-3.382-.867-7.534.543-10.78 2.134-5.108 7.235-8.807 12.726-9.093v-1.09c-3.765.264-7.438 1.864-10.126 4.559-3.194 3.078-4.988 7.555-4.868 12.01.114 1.736.473 3.767 1.107 5.394h11.36c.59-3.784 1.025-7.66 1.527-11.47V35c-4.086.025-12.37 0-12.37 0l.52 1s5.683-.029 8.354 0c-1.796 1.28-3.36 3.14-4.194 5.22.349.177.698.354 1.042.541 1.136-2.44 3.11-4.519 5.615-5.51.32-.124.665-.118 1.006-.113H26v1.716c-2.254.753-4.168 2.611-4.79 4.954.381.09.733.313 1.112.417.597-1.759 1.952-3.363 3.678-4.044v1.711c-.924.736-1.48 1.912-1.5 3.108h7.178c-.024-1.256-.63-2.549-1.678-3.238v-1.654c1.77.638 3.19 2.106 3.8 3.905.397-.086.789-.19 1.178-.307-.717-2.36-2.668-4.194-4.978-4.917v-1.663c.426-.003.863-.036 1.264.135 2.402 1.008 4.388 2.956 5.48 5.34.374-.147.744-.303 1.116-.454-.84-2.1-2.474-3.808-4.232-5.147h8.236l.51-1c-4.125 0-8.25-.022-12.374 0V22.969L31.681 34H42.83s.302-.643.41-.961c.63-2.182.951-4.496.64-6.76-.409-3.665-2.133-7.16-4.774-9.699-2.682-2.694-6.354-4.257-10.106-4.548v1.11c3.662.204 7.218 1.89 9.743 4.577 2.049 2.101 3.431 4.847 3.957 7.747.427 2.31.25 5.28-.38 7.534h-9.467C31.529 26.505 29 13.481 29 13.481V40h-2z" fill="#fff"/></svg>