<svg width="56" height="56" viewBox="0 0 56 56" xmlns="http://www.w3.org/2000/svg"><path fill="url(#at1xhsqyy)" d="M0 0h56v56H0z"/><path d="M4 28.02c0-.39.04-.73.13-1.03.08-.3.2-.55.33-.76.14-.22.3-.4.48-.54s.37-.26.55-.35c.44-.21.94-.32 1.51-.34.56.02 1.05.13 1.5.34.18.09.36.2.54.35.19.14.35.32.49.54.13.21.25.47.34.76.09.3.13.64.13 1.03 0 .4-.04.74-.13 1.03-.1.3-.2.55-.34.76-.14.21-.3.39-.49.53-.18.14-.36.25-.55.34a3.63 3.63 0 0 1-3.55-.34 2.14 2.14 0 0 1-.48-.53 2.74 2.74 0 0 1-.33-.76c-.09-.3-.13-.63-.13-1.03Zm3-1.68c-.31 0-.56.05-.75.17-.2.1-.34.25-.44.42-.1.17-.17.35-.2.55a3.21 3.21 0 0 0 0 1.09c.03.2.1.38.2.54.1.17.25.32.44.43.19.11.44.17.75.17s.56-.06.75-.17c.2-.11.34-.26.44-.43.1-.16.17-.35.2-.54a3.23 3.23 0 0 0 0-1.1c-.03-.19-.1-.37-.2-.54-.1-.17-.25-.31-.44-.42a1.46 1.46 0 0 0-.75-.17ZM13.5 25l.29.01a3.72 3.72 0 0 1 1.29.37c.24.12.47.3.69.53.21.23.39.52.52.87.14.35.21.79.21 1.3V31H15v-2.92c0-.83-.6-1.51-1.5-1.51-.88 0-1.5.64-1.5 1.51V31h-1.5v-2.92c0-.51.07-.95.2-1.3.14-.35.32-.64.53-.87.22-.23.45-.4.7-.53A3.7 3.7 0 0 1 13.5 25Z" fill="#EE255C"/><path d="M27.37 27.03a3.2 3.2 0 0 0-.33-.78c-.13-.22-.28-.4-.46-.55a2.93 2.93 0 0 0-.53-.35c-.42-.22-.9-.33-1.44-.35-.55.02-1.03.13-1.45.35a2.75 2.75 0 0 0-.66.48 2.93 2.93 0 0 0-.67-.48c-.42-.22-.9-.33-1.44-.35-.55.02-1.03.13-1.45.35a2.35 2.35 0 0 0-.99.9c-.14.22-.25.48-.33.78-.08.3-.12.65-.12 1.05V31H19v-2.92c0-.9.47-1.51 1.4-1.51.3 0 .56.05.73.14.18.1.3.22.4.37.16.29.19.66.19 1V31h1.56v-2.92c0-.17.01-.34.04-.52.02-.18.07-.34.16-.48a.99.99 0 0 1 .39-.37c.17-.1.42-.14.74-.14.92 0 1.39.61 1.39 1.51V31h1.5v-2.92c0-.4-.04-.75-.13-1.05ZM28 28.02c0-.39.04-.73.13-1.03.08-.3.2-.55.33-.76.14-.22.3-.4.48-.54s.37-.26.55-.35c.44-.21.94-.32 1.51-.34.56.02 1.05.13 1.5.34.18.09.36.2.54.35.19.14.35.32.49.54.13.21.25.47.34.76.09.3.13.64.13 1.03 0 .4-.04.74-.13 1.03-.1.3-.2.55-.34.76-.14.21-.3.39-.49.53-.18.14-.36.25-.55.34a3.63 3.63 0 0 1-3.55-.34 2.15 2.15 0 0 1-.48-.53 2.74 2.74 0 0 1-.33-.76c-.09-.3-.13-.63-.13-1.03Zm3-1.68c-.31 0-.56.05-.75.17-.2.1-.34.25-.44.42-.1.17-.17.35-.2.55a3.22 3.22 0 0 0 0 1.09c.03.2.1.38.2.54.1.17.25.32.44.43.19.11.44.17.75.17s.56-.06.75-.17c.2-.11.34-.26.44-.43.1-.16.17-.35.2-.54a3.23 3.23 0 0 0 0-1.1c-.03-.19-.1-.37-.2-.54-.1-.17-.25-.31-.44-.42a1.46 1.46 0 0 0-.75-.17ZM41 23.64v-.38c.01-.09.04-.15.08-.19.05-.04.12-.06.23-.06a13.93 13.93 0 0 1 .91 0c.1 0 .18.02.23.06.04.04.07.1.07.19a8.83 8.83 0 0 1 0 .77c0 .08-.03.15-.07.18-.05.04-.12.06-.23.07a12.77 12.77 0 0 1-.91 0c-.1 0-.18-.03-.23-.07-.04-.03-.07-.1-.07-.18l-.01-.39ZM42.53 25v6H41v-6h1.53ZM45 23v8h-1.5v-8H45ZM40.38 27.07a3.1 3.1 0 0 0-.32-.79 2.34 2.34 0 0 0-.96-.91c-.4-.22-.88-.35-1.4-.37a2.88 2.88 0 0 0-.97.3v1.27c.2-.12.44-.17.75-.17s.57.05.76.17c.19.12.34.26.44.44.1.17.17.36.2.57a3.44 3.44 0 0 1 0 1.12c-.03.2-.1.18-.2.36-.1.17-.25.32-.44.43-.2.12-.45.18-.76.18s-.57-.06-.76-.18a1.3 1.3 0 0 1-.44-.43c-.1-.18-.18-.37-.21-.57L36 28v-5h-1.5v4.92c0 .4.04.76.13 1.06.08.3.2.57.33.79.15.22.3.4.48.55a3.02 3.02 0 0 0 2.04.68c.56 0 1.06-.12 1.5-.33.2-.1.38-.2.56-.35.18-.15.34-.33.48-.55a3 3 0 0 0 .35-.78c.09-.3.13-.45.13-.85 0-.4-.04-.76-.12-1.07ZM47.6 28.44l-.02-.12v-.1l-.01-.13v-.14c0-.23.03-.45.09-.66l.02-.08.05-.12.04-.08.04-.09a1.27 1.27 0 0 1 .66-.56c.15-.05.33-.08.53-.08s.38.03.53.08a1.22 1.22 0 0 1 .65.56c.07.13.12.25.16.37h-2.07v.94H52v-.2a3.75 3.75 0 0 0-.31-1.52 2.64 2.64 0 0 0-.87-.98c-.18-.11-.35-.2-.52-.27A3.9 3.9 0 0 0 49 25c-.57.02-1.07.13-1.5.34-.2.09-.38.2-.56.35a2.2 2.2 0 0 0-.48.54c-.14.21-.25.47-.33.76-.09.3-.13.64-.13 1.03 0 .4.04.74.13 1.03.08.3.2.55.33.76.14.21.3.39.48.53s.37.25.55.34a3.66 3.66 0 0 0 3.23-.12c.17-.09.33-.2.48-.35a2.5 2.5 0 0 0 .69-1.2h-1.65c-.1.19-.24.37-.43.52-.2.15-.46.22-.81.22a1.3 1.3 0 0 1-.81-.22 1.44 1.44 0 0 1-.56-.91l-.03-.18Z" fill="#fff"/><defs><linearGradient id="at1xhsqyy" x1="10.42" y1="9.71" x2="68.15" y2="76.02" gradientUnits="userSpaceOnUse"><stop stop-color="#1A1E21"/><stop offset="1" stop-color="#06060A"/></linearGradient></defs></svg>