<svg width="56" height="56" viewBox="0 0 56 56" xmlns="http://www.w3.org/2000/svg"><path fill="#2460AC" d="M0 0h56v56H0z"/><path fill-rule="evenodd" d="M18.5 26v4.24c.06.59.69 1.76 2.16 1.76.28 0 .97-.12 1.52-.6l.15-.93c-.17.16-.67.46-1.3.46a.97.97 0 0 1-1.03-.96v-3.96h2l-1.11-1H20v-1h-1.5v1H18v1h.5ZM11 28.5a3.5 3.5 0 1 1-7 0 3.5 3.5 0 0 1 7 0Zm-1.45 0c0 1.3-.92 2.34-2.05 2.34s-2.05-1.05-2.05-2.33c0-1.29.92-2.33 2.05-2.33s2.05 1.04 2.05 2.33Zm5.2 3.4c1.8 0 3.25-1.54 3.25-3.45 0-1.9-1.46-3.44-3.25-3.44-.64 0-1.24.2-1.75.54v-.54h-1.5V34H13v-2.64c.5.34 1.1.54 1.75.54Zm-1.75-5V30c.37.46.91.75 1.5.75 1.14 0 2.05-1.03 2.05-2.3 0-1.26-.91-2.29-2.04-2.29-.6 0-1.14.29-1.51.75Zm9.5 5.1H24v-6.99l-1.5 1.49V32Zm2.97-3h4.55a7 7 0 0 0 .15-1.43c0-.28-.12-2.56-2.97-2.56-3.02 0-3.02 3.22-3.02 3.47v.03c-.01.42-.07 3.5 3.6 3.5.46-.03 1.5-.18 2.07-.6l.17-1.2c-.25.25-1.06.74-2.3.74-1.56 0-2.25-.9-2.25-1.94Zm0-1.5h3.63c-.06-.55-.5-1.43-1.75-1.43a1.8 1.8 0 0 0-1.87 1.44ZM31 32v-6.99h1.5v.8c.45-.4 1.12-.8 1.9-.8a2 2 0 0 1 1.63.77c.45-.39 1.1-.77 1.87-.77A2.1 2.1 0 0 1 40 27.1V32h-1.5V27.27c-.05-.4-.12-1.09-1.04-1.09-.39 0-.74.15-1.04.37a2 2 0 0 1 .08.55V32H35V27.27c-.05-.4-.12-1.09-1.04-1.09-.59 0-1.1.35-1.46.73V32H31Zm14-.49c-.46.28-1.03.5-1.66.5-1.61 0-2.34-1.25-2.34-2.1v-4.9h1.34v4.68c.05.38.42 1.14 1.48 1.14.44 0 .84-.16 1.18-.38v-5.44h1.5v7H45v-.5Zm2-1.25.22 1.16c.25.2 1.03.58 2.14.58 1.38 0 2.64-.65 2.64-2.13 0-1.19-1.26-1.76-1.89-1.9-.53-.12-1.6-.54-1.6-1.2 0-.77 1.14-.76 1.54-.76h.06c.26 0 1.17.32 1.6.48l-.16-1.02a4.74 4.74 0 0 0-1.76-.46c-.82 0-2.63.33-2.63 2-.01.36.34 1.22 1.8 1.89 1.72.77 1.7.95 1.7 1.13a.9.9 0 0 0 0 .03c0 .2-.27.97-1.42.97a4.4 4.4 0 0 1-2.24-.77Z" fill="#fff"/><path d="m22.44 25.39-2.17-2.2 1-.97 1.17 1.14 1.19-1.14.97.97-2.16 2.2Z" fill="#fff"/><path fill="#EE5000" d="m21.43 22.01 1-1.01L23.45 22l-1 1.02z"/></svg>