<svg xmlns="http://www.w3.org/2000/svg" width="56" height="56"><path fill="#F0F3FA" d="M0 0h56v56H0z"/><path d="M31 22h2.7c.17 0 .3.13.3.3v.4a.3.3 0 01-.3.3H31v-1z" fill="#EC1C24"/><path fill-rule="evenodd" d="M7 27.85C7 29.39 8.72 30 10 30h2c1.28 0 3-.61 3-2.15v-2.7c0-1.54-1.72-2.15-3-2.15h-2c-1.28 0-3 .61-3 2.15v2.7zM10 24c-.62 0-2 .28-2 1.15v2.7C8 28.72 9.38 29 10 29h2c.62 0 2-.28 2-1.15v-2.7c0-.87-1.38-1.15-2-1.15h-2zm6-.5c0-.28.22-.5.5-.5H22a2 2 0 012 2v.5a2 2 0 01-2 2h-3.21l4.82 2.12c.2.08.13.38-.08.38h-1.11c-.28 0-.55-.06-.8-.16L17 27.8v1.89a.3.3 0 01-.3.3h-.4a.3.3 0 01-.3-.3v-6.2zm1 3V24h5a1 1 0 011 1v.5a1 1 0 01-1 1h-5zm8.3-3.5a.3.3 0 00-.3.3v6.4c0 .17.13.3.3.3h.4a.3.3 0 00.3-.3v-6.4a.3.3 0 00-.3-.3h-.4zm5.7 0h-2a2 2 0 00-2 2v3c0 1.1.9 2 2 2h4.7a.3.3 0 00.3-.3v-.4a.3.3 0 00-.3-.3H29a1 1 0 01-1-1v-1h5.7a.3.3 0 00.3-.3v-.4a.3.3 0 00-.3-.3H28v-1a1 1 0 011-1h2v-1zm4 .3c0-.17.14-.3.32-.3h.62c.08 0 .16.03.22.08l5.84 5.6V23.3c0-.17.14-.3.32-.3h.36c.18 0 .32.13.32.3v6.4c0 .17-.14.3-.32.3h-.62a.33.33 0 01-.22-.08L36 24.32v5.38c0 .17-.08.3-.25.3h-.43c-.18 0-.32-.13-.32-.3v-6.4zm9 0c0-.17.13-.3.3-.3h6.4c.17 0 .3.13.3.3v.4a.3.3 0 01-.3.3H48v5.7a.3.3 0 01-.3.3h-.4a.3.3 0 01-.3-.3V24h-2.7a.3.3 0 01-.3-.3v-.4z" fill="#231F20"/><path d="M9.5 32c.56 0 1.08.19 1.5.5v.68a2 2 0 00-3.5 1.32 2 2 0 003.5 1.32v.68A2.5 2.5 0 119.5 32zm3 0H15v.5h-2v1.75h2v.5h-2v1.75h2v.5h-2.5v-5zm10 5H25v-.5h-2v-1.75h2v-.5h-2V32.5h2V32h-2.5v5zm-3.87-1.32L16.9 32l-.83 5h.51l.52-3.13L18.63 37l1.52-3.1.51 3.1h.51l-.82-4.97-1.72 3.65zM16 37.48v-.03.02zM26.5 32l3.5 3.7V32h.5v5L27 33.24V37h-.5v-5zm5 0h3v.5h-1.25V37h-.5v-4.5H31.5V32z" fill="#6D6E70"/></svg>