<svg width="56" height="56" viewBox="0 0 56 56" xmlns="http://www.w3.org/2000/svg"><path fill="#F0F3FA" d="M0 0h56v56H0z"/><path d="M10.46 23.72 10 26.14c-.02.1.07.21.17.21.07 0 .13-.05.15-.12.24-.97.93-1.24 1.26-1.23H15v10.78c0 .44-.25.8-.69.8h-.54c-.12 0-.21.09-.21.2 0 .12.1.22.21.22h4.53c.11 0 .2-.1.2-.21 0-.12-.09-.22-.2-.22h-.5a.8.8 0 0 1-.8-.8V25h3.63c.54 0 .98.47.98 1.02v.13c0 .11.09.2.2.2.1 0 .19-.09.19-.2v-2.43c-.17.17-.93.28-1.23.31h-9.2c-.45 0-.93-.2-1.11-.3Z" fill="#896F49"/><path fill-rule="evenodd" d="M20.24 37h4.33c.08 0 .14-.06.14-.13a.13.13 0 0 0-.14-.14h-.47c-.32-.02-.88-.27-.58-1.05L24.6 33h4.49l1.16 3.01c.13.22.25.63-.1.7-.06.03-.13.08-.13.16 0 .07.06.13.14.13h4.3c.07 0 .13-.06.13-.13a.13.13 0 0 0-.14-.14h-.61c-.3-.04-1.02-.37-1.5-1.36-.45-.94-3.27-7.6-4.81-11.23-.08-.19-.34-.18-.41 0l-4.84 11.32c-.13.43-.62 1.27-1.57 1.27h-.47a.13.13 0 0 0-.13.14c0 .07.06.13.13.13Zm8.46-5-1.81-4.68L25 32h3.7Z" fill="#896F49"/><path d="M40.42 24h-4.88c-.09 0-.16.07-.16.17 0 .09.07.16.16.16h.75c.42 0 .71.35.71.78v10.67c0 3.35-1.59 4.71-2.41 4.98l.15.24A6.02 6.02 0 0 0 39 35.08v-9.97c0-.43.51-.78.94-.78h.48c.1 0 .17-.07.17-.16 0-.1-.07-.17-.17-.17Z" fill="#896F49"/><path fill-rule="evenodd" d="m37.6 13-.61.32-1.28.66-.55.29-1.44.75-.5.26 3.38 1.7 1-.52V13ZM33 15.83v4.34l3.33-1.69v-.96L33 15.83Zm.22 4.9.6.3 1.26.66.55.28 1.36.71.6.32v-3.46l-1-.53-3.37 1.71ZM38.4 23l.33-.17 1.32-.69.55-.29 1.45-.75.67-.35-3.38-1.7-.94.48V23Zm4.6-2.78v-4.45l-3.33 1.69v1.08L43 20.22Zm-.28-4.97-3.38 1.7-.94-.48V13l.33.17 1.45.76.55.28 1.43.75.56.29Zm-2.47-.3.97.5-1.97 1.02 1-1.53Zm-1.52-.8.97.5-.98 1.49v-2Zm-2.56.57.82-.42v1.74l-.82-1.32Zm-1.5.79.95-.5.92 1.47-1.88-.97Zm-.73 2.3v-.92l1.72.89-1.72.04Zm0 1.41v-.81l1.65-.04-1.65.85Zm1.62 1.74-.79-.41 1.6-.84-.81 1.25Zm1.43.74-.88-.46.88-1.34v1.8Zm2.6-.3-.87.45V20l.87 1.4Zm1.52-.79-.97.5-.92-1.48 1.89.98Zm.95-2.4v1.14l-2.09-1.08 2.09-.05Zm0-1.45v.87l-1.75.04 1.75-.9Z" fill="#896F49"/></svg>