<svg width="56" height="56" viewBox="0 0 56 56" xmlns="http://www.w3.org/2000/svg"><path fill="#F0F3FA" d="M0 0h56v56H0z"/><circle cx="28" cy="26" r="12" fill="#00AB45"/><path d="M17.34 28.21c-.22-.83-.34-1.7-.34-2.6C17 19.74 21.92 15 28 15s11 4.75 11 10.6c0 .82-.1 1.62-.28 2.38l-.48-.34c.14-.66.2-1.34.2-2.04 0-5.56-4.67-10.07-10.44-10.07S17.55 20.04 17.55 25.6c0 .83.1 1.64.3 2.4l-.51.21Z" fill="#fff"/><circle cx="28" cy="26" r="9" fill="#fff"/><path d="M31 36.7a15.2 15.2 0 0 1-6 0V36a14 14 0 0 0 6 0v.7Z" fill="#fff"/><path d="M6.17 38 22 37l-4.47-6L6 31.88l5.28 2.58L6.17 38Z" fill="url(#aquitd0ta)"/><path d="M22 35.83V37l-4.99-1 4.99-.17Z" fill="#CACD01"/><path d="M49.83 38 34 37l4.47-6 11.53.88-5.28 2.58L49.83 38Z" fill="url(#bquitd0ta)"/><path d="M34 35.83V37l4.99-1-4.99-.17Z" fill="#CACD01"/><circle cx="28" cy="26" r="8.44" fill="#C24847"/><path d="M17 36v-6.75c1.98-.08 6.9-.25 10.93-.25h.14c4.02 0 8.95.17 10.93.25V36l-11-.32L17 36Z" fill="url(#cquitd0ta)"/><path d="M22 30h12v.5H22V30ZM18 31.32S24.1 31 28 31c3.9 0 10 .32 10 .32V32s-6.1-.32-10-.32c-3.9 0-10 .32-10 .32v-.68ZM20 32.71s4.87-.21 8-.21 8 .21 8 .21v.79s-4.87-.21-8-.21-8 .21-8 .21v-.79ZM18 34.28s6.05-.28 9.96-.28c3.91 0 10.04.28 10.04.28V35s-6.13-.3-10.04-.3c-3.9 0-9.96.3-9.96.3v-.72Z" fill="#07649D" fill-opacity=".8"/><path d="M34.53 26.51c-.26.33-.58.49-.97.49-.48 0-.87-.22-1.14-.66a3.41 3.41 0 0 1-.42-1.82c0-.84.16-1.48.47-1.93.28-.4.63-.59 1.05-.59.57 0 .98.26 1.25.8.14.29.22.58.23.88h-.7c-.05-.23-.1-.4-.18-.52a.63.63 0 0 0-.57-.3c-.26 0-.46.14-.6.43-.16.3-.23.7-.23 1.24s.08.94.23 1.2c.16.28.36.4.6.4.25 0 .44-.1.57-.34.07-.12.13-.3.18-.55h.7c-.07.52-.22.94-.47 1.27ZM30.3 27H29v-5h1.3c1.21.02 1.48 1.39 1.48 2.38 0 .94-.22 2.62-1.47 2.62Zm-.12-4.13h-.46v3.26h.46c.77 0 .85-1.12.85-1.68 0-.61-.03-1.58-.85-1.58ZM25.6 27H25v-5h.94l.57 3.93.56-3.93H28v5h-.6v-3.38a53.94 53.94 0 0 1 0-.82l-.59 4.2h-.63l-.58-4.2a55.1 55.1 0 0 0 0 .82V27ZM22.5 27c-.45 0-.79-.18-1.02-.55A3.37 3.37 0 0 1 21 24.5c0-.87.16-1.52.48-1.95.23-.37.57-.55 1.02-.55.45 0 .79.18 1.03.55.31.43.47 1.08.47 1.95 0 .85-.16 1.5-.47 1.95-.24.37-.58.55-1.03.55Zm.62-1.27c.15-.29.23-.7.23-1.23s-.08-.94-.23-1.23c-.15-.29-.36-.43-.62-.43s-.46.14-.62.43c-.15.29-.23.7-.23 1.23s.08.94.23 1.23c.16.29.36.43.62.43s.47-.14.62-.43Z" fill="#fff"/><defs><linearGradient id="aquitd0ta" x1="6" y1="32.19" x2="22" y2="32.19" gradientUnits="userSpaceOnUse"><stop stop-color="#EA6500"/><stop offset="1" stop-color="#F2E407"/></linearGradient><linearGradient id="bquitd0ta" x1="50" y1="32.19" x2="34" y2="32.19" gradientUnits="userSpaceOnUse"><stop stop-color="#EA6500"/><stop offset="1" stop-color="#F2E407"/></linearGradient><linearGradient id="cquitd0ta" x1="17" y1="32.5" x2="39" y2="32.5" gradientUnits="userSpaceOnUse"><stop stop-color="#F3CC02"/><stop offset=".51" stop-color="#FCFD01"/><stop offset="1" stop-color="#EFCB05"/></linearGradient></defs></svg>