<svg width="56" height="56" viewBox="0 0 56 56" xmlns="http://www.w3.org/2000/svg"><path fill="#F0F3FA" d="M0 0h56v56H0z"/><path d="M27 31h-4v-2h1v-6h-.97v-2H26v8h1v2ZM23 20h3v-2h-3v2ZM23 27.99c0 1.97-1.91 3.01-3.69 3.01-.97 0-1.82-.34-2.52-1.02v.73H15V28h2.38c0 .84.86 1.4 1.65 1.4.72 0 1.34-.43 1.34-1.2 0-.56-.45-.96-1.34-1.2l-1.42-.35c-1.36-.43-2.61-1.19-2.61-2.77C15 22 16.76 21 18.47 21c.85 0 1.6.27 2.24.83v-.58h1.7v2.53h-2.25c0-.73-.67-1.1-1.33-1.1-.8 0-1.24.34-1.24 1 0 .9 1.2 1.15 1.9 1.28.42.08.83.2 1.23.35C21.87 25.76 23 26.64 23 28Z" fill="#008DD2"/><path fill-rule="evenodd" d="M10.01 31A5 5 0 0 0 15 25.93c0-2.71-2.2-4.93-4.92-4.93A5.05 5.05 0 0 0 5 25.95 5.07 5.07 0 0 0 10.01 31Zm0-2A3 3 0 0 0 13 25.96 2.96 2.96 0 0 0 10.05 23 3.03 3.03 0 0 0 7 25.97 3.04 3.04 0 0 0 10 29Z" fill="#008DD2"/><path d="M51 19v3l-1.42-.87-.58.66V31H38v-2h9v-1h-8.66L37 21h11.17l.32-.53-1.49-.91 4-.56Zm-4 4h-7.96l.58 3H47v-3Z" fill="#FECC00"/><circle cx="40.5" cy="33.5" r="1.5" fill="#008DD2"/><circle cx="46.5" cy="33.5" r="1.5" fill="#008DD2"/><path d="M34.64 32.12H34V31h3v1.12h-.64v-.58h-.5v2.92h.48V35h-1.68v-.54h.48v-2.92h-.5v.58ZM32.4 35H31v-.54h.38v-2.92H31V31h1.52c.24 0 .76-.04 1.1.46.16.23.15.48.15.54 0 .46-.18.73-.55.9v.02c.4.1.44.4.44.63v.9H34V35h-.98v-1.4c0-.38-.36-.42-.62-.42h-.38v1.28h.39V35Zm-.38-3.46v1.1h.4c.36 0 .72-.07.72-.6 0-.5-.45-.5-.78-.5h-.34ZM28.5 33.13h.98L29 31.78l-.5 1.35Zm.01 1.87H27v-.54h.34l1.06-2.92h-.47V31h2.18v.54h-.45l1.02 2.92H31V35h-1.55v-.54h.46l-.29-.78h-1.28l-.28.78h.45V35ZM24.81 34.51l-.87-2.7h-.01v2.65h.4V35H23v-.54h.35v-2.92H23V31h1.33l.67 2.3h.01l.73-2.3H27v.54h-.34v2.92H27V35h-1.32v-.54h.4V31.8h-.01l-.87 2.7h-.39ZM20.88 35H19v-.54h.5v-2.92H19V31h2.03c.32 0 1.01-.04 1.46.46.22.23.2.48.2.54 0 .46-.23.73-.73.9v.02c.54.1.58.4.58.63v.9H23V35h-1.3v-1.4c0-.38-.49-.42-.83-.42h-.51v1.28h.52V35Zm-.52-3.46v1.1h.55c.47 0 .94-.07.94-.6 0-.5-.6-.5-1.04-.5h-.45ZM19 35h-3v-.54h.42v-2.92H16V31h3v1.06h-.62v-.52h-1.26v1.01h1.08v.63h-1.08v1.28h1.26v-.66H19V35ZM13.43 34.46v-2.92H13V31h1.48c.76 0 1.52.31 1.52 1.26 0 .97-.73 1.27-1.38 1.27h-.49v.93h.5V35H13v-.54h.43Zm.7-2.93v1.45h.27c.55 0 .9-.2.9-.72s-.35-.73-.9-.73h-.27ZM13 31.54h-.23l-.96 1.57v1.35h.39V35h-1.4v-.54h.39v-1.39l-.94-1.53H10V31h1.26v.54h-.31l.6 1h.02l.6-1h-.32V31H13v.54ZM7.69 35H6v-.54h.46v-2.92H6V31h1.69v.54h-.46v1.01h1.54v-1H8.3V31H10v.54h-.46v2.92H10V35H8.31v-.54h.46v-1.28H7.23v1.28h.46V35Z" fill="#E31E24"/><path fill-rule="evenodd" d="M37 23h1v-2h-3v1.6a4.05 4.05 0 0 0-3.18-1.6A5.03 5.03 0 0 0 27 25.9c0 2.68 1.97 5.1 4.74 5.1A4.6 4.6 0 0 0 35 29.58V31h3v-2h-1v-6Zm-5 6a3 3 0 1 0 0-6 3 3 0 0 0 0 6Z" fill="#008DD2"/></svg>