<svg width="56" height="56" viewBox="0 0 56 56" xmlns="http://www.w3.org/2000/svg"><path fill="#F0F3FA" d="M0 0h56v56H0z"/><path d="M27.97 41C36.27 41 43 34.28 43 26a15.01 15.01 0 0 0-26-10.25 13 13 0 1 1 0 20.49A15 15 0 0 0 27.97 41Z" fill="#00770E"/><path d="M13 26c0 6.08 5.06 11 11.3 11 1.96 0 3.81-.49 5.42-1.35-1.45 3.09-1.72 5.12-1.72 6.5 0 2 1 3.85 2.94 3.85 1.02 0 1.48-.27 1.92-.53.4-.24.79-.47 1.56-.47 1.3 0 2.37.64 2.74 1 .28-.34.84-1.3.84-2.37 0-1.35-.84-2.28-2.32-2.28-.8 0-1.54.49-2.21.93-.57.37-1.1.72-1.59.72-.85 0-.88-1-.88-1.4v-2.74c0-1.7.53-3.44 1.13-4.93.85-.8 1.58-1.73 2.14-2.75a9.26 9.26 0 0 1-1.7 1.75c.24-.55.48-1.04.7-1.47l.46-.98c.65-1.49.7-2.14.7-3.25 0-1.12-.24-1.77-.38-2A38.73 38.73 0 0 0 31.41 23c-.11.74-.09 2.44.88 3.3 1.1.97 1.08 2.05 1.07 3.01v.29c-1.12-2.37-3.77-4.7-6.04-4.6-1.82.07-3.64-.48-4.32-.75.51 1.26 2.41 3.75 4.04 3.75.78 0 .96-.12 1.15-.25.21-.14.43-.29 1.45-.29 1.95 0 2.88 2.42 2.88 3.3a44.53 44.53 0 0 0-2.05 3.42 9.9 9.9 0 0 1-3.97.82c-5.25 0-9.5-4.03-9.5-9s4.25-9 9.5-9a9.65 9.65 0 0 1 7.77 3.82A11.34 11.34 0 0 0 24.3 15C18.06 15 13 19.92 13 26Z" fill="#748A19"/></svg>