<svg width="56" height="56" viewBox="0 0 56 56" xmlns="http://www.w3.org/2000/svg"><path fill="#F0F3FA" d="M0 0h56v56H0z"/><path d="M25.1 36.28c-.24.06-.47.08-.7.06-.42-.18-.83-.37-1.23-.57-.62-.31-1.2-.62-1.78-.93a5.34 5.34 0 0 0-.77-.32c-.19-.07-.43-.01-.74.17a5.9 5.9 0 0 0-.83.62 1.33 1.33 0 0 1-1.33.2c-.51-.2-.97-.5-1.37-.91a.08.08 0 0 1-.02-.1.08.08 0 0 1 .08-.05c.26 0 .5-.03.71-.1l1.49-.46c.26-.08.48-.2.65-.36.01 0 .02-.02.01-.03l-.01-.03-.94-.72a.12.12 0 0 0-.1-.03c-.1.02-.27.03-.49.03a4.92 4.92 0 0 0-.64.06l-.48.12a1.7 1.7 0 0 1-1.7-.6c-.4-.43-.79-.93-1.18-1.48a.06.06 0 0 1-.01-.06c0-.02.02-.03.04-.03a3.73 3.73 0 0 1 2.46.33 9.1 9.1 0 0 1 .8.48v-.02a10.95 10.95 0 0 1-1.9-2.5.13.13 0 0 0-.09-.07 3.53 3.53 0 0 1-1.37-.53c-.4-.27-.7-.65-.9-1.14-.18-.4-.32-.83-.43-1.28-.01-.07 0-.08.06-.04l.1.08c.37.3.65.5.84.64.33.22.64.38.93.47l.06-.01a.05.05 0 0 0 .01-.05 8.9 8.9 0 0 1-.3-3.1.24.24 0 0 0-.08-.2c-.73-.65-1.07-1.37-1.02-2.18.03-.51.13-1.04.3-1.58.02-.08.05-.08.08 0 .2.48.4.93.6 1.33.1.21.25.4.42.58h.05c.01 0 .02 0 .03-.02.2-.75.49-1.49.83-2.21a.11.11 0 0 0 0-.12c-.35-.5-.55-.96-.63-1.4-.08-.5-.01-1 .22-1.52.17-.38.37-.74.6-1.1.05-.09.09-.08.1.02.03.4.08.85.16 1.32.06.37.2.67.4.9.02.04.05.05.1.05.04 0 .07-.03.1-.06a22.33 22.33 0 0 1 1.22-1.85c0-.01 0-.03-.02-.04a.41.41 0 0 1-.15-.2 3.5 3.5 0 0 1-.1-1.44c.07-.48.28-.9.63-1.29a8.5 8.5 0 0 1 1.13-1l.02.03a.1.1 0 0 1 0 .04l-.01.02c-.13.46-.22.82-.26 1.06-.08.4-.1.76-.06 1.07 0 .07.04.1.1.11.04 0 .06-.01.08-.04a.16.16 0 0 1 .08-.07.11.11 0 0 1 .1 0c.03.03.06.03.09.03a.1.1 0 0 0 .08-.03c.43-.5 1-.89 1.7-1.18.42-.17.83-.35 1.23-.53h.06c.02.01.03.03.03.05a1.86 1.86 0 0 1-1.06 1.58c-.28.15-.6.26-.95.32-.33.06-.67.08-1.01.06-.05 0-.1.02-.13.06-.02.03-.01.05.02.06.12.06.25.1.38.1a10.53 10.53 0 0 0 1.57.1l-.01.05c-.82.9-1.83 1.29-3.04 1.18a.17.17 0 0 0-.16.07c-.49.66-.9 1.26-1.23 1.8-.02.03-.02.05.02.05.12 0 .24-.01.36-.04a13.96 13.96 0 0 0 1.42-.42v.04a3.49 3.49 0 0 1-1.04 1.44c-.48.4-1.02.63-1.61.7a.24.24 0 0 0-.2.15c-.33.7-.6 1.41-.81 2.14-.03.08 0 .12.09.1.16-.01.32-.06.5-.15.42-.23.83-.49 1.23-.79a.04.04 0 0 1 .05 0l.02.04a3.25 3.25 0 0 1-2.17 2.83.13.13 0 0 0-.1.13c-.06.97.03 1.93.3 2.87 0 .02.01.04.04.04l.06-.01c.2-.19.4-.45.6-.8a8.8 8.8 0 0 0 .45-.9h.03c.05.07.09.13.12.2.22.57.3 1.14.21 1.73a3 3 0 0 1-.72 1.58c-.01.02-.02.04 0 .06.5.88 1.1 1.66 1.8 2.37.05.04.07.04.05-.03l-.18-.54c-.09-.24-.15-.42-.18-.55a3.02 3.02 0 0 1-.12-1.17c0-.26.04-.5.08-.74.12-.59.3-1 .57-1.25a.11.11 0 0 1 .09-.03.1.1 0 0 1 .08.05c.07.1.12.21.12.33.04.6.14 1.29.29 2.07.09.48.07.93-.06 1.33a1.58 1.58 0 0 0-.07.63c0 .2.02.33.04.42.04.15.11.27.22.36a30.84 30.84 0 0 0 1.32 1c.02 0 .03-.01.04-.03.08-.18.1-.42.05-.7a5.62 5.62 0 0 0-.21-.84 2.72 2.72 0 0 1 .03-1.69l.03-.03a11.7 11.7 0 0 1 1.29 1.39 3.86 3.86 0 0 1 .79 2c.05.41.15.83.3 1.25.02.07.06.13.11.18a48.27 48.27 0 0 0 3.14 1.56ZM30.69 36.47l-.67-.08c1.2-.53 2.31-1.06 3.32-1.6.14-.08.26-.34.36-.78.07-.3.12-.6.15-.9a3.7 3.7 0 0 1 .66-1.66 10.94 10.94 0 0 1 1.4-1.55c.02 0 .03.01.03.03.12.38.16.79.12 1.21a16.3 16.3 0 0 1-.27 1.19c-.08.28-.08.55 0 .81 0 .03.02.04.05.05l.06-.01c.43-.31.86-.65 1.3-1.02.13-.11.2-.33.23-.65 0-.25-.02-.49-.08-.71a3.62 3.62 0 0 1 0-1.67c.12-.58.2-1.16.24-1.72a.8.8 0 0 1 .1-.34.12.12 0 0 1 .08-.06l.1.01c.1.07.17.15.22.26.36.76.51 1.53.45 2.3-.02.25-.1.54-.22.88l-.28.88c-.01.04 0 .04.02.02.72-.74 1.33-1.54 1.83-2.39a.08.08 0 0 0-.01-.1 3.17 3.17 0 0 1-.37-3.5 45.6 45.6 0 0 1 .12.2c.17.36.31.63.41.81.18.3.37.53.56.7h.03l.03-.01a.7.7 0 0 0 .08-.2c.22-.93.3-1.84.24-2.73a.1.1 0 0 0-.07-.1 2.96 2.96 0 0 1-1.53-1.08 3.28 3.28 0 0 1-.67-1.75c0-.02 0-.04.02-.04h.05l.02.01c.34.25.61.43.8.55.32.19.61.32.88.39.12.03.16-.02.13-.13a16.12 16.12 0 0 0-.87-2.2.1.1 0 0 0-.07-.05 3.33 3.33 0 0 1-2.72-2.19l.02-.02H37c.55.22 1.1.38 1.68.48.02 0 .04 0 .06-.02a.06.06 0 0 0 0-.07c-.39-.6-.8-1.2-1.24-1.8a.11.11 0 0 0-.11-.04 3.46 3.46 0 0 1-3.03-1.14c-.07-.09-.06-.12.05-.12a5.68 5.68 0 0 0 1.87-.19v-.04a.09.09 0 0 0-.09-.05c-.35 0-.7-.02-1.02-.07-.37-.07-.7-.17-.97-.31a1.8 1.8 0 0 1-1.06-1.6c0-.02 0-.03.02-.04h.04l1.47.63c.57.25 1.06.6 1.46 1.07.03.03.06.05.1.05l.1-.03a.06.06 0 0 1 .05-.01c.06.02.12.06.16.12.01.02.03.03.06.03.02 0 .04-.02.04-.05.08-.33.08-.69 0-1.07a43 43 0 0 0-.29-1.2c-.01-.06 0-.07.05-.04.47.33.88.71 1.22 1.14.3.35.47.75.53 1.2.05.38.02.82-.1 1.31a.46.46 0 0 1-.17.28c-.03.02-.04.04-.02.07.44.6.85 1.2 1.25 1.82a.1.1 0 0 0 .08.05.1.1 0 0 0 .08-.03c.18-.2.3-.42.35-.68.12-.55.2-1.06.22-1.55 0-.1.04-.1.1-.02.37.55.62 1.05.74 1.5.17.59.15 1.14-.06 1.64-.14.32-.3.6-.5.88a.09.09 0 0 0 0 .1c.34.69.61 1.42.83 2.2 0 .02.02.04.04.04h.05c.1-.1.19-.2.26-.31.29-.47.53-.99.73-1.56.04-.12.08-.12.12 0 .1.37.2.75.26 1.16.14.94-.13 1.74-.83 2.4l-.22.2a.1.1 0 0 0-.03.08c.03.6.02 1.13-.01 1.59a7.78 7.78 0 0 1-.27 1.54c-.03.1 0 .14.1.1.4-.16.75-.36 1.08-.6l.74-.57c.07-.05.09-.03.07.05-.15.6-.32 1.07-.5 1.43-.26.49-.6.85-1.02 1.1-.29.17-.67.3-1.15.4a.22.22 0 0 0-.15.11 11.45 11.45 0 0 1-1.84 2.47h.01a5.07 5.07 0 0 1 1.5-.75 3.7 3.7 0 0 1 1.72-.05c.02 0 .03.01.04.03v.06l-.97 1.26c-.17.2-.34.37-.52.51-.23.18-.45.28-.65.31-.37.06-.75.03-1.13-.09a1.92 1.92 0 0 0-.43-.07l-.44-.01h-.16a.4.4 0 0 1-.2-.05c-.02-.02-.05-.02-.08 0a9.89 9.89 0 0 1-.98.78l.01.03c.18.17.38.29.62.36.53.15 1.04.31 1.54.47.17.06.36.09.56.09.26 0 .3.09.1.27-.26.23-.57.45-.93.65-.63.35-1.19.33-1.68-.05l-.14-.12c-.29-.23-.51-.4-.67-.5-.3-.17-.52-.23-.69-.18-.34.1-.68.25-1.05.45-1 .55-2.03 1.06-3.07 1.5Z" fill="#0D783D"/><path d="M19.6 20.76a8.78 8.78 0 0 1 4.12-4.68A9.02 9.02 0 0 1 36.6 21.3a8.97 8.97 0 0 1-3.15 9.87 8.95 8.95 0 0 1-7.96 1.47 8.91 8.91 0 0 1-5.55-4.65 8.93 8.93 0 0 1-.33-7.23Z" fill="#E42025"/><path d="M20.62 20.92a8.36 8.36 0 0 1 2.6-3.34 7.8 7.8 0 0 1 3.97-1.54 7.89 7.89 0 0 1 7.38 3.38 7.96 7.96 0 0 1-.87 10.19 8 8 0 0 1-13.08-8.7Z" fill="#F9ED13"/><path d="M23.24 29.79a7.4 7.4 0 0 1-2.73-6.26 7.52 7.52 0 0 1 3.5-5.88 7.5 7.5 0 1 1-.77 12.14Z" fill="#E42025"/><path d="m27.6 17.79.26-.82c0-.01.01-.02.03-.02h.43l.03.03.2.81c0 .02.02.02.03.02.02 0 .03 0 .03-.02l.16-.8c0-.01.01-.02.03-.02h.42l.02.02V17l-.36 1.62c0 .02-.01.02-.03.02h-.47c-.01 0-.02 0-.03-.02l-.23-.96c0-.01 0-.02-.03-.02-.01 0-.02 0-.02.02l-.29.95c0 .01-.01.02-.03.02h-.44c-.02 0-.03-.01-.03-.03l-.34-1.65v-.02l.03-.01.44.02c.02 0 .03.01.03.03l.1.8c0 .02.02.03.03.03.02 0 .03 0 .03-.02ZM24.86 18.15c.01.03.03.05.05.06a.1.1 0 0 0 .07.01c.2-.04.38-.08.56-.1a.5.5 0 0 1 .27.02.5.5 0 0 1 .3.37c0 .09 0 .17-.02.26a.7.7 0 0 1-.31.4c-.14.08-.3.15-.48.19-.18.04-.36-.03-.54-.2-.05-.06-.05-.11.02-.15l.27-.16a.09.09 0 0 1 .1 0l.06.04c.04.03.07.05.1.05a.2.2 0 0 0 .1.02c.13-.03.21-.09.24-.19.01-.05 0-.1-.04-.14a.14.14 0 0 0-.14-.05c-.18.05-.35.08-.52.1a.48.48 0 0 1-.36-.1.4.4 0 0 1-.17-.3c0-.13.04-.25.14-.38a1 1 0 0 1 .78-.34.4.4 0 0 1 .33.2c.01.03 0 .05-.02.07-.1.08-.2.14-.33.18-.03 0-.06 0-.1-.02a.26.26 0 0 0-.3 0c-.05.05-.07.1-.06.16ZM30.9 19.23l-.43-.25c-.03-.01-.05-.01-.07 0l-.15.15c-.03.02-.05.02-.07 0l-.35-.2a.05.05 0 0 1-.02-.04c0-.02 0-.04.02-.05l1.28-1.08c.02-.01.04-.01.07 0l.42.26c.02.01.03.03.02.05l-.28 1.66c0 .02 0 .03-.03.04h-.05l-.35-.2a.05.05 0 0 1-.03-.06l.04-.23c0-.02 0-.04-.03-.05Z" fill="#F0F3FA"/><path d="m30.73 18.67.36-.35h.04c.01 0 .02.02.01.03l-.1.49-.02.02h-.03l-.26-.14-.01-.03v-.02Z" fill="#E42025"/><path d="M23.79 20.83a.75.75 0 0 1-.53.26.75.75 0 0 1-.56-.18l-.14-.12a.74.74 0 0 1-.27-.52.73.73 0 0 1 .19-.56l.12-.15a.75.75 0 0 1 .53-.26c.21-.02.4.04.56.18l.14.12c.17.14.25.31.27.52.02.21-.04.4-.18.56l-.13.15ZM32.47 20.6l.4.56a.07.07 0 0 1-.02.1l-.23.16a.06.06 0 0 1-.06.01.07.07 0 0 1-.04-.03l-.68-1a.07.07 0 0 1-.01-.04c0-.02.01-.03.03-.05l1.25-.88a.07.07 0 0 1 .05-.01c.02 0 .03 0 .04.02l.22.32a.06.06 0 0 1-.01.1l-.93.65a.06.06 0 0 0-.02.04v.05Z" fill="#F0F3FA"/><path d="M32 24a3.95 3.95 0 0 1-1.17 2.83A3.96 3.96 0 0 1 28 28a3.96 3.96 0 0 1-2.83-1.17A3.95 3.95 0 0 1 24 24a3.95 3.95 0 0 1 1.17-2.82A3.95 3.95 0 0 1 28 20a3.95 3.95 0 0 1 2.83 1.18A3.95 3.95 0 0 1 32 24Z" fill="#F9ED13"/><path d="M22.96 20.47c.2.17.48.2.6.04.14-.15.08-.42-.13-.6-.2-.17-.48-.18-.6-.03-.14.15-.08.42.13.6Z" fill="#E42025"/><path d="M30.38 27h-4.77l-.02-.01v-.03L26.84 24v-.02l-.53-1.47v-.03l.83-1.47.03-.01 1.6-.01c.01 0 .02 0 .03.02l.8 1.35.01.03-.56 1.59v.02l1.36 2.95v.02l-.03.02Z" fill="#0D783D"/><path d="M27.63 21.3a.37.37 0 0 1-.14-.08.1.1 0 0 1-.03-.05c-.01-.04 0-.06.04-.06a.8.8 0 0 1 .4.1.1.1 0 0 0 .11 0 .68.68 0 0 1 .44-.1s.02 0 .02.02v.03a.84.84 0 0 1-.84.14Z" fill="#F9ED13"/><path d="M28.64 25.23c.07-.01.12 0 .15.05v.06c-.1.2-.13.4-.1.6.03.12.02.24-.03.35a.63.63 0 0 1-.23.24.96.96 0 0 1-.68.14.8.8 0 0 1-.6-.42c0-.03-.02-.03-.04-.01l-.02.01c-.03.02-.03.04-.02.07.13.21.32.35.58.42l.04.02v.03c0 .02 0 .03-.03.03h-1.65l-.04-.01a.05.05 0 0 1 0-.05l1.1-2.67a.23.23 0 0 0 .02-.17l-.48-1.4a.19.19 0 0 1 .02-.16l.6-1.01a.08.08 0 0 1 .11-.03c.43.23.86.22 1.27-.04.04-.02.07-.01.09.02l.64 1.1a.1.1 0 0 1 0 .09l-.53 1.44a.16.16 0 0 0 .01.14l1.29 2.7c.02.03 0 .05-.04.05a38.93 38.93 0 0 1-1.94-.02c.09-.02.18-.05.27-.1.1-.04.18-.1.24-.14.03-.03.05-.02.05.01.01.04.03.07.06.1.07.05.11.03.12-.06.02-.27 0-.54-.05-.8a.53.53 0 0 1 0-.22l.04-.1c.04-.11.06-.19.05-.23-.04-.14-.14-.17-.3-.1v.07h.03Z" fill="#F9ED13"/><path d="M27.43 21.74c.07 0 .13-.04.13-.1 0-.05-.05-.1-.12-.1-.07 0-.13.04-.13.1 0 .06.05.1.12.1ZM27.95 21.77c.06 0 .1-.05.1-.1s-.05-.09-.11-.08c-.06 0-.1.05-.1.1s.05.08.11.08ZM28.05 22.27c-.03 0-.05.02-.05.05v.18c0 .03.03.05.06.04l.57-.01c.02 0 .04 0 .05.02.01.01.03.03.03.06v.64c0 .07-.05.1-.11.1h-.12c-.06 0-.1-.03-.1-.1v-.19l-.01-.19c0-.05-.03-.07-.07-.08l-.18-.01c-.05 0-.12.02-.12.06v.41c0 .02 0 .04-.02.06a.07.07 0 0 1-.05.02h-.7c-.04 0-.06-.03-.07-.07v-.1c0-.04.02-.07.07-.07h.4c.1 0 .14-.06.12-.16v-.03a.12.12 0 0 0-.04-.08.1.1 0 0 0-.07-.03l-.41.02c-.02 0-.03 0-.05-.02a.06.06 0 0 1-.01-.04v-.67c0-.02 0-.04.02-.05a.06.06 0 0 1 .04-.02h.19c.04 0 .06.02.06.06v.34c0 .09.04.14.12.16h.03c.06.01.1-.03.1-.1v-.4l.02-.05a.05.05 0 0 1 .04-.02h.82c.07 0 .1.06.1.13v.04c0 .06-.03.1-.09.1h-.57ZM27.7 24.76c-.01-.04-.04-.06-.08-.06h-.03c-.06.03-.1.07-.1.13v.72c0 .02 0 .03-.02.04l-.04.01h-.01l-.01-.01-.02-.6c0-.07-.04-.1-.11-.09l-.05.02a.11.11 0 0 0-.06.1v.9c0 .02-.02.03-.04.03h-.03c-.02 0-.03 0-.03-.03v-.85c0-.07.02-.12.06-.17a.3.3 0 0 1 .16-.1.17.17 0 0 0 .11-.07c.06-.1.14-.15.26-.17.05-.01.1-.03.13-.07a.21.21 0 0 1 .1-.05c.04-.01.07 0 .1.01.1.06.21.1.32.12a.2.2 0 0 1 .17.2v.34c0 .04.01.07.04.1.06.1.05.18-.02.26-.08.07-.12.05-.12-.05v-.65a.1.1 0 0 0-.02-.07.1.1 0 0 0-.08-.04h-.05c-.02 0-.04 0-.05.02a.06.06 0 0 0-.03.04v.68c0 .02-.01.03-.04.03h-.03c-.02 0-.03-.01-.03-.03v-.75a.1.1 0 0 0-.05-.1.13.13 0 0 0-.12 0c-.04.01-.07.04-.07.1l.02.81c0 .03-.01.04-.04.04h-.03c-.03-.02-.05-.04-.04-.07.02-.24.01-.46-.03-.67Z" fill="#0D783D"/><path d="M28.54 26.1c0 .13-.07.23-.2.32a.75.75 0 0 1-.45.12.75.75 0 0 1-.45-.14c-.12-.1-.18-.2-.18-.33s.07-.23.2-.32a.75.75 0 0 1 .45-.12c.18 0 .32.05.45.14.12.1.18.2.18.33Z" fill="#0D783D"/><path d="M27.9 26.4c.25 0 .46-.15.45-.32 0-.16-.21-.3-.47-.29-.26 0-.46.15-.46.32 0 .16.22.3.48.29Z" fill="#F9ED13"/><path d="m24.65 28.69.08.1c.14.2.23.34.27.44a.4.4 0 0 1-.1.45.52.52 0 0 1-.54.13 1.16 1.16 0 0 1-.48-.32c-.2-.2-.25-.42-.13-.65a.09.09 0 0 1 .05-.04h.06c.21.09.3.2.28.37 0 .08.02.15.08.21.05.06.12.08.2.07.06 0 .1-.03.12-.08a.13.13 0 0 0-.02-.13l-.03-.03a1.98 1.98 0 0 1-.29-.45c-.07-.19-.05-.35.08-.47.14-.13.3-.16.5-.08.17.06.31.17.45.32.17.18.2.37.07.56a.05.05 0 0 1-.07.02c-.2-.1-.3-.23-.32-.4a.2.2 0 0 0-.1-.16c-.07-.05-.12-.04-.17.02a.1.1 0 0 0 0 .12ZM31.39 28.63c-.07.07-.1.12-.07.16.04.05.1.07.16.04l.03-.02.39-.16a.7.7 0 0 1 .39-.03c.16.04.26.15.3.32.02.07.02.14 0 .22a.58.58 0 0 1-.08.22c-.12.18-.31.32-.59.43-.12.05-.28.02-.48-.1a.08.08 0 0 1-.05-.06c0-.03.01-.05.03-.07l.24-.2a.08.08 0 0 1 .1-.01l.1.04c.03.02.06.03.1.02.13-.03.2-.1.23-.22a.12.12 0 0 0-.04-.13.12.12 0 0 0-.12-.02l-.16.06c-.19.08-.33.12-.43.14-.16.02-.29-.01-.38-.1-.17-.15-.2-.32-.09-.5.08-.15.22-.28.42-.4.2-.12.4-.13.59-.02.02.02.04.04.04.07 0 .03 0 .06-.03.08l-.2.15a.13.13 0 0 1-.1.03h-.12a.21.21 0 0 0-.18.06ZM26 30.02l-.06.2v.03l.03.03.7.25c.02 0 .03.01.04.03v.04l-.1.22a.05.05 0 0 1-.06.03l-1.17-.4a.05.05 0 0 1-.03-.04v-.04l.5-1.35.03-.03h.04l1.15.4c.02 0 .03 0 .03.02v.04l-.07.21-.03.03h-.04l-.7-.24a.05.05 0 0 0-.07.04l-.03.13c-.01.03 0 .05.03.06l.62.24c.02 0 .03.01.03.03v.04l-.06.18-.02.03h-.05l-.64-.21h-.05a.05.05 0 0 0-.02.04ZM29.11 29.47v-.05l.04-.03.66-.24a.7.7 0 0 1 .54.02c.18.08.3.21.36.4l.07.18c.06.17.05.35-.03.52a.68.68 0 0 1-.4.36l-.67.24h-.04a.06.06 0 0 1-.03-.04l-.5-1.36ZM28 30.63l.75.04.04.01.01.04v.25c0 .02-.01.03-.03.04a.06.06 0 0 1-.04.02l-1.24-.06-.03-.02a.05.05 0 0 1-.02-.04l.07-1.44.02-.04a.05.05 0 0 1 .04-.01l1.23.06a.05.05 0 0 1 .05.06l-.02.2-.01.04a.05.05 0 0 1-.04.01l-.73-.01h-.04a.05.05 0 0 0-.01.04l-.02.13.01.05.04.01.67.05c.02 0 .03 0 .04.02l.02.03v.2c0 .01 0 .03-.02.04a.05.05 0 0 1-.04.01l-.69-.02c-.01 0-.03 0-.04.02a.05.05 0 0 0-.01.03l-.01.19.01.04.04.01Z" fill="#F0F3FA"/><path d="M29.7 29.67v-.06a.09.09 0 0 1 .05-.05l.07-.03a.3.3 0 0 1 .25.01c.09.04.14.1.18.2l.07.17a.33.33 0 0 1-.18.43l-.08.03H30a.08.08 0 0 1-.05-.05l-.25-.65ZM24.41 36.34c.22.02.45 0 .69-.06l1.25-.03c.4-.02.97 0 1.73.03h.11l1.83.1.67.09.55.03c.18.01.36.04.53.08l.81.22c.72.2 1.26.33 1.62.42.6.14 1.13.25 1.6.31.14.02.27 0 .38-.07a.4.4 0 0 0 .2-.32c.03-.26.09-.46.17-.59.1-.16.28-.26.53-.3.3-.07.55-.08.73-.05.52.1 1.2.46 2.04 1.1a33.3 33.3 0 0 0 2.26 1.53c.22.1.42.18.62.21l1.2.25c.1.03.1.06 0 .1l-.78.38c-.08.04-.15.1-.22.15a3.22 3.22 0 0 0-.3.31c-.66.67-1.22 1.4-1.68 2.22a76 76 0 0 0-.83 1.5.1.1 0 0 1-.12.04l-.32-.13a6.1 6.1 0 0 1-.9-.45l-.67-.4a7.8 7.8 0 0 0-.7-.35.11.11 0 0 0-.08 0c-.34.11-.6.32-.78.61a.12.12 0 0 1-.14.06l-.08-.01a5.8 5.8 0 0 1-.48-.11 1.8 1.8 0 0 1-.44-.2 13.1 13.1 0 0 0-4.05-1.67 17.42 17.42 0 0 0-12.18 1.71c-.19.1-.4.18-.62.2-.28.05-.49.01-.62-.11a5.96 5.96 0 0 1-.36-.35.4.4 0 0 1-.09-.16l-.03-.18a.86.86 0 0 0-.07-.27l-.2-.29c-.03-.03-.06-.03-.09 0a7.04 7.04 0 0 1-.87.58c-.26.14-.45.26-.57.34-.21.13-.4.26-.55.38l-.46.36c-.02.02-.05.02-.07 0-.18-.14-.3-.3-.38-.48a89.44 89.44 0 0 0-1.3-3.09.73.73 0 0 0-.1-.15 9.2 9.2 0 0 1-.8-.95l.04-.03.35-.02.54-.04c.2-.03.37-.06.52-.12a6.05 6.05 0 0 0 1.54-.8c.34-.25.78-.62 1.35-1.13a3.57 3.57 0 0 1 2.11-.95l.3.01.28.06.15.04c.04 0 .07.02.1.05a16.95 16.95 0 0 1 .07 1.08c-.01.15.04.29.15.39.03.02.06.02.09.01 1.24-.4 2.59-.72 4.04-.94l.78-.15Z" fill="#E42025"/><path d="m27.9 38.17.22-.41a.17.17 0 0 1 .16-.1c.12.01.24 0 .34-.02.07 0 .08.01.05.07l-.5.85a.63.63 0 0 0-.08.3 3.47 3.47 0 0 0 .01.46c0 .06-.03.09-.09.1h-.31c-.07 0-.1-.03-.1-.1v-.51a.65.65 0 0 0-.1-.3l-.43-.7c-.07-.13-.04-.18.12-.16.05.02.11.02.17.01.1 0 .19.04.24.13l.2.38c.01.02.03.03.05.03.03 0 .05 0 .06-.03ZM25.8 38.17l-.37.01a.07.07 0 0 1-.07-.06l-.01-.3c0-.02 0-.04.02-.05a.06.06 0 0 1 .04-.02l1.35-.07c.02 0 .03 0 .05.02l.02.04.02.3c0 .02 0 .03-.02.05a.06.06 0 0 1-.04.02l-.38.03c-.02 0-.03 0-.04.02a.06.06 0 0 0-.02.05l.06 1.18c0 .01 0 .03-.02.04a.06.06 0 0 1-.04.03l-.36.02a.07.07 0 0 1-.07-.06l-.05-1.19c0-.02 0-.03-.02-.04a.06.06 0 0 0-.05-.02ZM30.2 38.35a17.84 17.84 0 0 0 .4.16c.1.05.19.1.24.16.15.14.19.33.1.57-.07.2-.22.3-.45.34-.2.03-.4 0-.6-.07-.2-.08-.3-.26-.33-.53 0-.03 0-.04.03-.05.26-.07.43 0 .5.18a.2.2 0 0 0 .08.1c.04.03.08.05.13.05.1 0 .17-.06.2-.14a.15.15 0 0 0-.02-.11.15.15 0 0 0-.08-.08l-.04-.02-.28-.12a1.2 1.2 0 0 1-.27-.18c-.18-.16-.2-.35-.08-.57.1-.17.26-.26.51-.25a1 1 0 0 1 .5.11c.15.1.23.23.24.42 0 .04-.02.05-.05.06a.84.84 0 0 1-.34-.03.12.12 0 0 1-.08-.07c-.06-.14-.16-.19-.3-.15a.1.1 0 0 0-.06.05.12.12 0 0 0-.01.1c.01.03.03.06.07.07ZM24.98 37.81l-.36.03a.06.06 0 0 0-.06.07l.13 1.62c0 .03.04.06.07.05l.36-.03c.04 0 .07-.03.06-.06l-.13-1.62a.06.06 0 0 0-.07-.06ZM31.76 39.12l-.03.21.01.04.04.03.73.14c.01 0 .03 0 .04.02v.04l-.03.28c0 .02-.01.03-.03.04a.06.06 0 0 1-.04 0l-1.2-.22a.06.06 0 0 1-.05-.03.06.06 0 0 1 0-.04l.25-1.6c0-.01.01-.03.03-.03a.06.06 0 0 1 .04-.02l1.18.22.04.02v.05l-.02.25-.02.04a.06.06 0 0 1-.05.01l-.7-.13h-.05a.06.06 0 0 0-.02.05l-.03.14v.05l.04.02.67.15a.06.06 0 0 1 .04.07l-.05.2c0 .02-.02.04-.03.04a.06.06 0 0 1-.04.01l-.65-.1h-.04a.06.06 0 0 0-.03.05ZM23.72 39.32l.6-.1.06.01c.02.01.03.03.03.05l.05.27-.01.06a.08.08 0 0 1-.05.03l-1.1.18-.07-.01a.07.07 0 0 1-.03-.05l-.19-1.6c0-.01 0-.03.02-.05a.07.07 0 0 1 .04-.03l.34-.05.05.01c.02.02.03.03.03.06l.14 1.15c0 .02.02.04.03.05.02.02.04.02.06.02ZM21.87 39.91l.01.2c0 .03-.01.04-.04.05l-.4.12c-.02 0-.03 0-.05-.02a.05.05 0 0 1-.02-.04l.23-1.74c0-.02.01-.04.04-.05l.43-.12c.03 0 .05 0 .06.03l.9 1.46v.05c-.01.02-.02.03-.04.03l-.39.09c-.02 0-.04 0-.06-.03l-.1-.18c-.02-.02-.04-.03-.07-.02l-.46.12c-.02 0-.04.02-.04.05ZM33.54 39.07l.62.17c.03.01.04.03.04.07l-.03.23c0 .02 0 .03-.02.04a.06.06 0 0 1-.05.01l-.64-.17h-.04a.06.06 0 0 0-.03.04l-.06.22v.04l.04.03.74.2.04.03v.05l-.08.26c0 .02 0 .03-.02.04a.06.06 0 0 1-.05 0l-1.19-.32a.05.05 0 0 1-.03-.03.06.06 0 0 1 0-.04l.35-1.58.03-.04h.05l1.16.32c.02 0 .03 0 .04.02v.04l-.05.24a.06.06 0 0 1-.07.04l-.7-.17-.05.01a.06.06 0 0 0-.02.04l-.03.14c0 .04.01.06.05.07ZM19.4 39.19l.27-.12a.11.11 0 0 1 .1 0 .1.1 0 0 1 .06.08l.29.94c.05.15.14.2.3.16l.02-.01c.18-.06.24-.18.19-.36l-.3-.96c-.01-.05 0-.08.05-.1l.3-.13c.06-.02.1 0 .11.06l.24.75c.08.24.1.45.06.61-.04.2-.17.35-.39.46-.56.27-.92.12-1.1-.46l-.25-.82c-.02-.05 0-.08.05-.1ZM34.8 38.91l.05-.05a.09.09 0 0 1 .07 0l.6.18c.2.06.35.18.45.36.1.18.11.37.05.56l-.08.27a.7.7 0 0 1-.37.43c-.18.09-.38.1-.58.04l-.6-.19a.09.09 0 0 1-.05-.04.09.09 0 0 1 0-.07l.47-1.49Z" fill="#F0F3FA"/><path d="M21.91 39.43v-.5c0-.02.01-.03.04-.04.02 0 .03 0 .04.02l.23.41v.03c0 .02 0 .02-.02.03l-.23.1-.04-.01a.04.04 0 0 1-.02-.04ZM35.15 39.44c0-.03.02-.04.04-.06a.08.08 0 0 1 .07 0l.06.02c.09.02.16.07.2.16.04.08.05.16.03.26l-.08.25a.34.34 0 0 1-.41.24l-.07-.01a.08.08 0 0 1-.05-.05.08.08 0 0 1 0-.06l.21-.75Z" fill="#E42025"/><path d="m19.37 40.82.14.02c.05 0 .08.04.08.1v.15c0 .03 0 .04-.02.06a.07.07 0 0 1-.06.02l-.28-.03a.13.13 0 0 0-.1.04c-.21.2-.43.32-.65.33-.25.02-.46-.1-.63-.33-.13-.2-.2-.4-.2-.64a.8.8 0 0 1 .23-.59.95.95 0 0 1 .58-.29.6.6 0 0 1 .38.08c.11.06.2.15.28.27a1.3 1.3 0 0 1 .2.76c0 .03.02.05.05.05ZM36.92 40.1a.1.1 0 0 0-.07.08c0 .04 0 .07.03.1a5 5 0 0 0 .28.27c.08.09.15.17.19.25.1.2.08.4-.06.59-.14.17-.33.23-.56.16a1.2 1.2 0 0 1-.53-.32c-.16-.17-.2-.37-.12-.62 0-.03.03-.04.06-.04.25.06.37.18.37.37 0 .07.03.13.08.17.05.05.1.07.18.07.04 0 .07 0 .1-.03a.15.15 0 0 0 .05-.1.19.19 0 0 0-.05-.16 2.7 2.7 0 0 1-.33-.35.71.71 0 0 1-.14-.25.48.48 0 0 1 .09-.42.4.4 0 0 1 .16-.13.44.44 0 0 1 .23-.02c.23.04.42.13.57.27.17.17.23.36.18.58 0 .03-.03.04-.06.04-.23-.05-.36-.16-.39-.34a.23.23 0 0 0-.1-.15c-.05-.04-.1-.05-.16-.03Z" fill="#F0F3FA"/><path d="M18.53 40.8c-.02.07.02.13.1.16.12.04.12.07-.01.1-.1.03-.18 0-.28-.07a.69.69 0 0 1-.19-.3.55.55 0 0 1-.03-.33c.03-.12.1-.2.23-.24.12-.04.24 0 .34.15.08.11.14.24.18.4l-.01.04a.05.05 0 0 1-.04.02h-.22c-.02 0-.03 0-.05.02a.08.08 0 0 0-.02.05Z" fill="#E42025"/></svg>