<svg width="56" height="56" viewBox="0 0 56 56" xmlns="http://www.w3.org/2000/svg"><path fill="#ED1C24" d="M0 0h56v56H0z"/><path fill-rule="evenodd" d="M52 26.75C52 29.1 50.61 31 48.2 31c-2.42 0-3.7-1.9-3.7-4.25s1.24-4.25 3.7-4.25c2.56 0 3.8 1.9 3.8 4.25Zm-2 0c0 1.52-.66 2.75-1.82 2.75-1.15 0-1.76-1.23-1.76-2.75s.6-2.75 1.76-2.75c1.23 0 1.82 1.23 1.82 2.75ZM38 23v1.5h1v4.96h-1V31h6v-3h-2v1.46h-1V24.5h1V23h-4Zm-9 8h3v-1.71h-.65l.2-.62h2.57l.2.62h-.73V31H37v-1.71h-.44l-2.14-5.79h-2.78l-2.2 5.79H29V31Zm4.7-3.6-.84-2.5-.87 2.5h1.7ZM13 31h-3v-1.5h.44l1.8-5h3.54l1.78 5H18V31h-3.5v-1.5h.82l-.19-.5h-2.58l-.2.5H13V31Zm.86-5.29.88 2.29h-1.8l.92-2.29ZM4.5 25v1.01H5V30h-.5v1H8v-1H7v-1.5h.99c.92 0 3.02-.36 3.02-1.84 0-1.2-1.54-1.68-2.3-1.66H4.5Zm3.46 1H7v1.5h.96c.57 0 1.04-.34 1.04-.75S8.53 26 7.96 26Zm18.57 0H28v-2.36h-1.4v.57c-.16-.24-.72-.71-1.73-.71-1.25 0-2.49.5-2.49 2.12 0 1.38.86 1.73 1.63 2.04l.38.15c.2.1.41.17.62.25.66.24 1.28.47 1.28 1.01-.03.19-.27.56-1 .56-.9 0-1.13-.5-1.13-1.29h-1.78V31H24v-.72c.14.24.7.72 1.82.72 1.4 0 2.56-.63 2.56-2.3 0-1.47-1.22-1.91-1.87-2.15l-.22-.08c-.12-.05-.27-.1-.44-.14-.61-.19-1.4-.43-1.4-1 .02-.18.24-.54.95-.54.9 0 1.13.73 1.13 1.21Z" fill="#fff"/><path d="M21.5 29.5V31h-3v-1.5h.5v-4h-.5V24h3v1.5H21v4h.5Z" fill="#fff"/></svg>