<svg width="56" height="56" viewBox="0 0 56 56" xmlns="http://www.w3.org/2000/svg"><path fill="#F0F3FA" d="M0 0h56v56H0z"/><path d="M46.99 32h-1.97C45 29.5 45 27.5 45 25h2v2.65l3-.19V25h2v7h-2v-2.83l-3 .15-.01 2.68ZM40.6 33l-.28-1.83c1.02.03 2.13-.26 2.13-.77 0-.21-.18-.34-1.02-.83-.66-.39-1.43-.92-1.43-1.82 0-1.2 1.56-2.51 4.21-2.75l.29 1.8c-1.31 0-1.97.22-1.97.66 0 .25.33.41 1.01.76.56.28 1.46.76 1.46 1.72 0 1.18-1.2 2.68-4.4 3.06ZM33.02 33 31 31.91c.32-.52 3.27-5.34 4.3-6.91h.11c1.28 1.86 4.14 6.2 4.59 6.79l-2.1 1.2c-.32-.5-.86-1.42-.97-1.6l-3.2.18c-.09.15-.47.95-.7 1.43Zm1.39-2.95 1.8-.09c-.3-.59-.7-1.31-.9-1.74l-.9 1.83ZM26 25h2v5h3v2h-4.99L26 25ZM19.8 33 18 31.91c.28-.52 2.9-5.34 3.82-6.91h.1c1.14 1.86 3.68 6.2 4.08 6.79l-1.87 1.2-.86-1.6-2.85.18L19.8 33Zm1.23-2.95 1.6-.09c-.27-.59-.63-1.31-.8-1.74l-.8 1.83ZM16 32h-2v-7c1.96 0 3.22.05 4.07.25 1.03.24 1.93.82 1.93 1.94 0 1.28-1.51 2.67-4 3.06V32Zm0-5.62v2.48c.6-.08 1.67-.58 1.67-1.4 0-.55-.57-1-1.67-1.08ZM9.47 33.02c-.43.14-1.08 0-1.5-.12a5.25 5.25 0 0 1-3.75-3.76 5.19 5.19 0 0 1-.12-2.5 4.74 4.74 0 0 1 2.75-3.15c.13-.06 1.37-.63 1.37-.46 0 1.17-.08 2.2-.5 3.26-.04.1-.1.19-.21.24-1.6.7-2.65 2.18-2.07 3.93.53 1.57 2.53 2.28 4.03 2.56Z" fill="#E1222A"/><path d="M9.71 26.4c-1.39.56-1.9 1.93-1.25 3.23l.14.28c.02.05.02.09 0 .13-.13.34-.3.74-.29 1.1 0 .53.25.98.74 1.34.2.15.18.21-.08.18-1.68-.23-3.51-1.4-3.5-3.22.03-1.83 2.18-2.92 3.75-3.5 1-.37 2.06-.42 3.2-.14.02 0 .04.02.04.05 0 .03-.01.04-.04.04-1 0-1.9.17-2.71.5Z" fill="#E1222A"/><path d="M8.53 29.4c-.15-.3-.4-1.42.14-1.52a4.84 4.84 0 0 1 3.12.46c.02.01.04.03.04.05.01.03 0 .06-.03.07a7.1 7.1 0 0 1-1.76.3.4.4 0 0 0-.3.14 2.6 2.6 0 0 1-.87.61.26.26 0 0 1-.34-.11Z" fill="#E1222A"/><path d="M10.03 30c-.37.27-.52.6-.44 1.01.04.22.14.4.21.6.02.04.02.07.02.1-.01.12-.1.21-.2.24l-.55.14c-.1.03-.18 0-.24-.08a1.3 1.3 0 0 1-.2-1.44c.36-.8.94-1.59 1.94-1.46.7.08 1.5.25 2.4.51.02.01.03.03.03.05 0 .02-.01.03-.04.03l-1.91.04c-.37 0-.72.05-1.02.26Z" fill="#E1222A"/><path d="M9.43 33.58a4.78 4.78 0 0 1-.35-.08c-.05-.02-.13-.1-.04-.1h.6c.11 0 .2-.1.16-.19-.1-.2-.43-.38-.65-.53-.17-.1-.15-.17.07-.19.23-.01.44-.07.63-.17.15-.08.17-.17.07-.29a.93.93 0 0 1-.25-.7c0-.03.05-.05.08-.03l.2.13a.46.46 0 0 0 .5 0c.2-.1.4-.23.59-.36.4-.25.97.2 1.1.47.08.15.05.3.09.44 0 .04.02.07.05.1.14.1.22.24.24.4 0 .04.03.08.07.11.04.03.1.05.15.06 1.33.1 2.66.18 4 .25.39.02.78.14 1.15.38.04.02.08.06.1.1.02.05.01.1-.04.14h-.02a1.42 1.42 0 0 0-.99-.37l-3.74-.05c-.33 0-.66-.02-1.01-.05a.43.43 0 0 0-.31.1c-.17.13-.33.28-.49.42-.27.26-.98.2-1.35.2-.32-.02-.6.1-.86.23-.04.01-.06-.05-.04-.07l.33-.24c.08-.05.06-.09-.04-.1Z" fill="#363B3D"/></svg>