<svg width="56" height="56" viewBox="0 0 56 56" xmlns="http://www.w3.org/2000/svg"><path fill="#F0F3FA" d="M0 0h56v56H0z"/><path d="M25.05 13.27a.64.64 0 1 0 0-1.27.64.64 0 0 0 0 1.27ZM29.5 15a1.5 1.5 0 1 0 0-3 1.5 1.5 0 0 0 0 3ZM33.8 14.15a.64.64 0 1 0 0-1.27.64.64 0 0 0 0 1.27Z" fill="#006D6B"/><path d="M21.56 16.55a1.51 1.51 0 1 0 0-3.03 1.51 1.51 0 0 0 0 3.03Z" fill="#005FA1"/><path d="M25.9 18.74a2.16 2.16 0 1 0 .01-4.32 2.16 2.16 0 0 0 0 4.32ZM32.46 19.45a2.16 2.16 0 1 0 0-4.31 2.16 2.16 0 0 0 0 4.3ZM37.2 18.38a1.52 1.52 0 1 0 0-3.03 1.52 1.52 0 0 0 0 3.03Z" fill="#006D6B"/><path d="M17.4 16.01h-.15c-.3 0-.56.25-.56.55v.17c0 .3.24.55.55.56h.16c.3 0 .55-.24.55-.55v-.17c0-.3-.24-.55-.54-.56ZM20.06 21.78a2.15 2.15 0 1 0 0-4.3 2.15 2.15 0 0 0 0 4.3Z" fill="#005FA1"/><path d="M40.7 19.76a.64.64 0 1 0 0-1.28.64.64 0 0 0 0 1.28ZM15.55 21.9a1.52 1.52 0 1 0 0-3.04 1.52 1.52 0 0 0 0 3.04ZM37.45 23.67a2.15 2.15 0 1 0 .01-4.3 2.15 2.15 0 0 0 0 4.3ZM25.05 22.62a1.51 1.51 0 1 0 0-3.02 1.51 1.51 0 0 0 0 3.02ZM29.04 19.74h-.2c-.3 0-.53.24-.53.53v.21c0 .3.24.52.53.52h.2c.3 0 .53-.24.53-.53v-.2a.53.53 0 0 0-.53-.53Z" fill="#006D6B"/><path d="M32.46 22.38a.64.64 0 1 0 0-1.28.64.64 0 0 0 0 1.28Z" fill="#0093CE"/><path d="M41.85 25.03a1.51 1.51 0 1 0 0-3.02 1.51 1.51 0 0 0 0 3.02Z" fill="#006D6B"/><path d="M16.92 26.88a2.15 2.15 0 1 0 .01-4.3 2.15 2.15 0 0 0 0 4.3ZM13 24.16a.64.64 0 1 0 0-1.28.64.64 0 0 0 0 1.28ZM21.86 24.9a.64.64 0 1 0 0-1.28.64.64 0 0 0 0 1.28Z" fill="#005FA1"/><path d="M29.57 24.9a.64.64 0 1 0 0-1.28.64.64 0 0 0 0 1.29Z" fill="#0093CE"/><path d="M35.5 27a1.5 1.5 0 1 0 0-3 1.5 1.5 0 0 0 0 3Z" fill="#006D6B"/><path d="M24.58 26.2a.64.64 0 1 0 0-1.28.64.64 0 0 0 0 1.28Z" fill="#005FA1"/><path d="M39.48 29.84a2.15 2.15 0 1 0 0-4.3 2.15 2.15 0 0 0 0 4.3Z" fill="#006D6B"/><path d="M13.5 29a1.5 1.5 0 1 0 0-3 1.5 1.5 0 0 0 0 3ZM20.5 29a1.5 1.5 0 1 0 0-3 1.5 1.5 0 0 0 0 3Z" fill="#005FA1"/><path d="M43.46 26.88h-.18c-.3 0-.54.24-.55.53v.2c0 .3.24.54.53.54h.19c.3 0 .54-.23.54-.53v-.2c0-.29-.23-.53-.53-.54ZM32.37 30a.64.64 0 1 0 0-1.28.64.64 0 0 0 0 1.28Z" fill="#006D6B"/><path d="M16.92 33.44a2.16 2.16 0 1 0 0-4.31 2.16 2.16 0 0 0 0 4.31Z" fill="#005FA1"/><path d="M35.37 30.54a.64.64 0 1 0 0-1.27.64.64 0 0 0 0 1.27Z" fill="#006D6B"/><path d="M24.58 31.34a.64.64 0 1 0 0-1.27.64.64 0 0 0 0 1.27Z" fill="#005FA1"/><path d="M41.84 33.38a1.52 1.52 0 1 0 0-3.03 1.52 1.52 0 0 0 0 3.03Z" fill="#0093CE"/><path d="M21.57 32.84a.64.64 0 1 0 0-1.28.64.64 0 0 0 0 1.28ZM13 33.02a.66.66 0 1 0 0-1.31.66.66 0 0 0 0 1.31Z" fill="#005FA1"/><path d="M37.8 36.15a2.16 2.16 0 1 0 0-4.33 2.16 2.16 0 0 0 0 4.33ZM29.03 32.19h-.14a.57.57 0 0 0-.58.56v.16c0 .31.25.57.57.57h.15c.31 0 .57-.25.57-.57v-.15a.57.57 0 0 0-.57-.57ZM33.13 35.22a1.52 1.52 0 1 0 0-3.03 1.52 1.52 0 0 0 0 3.03Z" fill="#0093CE"/><path d="M24.93 36.39a1.51 1.51 0 1 0 0-3.03 1.51 1.51 0 0 0 0 3.03ZM15.5 37a1.5 1.5 0 1 0 0-3 1.5 1.5 0 0 0 0 3Z" fill="#005FA1"/><path d="M20.47 38.92a2.16 2.16 0 1 0 .01-4.31 2.16 2.16 0 0 0 0 4.3Z" fill="#006D6B"/><path d="M29.57 36.77a.64.64 0 1 0 0-1.29.64.64 0 0 0 0 1.29ZM41 36.77a.64.64 0 1 0 0-1.29.64.64 0 0 0 0 1.29ZM32.89 40.52a2.16 2.16 0 1 0 0-4.32 2.16 2.16 0 0 0 0 4.32ZM36 38.5c0 .83.68 1.5 1.52 1.5.85 0 1.53-.66 1.53-1.48 0-.83-.67-1.5-1.51-1.5-.85 0-1.53.66-1.53 1.49ZM26 41a2 2 0 1 0 0-4 2 2 0 0 0 0 4Z" fill="#0093CE"/><path d="M17.84 40.29a.64.64 0 1 0 0-1.28.64.64 0 0 0 0 1.28ZM20.28 41.1c.01.84.7 1.5 1.53 1.5.84-.02 1.5-.71 1.49-1.55-.02-.84-.7-1.51-1.54-1.5-.83.02-1.5.7-1.48 1.55Z" fill="#005FA1"/><path d="M29.92 43.73a1.52 1.52 0 1 0 0-3.04 1.52 1.52 0 0 0 0 3.04ZM34.64 42.6a.64.64 0 1 0 0-1.29.64.64 0 0 0 0 1.28ZM25.8 44a.64.64 0 1 0 0-1.28.64.64 0 0 0 0 1.28Z" fill="#0093CE"/></svg>