<svg width="56" height="56" viewBox="0 0 56 56" xmlns="http://www.w3.org/2000/svg"><path fill="#F0F3FA" d="M0 0h56v56H0z"/><path d="M46.32 21.02c.27-.08.46.07.51.34.15.75.28 1.53.4 2.35.01.04-.02.07-.05.07l-.73-.02c-.04 0-.06-.02-.07-.07-.08-.61-.2-1.3-.36-2.08-.07-.32.03-.52.3-.59ZM48.23 23.53a.12.12 0 0 1-.06-.06.13.13 0 0 1 0-.1l.78-2.04a.53.53 0 0 1 .23-.28c.1-.06.2-.07.3-.03.2.09.31.22.3.46a.6.6 0 0 1-.04.18l-.78 2.05a.11.11 0 0 1-.15.07l-.58-.25ZM49.66 24.66a.08.08 0 0 1 0-.1l1.54-1.38c.16-.15.5-.28.67-.07l.06.08c.17.21 0 .53-.17.68l-1.53 1.38a.07.07 0 0 1-.1 0l-.47-.59Z" fill="#00448D"/><path fill-rule="evenodd" d="M47.88 30.83c-.59.01-1.14-.32-1.61-.86-.04-.05-.04-.08 0-.12l3.24-2.7c.18-.15.25-.3.2-.47-.24-1.12-1.22-1.7-2.3-1.68a3.52 3.52 0 0 0-2.7 1.23 2.92 2.92 0 0 0-.7 2c0 .38.08.76.24 1.16.58 1.43 1.83 2.61 3.38 2.61 1.53 0 3.18-1.12 3.36-2.7l.01-.23c-.01-.52-.22-1.28-.88-1.2a.6.6 0 0 0-.52.73c.07.25.1.48.08.7-.07.86-.96 1.52-1.8 1.53Zm-.69-4.7c-.27 0-.56.07-.84.22-1 .52-1.16 1.48-.78 2.44.02.06.1.08.14.04l2.65-2.23a.08.08 0 0 0 0-.12 2.2 2.2 0 0 0-1.17-.35Z" fill="#00448D"/><path d="M31.39 28.8c.07 1.06.59 2.18 1.79 2.2 1.07.02 1.33-.85 1.8-1.62.27-.45 1.02-.2 1.02.34 0 1.47-1.5 2.28-2.82 2.28-2.14 0-3.35-1.87-3.16-3.9.16-1.7 1.41-3.08 3.16-3.1a2.95 2.95 0 0 1 2.6 1.33c.22.37.4 1.12-.2 1.27-.4.1-.64-.13-.82-.47-.33-.6-.78-1.13-1.48-1.13-1.43 0-1.98 1.59-1.9 2.8ZM37 25.75a.75.75 0 0 1 1.5 0V28H41v-2.25a.75.75 0 0 1 1.5 0v5.5a.75.75 0 0 1-1.5 0V29h-2.5v2.25a.75.75 0 0 1-1.5 0v-5.5ZM17.47 31.4l.03-4 3.07 4.33c.38.5 1.43.25 1.43-.36V25.6c0-.33-.33-.62-.7-.62-.38 0-.8.29-.8.62v4l-3.08-4.33c-.38-.52-1.42-.23-1.42.37l-.03 5.76c0 .33.4.6.78.6s.72-.27.72-.6ZM28.4 32c.42 0 .72-.46.56-.89l-2.03-5.43a.98.98 0 0 0-1.86 0l-2.03 5.43c-.16.43.14.89.57.89.25 0 .47-.16.56-.4L26 27l1.83 4.6c.09.24.31.4.56.4ZM14.4 32c.42 0 .72-.46.56-.89l-2.03-5.43a.98.98 0 0 0-1.86 0L9.04 31.1c-.16.43.14.89.57.89.25 0 .47-.16.56-.4L12 27l1.83 4.6c.09.24.31.4.56.4Z" fill="#00448D"/><path fill-rule="evenodd" d="M4 25.53c0-.3.23-.53.51-.53h2.46C8.09 25 9 25.83 9 27s-.91 2-2.03 2H5.5v2.37c0 .35-.44.63-.78.63-.33 0-.72-.28-.72-.63v-5.84ZM5.5 28v-2h1.23c.53 0 .96.45.96 1s-.43 1-.96 1H5.5Z" fill="#00448D"/></svg>