<svg xmlns="http://www.w3.org/2000/svg" width="56" height="56"><path fill="#F0F3FA" d="M0 0h56v56H0z"/><path d="M30.1 17.96c-.81-1.84-3.02-6.19-4.06-6.19-.41 0-.93 4.96-.41 8.92 2.71-1.04 8.73-2.62 12.55-2.2.38.04.72.2 1.07.35.37.17.73.33 1.13.36 7.28.5-1.03 3.96-4.67 5.45 3.12 4.95 3.64 9.9 2.6 11.4-.4-2.58-1.7-8.12-4.93-12.98a.46.46 0 01.16-.66.5.5 0 01.67.14l.77 1.1.53-.18c2.76-1 10.9-3.94 3.32-2.99-4.63.58-8.83 1.9-13.2 3.4-.22.85-.73 2.92-.84 5.5a171.34 171.34 0 0111.44 2.2c-3.12.5-8.32-.5-8.32-.5-.55-.17-1.71-.23-3.14-.25l.03.75.18 2.9c.21 3.07.42 6.02.02 6.02a84.76 84.76 0 01-1.5-9.68h-.89c-2.14-.02-4.45-.03-6.13-.23-1.75-.2-2.68-.84-3.1-1.48h-.02c-1.87-2.5 3.84-4.92 8.33-6.82.5-.2.99-.41 1.44-.61 0-.92.51-13.74 3.2-11.4 1.52 1.33 3.71 4.79 4.56 7.43.08.25-.13.5-.4.5a.43.43 0 01-.4-.25zm-14.72 10.2c2.75.26 5.46.61 7.97.99a55.33 55.33 0 01-.22-4.5c0-.12-4.9 2.17-7.75 3.5z" fill="#F79A35"/><path d="M25.52 44h1.82c.02-1.1.08-2.34.18-3.52.07-.9.22-1.8.37-2.7.2-1.17.39-2.35.41-3.54.03-1.23-.17-1.87-.39-2.08-.22 1.34-.59 2.63-.95 3.93-.41 1.44-.82 2.88-1.03 4.39-.17 1.24-.3 2.44-.41 3.52z" fill="#F79A35"/></svg>