<svg width="56" height="56" viewBox="0 0 56 56" xmlns="http://www.w3.org/2000/svg"><path fill="#F0F3FA" d="M0 0h56v56H0z"/><path d="M51.5 25v8H49v-8h2.5ZM51.5 22v2H49v-2h2.5ZM44 25h2.5v.64c.42-.41.8-.63 1.5-.64v2.24c-.75.03-1.1.31-1.4.84V33H44v-8ZM35 25l.01 2h-1.6c-.32 0-.54.02-.66.06-.11.04-.17.12-.17.24 0 .08.16.26.32.45l1.22 1.46c.59.64.88 1.25.88 1.83 0 1.22-1.18 1.96-2.3 1.96H29v-2h2.15c.31 0 .47-.07.47-.2 0-.24-.33-.52-.47-.69l-1.22-1.42c-.48-.53-.93-1.08-.93-1.85 0-1.27 1.47-1.84 2.54-1.84H35ZM21 25h4.06c2.03 0 2.94 1.09 2.94 3.07V33h-2.5v-4.72c0-.4-.03-.67-.07-.82-.1-.46-.83-.45-1.19-.46h-.74v6H21v-8ZM20 33v-8h-2.48c-2.6 0-4.52 2.45-4.52 4.93 0 .4.05.8.16 1.16.4 1.37 1.73 1.91 3.07 1.91H20Zm-2.5-6v4h-.77c-.74 0-1.21-.47-1.21-1.26 0-1.18.75-2.58 1.98-2.74ZM43 33v-8h-2.48c-2.6 0-4.52 2.45-4.52 4.93 0 .4.05.8.16 1.16.4 1.37 1.73 1.91 3.07 1.91H43Zm-2.5-6v4h-.77c-.74 0-1.21-.47-1.21-1.26 0-1.18.75-2.58 1.98-2.74Z" fill="#E12132"/><path fill-rule="evenodd" d="M8 33v-2.44c2.19-.96 5-2.91 5-5.53C13 23 11.36 22 9.48 22H5v11h3Zm0-5.28c.85-.45 2-1.36 2-2.4 0-.73-.66-.83-1.25-.84H8v3.24Z" fill="#E12132"/></svg>