<svg width="56" height="56" viewBox="0 0 56 56" xmlns="http://www.w3.org/2000/svg"><path fill="#F0F3FA" d="M0 0h56v56H0z"/><path fill-rule="evenodd" d="M40.85 43h-25.7A2.15 2.15 0 0 1 13 40.85v-25.7A2.15 2.15 0 0 1 15.15 13h25.7A2.15 2.15 0 0 1 43 15.15v25.7A2.15 2.15 0 0 1 40.85 43ZM22 38.66v-9.52h.02c0-.03.01-.06.03-.08a.13.13 0 0 1 .14-.06l.07.05c.65.8 1.48 1.44 2.42 1.85a.51.51 0 0 1 .32.49v5.9a.34.34 0 0 1-.16.29l-2.34 1.37a.33.33 0 0 1-.45-.12.34.34 0 0 1-.05-.17ZM30.07 17a5.89 5.89 0 0 0-3.05.82l-1.91 1.12a.07.07 0 0 1-.07 0 .08.08 0 0 1-.04-.06V17.5a.5.5 0 0 0-.14-.35.49.49 0 0 0-.35-.15h-.74a.49.49 0 0 0-.24.07L21 19h.51c.26 0 .5.23.49.5V21a.11.11 0 0 0 .08.1.1.1 0 0 0 .12-.04c.72-.9 1.62-1.39 2.7-1.75a6.3 6.3 0 0 1 1.91-.31c3.14-.04 6.13 2.37 6.13 5.82a6.5 6.5 0 0 1-1.63 4.1c0 .05.05.09.1.08 2.48-1 4.6-2.7 4.59-5.86A6.14 6.14 0 0 0 30.07 17Zm.02 11.36c.23 0 .46 0 .7-.03a.2.2 0 0 1 .11.01c.04.02.07.05.08.09a.18.18 0 0 1-.04.21A5.5 5.5 0 0 1 27.3 30c-2.74 0-5.25-2.22-5.3-5a5.2 5.2 0 0 1 3.73-5 .2.2 0 0 1 .21.08.18.18 0 0 1 0 .22c-.66.88-.95 1.7-.95 3 0 2.7 2.4 5 5.1 5.06Z" fill="#0093AD"/></svg>