<svg xmlns="http://www.w3.org/2000/svg" width="56" height="56" viewBox="0 0 56 56"><path fill="#F0F3FA" d="M0 0h56v56H0z"/><path d="M17 18.65V32h5V18.06c.32-6.34 6.25-8.02 9.14-8.06h-5.17c-7.07.44-8.93 5.96-8.97 8.65z" fill="#422777"/><path fill-rule="evenodd" d="M30.55 27.31c4.65 0 8.42-3.8 8.42-8.5s-3.77-8.5-8.42-8.5a8.46 8.46 0 0 0-8.43 8.5c0 4.7 3.77 8.5 8.43 8.5zm0 .3a8.76 8.76 0 0 0 8.72-8.8c0-4.85-3.9-8.8-8.73-8.8a8.76 8.76 0 0 0-8.72 8.8c0 4.87 3.9 8.8 8.73 8.8z" fill="#422777"/><path fill-rule="evenodd" d="M30.51 26.49a7.75 7.75 0 0 0 7.74-7.77c0-4.29-3.47-7.77-7.74-7.77a7.75 7.75 0 0 0-7.74 7.77c0 4.3 3.47 7.77 7.74 7.77zm0 .3a8.05 8.05 0 0 0 8.04-8.07c0-4.45-3.6-8.07-8.04-8.07a8.05 8.05 0 0 0-8.04 8.07c0 4.46 3.6 8.07 8.04 8.07z" fill="#422777"/><path fill-rule="evenodd" d="M30.5 25.73c3.91 0 7.07-3.13 7.07-6.98a7.02 7.02 0 0 0-7.06-6.97 7.02 7.02 0 0 0-7.07 6.97 7.02 7.02 0 0 0 7.07 6.98zm0 .3a7.32 7.32 0 0 0 7.37-7.28c0-4.01-3.3-7.27-7.36-7.27a7.32 7.32 0 0 0-7.37 7.27c0 4.02 3.3 7.28 7.37 7.28z" fill="#422777"/><path fill-rule="evenodd" d="M30.5 25.08a6.4 6.4 0 0 0 6.45-6.35 6.4 6.4 0 0 0-6.44-6.35 6.4 6.4 0 0 0-6.45 6.35 6.4 6.4 0 0 0 6.45 6.35zm0 .3a6.7 6.7 0 0 0 6.75-6.65 6.7 6.7 0 0 0-6.74-6.65 6.7 6.7 0 0 0-6.75 6.65 6.7 6.7 0 0 0 6.75 6.65z" fill="#422777"/><path fill-rule="evenodd" d="M30.5 24.46c3.21 0 5.8-2.57 5.8-5.72 0-3.16-2.59-5.72-5.8-5.72-3.2 0-5.8 2.56-5.8 5.72 0 3.15 2.6 5.72 5.8 5.72zm0 .3c3.37 0 6.1-2.7 6.1-6.02a6.06 6.06 0 0 0-6.1-6.02c-3.36 0-6.1 2.7-6.1 6.02a6.06 6.06 0 0 0 6.1 6.02z" fill="#422777"/><path fill-rule="evenodd" d="M30.5 23.8a5.12 5.12 0 0 0 5.16-5.08c0-2.8-2.3-5.08-5.15-5.08a5.12 5.12 0 0 0-5.16 5.08c0 2.8 2.3 5.08 5.16 5.08zm0 .3c3.02 0 5.46-2.4 5.46-5.38a5.42 5.42 0 0 0-5.45-5.38 5.42 5.42 0 0 0-5.46 5.38 5.42 5.42 0 0 0 5.46 5.38z" fill="#422777"/><path fill-rule="evenodd" d="M30.5 23.07a4.42 4.42 0 0 0 4.45-4.39 4.42 4.42 0 0 0-4.44-4.38 4.42 4.42 0 0 0-4.45 4.38 4.42 4.42 0 0 0 4.45 4.39zm0 .3c2.63 0 4.75-2.1 4.75-4.69A4.72 4.72 0 0 0 30.51 14a4.72 4.72 0 0 0-4.75 4.68 4.72 4.72 0 0 0 4.75 4.69z" fill="#422777"/><path fill-rule="evenodd" d="M30.5 14.8a3.92 3.92 0 0 0 0 7.85h.11V14.8h-.1zm-.73 1.28c-1.24 0-2.25 1-2.25 2.25v.97c0 1.24 1 2.25 2.25 2.25v-5.47z"/><path d="M31 14.8a4.4 4.4 0 0 1 3.1 2.56h-.96a2.5 2.5 0 0 0-1.33-1.38v2.45h2.51c-.13 3.25-2.27 4.14-3.32 4.22v-2.04h.8v1a3.33 3.33 0 0 0 1.55-2.34h-1.54c-.64-.04-.8-.5-.81-.74V14.8z"/><path d="M22.44 26.4V21.4c1.05 4.3 5.46 5.94 7.26 6.16-3.25-.17-6.38-.9-7.26-1.18z" fill="#422777"/><path fill-rule="evenodd" d="M44 34H12v9h32v-9zm-23.03 1h-7.9c-.2 0-.44.01-.4.56.04.54.54.3.78.12h2.03v4.9h1.98V39.2c2.93-.75 4.28-1.8 4.35-2.97.05-.94-.53-1.22-.84-1.24zm-3.53.64v2.97c1.62-.61 2.61-1.41 2.63-2.2.01-.63-.54-.77-.82-.77h-1.8zm4.75.88h2.6c.37.03 1.16.45 1.37 1.9l.1 1c.02.16.15.48.5.48H27v.54h-2.68l-.15-.7c-.33.27-1.26.8-2.34.8-1.34 0-1.5-.86-1.5-1.12 0-.4.05-1.09 1.95-2.34-.23.08-.62.17-.62-.08 0-.48.45-.48.52-.48zm-.09 2.55c.1-.42.54-1.85 1.8-1.9.22-.01.65.08.6.6-.06.64-.6 1.61-1.9 1.94-.35.08-.62-.16-.5-.64zm13.56-2.52H32.35c-.58 0-.58.85-.58.85.58-.32.97-.3 1.24-.29h.14c-1.9 1.25-1.96 1.95-1.96 2.34 0 .26.17 1.13 1.51 1.13 1.08 0 2.01-.53 2.34-.8l.15.7h3.72v-.55h-1.3c-.33 0-.47-.32-.49-.48l-.1-1c-.2-1.45-1-1.87-1.36-1.9zm-.9.65c-1.26.05-1.7 1.48-1.8 1.9-.12.48.15.73.5.64 1.3-.33 1.84-1.3 1.9-1.94.05-.51-.38-.61-.6-.6zm-3.84-.65h-4.8c-.45.23-.19.68 0 .88.68-.66 1.2-.06 1.2.34v2.71H29v-2.96c.04-.32.35-.38.5-.37.83 0 .57 1.02.34 1.53l1.44-.24c.83-1.35.1-1.82-.36-1.89zm10.84-.1h-4.73c-.2.05-.54.26-.23.75.1.05.37.1.6-.1.04.06.1.23 0 .45-.13.28-.15.84.11 1.25.26.4 1.03.71 2.18 1.17l.12.05c1.19.48.85 1.33-.9 1.4-1.39.04-4.96-.4-6.56-.64v1.05c1.35.08 4.55.17 6.57.17 2.5 0 3.36-.96 3.4-1.98.05-1.01-.82-1.5-2.11-1.74-1.03-.2-1.2-.65-1.15-.86.03-.17.39-.48 1.6-.32.32.06 1.05.32 1.37.8h.3v-.95c-.04-.16-.2-.5-.57-.5z" fill="#422777"/></svg>