<svg xmlns="http://www.w3.org/2000/svg" width="56" height="56"><path fill="#F0F3FA" d="M0 0h56v56H0z"/><path d="M15 14.2v8.18c8.94 2.66 9.6 1.3 9.6.15-.22-3.18-4.76-7.37-7.23-9.23-1.03-.77-2.37.11-2.37.9zm11.51 8.2c-2.77-4.94-5.97-8.3-7.22-9.36h1.38a39.92 39.92 0 015.84 9.35z" fill="#028AC6"/><path fill-rule="evenodd" d="M22.88 13h10.18c1.14 0 3.32.35 5.48 1.75-1.35 1.23-4.8 4.5-7.72 7.7-.27.3-.72.53-1.2.53-.6 0-1.12-.32-1.44-.87L22.88 13zm5.75 2.36c.4 0 1.05.42.98 1.56-.1 1.43-.66 1.55-.82 1.58-.16.02-.54-.12-.73-.59 0-.44-.09-.8-.3-1.25-.06-.37.07-1.3.87-1.3z" fill="#085AA6"/><path fill-rule="evenodd" d="M40 15.8c3.53 2.7 8.68 10.24 1.05 18.69-.53-1.28-1.96-4.22-3.48-5.72-1.97-1.94-1.97-3.34-1.97-4.06 0-.44.2-1.41.77-2.5.27-.5.72-1.23 1.23-2.04.96-1.53 2.09-3.35 2.4-4.38zm1.71 5.94c.25.52.11 1.64-1.46 2.26-1.96.77-2.47.1-2.6-.1-.14-.19-.2-.78.3-1.33.6-.28 1.02-.61 1.48-1.16.46-.32 1.78-.72 2.28.33z" fill="#C22A1F"/><path d="M15.06 24.9c.66.71 2.56 2.27 4.84 2.84 2.85.71 4.66 1.28 4.72 2.93.03.72-.57 2.34-1.3 4.31-.58 1.61-1.26 3.46-1.75 5.23l-.01.04c-.11.4-.4 1.41-.4 2.75h-4.8c-.4.03-1.3-.3-1.3-1.85V31.08l.3.17c1.24.61 2.61.4 3.06-.47.45-.88-.2-2.1-1.44-2.7a3.08 3.08 0 00-1.92-.31V24.9z" fill="#F9B516"/><path d="M26.23 37.93c-1.44 3.23-2.8 4.68-3.3 5h4.26c1.45 0 1.9-.82 1.9-1.36v-3.23c.06-1.09.87-1.42 1.26-1.44h5.73a6.27 6.27 0 002.63-.59c-.68-.4-2.38-2.33-3.4-3.77-.38-.53-1.58-1.88-3.35-1.88-2.27 0-3.92 3.23-5.73 7.27z" fill="#A1D008"/></svg>