<svg width="56" height="56" viewBox="0 0 56 56" xmlns="http://www.w3.org/2000/svg"><path fill="#147BBF" d="M0 0h56v56H0z"/><path d="M28 37.61v2h.07c.46 0 .93-.25.93-.5v-.9c0-.36-.47-.6-1-.6ZM20 37.61v2h.07c.46 0 .93-.25.93-.5v-.9c-.13-.36-.53-.6-1-.6Z" fill="#fff"/><path d="M40 12H16v32h24V12Zm-22 2h20v20H18V14Zm5 25.36c0 .48-.57 1.02-1.3 1.02H20V43h-2v-6h3.57c.74 0 1.43.31 1.43.85v1.51Zm8 0c0 .48-.5 1.02-1.23 1.02H28V43h-2v-6h3.65c.73 0 1.35.31 1.35.85v1.51ZM39 43h-4v-6h2v5h2v1Z" fill="#fff"/><path d="M32.35 25.5c2.08-.9 3.43-3.07 3.24-5.79a5.66 5.66 0 0 0-3.43-4.88 5.5 5.5 0 0 0-4.59.24c-1.84.9-3 2.84-3.67 5.07-.8 2.59-1.33 6.38-3.9 7.29v1.99c2.76 0 4.88-4.28 5.3-6.45.31-1.39.74-4.4 1.84-5.43a4.13 4.13 0 0 1 3.92-.9c2.57.72 2.51 3.74 1.6 5.42-.86 1.51-2.09 2.23-4.1 1.75 0-.42 0-.84.05-1.26 1.6.6 3.43-.43 3.37-2.53 0-.97-.49-1.93-1.35-2.3-1.77-.84-3 .3-3.67 2-.67 1.56-.67 3.49-1.1 5.18-.06 1.32-1.17 2.95-2.2 3.8 4.16.84 7.9 2.16 11.63-1.15 0-.85.06-1.75.06-2.53-1.1 2.05-6.06 3.8-7.96 2.29.3-.49.61-.9.73-1.39 1.53.06 3.06.12 4.23-.42Zm-2.7-5.79c.43 0 .68.3.68.67 0 .42-.3.66-.68.66a.64.64 0 0 1-.67-.66c0-.36.24-.67.67-.67Z" fill="#fff"/><path d="M27.24 30.5c-2.65-.24-4.66-.6-7.24.72v2c1.7-1.15 4.6-.97 7.68-.67 2.58.24 4.9.18 7.93-1.63 0-.72-.06-1.5-.06-2.23-2.2 2-5.42 2.05-8.31 1.81Z" fill="#fff"/></svg>