<svg width="56" height="56" viewBox="0 0 56 56" xmlns="http://www.w3.org/2000/svg"><path fill="#F0F3FA" d="M0 0h56v56H0z"/><path d="M14 18.42h-4V16h11v2.42h-4V28h-3v-9.58ZM22 16h3v4.57h5V16h3v12h-3v-5h-5v5h-3V16Zm13 0h10v2.35h-7v2.28h6V23h-6v2.66h7V28H35V16ZM16.53 34.42c1.5 0 2.5-.77 2.5-1.96v-.04c0-1.26-1-1.93-2.43-1.93h-2.26v3.9l2.19.03ZM13.73 30h2.94c1.8 0 3.01.91 3.01 2.42v.04c0 1.68-1.47 2.54-3.15 2.54h-2.16v3h-.57v-8h-.07Zm8.6 3.97 1.55-3.37 1.83 3.96h-3.66l.29-.6ZM24.2 30h-.54l-3.76 8h.57l1-2.24.33-.7h4.12l.32.7 1 2.24h.65l-3.69-8Zm8.9 4.14c1.32 0 2.36-.66 2.36-1.82v-.04c0-1.09-.86-1.75-2.33-1.75h-2.76v3.58l2.72.03ZM29.75 30h3.4c1.01 0 1.8.32 2.27.77.39.39.6.91.6 1.48v.03c0 1.51-1 2.1-2.36 2.28L36.32 38h-.75l-2.58-3.33h-2.62V38h-.57l-.04-8ZM45 38l-5.16-3.85 4.9-4.15h-.7l-4.81 4.01V30h-.58v8h.58v-3.57L44.07 38H45Zm-31.27 2h.68v1.1h1.26V40h.68v3h-.68v-1.3H14.4V43h-.68v-3Zm5.06 1.77c0-.35-.26-.63-.61-.63-.4 0-.61.32-.61.63 0 .35.25.63.6.63.36 0 .62-.28.62-.63Zm-1.9 0c0-.67.53-1.23 1.29-1.23.75 0 1.29.53 1.29 1.23 0 .67-.54 1.23-1.3 1.23-.78-.04-1.28-.56-1.28-1.23Zm3.12.5v-1.13h-.3v-.53h.3V40h.64v.61h.54v.56h-.54v.99c0 .14.07.24.22.24.14 0 .25-.03.35-.07v.53c-.14.07-.32.14-.5.14-.43-.04-.71-.21-.71-.74Zm3.22-.67c-.03-.32-.21-.5-.46-.5s-.43.21-.5.5h.96Zm-1.65.17c0-.67.47-1.23 1.19-1.23.79 0 1.14.6 1.14 1.27v.17h-1.65c.08.32.3.42.58.42.25 0 .4-.07.57-.24l.4.35c-.22.28-.54.42-.97.42-.72.03-1.26-.42-1.26-1.16ZM24.42 40h.64v3h-.64l.07-1.26v-.95l-.07-.79Zm1.1 2.58.3-.42c.25.17.5.28.75.28.21 0 .28-.07.28-.18 0-.14-.25-.2-.46-.28-.36-.1-.72-.24-.72-.7 0-.46.4-.74.86-.74.32 0 .61.1.9.28l-.29.46a1.38 1.38 0 0 0-.64-.21c-.18 0-.26.07-.26.17 0 .14.26.22.47.29.36.1.72.28.72.66 0 .5-.4.74-.9.74-.32.03-.68-.07-1-.35Z"/></svg>