<svg width="56" height="56" viewBox="0 0 56 56" xmlns="http://www.w3.org/2000/svg"><path fill="#F0F3FA" d="M0 0h56v56H0z"/><path d="M4 31v-5.45c.06-.85.63-2.55 2.46-2.55C8.76 23 9 25.44 9 26.07c0 .62-.5 2.53-2.6 2.53V26.5c.22-.02.68-.17.68-.68 0-.17-.12-.5-.49-.5-.46 0-.59.51-.59.7V31H4Zm8.52 0v-3c-.03-.28-.22-.82-.75-.82s-.69.54-.7.82c-.02.28.1.84.7.84.22 0 .22-.06.22-.11l.01-.05v2.29c-1.08.16-3-.2-3-3.04.03-.98.64-2.93 2.77-2.93s2.7 2.2 2.73 3.3V31h-1.98ZM37 27.95V31h1.96v-2.75c-.02-1.08-.58-3.25-2.66-3.25s-2.66 1.92-2.7 2.88c0 2.8 2.1 3.16 3.16 3v-2.25c-.03.05-.17.15-.46.15-.58 0-.7-.55-.68-.83.01-.27.17-.8.68-.8.52 0 .67.53.7.8Zm-18.5-.93v-2a2.07 2.07 0 0 0-1.5.37v-.37h-2V31h2v-3.5a1.24 1.24 0 0 1 1.5-.48ZM23 27v-2h-2.04c-.95 0-1.96.42-1.96 1.63 0 .95.73 1.42 1.23 1.74.14.09.26.17.34.24.3.27-.04.35-.25.4H19V31h2.35c.85 0 1.65-.34 1.65-1.64 0-1.07-.62-1.49-1.08-1.8-.1-.07-.2-.13-.27-.2-.33-.27-.15-.32-.01-.35H23Zm29-2v2h-1.35c-.15.04-.34.09 0 .36.07.07.17.13.27.2.46.31 1.08.73 1.08 1.8 0 1.3-.8 1.64-1.65 1.64H48v-2h1.32c.21-.04.56-.12.25-.39-.08-.07-.2-.15-.34-.24-.5-.32-1.23-.79-1.23-1.74 0-1.21 1-1.63 1.96-1.63H52Zm-27.57 4.52L23.5 25h1.97l.48 3.44.57-3.44h1.98l-1 4.52c-.12.49-.62 1.48-1.6 1.48-1 0-1.4-.99-1.47-1.48ZM28.5 31v-3.67c0-1.29.95-2.33 2.12-2.33h.26c1.17 0 2.12 1.04 2.12 2.33V31h-2v-3.61c0-.21-.08-.39-.27-.39-.2 0-.23.18-.23.39V31h-2Zm11-7v5.44c0 .86.7 1.56 1.56 1.56h1.44v-2h-.55c-.31 0-.45-.2-.45-.52V27h1.03v-2H41.5v-1h-2Zm3.5-1h2v2.24c.21-.14.5-.24.84-.24.96 0 1.66.89 1.66 1.85V31h-2V27.47c0-.2-.01-.47-.22-.47-.2 0-.24.26-.28.47V31h-2v-8Z" fill="#F21C2B"/></svg>