<svg xmlns="http://www.w3.org/2000/svg" width="56" height="56"><path fill="#F0F3FA" d="M0 0h56v56H0z"/><rect x="4" y="22" width="48" height="13" rx="6.5" fill="#55A353"/><path d="M21.1 26h3.2l-.7 1H23v3.35c0 .64.51 1.15 1.15 1.15.32 0 .62-.11.85-.3V27h-.7l.7-1h3.4l-.7 1H27v6h-2v-.93c-.6.58-1.4.93-2.3.93a1.7 1.7 0 01-1.7-1.7V27h-.7l.8-1zm24.14-1l.7-1h2.5l-.7 1h-2.5zM35.2 26h-5.5l-.7 1h1.11a3.01 3.01 0 00-1.57 2.64c0 1.91 1.44 3.46 3.2 3.46a3.28 3.28 0 003.15-2.85h-.39c-.32.5-1.16.82-1.8.82-1 0-1.8-.77-1.8-1.73 0-.95.8-1.73 1.8-1.73.87 0 1.3.86 1.3.86h.31v-.89a2.7 2.7 0 00-.53-.58h.72l.7-1zm.8-4h2v5s1-1 1.5-1h4.2l-.7 1h-1c.5 0 1 .64 1 1v5h-2v-4.5a1.5 1.5 0 00-3 0V33h-2V22zm8.7 4l-.7 1h1v6h2v-6h.8l.7-1h-3.8z" fill="#F0F3FA"/><path fill-rule="evenodd" d="M16 24H9.5l-1 1.5H11V33h2v-3h.26l4.88 6h2.58l-4.85-5.96-.03-.04H16a3 3 0 100-6zm-1 1.5h-2v3h2a1.5 1.5 0 000-3z" fill="#F0F3FA"/></svg>