<svg xmlns="http://www.w3.org/2000/svg" width="56" height="56" viewBox="0 0 56 56"><path fill="#F0F3FA" d="M0 0h56v56H0z"/><path fill-rule="evenodd" d="M32 20v19.15a.5.5 0 0 1-.86.34l-3.02-3.18a1 1 0 0 0-.73-.31H7a1 1 0 0 1-1-1V20a1 1 0 0 1 1-1h24a1 1 0 0 1 1 1zM9 27.5a3.5 3.5 0 1 1 7 0v1a3.5 3.5 0 1 1-7 0v-1zm2-.18a1.5 1.5 0 0 1 3 0v1.36a1.5 1.5 0 0 1-3 0v-1.36zM18.8 24h-1.6a.2.2 0 0 0-.2.2v7.6c0 .11.09.2.2.2h1.6a.2.2 0 0 0 .2-.2v-5.45c.18-.15.66-.46 1.25-.49.58-.03.74.48.75.74v5.2c0 .11.08.2.2.2h1.6a.2.2 0 0 0 .2-.2v-5.2c0-1.53-.67-2.6-2.1-2.6-1.13 0-1.69.5-1.9.76v-.56a.2.2 0 0 0-.2-.2zm8.45 0A3.25 3.25 0 0 0 24 27.25v1.5a3.25 3.25 0 0 0 3.45 3.24c.67-.01 1.7-.18 2.42-.42a.2.2 0 0 0 .13-.18v-1.01a.2.2 0 0 0-.2-.2H27.23A1.25 1.25 0 0 1 26 28.93v-.43h4.3a.2.2 0 0 0 .2-.2v-1.05c0-1.8-1.45-3.25-3.25-3.25zm0 1.82c.67 0 1.21.52 1.25 1.18H26c.04-.66.58-1.18 1.25-1.18z" fill="#02A3EE"/><path fill-rule="evenodd" d="M33 39.15V20a1 1 0 0 1 1-1h15a1 1 0 0 1 1 1v15a1 1 0 0 1-1 1H37.6a1 1 0 0 0-.72.31l-3.02 3.18a.5.5 0 0 1-.86-.34zm2-8.85a.2.2 0 0 1 .24-.2c.38.07.96.15 1.52.13.86-.03 1.27-.23 1.24-1.18-1.2.3-3.5.3-3.5-2.12 0-2.82 2.33-2.9 2.78-2.93h.05c.87-.03 2.63.5 2.67 2.8v2.75c-.04.79-.64 2.38-2.75 2.45-.56 0-1.64-.07-2.16-.36a.18.18 0 0 1-.09-.16V30.3zm3-2.7V26.3a.67.67 0 0 0-.7-.59c-.63-.01-.84.53-.8.94v.47c0 .16.19.5.8.5h.7zm3.2-3.6h4.6c.11 0 .2.09.2.2v1.32a.2.2 0 0 1-.02.08l-2.7 6.28a.2.2 0 0 1-.2.12H41.3a.2.2 0 0 1-.18-.28L43.6 26H41.2a.2.2 0 0 1-.2-.2v-1.6c0-.11.09-.2.2-.2z" fill="#574093"/></svg>