<svg xmlns="http://www.w3.org/2000/svg" width="56" height="56"><path fill="url(#a40qqe4ha)" d="M0 0h56v56H0z"/><path fill-rule="evenodd" d="M28.32 10.5c-1.16 1.45-1.13 2.75-.78 3.1.26.08.48-.05.67-.16l.07-.04a9.56 9.56 0 001.95-1.57c.76-1.06 1.59-1.1 2.01-1.12.43-.02 1.12.25 1.06.99-.06.74-.28 1.02-1.8 2.3-1.52 1.3-5.73 2.11-7.93 2.52-2.96.87-3.46 3.09-3.54 4.1-.06.82.11 2 .2 2.47.02.8-.86 2.2-1.3 2.8-.1.15-.29.53-.3.8a.96.96 0 00.12.53c.17.2.51.73.54 1.17.02.43-.35.92-.54 1.1-.4.18-1.29 1.37-1.7 4.76a7.05 7.05 0 002.61 6.43c.44.34 1.32 1.22 1.32 1.95 0 .8.16 1.01.36 1.27l.1.12c.24.32.4.38 2.9.43 2.33.05 2.44 1.83 2.49 2.62l.01.15c.04.54.43.73.62.76h.86c.2 0 .63-.08.67-.4.05-.41 1-.9 1.4-.17.32.59.69.63.83.57a3.19 3.19 0 002.69-2.87c.02-.27-.24-.84-.38-1.1l-1.45-1.8c-.24-.31-.26-.91-.24-1.18.13-3.08.54-4.94.73-5.48 1.45-.68 3.09-2.2 3.09-3.34 0-.91-.65-1.66-.97-1.92L32 27.84c-.43-.27-.91-1.38 0-2.09s1.99-1.57 1.99-2.06c0-.47-.7-.56-.94-.6h-.18c-.24-.01-.6-.02-.63-.32-.02-.3.33-.51.51-.57 4.22-2.42 5.2-4.32 5.25-4.73.04-.32-.27-.28-.44-.21-.45.34-1.47 1.02-1.9.97-.43-.04-.3-.52-.2-.76a8.69 8.69 0 001.4-4.58C36.42 8.65 33.6 8 32.77 8a6.7 6.7 0 00-4.44 2.5zm2.85 10.04c-.84.36-.93.75-.87.9.27.72 1.14.4 1.53.15 1.1-.58 3.24-1.84 3.13-2.21-.11-.37-.55-.29-.76-.2a150.14 150.14 0 01-3.03 1.36zM26 21a1 1 0 100-2 1 1 0 000 2zm-.07 14.57c-.37.45-.9.63-1.17.4-.28-.22-.2-.77.18-1.22.38-.46.9-.64 1.18-.41.27.22.19.78-.19 1.23zm-5.2-10.33c-.05-.2.44-.65 2.75-.8 2.32-.14 2.8.27 2.8.66s-.63 1.48-2.46 1.69c-1.7.2-3.1-1.24-3.1-1.55z" fill="#fff"/><defs><linearGradient id="a40qqe4ha" x1="10.42" y1="9.71" x2="68.15" y2="76.02" gradientUnits="userSpaceOnUse"><stop stop-color="#1A1E21"/><stop offset="1" stop-color="#06060A"/></linearGradient></defs></svg>