<svg xmlns="http://www.w3.org/2000/svg" width="56" height="56"><path fill="#99CDD1" d="M0 0h56v56H0z"/><path d="M28 10.42c-.22.67-1.08 1.17-2.02 1.7-1.62.94-3.46 2-2.7 4.3-1.08-2.16-3.19-1.59-5.03-1.1-1.07.3-2.05.56-2.68.25.31.63.06 1.59-.22 2.64-.49 1.8-1.04 3.86 1.13 4.94-2.3-.77-3.38 1.13-4.33 2.78-.56.97-1.06 1.85-1.73 2.07.67.22 1.17 1.08 1.7 2.02.94 1.62 2 3.46 4.3 2.7-2.16 1.08-1.59 3.19-1.1 5.03.3 1.07.56 2.05.25 2.68.63-.31 1.59-.06 2.64.23 1.8.48 3.85 1.03 4.94-1.14-.76 2.3 1.13 3.39 2.78 4.33.97.56 1.85 1.06 2.07 1.73.22-.67 1.08-1.17 2.02-1.7 1.62-.94 3.46-2 2.7-4.3 1.08 2.16 3.19 1.59 5.03 1.1 1.07-.3 2.05-.56 2.68-.25-.31-.63-.06-1.59.22-2.64.48-1.8 1.04-3.86-1.13-4.94 2.3.77 3.38-1.13 4.33-2.78.55-.97 1.06-1.85 1.73-2.07-.67-.22-1.18-1.1-1.73-2.07-.95-1.65-2.03-3.55-4.33-2.78 2.17-1.08 1.61-3.14 1.13-4.94-.28-1.05-.53-2.01-.22-2.64-.63.31-1.61.05-2.68-.24-1.84-.5-3.95-1.07-5.04 1.1.77-2.3-1.07-3.37-2.69-4.3-.94-.54-1.8-1.04-2.02-1.71z" fill="#F0F3FA"/><path fill-rule="evenodd" d="M17.09 24.36v8.49h.71a.5.5 0 00.5-.5v-1.93h2.43a3.03 3.03 0 000-6.06h-3.64zm1.21 1.22v3.63h2.43a1.82 1.82 0 100-3.63H18.3z" fill="#5A0522"/><path d="M31.98 31.1c-.26-.22-.65-.18-.92.04a3.33 3.33 0 11-.3-5.3l.38-.37c.26-.26.23-.7-.1-.87a4.55 4.55 0 101.37 6.89l-.43-.39zm2.69 2.05c-.88 0-1.7-.26-2.37-.72l.55-.55a.7.7 0 01.75-.13 3.02 3.02 0 004.1-2.84v-3.33h-3.03a.6.6 0 01-.6-.61v-.6h4.84v4.54c0 2.34-1.9 4.24-4.24 4.24z" fill="#5A0522"/><path d="M32.17 26.79c.5.48.83 1.12.84 1.83 0 .64-.34 1.05-.34 1.05a2.04 2.04 0 001.2-1.88c-.27.04-.66.24-.66.24 0-.1-.03-.24-.08-.33.35-.2.7-.3 1.1-.3a3.09 3.09 0 01-.13 1.22c-.26.71-.99 1.33-1.78 1.33 0 0 .4-.54.39-1.33 0-.42-.18-.89-.54-1.3-.35.41-.47.88-.47 1.3-.01.9.33 1.33.33 1.33-.78 0-1.5-.69-1.75-1.35a2.84 2.84 0 01-.13-1.22c.4 0 .76.1 1.1.3-.04.09-.07.23-.08.32 0 0-.39-.2-.65-.23.02.78.41 1.5 1.1 1.83 0 0-.22-.39-.22-.98 0-.7.28-1.34.77-1.83z" fill="#EF4C7F"/><path d="M32.42 30.01c1.04.3 1.82.22 2.51-.75a1.61 1.61 0 00-.83-.2s.04-.04.1-.15c.07-.1.08-.2.08-.2.4.04.76.15 1.16.46a2.31 2.31 0 01-1.86 1.25c-.45.03-.86-.06-1.16-.4zm-.48 0c-.3.35-.67.44-1.1.4a2.31 2.31 0 01-1.87-1.24c.4-.31.73-.42 1.14-.46 0 0 0 .1.07.2.06.11.1.15.1.15-.31 0-.53.05-.8.2.68.96 1.55 1.04 2.46.75z" fill="#EF4C7F"/></svg>