<svg width="56" height="56" viewBox="0 0 56 56" xmlns="http://www.w3.org/2000/svg"><path fill="#CE0E2D" d="M0 0h56v56H0z"/><path d="M29 11.03a17.26 17.26 0 0 0-2 0v33.94a17.26 17.26 0 0 0 2 0v-2.3l2.72 1.92c.77-.17 1.53-.4 2.26-.67L29 40.4v-2.07l6.78 4.79a17 17 0 0 0 1.78-1.06L29 36.01v-2.07L38.97 41c.78-.67 1.5-1.4 2.16-2.2h-2.39l-2.83-2h6.64c.3-.47.56-.97.8-1.49H33.8l-2.83-2h13.19c.19-.58.35-1.19.48-1.8H29v-2h15.93a17.22 17.22 0 0 0 .06-2H29v-2h15.82a16.9 16.9 0 0 0-.42-2H29.75l2.83-2H43.7c-.28-.7-.61-1.36-.98-2H35.4l2.83-2h3.13a17.1 17.1 0 0 0-2.67-2.71L29 21.64v-2.07l8.25-5.83c-.58-.38-1.19-.73-1.82-1.03L29 17.25v-2.07l4.58-3.24c-.75-.26-1.53-.47-2.32-.63L29 12.91v-1.88Zm-4 33.7V11.27c-.68.13-1.35.29-2 .49v32.5c.65.2 1.32.36 2 .49Zm-4-1.23v-31c-.7.32-1.36.68-2 1.08v28.84c.64.4 1.3.76 2 1.08Zm-4-2.54V15.04a17.1 17.1 0 0 0-2 2v21.91c.61.73 1.28 1.4 2 2.01Zm-4-4.95V19.99a16.93 16.93 0 0 0 0 16.02Z" fill="#fff"/></svg>