<svg width="56" height="56" viewBox="0 0 56 56" xmlns="http://www.w3.org/2000/svg"><path fill="#4E4B54" d="M0 0h56v56H0z"/><path d="M37.4 16.82a4.7 4.7 0 0 0-3.14-1.02c-1.2.03-2.22.43-3.06 1.19a4.83 4.83 0 0 0-1.37 2.09 8.97 8.97 0 0 0-.24 2.39c0 .67-.03 1.68-.07 3.02l-.06 2.43c-.03 2.75-.1 5.17-.2 7.24a10.18 10.18 0 0 1-.66 3.34 8.64 8.64 0 0 1-4.62 4.76c-.96.43-1.94.67-2.94.72a8.47 8.47 0 0 1-6.39-2.2 8.13 8.13 0 0 1-1.64-2.16 8.22 8.22 0 0 1-.96-3.07c-.6-5.48 3.73-8.81 8.81-9.2 1.75-.13 3.39-.2 4.93-.23.11 0 .21.05.21.17v1.61c0 .08-.08.1-.16.1h-5.76c-3.53.01-6.51 1.83-7.27 5.37a6.1 6.1 0 0 0 .1 2.94 7.2 7.2 0 0 0 5.11 4.97c1.52.38 3 .29 4.42-.28a7.02 7.02 0 0 0 3.74-3.27c.52-.97.77-2.13.77-3.49-.02-6.88-.06-11.38-.1-13.48a7.29 7.29 0 0 1 3.68-6.73 7.8 7.8 0 0 1 9.44 1.33 7.14 7.14 0 0 1 1.88 3.59 7.13 7.13 0 0 1-.34 4.04c-1.07 2.8-3.84 4.95-6.83 5.01h-4.14c-.06 0-.1-.1-.1-.16v-1.97c0-.09.06-.14.15-.14l2.59-.06c2.69-.05 5.35-1.25 5.95-4.2a4.62 4.62 0 0 0-1.72-4.65Z" fill="#FE5F07"/></svg>