<svg width="56" height="56" xmlns="http://www.w3.org/2000/svg"><path fill="#F0F3FA" d="M0 0h56v56H0z"/><path d="M44 28c0 8.813-7.188 16-16 16-8.813 0-16-7.188-16-16h32z" fill="#2E2771"/><path d="M28 12c8.811 0 16 7.188 16 16H12c0-8.813 7.189-16 16-16z" fill="#E20613"/><path d="M12.281 30.999h4.277c.618-.01 1.108-.268 1.432-.634l14.688-14.51c.559-.698 1.259-.87 1.924-.858h2.701c.978.719 1.444 1.127 2.297 2.003h-4.133c-.447.021-1.366.746-1.61 1.017L19.222 32.304c-.585.496-.97.722-1.555.73l-4.87-.03a15.57 15.57 0 01-.515-2.005zM16.395 39h5.3c.619-.01 1.072-.265 1.432-.676l14.628-14.466c.56-.699 1.259-.872 1.924-.86h3.516c.25.775.387 1.283.52 2.002H40.54c-.448.021-1.366.707-1.608.98L24.235 40.268c-.586.497-.97.722-1.554.73h-3.997c-.782-.585-1.465-1.116-2.29-1.999z" fill="#E3E3E3"/><path d="M13.617 35h5.505c.617-.011 1.04-.223 1.431-.629l14.648-14.519c.56-.698 1.259-.866 1.923-.852h4.09c.51.74.785 1.239 1.169 2.004h-4.356c-.447.02-1.366.73-1.61 1.002l-14.7 14.254c-.585.496-.97.731-1.554.74h-5.378a14.317 14.317 0 01-1.168-2z" fill="#E3E3E3"/></svg>