<svg width="56" height="56" viewBox="0 0 56 56" xmlns="http://www.w3.org/2000/svg"><path fill="#CC092F" d="M0 0h56v56H0z"/><path fill-rule="evenodd" d="M41.16 39.81c-5.95 6.76-16.66 6.94-23.92.41-7.27-6.52-8.34-17.28-2.4-24.03 5.95-6.76 16.66-6.94 23.92-.41 7.27 6.52 8.34 17.28 2.4 24.03Zm-4.36-.3c-7.47-.4-13.5.24-15.92.5l-.33.04c1.2 1.02 4.4 3.03 7.57 2.9 3.94-.18 6.54-1.49 8.68-3.44Zm-8.58 4.12c-1.99.3-4.2-.3-5.05-.63a11.1 11.1 0 0 0 5.05 1.31c13.92 0 16.53-10.86 16.1-16.3-.9-11.3-11.68-15.94-16.28-15.96-13.98 0-15.96 12.13-15.96 15.42 0 2.63 1.1 5.42 1.66 6.49a17.56 17.56 0 0 1-.9-8.77c2.1-10.78 10.43-12.77 14.34-12.42 12.85 1.05 16.38 11.48 16.53 16.66 0 11.96-10.2 14.92-15.49 14.2Zm2.63-.26c3.47-.88 10.53-4.67 10.99-12.74a15.97 15.97 0 0 0-7.87-14.62C32.05 14.88 27 13.06 22.1 14.8a13.68 13.68 0 0 0-7.7 6.81c.87-3.13 4.95-9.11 14.29-7.94 11.66 1.48 14.42 12.98 14.35 16.07-.07 3.08-.69 12.12-12.2 13.64Zm-10.98-3.88c1.41-.22 5.07-.67 8.43-.67 3.37 0 4.25-.05 4.27-.07a26.2 26.2 0 0 0-6.22-.5c-3.99.07-7.28.12-7.23-.32.05-.44 1.15-1.24 6.3-1.19 4.1.04 6.35.28 6.97.4-.54-2.54-1.98-7.98-3.5-9.45-.98 1.83-3.19 6.12-4.16 8.64a.34.34 0 0 1-.32.19c-.24 0-.3-.18-.27-.38.02-.2 1.71-8.97 2.82-10.46a6.3 6.3 0 0 0-1.74-1.02c-.77.45-2.52 1.42-3.38 1.69-1.08.33-1.52.28-1.67-.2-.16-.5.77-1.61 2.2-2.12 1.14-.4 2.43-.3 2.93-.19.67-.4 2.11-1.31 2.48-1.68-.48-.3-1.43-1.17-1.43-2.33 0-1.44.73-2.38 2.1-2.32 1.38.07 2.33 2.04.54 4.28.3.14 1.24.4 2.69.33.67-.96 2.3-2.87 3.48-2.89.2 0 .61.15.61.72 0 .7-1.37 2.27-3.73 2.89l-1.51 2.18c.73 1.71 2.26 6.52 2.48 12.12.02.17-.07.53-.62.57-2.37-.34-8.11-.79-12.2.1h6.83c.47 0 7.8.04 10.34 1.22a14.33 14.33 0 0 0 3.68-9.3c-.05-5.46-2.86-13.63-13.75-15.1-3.89-.61-12.1.83-13.82 11.51-.25 2.4.68 8.44 6.4 13.35Zm7.78-13.29c-.82 1.43-1.91 5.19-2.35 6.89.8-1.62 2.45-4.74 3.17-6.09-.2-.25-.63-.64-.82-.8Zm1.71.61.66-1c.44.94 1.38 3.5 1.65 6.26-1.05-3.3-1.97-4.88-2.3-5.26Zm-.43-.38-.9-1.02c.11-.27.44-.8.86-.8s.7.35.79.52l-.75 1.3Zm-4.46-1.95a4.2 4.2 0 0 0-2.44.43c-.89.46-1.3.86-1.18 1.07.1.22 1.3-.13 3.62-1.5Zm2.91.42a4.41 4.41 0 0 0-1.29-.76c1.1-.6 2.03-1.32 2.35-1.6.94.33 2.26.41 2.8.41l-1.06 1.49c-.48-.6-.7-.81-1.26-.8-.45 0-1.21.84-1.54 1.26Zm6.55-4.5c.6-.47.94-.71 1.14-.46.2.25-.66 1.1-.9 1.23l-.18.11c-.25.17-.67.45-1.6.76.32-.4 1.05-1.26 1.54-1.64ZM13.2 29.6c.23 2.35 2.34 8.1 9.03 12.24-7.58-3.66-9.18-9.69-9.03-12.24Zm13.88-9.94c0 1.28 1.1 1.8 1.31 1.89.33-.2.98-1.26.98-2.05 0-1.16-.71-1.39-1.06-1.36-.41-.03-1.23.22-1.23 1.52Z" fill="#fff"/></svg>