<svg width="56" height="56" viewBox="0 0 56 56" xmlns="http://www.w3.org/2000/svg"><path fill="#F0F3FA" d="M0 0h56v56H0z"/><path d="M37.82 36H36l2.37-7h2.26L43 36h-1.82l-1.65-5.24h-.06L37.82 36Zm-.24-2.75h3.81v1.28h-3.8v-1.28ZM29 36v-7h3.14c1.12 0 2.57.4 2.57 1.77 0 .82-.65 1.37-1.41 1.52v.07c.93.04 1.7.73 1.7 1.68 0 1.4-1.42 1.96-2.62 1.96H29Zm1.5-1.5h1.64c.8 0 1.16-.16 1.16-.65 0-.62-.58-.88-1.12-.88H30.5v1.53Zm0-2.5h1.48c.48 0 1.02-.35 1.02-.9 0-.47-.38-.6-1-.6h-1.5V32ZM28 32.5c0 2.04-1.46 3.5-3.5 3.5a3.37 3.37 0 0 1-3.5-3.5c0-2.04 1.46-3.5 3.5-3.5s3.5 1.46 3.5 3.5Zm-1.5 0c0-1.4-.83-2.06-2-2.06-1.18 0-2 .75-2 2.06s.82 2.06 2 2.06c1.17 0 2-.65 2-2.06ZM13.56 31.42c-.74-.63-1.48-.98-2.06-.98-1.16 0-2 .98-2 2.05 0 1.08.82 2.01 2 2.01.76 0 1.73-.13 2-1H12V32h3v1.08c0 1.83-1.78 2.92-3.51 2.92A3.35 3.35 0 0 1 8 32.51 3.38 3.38 0 0 1 11.47 29c1.4 0 2.65.6 3.22 1.92l-1.13.5Z" fill="#25418A"/><path d="M39 26v-7h1.5v5.5H44V26h-5Z" fill="#4A883F"/><path d="M16 36v-7h1.5v5.5H21V36h-5ZM44 36v-7h1.5v5.5H49V36h-5Z" fill="#25418A"/><path d="M32 26v-7h3.05c1.42 0 2.7.97 2.7 2.5 0 1.45-1.06 2.5-2.75 2.5h-1.93v-1.5h1.6c.62 0 1.38-.29 1.38-1 0-.7-.75-1-1.38-1H33.5V26H32Zm4.16-3.2L38 26h-1.95l-1.8-3.2h1.91ZM25.82 26H24l2.37-7h2.26L31 26h-1.82l-1.65-5.24h-.06L25.82 26Zm-.24-2.75h3.81v1.28h-3.8v-1.28ZM18 26v-7h5v1.5h-3.5V22h3.24v1H19.5v1.5H23V26h-5ZM28 36.68l-.48-.5a4.51 4.51 0 0 1-6.04-.09l-.48.5a5.18 5.18 0 0 0 7 .09Zm-.01-8.37a5.17 5.17 0 0 0-6.98.1l.48.49a4.52 4.52 0 0 1 6.02-.1l.48-.49ZM12 26v-7h2.66c1.4 0 2.34 1.12 2.34 2.5 0 1.4-.98 2.5-2.4 2.5h-1.63v-1.5h1.35c.64 0 1.07-.36 1.07-1s-.43-1-1.07-1h-.82V26H12Z" fill="#4A883F"/></svg>