<svg xmlns="http://www.w3.org/2000/svg" width="56" height="56"><path fill="#E31C17" d="M0 0h56v56H0z"/><path d="M29.77 28.4c-.38-1.3-.5-2.92-.47-3.53.4-1.95 1.78-1.47 2.42-.99.61-1.98-1.08-2.4-2-2.37a1.64 1.64 0 00-1.35-1c-.46.03-1.48.06-1.82 0a5.98 5.98 0 01-1.58-.88c-.36 0-.53.43-.58.65.18.23.65.77 1.16 1.06.52.3.5.78.44 1-.3 1.66 0 3.01.2 3.64v2.42c-.3.52-1.18 1.5-2.41 1.36-1.54-.19-2.16-1.78-2.12-3.18l.07-.9c.07-.88.13-1.49-.45-1.95-1.49-.81-4.47-2.98-4.47-5.19-.27.5-.65 1.9 0 3.55-.99-.54-3-2.02-3.12-3.55-.02-.19 0-.68.23-1.11.28-.55.23-1 0-1.53-.08-.18-.24-.4-.4-.63-.3-.41-.63-.87-.63-1.27a5.2 5.2 0 01-.73 2.15l-.26.28c-.42.43-.76.77-.8 3.12-.54-.15-1.69-.7-1.93-1.8a7.12 7.12 0 002.46 6.59c-.45.1-1.6.03-2.63-.98.03.8.7 2.87 3.16 4.68-.08.12-.6.36-1.99.36.14.71 1.02 2.39 3.52 3.39a4.8 4.8 0 01-1.53.19c.22.7 1.42 2.15 4.44 2.37-.01.15-.4.5-1.79.68.51 1.25 3.27 3.98 10.25 4.81-.23.55-1.32 1.66-3.78 1.73.21.64 1.94 2.14 3.16 2.17.38.01 1.46-.17 1.79-1.3a1.78 1.78 0 003.54 0c.33 1.13 1.41 1.31 1.8 1.3 1.21-.03 2.94-1.53 3.15-2.17-2.46-.07-3.55-1.18-3.78-1.73 6.98-.83 9.74-3.56 10.25-4.81-1.4-.18-1.78-.53-1.8-.68 3.03-.22 4.23-1.67 4.45-2.37a4.8 4.8 0 01-1.53-.2c2.5-1 3.38-2.67 3.52-3.38-1.4 0-1.9-.24-1.99-.36 2.46-1.81 3.13-3.88 3.16-4.68a3.12 3.12 0 01-2.63.98 7.12 7.12 0 002.46-6.59c-.24 1.1-1.39 1.65-1.93 1.8-.04-2.35-.38-2.7-.8-3.12a3.88 3.88 0 01-.26-.28 5.2 5.2 0 01-.73-2.15c0 .4-.32.86-.62 1.27-.17.23-.33.45-.41.63-.23.52-.28.98 0 1.53.22.43.25.92.23 1.11-.12 1.53-2.13 3-3.12 3.55a4.47 4.47 0 000-3.55c0 2.2-2.98 4.38-4.47 5.19-.58.46-.52 1.07-.45 1.95.03.27.05.57.06.9.05 1.4-.57 2.99-2.1 3.18-1.24.15-2.15-.84-2.46-1.36zm-.82-6.39c0 .26-.21.46-.47.46a.47.47 0 01-.48-.46c0-.26.21-.46.48-.46.26 0 .47.2.47.46z" fill="#fff"/></svg>