<svg width="56" height="56" viewBox="0 0 56 56" xmlns="http://www.w3.org/2000/svg"><path fill="#F0F3FA" d="M0 0h56v56H0z"/><path d="M25 20v-7h-3.5c-4.7 0-8.5 3.86-8.5 8.61v1.4a7.07 7.07 0 0 0 7 7.21V44h6.99V24H21.3c-1.02 0-1.84-.97-1.84-2s.82-2 1.84-2H25Zm-3.5-5.5h1V16H24v1h-1.5v1.5h-1V17H20v-1h1.5v-1.5ZM31 20v-7h3.5c4.7 0 8.5 3.86 8.5 8.61v1.4a7.07 7.07 0 0 1-7 7.21V44h-7V24h5.68c1.02 0 1.85-.97 1.85-2s-.83-2-1.85-2H31Zm1-4v1h4v-1h-4Z" fill="#DA251D"/><circle cx="28" cy="16.5" r="3" fill="#DA251D"/></svg>