<svg width="56" height="56" xmlns="http://www.w3.org/2000/svg"><path fill="#FFF100" d="M0 0h56v56H0z"/><path d="M31.058 23l-5.225 18h11.043l4.927-18H31.058zm11.517-2L44 16H31.77l.06 3.758.059 1.242h10.686z" fill="#0065B4"/><path d="M12.06 40.383l2.731-8.39-2.197-.058 2.434-8.564h2.435s.415-3.729.95-4.953c.534-1.223 2.612-4.136 4.986-4.544 2.435-.408 5.878-.816 8.43.816 2.554 1.573 4.572 4.544 4.928 6.35.357 1.806.06 4.953-1.246 6.467-1.306 1.515-2.85 3.03-4.81 3.846-1.958.815-3.324.757-4.511.815-1.187 0-2.137-.058-2.137-.058l-2.494 8.39-9.499-.117z" fill="#FFF100"/><path d="M23.367 14.468c-1.088.348-2.087 1.05-2.89 1.874-.804.824-1.383 1.737-1.652 2.473-.253.776-.485 1.951-.655 2.956-.08.477-.146.909-.193 1.229H27v1H15.4l-2.374 8h2.147l-2.493 8h8.511l2.505-8h2.785c.096-.006.201-.009.318-.012.487-.014 1.161-.034 2.065-.288 1.123-.316 2.6-1.002 4.36-2.531l.002-.003c1.769-1.511 2.58-3.009 2.903-4.394.324-1.394.163-2.72-.097-3.912-.556-2.34-2.171-4.225-4.417-5.694l-.003-.002c-1.084-.718-2.558-1.07-4.083-1.148-1.517-.077-3.031.12-4.162.452zM16.967 23l.014-.1c.048-.33.117-.787.203-1.296.17-1.009.413-2.254.693-3.108l.003-.008.003-.008c.325-.895.993-1.93 1.878-2.836.887-.91 2.023-1.72 3.308-2.13l.01-.004c1.244-.366 2.874-.575 4.501-.493 1.621.083 3.294.459 4.584 1.313 2.383 1.56 4.21 3.635 4.842 6.303l.002.009c.274 1.254.468 2.751.095 4.356-.376 1.615-1.314 3.293-3.226 4.927-1.86 1.616-3.466 2.378-4.742 2.737a9.024 9.024 0 01-2.34.327c-.106.003-.194.005-.265.01l-.017.001H24.43l-2.504 8H11.32l2.494-8h-2.128l2.969-10h2.312z" fill="#0065B4"/><path d="M24.038 33h-9.44v-1h9.44v1z" fill="#0065B4"/></svg>