<svg width="56" height="56" viewBox="0 0 56 56" xmlns="http://www.w3.org/2000/svg"><path fill="#002D7F" d="M0 0h56v56H0z"/><path d="M14.54 34 13 29h.94l1.09 3.7 1.05-3.7H17l-1.54 5h-.92ZM6 34v-5h1v5H6ZM38 26v-5h1v5h-1ZM22 26v-5h1v5h-1ZM12 29v5h-.78L9 30.8V34H8v-5h.79L11 32.3V29h1ZM37 21v5h-.78L34 22.8V26h-1v-5h.79L36 24.3V21h1ZM18 34v-5h3v.76h-2v1.36h1.5v.76H19v1.36h2V34h-3ZM37 34v-5h3v.76h-2v1.36h1.5v.76H38v1.36h2V34h-3ZM25.02 30.4a.64.64 0 0 0-.3-.48c-.17-.12-.4-.17-.68-.17-.2 0-.37.02-.5.08a.75.75 0 0 0-.33.22c-.08.1-.11.2-.12.33 0 .1.03.19.08.26.05.08.12.14.2.2.1.04.19.09.3.12l.31.09.49.11c.2.04.38.1.57.18.55.21.96.6.96 1.22 0 1.06-1.09 1.44-1.98 1.44-.4 0-.75-.06-1.05-.18-.3-.11-.53-.28-.7-.5-.17-.23-.26-.5-.27-.83h.93a.7.7 0 0 0 .17.42c.1.12.22.2.38.25.16.06.34.09.54.09.42 0 1-.17 1-.7 0-.45-.55-.59-.9-.67l-.6-.14c-.42-.1-.76-.26-1.01-.47a1.04 1.04 0 0 1-.37-.84c0-.28.08-.53.25-.75.16-.21.4-.38.68-.5.29-.12.62-.18.98-.18.37 0 .7.06.97.18.28.12.5.28.66.5.16.2.24.45.25.72h-.91ZM26.45 29.76V29h4.1v.76H29V34h-1v-4.24h-1.55ZM45.45 29.76V29h4.05v.76H48V34h-1v-4.24h-1.55ZM31 29h1.06l1.44 3.62L34.94 29H36v5h-1v-3l-1.19 2.99h-.62l-1.19-3V34h-1v-5ZM45 29v5h-.78L42 30.8V34h-1v-5h.79L44 32.3V29h1ZM17 26v-5h1.96c.99 0 2.04.44 2.04 1.5 0 .96-.84 1.5-2.05 1.5h-1.4v-.75h1.27c.54 0 1.21-.15 1.21-.75s-.67-.74-1.21-.74H18V26h-1ZM24 26v-5h1v4.24h2V26h-3ZM28.95 26H28l1.52-5h.96L32 26h-.94L30 22.23 28.95 26Zm-.09-2h2.27v1h-2.27v-1Z" fill="#F5FEFF"/></svg>