<svg width="56" height="56" viewBox="0 0 56 56" xmlns="http://www.w3.org/2000/svg"><path fill="#F0F3FA" d="M0 0h56v56H0z"/><path d="M28.02 12 28 21.35v.05a2.9 2.9 0 0 1-.3-.07c-2.9-1.2-5.78-2.42-8.65-3.66l-1.16-.45a9.37 9.37 0 0 1-1.13-.53l11.05-4.64c.09-.04.16-.05.21-.03Z" fill="#2F8AD4"/><path d="m28.02 12 .14.03 10.85 4.55c.03.01.07.04.13.1-.16.1-.42.24-.79.4l-9.95 4.2c-.06.03-.18.7-.4.72l.02-10Z" fill="#5AAE0E"/><path d="M39.14 16.68c.12.02.25.06.4.12a93.85 93.85 0 0 1 3.25 1.41l.1.07a4535.42 4535.42 0 0 1-11.05 4.7c-.55.24-.84.51-.84 1.18l.03 8.43v.1l-3.07-1.2.04-10.1c-.01 0 .12 0 .13-.04.22-.02.2-.04.27-.07l9.95-4.2c.37-.15.63-.29.8-.4Z" fill="#FF0"/><path d="M16.76 16.68c.37.2.74.38 1.13.53l1.16.45c2.87 1.24 5.75 2.46 8.64 3.66.04.02.27.07.31.07v10.1l-3.16 1.36a.24.24 0 0 1-.03-.1c-.01-2.56.13-5.47.14-8.42 0-.18-.01-.33-.04-.45a1.07 1.07 0 0 0-.12-.35c-.11-.2-.33-.36-.65-.5C20.56 21.53 17.2 20 13.6 18.5l-.03-.02a1.1 1.1 0 0 1-.23-.11c-.08-.06-.1-.13-.1-.2l3.52-1.48Z" fill="#0CF"/><path d="M13.24 18.16c-.01.07.02.14.1.2a1.08 1.08 0 0 0 .25.13c3.53 1.5 7.06 3.03 10.59 4.55.6.26.82.68.82 1.3v8.52c-1.63.6-7.62 3.1-7.62 3.1h-.1c-1.2-.55-2.42-1.08-3.65-1.6a2.14 2.14 0 0 1-.29-.17.56.56 0 0 0-.33-.1v-15.8l.01-.03a.06.06 0 0 1 .04-.02c.08-.01.14-.04.18-.08Z" fill="#0066CB"/><path d="M42.9 18.28c.06-.01.1.03.1.13v15.54c-.2.2-.35.32-.44.35a144.6 144.6 0 0 1-3.88 1.66c-1.05-.45-2.01-.8-3.07-1.21l-1.07-.46a32.1 32.1 0 0 0-1.32-.56c-.34-.13-.67-.28-1-.44l-.62-.26c-.23-.09-.43-.2-.6-.32v-8.66c0-.32.1-.59.32-.79.1-.1.33-.22.7-.38 3.4-1.46 7-2.9 10.76-4.53a.55.55 0 0 0 .12-.07Z" fill="#090"/><path d="m28 31.5 3 1.18v5.8c0 .2.1.35.25.46.09.06.21.08.38.05.11-.02.24-.06.38-.12 2.3-.98 4.4-1.95 6.69-2.9L43 37.7c-.18.11-.37.2-.57.28l-.43.17c-4.52 1.9-9.04 3.8-13.55 5.72-.12.05-.23.09-.35.12a.54.54 0 0 1-.35-.04l-14.17-5.98a2.5 2.5 0 0 1-.49-.28 9.5 9.5 0 0 1 1.13-.47c.14-.05.28-.11.4-.18.15-.08.3-.14.44-.19.21-.06.42-.15.63-.25.55-.25 1.1-.47 1.67-.65l.09.02c2.28.97 4.34 1.83 6.63 2.78.18.08.3.11.37.1.34-.01.55-.04.55-.38V32.78l3-1.28Z" fill="#FF5E82"/><path d="M31 32.6c.18.11.38.22.6.3l.64.27c.33.16.67.3 1.01.43.32.12.76.31 1.35.57l1.08.46c1.08.42 2.15.85 3.22 1.3l-.01.03L32 38.87c-.14.06-.26.1-.38.12-.17.03-.3 0-.38-.05a.54.54 0 0 1-.24-.47 2562.88 2562.88 0 0 1 0-5.88Z" fill="#2F5F03"/><path d="M25 32.86v5.57c0 .33-.17.51-.5.53-.07 0-.19-.03-.37-.1-2.23-.96-4.54-1.94-6.77-2.91 2.35-1.02 4.87-2.12 7.17-3.03l.17-.08c.09-.05.2-.04.3.02Z" fill="#265F83"/><path d="M42.98 33.95 43 37.7l-4.3-1.74.01-.02c1.28-.53 2.56-1.07 3.84-1.64.08-.03.23-.15.43-.35Z" fill="#FF0"/><path d="M17.36 35.95c-.57.18-1.12.4-1.67.65-.21.1-.42.19-.63.25-.14.05-.29.11-.43.19-.13.07-.27.13-.41.18-.38.13-.76.29-1.13.47-.06-.02-.08-.12-.09-.3l.01-3.3c.1-.01.22.02.34.1.13.09.23.14.29.17 1.25.52 2.49 1.05 3.72 1.6Z" fill="#0CF"/></svg>