<svg width="56" height="56" viewBox="0 0 56 56" xmlns="http://www.w3.org/2000/svg"><path fill="#F0F3FA" d="M0 0h56v56H0z"/><path d="M33.88 14.14a15.26 15.26 0 0 1 8.92 11.35 15.22 15.22 0 0 1-4.72 13.63c-3.3 3-7.3 4.26-12 3.78-.1 0-.17-.07-.18-.18l-.03-.73.16-8.73c0-.11.06-.17.17-.19 1.4-.2 2.52-.6 3.39-1.22 1-.72 1.63-1.72 1.87-2.99a5.53 5.53 0 0 0-1.96-5.72 4.93 4.93 0 0 0-5.5-.66 5.63 5.63 0 0 0-3.08 4.69c-.05.81.07 1.85.37 3.13.9 3.86 1.58 7.74 2.04 11.63.02.2-.06.28-.25.22-1.15-.35-2.3-.92-3.48-1.73a15.43 15.43 0 0 1-2.87-2.54 14.65 14.65 0 0 1-3.4-6.74c-.53-2.48-.42-5.01.33-7.6a14 14 0 0 1 2.68-5.01 15.62 15.62 0 0 1 4.38-3.68 13.98 13.98 0 0 1 5.98-1.8c2.7-.2 5.1.17 7.18 1.09ZM46 28.5l-.6-.02a17.95 17.95 0 0 0 0-.96l.6-.01a18.3 18.3 0 0 1 0 .98Zm-.04-1.78-.6.04c-.02-.31-.05-.63-.09-.94l.59-.07.1.97Zm-.21-1.75-.59.1c-.05-.32-.11-.63-.18-.93l.58-.13.19.96Zm-.38-1.73-.57.16-.28-.9.56-.2.29.94Zm-.55-1.67-.56.2c-.1-.29-.23-.58-.36-.87l.54-.24.38.9Zm-.72-1.62-.52.26-.45-.83.51-.3c.16.29.32.58.46.87Zm-.86-1.54-.5.32-.53-.8.48-.34.55.82Zm-1.02-1.45-.47.37-.6-.74.45-.38.62.75Zm-1.15-1.34-.43.41-.67-.67.4-.43c.24.22.48.46.7.7Zm-1.28-1.22-.38.45-.74-.6.37-.47c.25.2.5.4.75.62Zm-1.38-1.09-.35.48c-.25-.18-.52-.36-.79-.53l.32-.5.82.55Zm-1.5-.95-.29.51-.83-.45.26-.52c.3.14.58.3.87.46Zm-1.57-.8-.24.54c-.29-.13-.58-.25-.88-.36l.21-.56.91.38Zm-1.65-.64-.18.56c-.3-.1-.6-.2-.91-.28l.16-.57.93.29Zm-1.7-.48-.13.58c-.3-.07-.61-.13-.93-.18l.1-.59c.32.06.65.12.96.2Zm-1.74-.3-.07.59-.94-.1.04-.59.97.1Zm-1.76-.13-.01.59a17.95 17.95 0 0 0-.96 0l-.01-.6a18.3 18.3 0 0 1 .98 0Zm-1.77.03.04.6c-.31.02-.63.05-.94.09l-.07-.59.97-.1Zm-1.75.21.1.59c-.32.05-.63.11-.93.18l-.13-.58.96-.19Zm-1.73.38.16.57-.9.28-.2-.56.94-.29Zm-1.67.55.2.56c-.29.1-.58.23-.87.36l-.24-.54.9-.38Zm-1.62.72.26.52-.83.45-.3-.51c.29-.16.58-.32.87-.46Zm-1.54.86.32.5-.8.53-.34-.48.82-.55Zm-1.45 1.02.37.47-.74.6-.38-.45.75-.62Zm-1.34 1.15.41.43-.67.67-.43-.4c.22-.24.46-.48.7-.7Zm-1.22 1.28.45.38-.6.74-.47-.37c.2-.25.4-.5.62-.75Zm-1.09 1.38.48.35c-.18.25-.36.52-.53.79l-.5-.32.55-.82Zm-.95 1.5.51.29-.45.83-.52-.26c.14-.3.3-.58.46-.87Zm-.8 1.57.54.24c-.13.29-.25.58-.36.88l-.56-.21.38-.91Zm-.64 1.65.56.18c-.1.3-.2.6-.28.91l-.57-.16.29-.93Zm-.48 1.7.58.13c-.07.3-.13.61-.18.93l-.59-.1c.06-.32.12-.65.2-.96Zm-.3 1.74.59.07-.1.94-.59-.04.1-.97Zm-.13 1.76a18.3 18.3 0 0 0 0 .98l.59-.01a17.95 17.95 0 0 1 0-.96l-.6-.01Zm.03 1.77.6-.04c.02.31.05.63.09.94l-.59.07-.1-.97Zm.21 1.75.59-.1c.05.32.11.63.18.93l-.58.13-.19-.96Zm.38 1.73.57-.16.28.9-.56.2-.29-.94Zm.55 1.67.56-.2c.1.29.23.58.36.87l-.54.24-.38-.9Zm.72 1.62.52-.26.45.83-.51.3c-.16-.29-.32-.58-.46-.87Zm.86 1.54.5-.32.53.8-.48.34a18.1 18.1 0 0 1-.55-.82Zm1.02 1.45.47-.37.6.74-.45.38-.62-.75Zm1.15 1.34.43-.41.67.67-.4.43c-.24-.22-.48-.46-.7-.7Zm1.28 1.22.38-.45.74.6-.37.47c-.25-.2-.5-.4-.75-.62Zm1.38 1.09.35-.48c.25.18.52.36.79.53l-.32.5a18.1 18.1 0 0 1-.82-.55Zm1.5.95.29-.51.83.45-.26.52c-.3-.14-.58-.3-.87-.46Zm1.57.8.24-.54c.29.13.58.25.88.36l-.21.56-.91-.38Zm1.65.64.18-.56c.3.1.6.2.91.28l-.16.57-.93-.29Zm1.7.48.13-.58c.3.07.61.13.93.18l-.1.59c-.32-.06-.65-.12-.96-.2Zm1.74.3.07-.59.94.1-.04.59-.97-.1Zm1.76.13.01-.59a17.95 17.95 0 0 0 .96 0l.01.6a18.3 18.3 0 0 1-.98 0Zm1.77-.03-.04-.6c.31-.02.63-.05.94-.09l.07.59-.97.1Zm1.75-.21-.1-.59c.32-.05.63-.11.93-.18l.13.58-.96.19Zm1.73-.38-.16-.57.9-.28.2.56-.94.29Zm1.67-.55-.2-.56c.29-.1.58-.23.87-.36l.24.54-.9.38Zm1.62-.72-.26-.52.83-.45.3.51c-.29.16-.58.32-.87.46Zm1.54-.86-.32-.5.8-.53.34.48-.82.55Zm1.45-1.02-.37-.47.74-.6.38.45-.75.62Zm1.34-1.15-.41-.43.67-.67.43.4c-.22.24-.46.48-.7.7Zm1.22-1.28-.45-.38.6-.74.47.37c-.2.25-.4.5-.62.75Zm1.09-1.38.55-.82-.5-.32-.53.8.48.34Zm.95-1.5-.51-.29.45-.83.52.26c-.14.3-.3.58-.46.87Zm.8-1.57-.54-.24c.13-.29.25-.58.36-.88l.56.21-.38.91Zm.64-1.65-.56-.18c.1-.3.2-.6.28-.91l.57.16-.29.93Zm.48-1.7-.58-.13c.07-.3.13-.61.18-.93l.59.1c-.06.32-.12.65-.2.96Zm.3-1.74-.59-.07.1-.94.59.04-.1.97ZM44.6 28.48l-.59-.01a16.14 16.14 0 0 0 0-.94l.6-.01a16.94 16.94 0 0 1 0 .96Zm-.04-1.74-.59.05c-.02-.31-.05-.62-.1-.93l.6-.08.1.96Zm-.22-1.72-.58.1c-.05-.3-.12-.6-.2-.9l.58-.15c.08.32.15.63.2.95Zm-.4-1.7-.56.17c-.1-.3-.19-.6-.3-.88l.57-.2.3.92Zm-.57-1.63-.55.22c-.12-.29-.24-.57-.38-.85l.54-.26c.14.3.27.59.39.89Zm-.75-1.58-.52.29c-.15-.28-.3-.55-.46-.81l.5-.31c.17.27.33.55.48.83Zm-.9-1.48-.5.34c-.17-.26-.35-.51-.54-.76l.47-.36c.2.25.39.51.57.78Zm-1.06-1.38-.45.38c-.2-.23-.4-.47-.62-.69l.43-.41c.22.23.43.47.64.72Zm-1.2-1.27-.4.43c-.22-.21-.46-.42-.7-.62l.4-.45c.24.2.48.42.7.64Zm-1.3-1.13-.37.47c-.25-.2-.5-.37-.76-.55l.34-.49c.27.18.53.37.78.57Zm-1.44-.99-.31.5-.8-.46.27-.52c.29.15.57.31.84.48Zm-1.52-.84-.26.54c-.28-.14-.56-.26-.85-.38l.22-.55c.3.12.6.25.89.4Zm-1.6-.67-.2.56-.9-.29.17-.56c.31.09.62.19.92.3Zm-1.67-.5-.14.58-.91-.2.1-.57c.32.05.63.12.95.2Zm-1.71-.31-.08.58-.93-.1.05-.58c.32.02.64.05.96.1Zm-1.74-.14-.01.59a16.5 16.5 0 0 0-.94 0l-.01-.6a16.95 16.95 0 0 1 .96 0Zm-1.74.04.05.59c-.31.02-.62.05-.93.1l-.08-.6.96-.1Zm-1.72.22.1.58c-.3.05-.6.12-.9.2l-.15-.58c.32-.08.63-.15.95-.2Zm-1.7.4.17.56c-.3.1-.6.19-.88.3l-.2-.57.92-.3Zm-1.63.57.22.55c-.29.12-.57.24-.85.38l-.26-.54c.3-.14.59-.27.89-.39Zm-1.58.75.29.52c-.28.15-.55.3-.81.46l-.31-.5c.27-.17.55-.33.83-.48Zm-1.48.9.34.5c-.26.17-.51.35-.76.54l-.36-.47c.25-.2.51-.39.78-.57Zm-1.38 1.06.38.45c-.23.2-.47.4-.69.62l-.41-.43c.23-.22.47-.43.72-.64Zm-1.27 1.2.43.4c-.21.22-.42.46-.62.7l-.45-.4c.2-.24.42-.48.64-.7Zm-1.13 1.3.47.37c-.2.25-.37.5-.55.76l-.49-.34c.18-.27.37-.53.57-.78Zm-.99 1.44c-.17.27-.33.55-.48.83l.52.29c.15-.28.3-.55.46-.81l-.5-.31Zm-.84 1.52c-.14.3-.27.59-.39.89l.55.22c.12-.29.24-.57.38-.85l-.54-.26Zm-.67 1.6.56.2-.29.9-.57-.17.3-.92Zm-.5 1.67.58.14-.2.91-.57-.1c.05-.32.12-.63.2-.95Zm-.31 1.71.58.08-.1.93-.58-.05c.02-.32.05-.64.1-.96Zm-.14 1.74a16.58 16.58 0 0 0 0 .96l.59-.01a16.5 16.5 0 0 1 0-.94l-.6-.01Zm.04 1.74.59-.05c.02.31.05.62.1.93l-.6.08-.1-.96Zm.22 1.72.58-.1c.05.3.12.6.2.9l-.58.15c-.08-.32-.15-.63-.2-.95Zm.4 1.7.56-.17c.1.3.19.6.3.88l-.57.2-.3-.92Zm.57 1.63.55-.22c.12.29.24.57.38.85l-.54.26c-.14-.3-.27-.59-.39-.89Zm.75 1.58.52-.29c.15.28.3.55.46.81l-.5.31c-.17-.27-.33-.55-.48-.83Zm.9 1.48.5-.34c.17.26.35.51.54.76l-.47.36c-.2-.25-.39-.51-.57-.78Zm1.06 1.38.45-.38c.2.23.4.47.62.69l-.43.41c-.22-.23-.43-.47-.64-.72Zm1.19 1.27.41-.43c.22.21.46.42.7.62l-.4.45c-.24-.2-.48-.42-.71-.64Zm1.32 1.13.36-.47c.25.2.5.37.76.55l-.34.49c-.27-.18-.53-.37-.78-.57Zm1.43.99.31-.5.8.46-.28.52c-.28-.15-.56-.31-.83-.48Zm1.52.84.26-.54c.28.14.56.26.85.38l-.22.55c-.3-.12-.6-.25-.89-.4Zm1.6.67.93.3.16-.57c-.3-.1-.6-.19-.88-.3l-.2.57Zm1.67.5.14-.58.91.2-.1.57c-.32-.05-.63-.12-.95-.2Zm1.71.31.08-.58.93.1-.05.58c-.32-.02-.64-.05-.96-.1Zm1.74.14.01-.59a16.5 16.5 0 0 0 .94 0l.01.6a16.95 16.95 0 0 1-.96 0Zm1.74-.04-.05-.59c.31-.02.62-.05.93-.1l.08.6-.96.1Zm1.72-.22-.1-.58c.3-.05.6-.12.9-.2l.15.58c-.32.08-.63.15-.95.2Zm1.7-.4-.17-.56c.3-.1.6-.19.88-.3l.2.57-.92.3Zm1.63-.57-.22-.55c.29-.12.57-.24.85-.38l.26.54c-.3.14-.59.27-.89.39Zm1.57-.75-.28-.52c.28-.15.55-.3.81-.46l.31.5c-.27.17-.55.33-.84.48Zm1.49-.9-.34-.5a16 16 0 0 0 .76-.54l.36.47c-.25.2-.51.39-.78.57Zm1.38-1.06-.38-.45c.23-.2.47-.4.69-.62l.4.43c-.22.22-.46.43-.7.64Zm1.27-1.19-.43-.41c.21-.22.42-.46.62-.7l.45.4c-.2.24-.42.48-.64.71Zm1.13-1.32-.47-.36a16 16 0 0 0 .55-.76l.49.34c-.18.27-.37.53-.57.78Zm.99-1.43-.5-.31.46-.8.52.28c-.15.28-.31.56-.48.83Zm.84-1.52-.54-.26c.14-.28.26-.56.38-.85l.55.22c-.12.3-.25.6-.4.89Zm.67-1.6-.56-.2.29-.9.56.17c-.09.31-.19.62-.3.92Zm.5-1.67-.58-.14.2-.91.57.1c-.05.32-.12.63-.2.95Zm.31-1.71-.58-.08.1-.93.58.05c-.02.32-.05.64-.1.96Z" fill="#E42B26"/></svg>