<svg width="56" height="56" viewBox="0 0 56 56" xmlns="http://www.w3.org/2000/svg"><path fill="#F0F3FA" d="M0 0h56v56H0z"/><path fill-rule="evenodd" d="M43 18.5 28 9l-15 9.5v19L28 47l15-9.5v-19Zm-15.16 8.24-11.5-7.58 11.5-7.7 11.89 7.7-11.89 7.58ZM15 36.08V21.95l11 6.75v11.13l-8-5v3.1l-3-1.85Zm3-4.46v-4.6l5 2.95v4.81l-5-3.16Zm15.97.7-.97.52v-5.35l-3 1.92V42l3-2.03V34.7l.97-.3 3.74 3.45 2.95-1.98-3.82-3.29L41 22l-4.16 2.9-2.87 7.42Z" fill="#EC1C24"/><path d="M23.74 18.97c-.62-2.23-1.57-2.97-1.97-3.07 3.17-.46 3.97.65 4.28 3.07a23.48 23.48 0 0 0 1.57 5.36 9.6 9.6 0 0 0 0-4c-.28-.97-.5-3.55-.5-4.63 0-.87.34-2.48.5-3.18.2.85.71 2.95 1.13 4.54.41 1.58.05 5.06-.19 6.6.33-.78 1.16-3.05 1.83-5.77.68-2.73 2.6-2.46 3.48-1.99-.94 1.25-1.4 3.07-2.07 5.4-.52 1.85-2.82 3.98-3.9 4.8-3.15-1.67-3.38-4.35-4.16-7.13Z" fill="#00A44F"/></svg>