<svg width="56" height="56" viewBox="0 0 56 56" xmlns="http://www.w3.org/2000/svg"><path fill="#F0F3FA" d="M0 0h56v56H0z"/><path fill-rule="evenodd" d="M27.75 10h.42l.82 2.23v.01H29l1.1-2.13h.02a64.61 64.61 0 0 1 .38.02l-1.34 2.62-.04.02-.33-.02a.04.04 0 0 1-.04-.03l-1-2.72Zm-1.62 2.48v.01l1.45-.14.02.01.03.32-.01.01-1.82.18h-.02v-.02l-.27-2.66c0-.02 0-.02.02-.03l.36-.03.02.01a5349.17 5349.17 0 0 0 .22 2.34Zm6.7-.63-1.3-.31c-.01 0-.02-.01-.01-.02l.19-.77h.01l1.46.35.02-.01.07-.31-.01-.02-1.84-.45h-.02l-.64 2.63.01.01 1.9.47.01-.01.08-.31-.01-.02-1.5-.37c-.02 0-.02 0-.02-.02l.2-.8c0-.02 0-.02.02-.02l1.29.32.02-.02.07-.3v-.02Zm-9.91 1.55c.16.04.32.05.5.04a1.74 1.74 0 0 0 .84-.33 1.34 1.34 0 0 0 .5-1.27 1.44 1.44 0 0 0-.44-.85 1.3 1.3 0 0 0-.8-.35c-.16-.01-.31 0-.47.04a1.42 1.42 0 0 0-.92.59 1.3 1.3 0 0 0-.25.84 1.44 1.44 0 0 0 .62 1.11c.13.09.27.15.42.18Zm1.42-1.65c.16.55-.16 1.13-.72 1.3a1.05 1.05 0 0 1-1.3-.72c-.16-.55.16-1.13.72-1.3.56-.15 1.14.17 1.3.72ZM21 13.3c.1.01.19.06.24.14.08.11.09.23.02.36a.7.7 0 0 1-.26.26c-.34.22-.7.3-1.05.22-.02 0-.03 0-.03.03l.01.28c0 .03.02.04.05.05.49.05.93-.07 1.34-.38a1 1 0 0 0 .2-.22c.07-.08.1-.16.13-.25a.7.7 0 0 0-.08-.57c-.14-.24-.38-.34-.7-.3-.2.03-.4.07-.64.13-.16.04-.29.06-.4.04-.15-.02-.24-.1-.28-.24a.36.36 0 0 1 .01-.25.54.54 0 0 1 .16-.2c.27-.22.6-.32.98-.3.02 0 .02 0 .02-.02l-.03-.32v-.01c-.43-.02-.83.1-1.18.38a.95.95 0 0 0-.3.38.68.68 0 0 0-.03.47c.07.23.2.38.39.45.15.06.36.06.6 0l.55-.11c.1-.03.2-.03.28-.02Zm16.17 2.48-.3-.22v-.02l1.38-1.9v-.02l-.73-.53v-.02l.19-.26h.02l1.8 1.31v.02l-.2.26h-.01l-.73-.53h-.02l-1.38 1.9h-.02Zm-2.28-1.83a.27.27 0 1 1-.54 0 .27.27 0 0 1 .54 0Zm-16.81 1.3a1.34 1.34 0 0 0-.73-.8 1.44 1.44 0 0 0-1.58.28 1.49 1.49 0 0 0-.48 1 1.38 1.38 0 0 0 .8 1.34 1.44 1.44 0 0 0 1.58-.28 1.49 1.49 0 0 0 .48-1c.01-.18-.01-.37-.07-.54Zm-.58-.19c.39.43.35 1.09-.08 1.48-.43.39-1.1.36-1.48-.06a1.05 1.05 0 0 1 .08-1.48c.43-.4 1.1-.37 1.48.06Zm24.12 1.16-.83.77h-.02l-1.04-1.1v-.02l.83-.78v-.02l-.25-.27h-.03l-1.95 1.85v.02l.25.27h.02l.86-.8h.02l1.04 1.1v.02l-.86.8v.03l.25.27h.03l1.95-1.85v-.03l-.25-.26h-.02Zm-27.88 1.4-.54.71h-.02l-.26-.19v-.02l1.33-1.78h.02l.26.19v.02l-.54.72v.02l1.88 1.4v.02l-.21.3h-.02l-1.88-1.4h-.02Zm28.25.97.67-.42h.02l.8 1.27h.01l.28-.17v-.02l-1.01-1.6h-.02l-2.28 1.43v.02l1.03 1.65h.02l.28-.17v-.02l-.83-1.3v-.03l.71-.44h.02l.71 1.13h.02l.27-.16v-.02l-.7-1.13v-.02Zm-29.47 3.65-.82-1.9.16-.4h.02l.68 1.5.01.02 1.82-.56h.01v.01l-.16.4v.01l-1.5.5v.01l.26.63.64.27v.01l-.13.35h-.02L11 22.08v-.01l.14-.35h.02l1.35.56h.01v-.02ZM44 22.7c-.02-.34.06-.54.25-.6.1-.03.18-.02.27.02.08.05.15.1.2.2.18.3.23.64.16 1-.01.04 0 .05.03.06l.27.02c.03 0 .04-.01.04-.04a3.93 3.93 0 0 1 .04-.24c0-.29-.05-.57-.16-.83-.1-.21-.22-.37-.37-.47a.69.69 0 0 0-.58-.1.62.62 0 0 0-.43.32c-.06.13-.1.31-.09.54 0 .17.02.34.03.5.03.29-.02.47-.14.55-.15.1-.3.1-.43-.01a.7.7 0 0 1-.15-.18 1.41 1.41 0 0 1-.1-1.18c0-.02 0-.03-.02-.04l-.29-.03c-.01 0-.03 0-.03.02a.98.98 0 0 0-.08.28c-.04.38.03.74.2 1.1.1.2.24.33.41.42.18.1.38.1.58.03a.58.58 0 0 0 .35-.32c.05-.13.08-.29.07-.49l-.03-.53Zm-30.72 1.02-1 .44s-.02 0-.02-.02a.84.84 0 0 0-.7-.72.97.97 0 0 0-.43 0 .83.83 0 0 0-.34.15 1 1 0 0 0-.24.3c-.07.11-.12.24-.15.38l-.23 1.1c0 .02 0 .03.03.04l2.6.53c.03 0 .04 0 .04-.02l.07-.35-.01-.02-.76-.15c-.02 0-.03-.02-.03-.04l.16-.77c0-.01 0-.02.02-.03l.9-.39.01-.01a13.85 13.85 0 0 0 .08-.42Zm-2.69 1.33.01.01 1.16.24h.01l.16-.75a.69.69 0 0 0-.08-.47.55.55 0 0 0-.15-.18.5.5 0 0 0-.2-.09l-.07-.01a.5.5 0 0 0-.23 0 .56.56 0 0 0-.2.1.7.7 0 0 0-.25.4l-.16.75Zm33.28.17v-.01h-.02l-.78.1-.02-.01-.05-.37.02-.01 2.65-.38h.02v.02c.07.4.11.75.16 1.08.02.17.02.33-.01.48a.99.99 0 0 1-.17.39.8.8 0 0 1-.32.26c-.14.07-.3.1-.47.1a.82.82 0 0 1-.63-.3 1.26 1.26 0 0 1-.28-.65l-.1-.7ZM45.4 25h.02l.1.75a.7.7 0 0 1-.1.47.56.56 0 0 1-.16.17.5.5 0 0 1-.2.07l-.08.01a.5.5 0 0 1-.22-.01.56.56 0 0 1-.2-.12.7.7 0 0 1-.23-.42l-.1-.75v-.01L45.4 25ZM10 27.98v.03l2.7 1.26h.01V28.85l-.65-.29a.03.03 0 0 1-.02-.03l.02-1.39c0-.01 0-.02.02-.03l.62-.26a.06.06 0 0 0 .04-.06v-.37h-.01l-2.7 1.19a.04.04 0 0 0-.02.03l-.01.34Zm.45-.15 1.26.57h.01l.01-1.12v-.01h-.01l-1.27.54v.02Zm32.86-.2.02-.4h.02l2.64 1.32.01.01-.02.38v.01l-2.75 1.12h-.01v-.01l.01-.4.69-.27v-.01l.06-1.42v-.01l-.66-.32Zm1 .48 1.24.61v.02l-1.29.51-.01-.01.04-1.12h.02ZM13 31.16l-.75.13c-.02 0-.03 0-.03-.03l-.13-.7c-.03-.16-.07-.3-.14-.42a.96.96 0 0 0-.25-.3.8.8 0 0 0-.36-.16 1.07 1.07 0 0 0-.8.18.83.83 0 0 0-.21.27c-.06.1-.1.22-.1.34-.03.12-.03.25 0 .38l.18 1.13c0 .02.01.02.03.02l2.63-.45c.02 0 .03 0 .03-.03l-.06-.34-.01-.01h-.02Zm-2.31.38.02.01 1.15-.2.02-.01-.13-.74a.7.7 0 0 0-.24-.42.55.55 0 0 0-.2-.1.5.5 0 0 0-.22-.02l-.08.01a.5.5 0 0 0-.2.09.56.56 0 0 0-.16.17.65.65 0 0 0-.08.22.71.71 0 0 0 0 .25l.12.74Zm32.91.79a462.64 462.64 0 0 1-1.02.4 69.03 69.03 0 0 1 .11-.42l.91-.37c.02 0 .02 0 .03-.02l.18-.78-.01-.02-.77-.18-.02-.02.08-.35c0-.02.02-.02.03-.02l2.61.62a43.89 43.89 0 0 1-.26 1.15c-.03.12-.07.22-.13.32s-.13.2-.2.27a.83.83 0 0 1-.64.21.99.99 0 0 1-.59-.22.84.84 0 0 1-.29-.56c0-.01 0-.02-.02-.01Zm1.7-.85h.02l-.18.75a.7.7 0 0 1-.26.4.55.55 0 0 1-.2.09.49.49 0 0 1-.22 0l-.1-.02a.5.5 0 0 1-.19-.1.56.56 0 0 1-.14-.18.64.64 0 0 1-.08-.22.72.72 0 0 1 .02-.25l.17-.74h.02l1.15.27Zm-33.6 2.93c.1.03.18.02.26-.02.09-.04.14-.1.17-.19a.64.64 0 0 0 .04-.24l-.05-.58c-.04-.39.03-.65.2-.8a.7.7 0 0 1 .47-.18c.23-.01.44.1.61.31.08.1.14.2.2.33a2 2 0 0 1 .1.35c.08.3.07.6-.02.86 0 .01-.01.02-.03.02l-.3-.03c-.01 0-.02-.01-.01-.02a1.4 1.4 0 0 0-.18-1.26.4.4 0 0 0-.22-.17.34.34 0 0 0-.44.24.76.76 0 0 0-.02.28l.06.58c.04.52-.15.82-.56.9a.68.68 0 0 1-.6-.16c-.15-.12-.27-.3-.36-.54-.12-.29-.15-.6-.1-.92 0-.03.02-.04.04-.03l.3.01c.01 0 .02.01.02.03-.08.34-.03.66.14.97.07.13.17.21.29.26Zm32.37 1.75-.76-1.92v-.01h.02l1.33.6.02-.01.15-.34v-.02l-2.47-1.1h-.02l-.15.34v.02l.64.28v.01l.25.63-.01.02-1.5.45-.19.4v.01h.02l1.83-.5.02.01.62 1.53h.02l.18-.39v-.01Zm-29.5 1.42.68-.46v-.03l-.85-1.29v-.02l.27-.18h.02l1.08 1.63v.02l-2.25 1.5h-.02l-1.05-1.59v-.02l.27-.17h.02l.83 1.24h.02l.66-.43v-.02l-.73-1.1v-.03l.26-.17h.02l.74 1.11h.02Zm25.28.11 1.84 1.46v.02l-.56.7v.02l.25.2h.03l1.38-1.75v-.02l-.26-.2h-.02l-.56.71h-.02l-1.83-1.45h-.02l-.23.29v.02Zm-23 2.48.82-.83h.03l.26.27v.02l-1.91 1.9h-.03l-.26-.27v-.02l.8-.8c.02 0 .02-.01.01-.02l-1.06-1.07h-.02l-.82.8h-.02l-.26-.27v-.02l1.92-1.9h.02l.26.26v.03l-.84.82v.03l1.07 1.07h.02Zm23.16-.54a1.35 1.35 0 0 1 .33 1.03 1.45 1.45 0 0 1-.5.99 1.5 1.5 0 0 1-1.06.36 1.39 1.39 0 0 1-.97-.47 1.35 1.35 0 0 1-.32-1.03 1.44 1.44 0 0 1 .5-.98 1.5 1.5 0 0 1 1.05-.37 1.39 1.39 0 0 1 .97.47Zm-.41 1.74a1.05 1.05 0 1 0-1.37-1.57 1.05 1.05 0 0 0-.1 1.48c.37.43 1.03.47 1.47.1ZM17.79 42.4l1.33-1.92h.03l.3.2v.02l-1.33 1.93v.02l.74.51v.03l-.18.26h-.02l-1.83-1.26v-.03l.18-.26h.02l.74.5h.02Zm3.46-.53a.27.27 0 1 1-.54 0 .27.27 0 0 1 .54 0Zm13.22 1.03c.09.05.22.05.4.02l.6-.12c.22-.03.4-.02.55.04.17.08.28.21.35.4a.7.7 0 0 1 .02.42.81.81 0 0 1-.2.34c-.08.1-.2.18-.32.25s-.24.13-.37.17c-.21.06-.43.09-.65.07l-.01-.02-.02-.33c.37.03.7-.05.99-.26.1-.07.17-.16.2-.26a.35.35 0 0 0-.05-.31.33.33 0 0 0-.23-.14.75.75 0 0 0-.27 0l-.6.12c-.46.08-.75-.05-.9-.37a.7.7 0 0 1 0-.55.96.96 0 0 1 .36-.43c.2-.14.41-.24.65-.3.25-.06.49-.06.7 0l.02.01v.33h-.02a1.22 1.22 0 0 0-.53-.02 1.6 1.6 0 0 0-.5.17c-.19.11-.3.23-.34.36-.05.18 0 .32.17.4Zm-11.74 1.14 1.27.35H24v.02l-.2.76h-.03l-1.43-.39h-.02v.02l-.1.3.01.01.01.01 1.82.5h.02v-.01l.72-2.59V43h-.01l-1.87-.52h-.02v.01l-.1.3.01.02h.01l1.49.42h.01v.02l-.22.8h-.02l-1.27-.34h-.02v.01l-.09.3.02.02Zm10.92.25a1.42 1.42 0 0 0-.24-.97 1.33 1.33 0 0 0-1.19-.6 1.66 1.66 0 0 0-1.08.47 1.3 1.3 0 0 0-.36 1.11c.03.24.1.45.23.63.11.18.26.32.44.42.18.1.38.16.6.18a1.62 1.62 0 0 0 1.12-.36 1.36 1.36 0 0 0 .48-.88Zm-.42-.44c.15.55-.18 1.13-.74 1.28a1.05 1.05 0 0 1-1.3-.72c-.15-.56.18-1.13.74-1.29.57-.15 1.14.17 1.3.73Zm-5.26-.15 1.43-.1.02.01.16 2.34.02.01.36-.02c.01 0 .02 0 .02-.02l-.19-2.68-.01-.02-1.83.13c-.01 0-.02 0-.02.02l.02.31c0 .01 0 .02.02.02Zm-.25 2.3h-.41l-.74-2.22c-.01-.02-.02-.02-.03 0l-1.15 2.08h-.02l-.38-.03 1.41-2.58.04-.02.35.03c.01 0 .02 0 .02.02l.91 2.72Zm-8.46-12.3c.73-.2.74-1.24.74-1.86a7516.35 7516.35 0 0 0 0-8.09c0-.24 0-.47-.06-.7-.16-.51-.48-.77-.97-.8h-.02V22l.01-.01H22v9.64c0 .72.17 1.7.97 1.98.1.04.23.07.36.09a5.14 5.14 0 0 0 .52.04V34H19c-.01 0-.02 0-.02-.02v-.22c0-.02.01-.02.03-.03.1 0 .18-.01.25-.03Zm5.14-11.17c-.2-.1-.43-.16-.68-.2a5.77 5.77 0 0 0-.72-.09V22c.54 0 1.06.05 1.57.11.35.05.66.1.95.18.32.09.62.2.89.33.9.45 1.4 1.19 1.55 2.21.05.4.05.79.01 1.18-.05.53-.2.99-.44 1.37-.26.41-.61.73-1.07.96-.39.2-.8.34-1.23.43A11.5 11.5 0 0 1 23 29v-.24l.01-.02c.23 0 .42-.03.59-.05.2-.03.4-.07.56-.13.4-.13.7-.35.94-.65.18-.25.32-.55.41-.92a8.53 8.53 0 0 0 .12-2.2 3.9 3.9 0 0 0-.31-1.31c-.21-.45-.52-.76-.92-.94Zm4.79 3.72h.79a2503.9 2503.9 0 0 0 .03 5.44c0 .5.07.94.21 1.3.2.53.59.84 1.14.95.28.06.55.07.83.05a2.55 2.55 0 0 0 1.67-.9 2 2 0 0 0 .32-.54v-.02l-.2-.12h-.02c-.75 1.3-1.96.43-1.96-.78a2328.4 2328.4 0 0 1 .02-5.38h1.6l.02-.01.06-.23L32 26V24l-.02-.01-1.96.27c-.01 0-.02 0-.02.02v1.7l-.02.01h-.83c-.01 0-.02.01-.02.03l.05.21v.01ZM37 34a1 1 0 1 0 0-2 1 1 0 0 0 0 2Z" fill="#EB4A4D"/></svg>