<svg width="56" height="56" viewBox="0 0 56 56" xmlns="http://www.w3.org/2000/svg"><path fill="url(#avzjljc4g)" d="M0 0h56v56H0z"/><path d="m9.07 27.26-.82-1.85 1.64-.29 2.64-6.31 4.9-.56h4.14l.51.87-1.07 3.5h1.17l1.17 1.6 3.52-4.93 2.26-1.04 2.87 2.7.5-2.7h5.75l.98 1.42-2.09 2.95h.76l1.33 2.27 2.83-4.87V18h3.34l1.02 1.83v4.56H48l-1.04 2.87H9.07ZM11.3 38c-1.52-.2-2.62-1.7-2.99-2.43-.26-2.47 2.61-4.72 4.08-5.54l.94.23c.37-.06.54-.54.56-.76.01-.22.75-.26 1.11-.3l1.12 1.3.69-1.5H20l1.7 2.13.24 3.7L24 30l2.44-.37c.24-.08.88-.19 1.5 0 .63.18 1.06.24 1.2.37h1.16l2.29-.6.6 1.1-1.34 2.98h1.9l.95.73L36.5 30l4-.47 1.3.47h2.08l2.19.5L47 29l.33 1.14-.56 2.87h-1.21c.31.28.94 1.06.94 1.95 0 1.78-1.8 3.04-3.11 3.04H11.3Z"/><path d="M14.42 18c1.82 0 2.67.73 2.57 2.2a3.11 3.11 0 0 1-1.78 2.7 4.6 4.6 0 0 1-2.1.43h-1.25l-.32 1.23-.03.18c0 .07 0 .12.04.15s.1.05.18.05h.74L12.19 26H8l.28-1.06h.53c.18 0 .3-.1.35-.28l1.33-5.22.04-.18c0-.07-.01-.12-.05-.15s-.1-.05-.18-.05h-.5l.28-1.06h4.34Zm-1.57 4.2c.53 0 .95-.2 1.26-.61.31-.41.49-.94.53-1.56.02-.35-.03-.59-.18-.72-.14-.13-.39-.2-.74-.2h-.79l-.8 3.1h.72Z" fill="url(#bvzjljc4g)"/><path d="M15.28 24.94h.54c.19 0 .3-.1.36-.28l1.67-5.22.04-.18c0-.07-.01-.12-.05-.15-.03-.03-.1-.05-.18-.05h-.5l.28-1.06h4.13l-.28 1.06h-.67c-.19 0-.3.1-.35.28l-1.75 5.5h.89c.74 0 .76-.67 1.2-1.74H22l-.87 2.9H15l.28-1.06Z" fill="url(#cvzjljc4g)"/><path d="m31.32 24.82 4.51-5.69h-1.22c-1.24 0-1.28.94-1.7 1.92h-1.37l.8-3.05H39l-.31 1.17-4.51 5.69h.98c1.21 0 1.3-.66 1.7-1.61h1.36L37.37 26H31l.32-1.18Z" fill="url(#dvzjljc4g)"/><path d="M8.05 33.86c.11-.9.38-1.7.8-2.45.4-.74.91-1.33 1.5-1.76.6-.43 1.22-.65 1.87-.65.35 0 .65.07.91.22.26.14.46.36.6.63l.26-.66H15l-.86 2.96H13.1c.08-.62.06-1.1-.07-1.43-.13-.34-.35-.5-.67-.5-.32 0-.65.17-.99.52a4.7 4.7 0 0 0-.87 1.4 7.1 7.1 0 0 0-.51 1.88c-.15 1.13.1 1.7.76 1.7.7 0 1.36-.68 1.95-2.04l.97.14a5.92 5.92 0 0 1-1.5 2.37 3 3 0 0 1-2.05.81c-.5 0-.91-.13-1.26-.39a2.08 2.08 0 0 1-.72-1.1 3.93 3.93 0 0 1-.1-1.65Z" fill="url(#evzjljc4g)"/><path d="M20.32 36h.45c.16 0 .26-.1.32-.28l1.53-5.28.04-.18c0-.07 0-.12-.03-.15s-.08-.05-.15-.05h-.42l.31-1.06h3.52c1.55 0 2.24.57 2.09 1.72-.07.54-.29 1-.64 1.37-.35.37-.85.63-1.47.8.49.08.85.26 1.07.55.22.3.3.67.24 1.14a3.2 3.2 0 0 1-.4 1.18c-.22.37-.57.61-1.04.86-.48.25-1.1.38-1.86.38H20l.32-1Zm4.46-3.6c.33 0 .6-.15.81-.47.2-.31.34-.8.4-1.2.02-.23-.01-.4-.12-.54-.1-.13-.27-.19-.5-.19h-.65l-.67 2.4h.73ZM23.73 36c.44 0 .78-.15 1.02-.45.24-.3.43-.79.49-1.24.03-.25-.01-.45-.14-.6-.12-.14-.33-.2-.62-.2h-.75L23 36h.73Z" fill="url(#fvzjljc4g)"/><path d="M27.32 36h.46c.15 0 .26-.1.32-.28l1.53-5.34.04-.18c.01-.07 0-.12-.02-.15-.03-.03-.08-.05-.15-.05h-.43l.32-1h3.5l-.32 1H32c-.16 0-.26.1-.32.28L30 36h.75c.76 0 1.26-.6 1.54-1.25l.54-1.3H34L32.72 37H27l.32-1Z" fill="url(#gvzjljc4g)"/><path d="m45.76 26 .24-1.06h-.44c-.1 0-.18-.02-.23-.07-.04-.05-.07-.13-.07-.24L44.82 18h-3.3v1.34h.42l-2.87 5.29a.8.8 0 0 1-.2.24.38.38 0 0 1-.23.07h-.39L38 26h2.83l.25-1.06h-.51c-.12 0-.18-.05-.17-.15 0-.05.04-.13.1-.26l.3-.56h2.24l.02.48v.26c0 .16-.1.23-.25.23h-.58L41.98 26h3.78Zm-2.92-6 .14 2.88h-1.62l1.48-2.89Z" fill="url(#hvzjljc4g)"/><path d="m29.76 26 .24-1.06h-.44c-.1 0-.18-.02-.23-.07-.04-.05-.07-.13-.07-.24L28.82 18h-3.3v1.34h.42l-2.87 5.29a.8.8 0 0 1-.2.24.38.38 0 0 1-.23.07h-.39L22 26h2.83l.25-1.06h-.51c-.12 0-.18-.05-.17-.15 0-.05.04-.13.1-.26l.3-.56h2.24l.02.48v.26c0 .16-.1.23-.25.23h-.58L25.98 26h3.78Zm-2.92-6 .14 2.88h-1.62l1.48-2.89Z" fill="url(#ivzjljc4g)"/><path d="m20.76 37 .24-1h-.44c-.1 0-.18-.03-.23-.08-.04-.05-.07-.13-.07-.24L19.82 29h-3.3v1.34h.42l-2.87 5.34a.8.8 0 0 1-.2.24.38.38 0 0 1-.23.08h-.39L13 37h2.83l.25-1h-.51c-.12 0-.18-.05-.17-.15 0-.05.04-.14.1-.26l.3-.62h2.24l.02.54v.26c0 .15-.1.23-.25.23h-.58l-.25 1h3.78Zm-2.92-6 .14 2.88h-1.62l1.48-2.89Z" fill="url(#jvzjljc4g)"/><path d="M33.3 36h.45c.15 0 .25-.1.3-.28l1.48-5.34.04-.18c.01-.07 0-.12-.03-.15-.02-.03-.07-.05-.14-.05h-.41l.3-1H41l-.75 3.22h-1.1l.13-.75c.04-.18.07-.49.09-.65.04-.33 0-.55-.12-.66-.12-.1-.35-.16-.66-.16h-1.03l-.66 2.45h.18c.25 0 .43-.15.52-.47l.23-.79h.98l-1.03 3.63h-.98l.2-.73.05-.19c.01-.12 0-.21-.05-.26-.04-.05-.13-.08-.25-.08h-.16L35.8 36h.94c.32 0 .6-.09.81-.27.22-.17.56-.6.74-1.03l.4-.92h1.12L38.72 37H33l.3-1Z" fill="url(#kvzjljc4g)"/><path d="M44.19 30.21c-.55 0-.84.3-.9.7-.09.73.88 1.06 1.38 1.34.45.26.77.56.96.92.2.36.25.83.18 1.4A2.76 2.76 0 0 1 43.02 37c-.7 0-1.4-.34-1.72-.99L41 37h-1l.76-2.82h1.03c0 .75.37 1.64 1.23 1.64.47 0 .98-.32.98-.82 0-.5-.13-.53-.54-.77l-.78-.44c-.93-.52-1.32-1.26-1.18-2.32.18-1.35 1.18-2.47 2.6-2.47.7 0 1.26.35 1.6.94L46 29h1l-.71 2.66h-1.04c0-.97-.44-1.45-1.06-1.45Z" fill="url(#lvzjljc4g)"/><defs><linearGradient id="avzjljc4g" x1="28" y1="0" x2="28" y2="56" gradientUnits="userSpaceOnUse"><stop stop-color="#DAEFAE"/><stop offset="1" stop-color="#95EB90"/></linearGradient><linearGradient id="bvzjljc4g" x1="12.5" y1="18" x2="12.5" y2="26" gradientUnits="userSpaceOnUse"><stop stop-color="#FCF83F"/><stop offset="1" stop-color="#E13E35"/></linearGradient><linearGradient id="cvzjljc4g" x1="18.97" y1="18" x2="18.97" y2="26" gradientUnits="userSpaceOnUse"><stop stop-color="#FCF83F"/><stop offset="1" stop-color="#E13E35"/></linearGradient><linearGradient id="dvzjljc4g" x1="35.55" y1="18" x2="35.55" y2="26" gradientUnits="userSpaceOnUse"><stop stop-color="#FCF83F"/><stop offset="1" stop-color="#E13E35"/></linearGradient><linearGradient id="evzjljc4g" x1="11.5" y1="29" x2="11.5" y2="37" gradientUnits="userSpaceOnUse"><stop stop-color="#FCF83F"/><stop offset="1" stop-color="#E13E35"/></linearGradient><linearGradient id="fvzjljc4g" x1="24" y1="29" x2="24" y2="37" gradientUnits="userSpaceOnUse"><stop stop-color="#FCF83F"/><stop offset="1" stop-color="#E13E35"/></linearGradient><linearGradient id="gvzjljc4g" x1="30.5" y1="29" x2="30.5" y2="37" gradientUnits="userSpaceOnUse"><stop stop-color="#FCF83F"/><stop offset="1" stop-color="#E13E35"/></linearGradient><linearGradient id="hvzjljc4g" x1="42" y1="18" x2="42" y2="26" gradientUnits="userSpaceOnUse"><stop stop-color="#FCF83F"/><stop offset="1" stop-color="#E13E35"/></linearGradient><linearGradient id="ivzjljc4g" x1="26" y1="18" x2="26" y2="26" gradientUnits="userSpaceOnUse"><stop stop-color="#FCF83F"/><stop offset="1" stop-color="#E13E35"/></linearGradient><linearGradient id="jvzjljc4g" x1="17" y1="29" x2="17" y2="37" gradientUnits="userSpaceOnUse"><stop stop-color="#FCF83F"/><stop offset="1" stop-color="#E13E35"/></linearGradient><linearGradient id="kvzjljc4g" x1="37" y1="29" x2="37" y2="37" gradientUnits="userSpaceOnUse"><stop stop-color="#FCF83F"/><stop offset="1" stop-color="#E13E35"/></linearGradient><linearGradient id="lvzjljc4g" x1="43.5" y1="29" x2="43.5" y2="37" gradientUnits="userSpaceOnUse"><stop stop-color="#FCF83F"/><stop offset="1" stop-color="#E13E35"/></linearGradient></defs></svg>