<svg xmlns="http://www.w3.org/2000/svg" width="56" height="56"><path fill="#F0F3FA" d="M0 0h56v56H0z"/><path fill="#015AAA" d="M12 13h32v20H12z"/><path fill-rule="evenodd" d="M15.27 28.52c-.99.03-1.34.72-1.27 1.48.07.75.56 1.56 1.27 1.84 1.42.56 3.8 1 6.6-.92a21.31 21.31 0 004.17-3.84 21.32 21.32 0 002.46-3.99c.3-.56.59-1.12.9-1.67 1.07-1.88 2.45-4.04 3.8-5.37 2.27 1.4 1.44 4.35.3 5.98-.93 1.34-2.79 2.08-4.34 1.22-.24-.13-.56.28-.27.52 2.12 1.43 5.53.63 6.84-1.48a4.78 4.78 0 00-1.69-6.8l.88-.7c.07-.06.1-.14.08-.22-.03-.19-.25-.38-.57-.26-.5.21-.93.6-1.16.79l-.11.08c-2.76-1.3-7.56-.52-7.92-.4-6-3.87-10.95 3.6-11.22 4.6a.69.69 0 00-.02.22c.01.2.12.38.27.4.14.01.3-.1.46-.4 2.1-3.97 6.07-6.25 9.23-4.6-3.5.94-7.3 3.75-7.9 7.46-.05.33-.07.66-.06.99.04.96.43 1.85 1.43 2.32 4.9 2.3 11.9-6.01 8.48-10.37 1.25-.3 4.47-.47 6.53.26-3.15 1.87-5.01 5.09-6.84 8.24-.86 1.47-1.7 2.93-2.67 4.23-1.25 1.7-3.1 3.71-5.43 3.36-.73-.11-1.4-.38-1.12-.92.28-.7.45-2.08-1.11-2.05zm9.57-13c-3.97 1.02-6.13 3.12-7.2 4.99-.43.76-.7 1.5-.76 2.16-.03.27-.03.5 0 .72.25 2.37 3.42 1.83 5.09.56a9.54 9.54 0 001.93-2.03c1.65-2.3 2.36-5.22.94-6.4z" fill="#F0F3FA"/><path fill="#EE1C25" d="M12 33h32v10H12z"/><path d="M31 25h1l4 5.18V25h1v7h-1l-4-5.22V32h-1v-7z" fill="#F0F3FA"/><path fill-rule="evenodd" d="M39 25h-1v7h2.5a2 2 0 00.79-3.84A1.75 1.75 0 0040.25 25H39zm0 1v1.75h1.13a.88.88 0 000-1.75H39zm0 2.75V31h1.38a1.13 1.13 0 000-2.25H39z" fill="#F0F3FA"/><path d="M19.75 34.13h-.1c0 .8-.58.78-.8.58a2.8 2.8 0 00-1.88-.71c-2 0-2.93 1.72-2.97 3.5-.03 1.24.5 2.65 1.63 3.24.3.16.69.25 1.07.26.7 0 1.05-.22 1.44-.47a9 9 0 01.27-.17c.35-.2 1-.23 1.47.64H20v-2.76c0-.4.35-.4.65-.39h.12v-.15H17.1v.16c.83 0 .9.15.9.38v1.72c0 .59-.89 1.1-1.3.52-.6-.84-.7-1.98-.7-2.98s.23-2.01.6-2.66c.49-.82 1.33-.7 1.96 0 .42.47.86 1.21 1.08 2.17h.1v-2.88zm.93-.13h3.7v.17s-.8-.03-.8.37v5.73c0 .6.8.56.8.56V41h-3.7v-.17s.82.06.82-.56v-5.73c0-.43-.82-.37-.82-.37V34zm8.1 0h-3.6v.17s.82-.06.82.37v5.73c0 .62-.82.56-.82.56V41h5.73v-3.49h-.1l-.25.63c-.48 1.22-1.05 2.65-2.08 2.65-.48 0-.48-.18-.48-.52v-5.73c0-.45.79-.37.79-.37V34zM31 34v3h.12c.23-.84 1.05-2.83 1.63-2.83H33v6.1c0 .62-.78.56-.78.56V41h3.57v-.17s-.79.04-.79-.56v-6.1h.26c.55 0 1.39 1.99 1.62 2.83H37v-3h-6zm10.59 0h-.18c0 .79-.3.86-.4.74-.42-.48-1-.74-1.58-.74-.5 0-1.02.22-1.4.64-.75.83-.82 2.45.1 3.2.4.32.95.6 1.47.87l.77.4a.9.9 0 01.49.8c0 .26-.09.47-.23.61-.18.17-.43.26-.7.27-.68 0-1.15-.37-1.51-.88a5.65 5.65 0 01-.88-2.18h-.16V41h.16c0-.08.03-.53.14-.82.07-.22.25-.2.46-.06l.36.27a2.5 2.5 0 001.43.6c.4.03.72-.07.92-.18 1.35-.71 1.27-2.25.96-2.95-.38-.84-1.06-1.17-1.93-1.57l-.72-.36c-.7-.36-.92-1.6 0-1.74.8-.12 1.83.4 2.26 2.29h.17V34z" fill="#FEF004"/></svg>