<svg width="56" height="56" viewBox="0 0 56 56" xmlns="http://www.w3.org/2000/svg"><path fill="url(#aozfjcije)" d="M0 0h56v56H0z"/><path d="M43.94 11h.47c.52.06 1.03.16 1.5.32.12.03.12.05 0 .05a4.5 4.5 0 0 0-1.33.17c-.49.13-.9.34-1.23.6-.53.44-.94.98-1.23 1.64-.31.7-.55 1.49-.7 2.35l-.05.23c-.12.65-.2 1.13-.24 1.44a37.52 37.52 0 0 1-.62 3.47 6.33 6.33 0 0 1-1.82 3.34 4.01 4.01 0 0 1-3.66.84c-.5-.15-.91-.4-1.22-.75-.32-.36-.51-.8-.57-1.3a3.78 3.78 0 0 1 .17-1.5c.55.05 1.1.02 1.64-.1a4 4 0 0 0 1.99-1.13 8.1 8.1 0 0 0 1.42-2.2 29.47 29.47 0 0 0 .88-2.18c.3-.82.54-1.43.71-1.83.23-.54.46-1 .7-1.39.28-.47.6-.86.92-1.16a3.53 3.53 0 0 1 2.27-.91Zm-25.68 9.1a3.78 3.78 0 0 0 3.02 1.5 5.17 5.17 0 0 0 .89-.07c.02 0 .04.01.04.04.1.47.13.91.13 1.33 0 .47-.07.89-.2 1.24-.14.4-.36.72-.65.96-.32.26-.73.42-1.22.47-.3.03-.67 0-1.1-.1a8.74 8.74 0 0 1-.74-.2 4.66 4.66 0 0 1-1.85-1.23 6.68 6.68 0 0 1-1.35-2.69c-.16-.62-.27-1.14-.33-1.56a76.6 76.6 0 0 1-.25-1.71c-.12-.91-.22-1.59-.3-2.04-.15-.88-.34-1.6-.57-2.15a3.97 3.97 0 0 0-1.3-1.75 4.13 4.13 0 0 0-2.48-.72l.01-.01a.32.32 0 0 0 .18-.1c.06.01.1.02.13 0a4.8 4.8 0 0 1 1.55-.28 3.7 3.7 0 0 1 1.53.28c.6.25 1.12.7 1.55 1.35.33.5.64 1.16.94 1.99.3.82.57 1.64.85 2.45.36 1.08.8 2 1.29 2.73.06.1.14.2.23.28Zm19.17 5.65c.5-.05.96.02 1.35.22.66.33 1.24.77 1.74 1.32l1.2 1.28c.17.19.35.35.55.48v.02c-.77.51-1.55.93-2.33 1.24a8.45 8.45 0 0 1-2.58.6 4.23 4.23 0 0 1-3.12-.96c-.05-.04-.06-.03-.03.03.15.35.28.7.38 1.05.36 1.2.26 2.33-.31 3.38-.2.38-.39.68-.55.9a30.4 30.4 0 0 0-1.18 1.75 7.65 7.65 0 0 0-.68 1.42c-.1.3-.17.69-.22 1.17l-.24 2.19c-.04.33-.11.67-.22 1.03-.3 1-.95 1.63-1.97 1.92-.26.07-.54.13-.85.17a4.44 4.44 0 0 1-2.7-.52 2.6 2.6 0 0 1-1.16-1.56 6.1 6.1 0 0 1-.21-1.04l-.21-1.97a6.79 6.79 0 0 0-.18-1.12 8.37 8.37 0 0 0-.96-2c-.25-.39-.53-.8-.84-1.22-.34-.48-.6-.91-.79-1.3a4.2 4.2 0 0 1-.28-2.9c.1-.44.26-.89.47-1.34.03-.08.02-.09-.05-.03a4.1 4.1 0 0 1-1.52.8 4.6 4.6 0 0 1-2.17.1 7.92 7.92 0 0 1-1.94-.53c-.61-.26-1.2-.55-1.79-.87l-.6-.38.39-.34c.25-.25.59-.62 1.02-1.1.3-.33.64-.66 1.03-1l.37-.28c.46-.33.97-.54 1.52-.62.2 0 .41.01.65.04l.65.1.27.06c.4.07.7.1.9.08.31-.02.62-.1.93-.25a2.71 2.71 0 0 0 1.61-1.89c.1-.38.12-.8.08-1.25a5.46 5.46 0 0 0-.3-1.33.16.16 0 0 1 0-.12c.12-.29.35-.55.68-.77.28-.18.6-.33.98-.43a5.8 5.8 0 0 1 3.66.2c.48-.23 1.1-.36 1.83-.4.61-.04 1.2.03 1.8.2.74.22 1.27.58 1.6 1.1.03.06.05.1.06.16a2.65 2.65 0 0 0 .95 4.3c.17.11.37.22.63.32.43.17.89.2 1.36.12l1.32-.23Zm-5.45 4.93c.68-.4 1.16-.83 1.1-.95-.08-.13-.68.09-1.35.5-.67.4-1.16.82-1.09.95.07.13.67-.1 1.34-.5Zm-8.27.33c.66.4 1.26.62 1.33.5.07-.14-.41-.56-1.08-.96-.66-.4-1.26-.63-1.33-.5-.07.13.41.56 1.08.96Zm2.06 12.52.35.13a5.9 5.9 0 0 0 2.97.19c.43-.1.8-.3 1.11-.58.05-.05.04-.07-.02-.07l-4.67.02c-.08 0-.1.03-.03.1.07.08.17.15.3.2Z" fill="#E81E25"/><defs><linearGradient id="aozfjcije" x1="10.42" y1="9.71" x2="68.15" y2="76.02" gradientUnits="userSpaceOnUse"><stop stop-color="#1A1E21"/><stop offset="1" stop-color="#06060A"/></linearGradient></defs></svg>