<svg xmlns="http://www.w3.org/2000/svg" width="56" height="56"><path fill="#1B3F73" d="M0 0h56v56H0z"/><path d="M5.44 25h2.97c.54.02 1.6.36 1.63 1.56.02 1.5-1.14 2.35-2.61 2.44H6.29l-.64 3H4l1.44-7zm1.07 3h.9c.43 0 .82-.43.92-1 .13-.75-.4-1-.61-1h-.8l-.4 2zm22.22-3h2.97c.54.02 1.6.36 1.63 1.56.03 1.5-1.14 2.35-2.61 2.44h-1.14l-.64 3H27.3l1.44-7zm1.07 3h.9c.43 0 .82-.43.92-1 .13-.75-.4-1-.61-1h-.8l-.4 2z" fill="#fff"/><path fill-rule="evenodd" d="M15.25 31.16c1.68-1.26 2.25-3.47 1.28-4.94-.97-1.47-3.11-1.63-4.78-.38-1.68 1.26-2.25 3.47-1.28 4.94.97 1.47 3.1 1.63 4.78.38zm-.4-1.34c.82-.96.87-2.32.12-3.05-.74-.73-2.01-.54-2.82.41-.82.96-.87 2.32-.12 3.05.74.73 2.01.54 2.82-.41z" fill="#fff"/><path d="M20.1 25h-1.66L17 32h4.34l.42-1H18.8l1.3-6zm15.6 0h-1.66l-1.46 7h4.35l.42-1h-2.96l1.3-6zm-12.07 0h-1.87l1.79 3.8-.68 3.2h1.63l.6-3.13L28.45 25h-1.89l-1.92 2.23-1-2.23zm15.34 0h4.25l-.24 1h-2.6l-.43 2h2.77l-.3 1h-2.71l-.45 2h2.96l-.32 1h-4.38l1.45-7zm6.63 0h-1.95l1.75 2.88 1.25-1.23L45.6 25zm4.26 7l-1.97-3.1-1.24 1.2 1.17 1.9h2.04z" fill="#fff"/><path d="M49.93 24H52l-7.82 8h-2.1l7.85-8z" fill="#73B203"/></svg>