<svg xmlns="http://www.w3.org/2000/svg" width="56" height="56"><path fill="#F0F3FA" d="M0 0h56v56H0z"/><path d="M15.5 25h-1v2.5h-2.52v1h2.52V31h1v-2.5h2.6v-1h-2.6V25z" fill="#EE1D23"/><path fill-rule="evenodd" d="M4 32v-8h3.7c.73 0 2.3.6 2.3 2.5 0 1.95-1.54 2.5-2.3 2.5H5v3H4zm1-7h2.73c.4 0 1.24.35 1.27 1.41.03 1.05-.86 1.59-1.27 1.59H5v-3z" fill="#0F939B"/><path fill-rule="evenodd" d="M15 32a4 4 0 100-8 4 4 0 000 8zm0-.17c1.66 0 3-1.71 3-3.83s-1.34-3.83-3-3.83-3 1.71-3 3.83 1.34 3.83 3 3.83z" fill="#FECA0A"/><path d="M20.02 32v-8H21v7h2.92l1.55-2.35L22 24h1.22l2.83 3.72L28.5 24h1.21l-5.27 8h-4.42zm10.45-8l-5.21 8h1.1l4.36-6.53L32.5 32h1l2.5-5.44V32h.99v-8H36l-2.9 6.52L31.44 24h-.97zM44 24h-6v8h6v-1h-5v-2.5h5v-1h-5V25h5v-1z" fill="#0F939B"/><path fill-rule="evenodd" d="M45 24h3.13c1.2 0 3.83.89 3.87 3.96.04 3.08-2.57 4.04-3.88 4.04H45v-8zm1 1h2.23c.86 0 2.74.67 2.77 2.97A2.84 2.84 0 0148.23 31H46v-6z" fill="#0F939B"/></svg>