<svg width="56" height="56" viewBox="0 0 56 56" xmlns="http://www.w3.org/2000/svg"><path fill="#F0F3FA" d="M0 0h56v56H0z"/><path fill-rule="evenodd" d="M19.94 45.11a10.39 10.39 0 0 1-4.23-3.43 13.8 13.8 0 0 1-2.35-5.52 19.64 19.64 0 0 1-.13-6.76c.35-2.38 1.06-4.7 2.13-6.97a25.17 25.17 0 0 1 4.04-6.13 20.9 20.9 0 0 1 5.36-4.34 14.84 14.84 0 0 1 5.85-1.9 10.39 10.39 0 0 1 9.68 4.27 13.8 13.8 0 0 1 2.35 5.5c.43 2.14.47 4.39.13 6.77a25.17 25.17 0 0 1-6.17 13.1 20.9 20.9 0 0 1-5.36 4.34 14.84 14.84 0 0 1-5.85 1.9c-1.96.19-3.78-.09-5.45-.83Zm.44-.95a9.42 9.42 0 0 1-3.88-3.2 12.84 12.84 0 0 1-2.14-5.17c-.38-2-.4-4.12-.06-6.36a23.73 23.73 0 0 1 2.03-6.57 24.2 24.2 0 0 1 3.8-5.8c1.53-1.71 3.2-3.1 5-4.12a13.82 13.82 0 0 1 5.44-1.84 9.42 9.42 0 0 1 8.93 3.94 12.84 12.84 0 0 1 2.13 5.17c.38 2 .4 4.12.06 6.36a23.73 23.73 0 0 1-2.03 6.57 24.2 24.2 0 0 1-3.8 5.8 19.82 19.82 0 0 1-5 4.12 13.82 13.82 0 0 1-5.44 1.84c-1.81.19-3.5-.06-5.04-.74Zm-3.6-6.18a91.3 91.3 0 0 1 7.54-14.06c2.6-3.85 5.35-6.7 8.22-8.56.33-.21.3-.33-.1-.35a7.69 7.69 0 0 0-4.67 1.17c-1.15.74-2.22 1.9-3.2 3.47a66.6 66.6 0 0 0-5.06 9.76c-1.02 2.48-2 5.3-2.92 8.44-.02.06 0 .1.07.13l.06.02c.03 0 .04 0 .05-.02ZM37.45 22a9.09 9.09 0 0 0-3.61-6.75.16.16 0 0 1-.07-.17c.02-.06.05-.09.11-.09.96-.02 1.8.2 2.53.63.67.4 1.18.96 1.54 1.68.35.7.52 1.46.5 2.3a5.77 5.77 0 0 1-.61 2.48c-.23.45-.36.43-.39-.08Zm-5.44 5.84a16.9 16.9 0 0 0 5.02-2.75.1.1 0 0 0 .04-.1 43.41 43.41 0 0 0-.27-1.29h-.04c-2.41 2.09-5.91 3.71-10.48 4.88-.07.02-.1.06-.1.13.02.06.05.1.12.1 2-.02 3.9-.34 5.71-.97Z" fill="#01A251"/></svg>