<svg xmlns="http://www.w3.org/2000/svg" width="56" height="56"><path fill="#F0F3FA" d="M0 0h56v56H0z"/><path d="M45 11l-2.73 7.31-.75-1.86-2.14 2.14-1.98-1.98 2.11-2.12-1.88-.77L45 11zM18.44 39.5l-1.98-1.98-4.5 4.47 2 2.01 4.48-4.5z" fill="#F3132B"/><path d="M28 18.49a9.51 9.51 0 100 19.02 9.51 9.51 0 000-19.02zM18 28a10 10 0 1120 0 10 10 0 01-20 0z"/><path fill-rule="evenodd" d="M30 13.25v2.29c1.95.32 3.5.92 5.34 2.2l1.67-1.65c.1-.1.25-.1.35 0l2.56 2.43c.1.1.1.25 0 .35L38.2 20.6a12.29 12.29 0 012.22 5.4h2.35c.13 0 .24.11.24.25v3.5c0 .13-.11.24-.25.24H40.4a12.45 12.45 0 01-2.24 5.34l1.78 1.77c.1.1.1.25 0 .35l-2.51 2.47c-.1.1-.26.1-.35 0l-1.78-1.77a12.62 12.62 0 01-5.3 2.18v2.41c0 .14-.12.25-.26.25h-3.47a.25.25 0 01-.25-.25l-.01-2.4a12.5 12.5 0 01-5.34-2.22l-1.77 1.8c-.1.1-.26.1-.35 0l-2.46-2.53a.25.25 0 010-.35l1.74-1.76A12.15 12.15 0 0115.6 30h-2.34a.27.27 0 01-.26-.26v-3.47c0-.14.12-.26.26-.26l2.33-.01a12.2 12.2 0 012.2-5.38l-1.71-1.68a.25.25 0 010-.35l2.49-2.51c.1-.1.25-.1.35 0l1.68 1.7a12.52 12.52 0 015.4-2.26v-2.27c0-.14.12-.25.26-.25h3.48c.14 0 .26.11.26.25zm5.73 4.84l1.46-1.47 2.19 2.06-1.49 1.49a.63.63 0 00-.06.81 11.57 11.57 0 012.09 5.04c.05.28.27.48.56.48h2.02v3h-2.04c-.29 0-.53.2-.57.48a12.1 12.1 0 01-2.04 4.92c-.2.26-.23.62 0 .85l1.54 1.54-2.14 2.1-1.54-1.56c-.23-.23-.5-.22-.76-.04A11.95 11.95 0 0130 39.84a.6.6 0 00-.5.58l-.02 2.08H26.5v-2.1a.6.6 0 00-.5-.56c-1.79-.32-3.5-1-4.98-2.06-.25-.18-.54-.17-.77.06l-1.55 1.55-2.08-2.15 1.51-1.53c.23-.22.2-.55.02-.81a11.45 11.45 0 01-2.03-4.9.61.61 0 00-.6-.5H13.5v-3h2.03c.28 0 .5-.19.56-.47.36-2.06 1-3.52 2.06-5.04.16-.24.17-.58-.03-.78l-1.53-1.48 2.14-2.1 1.45 1.46c.22.2.49.26.73.08A11.78 11.78 0 0126 16.04c.28-.04.5-.28.5-.56V13.5h3v1.96c0 .46.34.55.5.57 1.87.31 3.45.95 5 2.1.22.17.53.15.73-.04z"/><path d="M33 27h-4.42L33 22l-10 6 4.96.62L24 34l9-7z" fill="#00736C"/></svg>