<svg width="56" height="56" xmlns="http://www.w3.org/2000/svg"><path fill="#034EA2" d="M0 0h56v56H0z"/><path d="M29.655 31.936l-1.256-.761-.04 12.8-.061.01-.066.008-.068.005-.071.002-.071-.002-.074-.005-.073-.01-.072-.013-1.436-16.474 1.144.753.176-14.516 1.968 18.203z" fill="#ED1D24"/><path d="M12 30h11.391l.013-.146.018-.035.02-.04.025-.04.028-.042.033-.042.036-.043.038-.04.04-.037.043-.035.043-.035.046-.027.025-.013.023-.012.023-.01.023-.008.025-.007.023-.005.023-.005.025-.003 1.717-.007.122 1.632H12.109L12 30zm.334 2h10.572l.01-.12.018-.035.02-.04.026-.044.03-.045.033-.048.036-.047.038-.045.04-.045.04-.042.047-.04.045-.035.023-.015.023-.013.023-.012.025-.01.023-.01.023-.008.025-.002.023-.003 2.404-.007.111 1.666h-13.49l-.168-1zm.196-8h10.14v-.09l.019-.04.02-.044.025-.045.028-.05.033-.05.036-.05.038-.05.04-.047.043-.045.043-.043.046-.037.026-.015.022-.015.023-.012.023-.01.025-.01.023-.008.023-.005.025-.002 3.543-.008-.02 1.676H12.347l.183-1zm.641-2h9.652l.013-.076.017-.04.02-.045.026-.05.028-.052.033-.055.035-.055.038-.055.041-.052.043-.05.043-.045.046-.04.025-.02.023-.015.023-.015.023-.012.025-.01.023-.008.023-.005.025-.002 3.431-.008-.015 1.71H12.877l.294-1zm.956-2h9.426l.01-.071.018-.04.02-.043.026-.045.03-.047.033-.05.036-.05.038-.05.04-.047.044-.045.043-.04.045-.037.023-.015.023-.015.023-.013.025-.012.023-.008.023-.007.025-.005.023-.002 2.723-.008L26.84 21H13.745l.383-1zm-1.19 14h9.454l.028-.04.045-.097.03-.055.034-.055.035-.06.038-.057.04-.058.041-.052.046-.05.046-.045.022-.02.023-.017.023-.015.026-.013.022-.01.023-.01.026-.004.022-.003 3.14-.005.096 1.666H13.198l-.261-1zm.912 2h8.241l.01-.055.018-.037.02-.043.026-.047.03-.052.033-.053.036-.052.038-.053.04-.052.04-.047.047-.045.045-.04.023-.018.023-.015.023-.015.025-.01.023-.01.023-.007.025-.005.023-.002 3.687-.008.099 1.666H14.262l-.413-1zm1.117 2h6.467l.012-.055.015-.037.023-.04.026-.045.027-.047.034-.05.035-.05.038-.05.04-.048.044-.045.043-.042.046-.037.022-.015.026-.015.023-.013.022-.012.026-.01.023-.005.022-.005.026-.003 4.476-.007.114 1.631H15.494l-.528-1zm1.751 2h4.342l.049-.095.027-.057.033-.063.036-.062.038-.062.04-.06.044-.06.043-.052.045-.048.023-.022.025-.018.023-.017.023-.015.026-.01.022-.01.023-.005.026-.002 5.05-.008L26.77 41h-9.247l-.664-.736-.058-.057-.051-.055-.038-.047-.013-.02-.01-.02-.008-.018-.002-.012.002-.013.008-.007.01-.008.018-.007zM12 29v-1h11.913l.013-.045.015-.042.023-.045.026-.05.027-.053.033-.054.036-.055.038-.053.04-.052.044-.047.043-.045.045-.04.023-.018.026-.015.022-.015.023-.012.026-.01.022-.008.023-.005.026-.002 1.08.005.147 1.661H12zm.099-3H23.31l.013-.075.015-.04.023-.042.025-.048.028-.047.033-.05.035-.052.038-.048.041-.05.043-.044.043-.04.046-.038.023-.015.022-.015.026-.012.023-.01.023-.01.025-.008.023-.005.023-.002 2.791.005L26.68 27H12l.099-1zm6.291 16h8.432L27 44l-.276-.006-.282-.015-.283-.017-.29-.024-.29-.026-.294-.033-.294-.035-.298-.041-.3-.044-.298-.048-.301-.053-.297-.056-.298-.059-.297-.061-.294-.065-.29-.068-.29-.07-.287-.074-.283-.074-.275-.08-.272-.079-.269-.083-.257-.082-.254-.085-.25-.089-.24-.088-.232-.088-.221-.089-.214-.091-.203-.091-.196-.092L18.39 42zm-2.883-24h9.117l.022-.076.023-.05.026-.05.027-.045.028-.045.03-.042.031-.04.036-.038.033-.037.035-.033.038-.03.04-.03.041-.027.04-.025.044-.022.046-.02 1.732.02V19h-10.52l-.037.071-.04.057-.044.068-1.61.017.038-.082.04-.082.041-.08.043-.08.046-.08.048-.077.048-.078.053-.077.054-.077.056-.075.058-.075.06-.075.067-.074.066-.075.07-.075.074-.051zm1.765-2h7.99l.008-.05.01-.06.013-.056.018-.06.02-.058.025-.054.026-.058.03-.052.033-.053.036-.05.04-.047.04-.045.046-.042.049-.038.048-.035 1.24.02V17h-8.48l-.355.21-1.922-.007.121-.152.122-.147.127-.148.132-.142.066-.07.068-.07.071-.07.071-.07.074-.067.076-.067.076-.067.081-.133zm.961-.745l.117-.082.114-.083.114-.082.112-.082.111-.08.112-.08.109-.08.111-.077.112-.075.114-.077.114-.073.117-.072.116-.07.12-.067.121-.067.127-.108h6.254l.023-.184.025-.127.028-.128.028-.13.03-.131.033-.133.033-.132.036-.132.038-.132.038-.133.04-.13.043-.126.046-.128.046-.122.045-.12L27 12v3h-5.305l-.997.295-2.465-.04zM44 30H32.609l-.013-.099-.018-.037-.02-.042-.025-.043-.028-.045-.033-.047-.036-.045-.038-.045-.04-.042-.043-.04-.046-.038-.043-.032-.026-.015-.022-.012-.023-.01-.023-.01-.025-.008-.023-.007-.023-.005-.025-.003-1.983-.007L30.2 31h13.69l.11-1zm-.424 2H33.004l-.01-.1-.017-.035-.02-.042-.026-.045-.03-.047-.034-.048-.035-.05-.038-.047-.04-.047-.041-.045-.046-.04-.046-.035-.022-.018-.023-.015-.023-.012-.025-.01-.023-.01-.023-.005-.025-.005-.023-.003-2.242-.007.132 1.666h13.085l.167-1zm-.09-8H33.345l-.013-.075-.018-.04-.02-.045-.025-.047-.028-.052-.033-.05-.036-.052-.038-.053-.04-.047-.043-.048-.044-.042-.045-.038-.026-.017-.022-.015-.023-.012-.023-.013-.025-.01-.023-.007-.023-.005-.025-.003-3.398-.005.134 1.676h14.16l-.182-1zm-.708-2h-9.652l-.012-.073-.018-.04-.02-.045-.026-.05-.028-.053-.033-.055-.035-.057-.038-.052-.04-.055-.044-.05-.043-.045-.046-.042-.025-.018-.023-.015-.023-.015-.022-.012-.026-.01-.023-.008-.022-.005-.026-.002-3.38-.008.068 1.71h13.831l-.294-1zm-.906-2h-9.425l-.01-.07-.018-.04-.02-.043-.026-.045-.03-.05-.033-.05-.036-.05-.038-.05-.04-.047-.043-.045-.044-.042-.045-.035-.023-.017-.023-.013-.025-.015-.023-.01-.023-.01-.025-.007-.023-.003-.023-.002-2.896-.008.127 1.652h13.148l-.383-1zm1.18 14H33.57l-.046-.127-.03-.055-.033-.06-.036-.057-.038-.06-.04-.058-.043-.054-.043-.05-.046-.045-.023-.02-.023-.018-.025-.015-.023-.012-.023-.013-.023-.007-.025-.005-.023-.002-3.763-.008L29.168 35H42.79l.262-1zm-.872 2l-8.252.002-.018-.04-.02-.044-.025-.053-.03-.055-.034-.057-.035-.057-.038-.06-.04-.055-.041-.055-.046-.05-.046-.042-.023-.02-.022-.018-.023-.015-.026-.012-.022-.013-.023-.007-.025-.005-.023-.002-3.895-.008-.1 1.666h12.393l.414-1zm-1.3 2h-6.466l-.012-.05-.016-.037-.022-.04-.026-.048-.028-.047-.032-.05-.036-.05-.038-.05-.04-.05-.044-.045-.043-.042-.045-.037-.023-.015-.026-.015-.022-.015-.023-.01-.026-.01-.023-.008-.022-.005-.026-.002-4.56-.005L29.169 39h11.185l.528-1zm-1.795 2.002H34.75l-.048-.1-.028-.06-.033-.059-.036-.062-.038-.063-.04-.06-.044-.06-.043-.052-.045-.047-.023-.02-.026-.02-.022-.015-.023-.015-.026-.013-.022-.007-.023-.007-.026-.003-5.051-.005L29.039 41h9.24l.723-.798.05-.055.038-.047.013-.02.01-.02.008-.018.002-.012-.002-.013-.008-.007-.01-.008h-.018zM44.004 28H32.09l-.013-.075-.015-.04-.023-.045-.025-.047-.028-.052-.033-.05-.035-.053-.038-.05-.04-.05-.044-.044-.043-.043-.046-.037-.023-.018-.025-.015-.023-.012-.023-.01-.025-.01-.023-.008-.023-.005-.025-.002-1.752.005.104 1.661h14.135v-1zm-.103-2H32.69l-.013-.028-.015-.04-.023-.047-.025-.05-.028-.052-.033-.053-.035-.054-.039-.055-.04-.053-.043-.05-.043-.044-.046-.04-.023-.018-.023-.015-.025-.015-.023-.012-.023-.01-.025-.008-.023-.005-.023-.002-2.487.005.111 1.646H44l-.099-1zm-6.494 16H28.96l-.162 2 .255-.006.261-.015.272-.017.275-.021.284-.027.288-.029.292-.035.298-.042.298-.041.305-.047.3-.05.309-.056.304-.056.305-.062.305-.065.301-.065.298-.071.295-.074.291-.073.288-.08.279-.08.274-.08.269-.085.258-.086.252-.088.241-.089.232-.091.222-.091.209-.095.195-.094.185-.095.17-.094zm3.086-24h-9.117l.008-.06.003-.038.002-.038-.002-.035-.008-.034-.008-.035-.012-.035-.016-.035-.017-.033-.023-.035-.023-.032-.028-.035-.03-.032-.036-.035-.035-.035-.04-.035-2.346-.002.162 1.584h10.288l.038.072.04.057.044.067 2.018.018-.038-.082-.04-.083-.041-.08-.043-.08-.046-.08-.048-.077-.048-.077-.053-.077-.054-.078-.056-.074-.058-.075-.06-.075-.067-.075-.066-.075-.07-.075-.074-.051zm-1.765-2h-7.985v-.034l-.005-.052-.008-.05-.01-.05-.015-.05-.018-.052-.023-.05-.025-.05-.028-.05-.03-.052-.036-.05-.04-.05-.044-.052-.045-.05-.049-.05-1.772-.002.094 1.541h8.439l.355.414 2.33-.008-.121-.152-.122-.147-.127-.147-.132-.142-.066-.07-.068-.07-.071-.07-.071-.07-.307-.335zm-5.173-1h-5.206v-3l.147.013.046.12.045.122.046.127.043.127.04.13.038.132.038.133.036.132.035.132.031.132.03.132.03.13.026.127.026.127.022.123.02.061h6.878l.127.108.121.068.12.067.116.07.117.072.114.072.114.078.112.075.111.077.11.08.11.08.112.08.112.082.114.082.114.082.117.083-3.216.04-.996-.296z" fill="#fff"/></svg>