<svg width="56" height="56" viewBox="0 0 56 56" xmlns="http://www.w3.org/2000/svg"><path fill="#F0F3FA" d="M0 0h56v56H0z"/><path d="M5 34V22h2.92c1.03-.06 3.08.49 3.08 3.25 0 3.3-2.45 3.26-3.1 3.25H6.5V34H5Zm1.5-10.5v4h1.14c.9 0 1.86-.28 1.86-1.95 0-1.68-1.1-2.06-1.66-2.05H6.5ZM13 22v12h1.5v-5.37h.11L18.4 34H20l-3.87-5.38c.82-.02 2.87-.3 2.87-3.37 0-2.76-1.94-3.31-3-3.24h-3Zm1.5 5.5v-4h1.34c.55-.01 1.66.37 1.66 2.05 0 1.67-.96 1.95-1.86 1.95H14.5ZM20 34h1.43l3.54-8.94C26.18 28.13 28.6 34 28.6 34H30l-5.03-12L20 34ZM35 34h1.44l3.53-8.94c1.22 3.07 3.65 8.94 3.65 8.94H45l-5.03-12L35 34Z" fill="#231F20"/><path d="M25 34h-2.68L25 27v7ZM40 34h-2.67L40 27v7Z" fill="#FFF200"/><path d="M33 30.82V22h1.5v9.1c0 1.95-.94 2.9-2.6 2.9-1.33 0-2.06-.76-2.27-1.14l.86-.94c.2.29.8.87 1.52.87.9 0 1-1.32.99-1.97ZM47 28.53 43.22 22h1.52l2.9 5.21L50.5 22H52l-3.5 6.53V34H47v-5.47Z" fill="#231F20"/></svg>