<svg xmlns="http://www.w3.org/2000/svg" width="56" height="56"><path fill="#F0F3FA" d="M0 0h56v56H0z"/><path d="M32.4 15.24c-11.39-.89-12.24.91-14.03 1.81 5.62-2.27 6.74 3.4 12.35 3.4 3.37 0 7.86-3.4 12.91-4.2-3.93-.33-8.3-.78-11.22-1.01z" fill="#00B0BD"/><path d="M30.72 19.32c-4.49 0-7.86-4.54-12.35-2.27 5.62-2.27 6.74 3.4 12.35 3.4 3.37 0 7.86-3.4 12.91-4.2-4.49.24-9.54 3.07-12.9 3.07z" fill="#086972"/><path d="M21.97 24.52C16.3 29.32 11.6 32.29 9 39.73c0 0-.17-8.5 8.65-18.64.92-.98 1.9-2.28.72-3.47 6.74-1.13 8.03 3.13 3.6 6.9z" fill="#71BF45"/><path d="M24.4 21.22a7.49 7.49 0 01-2.43 3.3c-4.54 3.85-8.45 6.52-11.17 11.24 0 0 .6-2.83 4.5-7.12 2.69-2.96 6.67-4.7 9.1-7.42z" fill="#519036"/><path d="M11.08 37.46c10.1-9.07 24.13.57 32.55 4.54-6.73-4.54-11.78-16-16.84-16.78-6.19-.95-12.48 7.57-15.71 12.24z" fill="#00529C"/><path d="M11.08 37.46c10.1-9.07 24.13.57 32.55 4.54-7.3-3.97-13.85-8.84-19.08-9.64-4.05-.62-9.54.57-13.47 5.1z" fill="#072C71"/><path d="M31.85 23.86c0-3.63 9.54-6.24 15.15-6.8-7.3 3.96-8.06 15.5-4.49 22.1-7.3-6.23-10.66-12.47-10.66-15.3z" fill="#F25822"/><path d="M47 17.05c-7.3 3.97-8.06 15.5-4.49 22.12-5.05-6.8-4.5-19.28 4.49-22.12z" fill="#B93F10"/></svg>