<svg width="56" height="56" viewBox="0 0 56 56" xmlns="http://www.w3.org/2000/svg"><path fill="#F0F3FA" d="M0 0h56v56H0z"/><path d="M30 44a16.05 16.05 0 0 0 13.87-18h-2.68c-.31 3.93-2.92 10.61-11.19 11.6V44ZM26 44v-6.38c-.55-.06-1.07-.14-1.57-.24a29.37 29.37 0 0 1-5.2 4.1C21.22 42.8 23.53 43.7 26 44ZM42.82 22c-.28-.7-.6-1.36-.98-2H14.16c-.37.64-.7 1.3-.98 2h29.64ZM12.13 26a16.03 16.03 0 0 0 3.84 12.64 24.1 24.1 0 0 0 4.67-2.7c-4.22-2.46-5.65-6.98-5.82-9.94h-2.69ZM14.79 19H41.2c-.23-.34-.48-.68-.74-1H15.53c-.26.32-.5.66-.74 1ZM16.4 17h23.2c-.33-.35-.67-.68-1.03-1H17.43c-.36.32-.7.65-1.03 1ZM18.69 15H37.3a16 16 0 0 0-1.57-1H20.26c-.54.3-1.07.64-1.57 1ZM22.43 13h11.14a15.91 15.91 0 0 0-11.14 0ZM26 33.6c-4.97-.84-6.86-5-7.27-7.6H26v7.6ZM37.32 26c-.5 2.56-2.5 6.62-7.32 7.55V26h7.32Z" fill="#01457D"/></svg>