<svg width="56" height="56" viewBox="0 0 56 56" xmlns="http://www.w3.org/2000/svg"><path fill="#F0F3FA" d="M0 0h56v56H0z"/><path fill-rule="evenodd" d="M28 45a17 17 0 1 0 0-34 17 17 0 0 0 0 34Zm0-.5a16.5 16.5 0 1 0 0-33 16.5 16.5 0 0 0 0 33Z" fill="#3D8E81"/><path d="M40 28a12 12 0 0 1-18 10.4v-6.8a7 7 0 1 0-1-3.65V43.3l-2.52-1.63L16 39.55V28a12 12 0 0 1 24 0Z" fill="#3D8E81"/><path fill-rule="evenodd" d="M28 34a6 6 0 1 0 0-12 6 6 0 0 0 0 12Zm-.2-11.95c-1.06.33-3.2 1.54-3.2 3.67 0 2.44 3.08 4.02 3.8 4.39l.12.06c.26.16 1.86 1.21 0 3.74a3.6 3.6 0 0 0 2.86-3.74c0-1.16-.99-2.14-1.48-2.5a72.8 72.8 0 0 1-2.41-2.08c-.4-.41-1.32-1.86.32-3.54Z" fill="#A6A7A7"/></svg>