<svg width="56" height="56" viewBox="0 0 56 56" xmlns="http://www.w3.org/2000/svg"><path fill="#F0F3FA" d="M0 0h56v56H0z"/><path d="M51.21 20.15c.46 0 .72.35.79.52-1.05 0-1.48 1.12-2.48 2.06A5.98 5.98 0 0 1 46.2 24c1.09-.52 1.37-.95 1.37-1.27 0-.32-.03-.33-.16-.59-.12-.25-.96-1.89-1-2.26-.03-.37-.12-.46-.41-.88 1.66 0 2.55 1.88 3.4 1.88.83 0 1.24-.73 1.81-.73ZM41.96 35C40.04 35 39 33.69 39 31.82V31h2v.77c0 .82.25 1.23.95 1.23S43 32.6 43 31.74c0-1.25-.84-1.9-1.73-2.66-1.21-1.06-2.27-2.25-2.27-3.94C39 23.3 40.15 22 42.04 22c1.9 0 2.96 1.35 2.96 3.18V26h-2v-.75c0-.89-.3-1.25-.95-1.25-.67 0-1.05.4-1.05 1.21 0 1.18.95 1.81 1.79 2.53 1.27 1.1 2.21 2.3 2.21 4.05 0 1.88-1.1 3.21-3.04 3.21ZM36 22h2v13h-2V22ZM30.32 28.35 28.1 22h2.11l1.28 4.2L33 22h1.9l-2.22 6.35L35 35h-2.11l-1.39-4.53L29.9 35H28l2.32-6.65ZM23.12 22h2.76L28 35h-2.04l-.37-2.54h-2.32L22.89 35H21l2.12-13Zm2.22 8.7-.9-6.43-.93 6.42h1.83ZM14 22h2.89c1.89 0 3.11 1.13 3.11 2.99V26c0 1.35-.65 2-1.5 2.35v.04c1.14.36 1.5 1.72 1.5 2.75v2.28c0 .54 0 1.08.21 1.58h-2.03a4.9 4.9 0 0 1-.18-1.6v-2.37c0-.88-.4-2.03-1.38-2.03H16v6h-2V22Zm2.65 6c.8 0 1.35-.4 1.35-1.37v-1.44c0-.92-.47-1.19-1.17-1.19H16v4h.65ZM7 22h2.98C12 22 13 23.1 13 25.21v1.28C13 28.6 12 30 9.98 30H9v5H7V22Zm2.98 6c.68 0 1.02-.35 1.02-1.23v-1.54c0-.88-.34-1.23-1.02-1.23H9v4h.98Z" fill="#EE751D"/></svg>