<svg width="56" height="56" viewBox="0 0 56 56" xmlns="http://www.w3.org/2000/svg"><path fill="#F0F3FA" d="M0 0h56v56H0z"/><path d="M18 46V22.6C18 16.76 22.73 12 28.52 12 34.3 12 39 16.73 39 22.56A10.4 10.4 0 0 1 28.55 33H26v2.86c.03 2.7-1.8 8.5-8 10.14Zm13.8-25.32c.08-.24.12-.5.12-.75 0-1.62-1.55-2.93-3.47-2.93-1.92 0-3.47 1.31-3.47 2.93 0 .25.04.5.1.74h-.06c-2.22 0-4.02 1.64-4.02 3.66 0 2.03 1.8 3.67 4.02 3.67.14 0 .28 0 .42-.02-.25-1.52-.87-2.14-1.18-2.26l2.9 1.1c.65-.6 1.15-2.02 1.31-2.65 0 .75.63 2.09.95 2.66l2.99-1.1a5.96 5.96 0 0 0-.85 2.22A3.75 3.75 0 0 0 36 24.33a3.75 3.75 0 0 0-4.2-3.65Z" fill="url(#ahsqngb4k)"/><defs><linearGradient id="ahsqngb4k" x1="38.52" y1="22.65" x2="23.78" y2="22.65" gradientUnits="userSpaceOnUse"><stop stop-color="#61BD85"/><stop offset="1" stop-color="#6EBE48"/></linearGradient></defs></svg>