<svg xmlns="http://www.w3.org/2000/svg" width="56" height="56" viewBox="0 0 56 56"><path fill="#F0F3FA" d="M0 0h56v56H0z"/><path fill-rule="evenodd" d="M28.5 38.4c9.11 0 16.5-5.24 16.5-11.7C45 20.24 37.61 15 28.5 15S12 20.24 12 26.7c0 6.46 7.39 11.7 16.5 11.7zm-5-4.4c4.14 0 7.5-3.25 7.5-7.25s-3.36-7.25-7.5-7.25a7.38 7.38 0 0 0-7.5 7.25c0 4 3.36 7.25 7.5 7.25z" fill="#7D8185"/><path d="M30 34.5c3.09-1.98 5-4.94 5-8.25 0-3.3-1.91-6.27-5-8.25 6.98 1.18 12 4.42 12 8.25s-5.02 7.08-12 8.25z" fill="#FEF007"/><path d="M20.11 26H26l-6.11 17H14l6.11-17z" fill="#EB1D24"/></svg>