<svg width="56" height="56" viewBox="0 0 56 56" xmlns="http://www.w3.org/2000/svg"><path fill="#F0F3FA" d="M0 0h56v56H0z"/><path d="M38.8 41.83c-.2.6-.3 1.04-.73 1.7h-18.6v-1.7H38.8Z" fill="#F7F11F"/><path d="M19.77 27.37H18V40.9A4.2 4.2 0 0 0 22.28 45H35.5c1.1 0 2.06-.6 2.55-1.47H21.54c-.98 0-1.77-.76-1.77-1.7V27.37Z" fill="#211718"/><path d="M21.3 27.58h16.18v1.59H21.29v-1.59Z" fill="#211718"/><path d="M37.47 27.37v13.94h-1.79V27.37h1.8Z" fill="#211718"/><path d="M19.77 26h1.54v15.6h-1.54V26Z" fill="#FDF20A"/><path d="M37.47 26H39v15.3h-1.53V26ZM37.47 26v1.58H21.25V26h16.22Z" fill="#F7F11F"/><path d="m16.38 21.6-.66.62c-.96.91-.96 2.4 0 3.3L26 35.33c.96.9 2.52.9 3.48 0l10.8-10.29c.96-.91.96-2.4 0-3.3l-.66-.63-11.87 13.28-11.37-12.79Z" fill="#211718"/><path d="m16.73 21.2 1.23 1.17L28 12.65v-1.46c-.25-.31-.48-.17-.7-.06L16.73 21.2ZM39.2 20.8l-1.23 1.17-9.45-8.89c-.01-.21-.03-.96-.03-1.61.25-.32.68-.18.9-.07l9.81 9.4Z" fill="#0679B0"/><path d="m17.35 22.92 1.36 1.29 9.25-9c.23-.22.6-.22.84 0l8.77 8.17.97-.93L28 12.6 17.35 22.92Z" fill="#211718"/><path d="M27.53 34.19 15.38 22.63c.1-.15.2-.28.34-.4l.66-.64L27.53 32.2v1.99Zm.39.1 12.73-12.12c-.1-.16-.23-.3-.37-.44l-.66-.63-11.7 11.13v2.05Z" fill="#0679B0"/></svg>