<svg width="56" height="56" viewBox="0 0 56 56" xmlns="http://www.w3.org/2000/svg"><path fill="#B68972" d="M0 0h56v56H0z"/><path d="M18 45h13.04v-3h-1.52C27.99 42 27 40.94 27 39.38V28.57c.7.29 2.3.86 4.04.86 2.16 0 8.96-1.72 8.96-8.8 0-5.66-4.96-7.45-7.44-7.63H18v3h1.56c1.52 0 2.44 1.43 2.44 2.98v9.44h1.77c.38-2.67 2.33-3.59 3.23-3.71V14.39s.7-.67 2.41-.67c1.7 0 5.67 1.12 5.67 6.9 0 5.79-3.54 7.65-5.14 7.65-1.6 0-2.77-.22-2.77-.96s2.17-1.2 2.24-1.2c-.85-1.38-2.22-1.38-3.91-.12-1.36 1.01-1.28 2.99-1.07 3.85a5.4 5.4 0 0 0-2.63-.8c-1.4 0-2 1.1-2.24 1.96-.2.7.03.8.17.75.4-.25 1.11-.36 1.42-.4 3.23 0 3.93 4.89 3.93 5.9 0 1.03-.5 1.52-.75 1.52s-.48-.12-.48-1.05c0-.75.32-1.33.48-1.53-.13-2.92-1.47-4.02-2.33-4.2v7.39c0 1.56-.92 2.62-2.44 2.62H18v3Zm6.3-6.6c.19.05.43-.33.52-.84.1-.5 0-.95-.2-.98-.19-.04-.43.34-.52.84-.1.5 0 .95.2.99Z" fill="#fff"/></svg>