<svg xmlns="http://www.w3.org/2000/svg" width="56" height="56"><path fill="#F0F3FA" d="M0 0h56v56H0z"/><path d="M27.81 17.71A53.36 53.36 0 0121.47 10c0 1.25-2.17 7.71-4.86 13.41-2.18 4.6-2.67 8.7-2.6 10.28.33 8.04 9.01 11.51 13.33 12.31-2.88-1.92-8.64-7.18-8.72-12.87-.09-5.69 6.1-12.65 9.2-15.42z" fill="#0094DA"/><path d="M28.19 17.71A53.36 53.36 0 0034.53 10c0 1.25 2.17 7.71 4.86 13.41 2.18 4.6 2.67 8.7 2.6 10.28-.33 8.04-9.01 11.51-13.33 12.31 2.88-1.92 8.64-7.18 8.72-12.87.09-5.69-6.1-12.65-9.2-15.42z" fill="#FFCA08"/><path d="M27.82 26.8v-8.3a31.66 31.66 0 00-5.18 5.67l5.18 2.64zm0 .5l-5.43-2.78A22.98 22.98 0 0020 28.74l7.81 3.97V27.3zm-8.73 5.48c0-1.16.29-2.4.76-3.63l7.97 4.05v5.42l-8.6-4.39a9.05 9.05 0 01-.13-1.45zm.23 2c1.09 4.96 5.92 9.26 8.5 10.95v-6.62l-8.5-4.33zm8.87 4.3v6.65c2.6-1.7 7.46-6.03 8.52-11.02l-8.52 4.38zm8.62-4.91c.07-.46.1-.92.1-1.39 0-1.17-.28-2.41-.76-3.66l-7.96 4.06v5.42l8.62-4.43zm-3.14-9.59a22.91 22.91 0 012.32 4.14l-7.8 3.97v-5.42l5.48-2.69zm-.26-.36L28.2 26.8v-8.3a31.7 31.7 0 015.22 5.73z" fill="#8EC63F"/></svg>