<svg xmlns="http://www.w3.org/2000/svg" width="56" height="56" viewBox="0 0 56 56"><path fill="#F0F3FA" d="M0 0h56v56H0z"/><path fill="#FF0009" d="M19 31h1v4h-1zM26 31h1v4h-1zM17 31h-1v4h2.5v-1H17v-3zM28 31v1h1v3h1v-3h1v-1h-3zM33 31h-1v4h2.5v-1H33v-.5h1v-1h-1V32h1.5v-1H33z"/><path fill-rule="evenodd" d="M37 31h-1.5v4H37a2 2 0 1 0 0-4zm0 1h-.5v2h.5a1 1 0 1 0 0-2zM15.84 24c.5 0 .84.26.95.38v.69c-.9-.4-1.43-.22-1.43.05 0 .21.13.35.32.38.43.1 1.32.41 1.32 1.17 0 .94-.78 1.35-1.51 1.33a2.53 2.53 0 0 1-1.1-.25v-.96c.99.6 1.63.2 1.61-.02-.01-.17-.35-.36-.51-.42-.37-.1-1.18-.41-1.15-1.13.04-.89.88-1.22 1.5-1.22zM5.48 24H5v4h1v-1.54h.77a1.23 1.23 0 1 0 0-2.46H5.48zm.52.83h.6a.4.4 0 1 1 0 .8H6v-.8zm6.5-.83h1v4h-1v-4zm-2.23 0H8.52v4h1v-1.54h.2l.9 1.54h1.23l-.99-1.69a1.23 1.23 0 0 0-.59-2.31zm-.75.79v1.06H10a.53.53 0 0 0 0-1.06h-.47zM18 28v-4h1.11l.89 1.18.87-1.18H22v4h-1v-2.4l-1 1.2-1-1.2V28h-1z" fill="#FF0009"/><path d="M21 31v4h1v-2.4l1 1.2 1-1.2V35h1v-4h-1.13L23 32.18 22.11 31H21z" fill="#FF0009"/><path fill-rule="evenodd" d="M41.26 24c.48 0 .81.26.92.38v.69c-.88-.4-1.37-.22-1.37.05 0 .21.14.33.33.37.42.09 1.25.42 1.25 1.18 0 .94-.77 1.35-1.48 1.33a2.4 2.4 0 0 1-1.07-.25v-.96c.97.6 1.54.22 1.53 0-.01-.17-.35-.3-.5-.35-.36-.1-1.1-.5-1.07-1.22.04-.89.85-1.22 1.46-1.22zM31 24h1v1.47h1.5V24h1v4h-1v-1.57H32V28h-1v-4zm-7 0v2.7c0 .13-.13.41-.4.4a1.27 1.27 0 0 1-.75-.28v.8c.13.13.52.39 1 .38.61 0 1.11-.5 1.15-1.08V24h-1zm4 4a2 2 0 1 0 0-4 2 2 0 0 0 0 4zm0-1a1 1 0 1 0 0-2 1 1 0 0 0 0 2zm19-1a2 2 0 1 1-4 0 2 2 0 0 1 4 0zm-1 0a1 1 0 1 1-2 0 1 1 0 0 1 2 0zm-10.5 2h1v-2.03L39 28v-4h-1v1.82L35.5 24v4zm13 0h-1v-4l2.5 1.82V24h1v4l-2.5-2.03V28z"/></svg>