<svg width="56" height="56" viewBox="0 0 56 56" xmlns="http://www.w3.org/2000/svg"><path fill="#F0F3FA" d="M0 0h56v56H0z"/><path d="m6.55 27.77-.8 2.9a.91.91 0 0 0 0 .33H4c.08-.12.13-.2.17-.33l1.95-7.25a1.3 1.3 0 0 0 0-.42H9.2c.62-.03 1.24.12 1.78.4.32.19.57.48.69.82.12.34.12.72-.02 1.06-.12.47-.37.9-.7 1.26-.35.36-.77.63-1.25.8-.67.25-1.38.38-2.1.37h-.98l-.07.06ZM49.21 24H32.5l.16-.61h16.69l.33-1.25L51.2 22l-.16.48-.24.94H52l-.19.58h-1.17l-1.55 5.68c-.1.38 0 .57.4.57.24-.01.49-.08.72-.19l-.19.67c-.42.16-.87.25-1.32.25a1.27 1.27 0 0 1-.97-.3 1.03 1.03 0 0 1-.1-.94L49.22 24ZM6.7 27.13h.86c.4.03.8-.03 1.18-.17.31-.15.59-.37.8-.63.24-.28.4-.6.48-.94a1.32 1.32 0 0 0-.15-1.25 1.54 1.54 0 0 0-1.25-.48h-.98l-.92 3.47h-.01Zm6.25-2.53h1.48l-.22.83c.2-.3.47-.56.8-.73.41-.16.86-.24 1.3-.25l-.26 1h-.22a2 2 0 0 0-1.3.4c-.37.27-.62.67-.71 1.12l-.98 3.75c-.04.11-.06.16-.07.28h-1.56c.07-.13.12-.2.16-.33l1.52-5.64c.04-.14.06-.28.06-.43Zm7.32 6.4.23-1c-.29.27-.62.5-.97.68-.5.22-1.03.33-1.56.32a2.07 2.07 0 0 1-1.67-.6 1.52 1.52 0 0 1-.15-1.39l1.2-4.02c.04-.12.06-.26.06-.39h1.55c-.07.13-.12.26-.16.4l-1.14 3.87a1.03 1.03 0 0 0 .07.83 1.14 1.14 0 0 0 .98.39c.47.01.94-.12 1.33-.38.36-.21.62-.55.74-.94L21.95 25c.04-.12.06-.26.05-.39h1.57c-.08.12-.13.26-.17.4l-1.6 5.45c-.03.13-.05.42-.05.55h-1.47Zm8.12-1.05c-.26.25-.54.47-.85.66a3.1 3.1 0 0 1-1.6.4 1.8 1.8 0 0 1-1.02-.2 1.7 1.7 0 0 1-.72-.74 3.5 3.5 0 0 1 0-2.45 4.9 4.9 0 0 1 1.48-2.5 3.25 3.25 0 0 1 2.3-.87c.37-.01.74.06 1.07.2.29.14.52.37.67.64l.7-2.55c.03-.13.05-.4.04-.54h1.56c-.07.13-.12.4-.16.54l-2.18 7.96a2.3 2.3 0 0 0-.06.5h-1.48l.25-1.04Zm-.26-4.98c-.4 0-.8.13-1.12.36-.7.61-1.16 1.42-1.32 2.31-.46 1.71-.14 2.57.97 2.57a2.01 2.01 0 0 0 1.48-.68c.48-.58.81-1.26.97-2 .46-1.69.14-2.54-.97-2.56h-.01Zm9.38 5.5c-.85.35-1.77.55-2.7.54-.92 0-1.96-.24-2.6-.94-1.04-1.61.03-3.7 1.4-4.75a4.4 4.4 0 0 1 2.68-.84c1.19.02 2.34.68 2.48 1.96.05.4 0 .8-.13 1.2h-5.13c-.17.54-.2.96-.16 1.53.13.84.74 1.26 1.83 1.26a4.4 4.4 0 0 0 2.33-.75v.8-.01Zm-3.8-3.44h3.55c.05-.3.07-.62.05-.94a1.22 1.22 0 0 0-.42-.82 1.26 1.26 0 0 0-.83-.27c-.5 0-1 .2-1.37.53-.46.41-.8.93-.98 1.5Zm7.1-2.43h1.48l-.23.94c.24-.28.53-.52.85-.72.53-.27 1.12-.4 1.71-.39a2.02 2.02 0 0 1 1.74.68 1.39 1.39 0 0 1 .1 1.19l-1.17 4.35c-.02.13-.02.22 0 .35h-1.57c.08-.12.14-.21.17-.35l1.08-4.14a.9.9 0 0 0-.13-.86 1.31 1.31 0 0 0-.98-.3c-.5-.02-1 .12-1.4.4-.38.29-.64.68-.75 1.12l-.98 3.76c-.04.13-.06.24-.06.37h-1.55c.07-.12.12-.23.16-.37l1.52-5.64c.04-.12.05-.26.06-.39h-.04Z" fill="#ED3237"/><path d="M46 33v2H34v-2h12Z" fill="#FFCC29"/><path d="M33 33v2H21v-2h12Z" fill="#F58733"/><path d="M20 33v2H8v-2h12Z" fill="#ED3338"/></svg>