<svg width="56" height="56" viewBox="0 0 56 56" xmlns="http://www.w3.org/2000/svg"><path fill="#F0F3FA" d="M0 0h56v56H0z"/><path d="M38 28v5h-1v-5h1ZM4 33v-5h3v.76H5v1.36h1.5v.76H5v1.36h2V33H4ZM44 33v-5h3v.76h-2v1.36h1.5v.76H45v1.36h2V33h-3ZM18 33v-5h3v.76h-2v1.36h1.5v.76H19v1.36h2V33h-3ZM12 28v5h-.78L9 29.8V33H8v-5h.79L11 31.3V28h1ZM25.45 21.76V21h4.1v.76H28V26h-1v-4.24h-1.55ZM12.45 28.76V28h4.1v.76H15V33h-1v-4.24h-1.55ZM21 26v-5h1.96c.99 0 1.85.44 1.85 1.5 0 .96-.65 1.5-1.86 1.5h-1.4v-.75h1.27c.54 0 1.02-.15 1.02-.75s-.48-.74-1.02-.74H22V26h-1ZM22 33v-5h1.96c.99 0 1.85.44 1.85 1.5 0 .96-.65 1.5-1.86 1.5h-1.4v-.75h1.27c.54 0 1.02-.15 1.02-.75s-.48-.74-1.02-.74H23V33h-1Zm2.7-2.27L26 33h-1.06l-1.27-2.43 1.03.16ZM27 33v-5h1.96c.99 0 1.85.44 1.85 1.5 0 .96-.65 1.5-1.86 1.5h-1.4v-.75h1.27c.54 0 1.02-.15 1.02-.75s-.48-.74-1.02-.74H28V33h-1ZM31 26v-5h1v4.24h2V26h-3ZM32 33v-5h1.96c.99 0 1.85.44 1.85 1.5 0 .96-.65 1.5-1.86 1.5h-1.4v-.75h1.27c.54 0 1.02-.15 1.02-.75s-.48-.74-1.02-.74H33V33h-1Zm2.7-2.27L36 33h-1.06l-1.27-2.43 1.03.16ZM42.02 29.4a.64.64 0 0 0-.3-.48c-.17-.12-.4-.17-.68-.17-.2 0-.37.02-.5.08a.75.75 0 0 0-.33.22c-.08.1-.11.2-.12.33 0 .1.03.19.08.26.05.08.12.14.2.2.1.04.19.09.3.12l.31.09.49.11c.2.04.38.1.57.18.55.21.96.6.96 1.22 0 1.06-1.09 1.44-1.98 1.44-.4 0-.75-.06-1.05-.18-.3-.11-.53-.28-.7-.5-.17-.23-.26-.5-.27-.83h.93a.7.7 0 0 0 .17.42c.1.12.22.2.38.25.16.06.34.09.54.09.42 0 1-.17 1-.7 0-.45-.55-.59-.9-.67l-.6-.14c-.42-.1-.76-.26-1.01-.47a1.04 1.04 0 0 1-.37-.84c0-.28.08-.53.25-.75.16-.21.4-.38.68-.5.29-.12.62-.18.98-.18.37 0 .7.06.97.18.28.12.5.28.66.5.16.2.24.45.25.72h-.91ZM51.02 29.4a.64.64 0 0 0-.3-.48c-.17-.12-.4-.17-.68-.17-.2 0-.37.02-.5.08a.75.75 0 0 0-.33.22c-.08.1-.11.2-.12.33 0 .1.03.19.08.26.05.08.12.14.2.2.1.04.19.09.3.12l.31.09.49.11c.2.04.38.1.57.18.55.21.96.6.96 1.22 0 1.06-1.09 1.44-1.98 1.44-.4 0-.75-.06-1.05-.18-.3-.11-.53-.28-.7-.5-.17-.23-.26-.5-.27-.83h.93a.7.7 0 0 0 .17.42c.1.12.22.2.38.25.16.06.34.09.54.09.42 0 1-.17 1-.7 0-.45-.55-.59-.9-.67l-.6-.14c-.42-.1-.76-.26-1.01-.47a1.04 1.04 0 0 1-.37-.84c0-.28.08-.53.25-.75.16-.21.4-.38.68-.5.29-.12.62-.18.98-.18.37 0 .7.06.97.18.28.12.5.28.66.5.16.2.24.45.25.72h-.91Z"/></svg>