<svg width="56" height="56" viewBox="0 0 56 56" xmlns="http://www.w3.org/2000/svg"><path fill="#2E2D93" d="M0 0h56v56H0z"/><path d="m18.4 25-1.5 6h1.24l.17-1h1.53l.19 1h1.3l-1.5-6H18.4Zm.1 4 .6-2.98.54 2.98H18.5ZM40.25 25l-1.5 6H40l.17-1h1.52l.2 1h1.3l-1.5-6h-1.44Zm.1 4 .6-2.98.54 2.98h-1.13ZM49.06 25l-1.5 6h1.25l.17-1h1.53l.2 1H52l-1.5-6h-1.44Zm.11 4 .6-2.98.54 2.98h-1.14ZM35.5 27.9V25h-1v6h1v-1.65l.7-.95.95 2.6h1.25l-1.49-3.41L38.42 25h-1.17l-1.75 2.9ZM30 25v6h1v-4.5l1.5 4.5H34v-6h-1v4.5L31.52 25H30ZM22.4 25h-1.15l1.27 6h1.7l1.28-6h-1.15l-.98 4.85L22.4 25ZM26.43 31h-1.15l1.27-6h1.7l1.28 6h-1.15l-.98-4.85-.97 4.85ZM16.4 30.36v-1.14c-.02-.56-.26-1.08-.86-1.2.58-.15.85-.65.9-1.23.08-1.01-.5-1.79-1.52-1.79H13v6h1v-2.49h.58c.42 0 .83.34.83.69v1c0 .35 0 .56.09.8h1c-.06-.21-.1-.42-.11-.64Zm-1.54-2.79H14V26h.74c.49 0 .66.35.66.8 0 .35-.16.77-.54.77ZM47 30.36v-1.14a1.21 1.21 0 0 0-.96-1.2c.58-.15.91-.65.96-1.23.08-1.01-.56-1.79-1.58-1.79H43.5v6h1v-2.49h.58c.42 0 .91.34.91.69l.01 1c0 .35 0 .56.09.8h1.02a3 3 0 0 1-.11-.64Zm-1.64-2.79h-.86V26h.74c.49 0 .76.35.76.8 0 .35-.26.77-.64.77ZM11 29.08c0 .53-.34.92-1 .92-.77 0-1-.56-1-.92V25H8v4.08c0 1.13.74 1.94 2 1.92 1.26-.02 1.98-.71 2-1.93V25h-1v4.08ZM5.81 25H4v6h1v-2h.81c1.06 0 1.71-.94 1.69-2-.02-1.03-.57-2-1.69-2Zm0 3H5v-2h.81c.44.05.7.6.69 1 0 .37-.28.97-.69 1Z" fill="#fff"/></svg>