<svg width="56" height="56" viewBox="0 0 56 56" xmlns="http://www.w3.org/2000/svg"><path fill="#F0F3FA" d="M0 0h56v56H0z"/><path d="M23.44 20H21l4.52 14H29.48L34 20h-2.44c-.8 0-1.5.55-1.72 1.36l-2.34 8.5-2.34-8.5A1.8 1.8 0 0 0 23.44 20Z" fill="#99CA3B"/><path fill-rule="evenodd" d="M15.2 20A5.97 5.97 0 0 0 9 25.5V39h1.45c.86 0 1.55-.82 1.55-1.83v-5.62a3.92 3.92 0 0 0 3.83 2.66c4.17 0 5.17-4.61 5.17-7.6 0-2.97-1.4-6.61-5.8-6.61ZM12 27.01c0 2.2 1.35 3.99 3 3.99 1.66 0 3-1.8 3-4s-1.34-4-3-4-3 1.8-3 4v.01ZM41.2 20a5.97 5.97 0 0 0-6.2 5.5V39h1.45c.86 0 1.55-.82 1.55-1.83v-5.62a3.92 3.92 0 0 0 3.83 2.66c4.17 0 5.17-4.61 5.17-7.6 0-2.97-1.4-6.61-5.8-6.61ZM38 27.01c0 2.2 1.35 3.99 3 3.99 1.66 0 3-1.8 3-4s-1.34-4-3-4-3 1.8-3 4v.01Z" fill="#556852"/><circle cx="26" cy="18" r="1" fill="#556852"/><circle cx="29" cy="18" r="1" fill="#556852"/><circle cx="32" cy="18" r="1" fill="#99CA3B"/><circle cx="35" cy="18" r="1" fill="#556852"/></svg>