<svg width="56" height="56" xmlns="http://www.w3.org/2000/svg"><path fill="#FFCB05" d="M0 0h56v56H0z"/><path fill-rule="evenodd" d="M11 19v19h3v-7h2.56c1.763 0 5.416-1.806 5.44-6 .024-4.194-3.646-6-5.44-6H11zm3 3v6h2.6c.807 0 2.452-1 2.399-3-.054-2-1.681-3-2.399-3H14zm22-3v19h3v-7h.957l4.701 7H48l-4.956-7.508c.482 0 3.931-1.298 3.956-5.492.025-4.194-3.424-6-5.271-6H36zm3 3v6h2.6c.807 0 2.453-1 2.399-3-.054-2-1.681-3-2.399-3H39z" fill="#000"/><path d="M28.5 40L22 16l4 2.306L28.5 29 31 18.306 35 16l-6.5 24z" fill="#000"/></svg>