<svg width="56" height="56" viewBox="0 0 56 56" xmlns="http://www.w3.org/2000/svg"><path fill="#D24635" d="M0 0h56v56H0z"/><path d="M6.36 25.22a.44.44 0 0 0-.3-.03c-.04 0-.06.04-.06.08v1.69c0 .03-.01.04-.04.04h-.91c-.03 0-.04-.02-.04-.05L5 22.78v-.58c0-.12.06-.2.16-.2h.73c.07 0 .1.07.1.15v2.17c0 .02.01.04.03.05l.04.02c.41.03.7.01.95-.04.12-.03.2-.14.23-.33.06-.29.06-.56 0-.83-.1-.42-.5-.39-.84-.34-.09.02-.13-.03-.13-.13v-.58c0-.08.03-.12.1-.13.5-.04.95.02 1.34.19.7.3.56 1.82.37 2.47a.64.64 0 0 1-.22.28.8.8 0 0 1-.3.15c-.39.12-.76.16-1.2.12ZM20.64 26.95c-.2.06-.4.07-.65.02-.23-.05-.34-.16-.34-.36-.02-1.28-.02-2.78 0-4.52 0-.06.02-.09.08-.09h.81c.06 0 .1.03.1.09v4.86ZM35.9 27c-.02-.02-.1-.03-.21-.03v-4.83c0-.1.03-.14.12-.14h.1c.1 0 .14.05.14.16v1.96l.01.03.02.02h.05c.45-.4 1.09-.69 1.58-.53.3.1.46.38.47.86.02.67.02 1.32.01 2.28 0 .13-.06.2-.17.2h-.05c-.1 0-.15-.07-.15-.19 0-1.14 0-1.81-.02-2.34-.02-.47-.45-.55-.73-.46-.34.1-.66.28-.94.53a.23.23 0 0 0-.06.08 365.13 365.13 0 0 0-.04 2.28c0 .04-.04.08-.13.12ZM44.08 26.14c0 .46.34.49.64.47.09 0 .13.05.13.14v.07c0 .09-.04.14-.12.16-.53.08-1.03-.03-1.04-.77v-4.06c0-.1.04-.15.13-.15h.09c.04 0 .08.02.11.06a.2.2 0 0 1 .05.13l.01 3.95ZM31.79 22.6l-.95 3.43-.26.86c0 .03-.02.06-.05.08a.12.12 0 0 1-.07.03h-.48a.13.13 0 0 1-.08-.03.17.17 0 0 1-.06-.09l-.36-1.27-.48-1.75-.46-1.65c-.04-.14 0-.21.13-.2a.2.2 0 0 0 .04 0c.12-.02.2.05.25.2a424.07 424.07 0 0 1 1.19 4.4c.08.06.14.03.17-.09l1.17-4.34c.03-.12.1-.17.2-.17h.1c.1 0 .13.05.1.15l-.1.44ZM39.48 22.08h-.05c-.1-.01-.19.07-.2.18v.28c0 .1.07.2.17.2h.05c.1.01.2-.07.2-.18l.01-.28a.2.2 0 0 0-.18-.2ZM9.68 23.74c-.06.08-.1.14-.1.2a20 20 0 0 0 0 1.86c.03.42.29.57.8.45.07-.02.11.01.12.1.05.45-.19.67-.72.65-.64-.01-1-.35-1.12-1-.1-.67-.08-1.24.08-1.72.14-.4.44-.6.92-.64.03 0 .04.02.04.05l-.02.05ZM25.67 24.2c0-.16.06-.34.18-.54-.5.02-1.09.12-1.14.6-.02.26-.03.74-.02 1.45v1.18c0 .07.04.1.1.1h.76c.07 0 .1-.03.1-.1 0-1.45 0-2.35.02-2.69Zm.46-.38c-.22.38-.24.64-.07.8l.8-.15c.08-.01.14-.07.14-.16v-.52c0-.08-.05-.11-.13-.11h-.5l-.24.14Z" fill="#FFFFFE"/><path d="M9.9 23.92c.08-.16.2-.24.38-.26.75-.12 1.2.15 1.37.82.11.47.19 1.89-.31 2.27-.18.14-.4.22-.64.25-.05 0-.07-.02-.05-.07.08-.17.12-.28.12-.32.03-.99.02-1.6-.01-1.83-.08-.5-.47-.48-.85-.37a.06.06 0 0 1-.07-.03v-.02a.92.92 0 0 1 .07-.44ZM13.4 23.69c-.08.21-.13.44-.13.7l.01 3.53c0 .05-.02.08-.07.08h-.76c-.04 0-.06-.02-.06-.05v-2.92c0-.42.04-.72.15-.88a1.2 1.2 0 0 1 .85-.49.02.02 0 0 1 .01.03ZM14.42 26.07c.1-.17.12-.5.1-.98-.05-.56-.29-.8-.72-.7-.21.04-.29-.04-.22-.26l.04-.14c.06-.2.2-.32.4-.34.76-.09 1.2.26 1.35 1.04.11.6.08 1.18-.1 1.73-.23.66-1.12.65-1.62.48a.14.14 0 0 1-.07-.05.15.15 0 0 1-.03-.08v-.4c0-.08.04-.1.11-.1.29.04.6.1.76-.2ZM22.55 23.66l-1.24.1a.14.14 0 0 0-.1.06.14.14 0 0 0-.03.1l.03.38c0 .04.02.07.05.1.03.02.06.03.1.03l1.3-.04a.14.14 0 0 0 .11-.05.15.15 0 0 0 .03-.12l-.1-.44a.14.14 0 0 0-.05-.09.14.14 0 0 0-.1-.03Zm1.45 3V25.5c0-.8 0-1.74-.96-1.81-.04 0-.05.01-.05.05v1.18a.05.05 0 0 1-.04.05h-.02c-.36-.02-1.4-.05-1.65.17-.39.34-.32 1.03-.15 1.48.46.44 1 .5 1.62.17a.06.06 0 0 0 .04-.06v-.53a.04.04 0 0 0-.05-.02c-.22.1-.42.13-.6.1-.14-.02-.22-.1-.22-.26v-.23c0-.18.09-.27.26-.27h.73a.1.1 0 0 1 .06.03.1.1 0 0 1 .03.07v.82c0 .24.19.38.42.43l.26.06c.21.05.32-.04.32-.27ZM18 26.33c0 .18-.03.4-.1.66.73.02 1.1-.34 1.1-1.07v-2.17c0-.06-.04-.09-.1-.09h-.8c-.06 0-.1.03-.1.09v2.58Zm-.3-.1c-.35.09-.69.02-.7-.4v-2.05l-.01-.03-.01-.01a.1.1 0 0 0-.06-.06l-.05-.01h-.75c-.08 0-.11.04-.12.11 0 .9 0 1.58.02 2.07.04.87.54 1.24 1.5 1.1.14-.01.23-.1.27-.25l.07-.3c.04-.15-.02-.2-.16-.17ZM40.94 25.34c.01.85.23 1.35 1.11 1.32a47.26 47.26 0 0 0 .8-.03l.03.02.01.03v.03l-.02.05a.25.25 0 0 1-.07.1.22.22 0 0 1-.1.06c-.46.08-.86.1-1.2.06-.79-.12-.97-.91-.97-1.63 0-.73.15-1.53.95-1.65.33-.06.73-.05 1.18.03.05 0 .08.02.12.05l.07.1.01.05a.07.07 0 0 1 0 .07l-.03.02h-.03l-.77-.02c-.89-.01-1.1.5-1.09 1.34ZM49.74 25.5c-.63-.14-1.27-.14-1.18-1.1.04-.45.27-.7.69-.72a7.2 7.2 0 0 1 1.55.05c.07.01.1.06.1.14v.06a.12.12 0 0 1-.02.08.1.1 0 0 1-.04.02 14.15 14.15 0 0 0-1.35-.02c-.43.01-.61.24-.55.7.05.36.57.37.87.45.63.15 1.27.14 1.18 1.1-.04.46-.27.7-.68.72a7.2 7.2 0 0 1-1.56-.05c-.07-.01-.1-.06-.1-.13v-.07a.12.12 0 0 1 .03-.08.1.1 0 0 1 .07-.03c.49.04.92.04 1.31.03.43-.01.61-.24.55-.69-.05-.37-.57-.38-.87-.45ZM39.52 23.66h-.15c-.06 0-.12.06-.12.13v3.08c0 .07.04.13.1.13h.16c.06 0 .11-.06.11-.13l.01-3.08c0-.07-.05-.13-.11-.13Z" fill="#FFFFFE"/><path fill-rule="evenodd" d="M33.38 27c.44.01.87-.02 1.3-.11.04-.1.04-.2.01-.26-.02-.04-.05-.06-.1-.05-.3.04-.68.07-1.1.06-.33 0-.57-.16-.72-.48l-.08-.19c-.15-.32-.05-.46.28-.42.22.02.57.02 1.06 0 .6-.02.79-.33.76-.94-.02-.5-.27-.8-.74-.9-.5-.1-1.15-.08-1.52.33-.1.13-.2.35-.25.66-.11.6-.07 1.17.13 1.74.23.35.55.54.97.56Zm-.68-1.78h1.36a.3.3 0 0 0 .17-.05.33.33 0 0 0 .12-.14c.17-.42.03-.9-.43-.98-.84-.16-1.28.16-1.3 1.08a.1.1 0 0 0 .02.07l.03.02h.03ZM45.83 26.15l-.08-.2c-.13-.3-.04-.44.27-.42.59.03.98.03 1.19.02.4-.04.62-.28.66-.72.06-.57-.19-1.01-.74-1.11-.76-.15-1.6-.06-1.76.9-.1.65-.13 1.56.28 2.01.14.17.28.26.4.29.48.11 1.03.1 1.64-.01.07-.02.1-.07.1-.15v-.07c-.01-.08-.05-.12-.13-.1-.21.05-.6.06-1.18.04-.31 0-.53-.17-.65-.48Zm-.11-1.33c-.1.3 0 .44.3.42l1.08-.02c.17 0 .28-.06.33-.19.14-.4.06-.7-.25-.93-.11-.08-.38-.1-.79-.05-.3.03-.5.2-.59.5l-.08.27Z" fill="#FFFFFE"/><path d="m12.6 29 1 .13c.06 0 .09.04.08.11v.06c-.03.09-.09.13-.17.13l-1.35-.01a.72.72 0 0 0-.4.11c-.36.24-.28 1.05-.14 1.34.08.14.21.24.42.29.63.15 1.02.25 1.16.3.33.1.55.38.6.78.09.57.07 1.43-.48 1.64-.19.07-.46.11-.82.12l-1.21-.1c-.08-.01-.11-.06-.11-.14v-.08c0-.03 0-.06.03-.09a.1.1 0 0 1 .07-.03h.6c.17.03.44.04.82.01.29-.01.58-.06.68-.4.06-.2.07-.46.04-.78-.03-.35-.3-.55-.57-.6l-1.05-.27c-.27-.07-.43-.19-.5-.33-.3-.74-.27-1.4.1-1.98.41-.16.82-.23 1.2-.2ZM23.97 29.45h-.2a.11.11 0 0 0-.1.11v.42c0 .06.04.11.1.11h.2c.06 0 .1-.05.1-.1v-.42a.11.11 0 0 0-.1-.12ZM18.34 31.22c0 .07.04.09.1.04.4-.36.81-.54 1.24-.56.06 0 .09.03.09.09v.14c0 .09-.04.14-.12.14a2.34 2.34 0 0 0-1.25.53l-.01.05v2.23c0 .08-.04.12-.11.12h-.15c-.09 0-.13-.05-.13-.14v-2.93a.15.15 0 0 1 .05-.1.13.13 0 0 1 .1-.05h.03c.08 0 .12.05.13.15l.03.29ZM27.02 30.77c.16 0 .25.06.26.15.02.1-.04.15-.16.15a4.46 4.46 0 0 0-1 .01c-.39.05-.62.25-.7.63-.1.5-.12 1.48.35 1.8.3.2 1.03.13 1.42.1a.1.1 0 0 1 .07 0l.04.05c.03.04.03.09 0 .14-.01.03-.04.05-.09.07-.68.21-1.9.28-2.13-.68a3.16 3.16 0 0 1 .01-1.77c.28-.81 1.29-.8 1.93-.65ZM32.46 30.69l.96.1c.04 0 .07.03.09.07.03.08 0 .15-.07.22a5.92 5.92 0 0 0-1.67.02c-.13.02-.2.14-.23.34-.04.4.13.62.52.68.61.09 1.01.19 1.2.3.36.19.4.76.28 1.12-.07.24-.26.38-.56.42a5.62 5.62 0 0 1-1.7-.06.11.11 0 0 1-.05-.12l.02-.05c0-.07.05-.1.12-.1.55.04 1.06.04 1.54-.02.2-.03.3-.17.3-.44 0-.34-.15-.53-.46-.57-.06 0-.33-.06-.83-.15-.63-.12-.87-.53-.72-1.23.11-.52.75-.53 1.26-.53ZM21.52 33.7c.02 0 .04 0 .05-.02.33-.98.65-1.9.96-2.76.03-.1.1-.14.2-.14h.1c.1 0 .14.04.1.14l-1.07 2.9a.25.25 0 0 1-.05.1.23.23 0 0 1-.09.05.6.6 0 0 1-.2.03.6.6 0 0 1-.21-.03.23.23 0 0 1-.08-.05.25.25 0 0 1-.06-.1l-1.07-2.9c-.03-.1 0-.14.1-.14h.11c.1 0 .16.04.2.14l.96 2.76c0 .02.02.03.05.03ZM23.97 30.78h-.2c-.06 0-.1.04-.1.09l.01 3.04c0 .05.04.09.09.09h.2c.05 0 .09-.04.09-.1v-3.03c0-.05-.05-.1-.1-.1Z" fill="#FFFFFE"/><path fill-rule="evenodd" d="M15.81 33.65c-.59-.08-.86-.42-.81-1.03 0-.05.03-.08.07-.08l1.23.01c.15 0 .3-.02.45-.06.58-.18.47-1.42-.05-1.64a2.1 2.1 0 0 0-1.05-.13c-.61.06-.95.37-1.04 1.02-.09.59-.1 1.39.23 1.83.13.17.25.27.38.3a3.1 3.1 0 0 0 1.8-.03.13.13 0 0 0 .03-.06l.02-.05c.03-.1 0-.14-.1-.13-.57.06-.95.08-1.16.05Zm-.77-1.41h1.25c.32 0 .48-.17.46-.52v-.06c-.02-.36-.2-.56-.53-.6-.72-.08-1.12.13-1.2.61-.05.26-.06.43-.05.51 0 .04.03.06.07.06ZM28.43 33.16a8.9 8.9 0 0 0-.09-.22c-.11-.28-.03-.41.26-.4a13.23 13.23 0 0 0 .9.01c.49 0 .86 0 .95-.57.13-.77-.19-1.2-.95-1.27-.6-.06-1.29.03-1.48.76-.12.43-.15.86-.1 1.3.1.77.41 1.16 1.17 1.22.48.03.89 0 1.23-.12l.06-.05a.14.14 0 0 0 .03-.08v-.06a.1.1 0 0 0-.04-.07.09.09 0 0 0-.07-.02c-.33.06-.75.07-1.26.04-.3-.03-.5-.18-.61-.47Zm-.07-.94a20 20 0 0 0 1.35.01c.14 0 .23-.05.28-.14.2-.36.14-.87-.3-.98-.28-.08-1.03-.11-1.2.23-.12.21-.18.48-.2.81 0 .04.02.07.07.07ZM6.37 31.24c-.65 0-.93-.39-.83-1.18.02-.39.2-.6.55-.65.2-.03.67-.04 1.41-.04.09 0 .15-.05.18-.14a.2.2 0 0 0 .01-.06c0-.07-.02-.1-.08-.11A9.34 9.34 0 0 0 6.37 29c-.39.01-.66.06-.82.15-.3.18-.44.55-.4 1.11-.04.52.12.9.5 1.11.04.03.04.05-.01.07-.26.1-.42.25-.5.44-.18.51-.18 1.04 0 1.58.07.2.19.33.35.4a2 2 0 0 0 2.19-.44h.02a.05.05 0 0 1 .03.03l.01.03c.12.55.76.57 1.14.46.07-.03.1-.05.12-.08l.02-.17c0-.06-.02-.09-.07-.09a179.15 179.15 0 0 1-.55-.03c-.2-.03-.3-.16-.32-.4-.02-.36-.03-.87-.02-1.5 0-.06.03-.1.08-.1h.6c.1 0 .15-.05.15-.16v-.07c0-.07-.03-.1-.1-.1h-.66c-.02 0-.04-.01-.05-.03a.08.08 0 0 1-.02-.05v-.77c0-.1-.05-.15-.14-.15h-.07c-.08 0-.12.05-.12.14v.75c0 .07-.04.1-.1.1H6.37Zm1.32.37a27.2 27.2 0 0 0-1.54-.02c-.4.04-.64.28-.7.7-.07.4-.04 1.12.37 1.22.7.18 1.29.03 1.77-.43a.34.34 0 0 0 .08-.11l.03-.15v-1.16l-.01-.05Z" fill="#FFFFFE"/></svg>