<svg width="56" height="56" viewBox="0 0 56 56" xmlns="http://www.w3.org/2000/svg"><path fill="#F0F3FA" d="M0 0h56v56H0z"/><path fill-rule="evenodd" d="M38.5 23a1.5 1.5 0 1 0 0-3 1.5 1.5 0 0 0 0 3Zm.2-.46a.92.92 0 1 0 0-1.85.92.92 0 0 0 0 1.85ZM37 29a3 3 0 1 0 0-6 3 3 0 0 0 0 6Zm.41-1a1.85 1.85 0 1 0 0-3.7 1.85 1.85 0 0 0 0 3.7Z" fill="#73B932"/><path fill-rule="evenodd" d="M38.88 35.53c2.36-.96 3.66-3.1 2.9-4.78-.76-1.67-3.29-2.25-5.66-1.28-2.36.96-3.66 3.1-2.9 4.78.76 1.67 3.29 2.25 5.66 1.28Zm-.12-1.31c1.8-.73 2.86-2.19 2.38-3.25s-2.33-1.33-4.12-.6c-1.8.74-2.86 2.2-2.38 3.25.49 1.06 2.33 1.33 4.12.6Z" fill="#73B932"/><path d="M50.28 31a1 1 0 0 1-1-.82 1.6 1.6 0 0 1-1.41.82C46.79 31 46 29.98 46 29.02c0-1.31 1.02-1.87 2.22-2.04.58-.1.78-.52.78-1.06 0-.74-.14-1.1-.7-1.1-.29 0-.82.17-.82.53 0 .04.02.1.07.2a1 1 0 0 1 .15.49c0 .39-.19.58-.56.58-.42 0-.63-.3-.63-.88 0-1 .8-1.74 1.79-1.74 1.42 0 1.7 1.18 1.7 2.36v3.35c0 .26.2.38.33.38.18 0 .42-.32.42-.97l-.01-.54c0-.39.12-.58.36-.58.27 0 .4.26.4.92 0 .78-.26 2.08-1.22 2.08ZM49 28.8v-1.23c-.4.2-.61.26-1.03.34-.6.12-.97.47-.97 1.1 0 .55.37 1.12.98 1.12.7 0 .93-.73 1.02-1.33ZM43.92 24.48v.18c.32-.44.45-.66.87-.66.96 0 1.21.8 1.21 1.62 0 .43-.11 1.38-.72 1.38-.36 0-.57-.35-.57-.68 0-.36.17-.58.51-.63a2 2 0 0 0 .01-.24c0-.36-.07-.44-.48-.44-.66 0-.75.64-.75 2.2v1.13c0 .79.02 1.28.05 1.47.03.19.1.28.23.28.14 0 .28-.06.43-.06.23 0 .34.16.34.46 0 .34-.12.51-.38.51-.33 0-.9-.11-1.23-.11-.3 0-.6.11-.9.11-.24 0-.36-.16-.36-.47 0-.31.1-.47.32-.47l.23.02c.13 0 .2-.07.22-.2.03-.14.05-.5.05-1.1v-2.43c0-.58-.02-.95-.06-1.1-.03-.16-.1-.24-.23-.24l-.23.03c-.21 0-.31-.15-.31-.45 0-.13.03-.25.1-.34.07-.1.15-.15.25-.15.2 0 .4.08.6.08a3.44 3.44 0 0 0 .68-.08c.07 0 .11.13.12.38ZM33 26.94c0 .33-.02.54-.06.62-.04.07-.14.11-.32.11h-2.2c-.18 0-.3.02-.35.07-.05.03-.07.14-.07.31 0 .74.09 1.95 1.06 1.95.76 0 .95-.74 1.08-1.32.06-.26.2-.38.41-.38.25 0 .45.16.45.48 0 1.04-.84 2.22-1.96 2.22-1.68 0-2.04-2.16-2.04-3.44 0-1.3.42-3.56 2.12-3.56 1.44 0 1.88 1.8 1.88 2.94Zm-3-.41c0 .16.1.24.3.24h1.28c.18 0 .3-.02.35-.05.05-.04.07-.13.07-.27 0-.63-.17-1.53-.93-1.53-.74 0-1 .85-1.06 1.49l-.01.12ZM24.99 23.86l.01-.17v-1.08c0-.4.16-.61.47-.61.32 0 .53.2.53.6v1.1c0 .16.01.26.04.3.04.05.12.06.25.06.3 0 .55-.02.84-.04.37 0 .56.17.56.5 0 .35-.19.52-.56.52-.31 0-.57-.1-.88-.1-.11 0-.18.03-.2.09a.84.84 0 0 0-.05.34V28c0 .47 0 2 .56 2 .42 0 .44-.47.44-1.44 0-.23-.03-.49.04-.71.06-.21.27-.32.49-.32.31 0 .47.28.47.83 0 .2-.02.5-.06.88-.1 1.17-.52 1.76-1.45 1.76-1.4 0-1.49-1.34-1.49-2.42V25.3c0-.2-.06-.3-.17-.3-.1 0-.2.04-.3.04-.28 0-.42-.17-.42-.52 0-.32.14-.48.42-.48l.3.02c.1 0 .15-.06.16-.2ZM19.78 24.62c.36-.48.86-.62 1.5-.62C22.9 24 23 25.5 23 26.8v1.98c0 .6.01.96.04 1.1.03.13.12.2.25.2h.12l.14-.02c.23 0 .35.16.35.47 0 .31-.14.47-.4.47-.3 0-.58-.11-.87-.11-.33 0-.8.11-1.13.11-.27 0-.4-.16-.4-.47 0-.13.03-.24.1-.33.06-.1.14-.14.24-.14l.15.01h.12c.12 0 .2-.05.21-.17.03-.13.06-.5.08-1.12v-1.95c0-.8 0-1.83-.9-1.83-1.08 0-1.1 1.26-1.1 2.1v1.68c0 .6.01.96.04 1.1.03.13.04.2.18.2h.11l.14-.02c.23 0 .35.16.35.47 0 .31-.14.47-.4.47-.32 0-.78-.11-1.1-.11-.31 0-.6.11-.91.11-.27 0-.4-.16-.4-.47 0-.31.12-.47.36-.47l.14.01h.12c.13 0 .3-.06.32-.19.03-.14.05-.5.05-1.1v-2.43a6.9 6.9 0 0 0-.06-1.2c-.06-.27-.32-.22-.5-.22a.92.92 0 0 1-.1 0c-.22 0-.34-.14-.34-.43 0-.14.04-.26.12-.35.07-.1.17-.15.28-.15.21 0 .42.08.64.08.18 0 .35-.08.53-.08.14 0 .2.1.2.32v.3ZM16.4 23.64a.61.61 0 0 1-.48-.24.91.91 0 0 1-.18-.58c0-.21.07-.4.21-.56.14-.17.3-.26.49-.26a.6.6 0 0 1 .48.25.8.8 0 0 1 .21.55c0 .23-.07.43-.21.6a.66.66 0 0 1-.51.24ZM17.05 29.87a8.17 8.17 0 0 1-.05-1.12v-4.4c0-.22-.04-.34-.2-.34-.24 0-.47.1-.72.1-.21 0-.41-.11-.62-.11a.43.43 0 0 0-.33.15.53.53 0 0 0-.13.35c0 .3.14.45.41.45l.23-.01c.23 0 .36.15.36.47v4.46c-.03.13-.15.2-.3.2h-.13a.8.8 0 0 0-.16-.02c-.26 0-.4.16-.4.47 0 .32.16.48.46.48.1 0 .25-.02.45-.06.22-.03.4-.05.52-.05s.3.02.55.05c.25.04.43.06.56.06.3 0 .45-.16.45-.48 0-.31-.13-.47-.38-.47l-.16.01h-.13c-.15 0-.24-.06-.28-.2ZM13.22 30.31c-.38.54-.87.69-1.45.69-1.13 0-1.74-.97-1.77-2v-2.74c0-.58-.02-.95-.06-1.1-.06-.27-.31-.22-.5-.22a.94.94 0 0 1-.1 0c-.22 0-.34-.14-.34-.43 0-.14.04-.25.12-.35.07-.1.17-.15.28-.15.21 0 .49.09.7.09.13 0 .23-.01.3-.03.1-.03.3-.07.4-.07.13 0 .2.08.2.25v3.7c0 .82 0 2.05 1 2.05.84 0 1-.7 1-2.4V25.4c-.01-.38 0-.39-.34-.45-.25 0-.38-.15-.38-.44 0-.13.04-.25.12-.35.09-.1.19-.15.3-.15.2 0 .38.11.58.11.07 0 .15-.01.28-.04.14-.04.16-.06.23-.06.14 0 .21.13.21.38v4.37c0 .58.02.94.05 1.1.04.15.12.23.26.23h.06l.3-.01c.22 0 .33.15.33.44 0 .32-.13.48-.39.48-.22 0-.43-.08-.66-.08-.18 0-.34.1-.51.1-.15 0-.22-.14-.22-.42v-.29ZM6.16 24c.41 0 .64.27 1.05.65v-.18c0-.31.13-.47.4-.47.26 0 .39.18.39.55v1.87c.02 1.72 0 3.58 0 5.52.03.14.15.17.29.17l.24-.03c.23 0 .34.15.34.47 0 .3-.13.45-.39.45-.3 0-.6-.12-.9-.12-.3 0-.6.12-.9.12-.26 0-.4-.15-.4-.45 0-.32.12-.47.34-.47.27 0 .33.09.38-.17v-1.67c-.42.48-.56.76-1.03.76C4.37 31 4 28.98 4 27.74 4 26.4 4.41 24 6.16 24Zm.01 1c-1.14 0-1.26 1.78-1.28 2.57v.14c0 .75.15 2.29 1.2 2.29 1 0 .91-1.88.91-2.54C7 25.82 6.93 25 6.17 25Z" fill="#003C8D"/></svg>