<svg width="56" height="56" viewBox="0 0 56 56" xmlns="http://www.w3.org/2000/svg"><path fill="#F0F3FA" d="M0 0h56v56H0z"/><path d="m36.22 41.73-2.67-1.97a13 13 0 0 1-18.26-9l-2.9.8a16 16 0 0 0 23.83 10.17Z" fill="#7FC7D4"/><path d="M43.23 32.93a16 16 0 0 0-28.75-13.48h3.73a13 13 0 0 1 22.22 12.38l2.8 1.1Z" fill="#A2B758"/><path d="M12.21 28 17 31.34 11 33l1.21-5Z" fill="#7FC7D4"/><path d="M41.26 36 45 31.76 39 31l2.26 5Z" fill="#A2B758"/><path d="M39 24v-3H19v3H31.19c1.47.07 3.81.65 3.81 2.4 0 1.82-1.42 2.6-4.05 2.6h-9.9l16.38 12c.41-.25 1.5-1.03 2.57-2.16-1.11-.86-6.5-4.99-9.05-6.84h1.93c1.62-.09 5.12-1.04 5.12-4.96a9.1 9.1 0 0 0-.44-3.04H39Z" fill="#A2B758"/><path d="m12.34 26.74-.16-1.47.42.26.46-.36V26h2.3l.25-2.1-.36-.32.78-.78.94.94-.58.16-.26 2.83h-3.8Z" fill="#7FC7D4"/><path d="M11.6 21.08h5.37v.68c-.25.04-.38.71-.42 1.05l-.42-.42c-.07.01-.24.07-.36.15 0-.33-.14-.59-.2-.68H12.8c-.04.84.1 1.75.16 2.1l.37.37-.84.78-.88-.78.47-.16c-.02-.42-.07-1.32-.1-1.57-.06-.32-.37-1.05-.37-1.16v-.36Z" fill="#A2B758"/><path fill="url(#aokyq0ufz)" d="M18 21h3v14h-3z"/><defs><linearGradient id="aokyq0ufz" x1="19.5" y1="21" x2="19.5" y2="35" gradientUnits="userSpaceOnUse"><stop offset=".19" stop-color="#A2B758"/><stop offset="1" stop-color="#7FC7D4"/></linearGradient></defs></svg>