<svg width="56" height="56" viewBox="0 0 56 56" xmlns="http://www.w3.org/2000/svg"><path fill="#F0F3FA" d="M0 0h56v56H0z"/><path fill="url(#afp534u4d)" d="M6 34h43v1H6z"/><path d="M43 31v-6h1v.89c.3-.61.79-.89 1.85-.89 1.44 0 2.15.67 2.15 2.12V31h-1v-3.7c0-1.01-.21-1.5-1.27-1.5-1.23 0-1.73.53-1.73 1.76V31h-1ZM29 28.58v-1.16c0-1.14-.57-1.67-1.67-1.67-1.17 0-1.33.54-1.33 1.65v1.2c0 1.1.17 1.65 1.33 1.65 1.1 0 1.67-.52 1.67-1.67Zm0 1.48c-.27.65-.68.94-1.7.94-1.5 0-2.3-.68-2.3-2.2V27.2c0-1.53.8-2.21 2.3-2.21.74 0 1.33.18 1.7.87V23h1v8h-1v-.94ZM23 29.43v-.61c0-.55-.4-.82-1.65-.82-.79 0-1.35.14-1.35 1.05 0 1 .55 1.15 1.44 1.15 1.1 0 1.56-.28 1.56-.77Zm.04.88c-.26.48-.68.69-1.72.69-1.38 0-2.32-.33-2.32-1.85 0-1.57.83-1.85 2.27-1.85.61 0 1.34 0 1.73.56v-1c0-1.1-.6-1.14-1.55-1.14-.63 0-1.35.02-1.37.8h-.86v-.13c0-1.23 1.17-1.39 2.17-1.39 1.54 0 2.61.1 2.61 1.83V31h-.92l-.04-.7ZM35 29.43v-.61c0-.55-.4-.82-1.65-.82-.79 0-1.35.14-1.35 1.05 0 1 .55 1.15 1.44 1.15 1.1 0 1.56-.28 1.56-.77Zm.04.88c-.26.48-.68.69-1.72.69-1.38 0-2.32-.33-2.32-1.85 0-1.57.83-1.85 2.27-1.85.61 0 1.34 0 1.73.56v-1c0-1.1-.6-1.14-1.55-1.14-.63 0-1.35.02-1.37.8h-.86v-.13c0-1.23 1.17-1.39 2.17-1.39 1.54 0 2.61.1 2.61 1.83V31h-.92l-.04-.7ZM41 29.43v-.61c0-.55-.4-.82-1.65-.82-.79 0-1.35.14-1.35 1.05 0 1 .55 1.15 1.44 1.15 1.1 0 1.56-.28 1.56-.77Zm.04.88c-.26.48-.68.69-1.72.69-1.38 0-2.32-.33-2.32-1.85 0-1.57.83-1.85 2.27-1.85.61 0 1.34 0 1.73.56v-1c0-1.1-.6-1.14-1.55-1.14-.63 0-1.35.02-1.37.8h-.86v-.13c0-1.23 1.17-1.39 2.17-1.39 1.54 0 2.61.1 2.61 1.83V31h-.92l-.04-.7Z" fill="#2D3382"/><path d="m6 34 4-15c-.3 1.95-.92 6.66-.92 9.95 0 3.29.61 4.74.92 5.05H6Z" fill="#A7D251"/><path d="M11.64 19c-3.36 0-5.16.78-5.64 1.18.81-.16 2.73-.48 3.88-.48 1.44 0 8.12.64 8.12 3.27 0 2.1-7.66 4.48-11.35 5.4.73.15 2.69.74 4.64 1.88C15.41 33.08 18.91 34 22.14 34c2.59 0 4.32-.62 4.86-.92-.46.06-1.86.2-3.77.2-5.75 0-6.76-2.8-11.34-4.46 5.13-1.45 9.11-4.28 9.11-6.18 0-1.9-5.15-3.64-9.36-3.64Z" fill="#2888B8"/><defs><linearGradient id="afp534u4d" x1="27.5" y1="34" x2="27.5" y2="35" gradientUnits="userSpaceOnUse"><stop offset=".24" stop-color="#FAAE4B"/><stop offset=".48" stop-color="#ACD575"/><stop offset="1" stop-color="#B368A2"/></linearGradient></defs></svg>