<svg width="56" height="56" viewBox="0 0 56 56" xmlns="http://www.w3.org/2000/svg"><path fill="#EFE6DD" d="M0 0h56v56H0z"/><path d="m26.68 14.5-4.32-2.4c-.09-.05-.12-.13-.1-.23a.2.2 0 0 1 .17-.17 9.7 9.7 0 0 1 3.61-.7h.68a.2.2 0 0 1 .17.05c.05.04.11.1.11.16v3.1a.2.2 0 0 1-.1.18.2.2 0 0 1-.22 0Z" fill="#7E8186"/><path d="m33.52 12.01-4.3 2.44a.11.11 0 0 1-.13 0c-.04-.03-.09-.07-.09-.11V11.2c0-.05.02-.1.05-.14a.2.2 0 0 1 .14-.06c1.48-.02 2.9.2 4.3.66.28.1.29.21.03.35Z" fill="#AA6B74"/><path d="M34.37 13.1 36 18.69c.04.14-.07.32-.21.32H32.6c-.57.02-1.12-.24-1.65-.78-.68-.7-1.3-1.37-1.87-2a.3.3 0 0 1-.07-.27.3.3 0 0 1 .16-.22l4.99-2.71a.14.14 0 0 1 .13 0c.04.01.07.04.08.09ZM23.91 19h-3.57a.32.32 0 0 1-.27-.13.32.32 0 0 1-.06-.3l1.43-5.32c.03-.1.1-.18.2-.22.1-.04.2-.04.29.01l4.9 2.7c.1.06.15.15.17.26.01.12-.03.21-.11.29l-2.75 2.58c-.07.06-.14.13-.23.13Z" fill="#79CCE3"/><path d="M36.95 17.77 35.6 13.2c-.03-.12 0-.21.1-.28.1-.07.2-.07.3 0l3.44 2.42c.06.04.1.1.1.18.02.08 0 .15-.06.2l-2.1 2.17a.24.24 0 0 1-.24.07.24.24 0 0 1-.19-.18Z" fill="#7E8186"/><path d="m16.63 15.23 2.96-2.2c.15-.1.3-.11.45 0 .15.1.2.24.15.42l-1.17 4.1a.37.37 0 0 1-.28.26.37.37 0 0 1-.37-.1l-1.8-1.9a.37.37 0 0 1-.1-.3.37.37 0 0 1 .16-.28Z" fill="#F1A220"/><path d="m25.75 18.8 2.17-2.26c.05-.05.1-.05.15 0l2.18 2.24c.04.03.05.08.03.12-.02.05-.05.1-.1.1h-4.36c-.04 0-.07-.02-.1-.07-.01-.05 0-.09.03-.12ZM40.62 16.5 43.1 20c.06.08.06.16 0 .24-.06.09-.14.11-.24.08l-4.68-1.37a.2.2 0 0 1-.15-.16.2.2 0 0 1 .06-.2l2.22-2.12a.2.2 0 0 1 .17-.05c.06 0 .12.03.15.08Z" fill="#696B6B"/><path d="m17.65 19.1-4.42 1.24c-.13.04-.23 0-.3-.1-.07-.11-.07-.22 0-.32l2.42-3.24c.05-.07.12-.11.2-.12.08 0 .16.03.21.09l2 1.99c.08.07.1.16.08.26a.26.26 0 0 1-.2.2Z" fill="#79CCE3"/><path d="M33.12 20h2.76c.08 0 .12.06.12.14l-.02 2.74c0 .06-.02.09-.07.1a.1.1 0 0 1-.13-.02l-2.75-2.76a.1.1 0 0 1-.02-.13c.02-.05.06-.07.11-.07Z" fill="#AA6B74"/><path d="m20 22.88.01-2.75c0-.08.04-.12.12-.12l2.75-.01a.1.1 0 0 1 .1.07.1.1 0 0 1-.02.13l-2.76 2.76a.1.1 0 0 1-.13.03.1.1 0 0 1-.07-.11Z" fill="#696B6B"/><path d="M37 23.81v-3.58c0-.14.06-.25.17-.33a.4.4 0 0 1 .36-.06l5.02 1.53c.13.04.21.11.26.24.05.12.05.23-.02.35l-2.53 4.6a.38.38 0 0 1-.3.2.4.4 0 0 1-.35-.11l-2.49-2.55a.4.4 0 0 1-.11-.29Z" fill="#F1A220"/><path d="m15.87 27-2.85-5.1a.18.18 0 0 1 0-.16.2.2 0 0 1 .12-.1L18.76 20a.2.2 0 0 1 .16.03c.05.04.08.09.08.15v3.91c0 .05-.03.1-.06.13l-2.77 2.81a.17.17 0 0 1-.16.05.18.18 0 0 1-.14-.09Z" fill="#7E8186"/><path d="M25.9 27.46c-.46.04-.47.12-.04.26a4.9 4.9 0 0 1 1.5.8 83.6 83.6 0 0 0 2.61 1.95c.55.4 1.13.62 1.72.7.67.08 1.24-.06 1.73-.42.48-.36.55-.3.2.2-.98 1.4-2.26 1.58-3.84.55-1-.65-2.08-1.42-3.24-2.33a6.38 6.38 0 0 0-1.17-.72c-.46-.22-.9-.35-1.3-.39-.83-.08-.86-.28-.08-.58.77-.3 1.69-.5 2.75-.57.64-.04 1.6-.04 2.87 0l1.18.02c.37 0 .73-.04 1.09-.16.36-.11.68-.28.94-.5.62-.5.83-1.14.63-1.92a1.66 1.66 0 0 0-.95-1.08 2.87 2.87 0 0 0-1.47-.28c-1.23.07-2.47.1-3.7.09-.57 0-1.05-.1-1.45-.26-.52-.22-.82-.56-.92-1.03-.01-.05 0-.1.05-.12.04-.03.08-.02.12 0a3.8 3.8 0 0 0 2.71.78c1.27-.09 2.5-.13 3.69-.13.89 0 1.56.3 2.03.9.47.58.61 1.3.43 2.17-.16.8-.6 1.37-1.33 1.73-.6.3-1.36.42-2.26.37-1.77-.1-3.28-.12-4.5-.03Z" fill="#363636"/><path d="M41.58 27c-.03 0-.05-.02-.06-.04a.06.06 0 0 1 0-.07l2.27-4.32c.2-.39.37-.37.5.06a19 19 0 0 1 .71 4.16c.01.12-.04.2-.15.21h-3.27Z" fill="#7E8186"/><path d="m12.1 23.16 2.34 3.66c.08.12.04.17-.12.17l-3 .01a.33.33 0 0 1-.22-.08.24.24 0 0 1-.09-.2c.06-1.31.3-2.49.72-3.53.1-.24.22-.25.37-.03Z" fill="#AA6B74"/><path d="m23.66 26.32-.18.22c-.46.56-.8 1-1.01 1.32a3.34 3.34 0 0 0-.61 1.42c-.01.11.01.21.07.31.1.15.16.31.2.48.02.16-.03.18-.14.06-.46-.49-.52-1.05-.19-1.7.2-.38.56-.91 1.07-1.58.37-.5.64-.88.8-1.15.28-.45.48-.9.61-1.34.01-.03.03-.03.05-.03l.05.02c.02.02.03.03.03.06a3.58 3.58 0 0 1-.75 1.9Z" fill="#363636"/><path d="m37.23 25.68 2.12 2.2c.05.05.05.1 0 .14l-2.17 2.16a.1.1 0 0 1-.12.02.1.1 0 0 1-.06-.1v-4.35c0-.05.08-.08.12-.1a.1.1 0 0 1 .11.03ZM18.73 30.2l-2.18-2.08c-.07-.07-.07-.13 0-.2l2.2-2.07c.04-.04.1-.05.16-.03.06.02.09.07.09.13v4.16c0 .06-.05.1-.11.13a.15.15 0 0 1-.16-.03Z" fill="#7E8186"/><path d="m43.82 33.55-2.36-4.2c-.13-.23-.06-.35.2-.35h2.97c.15 0 .22.07.22.22a14.44 14.44 0 0 1-.7 4.3c-.08.25-.2.26-.33.03Z" fill="#AA6B74"/><path d="m14.5 29.38-2.39 4.18a.24.24 0 0 1-.27.12c-.11-.02-.18-.1-.2-.21l-.63-4.15a.24.24 0 0 1 .06-.2c.04-.06.1-.12.19-.12h3c.1 0 .18.04.23.13.05.08.05.17 0 .25Z" fill="#79CCE3"/><path d="M29.24 32.21c.8.57 1.53.9 2.17 1 .84.13 1.57-.13 2.18-.78.04-.04.07-.04.11 0 .04.02.04.06.01.1-.61.75-1.3 1.1-2.08 1.03a4.6 4.6 0 0 1-1.5-.43 7.7 7.7 0 0 1-1.33-.78c-1.17-.87-2.31-1.7-3.42-2.46a5.25 5.25 0 0 0-1.88-.87l.02-.07c.01-.05.04-.06.09-.06.96.2 1.85.6 2.68 1.2 1.02.74 2 1.45 2.95 2.12Z" fill="#363636"/><path d="m40.13 29.04 2.82 5.05c.03.05.03.1.01.15a.16.16 0 0 1-.11.1l-5.54 1.69c-.1.03-.3-.05-.31-.16v-3.95c0-.05.02-.1.05-.13l2.8-2.8a.17.17 0 0 1 .15-.04c.06 0 .1.04.13.09Z" fill="#696B6B"/><path d="M19 31.85v4c0 .06-.02.11-.08.15a.18.18 0 0 1-.17.03l-5.6-1.64a.2.2 0 0 1-.12-.28l2.83-5.07a.19.19 0 0 1 .15-.1c.06 0 .12.01.16.06l2.74 2.71c.04.04.09.09.09.14Z" fill="#F1A220"/><path d="M30.28 33.93c1.37.7 2.45.58 3.25-.37.02-.02.03-.02.05 0l.04.07v.03a2.2 2.2 0 0 1-1.79 1 3.94 3.94 0 0 1-2.02-.6c-.97-.55-1.7-1.03-2.2-1.43a24.45 24.45 0 0 0-1.95-1.5 6.25 6.25 0 0 0-2.17-.97c-.18-.03-.18-.08-.02-.14a.53.53 0 0 1 .36-.01 9 9 0 0 1 2.03.94c.42.26 1.02.68 1.8 1.27 1.12.82 1.99 1.4 2.62 1.71Z" fill="#363636"/><path d="M36 33.13v2.74c0 .03-.01.07-.04.1a.12.12 0 0 1-.1.03H33c-.06 0 .03-.09.01-.14a.12.12 0 0 1 .03-.15l2.68-2.67c.04-.04.1-.05.15-.03.05.02.13.06.13.12Z" fill="#79CCE3"/><path d="m22.87 36-2.74-.02a.13.13 0 0 1-.1-.04.14.14 0 0 1-.03-.1V33c0-.06.08-.04.13-.06.06-.03.15.06.19.1l2.64 2.73c.04.05.05.1.03.15a.12.12 0 0 1-.12.08Z" fill="#AA6B74"/><path d="M43.06 36a16.98 16.98 0 0 1-2.35 3.26.38.38 0 0 1-.52.04 12.75 12.75 0 0 1-2.09-2.12c-.1-.12-.07-.2.08-.24l4.55-1.36c.46-.14.57 0 .33.42Z" fill="#79CCE3"/><path d="m13.08 35.6 4.94 1.46a.1.1 0 0 1 .08.09c0 .04 0 .08-.04.11l-2.24 2.17c-.08.08-.16.08-.25.01a8.48 8.48 0 0 1-1.45-1.68c-.36-.52-.75-1.19-1.18-1.99-.03-.04-.02-.09.01-.13a.11.11 0 0 1 .13-.04Z" fill="#7E8186"/><path d="M31.96 37h3.72c.1 0 .2.04.26.13a.3.3 0 0 1 .05.28l-1.5 5.28c-.04.1-.1.17-.2.21a.3.3 0 0 1-.27-.01l-4.83-2.6a.3.3 0 0 1-.17-.24.3.3 0 0 1 .09-.27l2.62-2.64c.06-.06.14-.14.23-.14Z" fill="#AA6B74"/><path d="m30.18 37.19-2.05 2.27c-.05.05-.1.05-.15 0l-2.17-2.27c-.03-.03-.04-.07-.02-.12.02-.05.05-.07.1-.07h4.21c.05 0 .08.02.1.07.02.04.01.08-.02.12Z" fill="#79CCE3"/><path d="m27.01 40.1-5.05 2.85a.15.15 0 0 1-.15 0 .16.16 0 0 1-.1-.1l-1.7-5.64c-.02-.05-.01-.1.02-.14a.16.16 0 0 1 .14-.07h3.91c.05 0 .09.02.12.05l2.85 2.8c.03.03.05.08.04.13 0 .06-.03.1-.08.12Z" fill="#696B6B"/><path d="M19.25 42.52a12.88 12.88 0 0 1-2.73-2.05.2.2 0 0 1-.06-.14c0-.05.02-.1.06-.14l2.14-2.22c.05-.05.1-.07.17-.05.07.01.12.06.14.12l1.25 4.16c.06.21.09.44.07.68 0 .07-.04.11-.1.14a.16.16 0 0 1-.16-.01 10 10 0 0 0-.78-.49Z" fill="#AA6B74"/><path d="M39.47 40.6 36.18 43a.27.27 0 0 1-.33.01.27.27 0 0 1-.12-.32l1.24-4.48c.03-.1.1-.18.2-.2.12-.03.2 0 .29.07l2.05 2.07c.06.06.09.14.08.23 0 .08-.04.15-.12.2ZM22.48 43.94l4.32-2.5a.13.13 0 0 1 .14 0c.04.03.06.07.06.12v3.29c0 .04-.03.08-.07.11a.15.15 0 0 1-.12.04c-1.46-.21-2.91-.32-4.31-.83-.05-.02-.08-.05-.09-.11 0-.06.02-.1.07-.12Z" fill="#696B6B"/><path d="M33.46 44.23a18 18 0 0 1-1.98.53c-.7.14-1.42.22-2.16.24a.3.3 0 0 1-.23-.09.31.31 0 0 1-.09-.23v-3.03c0-.13.07-.18.18-.14 1.83.9 2.98 1.53 4.35 2.37a.2.2 0 0 1 .06.2.19.19 0 0 1-.13.15Z" fill="#F1A220"/></svg>