<svg width="56" height="56" viewBox="0 0 56 56" xmlns="http://www.w3.org/2000/svg"><path fill="#F18A23" d="M0 0h56v56H0z"/><path d="M22.13 24h-10.5c-1.69.29-5.09 2.01-5.09 5.55 0 4.24 3.72 5.74 5.58 5.96h25.24c1.75.05 5.86-.37 8.36-2.44 3.13-2.6 2.65-5.04 2.75-6.14.11-1.1-.32-3.3-1.86-5.4-1.23-1.67-3.8-2.57-4.93-2.8H23.26l-1.91 2.8.78 2.47Z" fill="#F26E23"/><path fill-rule="evenodd" d="M12.35 23C8.85 23 6 26.41 6 29.82A6.27 6.27 0 0 0 12.35 36h27.4A9.13 9.13 0 0 0 49 27c0-4.97-4.15-9-9.26-9H25.17C22.78 18 21 19.3 21 21.62c0 .5.16 1 .48 1.38h-9.13ZM22 21.66c.06.86.7 1.65 1.14 2.34H12.35C9.4 24 7 26.95 7 29.82S9.4 35 12.35 35h27.4A8.13 8.13 0 0 0 48 27c0-4.43-3.7-8-8.26-8H25.17c-1.83 0-3.17.84-3.17 2.62v.04Z" fill="#fff"/><path d="M23 22c0-1.1.68-2 2-2h15c1.32 0 2 .9 2 2s-.68 2-2 2H25c-1.32 0-2-.9-2-2Z" fill="#fff"/><path d="M8 29.5c0-2.49 2.08-4.5 4.66-4.5h26.68A4.58 4.58 0 0 1 44 29.5c0 2.49-2.08 4.5-4.66 4.5H12.66A4.58 4.58 0 0 1 8 29.5Z" fill="#0273B7"/><path fill-rule="evenodd" d="m21.12 31.53-.15.47h.82l1.76-5h-.9l-.63 1.89c-.17-.2-.47-.39-.99-.39-1.12 0-1.55.86-1.7 1.29l-.36.97c-.2.42-.32 1.24.74 1.24a2.2 2.2 0 0 0 1.41-.47Zm.25-.73.4-1.15a.77.77 0 0 0-.74-.48.9.9 0 0 0-.84.62l-.3.82c-.14.66.28.74.5.7.5 0 .82-.28.98-.51Zm-9.42-3.76-1.87 4.94h1.12l.6-1.66h1.53c.4 0 .37.42.31.62l-.38 1.04h1.08l.39-1.13c.24-.68-.25-.93-.53-.97.8-.08 1.22-.82 1.5-1.82.24-.8-.38-1.01-.72-1.02h-3.03Zm.67.79-.58 1.67h1.51c.73 0 .95-.72 1.1-1.18.1-.36-.21-.48-.39-.5h-1.64Zm3.94 1.72h-.8c.04-.35.46-1.05 1.8-1.05 1.33 0 1.47.6 1.37.89l-1 2.61H17l.15-.35c-.09.11-.43.35-1.12.35-.83 0-1.05-.42-1.06-.63 0-1.04 1-1.53 1.77-1.53.62 0 .95.2 1.04.3.31-.63.31-1.07-.32-1.07-.52 0-.81.32-.9.48Zm-.1 1.88c.8 0 .97-.35 1-.57.14-.39-.45-.4-.65-.4s-.61 0-.86.47c-.2.39.26.5.51.5Zm5.98.55 1.18-3.48h.87l-1.22 3.48h-.83Zm2.4-4.48h-.88l.17-.5h.89l-.18.5Zm-.8 3.5.56-1.53c.2-.58.75-.97 1.37-.97h1.3c.5 0 .86.51.68 1l-.55 1.53c-.2.58-.75.97-1.37.97h-1.3a.74.74 0 0 1-.68-1Zm1-.38.35-.97c.1-.25.33-.42.6-.42h.52c.33 0 .56.33.45.65l-.35.97a.64.64 0 0 1-.6.42h-.52a.48.48 0 0 1-.45-.65Zm5.08-2.23-.79 2.19c-.22.69-.14 1.42.5 1.42h2.04c.78 0 1.48-.56 1.75-1.4l.15-.45h-1.1l-.14.41c-.12.37-.42.6-.76.6h-.68c-.42 0-.9-.14-.57-.92l.65-1.8c.12-.36.42-.6.76-.6h.68c.41 0 .82.23.58.9h1.03l.1-.32c.22-.69.06-1.42-.59-1.42h-1.86c-.78 0-1.48.55-1.75 1.39Zm4.57.11L33.5 32h.83l1.23-3.5h-.87Zm.33-1h.89l.17-.5h-.89l-.17.5Zm.5 3.32.66-1.62h-.47l.34-.7h.41l.4-1h.88l-.4 1h1.32l-.36.7h-1.24l-.55 1.37c-.11.25-.25.74.12.74.38 0 .63-.5.7-.74h.84c-.53 1.24-1 1.43-2 1.43-.81 0-.77-.79-.65-1.18Zm4.2-.17 1.58-2.15h1.03a182.22 182.22 0 0 1-3.22 4.17c-.4.46-1.17 1.33-2 1.33-.71 0-.88-.32-.87-.49 0-1.1 1.7-1.53 2.55-1.6l.13-.18V28.5h.8v2.15Zm-1.14 1.55c-.29.47-1.03 1.39-1.69 1.39-.82 0 .31-1.29 1.69-1.39Z" fill="#fff"/><path fill-rule="evenodd" d="M25 23v-2h1.12v.28h-.72v.6h.5v.27h-.5V23H25Zm1.4-2v2h.34v-1.27l.28 1.27h.32l.35-1.27V23H28v-2h-.47l-.32 1.34-.34-1.34h-.47Zm2.6 2v-2h.57c.33 0 .52.19.52.5 0 .24-.17.36-.25.38.1.04.31.2.31.54 0 .46-.26.58-.39.58H29Zm.45-1.8h-.07v.62h.07a.3.3 0 0 0 .32-.3.3.3 0 0 0-.32-.31Zm0 .89h-.07v.64h.08c.18 0 .33-.14.33-.32a.33.33 0 0 0-.33-.32ZM31.27 21c-.34 0-.62.2-.62.45v1.1c0 .25.28.45.62.45.34 0 .62-.2.62-.45v-1.1c0-.25-.28-.45-.62-.45Zm-.02.3c-.13 0-.24.08-.24.18v1.04c0 .1.1.18.24.18.14 0 .24-.08.24-.18v-1.04c0-.1-.1-.18-.24-.18Zm5.76.15c0-.25.26-.45.59-.45.32 0 .58.2.58.45v1.1c0 .25-.26.45-.58.45-.33 0-.59-.2-.59-.45v-1.1Zm.34.03c0-.1.11-.18.25-.18.13 0 .24.08.24.18v1.04c0 .1-.11.18-.24.18-.14 0-.25-.08-.25-.18v-1.04ZM32.18 23v-2h.4v1.72h.67V23h-1.07Zm1.43 0v-2h1.13v.28H34v.6h.51v.27H34v.55h.74v.3H33.6Zm3.19-2h-1.34v.33H36V23h.34v-1.67h.46V21Zm2.2 0h-.4v2h.4v-.85h.6V23h.4v-2h-.4v.85H39V21Z" fill="#4E4E4E"/></svg>