<svg xmlns="http://www.w3.org/2000/svg" width="56" height="56"><path fill="#F0F3FA" d="M0 0h56v56H0z"/><path d="M28.47 11h-1.39c.1.13.23.25.35.37l.16.16a10.76 10.76 0 012.93 5.75c.32 1.79.3 3.62.2 5.43l-.11 1.9c-.13 2.05-.26 4.1-.15 6.15.11 1.98.47 3.96 1.18 5.81.54 1.45 1.3 2.8 2.19 4.03l.21.27a23.37 23.37 0 001.8 2.09c.19-.1.36-.22.54-.33l.4-.25a14.3 14.3 0 01-1.23-1.35l-.03-.05a13.26 13.26 0 01-2.53-5.1c-.47-1.85-.54-3.8-.45-5.7.04-1.04.13-2.07.2-3.1.13-1.46.24-2.9.25-4.37v-.53c0-.4 0-.8-.05-1.19-.1-1.48-.37-2.95-.87-4.34a13.98 13.98 0 00-2.04-3.8c-.25-.33-.5-.65-.77-.97-.11-.14-.26-.3-.4-.44-.15-.16-.3-.32-.39-.44zm-8 1.78l-.43.2c.16.12.3.26.43.4l.15.15a9.38 9.38 0 012.5 4.57c.46 2.04.32 4.16.08 6.23l-.3 2.29c-.3 2.22-.6 4.45-.56 6.7.02.7.06 1.4.15 2.08a15.1 15.1 0 001.76 5.54c.22.44.49.85.76 1.26l.2.31.1.12c.36.5.74 1.01 1.17 1.47l.32.36c.16.17.31.34.44.54h1.62l-.43-.5a13.32 13.32 0 01-2.7-4.22 16.25 16.25 0 01-1-6.51c.04-1.55.2-3.09.36-4.63.12-1.21.24-2.43.31-3.65.12-2.09.05-4.21-.47-6.24-.25-.93-.56-1.84-1-2.68-.42-.88-.92-1.72-1.53-2.47-.2-.28-.43-.54-.66-.8l-.25-.3a5.54 5.54 0 01-.11-.12c-.12-.14-.24-.27-.4-.36l-.52.26z" fill="#1F1A18"/><path d="M28.59 11h-.12c.12.22.3.38.47.55.11.1.22.21.32.33l.77.97.3.43a13.98 13.98 0 011.74 3.37c.5 1.39.77 2.86.87 4.34.04.4.04.8.04 1.19v.53c3.55 1.3 7.7 2.86 8.77 7.14.78 3.13-.38 6.42-1.65 9.22l-.29.62c-.11.24-.23.48-.33.73a18.3 18.3 0 003.72-5.39c.93-1.86 1.54-3.9 1.74-5.99.03-.23.04-.46.04-.7 0-.16 0-.32.02-.48v-.39a7.57 7.57 0 01-.03-.93 16.3 16.3 0 00-2.9-7.88 17.86 17.86 0 00-12.97-7.62c-.17-.03-.34-.03-.51-.04zm-12.24 4.82l-.04-.03c-.44.44-.83.93-1.2 1.43-.66.83-1.26 1.72-1.79 2.66a17.23 17.23 0 00-2.16 6.16c-.17.84-.16 1.69-.16 2.54v.33c.3 7.62 6.38 14.77 13.98 15.95.75.14 1.5.15 2.26.14-.13-.2-.28-.37-.44-.54l-.32-.36a14.95 14.95 0 01-1.27-1.59l-.2-.31a15.1 15.1 0 01-2.52-6.8c-.09-.69-.13-1.38-.15-2.07-4-1.25-8.34-3.95-8.34-9.04 0-2.96 1-5.76 2.23-8.3a.76.76 0 01.12-.17z" fill="#0092DF"/></svg>