<svg xmlns="http://www.w3.org/2000/svg" width="56" height="56"><path fill="#E3A538" d="M0 0h56v56H0z"/><path d="M33.5 19a5.5 5.5 0 110 11 5.5 5.5 0 010-11zm0 1.74a4.23 4.23 0 10.01 8.45 4.23 4.23 0 00-.01-8.45zM26 33.14V43H15.64l10.05-10 .31-.3v.44zm-.37 9.48v-9.03l-9.12 9.03h9.12zM25.54 32H15v10.56L25.54 32zM26 20.14V30H15.64l10.05-10 .31-.3v.44zm-.37 9.48v-9.03l-9.12 9.03h9.12zM25.54 19H15v10.56L25.54 19zM39 33.14V43H28.54l10.14-10 .32-.3v.44zm-.37 9.48v-9.03l-9.2 9.03h9.2zM38.64 32H28v10.53L38.64 32z" fill="#fff"/><path fill-rule="evenodd" d="M36.78 14l-6 .01-.06.15-.83 2.02-.06.14.1.1 3.48 3.65.17.18.17-.17 3.79-3.62.1-.1-.05-.15-.8-2.21zm-.23.8l-.72 1h1.1l-.38-1zm-.4-.3l-.78.96-.95-.97h1.73zm.8 1.86h-6.42l3.06 3.22 3.36-3.22zm-6.38-.57l.48-1.15.79 1.15h-1.27zm1-1.3h1.75l-1 1-.74-1zm2.3.26l-1.04 1.04h2.07l-1.03-1.04z" fill="#fff"/><path d="M28.34 15.7L27 15.22l.1-.27 1.34.48-.1.27zm-.84-1.61l1.24.7.15-.25-1.24-.7-.15.25zm1.8-.13l-1.1-.9.2-.22 1.09.9-.19.22zm-.22-1.8l.92 1.08.22-.18-.92-1.08-.22.19zm1.73.5l-.71-1.22.25-.15.71 1.22-.25.14zm.42-1.77l.49 1.32.27-.1-.49-1.32-.27.1zm1.46 1.04l-.25-1.38.29-.05.24 1.38-.28.05zm1-.1h.3V10.4h-.3v1.41zm-.57-.72l.07.79.29-.03-.07-.78-.3.02zm-.93.98l-.2-.76.28-.07.2.76-.28.07zm-1.28-.35l.34.72.27-.12-.34-.72-.27.12zm-.52 1.23l-.46-.64.23-.16.47.64-.24.16zm-1.33.1l.57.56.2-.2-.56-.56-.21.2zM29 14.41l-.66-.45.16-.24.66.46-.16.23zm-1.22.54l.73.33.12-.26-.72-.33-.13.26zm6.88-3.07l.25-1.38.29.05-.25 1.38-.29-.05zm1.47-1.09l-.49 1.33.28.1.49-1.33-.28-.1zm.44 1.72l.72-1.22.25.15-.72 1.21-.25-.14zm1.76-.53l-.92 1.08.23.18.92-1.07-.23-.19zm-.19 1.76l1.1-.9.19.22-1.1.9-.19-.22zm1.85.1l-1.24.7.14.25 1.24-.7-.14-.25zm-.8 1.59l1.35-.48.1.27-1.35.48-.1-.27zm-4.96-4.34l-.07.78.29.03.07-.79-.3-.02zm.93.93l.2-.76.29.07-.2.76-.29-.07zm1.3-.4l-.34.72.26.12.34-.72-.26-.12zm.55 1.2l.46-.65.24.16-.46.64-.24-.16zm1.36.02l-.57.56.2.2.58-.56-.21-.2zm.1 1.34l.66-.46.17.24-.66.45-.17-.23zm1.26.51l-.73.33.12.26.73-.33-.12-.26z" fill="#fff"/></svg>