<svg width="56" height="56" viewBox="0 0 56 56" xmlns="http://www.w3.org/2000/svg"><path fill="#F0F3FA" d="M0 0h56v56H0z"/><path fill-rule="evenodd" d="M48.6 30.93a10.85 10.85 0 0 0 0-5.86c-.27-.96-.67-1.9-1.2-2.81a14.3 14.3 0 0 0-1.94-2.6 17.43 17.43 0 0 0-2.61-2.27 22.67 22.67 0 0 0-6.81-3.25A28.17 28.17 0 0 0 28 13c-2.78 0-5.46.38-8.04 1.14a22.68 22.68 0 0 0-6.8 3.25c-.98.7-1.86 1.46-2.62 2.28-.77.82-1.41 1.68-1.94 2.59-.53.91-.93 1.85-1.2 2.81a10.85 10.85 0 0 0 0 5.86c.27.96.67 1.9 1.2 2.81.53.91 1.17 1.77 1.94 2.6.76.81 1.64 1.57 2.61 2.27a22.68 22.68 0 0 0 6.81 3.25C22.54 42.62 25.22 43 28 43c2.78 0 5.46-.38 8.04-1.14a22.67 22.67 0 0 0 6.8-3.25c.98-.7 1.86-1.46 2.62-2.28a14.3 14.3 0 0 0 1.94-2.59c.53-.91.93-1.85 1.2-2.81Zm-.98-.2a9.95 9.95 0 0 0 0-5.46 11.1 11.1 0 0 0-1.14-2.63c-.5-.85-1.12-1.65-1.85-2.42a16.47 16.47 0 0 0-2.49-2.12 21.79 21.79 0 0 0-6.49-3.03C33.2 14.36 30.65 14 28 14c-2.65 0-5.2.36-7.65 1.07a21.79 21.79 0 0 0-6.5 3.03c-.92.65-1.75 1.36-2.48 2.12-.73.77-1.35 1.57-1.85 2.42-.5.85-.88 1.73-1.14 2.63a9.95 9.95 0 0 0 0 5.46c.26.9.64 1.78 1.14 2.63.5.85 1.12 1.65 1.85 2.42.73.76 1.56 1.47 2.49 2.12a21.79 21.79 0 0 0 6.49 3.03c2.45.71 5 1.07 7.65 1.07 2.65 0 5.2-.36 7.65-1.07a21.79 21.79 0 0 0 6.5-3.03c.92-.65 1.75-1.36 2.48-2.12.73-.77 1.35-1.57 1.85-2.42.5-.85.88-1.73 1.14-2.63Z" fill="#3E3F96"/><path d="m30.51 16.8-.16 1.63c0 .02-.02.03-.04.03l-.87-.09c-.02 0-.03-.01-.03-.03l.33-3c0-.06.03-.08.08-.08l.8.1c.05 0 .08.03.1.07l.76 1.73c.03.06.05.05.05-.01l.16-1.64c0-.02.01-.03.03-.03l.89.1c.02 0 .03.01.02.03l-.32 3.01c0 .02 0 .04-.02.05a.06.06 0 0 1-.05.01l-.82-.1a.1.1 0 0 1-.09-.07l-.78-1.72c-.02-.04-.03-.04-.04.01ZM23.45 17.04l.25 1.61c0 .05-.02.07-.06.08l-.81.1h-.05a.06.06 0 0 1-.02-.05l-.41-2.96c0-.04.01-.06.05-.07l.81-.11c.03 0 .06 0 .08.02.45.53.85 1.04 1.2 1.53.04.05.05.04.04-.02l-.24-1.65c0-.02 0-.03.02-.04l.9-.12.01.01.42 3.04c0 .02 0 .04-.03.04l-.84.1a.1.1 0 0 1-.1-.04l-1.2-1.49c-.02-.03-.03-.03-.02.02ZM20.66 18.72c.1.02.18 0 .25-.08.08-.07.1-.15.07-.25-.22-.74-.44-1.41-.64-2.02-.01-.03 0-.05.03-.06l.88-.28c.02 0 .04 0 .05.03.14.53.32 1.1.53 1.72.1.3.15.55.13.74a.88.88 0 0 1-.38.67c-.2.14-.44.24-.74.3-.35.07-.64.01-.85-.17a1.9 1.9 0 0 1-.44-.75c-.04-.1 0-.16.09-.18.2-.05.4-.11.6-.2.1-.04.16 0 .17.1 0 .13.05.24.13.35.03.05.07.08.12.08Z" fill="#3E3F96"/><path fill-rule="evenodd" d="m27.04 17.96.95-.02c.02 0 .04 0 .05.04l.08.34c0 .02.02.03.05.03h.88c.02 0 .03 0 .04-.02a.05.05 0 0 0 0-.05l-1.1-3c0-.03-.02-.04-.04-.04l-.94.02a.05.05 0 0 0-.05.04l-1 3.03v.04c.01.02.03.02.04.02l.89-.02c.03 0 .04-.02.05-.04l.05-.33c0-.03.02-.04.05-.04Zm.42-1.65-.26.96.01.03.03.02.54-.01c.02 0 .03-.01.03-.02v-.03l-.28-.95c0-.02-.02-.03-.04-.02-.02 0-.03 0-.03.02ZM33.76 15.79c-.03-.01-.05 0-.06.03l-.8 2.92c0 .02 0 .04.04.05l1.44.4a1.34 1.34 0 0 0 1.05-.13 1.37 1.37 0 0 0 .65-.85l.08-.3a1.41 1.41 0 0 0-.48-1.48c-.14-.11-.3-.2-.47-.24l-1.45-.4Zm.74 1.02c-.02-.01-.04 0-.05.02l-.38 1.42c-.01.03 0 .05.02.05l.3.09c.16.04.3.02.45-.07a.62.62 0 0 0 .28-.38l.08-.3a.62.62 0 0 0-.05-.47.54.54 0 0 0-.34-.28l-.3-.08Z" fill="#3E3F96"/><path d="m38.18 17.22-.88-.35c-.02 0-.03 0-.04.02l-1.1 2.84c-.01.01 0 .03.01.03l.88.35.04-.01 1.1-2.85v-.03ZM40.02 20.09c0 .11.02.12.07.02l.8-1.43c.01-.03.03-.03.05-.02l.77.46v.03l-1.51 2.61c-.02.04-.05.05-.08.03l-.7-.42a.15.15 0 0 1-.08-.14v-1.8c0-.1-.02-.1-.07-.02l-.78 1.37c-.01.03-.03.03-.05.02l-.75-.44c-.02 0-.02-.03-.01-.05l1.51-2.62c.02-.02.04-.03.07-.01l.69.4c.04.03.07.07.07.12.03.67.03 1.3 0 1.89Z" fill="#3E3F96"/><path fill-rule="evenodd" d="m17.84 20.6-.09-.33c0-.03 0-.04.02-.05l.86-.41h.05l.23.28c.01.02.03.02.05.01l.81-.38c.02 0 .02-.01.03-.03 0-.01 0-.03-.02-.04l-2.26-2.27h-.04l-.85.4c-.02.01-.03.03-.03.05l.35 3.18c0 .02.01.03.03.04h.04l.8-.4c.02 0 .03-.02.02-.05Zm-.37-2.07.17 1 .01.02h.03l.5-.23.02-.02-.01-.03-.66-.77c-.01-.01-.02-.02-.04 0-.01 0-.02.01-.02.03Z" fill="#3E3F96"/><path d="M38.02 34.22a6.27 6.27 0 0 1-1.63.98c-.74.32-1.5.37-2.26.15-.67-.2-1.33-.6-1.98-1.2-.97-.9-1.86-1.93-2.69-3.12a24.5 24.5 0 0 1-2.06-3.6c-.03-.07-.01-.1.06-.11a5.31 5.31 0 0 0 2.8-.95c.29-.2.52-.44.71-.73.18-.28.3-.58.38-.92.07-.32.1-.66.07-1-.03-.34-.1-.67-.2-1a2.3 2.3 0 0 0-1.1-1.24 5.7 5.7 0 0 0-1.62-.55 17.16 17.16 0 0 0-5.98-.19c-.52.07-1.07.2-1.64.39-.49.16-.92.37-1.29.65A3.47 3.47 0 0 0 18.23 24c-.09.47-.09.96 0 1.48.09.63.33 1.19.73 1.7.4.51.89.87 1.45 1.07.44.15.9.24 1.4.28.19.01.2-.02.02-.1a5.52 5.52 0 0 1-1.71-1.12 4.22 4.22 0 0 1-1.05-1.8 4.18 4.18 0 0 1-.18-1.29c.01-.47.11-.89.3-1.25a2.6 2.6 0 0 1 1.44-1.33 8.3 8.3 0 0 1 2.38-.42 49.03 49.03 0 0 0 1.24-.04v.04a4.71 4.71 0 0 0-.95 2.11c-.13.66-.3 1.44-.3 2.34v4.28c0 .91-.71 1.83-1.56 1.97h-.01v.03c0 .02.01.05.03.05h4.57c.25 0 .26-.08.02-.17-.47-.18-.78-.74-.94-1.15-.1-.26-.11-.62-.11-1.1.01-2.57-.02-5.35-.03-8.35 0-.03.02-.05.05-.05.6 0 1.13.02 1.57.08.6.07 1.1.2 1.52.38.47.21.83.57 1.08 1.06.21.43.33.94.37 1.55.02.47-.02.88-.12 1.23-.13.46-.36.78-.67.97-.31.19-.82.34-1.54.47a13.76 13.76 0 0 1-1.62.2 28.29 28.29 0 0 0 1.94 3.93 18.6 18.6 0 0 0 2.58 3.4 5.48 5.48 0 0 0 4.18 1.7l-.03.03a24.72 24.72 0 0 1-8.77.7 21.8 21.8 0 0 1-4.62-.95 16.6 16.6 0 0 1-4.23-2.04c-.62-.43-1.18-.9-1.67-1.42a7.98 7.98 0 0 1-1.28-1.76 5.95 5.95 0 0 1-.67-2.04 5.4 5.4 0 0 1 .2-2.26 7.62 7.62 0 0 1 2.53-3.63 14.1 14.1 0 0 1 3.86-2.25c2.04-.82 4.22-1.3 6.54-1.47a25.2 25.2 0 0 1 5.9.27c2.04.34 3.92.95 5.65 1.81 1.17.6 2.19 1.3 3.06 2.14.48.46.88.96 1.22 1.48.34.54.6 1.1.77 1.67.36 1.24.3 2.47-.2 3.69a7.73 7.73 0 0 1-2 2.78 12.5 12.5 0 0 1-2.89 1.96c-.13.07-.14.05-.03-.05.17-.17.32-.33.46-.5.28-.33.25-.37-.1-.09Z" fill="#01B0EF"/><path d="m43.35 20.53-.69-.6a.05.05 0 0 0-.07.01l-1.95 2.3a.05.05 0 0 0 0 .06l.7.6c.02.02.05.02.06 0l1.96-2.3a.05.05 0 0 0 0-.07Z" fill="#3E3F96"/><path fill-rule="evenodd" d="M16.13 20.42c-.2-.14-.38-.17-.57-.07-.07.03-.09.01-.05-.05.12-.25.12-.47.01-.68-.2-.38-.47-.56-.8-.52a1.8 1.8 0 0 0-.89.44c-.38.3-.75.6-1.13.88-.01.01-.02.03 0 .05l1.86 2.41c.01.02.02.02.04 0l.74-.57c.01-.01.02-.03 0-.04l-.6-.76c-.04-.04-.04-.09.01-.12l.42-.3c.12-.09.24-.07.34.04l.49.58.04.02h.04l.73-.57a.06.06 0 0 0 .02-.06.06.06 0 0 0-.03-.05.14.14 0 0 0-.05 0 .18.18 0 0 1-.13-.08 2.46 2.46 0 0 0-.48-.55Zm-2.2 0c-.02.02-.02.03 0 .04l.33.42c0 .02.02.02.03 0l.44-.33c.06-.06.1-.12.12-.2a.23.23 0 0 0-.04-.2l-.05-.06a.23.23 0 0 0-.18-.09.33.33 0 0 0-.22.08l-.43.34Z" fill="#3E3F96"/><path d="m10.95 26.17 1.15-.02c.02 0 .03 0 .03.02l-.01.04-.94.66c-.02.01-.02.02-.02.04l.38 1.09-.01.04h-.04l-.92-.7h-.04l-.91.7h-.04c-.01-.01-.02-.03-.01-.04l.38-1.09c0-.02 0-.03-.02-.04L9 26.21c-.01 0-.02-.02-.01-.04 0-.01.01-.02.03-.02l1.15.02c.01 0 .03 0 .03-.02l.33-1.1c0-.02.02-.03.03-.03.02 0 .03 0 .04.02l.33 1.11c0 .02.01.02.03.02ZM45.99 26.17l1.13-.03c.02 0 .03.01.04.03 0 .02 0 .04-.02.05l-.93.65c-.02.01-.02.03-.02.05l.38 1.07c0 .02 0 .04-.02.05h-.05l-.9-.7h-.05l-.9.7h-.05c-.01-.01-.02-.03-.01-.05l.37-1.07c.01-.02 0-.04-.01-.05l-.93-.65c-.02 0-.03-.03-.02-.05 0-.02.02-.03.04-.03l1.13.03c.03 0 .04 0 .05-.03l.32-1.09c0-.02.02-.03.04-.03s.03.01.04.03l.32 1.1c0 .01.02.02.05.02ZM13.47 34.02l-1.52.75c-.04.02-.08.01-.1-.02l-.36-.44c-.03-.04-.03-.07 0-.11l1.1-1.51a.04.04 0 0 0 .01-.05l-.01-.01h-.03c-.43.41-.9.81-1.4 1.22h-.05l-.53-.64v-.04l2.31-1.92c.02-.02.04-.02.06 0l.71.88c.02.02.02.03 0 .05l-1.1 1.55c-.03.06-.02.07.04.04l1.73-.79c.02 0 .04 0 .05.02l.69.82.02.07-.03.06-2.26 1.9h-.05l-.53-.64c-.02-.02-.02-.04 0-.06l1.3-1.05c.24-.19.22-.22-.05-.08Z" fill="#3E3F96"/><path fill-rule="evenodd" d="M41.64 33.1v.02l2.44 1.79h.04l.87-1.22a1.36 1.36 0 0 0 .24-1.03 1.38 1.38 0 0 0-.56-.9l-.23-.18a1.4 1.4 0 0 0-1.53-.07c-.16.1-.29.22-.4.37l-.87 1.21Zm1.2-.35c-.02.02-.01.03 0 .04l1.2.87c.01.01.03 0 .04-.01l.19-.26c.09-.13.12-.27.1-.43a.54.54 0 0 0-.23-.37l-.32-.24a.54.54 0 0 0-.43-.1.55.55 0 0 0-.37.24l-.18.26Z" fill="#3E3F96"/><path d="m41.85 35.89 1.13-.88c.03-.02.05-.02.07 0l.4.52.01.03c0 .02 0 .03-.02.04l-1.91 1.47c-.03.03-.05.02-.07 0l-1.8-2.37c-.02-.03-.02-.05 0-.07l1.86-1.43c.03-.02.05-.02.07 0l.4.5.02.04-.02.03-1.12.84a.05.05 0 0 0-.02.04l.01.04.22.25c.02.02.04.02.07 0l.89-.7.03-.01c.02 0 .03 0 .04.02l.37.48.01.04c0 .01 0 .02-.02.03l-.91.7c-.03.02-.03.04-.01.07l.23.3c0 .02.02.03.03.03l.04-.01ZM15.48 35.4l1 .65c.02.01.02.03 0 .05l-.35.53c0 .02-.03.03-.05.01l-.97-.64c-.02-.02-.03-.01-.05 0l-.22.35c-.02.02-.01.04 0 .05l1.23.8c.02.01.03.03.01.05l-.36.57c-.02.02-.03.02-.05 0l-2.05-1.32c-.02-.02-.02-.03-.01-.05l1.63-2.53c.02-.02.03-.02.05-.01l1.99 1.3c.02.02.02.03.01.05l-.35.56c-.02.02-.03.02-.05.01l-1.17-.76c-.02-.02-.03-.01-.04 0l-.21.28c-.02.02-.02.04 0 .06ZM38.12 36.4l-.7.4c-.02.02-.04.01-.05 0l-.35-.65c-.01-.03 0-.05.02-.06l2.35-1.26c.02-.02.03-.01.05.01l.35.64c.02.02.01.04-.01.05l-.73.38c-.02.01-.03.03-.02.05l1.05 1.95c0 .02 0 .04-.02.05l-.8.43c-.02.01-.04 0-.05-.02l-1.03-1.95c-.01-.02-.03-.02-.06-.01ZM17.13 36.08l.29-.68c0-.03.02-.03.05-.02l2.46 1.04c.02.01.03.03.02.05l-.29.68c0 .02-.02.03-.05.02l-.73-.33c-.03-.01-.05 0-.06.02l-.85 2.04c0 .02-.03.03-.05.02l-.83-.36c-.02-.01-.03-.03-.02-.05l.86-2.04c.01-.02 0-.04-.02-.05l-.76-.3c-.02 0-.03-.02-.02-.04ZM36.65 36.19l-.89.32a.03.03 0 0 0-.01.03l1 2.85c.01.02.03.03.04.02l.89-.32.02-.03-1.01-2.86a.03.03 0 0 0-.04-.01ZM32.84 38.5l.47 1.85c.01.03 0 .04-.02.05-.22.03-.48.1-.8.2-.02 0-.04 0-.04-.02l-.7-2.9v-.06a.07.07 0 0 1 .05-.03l1.05-.27c.03 0 .06 0 .07.04l.9 1.65c.02.06.04.05.04 0l.06-1.9c0-.05.03-.07.07-.08a5.8 5.8 0 0 0 1.03-.25c.04-.01.07 0 .08.05l.7 2.9c0 .03 0 .04-.03.05l-.79.2c-.03 0-.05 0-.05-.03l-.4-1.83c0-.01-.01-.02-.03-.02h-.02l-.01.02v1.94c0 .04-.02.07-.07.07-.18.03-.36.07-.54.14-.04.01-.07 0-.09-.04l-.9-1.73v-.02l-.03.01v.02ZM25.16 39.94l-.1.73c0 .03-.02.04-.04.04l-2.22-.33c-.02 0-.03-.02-.03-.04l.41-2.97c0-.03.02-.04.05-.04l.9.13c.02 0 .03.02.03.05l-.32 2.17c0 .02 0 .04.04.04l1.25.17c.02 0 .03.02.03.05ZM31.05 37.57l-.92.1a.03.03 0 0 0-.03.04l.33 3c0 .03.01.04.03.04l.93-.1c.02 0 .03-.02.03-.04l-.33-3a.03.03 0 0 0-.04-.04ZM28.28 40.04l1.28-.02c.02 0 .03 0 .03.03l.01.75c0 .02-.01.03-.04.03l-2.26.03c-.02 0-.03-.01-.03-.04l-.04-3c0-.03.01-.04.04-.04h.91c.03 0 .04.01.04.04l.02 2.19c0 .02.02.03.04.03Z" fill="#3E3F96"/><path fill-rule="evenodd" d="m20 39.62.15-.26c.02-.04.06-.05.1-.04.23.08.5.15.78.22.06.01.09.05.1.1a.5.5 0 0 1 0 .2c-.04.13.01.2.14.22.22.03.43.1.64.19.1.04.15 0 .14-.1l-.18-3.07c0-.04-.03-.07-.07-.08l-.83-.25c-.04-.01-.07 0-.09.03l-1.8 2.56c-.04.05-.02.08.04.1.27.05.53.13.77.22.05.02.08 0 .1-.04Zm1.07-1.76-.51.84v.03c0 .01 0 .02.02.03l.5.14h.03l.02-.03.01-.98c0-.02 0-.04-.02-.04l-.05.01Z" fill="#3E3F96"/></svg>