<svg width="56" height="56" viewBox="0 0 56 56" xmlns="http://www.w3.org/2000/svg"><path fill="#F0F3FA" d="M0 0h56v56H0z"/><path d="M26.72 26.35v1.22h-.5c0-1.4-1.35-1.98-1.93-1.98-.58 0-1.29.57-1.29 1.14s.27.73 1.6 1.51c1.32.79 2.4 1.73 2.4 2.6 0 1.35-1.3 2.16-2.6 2.16-1.04 0-2.03-.83-2.4-1.24v-1.57h.47c0 1.1 1.02 2 1.93 2 .91 0 1.6-.49 1.6-1s-.74-1.03-1.7-1.6c-.97-.56-2.3-1.37-2.3-2.54 0-1.16.83-2.05 2.3-2.05 1.5 0 2.24.9 2.42 1.35Z" fill="#54352C"/><circle cx="19.5" cy="21.5" r="1.5" fill="#FAA028"/><circle cx="23.5" cy="21.5" r="1.5" fill="#BD1D33"/><path d="M4 33v-8h2.8C8.01 25 9 26.03 9 27.3c0 1.12-.77 2.2-1.78 2.4.43.96 1.3 2.52 1.78 2.78v.5h-.6c-.25-.04-1.07-.6-2.32-3.23H5V33H4Zm1-4h1.51C7.34 29 8 28.16 8 27.3s-.66-1.55-1.49-1.55H5V29ZM41 25v8h5v-.75h-4v-3.5h3.24V28H42v-2.25h4V25h-5ZM28 25h1v4h4v-4h1v8h-1v-3.25h-4V33h-1v-8ZM35 33v-8h2.8c1.21 0 2.2 1.03 2.2 2.3 0 1.12-.77 2.2-1.78 2.4.43.96 1.3 2.52 1.78 2.78v.5h-.6c-.25-.04-1.07-.6-2.32-3.23H36V33h-1Zm1-4h1.51c.83 0 1.49-.84 1.49-1.7s-.66-1.55-1.49-1.55H36V29ZM47 25v8h5v-.75h-4v-3.5h3.24V28H48v-2.25h4V25h-5ZM13.63 25h.4c.84 1.95 2.57 6.01 2.8 6.48.27.59.77 1.05 1.17 1.11V33h-.96a3.6 3.6 0 0 1-1.4-1.58c-.1-.19-.22-.47-.36-.78h-3.45L10.8 33H10l3.63-8Zm-1.52 5h2.87c-.5-1.06-1.09-2.35-1.47-3.2l-1.4 3.2ZM20 25h-1v6.2c0 .9-.72 1.3-1 1.4v.4h.5c.96 0 1.5-1.25 1.5-1.81V25Z" fill="#54352C"/></svg>