<svg width="56" height="56" viewBox="0 0 56 56" xmlns="http://www.w3.org/2000/svg"><path fill="#F0F3FA" d="M0 0h56v56H0z"/><path d="M42.63 36H8.46c-.95 0-1.65-.89-1.41-1.8l3.3-12.4c.13-.47.57-.8 1.07-.8h34.12c.95 0 1.65.88 1.41 1.79l-3.25 12.4c-.13.48-.56.81-1.07.81Z" fill="#FEC636"/><path d="M38.15 34 10.86 22.72c-.08-.56.51-.71.82-.72h31.7l-5.23 12Z" fill="url(#aeuhlyjx5)"/><path d="M11 22.82 38.15 34c.08.58-.38 1-.68 1L7.7 34.27 11 22.82Z" fill="url(#beuhlyjx5)"/><path fill-rule="evenodd" d="m13.87 24-2.63 9h3.77l1.37-4h.88l.53 4h3.75l-.77-4h.56c1.05 0 1.49-.48 1.57-.71l.7-2.54c.3-1.27-.52-1.7-.96-1.75h-8.77Zm2.85 3.5h2.55l.83-2h-2.66l-.72 2Zm8.15-1.5-.53 2h5.46c.23 0 .4.01.35.21l-.06.29h-4.73c-.47.01-1.44.34-1.62 1.52l-.42 1.84c-.1.38 0 1.14 1.27 1.14h3.43c.24-.05.72-.2 1.16-.43l-.1.43h3.78l1.12-5.47c.16-.8-.53-1.53-1.44-1.53h-7.67Zm2.74 4h1.97l-.4 1.5h-2.4l.83-1.5Zm6.74 1h2.68c.5 0 .95-.19 1.06-.6l1.27-4.4h3.3l-1.73 6.06c-.16.55-.75.94-1.42.94h-5.72l.56-2Z" fill="url(#ceuhlyjx5)"/><path d="M46.65 21.25c-.9 2.1-3.26 3.24-5.28 2.55-2.02-.7-2.92-2.95-2.02-5.05.9-2.1 3.26-3.24 5.28-2.55 2.02.7 2.92 2.95 2.02 5.05Z" fill="url(#deuhlyjx5)"/><path d="M40.42 18h2.79l-.22 1h-.9l-.65 3h-1.02l.64-3h-.86l.22-1Zm2.92 0h.94l.22 2.85L45.6 18h1l-1.87 4h-.97l-.42-4Z" fill="#FBFDFC"/><defs><linearGradient id="aeuhlyjx5" x1="12.19" y1="22.79" x2="17.08" y2="15.18" gradientUnits="userSpaceOnUse"><stop offset=".35" stop-color="#FFF9E1"/><stop offset="1" stop-color="#FEC534" stop-opacity="0"/></linearGradient><linearGradient id="beuhlyjx5" x1="36.96" y1="34.19" x2="31.96" y2="41.86" gradientUnits="userSpaceOnUse"><stop offset=".35" stop-color="#FFF9E1"/><stop offset="1" stop-color="#FEC534" stop-opacity="0"/></linearGradient><linearGradient id="ceuhlyjx5" x1="10.56" y1="32.31" x2="21.08" y2="17.15" gradientUnits="userSpaceOnUse"><stop offset=".46" stop-color="#2C51A1"/><stop offset=".65" stop-color="#6B8ECA"/><stop offset="1" stop-color="#2F5AA8"/></linearGradient><linearGradient id="deuhlyjx5" x1="43" y1="16" x2="43" y2="24" gradientUnits="userSpaceOnUse"><stop stop-color="#1F9F45"/><stop offset="1" stop-color="#0F733B"/></linearGradient></defs></svg>