<svg width="56" height="56" xmlns="http://www.w3.org/2000/svg"><path fill="#265499" d="M0 0h56v56H0z"/><path d="M40.253 18.17a15.425 15.425 0 013.209 9.441c0 8.557-6.937 15.493-15.493 15.493-8.556 0-15.492-6.936-15.492-15.493 0-3.882 1.428-7.43 3.787-10.15l-.291-.39A15.908 15.908 0 0012 27.61c0 8.82 7.15 15.97 15.97 15.97 8.819 0 15.968-7.15 15.968-15.97a15.9 15.9 0 00-3.38-9.826l-.305.384z" fill="#fff"/><path d="M37.503 20.585a11.672 11.672 0 012.49 7.216c0 6.54-5.383 11.84-12.024 11.84-6.64 0-12.024-5.3-12.024-11.84a11.69 11.69 0 012.94-7.757l-.227-.298a12.052 12.052 0 00-3.083 8.055c0 6.74 5.55 12.204 12.394 12.204 6.846 0 12.395-5.464 12.395-12.204 0-2.832-.98-5.439-2.624-7.51l-.237.294z" fill="#fff"/><path fill-rule="evenodd" d="M16.465 16.688c.377-.315.782-.652.898-1.113.286-1.144 1.668-1.55 2.74-1.55.517 0 1.621-.047 1.907-.238.358-.238 2.265-1.192 2.503.477 0 .119-.143.357-.238.357-.054 0-.108-.098-.174-.216-.078-.143-.173-.314-.303-.38-.146-.073-.302.037-.403.146a.268.268 0 01-.193.093.287.287 0 01-.195-.092c-.184-.18-.416-.117-.52.092a4.335 4.335 0 01-.64 1.097l-.075.095.792.243c.13.04.102.233-.035.233h-1.114l-.954.835c-.357.357.12.834.477.595l.698-.399a.238.238 0 01.261.017l.186.14a.238.238 0 00.312-.023l.043-.043a.238.238 0 01.337 0l.102.103a.238.238 0 00.208.066l.061-.01c.204-.034.348.19.22.353-.744.954-1.306.963-1.703.97-.205.003-.367.006-.487.137-.976 1.065-1.34 1.242-1.668 1.192a.82.82 0 00-.34-.003c-.382.095-1.329 1.314-1.448 1.552l-2.622-3.098s.62-.922.954-1.262a5.72 5.72 0 01.413-.366zm1.731-1.113c.318-.397 1.05-1.144 1.43-.954.322.161-.18.84-.607 1.311-.324.358-.323.136-.322-.056 0-.081 0-.158-.024-.182-.049-.05-.18-.017-.3.012-.169.042-.316.079-.177-.131zm2.861 2.383c.286-.19.368.12.238.239-.35.32-1.057.785-1.71.748-.473-.027-.943-.357-.923-.868.025-.609.634-1.364 1.127-1.844a.17.17 0 01.28.072.182.182 0 01-.042.183c-1.201 1.257-1.188 2.638 1.03 1.47zm-4.572-.462a.358.358 0 00-.046.503l1.456 1.75a.358.358 0 00.55-.457l-1.456-1.75a.358.358 0 00-.504-.046zm23.045-.849c-.379-.314-.958-.6-1.074-1.062-.286-1.144-1.668-1.549-2.74-1.549-.517 0-1.621-.048-1.907-.238-.358-.239-2.264-1.192-2.503.476 0 .12.143.358.238.358.055 0 .109-.098.174-.217.078-.142.173-.314.303-.379.147-.073.303.036.403.145.05.055.119.093.193.093.075 0 .141-.04.195-.092.184-.179.416-.116.52.092.158.395.373.765.64 1.097l.075.095-.792.244c-.13.04-.101.233.035.233h1.115l.953.834c.358.357-.12.834-.477.596l-.698-.4a.239.239 0 00-.261.017l-.186.14a.238.238 0 01-.312-.022l-.043-.043a.238.238 0 00-.337 0l-.102.102a.238.238 0 01-.208.066l-.061-.01c-.204-.034-.347.19-.22.354.744.953 1.306.963 1.703.97.205.003.367.005.487.137.976 1.064 1.34 1.242 1.668 1.191a.82.82 0 01.341-.003c.381.096 1.328 1.314 1.447 1.553l2.86-3.11s-.683-.962-1.017-1.302c-.12-.122-.265-.242-.413-.366zm-1.907-1.062c-.318-.397-1.049-1.144-1.43-.953-.322.16.18.84.607 1.31.324.358.323.136.322-.056 0-.081 0-.157.024-.182.05-.049.18-.017.3.013.17.042.317.078.177-.132zm-2.86 2.384c-.287-.191-.37.119-.24.238.35.32 1.058.786 1.712.749.472-.027.943-.358.922-.868-.025-.61-.633-1.365-1.126-1.844a.17.17 0 00-.28.072.182.182 0 00.041.182c1.202 1.258 1.188 2.638-1.03 1.47zm4.57-.463a.358.358 0 01.047.504l-1.456 1.75a.358.358 0 11-.55-.458l1.456-1.75a.358.358 0 01.504-.046zM12.097 28.434l.305-1.135 3.406.913v1.306l-3.71-1.084zm4.304 10.063l-.587-1.019 3.054-1.763.924.924-3.39 1.858zm11.885 5.017l-1.151-.241.722-3.452 1.304-.073-.875 3.766zm10.886-4.58l-1.036.557-1.672-3.105.95-.896 1.758 3.444zm4.528-9.911l-.358 1.21-3.284-1.956.186-1.38 3.456 2.126z" fill="#fff"/><path d="M21.654 25.466c.119-.914.466-2.516 2.264-2.74.533-.067.916.052 1.297.17.3.094.6.187.967.187.243 0 .668-.222 1.193-.495 1.282-.668 3.157-1.645 4.408-.459 2.265 2.145-.158 4.41-1.43 5.482.437.239 1.256 1.307 1.669 3.575.238 1.311 2.185 1.351 3.098.596-2.283 3.426-6.197 1.788-6.197-2.383 0-.618-.516-.844-.923-.483v1.317l-3.844 2.622c-.794.516-2.74 1.168-4.17-.358l1.906-2.145c.39.584 1.146 1.626 3.099.77v-5.38L28 24.155v3.456c.12.199.256.382.923-.476.835-1.073 2.082-4.066-.357-3.457-1.43.358-2.503.358-3.575 0-.534-.177-1.335.239-1.43 2.146l-1.907-.358z" fill="#fff"/></svg>