<svg width="56" height="56" viewBox="0 0 56 56" xmlns="http://www.w3.org/2000/svg"><path fill="#F0F3FA" d="M0 0h56v56H0z"/><path d="M19.76 21.72c-.26.21-.41.5-.46.83-.29 2.06-.65 4.42-.44 6.45a45.06 45.06 0 0 0-5.55-5.23 25.07 25.07 0 0 0-2.3-1.66H11c.66-.35 1.58-1.08 2.2-1.5A41.14 41.14 0 0 0 23.12 11c.22.05.44.12.65.21A31.58 31.58 0 0 1 33 17.35a92.33 92.33 0 0 1-12.9 4.2.81.81 0 0 0-.34.17Z" fill="#BCCA3C"/><path d="M30.17 28.13c-1.25.08-2.84 4.92-3.17 5.87-1.3-3.62-3.42-8.07-6-11.22a95.57 95.57 0 0 0 12.47-3.77c1.65-.6 3.2-1.28 4.65-2.01a15.3 15.3 0 0 1 1.69 9.6c-3.04.54-6.65 1.32-9.64 1.53Z" fill="#8EB140"/><path d="M20.63 34.06A38.77 38.77 0 0 0 25 44c-5.42-4.33-9.86-9.5-12.66-15.89-.57-1.3-1.04-2.9-1.34-4.11a47.13 47.13 0 0 1 8.67 8.05c.46.56.77 1.3.96 2Z" fill="#BCCA3C"/><path d="M20 25c2.76 3.33 5.14 7.16 6.46 11.04.3.92.6 1.8.5 2.77-.1 1.1-.15 2.21-.05 3.31.06.59.09 1.35.09 1.88-.43-.53-.93-1.12-1.2-1.6-1.16-2.04-2.6-3.97-3.55-6.11C20.75 32.89 20 28.69 20 25Z" fill="#8EB140"/><path d="M30 45c1.15-3.06 2.14-6.58 2.14-9.72 0-1.74-.26-3.4-.53-5.1 4.55-.36 9.12-1.63 13.39-3.18a51.04 51.04 0 0 1-8.55 12.92A30.99 30.99 0 0 1 30 45Z" fill="#51A545"/><path d="M30.69 31c.68 3.67.25 7.6-1.3 11.28-.22.55-.46 1.16-.7 1.72a1.5 1.5 0 0 1-.4-.75c-.73-4.2-.16-8.55 2.4-12.25Z" fill="#51A545"/></svg>