<svg width="56" height="56" viewBox="0 0 56 56" xmlns="http://www.w3.org/2000/svg"><path fill="#F0F3FA" d="M0 0h56v56H0z"/><path fill-rule="evenodd" d="M31.18 14.33a4.46 4.46 0 0 0-6.36 0 4.6 4.6 0 0 0 0 6.45L28 24l3.18-3.22a4.6 4.6 0 0 0 0-6.45ZM28 21a3.5 3.5 0 1 0 0-7 3.5 3.5 0 0 0 0 7Z" fill="#F58220"/><path fill-rule="evenodd" d="M17.33 21.32a4.46 4.46 0 0 0 0 6.36 4.6 4.6 0 0 0 6.45 0L27 24.5l-3.22-3.18a4.6 4.6 0 0 0-6.45 0ZM24 24.5a3.5 3.5 0 1 0-7 0 3.5 3.5 0 0 0 7 0Z" fill="#0095DA"/><path fill-rule="evenodd" d="M38.67 21.32a4.46 4.46 0 0 1 0 6.36 4.6 4.6 0 0 1-6.45 0L29 24.5l3.22-3.18a4.6 4.6 0 0 1 6.45 0ZM32 24.5a3.5 3.5 0 1 1 7 0 3.5 3.5 0 0 1-7 0Z" fill="#A6CE39"/><path d="M9 39v-8h3.48c1.4 0 2.52 1.06 2.52 2.36v.28c0 1.12-.87 2.08-2.06 2.27L15 39h-1.03L12 35.91V35h.43c.95 0 1.57-.38 1.57-1.27v-.47c0-.9-.62-1.26-1.57-1.26H10v7H9Zm9 0h.93l2.6-6.1 2.6 6.1H25l-3.48-8L18 39Zm22.93 0H40l3.52-8L47 39h-.87l-2.6-6.1-2.6 6.1ZM28 39h.83l.64-5.4 3.08 5.4 3.14-5.4.5 5.4H37l-.9-8-3.55 6.52L28.92 31 28 39Z"/></svg>