<svg width="56" height="56" xmlns="http://www.w3.org/2000/svg"><path fill="#092870" d="M0 0h56v56H0z"/><path fill-rule="evenodd" d="M28.182 16.214c-6.143 0-11.124 4.925-11.124 11 0 3.575 1.723 6.751 4.397 8.762H34.91c2.674-2.011 4.397-5.187 4.397-8.762 0-6.075-4.981-11-11.125-11zm7.06 20.762c3.074-2.178 5.076-5.738 5.076-9.762 0-6.627-5.433-12-12.136-12-6.702 0-12.136 5.373-12.136 12 0 4.024 2.003 7.584 5.076 9.762h14.12z" fill="#fff"/><path d="M19.192 33.564c-.155-.02-.452.26-.58.402l2.467 2.334h6.945V18.214h-2.882c-.09-.117-.037-.452 0-.623-.649.214-.576 1.204-.459 1.671v1.542a7.81 7.81 0 00-.2 1.218c-.225.358-.384 1.36-.434 1.815-.198.441-.279 1.087-.294 1.356a11.28 11.28 0 00-.214 1.011l-.26.966-.216.528v.527l-.24.62-.132.962-.328.385c-.088.663-.132 1.027-.241 1.37-.088.273-.362.597-.488.725v1.679c-.252 0-.476-.174-.557-.26-.27-.568-.758-.331-.968-.142-.217-.733-.726.023-.919 0zm18.645.162c.155-.019-.14.578-.14.578l-2.07 1.996h-7.602V18.214h2.883c.09-.117.037-.452 0-.623.649.214.576 1.204.458 1.671v1.542a7.81 7.81 0 01.2 1.218c.226.358.384 1.36.435 1.815.198.441.279 1.087.294 1.356.075.248.174.777.214 1.011l.26.966.216.528v.527l.24.62.132.962.328.385c.088.663.132 1.027.241 1.37.087.273.389.597.515.725v1.679c.252 0 .84-.153.921-.24h2.475z" fill="#fff"/><path fill-rule="evenodd" d="M39 37H17v7h22v-7zm-23-1v9h24v-9H16z" fill="#fff"/><path d="M12.974 32.792l-.543-1.9.543-.153.165.662 1.764-.508.204.575-1.794.547.165.633-.504.144zm23.871-19.21l1.62 1.155-.33.454-.545-.417-1.063 1.484-.522-.326 1.062-1.532-.527-.395.305-.423zm7.523 12.191l.001 1.974h-.487v-.664h-1.893l-.038-.609 1.877-.044.015-.654.525-.003zM14.636 29.98l-2.379.245-.062-.601.876-.081-.114-.805-.896.05v-.59l2.43-.234v.57l-.998.143.09.766 1.053-.043v.58zM12 27.386l.061-1.78h.507l-.05 1.19h.447v-1.042h.456v1.085h.498l.037-1.232h.536l-.101 1.836L12 27.385zm13.878-16.139l1.8-.004v.494h-1.185v.405h1.069l.016.45h-1.085l.007.531 1.246-.007v.452l-1.84.044-.028-2.365zm5.972.308l1.75.416-.101.49-1.168-.286-.09.433 1.032.21-.092.441-1.074-.217-.1.482 1.213.283-.107.519-1.799-.466.536-2.305zm12.47 16.62l-.135 1.775-.506-.02.099-1.186-.447-.018-.043 1.04-.456-.018.045-1.084-.497-.02-.089 1.23-.534-.022.176-1.83 2.386.153z" fill="#fff"/><path fill-rule="evenodd" d="M12.436 23.615l2.296.63.163-.579-.868-.289c-.032-.141.127-.425 1.014-.425l.19-.604-1.247.085c.002-.164-.107-.508-.568-.57-.396-.052-.673.423-.722.672l-.258 1.08zm.55-.494c.046-.232.201-.682.456-.628.254.054.157.549.077.789l-.533-.161zm.549-2.778l1.753 1.797.31-.506-.31-.305.34-.72.44.074.326-.638-2.542-.307-.317.605zm.78.069l.562.56.245-.509-.808-.051z" fill="#fff"/><path d="M16.52 19.756l-1.853-1.437.512-.664 1.575.664-1.016-1.383.54-.654 1.855 1.484-.336.405-1.407-1.069 1.1 1.42-.364.47-1.63-.673 1.379 1.022-.354.415zm24.536 2.247l2.249-.695.261.794-1.446.906 1.727-.043.239.811-2.288.669-.147-.504 1.688-.539-1.805.09-.185-.562 1.485-.947-1.634.543-.144-.523zM28.23 13.526l.082-2.327.844.019.387 1.648.53-1.625.854.046-.12 2.355-.528-.03.044-1.752-.512 1.713-.598-.013-.412-1.699-.023 1.704-.547-.039zm-10.663 1.492c.551-.574 1.153-.302 1.384-.094l-.336.376a.5.5 0 00-.682.051c-.33.333-.073.739.162.978.234.24.564.362.857.13.234-.185.16-.473.095-.593l.403-.355c.398.602.107 1.096-.088 1.267-.747.732-1.634.1-1.941-.319a1.132 1.132 0 01.146-1.441zm6.306-3.32c.742-.295 1.175.2 1.298.485l-.465.203a.497.497 0 00-.64-.234c-.44.167-.378.641-.266.955.112.314.36.562.724.472.291-.072.346-.364.337-.501l.515-.157c.109.713-.364 1.041-.614 1.117-.987.357-1.49-.61-1.594-1.117-.048-.273-.037-.929.705-1.223z" fill="#fff"/><path fill-rule="evenodd" d="M21.377 15.415c.573-.37.721-1.149.33-1.742-.39-.593-1.17-.774-1.744-.405-.573.37-.722 1.15-.331 1.742.39.593 1.171.774 1.745.405zm-.307-.394c.337-.195.43-.654.21-1.027-.22-.372-.672-.516-1.008-.322-.336.195-.43.654-.21 1.027.22.372.672.516 1.008.322z" fill="#fff"/><path d="M34.481 12.338l-1.104 2.098.481.283.71-1.35.087 1.715.541.307 1.129-2.123-.526-.263-.669 1.27-.119-1.66-.53-.277zm5.156 3.407a.804.804 0 01.085 1.139l-.373-.362c.113-.202-.01-.45-.073-.512-.062-.061-.18-.2-.378-.134-.158.054-.115.231-.073.313.114.2.357.625.412.737.078.162.13.547-.068.72-.198.173-.738.434-1.343-.09-.538-.464-.301-1.121-.119-1.367l.418.407a.373.373 0 00-.119.288.656.656 0 00.3.436c.09.063.28.072.35.025.07-.046.133-.253-.303-.823-.435-.57-.015-.977.078-1.023.093-.046.622-.323 1.206.246zm-.157 3.505l1.999-1.291.329.496-1.544 1.039.612.984-.447.262-.95-1.49zm3.22.726l.262.56-2.157.985-.261-.56zm1.512 4.641l.068.613-2.362.255-.068-.613z" fill="#fff"/><path fill-rule="evenodd" d="M43.949 30.836l-2.235-.662c-.33.628-.633 1.982.43 2.3 1.126.337 1.537-.385 1.805-1.638zm-1.963.028l1.306.368c-.003.321-.232.891-.925.656-.694-.236-.527-.776-.38-1.024zM19.663 39L19 42h.973l.256-1.235a.385.385 0 01.407.252c.092.235.28.753.363.983h1.123l-.619-1.336c.262-.107.785-.454.778-.992-.007-.537-.522-.672-.778-.672h-1.84zm.805.644l-.133.592h.556c.12-.017.37-.11.408-.35.038-.24-.203-.242-.353-.242h-.478zM22.373 42l1.557-3h.98l.661 3h-1.008v-.372h-1.001l-.195.372h-.994zm1.905-2.065l-.514 1.063h.73l-.215-1.063z" fill="#fff"/><path d="M25.866 42l.61-3h1.227l.15 1.813.936-1.813h1.213l-.624 3h-.81l.455-2.191L27.945 42h-.667l-.135-2.191L26.718 42h-.852z" fill="#fff"/><path fill-rule="evenodd" d="M34.397 41.808c.758.405 1.794.148 2.314-.574.52-.723.328-1.637-.43-2.042-.757-.405-1.794-.148-2.314.574-.52.723-.328 1.637.43 2.042zm.682-.556c.356.092.766-.18.915-.608.15-.429-.019-.85-.375-.943-.356-.092-.767.18-.916.608-.149.428.02.85.376.943zm-4.195.556c.758.405 1.794.148 2.314-.574a1.65 1.65 0 00.128-.209h-1.08c-.19.193-.446.287-.678.227-.357-.092-.525-.514-.376-.943.15-.428.559-.7.915-.607a.554.554 0 01.372.33h.969a1.336 1.336 0 00-.68-.84c-.758-.405-1.794-.148-2.314.574-.52.723-.328 1.637.43 2.042z" fill="#fff"/><path d="M25.648 18.608h1.899l-1.073 13.335h-3.805l2.98-13.335zm4.797.01h-1.879l1.062 13.336h3.765l-2.948-13.336zM22.16 32.214h11.748v1.266H22.16zm0 1.786h5.387v2H22.16zm6.406 0h5.342v2h-5.342zm-8.779-.519c-.335.02-.663.354-.786.518.498.7.97.985 1.166.985.158 0 .17.216.158.324.021-.108.091-.306.196-.233.105.072.306.401.393.557 0-.078.042-.215.21-.143.167.073.34.506.406.713v-1.218c-.17.026-.532.029-.616-.168-.105-.247.42-.376.445-.519.021-.114-.288-.384-.445-.505-.356-.498-.69-.155-.812.078-.01.798-.214.833-.315.751-.408-.228-.17-.414 0-.48.14-.228.336-.68 0-.66zm15.83.474h1.629v.353h-1.629zm-.599.437h.4v1.736h-.4zm-.641 0h.4v1.736h-.4zm1.24 0h.4v1.102h-.4z" fill="#092870"/></svg>