<svg xmlns="http://www.w3.org/2000/svg" width="56" height="56"><path fill="#00ABE9" d="M0 0h56v56H0z"/><path d="M7 33H5V23h2v1.01A2.5 2.5 0 019.21 23c.27 0 .54.04.83.12l.17.05.21 1.87-.38-.1A3.6 3.6 0 009 24.75c-1.56 0-2 1.48-2 2.86V33zm6.9 0c-2.28 0-3.31-1.4-3.31-2.68 0-2.25 2.57-2.87 4.45-3.32l.39-.1c.97-.23 1.57-.59 1.57-1.47 0-.68-.83-.9-1.83-.9-1.18 0-2.28.25-3.27.73l-.47.23.3-1.98.17-.04c1.2-.32 2.29-.47 3.31-.47 3.17 0 3.79 1.4 3.79 2.56V33h-2v-5.5c-.55.37-.96.58-1.78.8-1.52.4-2.63.72-2.63 2.02 0 .63.22 1.44 1.8 1.44a7.4 7.4 0 002.21-.5l-.36 1.5c-.67.17-1.25.24-2.34.24zM34 33h-2v-6.83c0-.4-.18-1.54-1.64-1.54-2.53 0-2.36 2.73-2.36 2.85V33h-2v-6.83c0-.4-.13-1.54-1.8-1.54-1.68 0-2.2 1.32-2.2 2.85V33h-2V23h2v1.25A3.04 3.04 0 0124.5 23c1.43 0 2.5.6 3 1.63A3.64 3.64 0 0130.74 23c2.01 0 3.26 1.07 3.26 2.8V33zm6 0c-3.08 0-5-1.92-5-5 0-4.64 3.83-5 5-5 .84 0 1.76.13 2.59.38l.16.05.25 1.81-.43-.15a7.84 7.84 0 00-2.57-.51c-2.06 0-3 1.4-3 3.42 0 1.1.38 3.48 3 3.48 1 0 1.7-.2 2.45-.43l.43-.12-.07.42-.22 1.35-.18.04c-.77.17-1.59.26-2.4.26zm8 0c-3.08 0-5-1.92-5-5 0-4.64 3.83-5 5-5s5 .36 5 5c0 3.08-1.92 5-5 5zm0-8.5c-1.78-.02-3 1.06-3 3.5 0 1.1.56 3.53 3 3.5 2.44-.03 3-2.4 3-3.5 0-2.44-1.22-3.48-3-3.5z" fill="#fff"/></svg>