<svg width="56" height="56" viewBox="0 0 56 56" xmlns="http://www.w3.org/2000/svg"><path fill="#F0F3FA" d="M0 0h56v56H0z"/><path d="M17 18v5.7c.3-.21 1.1-.65 1.9-.65 3.43 0 4.87 3.3 5.1 4.95.05 0 .14-.14.14-.72-.27-7.2-4.92-9.19-7.14-9.28Z" fill="#23B24B"/><path d="M38 21.56V12c-13.12 1-14 12.94-14 15.87 0 2.34.41 3.73.62 4.13a18.3 18.3 0 0 1-.16-1.9c0-7.37 7.3-9.3 9.85-9.3 2.03 0 3.3.5 3.69.76ZM10 31h2v2h-2z" fill="#F58220"/><path fill="#40C7F4" d="M12 30h1v1h-1z"/><path fill="#23B24B" d="M46 34h1v1h-1z"/><path d="M46 35h-2l-4 2.78V40h1.5v-2l4.5-3ZM26 38v-5h3l1.42 3.21L32 33h3v2h.27l2.24-2h2.28l-2.7 2.4h-.52.5L40 38h-2.27l-1.86-1.65H35V38h-1.5v-4h-.41L31 38h-1.24l-1.9-4h-.36v4H26ZM18 38l2.48-5h2.04L25 38h-1.55l-.43-.87h-3.04l-.43.87H18Zm2.53-1.98h1.94l-.97-1.95-.97 1.95ZM12 33h4.9c.6 0 1.1.5 1.1 1.11v1.5c0 .26-.1.5-.25.7.16.2.25.44.25.71V38h-1.5v-.81c0-.26-.2-.47-.47-.47H13.5V38H12v-5Zm1.5 1.25v1.22H16a.6.6 0 0 0 .6-.61.6.6 0 0 0-.6-.61h-2.5Z" fill="#0072BC"/></svg>