<svg width="56" height="56" viewBox="0 0 56 56" xmlns="http://www.w3.org/2000/svg"><path fill="#F0F3FA" d="M0 0h56v56H0z"/><path fill-rule="evenodd" d="M47.98 18H8.02c-.01 0-.02 0-.02.02V35.7h.03l39.95-7.28c.01 0 .02 0 .02-.02V18.02c0-.01 0-.02-.02-.02Zm-6.05 7.37a1.76 1.76 0 0 1-.17-.59c0-.02.01-.03.03-.03l5.55-.99c.01 0 .02 0 .02-.02-.06-.4-.15-.77-.28-1.12a3.74 3.74 0 0 0-1.25-1.68 3.64 3.64 0 0 0-2.02-.62 5.2 5.2 0 0 0-2.69.68 4.06 4.06 0 0 0-1.84 2.4 3.72 3.72 0 0 0 .25 2.38c.34.73.92 1.27 1.75 1.6.73.31 1.57.39 2.54.25.8-.12 1.5-.34 2.05-.66.7-.4 1.15-.92 1.35-1.57 0-.02 0-.03-.02-.03l-2.01-.35c-.02 0-.04 0-.04.02-.13.34-.36.6-.7.8a2.46 2.46 0 0 1-1.68.23 1.36 1.36 0 0 1-.84-.7Zm1.5-3.52a1.76 1.76 0 0 0-.58.02c-.6.13-.97.44-1.15.95-.02.08-.05.17-.06.27l-.04.28c0 .03.01.05.04.04l2.94-.52.01-.01v-.02c-.06-.19-.14-.36-.25-.5a1.3 1.3 0 0 0-.4-.35 1.4 1.4 0 0 0-.51-.16Zm-11.65 2.11h.03c.17-.4.39-.76.65-1.06a2.9 2.9 0 0 1 1.1-.77 4.16 4.16 0 0 1 2.16-.24c.27.06.52.15.74.29.33.2.58.5.76.9.13.3.23.7.31 1.18l.64 4.08c0 .02 0 .03-.02.03l-2.55.45c-.02 0-.03 0-.04-.02l-.55-3.57c-.04-.26-.1-.48-.17-.65-.08-.2-.18-.36-.3-.47-.28-.26-.68-.31-1.21-.17-.57.16-.9.54-1.02 1.15-.04.24-.06.51-.03.83.01.21.04.48.1.8a219.29 219.29 0 0 1 .39 2.6l-.03.02-2.46.43h-.02l-.02-.02-1.04-6.7.02-.02 2.32-.41c.01 0 .02 0 .03.02a296.5 296.5 0 0 0 .21 1.32ZM12.77 29l.58 3.75-.01.03h-.02l-2.66.49c-.01 0-.02 0-.02-.02l-1.51-9.73v-.02l.02-.02 3.56-.63c.56-.1 1.1-.16 1.62-.2.36-.01.7.01 1.02.08.32.08.62.2.89.36a2.63 2.63 0 0 1 1.17 1.5c.16.5.21 1 .15 1.49-.07.53-.28.99-.64 1.38a3.4 3.4 0 0 1-1.33.88v.02l3.5 3.4-3.2.57a.1.1 0 0 1-.1-.03L12.8 29c-.04-.04-.05-.04-.04.01Zm1.32-4.03c.2.09.36.24.47.46.1.18.16.4.18.65.05.51-.17.9-.66 1.15-.19.1-.42.17-.7.24l-.72.13-.08.01h-.02l-.02-.02-.38-2.52v-.02l.02-.02.92-.15c.18-.02.35-.02.5-.01.2 0 .36.04.5.1Zm10.59-1.1.16 1.04c0 .05 0 .06-.04.02a2.6 2.6 0 0 0-2.15-.91c-.31.01-.62.06-.9.14a3.2 3.2 0 0 0-2.3 2.11c-.11.31-.17.64-.19.98-.02.6.04 1.16.2 1.7.18.6.45 1.1.82 1.5.63.66 1.42.97 2.36.92.45-.02.87-.12 1.27-.28.42-.18.77-.43 1.05-.74.2-.23.4-.5.55-.8.03-.06.06-.06.07.01l.15 1 .01.01h.02l2.33-.41c.02 0 .02-.01.02-.02l-1.04-6.7c0-.02-.01-.02-.03-.02l-2.34.42c-.02 0-.03.01-.02.04Zm.57 4.23a2.08 2.08 0 0 0-.1-1.45 1.41 1.41 0 0 0-.87-.8c-.2-.08-.42-.11-.67-.1-.26.01-.5.06-.71.15-.22.08-.41.2-.57.35-.16.15-.29.33-.37.54a1.7 1.7 0 0 0-.11.7c0 .25.05.47.11.67.08.21.17.4.3.55.14.17.3.3.49.38.2.09.43.14.69.14.3 0 .56-.05.81-.14.25-.09.45-.22.62-.39.18-.17.3-.37.38-.6Z" fill="#195EAB"/><path d="M47.97 38H8.01L8 37.96v-.12c0-.02 0-.02.02-.03l39.95-7.32h.02l.01.03v7.46h-.03Z" fill="#838486"/></svg>