<svg width="56" height="56" viewBox="0 0 56 56" xmlns="http://www.w3.org/2000/svg"><path fill="#F0F3FA" d="M0 0h56v56H0z"/><path fill-rule="evenodd" d="M4 31v-7.08c0-.5.41-.92.92-.92H9.4c.88 0 1.6.72 1.6 1.6v1.78c0 .89-.72 1.6-1.6 1.6H7.97l3 3.02H9.3l-2.9-2.91c-.36-.36-.1-1.09.4-1.09H9.2c.26 0 .31-.1.31-.35V24.5c0-.25-.05-.49-.3-.49H5.5v7H4Zm8.45-6v1h2.95c.37 0 .6.21.6.6v.4h-2.87c-.62 0-1.13.52-1.13 1.15v1.48c0 .76.6 1.37 1.36 1.37h3c.63 0 1.14-.51 1.14-1.14v-3.72c0-.63-.5-1.14-1.13-1.14h-3.92ZM16 30v-2h-2.1c-.22 0-.4.22-.4.5v1c0 .28.18.5.4.5H16Zm3-4v3.84c0 .64.5 1.16 1.13 1.16H22v-1h-.9c-.5 0-.6-.26-.6-.77V26H22v-1h-1.5v-2H19v2h-1v1h1Zm9 1.6c0 .5-.42.9-.94.9H23.5v.44c0 .63.37 1.06 1.02 1.06h2.98v1h-3.63A1.85 1.85 0 0 1 22 29.17v-2.11c0-1.14.94-2.06 2.1-2.06h1.8c1.16 0 2.1.92 2.1 2.06v.54Zm-1.5-.1h-3c0-.54.15-1.5 1.42-1.5s1.58 1 1.58 1.5Z" fill="#AFB2B9"/><path fill-rule="evenodd" d="M36 24v-1h-4.77A2.27 2.27 0 0 0 29 25.3v3.4c0 1.27 1 2.3 2.23 2.3h4.32c.25 0 .45-.2.45-.46V27h-1.5v3h-2.48c-.86 0-1.52-.88-1.52-1.78v-2.46c0-.9.66-1.76 1.52-1.76H36Zm7.5-1H45v1h-1.5v-1Zm0 2H45v6h-1.5v-6Zm2.5.47V31h1.5v-5h1.8c.7 0 1.2.52 1.2 1.17V31H52v-4.36c0-.9-.8-1.64-1.78-1.64h-3.71c-.28 0-.51.21-.51.47ZM37.45 25v1h2.95c.37 0 .6.21.6.6v.4h-2.87c-.62 0-1.13.52-1.13 1.15v1.48c0 .76.6 1.37 1.36 1.37h3c.63 0 1.14-.51 1.14-1.14v-3.72c0-.63-.5-1.14-1.13-1.14h-3.92ZM41 30v-2h-2.1c-.22 0-.4.22-.4.5v1c0 .28.18.5.4.5H41Z" fill="#F09312"/></svg>