<svg xmlns="http://www.w3.org/2000/svg" width="56" height="56"><path fill="#F0F3FA" d="M0 0h56v56H0z"/><path d="M34 15c-.37-1-1.24-1-1.99-1H29l-.48 1H34zm.6 2c0-.29-.09-.73-.25-1h-6.2l-.24.5-.25.5h6.94zm-7.78 2h7.72c.08-.22.12-.63.08-1h-7.3l-.5 1zm6.81 2.33l-.15.17H25.6l.73-1.5h8.08c-.1.59-.47 1-.78 1.33zM34 27h6a7.45 7.45 0 001.72-2H37c-.96.81-1.96 1.44-3 2zm-4.81 3h-7.74l.98-2h5.82l.94 2zm-3.66 3l.47-1 .42 1h4.2l-.95-2H21l-1 2h5.53zM24 37l-1.5 3H11v-3h13zm14 0v3h-9l-1.05-3H38zm-27-1v-1h8l.48-1h5.7l-.89 2H11zm16.5 0H38v-1h-6.5l-.5-1h-4.3l.8 2zm1.54-12h-4.66l.62-1.5h5.61c0 .24-1.26 1.27-1.57 1.5zM38 24h4c.2-.35.69-1.2.74-1.61h-3.36A7.43 7.43 0 0138 24zm-5 4h6c-.98 1.03-3 1.81-5 2l-1-2zm-5.23-1H23l.88-2h2.94l.95 2zm15.12-5.5h-3.23l.54-1.5h2.69c.08.24.12.48.1.75 0 .22-.03.46-.1.75zm-.1-2.5s0-1-.34-1H40.6l-.2 1h2.4zm-.37-2H40.7l-.05-1H42c.15.25.32.65.42 1z" fill="#3B42F8"/></svg>