<svg width="56" height="56" viewBox="0 0 56 56" xmlns="http://www.w3.org/2000/svg"><path fill="#F0F3FA" d="M0 0h56v56H0z"/><path d="M23.12 28.64c-2.61 4.76-1.06 10.86 3.47 13.62C31.1 45 36.89 43.38 39.5 38.6c.65-1.2 1.05-2.48 1.2-3.77a9.09 9.09 0 0 1-11.08 1.24c-3.39-2.07-5.1-6-4.66-9.86a9.88 9.88 0 0 0-1.85 2.42Z" fill="url(#ajchisuxw)"/><path d="M30.73 31.94c5.22 0 9.46-4.46 9.46-9.97 0-5.5-4.24-9.97-9.46-9.97-1.31 0-2.56.28-3.7.79a9.94 9.94 0 0 1 6.56 9.49 10 10 0 0 1-5.77 9.18c.92.31 1.9.48 2.9.48Z" fill="url(#bjchisuxw)"/><path d="M25.15 24.06c-5.22 0-9.46 4.46-9.46 9.97 0 5.5 4.24 9.97 9.46 9.97 1.31 0 2.56-.28 3.7-.79a9.94 9.94 0 0 1-6.56-9.49 10 10 0 0 1 5.77-9.18 9.01 9.01 0 0 0-2.9-.48Z" fill="url(#cjchisuxw)"/><path d="M29.37 22.96a9.17 9.17 0 0 0-13.1-2.86c-4.37 3.02-5.58 9.2-2.72 13.8a9.7 9.7 0 0 0 2.66 2.83 10.24 10.24 0 0 1 3.93-10.98 9.06 9.06 0 0 1 10.44.04c-.25-.98-.66-1.93-1.21-2.83Z" fill="url(#djchisuxw)"/><path d="M26.45 33.01a9.32 9.32 0 0 0 13.24 2.86 10.21 10.21 0 0 0 .06-16.6 10.17 10.17 0 0 1-3.97 10.96 9.24 9.24 0 0 1-10.55-.04c.26.98.66 1.93 1.22 2.82Z" fill="url(#ejchisuxw)"/><path d="M32.75 27.36c2.61-4.77 1.06-10.87-3.46-13.62s-10.31-1.12-12.92 3.65a10.31 10.31 0 0 0-1.2 3.76 9.09 9.09 0 0 1 11.07-1.23c3.4 2.06 5.11 6 4.67 9.85a9.88 9.88 0 0 0 1.84-2.41Z" fill="url(#fjchisuxw)"/><defs><linearGradient id="ajchisuxw" x1="22.81" y1="28.39" x2="40.42" y2="38.17" gradientUnits="userSpaceOnUse"><stop stop-color="#FFC02F"/><stop offset=".51" stop-color="#FFEA34"/><stop offset="1" stop-color="#FFC52F"/></linearGradient><linearGradient id="bjchisuxw" x1="33.61" y1="12" x2="33.61" y2="31.94" gradientUnits="userSpaceOnUse"><stop stop-color="#A51D21"/><stop offset=".47" stop-color="#E81C28"/><stop offset="1" stop-color="#9F1D20"/></linearGradient><linearGradient id="cjchisuxw" x1="22.27" y1="24.06" x2="22.27" y2="44" gradientUnits="userSpaceOnUse"><stop stop-color="#60B036"/><stop offset=".54" stop-color="#A1C432"/><stop offset="1" stop-color="#5DAF36"/></linearGradient><linearGradient id="djchisuxw" x1="29.85" y1="23.59" x2="13.58" y2="33.93" gradientUnits="userSpaceOnUse"><stop stop-color="#2396BF"/><stop offset=".48" stop-color="#49BAC9"/><stop offset="1" stop-color="#2798BF"/></linearGradient><linearGradient id="ejchisuxw" x1="42.12" y1="22.74" x2="26.48" y2="32.65" gradientUnits="userSpaceOnUse"><stop stop-color="#F56228"/><stop offset="1" stop-color="#F66F29"/></linearGradient><linearGradient id="fjchisuxw" x1="15.91" y1="16.87" x2="33.81" y2="25.46" gradientUnits="userSpaceOnUse"><stop stop-color="#0066B1"/><stop offset=".47" stop-color="#0095DB"/><stop offset="1" stop-color="#005FAA"/></linearGradient></defs></svg>