<svg width="56" height="56" xmlns="http://www.w3.org/2000/svg"><path fill="#DA2439" d="M0 0h56v56H0z"/><path d="M47.641 21.117c.193-.112.416-.12.635-.116-.053.229-.132.45-.22.665.684.905 1.74 1.389 2.547 2.164.71.63 1.412 1.457 1.396 2.469.007 1.911-.023 3.823-.024 5.735.002.742-.686 1.158-1.31 1.343-.83.246-1.66.816-2.553.557-.82-.355-1.114-1.313-1.3-2.118-.199-1.238-.056-2.522.333-3.711.185-.564.514-1.091 1-1.44.491-.39 1.136-.575 1.526-1.09-.696-.92-1.735-1.477-2.562-2.262-.401-.397-.847-.773-1.109-1.284.527-.338 1.083-.63 1.641-.912zm1.299 6.586c-.27 1.202-.4 2.39-.322 3.628.06.482.06 1.04.429 1.407.178.212.496.281.727.109.23-.173.203-.924.226-1.396v-4.858c-.631-.142-.94.592-1.06 1.11zM5.063 24.534c.374-.184.717-.573 1.167-.501.462.161.647.658.85 1.06.517-.318.986-.706 1.508-1.012.387-.24.805.106 1.069.376.66.778.961 1.803 1.076 2.8.035.536.016 1.2-.461 1.55-.432.329-.948.563-1.28 1.01.37 1.296 1.27 2.33 2.008 3.427-.279.358-.685.602-1.108.755-.64.024-1.056-.55-1.4-1.008-.581-.773-.951-1.715-1.492-2.51v2.748c-.603.257-1.371.584-2 .771v-7.794c.012-.26.058-.613-.187-.76-.283-.093-.813-.09-.813-.09.193-.435.707-.555 1.063-.822zm2.667.911c-.414.358-.763.9-.73 1.456v2.304c.4.123.955.138 1.367.074.334-.134.612-.563.625-.902.051-.83.078-1.755-.404-2.48-.162-.256-.495-.58-.858-.452zm23.302-1.261c.282-.242.73-.241 1.026-.02.768.527 1.236 1.477 1.157 2.406-.202 2.005-.358 4.014-.55 6.02.22.087.442.17.656.269a3.34 3.34 0 01-.821.458c-.572.23-1.123.519-1.722.68.112-1.917.338-3.826.479-5.742.067-.848.295-1.77-.152-2.557-.154-.31-.589-.347-.857-.168-.386.25-.703.678-.687 1.154-.025 1.892-.02 3.785-.016 5.678-.023.223.04.525-.191.658-.47.334-.947.747-1.477.98-.074-.598-.035-1.282-.042-1.883.008-1.734-.029-3.467-.01-5.2.004-.41-.008-.875-.31-1.19-.29-.228-.65.02-.83.265-.307.357-.224.851-.234 1.283-.01 1.927.023 3.854-.017 5.78-.532.354-1.065.723-1.668.945-.06-2.473.003-4.95-.032-7.425-.045-.373-.195-.872-.63-.938-.23-.098-.673.006-.607-.369.476-.322 1.02-.525 1.514-.821.226-.106.496-.337.748-.16.33.305.494.738.733 1.113.48-.372.847-.87 1.34-1.223.276-.219.682-.148.92.09.342.326.59.735.895 1.093.487-.362.907-.803 1.385-1.176zm12.851.045a.749.749 0 01.968-.093c.749.49 1.298 1.376 1.178 2.281-.17 1.975-.299 3.953-.463 5.927.177.121.357.239.532.367-.724.468-1.457 1.012-2.281 1.289.07-2.086.328-4.217.458-6.3.029-.649.248-1.354-.097-1.959-.155-.325-.635-.303-.898-.125-.513.373-.952.95-.92 1.605-.007 1.94.01 3.88-.007 5.82-.52.354-1.018.783-1.638.959-.109-2.372.023-4.75-.074-7.124-.004-.42.058-.984-.41-1.195-.341-.053-.697-.024-1.018-.172a.643.643 0 01.372-.387 32.1 32.1 0 011.54-.703c.236-.1.593-.15.748.103.243.36.365.783.56 1.168.532-.44.96-.982 1.45-1.461zM11.192 26c.41-.637.879-1.427 1.373-2a97.53 97.53 0 002.633.01c.213.588.299 1.21.438 1.818.458 2.01.884 4.026 1.331 6.038.105.501.424.912.714 1.32-.463.304-.935.595-1.445.814-.314-.297-.555-.657-.825-.991-.288.311-.495.778-.873.991-1.475.286-2.926-.884-3.395-2.241-.218-.717-.265-1.628.303-2.199.77-.8 1.868-1.124 2.76-1.749-.045-.656-.236-1.177-.4-1.811h-2.614zm1.8 3.565c-.32.35-.316.865-.223 1.302.203.785.745 1.435 1.366 1.935.114.115.334.156.442.01.229-.278.45-.59.517-.95-.052-.62-.237-1.219-.349-1.828-.098-.406-.123-.85-.385-1.195-.49.163-1 .348-1.367.726z" fill="#FDFDFD"/><path d="M22.392 24.671c.153-.496.731-.637 1.177-.671-.062.588-.242 1.152-.384 1.724-.886 3.474-1.776 6.948-2.653 10.424-.133.525-.38 1.03-.785 1.389-.496.498-1.275.55-1.912.363-.759-.281-1.196-1.11-1.29-1.894-.05-.22.094-.407.266-.517a3.589 3.589 0 011.543-.57c.184.423.277.903.569 1.268.286.305.769.092.942-.235.259-.483.32-1.046.381-1.586-.204-.172-.426-.342-.501-.616-.927-2.63-1.798-5.282-2.733-7.91-.354-.06-.713-.096-1.071-.133a37.053 37.053 0 00-.026-.38c.801-.47 1.623-.908 2.483-1.256.678 1.776 1.21 3.608 1.846 5.402.225.621.356 1.286.697 1.858.55-2.204.933-4.449 1.451-6.66zm14.53-.619c.343-.094.736-.071 1.028.152.767.49 1.13 1.407 1.206 2.285.14 1.73.29 3.51-.155 5.21-.135.612-.593 1.093-1.12 1.397-.535.311-1.08.617-1.663.83-.57.234-1.215-.117-1.555-.584a4.68 4.68 0 01-.664-1.597 14.66 14.66 0 01.037-4.18c.176-.963.541-1.96 1.332-2.583.48-.365.982-.728 1.554-.93zm-.789 1.655c-.39 1.044-.432 2.174-.482 3.275.045 1.17.083 2.375.51 3.477a.912.912 0 00.588.568c.652-.695.718-1.71.836-2.61.109-1.462.1-2.963-.293-4.386a2.036 2.036 0 00-.546-.965c-.308.086-.51.35-.613.641z" fill="#FDFDFD"/></svg>