<svg width="56" height="56" viewBox="0 0 56 56" xmlns="http://www.w3.org/2000/svg"><path fill="#F0F3FA" d="M0 0h56v56H0z"/><path fill-rule="evenodd" d="M8 23H4v.57h1.3c.37 0 .7.3.7.66v8.2H4V33h7v-.57H8.65a.66.66 0 0 1-.65-.66V30.3c1.16.34 3.8 1.11 5.22 1.58 1.79.59 3.7 1.13 5.36 1.13 1.33 0 2.17-.24 2.42-.36v-.5c-.28.1-1.01.27-1.66.27-.69 0-2.93-.63-4.88-1.18l-.93-.27c2.55 0 6.47-1.35 6.47-3.98 0-2.62-4.01-3.98-7.23-3.98-2.58 0-4.28.72-4.77 1.09V23Zm0 1.81v5.46l.92-.75c.8.31 2.73.95 4.16.95 1.8 0 4.92-.6 4.92-3.17 0-2.58-3.4-3.62-5.46-3.62A8.9 8.9 0 0 0 8 24.8ZM27.97 23H24v.57h1.36c.35 0 .64.3.64.66v8.2h-2V33h7.07c1.28 0 6.93-.94 6.93-3.82 0-2.3-3.8-2.74-5.7-2.85.88-.06 2.7-.82 2.7-1.91 0-1.1-2.06-1.4-3.07-1.42h-3.96Zm.03.33v8.44c0 .37.29.66.64.66h2.57c1.42-.14 4.28-.97 4.28-3.16 0-1.5-1.87-2.61-3.97-2.61H28l.23-.66h2.61c.68 0 2.16-.6 2.16-1.58 0-.8-1.57-1.09-2.57-1.09H28Z" fill="#92272D"/><path d="M42 22h.83v.6h8.3L43.81 32h5.6c.96 0 1.75-.78 1.75-1.8V29H52v4h-.83v-.63H41L48 23h-3.58c-.97 0-1.59.79-1.59 1.75v.82H42V22Z" fill="#92272D"/></svg>