<svg xmlns="http://www.w3.org/2000/svg" width="56" height="56"><path d="M0 28a28 28 0 1156 0 28 28 0 01-56 0z" fill="#D5FA9D"/><path fill-rule="evenodd" d="M28 8.5l2 1v7l-2 1.08-2-1.08v-7l2-1zm-1.38 10.87L25 18.5V10l-1 .5v8.54l2.35 1.14c.67.34.65 1.82.65 1.82h.2s.36-2.12-.58-2.63zM26 22.61l-3-1.57V11l-1 .5v13l5 2.5c0-.61-.35-1.17-.9-1.45L23.02 24H23v-1.83s2.48 1.25 2.78 1.44c1.37.85 1.22 1.94 1.22 1.94h.2c.1-1.55-.2-2.41-1.2-2.94zm-2 8.4v10.36l4 1.9 4-1.9V31l-4-1.83L24 31zM32.5 26L28 28.07 23.5 26 14 30.36V42l9.5 4.5 4.5-2.13 4.5 2.13L42 42V30.36L32.5 26zm0 1.1l-3.3 1.52 3.8 1.74V42l-3.83 1.82 3.33 1.57 8.5-4.02V31l-8.5-3.9zm-9 18.3l3.33-1.58L23 42V30.36l3.8-1.74-3.3-1.52L15 31v10.37l8.5 4.02zM17.72 34a.1.1 0 00-.07.17l.32.36a.1.1 0 00.07.03h.71v1.56h-1.5a1.38 1.38 0 00-.28-.1c.28-.2.47-.43.57-.66a.91.91 0 00-.04-.88 1 1 0 00-1.58-.16.1.1 0 00-.03.06v.41c0 .1.13.14.2.08.2-.2.43-.32.66-.35.42-.06.63.32.45.7-.1.23-.27.5-.71.74a.1.1 0 00-.06.09v.14c0 .05.05.1.1.1.1 0 .2.01.29.03.98.2.73 1.4 0 1.47-.76.07-.95-.74-.97-1.36a.1.1 0 00-.1-.1h-.1a.1.1 0 00-.1.1c0 .17.01.32.03.46.07.7.5 1.43 1.24 1.41.76-.01 1.21-.97.93-1.65h1v2.03c0 .03.02.06.04.08l.3.22a.1.1 0 00.16-.08v-4.34h.5v4.12c0 .03.02.06.04.08l.3.22a.1.1 0 00.16-.08v-4.34h1.25v1.56h.5v-1.56h.4a.1.1 0 00.1-.1v-.36a.1.1 0 00-.1-.1h-4.68zm3.78 3.17c.03-.46.5-1.05.5-1.05h-.5l-.1.32s-.28-.41-.5-.44c-.19-.03-.36.2.1 1.17l1.04 1.77c.03.06.1.07.15.03l.24-.18a.1.1 0 00.02-.14c-.21-.3-.96-1.4-.95-1.48zm8.18-3.24l.01.07h.21c.06 0 .1.04.1.1v.35a.1.1 0 01-.1.1h-.15v4.35a.1.1 0 01-.17.07l-.3-.3a.1.1 0 01-.03-.08v-4.04h-.75v4.35a.1.1 0 01-.17.07l-.3-.3a.1.1 0 01-.03-.08v-1.85c-.62.24-1-.15-1-.15s-.3.3-.5.3l1.11 1.59a.1.1 0 010 .1l-.23.35a.1.1 0 01-.16 0c-.32-.41-1.42-1.9-1.42-2.34 0-.5.53-.68.7-.5v-1.54h-.96a.1.1 0 01-.07-.03l-.32-.35a.1.1 0 01.08-.17h4.07c-.02-.43-.31-1.54-.7-1.54-.23 0-.27.24-.31.49-.04.23-.08.47-.29.52-.18.04-.34-.28-.25-.79.07-.35.29-.68.75-.68.8 0 1.05 1.25 1.18 1.93zM27 36.08c.29.3.7.26 1 .15v-1.68h-1v1.53zM33.74 34a.1.1 0 00-.07.17l.3.3a.1.1 0 00.07.03h.26v2.78l1.82 1.44v.36l-.11.43a.1.1 0 000 .05l.1.37a.1.1 0 00.09.07h.32a.1.1 0 00.1-.1v-1.4l-1.82-1.48V34.5h.95v1.9a.1.1 0 01-.1.1h-.55a.1.1 0 00-.1.1v.33c0 .04.02.08.06.1.58.23 1 .06 1.14 0a.09.09 0 00.05-.08V34.5H37v1.8c0 .53.46.98 1 .96.19 0 .35-.1.5-.23v1.43c0 .03 0 .05.03.07l.3.3a.1.1 0 00.17-.07v-2.23c.1-.08.2-.15.3-.2.57-.21.35.95.12 1.46-.04.08.03.21.12.21h.2a.1.1 0 00.08-.06c.3-.76.55-2.3-.48-2.13-.12.03-.24.07-.34.13V34.5h.4a.1.1 0 00.1-.1v-.3a.1.1 0 00-.1-.1h-5.66zm3.76 2.3v-1.8h1v1.92c-.13.19-.26.34-.5.34-.35 0-.5-.26-.5-.46zm-8.12-16.93L31 18.5V10l1 .5v8.54l-2.35 1.14C28.98 20.52 29 22 29 22h-.2s-.36-2.12.58-2.63zM33 21.04l-3 1.57c-1 .53-1.3 1.39-1.2 2.94h.2s-.15-1.1 1.22-1.94c.3-.19 2.78-1.44 2.78-1.44V24h-.01l-3.1 1.55c-.54.28-.89.84-.89 1.45l5-2.5v-13l-1-.5v10.04z" fill="#18834E"/></svg>