<svg width="56" height="56" xmlns="http://www.w3.org/2000/svg"><path fill="#FAA61A" d="M0 0h56v56H0z"/><path d="M39.052 42.404l-7.506-7.884 2.212 7.514-3.65-6.697L30.37 46l-2.543-10.516-1.83 7.571.189-7.697-5.133 9.415 3.034-10.306-5.324 5.592 4.05-6.633-9.216 5.626 7.735-7.363-7.335 2.158 6.87-3.744L10 30.369l10.345-2.5-7.37-1.784 7.838.193-9.586-5.226 10.212 3.007-5.468-5.207 6.672 4.073-5.695-9.329 7.369 7.74-2.135-7.25 3.715 6.816L25.631 10l2.526 10.451 1.787-7.388-.188 7.688 5.192-9.524-3.06 10.387 5.29-5.554-3.97 6.502 9.196-5.615-7.89 7.512 7.43-2.187-6.644 3.62 10.7-.261-10.622 2.568 7.588 1.835-7.547-.185 9.354 5.099-10.48-3.085 5.677 5.404-6.463-3.945" fill="#fff"/></svg>