<svg width="56" height="56" viewBox="0 0 56 56" xmlns="http://www.w3.org/2000/svg"><path fill="#C92637" d="M0 0h56v56H0z"/><path d="m23.72 23.5.15-.5H6.02a.04.04 0 0 0-.02.04v.02c.72.9 1.5 1.68 2.34 2.31.8.61 1.4.63 2.5.63h12.03c.04 0 .08-.01.11-.04a.17.17 0 0 0 .06-.1c.07-.4.44-1.6.68-2.36Zm1.83 13.42c.63-3.43 1.28-6.75 1.93-9.97.09-.46.44-.95.88-.95h17.65c1.5 0 3.02-1.72 3.94-2.88.08-.1.06-.12-.06-.12h-23c-.45 0-.9.38-1.34.76l-.1.08c-.76.65-1.06 1.9-1.25 2.9-.4 2.22-.81 4.33-1.22 6.32-.13.6-.18 1.09-.16 1.45.1 1.52 1.3 2.8 2.5 3.48a.08.08 0 0 0 .08 0l.02-.03a7.23 7.23 0 0 1 .12-1.04Zm5.74-6.73-.92 4.73c-.05.22-.03.43.03.64l.05.07c.01.02.04.04.06.04.18.07.37.1.57.11 1.16.05 2.16-.01 3-.2.07-.01.09.01.05.08a9.9 9.9 0 0 1-1.35 1.64c-.39.4-.89.7-1.43.7h-2.79c-1.31 0-2.06-.82-1.65-2.29.08-.27.12-.55.16-.82l.08-.52a2499 2499 0 0 0 1.42-7.31l.01-.03.03-.03h16.16c.49 0 .95-.03 1.42-.14.1-.01.1.02.05.1-.57.83-1.2 1.57-1.9 2.24-.46.45-1.15.8-1.8.8H31.4c-.05 0-.09.13-.1.19ZM9.86 26.82c.73 1.05 2.42 3.18 3.7 3.18h8.48c.03 0 .05-.04.07-.08l.04-.06a.2.2 0 0 0 .06-.1l.53-2.64c.02-.09-.01-.12-.1-.12h-11c-.59 0-1.14-.12-1.72-.27-.1-.02-.11.01-.06.09Zm6.21 6.74a9.86 9.86 0 0 1-2.74-2.79c-.03-.04-.02-.06.03-.03.55.23 1.18.25 1.77.26h6.57c.05 0 .13.18.12.22l-.56 2.63c0 .04-.03.07-.05.1h-.01c-.03.03-.05.05-.08.05h-3.96c-.3 0-.67-.16-1.09-.44Zm26.76-2.65.04-.06c.1-.12.07-.16-.07-.12-.7.2-1.44.27-2.16.27h-8.31c-.05 0-.08.08-.1.13l-.55 2.68c-.01.06.01.2.07.19h7.5c1.27 0 2.8-2.05 3.58-3.09Z" fill="#fff"/></svg>