<svg width="56" height="56" xmlns="http://www.w3.org/2000/svg"><path fill="#203C8F" d="M0 0h56v56H0z"/><path d="M11.374 29.754c.149.226.307.298.432.526.367.674.268 1.736.354 2.482.025.217.016.238-.204.238h-1.592c-.271.001-.401-.119-.402-.39 0-.668.047-1.34-.024-2.004-.052-.477-.267-.576-.777-.606-.265-.015-.86.095-.648-.35.167-.35.341-.64.505-.992.076-.163.2-.226.37-.226.354.002.709.02 1.06-.006.493-.035 1.157-.127 1.422-.598.115-.203.222-.41.32-.62.177-.377.02-.673-.389-.741a1.908 1.908 0 00-.309-.025c-.664-.003-1.328 0-1.992-.003-.166-.001-.274.06-.347.212-.712 1.485-1.43 2.77-2.143 4.254-.3.625-.595 1.253-.885 1.883-.07.15-.171.214-.332.213-.505-.003-1.01 0-1.514-.002-.252 0-.342-.131-.234-.358 1.194-2.505 2.43-4.853 3.66-7.34.11-.222.307-.302.544-.302 1.544 0 3.088-.001 4.633.001 1.284.002 1.649 1.053 1.312 2.124-.184.587-.412 1.091-.806 1.577-.423.52-.984.797-1.614.963-.136.037-.275.063-.4.09zm39.643 1.076c-1.028 1.674-3.102 2.906-5.085 2.244-2.276-.76-1.944-3.599-1.134-5.335.91-1.95 3.107-3.518 5.317-2.898 2.635.74 1.97 4.25.902 5.99zm-3.462.474c2.17-.03 3.406-4.925.961-4.644-1.932.223-3.476 4.68-.96 4.644zm-6.382-4.165l1.085-1.25c.212-.244.422-.49.634-.733a.4.4 0 01.319-.143c.517.003 1.035.002 1.553.001.118 0 .24-.007.303.12.069.14.019.252-.08.363-.685.781-1.366 1.566-2.049 2.349-.34.39-.679.708-1.02 1.096-.052.058-.069.108-.04.185.445 1.204.886 2.277 1.331 3.481.098.264.017.392-.26.392h-1.58c-.208 0-.324-.072-.394-.266-.227-.628-.449-1.125-.673-1.754l-.057-.15-.428.495c-.474.553-.945.977-1.428 1.522-.066.075-.192.151-.29.152-1.268.013-2.536-.003-3.805 0-.161 0-.233-.056-.263-.208-.114-.574-.227-1.119-.338-1.694.691-.031 1.37-.107 2.022-.404.152.691.3 1.233.452 1.926.033-.03.054-.047.072-.067 1.085-1.233 2.169-2.335 3.255-3.567.06-.068.078-.124.047-.217-.39-1.146-.775-2.221-1.161-3.369a.756.756 0 01-.033-.124c-.027-.176.043-.265.22-.273.146-.006.293-.002.44-.002h1.086c.264 0 .34.053.429.305.2.564.396 1.13.595 1.694l.056.14zM13.366 33c-.275 0-.36-.127-.244-.38.587-1.287 1.12-2.434 1.714-3.717.541-1.17 1.09-2.303 1.637-3.47.133-.284.349-.434.672-.433 1.506.003 3.011.001 4.517.002.142 0 .286-.004.426.012.234.025.335.179.245.392a19.03 19.03 0 01-.45.96c-.07.136-.211.151-.35.151h-2.847c-.52 0-.702-.088-.9.395-.067.164-.144.323-.217.485-.153.34.01.6.381.603.578.003 1.156 0 1.735 0 .253 0 .46.137.335.416-.092.204-.213.397-.286.607-.12.343-.343.44-.694.427-.646-.023-1.294.002-1.94.003-.331 0-.555.334-.69.632-.08.159-.224.453-.356.753-.162.369-.009.62.391.628.927.017 1.855.031 2.782.034.305 0 .36.247.273.43-.144.303-.294.604-.44.907-.069.147-.195.163-.335.163-1.79-.007-3.57 0-5.36 0zm14.751-3.372c-.14.25-.272.49-.407.73-.408.726-.82 1.45-1.225 2.176-.179.321-.436.469-.81.466-1.817-.013-3.633-.012-5.45-.017a.602.602 0 01-.128-.01c-.176-.039-.246-.144-.18-.313.085-.225.187-.444.29-.662.93-1.973 1.861-3.763 2.792-5.736.16-.339.318-.679.48-1.017a.398.398 0 01.378-.247c.565-.001 1.13 0 1.695.002.15 0 .183.062.116.212-.327.733-.65 1.434-.981 2.165-.52 1.146-1.045 2.14-1.565 3.287a1.62 1.62 0 00-.113.355c-.038.202.064.337.268.34.4.006.802.001 1.203-.01.246-.006.43-.144.578-.327.244-.302.487-.605.72-.916.249-.334.589-.508.986-.585.45-.088.945-.048 1.353.107zm5.199-.655l-.287-1.416c-.078.138-.138.239-.195.342-.168.306-.337.612-.5.92-.057.106-.107.219-.284.219-.544.07-2.042.413-1.824 0 .75-1.279 1.504-2.499 2.251-3.78a.483.483 0 01.45-.253c.026.001.861-.002 1.293-.005.22-.002.262.029.309.242.246 1.105.49 2.155.734 3.26.07.315.067.315-.248.385-.568.127-1.515.613-1.7.086zm-2.124 1.995c-.327.608-.718 1.178-1.045 1.786a.435.435 0 01-.418.25c-.452-.003-1.357 0-1.357 0-.91.032.421-1.158.578-1.291.635-.542 2.05-.713 2.242-.745z" fill="#fff"/><path d="M27.9 32.5c.5-2.5 3.1-2 3.1-2 4.8.8 6-1.5 6-3.5 0-.04-.625 2.352-4.5 2-4.4-.4-4.9 2.167-4.6 3.5z" fill="#FDAF17"/></svg>