<svg width="56" height="56" viewBox="0 0 56 56" xmlns="http://www.w3.org/2000/svg"><path fill="#F0F3FA" d="M0 0h56v56H0z"/><path d="M32.98 12a4.52 4.52 0 0 1 4.51 4.5v2.02h2a4.51 4.51 0 0 1 4.51 4.5c0 2.82-1.98 3.98-4.5 3.98H29V17c0-2.1.07-3.75 2.25-4.66a4.51 4.51 0 0 1 1.73-.34ZM19.83 42.68a4.52 4.52 0 0 0 4.92.98C26.93 42.76 27 41.1 27 39V29H16.5c-2.52 0-4.5 1.16-4.5 3.98a4.5 4.5 0 0 0 4.5 4.5h2.01v2.01c0 1.2.48 2.34 1.32 3.19Zm16.34 0a4.52 4.52 0 0 1-4.92.98C29.07 42.76 29 41.1 29 39V29h10.5c2.52 0 4.5 1.16 4.5 3.98a4.5 4.5 0 0 1-4.5 4.5h-2.01v2.01c0 1.2-.48 2.34-1.32 3.19ZM19.83 13.32a4.52 4.52 0 0 1 4.92-.98C26.93 13.24 27 14.9 27 17v10H16.5c-2.52 0-4.5-1.16-4.5-3.98a4.5 4.5 0 0 1 4.5-4.5h2.01V16.5c0-1.2.48-2.34 1.32-3.19Z" fill="#1E7240"/></svg>