<svg width="56" height="56" viewBox="0 0 56 56" xmlns="http://www.w3.org/2000/svg"><path fill="#94B35C" d="M0 0h56v56H0z"/><circle cx="46.5" cy="29.5" r="2.5" fill="#fff"/><ellipse cx="50.5" cy="25" rx="1.5" ry="1" fill="#fff"/><path d="M35 32v-8h1v8h-1ZM30 32h-1v-8h1v2.8a1.9 1.9 0 0 1 1.56-.76c1.6 0 2.44 1.43 2.44 2.9 0 1.48-.82 3.06-2.5 3.06-.67 0-1.11-.28-1.5-.84V32Zm0-3.02c0 .98.28 2.23 1.43 2.23S33 29.98 33 29c0-.95-.37-2.18-1.53-2.18-1.13 0-1.47 1.2-1.47 2.15ZM27.08 31.16c-.57.51-1.45.84-2.22.84-1 0-1.86-.58-1.86-1.64 0-1.24 1.1-1.66 2.14-1.8.74-.1 1.5-.2 1.86-.33v-.26c0-.8-.45-1.16-1.23-1.16s-1.24.33-1.42 1.09l-.9-.13C23.7 26.52 24.68 26 25.9 26c1.52 0 2.1.74 2.1 2.17v1.3c0 .9.02 1.47.06 1.71.04.24.12.6.23.82h-1.03c-.1-.2-.16-.57-.18-.84ZM27 29c-.33.14-1.06.27-1.72.37-.59.09-1.28.24-1.28.97 0 .61.52.9 1.08.9.64 0 1.5-.3 1.77-.91.1-.22.15-.55.15-.97v-.36ZM21 25v-1h1v1h-1Zm0 7v-6h1v6h-1ZM19 32v-8h1v8h-1ZM17.02 30.02l.95.13A2.29 2.29 0 0 1 15.58 32c-1.7 0-2.58-1.36-2.58-2.95 0-1.55.83-3.05 2.53-3.05C17.2 26 18 27.48 18 28.99v.26h-4c.05.96.51 1.95 1.59 1.95.67 0 1.15-.36 1.43-1.18ZM14 28.45h3c-.07-.85-.5-1.65-1.46-1.65-.92 0-1.49.79-1.54 1.65ZM41.02 30.02l.95.13A2.29 2.29 0 0 1 39.58 32c-1.7 0-2.58-1.36-2.58-2.95 0-1.55.83-3.05 2.53-3.05C41.2 26 42 27.48 42 28.99v.26h-4c.05.96.51 1.95 1.59 1.95.67 0 1.15-.36 1.43-1.18ZM38 28.45h3c-.07-.85-.5-1.65-1.46-1.65-.92 0-1.49.79-1.54 1.65ZM6 32v-8h3.52c1.44 0 2.83.5 2.83 2.18 0 1.31-1.04 2.01-2.24 2.18.28.13.5.27.64.4.3.28.6.64.87 1.06L13 32h-1.32l-1.05-1.66c-.58-.91-1.15-1.9-2.36-1.9H7V32H6Zm1-4.47h2.31c.9 0 1.96-.25 1.96-1.35 0-.95-.88-1.18-1.7-1.18H7v2.53Z"/></svg>