<svg width="56" height="56" viewBox="0 0 56 56" xmlns="http://www.w3.org/2000/svg"><path fill="#F0F3FA" d="M0 0h56v56H0z"/><path d="M14.7 37.42 20.36 31l3.09 2.38L16.11 42l-1.57-2.61c-.37-.62-.3-1.45.16-1.97Z" fill="url(#a4vneqw32)"/><path fill-rule="evenodd" d="M20.72 28.83a4.99 4.99 0 1 0-5.91.38l-3.43 3.61c-.44.46-.5 1.18-.16 1.71L12.83 37l5.21-5.6 5.37 3.58v-4.53l-2.69-1.62ZM17.5 26.5s1-.76 1-1.38c0-.62-.45-1.12-1-1.12s-1 .5-1 1.12c0 .62 1 1.38 1 1.38Z" fill="url(#b4vneqw32)"/><path d="M23 41.05V25h4v18h-2c-1.1 0-2-.87-2-1.95Z" fill="url(#c4vneqw32)"/><path d="M23 17.37V24h6.75A6.5 6.5 0 1 0 23 17.36Zm9 .13a2.5 2.5 0 0 1-2.5 2.5H27v-2.5a2.5 2.5 0 0 1 5 0Z" fill="url(#d4vneqw32)"/><path d="M30.63 37.78 27.53 25h1.64c1.49 0 2.78.87 3.13 2.36l2.23 9.45c.34 1.44 1.58 2.19 3 2.19h.24c2.05 0 3.47-1.86 2.75-3.85a.77.77 0 0 0-.09-.17l-4.92-7.16a5.3 5.3 0 0 1-.93-3A4.73 4.73 0 0 1 39.23 20h1.6c2.3 0 4.17 1.62 4.17 4h-3.58c-.16-.72-.78-.9-1.49-.9h-.05c-.55 0-1.07.29-1.36.77-.34.57-.32 1.3.05 1.85l4.64 6.8a7.45 7.45 0 0 1 .3 7.87A5.12 5.12 0 0 1 39.08 43h-2.01a6.68 6.68 0 0 1-6.44-5.22Z" fill="url(#e4vneqw32)"/><defs><linearGradient id="a4vneqw32" x1="21.73" y1="32.24" x2="14.58" y2="37.82" gradientUnits="userSpaceOnUse"><stop stop-color="#146D2D"/><stop offset="1" stop-color="#439A2F"/></linearGradient><linearGradient id="b4vneqw32" x1="11.18" y1="27.01" x2="22.69" y2="35.82" gradientUnits="userSpaceOnUse"><stop stop-color="#479831"/><stop offset=".51" stop-color="#207E30"/><stop offset="1" stop-color="#4AA035"/></linearGradient><linearGradient id="c4vneqw32" x1="25" y1="25" x2="25" y2="43" gradientUnits="userSpaceOnUse"><stop stop-color="#6DB430"/><stop offset="1" stop-color="#0F5732"/></linearGradient><linearGradient id="d4vneqw32" x1="26.01" y1="24.31" x2="26.01" y2="11" gradientUnits="userSpaceOnUse"><stop stop-color="#0B5D31"/><stop offset="1" stop-color="#65AF36"/></linearGradient><linearGradient id="e4vneqw32" x1="36.27" y1="20" x2="36.27" y2="43" gradientUnits="userSpaceOnUse"><stop stop-color="#237932"/><stop offset="1" stop-color="#5BB02F"/></linearGradient></defs></svg>