<svg width="56" height="56" viewBox="0 0 56 56" xmlns="http://www.w3.org/2000/svg"><path fill="#F0F3FA" d="M0 0h56v56H0z"/><path d="M49.4 34h-4.94c-2.3 0-3.46-.84-3.46-2.53v-5.93c0-.36.09-.54.5-.54.43 0 .5.18.5.54v5.89c0 1 .73 1.57 2.24 1.57h5.17c.39 0 .59.12.59.47s-.2.53-.6.53ZM39 27.5v1.06c0 1.67-.95 2.44-3.45 2.44H30v2.46c0 .36-.06.54-.5.54-.42 0-.5-.18-.5-.54v-8c0-.3.2-.46.56-.46h5.99c2.5 0 3.45.83 3.45 2.5Zm-9-1.41v3.9h5.58c1.62 0 2.42-.48 2.42-1.46v-1c0-.98-.8-1.53-2.4-1.53h-5.5c-.06 0-.1.03-.1.09ZM25.4 34h-5.2c-2.32 0-3.2-.83-3.2-2.5v-4.04c0-1.64.86-2.46 3.15-2.46h1.99c.4 0 .6.18.6.53 0 .35-.2.47-.6.47h-1.97c-1.44 0-2.17.53-2.17 1.48V29h7.43c.38 0 .57.17.57.5 0 .35-.2.5-.57.5H18v1.46c0 .98.74 1.54 2.26 1.54h5.13c.4 0 .61.12.61.47s-.2.53-.6.53ZM13.2 33.87 6 30.11v3.35c0 .36-.06.54-.5.54-.42 0-.5-.18-.5-.54v-8c0-.3.2-.46.56-.46h5.68c2.5 0 3.76.72 3.76 2.2v.63c0 1.43-1.26 2.17-3.76 2.17H8l5.96 2.94c.25.12.36.27.36.5 0 .34-.24.56-.66.56a.8.8 0 0 1-.46-.13ZM6 26.1V29h5.58c1.62 0 2.42-.39 2.42-1.18v-.6c0-.77-.8-1.22-2.4-1.22H6.1c-.06 0-.1.03-.1.09ZM44 21.23 49 24v-1.23L44 20v1.23ZM44 19.23 49 22v-1.23L44 18v1.23Z" fill="#2655A3"/><path d="M44 23.77 49 21v1.23L44 25v-1.23ZM44 25.77 49 23v1.23L44 27v-1.23Z" fill="#00AFEF"/></svg>