<svg width="56" height="56" viewBox="0 0 56 56" xmlns="http://www.w3.org/2000/svg"><path fill="#F0F3FA" d="M0 0h56v56H0z"/><path d="M24.12 21c.83.02 2.3.13 2.76.74 1.5 1.92-11.42 5.96-12.6 6.26-.03 0-.05-.07-.02-.08 2.91-.98 6-1.78 8.66-3.35.5-.3 1.14-.7 1.35-1.23.2-.5-.63-.73-.98-.78-4.93-.53-11.7 1.06-16.51 2.36a.61.61 0 0 1-.41-.06c-.74-.32-1.49-.62-2.24-.9-.17-.07-.17-.12 0-.16 2.38-.6 4.81-1.13 7.3-1.57 4.18-.75 8.44-1.3 12.7-1.22Z" fill="#F41B2A"/><path d="m11.79 27.79.73 1.12a21.53 21.53 0 0 0 6.26 5.45c.53.29 1.17.56 1.78.59.7.02.93-.7.65-1.26a7.16 7.16 0 0 0-.7-1.13h.02c.46.5.86 1.07 1.2 1.69.35.62.5 1.7-.48 1.75-.45.02-.91-.07-1.33-.26-.75-.34-1.46-.76-2.14-1.25a35.87 35.87 0 0 1-4.1-3.53c-.38-.37-.87-.95-1.47-1.74l-.75-1.15c-.25-.6-1.02-1.99.26-2.07.07 0 .08.01.01.06-.08.06-.23.12-.27.22-.16.44.07 1.09.33 1.5Z" fill="#1E1C1D"/><path d="M21.08 21.97c-1.72 1.21-3.44 2.39-5.14 3.63-.69.5-.98.71-1.02.96-.01.04-.03.07-.07.1-1.88 1.34-4.27 3.46-5.3 5.5a.44.44 0 0 0-.03.2c0 .04 0 .08-.02.12 0 .04-.02.06-.05.08-1.58 1.34-4.2 2.25-4.2 2.25s-.79.22-1.2.19c-.03 0-.06-.05-.04-.09.06-.15.14-.28.24-.4a21.45 21.45 0 0 1 3.2-3.37c.75-.67 1.5-1.34 2.34-1.98A124 124 0 0 1 20.28 22c.6-.33 1.2-.67 1.83-1.06.6-.37 1.19-.68 1.78-.94.03-.01.15.04.1.07l-1.57 1.02c-.07 0-.73.46-1.34.88ZM22 33h30v.53H22.44L22 33Z" fill="#9D9FA3"/><path d="M45.97 32c-2.55 0-3.97-.85-3.97-2.12 0-2.3 3.27-2.88 4.98-2.88 2.63 0 4.02.73 4.02 2.1 0 1.65-1.97 2.9-5.03 2.9Zm.95-4.53c-1.6 0-2.77 1.03-2.77 2.59 0 .97.67 1.47 1.94 1.47 1.68 0 2.83-1.03 2.83-2.56 0-.98-.68-1.5-2-1.5ZM34 32c1.24-2.64 1.76-4.33 1.82-5h3.24c1.96 0 2.94.38 2.94 1.2 0 .8-.88 1.29-2.58 1.35.55.8 1.16 1.62 1.86 2.45h-2.61c-.35-.8-.77-1.57-1.29-2.3h-.35l-.3.87c-.08.2-.2.68-.36 1.43H34Zm3.15-2.73h.43c1.48 0 2.29-.39 2.29-1.07 0-.5-.48-.72-1.53-.72l-.45.01c-.1.18-.18.4-.27.62l-.47 1.16ZM26 32c1.26-2.64 1.8-4.33 1.86-5h3.2C33 27 34 27.45 34 28.28c0 1-1.37 1.59-3.98 1.59-.32 0-.62-.01-.92-.03l-.27.73A7.9 7.9 0 0 0 28.4 32H26Zm3.24-2.64c.14.02.29.02.44.02 1.3 0 2.06-.52 2.06-1.27 0-.44-.43-.66-1.3-.66h-.37c-.12.2-.24.43-.33.67l-.5 1.24ZM20 32c.9-1.83 1.5-3.51 1.79-5H27c-.18.2-.26.41-.29.64a25 25 0 0 0-2.17-.1c-.24 0-.46 0-.69.02-.14.2-.22.41-.31.66l-.29.84 1.14.03c.51 0 1.08-.03 1.72-.05a.93.93 0 0 0-.2.55v.1c-.76-.05-1.53-.07-2.28-.07h-.57l-.36.96c-.12.31-.21.6-.25.83 1.02 0 2.09-.04 3.2-.1-.14.24-.22.46-.27.69H20Z"/></svg>