<svg width="56" height="56" viewBox="0 0 56 56" xmlns="http://www.w3.org/2000/svg"><path fill="#F0F3FA" d="M0 0h56v56H0z"/><path d="M36 30.38a.36.36 0 0 1 .38-.38h.74c.11 0 .2.04.27.1.07.08.11.17.11.28v6.43h2.12c.11 0 .2.04.27.1.07.08.11.17.11.28v.43a.36.36 0 0 1-.38.38h-3.24a.36.36 0 0 1-.38-.38v-7.24ZM30 30.38c0-.11.05-.2.14-.27.09-.07.2-.11.34-.11h4c.13 0 .25.04.34.1.09.08.13.17.13.28v.48c0 .1-.04.2-.13.27-.1.07-.2.1-.35.1H31.5v2h2.63c.14 0 .25.03.34.1.1.07.14.16.14.27v.45c0 .1-.05.2-.14.27-.09.07-.2.1-.34.1H31.5v2.36h3.02c.14 0 .25.03.34.1.1.07.14.16.14.27v.47c0 .11-.05.2-.14.27-.09.07-.2.11-.34.11h-4.04a.55.55 0 0 1-.34-.1.33.33 0 0 1-.14-.28v-7.24ZM9 30.38c0-.11.04-.2.12-.27.09-.07.2-.11.32-.11h.7c.14 0 .24.04.33.1.08.08.12.17.12.28v2.88h2.91v-2.88c0-.11.04-.2.12-.27.09-.07.2-.11.32-.11h.62c.13 0 .23.04.32.1.08.08.12.17.12.28v7.24c0 .11-.04.2-.12.27a.47.47 0 0 1-.32.11h-.62a.47.47 0 0 1-.32-.1.34.34 0 0 1-.12-.28v-3.14h-2.91v3.14c0 .11-.04.2-.12.27a.47.47 0 0 1-.32.11h-.7a.47.47 0 0 1-.33-.1.34.34 0 0 1-.12-.28v-7.24ZM47.5 18.85c0 .22-.2.37-.46.37H45.5v6.4c0 .11-.04.2-.13.27a.5.5 0 0 1-.33.11h-.58a.5.5 0 0 1-.33-.1.34.34 0 0 1-.13-.28v-6.4h-1.54c-.27 0-.46-.15-.46-.37v-.47c0-.22.2-.38.46-.38h4.58c.27 0 .46.16.46.38v.47ZM28.5 30.85c0 .22-.2.37-.46.37H26.5v6.4c0 .11-.04.2-.13.27a.5.5 0 0 1-.33.11h-.58a.5.5 0 0 1-.33-.1.34.34 0 0 1-.13-.28v-6.4h-1.54c-.27 0-.46-.15-.46-.37v-.47c0-.22.2-.38.46-.38h4.58c.27 0 .46.16.46.38v.47ZM38.58 21.2c.99.52 2.42 1.28 2.42 2.52 0 1.4-1.2 2.28-2.51 2.28a4.08 4.08 0 0 1-2.32-.68.36.36 0 0 1-.17-.3l.01-.09.19-.5c.07-.19.21-.28.41-.28.12 0 .2.03.28.08.59.35 1.24.53 1.56.53.53 0 1.05-.38 1.05-.94 0-.5-.44-.86-.82-1.1C37.65 22.06 36 21.5 36 20.1c0-1.29 1.35-2.1 2.58-2.1a4.87 4.87 0 0 1 1.84.5c.17.1.2.25.2.4l-.14.44a.4.4 0 0 1-.4.3.54.54 0 0 1-.27-.08 3.9 3.9 0 0 0-1.47-.35c-.44 0-.84.42-.84.85 0 .58.63.91 1.08 1.15ZM43.58 33.2c.99.52 2.42 1.28 2.42 2.52 0 1.4-1.2 2.28-2.51 2.28a4.08 4.08 0 0 1-2.32-.68.36.36 0 0 1-.17-.3l.01-.09.19-.5c.07-.19.21-.28.41-.28.12 0 .2.03.28.08.59.35 1.24.53 1.56.53.53 0 1.05-.38 1.05-.94 0-.5-.44-.86-.82-1.1C42.65 34.06 41 33.5 41 32.1c0-1.29 1.35-2.1 2.58-2.1a4.87 4.87 0 0 1 1.84.5c.17.1.2.25.2.4l-.14.44a.4.4 0 0 1-.4.3.54.54 0 0 1-.27-.08 3.9 3.9 0 0 0-1.47-.35c-.44 0-.84.42-.84.85 0 .58.63.91 1.08 1.15ZM34.57 18c.25 0 .43.16.43.37v4.8c0 1.72-1.33 2.83-3 2.83-1.68 0-3-1.12-3-2.84v-4.79c0-.21.18-.37.43-.37h.64c.25 0 .43.16.43.37v4.85c0 .85.61 1.51 1.5 1.51.87 0 1.5-.66 1.5-1.5v-4.86c0-.21.18-.37.43-.37h.64ZM26.26 21.64c.96.25 1.74 1 1.74 2.03C28 25.7 25.85 26 24.23 26c-.78 0-1.38-.02-1.8-.05-.24-.03-.43-.18-.43-.36v-7.16c0-.1.04-.18.12-.25.1-.07.2-.1.33-.12.44-.03 1.02-.06 1.94-.06 1.26 0 3.07.4 3.07 1.98 0 .74-.54 1.33-1.2 1.6v.06ZM26 20.17c0-.7-.54-1.17-1.22-1.17-.24 0-1.07.02-1.28.05v2.2h1.3c.66 0 1.2-.4 1.2-1.08Zm.5 3.42c0-.84-.74-1.18-1.47-1.18H23.5V25h1.45c.8 0 1.55-.5 1.55-1.41ZM17.5 18c2.23 0 3.5 1.93 3.5 4 0 2.07-1.28 4-3.5 4-2.22 0-3.5-1.93-3.5-4 0-2.08 1.27-4 3.5-4Zm0 6.74c1.43 0 2-1.57 2-2.74 0-1.18-.57-2.74-2-2.74-1.44 0-2 1.56-2 2.74 0 1.18.56 2.74 2 2.74ZM19.5 30c2.23 0 3.5 1.93 3.5 4 0 2.07-1.28 4-3.5 4-2.22 0-3.5-1.93-3.5-4 0-2.08 1.27-4 3.5-4Zm0 6.74c1.43 0 2-1.57 2-2.74 0-1.18-.57-2.74-2-2.74-1.44 0-2 1.56-2 2.74 0 1.18.56 2.74 2 2.74ZM12.96 25.49c.03.04.04.1.04.15 0 .2-.17.36-.41.36h-.72a.45.45 0 0 1-.38-.24c-.23-.57-.42-1.14-.66-1.7-.14-.35-.47-1.21-.95-1.21H9.5v2.78c0 .21-.17.37-.4.37h-.7c-.23 0-.4-.16-.4-.37v-7.2c0-.1.03-.17.1-.24.22-.21.61-.16.9-.17l.93-.02c1.45 0 2.58.87 2.58 2.37 0 .8-.48 1.69-1.2 2.04v.07c.25.17.49.45.7.85.2.38.41.83.61 1.33l.34.83ZM11 20.44c0-.62-.29-1.2-.98-1.2-.17 0-.33 0-.52.04v2.4h.45c.68 0 1.05-.46 1.05-1.24Z" fill="#007DCD"/></svg>