<svg width="56" height="56" viewBox="0 0 56 56" xmlns="http://www.w3.org/2000/svg"><path fill="#F0F3FA" d="M0 0h56v56H0z"/><path fill-rule="evenodd" d="M18.26 13A5.26 5.26 0 0 0 13 18.26v19.48c0 2.9 2.36 5.26 5.26 5.26h19.48c2.9 0 5.26-2.36 5.26-5.26V18.26c0-2.9-2.36-5.26-5.26-5.26H18.26Zm8.3 7c-.3-.02-.56.2-.56.47v6.06c0 .27.26.5.56.47l2.84-.23c1.47-.12 2.6-1.25 2.6-2.6v-1.34c0-1.35-1.13-2.48-2.6-2.6L26.56 20ZM34 17.33V17h3.22c.43 0 .78.48.78 1.07V21a8.89 8.89 0 0 0-4-3.67ZM38 26v7a11.72 11.72 0 0 0-3.84-3.88c-.23-.12-.21-.57.03-.65 1.24-.43 2.98-1.24 3.43-2.47H38Zm-20-4.87c0-.62.45-1.13 1-1.13s1 .5 1 1.13v14.74c0 .62-.45 1.13-1 1.13s-1-.5-1-1.13V21.13ZM29 38v-1.5c0-.28-.28-.5-.62-.5h-1.7c-.37 0-.68-.25-.68-.55v-5.03c0-.23.23-.42.52-.42h1.36c1.8 0 3.12 1.17 3.12 2.61v2.25c0 .76.43 2.12 2 3.14h-4Z" fill="#A03579"/></svg>