<svg width="56" height="56" viewBox="0 0 56 56" xmlns="http://www.w3.org/2000/svg"><path fill="#F0F3FA" d="M0 0h56v56H0z"/><path d="M25 40H12c4.66-3.31 6-6.92 6-9.7 0-2.8-2.08-5.18-3.6-6.3 7.43-.32 10.16 10.53 10.6 16ZM30.47 14c-8.6 0-13.9 2.6-15.47 3.89.85-.2 3-.6 4.8-.6 9.86 0 14.2 3.03 14.2 4.42 0 1.1-1.99 2.7-3 3.29a906.9 906.9 0 0 1 7.11 4c4.76-3.6 5.89-6.5 5.89-8.34C44 18.83 41.22 14 30.47 14Z" fill="#DA2129"/><path d="M44 40c-1.9-10.93-18.8-16.55-27-18 10.24 4.38 14.42 13.82 15.22 18H44Z" fill="#33327A"/></svg>