<svg width="56" height="56" viewBox="0 0 56 56" xmlns="http://www.w3.org/2000/svg"><path fill="#F0F3FA" d="M0 0h56v56H0z"/><path d="M51 28c0 1.44-.6 2.87-1.75 4.2a15.26 15.26 0 0 1-4.99 3.58 31.74 31.74 0 0 1-7.46 2.38c-2.79.56-5.78.84-8.8.84-6.1 0-11.95-1.16-16.26-3.22C7.42 33.72 5 30.92 5 28s2.42-5.72 6.74-7.78C16.05 18.16 21.9 17 28 17c6.1 0 11.95 1.16 16.26 3.22C48.58 22.28 51 25.08 51 28Zm-.66 0c0-2.74-2.35-5.37-6.54-7.3-4.2-1.94-9.87-3.03-15.8-3.03-5.93 0-11.6 1.09-15.8 3.02-4.19 1.94-6.54 4.57-6.54 7.31 0 2.74 2.35 5.37 6.54 7.3 4.2 1.94 9.87 3.03 15.8 3.03 5.93 0 11.6-1.09 15.8-3.02 4.19-1.94 6.54-4.57 6.54-7.31Z" fill="#292E7F"/><path d="M21.03 30.21c1.92 3.52 5.36 4.23 8.89 4.83.03 0 .05.02.08.04.04.05.06.1.04.13a.12.12 0 0 1-.05.06 14.39 14.39 0 0 1-6.06.53c-2.55-.35-4.86-1.75-6.74-3.62-.71-.7-1.37-1.45-2.04-2.26-.17-.2-.3-.43-.38-.66a.27.27 0 0 1 .03-.22.25.25 0 0 1 .07-.08.23.23 0 0 1 .1-.04c.46-.05.92-.13 1.39-.22 1.9-.37 3.35-1.55 3.02-3.81a3.02 3.02 0 0 0-2.4-2.53 5.68 5.68 0 0 0-2.02-.14 22.34 22.34 0 0 1-1.25.1.12.12 0 0 1-.07-.07.13.13 0 0 1 0-.04v-.07c0-.04 0-.09.04-.12.26-.34.56-.62.9-.85 2.37-1.6 5.52-2.26 7.9-.45a5.07 5.07 0 0 1 2.07 4.22c.02 2.43-1.45 4.2-3.47 5.13-.07.03-.09.08-.05.14Z" fill="#91C73E"/><path d="M26.85 30.16a.13.13 0 0 0 0 .17c1.38 2.1 3.53 2.89 5.81 3.4.08.01.14.05.18.12a.2.2 0 0 1-.04.25 4.9 4.9 0 0 1-1.5.2 15.27 15.27 0 0 1-5.93-1.44c-1.08-.5-2.33-1.2-3-2.26a.3.3 0 0 1 .08-.4c.97-.6 1.88-1.2 2.72-1.83A6.94 6.94 0 0 0 28.01 23a.2.2 0 0 1 .04-.1.2.2 0 0 1 .08-.07.18.18 0 0 1 .2.04c.56.52.6 1.97.5 2.7a9.8 9.8 0 0 1-1.98 4.58Z" fill="#6666AE"/><path d="M15.47 27.9a2.27 2.27 0 0 0 2.21-2.32c0-1.29-.99-2.33-2.21-2.33a2.27 2.27 0 0 0-2.22 2.33c0 1.28 1 2.32 2.22 2.32Z" fill="#FECD06"/><path d="M32.33 30.08a.34.34 0 0 0-.01.43c.79 1 2.56 1.5 3.72 1.55.05 0 .09.01.12.04.04.02.06.06.08.1.04.12 0 .2-.11.23a7.11 7.11 0 0 1-4.94-.28 9.22 9.22 0 0 1-2.47-1.67.3.3 0 0 1-.05-.37c.5-.92 1.17-1.74 1.57-2.7.33-.77.51-1.61.56-2.53a.29.29 0 0 1 .13-.22.25.25 0 0 1 .25-.01c1.2.64 2.28 1.2 3.66 1.37.18.03.27.14.26.33l-.01.09a.4.4 0 0 1-.12.22.37.37 0 0 1-.23.1c-.54.03-1.07 0-1.6-.1-.73-.14-1.2.8-1.34 1.4-.1.4.01.69.32.84.4.2 1.48-.04 2-.1.06-.02.1 0 .14 0 .3.14.3.33-.03.58a.39.39 0 0 1-.15.07c-.5.12-1.4.23-1.75.63ZM48.09 27.7a16.25 16.25 0 0 1-7.9 1.78c-.03 0-.05-.02-.04-.05l.1-1.05.01-.02a.05.05 0 0 1 .03-.03h.02c1.64.33 3.27.28 4.9-.13a127.62 127.62 0 0 0 2.95-.78.07.07 0 0 1 .02.05v.05c.01.08-.02.14-.1.18Z" fill="#213E92"/><path d="M39.24 29.28c-.24-.62-1.08-.52-1.46-.15-.44.43-.31 1.15.18 1.46.45.28.9.12 1.35-.09a.21.21 0 0 1 .13-.01c.05 0 .09.03.12.07.03.03.05.08.06.12.01.05 0 .1-.02.14-.33.77-1.5 1-2.15.86-1.3-.3-2.02-1.86-1.18-3 .82-1.12 2.42-1.22 3.57-.53.02 0 .04.03.05.06.01.02.02.05.01.08l-.13 1.04c-.01.05-.04.1-.08.12-.18.13-.37.03-.45-.17Z" fill="#213E92"/><path d="M16.89 33.11a8.8 8.8 0 0 0 5.18 2.98c.04 0 .07.02.09.05.02.04.03.07.02.11 0 .06-.03.09-.09.1-.3.04-.62.03-.92-.04a11.14 11.14 0 0 1-5.59-2.94c-.73-.7-1.52-1.49-2.34-2.36a3.65 3.65 0 0 0-2.02-1.22c-.3-.03-.31-.13-.07-.3.1-.06.2-.11.32-.14.9-.2 1.7 0 2.37.61 1.08.99 2.08 2.1 3.05 3.15Z" fill="#986826"/><path d="M10.77 31.69a6.26 6.26 0 0 0-2.8-1.43c-.28-.05-.3-.15-.04-.29.16-.08.33-.14.52-.17 1.51-.2 2.86.68 3.92 1.72 1.72 1.67 3.29 3.63 5.6 4.38H18v.02a.03.03 0 0 1 0 .03l-.03.04a.12.12 0 0 1-.12.06c-1.7-.2-3.3-1.1-4.59-2.22l-2.48-2.14Z" fill="#CB9A32"/></svg>