<svg width="56" height="56" viewBox="0 0 56 56" xmlns="http://www.w3.org/2000/svg"><path fill="#1E3470" d="M0 0h56v56H0z"/><path fill-rule="evenodd" d="M43.5 12.5h-31v31h31v-31ZM12 12v32h32V12H12Z" fill="#fff"/><path fill-rule="evenodd" d="M41.5 14.5h-27v27h27v-27ZM14 14v28h28V14H14Z" fill="#fff"/><path d="M41.72 18H14.43v-.5h27.29v.5Zm0 3.5H14.43V21h27.29v.5Zm0 3.5H14.43v-.5h27.29v.5Zm0 3.5H14.44V28h27.28v.5Zm0 3.5H14.44v-.5h27.28v.5Zm0 3.52H14.44V35h27.28v.52Zm0 3.48H14.44v-.5h27.28v.5Z" fill="#fff"/><path d="M18 14.15v27.63h-.5V14.15h.5Zm3.5 0v27.63H21V14.15h.5Zm3.5 0v27.63h-.5V14.15h.5Zm3.27 0v27.63h-.5V14.15h.5Zm3.24.1v27.53H31V14.25h.5Zm3.49-.1v27.63h-.48V14.15H35Zm3.51 0v27.63H38V14.15h.51Z" fill="#fff"/><path d="M38.33 14.15h3.58v3.53h-3.58v-3.53Zm-3.38.14h-3.58v3.39h3.58v-3.39Zm0 6.76h-3.58v3.75h3.58v-3.75Zm6.96 0h-3.58v3.75h3.58v-3.75Z" fill="#fff"/><path fill-rule="evenodd" d="M18 25h3.56c.81.02 2.44.93 2.44 4.35 0 1.49-.36 2.49-.85 3.15.53.47.7 1.1.71 1.42v5.06H22.1v-4.16c0-.6-.2-1.01-.43-1.27-.21.06-.4.08-.57.08H19.8V39H18V25Zm1.9 5.82v-3.54h1c.86 0 1.56.8 1.56 1.77 0 .98-.7 1.77-1.56 1.77h-1ZM24.5 28v11H26v-4.18h.97L28.41 39H31l-2.77-6.37 2.2-4.63H28l-2 3.87V28h-1.5Zm6.96 0v11H33v-4h1.93v-2h-1.9v-3H37v-2h-5.54Zm6.96.25v10.53h3.54V37H40v-8.75h-1.58Z" fill="#fff"/></svg>