<svg width="56" height="56" viewBox="0 0 56 56" xmlns="http://www.w3.org/2000/svg"><path fill="#F0F3FA" d="M0 0h56v56H0z"/><path d="M27 16.03c.34.41.6 1.02.94 1.55.33-.52.68-1.14 1.01-1.55.22-.29.43-.56.68-.84-.3-.54-1.06-1.5-1.65-2.19-.6.7-1.4 1.65-1.69 2.2.26.27.5.54.72.83Z" fill="#8E3285"/><path d="M26.29 15.18a13.43 13.43 0 0 1 1.69 2.3c0 .12-.03.26-.12.45-.36.63-.6 1.28-.73 1.94-.04.19-.1.2-.2.04a12.25 12.25 0 0 0-1.65-2.11c.22-.96.59-1.84 1-2.62Z" fill="#BB7DB0"/><path d="M17.08 17.17c.27 1.28.72 2.46 1.37 3.55.03.06-.02.14-.09.13-.15-.03-.3-.05-.46-.05h-1.47c-.2 0-.45.03-.74.07a7.1 7.1 0 0 1-.73.07c-.07 0-.18.09-.3.24-.16-.2-.25-.32-.28-.39A13.68 13.68 0 0 1 13 17.5s.03-.15.1-.16c.72-.13 1.58-.21 2.34-.24.6-.03 1.15 0 1.64.07Z" fill="#8E3285"/><path d="M17.08 17.17a12.67 12.67 0 0 1 3.79.98c.12.06.2.12.24.2.18.9.47 1.76.86 2.55a81.67 81.67 0 0 0 .54 1.08l-.01.02c-.02.02-.04.02-.06.01a12.9 12.9 0 0 0-3.5-1.05.8.8 0 0 0-.3 0c-.03.01-.04.04-.01.07.26.32.5.64.73.96.5.7 1.18 1.39 1.84 1.92.13.12.11.16-.06.14a11.11 11.11 0 0 0-3.91.22l-.35-.33a12.44 12.44 0 0 1-2.12-2.52 1.45 1.45 0 0 1-.1-.24c.12-.15.23-.23.3-.24.26 0 .5-.03.73-.07.3-.04.54-.07.74-.07h1.47c.16 0 .3.02.46.05a.08.08 0 0 0 .08-.04.08.08 0 0 0 0-.09c-.64-1.1-1.1-2.27-1.36-3.55ZM27.31 27.15l-.6.23a16.2 16.2 0 0 0-4.26 2.27c-.3.22-.56.45-.8.69-.2.22-.42.44-.64.64a17.16 17.16 0 0 0-3.38 4.44l-.06.13v-.05a.07.07 0 0 0-.07-.03c-.25.03-.47.14-.72.18-1.1.22-2.23.34-3.38.37.98-1.86 2.16-3.4 3.54-4.6.62-.55 1.06-.95 1.32-1.2.2-.18.55-.43 1.06-.75a16.9 16.9 0 0 1 8.2-2.53c.1 0 .1.02.03.09a.85.85 0 0 1-.24.12Z" fill="#BB7DB0"/><path d="M27.98 27c0 .07 0 .13-.02.2-.1.13-.2.26-.27.4-.13.22-.2.36-.25.41-.37.56-.74 1.13-1.18 1.63-.38.44-.68.93-1.1 1.35a15.88 15.88 0 0 1-2.95 2.33l-.06-.01c-.06-.03-.07-.06-.05-.1.47-.82 1.01-1.58 1.61-2.3.27-.33.47-.68.76-.99a19.43 19.43 0 0 1 3.3-2.78.23.23 0 0 0 .08-.09c.05-.07.1-.08.13-.05Z" fill="#8E3285"/><path d="M27.9 37.39c.1.39.17.73.13.98-.26.64-.54 1.13-.73 1.52-.37.7-.83 1.44-1.36 2.21a19.9 19.9 0 0 1-3.24-2.17 11.54 11.54 0 0 0 4.47-4.49c.08-.14.14-.13.17.03.1.46.22.94.35 1.44.04.14.1.3.2.48Z" fill="#BB7DB0"/><path d="M17.57 35.55a15.85 15.85 0 0 0-1.4 3.85 16.96 16.96 0 0 1-4.15.53.06.06 0 0 1-.02-.04c0-.12.02-.24.06-.36.33-1.26.78-2.44 1.34-3.51 1.15-.03 2.28-.15 3.38-.37.25-.04.47-.15.72-.18h.04l.02.03.01.05Z" fill="#8E3285"/><path d="m26.4 25.78.72.5c.04.02.06.06.06.11v.04c0 .05-.02.06-.06.03-.5-.32-1-.63-1.46-.95-.25-.16-.23-.2.05-.1.26.1.49.22.7.37Z" fill="#E7C9DF"/><path d="M29.63 15.18c-.25.27-.46.55-.68.83-.32.42-.64.9-.97 1.43 0 .12.07.26.16.44.36.62.6 1.25.72 1.9.04.18.1.2.2.03.44-.74.96-1.43 1.57-2.07-.22-.93-.59-1.8-1-2.56Z" fill="#BB7DB0"/><path d="M38.92 17.17a11.73 11.73 0 0 1-1.37 3.55c-.03.06.02.14.09.13.15-.03.3-.05.46-.05 1 0 1.95.1 2.94.14.07 0 .18.09.3.24.16-.2.25-.32.28-.39A13.64 13.64 0 0 0 43 17.51a.13.13 0 0 0-.1-.17c-.72-.13-1.58-.21-2.34-.24-.6-.03-1.15 0-1.64.07Z" fill="#8E3285"/><path d="M38.92 17.17a12.67 12.67 0 0 0-3.79.98c-.12.06-.2.12-.24.2-.18.9-.47 1.76-.86 2.55a81.67 81.67 0 0 1-.54 1.08l.01.02c.02.02.04.02.06.01a12.9 12.9 0 0 1 3.5-1.05.8.8 0 0 1 .3 0c.03.01.04.04.01.07-.26.32-.5.64-.73.96-.5.7-1.18 1.39-1.84 1.92-.13.12-.11.16.06.14 1.27-.16 2.57-.09 3.91.22l.35-.33c.81-.75 1.52-1.58 2.12-2.52.03-.05.07-.13.1-.24-.12-.15-.23-.23-.3-.24-.26 0-.5-.03-.73-.07a4.96 4.96 0 0 0-.74-.07H38.1c-.16 0-.3.02-.46.05a.08.08 0 0 1-.08-.04.08.08 0 0 1 0-.09c.64-1.1 1.1-2.27 1.36-3.55Z" fill="#BB7DB0"/><path d="M26.92 19.8c-.44-.75-1.04-1.4-1.65-2.05 0 .22-.1.44-.12.67-.07.52-.15 1.02-.15 1.52 0 .37.05.75.1 1.15 0 .04-.02.2-.1.16l-.02-.02a6.98 6.98 0 0 0-.98-1.02 13.3 13.3 0 0 0-2.5-1.7 1.7 1.7 0 0 0-.46-.16c.18.9.47 1.76.87 2.55.18.38.36.73.53 1.05.02.04-.02.05-.05.04a12.6 12.6 0 0 0-3.44-1.09c-.1-.01-.27.04-.37.06-.04.01-.05.04-.02.07.26.32.5.64.73.96.5.7 1.18 1.39 1.84 1.92.14.12.12.16-.06.14a11.11 11.11 0 0 0-3.9.22c.98.81 2.05 1.47 3.19 1.97.91.4 1.77.66 2.56.78.8.13 1.34.23 1.65.3.6-.13 1.37-.17 1.97-.2 1.01-.05 1.56-.08.03-.44-.56-.13-1.15-.32-1.76-.55-1.21-.46-2.23-1.14-3.24-1.81l-.18-.12c-.03-.02-.04-.09.01-.1.18-.01.36 0 .52.04l1.6.41c.3.08.57.18.81.3.28.12.56.23.84.32.05.02.07-.07.04-.1-.13-.1-.29-.18-.4-.3-.72-.7-1.4-1.45-2.02-2.28a.52.52 0 0 1-.1-.2c0-.05.07-.1.12-.07l.63.37a11.1 11.1 0 0 1 2.6 1.95c.26.27.47.56.67.86.15.22.31.44.5.65.14.17.13.32-.02.45-.03.02-.03.04 0 .06a.2.2 0 0 0 .13.03c.33-.03.48.12.46.46.06-.07.1-.08.13-.05.04-.21.02-.39-.08-.52l-.19-.28c-.26-.62-.46-1.2-.6-1.76-.35-1.3-.32-2.78-.12-4.08.03-.2.1-.22.2-.03.35.7.82 1.4.88 2.2 0 0 0-.01 0 0 .06-.8.47-1.5.82-2.2.1-.19.16-.18.2.03.19 1.3.22 2.78-.12 4.08a12.8 12.8 0 0 1-.61 1.76c-.01.04-.08.13-.18.28-.1.13-.13.3-.09.52.03-.03.08-.02.13.05-.02-.34.13-.5.46-.46a.2.2 0 0 0 .13-.03c.03-.02.03-.04 0-.06-.15-.13-.15-.28 0-.45.17-.21.33-.43.48-.65.2-.3.41-.59.68-.86a11.1 11.1 0 0 1 2.59-1.95l.63-.37c.06-.04.13.01.11.08a.52.52 0 0 1-.1.2c-.61.82-1.28 1.58-2 2.27-.08.08-.17.14-.26.2l-.15.1c-.03.03-.01.12.04.1.28-.1.56-.2.84-.33.24-.11.51-.2.82-.29.54-.15 1.07-.28 1.6-.41.16-.04.33-.05.51-.03.14.01-.14.2-.16.2a16.2 16.2 0 0 1-3.25 1.82c-.6.23-1.2.42-1.76.55-1.53.36-.98.4.03.44.6.03 1.37.07 1.97.2.31-.07.86-.17 1.65-.3.8-.12 1.65-.39 2.57-.78 1.14-.5 2.2-1.16 3.19-1.97-1.34-.3-2.64-.38-3.91-.22-.17.02-.2-.02-.06-.14A10.6 10.6 0 0 0 36.64 22c.23-.32.47-.64.73-.96.03-.03.02-.06-.02-.07a.8.8 0 0 0-.29 0 12.9 12.9 0 0 0-3.5 1.05h-.06v-.06l.53-1.05c.4-.8.68-1.65.86-2.55-.15.03-.3.08-.45.16a13.3 13.3 0 0 0-2.51 1.7c-.36.3-.59.65-.88 1.02-.07.1-.12-.1-.11-.14.04-.34.06-.67.06-1 0-.55-.14-1.1-.21-1.67-.03-.24-.15-.49-.15-.73-.62.65-1.18 1.36-1.63 2.1-.1.17-.1.19-.14 0a9.05 9.05 0 0 0-.89-2.34l-.01.04-.02-.04c-.36.62-.76 1.7-.89 2.34-.03.19-.04.17-.14 0Z" fill="#E7C9DF"/><path d="m28.69 27.15.6.23a16.2 16.2 0 0 1 4.26 2.27c.3.22.56.45.8.69.2.22.42.44.64.64a17.16 17.16 0 0 1 3.38 4.44l.06.13v-.05a.07.07 0 0 1 .07-.03c.25.03.47.14.72.18 1.1.22 2.23.34 3.38.37a15.96 15.96 0 0 0-3.54-4.6c-.62-.55-1.06-.95-1.32-1.2a7.1 7.1 0 0 0-1.06-.75 16.9 16.9 0 0 0-8.2-2.53c-.1 0-.1.02-.03.09l.24.12Z" fill="#BB7DB0"/><path d="M28.02 27c0 .07 0 .13.02.2.1.13.2.26.27.4.13.22.2.36.25.41.37.56.74 1.13 1.18 1.63.38.44.68.93 1.1 1.35a15.88 15.88 0 0 0 2.95 2.33l.06-.01c.06-.03.07-.06.05-.1-.47-.82-1.01-1.58-1.61-2.3-.27-.33-.47-.68-.76-.99a19.43 19.43 0 0 0-3.3-2.78.23.23 0 0 1-.08-.09c-.05-.07-.1-.08-.13-.05Z" fill="#8E3285"/><path d="M27.99 27.05c-.24.31-.46.82-.68 1.15a16.86 16.86 0 0 1-5.03 5.1c-.06.03-.23 0-.17-.09l-.4.6c-.6 1.2-1.03 2.4-1.3 3.63 0 .05.02.09.07.09 0 0 .63.16.64.15 3.47-2.12 5.06-5.72 6.53-9.27.03-.03.04-.03.04 0-.07.67-.04 1.42-.02 2.1.02.64.08 1.28.18 1.92.02.16.13.29.13.44 0-.15.1-.28.13-.44.1-.64.15-1.28.18-1.92.02-.68.04-1.43-.02-2.1 0-.03 0-.03.04 0 .38.92.67 1.85 1.13 2.73a16.46 16.46 0 0 0 6 6.38c.05.03.12-.02.1-.08-.26-1.22-.7-2.43-1.29-3.64l-.35-.59c.05.1-.12.08-.18.04A14.89 14.89 0 0 1 30.94 31a19.33 19.33 0 0 1-2.24-2.83c-.22-.33-.47-.8-.71-1.12Z" fill="#BB7DB0"/><path d="M27.2 30.65c.05-.31.03-.94.01-1.24-.25.45-.42.93-.63 1.32a17.45 17.45 0 0 1-6.01 6.77l-.04-.01a.07.07 0 0 1-.03-.08c.27-1.22.7-2.44 1.3-3.64-.46.17-1.02.43-1.67.76-.49.24-1.07.47-1.75.68l-.35.14a.75.75 0 0 1-.39.07l-.06.13a15.84 15.84 0 0 0-1.4 3.85A17.9 17.9 0 0 0 19.73 38l.6-.3a.21.21 0 0 1 .24.06c.66.78 1.38 1.51 2.15 2.18a11.54 11.54 0 0 0 4.47-4.49c.08-.14.08-.08.11.07.16.71.33 1.78.7 2.4.28-.72.5-1.7.66-2.44.03-.16.09-.17.17-.03a11.54 11.54 0 0 0 4.47 4.5 20.4 20.4 0 0 0 2.14-2.19.21.21 0 0 1 .25-.05c.19.08.38.18.6.29 1.11.59 2.3 1.06 3.54 1.41a15.84 15.84 0 0 0-1.4-3.85l-.06-.13a.75.75 0 0 1-.38-.07l-.35-.14c-.69-.21-1.27-.44-1.75-.68a19.5 19.5 0 0 0-1.67-.76 16.14 16.14 0 0 1 1.29 3.69.07.07 0 0 1-.06.04l-.04-.01a16.44 16.44 0 0 1-6.6-7.7c-.03.3-.04.55 0 .86.2 1.48.17 2.95-.1 4.4-.01.09-.05.1-.1.02-.25-.4-.51-1.1-.56-1.57 0-.02-.08-.02-.09 0a4.29 4.29 0 0 1-.56 1.57c-.05.08-.08.07-.1-.02-.26-1.45-.3-2.92-.1-4.4Z" fill="#E7C9DF"/><path d="M28.1 37.39c-.1.39-.22.73-.17.98.25.64.58 1.13.77 1.52.37.7.83 1.44 1.36 2.21a19.9 19.9 0 0 0 3.24-2.17 11.54 11.54 0 0 1-4.47-4.49c-.08-.14-.14-.13-.17.03-.1.46-.22.94-.35 1.44-.04.14-.1.3-.2.48Z" fill="#BB7DB0"/><path d="M38.43 35.55c.62 1.2 1.1 2.48 1.4 3.85a16.96 16.96 0 0 0 4.15.53.06.06 0 0 0 .02-.04c0-.12-.02-.24-.06-.36a17.24 17.24 0 0 0-1.34-3.51 20.94 20.94 0 0 1-3.38-.37c-.25-.04-.47-.15-.72-.18h-.04a.07.07 0 0 0-.02.03l-.01.05Z" fill="#8E3285"/><path d="m29.6 25.78-.72.5a.14.14 0 0 0-.06.11v.04c0 .05.02.06.06.03.5-.32 1-.63 1.46-.95.25-.16.23-.2-.05-.1-.26.1-.49.22-.7.37Z" fill="#E7C9DF"/><path d="M28.03 38.35c-.26.64-.54 1.15-.73 1.54-.37.7-.83 1.44-1.36 2.21l1.93.88c.06.03.1.03.13 0 .02.03.07.03.13 0l1.93-.88c-.53-.77-.99-1.5-1.36-2.21-.2-.39-.42-.9-.67-1.54Z" fill="#8E3285"/></svg>