<svg xmlns="http://www.w3.org/2000/svg" width="56" height="56" viewBox="0 0 56 56"><path fill="url(#a1vgfairq)" d="M0 0h56v56H0z"/><path d="M11.88 20H7v2.2l.22.02c.11.02.19.08.24.16.05.08.08.17.08.22V28.33c0 .2-.06.3-.11.35a.33.33 0 0 1-.2.08l-.23.02V31h4v-2.24h-.25c-.08 0-.13-.03-.17-.12a.89.89 0 0 1-.08-.32v-1.5h.72c.36.02.53.16.62.3a1 1 0 0 1 .12.54v1.64c0 .82.13 1.36.22 1.55l.06.15h3.07v-2.2l-.2-.03c-.09-.02-.15-.08-.2-.21-.06-.13-.07-.3-.06-.4v-.92c-.08-.82-.5-1.3-.93-1.55.42-.25.71-.62.9-1 .25-.56.3-1.16.27-1.55-.04-1.29-.53-2.1-1.2-2.56a3.53 3.53 0 0 0-2.01-.58zM7.5 21.79V20.5h4.38c.53 0 1.2.1 1.73.49.52.37.95 1.01.98 2.17v.01c.03.33-.02.84-.23 1.3-.21.45-.58.84-1.22.98l.03.5c.34.03 1.08.34 1.18 1.32v.88c0 .15 0 .38.09.59.06.16.17.34.37.45v1.31h-2.22a4.82 4.82 0 0 1-.13-1.2v-1.63c0-.2-.02-.52-.2-.8-.18-.3-.5-.53-1.03-.55H10V28.34c0 .13.04.34.13.53.08.14.2.28.37.35v1.28h-3v-1.29a.83.83 0 0 0 .27-.16c.17-.16.28-.4.27-.73v-5.74a1.03 1.03 0 0 0-.17-.48.85.85 0 0 0-.37-.31zm3.75.21H10v3h1.22c.28-.01.64-.04.93-.28.3-.24.46-.65.46-1.28 0-.53-.19-.9-.47-1.14a1.4 1.4 0 0 0-.89-.3zm-.75 2.5v-2h.75c.2 0 .41.05.57.19.15.12.29.34.29.75 0 .55-.14.79-.27.9-.15.11-.36.15-.63.16h-.7z" fill="#fff"/><path fill-rule="evenodd" d="M23 23.07v4.85c0 1.7-1.37 2.58-3.06 2.58-1.7 0-3.07-.89-3.07-2.58v-4.85c0-1.7 1.37-2.57 3.07-2.57 1.7 0 3.06.87 3.06 2.57zm-6.63 0c0-1.98 1.6-3.07 3.57-3.07 1.97 0 3.57 1.1 3.57 3.07v4.85c0 1.97-1.6 3.08-3.57 3.08-1.97 0-3.57-1.1-3.57-3.08v-4.85zm4.22.08v4.7a.65.65 0 0 1-1.3 0v-4.7a.65.65 0 1 1 1.3 0zm-1.8 0a1.15 1.15 0 1 1 2.3 0v4.7a1.15 1.15 0 1 1-2.3 0v-4.7z" fill="#fff"/><path d="M24.5 20h4v2.23l-.22.03a.34.34 0 0 0-.2.11c-.06.08-.09.22-.08.47v5.66h.82c.1 0 .26-.04.38-.15.12-.1.22-.26.21-.56V26H32v5h-7.5v-2.16l.16-.06c.1-.03.35-.22.34-.68v-5.24c0-.14-.01-.31-.07-.44a.3.3 0 0 0-.08-.13.16.16 0 0 0-.1-.03h-.26V20zm.5.5v1.3l.17.1c.11.1.18.22.23.33.09.22.1.47.1.62v5.25c.02.56-.25.9-.5 1.07v1.33h6.5v-4H29.9v1.28c.02.44-.15.76-.39.96-.23.19-.5.26-.69.26H27.5v-6.14c-.01-.36.1-.63.25-.82.1-.1.15-.17.25-.21V20.5h-3zM32.75 20h7.97v3.72H38V23c0-.2-.08-.31-.17-.39a.6.6 0 0 0-.36-.12h-1.23v1.7h2.95v2.3h-2.95v2h1.23c.25 0 .37-.07.43-.13.06-.07.1-.17.1-.32V27h2.72v4h-7.97v-2.16l.2-.04c.3-.06.37-.32.37-.44v-5.5c-.01-.49-.3-.61-.37-.63l-.2-.04V20zm.5.5v1.31c.27.14.56.46.57 1.04v5.5c0 .23-.11.69-.57.88v1.27h6.97v-3H38.5v.54c0 .22-.05.46-.23.66s-.45.3-.8.3h-1.73v-3h2.95v-1.31h-2.95V22h1.73c.22 0 .47.06.67.22.21.17.36.43.36.78v.22h1.72V20.5h-6.97zM41.52 20h3.37v1.33a3.5 3.5 0 0 0 .08.6l.04.1v.01l.41.76.5-.88c.03-.15.1-.46.08-.7V20h2.87v2.13l-.18.06-.03.01a.68.68 0 0 0-.23.27l-1.54 3.09 1.46 2.73.2.3c.1.1.2.18.27.2l.18.06V31h-3.5v-1.76c0-.08-.03-.23-.07-.38-.04-.16-.1-.31-.16-.41v-.01l-.39-.65-.36.74c-.07.12-.19.44-.2.7V31h-3.06V28.9l.1-.07a3.29 3.29 0 0 0 .4-.44h.01l1.63-3.3-1.5-2.71a.89.89 0 0 0-.15-.19h-.23V20zm.22 2.2zm.26-1.7v1.28c.05.04.12.07.15.11.08.08.15.18.19.25l1.63 2.95-1.75 3.52c-.06.13-.17.26-.27.35l-.19.18v1.36h2.06v-1.27c.01-.37.17-.77.25-.93l.78-1.56.83 1.43c.12.17.2.39.24.57.05.19.07.37.08.48v1.28h2.5v-1.31a1.39 1.39 0 0 1-.31-.27 2.18 2.18 0 0 1-.28-.39l-1.59-2.96 1.66-3.32c.11-.21.26-.36.39-.45v-1.3H46.5v.7c.02.33-.07.73-.12.89v.03l-.97 1.71-.82-1.53a.92.92 0 0 1-.1-.24 4.03 4.03 0 0 1-.1-.72v-.84H42z" fill="#fff"/><path fill-rule="evenodd" d="M44.33 35.78c-.5.3-1.1.3-1.54-.03-.61-.45-.68-1.38-.16-2.07.52-.7 1.44-.89 2.05-.43.25.18.41.45.47.75h-.67a.68.68 0 0 0-.4-.43c-.39-.15-.87.15-1.06.66-.19.51-.02 1.04.37 1.19.4.15.88-.15 1.07-.66v-.03h-.7l.1-.36h1.33c-.01.22-.07.44-.17.66l-.3.97h-.4v-.22zM15.2 36l.64-3h.67l-.5 2.43h1.45l-.14.57h-2.12zm-7.57-3h1.6c.25 0 .75.12.76.72 0 .6-.46.84-.7.88.1.04.31.22.32.55.01.16 0 .27-.01.36-.02.16-.03.27.04.49H9c-.03-.05-.07-.24 0-.66.06-.41-.2-.5-.33-.5h-.74L7.67 36H7l.64-3zm.56.52h.78c.12.01.36.1.34.37-.02.35-.39.45-.6.46h-.7l.18-.83zM32.55 33h1.58c.25 0 .75.12.75.72.01.6-.45.84-.69.88.1.04.3.22.32.55.01.16 0 .27-.01.36a.92.92 0 0 0 .04.49h-.66c-.03-.05-.06-.24 0-.66.07-.41-.19-.5-.32-.5h-.74L32.57 36h-.66l.64-3zm.55.52h.78c.12.01.35.1.33.37-.02.35-.38.45-.6.46h-.7l.19-.83zm-19.43 1.8c-.52.7-1.43.88-2.04.43-.61-.45-.68-1.38-.16-2.07.52-.7 1.44-.89 2.05-.43.6.45.68 1.38.15 2.07zm-.38-.56c-.2.51-.67.8-1.06.65-.4-.15-.56-.68-.37-1.19.2-.5.68-.8 1.07-.65.4.15.56.68.36 1.2zM19.25 33l-.64 3h2.12l.13-.57h-1.45l.51-2.43h-.67zm2.72 3l.62-3h2.3l-.13.57h-1.63l-.13.62h1.52l-.12.52H22.9l-.16.73h1.67l-.13.56h-2.3zm5.62-3h-1.23l-.64 3h1.23c.78 0 1.8-.6 1.78-1.8-.02-.97-.68-1.2-1.14-1.2zm-.08.59h-.58l-.42 1.82h.58c.58 0 .98-.59.97-1.15 0-.45-.34-.67-.55-.67zm9.03-.59h.66l-.63 3h-.67l.64-3zm1.55 3l.66-3h.67l.8 2.1.45-2.1h.61l-.64 3h-.67l-.81-2.09L38.7 36h-.62zm10.9-2c.04-.31-.13-1-1.01-1-1.1.01-1.17.81-1.17.9 0 .1-.03.64.82.82.2.05.58.2.61.39.04.25-.2.4-.53.4-.32 0-.64-.16-.63-.51h-.59c-.02.34.2 1.01 1.22 1 1.03-.01 1.16-.67 1.13-1-.02-.25-.24-.68-.86-.73-.62-.06-.64-.38-.59-.53.02-.1.17-.27.59-.25.41.02.48.37.46.51H49z" fill="#fff"/><defs><linearGradient id="a1vgfairq" x1="10.42" y1="9.71" x2="68.15" y2="76.02" gradientUnits="userSpaceOnUse"><stop stop-color="#1A1E21"/><stop offset="1" stop-color="#06060A"/></linearGradient></defs></svg>