<svg width="56" height="56" viewBox="0 0 56 56" xmlns="http://www.w3.org/2000/svg"><path fill="#F0F3FA" d="M0 0h56v56H0z"/><path fill-rule="evenodd" d="M8 19h40v1H8v-1Zm.07 2v1h19.91l.86-1H8.07Zm17.1 1.5h2.1l-2.07 2.44a.76.76 0 0 0 .09 1.08l3.56 2.9c.47.38.54 1.1.17 1.57L26.7 33.5h-1.84l2.44-3.1c.25-.32.2-.8-.1-1.06l-3.54-2.88a1.15 1.15 0 0 1-.2-1.53l1.72-2.43ZM8 24v9h1v-8c.94 0 2.41.4 2.41 1.92 0 1.22-1.44 1.9-2.06 2C9.47 31 11.83 32.5 13 33v-1.27a5.89 5.89 0 0 1-2.49-2.19 3.13 3.13 0 0 0 1.99-2.62c0-1.61-1.22-2.92-2.73-2.92H8Zm34.77 0H41v9h1v-8c.94 0 2.41.4 2.41 1.92 0 1.22-1.44 1.9-2.06 2C42.47 31 44.83 32.5 46 33v-1.27a5.06 5.06 0 0 1-2.28-2.15c1.4-.5 1.77-1.98 1.78-2.66 0-1.61-1.22-2.92-2.73-2.92ZM23 28.5a4.5 4.5 0 1 1-9 0 4.5 4.5 0 0 1 9 0Zm-1 0a3.5 3.5 0 1 1-7 0 3.5 3.5 0 0 1 7 0Zm9.84-6h-2.1l-1.7 2.43c-.35.48-.26 1.17.19 1.53l3.53 2.88c.3.26.36.74.1 1.06l-2.44 3.1h1.85l2.32-3c.37-.49.3-1.2-.17-1.58l-3.56-2.9a.76.76 0 0 1-.1-1.08l2.08-2.44ZM40 24c-1.66 1.04-5.18 4.29-6 9h1.26c.09-.7.4-1.83.95-3H39v3h1v-9Zm-1 5v-2.56A8.33 8.33 0 0 0 36.74 29H39Zm9-5h-1v9h1v-9Zm0-3v1H30.53l.86-1H48Zm-.15 14v-1H28.8l-.86 1h19.9ZM8 35v-1h18.3l-.85 1H8Zm40 1H8v1h40v-1Z" fill="#9D0B0E"/></svg>