<svg width="56" height="56" viewBox="0 0 56 56" xmlns="http://www.w3.org/2000/svg"><path fill="#F0F3FA" d="M0 0h56v56H0z"/><path d="M39.13 32.14A4.27 4.27 0 0 0 36 29.96l5.13-2.24c.58.2 2.17 2 2.9 2.87 1.43 1.75 3.05 1.85 5.98 1.85V37h-1.63c-4.55-.05-8.17-2.87-9.24-4.86Z" fill="url(#a2p4z5g5d)"/><path d="M28 37h3.86c.55 0 1.14-.45 1.14-1V21h3.33c.87.06 2.62.71 2.66 2.57.04 1.86-1.88 2.38-2.99 2.42v4.1c6.3-.04 7.71-4.36 7.78-6.52-.5-5.14-4.92-6.52-7.07-6.57h-6.6c-1.1 0-2.11.9-2.11 2v18Z" fill="url(#b2p4z5g5d)"/><path d="M19.54 32.14a4.2 4.2 0 0 0-3.1-2.18l5.06-2.24c.57.2 2.14 2 2.85 2.87 1.41 1.75 2.73 1.84 3.65 1.7l5 3.64c0 .7-.62 1-1.06 1.07h-3.3c-4.48-.05-8.05-2.87-9.1-4.86Z" fill="url(#c2p4z5g5d)"/><path d="M6 32v5h6.99c.55 0 1.01-.45 1.01-1V21h2.79c.87.06 2.62.71 2.66 2.57.04 1.86-2.34 2.38-3.45 2.42v4.1c6.3-.04 8.17-4.36 8.24-6.52-.5-5.14-4.92-6.52-7.07-6.57H11a2 2 0 0 0-2 2v13H6Z" fill="url(#d2p4z5g5d)"/><defs><linearGradient id="a2p4z5g5d" x1="38.6" y1="28.89" x2="52.07" y2="36.08" gradientUnits="userSpaceOnUse"><stop stop-color="#AB2F1A"/><stop offset="1" stop-color="#AA151B"/></linearGradient><linearGradient id="b2p4z5g5d" x1="28.54" y1="25.84" x2="43.78" y2="25.84" gradientUnits="userSpaceOnUse"><stop stop-color="#F15E23"/><stop offset="1" stop-color="#EF3224"/></linearGradient><linearGradient id="c2p4z5g5d" x1="19.02" y1="28.89" x2="32.37" y2="35.91" gradientUnits="userSpaceOnUse"><stop stop-color="#B7551A"/><stop offset="1" stop-color="#B53F1B"/></linearGradient><linearGradient id="d2p4z5g5d" x1="6" y1="25.84" x2="24.24" y2="25.84" gradientUnits="userSpaceOnUse"><stop stop-color="#F68B20"/><stop offset="1" stop-color="#F36922"/></linearGradient></defs></svg>