<svg xmlns="http://www.w3.org/2000/svg" width="56" height="56" viewBox="0 0 56 56"><path fill="#F0F3FA" d="M0 0h56v56H0z"/><path d="M7.57 20.24c4.2 0 7.62 4.43 7.62 9.88 0 5.44-3.42 9.88-7.62 9.88-.2 0-.38 0-.57-.03 3.93-.37 7.05-4.65 7.05-9.85 0-5.2-3.12-9.48-7.05-9.86.19-.02.37-.02.57-.02Z" fill="#D7B369"/><path d="M7.62 18.22c4.62 0 8.4 4.9 8.4 10.89s-3.78 10.88-8.4 10.88L7 39.97c4.33-.42 7.77-5.14 7.77-10.86 0-5.73-3.44-10.45-7.77-10.86.2-.02.41-.03.62-.03Z" fill="#1B1918"/><path d="M7.69 16c5.1 0 9.25 5.39 9.25 12s-4.16 12-9.25 12c-.24 0-.46-.01-.69-.03 4.78-.46 8.56-5.66 8.56-11.97 0-6.31-3.78-11.51-8.56-11.97.23-.02.45-.03.69-.03Z" fill="#D7B369"/><path d="M49 32H19v-1h30v1Z" fill="#1B1918"/><path d="M19 30h.58v-1.68h.84c.27 0 .46.14.47.65l-.01.11V30h.6v-1.11c0-.58-.16-.92-.53-.96v-.03c.13-.04.27-.09.37-.23.2-.26.2-.74.2-1.12 0-1.18-.3-1.53-1.01-1.53H19V30Zm.57-2.47v-1.68h.88c.44 0 .46.3.46.92 0 .55-.14.76-.5.76h-.84Zm4.72-1.05v-.2c0-1.26-.55-1.28-1.19-1.28-.16 0-.32 0-.49.03-.54.06-.73.51-.73 1.34 0 1.38.42 1.39 1.14 1.47.43.04.77-.09.77.68 0 .61-.16.72-.53.72l-.45-.01c-.35 0-.37-.38-.37-.84h-.56l-.01.2c0 1.36.5 1.41 1.21 1.41.2 0 .4 0 .58-.04.6-.1.7-.67.7-1.52 0-1.54-.74-1.3-1.47-1.39-.32-.03-.42-.17-.42-.67 0-.18.03-.43.13-.53.12-.1.32-.12.47-.12h.16c.37 0 .5.15.5.74h.56ZM29.12 25h-.6l-.68 4.2-.7-4.2h-.69l-.71 4.2h-.02l-.65-4.2h-.59l.81 5h.85l.64-3.8h.01l.62 3.8h.88l.83-5ZM33 25h-.98l-.83 3.7h-.02l-.83-3.7h-.96v5H30v-4.16l.92 4.16h.54l.97-4.19-.02 4.19H33v-5H33Z" fill="#D7B369"/><path d="M34.64 25H34v5h2v-.87h-1.36V25ZM37 25h-.57v.71H37V25Zm0 1.49h-.57V30H37v-3.51Zm.48 0V30H38v-2.05c0-.55.17-.85.55-.85.37 0 .44.21.45.7V30h.55v-2.07c0-.82.26-.83.48-.83.36 0 .4.23.4.72V30H41v-2.34c0-.85-.24-1.2-.81-1.2-.33 0-.6.12-.73.61h-.01c-.08-.52-.41-.62-.71-.62-.31 0-.57.12-.73.55v-.51h-.52ZM42 25h-.49v.71H42V25Zm0 1.49h-.49V30H42v-3.51Zm2 0h-.83v-.78h-.55v.78h-.29v.62h.3v1.87c0 .84.23 1.02.76 1.02.59 0 .76-.36.76-1.2l-.01-.17h-.46v.16c0 .32-.02.57-.27.57s-.25-.2-.25-.5V27.1H44v-.61Zm1.93 2.36v.07c0 .42-.23.48-.46.48-.55 0-.56-.3-.56-1.03h1.56v-.25c0-1.3-.2-1.68-1.07-1.68-.86 0-1.04.49-1.04 1.7 0 1.37.13 1.86 1.1 1.86.52 0 1.02-.07 1.02-1.02v-.13h-.55Zm0-1h-1.02v-.1c.02-.6.12-.7.5-.7.45 0 .52.14.52.8ZM49 25h-.56v1.94c-.17-.45-.4-.5-.72-.5-.74 0-.86.7-.86 1.65 0 1.08.01 1.9.87 1.9.36 0 .56-.08.73-.56V30H49v-5Zm-1.6 3.15v-.06c0-.6.05-1.01.5-1.01.55 0 .55.45.55 1.15 0 .26 0 .68-.1.91-.08.21-.28.22-.43.22-.24 0-.42-.06-.48-.46-.03-.24-.03-.5-.03-.75Z" fill="#1B1918"/></svg>