<svg width="56" height="56" viewBox="0 0 56 56" xmlns="http://www.w3.org/2000/svg"><path fill="#F0F3FA" d="M0 0h56v56H0z"/><path d="M38.51 17c-.62.2-1.24.5-1.85.67-3.37.9-6.22 2.55-8.57 4.95-.06.06-.12.06-.18 0a18.62 18.62 0 0 0-9-5.1c-.6-.15-1.2-.33-1.8-.52h21.4Z" fill="#7CCCBF"/><path d="M17.12 17c.6.2 1.2.37 1.79.51 3.53.88 6.53 2.58 9 5.11.06.06.12.06.18 0 2.35-2.4 5.2-4.05 8.57-4.95.61-.16 1.23-.46 1.85-.67h1.98c.12 0 .22.05.3.14l5.14 6.14c-.13.07-.29.1-.47.07-5.32-.65-9.9.88-13.72 4.6-.1-.07-.2-.24-.3-.5-.1-.23-.18-.4-.25-.52a21.62 21.62 0 0 0-3.02-4.09c-.1-.1-.2-.1-.3 0A20.39 20.39 0 0 0 24.3 28c-4.52-4.45-8.85-3.93-14.14-4.72l5-6.13c.08-.09.18-.14.3-.14h1.66Z" fill="#03A08E"/><path d="M31.74 27.96v.03a15.02 15.02 0 0 0-3.65 5.72c-.04.1-.08.1-.13 0a17.58 17.58 0 0 0-3.67-5.74c.9-1.86 2.1-3.57 3.59-5.13.1-.1.19-.1.29 0a21.61 21.61 0 0 1 3.02 4.09c.07.12.16.3.25.52.1.26.2.43.3.5Z" fill="#007481"/><path d="M10.16 23.27c.62.1 1.23.08 1.83-.04l1.66-.02c4.07.2 7.62 1.8 10.65 4.78a15.89 15.89 0 0 0-1.73 5.81c-.04.35-.15.38-.35.1a11.82 11.82 0 0 0-7.7-5.06 166.4 166.4 0 0 1-4.48-5.3c-.08-.1-.04-.2.12-.27ZM45.93 23.28c.04.06.07.11.07.16s-.02.1-.07.16l-4.19 5.03c-.84-.19-2.12.62-2.8.96a12.82 12.82 0 0 0-4.9 4c-.33.48-.54.43-.62-.15a18.2 18.2 0 0 0-1.68-5.48 15.98 15.98 0 0 1 13.72-4.61c.18.02.34 0 .47-.07Z" fill="#D41B22"/><path d="M24.3 27.99v-.02a17.58 17.58 0 0 1 3.66 5.74c.05.1.09.1.13 0 .78-2.2 2-4.1 3.66-5.72a18.2 18.2 0 0 1 1.67 5.45c.08.58.29.63.63.15 1.19-1.65 2.82-3 4.89-4 .68-.34 1.96-1.15 2.8-.96l-8.17 9.78c.19-1.27.2-2.53.04-3.76-.04-.33-.15-.35-.32-.07a14.83 14.83 0 0 0-2.02 6.55l-2.93 3.54c-.06-.56.03-1.07.26-1.53.05-.1.08-.22.08-.33.03-.58.1-1.15.2-1.72.16-.9.1-2.43-.16-4.62-.04-.3-.12-.6-.23-.9a3.5 3.5 0 0 1-.12-.53 2.14 2.14 0 0 0-.16-.6.7.7 0 0 0-.1-.12c-.11-.1-.2-.08-.24.06a16.6 16.6 0 0 0-.12 9.92.6.6 0 0 1-.04.44l-3.07-3.72c0-1.62-.34-3.14-1.02-4.56l-.97-2.02a.1.1 0 0 0-.06-.05h-.1c-.07 0-.1.04-.11.12l-.06 3.74-7.8-9.4c3.25.64 5.82 2.32 7.7 5.04.2.29.31.26.35-.09.18-1.97.75-3.9 1.73-5.81Z" fill="#A71A2F"/><path d="m28.34 44.67-.17.23c-.08.11-.17.13-.29.05a.6.6 0 0 1-.17-.2.6.6 0 0 0 .04-.45 16.6 16.6 0 0 1 .12-9.92c.05-.14.13-.16.23-.06a.7.7 0 0 1 .1.11c1.7 3.46.54 7.95.14 10.24ZM24.64 41.02l-2.32-2.77.06-3.74c0-.08.04-.12.11-.12h.1a.1.1 0 0 1 .06.05l.97 2.02a10.42 10.42 0 0 1 1.02 4.56ZM33.57 38.41l-2.3 2.72c.2-2.48.88-4.66 2.02-6.55.17-.28.28-.26.32.07.16 1.23.15 2.49-.04 3.76Z" fill="#6B081D"/></svg>