<svg width="56" height="56" viewBox="0 0 56 56" xmlns="http://www.w3.org/2000/svg"><path fill="#F0F3FA" d="M0 0h56v56H0z"/><path d="M32.15 26.28a9.68 9.68 0 0 0-2.6-7.97c-1.71-2-4.17-3.29-6.84-3.6l-.46-.09-2.17 1.9c2.4.2 4.7 1.05 6.64 2.42a8.88 8.88 0 0 1 2.68 3.1c.64 1.2.97 2.55.98 3.9-.08 1.63-.49 3.22-1.2 4.69a15.67 15.67 0 0 0 2.97-4.35Z" fill="#5A5B4B"/><path d="M38.64 44.24 40 42.86c-1.88.07-5.8-4.88-10.49-10.3a17.21 17.21 0 0 0-2.12-2.1c-3.34-2.73-5.54-2.3-5.54-2.3l-1.62 1.35c1.92.11 3.1.5 5.37 2.39a19.4 19.4 0 0 1 2.2 2.16l1.83 2.14c3.39 3.97 7.05 8.31 8.7 8.31l.31-.27Z" fill="#4DAA51"/><path d="M23.33 34.6c.3.3 1.38 1.23 2.12 2.09 4.67 5.42 8.59 10.37 10.48 10.3l1.6-1.63c-1.82-.45-4.47-3.47-8.76-8.48l-1.82-2.13a17.74 17.74 0 0 0-2.08-2.03c-3.2-2.67-5.7-2.35-5.7-2.35l-.1.09s-1.75 1.42-2.07 1.72a8.45 8.45 0 0 1 6.33 2.41Z" fill="#9DC117"/><path d="M23.34 27.3s4.27-.15 5.3-3.86c.78 1.11.82 4.28-.52 6.18-1.21-1.08-2.4-2.19-4.78-2.31Z" fill="#4DAA51"/><path d="M33.18 24.18c.05.44.72-1.94.72-2.33a9.48 9.48 0 0 0-.96-4 9.8 9.8 0 0 0-2.58-3.26A11.8 11.8 0 0 0 25.28 12l-2.08 1.71c2.52.4 4.86 1.53 6.69 3.24a10.88 10.88 0 0 1 3.3 7.23Z" fill="#5A5B4B"/></svg>