<svg width="56" height="56" viewBox="0 0 56 56" xmlns="http://www.w3.org/2000/svg"><path fill="#F0F3FA" d="M0 0h56v56H0z"/><path fill-rule="evenodd" d="M36 21H11a7 7 0 1 0 0 14h6.81L12 28v4h-2v-8H8l.63-1h7.81A2.62 2.62 0 0 1 19 25.58C19 27 17.78 28 16.44 28h-1.09l5.82 7H45a7 7 0 1 0 0-14h-7v5.74l.96-.74h3.7s-.49.55-1.15 1.36c.34.11.47.66.49.91V33h-2v-4.8c0-.4.01-1.2-.8-1.2-.59 0-1.2.5-1.2 1.5V33h-2V21Zm-20.81 6H12v-3h3.19c.74 0 1.35.78 1.35 1.58S15.94 27 15.19 27ZM25 26h-4.28L20 27h1v3.8c.08.73.65 2.2 2.32 2.2 1.07 0 2.27-.49 2.68-.99V33h2v-6h.42l.58-1h-3.42L25 27h1v4.01c-.14.28-.92.6-1.43.6-.81 0-1.5-.59-1.57-.82V27h1.28l.72-1Zm23 0h-3.42L44 27h1v6h2v-6h.42l.58-1Zm-2.33-2H48l-.67 1H45l.67-1ZM35 26h-5.38L29 27h1.5c-.9.55-1.5 1.6-1.5 2.79 0 1.77 1.35 3.21 3 3.21 1.58 0 2.86-1.22 3-3.1a.31.31 0 0 0-.3-.34c-.17 0-.3.13-.35.3a1.73 1.73 0 0 1-1.66 1.23A1.7 1.7 0 0 1 31 29.37c0-.95.74-1.72 1.7-1.72.49 0 .93.2 1.24.53.07.07.15.11.23.11.23 0 .37-.26.24-.45a3.1 3.1 0 0 0-.9-.84h.87l.62-1Z" fill="#00923F"/></svg>