<svg width="56" height="56" viewBox="0 0 56 56" xmlns="http://www.w3.org/2000/svg"><path fill="#F0F3FA" d="M0 0h56v56H0z"/><path d="M13 25h4.44A3.53 3.53 0 0 1 21 28.5c0 1.93-1.6 3.5-3.56 3.5H13v-7ZM34.53 28H43v15H28l6.53-15Z" fill="#FFD400"/><path d="M36.99 26A15.22 15.22 0 0 1 31 18.62V26h5.99ZM28 13H13v10h5.1c1.9 0 3.55 1.22 4.37 3H28V13Zm-8.4 20.74A5.47 5.47 0 0 0 22.98 28H31l-6.22 14-5.18-8.26ZM13 34h4l6 9H13v-9Z" fill="#7ACFDD"/><path d="M33 13h10v12c-5.54-.75-9.86-5.82-10-12Z" fill="#FFD400"/></svg>