<svg xmlns="http://www.w3.org/2000/svg" width="56" height="56"><path fill="#F0F3FA" d="M0 0h56v56H0z"/><path d="M30.83 14.1L35 18.26v2.83l-4.17-4.16-1.92 1.92-1.41-1.42 3.33-3.33z" fill="#A32827"/><path d="M35 22.56l-4.16-4.16-3.34 3.33 1.41 1.42 1.92-1.92L35 25.39v-2.83z" fill="#A32827"/><path d="M25 23.44l3.96 3.96 3.34-3.33-1.41-1.42-1.92 1.92L25 20.61v2.83z" fill="#FDCC02"/><path fill-rule="evenodd" d="M4.37 33.67a8 8 0 002.28.33c1.69 0 3.35-.54 3.35-2.51 0-1.65-1.3-2.06-2.33-2.38-.7-.22-1.27-.4-1.27-.9 0-.66.85-.7 1.36-.7.58 0 1.17.1 1.7.35l.12-1.58A6.45 6.45 0 007.62 26c-1.53 0-3.32.5-3.32 2.34 0 1.62 1.22 2.02 2.24 2.36.74.25 1.36.46 1.36 1.05 0 .61-.6.74-1.25.74-.84 0-1.58-.22-2.1-.5l-.18 1.68zM17 34v-3.52c0-1.74-1.52-2.48-2.97-2.48a4.7 4.7 0 00-2.03.4v1.34a3 3 0 011.6-.43c.71 0 1.39.33 1.4 1.1-.25-.04-.6-.07-.92-.07-1.05 0-3.08.13-3.08 1.87 0 1.23 1.15 1.79 2.27 1.79.81 0 1.28-.24 1.73-.95V34h2zm-4.02-1.93c0-.55.52-.68 1.19-.68.2 0 .41 0 .6.02l.23.01c0 .67-.47 1.27-1.21 1.27-.46 0-.81-.23-.81-.62zM25 34v-8h2v2.6c.42-.38.94-.6 1.5-.6 1.38 0 2.5 1.34 2.5 3s-1.12 3-2.5 3c-.56 0-1.08-.22-1.5-.6v.6h-2zm3-1.5c-.55 0-1-.67-1-1.5s.45-1.5 1-1.5 1 .67 1 1.5-.45 1.5-1 1.5zm6 1.5h-2v-8h2v2.97h.02a2.17 2.17 0 013.98 1.3V34h-2v-3c0-1.3-2-1.35-2 0v3zm11-1.4V34h-2v-.95c-.45.7-.75.95-1.56.95-1.13 0-2.13-.56-2.13-1.8 0-1.73 1.89-1.86 2.94-1.86.31 0 .5.03.74.07H43c-.01-.77-.43-1.1-1.14-1.1a3.9 3.9 0 00-1.86.43V28.4c.7-.28 1.45-.4 2.3-.4 1.44 0 2.7.74 2.7 2.48v2.12zm-2.67-1.21c-.66 0-1.19.13-1.19.68 0 .39.35.62.81.62.74 0 1.05-.6 1.05-1.27l-.24-.02-.43-.01zM49.87 34h-2.24l-2.13-6h2l1.3 4.2L50 28h2l-2.13 6zM22 34v-.6c-.42.38-.94.6-1.5.6-1.38 0-2.5-1.34-2.5-3s1.12-3 2.5-3c.56 0 1.08.22 1.5.6V26h2v8h-2zm-1-1.5c.55 0 1-.67 1-1.5s-.45-1.5-1-1.5-1 .67-1 1.5.45 1.5 1 1.5z" fill="#264174"/></svg>