<svg width="56" height="56" viewBox="0 0 56 56" xmlns="http://www.w3.org/2000/svg"><path fill="#132F6C" d="M0 0h56v56H0z"/><path fill-rule="evenodd" d="M27.96 25.61c-.07 0-.19.04-.2.1l-1.28 8.24c-.01.03-.03.05-.06.05h-1.98a.04.04 0 0 1-.03-.02.05.05 0 0 1-.01-.04l1.3-8.27a.06.06 0 0 0-.04-.05l-.02-.01h-1.8l-.01-.02a.05.05 0 0 1-.01-.04l.42-1.45c0-.02.02-.05.04-.06.03-.02.05-.04.08-.04h1.53c.05 0 .08 0 .08-.06.04-.37.08-.57.14-.87l.04-.19c.32-1.71 1.3-2.66 2.92-2.85a7.78 7.78 0 0 1 2.04.1c.05 0 .07.03.06.08l-.38 1.33c-.01.05-.04.07-.1.07-1.12-.08-2.26-.1-2.5 1.4l-.06.42-.08.52c-.01.05 0 .05.05.05h1.82l.03.01.03.03a.08.08 0 0 1 .02.07l-.42 1.43a.1.1 0 0 1-.03.05.09.09 0 0 1-.05.02h-1.54Zm21.54-3.3c.58-.56.67-1.43.2-1.95-.46-.51-1.3-.47-1.88.09-.57.56-.66 1.44-.2 1.95.46.52 1.3.48 1.88-.09ZM9.65 30c.62.2.88.6.78 1.19-.15.96-1.15 1.13-1.92 1.14a14.3 14.3 0 0 1-3.07-.24.1.1 0 0 0-.04.06L5 33.58c0 .04 0 .06.05.07 1.35.3 2.72.41 4.12.32 2.04-.14 3.48-1.35 3.43-3.6-.02-1.03-.7-1.57-1.57-1.9-.6-.21-1.2-.43-1.84-.64-.52-.17-1-.53-.92-1.16.15-1.12 1.92-1.07 2.7-1.03a17.32 17.32 0 0 1 2.19.23c.01 0 .03-.02.03-.04l.4-1.36c.02-.07 0-.11-.08-.13-1.42-.3-2.83-.4-4.22-.3-1.96.14-3.28 1.47-3.14 3.53.08 1.24 1.17 1.7 2.15 2l1.35.43Zm32.95-3.9c-.09.32-.16.65-.21 1l-1.1 6.8c0 .07-.04.1-.1.1h-1.9a.06.06 0 0 1-.05-.02l-.01-.03v-.03l1.18-7.4c.08-.53.18-1.02.3-1.5.04-.14.14-.24.32-.3a9.97 9.97 0 0 1 4.66-.66.05.05 0 0 1 0 .04l-.43 1.55c0 .02-.02.03-.03.04a5.82 5.82 0 0 0-2.47.23.24.24 0 0 0-.1.07.25.25 0 0 0-.06.1Zm5.15 7.85 1.56-9.88v-.05l-.03-.01h-.02L47.28 24l-.03.01-.02.04-1.56 9.88a.06.06 0 0 0 0 .04h.01l.02.02h.02l1.98.01.04-.01.01-.04Zm-27.34-7.01a5.38 5.38 0 0 1-.03.7 3.15 3.15 0 0 0-6.55 2.96 4.71 4.71 0 0 0-.1 1.55c.11 1.06 1 1.6 1.95 1.75.85.13 1.86.13 3.01.01.95-.1 1.81-.33 2.6-.69a.3.3 0 0 0 .17-.2c.13-.48.24-.98.32-1.49l.72-4.43c.4-2.57-1.38-3.12-3.4-3.1-1.22.01-2.47.14-3.73.38a.1.1 0 0 0-.09.07l-.4 1.36c-.03.09 0 .13.1.11.97-.12 2-.22 3.1-.29.98-.06 2.27-.03 2.33 1.3Zm-2.55 2.23c-.77.1-1.62.32-1.9 1.18-.23.7-.4 1.81.6 2 .84.17 2.09.17 2.95-.2a.16.16 0 0 0 .07-.07.77.77 0 0 0 .1-.23c.16-.9.32-1.82.47-2.78 0-.03 0-.04-.03-.04-.76 0-1.51.04-2.26.14ZM36.5 27.6c.03-.3.03-.59 0-.84-.1-.84-.88-1.12-1.6-1.12a26.85 26.85 0 0 0-3.67.21l-.01-.02v-.03l.39-1.33c0-.02.02-.04.03-.05a16.69 16.69 0 0 1 4.24-.4c1.4.07 2.83.64 2.78 2.36-.01.35-.05.73-.12 1.14l-.59 3.6c-.1.67-.23 1.31-.4 1.94-.02.09-.08.15-.2.2-1.55.66-3.28.82-4.98.72-1.43-.08-2.64-.66-2.57-2.4.08-1.92 1.04-3.3 2.94-3.61a27.2 27.2 0 0 1 3.68-.3c.05 0 .08-.02.08-.07Zm-3.7 4.8c-.53-.07-.9-.41-.91-.97-.01-1.37.54-1.98 1.8-2.2a13.26 13.26 0 0 1 2.54-.18.04.04 0 0 1 .01.04c-.13.93-.29 1.86-.48 2.8-.04.2-.15.3-.33.35-.86.23-1.74.28-2.63.16Z" fill="#fff"/></svg>