<svg width="56" height="56" viewBox="0 0 56 56" xmlns="http://www.w3.org/2000/svg"><path fill="#F0F3FA" d="M0 0h56v56H0z"/><path d="m29.86 16.53-.07-1.5a.09.09 0 0 1 .08-.08c.26-.02.65.25.87.4.1.05.14.13.14.24a23.27 23.27 0 0 1 0 1.82.2.2 0 0 0 .04.07c.28.27.6.46.9.68a.13.13 0 0 1-.04.23c-.84.2-1.6.94-2.13 1.59-.77.92-1.37 1.88-1.8 2.86-.2.44-.3.9-.32 1.36a.12.12 0 0 1-.2.08c-.3-.25-.6-.5-.93-.75l-2.66-1.98c-.3-.22-.43-.59-.46-.95a5.38 5.38 0 0 1 1.65-4l.58-.53a.4.4 0 0 0 .13-.32 2449.08 2449.08 0 0 1 0-2.72.06.06 0 0 1 .04-.03h.03l.92.39c.07.03.1.08.1.16-.02 1.87-.02 3.8-.01 5.77 0 .43.1 1-.46 1.14-.24.06-.25.15-.02.25.12.05.26.06.43.03.6-.11.74-.5.74-1.03a1318.33 1318.33 0 0 1 .01-4.31.2.2 0 0 1 .26-.18c.24.06.47.18.68.35a102.35 102.35 0 0 0 1.4 1.05.1.1 0 0 0 .1-.1Z" fill="#C83A2C"/><path d="M30.38 20.02c.47-.48 1.18-1.1 1.86-1.1.65 0 .56.77.41 1.21-.3.92-.86 1.76-1.4 2.55-.58.84-1.25 1.58-2.01 2.23-.12.1-.12.2-.01.3.45.45.72 1 .83 1.66.09.56-.07 1.04-.46 1.45-.24.25-.45.02-.58-.18a.97.97 0 0 1-.18-.56c0-.4.3-.68.3-1.07 0-.64-.6-1.24-1.02-1.73-.15-.17-.15-.42-.09-.63a9.48 9.48 0 0 1 2.35-4.13Z" fill="#5E5D5B"/><path d="M5 27.64c.08.45.43.7.84.82.5.15.99.3 1.48.47.67.22 1.1.61 1.32 1.18.4 1.1-.22 2.53-1.43 2.8a3.1 3.1 0 0 1-1.58-.02c-1-.31-1.55-1.03-1.63-2.16 0-.04.01-.1.05-.13a.2.2 0 0 1 .12-.07l.36-.03c.12-.01.2.04.22.16.14.82.63 1.3 1.46 1.47a1.7 1.7 0 0 0 1.4-.36c.51-.48.55-1.25-.05-1.69a1.87 1.87 0 0 0-.57-.28c-.54-.16-1.04-.32-1.51-.49A1.76 1.76 0 0 1 4.2 27.7c-.13-1.62 1.3-2.34 2.74-2.05.93.18 1.5.91 1.65 1.81.03.17-.05.26-.22.29-.14.02-.28.02-.42.02-.12 0-.18-.07-.19-.18-.06-1-1.02-1.32-1.92-1.13-.25.06-.47.2-.66.4a.92.92 0 0 0-.19.8Z" fill="#AD2B1F"/><path d="M28.57 31.73c.03.06.08.1.15.1.43.02.89.02 1.38 0a1.76 1.76 0 0 0 1.77-1.49c.14-.78.13-1.5-.03-2.15a1.65 1.65 0 0 0-1.09-1.2.4.4 0 0 1-.24-.3 5.32 5.32 0 0 0-.3-.94l.01-.04.04-.03a.1.1 0 0 1 .04 0c.93.04 1.74.27 2.38.99.4.45.65.98.75 1.59.1.57.1 1.18.05 1.84-.12 1.2-.88 2.44-2.15 2.74-.37.09-.77.15-1.2.16H28.2c-.73 0-1.2-.12-1.2-.93v-5.5c0-.54.3-.84.83-.88.3-.02.44.29.56.5.1.17.11.35.01.53-.21.37-.35.8-.22 1.2.09.29.39.56.38.85 0 .93-.02 1.82-.03 2.69 0 .1.01.18.04.27Z" fill="#5E5D5B"/><path d="M24.37 28.2c0 .16.05.18.16.05l.3-.42c.24-.38.7-.27 1.05-.12.17.08.23.21.18.4l-.12.38c-.05.18-.16.23-.33.13-.79-.46-1.13.64-1.14 1.22-.02.94-.02 1.92.01 2.94 0 .15-.07.22-.22.22h-.33c-.15 0-.22-.08-.22-.22V27.9c0-.14.06-.21.2-.22l.24-.02c.15-.02.22.05.22.2v.33ZM17.3 27.78a.68.68 0 0 0-.05.26c0 .23-.07.26-.21.08-.27-.33-.54-.54-.98-.54-1.67.03-2.02 1.9-1.92 3.18.08.98.61 2.12 1.72 2.23.58.05.83-.18 1.19-.51l.04-.04c.12-.11.17-.09.16.08-.08.68-.1 1.5-.1 2.43.02.66-.3 1.24-1 1.31-.57.07-.94-.12-1.1-.56-.12-.3-.37-.5-.7-.38a.15.15 0 0 0-.1.15c.04.78.5 1.36 1.28 1.49.78.13 1.47-.03 1.98-.66.27-.35.35-.9.36-1.31.04-1.17.08-2.37.08-3.52v-3.65a.1.1 0 0 0-.06-.1.87.87 0 0 0-.46-.04.16.16 0 0 0-.12.1Zm-1.23 4.5c-.68 0-1.24-.88-1.24-1.98s.54-1.99 1.22-2c.67 0 1.23.89 1.23 1.99.01 1.1-.54 1.99-1.21 1.99Z" fill="#AD2B1F"/><path fill-rule="evenodd" d="M36.3 31.75a1.4 1.4 0 0 1-.46-1.06c0-.06.03-.08.08-.08 1.12.04 2.13.04 3.03-.01a.66.66 0 0 0 .65-.67c0-.7-.24-1.27-.74-1.74a2.64 2.64 0 0 0-2.13-.6c-1.47.15-2.28 1.28-2.3 2.68 0 1.35.77 2.51 2.17 2.7 1.13.14 2.43-.1 2.91-1.2.06-.14.04-.28-.06-.41-.26-.34-.53-.18-.81.04-.3.25-.53.42-.67.5-.54.34-1.23.31-1.68-.15Zm-.44-1.87.02.01 2.4-.02h.02v-.07c0-.34-.13-.67-.36-.9a1.18 1.18 0 0 0-1.74.01 1.29 1.29 0 0 0-.35.9v.05l.01.02ZM41.94 30.62h.02c.78.02 1.53.02 2.27.01.29 0 .57-.02.86-.05.34-.04.54-.21.59-.52.14-.9-.5-1.9-1.36-2.27a3.02 3.02 0 0 0-1.68-.17c-2.88.41-2.86 5.07.14 5.36.92.08 1.85-.04 2.5-.7.17-.18.47-.61.3-.86-.22-.33-.56-.32-.83-.07-.46.42-1 .87-1.65.77a1.43 1.43 0 0 1-1.19-1.47.05.05 0 0 1 .03-.03Zm0-.75.04.02h2.34l.04-.02a.05.05 0 0 0 .01-.04c0-.35-.13-.68-.36-.93a1.16 1.16 0 0 0-1.73 0 1.3 1.3 0 0 0-.36.93c0 .02 0 .04.02.04Z" fill="#5E5D5B"/><path d="m47.96 32.3.03.02.21.18c.43.36.78.65 1.43.65 1.17.01 1.98-.72 2.25-1.84.27-1.1.13-2.6-.93-3.32a2.02 2.02 0 0 0-2.15-.19c-.2.1-.37.26-.53.42l-.18.16a.07.07 0 0 1-.07.02.07.07 0 0 1-.05-.06l-.06-.3c-.07-.3-.43-.52-.7-.46-.46.1-.53.6-.53 1v7.55c0 .42.16.95.7.86.44-.07.57-.4.57-.79.02-1.04.01-2.1 0-3.15a7.09 7.09 0 0 0-.04-.71.05.05 0 0 1 .05-.03Zm1.37-.2c-.73-.01-1.32-.79-1.32-1.75s.6-1.73 1.34-1.73c.73 0 1.32.79 1.31 1.75 0 .95-.6 1.73-1.33 1.72ZM29.35 29.8a.12.12 0 0 1-.11-.06.12.12 0 0 1-.01-.05l-.01-.2c0-.13.01-.25.06-.34.04-.1.1-.15.18-.16h.01c.04 0 .07.01.1.04.04.02.07.05.1.1l.06.15.03.19v.2a.12.12 0 0 1-.1.12l-.3.01ZM30.82 30.44c.14-.07.29-.12.45-.15a.18.18 0 0 1 .14.04.17.17 0 0 1 .06.12c.02.38-.32.72-.61.9-.18.1-.4.14-.65.14a9.99 9.99 0 0 0-1.06.02.22.22 0 0 1-.13-.11.21.21 0 0 1-.02-.09v-.8a.07.07 0 0 1 .03-.05.07.07 0 0 1 .06-.02c.2.02.38.06.58-.03.17-.09.4-.1.57-.03.19.08.38.15.58.06Z" fill="#5E5D5B"/><path fill-rule="evenodd" d="m12.52 32.3.02.03.15.38c.05.14.15.2.3.2h.32c.12 0 .16-.05.13-.16a3.3 3.3 0 0 1-.15-.63c-.04-.92-.06-1.83-.06-2.7 0-.5-.04-.85-.12-1.04-.32-.7-1.02-.82-1.74-.8-.92.02-1.32.46-1.67 1.2-.2.43.22.59.54.5a.15.15 0 0 0 .11-.08l.04-.1c.13-.3.24-.58.6-.7.84-.28 1.7.15 1.54 1.1-.01.04-.03.08-.06.11a.22.22 0 0 1-.1.07c-.47.1-.93.2-1.37.27-.27.04-.5.11-.7.21-1.28.64-1 2.74.51 2.84a1.92 1.92 0 0 0 1.65-.7.06.06 0 0 1 .06 0Zm-.08-2c-.44.2-.95.3-1.47.4-1.3.24-.66 2.19.77 1.48.71-.34.8-1.12.8-1.83a.07.07 0 0 0-.03-.05.07.07 0 0 0-.07 0ZM21.73 32.36a.1.1 0 0 1 .07-.03c.06 0 .1.02.12.09l.07.3c.01.04.04.07.07.1.04.03.08.05.13.05l.47.04c.1.01.13-.03.11-.12l-.04-.19c-.05-.22-.1-.44-.1-.67a39.86 39.86 0 0 1-.06-2.65v-.25c-.01-.15-.01-.29-.05-.43-.25-.97-1.2-1.1-2.1-.99-.65.07-1.14.48-1.44 1.23-.1.22-.02.37.23.42l.1.02c.23.06.38-.03.44-.25.12-.43.44-.67.95-.71.7-.06 1.1.26 1.17.97.05.35-.21.4-.52.46l-.14.02-.92.2c-.66.13-1.16.34-1.38.98-.27.8 0 1.74.9 1.98.72.19 1.36 0 1.92-.57Zm-2.12-1c-.04.33.06.59.3.77.58.44 1.54.02 1.78-.59a3.06 3.06 0 0 0 .17-1.2.07.07 0 0 0-.08-.04c-.44.16-.88.27-1.32.36-.43.08-.8.26-.85.7Z" fill="#AD2B1F"/></svg>