<svg width="56" height="56" viewBox="0 0 56 56" xmlns="http://www.w3.org/2000/svg"><path fill="#F0F3FA" d="M0 0h56v56H0z"/><path fill-rule="evenodd" d="M21.13 32.33c.06.03.1.08.1.14 0 .02 0 .03-.03.03l-.26-.02h-3.58c-.34 0-.61.02-.82.08-.44.1-.54.64-.54 1.01v10.44c0 .3.17.9.56.92.07 0 .13.02.19.04.07.01.15.03.23.03h10.85c1.33 0 2.73-.31 4.01-.65 1.49-.4 2.85-1.04 4.09-1.93a9.73 9.73 0 0 0 3.76-5.91 15.5 15.5 0 0 0 .17-5.23 9.95 9.95 0 0 0-5-7.64.2.2 0 0 1-.09-.1 4374.36 4374.36 0 0 0 3.97-.03h.1c.44.01.9.02 1.08-.44.05-.12.08-.26.08-.4V11.8c0-.32-.15-.66-.51-.72a6.09 6.09 0 0 0-1.02-.08H28.86c-.87.01-1.74.08-2.61.22-1.09.16-2.14.43-3.16.8-.94.35-1.85.81-2.71 1.4a9.5 9.5 0 0 0-2.14 2 10.1 10.1 0 0 0-2.06 5.07c-.04.2-.05.42-.07.64l-.03.46c-.05.4-.08.8-.08 1.2l.02.3.03.3c0 .14.01.28.04.43.03.15.04.3.04.45a13.47 13.47 0 0 0 .54 2.64 9.64 9.64 0 0 0 4.46 5.42Zm1.08-17.63a8.24 8.24 0 0 0-3.62 4.4c-.26.75-.43 1.49-.5 2.2-.1.87-.12 1.75-.05 2.64a9.07 9.07 0 0 0 2.28 5.56c.26.29.53.54.82.77a20.53 20.53 0 0 0 1 .72c.02 0 .03-.01.02-.04-.14-.38-.26-.8-.36-1.25-.06-.27-.09-.54-.09-.81l.01-1.57c.01-.42.12-.93.33-1.53.22-.62.56-1.2 1.02-1.72 1.14-1.3 2.8-1.84 4.52-2.04.3-.03.64-.03 1-.03h9.37c.03 0 .04-.03.04-.06V13l-.03-.01h-9.66c-.22 0-.45.02-.68.05l-.68.09c-1.73.19-3.3.7-4.74 1.56Zm5.8 17.91a4.68 4.68 0 0 0 4.76-4.6c0-2.55-2.13-4.61-4.75-4.61a4.68 4.68 0 0 0-4.75 4.6c0 2.55 2.12 4.61 4.75 4.61Zm6.2-3.24a5.28 5.28 0 0 1-2.89 3.79c-.93.47-2.23.83-3.29.84h-10l-.02.01-.01.03v8.91l.01.04h10.04c.8 0 1.67-.19 2.44-.37 1.53-.35 2.86-.93 3.97-1.74a8.01 8.01 0 0 0 2.95-3.9A9.7 9.7 0 0 0 38 34.2l.01-2.03c0-.19-.02-.37-.05-.55l-.08-.46a8.72 8.72 0 0 0-2.85-5.33c-.34-.29-.69-.55-1.04-.8-.09-.06-.12-.04-.1.07.02.1.06.2.1.3l.08.23c.35 1.23.39 2.5.15 3.74Z" fill="#B43C29"/></svg>