<svg width="56" height="56" viewBox="0 0 56 56" xmlns="http://www.w3.org/2000/svg"><path fill="#F0F3FA" d="M0 0h56v56H0z"/><path fill-rule="evenodd" d="M28 45a17 17 0 1 0 0-34 17 17 0 0 0 0 34Zm0-3a15 15 0 1 0 0-30 15 15 0 0 0 0 30Z" fill="#71E700"/><path fill-rule="evenodd" d="M28 42a15 15 0 1 0 0-30 15 15 0 0 0 0 30Zm1.5-5a11.5 11.5 0 1 0 0-23 11.5 11.5 0 0 0 0 23Z" fill="url(#awmd1mjtv)"/><path fill-rule="evenodd" d="M27.5 32a8.5 8.5 0 1 0 0-17 8.5 8.5 0 0 0 0 17Zm-1-1a7.5 7.5 0 1 0 0-15 7.5 7.5 0 0 0 0 15Z" fill="#F69300"/><path fill-rule="evenodd" d="M26.5 31a7.5 7.5 0 1 0 0-15 7.5 7.5 0 0 0 0 15Zm.5-2a6 6 0 1 0 0-12 6 6 0 0 0 0 12Z" fill="url(#bwmd1mjtv)"/><defs><linearGradient id="awmd1mjtv" x1="17.5" y1="18.5" x2="37.5" y2="37.5" gradientUnits="userSpaceOnUse"><stop stop-color="#7CFF00"/><stop offset=".61" stop-color="#E7FE00"/><stop offset="1" stop-color="#9EFE03"/></linearGradient><linearGradient id="bwmd1mjtv" x1="22" y1="18.5" x2="31.5" y2="29" gradientUnits="userSpaceOnUse"><stop stop-color="#FDC23F"/><stop offset=".45" stop-color="#FBE06A"/><stop offset=".98" stop-color="#FBBC40"/></linearGradient></defs></svg>