<svg width="56" height="56" viewBox="0 0 56 56" xmlns="http://www.w3.org/2000/svg"><path fill="#F0F3FA" d="M0 0h56v56H0z"/><path d="M13.38 21.48c2.3-.8 7.75-1.98 14.63-1.98a55.6 55.6 0 0 1 14.59 1.95 16 16 0 0 0-29.22.03Z" fill="url(#aqmiem0yx)"/><path d="M42.8 34.1a16 16 0 0 1-29.6-.03c2.18.8 7.73 2.43 14.8 2.43 6.07 0 11.64-1.46 14.8-2.4Z" fill="url(#bqmiem0yx)"/><path d="M43.26 32.81a16 16 0 0 0-.02-9.68A98.01 98.01 0 0 0 28.31 22c-5.84 0-11.23.5-15.59 1.23a16 16 0 0 0-.02 9.47A95.8 95.8 0 0 0 28.31 34c5.56 0 10.72-.52 14.95-1.19Z" fill="url(#cqmiem0yx)"/><path d="M12.87 22.8c.1-.31.22-.61.34-.91C18.27 20.34 24.6 20 27.75 20c2.55 0 5.94.08 7.25.22l-1.46 1.53c-.7-.05-2.8-.14-5.44-.14-7.2 0-13.13.79-15.23 1.18Z" fill="url(#dqmiem0yx)"/><path d="M43.2 33c-.1.32-.22.63-.34.94A57.36 57.36 0 0 1 28.58 36c-2.55 0-5.82-.34-7.13-.47l1.33-1.16c.72.04 2.8.13 5.44.13 6.94 0 12.68-1.09 14.98-1.5Z" fill="url(#eqmiem0yx)"/><defs><linearGradient id="aqmiem0yx" x1="33.3" y1="26.06" x2="39.44" y2="16.74" gradientUnits="userSpaceOnUse"><stop offset=".51" stop-color="#5E9FD5"/><stop offset=".84" stop-color="#6678BA"/></linearGradient><linearGradient id="bqmiem0yx" x1="12.36" y1="34.56" x2="39.08" y2="46.01" gradientUnits="userSpaceOnUse"><stop stop-color="#31529D"/><stop offset=".19" stop-color="#2373B8"/><stop offset="1" stop-color="#26538E"/></linearGradient><linearGradient id="cqmiem0yx" x1="42.09" y1="33.87" x2="13.91" y2="22.07" gradientUnits="userSpaceOnUse"><stop offset=".17" stop-color="#BA6D29"/><stop offset=".49" stop-color="#F19B24"/><stop offset="1" stop-color="#F58B25"/></linearGradient><linearGradient id="dqmiem0yx" x1="12.87" y1="21.3" x2="34.87" y2="21.3" gradientUnits="userSpaceOnUse"><stop stop-color="#22516B"/><stop offset="1" stop-color="#076581"/></linearGradient><linearGradient id="eqmiem0yx" x1="21.45" y1="34.47" x2="43.2" y2="34.47" gradientUnits="userSpaceOnUse"><stop stop-color="#0C638B"/><stop offset="1" stop-color="#285072"/></linearGradient></defs></svg>