<svg width="56" height="56" viewBox="0 0 56 56" xmlns="http://www.w3.org/2000/svg"><path fill="#F0F3FA" d="M0 0h56v56H0z"/><path d="M23.9 35.96c.43.08.95.22 1.55.43.03.01.05.03.07.06.02.04 0 .05-.04.05l-1.2-.09a1.17 1.17 0 0 0-.39-.45Z" fill="#8D404F"/><circle cx="29.5" cy="32.5" r="5.5" fill="#FF7D00"/><path d="M26.89 11h-.13l-.68.06c-.83.06-1.44.12-1.85.19-.67.1-1.3.26-1.87.49a12.3 12.3 0 0 0-4.6 3c-.45.47-.8.87-1.07 1.2A11.55 11.55 0 0 0 14 23.02c0 .27.01.9.06 1.85.25 2.8 1.36 5.28 3.33 7.44.16.08.5.04 1.03-.11a13.23 13.23 0 0 1-2.9-10.6 9.4 9.4 0 0 1 1.9-4.38 15.61 15.61 0 0 1 6.11-4.5c.74-.29 1.79-.48 3.16-.58.04 0 .16-.01.2-.03V11Z" fill="#8D404F"/><path d="M26.89 12.72h-.12a8.84 8.84 0 0 0-2.6.3c-2.67.77-4.8 2.31-6.37 4.63-.5.74-.92 1.6-1.24 2.6-.37 1.13-.57 2.1-.59 2.87a12.2 12.2 0 0 0 .84 4.57 9.84 9.84 0 0 0 3.58 4.47l.17.04c.03.01.05.03.06.06v.1a.12.12 0 0 0 0-.07.54.54 0 0 0-.18-.55 8.25 8.25 0 0 1-2-2.45 10.8 10.8 0 0 1-1.23-5.22l.01-1.25c0-1.01.25-2.04.77-3.1.46-.96 1.1-1.87 1.91-2.73a11.6 11.6 0 0 1 3.4-2.36 9.6 9.6 0 0 1 3.59-.87v-1.04Z" fill="#8D404F"/><path d="M26.89 14.22c-.55.08-1.15.18-1.7.3a8.3 8.3 0 0 0-4.07 2.18 9.6 9.6 0 0 0-3.15 8.06c.12 1.48.53 2.71 1.23 3.68 1.2 1.68 2.91 2.9 5.12 3.67a.5.5 0 0 1 0-.26 1.7 1.7 0 0 1-.35-.14c-.69-.38-1.32-.79-1.9-1.22-1.17-.87-2-2-2.51-3.4a10.33 10.33 0 0 1-.52-4.2c.1-1.41.54-2.66 1.33-3.75a8.9 8.9 0 0 1 6.52-3.76v-1.16Z" fill="#8D404F"/><path d="M26.89 16.24c-5.22.26-7.5 4.78-7.03 8.36a6.46 6.46 0 0 0 2.02 3.9l.03.03c.8.71 1.58 1.4 2.63 1.73-.03-.11.06-.14.26-.08-1.27-.4-2.2-1.46-2.93-2.52a4.25 4.25 0 0 1-.7-1.59c-.17-.87-.28-1.76-.31-2.67.13-2.66 1.46-4.5 3.98-5.54.25-.1.93-.22 2.03-.36l.02-1.26Z" fill="#8D404F"/><path d="m26.88 17.96-.06.01c-1.56.3-2.8.88-3.72 1.76a4.71 4.71 0 0 0-1.53 3.53 4.51 4.51 0 0 0 .9 2.92c.53.71 1.33 1.4 2.4 2.04.14.09.3.15.45.2.13.02.14 0 .03-.08-.58-.41-1.15-.93-1.7-1.56a3.74 3.74 0 0 1-.83-1.71 8.54 8.54 0 0 1-.16-1.94 3.74 3.74 0 0 1 1.63-3.05 5.65 5.65 0 0 1 2.6-.94l-.01-1.18Z" fill="#8D404F"/><path d="M21.3 33h1.78c.72 2.8 2.63 5.82 5.95 5.9a8.59 8.59 0 0 0 2.61-.24 7.31 7.31 0 0 0 3.38-2.3 6.44 6.44 0 0 0 1.4-3.71 5.78 5.78 0 0 0-.87-3.4 6.46 6.46 0 0 0-3.42-2.8 8.8 8.8 0 0 0-2.37-.4c-2.44-.11-4.12-.33-4.02-3.18.01-.3.11-.63.3-1 .78-1.53 2-1.8 3.68-1.86 4.34-.15 7.99 1.78 10.64 5a11.59 11.59 0 0 1 2.5 9.07 10.82 10.82 0 0 1-1.92 5.11 13.62 13.62 0 0 1-5.35 4.58 13.9 13.9 0 0 1-12.67-.64 13.73 13.73 0 0 1-2.55-1.96c-.78-.77-1.44-1.6-1.98-2.5-.55-.92-.96-1.89-1.22-2.89-.18-.68-.32-1.84-.42-2.78h1.63c.2 2.4 1.07 4.88 2.6 6.6.28.33.78.78 1.5 1.35 5.24 4.25 13.6 3.11 17.2-2.67.93-1.5 1.49-3.27 1.67-5.33 0-.07 0-.14-.04-.21-.14-.33-.3-.43-.52-.29-.06.04-.1.1-.1.17a10.96 10.96 0 0 1-2.04 6c-3.21 4.34-10.04 5.66-14.66 2.6-.51-.35-1.07-.8-1.68-1.35a10.22 10.22 0 0 1-2.13-2.67 12.96 12.96 0 0 1-1.11-4.2h1.48a9.64 9.64 0 0 0 2.13 5.1c3.03 3.35 8.92 4.34 12.68 1.47a9.98 9.98 0 0 0 3.98-6.78c.02-.2-.07-.31-.28-.33h-.09a.27.27 0 0 0-.2.05c-.06.05-.1.1-.1.18a8.88 8.88 0 0 1-3.75 6.34 7.31 7.31 0 0 1-2.73 1.3c-.85.2-1.89.27-3.1.22a7.24 7.24 0 0 1-2.8-.7 9.52 9.52 0 0 1-5-6.85Z" fill="#0557BA"/></svg>