<svg width="56" height="56" viewBox="0 0 56 56" xmlns="http://www.w3.org/2000/svg"><path fill="#F0F3FA" d="M0 0h56v56H0z"/><path d="M27.98 20.37c.94 0 1.7-.75 1.7-1.68a1.7 1.7 0 0 0-1.7-1.69c-.95 0-1.71.75-1.71 1.69 0 .93.76 1.68 1.7 1.68ZM24.57 19.74c.59 0 1.07-.47 1.07-1.05 0-.59-.48-1.06-1.07-1.06a1.06 1.06 0 1 0 0 2.1ZM31.39 19.73c.59 0 1.06-.47 1.06-1.05 0-.58-.47-1.05-1.06-1.05-.59 0-1.07.47-1.07 1.05 0 .58.48 1.05 1.07 1.05Z" fill="#0B8FC9"/><path d="M51.81 21.26H4.13a.13.13 0 0 0-.13.13v.08c0 .07.06.13.13.13H51.8c.07 0 .13-.06.13-.13v-.08a.13.13 0 0 0-.13-.13Z" fill="#1B1719"/><path d="M9.2 30.82a2.25 2.25 0 0 0-.86-1.73c-1.38-1.18-3.16-2.3-2.8-4.35.36-1.93 2.64-1.93 4.2-1.53.1.03.14.09.13.18-.08.44-.08.9-.02 1.39 0 .03-.01.05-.05.06h-.06c-.04 0-.07-.01-.07-.05-.05-.44-.17-.89-.6-1.12-1.18-.61-3.1-.12-2.78 1.52.09.43.35.84.78 1.22l1.85 1.58c.84.7 1.2 1.6 1.1 2.65-.22 2.26-2.67 2.73-4.52 2.1-.25-.08-.37-.25-.37-.5a20.01 20.01 0 0 1 .1-1.6l.06.01c.06 0 .08.03.08.09-.02 1.12.6 1.73 1.84 1.83 1.08.09 2-.7 1.98-1.75ZM31.16 25.73c-.01-.2-.07-.2-.15-.03l-3.34 7.21a.11.11 0 0 1-.09.07.11.11 0 0 1-.1-.04c-.1-.1-.17-.22-.23-.35a156.9 156.9 0 0 1-3.21-6.77c-.09-.2-.14-.19-.16.02l-.52 6.23c-.05.56.24.84.87.84.02 0 .03 0 .02.02l-.02.06H21.7c-.02 0-.03 0-.03-.02V32.88a.03.03 0 0 1 .02 0c.55.03.85-.22.9-.74l.95-8.73c.05-.46.17-.48.37-.07l3.8 7.94a.08.08 0 0 0 .08.05.08.08 0 0 0 .07-.05l3.68-8.03c.16-.35.26-.33.3.05l.91 8.36c.09.84.58 1.24 1.48 1.2.03 0 .05.02.05.05v.07l-.01.02c-.85 0-1.67-.02-2.48-.06-.1 0-.14-.06-.1-.15l.04-.08c.03-.1.05-.19.04-.28l-.62-6.7Z" fill="#7C7E7E"/><path d="M38.15 27.22h5.73a.12.12 0 0 0 .1-.08l.02-.04v-2.96c.01-.67-.28-1.05-1.02-.96-.06 0-.08-.02-.07-.08v-.06l.03-.01h2.86c.1 0 .12.03.05.1a.16.16 0 0 1-.15.06c-.08 0-.16 0-.24.03-.2.06-.46.33-.46.55 0 0-.02 4.98 0 7.48 0 .73-.02 1.73 1.1 1.55l.06.01c.02.02.04.04.04.06l.02.07a.05.05 0 0 1-.01.04.04.04 0 0 1-.04.01 19.65 19.65 0 0 0-3.03 0l-.01-.02V32.88c0-.05.02-.07.07-.06.8.1.8-.92.8-1.43v-3.62c0-.03-.02-.06-.04-.08a.11.11 0 0 0-.08-.04h-5.73c-.08 0-.15.04-.15.12v3.67c.03.82.05 1.52 1.16 1.37.08-.02.1.02.07.1l-.02.06c-.01.02-.03.03-.05.03-.98-.08-1.96-.08-2.95-.01-.05 0-.07-.02-.07-.07v-.08h.01c.53 0 .84-.29.85-.84v-8.02c0-.61-.36-.89-1.03-.82-.03 0-.05 0-.05-.04v-.06a.06.06 0 0 1 .02-.04l.02-.01h.02a25.53 25.53 0 0 0 2.92.01v.06c0 .04-.02.07-.07.07-.4 0-.83.19-.83.63v3.29c0 .1.05.15.15.15ZM51 24.24v7.68c.02.7.26 1 .93.9.04-.01.06 0 .06.05l.01.08c0 .03-.02.05-.05.05a17.7 17.7 0 0 0-2.84 0c-.05 0-.07-.02-.07-.08v-.07l.02-.01c.5 0 .93-.27.94-.8V23.9c0-.54-.42-.8-.95-.76-.03 0-.05-.01-.05-.05v-.06c0-.02.01-.03.03-.03l2.62-.01c.03 0 .04.01.04.04v.07l-.01.02c-.69.05-.67.52-.68 1.11Z" fill="#254387"/><path fill-rule="evenodd" d="M14.3 29.13h2.65c.1 0 .18.04.21.14a191.5 191.5 0 0 1 1.2 3.17c.06.13.04.24-.06.34-.12.1-.1.16.06.16l2.33.04c.02 0 .03 0 .03-.03v-.06c0-.06-.04-.09-.1-.08-.98.13-1.47-1.22-1.78-2.07l-.1-.27-2.8-7.35c-.05-.14-.13-.16-.24-.05a5099.52 5099.52 0 0 1-3.18 8.81c-.22.61-.65.93-1.3.94-.06 0-.1.03-.1.08l.01.07a.04.04 0 0 0 .04.03c.87-.08 1.73-.09 2.57-.02.13.01.15-.03.06-.12a.2.2 0 0 0-.19-.07.29.29 0 0 1-.2-.03c-.23-.13-.31-.33-.23-.6.3-.98.61-1.95.96-2.92a.17.17 0 0 1 .16-.11Zm1.22-4.2-1.17 3.66a.07.07 0 0 0 .08.1l2.42-.03a.08.08 0 0 0 .07-.06v-.04l-1.25-3.63a.08.08 0 0 0-.15 0Z" fill="#7C7E7E"/><path d="M10.58 34.15H4.12a.12.12 0 0 0-.12.12v.09c0 .06.05.12.12.12h6.46c.07 0 .12-.06.12-.12v-.1a.12.12 0 0 0-.12-.11ZM51.83 34.14h-6.27a.11.11 0 0 0-.1.11v.13c0 .06.04.1.1.1h6.27c.06 0 .1-.04.1-.1v-.13c0-.06-.04-.1-.1-.1Z" fill="#1B1719"/><path fill="#1B1719" fill-opacity=".6" d="M11 34h34v1H11z"/></svg>