<svg width="56" height="56" viewBox="0 0 56 56" xmlns="http://www.w3.org/2000/svg"><path fill="#F0F3FA" d="M0 0h56v56H0z"/><path d="M40.55 25.23a.24.24 0 0 1-.12.06c-.06.02-.1.05-.1.11 0 .08.01.14.04.18.39.61.41 1.23.08 1.86-.95 1.75-2.92 3.35-4.51 4.4-4.4 2.88-14.88 8.99-21.44 6.89 3.07.12 6.4-.97 9.24-2.05a36.91 36.91 0 0 0 8.48-4.54 17.74 17.74 0 0 0 2.72-2.5c.44-.48.81-1.06 1.1-1.73 1.2-2.75-6.16-1.4-6.8-1.3-.67.11-1.36.34-2.02.4-.47.03-.5-.04-.06-.23 2.72-1.2 5.6-2 8.63-2.4 1.1-.13 2.1-.14 2.98 0 .64.09 1.23.37 1.78.85Z" fill="#54B6EC"/><path d="m40.55 25.23.01.03a9.72 9.72 0 0 1 2.37 4.62c1.06 4.87-3.19 9-7.18 10.89-2.7 1.28-5.7 2-8.99 2.2-3.18.18-6.38-.4-9.62-1.72a14.78 14.78 0 0 1-3.43-2.11c-.1-.07-.17-.16-.24-.26-.2-.31-.13-.4.22-.29 6.06 1.73 17.4-3.58 22.25-6.75 1.6-1.05 3.56-2.65 4.5-4.4.34-.63.32-1.25-.07-1.86a.32.32 0 0 1-.04-.18c0-.06.04-.1.1-.1.04-.01.08-.03.12-.07Z" fill="#325189"/><path d="M13.92 30.77a.3.3 0 0 1 .13-.06c.07-.02.11-.05.11-.11a.29.29 0 0 0-.04-.18c-.44-.61-.47-1.23-.09-1.86 1.08-1.75 3.33-3.35 5.15-4.4 5.03-2.88 17.01-8.99 24.52-6.89-3.51-.12-7.33.97-10.57 2.05a44.46 44.46 0 0 0-9.69 4.54 19.57 19.57 0 0 0-3.11 2.5 6.12 6.12 0 0 0-1.27 1.73c-1.36 2.75 7.05 1.4 7.77 1.3.78-.1 1.57-.34 2.32-.4.54-.03.57.04.07.23-3.1 1.2-6.4 2-9.86 2.4-1.27.13-2.4.14-3.42 0-.72-.09-1.4-.37-2.02-.85Z" fill="#54B6EC"/><path d="m13.92 30.77-.02-.03a9.36 9.36 0 0 1-2.71-4.62c-1.2-4.87 3.65-9 8.21-10.89 3.08-1.28 6.5-2 10.28-2.2 3.63-.18 7.3.4 11 1.72 1.42.52 2.7 1.28 3.92 2.11.1.07.2.16.27.26.24.31.15.4-.25.29-6.93-1.73-19.9 3.58-25.44 6.75-1.82 1.05-4.07 2.65-5.15 4.4-.38.63-.35 1.25.1 1.86.02.04.03.1.03.18 0 .06-.04.1-.1.1a.3.3 0 0 0-.14.07Z" fill="#325189"/></svg>