<svg width="56" height="56" viewBox="0 0 56 56" xmlns="http://www.w3.org/2000/svg"><path fill="#F0F3FA" d="M0 0h56v56H0z"/><path d="M47 32v-8h1.99c1.48 0 2.51.93 2.51 2.4 0 .94-.57 2.07-1.59 2.23L52 32h-1.75l-1.75-3.23V32H47Zm1.5-4.32h.1c.82 0 1.4-.36 1.4-1.23 0-.86-.58-1.18-1.38-1.18h-.12v2.41ZM33.5 24v3h3v-3H38v8h-1.5v-3.5h-3V32H32v-8h1.5ZM25 32v-8h2.25c2.22 0 3.75 1.87 3.75 4.01 0 2.1-1.57 3.99-3.76 3.99H25Zm1.76-1.5c1.8 0 2.74-.76 2.74-2.5 0-1.76-.94-2.5-2.74-2.5h-.26v5h.26ZM22.86 32l-4.36-5.34V32H17v-8h1.14l4.36 5.34V24H24v8h-1.14ZM4 29.98l1.16-.58c.22.62.64 1.12 1.27 1.12.57 0 1-.31 1-.94 0-.85-1.19-1.06-1.97-1.5-.67-.4-1.14-.94-1.14-1.8A2.27 2.27 0 0 1 6.6 24c.72 0 1.7.6 1.95 1.47l-1.13.64c-.29-.4-.41-.66-.87-.66-.44 0-.76.13-.76.66 0 .58.79.82 1.2.97C8 27.46 9 28.08 9 29.4 9 30.96 7.82 32 6.43 32 5.4 32 4.07 31.35 4 29.98Z" fill="#E21E25"/><path fill-rule="evenodd" d="M12.45 24 9 32h1.57l1.08-2.5h2.7l1.08 2.5H17l-3.45-8h-1.1Zm.55 2.38L12.3 28h1.4l-.7-1.62ZM42.45 24 39 32h1.57l1.08-2.5h2.7l1.08 2.5H47l-3.45-8h-1.1Zm.55 2.38L42.3 28h1.4l-.7-1.62Z" fill="#E21E25"/></svg>