<svg width="56" height="56" viewBox="0 0 56 56" xmlns="http://www.w3.org/2000/svg"><path fill="#F0F3FA" d="M0 0h56v56H0z"/><path d="M18.97 23c1.12 0 2.03-.67 2.02-1.5 0-.83-.91-1.5-2.04-1.49-1.12 0-2.03.68-2.02 1.5 0 .83.91 1.5 2.04 1.5ZM41.55 28.3c-.1 0-.2.03-.3.06-.94.37-2.09.47-3.02.13-.86-.3-1.82-1.2-1.6-2.16.47-2.17 3.44-2.44 5.32-2.3.61.05 1.25.17 1.9.36 1.9.58 3.36 2.26 2.52 4.22-.58 1.36-2.46 2.39-3.96 2.53.22.2.59.27.87.35.61.17 1.27.22 1.9.12.42-.08.93-.14 1.28-.4.23.52.37 1.07.54 1.6a9.16 9.16 0 0 1-4.02 1.18 7.75 7.75 0 0 1-4.45-1.08A21.87 21.87 0 0 1 35 30.16l.93-1.13c.3.2.6.4.95.59.68.38 1.33.5 2.08.44a3.3 3.3 0 0 0 1.5-.44c.55-.36.74-.84 1.1-1.32ZM24.37 29.1a.05.05 0 0 0 .02-.04.05.05 0 0 0-.02-.04 3.03 3.03 0 0 1-1.25-1.42 2.43 2.43 0 0 1-.04-1.37c.34-1.22 1.68-1.88 2.87-2.08.64-.11 1.32-.15 2-.14 2 .01 4.2.01 6.05-.01v2.14c-1.12-.4-2.53-.58-3.71-.53-.56.03-1.97.33-1.95 1.12.01.6.7.86 1.2.95a9.05 9.05 0 0 0 2.46.16v1.8a5.96 5.96 0 0 0-2.68.1c-.44.1-1.06.4-1.05.94 0 .44.51.74.88.85.77.22 1.56.2 2.39.1 1-.13 2.08-.46 2.97-.87l.49 2.18c-.37.15-.81.23-1.18.32a29.1 29.1 0 0 1-4 .68c-1.2.1-2.42.08-3.6-.16-1.31-.26-3.2-1.14-3.22-2.61-.01-.92.67-1.56 1.37-2.07ZM48 24h4v10h-4zM12.38 31.73a3.54 3.54 0 0 1-2.05-.9l.44-.07c.15-.02.3-.03.43-.07 1.2-.29 2.36-.83 3.25-1.69H17v5h4V24h-4v3H15.09c-.39-1.67-2.19-2.87-3.79-2.96-.4-.03-.8-.04-1.19-.04H6v2.1c.24-.07.57-.1.87-.14l.5-.06c.24-.04.5-.05.78-.02.4.05.62.25.74.62.07.24.12.5.11.75-.01.58-.25 1.1-.96 1.16-.81.07-1.8-.01-2.53-.41A75.11 75.11 0 0 1 4 30.26l.39.33a15.55 15.55 0 0 0 3.53 2.43 8.63 8.63 0 0 0 6.19.68 7.4 7.4 0 0 0 1.86-.9l-.33-.67a51.9 51.9 0 0 0-.33-.67c-.9.3-1.98.35-2.93.27ZM26 21h4.32L32 23h-4.32L26 21Z"/></svg>