<svg width="56" height="56" viewBox="0 0 56 56" xmlns="http://www.w3.org/2000/svg"><path fill="#F0F3FA" d="M0 0h56v56H0z"/><path d="M26.59 10h.83l.22.59c.04.08.1.12.19.12h.71a.2.2 0 0 0 .11-.03.2.2 0 0 0 .08-.09l.23-.59h.67c.12.11.26.17.41.18a.13.13 0 0 1 .13.12l-.01.07-.37.74c-.05.1-.03.17.07.22.16.1.29.22.36.4.04.08.1.1.18.06l.55-.31c.14-.08.25-.06.34.07.18.24.3.52.35.84.02.14-.04.24-.17.3-.48.22-.84.18-.79.89 0 .05.03.09.08.11l.71.34.1.08.03.12c-.01.26-.09.52-.22.79a.26.26 0 0 1-.17.14c-.23.05-.42.02-.57-.11a.3.3 0 0 0-.3-.05.94.94 0 0 0-.53.55.28.28 0 0 0 .05.3c.12.12.16.28.14.46a.2.2 0 0 1-.1.16l-.52.27a.44.44 0 0 1-.5-.06.44.44 0 0 1-.11-.14l-.24-.51c-.04-.09-.1-.1-.17-.04-.2.16-.38.16-.54-.02-.1-.11-.16-.1-.18.06-.01.04 0 .08.02.12.03.03.03.06.03.1 0 .03-.02.07-.05.1-.12.09-.2.22-.23.39-.02.13-.1.17-.22.1l-.87-.44c-.1-.05-.14-.13-.1-.24.06-.16.15-.32.28-.47a.22.22 0 0 0 .06-.2c-.02-.06-.06-.1-.14-.1a.3.3 0 0 1-.24-.14c-.22-.3-.52-.33-.9-.07a.21.21 0 0 1-.27-.02.21.21 0 0 1-.05-.09l-.3-.88c-.03-.1.01-.18.12-.2.2-.06.4-.16.62-.3a.18.18 0 0 0 .09-.15v-.5c0-.1-.04-.17-.12-.23a.6.6 0 0 0-.43-.13c-.14 0-.2-.06-.2-.2.03-.3.1-.6.21-.92.03-.1.1-.14.2-.14.25 0 .48.09.69.25.06.05.13.05.19 0l.48-.43c.08-.07.1-.15.04-.24-.23-.36-.22-.7.04-1Z" fill="#F86E1B"/><path d="m27.94 11.65-.34.88a.18.18 0 0 1-.17.11h-.87a.18.18 0 0 1-.16-.11.18.18 0 0 1 .03-.2l.5-.54a.18.18 0 0 1 .06-.04l.7-.33a.18.18 0 0 1 .2.03.18.18 0 0 1 .05.2ZM28.5 12.47a.92.92 0 0 0-.14-.36c0-.16-.02-.34-.09-.55a.12.12 0 0 1 .03-.12.12.12 0 0 1 .12-.03c.6.14 1.06.48 1.4 1.02.05.08.03.14-.07.17-.45.12-.86.08-1.25-.13Z" fill="#020201"/><path d="M28.36 12.1c.07.12.12.24.14.37v.42c0 .08.04.12.12.1.48-.06.75 0 .82.19l-.5.41a.7.7 0 0 0-.33.04c-.08.03-.1.08-.04.15.33.47.33.7-.02.7l-.34-.27c-.06-.1-.14-.2-.24-.29-.07-.06-.14-.06-.2 0l-.27.27a.21.21 0 0 1-.2.07c-.1-.02-.14-.09-.15-.2l.13-.3.23-.33c.06-.08.04-.14-.04-.19l-.22-.1c-.18-.1-.17-.19.02-.26a.92.92 0 0 1 .52-.03c.1.02.15-.02.16-.12.05-.4.19-.6.41-.62Z" fill="#FDCCA8"/><path d="m27.28 13.75-.13.3-.25.6c-.04.12-.1.13-.18.04a1.9 1.9 0 0 1-.5-1.67c.01-.1.07-.13.16-.08.4.24.7.51.9.81ZM28.95 13.59l.49-.41.45-.25a.1.1 0 0 1 .14.07 1.9 1.9 0 0 1-.59 1.7.22.22 0 0 1-.1.05l-.07.01c-.04 0-.04-.01-.02-.04.04-.07.05-.14.01-.2-.19-.34-.3-.65-.31-.93Z" fill="#020201"/><path d="m22.5 14.1.49.4c.2.24.36.15.5-.28.28-.18.52-.18.74-.02.06.05.09.12.07.2l-.1.4c-.06.28.03.53.27.75l.83.78 2.34 1.25.4.2a.2.2 0 0 0 .21 0l1.3-.86c.3.05.45-.02.46-.2l1.17-.65c.54-.2.8-.58.78-1.15v-.64c.01-.09.05-.14.14-.16.31-.08.56 0 .74.24a.34.34 0 0 0 .56-.02.7.7 0 0 1 .31-.24c.2-.13.38-.3.53-.52.05-.07.11-.1.2-.08.14.02.22.13.22.32.01.8.62.74 1.25.63.37.23.56.53.56.93-.24 0-.48.07-.73.21-.27 0-.45.16-.55.49-.01.04.02.05.08.03.66-.07 1.6.05 1.7-.8a.24.24 0 0 1 .03-.17c.04-.08.1-.12.18-.13.14-.02.28-.01.4.02.02.2.12.34.3.4.08.03.14.02.2-.04.34-.36.43-.67.26-.95.33-.6.63-.5.89.3l-.13.98c-.1.28-.13.5-.09.66a.14.14 0 0 0-.01.05v.04a.08.08 0 0 0 .04.04h.04c.67.02 1.03-.2 1.06-.65-.46-.26-.3-.85.09-1.1.3-.17.75-.12 1.09-.12a.73.73 0 0 1 .72.72l.01.6a1 1 0 0 1-.14.56c-.13.22-.28.43-.45.62-.07-.02-.12 0-.15.05-.04.07-.04.14.02.2.12.15.29.2.5.19.68.76 1.28 1.95 2.12 2.45.06.16.16.23.31.23.31-.01.55-.1.7-.24.15-.03.19.17.12.6-.32.52-.74.68-1.05 1.07a.17.17 0 0 0 0 .2c.21.36.55.52 1.01.51.2 0 .3-.08.3-.24a.96.96 0 0 0 .34-.1c.1-.05.14-.02.14.08v.37c0 .09-.03.16-.1.22a.37.37 0 0 0-.09.28c0 .08-.03.16-.08.22l-.48.5c-.33-.07-.57.02-.7.26a.2.2 0 0 0 0 .22c.14.25.25.52.33.79.05.14.1.19.17.14.05.12.07.25.06.4-.01.09-.06.14-.14.15l-.41.07a.54.54 0 0 0-.37.02.22.22 0 0 0-.13.17c-.04.22.07.42.33.62.3.28.68.42 1.12.42.06 0 .1.01.12.04.02.04.02.09-.01.16-.26.41.05 2.12.56 2.15l-.04.9c0 .1-.05.13-.14.1a.58.58 0 0 1-.23-.17.17.17 0 0 0-.2-.06.18.18 0 0 0-.11.2c.07.65 0 1.3-.2 1.95-.06.3-.2.57-.4.82l-.46 2.68c0 .3-.05.47-.17.52-.4.4-.44 1.05-.6 1.58a.19.19 0 0 0 .17.23c.03 0 .07 0 .1-.02a.87.87 0 0 0 .48-.63c0-.1.16-.13.45-.1-.09.36-.1.73-.05 1.1-.03.65-.41.72-.78 1.14a.26.26 0 0 1-.21.1c-.29-.02-.51.02-.77-.14a3.2 3.2 0 0 1-1.26-1.44c-.57-1.26.43-2.72-.12-3.94a.27.27 0 0 0-.17-.15 1.62 1.62 0 0 1-.8-.6l-.28-.86c.23-.06.46-.06.68-.02 0 .28 2.07-.35.99-1.3-.4.07-.74-.04-1.04-.33l-.33-.34a.21.21 0 0 1 0-.28.2.2 0 0 1 .08-.06.7.7 0 0 0 .34-.27c.45-.43.62-.85.52-1.24.02-.34-.21-.7-.7-1.06a.83.83 0 0 1-.36-.65.16.16 0 0 1 .05-.13.17.17 0 0 1 .14-.04c.31.04.5-.02.59-.2.05-.05.1-.1.16-.12.58-.64.76-1.32.55-2.06-.07-.24-.27-.4-.61-.44a.4.4 0 0 1-.21-.1c-.45-.4-1.06-1.07-.83-1.73a.4.4 0 0 1 .3-.26.4.4 0 0 1 .38.11c.22.24.44.22.65-.04.42-.44.45-.89.1-1.35-.29-.8-.73-1.5-1.31-2.08-.51-.52-.67-.56-.48-.1.02 6.43.02 12.87 0 19.3 0 .37-.08.7-.25.98C37.5 42.42 32.84 45 29.03 45h-1.87c-4.17 0-8.49-2.49-10.6-6.22-.17-.3-.25-.66-.25-1.05V18.52c0-.05-.01-.07-.05-.08.02-.08.02-.13-.01-.16s-.07-.04-.13-.02c-.14.05-.23.16-.28.32a4.86 4.86 0 0 0-1.35 2.3.94.94 0 0 0 .15 1.06c.08.2.4.22 1 .04.22-.07.32.01.32.24l-.03.53-.58 1.11-.53.28c-1.1.32-.23 2.78.84 2.71a.19.19 0 0 1 .2.18l-.02.1c-.19.37-.46.7-.83.96a.92.92 0 0 0-.37.59c-.05.29 0 .58.16.87.07.13.12.17.14.11.07.06.1.12.1.19.21.18.43.3.65.39a.17.17 0 0 1 .1.23.17.17 0 0 1-.07.07c-.23.12-.4.28-.5.47l-.36.19a.37.37 0 0 1-.22.04c-.13-.02-.22 0-.29.06-.12-.1-.21 0-.29.32-.08.36.07.64.47.83 0 .03.03.06.08.1.34.2.6.2.8-.01a.96.96 0 0 1 .52-.01c.07.02.1.06.08.14l-.08.25-.67.84c.05.04.01.07-.09.1-.62.14.52 3.76-1.62 5.56-.23.17-.48.26-.75.26a.94.94 0 0 1-.66-.3 1.77 1.77 0 0 1-.56-1.16l.17-.64c.02-.1.08-.12.16-.07l.14.11c.1.22.23.36.4.43.07.03.13 0 .16-.08a.7.7 0 0 0-.05-.52c-.34-.67-.98-2.03-.96-2.7.06-.5.02-1.01-.11-1.54l-.53-1.08a.43.43 0 0 1-.04-.21c.02-.2 0-.35-.07-.43.13-.5.12-.96-.02-1.39l-.15.04c-.18.03-.37.1-.58.22-.1-.12-.13-.31-.07-.57.35-.29.5-1.4.87-1.86.03-.05.04-.1.01-.15-.01-.03-.03-.05-.06-.06.1-.2.09-.43-.05-.72.32-.03.63-.12.93-.26a.4.4 0 0 0 .18-.17l.25-.44c.05-.08.03-.15-.04-.2-.2-.15-.43-.22-.72-.22-.07 0-.11-.03-.14-.1a.57.57 0 0 1 0-.25c.3-.31.57-1.16.5-1.38a.21.21 0 0 0-.17-.15c-.12-.01-.17.03-.16.11-.46-.3-.78-.66-.99-1.1-.1-.21-.12-.46-.06-.74.01-.08.06-.1.14-.07l.3.15c.4.39.84.33 1.3-.18a.25.25 0 0 0-.13-.4c-.26-.06-.5-.2-.71-.42a1.8 1.8 0 0 1-.18-1.05c0-.09.05-.12.12-.1.53.37.95.3 1.27-.21.5-.87 1.12-1.61 1.88-2.23.3-.02.46-.13.5-.34a2.83 2.83 0 0 1-.64-.82c-.16-.32-.06-.7-.09-1.04a.7.7 0 0 1 .7-.74h.74a.76.76 0 0 1 .68.41c.15.3.1.55-.15.77l-.07.02a.13.13 0 0 0-.1.09.12.12 0 0 0 .04.13c.36.28.74.43 1.13.43.22-.24-.29-.76-.27-1 .02-.26-.05-.5.11-.73.13-.18.23-.38.3-.59.03-.1.1-.14.2-.1l.13.03c.09.03.14.08.16.16l.1.45c-.1.3.03.51.37.62.21-.3.5-.42.86-.33.12.03.17.1.14.23.14.55 1.2 1.15 1.8 1 .08-.03.1-.08.07-.16-.1-.27-1.05-.9-1.31-.7a1.98 1.98 0 0 1 0-.68c.26-.2.5-.28.74-.22.22.08.43.1.63.1.09-.02.15-.06.18-.13a.56.56 0 0 0 .07-.26l-.03-.13c.08-.11.14-.26.18-.43a.2.2 0 0 1 .17-.16.22.22 0 0 1 .21.09c.16.22.35.4.58.54Zm-.8 3.2a.16.16 0 0 0-.1 0c-.38-.05-.68.08-.88.36-.12.05-.2.1-.25.15a.14.14 0 0 0 .1.23h3.64c.23 0 .26-.06.07-.2a2 2 0 0 0-.37-.2 3 3 0 0 0-2.04-.46c-.04 0-.1.05-.17.13Zm10.24.62c.02.07.05.1.08.1a244.46 244.46 0 0 0 3.66 0 .17.17 0 0 0 .08-.23c-.04-.08-.13-.12-.28-.12-.16-.29-.47-.42-.93-.39-.08 0-.16 0-.23-.04-.62-.28-1.69.2-2.3.45-.08.03-.13.1-.16.22a.04.04 0 0 0 0 .03.04.04 0 0 0 .04.02c.04 0 .05-.01.04-.04Zm-14.6-.06c-.23.16-.2.23.08.21l1.92-.11c-.06-.28-.15-.42-.28-.44a2.9 2.9 0 0 0-1.71.34Zm19.6-.1-.08.11c-.07.1-.04.14.07.14l2.19.04c-.04-.42-2.03-.66-2.18-.28ZM16.97 33.2c.03 1.35.02 2.84 0 4.46-.01.23.04.44.14.6a12.84 12.84 0 0 0 22-.11.48.48 0 0 0 .07-.25V18.7a.1.1 0 0 0-.02-.07.09.09 0 0 0-.06-.02h-22a.12.12 0 0 0-.12.12l-.04 14.3v.05c.02.03.03.07.03.1Z" fill="#020201"/><path d="m28.2 14.2.35.29.45.4c.07.07.07.13-.03.17-.58.25-1.15.25-1.72 0-.1-.04-.11-.1-.04-.2.28-.32.62-.54 1-.65Z" fill="#020201"/><path d="m20.87 15.04.01.06.05.05.82.48a.2.2 0 0 0 .3-.13c.05-.25.02-.5-.09-.77-.21-.52-.1-.6.33-.25.47.39.41.94.62 1.45a.14.14 0 0 0 .17.08l.06-.02c.02 0 .03-.02.04-.04v-.04a1.2 1.2 0 0 1 .32-1.27.15.15 0 0 1 .26.08c.15.93.65 1.61 1.52 2.05.61.3 1.26.65 1.93 1.04.01 0 .02.02 0 .04l-.05.1c-.03.05-.06.05-.11.02a86.4 86.4 0 0 0-.8-.5c-.15-.1-.29-.08-.41.05a.17.17 0 0 1-.21.04l-.67-.3-.05.01-.06.07c-.03.05-.03.09.02.12l.43.3c.14.08.12.12-.04.1a1 1 0 0 1-.3-.1c-1.58-.84-3.68-1.53-4.96-.03a.15.15 0 0 1-.18.05.16.16 0 0 1-.05-.04.44.44 0 0 1-.11-.38c.03-.2-.06-.29-.26-.28a8.6 8.6 0 0 0-3.36.89c-.86.42-1.57 1.6-2.12 2.36-.45.62-1.79 1.43-2.43.43-.1-.14-.06-.21.11-.22l.57-.04c.13 0 .17.04.11.16a.18.18 0 0 0 0 .15c.03.09.09.11.17.08a2.79 2.79 0 0 0 1.48-1.36.04.04 0 0 0 0-.06l-.06-.05a.1.1 0 0 0-.15.01c-.3.4-.65.74-1.08 1.01a.35.35 0 0 1-.2.06c-.14 0-.16-.06-.07-.15.96-1 1.67-2.2 2.95-2.83a.17.17 0 0 0 .1-.12.17.17 0 0 0-.05-.15c-.48-.5-.98-1.14-.69-1.86.11-.27.32-.4.62-.36l.1.01c.32.04.4.2.27.47-.22.46-.09.82.4 1.07.43.23.92.14 1.4.17a.23.23 0 0 0 .2-.1.23.23 0 0 0 .02-.2c-.1-.3-.18-.58-.24-.89-.11-.55-.02-.58.28-.11l.25.35c.2.25.41.24.6-.05.1-.13.2-.15.34-.05.79.62 1.62.9 2.5.86.56-.03.62-.22.18-.56a9.8 9.8 0 0 1-1.11-1.02c-.08-.09-.07-.15.06-.17.13-.03.27 0 .4.09.05.02.04.03 0 .04-.04 0-.06.03-.08.1ZM40.87 17.54c.56.3 1.07.57 1.47 1.08.45.58.9 1.11 1.32 1.6.22.25.17.3-.13.17-.37-.16-.7-.47-1-.93-.05-.06-.1-.08-.18-.05l-.06.03c-.04.02-.05.04-.03.08.31.62.79 1.07 1.43 1.35a.16.16 0 0 0 .17-.03c.05-.04.06-.09.03-.15a.12.12 0 0 1 .1-.17c.17-.03.34-.03.52 0a.15.15 0 0 1 .12.2c-.12.39-.55.65-.95.5-.65-.23-1.06-.46-1.23-.68-.46-.6-.92-1.23-1.4-1.88-.78-1.07-3.1-1.55-4.35-1.56-.07 0-.12.03-.15.1a.62.62 0 0 0-.04.2c0 .42-.15.48-.44.18-.62-.62-1.42-.84-2.4-.67-.92.16-1.8.47-2.66.96a.1.1 0 0 1-.1 0l-.06-.04.01-.04.4-.35c.1-.1.09-.14-.05-.15a.6.6 0 0 0-.48.19c-.1.08-.2.1-.3.05a.65.65 0 0 1-.15-.07.25.25 0 0 0-.3 0l-.82.53h-.08l-.06-.05c-.04-.03-.04-.06 0-.09a6.4 6.4 0 0 1 1.43-.83c.96-.4 1.8-1.2 1.98-2.24.03-.18.13-.22.29-.12l.06.05c.07.07.13.14.16.23.04.08.05.17.04.26a3.07 3.07 0 0 0 .05.74.14.14 0 0 0 .09.06h.05c.11-.02.17-.08.19-.19.06-.47.18-1.13.6-1.4.37-.24.47-.16.3.25a1.6 1.6 0 0 0-.13.79.23.23 0 0 0 .23.2c.04 0 .08-.01.11-.03l.7-.43a.43.43 0 0 0 .2-.23c.03-.11.1-.16.2-.15a.14.14 0 0 1 .12.1.14.14 0 0 1-.05.15l-1.27 1.1a.23.23 0 0 0-.07.23.22.22 0 0 0 .2.16 3.81 3.81 0 0 0 2.81-.87c.09-.07.16-.06.23.02l.12.15a.33.33 0 0 0 .35.1.33.33 0 0 0 .12-.06c.18-.16.3-.31.37-.46.2-.5.29-.48.25.06-.03.29-.12.6-.3.94a.2.2 0 0 0 .15.3c.57.1 1.08.05 1.53-.17.52-.25.65-.62.4-1.1a.28.28 0 0 1 .06-.34.28.28 0 0 1 .12-.06c.6-.12 1.01.32.91.9-.1.53-.48.9-.8 1.3a.18.18 0 0 0-.05.15.18.18 0 0 0 .1.13Z" fill="#F86E1B"/><path d="M24.13 16.23a.05.05 0 0 1-.02.07h-.02c-.08.05-.19.02-.3-.07a1.13 1.13 0 0 1-.3-.39l-.04-.07a1.3 1.3 0 0 1-.09-.24.91.91 0 0 1-.03-.23c0-.07 0-.13.03-.18a.2.2 0 0 1 .1-.1l.01-.01a.05.05 0 0 1 .06.02l.6 1.2ZM32.78 15.33c.04.42-.17.76-.6 1.03-.05.03-.08.02-.11-.02l-.05-.07c-.04-.05-.04-.1.02-.15.25-.21.42-.48.52-.81.11-.41.19-.4.22.02ZM20.7 20.65l.05.44a.18.18 0 0 1-.14.2h-.08a1 1 0 0 0-.43-.02c-.1.02-.17-.01-.21-.1a.3.3 0 0 0-.31-.18.23.23 0 0 0-.2.15c-.08.17-.2.2-.36.12a.3.3 0 0 0-.25-.02 1 1 0 0 1-.62 0c-.07-.02-.1-.07-.08-.13l.02-.08a.1.1 0 0 1 .11-.08.1.1 0 0 1 .05.02c.1.06.2.08.32.05.09-.03.1-.07.03-.14a.8.8 0 0 0-.36-.2.2.2 0 0 1-.13-.11c-.14-.26-.1-.63.26-.68.2-.02.37.02.52.15.02 0 .02.02.01.04l-.03.06c-.04.07-.1.08-.16.05a.36.36 0 0 0-.28-.02c-.13.04-.14.1-.03.17l.46.3c.07.05.1.11.1.2-.01.03-.03.06-.07.08-.06.05-.06.1.02.13.05.03.1.03.13 0a.23.23 0 0 0 .08-.14c.04-.2.1-.4.18-.6.2-.57.42-.57.63 0l.28.72.02.04a.1.1 0 0 0 .04.02c.06.02.1.02.14 0l.01-.04-.01-.98c0-.08.03-.14.1-.17.1-.04.2.02.31.18l.03.04c.06.14.16.25.3.34.08.06.12.04.1-.06l-.03-.36c-.01-.11.04-.16.15-.13l.08.02c.04.01.07.03.1.06.02.03.03.07.03.1v1.03a.17.17 0 0 1-.07.15.18.18 0 0 1-.12.03l-.05-.01a.12.12 0 0 1-.04-.04l-.46-.65c-.11-.16-.16-.15-.14.05ZM21.81 20.06a.16.16 0 0 1 .16-.17h.32a.72.72 0 0 1 .5.18.68.68 0 0 1 .21.48v.05a.66.66 0 0 1-.2.49.7.7 0 0 1-.48.2l-.32.01a.16.16 0 0 1-.15-.1.16.16 0 0 1-.02-.05l-.02-1.1ZM24.82 20.95c.03.13 0 .24-.08.33a.12.12 0 0 1-.13.02.11.11 0 0 1-.07-.1l.03-1.15c0-.08.04-.13.12-.15.27-.05.5 0 .68.15a.24.24 0 0 1 .08.26c-.08.26-.06.53.06.8.04.09.01.15-.07.18a.18.18 0 0 1-.12.01c-.11-.03-.17-.1-.17-.21 0-.14-.05-.24-.16-.28-.15-.07-.2-.02-.17.14ZM27.05 20.66l.03.48a.14.14 0 0 1-.08.14.14.14 0 0 1-.05 0l-.08.01a.1.1 0 0 1-.12-.1v-.96c0-.36.14-.43.42-.19.07.06.12.13.17.2.06.12.13.12.2.01a.5.5 0 0 0 .06-.13.3.3 0 0 1 .3-.22c.1 0 .15.06.15.16v1.08c0 .1-.06.15-.16.15h-.06a.13.13 0 0 1-.14-.15l.05-.36c.01-.12-.03-.15-.14-.08-.16.1-.3.08-.44-.08-.09-.1-.12-.08-.11.04ZM28.52 21.15c-.05.1-.13.13-.24.11-.1-.02-.12-.07-.08-.15.13-.29.22-.58.26-.88.01-.12.06-.2.16-.27a.28.28 0 0 1 .35.02c.02.01.03.04.04.06l.44 1.13a.08.08 0 0 1 0 .06.07.07 0 0 1-.05.04l-.1.02c-.08.02-.13 0-.17-.07a.4.4 0 0 0-.38-.21c-.1 0-.18.05-.23.14ZM29.88 20.8c-.01.07 0 .19.03.35 0 .08-.03.13-.1.13h-.08a.13.13 0 0 1-.14-.12l-.03-1.1c0-.1.05-.15.15-.16.07 0 .14.02.2.06.18.13.23.39.4.54.1.07.13.05.13-.06l-.03-.39c0-.1.04-.14.13-.15h.07c.1 0 .14.04.14.13v1.15c0 .11-.05.15-.16.1-.15-.05-.32-.22-.5-.52-.12-.23-.2-.22-.21.05Z" fill="#020201"/><path d="M31.26 20.68c.01.06.04.12.09.17.04.05.1.1.17.13.05.03.1.03.16 0 .07-.03.1-.1.07-.17l-.05-.15a.1.1 0 0 1 .06-.13l.05-.01a.4.4 0 0 1 .19.04.18.18 0 0 1 .1.13c.02.14.01.26-.02.38a.28.28 0 0 1-.22.22c-1.32.22-1.15-1.77.12-1.34.08.02.12.08.12.17 0 .02-.01.04-.04.06a.15.15 0 0 1-.11.02.74.74 0 0 0-.4.03c-.25.08-.35.23-.3.45ZM32.63 21.15l-.02.06a.1.1 0 0 1-.08.07.27.27 0 0 1-.23-.02c-.05-.04-.07-.08-.05-.14l.31-.84c.2-.53.4-.54.6-.01l.36.89a.1.1 0 0 1-.05.12.1.1 0 0 1-.05 0h-.1a.24.24 0 0 1-.18-.12c-.07-.12-.19-.17-.35-.15a.18.18 0 0 0-.16.14ZM34.5 20.45c.02-.13.03-.26.02-.4a.12.12 0 0 1 .03-.1.13.13 0 0 1 .1-.04h.07a.1.1 0 0 1 .09.06.1.1 0 0 1 0 .04v1.18a.1.1 0 0 1-.02.07.1.1 0 0 1-.06.03c-.07.01-.13 0-.18-.04-.17-.14-.23-.41-.44-.6-.1-.08-.15-.06-.15.08l.02.44c0 .06-.03.1-.1.1l-.06.01c-.1.01-.14-.03-.14-.12l-.01-1.11c0-.1.04-.14.14-.12.21.05.39.23.52.54.07.16.12.16.16-.02ZM35.44 20.36c.09.07.2.1.34.1s.17.06.08.18c-.05.07-.13.1-.23.07-.11-.02-.2.02-.24.12-.03.05-.02.09 0 .12.07.07.14.1.23.07.1-.02.18 0 .26.04a.13.13 0 0 1 .01.2.13.13 0 0 1-.07.04h-.6c-.1 0-.14-.04-.14-.14l-.03-1.1a.14.14 0 0 1 .12-.15c.23-.04.46-.03.7.03.13.03.14.08.03.16-.1.08-.23.1-.38.07a.1.1 0 0 0-.12.07.1.1 0 0 0 .04.12ZM36.42 20.22l.05.16.02.02c.43.14.56.38.4.74a.22.22 0 0 1-.14.12.85.85 0 0 1-.58-.05c-.03 0-.04-.03-.04-.06l.03-.12c0-.07.05-.1.11-.06.08.04.17.07.27.07s.13-.05.1-.14a.3.3 0 0 0-.27-.2.23.23 0 0 1-.16-.1.52.52 0 0 1-.05-.5c.06-.13.16-.2.32-.21a.6.6 0 0 1 .38.1c.12.08.11.14-.04.17a.59.59 0 0 1-.33 0h-.03a.06.06 0 0 0-.04.03v.03ZM37.55 20.45l.36.02c.04 0 .06.03.06.08l-.01.1c0 .03-.02.04-.06.04-.22-.01-.39.05-.48.18-.06.09-.04.13.06.14.13 0 .25.02.38.03.07 0 .12.03.16.08.01.02.02.05 0 .08a.12.12 0 0 1-.12.09h-.62c-.1.01-.15-.04-.15-.13l.02-1.13c0-.1.04-.13.13-.13h.64c.12 0 .15.05.09.15l-.04.07c-.03.05-.07.06-.11.05-.16-.04-.28 0-.38.1-.1.1-.07.16.07.18ZM23.98 20.76c.03-.27.02-.52-.03-.75 0-.04.01-.06.06-.06l.23-.01c.08 0 .11.04.1.11l-.1.97a.24.24 0 0 1-.16.2.93.93 0 0 1-.66.03.24.24 0 0 1-.18-.23l-.08-.97c0-.1.04-.13.12-.12h.09c.03 0 .05.02.07.04.02.02.03.05.03.08l.02.72c0 .09.04.15.12.19.1.05.18.04.27-.02.06-.04.1-.1.1-.18Z" fill="#020201"/><path d="M22.12 20.27a.1.1 0 0 1 .1-.1h.03a.41.41 0 0 1 .28.1.38.38 0 0 1 .12.28v.07c0 .1-.04.2-.11.27a.4.4 0 0 1-.28.12h-.03a.1.1 0 0 1-.1-.1v-.64ZM24.89 20.2a.27.27 0 0 1 .11-.02.12.12 0 0 1 .12.08V20.4c0 .04-.03.06-.08.06-.11 0-.18-.06-.2-.16a.09.09 0 0 1 .05-.1ZM19.52 20.49a.1.1 0 0 1 .09-.06.11.11 0 0 1 .1.04c.04.06.06.12.06.19 0 .04-.02.06-.06.08-.24.05-.3-.03-.2-.25ZM28.73 20.43c.04-.06.07-.06.11 0l.1.14c.04.07.03.12-.04.16a.14.14 0 0 1-.11.02c-.06 0-.1-.04-.1-.1 0-.08 0-.15.04-.22ZM32.78 20.49c.04-.07.08-.08.13-.01l.08.11a.1.1 0 0 1-.04.14c-.06.03-.1.02-.15-.03-.06-.06-.06-.14-.02-.21Z" fill="#F0F3FA"/><path d="M11.35 22.58c.22 0 .43-.03.62-.1.46-.17.56-.62.94-.87.26-.17.33-.11.2.18-.22.52-.73 1.8-1.44 1.72a.68.68 0 0 1-.56-.43l-.04-.1c-.1-.27 0-.4.28-.4ZM44.87 22.53c.25-.03.35.12.3.44a.5.5 0 0 1-.18.3c-.43.36-.8.35-1.12-.06a6.1 6.1 0 0 1-.83-1.56c-.04-.1 0-.14.09-.13a.3.3 0 0 1 .22.1c.52.58.56 1.04 1.52.91ZM42.22 22.93c.2-.15.32-.39.34-.71a.15.15 0 0 1 .15-.14c.09 0 .15.03.2.12.23.53-.6 1.68-1.23 1.57-.57-.1-.9-.48-.96-1.14a.1.1 0 0 1 .13-.1c.6.22 1.02 0 1.25-.65.03-.07.07-.08.13-.04l.08.05c.01.01.02.03.01.05l-.21.92c-.03.12 0 .14.1.07ZM13.95 22.87a.13.13 0 0 0 .09-.07.12.12 0 0 0 0-.1 1.4 1.4 0 0 1-.1-.7c.01-.18.06-.2.14-.02.24.52.61.7 1.11.56.26-.08.36.01.29.27-.06.2-.16.4-.3.57-.13.17-.32.3-.53.36-.65.2-1.12-.52-1.36-1.01a.6.6 0 0 1 .05-.66.13.13 0 0 1 .13-.05.13.13 0 0 1 .1.1 5 5 0 0 0 .22.66c.03.07.08.1.16.09ZM12.03 25.23l.16-1.24a.4.4 0 0 1 .11-.23l.59-.6c.09-.09.17-.08.24.02l.51.68c.1.12.1.24 0 .36-.39.52-.74 1.13-1.47 1.16a.14.14 0 0 1-.13-.1v-.05ZM42.52 23.87l.53-.7c.09-.11.17-.12.26-.02l.57.62a.4.4 0 0 1 .1.2l.22 1.2a.2.2 0 0 1-.05.16.2.2 0 0 1-.18.06c-.72-.1-1.12-.67-1.46-1.26a.23.23 0 0 1 .01-.26Z" fill="#F86E1B"/><path d="M12.6 24.2c-.12.31-.15.59-.05.63.1.04.27-.18.4-.49.12-.3.14-.58.05-.62-.1-.04-.27.18-.4.48ZM43.26 24.35c.13.31.31.53.4.5.1-.04.07-.33-.06-.64-.13-.3-.3-.53-.4-.49-.1.04-.07.32.06.63Z" fill="#020201"/><path d="M20.1 22.4h15.95v12.66c0 3.15-4.2 5.71-7.39 5.71h-1.18c-3.18 0-7.37-2.56-7.37-5.71V22.4Z"/><path d="M20.66 23.19h14.78v11.73c0 2.92-3.9 5.3-6.85 5.3h-1.1c-2.94 0-6.83-2.38-6.83-5.3V23.19Z" fill="#F86E1B" fill-opacity=".7"/><path d="M13.39 27.28a3.9 3.9 0 0 1-2.48 2.35c-.3.11-.4.02-.3-.28.1-.24.2-.47.34-.7a1 1 0 0 1 .81-.5c1.11-.1 1.62-1.17 1.92-2.13.03-.08 0-.13-.1-.15H13.48a.07.07 0 0 0-.03.04c-.4.87-.7 1.5-1.66 1.89-.15.06-.28.02-.4-.1a.15.15 0 0 1-.03-.1c0-.15.06-.23.2-.25.92-.15.95-.86 1.15-1.6a.4.4 0 0 1 .15-.23l.99-.76c.1-.08.15-.05.14.08-.11 1.24.3 1.98 1.23 2.23.24.07.26.18.08.34l-.34.3a.62.62 0 0 1-.63.1c-.28-.1-.5-.3-.65-.56a.15.15 0 0 0-.15-.07.16.16 0 0 0-.13.1ZM42.7 25.85h-.07c-.08 0-.12.03-.1.11.2.92.8 2.1 1.89 2.18.47.04.83.35 1.07.95.02.05.02.1-.02.14-.04.06-.08.06-.12 0a1.26 1.26 0 0 0-1.04-.69.1.1 0 0 0-.07.05.1.1 0 0 0 0 .04v.1c.02.03.04.06.07.07.3.15.58.33.83.54.1.08.23.11.36.1.03 0 .05 0 .06.03.04.05.03.1 0 .13a.18.18 0 0 1-.18.04 3.89 3.89 0 0 1-2.58-2.34.16.16 0 0 0-.15-.1.16.16 0 0 0-.15.1.68.68 0 0 1-.33.37c-.6.3-1.03.16-1.32-.43a.1.1 0 0 1 0-.09.1.1 0 0 1 .07-.05c.92-.2 1.36-.95 1.31-2.24 0-.1.04-.13.13-.07l1.02.74c.08.06.12.14.13.24.1.81.3 1.46 1.18 1.62a.23.23 0 0 1 .18.23c0 .1-.06.17-.17.18-.93.07-1.72-1.12-1.95-1.9 0-.03-.02-.05-.05-.05Z" fill="#F86E1B"/><path d="m24.6 26.62 1.37-1.32c.06-.05.12-.05.18 0l1.03.94a.12.12 0 0 1 .04.09.12.12 0 0 1-.03.08l-1.41 1.44c-.16.16-.29.34-.39.54-.15.3-.5.37-.75.6-.53.49-1.03.98-1.5 1.47-.03.04-.07.04-.1 0l-1.15-1.2c-.03-.04-.03-.07 0-.1l1.53-1.56a.27.27 0 0 0 .09-.21l-.03-.42c0-.12.05-.17.17-.16.4.04.63.13.95-.19ZM33.96 30.9l-3.85-3.85a.08.08 0 0 1 0-.12l.83-.87a.08.08 0 0 1 .12 0l3.1 3.04a.08.08 0 0 1 .02.06l-.08 1.68a.08.08 0 0 1-.1.08.08.08 0 0 1-.04-.02Z" fill="#E5A712"/><path d="M42.22 26.85a.03.03 0 0 1 .05.01v.01a.2.2 0 0 1 .02.12c0 .04-.02.09-.05.14a.62.62 0 0 1-.11.13.85.85 0 0 1-.17.11l-.07.05a.85.85 0 0 1-.19.07.63.63 0 0 1-.18.02.35.35 0 0 1-.14-.03.2.2 0 0 1-.09-.08v-.01l-.01-.01a.03.03 0 0 1 0-.03h.02l.92-.5ZM14.95 27.35l.02.02v.03a.16.16 0 0 1-.09.09.35.35 0 0 1-.14.03.7.7 0 0 1-.18-.02 1 1 0 0 1-.2-.06l-.04-.02a.85.85 0 0 1-.3-.22c-.08-.09-.1-.17-.07-.24v-.01a.04.04 0 0 1 .05-.02l.95.42Z" fill="#020201"/><path d="M14.26 28.44c-.13.73.08 1.54.83 1.86a.23.23 0 0 1 .05.4c-.6.45-1.37-.04-1.68-.6-.43-.78-.38-1.46.14-2.04.06-.06.12-.07.2-.03l.37.22c.07.04.1.1.09.2ZM42.62 28.1c.4.54.5 1.06.31 1.57-.3.8-.87 1.45-1.81 1.08a.24.24 0 0 1-.15-.2.24.24 0 0 1 .12-.23c.67-.36.95-.96.85-1.77a.3.3 0 0 1 .04-.2c.09-.15.23-.26.43-.32.09-.02.16 0 .21.07Z" fill="#F86E1B"/><path d="M25.66 28.7c.01-.17.06-.32.14-.48 0-.03.03-.04.06-.02.02.01.03.03.02.05v.03l5.22 5.04a.15.15 0 0 1 .01.2l-.74.81c-.07.07-.13.07-.2 0l-5.13-5.2a.08.08 0 0 1-.02-.08.08.08 0 0 1 .05-.06l.46-.14a.17.17 0 0 0 .13-.16Z" fill="#E5A712"/><path d="M10.9 29.5a.04.04 0 0 1-.03 0 .05.05 0 0 1-.03-.01l-.01-.01a.17.17 0 0 1-.03-.12c0-.05.02-.11.06-.17a.98.98 0 0 1 .13-.18c.06-.07.12-.13.2-.18l.07-.06a1.45 1.45 0 0 1 .44-.22.45.45 0 0 1 .17 0c.05 0 .09.02.11.05l.01.01a.04.04 0 0 1 0 .07l-1.09.82Z" fill="#020201"/><path d="m31.53 29.1-2.05 2.16a.08.08 0 0 1-.1.02.08.08 0 0 1-.02-.02l-.62-.6a.08.08 0 0 1-.01-.1s0-.02.02-.02l2.17-2.02a.08.08 0 0 1 .11 0l.5.47a.08.08 0 0 1 0 .12Z" fill="#E5A712"/><path d="M11.84 31.12a.12.12 0 0 0-.02-.17.12.12 0 0 0-.17.02c-.08.09-.16.21-.25.37a.06.06 0 0 1-.06.03.06.06 0 0 1-.04-.04c-.09-.4-.09-.8 0-1.18.03-.1.09-.19.18-.24l1.12-.67a.13.13 0 0 1 .11 0 .13.13 0 0 1 .08.08c.17.62.36 1.18.83 1.65.07.06.1.14.11.24.06.9.46 1.95 1.54 1.78.13-.02.16.02.08.13-.33.46-.74.63-1.24.51-1.21-.28-1.6-1.63-1.48-2.74 0-.11-.04-.18-.16-.2h-.06c-.02 0-.04 0-.05.02l-.35.79c-.06.12-.12.12-.19 0a.34.34 0 0 1 .02-.38ZM43.54 30.76c0 .88.1 1.56-.53 2.29-.59.65-1.23.77-1.93.36a.38.38 0 0 1-.2-.28c0-.09.03-.13.12-.12 1.1.12 1.36-1.03 1.49-1.87a.43.43 0 0 1 .1-.22c.37-.43.64-.94.8-1.53a.17.17 0 0 1 .25-.1l1.08.62c.1.05.15.13.18.24.09.35.08.74-.03 1.18 0 .01 0 .02-.02.03a.05.05 0 0 1-.04.01.3.3 0 0 1-.08-.02.04.04 0 0 1-.02-.04.46.46 0 0 0-.24-.42c-.08-.04-.12-.02-.14.07-.03.17 0 .33.08.47.01.03 0 .05-.02.07l-.06.03c-.04.03-.07.02-.1-.02-.2-.26-.25-.67-.51-.84-.12-.08-.18-.05-.18.09Z" fill="#F86E1B"/><path d="M13.94 29.93c.14.26.3.45.36.41.06-.03 0-.27-.14-.53s-.3-.45-.36-.42c-.06.04 0 .28.14.54ZM42.01 29.8c-.12.27-.16.51-.1.54.08.03.23-.15.35-.42.12-.26.17-.5.1-.53-.07-.04-.23.15-.35.42Z" fill="#020201"/><path d="m27.28 31.9-1.65 1.63a.1.1 0 0 0 0 .13l.72.73c.04.04.1.04.13 0l1.66-1.63a.1.1 0 0 0 0-.13l-.73-.72a.1.1 0 0 0-.13 0Z" fill="#E5A712"/><path d="M12.1 34.35c-.05-.02-.08.03-.1.12a3.53 3.53 0 0 1 0-1.62c.05-.17.1-.17.13.01.08.4.07.9-.03 1.49Z" fill="#F86E1B"/><path d="M14.05 35.51c.08.08.2.09.33.03.17.73.14 1.46-.09 2.18a.28.28 0 0 1-.14.17l-.43.22c-.08.05-.12.02-.09-.07.02-.08 0-.14-.07-.17-.15-.07-.21-.02-.19.14a.4.4 0 0 1-.05.26c-.08.12-.14.12-.18-.02l-1.13-3.78c.01-.1.04-.14.09-.12-.02.03 0 .06.05.09.08.04.13.01.14-.08l.22-1.19a.03.03 0 0 1 .03-.02h.06v.03l.1 1.68a.12.12 0 0 0 .05.09.12.12 0 0 0 .1.02l.09-.02c.02-.01.04-.03.04-.06l-.01-1.2a.09.09 0 0 1 .1-.09l.04.02.1.08a.36.36 0 0 1 .13.26l.08 1.33c0 .03.01.04.04.04h.06c.05 0 .07-.02.07-.06l.1-.96c.02-.15.05-.16.1-.02.14.34.19.7.14 1.06 0 .05.01.09.05.12l.07.04Z" fill="#F86E1B"/><path d="m32.18 34.36-.72-.67a.07.07 0 0 0-.1 0l-.86.9a.07.07 0 0 0 0 .1l.72.68c.03.03.08.02.1 0l.86-.9a.07.07 0 0 0 0-.11ZM25.26 33.88l-.13.11a.18.18 0 0 0-.02.26l.58.68c.07.07.18.08.26.01l.13-.1a.18.18 0 0 0 .02-.26l-.59-.68a.18.18 0 0 0-.25-.02Z" fill="#E5A712"/><path d="M42.08 35.57c.1-.44.21-.85.35-1.22.02-.05.05-.08.08-.1.07-.02.1 0 .08.07-.07.36-.03.68.11.97l.2-1.5a.2.2 0 0 1 .12-.15l.1-.05c.06-.03.09-.01.08.05v1.22l.01.05.04.02h.07c.1.01.15-.03.16-.12a19.58 19.58 0 0 0 .1-1.74h.06c.05 0 .07.03.07.08-.04.38.02.75.17 1.1.14.32.25.6.13.94-.25.77-.52 1.53-.8 2.3-.1.26-.14.56-.16.84 0 .16-.05.16-.12.03a.92.92 0 0 1-.1-.3c-.03-.12-.09-.14-.18-.07-.04.04-.1.05-.16.03a.16.16 0 0 1-.06-.04.29.29 0 0 0-.3-.06c-.08.03-.14 0-.17-.08-.3-.8-.34-1.57-.13-2.31.01.06.05.09.1.07l.15-.03Z" fill="#F86E1B"/><path d="M24.69 34.43h-.01a.16.16 0 0 0-.02.24l.61.71c.06.07.17.08.24.02a.16.16 0 0 0 .03-.24l-.62-.72a.17.17 0 0 0-.23-.01ZM32.58 34.74l-.03-.03a.14.14 0 0 0-.2 0l-.8.82a.14.14 0 0 0 0 .2l.03.03c.06.05.14.05.2 0l.8-.83a.14.14 0 0 0 0-.2ZM24.6 35.36c.23.28.47.47.52.43.05-.04-.1-.3-.34-.59-.25-.28-.48-.47-.54-.42-.05.04.1.3.35.58ZM32.95 35.12h-.01a.1.1 0 0 0-.15 0l-.83.83a.1.1 0 0 0 0 .15l.01.01a.1.1 0 0 0 .16 0l.82-.84a.1.1 0 0 0 0-.15ZM24.23 35.75c.25.28.5.47.55.42.06-.06-.09-.32-.33-.6-.25-.28-.5-.47-.55-.42-.06.06.09.32.33.6ZM33.3 35.51l-.04-.04a.09.09 0 0 0-.12 0l-.82.85a.09.09 0 0 0 0 .12l.05.04c.03.03.09.03.12 0l.82-.85a.09.09 0 0 0 0-.12ZM23.52 35.54l-.03.03a.13.13 0 0 0-.02.19l.68.79c.04.06.13.06.19.02l.03-.03a.13.13 0 0 0 .01-.19l-.67-.8a.13.13 0 0 0-.19-.01ZM33.7 35.83l-.03-.02a.1.1 0 0 0-.13 0l-.88.9a.09.09 0 0 0 0 .13l.02.01c.03.04.1.04.13 0l.88-.9a.09.09 0 0 0 0-.12ZM23.43 36.49c.25.28.5.48.54.43.05-.04-.1-.3-.35-.59-.25-.28-.5-.48-.54-.43-.05.04.1.3.35.59ZM33.95 36.06a.05.05 0 0 1 .04-.01.05.05 0 0 1 .03.01l.01.02c.1.1.15.25.13.42a.88.88 0 0 1-.25.48l-.05.06a.97.97 0 0 1-.23.17.8.8 0 0 1-.26.09.58.58 0 0 1-.23-.01.43.43 0 0 1-.2-.1l-.01-.02a.05.05 0 0 1 0-.07l1.02-1.04ZM22.9 37c.14.16.34.23.44.14.1-.09.08-.29-.06-.45-.14-.17-.33-.23-.44-.15-.1.09-.07.3.07.46Z" fill="#E5A712"/><path d="M37.6 37.98c.1.07.2.06.25 0 .05-.07.02-.17-.07-.23-.09-.06-.2-.06-.25 0-.04.07 0 .17.08.23ZM35.95 38.6a.24.24 0 0 1-.05-.34l.1-.13c.13-.16.3-.27.5-.3.2-.04.39 0 .53.11l.05.04c.14.11.23.28.25.48.01.2-.05.4-.18.56l-.1.12a.24.24 0 0 1-.16.1.25.25 0 0 1-.19-.05l-.75-.59Z" fill="#020201"/><path d="M36.23 38.43a.06.06 0 0 1-.02-.1l.03-.03a.44.44 0 0 1 .28-.17.42.42 0 0 1 .31.07l.04.02a.41.41 0 0 1 .16.27.42.42 0 0 1-.07.32l-.03.04a.07.07 0 0 1-.09.01l-.61-.43Z" fill="#F0F3FA"/><path fill-rule="evenodd" d="M19.67 38.3c.07.05.14.07.21.06.1-.3.03-.5-.23-.58a.23.23 0 0 0-.24.06.77.77 0 0 1-.55.23.34.34 0 0 0-.3.18.34.34 0 0 0 .02.35c.29.42.5.59.64.5-.02-.1.02-.17.11-.22.1-.06.14-.14.1-.25a.37.37 0 0 1 .02-.27c.05-.11.12-.13.22-.06Zm-.56.1a.14.14 0 0 0-.03-.07.15.15 0 0 0-.04-.04.15.15 0 0 0-.16-.01.16.16 0 0 0-.06.22l.06.06c.08.04.15.02.2-.06a.15.15 0 0 0 .03-.1Z" fill="#020201"/><path d="M43.69 38.55c-.16.18-.2.41-.1.5.12.1.34.02.5-.16.16-.19.2-.42.09-.51-.11-.1-.33-.02-.5.17ZM12.06 38.88c.16.2.38.27.5.17s.09-.33-.06-.52c-.16-.18-.38-.26-.5-.16s-.1.32.06.51Z" fill="#F86E1B"/><path d="M35.16 39.5a.3.3 0 0 1-.27.12.12.12 0 0 1-.1-.08.12.12 0 0 1 .03-.12l.65-.63a.1.1 0 0 1 .05-.02c.07-.01.12 0 .15.05.03.04.04.09.01.14a.2.2 0 0 1-.08.09c-.1.05-.1.11-.03.19l.63.67c.06.07.05.13-.04.17l-.06.03c-.05.03-.1.02-.14-.01l-.6-.6c-.07-.07-.13-.07-.2 0ZM21.64 39.77l-.02-.02a.14.14 0 0 0-.2.02l-.69.9a.14.14 0 0 0 .03.19l.02.02c.06.04.15.03.2-.03l.69-.89a.14.14 0 0 0-.03-.2ZM34.68 40.71a.2.2 0 0 0 .24.07.2.2 0 0 0 .08-.05c.12-.15.23-.2.34-.15.13.06.13.13.02.2l-.5.37c-.08.06-.16.05-.22-.03l-.7-.85a.14.14 0 0 1-.04-.1c0-.03.02-.07.04-.09l.07-.06a.15.15 0 0 1 .22.03l.45.66ZM21.81 41.13a.31.31 0 0 0-.07.14.15.15 0 0 1-.16.11l-.11-.01c-.13-.02-.16-.08-.09-.18l.61-.94c.06-.1.14-.11.23-.07.2.1.36.24.49.42a.21.21 0 0 1 0 .23.62.62 0 0 1-.31.28.15.15 0 0 0-.1.14 1 1 0 0 1-.15.5c-.02.04-.05.05-.08.03l-.07-.02a.13.13 0 0 1-.06-.16.77.77 0 0 0 .06-.41c-.02-.16-.09-.18-.19-.06Z" fill="#020201"/><path d="M22.34 40.61c.04.01.07.03.09.06.06.07.04.11-.06.1-.04 0-.09.01-.13.03-.1.04-.15 0-.15-.1a.3.3 0 0 1 .03-.13c.03-.06.08-.08.15-.04.02.01.03.03.03.05 0 .02.02.03.04.03Z" fill="#F0F3FA"/><path d="M23.28 42.36a.63.63 0 0 1-.4-.32.76.76 0 0 1-.06-.54.77.77 0 0 1 .3-.46c.16-.1.34-.13.51-.09.17.04.32.16.4.32.1.16.11.36.07.54a.77.77 0 0 1-.32.46.63.63 0 0 1-.5.09ZM32.5 41.96a.92.92 0 0 0-.36-.08.3.3 0 0 1-.3-.16c-.23-.43.2-.75.59-.68.08.02.1.06.06.13a.24.24 0 0 1-.23.14.17.17 0 0 0-.16.11l-.01.07c0 .04.02.07.04.09a.1.1 0 0 0 .09.02c.15-.03.3-.02.41.02a.43.43 0 0 1 .28.36.42.42 0 0 1-.2.4.6.6 0 0 1-.6.03c-.03 0-.04-.03-.03-.06l.02-.07c.02-.06.06-.08.13-.07.11.02.22 0 .3-.08.09-.07.08-.13-.02-.17Z" fill="#020201"/><path d="M23.46 42.04c.2 0 .38-.17.38-.38a.38.38 0 0 0-.38-.38.38.38 0 0 0-.39.38c0 .21.17.38.39.38Z" fill="#F0F3FA"/><path d="m25.4 42.26.1-.56c.01-.04.03-.06.07-.07h.08c.05 0 .07.02.08.07.01.43-.07.85-.25 1.24a.16.16 0 0 1-.15.09.16.16 0 0 1-.15-.1l-.21-.53c-.1-.24-.18-.23-.24.02-.02.07-.03.13-.03.2-.01.1-.07.15-.17.15h-.09c-.09-.01-.13-.06-.1-.15l.2-.8c.14-.51.31-.53.52-.04l.23.5c.05.1.1.1.11-.02ZM30.97 41.97c.08.05.16.05.24 0 .1-.06.2-.05.3.03.04.04.05.08 0 .13-.06.08-.17.13-.33.15-.07 0-.1.05-.1.12l.02.11a.12.12 0 0 0 .07.1.12.12 0 0 0 .11-.01c.1-.06.2-.09.31-.1.07 0 .1.03.12.08.02.1-.01.15-.1.18l-.52.16c-.11.03-.19 0-.22-.12l-.32-1.01c-.03-.1 0-.17.1-.2l.62-.16a.1.1 0 0 1 .12.06c.01.05.01.09-.01.12a.2.2 0 0 1-.1.07 2 2 0 0 0-.3.13c-.1.05-.1.1-.01.16ZM29.7 42.83l.06.23c.02.08 0 .12-.09.14l-.07.02c-.09.01-.14-.02-.15-.11l-.15-1.04c-.02-.18.06-.27.24-.27l.37-.02a.3.3 0 0 1 .29.21v.13c-.05.32.02.6.22.84.07.07.06.13-.04.16a.1.1 0 0 1-.07 0 .29.29 0 0 1-.18-.15.56.56 0 0 0-.3-.26c-.11-.04-.15 0-.12.12ZM28.27 43.34a.62.62 0 0 1-.26-.05.67.67 0 0 1-.22-.16.8.8 0 0 1-.02-1.04c.13-.14.3-.22.47-.22.1 0 .18.02.26.05a.74.74 0 0 1 .37.4.8.8 0 0 1-.13.8.64.64 0 0 1-.47.22Z" fill="#020201"/><path d="M29.63 42.27c.04.08.13.12.2.1.06-.04.08-.13.04-.22-.04-.08-.12-.12-.2-.1-.06.04-.08.13-.04.22ZM27.9 42.62c.02.23.19.4.38.4.2-.02.34-.2.33-.43 0-.23-.17-.4-.37-.4-.2.01-.34.2-.33.43Z" fill="#F0F3FA"/></svg>