<svg width="56" height="56" viewBox="0 0 56 56" xmlns="http://www.w3.org/2000/svg"><path fill="#F0F3FA" d="M0 0h56v56H0z"/><path fill-rule="evenodd" d="M44 28a16 16 0 1 1-32 0 16 16 0 0 1 32 0Zm-21.12-2H29l-.51 1.33h-1.7c-.62 0-1.18.38-1.43.96l-2.89 6.93c-.2.47-.65.78-1.15.78H15l.47-1.38h1.87c.61 0 1.17-.37 1.42-.95l2.98-6.91c.2-.46.65-.76 1.14-.76ZM29 31h-1.75a.36.36 0 0 0-.32.23l-.86 2.07a.44.44 0 0 1-.4.29h-.54L25 34h1.8c.15 0 .28-.1.33-.23l.83-2.08a.44.44 0 0 1 .4-.3h.5L29 31Zm4.96-11.47L40 19l-.4 1.34-1.67.15c-.62.05-1.14.48-1.33 1.07l-2.28 7.04c-.16.47-.58.81-1.07.85L27 30l.35-1.4 1.84-.15c.61-.06 1.13-.47 1.33-1.05l2.37-7.03c.16-.47.58-.8 1.07-.84ZM38.12 32H36v.87c0-.2 0-.29-.04-.4a.62.62 0 0 0-.38-.42c-.13-.04-.2-.05-.53-.05h-.9v.43h.9c.33 0 .41.07.41.35h-.66c-.2 0-.35.02-.44.05-.22.07-.36.3-.36.58V32h-1c-.3 0-.47.05-.64.2-.24.18-.36.5-.36.9v-.33c0-.28-.08-.48-.23-.61-.15-.12-.29-.16-.63-.16H30v.87c0-.2 0-.29-.04-.4a.62.62 0 0 0-.38-.42c-.13-.04-.2-.05-.53-.05h-.9v.43h.9c.33 0 .41.07.41.35h-.66c-.2 0-.35.02-.44.05-.22.07-.36.3-.36.58 0 .2.08.38.23.48.12.1.22.11.64.11h1.73v-1.57h.5c.22 0 .3.08.3.28V34h.6v-.9c0 .36.1.66.3.87.16.18.35.24.67.24h.5c0 .26-.06.32-.3.32h-1V35h1.08c.33 0 .48-.06.6-.22.1-.13.15-.35.15-.58v-.8c0 .21.08.39.23.5.12.08.22.1.64.1h1.71v-1.57h.62V34h.57v-1.57h.3c.13 0 .22.02.28.08.06.05.07.1.07.3V34H39v-1.27a.78.78 0 0 0-.19-.55c-.13-.13-.3-.18-.7-.18Zm-2.66 1.21h-.62a.82.82 0 0 0-.18.01c-.07.02-.11.1-.11.18 0 .12.08.17.29.17h.62v-.36Zm-2.45-.74h.45v1.27h-.42c-.32 0-.49-.22-.49-.63 0-.43.15-.64.46-.64Zm-4.17.74h.62v.36h-.62c-.21 0-.3-.05-.3-.17 0-.09.05-.16.12-.18h.18Z" fill="#D7181E"/></svg>