<svg width="56" height="56" viewBox="0 0 56 56" xmlns="http://www.w3.org/2000/svg"><path fill="#FEC40B" d="M0 0h56v56H0z"/><path d="M28 12.81c.11-.03.24.07.38.3-.21.46-.4.94-.58 1.43 1.82.09 4.16 1.51 4.37.62l.33-1.42c.09-.35.4-.54.74-.49 1.07.16 1.85.61 2.34 1.38.13.2.1.36-.09.5a.65.65 0 0 1-.41.11c-.34 0-.69.03-1.05.11-.45.14-.89.56-1.3 1.27 1.72 1.07 5.86 5.01 6.79 7.77l-.17.46c1.07 3.02-1.55 2.63-.43 8.47l.34.77.03 1.2c-.13-.17-.07 3.38-.37 2.9-2.37-.16-5.28 1.97-14.17 2.64a.23.23 0 0 1-.08.22c-.1.09-.2.1-.33.06a.52.52 0 0 1-.26-.25c-2.39-4.58-5.26-12.6-7.63-4.14-.08.03-.15.03-.21 0 .17-1.51.6-2.95 1.26-4.32 1.63-3.31-.57-2.6 2.75-5.7a.18.18 0 0 1 .06-.03c.62-.22 1.35-2.89-2.36-1.52-.19.08-.22.03-.11-.13.49-.71 1.03-1.42 1.63-2.11.37-.44 1.3-1.72.62-2.12a.23.23 0 0 0-.22-.02l-.55.23.3-.82c.84-.96 1.76-1.18.28-1.42-.09-.16-.26-.27-.51-.32.04-.53-.51-.6-.74-.9a1.28 1.28 0 0 1-.24-1.1c.27-1.28 1.8-2.17 3.06-1.81 3.14.53 2.96-1.82 6.54-1.82Z" fill="#FEFEFE"/><path d="M28 12.81c-.6.98-.91 2.02-.94 3.13 0 .08-.03.15-.08.2-.14.2-.32.32-.55.39-.32.1-.62.24-.89.43-.2.15-.5-.02-.48-.28.1-.98.58-1.66 1.11-2.43.12-.17.1-.32-.05-.45-.28-.23-.52-.27-.74-.12-.25.17-.14.64-.22.9-.07.23-.21.3-.43.21-.12-.04-.3-.16-.44-.15-.05 0-.1.06-.1.11l-.1.88c-.09.57-.64.77-1.03.3-.44-.52-.91-1.1-1.6-1.3-1.26-.36-2.78.53-3.05 1.8-.09.43-.01.8.24 1.11.23.3.78.37.74.9-.73.32-2.2-.3-2.35-1.16a.48.48 0 0 1 .01-.24 7.6 7.6 0 0 1 1.86-3c1.05-1.04 2.12-.67 3.28-.18.46.2.58.07.36-.39a3.84 3.84 0 0 0-.48-.75.33.33 0 0 1 .15-.51c.48-.15 1.07.3 1.48.5.3.14.63-.18.5-.5l-.46-1a.35.35 0 0 1 .16-.46c.83-.4 2.04 1.83 2.94.56.3-.42.55-.8.78-1.17a.3.3 0 0 1 .55.08c.23.83.17 1.7-.16 2.59ZM34.03 15.35c.36-.08.71-.11 1.05-.1.16 0 .3-.04.41-.12.19-.14.22-.3.1-.5a3.15 3.15 0 0 0-2.35-1.38c-.35-.05-.66.14-.74.49l-.33 1.42c-.26 1.14-1.2 1.1-1.97.45-.11-.1-.23-.1-.34 0a.13.13 0 0 0-.05.05.31.31 0 0 0 .09.38l.68.62c.1.08.11.17.06.28-.05.1-.15.14-.31.13a.26.26 0 0 1-.15-.06 3.81 3.81 0 0 0-2-.8.32.32 0 0 1-.2-.1 1.08 1.08 0 0 1-.3-.7c-.03-.29.02-.58.12-.87.18-.5.37-.97.58-1.43l.46-.8a.36.36 0 0 1 .15-.14c.5-.25.73.13.87.56.17.55.36 1.06.59 1.54.05.1.14.17.26.19.1.01.15-.03.14-.13l-.07-1.03c-.12-1.6 1.9-1.64 2.88-1.26a5.74 5.74 0 0 1 3.45 3.71c.2.6.27 2.15-.86 1.88a1.73 1.73 0 0 1-.57-.3c-.5-.37-.88-.66-1.12-.87-.3-.25-.47-.62-.53-1.1Z" fill="#201D1D"/><path d="M19.62 20.18c-1.38.3-2.83 1.35-3.87 2.25-.05.05-.13 0-.13-.06a3.5 3.5 0 0 1 2.93-3.36c.71-.12 1.16-.2 1.35-.25a.8.8 0 0 0 .35-.02c.13-.04.15-.1.05-.2l-.34-.36a.32.32 0 0 1 .13-.53l1.25-.39a.2.2 0 0 0 .1-.3l-.75-1.04a.4.4 0 0 1 .26-.61c.27-.04.53.17.75.32.93.64 2.34 1.95.81 2.85l-2.89 1.7ZM32.73 16.62c.66.09 1.28.36 1.87.8a28.87 28.87 0 0 1 6.76 7.05c.16.24.19.46.08.67a.37.37 0 0 1-.53.14l-1.4-.89c-.78-.48-1.28-.77-1.5-.86-.47-.2-.59-.55-.35-1.04.08-.18.04-.33-.13-.43-.86-.57-1.73-1.26-1.97-2.32a1.21 1.21 0 0 0-.75-.86l-.66-.25c-.41-.16-.57-.02-.47.41.16.7.3 1.23.43 1.62.14.39-.2 1-.55 1.24-.4.27-.68.65-.84 1.15-.28.88-1 .86-1.76.84-.4-.01-.63.28-.52.69.14.47.25.93.34 1.35.04.24 0 .48-.13.68l-.27.42c-.13.2-.21.19-.24-.05a8.17 8.17 0 0 0-.68-2.31.55.55 0 0 1 .1-.62c.51-.5.85-1.09 1.03-1.75a.43.43 0 0 1 .45-.32c.86.07 2.3.08 1.78-1.32-.18-.48-.4-.95-.7-1.4a.3.3 0 0 1 .07-.4c.78-.66-1.29-1.67-.2-2.14.17-.08.42-.11.74-.1ZM16.24 36.72c-.04.21-.17.99-.5.95-.24-.03-.36-.17-.35-.42.02-.96.06-1.9.13-2.82a.3.3 0 0 0-.36-.3c-.17.03-.34.04-.52.02-.12-.02-.18-.1-.19-.22 0-.41.07-.81.24-1.2a19.73 19.73 0 0 1 4.88-6.65c.15-.14.24-.31.28-.52l.01-.1c.04-.2-.03-.24-.2-.14a13.94 13.94 0 0 0-5.3 5.56.09.09 0 0 1-.16 0c-.64-1.46.38-3.41 1.12-4.66.05-.07.03-.13-.04-.17-.07-.04-.14-.03-.22.03l-.49.36a.17.17 0 0 1-.19.02.35.35 0 0 1-.17-.2.25.25 0 0 1 .02-.21 12.82 12.82 0 0 1 5.1-5.05l.54-.23a.23.23 0 0 1 .22.02c.68.4-.25 1.68-.62 2.12-.6.69-1.14 1.4-1.63 2.11-.11.16-.08.2.1.13 1.04-.41 1.98-.8 2.32-2 .07-.23.22-.33.45-.3.2.01.28.12.26.31-.21 1.6.1 3.09 1.07 4.38.13.18.08.26-.13.24-.3-.01-.57-.05-.77-.3l-.62-.75a.19.19 0 0 0-.27-.02 12.5 12.5 0 0 0-2.33 2.85c-.07.11.02.26.15.25l.44-.03c.14 0 .23.14.17.26L17.5 32.4a13.08 13.08 0 0 0-1.26 4.32Z" fill="#201D1D"/><path d="M39.35 24.85c1.8 1.13 2.3 2.97 2.64 4.96.07.37-.42.46-.63.22l-1.24-1.4c-.28-.3-.43-.25-.44.16-.02.65.7 1.34 1 1.87.45.74-.41.93-.22 1.57.34 1.13.64 2.33.65 3.5 0 .5-.66.7-.87.2a10 10 0 0 0-.98-1.84l-.34-.77c-.45-1-1.23-2-1.83-2.88-.18-.26-.3-.53-.36-.82a.27.27 0 0 1 .35-.32l.36.12c.07.03.14-.05.11-.13l-.91-2.22c-.25-.6-.63-1.1-1.14-1.5a.3.3 0 0 0-.46.13c-.26.63-.47 1.42-1.1 1.79a.32.32 0 0 1-.32 0c-.29-.17-.24-.47-.11-.72.68-1.35.82-2.72.41-4.12-.07-.24.18-.47.41-.38.56.22 1.16 1.06 1.48 1.58.68 1.1 1.59 2 2.63 2.78.09.07.23.05.3-.04.1-.17.1-.33-.01-.5a151.2 151.2 0 0 0-1.7-2.3.45.45 0 0 1-.07-.41c.02-.08.06-.1.13-.05l2.26 1.52ZM39.29 35.29a17.4 17.4 0 0 1 1.15 3.94c.11.67.14 1.35.08 2.04-.02.24-.31.39-.5.2a.48.48 0 0 1-.15-.3 2.14 2.14 0 0 0-.34-.95c-.16-.24-.54-.17-.6.11-.1.52-.24 1.11-.55 1.5a.24.24 0 0 1-.41-.08c-.26-.76-.52-1.6-.79-2.5a.97.97 0 0 0-.37-.54c-.58-.39-.94.32-1.04.78a58.88 58.88 0 0 1-1.05 3.99c-.1.33-.3.5-.62.48a.35.35 0 0 1-.33-.38c.05-.53.02-1.06-.1-1.57a.46.46 0 0 0-.26-.33.3.3 0 0 0-.4.15 14.01 14.01 0 0 1-2.2 3.51c-.15.18-.3.32-.45.43-.54.4-.72.28-.55-.37.26-.94.49-1.9.7-2.9.08-.35.09-.67.02-.94-.04-.14-.08-.14-.13 0a31.8 31.8 0 0 1-1.44 3.08c-.08.15-.25.12-.3-.04-.09-.35-.16-.7-.21-1.05a.14.14 0 0 0-.12-.12c-.09-.02-.14.01-.15.1-.04.26-.1.48-.2.68-.12.28-.55.28-.67-.01l-1.13-2.8c-.07-.17-.12-.17-.14.01-.07.64-.04 1.33.1 2.05.05.28-.03.5-.25.65a.22.22 0 0 1-.17.04 2.75 2.75 0 0 1-1.69-.96 7.73 7.73 0 0 1-1.85-4.29c-.05-.4-.17-.43-.38-.08a15.79 15.79 0 0 0-1.38 3.37c-.02.07-.09.1-.15.08a.19.19 0 0 1-.12-.14l-.42-1.7c-.18-.74-.43-.76-.75-.07-.2.46-.39 1.26-.78 1.56a.1.1 0 0 1-.17-.07c-.1-1.54-.03-3 .24-4.38.05-.27.06-.47.03-.61-.12-.53-.32-.57-.62-.11-.25.37-.48.75-.7 1.14-.08.16-.29.2-.42.09-.32-.25-.13-.92-.11-1.26a14.07 14.07 0 0 1 2.75-5.23c.19-.23.64-.61.98-.52a.28.28 0 0 1 .2.3c-.1.76-.27 1.52-.5 2.28a6.4 6.4 0 0 0-.24 1.73c0 .1.05.2.14.25.24.14.43.09.59-.15.21-.33.4-.67.55-1 .12-.26.39-.39.64-.18.1.08.14.24.09.37-.19.43-.24.8-.15 1.1.1.35.25.38.48.1.19-.24.37-.5.54-.79.24-.4.55-.76.91-1.1.18-.15.46-.02.45.21 0 .53-.08 1.06-.25 1.6a6.65 6.65 0 0 0 .46 5.17c.05.12.14.2.26.25.12.05.23.03.33-.06a.23.23 0 0 0 .07-.22 9.7 9.7 0 0 1-.09-1.64c0-.25.1-.28.27-.1.57.58 1.68.38 2.42.6.45.12.9.14 1.34.06.6-.11 1.21-.21 1.86-.3a.7.7 0 0 0 .56-.45c.26-.68.52-1.32.78-1.94.13-.31.22-.65.25-1.03.07-.75.29-.8.65-.14l.64 1.15c.05.09.13.15.23.18.34.1.52-.13.5-.44a77.2 77.2 0 0 1-.19-2.27c-.02-.36.44-.55.68-.27.13.14.27.27.43.38a.3.3 0 0 0 .46-.25 5.91 5.91 0 0 0-1.67-3.85.3.3 0 0 0-.5.1 6.05 6.05 0 0 1-1.67 2.44c-.55.47-.77 1.1-.71 1.8.13 1.67-.11 4.62-2.23 4.62-1.18 0-2.3-.16-3.44-.35a.27.27 0 0 1-.2-.14 5.8 5.8 0 0 1-.83-2.86c0-.13.03-.24.1-.35.33-.56.35-1.16.04-1.8-.08-.17-.01-.33.04-.5.02-.07 0-.12-.07-.15-1.22-.57-1.62-1.94-2.08-3.12-.22-.57.57-1.58.94-1.93.07-.07.16-.1.27-.06.2.05.23.3.13.45-.43.67-1 1.81.22 2.13.53.14 1.07.22 1.62.23.1 0 .17.08.17.18 0 .16-.09.26-.25.3-.39.08-.79.14-1.2.18-.12.01-.13.06-.04.15.2.18.58.21.85.23.34.03.38.15.1.35-.05.04-.15.08-.31.14a.1.1 0 0 0-.02.2c.65.36 1.5-.36 2-.79.92-.78.13-1.67-.57-2.1-.3-.2-.27-.3.08-.3l.46-.02c.38 0 .41-.1.1-.32-.2-.13-.41-.25-.67-.34-.6-.21-.58-.32.06-.32 1.03 0 2.14-.12 3.33-.37.24-.05.45.2.37.43-.24.67-1.14 1.26-1.67 1.73-.76.66-.59 1.42.24 1.85.5.26 1.31.65 1.84.43.12-.05.13-.11.02-.18l-.37-.25c-.1-.08-.08-.24.04-.28a.65.65 0 0 1 .42.01c.34.13.65.2.94.2.27.01.31-.08.11-.26-.34-.31-1-.42-1.22-.75a.15.15 0 0 1 .14-.22c.76.08 2.04.05 2.28-.85.15-.57-.25-1.24-.52-1.73-.1-.17.07-.38.26-.32.26.08.48.23.67.44A23.7 23.7 0 0 1 37 33.98c.2.43.08.78-.33 1.06a.16.16 0 0 0-.05.21c.48.82.86 1.64 1.16 2.46a.2.2 0 0 0 .33.08c.56-.52.06-2.6 0-3.36-.02-.09.02-.16.09-.2.17-.14.33-.1.45.1.3.47.5.8.64.96ZM20.85 20.91c-.22-.76.3-1.4.93-1.75a.49.49 0 0 1 .7.24.6.6 0 0 1-.18.69 6.5 6.5 0 0 0-.94.93.3.3 0 0 1-.51-.1ZM31.27 20.33c.24.52.18 1.25-.5 1.34a.18.18 0 0 1-.2-.2 17 17 0 0 0 .09-.83c.02-.22.46-.64.61-.3ZM24.13 21.8c-.42-.23-.54-.6-.36-1.14.02-.08.06-.09.12-.02l.7.83c.1.11.06.28-.07.35a.4.4 0 0 1-.39-.02ZM24.99 25.22c-.2-.39-.31-1.35-.97-1.13-.62.2-1.3-.06-1.57-.64-.36-.74-1.25-.77-1.19-1.79.02-.24.34-.35.5-.16l.22.28c.18.21.56.27.82.26 2.19-.1 2.66 1.4 2.55 3.2-.02.22-.3.1-.36-.02ZM24.97 27.89c-.03.09-.16.1-.2.01a1.93 1.93 0 0 1-.1-1.67c.1-.24.27-.33.53-.29.14.03.24.17.22.31-.1.56-.24 1.1-.45 1.64Z" fill="#201D1D"/><path d="M32.27 29.69c-.34.4-1.62.49-1.55.41l1.1-1.15c.16-.16.31-.16.46.02.17.21.16.5-.01.72ZM24.06 29.38l1.39.86c.1.06.1.11-.02.15-.66.26-1.86.1-1.73-.84a.24.24 0 0 1 .25-.2c.04 0 .08 0 .11.03Z" fill="#201D1D"/><path d="m31.9 22.9.12-.25c.03-.08.1-.1.18-.1.12.02.17.08.17.2-.05.9-1.3 1.1-1.54.27-.04-.12 0-.15.1-.08.26.16.5.21.75.14.1-.02.17-.08.22-.18ZM27.25 34.7a.15.15 0 0 0-.13-.05c-.21 0-.42 0-.62-.05-.14-.02-.18-.1-.14-.23l.03-.1c.05-.15.15-.2.3-.16.21.06.44.15.66.14.57-.02 1.13 0 1.67.07.09 0 .17-.01.24-.07.2-.15.32-.39.36-.71a.06.06 0 0 1 .07-.06l.09.02c.04 0 .08.03.1.06.04.03.05.08.05.12-.01.34.06.66.2.96.06.1.03.14-.08.14h-.5c-.6.01-.61.12-.05.32.18.06.4.03.64-.11a.27.27 0 0 1 .35.08l.11.17c.1.14.08.27-.06.37-.4.28-.77.3-1.14.07a3.35 3.35 0 0 0-2.7-.37c-.5.12-.93 1.07-1.54.39-.14-.16-.19-.36-.14-.6.03-.1.08-.13.18-.08.33.19.65.18.95-.03a.33.33 0 0 1 .21-.06c.3.02.58 0 .85-.1.08-.01.1-.06.04-.12ZM28.16 38.4l-.16.37a.09.09 0 0 1-.08.05.1.1 0 0 1-.09-.05l-.16-.3a.15.15 0 0 0-.28.06c-.01.1-.05.17-.13.22a.1.1 0 0 1-.09.01.1.1 0 0 1-.06-.06l-.13-.32a.11.11 0 0 0-.2-.02.76.76 0 0 0-.07.15c-.1.3-.2.3-.3-.01l-.11-.38c-.04-.12-.1-.13-.2-.05l-.07.07c-.08.07-.15.05-.2-.04-.26-.5-.77-.83-.7-1.46a.42.42 0 0 1 .5-.37l.63.16c.51.14 1.08-.1 1.54-.3a.36.36 0 0 1 .23-.03c.7.13 1.05.64 1.86.35a.52.52 0 0 1 .36 0c.05.01.1.05.12.1.02.05.03.1.01.16-.17.6-.46 1.14-.86 1.63a.28.28 0 0 1-.18.1c-.15.01-.3 0-.46-.03a.17.17 0 0 0-.16.04l-.06.05c-.07.06-.14.06-.2-.02l-.1-.1c-.08-.1-.15-.1-.2.02ZM22.97 22.77c.28.44.63.84 1.18.4.16-.13.2-.1.12.1-.31.77-1.6.35-1.44-.48.03-.12.07-.12.14-.02Z" fill="#FEFEFE"/></svg>