<svg width="56" height="56" viewBox="0 0 56 56" xmlns="http://www.w3.org/2000/svg"><path fill="#F0F3FA" d="M0 0h56v56H0z"/><path d="m33.36 32.9-.45-.4c0-.06.02-.18.07-.37a4.28 4.28 0 0 0-.45-2.7 6.73 6.73 0 0 0-1.66-1.79c-1.01-.84-1.95-1.63-2.8-2.37-.26-.24-.5-.5-.7-.8-.43-.62-.48-1.52-.34-2.27a73 73 0 0 1 .14-.73c.02-.08 0-.09-.05-.03-.93.99-1.78 2.07-2.57 3.25-.26-.28-.5-.48-.75-.59-.89-.7-1.73-1.49-2.52-2.4a5.03 5.03 0 0 1-1.22-2.66 5.56 5.56 0 0 1 .64-3.54c.69-1.25 1.51-2.39 2.35-3.54A965.34 965.34 0 0 1 25.94 8c.02.02.02.04.02.05 0 .17-.02.35-.05.52-.12.63-.22 1.27-.3 1.9-.06.45-.08.93-.05 1.46.08 1.43.9 2.33 1.9 3.2.67.58 1.4 1.17 2.13 1.74a89.62 89.62 0 0 1 3.48 2.84c.64.57 1.16 1.11 1.55 1.63a7.05 7.05 0 0 1 1.14 5.5 11 11 0 0 1-.52 1.7 84.55 84.55 0 0 1-1.88 4.35Z" fill="#F7CE46"/><path d="M24.55 24.7c-.1.13-.24.35-.42.66-.28.5-.42 1.02-.43 1.54-.02.91.27 1.68.85 2.32.44.48.92.94 1.45 1.39 1.08.92 2.2 1.83 3.19 2.8a4.64 4.64 0 0 1 1.6 3.44c0 .34-.09.7-.13 1.05-.01.13 0 .13.06.02l1.58-3.78a21 21 0 0 0 .6-1.63l.46.38.8.81a6.96 6.96 0 0 1 1.51 6.86c-.23.73-.54 1.53-.93 2.4-.67 1.5-1.46 3.16-2.36 4.96-.06.11-.08.1-.06-.02.09-.64.15-1.37.07-2-.19-1.46-1.3-2.9-2.37-3.9a30.16 30.16 0 0 0-1.82-1.6c-2.4-1.93-4.02-3.26-4.87-3.98-.55-.47-1.1-.99-1.65-1.57a5.52 5.52 0 0 1-1.4-2.4 5.3 5.3 0 0 1 .5-3.85c.27-.48.55-.96.87-1.43.68-1.01 1.4-2.03 2.15-3.07.24.11.5.3.75.6Z" fill="#A1522D"/></svg>