<svg xmlns="http://www.w3.org/2000/svg" width="56" height="56" viewBox="0 0 56 56"><path fill="#F0F3FA" d="M0 0h56v56H0z"/><ellipse cx="29.25" cy="28.02" rx="3.31" ry="13.84" fill="#80C747"/><ellipse cx="8.29" cy="28.02" rx="1.3" ry="5.91" fill="#0DB3EF"/><ellipse cx="13.62" cy="28.02" rx="2.49" ry="9.51" fill="#04AFDA"/><ellipse cx="18.6" cy="28.02" rx="2.88" ry="11" fill="#05ABD5"/><path d="M15.9 31.85a33.69 33.69 0 0 0 0-7.66 39.75 39.75 0 0 0 0 7.66z" fill="#007594"/><ellipse cx="23.92" cy="28.02" rx="3.31" ry="12.61" fill="#00B1B2"/><path d="M21.02 34.02c.3-1.73.46-3.79.46-6s-.17-4.28-.46-6c-.26 1.78-.4 3.83-.4 6s.14 4.22.4 6z" fill="#007199"/><ellipse cx="34.76" cy="28.02" rx="3.02" ry="11.53" fill="#94C93C"/><ellipse cx="39.7" cy="28.02" rx="3.02" ry="9.51" fill="#B3D13F"/><path d="M37.35 33.98c.27-1.74.43-3.78.43-5.96s-.16-4.22-.43-5.96c-.42 1.63-.67 3.7-.67 5.96s.25 4.33.67 5.96z" fill="#66A15F"/><ellipse cx="43.64" cy="28.02" rx="1.85" ry="4.55" fill="#C3DC1C"/><path d="M42.5 31.6a28.13 28.13 0 0 0 0-7.16 8.17 8.17 0 0 0-.71 3.58c0 1.45.28 2.75.71 3.58z" fill="#8AC247"/><ellipse cx="47.9" cy="28.02" rx="1.16" ry="2.86" fill="#CDD736"/><path d="M32.2 34.18c.23-1.85.35-3.95.35-6.16s-.12-4.3-.34-6.16a38.3 38.3 0 0 0-.47 6.16c0 2.27.17 4.38.47 6.16z" fill="#399830"/><path d="M26.52 35.83c.44-2.15.7-4.86.7-7.81 0-2.95-.26-5.66-.7-7.81a49.49 49.49 0 0 0-.58 7.81c0 2.9.21 5.59.58 7.81z" fill="#1A8145"/><path fill-rule="evenodd" d="M32.52 26c-.47 0-.94.25-1.12.38h1.12c.4 0 .47.43.46.65a2.6 2.6 0 0 0-1.4.63c-.5.46-.58 1.17-.55 1.46 0 .3.12.88.58.88.46 0 1.1-.84 1.37-1.26v.67c0 .25 0 .59.37.59.3 0 .65-.5.79-.76-.54.49-.65.2-.63 0v-2.07c0-.8-.4-1.17-1-1.17zm-.9 2.64c0-.57.78-1.02 1.17-1.18.2.62-.49 1.55-.86 1.94-.1-.01-.3-.19-.3-.76zm-16.94-2.26c-.1-.13-.42-.38-.85-.38-.53 0-1.3.14-1.3.75 0 .49.68 1.01 1.02 1.21.28.16.82.6.82 1.07-.02.13-.2.4-.65.4s-.98-.92-1.19-1.38c-.02.65.17 1.95 1.1 1.95.08 0 .34-.1.78-.57.44-.46.49-.88.46-1.04 0-.11-.13-.48-.76-1-.78-.64-1.09-1.2.57-1zm5.28 0c.16-.04.47-.03.47.36V30h.4a.87.87 0 0 0 .45-.76v-.45-.82c.36-.61 1.27-1.88 1.88-1.88a1.15 1.15 0 0 0-1.45.51 7.28 7.28 0 0 0-.6 1.11V26.4c.02-.13-.02-.39-.37-.39-.34 0-.66.26-.78.39zm-4.18 0A2.2 2.2 0 0 1 16.9 26c.58 0 .98.38.98 1.17v2.07c0 .2.1.49.63 0-.13.25-.47.76-.78.76-.37 0-.37-.34-.37-.58v-.68c-.27.42-.91 1.26-1.37 1.26-.47 0-.58-.58-.58-.88-.03-.3.04-1 .54-1.46a2.6 2.6 0 0 1 1.4-.63c.02-.22-.06-.65-.45-.65h-1.12zm1.39 1.08c-.39.16-1.17.61-1.17 1.18s.2.75.31.76c.37-.39 1.05-1.32.86-1.94zm24.73-1.08a2.2 2.2 0 0 1 1.12-.38c.59 0 .99.38.99 1.17v2.07c-.01.2.1.49.63 0-.14.25-.48.76-.78.76-.38 0-.38-.34-.38-.58v-.68c-.26.42-.9 1.26-1.37 1.26-.46 0-.58-.58-.58-.88-.02-.3.05-1 .54-1.46a2.6 2.6 0 0 1 1.41-.63c.01-.22-.06-.65-.46-.65H41.9zm1.4 1.08c-.4.16-1.17.61-1.17 1.18s.2.75.3.76c.37-.39 1.06-1.32.86-1.94zM24.98 26c-1.36 0-1.65 1.39-1.63 2.09-.07.23-.33.45-.46.54l.46-.08c-.04.48.08 1.45.84 1.45 1.09 0 1.43-1.02 1.47-1.53-.17.37-.64 1.1-1.2 1.1-.54 0-.58-.75-.54-1.13l.14-.07a5.43 5.43 0 0 0 1.54-1.1c.36-.42.73-1.27-.62-1.27zm-1.03 2.04c-.03-.5.34-1.9 1.01-1.6.77.35-.29 1.2-1 1.6zm6.67-2.02c-.13.1-.38.34-.38.55v3.89h.31l-.46.48c.14 1.05.04 3.28-1.43 3.9-.41-.03-1.24-.56-1.24-2.56 0-.6.42-1.82 2.16-1.82v-1.71c-.22.57-.85 1.66-1.55 1.46-.7-.2-.53-2.03-.29-2.7.17-.49.62-1.45 1.5-1.49a9.78 9.78 0 0 1 1.38 0zm-2.2 1.5c.4-.96.99-1.1 1.23-1.05 0 1.03-.22 1.8-.34 2.05-.97 2.11-1.39.17-.89-1zm.27 6.76c.64-.08.9-2.28.94-3.38-1.44.16-1.8 1.04-1.8 1.46.02.67.21 2 .86 1.92zm6.97-7.9c.36-.27 1.09-.67 1.11-.06.03.6.01 1.18 0 1.39.59-.9 1.78-2.4 1.87-1.27v1.27c.6-.88 1.83-2.37 1.85-1.27.02 1.1 0 2.27 0 2.71-.02.24.07.6.6.21-.36.48-1.13 1.14-1.26 0-.13-1.13-.1-2.14-.08-2.5-.31.34-.94 1.15-.94 1.55 0 .5-.02 1.58-.32 1.58h-.6V26.8c-.37.45-1.12 1.55-1.12 2.35s-.26.9-.4.84h-.34v-3.26c.03-.12 0-.35-.37-.35z" fill="#fff"/></svg>