<svg width="56" height="56" viewBox="0 0 56 56" xmlns="http://www.w3.org/2000/svg"><path fill="#F0F3FA" d="M0 0h56v56H0z"/><path d="M26.82 11.68c.53-.9 1.83-.9 2.36 0l1.5 2.57c.39.65 1.22.87 1.87.5l2.59-1.48c.9-.51 2.04.14 2.04 1.19l.02 2.98c0 .75.61 1.35 1.36 1.36l2.98.02c1.05 0 1.7 1.13 1.19 2.04l-1.48 2.6c-.37.64-.15 1.47.5 1.85l2.57 1.5c.9.54.9 1.84 0 2.37l-2.57 1.5c-.65.39-.87 1.22-.5 1.87l1.48 2.59c.51.9-.14 2.04-1.19 2.04l-2.98.02c-.75 0-1.35.61-1.36 1.36l-.02 2.98c0 1.05-1.13 1.7-2.04 1.19l-2.6-1.48a1.37 1.37 0 0 0-1.85.5l-1.5 2.57c-.54.9-1.84.9-2.37 0l-1.5-2.57a1.37 1.37 0 0 0-1.87-.5l-2.59 1.48a1.37 1.37 0 0 1-2.04-1.19l-.02-2.98c0-.75-.61-1.35-1.36-1.36l-2.98-.02a1.37 1.37 0 0 1-1.19-2.04l1.48-2.6c.37-.64.15-1.47-.5-1.85l-2.57-1.5c-.9-.54-.9-1.84 0-2.37l2.57-1.5c.65-.39.87-1.22.5-1.87l-1.48-2.59a1.37 1.37 0 0 1 1.19-2.04l2.98-.02c.75 0 1.35-.61 1.36-1.36l.02-2.98c0-1.05 1.13-1.7 2.04-1.19l2.6 1.48c.64.37 1.47.15 1.85-.5l1.5-2.57Z" fill="url(#apeyaryob)"/><path d="M25.76 28.97c-.62 0-1.43-.27-1.76-.4.82 1.5 1.17 3.58 1.25 4.43h3.7c1.78 0 3.05-1.4 3.05-2.5 0-1.09-.83-1.94-2.61-2.79-1.79-.85-3.39-1.2-3.39-2.1 0-.9 1.29-1.61 2.36-1.61 1.07 0 1.54.7 1.86 1.37.6 1.3.93 1.68 1.1 1.68.17-.28-.23-1.24-.45-1.68.18-.15.54-.53.54-.95 0-.51-.72-1.42-2.84-1.42-2.7 0-4.02 1.68-4.02 3.01 0 1.33 1.21 2.4 3.05 3.1 1.85.71 2.02 1.17 2.02 1.62 0 .44-.35 1.27-1.38 1.27-1.36 0-2.02-1.29-2.18-1.88l-.3-1.15Z" fill="#FEFEFE"/><path fill-rule="evenodd" d="M34.6 30.32a7 7 0 1 1 .4-2.63c.05-.05.12-.1.2-.15.13-.09.31-.17.5-.17.23 0 .46.12.64.3.17.17.3.4.3.66 0 .4-.23.7-.35.8l-1.68 1.2Zm0-2.68v.04l.08.04c.08.09.14.17.17.23l.08.15.1-.12c.06-.06.17-.16.29-.24a.74.74 0 0 1 .38-.14c.15 0 .33.09.47.23.15.14.24.33.24.5 0 .3-.18.54-.27.62l-1.55 1.1a25.48 25.48 0 0 1-1.12-1.63 2.1 2.1 0 0 1-.13-.3c0-.15.04-.34.14-.48.1-.14.26-.25.53-.25a.86.86 0 0 1 .58.25Zm-.03-.31a6.6 6.6 0 1 0-.28 2.7 24.73 24.73 0 0 1-1.02-1.5 2.29 2.29 0 0 1-.11-.23.52.52 0 0 1-.05-.18c0-.19.05-.42.18-.62.14-.2.37-.35.72-.35.21 0 .4.08.56.18Z" fill="#FEFEFE"/><path d="m20.31 25-.4-.24c.18-.14.31-.3.39-.47a.58.58 0 0 0 .05-.33.3.3 0 0 0-.19-.24c-.1-.04-.2-.04-.27 0l-.36.3c-.16.16-.32.26-.46.3-.14.05-.3.04-.48-.05a.67.67 0 0 1-.33-.29.75.75 0 0 1-.08-.4c0-.16.05-.31.11-.46.1-.2.21-.38.35-.53l.38.22c-.16.14-.27.29-.34.44-.05.1-.07.2-.06.3.02.1.07.17.17.22.1.04.17.04.23 0l.36-.3c.18-.17.34-.28.49-.33.14-.05.3-.03.48.05a.8.8 0 0 1 .3.23c.08.09.13.19.15.3.02.11.02.23 0 .35a1.5 1.5 0 0 1-.1.37c-.1.2-.22.38-.39.56Zm2.22-3.4-.36.46-.6-.19-.67.86.33.55-.34.43-1.42-2.43.36-.47 2.7.8Zm-1.4.14-.93-.31-.17-.07.08.1.05.08.5.8.47-.6Zm1.79-.3-.43.3-1.52-2.14.7-.5c.14-.1.28-.18.41-.23a.66.66 0 0 1 .4-.03c.13.03.25.12.36.27.1.14.13.28.12.43a.63.63 0 0 1-.2.39.39.39 0 0 1 .24 0c.07.03.15.07.25.14l.84.52-.48.35-.66-.44a.7.7 0 0 0-.24-.12.3.3 0 0 0-.18.02c-.06.02-.14.07-.24.14l.63.9Zm-.87-1.23.2-.13a.61.61 0 0 0 .22-.27c.04-.1.02-.2-.05-.3-.14-.2-.32-.22-.55-.05l-.23.16.41.6Zm3.13-.05-.6.24-1.8-2.11.52-.21 1.13 1.37c.09.1.18.22.27.35a6.28 6.28 0 0 1-.05-.48l-.1-1.74.5-.2.13 2.78Zm2.17-.94.07.42-1.53.27-.46-2.59 1.52-.27.07.43-1 .18.11.62.92-.16.08.42-.92.17.12.69 1.02-.18Zm.1.38.05-.47c.2.12.4.18.6.19.11 0 .22-.03.31-.08a.3.3 0 0 0 .14-.27c0-.11-.03-.2-.1-.25a3.24 3.24 0 0 0-.42-.22c-.2-.1-.35-.2-.45-.3-.1-.12-.14-.27-.14-.47a.68.68 0 0 1 .48-.66c.14-.05.3-.07.46-.07.22 0 .43.05.62.12l-.05.43a1.3 1.3 0 0 0-.54-.14.55.55 0 0 0-.3.07c-.08.04-.13.12-.13.23 0 .1.03.18.1.22.05.04.2.11.41.21.22.1.38.22.48.33.1.11.15.27.15.47 0 .14-.04.27-.1.37a.7.7 0 0 1-.22.25c-.09.07-.2.11-.32.14-.12.03-.24.04-.38.04-.2 0-.43-.05-.65-.14Zm3.68.68-.5-.14.3-1.1-1-.28-.3 1.09-.51-.15.71-2.53.51.15-.29 1.03 1 .28.3-1.02.5.14-.72 2.53Zm2.4 1.6L33 21.5l.38-.94a10.81 10.81 0 0 0 .25-.6 18.48 18.48 0 0 1 .24-.53l-.01-.01a5.64 5.64 0 0 1-.71.68l-.93.84-.56-.4.95-2.55.44.32-.37.96c-.16.43-.3.8-.46 1.08v.01a20.63 20.63 0 0 1 .7-.68l.9-.81.58.4-.4 1.04c-.16.4-.31.73-.45 1h.01a9.43 9.43 0 0 1 .94-.86l.7-.6.42.3-2.08 1.74Zm1.74 2.4-.33-.48.35-.53-.63-.89-.6.17-.32-.45 2.71-.69.34.48-1.52 2.39Zm.28-1.4.55-.8.11-.15-.11.04-.1.04-.9.25.45.63Zm-.23 1.83-.17-.51 2.48-.85.27.82c.06.17.09.32.1.47 0 .14-.02.28-.1.4a.63.63 0 0 1-.35.25.6.6 0 0 1-.44 0 .62.62 0 0 1-.31-.3.4.4 0 0 1-.07.22 1.4 1.4 0 0 1-.2.21l-.75.65-.19-.56.61-.5a.7.7 0 0 0 .18-.2.31.31 0 0 0 .04-.19c-.01-.06-.03-.15-.07-.26l-1.03.35Zm1.41-.49.08.23c.04.13.1.22.19.29.08.07.18.08.3.04.22-.08.29-.25.2-.52l-.1-.27-.67.23ZM19.09 30.38l-.12-.12a.25.25 0 0 0 .08-.1.18.18 0 0 0 0-.1.18.18 0 0 0-.07-.11.13.13 0 0 0-.11-.02c-.06 0-.1.06-.11.15l-.02.13a.5.5 0 0 1-.1.24c-.04.05-.1.1-.18.11-.1.02-.2 0-.28-.05a.38.38 0 0 1-.17-.24.37.37 0 0 1 .03-.27.42.42 0 0 1 .23-.18l.07.17a.3.3 0 0 0-.13.08.19.19 0 0 0-.03.17c0 .06.04.1.08.12.05.03.1.04.15.03a.2.2 0 0 0 .06-.03.16.16 0 0 0 .05-.04.23.23 0 0 0 .03-.06l.02-.08.02-.13c.03-.17.11-.27.24-.3.08-.02.16 0 .24.05.07.05.12.13.14.22.03.14 0 .26-.12.36Zm-.27 1.33-.18-.47-.31-.02-.07-.18 1.38.1-.97.98-.07-.19.22-.22Zm.13-.13.32-.3-.45-.03.13.33Zm.97.7-.88.5-.09-.15.88-.51-.14-.24.14-.09.37.63-.15.09-.13-.24Zm.57.6-.48.74.86-.2.11.15-1.34.3.73-1.16.12.16Zm.86 1.06-.86.81-.12-.13.85-.81.13.13Zm.97 1-.14.16a.5.5 0 0 0-.16-.31.4.4 0 0 0-.31-.1.44.44 0 0 0-.3.16.44.44 0 0 0 .03.62c.05.04.1.07.14.08l.09.02h.1l-.14.17a.64.64 0 0 1-.3-.15.6.6 0 0 1-.21-.42.6.6 0 0 1 .15-.44.6.6 0 0 1 .37-.2c.2-.04.36.01.5.14a.6.6 0 0 1 .18.27Zm.65.93.44.25.23-.4.15.1-.59 1.02-.15-.09.27-.48-.44-.26-.27.48-.16-.09.6-1.03.15.1-.23.4Zm1.45.23-.48 1.08-.17-.07.49-1.09.16.08Zm.06 1.32.58-1.16.15 1 .65-.78-.13 1.3-.17-.06.08-.72-.55.65-.12-.84-.31.66-.18-.05Zm2.57.25-.5-.06-.17.27-.2-.02.74-1.19.4 1.33-.18-.03-.1-.3Zm-.06-.18-.12-.42-.23.38.35.04Zm.98-.68.03 1.02.35-.02v.17l-.52.02-.04-1.19h.18Zm1.62.76-.5.06-.1.3-.19.03.43-1.33.71 1.2-.2.01-.15-.27Zm-.1-.16-.21-.38-.14.43.36-.05Zm.92-.26-.55-.55.2-.05.39.38.13-.53.2-.05-.2.75.14.5-.17.04-.14-.49Zm1.58-.32-.47.19-.02.31-.18.07.1-1.39.97.98-.18.07-.22-.23Zm-.13-.13-.3-.31-.03.44.33-.13Zm.97.04-.68-1.07 1.21.3-.44-.7.15-.1.68 1.07-1.21-.3.44.7-.15.1Zm1.49-2.4-.3.3.2.2.28-.28.12.12-.29.28.4.4-.14.13-.81-.86.42-.4.12.12Zm.6 0a.58.58 0 0 1-.2-.42.6.6 0 0 1 .14-.45c.11-.13.25-.2.42-.22.17-.01.32.04.45.15.13.11.2.25.21.42a.62.62 0 0 1-.15.46.6.6 0 0 1-.87.06Zm.12-.14c.1.09.21.12.33.11a.42.42 0 0 0 .3-.15c.07-.1.1-.2.1-.32a.44.44 0 0 0-.16-.3.43.43 0 0 0-.62.04c-.08.1-.11.2-.1.32 0 .12.06.22.15.3Zm.9-1.15a.58.58 0 0 1-.27-.38.6.6 0 0 1 .06-.47.6.6 0 0 1 .37-.29.59.59 0 0 1 .47.06c.15.09.24.22.28.38.05.17.02.33-.06.48a.61.61 0 0 1-.84.22Zm.1-.16c.11.07.23.08.34.05.12-.03.2-.1.26-.2.07-.1.08-.22.05-.34a.44.44 0 0 0-.21-.27.43.43 0 0 0-.6.16.43.43 0 0 0-.05.33c.03.12.1.21.2.27Zm1.26-1.15-1.1-.45.1-.23c.04-.11.09-.2.13-.25.05-.06.11-.1.19-.14.15-.08.3-.08.47-.01a.57.57 0 0 1 .37.57c0 .07-.02.16-.07.28l-.09.23Zm-.09-.23.03-.08a.68.68 0 0 0 .05-.2c0-.05 0-.1-.02-.16a.4.4 0 0 0-.24-.24.4.4 0 0 0-.35 0c-.1.05-.17.14-.22.28l-.03.08.78.32Z" fill="#FEFEFE"/><defs><linearGradient id="apeyaryob" x1="16.52" y1="17.46" x2="37.87" y2="41.5" gradientUnits="userSpaceOnUse"><stop stop-color="#C08F3F"/><stop offset=".49" stop-color="#925D2A"/><stop offset="1" stop-color="#A37228"/></linearGradient></defs></svg>