<svg width="56" height="56" viewBox="0 0 56 56" xmlns="http://www.w3.org/2000/svg"><path fill="#F0F3FA" d="M0 0h56v56H0z"/><path fill-rule="evenodd" d="M25.08 13C22.36 14.62 19 17.5 19 21c0 5.5 3.5 8 7.5 9.5s6.5 3 6.5 5.5c0 2.25-1.22 4.1-5.48 7H17a4 4 0 0 1-4-4V17a4 4 0 0 1 4-4h8.08ZM21 33.5s1-1.5 1-2.5a1 1 0 1 0-2 0c0 1 1 2.5 1 2.5Zm0 2.5a1 1 0 1 0 0-2 1 1 0 0 0 0 2Zm1 3c0-1-1-2.5-1-2.5S20 38 20 39a1 1 0 1 0 2 0Zm-2.5-3.96s-1.5-1-2.5-1a1 1 0 1 0 0 2c1 0 2.5-1 2.5-1ZM25 34c-1 0-2.5 1-2.5 1s1.5 1 2.5 1a1 1 0 1 0 0-2Zm-5.03-.03s-.35-1.76-1.06-2.47a1 1 0 0 0-1.41 1.41c.7.71 2.47 1.06 2.47 1.06Zm-1.06 4.5c.71-.7 1.06-2.47 1.06-2.47s-1.76.35-2.47 1.06a1 1 0 1 0 1.41 1.41Zm3.09-4.5s.35-1.76 1.06-2.47a1 1 0 0 1 1.41 1.41c-.7.71-2.47 1.06-2.47 1.06Zm1.09 4.5c-.71-.7-1.06-2.47-1.06-2.47s1.76.35 2.47 1.06a1 1 0 1 1-1.41 1.41Z" fill="#026EB7"/><path d="M29.18 13C26.19 14.16 23 16.16 23 19c0 4.65 4.28 5.97 5.73 6.41l.27.09.4.12c2 .62 7.6 2.34 7.6 8.38 0 4.37-3.25 7.4-5.95 9H39a4 4 0 0 0 4-4V17a4 4 0 0 0-4-4h-9.82ZM34 19v-3h3v3h3v3h-3v3h-3v-3h-3v-3h3Z" fill="#FD0D00"/><path d="M32 20v1h3v3h1v-3h3v-1h-3v-3h-1v3h-3Z" fill="#05AA5C"/></svg>