<svg width="56" height="56" viewBox="0 0 56 56" xmlns="http://www.w3.org/2000/svg"><path fill="#F0F3FA" d="M0 0h56v56H0z"/><path fill-rule="evenodd" d="M18.69 29c-.58 0-.88.2-.96.27 1.42 1.28 3.08 1.59 3.78 1.72l.06.01H23c1.7 0 2.5-1.3 2.7-1.96l.3-1.84c0-1.32-1.26-1.66-1.89-1.7h-4.15a.6.6 0 0 1-.58-.64c0-.46.45-.83.67-.86h4.35a2.63 2.63 0 0 0 2.6-2h-7.1c-1.67 0-2.47 1.37-2.66 2.06l-.23 1.5c-.2 1.5 1.21 1.89 1.94 1.94h4.05c.36 0 .47.39.48.54 0 .58-.42.97-.63.96h-4.17Zm8.49 2 1.63-9h7.16c.7.06 2.05.56 1.82 2.1l-.85 4.7c-.15.73-.9 2.2-2.72 2.2h-7.04Zm3.4-6.23.14-.77h4.04c.38 0 .52.42.55.63 0 .66-.46.86-.69.87h-3.5c-.5 0-.57-.49-.53-.73Zm3.6 2.73h-3.53c-.32 0-.68.35-.68.88 0 .42.34.59.5.62h3.3c.48 0 .93-.21.93-.87 0-.52-.34-.64-.52-.63ZM49 22h-7.1c-.74.03-2.3.54-2.59 2.3l-.76 4.25c-.19.81-.06 2.45 1.97 2.45h6.87c.1-.74-.14-2-1.94-2h-3.64c-.34-.05-.97-.53-.82-1.26l.45-2.52c.08-.34.46-1.22 1.34-1.22h3.72a2.6 2.6 0 0 0 2.5-2Z" fill="url(#aeitxbxw4)"/><path d="M11.28 26.13 6 30.18c4.48-2.26 7.04 1.94 9.58 4.75 2.03 2.26 4.42 2.22 5.36 1.93L26 32.45c-6.15 1.22-9.01-3.16-10.9-5.1-1.52-1.54-3.18-1.45-3.82-1.22Z" fill="#009A3F"/><path d="m11.3 26.37-3.49 2.66A5.25 5.25 0 0 1 12 30.49c1.94 1.86 4.7 6.81 8.86 6.14l4.03-3.5c-4.77.32-8.3-3.35-10.01-5.32-1.38-1.59-2.96-1.62-3.58-1.44Z" fill="url(#beitxbxw4)"/><path d="m12 31.75 2 2.35-3.25 2.7a3.51 3.51 0 0 0 1.01-2.34c0-1.36-.73-3.13-2.55-3.13-1.82 0-2.41 1.8-2.41 2.57 0 .62.31 1.16.47 1.36l.72-.33c-.37-.51-.25-2.11 1.12-2.11 1.09 0 1.43 1.1 1.46 1.64.04.85-.47 2.54-2.83 2.54-2.09 0-2.7-1.93-2.74-2.9C5 31.75 6.7 30 8.67 30a4.6 4.6 0 0 1 3.32 1.75Z" fill="#B4CB17"/><path d="M10.35 34.48c-.01-.24-.1-.61-.3-.91-.19-.29-.48-.52-.94-.52-.3 0-.52.09-.67.21-.16.13-.27.3-.33.5-.07.2-.1.41-.07.6.01.2.07.34.13.43l.17.23-1.14.52-.1-.13a2.6 2.6 0 0 1-.52-1.51c0-.44.16-1.13.56-1.71a2.42 2.42 0 0 1 2.07-1.09c.99 0 1.69.49 2.14 1.15.44.66.63 1.5.63 2.21 0 .45-.1.86-.24 1.22l1.94-1.6-1.86-2.18c-.2-.27-.62-.7-1.18-1.04a3.74 3.74 0 0 0-1.97-.63c-1.85 0-3.45 1.64-3.45 3.87.02.44.17 1.12.56 1.67.38.55 1 1 1.96 1 1.13 0 1.78-.4 2.15-.87.37-.48.48-1.05.46-1.42Z" fill="url(#ceitxbxw4)"/><defs><linearGradient id="aeitxbxw4" x1="33" y1="23.25" x2="33" y2="31" gradientUnits="userSpaceOnUse"><stop offset=".35" stop-color="#313133"/><stop offset=".36" stop-color="#59575C"/></linearGradient><linearGradient id="beitxbxw4" x1="9.33" y1="27.93" x2="21.92" y2="35.97" gradientUnits="userSpaceOnUse"><stop stop-color="#BDD97D"/><stop offset=".36" stop-color="#009A42"/><stop offset=".55" stop-color="#009A42"/><stop offset="1" stop-color="#9FCE6E"/></linearGradient><linearGradient id="ceitxbxw4" x1="5.48" y1="32.47" x2="10.49" y2="34.58" gradientUnits="userSpaceOnUse"><stop stop-color="#F1F5DC"/><stop offset="1" stop-color="#B3CA17"/></linearGradient></defs></svg>