<svg width="56" height="56" viewBox="0 0 56 56" xmlns="http://www.w3.org/2000/svg"><path fill="#F0F3FA" d="M0 0h56v56H0z"/><path d="M25 13.78v11.48s1.41-.45 2.39-8.78L26 11l-1 2.78Z" fill="#020270"/><path d="M26 11v14.86c0-1.2 1.37-1.82 2.5-1.82V11.5L26 11Z" fill="#92CDF7"/><path d="M28.5 25V11.53L31 12v12.37l-2.5.63Z" fill="#2660B2"/><path d="M27.01 39.68 28.5 42l1.36-3.07-.67-17.57L27 24.51v15.17Z" fill="#030171"/><path d="M33 12.37 31 12v13s2-1.5 2-1.8V12.38Z" fill="#92CDF7"/><path d="M30.54 32.85c.66 2.04 4.5 4.57 6.46 5.65a55.97 55.97 0 0 1-3.68-6.4c-.84-1.87-1.25-6.34-1.35-8.34l-2.33-1.5c.02 2.68.24 8.54.9 10.59Z" fill="#020270"/><path d="M22 22.67S22.6 21 28.92 21c6.33 0 7.08 1.67 7.08 1.67V25H22v-2.33Z" fill="url(#atbrbj5td)"/><ellipse cx="29" cy="25" rx="7" ry="1" fill="#134079"/><path d="M28.5 42V25H31v16.21l-2.5.79Z" fill="#2660B2"/><path d="M31 25c0 10.5 5.92 14.5 9 15v-3c-5.42-1.03-6.69-7.49-7-12h-2Z" fill="#92CDF7"/><path d="M16.2 38.63 15 41c.68-.1 2.39-.29 3.83-.05 1.44.25 5.25-5.9 6.98-9l1.58-3.98L25.98 25H25c0 8.29-5.82 12.7-8.8 13.63Z" fill="#080161"/><path d="M15 41v3c11.41-4.95 13.5-12.47 13.5-19H26c0 9-7.37 14.72-11 16Z" fill="#90CEF7"/><path d="M33.18 23.81c.1 0 .18-.02.2-.05.03-.02.04-.08.04-.17v-.96c0-.08-.01-.13-.04-.15-.03-.02-.1-.04-.2-.04v-.05h.75v.05c-.1 0-.17.01-.2.04-.03.02-.04.07-.04.15v.45c.16-.11.3-.2.4-.29.18-.15.27-.24.27-.28 0-.03-.01-.05-.04-.06a.48.48 0 0 0-.14-.01v-.05h.7v.04a.67.67 0 0 0-.2.04.96.96 0 0 0-.2.14l-.5.4.6.56.24.2c.04.02.1.03.18.04v.04h-.8v-.04l.14-.01c.03-.01.04-.03.04-.05 0-.01 0-.03-.02-.05a.48.48 0 0 0-.08-.1l-.5-.45-.1.06v.4c0 .08.02.14.05.16.03.02.1.03.2.04v.04h-.75v-.04ZM30.67 23.55c.1-.01.16-.03.2-.05.02-.02.04-.07.04-.15v-.98c0-.08-.02-.13-.05-.15-.03-.03-.09-.04-.19-.05v-.04h.75v.04c-.1 0-.16.02-.2.04-.03.02-.05.07-.05.14v1.06c0 .03 0 .05.02.06l.06.03h.07a4.66 4.66 0 0 0 .6-.05c.08-.03.16-.11.23-.24h.07l-.13.38h-1.42v-.04ZM29.92 22.92l-.31-.61-.3.6h.6Zm-1.14.56v-.04c.07 0 .12-.03.15-.06.03-.04.1-.14.17-.3l.55-1.08h.06l.65 1.25.1.15c.03.02.08.03.14.04v.04h-.67v-.04c.08 0 .13-.01.15-.02.02 0 .03-.03.03-.06l-.01-.06a.56.56 0 0 0-.04-.08l-.1-.21h-.7a11.17 11.17 0 0 0-.14.33c0 .04.02.07.05.08a.5.5 0 0 0 .13.02v.04h-.52ZM27.92 22v.04l-.14.01c-.04.01-.06.04-.06.07l.02.08.09.16.4.76.38-.82.04-.1a.2.2 0 0 0 .01-.06c0-.04-.02-.07-.06-.08a.48.48 0 0 0-.13-.02V22h.54v.04c-.06 0-.1.02-.12.04a.42.42 0 0 0-.12.16l-.59 1.24h-.04l-.65-1.2a.65.65 0 0 0-.13-.2.26.26 0 0 0-.14-.04V22h.7ZM26.34 23.42c.1-.01.17-.02.2-.04.04-.02.05-.08.05-.16v-.98c0-.08-.01-.13-.04-.16-.04-.02-.1-.03-.21-.04V22h.78v.04c-.1 0-.18.02-.21.04-.03.03-.05.08-.05.16v.98c0 .08.02.14.05.16.03.02.1.03.2.04v.04h-.77v-.04ZM24.43 23.68c.1-.01.17-.03.2-.05.02-.02.04-.08.04-.18v-.95c0-.08-.02-.13-.05-.15-.03-.03-.09-.04-.19-.05v-.04h.74v.04c-.1 0-.16.02-.2.05-.02.02-.04.07-.04.15v.43h.8v-.43c0-.08-.01-.13-.04-.15-.03-.03-.1-.04-.19-.05v-.04h.73v.04c-.1 0-.16.02-.19.05-.02.02-.04.07-.04.15v.98c0 .08.02.13.04.15.03.03.1.04.2.05v.04h-.74v-.04c.1-.01.17-.03.2-.05.02-.02.03-.08.03-.18v-.42h-.8v.45c0 .08.02.13.05.15.03.03.09.04.19.05v.04h-.74v-.04ZM23.1 23.53c.04.1.1.18.15.23.1.1.24.16.4.16.07 0 .15-.02.2-.07.07-.04.1-.1.1-.18a.24.24 0 0 0-.1-.2 1.67 1.67 0 0 0-.25-.14l-.22-.12a.8.8 0 0 1-.16-.1.31.31 0 0 1-.12-.24c0-.1.05-.2.14-.28.09-.07.2-.1.35-.1.06 0 .13 0 .21.03l.15.04c.03 0 .05 0 .07-.02a.12.12 0 0 0 .03-.06h.05l.06.47h-.06a.49.49 0 0 0-.21-.3.55.55 0 0 0-.28-.08.33.33 0 0 0-.2.06.17.17 0 0 0-.07.14c0 .06.02.1.06.15.04.04.1.08.2.13l.22.12c.15.07.25.14.31.2s.09.14.09.23c0 .11-.05.2-.16.28a.65.65 0 0 1-.4.12.92.92 0 0 1-.25-.04 1.1 1.1 0 0 0-.16-.04c-.03 0-.05.01-.06.03a.14.14 0 0 0-.02.05h-.06l-.08-.47h.06Z"/><defs><linearGradient id="atbrbj5td" x1="22" y1="23" x2="36" y2="23" gradientUnits="userSpaceOnUse"><stop stop-color="#4A6FA3"/><stop offset=".73" stop-color="#B1D8F7"/></linearGradient></defs></svg>