<svg width="56" height="56" viewBox="0 0 56 56" xmlns="http://www.w3.org/2000/svg"><path fill="#F0F3FA" d="M0 0h56v56H0z"/><path d="M8.87 40c.2 0 .38-5.37.38-12s-.17-12-.38-12-.39 5.37-.39 12 .18 12 .39 12Zm-2.1-11.86c0 3.53-.18 6.4-.39 6.4-.21 0-.38-2.87-.38-6.4 0-3.54.17-6.41.38-6.41s.38 2.87.38 6.4Zm4.96 0c0 3.53-.17 6.4-.38 6.4s-.38-2.87-.38-6.4c0-3.54.17-6.41.38-6.41s.38 2.87.38 6.4Z" fill="#786F50"/><path d="M21.93 23.27v2.1h-.4c-.06-.7-.32-1.79-1.77-1.7-1.45.08-2.26 1.26-.91 2.39 1.35 1.12 3.65 1.8 3.73 3.87.08 2.09-1.49 3.13-3.36 3.07a4.7 4.7 0 0 1-2.81-.94l.4-2.4c.25 1.71 1.22 2.67 2.41 2.63 1.2-.04 1.9-.5 1.87-1.2-.02-.72.12-1.43-2.24-2.55-1.9-.9-2.33-2.27-2.3-2.83.03-3.3 3.8-2.73 4.06-2.57.21.14.97.14 1.32.13Z" fill="#1B355C"/><path fill-rule="evenodd" d="M23.9 23h4.55c.8.06 2.42.65 2.45 2.48-.03.52-.32 1.67-1.27 2.1.62.17 1.88.92 1.9 2.65.03 2.16-2.13 2.67-3.08 2.77h-4.54c.36-.13 1.09-.58 1.09-1.37v-7.32c-.03-.44-.29-1.31-1.1-1.31Zm3.1 9.27v-8.73c.7-.04 1.9.3 1.88 2-.02 1.71-1.14 2.14-1.7 2.14.75.08 2.24.7 2.2 2.58-.05 1.89-1.55 2.12-2.38 2Z" fill="#1B355C"/><path d="M38.53 23h-5.4c.46.22.74.68.87.88v7.93c-.03.5-.56 1-.87 1.19h3.94c-.66-.25-.94-.9-1.07-1.19v-3.28h1.9c.76.14 1.09.92 1.1 1.3v-3.56c-.03.8-.78 1.2-1.1 1.29H36V24h2.53c.64.11.9.95.96 1.42v-2.7l-.96.28ZM50 31.9c-.91.68-2.07 1.1-3.33 1.1-2.93 0-5.3-1.95-5.3-5 0-3.06 2.37-5 5.3-5 1.26 0 2.42.41 3.33 1.1v2.41c-.51-1.67-1.85-2.86-3.27-2.86-1.8 0-3.26 1.94-3.26 4.34s1.46 4.35 3.26 4.35c1.42 0 2.76-1.2 3.27-2.87v2.42Z" fill="#1B355C"/></svg>