<svg width="56" height="56" viewBox="0 0 56 56" xmlns="http://www.w3.org/2000/svg"><path fill="#F0F3FA" d="M0 0h56v56H0z"/><path d="M6.09 24c.66 0 1.91.42 1.91.42v.84s-1.25-.42-1.91-.42c-.99 0-1.15.72-1.15 1.69 0 .7.85 1.05 1.32 1.3.88.49 1.74.74 1.74 2.06C8 31.26 6.83 32 5.7 32c-.7 0-1.42-.31-1.7-.47l.34-.75c.23.13.83.38 1.36.38.7 0 1.53-.38 1.53-1.27 0-.9-.72-.98-1.32-1.3l-.02-.02c-.77-.42-1.72-.95-1.72-2.04 0-.01 0 0 0 0C4.17 25.1 4.7 24 6.1 24ZM9 30v-4h.8v4c0 .14.1.46.35.74.23.28.53.46.85.46.42 0 .64-.09.8-.18.12-.09.21-.18.34-.32l.06-.06V26h.8v4.97l-.12.11-.11.12c-.15.16-.33.34-.54.48-.3.2-.69.32-1.23.32-.64 0-1.14-.35-1.47-.74A2.14 2.14 0 0 1 9 30ZM14.82 27.1c.34-.12.93-.27 1.64-.27V26c-1.05 0-1.9.3-2.23.46l-.23.11V32h.82v-4.9ZM50.09 26.8c-.86 0-1.54.25-1.75.36l-.34-.72c.3-.16 1.1-.44 2.09-.44.91 0 1.91.5 1.91 1.54v3.83c-.43.44-1.34.63-1.91.63-1.17 0-1.92-.86-1.92-2 0-1.5 2-1.57 3.06-1.6v-.73c0-.51-.62-.87-1.14-.87Zm1.14 2.4c-.49.02-2.3-.08-2.3.8 0 .72.42 1.2 1.16 1.2.59 0 .96-.12 1.14-.21V29.2ZM43.09 26.8c-.86 0-1.54.25-1.75.36l-.34-.72c.3-.16 1.1-.44 2.09-.44.91 0 1.91.5 1.91 1.54v3.83c-.43.44-1.34.63-1.91.63-1.17 0-1.92-.86-1.92-2 0-1.5 2-1.57 3.06-1.6v-.73c0-.51-.62-.87-1.14-.87Zm1.14 2.4c-.49.02-2.3-.08-2.3.8 0 .72.42 1.2 1.16 1.2.59 0 .96-.12 1.14-.21V29.2ZM19.09 26.8c-.86 0-1.54.25-1.75.36l-.34-.72c.3-.16 1.1-.44 2.09-.44.91 0 1.91.5 1.91 1.54v3.83c-.43.44-1.34.63-1.91.63-1.17 0-1.92-.86-1.92-2 0-1.5 2-1.57 3.06-1.6v-.73c0-.51-.62-.87-1.14-.87Zm1.14 2.4c-.49.02-2.3-.08-2.3.8 0 .72.42 1.2 1.16 1.2.59 0 .96-.12 1.14-.21V29.2ZM47 24l-.77 1v7H47v-8ZM23 26v-1.58l.82-.42v2H25v.84h-1.18v3.48c0 .49.17.84.65.84.3 0 .72-.07.95-.3l.58.6c-.38.39-1 .54-1.53.54-.93 0-1.47-.74-1.47-1.68v-3.48h-1V26h1Z" fill="#006CB5"/><path d="M28.52 32 27 26h.83l1.02 4 1.08-4h1.05l1.1 4.05L33.15 26H34l-1.62 6h-.62l-1.3-4.85L29.13 32h-.62ZM34 28.2l.39-1.65.81 3.45 1-4h.99l1.01 4.05L39.22 26H40l-1.5 6h-.59l-1.21-4.85L35.48 32h-.59L34 28.2Z" fill="#28557C"/><circle cx="30.5" cy="23.5" r=".5" fill="#28557C"/><circle cx="33.5" cy="23.5" r=".5" fill="#28557C"/><circle cx="36.5" cy="23.5" r=".5" fill="#28557C"/></svg>