<svg width="56" height="56" viewBox="0 0 56 56" xmlns="http://www.w3.org/2000/svg"><path fill="#224C98" d="M0 0h56v56H0z"/><path fill="#00B0E8" d="M25 22h4v4h-4zM27 30h4v4h-4z"/><path d="M35 14.03v7.52c-2 0-4-1.65-4-3.7v-2.66c0-1.86-1.08-3.36-2.9-3.36-1.8 0-3.1 1.5-3.1 3.36v12.75c0 1.32.72 2.17 2 2.06v4c-3.43 0-6-2.85-6-6.37V14.45C21 11.21 24.12 8 28.06 8h.3C31.6 8 35 10.7 35 14.03Z" fill="#fff"/><path d="M21 41.97v-7.52c2 0 4 1.65 4 3.7v2.66c0 1.86 1.08 3.36 2.9 3.36 1.8 0 3.1-1.5 3.1-3.36V28.06c0-1.32-.72-2.17-2-2.06v-4c3.43 0 6 2.85 6 6.37v13.18c0 3.24-3.12 6.45-7.06 6.45h-.3C24.4 48 21 45.3 21 41.97Z" fill="#fff"/></svg>