<svg width="56" height="56" viewBox="0 0 56 56" xmlns="http://www.w3.org/2000/svg"><path fill="#48883E" d="M0 0h56v56H0z"/><path d="M16.6 35.56a5.21 5.21 0 0 0 2.7-1.08 2.96 2.96 0 0 0 1.1-2.68 2.6 2.6 0 0 0-1-1.76 4.8 4.8 0 0 0-1.84-.9l-4.63-1.2a4.98 4.98 0 0 1-2.27-1.19 3.55 3.55 0 0 1-1.1-2.34c-.06-.74.02-1.44.23-2.08.2-.6.51-1.15.94-1.62.42-.46.92-.83 1.52-1.11a6.03 6.03 0 0 1 1.92-.54c.9-.1 1.78-.07 2.64.1.9.18 1.7.49 2.38.93a4.77 4.77 0 0 1 2.2 4.51c-.02.42-.23.65-.63.69h-.1c-.5.06-.76-.18-.8-.7-.14-2.27-1.32-3.63-3.53-4.08a5.8 5.8 0 0 0-2.02-.03c-.78.11-1.43.35-1.93.7-.55.4-.92.94-1.12 1.62-.2.67-.19 1.33.03 1.97.18.54.53.95 1.05 1.23.21.12.48.23.8.33a21.63 21.63 0 0 0 1.1.3 625 625 0 0 0 3.82 1 6.1 6.1 0 0 1 2.61 1.32c.79.7 1.22 1.56 1.3 2.58.11 1.24-.15 2.31-.77 3.23a5.02 5.02 0 0 1-3.1 1.97c-1.13.28-2.39.34-3.78.19-1.77-.2-3.11-.8-4.03-1.82-.98-1.07-1.4-2.54-1.26-4.39.03-.48.28-.7.74-.67l.12.01c.41.03.63.26.66.7l.09 1.09c.12 1.45.83 2.5 2.12 3.13.54.27 1.16.46 1.86.55.64.1 1.3.1 1.97.04ZM39.8 35.53l7.51.02c.36 0 .58.19.67.56.04.16.02.34-.06.53-.04.1-.11.2-.2.26a.5.5 0 0 1-.3.1h-9.3a.11.11 0 0 1-.08-.04.13.13 0 0 1-.04-.09V20.14c0-.1.02-.2.05-.28.2-.6.47-.9.79-.86.52.06.78.37.78.93v15.4c0 .13.06.2.18.2ZM26.63 33.48a.1.1 0 0 0-.07.07.1.1 0 0 0 .02.1 5.54 5.54 0 0 0 3.24 1.82c.76.14 1.53.17 2.3.08.86-.1 1.59-.33 2.17-.69.26-.16.53-.28.8-.37.3-.08.55-.01.74.23.1.11.15.27.17.46a.61.61 0 0 1-.3.58 8.63 8.63 0 0 1-6.3 1.04c-3.02-.63-5-2.49-5.93-5.57a11.2 11.2 0 0 1 .47-7.68 7.43 7.43 0 0 1 6.08-4.47 9.05 9.05 0 0 1 4.46.51c.15.06.26.16.34.3a3.36 3.36 0 0 1 .18.53c.44 1.6.56 3.14.34 4.6a8.96 8.96 0 0 1-1.48 3.8 10.4 10.4 0 0 1-3.01 2.88 14.34 14.34 0 0 1-4.22 1.78Z" fill="#fff"/><path d="M28.44 26.28a8.62 8.62 0 0 0-3.48 3.4c-.08.15-.13.14-.16-.02a10.4 10.4 0 0 1 .2-4.25 6.77 6.77 0 0 1 2.1-3.57 5.9 5.9 0 0 1 2.93-1.34 7.74 7.74 0 0 1 3.27.19.4.4 0 0 1 .31.34c.26 1.4.26 2.71.03 3.93a8.13 8.13 0 0 1-1.36 3.18 8.9 8.9 0 0 1-2.55 2.38 12.5 12.5 0 0 1-3.56 1.5c-.15.04-.23-.02-.25-.17-.11-1.17.06-2.2.52-3.1a8.6 8.6 0 0 1 2.04-2.4c.17-.15.16-.17-.04-.07Z" fill="#AAC038"/></svg>