<svg width="56" height="56" viewBox="0 0 56 56" xmlns="http://www.w3.org/2000/svg"><path fill="#F0F3FA" d="M0 0h56v56H0z"/><path fill-rule="evenodd" d="m36.59 24.33-.32 1.56.38-.42H38l-1.26 5.13c-.07.32.2.37.34.4h1.65l.1-.1-.1-.06a.13.13 0 0 1-.11-.16l1.19-5.24h1.37c.34 0 .47-.22.49-.33l.25-1.2h-.33c0 .1-.05.1-.1.1a.2.2 0 0 0-.03-.01h-4.55c-.23 0-.32.24-.33.33Zm-21.33.7.21-.95.67.16c.06.02.18.1.14.29l-1.44 5.94c-.06.18-.04.53.44.53h2.1l-.63-.28c-.04-.01-.1-.1-.04-.33l.25-1.11.3-1.28h.37l.65 2.6c.04.14.17.4.48.4h1.14c.11 0 .35-.06.41-.3l.24-1h-.35a.36.36 0 0 1-.39-.23 62.8 62.8 0 0 1-.47-1.47c.41 0 1.23-.15 1.46-1.03.1-.35.29-1.07.33-1.48l.15 5.04c.01.26.23.47.5.47h1.51l3.81-6.52a.32.32 0 0 0-.28-.48H24.4l.8.23c.06.02.13.1.05.22L23 28.35l-.12-4.02c0-.11-.08-.33-.32-.33h-1.62v.23c.06 0 .17.04.17.23l.01.6c-.07-.47-.35-1.06-1.37-1.06H10.9v.24c.1 0 .08.17.06.25L9.36 31h4.75l.35-1.67h-.3l-.11.32H11.5l.34-1.42c.03-.15.16-.23.31-.23h2c.15 0 .29-.13.32-.28l.2-1.06h-2.45l.3-1.37h2.42c.15 0 .28-.1.31-.26Zm2.65.21-.36 1.54h.9c.69 0 .94-.44.94-.98 0-.43-.23-.55-.35-.56h-1.13ZM4 30.55l.36-1.4h.4l-.08.25c-.06.2.2.24.33.24h1.2c.77 0 1.02-.16 1.24-.8.17-.5-.62-.69-1.14-.81-.14-.03-.26-.06-.34-.1-.4-.13-.89-.41-.9-1.07 0-.53.11-1.1.18-1.33.4-1.52 1.79-1.52 1.79-1.52s1.84-.02 2.76 0l-.22.95a.46.46 0 0 1-.44.36H7.56c-.49 0-.52.17-.6.55l-.01.08c-.1.44.2.52.61.62.33.08.8.23 1 .29 1.22.44.84 2.04.46 3.07-.3.81-1.21 1.05-1.64 1.07H4.6c-.5 0-.61-.3-.6-.45ZM42.3 24h4.6l-.24 1.03a.32.32 0 0 1-.31.26h-2.42l-.31 1.39h2.44l-.2 1.06a.32.32 0 0 1-.32.26h-1.99c-.15 0-.29.1-.32.25l-.32 1.4h2.54l.1-.32h.31l-.28 1.35a.4.4 0 0 1-.4.32h-3.9a.4.4 0 0 1-.4-.5l1.48-6c.02-.1.04-.26-.06-.26V24ZM52 24l-.2 1.04c-.03.1-.16.28-.51.28h-1.76a.3.3 0 0 0-.28.17c-.1.18-.95 2.03-.95 3.74 0 .1.04.3.28.3h1.88c.12 0 .38-.08.43-.38h.34l-.2 1.34c-.04.17-.26.5-.82.5a373.2 373.2 0 0 0-2.43.01c-.5.05-1.47-.13-1.39-1.2.08-1.06.2-1.64.36-2.34l.12-.56c.2-1 .6-1.95.82-2.33.21-.38.56-.52 1.31-.57h3Z" fill="url(#a5kitgqco)"/><path fill-rule="evenodd" d="M49 24c-.76.05-1.1.2-1.31.57a9.1 9.1 0 0 0-.82 2.33l-.12.56c-.15.7-.28 1.28-.36 2.35-.08 1.06.9 1.24 1.4 1.19h2.41c.57 0 .79-.34.83-.5l.2-1.35h-.34c-.05.3-.3.38-.43.37h-1.88c-.24 0-.28-.2-.28-.3 0-1.7.84-3.55.95-3.73a.3.3 0 0 1 .28-.17h1.76c.35 0 .48-.18.5-.28L52 24h-3Zm0 .1c-.37.03-.63.07-.82.16a.8.8 0 0 0-.4.36 9 9 0 0 0-.93 2.86c-.16.7-.28 1.27-.36 2.33-.02.25.02.44.1.6.08.14.2.25.33.32.27.16.62.2.86.17h2.42c.52 0 .7-.3.73-.43l.19-1.22h-.15a.5.5 0 0 1-.21.28.54.54 0 0 1-.3.1m-1.45-5.53h2.87l-.18.92c-.02.05-.1.2-.41.2h-1.76a.4.4 0 0 0-.37.22c-.06.1-.3.61-.52 1.32-.22.7-.44 1.6-.44 2.46 0 .07.01.16.06.25.06.09.16.15.32.15h1.88m-8.78-4.5.25-1.2h-.33c0 .09-.05.08-.1.08a.2.2 0 0 0-.03 0h-4.55c-.23 0-.32.24-.33.33l-.32 1.56.38-.42H38l-1.26 5.13c-.07.32.2.37.34.4h1.65l.1-.1-.1-.06a.13.13 0 0 1-.11-.16l1.19-5.24h1.37c.34 0 .47-.22.49-.33Zm-3.05 5.78a.22.22 0 0 1-.08-.09.24.24 0 0 1-.02-.14l1.21-5.33h1.45c.29 0 .38-.18.39-.25l.23-1.07h-.13a.15.15 0 0 1-.07.06c-.04.03-.1.02-.11.02H36.91a.2.2 0 0 0-.16.1.41.41 0 0 0-.08.14l-.24 1.21.16-.18h1.54l-1.29 5.25a.26.26 0 0 0 0 .14l.05.07c.06.04.13.05.2.07h1.53ZM19.74 24c.75 0 1.1.32 1.26.67.06.13.1.26.11.38a138.57 138.57 0 0 1-.01-.59c0-.18-.1-.22-.16-.23h-.01V24h1.62c.24 0 .32.22.32.33l.12 4.02.1-.16 2.16-3.74c.08-.12 0-.2-.04-.22L24.4 24h2.42c.25 0 .41.27.28.48L23.3 31h-1.53a.48.48 0 0 1-.49-.47 4316.15 4316.15 0 0 1-.15-5.04l-.09.5c-.07.36-.17.76-.24.98-.2.8-.92 1-1.36 1.03h-.1l.03.1.44 1.37c.08.22.3.25.39.24h.35l-.02.1-.22.89c-.06.24-.3.3-.4.3h-1.15c-.3 0-.44-.26-.48-.4l-.65-2.6h-.38l-.29 1.28-.25 1.1c-.06.24 0 .33.04.34l.63.28h-2.1c-.48 0-.5-.35-.44-.53l1.44-5.94c.04-.19-.08-.27-.14-.3l-.6-.13-.07-.02v.02l-.2.93-.1-.02.2-.91H11v.07l.03.04c.03.04.04.08.04.11a.6.6 0 0 1-.01.2L9.48 30.9h4.55l.31-1.47h-.11l-.11.32h-2.74l.37-1.54c.04-.2.23-.31.41-.31h2c.1 0 .2-.09.22-.2l.17-.94h-2.44l.34-1.57h2.5c.1 0 .2-.08.22-.18l.1.02a.32.32 0 0 1-.32.26h-2.42l-.3 1.37h2.44l-.2 1.06c-.02.15-.16.28-.31.28h-2c-.15 0-.28.08-.31.23l-.34 1.42h2.54l.1-.32h.31L14.11 31H9.35l1.61-6.5c.02-.1.04-.26-.06-.26V24h8.84Zm-3.75.1.18.04a.3.3 0 0 1 .16.12c.05.08.07.17.04.29l-1.44 5.95a.36.36 0 0 0 .01.26c.04.06.12.14.34.14h1.62l-.19-.09c-.06-.02-.1-.08-.11-.15a.63.63 0 0 1 .01-.3l.25-1.1.3-1.28.01-.08h.54l.67 2.68c.01.05.05.14.11.2.06.07.15.12.27.12h1.14c.05 0 .11-.02.18-.05a.27.27 0 0 0 .13-.18l.21-.86h-.22a.46.46 0 0 1-.48-.3c-.08-.21-.34-1.03-.47-1.48l-.05-.13h.14c.2 0 .49-.04.75-.17.27-.14.51-.38.62-.78.1-.35.28-1.07.32-1.47h.2l.15 5.05c.01.2.18.37.4.37h1.45l3.79-6.47a.22.22 0 0 0-.2-.33h-1.7l.13.04c.04.02.1.06.12.12.03.08.02.16-.03.24l-2.27 3.9-.17.3-.13-4.37c0-.04-.02-.1-.05-.15a.19.19 0 0 0-.17-.08h-1.52v.05l.07.05c.06.06.1.14.1.26l.01.59-.2.02a1.13 1.13 0 0 0-.3-.65c-.18-.18-.48-.32-.97-.32H16Zm1.43 2.78.4-1.74h1.23c.17.01.44.2.44.66 0 .29-.07.56-.24.76-.17.2-.43.32-.8.32h-1.03ZM4.7 29.4l.07-.24h-.39L4 30.56c-.01.14.1.44.6.44h2.78c.43-.02 1.35-.26 1.64-1.07.38-1.03.76-2.63-.46-3.07l-1-.29c-.41-.1-.7-.18-.61-.62l.01-.08c.08-.38.11-.55.6-.55h1.59c.12 0 .38-.07.44-.36l.2-.85.02-.1a76.08 76.08 0 0 0-2.76 0s-1.39 0-1.8 1.52c-.06.22-.18.8-.17 1.33.01.66.5.94.9 1.08l.34.09c.52.12 1.3.31 1.14.82-.22.63-.47.8-1.23.8h-1.2c-.14 0-.4-.06-.34-.25Zm.33.34h1.2c.4 0 .67-.04.88-.17.21-.14.34-.37.45-.69a.46.46 0 0 0-.04-.41.8.8 0 0 0-.32-.26c-.25-.14-.58-.22-.84-.28h-.01a3.8 3.8 0 0 1-.32-.09 1.5 1.5 0 0 1-.56-.32.91.91 0 0 1-.28-.66c0-.52.11-1.08.17-1.3a1.85 1.85 0 0 1 1.69-1.45h.31a167.7 167.7 0 0 1 2.34 0l-.2.83a.36.36 0 0 1-.34.28H7.56c-.25 0-.42.04-.53.17a.56.56 0 0 0-.1.2l-.07.26-.01.08a.65.65 0 0 0 0 .32c.03.1.08.16.15.22.07.05.16.09.25.12l.29.08c.33.08.8.22.99.28.28.1.46.28.58.48.12.21.17.47.18.75 0 .56-.17 1.2-.36 1.71-.14.38-.42.63-.72.79-.31.15-.63.21-.83.22H4.6c-.24 0-.36-.07-.42-.13a.28.28 0 0 1-.08-.2l.35-1.31h.18l-.04.11a.25.25 0 0 0 .02.2c.03.05.08.09.13.11.1.05.2.06.28.06Zm38.92-4.45h2.42c.15 0 .28-.1.31-.26L46.9 24h-4.6v.24c.1 0 .09.17.07.25l-1.48 6.01a.4.4 0 0 0 .4.5h3.9a.4.4 0 0 0 .4-.32l.28-1.35h-.3l-.11.32h-2.54l.32-1.4a.32.32 0 0 1 .32-.25h2c.15 0 .29-.11.31-.26l.2-1.06h-2.44l.3-1.4Zm2.01 1.49h-2.44l.35-1.6h2.5c.1 0 .2-.07.22-.17l.2-.91H42.4v.07l.03.04c.03.04.04.08.04.11a.6.6 0 0 1-.01.2l-1.49 6a.3.3 0 0 0 .3.38h3.91a.3.3 0 0 0 .3-.24l.26-1.23h-.11l-.11.32h-2.74l.35-1.52c.05-.2.22-.33.42-.33h2c.1 0 .2-.08.22-.18l.17-.94Zm-28.4 0h.9c.69 0 .94-.44.94-.98 0-.43-.23-.55-.35-.56h-1.13l-.36 1.54Z" fill="#34416D"/><path d="M32.23 23.92c.12.13 0 .24-.36.34-.09.03-.1 0-.06-.07a.2.2 0 0 0 .02-.08c.06-.03.1-.05.09-.06a.15.15 0 0 0-.07-.1.17.17 0 0 0-.11-.03c-.3.04-.59.08-.87.14a.9.9 0 0 0-.27.1.2.2 0 0 1-.13.04.86.86 0 0 0-.49.12l-.3-.43-.27-.4c-.1-.13-.18-.28-.24-.45a.22.22 0 0 0-.07-.1l-.47-.36c.37.08.71.35 1.03.82.04.04.06.04.09-.01a.14.14 0 0 0-.03-.15v-.02a4.65 4.65 0 0 0-.63-.65 1.4 1.4 0 0 0-.84-.32.36.36 0 0 0-.31.16c-.06.08-.06.13 0 .17-.14.27-.21.51-.2.73.04.53.2 1.12.44 1.77.02.04.05.06.1.08l.43.14-.25.34a.1.1 0 0 0-.02.1l.22.46a.1.1 0 0 0 .06.06.1.1 0 0 0 .08 0c.07-.03.1-.07.08-.11l.1-.03a.33.33 0 0 0-.1.14c-.01.04 0 .09.03.15.13.26.3.5.5.74-.4.05-.68-.07-.86-.38a.27.27 0 0 0-.1-.11.3.3 0 0 0-.15-.03.93.93 0 0 0-.19-.24l-.4-.88a.12.12 0 0 0-.08-.08 2.9 2.9 0 0 0-1.13-.1c-.24.06-.5.13-.8.23a.54.54 0 0 0-.15.1l-.08.05c-.04.03-.05.07-.01.1.16.18.31.3.45.37.58.3 1.26.54 2.02.71.25.11.43.12.56.01.1.15.22.27.37.36.03.02.07.03.12.02.21-.04.34.03.38.2a12.9 12.9 0 0 1-1.64-.33c-.86-.22-1.6-.47-2.2-.75-.17-.04-.32-.16-.43-.35a.53.53 0 0 1-.08-.38.68.68 0 0 1 .12-.3c.14-.18.51-.29 1.12-.32a6.8 6.8 0 0 1 1.23.04c.06 0 .08-.02.07-.08-.1-.28-.18-.57-.25-.85-.1-.35-.15-.68-.14-.98.01-.41.12-.72.33-.92.33-.31.73-.34 1.2-.1.3.17.58.4.83.71.3.37.58.76.82 1.15.04.06.09.08.16.05.56-.19 1.14-.24 1.73-.15Z" fill="#9CADC0"/><path d="M28.63 22.58c-.32-.18-.55-.19-.68 0-.07-.04-.07-.1-.01-.17.08-.11.18-.16.31-.16.3 0 .58.12.84.32a4.65 4.65 0 0 1 .63.67c.04.04.05.1.03.15-.03.05-.05.05-.09 0-.32-.46-.66-.73-1.03-.8Z" fill="#D2E0E4"/><path d="M35.15 31.7a.25.25 0 0 1-.02-.06l-.02-.04-.05.01c.26-.28.45-.56.57-.84.35-.83.37-1.6.06-2.32l-.07-.45c.12-.1.17-.21.16-.36l.06-.08c.02-.01.02-.03 0-.04 0-.02-.02-.03-.04-.02-1.44.26-2.9.33-4.34.22-.7-.05-1.4-.13-2.1-.24-.04-.17-.17-.24-.38-.2-.05 0-.09 0-.12-.02-.15-.1-.28-.21-.37-.36a.59.59 0 0 1-.2-.27c.07 0 .12 0 .15.03.04.02.08.05.1.1.19.32.47.44.87.39.17.09.39.14.66.13.76.17 1.55.23 2.37.19.01 0 .02-.02.01-.06.08.05.12.06.14.04.06.06.17.07.3.03.66.08 1.29.03 1.89-.12.13.09.21.09.23-.01.23.02.4 0 .5-.06a.13.13 0 0 0 .08-.11c0-.05-.01-.1-.05-.13-.1-.07-.13-.15-.1-.24.16 0 .2-.08.08-.23a4.2 4.2 0 0 1-.42-.87c.08.07.15.16.2.26 0 .03.03.04.06.03l.04-.01c.03 0 .04-.03.03-.05-.06-.2-.12-.39-.2-.58a1.56 1.56 0 0 1-.1-.34.16.16 0 0 0-.06-.1h-.01c-.05 0-.07-.02-.05-.07.04-.13 0-.23-.1-.3-.05-.04-.05-.05.02-.04.07.02.1.06.11.12.02.1.05.2.12.35l.08.18c.24.67.41 1.35.5 2.05.01.04.03.05.07.04.54-.09 1.02-.26 1.44-.52.5-.3.63-.7.43-1.2a2 2 0 0 0-.74-.89 16.3 16.3 0 0 0-3.56-1.88l-.01-.02.02-.01c1.17.39 2.28.93 3.33 1.62.52.35.92.76 1.2 1.24.06.11.09.23.08.36l-.04.32c0 .05-.03.1-.06.13-.05.04-.1.11-.16.2-.1.14-.18.23-.26.28-.46.32-.98.55-1.55.69-.04.01-.07.04-.07.08a.7.7 0 0 0 .05.4c.05.12.09.29.1.5l.02.15c.01.1.02.2 0 .3l-.05.95c0 .33-.06.61-.15.85-.15.37-.37.67-.68.9Z" fill="#7F99BE"/><path d="M31.83 24.11a1.49 1.49 0 0 0-.32-.02c-.13.02-.39.12-.78.32.03.1 0 .19-.09.25l-.21.13c-.1-.04-.1-.13.02-.24.03-.03.02-.06 0-.08h-.06l-.41.18c-.04.01-.06.04-.05.09l.06.23-.09.18a.13.13 0 0 1-.15.07c-.11-.02-.2 0-.28.09-.1.12-.16.2-.17.26 0 .06.03.1.1.1a.07.07 0 0 0 0 .08c-.18.04-.32.16-.41.37l-.11.03c-.07-.34-.07-.57.02-.7.16-.22.31-.47.46-.75.11-.17.32-.3.62-.38.17-.1.33-.14.49-.12a.2.2 0 0 0 .13-.03.9.9 0 0 1 .27-.1c.28-.07.57-.11.87-.15.04 0 .08 0 .11.03.04.03.06.06.07.1 0 0-.03.03-.1.06Z" fill="#2D71A6"/><path d="M32.23 23.92c.4.03.77.13 1.13.3.27.19.53.38.76.59.58.5.71 1.1.39 1.77-.02.04-.05.06-.1.05-.03 0-.07 0-.1.03a.57.57 0 0 0-.16-.18.14.14 0 0 0-.11-.02c-.34.05-.67-.01-.98-.2-.27-.17-.3-.13-.1.11.06.08.14.15.22.2.05.02.1.02.14 0 .11-.06.22-.04.33.07.06.05.09.12.08.2-.01.08-.05.14-.12.18l-.71.46c-.14.04-.25.03-.3-.03a.45.45 0 0 0-.2-.41.24.24 0 0 1-.08-.1c-.1-.19-.21-.37-.36-.55a.16.16 0 0 0-.1-.05c-.08 0-.1.02-.06.08l.54.94c.02.04.06.06.11.05l-.01.06c-.82.04-1.6-.02-2.37-.19-.16-.6-.14-1.06.05-1.37l.64.23c.05.03.08 0 .08-.06 0-.05.03-.08.08-.08.05-.01.09 0 .13.02.25.12.51.14.79.07.06-.02.09-.06.07-.13a.15.15 0 0 1 .04-.16c.05-.05.04-.08-.04-.07-.1 0-.19 0-.28.02-.17.02-.27-.06-.3-.23 0-.03-.02-.05-.06-.05l-.12.01-.04.02v.04l.02.12c.02.06 0 .07-.06.05-.1-.05-.14-.12-.14-.22a.18.18 0 0 0-.04-.1c-.07-.1-.14-.17-.23-.23h-.03l-.03.02c-.02.02-.03.04 0 .06l.14.17.02.04c0 .02 0 .04-.02.05-.02.03-.05.03-.08 0l-.2-.17a.34.34 0 0 0-.24-.1c-.1 0-.17.04-.24.1-.18.17-.37.28-.58.35-.07-.01-.1-.05-.1-.11s.06-.14.17-.26c.07-.08.17-.1.28-.08l.09-.01a.12.12 0 0 0 .06-.07l.09-.18c.16 0 .31-.05.44-.18l.21-.13c.33.1.58.04.73-.16a.15.15 0 0 0 .03-.14l-.01-.04a.04.04 0 0 0-.04-.03l-.04.01c-.23.3-.42.33-.58.1.39-.19.65-.3.78-.31l.32.02a.2.2 0 0 1-.02.08c-.05.07-.03.1.06.07.36-.1.48-.21.36-.34Z" fill="#D2E0E4"/><path d="M33.36 24.23c.74.29 1.32.78 1.74 1.48.16.4.3.7.42.86.11.16.08.24-.09.24-.03-.14-.08-.2-.16-.22-.04 0-.07.01-.08.06l-.18.7c-.02.1-.1.1-.23 0l-.18-.5a.1.1 0 0 0-.09-.07.3.3 0 0 1-.2-.12.22.22 0 0 1 .1-.03c.05 0 .08-.01.1-.05.32-.68.2-1.27-.39-1.77-.23-.2-.49-.4-.76-.58Z" fill="#B6CCD4"/><path d="M30.64 24.66a.23.23 0 0 0 .1-.25c.15.22.34.19.57-.1a.04.04 0 0 1 .04-.02c.02 0 .03.01.04.03l.01.04c.02.05 0 .1-.03.14-.15.2-.4.25-.73.16Z" fill="#02B0D3"/><path d="M30.43 24.8a.56.56 0 0 1-.44.17l-.06-.23c-.01-.05 0-.08.05-.1.14-.05.28-.1.41-.17h.05c.03.02.04.05 0 .08-.1.11-.11.2-.01.24Z" fill="#7F99BE"/><path d="M29.36 24.7c-.15.28-.3.53-.46.76-.09.12-.1.35-.02.69.02.04 0 .08-.08.1a.1.1 0 0 1-.08 0 .1.1 0 0 1-.06-.05l-.22-.45a.1.1 0 0 1 .02-.11l.25-.34.65-.6Z" fill="#214282"/><path d="M32.82 25.25c0 .03.02.05.06.07a.3.3 0 0 1 .18.3c0 .05-.02.08-.07.08a.26.26 0 0 1-.22-.08.09.09 0 0 1-.02-.1v-.07a.14.14 0 0 0-.06-.06 1.12 1.12 0 0 1-.3-.28c-.03-.03-.02-.06.01-.09.18-.13.36-.1.52.07l.02.05c0 .03-.01.04-.04.03-.02 0-.05 0-.06.02a.06.06 0 0 0-.02.06ZM31.92 25.16c.05-.01.09 0 .12.03.05.05.1.08.16.11.1.04.1.08 0 .12a.3.3 0 0 1-.2 0 .6.6 0 0 0-.4 0c-.1.04-.14.01-.14-.08 0-.17.08-.23.25-.18.07.02.14.02.2 0ZM30.12 25.9c.3-.15.22-.23-.26-.21a.26.26 0 0 0-.12.03.38.38 0 0 1-.35.03.07.07 0 0 1 .01-.07c.21-.07.4-.18.58-.35.07-.06.15-.1.24-.1.1 0 .17.03.24.1l.2.18c.03.02.06.02.08 0a.06.06 0 0 0 .02-.06c0-.01 0-.03-.02-.04l-.15-.17c-.02-.02-.01-.04.01-.06l.03-.02h.03c.09.06.16.14.23.23l.04.1c0 .1.05.17.14.22.05.02.08 0 .06-.05l-.02-.12v-.04l.04-.02h.12c.04-.01.06 0 .07.04.02.17.12.25.29.23l.28-.02c.08 0 .09.02.04.07a.15.15 0 0 0-.04.16c.02.07 0 .11-.07.13-.28.07-.54.05-.79-.07a.22.22 0 0 0-.13-.02c-.05 0-.08.03-.08.08 0 .07-.03.09-.08.06l-.64-.23Z" fill="#02B0D3"/><path d="M30.12 25.9c-.2.32-.21.78-.05 1.38-.27 0-.49-.04-.66-.13-.2-.23-.37-.48-.5-.74-.03-.06-.04-.11-.03-.15.02-.05.06-.1.1-.14.1-.2.24-.33.41-.37.12.05.24.04.35-.03a.26.26 0 0 1 .12-.03c.48-.02.57.06.26.22Z" fill="#B6CCD4"/><path d="M34.3 26.66a.3.3 0 0 0 .21.13.1.1 0 0 1 .09.07l.18.5c-.6.15-1.23.2-1.88.12l.71-.46c.07-.04.11-.1.12-.18a.23.23 0 0 0-.08-.2c-.1-.1-.22-.13-.33-.07a.14.14 0 0 1-.14 0 .82.82 0 0 1-.22-.2c-.2-.24-.17-.28.1-.11.31.19.64.25.98.2.04-.01.08 0 .11.02.06.04.11.1.16.18ZM32.6 27.45c-.03.02-.07.01-.15-.04-.05 0-.1-.01-.11-.05l-.54-.94c-.04-.06-.02-.09.05-.08.04 0 .08.02.1.05.16.18.28.36.37.56.01.03.04.07.07.09.14.1.2.23.2.4Z" fill="#02B0D3"/><path d="M29.36 27.48c.7.11 1.4.19 2.1.24 1.45.11 2.9.04 4.34-.22.02 0 .04 0 .05.02v.04l-.07.08-1.31.2-1.39.08-2.83-.12-1.12-.14c-.05 0-.07.02-.05.06.01.03.05.05.1.06.96 1.35 1.99 2.4 3.1 3.17l1.08.58c.65.3 1.21.33 1.7.08h.05s.02.01.02.03l.02.07c-.3.2-.56.29-.77.29-.5 0-1-.12-1.51-.38-.2-.16-.37-.26-.5-.3l-.7-.51a7.95 7.95 0 0 1-1.37-1.32l-1.03-1.31-.39-.53a.16.16 0 0 0-.1-.06l-.39-.07-.34-.08-.26-.06c-.5-.12-1-.27-1.49-.45a2.1 2.1 0 0 1-.79-.53c.61.28 1.35.53 2.21.75.71.18 1.26.29 1.64.33Z" fill="#D2E0E4"/><path d="M28.11 26.39c.1.09.16.17.19.24.03.1.1.2.19.27-.13.1-.31.1-.56 0 .03-.21.1-.38.18-.51Z" fill="#214282"/><path d="M35.43 26.8c-.02.1.02.18.1.25.05.03.07.07.06.13 0 .05-.03.09-.07.1a.97.97 0 0 1-.5.07l.17-.7c.01-.05.04-.06.08-.06.08.01.13.08.16.22ZM27.8 27.38l.25.06a.42.42 0 0 0-.07.28c0 .04.03.06.06.08.09.05.13.13.14.23.02.36.18.69.46.99.02.01.03.04.03.06a4.86 4.86 0 0 0 .94 1.04c.27.2.64.41 1.1.64.08.03.11.02.12-.03.08.04.13.08.15.11a.3.3 0 0 0 .24.14c.1.01.19-.02.26-.1.04-.05.1-.07.2-.07l.68.51c-.34.08-.65.1-.92.05a4.8 4.8 0 0 1-2.07-1.02c-.2-.23-.42-.44-.65-.65a.21.21 0 0 1-.06-.1.22.22 0 0 0-.05-.1c-.3-.32-.5-.67-.6-1.06 0-.03-.02-.03-.03 0l-.03.02a.08.08 0 0 0-.02.06c0 .1-.01.2-.04.28a2.6 2.6 0 0 1-.1-1.42Z" fill="#2D71A6"/><path d="m28.05 27.44.34.08c.04.23.13.43.29.6.02.04.06.05.1.05h.49l1.03 1.32c-.1.2-.09.38.04.57l.49.67c0 .05-.04.06-.11.03a7.28 7.28 0 0 1-1.11-.64 4.86 4.86 0 0 1-.94-1.04.11.11 0 0 0-.03-.06c-.28-.3-.44-.63-.46-.99 0-.1-.05-.18-.14-.23a.12.12 0 0 1-.06-.08.42.42 0 0 1 .07-.28Z" fill="#214282"/><path d="m28.4 27.52.38.07c.04 0 .07.03.1.06l.39.53h-.49a.13.13 0 0 1-.1-.05 1.17 1.17 0 0 1-.29-.6ZM30.25 27.8c.38.72.98 1.14 1.8 1.27.05 0 .09 0 .12-.03l.25-.21c-.09.17-.13.33-.13.47 0 .06.02.1.07.14.03.03.04.06.03.1-.01.06 0 .12.03.17.02.05.01.1-.04.12l-.5.33c.02.1.02.17 0 .21-.04.05-.08.05-.12.02l-.87-.8a.17.17 0 0 1-.06-.1.45.45 0 0 0-.1-.23l-.2-.22a2.39 2.39 0 0 1-.45-.6 5.13 5.13 0 0 0-.28-.4.2.2 0 0 0-.1-.08l-.52-.18c-.05 0-.09-.03-.1-.06-.02-.04 0-.06.05-.06l1.12.14Z" fill="#98B8C3"/><path d="M35.78 27.64a.36.36 0 0 1-.16.36c-.04-.06-.08-.08-.12-.07-.03 0-.05.03-.08.08a3.48 3.48 0 0 1-2.33 1.78c0-.23-.13-.19-.37.14a.19.19 0 0 0-.04.1c0 .07-.03.11-.08.15a.17.17 0 0 0-.06.11v.12c-.3-.17-.5-.18-.57-.05.02-.07-.01-.14-.1-.2l.51-.33c.05-.03.06-.07.04-.12a.24.24 0 0 1-.03-.17c.01-.04 0-.07-.03-.1a.17.17 0 0 1-.07-.14c0-.14.04-.3.13-.47l-.06.09c.96-.02 1.66-.38 2.1-1.08l1.32-.2Z" fill="#2D71A6"/><path d="M31.88 30.16c.08.06.1.13.1.2l-.08.13c-.02.04-.02.07.02.1l.26.23c.07.05.1.1.1.13a12.72 12.72 0 0 1-3.1-3.17l.53.18a.2.2 0 0 1 .1.07c.06.1.16.23.27.42a4.05 4.05 0 0 0 .65.8c.06.1.1.17.1.24 0 .04.03.08.06.1l.87.8c.04.04.08.03.11-.02.03-.04.03-.11 0-.21Z" fill="#7F99BE"/><path d="m30.25 27.8 2.83.12v.05c-.02 0-.02.02 0 .02.06.05.06.1.01.16-.18.2-.42.46-.73.77l.06-.1-.25.22a.14.14 0 0 1-.12.03 2.34 2.34 0 0 1-1.8-1.27Z" fill="#B6CCD4"/><path d="M34.47 27.84c-.45.7-1.15 1.06-2.11 1.07l.73-.76c.05-.06.05-.11-.02-.16v-.02c.02 0 .02-.03.01-.05l1.39-.08Z" fill="#02B0D3"/><path d="m35.62 28 .07.45c-.06.1-.12.31-.18.62-.07.4-.32.84-.76 1.34-.68.48-1.42.68-2.22.6a.15.15 0 0 1-.1-.06.34.34 0 0 0-.25-.13l-.26-.23c-.04-.03-.04-.06-.02-.1l.07-.13c.08-.13.27-.12.58.05.03.04.07.05.12.02a.2.2 0 0 0 .09-.08c.1-.2.22-.38.33-.56A3.48 3.48 0 0 0 35.42 28c.03-.05.05-.07.08-.08.04 0 .08.01.12.07Z" fill="#214282"/><path d="M32.36 31.32c.14.04.3.14.51.3-.57.16-1.08.21-1.53.15a3.86 3.86 0 0 1-3.45-2.97c.03-.09.04-.18.04-.28 0-.03 0-.05.02-.06l.03-.03c.01-.02.03-.02.03.01.1.39.3.74.6 1.06l.05.1c0 .04.03.07.06.1.23.2.45.42.65.65.13.15.27.26.43.33l.32.18a4.79 4.79 0 0 0 1.32.5c.27.06.58.04.92-.04Z" fill="#02B0D3"/><path d="M30.3 29.49c.4.49.86.93 1.37 1.32-.08 0-.15.02-.2.07a.3.3 0 0 1-.25.1.3.3 0 0 1-.24-.14.47.47 0 0 0-.15-.11l-.49-.67a.53.53 0 0 1-.04-.57ZM33.1 29.79l-.34.56a.2.2 0 0 1-.09.08c-.05.03-.1.02-.12-.02a.27.27 0 0 1-.01-.12c0-.04.03-.08.06-.1a.18.18 0 0 0 .08-.15c0-.04.01-.08.04-.11.24-.33.37-.38.37-.14Z" fill="#98B8C3"/><path d="M34.75 30.4c-.33.45-.8.82-1.39 1.13l-1.08-.58c0-.04-.03-.08-.1-.13.1.01.18.06.24.13.03.03.07.05.11.06.8.08 1.54-.12 2.22-.6Z" fill="#2D71A6"/><defs><linearGradient id="a5kitgqco" x1="39.53" y1="24" x2="39.53" y2="30.28" gradientUnits="userSpaceOnUse"><stop stop-color="#2690CA"/><stop offset="1" stop-color="#34406C"/></linearGradient></defs></svg>