<svg width="56" height="56" viewBox="0 0 56 56" xmlns="http://www.w3.org/2000/svg"><path fill="#F0F3FA" d="M0 0h56v56H0z"/><path d="M34.6 46.08c-1.63 1-3.38 1.61-5.23 1.83a12.04 12.04 0 0 1-9.72-3.2 12.18 12.18 0 0 1-3.02-4.73c-.44-1.22-.65-3-.63-5.34.06-5.22.07-10.25.03-15.1-.02-2.46.75-4.7 2.3-6.73A12.2 12.2 0 0 1 31 8.41c2.64.73 4.78 2.1 6.4 4.1a11.25 11.25 0 0 1 2.55 7.19c.05 4.83.05 10.37 0 16.61-.02 2.04-.5 3.92-1.47 5.67a10.83 10.83 0 0 1-3.89 4.1Z" fill="#2B0E78"/><path d="M39 36.44a10.62 10.62 0 0 1-6.41 9.76c-1.27.53-2.6.8-3.98.8H27.4a10.15 10.15 0 0 1-7.35-3.1A10.62 10.62 0 0 1 17 36.44V19.57a10.62 10.62 0 0 1 6.41-9.76c1.27-.53 2.6-.8 3.98-.8h1.22a10.15 10.15 0 0 1 7.35 3.1A10.62 10.62 0 0 1 39 19.56v16.87Z" fill="#F0F3FA"/><path d="M24.97 31.92c-.07.8-.43 1.42-1.1 1.87-.62.42-1.33.6-2.16.58a3.28 3.28 0 0 1-2.07-.75 2.46 2.46 0 0 1-.86-2.1c0-.18.1-.26.27-.24.37.04.73.03 1.1-.03.24-.04.25-.11.01-.2a2.11 2.11 0 0 1-1.3-1.63 2.22 2.22 0 0 1 .66-1.97 3.02 3.02 0 0 1 2.17-.78c1.77 0 2.8.82 3.07 2.46.02.12-.01.22-.09.32a.36.36 0 0 1-.3.14h-.77c-.35 0-.36.08-.04.22.8.36 1.28.94 1.46 1.76 0 .04.03.07.08.07s.07-.03.07-.08v-4.24c0-.19.1-.32.29-.32h1.04c.28 0 .5-.3.5-.58v-1.7c0-.23-.11-.22-.34-.22h-1.27c-.15 0-.26-.08-.32-.23-.06-.14-.03-.4.08-.5.68-.65.7-1.28.08-1.89-.11-.1-.24-.38-.4-.38H21.4c-.23 0-.48.01-.62-.18-.51-.72-.96-1.35-1.46-2.19-.6-1-.45-1.96.42-2.88.15-.16.27-.14.36.06l.29.59c.26.49.4.86.43 1.1.04.41-.1.8-.45 1.2a.17.17 0 0 0-.03.19c.03.07.08.1.16.1l2.68.02c.23 0 .28-.1.15-.3-.67-1.02-.55-2 .36-2.96.05-.05.1-.07.17-.06.07.01.12.05.15.1l.73 1.56c.07.15.07.29 0 .43l-.49 1c-.1.2-.04.29.18.26l.41-.05c.14-.01.2-.09.19-.22-.06-.88.14-1.67.58-2.37.1-.16.16-.33.16-.52.03-1.8.67-3.39 1.92-4.75.04-.05.1-.07.16-.07.07 0 .12.02.17.07a7.1 7.1 0 0 1 1.92 4.72c.01.2.08.4.2.57.45.68.62 1.44.5 2.26-.03.17.03.27.19.33.22.07.43.05.63-.06a.14.14 0 0 0 .08-.12c0-.05-.02-.1-.05-.13-.4-.37-.55-.81-.45-1.32a4.86 4.86 0 0 1 .69-1.57.2.2 0 0 1 .15-.1c.07-.01.13 0 .18.06.9.92.98 1.93.28 3.02a.12.12 0 0 0 0 .13c.02.04.05.07.1.07l2.86.02c.07 0 .12-.04.14-.1a.14.14 0 0 0-.03-.17c-.37-.4-.54-.8-.5-1.2.03-.25.17-.62.44-1.12.13-.25.23-.44.28-.57.1-.21.22-.23.37-.06.7.78.91 1.52.65 2.24-.4 1.08-.82 1.88-1.35 2.74-.1.18-.31.21-.52.23h-3.13c-.59-.04-1.01.55-1.15 1.19-.04.14-.01.28.07.41l.58 1c.05.08.06.17.01.25-.04.09-.1.15-.2.15h-1.43c-.2 0-.3-.04-.29.16l.05 1.97c0 .16.08.28.2.36.46.26.81.59 1.07.99a2.46 2.46 0 0 1 .1 2.5c-.23.43-.56.8-1 1.1a.4.4 0 0 0-.17.37 134.89 134.89 0 0 1 .2 2.86c.01.85-.04 1.56-.16 2.14-.08.35-.08.75-.02 1.2.02.12.07.23.15.32l2.73 2.8c.1.12.24.17.4.17l2.87.02c.32 0 .38.14.2.4l-.94 1.37a.92.92 0 0 1-.8.42H22.14a.94.94 0 0 1-.8-.42l-.99-1.37c-.2-.26-.13-.4.2-.4h2.9c.15 0 .29-.06.4-.18l2.73-2.87a.44.44 0 0 0 .1-.21c.11-.46.11-.9 0-1.33a6.54 6.54 0 0 1-.02-2.43c.02-.2-.06-.31-.27-.31h-.92a.3.3 0 0 1-.21-.08.3.3 0 0 1-.1-.21 16.65 16.65 0 0 1 .02-2h-.11c-.06-.01-.1.02-.1.08Z" fill="#2B0E78"/><path d="M28.03 16.64a.14.14 0 0 0-.11-.08c-.05-.01-.1 0-.14.04-.87.87-1 1.75-.37 2.63.13.18.08.27-.14.27h-1.44a.32.32 0 0 1-.33-.32 3.4 3.4 0 0 1 .65-2.18.66.66 0 0 0 .12-.39c0-1.46.46-2.86 1.38-4.18a.2.2 0 0 1 .18-.1c.08 0 .14.04.18.1a6.58 6.58 0 0 1 1.4 4.05c0 .19.04.35.15.5.45.67.66 1.4.64 2.18 0 .22-.12.34-.34.34h-1.37a.2.2 0 0 1-.2-.14.2.2 0 0 1 .04-.24c.16-.17.29-.37.37-.6a.65.65 0 0 0-.02-.5l-.65-1.38ZM23.85 17.27c.23.25.36.52.39.8.03.31-.1.56-.36.75-.17.1-.28.07-.34-.12a2.03 2.03 0 0 1-.02-1.36c.07-.2.18-.23.33-.07ZM31.5 17.99c-.05.46.09.86.3.88.23.03.45-.33.5-.8.05-.45-.09-.85-.3-.88-.23-.02-.45.34-.5.8ZM19.46 18.1c.04.45.25.8.48.78.22-.02.37-.4.33-.85-.04-.45-.25-.8-.48-.78-.22.02-.37.4-.33.85ZM35.44 18.01c-.04.46.1.84.32.86.21.02.41-.34.45-.8.04-.45-.1-.84-.32-.85-.21-.02-.41.33-.45.79Z" fill="#F0F3FA"/><path d="M27.5 18.26c.04.35.22.6.42.58.19-.02.32-.31.28-.65-.04-.35-.22-.6-.42-.58-.2.02-.32.31-.28.65ZM34.7 21H21.35a.15.15 0 0 1-.12-.06l-.58-.73c-.03-.05-.04-.1 0-.14.02-.05.07-.07.13-.07H35.2c.06 0 .1.03.14.07.03.05.02.1 0 .14l-.52.73a.15.15 0 0 1-.13.06ZM30.18 21.5c.06 0 .09.04.09.13v.05a.9.9 0 0 1-.2.58.58.58 0 0 1-.46.24h-3.05a.58.58 0 0 1-.47-.24.9.9 0 0 1-.2-.58v-.05c0-.09.03-.13.1-.13h4.19ZM25.96 24c-.05 0-.08-.04-.08-.12v-.07c0-.22.06-.41.18-.57.12-.16.26-.24.43-.24h3.16c.16 0 .3.08.43.24.12.16.18.35.18.57v.07c0 .08-.03.12-.09.12h-4.2ZM28.65 24.5H27.6a.12.12 0 0 0-.12.12v2.26c0 .07.05.12.11.12h1.06c.07 0 .12-.05.12-.11v-2.27a.12.12 0 0 0-.1-.12Z" fill="#F0F3FA"/><path d="M36.7 30.35a2.1 2.1 0 0 1-.68 3.26c-.36.2-.9.33-1.6.37-.42.03-1.06.03-1.92 0-.56-.02-.96-.03-1.18-.02-.21 0-.32-.1-.32-.3l.03-6.42c0-.07.02-.12.07-.17.04-.04.1-.07.16-.07h3.34c.43 0 .82.08 1.18.24.36.15.64.36.85.63.22.29.34.6.36.95.02.38-.09.77-.32 1.17a.3.3 0 0 0 .03.36Z" fill="#2B0E78"/><path d="M22.91 32.72c.34-.14.53-.42.56-.85a.64.64 0 0 0-.12-.41.6.6 0 0 0-.34-.26c-.72-.22-1.46-.4-2.21-.55a1.68 1.68 0 0 1-1-.55 1.48 1.48 0 0 1-.35-.9 1.77 1.77 0 0 1 1.07-1.69c.67-.3 1.35-.35 2.05-.17.74.2 1.25.64 1.53 1.32.07.17.02.29-.16.34-.14.04-.28.05-.41.03a.47.47 0 0 1-.35-.2c-.16-.22-.39-.4-.7-.55-.3-.15-.6-.23-.9-.24-.33-.02-.6.05-.82.2-.24.18-.38.45-.41.8a.66.66 0 0 0 .54.73c.83.13 1.58.3 2.28.53.4.13.71.35.93.64.2.27.31.58.31.92 0 .34-.1.64-.3.93-.2.3-.49.5-.85.65-1.26.46-2.37.35-3.33-.35a.96.96 0 0 1-.44-.91c.02-.2.12-.31.3-.37.18-.04.33.01.44.17.65.96 1.55 1.2 2.68.74ZM26.75 31.45v1.81c0 .08-.03.15-.08.2a.28.28 0 0 1-.2.09h-.4a.31.31 0 0 1-.32-.31l-.02-5.56c0-.16.08-.24.23-.24.97-.03 1.88-.03 2.74 0 .46.03.84.2 1.14.49a2.01 2.01 0 0 1 .38 2.17 1.8 1.8 0 0 1-1.67 1.1c-.2.01-.52 0-.95-.02l-.57-.02a.26.26 0 0 0-.2.1.27.27 0 0 0-.08.2Z" fill="#F0F3FA"/><path d="M26.75 28.56c0-.1.03-.18.1-.25.06-.06.14-.1.23-.1h1.13c.33 0 .6.1.84.3.23.2.35.45.35.73v.1c0 .3-.11.54-.34.74-.23.2-.5.31-.84.32H27.1a.32.32 0 0 1-.23-.1.32.32 0 0 1-.1-.23l-.01-1.51Z" fill="#2B0E78"/><path d="M20.98 29.13c-.04-.02-.06-.05-.05-.1l.01-.05c.04-.16.16-.28.35-.35a.94.94 0 0 1 .6-.02l.12.04c.22.06.39.16.51.33.13.15.17.31.13.48l-.02.04c-.01.05-.04.07-.1.06l-1.55-.43ZM27.35 28.98c0-.13.07-.19.2-.19l.44.01c.24 0 .44.06.6.15.17.1.25.2.25.33v.1c0 .13-.1.24-.26.32-.17.09-.38.13-.62.12h-.44c-.13-.01-.19-.08-.19-.2l.02-.64ZM35.6 30.38c.36.2.62.46.77.78.13.3.16.6.1.93-.08.31-.24.58-.48.81-.26.25-.58.4-.95.46-.95.15-2.04.18-3.28.1-.18-.02-.26-.12-.26-.3V27.8c0-.14.08-.21.23-.22l.55-.03c1.1-.07 1.91-.05 2.45.04.94.17 1.46.58 1.53 1.24.07.6-.15 1.02-.66 1.28-.16.1-.16.18 0 .28Z" fill="#F0F3FA"/><path d="M32.44 28.6c0-.08.03-.15.09-.2a.3.3 0 0 1 .22-.09l1.46.01c.3 0 .57.09.79.24.22.16.33.34.32.56v.09c0 .21-.11.4-.33.55-.22.15-.49.23-.8.23l-1.46-.02a.29.29 0 0 1-.21-.09.3.3 0 0 1-.09-.21l.01-1.06Z" fill="#2B0E78"/><path d="M34.39 29.37c-.43.16-.85.14-1.25-.04-.3-.14-.3-.26.02-.37.39-.13.79-.15 1.2-.06.54.12.55.28.03.47Z" fill="#F0F3FA"/><path d="M32.43 31a.3.3 0 0 1 .1-.22c.06-.06.14-.1.23-.1h1.44c.36 0 .67.1.92.29.26.18.39.4.39.66v.14c0 .26-.13.48-.39.67-.25.18-.56.27-.92.27h-1.44a.33.33 0 0 1-.24-.1.3.3 0 0 1-.09-.23V31Z" fill="#2B0E78"/><path d="m34.47 31.25-1.1-.02c-.2-.01-.38.16-.39.37v.13c0 .21.16.39.38.4l1.1.02c.2 0 .38-.17.39-.38v-.13a.38.38 0 0 0-.38-.39ZM21.67 32.28c.55.11 1.02.03 1.07-.2.05-.22-.36-.5-.9-.61-.54-.12-1.02-.03-1.06.19-.05.22.35.5.9.62ZM27.09 36.46l.26-4c.01-.12.07-.23.17-.32.1-.1.22-.14.35-.14h.61c.14 0 .27.05.37.14.1.1.15.2.16.34l.09 4.01c0 .15-.05.26-.15.36a.5.5 0 0 1-.38.15l-.97-.02a.5.5 0 0 1-.37-.16.45.45 0 0 1-.14-.36ZM28.67 37.5H27.5c-.18 0-.32.17-.32.38v.24c0 .21.15.38.32.38h1.16c.18 0 .32-.17.32-.38v-.25c0-.2-.15-.38-.32-.38ZM25.97 40c-.03 0-.04-.02-.04-.05v-.01c0-.26.12-.47.36-.65.25-.18.54-.28.89-.28l1.8-.01c.34 0 .64.08.89.26.24.18.37.4.37.65 0 .04-.01.06-.04.06l-4.23.03ZM31.48 41.47l-6.8.03c-.06 0-.1-.04-.13-.1a.18.18 0 0 1 .03-.2l.56-.65a.14.14 0 0 1 .11-.05l5.66.03c.04 0 .07.01.1.04l.57.6c.05.06.06.12.04.2-.02.07-.07.1-.14.1ZM21.47 42h13.26c.1 0 .18.05.22.13.05.08.03.16-.03.23l-.55.55a.24.24 0 0 1-.18.08L22.07 43a.24.24 0 0 1-.18-.07l-.6-.57c-.07-.07-.08-.14-.04-.23s.12-.13.22-.13Z" fill="#F0F3FA"/></svg>