<svg width="56" height="56" viewBox="0 0 56 56" xmlns="http://www.w3.org/2000/svg"><path fill="#F0F3FA" d="M0 0h56v56H0z"/><path d="M26.5 23H21c-.03-1.5-1.5-2-3-2s-3 .5-3 2.5c0 1.6 1.65 2.61 4.5 3 6 .8 7.5 3 7.5 5.5s-1 7-9 7c-7.6 0-9.15-5.33-8.99-8h6c0 3.6 2 4 3 4s3-.1 3-2.5-3.5-2.68-5-3.01c-6-1.2-6.5-4-6.5-6 0-2.5.9-6.49 8.5-6.49s8.82 3.84 8.49 6Z" fill="#EA252B"/><path d="M24.7 24h2.94c0-1.38-.1-2.67-.45-3.8A11.03 11.03 0 0 1 45.25 24h-5.8a6 6 0 1 0 1.45 3H46v12h-5.01v-1.78a11 11 0 0 1-14.02-1.65 6.3 6.3 0 0 0 1.08-3.56c0-1.92-.88-4.25-3.99-5.6.12-.83.34-1.64.64-2.41Z" fill="#1969B2"/><ellipse cx="35.06" cy="28" rx="5.01" ry="5" fill="#2794B3"/><path d="M39.07 31a5 5 0 0 1-7.01-7 4.99 4.99 0 0 0 3 9 5 5 0 0 0 4.01-2Z" fill="#0B2F51"/><path d="m32.53 27.25.42-.8c.13 0 .4-.07.4-.39 0-.4.83 0 1.25 0 .4 0 .4-.8.82-1.19.41-.4.41 0 1.24 0 .82 0-.41-1.19.82-.79 1.24.4 2.07 1.58 2.07 1.98 0 .4.82 1.19.41 1.58-.41.4 0 .8 0 1.2 0 .39-.41-.4-1.24-.8-.82-.4-.41.8-.82.8-.42 0-.42-.8-.83-.8s-.41.4-.82.8c-.42.39.4.39 0 .78-.42.4-.42.8-.42 1.2 0 .39-.82 1.18-1.23 1.18-.42 0-.83-1.58-.83-1.98 0-.4-.41-.8-1.24-.8-.82 0-.41-1.18 0-1.97Z" fill="#FAFFFF"/></svg>