<svg width="56" height="56" viewBox="0 0 56 56" xmlns="http://www.w3.org/2000/svg"><path fill="#F0F3FA" d="M0 0h56v56H0z"/><path fill-rule="evenodd" d="M29 16v19l-6-.2V31.5c1.1-.68 3.35-2.5 3.35-4.35 0-2.3-2.51-3.1-4.12-3.1-1.6 0-4.32.43-4.32 2.74 0 1.84 2.11 3.9 3.09 4.71v2.84c-6.21-2.2-9.3-5.25-10-6.5V16h18ZM12 28v-3.65c.82-2.58 4.97-7.65 15-7.34v4.45C23.92 21 16.6 21.7 12 28Zm8 3.25V33c-1.37-.58-4-2.55-4-5.75 0-4 5.21-4.25 6.02-4.25h.04c.91 0 5.94 0 5.94 4.76 0 3.87-2.6 5.1-4 5.24v-1.75a4.87 4.87 0 0 0 3.11-4.53c0-3.34-4.64-3.34-5.08-3.34h-.01c-.4 0-4.99.06-4.99 3.34A5 5 0 0 0 20 31.25ZM11 32v8h10v-.6c-2.48-.35-7.95-2.33-10-7.4Z" fill="#407EF4"/><path d="M21.5 30.63c-1.15-.63-3-1.97-3-3.4 0-1.96 2.88-2.23 3.57-2.23s3.43.39 3.43 2.22c0 1.37-1.87 2.77-3 3.42V39h-1v-8.37ZM29 40v-5c11.33 0 15.96-4.14 16.85-6.06-1.17-.97-4.18-2.92-6.82-2.92-2.64 0-4.5.43-5.03.64V21c10.56 0 13.11 5.3 13 7.94 0 9.2-12 11.2-18 11.05Z" fill="#000070"/></svg>