<svg width="56" height="56" viewBox="0 0 56 56" xmlns="http://www.w3.org/2000/svg"><path fill="#F0F3FA" d="M0 0h56v56H0z"/><path d="M12 28.32c0-5.44 2.1-8.96 3.14-10.04 0 8.47 2.42 10.04 11.92 12.53 7.6 2 9.24 5.3 9.1 6.72.28 2.16-1.17 6.47-9.1 6.47C17.16 44 12 35.12 12 28.32ZM24.1 17.43C23.9 15.8 23.94 12 30.5 12c6.3 0 16.73 9.09 12.53 19.97-1.6-6.7-4.15-8.1-9.88-9.46-6.3-1.5-9.15-4.02-9.04-5.08Z" fill="#0082C6"/><ellipse cx="30.23" cy="15.05" rx="3.14" ry="1.96" fill="url(#a3qtbgvbx)"/><ellipse rx="5.18" ry="2.85" transform="matrix(.97738 .2115 -.19995 .9798 27.06 39.43)" fill="url(#b3qtbgvbx)"/><defs><linearGradient id="a3qtbgvbx" x1="27.08" y1="14.48" x2="29.9" y2="16.93" gradientUnits="userSpaceOnUse"><stop stop-color="#FEFEFE"/><stop offset="1" stop-color="#FEFEFE" stop-opacity="0"/></linearGradient><linearGradient id="b3qtbgvbx" x1="11.34" y1="2.21" x2="2.87" y2="2.09" gradientUnits="userSpaceOnUse"><stop stop-color="#F8FCFD"/><stop offset="1" stop-color="#F8FCFD" stop-opacity="0"/></linearGradient></defs></svg>