<svg width="56" height="56" viewBox="0 0 56 56" xmlns="http://www.w3.org/2000/svg"><path fill="#F0F3FA" d="M0 0h56v56H0z"/><path d="M49.5 22H52l-3 4.96V30h-2v-3.04L44 22h2.5c.46.9 1.08 2.07 1.5 3 .37-.92 1.08-2.1 1.5-3Z" fill="#1B4E9B"/><path d="M43.51 25.7c.45.16.8.41 1.07.77.28.36.42.75.42 1.17 0 .75-.28 1.33-.83 1.74-.55.41-1.36.62-2.44.62H37v-8h4.64c1.3 0 3 .43 3 2.03 0 .8-.37 1.36-1.13 1.68ZM41.36 24H40v1.12h1.36c.45 0 .68-.18.68-.56 0-.37-.23-.56-.68-.56ZM40 28h1.7c.45 0 .68-.19.68-.56 0-.38-.23-.56-.68-.56H40V28ZM32 22v6h4v2h-7v-8h3ZM29 30h-2.73l-.32-1h-2.99l-.33 1H20l2.81-8h3.22L29 30Zm-5.48-3h1.84c-.32-.97-.63-1.95-.92-2.93L23.52 27ZM17 25v-3h3v8h-3v-3h-2v3h-3v-8h3v3h2Z" fill="#1B4E9B"/><path d="M10.98 29.27c-.7.49-1.68.73-2.96.73-1.74 0-3.94-.61-4.02-2.7h2.73c.07.73.7.89 1.34.89.76 0 .93-.18.93-.53 0-.8-1.6-.7-2.08-.75-1.37-.17-2.71-.87-2.71-2.4C4.2 22.48 6.27 22 7.92 22c2.4 0 3.68.84 3.84 2.52H9.19c-.06-.5-.4-.73-1.17-.73-.7 0-1.02.17-1.02.5 0 .28.24.45.79.51 1.6.2 4.21.36 4.21 2.5a2.3 2.3 0 0 1-1.02 1.97Z" fill="#1B4E9B"/><path fill="#EF7F1A" fill-opacity=".5" d="M7 31h42v3H7z"/><path fill="#1B4E9B" fill-opacity=".5" d="M14 35h29v3H14z"/></svg>