<svg width="56" height="56" viewBox="0 0 56 56" xmlns="http://www.w3.org/2000/svg"><path fill="#F0F3FA" d="M0 0h56v56H0z"/><path fill-rule="evenodd" d="M28 9 9 28l19 19 19-19L28 9Zm-1 7.05c-3.82.34-7.56 2.66-7.53 6.95-.02 4.3 3.78 6.19 7.48 6.73l.2.03C29.53 30.1 33 30.6 33 33c0 1.9-2.1 2.84-4 2.98V40c4.5-.17 8.53-2.65 8.5-7-.03-4.49-3.8-5.93-7.5-6.9l-1.18-.25c-2.07-.4-4.9-.97-4.82-3.1 0-1.54 1.55-2.38 3-2.65v-4.04Zm2 4.04c1.52.3 2.9 1.25 3.07 2.91h4.62c-.09-4.17-3.8-6.6-7.69-6.95v4.04Zm-2 19.84V35.8c-1.82-.5-3.22-1.89-3.34-3.8H19c.1 4.72 3.3 7.46 8 7.93Z" fill="#EC2227"/></svg>