<svg width="56" height="56" viewBox="0 0 56 56" xmlns="http://www.w3.org/2000/svg"><path fill="#F0F3FA" d="M0 0h56v56H0z"/><path d="M47.23 18.43c.13-.12.28-.22.45-.3a1.72 1.72 0 0 1 1.08-.08c.18.04.35.11.49.22.33.23.54.49.64.75.08.23.12.46.1.7a1.54 1.54 0 0 1-.6 1.13c-.18.15-.4.26-.64.32l-.96.28c-.3.09-.53.26-.7.52-.04.04-.06.04-.07-.01-.2-.73-.31-1.34-.33-1.83-.02-.77.16-1.34.54-1.7Z" fill="#FECB09"/><path d="M15.5 23.28c0 .07-.02.08.02.02.27-.48.53-.83 1.19-1.05.6-.2 1.18-.27 1.73-.18a2.92 2.92 0 0 1 2.35 2.03c.14.44.21.95.21 1.54v7.32c0 .03-.01.04-.04.04H18.8c-.03 0-.05-.02-.05-.05v-.24c.03-1.45.03-2.54.03-3.26-.01-1.21-.05-2.76-.12-3.66a1.85 1.85 0 0 0-.17-.67 1.5 1.5 0 0 0-.37-.5 1.32 1.32 0 0 0-.53-.28c-.2-.05-.42-.06-.64-.02-.6.1-.93.5-.96 1.18l-.02.03h-.04c-.29-.16-.3-.38-.42-.67 0-.02-.02-.02-.03-.02-.02 0 .01.01.01.03v8.07c0 .04-.05.06-.09.06h-2.35c-.04 0-.06-.02-.06-.06V21.42c0-.55.04-.94.12-1.16.17-.44.45-.76.85-.97.33-.18.94-.28 1.43-.29.05 0 .1.02.1.07v4.21ZM41.9 24h-.87c-.03 0-.03-.03-.03-.07v-1.8c0-.06 0-.13.06-.13h.86c.05 0 .08.01.08-.03v-1c0-.34.05-.64.2-.9.12-.25.3-.45.55-.62.22-.16.48-.28.77-.35.28-.08.57-.1.87-.1.03 0 .04.02.04.05v2.91c0 .05.02.04.07.04h2.11c.02 0 .04.05.06.06l.02.06c-.05.75-.21 1.39-.97 1.73-.37.17-.82.15-1.23.15h-.01c-.03 0-.05 0-.05.04v6.45c0 .36.2.56.6.6.46.04.85-.1 1.18-.46a.06.06 0 0 1 .06-.02c.03.01.04.03.05.05.12.46.08.88-.1 1.25-.2.36-.5.64-.92.82-.91.4-1.73.36-2.46-.1a1.7 1.7 0 0 1-.69-.84c-.12-.3-.15-.67-.15-1.1.01-1.97 0-4.77 0-6.62 0-.05-.04-.07-.1-.07ZM32 25.73v-3.65c0-.05.03-.08.08-.08h2.4c.05 0 .07.02.07.07.01.46 0 .88-.03 1.25 0 .13.02.14.1.03.2-.29.46-.54.79-.75a4.15 4.15 0 0 1 3.23-.42 3.25 3.25 0 0 1 2.2 2.3c.11.41.17 1.16.16 2.25-.02 2.1-.02 4.18 0 6.22 0 .03-.02.05-.05.05h-2.44c-.03 0-.04-.02-.04-.05.04-2 .03-3.96 0-5.9a7.09 7.09 0 0 0-.1-.92 1.81 1.81 0 0 0-.73-1.38 1.54 1.54 0 0 0-1.46-.17c-.25.1-.44.24-.58.44-.15.22-.23.48-.22.79 0 .01 0 .03-.02.04a.04.04 0 0 1-.04 0c-.25-.12-.44-.3-.6-.55-.04-.08-.09-.15-.15-.22-.04-.04-.06-.03-.06.03.02.2.02.37.02.52.03 2.66.03 5.1.02 7.34 0 .02-.01.03-.03.03h-2.49c-.02 0-.03-.01-.03-.03v-7.24ZM47.16 23.36c.16-.49.47-.85.92-1.09.39-.2.84-.3 1.34-.26.05 0 .08.03.08.09v10.86c0 .03-.01.04-.04.04h-2.4c-.04 0-.06-.02-.06-.06v-8.7c0-.27.06-.56.16-.88ZM10.2 25.27c-.39-.6-.94-.89-1.66-.88-.2 0-.36.05-.5.14a.68.68 0 0 0-.3.35.54.54 0 0 0 .03.43c.07.15.2.29.41.4l.7.36c.57.29.99.52 1.25.68.45.28.81.58 1.1.9a3.32 3.32 0 0 1 .59 3.19c-.22.62-.6 1.13-1.16 1.52-.53.36-1.12.57-1.78.62a4.26 4.26 0 0 1-3.86-1.72c-.03-.04-.03-.08 0-.11l1.46-1.67c.03-.03.06-.03.1 0 .25.33.55.59.89.8.32.19.66.3 1.02.33.43.03.75-.07.98-.3.26-.28.27-.6.02-.94a2.51 2.51 0 0 0-.95-.74c-.5-.26-.86-.47-1.11-.62a6.47 6.47 0 0 1-1.04-.76 3 3 0 0 1-.42-4.07c.38-.47.88-.8 1.5-1a3.74 3.74 0 0 1 2.48.07c.35.13.63.33.86.6.23.26.37.56.42.88.06.33.02.65-.11.95-.15.32-.4.58-.75.79-.04.03-.07.02-.1-.03a.58.58 0 0 1-.03-.08.45.45 0 0 0-.04-.1Z" fill="#906134"/><path d="M30.4 25.66a3.81 3.81 0 0 1 .04-.02c.16-.3.37-.5.64-.58.2-.07.48-.08.85-.05.05 0 .07.03.07.09 0 .33-.07.6-.18.82-.12.22-.31.39-.58.52-.24.12-.42.23-.52.32a.7.7 0 0 0-.25.57 9.9 9.9 0 0 0 .32 2.13h-.03a6.33 6.33 0 0 1-.27-.87c-.07-.5-.17-.99-.3-1.47a2.44 2.44 0 0 0-.56-1.1l-.43-.46a3.21 3.21 0 0 1-.35-.5c-.22-.37-.3-.78-.26-1.23a11.73 11.73 0 0 1 .22-1.32h.05a2.6 2.6 0 0 1 1.3 1.28 2.91 2.91 0 0 1 .22 1.86c0 .01 0 .02.01.01Z" fill="#71BF44"/><path d="M28.37 24.28c-.04-.42.04-1.05.23-1.89a6.24 6.24 0 0 0-4.23-.04c-.63.21-1.12.53-1.48.97a2.63 2.63 0 0 0-.48 1.82c.04.22.1.4.2.56.14.2.32.35.55.46a1.48 1.48 0 0 0 1.34-.01c.22-.12.39-.3.5-.51.23-.44.21-.9-.06-1.38a2.21 2.21 0 0 0-.16-.25 1.33 1.33 0 0 1-.21-.34.52.52 0 0 1 .05-.42c.13-.25.4-.4.78-.48.28-.05.6-.05.93 0 .81.11 1.24.67 1.27 1.66.02.59.02 1.2 0 1.82 0 .06-.02.1-.07.12-1.37.4-2.59.9-3.66 1.46-1.49.78-2.09 1.91-1.8 3.41.06.31.18.59.37.83.17.23.38.42.65.58a2.59 2.59 0 0 0 1.65.33 4.7 4.7 0 0 0 2.88-1.53l.01.02c.11.88.55 1.38 1.33 1.5.5.08 1 0 1.48-.23.46-.22.86-.55 1.22-1 .01-.03.01-.05 0-.07l-.29-.43c-.01-.02-.03-.02-.04 0a.93.93 0 0 1-.3.27c-.12.07-.24.07-.34-.02-.12-.1-.19-.2-.2-.29-.04-.35-.05-.97-.02-1.88l-.15-.72c-.1-.51-.23-1.07-.41-1.66-.1-.32-.25-.59-.48-.82a5.7 5.7 0 0 1-.7-.82c-.2-.32-.32-.66-.36-1.02ZM26.9 27.8c.21.14.37.32.47.56.08.2.12.45.11.72a2.94 2.94 0 0 1-.46 1.42 2.51 2.51 0 0 1-2.7 1.2c-.3-.05-.58-.17-.81-.35a1.3 1.3 0 0 1-.5-.76c-.07-.33-.03-.62.14-.84.17-.22.41-.34.73-.37l.52-.04c.2 0 .4-.08.57-.21.17-.14.29-.32.34-.54a1.35 1.35 0 0 1 .63-.83.9.9 0 0 1 .96.03Zm-1.54 1.1.05-.04c.02 0 .03 0 .05.02l.02.03c.05.05.06.1.03.17-.19.41-.49.61-.9.6a.1.1 0 0 1-.07-.05c-.02-.02-.02-.06.01-.1a.07.07 0 0 1 .05-.03c.2-.05.36-.1.46-.17a.92.92 0 0 0 .3-.43Z" fill="#906134"/></svg>