<svg width="56" height="56" viewBox="0 0 56 56" xmlns="http://www.w3.org/2000/svg"><path fill="#F0F3FA" d="M0 0h56v56H0z"/><path d="M46.82 23H49l-.82 6H46l.82-6Z" fill="#F7811F"/><path d="M22.34 35.78h3.96l.3-1.95c.03-.2-.11-.39-.3-.39h-4.94c-.15 0-.27.12-.3.28l-.66 4.45c-.03.2.11.39.3.39h4.9c.14 0 .27-.12.3-.28l.02-.17h-3c-.48 0-.86-.5-.78-1.03l.2-1.3Zm4.04 1.89-.1.68c-.05.38-.34.65-.68.65h-4.9c-.43 0-.76-.43-.69-.9l.66-4.45c.06-.38.35-.65.69-.65h4.94c.44 0 .76.43.69.91l-.36 2.31h-3.96l-.13.93c-.04.27.14.52.39.52h3.45Zm-1.63-2.11h-2.38l.15-1c.07-.48.44-.84.88-.84h.57c.56 0 .98.56.89 1.17l-.1.67Zm-.33-.45.04-.3c.06-.33-.18-.64-.49-.64h-.57c-.24 0-.45.2-.49.46l-.07.48h1.58ZM40 33l-.04.24c-.1.76-.28 1.95-.36 2.45l-.04.25-.21-.1c-.3-.15-.75-.2-1.18.06-.43.27-.88.88-1.13 2.16l-.14.94H34l.87-6h2.9l-.12.94c.43-.4 1.13-.79 2.11-.91L40 33Zm-.43.44c-1.15.2-1.8.82-2.04 1.19l-.33-.14.15-1.11h-2.17l-.76 5.24h2.17l.1-.62c.25-1.35.74-2.08 1.3-2.42.45-.29.92-.29 1.29-.18l.29-1.96Z"/><path d="M42.23 20h-2.07L39 29h2.06l.56-4.43h1.24l-.5 4.43h2.06l.57-5.02a.87.87 0 0 0-.85-.98h-2.32l.4-3ZM17.23 20h-2.07L14 29h2.06l.56-4.43h1.24l-.5 4.43h2.06l.57-5.02a.87.87 0 0 0-.85-.98h-2.32l.4-3ZM28.77 23h4.46a.8.8 0 0 1 .76.91L33.34 29h-2.07l.57-4.39h-1.2L30.06 29H28l.77-6ZM48.7 18.24c0-.25-.32-.33-.43-.12l-.17.29c-.06.1-.2.1-.26 0l-.18-.28c-.13-.2-.44-.1-.43.14l.02.34c0 .11-.12.2-.22.14l-.3-.14c-.22-.1-.43.16-.29.35l.2.27c.06.1 0 .23-.1.25l-.34.04c-.24.04-.28.37-.05.45l.3.13c.12.04.14.18.05.26l-.25.22c-.18.15-.04.45.2.4l.32-.06c.12-.02.21.08.18.2l-.1.32c-.07.23.22.4.39.23l.24-.23a.15.15 0 0 1 .25.07l.1.32c.06.23.39.22.44-.01l.08-.33a.15.15 0 0 1 .25-.08l.25.22c.18.16.46-.02.38-.25l-.11-.32a.16.16 0 0 1 .16-.2l.33.05c.24.03.37-.27.18-.42l-.26-.2a.16.16 0 0 1 .03-.27l.3-.13c.22-.1.17-.43-.07-.45l-.33-.03a.16.16 0 0 1-.12-.24l.18-.28c.13-.2-.09-.45-.3-.34l-.3.16a.15.15 0 0 1-.22-.14v-.33Zm-.02 1.78c0 .31-.2.57-.47.67a.23.23 0 0 1-.46 0 .7.7 0 0 1 .23-1.37c.39 0 .7.32.7.7ZM36.37 20h2.34l-.55 3.5H39l-.1 1.5h-.96l-.43 2.6h.61V29h-2.38c-.42 0-.74-.33-.68-.7l.54-3.3H35l.1-1.5h.72l.55-3.5Z" fill="#F7811F"/><path fill-rule="evenodd" d="m21.8 23-.18 1.8h2.3c.23 0 .7.07.66.21-.1.16-1.18.48-2.14.74a1.6 1.6 0 0 0-1.15 1.32L21 29h5.37l.62-4.99c.07-.53-.32-1.01-.82-1.01h-4.38Zm1.45 4.48h1.12l.13-1.03c-.38.07-1.15.38-1.25 1.03Z" fill="#F7811F"/><path fill-rule="evenodd" d="M30.73 35.22c-.49.16-1.3.36-2.05.53a1.7 1.7 0 0 0-1.34 1.32L27 39h6.26l.73-4.99c.08-.53-.37-1.01-.96-1.01h-5.1l-.2 1.8h2.67a4 4 0 0 1 .58.07c.13.04.21.08.2.14-.03.05-.16.1-.34.17l-.1.04Zm.2-.5h-.01Zm-2.77-.32h2.26c.15.01.38.03.57.08.1.02.2.05.3.1.05.03.13.07.19.15.07.1.11.24.07.39l-.02.06-.04.06a.64.64 0 0 1-.23.19l-.23.1-.62.19c-.48.13-1.08.28-1.64.4-.56.13-.96.54-1.04 1.02l-.27 1.47h5.47l.68-4.65c.04-.27-.2-.57-.58-.57h-4.76l-.1 1.01Zm3.11 3.46h-2.11l.08-.45c.09-.5.46-.8.8-1 .34-.2.72-.3.97-.34l.53-.1-.27 1.9Zm-.34-.38h-1.3c.02-.15.09-.28.18-.39.2-.26.55-.43.86-.54.15-.05.3-.08.4-.1l-.14 1.03Z"/><path d="M13.66 23h-2.65l.11-.7a.26.26 0 0 0-.26-.3h-1.2c-.14 0-.25.1-.27.23l-.16 1.47c-.02.16.1.3.26.3h3.24a.7.7 0 0 1 .7.8l-.44 3.28c-.07.52-.52.92-1.05.92H6.88a.88.88 0 0 1-.86-1.06l.3-1.5H8.8l-.1.48c-.03.16.1.32.26.32h1.3c.13 0 .24-.1.26-.24l.2-1.7a.26.26 0 0 0-.26-.3H7.22a.7.7 0 0 1-.7-.8l.44-3.28c.07-.52.52-.92 1.05-.92h5.1c.55 0 .96.48.88 1.02L13.66 23Z" fill="#F7811F"/><path fill-rule="evenodd" d="M14.67 31.52h2.69l-.21 1.13h2.5l.34-1.7c.1-.5-.3-.95-.82-.95h-5.92a.93.93 0 0 0-.92.75L11 38.06c-.09.5.3.94.82.94h5.78c.45 0 .84-.3.92-.73l.76-3.7c.05-.24-.14-.47-.4-.47h-3.25l-.31 1.15h1.29l-.45 2.23h-2.54l1.04-5.95Zm1.2 3.33h1.26l-.62 3.02h-3.37l1.18-6.74h3.54l-.2 1.12h1.65l.27-1.38a.4.4 0 0 0-.41-.47h-5.92a.52.52 0 0 0-.51.42l-1.32 7.31a.4.4 0 0 0 .41.47h5.78c.25 0 .47-.17.51-.4l.77-3.7h-2.93l-.1.35Z"/><path d="m46.41 34.67.22-1.08v-.02a.18.18 0 0 0-.05-.06.54.54 0 0 0-.35-.12h-4.47a.76.76 0 0 0-.42.12c-.1.07-.13.14-.14.18l-.38 2.27.02.02c.03.03.11.07.23.07h2.83c.14 0 .29.04.4.15.12.1.23.28.2.51l-.18 1.03a.56.56 0 0 1-.25.37c-.1.07-.22.1-.35.1H42.6a.62.62 0 0 1-.42-.16.57.57 0 0 1-.18-.36h-1.43l-.19.71s-.01.03.05.09c.06.06.18.12.35.12h4.42c.17 0 .32-.05.42-.12.1-.07.14-.14.14-.18l.38-2.24-.01-.02a.36.36 0 0 0-.23-.07h-2.84a.62.62 0 0 1-.4-.15.56.56 0 0 1-.19-.51l.14-.85c.04-.18.14-.3.25-.38.1-.07.23-.1.35-.1h1.05c.15 0 .3.05.42.15.12.1.22.3.17.53h1.57Zm-1.93-.08c.03-.11-.08-.2-.23-.2H43.2c-.12 0-.22.06-.23.15l-.15.85c-.01.1.1.2.23.2h2.84c.37 0 .66.25.6.53l-.38 2.26c-.06.36-.45.62-.92.62h-4.42c-.49 0-.85-.34-.75-.7l.27-1h2.16l-.08.31v.08c.02.07.11.13.22.13h1.13c.12 0 .22-.06.23-.15l.18-1.03c.02-.1-.09-.2-.23-.2h-2.83c-.37 0-.66-.25-.62-.53l.4-2.3c.05-.35.44-.61.91-.61h4.47c.47 0 .83.32.76.68l-.28 1.38h-2.32l.1-.47Zm1.66 1.49Zm-5.33-.13Z"/></svg>