<svg xmlns="http://www.w3.org/2000/svg" width="56" height="56" viewBox="0 0 56 56"><path fill="#F0F3FA" d="M0 0h56v56H0z"/><path fill-rule="evenodd" d="M14 34.6a7.6 7.6 0 1 0 0-15.2 7.6 7.6 0 0 0 0 15.2zm0 .4a8 8 0 1 0 0-16 8 8 0 0 0 0 16z" fill="#858585"/><path fill-rule="evenodd" d="M14 31.75a4.75 4.75 0 1 0 0-9.5 4.75 4.75 0 0 0 0 9.5zm0 .4a5.15 5.15 0 1 0 0-10.3 5.15 5.15 0 0 0 0 10.3z" fill="#858585"/><path fill-rule="evenodd" d="M14 22.32L9.93 29.4h8.1L14 22.32zm0 .8L10.62 29h6.73l-3.37-5.88z" fill="#B37F5D"/><path fill-rule="evenodd" d="M14 31.68L9.93 24.6h8.1L14 31.68zm0-.8L10.62 25h6.73l-3.37 5.88z" fill="#B37F5D"/><path d="M15.63 27.16v1.18c-.16.09-.34.13-.54.13-.3 0-.5-.1-.62-.31a2.08 2.08 0 0 1-.19-1c0-.97.25-1.45.76-1.45.25 0 .42.11.52.34.04.09.06.21.07.37h-.3a.87.87 0 0 0-.07-.34.22.22 0 0 0-.2-.11.3.3 0 0 0-.26.13c-.08.1-.13.27-.17.5a3.67 3.67 0 0 0 .07 1.32c.08.2.22.3.41.3.07 0 .14-.01.22-.04v-.76h-.2v-.26h.5z" fill="#B37F5D"/><path d="M13.48 25.54c.23 0 .4.05.52.14.13.09.19.24.19.46 0 .1-.02.2-.04.27a.45.45 0 0 1-.29.27l-.21.05c.15.05.26.17.31.35l.02.13.02.16c0 .04.02.09.04.12a.1.1 0 0 0 .1.05c.02 0 .04 0 .06-.02a.2.2 0 0 0 .05-.12v-.07h.13v.03c0 .15-.04.25-.1.31-.06.06-.15.09-.26.09a.28.28 0 0 1-.17-.05.34.34 0 0 1-.1-.12.63.63 0 0 1-.05-.17 3.3 3.3 0 0 1-.02-.18l-.04-.22a.46.46 0 0 0-.06-.15.26.26 0 0 0-.1-.09.4.4 0 0 0-.15-.04h-.25v.68c0 .06.01.1.04.13.03.02.07.03.1.03h.1v.13h-.77v-.13h.1c.04 0 .07 0 .1-.03s.04-.07.04-.13v-1.59c0-.06-.01-.1-.04-.13a.15.15 0 0 0-.1-.03h-.1v-.13h.93zm0 .14a1.98 1.98 0 0 0-.26-.01.16.16 0 0 0-.1.03c-.03.03-.04.07-.04.13v.77h.28c.2 0 .33-.03.42-.1.08-.08.12-.2.12-.36 0-.3-.14-.45-.42-.46z" fill="#B37F5D"/><path d="M23 23.33L27.05 18h3.63l-4.14 5.33L31 30.2 26.66 36H23l4.5-5.8-4.5-6.87z" fill="#858585"/><path d="M33.64 36L31 30h3.3l1.96 4.56 2.9-4.56h5.37L49 36h-3.71l-3.44-4.3-3.03 4.3h-5.18z" fill="#0E4FA4"/><path d="M15.63 20.4a6.82 6.82 0 0 0-5.93 1.33l.51.6a5.98 5.98 0 0 1 5.27-1.15l.15-.79zm.83 1.12l.26-.76a6.81 6.81 0 0 1 3.98 5.03l-.77.25a6.01 6.01 0 0 0-3.47-4.52zM20 27.05a5.99 5.99 0 0 1-1.96 4.39l.7.45a6.78 6.78 0 0 0 2.06-5l-.8.16zm-2.6 5.84l-.35-.72a5.98 5.98 0 0 1-6.28-.1l-.36.71a6.77 6.77 0 0 0 7 .11zm-8.16-1.03l.55-.58a5.99 5.99 0 0 1-1.8-4.1l-.8-.16c.01 1.9.8 3.61 2.05 4.84zM7.28 25.9l.77.26c.16-1.1.6-2.1 1.26-2.91l-.6-.53c-.73.9-1.23 1.99-1.43 3.18z" fill="#858585"/></svg>