<svg xmlns="http://www.w3.org/2000/svg" width="56" height="56"><path fill="#F0F3FA" d="M0 0h56v56H0z"/><path d="M20.97 37.53l7.08-4.38-13.65 3.53c1.86 2.53 2.74 3.25 6.57.85z" fill="#D51F53"/><path d="M10.14 23H38.8c2.84.02 3.02 2.8 1.84 3.45l-19.63 9.93c-2.56 1.44-4.7 1.56-5.93-.42l-4.66-5.47-2.8-3.38C6.54 25.71 6.3 25 6.49 24.18 6.77 22.93 8.02 23 10.14 23z" fill="#D51F53"/><path d="M40.03 22.45l-12.54.86 14.36 2.44.44-.28c1.19-.82.75-3.3-2.26-3.02z" fill="#D51F53"/><path d="M7.33 30.97c.71 0 1.3-.59 1.3-1.31a1.3 1.3 0 00-2.59 0c0 .72.57 1.3 1.29 1.3zm21.06 5.73c.67 0 1.2-.54 1.2-1.22 0-.68-.53-1.22-1.2-1.22-.67 0-1.22.54-1.22 1.22 0 .68.55 1.22 1.22 1.22z" fill="#FDB913"/><path d="M14.4 36.68l23.44-6.05c3.99-1.19 2.86-5.18.3-5.5l-19.96-3.68c-3.94-.72-5.65-2.25-6.36 2.35l-1.78 8.6c-.71 3.11 1.72 4.88 4.36 4.28z" fill="#F15A22"/><path d="M40.21 26.67a2.66 2.66 0 00-2.15-1.56L27 23H11.94l1.44 7.2s.93 6.34 1.02 6.48l12.24-3.16 13.57-6.85z" fill="#FDB913"/><path d="M16.62 19.3c-2.3-.6-3.77-.65-4.57 3.33l18.49.55-13.92-3.88z" fill="#F15A22"/><path d="M4.65 28.32a.66.66 0 100-1.32c-.36 0-.65.3-.65.66 0 .36.3.66.65.66zm44.07 3.95l-29.79 1.69c-2.68.24-3.04-.8-2.39-1.5l10.3-9.58c1.48-1.4 2.42-.88 4.37-.38l18.86 4.55c1.98.74 2.99 5.03-1.35 5.22z" fill="#0096DB"/><path d="M39.5 25.92l-12.85-2.86-10.03 9.33c-.8.72-.7 1.85 1.54 1.62l8.48-.5 12.48-2.99c3.05-.62 3.78-4 .37-4.6zM10.36 21.4a.7.7 0 00.7-.7.7.7 0 00-.7-.7.7.7 0 00-.7.7c0 .4.31.7.7.7z" fill="#8DC63F"/><path d="M27.18 20.86a.65.65 0 000-1.31c-.36 0-.65.3-.65.66 0 .36.29.65.65.65zM31.44 37a.56.56 0 000-1.13.56.56 0 00-.56.57c0 .3.25.56.56.56z" fill="#D51F53"/><path d="M51.5 33a.5.5 0 100-1 .5.5 0 000 1z" fill="#0096DB"/><path d="M44.06 27c-1.41 0-2.5 1.11-2.5 2.5s1.1 2.5 2.5 2.5 2.5-1.11 2.5-2.5-1.1-2.5-2.5-2.5zm0 3.81c-.75 0-1.26-.59-1.26-1.3 0-.72.5-1.32 1.25-1.32.74 0 1.26.6 1.26 1.31 0 .72-.52 1.31-1.26 1.31zm-31.1-1.49a2.39 2.39 0 00-1.22-.42c-.68-.13-.9-.33-.68-.58.12-.12.34-.18.68-.18s.62.13.85.4l.78-.87a2.45 2.45 0 00-1.83-.67c-.9 0-1.76.63-1.76 1.57 0 .98.73 1.4 1.62 1.5.45.04.72.13.8.25.07.12.06.24-.05.37-.12.12-.36.18-.75.18-.47-.04-.82-.2-1.05-.46l-.78.86c.54.53 1.26.73 2 .73.88 0 1.86-.47 1.86-1.46 0-.58-.16-.99-.47-1.22zM16.48 27c-.44 0-.78.09-1.14.42v-3.13l-1.34.8V32h1.34v-3.4c.2-.28.43-.42.71-.44.32 0 .56.1.72.29.16.18.23.45.23.78V32h1.35v-3.12A1.8 1.8 0 0016.48 27zm5.07 0A2.47 2.47 0 0019 29.5c0 1.44 1.1 2.5 2.55 2.5 1.02 0 1.72-.25 2.1-.75l-.82-.8c-.38.27-.8.4-1.28.4-.52 0-1-.32-1.07-.85H24v-.5c0-1.42-1-2.5-2.45-2.5zm-1.02 2c0-.55.52-.85 1.02-.85s1.02.3 1.02.85h-2.04zm9.77-2c-.74 0-1.29.2-1.66.58-.33-.38-.81-.58-1.45-.58-.48 0-.88.15-1.2.44V27l-1.4.15V32H26v-3.2c.23-.39.5-.6.8-.61.67.02.95.4.95 1.06V32h1.4v-2.95c0-.41.3-.83.75-.86.67.02.95.4.95 1.06V32h1.4v-3.1c0-.5-.17-.94-.5-1.32-.33-.38-.82-.58-1.45-.58zm9.1.55V27l-1.4.15V32h1.4v-3.07c.23-.47.5-.72.85-.74.3 0 .53.09.7.23l.22-1.38a2.6 2.6 0 00-.47-.04c-.51 0-.94.19-1.3.55zM35.47 27c-.8 0-1.52.2-2.13.6l.53.85c.32-.2.78-.3 1.36-.3.5.03.76.23.77.6v.15c-.4-.2-.75-.3-1.06-.3-.68 0-1.18.18-1.48.55-.3.37-.46.78-.46 1.25 0 .5.16.9.48 1.18.33.28.81.42 1.46.42.31 0 .67-.13 1.06-.4v.4h1.36v-3c0-.67-.17-1.17-.51-1.5-.34-.33-.8-.5-1.38-.5zm.53 3.5c-.13.26-.43.4-.92.4-.58-.04-.89-.25-.92-.65.03-.4.34-.63.92-.7.49 0 .8.13.92.39v.56zM49.5 27c-1.4 0-2.5 1.1-2.5 2.5s1.1 2.5 2.5 2.5 2.5-1.1 2.5-2.5-1.1-2.5-2.5-2.5zm0 3.81c-.74 0-1.26-.59-1.26-1.3 0-.72.52-1.32 1.25-1.32.74 0 1.26.6 1.26 1.31 0 .72-.52 1.31-1.25 1.31z" fill="#F0F3FA"/></svg>