<svg width="56" height="56" xmlns="http://www.w3.org/2000/svg"><path fill="#04A5AC" d="M0 0h56v56H0z"/><path d="M41 14.11l-8.707 8.5L29.106 11 41 14.11z" fill="#fff"/><path d="M21.106 25.426c-2.75-8.434 5.105-11.117 9.033-11.5 3.797.51 9.695 3.537 1.178 4.983-5.625.955-5.767 3.396-4.505 5.75 1.854 3.459 5.103 5.808 6.53 9.584 1.017 2.69 1.067 5.597-1.632 7.668-4.399 3.373-12.306 1.916-15.71.766l1.964-4.983c2.749 1.916 9.033 1.916 10.211-.384 1.178-2.3-5.891-8.434-7.07-11.884z" fill="#fff"/></svg>