<svg width="56" height="56" viewBox="0 0 56 56" xmlns="http://www.w3.org/2000/svg"><path fill="#F0F3FA" d="M0 0h56v56H0z"/><path d="M42 14v-.55L20.8 13c-2.93.48-8.8 3.03-8.8 9.43 0 8 7.23 9.57 8.8 9.57h9.94c.23.13.47.3.69.5.46.44.8 1.03.8 1.8 0 .78-.3 1.27-.67 1.59-.38.32-.84.46-1.13.5L14 37.26l.04.73 16.46-.89a3 3 0 0 0 1.56-.68c.53-.45.94-1.14.94-2.13 0-1-.46-1.76-1.02-2.3h2.53c2.72 0 5.49 2.37 5.49 4.97v.52c0 2.68-2.84 4.86-5.64 4.86L14 42v.53l20.1.47c5.47 0 9.9-4.34 9.9-9.57C44 28.09 39.48 24 33.9 24h-8.64a3.6 3.6 0 0 1-.69-.5 2.42 2.42 0 0 1-.8-1.8c0-.78.3-1.27.67-1.59.38-.32.84-.46 1.13-.5L42 18.74l-.04-.73-16.46.89a3 3 0 0 0-1.56.68A2.69 2.69 0 0 0 23 21.7c0 1 .46 1.76 1.02 2.3H21.6C18.8 24 17 21.48 17 18.81c0-4.6 6.12-4.93 10.72-4.81H42Z" fill="#E22D24"/><path d="M41 16.5 29 17v-1l12 .5ZM26 39.5 14 40v-1l12 .5Z" fill="#335092"/></svg>