<svg width="56" height="56" viewBox="0 0 56 56" xmlns="http://www.w3.org/2000/svg"><path fill="#F0F3FA" d="M0 0h56v56H0z"/><path d="M22.77 11.74a.93.93 0 0 1-.12.38.32.32 0 0 1-.26.17c-.99.1-1.96.21-2.91.35-.25.03-.62.21-1.1.52a.22.22 0 0 1-.13.04h-.54a.14.14 0 0 0-.09.03.13.13 0 0 0-.05.07c-.06.27.05.48.34.64.19.1.45.18.79.23 5.72.87 11.57.93 17.56.17a9.76 9.76 0 0 0 1.84-.44.95.95 0 0 0 .45-.3c.15-.18.11-.33-.13-.43a9.83 9.83 0 0 0-4.4-.74.3.3 0 0 1-.25-.1.29.29 0 0 1-.08-.25c.03-.33-.07-.55-.31-.65a3.6 3.6 0 0 0-1.35-.3l-4.66-.12c-1.08-.03-2.03 0-2.84.08-.53.06-1.03.17-1.53.35a.35.35 0 0 0-.23.3Zm3.34 5.3c2.98.57 6 .8 9.1.7 1.1-.03 2.3-.21 3.59-.53.1-.03.13-.08.12-.17-.1-.52-.17-1-.24-1.42-.03-.2-.04-.4-.03-.63 0-.16.02-.36.05-.63 0-.03 0-.05-.02-.07a.08.08 0 0 0-.08-.01c-.7.21-1.41.37-2.1.48a64.54 64.54 0 0 1-15.62.2 21.25 21.25 0 0 1-3.4-.67l-.03.04c-.02.02-.01.04.02.05 2.8 1.21 5.67 2.1 8.64 2.66Zm11.5.63c.02 0 .03 0 .04.02v.06a28.03 28.03 0 0 1-6.9 1.4c-1.91.17-3.62.25-5.13.25-2.89 0-5.8-.32-8.75-.99-.08-.02-.11-.06-.1-.14l.44-2.58c.02-.11.03-.28.03-.5.01-.25.03-.44.05-.56.02-.06.05-.08.11-.06a40.47 40.47 0 0 0 18.42 3.35c.4-.02 1-.1 1.78-.25Zm-19.84 1.18h.03c.13.08.27.15.42.2a47.54 47.54 0 0 0 16.2 3.36c1.7.05 3.41-.08 5.12-.4.13-.02.18-.09.16-.21l-.7-4.3a.06.06 0 0 0-.04-.04.06.06 0 0 0-.06 0 22.85 22.85 0 0 1-4.81 1.46c-1.49.29-3.18.49-5.1.6-1.65.1-3.18.12-4.56.08-2.11-.06-4.25-.3-6.41-.75a.71.71 0 0 0-.25 0Zm13.12 3.68h-3.82c-.05 0-.07.02-.07.07v1.77c0 .03-.01.05-.03.07a.1.1 0 0 1-.07.03l-1.85.06c-.04 0-.05-.02-.05-.06v-1.9c0-.02-.02-.04-.05-.04h-7.59a4.82 4.82 0 0 0-1.33.18.05.05 0 0 1-.01-.04l.68-3.97c0-.02 0-.03.02-.04h.05a45.51 45.51 0 0 0 12.6 3.52c1.49.2 2.86.32 4.1.38 1.44.08 2.81.06 4.1-.03.04 0 .07.02.07.06.02.11-.04.19-.15.22-1.86.56-3.8.96-5.79 1.2-.06.01-.1 0-.12-.06l-.54-1.32a.15.15 0 0 0-.15-.1Zm8.92-.06-.04-.24a.04.04 0 0 0-.02-.03h-.05l-.66.25c-.02.01-.03.03-.03.05 0 .03.02.04.05.04l.7-.02c.02 0 .03 0 .04-.02v-.03Zm-1.6.05c.2-.03.36-.07.35-.1l-.36.02c-.2.03-.35.07-.34.1 0 .02.16 0 .36-.02ZM35.5 27.6l1.94-4.48v-.04a40.87 40.87 0 0 1-5.67 1.18.06.06 0 0 0-.01.06l1.33 3.16a.1.1 0 0 0 .1.07l2.21.11c.05 0 .08-.02.1-.06Zm-10.6-2.7.03-.08c.01-.05.05-.08.1-.08l1.95-.05c.02 0 .03.01.03.03v2.04l-.01.04a53.66 53.66 0 0 1-7.21-1.7c-.26-.09-.25-.1.01-.1h5c.06 0 .1-.04.1-.1Zm-1.6 2.58c.58.41.9 1.07.94 1.97l.03.06a.1.1 0 0 0 .07.02l2.55-.03c.05 0 .12-.02.12-.07V27.1c0-.05-.07-.08-.12-.09a54.87 54.87 0 0 1-7.82-1.94 2.24 2.24 0 0 0-1.14-.05c-.26.05-.43.22-.51.52a1.9 1.9 0 0 0-.02.78c.03.2.13.36.29.46l.02.01c.14.1.31.21.52.21H21.12c.95 0 1.67.11 2.18.48Zm6.43-.3-.02-.8c0-.03.01-.05.04-.05.02 0 .04 0 .05.02l.37.85v.04a.05.05 0 0 1-.05.02l-.35-.04c-.02 0-.04-.02-.04-.04Zm9.25-1.14-.6 1.41c-.03.08 0 .11.08.1l.5-.05c.05 0 .08-.02.1-.04a.13.13 0 0 0 .04-.1v-1.3c0-.2-.04-.21-.12-.02Zm-9.25 3.27V27.5c0-.03.02-.05.05-.05l.47.04c.02 0 .04.01.05.03l.7 1.68v.04c0 .02-.02.02-.03.03l-1.18.09c-.04 0-.06-.01-.06-.05Zm8.4-1.22.02.01.78-.2c.01 0 .02 0 .01-.02-.02-.07-.06-.11-.14-.14a.4.4 0 0 0-.24 0l-.17.04a.39.39 0 0 0-.21.12c-.05.06-.07.12-.05.18Zm-3.17.69-1.2.18c-.03 0-.05 0-.06-.03l-.47-1.1v-.04a.05.05 0 0 1 .05-.02l2.04.1c.01 0 .03 0 .03.02v.04l-.35.82c-.01.02-.02.03-.04.03Zm3.01-.38-1.82 4.22v.05l.05.02 3.66-.08c.03 0 .05-.01.05-.04v-4.39c0-.01 0-.03-.02-.03a.05.05 0 0 0-.04-.01l-1.85.23a.04.04 0 0 0-.03.03Zm-22.65.05c.08.07.06.1-.04.1a.4.4 0 0 1-.2-.06.1.1 0 0 1-.05-.08l.01-.06c.02-.03.05-.04.09-.03a.9.9 0 0 1 .19.13Zm6.44 2.45a61.8 61.8 0 0 1-6.66-2.15.09.09 0 0 0-.08 0 .08.08 0 0 0-.04.07l-.36 2.15c-.02.1.02.12.1.09l.06-.03.07-.03H21.7c.04 0 .06.01.08-.02a.05.05 0 0 0 .01-.04.05.05 0 0 0-.03-.04ZM16.54 29c1.9.3 3.75.51 5.56.63.16 0 .23.09.22.24l-.06.7c-.01.17-.1.24-.28.2a64.32 64.32 0 0 1-5.53-1.73c-.05-.01-.05-.03 0-.06h.06l.03.02Zm2.25.06c0 .02 0 .03.02.04 1.1.16 2.2.26 3.28.32.03 0 .06-.01.07-.05.01-.02 0-.04-.01-.06a.77.77 0 0 0-.52-.2 174.63 174.63 0 0 0-2.84-.05Zm16.07.02-.52 1.2-.05.02a.04.04 0 0 1-.04-.03l-.44-1.04v-.04l.04-.02.95-.16c.02 0 .04 0 .05.02v.05Zm-5.14.58v2.49c0 .04.02.06.07.07l2.48.25c.02 0 .05 0 .06-.02a.06.06 0 0 0 .01-.07l-1.21-2.85c-.01-.03-.04-.05-.07-.05l-1.27.11c-.04 0-.07.03-.07.07Zm-5.2 1.81.15-1.7c0-.02.02-.03.05-.03h2.23c.04 0 .06 0 .06.04v1.99l-.03.03a.08.08 0 0 1-.05.01l-2.36-.3c-.04 0-.05-.02-.05-.04Zm5.2 1.1v.83c0 .06-.03.09-.09.09H27.1c-.07 0-.09-.03-.09-.1v-1.27c0-.05-.03-.08-.08-.09l-2.73-.3c-.05-.02-.09 0-.1.06-.18.56-.53 1-1.05 1.29-.2.1-.24.2-.27.26-.03.09-.05.13-.42.13-2.69.02-5.39.02-8.11 0-.05 0-.08.03-.1.07-.03.1 0 .16.1.18 5.1.93 10.25 1.2 15.46.8 2.45-.2 4.67-.46 6.67-.82l.83-.11c.77-.1 1.82-.23 2.55-.4a.2.2 0 0 0 .14-.1.23.23 0 0 0 .02-.18c-.01-.04-.04-.06-.1-.06l-3.73.06a.1.1 0 0 0-.1.07l-.16.42c-.02.05-.05.08-.1.08h-2.84c-.05.01-.1-.02-.11-.07l-.24-.6a.17.17 0 0 0-.16-.1l-2.51-.26c-.09 0-.13.03-.13.11Zm-3.35 4.39a65.75 65.75 0 0 1-10.73-2.74c-.03-.01-.03-.03-.01-.05h.03c4.6.74 9.25.93 13.94.58 1.71-.13 3.24-.3 4.58-.48 1.66-.22 3.16-.51 4.51-.86h.15c.13.06.28.08.42.08h2.3c.06 0 .09.02.1.07.17 1.29.4 2.58.68 3.88a.1.1 0 0 1-.02.08.1.1 0 0 1-.07.04c-1.86.3-3.78.42-5.76.36-3.44-.1-6.81-.42-10.12-.96ZM14.2 33.9c-.06-.02-.1 0-.1.06l-.88 5.18.01.07a.1.1 0 0 0 .07.04 68.59 68.59 0 0 0 16.14.66 76.5 76.5 0 0 0 7.67-.94 39.8 39.8 0 0 0 4-.97v-.03c-.01-.04-.03-.05-.06-.05-1.9.22-3.97.26-6.24.14-3.3-.19-6.4-.54-9.32-1.06a65.9 65.9 0 0 1-11.3-3.1Zm-.19 7.2a3.63 3.63 0 0 1-.91-.45.2.2 0 0 1-.1-.2l.14-.92c.01-.05.04-.07.1-.06a69.64 69.64 0 0 0 16.18.67c2.12-.16 4.27-.4 6.45-.73a34.83 34.83 0 0 0 6.52-1.6c.02 0 .03.02.03.04l.58 2.83c0 .05 0 .09-.03.13a.17.17 0 0 1-.1.08c-1.55.45-3.02.76-4.42.92-2.67.33-5.47.48-8.38.46l-5.53-.02c-2.4 0-4.87-.18-7.42-.5a21.5 21.5 0 0 1-3.1-.65Zm25.47 2.52c.25-.3.31-.68.19-1.13-.08-.28-.27-.4-.57-.37a93.8 93.8 0 0 1-21.6.06c-.35-.04-.6.1-.72.4-.2.48-.09.89.35 1.22.32.24.75.41 1.29.5 2.3.41 4.63.63 7 .67 2.13.03 3.87.03 5.2 0 1.81-.04 3.5-.15 5.05-.32 1.03-.1 1.94-.26 2.72-.44.5-.12.86-.32 1.09-.59Z" fill="#2B5AA3"/><path d="M27 22v12h3v-7.93L32.84 34h3.1L39 26.07V34h3l-1.84-12h-2.63a585.85 585.85 0 0 1-3.2 8.18c-.07.08-2.38-5.42-3.52-8.18H27ZM17.07 22c-.7 0-1.32.43-1.54.61L14.66 29h6.36a1 1 0 0 1 .98 1 1 1 0 0 1-.98 1h-7.38v3H22c1.66 0 3-1.36 3-3.02V29.9A2.93 2.93 0 0 0 22 27h-3.05c-.51 0-.93-.5-.93-1.02s.42-.94.93-.94H25V22h-7.93Z" fill="#F0F3FA"/></svg>