<svg xmlns="http://www.w3.org/2000/svg" width="56" height="56"><path fill="#F0F3FA" d="M0 0h56v56H0z"/><path d="M36.35 26s1.01-5.88-4.85-12.75c-1.61-1.73-2.73-2.33-3.78-2.24-.69.05-1.2.4-1.47.93-.64 1.25.06 2.35.95 3.29.76.8 1.6 1.49 2.41 2.22 3.49 3.1 6.35 7.44 6.74 8.55z" fill="url(#ahdliue4h)"/><path d="M47.6 24.76C45.6 22.2 40.43 17.1 31 12c1.99 2.04 5.96 7.55 5.96 13.27 0 5.71-3.97 9.7-5.96 11.23 2.12-.87 10.72-3.59 14.68-5.32 3-1.31 4.69-3.57 1.91-6.42z" fill="url(#bhdliue4h)"/><path d="M27.08 39.48c-2.3 2.7-.68 5.35 2.42 5.51 2.44.13 4.43-1.22 6.37-2.44C43.91 37.49 48.54 31.76 49 30c-.3 1.15-5.43 2.73-11.8 4.84-2.04.68-4.18 1.22-6.17 2a9.9 9.9 0 00-3.95 2.64z" fill="url(#chdliue4h)"/><path fill-rule="evenodd" d="M7 24a1 1 0 011-1h.5v3.72L11.93 23h2.04l-3.34 3.62L14.76 32h-1.89L9.6 27.74l-1.1 1.2V32H7v-8zm18.55 1h1.59l-2.18 7h-1.58l-2.18-7h1.59l1.38 4.7 1.38-4.7zM33 26.79c0-1.31-1.47-1.98-2.6-2-.58-.02-1.2.1-1.7.39-.5.3-.95.82-.95 1.57h1.5c0-.07.02-.17.21-.28.2-.12.53-.2.9-.19.36.01.68.11.88.25.18.12.26.27.26.47v.19l-2.37.62a2.25 2.25 0 00-1.63 2.2c0 1.5 1.2 2.28 2.46 2.28a3.12 3.12 0 003.04-3.2v-2.3zm-1.8 1.88l.3-.08c0 .97-.5 2.12-1.54 2.12-.93 0-1.3-.9-.46-1.45.49-.31 1.22-.48 1.7-.6zM17.6 25c-2.01 0-3 1.7-3 3.5s.99 3.5 3 3.5a3 3 0 002.96-2.5H19a1.5 1.5 0 01-2.91-.5h4.5v-1a3 3 0 00-3-3zm0 1.5c-.64 0-1.19.4-1.4.96H19a1.5 1.5 0 00-1.4-.96z" fill="#013D69"/><defs><linearGradient id="ahdliue4h" x1="27.2" y1="12.27" x2="34.9" y2="24.37" gradientUnits="userSpaceOnUse"><stop stop-color="#577B1F"/><stop offset="1" stop-color="#DFE21A"/></linearGradient><linearGradient id="bhdliue4h" x1="33.48" y1="26.29" x2="46.93" y2="29.2" gradientUnits="userSpaceOnUse"><stop stop-color="#0C7DAE"/><stop offset="1" stop-color="#084672"/></linearGradient><linearGradient id="chdliue4h" x1="46.95" y1="31.96" x2="26.5" y2="45.56" gradientUnits="userSpaceOnUse"><stop stop-color="#FECA64"/><stop offset="1" stop-color="#F16022"/></linearGradient></defs></svg>