<svg xmlns="http://www.w3.org/2000/svg" width="56" height="56"><path fill="url(#aedeyagjn)" d="M0 0h56v56H0z"/><path fill-rule="evenodd" d="M42 13h-1c-.07 1.01-.43 2.7-2.47 1.49-2.56-1.52-5.2-2.44-7.66-2.49-2.47-.05-8.87.97-8.87 6.74V19h-.13C19.4 18.95 13 20.06 13 25.83c0 1.73 1.26 5.46 8.2 6.87 8.53 1.73 9.8 4.21 9.8 6.23 0 1.64-.86 4.37-5.7 4.07-8.54-.83-10.3-7.84-10.3-10h-1v11h1c1.05-3.7 4.2-2.14 4.2-2.14.12 0 .42.16.85.4 1.11.63 3.1 1.74 5.25 1.74 3.1 0 8.42-1 8.69-7.05 3.05.29 8.94-.87 9.01-7.46 0-1.9-1.5-5.35-8.7-7-8.83-2.02-9.3-4.21-9.3-5.73 0-1.22 1.05-3.84 5.87-3.76 4.8.08 8.83 2.86 10.13 8h1v-8zm-8.04 23c5.12.48 6.04-2.48 6.04-4.15 0-2.03-1.28-4.5-9.8-6.24-5.54-1.12-7.46-3.72-8-5.6l-.33-.01c-4.81-.08-5.87 2.63-5.87 3.85 0 1.52.47 3.7 9.3 5.73 6.54 1.5 8.37 4.47 8.66 6.43z" fill="#fff"/><defs><linearGradient id="aedeyagjn" x1="10.42" y1="9.71" x2="68.15" y2="76.02" gradientUnits="userSpaceOnUse"><stop stop-color="#1A1E21"/><stop offset="1" stop-color="#06060A"/></linearGradient></defs></svg>