<svg width="56" height="56" viewBox="0 0 56 56" xmlns="http://www.w3.org/2000/svg"><path fill="#F0F3FA" d="M0 0h56v56H0z"/><path d="M42 35.76c1.28-2.3 2-4.94 2-7.76h-2v7.76Zm-2 2.83V28h-1v11.63c.35-.33.68-.68 1-1.04Zm-3 2.65A16 16 0 1 1 43.97 27H42c-.35-1.64-1.75-5-4.55-5-1.17 0-2.44.84-2.44 2.86 0 .93.3 1.65.65 2.14h-.33c-.47-.62-1.21-1-2.32-1-2.11 0-3 1.59-3 3.54 0 1.3 1.04 2.39 1.94 3L29 34.73V37l4.57-3.4 2.02 1.4L29 39.7V42l8-5.7v-2.5l-2.13-1.49A3.8 3.8 0 0 0 36 29.54c0-.55-.06-1.07-.2-1.54H37v13.24ZM40 27c-.01-2.52-1.38-3-1.85-3-.47 0-1.15.3-1.15 1.36 0 .8.58 1.4.94 1.64H40Zm-7 3.85c.81 0 1.47-.72 1.47-1.6 0-.88-.66-1.6-1.47-1.6-.81 0-1.47.72-1.47 1.6 0 .88.66 1.6 1.47 1.6Z" fill="#CCAD77" fill-opacity=".7"/></svg>