<svg width="56" height="56" viewBox="0 0 56 56" xmlns="http://www.w3.org/2000/svg"><path fill="#F0F3FA" d="M0 0h56v56H0z"/><path fill-rule="evenodd" d="M24.57 16.7c-.85.56-1.32 1.5-1.41 2.82-.01.11-.07.18-.17.2a3 3 0 0 0-2.22 3.56 3.3 3.3 0 0 0 1.12 2c.58.48 1.3.73 2.15.72h4.99c.3 0 .52.16.65.45.1.2.15.47.17.84 0 .06.03.1.07.15.04.04.09.06.14.07h.07c.09.01.13-.03.13-.13.02-.65-.1-1.14-.37-1.46-.29-.34-.74-.5-1.37-.48-1.82.04-3.36.03-4.64-.05a2.15 2.15 0 0 1-1.34-.53c-.33-.3-.55-.67-.66-1.13-.1-.45-.1-.9.05-1.36.14-.48.4-.89.77-1.22.13-.12.3-.23.52-.32a7.55 7.55 0 0 1 .6-.22c.08-.03.11-.08.11-.17-.02-.63.07-1.19.28-1.66.2-.46.49-.82.87-1.09.37-.26.8-.43 1.3-.5a4.2 4.2 0 0 1 1.56.1c.1.03.17 0 .23-.07.06-.08.1-.16.15-.25.24-.49.6-.88 1.08-1.2.46-.28.96-.45 1.5-.5a3.2 3.2 0 0 1 3.41 1.92c.05.11.14.15.25.13 1.53-.29 2.65.01 3.37.9.5.61.69 1.38.58 2.3-.01.1.03.17.12.2.98.26 1.58.82 1.82 1.66.1.39.13.77.08 1.15-.06.36-.19.7-.38.99a2.18 2.18 0 0 1-1.83.96h-4.67c-1.13 0-1.7.63-1.7 1.88 0 .05.01.08.05.12.03.03.07.04.1.04h.07c.12 0 .18-.07.2-.2.04-.42.12-.73.25-.93.17-.26.44-.4.81-.39 1.86.02 3.63.02 5.3 0 .79-.01 1.45-.3 1.98-.87.5-.52.8-1.16.9-1.92.1-.77-.01-1.46-.36-2.07-.4-.68-1-1.12-1.81-1.32-.1-.02-.15-.08-.15-.19-.02-1.36-.46-2.32-1.32-2.88-.77-.5-1.81-.66-3.14-.48a.2.2 0 0 1-.2-.08c-.08-.1-.14-.2-.2-.32a2.72 2.72 0 0 0-1-1.2 3.45 3.45 0 0 0-1.41-.6 3.65 3.65 0 0 0-4.1 2.1.2.2 0 0 1-.2.07c-1.3-.23-2.34-.08-3.15.45Zm5.59 4.52c-.07.72-.02 1.63.16 2.71.03.17-.01.2-.12.06a5.02 5.02 0 0 0-2.14-1.57 4.01 4.01 0 0 0-2.6.04.12.12 0 0 0-.09.1c0 .04 0 .09.05.12a29.83 29.83 0 0 0 4.08 2.77c.35.2.69.44 1.02.72.18.15.3.37.34.65a4 4 0 0 1 .02.77v.32c0 .1.04.17.14.19h.14c.15-.03.22-.12.23-.28l.03-1.05c0-.1.03-.19.09-.26.28-.36.62-.65 1.01-.87a40.17 40.17 0 0 0 4.46-2.9.11.11 0 0 0 .04-.11.1.1 0 0 0-.07-.1c-1.71-.66-3.32-.17-4.82 1.48-.1.11-.14.09-.11-.07.2-1.14.28-2.05.23-2.73a3.65 3.65 0 0 0-.97-2.45c-.04-.04-.08-.04-.12 0-.57.65-.9 1.47-1 2.46Zm-12.8 6.01.17-.06c.32-.11.66-.16.85-.17 1.54 0 1.65 1.45 1.62 2.7a77.53 77.53 0 0 0 0 3.56c0 .18.11.5.21.8a27.62 27.62 0 0 1 .07.2.4.4 0 0 1 0 .26c-.11.32-.35.48-.72.47-.32 0-.56-.18-.56-.52v-5.33c0-.53-.27-1.26-.88-1.28-.72-.01-1.08.38-1.07 1.17.03 1.47.01 2.89-.04 4.26 0 .24.07.62.22.85.07.1.08.2.04.3-.17.43-.44.6-.83.55a.5.5 0 0 1-.33-.2.56.56 0 0 1-.11-.38c.03-1.66.02-3.35 0-5.07v-3.58c0-.25-.03-.44-.23-.57a.5.5 0 0 1-.22-.36.49.49 0 0 1 .07-.35c.07-.1.16-.16.28-.19.98-.21 1.7-.86 2.15-1.94.08-.2.21-.31.4-.35.07-.01.14.02.2.1.04.05.05.11.03.18a4.2 4.2 0 0 1-1.5 2 .3.3 0 0 0-.1.2l-.04.2-.04.22v1.56c0 .1.02.21.04.32l.04.25c.02.2.11.26.28.2Zm5.34.23-.21.13c-.1.05-.18.04-.26-.04-.34-.32-.72-.36-1.13-.12a.55.55 0 0 0-.25.32.62.62 0 0 0 0 .41c.1.26.15.58.15.84v4.63c0 .07-.04.14-.08.2l-.01.03v.01l-.16.28a.35.35 0 0 0-.02.3c.06.17.17.32.31.42.14.1.28.14.44.13a.5.5 0 0 0 .38-.2c.1-.15.14-.34.14-.58-.02-1.72 0-5.2 0-5.2.01-.4.3-.68.72-.85a3 3 0 0 1 1.06-.17c.18 0 .3-.09.38-.26.1-.25.08-.46-.07-.62-.13-.14-.35-.16-.65-.05a4.4 4.4 0 0 0-.74.39Zm7.99 4.33c.1-.06.18-.15.24-.27l2.22-4.08a.44.44 0 0 1 .15-.16c.35-.23.5-.16.43.22l-.05.13a350.6 350.6 0 0 0-4.66 8.49l-.01.01v.02c-.11.2-.19.35-.22.45-.06.18-.08.35-.06.5l.06.6c.01.15-.05.25-.18.29a.26.26 0 0 1-.1 0c-.21 0-.34-.12-.39-.35-.07-.34-.02-.72.15-1.15.1-.25.28-.6.55-1.07l.11-.2c.2-.33.3-.7.36-1.11.04-.4.02-.8-.06-1.19-.3-1.39-.6-2.78-.88-4.19a2.99 2.99 0 0 0-.26-.77c-.07-.13-.05-.23.07-.31l.77-.53c.34-.23.55-.13.62.31l.67 4.13c.02.12.08.2.18.25.1.05.2.05.29-.02Zm10.2-3.68c-.24.14-.45.2-.62.18-.19-.03-.28-.15-.27-.35 0-.22-.04-.4-.14-.55-.04-.05-.09-.07-.14-.06-.32.04-.59.15-.81.31a.36.36 0 0 0-.14.21.4.4 0 0 0 .01.26l.02.05c.12.3.2.55.2.73v5.5c0 .4.08.59.43.61.08 0 .17 0 .25-.02a.4.4 0 0 0 .21-.16.45.45 0 0 0 .08-.26l.02-4.67c0-.38.17-.66.5-.83.39-.2.76-.44 1.13-.72.19-.14.39-.2.6-.2.22 0 .41.08.58.24.33.32.49.73.46 1.23-.03.43-.17.87-.44 1.33-.98 1.67-2.02 3.4-3.13 5.18-.26.42-.43.83-.51 1.22a.6.6 0 0 0 .02.32c.04.11.1.2.19.26.15.12.3.1.43-.03a.22.22 0 0 0 .06-.22 1.4 1.4 0 0 1 .17-1.09l3.71-6.07c.4-.64.59-1.39.57-2.24 0-.41-.1-.73-.3-.94-.18-.2-.42-.3-.72-.32a2.73 2.73 0 0 0-1.83.68c-.26.2-.45.34-.6.42ZM49 32.87v-.04a3.52 3.52 0 0 0-.77-1.85 5.93 5.93 0 0 0-1.54-1.24.12.12 0 0 1-.06-.1c0-.03 0-.07.04-.1.3-.3.55-.62.75-.95.2-.3.23-.61.12-.93a.9.9 0 0 0-.67-.6 1.6 1.6 0 0 0-1.49.33c-.48.4-.7.86-.66 1.38.04.47.28.93.74 1.36.07.06.07.14.01.22l-3 3.78a.18.18 0 0 0-.02.2c.03.08.08.11.16.11h2.04c.14 0 .16-.05.06-.16a8.5 8.5 0 0 0-.13-.14c-.28-.28-.46-.5-.52-.67-.12-.28-.06-.56.16-.84.53-.67 1.07-1.34 1.64-2.02.04-.05.09-.06.14-.03.68.41 1.2.9 1.58 1.47.27.4.39.77.38 1.12-.02.31-.14.59-.37.82-.21.22-.5.38-.84.49-.34.1-.68.13-1.04.1a.13.13 0 0 0-.11.04l-.02.03v.04c0 .07.04.12.1.14.4.12.78.18 1.15.17.37-.01.71-.1 1.01-.25.67-.35 1.06-.98 1.16-1.88Zm-2.71-3.56.39-.54c.08-.12.13-.27.15-.43a1.1 1.1 0 0 0-.03-.47.6.6 0 0 0-.23-.34.57.57 0 0 0-.45-.07c-.45.09-.68.36-.71.83-.02.35.2.7.65 1.05l.12.03c.04 0 .08-.03.1-.06ZM26.5 33.9c.48.02.86-.18 1.15-.62.07-.11.16-.14.27-.08.04.02.07.06.08.1a.2.2 0 0 1 0 .14c-.3.84-.85 1.35-1.63 1.5-.94.19-1.67-.08-2.2-.8a3.4 3.4 0 0 1-.55-1.15 6.63 6.63 0 0 1 .47-4.3c.49-.93 1.14-1.49 1.94-1.67.3-.07.64.05 1 .37a4 4 0 0 1 .75.9c.06.1.08.2.06.3a.41.41 0 0 1-.14.27l-2.81 2.47a.3.3 0 0 0-.1.25c.03.61.2 1.13.48 1.55.32.48.73.73 1.23.77Zm-1.32-5.91c.32-.26.69-.25 1.1.03a.7.7 0 0 1 .2.22c.26.44.21.83-.16 1.15l-1.54 1.34c-.1.09-.17.06-.2-.08a4.13 4.13 0 0 1-.03-1.46c.09-.54.3-.94.63-1.2ZM34.47 35c.45-.04 1.04-.38 1.78-.94.16-.12.28-.08.36.13.07.19.15.37.24.53.08.18.24.27.46.28a.7.7 0 0 0 .5-.16c.07-.06.1-.13.12-.22.05-.27.07-.55.07-.82v-5.35c0-.4-.09-.67-.33-.8-.14-.07-.4-.1-.76-.1h-.43c-.13-.02-.28-.13-.47-.34a8.55 8.55 0 0 0-.1-.1.34.34 0 0 0-.21-.1.32.32 0 0 0-.22.04c-.42.26-.83.66-1.24 1.2a8.27 8.27 0 0 0-1.54 3.78c-.06.7.02 1.29.26 1.78.38.81.88 1.19 1.5 1.19ZM37 30c.02-.73-.42-1.27-1.26-1.6-.61-.24-1.1-.06-1.48.54a4.32 4.32 0 0 0-.5 1.88c0 .5.01 1 .06 1.5.05.61.24 1.06.59 1.34.3.24.66.33 1.08.25.41-.08.76-.29 1.04-.62.3-.37.48-.8.47-1.28V30ZM9.8 32.75c.03.02.06.02.1 0a.12.12 0 0 0 .07-.06l1.49-4.04a.21.21 0 0 0 0-.15.2.2 0 0 0-.1-.11 8.2 8.2 0 0 1-2.3-1.82 2.31 2.31 0 0 1-.56-1.93 2.93 2.93 0 0 1 .95-1.8 2.34 2.34 0 0 1 1.73-.63c.54.02 1.16.2 1.85.54.13.06.25.06.38.02.33-.11.65-.3.95-.56a.8.8 0 0 1 .42-.2c.17-.03.31.02.43.15.09.11.11.23.07.37-.05.13-.13.21-.27.23-.39.07-.7.17-.93.3-.29.19-.5.45-.62.8-.35.95-.7 1.96-1.05 3.04a.24.24 0 0 0 0 .15.2.2 0 0 0 .1.11c1.09.7 1.88 1.44 2.36 2.2.67 1.06.73 2.14.19 3.24-.68 1.4-1.64 2.05-2.87 1.98a7.68 7.68 0 0 1-1.5-.3l-.66-.18a.15.15 0 0 0-.12.02.18.18 0 0 0-.08.1c-.15.5-.34 1-.59 1.48-.28.55-.59 1-.93 1.37-.85.93-1.75 1.16-2.7.7-.42-.21-.62-.53-.6-.96.01-.55.16-.6.43-.13.14.23.26.4.36.49.14.14.32.22.52.24.7.06 1.34-.28 1.92-1.03.46-.6.81-1.32 1.05-2.19a.26.26 0 0 0-.02-.2.22.22 0 0 0-.16-.1 1.3 1.3 0 0 0-1.06.19.23.23 0 0 1-.26.02.36.36 0 0 1-.2-.23.32.32 0 0 1 .1-.34c.31-.28.53-.63.66-1.03.12-.37.16-.77.11-1.2a3.96 3.96 0 0 0-1-2.22c-.15-.18-.16-.37-.02-.57.08-.13.22-.15.43-.08.08.02.14.07.19.15.54.84.84 1.8.9 2.9.01.26.1.51.26.74.15.21.34.39.57.53Zm2.16-6.02a.12.12 0 0 0 .07-.07l.26-.74.35-1c.13-.37.15-.73.06-1.08a1.7 1.7 0 0 0-1.34-1.24 1.52 1.52 0 0 0-1.52.64 1.9 1.9 0 0 0-.3 1.46c.07.26.19.48.37.66.5.5 1.15.95 1.96 1.36.03.02.06.02.1 0Zm-.04 2.15c-.03-.01-.05 0-.07.03l-1.6 4.32c0 .04 0 .06.03.07l.26.11c.4.18.82.3 1.23.35.42.06.8.05 1.17-.02.36-.08.67-.2.92-.4.25-.19.42-.42.53-.7l.08-.22c.1-.28.13-.58.07-.9-.07-.33-.2-.66-.42-.98A4.84 4.84 0 0 0 12.17 29l-.25-.11Z" fill="#016F36"/></svg>