<svg width="56" height="56" viewBox="0 0 56 56" xmlns="http://www.w3.org/2000/svg"><path fill="#F0F3FA" d="M0 0h56v56H0z"/><path fill-rule="evenodd" d="M17.54 12c-.85 0-1.54.69-1.54 1.53v28.94c0 .84.7 1.53 1.54 1.53h20.92c.85 0 1.54-.69 1.54-1.53V13.53c0-.84-.7-1.53-1.54-1.53H17.54Zm.58 1c-.62 0-1.12.5-1.12 1.13v27.74c0 .62.5 1.13 1.12 1.13h19.76c.62 0 1.12-.5 1.12-1.13V14.13c0-.62-.5-1.13-1.12-1.13H18.12Z" fill="#2F3198"/><path d="M24.79 35H19l5.53-7L19 21.03 24.79 14h5.84l-5.84 7L31 28l-6.21 7Z" fill="#ED3237"/><path d="M31.8 21h-6.15l6.26 7L26 35l6.16 7H38l-6.1-7 6.1-7-6.2-7Z" fill="#2F3198"/></svg>