<svg width="56" height="56" xmlns="http://www.w3.org/2000/svg"><path fill="#BC2921" d="M0 0h56v56H0z"/><path d="M35 24.1v15.051c.011 1.208.848 1.775 1.829 1.849h5.925c.374-.012.355-1.067-.289-1-.898.092-1.489-.29-1.465-1.298v-14.72c-.04-.687-.497-.994-1.22-.982h-3.527c-.746-.019-1.273.372-1.253 1.1zm-9-6.97c-.077-1.457.708-2.166 2.32-2.13h4.882c1.196 0 1.886.767 1.798 1.986v3.52c-.034.679-.985.618-1 0v-2.754c0-1.826-2-1.847-2-.053v21.452c0 .63 1 .678 1 0V35.57c-.018-.72.984-.873 1 0v3.783c0 1.1-.362 1.687-1.427 1.648H28.32c-1.382-.092-2.32-1.326-2.32-2.744V17.13zm-6.578 8.654c-.87-.654-1.39-1.384-1.422-2.087-.04-.928 1.106-1.422 1.86-.965.737.445 1.083 1.044 1.14 1.819.054.741-.683 1.908-1.578 1.233zm-8.188 5.999l4.117-1.765 3.045 3.206c1.564 1.646 2.29 3.947-.392 5.1l-3.744 1.611c-.523.311-.25 1.086.4.953 3.433-1.116 6.59-2.464 9.17-4.292 3.512-2.484.082-7.28-2.382-9.043 1.843-2.943 1.066-5.613-2.026-6.81-2.456-.952-5.537.101-6.716 2.44-.977 1.904-.423 3.81 1.67 5.715l-4.148 2.054c-.744.376.527 1.036 1.006.831z" fill="#fff"/></svg>