<svg width="56" height="56" viewBox="0 0 56 56" xmlns="http://www.w3.org/2000/svg"><path fill="#F0F3FA" d="M0 0h56v56H0z"/><path fill-rule="evenodd" d="M45 28.12a17 17 0 1 1-34-.24 17 17 0 0 1 34 .24Zm-.84-.06a16.16 16.16 0 1 1-32.32-.12 16.16 16.16 0 0 1 32.32.12Zm-.99.18a15.18 15.18 0 1 1-30.35-.48 15.18 15.18 0 0 1 30.35.48Zm-15.54-.94v-4.12c0-.37-.53-.39-.78-.36-.52.06-.97 0-1.36-.18a2.9 2.9 0 0 1-1.35-1.25c-.66-1.2.01-2.52 1.01-3.31l1.33-1.05c.34-.27.68-.62.93-1 .12-.19.26-.34.44-.46.12-.08.26-.04.37.03.2.14.37.3.54.47l.31.3c.52.44 1 .86 1.43 1.26 1.02.93 2.11 2.15 1.54 3.57-.4 1-1.4 1.43-2.4 1.52l-.98.06a.28.28 0 0 0-.27.29v4.16a.07.07 0 0 0 .1.06l4.12-2.38a.18.18 0 0 0 .1-.18.18.18 0 0 0-.03-.07c-.5-.83-.78-1.87-.46-2.77.34-.98 1.06-1.5 2.17-1.58.46-.03 1.11.12 1.58.3l.24.09a9.4 9.4 0 0 0 2.9.76c.23.02.4.17.29.42-.32.74-.51 1.5-.71 2.28-.12.47-.24.95-.4 1.42a3.05 3.05 0 0 1-1.28 1.8c-.58.35-1.22.47-1.85.31-.6-.15-1.2-.77-1.5-1.26l-.37-.56c-.16-.24-.36-.29-.6-.15a752.8 752.8 0 0 1-3.88 2.26.1.1 0 0 0 .04.13l3.96 2.1c.04.02.07.03.11.03.2-.03.36-.14.48-.33.7-1.13 1.87-2.04 3.21-1.71 1.22.3 1.75 1.53 1.92 2.64.1.58.19 1.14.3 1.7a6 6 0 0 0 .59 1.56.14.14 0 0 1-.06.2c-.1.05-.2.09-.3.1a6.79 6.79 0 0 0-2.2.68c-1.3.58-2.77 1.23-4.07.27a1.93 1.93 0 0 1-.81-1.86c.07-.74.22-1.36.46-1.84a.85.85 0 0 0 .08-.27l.02-.11c.04-.17.07-.33-.13-.43a2823.35 2823.35 0 0 0-3.98-2.09l-.02.01-.02.02v4.06c0 .1.01.17.05.25.01.03.03.06.06.07.17.09.36.14.56.14 1.09.05 2.23.51 2.73 1.52a2 2 0 0 1 .18 1.3c-.25 1.23-1.01 1.81-1.9 2.48-.28.22-.57.44-.87.7-.37.32-.6.63-.84.97-.06.07-.1.15-.17.22-.14.2-.36.15-.5-.02a9.69 9.69 0 0 0-1.82-1.7c-1.16-.85-2.67-2.3-1.91-3.9.33-.7.91-1.03 1.64-1.28.5-.18 1.03-.26 1.59-.26.09 0 .19-.02.3-.06a.21.21 0 0 0 .14-.2v-4.3a.07.07 0 0 0-.11-.07l-4.06 2.35c-.25.15-.31.36-.17.62.11.22.22.45.3.67.43 1.16.28 2.69-.98 3.27-.83.4-1.68.27-2.5-.05l-1.61-.62a5.36 5.36 0 0 0-1.73-.27.12.12 0 0 1-.1-.16 6 6 0 0 0 .58-2.38c.07-.81.14-1.63.47-2.36.52-1.17 1.89-1.76 3.04-1.12.65.36 1.18.84 1.57 1.46.13.2.31.34.54.38.04 0 .08 0 .12-.02l4.07-2.35a.07.07 0 0 0 .02-.1 559.84 559.84 0 0 0-3.83-2.04c-.1-.06-.2-.04-.29.04-.17.17-.33.4-.47.61l-.27.37c-.48.53-.98.85-1.51.96-1.62.34-2.65-.66-3-2.13-.1-.48-.2-1-.28-1.54a5.52 5.52 0 0 0-.69-2.01.1.1 0 0 1 0-.1c.04-.14.15-.23.33-.26a5.85 5.85 0 0 0 1.69-.44l.43-.2c.7-.34 1.43-.69 2.15-.8.95-.15 1.74.15 2.35.91.77.95.47 2.33-.03 3.34-.07.13-.1.3-.1.44a.2.2 0 0 0 .1.18l3.82 2.04c.1.05.15.02.15-.1Z" fill="#221F20"/></svg>