<svg width="56" height="56" viewBox="0 0 56 56" xmlns="http://www.w3.org/2000/svg"><path fill="#F0F3FA" d="M0 0h56v56H0z"/><path d="M36 29h1.35c2.04 0 3.65.02 3.65 2.46 0 .7-.08 1.17-.25 1.4-.17.25-.5.4-.98.44C41 33.63 41 34.5 41 35.63V38h-2v-3c0-.47-.04-.77-.11-.89-.07-.11-.58-.17-.89-.17V38h-2v-9Zm2 1.54v2c.68 0 1-.1 1-.81v-.5c0-.62-.43-.69-1-.69ZM35 29v5.9c0 1.62-.43 3.1-2.42 3.1-2.44 0-2.58-1.9-2.58-3.78V29h2v6.6c0 .24.1.9.49.9.43 0 .51-.75.51-1.01V29h2ZM29.36 29v1.5H28V38h-2v-7.5h-1.35V29h4.7ZM24 29v9h-1.96L21 33.9V38h-2v-9h1.87L22 33.05V29h2ZM14 29h4v1.5h-2v2h1.5V34H16v2.5h2V38h-4v-9ZM13 33h-2v-1.52c0-.3-.02-.98-.48-.98-.5 0-.52.72-.52 1.05v3.94c0 .31.07 1.01.5 1.01.46 0 .5-.79.5-1.1v-.9h2v.2c0 1.69-.4 3.3-2.47 3.3C8.45 38 8 36.56 8 34.75v-2.52c0-1.7.44-3.23 2.47-3.23 2 0 2.53 1.37 2.53 3.13V33ZM42 17v9h-2v-6.08L39.22 26h-1.4L37 20.06V26h-2v-9h2.94c.22 1.4.4 2.8.58 4.2l.52-4.2H42ZM32.87 17 34 26h-2.03l-.1-1.4h-.7l-.12 1.4H29l1-9h2.87Zm-1.05 6c-.1-1.02-.2-2.49-.3-3.99-.2 1.72-.33 3.2-.38 3.99h.68ZM28.51 17 27 22.74V26h-2v-3.26L23.51 17h1.95c.3 1.75.48 2.93.51 3.54.12-.96.32-2.14.6-3.54h1.94ZM46.5 29 45 34.74V38h-2v-3.26L41.51 29h1.95c.3 1.75.48 2.93.51 3.54.12-.96.32-2.14.6-3.54h1.93ZM17 19.8h-2v-.64c0-.27-.19-.7-.55-.7-.26 0-.45.22-.45.67 0 .29.04.5.11.65.08.15.33.32.67.53.97.6 1.59 1.08 1.84 1.46.25.38.38 1 .38 1.84 0 1.55-.84 2.39-2.43 2.39-1.71 0-2.57-1.06-2.57-2.71V23h2v.78c0 .3.08.76.49.76.3 0 .51-.24.51-.7 0-.5-.07-.84-.2-1-.14-.15-.56-.42-1.1-.78-.55-.37-.91-.64-1.09-.8-.17-.18-.32-.4-.44-.7-.11-.3-.17-.67-.17-1.13 0-1.56.78-2.43 2.38-2.43 1.69 0 2.62.82 2.62 2.45v.35ZM23 17v9h-2v-4h-1v4h-2v-9h2v3h1v-3h2Z"/></svg>