<svg xmlns="http://www.w3.org/2000/svg" width="56" height="56" viewBox="0 0 56 56"><path fill="#EF7F1A" d="M0 0h56v56H0z"/><path fill="#2B2A29" d="M8 32h40v4H8zM11.27 20h4.23v1h-3.84c-.33 0-.66.18-.66.5s.33.5.66.5h2.84c.83 0 1.5.69 1.5 1.5s-.67 1.47-1.5 1.47H10v-.9h4.42c.37 0 .58-.2.58-.57 0-.36-.21-.5-.58-.5h-3.15c-.7 0-1.27-.79-1.27-1.48v-.27c0-.69.57-1.25 1.27-1.25zm27.97 10h2.46v-.7h-2.44c-.69 0-1.25-.57-1.25-1.29 0-.71.56-1.3 1.25-1.3h2.44V26h-2.46c-1.07 0-1.93.9-1.93 2s.86 2 1.93 2zm7.6-4h-3.38a.98.98 0 0 0-.96 1v.23c0 .55.43 1 .96 1h2.36c.27 0 .5.24.5.53 0 .3-.23.53-.5.53H42.5V30h3.38c.62 0 1.12-.53 1.12-1.18 0-.66-.5-1.18-1.12-1.18h-2.14a.46.46 0 0 1-.44-.47c0-.26.2-.47.44-.47h3.1V26zM18 20h-1v5h1v-5zm4 0h1v5h-1v-5zm0 2h-3v1h3v-1zm2-2h1.3l2.2 2.3 2.24-2.3H31l-3 3.09v1.88h-1v-1.88L24 20zm5.94 4.97h1.18l2.61-3.76L35.01 23h-1.56L33 24h2.72l.7.97h1.18l-3.32-4.7a.68.68 0 0 0-1.1.01l-3.24 4.69zM25.84 30h-.92l2.42-3.7c.26-.4.84-.4 1.1 0l2.48 3.7h-.94l-.67-1h-2.2l.35-.6h1.44l-1.02-1.51L25.84 30zm13.83-9.66L38.13 25h1.02l1.13-3.41L42 24.73c.2.36.75.36.94 0l1.67-3.14L45.72 25h1.04l-1.49-4.65c-.14-.42-.76-.47-.97-.07l-1.83 3.43-1.83-3.44c-.2-.4-.83-.35-.97.07zM10 30l1.06-3.73c.1-.33.54-.37.68-.05l1.27 2.74 1.28-2.74a.36.36 0 0 1 .67.06L16 30h-.72l-.78-2.73-1.16 2.51a.36.36 0 0 1-.66 0l-1.19-2.51-.78 2.73H10zm7-.67V26h4v.67h-3.26v2.66H21V30h-4v-.67zm3.83-1.66h-2.5v.66h2.5v-.66zm.75-1.67h4v.66H24V30h-.7v-3.34h-1.72V26zM32 26h-.7v4H35v-.65h-3V26zm4.7 0H36v4h.7v-4z"/><path fill-rule="evenodd" d="M30.48 35l.63-1.87c.06-.17.4-.16.49 0l.66 1.18.66-1.2c.08-.16.43-.15.48.02l.61 1.87h-.55l-.4-1.24-.61 1.13c-.08.15-.3.15-.39 0l-.63-1.13-.41 1.24h-.54zm10.91 0h-.58l1.33-1.89c.1-.15.34-.15.44 0L43.94 35h-.6l-.35-.46h-1.07l.22-.35h.6l-.4-.53L41.4 35zM22.6 33h-.82v.4h.82V35h.6v-1.6h.8V33h-1.4zm15.2 0H40.02v.4h-.8V35h-.6v-1.6h-.82V33zm7.9 0H45v2h2v-.47h-1.3V33zm-35.6.43h.8c.35 0 .63.26.63.57 0 .31-.28.57-.62.57h-.82c-.34 0-.62-.26-.62-.57 0-.31.28-.57.62-.57zM9 34c0-.55.49-1 1.1-1h.8c.61 0 1.1.45 1.1 1s-.49 1-1.1 1h-.8c-.61 0-1.1-.45-1.1-1zm17.62-.57h-.78c-.32 0-.59.26-.59.57 0 .31.27.57.6.57h.77c.33 0 .6-.26.6-.57a.58.58 0 0 0-.6-.57zm-.78-.43c-.58 0-1.04.45-1.04 1s.46 1 1.04 1h.78c.58 0 1.05-.45 1.05-1s-.47-1-1.05-1h-.78zm-12.87 2v-2h1.78c.44 0 .8.34.8.75v.03a.7.7 0 0 1-.45.64l.7.58h-.7l-.53-.51h-.9v-.4h1c.18 0 .33-.13.33-.3 0-.17-.15-.3-.33-.3h-1.16V35h-.54zM19 33h-2v2h2v-.44h-1.3v-1.12H19V33zm0 .82h-1v.36h1v-.36zM35 33h2v.44h-1.3v1.12H37V35h-2v-2zm1 .82h1v.36h-1v-.36z" fill="#FEFEFE"/></svg>