<svg width="56" height="56" viewBox="0 0 56 56" xmlns="http://www.w3.org/2000/svg"><path fill="#F0F3FA" d="M0 0h56v56H0z"/><path d="M25.27 39.4 21.22 45c4.68-2.99 10.24-8.49 10.24-13.33s-4.63-8.2-4.63-13.56c0-2.66 1.76-7.18 2.63-9.11-1.8 1.42-5.85 6.07-5.85 11.24s3.76 9.35 3.76 13.14c0 3.03-1.4 5.28-2.1 6.02Z" fill="#DA252E"/><path d="M25.02 33.9c-5.48 0-11.75-.26-14.6-.4a.44.44 0 0 1-.42-.44c0-.24.21-.44.46-.44 19.71-.05 24.47-3.5 24.47-7.5 0-3.22-4.46-4.31-6.69-4.45C30.54 20.1 40 19.62 40 26.12s-7.76 7.78-14.98 7.78Z" fill="#FAC73A"/></svg>