<svg width="56" height="56" viewBox="0 0 56 56" xmlns="http://www.w3.org/2000/svg"><path fill="#F0F3FA" d="M0 0h56v56H0z"/><path d="m35.5 16 .5 1H23.19L27 24l-9 14h25l-1.5 2H9l13-16-5-8h18.5Z" fill="#223E88"/><path d="M38 19H25.5L35 35H22l-1 1h22L32.5 20H39l-1-1Z" fill="#233D8A"/><path d="M21.3 24.98c-4.37.27-7.97 1.02-9.47 1.72.58.8 1.68 1.14 2.53 1.25-.23-.1-.36-.24-.36-.45 0-.5.7-.6 1.79-.77l.05-.01c1.29-.2 2.98-.56 4.66-.69l.8-1.05ZM36.5 26.03l-.67-1.07c.95.1 1.87.41 2.67.54 1.09.46 1.35 1.15 1.27 1.6a19.3 19.3 0 0 0-3.27-1.07Z" fill="#FC7411"/><path d="M40 27.5a.5.5 0 0 0 0-.04c.38-.37.38-.84-.04-1.43 1.91.42 3.04.92 3.04 1.47 0 1.38-7.16 2.5-16 2.5s-16-1.12-16-2.5c0-.22.18-.44.53-.64a4.39 4.39 0 0 0 2.88 1.12c.32.13.8.2 1.38.3h.05c2.83.44 6.78.72 11.16.72s8.33-.28 11.16-.72l.06-.01c1.08-.17 1.8-.28 1.78-.77Z" fill="#FC7411"/></svg>