<svg width="56" height="56" viewBox="0 0 56 56" xmlns="http://www.w3.org/2000/svg"><path fill="#F0F3FA" d="M0 0h56v56H0z"/><path d="m8 25.08-.67.68c-.36-.45-.98-.78-1.3-.78-.3 0-.74.38-.74.86s.58.8.99 1.03c1 .58 1.65 1.06 1.65 2.22 0 1.15-1.08 1.91-2.06 1.91-.79 0-1.57-.7-1.87-1.06.15-.2.5-.63.7-.85.16.17.67.85 1.17.85.5 0 1.12-.35 1.12-.85s-.28-.78-.95-1.16c-.67-.38-1.75-1.13-1.75-2.1 0-.95.81-1.83 1.75-1.83.74 0 1.62.7 1.96 1.08ZM46 25.08l-.67.68c-.36-.45-.98-.78-1.3-.78-.3 0-.74.38-.74.86s.58.8.99 1.03c1 .58 1.65 1.06 1.65 2.22 0 1.15-1.08 1.91-2.06 1.91-.79 0-1.57-.7-1.87-1.06.15-.2.5-.63.7-.85.16.17.67.85 1.17.85.5 0 1.12-.35 1.12-.85s-.28-.78-.95-1.16c-.67-.38-1.75-1.13-1.75-2.1 0-.95.81-1.83 1.75-1.83.74 0 1.62.7 1.96 1.08Z" fill="#B3034C"/><path fill-rule="evenodd" d="M37.5 31a3.5 3.5 0 1 0 0-7 3.5 3.5 0 0 0 0 7Zm0-1a2.5 2.5 0 1 0 0-5 2.5 2.5 0 0 0 0 5Z" fill="#B3034C"/><path fill="#B3034C" d="M9 24h1v7H9z"/><path fill-rule="evenodd" d="M33 27.5a3.5 3.5 0 0 1-6 2.45V34h-1v-6.5a3.5 3.5 0 1 1 7 0Zm-6 0a2.5 2.5 0 1 1 5 0 2.5 2.5 0 0 1-5 0Z" fill="#B3034C"/><path d="M20 24h-1v7h1v-3.72c0-.77.9-2.27 2.4-2.27 1.21 0 1.6 1.25 1.6 1.88V31h1v-4.1c0-1.94-1.24-2.9-2.6-2.9-1.07 0-2.05.83-2.4 1.24V24Z" fill="#B3034C"/><path fill-rule="evenodd" d="M17 29.95a3.49 3.49 0 0 1-6-2.45 3.5 3.5 0 1 1 7 0v3.44c0 1.1-.37 3.06-3 3.06v-1c.72-.06 2-.44 2-2.06v-1Zm0-2.45a2.5 2.5 0 1 1-5 0 2.5 2.5 0 0 1 5 0Z" fill="#B3034C"/><path d="m9.5 22 1.5 1H8l1.5-1ZM52 25.5 51 27v-3l1 1.5ZM47 26v3.7c0 1.1.6 3.3 3 3.3v-1c-.66-.06-2-.6-2-2.2V26h2v-1h-2v-1h-1v2Z" fill="#B3034C"/></svg>