<svg width="56" height="56" viewBox="0 0 56 56" xmlns="http://www.w3.org/2000/svg"><path fill="#F0F3FA" d="M0 0h56v56H0z"/><path d="M12 28.67c-.06-6.03 2.65-10 4.02-11.22-.82 2.09-3.71 7.6 0 14.74 3.71 7.14 9.93 7.2 9.6 3.27-.33-3.94-9.6-6.79-9.6-14.08 0-5.86 6.15-9.3 11.9-9.38a15.6 15.6 0 0 1 9.68 3.35c-6.7-2.88-9.8.2-10.5 2.1-.85 1.14-1.43 4.45 3.03 8.54 4.47 4.09 5.53 8.01 5.5 9.47-.4 6.23-6.62 8.29-9.68 8.54-8.86-.84-13.87-7.79-13.95-15.33Z" fill="url(#af44qd2yf)"/><path d="M35.63 28c6.17 10.12-1.42 14.88-5.99 16 8.7 0 14.44-7.46 14.36-15.33-.07-6.3-2.93-10.1-4.35-11.22 3.36 3.68-.98 7.79-3.36 8.04-1.9.2-1.23 1.76-.66 2.51Z" fill="url(#bf44qd2yf)"/><ellipse cx="4.07" cy="3.59" rx="4.07" ry="3.59" transform="matrix(.92133 .38879 -.37525 .92692 31.37 14.76)" fill="url(#cf44qd2yf)"/><defs><linearGradient id="af44qd2yf" x1="12" y1="26.16" x2="43.36" y2="29.45" gradientUnits="userSpaceOnUse"><stop stop-color="#228043"/><stop offset="1" stop-color="#89C443"/></linearGradient><linearGradient id="bf44qd2yf" x1="12" y1="26.16" x2="43.36" y2="29.45" gradientUnits="userSpaceOnUse"><stop stop-color="#228043"/><stop offset="1" stop-color="#89C443"/></linearGradient><linearGradient id="cf44qd2yf" x1="-.09" y1="3.3" x2="7.51" y2="4.42" gradientUnits="userSpaceOnUse"><stop stop-color="#298842"/><stop offset="1" stop-color="#83C643"/></linearGradient></defs></svg>