<svg width="56" height="56" viewBox="0 0 56 56" xmlns="http://www.w3.org/2000/svg"><path fill="#4BA53A" d="M0 0h56v56H0z"/><path d="M45 28a17 17 0 1 1-34 0 17 17 0 0 1 34 0Z" fill="#fff"/><path fill-rule="evenodd" d="M28 44a16 16 0 1 0 0-32 16 16 0 0 0 0 32Zm0-4c4.14 0 7.8-2.1 9.95-5.29.13.01.26.02.39 0l2-.1a1.7 1.7 0 0 0 1.56-2.11l-.53-2.15a1.98 1.98 0 0 0-1.4-1.44A12 12 0 0 0 18.26 21c-.3-.08-.65-.12-1.04-.12-1.68 0-3.44 1.43-3.44 3.93 0 2.21 1.25 3.37 2.26 4.16l.04.4c-.69.22-1.46.5-1.8.64.14 1.61 1.02 4.84 3.38 4.84h.49A11.99 11.99 0 0 0 28 40Z" fill="#281E5F"/><circle cx="17" cy="37" r="1" fill="#fff"/><circle cx="39" cy="37" r="1" fill="#fff"/><circle cx="35" cy="40" r="1" fill="#fff"/><circle cx="21" cy="40" r="1" fill="#fff"/><circle cx="25" cy="42" r="1" fill="#fff"/><circle cx="30" cy="42" r="1" fill="#fff"/><path d="m22.87 22.07 1.95 10.27c0 .02 0 .04-.02.04l-2.15.45c-.02 0-.04 0-.04-.02l-2.17-11.27c0-.02.01-.04.04-.03l2.37.54c.01 0 .02 0 .02.02ZM29.16 24.99l-1.75-1c-.06-.03-.1-.02-.13.05-.26.61-.48 1.23-.68 1.83-.05.17-.1.17-.13 0-.13-.74-.28-1.54-.46-2.4a.36.36 0 0 0-.22-.28c-.75-.31-1.47-.6-2.16-.84-.04-.02-.09.02-.08.07.6 3.33 1.3 6.5 1.87 9.75 0 .05.04.08.09.08l2.05-.02c.03 0 .06-.03.05-.06-.1-.5-.18-.97-.24-1.42a.76.76 0 0 1 .13-.54.04.04 0 0 1 .07 0l.97 1.95a.28.28 0 0 0 .2.15l2.38.34c.04 0 .07-.03.05-.06l-2.68-5.14c.04-.16.08-.3.14-.45.25-.62.47-1.24.66-1.88.01-.06-.03-.1-.13-.13ZM35.35 28.31l-1.56-.7c-.05-.02-.08-.01-.11.03-.24.39-.45.8-.64 1.23-.06.16-.11.16-.15-.01l-.36-1.78a.27.27 0 0 0-.14-.2 43 43 0 0 1-2.03-1.17.96.96 0 0 0-.23-.1.04.04 0 0 0-.06.05c.58 2.35 1.08 4.62 1.57 6.94a.3.3 0 0 0 .23.23l1.9.35c.04 0 .09-.04.08-.1l-.05-.15c-.1-.31-.25-.8-.08-1 .05-.06.1-.06.13.01l.64 1.32a.42.42 0 0 0 .3.22l2 .44c.04 0 .07-.03.05-.06l-2.04-3.74c-.03-.05-.02-.13.02-.25l.66-1.4c0-.03 0-.08-.13-.16ZM16.93 24.86c0-.43.18-.66.55-.71.3.13.48.36.53.68.05.24.09.5.11.79a.15.15 0 0 0 .14.13l2.27.22c.07 0 .1-.03.11-.1a5.67 5.67 0 0 0-.54-2.77 2.92 2.92 0 0 0-4.63-.96 3.76 3.76 0 0 0-.89 3.95 4.9 4.9 0 0 0 2.23 2.68l1.32.8c.5.3.95.9.93 1.51-.03.71-.77.88-1.2.37-.37-.44-.47-.9-.57-1.4l-.07-.3c-.04-.14-.2 0-.26.03-.63.2-1.28.4-1.93.62-.04.02-.06.05-.05.1a4.91 4.91 0 0 0 1.21 3c.18.19.4.36.68.51.18.12.37.2.57.23 1.53.26 3.34-.16 4.02-1.74.24-.56.2-1.2.17-1.8a2.9 2.9 0 0 0-.29-1.07 4.25 4.25 0 0 0-1.17-1.77c-.46-.43-.98-.78-1.48-1.12-.35-.24-.7-.48-1.03-.74-.38-.32-.63-.7-.73-1.14ZM40.83 30.26c.27.73.46 1.48.58 2.25.1.66-.25 1.2-.9 1.37-.9.25-1.77.27-2.61.06-.54-.13-.93-.72-1.05-1.23a41.64 41.64 0 0 1-.53-2.73c-.08-.55.11-.9.57-1.03a2 2 0 0 1 .96.04c.5.1.97.23 1.47.33.58.12 1.2.47 1.5.94Zm-1.87.11-.32-.02c-.2-.01-.27.08-.24.27.08.4.17.8.24 1.22.05.37.12.6.2.7.22.23.5.3.84.23a.26.26 0 0 0 .2-.32l-.32-1.55c-.06-.29-.33-.47-.6-.53Z" fill="#E11428"/><path d="M19.18 18.16a1.5 1.5 0 0 0-.35-.5c-.51-.5-1.13-.52-1.55-.08-.42.45-.36 1.07.15 1.56.51.5 1.12.53 1.55.08a1 1 0 0 0 .28-.68l.29.01.34-.36-.7-.03Zm-1.63-.32c.25-.26.61-.2.97.14.36.35.43.72.19.98-.25.26-.61.2-.98-.15-.35-.34-.42-.71-.18-.97Zm1.21-1.57.76 1.07c.18.27.26.35.4.43.26.14.6.1.9-.13.3-.22.46-.52.41-.82-.02-.15-.07-.26-.26-.52l-.75-1.08-.36.26.75 1.07c.1.14.14.2.17.27.08.2.02.37-.18.51-.17.12-.34.14-.48.05a1 1 0 0 1-.26-.3l-.75-1.06-.35.25Zm2.75-1.73.24 2.4.4-.19-.06-.5.72-.32.32.37.41-.18-1.63-1.76-.4.18Zm1.05 1.1-.53.23-.11-.96.64.72Zm.73-1.84.62 2.19 1.36-.4-.1-.35-.94.27-.51-1.84-.43.13Zm2.81 1.66-.4-2.24-.42.07.4 2.25.42-.08Zm.22-2.34.03.38.6-.05.14 1.9.43-.03-.15-1.9.6-.05-.03-.37-1.62.12Zm2.19-.1.62 1.44-.06.9.43.03.07-.9.83-1.32-.48-.03-.53.87-.4-.94-.48-.04Zm3.61.57-.72 2.16.4.14.28-.8.13.04c.28.1.43.13.56.14.28.01.52-.17.62-.48.1-.3.03-.6-.19-.76a1.9 1.9 0 0 0-.58-.27l-.5-.17Zm.08 1.14.21-.65.15.05c.21.08.3.12.36.18.08.08.1.2.05.33-.04.14-.14.22-.26.23-.09 0-.15-.02-.38-.1l-.13-.04Zm2.1-.32-1.03 2.03.39.2.39-.78.28.14.01 1 .45.22-.03-1.08c.29.02.5-.11.64-.38a.65.65 0 0 0-.02-.67c-.1-.15-.23-.24-.58-.42l-.5-.26Zm-.08 1.12.3-.59.1.06c.27.13.32.17.37.25.06.1.07.2.01.3-.06.14-.17.2-.3.19a1 1 0 0 1-.34-.14l-.14-.07Zm2.97.61a.98.98 0 0 0-.71-.21c-.29.02-.58.2-.8.5-.45.57-.42 1.19.07 1.58.2.16.46.24.7.21.3-.03.58-.2.82-.51.43-.56.4-1.18-.08-1.57Zm-.23.3c.28.22.26.6-.05.99-.3.4-.66.5-.94.28-.28-.22-.26-.6.06-1 .3-.39.66-.5.93-.27Zm1.67 1-1.7 1.48.32.37c.3.37.43.47.64.54.32.12.73 0 1.07-.28.34-.3.5-.72.4-1.08a1.57 1.57 0 0 0-.37-.62l-.36-.42ZM37.5 19l1.15-1 .06.07c.23.26.27.34.29.5.02.2-.1.43-.32.63-.23.2-.48.29-.66.25-.13-.04-.22-.1-.39-.3l-.13-.15Zm2.78.42-1.1.71c-.27.18-.35.25-.43.4-.16.25-.13.58.08.9.2.33.49.5.78.46.16-.02.27-.06.54-.24l1.1-.7-.24-.38-1.09.7c-.15.1-.2.14-.28.17-.2.07-.37 0-.5-.2-.1-.18-.12-.36-.02-.5a1 1 0 0 1 .3-.24l1.1-.71-.24-.37Zm1.33 4.3c.45-.22.6-.6.43-1.04a.95.95 0 0 0-.45-.51c-.28-.15-.63-.14-1.01.01-.66.26-.94.8-.71 1.38.18.48.56.62 1.11.43l-.14-.36c-.33.1-.53.03-.63-.22-.12-.32.08-.63.54-.8.46-.2.82-.1.94.2.09.22 0 .41-.22.55l.14.35Zm.84.28-.36.08.14.59-1.84.43.1.43 1.83-.43.14.58.36-.08-.37-1.6Zm-.09 3.85a.71.71 0 0 0 .38-.14c.2-.15.29-.4.27-.7-.04-.45-.33-.75-.72-.72a.6.6 0 0 0-.4.18c-.08.1-.14.23-.23.5l-.14.4c-.05.11-.12.17-.2.18-.15 0-.26-.13-.27-.35-.02-.28.11-.45.4-.5l-.03-.42c-.53.06-.79.4-.75.95.04.5.33.79.76.76.16-.01.3-.08.4-.18.09-.1.11-.16.24-.57l.13-.39c.04-.08.1-.12.16-.13.14 0 .26.13.27.31.02.22-.1.37-.3.4l.03.42Z" fill="#fff"/></svg>