<svg width="56" height="56" viewBox="0 0 56 56" xmlns="http://www.w3.org/2000/svg"><path fill="#F0F3FA" d="M0 0h56v56H0z"/><path d="M47 35h-4v-6h4v1.48h-2.5v.86h2.14v1.27H44.5v.88H47V35ZM42.5 35H41v-6h1.5v6ZM32.33 35h-1.66v-4.5H29V29h5v1.5h-1.67V35ZM21.75 35h-2.5c-.83 0-1.25-.35-1.25-1.05V29h1.5v4.26c0 .15.09.23.27.23h1.46c.18 0 .27-.08.27-.23V29H23v4.95c0 .7-.42 1.05-1.25 1.05ZM15.75 35H12v-6h3.75c.83 0 1.25.36 1.25 1.1v3.85c0 .7-.42 1.05-1.25 1.05Zm-.25-1.74v-2.52c0-.15-.1-.23-.27-.23H13.5v2.98h1.73c.18 0 .27-.08.27-.23ZM11 35H9.75L7.5 31.83V35H6v-6h1.43l2.07 3.13V29H11v6ZM5.5 35H4v-6h1.5v6ZM49.75 27H46v-6h3.75c.83 0 1.25.36 1.25 1.1v3.85c0 .7-.42 1.05-1.25 1.05Zm-.25-1.74v-2.52c0-.15-.1-.23-.27-.23H47.5v2.98h1.73c.18 0 .27-.08.27-.23ZM43.5 23.12v-.41c0-.16-.09-.24-.27-.24H41.5v.89h1.73c.18 0 .27-.08.27-.24ZM45.05 27h-1.5a.88.88 0 0 1-.05-.32v-1.81c0-.16-.09-.24-.27-.24H41.5V27H40v-6h3.7c.82 0 1.24.37 1.24 1.12v.95c0 .54-.26.85-.76.93.54.1.82.39.82.86v1.78c0 .21.02.28.05.36ZM38.5 31.12v-.41c0-.16-.09-.24-.27-.24H36.5v.89h1.73c.18 0 .27-.08.27-.24ZM40.05 35h-1.5a.88.88 0 0 1-.05-.32v-1.81c0-.16-.09-.24-.27-.24H36.5V35H35v-6h3.7c.82 0 1.24.37 1.24 1.12v.95c0 .54-.26.85-.76.93.54.1.82.39.82.86v1.78c0 .21.02.28.05.36ZM39 27h-1.5v-2.46h-2V27H34v-4.95c0-.7.4-1.05 1.22-1.05h2.56c.81 0 1.22.35 1.22 1.05V27Zm-1.5-3.73v-.56c0-.16-.09-.24-.26-.24h-1.48c-.17 0-.26.08-.26.24v.56h2ZM31.75 27H28v-6h3.75c.83 0 1.25.36 1.25 1.1v3.85c0 .7-.42 1.05-1.25 1.05Zm-.25-1.74v-2.52c0-.15-.1-.23-.27-.23H29.5v2.98h1.73c.18 0 .27-.08.27-.23ZM27 27h-1.25l-2.26-3.17V27H22v-6h1.43l2.07 3.13V21H27v6ZM21 27h-1.5v-2.46h-2V27H16v-4.95c0-.7.4-1.05 1.22-1.05h2.56c.81 0 1.22.35 1.22 1.05V27Zm-1.5-3.73v-.56c0-.16-.09-.24-.26-.24h-1.48c-.17 0-.26.08-.26.24v.56h2ZM13.33 27h-1.66v-4.5H10V21h5v1.5h-1.67V27ZM7.93 27H5.01v-1.5h2.27c.15 0 .22-.09.22-.24v-.4c0-.16-.07-.24-.22-.24H6.03c-.68 0-1.03-.34-1.03-1.05v-1.43c0-.76.33-1.14 1-1.14h3v1.5H6.72c-.15 0-.22.09-.22.24v.4c0 .15.07.23.22.23h1.3c.66 0 .98.35.98 1.06v1.4C9 26.61 8.65 27 7.93 27ZM26.93 35h-2.92v-1.5h2.27c.15 0 .22-.09.22-.24v-.4c0-.16-.07-.24-.22-.24h-1.25c-.68 0-1.03-.34-1.03-1.05v-1.43c0-.76.33-1.14 1-1.14h3v1.5h-2.28c-.15 0-.22.09-.22.24v.4c0 .15.07.23.22.23h1.3c.66 0 .98.35.98 1.06v1.4c0 .78-.35 1.17-1.07 1.17ZM50.93 35h-2.92v-1.5h2.27c.15 0 .22-.09.22-.24v-.4c0-.16-.07-.24-.22-.24h-1.25c-.68 0-1.03-.34-1.03-1.05v-1.43c0-.76.33-1.14 1-1.14h3v1.5h-2.28c-.15 0-.22.09-.22.24v.4c0 .15.07.23.22.23h1.3c.66 0 .98.35.98 1.06v1.4c0 .78-.35 1.17-1.07 1.17Z" fill="#7D1C20"/></svg>