<svg width="56" height="56" viewBox="0 0 56 56" xmlns="http://www.w3.org/2000/svg"><path fill="#F0F3FA" d="M0 0h56v56H0z"/><path d="M18.54 25.96a9.23 9.23 0 0 0-3.75 5.6c-.01.09-.1.15-.2.13l-.5-.1c-2.95-1.5-3.72-3.36-4.13-4.96-.36-1.4-.12-3.2.95-4.23 1.58-1.52 3.8-1.11 5.44.16.89.7 1.55 1.55 1.99 2.58.05.11.09.25.11.4l.1.42Z" fill="#FFC230"/><path d="M42.79 19.48a3.75 3.75 0 0 1 2.95.98c1.3 1.25 1.52 3.36 1 5.08a8.51 8.51 0 0 1-1.47 2.82 6.66 6.66 0 0 1-2.45 1.93.25.25 0 0 1-.16.03c-.1-.02-.13-.08-.09-.17a6.5 6.5 0 0 0 3.52-4.72c.28-1.41-.07-3.17-1.26-4.07a3.53 3.53 0 0 0-3.86-.4A6.14 6.14 0 0 0 37.73 24c-.07.16-.05.55.05 1.15l-1.34-.65a17.28 17.28 0 0 0-5.37-1.5.17.17 0 0 1-.14-.1c-.4-.94-1.06-1.3-1.98-1.1-.48.11-.82.44-1.03.98a.16.16 0 0 1-.15.11l-1.3.12c-2.9.3-5.55 1.28-7.93 2.96a7.65 7.65 0 0 1-.09-.41 1.9 1.9 0 0 0-.11-.4 6.43 6.43 0 0 0-1.99-2.59c-1.64-1.27-3.86-1.68-5.44-.16-1.07 1.02-1.3 2.83-.95 4.23a6.64 6.64 0 0 0 4.36 4.81c.04.01.1.11.03.12l-.25.04a7.19 7.19 0 0 1-3.89-3.06 7.8 7.8 0 0 1-1.07-2.63 5.33 5.33 0 0 1 .55-3.9 3.7 3.7 0 0 1 3.11-1.76c2.48.1 4.64 1.88 5.65 4.12.08.2.14.19.15-.03.44-5.37 5.2-10.06 10.8-9.25 4.24.62 7.18 3.95 8.13 8.07.03.16.09.16.16.02 1.02-1.99 2.9-3.4 5.1-3.7Z" fill="#EA3B2B"/><path d="M42.58 30.15a10.76 10.76 0 0 0-3.23-3.94c-.54-.4-1.06-.77-1.57-1.07-.1-.6-.12-.99-.05-1.15a6.14 6.14 0 0 1 3.24-3.03 3.53 3.53 0 0 1 3.86.4c1.19.9 1.54 2.66 1.26 4.07a6.5 6.5 0 0 1-3.52 4.72Z" fill="#FFC230"/><path d="M24.2 21.5c.86-.9 1.84-.45 2.68.28.17.15.16.22-.05.22l-2.54-.06c-.35 0-.38-.16-.1-.45ZM32.14 21.87c-.18-.05-.19-.14-.03-.25.5-.35 1.35-.76 1.96-.58.34.1.77.3.92.72.03.08-.02.17-.1.17-.82-.04-1.96.21-2.75-.06Z" fill="#14120C"/><path d="M28.11 23c.32-1.39 2.3-1.32 2.57.04a.27.27 0 0 0 .22.21c1.48.17 2.82.47 4.03.9 3.21 1.13 6.49 3.36 7.6 6.74 1.1 3.33-.3 6.53-2.92 8.67-4.38 3.57-10.77 4.2-16.07 2.63-4-1.17-8.44-4.35-8.62-8.94-.12-3.2 1.85-5.91 4.52-7.57 2.5-1.57 5.32-2.4 8.46-2.52.12 0 .19-.06.21-.17Z" fill="#EA3B2B"/><path d="M18.15 29.45c.07-.74.5-1.64 1.1-2.1.34-.25.84-.37 1.5-.35.1 0 .14.05.14.14l-.09 4.94c0 .08-.08.14-.16.14l-2.54-.26c-.07 0-.1-.05-.1-.11.02-.82.07-1.62.15-2.4ZM24.97 27.63l-.05 4.83c0 .03-.04.06-.07.06l-3.53-.23a.06.06 0 0 1-.05-.05l.06-5.05c0-.03.03-.06.07-.05l3.52.43c.03 0 .05.03.05.06ZM36.05 27.5c0-.12.1-.22.2-.24 2.64-.51 2.79 3.32 2.74 4.93 0 .08-.04.12-.12.12l-2.8.17a.07.07 0 0 1-.08-.08l.06-4.9ZM32.79 32.59l.08-4.9c0-.03.03-.05.06-.05l2.6-.2c.03 0 .06.03.06.07l-.08 4.95c0 .03-.03.06-.06.06l-2.6.13a.06.06 0 0 1-.06-.06ZM28.61 27.79l-.07 4.78c0 .04-.04.08-.09.08l-3.03-.07a.09.09 0 0 1-.09-.09l.1-4.8c0-.05.04-.1.08-.09l3.02.1c.05 0 .08.04.08.09ZM32.4 27.73l-.07 4.85c0 .03-.03.07-.07.07h-3.2a.07.07 0 0 1-.07-.04v-.03l.06-4.8c0-.03.03-.07.07-.07l3.2-.05c.05 0 .08.03.08.07ZM20.78 32.82l-.07 4c0 .06-.03.08-.09.05-.95-.4-2-1.12-2.28-2.12a9.53 9.53 0 0 1-.32-2.18c0-.08.03-.12.11-.1l2.55.24c.06 0 .1.06.1.11ZM21.16 37.06l.08-4.15c0-.08.07-.14.14-.13l3.4.22c.07 0 .13.07.13.13l-.1 4.61c0 .08-.08.15-.16.13l-3.38-.68a.14.14 0 0 1-.1-.13ZM36.06 37.32c-.12.05-.18 0-.18-.12l.1-4.12a.1.1 0 0 1 .09-.1l2.8-.19c.06 0 .08.03.08.08-.12 1.83-1 3.8-2.9 4.45ZM25.24 37.8l.07-4.68c0-.06.05-.1.12-.1l2.99.1c.06 0 .1.06.1.12l-.1 4.65a.1.1 0 0 1-.1.1l-2.97-.09a.11.11 0 0 1-.11-.1ZM32.68 37.73l.1-4.52c0-.05.04-.1.1-.1l2.51-.07c.06 0 .1.05.1.1l-.07 4.3a.1.1 0 0 1-.1.1l-2.53.29a.1.1 0 0 1-.1-.1ZM28.86 37.9l.12-4.67c0-.04.04-.07.08-.07l3.18-.02c.04 0 .08.04.08.08l-.09 4.58c0 .03-.03.07-.07.07l-3.22.11a.08.08 0 0 1-.08-.08Z" fill="#fff"/><path d="M24.2 15c-.14 0-.2-.03-.2-.1l2.52-1.84c.14-.1.24-.07.3.1l.15.4c.07.18.02.3-.15.37L24.2 15ZM34.94 15.99l-1.88-1.38c-.07-.05-.08-.1-.03-.17.1-.11.16-.23.2-.36.03-.1.08-.1.14-.03L35 15.93c.03.03-.02.1-.05.06Z" fill="#14120C"/></svg>