<svg width="56" height="56" viewBox="0 0 56 56" xmlns="http://www.w3.org/2000/svg"><path fill="#F0F3FA" d="M0 0h56v56H0z"/><path d="M37.22 25.09a11.71 11.71 0 0 1-3.92-2.22c-.13 1.18.56 2.5.91 3.01l7 4.07 1.73 2.9c.6-6.07-3.5-7.08-5.72-7.76Z" fill="#A6CE39"/><path d="M28 11.09V10l-15 8.71v18.63L27.32 46h1.35l14.3-8.66v-4.15c0-4.57-4.34-5.33-6.95-6.68-2.1-1.08-2.65-2.83-2.66-3.57a9.1 9.1 0 0 0 1.2 5c1.03 1.81 4.29 2.46 6.04 2.94 1.4.38 1.43 1.47 1.4 1.97v3.86l-14.05 8.47L14 36.7V19.3l14-8.2Z" fill="#00674B"/><path d="M16 36.85V34l12 6.96v2.85l-12-6.96Z" fill="#152453"/><path d="m28 13.27-12 6.55 1.8 1.96L28 16.07v-2.8Z" fill="#9BADC1"/><path d="M16 19.82 39 34l-1.44 2.05L16 22.69v-2.87Z" fill="#152453"/><path d="M39 36.85V34l-11 6.96v2.85l11-6.96Z" fill="#9BADC1"/><path d="M40 23.1 28 16.1v-2.84l12 7.03v2.8Z" fill="#152453"/></svg>