<svg xmlns="http://www.w3.org/2000/svg" width="56" height="56" viewBox="0 0 56 56"><path fill="url(#ajlgumu5y)" d="M0 0h56v56H0z"/><path d="M9.93 21H14v3h-3.58c-.5.01-1.42 0-1.42.75 0 .74 1.02 1 1.58 1.03 1.32.05 4.42 1 4.42 4.1 0 3.18-2.64 4.12-4.18 4.12H6v-3h4.66c.42 0 1.3-.13 1.34-.94.04-.81-.88-1.2-1.34-1.28-1.65-.32-4.68-.95-4.66-4.03.02-3.09 2.63-3.79 3.93-3.75z" fill="#AEAEAE"/><circle cx="17.5" cy="22.5" r="1.5" fill="#AEAEAE"/><path fill="url(#bjlgumu5y)" d="M16 25h3v9h-3z"/><path d="M20 28.9V34h3v-4.54c.08-1.44 1.33-1.55 2-1.46v-2.99c-3.89-.2-5 2.42-5 3.89z" fill="url(#cjlgumu5y)"/><path d="M31 25.12a4.45 4.45 0 0 0-5.5 4.38 4.48 4.48 0 0 0 5.5 4.38V31h-1a1.5 1.5 0 0 1 0-3h1v-2.88z" fill="url(#djlgumu5y)"/><path d="M36.5 34c.17 0 .34 0 .5-.03v-3.06a1.5 1.5 0 1 1 1-1.41V34h3v-4.3-.2a4.5 4.5 0 1 0-4.5 4.5z" fill="url(#ejlgumu5y)"/><path d="M49.34 24.94c.4.97.66 2 .66 3.06h-3.7c.02-.1.02-.21.02-.32A3.87 3.87 0 0 0 42 23.84V20a8 8 0 0 1 7.34 4.94zM45.81 28h-1.59A2.65 2.65 0 0 0 42 25.61v-1.27l.45-.03A3.37 3.37 0 0 1 45.81 28zM42 26.12c.91.18 1.62.94 1.72 1.88H42v-1.88zm0 2.38h1.72A2.15 2.15 0 0 1 42 30.34V28.5zm0 2.35a2.65 2.65 0 0 0 2.22-2.35h3.21a5.39 5.39 0 0 1-3.35 5.07A5.5 5.5 0 0 1 42 34v-3.15z" fill="#AEAEAE"/><defs><linearGradient id="ajlgumu5y" x1="10.42" y1="9.71" x2="68.15" y2="76.02" gradientUnits="userSpaceOnUse"><stop stop-color="#1A1E21"/><stop offset="1" stop-color="#06060A"/></linearGradient><linearGradient id="bjlgumu5y" x1="16" y1="25.28" x2="18.87" y2="34.04" gradientUnits="userSpaceOnUse"><stop offset=".32" stop-color="#AEAEAE"/><stop offset=".74" stop-color="#CFCFCF"/><stop offset="1" stop-color="#949494"/></linearGradient><linearGradient id="cjlgumu5y" x1="20.63" y1="25.35" x2="25.89" y2="32.91" gradientUnits="userSpaceOnUse"><stop stop-color="#BABABA"/><stop offset=".31" stop-color="#CFCFCF"/><stop offset=".71" stop-color="#717171"/><stop offset="1" stop-color="#A9A9A9"/></linearGradient><linearGradient id="djlgumu5y" x1="25.5" y1="25" x2="30.79" y2="33.96" gradientUnits="userSpaceOnUse"><stop offset=".14" stop-color="#ADADAD"/><stop offset=".36" stop-color="#6E6E6E"/><stop offset=".71" stop-color="#CECECE"/><stop offset="1" stop-color="#AEAEAE"/></linearGradient><linearGradient id="ejlgumu5y" x1="32.39" y1="25.42" x2="41" y2="34" gradientUnits="userSpaceOnUse"><stop stop-color="#CFCFCF"/><stop offset="1" stop-color="#AEAEAE"/></linearGradient></defs></svg>