<svg xmlns="http://www.w3.org/2000/svg" width="56" height="56"><path fill="#00AEEF" d="M0 0h56v56H0z"/><path fill="#fff" d="M16 10h23v35H16z"/><path d="M25.84 37.57l1.1.82-8.95.03v.29h.43v1.07l1.34.82c.31.2 0 .27-.2.28.12.08.25.24.4.21.19-.03.35-.13.41-.25.1-.2-.17-.33-.3-.41l-1.12-.69v-1.03h.86v.4c0 .27-.04.38-.28.44l.34.23c.18-.06.31-.14.46-.26v-.81h1.53v.18c0 .18 0 .44-.17.44s-.4-.16-.4-.29l-.02-.02c-.04 0-.35.18-.35.18l1.28 1.36.38-.23-.74-.68.16-.05c.17-.04.28-.1.36-.22.03-.05.04-.12.04-.37v-.3h.82l-.01.6h-.76l.23.26h.54v1.01h.53l.01-1.88h3.14v.42h-1.36c.06.04.26.32.32.45.14.3 0 .66-.4.5a1.26 1.26 0 01-.53-.58c-.14-.29-.18-.4-.18-.48 0-.03-.34.1-.39.15v.09c.07.28.28.56.47.76.2.2.58.37.88.37.24 0 .62-.17.7-.41a.6.6 0 00-.05-.43l-.03-.12h.57l.01 1.16h.5V38.7h.31v-.28h-.2c-.17 0-.2 0-.26-.06a40.6 40.6 0 00-.23-.2l-.87-.77-.32.2zm3.93-.2c-.27.05-.72.27-.65.62.03.21.22.42.22.42H27.8v.28h1.8l.02.97a.73.73 0 01-.53.23c-.29 0-.45-.13-.45-.36 0-.24.22-.35.44-.34.14.01.3.07.3.06.03-.03-.03-.27-.08-.29a1.61 1.61 0 00-.54 0c-.5.1-.76.44-.6.78.19.44 1.1.57 1.46.28v.56h.51c0-.63.02-1.26 0-1.89h.74v1.9h.54v-1.9h.73v1.1l.3.18c.35.2.69.41 1.02.62.13.09.16.11.16.17 0 .16-.33.1-.33.12 0 .03.3.23.33.22.18-.03.62-.19.45-.46a16.7 16.7 0 00-1.32-.84l-.1-.06v-1.05h.87v.78c-.1.04-.19.06-.3.08l.18.11c.14.1.17.1.24.09.22-.05.4-.17.4-.26v-.8h2.35v.48h-.84c-.8 0-.8 0-.86.05-.07.08-.04.15.14.32.22.21.29.26.38.3.1.06.16.06.22.02.04-.03.04-.13.05-.4h.91v1.12h.52V38.7h.3v-.27l-5.83-.02c-.2-.4-.45-.8-.9-.97a1.76 1.76 0 00-.7-.05zm1.13 1.04h-1.04c-.2-.2-.38-.62 0-.74.53-.17.87.32 1.04.74z" fill="#00AEEF"/><path d="M25.7 42.09c0 1.05-.02 1.22-.16 1.3-.1.05-.26.05-.34-.02-.15-.12-.13-.37-.14-.55h-1.03l-.01.17c-.03.73.5 1.12 1.47 1.11.53 0 1.17-.18 1.32-.8.04-.16.07-.37.07-1.24V41H25.7v1.09zM28.58 44h1.14l1.25-3H29.8l-.67 2.03-.65-2.03h-1.16l1.25 3zm2.86 0h1.1v-1.7l1.3 1.7h1.09v-3h-1.1v1.53L32.54 41h-1.11v3zm-9.99-2.94c-.4.09-.96.33-.96.87.01.78.98.88 1.5 1 .38.08.5.13.54.22.12.26-.3.29-.43.29-.19 0-.42-.02-.53-.21l-.05-.08H20.4c.17.78 1 .95 1.64.95.5 0 1.39-.08 1.59-.71a.84.84 0 00-.02-.57c-.14-.3-.42-.44-1.28-.63-.54-.13-.7-.19-.72-.29-.08-.34.67-.23.8-.06l.08.1h.53c.29 0 .53-.02.54-.02.02-.03-.06-.23-.13-.35-.4-.63-1.38-.63-1.98-.5z" fill="#E23223"/><path d="M27.5 11H17v23h6.5c-3.01-1.67-4.78-4.8-4.46-8 .24-2.46 1.91-4.64 3.76-7.06 1.75-2.28 3.66-4.78 4.7-7.94zm0 0H38v23h-6.5c3.01-1.67 4.78-4.8 4.46-8-.24-2.46-1.91-4.64-3.76-7.06-1.75-2.28-3.66-4.78-4.7-7.94z" fill="#00AEEF"/><path d="M24 31l6-9-2.5 7H31l-6.5 9 3-7H24z" fill="#E43224"/></svg>