<svg width="56" height="56" viewBox="0 0 56 56" xmlns="http://www.w3.org/2000/svg"><path fill="#F0F3FA" d="M0 0h56v56H0z"/><path d="m12.22 22.62-.56 1.92A5.34 5.34 0 0 0 9.32 24C8.1 24 7 24.38 7 25.14c0 .76.96 1.17 1.98 1.54 2.22.88 4.02 1.51 4.02 3.9C13 32.94 10.12 34 7.74 34c-1.9 0-2.95-.44-3.24-.66v-2c.57.22 2 .66 3.05.66 1.32 0 2.45-.81 2.45-1.43 0-.61 0-1-2.26-1.78C5.5 28.01 4 26.68 4 25.26 4 23.13 6.55 22 8.7 22c1.7 0 3.06.41 3.52.62Z" fill="#070D8E"/><path d="m33 19 3 1.95V24l-3-1.95V19Z" fill="#C70000"/><path d="M40.52 25.76c0 2.22-2.88 4.55-4.52 5.74v-5.09l-3-1.68v8.46c-1.2.28-5.54 1.1-5.54-1.74 0-2.66 2.55-4.94 4.1-6.32l.63-.58-2.22-1.68c-1.32 1.3-3.97 4.66-3.97 7.59 0 2.81 2.49 3.54 3.97 3.54a11.52 11.52 0 0 0 5.69-1.68c4.1-2.61 6.34-6.01 6.34-7.81 0-1.8-1.74-2.51-2.93-2.51-.95 0-1.72.32-2.07.49v2.48c.47-.15 1.36-.46 1.86-.46.63 0 1.66.22 1.66 1.25Z" fill="#C70000"/><path d="M47 22h-3v12h8v-2h-5V22ZM15 22h3v4.92L22.52 22h3.13l-5.44 5.81L26 34h-3.13L18 28.82v5.16h-3V22Z" fill="#070D8E"/></svg>