<svg width="56" height="56" viewBox="0 0 56 56" xmlns="http://www.w3.org/2000/svg"><path fill="#F0F3FA" d="M0 0h56v56H0z"/><path fill-rule="evenodd" d="M23.31 32h3.66c.02 0 .03 0 .03-.02V30.85h.03l.81 1.14.02.01h4.23l.01-.05v-.02l2.24-3.73v-.02l-3.05-4.12h-.03l-1.63 1.33h-.04l-1.33-1.28h-.03l-1.4 1.73-.03.01-.01-.02v-1.8l-.01-.03h-.03l-5.2 3.25v.03l1.25 2.47v.02l-.53.47v.03L23.3 32h.02Zm1.94-5.24-1.6.95c-.01.01-.02.02-.01.04l1.46 3.52v.03H23.6l-.03-.02-.53-.85v-.04l.48-.43c.01 0 .02-.02 0-.03l-1.2-2.56c0-.02 0-.03.02-.04l3.8-2.26h.03l.01.02.1 2.6c0 .02 0 .03.02.04l.04-.01 2-2.5h.05l1.3 1.16h.05L31 25.1l.03-.01.03.01 2.4 3.2v.03l-1.8 2.84-.03.02-1.03.02c-.01 0-.02 0-.03-.02v-.03l1.75-2.7v-.04l-1.2-1.73-.03-.01h-.03l-.8.58-.01.03-.02 3.87c0 .02-.02.03-.04.03h-.8c-.01 0-.02 0-.02-.03v-3.91c0-.02 0-.02-.02-.03l-.76-.54h-.05l-1.2 1.72c-.02.01-.02.02 0 .03l1.74 2.73v.03c0 .02-.01.02-.03.02h-.89l-.02-.01-1.8-2.3a.03.03 0 0 0-.05-.02l-.02.03.04 2.36a.03.03 0 0 1-.03.04l-.95-.05c-.02 0-.03-.01-.03-.03v-4.45c0-.01 0-.02-.02-.03h-.03Zm3.5 2.66-.71-1.02v-.03l.64-.82h.03l.01.02.06 1.83-.01.03-.03-.01Zm2.86-1-.7-.87h-.02c-.01 0-.02 0-.02.02v1.9c0 .01 0 .02.02.02h.02l.7-1.03v-.03Zm-6.76 1.03L24.22 28v-.05l.03-.03.53-.28h.03l.02.03.04 1.76c0 .05 0 .05-.02 0Z" fill="#D8261C"/><path fill-rule="evenodd" d="M32.25 22 28 9l-4.25 13H10l11.12 8.63L16.88 44 28 35.74 39.12 44l-4.24-13.37L46 22H32.25Zm10.83 1H31.52L28 12.22 24.48 23H12.92l9.37 7.27-3.52 11.08L28 34.49l9.23 6.86-3.52-11.08L43.08 23Z" fill="#D8261C"/></svg>