<svg width="56" height="56" viewBox="0 0 56 56" xmlns="http://www.w3.org/2000/svg"><path fill="#F0F3FA" d="M0 0h56v56H0z"/><path d="M47.23 26H52l-.23 5H47l.23-5Z" fill="#B8333F" fill-opacity=".5"/><path d="M46 31h-1.71l-1.3-2.22-.6.59V31H41v-7h1.4v3.78L44.17 26h1.76l-1.9 1.82L46 31ZM38.07 27.06c-.6 0-.74.42-.74 1.3V31H36v-5h1.3v.84c.3-.51.52-.84 1.14-.84 1.03 0 1.56.73 1.56 1.71V31h-1.25v-2.97c0-.5-.1-.97-.68-.97ZM34.35 26v5H33v-5h1.35Zm0-2v1H33v-1h1.35ZM31 24h1.47v7H31v-7ZM30.25 30v.98l-.66.02c-.7.02-1.59-.08-1.59-.95V27h-1v-.87h1V25h1.38v1.13h.87V27h-.87v2.58c0 .42.62.42.87.42ZM25.61 27.3c-.54 0-.9.16-1.1.5-.1.18-.15.47-.15.87V31H23v-5h1.36v.97c.2-.33.32-.55.47-.67a1.54 1.54 0 0 1 1.05-.3H26v1.32a3.84 3.84 0 0 0-.39-.03ZM19.76 26c.99 0 2.24.27 2.24 1.47v2.18c0 .35-.1 1 .3 1.17V31h-1.52c-.08-.2-.1-.49-.13-.7-.46.44-1.34.7-1.98.7-.86 0-1.67-.47-1.67-1.4 0-1.14 1.04-1.47 2.28-1.58.33-.03 1.33.02 1.33-.51 0-.39-.3-.51-.9-.51-.46 0-1.1.17-1.2.65h-1.34c.08-1.07.83-1.65 2.6-1.65Zm-.38 4c.68 0 1.2-.28 1.22-1v-.45c-.3.16-.62.2-.95.25-.4.07-1.25.18-1.25.7 0 .4.31.5.98.5ZM11.13 27c-.62 0-.84.4-.84.96V31H9v-5h1.3v.83c.32-.53.7-.83 1.35-.83.6 0 1.1.26 1.32.83.35-.58.87-.83 1.5-.83 1.16 0 1.53.95 1.53 1.92V31h-1.32v-3.21c0-.54-.25-.8-.71-.8-.59 0-.83.48-.83 1V31h-1.29v-3.01c0-.5-.12-.99-.72-.99ZM7.88 27.57H6.73c-.04-.45-.3-.57-.76-.57-.5 0-.7.13-.7.36 0 .14.06.24.17.3.12.07.51.19 1.2.35.9.23 1.36.7 1.36 1.4C8 30.55 7.02 31 6.02 31 4.97 31 4 30.5 4 29.34h1.16c.06.54.42.66.95.66.45 0 .73-.1.73-.38 0-.53-1.01-.6-1.35-.69a2.4 2.4 0 0 1-1.05-.5c-.2-.2-.3-.47-.3-.84C4.13 26.58 5 26 5.94 26c1.04 0 1.83.48 1.93 1.57Z" fill="#302E2F"/></svg>