<svg width="56" height="56" viewBox="0 0 56 56" xmlns="http://www.w3.org/2000/svg"><path fill="#F0F3FA" d="M0 0h56v56H0z"/><path d="M24.07 19.65a48.1 48.1 0 0 0-4.98 7.93 26.7 26.7 0 0 1-4.61-8.1c.32-.5.66-.99 1.04-1.45 2.11 0 5.13.44 8.55 1.62Zm-8.5-1.7c2.88-.33 6.04.01 9.24.76a52.5 52.5 0 0 1 6.2-6.43 16.04 16.04 0 0 0-15.44 5.68ZM35.73 14a32.05 32.05 0 0 0-8.49 5.37c3.29.97 6.55 2.32 9.53 3.76.4-2.55.54-5.31.32-8.29-.44-.3-.9-.58-1.36-.84Zm1.5.94c.41 2.08.66 5.07.39 8.61A81 81 0 0 1 44 27.09c-.3-5.02-2.9-9.43-6.77-12.16Zm5.63 19.2a40.37 40.37 0 0 0-5.74-6.63A41.8 41.8 0 0 1 34 37.57c2.13.74 4.11 1.21 5.75 1.47a16.1 16.1 0 0 0 3.11-4.91Zm-3.16 4.95c-2.04-.17-4-.55-5.9-1.08-.94 2-2.07 4-3.45 6a15.96 15.96 0 0 0 9.35-4.92Zm-15.46 4.64a27.37 27.37 0 0 0 6.75-6.64A44.2 44.2 0 0 1 18.83 30a37.23 37.23 0 0 0-3.14 8.36 16 16 0 0 0 8.55 5.36Zm-8.65-5.48a33.07 33.07 0 0 1 2.61-8.76 45.59 45.59 0 0 1-5.65-5.6 16.17 16.17 0 0 0 3.04 14.36Zm20.45-11.7a32.05 32.05 0 0 1-4.67 10 33.27 33.27 0 0 1-11.62-8.2 36.22 36.22 0 0 1 6.34-7.93 37.02 37.02 0 0 1 9.95 6.12Z" fill="url(#ar0bmyeao)"/><defs><linearGradient id="ar0bmyeao" x1="28" y1="12" x2="28" y2="44" gradientUnits="userSpaceOnUse"><stop stop-color="#407626"/><stop offset=".57" stop-color="#A8CE3B"/><stop offset="1" stop-color="#397120"/></linearGradient></defs></svg>