<svg width="56" height="56" viewBox="0 0 56 56" xmlns="http://www.w3.org/2000/svg"><path fill="#F0F3FA" d="M0 0h56v56H0z"/><path d="M44 28.37c0 1.6-.2 3.16-.57 4.63h-8.68A6 6 0 0 0 36 29.45c0-2.16-.8-4.02-6.46-6.49-2.9-1.14-4.54-2.88-4.54-4.27 0-.93 1.84-1.96 3.32-2.99 1.48-1.03 2.73-2.3 2.68-3.2a.86.86 0 0 0-.2-.5c-1.2.9-2.73 2.09-4.5 3.01-3.17 1.66-6.3 3.33-6.3 4.95 0 1.21 1.28 2.27 2.66 3.37 1.5 1.2 3.34 2.64 3.34 4.17 0 2.6-1.8 4.93-8.75 5.5h-4.68a18.79 18.79 0 0 1-.57-4.63C12 18.77 19.16 11 28 11s16 7.78 16 17.37Z" fill="#0061A9"/><path d="M35 43h-1.5v-4.99c0-.37-.02-.74-.06-1.09-.1-1.09-.92-1.52-1.98-1.52-1 0-2.12.54-2.9 1.1.03.24.05.58.05.9V43H27v-4.99c0-1.46-.23-2.6-1.92-2.6-.98 0-1.8.5-2.58 1.05V43H21v-9h1.5v1.22A4.98 4.98 0 0 1 25.53 34c1.31 0 2.24.53 2.68 1.42a6.34 6.34 0 0 1 3.7-1.42c2.02 0 3.09 1.37 3.09 3.32V43ZM20 40.32c0 1.97-2.14 2.68-3.78 2.68a7.07 7.07 0 0 1-3.22-.72v-1.62h.08c.48.34 1 .61 1.59.82.58.2 1.14.3 1.67.3.85 0 2.12-.18 2.12-1.28 0-.84-.77-1.06-1.47-1.21l-.85-.16c-1.44-.26-3.14-.75-3.14-2.5 0-1.9 2.07-2.63 3.66-2.63.53 0 1.07.06 1.62.2.55.12 1 .27 1.37.45v1.54h-.08a5.4 5.4 0 0 0-1.4-.68 4.96 4.96 0 0 0-1.63-.29c-.76 0-1.96.24-1.96 1.2 0 .83.75 1.1 1.43 1.25l.93.18.87.17c1.4.3 2.19 1.05 2.19 2.3ZM43 40.32c0 1.97-2.14 2.68-3.78 2.68a7.07 7.07 0 0 1-3.22-.72v-1.62h.08c.48.34 1 .61 1.59.82.58.2 1.14.3 1.67.3.85 0 2.12-.18 2.12-1.28 0-.84-.77-1.06-1.47-1.21l-.85-.16c-1.44-.26-3.14-.75-3.14-2.5 0-1.9 2.07-2.63 3.66-2.63.53 0 1.07.06 1.62.2.55.12 1 .27 1.37.45v1.54h-.08a5.4 5.4 0 0 0-1.4-.68 4.96 4.96 0 0 0-1.63-.29c-.76 0-1.96.24-1.96 1.2 0 .83.75 1.1 1.43 1.25l.94.18.86.17c1.4.3 2.19 1.05 2.19 2.3Z"/></svg>