<svg xmlns="http://www.w3.org/2000/svg" width="56" height="56"><path fill="url(#aelrnk5td)" d="M0 0h56v56H0z"/><path d="M43.2 32a16 16 0 10-30.4 0h5.4c1.52 0 3.04-.26 4.33-1.05 2.06-1.27 3.82-3.1 2.74-5.22a11.06 11.06 0 00-2.29-2.6c-2.1-1.98-4.28-4.03-1.1-6.38 1.5-1.1 3.92-2.2 6.84-3.51l2.14-.97a.1.1 0 01.14.09c-.08 1.53-1.21 2.2-2.7 3.1-.5.3-1.07.64-1.63 1.04-1.05.74-1.72 1.76-.88 3 .9 1.32 3.2 2.68 6.21 4 4.01 2 4.56 5.04 3.36 8.5h7.84zm-23.98 2.32l.28.14v1.25c-.2-.17-.43-.31-.7-.44a4.47 4.47 0 00-1.95-.42c-.67.01-1.27.18-1.7.49-.4.3-.67.73-.7 1.37-.01.52.16.8.44 1.03.33.25.8.42 1.4.58l.4.1c.47.12.98.25 1.43.44.58.23 1.17.6 1.48 1.27.7 1.52-.22 3.11-1.68 3.75-1.2.52-2.77.46-4.42-.54V42.1c1.62 1.2 3.08 1.22 4.04.8 1.12-.48 1.53-1.52 1.16-2.3-.15-.33-.45-.57-.95-.77-.37-.15-.8-.26-1.25-.37l-.45-.12a4.93 4.93 0 01-1.75-.76 2.19 2.19 0 01-.84-1.9c.03-1 .47-1.73 1.12-2.2a3.94 3.94 0 012.26-.68c.81-.01 1.66.17 2.38.52zm22.5.2l.28.14v1.25c-.2-.17-.43-.31-.7-.44a4.47 4.47 0 00-1.95-.42c-.67.01-1.27.18-1.7.49-.4.3-.67.73-.7 1.37-.01.52.16.8.44 1.03.33.25.8.42 1.4.58l.4.1c.47.12.98.25 1.43.44.58.23 1.17.6 1.48 1.27.7 1.52-.22 3.11-1.68 3.75-1.2.52-2.77.46-4.42-.54V42.3c1.62 1.2 3.08 1.22 4.04.8 1.12-.48 1.53-1.52 1.16-2.3-.15-.33-.45-.57-.95-.77-.37-.15-.8-.26-1.25-.37l-.45-.12a4.93 4.93 0 01-1.75-.76 2.19 2.19 0 01-.84-1.9c.03-1 .47-1.73 1.12-2.2a3.94 3.94 0 012.26-.68c.81-.01 1.66.17 2.38.52zM25.5 33.8a3 3 0 00-2.5 1.34V34h-1v10h1v-6.95a2.25 2.25 0 014.5 0V44h1v-6.95a2.25 2.25 0 014.5 0V44h1v-7.2a3 3 0 00-5.75-1.2 3 3 0 00-2.75-1.8z" fill="#fff"/><defs><linearGradient id="aelrnk5td" x1="28" y1="0" x2="28" y2="56" gradientUnits="userSpaceOnUse"><stop stop-color="#669EC3"/><stop offset="1" stop-color="#1466A2"/></linearGradient></defs></svg>