<svg width="56" height="56" viewBox="0 0 56 56" xmlns="http://www.w3.org/2000/svg"><path fill="#F0F3FA" d="M0 0h56v56H0z"/><path d="M21 23.52c0 1.1.42 2.12.63 2.5-.45-2.81.45-4.32.96-4.72-.26.65-.37 1.6-.4 1.98a4.85 4.85 0 0 1 3.64-3.65c1.29.9 3.27.94 4.1.85 1.67 0 4.08 1.45 4.08 3.7 0 1.8-1.6 3.35-2.41 3.9a4.8 4.8 0 0 0 .95-5.36c.23 3.08-1.35 6.45-4.97 6.45-2.9 0-4.7-1.2-5.23-1.8 1.35 2.22 3.82 2.63 5.4 2.63 1.58 0 7.25-1.42 7.25-5.83 0-3.52-2.77-4.22-4.16-4.13 2.25-1.39 2.24-2.48 2.24-3.05v-.03c0-.23-.05-.54-.1-.88a6.53 6.53 0 0 1-.13-1.54c.06-.53.71-.58 1.14-.61.2-.02.35-.03.38-.07.1-.16-.66-1.86-2.04-1.86-1.1 0-2.6.94-3.22 1.4h-.78c-2.11 0-3.21 2.03-3.5 3.05a4.12 4.12 0 0 1 3.73-2.3c2.3 0 3.57 1.7 3.57 2.8 0 1.1-1 2.9-3.57 2.9-2.06 0-3.21-1-3.53-1.49v.58c-2.19.57-4.03 3.21-4.03 4.58Zm6.65-6.68a.4.4 0 0 1-.4.38.4.4 0 0 1-.4-.38.4.4 0 0 1 .4-.38c.22 0 .4.17.4.38Zm1.92.38a.4.4 0 0 0 .4-.38.4.4 0 0 0-.4-.38.4.4 0 0 0-.4.38c0 .2.18.38.4.38Zm-.68.38c0 .3-.25.54-.57.54a.56.56 0 0 1-.57-.54c0-.3.26-.54.57-.54.32 0 .57.24.57.54Zm-1.3 1.03c.14.05.38.11.64.13.25.02.55 0 .81-.14l-.18-.3c-.17.08-.39.1-.6.09a2.07 2.07 0 0 1-.54-.1l-.13.32Z" fill="#312267"/><path d="M32.04 15.08a6.84 6.84 0 0 0-2.28-1.53c.4-.35 1.4-1.05 2.28-1.05.88 0 1.33.77 1.44 1.15-.99.07-1.37.98-1.44 1.43Z" fill="#F0F3FA"/><path fill-rule="evenodd" d="M13.23 33.5h-1.02c0-.23-.11-.7-.88-.7-.6 0-.78.32-.8.48.03.16.28.56 1.1.94.83.37 1.07.95 1.1 1.2.02.52-.3 1.58-1.83 1.58S9 35.94 9 35.42h.95c-.02.27.13.8.95.8 1.63 0 .82-1.16 0-1.35-.94-.23-1.28-.84-1.28-1.37 0-.41.29-1.5 1.71-1.5 1.14 0 1.9.66 1.9 1.5Zm1.43-1.5-1.1 5h.93l.75-3.1 1.08 3.1h.93l1.13-5h-1l-.68 3.26L15.46 32h-.8Zm26.52 5 1.15-5h.82l1.29 3.26.7-3.26h1.04l-1.17 5h-.96l-1.13-3.1-.78 3.1h-.96Zm-21.13-.14c1.1.46 2.47-.23 3.07-1.53.6-1.3.2-2.73-.9-3.19-1.1-.46-2.47.23-3.07 1.53-.6 1.3-.2 2.73.9 3.19Zm.47-.8c.62.3 1.4-.15 1.74-1.01.34-.86.11-1.8-.51-2.1-.63-.3-1.4.14-1.75 1-.34.86-.1 1.8.52 2.1ZM24.35 32h.96v3.31L27 32h1v3.31L29.76 32h1.02l-2.44 5h-1.02v-3.4L25.53 37h-1.18v-5Zm6.98 0-1.11 5h.98l.88-3.84V37h1l1.59-3.65-.63 3.65h.9l.75-5h-1.3l-1.52 3.36V32h-1.54Zm7.07 0-2.75 5h1.09l.66-1.25h1.76l.16 1.25h.9l-.68-5H38.4Zm.66 3h-1.27l1.02-1.93.25 1.93Z" fill="#312267"/><path d="M32.09 37C20.99 37 13.4 38.1 11 38.66c29.9-1.18 32.98.3 36 1.34l-1.7-3H32.1Z" fill="#EE3237"/></svg>