<svg xmlns="http://www.w3.org/2000/svg" width="56" height="56"><path fill="#FFDF8F" d="M0 0h56v56H0z"/><circle cx="18.59" cy="34.95" r="1.04"/><circle cx="18.59" cy="33.21" r="1"/><circle cx="18.59" cy="31.45" r=".96"/><circle cx="18.59" cy="29.68" r=".93"/><circle cx="18.59" cy="27.93" r=".9"/><circle cx="18.59" cy="26.16" r=".86"/><circle cx="18.59" cy="24.4" r=".82"/><circle cx="18.59" cy="22.64" r=".79"/><circle cx="18.59" cy="20.88" r=".75"/><circle cx="18.59" cy="19.12" r=".72"/><circle cx="18.59" cy="17.36" r=".69"/><circle cx="18.59" cy="15.6" r=".65"/><circle cx="18.59" cy="13.84" r=".61"/><circle cx="20.68" cy="13.84" r=".61"/><circle cx="20.68" cy="12.08" r=".57"/><circle cx="20.68" cy="10.32" r=".54"/><circle cx="20.68" cy="8.53" r=".53" fill="#ED1C24"/><circle cx="35.32" cy="10.32" r=".54"/><circle cx="37.41" cy="10.32" r=".54"/><circle cx="24.86" cy="12.08" r=".57"/><circle cx="26.95" cy="12.08" r=".57"/><circle cx="35.32" cy="12.08" r=".57"/><circle cx="37.41" cy="12.08" r=".57"/><circle cx="24.86" cy="13.84" r=".61"/><circle cx="26.95" cy="13.84" r=".61"/><circle cx="35.32" cy="13.84" r=".61"/><circle cx="37.41" cy="13.84" r=".61"/><circle cx="20.68" cy="15.6" r=".65"/><circle cx="24.86" cy="15.6" r=".65"/><circle cx="26.95" cy="15.6" r=".65"/><circle cx="33.23" cy="15.6" r=".65"/><circle cx="35.32" cy="15.6" r=".65"/><circle cx="37.41" cy="15.6" r=".65"/><circle cx="20.68" cy="17.36" r=".69"/><circle cx="22.77" cy="17.36" r=".69"/><circle cx="24.86" cy="17.36" r=".69"/><circle cx="26.95" cy="17.36" r=".69"/><circle cx="33.23" cy="17.36" r=".69"/><circle cx="35.32" cy="17.36" r=".69"/><circle cx="37.41" cy="17.36" r=".69"/><circle cx="20.68" cy="19.12" r=".72"/><circle cx="22.77" cy="19.12" r=".72"/><circle cx="24.86" cy="19.12" r=".72"/><circle cx="26.95" cy="19.12" r=".72"/><circle cx="33.23" cy="19.12" r=".72"/><circle cx="35.32" cy="19.12" r=".72"/><circle cx="37.41" cy="19.12" r=".72"/><circle cx="20.68" cy="20.88" r=".75"/><circle cx="31.14" cy="20.88" r=".75"/><circle cx="22.77" cy="20.88" r=".75"/><circle cx="33.23" cy="20.88" r=".75"/><circle cx="24.86" cy="20.88" r=".75"/><circle cx="35.32" cy="20.88" r=".75"/><circle cx="26.95" cy="20.88" r=".75"/><circle cx="37.41" cy="20.88" r=".75"/><circle cx="20.68" cy="22.64" r=".79"/><circle cx="22.77" cy="22.64" r=".79"/><circle cx="24.86" cy="22.64" r=".79"/><circle cx="26.95" cy="22.64" r=".79"/><circle cx="29.05" cy="22.64" r=".79"/><circle cx="31.14" cy="22.64" r=".79"/><circle cx="33.23" cy="22.64" r=".79"/><circle cx="35.32" cy="22.64" r=".79"/><circle cx="37.41" cy="22.64" r=".79"/><circle cx="20.68" cy="24.4" r=".82"/><circle cx="22.77" cy="24.4" r=".82"/><circle cx="24.86" cy="24.4" r=".82"/><circle cx="26.95" cy="24.4" r=".82"/><circle cx="29.05" cy="24.4" r=".82"/><circle cx="31.14" cy="24.4" r=".82"/><circle cx="33.23" cy="24.4" r=".82"/><circle cx="35.32" cy="24.4" r=".82"/><circle cx="37.41" cy="24.4" r=".82"/><circle cx="20.68" cy="26.16" r=".86"/><circle cx="22.77" cy="26.16" r=".86"/><circle cx="24.86" cy="26.16" r=".86"/><circle cx="26.95" cy="26.16" r=".86"/><circle cx="29.05" cy="26.16" r=".86"/><circle cx="31.14" cy="26.16" r=".86"/><circle cx="33.23" cy="26.16" r=".86"/><circle cx="35.32" cy="26.16" r=".86"/><circle cx="37.41" cy="26.16" r=".86"/><circle cx="20.68" cy="27.93" r=".9"/><circle cx="22.77" cy="27.93" r=".9"/><circle cx="24.86" cy="27.93" r=".9"/><circle cx="26.95" cy="27.93" r=".9"/><circle cx="29.05" cy="27.93" r=".9"/><circle cx="31.14" cy="27.93" r=".9"/><circle cx="33.23" cy="27.93" r=".9"/><circle cx="35.32" cy="27.93" r=".9"/><circle cx="37.41" cy="27.93" r=".9"/><circle cx="20.68" cy="29.68" r=".93"/><circle cx="22.77" cy="29.68" r=".93"/><circle cx="24.86" cy="29.68" r=".93"/><circle cx="26.95" cy="29.68" r=".93"/><circle cx="29.05" cy="29.68" r=".93"/><circle cx="31.14" cy="29.68" r=".93"/><circle cx="33.23" cy="29.68" r=".93"/><circle cx="35.32" cy="29.68" r=".93"/><circle cx="37.41" cy="29.68" r=".93"/><circle cx="20.68" cy="31.45" r=".96"/><circle cx="22.77" cy="31.45" r=".96"/><circle cx="24.86" cy="31.45" r=".96"/><circle cx="26.95" cy="31.45" r=".96"/><circle cx="29.05" cy="31.45" r=".96"/><circle cx="31.14" cy="31.45" r=".96"/><circle cx="33.23" cy="31.45" r=".96"/><circle cx="35.32" cy="31.45" r=".96"/><circle cx="37.41" cy="31.45" r=".96"/><circle cx="20.68" cy="33.21" r="1"/><circle cx="22.77" cy="33.21" r="1"/><circle cx="24.86" cy="33.21" r="1"/><circle cx="26.95" cy="33.21" r="1"/><circle cx="29.05" cy="33.21" r="1"/><circle cx="31.14" cy="33.21" r="1"/><circle cx="33.23" cy="33.21" r="1"/><circle cx="35.32" cy="33.21" r="1"/><circle cx="37.41" cy="33.21" r="1"/><circle cx="26.95" cy="34.95" r="1.04"/><circle cx="20.68" cy="34.95" r="1.04"/><circle cx="29.05" cy="34.95" r="1.04"/><circle cx="22.77" cy="34.95" r="1.04"/><circle cx="31.14" cy="34.95" r="1.04"/><circle cx="35.32" cy="34.95" r="1.04"/><circle cx="24.86" cy="34.95" r="1.04"/><circle cx="33.23" cy="34.95" r="1.04"/><circle cx="37.41" cy="34.95" r="1.04"/><path d="M15.96 39.55a1.64 1.64 0 00-.65-.89 1.87 1.87 0 00-1.1-.34c-.29 0-.51.07-.68.2a.67.67 0 00-.25.55c0 .17.1.33.28.48.18.15.48.31.9.48.72.3 1.22.57 1.5.8.27.24.4.51.4.82 0 .42-.19.74-.58.98-.4.25-.92.37-1.6.37a2.89 2.89 0 01-1.06-.2.65.65 0 00-.35-.06.32.32 0 00-.23.17l-.03.09h-.24L12 41.42h.24c.15.37.4.68.77.91.36.24.75.36 1.18.36.36 0 .66-.08.87-.23a.75.75 0 00.32-.64c0-.17-.1-.35-.34-.52a5.7 5.7 0 00-1.13-.57 4.77 4.77 0 01-1.24-.7c-.27-.23-.4-.47-.4-.71 0-.38.16-.7.49-.94a2.1 2.1 0 011.27-.38c.39 0 .76.08 1.11.21a.58.58 0 00.32.03.35.35 0 00.23-.13l.07-.11H16l.2 1.55h-.24zM20.32 43a3.6 3.6 0 01-2.28-.7 2.18 2.18 0 01-.9-1.8c0-.72.3-1.32.9-1.79a3.6 3.6 0 012.28-.7c.94 0 1.7.24 2.3.7.58.47.88 1.07.88 1.8s-.3 1.33-.89 1.8c-.6.46-1.35.69-2.29.69zm0-.3c.63 0 1.12-.2 1.48-.6.36-.39.55-.92.55-1.6 0-.66-.19-1.2-.55-1.59-.36-.4-.85-.59-1.48-.59-.61 0-1.1.2-1.47.59-.36.4-.54.93-.54 1.6s.18 1.2.54 1.6c.36.39.86.58 1.47.58zm4.68-.77v-2.85c0-.74-.3-.86-1-.9V38h2.6c.84 0 2.64.23 2.64 1.39 0 .39-.23.7-.7.93a2.22 2.22 0 01-.32.12c.2.06.38.12.54.2.54.24.81.56.81.95 0 1.34-2.04 1.41-2.97 1.41H24v-.17c.7-.04 1-.16 1-.9zm1-3.2v1.57h.69c.59 0 1.56-.17 1.56-.94 0-.69-.9-1.04-1.46-1.04h-.2c-.3 0-.59.05-.59.41zm0 1.9v1.6c0 .38.24.41.57.41h.1c.66 0 1.74-.17 1.74-1.02 0-.65-.6-.99-1.73-.99H26zm5 1.3v-2.86c0-.78-.27-.87-1-.9V38h3v.17c-.51.03-1 .05-1 .64v1.55h3V38.8c0-.57-.5-.61-1-.64V38h3v.17c-.66.03-1 .23-1 .9v2.86c0 .67.34.87 1 .9V43h-3v-.17c.5-.03 1-.07 1-.64v-1.53h-3v1.53c0 .59.49.61 1 .64V43h-3v-.17c.73-.03 1-.12 1-.9zm7.21.26L40.54 38h.23l2.4 4.31c.13.22.24.35.34.41.1.06.26.1.5.1V43h-2.43v-.17c.28 0 .46-.04.54-.12.08-.08.06-.21-.04-.4l-.53-.93h-2.4l-.4.74c-.14.24-.17.41-.08.52.08.11.3.17.63.19V43h-1.98v-.17c.24-.03.4-.08.51-.16.1-.07.23-.23.38-.48zm2.13-3.02l-1.01 1.9h2.05l-1.04-1.9z"/></svg>