<svg width="56" height="56" viewBox="0 0 56 56" xmlns="http://www.w3.org/2000/svg"><path fill="#F0F3FA" d="M0 0h56v56H0z"/><path d="M11 22.27v1.2c-.5-.1-2.06-.28-3.18-.28-1.39 0-2.46.36-2.46 1.81 0 1.45 1.76 1.74 2.68 1.9.92.18 2.96.58 2.96 2.67C11 32.49 9.43 33 7.68 33c-1.41 0-3.12-.18-3.68-.27v-1.2c.66.1 2.46.28 3.38.28 1.15 0 2.26-.41 2.26-1.98S7.09 27.9 6.69 27.8C6.29 27.7 4 27.47 4 25 4 22.52 5.73 22 7.43 22c1.36 0 3.04.18 3.57.27Z" fill="#4F5150"/><path fill-rule="evenodd" d="M15 33c2.47 0 3-1.8 3-4s-.57-4-3-4-3 1.8-3 4 .53 4 3 4Zm0-1c1.4 0 1.7-1.34 1.7-3s-.32-3-1.7-3-1.7 1.34-1.7 3 .3 3 1.7 3Z" fill="#4F5150"/><path d="M19 24.37v-.19c-.03-.72.36-2.18 2.15-2.18.54 0 1.1.13 1.3.19v1.08l-.08-.04c-.16-.08-.47-.23-.9-.23-.66 0-1.18.27-1.18 1.18v.92L19 24.37Zm0 4.47V33h1.3v-4.9l-1.3.74ZM24 29v1.82c-.03.72.36 2.18 2.15 2.18.54 0 1.1-.13 1.3-.19v-1.08l-.08.04c-.16.08-.47.23-.9.23-.66 0-1.18-.27-1.18-1.18v-2.55l-1.29.72Zm0-4.48V22h1.3v3.27l-1.3-.75ZM27 22v1.33h3V33h1.37v-9.67h3.1V22H27Z" fill="#4F5150"/><path d="M38.94 29.44h-4.5c-.09.8-.04 2.4 1.57 2.4 1.6 0 2.46-.1 2.7-.14v1c-.45.1-1.6.3-2.7.3-1.39 0-3.01-.56-3.01-3.94S34.62 25 36.16 25s3.17.89 2.78 4.44Zm-4.53-.98h3.3c.04-.82-.23-2.46-1.65-2.46s-1.7 1.64-1.65 2.46ZM45 26.32v-1.07c-1.96-.43-5-.8-5 3.44S41.71 33 42.9 33c.95 0 1.8-.13 2.1-.19V31.7c-.28.05-1.03.14-1.76.14-1.77 0-2-1.22-2-3.3 0-2.09 1.27-2.36 2.1-2.36.68 0 1.39.1 1.66.15ZM47.3 22H46v11h1.3v-6.3a5.6 5.6 0 0 1 2.05-.46c1.18 0 1.37 1.14 1.35 1.72V33H52v-5.18c0-1.9-1-2.82-2.32-2.82-.95 0-1.9.34-2.38.56V22Z" fill="#4F5150"/><path d="m22 26.68-3 1.72v-3.44l3 1.72Z" fill="#228CD0"/><path d="m27 26.68-3 1.72v-3.44l3 1.72Z" fill="#25B472"/></svg>