<svg xmlns="http://www.w3.org/2000/svg" width="56" height="56"><path fill="#F0F3FA" d="M0 0h56v56H0z"/><path d="M16 33V12h17s-3.5.84-3.5 4.97c0 4.5 5.5 7.06 5.5 11.85C35 33 29.5 33 29.5 33H16z" fill="#A11E22"/><path d="M40 13v7s-2.5-4-4.5-4c-.76-.07-1.5.64-1.5 1.45 0 1.55 3.82 3.62 5.87 6.07 1.48 1.76 3.13 4.34 3.13 7.67-.2 4.4-3.5 6.81-8 6.81H16v-4h14.28S36 33.74 36 28.78c0-6.19-7-7.56-5.19-13.72.58-1.95 2.79-3.06 5-3.06 1.38 0 2.85.33 4.19 1z" fill="#A11E22"/><path d="M16 43.8v-1.51c.25.35.76.52 1.06.52a.4.4 0 00.27-.09c.07-.06.1-.13.1-.22 0-.13-.07-.26-.22-.38l-.21-.16a4.04 4.04 0 01-.36-.32 1.61 1.61 0 01-.38-.67 1.6 1.6 0 01-.04-.37 1.83 1.83 0 01.33-1.02c.07-.1.15-.18.24-.25.24-.21.53-.33.88-.33.3 0 .61.1.92.26v1.47c-.1-.16-.22-.3-.36-.39a.68.68 0 00-.4-.14.32.32 0 00-.23.09.26.26 0 00-.1.2c0 .13.08.26.26.39l.2.15c.27.2.47.4.58.6.12.21.18.46.18.74 0 .47-.14.86-.43 1.17-.28.3-.64.46-1.08.46-.3 0-.86-.07-1.21-.2zm8-2.27c0 .73-.16 1.33-.5 1.78a1.5 1.5 0 01-1.28.69 1.6 1.6 0 01-1.2-.53c-.42-.44-.63-1.1-.63-2 0-.85.22-1.5.65-1.95.33-.33.72-.52 1.17-.52.54 0 .98.25 1.3.7.33.45.5 1.06.5 1.83zm-1.33 0c0-.86-.15-1.3-.46-1.3-.15 0-.27.12-.36.34-.09.22-.13.53-.13.94 0 .4.04.72.12.94.08.22.2.34.35.34.15 0 .27-.11.35-.33.08-.22.13-.53.13-.92zM28.32 44H26v-5h1.33v4h.99v1zm5.85 0h-1.36l-.1-.63h-.9l-.1.63h-1.37l1.18-5h1.62l1.03 5zm-1.62-1.68l-.08-.57-.01-.08a32.23 32.23 0 00-.09-.7l-.02-.24-.04-.46-.02.15-.03.18a44.68 44.68 0 01-.04.36l-.1.6-.12.76h.55zM39.48 44h-1.43l-.66-1.85-.03-.12-.06-.17.01.32V44H36v-5h1.35c.6 0 1.04.12 1.34.35.37.3.56.73.56 1.28 0 .6-.25 1-.76 1.23l.99 2.14zm-2.16-2.73h.09c.15 0 .28-.06.38-.18.1-.12.15-.26.15-.44 0-.37-.2-.55-.57-.55h-.05v1.17z"/></svg>