<svg xmlns="http://www.w3.org/2000/svg" width="56" height="56"><path fill="#F0F3FA" d="M0 0h56v56H0z"/><path d="M33 18.12c0 1.74-1.54 3.92-2.3 4.79l-.63-.36c.12-3.55-1.67-5.45-2.59-5.96 1.25 1.73 1.6 4.56 1.62 5.76a9.6 9.6 0 00-2.32 0 24.35 24.35 0 00-2.52-2.46c-3.7-3.04-3.94-6.53-3.6-7.89.7 1 3.19 1.87 4.35 2.18 1.62.43 4 1.16 5.06 1.5.21-.46.09-1.37 0-1.77.8.27 2.92 2.03 2.92 4.2z" fill="url(#a0tpgpulv)"/><path d="M21.92 18.78c1.5.87 2.63 3.28 3 4.38l-.62.36c-3.01-1.87-5.56-1.27-6.46-.73 2.13-.21 4.75.9 5.8 1.47a9.6 9.6 0 00-1.15 2c-.56.08-2.46.62-3.39.97-4.48 1.7-7.62.16-8.63-.82 1.21-.09 3.2-1.82 4.05-2.67a111.51 111.51 0 013.83-3.64c-.3-.42-1.15-.76-1.54-.88.64-.57 3.22-1.53 5.1-.44z" fill="url(#b0tpgpulv)"/><path d="M34.08 37.26c-1.51-.87-2.63-3.28-3-4.38l.62-.37c3.01 1.88 5.56 1.27 6.46.73-2.13.22-4.75-.88-5.8-1.46a9.62 9.62 0 001.15-2.01c.56-.07 2.46-.61 3.39-.96 4.48-1.7 7.62-.16 8.63.82-1.21.09-3.2 1.82-4.05 2.67a111.4 111.4 0 01-3.83 3.63c.3.42 1.15.77 1.54.89-.64.57-3.22 1.52-5.1.44z" fill="url(#c0tpgpulv)"/><path d="M39.1 27.36c-1.5.88-4.16.66-5.3.44v-.73c3.12-1.68 3.86-4.2 3.84-5.24-.87 1.95-3.13 3.68-4.15 4.3a9.62 9.62 0 00-1.17-2c.21-.52.69-2.42.84-3.4.76-4.74 3.65-6.7 5-7.1-.52 1.1-.01 3.7.31 4.85.45 1.62 1.02 4.05 1.25 5.13.52-.05 1.24-.62 1.54-.9.17.84-.28 3.55-2.16 4.65z" fill="url(#d0tpgpulv)"/><path d="M23.01 37.88c0-1.74 1.52-3.92 2.28-4.8l.63.36c-.11 3.55 1.69 5.45 2.6 5.96-1.25-1.73-1.6-4.56-1.63-5.76a9.62 9.62 0 002.32 0c.34.44 1.75 1.81 2.52 2.44 3.72 3.03 3.97 6.52 3.62 7.88-.68-1-3.18-1.86-4.34-2.16a111.45 111.45 0 01-5.07-1.5c-.21.47-.08 1.38 0 1.78-.8-.27-2.92-2.02-2.93-4.2z" fill="url(#e0tpgpulv)"/><path d="M16.9 28.67c1.5-.88 4.16-.65 5.3-.43v.73c-3.13 1.68-3.87 4.19-3.85 5.24.87-1.96 3.14-3.68 4.16-4.3a9.61 9.61 0 001.17 2c-.22.52-.7 2.43-.85 3.4-.76 4.74-3.65 6.7-5 7.1.52-1.1.01-3.7-.3-4.86a111.56 111.56 0 01-1.25-5.13c-.52.05-1.24.62-1.54.9-.17-.84.28-3.55 2.16-4.65z" fill="url(#f0tpgpulv)"/><defs><linearGradient id="a0tpgpulv" x1="20.55" y1="12.52" x2="32.56" y2="19.35" gradientUnits="userSpaceOnUse"><stop stop-color="#E0B054"/><stop offset="1" stop-color="#D17522"/></linearGradient><linearGradient id="b0tpgpulv" x1="10.86" y1="26.77" x2="22.77" y2="19.77" gradientUnits="userSpaceOnUse"><stop stop-color="#E0B054"/><stop offset="1" stop-color="#D17522"/></linearGradient><linearGradient id="c0tpgpulv" x1="45.14" y1="29.27" x2="33.23" y2="36.27" gradientUnits="userSpaceOnUse"><stop stop-color="#76B432"/><stop offset="1" stop-color="#619637"/></linearGradient><linearGradient id="d0tpgpulv" x1="37.66" y1="13.8" x2="37.82" y2="27.61" gradientUnits="userSpaceOnUse"><stop stop-color="#76B432"/><stop offset="1" stop-color="#619637"/></linearGradient><linearGradient id="e0tpgpulv" x1="35.47" y1="43.45" x2="23.44" y2="36.65" gradientUnits="userSpaceOnUse"><stop stop-color="#76B432"/><stop offset="1" stop-color="#619637"/></linearGradient><linearGradient id="f0tpgpulv" x1="18.33" y1="42.24" x2="18.18" y2="28.43" gradientUnits="userSpaceOnUse"><stop stop-color="#E0B054"/><stop offset="1" stop-color="#D17522"/></linearGradient></defs></svg>