<svg xmlns="http://www.w3.org/2000/svg" width="56" height="56"><path fill="#F0F3FA" d="M0 0h56v56H0z"/><path d="M46 39H10V27.67h36V39zm-35.68-.33h35.36V28H10.32v10.67z"/><path d="M13 29h1v7h-1v-7zm4 0h1v7h-1v-7zm4 0h1v7h-1v-7zm4 0h1v7h-1v-7zm4 0h1v7h-1v-7zm4 0h1v7h-1v-7zm4 0h1v7h-1v-7zm4 0h1v7h-1v-7z"/><path d="M42 38.94h-.32V29H42v9.94zm-4 0h-.32V29H38v9.94zm-4 0h-.32V29H34v9.94zm-4 0h-.32V29H30v9.94zm-4 0h-.32V29H26v9.94zm-4 0h-.32V29H22v9.94zm-4 0h-.33V29H18v9.94zm-4 0h-.32V29H14v9.94z"/><path d="M10 18h36v10H10V18z" fill="#ED1C24"/><path d="M13.6 22.3c-.47-.27-.84-.55-.84-1.07 0-.58.44-.94.94-.94.97 0 1.1.75 1.2 1.19h.2c0-.22 0-.92-.08-1.2a2.38 2.38 0 00-1.18-.28c-.92 0-1.8.44-1.8 1.5 0 .66.46 1.2.95 1.46l.55.3c.67.31 1.2.75 1.2 1.38 0 .68-.44 1.07-1.03 1.07-1.18 0-1.5-1.03-1.6-1.66l-.27.07c0 .55.12 1.2.27 1.53.27.17.68.35 1.36.35.9 0 1.98-.45 1.98-1.63 0-1.04-.7-1.4-1.38-1.8l-.48-.27zm5.64 3.7c1.7 0 3.08-1.14 3.08-3.05C22.32 21.02 21 20 19.4 20c-1.66 0-3.1 1.17-3.1 3.04 0 1.88 1.24 2.96 2.94 2.96zm-2.03-3.12c0-1.5.76-2.6 2.05-2.6 1.35 0 2.16 1.25 2.16 2.9 0 1.26-.55 2.53-2.02 2.53-1.3 0-2.2-1.06-2.2-2.83zM22.7 20h1.55l3.48 4.43V21c0-.35-.04-.58-.12-.66-.1-.12-.27-.18-.49-.18h-.2V20h1.99v.16h-.2c-.24 0-.42.07-.52.22-.06.09-.09.3-.09.62v5h-.48l-3.43-4.79v3.8c0 .35.04.57.11.65.11.12.28.18.5.18h.2V26h-1.99v-.16h.2c.25 0 .42-.07.52-.22.06-.09.1-.3.1-.62v-4.24a2.63 2.63 0 00-.38-.39 1.38 1.38 0 00-.38-.17 1.37 1.37 0 00-.37-.04V20zm6.22 6h1.8v-.2l-.51-.06c-.1-.01-.2-.04-.2-.2 0-.07.06-.3.17-.58l.43-1.21a5.3 5.3 0 01.9-.09c.33 0 .64.03.96.09l.6 1.64c.02.06.06.12.06.18 0 .1-.12.14-.27.17l-.39.07V26h2.14v-.2l-.35-.04c-.22-.05-.3-.25-.44-.6L31.91 20l-.24.09-.21.51-1.8 4.53c-.2.5-.24.6-.57.65l-.16.03V26zm2.62-4.82l.8 2.24a6.6 6.6 0 00-.83-.05c-.26 0-.53.03-.79.05l.82-2.24zM35.11 26h2.38v-.2l-.3-.02c-.49-.03-.49-.08-.49-1.14v-4.4h.45c1.21 0 1.23.13 1.42 1.14h.2l.02-.38c0-.4-.06-.8-.1-1H33.9c-.03.2-.1.6-.1 1l.02.38h.21c.2-1 .2-1.14 1.42-1.14h.45v4.4c0 1.06 0 1.1-.47 1.14l-.32.03V26zm2.91 0h1.81v-.2l-.51-.06c-.1-.01-.2-.04-.2-.2 0-.07.06-.3.16-.58l.44-1.21a5.31 5.31 0 011.86 0l.6 1.64c.02.06.05.12.05.18 0 .1-.1.14-.26.17l-.39.07V26h2.14v-.2l-.35-.04c-.22-.05-.3-.25-.44-.6L41.01 20l-.25.09-.2.51-1.8 4.53c-.2.5-.24.6-.57.65l-.17.03V26zm2.63-4.82l.8 2.24a6.6 6.6 0 00-.83-.05c-.26 0-.53.03-.79.05l.82-2.24z" fill="#fff"/></svg>