<svg width="56" height="56" viewBox="0 0 56 56" xmlns="http://www.w3.org/2000/svg"><path fill="#F0F3FA" d="M0 0h56v56H0z"/><path d="M12 22.4h-1.6v-1.6h-.8v1.3c0 .2.07.38.2.52l2 2.36c.13.14.2.32.2.52v1.3c0 .4-.4 1.2-2 1.2-1.28 0-1.87-.8-2-1.2v-1.2h1.6v1.6h.8v-1.3a.8.8 0 0 0-.2-.52l-2-2.36a.8.8 0 0 1-.2-.52v-1.3c.13-.4.72-1.2 2-1.2s1.87.8 2 1.2v1.2ZM45 23.8h-1.6v-1.2h-.8v.98c0 .14.07.28.2.39l2 1.76c.13.11.2.25.2.4v.97c0 .3-.4.9-2 .9-1.28 0-1.87-.6-2-.9v-.9h1.6v1.2h.8v-.98a.52.52 0 0 0-.2-.39l-2-1.76a.52.52 0 0 1-.2-.4v-.97c.13-.3.72-.9 2-.9s1.87.6 2 .9v.9Z" fill="#2F3093"/><path fill-rule="evenodd" d="M13 23.5c0-.75.4-1.5 2-1.5 2 0 2 1.13 2 1.5v3.38c0 .37-.4 1.12-2 1.12s-2-.75-2-1.13V23.5Zm1.5 3.75v-4.5h1v4.5h-1Z" fill="#2F3093"/><path d="M19 22h-2v.38h.42v4.5c0 .9.83 1.12 1.25 1.12H22v-.38h-.42V22H19.5v.38h.5v5.25h-1V22ZM32.88 20H30l.82.8.42 7.2h2.05v-4h.42l.4 4h1.65l.83-7.2.41-.8h-2.06v.4h.41V24l-.82-4h-1.24l-.4 4.8-.42-1.2v-2.8l.41-.8ZM45.43 20.4V22H45v.4h.43v4.4c0 .96.86 1.2 1.28 1.2H48v-.4h-1v-5.2h1V22h-1v-2l-1.57.4Z" fill="#2E3192"/><path fill-rule="evenodd" d="M38.4 25.38h2.1V23.5c0-.38-.28-1.5-1.4-1.5h-.7c-.7 0-1.4.6-1.4 1.5v3c0 .5.35 1.5 1.75 1.5s1.75-1 1.75-1.5v-.38H39v1.13h-.6v-1.88Zm0-.38h.6v-1.57c0-.26 0-.68-.25-.68-.28 0-.35.5-.35.75V25ZM43.6 33.38H46V31.5c0-.38-.32-1.5-1.6-1.5h-.8c-.8 0-1.6.6-1.6 1.5v3c0 .5.4 1.5 2 1.5s2-1 2-1.5V34h-1.6v1.25h-.8v-1.88Zm0-1.88V33h.8v-1.5c0-.25-.08-.75-.4-.75s-.4.5-.4.75Z" fill="#2E3192"/><path d="M10 29h3.57c.6 0 1.43.16 1.43.78v2.33c0 .26-.29.78-1.43.78H12v2.72h.86V36H10v-.39h.57V29.4H10V29Zm2 3.5h1.57v-3.11H12v3.11ZM15.5 30v-1h2v1h-2ZM17.5 30.43h-2.08v.43H16v4.71h-1V36h5.83v-.43H20v-5.14h1.5V36h5.17v-.43H26v-5.14h1.5V36H30l-1-1.29v-3.85c0-.69-.56-.86-.83-.86H24v.43h.33v5.14H23v-4.71c0-.69-.39-.86-.67-.86H18v.43h.33v5.14h-.83v-5.14Z" fill="#2E3192"/><path fill-rule="evenodd" d="M30 30.86v.85h1.67v-.85c0-.15.08-.43.41-.43.34 0 .42.28.42.43v1.28h-.83c-.56 0-1.67.26-1.67 1.29v1.71c0 .29.25.86 1.25.86H35v-.43h-1v-4.71c0-.29-.17-.86-.83-.86h-2.34c-.27 0-.83.17-.83.86Zm2.5 4.71v-3h-.83v3h.83Z" fill="#2E3192"/><path d="M39 31.71h-1.6v-.85c0-.15-.08-.43-.4-.43s-.4.28-.4.43v4.28c0 .15.08.43.4.43s.4-.28.4-.43v-1.71H39v1.71a.8.8 0 0 1-.8.86h-2c-.96 0-1.2-.57-1.2-.86v-4.28a.8.8 0 0 1 .8-.86h2.4c.64 0 .8.57.8.86v.85Z" fill="#2E3192"/><path d="M41.57 29H39v.39h1v6.22h-1V36h3v-.39h-.43V29ZM24 20l-1.61.4V22H22v.4h.39v4c0 1.28.78 1.6 1.17 1.6h3.1v-5.6H27V28h2v-.4h-.39v-4.4c0-.96-.78-1.2-1.17-1.2h-.77v-2h-1.95v.4H25v7.2h-1v-5.2h.72V22H24v-2Z" fill="#2E3192"/></svg>