<svg width="56" height="56" viewBox="0 0 56 56" xmlns="http://www.w3.org/2000/svg"><path fill="#F0F3FA" d="M0 0h56v56H0z"/><path d="M34.51 17c-1.18.31-3.57 1.4-4.33 3.4-.1.24.09.48.31.4 1.48-.49 3.25-2.67 4.02-3.8Zm-11.66 5.2c-1.46-2.41-4.87-3.19-6.51-3.27 1.27 1.29 4.11 3.67 6.18 3.9.32.04.5-.33.33-.62ZM8.28 23.9c3.02-1.15 9.7-2.45 13.89.77.51.4.4 1.2-.19 1.4-3.89 1.21-10.57-.85-13.7-2.17Zm15.34 3.2c-6.38-.65-12.96 5.34-15.62 8.67 4.16-.7 12.61-3.01 16.2-7.01.54-.62.2-1.58-.58-1.65Zm6.9.56C36.83 28.9 41.7 37.01 43.47 41 32.79 36.03 31.9 34.4 29.4 29.5c-.38-.76.36-2 1.12-1.85Zm2.84-6.29c2.25-2.6 6.57-2.72 8.58-2.43-1.8 1.27-5.74 3.49-8.3 3.27-.4-.03-.56-.52-.28-.84ZM50 26.62c-2.97-1.8-9.8-4.57-14.89-2.35-.62.27-.67 1.08-.07 1.4 3.88 2.07 11.38 1.54 14.96.95Z" fill="#FF9835"/></svg>