<svg xmlns="http://www.w3.org/2000/svg" width="56" height="56"><path fill="#F0F3FA" d="M0 0h56v56H0z"/><path d="M4 28a5 5 0 015-5h43v5a5 5 0 01-5 5H4v-2.5h9v2h1v-2h32.75c.14 0 .25-.11.25-.25a.25.25 0 00-.25-.25H45.7c.38-.4.44-.92.44-1.08v-.04c0-.3.01-1.2-1.54-1.8-.27-.1-.66-.32-.66-.64 0-.38.36-.46.52-.46.07 0 .47.07.55.46l.95-.46c-.13-.3-.6-.96-1.5-.96-1.11 0-1.58.76-1.58 1.54 0 .8.61 1.17 1.4 1.58.57.29.73.56.73.84a.6.6 0 01-.62.56c-.44 0-.88-.36-1-.62l-.95.38c.06.18.23.46.53.7H40v-2.84c.14-1.19 1.05-1.27 1.47-1l.53-.84a1.1 1.1 0 00-.85-.32c-.43.03-.98.4-1.15.57V25h-1v5h-1.72c.36-.28.64-.65.83-1.1l-.8-.34a1.68 1.68 0 01-1.4 1.09c-1.16-.04-1.5-1.07-1.52-1.58h3.93l.02-.32c0-1.52-1.12-2.75-2.5-2.75-1.37 0-2.48 1.23-2.48 2.75 0 .93.42 1.75 1.06 2.25h-1.43v-1.03a2 2 0 01-1.42.57c-1.06 0-1.92-.8-1.92-1.76 0-.97.86-1.76 1.92-1.76a2 2 0 011.42.57v-1.24a3.06 3.06 0 00-1.43-.35c-1.61 0-2.92 1.23-2.92 2.74 0 .94.5 1.77 1.26 2.26H28v-3.07c-.04-1.49-.86-1.95-1.64-1.93-.62.01-1.2.4-1.36.59V25h-1v5h-1.36c.35-.28.64-.65.83-1.1l-.8-.34a1.68 1.68 0 01-1.4 1.09c-1.17-.04-1.5-1.07-1.52-1.58h3.93l.02-.32c0-1.52-1.12-2.75-2.5-2.75-1.37 0-2.48 1.23-2.48 2.75 0 .93.41 1.75 1.05 2.25h-2.49a2.84 2.84 0 001.06-2.25c0-1.52-1.1-2.75-2.47-2.75-.75 0-1.42.37-1.87.94V25h-1v5h-.76c.4-.4.46-.94.46-1.1v-.04c0-.3.01-1.2-1.54-1.79-.27-.1-.66-.33-.66-.64 0-.38.36-.47.52-.47.07 0 .47.07.55.47l.95-.47c-.13-.3-.6-.96-1.5-.96-1.1 0-1.58.76-1.58 1.54 0 .8.61 1.17 1.4 1.58.57.3.73.57.73.84a.6.6 0 01-.62.56c-.44 0-.88-.35-1-.62l-.95.38c.07.19.24.48.55.72H4v-2zm10 2h.45a2.6 2.6 0 01-.45-.45V30zm11 0h2v-3.07c-.02-.28-.27-.92-.93-.93-.82-.02-1.07.93-1.07 1.4V30zm-7.73-2.19c0 1-.72 1.81-1.6 1.81-.88 0-1.6-.8-1.6-1.8s.72-1.82 1.6-1.82c.88 0 1.6.81 1.6 1.81zm2.45-.54c.09-.42.53-1.24 1.54-1.24 1 0 1.39.82 1.46 1.24h-3zm16.18-1.24c-1.01 0-1.45.82-1.54 1.24h3a1.46 1.46 0 00-1.46-1.24zM43.49 24h-1l-.27 1h.65l.62-1z" fill="#F68B33"/></svg>