<svg width="56" height="56" viewBox="0 0 56 56" xmlns="http://www.w3.org/2000/svg"><path fill="#F0F3FA" d="M0 0h56v56H0z"/><path d="m41.88 18.5-21.4.01a.22.22 0 0 0-.17.08 5.7 5.7 0 0 0-1.28 2.01 4.36 4.36 0 0 0-.19 1.95c.07.57.25 1.2.53 1.9.18.43.48 1.07.91 1.92.32.63.56 1.11.7 1.43.25.54.44 1.03.57 1.48.39 1.26.37 2.5-.05 3.68a8.54 8.54 0 0 1-2.07 3.09c-.74.74-1.48 1.37-2.21 1.88-.13.09-.11.13.04.13h9.16a.3.3 0 0 0 .2-.08c.72-.65 1.34-1.35 1.89-2.1.59-.82.95-1.61 1.08-2.38.12-.69.06-1.37-.18-2.06a7.03 7.03 0 0 0-1.03-1.82c-.29-.38-.77-.95-1.43-1.68-.71-.8-1.21-1.4-1.5-1.8a5.16 5.16 0 0 1-.9-1.89c-.15-.7-.06-1.4.26-2.1a7.61 7.61 0 0 1 1.99-2.42c.07-.06.15-.09.24-.09h7.12c.07 0 .12.03.15.1.49 1.23 1.48 1.92 2.98 2.09.77.08 1.7-.18 2.82-.78.82-.44 1.65-1.01 2.5-1.72a16.96 16.96 0 0 1-.65 18.38 16.82 16.82 0 0 1-9.51 6.7 17.14 17.14 0 0 1-17.29-5.21 17.02 17.02 0 0 1-4.08-12.78c.22-2.4.92-4.68 2.1-6.8.07-.12.17-.17.3-.15h5.43c.07 0 .1-.03.1-.09v-1.19c0-.08-.05-.13-.14-.13h-4.64a16 16 0 0 1 4.77-4.5 17.31 17.31 0 0 1 6.15-2.31 16.83 16.83 0 0 1 12.1 2.52 17.58 17.58 0 0 1 4.74 4.56c.04.07.04.13 0 .19-.01.01-.05 0-.1-.01Z" fill="#0D1A93"/><path d="M41.88 18c.23.12.47.4.72.84-.84.73-1.67 1.31-2.49 1.77a4.97 4.97 0 0 1-2.82.79c-1.5-.17-2.5-.89-2.98-2.14a.15.15 0 0 0-.15-.1h-7.12c-.1 0-.17.03-.24.1a7.76 7.76 0 0 0-1.99 2.48c-.32.7-.4 1.42-.26 2.14.12.6.42 1.23.9 1.92.29.42.79 1.03 1.5 1.84.66.76 1.14 1.33 1.43 1.73.48.66.82 1.28 1.03 1.86.24.7.3 1.4.18 2.1-.13.79-.5 1.6-1.08 2.44-.55.76-1.17 1.48-1.88 2.15a.3.3 0 0 1-.21.08h-9.16c-.15 0-.17-.05-.04-.13.73-.53 1.47-1.17 2.2-1.93 1.01-1.04 1.7-2.1 2.08-3.16a6 6 0 0 0 .05-3.77c-.13-.45-.32-.95-.57-1.5-.14-.33-.38-.82-.7-1.47-.43-.87-.73-1.52-.9-1.95a7.78 7.78 0 0 1-.54-1.96c-.08-.7-.02-1.36.2-1.99.23-.7.66-1.39 1.27-2.06.04-.05.1-.07.17-.07l21.4-.01Z" fill="#F0F3FA"/><path d="M38.07 20.62a.53.53 0 1 0 0-1.05.53.53 0 0 0 0 1.05Z" fill="#0D1A93"/><path d="M28.72 37.89a9.28 9.28 0 0 0 1.71-4.84 6.97 6.97 0 0 0-1.8-4.7c-.42-.5-1.05-1.26-1.87-2.28l-.18-.22a3.88 3.88 0 0 1-.8-1.56 2.17 2.17 0 0 1 .24-1.67c.37-.6.83-1.11 1.38-1.54a.4.4 0 0 1 .25-.08h3.92c.13 0 .15.04.07.13-.69.8-.93 1.63-.74 2.52.17.75.64 1.5 1.41 2.28a74.39 74.39 0 0 0 3.38 3.15c.63.56 1.18 1.14 1.66 1.74.57.72.97 1.4 1.2 2.06.31.88.33 1.77.04 2.67a6.52 6.52 0 0 1-1.4 2.35.3.3 0 0 1-.24.1h-8.17a.07.07 0 0 1-.07-.04.07.07 0 0 1 0-.07Z" fill="#F0F3FA"/></svg>