<svg width="56" height="56" viewBox="0 0 56 56" xmlns="http://www.w3.org/2000/svg"><path fill="#F0F3FA" d="M0 0h56v56H0z"/><path d="M32.24 31.24 24 15l8.21 9.14c.5.55 1.35.58 1.88.07L43 15.58l-7.82 11.83L36.82 40l-4.58-8.76Z" fill="#FBCD06"/><path d="M47 26.44v2.09c0 1.51 0 2.33.32 2.55.26.17.66.26 1.85.26.8 0 1.76-.02 2.14-.34.19-.15.37-.6.4-.82.01-.1.04-.18.17-.18.1 0 .12.06.12.2 0 .13-.1 1.14-.23 1.48-.1.26-.17.32-.96.32h-6.82c-.2 0-.3-.04-.3-.12 0-.06.06-.1.24-.1.23 0 .41-.02.55-.04.3-.05.38-.3.44-.65.08-.5.08-1.47.08-2.56v-2.1c0-1.8 0-2.13-.03-2.5-.03-.4-.15-.6-.66-.68a2.9 2.9 0 0 0-.5-.04c-.17 0-.26-.02-.26-.1 0-.09.1-.11.33-.11h4.26c.22 0 .32.02.32.1 0 .09-.09.11-.27.11-.17 0-.41.02-.6.04-.4.06-.53.26-.56.67-.03.38-.03.72-.03 2.52ZM27.26 30.84l1.44-7.54c.04-.2.13-.3.25-.3.11 0 .2.06.39.36l3.96 6.52 3.95-6.6c.12-.19.2-.28.32-.28.13 0 .22.12.26.36l1.33 7.15c.13.73.27 1.06.7 1.17.43.1.72.11.9.11.14 0 .24.01.24.08 0 .1-.17.13-.38.13h-2.95c-.33-.02-.42-.06-.42-.13 0-.06.06-.09.16-.12s.13-.18.08-.5l-.88-5.16h-.05l-3.17 5.26c-.33.55-.4.65-.54.65-.13 0-.27-.23-.5-.58-.35-.53-1.5-2.31-1.67-2.64l-1.51-2.56h-.06l-.76 4.6c-.03.2-.04.36-.04.54 0 .22.19.33.43.37.27.05.47.06.61.06.12 0 .22.02.22.08 0 .1-.13.13-.35.13h-2.96c-.14 0-.26-.02-.26-.13 0-.06.09-.08.23-.08.12 0 .22 0 .44-.03.4-.07.52-.52.6-.92ZM15 28.55v-2.1c0-1.8 0-2.14-.03-2.52-.03-.4-.15-.6-.63-.68a4.01 4.01 0 0 0-.6-.04c-.15 0-.24-.02-.24-.1 0-.09.1-.11.32-.11h4.45c1.3 0 3.73.36 3.73 2.1 0 1.69-1.8 2.9-3.87 2.9l-.31-.01c-.07-.01-.18-.03-.18-.1 0-.1.1-.14.41-.14.82 0 1.95-.76 1.95-1.98 0-.39-.03-1.2-.85-1.8a2.48 2.48 0 0 0-1.46-.46c-.22 0-.44.01-.57.05-.08.02-.12.1-.12.23v4.76c0 1.1 0 2.03.07 2.55.05.33.13.59.57.64.2.02.53.05.75.05.16 0 .23.03.23.1s-.11.11-.27.11H13.79c-.19 0-.29-.04-.29-.12 0-.06.06-.1.23-.1.22 0 .64-.02.77-.04.3-.05.37-.31.43-.66.07-.5.07-1.44.07-2.53ZM6.37 32c-.83 0-1.48-.08-2.1-.3-.23-.08-.27-.14-.27-.39 0-.63.06-1.32.07-1.5.02-.17.06-.3.17-.3.13 0 .15.1.15.2 0 .14.05.38.13.58.31.85 1.16 1.16 2.05 1.16 1.3 0 1.92-.7 1.92-1.31 0-.56-.21-1.09-1.4-1.84l-.66-.41c-1.58-.99-2.13-1.8-2.13-2.72C4.3 23.91 5.62 23 7.62 23c.93 0 1.53.11 1.9.2.14.02.2.05.2.13 0 .15-.05.43-.05 1.33 0 .25-.04.34-.16.34-.1 0-.14-.07-.14-.2 0-.11-.07-.41-.37-.71-.22-.22-.64-.56-1.57-.56-1.06 0-1.7.5-1.7 1.18 0 .53.32.93 1.51 1.65l.4.24C9.39 27.65 10 28.44 10 29.53c0 .67-.32 1.46-1.35 2-.72.37-1.52.47-2.28.47Z" fill="#007882"/></svg>