<svg width="56" height="56" xmlns="http://www.w3.org/2000/svg"><path fill="#F0F3FA" d="M0 0h56v56H0z"/><path d="M31.996 26.027c.102.01.176.072.255.121a5.849 5.849 0 002.614.896c.699.064 1.394.037 2.09-.036a18.291 18.291 0 002.126-.33 11.78 11.78 0 003.334-1.313A11.04 11.04 0 0044.18 24.1a9.036 9.036 0 002.084-2.637c.169-.324.317-.657.44-1.003.167-.466.05-.86-.272-1.208-.298-.323-.666-.544-1.033-.767a7.32 7.32 0 00-2.775-.98 9.534 9.534 0 00-1.976-.061c-.933.058-1.85.24-2.753.495-1.63.461-3.177 1.139-4.669 1.953a28.534 28.534 0 00-2.58 1.598c-.317.219-.622.455-.932.683a3.019 3.019 0 00-.092.07c-.07.056-.123.052-.168-.035-.052-.097-.113-.19-.17-.285-.074-.126-.073-.156.049-.24.253-.175.507-.349.767-.514 1.348-.853 2.703-1.696 4.032-2.58a19.145 19.145 0 013.303-1.787c.794-.327 1.61-.569 2.455-.702a7.666 7.666 0 011.709-.084 8.135 8.135 0 013.23.907c.393.203.722.49 1.022.813a7.81 7.81 0 011.487 2.316c.131.313.28.619.404.935a3.797 3.797 0 01-.072 2.93c-.364.845-.928 1.53-1.604 2.123-1.065.934-2.285 1.579-3.592 2.065-.912.339-1.85.566-2.808.703-.7.1-1.405.119-2.109.08a7.169 7.169 0 01-2.294-.534c-.479-.193-.962-.377-1.42-.62-.477-.252-.927-.547-1.302-.948a3.575 3.575 0 01-.545-.759z" fill="#0095DA"/><path d="M33.9 34h-2.555c-.274 0-.348.014-.348.298v1.395c0 .306-.001.306-.315.306-.513 0-.953.002-1.467 0-.196 0-.213-.015-.213-.21a609.17 609.17 0 010-3.228c.002-.292.123-.539.33-.746.271-.272.605-.445.96-.576.325-.119.66-.182 1.007-.213.26-.024.518-.025.778-.025 1.54-.002 3.081 0 4.622 0 .3 0 .3 0 .3.302l.001.408c0 .294-.013.289-.301.289h-5.012c-.059 0-.117-.006-.175 0-.515 0-.535.604-.515.906.003.062.047.094.108.097a3.5 3.5 0 00.269-.003h5.321c.318 0 .302.008.302.332 0 .22.005.227.003.447-.002.218-.001.22-.216.22-.878.002-2.006.001-2.884.001z" fill="#000"/><path d="M21.691 23.584c.065-.096.126-.194.195-.286.496-.667 1.103-1.209 1.77-1.685.576-.411 1.169-.79 1.818-1.068a3.54 3.54 0 011.03-.271c.292-.03.572.037.819.2.433.286.858.586 1.206.985.36.413.651.873.897 1.364.26.518.506 1.044.75 1.57.34.736.722 1.447 1.25 2.062.245.286.527.53.814.768a9.735 9.735 0 001.819 1.216c.852.427 1.746.71 2.683.85.39.057.78.093 1.173.123.52.04 1.04.017 1.56.029.037 0 .074.005.115.007-.019.067-.07.063-.11.073-.715.181-1.436.332-2.171.403-.455.044-.91.084-1.367.069-1.2-.04-2.356-.278-3.429-.858a7.266 7.266 0 01-2.113-1.747c-.753-.895-1.33-1.901-1.785-2.984-.246-.583-.527-1.15-.737-1.75-.131-.376-.238-.762-.405-1.124-.107-.23-.217-.46-.422-.622-.25-.197-.532-.236-.83-.19-.463.072-.893.252-1.312.458-.774.38-1.461.897-2.116 1.461-.351.303-.684.626-1.025.94-.013.013-.03.02-.046.03l-.03-.023z" fill="#54C5D0"/><path d="M21.541 23.808c-.032.094-.082.151-.126.213-.314.438-.61.89-.836 1.384-.167.364-.298.737-.282 1.152.02.518.366.813.865.735.382-.06.736-.199 1.08-.37.92-.457 1.757-1.05 2.58-1.665.943-.704 1.841-1.465 2.746-2.218.046-.038.088-.12.156-.085.064.034.04.117.043.181.004.092-.013.189.01.274.043.151-.019.243-.116.343-.53.541-1.12 1.008-1.712 1.47a32.97 32.97 0 01-3.108 2.167c-.732.448-1.476.874-2.281 1.172-.276.103-.56.173-.85.206a.822.822 0 01-.446-.078c-.175-.081-.244-.242-.258-.428a1.585 1.585 0 01.046-.547c.118-.425.29-.826.491-1.214.183-.352.36-.71.599-1.027.41-.543.83-1.077 1.28-1.585.026-.029.046-.064.12-.08z" fill="#0095DA"/><path d="M15.06 31.001h-1.869c-.838-.001-1.676-.002-2.514.002a4.22 4.22 0 00-1.123.15c-.458.13-.893.325-1.237.662a.946.946 0 00-.298.572c-.056.5.118.806.543 1.083.23.15.496.25.758.32.594.159 1.204.195 1.812.21h2.311v-.005H15.5a.5.5 0 110 1h-.148c-.065.005-.13.005-.196.005H8.191c-.165.006-.187.02-.19.189a10.03 10.03 0 00-.001.298v.19c.001.322.001.323.316.323h1.338c1.785 0 3.57 0 5.355-.002.34 0 .681-.017 1.017-.075.56-.096 1.133-.275 1.575-.646a1.098 1.098 0 00.07-1.638c-.59-.571-1.882-.622-2.639-.639h-4.519a.5.5 0 01-.399-.198c-.03-.021-.05-.06-.063-.11a.499.499 0 01.462-.692h6.085c.173 0 .346.001.518.003.226.001.452.003.678.002.182-.001.202-.021.205-.199.002-.162.002-.233.001-.333l-.001-.192c0-.277-.003-.28-.28-.28H15.06zm8.122 0l-.879.002H19.23c-.211 0-.228.014-.228.206v4.585c0 .194.012.204.205.205h1.621c.148-.007.16-.019.168-.166.002-.038.002-.076.002-.114v-.042l-.002-.675a181.314 181.314 0 010-.87c.002-.07.037-.13.105-.132h4.452c.17.003.274.11.364.255a.882.882 0 01.106.288c.051.243.048.596.025.842l-.023.2c-.01.074-.018.149-.025.224-.015.162.004.182.154.19h1.622c.206 0 .218-.012.219-.235l.004-1.185c.016-.404-.14-.712-.427-.965-.16-.14-.158-.142-.02-.298l.01-.012.027-.031c.35-.443.359-1.042-.055-1.454a2.47 2.47 0 00-.66-.466c-.49-.242-1.015-.34-1.552-.347-.713-.008-1.427-.006-2.14-.005zm-.88 1.002l.982.001h.633a258.7 258.7 0 001.526 0c.02 0 .04.001.057.003a.5.5 0 01-.005 1h-2.057v-.004h-.43L21.233 33c-.235 0-.235 0-.234-.212v-.663c0-.078.014-.12.091-.122h.058l.091-.002 1.062.001z" fill="#000"/></svg>