<svg width="56" height="56" viewBox="0 0 56 56" xmlns="http://www.w3.org/2000/svg"><path fill="#F0F3FA" d="M0 0h56v56H0z"/><path d="M31.32 20.36a16.52 16.52 0 0 1 9.6-3c.97.02 1.98.16 2.93.22.1 0 .15.06.15.16v2.76c0 .68 0 1.32-.03 1.92-.08 2.03-.27 4.12-.24 6.14 0 .09-.12.14-.2.08-1.23-1-2.6-1.78-4.1-2.34-.9-.33-1.81-.5-2.76-.5a5.48 5.48 0 0 0-3.17.96c-.13.08-.18.2-.13.33.27.45.59.89.95 1.3.03.03.04.07.04.1.01.14-.1.22-.08.37.22 1.18.37 2.42.42 3.63 0 .08-.03.13-.12.14l-3.8.44a.15.15 0 0 0-.13.11c-.03.1-.04.22-.04.36v.54c.02.98.03 2.01-.1 2.89l-.06.56c-.06.42-.11.85-.2 1.27l-.17.78c-.56 2.41-1.72 4.8-3.76 6.35-.19.13-.43.05-.6-.06-2.3-1.5-4.6-2.97-6.86-4.42a.27.27 0 0 1-.11-.3l.2-.7c.05-.15-.17-.2-.16-.36 0-.04.03-.06.07-.07.28-.05.53-.13.75-.23a12.5 12.5 0 0 0 3.28-2.15 8.53 8.53 0 0 0 2.2-3.47h-4.4c.06-.95.23-3.4-.19-4.22-.03-.06 0-.1.03-.15.12-.19.24-.38.25-.6 0-.03 0-.05-.04-.07a15.65 15.65 0 0 1-4.83-3.87A20.93 20.93 0 0 1 12 18.4c-.05-.15.06-.24.17-.31l6.76-3.96c.27-.16.35-.14.66-.1-.06 2.52.53 5.32 1.89 7.51a4.14 4.14 0 0 0 2.12 1.77c.02.01.05.01.07 0 .1-.02.18-.08.23-.18.92-1.88 1.84-3.83 2.92-5.7a87.61 87.61 0 0 0 2.98 4.2c.53-.4.97-.89 1.5-1.27Z" fill="#570F10"/><path d="M30.05 22.05c-.03-.08.04-.2.2-.34 2.56-2.33 5.66-3.37 9.01-3.88 1.53-.23 2.95.13 4.45.13-.06 2.54 0 5.46-.46 8.15a13.94 13.94 0 0 0-4.31-1.81 10 10 0 0 0-2.67-.23 7.53 7.53 0 0 0-3.83 1.2.14.14 0 0 1-.2-.04l-2.2-3.18Z" fill="#FF3B32"/><path d="M33.56 28c.08.12.05.19-.08.22-1.14.24-2.4.43-3.56.55a7 7 0 0 1 .09.83c.06 1.19.22 2.36.26 3.56.06 1.25-.16 2.47-.32 3.7-.3 2.33-1.4 4.61-2.97 6.37-.23.26-.5.48-.78.67-.13.09-.22.05-.34-.02-2.03-1.19-4.26-2.28-6.16-3.67 3.4-1.53 6.05-4.63 6.27-8.4.04-.66-.18-1.3-.25-1.96-.04-.33-.34-.3-.58-.3-1.33.02-2.62.02-3.9.01 1.64-2.98 3.97-7.96 5.56-11.3.08-.07.14-.06.19.02L33.56 28Z" fill="#FFFF39"/><path d="M23.4 23.71c-.4 1.25-1.94 3.74-2.42 5.13-3.96-1.85-7.2-6.54-8.51-10.5 2.36-1.15 4.63-2.77 6.8-4-.57 3 1.42 7.95 4.12 9.37Z" fill="#441DAF"/><path d="m33.7 28.6-3.16.4a.21.21 0 0 0-.18.23l.08.63c.01.11.12.2.24.18l3.15-.4c.12-.01.2-.11.19-.23l-.09-.63a.21.21 0 0 0-.24-.18ZM25.25 31.12l-4.09-.02a.25.25 0 0 1-.25-.25v-.7c0-.14.12-.25.26-.25h3.93c.12 0 .22.08.25.2l.15.72c.03.16-.1.3-.25.3Z" fill="#FFFF39"/><path d="m33.92 30.02-3.25.4a.12.12 0 0 0-.1.13l.08.66c0 .07.07.11.13.1l3.26-.39c.06 0 .1-.07.1-.13l-.09-.67c0-.06-.06-.1-.13-.1Z" fill="#FF524C"/><path d="M30.66 31.9c0-.08.05-.15.13-.16l3.07-.32c.08 0 .38-.03.4.1l.07.66c0 .08-.17.13-.22.14l-.15.03-3.07.31a.14.14 0 0 1-.15-.12l-.08-.65Z" fill="#441DAF"/><path d="M25.36 31.5c.05-.01.12 0 .13.07.03.27.02.52-.01.74a.13.13 0 0 1-.13.11c-1.46-.02-2.9-.02-4.29 0-.06 0-.09-.03-.09-.09v-.81l4.39-.02Z" fill="#FF524C"/><path d="M21.14 32.83h4.15c.08 0 .14.08.12.16l-.14.7a.13.13 0 0 1-.13.1h-4.08a.13.13 0 0 1-.13-.14l.08-.7c0-.07.06-.12.13-.12Z" fill="#441DAF"/><path d="M29.17 41.27a8.7 8.7 0 0 1-2.97 4.16 23 23 0 0 1 .18-1c.13-.64 1.4-1.43 1.8-2.02.2-.3.4-.62.6-.96.16-.25.27-.51.42-.76.19-.32.24-.3.14.05-.05.18-.1.35-.17.53ZM19.56 40.62l6.23 3.73c.1.06.14.18.1.29l-.18.56c-.04.12-.11.14-.21.07-1.98-1.41-4.1-2.64-6.15-3.96-.16-.1-.21-.25-.16-.43l.04-.13c.06-.18.17-.22.33-.13Z" fill="#CABF93"/><path d="M43.25 26.67c.27.17.13.88.02 1.14a.07.07 0 0 1-.1.03 13.42 13.42 0 0 0-4.62-2.2 7.61 7.61 0 0 0-1.97-.23 5.72 5.72 0 0 0-3.43 1.1.08.08 0 0 1-.1-.03l-.44-.73c-.02-.03-.01-.06.02-.08.84-.53 1.77-.9 2.76-1.05a8.77 8.77 0 0 1 3.45.13c1.51.36 2.98 1 4.4 1.92Z" fill="#FF524C"/></svg>