<svg width="56" height="56" viewBox="0 0 56 56" xmlns="http://www.w3.org/2000/svg"><path fill="#F0F3FA" d="M0 0h56v56H0z"/><path d="m42.1 18.7-4.1.04c-1.22 0-2.92.08-5.12.2l-1.95.12c-2.97.15-5.14 1.01-6.5 2.58a12.3 12.3 0 0 0-2.28 3.9.47.47 0 0 1-.31.31c-3.89 1.22-6.92 3.07-9.1 5.56-.19.2-.52.67-1 1.41-1.18-4.09-.95-7.96.68-11.62a16.86 16.86 0 0 1 8.86-8.8c1.73-.77 3.59-1.23 5.56-1.36 1.93-.13 3.82.05 5.7.55a17.43 17.43 0 0 1 9.49 6.76c.05.09.08.2.08.34Z" fill="#FEE903"/><path d="m28.7 15.3-.53-.3c-.04-.01-.04-.03 0-.04.6-.24.84-.63.72-1.15a.95.95 0 0 0-.6-.7c-.27-.1-.6-.13-.98-.1-.1.02-.12.07-.08.15.05.12.15.22.27.3.05.03.08.08.08.14v1.06c0 .08-.04.13-.12.16l-.15.05a.15.15 0 0 0-.1.12c-.02.07 0 .12.05.15l.26.2c.05.04.07.09.07.15v.1c-.02.5.02.84.1 1.02.16.32.48.44.97.37.41-.06.64-.27.69-.64 0-.08-.03-.11-.12-.1a.76.76 0 0 0-.22.12.07.07 0 0 1-.07 0 .06.06 0 0 1-.04-.06v-.67a.36.36 0 0 0-.2-.33Zm-1.43 1.42-.19-.1a.13.13 0 0 1-.07-.12v-3.38c0-.07-.04-.11-.12-.11h-1.3c-.3 0-.33.1-.1.29l.1.08c.04.05.07.1.07.17v2.9c0 .05-.02.09-.04.12l-.23.27c-.08.1-.05.15.08.16h1.76c.05 0 .08-.01.1-.04.04-.03.05-.07.04-.12 0-.05-.04-.09-.1-.12ZM32.14 14.39c.04-.09.07-.2.09-.34 0-.03.02-.05.05-.05h.05c.03.48-.1 1.19-.42 2.13-.1.27-.16.48-.2.62-.11.33-.22.33-.33 0-.36-1.03-.7-2.02-1.05-2.95-.1-.28-.23-.45-.4-.51a.14.14 0 0 1-.1-.12c0-.05 0-.09.03-.1.02-.03.05-.07.1-.07h1.34c.11 0 .18.05.22.15l.46 1.23c.05.13.1.13.16 0ZM32.5 16.61c.04-.01.06-.04.06-.08v-3.42c0-.05.03-.1.1-.11h1.37c.27.02.3.14.09.3-.14.11-.12.32-.1.64v2.42c0 .1-.05.26.04.33.26.2.22.31-.13.31h-1.5c-.3 0-.33-.11-.1-.32a.7.7 0 0 1 .17-.07ZM30.06 16.64c.15-.07.22-.2.22-.36v-1.71c0-.09.02-.1.07-.02.2.31.29.85.28 1.61v.01c0 .15.02.26.08.33.04.06.14.14.28.23.06.04.09.1.08.18-.01.06-.05.09-.11.09h-1a.12.12 0 0 1-.1-.07.12.12 0 0 1 0-.13c.05-.06.12-.11.2-.16ZM24.53 13.15c.18-.15.3-.15.34-.02v.02l-.02 1.1c0 .06-.03.1-.09.11-.12.02-.19-.02-.22-.13-.12-.4-.37-.7-.73-.88-.13-.06-.18-.14-.15-.26.01-.08.06-.1.15-.08l.59.17c.05.01.09 0 .13-.03Zm-1.36.32c-.13.12-.16.25-.1.39.06.13.17.23.33.3l.33.14c.5.21.83.4.95.54.4.48.44.98.12 1.5-.2.35-.6.57-1.17.65-.07.01-.12-.01-.14-.07a.17.17 0 0 1 0-.15c.03-.06.1-.12.22-.18.16-.07.25-.17.27-.28.02-.17-.05-.32-.23-.45-.1-.07-.3-.17-.6-.29a9.9 9.9 0 0 1-.28-.11c-.3-.14-.54-.34-.69-.6a1.22 1.22 0 0 1 .2-1.48c.22-.21.49-.33.83-.37.29-.03.33.07.13.29l-.17.17Zm-1.02 3.47c.08 0 .15-.04.23-.1.04-.05.1-.06.15-.05l.58.2c.1.03.14 0 .15-.1v-.05c.01-.11-.05-.19-.17-.23-.24-.09-.45-.3-.6-.66a3 3 0 0 0-.13-.25c-.18-.32-.3-.3-.33.06-.03.28-.03.64.01 1.09 0 .06.04.1.11.09ZM42.1 18.7a.2.2 0 0 1 .19.08c1.27 1.9 2.1 4 2.47 6.32-3.49 0-6.96.32-10.4.98a19.7 19.7 0 0 0-6.75 2.45c-.64.4-1.31.99-2.02 1.76a3.9 3.9 0 0 0-.98 2.85c.02.98.3 2 .82 3.06.84 1.7 2.29 3.63 4.36 5.8A17.92 17.92 0 0 0 31 43.16V27.64c0-.1.16-.16.26-.19l2.06-.52c.07-.01.1.01.1.08l.01 17.1c-1.95.69-4.02.97-6.2.87a16.87 16.87 0 0 1-9.02-3.08 16.41 16.41 0 0 1-6.48-9.08c.5-.74.82-1.21 1-1.41 2.19-2.49 5.22-4.34 9.1-5.56a.47.47 0 0 0 .32-.3 12.3 12.3 0 0 1 2.27-3.9c1.37-1.58 3.54-2.44 6.5-2.6l1.96-.1c2.2-.13 3.9-.2 5.11-.21l4.12-.05Z" fill="#070707"/><path d="M27.52 21.43c-.38.06-.75.07-1.11.05-.37-.03-.4-.13-.08-.31a3.31 3.31 0 0 1 3.9.19c.07.05.06.07-.02.08-.27.02-.95.04-2.06.05-.2 0-.34-.01-.46-.05a.4.4 0 0 0-.17-.01ZM31.07 23.33c.06-.01.07-.03.04-.06a.2.2 0 0 0-.03-.03l-2.73.06c-.06 0-.07-.03-.04-.08.43-.79.67-1.24.72-1.36.03-.06.08-.1.14-.1l1.18-.16c.08 0 .14.02.2.07.52.56.91 1.25 1.16 2.1.01.04 0 .07-.05.07l-3.66.49c-.08.01-.1-.02-.08-.1l.13-.33c.04-.1.1-.16.2-.17l2.82-.4ZM28.94 21.85l-.88 1.42a.05.05 0 0 1-.05.02l-1.52.05c-.07 0-.08-.03-.05-.09l.64-1.27a.06.06 0 0 1 .05-.03l1.75-.19c.03 0 .04.01.06.03v.06ZM24.24 23.28l.9-1.13a.05.05 0 0 1 .03-.02l1.68-.18c.03 0 .05.01.06.03v.06l-.72 1.26a.05.05 0 0 1-.05.03l-1.85.05c-.03 0-.05-.01-.06-.03a.06.06 0 0 1 0-.07ZM26.13 24.07l1.57-.26c.07-.01.1.02.07.08l-.17.52-.05.04-1.58.26c-.07 0-.1-.02-.07-.09l.18-.51c.01-.03.03-.04.05-.04ZM23.57 24.45l2.13-.33c.08-.02.11.02.08.1l-.2.55c0 .03-.02.04-.04.05l-2.29.57c-.03.01-.05 0-.07-.02a.07.07 0 0 1-.02-.08l.35-.8a.07.07 0 0 1 .06-.04ZM44.76 25.1c.05.22.1.55.15.98.35 3.04-.35 5.93-1.56 8.67v-9.01c-.01-.08-.05-.11-.12-.1l-2.14.09c-.06 0-.07.03-.07.1v12.82c-.76.98-1.4 1.87-2.44 2.66a.98.98 0 0 1-.08-.34l.02-14.86c0-.07-.04-.1-.11-.1l-2.16.3c-.04 0-.23.02-.23.07V42.9c-.83.48-1.57.88-2.59 1.2v-17.1c0-.07-.04-.1-.1-.08l-2.07.52c-.1.03-.24.1-.24.19v15.52c0 .06.07.07.02.03A17.9 17.9 0 0 1 29.8 42a24.67 24.67 0 0 1-4.36-5.8 7.4 7.4 0 0 1-.82-3.06 3.9 3.9 0 0 1 .98-2.85c.7-.77 1.38-1.36 2.02-1.76a19.7 19.7 0 0 1 6.75-2.45c3.44-.66 6.91-.99 10.4-.98Z" fill="#FEE903"/><path d="M26.3 25.9c0-.06.02-.1.07-.1l.04-.02c.88-.18 1.63-.32 2.26-.41.63-.09.95-.1.96-.05l.01.07c.02.05-.28.17-.9.34-.6.17-1.35.35-2.23.54h-.03c-.06.02-.1 0-.1-.06l-.08-.31Z" fill="#fff"/><path d="M43.34 34.75c-.16.46-.4.98-.73 1.56-.5.87-1.03 1.65-1.6 2.34L41 25.82c0-.06.03-.09.09-.1l2.13-.09c.08 0 .12.03.12.11v9.01ZM38.56 41.31a13.1 13.1 0 0 1-2.56 1.6V26.38c0-.05.19-.07.23-.08l2.16-.28c.07-.01.1.02.1.09v14.86c0 .1.02.2.07.34Z" fill="#070707"/><path d="m23.4 26.87-2.52 1.78a.13.13 0 0 0-.03.18l.16.22c.04.06.11.07.17.03l2.53-1.78a.13.13 0 0 0 .03-.18l-.16-.22a.13.13 0 0 0-.17-.03ZM19.27 31.2c.06.03.08.07.06.13l-.87 2.83c-.05.18-.13.26-.23.23l-.23-.07c-.1-.03-.12-.14-.06-.32l.87-2.83c.02-.06.06-.09.12-.07l.34.1ZM18.28 37.16l-.16.05a.18.18 0 0 0-.13.21l.76 2.93c.02.1.12.15.21.12l.16-.04c.1-.02.15-.12.13-.21l-.76-2.93a.18.18 0 0 0-.21-.13Z" fill="#fff"/></svg>