<svg width="56" height="56" viewBox="0 0 56 56" xmlns="http://www.w3.org/2000/svg"><path fill="#F0F3FA" d="M0 0h56v56H0z"/><path d="M36.27 23h-10.5l.23-3h11.32l-1.05 3ZM6 36v-3h15.74l.72 3H6ZM22.35 29h-2.93l2.73-3h2.34c2.33 0 4.59 2.2 4.59 5 0 2.26-.71 3.18-1.15 3.47-2.79-.44-4.16-1.27-4.4-1.75.31-.22.96-.84.96-1.56 0-1.75-1.43-2.15-2.14-2.16Z" fill="#006CB4"/><path d="M25.37 23c.48-1 .62-2.47.63-3H15.71A4.6 4.6 0 0 0 11 24.5a4.6 4.6 0 0 0 4.71 4.5h3.28c1.9-.43 3.61-2.3 4.23-3h-5.57c-1.03 0-1.86-.4-1.86-1.39 0-.98.83-1.61 1.86-1.61h7.72ZM37.25 33.17l-2.35-3.5 4.01-.5 2.05 2.73-3.7 1.27Z" fill="#A93235"/><path d="M43.37 25.17c0-3.5-3.14-4.9-4.6-5.17l-1.27 3.38c.3.2 1.13.9 1.13 1.79 0 1.72-1.54 1.8-2.3 1.83H31v3h6.16c2.07-.12 6.2-1.33 6.2-4.83Z" fill="#006CB4"/><path d="m39.21 36-.2-.53 3.38-1.3L43.8 36h-4.6ZM29.58 34.83c-4.17 0-5.94-1.21-6.3-1.82-1.75 2.45 1.46 3.99 6.3 3.99 4.83 0 9.26-1.66 14.33-4.08 4.05-1.93 4.34-4.17 3.97-5.05-3.8 4.67-13.1 6.96-18.3 6.96Z" fill="#A93235"/></svg>