<svg xmlns="http://www.w3.org/2000/svg" width="56" height="56"><path fill="#EC2427" d="M0 0h56v56H0z"/><path fill-rule="evenodd" d="M9 22h4v2.42h-1V33h-2v-8.58H9V22zm-.64 3.44v-1.83c-.05-.52-.56-1.57-2.14-1.6-1.58-.05-2.14 1.25-2.22 1.9v1.77c0 .44.4 1.67 1.37 2.31a2.66 2.66 0 011.23 1.97v.78c0 .12-.06.33-.32.33-.24 0-.27-.2-.27-.33V29H4v1.55c.03.78.5 2.36 2.22 2.45a2.05 2.05 0 002.3-1.86v-2.12c0-.41-.2-1.43-1.05-2.2a83.26 83.26 0 00-1.25-1.14c-.07-.08-.21-.29-.21-.48v-.91c0-.13.05-.38.21-.38.17 0 .26.19.26.38v1.15h1.88zM12.71 33l1.03-11h2.83l1.14 11h-2.05l-.14-1.85h-.54l-.2 1.85h-2.07zm2.52-7.05L15 29.03h.46l-.24-3.08zM18 33V22h2.69c1.6 0 1.95 1.4 1.92 2.1v1.66c0 1.15-.7 1.54-1.06 1.6.87.12 1.07 1.11 1.06 1.6V33h-1.92v-3.5c-.05-1.1-.48-1.31-.69-1.28V33h-2zm2-6.76V24.1c.37 0 .5.37.52.55v1.02c0 .46-.35.57-.52.57z" fill="#fff"/><path d="M25.5 22a2.5 2.5 0 00-2.5 2.5v6a2.5 2.5 0 005 0v-6a2.5 2.5 0 00-2.5-2.5zm2.5 6.35h-2v2.44a.5.5 0 01-1 0V24.2a.5.5 0 111 0V27h2v1.35zM48.22 22H52v2h-1v9h-2v-9h-.78v-2zm-5.72 0H39v11h3.5v-2H41v-2.49h1.35v-2H41V24h1.5v-2zm-14 0H32v2h-1.5v2.55H32v2h-1.5V31H32v2h-3.5V22zm4 0v11h1.8v-7.32l.66 7.32h1.21l.54-7.32V33h1.79V22h-2.59l-.37 6.16-.41-6.16H32.5zM43 22v11h2v-6l1.25 6H48V22h-2v5.46L44.73 22H43z"/></svg>