<svg width="56" height="56" xmlns="http://www.w3.org/2000/svg"><path fill="#F0F3FA" d="M0 0h56v56H0z"/><path d="M14.247 21.018a9.962 9.962 0 013.37.716c.411.163.824.325 1.172.609.487.397.688.915.565 1.526-.124.617-.513 1.021-1.121 1.19-.417.117-.82.05-1.195-.165-.644-.368-1.314-.672-2.036-.85-.716-.177-1.439-.23-2.166-.074-.396.085-.735.27-.981.606-.293.4-.278 1.273.351 1.65.41.245.856.39 1.31.52.887.253 1.79.446 2.672.72.63.197 1.252.418 1.832.74.662.366 1.24.825 1.62 1.498.222.394.351.817.403 1.264a5.011 5.011 0 01-.105 1.85 3.971 3.971 0 01-1.527 2.247c-.714.53-1.527.829-2.391 1-.7.14-1.407.183-2.118.153-1.398-.06-2.748-.331-4.02-.933a6.096 6.096 0 01-1.149-.698 1.5 1.5 0 01-.587-.99c-.002-.01-.011-.02-.017-.032v-.37c.021-.012.017-.034.02-.052a1.49 1.49 0 011.957-1.184c.226.073.418.207.62.325.568.332 1.154.627 1.789.811a6.397 6.397 0 002.327.233c.408-.033.802-.123 1.163-.33.646-.37.743-1.04.527-1.585-.101-.257-.314-.41-.544-.54-.531-.298-1.111-.471-1.695-.628-.753-.203-1.517-.364-2.264-.588-.825-.248-1.63-.537-2.34-1.043a3.37 3.37 0 01-1.21-1.534 3.909 3.909 0 01-.244-1.209c-.028-.476-.012-.95.102-1.416.269-1.1.918-1.926 1.86-2.529.85-.544 1.8-.799 2.798-.889.104-.01.212.002.313-.037h.097c.008.017.024.02.04.02l.802-.002zM26.01 34.989c-.029-3.485-.006-7.372-.001-10.857 0-.106-.032-.124-.13-.124l-3.38-.002A1.503 1.503 0 0121 22.626c-.072-.751.457-1.452 1.209-1.602.089-.018.18-.024.271-.024h9.947c.734 0 1.394.415 1.574 1.16.209.867-.442 1.753-1.33 1.825a5.401 5.401 0 01-.43.015c-1.15 0-1.986.002-3.136-.002-.088 0-.097.031-.097.117.002 3.488 0 7.397 0 10.885 0 2.112-2.98 2.074-2.997-.011zM39 22.727c.016 1.928.006 3.856 0 5.784-.007 2.383 2.187 4.138 4.464 4.446.23.031.46.044.692.044.775.001 1.55.004 2.325-.001 2.073-.013 1.993 2.99-.022 3-.771.004-2.315.009-2.315.009-4.335-.003-8.105-3.199-8.119-7.693-.005-1.82-.04-3.768-.05-5.588-.011-2.13 3.006-2.333 3.025 0z" fill="#1B47C4"/><path d="M43.324 21.263a1 1 0 011.413.061l2 2.182a1 1 0 01-.064 1.416l-2 1.818a1 1 0 01-1.346-1.48l.514-.467a1 1 0 00.065-1.416l-.643-.701a1 1 0 01.061-1.413z" fill="#13C06B"/></svg>