<svg xmlns="http://www.w3.org/2000/svg" width="56" height="56" viewBox="0 0 56 56"><path fill="#F0F3FA" d="M0 0h56v56H0z"/><path d="M35.75 34.5l-4.58-5.86 5.7-4.35-2.88 5.72 1.76 4.5zM30.47 29.1l-5.64 4.48 5.26-1.81L41.93 43 30.47 29.1zM30.55 28.06L19.76 14.75l11.25 9.37L44 17.92 30.55 28.06zM24.16 27.84L16.2 11.7l13.84 16.85a3807.26 3807.26 0 0 1-18 13.9c-.65.46 7.81-9.56 12.12-14.62z" fill="#282627"/><path d="M35.75 33.8l-4.58-5.87 5.7-4.35-2.88 5.72 1.76 4.5z" fill="#D9D9D9"/><path d="M30.47 28.39l-5.64 4.48 5.26-1.81 11.84 11.23-11.46-13.9z" fill="#B9B7B8"/><path d="M30.55 27.35l-10.79-13.3 11.25 9.36L44 17.2 30.55 27.35z" fill="url(#aurraxvek)"/><path d="M24.16 27.13L16.2 11l13.84 16.85a3800.3 3800.3 0 0 1-18 13.9c-.65.46 7.81-9.56 12.12-14.62z" fill="url(#burraxvek)"/><defs><linearGradient id="aurraxvek" x1="28.39" y1="27.35" x2="44.93" y2="20.72" gradientUnits="userSpaceOnUse"><stop stop-color="#C6C6C6"/><stop offset=".66" stop-color="#FEFEFE"/><stop offset="1" stop-color="#C6C6C6"/></linearGradient><linearGradient id="burraxvek" x1="28.11" y1="17.02" x2="11.53" y2="40.71" gradientUnits="userSpaceOnUse"><stop offset=".35" stop-color="#C6C6C6"/><stop offset=".58" stop-color="#FAFAFA"/><stop offset=".79" stop-color="#C6C6C6"/></linearGradient></defs></svg>