<svg width="56" height="56" viewBox="0 0 56 56" xmlns="http://www.w3.org/2000/svg"><path fill="#F0F3FA" d="M0 0h56v56H0z"/><path fill="#E52925" d="M8 17h40v22H8z"/><path fill-rule="evenodd" d="M47 18H9v20h38V18Zm-.4.43H9.4v19.14h37.2V18.43Z" fill="#fff"/><path d="M14.5 20c-1.66.88-3.5 2.72-3.5 4.53 0 1.37.76 2.46 1.52 3.53.74 1.06 1.48 2.1 1.48 3.4 0 1.4-.8 2.76-2 3.54l.48 1A5.46 5.46 0 0 0 15 31.46c0-1.36-.76-2.43-1.5-3.5-.76-1.07-1.5-2.13-1.5-3.46 0-1.36 1.78-2.85 3-3.5h2v15h1V21h1.6l2.4 4v11h1V25l3-5v16h4l1.31-7h2.38L35 36h1l-3-16h-1l-2.81 15H27V20h-2l-2.4 4h-.2L20 20h-5.5Zm18 2.67 1 5.33h-2l1-5.33ZM39 20h-1l-2 16h1l1.74-13.04L40 28h1l1.26-5.04L44 36h1l-2-16h-1l-1.5 5v.02V25L39 20Z" fill="#fff"/></svg>