<svg width="56" height="56" viewBox="0 0 56 56" xmlns="http://www.w3.org/2000/svg"><path fill="#F0F3FA" d="M0 0h56v56H0z"/><path d="M41 32v-6h1.5v6H41ZM41 25v-1h1.5v1H41ZM48.44 32 43 24h1.56L50 32h-1.56Z" fill="#004F9E"/><path d="M42.49 35 52 21h-1.49L41 35h1.49Z" fill="url(#a1lyxgo30)"/><path d="M35.5 27.31V32H34v-8h1.53v1.39A2.06 2.06 0 0 1 37.55 24c1.7 0 2.45 1.45 2.45 2.98V32h-1.5v-4.84c0-.94-.39-1.83-1.43-1.83-1.1 0-1.57.98-1.57 1.98ZM30.16 32a2.9 2.9 0 0 1-1.7-.49c-.46-.33-.82-.79-1.08-1.39-.25-.6-.38-1.3-.38-2.1 0-.79.13-1.49.38-2.1.26-.6.61-1.07 1.07-1.41a2.83 2.83 0 0 1 2.7-.3c.35.15.67.38.95.69.28.3.5.7.66 1.2.16.5.24 1.09.24 1.8v.53h-5.27V27.3h4c0-.4-.06-.75-.2-1.06-.14-.3-.33-.55-.58-.73a1.45 1.45 0 0 0-.88-.26c-.36 0-.68.1-.95.3-.26.21-.47.48-.62.81-.14.33-.21.7-.21 1.08v.88c0 .52.07.96.23 1.32.16.36.38.64.66.83.28.2.61.28.99.28.24 0 .47-.04.67-.12.2-.08.37-.2.52-.37.15-.16.26-.37.34-.6l1.22.25c-.1.42-.28.79-.53 1.1-.25.31-.56.56-.94.73-.38.17-.81.26-1.3.26ZM23 32v-8h1.53v1.37c.27-.83.99-1.37 1.85-1.37a5.94 5.94 0 0 1 .62.04v1.46a2.82 2.82 0 0 0-.76-.1c-1 .01-1.74.8-1.74 1.79V32H23ZM16.51 35a2.85 2.85 0 0 1-1-.17l.36-1.28c.27.08.5.11.71.1.2 0 .4-.1.55-.25.16-.16.3-.41.43-.76l.18-.54L15 24h1.56l1.9 6.2h.08l1.9-6.2H22l-3.09 9.07a3.7 3.7 0 0 1-.54 1.05 2.15 2.15 0 0 1-1.86.88Z" fill="#004F9E"/><path d="M15.65 24v1.27H13V24h2.65ZM13 21h1.5v8.5c0 .65.16 1.09.76 1.09.16 0 .32-.03.49-.07l.25 1.31c-.29.12-.6.16-.9.17-1.15.02-2.1-.82-2.1-2.17V21ZM10.31 23.97c-.13-1.1-1.25-1.58-2.25-1.58-.95 0-2.06.46-2.06 1.58C6 25 7.03 25.4 7.86 25.6c1.77.46 4.14.99 4.14 3.27C12 31.03 9.92 32 8.02 32c-1.96 0-3.9-.85-4.02-3h1.5c.1 1.23 1.42 1.59 2.51 1.59 1.04 0 2.49-.5 2.49-1.73 0-1.06-1.3-1.41-2.14-1.63-1.71-.46-3.86-.96-3.86-3.16C4.5 22.03 6.29 21 8.1 21c1.76 0 3.73 1 3.77 2.97h-1.56Z" fill="#004F9E"/><defs><linearGradient id="a1lyxgo30" x1="52.03" y1="21" x2="40.29" y2="34.35" gradientUnits="userSpaceOnUse"><stop stop-color="#77B627"/><stop offset="1" stop-color="#009DE0"/></linearGradient></defs></svg>