<svg xmlns="http://www.w3.org/2000/svg" width="56" height="56"><path fill="#F0F3FA" d="M0 0h56v56H0z"/><path d="M48.06 25c1.63.03 2.66 1.26 2.73 2h-1.97c0-.32-.48-.54-.85-.54-.63 0-1 .4-1 .71.01.5.93.78 1.5.9 2.31.55 2.53 2.08 2.53 2.54 0 1.94-1.97 2.39-2.94 2.39-2.04 0-3.11-1.66-3.06-2.54h2c.1.7.6 1 1.06 1 .25 0 .94-.2.94-.85 0-.58-.5-.84-1.03-.96-2.82-.52-2.97-1.8-2.97-2.48 0-.53.65-2.22 3.06-2.17zM9.07 21h-.1c-.87 0-1.54.2-2.06.5h4.31a4.57 4.57 0 00-2.15-.5zm-3.23 1.5c.12-.17.25-.34.41-.5h5.69c.17.16.33.33.46.5H5.84zm3.22.5h3.64c.18.35.28.7.3 1h-2c-.23-.72-1.02-1-1.94-1zm-3.5 0h3.45c-.72 0-1.7.34-1.68 1.26 0 .75 1.35 1.34 2.1 1.53 3.14.81 3.57 2.85 3.57 3.86 0 .52-.11.97-.3 1.35H9.23c.43-.02 1.67-.29 1.77-1.35.11-1.14-1.15-1.78-1.85-1.96-3.74-1.01-3.88-2.56-3.88-3.43 0-.29.07-.76.3-1.26zm3.6 8h-.01zM9 31c-.74-.03-2-.51-2-2H5c0 .58.13 1.32.48 2H9zm-3.22.5c.13.18.27.34.44.5h5.66c.18-.15.35-.31.5-.5h-6.6zm5.33 1H6.93a4.6 4.6 0 004.19 0zM16 25h-2v4.5a3.5 3.5 0 107 0V25h-2v4.5a1.5 1.5 0 01-3 0V25z" fill="#3B4BAB"/><path fill-rule="evenodd" d="M24 22h-2v7a4 4 0 102-3.46V22zm0 7a2 2 0 104 0 2 2 0 00-4 0z" fill="#3B4BAB"/><path d="M33 25h-2v8h2v-4c.38-.9 1.25-1.85 3-2.01V25a5.9 5.9 0 00-3 .84V25z" fill="#3B4BAB"/><path d="M36 29c0-.17.01-.34.03-.5h7.94c.02.16.03.33.03.5h-8zm7.7-1.5c.07.16.13.33.17.5h-7.74c.04-.17.1-.34.16-.5h7.42zm-.24-.5a4 4 0 00-6.92 0h6.92z" fill="#99D27C"/><path d="M44 29c0 .17-.01.34-.03.5h-7.94A4.04 4.04 0 0136 29h8zm-7.7 1.5a3.96 3.96 0 01-.17-.5h7.74c-.04.17-.1.34-.16.5h-7.42zm.24.5a4 4 0 006.92 0h-6.92z" fill="#3B4BAB"/></svg>