<svg xmlns="http://www.w3.org/2000/svg" width="56" height="56"><path fill="#F0F3FA" d="M0 0h56v56H0z"/><path d="M9 25h1v3.87c0 .51.09.76.15.91.2.42.83.72 1.3.72.9-.01 1.33-.3 1.55-.53V25h1v6s-.59-.16-1.25-.12c-.68.05-1.04.3-1.72.3a2 2 0 01-1.48-.5c-.37-.37-.55-.83-.55-1.89V25zm-4.68 4.26c.1.22.2.44.41.66.35.35.82.5 1.3.5.8 0 1.19-.5 1.19-1.01 0-.64-.49-.82-1.18-.97-.64-.13-1.83-.38-1.83-1.74 0-.66.35-1.85 2.18-1.85.23 0 1 0 1.5.54.34.37.38.78.4.98l-.33.09a1.3 1.3 0 00-.28-.48 1.55 1.55 0 00-1.12-.42c-.64 0-1.21.3-1.21.92a.85.85 0 00.05.28c.17.44.6.53 1.2.66.4.09.98.23 1.35.62.27.27.44.68.44 1.14 0 .51-.2.99-.5 1.3-.6.67-1.53.67-1.77.67-.3 0-1.07-.02-1.6-.58-.4-.4-.47-.88-.52-1.2l.32-.11zm26 0c.1.22.2.45.41.67.35.35.82.5 1.3.5.8 0 1.19-.5 1.19-1.01 0-.64-.49-.83-1.18-.97-.64-.13-1.83-.38-1.83-1.75 0-.65.35-1.84 2.18-1.84.23 0 1 0 1.5.53.33.37.37.78.4.99l-.33.09a1.3 1.3 0 00-.28-.48 1.56 1.56 0 00-1.12-.42c-.64 0-1.21.3-1.21.92a.85.85 0 00.05.28c.16.44.6.53 1.2.66.4.09.98.23 1.35.62.27.27.44.68.44 1.14 0 .51-.2.98-.5 1.3-.6.67-1.53.67-1.77.67-.3 0-1.07-.02-1.6-.58-.4-.4-.47-.88-.52-1.2l.32-.11zM15 25h2.03c.54 0 1.46.02 2.16.75.52.53.81 1.4.81 2.24 0 .83-.26 1.63-.8 2.22-.66.7-1.4.79-2.37.79H15v-6zm1.93 5c.48 0 .97-.11 1.3-.48.42-.45.56-.9.56-1.54 0-.96-.37-1.38-.75-1.66-.48-.34-1.26-.34-2.04-.32v4h.93z" fill="#E6270F"/><path d="M22.7 25h-.41l-2.84 6h1.05l1.81-4.06L24.16 31h1.29l-2.75-6zm21.05 0h-.41l-2.84 6h1.05l1.81-4.06L45.21 31h1.29l-2.75-6z" fill="#808083"/><path d="M26 25h1.77c.53 0 .88.08 1.17.3.4.33.54.87.54 1.3 0 .22-.04.56-.23.9-.2.38-.44.53-.64.65L30 31h-1.2s-.72-1.5-1.24-2.3a.5.5 0 00-.55-.2V31H26v-6zm1.01 3c.61-.02 1.43-.37 1.43-1.05 0-.13-.02-.58-.38-.8-.2-.14-.43-.16-.63-.16L27 26v2zM35 25h1v2.5h3V25h1v6h-1v-2.5h-3V31h-1v-6zm12 0h1.02L51 28.5V25h1v6h-.28l-3.7-4.44V31H47v-6z" fill="#E6270F"/></svg>