<svg width="56" height="56" viewBox="0 0 56 56" xmlns="http://www.w3.org/2000/svg"><path fill="#F0F3FA" d="M0 0h56v56H0z"/><path d="M36.54 47h-.35c-.34-.12-.69-.21-.94-.47-.39-.4-.89-.55-1.22-.98a4.59 4.59 0 0 1-.94-2.37 3.38 3.38 0 0 0-.84-1.9c-.67-.72-1.28-1.3-1.42-2.35l-.28-2.05c-.13-.96-.81-2.5-1.9-2.6-1.33-.12-2.25.87-2.58 2.04-.3 1.09-.73 2.4-1.59 3.1-.58.48-1.19.95-1.83 1.4-.88.65-1.3 1.42-1.25 2.32.02.35-.07.38-.25.08-.2-.3-.31-.68-.34-1.15-.09-1.58.56-2.81 1.7-3.83.68-.6.52-1.09.4-1.87a2.2 2.2 0 0 1 .5-1.65c.27-.3.5-.54.56-.96.16-1.3-.99-1.15-1.7-.65a.4.4 0 0 1-.2.07c-1.01.07-2.21.07-3.07.44-.51.22-1.12.62-1.85 1.2-.67.55-1.52.82-2.55.83-1.4 0-2.72-.13-4.15.15-.52.1-1 .37-1.45.78v-.3c.5-1.23 1.73-1.97 3-2.24.78-.17 1.57-.16 2.32-.45.67-.25 1.21-.68 1.62-1.29.87-1.27 2.4-1.74 3.92-1.89.83-.08 1.38-.46 1.7-1.24.29-.7-.22-1.48-.85-1.82-.6-.32-1.2-.79-1.81-1.39-.39-.38-1-.63-1.56-.71a3.57 3.57 0 0 1-2.34-1.3 7.26 7.26 0 0 0-1.34-1.48c-.25-.2-.57-.3-.95-.31-.37 0-.38-.08-.04-.22.75-.3 1.55-.3 2.3.05.76.35 1.44.73 2.07 1.14.6.38 1.6.19 2.27.07.72-.13 1.43.2 1.97.62.48.37 1.14.53 1.7.25.93-.48.94-1.25.62-2.14-.4-1.12-.26-2.6-.27-3.8-.01-.9-.67-1.6-1.26-2.25a4.24 4.24 0 0 1-1.03-2.96l.05-1.1A3 3 0 0 0 20 9.19a.12.12 0 0 1-.04-.13c0-.02.02-.04.04-.05a.09.09 0 0 1 .07 0 5.27 5.27 0 0 1 3.2 4.11c.14.83.48 1.63 1.06 2.26 1.25 1.36 2.2 2.56 2.22 4.5.01.78.53 1.73 1.38 1.84 1.12.14 1.56-.78 1.97-1.6a4.24 4.24 0 0 1 1.87-1.67 3 3 0 0 0 1.42-2.09c.15-.67 1.46-1.34 2.05-1.65.4-.2.67-.47.9-.84.28-.48.36-.45.22.09a4.57 4.57 0 0 1-1.48 2.36c-.16.14-.32.4-.31.61.06 1.12-.07 2.15-.94 2.93-.77.7-1.5 1.3-1.68 2.39-.14.88.32 1.77 1.3 1.82.21 0 .41-.04.59-.16 1.05-.68 2.45-1.1 3.61-.71.62.2 1.18.1 1.68-.32a5.46 5.46 0 0 1 3.31-1.25c.78-.04 1.56-.06 2.36-.05.87 0 1.78-.43 2.08-1.24.04-.1.07-.1.11 0 .02.05.02.1.01.14-.2.83-.63 1.48-1.3 1.96-.9.63-1.88.82-2.91 1.1-.7.19-1.34.59-1.84 1.1-1.05 1.1-2.68 1.26-4.13 1.43-.84.1-2.11.65-2.4 1.5-.19.59-.19 1.6.57 1.83 1.18.37 2.03 1.01 2.55 1.91.15.28.4.48.76.6.95.33 2.15.58 2.71 1.49.37.6.64 1.22.8 1.86 0 .04 0 .08-.03.11-.04.07-.08.06-.12 0a2 2 0 0 0-1.36-.98 7.93 7.93 0 0 0-2.15-.21c-.87.03-1.8-.45-2.42-.99-.48-.4-.89-1.05-1.48-1.26-.46-.17-1.3-.13-1.52.43-.2.51-.2 1.09.15 1.53.75.98 1 2.07.77 3.26-.2 1.02-.2 1.88.55 2.7.61.67.92 1.37.91 2.09l-.02 2.43A2.98 2.98 0 0 0 36.54 47Z"/><path d="M25.35 19.4v-.02h-.06c-.03 0-.05.02-.05.05-.07.63.08 1.28.47 1.94.09.16.05.2-.12.12-.3-.12-.46-.78-.55-1.1-.44-1.48.15-2.94-1.09-4.16A5.65 5.65 0 0 1 22.26 13c-.13-1.1-.4-2.25-1.17-3a.08.08 0 0 1-.03-.05c0-.02 0-.04.02-.05l.04-.06a.1.1 0 0 1 .08-.03.1.1 0 0 1 .07.02c.8.73 1.44 1.79 1.55 2.87.13 1.37.66 2.4 1.73 3.3a4.15 4.15 0 0 1 1.53 2.94c.08.95.2 1.93.9 2.63.1.1.08.16-.06.2-.05 0-.1 0-.13-.03-.1-.06-.13-.03-.12.08 0 .02 0 .04-.02.06a.1.1 0 0 1-.13 0 2.91 2.91 0 0 1-1.17-2.49Z" fill="#FFC105"/><path d="M22.32 14.8c-.18-.37-.3-.76-.35-1.17 0-.04.01-.07.06-.09l.04-.01c.03-.01.05 0 .06.03.19.6.38 1.06.6 1.39.46.7 1.25 1.47 1.57 2.29.26.67.4 1.4.41 2.2.02.9.31 1.88.98 2.5a.2.2 0 0 1 .06.17.2.2 0 0 1-.11.16l-1.2.56c-.1.04-.16.02-.2-.08-.15-.48-.4-.9-.47-1.4-.12-1-.02-2.04-.04-3.04-.02-1.2-.72-2.05-1.48-2.93a2.9 2.9 0 0 1-.79-2.15c0-.1.05-.2.13-.27.1-.1.14-.07.12.06-.07.73.11 1.33.55 1.82.1.11.12.1.06-.03ZM30.79 21.83c.03.14.04.27 0 .4 0 .07-.05.1-.11.09-.31-.06-.62-.17-.92-.33-.06-.04-.09-.09-.07-.16.37-1.9 1.56-2.67 3-3.73.43-.3.54-.92.7-1.39.2-.54.69-.96 1.17-1.25a5.1 5.1 0 0 0 .92-.68.06.06 0 0 1 .05.02l.02.02.02.06a.14.14 0 0 1-.04.15c-.57.48-1.27.88-1.57 1.6-.2.49-.44.9-.54 1.42-.1.5-.4.87-.9 1.08-1.03.45-2.22 1.88-2.15 3 .01.1.04.1.1.01a.42.42 0 0 0 .05-.23c0-.07 0-.14.02-.21.4-1.24 1.25-1.91 2.35-2.6.25-.16.42-.37.52-.64.34-.85.42-1.7 1.11-2.35.05-.05.1-.06.17-.02l.04.03a.08.08 0 0 1 .01.11c-.57.76-.38 1.5-.56 2.35-.13.6-1.03 1.34-1.52 1.75-.74.6-1.04 1.5-1.09 2.4 0 .14-.06.17-.17.08a.1.1 0 0 1-.03-.11c.02-.04 0-.05-.03-.04-.13.05-.21.01-.25-.12-.1-.26.02-.58-.23-.77-.07-.05-.1-.04-.07.06Z" fill="#FFC105"/><path d="M24.67 17.03a4.1 4.1 0 0 0-.37-.75c-.05-.08-.04-.09.03-.02.29.25.44.5.46.74.03.3 0 .32-.12.03ZM33.1 18.22c-.14.36-.5.48-.83.67l-.04-.01-.03-.04c.32-.18.6-.4.83-.67.12-.13.14-.11.08.05ZM33.5 18.9h-.03l-.05-.04v-.02c.2-.16.3-.37.3-.62 0-.04.01-.06.06-.06l.05.01c.02 0 .02.01.02.03a.98.98 0 0 1-.35.7ZM24.2 18.54c.06.75-.13 1.4.1 2.15l-.05.02c-.02 0-.04 0-.05-.03a2.24 2.24 0 0 1-.19-1.12c.05-.3.08-.64.1-1 0-.02 0-.03.03-.03h.07ZM25.78 20.01c.06.63.5 1.15.88 1.6V21.67h-.04c-.59-.49-.93-1.11-1.03-1.88-.02-.11 0-.12.08-.03.07.08.1.16.11.25Z"/><path d="M39 24.96c-.59.3-1.24.45-1.95.46a.2.2 0 0 0-.15.06c-.03.03-.03.05-.02.08.03.1 0 .15-.1.16a3.72 3.72 0 0 0-2.52 1.23c-.06.08-.09.07-.07-.03.04-.33.2-.62.48-.88.1-.1.09-.12-.05-.07-.18.06-.34.23-.47.49a.1.1 0 0 1-.1.06.1.1 0 0 1-.1-.08l-.14-.44a.14.14 0 0 1 .05-.17 4.19 4.19 0 0 1 3.02-1.04c.77.02 1.42-.09 1.94-.33 1.34-.62 2.3-1.73 3.87-1.8 1.15-.03 2.7-.32 3.5-1.24.02-.03.05-.03.08 0l.04.04a.12.12 0 0 1 0 .17c-.8.84-1.8 1.32-2.97 1.45-.4.04-.8.14-1.22.3-.58.22-.93.66-1.38 1.03a4.98 4.98 0 0 1-1.61.89.12.12 0 0 1-.09-.1l.01-.07.05-.08c.06-.13.03-.16-.1-.1Z" fill="#FFC105"/><path d="M42.6 22.05h-.01v.05c0 .02 0 .03.02.03.44.06.88.1 1.3.13.13 0 .14.04.03.1a.4.4 0 0 1-.2.05 7 7 0 0 0-1.87.2c-1 .31-1.93.8-2.79 1.48-.32.25-.78.4-1.2.4-1.51.05-2.87.01-4.05 1.1a.07.07 0 0 1-.11 0l-.04-.07a.1.1 0 0 1 .03-.12 8.43 8.43 0 0 1 .9-.65l-.04-.05-.01-.02a.05.05 0 0 0-.05 0h-.01c-.2.16-.42.29-.65.38-.2.09-.23.05-.07-.1a3.1 3.1 0 0 1 1.66-.79c.03 0 .04-.01.04-.04l.02-.05c0-.04 0-.05-.05-.05a4.08 4.08 0 0 0-2 .95.11.11 0 0 1-.13-.05l-.03-.05c-.05-.08-.03-.15.05-.2a5.38 5.38 0 0 1 3.3-1.07c.73.05 1.62.19 2.26-.23 1.06-.7 1.92-1.14 2.58-1.32.8-.23 1.74-.29 2.83-.17.03 0 .04.02.02.05l-.03.06c0 .02-.02.03-.05.03-.54.03-1.1.04-1.65.02ZM18.6 23.6a1.7 1.7 0 0 1-1 .04c-.27-.07-.26-.12.01-.14a14.8 14.8 0 0 1 2.11-.02c.42.03.84.2 1.26.52a2.5 2.5 0 0 0 1.65.51c.14 0 .18.06.11.18l-.52.98a.27.27 0 0 1-.28.15 1.81 1.81 0 0 1-1.27-.67c-.53-.65-1.37-1.14-2.24-1.05-.95.11-1.84-.1-2.56-.73a5.36 5.36 0 0 0-1.88-1.2l.01-.06c.02-.06.06-.08.12-.07.74.14 1.38.4 1.94.8a5 5 0 0 0 1.17.62c.06.02.1.06.13.12.04.12.12.19.24.22.35.07.7.04 1.07-.09v-.07c-.01-.04-.04-.05-.07-.04ZM22.26 26.35c.26-.76.61-1.43 1.08-2 1.53-1.9 3.56-2.57 6.09-2a5.52 5.52 0 0 1 3.79 3.03c.71 1.51.98 3.08.4 4.7a6 6 0 0 1-4.73 3.8c-1.2.2-2.37.02-3.53-.52-2.5-1.19-4-4.32-3.1-7Z" fill="#FFC105"/><path d="m19.42 25.32-.01.01v.02c.45.32.84.7 1.17 1.1a1.71 1.71 0 0 0 1.09.61.04.04 0 0 1 .02.03v.02c0 .02-.02.04-.03.05a.1.1 0 0 1-.06.03c-.83.06-1.48-.56-2-1.14a3.39 3.39 0 0 0-1.8-1.07c-.86-.17-1.57-.2-2.22-.9-.4-.42-.82-.88-1.25-1.37-.06-.07-.05-.11.05-.11a.6.6 0 0 1 .37.13c1.07.8 2.04 1.73 3.51 1.53 1.17-.16 2.08.85 2.87 1.54.21.18.47.23.73.27.19.02.22.11.1.25-.18.21-.37.23-.59.05L20 25.23a3.7 3.7 0 0 0-1.23-.67c-.02-.01-.04 0-.05.01l-.02.05c-.01.03 0 .05.02.06.17.08.38.11.55.2.51.26.97.63 1.38 1.08.3.33.68.55 1.13.66.02 0 .05.02.06.04.02.02.03.05.02.08v.06c0 .03-.02.04-.06.04-.38-.05-.72-.2-1.02-.47-.43-.37-.86-.72-1.3-1.06-.02-.02-.04-.02-.06 0Z" fill="#FFC105"/><path d="M27.3 24.95a5.06 5.06 0 0 1-.13-1.7l.02-.01h.08c.03 0 .04.02.05.05 0 .5.1.95.28 1.36.25.54.19 1.19-.52 1.36-.57.14-1.05-.7-1.19-1.12a1.3 1.3 0 0 0-.5-.68c-.22-.15-.2-.2.06-.14.46.11.77.73.92 1.13.1.27.3.39.6.34l.1-.04c.22-.13.3-.31.23-.55ZM37.62 24.08c.58 0 .83-.01 1.32-.34l.05.01v.05c-.42.35-.88.47-1.38.36-.26-.05-.26-.08 0-.08ZM39.5 24.35l.04.04c.01.02.01.04-.01.06-.83.65-1.74.73-2.76.74-.07 0-.1-.03-.1-.1v-.05c.02-.07.06-.1.13-.1.58.06 1.07.04 1.48-.03.41-.08.81-.27 1.21-.56ZM29.21 25.53a4 4 0 0 0-.72.62c-.03.03-.06.04-.1.02v-.01a.07.07 0 0 1-.01-.09c.22-.36.51-.69.86-.98.51-.42 1.57-.22 2.18-.14.07 0 .1.05.1.12v.06l-.02.03a.06.06 0 0 1-.04.02c-1.11-.03-1.86.1-2.25.35Z"/><path d="M31.65 25.9c-.49 1.23-1.8 1.5-3 1.18a.17.17 0 0 1-.1-.1.16.16 0 0 1 0-.14c.52-.94 1.89-1.3 2.89-1.27.22.01.3.12.21.33Z"/><path d="M30.48 26.67c-.2.1-.29.03-.27-.19l.02-.38c0-.07.05-.12.13-.12l.76-.09a.12.12 0 0 1 .11.06.12.12 0 0 1 0 .13c-.19.25-.44.44-.75.59Z" fill="#FFC105"/><path d="M29.34 28.8a.33.33 0 0 1-.1-.2.1.1 0 0 1 .08-.1.1.1 0 0 1 .05 0c.29.08.49.36.3.64-.3.45-.47 1.13-1.18 1.02-.32-.05-.64-.1-.97-.13-.23-.02-.38-.2-.36-.42.05-.37.37-.44.43-.75a.36.36 0 0 0-.03-.21c-.25-.54-.6-1.59-1.32-1.63-.7-.05-1.33.06-1.86.47l-.47.34c-.44.3-.5.25-.18-.18.33-.44.81-.98 1.43-1 .75-.03 1.48-.15 1.88.43.27.4.53.87.78 1.44.12.28.1.51-.06.7-.22.25-.17.4.16.45l.76.12c.07.01.14 0 .2-.04.06-.03.1-.1.12-.16.06-.23.17-.44.34-.62.05-.06.05-.11 0-.17Z"/><path d="M26.86 27.87a2.37 2.37 0 0 1-2.99 1.02c-.22-.09-.25-.22-.08-.39a3.13 3.13 0 0 1 3.02-.85.17.17 0 0 1 .05.22Z"/><path d="m25.65 27.84.74.01a.08.08 0 0 1 .07.05.08.08 0 0 1 0 .08 1.7 1.7 0 0 1-1.03.64c-.04 0-.05 0-.04-.04l.17-.68c.02-.04.04-.06.09-.06Z" fill="#FFC105"/><path d="m31.59 28.85.28-.03c.06 0 .1.01.12.06.02.03.02.07 0 .12a.12.12 0 0 1-.07.07c-.22.1-.45.1-.67-.01a.29.29 0 0 1-.15-.37c.41-1.02 1.73-.48 1.54.45-.17.84-1.42.74-2.06.71-.36-.01-.7.04-1.04.17-.13.05-.15.03-.05-.07.26-.26.55-.4.88-.42.45-.03.93-.08 1.45-.14.48-.06.68-.6.28-.86-.22-.15-.61-.12-.63.21a.1.1 0 0 0 .04.08.1.1 0 0 0 .08.03Z"/><path d="M37.11 31.72c.79.56 1.7.77 2.59 1.13.42.17.75.42.98.75.27.38.21.44-.19.19a4.62 4.62 0 0 0-2.15-.74c-1.28-.1-1.55-.92-2.39-1.63a4.97 4.97 0 0 0-2.07-1.08.07.07 0 0 1-.03-.06v-.04c.14-.23.2-.5.2-.8.01-.2.09-.24.24-.08.43.47.89.73 1.37.8.62.08 1.16.77 1.47 1.26.05.08.03.13-.04.18-.02 0-.02.03-.02.05 0 .03.02.06.04.07ZM17.25 32c.24-.26.21-.29-.07-.09-.4.29-.74.62-1.01 1a1.88 1.88 0 0 1-1.35.87.06.06 0 0 1-.04-.05.1.1 0 0 1 .06-.1c.48-.3.9-.65 1.22-1.13a3.87 3.87 0 0 1 2.58-1.57c1-.09 2.26-.33 2.86-1.14.26-.35.42-.3.47.13.04.28.16.5.37.69.04.03.04.07 0 .11-.6.63-1.45.8-2.3.77-1.53-.07-2.59 1.12-3.63 2.01a4.2 4.2 0 0 1-2.47.85c-1.07.05-2.1.22-3.1.5-.2.07-.22.03-.05-.1.37-.28.82-.4 1.3-.41.88-.04 1.74-.21 2.62-.33.54-.07 1-.24 1.34-.66.4-.47.8-.92 1.2-1.36Z" fill="#FFC105"/><path d="m29.2 30.8.11-.23a.52.52 0 0 1 .39-.29l1.1-.17a.1.1 0 0 1 .1.03.1.1 0 0 1 .03.08c-.08.53-.3.98-.66 1.36-.75.8-2.18.7-3.02.16-.14-.1-.15-.19 0-.29l.87-.63c.15-.1.3-.12.48-.06l.34.14c.12.05.2.02.26-.1ZM25.8 30.97c0-.04-.03-.07-.07-.08-.57-.2-1 .5-.36.75.3.11.57.07.8-.13.38-.33 1.4-1.28 1.95-1.03.08.04.08.07 0 .1-.42.11-.81.39-1.17.83-.6.75-1.23.91-1.91.5a.68.68 0 0 1-.22-.9c.2-.37.57-.52 1.08-.46.08.01.16.06.22.12.06.07.09.15.08.24-.01.32-.21.48-.6.48-.09 0-.12-.04-.1-.13.03-.07.1-.12.18-.12.1-.01.14-.07.12-.17Z"/><path d="M29.7 30.88c.2-.12.42-.22.64-.3.24-.08.29-.01.15.2-.71 1.09-1.66 1.37-2.86.84a.07.07 0 0 1-.04-.06.07.07 0 0 1 .03-.06c.19-.13.39-.2.6-.21a3.28 3.28 0 0 0 1.48-.41ZM34.44 31.03a3.29 3.29 0 0 0-.58-.19.14.14 0 0 1-.08-.05.13.13 0 0 1-.02-.1v-.06l.02-.03a.1.1 0 0 1 .07-.04 4.64 4.64 0 0 1 2.39 1.56c.45.52 1.12.97 1.82 1.03.46.04.89.13 1.28.26.03.01.04.03.02.06l-.01.05c-.01.02-.03.03-.05.02-.12-.07-.2-.1-.23-.1-.25.12-.23.17.04.17.43 0 .72.09.85.27a.1.1 0 0 1-.08.15l-2.04-.15c-.9-.06-1.7-.51-2.38-1.34a2.46 2.46 0 0 0-2.15-.97c-.16 0-.17-.03-.04-.11l.2-.13c.07-.04.1-.1.1-.18 0-.06.02-.12.06-.18.04-.05.09-.06.15-.04.23.09.45.14.65.16.14.02.14 0 .01-.06ZM19.06 32.58c-.03 0-.04.01-.04.04v.05c.01.02.02.03.04.03 1.03-.03 1.98-.13 2.83-.3a4.42 4.42 0 0 0 1.11-.43.07.07 0 0 1 .08.05l.02.05c.03.08 0 .14-.07.19a7.14 7.14 0 0 1-3.59.8c-.8 0-2 .9-2.76 1.48-1.01.79-2.14.96-3.46.79a6.65 6.65 0 0 0-3.1.34c-.03.01-.06 0-.07-.04l-.01-.04a.13.13 0 0 1 0-.1.13.13 0 0 1 .06-.06c.4-.2.85-.35 1.32-.47.98-.25 1.84-.4 2.59-.44a5.22 5.22 0 0 0 3.12-1.22c.68-.6 1.51-1.54 2.5-1.56a5.28 5.28 0 0 0 2.78-.62.16.16 0 0 1 .13.04l.04.07.01.05c.02.05.01.1-.01.15a.2.2 0 0 1-.11.1c-.56.19-1.12.37-1.72.4a4.6 4.6 0 0 0-2.45.62c-.03.02-.03.04-.01.07l.02.04a5.36 5.36 0 0 1 2.48-.57c.62 0 1.25-.17 1.88-.52a.1.1 0 0 1 .06-.01c.03 0 .05.01.06.03l.05.06c.08.08.07.15-.03.2-1.12.62-2.5.57-3.75.73Z" fill="#FFC105"/><path d="M36.84 31.83c.29.3.63.53 1.02.68v.01l-.02.05h-.01a1.86 1.86 0 0 1-1.03-.69v-.01l.04-.04ZM37.33 33.33c.02 0 .02.02.02.03 0 .02-.02.03-.04.02-.66-.2-1.17-.6-1.53-1.2v-.02l.05-.02h.04c.37.55.86.95 1.46 1.19Z"/><path d="M32.88 37.48c-.11 1.23.5 2.06 1.2 2.98.84 1.1.75 2.65.73 3.98a3.2 3.2 0 0 0 .2 1.05.05.05 0 0 1-.02.04H34.9a.1.1 0 0 1-.05 0 5.9 5.9 0 0 1-.68-2.13c-.06-.84.02-1.95-.57-2.64-.3-.35-.58-.71-.84-1.08-.48-.68-.6-1.5-.54-2.31.1-1.25-.52-2.6-1.28-3.6a.16.16 0 0 1-.03-.1c0-.05.02-.09.06-.11a3.82 3.82 0 0 1 .86-.57.12.12 0 0 1 .1.05l.02.04c.1.44.23.88.52 1.23.64.8.66 1.94.57 2.94 0 .06-.03.1-.08.14l-.05.03a.07.07 0 0 0-.03.06ZM23.77 35.75c.03-.33.17-.61.4-.86.35-.39.6-.83.74-1.32a.13.13 0 0 1 .16-.08c.07.02.12.06.15.12.06.11.06.22 0 .33-.32.59-.91 1.01-1.17 1.6-.12.26-.2.5-.23.74-.04.26 0 .27.12.04.07-.12.12-.26.15-.42.02-.08.06-.12.14-.1.07 0 .1.04.11.1.07.76-.06 1.42-.37 1.98s-.8.88-1.24 1.32a6.35 6.35 0 0 0-1.39 2.03c-.08.22-.12.2-.1-.02.04-.76.82-1.6 1.32-2.17a.01.01 0 0 0 0-.01l-.04-.04h-.03c-.32.34-.63.67-.93 1.02-.08.09-.11.08-.09-.04.19-1.04 1.89-1.79 1.84-2.78-.02-.55-.01-1.04.03-1.5.06-.58.5-1.1.82-1.59.15-.24.2-.55.19-.84 0-.09.04-.11.12-.07.29.13.36.33.22.6-.33.6-.88 1.16-1.03 1.9 0 .03 0 .04.02.05l.05.02c.02.01.03 0 .04-.01Z" fill="#FFC105"/><path d="M31.48 36.49a.63.63 0 0 0 0-.36 5.05 5.05 0 0 0-1.31-2.2.11.11 0 0 1 .03-.12.12.12 0 0 1 .06-.03l.06-.01c.1-.02.2.01.26.09.8.87 1.28 2 1.24 3.22-.01.63.03 1.2.15 1.72.1.4.35.84.78 1.29.42.42.73.88.94 1.36.18.42.29 1.01.31 1.77.03.64.17 1.27.44 1.9.03.04.01.08-.04.1l-.05.03h-.02c-.2-.32-.36-.66-.48-1.03a.11.11 0 0 0-.05-.05.12.12 0 0 0-.07-.02.12.12 0 0 1-.1-.04c-.22-.23-.33-.97-.33-1.24a3.17 3.17 0 0 0-1.2-2.3 2.95 2.95 0 0 1-1.05-2.23c.02-1.15-.08-2.57-.98-3.43a.07.07 0 0 1 0-.1l.03-.03c.05-.06.1-.06.15 0 .23.24.42.52.57.83h.02l.04-.01c.03-.02.04-.04.02-.06a6.14 6.14 0 0 0-1.01-1.32c-.18-.17-.15-.22.09-.16.12.04.23.1.33.2.61.67.98 1.41 1.1 2.22.02.12.04.12.07 0ZM21.56 41.66a.06.06 0 0 1-.08.02l-.05-.03c-.05-.03-.07-.08-.04-.14.4-.88.98-1.6 1.72-2.18.53-.42 1.14-1.03 1.3-1.7.17-.7.01-1.48.18-2.18.12-.5.46-.95 1.03-1.34.3-.2.74-.09 1.08-.04.24.04.26.13.06.27a2.1 2.1 0 0 0-.74.93c-.32.74-.6 1.51-.84 2.3-.3.99-.9 1.91-1.85 2.35-.72.34-1.3.92-1.77 1.74Z" fill="#FFC105"/><path d="M14.46 34.89c.36 0 .62-.2.96-.24.11-.02.12 0 .03.07a2.8 2.8 0 0 1-2.2.27c-.14-.04-.14-.06 0-.07.4-.03.8-.04 1.21-.03ZM24.92 36.5c0 .4.15.58-.02 1.01a8.24 8.24 0 0 1-.52 1.04l-.03-.04v-.04c.34-.62.5-1.27.48-1.94a.1.1 0 0 1 .03-.07c.04-.04.06-.03.06.03ZM32.5 36.73c.02-.08.05-.08.08 0 .06.16.1.36.06.53-.15.79 0 1.54.48 2.25.02.03.01.05-.01.06-.02.02-.04.01-.05 0-.62-.75-.8-1.7-.56-2.84Z"/></svg>