<svg width="56" height="56" viewBox="0 0 56 56" xmlns="http://www.w3.org/2000/svg"><path fill="#F0F3FA" d="M0 0h56v56H0z"/><path d="M25.64 41H18.1L9 15h10.84l2.49 7h-3.07l6.38 19Z" fill="#CF3438" fill-opacity=".5"/><path fill-rule="evenodd" d="m15.7 34 2.4 7h-2.86l-.03-.03-.01-.02a.08.08 0 0 1-.03-.04L12.77 34h2.92Zm7.59 0h2.78c.06 0 .08-.06.06-.12L22.14 22h.19l-2.49-7h21.04c.05 0 .08.07.1.11L43.64 22h-13.9c-.07 0-.09.1-.07.15l6.3 18.74a.08.08 0 0 1-.01.08.09.09 0 0 1-.07.03H25.64l-2.35-7Zm.09-16.54c.04.13.13.23.25.3l.34.15c.75.34 1.55.71 1.72 1.58.14.74-.43 1.12-1.08 1.1a3.84 3.84 0 0 1-1.06-.19.06.06 0 0 1-.04-.04l-.37-.96a.03.03 0 0 1 0-.03.03.03 0 0 1 .04 0c.62.34 1.08.45 1.38.35.25-.09.3-.24.15-.46a.87.87 0 0 0-.34-.28l-.23-.11c-.7-.34-1.59-.75-1.67-1.61-.1-1.1 1.4-.86 1.98-.67a.12.12 0 0 1 .08.08l.23.74c.03.09 0 .11-.08.06-.34-.2-.7-.3-1.07-.31a.23.23 0 0 0-.24.2l.01.1Zm7.84 3h.75a.04.04 0 0 0 .04-.02v-.04l-.2-1.64a.05.05 0 0 1 .02-.05.05.05 0 0 1 .05.01l1.65 1.87a.04.04 0 0 0 .04.02.04.04 0 0 0 .04-.04l.41-1.8a.04.04 0 0 1 .04-.03h.03l.02.02.82 1.67a.04.04 0 0 0 .03.02h.8a.04.04 0 0 0 .03-.01.04.04 0 0 0 0-.05l-2.02-3.96a.04.04 0 0 0-.04-.03l-.03.01-.01.03-.58 2.45a.04.04 0 0 1-.08.02l-2.2-2.48-.02-.01a.05.05 0 0 0-.04.02l-.01.03.42 3.94a.04.04 0 0 0 .04.04Zm-2.58-.75c.38-.06.44-.46.34-.79l-.71-2.32c-.01-.04 0-.06.04-.06h.71c.04 0 .07.01.08.05.39 1.21.64 2.06.76 2.53.12.45.04.82-.23 1.13-.47.54-1.55.36-2.1.01a2.46 2.46 0 0 1-1-1.37c-.24-.73-.48-1.5-.72-2.32-.01-.02 0-.03.02-.03h.85c.03 0 .04 0 .05.02.2.7.42 1.4.64 2.12.18.6.56 1.15 1.27 1.03Zm6.93-3.12 1.18 3.84.02.02h.87a.04.04 0 0 0 .04-.03v-.02l-1.18-3.83a.04.04 0 0 0-.04-.03h-.85a.04.04 0 0 0-.04.03v.02Zm4.18.81.93 3v.02a.04.04 0 0 1-.04.04h-.85a.04.04 0 0 1-.04-.03l-.93-3.04-.02-.03h-1.21a.04.04 0 0 1-.04-.04l-.23-.73a.04.04 0 0 1 0-.03.04.04 0 0 1 .04-.02l3.33-.01h.02l.02.03.24.74a.04.04 0 0 1 0 .04.04.04 0 0 1-.04.02l-1.14-.01a.04.04 0 0 0-.04.05Z" fill="#CF3438"/><path d="M47 41h-7.61l-6.38-19h7.54L47 41Z" fill="#CF3438" fill-opacity=".5"/></svg>