<svg width="56" height="56" viewBox="0 0 56 56" xmlns="http://www.w3.org/2000/svg"><path fill="#F0F3FA" d="M0 0h56v56H0z"/><path d="M33.68 23.83a.69.69 0 0 0-.23-.49c-.13-.11-.32-.17-.57-.17-.16 0-.3.02-.4.07a.51.51 0 0 0-.33.48c0 .09.01.16.05.23.03.07.08.13.15.18.07.05.15.09.24.13l.32.1.45.11c.26.06.48.15.68.25.2.1.36.23.5.38.13.14.24.3.3.5.08.18.11.4.11.63 0 .37-.08.69-.25.95-.16.27-.4.47-.7.6-.31.15-.68.22-1.12.22-.43 0-.81-.07-1.13-.22a1.66 1.66 0 0 1-.76-.67c-.18-.3-.27-.65-.28-1.11h1.2c.02.19.06.32.14.45.08.13.2.22.33.29.14.06.3.1.49.1.17 0 .31-.03.43-.08a.63.63 0 0 0 .28-.22c.06-.09.1-.2.1-.31 0-.11-.04-.2-.1-.29a.7.7 0 0 0-.27-.2 2.6 2.6 0 0 0-.47-.16l-.54-.15c-.45-.11-.8-.3-1.06-.56a1.42 1.42 0 0 1-.4-1.05 1.7 1.7 0 0 1 1-1.6c.3-.14.65-.22 1.05-.22s.75.08 1.05.23c.3.15.53.37.69.64.16.28.25.6.25.96h-1.2ZM26.88 22l1.17 4.4h.04l1.16-4.4h1.41l-1.75 6h-1.68l-1.75-6h1.4ZM21 23v-1h4.4v1h-1.58v5h-1.24v-5H21Z" fill="#36145E"/><path d="M5 27.92 20 22v2.72L5 30.65v-2.73ZM51 27.92 36 22v2.72l15 5.93v-2.73Z" fill="#D43412"/><path d="m5 31.96 15-5.93v2.05L5 34v-2.04ZM51 31.96l-15-5.93v2.05L51 34v-2.04Z" fill="#36145E"/></svg>