<svg xmlns="http://www.w3.org/2000/svg" width="56" height="56"><path fill="#051AA7" d="M0 0h56v56H0z"/><path fill-rule="evenodd" d="M37.03 12.06L46 28.18l-4.6 7.77L37.02 44l-9.85-.04-8.1-.02L10 28.2 18.95 12l18.08.06zM28 13a15 15 0 11-.01 30.01A15 15 0 0128 13zm7.33 4.54c-2.28 0-3.33 1.95-3.33 4v2.1c0 .71.08 1.28.19 1.7.12.41.31.83.56 1.25l2.8 3.94c.32.5.45 1.24.45 1.83v2.1c0 .34-.03.95-.5.95-.5 0-.5-.6-.5-.94V31h-3v3.18c0 2.12 1.05 4.27 3.5 4.27 2.28 0 3.5-1.92 3.5-3.98v-2.34c0-.94-.06-1.63-.17-2.07-.1-.44-.29-.84-.54-1.23l-2.93-4.1a2.7 2.7 0 01-.36-1.42V21.5c0-.36 0-1.02.47-1.02.48 0 .53.57.53.9V25h3v-3.34c0-2.08-1.33-4.12-3.67-4.12zM24.4 18l2.1 20v-.02h3L31.6 18h-2.7L28 32.5 27.1 18h-2.7zM19 21v16.98h3V21h2v-3h-7v3h2z" fill="#fff"/></svg>