<svg width="56" height="56" fill="none" xmlns="http://www.w3.org/2000/svg"><path fill="#F0F3FA" d="M0 0h56v56H0z"/><path d="M40.204 17.058c4.373 3.049 6.395 7.957 5.641 13.157-.622 4.04-3.424 7.586-7.018 9.76-2.835 4.532-8.085 6.768-13.494 5.804-3.794-.699-7.282-3.269-9.266-6.712-4.495-2.964-6.636-7.935-5.937-13.286.715-4.096 3.201-8.101 7.233-9.873 2.953-4.437 8.112-6.647 13.43-5.686a14.027 14.027 0 019.411 6.836z" fill="#908B85"/><path d="M39.208 16.307c-5.013-2.555-10.818-1.761-13.787.447-4.004 2.698-5.895 6.903-6.089 11.555.126 2.395 1.195 4.522 2.999 6.227-4.015-2.11-6.72-6.445-6.803-10.897-.072-4.81 2.272-9.06 6.51-11.57 2.485-1.378 5.397-2.113 8.442-1.5a12.81 12.81 0 018.728 5.738z" fill="#EF9C00"/><path d="M39.208 16.307c-5.013-2.555-10.818-1.761-13.787.447-4.004 2.698-5.895 6.903-6.089 11.555.126 2.395 1.195 4.522 2.999 6.227-4.015-2.11-6.72-6.445-6.803-10.897-.072-4.81 2.272-9.06 6.51-11.57 2.485-1.378 5.397-2.113 8.442-1.5a12.81 12.81 0 018.728 5.738z" stroke="#908B85" stroke-width=".19"/><path d="M44.254 22.455c2.001 3.802 1.657 9.315-.87 12.782-.92 1.34-2.201 2.73-3.671 3.485 1.3-2.791 1.824-6.536.848-9.587-1.05-4.335-5.271-8.275-9.564-9.35-3.54-1.049-7.544-.082-9.9 2.792 1.093-2.859 3.862-5.51 6.76-6.693 4.477-1.607 10.038-.698 13.44 2.616 1.252 1.148 2.317 2.5 2.957 3.955z" fill="#FCD8B3"/><path d="M44.254 22.455c2.001 3.802 1.657 9.315-.87 12.782-.92 1.34-2.201 2.73-3.671 3.485 1.3-2.791 1.824-6.536.848-9.587-1.05-4.335-5.271-8.275-9.564-9.35-3.54-1.049-7.544-.082-9.9 2.792 1.093-2.859 3.862-5.51 6.76-6.693 4.477-1.607 10.038-.698 13.44 2.616 1.252 1.148 2.317 2.5 2.957 3.955z" stroke="#908B85" stroke-width=".19"/><path d="M16.732 16.752c-2.216 4.015-2.127 10.02.538 13.756 2.846 3.742 6.84 6.42 11.698 5.96 2.296-.338 4.383-1.52 5.953-3.407-1.756 4.598-6.678 7.772-11.577 7.692-4.72.015-8.967-2.372-11.316-6.515-2.281-3.543-2.119-9.003-.097-12.636 1.061-1.964 2.75-3.817 4.8-4.85z" fill="#FCD8B3"/><path d="M16.732 16.752c-2.216 4.015-2.127 10.02.538 13.756 2.846 3.742 6.84 6.42 11.698 5.96 2.296-.338 4.383-1.52 5.953-3.407-1.756 4.598-6.678 7.772-11.577 7.692-4.72.015-8.967-2.372-11.316-6.515-2.281-3.543-2.119-9.003-.097-12.636 1.061-1.964 2.75-3.817 4.8-4.85z" stroke="#908B85" stroke-width=".19"/><path d="M35.328 25.226c1.207 2.775.33 6.256-1.8 8.34-1.591 1.529-3.529 2.18-5.65 2.309-2.747-.21-5.282-1.536-6.704-3.974-1.48-2.44-1.432-6.295.387-8.534.524-.874 1.413-1.418 2.189-2.025 2.227-1.477 5.596-1.648 7.927-.3 1.621.89 2.986 2.492 3.651 4.184z" fill="#F0F3FA"/><path d="M35.561 25.11c1.252 2.88.343 6.492-1.867 8.655-1.65 1.586-3.659 2.262-5.858 2.395-2.848-.218-5.476-1.593-6.951-4.123-1.535-2.532-1.484-6.532.402-8.855.543-.908 1.465-1.473 2.269-2.102 2.309-1.533 5.802-1.71 8.219-.312 1.681.924 3.096 2.586 3.786 4.342z" stroke="#908B85" stroke-width=".19"/><path d="M40.215 29.572c.106.284.121.33.161.543 1.102 5.443-1.402 10.791-5.951 13.65-3.602 2.354-9.32 2.484-12.995.147-1.713-.896-3.253-2.413-4.337-4.093.938.274 1.728.668 2.674.93 5.69 1.48 11.365-.831 14.57-5.618C36.39 32.306 37.3 27.8 35.761 24.52c-.557-1.274-1.629-2.416-2.706-3.41l.032-.058c3.468 1.434 6.259 4.996 7.127 8.52z" fill="#EF9C00"/><path d="M40.215 29.572c.106.284.121.33.161.543 1.102 5.443-1.402 10.791-5.951 13.65-3.602 2.354-9.32 2.484-12.995.147-1.713-.896-3.253-2.413-4.337-4.093.938.274 1.728.668 2.674.93 5.69 1.48 11.365-.831 14.57-5.618C36.39 32.306 37.3 27.8 35.761 24.52c-.557-1.274-1.629-2.416-2.706-3.41l.032-.058c3.468 1.434 6.259 4.996 7.127 8.52z" stroke="#908B85" stroke-width=".19"/></svg>