<svg width="56" height="56" xmlns="http://www.w3.org/2000/svg"><path fill="#F0F3FA" d="M0 0h56v56H0z"/><path d="M38.413 22.477a1.472 1.472 0 00-1.92-.784l-4.24 1.738c-.072-.114-.144-.213-.215-.328l3.237-3.22a1.456 1.456 0 000-2.066 1.475 1.475 0 00-2.077 0l-3.238 3.235a6.605 6.605 0 00-.33-.214l1.749-4.204a1.459 1.459 0 00-.788-1.91 1.472 1.472 0 00-1.92.784l-1.748 4.218a3.695 3.695 0 00-.387-.071v-4.56a1.47 1.47 0 00-1.475-1.468 1.47 1.47 0 00-1.476 1.468v4.56c-.129.028-.258.043-.387.071l-1.747-4.19a1.472 1.472 0 00-1.92-.783 1.459 1.459 0 00-.788 1.91l1.748 4.218c-.115.07-.215.142-.33.213l-3.223-3.235a1.475 1.475 0 00-2.078 0 1.457 1.457 0 000 2.067l3.238 3.22c-.072.1-.143.214-.215.328l-4.226-1.739a1.472 1.472 0 00-1.92.784 1.459 1.459 0 00.788 1.91l4.24 1.753a3.608 3.608 0 00-.07.384H12.11a1.47 1.47 0 00-1.476 1.468 1.47 1.47 0 001.476 1.468h4.584c.029.128.043.256.072.385l-4.226 1.738a1.459 1.459 0 00-.788 1.91 1.472 1.472 0 001.92.783l4.24-1.738c.072.114.143.214.215.328l-3.238 3.22a1.457 1.457 0 000 2.066c.573.57 1.504.57 2.077 0l3.238-3.22c.1.071.215.142.33.214l-1.748 4.203a1.459 1.459 0 00.788 1.91 1.472 1.472 0 001.92-.784l1.747-4.218c.13.028.258.057.387.071v4.546a1.47 1.47 0 001.476 1.468 1.47 1.47 0 001.475-1.468v-4.56c.13-.029.258-.043.387-.071l1.748 4.203a1.472 1.472 0 001.92.784 1.459 1.459 0 00.788-1.91l-1.748-4.217c2.364-1.51 3.925-4.133 3.925-7.14a7.98 7.98 0 00-.215-1.866l4.227-1.739a1.464 1.464 0 00.802-1.923z" fill="#7C1315"/><path d="M19.43 15.92c.806 0 1.46-.65 1.46-1.452 0-.803-.654-1.454-1.46-1.454-.807 0-1.46.651-1.46 1.454 0 .802.653 1.453 1.46 1.453zm-7.966 7.938c.807 0 1.46-.65 1.46-1.453s-.653-1.454-1.46-1.454c-.806 0-1.46.651-1.46 1.454 0 .802.654 1.453 1.46 1.453zm.015 11.229c.806 0 1.46-.65 1.46-1.453s-.654-1.453-1.46-1.453c-.807 0-1.46.65-1.46 1.453 0 .802.653 1.453 1.46 1.453zm7.994 7.909c.806 0 1.46-.65 1.46-1.454 0-.802-.654-1.453-1.46-1.453-.807 0-1.46.65-1.46 1.453s.653 1.454 1.46 1.454zm11.275-.015c.806 0 1.46-.65 1.46-1.453 0-.802-.654-1.453-1.46-1.453-.807 0-1.46.65-1.46 1.453s.653 1.453 1.46 1.453zm7.936-19.151c.807 0 1.461-.651 1.461-1.454 0-.802-.654-1.453-1.46-1.453-.807 0-1.461.65-1.461 1.453s.654 1.454 1.46 1.454zm-7.98-7.923c.807 0 1.461-.651 1.461-1.454 0-.802-.654-1.453-1.46-1.453-.807 0-1.461.65-1.461 1.453s.654 1.454 1.46 1.454z" fill="#7C1315"/><path d="M37.524 22.89a.365.365 0 00-.473-.2l-5.042 2.081a7.78 7.78 0 00-1.146-1.738l3.782-3.762a.566.566 0 000-.813.573.573 0 00-.817 0l-3.796 3.777a7.752 7.752 0 00-1.69-1.083l2.09-5.016a.362.362 0 00-.2-.47.365.365 0 00-.473.199l-2.091 5.016a7.472 7.472 0 00-2.049-.413v-5.373a.573.573 0 00-1.146 0v5.373a7.41 7.41 0 00-1.963.427l-2.077-5.002a.365.365 0 00-.473-.2.362.362 0 00-.2.471l2.091 5.016c-.63.3-1.203.67-1.719 1.126l-3.825-3.82a.573.573 0 00-.817 0 .566.566 0 000 .813l3.825 3.805a7.143 7.143 0 00-1.103 1.71l-5.042-2.066a.365.365 0 00-.473.2.362.362 0 00.2.47l5.043 2.08a6.975 6.975 0 00-.415 1.966h-5.416a.573.573 0 00-.573.57c0 .314.258.57.573.57h5.401c.058.699.201 1.383.43 2.024l-5.043 2.08a.362.362 0 00-.2.47.353.353 0 00.33.229c.042 0 .085-.015.143-.029l5.042-2.08a7.284 7.284 0 001.09 1.667l-3.797 3.776a.565.565 0 000 .812.572.572 0 00.816 0l3.797-3.776c.53.456 1.117.84 1.762 1.14l-2.092 5.016a.362.362 0 00.2.47.353.353 0 00.473-.2l2.092-5.015a8.26 8.26 0 001.977.413v5.315a.573.573 0 001.146 0v-5.33a7.903 7.903 0 002.035-.427l2.091 5.016a.353.353 0 00.33.228c.043 0 .086-.014.143-.028a.362.362 0 00.2-.47l-2.077-5.03a7.574 7.574 0 003.897-9.448l5.043-2.08c.172-.058.258-.272.186-.457z" fill="url(#paint0_linear)"/><path d="M25 34a6 6 0 100-12 6 6 0 000 12z" fill="url(#paint1_linear)"/><path d="M19.43 15.053a.586.586 0 10.002-1.171.586.586 0 00-.002 1.171zm-7.966 7.937a.586.586 0 10.002-1.171.586.586 0 00-.002 1.17zm.014 11.229a.586.586 0 10.002-1.172.586.586 0 00-.002 1.172zm7.995 7.908a.586.586 0 10.002-1.17.586.586 0 00-.002 1.17zm11.275-.014a.586.586 0 10.002-1.171.586.586 0 00-.002 1.171zm7.936-19.152a.586.586 0 10.003-1.171.586.586 0 00-.003 1.171zm-7.979-7.922a.586.586 0 10.002-1.171.586.586 0 00-.002 1.17z" fill="#FFBC39"/><path d="M44.616 25.854a2.13 2.13 0 00-2.736 1.254l-2.02 5.429-2.178-5.258A2.127 2.127 0 0035.906 26c.072 0-.057 0 0 0h-10.23c-1.102 0-2.005.994-2.005 2.09 0 1.098.903 1.91 2.006 1.91H28.5v8.265c0 1.211.759 2.195 1.976 2.195 1.218 0 2.024-.984 2.024-2.195V30h1.644l3.84 9.163a2.118 2.118 0 001.962 1.31h.043a2.155 2.155 0 001.963-1.381l3.91-10.488a2.126 2.126 0 00-1.246-2.75z" fill="#7C1315"/><path d="M44.2 26.965a.935.935 0 00-1.203.556l-3.08 8.265-3.338-8.066c-.143-.328-.43-.72-.845-.72H25.69c-.458 0-.83.544-.83 1 0 .456.372 1 .83 1h3.81v9.25c0 .57.417 1.041.99 1.041.574 0 1.01-.47 1.01-1.04V29h3.46l4.14 9.678c.144.357.488.57.86.57h.014a.908.908 0 00.86-.612l3.911-10.488a.905.905 0 00-.544-1.183z" fill="url(#paint2_linear)"/><defs><linearGradient id="paint0_linear" x1="11.268" y1="28" x2="37.821" y2="28" gradientUnits="userSpaceOnUse"><stop offset=".022" stop-color="#FFBC39"/><stop offset=".483" stop-color="#B63725"/><stop offset="1" stop-color="#FFBC39"/></linearGradient><linearGradient id="paint1_linear" x1="18.993" y1="27.994" x2="30.998" y2="27.994" gradientUnits="userSpaceOnUse"><stop stop-color="#FFBC39"/><stop offset=".497" stop-color="#EF4823"/><stop offset="1" stop-color="#FFBC39"/></linearGradient><linearGradient id="paint2_linear" x1="34.834" y1="26.901" x2="34.834" y2="39.278" gradientUnits="userSpaceOnUse"><stop stop-color="#F6881F"/><stop offset="1" stop-color="#B73825"/></linearGradient></defs></svg>