<svg xmlns="http://www.w3.org/2000/svg" width="56" height="56"><path fill="#ED9C25" d="M0 0h56v56H0z"/><path d="M10.33 24H11v3h-.67c-.43-2.25-1.45-2.25-1.68-2.25-.24 0-1.16.13-1.14 1.01.03.9 1.07 1.28 1.69 1.48.6.2 2.28.63 2.3 2.34C11.5 31.3 9.9 32 8.87 32a4.4 4.4 0 01-1.93-.48l-.19.48H6v-3h.7c.55 1.92 1.6 2.24 2.05 2.24.48 0 1.38-.07 1.4-1.12 0-1.05-1.2-1.48-1.8-1.62-.74-.18-2.2-.88-2.14-2.3.09-1.75 1.62-2.2 2.54-2.2.73.01 1.19.26 1.4.41l.18-.41zm3.51 2l-1.84.15v.68h.21c.36 0 .46.37.46.5v2.82c0 1.07.63 1.83 1.62 1.85a2.2 2.2 0 001.6-.68v.43l.2.15 1.91-.15v-.68h-.24c-.46 0-.56-.38-.55-.57v-4.35l-.17-.15-2.04.15v.68h.45c.33 0 .43.3.43.46v3.09c-.1.23-.45.68-1.08.7-.62 0-.79-.58-.79-.93v-4l-.17-.15zm7.69 6h2.9v-.7h-.36c-.36 0-.46-.45-.46-.6v-2.83c0-1.08-.63-1.85-1.61-1.87a2.2 2.2 0 00-1.6.7v-.45l-.2-.15-1.92.15v.69h.25c.45 0 .55.39.54.58v3.25c0 .35 0 .53-.8.53v.7h2.9v-.7h-.34c-.36 0-.43-.3-.43-.47v-3.2c.1-.22.46-.68 1.08-.7.62 0 .8.59.8.94v2.84c0 .26 0 .59-.44.59h-.3v.7zm5.17-8h-1.3v2h-.95v1h.95v3.24c0 1.43.54 1.76 1.4 1.76.63 0 1.25-.32 1.47-.47v-.73c-1.31.46-1.58-.2-1.58-.56V27h1.49v-1h-1.49v-2zm6.66 5c.09-1-.23-3.02-2.19-3-2.44.02-2.67 2.41-2.67 2.97 0 .52.25 3.03 2.67 3.03.59 0 1.72-.27 2.34-1.63l-.6-.41c-.18.36-.6 1.09-1.52 1.1-1.15.02-1.48-1.21-1.52-2.06h3.5zm-3.46-1c.01-.42.27-1.28 1.14-1.28.33 0 .92.22.95 1.28H29.9zm6.51 4c1.21 0 2.05-1.07 2.26-1.6l-.57-.4c-.43.82-1.02 1.08-1.31 1.08-.3 0-1.6-.05-1.6-2.13 0-2 .98-2.25 1.28-2.25a.8.8 0 01.5.19c-.07.13-.2.47-.18.8.03.4.33.74.83.71.51-.02.76-.43.72-.93-.05-.5-.47-1.49-1.87-1.47-1.4.02-2.71 1.12-2.7 2.95.03 1.84 1.06 3.05 2.64 3.05z"/><path d="M40.56 23l-2.15.11v.68c.87-.03 1 .38 1 .66v6.35c0 .4-.17.5-.76.5v.7h2.89v-.7c-.66-.03-.81-.16-.81-.5v-1.2l.26-.28L42.8 32h1.82v-.7c-.54.08-.82-.27-1.05-.58l-1.62-2.31c1.1-1.24 1.76-1.78 2.05-1.8V26h-2.38v.61l.64.2-1.53 1.87v-5.5l-.17-.18z"/><path d="M45.38 32c.58-.87 1.72-3.2 1.67-5.67 0-.68-.35-2.72-1.67-5.4-1.59-3.23-1.2-5.2.22-6.7-.76.84-1.69 2.85-.22 5.37 1.96 3.34 3.24 5.04 3.22 7.81-.02 2.23-.7 3.98-1.03 4.58h-2.19z" fill="#fff"/><path d="M49.14 27.47c-.05 2-.64 3.85-.93 4.53h1.4c.49-2.26.41-3.66.33-4.22a13.84 13.84 0 00-2.91-6.28c.5.84 2.16 3.47 2.1 5.97z" fill="#fff"/></svg>