<svg xmlns="http://www.w3.org/2000/svg" width="56" height="56"><path fill="#ED3237" d="M0 0h56v56H0z"/><path fill-rule="evenodd" d="M7.1 28.57c.2-1.5 2.69-.52 3.22.35-.63.8-2.98 1.15-3.22-.12v-.23zm6.97-6.23l-.98 3.21-.06-.07c-.5-.68-1.94-2.65-2.55-1.8-.18.3.13.62.34.81.96.62 1.81 1.38 2.52 2.26l1.28-.55c1-.5 1.83.22 1.66 1.24-.08.42-.24.78-.4 1.13-.16.38-.33.75-.4 1.2.03.31.39.48.57.23l.5-1.13c.43-.98.92-2.1 1.23-2.87h2.16l-1.47 3.72c-.1.26-.23.63 0 .85l.1.06c.14.08.3.17.28.36-.08.74-1.24 1.14-1.89 1-.19-.05-.37-.2-.54-.34-.2-.17-.4-.33-.6-.3-.22.06-.42.17-.61.28-.34.18-.67.36-1.1.3-1.33-.35-.93-1.34-.5-2.4.24-.59.5-1.2.45-1.75l-.07-.12-.38.1.02.02c.15.56-.4 2-1.05 2.12.03.13.2.61.37 1.1l.3.88-.05.08-1.4-1.28-1.07.66c-2 1.04-4.61.87-6.12-.9a2.62 2.62 0 01.34-3.68 3.98 3.98 0 013.88-.43c.4.13.93.5 1.41.84.53.37 1 .7 1.2.65 0-.97-.97-1.52-1.85-2.02a8.47 8.47 0 01-.85-.52c-.82-.64-1.33-1.4-1.1-2.45.83-2.8 4.75-1.96 6.43-.5zm7.43 7.86l-.04.17h.04c.11-.02.23-.07.34-.12.27-.11.53-.23.78.04l.04.04.1-.03.1-.02c.99-.25 1.47-1.51.97-2.29l-.04-.05-.05-.05c-1.03-.74-2.08 1.37-2.2 2.13l-.04.18zm-1.03-3.07l-2.8 7.86 2.78.01-.4-.45.75-2.77c.07-.2.22-.45.47-.32l.17.21c.53.54 1.34.45 1.98.16a4.3 4.3 0 002.53-3.8v-.24l.53-.3c.3-.23.61-.2.39.23L25.34 32h2.77l-.5-.73.98-2.63c.1-.2.31-.56.57-.35.3.35.76.48 1.2.3l.2-.1c1.44-1.07.67-3.15-1.14-1.95l-.1.08-.1.09-.07-.1c-.9-1.24-2.32-.27-3.15.51l-.13.13-.05-.12c-.56-1.27-1.65-1.35-2.87-.8l-.14.07-.37-.4-2.37.34.4.79zm12.18 1.38c.43.04 1.81.06 1.6-.66l-.05-.1c-.52-.54-1.5.15-1.55.76zm.24 1.07l.48.03c1.88.08 4.74-2.5 1.9-3.55l-.17-.04-.16-.01c-2.1-.13-4.28 2.1-4.33 4.05l.08.54c.75 2.05 3.83 1.6 5.12.07l.44-.51c.21-.21.4-.54.58-.86.19-.33.37-.65.55-.77.24-.13.26.15.2.33L36.34 32h2.07l1.43-3.45c.26-.36 1.17-.8.84.03L39.34 32h2.13l1.36-3.27c.17-.23.9-.87.87-.33l-.01.06c-.08.36-.21.75-.35 1.14-.2.56-.39 1.13-.43 1.66.17 1.6 2.44.2 2.92-.62l.05-.07c.15.48.5.9 1.15 1.18l.32.13c1.92.42 3.32-.26 4.3-1.9l.35-.67c-.29-.12-.56.17-.81.45-.16.17-.3.33-.45.4-.8.42-2.4.64-2.65-.53l.49.03c1.32 0 3.63-1.3 2.95-2.82l-.2-.29c-1.3-1.34-3.66-.09-4.58 1.15-.58.73-1.01 1.65-.95 2.47l-.24.05c.04-.68.23-1.35.44-2l.12-.4c.13-.38.28-.84.2-1.07l-.07-.2c-.35-.54-1.25-.62-1.83-.4l-.09.03-.81.53c-.64-1-2.25-.84-2.94.02l-.11-.19c-.63-.83-2.1-.6-2.64.22l-.05.08-1.64 2.5c-.54.87-2.67 1.6-3.22.42l-.03-.18zm16.57-1.7c.2.72-1.14.72-1.6.67 0-.64 1.05-1.3 1.54-.78l.06.11z" fill="#fff"/></svg>