<svg xmlns="http://www.w3.org/2000/svg" width="56" height="56"><path fill="#F0F3FA" d="M0 0h56v56H0z"/><path d="M27.59 29.96c-.34.19-.79.34-1.34.38-1.73.12-5.19-1.64-5.28-6.6a9.2 9.2 0 01.3-2.42l-.33-.1.15-.49.32.1c.15-.5.36-1.06.64-1.64h-.02v-.98l.43.17c1.08-1.95 2.92-4.17 6.03-6.38a17.52 17.52 0 00-5.52 6.59l.3.13-.62.6c-.22.55-.41 1.13-.56 1.72l.25.08-.15.48-.22-.06c-.15.7-.25 1.44-.27 2.2-.06 1.72.76 5.4 4.55 6.3.25.04.7.03 1.15-.13a2 2 0 01-.7-.39 4.3 4.3 0 01-3.2-2.93c-2.28-7.2 5.77-12.2 9.8-13.5 4.2 1.4 7.27 4.84 8.3 6.38-2.04-.88-7.14-2.27-11.33-.83-5.25 1.8-6.18 6.69-5.36 8.8.3.75.82 1.25 1.37 1.58-.09-.15-.16-.3-.2-.47-.3-.26-.59-.62-.81-1.12-.7-1.58-.24-5.43 4.4-7.21a10.07 10.07 0 016.43-.48l.09-.27L39 20.63c.56-.13 1.77-.14 2.19.9l1.54.18-.17 1.1-1.05.74-.53-1.05c-.62.21-1.98.32-2.3-1.2l-2.88-.67.12-.35a14.01 14.01 0 00-6 .62c-1.65.53-4.82 2.57-4.37 6.43.05.24.2.62.47.98a2.01 2.01 0 01.32-1.42 4.3 4.3 0 011.88-3.83c6.23-4.29 13.36 1.95 15.78 5.43-.11 4.4-2.5 8.35-3.68 9.77.25-2.19.1-7.47-2.52-11.06-3.26-4.48-8.2-3.94-9.98-2.55-.66.53-.99 1.2-1.13 1.84a2 2 0 01.47-.3c.16-.35.4-.71.8-1.06 1.28-1.1 5.02-1.75 8.06 2.13 1.05 1.34 3.07 4.44 1.58 10.95l.43.16-.39 1.22.59.34-.44 1-2.12-1 .54-.88.63.24.37-1.24.35.14c.55-2.97.46-6.85-2.1-10.5-.99-1.4-3.83-3.83-7.32-2.32a2.4 2.4 0 00-.79.74 2 2 0 011.44.05 4.3 4.3 0 014.23.75c5.85 4.8 1.81 13.36-.87 16.64-4.27 1.11-8.73-.1-10.42-.84 2.18-.36 7.22-1.97 9.95-5.46 3.41-4.37 1.54-8.97-.3-10.29a3.18 3.18 0 00-2.2-.57c.14.1.26.2.36.34.42.03.9.16 1.42.5 1.42.91 3.07 4.33.17 8.33-.23.32-1 .94-2.02 1.67-1.23 1.98-4.13 3.07-5.51 3.38-1.31.67-2.46 1.13-3.09 1.13a4.26 4.26 0 01-1.7-.77c-.94-.07-1.78-1.18-2.09-1.72l.06-.06-.52-.5-.58-.58c.38.31.79.64 1.22.96l.03-.03a3.93 3.93 0 012.16 1.57c.5.32.98.58 1.42.77.81-.26 1.82-.65 2.89-1.16a17.74 17.74 0 015.42-3.36 12.6 12.6 0 001.75-1.73c1.07-1.33 2.62-4.73.2-7.67-.19-.2-.6-.5-1.14-.61a2 2 0 01.36 1.3 4.3 4.3 0 01.65 4.24c-2.68 7.07-12.1 6-16.06 4.51-2.42-3.69-2.7-8.3-2.54-10.13 1.04 1.94 4.18 6.2 8.37 7.67 5.23 1.83 9-1.42 9.65-3.58.27-.86.12-1.63-.15-2.26-.03.1-.07.2-.12.29.1.38.13.85 0 1.4-.35 1.65-2.96 4.4-7.73 3.12a9.93 9.93 0 01-5.3-3.6l-.27.2-3.28-4.8-.72-.3v-1.59l1.51.45.13 1 3.27 4.57-.3.22c1.32 1.3 3 2.45 5.16 3.16 1.63.54 5.36.78 7.25-2.51.12-.24.23-.67.19-1.16a2 2 0 01-.98.82c-1 1.75-2.94 2.07-4.02 2.02-7.56-.33-9.49-9.6-9.33-13.83 2.75-3.45 7.04-5.16 8.84-5.59-1.52 1.6-4.59 5.92-4.66 10.35-.1 5.54 4.17 8.09 6.42 8.04a3.5 3.5 0 002.23-.87 2.05 2.05 0 01-.61-.03z" fill="#ED1C24"/></svg>