<svg width="56" height="56" viewBox="0 0 56 56" xmlns="http://www.w3.org/2000/svg"><path fill="#F0F3FA" d="M0 0h56v56H0z"/><path fill-rule="evenodd" d="M13 30h5v3.72L28.06 39 38 33.72V30h1v4.47L28 40.2l-11-5.73V32h-4v5.48L28 45l15-7.52V26h-5v-3.4L28.06 17 18 22.6V26h-1v-3.95l11-6.25 11 6.25V23h4v-3.77L28.02 11 13 19.23V30Zm24-4v-2.9L28.06 18 19 23.1v10.1l9.06 4.8L37 33.2V30h-2.29a7 7 0 1 1 0-4H37Zm-9 8a6 6 0 0 0 5.66-4H22.34A6 6 0 0 0 28 34Zm-5.66-8h11.32a6 6 0 0 0-11.32 0Z" fill="#E31E24"/></svg>