<svg width="56" height="56" viewBox="0 0 56 56" xmlns="http://www.w3.org/2000/svg"><path fill="#F0F3FA" d="M0 0h56v56H0z"/><path fill-rule="evenodd" d="M27.81 11h.38A17 17 0 0 1 45 28.1c0 8.58-6.05 15.68-14.25 16.9v-4.6h-2v-2h-1.5v2h-2V45C17.05 43.78 11 36.68 11 28.1c0-9.68 7.77-17 16.8-17.1h.01Zm.19.5h-.1c-.3.37-.64.78-.99 1.24.45.44.87.9 1.27 1.4l1.02-1.16a42.6 42.6 0 0 0-1.12-1.47H28Zm-2.34.17c.55-.07 1.1-.13 1.66-.15-.24.25-.5.53-.78.88-.28-.26-.57-.5-.88-.73Zm-2.42.54c.56-.17 1.14-.31 1.73-.42.44.3.86.64 1.27 1.01l-.82 1.13c-.66-.59-1.38-1.17-2.18-1.72Zm-2.47.97c.6-.3 1.23-.56 1.87-.78.93.63 1.75 1.28 2.5 1.95-.32.46-.63.93-.94 1.43a24 24 0 0 0-3.43-2.6Zm-2.22 1.31c.55-.38 1.11-.73 1.7-1.04 1.05.62 2.38 1.57 3.68 2.76a36.38 36.38 0 0 0-.77 1.34 18.97 18.97 0 0 0-4.6-3.06Zm-1.7 1.38c.39-.36.8-.7 1.24-1.04a18.3 18.3 0 0 1 4.83 3.18c-.19.35-.37.71-.54 1.07l-.4-.36a15.8 15.8 0 0 0-5.14-2.84Zm-1.84 2c.44-.57.92-1.1 1.42-1.6a15.23 15.23 0 0 1 5.73 3.3c-.2.47-.4.94-.58 1.42a8.47 8.47 0 0 0-1.63-1.33 13.76 13.76 0 0 0-4.94-1.8Zm-1.03 1.47c.22-.35.45-.69.69-1.02 1.39.19 3.36.73 5.01 1.77.64.4 1.23.88 1.72 1.44-.2.61-.37 1.22-.48 1.82a5.62 5.62 0 0 0-2.61-2.7 12.15 12.15 0 0 0-4.33-1.3ZM11.5 28.1c0-3.01.8-5.84 2.2-8.27 1.22.1 2.93.48 4.37 1.27 1.52.83 2.68 2.1 2.68 3.99V43a16.6 16.6 0 0 1-9.25-14.9Zm11.25 15.73c-.51-.17-1.01-.37-1.5-.59V25.08c0-.97.2-2 .52-3.08.6.85.98 1.87.98 3.08v18.74Zm2 .54c-.5-.1-1-.23-1.5-.38v-1.31h1.5v1.69Zm8-.38c-.5.15-1 .28-1.5.38v-1.69h1.5v1.31Zm2-.75c-.49.22-.99.42-1.5.6V25.07c0-1.13.36-2.12.95-3 .35 1.08.55 2.1.55 3v18.15ZM44.5 28.1A16.6 16.6 0 0 1 35.25 43V25.1a5.6 5.6 0 0 1 1.64-3.29c1.07-1.07 2.78-1.95 5.4-2 1.4 2.44 2.21 5.27 2.21 8.3Zm-3.55-10.28c.37.48.72.98 1.05 1.5-2.58.1-4.33 1-5.46 2.14a6.38 6.38 0 0 0-1.43 2.17 13.7 13.7 0 0 0-.55-2.02c.46-.56 1-1.05 1.59-1.5a14.69 14.69 0 0 1 4.8-2.29Zm-1.76-1.9c.5.46.97.95 1.41 1.48a15.19 15.19 0 0 0-4.75 2.31c-.53.4-1.04.85-1.48 1.36-.2-.5-.41-1.02-.65-1.52a14.5 14.5 0 0 1 5.46-3.63Zm-1.29-1.08c.3.22.58.45.86.7a15.07 15.07 0 0 0-5.27 3.52l-.56-1.1c1.7-1.58 3.63-2.62 4.97-3.12Zm-2.16-1.39c.58.31 1.14.66 1.68 1.04a16.72 16.72 0 0 0-4.74 3 59.39 59.39 0 0 0-.7-1.21 18.44 18.44 0 0 1 3.75-2.83Zm-2.34-1.02c.62.21 1.22.46 1.8.75-1 .54-2.1 1.33-3.49 2.66A47.4 47.4 0 0 0 31 14.7c.87-.9 1.7-1.69 2.4-2.28Zm-2.34-.63c.64.12 1.26.28 1.87.47a26.1 26.1 0 0 0-2.22 2.01l-.86-1.25c.44-.46.85-.88 1.21-1.23Zm-1.5.82c.3-.34.6-.64.89-.92-.6-.09-1.2-.15-1.8-.17v.02c.29.3.59.64.9 1.07Zm-2.95.54c-.27.35-.54.73-.82 1.13.45.42.86.85 1.24 1.29l.83-1.04c-.4-.49-.81-.95-1.25-1.38Zm1.56 1.79c-.27.32-.54.66-.8 1.01.32.39.61.77.89 1.16.25-.33.5-.65.77-.96a20.3 20.3 0 0 0-.86-1.21Zm1.2.81a20.6 20.6 0 0 0-.87-1.2c.34-.41.68-.8 1-1.15.28.4.57.81.86 1.25l-1 1.1Zm-.06.85c-.26.3-.5.62-.75.94.26.38.5.76.7 1.14.23-.33.47-.64.7-.94-.2-.39-.42-.77-.65-1.14Zm1 .72c-.21-.38-.43-.75-.66-1.13.33-.38.66-.76 1-1.11l.7 1.11a19.37 19.37 0 0 0-1.04 1.13Zm-.09.9c-.23.3-.46.62-.68.95.24.46.45.91.64 1.35.2-.35.43-.7.67-1.02a28.31 28.31 0 0 0-.63-1.28Zm.97.84a28.99 28.99 0 0 0-.62-1.27 18.24 18.24 0 0 1 1.04-1.16 40.06 40.06 0 0 1 .7 1.21c-.4.38-.77.78-1.12 1.22Zm-.1.97c-.25.35-.47.7-.68 1.08.3.8.5 1.53.64 2.19.16-.6.39-1.18.65-1.72-.18-.5-.39-1.02-.62-1.55Zm.93.97c-.18-.46-.38-.94-.6-1.43.36-.45.74-.88 1.13-1.27.2.38.4.77.58 1.15-.4.48-.78 1-1.11 1.55Zm-.08 1.26c-.37.85-.62 1.8-.69 2.83v6.77h1.5v-6.75a24.9 24.9 0 0 0-.8-2.85Zm.98 1.45c-.18-.63-.4-1.34-.67-2.1a10 10 0 0 1 1.11-1.66c.24.53.46 1.05.64 1.56-.5.65-.87 1.38-1.08 2.2Zm-.17 8.66h-1.5v1.5h1.5v-1.5Zm0 2h-1.5v1.52h1.5v-1.51Zm0 2.02h-1.5v1.5h1.5v-1.5Zm0 2h-1.5v1.52h1.5V38.4Zm0 2.02h-1.5v1.76h1.5V40.4Zm-2-.5V38.4h-1.5v1.5h1.5Zm-1.5-2.01h1.5v-1.51h-1.5v1.5Zm0-2.01h1.5v-1.51h-1.5v1.5Zm-.5-1.51v1.5h-1.5v-1.5h1.5Zm.5-.5h1.5v-1.51h-1.5v1.5Zm-.5-1.51v1.5h-1.5v-1.5h1.5Zm.5-.5h1.5v-1.51h-1.5v1.5Zm-.5-1.51v1.5h-1.5v-1.5h1.5Zm.5-.5h1.5v-4.78c0-.8-.18-1.97-.65-3.35a9.55 9.55 0 0 0-.85 3.36v4.76Zm-.2-6.63c.2-.76.47-1.48.81-2.15-.18-.46-.39-.93-.64-1.42-.3.5-.6 1.02-.85 1.57.3.65.52 1.31.67 2Zm-.95-2.58c.26-.52.55-1.02.85-1.5-.21-.4-.45-.79-.71-1.18-.33.44-.64.9-.93 1.35.29.43.55.88.79 1.33Zm-1.08-.85c.3.46.57.94.8 1.43-.33.75-.6 1.53-.8 2.35a9.87 9.87 0 0 0-.83-2.21c.24-.53.52-1.05.83-1.57Zm-.02-.92c.3-.46.61-.91.94-1.35-.27-.39-.56-.78-.88-1.16a32.53 32.53 0 0 0-.96 1.36c.31.37.62.75.9 1.15Zm-1.19-.71c.32.37.62.76.9 1.17-.3.49-.57.99-.82 1.49-.27-.46-.57-.89-.89-1.3.26-.46.53-.92.81-1.36Zm-.05-.83.03-.05c.3-.45.62-.9.93-1.32a19.6 19.6 0 0 0-1.22-1.27c-.3.45-.62.93-.92 1.42.4.39.8.8 1.18 1.22Zm-1.45-.78c.38.37.76.76 1.13 1.17l.03.04c-.28.44-.55.88-.8 1.34-.35-.41-.71-.8-1.08-1.16l-.05-.04a32.68 32.68 0 0 1 .77-1.35Zm-1.01 1.8c-.19.37-.37.73-.54 1.1.4.39.76.82 1.08 1.28.17-.4.36-.78.57-1.16a14.6 14.6 0 0 0-1.11-1.21Zm1.44 1.65c-.2.41-.4.82-.58 1.23.36.6.65 1.25.84 1.95.15-.6.37-1.2.63-1.8-.26-.48-.56-.94-.89-1.38Zm1.19 1.96a8.44 8.44 0 0 0-.68 3.1v4.78h1.5V25.1a8.87 8.87 0 0 0-.82-3.12Zm1.32 3.12c.14-1.14.44-2.22.85-3.23.4 1.03.65 2.11.65 3.22v2.76h-1.5V25.1Zm0 3.26v1.5h1.5v-1.5h-1.5Zm-.5 2h-1.5v1.51h1.5v-1.5Zm0 2.02h-1.5v1.5h1.5v-1.5Zm0 2h-1.5v1.52h1.5v-1.51Zm0 2.02h-1.5v1.5h1.5v-1.5Zm2 1.5v-1.5h-1.5v1.5h1.5Zm-2 .5h-1.5v1.52h1.5V38.4Zm-2 1.52V38.4h-1.5v1.5h1.5Zm-1.5.5v1.76h1.5V40.4h-1.5Zm0-2.51h1.5v-1.51h-1.5v1.5Zm0-2.01h1.5v-1.51h-1.5v1.5Zm0-2.02h1.5v-1.5h-1.5v1.5Zm0-2h1.5v-6.8c0-1.2-.31-2.28-.83-3.24a9.34 9.34 0 0 0-.67 3.25v6.78Zm-.28-8.61c.14-.65.36-1.31.63-1.98-.3-.48-.66-.92-1.06-1.34-.21.5-.4.99-.58 1.48.43.54.78 1.15 1 1.84Z"/></svg>