<svg width="56" height="56" viewBox="0 0 56 56" xmlns="http://www.w3.org/2000/svg"><path fill="#F0F3FA" d="M0 0h56v56H0z"/><path d="M12.19 30.9c-.46 1.1-1.63 1.79-2.84 2a7.2 7.2 0 0 1-2.85-.08 4.2 4.2 0 0 1-1.4-.61c-.5-.33-1.49-1.35-.94-1.98.14-.16.3-.26.5-.3.56-.09.8.42 1.01.79.31.55.88.92 1.51 1.1.77.2 1.87.17 2.53-.32.45-.32.63-.94.43-1.43a.89.89 0 0 0-.48-.5c-.23-.09-.49-.17-.77-.24-.52-.11-1.1-.22-1.75-.32a5.9 5.9 0 0 1-1.67-.56 2.45 2.45 0 0 1-1.16-2c-.02-.31 0-.6.06-.9.25-1.2 1.3-2.03 2.5-2.36a6.46 6.46 0 0 1 4.23.39.9.9 0 0 1 .5.64c.07.33.07.65 0 .97-.03.13-.1.25-.25.3-.42.12-.7-.19-.89-.5a2.16 2.16 0 0 0-1.94-1.04c-.27 0-.51.02-.74.07-.65.16-1.14.55-1.2 1.22-.04.48.14.88.6 1.06.22.09.45.16.7.22.42.1.85.19 1.3.26.4.06.79.14 1.16.25 1.05.28 1.85 1 2.03 2.02.12.65.06 1.26-.18 1.85ZM38.74 27.66l.03-.03c.36-.46.72-.97 1.08-1.53.23-.36.42-.7.58-1.05a3 3 0 0 0 .2-.53c.16-.62-.78-.47-.67-1.11.05-.3.32-.4.59-.4h1.8c.25 0 .52.1.56.38.08.53-.46.64-.67 1.03-.8 1.48-1.7 2.91-2.72 4.3a.33.33 0 0 0-.06.2v2.57c0 .42.3.43.57.62a.5.5 0 0 1 .21.49c-.04.36-.4.4-.7.4h-2.76c-.16 0-.43-.07-.52-.25a.5.5 0 0 1-.04-.22c0-.36.32-.5.58-.64.17-.09.2-.32.2-.5v-2.2c0-.07 0-.14-.05-.2a25.5 25.5 0 0 1-2.8-4.22 2.5 2.5 0 0 0-.71-.79c-.17-.14-.27-.36-.19-.58.12-.32.41-.4.73-.4h2.46c.26 0 .56.13.6.4.07.36-.2.54-.42.76-.12.12-.01.28.05.4.23.48.52.97.87 1.49a27.72 27.72 0 0 0 1.2 1.61ZM16.7 30.64c.4 1 1.28 1.32 2.3 1.27.6-.03 1.17-.2 1.58-.6.37-.37.6-.95.67-1.46.07-.44.1-.93.1-1.48a28.59 28.59 0 0 0-.22-3.35 5.14 5.14 0 0 0-.12-.65c-.12-.41-.76-.4-.85-.85a.4.4 0 0 1 .19-.42c.13-.08.32-.1.47-.1h1.55c.37 0 .86.01.84.49-.03.5-.67.4-.68.96 0 .2.01.38.03.54.14 1.35.27 2.69.25 4.03 0 1.45-.53 2.82-1.92 3.48a6.1 6.1 0 0 1-2.7.5 5.93 5.93 0 0 1-2.5-.5 2.98 2.98 0 0 1-1.6-1.83 5.32 5.32 0 0 1-.24-1.77c0-.6.03-1.14.07-1.64l.19-2.14c.02-.28.08-.8-.2-.98-.19-.12-.45-.23-.5-.46-.1-.47.27-.68.7-.68h2.45c.29 0 .77.03.87.36.1.31-.03.54-.3.69-.13.06-.31.15-.38.28-.06.13-.1.28-.14.46-.2 1.03-.23 2.05-.25 3.14-.02.94 0 1.89.33 2.71Z" fill="#EC161A"/><path fill-rule="evenodd" d="m27.44 29.05.01-.27c0-.02.02-.03.03-.03a10.2 10.2 0 0 0 1.66-.16l.02.01c.42.63.79 1.3 1.1 1.98.17.37.37.84.38 1.24 0 .13-.07.23-.2.3-.25.12-.36.3-.33.53.03.29.32.35.56.35h2.66c.15 0 .33-.01.47-.07a.26.26 0 0 0 .16-.17c.09-.27-.03-.5-.26-.63a6.79 6.79 0 0 0-.06-.03c-.13-.07-.27-.15-.33-.3-.25-.66-.47-1.21-.65-1.64a18.33 18.33 0 0 0-1.15-2.32l.01-.01c.7-.32 1.31-.74 1.62-1.47.28-.65.3-1.5-.05-2.14-.6-1.12-2.2-1.22-3.3-1.22h-4.98c-.2 0-.47.03-.54.26-.1.3.03.52.3.65h.02c.13.07.31.16.34.3.04.16.07.32.07.49v6.63c0 .24-.04.56-.26.68l-.08.05c-.16.08-.35.18-.4.34-.05.19-.01.45.2.53.1.05.21.07.33.07h2.83c.13 0 .26-.03.38-.08.16-.06.17-.31.16-.45-.04-.22-.2-.29-.37-.36-.18-.07-.35-.14-.35-.37v-2.7Zm3.44-3.43c.03-.6-.16-1.15-.74-1.39a4.25 4.25 0 0 0-2.3-.14c-.29.07-.4.36-.4.63a230.29 230.29 0 0 0 .03 2.81c.64-.01 1.25-.1 1.82-.24.84-.23 1.54-.72 1.6-1.67ZM44 31.47c.12-.53.25-.94.45-1.47h3.68c.21.55.37.99.5 1.56.06.2.06.36-.13.5-.24.2-.44.43-.28.73.08.15.3.2.47.2l2.55.01c.15 0 .3-.02.43-.05.36-.08.43-.45.2-.68l-.2-.16c-.13-.1-.26-.2-.32-.39a48.27 48.27 0 0 0-3.22-7.9c-.2-.36-.45-.72-.9-.8a2.27 2.27 0 0 0-.41-.02c-.61.02-1.03.64-1.28 1.1-.8 1.47-1.37 2.9-2.04 4.71-.28.76-.56 1.52-.83 2.3l-.24.6-.05.11a.5.5 0 0 1-.15.2l-.1.09c-.23.16-.51.37-.35.67.09.16.28.21.45.22h1.98c.17 0 .32-.1.36-.28.05-.2-.03-.38-.23-.52l-.06-.04c-.13-.09-.29-.2-.32-.34-.01-.08 0-.2.03-.35Zm2.28-6.08-.16.34a33.41 33.41 0 0 0-1.19 2.9l.02.01h2.69v-.02a29.63 29.63 0 0 0-1.33-3.24.03.03 0 0 0-.03.01Z" fill="#EC161A"/></svg>