<svg xmlns="http://www.w3.org/2000/svg" width="56" height="56" viewBox="0 0 56 56"><path fill="#F0F3FA" d="M0 0h56v56H0z"/><path d="M9.82 21c3.67.03 4.4 2.68 4.32 4H12.7a2.85 2.85 0 0 0-2.88-2.71C7.5 22.29 7 23.72 7 24.35c0 .62 0 2 3.74 2.5 3 .4 3.76 2.31 3.76 3.22 0 1.35-.48 3.93-4.45 3.93-4.43 0-5.1-2.5-5.05-4h1.5c-.02 1.45.77 2.65 3.55 2.73 2.22.06 2.95-1.41 2.95-2.12 0-.88-.3-2.2-3.6-2.64-3.3-.43-4.01-2.48-3.96-3.44-.07-1.2.71-3.56 4.38-3.53zM16 21h1.5v8.12a3.5 3.5 0 0 0 7 0V21H26v13h-1.5v-2.58A4.47 4.47 0 0 1 16 29.5V21z"/><path d="M29.5 21H28v3.5h-1v1.21h1v5.46C28 33.4 29.49 34 30.42 34h1.17v-1.34h-1c-.93-.04-1.1-.9-1.09-1.33v-5.62H31V24.5h-1.5V21z" fill="#DB2128"/><path d="M34 21h-1.5v10.17c0 2.23 1.48 2.83 2.41 2.83H36v-1.34h-.91c-.93-.04-1.1-.9-1.09-1.33V21zM48.5 21H50v10.17C50 33.4 48.52 34 47.6 34h-1.17v-1.34h.99c.93-.04 1.1-.9 1.08-1.33V21z"/><path fill-rule="evenodd" d="M41.25 21A5.25 5.25 0 0 0 36 26.25v2.5a5.25 5.25 0 0 0 10.43.84h-1.48a3.75 3.75 0 0 1-7.45-.64V28h9v-1.75c0-2.9-2.35-5.25-5.25-5.25zM45 26.72v-.67a3.75 3.75 0 1 0-7.5 0v.67H45z"/></svg>