<svg width="56" height="56" viewBox="0 0 56 56" xmlns="http://www.w3.org/2000/svg"><path fill="#F0F3FA" d="M0 0h56v56H0z"/><path d="M24.62 27.82c-2.41-3.03-7.92-1.2-10.12-2.15.4.34 1.68 1 4.02 1.27.94.1 4.53-.2 6.1.88Zm-1.16-.08c-1.07-.36-3.25.17-4.82-.35 1.28 1.39 5.56-.06 6.48 2.57-.15-.86-.3-1.78-1.66-2.22Zm3.08-5.6.04-.01.43 1.15h2.1l.54-1.1.05.02c.04 0 .08-.04.08-.09a.08.08 0 0 0-.08-.08.08.08 0 0 0-.08.08c0 .02 0 .04.02.06l-.68.52.07-.9h.02c.04 0 .08-.03.08-.08a.08.08 0 0 0-.08-.08.08.08 0 0 0-.08.08c0 .03.01.06.03.07l-.52.78-.38-1.27c.07 0 .14-.07.14-.15a.14.14 0 0 0-.14-.14.14.14 0 0 0-.14.14c0 .08.05.14.12.15l-.44 1.18-.4-.68a.08.08 0 0 0 .06-.08.08.08 0 0 0-.08-.08.08.08 0 0 0-.08.08c0 .05.03.08.07.09v.79l-.62-.47a.08.08 0 0 0 .03-.06.08.08 0 0 0-.08-.09.08.08 0 0 0-.09.09c0 .04.04.08.09.08Zm-7.65.12c-.42-.55-1.95-.96-2.41-1.04-2.78-.43-6.62.41-9.18-.45 1.9 2.1 9.75.7 11.6 1.49Zm-7.65 1.51c.57.74 2.5 1.48 5.2 1.47 2.2 0 5.5-.3 7.16 1.1-2.24-3.67-10.88-1.34-12.36-2.57Zm2.95-3.09c-.87-.4-2.75-.55-3.94-.59a7.98 7.98 0 0 1-4.38-1.25c2.02 2.8 7.22 1.81 8.32 1.84Zm6.76 3.09c-.47-.6-2.14-1.06-2.64-1.13-3.05-.48-7.25.44-10.05-.5 2.09 2.3 10.67.76 12.69 1.63Zm6.03-.34.03.2a8.74 8.74 0 0 1 2.11 0l.03-.22a8.86 8.86 0 0 0-2.17.02Zm.97 14.69-.29.47-.29.47.3.47.28.47.3-.47.28-.47-.29-.47-.29-.47ZM38.14 22.4c-.5.08-2.18.54-2.65 1.13 2.03-.86 10.6.67 12.69-1.63-2.8.95-7 .03-10.04.5ZM39.96 21c-.46.07-1.99.49-2.41 1.03 1.85-.79 9.68.61 11.59-1.49-2.56.87-6.4.02-9.18.46Zm2.3-.54c1.1-.03 6.3.95 8.32-1.84a7.98 7.98 0 0 1-4.39 1.25c-1.18.03-3.06.19-3.94.59ZM31.8 27.58c1.57-1.07 5.17-.77 6.1-.88 2.34-.26 3.62-.92 4.02-1.26-2.2.94-7.7-.88-10.12 2.14Zm8.18-2.57c2.7 0 4.63-.74 5.2-1.47-1.48 1.22-10.12-1.1-12.36 2.57 1.66-1.41 4.97-1.1 7.16-1.1ZM51 17c-3.86 2.8-10.06 1.13-14.25 3.06-3.8 1.75-4.97 4.85-6.32 6.05-.86.76-1.5.17-1.48-.2.05-.85.52-1.22 1.28-.76.27-1.06-.88-.84-1.32-.8 0-.4-1.12-.56-1.82-.53.25.75-.16.6-.16.85-.08.42.1.86.06 1.28-.14 1.27-1.14.41-1.41.12-2.1-2.3-2.22-4.72-8.3-6.57-3.87-1.18-7.5.35-12.28-2.49 4.1 4.08 10.4 2.31 14.03 4.52 1.2.73 4.4 3.17 6.18 5.53.6.8.5 1.66.42 3.32l2.4 1.9 2.3-1.84c-.03-2.56.22-2.85.98-3.8C39.24 16.76 46.81 21.89 51 17ZM37.78 27.14c-1.57.53-3.74 0-4.82.35-1.36.45-1.5 1.36-1.66 2.23.92-2.64 5.2-1.19 6.48-2.58ZM12.51 35a4.31 4.31 0 0 1-.8-.38c-.67-.48.24-.86.7-.86.4 0 .78.06 1.13.18l.14-.82a5.7 5.7 0 0 0-1.27-.12c-1.24 0-1.92.5-1.92 1.35 0 .78.64 1.2 1.29 1.46.39.15 1.15.37 1.15.9 0 .37-.34.5-1.17.5-.37 0-.77-.06-1.19-.2l-.19.82c.43.11.89.17 1.38.17 1.46 0 2.19-.48 2.19-1.44 0-.85-.72-1.3-1.44-1.57Zm31.46-2H42.5c0 .15-.3 1.04-.9 2.51-.6 1.48-.91 2.4-.91 2.49h1.17c0-.17.12-.77.36-1.5h1.8c.23.75.35 1.34.35 1.5h1.25c0-.13-.28-1.06-.83-2.52a18.27 18.27 0 0 1-.82-2.48Zm-1.56 2.79c.45-1.27.68-1.96.68-2.06h.07c0 .1.22.8.66 2.06h-1.41ZM39.67 33l-.95 2.46h-.07L37.68 33h-1.22l1.58 3.24c0 .55-.02 1.22-.05 1.76h1.06a32.4 32.4 0 0 1-.05-1.74L40.76 33h-1.1Zm-8.92 0h-1.49l-1.19 3.69-.9-3.69h-1.65l-.42 5h1.03l.18-4.1h.06l1.24 4.1h.86l1.29-4.1h.06l.16 4.1h1.14l-.37-5Zm4.17 0h-1.47c0 .15-.3 1.04-.9 2.51-.61 1.48-.92 2.4-.92 2.49h1.17c0-.17.12-.77.37-1.5h1.8c.23.75.35 1.34.35 1.5h1.24c0-.13-.27-1.06-.82-2.52a18.27 18.27 0 0 1-.82-2.48Zm-1.57 2.79c.46-1.27.69-1.96.69-2.06h.06c0 .1.22.8.67 2.06h-1.42ZM18 35.47c0 .82-.04 1.77-.98 1.77-.93 0-1.02-.97-1.02-1.76V33h-1v2.5c0 1.44.55 2.5 2 2.5 1.31 0 2-.82 2-2.45V33h-1v2.47ZM23 35.47c0 .82-.04 1.77-.98 1.77-.93 0-1.02-.97-1.02-1.76V33h-1v2.5c0 1.44.55 2.5 2 2.5 1.31 0 2-.82 2-2.45V33h-1v2.47Z" fill="#663332"/></svg>