<svg width="56" height="56" viewBox="0 0 56 56" xmlns="http://www.w3.org/2000/svg"><path fill="#F0F3FA" d="M0 0h56v56H0z"/><path d="M29.85 20.95c-.05.36.03.67.24.93 1.62 1.96 3.3 3.94 5.04 5.95.26.31.5.63.73.95 1.65 2.34 3.24 5.05 3.14 8.04-.2 5.6-5.59 10.12-10.8 10.18-5.83.07-11.04-4.44-10.86-10.66.08-2.56.84-4.93 2.3-7.1.19-.28.4-.53.66-.76a.57.57 0 0 0 .06-.78 19.46 19.46 0 0 1-2.77-4.9c-2.2-5.64 2.02-12.92 7.86-13.68 1-.13 2.02-.15 3.05-.08 4.7.34 10.08 4.5 9.86 9.8-.12 3-.78 6.12-2.9 8.3a.33.33 0 0 1-.25.1.33.33 0 0 1-.24-.11 494.57 494.57 0 0 0-3.32-4.07c-.59-.71-1.26-1.3-1.69-2.13-.05-.1-.09-.1-.1.02Z" fill="url(#adrhxdmow)"/><path d="m20.08 28.69.22-.21a.57.57 0 0 0 .17-.53h14.76c.23.27.44.55.63.83 1.65 2.34 3.24 5.05 3.14 8.04-.2 5.6-5.59 10.12-10.8 10.18-2.66.03-5.2-.89-7.14-2.5l-.98-15.81Z" fill="url(#bdrhxdmow)"/><path d="M22.04 45.23a10.11 10.11 0 0 1-4.7-8.9c.08-2.55.84-4.92 2.3-7.1.19-.27.4-.52.66-.75a.56.56 0 0 0 .09-.11l9.37 9.07-7.72 7.79Z" fill="url(#cdrhxdmow)"/><defs><linearGradient id="adrhxdmow" x1="37.96" y1="15.82" x2="29.21" y2="21.83" gradientUnits="userSpaceOnUse"><stop stop-color="#F5BF41"/><stop offset="1" stop-color="#DD5527"/></linearGradient><linearGradient id="bdrhxdmow" x1="25.62" y1="28.7" x2="29.76" y2="40.26" gradientUnits="userSpaceOnUse"><stop stop-color="#DD5628"/><stop offset="1" stop-color="#A32317"/></linearGradient><linearGradient id="cdrhxdmow" x1="18.59" y1="32.75" x2="26.8" y2="39.71" gradientUnits="userSpaceOnUse"><stop stop-color="#81181E"/><stop offset="1" stop-color="#A92819"/></linearGradient></defs></svg>