<svg xmlns="http://www.w3.org/2000/svg" width="56" height="56"><path fill="#F0F3FA" d="M0 0h56v56H0z"/><path d="M5 25.5c0-.83.67-1.5 1.5-1.5H12v2H7v1h4a1 1 0 011 1v2.5c0 .83-.67 1.5-1.5 1.5H5v-2h5v-1H6a1 1 0 01-1-1v-2.5zM15 24h-2v6.5c0 .83.59 1.5 1.31 1.5h4.38c.72 0 1.31-.67 1.31-1.5V24h-2v6h-3v-6zm6 0h7v2l-4.36 4H28v2h-7v-2l4.43-4H21v-2zm10 0h-2v8h6v-2h-4v-6z" fill="#00978D"/><path fill-rule="evenodd" d="M37.5 24c-.83 0-1.5.67-1.5 1.5v5c0 .83.67 1.5 1.5 1.5h4c.83 0 1.5-.67 1.5-1.5v-5c0-.83-.67-1.5-1.5-1.5h-4zm3.5 2h-3v4h3v-4z" fill="#00978D"/><path d="M46 27.06V32h-2v-8h2l3 5v-5h2v8h-2l-3-4.94z" fill="#00978D"/></svg>