<svg width="56" height="56" viewBox="0 0 56 56" xmlns="http://www.w3.org/2000/svg"><path fill="#F0F3FA" d="M0 0h56v56H0z"/><path d="M52 23h-2v6.27c0 .4-.3.73-.67.73H48v2h2.5c.83 0 1.5-.74 1.5-1.65V23ZM21 23h2v6.98c0 1.12-.84 2.02-1.88 2.02H13v-9h2v7h2v-7h2v7h1.57c.24 0 .43-.2.43-.46V23Z" fill="#269147"/><path fill-rule="evenodd" d="M29.91 32H31v-7.35c0-.91-.63-1.65-1.4-1.65h-5.1v2h3.88c.34 0 .62.33.62.73V26h-2a3 3 0 0 0 0 6h2.91ZM29 30v-2h-2a1 1 0 1 0 0 2h2ZM45.91 32H47v-7.35c0-.91-.63-1.65-1.4-1.65h-5.1v2h3.88c.34 0 .62.33.62.73V26h-2a3 3 0 0 0 0 6h2.91ZM45 30v-2h-2a1 1 0 1 0 0 2h2ZM32 23h4a3 3 0 0 1 1.85 5.37h.1c.35.11 1.05.54 1.05 1.43V32h-2v-1.93c-.04-.35-.28-1.07-.93-1.07H34v3h-2v-9Zm2 4v-2h2a1 1 0 1 1 0 2h-2Z" fill="#269147"/><path d="M11.63 23v2H6.71c-.39 0-.7.42-.7.8 0 .38.31.7.7.7h3.27a2 2 0 0 1 2.02 2v1.2A2.3 2.3 0 0 1 9.7 32H4.46v-2h4.88c.36 0 .64-.4.64-.76 0-.35-.28-.74-.64-.74H6.02C4.9 28.5 4 27.7 4 26.59v-1.3A2.3 2.3 0 0 1 6.3 23h5.33Z" fill="#269147"/></svg>