<svg width="56" height="56" viewBox="0 0 56 56" xmlns="http://www.w3.org/2000/svg"><path fill="#F0F3FA" d="M0 0h56v56H0z"/><path d="m24.16 25.29-3.68-3.04a3.48 3.48 0 0 1-.96-2.1 3.5 3.5 0 0 1 .53-1.94l.09-.14L28.98 9l4.67 4.64-6.07 6.14c-.2.26-.42.53.2 1.17l.59.6-4.21 3.74Zm-3.32-6.61c-.28.43-.41.93-.4 1.43.07.57.32 1.1.7 1.52l3.01 2.44 2.9-2.57a1.58 1.58 0 0 1-.61-1.13 1.55 1.55 0 0 1 .43-1.2l.37-.38.79-.8 4.33-4.35-3.38-3.34-8.14 8.38ZM24.15 47l-4.6-5 9.4-9.46 3.24 2.84c.38.4.65.9.78 1.44.09.53-.04 1.08-.36 1.52l-.09.11L24.15 47Zm-3.31-4.98 3.31 3.65 7.67-7.83c.19-.25.27-.55.23-.86-.1-.36-.3-.7-.57-.96l-2.47-2.19-8.17 8.19ZM13 25.42l11.15 10.49 4.83-4.9 4.9 4.93L45 25.45l-4.6-4.83-6.53 5.89-4.89-4.48-4.83 4.45-6.54-5.86-4.61 4.8Zm20.87 9.22-4.89-4.95-4.8 4.95-9.86-9.18 3.34-3.54 6.5 5.83 4.82-4.45 4.89 4.45 6.46-5.84 3.35 3.54-9.8 9.19Z" fill="#E05C2E"/></svg>