<svg xmlns="http://www.w3.org/2000/svg" width="56" height="56"><path fill="#B2CC35" d="M0 0h56v56H0z"/><path d="M15.63 35.5h32.9c1.08 0 1.97-.85 1.97-1.92v-9.16c0-1.04-.87-1.92-1.96-1.92H5.04s-1.21.2 0 2.1l4.33 6.92 1.3 2.14s1.06 1.84 2.85 1.84h2.1z" fill="#fff" stroke="#fff"/><path d="M38.43 29.12a2.32 2.32 0 00-2.3-2.31 2.3 2.3 0 00-2.32 2.3 2.3 2.3 0 002.31 2.32 2.32 2.32 0 002.31-2.31zm-27.78 1.1V31h3.14s1.6.05.77-1.4l-2.06-3.3s-.31-.52.32-.52H14V25h-2.58s-1.54-.08-.86 1.38l2.14 3.34s.4.5-.11.5h-1.94z" fill="#005CD7"/><path d="M13.67 27h.8l1.85 3.2V27h1.35v6h-1.32v-1.53L13.67 27zM43 27h.78l1.88 3.2V27H47v6h-1.31v-1.53L43 27zm-24.6 4v-4h5.46s.63-.11.63.55V31H23.2v-3.27h-1.08V31h-1.34v-3.27h-1.12V31h-1.25zM39 27h3.08s.69-.07.63.55V31h-1.29v-3.28h-1.08V31H39v-4zm-9.32 4H31v-3.23h.87s.13 0 .13.2V31h1.33v-3.37s.08-.63-.63-.63H31v-2h-1.32v6z" fill="#005CD7"/><path d="M34.55 25.6s-.14 1.52 1.03 2.4c0 0 .12.06.03.43s.43.74.6.77c0 0 .2.17-.06.29 0 0 .29 0 .2.23l-.23.2c-.14.08-.31.2-.34.25-.03.06-.14.15-.37 0-.2-.14-.4-.14-.4-.14s-.06-.11.09-.14h.45s.06-.09-.03-.12c-.13-.04-.72-.24-1-.51 0 0-.05-.11.03-.11l.29.02s.06-.02-.17-.14c-.2-.08-.86-.83-.86-1.45 0 0 .09-.03.17 0l.05.01c.04.02.05.03.1-.04l-.01-.06c-.06-.27-.28-1.39.43-1.88zm2 3.52h.32l.17.11c.05.06.31.26.31.26l-.54.06s-.12.02-.2.1c-.09.12-.26.27-.26.27s-.2.05-.06.08c.15.03.97 0 .97 0s.18-.06.2-.11c.03-.06-.3-.09-.3-.09s-.1-.11.02-.11h.4s.54-.12.74-.63h-.31s-.09-.09 0-.09c.08-.02.6-.37.74-.8 0 0-.69.43-1.03.5l-.8.1s-.23-.02-.34.06c0 0-.09.2-.03.29zm-.2.28c.06-.03 0-.17 0-.17 0-.08.52 0 .52.03.05 0 .2.2.2.2l-.35-.03c-.08 0-.25.23-.25.23l.02-.17c0-.09-.14-.09-.14-.09z" fill="#B2CC35"/><path d="M28.22 27h-3v6h1.23v-2h1.74s.66.09.66-.57v-2.88s0-.55-.63-.55zm-.68 3.43h-1.06v-2.6h1.06v2.6z" fill="#005CD7"/></svg>