<svg width="56" height="56" xmlns="http://www.w3.org/2000/svg"><path fill="#005BAA" d="M0 0h56v56H0z"/><path d="M26.554 33.984a10.141 10.141 0 01-1.052-.095 7.484 7.484 0 01-1.007-.212 4.36 4.36 0 01-.442-.148.314.314 0 01-.053-.028l.443-1.409c.359.12.709.25 1.065.351a3.74 3.74 0 001.65.12 1.933 1.933 0 001.47-1.055 6.66 6.66 0 00.508-1.41c.034-.125.065-.249.1-.372h-.029l-.065.096a2.519 2.519 0 01-1.94 1.187 2.492 2.492 0 01-1.057-.086 2.179 2.179 0 01-1.436-1.465 4.166 4.166 0 01-.173-1.968 4.472 4.472 0 01.808-2.105 3.108 3.108 0 012.068-1.317 2.52 2.52 0 012.343.677c.118.123.217.265.341.418l.204-.98H32c-.087.39-.173.774-.257 1.162-.37 1.709-.737 3.423-1.102 5.144a5.641 5.641 0 01-.84 2.102 2.893 2.893 0 01-1.204 1.037 3.485 3.485 0 01-.758.252c-.176.037-.35.061-.526.086-.175.024-.35.035-.527.034l-.232-.016zm-.201-5.895c-.011.333.057.662.198.963a.945.945 0 00.7.564 1.557 1.557 0 001.452-.45 3.118 3.118 0 00.755-2.836 1.174 1.174 0 00-.449-.718 1.188 1.188 0 00-.817-.233 1.45 1.45 0 00-1.146.615 3.574 3.574 0 00-.693 2.096zm-15.251 5.913h-.046c-.053 0-.107-.016-.161-.016l-.38-.053c-.17-.032-.337-.075-.515-.116l.36-1.357c.17.044.328.094.49.125a.985.985 0 00.55-.023c.178-.06.34-.17.469-.318.23-.267.66-.925.66-.925s-.014-.063-.023-.122a412.84 412.84 0 00-.501-3.294l-.45-2.955-.142-.94h1.665c.197 1.728.397 3.457.6 5.187h.029c.023-.044.048-.082.07-.126l2.382-4.951.068-.113H18c-.017.04-.036.08-.057.119l-4.264 8.038a4.327 4.327 0 01-.969 1.31 2.266 2.266 0 01-.646.383 2.513 2.513 0 01-.83.15l-.132-.003zM4 30.517l.453-1.441c.393.14.774.288 1.164.415.539.182 1.12.21 1.674.077.311-.069.591-.232.799-.467a1.146 1.146 0 00.155-1.34 1.192 1.192 0 00-.316-.363 8.355 8.355 0 00-.748-.493c-.357-.222-.735-.415-1.07-.663a1.984 1.984 0 01-.656-.826 1.915 1.915 0 01-.13-1.035c.117-1.153.838-1.836 1.943-2.182a4.941 4.941 0 011.632-.193c.664.01 1.323.12 1.951.328l.149.058-.429 1.4c-.26-.091-.506-.195-.765-.264a3.16 3.16 0 00-1.74-.081c-.174.045-.34.116-.492.21a.855.855 0 00-.256.237.824.824 0 00-.131.659.826.826 0 00.146.312c.132.173.293.324.477.447.28.196.596.354.879.536.25.147.491.308.723.481.26.199.472.452.618.74.146.288.223.605.225.926a2.806 2.806 0 01-.384 1.61 2.752 2.752 0 01-1.6 1.154c-.734.22-1.508.29-2.272.207a7.921 7.921 0 01-1.922-.418L4 30.517zm29.49-2.476c-.044.82.29 1.503 1.178 1.656a4.225 4.225 0 002.451-.358l.093-.042.04-.015c-.017.13-.031.259-.052.382-.043.3-.09.576-.133.862l-.018.111a6.266 6.266 0 01-2.422.36 3.005 3.005 0 01-2.009-.82 2.52 2.52 0 01-.697-1.532 4.31 4.31 0 01.156-1.849 4.206 4.206 0 01.916-1.596 3.37 3.37 0 012.192-1.166 3.224 3.224 0 011.742.25c.326.142.61.37.825.662.215.291.352.636.398.999.084.6.065 1.21-.055 1.802l-.053.3H33.49v-.006zm.223-1.177h2.857c.027-.211.037-.424.03-.637a.92.92 0 00-.207-.593.864.864 0 00-.531-.308 2.23 2.23 0 00-.761 0 1.884 1.884 0 00-.91.56 1.987 1.987 0 00-.478.978zm18.135 1.182h-4.58c-.002.105.004.21.018.314.028.28.122.548.273.782.125.184.297.328.496.417.138.062.282.106.43.132a4.19 4.19 0 002.45-.36l.134-.057c-.066.444-.212 1.355-.212 1.355l-.095.03a7.76 7.76 0 01-1.452.315 4.533 4.533 0 01-1.644-.108 2.42 2.42 0 01-1.332-.791 2.555 2.555 0 01-.608-1.457 4.29 4.29 0 01.438-2.497 4.108 4.108 0 011.758-1.774 3.321 3.321 0 012.703-.102c.363.134.68.371.918.684.237.313.383.69.42 1.085a6.169 6.169 0 01-.115 2.032zm-4.356-1.2h2.779c.072 0 .104-.032.104-.101a5.337 5.337 0 000-.648.892.892 0 00-.216-.521.845.845 0 00-.48-.276 1.936 1.936 0 00-.526-.033 1.49 1.49 0 00-.976.396 2.838 2.838 0 00-.673 1.196l-.012-.012zm-3.212 4.153h-1.7c.047-.243.094-.482.139-.722.21-1.068.43-2.149.622-3.205.06-.308.073-.624.041-.936a.887.887 0 00-.292-.555.83.83 0 00-.576-.207 1.473 1.473 0 00-.768.172 1.538 1.538 0 00-.582.547 3.788 3.788 0 00-.53 1.372c-.243 1.145-.477 2.293-.712 3.442 0 .033-.02.098-.02.098h-1.7l1.41-6.834h1.634l-.115.684c.056-.046.089-.067.115-.095.405-.39.914-.645 1.46-.73.842-.099 1.597.082 2.119.84a2.193 2.193 0 01.347 1.59c-.122.815-.297 1.622-.454 2.43-.136.706-.29 1.4-.438 2.109zm-21.195.006h-1.704c.042-.2.077-.39.113-.578.22-1.11.445-2.215.65-3.328a3.6 3.6 0 00.054-.876.907.907 0 00-.278-.612.847.847 0 00-.613-.236c-.26-.012-.52.046-.752.169-.232.122-.43.304-.575.529a3.784 3.784 0 00-.552 1.413c-.237 1.128-.466 2.259-.698 3.38 0 .04-.02.084-.032.13H17l1.41-6.831h1.636l-.116.682.119-.096a2.72 2.72 0 011.463-.722c.807-.095 1.535.074 2.078.765.255.349.398.771.41 1.208a6.006 6.006 0 01-.19 1.592l-.695 3.285-.03.126z" fill="#fff"/></svg>