<svg xmlns="http://www.w3.org/2000/svg" width="56" height="56"><path fill="#F0F3FA" d="M0 0h56v56H0z"/><path d="M23.86 13.92c.87 12.46-8.9 19.66-13.86 21.7l2.98 1.55c12.34-7.8 12.4-18.75 10.88-23.25z" fill="url(#a14vvm4vn)"/><path d="M41.97 34.52c-10.5-6.75-10.48-18.85-9.15-24.05l-3 1.43c-1.11 14.55 7.63 21.14 12.15 22.62z" fill="url(#b14vvm4vn)"/><path d="M16.96 40.58C27.65 34.12 38.91 39.52 43 43v-3.28c-12.57-7.4-22.72-2.54-26.04.86z" fill="url(#c14vvm4vn)"/><path d="M25.84 19.81C25.04 30.51 16.18 37.18 12 39l2.15 1.52c11.34-6.88 12.48-15.8 11.69-20.7z" fill="url(#d14vvm4vn)"/><path d="M36.06 32.58c-8.1-7.03-7.95-18.14-6.91-22.58l-2.7.83c-1.26 13.22 5.2 19.46 9.6 21.75z" fill="url(#e14vvm4vn)"/><path d="M21.3 36.13c9.88-4.2 19.85.86 23.38 3.75l.32-2.82c-11.31-6.94-19.7-3.88-23.7-.93z" fill="url(#f14vvm4vn)"/><defs><linearGradient id="a14vvm4vn" x1="24.12" y1="14.25" x2="11.64" y2="36.36" gradientUnits="userSpaceOnUse"><stop stop-color="#777574"/><stop offset=".56" stop-color="#B8B8B8"/><stop offset="1" stop-color="#777574"/></linearGradient><linearGradient id="b14vvm4vn" x1="41.55" y1="34.53" x2="31.28" y2="11.31" gradientUnits="userSpaceOnUse"><stop stop-color="#777574"/><stop offset=".56" stop-color="#B8B8B8"/><stop offset="1" stop-color="#777574"/></linearGradient><linearGradient id="c14vvm4vn" x1="17.14" y1="40.2" x2="42.51" y2="41.19" gradientUnits="userSpaceOnUse"><stop stop-color="#777574"/><stop offset=".56" stop-color="#B8B8B8"/><stop offset="1" stop-color="#777574"/></linearGradient><linearGradient id="d14vvm4vn" x1="26.04" y1="20.87" x2="13.12" y2="39.96" gradientUnits="userSpaceOnUse"><stop stop-color="#99221F"/><stop offset=".67" stop-color="#E72D2E"/><stop offset="1" stop-color="#99221F"/></linearGradient><linearGradient id="e14vvm4vn" x1="35.1" y1="32.11" x2="27.51" y2="10.35" gradientUnits="userSpaceOnUse"><stop stop-color="#99221F"/><stop offset=".67" stop-color="#E72D2E"/><stop offset="1" stop-color="#99221F"/></linearGradient><linearGradient id="f14vvm4vn" x1="22.15" y1="35.47" x2="45.04" y2="38.23" gradientUnits="userSpaceOnUse"><stop stop-color="#99221F"/><stop offset=".67" stop-color="#E72D2E"/><stop offset="1" stop-color="#99221F"/></linearGradient></defs></svg>