<svg width="56" height="56" viewBox="0 0 56 56" xmlns="http://www.w3.org/2000/svg"><path fill="#F0F3FA" d="M0 0h56v56H0z"/><path fill-rule="evenodd" d="M18 24h.7v7H18v-7ZM6.3 29.72V26.7H5V26h1.3v-1H7v1h3v.7H7v2.77c0 .52.42.83.92.83h1.05c.5 0 1.03-.3 1.03-.83V29h.7v.72c0 .97-.92 1.26-1.28 1.28H7.74c-1.1 0-1.43-.86-1.44-1.28Zm5.4-2.19H11c0-1.24 1.08-1.54 1.63-1.53h2.62c1.46 0 1.77 1.06 1.75 1.6V31h-.7v-.6c-.28.36-.71.6-1.2.6h-2.73c-.76 0-1.37-.6-1.37-1.36v-.28c0-.75.61-1.36 1.37-1.36h2.72c.5 0 .93.23 1.21.6v-1.07c0-.67-.72-.82-1.05-.83h-2.42c-.81 0-1.14.54-1.13.83Zm3.77 2.77c.44 0 .8-.32.83-.73v-.14a.82.82 0 0 0-.83-.73h-2.94a.82.82 0 0 0-.83.8c0 .44.37.8.83.8h2.94ZM20 24h.7v2.72c.25-.43.7-.72 1.22-.72h2.51c.87 0 1.57.74 1.57 1.65v1.7c0 .91-.7 1.65-1.57 1.65h-2.5c-.52 0-.98-.29-1.23-.72V31H20v-7Zm.7 4.97v-.94c0-.74.58-1.33 1.3-1.33h2c.72 0 1.3.6 1.3 1.33v.94c0 .74-.58 1.33-1.3 1.33h-2c-.72 0-1.3-.6-1.3-1.33Zm7.04-2.34c.24-.33.74-.77 1.49-.77h1.22v.65h-1.5c-.32.02-.93.24-1.2.95v3.35h-.7v-4.95h.7v.77ZM49.6 26c1.04 0 1.24.92 1.22 1.38h-.7v-.12c0-.38-.3-.56-.68-.56h-2.22c-.67 0-1 .12-1.08.25l-.38-.72c.31-.17.81-.22 1.03-.23h2.8Zm.05 2h-3.42v.7h3.24c.44 0 .83.35.83.81a.8.8 0 0 1-.83.79h-3.63v.7h3.81c.75 0 1.35-.64 1.35-1.42v-.16c0-.78-.6-1.42-1.35-1.42Z" fill="#014D7E"/><path fill-rule="evenodd" d="M33 28.64c0-.67.11-1.28.27-1.8.26-.9 1.16-1.52 2.23-1.66.7-.1 1.53-.18 2.4-.18.93 0 1.74.05 2.37.11.83.08 1.6.42 2.03 1.04.36.52.7 1.25.7 2.13 0 .85-.13 1.55-.3 2.1-.25.83-1.1 1.35-2.08 1.46a23.65 23.65 0 0 1-5.37 0c-.82-.12-1.54-.54-1.84-1.2a4.98 4.98 0 0 1-.41-2Zm1-.04c0-.62.15-1.17.33-1.59.18-.44.66-.74 1.21-.82.63-.1 1.48-.19 2.38-.19 1.08 0 1.96.06 2.5.11.27.03.55.1.74.27.39.33.84.97.84 1.96 0 .77-.16 1.37-.35 1.79-.17.4-.62.64-1.13.7a20.87 20.87 0 0 1-5.07 0c-.42-.06-.8-.26-1-.58A3.24 3.24 0 0 1 34 28.6Zm-3.43-2.24c.14.17.43.74.43 1.69h1c.06-.8-.07-2.47-1.15-2.73l-.28 1.04Zm13.6.71c0-1.06.8-1.62 1.2-1.77l.42.87c-.22.13-.43.38-.43.9 0 .42.51.75.76.86v.9c-.77 0-1.95-.44-1.95-1.76Zm-.14 2.53h1.2c-.05.32-.02 1.03.6 1.25l-.48.94c-1.22-.22-1.39-1.55-1.32-2.2Z" fill="#F58322"/><path fill-rule="evenodd" d="M38.5 37a8.5 8.5 0 1 0 0-17 8.5 8.5 0 0 0 0 17Zm0-1a7.5 7.5 0 1 0 0-15 7.5 7.5 0 0 0 0 15Z" fill="#8C9196"/></svg>