<svg width="56" height="56" viewBox="0 0 56 56" xmlns="http://www.w3.org/2000/svg"><path fill="#F0F3FA" d="M0 0h56v56H0z"/><path d="M27.9 10.37c.54 3.34.64 6.74.28 10.2 0 .07-.04.12-.1.15a.24.24 0 0 1-.27-.03.24.24 0 0 1-.1-.17 41.39 41.39 0 0 1-.03-10.14c.06-.5.13-.5.21 0Zm4 .02c0-.03.02-.03.03 0a.3.3 0 0 1 .07.23l-.25 2.15c-.32 2.7-.94 5.38-1.86 8.02a.2.2 0 0 1-.15.14.33.33 0 0 1-.2-.01c-.08-.03-.12-.09-.1-.17a40.9 40.9 0 0 1 2.45-10.36Zm-7.96.3a.21.21 0 0 0-.04-.06 1.88 1.88 0 0 1-.13-.16c-.02-.04-.03-.03-.03 0a40.16 40.16 0 0 0 2.35 10.34c.02.05.06.1.1.11.11.05.2.03.27-.05a.23.23 0 0 0 .06-.19 39.3 39.3 0 0 0-2.58-9.99Zm11.97 1.05c.04-.04.05-.03.03.02a39.4 39.4 0 0 1-4.46 9.7.2.2 0 0 1-.18.09c-.14 0-.22-.06-.23-.18 0-.04 0-.09.02-.14A39.36 39.36 0 0 1 35.7 12c.06-.1.13-.19.22-.27Zm-16 .46.15.42c1.08 3.05 2.56 6 4.45 8.85.04.06.1.08.16.07.12 0 .2-.07.23-.17a.17.17 0 0 0 0-.12 39.2 39.2 0 0 0-4.83-9.14c-.27-.37-.32-.34-.16.09Zm19.41 2.06c-1.77 3-3.91 5.73-6.44 8.18a.18.18 0 0 1-.15.05.3.3 0 0 1-.21-.11.15.15 0 0 1 0-.17 39.3 39.3 0 0 1 6.84-8.18c.06-.06.1-.04.1.04 0 .05-.01.08-.05.1a.24.24 0 0 0-.09.09Zm-23 0c0 .05.03.1.08.12.04.02.08.05.1.1a39.3 39.3 0 0 0 6.59 7.95.2.2 0 0 0 .24.04c.06-.03.1-.07.13-.13a.16.16 0 0 0-.01-.17 39.5 39.5 0 0 0-7.01-7.97.06.06 0 0 0-.08-.01c-.03.01-.04.03-.04.06Zm26.04 2.8a38.5 38.5 0 0 1-8.3 6.66c-.13.07-.23.05-.32-.05-.08-.1-.08-.19.01-.27a36.4 36.4 0 0 1 5.7-4.64A66.73 66.73 0 0 1 42.35 17c.01 0 .02 0 .03.02v.04Zm-28.95.16c0 .03 0 .06.04.07.03 0 .06.02.08.04a38.74 38.74 0 0 0 8.4 6.37c.06.04.12.04.19.02a.23.23 0 0 0 .15-.12c.04-.09.02-.16-.04-.22a39.07 39.07 0 0 0-8.76-6.2c-.04-.01-.06 0-.06.04Zm21.24 7.63a40.84 40.84 0 0 1 9.8-4.23c.06-.01.06 0 .03.04-.1.09-.2.17-.3.23a38.82 38.82 0 0 1-9.37 4.37.14.14 0 0 1-.16-.05.3.3 0 0 1-.08-.22c0-.06.03-.1.08-.14Zm-23.12-3.83c.03.06.08.1.14.1.06.02.13.04.19.08 2.9 1.75 6 3.1 9.3 4.04.06.02.12 0 .16-.05a.4.4 0 0 0 .08-.14c.03-.09 0-.15-.07-.2a39.7 39.7 0 0 0-9.7-3.94c-.12-.03-.15 0-.1.11Zm34.06 3.6a.28.28 0 0 1 .12-.03c.08 0 .08.02.02.07-.14.1-.28.18-.42.22-1.68.54-3.24.96-4.68 1.27a34.55 34.55 0 0 1-5.36.73.2.2 0 0 1-.2-.12.2.2 0 0 1 0-.17c.02-.06.07-.1.13-.11 3.31-1.06 6.7-1.66 10.2-1.81.06 0 .12-.02.19-.05Zm-35.35.35c-.04.02-.04.04 0 .06 1 .27 2.03.54 3.08.8 2.42.62 4.88.97 7.36 1.05a.2.2 0 0 0 .16-.07.23.23 0 0 0 .06-.23.16.16 0 0 0-.12-.12c-3.3-.97-6.7-1.49-10.2-1.56a.78.78 0 0 0-.34.07Zm33.11 3.45c.87.11 1.72.24 2.55.37.13.02.13.05 0 .1-.17.04-.34.08-.5.1-3.54.31-6.9.2-10.09-.36a.14.14 0 0 1-.1-.07.26.26 0 0 1-.02-.24.17.17 0 0 1 .16-.12 40.03 40.03 0 0 1 8 .21Zm-33.01.73c.11.03.2.05.26.05 3.4.25 6.75.05 10.04-.59.05 0 .1-.03.12-.07a.24.24 0 0 0 .03-.2.18.18 0 0 0-.16-.15 3.45 3.45 0 0 0-.42-.04c-3.31-.13-6.69.17-10.13.9-.1.02-.1.04 0 .04.06 0 .14.02.26.06Zm.66 3.94a39.84 39.84 0 0 1 9.83-3.21c.08-.02.14 0 .2.07.04.05.06.12.06.19 0 .08-.04.13-.11.16a39.42 39.42 0 0 1-10.12 3c-.23.03-.24 0-.04-.12l.18-.09Zm24-2.75a41.05 41.05 0 0 0 10.06 2.71c.35.05.36 0 .04-.14a38.8 38.8 0 0 0-9.91-3c-.15-.02-.26.04-.3.17-.04.13 0 .21.11.26Zm-22.33 6.53a39.53 39.53 0 0 1 8.78-5.38.2.2 0 0 1 .16 0c.08.04.14.1.18.19.03.05.02.1-.03.13a36.94 36.94 0 0 1-5.87 3.75c-.9.46-1.94.95-3.12 1.48-.47.2-.5.15-.1-.17Zm30.98.05c.04-.04.03-.07 0-.1-2.94-2.22-5.96-3.99-9.07-5.3a.39.39 0 0 0-.22-.02c-.11.02-.18.09-.2.22 0 .06.02.12.08.15a39.73 39.73 0 0 0 9.35 5.06l.06-.01Zm-28.67 3.45a37.76 37.76 0 0 1 7.46-7.45c.14-.09.27-.05.38.11.02.04.02.08 0 .12a38.62 38.62 0 0 1-7.78 7.3c-.17.11-.19.1-.06-.08Zm26.01-.39-.25-.3a39.96 39.96 0 0 0-7.25-6.77.18.18 0 0 0-.18-.03.3.3 0 0 0-.15.13c-.05.07-.05.14.01.2a39.05 39.05 0 0 0 7.7 6.92c.44.3.48.25.12-.15ZM23.93 34c.07.01.12.04.17.08.05.04.06.1.03.16a39.37 39.37 0 0 1-5.84 8.84c-.16.19-.2.17-.1-.06a39.68 39.68 0 0 1 5.5-8.93c.07-.08.15-.1.24-.09Zm7.91.32a39 39 0 0 0 6.11 8.71c.02.02.04.02.06 0 .03-.01.04-.04.02-.08-.5-.96-.98-1.84-1.43-2.65a36.46 36.46 0 0 0-4.39-6.23.19.19 0 0 0-.18-.07.26.26 0 0 0-.18.14.18.18 0 0 0 0 .18Zm-9.9 10.4c.6-3.19 1.7-6.46 3.27-9.8a.2.2 0 0 1 .15-.12c.08-.02.15 0 .22.04s.09.1.07.18a38.47 38.47 0 0 1-3.55 9.75c-.17.32-.22.3-.15-.05ZM30.29 35a39.59 39.59 0 0 0 3.91 9.89c.02.03.04.03.08.02.04-.02.05-.06.04-.1l-.61-2.3a38.02 38.02 0 0 0-2.96-7.57c-.09-.17-.22-.21-.39-.11-.07.04-.1.1-.07.17Zm-4.15 10.58-.08.3c-.05.17-.08.16-.08-.02-.16-3.55.14-7.05.9-10.5.02-.06.05-.11.1-.15.1-.05.19-.05.27 0 .06.05.1.1.1.17a38.5 38.5 0 0 1-1.2 10.2Zm2.47-10.2a38.77 38.77 0 0 0 1.56 10.43c.06.16.1.15.1-.02a39.9 39.9 0 0 0-1.17-10.4c-.06-.2-.18-.27-.39-.17a.16.16 0 0 0-.1.15Z" fill="#BD9F2F"/></svg>