<svg width="56" height="56" viewBox="0 0 56 56" xmlns="http://www.w3.org/2000/svg"><path fill="#F0F3FA" d="M0 0h56v56H0z"/><path fill-rule="evenodd" d="M51.81 24.18H4.2v7.64H51.8v-7.64ZM4.2 24c-.1 0-.19.08-.19.18v7.64c0 .1.08.18.19.18H51.8c.1 0 .19-.08.19-.18v-7.64c0-.1-.08-.18-.19-.18H4.2Z" fill="#003673"/><path fill-rule="evenodd" d="M8.5 26.48h-2V25H12v1.48h-2V31H8.5v-4.52Zm32.5.02h-2V25h5.5v1.5h-2V31H41v-4.5ZM11.82 31h1.77l.17-.5h2.51l.16.5h1.92l-2.28-6h-1.93l-2.32 6Zm3.98-2-.74-2.36-.8 2.36h1.54Zm18.47 2H32.5l2.32-6h1.92l2.3 6H37.1l-.16-.5h-2.52l-.16.5Zm1.46-4.36.75 2.36h-1.54l.8-2.36ZM19 25v6h2v-2h.66l1.11 2h2.02l-1.12-2.04a1.63 1.63 0 0 0-.15-.15c.55-.34.98-1.08.98-1.81 0-.99-.8-2-1.61-2H19Zm2 1.5h1.1c.33 0 .6.22.6.5s-.27.5-.6.5H21v-1Zm4 4.5v-6h2.48l1.01 3.6 1.07-3.6H32v6h-1.52v-4.68L29.19 31h-1.34l-1.29-4.68V31H25Z" fill="#003673"/><path d="m50.1 27.54.16-.07c.09-.04.16-.02.21.06.04.05.05.1.03.16-.02.08-.08.15-.18.22a.68.68 0 0 0-.13.1.19.19 0 0 0-.05.18c.24.91.42 1.71.56 2.4.03.14.01.26-.05.36a.1.1 0 0 1-.1.05.1.1 0 0 1-.1-.07l-1.25-3.02a.1.1 0 0 0-.08-.06.1.1 0 0 0-.09.03c-.63.7-1.28 1.3-1.95 1.8a.15.15 0 0 0-.06.16l.18.8c.02.07 0 .13-.02.18a.4.4 0 0 1-.08.1.13.13 0 0 1-.1.02.12.12 0 0 1-.1-.06l-.34-.61a.2.2 0 0 0-.17-.11c-.1 0-.16-.07-.17-.18a.2.2 0 0 0-.14-.18l-.49-.2a.21.21 0 0 1-.11-.1.2.2 0 0 1-.02-.16l.02-.06c.02-.07.06-.1.13-.08l.95.16c.06.01.12 0 .16-.06.56-.7 1.15-1.33 1.78-1.9a.12.12 0 0 0 .04-.11.12.12 0 0 0-.08-.1l-2.92-1.13c-.06-.03-.1-.07-.1-.14 0-.08.05-.12.13-.14a1 1 0 0 1 .39 0c.78.17 1.52.34 2.2.53.07.02.14 0 .2-.03a.47.47 0 0 0 .14-.16.5.5 0 0 1 .14-.17c.05-.03.1-.04.15-.03.1.02.14.08.14.18-.01.08-.04.16-.08.23-.03.07-.01.12.06.14.25.1.47.05.65-.13l.12-.13c.3-.31.54-.54.7-.69.3-.24.56-.4.82-.5a.17.17 0 0 1 .2.04c.05.06.06.12.03.2a3.3 3.3 0 0 1-.6.88c-.18.21-.44.46-.77.77-.13.11-.17.3-.13.55.02.1.07.12.16.08Z" fill="#003673"/></svg>