<svg xmlns="http://www.w3.org/2000/svg" width="56" height="56" viewBox="0 0 56 56"><path fill="#F0F3FA" d="M0 0h56v56H0z"/><path d="M6.07 30.34l3.08-11.38a1.27 1.27 0 0 1 1.8-.83l8.16 4c.4.2.7.5.9.87H9.61l-.51 2h4.2l-1.93 8.18h2.33L15.63 25h4.45l-3.07 11.05a1.27 1.27 0 0 1-1.8.81l-8.07-4.1a2.1 2.1 0 0 1-1.07-2.42z" fill="url(#ain3zypo5)"/><path d="M6.67 30.19L9.5 19.42c.2-.75.98-1.12 1.64-.79l7.49 3.8a1.95 1.95 0 0 1 .73.66c-2.62.1-5.98.65-8.3 2.34a13.37 13.37 0 0 0-4.4 5.78 2.14 2.14 0 0 0 .01-1.02z" fill="url(#bin3zypo5)"/><path d="M11.72 25h1.57l-1.92 8.18h2.33L15.63 25h3.92L16.7 35.6c-.2.74-1 1.1-1.66.76l-7.4-3.88c-.5-.26-.84-.73-.97-1.27A13.37 13.37 0 0 1 11.72 25z" fill="#017DC5"/><path fill-rule="evenodd" d="M24.62 26h-3.79l-.2 1h3.64c.16 0 .28.13.25.27l-.19.73h-3.9l-.41 2c-.1.51.26 1 .74 1h3.8l.8-4c.11-.51-.25-1-.74-1zm-3.46 3h2.98l-.26 1h-2.65c-.17 0-.29-.13-.25-.27l.18-.73zm6.16-3h2.52l-.16 1h-2.16c-.24 0-.45.1-.5.35L26.28 31h-1l.8-3.92A1.3 1.3 0 0 1 27.32 26zm2.64 2.02l.2-1.08c.1-.52.52-.94 1-.94h2.9c.47 0 .82.51.75 1.02l-.05.28H34v-.14c0-.16-.1-.16-.25-.16h-2.22c-.24 0-.44.06-.5.31l-.09.47c-.04.18.08.22.25.22h2.46c.48 0 .83.58.76 1.09l-.16.99c-.08.53-.5.92-1 .92h-2.95c-.46 0-.82-.45-.76-.94l.03-.24h.82v.1c0 .08.11.08.25.08h2.34c.25 0 .46 0 .5-.26l.06-.4c.03-.17-.09-.34-.25-.34h-2.57c-.49 0-.85-.46-.75-.98zm16.18 0l.2-1.08c.1-.52.52-.94 1-.94h2.9c.47 0 .83.51.75 1.02l-.04.28h-.77v-.14c0-.16-.12-.16-.26-.16h-2.21c-.24 0-.45.06-.5.31l-.1.47c-.03.18.09.22.25.22h2.47c.47 0 .83.58.75 1.09l-.16.99c-.08.53-.5.92-1 .92h-2.95c-.46 0-.82-.45-.75-.94l.03-.24h.81v.1c0 .08.12.08.26.08h2.34c.24 0 .45 0 .5-.26l.06-.4c.02-.17-.1-.34-.25-.34h-2.58c-.48 0-.84-.46-.75-.98zM44.64 26h-3.48l-1.02 5h.91l.83-4h2.65c.15 0 .27.16.23.32L44 31h.88l.75-3.67c.13-.68-.35-1.33-1-1.33zm-9.05.86c.1-.5.52-.86 1-.86h2.66c.65 0 1.13.65.99 1.33l-.57 2.8c-.1.51-.52.87-1 .87h-2.65c-.65 0-1.14-.65-1-1.33l.57-2.8zm.82.53c.05-.23.23-.39.44-.39h1.88c.28 0 .5.3.44.6l-.4 2.01c-.05.23-.23.39-.44.39h-1.88c-.29 0-.5-.3-.44-.6l.4-2.01z" fill="#00ADEF"/><defs><linearGradient id="ain3zypo5" x1="13.06" y1="18" x2="13.06" y2="37" gradientUnits="userSpaceOnUse"><stop stop-color="#01B6F1"/><stop offset="1" stop-color="#0063AC"/></linearGradient><linearGradient id="bin3zypo5" x1="10.72" y1="18.63" x2="13.13" y2="31.26" gradientUnits="userSpaceOnUse"><stop stop-color="#FDFDFE"/><stop offset=".75" stop-color="#FDFDFE" stop-opacity="0"/></linearGradient></defs></svg>