<svg xmlns="http://www.w3.org/2000/svg" width="56" height="56" viewBox="0 0 56 56"><path fill="#F0F3FA" d="M0 0h56v56H0z"/><path fill="silver" d="M12 15h11v22H12z"/><path d="M44 15H22v22h22v-2H31.46a1 1 0 0 1-.83-1.56L37 24.05V18h-.23a.5.5 0 1 1 0-1h5.37a.5.5 0 1 1 0 1H42v6.05L44 27V15z" fill="#1657AB"/><path fill-rule="evenodd" d="M32.4 37.38h-.48v2.16h.47v-2.16zm-20.4 0h1.03v.34h-.28v1.8h-.47v-1.8H12v-.34zm5.7.01h1.03v.34h-.28v1.8h-.47v-1.8h-.28v-.34zm20.37 0h-1.03v.34h.27v1.8h.48v-1.8h.28v-.34zm-23.39 2.13l.4-2.13h.55l.36 2.13h-.45l-.08-.55h-.2l-.09.55h-.49zm.58-.83l.09-.53.1.53h-.19zm8.44-1.31l-.4 2.13h.5l.09-.55h.2l.07.55h.46l-.36-2.13h-.56zm.27.77l-.09.54h.2l-.11-.54zm15.8 1.38l.4-2.13h.55l.36 2.13h-.45l-.08-.55h-.2l-.09.55h-.49zm.58-.82l.09-.54.1.54h-.19zM20.4 37.4l.31 2.12h.63l.32-2.12h-.46l-.18 1.34-.15-1.34h-.47zm5.9.51a.55.55 0 0 1 1.1 0v.2h-.42v-.36a.13.13 0 0 0-.25 0v1.37a.13.13 0 1 0 .25 0v-.37h.41v.26a.55.55 0 0 1-1.09 0v-1.1zm7.82 1.6V37.4h.49l.34.9v-.9h.38v2.13h-.47l-.33-1.04v1.04h-.4zm8.67-2.12v2.13h.4v-1.04l.33 1.04H44V37.4h-.38v.9l-.35-.9h-.48zm-13.31-.02H29v2.16h.48v-.88h.16v.88h.48v-2.16h-.48v.96h-.16v-.96z"/><path fill="#1657AB" d="M12 40h32v1H12z"/><path d="M13.16 22.95c-.78 2.63 1.49 4.1 2.72 4.5.78.37.7-.1.57-.36-1.88-3.97-1.08-5.73-.45-6.11l6.25.3a56.3 56.3 0 0 0-4.08 6.6c-2.2 3.96-.96 5.85-.3 6.28 3.38 2.22 10.29-.5 13.13-2.12L30.33 31c-4.23 3.87-9.55 2.8-9.8-.43-.19-2.6 3.17-6.98 4.87-8.85l3.8-.43c.49-.95 1.49-2.96 1.62-3.47.16-.63-.62-.47-.92 0-.1.16-.77.19-1 .18H18.8c-2.6 1.25-4.84 3.8-5.64 4.95z"/></svg>