<svg width="56" height="56" viewBox="0 0 56 56" xmlns="http://www.w3.org/2000/svg"><path fill="#1E417B" d="M0 0h56v56H0z"/><path d="M45.96 17c.15.52-.15.82-.88.91L19.38 35.7l-4.29 3.14a.7.7 0 0 1-.77.08l-5.08-2.47c-.24-.12-.3-.3-.18-.56a10.16 10.16 0 0 1 5.65-5.29l25.73-11.22c.08-.03.11-.12.1-.25v-.01c-.01-.13-.1-.17-.25-.12L12.91 29.13c1.33-3.8 3.78-6.08 7.36-6.83 8.4-1.72 16.78-3.48 25.16-5.3h.53Z" fill="#D1AA54"/><path d="M45.08 17.91 23.3 36.59c-.22.2-.47.29-.76.28a5.8 5.8 0 0 1-3.15-1.17L45.08 17.9ZM14.7 30.6c0-.3-.32-.55-.93-.72-.7-.2-.98-.45-.86-.75L40.3 19c.16-.05.24-.01.25.12.01.14-.02.23-.1.26L14.7 30.6Z" fill="#fff"/></svg>