<svg width="56" height="56" viewBox="0 0 56 56" xmlns="http://www.w3.org/2000/svg"><path fill="#F0F3FA" d="M0 0h56v56H0z"/><path d="M28.8 26.18a110.97 110.97 0 0 0-4.7-1.42l-.46-.12a17.74 17.74 0 0 0-5.57-.52c-1.07.1-2.05.33-2.94.72a5.48 5.48 0 0 0-2.45 2.1 13.28 13.28 0 0 0-.37.65.31.31 0 0 1-.09.07c-.08.04-.14.02-.2-.04-.07-.1-.07-.25-.01-.45a5.43 5.43 0 0 1 1.24-1.74c.4-.37.86-.7 1.38-1a9.13 9.13 0 0 1 1.93-.82c1.2-.35 2.49-.53 3.86-.56a22.4 22.4 0 0 1 5.07.48l.9.17c1.48.33 2.97.7 4.48 1.12.06.02.13.01.2-.02a51.88 51.88 0 0 1 8.83-3.98c1.39-.49 2.8-.9 4.25-1.25 1.25-.3 2.42-.48 3.52-.57.18-.01.28.04.31.14.04.12.02.2-.06.26a.38.38 0 0 1-.12.05l-.14.03h-.03a31.68 31.68 0 0 0-9.37 3.17 57.97 57.97 0 0 0-6.1 3.74 211.36 211.36 0 0 0-3.76 2.66c-1.9 1.35-3.32 2.36-4.28 3.02-1.45 1-2.7 1.8-3.77 2.4-.93.53-1.83.97-2.7 1.33-1.2.49-2.4.84-3.64 1.04-1.04.18-2.04.2-3.02.1a7.32 7.32 0 0 1-2.9-.97c-.4-.24-.73-.52-.99-.84a.5.5 0 0 1-.08-.16.27.27 0 0 1 0-.18.15.15 0 0 1 .09-.1h.15c.05.02.1.05.15.1a5.28 5.28 0 0 0 3.1 1.5c.8.1 1.66.07 2.54-.1 1.13-.2 2.27-.57 3.43-1.13.97-.46 1.86-.98 2.68-1.55.78-.55 1.62-1.17 2.53-1.87.7-.54 1.51-1.18 2.4-1.9a88.23 88.23 0 0 1 4.73-3.55l-.02-.01Z" fill="#BB9822"/></svg>