<svg width="56" height="56" viewBox="0 0 56 56" xmlns="http://www.w3.org/2000/svg"><path fill="#F0F3FA" d="M0 0h56v56H0z"/><path d="M10.96 23.37c1.06.5 3.82 1.44 6.43 1.2-3.3.72-8.48.69-10.66.59l.39-.87 3.84-.92ZM9.7 29.86c.8.12 2.85.27 4.74-.07-.8-.16-2.54-.72-3.02-1.65L9.53 29.2l.16.65Z"/><path d="M19 22H5l1.7 3.15C9.12 23.4 15.9 22.33 19 22Zm-3.22 5.55 1.63-2.97c-8.43 1.01-9.55 2.5-9.05 3.1l1.36 2.21c-.43-1.2 3.86-2.05 6.06-2.34ZM12.04 34l-1.12-1.96c-.03-.52.62-1.69 3.5-2.24L12.03 34Z" fill="#FFB300"/><path d="m20.3 22-1.06 3h3.64l-4.06 9h3.87l4.04-9h3.7l1.06-3H20.3Zm17.27 11.07 1.07-2.63c-5 1.76-6.3-.1-5.67-2.1a5.3 5.3 0 0 1 4.95-3.55c1.8 0 2.68.68 2.9 1.01l1.38-3.11a7.44 7.44 0 0 0-3.08-.69c-7.22 0-10.6 6.19-10.6 8.44 0 2.25 1.55 3.56 4.53 3.56 2.38 0 4-.62 4.52-.93ZM45.22 22l-5.2 12h3.79L49 22h-3.78Z"/></svg>