<svg xmlns="http://www.w3.org/2000/svg" width="56" height="56"><path fill="#F0F3FA" d="M0 0h56v56H0z"/><path d="M9 26H4.45L4 27h1.47l-1.34 3H5.7l1.35-3h1.5L9 26zm2.95 0c2.22 0 2.2 1.1 1.92 1.7h-1.84c.17-.61-.14-.7-.5-.7-1.01 0-1.52.89-1.64 1.08-.12.19-.24.92.63.92.57 0 1.08-.42 1.19-.6h1.82a4.18 4.18 0 01-3.37 1.6c-.7 0-2.31-.15-2.14-1.33C8.18 27.5 9.29 26 11.95 26zm3.19 4l1.83-4h-1.6l-1.83 4h1.6zm3.39-4h3.6l-.5 1h-2.3l-.24.5h2.32l-.45 1h-2.32l-.25.5h2.34l-.44 1h-3.65l1.89-4zm19.8 0h3.6l-.49 1h-2.3l-.25.5h2.33l-.46 1h-2.32l-.25.5h2.34l-.44 1h-3.64l1.88-4z" fill="#062692"/><path d="M23.95 26h-1.34l.8 1.74L20.62 30h1.99l1.34-1.08.47 1.08h1.37l-.87-1.87 2.6-2.13h-1.9l-1.2.95-.47-.95z" fill="#DF0402"/><path d="M30.55 26H28.1l-1.22 1h2.48c.55 0 .77.13.77.35 0 .5-.63.66-.84.65H26l-.36.56.63 1.44.43-1h2.48c1.65.03 2.69-1.2 2.67-2.14-.02-.76-.87-.89-1.3-.86z" fill="#062692"/><path fill-rule="evenodd" d="M32.8 26h3.38c.41 0 1.26.1 1.26.63 0 .67-.52 1.2-1.26 1.48.12.07.33.29.21.65-.11.36-.24.7-.29.83a.63.63 0 000 .41h-1.86l.2-.58c.04-.14.02-.42-.45-.42h-.93l-.48 1h-1.65l1.86-4zm1.13 1h1.18c.16 0 .44.1.28.58-.13.43-.68.42-1.03.42h-.93l.5-1z" fill="#062692"/><path d="M44.61 26c2.06-.01 2.14.8 1.92 1.2h-1.86c.02-.32-.32-.36-.56-.36-.23 0-.76.08-.76.32 0 .2.38.2.64.22 2 .17 2.16.66 2.16.9 0 .77-.82 1.72-3.37 1.72-1.94 0-2.08-.8-1.9-1.26h1.9c.03.25.34.36.75.31.42-.05 1-.6-.18-.6-1.25 0-1.89-.34-1.83-.83.05-.46.51-1.6 3.09-1.62zM50 26c2.06-.01 2.14.8 1.92 1.2h-1.87c.02-.32-.32-.36-.55-.36-.24 0-.76.08-.76.32 0 .2.38.2.64.22 2 .17 2.16.66 2.16.9 0 .77-.83 1.72-3.37 1.72-1.95 0-2.09-.8-1.9-1.26h1.9c.02.25.33.36.75.31.41-.05 1-.6-.18-.6-1.25 0-1.9-.34-1.84-.83.06-.46.52-1.6 3.1-1.62z" fill="#062692"/></svg>