<svg xmlns="http://www.w3.org/2000/svg" width="56" height="56"><path fill="#F0F3FA" d="M0 0h56v56H0z"/><circle cx="28.5" cy="12.5" r="2.5" fill="#125BAA"/><circle cx="28.5" cy="43.5" r="2.5" fill="#125BAA"/><circle cx="43.5" cy="28.5" r="2.5"/><circle cx="12.5" cy="28.5" r="2.5"/><path d="M20.61 19.28c-.86.7-.65 1.49-.51 1.66a1 1 0 001.5 0 12.14 12.14 0 018.2-3.71c2.7-.02 6 1.83 7.31 2.76a10.37 10.37 0 00-7.95-3.69c-4.27.08-7.47 2.1-8.55 2.98zM35.4 36.72c.86-.7.65-1.49.51-1.66a1 1 0 00-1.5 0 12.14 12.14 0 01-8.2 3.71c-2.7.02-6-1.83-7.31-2.76.42.53 3.25 3.77 7.95 3.69 4.27-.08 7.47-2.1 8.55-2.98z"/><path d="M36.95 20.75c-.69-.88-1.47-.68-1.65-.54a1 1 0 00-.03 1.49c1.6 1.49 3.6 4.81 3.57 8.28-.03 2.69-1.94 5.96-2.9 7.25.54-.41 3.83-3.18 3.83-7.88 0-4.27-1.96-7.5-2.82-8.6zm-17.9 14.5c.69.88 1.47.68 1.65.54a1 1 0 00.03-1.49 12.14 12.14 0 01-3.57-8.28c.03-2.69 1.94-5.96 2.9-7.25-.54.41-3.83 3.18-3.83 7.88 0 4.27 1.96 7.5 2.82 8.6z" fill="#125BAA"/></svg>