<svg width="56" height="56" xmlns="http://www.w3.org/2000/svg"><path fill="#C3221F" d="M0 0h56v56H0z"/><path d="M12 21H7v1h2v4h1v-4h2v-1zm15 8.87a.874.874 0 00-.854-.87h-2.268c-.16 0-.24.084-.326.216l-.548.784h2.625c.208.01.373.225.373.446V33H27v-3.13zM22 28h1v5h-1v-5zm12.137 1H30v4h1v-3h2.595c.227 0 .405.22.405.446V33h1.003v-3.14a.863.863 0 00-.866-.86zm-20.141-1H7v5h1v-4h2.26c.148 0 .24.086.24.221V33h1v-3.765c0-.14.132-.235.28-.235h1.813c.221 0 .403.149.403.352V33H15v-4.08c0-.51-.447-.92-1.004-.92zM28 30.527V33h1v-3.622s-.463.383-.79.658a.65.65 0 00-.21.49zM28 28h1v.923l-1 .883V28zm14.617 1c-.374 0-.617.28-.617.58V33h1v-2.55c0-.226.197-.451.435-.451h1.594a.48.48 0 00.384-.193C45.42 29.802 46 29 46 29h-3.383zM40 28v4.004h-2.758c-.14 0-.238-.117-.238-.216v-1.432h.005c0-.207.172-.356.386-.356h1.752c.15 0 .303-.104.368-.203L40 29h-3.185a.829.829 0 00-.815.82v2.522c0 .424.35.658.67.658H41v-5h-1zm10.18 1h-3.202a.477.477 0 00-.393.207l-.538.793h3.594c.2.01.359.23.359.446V32h-3v-.366c0-.088.048-.134.133-.134h1.87v-.72c0-.144-.085-.28-.202-.28H46.52c-.29 0-.519.299-.519.599v1.497c0 .01 0 .015.005.025.032.216.21.379.426.379H51v-3.14c0-.476-.365-.86-.82-.86zm-30 0h-3.202a.469.469 0 00-.388.207l-.543.793h3.585c.201.01.365.23.365.446V32H17v-.343c0-.088.049-.162.133-.162H19v-.791c0-.143-.076-.204-.193-.204H16.52c-.29 0-.52.223-.52.523v1.573c0 .01 0 .015.005.025.032.216.21.379.426.379H21v-3.14c0-.476-.365-.86-.82-.86zM31 22.812c0-.437-.384-.812-.843-.812H27.89c-.162 0-.242.1-.327.222C27.558 22.226 27 23 27 23h2.628c.208.01.374.146.374.349V26H31v-3.188zM26 21h1v5h-1v-5zm-4 3.578c0 .222.17.422.367.422H25v1h-3.248c-.413 0-.752-.377-.752-.846v-2.912.604c0-.47.34-.847.752-.847h3.24l-.203.616c-.043.119-.064.22-.16.296-.069.054-.127.092-.215.092h-2.051c-.198 0-.36.18-.36.402L22 24.578z" fill="#fff"/><path d="M13 26v-3.624h-.995L16.458 19l1.547 1.146v-.805H19v1.548l2.005 1.487H20V26h-2.027a.5.5 0 00.408-.207l.57-.793h-3.57c-.21-.01-.383-.15-.383-.366V23H18v.362c0 .089-.049.138-.137.138H16v.703c0 .143.123.297.246.297h2.208c.305 0 .546-.316.546-.617v-1.48c0-.01 0-.014-.005-.024a.45.45 0 00-.447-.379H14v3.139c0 .477.383.861.86.861H13z" fill="#fff"/></svg>