<svg width="56" height="56" viewBox="0 0 56 56" xmlns="http://www.w3.org/2000/svg"><path fill="#F0F3FA" d="M0 0h56v56H0z"/><path fill-rule="evenodd" d="M43 13H13v30h30V13ZM28 42.5A14.5 14.5 0 0 0 41.94 24H22v8.8c.2 1.67 1.79 5.2 6 5.2s7.1-2.98 7.84-4.36h2.8C37.85 36.04 34.37 41 28 41a8.8 8.8 0 0 1-9-7.36V24h-4.94A14.51 14.51 0 0 0 28 42.5ZM22 20h18.1A14.49 14.49 0 0 0 22 14.8V20Zm-6.1 0c.85-1.28 1.9-2.42 3.1-3.37V20h-3.1Zm10.83 10h8.26a5.5 5.5 0 1 0-.19 2h-2.67c-.15.48-.95 1.36-2.77 1.36-1.99 0-2.52-2.3-2.63-3.36Zm-5.9-6c-.45 0-.87-.16-1.2-.4l2.87-2.88A2.06 2.06 0 0 1 20.84 24Zm0-4.12c.4 0 .78.11 1.09.3l-2.83 2.84a2.06 2.06 0 0 1 1.75-3.14Z" fill="#2C80B7"/></svg>