<svg width="56" height="56" viewBox="0 0 56 56" xmlns="http://www.w3.org/2000/svg"><path fill="url(#at0lz1lqq)" d="M0 0h56v56H0z"/><path d="M30.94 31.7c-.14.12-.15.24-.03.37l.07.08c.06.06.13.1.22.1s.16-.03.22-.09a8.4 8.4 0 0 0 2.63-7.33c-.1-.8-.1-1.58-.02-2.35.09-.8.26-1.54.53-2.21a1.12 1.12 0 0 1 .94-.7c.24-.02.51-.07.8-.14.19-.04.45-.11.8-.22.6-.17 1.04-.27 1.33-.32.5-.07.94-.06 1.35.03.45.11.55.37.3.77-1 1.59-1.67 3.5-2.01 5.74-.14.92-.38 1.9-.71 2.93a6.99 6.99 0 0 1-3.04 3.87c-.69.44-1.37.79-2.05 1.04-.23.08-.48.1-.75.02-.16-.05-.4-.15-.71-.31-.3-.15-.52-.25-.67-.3-.25-.07-.49-.1-.7-.05-.44.08-.87.18-1.32.3-.45.1-.88.08-1.27-.1a8.57 8.57 0 0 1-2.41-1.6 5.6 5.6 0 0 1-1.52-2.4c-.25-.8-.42-1.65-.5-2.54-.08-.8.02-1.63.28-2.49.52-1.7.96-3.02 1.32-3.97.34-.93.9-1.88 1.69-2.86a15.97 15.97 0 0 0 2.24-3.77.33.33 0 0 1 .13-.16c.12-.07.2-.05.25.08a17.16 17.16 0 0 0 2.46 4.42 10.48 10.48 0 0 1 1.8 3.45c.57 1.88.86 3.66.88 5.32a6.5 6.5 0 0 1-2.53 5.4Zm-13.7-8.95c-.05-.75-.06-1.53-.04-2.36a3.5 3.5 0 0 0-.91-2.48c-.06-.07-.05-.13.01-.18a1.94 1.94 0 0 1 1.86-.32c1.18.38 2.12.9 2.82 1.58.81.78 1.24 1.7 1.3 2.78.03.93-.12 1.9-.48 2.88-.05.15-.07.35-.05.6l.26 2.57c.12 1.12.4 2 .82 2.65a4.64 4.64 0 0 0 2.23 1.73c.2.09.32.28.35.59 0 .07-.02.12-.07.17a.2.2 0 0 1-.17.04c-.4-.07-.8-.06-1.2.02-.25.05-.46.04-.65-.04a1.9 1.9 0 0 1-.44-.3 2.94 2.94 0 0 0-.78-.53c-.64-.36-1.1-.65-1.39-.87a4.47 4.47 0 0 1-1.13-1.26 16.48 16.48 0 0 1-2.33-7.27Zm-6.03 1.78c.3.26.54.52.7.8.47.88.97 1.8 1.5 2.75.5.9.95 1.58 1.34 2.07a9.99 9.99 0 0 0 7.39 3.8c.17 0 .35-.01.53-.05.07-.02.1-.06.12-.13.05-.34-.1-.58-.44-.71a7.2 7.2 0 0 1-4.38-4.71c-.38-1.2-.87-2.38-1.46-3.55a7.72 7.72 0 0 0-1.1-1.71 2.77 2.77 0 0 0-2.34-.9 5.87 5.87 0 0 0-2.64.9 2 2 0 0 0-.23.13.5.5 0 0 0-.17.19.27.27 0 0 0-.02.2c.02.08.06.13.13.17a37.26 37.26 0 0 1 1.07.75Zm30.55 5.76a7.95 7.95 0 0 1-6.91 3.83c-.13 0-.25.03-.38.07a3.5 3.5 0 0 0-.45.21c-.28.14-.5.07-.63-.2l-.09-.18c-.13-.25-.06-.43.21-.53a6.87 6.87 0 0 0 3.76-3.3c.23-.46.46-1 .68-1.62.13-.37.31-.94.54-1.7.21-.7.37-1.22.49-1.56.17-.5.4-.9.7-1.18.27-.25.6-.42.99-.5.32-.07.72-.1 1.18-.06a17.74 17.74 0 0 1 1.7.24c.95.15 1.41.5 1.39 1.02-.02.32-.12.61-.3.88-.2.3-.4.6-.6.93-.8 1.3-1.56 2.52-2.28 3.65Zm4.14 5.67c.17-.32.12-.66-.14-1a6.21 6.21 0 0 0-1.33-1.57 2.68 2.68 0 0 0-1.7-.75 4.96 4.96 0 0 0-1.93.49c-.88.37-1.8.73-2.8 1.08-1.33.48-2.72.67-4.16.57-.24-.02-.47.04-.68.16a.16.16 0 0 0-.09.12c0 .05.01.1.05.14.42.46.86.85 1.32 1.16.56.38 1.1.62 1.61.7 2.99.5 5.99.34 9-.48.2-.05.37-.14.52-.24.15-.11.26-.24.33-.38Zm-24.75 1.66c-2.2.66-4.48.35-6.83-.91a53.4 53.4 0 0 1-3.45-2 .64.64 0 0 1-.23-.27c-.06-.11-.04-.21.05-.3a4.52 4.52 0 0 1 2.81-1.26c1-.1 2.06.05 3.18.44.29.1.72.27 1.29.5l1.15.44c.44.15.83.27 1.18.36.88.22 1.72.27 2.5.16.48-.06.75.11.8.54 0 .07-.02.13-.07.19-.45.49-.88.96-1.28 1.42-.29.33-.65.56-1.1.7Zm7.49-4.15a6.2 6.2 0 0 0-2.87.66 2.94 2.94 0 0 0-1.67 1.85c-.5 1.7-.1 3.1 1.2 4.2.5.43 1.02.82 1.55 1.2.48.34.86.8 1.13 1.4.14.3.28.3.43 0a.55.55 0 0 0 .05-.13 546.77 546.77 0 0 1 4.06-4.57c.24-.25.3-.57.2-.93l-.52-1.84c-.05-.19-.16-.37-.31-.53a5.03 5.03 0 0 0-3.25-1.3Z" fill="#CE54BE"/><defs><linearGradient id="at0lz1lqq" x1="28" y1="0" x2="28" y2="56" gradientUnits="userSpaceOnUse"><stop stop-color="#EDAC45"/><stop offset="1" stop-color="#EFD833"/></linearGradient></defs></svg>