<svg width="56" height="56" viewBox="0 0 56 56" xmlns="http://www.w3.org/2000/svg"><path fill="#F0F3FA" d="M0 0h56v56H0z"/><circle cx="28.5" cy="20.5" r="9.5" fill="#F8981E"/><path d="m23.52 25.17 4.53-13c.27-.27.84-.81 2.08-.6.94.17 1.12 1.15 1.05 1.7L30 18h3.17c.45 0 1.26-.12 1.26.97 0 1.09-.8 2.03-1.26 2.03h-4.19a75.3 75.3 0 0 1-1.3 4.17c-.27.71.12.82.35.79 1.7-.34 2.79-.07 3.16 1.05.3.9-.35 1.54-.71 1.74-1.34.55-4.37 1.4-5.79.44-1.42-.95-1.36-3.07-1.16-4.02Z" fill="#fff"/><path d="m19.04 19.59-.05.9c-1.23.45-3.2 1.7-3.06 3.86.18 2.7 8.48 1.7 15.63-.54 7.15-2.25 9.95-5.64 9.65-7.26-.24-1.3-3.14-1.37-4.8-1.3l-.5-.7c4.67-.28 7.3.22 8 1.4.7 1.19-2.84 5.33-11.76 8.6-8.91 3.29-18.68 2.8-19.2.56-.42-1.8 3.7-4.38 6.09-5.52Z" fill="#8D9696"/><path d="m12.05 39.12 2.69-9.46c.17-.32.1-.66 1.14-.66 1.03 0 1.1.7 1 1.05l-1 2.95h1.34c.43.01 1.67.12 1.45.98-.17.7-.96 1.02-1.19 1.02H15.4c-.43 1.05-1.11 4.59 0 4.12 1.1-.46 1.62 0 1.82.6.2.6-1.46 1.35-3.54 1.28-1.66-.06-1.78-1.28-1.63-1.88Z" fill="#008FD5"/><path fill-rule="evenodd" d="M21.6 38.55c.11-.04 2.47-1.72 4.14-2.91.44-.32.6-.93.25-1.35A3.63 3.63 0 0 0 23.2 33c-2.4 0-5.54 1.4-5.54 4.9 0 2.82 2.63 3.22 3.95 3.07.93-.11 2.68-.53 3.25-1.61.71-1.36-1.02-1.34-1.66-.52-.35.46-1.26-.05-1.6-.29Zm-1.57-1.08 3.4-2.19c-.43-.3-1.57-.69-2.72.22-1.15.91-.93 1.7-.68 1.97Z" fill="#008FD5"/><path d="M26.74 40.96c.25 0 .87.11 1.39.57.64.57 2.3.3 3.1-1.58h-.08l-.13.09c-.4.28-1.3.92-2.22.92-1.3 0-2.96-.96-2.96-3.23C25.84 36 28.2 33 31.02 33c.43.01 1.44.19 2.03.76.24-.25.9-.76 1.55-.76.82 0 .98.8.7 1.27-.23.37-1.5 4.88-2.1 7.1A5.11 5.11 0 0 1 28.84 44c-3 0-3.6-1.71-3.54-2.17.06-.47.71-.87 1.44-.87Zm4.34-3.25c.78-.5 1.1-1.37.73-1.93-.38-.55-1.32-.6-2.1-.09-.79.51-1.11 1.38-.74 1.93.38.56 1.32.6 2.1.1Z" fill="#008FD5"/><path fill-rule="evenodd" d="M40.5 40.15c.08.28.43.85 1.12.85.87 0 1.87-2.6 2.24-3.8.37-1.17.22-4.2-3.36-4.2S35 37.02 35 38.38c0 1.35 1.18 2.62 3.34 2.62 1.55 0 2.16-.57 2.16-.85ZM38 38.08c.44.55 1.39.52 2.13-.07.74-.6.99-1.53.55-2.09-.43-.55-1.38-.52-2.12.07-.74.6-.99 1.53-.56 2.09Z" fill="#008FD5"/></svg>