<svg width="56" height="56" viewBox="0 0 56 56" xmlns="http://www.w3.org/2000/svg"><path fill="#FEC311" d="M0 0h56v56H0z"/><path d="m20.1 27.58-.17.32c-.15.26-.25.45-.3.58-.1.23-.17.44-.19.64-.24 1.94-.83 3.28-1.76 4-.45.34-.53.27-.23-.21a12.63 12.63 0 0 0 .71-1.4l-.05-.03c-.05-.03-.09-.02-.12.03-.57 1.06-1.6 1.51-3.1 1.37-.05 0-.08-.03-.08-.09 0-.05.02-.08.07-.1.38-.11.7-.22.92-.32.33-.16.6-.35.8-.56.1-.11.09-.14-.06-.09-.83.33-1.72.62-2.66.88a5.26 5.26 0 0 0-1.46.74c-.13.07-.16.04-.1-.1.18-.38.46-.7.84-.98.01-.01.02-.03 0-.04-.01-.04-.03-.04-.06-.03-1.98.89-3.63.98-4.94.29-.23-.13-.21-.2.04-.24l1.6-.23c.22-.03.23-.08.02-.16l-1.08-.4c-.26-.1-.25-.15.02-.16l1.33-.06c.06 0 .12-.03.17-.08a9 9 0 0 1 1.66-1.49 4.9 4.9 0 0 1 2.16-.7c.04-.01.05-.03.05-.07v-.07c0-.02-.02-.03-.04-.03-.86 0-1.68.16-2.48.46-.17.07-.19.03-.06-.1.22-.22.54-.4.95-.54a7.4 7.4 0 0 1 1.08-.25c.14-.02.15-.06 0-.1l-.62-.2c-.46-.14-.45-.24.03-.3.87-.1 1.76-.44 2.67-1 .54-.34 1.3-.93 2.3-1.77.57-.49 1.25-.74 2.03-.75.75 0 1.44.2 2.07.65.08.05.16.05.24-.02a3.8 3.8 0 0 1 1.96-.96 8.4 8.4 0 0 0 4.35-1.84c.4-.32.72-.72.97-1.2.17-.31.35-.79.56-1.43.04-.13 0-.2-.15-.21-.1-.01-.14-.06-.12-.16v-.09c-.02-.1-.08-.13-.17-.08a.51.51 0 0 1-.37.02c-.12-.04-.12-.07 0-.1.36-.07.57-.28.63-.63.06-.38.16-.75.3-1.12.04-.1 0-.16-.1-.19l-.16-.04c-.15-.04-.15-.1-.01-.17l.43-.21c.09-.05.09-.09 0-.14l-.72-.38c-.16-.08-.15-.14.03-.17.92-.16 1.66-.1 2.19.17.24.13.5.2.75.22.12.01.14-.03.05-.12a.64.64 0 0 0-.23-.15c-.13-.05-.13-.1.01-.13a.52.52 0 0 0 .18-.07c.08-.06.08-.13 0-.2a.96.96 0 0 1-.16-.15c-.1-.12-.07-.16.07-.13l.31.07c.05 0 .08-.01.1-.05l.02-.07v-.02a1.46 1.46 0 0 1-.66-.65c-.06-.13-.03-.17.1-.1.33.16.67.3 1.03.41.2.06.25 0 .17-.19a1.3 1.3 0 0 1-.06-.13c-.05-.15-.01-.18.11-.09.33.24.7.41 1.13.5.04.02.07 0 .1-.02a.11.11 0 0 0 .04-.1l-.1-.7c-.01-.09 0-.1.06-.02l.2.35c.02.05.07.08.12.08.06 0 .1-.02.13-.07a.3.3 0 0 0 .03-.06.2.2 0 0 1 .16-.13c1.14-.24 2.38-.26 3.74-.05.79.12 1.46.34 2.02.65.07.04.14.04.2.02.17-.06.34-.14.5-.26a.1.1 0 0 1 .1-.01.1.1 0 0 1 .07.08l.07.82c0 .1.05.17.13.23l.6.45c.08.05.16.06.25.01.35-.18.65-.44.92-.77.2-.25.29-.22.26.1v.18c-.04.38-.07.65-.12.83a2 2 0 0 1-.4.76c-.1.12-.08.17.08.14l.88-.18c.11-.02.14.02.1.13-.11.28-.3.57-.58.86a.38.38 0 0 1-.29.13l-.5-.01c-.1 0-.13.04-.1.13l.27.85c.03.1.03.2-.02.3a11 11 0 0 0-.78 3.19c-.04.3-.02.58.04.82.2.76-.07 1.34-.84 1.76-.16.09-.33.13-.51.13a21.32 21.32 0 0 1-.69-.12c-.49-.1-.64-.45-.45-1.03a.55.55 0 0 0 .02-.27 11.9 11.9 0 0 0-.51-1.83c-.08-.22-.2-.42-.37-.59a2.54 2.54 0 0 1-.52-1.3c-.05-.28-.1-.28-.17 0a35 35 0 0 0-.34 1.65c-.03.14-.03.3 0 .48l.12.47c.12.38.16.68.15.89a4 4 0 0 1-.13.7.65.65 0 0 0 .07.5c.23.39.36.8.42 1.22.03.28.15.53.34.75.12.14.33.31.63.53.1.07.15.16.15.28 0 .53-.2 1.02-.61 1.47a5.43 5.43 0 0 0-1.28 2.32.73.73 0 0 1-.51.53c-.57.14-1 .54-1.26 1.2a.45.45 0 0 1-.18.2c-.4.27-.83.44-1.3.52a.47.47 0 0 1-.37-.1.48.48 0 0 1-.19-.36c-.03-.47.06-.9.28-1.28.4-.72.96-.91 1.65-.56.07.04.14.03.2-.02a.58.58 0 0 0 .24-.45c0-.1.04-.2.1-.27.21-.24.45-.43.73-.59.32-.18.53-.44.64-.8.08-.28.13-.57.14-.88 0-.16-.05-.2-.19-.1a3.8 3.8 0 0 0-1.71 2.06c-.2.65-.62.9-1.29.76a35.2 35.2 0 0 0-2.17-.38.7.7 0 0 1-.51-.31c-.13-.19-.12-.38.01-.59.24-.35.48-.62.71-.8.36-.3.69-.36.97-.2.35.2.54.5.56.9 0 .03.01.05.05.07.03.01.06 0 .09-.01.22-.2.46-.34.73-.44.43-.15.8-.65 1.13-1.5a.2.2 0 0 0-.02-.18.19.19 0 0 0-.14-.1h-.32c-.77.1-1.48.3-2.15.62-.6.28-1.23.68-1.88 1.2a8.58 8.58 0 0 1-4.28 1.7.6.6 0 0 0-.4.24 5.9 5.9 0 0 1-.69.68c-.23.2-.4.37-.5.47-.18.19-.31.37-.4.54-.46.91-.92 1.45-1.36 1.62-1.07.39-2.15.89-3.24 1.5-.53.3-1 .73-1.4 1.32-.37.53-.64 1.1-.81 1.71a.4.4 0 0 1-.16.22 6.72 6.72 0 0 0-.96.64c-.23.19-.38.37-.44.56-.1.28-.34.52-.7.7-.28.16-.6.27-.97.33a.14.14 0 0 1-.16-.07c-.46-.71-.39-1.37.21-1.99.32-.33.67-.39 1.05-.18.07.03.14.04.21 0a.23.23 0 0 0 .14-.15l.22-.73a.3.3 0 0 1 .15-.2c.85-.43 1.39-.9 1.63-1.42.07-.15.15-.44.25-.88.13-.59.25-1 .38-1.22.21-.39.52-.56.92-.53.17.02.33 0 .47-.07a3.82 3.82 0 0 0 1.6-2.43c.01-.04 0-.07-.03-.08a.08.08 0 0 0-.1 0c-.08.05-.2.14-.38.24-.39.23-.67.44-.82.63-.28.34-.6.57-.97.7-.56.2-1.1.46-1.64.79a.53.53 0 0 0-.21.23c-.25.51-.61.9-1.08 1.15-.26.13-.48.37-.66.7-.38.7-.77 1.42-1.14 2.15a.92.92 0 0 1-.3.34c-.08.05-.21.12-.39.2-.17.07-.29.13-.37.19-.13.08-.23.19-.3.31a4.5 4.5 0 0 1-1.72 1.6.34.34 0 0 1-.29.03.36.36 0 0 1-.21-.2 2 2 0 0 1-.18-.85c0-.33.06-.63.17-.9.13-.3.3-.5.53-.63.25-.13.55-.14.88-.02.09.03.16.02.23-.03l.51-.38a.33.33 0 0 0 .14-.25c.02-.23.08-.42.2-.57.08-.09.2-.2.4-.34.22-.15.38-.29.47-.4a7.7 7.7 0 0 0 1.44-3.16.28.28 0 0 1 .15-.2l1.3-.69a.47.47 0 0 0 .25-.4c.14-1.59.46-3.15.96-4.69.07-.19.05-.2-.04-.02Z" fill="#010405"/><path d="M35.37 15v-.08c.01-.05.04-.06.08-.04l.08.04c.07.04.15.04.23.01l.57-.25c.42-.19.74-.31.95-.37.36-.09.7-.09 1.01 0 .29.09.28.15-.01.2a8.7 8.7 0 0 0-3.08 1l.22-.24c.08-.1.07-.19-.05-.27ZM41.46 17.86c-.05.11-.11.2-.19.3-.07.07-.07.14 0 .21l.25.25c.06.05.06.1 0 .17a.2.2 0 0 1-.07.05.17.17 0 0 1-.15 0 .88.88 0 0 1-.4-.43.12.12 0 0 0-.13-.08c-.03 0-.05.03-.06.08v.08l.08.32a.4.4 0 0 1 0 .22l-.03.07c-.16.52-.26.9-.29 1.15-.04.4.03.73.21 1 .2.3.28.27.25-.09-.05-.5-.1-.96-.12-1.39a.56.56 0 0 1 .22-.5c.06-.04.1-.03.13.03.1.15.21.28.36.38.1.08.18.06.24-.05.16-.32.14-.59-.08-.81-.05-.06-.04-.1.03-.14l.06-.02c.05 0 .08.03.1.08 0 .07.04.18.08.33.08.27.13.46.15.59a.9.9 0 0 1-.1.55.29.29 0 0 0-.03.2l.4 2.5a.36.36 0 0 1-.14.34c-.05.05-.06.11-.02.18.2.35.19.67-.03.97-.07.09-.15.12-.26.08l-.15-.05c-.13-.05-.21 0-.25.13l-.08.28a.2.2 0 0 1-.12.13l-.15.07a.13.13 0 0 1-.13-.02.13.13 0 0 1-.06-.12c.06-.47-.01-.91-.2-1.31-.05-.1-.04-.18.03-.24.1-.1.19-.22.24-.35.04-.12 0-.17-.12-.16l-.07-.01c-.04-.01-.05-.04-.05-.08l.06-1.03a.2.2 0 0 0-.09-.18.2.2 0 0 0-.2-.03c-.59.21-.96-.04-1.1-.76-.1-.46-.1-1.01 0-1.64.02-.15.08-.3.17-.46.05-.1.14-.23.27-.4l.17-.25a.37.37 0 0 0 .05-.25l-.05-.44c0-.08-.06-.12-.14-.11-.52.05-1.01.13-1.46.24-.7.17-1.27.58-1.7 1.22a7.44 7.44 0 0 0-.89 2.02.18.18 0 0 1-.12.12l-.93.3c-.1.02-.13.09-.08.18.33.64.42 1.34.28 2.11-.05.26-.17.5-.34.72a4.73 4.73 0 0 1-.59.58l.03.05h.01c.14-.06.27-.15.39-.25.25-.2.49-.27.72-.18.21.07.39.25.53.54.25.52.57.94.95 1.24.43.33.9.5 1.44.52.1 0 .17.04.23.12.18.2.29.44.32.72.03.3-.05.55-.25.74-.29.26-.57.4-.85.4a.22.22 0 0 0-.18.09c-.07.1-.18.25-.3.46-.28.44-.52.74-.7.9a.9.9 0 0 0-.34.58c-.01.1-.08.16-.18.17l-.59.03c-.1 0-.12-.04-.07-.12.17-.33.41-.6.73-.77.18-.11.35-.26.51-.45.1-.12.23-.3.4-.55l.33-.46a.33.33 0 0 0 .06-.28l-.11-.65c-.02-.1-.08-.14-.18-.14-.8.04-1.57.16-2.32.36-.56.15-1-.09-1.29-.71-.01-.04-.04-.06-.08-.06a.08.08 0 0 0-.09.06.27.27 0 0 0 0 .14c.05.3-.06.39-.33.26-.62-.28-.98-.96-1.08-2.03l-.3-2.83c-.02-.15-.09-.18-.2-.1a.2.2 0 0 1-.07.04c-.1.02-.17 0-.24-.07a1.78 1.78 0 0 1-.52-1.41c0-.05-.02-.08-.06-.1-.04 0-.07 0-.1.04l-.64.95c-.05.08-.04.15.04.2.43.3.73.57.91.81.26.35.36.72.29 1.13l-.12.57c-.1.46-.16.8-.17 1.02-.03.38 0 .7.12.96.04.1.02.2-.06.27a5.67 5.67 0 0 1-2.3 1.49 3.2 3.2 0 0 1-3.4-.8 2.7 2.7 0 0 1-.53-.8 2.02 2.02 0 0 1 .12-1.88c.18-.3.12-.36-.18-.2-.74.44-1 1.1-.76 1.97.02.08.02.15-.01.23l-.45 1.25c-.06.16-.12.16-.19 0-.07-.19-.1-.44-.09-.76a8.36 8.36 0 0 1 .12-.95c.02-.14-.02-.16-.12-.06-.39.4-.62 1.24-.68 2.5a3.87 3.87 0 0 1-.7 2.08c-.44.6-1 1.04-1.7 1.28-.1.03-.14 0-.11-.1l.2-.78c.02-.12.09-.17.2-.15.02 0 .06-.03.1-.1a.3.3 0 0 0 .04-.07c.06-.17.09-.39.08-.66 0-.16-.02-.41-.05-.75l-.05-.62c-.01-.73.27-1.49.83-2.28.4-.55.97-1.16 1.7-1.82.44-.38 1.01-.62 1.73-.7a9.46 9.46 0 0 0 3.97-1.52c.52-.34.95-.73 1.27-1.17.22-.3.51-.83.88-1.6a7.8 7.8 0 0 1 1.47-1.8.45.45 0 0 1 .28-.13c.5-.05.9-.26 1.22-.64a7.43 7.43 0 0 1 5.82-2.54c.2.01.39.07.56.17a.1.1 0 0 1 .05.1c0 .04-.02.07-.07.08-.27.1-.54.15-.81.2a.07.07 0 0 0-.06.04v.02c0 .02 0 .03.02.03a6.9 6.9 0 0 1 1.5.2.5.5 0 0 0 .25 0l.1-.04c.13-.03.17.02.13.15l-.38 1.08c-.09.24-.06.25.08.04l.41-.64c.08-.12.14-.11.18.03.05.2.03.38-.06.56-.05.1-.02.15.09.15a.6.6 0 0 0 .27-.06.1.1 0 0 1 .08 0 .1.1 0 0 1 .06.07c.09.52.1.98.04 1.4-.02.13-.09.16-.2.08a.63.63 0 0 1-.19-.2.2.2 0 0 1 0-.23.3.3 0 0 0 .07-.17c0-.13-.03-.14-.08-.02Z" fill="#fff"/><path d="M30.7 18.41a.16.16 0 0 1-.07-.02v-.04c.13-.22.3-.41.5-.58a.23.23 0 0 0 .07-.18c0-.13.05-.23.15-.3.16-.11.16-.23.03-.36a1.12 1.12 0 0 1-.3-.45.09.09 0 0 1 .02-.09.09.09 0 0 1 .08-.04c.21.03.4.11.57.25.06.05.11.04.15-.03l.04-.07c.04-.07.1-.1.18-.1.74.04 1.46-.1 2.15-.43.03-.02.04 0 .05.03v.02l-.03.04c-.48.36-.9.75-1.26 1.17-.1.12-.22.2-.35.28a2.7 2.7 0 0 1-.4.14c-.1.04-.2.06-.25.09-.25.08-.48.25-.7.49a7.04 7.04 0 0 0-.78 1.06c-.01.02-.04.03-.06 0-.03-.01-.03-.04-.02-.07.13-.2.24-.4.34-.62a.13.13 0 0 0 0-.12.13.13 0 0 0-.1-.07ZM42.45 17.29c0 .04-.02.06-.05.08-.07.04-.12.02-.16-.05-.2-.45-.17-.88.09-1.27.05-.07.1-.1.19-.07.08.01.13.06.14.15l.04.34c.01.07.05.13.1.16.14.08.17.19.1.32a.2.2 0 0 0 0 .17c.1.25.25.45.46.6.08.06.07.09-.03.09-.36-.01-.58-.2-.67-.55-.01-.05-.06-.08-.13-.07-.05 0-.08.04-.08.1ZM43.42 16.27c-.08.15-.1.3-.04.34.06.04.18-.05.27-.2.08-.15.1-.3.04-.34-.06-.04-.18.05-.27.2ZM39.68 17.76l-.04.1a.22.22 0 0 1-.11.12.23.23 0 0 1-.17.02l-.5-.13c-.19-.05-.2-.1 0-.18.22-.08.45-.11.71-.1.12 0 .16.06.11.17Z" fill="#fff"/><path d="M32.59 18.58c.22-.04.45.06.69.3.2.21.35.44.42.68.18.58.37 1.16.58 1.76.05.16 0 .2-.15.14-.47-.21-.77-.73-.9-1.55-.06-.45-.3-.84-.68-1.19a.08.08 0 0 1-.03-.08c.01-.04.03-.06.07-.06ZM35.02 20.25l-.42-1.03c-.05-.11-.02-.17.1-.18a3.83 3.83 0 0 0 1.48-.4c.1-.05.14-.02.12.1a2.16 2.16 0 0 1-.99 1.6.18.18 0 0 1-.16.03.19.19 0 0 1-.13-.12Z" fill="#010405"/><path d="M42.95 18.94c.14.26.15.5.03.72-.06.12-.1.11-.1-.03l-.03-.66c-.01-.16.02-.17.1-.03ZM36.73 23.17c-.05-.01-.06-.04-.05-.09l.12-.47c.26-1.04.5-1.91.73-2.63.22-.72.36-1.07.42-1.06l.03.01c.06.01.01.4-.13 1.13a50.9 50.9 0 0 1-.6 2.66l-.13.48c0 .04-.03.06-.08.05l-.31-.08ZM41.26 19.24a.14.14 0 0 1-.04-.1c0-.03.02-.06.05-.08a.21.21 0 0 1 .05-.03c.07-.03.12-.01.15.06.03.07.03.14.01.2-.02.1-.07.12-.14.04l-.08-.09Z" fill="#fff"/><path d="M41.3 20.91c.07.24.2.41.27.39.07-.03.06-.24-.02-.48-.08-.23-.2-.4-.27-.38-.07.03-.07.24.01.47ZM41.87 22.4c0-.03.03-.05.06-.05.04 0 .06.01.07.05.22.65.02 1.16-.6 1.54-.13.08-.15.05-.08-.08.26-.44.44-.93.55-1.45Z" fill="#010405"/><path d="M13.87 30.17c-.25.14-.5.22-.76.26-.16.03-.18-.01-.04-.11a8.54 8.54 0 0 1 2.22-1.18c.51-.2.97-.63 1.38-1.3.08-.13.05-.16-.08-.1-.45.25-1.04.27-1.76.07-.03-.01-.05-.04-.05-.07 0-.03.01-.05.05-.07.32-.1.64-.16.96-.19.13 0 .22-.06.28-.16.06-.1.04-.13-.06-.07a.8.8 0 0 1-.4.12c-.18 0-.19-.03-.03-.12a9.75 9.75 0 0 0 1.74-1.3 5.66 5.66 0 0 1 1.98-1.12c.93-.3 1.64-.24 2.14.16.19.15.16.2-.07.18a5.11 5.11 0 0 0-4.32 1.56c-.2.19-.16.25.1.18.23-.06.47-.15.71-.27.16-.07.18-.04.08.1-.4.53-.58 1.2-.53 2.01.02.16.04.16.1.01.14-.45.37-.83.7-1.16.09-.07.12-.05.11.06-.04.47-.1.93-.19 1.4-.09.48-.29.9-.6 1.24a6.6 6.6 0 0 1-1.23.93c-.16.11-.18.09-.07-.07.34-.45.62-.94.86-1.47.05-.12.03-.14-.07-.07-.26.18-.5.37-.72.58-.52.51-1.25.85-2.19 1.02-.2.04-.22.01-.02-.08l.37-.23c.29-.21.26-.27-.08-.16a67.85 67.85 0 0 0-2.1.66c-.02-.04-.02-.06.02-.08.55-.34 1.1-.69 1.62-1.06.02-.01.02-.02 0-.03l-.04-.05-.02-.02Z" fill="#fff"/><path d="M33.29 24.72c0-.01 0-.02.02-.02h.01c.08.02.13.11.16.29.02.18.01.38-.02.62l-.02.08c-.04.24-.1.44-.18.6-.08.16-.16.23-.23.22h-.01c-.02 0-.03-.02-.02-.03l.29-1.76ZM36.05 25.95c.17.02.31.1.44.23.1.12.08.16-.07.13a5.53 5.53 0 0 0-.59-.1 2.4 2.4 0 0 1-.82-.2c-.25-.15-.43-.42-.52-.81-.01-.04 0-.07.04-.08.03-.02.06-.01.08.02.35.44.83.71 1.44.8ZM34.27 26.14l.04.03a3 3 0 0 0 .72.42c.18.05.47.05.87-.01.1-.02.2 0 .28.07.08.06.07.1-.02.12-.45.14-.82.18-1.1.13-.39-.07-.68-.3-.87-.68-.08-.14-.05-.17.08-.08ZM37.72 27.17c.1.07.14.16.15.25a.8.8 0 0 1-.04.26l-.04.23c-.01.15-.05.16-.12.03a.97.97 0 0 1-.07-.72c.02-.08.06-.1.12-.05Z" fill="#010405"/><path d="M23.08 30.5c.26-.8.51-1.6.74-2.41 0-.03.02-.04.05-.03.03.01.04.03.04.06-.05.44 0 .86.14 1.26.03.08.01.16-.05.23l-.8.95c-.16.2-.2.17-.12-.07ZM25.14 33.55l.03.01.01.02c.04.08-.01.2-.18.36a2.7 2.7 0 0 1-.64.46l-.05.03c-.27.14-.51.24-.73.28-.22.05-.36.03-.4-.05v-.05l1.96-1.06ZM18 33.84c.06-.03.1-.01.11.06l.01.11c0 .1-.02.18-.08.24l-.56.74c-.09.12-.13.11-.13-.04 0-.55.21-.92.64-1.11ZM21.3 35.09c-.05.1-.16.2-.32.26l-.21.1c-.12.09-.16.06-.12-.08.07-.24.26-.38.56-.42.12-.01.15.03.1.14Z" fill="#fff"/></svg>