<svg width="56" height="56" viewBox="0 0 56 56" xmlns="http://www.w3.org/2000/svg"><path fill="#210573" d="M0 0h56v56H0z"/><path d="M41.44 17.03a2.5 2.5 0 1 0 .06-5 2.5 2.5 0 0 0-.06 5Z" fill="#83C216"/><path d="M35.42 42.8a17.76 17.76 0 0 0 3.8-3.8 16.24 16.24 0 0 0 2.28-14.92 13.81 13.81 0 0 0-7.03-8.15 16.8 16.8 0 0 0-10.75-1.77c-2.22.36-4.26 1.2-6.12 2.52a17.46 17.46 0 0 0-4.58 4.92.25.25 0 0 1-.16.11.25.25 0 0 1-.19-.02l-.37-.21c-.14-.08-.16-.19-.08-.33a18.44 18.44 0 0 1 3.74-4.33 15.58 15.58 0 0 1 4.9-2.84c2.61-.93 5.25-1.2 7.92-.81 3.72.53 6.91 1.99 9.58 4.37.89.8 1.67 1.72 2.34 2.77.65 1 1.17 2.1 1.59 3.28a17.53 17.53 0 0 1 .94 7.16 16.45 16.45 0 0 1-2.25 7.2 18.8 18.8 0 0 1-5.1 5.63c-.12.09-.21.07-.29-.06l-.24-.41c-.07-.13-.05-.23.07-.32Z" fill="#E67942"/><path d="M33.78 38.9a12.09 12.09 0 0 0 4.82-11.59c-.48-3.32-2-5.88-4.6-7.7a12.37 12.37 0 0 0-5.08-2.06 11.43 11.43 0 0 0-9.23 2.66 18.6 18.6 0 0 0-2.93 3.16c-.05.07-.11.08-.18.03l-.53-.4c-.05-.04-.06-.08-.03-.13a16.36 16.36 0 0 1 2.93-3.22 13.8 13.8 0 0 1 3.73-2.26c2.96-1.19 6-1.18 9.11.02 1.43.55 2.73 1.34 3.89 2.38 1.2 1.08 2.1 2.29 2.72 3.63a13.52 13.52 0 0 1-.13 11.49 13.2 13.2 0 0 1-3.93 4.68.2.2 0 0 1-.15.04.2.2 0 0 1-.13-.08l-.31-.39c-.08-.1-.07-.18.03-.25Z" fill="#E67942"/><path d="M33.84 32.04c.27-.59.46-1.22.56-1.9a8.46 8.46 0 0 0-1.2-5.78 5.24 5.24 0 0 0-1.45-1.38 8.09 8.09 0 0 0-5.38-1.38c-1.11.1-2.18.47-3.2 1.11a8.64 8.64 0 0 0-2.52 2.37c-.07.11-.17.13-.28.06l-.4-.27c-.14-.08-.15-.19-.06-.31.6-.8 1.25-1.47 1.98-2.04a8.28 8.28 0 0 1 4.96-1.85 9.05 9.05 0 0 1 6.59 2.57c.7.71 1.23 1.7 1.6 3 .4 1.43.47 2.84.22 4.23a7.72 7.72 0 0 1-3.48 5.21 3 3 0 0 1-.49-.71l.01-.03a6.89 6.89 0 0 0 2.54-2.9Z" fill="#E67942"/><path d="m23.43 31.27-1.55-.25a.68.68 0 0 1-.25-.08.06.06 0 0 1-.03-.07c0-.03.02-.05.05-.06.76-.25 1.48-.58 2.16-1a51.4 51.4 0 0 0 2.9-1.89 168.66 168.66 0 0 0 3.83-2.78c.12-.09.2-.13.23-.14.25-.04.3.04.13.23a160.89 160.89 0 0 0-2.72 3.33 32.32 32.32 0 0 0-2.3 3.16c-.3.52-.55 1.05-.74 1.58a.11.11 0 0 1-.09.08c-.08.01-.12 0-.14-.06l-.42-1.26a.07.07 0 0 0-.05-.05c-.03 0-.05 0-.07.02a17.65 17.65 0 0 0-2.93 4.27 20.94 20.94 0 0 0-1.65 4.96.1.1 0 0 1-.05.07.1.1 0 0 1-.08.02l-.9-.18c-.08-.01-.11-.06-.1-.13.08-.52.2-1.04.35-1.56a25.3 25.3 0 0 1 2.48-5.68 11.36 11.36 0 0 1 1.97-2.5.04.04 0 0 0-.03-.03ZM20.9 29.29a.05.05 0 0 0-.03-.05h-.05a8.4 8.4 0 0 1-1.46.89 16.07 16.07 0 0 1-7.05 1.58c-.1 0-.17-.06-.19-.17l-.12-.89c-.01-.1.03-.16.14-.16 3.38-.05 6.14-.8 8.29-2.25a.07.07 0 0 0 .03-.07.07.07 0 0 0-.04-.06c-.37-.2-.76-.4-1.17-.65a.23.23 0 0 1-.1-.1.08.08 0 0 1 .01-.1.09.09 0 0 1 .08-.03c.9-.05 1.86-.2 2.88-.49.82-.23 1.75-.56 2.79-.99.07-.03.1 0 .1.07-.02.1-.05.18-.13.25a22.38 22.38 0 0 0-3.68 4.86c-.1.18-.18.17-.22-.03-.04-.2-.06-.54-.06-1 0-.28 0-.49-.02-.61ZM28.68 34.86c.01-.09-.02-.11-.1-.07l-1.12.58c-.4.2-.48.12-.21-.24 1-1.38 1.85-2.94 2.57-4.68.06-.15.14-.28.25-.38a.08.08 0 0 1 .1-.02c.03.01.05.04.05.08 0 1.04.05 1.98.17 2.83.13.96.36 1.88.69 2.78l-.01.08a.09.09 0 0 1-.08.04.32.32 0 0 1-.18-.06l-.85-.58a.1.1 0 0 0-.1-.01.1.1 0 0 0-.06.07c-.26.74-.38 1.6-.35 2.59.02.86.15 1.76.38 2.7.24.98.54 1.94.9 2.87.02.08 0 .14-.08.18l-.78.36a.16.16 0 0 1-.13 0 .16.16 0 0 1-.1-.08c-1.04-2.48-1.36-5.49-.96-9.04Z" fill="#FDF410"/></svg>