<svg width="56" height="56" viewBox="0 0 56 56" xmlns="http://www.w3.org/2000/svg"><path fill="#F0F3FA" d="M0 0h56v56H0z"/><path d="M28.63 16c-8 0-17.09.74-20.63 1.11V38.7c3.63.43 12.85 1.3 20.63 1.3 7.79 0 16.16-.87 19.37-1.3V17.1A186.32 186.32 0 0 0 28.63 16Z" fill="#FFC701"/><path d="M28.6 17c-7.6 0-16.24.68-19.6 1.02V37.8c3.45.4 12.2 1.2 19.6 1.2 7.4 0 15.35-.8 18.4-1.2V18.02A183.38 183.38 0 0 0 28.6 17Z" fill="#E31E25"/><path d="M12.1 23v2.48h.29v-.52c0-.9.67-1.62 1.51-1.62H16v8.1c0 .6-.48 1.08-1.04 1.08h-.42V33H19v-.48h-.6c-.56 0-1.02-.49-1.02-1.08v-8.1h2.25c.84 0 1.52.72 1.52 1.62v.52h.28V23H12.1ZM34 21.51h-.52l-.3 1.56c-.57-.69-1.98-2.07-4.36-2.07-2.98 0-7.27 1.61-7.27 7.06 0 5.45 4.64 6.94 7.27 6.94A8.1 8.1 0 0 0 33 34h1.5v-3.54a1 1 0 0 1 1-.98h1.07V29h-6.27v.48h1.08c.56 0 .61.44.61.98v.8c.03 1.07-.24 3.2-3.18 3.2-4.24 0-4.88-4.19-4.88-6.4s.5-6.55 4.88-6.55c3.5 0 4.45 3.02 4.66 4.49H34v-4.49Z" fill="#fff"/><path d="M36 23h4.9c.87 0 2.62.45 2.62 2.31 0 1.35-1.53 2.13-2.3 2.36.93.07 2.78.7 2.78 2.63-.02.9-.65 2.7-3.04 2.7H36v-.39h.81c.43 0 .77-.35.77-.8v-7.6c0-.45-.34-.81-.77-.81H36V23Zm3 .37v4h1.2c1 0 1.8-.84 1.8-1.87v-.26c0-1.03-.8-1.87-1.8-1.87H39ZM39 28v3.69c0 .45.34.81.77.81h.62a2.1 2.1 0 0 0 2.1-2.1v-.3a2.1 2.1 0 0 0-2.1-2.1H39Z" fill="#fff"/></svg>