<svg width="56" height="56" viewBox="0 0 56 56" xmlns="http://www.w3.org/2000/svg"><path fill="#F0F3FA" d="M0 0h56v56H0z"/><path d="M34.88 15.88c5.41 1.72 6.17 9.36 1.69 17.01-4.48 7.65-12.55 12.48-17.96 10.76-5.41-1.72-6.17-9.36-1.7-17 4.5-7.66 12.56-12.5 17.97-10.77Z" fill="#982620"/><path d="M28.64 29.44c-3.88.94-10.66 9.74-5.62 12.48.56.3 1.23.33 1.78.33.06.12-.1.27-.28.33-4.13 1.06-6.1-1.78-4.88-5.8l4.99-11.17a4.43 4.43 0 0 0-.3-3.85l1.18-.52-.81-1.63-1.25 1.04 1.1-1.7-.44-.22c-1 2-2.34 3.7-4.03 5.1 1.74-.98 3.94-1.45 3.15 1.63-1.18 3.67-3.13 7.15-4.69 10.72-3.15 9.52 6.2 8.39 9.72 3.74a11.4 11.4 0 0 0 2.17-5.05c.6-5.62-.04-11.32.72-16.87.9-4.1 2.72-5.28 5.57-6.9.97-.53 2.06-.94 3.28-1.22V7c-2.93 3.43-6.54 1.65-9.14 8.48-1.12 4.71-.66 12.1-.61 17.82-.34 3.82-1.43 5.91-3.03 6.81a17.99 17.99 0 0 0 1.8-5.9c.23-1.67.26-3.48-.38-4.77ZM26 42.79c7.45-4.81 7.59-10.09 10.71-16.14A8.26 8.26 0 0 1 40 23.47v2.22c-.92.12-2 .69-2.91 2.07-.6.93-4.68 10.41-4.75 10.5a22.32 22.32 0 0 1-6.1 4.43l-.23.1Zm4.8-5.33C34.55 31.23 33 25.01 40 20.26v2.32c-5.92 2.28-5.62 10.38-9.18 14.88Zm.24-3.59c3-5.84-.31-11.4 8.95-17.16v2.07c-6.92 2.48-6.11 10.57-8.95 15.1Zm.46-6.3c.41-1.5.93-11.24 8.49-13.54v2c-5.9 1.28-7.06 6.31-8.5 11.54Zm-.23-3.66c.1-1.6.74-10.75 8.72-12.9v2c-5.91 1.27-7.57 5.53-8.72 10.9Zm-3.63 6.48c.49 1.04.82 2.12.8 3.29a15.3 15.3 0 0 1-1.94 6.81c-3.33 2.22-5.08-1.31-3.78-4.43a13.3 13.3 0 0 1 4.92-5.67Z" fill="#FFDA00"/><path d="M18.77 36.26c1.55-3.53 3.47-6.98 4.64-10.6.3-1.16.17-1.8-.2-2.12.23.37.27.97.02 1.92-1.18 3.67-3.13 7.15-4.69 10.72-1.75 5.27.34 7.28 3.15 7.23-2.68-.05-4.6-2.06-2.92-7.15Z" fill="#F6F05E"/><path d="M23.02 41.92a3 3 0 0 0 1.25.31 2.77 2.77 0 0 1-1.07-.3c-4.97-2.7 1.67-11.33 5.51-12.33l-.07-.16c-3.88.94-10.66 9.74-5.62 12.48ZM24.7 19.61l-.52.44-.73.6 1.39-.76-.14-.28ZM24.69 42.59c.18-.06.33-.21.27-.33h-.16c.05.12-.1.26-.28.32-.62.16-1.18.23-1.7.22.56.03 1.18-.04 1.87-.21Z" fill="#F6F05E"/><path d="M26.66 40.52c1.13-2 1.77-4.24 1.91-6.74a7.39 7.39 0 0 0-.79-3.25l-.05.04c.44.98.74 2 .72 3.1a15.3 15.3 0 0 1-1.94 6.82c-.81.54-1.54.74-2.14.68.63.12 1.4-.06 2.29-.65ZM24.28 19l.19.08.08-.13-.44-.22c-1 2-2.34 3.7-4.03 5.1.31-.17.64-.33.96-.46A15.68 15.68 0 0 0 24.28 19ZM31.5 27.57l.37-1.31c.54-3.2 1.97-10.04 8.13-11.92v-.31c-7.56 2.3-8.08 12.03-8.5 13.54Z" fill="#F6F05E"/><path d="m31.28 23.9.17-.78c.32-2.87 1.7-9.92 8.55-11.76V11c-7.98 2.15-8.62 11.3-8.72 12.9Z" fill="#F6F05E"/><path d="M30.86 15.48c-1.12 4.71-.66 12.1-.61 17.82-.33 3.64-1.33 5.7-2.8 6.67-.04.06-.23.12-.26.18 1.52-.78 2.82-2.96 3.16-6.74-.04-5.67-.5-12.97.6-17.63 2.58-6.76 6.15-5 9.05-8.4V7c-2.93 3.43-6.54 1.65-9.14 8.48Z" fill="#F6F05E"/><path d="M36.72 26.65c-3.03 5.87-3.25 11.01-10.05 15.7l-.42.34.27-.14.42-.29-.13.1c6.73-4.64 6.95-9.73 9.95-15.53 1-1.64 2.09-2.54 3.24-3.15v-.21a8.27 8.27 0 0 0-3.28 3.18ZM31.05 33.87c.3-.48.56-1.01.8-1.57C33.6 27.13 31.72 22.14 40 17v-.3c-9.26 5.77-5.94 11.33-8.95 17.17Z" fill="#F6F05E"/><path d="M30.82 37.46c.22-.27.42-.57.61-.87 3.03-5.85 2-11.62 8.57-16.08v-.25c-7 4.75-5.46 10.97-9.18 17.2Z" fill="#F6F05E"/><path d="M22.7 35.84c-.4.98-.51 2-.37 2.86-.1-.82.03-1.75.4-2.64a13.3 13.3 0 0 1 4.92-5.67 11 11 0 0 1-.08-.17 13.2 13.2 0 0 0-4.87 5.62ZM25.45 21.14l-1.16.51.05.1 1.17-.5-.81-1.64.75 1.53ZM23.45 20.65l.2-.3.9-1.4-.08-.04-1.02 1.74ZM22.98 41.66a3.17 3.17 0 0 1-1.74-2.46 3.2 3.2 0 0 0 3.37 3.05c.11-.08.18-.18.14-.27-.55 0-1.21-.02-1.77-.32ZM19.64 36.78l4.99-11.17a4.36 4.36 0 0 0-.1-3.47c.43 1.04.5 2.14.05 3.33l-4.95 11.08c-.29.93-.4 1.8-.35 2.57-.01-.71.1-1.5.36-2.34ZM28.93 34c-.3 2.13-.81 4.4-1.74 6.15a18.33 18.33 0 0 0 1.83-5.94c.23-1.67.26-3.48-.38-4.77.55 1.27.51 2.98.3 4.56ZM23.3 23.71c-.3-1.07-1.61-.82-2.84-.21l-.38.33c1.29-.72 2.82-1.16 3.22-.12ZM39.83 12.97c-5.58 1.2-7.33 5.08-8.48 10.04l-.07.9c1.15-5.37 2.81-9.63 8.72-10.9v-2l-.17.05v1.91Z" fill="#D37E27"/><path d="M39.83 7.18v2.68c-1.2.28-2.29.68-3.25 1.2-2.82 1.61-4.64 2.79-5.53 6.86-.75 5.5-.11 11.16-.71 16.74-.37 1.9-1.04 3.61-2.16 5.01a9.16 9.16 0 0 1-3.38 2.68c-.03.1-.14.19-.28.23-.2.05-.4.1-.59.12-2.94 1.03-5.96.35-6.03-3.24-.1 5.87 7.3 4.48 10.36.46a11.4 11.4 0 0 0 2.17-5.05c.6-5.62-.04-11.32.72-16.87.9-4.1 2.72-5.28 5.57-6.9.97-.53 2.06-.94 3.28-1.22V7l-.17.18Z" fill="#D37E27"/><path d="M39.83 25.55c-.91.12-1.98.68-2.89 2.05-.6.93-4.64 10.34-4.7 10.43a23.85 23.85 0 0 1-4.62 3.63l-.95.7-.42.33c2.1-.99 4.18-2.53 6.1-4.43.06-.09 4.14-9.57 4.74-10.5.9-1.38 1.99-1.95 2.91-2.07v-2.22l-.17.09v2ZM39.83 15.96c-5.32 1.16-6.76 5.4-8.04 10.06-.13.73-.2 1.27-.28 1.55 1.43-5.23 2.6-10.26 8.49-11.54v-2l-.17.06v1.87Z" fill="#D37E27"/><path d="M39.83 22.46c-5.19 2-5.56 8.52-8.02 13.09-.29.64-.61 1.27-1 1.91 3.57-4.5 3.27-12.6 9.19-14.88v-2.32l-.17.12v2.09Z" fill="#D37E27"/><path d="M39.83 18.7c-5.94 2.12-6.14 8.4-7.9 12.97-.22.73-.5 1.46-.88 2.2 2.84-4.52 2.03-12.6 8.95-15.09v-2.07l-.17.1v1.89Z" fill="#D37E27"/></svg>