<svg width="56" height="56" viewBox="0 0 56 56" xmlns="http://www.w3.org/2000/svg"><path fill="#202C56" d="M0 0h56v56H0z"/><path d="M13.54 18.86a2.92 2.92 0 0 0-1.24-.78l-.01-.01h.01c.09-.03.18-.04.27-.05L13 18a2 2 0 0 1 .46.05 1.11 1.11 0 0 1 .48.25l.03.03a.05.05 0 0 1 0 .05.66.66 0 0 1-.11.14 2.14 2.14 0 0 0-.32.34Zm-.53.8h-.06a.32.32 0 0 0-.2.06.38.38 0 0 0-.14.28c0 .1.04.18.1.25.05.07.13.11.21.12l.3.05v-.01a3 3 0 0 1 0-.72l-.21-.04Zm-3.5 3.38c.16-1.16.68-1.54.9-1.65v-.01l.01-.02c.1-.5.33-.98.66-1.37l.03-.03v-.01h-.01c-.58.02-1.44.27-1.92 1.48-.11.3-.16.62-.15.94a3.54 3.54 0 0 0 .5 1.6v-.02c-.06-.3-.06-.61-.02-.91Zm.43.07a2.6 2.6 0 0 0 .65 2.1c.53.53 1.27.79 1.98.85h.08c.1.02.26.03.23.01a2.77 2.77 0 0 1-.71-.51 2.44 2.44 0 0 1-.8-1.5 2.63 2.63 0 0 1-1.04-2h-.01c-.15.2-.3.51-.38 1.05Zm5.11 1.63c.58.21 1.1.58 1.49 1.08h-.01a12.95 12.95 0 0 1 .25.37c-.14-.06-.48-.18-.98-.34a2.6 2.6 0 0 1-1.55-1.28c.27.02.54.08.8.17Zm-5.4-4.73a2.56 2.56 0 0 1 2-.5 2.66 2.66 0 0 1 1.58-.3v-.01a2.02 2.02 0 0 0-1.51-.74c-.39 0-1.22.19-1.94 1.27l-.15.25c-.01.03 0 .04.02.03Zm4.09 4.55c.22.52.57.97 1 1.3v.01l-.08.02c-.35.08-1.26.26-2.19-.67a2.32 2.32 0 0 1-.56-.86l.25.09c.37.09.75.12 1.13.1h.45Zm-1.56-4.68v-.03h.01v-.05h-.03l-.04.01a1.05 1.05 0 0 0-.2.08 2.17 2.17 0 0 0-.36.26 2.24 2.24 0 0 0-.69 1.23l-.07.32A2.07 2.07 0 0 0 12.27 24c.33.1.66.08 1 .08h.17l.16-.01h.28a4.64 4.64 0 0 1 1.7.41 3.72 3.72 0 0 1 1.34 1.12l.01.01.02.02.01.02.01.01.01.02H17v-.02l-.01-.01v-.02l-.02-.03v-.02a2.59 2.59 0 0 0-.07-.16 3.3 3.3 0 0 0-.04-.08l-.04-.08a2.74 2.74 0 0 0-.29-.46 3.3 3.3 0 0 0-2.1-1.26l-.31-.06h-.02a7 7 0 0 1-1.05-.27c-.26-.1-.65-.26-.92-.6-.41-.52-.35-1.29.16-2.06l.02-.04v-.04l-.01-.01-.01-.02a.7.7 0 0 1-.1-.26.9.9 0 0 1 0-.28v-.01Zm1 2.88a1.58 1.58 0 0 1-.72-.46c-.4-.5 0-1.22.19-1.5l.02-.02a3.97 3.97 0 0 1 .29.07l.3.05.07.01.02.02c.17.43.54.74 1.09.92h.02c.03 0 .6.17.91.4l.1.08a6.96 6.96 0 0 1 .9 1v.03a2.97 2.97 0 0 1 .22.34 4.47 4.47 0 0 1 .47 1.06l.01.02-.02-.02v-.01l-.03-.04a2.01 2.01 0 0 0-.15-.22 3.73 3.73 0 0 0-2.35-1.42l-.33-.07h-.02a6.56 6.56 0 0 1-.98-.24Zm.5-2.27c.06.43.36.74.88.9h.01c.36.14.7.32 1.02.53l.22-.12.92-.49.11-.06.2-.1c.17-.11.1-.47.04-.67l-.01-.1s-.02-.02-.03-.01a.62.62 0 0 1-.37.09.59.59 0 0 1-.22-.07c-.24-.14-.34-.58-.2-.82l.02-.03c.08-.12.2-.22.32-.3a2.13 2.13 0 0 1 .4-.21V19l-.03-.33v-.02h-.03l-.17.03c-.1.01-.2-.02-.21-.1-.02-.12 0-.17.11-.2l.24-.06.01-.01v-.03l-.01-.17a.04.04 0 0 0-.01-.02.03.03 0 0 0-.03 0l-2.4.4h-.04c-.02 0-.03 0-.03.02l-.01.02v.02l-.02.03v.01c-.06.1-.13.2-.21.27-.3.28-.6.69-.47 1.62Zm.84-1.34.5-.22a.2.2 0 0 1 .24.06l.04.07a.25.25 0 0 1 0 .18.23.23 0 0 1-.12.13l-.5.21a.21.21 0 0 1-.2-.02.23.23 0 0 1-.08-.1.25.25 0 0 1 0-.18c.02-.06.06-.1.12-.13Zm5.47 3.18-2.54 2.2v.01h-.02a4.28 4.28 0 0 0-.42-1.1l1.45-.89a.23.23 0 0 0 .07-.08.24.24 0 0 0 .03-.1l.05-.58c0-.02 0-.04.02-.05 0-.02.02-.03.03-.04l.63-.44a.07.07 0 0 1 .06-.01l.04.03.15.25v.01a.02.02 0 0 1 0 .01l-.3.24a.24.24 0 0 0-.04.35c.04.04.1.07.15.07.06 0 .11 0 .16-.04l.1-.08.11-.09h.02c.02-.02.04-.04.06-.01l.04.06.1.17a.85.85 0 0 0 .06.08v.02Zm-.02 6.42H20v-.4c0-.03-.02-.03-.05-.03h-.02l-.16.01h-.1a.22.22 0 0 1-.16-.04.25.25 0 0 1-.09-.15.25.25 0 0 1 .05-.18.22.22 0 0 1 .07-.06.21.21 0 0 1 .1-.03l.35-.02H20v-.31l-.02-.05a.07.07 0 0 0-.05-.02h-.85a.1.1 0 0 0-.1.05l-.33.46a.22.22 0 0 1-.06.06.2.2 0 0 1-.08.03l-.05.01h-.03a431.5 431.5 0 0 0-2.8.15h-.03c-.62.08-.85.16-.93.22a.22.22 0 0 1-.26 0 .23.23 0 0 1-.07-.1.24.24 0 0 1 .09-.28c.16-.12.5-.21 1.05-.29h.04l.09-.01h.04c.01 0 .03 0 .03-.02v-.03c.03-.77-.64-1.49-.65-1.5H15a3.93 3.93 0 0 0-.82.14l-.06.01-.03.01a4.15 4.15 0 0 1-1.85.12c.08.85.35 1.7.96 2.3.4.38.91.63 1.45.72.45.09.9.03 1.35-.03h.01l3.96-.74Zm-4.77 7.86 2.5 2.13.14.1c.16.15.28.15.45.15h1.62v-.01l-.15-.37-.01-.02h-.4a.2.2 0 0 1-.15-.07.23.23 0 0 1-.07-.17c0-.06.03-.12.07-.16.04-.04.1-.07.15-.07h.23v-.01l-.08-.22a.09.09 0 0 0-.03-.04.08.08 0 0 0-.04-.01h-.95a.32.32 0 0 1-.2-.08l-1.51-1.35a.28.28 0 0 1-.1-.22c.01-.1.07-.16.13-.22l.05-.06a5.05 5.05 0 0 0 .5-.79c.13-.27.2-.56.23-.87.1-1.54-1.24-2.86-1.82-3.36l-.26-.2-.13.09-.03.02c-.4.25-.82.46-1.26.64-.93.39-1.03.83-1.04.92v.02s1.3.55 2.07 1.49c.23.28.36.63.4 1a2.36 2.36 0 0 1-.26 1.3c-.04.09-.1.18-.11.28v.09l.06.07Zm1.3-8.92c.04-.02.07-.1.1-.16v-.02l.08-.23a4 4 0 0 0 .07-.45v-.05l.01-.05a.05.05 0 0 0 0-.04 6.7 6.7 0 0 0-1.05-.38l-.03-.01h-.02l.01.03a2.53 2.53 0 0 1 .45 1.38h.19l.18-.02Zm-8.06-.38a.24.24 0 0 0 .12.01v.01c0 .33-.12.56-.29.86-.18.32-.4.73-.58 1.44-.2.84-.06 1.42.1 1.73.07.15.18.28.3.4a1.17 1.17 0 0 0 .44.23.02.02 0 0 1 0 .01 2.28 2.28 0 0 0-.02.77h-.02a1.7 1.7 0 0 1-.86-.44 1.87 1.87 0 0 1-.52-.86c-.35-1.19.2-2.15.69-3 .1-.2.2-.34.3-.47.16-.24.28-.42.34-.68Zm-.8-1.58.03.01c.14.08.25.2.31.35l.09.25c.12.35.19.55.45.55.39-.02.35-.7.02-1-.22-.19-.5-.29-.8-.29 0 0-.14.02-.16.06-.01.03.03.05.07.07Zm5.06 6.23c-.16-.27-.38-.5-.63-.68a.21.21 0 0 0-.18-.03.22.22 0 0 0-.08.05.24.24 0 0 0-.07.24c.01.06.04.1.09.13.67.46 1.04 1.47.82 2.35-.18.78-.76 1.45-1.53 1.56a2.4 2.4 0 0 0-.9.27c-.27.2-.45 1-.55 1.44l-.06.28a.2.2 0 0 0 0 .1c0 .04.02.07.05.1l.07.05c.03.02.07.02.1.02h1.05l.04.02c.02.01.03.02.03.04l.08.2v.02l-.23.01a.22.22 0 0 0-.15.07.24.24 0 0 0 0 .33.22.22 0 0 0 .15.07h.4l.01.01.15.37V39l-.01.01H9.65c-.2 0-.45-.06-.55-.2-.15-.2-.29-.4-.42-.63l-.07-.16-.04-.1a4 4 0 0 0-.02-.03c-.05-.1-.1-.22-.07-.35a15.18 15.18 0 0 1 .2-.91L9 35.35v-.01a2.09 2.09 0 0 0 .05-.14.14.14 0 0 1 .04-.03c.33-.21.35-.65.25-.96-.05-.2-.13-.4-.22-.59a3.2 3.2 0 0 1 .22-2.9c.18-.27.4-.5.62-.72.27-.27.53-.55.72-.89a4.95 4.95 0 0 0 .45-2.98 3.86 3.86 0 0 0 .67.27 4.87 4.87 0 0 0 .93 2.53 3.06 3.06 0 0 0 1.07.84 3.13 3.13 0 0 0 1.53.25l.24-.03c-.12.16-.27.3-.44.41a7.8 7.8 0 0 1-1.2.6 2.34 2.34 0 0 0-1.21.96Z" fill="#CC9F53"/><path fill-rule="evenodd" d="M38.88 22.88Zm0 0h-.03a.2.2 0 0 0 0 .12l.07.09.17.08c.15.06.3.14.42.24.27.21.48.48.64.78.25.45.76.63 1.54.67h.03l.02-.02c.47-.66 1.01-1.04 1.61-1.13.06-.01.12 0 .17.04a.23.23 0 0 1 .08.18c0 .06-.02.11-.05.15a.22.22 0 0 1-.14.08c-.98.15-1.59 1.35-1.8 1.82V26l.02.01a6.95 6.95 0 0 0 3.7.98l.02-.02c.1-.34.17-.67.23-1.02.12-.81.03-1.44-.28-1.86-.2-.27-.48-.46-.8-.52a.22.22 0 0 1-.15-.09.23.23 0 0 1-.05-.16c.04-.37-.04-.66-.2-.87a.96.96 0 0 0-.6-.3.22.22 0 0 1-.14-.07.23.23 0 0 1-.07-.13c-.07-.38-.23-.45-.9-.7-.04 0-.07-.01-.1-.03l-.39-.14h-.02a2.13 2.13 0 0 1-.15-.07c-.28-.14-.58-.34-.7-.64-.12-.29-.18-.82.07-1.03a.5.5 0 0 1 .07-.05c.28-.17.66-.05.86.34.55 1.09.79 1.32 1.37 1.48a.99.99 0 0 0 1.07-.36c.2-.26.31-.54.27-1.15a3.63 3.63 0 0 0-.42-1.27.03.03 0 0 0-.03 0l-.52.3a.04.04 0 0 0-.02.05c.2.33.3.7.31 1.08 0 .16-.04.4-.17.5-.17.14-.4.03-.56-.1a1.22 1.22 0 0 1-.32-.5 7.66 7.66 0 0 0-.12-.29 2.42 2.42 0 0 0-.51-.87c-.62-.59-1.64-.69-2.3-.13-.1.07-.17.16-.24.25-.67.93-.28 2.2.3 3.06.2.31.35.7.13 1.05a.62.62 0 0 1-.32.25c-.13.05-.27.06-.41.05a2.15 2.15 0 0 1-.57-.12l-.09-.03Zm3.36-.52a.23.23 0 0 0 .08-.1.23.23 0 0 0-.04-.25.22.22 0 0 0-.07-.05l-.4-.18a.22.22 0 0 0-.17 0 .22.22 0 0 0-.15.2.23.23 0 0 0 .13.21l.4.19.1.02c.04 0 .08-.01.12-.04Zm-3.33-1.1a2.22 2.22 0 0 0 .25.33h-.01a2.4 2.4 0 0 1-.89-.84 2.7 2.7 0 0 1-.05-.96 2.16 2.16 0 0 1 .38-.97h.02l.01.02v.01c-.03.2-.04.4-.05.6-.04.54 0 1.1.23 1.6.03.08.07.14.11.2Zm.5 1.33c-.4-.06-.77-.24-1.07-.52a3.07 3.07 0 0 1-.69-.98 2.36 2.36 0 0 1-.16-1.03h.03a5.9 5.9 0 0 0 .93 1.46 2 2 0 0 0 .6.43c.15.06.3.1.47.1.1 0 .19 0 .28.04.16.08.22.36.04.46a.75.75 0 0 1-.42.04Zm-2.97 2.3a.21.21 0 0 0-.09-.01h-.27v-.01h-.01v-.3h.05c.28-.01.8-.02 1.53.58a6.73 6.73 0 0 0 3.24 1.22h.03l.01.01v.02a6.67 6.67 0 0 0-.49 1.57 5.13 5.13 0 0 1-1.94-.79c-.27-.18-.55-.36-.87-.47-.28-.1-.56-.08-.85-.07h-.07c-.08 0-.64.05-.64-.1v-.5h.33c.05 0 .1-.02.15-.06a.23.23 0 0 0-.06-.37.21.21 0 0 0-.09-.02l-.32-.01-.01-.01V25.33h.28c.05 0 .11-.02.15-.06a.23.23 0 0 0 .05-.25.23.23 0 0 0-.11-.12Zm12.51 10.53v.02l-.11.11h-.03c-.42-.4-.33-1.43-.3-1.82l.01-.08c.03-.4.03-.72-.15-.9a.77.77 0 0 0-.59-.2l.14-.8v-.01h.01l.2.07c.28.12.52.32.67.57.23.4.23.71.15 1.2-.02.1-.08.51-.1.73l-.02.1c-.1.75.05.91.1.98l.01.01v.01l.01.01Zm-4.83-4.38a.22.22 0 0 0-.3-.02l-.06.05c-.16.12-.3.26-.45.41a3.1 3.1 0 0 0-.77 1.48 8.07 8.07 0 0 1-1.3-1.84c.29-.07.58-.17.85-.32.57-.31 2.42-1.46 2.46-3.34l.01-.01h.02l.45.02c.23 0 .52-.03.61-.13.04-.04.15-.14.3-.84v-.01h.01a6.54 6.54 0 0 1 .74 7.77l-.48.76c-.23.38-.35.83-.34 1.28.01.34.1.67.27.96.17.26.31.53.43.82a3.07 3.07 0 0 1 .14.9l-.01.01h-.73v-.38a.23.23 0 0 0-.13-.22.21.21 0 0 0-.08-.02.22.22 0 0 0-.16.07.24.24 0 0 0-.07.16l-.01.38a.02.02 0 0 1-.02.01h-.36v-.38a.23.23 0 0 0-.05-.16.22.22 0 0 0-.16-.08.22.22 0 0 0-.15.07.24.24 0 0 0-.07.16l-.02.38a.02.02 0 0 1 0 .01h-.31v-.01c.01-.31.1-.61.26-.88.37-.55-.03-1.21-.2-1.5-.18-.3-.38-.57-.58-.85l-.01-.02c-.15-.2-.3-.4-.43-.62a3.2 3.2 0 0 1-.5-1.06l-.02-.31c0-.45.1-.88.28-1.29.12-.24.27-.46.45-.66a4.55 4.55 0 0 1 .52-.5.24.24 0 0 0 .01-.18.23.23 0 0 0-.04-.07Zm-3.17.54.01.01a7.23 7.23 0 0 0 1.51 1.94v.03l-.01.16a1.9 1.9 0 0 0 0 .26V34c-.58.35-1.08.8-1.48 1.34-.49.65-.94 1.82-.6 2.44.19.37.3.78.31 1.2V39H39.74V38.64a.24.24 0 0 0-.06-.17.22.22 0 0 0-.15-.07.23.23 0 0 0-.16.06.23.23 0 0 0-.07.16l-.01.35V39H39V38.65a.23.23 0 0 0-.12-.22.22.22 0 0 0-.3.11.23.23 0 0 0-.02.1v.34l-.01.02h-.27l-.01-.01c0-.4.13-.79.36-1.1.2-.33.32-.7.35-1.08.03-.31-.02-.6-.08-.9 0-.07-.02-.14-.03-.2a3.96 3.96 0 0 1 .12-2.2 3.21 3.21 0 0 1 1.95-1.93ZM36 29.27v-.01h.28a.22.22 0 0 0 .16-.07.23.23 0 0 0 .06-.18c0-.05-.03-.1-.07-.14a.23.23 0 0 0-.16-.06l-.25-.01H36v-.01H36v-.26H36.3a.22.22 0 0 0 .16-.07.23.23 0 0 0 .06-.18.24.24 0 0 0-.08-.14.22.22 0 0 0-.15-.06l-.27-.01a.02.02 0 0 1-.02-.02v-.27l.02-.01a1.86 1.86 0 0 1 1.51.63c.47.53 1.55.84 2.6.76.5-.04 1.18-.2 1.52-.74a.23.23 0 0 0 0-.26.23.23 0 0 0-.07-.06c-.15-.1-.25.02-.35.13a1.13 1.13 0 0 1-.37.28h-.01v-.02a6.1 6.1 0 0 1 .58-2.07 7.95 7.95 0 0 0 2.68.97c0 .5-.2 1.9-2.23 3-1.38.75-2.99.28-4.19-.4-.21-.12-.45-.2-.7-.2-.1 0-.22 0-.32.03a2.77 2.77 0 0 1-.66.07v-.01l-.01-.61Z" fill="#CC9F53"/><path d="M21 20v4h2v-2h4v10h-1v2h4v-2h-1V22h4v2h2v-4H21Z" fill="#E1251B"/><path d="m28 38.98-4.4-2.41a4.99 4.99 0 0 1-2.6-4.38V26h2v5.33c0 1.39.8 2.68 1.98 3.4L28 36.57v.02l3.02-1.85a4.05 4.05 0 0 0 1.98-3.4V26h2v6.2c0 1.83-1 3.5-2.6 4.38L28 39v-.02Z" fill="#CC9F53"/></svg>