<svg width="56" height="56" viewBox="0 0 56 56" xmlns="http://www.w3.org/2000/svg"><path fill="#F0F3FA" d="M0 0h56v56H0z"/><path fill-rule="evenodd" d="M12.32 34.96a1.1 1.1 0 0 1-.32-.78V21.46c0-.13.05-.25.14-.34l9.02-9a.4.4 0 0 1 .29-.12h13.12c.1 0 .2.04.28.12l9.02 9.02a.4.4 0 0 1 .13.3v12.79c0 .17-.06.33-.18.45a236.55 236.55 0 0 1-8.27 8.43c-.28.28-.58.53-.88.77a.56.56 0 0 1-.36.12h-12.9c-.1 0-.2-.13-.28-.24l-.1-.14a425.9 425.9 0 0 1-6.95-6.89l-1.76-1.77Zm4.8-13.3c1.1-2 3.48-4.1 5.56-5l.16-.06c.99-.42 1.94-.83 3.03-1a.1.1 0 0 1 .08.02.1.1 0 0 1 .03.04v.01l.02.03v24.66l-.01.01-.02.01v.02a.05.05 0 0 1-.04 0 13.18 13.18 0 0 1-3.71-1.3 11.65 11.65 0 0 1-3.16-2.2 12.48 12.48 0 0 1-3.75-9.6c.08-1.92.87-3.96 1.8-5.64ZM35.53 18c-1.24-1-3.66-2.13-5.42-2.38-.08-.01-.12.02-.12.1V40.3a.1.1 0 0 0 .04.08.1.1 0 0 0 .1.02c1-.22 2.08-.57 3.2-1.05a12.4 12.4 0 0 0 7.01-8.52c.75-3.18.28-6.2-1.4-9.04-.9-1.5-2.1-2.75-3.41-3.8Zm-19.95 5.14a.1.1 0 0 1 .06.12 13.5 13.5 0 0 0-.88 3.7 13.38 13.38 0 0 0 4.71 11.23c.45.39.92.72 1.42 1a.34.34 0 0 1 .18.29v3.26c0 .1-.04.11-.1.05-.41-.35-.81-.73-1.2-1.13a419.7 419.7 0 0 0-6.99-7.02.83.83 0 0 1-.25-.59l.01-12c0-.1.05-.14.16-.1l2.88 1.19Zm27.78-1.19-2.85 1.18c-.1.05-.14.12-.1.23.93 2.43 1.11 4.95.53 7.57a13.33 13.33 0 0 1-5.99 8.42.2.2 0 0 0-.02.1v3.3c0 .15.05.17.16.07l8.29-8.31a.3.3 0 0 0 .09-.22L43.46 22a.07.07 0 0 0-.09-.06Z" fill="#1C0F7A"/></svg>