<svg width="56" height="56" viewBox="0 0 56 56" xmlns="http://www.w3.org/2000/svg"><path fill="#F0F3FA" d="M0 0h56v56H0z"/><path d="M22 21h-1l3-2 2.5 2H25l-6 11.5h-3L22 21Zm-2 2H10l-.5 1h3l-4 8.5H13l4-8.5h2.5l.5-1Zm4.5 0h5l-5 8.5h4l-.5 1h-8.5l5-9.5Zm21.02-.73c-3-3.16-12.84-1.4-17.51 0 6.31-1.38 10.37-1.02 12.7-.27-3.77.07-8.06.98-10.7 1.77 6.66-1.46 10.82-.98 13.08-.14C44.3 30.63 20.33 35.12 8 36.5c17.85 0 33.34-6.45 37.12-11.1C45.71 32.24 22.17 36.63 10 38c22.51 0 41.28-10.27 37.52-14.23a4.62 4.62 0 0 0-1.7-1.08 1.85 1.85 0 0 0-.3-.42Z"/></svg>