<svg width="56" height="56" viewBox="0 0 56 56" xmlns="http://www.w3.org/2000/svg"><path fill="#F0F3FA" d="M0 0h56v56H0z"/><path fill-rule="evenodd" d="M9.64 32.78a9.36 9.36 0 0 1 4-13.9 9.67 9.67 0 0 1 5.73-.73 9.6 9.6 0 0 1 7.43 6.04c.05.1.02.2-.07.27a.14.14 0 0 1-.06.03c-.08.02-.14-.01-.18-.1a9.2 9.2 0 0 0-3.44-4.36 9.27 9.27 0 0 0-7-1.53 9.25 9.25 0 0 0-3.8 1.6 8.97 8.97 0 0 0-1.9 13.03 9.36 9.36 0 0 0 10.61 2.94A9.75 9.75 0 0 0 26 31.7c.05-.08.12-.1.2-.08l.05.02c.09.07.1.15.05.25a9.53 9.53 0 0 1-2.73 3.18 9.83 9.83 0 0 1-11.08.44 9.37 9.37 0 0 1-2.85-2.73Zm15.47-8.05a7.87 7.87 0 0 0-4.21-4.34 7.95 7.95 0 0 0-6.1-.13 7.83 7.83 0 0 0-4.74 5.08 7.58 7.58 0 0 0 2.23 7.86 7.98 7.98 0 0 0 5.51 2.08 8 8 0 0 0 6.9-4.12c.05-.1.13-.13.24-.1.02 0 .04.02.06.04.1.09.12.2.05.31a8.35 8.35 0 0 1-6.93 4.28 8.83 8.83 0 0 1-2.9-.35 8.05 8.05 0 0 1-4.41-3.17 8.22 8.22 0 0 1-1.49-5.14 8.02 8.02 0 0 1 2.2-5.07 8.27 8.27 0 0 1 5-2.59 8.73 8.73 0 0 1 5.41 1.05 8.27 8.27 0 0 1 3.58 4.14c.05.13.02.23-.11.3a.12.12 0 0 1-.04 0 .23.23 0 0 1-.25-.13Zm-9.27-3.52a6.8 6.8 0 0 1 6.11 1.25c.85.7 1.5 1.58 1.96 2.63.05.1.13.15.25.13.08-.02.14-.08.18-.2a.22.22 0 0 0 0-.17A7.1 7.1 0 0 0 20.4 21a7.15 7.15 0 0 0-5.5.02 6.96 6.96 0 0 0-.43 12.73 7.19 7.19 0 0 0 9.4-2.75.24.24 0 0 0 .04-.14c0-.17-.05-.26-.14-.28-.12-.03-.21 0-.28.11a6.6 6.6 0 0 1-3.31 2.85 6.65 6.65 0 0 1-6-.5A6.56 6.56 0 0 1 12.05 31a6.42 6.42 0 0 1 1.19-8.36 6.62 6.62 0 0 1 2.6-1.42Zm3.33 1.19a5.43 5.43 0 0 0-6.44 2.98 5.15 5.15 0 0 0 .73 5.4 5.15 5.15 0 0 0 2.13 1.58 5.69 5.69 0 0 0 3.76.16 5.67 5.67 0 0 0 2.97-2.29c.09-.14.21-.17.36-.1l.08.06a.22.22 0 0 1 .03.27 5.96 5.96 0 0 1-4.1 2.75 5.94 5.94 0 0 1-6.94-5.94 5.98 5.98 0 0 1 11.4-2.1c.07.15.04.28-.1.37a.25.25 0 0 1-.08.04c-.12.03-.2 0-.26-.12a11.2 11.2 0 0 0-.41-.74 5.15 5.15 0 0 0-1.35-1.46 5.05 5.05 0 0 0-1.78-.86Zm-2.13 1.37a3.94 3.94 0 0 1 4.18 2.13c.09.16.22.22.4.16.1-.03.17-.1.21-.22a.26.26 0 0 0 0-.22 4.57 4.57 0 0 0-7.6-1 4.35 4.35 0 0 0-.89 4.3A4.32 4.32 0 0 0 14.82 31a4.5 4.5 0 0 0 4.66.63 4.5 4.5 0 0 0 2.06-1.7c.1-.14.07-.25-.08-.33a1.32 1.32 0 0 0-.21-.08c-.13-.04-.23 0-.31.1l-.08.1a3.94 3.94 0 0 1-4.2 1.46 3.83 3.83 0 0 1-2.74-2.7 3.7 3.7 0 0 1 1.09-3.71 3.85 3.85 0 0 1 2.03-1Zm14.11 2.78c-.01-.27.1-.44.34-.52.14-.05.37-.06.69-.04.05 0 .09.03.11.07.29.45.3.94.03 1.46a.15.15 0 0 1-.14.08h-1.01c-.02 0-.03 0-.04-.02a5.62 5.62 0 0 0 .03-1.03Zm-10.23 2.28-.26.06a.36.36 0 0 0-.2.15 3.14 3.14 0 0 1-3.11 1.6 3.13 3.13 0 0 1-2.7-2.2c-.16-.5-.19-.98-.1-1.44a3.24 3.24 0 0 1 1.77-2.26c.3-.15.63-.24.96-.27a3.15 3.15 0 0 1 3.13 1.48c.1.16.19.35.25.56 0 .03.02.04.05.03l13.53-3.33c.17-.04.58-.06 1.22-.06.05 0 .09-.01.12-.05l.1-.1.29-.29c.11-.1.22-.16.33-.19a599.2 599.2 0 0 0 7.67-2.19c.2-.06.41-.05.61.04 1.06.48 2.04.93 2.92 1.36.15.07.27.17.36.29.1.13.14.27.14.42v1.31c0 .1-.04.17-.1.24a.38.38 0 0 1-.23.13c-1.6.3-3.19.57-4.74.84-.37.06-.74.13-1.1.22a.72.72 0 0 0-.23.1.5.5 0 0 0-.17.16c-.09.15-.03.29.16.41.25.17.52.27.8.31l4.68.69c.5.07.94.34.93.8v6.58c0 .04-.25.18-.33.23l-.02.01L44 36.6a.17.17 0 0 1-.14.02l-7.77-2.52c-.05-.02-.09-.06-.09-.11v-2.83c0-.1 0-.17.13-.19a.98.98 0 0 1 .46.02l2.73.64c.15.03.25-.03.3-.17.17-.44.17-.8 0-1.08-.17-.27-.48-.46-.94-.56l-2.01-.45c-.3-.07-.6-.07-.88-.02-.27.05-.54.15-.83.3-.13.08-.27.12-.42.14-.52.06-1.03.08-1.51.07-.28-.01-.42.12-.42.39l-.06.99c-.02.23-.15.41-.39.53l-.96.46a.88.88 0 0 1-.4.07c-.13 0-.27-.03-.4-.08-.6-.21-1.17-.42-1.71-.64a1.58 1.58 0 0 1-.47-.28.17.17 0 0 0-.12-.05h-.01c-.32.01-.56 0-.72-.04-.53-.13-1.03-.27-1.52-.43a.53.53 0 0 1-.27-.2.5.5 0 0 1-.1-.3v-2.23a.37.37 0 0 0-.08-.22.37.37 0 0 0-.2-.14 1.85 1.85 0 0 0-.93-.01.61.61 0 0 0-.37.23.8.8 0 0 0-.15.4l-.11.88c-.03.18-.2.31-.51.4a1.85 1.85 0 0 1-.7.04c-.48-.12-.92-.26-1.34-.4a.12.12 0 0 1-.08-.1.43.43 0 0 1 0-.2c.03-.08 0-.1-.07-.1h-.02Zm19.43 3.1a.3.3 0 0 1-.11.24.27.27 0 0 1-.24.05l-2.79-.56c-.19-.04-.4-.05-.64-.03a.15.15 0 0 0-.1.05.15.15 0 0 0-.05.1v1.9c0 .04.02.06.05.07l6.47 1.96.39.15c.18.08.33.14.43.16a.1.1 0 0 0 .09-.01.1.1 0 0 0 .04-.08l.15-7.93c.01-.7-.38-1.07-1.19-1.13a298.75 298.75 0 0 1-3.2-.54c-.3-.06-.46-.22-.48-.5-.03-.57.2-.88.7-.93l.5-.06a165.84 165.84 0 0 1 2.94-.51c.26-.02.45-.05.56-.1.2-.06.3-.18.31-.34.02-.62.05-1.29.1-1.99v-.54a.15.15 0 0 0-.04-.1.53.53 0 0 0-.53-.12l-6.52 1.68c-.23.06-.46.15-.7.26a.6.6 0 0 0-.3.26.8.8 0 0 0-.07.4c.01.39 0 .98-.02 1.78a42.44 42.44 0 0 0-.02 2.96c0 .1.05.16.14.2 1.21.35 2.38.66 3.5.9.31.08.52.27.63.58a35.17 35.17 0 0 1 0 1.78Zm-9.53-.3c.01-.6.04-1.26.1-1.97.01-.13.07-.24.17-.33.1-.1.22-.14.34-.14.87.03 1.73.08 2.6.18.06 0 .1-.02.13-.07a.86.86 0 0 0 .09-.37c.03-1.54.08-3.09.13-4.63 0-.1 0-.21-.02-.32a.14.14 0 0 0-.06-.1.58.58 0 0 0-.51-.07c-1.66.47-3.22.91-4.68 1.34-.03 0-.05.03-.05.07l-.1 5.87c0 .05.02.1.08.12.52.23 1.09.39 1.7.48.05.01.08-.01.08-.06Zm-4.4-5.8c.38-.17.8-.27 1.23-.32.06 0 .08.02.09.08l.05 5.07c0 .04-.02.06-.07.06-1.04-.02-1.56-.25-1.56-.7v-4.03c0-.04.02-.08.06-.1.07-.01.13-.04.2-.07ZM20 27.42c.33 0 .7.02 1.09.06.34.03.53.25.56.64l.1.9c0 .05.03.07.07.07l.89.04c.04 0 .06-.01.06-.05.04-.34.06-.67.05-.98-.01-.48.19-.75.6-.82.54-.1 1.08-.17 1.63-.24.03 0 .04-.02.04-.04v-.88c0-.02 0-.02-.02-.02l-5.09 1.18c-.39.09-.38.13.02.13Z"/></svg>