<svg width="56" height="56" xmlns="http://www.w3.org/2000/svg"><path fill="#F0F3FA" d="M0 0h56v56H0z"/><path d="M21.251 34.757l-11.246-6.755 16.118 1.933L28.003 46 21.25 34.757zM28.002 46l1.928-15.996 16.065-2.003-11.244 6.756L28.002 46zM10.005 28.002l11.066-6.574L28.002 10l6.46 10.387.58.918 10.953 6.697c-6.007-.296-12.017-.962-17.988-1.648l-18.002 1.648z" fill="#07ADAA"/><path d="M21.25 34.75l4.873-4.808 1.88 16.054L21.25 34.75zm8.754-4.808L46 28.002 34.752 34.75l-4.748-4.809zM10 28.002l11.077-6.563 6.904 4.907L10 28zm18.003-9.761v-8.238l7.038 11.306-7.038 5.037V18.24z" fill="#115B6E"/></svg>