<svg width="56" height="56" viewBox="0 0 56 56" xmlns="http://www.w3.org/2000/svg"><path fill="#F0F3FA" d="M0 0h56v56H0z"/><path d="M19 20H6v3h5v13h3V23h5v-3ZM28.14 20.1l-1.4 3.62 1.53 3.99 1.58-3.99-1.71-3.62ZM21.9 20l-5.97 16h3.1l4.57-12.29L21.9 20Z" fill="#C72E8F"/><path d="M31 36h-3.14l-6.07-16h3.1L31 36ZM37.25 36H34.1l-6.08-16h3.11l6.1 16Z" fill="#3052A1"/><path fill-rule="evenodd" d="M38 20h7.33a4.38 4.38 0 0 1 2.6 7.9 4.38 4.38 0 0 1-2.31 8.1H38V20Zm3 3h4.3a1.7 1.7 0 1 1 0 3.42H41V23Zm0 6.4h4.2a1.8 1.8 0 0 1 0 3.6H41v-3.6Z" fill="#C72E8F"/></svg>