<svg width="56" height="56" viewBox="0 0 56 56" xmlns="http://www.w3.org/2000/svg"><path fill="#165D33" d="M0 0h56v56H0z"/><path fill-rule="evenodd" d="M52 21H4v14h48V21Zm-47.5.5h15v10.44a1.74 1.74 0 0 0-.38-.04.32.32 0 0 1-.22-.12 2.05 2.05 0 0 0-.31-.31.75.75 0 0 0-.43-.15c-.36-.01-.68.03-.95.13h-.06c-.2-.12-.36-.24-.5-.35a.97.97 0 0 1-.24-.31.8.8 0 0 1-.11-.4c0-.16-.03-.31-.09-.47a.07.07 0 0 0-.03-.03 1.68 1.68 0 0 0-.3-.1 1.84 1.84 0 0 1-.31-.1.9.9 0 0 1-.22-.15 2.4 2.4 0 0 1-.22-.22c-.02-.03-.04-.03-.06-.01-.07.04-.1.1-.11.2a.13.13 0 0 1-.11.11c-.2.04-.38.1-.57.16a1.1 1.1 0 0 1-.23.05c-.1 0-.17 0-.22-.02-.21-.09-.42-.15-.62-.17-.04 0-.07-.03-.09-.07 0-.03 0-.05.03-.05a.32.32 0 0 0 .28-.2.73.73 0 0 1 .12-.2c.03-.03.08-.09.16-.15l.04-.04a.08.08 0 0 0 .02-.05c0-.03 0-.05-.02-.06a3 3 0 0 1-.36-.6c-.06-.1-.15-.15-.28-.12a.1.1 0 0 0-.06.05c-.04.08-.02.14.05.2l.04.07c.01.05 0 .1-.02.14a.2.2 0 0 1-.1.08.24.24 0 0 1-.12.02.2.2 0 0 1-.12-.05.7.7 0 0 1-.12-.13.21.21 0 0 1-.04-.16c0-.03.02-.06.05-.07a.54.54 0 0 0 .12-.14.15.15 0 0 0 .03-.1l-.03-.22c0-.04 0-.07.04-.09a.08.08 0 0 1 .09 0l.14.1c.04.02.08.02.14.02a.5.5 0 0 0 .3-.16.2.2 0 0 0 .06-.12c0-.06-.03-.1-.1-.12-.28-.1-.52-.13-.73-.12a.34.34 0 0 1-.32-.16.65.65 0 0 1-.1-.38c0-.05.03-.08.08-.08l.2.03c.12.03.2.03.27.02.15-.02.3-.07.46-.13.02 0 .04 0 .04.02.03.09.08.16.14.23.08.08.16.11.24.09a.1.1 0 0 0 .06-.05l.2-.33c.06-.1.05-.17-.02-.24l-.18-.17c-.08-.07-.15-.07-.2.02l-.25.31c-.02.02-.04.03-.06.01a5.82 5.82 0 0 1-.26-.18.15.15 0 0 1-.07-.13c0-.04.02-.08.07-.11l.18-.17.16-.22c.1-.2.09-.36-.02-.48a2.74 2.74 0 0 1-.31-.43.26.26 0 0 0-.1-.1.23.23 0 0 0-.12-.03.14.14 0 0 0-.1.04c-.03.03-.04.08-.04.14 0 .08 0 .16.03.24.03.07 0 .13-.05.17a.2.2 0 0 1-.15.05.26.26 0 0 1-.14-.06.27.27 0 0 1-.1-.12.22.22 0 0 1 .01-.16c.08-.2.18-.38.29-.57a1 1 0 0 0 .1-.85c-.04-.15-.1-.26-.2-.3a.15.15 0 0 0-.17 0c-.08.07-.1.16-.08.29.01.07.06.17.12.3l.01.02v.03c0 .02 0 .02-.02.03a.11.11 0 0 1-.12-.01 1.94 1.94 0 0 1-.49-.55.06.06 0 0 1 0-.07c.1-.13.21-.25.34-.38a.47.47 0 0 0 .14-.22.1.1 0 0 0 0-.07l-.2-.48a.1.1 0 0 0-.06-.06c-.1-.04-.2-.04-.27.02-.15.12-.2.28-.16.5.01.05 0 .11-.03.17a.46.46 0 0 1-.12.17c-.16.15-.27.27-.33.36-.1.16-.16.3-.16.45 0 .23.04.45.1.63a.1.1 0 0 1-.02.1.33.33 0 0 1-.08.06 40.26 40.26 0 0 1-.62.58c-.16.15-.17.31-.02.47.04.03.05.07.04.12 0 .04-.03.07-.07.1-.23.1-.38.2-.47.3a.5.5 0 0 0-.1.52v.09c-.02.1-.07.2-.14.32l-.21.3-.03.05-.02.02a.12.12 0 0 0-.03.07c0 .02 0 .05.02.07l.04.05c.09.15.14.26.16.33.02.13-.02.24-.14.31-.1.08-.22.13-.35.15a.3.3 0 0 0-.23.2.4.4 0 0 0 .02.32c.04.08.03.16-.01.24-.11.2-.23.38-.37.57a.1.1 0 0 0 0 .11c0 .03.03.06.06.1.06.12.1.2.11.26.02.1-.01.19-.1.27a.42.42 0 0 1-.18.08.63.63 0 0 0-.13.04.11.11 0 0 0-.05.05 2.4 2.4 0 0 1-.16.25c-.07.06-.14.09-.23.07a1.38 1.38 0 0 1-.4-.14.08.08 0 0 1-.05-.05.36.36 0 0 1 0-.21l.08-.2v-.01a.2.2 0 0 0-.02-.21c-.1-.12-.2-.24-.28-.36-.1-.13-.2-.17-.32-.13a.06.06 0 0 1-.08-.01.06.06 0 0 1-.01-.08c.07-.17.1-.36.07-.57a.34.34 0 0 0-.06-.17.69.69 0 0 0-.22-.15.97.97 0 0 1-.17-.1.07.07 0 0 1-.03-.07 2.97 2.97 0 0 1 .04-.28.49.49 0 0 0-.03-.18c-.04-.1-.1-.14-.17-.15-.07 0-.13.03-.18.12l-.37.64a1.19 1.19 0 0 0-.16.8c0 .04 0 .07-.04.09-.13.08-.24.19-.33.32a1 1 0 0 1-.12.12c-.07.06-.12.11-.14.15-.04.06-.06.12-.04.18.05.18.12.33.23.46v.05c0 .02-.01.03-.03.03l-.33.09v-9.4Zm14.67 10.78h.33v.28h-.02a9.14 9.14 0 0 0 .02.35v.4a.6.6 0 0 1-.13-.09 4.02 4.02 0 0 0-.94-.14.07.07 0 0 1-.06-.04.08.08 0 0 1 0-.07.6.6 0 0 1 .2-.25.1.1 0 0 1 .06-.03l.39-.02c.05 0 .07-.03.07-.08l-.02-.2c0-.03 0-.06.03-.08a.09.09 0 0 1 .07-.03Zm.23 1.43h.1v.79h-.43a.8.8 0 0 1-.03-.53c.04-.14.17-.22.36-.26Zm-2.17.79h-.66v-.13c.01-.18.05-.32.11-.44.07-.12.14-.18.23-.18h.04c.08 0 .16.07.21.2.06.12.08.27.08.44v.11Zm-3.2-.05a.1.1 0 0 1 0 .05h-.49a.1.1 0 0 1 0-.07l.18-.39a.09.09 0 0 1 .1-.05c.03 0 .06.02.07.06l.14.4ZM20 21.5h31.5v13H20v-13Zm-7.76 4.48.19.26a.1.1 0 0 0 .12.04.1.1 0 0 0 .06-.05.1.1 0 0 0 .01-.06l-.01-.28-.01-.05-.06-.09a.1.1 0 0 0-.07-.05.1.1 0 0 0-.1.02l-.12.11a.1.1 0 0 0-.03.07c0 .03 0 .06.02.08Zm.74 3.2c-.03.05-.1.05-.17 0-.07-.04-.1-.11-.07-.16.03-.04.1-.04.17 0 .07.05.1.13.07.17Zm-.2 1.3c0 .01 0 .02-.02.02l-.03-.01v-.01a.3.3 0 0 1-.11-.22c0-.09.02-.17.08-.23v-.01a.3.3 0 0 1 .23-.11.3.3 0 0 1 .22.08h.01l.02.03-.01.03-.38.43Zm2.32-.17a.13.13 0 0 0 .13.11c.16.01.3.05.41.1.1.06.22.16.37.3.07.07.11.14.14.22.05.1.14.2.29.28.03.02.05.06.04.1 0 .04-.03.07-.07.08h-.08l-.68-.08a.43.43 0 0 0-.24.03 1.24 1.24 0 0 1-.92.02.11.11 0 0 1-.05-.04c-.12-.2-.15-.52-.08-.94 0-.04.02-.05.06-.05.1 0 .19 0 .29-.02.07 0 .13-.06.17-.17a.67.67 0 0 0 .05-.25c0-.04.01-.06.05-.07H15c.02 0 .03 0 .03.02l.07.36Zm3.14 2-.2.11a.08.08 0 0 0-.04.12l.02.02c.02.04.07.05.1.03l.21-.12a.08.08 0 0 0 .03-.11l-.01-.03a.08.08 0 0 0-.11-.03Zm-.79.98.07-.47a.1.1 0 0 0-.04-.1.1.1 0 0 0-.1-.01l-.32.1a.1.1 0 0 0-.06.07.1.1 0 0 0 .01.1l.26.36a.1.1 0 0 0 .1.04.1.1 0 0 0 .08-.1Zm-2.15-2.12c0-.09.02-.16.08-.22a.28.28 0 0 1 .2-.09h.04c.08 0 .15.03.2.09a.3.3 0 0 1 .1.21h-.01l-.61.02Zm-1.39-3.05.11-.03c.06 0 .1-.04.13-.1l.12-.29a.18.18 0 0 0 0-.11.18.18 0 0 0-.06-.1.17.17 0 0 0-.22 0l-.23.16a.2.2 0 0 0-.08.18l.02.13c.01.05.03.1.08.12.04.04.08.05.13.04Zm.97.98c.02-.16-.04-.27-.17-.32-.19-.09-.33-.1-.42-.02-.08.07-.11.17-.1.32.02.14.07.26.16.35.1.1.2.13.33.09.06-.03.12-.09.15-.18l.05-.24ZM21 24v3h1v-2h1v5.3c0 .4-.22.7-.56.7H22v1h4v-1h-.47c-.34 0-.53-.3-.53-.7V25h1v2h1v-3h-6Zm26.98 0H44v1h1l-.14 5.43c0 .32-.23.57-.53.57H44v1h6v-3h-1v2h-2v-6h.98v-1ZM28 32v-1h.36c.3 0 .64-.22.64-.53V25h-1v-1h3.13L34 28.46V25h-.5v-1H36v1h-.5v7h-1.75l-3.25-5.22v3.69c0 .3.33.53.62.53h.38v1H28Zm8.25-7v-1h4.43a2.6 2.6 0 0 1 2.57 2.64c0 1.45-1.15 2.36-2.57 2.36H39v1.39c0 .31.45.61.75.61h.5v1h-4v-1h.3c.31 0 .45-.3.45-.61V25h-.75Zm3.52 0H39v3h.77c.85 0 1.53-.67 1.53-1.5s-.68-1.5-1.53-1.5Z" fill="#fff"/></svg>