<svg width="56" height="56" viewBox="0 0 56 56" xmlns="http://www.w3.org/2000/svg"><path fill="#F0F3FA" d="M0 0h56v56H0z"/><path fill-rule="evenodd" d="M41 44V21.34c0-3.92-2.51-11.68-12.55-11.33C15.9 10.45 15 19.16 15 21.34V44h26Zm-23-8h20V21c0-2-2-8-10-8s-10 6.13-10 8v15Zm16.61 2.88c-.25.18-.5.57-.74 1.17-.25.62-.1 1.24.43 1.88.04.06.1.08.18.06 2.31-.4 3.25-2.22 1.89-3.8-.2-.21-.4-.25-.62-.1-.38.26-.76.52-1.14.8Zm.97 1.56c-.05 0-.11-.23-.14-.52-.03-.3-.01-.53.04-.53s.11.23.14.52c.03.29.01.52-.04.53Zm-8.67.26-.27 1.04c-.01.05-.05.09-.11.1a.22.22 0 0 1-.14 0 .16.16 0 0 1-.1-.1c-.58-1.31-.72-2.24.02-3.46a.2.2 0 0 1 .08-.08.28.28 0 0 1 .12-.03 189.96 189.96 0 0 0 1.56.02l.05.02c.07.05.12.04.14-.03l.02-.04c.04-.05.1-.08.17-.08l1.2-.05c.03 0 .07 0 .1.02.03.01.06.03.07.05.02.03.03.05.03.08s0 .06-.02.08l-.1.15c-.33.48-.81 1.17-1.37 1.4a.17.17 0 0 0-.08.08.12.12 0 0 0 0 .1l.69 1.8v.08c0 .03-.02.06-.05.08a.22.22 0 0 1-.09.04.26.26 0 0 1-.1 0 .95.95 0 0 1-.5-.23l-1.2-1.06c-.06-.06-.1-.06-.12.02Zm.72-1.6c-.23.3-.38.55-.34.57.03.01.24-.22.46-.52.22-.3.37-.55.34-.56-.03-.02-.24.2-.46.5Zm5.04-.8a8.49 8.49 0 0 1-.7 1.79c-.1.18-.13.17-.11-.02l.15-1.75a.1.1 0 0 0-.01-.06.13.13 0 0 0-.04-.04.18.18 0 0 0-.05-.03.21.21 0 0 0-.07-.01l-1.23-.01c-.14 0-.21.05-.21.16 0 .6.13 1.12.38 1.55l.3.54c.01.04.04.07.08.1l.16.11c.06.04.08.1.06.16-.1.37-.32.67-.64.91a.07.07 0 0 0-.02.04v.04s0 .02.02.03a.1.1 0 0 0 .04.02c.15.04.28.03.41-.03 1.76-.8 2.9-1.96 3.41-3.46a.1.1 0 0 0 0-.06.12.12 0 0 0-.03-.05.16.16 0 0 0-.05-.04.2.2 0 0 0-.07-.01l-1.56-.01c-.12 0-.2.04-.22.14ZM20.2 39.43l-.99.15h-.1a.18.18 0 0 1-.07-.05.12.12 0 0 1-.04-.07c0-.02 0-.05.02-.07a.8.8 0 0 1 .32-.28c1.09-.54 2.57-1.19 3.87-.81.06.02.08.05.07.1-.07.18-.12.36-.13.55 0 .09.02.1.09.02.3-.35.76-.66 1.36-.94a.2.2 0 0 1 .2.01c.42.26.58.6.76.97l.05.1c.1.22.14.43.11.64-.16 1.25-1 2-2.55 2.26a.2.2 0 0 1-.18-.05 1.71 1.71 0 0 1-.54-1.3c0-.59.18-1.06.55-1.41.03-.03.02-.04-.02-.04h-.86c-.05 0-.1.02-.13.05a4.1 4.1 0 0 0-1.13 2.4c-.02.24-.13.27-.34.08a.46.46 0 0 1-.14-.25 6.38 6.38 0 0 1-.06-1.98c0-.07-.03-.1-.12-.09Zm3.9.16h.03c.02 0 .05 0 .07.03l.06.11c.02.05.04.1.05.17l.03.2v.05c.01.14 0 .27-.03.37-.02.1-.06.16-.11.16h-.03l-.07-1.1ZM21 33h14c-1.52-.82-5-5.05-5-8 0-2.5 2.16-3 3-3v3.23c0 1.63.05 4.09 3 4.5v-7.37c0-.95-.38-3.1-2.4-4.09-.7-.34-1.4-.62-2.03-.88-1.64-.67-2.96-1.21-3.57-2.39-.7 1.36-1.8 1.87-3.6 2.7l-1.2.57c-2.74 1.33-3.2 2.46-3.2 4.1v7.36c.98 0 2.66-.8 3-4.73v-3c.84 0 3 .5 3 3 0 3.27-3.44 7.18-5 8Z" fill="#262626"/></svg>