<svg width="56" height="56" viewBox="0 0 56 56" xmlns="http://www.w3.org/2000/svg"><path fill="#F0F3FA" d="M0 0h56v56H0z"/><path d="M28 15.39c-5.29.08-8.68 5.43-6.96 10.27a7.62 7.62 0 0 0 3.84 4.37h-.02c-6.43-2.44-8.34-10.5-3.98-15.69A9.4 9.4 0 0 1 28.02 11c.03 0 .04.01.04.04v4.28c0 .05-.02.07-.06.07Z" fill="#FDB912"/><path d="M38.77 15.88a9.27 9.27 0 0 1 4.01 3.5c.02.04.02.07-.02.09l-3.7 2.25-.04-.01a7.36 7.36 0 0 0-4.6-3.26 7.87 7.87 0 0 0-9.59 6.86c-.04.45-.03.88.02 1.3 0 .02 0 .03-.03.04l-.02-.02c-.14-.8-.2-1.58-.15-2.33.43-6.93 7.83-11.26 14.12-8.42ZM17.65 32.93a9.9 9.9 0 0 1-5.58-7.7 9.25 9.25 0 0 1 1.1-5.65c.03-.04.06-.05.1-.02l3.71 2.1a.08.08 0 0 1 .04.11 7.21 7.21 0 0 0-.9 4.2 7.86 7.86 0 0 0 12.13 5.74v.02a9.86 9.86 0 0 1-10.6 1.2Z" fill="#FDB912"/><path d="M39.02 34.33c-.02 0-.03-.02-.02-.04a7.25 7.25 0 0 0 .37-6.16 7.87 7.87 0 0 0-4.14-4.3 7.72 7.72 0 0 0-7.58.64v-.02a9.83 9.83 0 0 1 9.61-1.73c5.6 1.93 8.46 8.3 5.64 13.65-.03.04-.06.05-.1.03l-3.78-2.07Z" fill="#FDB912"/><path d="M34.63 36.3A7.79 7.79 0 0 0 31 25.93v-.01c6 2.1 8.24 9.36 4.96 14.57a9.44 9.44 0 0 1-7.8 4.5c-.04 0-.06-.02-.06-.05l-.07-4.3c0-.03.01-.05.05-.05a7.42 7.42 0 0 0 6.54-4.3Z" fill="#FDB912"/><path d="M30.8 34.9a10.1 10.1 0 0 1-13.46 5.34 9.24 9.24 0 0 1-4.06-3.66.05.05 0 0 1 .03-.03l3.7-2.19c.04-.01.06 0 .08.02 1.24 1.95 3 3.1 5.29 3.45a7.6 7.6 0 0 0 4.6-.74 7.77 7.77 0 0 0 4.36-7.38h.04c.3 1.81.1 3.54-.57 5.2Z" fill="#FDB912"/></svg>