<svg width="56" height="56" viewBox="0 0 56 56" xmlns="http://www.w3.org/2000/svg"><path fill="#F0F3FA" d="M0 0h56v56H0z"/><path d="M48.56 24.34c-.3.15-.61.27-.93.35-1.48.4-2.88.4-4.33.07a10.39 10.39 0 0 0-4.22-.18c-.09.02-.1-.01-.05-.08a5.92 5.92 0 0 1 4.44-2.5c1.68 0 3.26.24 4.9.4a9 9 0 0 0 2.62-.1.04.04 0 0 1 0 .04 5.55 5.55 0 0 1-2.43 2ZM37 25.84a3.5 3.5 0 0 1 1.9-.8c.77-.09 1.66 0 2.48.05a13.28 13.28 0 0 0 1.61.03l.01.01v.02c-.45.47-1.46.78-2.17.83-.65.05-1.27 0-1.93-.08a9.26 9.26 0 0 0-1.9-.03v-.03Z" fill="#EE1C25"/><path d="M50.48 30.07h-1.95l-.46.93H47l2.04-4H50l2 4h-1.07l-.45-.93Zm-1.67-.66h1.4l-.7-1.44-.7 1.44ZM17.98 30h-1.95l-.46 1H14.5l2.04-4h.96l2 4h-1.07l-.45-1Zm-1.67-.6h1.4l-.7-1.43-.7 1.44ZM45 27h1v4h-1v-4ZM39 31v-4h2.77c.85 0 2.23.29 2.23 1.38v1.12c0 .98-.75 1.5-2.2 1.5H39Zm2.77-.7c.71 0 1.23-.32 1.23-.87v-1.05c0-.55-.82-.68-1.26-.68H40v2.6h1.77ZM33 27h.9l3.1 2.72V27h1v4h-.9L34 28.28V31h-1v-4ZM31 27h1v4h-1v-4ZM27.8 31c-.56 0-1-.11-1.32-.34a1.12 1.12 0 0 1-.48-.96h1.05c0 .2.06.34.2.46.14.1.33.16.57.16h.85c.23 0 .41-.04.55-.1.14-.07.22-.17.22-.28v-.2c0-.17-.19-.29-.56-.33l-1.42-.18a2.52 2.52 0 0 1-1.05-.31c-.24-.16-.36-.37-.36-.61v-.32c0-.2.08-.37.22-.52.15-.15.36-.27.62-.35.28-.08.59-.12.94-.12h.87c.34 0 .63.05.9.15.25.1.45.24.58.43.15.17.22.38.22.62h-1.05a.45.45 0 0 0-.18-.37.72.72 0 0 0-.47-.15h-.87c-.21 0-.39.04-.52.1-.13.07-.2.16-.2.27v.15c0 .19.18.3.54.35l1.4.18c.48.06.83.16 1.08.31.25.15.37.35.37.59v.36c0 .2-.08.38-.23.53-.15.15-.36.27-.63.36a3.3 3.3 0 0 1-.95.12h-.89ZM20 27h.9l3.1 2.72V27h1v4h-.9L21 28.28V31h-1v-4ZM9 27h3.12c.63 0 1.54.2 1.54 1.02v.4c0 .39-.17.7-.8.85v.01c.17.08.3.17.4.27.09.1.18.25.27.43L14 31h-1.2l-.44-.95a.8.8 0 0 0-.3-.36.89.89 0 0 0-.48-.12H10V31H9v-4Zm2.9 2c.48 0 .76-.3.76-.58v-.37c0-.22-.22-.36-.56-.36H10V29h1.9ZM5.5 27.69H4V27h4v.69H6.5V31h-1v-3.31Z"/></svg>