<svg width="56" height="56" viewBox="0 0 56 56" xmlns="http://www.w3.org/2000/svg"><path fill="#F0F3FA" d="M0 0h56v56H0z"/><path d="M22.75 33.3a8.58 8.58 0 0 0-1.14 2.36.62.62 0 0 1-.49.44c-.1.03-.2 0-.29-.06a.33.33 0 0 1-.14-.26 4.21 4.21 0 0 1 .57-2.61c.35-.55.65-1.07.9-1.55 1.62-3.24 3.2-6.35 4.72-9.34a39.54 39.54 0 0 0 2.41-5.82 735.4 735.4 0 0 0 2.35-7.4c.02-.05.06-.07.12-.05a9.1 9.1 0 0 1 2.22 1.1c.02 0 .02.02.02.03-.39 1.35-.73 2.63-1.04 3.85a83.8 83.8 0 0 1-1.05 3.87 5970.2 5970.2 0 0 0-7 23.46c-.07.2-.16.39-.3.55a3.57 3.57 0 0 1-.58.54.64.64 0 0 0-.2.3l-1.13 3.92c-.09.31-.3.43-.62.34l-.2-.05a.26.26 0 0 1-.16-.12.26.26 0 0 1-.03-.2l.41-1.73a.54.54 0 0 0-.19-.57c-.17-.14-.3-.32-.4-.52a.61.61 0 0 1-.02-.5l.43-1.2c.09-.22 0-.35-.23-.38a2.37 2.37 0 0 1-1.48-.76.73.73 0 0 1-.12-.86 45 45 0 0 0 2.9-6.67c.19-.57.1-.61-.24-.12Z" fill="#DA1F26"/></svg>