<svg width="56" height="56" viewBox="0 0 56 56" xmlns="http://www.w3.org/2000/svg"><path fill="#F0F3FA" d="M0 0h56v56H0z"/><path fill-rule="evenodd" d="M27 12h-.36a6.86 6.86 0 0 0-2.94 5.54c0 .06-.03.07-.07.02a6.86 6.86 0 0 0-5.7-1.89.67.67 0 0 0-.64.77c.02.2.1.36.24.48.16.14.35.2.6.2.8-.04 1.51.02 2.12.17.7.18 1.33.5 1.9.95A4.7 4.7 0 0 1 24 21.8v2.08c0 .08-.03.1-.1.11h-2.37a4.87 4.87 0 0 1-3.8-2.63 5.17 5.17 0 0 1-.6-2.72L17.1 18a.74.74 0 0 0-.24-.53.7.7 0 0 0-.48-.19.69.69 0 0 0-.49.17.75.75 0 0 0-.24.54 6.91 6.91 0 0 0 1.9 5.62c.04.05.03.08-.04.08A6.9 6.9 0 0 0 12 26.65v.34c.04.16.12.28.22.38.1.1.2.16.34.19.13.02.26.02.39-.03a.92.92 0 0 0 .37-.24c.26-.27.52-.52.78-.75a5.21 5.21 0 0 1 3.46-1.34 5 5 0 0 1 3.46 1.36c.48.44.94.9 1.37 1.36.05.05.05.1 0 .16-.89.96-1.58 1.6-2.07 1.9a5.06 5.06 0 0 1-6.67-.97l-.34-.32c-.5-.5-.95-.4-1.31.27v.4a7.45 7.45 0 0 0 1.68 1.67 6.6 6.6 0 0 0 3.85 1.27c.06 0 .07.02.03.07a6.89 6.89 0 0 0-1.88 5.77c.02.2.1.34.25.44.14.1.3.14.5.12a.76.76 0 0 0 .46-.2c.15-.14.22-.3.22-.52l.01-1.06A5.32 5.32 0 0 1 20 32.4a4.55 4.55 0 0 1 1.83-.4h2.16c.02 0 .02 0 .02.05v2.13a4.71 4.71 0 0 1-.41 1.81 5.08 5.08 0 0 1-4.5 2.88c-.39 0-.76.01-1.1.03-.44.02-.66.25-.68.7v.03c.02.45.24.69.67.71a8.29 8.29 0 0 0 3.07-.33 6.57 6.57 0 0 0 2.64-1.6c.02 0 .03.01.03.03 0 1.28.34 2.46 1.01 3.55a7.2 7.2 0 0 0 1.9 2.01H27c.38-.16.58-.39.57-.7 0-.27-.15-.53-.44-.8a5.26 5.26 0 0 1-1.93-4.32 5.04 5.04 0 0 1 1.5-3.38l1.22-1.22c.05-.05.1-.05.14 0 .55.52 1.04 1.02 1.47 1.5a5.03 5.03 0 0 1 .67 5.75 5.7 5.7 0 0 1-1.33 1.67c-.3.25-.45.51-.46.78 0 .29.17.53.54.72h.4a6.84 6.84 0 0 0 2.95-5.54c0-.06.02-.07.07-.03a6.87 6.87 0 0 0 5.64 1.9.72.72 0 0 0 .68-.55.62.62 0 0 0-.14-.63.79.79 0 0 0-.6-.26l-.51-.01c-.37 0-.65-.01-.84-.03a5.03 5.03 0 0 1-4.6-4.78 129.45 129.45 0 0 1 0-2c0-.04.04-.07.09-.07H34.02a4.89 4.89 0 0 1 4.79 4.22c.08.51.1 1.05.07 1.63 0 .25.06.46.2.62.12.14.28.22.47.24a.7.7 0 0 0 .5-.13.7.7 0 0 0 .28-.52 6.92 6.92 0 0 0-1.9-5.7c-.02-.02-.02-.03 0-.05 0-.02.01-.03.03-.03 1.39 0 2.67-.4 3.84-1.22a7.76 7.76 0 0 0 1.7-1.68v-.4c-.18-.38-.41-.57-.71-.56-.27 0-.53.15-.79.44a5.16 5.16 0 0 1-7.36.72 21.2 21.2 0 0 1-1.56-1.54c-.04-.04-.04-.08 0-.11a28.5 28.5 0 0 1 1.42-1.4 5.06 5.06 0 0 1 5.98-.67c.56.32 1.1.78 1.65 1.39.22.25.47.36.74.32.28-.04.49-.22.63-.54v-.4a6.78 6.78 0 0 0-5.6-2.93l.01-.05a6.98 6.98 0 0 0 1.93-5.64.77.77 0 0 0-.25-.55.7.7 0 0 0-.5-.18.7.7 0 0 0-.48.2.75.75 0 0 0-.23.55v.42l-.02.83a5.07 5.07 0 0 1-1.52 3.34c-1.19 1.17-2.75 1.4-4.34 1.39l-.89-.01c-.07 0-.1-.03-.1-.1l-.01-.53v-1.35a5.04 5.04 0 0 1 4.62-4.88 15.27 15.27 0 0 1 1.32-.03c.24 0 .43-.08.57-.23a.7.7 0 0 0 .2-.48.7.7 0 0 0-.7-.75 7.92 7.92 0 0 0-3.05.33c-.96.31-1.84.85-2.61 1.6-.03.02-.04.02-.04-.02A6.97 6.97 0 0 0 29.38 12H29c-.42.2-.6.45-.58.76.03.26.2.54.53.82a5.4 5.4 0 0 1 1.85 3.77c.03.7-.09 1.39-.35 2.05-.27.7-.67 1.3-1.22 1.85l-1.16 1.17c-.04.04-.08.04-.12 0-.43-.4-.86-.83-1.27-1.26a5.32 5.32 0 0 1-1.48-3.89c.04-.7.22-1.37.53-2a5.5 5.5 0 0 1 1.36-1.74c.31-.27.47-.54.48-.8.02-.31-.17-.55-.57-.73Zm-1.35 10.02 1.27 1.33c.02.03.02.05 0 .07l-.5.53-.01.02-.02.03h-.74c-.03 0-.05-.02-.05-.05l-.03-1.9c0-.02.01-.04.03-.05.02 0 .04 0 .05.02Zm4.7 1.98h-.7l-.02-.02-.01-.02-.54-.52c-.03-.03-.03-.06 0-.09l1.25-1.32c.02-.02.04-.02.07-.01.02.01.03.03.03.06l-.02 1.86c0 .04-.02.06-.06.06Zm.14 4.92v-1.7c0-.17-.05-.31-.17-.43l-1.17-1.17a.32.32 0 0 0-.22-.1c-.67-.03-1.3-.03-1.89.01a.27.27 0 0 0-.18.08l-1.28 1.29a.26.26 0 0 0-.08.2v1.8c0 .1.04.17.1.23l1.28 1.28c.06.06.13.09.2.09h1.84c.07 0 .13-.03.18-.08l1.3-1.29a.29.29 0 0 0 .09-.2Zm-6.51-2.56.02-.72c0-.03-.02-.05-.05-.05l-1.9-.01c-.02 0-.04 0-.05.03 0 .02 0 .04.02.05l1.34 1.27c.03.02.05.02.08 0l.53-.54.01-.03Zm-.61 2.7-1.35 1.28c-.02.01-.02.03-.01.05 0 .02.02.03.05.03h1.89c.03 0 .05-.02.05-.06l-.02-.7-.01-.04-.53-.55c-.02-.02-.05-.02-.07 0Zm10.61-3.4-1.34 1.26c-.02.03-.05.03-.07 0l-.54-.53a.04.04 0 0 1-.02-.04v-.71c-.01-.03 0-.05.04-.05l1.9-.01c.02 0 .03 0 .05.03 0 .02 0 .04-.02.05ZM32 30.36l.01-.71c0-.02 0-.03.02-.04l.53-.53c.02-.03.05-.03.08 0l1.34 1.25c.02.02.02.04.01.06 0 .02-.03.03-.05.03h-1.88c-.04 0-.06-.02-.06-.06Zm-2.92 2.29 1.25 1.33c.02.02.04.02.06.02.02-.01.03-.03.03-.05v-1.9c0-.03-.02-.05-.05-.05h-.76l-.02.03-.01.02-.5.52c-.02.03-.02.05 0 .08Zm-2.7-.65h-.75c-.03 0-.05.02-.05.06v1.86c0 .03.01.05.04.06l.06-.01 1.24-1.32c.03-.02.03-.05 0-.08l-.5-.52-.02-.02c0-.02-.02-.03-.02-.03Z" fill="#EC1C36"/></svg>