<svg xmlns="http://www.w3.org/2000/svg" width="56" height="56"><path fill="#F0F3FA" d="M0 0h56v56H0z"/><path d="M25 16.36L10 26h5c-.56 1.73-1.76 5.68-2.75 8.76-.22.7-.25 1.3-.25 1.8C12 38.3 13.47 39 14.5 39h7.13l1.5-5h-3.68l2.44-8h4.64l1.24-4h-4.58L25 16.36z" fill="#0685E2"/><path d="M33 13l-7.6 5-1 3H29l-1.84 6h-4.58l-1.81 6h3.63l-1.8 6h5.77l1.5-5h-3.3L29 26h3.58l1.17-4h-3.5L33 13z" fill="#0685E2"/><path d="M34 13l-2.44 8H35l-1.78 6h-3.47l-1.81 6h3.23l-1.8 6h2.75L34 33l2 6h7l-4-8 7-6h-7l-3.75 4 4.81-16H34z" fill="#0685E2"/></svg>