<svg width="56" height="56" viewBox="0 0 56 56" xmlns="http://www.w3.org/2000/svg"><path fill="#D9261C" d="M0 0h56v56H0z"/><path fill-rule="evenodd" d="M28.11 15.2c-1.94 2.36-5.1 3.33-8.2 4.28-4.57 1.4-8.97 2.74-8.97 8.52 0 4.61 4.27 6.23 8.62 7.88 3.4 1.29 6.87 2.6 8.4 5.38 1.56-2.78 5.15-4.08 8.7-5.36 4.53-1.64 8.99-3.25 8.99-7.9 0-6.06-4.62-7.35-9.32-8.66-3.17-.89-6.37-1.78-8.22-4.15Zm-.77-.93c-.9 1.28-2.56 2.48-5.22 3.35l-1.78.54C15.44 19.64 8 21.88 8 28c0 5.85 6.72 8 11.65 9.56.9.29 1.74.56 2.47.82 3.08 1.52 3.99 2.55 4.74 3.4l.33.36.17.19c.2.23.41.45.64.67.2-.26.45-.57.75-.9 1.26-1.33 3.34-3.01 5.13-3.72.53-.2 1.32-.4 2.27-.66C40.47 36.6 48 34.62 48 28c0-7.87-9.34-9.68-12.69-10.34l-.25-.04a12.87 12.87 0 0 1-6.3-3.43c-.37-.41-.63-.81-.76-1.19-.14.43-.36.85-.66 1.27ZM15 23v4h2v-2h2v7h-2v2h8v-2h-2v-7h2v2h2v-4H15Zm15 4h-2v-4h12v4h-2v-2h-2v7h2v2h-8v-2h2v-7h-2v2Zm-2 6a1 1 0 1 1-2 0 1 1 0 0 1 2 0Zm12 1a1 1 0 1 0 0-2 1 1 0 0 0 0 2Z" fill="#fff"/></svg>