<svg xmlns="http://www.w3.org/2000/svg" width="56" height="56" viewBox="0 0 56 56"><path fill="#F0F3FA" d="M0 0h56v56H0z"/><path d="M14 16h25a3 3 0 0 1 3 3v21H14V16z" fill="#FBA51C"/><path d="M17 18.5h2.96c1.68 0 3.04 1.45 3.04 3.25S21.64 25 19.96 25H17v-1.5h.5V20H17v-1.5zm2.9 1.5H19v3.5h.9c.6 0 1.1-.78 1.1-1.75S20.5 20 19.9 20z" fill="#F8FFF8"/><path fill-rule="evenodd" d="M28.5 18.5c-2.49 0-4.5 1.88-4.5 4.2v.6c0 2.32 2.01 4.2 4.5 4.2s4.5-1.88 4.5-4.2v-.6c0-2.32-2.01-4.2-4.5-4.2zm0 2c-1.1 0-2 .79-2 1.76v1.48c0 .97.9 1.76 2 1.76s2-.79 2-1.76v-1.48c0-.97-.9-1.76-2-1.76z" fill="#F8FFF8"/><path fill-rule="evenodd" d="M17 26h-1v2h1v5h-1v2h5.64a2.8 2.8 0 0 0 2.86-2.75c0-.93-.48-1.75-1.21-2.25.44-.42.71-1 .71-1.65 0-1.3-1.12-2.35-2.5-2.35H17zm3.91 3.5c.44 0 .8-.34.8-.75a.77.77 0 0 0-.8-.75H19.5v1.5h1.41zM19.5 31h1.55c.52 0 .95.45.95 1s-.43 1-.95 1H19.5v-2z"/><path d="M29.5 28h-3v2h.5v3h-.5v2H30v-2h-.5v-5z"/><path fill-rule="evenodd" d="M31 30.52c0-1.39 1.24-2.52 2.78-2.52a3 3 0 0 1 1.22.26V28h3.5v2H38v4.82h-.03c-.16.88-1.1 2.18-4.04 2.18-.81-.07-2.43-.3-2.43-.6v-1.68c.26.22 1.12.67 2.43.67 1.26 0 1.87-.55 2.07-.85V33.4c-.5.6-1.31 1-2.22 1-1.54 0-2.78-1.13-2.78-2.52v-1.37zm2.5.46a1 1 0 0 1 1-.98 1 1 0 0 1 1 .98v.53a1 1 0 0 1-1 .99 1 1 0 0 1-1-.99v-.53z"/></svg>