<svg width="56" height="56" viewBox="0 0 56 56" xmlns="http://www.w3.org/2000/svg"><path fill="#F0F3FA" d="M0 0h56v56H0z"/><path d="M42 26h-2.78c0-.72-.83-1-1.28-1-.46 0-.94.31-.94.85s.42.7 2.06 1.11c1.64.42 2.6 1.33 2.6 2.32 0 1.74-1.96 3.72-4.78 3.72-3.06 0-3.86-1.96-3.88-3h2.94c0 .48.4 1 1.33 1 .94 0 1.4-.61 1.4-1 0-.4-.8-.72-1.7-.9-1.7-.3-3-1.09-3-2.56 0-2 1.7-3.54 4.7-3.54 2.78 0 3.28 2 3.33 3Z" fill="#0087C7"/><path fill-rule="evenodd" d="M28 40c11.05 0 20-5.37 20-12s-8.95-12-20-12S8 21.37 8 28s8.95 12 20 12Zm0-1c10.5 0 19-4.92 19-11s-8.5-11-19-11S9 21.92 9 28s8.5 11 19 11Z" fill="#0087C7"/><path d="M23 23h-8.6l-.4 2h2.5L15 33h3.31l1.5-8h2.78l.41-2ZM27.03 23H24l1.7 10h3.53L34 23h-2.93l-3.26 8.02-.78-8.02Z" fill="#0087C7"/></svg>