<svg width="56" height="56" xmlns="http://www.w3.org/2000/svg"><path fill="#F12B00" d="M0 0h56v56H0z"/><path d="M39.878 22.105c-1.077-.444-2.099-.414-3.204-.119-1.06.291-1.827.926-2.667 1.623l-.04.033c-.856.71-1.768 1.42-2.763 1.892-1.022.473-2.182.976-3.287.503.801.03 1.547-.148 2.238-.621.524-.355 1.436-1.094 1.63-1.774h-.912a6.126 6.126 0 012.403-1.715l-.442-.561c1.216-.887 2.542-1.301 4.006-1.36.69-.03 1.381.059 2.016.266.69.207 1.216.561 1.713 1.094l-.69.739zm-17.486 3.104c-.386 0-.718.03-1.105.148-.28.092-.543.202-.816.317l-.233.097c-.517.23-1.017.514-1.513.796-.14.08-.28.16-.421.238-.276.148-.608.326-.912.385-.331.059-.773.059-1.077-.089a3.749 3.749 0 01-.884-.62 9.304 9.304 0 00-.829-.74 7.468 7.468 0 00-.456-.28c-.152-.09-.304-.178-.455-.282.138 0 .856-.03.663-.354-.166-.267-.553-.385-.857-.444-.69-.148-1.381-.148-2.072-.148.58-.532 1.216-.798 1.99-.798.718 0 1.298.355 1.905.74.152.103.318.243.484.383.166.14.331.281.483.385.304.207.636.325.967.443.636.237 1.437.119 2.072-.118l.243-.098c.431-.177.842-.345 1.332-.345.524-.09 1.022.059 1.491.384zm-2.707 3.979c-.635.866-1.575 2.02-2.707 2.078-1.575 2.078-3.812 4.041-6.492 4.041v-.577L8 35.394c3.702 1.328 7.652-.145 10.552-2.656 1.216.116 2.459.202 3.647.058 1.243-.145 2.486-.318 3.563-1.097 2.625 1.501 5.802 1.76 8.647.75l.884.78a.577.577 0 00.083-.058c.027-.021.055-.043.083-.058 1.574-1.183 3.895-.894 5.69-.433.94.231 1.851.491 2.707.982.442.26.83.52 1.216.837l.096.08c.307.254.714.59.29.901L48 36c-.829-1.126-1.934-2.05-3.011-2.944a40.251 40.251 0 00-3.591-2.656 65.923 65.923 0 00-.695-.453c-.373-.242-.742-.48-1.1-.73l-.155-.116c-.437-.326-1.098-.819-1.172-1.357a1.435 1.435 0 011.257-1.622c.69-.087 1.27.202 1.823.606v.485h1.878l.58-.716-2.803-2.794L40.845 22l-.828 1.04c-1.879-.52-3.454.143-4.669 1.096-.347.27-.684.553-1.021.835-.923.773-1.844 1.544-2.957 2.052-1.381.635-3.315.75-4.696.029-1.464-.809-3.15-1.444-4.751-.693-.748.36-1.203 1.138-1.642 1.89-.194.33-.385.656-.596.939z" fill="#fff"/></svg>