<svg width="56" height="56" viewBox="0 0 56 56" xmlns="http://www.w3.org/2000/svg"><path fill="#F0F3FA" d="M0 0h56v56H0z"/><path d="M33.3 13.9c.5.3.98.63 1.38 1.02.09.1.33.36.2.54-.05.15-.28.2-.47.14-.37-.1-.69-.26-1.03-.41-4.65-1.94-9.85-1-13.87 1.91a12.88 12.88 0 0 0-3.16 3.46c-2.46 3.82-3.13 9.6-.67 13.65.18.3.33.63.52.92.12.2.32.35.27.66-.03.02-.03.03-.07.04-.21.12-.58-.35-.68-.44-3.25-3.22-4.66-8.86-3.2-13.26.23-.7.48-1.37.76-2a14.37 14.37 0 0 1 7.76-7.17c3.8-1.57 8.88-1.18 12.27.93ZM41.12 21a6 6 0 0 1 3.85 1.09c.05.03.94.7.9.75-.1.13-.3.21-.45.32l-.96.66c-.13.1-.26.27-.46.29a3.1 3.1 0 0 0-2.26-1.15c-.66-.13-1.9.35-1.64 1.17.25.73 1.4.55 2.22.75 1.35.32 2.55.37 3.25 1.34.39.55.53 1.44.36 2.07-.5 1.82-2.67 2.78-4.61 2.7a6.13 6.13 0 0 1-4.3-1.94v-.03c.46-.26.9-.54 1.35-.82.17-.1.36-.3.57-.34.35.52 1.1.87 1.78 1.07.22.05.45.08.67.12h.36c.63 0 2-.35 1.71-1.25-.14-.46-.7-.55-1.2-.67-.13 0-.25-.02-.37-.03-.29-.06-.62-.05-.92-.12-1.27-.29-2.67-.5-3.24-1.8-.57-1.27.08-2.85 1.24-3.55.65-.4 1.4-.53 2.15-.63Z" fill="#004178"/><path d="M12.25 20.07c.08 0 .13.02.15.09.1.12-.1.56-.15.69-.28.63-.42 1.37-.62 2.08-.77 2.75-.44 6.48.66 9.1.14.35.31.7.46 1.05a16.54 16.54 0 0 0 8.6 8.29c.23.1.46.16.7.25a16.12 16.12 0 0 0 10.84.23c.47-.17.94-.33 1.4-.52.22-.1.44-.3.76-.24a.3.3 0 0 1 .03.13l-.12.16c-.36.26-.78.42-1.16.66-3.75 2.25-8.41 2.46-12.5 1.15a16.01 16.01 0 0 1-10.52-10.33 15.61 15.61 0 0 1 .3-10.59c.23-.52.43-1.01.68-1.48.1-.2.16-.4.29-.56.05-.07.13-.1.2-.16Z" fill="#00A5E6"/><path d="M27.95 23H25v8h-2.47c-.01-.01.03 0 0 0v-8H20v-2h7.3l.65 2Zm.3-2h2.69l1.97 6.74h.01L34.88 21h2.62l.05.05L34.13 31h-2.52l-3.36-9.97c.05 0-.01-.02 0-.03Zm-5.24 11.06c.66-.01.89.2 1.2.51v.04c-.16.04-.24.21-.4.26v-.01c-.2-.2-.48-.5-.93-.33-.1.05-.14.12-.21.19l.01.2c.43.26 1.16.22 1.45.63.05.1.15.27.12.44a.95.95 0 0 1-.17.42c-.22.28-.91.45-1.39.3-.35-.12-.46-.28-.68-.5l.01-.02c.1-.12.27-.16.38-.26h.03c.09.26.75.51 1.12.32.07-.04.1-.11.16-.17 0-.13-.01-.17-.04-.27-.5-.28-1.25-.14-1.47-.72a.73.73 0 0 1 .22-.8c.1-.09.26-.15.4-.19.06-.02.14-.01.19-.04Zm12.92.93c-.02-.3-.37-.58-.77-.43-.32.1-.48.41-.48.84v.24c.08.37.22.57.6.67.11.02.28.02.38-.04.08-.05.2-.15.25-.24.05-.07.05-.18.12-.22l.43.19c-.11.51-.87.98-1.55.7-.4-.15-.63-.47-.74-.9a4.69 4.69 0 0 1 0-.74c.16-.59.47-.85 1.1-.98.46-.1.86.24 1.01.47.04.06.17.26.14.32-.09.06-.38.12-.5.12Zm1.2-.84v.91h.01c.24-.3.94-.26 1.13.05.16.27.1 1.17.08 1.6-.1.03-.29.02-.42.01-.04-.1-.02-.27-.02-.39v-.83a.23.23 0 0 1-.05-.12c-.06-.03-.11-.1-.18-.12a.46.46 0 0 0-.3.05c-.37.2-.26.85-.25 1.4h-.45v-2.56c.05-.02.12-.02.19-.02.05.03.18.02.26.02Zm3.97-.02v.45h-.43c-.03-.1-.02-.3-.01-.43.1-.04.3-.02.44-.02Zm-10.36.02h.44v2.55h-.44v-2.55Zm9.91.71h.44v1.85h-.44v-1.85Zm2.46 1.86h-.44c0-.35.07-1.3-.16-1.39-.12-.1-.29-.03-.38.04-.28.19-.2.9-.19 1.35h-.44v-1.81h.44v.18h.02c.2-.3.87-.3 1.06 0 .17.27.09 1.2.09 1.63Zm-18.58-1.85h.45c0 .28-.05 1.13.03 1.29.03.05.1.09.16.13l.27.02c.43-.12.31-.9.3-1.43.11-.03.31-.02.45-.01.08.22.02.74.01 1.01-.05.1-.02.64-.01.8h-.44v-.17h-.02c-.22.32-.92.26-1.11-.03-.17-.26-.1-1.18-.09-1.6Zm7.33.02.4 1.32h.01l.33-1.32h.46v.03c-.07.1-.07.27-.12.41-.15.45-.26.93-.43 1.37-.08.23-.12.45-.3.56-.15.08-.41.07-.59.03v-.38h.02c.09.06.25-.02.32-.04.03-.06.06-.08.08-.17-.1-.13-.11-.33-.18-.5-.16-.39-.37-.89-.47-1.31h.47Zm-4.83 2.39h-.44l.01-2.4h.45l.01.14c.1-.17.46-.27.74-.17.3.12.69.6.56 1.14-.1.38-.44.9-1 .75-.12-.04-.21-.12-.32-.17v.46c-.02.05 0 .17 0 .25Zm.37-2.03-.08.03c-.46.12-.35 1.2.23 1.05.53-.13.53-1.1-.15-1.08Zm1.7 2.03h-.43v-2.39c.1-.03.3-.02.44 0v.15h.01c.15-.2.55-.26.82-.14.25.1.6.6.5 1.03-.1.43-.23.68-.65.8a.68.68 0 0 1-.37.01c-.12-.03-.2-.13-.31-.17v.71Zm.39-2.03c-.22.13-.3.1-.38.39-.09.36.17.8.53.69.5-.14.48-1.09-.15-1.08Zm10.33 1.47-.02-.13c-.38.22-.91.26-1.13-.16-.03-.07-.1-.19-.07-.32.11-.44.44-.45.87-.56.11-.03.23-.07.35-.08l-.02-.17c-.04-.03-.05-.05-.1-.07-.11-.1-.36-.02-.46.01-.07.1-.06.1-.1.22-.12-.04-.32-.04-.44-.04.02-.3.2-.48.46-.55.39-.12.95 0 1.08.25.06.11.03.33.03.5 0 .38-.03.84.09 1.1h-.54Zm-.04-.9c-.13.11-.38.06-.55.13-.06.03-.1.1-.16.14l.02.18c.31.2.52.07.72-.13v-.33h-.03Zm-16.8 1.86c.46 0 .75.07 1.01.26l.24.25-.01.01c-.04.06-.38.29-.4.27l-.16-.2c-.16-.11-.51-.23-.78-.12-.1.04-.13.13-.2.2v.12c.42.48 1.39.16 1.57.92.18.7-.72 1.12-1.37.97-.48-.12-.56-.24-.85-.53v-.03c.16-.05.25-.2.41-.25.14.22.65.51 1.08.33.1-.04.14-.13.2-.2v-.18c-.1-.29-.94-.27-1.2-.43-.36-.22-.5-.86-.1-1.15.1-.08.26-.15.4-.2.04-.02.1 0 .16-.04Zm3.62.07h.45v2.56h-.47l.02-2.56Zm2.95 0H30v.7h.4v.3h-.4v.83c0 .15-.02.28.08.34.07.06.22.03.32.01v.36l-.01.01c-.29.01-.64.06-.77-.13-.07-.1-.05-.3-.05-.46v-.97h-.27v-.3h.27v-.69Zm1.03 0h.44v.44h-.44v-.44Zm4.5 2.58h-.44c0-.43.04-.98-.05-1.32-.04-.03-.08-.08-.13-.1-.17-.06-.3.03-.38.1-.23.22-.17.87-.16 1.32h-.44v-1.81h.44v.2h.01v-.01a.86.86 0 0 1 .28-.2c.1-.05.29-.06.41-.02.14.03.27.07.34.17.21.27.13 1.19.12 1.67Zm.93-1.86c.4-.02.87.09.96.35h-.02l-.29.27h-.01c-.05-.16-.45-.4-.67-.24-.06.02-.09.04-.1.1-.1.19.22.2.35.24.32.08.91.16.79.64-.13.53-.8.68-1.36.44-.15-.07-.28-.12-.35-.24.07-.03.32-.27.34-.24.21.2.41.25.77.16.05-.07.1-.07.1-.2-.02-.01 0 0-.02-.04-.37-.2-.92-.1-1.07-.52-.04-.1-.05-.25 0-.35.03-.08.09-.15.15-.2.13-.11.29-.08.43-.17Zm-5.43.01h.44v1.83c-.1.03-.3.02-.44.01v-1.84Zm-3.15.02h.44c0 .45-.02.99.08 1.34.08.06.32.18.46.07.36-.11.26-.93.26-1.4h.42c.05.15.02.4.02.58v1.23h-.46v-.15h-.04c-.22.3-.91.22-1.1-.05-.16-.27-.09-1.2-.08-1.62Zm-2.25-.06c.56 0 .91.17 1.07.55.25.59-.12 1.18-.55 1.34-.73.25-1.48-.45-1.25-1.19.07-.24.22-.46.41-.58.1-.05.23-.05.32-.12Zm.11.4-.19.07c-.06.08-.15.16-.18.27-.12.4.16.9.6.77.5-.14.46-1.12-.23-1.11Zm6.9-.4c.75 0 1.26.68.93 1.43-.12.27-.38.44-.7.5-.76.18-1.31-.7-1.03-1.36.08-.2.26-.4.45-.47.1-.05.25-.03.35-.1Zm-.03.41c-.16.1-.3.14-.36.34-.11.38.16.9.59.78.52-.15.49-1.14-.23-1.12Z" fill="#004178"/></svg>