<svg width="56" height="56" viewBox="0 0 56 56" xmlns="http://www.w3.org/2000/svg"><path fill="#F0F3FA" d="M0 0h56v56H0z"/><path d="m13 20 6.5-7h5l6.5 7v5h5v-5h-3.5L26 13h10l7 6.5v7L41 28l2 1.5v7L36.5 43H27l5.5-7H36v-5h-5v5l-6 7h-5.5L13 37v-5l7-7h4v-5h-5v4l-6 6V20Zm11 11h-5v5h5v-5Z" fill="url(#amwpoya3e)"/><defs><linearGradient id="amwpoya3e" x1="13.5" y1="30" x2="38" y2="29.5" gradientUnits="userSpaceOnUse"><stop stop-color="#C77B23"/><stop offset="1" stop-color="#F2CE42"/></linearGradient></defs></svg>