<svg width="56" height="56" viewBox="0 0 56 56" xmlns="http://www.w3.org/2000/svg"><path fill="#F0F3FA" d="M0 0h56v56H0z"/><path d="M13 15.28A2.28 2.28 0 0 1 15.28 13h25.44A2.28 2.28 0 0 1 43 15.28v25.44A2.28 2.28 0 0 1 40.72 43h-21.5A6.22 6.22 0 0 1 13 36.78v-21.5Z" fill="url(#aexrgdwbt)"/><path d="M36.17 35.06a4.88 4.88 0 0 0-1.93-.56c-.41 0-1.24.15-1.24.63 0 .94 4 .6 4 2.81C37 39.4 35.3 40 33.8 40c-.95 0-1.96-.29-2.8-.64l.76-1.47c.56.23 1.4.61 2.03.61.38 0 1.21-.19 1.21-.63 0-.94-4-.63-4-2.8C31 33.6 32.7 33 34.24 33c.87 0 1.82.27 2.61.56l-.68 1.5ZM28 39c-.52.74-.91 1-1.8 1-1.88 0-3.2-1.74-3.2-3.64A3.26 3.26 0 0 1 26.22 33c.87 0 1.26.1 1.78.84V30h2v10h-2v-1Zm-3-2.64c0 1.1.47 2.14 1.54 2.14 1.06 0 1.46-1.03 1.46-2.14 0-1.1-.4-1.86-1.46-1.86-1.07 0-1.54.75-1.54 1.86ZM18 33v4.24c0 .68.3 1.26 1 1.26.71 0 1-.58 1-1.26V33h2v4.12A2.94 2.94 0 0 1 19 40c-1.65 0-3-1.26-3-2.88V33h2Z" fill="#fff"/><defs><linearGradient id="aexrgdwbt" x1="41.62" y1="13.76" x2="14.56" y2="40.65" gradientUnits="userSpaceOnUse"><stop stop-color="#F69C38"/><stop offset="1" stop-color="#ED4F36"/></linearGradient></defs></svg>