<svg width="56" height="56" viewBox="0 0 56 56" xmlns="http://www.w3.org/2000/svg"><path fill="#F0F3FA" d="M0 0h56v56H0z"/><path d="M14.84 14a.84.84 0 0 0-.84.84v7.32c0 .46.38.84.84.84h7.32c.46 0 .84-.38.84-.84v-7.32a.84.84 0 0 0-.84-.84h-7.32ZM14 24.84c0-.46.38-.84.84-.84h7.32c.46 0 .84.38.84.84v7.32c0 .46-.38.84-.84.84h-7.32a.84.84 0 0 1-.84-.84v-7.32Zm0 10c0-.46.38-.84.84-.84h7.32c.46 0 .84.38.84.84v7.32c0 .46-.38.84-.84.84h-7.32a.84.84 0 0 1-.84-.84v-7.32Zm10 0c0-.46.38-.84.84-.84H28l-.96 1.77L28.43 43h-3.6a.84.84 0 0 1-.83-.84v-7.32Zm19-6.89v-3.11a.84.84 0 0 0-.84-.84h-7.32a.84.84 0 0 0-.84.84v3.11h9Zm-10 0v-3.11a.84.84 0 0 0-.84-.84h-7.32a.84.84 0 0 0-.84.84v7.32c0 .46.38.84.84.84h3.7l2.74-5.05H33Zm-9-13.11c0-.46.38-.84.84-.84h7.32c.46 0 .84.38.84.84v7.32c0 .46-.38.84-.84.84h-7.32a.84.84 0 0 1-.84-.84v-7.32ZM34.84 14a.84.84 0 0 0-.84.84v7.32c0 .46.38.84.84.84h7.32c.46 0 .84-.38.84-.84v-7.32a.84.84 0 0 0-.84-.84h-7.32Z" fill="#727270"/><path d="M31 42.9a8.58 8.58 0 0 1-2.32-5.9 8.55 8.55 0 0 1 8.52-8.57c2.24 0 4.28.87 5.8 2.3V23.8l-3.1 2.22-2.94-6.63-2.92 6.63-5.76-4.35.8 7.3-7.2-.84 4.3 5.9-6.68 2.88 6.67 2.98L24 42.92h6.98l.03-.02Z" fill="#FFCC01"/></svg>