<svg xmlns="http://www.w3.org/2000/svg" width="56" height="56"><path fill="#2B7EC0" d="M0 0h56v56H0z"/><path fill-rule="evenodd" d="M37.98 29h7.96a8.97 8.97 0 01-1.6 4h-7c.35-1.26.56-2.6.63-4zm-2.72 4c.38-1.23.63-2.57.71-4H29v4h6.26zM29 35h5.47c-.3.63-.65 1.21-1.03 1.74-1.28 1.8-2.83 2.85-4.44 3.17V35zm-2-2v-4h-6.97c.08 1.43.33 2.77.7 4H27zm-5.47 2H27v4.9c-1.6-.3-3.16-1.37-4.44-3.16-.38-.53-.73-1.11-1.03-1.74zm-2.87-2c-.35-1.26-.56-2.6-.64-4h-7.96a8.97 8.97 0 001.6 4h7zm-5.23 2h5.9c.71 1.7 1.67 3.19 2.8 4.34A20.62 20.62 0 0115 36.26c-.57-.4-1.1-.82-1.57-1.26zm23.23 0h5.91c-.47.44-1 .86-1.57 1.26a20.62 20.62 0 01-7.13 3.08 13.54 13.54 0 002.8-4.34zm.68-12c.35 1.26.56 2.6.63 4h7.97a8.97 8.97 0 00-1.6-4h-7zM29 27h6.97a16.58 16.58 0 00-.71-4H29v4zm-2 0h-6.97c.08-1.43.33-2.77.71-4H27v4zm-16.94 0h7.97c.07-1.4.28-2.74.63-4h-7a8.97 8.97 0 00-1.6 4zm32.51-6c-.48-.44-1-.86-1.57-1.26a20.62 20.62 0 00-7.13-3.08 13.54 13.54 0 012.8 4.34h5.9zm-8.1 0a12.1 12.1 0 00-1.03-1.74c-1.28-1.79-2.83-2.85-4.44-3.16V21h5.47zM27 21v-4.9c-1.6.3-3.16 1.37-4.44 3.16-.38.53-.72 1.11-1.03 1.74H27zm-7.66 0c.7-1.7 1.66-3.19 2.8-4.34A20.62 20.62 0 0015 19.74c-.57.4-1.1.82-1.57 1.26h5.9zM28 42C16.95 42 8 35.73 8 28s8.95-14 20-14 20 6.27 20 14-8.95 14-20 14z" fill="#fff"/><path d="M46.96 15C30.5 17.4 21.32 27.78 18.78 33h6.5l3.03 9c3.98-16.7 14.09-24.96 18.65-27z" fill="#CF3438"/></svg>