<svg xmlns="http://www.w3.org/2000/svg" width="56" height="56" viewBox="0 0 56 56"><path fill="#F0F3FA" d="M0 0h56v56H0z"/><path d="M6 20v9.94A6.02 6.02 0 0 0 11.97 36h2.06c3.3 0 5.97-2.71 5.97-6.06V20h-4v9.62c0 1.6-1.43 2.38-3 2.38s-3-.78-3-2.38V20H6Zm16 16V20h11v4h-7v3h6v4h-6v5h-4Z" fill="url(#a2omktzwq)"/><path d="M46.23 27.7c0 3.9-3.54 4.94-5.32 5.09.5.35 1.78 1.04 2.9 1.04 4.85 0 5.19-5.5 5.19-6.23 0-.74-.78-7.6-7.71-7.6-5.55 0-7.29 4.75-7.29 8.09 0 7.36 6.37 8.27 9.56 7.81-2.74 0-7.31-2.3-7.31-7.41s3.82-6.23 4.64-6.23c.82 0 5.34.57 5.34 5.45Z" fill="url(#b2omktzwq)"/><path d="M39.13 28.65c0-3.9 3.19-5.2 4.97-5.36a5.95 5.95 0 0 0-2.9-1.04c-4.85 0-5.05 5.66-5.05 6.4 0 .73.63 7.35 7.56 7.35 5.55 0 7.17-5.39 7.29-8.09 0-7.36-6-7.9-9.63-7.9 2.74 0 7.48 2.57 7.48 7.67s-3.88 6.14-4.7 6.14c-.82 0-5.02-.3-5.02-5.17Z" fill="url(#c2omktzwq)"/><defs><linearGradient id="a2omktzwq" x1="5.73" y1="23.56" x2="30.71" y2="38.33" gradientUnits="userSpaceOnUse"><stop stop-color="#D707A9"/><stop offset=".4" stop-color="#A216AF"/><stop offset="1" stop-color="#EF00A7"/></linearGradient><linearGradient id="b2omktzwq" x1="45.71" y1="31.72" x2="35.22" y2="31.05" gradientUnits="userSpaceOnUse"><stop stop-color="#5F26BA"/><stop offset="1" stop-color="#E003AA"/></linearGradient><linearGradient id="c2omktzwq" x1="37.84" y1="26.5" x2="48.79" y2="34.48" gradientUnits="userSpaceOnUse"><stop offset=".48" stop-color="#00BEFF"/><stop offset="1" stop-color="#0E8AD2"/></linearGradient></defs></svg>