<svg width="56" height="56" xmlns="http://www.w3.org/2000/svg"><path fill="#F7ED20" d="M0 0h56v56H0z"/><path d="M11.726 26.397c-.29.935-.747 1.603-1.368 2.003-.62.4-1.477.6-2.565.6-1.127 0-1.872-.196-2.233-.59-.363-.392-.396-1.064-.101-2.013L6.824 22H8.91l-1.415 4.55c-.224.722.019 1.08.725 1.08.694 0 1.154-.358 1.377-1.08L11.01 22h2.084l-1.368 4.397zM13.549 29h-1.88l2.152-7h1.88l-2.152 7zm4.131-.08c-.505.052-.933.08-1.289.08-.62 0-1.01-.082-1.17-.245-.19-.19-.193-.583-.013-1.177l.817-2.685h-.847l.392-1.288h.847l.49-1.605h1.878l-.487 1.605h.962l-.392 1.288h-.962l-.712 2.342c-.058.19-.062.318-.012.384.05.065.179.096.388.096.16 0 .321-.01.485-.028l-.375 1.233zm5.596-3.236a3.263 3.263 0 00-.738-.086c-.406 0-.757.096-1.053.288-.318.198-.54.482-.66.852L20.075 29h-1.88l1.613-4.88h1.88l-.287.872h.018c.602-.663 1.237-.992 1.902-.992.15 0 .316.012.5.035l-.546 1.65zm3.204 1.41l.172-.502c-.172.057-.633.13-1.384.217-.394.074-.643.268-.75.58-.125.367.044.547.507.547.779 0 1.264-.28 1.455-.842zm1.494 1.753l-.86.02c-.578.011-.897.016-.953.016-.114-.097-.146-.235-.099-.407l.038-.14h-.018c-.518.443-1.223.664-2.114.664-1.304 0-1.788-.49-1.453-1.468.296-.862 1.057-1.352 2.286-1.468 1-.099 1.497-.143 1.489-.139.239-.029.41-.076.516-.142a.63.63 0 00.24-.343c.102-.295-.115-.444-.65-.444-.585 0-.966.204-1.144.616h-1.786c.255-.58.626-.994 1.112-1.241.487-.247 1.225-.371 2.214-.371.96 0 1.591.136 1.892.409.263.248.301.649.113 1.196l-.857 2.506c-.065.19-.07.325-.01.407.048.024.068.04.065.053 0 .034-.003.08-.012.138a1.85 1.85 0 00-.009.139z" fill="#000"/><path d="M34.589 23.558h-1.948L30.994 29H28.91l1.647-5.442h-1.954L29.075 22h5.985l-.471 1.558z" fill="#000"/><path d="M36.685 26c.09-.265.089-.557-.005-.724-.11-.197-.336-.276-.678-.276-.631 0-1.078.368-1.337 1h2.02zm1.539 1h-3.878c-.274.765-.067 1.005.624 1.005.53 0 .91-.228 1.142-.681h1.907c-.22.493-.601.888-1.146 1.182-.606.328-1.342.494-2.206.494-1.982 0-2.682-.846-2.104-2.535.263-.77.687-1.363 1.271-1.779.644-.456 1.453-.686 2.426-.686 1.044 0 1.72.235 2.029.7.295.45.273 1.314-.065 2.3zm6.184 0c-.558 1.407-1.755 2-3.594 2-1.963 0-2.656-.836-2.084-2.51.567-1.66 1.837-2.49 3.801-2.49.967 0 1.62.154 1.958.463.337.31.412.849.228 1.537h-1.882c.192-.565-.022-.888-.642-.888-.4 0-.717.114-.953.34-.215.2-.404.542-.57 1.023-.17.497-.209.851-.12 1.063.089.212.315.316.678.316.588 0 1.024-.212 1.308-.854h1.872zm5.089 2h-1.88l.984-3.198c.154-.502-.002-.754-.467-.754-.266 0-.503.09-.715.265a1.39 1.39 0 00-.442.671L46.05 29h-1.884l2.155-7h1.88l-.74 2.402h.01c.45-.518 1.105-.777 1.964-.777.485 0 .842.125 1.067.377.264.29.315.707.147 1.247L49.497 29zm-1.132 2.324h-.742l-.61 1.912h-1.015l.608-1.91h-.746l.214-.67 2.505-.001-.214.67zm-7.884 1.916H39.36l-.22-1.46-.466 1.46-.956.003.823-2.583h1.154l.184 1.439h.012l.457-1.44h.957l-.823 2.58zm-7.032-1.933l-1.332.002-.102.319 1.244-.002-.203.639h-1.244l-.108.338 1.344-.001-.205.643-2.359.002.822-2.582 2.348-.002-.205.644zm-7.95 1.944h-.936l.597-1.873-.997 1.873h-.75l.201-1.872-.597 1.873h-.937l.823-2.582h1.449l-.217 1.476h.008l.746-1.477h1.434L25.5 33.25zm-7.68-1.934l-1.333.001-.1.32 1.242-.002-.202.638-1.243.002-.108.336h1.343l-.204.643-2.36.002.823-2.582 2.347-.001-.206.643zm-7.34.377H9.387c.05-.173.072-.29.066-.353-.012-.1-.082-.148-.21-.148a.425.425 0 00-.33.131c-.1.109-.199.323-.3.643-.105.324-.143.543-.117.654.018.085.09.127.215.127a.37.37 0 00.262-.1c.077-.08.16-.223.248-.432h1.094c-.165.402-.36.683-.588.842-.266.187-.657.28-1.174.281-.47 0-.788-.082-.952-.245-.215-.21-.236-.586-.063-1.126.169-.532.428-.903.777-1.115.273-.168.644-.252 1.113-.252.434-.001.738.08.913.242.188.173.235.459.14.85zM51.236 30H5.958l-1.004 3.232c-.36.752-.919.768-.954.768h45.993l.92-2.964a1.23 1.23 0 00.116-.225c.358-.79.932-.807.971-.809h-.766l.001-.002z" fill="#000"/></svg>