<svg width="56" height="56" viewBox="0 0 56 56" xmlns="http://www.w3.org/2000/svg"><path fill="#F0F3FA" d="M0 0h56v56H0z"/><path d="M6.6 30C5.55 30 5 29.2 5 28.2V26h1v1.97c0 .62.35 1.03.75 1.03 1 0 1.25-.66 1.25-1.1V26h1v4H8v-1.18l.24.32c-.26.57-1.05.86-1.63.86ZM15.5 30l1.7-4h1.09L20 30h-1.14l-1.34-3.45h.43L16.62 30H15.5Zm.93-.78.29-.83h1.89l.28.83h-2.46ZM10 30v-4h1l1.78 2.72h-.53L14 26h1l.01 4h-1v-2.42h.19l-1.43 2.03h-.54l-1.45-2.03H11V30h-1ZM49.95 30c-.38 0-.74-.04-1.1-.12a3.22 3.22 0 0 1-.85-.3l.43-.8a3.47 3.47 0 0 0 1.53.37 2 2 0 0 0 .43-.03.58.58 0 0 0 .24-.11c.05-.05.08-.1.08-.17 0-.09-.05-.16-.14-.2-.1-.06-.23-.1-.38-.13l-.52-.1a6.56 6.56 0 0 1-.56-.13 2.59 2.59 0 0 1-.5-.2c-.16-.08-.29-.19-.39-.32a.86.86 0 0 1-.14-.51c0-.23.07-.44.22-.63.16-.19.39-.34.7-.45.3-.11.67-.17 1.13-.17a4.5 4.5 0 0 1 1.68.34l-.4.8a3.37 3.37 0 0 0-1.29-.3c-.18 0-.32.02-.43.06a.5.5 0 0 0-.24.12.25.25 0 0 0-.07.17c0 .09.04.15.13.2.1.05.23.1.38.13l.52.09c.19.03.37.07.56.13.19.04.36.11.51.2a1 1 0 0 1 .37.32c.1.13.15.3.15.5 0 .22-.08.43-.23.62-.15.19-.38.34-.68.45-.3.11-.68.17-1.14.17ZM45 30v-3h-1.5v-1h4v1H46v3h-1ZM39.5 30v-4h1.74c.9 0 1.68.51 1.68 1.48 0 .6-.28 1.05-.79 1.29-.25.11-.55.17-.9.17H40.1l.4-.48V30h-1Zm2.35 0-.94-1.46h1.14L43 30h-1.15Zm-1.35-1.42-.4-.58h1.07c.45 0 .67-.16.67-.52 0-.37-.22-.48-.67-.48H40.1l.4-.63v2.21ZM37 30c-1.13 0-2-.87-2-2 0-1.12.88-2 2-2s2 .88 2 2-.88 2-2 2Zm0-1c.6 0 1-.43 1-1 0-.56-.4-1-1-1s-1 .43-1 1c0 .57.4 1 1 1ZM31.5 30v-4h1.52c.88 0 1.48.6 1.48 1.48 0 .87-.6 1.47-1.48 1.47h-1l.48-.49V30h-1Zm1-1.42-.48-.58h.94c.4 0 .54-.14.54-.5 0-.37-.16-.5-.56-.5H32l.5-.63v2.21ZM27 30l1.65-2.43v.8L27.04 26h1.21l1.01 1.55h-.5l.99-1.55h1.15l-1.58 2.33v-.8L31 30h-1.23l-1.03-1.63h.5L28.21 30H27ZM23.5 27.5h3v1h-3v-1ZM24 29h2.5v1H23v-4h3.5v1H24v2Z" fill="#231F20"/></svg>