<svg width="56" height="56" viewBox="0 0 56 56" xmlns="http://www.w3.org/2000/svg"><path fill="#F0F3FA" d="M0 0h56v56H0z"/><path d="M8 22H6v9c0 1 .6 3 3 3s3-2 3-3v-9h-2v9c0 .33-.2 1-1 1s-1-.67-1-1v-9ZM15 25h-2v9h2v-6.5c0-.17.1-.5.5-.5s.5.33.5.5V34h2v-7c0-.67-.3-2-1.5-2s-1.33.67-1.5 1v-1Z" fill="#2F2F93"/><path d="M27 25h-2v9h2v-6.5c0-.17.1-.5.5-.5s.5.33.5.5V34h2v-7c0-.67-.3-2-1.5-2s-1.33.67-1.5 1v-1ZM32 28h-1v-2h1v-1c0-.8.5-2 1.5-2H35v2c-.8 0-1 .33-1 .5v.5h1v2h-1v6h-2v-6Z" fill="#EE7E32"/><path fill="#2F2F93" d="M19 23h2v2h-2z"/><path fill="#EE7E32" d="M22 23h2v2h-2z"/><path fill="#2F2F93" d="M19 26h2v8h-2z"/><path fill="#EE7E32" d="M22 26h2v8h-2z"/><circle cx="40.5" cy="29.5" r="4.5" fill="#2F2F93"/><path d="M37.81 32.03c-.14-.2-.31-.44-.31-1.03 0-1 0-2 .5-1.5.2.2.3.38.41.55.16.26.28.45.59.45.23 0 .35-.32.47-.6.14-.36.26-.67.53-.4.21.21.15.43.1.64-.09.29-.17.57.4.86.5.25.88.25 1.13.25.24 0 .37 0 .37.25 0 .23-.32.35-.6.47-.36.14-.67.26-.4.53.15.15.25.3.34.41.2.3.3.44.66.09.25-.25.5-.25.69-.25.19 0 .31 0 .31-.25 0-.17.06-.39.11-.61.11-.45.22-.89-.11-.89-.5 0-2-.5-2-1 0-.3.2-.43.45-.59.17-.1.36-.22.55-.41.2-.2.45-.3.68-.41.37-.16.63-.28.32-.59-.25-.25-.38-.38-.38-.5 0-.13.13-.25.38-.5.3-.3.25-.78.14-1.15a4.5 4.5 0 0 0-5.5 7.13.46.46 0 0 0 .36-.48c0-.2-.09-.33-.19-.47Z" fill="#EE7E32"/><path d="M43 24.56A2 2 0 0 1 45.44 27h.51A2.51 2.51 0 0 0 43 24.05v.51ZM47.47 27h.5A4.5 4.5 0 0 0 43 22.03v.5A4 4 0 0 1 47.47 27Zm2.01 0h.5l.02-.5a6.5 6.5 0 0 0-7-6.48v.5l.5-.02a6 6 0 0 1 5.98 6.5Z" fill="#2F2F93"/></svg>