<svg width="56" height="56" viewBox="0 0 56 56" xmlns="http://www.w3.org/2000/svg"><path fill="#F0F3FA" d="M0 0h56v56H0z"/><path d="M8 35.57V20.68C9.9 17.78 16.47 12 27.52 12c11.05 0 18.26 5.79 20.48 8.68v14.89C45.54 38.37 38 44 27.52 44S10.14 38.38 8 35.57Z" fill="#133F12"/><path fill-rule="evenodd" d="M25.01 18.9c-1.35-1.8-2.46-2.15-2.84-2.1.73-1.27 2.02-.53 2.56 0-.13-.53.06-1.42.17-1.8.69.56.82 1.43.8 1.8.49-.77 1.66-2.02 2.4-.86-.74.14-2.37 2.03-3.09 2.96Zm-3.01.55c0-.25.2-.45.43-.45h1.14c.24 0 .43.2.43.45v.6c0 .25-.2.45-.43.45h-1.14a.44.44 0 0 1-.43-.45v-.6ZM12 21v5.14A2.86 2.86 0 0 0 14.87 29h.89c1.58 0 3.24-1.28 3.24-2.86v-.68L21.66 29H24v-8h-2v4.76l-3-4.74V21h-3v2h1v3c0 .72-.77 1-1.5 1s-1.5-.28-1.5-1v-5h-2Zm13 6.7v-7.48L27 19v2h2v2h-2v3.18c0 .28.53.82.83.82H29v2h-2.52c-.75 0-1.48-.58-1.48-1.3Zm6.28-2.2H37v-1.4c-.01-.9-.82-3.1-3.95-3.1-3.91 0-4.05 3.51-4.05 4.24 0 .73.41 3.76 4.05 3.76 2.67 0 3.67-1.47 3.84-2.21l-1.63-.65c-.19.46-.85.86-1.99.86-1.42 0-1.99-.77-1.99-1.5Zm.3-1.5h3.08c-.06-.33-.45-1-1.58-1-1.13 0-1.47.67-1.5 1Zm8.67 0L38 23.64c.16-.88 1.1-2.64 3.6-2.64s3.31 1.44 3.4 2.16V29h-2v-.82c-.25.28-1.35.82-2.75.82-1.72 0-2.22-1.22-2.25-1.83 0-2.11 3.42-3 5-3.17-.03-.4-.56-1-1.4-1-.83 0-1.25.6-1.35 1ZM43 26.64V25.6c-2.17 0-3.25 1.94-1.91 1.94 1.07 0 1.72-.6 1.91-.89Zm-15.04 6.39C20 33.03 13.34 30.34 11 29v4.8c2.58 1.4 9.58 4.2 16.96 4.2 7.39 0 14.44-2.26 17.04-3.38V29.8c-2.36 1.08-9.08 3.23-17.04 3.23Zm-14.25-.85-.28-.13a.65.65 0 0 0-.07-.48.7.7 0 0 0-.15-.19.86.86 0 0 0-.2-.13.78.78 0 0 0-.44-.07.82.82 0 0 0-.41.19c-.13.1-.25.26-.34.47-.1.2-.14.38-.13.55 0 .17.04.32.12.44a.85.85 0 0 0 .57.35.66.66 0 0 0 .64-.27l.3.14c-.08.11-.17.2-.27.27a.96.96 0 0 1-.67.16 1.15 1.15 0 0 1-.82-.49 1.1 1.1 0 0 1-.17-.58c0-.22.05-.45.16-.7.11-.25.25-.44.42-.58a1.07 1.07 0 0 1 1.15-.15c.12.06.23.13.31.2a1 1 0 0 1 .31.62c.02.12 0 .25-.03.38Zm29.02 2.06-.4-2.34.8-.13a.91.91 0 0 1 .46.02c.13.05.23.12.3.22.08.1.13.23.15.36.02.14.02.27-.02.4a.64.64 0 0 1-.21.3.9.9 0 0 1-.43.18l-.51.09.14.85-.28.05Zm.6-1.24-.5.09-.17-.98.5-.09a.64.64 0 0 1 .31.01c.08.03.15.08.2.15.04.07.08.15.1.24a.6.6 0 0 1-.02.26.4.4 0 0 1-.13.2.62.62 0 0 1-.3.12Zm-2.07-.53-.3.08.42 1.54c.03.12.03.23 0 .33s-.08.2-.17.28a.78.78 0 0 1-.33.17.78.78 0 0 1-.37.02.58.58 0 0 1-.45-.44l-.41-1.55-.3.08.42 1.57c.05.16.13.3.24.4.11.1.25.18.41.21.16.04.34.03.53-.02.2-.05.35-.14.48-.25a.83.83 0 0 0 .25-.86l-.42-1.56Zm-2.53 2.76c.09-.19.11-.41.08-.66-.03-.25-.1-.46-.23-.62-.12-.17-.28-.3-.47-.37-.2-.08-.4-.1-.64-.08-.23.03-.43.1-.6.22-.17.12-.3.28-.38.47-.08.2-.1.42-.08.66.03.25.1.46.23.63.13.17.28.3.48.37.19.08.4.1.63.07.24-.02.44-.1.6-.22.18-.12.3-.27.38-.47Zm-.41-1.12c.1.13.15.3.17.5.03.2 0 .38-.05.53a.8.8 0 0 1-.28.36.93.93 0 0 1-.44.16.94.94 0 0 1-.46-.06.8.8 0 0 1-.35-.28c-.1-.13-.16-.3-.18-.5-.02-.2 0-.38.06-.53a.8.8 0 0 1 .28-.36.94.94 0 0 1 .43-.16c.17-.02.32 0 .46.05a.8.8 0 0 1 .36.29Zm-5.93.6c.05.07.1.13.13.2l.3-.03a.93.93 0 0 0-.71-.64 1.05 1.05 0 0 0-.35-.01.94.94 0 0 0-.7.42c-.08.11-.14.25-.17.4a1.6 1.6 0 0 0-.02.51c.03.25.1.46.21.63a1 1 0 0 0 .42.38c.17.08.36.1.57.08.19-.03.35-.09.48-.18.14-.1.24-.22.3-.38a1 1 0 0 0 .06-.52l-.03-.25-.9.1.04.26.62-.07c.01.13 0 .26-.05.36a.62.62 0 0 1-.2.28.72.72 0 0 1-.35.13.73.73 0 0 1-.4-.06.75.75 0 0 1-.32-.29c-.09-.13-.15-.3-.17-.5a1.2 1.2 0 0 1 .04-.53.7.7 0 0 1 .6-.5h.24a.62.62 0 0 1 .36.22Zm-9.28 1.75.3-2.35.8.1c.18.02.32.08.43.15a.6.6 0 0 1 .23.3.8.8 0 0 1 .04.38.78.78 0 0 1-.13.35.6.6 0 0 1-.4.25l.41 1.04-.33-.04-.38-.99a1.19 1.19 0 0 1-.06 0l-.5-.07-.13.92-.28-.04Zm.55-2.06-.12.92.5.07a.7.7 0 0 0 .32-.02.35.35 0 0 0 .19-.13.53.53 0 0 0 .08-.24c.01-.1 0-.18-.02-.25a.36.36 0 0 0-.15-.19.69.69 0 0 0-.3-.1l-.5-.06Zm10.17-.3.2 2.37.28-.02-.07-.92.51-.04.06-.01.57.89.34-.03-.62-.93a.6.6 0 0 0 .33-.32.78.78 0 0 0 .06-.38.8.8 0 0 0-.11-.37.6.6 0 0 0-.29-.24.96.96 0 0 0-.46-.05l-.8.06Zm.38 1.17-.07-.93.5-.04c.13-.01.24 0 .32.03.08.04.14.09.18.15.04.07.06.15.07.25 0 .1 0 .18-.03.25a.35.35 0 0 1-.16.17.71.71 0 0 1-.3.08l-.5.04Zm-14.19-1.72.34.06.42 2.09h.03l1.16-1.78.33.06-.44 2.33-.26-.05.33-1.77h-.02l-1.06 1.63-.26-.05-.39-1.9-.02-.01-.34 1.77-.26-.05.44-2.33Zm-3.5 1.44.28.08.4-.59.93.25.06.71.29.08-.22-2.52-.29-.07-1.46 2.06Zm1.6-.53-.1-1.13h-.01l-.65.93.75.2Zm7.73 2.4-.3-.01.95-2.34h.3l.78 2.41-.3-.01-.22-.68-.95-.03-.26.66Zm.79-1.97.34 1.08-.77-.02.41-1.06h.02Zm-11.88-3.1-.86 2.2.26.11.4-.99 1.17.47-.4.99.27.1.87-2.2-.26-.11-.4.98-1.17-.46.4-.99-.28-.1Zm13.73 2.8v1.93c-.03.23-.15.74-.4 1.02.23-.12.82-.48.82-1.02V34.6h-.42Z" fill="#ECEFF6"/></svg>