<svg width="56" height="56" viewBox="0 0 56 56" xmlns="http://www.w3.org/2000/svg"><path fill="#F0F3FA" d="M0 0h56v56H0z"/><path d="M47 28.72V33h-2V23h2v3.88c.33-.93 1.4-1.48 2.48-1.48 1.6 0 2.53 1.32 2.52 2.82V33h-2v-4.31c0-.83-.73-1.33-1.47-1.33-.78 0-1.52.63-1.53 1.36ZM40.17 33C37.69 33 36 31.32 36 29c0-2.3 1.69-4 4.16-4 2.02 0 3.78 1.15 3.84 3.15h-2c-.09-.7-1-1.15-2-1.15s-2 .45-2 1.98C38 30.5 39 31 40 31c1.42 0 1.92-.5 2-1.18h2c-.08 2-1.79 3.18-3.83 3.18ZM31.13 33C28.5 33 27 31.23 27 29c0-2.13 1.5-4 4.05-4 2.54 0 3.95 1.83 3.95 3.96v.61h-7.1v-1.43H33c-.01-.75-1.14-1.14-2-1.14-.87 0-1.98.42-2 1.18v1.46c0 .86.98 1.36 2 1.36.61 0 1.38-.26 1.59-.8l2.38.3c-.32 1.67-2.04 2.5-3.84 2.5ZM26.91 25v2H23v-2h3.91ZM23 23h2v7.54c0 .4.7.6 1.09.6l.3-.03.52-.06.09 1.73c-.41.12-.83.2-1.26.22-1.47.06-2.76-.61-2.74-2.2V23ZM20 33v-8h2v8h-2ZM9 29.42V25h2v4.42A3.6 3.6 0 0 1 7.5 33 3.43 3.43 0 0 1 4 29.53V25h2v4.48c0 .83.72 1.56 1.46 1.56.77 0 1.54-.75 1.54-1.62ZM17 28.58V33h2v-4.42A3.6 3.6 0 0 0 15.5 25a3.43 3.43 0 0 0-3.5 3.47V33h2v-4.48c0-.83.72-1.56 1.46-1.56.77 0 1.54.75 1.54 1.62Z" fill="#2B65AD"/></svg>