<svg width="56" height="56" viewBox="0 0 56 56" xmlns="http://www.w3.org/2000/svg"><path fill="url(#ac3vvksxt)" d="M0 0h56v56H0z"/><path fill-rule="evenodd" d="M15.75 25c.41 0 .75-.23.75-.5 0-.28-.34-.5-.75-.5s-.75.22-.75.5c0 .27.34.5.75.5ZM15 26.16V30h1.5v-4l-1.5.16ZM4 24v4.17C4 29.18 4.79 30 5.76 30h.98a1.8 1.8 0 0 0 1.76-1.83V24H8v4.32a1 1 0 0 1-1 .98h-.42c-.52 0-1.08-.44-1.08-.98V24H4Zm6 6v-3.84l1.5-.16v.67a1.7 1.7 0 0 1 1.35-.67c1.03 0 1.15.69 1.15.93V30h-1.5v-2.72c0-.15.02-.44-.3-.44-.25 0-.53.42-.7.76V30H10Zm6.86-4h1.72l.87 2.56.94-2.56h.62l-1.56 4H18.4l-1.55-4Zm4.61 1.26v-.51c.04-.25.29-.75 1.05-.75H24c.33 0 1 .16 1 .75v2.49c.03.11.18.33.53.26l.16.3c-.1.07-.45.2-1.06.2-.61 0-.94-.27-1.03-.4-.1.13-.48.4-1.08.4-.74 0-1.3-.29-1.3-1v-.3c0-.18.2-.6.87-.86.67-.27 1.23-.6 1.41-.74V27c0-.33-.32-.6-.7-.6-.37 0-.67.27-.67.6v.1l.17.33-.83-.17Zm2.03.4v1.35c-.04.15-.2.47-.45.47-.12.01-.35-.05-.35-.42v-.62c.06-.11.3-.41.8-.77ZM29 30v-6h4v.5h-2.5V27h2v.5h-2V30H29Zm6.37-4c-1.03 0-1.87.73-1.87 1.63v.74c0 .9.84 1.63 1.87 1.63h.76c1.03 0 1.87-.73 1.87-1.63v-.74c0-.9-.84-1.63-1.87-1.63h-.76Zm.38 3.5c.41 0 .75-.67.75-1.5s-.34-1.5-.75-1.5-.75.67-.75 1.5.34 1.5.75 1.5Zm2.75-1.87c0-.9.84-1.63 1.87-1.63h.76c1.03 0 1.87.73 1.87 1.63v.74c0 .9-.84 1.63-1.87 1.63h-.76c-1.03 0-1.87-.73-1.87-1.63v-.74Zm3 .37c0 .83-.34 1.5-.75 1.5S40 28.83 40 28s.34-1.5.75-1.5.75.67.75 1.5Zm4.5-1.44V24.2l1.5-.19v6H46v-.56c-.28.35-.65.56-1.07.56-1.27 0-1.54-.9-1.54-2s.39-2 1.54-2c.42 0 .8.21 1.07.56Zm0 .45c0-.2-.22-.38-.5-.38s-.5.17-.5.38v2.03c0 .2.22.38.5.38s.5-.17.5-.38V27Zm2.13 1.79c.02-.02.6-.16.88-.24v.35c.04.23.3.67.99.67.85 0 .64-.65 0-.86-.65-.2-1.72-.66-1.72-1.48S49.16 26 50.22 26c1.05 0 1.5.56 1.66.98l-.85.2a.84.84 0 0 0-.87-.77c-.8 0-.6.59.06.8.66.2 1.78.68 1.78 1.65 0 .96-1.07 1.14-2 1.14-.94 0-1.46-.24-1.87-1.2Z" fill="url(#bc3vvksxt)"/><path fill-rule="evenodd" d="M11.5 27.6c.17-.34.45-.76.7-.76.32 0 .3.3.3.44V30H14v-3.07c0-.24-.12-.93-1.15-.93a1.69 1.69 0 0 0-1.35.67V26l-1.5.16V30h1.5v-2.4Zm-.1 2.3v-2.33l.01-.02c.09-.17.2-.37.33-.52.07-.08.14-.15.21-.2a.44.44 0 0 1 .25-.1c.1 0 .18.03.24.07.06.05.1.1.13.17.04.11.03.24.03.31v2.62h1.3v-2.97c0-.1-.03-.32-.17-.5-.13-.17-.39-.33-.88-.33a1.6 1.6 0 0 0-1.27.63l-.18.23v-.85l-1.3.14v3.65h1.3Zm7.18-3.9h-1.72l1.55 4h1.04L21 26h-.62l-.94 2.56-.87-2.56Zm1.88.1-1.02 2.77-.93-2.77h-1.5l1.46 3.8h.9l1.49-3.8h-.4ZM25 29.24v-2.5c0-.58-.67-.74-1-.74h-1.48c-.76 0-1.01.5-1.05.75v.5l.83.18-.17-.33V27c0-.33.3-.6.67-.6.38 0 .7.27.7.6v.1c-.18.14-.74.47-1.41.74-.68.26-.87.68-.88.85v.3c0 .72.57 1.01 1.31 1.01.5 0 .85-.2 1.01-.33a.64.64 0 0 0 .07-.07l.07.07c.14.14.45.33.96.33a2.65 2.65 0 0 0 1.06-.2l-.16-.3c-.35.07-.5-.15-.53-.26Zm.48.37a.57.57 0 0 1-.4-.1.48.48 0 0 1-.18-.24v-2.52c0-.25-.14-.4-.32-.51-.2-.1-.43-.14-.58-.14h-1.48a1 1 0 0 0-.73.25c-.14.14-.2.3-.22.4v.43l.54.1-.08-.15V27c0-.4.35-.72.77-.72.42 0 .8.31.8.72v.14l-.04.03c-.2.14-.75.48-1.44.75-.64.26-.8.64-.8.77v.3c0 .32.12.54.33.68.2.15.51.22.87.22.57 0 .91-.26 1-.37l.1-.1.07.11c.06.1.36.36.94.36a3.16 3.16 0 0 0 .93-.14l-.08-.15Zm-1.88-.59v.02a1 1 0 0 1-.16.32.5.5 0 0 1-.38.22.4.4 0 0 1-.3-.09c-.1-.08-.16-.22-.16-.43v-.65l.01-.02c.07-.13.32-.44.84-.8l.15-.11v1.54Zm-.55.46c.26 0 .41-.32.45-.47v-1.34a2.63 2.63 0 0 0-.8.77v.62c0 .37.23.43.35.42Zm7.35-5.08h2.5v-.3h-3.8v5.8h1.3v-2.5h2v-.3h-2v-2.7Zm2.1 2.6v.5h-2V30H29v-6h4v.5h-2.5V27h2ZM46 30h1.5v-6l-1.5.19v2.37a1.34 1.34 0 0 0-1.07-.56c-1.15 0-1.54.9-1.54 2s.27 2 1.54 2a1.34 1.34 0 0 0 1.07-.56V30Zm.1-5.73v2.58l-.18-.23a1.28 1.28 0 0 0-.99-.52c-.55 0-.9.21-1.12.54-.23.34-.32.82-.32 1.36 0 .55.07 1.02.28 1.36.2.33.55.54 1.16.54.38 0 .73-.2.99-.52a.69.69 0 0 1-.42.14.69.69 0 0 1-.41-.14.44.44 0 0 1-.19-.34V27c0-.14.08-.26.19-.35.1-.08.25-.13.41-.13.16 0 .3.05.41.13.11.09.19.2.19.35v2.03a.4.4 0 0 1-.03.16l.03-.05v.75h1.3v-5.79l-1.3.16Zm2.9 4.64v-.35l-.1.03a57.66 57.66 0 0 0-.77.2l.04.1c.4.89.92 1.11 1.83 1.11.93 0 2-.18 2-1.14 0-.97-1.12-1.45-1.78-1.66-.66-.2-.85-.8-.06-.8a.84.84 0 0 1 .87.78l.85-.2a1.46 1.46 0 0 0-.04-.1c-.19-.4-.64-.88-1.62-.88-1.06 0-1.94.42-1.94 1.24 0 .82 1.07 1.27 1.72 1.48.64.21.85.86 0 .86-.69 0-.95-.44-1-.67Zm2.74-2a1.33 1.33 0 0 0-.42-.5c-.24-.17-.6-.31-1.1-.31-.52 0-.98.1-1.31.3-.33.19-.53.47-.53.84 0 .36.24.65.58.89.33.23.75.4 1.07.5.17.05.32.14.42.24.11.1.19.22.2.34a.35.35 0 0 1-.15.34.88.88 0 0 1-.5.13c-.74 0-1.04-.48-1.1-.75v-.24a101.37 101.37 0 0 0-.64.17c.2.41.4.66.66.81.27.17.62.23 1.08.23.46 0 .94-.04 1.3-.2.19-.08.34-.18.44-.32.1-.13.16-.3.16-.52 0-.44-.25-.78-.6-1.03a3.78 3.78 0 0 0-1.11-.53 1.23 1.23 0 0 1-.44-.23.58.58 0 0 1-.2-.32.32.32 0 0 1 .14-.33c.1-.08.27-.11.47-.11a.93.93 0 0 1 .96.75m-34.9-2.3c.12-.07.18-.17.18-.26 0-.1-.06-.2-.18-.27a.87.87 0 0 0-.47-.13.87.87 0 0 0-.47.13c-.12.08-.18.17-.18.27s.06.2.18.27c.11.08.28.13.47.13.19 0 .36-.05.47-.13Zm-1.12 1.49v3.65h1.3v-3.79l-1.3.14Zm-.1-.1V30h1.5v-4l-1.5.16ZM4.1 24.1v4.07c0 .96.75 1.73 1.66 1.73h.98a1.7 1.7 0 0 0 1.66-1.73V24.1h-.3v4.22c0 .6-.51 1.08-1.1 1.08h-.42c-.29 0-.58-.12-.8-.31-.22-.2-.38-.47-.38-.77V24.1H4.1Zm31.27 2c-.99 0-1.77.7-1.77 1.53v.74c0 .83.78 1.53 1.77 1.53h.76c.99 0 1.77-.7 1.77-1.53v-.74c0-.83-.78-1.53-1.77-1.53h-.76Zm1 3c-.14.29-.35.5-.62.5s-.48-.21-.62-.5a2.53 2.53 0 0 1-.23-1.1c0-.43.09-.82.23-1.1.14-.29.35-.5.62-.5s.48.21.62.5c.14.28.23.67.23 1.1 0 .43-.09.82-.23 1.1Zm4-3c-.99 0-1.77.7-1.77 1.53v.74c0 .83.78 1.53 1.77 1.53h.76c.99 0 1.77-.7 1.77-1.53v-.74c0-.83-.78-1.53-1.77-1.53h-.76Zm1 3c-.14.29-.35.5-.62.5s-.48-.21-.62-.5a2.53 2.53 0 0 1-.23-1.1c0-.43.09-.82.23-1.1.14-.29.35-.5.62-.5s.48.21.62.5c.14.28.23.67.23 1.1 0 .43-.09.82-.23 1.1ZM16.5 24.5c0 .27-.34.5-.75.5s-.75-.23-.75-.5c0-.28.34-.5.75-.5s.75.22.75.5ZM4 24h1.5v4.32c0 .54.56.98 1.08.98h.43a1 1 0 0 0 .99-.98V24h.5v4.17c0 1.01-.79 1.83-1.76 1.83h-.98A1.8 1.8 0 0 1 4 28.17V24Zm29.5 3.63c0-.9.84-1.63 1.87-1.63h.76c1.03 0 1.87.73 1.87 1.63v.74c0 .9-.84 1.63-1.87 1.63h-.76c-1.03 0-1.87-.73-1.87-1.63v-.74Zm3 .37c0 .83-.34 1.5-.75 1.5S35 28.83 35 28s.34-1.5.75-1.5.75.67.75 1.5Zm3.87-2c-1.03 0-1.87.73-1.87 1.63v.74c0 .9.84 1.63 1.87 1.63h.76c1.03 0 1.87-.73 1.87-1.63v-.74c0-.9-.84-1.63-1.87-1.63h-.76Zm.38 3.5c.41 0 .75-.67.75-1.5s-.34-1.5-.75-1.5-.75.67-.75 1.5.34 1.5.75 1.5Zm4.75-2.87c.28 0 .5.17.5.38v2.03c0 .2-.22.38-.5.38s-.5-.17-.5-.38V27c0-.2.22-.38.5-.38Z" fill="#fff"/><defs><linearGradient id="ac3vvksxt" x1="28" y1="0" x2="28" y2="56" gradientUnits="userSpaceOnUse"><stop stop-color="#03BEAC"/><stop offset="1" stop-color="#78A1FA"/></linearGradient><linearGradient id="bc3vvksxt" x1="38.31" y1="30.02" x2="38.31" y2="23.27" gradientUnits="userSpaceOnUse"><stop stop-color="#570000"/><stop offset="1" stop-color="#B40000"/></linearGradient></defs></svg>