<svg xmlns="http://www.w3.org/2000/svg" width="56" height="56"><path fill="#ED3237" d="M0 0h56v56H0z"/><path d="M11 26.27c.4-3.75 5.54-8.16 9.42-9.8-6.99 4.8-7.68 7.51-7.52 7.9.16.4.95.45 1.53.38 7.84-.97 15.08-5.66 17.75-7.7L31.63 16c1 .16 5.41.38 7.5.47a25.35 25.35 0 01-4 6.65l-.63-1.22c-4.05 2.93-14.66 6.77-19.39 6.7-3.78-.05-4.18-1.57-4.1-2.33zm5 5.4c-2.28 0-3.88-.81-4.4-1.22.55 5.29 5.62 5.86 8.58 5.83 8.91-.09 18.95-6.57 22.85-9.8l.54 1.06a33.35 33.35 0 003.43-7.6c-2.71.6-6.08.53-7.43.43l.87 1.31c-10.6 8.49-21.05 9.98-24.44 9.98zm-.76 6.64c2.4.76 8.9 1.52 15.66-1.55l-.56-1.23c1.28.18 4.74.52 8.27.37-.32.88-1.63 3.16-4.26 5.31l-.57-.9c-4.15 1.64-13.68 3.53-18.54-2z" fill="#fff"/></svg>