<svg width="56" height="56" viewBox="0 0 56 56" xmlns="http://www.w3.org/2000/svg"><path fill="#364E7C" d="M0 0h56v56H0z"/><ellipse cx="28" cy="28" rx="20.66" ry="10.48" fill="#7B6535"/><path fill-rule="evenodd" d="M28 39c11.6 0 21-4.92 21-11s-9.4-11-21-11S7 21.92 7 28s9.4 11 21 11Zm0-1c11.05 0 20-4.48 20-10s-8.95-10-20-10S8 22.48 8 28s8.95 10 20 10Z" fill="#fff"/><path fill-rule="evenodd" d="M14 24v5.53A2.53 2.53 0 0 0 16.59 32h1.25c1.43 0 2.66-1.1 2.66-2.47V24H19v5.12c0 .84-.9 1.38-1.78 1.38s-1.72-.54-1.72-1.38V24H14Zm7.36 0h1.81l2.14 5.83L27.26 24H29l-2.84 8h-1.84l-2.96-8Zm6.95 8h1.86l.68-2h2.85l.7 2h1.8l-2.94-8h-1.9l-3.05 8Zm4.86-3.5-.93-2.65-.89 2.65h1.82ZM37.5 24v8H43v-1.5h-4V24h-1.5Z" fill="#fff"/></svg>