<svg width="56" height="56" viewBox="0 0 56 56" xmlns="http://www.w3.org/2000/svg"><path fill="#F0F3FA" d="M0 0h56v56H0z"/><path d="M43.5 21.58a4.98 4.98 0 0 0-2.45-.58c-2.42 0-4.8 1.6-5.91 2.53-.43-1.6-1.62-2.53-3.78-2.53-2.17 0-4.31 1.29-5.53 2.23l.34-2.23h-4.45l-2.03 9.72a2.39 2.39 0 0 1-2.32 1.91 2.4 2.4 0 0 1-2.35-2.8L16.4 21h-3.9c2.69-5.84 8.65-10 15.5-10 7.08 0 12.94 4.43 15.5 10.58Z" fill="url(#a01tol2oz)"/><path d="M43.06 36h-4.33l1.63-9.37c-.02-.76-.52-2.29-2.38-2.29-.97 0-1.92.8-2.7 1.76l-.07.53c-.38 2.77-1.22 7.4-1.6 9.37h-4.57l1.63-9.37c-.02-.76-.53-2.29-2.38-2.29-1.07 0-2.13.98-2.96 2.08l-.68 4.4A6.06 6.06 0 0 1 18.7 36h-3.92a5.4 5.4 0 0 1-2.07-.47A16.91 16.91 0 0 0 28 45a16.9 16.9 0 0 0 15.06-9Z" fill="url(#b01tol2oz)"/><defs><linearGradient id="a01tol2oz" x1="28.02" y1="11.1" x2="28.02" y2="45.1" gradientUnits="userSpaceOnUse"><stop offset=".2" stop-color="#EE3B33"/><stop offset="1" stop-color="#FFCF11"/></linearGradient><linearGradient id="b01tol2oz" x1="28.02" y1="11.1" x2="28.02" y2="45.1" gradientUnits="userSpaceOnUse"><stop offset=".2" stop-color="#EE3B33"/><stop offset="1" stop-color="#FFCF11"/></linearGradient></defs></svg>