<svg width="56" height="56" viewBox="0 0 56 56" xmlns="http://www.w3.org/2000/svg"><path fill="#061E40" d="M0 0h56v56H0z"/><path d="M45 13v5.56c-.05 0-.08-.01-.07-.05h.01c.03.15.01.28-.06.4l-.04-2.8v-2.94A.56.56 0 0 0 45 13Z" fill="#46515D"/><path d="M44.85 13.17v2.94c-.07.11-.16.15-.27.1a.13.13 0 0 1-.09-.1.33.33 0 0 0-.1-.17.22.22 0 0 0-.17-.07.22.22 0 0 0-.17.09c-.46.59-.95 1.1-1.46 1.54-.32.28-.6.55-.83.81-.26.3-.55.57-.87.8-.16.13-.3.26-.43.39-.2.21-.55.5-1.04.84-.37.27-.65.49-.82.64a42.73 42.73 0 0 1-2.06 1.73c-.57.34-1.27.82-2.1 1.46-.1.07-.34.21-.74.42-.86.4-1.71.82-2.55 1.26l-.97.47c-.6.29-1.28.5-2.02.64l2.6-1.16a26.73 26.73 0 0 0 4.2-2.94c2.67-2.27 5.2-4.69 7.57-7.27l2.32-2.42Z" fill="#E2E9EC"/><path d="m44.84 16.11.04 2.8c.02.28-.01.46-.09.52l-9.21 5.43-.63-.32c-.07.03-.11 0-.11-.1 0-.07-.03-.09-.1-.07-.3.09-.62.21-.92.38a.1.1 0 0 1-.1 0 .1.1 0 0 1-.05-.07c0-.02 0-.05.03-.09.4-.2.65-.35.75-.42.82-.64 1.52-1.12 2.09-1.46.08-.05.19-.13.32-.25l.16-.13c.54-.44 1.07-.9 1.58-1.35.17-.15.45-.37.82-.64.49-.35.84-.63 1.04-.84.12-.13.27-.26.43-.38.32-.24.6-.51.87-.8.23-.27.51-.54.83-.82.51-.44 1-.95 1.46-1.54.05-.06.1-.09.17-.09s.13.02.18.07c.05.04.08.1.1.17 0 .05.03.09.08.1.11.05.2.01.26-.1Z" fill="#BBC0BE"/><path d="M44.8 19.43c.05.53.06 1.1.02 1.73-.02.33-.11.59-.27.77a.17.17 0 0 0-.04.13c.03.21 0 .43-.08.66a4.7 4.7 0 0 1-.31.65c-.2.37-.32.87-.33 1.5l-.06 3.74c0 .06-.03.1-.09.1l-1.9.09c.14-.05.15-.15.03-.3a.21.21 0 0 1-.04-.16c.14-1.2.19-2.39.14-3.58-.02-.4-.15-.84-.38-1.33a.22.22 0 0 1-.01-.18c.03-.1.03-.2-.02-.29-.05-.1-.08-.24-.1-.4l-.01-.42v-.1a.17.17 0 0 0-.09-.15.17.17 0 0 0-.17-.02c-.18.1-.27.26-.24.5.03.35.03.65 0 .92l-1.58.56a.26.26 0 0 0-.18.19 5.3 5.3 0 0 0-.12.54c-.03.17-.1.4-.2.7l-.15.47a2 2 0 0 0-.07.48l-.03 2.18c0 .2-.1.3-.3.3h-.88c-.2 0-.29-.1-.28-.29l.06-1.78c.19.17.28.03.26-.4 0-.2-.17-.72-.5-1.56a.2.2 0 0 0-.2-.13c-.05 0-.08.02-.09.07a.9.9 0 0 0 .06.46c-.22 0-.42.06-.6.16l-.47-.38 9.21-5.43Z" fill="#7E9797"/><path d="m17.41 19.76 3.03 2.64.01.04c0 .01 0 .02-.02.03l-.37.25c-.02.02-.04.01-.05 0l-2.65-2.09a.04.04 0 0 1-.02-.03l-.01-.8c0-.02 0-.04.03-.05l.05.01ZM13.87 22.28l3.06-2.46a.1.1 0 0 1 .12 0 .1.1 0 0 1 .06.1l-.02.65a.1.1 0 0 1-.04.09l-3.1 2.23a.1.1 0 0 1-.13 0 .1.1 0 0 1-.05-.1l.06-.44a.1.1 0 0 1 .04-.07ZM17.02 21.76l-3.08 1.87a.1.1 0 0 1-.14-.02c-.04-.03-.05-.08-.03-.13l.08-.18a.1.1 0 0 1 .04-.05l3.05-2.15a.1.1 0 0 1 .12 0 .1.1 0 0 1 .06.1l-.05.48a.1.1 0 0 1-.05.08ZM17.35 21.7l-.03-.57c0-.03.01-.05.04-.07a.07.07 0 0 1 .07 0l2.34 1.77a.07.07 0 0 1 0 .12l-.23.15a.07.07 0 0 1-.07 0l-2.1-1.35a.07.07 0 0 1-.02-.06Z" fill="#fff"/><path d="M41.75 28.8c-.17 0-.25-.05-.25-.15a82.3 82.3 0 0 0 0-3.03 4.35 4.35 0 0 0-.65-2.33c.03-.27.02-.57 0-.92-.03-.24.06-.4.24-.5a.17.17 0 0 1 .17.02c.06.03.09.08.09.15v.1l.01.42c.02.16.05.3.1.4.05.1.05.19.02.29a.22.22 0 0 0 0 .18c.24.5.37.94.39 1.33.05 1.2 0 2.39-.14 3.58 0 .05 0 .1.04.15.12.16.1.26-.02.3Z" fill="#BBC0BE"/><path d="m17.03 22.83-3.1 1.5a.08.08 0 0 1-.08 0 .08.08 0 0 1-.04-.07l.02-.26c0-.03.01-.05.04-.07l3.11-1.8a.07.07 0 0 1 .08 0c.03.01.04.04.04.07l-.02.56c0 .04-.02.06-.05.07ZM17.43 22.85a.16.16 0 0 1-.1-.15v-.55c0-.06.02-.07.07-.04.54.32 1.1.67 1.7 1.06.14.1.25.23.31.4l.02.1c0 .15-.07.2-.21.12l-1.8-.94Z" fill="#fff"/><path d="m24.58 26.65 3 .59c.6.2.6.55.04 1.05-.5-.08-.95-.12-1.35-.13-2.52-.03-5.02.16-7.5.58-2.18.37-4.16.84-5.94 1.41l-1.72.55c-.08.02-.11 0-.11-.08.02-1.02.02-2.33 0-3.94 0-.18.09-.28.27-.29.07 0 .15 0 .22-.02 2.63-.37 5.25-.46 7.86-.27.06 0 .1-.02.14-.08.07-.12.15-.19.26-.22a5.97 5.97 0 0 1 1.5-.3c.24 0 .34.1.31.33 0 .06-.03.1-.08.13a.17.17 0 0 1-.16.02l-.15-.07a.18.18 0 0 0-.14 0c-.23.1-.49.17-.76.19a.11.11 0 0 0-.07.03c-.04.04-.03.06.03.06.42-.01.83.02 1.23.1.1.02.14-.02.14-.1l.01-.89c0-.09-.04-.12-.13-.1-.1 0-.2 0-.3-.06a.16.16 0 0 0-.16 0c-.25.1-.5.2-.72.26-.35.1-.6.14-.78.1a.1.1 0 0 0-.1.02.52.52 0 0 1-.4.1c-.58-.07-1.1-.16-1.57-.25a.15.15 0 0 1-.09-.05.14.14 0 0 1-.03-.1v-.5c0-.08.04-.1.12-.08.57.19 1.14.36 1.7.5.1.03.17.08.23.16.03.05.06.06.11.03.45-.24.94-.44 1.49-.58.24-.06.43 0 .58.16.05.07.07.06.07-.03l-.03-.41a.08.08 0 0 0-.04-.06.08.08 0 0 0-.07-.01.29.29 0 0 1-.3-.06c-.04-.03-.08-.03-.12-.01-.4.21-.84.4-1.32.56a.22.22 0 0 1-.14 0l-2.11-.74a.22.22 0 0 1-.16-.22v-.5c-.01-.08.03-.1.11-.07l1.85.89c.05.02.07.05.07.1l.01.3c0 .07.04.09.1.05.37-.2.74-.4 1.1-.57.46-.23.78-.23.97 0 .04.05.07.04.07-.02 0-.13 0-.26-.03-.4-.01-.05-.05-.07-.1-.06a.24.24 0 0 1-.25-.11c-.03-.05-.08-.06-.13-.03l-1.42.81c-.09.05-.16.04-.21-.05l-.03-.05c-.03-.04-.02-.07.02-.1.4-.29.82-.58 1.28-.88a.6.6 0 0 1 .43-.1c.16.03.28.1.37.24.04.07.07.06.08-.02a.88.88 0 0 0-.03-.34.17.17 0 0 0-.13-.13.72.72 0 0 1-.32-.18c-.04-.04-.08-.03-.11.01a.66.66 0 0 1-.18.2l-1.16.75a.13.13 0 0 1-.13 0 .13.13 0 0 1-.08-.1v-.11c-.01-.09.02-.16.1-.2l1.36-.9a.28.28 0 0 1 .2-.05c.06 0 .12.03.17.08l.19.2a.4.4 0 0 0 .14.1c.21.08.37.22.47.41.02.06.07.1.13.12.17.06.25.17.24.34 0 .1-.05.13-.14.11-.14-.02-.22-.11-.26-.26-.01-.07-.03-.07-.05 0-.03.15-.02.3.03.47.01.04.04.06.09.06l.15.01a.1.1 0 0 1 .1.08c.03.07.04.14.03.22 0 .07-.04.1-.11.06l-.22-.1c-.04-.03-.06-.02-.06.03v.22c0 .06.03.1.09.1l.13.02c.04.01.07.03.1.06a.3.3 0 0 1 .06.24c0 .05-.03.07-.08.05l-.23-.1c-.04 0-.07 0-.08.05a.4.4 0 0 0 0 .25c0 .02.02.04.05.06.02.01.05.02.08.01.08-.02.15 0 .22.05.03.04.05.08.05.13 0 .07-.02.12-.07.15a.12.12 0 0 1-.15 0l-.1-.06c-.04-.03-.07-.02-.08.04 0 .07 0 .14.03.2.02.07.06.1.13.12l.14.03c.05 0 .08.04.1.08.01.07 0 .12-.04.17a.1.1 0 0 1-.1.05.58.58 0 0 1-.2-.08c-.05-.02-.08 0-.08.04v.09c0 .06.02.09.08.1l2.48.34Z" fill="#fff"/><path d="M12.24 24.2c.03-.1.1-.17.22-.19.11 0 .22-.03.33-.08.05-.02.1-.01.16.02l.72.43c.06.03.08.09.05.16-.04.11-.12.16-.23.12-.25-.07-.5-.18-.74-.33-.05-.03-.1-.02-.13.02-.1.09-.22.1-.33.04-.04-.03-.07-.01-.08.04-.02.17-.03.34-.02.5.01.06.03.06.06 0 .03-.09.1-.14.18-.15.46-.1.88 0 1.25.33.04.03.06.08.05.13 0 .06-.04.1-.1.13a.23.23 0 0 1-.15 0c-.26-.07-.5-.16-.73-.27a.15.15 0 0 0-.14 0 .74.74 0 0 1-.32.1c-.07 0-.1.03-.1.1v.33c0 .06.03.07.08.04.2-.1.4-.15.59-.15.11 0 .28.04.5.1l.3.1c.06 0 .1-.01.12-.06.08-.15.2-.24.38-.28.97-.23 1.91-.47 2.83-.73.06-.02.1 0 .1.07v.5c0 .04 0 .07-.02.1a.14.14 0 0 1-.09.04c-.96.17-1.92.31-2.9.44a.97.97 0 0 1-.24 0c-.04-.01-.08 0-.12.03a.53.53 0 0 1-.33.14c-.08 0-.21 0-.4-.03a1.46 1.46 0 0 0-.54 0c-.31.08-.64.15-.99.2-.06.01-.08-.01-.08-.07l.02-.16.03-.06a.1.1 0 0 1 .07-.02l.15.01c.07 0 .12-.03.14-.1a.53.53 0 0 0 0-.27c-.01-.04-.04-.05-.08-.02a.36.36 0 0 1-.24.1c-.06 0-.1-.04-.1-.1-.02-.1.01-.17.08-.22a.14.14 0 0 1 .12-.02l.11.02c.07.02.1 0 .1-.08v-.23c0-.09-.05-.11-.13-.06-.07.04-.13.05-.2.02-.07-.02-.1-.07-.08-.15l.02-.07c.02-.07.06-.1.14-.07l.15.05c.06.03.09 0 .09-.06l.01-.32c0-.1-.02-.11-.1-.03a.31.31 0 0 1-.14.1c-.08.02-.13-.01-.16-.09-.02-.09 0-.16.05-.22.04-.05.1-.07.16-.05a.2.2 0 0 0 .1 0c.05-.02.08-.05.08-.1l.04-.6-.01-.02h-.04c-.02.27-.11.43-.29.46-.06.02-.1 0-.1-.07a.51.51 0 0 1 .2-.48l.9-.72c.09-.07.18-.1.3-.1.1 0 .2.02.28.09l.58.43c.1.09.13.19.06.3l-.05.1c-.04.06-.1.08-.17.02l-.75-.55a.11.11 0 0 0-.12-.02.27.27 0 0 0-.08.06.36.36 0 0 1-.1.07c-.2.09-.28.24-.25.46.03.31.05.61.04.9 0 .1 0 .11.03 0Z" fill="#fff"/><path d="M12.62 23.5a.7.7 0 0 1-.22.17c-.08.04-.12.02-.12-.07l-.02-.19c0-.09.03-.15.11-.2.21-.1.45-.09.7.04.16.08.36.23.6.44.05.04.06.08.04.14-.04.1-.11.12-.21.1-.29-.1-.54-.25-.75-.44-.05-.04-.09-.04-.13 0ZM17 24.1l-3.07 1.03a.1.1 0 0 1-.1-.02.1.1 0 0 1-.04-.1l.03-.23a.1.1 0 0 1 .07-.09l3.07-1.31a.1.1 0 0 1 .1 0 .1.1 0 0 1 .05.1l-.03.52a.1.1 0 0 1-.07.1Z" fill="#fff"/><path d="M34.95 24.54c-.05.2-.08.36-.08.5l-.03 3.65c-1.86.03-3.73.03-5.63 0-.2 0-.49-.03-.85-.08a.27.27 0 0 1-.14-.06c-.23-.2-.43-.28-.6-.26.57-.5.55-.85-.04-1.05.27.06.46-.04.58-.28a8.33 8.33 0 0 0 2.02-.64c.5-.23.82-.4.97-.47.84-.44 1.69-.86 2.55-1.26-.03.05-.04.07-.03.09 0 .03.02.06.06.07a.1.1 0 0 0 .1 0c.3-.17.6-.3.92-.38.06-.02.09 0 .09.07 0 .1.04.13.11.1Z" fill="#D0D4D3"/><path d="m35.58 24.86.48.38a6.65 6.65 0 0 0-.28 1.4c-.03.63-.08 1.24-.13 1.83-.01.14-.1.22-.24.22h-.57l.03-3.65c0-.14.03-.3.08-.5l.63.32Z" fill="#46515D"/><path d="M37.12 26.64a3.23 3.23 0 0 0-.47-1.56.91.91 0 0 1-.06-.46c0-.05.04-.08.1-.07.09 0 .15.04.19.13.33.84.5 1.35.5 1.55.02.44-.07.58-.26.41Z" fill="#BBC0BE"/><path d="m30.77 25.8-2.6 1.16c-.13.24-.32.34-.6.28l-3-.59a4.11 4.11 0 0 1 6.19-.85Z" fill="#FBC410"/><path d="m18.74 27.55-2.76.28c-.02 0-.04 0-.06-.02a.08.08 0 0 1-.03-.06v-.64c0-.05.03-.07.08-.07l2.78-.1c.02 0 .04 0 .06.02l.02.06-.02.46c0 .05-.03.07-.07.07ZM22.64 27.05l-2.63-.07a.04.04 0 0 0-.04.04l-.01.39c0 .02.02.04.04.04l2.63.07c.02 0 .04-.02.04-.04l.01-.4a.04.04 0 0 0-.04-.03ZM11.82 27.57l2.89-.4c.03 0 .05.01.05.05l.02.72c0 .02 0 .04-.04.05l-2.96.55-.04-.01a.05.05 0 0 1-.02-.04l.06-.87c0-.03.01-.04.04-.05ZM23.8 27.24c0-.03.02-.04.05-.04l.52.04c.37.03.68.07.93.12.26.05.39.09.38.12v.09c0 .03-.14.05-.4.05s-.57 0-.94-.04l-.52-.04c-.03 0-.05-.02-.04-.05l.02-.25Z" fill="#061E40"/><path d="M15 31v7.5h2.64a.49.49 0 0 1 .76 0h2.08a.49.49 0 0 1 .76 0H23V31h-2.5v6.5h-3V31H15Zm7.88 8h-1.56a.49.49 0 0 1-.9 0h-1.94a.49.49 0 0 1-.9 0h-2.46c.24.59.81 1 1.49 1h4.78c.68 0 1.25-.41 1.5-1Zm1.12.2a.5.5 0 0 0 .16-.2h2.4a.49.49 0 0 0 .9 0h.22c.04.26.16.46.3.46.15 0 .27-.2.3-.46h.23a.49.49 0 0 0 .9 0h2.52c-.18.58-.73 1-1.37 1H24v-.8Zm8-.7h-2.66a.49.49 0 0 0-.76 0h-.32c-.04-.17-.12-.29-.22-.32.33-.02.59-.15.59-.32s-.3-.32-.65-.32c-.35 0-.64.15-.64.32s.26.3.59.32c-.1.03-.18.15-.22.32h-.32a.49.49 0 0 0-.76 0h-2.55a.5.5 0 0 0-.08-.08v-.9h5.5v-.98h-4.06c-.8 0-1.44-.64-1.44-1.43v-2.68c0-.8.65-1.43 1.44-1.43h6.07v2.46H26.5v.88h4.06c.8 0 1.44.64 1.44 1.43v2.73Zm1 .5v1h2.5v-1h-.23a.49.49 0 0 1-.9 0H33Zm2.5-.5h-.3a.49.49 0 0 0-.76 0H33V31h2.5v3.49h.83L38.72 31h3.17l-3.17 4.4 2.2 3.1h-2.88a.49.49 0 0 0-.49-.17l-1.22-1.76h-.83v1.93Zm2.57.58.65.92H42l-.72-1h-3.17a.5.5 0 0 1-.04.08Z" fill="#F7C705"/></svg>