<svg xmlns="http://www.w3.org/2000/svg" width="56" height="56" viewBox="0 0 56 56"><path fill="#F0F3FA" d="M0 0h56v56H0z"/><path fill="#F68121" d="M6 21h18v15H6z"/><path fill="#064EA3" d="M22 21h28v15H22z"/><path d="M37.34 25l.05-1 3.48-1-.1 2H42l-.17 3h-1.2l-.1 2.07s0 .93.69.91c.49 0 .78-.2.78-.2l-.44 2.92s-1.07.3-2.1.3c-1.41 0-2.46-.83-2.46-2.27l.2-3.73H36l.16-3h1.18zM47 23h-3.44l-.1 2h3.44l.1-2zm-4 11l.4-8h3.45l-.4 8H43zm-17.67-9h3.64s-.24 4.36-.24 4.63c0 .39.16 1.37 1.05 1.37.9 0 1.33-.68 1.36-1.23.13-2.2.25-4.77.25-4.77H35l-.43 9h-3.79l.05-1c-.97.48-2.17 1-3.27 1-1.5 0-2.56-.84-2.56-2.4 0-.5.33-6.6.33-6.6z" fill="#fff"/><path d="M14.55 27s.75-1.07.75-1.7c-.01-1-.64-1.72-1.3-2.3 0 0-1.3 1.1-1.31 2.3 0 .74.8 1.7.8 1.7h1.06zm.84.3l2.46-3s-.58-.09-1.15.13-1.02.72-1.02.72.03.57 0 .93c-.06.6-.29 1.22-.29 1.22zm3.61-.84l-2.87.84s.93-1.3 1.19-1.41c.95-.41 1.68.57 1.68.57zm-2.21 1.04l2.21.73-1-1.13-1.21.4zm-6.64-3.2l2.46 3s-.23-.61-.29-1.22c-.03-.36 0-.93 0-.93s-.45-.5-1.02-.72c-.57-.22-1.15-.12-1.15-.12zm1.72 3L9 26.46s.73-.98 1.68-.57a8.73 8.73 0 0 1 1.19 1.4zM9 28.23l2.21-.73-1.2-.4L9 28.23zM17.7 30h-7.4l2.2-1v-1h3v1l2.2 1zm-7.4 2h7.4l-1.1 1h-5.2l-1.1-1zm1.5-4.58h4.4l.3.58h-5l.3-.58zm0 6.08h4.4l-.5.5h-3.4l-.5-.5zm-.53-2.5l.53-.54.53.54-.53.55-.53-.55zm2.02-.54l-.53.54.53.55.53-.55-.53-.54zm4.52 0l-.53.54.53.55.19-.21v-.67l-.2-.21zm-7.07.54l-.53-.54-.2.2v.68l.2.2.53-.54zm.25-.13l.4-.41h-.8l.4.41zm.4.68l-.4-.42-.4.42h.8zm1.15-.68l.4-.41h-.8l.4.41zm.4.68l-.4-.42-.4.42h.8zm1.11-.68l.4-.41h-.8l.4.41zm.4.68l-.4-.42-.4.42h.8zm.95-.68l.4-.41H15l.4.41zm.4.68l-.4-.42-.4.42h.8zm1.18-.68l.4-.41h-.8l.4.41zm.4.68l-.4-.42-.4.42h.8zM15.68 31l.53-.54.53.54-.53.55-.53-.55zm-.96-.54l-.53.54.53.55.53-.55-.53-.54z" fill="#064EA3"/></svg>