<svg width="56" height="56" viewBox="0 0 56 56" xmlns="http://www.w3.org/2000/svg"><path fill="#F0F3FA" d="M0 0h56v56H0z"/><path d="M30.19 23.17c4.75.67 9.37 3.02 10.38 8.18.41 2.12.3 4.33-.33 6.63-.1.34-.03.38.19.1 4.88-6.08 4.78-14.91-.42-20.65a15.78 15.78 0 0 0-13.55-5.37c-.86.06-1.77.27-2.65.47l-.22.06c-.38.08-.37.15.01.2 3.35.5 5.44 2.42 5.58 5.93.03.82-.04 1.56-.23 2.24-.3 1.07-.04 2.03 1.24 2.21Zm-4.98 4.16c-1.35.05-2.38-.96-2-2.34.1-.36.44-.57.76-.78.14-.09.28-.18.4-.28.3-.26.51-.58.63-.97.67-2.21.64-5.39-1.84-6.6-2.33-1.13-4.94-.42-6.92 1.13a9.1 9.1 0 0 0-2.44 3.15A16.02 16.02 0 0 0 27.78 44c6.55.2 7.99-5.86 7.37-11.04-.63-5.36-5.66-5.8-9.94-5.63Z" fill="#5D12A2"/></svg>