<svg width="56" height="56" viewBox="0 0 56 56" xmlns="http://www.w3.org/2000/svg"><path fill="#F0F3FA" d="M0 0h56v56H0z"/><path fill-rule="evenodd" d="M12.86 21.98c0-3.05-1.8-5.26-2.7-5.98H48v25H13.4C11.6 41 8 39.91 8 35.57c0-2.96 1.44-5.6 2.76-8 1.1-2.01 2.1-3.86 2.1-5.6ZM38 27v-9h3l1 5.5 1-5.5h3v9h-2v-5.99L43 27h-2l-1-5.99V27h-2Zm-5.2-9L31 27h2l.33-2h1.4l.32 2H37l-1.78-9H32.8Zm1.73 6h-1.01l.5-3.6.51 3.6ZM33 38l1.8-9h2.42L39 38h-1.95l-.32-2h-1.4L35 38h-2Zm2.52-3h1.01l-.5-3.6-.51 3.6ZM28 19.5V27h2v-7.5h1.5V18h-5v1.5H28ZM22 27v-7.5h-1.5V18h5v1.5H24V27h-2Zm-7-2.88c0 1.7.67 2.88 2.5 2.88 1.82 0 2.5-1.18 2.5-2.88V18h-2v6.42c0 .46 0 1.08-.5 1.08s-.5-.62-.5-1.08V18h-2v6.12ZM17.62 38c-.57 0-1.05-.1-1.43-.3a1.9 1.9 0 0 1-.86-.89c-.2-.4-.3-.94-.33-1.59l1.72-.25c0 .38.04.68.1.91.07.23.16.4.27.5.12.1.26.15.43.15.2 0 .34-.07.4-.2.07-.14.1-.29.1-.44 0-.36-.09-.66-.27-.9-.18-.26-.42-.5-.73-.76l-.78-.66c-.35-.28-.64-.6-.88-.95a2.4 2.4 0 0 1-.35-1.33c0-.74.23-1.3.69-1.7.45-.4 1.08-.59 1.86-.59.49 0 .88.08 1.17.24.3.16.52.37.67.62.16.26.27.53.32.81.06.29.1.56.1.81l-1.73.21c0-.26-.03-.48-.06-.67a.85.85 0 0 0-.15-.44c-.09-.11-.21-.16-.39-.16a.45.45 0 0 0-.41.22.94.94 0 0 0-.12.46c0 .32.07.59.23.8.17.2.38.41.64.63l.75.64c.4.32.73.7 1 1.1.28.41.42.92.42 1.53a2.1 2.1 0 0 1-1.12 1.91c-.36.2-.78.29-1.26.29ZM21 35.12c0 1.7.67 2.88 2.5 2.88 1.82 0 2.5-1.18 2.5-2.88V29h-2v6.42c0 .46 0 1.08-.5 1.08s-.5-.62-.5-1.08V29h-2v6.12ZM29.3 38c-1.77 0-2.3-1.47-2.3-3.03v-2.93c0-1.69.67-3.04 2.53-3.04 1.6 0 2.46.99 2.46 2.56v.48H30v-.63c0-.45 0-1.05-.45-1.05-.55 0-.55.62-.55 1.08v4.05c0 .48 0 1.01.5 1.01s.5-.52.5-1V34h-.43v-1H32v5h-1l-.5-1c-.26.56-.58 1-1.2 1ZM40 29v9h2v-4h.74l1.06 4H46l-1.32-4.36c.95-.42 1.18-1.3 1.18-2.26 0-1.9-1.57-2.38-3.2-2.38H40Zm2.74 4H42L42 30h.82c.76 0 1.06.84 1.06 1.56 0 .77-.33 1.44-1.14 1.44Z" fill="#00B0EF"/><path fill-rule="evenodd" d="M14 21a8.18 8.18 0 0 0-2.83-6H48v25H14.42C12.62 40 9 39.35 9 35c0-2.54 1.1-4.23 2.26-6.03C12.6 26.92 14 24.74 14 21Zm24 6v-9h3l1 5.5 1-5.5h3v9h-2v-5.99L43 27h-2l-1-5.99V27h-2Zm-5.2-9L31 27h2l.33-2h1.4l.32 2H37l-1.78-9H32.8Zm1.73 6h-1.01l.5-3.6.51 3.6ZM33 38l1.8-9h2.42L39 38h-1.95l-.32-2h-1.4L35 38h-2Zm2.52-3h1.01l-.5-3.6-.51 3.6ZM28 19.5V27h2v-7.5h1.5V18h-5v1.5H28ZM22 27v-7.5h-1.5V18h5v1.5H24V27h-2Zm-7-2.88c0 1.7.67 2.88 2.5 2.88 1.82 0 2.5-1.18 2.5-2.88V18h-2v6.42c0 .46 0 1.08-.5 1.08s-.5-.62-.5-1.08V18h-2v6.12ZM17.62 38c-.57 0-1.05-.1-1.43-.3a1.9 1.9 0 0 1-.86-.89c-.2-.4-.3-.94-.33-1.59l1.72-.25c0 .38.04.68.1.91.07.23.16.4.27.5.12.1.26.15.43.15.2 0 .34-.07.4-.2.07-.14.1-.29.1-.44 0-.36-.09-.66-.27-.9-.18-.26-.42-.5-.73-.76l-.78-.66c-.35-.28-.64-.6-.88-.95a2.4 2.4 0 0 1-.35-1.33c0-.74.23-1.3.69-1.7.45-.4 1.08-.59 1.86-.59.49 0 .88.08 1.17.24.3.16.52.37.67.62.16.26.27.53.32.81.06.29.1.56.1.81l-1.73.21c0-.26-.03-.48-.06-.67a.85.85 0 0 0-.15-.44c-.09-.11-.21-.16-.39-.16a.45.45 0 0 0-.41.22.94.94 0 0 0-.12.46c0 .32.07.59.23.8.17.2.38.41.64.63l.75.64c.4.32.73.7 1 1.1.28.41.42.92.42 1.53a2.1 2.1 0 0 1-1.12 1.91c-.36.2-.78.29-1.26.29ZM21 35.12c0 1.7.67 2.88 2.5 2.88 1.82 0 2.5-1.18 2.5-2.88V29h-2v6.42c0 .46 0 1.08-.5 1.08s-.5-.62-.5-1.08V29h-2v6.12ZM29.3 38c-1.77 0-2.3-1.47-2.3-3.03v-2.93c0-1.69.67-3.04 2.53-3.04 1.6 0 2.46.99 2.46 2.56v.48H30v-.63c0-.45 0-1.05-.45-1.05-.55 0-.55.62-.55 1.08v4.05c0 .48 0 1.01.5 1.01s.5-.52.5-1V34h-.43v-1H32v5h-1l-.5-1c-.26.56-.58 1-1.2 1ZM40 29v9h2v-4h.74l1.06 4H46l-1.32-4.36c.95-.42 1.18-1.3 1.18-2.26 0-1.9-1.57-2.38-3.2-2.38H40Zm2.74 4H42L42 30h.82c.76 0 1.06.84 1.06 1.56 0 .77-.33 1.44-1.14 1.44Z" fill="#35346E"/></svg>