<svg width="56" height="56" viewBox="0 0 56 56" xmlns="http://www.w3.org/2000/svg"><path fill="#E4000F" d="M0 0h56v56H0z"/><path fill-rule="evenodd" d="M28 12c-3.87 0-7 2.74-7 6.13V20h-7v20h28V20h-7v-1.87c0-3.39-3.13-6.13-7-6.13Zm5 6.55V20H23v-1.45c0-2.51 2.24-4.55 5-4.55s5 2.04 5 4.55ZM24.92 35.1c-.17.54-.64.9-1.17.9h-.54c-.52 0-1-.36-1.16-.9l-3-9.51c-.2-.64.14-1.34.75-1.53h.02c.3-.1.62-.05.89.13.2.14.35.35.43.6l2.36 7.52 2.4-7.5c.05-.14.12-.27.2-.38h.01c.23-.29.58-.47.92-.42.65.09 1.13.77.92 1.44l-3.03 9.65ZM35.88 34h-4.32l.02-.04c.13-.26.62-1.22 2.4-1.78 2.28-.73 3.02-2.4 3.02-4.32A4 4 0 0 0 33.06 24c-2.21 0-3.45 1.85-3.73 2.6-.3.75.03 1.6.85 1.6.65 0 1-.5 1.08-.73.08-.38.66-1.47 1.8-1.47 1.65 0 1.83 1.16 1.92 1.73l.02.13c0 1.64-.76 2.02-2.67 2.97l-.56.27c-1.86.94-2.74 2.64-2.77 3.39v.35c0 .64.5 1.16 1.1 1.16h5.78c.62 0 1.12-.35 1.12-1s-.5-1-1.12-1Z" fill="#fff"/></svg>