<svg width="56" height="56" viewBox="0 0 56 56" xmlns="http://www.w3.org/2000/svg"><path fill="#F0F3FA" d="M0 0h56v56H0z"/><path d="m10 22.5 5 2.75v5.5l-5 2.75-5-2.75v-5.5l5-2.75Z" fill="#186AEA"/><path d="M21.76 22.56a.5.5 0 0 1 .48 0l4.5 2.51c.16.09.26.26.26.45v4.96c0 .19-.1.36-.26.45l-4.5 2.5a.5.5 0 0 1-.48 0l-4.5-2.5a.51.51 0 0 1-.26-.45v-4.96c0-.19.1-.36.26-.45l4.5-2.5Z" fill="#1795CF"/><path d="M33.6 22.6a.8.8 0 0 1 .8 0l4.17 2.35c.27.15.43.43.43.74v4.62c0 .3-.16.6-.43.74L34.4 33.4a.8.8 0 0 1-.78 0l-4.18-2.35a.84.84 0 0 1-.43-.74V25.7c0-.3.16-.6.43-.74l4.18-2.35Z" fill="#17C1B6"/><circle cx="46" cy="28" r="5" fill="#2CD68D"/></svg>