<svg width="56" height="56" viewBox="0 0 56 56" xmlns="http://www.w3.org/2000/svg"><path fill="#F0F3FA" d="M0 0h56v56H0z"/><path d="M33.05 33 30 37.87l2.37 4.24c.2.31.5.3.68 0l4.78-8.5c.16-.32.31-.61-.18-.61h-4.6Zm-8.97-2L27 35.28V31h2v4.28L31.82 31h6.13c1.79 0 2.62.8 1.62 2.58L33.78 44H29v2h-2v-2h-4.1l-6.58-10.42c-.5-.8-.63-2.58 1.29-2.58h6.47Zm-.74-2.1c-8.15-5.08-.9-17.88 8.1-13.72 4 1.86 7.79 8.64 1.09 13.73 3.13-6.03-.95-8.9-4.54-8.91-3.17 0-7.48 2.58-4.63 8.9h-.02ZM26 30c-.53-.73-1-1-1-2.2.05-1.55 1.5-2.8 3-2.8 1.55 0 3 1.32 3 2.9 0 1-.4 1.56-1 2.1 12.33-2.03 10.87-20.7-2.83-19.98C16.11 10.86 13.2 27.12 26 30Z" fill="#3C894F"/></svg>