<svg width="56" height="56" viewBox="0 0 56 56" xmlns="http://www.w3.org/2000/svg"><path fill="#F0F3FA" d="M0 0h56v56H0z"/><path d="m21.54 23.47 5.46-3.2V11l-4 2.29v6.46l-5.55-3.3-3.88 2.23 7.97 4.8Zm7.46-3.2 5.36 3.14L42 18.73l-3.63-2.15L33 19.75v-6.37L29 11v9.27Zm6 10.67v-6.3l8-4.7v4.7l-5.37 3.26L43 31.1v4.72l-8-4.88Zm-14-6.3v6.3l-8 4.88V31.1l5.37-3.19L13 24.65v-4.71l8 4.7Zm13-.14L28 21l-6 3.5v7l6 3.5 6-3.5V29h-3v.75l-3 1.75-3-1.75V29h4v-2h-4v-.75l3-1.75 3 1.75V27h3v-2.5Zm-12.23 7.89-8.2 4.93 3.88 2.22L23 36.25v6.46L27 45v-9.7l-5.23-2.91Zm12.16-.06L42 37.27l-3.63 2.15L33 36.25v6.37L29 45v-9.7l4.93-2.97Z" fill="#BC8F32"/></svg>