<svg width="56" height="56" viewBox="0 0 56 56" xmlns="http://www.w3.org/2000/svg"><path fill="#7068A4" d="M0 0h56v56H0z"/><path fill-rule="evenodd" d="m4 23.98 1.61.67L9.4 32l4.75-8.96L51 19l-38.33 2.92-3.08 6.4-.2.74-.16-.73-1.7-3.79-1.55-.56H4ZM16.54 32c.96 0 1.82-.43 2.46-1.12V32h2v-8h-2v1.12A3.33 3.33 0 0 0 16.54 24C14.6 24 13 25.8 13 28s1.59 4 3.54 4Zm.46-1.62c1.4 0 2-1.06 2-2.38 0-1.32-.7-2.39-2-2.39s-2 1.07-2 2.39.6 2.38 2 2.38Zm7.93-1.18L23.06 32h-1.99l2.86-4.3-2.47-3.7h2l1.47 2.2L26.4 24h2.01l-2.48 3.7L28.8 32h-2l-1.87-2.8ZM43.06 32 45 29.2l1.94 2.8H49l-2.97-4.3L48.6 24h-2.08L45 26.2 43.48 24H41.4l2.57 3.7L41 32h2.06ZM32 22h-2v2h-1v1.5h1V32h2v-6.5h1.5V24H32v-2Zm9.5 6c0 .17-.01.34-.03.5h-5.92c.19 1.14 1 2 1.98 2 .81 0 1.51-.6 1.83-1.46l1.7.79A4 4 0 1 1 41.5 28Zm-2.13-1c-.3-.88-1.02-1.5-1.84-1.5-.83 0-1.54.62-1.85 1.5h3.7Z" fill="#fff"/></svg>