<svg width="56" height="56" viewBox="0 0 56 56" xmlns="http://www.w3.org/2000/svg"><path fill="#F0F3FA" d="M0 0h56v56H0z"/><path d="M18.59 22c2.73 0 5 1.92 5.4 4.61a.73.73 0 0 1-.7.83h-5.57a.72.72 0 0 1-.72-.72c0-.4.32-.72.72-.72h4.63a3.86 3.86 0 0 0-3.76-2.56c-2.46 0-4.16 1.78-4.16 4.23s1.8 3.89 4.16 3.89c1.1 0 2.3-.7 3.18-1.3a.71.71 0 0 1 1 .22c.21.33.12.77-.21 1-1.14.74-2.59 1.52-3.97 1.52-3.14 0-5.59-2.1-5.59-5.33A5.48 5.48 0 0 1 18.59 22ZM12.5 22.04c.4.13.6.54.46.91L9.2 32.53a.75.75 0 0 1-.7.47.75.75 0 0 1-.71-.46l-3.74-9.57a.7.7 0 0 1 .43-.92c.4-.14.83.04.98.4l3 7.79 3.08-7.77a.76.76 0 0 1 .96-.43ZM41 25.16c0-1.74 1.5-3.16 3.33-3.16h6.9c.42 0 .77.33.77.74 0 .4-.35.73-.77.73h-6.9c-.98 0-1.78.76-1.78 1.7 0 .93.8 1.83 1.78 1.83h4.43c1.79 0 3.24 1.23 3.24 2.93 0 1.7-1.45 3.07-3.24 3.07h-6.99a.76.76 0 0 1-.77-.74c0-.4.35-.73.77-.73h7c.92 0 1.68-.72 1.68-1.6 0-.89-.76-1.46-1.69-1.46h-4.43a3.37 3.37 0 0 1-3.33-3.3ZM29.19 22A4.13 4.13 0 0 0 25 26.07v6.2c0 .4.34.73.75.73s.75-.33.75-.73v-6.2c0-1.44 1.2-2.61 2.69-2.61 1.48 0 2.81 1.17 2.81 2.61v5.98A3.9 3.9 0 0 0 35.94 36 4 4 0 0 0 40 32.05v-6.32c0-.4-.34-.73-.75-.73a.74.74 0 0 0-.75.73v6.32c0 1.38-1.15 2.5-2.56 2.5a2.42 2.42 0 0 1-2.44-2.5v-5.98c0-2.25-2-4.07-4.31-4.07Z" fill="#353D8E"/></svg>