<svg width="56" height="56" viewBox="0 0 56 56" xmlns="http://www.w3.org/2000/svg"><path fill="#F0F3FA" d="M0 0h56v56H0z"/><path d="m35.81 14.04-.4 1.41-1.78 5.4-2.47.02a.78.78 0 0 0-.74.55 1892 1892 0 0 0-2.24 7.53.33.33 0 0 1-.08.14c-.1.1-.17.08-.2-.05L25.8 21.3c-.06-.24-.21-.39-.45-.43a.54.54 0 0 0-.61.4 7.04 7.04 0 0 1-.85 2.13.19.19 0 0 1-.35-.06c-.14-.59-.25-1.18-.33-1.79a1.5 1.5 0 0 0-.4-.72l-1.51-5.74c.07-.07.08-.22.05-.46a8.08 8.08 0 0 0-.21-1.1 16 16 0 0 1 14.66.5Z" fill="#DA3834"/><path d="M21.15 13.54c.05.15.12.52.2 1.1.04.24.03.39-.04.46a.57.57 0 0 0-.27.06c-7.3 4.39-9.63 12.76-5.53 20.32.06.12.14.22.24.3.11.1.2.08.24-.06l5.93-14.51c.12-.3.43-.42.9-.37.24.27.37.51.4.72.08.6.2 1.2.33 1.8a.19.19 0 0 0 .35.05c.4-.65.67-1.35.85-2.12a.54.54 0 0 1 .61-.4c.24.03.39.18.45.42l2.09 7.73c.03.13.1.15.2.05a.33.33 0 0 0 .08-.14c.7-2.39 1.45-4.9 2.24-7.53a.78.78 0 0 1 .74-.55l2.47-.02 6.14 15.35a.15.15 0 0 0 .12.1.15.15 0 0 0 .14-.07c4.67-7.39 2.67-16.1-4.61-20.78l.4-1.41a16 16 0 1 1-14.67-.5Z" fill="#4C4D4F"/></svg>