<svg xmlns="http://www.w3.org/2000/svg" width="56" height="56" viewBox="0 0 56 56"><path fill="#F0F3FA" d="M0 0h56v56H0z"/><path d="M13 35h30v9H13v-9Zm.63.65h28.74v7.7H13.63v-7.7Z" fill="#393185"/><path fill-rule="evenodd" d="M28 10c7.48 0 13.54 6.15 13.54 13.73S35.48 37.45 28 37.45a13.63 13.63 0 0 1-13.54-13.72C14.46 16.15 20.52 10 28 10Zm0 .64a13 13 0 0 1 12.9 13.09A13 13 0 0 1 28 36.8a13 13 0 0 1-12.9-13.08A13 13 0 0 1 28 10.64Z" fill="#393185"/><path d="M24 12.07h8v.45h-8v-.45ZM24 12.8h8v.45h-8v-.45ZM24 13.53h8v.45h-8v-.45ZM24 14.25h8v.45h-8v-.45ZM24 14.98h8v.45h-8v-.45ZM24 15.71h8v.45h-8v-.45ZM24 16.44h8v.45h-8v-.45ZM24 17.17h8v.45h-8v-.45ZM24 17.9h8v.45h-8v-.45ZM24 18.63h8v.45h-8v-.45ZM24 19.36h8v.45h-8v-.45ZM17 20.08h22v.45H17v-.45ZM17 20.81h22v.45H17v-.45ZM17 21.54h22V22H17v-.45ZM17 22.27h22v.45H17v-.45ZM17 23h22v.45H17V23ZM17 23.73h22v.45H17v-.45ZM17 24.46h22v.45H17v-.45ZM17 25.18h22v.46H17v-.46ZM17 25.91h22v.45H17v-.45ZM24 26.64h8v.45h-8v-.45ZM24 27.37h8v.45h-8v-.45ZM24 28.1h8v.45h-8v-.45ZM24 28.83h8v.45h-8v-.45ZM24 29.56h8V30h-8v-.45ZM24 30.29h8v.45h-8v-.45ZM24 31.01h8v.45h-8v-.45ZM24 31.74h8v.45h-8v-.45ZM24 32.47h8v.45h-8v-.45ZM24 33.2h8v.45h-8v-.45ZM24 33.93h8v.45h-8v-.45Z" fill="#E31E24"/><path d="M13.5 35.5h29v8h-29v-8Z" fill="#F0F3FA"/><path d="m16.94 41.92-.9-4.65h1.56l.56 4.08.57-4.08h1.57l-.92 4.65h-2.44Zm5.54 0h-1.52v-4.65h1.52v4.65Zm1.99-1.7V41c0 .07.01.12.04.14.03.03.1.04.18.04.09 0 .14-.01.17-.04.03-.02.05-.07.05-.14v-3.72h1.53v3.49c0 .47-.12.8-.36.97-.25.17-.69.25-1.33.25-.61 0-1.04-.07-1.27-.22-.24-.14-.36-.42-.36-.82v-.72h1.35Zm4.42-.21h.69l-.34-2.2-.35 2.2Zm-1.84 1.91.97-4.65h2.43l1 4.65H29.9l-.18-1.14h-.96l-.18 1.14h-1.52Zm5.7 0v-1.5l-1.35-3.15h1.54l.63 2.1.6-2.1h1.43l-1.32 3.15v1.5h-1.52Zm4.65-1.91h.7l-.34-2.2-.36 2.2Zm-1.84 1.91.98-4.65h2.43l1 4.65H38.4l-.18-1.14h-.96l-.18 1.14h-1.53Z" fill="#393185"/></svg>