<svg width="56" height="56" xmlns="http://www.w3.org/2000/svg"><path fill="#F0F3FA" d="M0 0h56v56H0z"/><path d="M19.858 10.802l.912-1.511 6.405 7.334-.915 1.508-6.402-7.331zm-.935 1.547l-.934 1.547 6.397 7.324.937-1.543-6.4-7.328zm-2.777 4.598l.909-1.504 6.394 7.322-.912 1.5-6.39-7.318zm-1.788 2.961l6.287 7.475.955-1.573-6.388-7.315-.854 1.413z" fill="#F58323"/><path d="M46 30.265c0 6.222-5.17 11.266-11.546 11.266-1.97 0-3.826-.482-5.45-1.332l2.771-6.23a4.706 4.706 0 002.68.829c2.565 0 4.644-2.03 4.644-4.533 0-2.503-2.08-4.532-4.645-4.532-1.593 0-3 .783-3.836 1.977l-5.008 8.65L22.102 43 10 27.474l3.501-5.73 6.5 7.418.968 1.242 3.665-6.095C26.672 21.117 30.316 19 34.454 19 40.831 19 46 24.044 46 30.265z" fill="#5D7C38"/></svg>