<svg width="56" height="56" viewBox="0 0 56 56" xmlns="http://www.w3.org/2000/svg"><path fill="#F0F3FA" d="M0 0h56v56H0z"/><path d="M17.51 36.04c3.2-1.77 6.23.11 7.35 1.27-1.34-2.2-5.51-4.42-8.35-3.06-2.27 1.09-3.61.85-4 .6a13.7 13.7 0 0 1 10-.6c-1.88-2.64-6-4.25-8.75-2.38-2.2 1.5-5.43 1.3-6.76 1.02a7.6 7.6 0 0 0 10.51 3.15Z" fill="url(#anj2ufysd)"/><path d="M29.11 24.82c-5.14 3.47-4.98 9.72-4.25 12.4-2-3.05-1.95-10.03 1.41-13.84 2.7-3.05 3.02-5.69 2.84-6.63a21.22 21.22 0 0 1-4.25 6.63c-2.4 2.51-2.62 7.33-2.42 9.43-3.34-6.88-2.09-11.56 2.42-16.06 3.6-3.6 4.33-7.33 4.25-8.75 2.09 1.44 6.43 12.49 0 16.82Z" fill="url(#bnj2ufysd)"/><path d="m44 33.6-18.51.82.03.3 18.19 1.2c.18-.74.29-1.51.29-2.31Zm-.35 2.53-17.74.38.12.36 16.84 1.2c.33-.6.6-1.26.78-1.94Zm-.95 2.25-15.59.58.24.33 14 .88c.51-.53.97-1.14 1.35-1.79Zm-1.85 2.27-11.35.71a9.12 9.12 0 0 0 11.35-.71ZM44 33.39l-18.47-1.1.04-.3 18.11-.9c.2.73.3 1.5.32 2.3Zm-.35-2.42a9.48 9.48 0 0 0-.83-2.02l-16.62.86-.1.24 17.55.92Zm-16.2-3.28 15.32 1.16a9.45 9.45 0 0 0-2.06-2.51l-12.96.98-.3.37Zm2.13-2c2.6.14 7.63.38 11 .54a9.14 9.14 0 0 0-11-.54Z" fill="url(#cnj2ufysd)"/><defs><linearGradient id="anj2ufysd" x1="7.92" y1="34.19" x2="23.53" y2="35.89" gradientUnits="userSpaceOnUse"><stop stop-color="#82B735"/><stop offset="1" stop-color="#387830"/></linearGradient><linearGradient id="bnj2ufysd" x1="26.52" y1="8" x2="26.52" y2="37.23" gradientUnits="userSpaceOnUse"><stop stop-color="#85B93B"/><stop offset="1" stop-color="#2F702E"/></linearGradient><linearGradient id="cnj2ufysd" x1="38.63" y1="26.47" x2="28.71" y2="38.4" gradientUnits="userSpaceOnUse"><stop stop-color="#D18330"/><stop offset="1" stop-color="#D44D3A"/></linearGradient></defs></svg>