<svg width="56" height="56" viewBox="0 0 56 56" xmlns="http://www.w3.org/2000/svg"><path fill="#F0F3FA" d="M0 0h56v56H0z"/><ellipse cx="28" cy="31" rx="15" ry="14" fill="#56C3BD"/><path d="M21.35 13.06h-5.23a.71.71 0 0 0-.67 1L25.5 36.93a2.2 2.2 0 0 0 4.02 0l9.95-22.9a.71.71 0 0 0-.67-.98h-5.1c-.15 0-.28.1-.34.23l-5.5 14c-.12.3-.56.3-.68 0l-5.5-14a.36.36 0 0 0-.33-.23Z" fill="#fff"/><path d="M14.45 14.47A1.78 1.78 0 0 1 16.12 12h5.23c.6 0 1.14.36 1.36.91l4.8 12.27 4.83-12.27c.22-.55.76-.91 1.36-.91h5.1c1.3 0 2.18 1.3 1.67 2.46l-9.95 22.89a3.31 3.31 0 0 1-6.02 0L14.45 14.48Zm2.22-.47 9.83 22.52a1.1 1.1 0 0 0 2.01 0L38.25 14H34.2l-5.32 13.67c-.48 1.21-2.24 1.21-2.72 0L20.85 14h-4.18Z"/></svg>