<svg width="56" height="56" viewBox="0 0 56 56" xmlns="http://www.w3.org/2000/svg"><path fill="#F0F3FA" d="M0 0h56v56H0z"/><path d="M49 30v-5h1v4.24h2V30h-3ZM40 30v-5h3.53v.76H41V27h2.35v.76H41v1.48h2.55V30H40ZM44.54 30v-5h3.54v.76h-2.54V27h2.36v.76h-2.36v1.48h2.56V30h-3.56ZM35.49 25.76V25h4.01v.76H38V30h-1v-4.24h-1.51ZM34.02 26.4a.64.64 0 0 0-.3-.48c-.17-.12-.4-.17-.68-.17-.2 0-.37.02-.5.08a.75.75 0 0 0-.33.22c-.08.1-.11.2-.12.33 0 .1.03.19.08.26.05.08.12.14.2.2.1.04.19.09.3.12l.31.09.49.11c.2.04.38.1.57.18.18.07.34.16.49.27a1.14 1.14 0 0 1 .47.95c0 .29-.08.54-.23.75-.16.22-.39.39-.68.51-.3.12-.65.18-1.07.18-.4 0-.75-.06-1.05-.18-.3-.11-.53-.28-.7-.5-.17-.23-.26-.5-.27-.83h.93a.7.7 0 0 0 .17.42c.1.12.22.2.38.25.16.06.34.09.54.09s.38-.03.53-.09a.88.88 0 0 0 .37-.24c.09-.1.13-.23.14-.37a.45.45 0 0 0-.12-.3.88.88 0 0 0-.33-.22l-.49-.15-.6-.14c-.42-.1-.76-.26-1.01-.47a1.04 1.04 0 0 1-.37-.84c0-.28.08-.53.25-.75.16-.21.4-.38.68-.5.29-.12.62-.18.98-.18.37 0 .7.06.97.18.28.12.5.28.66.5.16.2.24.45.25.72h-.91Z" fill="#E26E38"/><path d="M6.57 30 4 25h2.57l1.18 2.05L8.93 25h2.5l-2.5 5H6.57ZM25.12 25l-2.56 5h2.56l1.19-2.05L27.49 30h2.49l-2.49-5h-2.37ZM12 25h2v5h-2zM18.54 25c2.36 0 3.16 1.01 3.27 1.52h-2.34c-.05-.17-.3-.5-.93-.5-.78 0-1.98.75.57.93 2.04.15 2.77.95 2.88 1.34.07.51-.48 1.58-3.24 1.7-2.76.13-3.65-1.08-3.75-1.7h2.37c.05.2.36.6 1.17.65 1.02.06 1.92-.75-.33-.96-2.25-.22-3-.93-3-1.46 0-.53.39-1.52 3.33-1.52Z" fill="#3A7ACA"/></svg>