<svg width="56" height="56" viewBox="0 0 56 56" xmlns="http://www.w3.org/2000/svg"><path fill="#F0F3FA" d="M0 0h56v56H0z"/><path d="M8 34.97c0-2.17 3.49-4.88 5.23-5.97-2.03 2.3-2.41 3.67-2.41 4.88s1.7 2.35 5.2 2.35 7.64-.83 9.98-1.26C22.47 36.43 16.76 38 13.23 38 9.7 38 8 36.86 8 34.97ZM48 21.03c0 2.17-3.49 4.88-5.23 5.97 2.03-2.3 2.41-3.67 2.41-4.88s-1.7-2.35-5.2-2.35-7.64.83-9.98 1.26C33.53 19.57 39.24 18 42.77 18 46.3 18 48 19.14 48 21.03Z" fill="#F30626"/><path d="m42.8 28.79.2.04-.7 2.17H36v-.22c.88 0 1-.3 1-1.2v-5.16c0-.92-.12-1.2-1-1.2V23h3v.22c-1.05-.01-1 .3-1 1.33v5.03c0 .3-.02.72.32.85.1.04.41.06.93.06h.92c.75 0 1.47-.03 2-.61.22-.23.42-.6.63-1.1ZM30.4 23v2.65h-.25c-.08-.51-.22-.92-.43-1.22a2.52 2.52 0 0 0-2.06-.98c-.67 0-1.66.38-1.66 1.17 0 .96 1.65 1.47 2.31 1.77 1.07.49 2.69 1.07 2.69 2.48 0 1.46-1.6 2.13-2.84 2.13-.87 0-1.66-.43-2.5-.43a.4.4 0 0 0-.27.08c-.07.06-.11.17-.14.35H25v-2.62h.25c.11.55.27.96.46 1.23.49.68 1.51.95 2.3.95.75 0 1.99-.35 1.99-1.25 0-1.03-1.64-1.49-2.36-1.82C26.62 26.99 25 26.38 25 25c0-1.35 1.48-2.01 2.64-2.01.72 0 1.37.44 2.05.44.12 0 .21-.03.28-.08.08-.06.14-.18.18-.36h.25ZM22 23v.21c-.3.05-.53.14-.68.27-.22.19-.42.48-.6.86L17.77 31h-.23l-3.18-6.74a3.62 3.62 0 0 0-.35-.64c-.2-.23-.48-.37-1-.4V23h3.47v.21c-.33.03-.94.07-.94.53 0 .2.1.5.29.9l2.16 4.58 2-4.52c.2-.45.3-.76.3-.93 0-.23-.22-.46-.8-.54l-.1-.02V23H22Z" fill="#F30626"/></svg>