<svg width="56" height="56" viewBox="0 0 56 56" xmlns="http://www.w3.org/2000/svg"><path fill="#F0F3FA" d="M0 0h56v56H0z"/><path d="m32.25 23.16-.2.2A851.78 851.78 0 0 1 28 27.4L17.96 17.36a4.96 4.96 0 0 1-.55-.63c-.3-.43-.47-.9-.5-1.4a2.9 2.9 0 0 1 .95-2.53 3.03 3.03 0 0 1 3.33-.5c.46.21.82.57 1.2.95a5642.62 5642.62 0 0 0 9.86 9.87v.04Z" fill="#002D3F"/><path d="m38.69 13.38.12.2c.12.29.2.5.24.66.09.35.1.76.05 1.2a2.78 2.78 0 0 1-.64 1.5l-.51.54a1402.68 1402.68 0 0 1-5.07 5.04h-.03a620.32 620.32 0 0 1-4.22-4.21c-.02-.03-.02-.06 0-.09l.1-.11 5-5c.18-.19.37-.35.55-.5.37-.29.8-.48 1.25-.56a3.3 3.3 0 0 1 1.53.09c.64.2 1.25.68 1.63 1.24ZM22.53 23.13l-.02.05-4.23 4.23h-.02l-.32-.31a6512.43 6512.43 0 0 0-5.24-5.27 2.93 2.93 0 0 1-.7-1.98c.01-.76.26-1.42.76-1.98a3.03 3.03 0 0 1 4.1-.37c.14.1.33.28.57.52a7263.21 7263.21 0 0 0 5.1 5.11Z" fill="#09BABA"/><path d="m33.11 32.04-.2.2v.05l-.02-.01-.43-.42a1282.9 1282.9 0 0 0-3.84-3.87l10.08-10.1c.39-.39.84-.72 1.38-.88.2-.06.42-.1.66-.12 1.25-.09 2.2.49 2.92 1.5l.03.08a.1.1 0 0 0 0 .04l.12.31.02.03c.02.04.01.07.02.11l.08.27.05.3.02.3a3.42 3.42 0 0 1-.45 1.66c-.03.06-.08.1-.1.15a.62.62 0 0 1-.09.1l-.1.14-9.63 9.64-.52.52ZM24.14 31.29l-.1.1a3405.25 3405.25 0 0 0-6.98 6.95l-.2.18-.44.28a2.98 2.98 0 0 1-.84.28l-.23.04-.63-.01c-.27 0-.52-.06-.75-.16a1.95 1.95 0 0 0-.28-.1.64.64 0 0 1-.2-.09 3.27 3.27 0 0 1-1.41-2A2.95 2.95 0 0 1 12 36c.04-.79.33-1.46.9-2.03a16068.3 16068.3 0 0 1 10.23-10.2 20978.68 20978.68 0 0 1 4.29 4.3v.02l-.04-.01v-.01a.03.03 0 0 0-.03 0 475427.51 475427.51 0 0 0-3.22 3.22ZM38.52 42.78c-.01.02-.02.05-.04.06-.1.12-.22.23-.34.34-.14.15-.27.25-.37.32a3.07 3.07 0 0 1-1.19.46c-.07 0-.13.03-.2.03a4.53 4.53 0 0 1-.95-.05 1.94 1.94 0 0 1-.26-.07 6.27 6.27 0 0 0-.42-.15l-.17-.07a.68.68 0 0 1-.2-.12 7557.67 7557.67 0 0 0-10.64-10.66v-.04l.3-.3a5477.52 5477.52 0 0 1 3.93-3.92H28l10.14 10.15a5.47 5.47 0 0 1 .71.91v.06a3.7 3.7 0 0 1 .24 1.1v.44a2.74 2.74 0 0 1-.56 1.51Z" fill="#002D3F"/><path d="M39.6 38.83a.67.67 0 0 0-.2-.1 4.5 4.5 0 0 1-.6-.53 51769.65 51769.65 0 0 0-5.3-5.3.07.07 0 0 1 .01-.09 1869.03 1869.03 0 0 1 4.24-4.2 2817.23 2817.23 0 0 0 5.63 5.65 2.89 2.89 0 0 1 .6 1.53 3.14 3.14 0 0 1-.65 2.25c-.11.15-.24.28-.37.4a3.02 3.02 0 0 1-1.93.71c-.19 0-.36-.03-.55-.05l-.2-.03a4.19 4.19 0 0 1-.68-.24ZM18.38 43.63l-.14-.08a3.03 3.03 0 0 1-.5-4.7 22627.2 22627.2 0 0 1 5.4-5.35l4.25 4.24a.01.01 0 0 1 0 .02l-5.27 5.28a2.86 2.86 0 0 1-1.87.95h-.65c-.14 0-.28-.03-.43-.05a3 3 0 0 1-.79-.3Z" fill="#09BABA"/></svg>