<svg xmlns="http://www.w3.org/2000/svg" width="56" height="56"><path fill="#ED1B24" d="M0 0h56v56H0z"/><path d="M26.32 14.44V13H19.3l.04 1.41c.43.03.94 0 1.34.17.2.09.46.35.59.6A4779.03 4779.03 0 0126.95 31h2.2c0-.01 3.11-8.54 4.66-12.75l.72-2.02c.4-1.17.94-1.72 2.16-1.88V13h-6.94v1.27c.59.06 1.81-.05 1.95.68.08.43-.11 1.06-1.66 5.56-.66 1.9-1.24 3.84-1.98 5.72-.7-1.75-1.27-3.56-1.86-5.34l-1.02-3c-.5-1.5-.92-2.8-.92-2.92 0-.86 1.48-.57 2.06-.53zm.12 22.51l-1.2-3.4c-.22-.65-.25-.7-.44-.7-.2 0-.22.05-.6 1.16-2 5.97-2.01 6-2.53 6-.22 0-.23.02-.23.31v.3l2.4-.03v-.27c0-.26-.01-.27-.32-.31-.47-.06-.58-.19-.53-.6.02-.2.11-.55.2-.79l.17-.44h1.04l1.2-.03c.12 0 .19.12.39.68.14.38.24.8.23.92-.02.22-.03.23-.42.25-.44.02-.52.1-.44.43l.05.2h2.74v-.31c0-.3 0-.3-.27-.3-.2 0-.3-.05-.38-.19-.07-.1-.55-1.4-1.06-2.88zm-2.87.57l.48-1.45c.28-.83.5-1.35.53-1.28.08.14.98 2.64.98 2.72 0 .08-1.99.09-1.99 0zm-5.64-1.07c-.03-.03-.34-.82-.69-1.75l-.63-1.7H14.5v.27c0 .26 0 .26.33.26.18 0 .37.04.42.1.07.06.09.85.09 3.07v.28c0 2.32 0 2.83-.24 3a.74.74 0 01-.25.08l-.04.01c-.23.06-.27.1-.27.3v.22l2.25.04v-.26c0-.23-.03-.27-.22-.3a.68.68 0 01-.36-.26c-.14-.2-.15-.4-.16-2.92-.01-1.49 0-2.67.02-2.63l.74 1.9.7 1.83h.67l.63-1.75.67-1.87c.02-.06.03 1.17.03 2.75l-.02 2.86-.34.03c-.33.04-.34.05-.37.33l-.02.28h2.53v-.6l-.73-.04-.02-3.08c-.01-2.03 0-3.12.06-3.22.06-.11.16-.15.42-.15.34 0 .34 0 .34-.26V33h-2.1l-.64 1.76c-.35.97-.66 1.73-.7 1.7zm16.34-1.62c0-.8-.45-1.46-1.16-1.71-.27-.1-.74-.12-2.5-.12h-2.17l.03.25c.02.23.04.25.33.27.16 0 .38.03.47.05l.18.04-.04 6.37-.92.07v.54l3.16.04V40h-.44c-.24 0-.48-.04-.53-.09-.07-.06-.1-.5-.1-1.52v-1.44h.52c1.05 0 1.32.35 1.5 1.95.06.55.16 1.12.22 1.28.16.36.52.59.97.59.68 0 1.08-.5 1.19-1.43l.05-.48h-.23c-.22 0-.23.02-.28.4-.06.45-.16.67-.3.67-.21 0-.34-.23-.47-.82-.35-1.63-.5-1.95-1.02-2.2l-.3-.16.43-.14c.98-.3 1.42-.87 1.41-1.79zm-3.68.2c0-.92.02-1.34.09-1.4a3.97 3.97 0 011.76 0c.38.17.58.44.67.91.13.72-.1 1.4-.56 1.63-.32.17-1.09.28-1.56.22l-.4-.05v-1.31zm10.86-.44c-.03-.77-.06-1.44-.08-1.5-.02-.07-.68-.09-2.96-.09h-2.93l-.04.48c-.03.26-.07.93-.09 1.49l-.05 1.01.21-.02c.2-.02.22-.05.36-.75.24-1.28.62-1.75 1.38-1.75.22 0 .44.04.49.09.14.14.13 6.26 0 6.37-.06.05-.31.1-.56.1l-.46.03v.54h3.36v-.54l-.46-.02c-.25-.01-.5-.06-.55-.1-.14-.12-.14-6.24 0-6.38.12-.12.69-.12 1 .01.47.2.73.73.92 1.83.08.51.1.55.3.57l.21.02-.05-1.4z" fill="#fff"/></svg>