<svg width="56" height="56" xmlns="http://www.w3.org/2000/svg"><path fill="#096BD3" d="M0 0h56v56H0z"/><path d="M13.032 24l-6.27 9H4l.05-9H6v7l4.505-7h2.527zm4.136 0c1.256 0 2.117.356 2.573 1.066.452.706.586 1.583.39 2.62a7.813 7.813 0 01-.419 1.367 7.068 7.068 0 01-.932 1.59 6.156 6.156 0 01-1.476 1.397c-.568.382-1.096.637-1.578.766a5.748 5.748 0 01-1.492.191c-1.183 0-2.042-.313-2.585-.945-.543-.629-.707-1.51-.496-2.644a7.185 7.185 0 01.575-1.739 7.602 7.602 0 011.034-1.596 6.01 6.01 0 011.436-1.253c.539-.34 1.045-.56 1.526-.666A6.79 6.79 0 0117.168 24zm-2.404 7.017c.495 0 .946-.197 1.363-.589a4.645 4.645 0 001.032-1.482c.27-.597.425-1.022.475-1.277.103-.556.047-.974-.168-1.262-.211-.285-.528-.427-.945-.427-.468 0-.896.183-1.304.54-.404.357-.744.834-1.027 1.43-.281.593-.46 1.102-.54 1.52-.087.444-.027.811.166 1.104.193.295.507.443.948.443zM27.069 31l-.823 2H19.59L23 24h2.552l-2.698 7h4.215zm9.76-7l-.826 2h-2.681l-2.582 7h-2.566l2.58-7H28.19l.828-2h7.81zM42 33h-2v-7l-4.274 7h-2.747l6.301-9h2.715L42 33zm9.98-6.434l-2.413.135c.09-.758-.24-1.132-.985-1.132-.306 0-.552.067-.74.2a.786.786 0 00-.337.494c-.029.135.015.27.126.396.105.122.384.28.842.477.576.255 1.036.49 1.387.714.344.229.61.522.792.883.178.362.216.808.115 1.345a3.212 3.212 0 01-.668 1.42 4.216 4.216 0 01-1.363 1.08c-.562.28-1.304.422-2.237.422-1.306 0-2.19-.267-2.635-.795-.45-.53-.594-1.21-.437-2.045l.036-.199 2.429-.173c-.104.544-.06.925.13 1.146.184.227.476.34.877.34.405 0 .735-.092.979-.28.246-.188.39-.397.436-.633a.62.62 0 00-.11-.496c-.103-.15-.407-.327-.894-.527-1.129-.46-1.815-.884-2.066-1.268-.244-.392-.321-.857-.218-1.403.094-.496.31-.95.656-1.363.342-.413.787-.73 1.336-.96.545-.227 1.175-.343 1.88-.343 2.234 0 3.261.853 3.082 2.565z" fill="#fff"/></svg>