<svg width="56" height="56" viewBox="0 0 56 56" xmlns="http://www.w3.org/2000/svg"><path fill="#F0F3FA" d="M0 0h56v56H0z"/><path d="M26 18.54C26 17 27.75 14.2 28.62 13c0 .72 1.38 3.31 1.38 5.08 0 1.76-1.38 2.92-2.2 2.92-.81 0-1.8-1.1-1.8-2.46Z" fill="url(#a3rksbmld)"/><path d="M28.83 35.22 28 37.55l-.87-2.44a16.1 16.1 0 0 0-6.19 1.17l.58 1.62c.62-.45 1.52-.9 2.56-.9.55 0 1.12.19 1.66.42.53.22 1.1.53 1.65.82l.04.02c.57.3 1.13.6 1.66.83.55.23 1.03.38 1.45.42 1.16.1 2.4.04 3.38-.04l1.28-3.6c-2.13-.24-4.5-.5-6.37-.65Zm.42-1.17c1.93.1 4.3.37 6.38.62l1.17-3.29a15.82 15.82 0 0 0-1.96-.17h-4.58l-1.01 2.84ZM30.69 30h4.18a21.3 21.3 0 0 1 2.35.22l1.34-3.76a12 12 0 0 0-2.21-.21c-1.81 0-3.59.35-4.54.6L30.7 30Zm1.62-4.55c1.07-.23 2.54-.45 4.04-.45.98 0 1.88.11 2.63.27L40.15 22h-6.6l-1.24 3.45ZM33.9 21h6.6l1.07-3h-6.6l-1.07 3Zm1.42-4h6.61L43 14h-6.6l-1.08 3Zm-1.84 23.72c-.93.06-2.01.09-3.05 0a6.05 6.05 0 0 1-1.82-.51 24 24 0 0 1-1.76-.88h-.01c-.57-.31-1.1-.59-1.58-.8-.5-.21-.88-.32-1.18-.32-.9 0-1.7.52-2.13.9l1.04 2.9 3.84.99h5.83l.82-2.28ZM32.3 44h-5.63l-3.23-.67.96 2.67h7.18l.72-2Zm-11.77-8.85c1.35-.5 3.55-1.03 6.2-1.13l-.91-2.57-6.97-1.01 1.68 4.71Zm-2.14-6 6.97 1-1.23-3.42c-3.07-.82-5.4-.5-6.64-.1l.9 2.51Zm-1.3-3.67c.8-.27 1.92-.48 3.3-.48.97 0 2.06.1 3.26.36l-1.18-3.3c-1.08.43-2.33.68-3.5.8a22.58 22.58 0 0 1-2.77.14l.88 2.48Zm-1.33-3.7c.84.03 1.94 0 3.08-.12 1.15-.13 2.28-.36 3.22-.74l-1.21-3.4a10.7 10.7 0 0 0-2.48 1.36l-.16.12h-3.44l1 2.78Zm-1.44-4.05h3.5a12.16 12.16 0 0 1 2.6-1.4L19.62 14H13l1.33 3.73Z" fill="url(#b3rksbmld)"/><defs><linearGradient id="a3rksbmld" x1="28" y1="13" x2="28" y2="21" gradientUnits="userSpaceOnUse"><stop stop-color="#5E96AF"/><stop offset=".47" stop-color="#143071"/><stop offset="1" stop-color="#468EBF"/></linearGradient><linearGradient id="b3rksbmld" x1="28" y1="14" x2="28" y2="46" gradientUnits="userSpaceOnUse"><stop stop-color="#4FBCE8"/><stop offset=".37" stop-color="#1E4986"/><stop offset=".76" stop-color="#143071"/><stop offset="1" stop-color="#47B4F5"/></linearGradient></defs></svg>