<svg width="56" height="56" viewBox="0 0 56 56" xmlns="http://www.w3.org/2000/svg"><path fill="#F0F3FA" d="M0 0h56v56H0z"/><path fill-rule="evenodd" d="M38 21.14c0 4.78-3.25 8.78-7.63 9.86A3.03 3.03 0 0 0 28 26.12 3.01 3.01 0 0 0 25.63 31 10.12 10.12 0 0 1 18 21.14C18 15.54 22.48 11 28 11s10 4.54 10 10.14Zm-2 1.71a7.81 7.81 0 0 1-3.63 6.58 5 5 0 1 0-8.74 0A7.81 7.81 0 0 1 20 22.85 7.93 7.93 0 0 1 28 15c4.42 0 8 3.52 8 7.85ZM17.24 32H24l3 4v-4h2v4l3-4h6.76c.94 0 1.54.98 1.09 1.8L33.65 45H29v2h-2v-2h-4.15l-6.68-11.17A1.22 1.22 0 0 1 17.24 32Z" fill="#00AE4D"/></svg>