<svg xmlns="http://www.w3.org/2000/svg" width="56" height="56"><path fill="#F0F3FA" d="M0 0h56v56H0z"/><ellipse cx="28" cy="28" rx="13" ry="20" fill="#FAD403"/><path d="M33.7 15.62l.36 1.63h-.51l-.23-.73h-1.59v6h-1.05v-6h-1.64l-.32.73h-.54l.54-1.63h4.98z" fill="#fff"/><path d="M28.64 15.5h5.15l.42 1.86h-.75l-.23-.73h-1.38v6h-1.29v-6h-1.45l-.32.73h-.77l.62-1.86zm.16.23l-.46 1.4h.3l.32-.73h1.83v6h.83v-6h1.78l.23.73h.29l-.32-1.4h-4.8z"/><path d="M30.14 12.37v2.34h-.69c-.06-.53-.49-1.6-1.66-1.6-1.18 0-1.54.9-1.57 1.36 0 .24-.06.62 1.08 1.66 1.42 1.29 3.23 2.68 3.23 4.58s-1.08 3.2-2.74 3.27a5.8 5.8 0 01-3.21-1.02v-1.71h.6c.23 1.46 1.9 1.66 2.41 1.58.52-.07 1.62-.48 1.67-1.82a2.87 2.87 0 00-1.03-2.2c-1.11-.6-3.32-2.26-3.26-4.1.07-2.29 2.08-2.53 2.82-2.51.59.02 1.35.35 1.66.51v-.34h.69z" fill="#fff"/><path d="M26.07 12.49a3.4 3.4 0 011.72-.4c.31 0 .66.1.97.2.22.08.42.17.58.24v-.27h.91v2.57h-.9l-.01-.1a2.03 2.03 0 00-.4-.95 1.4 1.4 0 00-1.15-.56c-.56 0-.91.21-1.13.47a1.5 1.5 0 00-.33.78v.03c0 .12 0 .24.1.45.12.24.38.58.94 1.1l.46.4c.59.52 1.2 1.07 1.7 1.67.64.75 1.12 1.6 1.12 2.6 0 .97-.28 1.8-.78 2.39-.5.6-1.21.95-2.08.99a5.01 5.01 0 01-1.96-.37 6.27 6.27 0 01-1.32-.68l-.05-.03v-1.88h.83l.01.1c.1.68.54 1.06 1.03 1.27a2.6 2.6 0 001.24.21c.25-.03.63-.15.96-.41.32-.26.59-.67.61-1.3a2.68 2.68 0 00-.98-2.1 9.08 9.08 0 01-2.08-1.6c-.7-.74-1.26-1.64-1.23-2.6.04-1.19.58-1.86 1.22-2.22zm.12.2c-.57.32-1.07.92-1.1 2.03-.04.87.48 1.71 1.15 2.43a9.4 9.4 0 002.04 1.56l.02.01c.37.3 1.11 1.17 1.07 2.29a1.9 1.9 0 01-.7 1.47c-.37.3-.8.43-1.06.47-.28.04-.85 0-1.38-.23-.5-.22-1-.64-1.14-1.36h-.4v1.54c.26.17.7.42 1.22.62.57.22 1.23.38 1.87.35.8-.04 1.46-.37 1.92-.91a3.5 3.5 0 00.72-2.25c0-.91-.44-1.7-1.06-2.45-.5-.58-1.1-1.11-1.68-1.63l-.46-.42a4.33 4.33 0 01-1-1.16 1.07 1.07 0 01-.12-.55v-.03A1.63 1.63 0 0127.78 13a1.6 1.6 0 011.35.64c.24.31.37.68.42.96h.48v-2.11h-.46v.41l-.17-.09c-.15-.07-.41-.2-.71-.3a3.5 3.5 0 00-.9-.2 3.17 3.17 0 00-1.6.38z"/><path d="M24.55 14.44H21.9v.66h.76l3.14 6.34 2.75-6.34h.59v-.66h-2.26v.66h.54l-1.62 4.13-1.96-4.25h.71v-.54z" fill="#fff"/><path d="M21.79 14.33h2.88v.77h-.65l1.77 3.83 1.46-3.71h-.49v-.89h2.49v.89h-.63l-2.81 6.5-3.22-6.5h-.8v-.89zm.23.23v.43h.71l3.06 6.18L28.47 15h.55v-.43h-2.03V15h.6l-1.78 4.53-2.15-4.65h.78v-.31h-2.42z"/><path d="M35.22 41c.22-.1.36-.33 0-.74l-.56-.87v-5.92H35V30.4h-.34V28H35v-.65h-.34V26H34v-2.36h.66V22h-.51v-1h.51v-1.62l-1.27-.98-1.07.98V21h.52v1h-.52v1.33l-1.5 1.22v3.51h-1.59v-1.38L28 25.3l-1.27 1.38v1.39H25.3v-3.52l-1.5-1.22V22h-.52v-1h.52v-1.62l-1.08-.98-1.26.98V21h.51v1h-.51v1.65H22V26h-.53v1.35H21V28h.47v2.4H21v3.07h.47v5.92l-.56.87c-.39.48-.22.63 0 .74H26v-4.53l2-1.85 2 1.85V41h5.22z" fill="#747777"/><path d="M21.95 19.56v1.06h1.41v-1.06l-.72-.54-.69.54zm12.23.05v1.06h-1.41v-1.06l.72-.54.69.54zM23.42 24H22.3v2.3h1.12v-.58h1.3v-1.15h-1.3V24zm9.18 0h1.12v2.34H32.6v-.57h-1.3v-1.15h1.3V24zm-9.24-1.87h-1.42v.42h1.42v-.42zm9.41.05h1.42v.41h-1.42v-.41z" fill="#fff"/><path fill="#9D9CA1" d="M21.65 27.49h2.53V28h-2.53z"/><path d="M24 31v-3h8v3h-8z" fill="#393939"/><path fill="#fff" d="M21.65 30.18h2.22v.51h-2.22zm0 9.48h2.27v.8h-2.27z"/><path fill="#C4C4C4" d="M27 40h2v1h-2z"/><path fill="#fff" d="M32.16 39.66h2.27v.8h-2.27zm0-9.48h2.53v.51h-2.53z"/><path fill="#9D9CA1" d="M32.16 27.49h2.53V28h-2.53z"/><path d="M27.2 26.87l.83-.64.7.64v1.15H27.2v-1.15zm-.2 1.54h2v1.21h-2zm-5.1 0h.52v1.55h-.52zM22 35h.52v4H22zm10.5 0h.5v4h-.5zm.21-6.59h.52v1.55h-.52zm-9.79 0h.52v1.55h-.52zM23 35h.5v4H23zm10.5 0h.5v4h-.5zm.22-6.59h.52v1.55h-.52zM24 31h8v2h-8z" fill="#fff"/><path d="M25.1 32.77h.8c.02-.2.03-.43-.02-.62a.57.57 0 00-.12-.26.28.28 0 00-.22-.09.3.3 0 00-.23.1.67.67 0 00-.15.28c-.05.2-.06.42-.06.6zm.04-1.02c.1-.1.23-.17.4-.17a.5.5 0 01.38.16c.1.1.15.22.18.36.07.26.05.58 0 .81l-.02.09h-1.2v-.1c-.02-.2-.02-.51.06-.78a.9.9 0 01.2-.37zm3.55 1.02h.8c.03-.2.03-.43-.02-.62a.57.57 0 00-.12-.26.28.28 0 00-.22-.09.3.3 0 00-.23.1.67.67 0 00-.14.28c-.06.2-.07.42-.07.6zm.04-1.02c.1-.1.23-.17.4-.17a.5.5 0 01.39.16c.09.1.14.22.18.36a2 2 0 01-.01.81l-.02.09h-1.2v-.1c-.02-.2-.01-.51.06-.78a.9.9 0 01.2-.37zm-2.13 1.02h.8c.04-.2.04-.43 0-.62a.57.57 0 00-.13-.26.28.28 0 00-.22-.09.3.3 0 00-.23.1.67.67 0 00-.15.28c-.05.2-.06.42-.06.6zm.05-1.02c.1-.1.23-.17.4-.17a.5.5 0 01.39.16c.09.1.14.22.18.36a2 2 0 01-.01.81l-.02.09h-1.2v-.1c-.02-.2-.01-.51.06-.78a.9.9 0 01.2-.37zm3.55 1.02h.8c.03-.2.03-.43-.02-.62a.57.57 0 00-.12-.26.28.28 0 00-.21-.09.3.3 0 00-.24.1.67.67 0 00-.14.28c-.06.2-.07.42-.07.6zm.04-1.02c.1-.1.24-.17.4-.17a.5.5 0 01.39.16c.09.1.15.22.18.36.06.26.04.58 0 .81l-.03.09h-1.2v-.1c-.01-.2-.01-.51.07-.78a.9.9 0 01.2-.37z"/><circle cx="24.63" cy="34.49" r=".45"/><circle cx="31.43" cy="34.63" r=".45"/><circle cx="24.63" cy="35.78" r=".45"/><circle cx="31.43" cy="35.92" r=".45"/><circle cx="24.63" cy="37.09" r=".45"/><circle cx="31.43" cy="37.23" r=".45"/><circle cx="24.63" cy="38.32" r=".45"/><circle cx="31.43" cy="38.45" r=".45"/><circle cx="24.63" cy="39.69" r=".45"/><circle cx="31.43" cy="39.83" r=".45"/><path d="M26 41l1-.94V36.7l.98-.86 1.02.86v3.38l1 .93v-4.67l-2.02-1.76L26 36.33V41z"/><path d="M28 34.37l-2.43 2.03V34h4.85v2.4l-2.43-2.03z" fill="#fff"/></svg>