<svg width="56" height="56" viewBox="0 0 56 56" xmlns="http://www.w3.org/2000/svg"><path fill="#F0F3FA" d="M0 0h56v56H0z"/><path fill-rule="evenodd" d="m44.3 23.18-.01-.02a17.07 17.07 0 0 0-14.37-12.05h-.09a3.4 3.4 0 0 0-.84-.06 16.69 16.69 0 0 0-3.3.12h-.08a16.87 16.87 0 0 0-10.24 5.47 16.92 16.92 0 0 0-4.33 10.4l-.02.05c-.03.69-.03 1.3 0 1.82l.02.06.01.05a3.62 3.62 0 0 0 .06.74c-.01.14 0 .28.05.43v.22A17.04 17.04 0 0 0 36.7 42.6a17.1 17.1 0 0 0 8.01-11.44c.02-.08.02-.15.02-.22 0-.01 0-.03.02-.05a.38.38 0 0 0 .04-.18c0-.05 0-.1.02-.14a.79.79 0 0 0 .04-.26c0-.07 0-.15.02-.22a.91.91 0 0 0 .03-.35l.01-.04a3.8 3.8 0 0 0 .06-.73 17.03 17.03 0 0 0-.12-3.3c0-.09-.02-.16-.03-.24-.02-.06-.03-.13-.03-.2 0-.05-.02-.1-.04-.13a.1.1 0 0 1-.01-.06c0-.1-.02-.2-.05-.3l-.01-.05v-.04a18.7 18.7 0 0 0-.37-1.48Zm-3.8-5.45a16.17 16.17 0 1 0-24.98 20.53A16.17 16.17 0 0 0 40.5 17.73Z" fill="#002060"/><path fill-rule="evenodd" d="M41.3 33.4a13.4 13.4 0 0 0-3.1-15.05 14.35 14.35 0 0 0-4.64-3 14.75 14.75 0 0 0-15.59 3 13.57 13.57 0 0 0-4.19 9.76c0 3.66 1.5 7.18 4.2 9.77a14.75 14.75 0 0 0 15.59 3c1.72-.7 3.3-1.72 4.63-3a13.79 13.79 0 0 0 3.1-4.48Zm-.78-.33a12.55 12.55 0 0 0-2.92-14.12 13.5 13.5 0 0 0-4.36-2.81 13.91 13.91 0 0 0-14.67 2.8 12.72 12.72 0 0 0-3.95 9.17c0 3.44 1.42 6.74 3.95 9.17a13.91 13.91 0 0 0 14.67 2.81 13.5 13.5 0 0 0 4.36-2.81 12.94 12.94 0 0 0 2.92-4.2Z" fill="#002060"/><path d="M27.64 23.2c-.9-.4-1.7-.77-2.23-1.55a2.9 2.9 0 0 1-.34-2.17c.08-.38.25-.73.5-1.04.93-1.12 2.68-1.2 3.95-1.01.34.05.7.14 1.07.27.02 0 .03.02.03.04v1.92c0 .03 0 .04-.03.02-.59-.44-1.4-.67-2.14-.64-.43.01-1.05.14-1.28.58-.23.45 0 .87.34 1.14.19.15.37.27.55.35 1.27.62 2.85 1.2 2.94 3 .01.37-.01.68-.07.95-.49 2.22-3.22 2.27-4.84 1.94-.36-.08-.7-.2-1.03-.36-.02-.01-.06-.03-.06-.05v-2.05c0-.03.04-.04.06-.02.75.67 1.61.99 2.6.94.37-.02.95-.15 1.16-.54.27-.54 0-.99-.42-1.29-.24-.17-.5-.32-.76-.44Z" fill="red"/><path d="M27 35.55V30c0-.02.02 0 0 0h-2.64c-.02 0 0 .03 0 0v-1.96c0-.03.02-.04.04-.04h7.33c.02 0 .03 0 .03.03V30c0 .02.02 0 0 0H29c-.02 0 0-.02 0 0v5.77c-.01.04 0 .04 0 0 0 .01 0 0 0 0 0 .01 0 0 0 0 2.35-4.37 4.85-8.8 7.2-13.18.15-.28.27-.47.37-.55a.9.9 0 0 1 1.43.48c.07.26.02.5-.1.72l-8.76 16.32c-.27.5-.9.68-1.35.32-.17-.15-.36-.29-.49-.48L17.2 24.11a1.4 1.4 0 0 1-.22-.44c-.2-1.04 1.1-1.6 1.67-.72 2.77 4.2 5.57 8.39 8.35 12.6 0 .02 0 .02 0 0Z" fill="red"/></svg>