<svg xmlns="http://www.w3.org/2000/svg" width="56" height="56"><path fill="#008C45" d="M0 0h56v56H0z"/><path fill-rule="evenodd" d="M28 43a15 15 0 100-30 15 15 0 000 30zm0 1a16 16 0 100-32 16 16 0 000 32zM16.59 20.7a6.44 6.44 0 018.57 2.4l-1.71 1.88-1.62-.9c-3.34 1.25-6.22 5.26-7.24 7.1-.46-5.23.98-9.96 2-10.47zM30.62 33a6.44 6.44 0 008.57 2.4c1.02-.52 2.46-5.25 2-10.49-1.02 1.85-3.9 5.86-7.24 7.12l-1.61-.9L30.62 33zm-1.98-18.8c4 2.64 3.12 6.86 2.11 8.6l-2.44-.54-.01-1.85c-2.74-2.27-7.65-2.79-9.77-2.76 4.33-2.99 9.15-4.08 10.1-3.45zm-3.5 18.47c-1.1 1.69-2.2 5.84 1.64 8.7.91.7 5.8-.13 10.28-2.88-2.11-.09-6.99-.88-9.6-3.3l.09-1.84-2.41-.68zm14.88-11.33c-.25 4.79-4.33 6.18-6.34 6.2l-.78-2.38 1.6-.95c.56-3.52-1.49-8-2.58-9.82 4.77 2.21 8.16 5.81 8.1 6.95zm-17.06 6.94c-2-.17-6.2.84-6.89 5.58-.16 1.13 2.89 5.03 7.43 7.66-.92-1.9-2.54-6.55-1.65-10l1.66-.8-.55-2.44z" fill="#fff"/></svg>