<svg width="56" height="56" viewBox="0 0 56 56" xmlns="http://www.w3.org/2000/svg"><path fill="#F0F3FA" d="M0 0h56v56H0z"/><path fill-rule="evenodd" d="M38 19a5 5 0 0 1 4.37 2.57l4.9 7.8h-.02A5 5 0 0 1 43 37H33a5 5 0 0 1-4.25-7.64l4.82-7.68A5 5 0 0 1 38 19Zm-2 17h4a5 5 0 0 1-.9-7.12 5.01 5.01 0 0 1-2.2 0A4.98 4.98 0 0 1 36 36Zm-3 0a4 4 0 0 1-3.4-6.12h.02l.16-.26A4 4 0 1 1 33 36Zm10 0a4 4 0 0 0 3.4-6.12l-.1-.14A4 4 0 1 0 43 36Zm-5-16a4 4 0 0 1 3.47 2l.02.04a4 4 0 1 1-7.04.12l.1-.16h-.01A4 4 0 0 1 38 20Zm4.98 4.43 1.82 2.9a4.99 4.99 0 0 0-2.9-.21c.6-.75 1-1.68 1.08-2.69Zm-9.96.01c.09 1.01.48 1.93 1.07 2.68a5.02 5.02 0 0 0-2.87.2l1.8-2.88Z" fill="#015DA9"/><path fill="#015DA9" d="M33 30h1v4h-1zM43 30h-1v4h3v-1h-2v-3ZM36.81 26 36 22h.83l.38 2.46h.02l.44-2.46h.66l.44 2.47h.02l.38-2.47H40l-.81 4h-.71L38 23.77H38L37.52 26h-.71Z"/><path d="M16.25 19H34l-6.09 9.4c-.47.78-1.42 2.68-1.42 3.98 0 2.24 1.63 4.01 2.44 4.62H9.79C9.2 36.48 8 35.04 8 33.45c0-2.31.97-4.33 1.45-5.05l6.8-9.4Z" fill="url(#auxvy0q0o)"/><defs><linearGradient id="auxvy0q0o" x1="8.03" y1="32.88" x2="34" y2="32.88" gradientUnits="userSpaceOnUse"><stop stop-color="#015DA9" stop-opacity="0"/><stop offset="1" stop-color="#015DA9"/></linearGradient></defs></svg>