<svg xmlns="http://www.w3.org/2000/svg" width="56" height="56"><path fill="#F0F3FA" d="M0 0h56v56H0z"/><path d="M41.62 36.97c-2.38-9.27-7.67-18.27-14.7-15.58-.71 5.42 1.2 16.31 14.7 15.58z" fill="#4895D1"/><path d="M15.77 14.04C13.64 22.1 14.67 39.82 35.78 46c.99-7.29-1.64-23.88-20.01-31.96z" fill="#A3238F"/><path d="M35.1 36.21c-12.34-2-19.33-14.02-19.33-22.17C31.08 20.6 34 31.94 35.09 36.14l.01.07z" fill="#592D91"/><path d="M15.77 14.04c6.96 0 19.7.08 27.23 12.95-8.33 2.13-14.5.28-27.23-12.95z" fill="#39B54A"/><path d="M15.75 14.04c6.39-.7 19.08 6.85 22.26 13.73-5.87.1-12.37-.54-22.26-13.73z" fill="#008849"/><path d="M15.76 14.04c2.76 8.15 10.96 12.34 15.7 13.05a31.7 31.7 0 00-15.7-13.05z" fill="#413639"/></svg>