<svg width="56" height="56" viewBox="0 0 56 56" xmlns="http://www.w3.org/2000/svg"><path fill="#1CB563" d="M0 0h56v56H0z"/><path fill-rule="evenodd" d="M41 36.26c3.25-2.27 5-5.23 5-8.26 0-3.03-1.75-5.99-5-8.26C37.75 17.47 33.17 16 28 16c-5.16 0-9.75 1.47-13 3.74-3.25 2.27-5 5.23-5 8.26 0 3.03 1.75 5.99 5 8.26C18.26 38.53 22.85 40 28 40c5.17 0 9.75-1.47 13-3.74ZM28 42c11.05 0 20-6.27 20-14s-8.95-14-20-14C16.96 14 8 20.27 8 28s8.96 14 20 14Zm-9.58-7-2.8-14h2.8l1.13 4.03L21.83 21l2.43 4.03L25.27 21h2.8l-3.08 14-3.16-6.5-3.41 6.5ZM28 35l2.8-14 3.4 6.5 3.17-6.5 3.08 14h-2.8l-1.01-4.03L34.2 35l-2.27-4.03L30.8 35H28Z"/></svg>