<svg width="56" height="56" viewBox="0 0 56 56" xmlns="http://www.w3.org/2000/svg"><path fill="#97989A" d="M0 0h56v56H0z"/><path d="M18.29 36.8a3.12 3.12 0 0 1-.71-1.77V28H19v7.26c0 .32.27.65.49.86.44.46 1.1.76 1.74.9a2.79 2.79 0 0 0 3.19-1.5c.07-.15.11-.3.14-.45.02-.12.03-.27.03-.44a7016.8 7016.8 0 0 1-.01-9.66.1.1 0 0 0-.02-.03L12 13.02a510.86 510.86 0 0 1 1.85-.02l.04.03L26 24.23c0-.02 0 0 0 0V34.7c0 .2-.01.37-.03.51a3.83 3.83 0 0 1-1.91 2.67 4.29 4.29 0 0 1-5.77-1.09Z" fill="#fff"/><path d="M28.02 37.5a9.6 9.6 0 0 1-1.41 1.75 6.93 6.93 0 0 1-6.42 1.82 7.56 7.56 0 0 1-4.08-2.68 5.11 5.11 0 0 1-1.1-2.92L15 34.2V28h1.45v6.92c0 1.17.41 2.28 1.21 3.14a5.97 5.97 0 0 0 5.37 1.6 5.55 5.55 0 0 0 4.16-5.4 62535.83 62535.83 0 0 0-.02-10.66L16 13.02c-.01-.01-.01-.02.01-.02h2c.02 0 .03 0 .04.02l9.95 9.4h.03l10.02-9.4a.06.06 0 0 1 .04-.02h1.94v.01l-11.18 10.6a.05.05 0 0 0-.02.03 17463.83 17463.83 0 0 1 .02 11 5.56 5.56 0 0 0 1.6 3.56 5.17 5.17 0 0 0 3.8 1.6 5.79 5.79 0 0 0 4.1-1.81 4.59 4.59 0 0 0 1.15-3.1V28H41v6.52c0 .44-.03.91-.09 1.36a5.46 5.46 0 0 1-1.27 2.77 7.3 7.3 0 0 1-5.07 2.6c-.8.01-1.6-.1-2.37-.33a6.74 6.74 0 0 1-2.42-1.35 9.16 9.16 0 0 1-1.75-2.07h-.01Z" fill="#fff"/><path d="M33.91 13h2.15v.01l-8.04 7.51H28l-7.85-7.5V13h1.98l5.87 5.55 5.9-5.55ZM44 13.02 31.42 24.94l-.01.03-.01.02v9.68c0 .18.01.34.04.45.08.41.3.8.6 1.1.41.42.9.7 1.48.82a3.5 3.5 0 0 0 3-.9c.22-.22.47-.56.47-.89V28h1.45v7.1c0 .14-.02.28-.07.44-.07.29-.2.57-.35.83a4.9 4.9 0 0 1-2.62 2.03c-.4.12-.8.18-1.18.16a4.9 4.9 0 0 1-2.16-.6 3.98 3.98 0 0 1-1.9-2.18c-.06-.18-.1-.35-.12-.51-.02-.14-.05-.3-.05-.51V24.25l12.1-11.22a.09.09 0 0 1 .06-.03h1.83v.01Z" fill="#fff"/><path d="M28.03 41.8a9.65 9.65 0 0 1-6.72 2.17c-2-.15-3.92-.93-5.43-2.3a9.91 9.91 0 0 1-2.9-4.71 8.24 8.24 0 0 1-.32-2.74 226.52 226.52 0 0 1 .03-6.21h1.29a2570.48 2570.48 0 0 1 .01 7.45c.03.41.11.84.25 1.29a8.47 8.47 0 0 0 5.51 5.52c.94.29 1.95.36 2.93.24a8.9 8.9 0 0 0 5.31-2.75H28l.43.44a8.52 8.52 0 0 0 4.62 2.3c3.75.56 7.33-1.86 8.6-5.47.21-.6.35-1.23.35-1.86V28c-.01 0 0 0 0 0h1.4c0-.01 0 0 0 0a267.8 267.8 0 0 1 0 6.97 9.67 9.67 0 0 1-4.7 7.8 9.23 9.23 0 0 1-6.7.98 9.71 9.71 0 0 1-3.97-1.96Z" fill="#fff"/></svg>