<svg width="56" height="56" viewBox="0 0 56 56" xmlns="http://www.w3.org/2000/svg"><path fill="#F0F3FA" d="M0 0h56v56H0z"/><path fill-rule="evenodd" d="M28 39a15 15 0 1 0 0-30 15 15 0 0 0 0 30Zm.01-28.74c-2.7 0-5.2.78-7.33 2.14l-.2-.32a13.97 13.97 0 0 1 15.06 0l-.2.32a13.6 13.6 0 0 0-7.33-2.14ZM22.99 37.1a13.6 13.6 0 0 0 10.04 0l.14.35a13.98 13.98 0 0 1-10.32 0l.14-.35ZM28 11.64c-2.43 0-4.7.7-6.6 1.92l-.2-.32a12.62 12.62 0 0 1 13.6 0l-.2.32a12.25 12.25 0 0 0-6.6-1.92Zm-4.53 24.18a12.26 12.26 0 0 0 9.06 0l.14.35a12.63 12.63 0 0 1-9.34 0l.14-.35Zm8.42-1.23a10.25 10.25 0 0 1-7.58 0l-.14.35a10.63 10.63 0 0 0 7.85 0l-.13-.35ZM28 34.03c1.05 0 2.05-.2 2.98-.57l.14.35a8.43 8.43 0 0 1-6.24 0l.14-.35c.93.37 1.93.57 2.98.57Zm2.3-1.68a6.24 6.24 0 0 1-4.6 0l-.15.35a6.62 6.62 0 0 0 4.9 0l-.14-.35Zm-3.8-1.15a4.1 4.1 0 0 0 3.03 0l.13.35a4.48 4.48 0 0 1-3.3 0l.14-.35ZM28.8 30a2.17 2.17 0 0 1-1.6 0l-.14.35a2.55 2.55 0 0 0 1.88 0l-.14-.35Zm-7.12 3.6A11.34 11.34 0 0 1 28 12.81a11.35 11.35 0 0 1 6.51 20.65l.21.31A11.71 11.71 0 0 0 28 12.43a11.73 11.73 0 0 0-6.52 21.48l.2-.32ZM34 32.7a10.32 10.32 0 0 0-6-18.73 10.33 10.33 0 0 0-5.83 18.86l.2-.32A9.94 9.94 0 0 1 28 14.34a9.95 9.95 0 0 1 5.8 18.05l.2.3Zm-11.15-.97a9.02 9.02 0 1 1 10.43-.1l-.2-.31A8.65 8.65 0 0 0 28 15.64a8.66 8.66 0 0 0-4.95 15.76l-.2.32Zm9.71-1.17a7.73 7.73 0 0 0-4.56-14 7.74 7.74 0 0 0-4.46 14.07l.2-.32a7.36 7.36 0 1 1 8.61-.06l.21.31Zm-8.34-1.01a6.46 6.46 0 1 1 7.63-.05l-.21-.31a6.08 6.08 0 1 0-7.22.04l-.2.32Zm.72-1.16a5.2 5.2 0 1 1 6.15-.02l-.2-.31a4.83 4.83 0 1 0-5.75.01l-.2.32Zm.86-1.37a3.68 3.68 0 1 1 4.35-.06l-.21-.31a3.3 3.3 0 1 0-3.94.05l-.2.32Zm3.61-1.15a2.37 2.37 0 1 0-2.91.03l.2-.32a2 2 0 1 1 2.5-.03l.21.32Zm-.65-.98a1.1 1.1 0 1 0-1.64.02l.21-.34a.72.72 0 1 1 1.2 0l.23.32Z" fill="#231F20"/><path d="M21.2 48 19 41h1.71l1.02 4.6.67-4.6h1.82l.76 4.6.96-4.6h1.6l-1.84 7h-1.33l-.99-4.6-.98 4.6h-1.2ZM28 41h1.48v7H28z" fill="#231F20"/><path fill-rule="evenodd" d="M32.16 41H31v7h1.45v-2.47h1.29a2.26 2.26 0 1 0 0-4.53h-1.58Zm.3 1.25v2.03h1.24a1.02 1.02 0 0 0 0-2.03h-1.25Z" fill="#231F20"/></svg>