<svg width="56" height="56" viewBox="0 0 56 56" xmlns="http://www.w3.org/2000/svg"><path fill="#F0F3FA" d="M0 0h56v56H0z"/><path d="M26 23.7a3.3 3.3 0 1 0-4.5.03v.31c0 .47-.37.96-.83.96h-1.4c-.46 0-.84.26-.84.73v1.01a3.83 3.83 0 0 0-4.68-.83l.73-2.04c.13-.47.1-1.37-.97-1.22-1.35.19-2.47.45-2.73 1.22l-.57 1.77-.53-1.09c-.14-.19-.52-.54-.92-.42-.5.15-.98.5-1.25 1.51-.1-.1-.43-.31-1.04-.31h-1.4c-.49.03-1.37.38-.97 1.51l1.99 5.68c.07.23.34.66.85.63.62-.04.99-.52 1.17-1l.65-1.49.8 1.86c.08.21.36.63.96.63s.96-.66 1.05-1l.45-1.37a3.84 3.84 0 0 0 6.41 1.08v.33c0 .65.5.83.76.84h1.26c1.18 0 1.38-.87 1.33-1.3l1.76 1.64c.89.84 1.6.12 1.84-.34h2.44c1.24.01 2.1-.56 2.38-.84 0 .8.57.98.86.97h5.78c.7 0 1.03-.2 1.1-.31 1.33.9 2.2.37 2.47 0 .1.28.57.33.8.31h4.86c.82-.08 1.12-.64 1.17-.91h.85c.3.87.75 1.24.93 1.31 1.1.34 1.84.43 2.07.44 1.08-.38.98-1.17.8-1.51l-3.26-6.63c-.94-1.2-1.78-.16-2.09.52v-2.25l-1.05-.94v-.43l.58-.22-.8-.28v.82l-.63.71v-.44l-1.45-2.16v-.58l.51-.18-.73-.2v.96l-1.39 2v.6l-.67-.6v-.43l.55-.22-.73-.28v.82l-1.2 1.05v1.73a3.33 3.33 0 0 0-1.34-.38h-6.46c-1.06 0-1.46.6-1.53.9-.66-.73-1.86-.9-2.38-.9h-.88c-.47 0-.94-.37-.94-.84v-.94Z" fill="#303681"/><path d="M6.84 26H5.01l2.24 6.24L8.9 28.7l1.34 3.34c.21.48.5.2.62 0l2.86-8.31c.15-.38-.07-.41-.2-.38l-1.9.48-1.38 3.79-1.34-2.87-1.48 2.87L6.84 26Z" fill="#FBDE06"/><path d="M6.72 32.24c.09.29.42.12.55 0C7.1 31.84 5.69 27.97 5 26l-.36.37 2.08 5.86ZM10.25 32.33l-1.48-3.48c.1-.32.26-.07.33.06l1.55 3.33c-.18.22-.35.15-.4.1ZM10.23 27.62l1.27-3.76.3-.07-1.15 3.38c-.12.39-.34.48-.42.45ZM8.52 25.1l-1.08 2.5c.4.07 1.17-1.91 1.46-2.85l-.38.34Z" fill="#F8A619"/><path fill-rule="evenodd" d="M15.63 32.3a3.1 3.1 0 1 0 0-6.18 3.1 3.1 0 0 0 0 6.18Zm-.07-1.7a1.3 1.3 0 1 0 0-2.59 1.3 1.3 0 0 0 0 2.59Z" fill="#FBDE06"/><path d="M16.1 30.48a1.38 1.38 0 1 0-1.62-1.88 1.29 1.29 0 0 1 2.38.7c0 .52-.31.97-.75 1.18Z" fill="#F8A619"/><path d="M16.63 30.28a1.48 1.48 0 1 0-1.77-2.35 1.47 1.47 0 0 1 1.77 2.35Z" fill="#fff"/><path d="M16.78 32.08a3.1 3.1 0 0 1-2.51-5.65 3.1 3.1 0 1 0 2.51 5.65Z" fill="#F8A619"/><path d="M16.51 31.92a2.88 2.88 0 0 1-2.1-5.33 2.87 2.87 0 0 0 2.1 5.33Z" fill="#fff"/><path d="M19.26 32H21v-2.04l3.75 2.93V25h.29l.4-.2V24h-3.2v.98l.55-.18.08 3.94-3.19-3.03c-.1-.08-.35-.03-.42 0V32ZM22.4 24l1.33-2.94.36.4L25.14 24h-1l-.44-1.04-.46 1.04h-.85Z" fill="#FBDE06"/><path fill-rule="evenodd" d="M23.75 23.76a2.53 2.53 0 1 0 0-5.06 2.53 2.53 0 0 0 0 5.06Zm2.04-2.52h-1.42l-.02.1 1.36.48c.05-.18.08-.38.08-.58Zm-.13.71-1.38-.48-.02.02 1.1 1c.13-.16.23-.34.3-.54Zm-.39.65a2.05 2.05 0 0 1-3.39-.49l1.46-.64.04.06-1.04 1.19.1.09 1.05-1.2a.57.57 0 0 0 .68-.02l1.1 1Zm-2-1.25a.57.57 0 0 1-.02-.1h-1.56c0 .25.05.5.14.73l1.44-.63Zm2.52-.25h-1.41l-.02-.09 1.3-.52c.07.19.11.4.13.61Zm-.2-.74c-.08-.19-.19-.36-.32-.5l-.97 1 .01.02 1.29-.52Zm-1.38.38.96-.99a2.06 2.06 0 0 0-.5-.36l-.53 1.3.07.05Zm-.2-.12.53-1.29c-.2-.08-.4-.13-.62-.15v1.4l.1.04Zm-.23-.04v-1.4a1.95 1.95 0 0 0-.67.1l.56 1.32a.56.56 0 0 1 .11-.02Zm-.24.07-.57-1.33c-.22.09-.42.21-.6.37l1.09 1a.56.56 0 0 1 .08-.04Zm-.18.15-1.08-1.01c-.17.16-.3.35-.4.56l1.42.53a.58.58 0 0 1 .06-.08Zm-.1.21-1.43-.53c-.08.2-.13.4-.14.62h1.55l.01-.09Z" fill="#FBDE06"/><path d="M22.43 24.65v-.56h-.14v.7H23v3.68h.15v-3.82h-.72Zm-2.98 1.16h.14v6.07h1.38V32h-1.52v-6.2Zm5.3 7.05-3.5-3.01.1-.1 3.4 2.9v.2Z" fill="#fff"/><path fill-rule="evenodd" d="M25.36 26v6.12h3.34a3.14 3.14 0 0 0 2.05-3 3.13 3.13 0 0 0-2.8-3.12h-2.6ZM27 28v2.11c0 .08.03.24.29.26.31.01 1.3.05 1.33-1.16C28.65 28 27.27 28 27 28Z" fill="#FBDE06"/><path d="M35.28 26h-4.05v6.08h4.05v-1.66H33v-.54l2.28-.14v-1.35H33v-.57h2.28V26Z" fill="#FBDE06"/><path d="M25.37 26h.14v5.86h2.47V32h-2.61v-6Zm2.6 1.95a2.48 2.48 0 0 0-.73-.06l-.02-.14c.2-.02.5 0 .8.06.28.07.58.2.76.43.4.5.31 1.02.21 1.51l-.14-.03c.1-.49.18-.94-.18-1.4-.15-.19-.41-.3-.7-.37ZM31.25 26.11h.14v5.7h3.75V32h-3.9v-5.89Z" fill="#fff"/><path fill-rule="evenodd" d="M36 26.01h2.51c.66.04 1.99.58 2.07 2.42 0 .53-.2 1.68-1.1 2.08.1.11.45.35 1.02.46-.14.47-.47 1.42-.67 1.53a3.07 3.07 0 0 1-2.22-1.05V32l-1.61.2V26Zm1.55 2.09c.26-.04.8.04.85.61.07.72-.75.82-.85.41V28.1Z" fill="#FBDE06"/><path d="M19 32.33h1.63l.22-.33h-1.57v-6.24l-.28.18v6.39ZM24.45 33.05l-3.46-2.97c0-.32.28-.23.37-.15l3.39 2.91-.3.2ZM22.77 25v3.76H23v-4h-.7V24l-.3.27V25h.77ZM31 32.4v-6.16l.24-.24v6h4.08l-.26.4H31ZM34.91 28.08H33c0-.23-.04-.29.11-.29h2.13l-.33.29Z" fill="#F8A619"/><path d="M33.13 29.74c-.2 0-.13.15-.13.26h1.91l.33-.26h-2.11Z" fill="#F8A619"/><path d="m42.75 25.7-1.5.63V32H44v-1.43h-1V25.9c0-.26-.17-.24-.25-.2Z" fill="#FBDE06"/><path d="M25 32.34v-6.08l.37-.26v6h1.94c.82 0 1.44 0 1.7-.08-.45.33-1.11.41-1.39.41H25ZM28.32 30.2c.7-1.58-.62-2.12-1.36-2.16.23-.24 1.66-.1 1.83.84.13.76-.3 1.2-.47 1.32ZM35.68 26.32l.32-.3V32h1.6l-.12.49h-1.8v-6.17ZM39.8 32.49c-.65.5-1.7-.42-2.15-.94 0-.29.15-.25.22-.2.7.8 1.58 1.1 1.94 1.14ZM38.44 29.06c.05-.86-.5-1.08-.79-1.08.21-.21.93-.11.99.36a.9.9 0 0 1-.2.72Z" fill="#F8A619"/><path d="M7.16 32.28 4.96 26h.14l2.18 6.17-.12.11Zm3.49-.1L9 28.65l.12-.06 1.65 3.51-.12.06ZM36 26.2h.14v5.64h1.29V32H36v-5.8Zm2.47 1.66a.87.87 0 0 0-.67-.15l-.03-.14a1 1 0 0 1 .78.17c.25.2.42.56.37 1.17l-.14-.02c.05-.57-.1-.88-.31-1.03Zm.08 3.98a6.68 6.68 0 0 1-.81-.64l.1-.11c.16.16.45.4.78.62.34.23.7.42 1.01.48l-.02.15a3.17 3.17 0 0 1-1.06-.5ZM41.29 26.4h.14v5.45H44V32h-2.71v-5.6Z" fill="#fff"/><path d="M41 32.41v-5.9l.3-.19V32H44l-.22.41H41Z" fill="#F8A619"/><path fill-rule="evenodd" d="M46.61 32h-1.76l2.92-5.99 3.48 6.78c.05.1.1.29-.12.29l-1.82-.48-.65-1.24H46.9l-.29.64Zm.7-1.87.36-.79.4.79h-.77Z" fill="#FBDE06"/><path d="M44.38 32.46h2.03l.2-.46h-1.75l2.94-5.98-.42.34-3 6.1ZM48.51 31.56h-1.7l.06-.2h1.86l.66 1.24 1.89.48-.35.26-1.8-.47-.62-1.31ZM47.92 29.36c-.16-.28-.28-.07-.32.07l.32.73c.32.02.29-.22.23-.34a5.22 5.22 0 0 0-.23-.46ZM45.06 24.24l-.26.26v5.44l.26-.48v-5.22ZM42.8 23.34l-.26.24v1.3h.27v-1.54ZM40.5 25.94v-1.7l-.23.37v1.53l.23-.2Z" fill="#F8A619"/><path d="M41 24.24h-.52v1.71l.52-.4v-1.31ZM43.37 23.34h-.57v1.55l.57.34v-1.9ZM45.59 24.24H45v5.35l.59-1.22v-4.13Z" fill="#FBDE06"/><path d="m48.32 29.94-.4-.86.12-.06.4.86-.12.06Zm.54 1.34H47.1v-.14h1.86l.66 1.25 1.62.47-.04.14-1.68-.49-.65-1.23Z" fill="#fff"/></svg>