<svg width="56" height="56" viewBox="0 0 56 56" xmlns="http://www.w3.org/2000/svg"><path fill="#F0F3FA" d="M0 0h56v56H0z"/><path d="m14.05 30.95-.68 1.02L16.95 37h3.18l-.73-1.02-1.09.96-4.26-6Zm1.65-2.47L21.74 37h3.18l-3.1-4.54-.94.9-4.3-6.19-.88 1.3ZM29.56 37h-3.22L18.1 24.9l.8-1.2 4.34 6.22.94-.9L29.56 37Zm1.42 0-10.5-15.65.76-1.15 4.35 6.25.94-.9L34.3 37h-3.32Zm-7.5-20.14-.67 1L35.71 37h3.33L28.98 21.84l-.95 1.38-4.56-6.36Zm.7-1.04L28.06 10l3.73 5.62-3.77 5.69-3.86-5.49Zm8.32.85-2.76 4.05L40.54 37H46L32.5 16.67ZM10 37l2.63-3.92L15.42 37H10Z" fill="#74282A"/><path d="M14.9 38.2c0 .05-.02.08-.07.09l-.2.04L13.8 41h-.37l-.74-2.27a.86.86 0 0 1-.05-.15l-.02.07a.94.94 0 0 0-.01.08L11.85 41h-.36l-.83-2.67-.2-.05c-.05-.01-.07-.03-.07-.08V38h1.01v.2c0 .05-.02.07-.07.08a10.2 10.2 0 0 1-.23.05l.55 1.83.06.25.06-.25.7-2.04c0-.02.02-.04.05-.06a.14.14 0 0 1 .08-.04h.12c.07 0 .11.04.14.1l.69 2.04.07.24.02-.13.02-.11.55-1.83-.14-.03-.09-.02c-.04 0-.07-.03-.07-.08V38h.99v.2ZM22.59 39.5c0 .3-.07.56-.19.78-.12.23-.3.4-.52.53a1.5 1.5 0 0 1-.75.19 1.5 1.5 0 0 1-.76-.2c-.22-.12-.4-.3-.52-.52a1.63 1.63 0 0 1-.18-.78c0-.29.06-.55.18-.77.12-.23.3-.41.52-.54.22-.13.47-.19.76-.19.29 0 .54.06.76.2.22.12.4.3.51.52.13.23.2.48.2.78h-.01Zm-.42 0c0-.35-.09-.63-.27-.83a.97.97 0 0 0-.78-.32c-.22 0-.41.05-.57.15a.95.95 0 0 0-.36.4c-.08.18-.12.38-.12.6 0 .24.04.44.13.61.09.17.2.3.36.4.16.1.35.15.57.15.21 0 .4-.05.56-.15.16-.1.28-.23.36-.4.08-.18.13-.38.13-.6ZM30 40.75c.02 0 .04.02.05.03l.01.04V41h-.43c-.07 0-.12-.02-.15-.08l-.77-1.12a.26.26 0 0 0-.08-.07l-.12-.02h-.27v1l.24.04c.02 0 .03.02.04.03.02.01.02.03.02.04V41h-1v-.18l.02-.04a.09.09 0 0 1 .05-.03l.24-.05v-2.4l-.24-.05a.1.1 0 0 1-.05-.02.08.08 0 0 1-.01-.05V38h1.1c.18 0 .34.02.48.06.14.04.25.09.34.16.09.07.16.16.2.26.04.1.06.2.06.34a.82.82 0 0 1-.2.53.74.74 0 0 1-.22.18c-.11.06-.21.1-.3.12.04.03.09.07.12.12l.64.94.24.04Zm-1.38-1.33c.12 0 .22-.01.3-.04a.69.69 0 0 0 .23-.12.5.5 0 0 0 .18-.42c0-.17-.06-.3-.17-.39-.11-.09-.29-.13-.52-.13h-.4v1.1h.38ZM37.31 38.65h-.2c-.04 0-.07-.02-.08-.05l-.03-.26h-.7v2.37h.05l.2.05c.03 0 .04.03.04.07V41h-1v-.17c0-.02 0-.04.02-.05a.08.08 0 0 1 .05-.03l.23-.04v-2.38h-.7a2.7 2.7 0 0 1-.04.27c0 .03-.03.05-.08.05h-.2V38h2.44v.65ZM45 40.7l.24.05c.03.01.05.04.05.08V41h-1v-.17c0-.05.02-.07.07-.08l.23-.04v-1.08H43v1.08c.2.04.29.08.29.12V41h-1v-.17c0-.05.02-.07.06-.08l.24-.04v-2.42l-.25-.04c-.03-.01-.05-.04-.05-.08V38h1v.17c0 .04-.02.07-.04.08l-.25.04v1.05h1.6v-1.05l-.26-.04c-.03-.01-.05-.04-.05-.08V38h1v.17c0 .05-.02.07-.06.08l-.23.04v2.42Z"/></svg>