<svg width="56" height="56" viewBox="0 0 56 56" xmlns="http://www.w3.org/2000/svg"><path fill="#F0F3FA" d="M0 0h56v56H0z"/><path fill-rule="evenodd" d="M43.5 28a15.5 15.5 0 1 1-31 0 15.5 15.5 0 0 1 31 0Zm1.5 0a17 17 0 1 1-34 0 17 17 0 0 1 34 0Zm-12.55 1H23.5L19 37.42a13.03 13.03 0 1 1 18.06 0L32.45 29ZM18.5 38.33c.25.24.5.46.77.67l4.82-9h7.76l4.92 9a14.06 14.06 0 0 0 5.28-10.97 14.03 14.03 0 1 0-23.55 10.3ZM24.27 27l-2.05-8h1.82l1.36 5.4 1.54-5.4h2.28l1.48 5.4 1.34-5.4h1.87l-2.15 8h-1.98l-1.72-5.89L26.27 27h-2Zm7.13 7.18c-.01-.72-.69-2.16-3.34-2.18-3.3-.03-3.4 2.16-3.4 2.45 0 .3.2 1.89 3.25 2.32.42.04 1.27.3 1.33.94.07.65-.68.8-1.18.8-.44 0-1.27-.33-1.43-1.23h-2.28c-.01.95.72 2.72 3.71 2.72 3.02 0 3.64-1.86 3.6-2.72 0-.62-.56-1.98-2.88-2.48l-.32-.06c-.6-.1-1.48-.24-1.48-.72 0-.58.55-.65.93-.65.49 0 1.01.22 1.15.81h2.34Z" fill="#00AFED"/></svg>