<svg xmlns="http://www.w3.org/2000/svg" width="56" height="56"><path fill="#F0F3FA" d="M0 0h56v56H0z"/><path fill-rule="evenodd" d="M20.1 12h4.92v1.3h-1.16l1.55 4.56 1.78-4.56h-1.33V12h4.8v1.3h-1.34l1.53 4.56 1.32-4.56h-.8V12h3.78v1.3h-1l-1.89 7.18 4.83-5.45-.75-1.25 1.11-.67L40 17.34l-1.11.67-.6-1-3.08 3.7 4.8-.83-.69-1.14 1.11-.68 2.48 4.12-1.1.68-.7-1.14-3.08 3.66 4.56-1.21-.42-.7 1.11-.67 1.96 3.25-1.1.68-.52-.86-7.36 2.17 7.41 1.48.7-1.28 1.13.62-2.34 4.35-1.14-.62.56-1.03-4.73-.8L41 34.52l.63-1.18 1.14.62-2.28 4.24-1.14-.62.63-1.17-4.7-.83 3.35 3.34.38-.71 1.14.62-1.8 3.34-1.14-.61.48-.88-5.25-4.97 2.14 7h1.45V44H31.1v-1.3h1.17l-1.55-4.56-1.79 4.56h1.33V44h-4.79v-1.3h1.33l-1.52-4.56-1.33 4.56h.81V44h-3.79v-1.3h1l1.86-7.05-4.84 5.46.75 1.24-1.1.67-2.55-4.23 1.1-.67.61 1 3.07-3.7-4.8.83.7 1.15-1.12.67-2.48-4.12 1.11-.67.69 1.14 3.09-3.67-4.56 1.22.41.7-1.1.67-1.96-3.26 1.1-.67.52.85 7.42-2.18 1.48 2.45-2.16 3.2 3.71-.61 1.25 2.06h2.63l1.62 3.52 1.39-3.52h2.32l1.27-2.36 3.84.24-2.41-2.9L36 27.98l.17.04-1.45-2.41 2.15-3.21-3.7.62-1.28-2.12.08-.08h-2.65l-1.61-3.52-1.4 3.52h-2.4l-1.3 2.43-3.85-.24 2.41 2.9L20 28.1l-7.67-1.54-.7 1.28-1.13-.62 2.34-4.35 1.14.62-.56 1.03 4.73.8L15 21.56l-.63 1.18-1.14-.62 2.28-4.24 1.14.62-.63 1.18 4.7.82-3.35-3.34-.38.71-1.14-.62 1.8-3.34 1.14.62-.48.88 5.46 5.15-2.23-7.26H20.1V12zM28 33a5 5 0 100-10 5 5 0 000 10zm0 1a6 6 0 100-12 6 6 0 000 12zm0-4a2 2 0 100-4 2 2 0 000 4z" fill="#0C7133"/></svg>