<svg width="56" height="56" viewBox="0 0 56 56" xmlns="http://www.w3.org/2000/svg"><path fill="#F0F3FA" d="M0 0h56v56H0z"/><path d="M13.56 31h.3c.55 0 .88.13.88.52 0 .42-.26.48-.85.48h-2.3c-.34 0-.59-.15-.59-.48 0-.42.29-.52.94-.52h.17l2.86-3.1-2.65-2.9h-.28c-.44 0-.89.04-.89-.48 0-.6.59-.52 1.06-.52h1.7c.61 0 .9.1.9.52 0 .4-.35.48-.92.48h-.07l1.8 2.06 1.7-2.06h-.17c-.63 0-.92-.08-.92-.48 0-.45.25-.52.85-.52h2.17c.34 0 .62.16.62.52 0 .43-.3.48-.91.48h-.29l-2.39 2.82L19.25 31h.08c.43 0 .67.13.67.52 0 .6-.55.48-1.03.48h-1.7c-.59 0-.86-.2-.86-.6 0-.39.29-.4.75-.4h.63l-2.15-2.35L13.56 31Z" fill="#2D2D2D"/><path d="M11 21h-.96C9.28 21 9 21.9 9 22.52v3.15c0 .86-.3 1.75-1.1 2.14-.18.1-.33.15-.44.17v.05c.11.02.26.06.45.14.82.36 1.09 1.32 1.09 2.17v3.14c0 .62.28 1.52 1.04 1.52H11v1H9.66a2.07 2.07 0 0 1-1.39-.58 2.25 2.25 0 0 1-.68-1.68v-3.12c0-.31-.04-.6-.13-.84a2 2 0 0 0-.36-.64c-.15-.17-.31-.3-.5-.4-.2-.1-.4-.14-.6-.14v-1.17c.2 0 .4-.05.6-.15.19-.1.35-.23.5-.4a2.47 2.47 0 0 0 .49-1.47v-3.15a2.34 2.34 0 0 1 .68-1.68A2.06 2.06 0 0 1 9.66 20H11v1ZM45 21h.96c.76 0 1.04.9 1.04 1.52v3.15c0 .86.3 1.75 1.1 2.14.18.1.33.15.44.17v.05c-.11.02-.26.06-.45.14-.82.36-1.09 1.32-1.09 2.17v3.14c0 .62-.28 1.52-1.04 1.52H45v1h1.34a2.07 2.07 0 0 0 1.39-.58 2.25 2.25 0 0 0 .68-1.68v-3.12c0-.31.04-.6.13-.84a2 2 0 0 1 .36-.64c.15-.17.31-.3.5-.4.2-.1.4-.14.6-.14v-1.17c-.2 0-.4-.05-.6-.15-.19-.1-.35-.23-.5-.4a2.1 2.1 0 0 1-.36-.66 2.47 2.47 0 0 1-.13-.82v-3.14a2.34 2.34 0 0 0-.68-1.68 2.06 2.06 0 0 0-1.39-.58H45v1Z" fill="#77C09E"/><path d="M33 22h-1.51c-.5 0-1.17 0-1.17-.44 0-.4.25-.56.65-.56h2.57c.14 0 .25.03.33.1.08.05.13.14.13.24V31h2.43c.4 0 .57.1.57.51 0 .43-.2.49-.63.49h-5.75c-.4 0-.62-.1-.62-.5s.22-.5.65-.5H33v-9ZM22.16 28c.09 1.86 1.23 3 2.92 3a5.1 5.1 0 0 0 2.1-.51c.72-.34 1.06-.63 1.22-.63.15 0 .3 0 .41.1.48.48-.15 1-.54 1.2-1.05.54-2.2.84-3.3.84A3.8 3.8 0 0 1 21 28.06 3.97 3.97 0 0 1 25.13 24C26.9 24 29 25.25 29 27.3c0 .31-.06.52-.19.62-.12.1-.46.08-1 .08h-5.65Zm.09-1h5.56c-.15-1.17-1.33-2-2.68-2s-2.6.78-2.88 2Z" fill="#2D2D2D"/><path fill-rule="evenodd" d="M41.13 34H39v-3.5c.33.39.89.68 1.38.89.5.2 1.03.31 1.61.31 1.1 0 2-.35 2.7-1.05.71-.7 1.06-1.6 1.06-2.7a3.86 3.86 0 0 0-5.36-3.66 4.4 4.4 0 0 0-1.39.87v-.8c0-.24-.14-.36-.47-.36l-1.1.01c-.45 0-.68.12-.68.5 0 .5.44.5.85.5l.14-.01H38v9h-.36c-.42 0-.89 0-.89.51 0 .4.23.49.67.49h3.65c.51 0 .7-.05.7-.49 0-.4-.22-.51-.64-.51Zm.68-3.38a2.8 2.8 0 1 0 0-5.62 2.8 2.8 0 0 0 0 5.62Z" fill="#2D2D2D"/></svg>