<svg width="56" height="56" viewBox="0 0 56 56" xmlns="http://www.w3.org/2000/svg"><path fill="#F0F3FA" d="M0 0h56v56H0z"/><path d="M26.57 32.05a21.03 21.03 0 0 0-2.23-3.2 8 8 0 0 0-1.64-1.47c-.33-.23-.7-.39-1.09-.5-.56-.44-.94-.75-1.13-.92-.5-.44-.9-.93-1.2-1.47a8.3 8.3 0 0 1-1.17-4.72c0-.03.01-.04.04-.02.11.07.2.15.3.24.3.35.53.58.66.68l2.13 1.72c.93.76 1.74 1.53 2.5 2.44a9.64 9.64 0 0 1 1.41 2.27c.7 1.56 1.17 3.2 1.42 4.95ZM33.63 26.87c-.67.21-1.27.55-1.79 1.02-.46.41-.86.81-1.17 1.2-.69.85-1.35 1.83-2 2.95.2-1.4.56-2.8 1.08-4.18.38-1 .83-1.84 1.36-2.54a16.8 16.8 0 0 1 2.93-2.97l1.98-1.6c.3-.23.54-.53.82-.8.07-.07.15-.14.24-.2.02 0 .04 0 .04.03.02.73-.01 1.38-.1 1.97-.08.47-.24.98-.48 1.55a6.82 6.82 0 0 1-1.83 2.7c-.37.3-.72.6-1.08.87Z" fill="#F9A51A"/><path d="m33.63 26.87-.7.63a4.6 4.6 0 0 0-1.45 2.13c-.79 2.51-.15 5.53.2 8.06.04.32-.04.8-.18 1.1a2.8 2.8 0 0 1-1.77 1.57c-.26.08-.58.13-.97.15-.03 0-.04 0-.05-.03a33.8 33.8 0 0 1-.04-8.44c.65-1.12 1.31-2.1 2-2.95.31-.39.7-.79 1.17-1.2.52-.47 1.12-.8 1.8-1.02ZM21.61 26.89c.4.1.76.26 1.09.49a8 8 0 0 1 1.64 1.47c.82.97 1.57 2.04 2.23 3.2.47 1.92.04 6.3-.02 8.4 0 .05-.03.07-.08.07a6.7 6.7 0 0 1-.65-.08 2.75 2.75 0 0 1-1.89-1.29 2.36 2.36 0 0 1-.33-1.77c.4-2.26.7-4.81.3-7.1-.17-1.01-.62-1.86-1.34-2.55-.24-.23-.55-.5-.95-.84Z" fill="#AA8536"/><path d="M35.79 13.35c1.48.89 2.76 1.95 3.84 3.19.8.87 1.5 1.92 2.1 2.94.32.53.57.98.76 1.36.68 1.33 1.1 2.75 1.3 4.25.14 1.14.21 2.3.21 3.45v.55a14.67 14.67 0 0 1-.56 3.6 17.26 17.26 0 0 1-8.4 10.48 17.12 17.12 0 0 1-4.97 1.7c-.24.03-.48.08-.72.13-.04 0-.05 0-.05-.04a.2.2 0 0 1 .07-.15 21.64 21.64 0 0 0 3.26-3.07c.14-.14.29-.27.46-.36.51-.26 1.01-.53 1.5-.8.88-.5 1.67-1.11 2.39-1.83a14.74 14.74 0 0 0 4.25-14.08 14.54 14.54 0 0 0-5.94-8.66 13.73 13.73 0 0 0-8.33-2.53l-.72.05c-2.48.14-4.76.9-6.84 2.28-1.25.87-2.38 1.9-3.37 3.1-.37.43-.7.9-.96 1.4-.04.08-.1.1-.2.07-.56-.25-1.08-.65-1.57-1.05l-.24-.18c-.06-.05-.07-.1-.04-.17.29-.7.8-1.33 1.3-1.9.49-.54.96-1.04 1.42-1.49a16.45 16.45 0 0 1 3.73-2.72c.86-.46 1.76-.83 2.7-1.1 1.51-.44 3.06-.7 4.63-.75a15.33 15.33 0 0 1 8.99 2.33Z" fill="url(#asvtmawcl)"/><path d="M25 22.55a2.76 2.76 0 0 1 2.12-2.15v2.15h-2.11Zm.01 1.11a2.76 2.76 0 0 0 2.11 2.13v-2.13h-2.1Zm3.22 0v2.14a2.76 2.76 0 0 0 2.19-2.14h-2.19Zm2.2-1.11a2.76 2.76 0 0 0-2.2-2.17v2.17h2.2Z" fill="#005D87"/><defs><linearGradient id="asvtmawcl" x1="14.89" y1="20.56" x2="44.05" y2="27.8" gradientUnits="userSpaceOnUse"><stop stop-color="#036089"/><stop offset="1" stop-color="#449EC1"/></linearGradient></defs></svg>