<svg width="56" height="56" xmlns="http://www.w3.org/2000/svg"><path fill="url(#paint0_linear)" d="M0 0h56v56H0z"/><path fill-rule="evenodd" d="M28 44c7.455 0 13.72-5.1 15.496-12H38v-8h5.496C41.72 17.1 35.456 12 28 12c-8.837 0-16 7.163-16 16s7.163 16 16 16zm15.97-15.017c-.02.334-.05.665-.09.994H40v-.994h3.97zM43.876 26c.041.328.072.66.093.994H40V26h3.876zM36 24h-6v8h6v-2h-4v-1h4v-2h-4v-1h4v-2zm-15 0h7v1.437L24 30h4v2h-7v-1.404L25 26h-4v-2z" fill="#fff"/><defs><linearGradient id="paint0_linear" x1="6.815" y1="9.411" x2="47.986" y2="46.661" gradientUnits="userSpaceOnUse"><stop stop-color="#916EB4"/><stop offset="1" stop-color="#2F0E62"/></linearGradient></defs></svg>