<svg width="56" height="56" viewBox="0 0 56 56" xmlns="http://www.w3.org/2000/svg"><path fill="#F0F3FA" d="M0 0h56v56H0z"/><path fill-rule="evenodd" d="M20 29h3.95c-.07.69-.2 1.36-.4 2H20v-2Zm-6 9a10 10 0 0 0 9.17-6H19v-7h4.54A10 10 0 1 0 14 38Zm10-10c0-.68-.07-1.35-.2-2H20v2h4Zm-12-2.05L8.3 31H12v1H7v-.91L10.66 26H7v-1h5v.95Zm2 .05h4v-1h-5v7h5v-1h-4v-2h4v-1h-4v-2Zm12-1h1.12L31 30.1V25h1v7h-1.01L27 26.87V32h-1v-7Zm7 0h5v1h-4v2h4v1h-4v2h4v1h-5v-7Zm6.69.02H38.5L40.37 32h.81l1.32-4.98L43.82 32h.81l1.87-6.98h-1.16l-1.12 4.73-1.06-4.73-1.28-.02-1.08 4.75-1.11-4.73ZM47 30.9l.6-.83c.63.57 1.32.92 2.12.92.7 0 1.28-.4 1.28-.92v-.02c0-.48-.4-.85-1.6-1.14-1.27-.3-2.1-.67-2.1-1.93v-.02c0-1.16.88-1.97 2.16-1.97.94 0 1.7.3 2.35.86l-.6.89a2.98 2.98 0 0 0-1.77-.75c-.66 0-1.04.42-1.04.87v.02c0 .52.25.75 1.5 1.06 1.36.35 2.1.87 2.1 2v.02c0 1.27-.95 2.03-2.3 2.03-1 0-1.93-.36-2.7-1.09Z" fill="#D7212A"/></svg>