<svg xmlns="http://www.w3.org/2000/svg" width="56" height="56"><path d="M0 28a28 28 0 1156 0 28 28 0 01-56 0z" fill="#F0F3FA"/><path fill-rule="evenodd" d="M11.5 35c2.29 0 4.3-1.2 5.47-3H6.45l2.84-7H6.03a6.52 6.52 0 005.47 10zm-2.45-4h8.45a6.43 6.43 0 00-.53-6H14v2h2v1h-2v2h-2v-6h4.17a6.48 6.48 0 00-9.36 0h5.07l-2.84 7zm2.45 5a7.5 7.5 0 100-15 7.5 7.5 0 000 15zm16.68-7l-.68-3h-2.47l-.7 3h-.04l-.57-3h-1.73l1.02 5h2.58l.64-3h.08l.44 3h2.78l1.09-5h-1.78l-.61 3h-.05zm3.99 2l.2-.68h1.35l.17.68h2.02l-1.49-5h-2.68l-1.47 5h1.9zm.88-3.26h.05l.37 1.57h-.84l.42-1.57zM39.4 26H36v5h3.53c.7 0 1.47.01 1.47-1.39 0-.91-.56-1.24-.56-1.24v-.05s.56-.08.56-1.04C41 26 40.24 26 39.44 26h-.04zm-1.05 4H38v-1h.35c.41 0 .65.08.65.51s-.24.5-.65.5zm0-2H38v-1h.35c.41 0 .65.1.65.5 0 .41-.24.5-.65.5zm7.95 1.3v-.2h-1.87v.16c0 .5-.15.66-.52.66-.47 0-.5-.39-.5-1.15v-.59c0-.88 0-1.19.5-1.19.34 0 .47.16.5.59v.17h1.89v-.25c-.05-1.5-.74-1.5-2.24-1.5-2.15 0-2.61.06-2.61 1.9v1.2c0 1.93.88 1.92 2.26 1.9h.35c.61 0 1.52 0 1.84-.3.3-.3.4-.86.4-1.4zm.7-1.4v1.23c0 1.8.7 1.87 2.5 1.87s2.5-.07 2.5-1.87v-1.22c0-1.8-.73-1.91-2.5-1.91-2.02 0-2.5.13-2.5 1.9zm3 .14V29c0 .71-.03.99-.5.99s-.5-.3-.5-.99v-.98c.02-.73.03-1.03.5-1.03s.5.3.5 1.04z" fill="#1179BF"/></svg>