<svg xmlns="http://www.w3.org/2000/svg" width="56" height="56" viewBox="0 0 56 56"><path fill="#E23744" d="M0 0h56v56H0z"/><path d="M43.65 31.42l.3-1.78c-.33.16-.87.38-1.24.38-.5 0-.55-.25-.45-.96l.45-3.06h1.68c.06-.41.27-1.76.32-2h-1.73l.25-2-2.51.93-.28 1.07h-.88l-.23 2h.82l-.5 3.28c-.26 1.85.08 2.72 1.73 2.72.98 0 1.82-.35 2.27-.58zM29.47 24c1.44 0 1.54 1.22 1.35 2.58l-.9 5.39h-2.49l.66-4.77c.05-.46.06-.82-.3-.82-.62 0-1.44 1.27-1.63 2.33l-.23 1.64v.07c-.08.56-.16 1.18-.17 1.57h-2.74c.13-.6.26-1.5.38-2.34l.05-.36.26-1.85c.1-.68.1-1.05-.25-1.05-.63 0-1.45 1.27-1.63 2.33l-.23 1.64-.08.6c-.05.4-.1.77-.1 1.04H18.7c.13-.6.26-1.5.37-2.34l.06-.36.33-2.38c.14-.9.18-1.86.15-2.59a13 13 0 0 0 2.22-.27l.35-.06c.06.25.1 1.53-.1 2.58.8-1.61 1.97-2.58 3.04-2.58 1.44 0 1.53 1.19 1.36 2.46.8-1.54 1.93-2.46 2.98-2.46zm-15.52 4.56c0 .93.3 1.4.83 1.4.7 0 1.25-1.13 1.25-2.52 0-.94-.3-1.4-.81-1.4-.7 0-1.27 1.12-1.27 2.52zm4.76-1.23c0 2.55-1.79 4.67-4.16 4.67-2.12 0-3.22-1.45-3.22-3.36 0-2.53 1.8-4.64 4.16-4.64 2.16 0 3.22 1.45 3.22 3.33zm29.36 2.63c-.52 0-.83-.47-.83-1.4 0-1.4.57-2.52 1.27-2.52.5 0 .8.46.8 1.4 0 1.4-.54 2.52-1.24 2.52zM47.84 32c2.38 0 4.16-2.12 4.16-4.67 0-1.88-1.06-3.33-3.22-3.33-2.35 0-4.16 2.11-4.16 4.64 0 1.9 1.1 3.36 3.22 3.36zm-36.5-8l-.05 1.47-3.62 4.17h2.97c-.16.79-.25 1.4-.38 2.36H4l.03-1.48 3.63-4.14H4.8c.14-.74.27-1.56.37-2.38h6.15zm24.77 4.71c-.15.88-.78 1.76-1.7 1.87-.62.07-1.16-.3-1.21-.78-.03-.31.05-.59.23-.81.23-.32.67-.54 1.2-.6.54-.07 1.1 0 1.5.08l-.02.24zm-4.88 1.75c.25 1.16 1.1 1.67 2.4 1.51.9-.1 1.63-.54 2.14-1.26a24.14 24.14 0 0 0-.07.6l-.02.17c-.04.2-.08.4-.12.52h2.49v-.84c.06-.91.23-2.27.49-4.08a4.7 4.7 0 0 0 0-1.18c-.18-1.45-1.59-2.1-3.6-1.85a7.25 7.25 0 0 0-2.68.86l.52 1.57a5.6 5.6 0 0 1 1.96-.64c1.07-.13 1.51.2 1.58.75.02.22 0 .4-.01.58l-.04.1a6.84 6.84 0 0 0-2.19-.07 3.58 3.58 0 0 0-2.4 1.2c-.39.5-.62 1.33-.45 2.06z" fill="#fff"/></svg>