<svg width="56" height="56" viewBox="0 0 56 56" xmlns="http://www.w3.org/2000/svg"><path fill="#F0F3FA" d="M0 0h56v56H0z"/><path d="M32.73 17.93c-.93-2.57-.53-6.55-.53-6.55a8.14 8.14 0 0 0-7.12 1.03s-.08.78-.08 2c0 1.74.35 4.4 1.59 6.97C29.17 26.72 34.5 29 34.5 29l2.1-5.5s-2.95-3-3.87-5.57Z" fill="#CE1953"/><path d="M35.63 37c3.63 0 6.53 3 6.53 3 1.72-1.63 2.84-4.41 2.84-7.13 0 0-4.27-2.87-9.05-2.87C29.02 30 25 33.5 25 33.5l4.25 5.06S31.99 37 35.63 37Z" fill="#31A56C"/><path d="M16.77 31.75C14.44 34.4 11 35.63 11 35.63c.81 2.43 1.97 4.11 4.41 5.37 0 0 5.21-2.08 7.8-6.36 2.43-4 2.79-7.68 2.79-9.8 0-1.15-.16-1.84-.16-1.84l-6.82 1.85s.07 4.27-2.25 6.9Z" fill="#0088C0"/></svg>