<svg width="56" height="56" viewBox="0 0 56 56" fill="none" xmlns="http://www.w3.org/2000/svg"><path fill="#F0F3FA" d="M0 0h56v56H0z"/><circle cx="28" cy="28" r="27.88" stroke="#E0E3EB" stroke-width=".25"/><rect x="4.05" y="20.05" width="47.9" height="15.9" rx="1.95" stroke="#E0E3EB" stroke-width=".1"/><rect x="8.05" y="16.05" width="39.9" height="23.9" rx="1.95" stroke="#E0E3EB" stroke-width=".1"/><rect x="12.05" y="12.05" width="31.9" height="31.9" rx="1.95" stroke="#E0E3EB" stroke-width=".1"/><rect x="16.05" y="8.05" width="23.9" height="39.9" rx="1.95" stroke="#E0E3EB" stroke-width=".1"/><rect x="20.05" y="4.05" width="15.9" height="47.9" rx="1.95" stroke="#E0E3EB" stroke-width=".1"/><path d="M28 45c1.4 0 2.76-.17 4.07-.49l-10.48-14.4v-3.6l14.44 3.6L37.78 28 22.23 12A17 17 0 0 0 28 45Z" fill="#00AD55"/><path d="M32.07 44.51a17 17 0 1 0-9.84-32.5L37.78 28l-1.75 2.12L21.6 26.5v3.6l10.48 14.4Z" fill="#006BB3"/><path d="M22.63 11.87c2.68 1.91 11.71 8.58 15.33 14A5.25 5.25 0 0 1 39 29.09c0 1.94-1.44 2.91-3.03 2.91-1.47 0-3.15-.77-4.3-1.34-.5-.24-1.04-.55-1.6-.87-1.5-.85-3.15-1.79-4.41-1.79C24.5 28 24 29.02 24 29.96c0 .89.9 2.54 1.82 3.75 2.54 3.3 6.17 7.7 8.23 10.18a16.96 16.96 0 0 1-6.34 1.1c-1.71-2.3-6.58-9.06-9.02-14.14A5.81 5.81 0 0 1 18 28.4c0-1.92 1.78-3.4 3.76-3.4 1.42 0 3 .6 4.06 1.05l.7.32c1.41.64 3.59 1.63 5.39 1.63.98 0 2.09-.39 2.09-1.78 0-1.4-.87-2.4-1.75-3.43-3.17-3.69-8.92-8.76-10.87-10.45.4-.18.83-.33 1.25-.47Z" fill="#FFE72B"/></svg>