<svg width="56" height="56" viewBox="0 0 56 56" xmlns="http://www.w3.org/2000/svg"><path fill="#F0F3FA" d="M0 0h56v56H0z"/><path fill="#007F3D" d="M46 20h3v2h-3zM6 20v2h6.19L6 32.26V34h10v-2H9.94L16 21.88V20H6Zm22.2 7h3.02s.09-1 1.4-1c.78 0 1.38.4 1.38 1v1h-2.42C29.41 28 28 29.37 28 31.04 28 32.7 29.41 34 31.34 34c1.92 0 2.66-.84 2.66-.84V34h3.3s-.3-.78-.3-1.46v-5.36C37 24.9 34.83 24 32.7 24c-4.18 0-4.5 3-4.5 3Zm5.8 2.6v1.62s-.64.78-1.73.78c-.74 0-1.27-.4-1.27-1.09 0-.95.89-1.31 1.6-1.31H34ZM49 24h-3v10h3V24ZM39 34V24h3v.76s.77-.76 1.97-.76H45l-.53 3s-.5-.36-1.23-.36c-.74 0-1.24.66-1.24 1.3V34h-3ZM20 24v4.75c-.02 1.1-.04 3.25 1.32 3.25 1.7 0 1.69-2.22 1.68-3.5V24h3v10h-3v-1.51c-.6.95-1.36 1.51-2.65 1.51-1.2 0-2.43-.54-2.93-1.65A5.25 5.25 0 0 1 17 30.2V24h3Z"/></svg>