<svg xmlns="http://www.w3.org/2000/svg" width="56" height="56"><path fill="#006BB4" d="M0 0h56v56H0z"/><path d="M21 20h-6v1h4.62L15 26v1h6v-1h-4.6l4.6-5v-1zm1.63 6.55L21 22h1l1.54 4.15L25 22h1l-2.08 5.81c-.35 1.01-1.06 1.21-1.29 1.19h-.84v-1h.42c.62-.14.54-1.11.42-1.45z" fill="#fff"/><path d="M31 27v-7h-1v2h-1.73c-.83 0-2.27.52-2.27 2.5s1.47 2.5 2.4 2.5c.8 0 1.44-.4 1.6-.62V27h1z" fill="#6FD537"/><path d="M27.86 23.64c0 .08.01.15.04.22a.62.62 0 00-.2-.03c-.35 0-.64.3-.64.66 0 .37.29.66.65.66.06 0 .13 0 .2-.03a.67.67 0 00-.05.24c0 .36.29.66.64.66.36 0 .65-.3.65-.66a.67.67 0 00-.05-.24.65.65 0 00.84-.63.65.65 0 00-.64-.66.63.63 0 00-.2.03.68.68 0 00.05-.22.65.65 0 00-.65-.66c-.35 0-.64.3-.64.66zm4.14 8.8V36h-1v-3.08c0-.6-.42-.95-.93-.92-.52.03-1.07.44-1.07.92V36h-1v-5h1v.75c.3-.62 1.16-.76 1.46-.75 1.18 0 1.52.96 1.54 1.44zm0-6.88V22h1v3.08c0 .6.42.95.93.92.52-.03 1.07-.44 1.07-.92V22h1v5h-1v-.75c-.3.62-1.16.76-1.46.75-1.18 0-1.52-.96-1.54-1.44zM44.12 31H47v1h-2.6c-.25 0-.4.27-.4.5 0 .23.2.5.4.5h1.43c.35 0 1.13.32 1.17 1.42.03 1.1-.76 1.58-1.17 1.58H43v-1h2.6c.2 0 .4-.23.4-.5s-.2-.5-.4-.5h-1.45c-.36 0-1.17-.3-1.15-1.47.02-1.18.75-1.5 1.12-1.53zm-5 0H42v1h-2.6c-.25 0-.4.27-.4.5 0 .23.2.5.4.5h1.43c.35 0 1.13.32 1.17 1.42.03 1.1-.76 1.58-1.17 1.58H38v-1h2.6c.2 0 .4-.23.4-.5s-.2-.5-.4-.5h-1.45c-.36 0-1.17-.3-1.15-1.47.02-1.18.75-1.5 1.12-1.53zm-1-9H41v1h-2.6c-.25 0-.4.27-.4.5 0 .23.21.5.4.5h1.43c.35 0 1.13.32 1.17 1.42.03 1.1-.76 1.58-1.17 1.58H37v-1h2.6c.2 0 .41-.23.4-.5 0-.27-.2-.5-.4-.5h-1.45c-.36 0-1.17-.3-1.15-1.47.02-1.18.75-1.5 1.12-1.53zM10.5 36L8 29h1.12l1.89 5.58L12.93 29h1.14L16 34.58 17.89 29H19l-2.5 7h-1l-2.03-5.67L11.5 36h-1z" fill="#fff"/><path fill-rule="evenodd" d="M37 34v-1.45c0-.53-.4-1.59-1.91-1.55-1.9.05-2.05 1.15-2.08 1.55-.02.32 0 1.28 0 1.76 0 .52.26 1.64 1.38 1.69H37v-1h-2.38c-.34 0-.68-.36-.62-1h3zm-3-1h2v-.5c0-.16-.16-.5-.46-.5h-1.12c-.22 0-.42.27-.42.5v.5zm-11 1v-1.45c0-.53-.39-1.59-1.9-1.55-1.9.05-2.05 1.15-2.08 1.55-.03.32-.01 1.28 0 1.76-.01.52.25 1.64 1.37 1.69H23v-1h-2.38c-.34 0-.68-.36-.62-1h3zm-3-1h2v-.5c0-.16-.16-.5-.45-.5h-1.13c-.22 0-.42.27-.42.5v.5z" fill="#fff"/><path fill="#fff" d="M24 29h1v7h-1zm2 0h1v7h-1z"/></svg>